<?xml version="1.0" encoding="UTF-8" standalone="no"?>
<!-- Created with Inkscape (http://www.inkscape.org/) -->

<svg
   version="1.1"
   id="svg1"
   width="238.8"
   height="256.28"
   viewBox="0 0 238.8 256.28"
   sodipodi:docname="CalxChymicus3.pdf"
   xmlns:inkscape="http://www.inkscape.org/namespaces/inkscape"
   xmlns:sodipodi="http://sodipodi.sourceforge.net/DTD/sodipodi-0.dtd"
   xmlns="http://www.w3.org/2000/svg"
   xmlns:svg="http://www.w3.org/2000/svg">
  <defs
     id="defs1">
    <clipPath
       clipPathUnits="userSpaceOnUse"
       id="clipPath2">
      <path
         d="M 0,0.16 V 1122.5601 H 793.59998 V 0.16 Z"
         transform="translate(-304.95999,-591.52002)"
         clip-rule="evenodd"
         id="path2" />
    </clipPath>
    <clipPath
       clipPathUnits="userSpaceOnUse"
       id="clipPath4">
      <path
         d="M 0,0.16 V 1122.5601 H 793.59998 V 0.16 Z"
         transform="translate(-389.92002,-662.71997)"
         clip-rule="evenodd"
         id="path4" />
    </clipPath>
    <clipPath
       clipPathUnits="userSpaceOnUse"
       id="clipPath6">
      <path
         d="M 0,0.16 V 1122.5601 H 793.59998 V 0.16 Z"
         transform="translate(-389.92002,-662.71997)"
         clip-rule="evenodd"
         id="path6" />
    </clipPath>
  </defs>
  <sodipodi:namedview
     id="namedview1"
     pagecolor="#505050"
     bordercolor="#eeeeee"
     borderopacity="1"
     inkscape:showpageshadow="0"
     inkscape:pageopacity="0"
     inkscape:pagecheckerboard="0"
     inkscape:deskcolor="#505050">
    <inkscape:page
       x="0"
       y="0"
       inkscape:label="1"
       id="page1"
       width="238.8"
       height="256.28"
       margin="0"
       bleed="0" />
  </sodipodi:namedview>
  <g
     id="g1"
     inkscape:groupmode="layer"
     inkscape:label="1">
    <path
       id="path1"
       d="m 0,0 -0.16,5.12 v 5.12 L 0,14.88 0.32,19.360001 0.8,23.52 l 0.8,3.840001 0.96,3.519998 0.96,3.200003 1.28,2.879997 1.44,2.400002 1.6,2.239997 1.76,1.760003 1.92,1.279998 2.08,1.119999 2.24,0.480004 2.24,0.319999 2.559999,-0.159999 2.560002,-0.640004 L 25.92,44.799999 28.639999,43.52 31.52,41.759998 34.400002,39.68 37.439999,37.279999 40.48,34.400002 43.52,31.200001 46.560001,27.68 49.759998,24 52.959999,19.84 56,15.36 59.200001,10.72 62.240002,5.76 65.279999,0.48 68.32,-4.96 l 3.040001,-5.6 2.879997,-5.76 2.720001,-5.92 2.720001,-6.24 2.559998,-6.240001 2.560005,-6.239998 2.399994,-6.400002 2.240005,-6.559997 2.079995,-6.400002 1.920005,-6.400001 1.919999,-6.559998 1.599998,-6.400001 1.599999,-6.400002 1.279998,-6.239998 1.120004,-6.080002 0.96,-5.919998 0.8,-5.92 0.64,-5.6 0.48,-5.6 0.16,-5.12 v -5.11999"
       style="fill:none;stroke:#000000;stroke-width:26.4;stroke-linecap:round;stroke-linejoin:round;stroke-miterlimit:10;stroke-dasharray:none;stroke-opacity:1"
       transform="translate(28.813324,164.38663)"
       clip-path="url(#clipPath2)" />
    <path
       id="path3"
       d="m 0,0 5.28,-9.12 4.8,-9.439999 L 14.56,-28 18.559999,-37.759998 22.08,-47.68 25.120001,-57.759998 27.84,-68 l 2.08,-10.400002 1.76,-10.400001 1.279999,-10.399994 0.639999,-10.560003 0.32,-10.56 -0.16,-10.56 -0.639999,-10.4 -1.279999,-10.56 -1.6,-10.4 -2.08,-10.24 -2.56,-10.24 -3.040001,-10.08 -3.519998,-10.08"
       style="fill:none;stroke:#000000;stroke-width:26.4;stroke-linecap:round;stroke-linejoin:round;stroke-miterlimit:10;stroke-dasharray:none;stroke-opacity:1"
       transform="translate(113.77335,235.58658)"
       clip-path="url(#clipPath4)" />
    <path
       id="path5"
       d="m 0,0 9.28,-9.12 8.96,-9.28 8.639999,-9.76 8.320002,-10.080002 7.84,-10.399997 7.52,-10.560002 7.039997,-10.880001 6.720002,-11.199997 6.239998,-11.36 5.920005,-11.520001 5.439995,-11.84 4.959999,-12 4.480004,-12.32001 4,-12.31999 3.68,-12.47999"
       style="fill:none;stroke:#000000;stroke-width:26.4;stroke-linecap:round;stroke-linejoin:round;stroke-miterlimit:10;stroke-dasharray:none;stroke-opacity:1"
       transform="translate(113.77335,235.58658)"
       clip-path="url(#clipPath6)" />
  </g>
</svg>
