<?xml version="1.0" encoding="UTF-8" standalone="no"?>
<!-- Created with Inkscape (http://www.inkscape.org/) -->

<svg
   version="1.1"
   id="svg1"
   width="286.82666"
   height="292.32001"
   viewBox="0 0 286.82666 292.32001"
   sodipodi:docname="CalxChymicus.pdf"
   xmlns:inkscape="http://www.inkscape.org/namespaces/inkscape"
   xmlns:sodipodi="http://sodipodi.sourceforge.net/DTD/sodipodi-0.dtd"
   xmlns="http://www.w3.org/2000/svg"
   xmlns:svg="http://www.w3.org/2000/svg">
  <defs
     id="defs1">
    <clipPath
       clipPathUnits="userSpaceOnUse"
       id="clipPath2">
      <path
         d="M 0,0.16 V 1122.5601 H 793.59998 V 0.16 Z"
         transform="translate(-442.07999,-546.23999)"
         clip-rule="evenodd"
         id="path2" />
    </clipPath>
    <clipPath
       clipPathUnits="userSpaceOnUse"
       id="clipPath4">
      <path
         d="M 0,0.16 V 1122.5601 H 793.59998 V 0.16 Z"
         transform="translate(-200.48,-727.35998)"
         clip-rule="evenodd"
         id="path4" />
    </clipPath>
    <clipPath
       clipPathUnits="userSpaceOnUse"
       id="clipPath6">
      <path
         d="M 0,0.16 V 1122.5601 H 793.59998 V 0.16 Z"
         clip-rule="evenodd"
         id="path6" />
    </clipPath>
  </defs>
  <sodipodi:namedview
     id="namedview1"
     pagecolor="#505050"
     bordercolor="#eeeeee"
     borderopacity="1"
     inkscape:showpageshadow="0"
     inkscape:pageopacity="0"
     inkscape:pagecheckerboard="0"
     inkscape:deskcolor="#505050">
    <inkscape:page
       x="0"
       y="0"
       inkscape:label="1"
       id="page1"
       width="286.82666"
       height="292.32001"
       margin="0"
       bleed="0" />
  </sodipodi:namedview>
  <g
     id="g1"
     inkscape:groupmode="layer"
     inkscape:label="1">
    <path
       id="path1"
       d="m 0,0 -3.36,-4.16 -3.68,-4 -3.84,-3.68 -4.32,-3.36 -4.32,-3.04 -4.64,-2.880001 -4.799999,-2.399999 -5.120003,-1.920001 -5.119999,-1.76 L -44.32,-28.48 -49.599998,-29.440001 -55.040001,-30.08 -60.48,-30.24 l -5.280002,0.16 -5.439995,0.639999 -5.280006,0.960001 -5.119995,1.279999 -5.120003,1.76 -5.119995,2.08 -4.800003,2.400002 -4.640001,2.719999 -4.32,3.04 -4.16,3.52 -4,3.52 -3.68,4 -3.36,4.16 -3.04,4.48 -2.88,4.64 -2.39999,4.8 -1.92,4.959999 L -132.8,24 l -1.28,5.280001 -0.95999,5.28 -0.64,5.439999 -0.16001,5.279999 0.16001,5.440002 0.64,5.439999 0.95999,5.279999 1.28,5.119999 1.76001,5.120002 2.07998,4.959999 2.40001,4.800003 2.72,4.64 3.04,4.479996"
       style="fill:none;stroke:#000000;stroke-width:26.4;stroke-linecap:round;stroke-linejoin:round;stroke-miterlimit:10;stroke-dasharray:none;stroke-opacity:1"
       transform="translate(263.31999,51.026598)"
       clip-path="url(#clipPath2)" />
    <path
       id="path3"
       d="m 0,0 3.36,4.32 3.68,3.84 4,3.68 4.16,3.36 4.32,3.04 4.64,2.719999 4.799999,2.400002 4.959999,2.08 5.120003,1.76 L 44.16,28.48 49.439999,29.440001 54.880001,30.08 60.16,30.24 l 5.439998,-0.16 5.279999,-0.48 5.280007,-0.960001 5.279998,-1.279998 4.96,-1.760001 4.959999,-1.92 4.800003,-2.399999 L 100.8,18.559999 105.28,15.52 l 4.16,-3.36 4,-3.68 3.68,-3.84 3.36,-4.16 3.2,-4.32 2.72,-4.64 2.4,-4.8 2.08,-4.96 1.76,-4.960001 1.44,-5.279999 0.95999,-5.279998 0.64,-5.280003 L 136,-44.32 l -0.16,-5.439998 -0.48,-5.280003 -0.96001,-5.279999 -1.28,-5.279998 L 131.52,-70.720001 129.60001,-75.68 127.2,-80.480003 l -2.72,-4.64 -2.88,-4.479995 -3.36,-4.32"
       style="fill:none;stroke:#000000;stroke-width:26.4;stroke-linecap:round;stroke-linejoin:round;stroke-miterlimit:10;stroke-dasharray:none;stroke-opacity:1"
       transform="translate(21.719996,232.14659)"
       clip-path="url(#clipPath4)" />
    <path
       id="path5"
       d="M 245.75999,636.79999 359.04001,750.08002"
       style="fill:none;stroke:#000000;stroke-width:26.4;stroke-linecap:round;stroke-linejoin:round;stroke-miterlimit:10;stroke-dasharray:none;stroke-opacity:1"
       transform="translate(-178.76,-495.21339)"
       clip-path="url(#clipPath6)" />
  </g>
</svg>
