<?xml version="1.0" encoding="UTF-8" standalone="no"?>
<!-- Created with Inkscape (http://www.inkscape.org/) -->

<svg
   version="1.1"
   id="svg1"
   width="300.16"
   height="174.85333"
   viewBox="0 0 300.16 174.85333"
   sodipodi:docname="CalxMetallorum3.pdf"
   xmlns:inkscape="http://www.inkscape.org/namespaces/inkscape"
   xmlns:sodipodi="http://sodipodi.sourceforge.net/DTD/sodipodi-0.dtd"
   xmlns="http://www.w3.org/2000/svg"
   xmlns:svg="http://www.w3.org/2000/svg">
  <defs
     id="defs1">
    <clipPath
       clipPathUnits="userSpaceOnUse"
       id="clipPath2">
      <path
         d="M 0,0.16 V 1122.5601 H 793.59998 V 0.16 Z"
         transform="translate(-283.51999,-561.28003)"
         clip-rule="evenodd"
         id="path2" />
    </clipPath>
    <clipPath
       clipPathUnits="userSpaceOnUse"
       id="clipPath4">
      <path
         d="M 0,0.16 V 1122.5601 H 793.59998 V 0.16 Z"
         transform="translate(3.3333334e-6)"
         clip-rule="evenodd"
         id="path4" />
    </clipPath>
  </defs>
  <sodipodi:namedview
     id="namedview1"
     pagecolor="#505050"
     bordercolor="#eeeeee"
     borderopacity="1"
     inkscape:showpageshadow="0"
     inkscape:pageopacity="0"
     inkscape:pagecheckerboard="0"
     inkscape:deskcolor="#505050">
    <inkscape:page
       x="0"
       y="0"
       inkscape:label="1"
       id="page1"
       width="300.16"
       height="174.85333"
       margin="0"
       bleed="0" />
  </sodipodi:namedview>
  <g
     id="g1"
     inkscape:groupmode="layer"
     inkscape:label="1">
    <path
       id="path1"
       d="m 0,0 0.32,6.88 0.64,6.72 0.96,6.88 1.44,6.720001 1.76,6.559997 2.24,6.400002 2.72,6.400001 2.88,6.079998 3.36,5.920002 3.84,5.759999 4,5.599998 4.32,5.279999 4.799999,4.960007 4.960003,4.639999 5.279998,4.32 5.439999,4.159996 5.760002,3.68 5.919998,3.360001 6.239998,3.04 6.240006,2.56 6.559997,2.24 6.559998,1.92 6.720001,1.28 6.720001,1.12 6.88,0.64 6.72,0.16 6.88,-0.16 6.88,-0.64 6.71999,-1.12 6.72001,-1.28 6.55999,-1.92 6.40001,-2.24 6.4,-2.56 6.08,-3.04 6.08,-3.360001 5.60001,-3.68 5.59999,-4.159996 5.28,-4.32 4.96,-4.639999 4.64,-4.960007 4.48,-5.279999 4,-5.599998 3.68,-5.759999 3.36001,-5.920002 3.03999,-6.079998 2.56,-6.400001 2.24,-6.400002 1.92,-6.559997 1.44,-6.720001 0.95999,-6.88 0.64,-6.72 L 226.56,0"
       style="fill:none;stroke:#000000;stroke-width:26.4;stroke-linecap:round;stroke-linejoin:round;stroke-miterlimit:10;stroke-dasharray:none;stroke-opacity:1"
       transform="translate(38.053322,36.706637)"
       clip-path="url(#clipPath2)" />
    <path
       id="path3"
       d="M 396.79999,561.28003 V 674.56"
       style="fill:none;stroke:#000000;stroke-width:26.4;stroke-linecap:round;stroke-linejoin:round;stroke-miterlimit:10;stroke-dasharray:none;stroke-opacity:1"
       transform="translate(-245.46667,-524.57339)"
       clip-path="url(#clipPath4)" />
  </g>
</svg>
