<?xml version="1.0" encoding="UTF-8" standalone="no"?>
<!-- Created with Inkscape (http://www.inkscape.org/) -->

<svg
   version="1.1"
   id="svg1"
   width="178.77333"
   height="377.74667"
   viewBox="0 0 178.77333 377.74667"
   sodipodi:docname="CalxMetallorum7.pdf"
   xmlns:inkscape="http://www.inkscape.org/namespaces/inkscape"
   xmlns:sodipodi="http://sodipodi.sourceforge.net/DTD/sodipodi-0.dtd"
   xmlns="http://www.w3.org/2000/svg"
   xmlns:svg="http://www.w3.org/2000/svg">
  <defs
     id="defs1">
    <clipPath
       clipPathUnits="userSpaceOnUse"
       id="clipPath2">
      <path
         d="M 0,0.16 V 1122.5601 H 793.59998 V 0.16 Z"
         transform="translate(-451.68,-409.76001)"
         clip-rule="evenodd"
         id="path2" />
    </clipPath>
    <clipPath
       clipPathUnits="userSpaceOnUse"
       id="clipPath4">
      <path
         d="M 0,0.16 V 1122.5601 H 793.59998 V 0.16 Z"
         transform="translate(-448.48001,-560.96002)"
         clip-rule="evenodd"
         id="path4" />
    </clipPath>
  </defs>
  <sodipodi:namedview
     id="namedview1"
     pagecolor="#505050"
     bordercolor="#eeeeee"
     borderopacity="1"
     inkscape:showpageshadow="0"
     inkscape:pageopacity="0"
     inkscape:pagecheckerboard="0"
     inkscape:deskcolor="#505050">
    <inkscape:page
       x="0"
       y="0"
       inkscape:label="1"
       id="page1"
       width="178.77333"
       height="377.74667"
       margin="0"
       bleed="0" />
  </sodipodi:namedview>
  <g
     id="g1"
     inkscape:groupmode="layer"
     inkscape:label="1">
    <path
       id="path1"
       d="m 0,0 -6.88,0.16 -6.72,0.32 -6.88,0.8 -6.560001,0.96 -6.719997,1.12 -6.400002,1.44 -6.400001,1.76 -6.079998,2.08 -5.920002,2.24 -5.759999,2.4 -5.599998,2.72 -5.120003,3.040001 -5.120003,3.039999 -4.639999,3.360001 -4.32,3.519998 -4.159996,3.68 -3.68,3.840001 -3.360001,3.84 -3.04,4.16 -2.56,4.159999 -2.24,4.32 -1.76,4.48 -1.44,4.479999 -1.12,4.480004 -0.64,4.479995 -0.16,4.64 0.16,4.480003 0.64,4.639999 1.12,4.480004 1.44,4.479995 1.76,4.32 2.24,4.320002 2.56,4.16 3.04,4.16 3.360001,4 3.68,3.84 4.159996,3.68 4.32,3.52 4.639999,3.36001 5.120003,3.03999 5.120003,2.88 5.599998,2.72001 5.759999,2.55999 5.920002,2.23999 6.079998,1.92002 6.400001,1.75999 6.400002,1.44 6.719997,1.28 6.560001,0.95999 6.88,0.64 6.72,0.48001 6.88,0.15999"
       style="fill:none;stroke:#000000;stroke-width:26.4;stroke-linecap:round;stroke-linejoin:round;stroke-miterlimit:10;stroke-dasharray:none;stroke-opacity:1"
       transform="translate(144.85333,44.026618)"
       clip-path="url(#clipPath2)" />
    <path
       id="path3"
       d="m 0,0 -6.24,2.72 -6.08,2.72 -6.08,3.2 -5.76,3.2 -5.6,3.52 -5.440001,3.840001 -5.119999,3.84 -4.959999,4 -4.800003,4.32 -4.32,4.319999 -4.159999,4.48 -3.840001,4.639999 -3.519996,4.64 -3.040001,4.800003 -2.879997,4.799999 -2.400002,4.799999 -2.080002,4.799999 -1.760002,4.959999 -1.279999,4.800004 -0.959999,4.959999 -0.639999,4.800003 -0.160004,4.639999 0.160004,4.639999 0.639999,4.639998 0.959999,4.32 1.440003,4.32 1.759994,4.16 2.080002,4 2.400002,3.84 2.879997,3.68 3.200005,3.52 3.519996,3.19999 3.84,2.88001 4.16,2.88 4.320004,2.56 4.799999,2.23999 4.959999,1.92002 5.119999,1.75999 5.44,1.44 5.760001,1.28 5.76,0.8 5.92,0.64 6.24,0.32 h 6.24 l 6.4,-0.16001"
       style="fill:none;stroke:#000000;stroke-width:26.4;stroke-linecap:round;stroke-linejoin:round;stroke-miterlimit:10;stroke-dasharray:none;stroke-opacity:1"
       transform="translate(141.65334,195.22663)"
       clip-path="url(#clipPath4)" />
  </g>
</svg>
