<?xml version="1.0" encoding="UTF-8" standalone="no"?>
<!-- Created with Inkscape (http://www.inkscape.org/) -->

<svg
   version="1.1"
   id="svg1"
   width="292.16"
   height="290.98666"
   viewBox="0 0 292.16 290.98666"
   sodipodi:docname="CalxMetallorum13.pdf"
   xmlns:inkscape="http://www.inkscape.org/namespaces/inkscape"
   xmlns:sodipodi="http://sodipodi.sourceforge.net/DTD/sodipodi-0.dtd"
   xmlns="http://www.w3.org/2000/svg"
   xmlns:svg="http://www.w3.org/2000/svg">
  <defs
     id="defs1">
    <clipPath
       clipPathUnits="userSpaceOnUse"
       id="clipPath2">
      <path
         d="M 0,0.16 V 1122.5601 H 793.59998 V 0.16 Z"
         transform="translate(-474.56,-444.79999)"
         clip-rule="evenodd"
         id="path2" />
    </clipPath>
    <clipPath
       clipPathUnits="userSpaceOnUse"
       id="clipPath4">
      <path
         d="M 0,0.16 V 1122.5601 H 793.59998 V 0.16 Z"
         transform="translate(-321.28,-580.15998)"
         clip-rule="evenodd"
         id="path4" />
    </clipPath>
    <clipPath
       clipPathUnits="userSpaceOnUse"
       id="clipPath6">
      <path
         d="M 0,0.16 V 1122.5601 H 793.59998 V 0.16 Z"
         clip-rule="evenodd"
         id="path6" />
    </clipPath>
    <clipPath
       clipPathUnits="userSpaceOnUse"
       id="clipPath8">
      <path
         d="M 0,0.16 V 1122.5601 H 793.59998 V 0.16 Z"
         clip-rule="evenodd"
         id="path8" />
    </clipPath>
  </defs>
  <sodipodi:namedview
     id="namedview1"
     pagecolor="#505050"
     bordercolor="#eeeeee"
     borderopacity="1"
     inkscape:showpageshadow="0"
     inkscape:pageopacity="0"
     inkscape:pagecheckerboard="0"
     inkscape:deskcolor="#505050">
    <inkscape:page
       x="0"
       y="0"
       inkscape:label="1"
       id="page1"
       width="292.16"
       height="290.98666"
       margin="0"
       bleed="0" />
  </sodipodi:namedview>
  <g
     id="g1"
     inkscape:groupmode="layer"
     inkscape:label="1">
    <path
       id="path1"
       d="m 0,0 -4.8,1.44 -4.96,1.76 -5.28,2.24 -5.28,2.4 -5.6,2.72 -5.6,2.88 -5.759999,3.359999 -5.920002,3.520001 -5.919998,3.84 -6.080002,4 -6.239998,4.32 -6.079998,4.479999 -6.240005,4.799999 L -80,46.720001 -86.080002,51.84 -92.32,57.119999 l -6.080002,5.440002 -6.079998,5.600003 -6.08,5.759994 -5.92,5.760002 -5.76,5.919998 -5.76,6.080002 -5.44,6.080002 -5.44,6.239998 -5.28,6.08 -5.12,6.24 -4.8,6.24 -4.64,6.08 -4.48,6.24 -4.16,6.08001 -4,6.07998 -3.67999,5.92002 -3.52001,5.75999 -3.19999,5.76 -2.88001,5.6 -2.56,5.59999 -2.40001,5.28002 -1.91999,5.11999 -1.76,4.95999 -1.44,4.64 -1.12,4.64002 -0.64,4.31999 -0.48001,4 -0.15998,3.84 0.15998,3.52 0.64,3.36 0.80001,3.03999 1.12001,2.72 1.43998,2.40001 1.76001,2.08001 2.23999,1.91999 2.24001,1.44001 2.72,1.27999 3.03999,0.79999 3.20002,0.64 3.51999,0.16001 h 3.84001 l 4,-0.48 4.31999,-0.64"
       style="fill:none;stroke:#000000;stroke-width:26.4;stroke-linecap:round;stroke-linejoin:round;stroke-miterlimit:10;stroke-dasharray:none;stroke-opacity:1"
       transform="translate(474.56,446.13326)"
       clip-path="url(#clipPath2)" />
    <path
       id="path3"
       d="m 0,0 2.88,3.2 3.04,3.04 3.2,2.72 3.52,2.4 3.84,2.24 3.84,1.76 4,1.439999 4.16,0.960001 4.159999,0.799999 4.32,0.32 h 4.32 l 4.16,-0.479999 4.319999,-0.8 4,-1.12 4,-1.44 3.84,-1.92 3.840004,-2.08 3.360001,-2.56 3.360001,-2.72 2.879997,-3.2 2.720001,-3.2 2.400002,-3.52 L 82.239998,-8 84,-11.84 l 1.440002,-4 1.119996,-4.16 0.639999,-4.16 0.32,-4.32 v -4.319999 l -0.479996,-4.16 -0.800003,-4.32 -1.119995,-4 -1.600006,-4 -1.759995,-3.84 -2.240005,-3.68 -2.399994,-3.520001 -2.880005,-3.2 -3.040001,-3.039998 -3.360001,-2.720001 L 64.32,-71.68 l -3.680001,-2.080002 -4,-1.759995"
       style="fill:none;stroke:#000000;stroke-width:26.4;stroke-linecap:round;stroke-linejoin:round;stroke-miterlimit:10;stroke-dasharray:none;stroke-opacity:1"
       transform="translate(321.28,581.49325)"
       clip-path="url(#clipPath4)" />
    <path
       id="path5"
       d="m 415.67999,561.28003 h 94.4"
       style="fill:none;stroke:#000000;stroke-width:26.4;stroke-linecap:round;stroke-linejoin:round;stroke-miterlimit:10;stroke-dasharray:none;stroke-opacity:1"
       transform="translate(0,1.3332747)"
       clip-path="url(#clipPath6)" />
    <path
       id="path7"
       d="M 377.92001,599.03998 H 510.07999"
       style="fill:none;stroke:#000000;stroke-width:26.4;stroke-linecap:round;stroke-linejoin:round;stroke-miterlimit:10;stroke-dasharray:none;stroke-opacity:1"
       transform="translate(0,1.3332747)"
       clip-path="url(#clipPath8)" />
  </g>
</svg>
