<?xml version="1.0" encoding="UTF-8" standalone="no"?>
<!-- Created with Inkscape (http://www.inkscape.org/) -->

<svg
   version="1.1"
   id="svg1"
   width="232.13333"
   height="273.62668"
   viewBox="0 0 232.13333 273.62668"
   sodipodi:docname="Cane2.pdf"
   xmlns:inkscape="http://www.inkscape.org/namespaces/inkscape"
   xmlns:sodipodi="http://sodipodi.sourceforge.net/DTD/sodipodi-0.dtd"
   xmlns="http://www.w3.org/2000/svg"
   xmlns:svg="http://www.w3.org/2000/svg">
  <defs
     id="defs1">
    <clipPath
       clipPathUnits="userSpaceOnUse"
       id="clipPath2">
      <path
         d="M 0,0.16 V 1122.5601 H 793.59998 V 0.16 Z"
         transform="translate(-453.44001,-448)"
         clip-rule="evenodd"
         id="path2" />
    </clipPath>
    <clipPath
       clipPathUnits="userSpaceOnUse"
       id="clipPath4">
      <path
         d="M 0,0.16 V 1122.5601 H 793.59998 V 0.16 Z"
         transform="translate(3.3333333e-6)"
         clip-rule="evenodd"
         id="path4" />
    </clipPath>
    <clipPath
       clipPathUnits="userSpaceOnUse"
       id="clipPath6">
      <path
         d="M 0,0.16 V 1122.5601 H 793.59998 V 0.16 Z"
         transform="translate(3.3333333e-6)"
         clip-rule="evenodd"
         id="path6" />
    </clipPath>
    <clipPath
       clipPathUnits="userSpaceOnUse"
       id="clipPath8">
      <path
         d="M 0,0.16 V 1122.5601 H 793.59998 V 0.16 Z"
         transform="translate(3.3333333e-6)"
         clip-rule="evenodd"
         id="path8" />
    </clipPath>
  </defs>
  <sodipodi:namedview
     id="namedview1"
     pagecolor="#505050"
     bordercolor="#eeeeee"
     borderopacity="1"
     inkscape:showpageshadow="0"
     inkscape:pageopacity="0"
     inkscape:pagecheckerboard="0"
     inkscape:deskcolor="#505050">
    <inkscape:page
       x="0"
       y="0"
       inkscape:label="1"
       id="page1"
       width="232.13333"
       height="273.62668"
       margin="0"
       bleed="0" />
  </sodipodi:namedview>
  <g
     id="g1"
     inkscape:groupmode="layer"
     inkscape:label="1">
    <path
       id="path1"
       d="m 0,0 -8.16,0.16 -8.16,0.48 -8,0.8 -8.16,1.28 -7.84,1.44 -7.84,1.76 -7.68,2.08 -7.520001,2.56 -7.36,2.72 -7.040001,3.04 -6.879997,3.2 -6.720002,3.680001 -6.400001,3.84 -6.079998,4 -5.76,4.32 -5.44,4.639999 -5.12,4.799999 -4.8,4.959999 -4.48,5.120003 -4,5.439999 -3.52001,5.440002 -3.36,5.599999 -2.71998,5.760002 -2.40001,5.919998 -2.08,5.919998 -1.44001,6.080002 -1.11999,6.079999 -0.64,6.08 -0.31999,6.08 0.31999,6.08 0.64,6.24 1.11999,6.07999 1.44001,5.92002 2.08,6.07998 2.40001,5.76001 2.71998,5.76 3.36,5.6 3.52001,5.59999 4,5.28 4.48,5.12001 4.8,5.12 5.12,4.64 5.44,4.64 5.76,4.32 6.079998,4.15999 6.400001,3.84001 6.720002,3.51999 6.879997,3.36 7.040001,3.04001 7.36,2.72 7.520001,2.4 7.68,2.08 7.84,1.75999 7.84,1.60001 8.16,1.11999 8,0.80001 8.16,0.47999 L 0,226.56"
       style="fill:none;stroke:#000000;stroke-width:26.4;stroke-linecap:round;stroke-linejoin:round;stroke-miterlimit:10;stroke-dasharray:none;stroke-opacity:1"
       transform="translate(173.29334,24.866608)"
       clip-path="url(#clipPath2)" />
    <path
       id="path3"
       d="M 453.44,599.03998 V 674.56"
       style="fill:none;stroke:#000000;stroke-width:26.4;stroke-linecap:round;stroke-linejoin:round;stroke-miterlimit:10;stroke-dasharray:none;stroke-opacity:1"
       transform="translate(-280.14667,-423.13339)"
       clip-path="url(#clipPath4)" />
    <path
       id="path5"
       d="m 415.67999,599.03998 h 75.52002"
       style="fill:none;stroke:#000000;stroke-width:26.4;stroke-linecap:round;stroke-linejoin:round;stroke-miterlimit:10;stroke-dasharray:none;stroke-opacity:1"
       transform="translate(-280.14667,-423.13339)"
       clip-path="url(#clipPath6)" />
    <path
       id="path7"
       d="m 491.20001,580.15997 v 18.88001"
       style="fill:none;stroke:#000000;stroke-width:26.4;stroke-linecap:round;stroke-linejoin:round;stroke-miterlimit:10;stroke-dasharray:none;stroke-opacity:1"
       transform="translate(-280.14667,-423.13339)"
       clip-path="url(#clipPath8)" />
  </g>
</svg>
