<?xml version="1.0" encoding="UTF-8" standalone="no"?>
<!-- Created with Inkscape (http://www.inkscape.org/) -->

<svg
   version="1.1"
   id="svg1"
   width="292.16"
   height="307.01334"
   viewBox="0 0 292.16 307.01334"
   sodipodi:docname="CineresSaiicis4.pdf"
   xmlns:inkscape="http://www.inkscape.org/namespaces/inkscape"
   xmlns:sodipodi="http://sodipodi.sourceforge.net/DTD/sodipodi-0.dtd"
   xmlns="http://www.w3.org/2000/svg"
   xmlns:svg="http://www.w3.org/2000/svg">
  <defs
     id="defs1">
    <clipPath
       clipPathUnits="userSpaceOnUse"
       id="clipPath2">
      <path
         d="M 0,0.16 V 1122.5601 H 793.59998 V 0.16 Z"
         transform="translate(-510.07999,-509.44)"
         clip-rule="evenodd"
         id="path2" />
    </clipPath>
    <clipPath
       clipPathUnits="userSpaceOnUse"
       id="clipPath4">
      <path
         d="M 0,0.16 V 1122.5601 H 793.59998 V 0.16 Z"
         clip-rule="evenodd"
         id="path4" />
    </clipPath>
    <clipPath
       clipPathUnits="userSpaceOnUse"
       id="clipPath6">
      <path
         d="M 0,0.16 V 1122.5601 H 793.59998 V 0.16 Z"
         clip-rule="evenodd"
         id="path6" />
    </clipPath>
    <clipPath
       clipPathUnits="userSpaceOnUse"
       id="clipPath8">
      <path
         d="M 0,0.16 V 1122.5601 H 793.59998 V 0.16 Z"
         clip-rule="evenodd"
         id="path8" />
    </clipPath>
    <clipPath
       clipPathUnits="userSpaceOnUse"
       id="clipPath10">
      <path
         d="M 0,0.16 V 1122.5601 H 793.59998 V 0.16 Z"
         clip-rule="evenodd"
         id="path10" />
    </clipPath>
    <clipPath
       clipPathUnits="userSpaceOnUse"
       id="clipPath12">
      <path
         d="M 0,0.16 V 1122.5601 H 793.59998 V 0.16 Z"
         transform="translate(-321.28,-754.88001)"
         clip-rule="evenodd"
         id="path12" />
    </clipPath>
    <clipPath
       clipPathUnits="userSpaceOnUse"
       id="clipPath14">
      <path
         d="M 0,0.16 V 1122.5601 H 793.59998 V 0.16 Z"
         transform="translate(-434.56,-679.35999)"
         clip-rule="evenodd"
         id="path14" />
    </clipPath>
  </defs>
  <sodipodi:namedview
     id="namedview1"
     pagecolor="#505050"
     bordercolor="#eeeeee"
     borderopacity="1"
     inkscape:showpageshadow="0"
     inkscape:pageopacity="0"
     inkscape:pagecheckerboard="0"
     inkscape:deskcolor="#505050">
    <inkscape:page
       x="0"
       y="0"
       inkscape:label="1"
       id="page1"
       width="292.16"
       height="307.01334"
       margin="0"
       bleed="0" />
  </sodipodi:namedview>
  <g
     id="g1"
     inkscape:groupmode="layer"
     inkscape:label="1">
    <path
       id="path1"
       d="M 0,0 -5.28,0.16 -10.72,0.64 -16,1.6 -21.280001,3.04 -26.4,4.64 -31.360001,6.72 -36.16,9.12 -40.799999,12 l -4.48,3.04 -4.16,3.36 -3.84,3.68 -3.68,4 -3.520001,4.16 -3.04,4.320001 -2.719998,4.64 -2.400001,4.959999 -2.080002,4.959999 -1.760002,5.120003 -1.279999,5.119999 -0.959999,5.279998 -0.479996,5.440003 -0.32,5.439995 0.32,5.280006 0.479996,5.439995 0.959999,5.279999 1.279999,5.280006 1.760002,5.119997 2.080002,4.96 2.400001,4.8 2.719998,4.64 3.04,4.32 3.520001,4.32 3.68,3.84 3.84,3.68 4.16,3.36 4.48,3.19999 4.639999,2.72 4.799999,2.40001 4.960001,2.08 5.119999,1.6 5.280001,1.44 5.28,0.96 5.44,0.48 5.28,0.31999"
       style="fill:none;stroke:#000000;stroke-width:26.4;stroke-linecap:round;stroke-linejoin:round;stroke-miterlimit:10;stroke-dasharray:none;stroke-opacity:1"
       transform="translate(510.07999,361.27994)"
       clip-path="url(#clipPath2)" />
    <path
       id="path3"
       d="m 510.07999,584.96002 h -226.56"
       style="fill:none;stroke:#000000;stroke-width:26.4;stroke-linecap:round;stroke-linejoin:round;stroke-miterlimit:10;stroke-dasharray:none;stroke-opacity:1"
       transform="translate(0,-148.16006)"
       clip-path="url(#clipPath4)" />
    <path
       id="path5"
       d="m 283.51999,547.20001 v 75.51996"
       style="fill:none;stroke:#000000;stroke-width:26.4;stroke-linecap:round;stroke-linejoin:round;stroke-miterlimit:10;stroke-dasharray:none;stroke-opacity:1"
       transform="translate(0,-148.16006)"
       clip-path="url(#clipPath6)" />
    <path
       id="path7"
       d="m 321.28,622.71997 h 75.51999"
       style="fill:none;stroke:#000000;stroke-width:26.4;stroke-linecap:round;stroke-linejoin:round;stroke-miterlimit:10;stroke-dasharray:none;stroke-opacity:1"
       transform="translate(0,-148.16006)"
       clip-path="url(#clipPath8)" />
    <path
       id="path9"
       d="M 396.79999,622.71997 321.28,679.35998"
       style="fill:none;stroke:#000000;stroke-width:26.4;stroke-linecap:round;stroke-linejoin:round;stroke-miterlimit:10;stroke-dasharray:none;stroke-opacity:1"
       transform="translate(0,-148.16006)"
       clip-path="url(#clipPath10)" />
    <path
       id="path11"
       d="m 0,0 3.36,2.24 3.68,2.08 3.68,1.6 3.84,1.44 3.999999,0.96 4,0.64 4.16,0.32 h 4 l 4.160002,-0.32 4,-0.8 4,-1.12 3.84,-1.44 3.680001,-1.76 3.519996,-1.92 3.360001,-2.4 L 60.48,-3.2 63.360001,-6.08 65.919998,-9.28 68.32,-12.64 70.239998,-16.16 72,-19.84 l 1.440002,-3.84 0.96,-4 0.799995,-4 0.32,-4.16 v -4 l -0.32,-4.16 -0.799995,-4 -0.96,-4 L 72,-55.84 70.239998,-59.52 68.32,-63.040001 65.919998,-66.400002 63.360001,-69.599998 60.48,-72.480003 l -3.200001,-2.719994 -3.360001,-2.240005 -3.519996,-2.079995 -3.680001,-1.760002 -3.84,-1.440002 -4,-1.119995 -4,-0.800003 -4.160002,-0.32 h -4 l -4.16,0.32 -4,0.639999 -3.999999,0.959999 -3.84,1.440003 -3.68,1.760002 -3.68,1.919998 -3.36,2.400001"
       style="fill:none;stroke:#000000;stroke-width:26.4;stroke-linecap:round;stroke-linejoin:round;stroke-miterlimit:10;stroke-dasharray:none;stroke-opacity:1"
       transform="translate(321.28,606.71995)"
       clip-path="url(#clipPath12)" />
    <path
       id="path13"
       d="m 0,0 -6.4,-0.8 -6.4,-0.32 -6.560001,0.16 -6.399999,0.64 -6.4,0.8 -6.400001,1.44 -6.239998,1.76 -6.080002,2.08 -5.919998,2.56 -5.760002,2.88 -5.600003,3.2 -5.439994,3.52 -5.120003,4 -4.959999,4.16 -4.64,4.639999 -4.319999,4.800001 -4,5.119999 -3.680001,5.279999 -3.2,5.600002 -3.04,5.759999 -2.56,5.920002 -2.24,6.079998 -1.92,6.239998"
       style="fill:none;stroke:#000000;stroke-width:26.4;stroke-linecap:round;stroke-linejoin:round;stroke-miterlimit:10;stroke-dasharray:none;stroke-opacity:1"
       transform="translate(434.56,531.19993)"
       clip-path="url(#clipPath14)" />
  </g>
</svg>
