<?xml version="1.0" encoding="UTF-8" standalone="no"?>
<!-- Created with Inkscape (http://www.inkscape.org/) -->

<svg
   version="1.1"
   id="svg1"
   width="332.18668"
   height="328.35999"
   viewBox="0 0 332.18668 328.35999"
   sodipodi:docname="Cohabitio2.pdf"
   xmlns:inkscape="http://www.inkscape.org/namespaces/inkscape"
   xmlns:sodipodi="http://sodipodi.sourceforge.net/DTD/sodipodi-0.dtd"
   xmlns="http://www.w3.org/2000/svg"
   xmlns:svg="http://www.w3.org/2000/svg">
  <defs
     id="defs1">
    <clipPath
       clipPathUnits="userSpaceOnUse"
       id="clipPath2">
      <path
         d="M 0,0.16 V 1122.5601 H 793.59998 V 0.16 Z"
         transform="translate(-444,-419.68)"
         clip-rule="evenodd"
         id="path2" />
    </clipPath>
    <clipPath
       clipPathUnits="userSpaceOnUse"
       id="clipPath4">
      <path
         d="M 0,0.16 V 1122.5601 H 793.59998 V 0.16 Z"
         clip-rule="evenodd"
         id="path4" />
    </clipPath>
    <clipPath
       clipPathUnits="userSpaceOnUse"
       id="clipPath6">
      <path
         d="M 0,0.16 V 1122.5601 H 793.59998 V 0.16 Z"
         clip-rule="evenodd"
         id="path6" />
    </clipPath>
    <clipPath
       clipPathUnits="userSpaceOnUse"
       id="clipPath8">
      <path
         d="M 0,0.16 V 1122.5601 H 793.59998 V 0.16 Z"
         clip-rule="evenodd"
         id="path8" />
    </clipPath>
    <clipPath
       clipPathUnits="userSpaceOnUse"
       id="clipPath10">
      <path
         d="M 0,0.16 V 1122.5601 H 793.59998 V 0.16 Z"
         transform="translate(-330.72,-551.84003)"
         clip-rule="evenodd"
         id="path10" />
    </clipPath>
    <clipPath
       clipPathUnits="userSpaceOnUse"
       id="clipPath12">
      <path
         d="M 0,0.16 V 1122.5601 H 793.59998 V 0.16 Z"
         clip-rule="evenodd"
         id="path12" />
    </clipPath>
    <clipPath
       clipPathUnits="userSpaceOnUse"
       id="clipPath14">
      <path
         d="M 0,0.16 V 1122.5601 H 793.59998 V 0.16 Z"
         clip-rule="evenodd"
         id="path14" />
    </clipPath>
    <clipPath
       clipPathUnits="userSpaceOnUse"
       id="clipPath16">
      <path
         d="M 0,0.16 V 1122.5601 H 793.59998 V 0.16 Z"
         clip-rule="evenodd"
         id="path16" />
    </clipPath>
    <clipPath
       clipPathUnits="userSpaceOnUse"
       id="clipPath18">
      <path
         d="M 0,0.16 V 1122.5601 H 793.59998 V 0.16 Z"
         clip-rule="evenodd"
         id="path18" />
    </clipPath>
    <clipPath
       clipPathUnits="userSpaceOnUse"
       id="clipPath20">
      <path
         d="M 0,0.16 V 1122.5601 H 793.59998 V 0.16 Z"
         clip-rule="evenodd"
         id="path20" />
    </clipPath>
  </defs>
  <sodipodi:namedview
     id="namedview1"
     pagecolor="#505050"
     bordercolor="#eeeeee"
     borderopacity="1"
     inkscape:showpageshadow="0"
     inkscape:pageopacity="0"
     inkscape:pagecheckerboard="0"
     inkscape:deskcolor="#505050">
    <inkscape:page
       x="0"
       y="0"
       inkscape:label="1"
       id="page1"
       width="332.18668"
       height="328.35999"
       margin="0"
       bleed="0" />
  </sodipodi:namedview>
  <g
     id="g1"
     inkscape:groupmode="layer"
     inkscape:label="1">
    <path
       id="path1"
       d="M 0,0 -6.08,0.16 -12.32,0.8 -18.4,1.92 -24.32,3.2 -30.24,4.96 -36,7.2 -41.759998,9.76 -47.200001,12.64 -52.32,16 l -5.119999,3.52 -4.800003,4 -4.479999,4.16 -4.159996,4.48 -4,4.799999 -3.520005,4.959999 -3.36,5.280003 -2.879997,5.439998 -2.559998,5.600003 -2.080002,5.920002 -1.919998,5.759994 L -92.480003,76 l -1.119995,6.080002 -0.480004,6.239998 -0.32,6.080002"
       style="fill:none;stroke:#000000;stroke-width:26.4;stroke-linecap:round;stroke-linejoin:round;stroke-miterlimit:10;stroke-dasharray:none;stroke-opacity:1"
       transform="translate(444,418.33327)"
       clip-path="url(#clipPath2)" />
    <path
       id="path3"
       d="m 444,419.67999 v 94.40003"
       style="fill:none;stroke:#000000;stroke-width:26.4;stroke-linecap:round;stroke-linejoin:round;stroke-miterlimit:10;stroke-dasharray:none;stroke-opacity:1"
       transform="translate(0,-1.3467253)"
       clip-path="url(#clipPath4)" />
    <path
       id="path5"
       d="m 444,514.08002 h 94.40002"
       style="fill:none;stroke:#000000;stroke-width:26.4;stroke-linecap:round;stroke-linejoin:round;stroke-miterlimit:10;stroke-dasharray:none;stroke-opacity:1"
       transform="translate(0,-1.3467253)"
       clip-path="url(#clipPath6)" />
    <path
       id="path7"
       d="M 349.60001,514.08002 H 255.2"
       style="fill:none;stroke:#000000;stroke-width:26.4;stroke-linecap:round;stroke-linejoin:round;stroke-miterlimit:10;stroke-dasharray:none;stroke-opacity:1"
       transform="translate(0,-1.3467253)"
       clip-path="url(#clipPath8)" />
    <path
       id="path9"
       d="m 0,0 -4,0.16 -4,0.64 -4,0.96 -3.84,1.28 -3.84,1.76 -3.84,2.08 -3.520001,2.4 -3.519998,2.72 -3.359999,3.04 -3.040001,3.36 L -40,22.08 l -2.720001,4 -2.559998,4.16 -2.240001,4.480001 -2.079998,4.64 L -51.52,44.16 -52.959999,49.119999 -54.240002,54.240002 -55.360001,59.52 -56,64.800003 l -0.48,5.279999 -0.159999,5.439995 0.159999,5.440002 0.48,5.279999 0.639999,5.279999 1.119999,5.280006 1.280003,5.119997 1.439999,4.96 1.920002,4.8 2.079998,4.64 2.240001,4.48 2.559998,4.16 2.720001,4.00001 3.040001,3.67999 3.040001,3.36 3.359999,3.03999 3.519998,2.72 3.520001,2.40001 3.84,2.08 3.84,1.76 3.84,1.28 4,0.96 4,0.64 4,0.15999"
       style="fill:none;stroke:#000000;stroke-width:26.4;stroke-linecap:round;stroke-linejoin:round;stroke-miterlimit:10;stroke-dasharray:none;stroke-opacity:1"
       transform="translate(330.72,550.4933)"
       clip-path="url(#clipPath10)" />
    <path
       id="path11"
       d="m 330.72,551.84003 h 37.76001"
       style="fill:none;stroke:#000000;stroke-width:26.4;stroke-linecap:round;stroke-linejoin:round;stroke-miterlimit:10;stroke-dasharray:none;stroke-opacity:1"
       transform="translate(0,-1.3467253)"
       clip-path="url(#clipPath12)" />
    <path
       id="path13"
       d="m 330.72,702.88 h 37.76001"
       style="fill:none;stroke:#000000;stroke-width:26.4;stroke-linecap:round;stroke-linejoin:round;stroke-miterlimit:10;stroke-dasharray:none;stroke-opacity:1"
       transform="translate(0,-1.3467253)"
       clip-path="url(#clipPath14)" />
    <path
       id="path15"
       d="M 406.23999,551.84003 V 702.88"
       style="fill:none;stroke:#000000;stroke-width:26.4;stroke-linecap:round;stroke-linejoin:round;stroke-miterlimit:10;stroke-dasharray:none;stroke-opacity:1"
       transform="translate(0,-1.3467253)"
       clip-path="url(#clipPath16)" />
    <path
       id="path17"
       d="M 500.64001,551.84003 V 702.88"
       style="fill:none;stroke:#000000;stroke-width:26.4;stroke-linecap:round;stroke-linejoin:round;stroke-miterlimit:10;stroke-dasharray:none;stroke-opacity:1"
       transform="translate(0,-1.3467253)"
       clip-path="url(#clipPath18)" />
    <path
       id="path19"
       d="m 406.23999,627.35998 h 94.40002"
       style="fill:none;stroke:#000000;stroke-width:26.4;stroke-linecap:round;stroke-linejoin:round;stroke-miterlimit:10;stroke-dasharray:none;stroke-opacity:1"
       transform="translate(0,-1.3467253)"
       clip-path="url(#clipPath20)" />
  </g>
</svg>
