<?xml version="1.0" encoding="UTF-8" standalone="no"?>
<!-- Created with Inkscape (http://www.inkscape.org/) -->

<svg
   version="1.1"
   id="svg1"
   width="238.8"
   height="270.95999"
   viewBox="0 0 238.8 270.95999"
   sodipodi:docname="CrystalOfSaturn2.pdf"
   xmlns:inkscape="http://www.inkscape.org/namespaces/inkscape"
   xmlns:sodipodi="http://sodipodi.sourceforge.net/DTD/sodipodi-0.dtd"
   xmlns="http://www.w3.org/2000/svg"
   xmlns:svg="http://www.w3.org/2000/svg">
  <defs
     id="defs1">
    <clipPath
       clipPathUnits="userSpaceOnUse"
       id="clipPath2">
      <path
         d="M 0,0.16 V 1122.5601 H 793.59998 V 0.16 Z"
         transform="translate(-377.92001,-485.76001)"
         clip-rule="evenodd"
         id="path2" />
    </clipPath>
    <clipPath
       clipPathUnits="userSpaceOnUse"
       id="clipPath4">
      <path
         d="M 0,0.16 V 1122.5601 H 793.59998 V 0.16 Z"
         transform="translate(-491.20001,-636.79999)"
         clip-rule="evenodd"
         id="path4" />
    </clipPath>
    <clipPath
       clipPathUnits="userSpaceOnUse"
       id="clipPath6">
      <path
         d="M 0,0.16 V 1122.5601 H 793.59998 V 0.16 Z"
         clip-rule="evenodd"
         id="path6" />
    </clipPath>
    <clipPath
       clipPathUnits="userSpaceOnUse"
       id="clipPath8">
      <path
         d="M 0,0.16 V 1122.5601 H 793.59998 V 0.16 Z"
         transform="translate(-471.04001,-604.64001)"
         clip-rule="evenodd"
         id="path8" />
    </clipPath>
  </defs>
  <sodipodi:namedview
     id="namedview1"
     pagecolor="#505050"
     bordercolor="#eeeeee"
     borderopacity="1"
     inkscape:showpageshadow="0"
     inkscape:pageopacity="0"
     inkscape:pagecheckerboard="0"
     inkscape:deskcolor="#505050">
    <inkscape:page
       x="0"
       y="0"
       inkscape:label="1"
       id="page1"
       width="238.8"
       height="270.95999"
       margin="0"
       bleed="0" />
  </sodipodi:namedview>
  <g
     id="g1"
     inkscape:groupmode="layer"
     inkscape:label="1">
    <path
       id="path1"
       d="m 0,0 c 0,-20.85 -16.9,-37.759998 -37.759998,-37.759998 -20.860001,0 -37.759999,16.909998 -37.759999,37.759998 0,20.85 16.899998,37.759998 37.759999,37.759998 C -16.9,37.759998 0,20.85 0,0 Z"
       style="fill:none;stroke:#000000;stroke-width:26.4;stroke-linecap:round;stroke-linejoin:round;stroke-miterlimit:10;stroke-dasharray:none;stroke-opacity:1"
       transform="translate(100.44001,62.626618)"
       clip-path="url(#clipPath2)" />
    <path
       id="path3"
       d="m 0,0 c 0,-20.85 -16.9,-37.759998 -37.759998,-37.759998 -20.860001,0 -37.759999,16.909998 -37.759999,37.759998 0,20.85 16.899998,37.759998 37.759999,37.759998 C -16.9,37.759998 0,20.85 0,0 Z"
       style="fill:none;stroke:#000000;stroke-width:26.4;stroke-linecap:round;stroke-linejoin:round;stroke-miterlimit:10;stroke-dasharray:none;stroke-opacity:1"
       transform="translate(213.72001,213.6666)"
       clip-path="url(#clipPath4)" />
    <path
       id="path5"
       d="M 340.16,523.52002 V 636.79999"
       style="fill:none;stroke:#000000;stroke-width:26.4;stroke-linecap:round;stroke-linejoin:round;stroke-miterlimit:10;stroke-dasharray:none;stroke-opacity:1"
       transform="translate(-277.48,-423.13339)"
       clip-path="url(#clipPath6)" />
    <path
       id="path7"
       d="M 0,0 1.6,-4.8 3.04,-9.6 4,-14.4 4.64,-19.040001 4.96,-23.52 V -28 L 4.64,-32.32 4,-36.48 l -0.96,-4 -1.44,-3.68 -1.6,-3.52 -2.08,-3.360001 -2.24,-3.040001 -2.72,-2.719997 -2.88,-2.400002 -3.04,-2.239998 -3.36,-1.920002 -3.68,-1.440002 -3.84,-1.279999 -4,-0.799995 -4.32,-0.64 -4.32,-0.160003 -4.479999,0.160003 -4.639999,0.479996 -4.640004,0.800003 -4.799999,1.279999 L -59.84,-63.52 l -4.799999,1.760002 -4.959999,2.079998 -4.64,2.560001 -4.800003,2.719997 L -83.68,-51.52 l -4.480004,3.36 -4.479995,3.360001 -4.32,3.84 -4.000001,3.84 -4,4.16 -3.68,4.32 -3.36,4.319999 -3.2,4.64 -3.04,4.64 -2.72,4.64 -2.4,4.8 -2.08,4.96 -1.76,4.8 -1.44,4.8 -1.11999,4.64 -0.80001,4.8 -0.32,4.640001 -0.15999,4.479999 0.15999,4.32"
       style="fill:none;stroke:#000000;stroke-width:26.4;stroke-linecap:round;stroke-linejoin:round;stroke-miterlimit:10;stroke-dasharray:none;stroke-opacity:1"
       transform="translate(193.56001,181.50662)"
       clip-path="url(#clipPath8)" />
  </g>
</svg>
