<?xml version="1.0" encoding="UTF-8" standalone="no"?>
<!-- Created with Inkscape (http://www.inkscape.org/) -->

<svg
   version="1.1"
   id="svg1"
   width="509.60001"
   height="500.54666"
   viewBox="0 0 509.60001 500.54666"
   sodipodi:docname="LeadOfAntimony.pdf"
   xmlns:inkscape="http://www.inkscape.org/namespaces/inkscape"
   xmlns:sodipodi="http://sodipodi.sourceforge.net/DTD/sodipodi-0.dtd"
   xmlns="http://www.w3.org/2000/svg"
   xmlns:svg="http://www.w3.org/2000/svg">
  <defs
     id="defs1">
    <clipPath
       clipPathUnits="userSpaceOnUse"
       id="clipPath2">
      <path
         d="M 0,0.16 V 1122.5601 H 793.59998 V 0.16 Z"
         transform="translate(-396.79999,-674.56)"
         clip-rule="evenodd"
         id="path2" />
    </clipPath>
    <clipPath
       clipPathUnits="userSpaceOnUse"
       id="clipPath4">
      <path
         d="M 0,0.16 V 1122.5601 H 793.59998 V 0.16 Z"
         transform="translate(3.3333333e-6)"
         clip-rule="evenodd"
         id="path4" />
    </clipPath>
    <clipPath
       clipPathUnits="userSpaceOnUse"
       id="clipPath6">
      <path
         d="M 0,0.16 V 1122.5601 H 793.59998 V 0.16 Z"
         transform="translate(3.3333333e-6)"
         clip-rule="evenodd"
         id="path6" />
    </clipPath>
    <clipPath
       clipPathUnits="userSpaceOnUse"
       id="clipPath8">
      <path
         d="M 0,0.16 V 1122.5601 H 793.59998 V 0.16 Z"
         transform="translate(-396.79999,-448)"
         clip-rule="evenodd"
         id="path8" />
    </clipPath>
  </defs>
  <sodipodi:namedview
     id="namedview1"
     pagecolor="#505050"
     bordercolor="#eeeeee"
     borderopacity="1"
     inkscape:showpageshadow="0"
     inkscape:pageopacity="0"
     inkscape:pagecheckerboard="0"
     inkscape:deskcolor="#505050">
    <inkscape:page
       x="0"
       y="0"
       inkscape:label="1"
       id="page1"
       width="509.60001"
       height="500.54666"
       margin="0"
       bleed="0" />
  </sodipodi:namedview>
  <g
     id="g1"
     inkscape:groupmode="layer"
     inkscape:label="1">
    <path
       id="path1"
       d="m 0,0 c 0,-62.560001 -50.709999,-113.28 -113.28,-113.28 -62.57001,0 -113.28,50.719999 -113.28,113.28 0,62.560001 50.70999,113.28 113.28,113.28 C -50.709999,113.28 0,62.560001 0,0 Z"
       style="fill:none;stroke:#000000;stroke-width:26.4;stroke-linecap:round;stroke-linejoin:round;stroke-miterlimit:10;stroke-dasharray:none;stroke-opacity:1"
       transform="translate(254.05332,364.89327)"
       clip-path="url(#clipPath2)" />
    <path
       id="path3"
       d="M 283.51999,561.28003 V 334.72"
       style="fill:none;stroke:#000000;stroke-width:26.4;stroke-linecap:round;stroke-linejoin:round;stroke-miterlimit:10;stroke-dasharray:none;stroke-opacity:1"
       transform="translate(-142.74667,-309.66673)"
       clip-path="url(#clipPath4)" />
    <path
       id="path5"
       d="M 170.24,448 H 396.79999"
       style="fill:none;stroke:#000000;stroke-width:26.4;stroke-linecap:round;stroke-linejoin:round;stroke-miterlimit:10;stroke-dasharray:none;stroke-opacity:1"
       transform="translate(-142.74667,-309.66673)"
       clip-path="url(#clipPath6)" />
    <path
       id="path7"
       d="m 0,0 0.32,6.88 0.48,6.88 1.12,6.72 1.44,6.720001 1.76,6.559997 2.24,6.400002 2.72,6.400001 2.88,6.079998 3.36,5.920002 3.84,5.759999 4,5.599998 4.32,5.279999 4.799999,4.960007 4.960003,4.639999 5.279998,4.32 5.439999,4.159996 5.760002,3.68 5.919998,3.360001 6.239998,3.04 6.240006,2.56 6.559997,2.24 6.559998,1.92 6.720001,1.44 6.720001,0.96 6.88,0.64 6.72,0.16 6.88,-0.16 6.88,-0.64 6.71999,-0.96 6.72001,-1.44 6.55999,-1.92 6.40001,-2.24 6.4,-2.56 6.08,-3.04 6.08,-3.360001 5.60001,-3.68 5.59999,-4.159996 5.28,-4.32 4.96,-4.639999 4.64,-4.960007 4.48,-5.279999 4,-5.599998 3.68,-5.759999 3.36001,-5.920002 3.03999,-6.079998 2.56,-6.400001 2.24,-6.400002 1.92,-6.559997 1.44,-6.720001 0.95999,-6.72 0.64,-6.88 L 226.56,0"
       style="fill:none;stroke:#000000;stroke-width:26.4;stroke-linecap:round;stroke-linejoin:round;stroke-miterlimit:10;stroke-dasharray:none;stroke-opacity:1"
       transform="translate(254.05332,138.33327)"
       clip-path="url(#clipPath8)" />
  </g>
</svg>
