<?xml version="1.0" encoding="UTF-8" standalone="no"?>
<!-- Created with Inkscape (http://www.inkscape.org/) -->

<svg
   version="1.1"
   id="svg1"
   width="196.10667"
   height="460.50668"
   viewBox="0 0 196.10667 460.50668"
   sodipodi:docname="MercuryOfCopper.pdf"
   xmlns:inkscape="http://www.inkscape.org/namespaces/inkscape"
   xmlns:sodipodi="http://sodipodi.sourceforge.net/DTD/sodipodi-0.dtd"
   xmlns="http://www.w3.org/2000/svg"
   xmlns:svg="http://www.w3.org/2000/svg">
  <defs
     id="defs1">
    <clipPath
       clipPathUnits="userSpaceOnUse"
       id="clipPath2">
      <path
         d="M 0,0.16 V 1122.5601 H 793.59998 V 0.16 Z"
         transform="translate(-442.07999,-523.52002)"
         clip-rule="evenodd"
         id="path2" />
    </clipPath>
    <clipPath
       clipPathUnits="userSpaceOnUse"
       id="clipPath4">
      <path
         d="M 0,0.16 V 1122.5601 H 793.59998 V 0.16 Z"
         transform="translate(-442.07999,-704.79999)"
         clip-rule="evenodd"
         id="path4" />
    </clipPath>
    <clipPath
       clipPathUnits="userSpaceOnUse"
       id="clipPath6">
      <path
         d="M 0,0.16 V 1122.5601 H 793.59998 V 0.16 Z"
         transform="translate(3.3333333e-6)"
         clip-rule="evenodd"
         id="path6" />
    </clipPath>
    <clipPath
       clipPathUnits="userSpaceOnUse"
       id="clipPath8">
      <path
         d="M 0,0.16 V 1122.5601 H 793.59998 V 0.16 Z"
         transform="translate(3.3333333e-6)"
         clip-rule="evenodd"
         id="path8" />
    </clipPath>
    <clipPath
       clipPathUnits="userSpaceOnUse"
       id="clipPath10">
      <path
         d="M 0,0.16 V 1122.5601 H 793.59998 V 0.16 Z"
         transform="translate(-351.51999,-432.95999)"
         clip-rule="evenodd"
         id="path10" />
    </clipPath>
    <clipPath
       clipPathUnits="userSpaceOnUse"
       id="clipPath12">
      <path
         d="M 0,0.16 V 1122.5601 H 793.59998 V 0.16 Z"
         transform="translate(3.3333333e-6)"
         clip-rule="evenodd"
         id="path12" />
    </clipPath>
    <clipPath
       clipPathUnits="userSpaceOnUse"
       id="clipPath14">
      <path
         d="M 0,0.16 V 1122.5601 H 793.59998 V 0.16 Z"
         transform="translate(3.3333333e-6)"
         clip-rule="evenodd"
         id="path14" />
    </clipPath>
  </defs>
  <sodipodi:namedview
     id="namedview1"
     pagecolor="#505050"
     bordercolor="#eeeeee"
     borderopacity="1"
     inkscape:showpageshadow="0"
     inkscape:pageopacity="0"
     inkscape:pagecheckerboard="0"
     inkscape:deskcolor="#505050">
    <inkscape:page
       x="0"
       y="0"
       inkscape:label="1"
       id="page1"
       width="196.10667"
       height="460.50668"
       margin="0"
       bleed="0" />
  </sodipodi:namedview>
  <g
     id="g1"
     inkscape:groupmode="layer"
     inkscape:label="1">
    <path
       id="path1"
       d="M 0,0 C 0,-25 -20.27,-45.279999 -45.279999,-45.279999 -70.290001,-45.279999 -90.559998,-25 -90.559998,0 c 0,25 20.269997,45.279999 45.279999,45.279999 C -20.27,45.279999 0,25 0,0 Z"
       style="fill:none;stroke:#000000;stroke-width:26.4;stroke-linecap:round;stroke-linejoin:round;stroke-miterlimit:10;stroke-dasharray:none;stroke-opacity:1"
       transform="translate(143.25332,120.41329)"
       clip-path="url(#clipPath2)" />
    <path
       id="path3"
       d="M 0,0 C 0,-25 -20.27,-45.279999 -45.279999,-45.279999 -70.290001,-45.279999 -90.559998,-25 -90.559998,0 c 0,25 20.269997,45.279999 45.279999,45.279999 C -20.27,45.279999 0,25 0,0 Z"
       style="fill:none;stroke:#000000;stroke-width:26.4;stroke-linecap:round;stroke-linejoin:round;stroke-miterlimit:10;stroke-dasharray:none;stroke-opacity:1"
       transform="translate(143.25332,301.69326)"
       clip-path="url(#clipPath4)" />
    <path
       id="path5"
       d="m 396.79999,568.79999 v 90.72003"
       style="fill:none;stroke:#000000;stroke-width:26.4;stroke-linecap:round;stroke-linejoin:round;stroke-miterlimit:10;stroke-dasharray:none;stroke-opacity:1"
       transform="translate(-298.82667,-403.10673)"
       clip-path="url(#clipPath6)" />
    <path
       id="path7"
       d="m 328.95999,614.23999 h 135.84"
       style="fill:none;stroke:#000000;stroke-width:26.4;stroke-linecap:round;stroke-linejoin:round;stroke-miterlimit:10;stroke-dasharray:none;stroke-opacity:1"
       transform="translate(-298.82667,-403.10673)"
       clip-path="url(#clipPath8)" />
    <path
       id="path9"
       d="m 0,0 0.16,3.84 0.48,4 0.96,3.84 1.12,3.84 1.6,3.520001 1.76,3.519998 L 8.16,25.92 10.56,29.120001 13.28,32 l 2.88,2.720001 3.200001,2.399998 3.359998,2.080002 3.520001,1.759998 3.52,1.600002 3.839998,1.119999 3.840001,0.959999 4,0.48 3.84,0.16 4,-0.16 3.84,-0.48 4,-0.959999 3.68,-1.119999 3.680004,-1.600002 L 68,39.200001 71.360001,37.119999 74.400002,34.720001 77.440002,32 80,29.120001 82.400002,25.92 84.639999,22.559999 86.400002,19.040001 87.839996,15.52 89.120003,11.68 89.919998,7.84 90.400002,3.84 90.559998,0"
       style="fill:none;stroke:#000000;stroke-width:26.4;stroke-linecap:round;stroke-linejoin:round;stroke-miterlimit:10;stroke-dasharray:none;stroke-opacity:1"
       transform="translate(52.693322,29.853266)"
       clip-path="url(#clipPath10)" />
    <path
       id="path11"
       d="m 396.79999,750.08002 v 90.55999"
       style="fill:none;stroke:#000000;stroke-width:26.4;stroke-linecap:round;stroke-linejoin:round;stroke-miterlimit:10;stroke-dasharray:none;stroke-opacity:1"
       transform="translate(-298.82667,-403.10673)"
       clip-path="url(#clipPath12)" />
    <path
       id="path13"
       d="m 328.95999,795.35998 h 135.84"
       style="fill:none;stroke:#000000;stroke-width:26.4;stroke-linecap:round;stroke-linejoin:round;stroke-miterlimit:10;stroke-dasharray:none;stroke-opacity:1"
       transform="translate(-298.82667,-403.10673)"
       clip-path="url(#clipPath14)" />
  </g>
</svg>
