<?xml version="1.0" encoding="UTF-8" standalone="no"?>
<!-- Created with Inkscape (http://www.inkscape.org/) -->

<svg
   version="1.1"
   id="svg1"
   width="414.88"
   height="555.28003"
   viewBox="0 0 414.88 555.28003"
   sodipodi:docname="MercuryOfIron.pdf"
   xmlns:inkscape="http://www.inkscape.org/namespaces/inkscape"
   xmlns:sodipodi="http://sodipodi.sourceforge.net/DTD/sodipodi-0.dtd"
   xmlns="http://www.w3.org/2000/svg"
   xmlns:svg="http://www.w3.org/2000/svg">
  <defs
     id="defs1">
    <clipPath
       clipPathUnits="userSpaceOnUse"
       id="clipPath2">
      <path
         d="M 0,0.16 V 1122.5601 H 793.59998 V 0.16 Z"
         transform="translate(-498.72,-521.67999)"
         clip-rule="evenodd"
         id="path2" />
    </clipPath>
    <clipPath
       clipPathUnits="userSpaceOnUse"
       id="clipPath4">
      <path
         d="M 0,0.16 V 1122.5601 H 793.59998 V 0.16 Z"
         transform="translate(-347.84,-819.91998)"
         clip-rule="evenodd"
         id="path4" />
    </clipPath>
    <clipPath
       clipPathUnits="userSpaceOnUse"
       id="clipPath6">
      <path
         d="M 0,0.16 V 1122.5601 H 793.59998 V 0.16 Z"
         transform="translate(3.3333333e-6)"
         clip-rule="evenodd"
         id="path6" />
    </clipPath>
    <clipPath
       clipPathUnits="userSpaceOnUse"
       id="clipPath8">
      <path
         d="M 0,0.16 V 1122.5601 H 793.59998 V 0.16 Z"
         transform="translate(3.3333333e-6)"
         clip-rule="evenodd"
         id="path8" />
    </clipPath>
    <clipPath
       clipPathUnits="userSpaceOnUse"
       id="clipPath10">
      <path
         d="M 0,0.16 V 1122.5601 H 793.59998 V 0.16 Z"
         transform="translate(-362.88001,-385.76001)"
         clip-rule="evenodd"
         id="path10" />
    </clipPath>
    <clipPath
       clipPathUnits="userSpaceOnUse"
       id="clipPath12">
      <path
         d="M 0,0.16 V 1122.5601 H 793.59998 V 0.16 Z"
         transform="translate(3.3333333e-6)"
         clip-rule="evenodd"
         id="path12" />
    </clipPath>
    <clipPath
       clipPathUnits="userSpaceOnUse"
       id="clipPath14">
      <path
         d="M 0,0.16 V 1122.5601 H 793.59998 V 0.16 Z"
         transform="translate(3.3333333e-6)"
         clip-rule="evenodd"
         id="path14" />
    </clipPath>
    <clipPath
       clipPathUnits="userSpaceOnUse"
       id="clipPath16">
      <path
         d="M 0,0.16 V 1122.5601 H 793.59998 V 0.16 Z"
         transform="translate(3.3333333e-6)"
         clip-rule="evenodd"
         id="path16" />
    </clipPath>
  </defs>
  <sodipodi:namedview
     id="namedview1"
     pagecolor="#505050"
     bordercolor="#eeeeee"
     borderopacity="1"
     inkscape:showpageshadow="0"
     inkscape:pageopacity="0"
     inkscape:pagecheckerboard="0"
     inkscape:deskcolor="#505050">
    <inkscape:page
       x="0"
       y="0"
       inkscape:label="1"
       id="page1"
       width="414.88"
       height="555.28003"
       margin="0"
       bleed="0" />
  </sodipodi:namedview>
  <g
     id="g1"
     inkscape:groupmode="layer"
     inkscape:label="1">
    <path
       id="path1"
       d="M 0,0 C 0,-37.509998 -30.4,-67.919998 -67.919998,-67.919998 -105.44,-67.919998 -135.84,-37.509998 -135.84,0 c 0,37.509998 30.4,67.919998 67.920002,67.919998 C -30.4,67.919998 0,37.509998 0,0 Z"
       style="fill:none;stroke:#000000;stroke-width:26.4;stroke-linecap:round;stroke-linejoin:round;stroke-miterlimit:10;stroke-dasharray:none;stroke-opacity:1"
       transform="translate(310.61333,163.95993)"
       clip-path="url(#clipPath2)" />
    <path
       id="path3"
       d="m 0,0 c 0,-37.509998 -30.440001,-67.919998 -68,-67.919998 -37.56,0 -68,30.41 -68,67.919998 0,37.509998 30.44,67.919998 68,67.919998 37.559999,0 68,-30.41 68,-67.919998 z"
       style="fill:none;stroke:#000000;stroke-width:26.4;stroke-linecap:round;stroke-linejoin:round;stroke-miterlimit:10;stroke-dasharray:none;stroke-opacity:1"
       transform="translate(159.73333,462.19992)"
       clip-path="url(#clipPath4)" />
    <path
       id="path5"
       d="m 430.88,589.59998 v 136"
       style="fill:none;stroke:#000000;stroke-width:26.4;stroke-linecap:round;stroke-linejoin:round;stroke-miterlimit:10;stroke-dasharray:none;stroke-opacity:1"
       transform="translate(-188.10667,-357.72006)"
       clip-path="url(#clipPath6)" />
    <path
       id="path7"
       d="m 355.35999,657.59998 h 151.04"
       style="fill:none;stroke:#000000;stroke-width:26.4;stroke-linecap:round;stroke-linejoin:round;stroke-miterlimit:10;stroke-dasharray:none;stroke-opacity:1"
       transform="translate(-188.10667,-357.72006)"
       clip-path="url(#clipPath8)" />
    <path
       id="path9"
       d="m 0,0 0.16,5.12 0.64,4.96 0.96,4.96 1.28,4.96 1.6,4.799999 2.08,4.640002 2.4,4.479997 2.72,4.320004 3.04,4.16 3.2,3.84 3.68,3.519996 3.84,3.360001 4,3.040001 4.319998,2.720001 4.480004,2.399998 4.799999,1.920002 4.639999,1.759998 4.959999,1.279999 4.959999,0.959999 L 62.880001,67.68 68,68 72.959999,67.68 78.080002,67.199997 83.040001,66.239998 88,64.959999 92.800003,63.200001 97.440002,61.279999 101.92,58.880001 106.24,56.16 l 4.16,-3.040001 3.84,-3.360001 3.52,-3.519996 3.36,-3.84 3.04,-4.16 2.72,-4.320004 2.23999,-4.479997 L 131.2,24.799999 132.96001,20 134.24,15.04 135.2,10.08 135.67999,5.12 135.84,0"
       style="fill:none;stroke:#000000;stroke-width:26.4;stroke-linecap:round;stroke-linejoin:round;stroke-miterlimit:10;stroke-dasharray:none;stroke-opacity:1"
       transform="translate(174.77334,28.039951)"
       clip-path="url(#clipPath10)" />
    <path
       id="path11"
       d="M 336.48001,782.23999 581.91998,668.96002"
       style="fill:none;stroke:#000000;stroke-width:26.4;stroke-linecap:round;stroke-linejoin:round;stroke-miterlimit:10;stroke-dasharray:none;stroke-opacity:1"
       transform="translate(-188.10667,-357.72006)"
       clip-path="url(#clipPath12)" />
    <path
       id="path13"
       d="m 581.91998,668.96002 v 56.63996"
       style="fill:none;stroke:#000000;stroke-width:26.4;stroke-linecap:round;stroke-linejoin:round;stroke-miterlimit:10;stroke-dasharray:none;stroke-opacity:1"
       transform="translate(-188.10667,-357.72006)"
       clip-path="url(#clipPath14)" />
    <path
       id="path15"
       d="m 581.91998,668.96002 -56.63995,-18.88"
       style="fill:none;stroke:#000000;stroke-width:26.4;stroke-linecap:round;stroke-linejoin:round;stroke-miterlimit:10;stroke-dasharray:none;stroke-opacity:1"
       transform="translate(-188.10667,-357.72006)"
       clip-path="url(#clipPath16)" />
  </g>
</svg>
