<?xml version="1.0" encoding="UTF-8" standalone="no"?>
<!-- Created with Inkscape (http://www.inkscape.org/) -->

<svg
   version="1.1"
   id="svg1"
   width="498.94666"
   height="392.42667"
   viewBox="0 0 498.94666 392.42667"
   sodipodi:docname="Reverberatio2.pdf"
   xmlns:inkscape="http://www.inkscape.org/namespaces/inkscape"
   xmlns:sodipodi="http://sodipodi.sourceforge.net/DTD/sodipodi-0.dtd"
   xmlns="http://www.w3.org/2000/svg"
   xmlns:svg="http://www.w3.org/2000/svg">
  <defs
     id="defs1">
    <clipPath
       clipPathUnits="userSpaceOnUse"
       id="clipPath2">
      <path
         d="M 0,0.16 V 1122.5601 H 793.59998 V 0.16 Z"
         transform="translate(-428.16001,-674.64001)"
         clip-rule="evenodd"
         id="path2" />
    </clipPath>
    <clipPath
       clipPathUnits="userSpaceOnUse"
       id="clipPath4">
      <path
         d="M 0,0.16 V 1122.5601 H 793.59998 V 0.16 Z"
         transform="translate(3.3333333e-6)"
         clip-rule="evenodd"
         id="path4" />
    </clipPath>
    <clipPath
       clipPathUnits="userSpaceOnUse"
       id="clipPath6">
      <path
         d="M 0,0.16 V 1122.5601 H 793.59998 V 0.16 Z"
         transform="translate(-437.60001,-658.71997)"
         clip-rule="evenodd"
         id="path6" />
    </clipPath>
    <clipPath
       clipPathUnits="userSpaceOnUse"
       id="clipPath8">
      <path
         d="M 0,0.16 V 1122.5601 H 793.59998 V 0.16 Z"
         transform="translate(-428.16001,-765.11999)"
         clip-rule="evenodd"
         id="path8" />
    </clipPath>
    <clipPath
       clipPathUnits="userSpaceOnUse"
       id="clipPath10">
      <path
         d="M 0,0.16 V 1122.5601 H 793.59998 V 0.16 Z"
         transform="translate(-428.16001,-765.11999)"
         clip-rule="evenodd"
         id="path10" />
    </clipPath>
  </defs>
  <sodipodi:namedview
     id="namedview1"
     pagecolor="#505050"
     bordercolor="#eeeeee"
     borderopacity="1"
     inkscape:showpageshadow="0"
     inkscape:pageopacity="0"
     inkscape:pagecheckerboard="0"
     inkscape:deskcolor="#505050">
    <inkscape:page
       x="0"
       y="0"
       inkscape:label="1"
       id="page1"
       width="498.94666"
       height="392.42667"
       margin="0"
       bleed="0" />
  </sodipodi:namedview>
  <g
     id="g1"
     inkscape:groupmode="layer"
     inkscape:label="1">
    <path
       id="path1"
       d="m 0,0 c 0,-75.059998 -60.849998,-135.92 -135.92,-135.92 -75.07,0 -135.92,60.860002 -135.92,135.92 0,75.059998 60.85,135.92 135.92,135.92 C -60.849998,135.92 0,75.059998 0,0 Z"
       style="fill:none;stroke:#000000;stroke-width:26.4;stroke-linecap:round;stroke-linejoin:round;stroke-miterlimit:10;stroke-dasharray:none;stroke-opacity:1"
       transform="translate(292.09334,232.82662)"
       clip-path="url(#clipPath2)" />
    <path
       id="path3"
       d="M 194.56,772.47998 428.16,538.71997"
       style="fill:none;stroke:#000000;stroke-width:26.4;stroke-linecap:round;stroke-linejoin:round;stroke-miterlimit:10;stroke-dasharray:none;stroke-opacity:1"
       transform="translate(-136.06667,-441.81339)"
       clip-path="url(#clipPath4)" />
    <path
       id="path5"
       d="m 0,0 4.96,0.16 5.28,-0.32 5.28,-0.48 5.600001,-0.96 5.599998,-1.12 L 32.48,-4.32 38.240002,-6.08 44.16,-8.32 50.080002,-10.72 56.16,-13.44 62.080002,-16.48 68,-19.68 l 6.080002,-3.520001 5.759994,-3.84 5.920006,-3.839998 5.759995,-4.320002 5.600006,-4.319999 5.439997,-4.64 5.44,-4.799999 5.12,-4.959999 4.96,-4.960003 4.8,-5.280003 4.64,-5.279998 4.32,-5.439995 4.16,-5.440003 3.84,-5.440002 3.52,-5.599999 3.36,-5.440002 2.88001,-5.599997 2.72,-5.6 2.39999,-5.44 2.08,-5.44 1.76,-5.28 1.28,-5.28 1.12001,-5.12 0.64,-4.96 0.31999,-4.80001 v -4.64 l -0.31999,-4.47999 -0.80001,-4.31999 -0.96,-4 -1.44001,-4 -1.75999,-3.52001 -1.92,-3.36 -2.39999,-3.03999 -2.72,-2.88001 -3.04001,-2.55999 -3.36,-2.24001 -3.52001,-1.92 -3.83999,-1.75999 -4.16001,-1.28002 -4.31999,-0.95999 -4.64,-0.8 -4.8,-0.31999 h -4.96 l -5.28,0.15999 -5.28,0.63999 -5.599997,0.96001 -5.600006,1.12 -5.759995,1.6 -5.760002,1.76 -5.919998,2.24 -5.920006,2.4 -5.919998,2.72 L 55.84,-173.75999 49.919998,-170.56 44,-167.03999 38.080002,-163.2 l -5.920002,4 -5.76,4.16001 -5.600001,4.47999 -5.439999,4.64 -5.28,4.80001 -5.28,4.79998 -4.96,5.12001 -4.8,5.28 -4.64,5.28 -4.32,5.28"
       style="fill:none;stroke:#000000;stroke-width:26.4;stroke-linecap:round;stroke-linejoin:round;stroke-miterlimit:10;stroke-dasharray:none;stroke-opacity:1"
       transform="translate(301.53334,216.90658)"
       clip-path="url(#clipPath6)" />
    <path
       id="path7"
       d="m 0,0 -10.56,-4.16 -10.880001,-4 -10.879999,-3.36 -11.2,-3.04 -11.200001,-2.560001 -11.199997,-2.08 -11.520004,-1.439998 L -88.800003,-21.76 -100.32,-22.4 -111.84,-22.559999 -123.36,-22.24 -134.72,-21.280001 -146.24,-20 -157.60001,-18.24 -168.8,-16 l -11.2,2.72 -11.03999,3.2 -10.88001,3.68 -10.72,4.16 -10.56,4.48 -10.40001,4.96"
       style="fill:none;stroke:#000000;stroke-width:26.4;stroke-linecap:round;stroke-linejoin:round;stroke-miterlimit:10;stroke-dasharray:none;stroke-opacity:1"
       transform="translate(292.09334,323.3066)"
       clip-path="url(#clipPath8)" />
    <path
       id="path9"
       d="m 0,0 8.48,4.64 8.479999,4 8.800001,3.68 8.960001,3.04 9.119999,2.72 9.119999,2.24 9.440003,1.6 9.439994,1.280001 L 81.279999,24 90.720001,24.16 100.16,24 109.6,23.200001 119.04,21.92 l 9.28001,-1.6 9.28,-2.24 9.11999,-2.72 8.95999,-3.04 8.64002,-3.68 8.64,-4 L 181.28,0"
       style="fill:none;stroke:#000000;stroke-width:26.4;stroke-linecap:round;stroke-linejoin:round;stroke-miterlimit:10;stroke-dasharray:none;stroke-opacity:1"
       transform="translate(292.09334,323.3066)"
       clip-path="url(#clipPath10)" />
  </g>
</svg>
