<?xml version="1.0" encoding="UTF-8" standalone="no"?>
<!-- Created with Inkscape (http://www.inkscape.org/) -->

<svg
   version="1.1"
   id="svg1"
   width="321.50668"
   height="477.85333"
   viewBox="0 0 321.50668 477.85333"
   sodipodi:docname="Reverberatio4.pdf"
   xmlns:inkscape="http://www.inkscape.org/namespaces/inkscape"
   xmlns:sodipodi="http://sodipodi.sourceforge.net/DTD/sodipodi-0.dtd"
   xmlns="http://www.w3.org/2000/svg"
   xmlns:svg="http://www.w3.org/2000/svg">
  <defs
     id="defs1">
    <clipPath
       clipPathUnits="userSpaceOnUse"
       id="clipPath2">
      <path
         d="M 0,0.16 V 1122.5601 H 793.59998 V 0.16 Z"
         transform="translate(-656.79999,-564)"
         clip-rule="evenodd"
         id="path2" />
    </clipPath>
    <clipPath
       clipPathUnits="userSpaceOnUse"
       id="clipPath4">
      <path
         d="M 0,0.16 V 1122.5601 H 793.59998 V 0.16 Z"
         transform="translate(-390.07999,-768)"
         clip-rule="evenodd"
         id="path4" />
    </clipPath>
    <clipPath
       clipPathUnits="userSpaceOnUse"
       id="clipPath6">
      <path
         d="M 0,0.16 V 1122.5601 H 793.59998 V 0.16 Z"
         clip-rule="evenodd"
         id="path6" />
    </clipPath>
    <clipPath
       clipPathUnits="userSpaceOnUse"
       id="clipPath8">
      <path
         d="M 0,0.16 V 1122.5601 H 793.59998 V 0.16 Z"
         transform="translate(-458.39999,-450.56)"
         clip-rule="evenodd"
         id="path8" />
    </clipPath>
    <clipPath
       clipPathUnits="userSpaceOnUse"
       id="clipPath10">
      <path
         d="M 0,0.16 V 1122.5601 H 793.59998 V 0.16 Z"
         clip-rule="evenodd"
         id="path10" />
    </clipPath>
    <clipPath
       clipPathUnits="userSpaceOnUse"
       id="clipPath12">
      <path
         d="M 0,0.16 V 1122.5601 H 793.59998 V 0.16 Z"
         clip-rule="evenodd"
         id="path12" />
    </clipPath>
  </defs>
  <sodipodi:namedview
     id="namedview1"
     pagecolor="#505050"
     bordercolor="#eeeeee"
     borderopacity="1"
     inkscape:showpageshadow="0"
     inkscape:pageopacity="0"
     inkscape:pagecheckerboard="0"
     inkscape:deskcolor="#505050">
    <inkscape:page
       x="0"
       y="0"
       inkscape:label="1"
       id="page1"
       width="321.50668"
       height="477.85333"
       margin="0"
       bleed="0" />
  </sodipodi:namedview>
  <g
     id="g1"
     inkscape:groupmode="layer"
     inkscape:label="1">
    <path
       id="path1"
       d="M 0,0 C 0,-31.280001 -25.35,-56.639999 -56.639999,-56.639999 -87.93,-56.639999 -113.28,-31.280001 -113.28,0 c 0,31.280001 25.35,56.639999 56.640001,56.639999 C -25.35,56.639999 0,31.280001 0,0 Z"
       style="fill:none;stroke:#000000;stroke-width:26.4;stroke-linecap:round;stroke-linejoin:round;stroke-miterlimit:10;stroke-dasharray:none;stroke-opacity:1"
       transform="translate(656.79999,584.01327)"
       clip-path="url(#clipPath2)" />
    <path
       id="path3"
       d="M 0,0 9.6,-6.56 18.879999,-13.44 28,-20.639999 36.799999,-28 l 8.64,-7.360001 8.479999,-7.68 8,-7.84 7.840004,-8 7.519997,-7.999996 7.200004,-8.160004 6.879998,-8.32 6.559997,-8.319999 6.240002,-8.48 5.92,-8.48 5.44,-8.48 5.12,-8.48 4.8,-8.48 4.31999,-8.48 3.84002,-8.47999 3.51998,-8.48001 3.04001,-8.32 2.72,-8.32 2.23999,-8.16001 1.76001,-8.15999 1.44001,-8 0.95999,-7.84001 0.47999,-7.67999 v -7.52 l -0.31999,-7.36 -0.8,-7.2 -1.28,-6.88001 -1.75999,-6.71998 -2.08001,-6.56 -2.55999,-6.24002 -3.04001,-6.07999 -3.36,-5.76001 -3.84,-5.44 -4.32,-5.28 -4.64,-4.95999 -4.96,-4.64001 -5.44,-4.31998 -5.76,-4 -6.080003,-3.68002 -6.559998,-3.19999 -6.879997,-3.04 -7.200005,-2.72001"
       style="fill:none;stroke:#000000;stroke-width:26.4;stroke-linecap:round;stroke-linejoin:round;stroke-miterlimit:10;stroke-dasharray:none;stroke-opacity:1"
       transform="translate(390.07999,788.01327)"
       clip-path="url(#clipPath4)" />
    <path
       id="path5"
       d="M 401.76001,337.28 V 639.35998"
       style="fill:none;stroke:#000000;stroke-width:26.4;stroke-linecap:round;stroke-linejoin:round;stroke-miterlimit:10;stroke-dasharray:none;stroke-opacity:1"
       transform="translate(0,20.013275)"
       clip-path="url(#clipPath6)" />
    <path
       id="path7"
       d="m 0,0 4.48,-0.16 4.48,-0.48 4.32,-0.8 4.32,-1.28 4.16,-1.6 4,-1.76 3.84,-2.24 3.679999,-2.4 3.52,-2.72 3.360001,-3.04 2.880001,-3.36 2.879997,-3.520001 2.400002,-3.68 2.240001,-3.839998 1.759999,-4.000002 1.599998,-4.16 1.120003,-4.32 L 56,-47.68 l 0.48,-4.48 0.159999,-4.479999 -0.159999,-4.32 -0.48,-4.480003 -0.959999,-4.32 -1.120003,-4.32 -1.599998,-4.159996 -1.759999,-4 -2.240001,-4 -2.400002,-3.68 -2.879997,-3.520004 L 40.16,-96.639999 36.799999,-99.68 l -3.52,-2.72 -3.679999,-2.4 -3.84,-2.24 -4,-1.92 -4.16,-1.44 -4.32,-1.28 -4.32,-0.8 -4.48,-0.64 -4.48,-0.16"
       style="fill:none;stroke:#000000;stroke-width:26.4;stroke-linecap:round;stroke-linejoin:round;stroke-miterlimit:10;stroke-dasharray:none;stroke-opacity:1"
       transform="translate(458.39999,470.57327)"
       clip-path="url(#clipPath8)" />
    <path
       id="path9"
       d="M 458.39999,337.28 H 401.76001"
       style="fill:none;stroke:#000000;stroke-width:26.4;stroke-linecap:round;stroke-linejoin:round;stroke-miterlimit:10;stroke-dasharray:none;stroke-opacity:1"
       transform="translate(0,20.013275)"
       clip-path="url(#clipPath10)" />
    <path
       id="path11"
       d="M 458.39999,450.56 H 401.76001"
       style="fill:none;stroke:#000000;stroke-width:26.4;stroke-linecap:round;stroke-linejoin:round;stroke-miterlimit:10;stroke-dasharray:none;stroke-opacity:1"
       transform="translate(0,20.013275)"
       clip-path="url(#clipPath12)" />
  </g>
</svg>
