<?xml version="1.0" encoding="UTF-8" standalone="no"?>
<!-- Created with Inkscape (http://www.inkscape.org/) -->

<svg
   version="1.1"
   id="svg1"
   width="518.94666"
   height="290.98666"
   viewBox="0 0 518.94666 290.98666"
   sodipodi:docname="SaltMetallicusAcido.pdf"
   xmlns:inkscape="http://www.inkscape.org/namespaces/inkscape"
   xmlns:sodipodi="http://sodipodi.sourceforge.net/DTD/sodipodi-0.dtd"
   xmlns="http://www.w3.org/2000/svg"
   xmlns:svg="http://www.w3.org/2000/svg">
  <defs
     id="defs1">
    <clipPath
       clipPathUnits="userSpaceOnUse"
       id="clipPath2">
      <path
         d="M 0,0.16 V 1122.5601 H 793.59998 V 0.16 Z"
         transform="translate(-3.3333333e-6)"
         clip-rule="evenodd"
         id="path2" />
    </clipPath>
    <clipPath
       clipPathUnits="userSpaceOnUse"
       id="clipPath4">
      <path
         d="M 0,0.16 V 1122.5601 H 793.59998 V 0.16 Z"
         transform="translate(-3.3333333e-6)"
         clip-rule="evenodd"
         id="path4" />
    </clipPath>
    <clipPath
       clipPathUnits="userSpaceOnUse"
       id="clipPath6">
      <path
         d="M 0,0.16 V 1122.5601 H 793.59998 V 0.16 Z"
         transform="translate(-3.3333333e-6)"
         clip-rule="evenodd"
         id="path6" />
    </clipPath>
    <clipPath
       clipPathUnits="userSpaceOnUse"
       id="clipPath8">
      <path
         d="M 0,0.16 V 1122.5601 H 793.59998 V 0.16 Z"
         transform="translate(-321.28,-599.52002)"
         clip-rule="evenodd"
         id="path8" />
    </clipPath>
    <clipPath
       clipPathUnits="userSpaceOnUse"
       id="clipPath10">
      <path
         d="M 0,0.16 V 1122.5601 H 793.59998 V 0.16 Z"
         transform="translate(-241.91999,-676.32001)"
         clip-rule="evenodd"
         id="path10" />
    </clipPath>
    <clipPath
       clipPathUnits="userSpaceOnUse"
       id="clipPath12">
      <path
         d="M 0,0.16 V 1122.5601 H 793.59998 V 0.16 Z"
         transform="translate(-623.35998,-448.48001)"
         clip-rule="evenodd"
         id="path12" />
    </clipPath>
    <clipPath
       clipPathUnits="userSpaceOnUse"
       id="clipPath14">
      <path
         d="M 0,0.16 V 1122.5601 H 793.59998 V 0.16 Z"
         transform="translate(-623.35998,-448.48001)"
         clip-rule="evenodd"
         id="path14" />
    </clipPath>
  </defs>
  <sodipodi:namedview
     id="namedview1"
     pagecolor="#505050"
     bordercolor="#eeeeee"
     borderopacity="1"
     inkscape:showpageshadow="0"
     inkscape:pageopacity="0"
     inkscape:pagecheckerboard="0"
     inkscape:deskcolor="#505050">
    <inkscape:page
       x="0"
       y="0"
       inkscape:label="1"
       id="page1"
       width="518.94666"
       height="290.98666"
       margin="0"
       bleed="0" />
  </sodipodi:namedview>
  <g
     id="g1"
     inkscape:groupmode="layer"
     inkscape:label="1">
    <path
       id="path1"
       d="m 245.28,677.12 304.95999,0.64001"
       style="fill:none;stroke:#000000;stroke-width:26.4;stroke-linecap:round;stroke-linejoin:round;stroke-miterlimit:10;stroke-dasharray:none;stroke-opacity:1"
       transform="translate(-141.41333,-413.78673)"
       clip-path="url(#clipPath2)" />
    <path
       id="path3"
       d="M 321.28,599.67999 396,448.32001"
       style="fill:none;stroke:#000000;stroke-width:26.4;stroke-linecap:round;stroke-linejoin:round;stroke-miterlimit:10;stroke-dasharray:none;stroke-opacity:1"
       transform="translate(-141.41333,-413.78673)"
       clip-path="url(#clipPath4)" />
    <path
       id="path5"
       d="m 401.28,444.79999 71.04001,154.88"
       style="fill:none;stroke:#000000;stroke-width:26.4;stroke-linecap:round;stroke-linejoin:round;stroke-miterlimit:10;stroke-dasharray:none;stroke-opacity:1"
       transform="translate(-141.41333,-413.78673)"
       clip-path="url(#clipPath6)" />
    <path
       id="path7"
       d="m 0,0 -1.12,-8.48 -1.76,-8.479999 -2.08,-8.480002 -2.4,-8.159997 -2.88,-8.16 -3.2,-8 -3.680001,-7.84 -4,-7.680001 -4.479999,-7.36 -4.8,-7.199997 -4.960001,-6.880005 -5.439998,-6.720001 -5.760002,-6.239998 -6.079998,-6.08 -6.400002,-5.76 -6.559997,-5.44 -6.880005,-4.96 -7.039994,-4.64 -7.36,-4.32 -7.520005,-4 -7.679998,-3.51999 -7.84,-3.20002 -8,-2.72 -8.16,-2.23999 -8.16,-1.92 -8.32,-1.44 -8.47999,-1.11999"
       style="fill:none;stroke:#000000;stroke-width:26.4;stroke-linecap:round;stroke-linejoin:round;stroke-miterlimit:10;stroke-dasharray:none;stroke-opacity:1"
       transform="translate(179.86667,185.73329)"
       clip-path="url(#clipPath8)" />
    <path
       id="path9"
       d="M 0,0 1.92,-10.72 3.2,-21.6 4,-32.639999 4.32,-43.68 4.16,-54.560001 3.52,-65.599998 2.24,-76.480003 0.64,-87.519997 -1.44,-98.239998 -4.16,-109.12 l -3.04,-10.72 -3.68,-10.55999 -4,-10.40001 -4.64,-10.4 -4.96,-10.24 -5.44,-9.92 -5.92,-9.92 -6.240002,-9.75999 -6.719997,-9.44001 -7.200001,-9.27999 -7.68,-9.12001 -8,-8.96"
       style="fill:none;stroke:#000000;stroke-width:26.4;stroke-linecap:round;stroke-linejoin:round;stroke-miterlimit:10;stroke-dasharray:none;stroke-opacity:1"
       transform="translate(100.50666,262.53328)"
       clip-path="url(#clipPath10)" />
    <path
       id="path11"
       d="m 0,0 -7.68,8.96 -7.36,9.12 -6.88,9.280001 -6.56,9.439998 -6.080001,9.760002 L -40.16,56.32 l -5.279999,10.080002 -4.800003,10.239997 -4.319999,10.239998 -4,10.560005 L -61.919998,108 l -3.040001,10.56 -2.400002,10.88 -2.080001,10.72 -1.599999,10.87999 -1.120003,10.88001 -0.479995,11.04001 -0.160004,10.87999 0.32,11.04 0.800003,10.87999 1.279998,10.88001 1.760003,10.88"
       style="fill:none;stroke:#000000;stroke-width:26.4;stroke-linecap:round;stroke-linejoin:round;stroke-miterlimit:10;stroke-dasharray:none;stroke-opacity:1"
       transform="translate(481.94665,34.693286)"
       clip-path="url(#clipPath12)" />
    <path
       id="path13"
       d="m 0,0 -8.64,1.28 -8.640001,1.6 -8.639999,1.92 -8.480002,2.56 -8.319999,2.88 -8.16,3.36 -7.84,3.840001 -7.839997,4.159999 -7.520004,4.64 -7.199997,4.960001 L -88.32,36.639999 -95.199997,42.400002 -101.6,48.48 l -6.08,6.400001 -5.76,6.719997 -5.44,7.040001 L -124,76 l -4.64,7.68 -4.32001,7.839997 -3.83999,8 -3.36,8.320003 -3.04,8.32 -2.72,8.64 -2.08,8.64 -1.75999,8.8 -1.28,8.79999"
       style="fill:none;stroke:#000000;stroke-width:26.4;stroke-linecap:round;stroke-linejoin:round;stroke-miterlimit:10;stroke-dasharray:none;stroke-opacity:1"
       transform="translate(481.94665,34.693286)"
       clip-path="url(#clipPath14)" />
  </g>
</svg>
