<?xml version="1.0" encoding="UTF-8" standalone="no"?>
<!-- Created with Inkscape (http://www.inkscape.org/) -->

<svg
   version="1.1"
   id="svg1"
   width="510.93332"
   height="368.39999"
   viewBox="0 0 510.93332 368.39999"
   sodipodi:docname="SulphurousMatter2.pdf"
   xmlns:inkscape="http://www.inkscape.org/namespaces/inkscape"
   xmlns:sodipodi="http://sodipodi.sourceforge.net/DTD/sodipodi-0.dtd"
   xmlns="http://www.w3.org/2000/svg"
   xmlns:svg="http://www.w3.org/2000/svg">
  <defs
     id="defs1">
    <clipPath
       clipPathUnits="userSpaceOnUse"
       id="clipPath2">
      <path
         d="M 0,0.16 V 1122.5601 H 793.59998 V 0.16 Z"
         clip-rule="evenodd"
         id="path2" />
    </clipPath>
    <clipPath
       clipPathUnits="userSpaceOnUse"
       id="clipPath4">
      <path
         d="M 0,0.16 V 1122.5601 H 793.59998 V 0.16 Z"
         clip-rule="evenodd"
         id="path4" />
    </clipPath>
    <clipPath
       clipPathUnits="userSpaceOnUse"
       id="clipPath6">
      <path
         d="M 0,0.16 V 1122.5601 H 793.59998 V 0.16 Z"
         transform="translate(-396.79999,-561.28003)"
         clip-rule="evenodd"
         id="path6" />
    </clipPath>
    <clipPath
       clipPathUnits="userSpaceOnUse"
       id="clipPath8">
      <path
         d="M 0,0.16 V 1122.5601 H 793.59998 V 0.16 Z"
         transform="translate(-321.28,-485.76001)"
         clip-rule="evenodd"
         id="path8" />
    </clipPath>
  </defs>
  <sodipodi:namedview
     id="namedview1"
     pagecolor="#505050"
     bordercolor="#eeeeee"
     borderopacity="1"
     inkscape:showpageshadow="0"
     inkscape:pageopacity="0"
     inkscape:pagecheckerboard="0"
     inkscape:deskcolor="#505050">
    <inkscape:page
       x="0"
       y="0"
       inkscape:label="1"
       id="page1"
       width="510.93332"
       height="368.39999"
       margin="0"
       bleed="0" />
  </sodipodi:namedview>
  <g
     id="g1"
     inkscape:groupmode="layer"
     inkscape:label="1">
    <path
       id="path1"
       d="M 170.24,561.28003 V 334.72"
       style="fill:none;stroke:#000000;stroke-width:26.4;stroke-linecap:round;stroke-linejoin:round;stroke-miterlimit:10;stroke-dasharray:none;stroke-opacity:1"
       transform="translate(-140.08,-307.00006)"
       clip-path="url(#clipPath2)" />
    <path
       id="path3"
       d="M 170.24,561.28003 H 396.79999"
       style="fill:none;stroke:#000000;stroke-width:26.4;stroke-linecap:round;stroke-linejoin:round;stroke-miterlimit:10;stroke-dasharray:none;stroke-opacity:1"
       transform="translate(-140.08,-307.00006)"
       clip-path="url(#clipPath4)" />
    <path
       id="path5"
       d="M 0,0 5.44,-0.16 10.72,-0.8 16.16,-1.76 21.280001,-3.04 26.4,-4.8 31.360001,-6.88 36.32,-9.28 40.799999,-12 l 4.48,-3.04 4.16,-3.36 4,-3.68 3.68,-4 3.360001,-4.16 3.04,-4.480001 2.880002,-4.64 2.400001,-4.799999 2.079994,-4.959999 1.600006,-5.120003 1.279999,-5.279998 0.959999,-5.280003 0.64,-5.279999 0.159996,-5.439995 -0.159996,-5.440002 -0.64,-5.279999 -0.959999,-5.279999 -1.279999,-5.280006 -1.600006,-5.119997 -2.079994,-4.96 -2.400001,-4.8 -2.880002,-4.64 -3.04,-4.48 -3.360001,-4.16 -3.68,-4.00001 -4,-3.67999 -4.16,-3.36 -4.48,-3.03999 -4.479999,-2.72 L 31.360001,-144.16 26.4,-146.24 21.280001,-148 16.16,-149.28 l -5.44,-0.96 -5.28,-0.64 -5.44,-0.15999 -5.28,0.15999 -5.44,0.64 -5.28,0.96 -5.280001,1.28 -5.119999,1.76 -4.960001,2.08 -4.799999,2.40001 -4.639999,2.72 -4.48,3.03999 -4.16,3.36 -3.84,3.67999 -3.68,4.00001 -3.520001,4.16 -3.04,4.48 -2.719998,4.64 -2.400001,4.8 -2.080002,4.96 -1.760002,5.119997 -1.279999,5.280006 -0.959999,5.279999 -0.479996,5.279999 -0.32,5.440002"
       style="fill:none;stroke:#000000;stroke-width:26.4;stroke-linecap:round;stroke-linejoin:round;stroke-miterlimit:10;stroke-dasharray:none;stroke-opacity:1"
       transform="translate(256.71999,254.27997)"
       clip-path="url(#clipPath6)" />
    <path
       id="path7"
       d="m 0,0 0.16,8.32 0.64,8.16 1.12,8.159999 1.44,8 1.92,8 2.4,7.840001 2.72,7.84 3.2,7.52 3.680001,7.359997 4,7.200005 L 25.6,85.279999 30.4,92 l 5.12,6.559998 5.439999,6.080002 5.920002,5.76 6.079998,5.6 6.400002,5.12 6.559997,4.8 6.880005,4.47999 7.199997,4 7.360001,3.68001 7.519996,3.36 7.680003,2.88001 8,2.39999 7.84,1.92 8.16,1.6 8.16,1.12 8.16,0.64 8.15999,0.16 8.32001,-0.16 8.16,-0.64 8.15999,-1.12 8,-1.6 8,-1.92 7.84001,-2.39999 7.68,-2.88001 7.52,-3.36 7.36,-3.68001 7.2,-4 6.88,-4.47999 6.72,-4.8 6.4,-5.12 6.08,-5.6 5.76,-5.76 5.44,-6.080002 L 271.67999,92 l 4.80002,-6.720001 4.47998,-6.879997 4,-7.200005 3.52002,-7.359997 3.19998,-7.52 2.88001,-7.84 2.23999,-7.840001 2.08001,-8 1.44001,-8 L 301.28,16.48 301.92001,8.32 302.07999,0"
       style="fill:none;stroke:#000000;stroke-width:26.4;stroke-linecap:round;stroke-linejoin:round;stroke-miterlimit:10;stroke-dasharray:none;stroke-opacity:1"
       transform="translate(181.2,178.75995)"
       clip-path="url(#clipPath8)" />
  </g>
</svg>
