<?xml version="1.0" encoding="UTF-8" standalone="no"?>
<!-- Created with Inkscape (http://www.inkscape.org/) -->

<svg
   version="1.1"
   id="svg1"
   width="344.18668"
   height="347.04001"
   viewBox="0 0 344.18668 347.04001"
   sodipodi:docname="Air7.pdf"
   xmlns:inkscape="http://www.inkscape.org/namespaces/inkscape"
   xmlns:sodipodi="http://sodipodi.sourceforge.net/DTD/sodipodi-0.dtd"
   xmlns="http://www.w3.org/2000/svg"
   xmlns:svg="http://www.w3.org/2000/svg">
  <defs
     id="defs1">
    <clipPath
       clipPathUnits="userSpaceOnUse"
       id="clipPath2">
      <path
         d="M 0,0.16 V 1122.5601 H 793.59998 V 0.16 Z"
         transform="translate(-472.32001,-561.28003)"
         clip-rule="evenodd"
         id="path2" />
    </clipPath>
    <clipPath
       clipPathUnits="userSpaceOnUse"
       id="clipPath4">
      <path
         d="M 0,0.16 V 1122.5601 H 793.59998 V 0.16 Z"
         transform="translate(-406.23999,-561.28003)"
         clip-rule="evenodd"
         id="path4" />
    </clipPath>
    <clipPath
       clipPathUnits="userSpaceOnUse"
       id="clipPath6">
      <path
         d="M 0,0.16 V 1122.5601 H 793.59998 V 0.16 Z"
         transform="translate(-406.23999,-561.28003)"
         clip-rule="evenodd"
         id="path6" />
    </clipPath>
    <clipPath
       clipPathUnits="userSpaceOnUse"
       id="clipPath8">
      <path
         d="M 0,0.16 V 1122.5601 H 793.59998 V 0.16 Z"
         clip-rule="evenodd"
         id="path8" />
    </clipPath>
    <clipPath
       clipPathUnits="userSpaceOnUse"
       id="clipPath10">
      <path
         d="M 0,0.16 V 1122.5601 H 793.59998 V 0.16 Z"
         clip-rule="evenodd"
         id="path10" />
    </clipPath>
    <clipPath
       clipPathUnits="userSpaceOnUse"
       id="clipPath12">
      <path
         d="M 0,0.16 V 1122.5601 H 793.59998 V 0.16 Z"
         clip-rule="evenodd"
         id="path12" />
    </clipPath>
    <clipPath
       clipPathUnits="userSpaceOnUse"
       id="clipPath14">
      <path
         d="M 0,0.16 V 1122.5601 H 793.59998 V 0.16 Z"
         clip-rule="evenodd"
         id="path14" />
    </clipPath>
    <clipPath
       clipPathUnits="userSpaceOnUse"
       id="clipPath16">
      <path
         d="M 0,0.16 V 1122.5601 H 793.59998 V 0.16 Z"
         clip-rule="evenodd"
         id="path16" />
    </clipPath>
    <clipPath
       clipPathUnits="userSpaceOnUse"
       id="clipPath18">
      <path
         d="M 0,0.16 V 1122.5601 H 793.59998 V 0.16 Z"
         clip-rule="evenodd"
         id="path18" />
    </clipPath>
    <clipPath
       clipPathUnits="userSpaceOnUse"
       id="clipPath20">
      <path
         d="M 0,0.16 V 1122.5601 H 793.59998 V 0.16 Z"
         clip-rule="evenodd"
         id="path20" />
    </clipPath>
    <clipPath
       clipPathUnits="userSpaceOnUse"
       id="clipPath22">
      <path
         d="M 0,0.16 V 1122.5601 H 793.59998 V 0.16 Z"
         clip-rule="evenodd"
         id="path22" />
    </clipPath>
  </defs>
  <sodipodi:namedview
     id="namedview1"
     pagecolor="#505050"
     bordercolor="#eeeeee"
     borderopacity="1"
     inkscape:showpageshadow="0"
     inkscape:pageopacity="0"
     inkscape:pagecheckerboard="0"
     inkscape:deskcolor="#505050">
    <inkscape:page
       x="0"
       y="0"
       inkscape:label="1"
       id="page1"
       width="344.18668"
       height="347.04001"
       margin="0"
       bleed="0" />
  </sodipodi:namedview>
  <g
     id="g1"
     inkscape:groupmode="layer"
     inkscape:label="1">
    <path
       id="path1"
       d="m 0,0 c 0,-41.700001 -33.810001,-75.519997 -75.519997,-75.519997 -41.710003,0 -75.519993,33.819996 -75.519993,75.519997 0,41.700001 33.80999,75.519997 75.519993,75.519997 C -33.810001,75.519997 0,41.700001 0,0 Z"
       style="fill:none;stroke:#000000;stroke-width:26.4;stroke-linecap:round;stroke-linejoin:round;stroke-miterlimit:10;stroke-dasharray:none;stroke-opacity:1"
       transform="translate(472.32001,559.94664)"
       clip-path="url(#clipPath2)" />
    <path
       id="path3"
       d="M 0,0 V -1.28 L -0.32,-2.56 -0.8,-3.84 -1.44,-5.12 -2.24,-6.24 -3.2,-7.04 -4.32,-8 -5.44,-8.64 -6.72,-8.96 -8,-9.28 l -1.44,-0.16 -1.28,0.16 -1.28,0.32 -1.28,0.32 -1.28,0.64 -0.96,0.96 -0.96,0.8 -0.800001,1.12 -0.639999,1.28 -0.48,1.28 -0.319999,1.28 -0.16,1.28 0.16,1.44 0.319999,1.28 0.48,1.28 0.639999,1.12 0.800001,1.12 0.96,0.96 0.96,0.8 1.28,0.64 1.28,0.48 1.28,0.32 H -9.44 -8 L -6.72,9.12 -5.44,8.64 -4.32,8 -3.2,7.2 -2.24,6.24 -1.44,5.12 -0.8,4 -0.32,2.72 0,1.44 V 0 0 Z"
       style="fill:#000000;fill-opacity:1;fill-rule:evenodd;stroke:none"
       transform="translate(406.23999,559.94664)"
       clip-path="url(#clipPath4)" />
    <path
       id="path5"
       d="M 0,0 V -1.28 L -0.32,-2.56 -0.8,-3.84 -1.44,-5.12 -2.24,-6.24 -3.2,-7.04 -4.32,-8 -5.44,-8.64 -6.72,-8.96 -8,-9.28 l -1.44,-0.16 -1.28,0.16 -1.28,0.32 -1.28,0.32 -1.28,0.64 -0.96,0.96 -0.96,0.8 -0.800001,1.12 -0.639999,1.28 -0.48,1.28 -0.319999,1.28 -0.16,1.28 0.16,1.44 0.319999,1.28 0.48,1.28 0.639999,1.12 0.800001,1.12 0.96,0.96 0.96,0.8 1.28,0.64 1.28,0.48 1.28,0.32 H -9.44 -8 L -6.72,9.12 -5.44,8.64 -4.32,8 -3.2,7.2 -2.24,6.24 -1.44,5.12 -0.8,4 -0.32,2.72 0,1.44 V 0"
       style="fill:none;stroke:#000000;stroke-width:0.48;stroke-linecap:round;stroke-linejoin:round;stroke-miterlimit:10;stroke-dasharray:none;stroke-opacity:1"
       transform="translate(406.23999,559.94664)"
       clip-path="url(#clipPath6)" />
    <path
       id="path7"
       d="m 396.79999,410.23999 v 75.52002"
       style="fill:none;stroke:#000000;stroke-width:26.4;stroke-linecap:round;stroke-linejoin:round;stroke-miterlimit:10;stroke-dasharray:none;stroke-opacity:1"
       transform="translate(0,-1.333392)"
       clip-path="url(#clipPath8)" />
    <path
       id="path9"
       d="M 359.04001,410.23999 H 434.56"
       style="fill:none;stroke:#000000;stroke-width:26.4;stroke-linecap:round;stroke-linejoin:round;stroke-miterlimit:10;stroke-dasharray:none;stroke-opacity:1"
       transform="translate(0,-1.333392)"
       clip-path="url(#clipPath10)" />
    <path
       id="path11"
       d="m 472.32001,561.28003 h 75.52002"
       style="fill:none;stroke:#000000;stroke-width:26.4;stroke-linecap:round;stroke-linejoin:round;stroke-miterlimit:10;stroke-dasharray:none;stroke-opacity:1"
       transform="translate(0,-1.333392)"
       clip-path="url(#clipPath12)" />
    <path
       id="path13"
       d="m 547.84003,523.52002 v 75.51996"
       style="fill:none;stroke:#000000;stroke-width:26.4;stroke-linecap:round;stroke-linejoin:round;stroke-miterlimit:10;stroke-dasharray:none;stroke-opacity:1"
       transform="translate(0,-1.333392)"
       clip-path="url(#clipPath14)" />
    <path
       id="path15"
       d="M 321.28,561.28003 H 245.75999"
       style="fill:none;stroke:#000000;stroke-width:26.4;stroke-linecap:round;stroke-linejoin:round;stroke-miterlimit:10;stroke-dasharray:none;stroke-opacity:1"
       transform="translate(0,-1.333392)"
       clip-path="url(#clipPath16)" />
    <path
       id="path17"
       d="m 245.75999,523.52002 v 75.51996"
       style="fill:none;stroke:#000000;stroke-width:26.4;stroke-linecap:round;stroke-linejoin:round;stroke-miterlimit:10;stroke-dasharray:none;stroke-opacity:1"
       transform="translate(0,-1.333392)"
       clip-path="url(#clipPath18)" />
    <path
       id="path19"
       d="m 396.79999,636.79999 v 75.52002"
       style="fill:none;stroke:#000000;stroke-width:26.4;stroke-linecap:round;stroke-linejoin:round;stroke-miterlimit:10;stroke-dasharray:none;stroke-opacity:1"
       transform="translate(0,-1.333392)"
       clip-path="url(#clipPath20)" />
    <path
       id="path21"
       d="M 359.04001,712.32001 H 434.56"
       style="fill:none;stroke:#000000;stroke-width:26.4;stroke-linecap:round;stroke-linejoin:round;stroke-miterlimit:10;stroke-dasharray:none;stroke-opacity:1"
       transform="translate(0,-1.333392)"
       clip-path="url(#clipPath22)" />
  </g>
</svg>
