<?xml version="1.0" encoding="UTF-8" standalone="no"?>
<!-- Created with Inkscape (http://www.inkscape.org/) -->

<svg
   version="1.1"
   id="svg1"
   width="310.82666"
   height="505.88"
   viewBox="0 0 310.82666 505.88"
   sodipodi:docname="AquaPluvialis2.pdf"
   xmlns:inkscape="http://www.inkscape.org/namespaces/inkscape"
   xmlns:sodipodi="http://sodipodi.sourceforge.net/DTD/sodipodi-0.dtd"
   xmlns="http://www.w3.org/2000/svg"
   xmlns:svg="http://www.w3.org/2000/svg">
  <defs
     id="defs1">
    <clipPath
       clipPathUnits="userSpaceOnUse"
       id="clipPath2">
      <path
         d="M 0,0.16 V 1122.5601 H 793.59998 V 0.16 Z"
         clip-rule="evenodd"
         id="path2" />
    </clipPath>
    <clipPath
       clipPathUnits="userSpaceOnUse"
       id="clipPath4">
      <path
         d="M 0,0.16 V 1122.5601 H 793.59998 V 0.16 Z"
         clip-rule="evenodd"
         id="path4" />
    </clipPath>
    <clipPath
       clipPathUnits="userSpaceOnUse"
       id="clipPath6">
      <path
         d="M 0,0.16 V 1122.5601 H 793.59998 V 0.16 Z"
         transform="translate(-453.28,-443.51999)"
         clip-rule="evenodd"
         id="path6" />
    </clipPath>
    <clipPath
       clipPathUnits="userSpaceOnUse"
       id="clipPath8">
      <path
         d="M 0,0.16 V 1122.5601 H 793.59998 V 0.16 Z"
         clip-rule="evenodd"
         id="path8" />
    </clipPath>
    <clipPath
       clipPathUnits="userSpaceOnUse"
       id="clipPath10">
      <path
         d="M 0,0.16 V 1122.5601 H 793.59998 V 0.16 Z"
         clip-rule="evenodd"
         id="path10" />
    </clipPath>
  </defs>
  <sodipodi:namedview
     id="namedview1"
     pagecolor="#505050"
     bordercolor="#eeeeee"
     borderopacity="1"
     inkscape:showpageshadow="0"
     inkscape:pageopacity="0"
     inkscape:pagecheckerboard="0"
     inkscape:deskcolor="#505050">
    <inkscape:page
       x="0"
       y="0"
       inkscape:label="1"
       id="page1"
       width="310.82666"
       height="505.88"
       margin="0"
       bleed="0" />
  </sodipodi:namedview>
  <g
     id="g1"
     inkscape:groupmode="layer"
     inkscape:label="1">
    <path
       id="path1"
       d="M 395.51999,788.79999 526.08002,565.59998 267.51999,564 l 128,224.79999"
       style="fill:none;stroke:#000000;stroke-width:26.4;stroke-linecap:round;stroke-linejoin:round;stroke-miterlimit:10;stroke-dasharray:none;stroke-opacity:1"
       transform="translate(0,10.679941)"
       clip-path="url(#clipPath2)" />
    <path
       id="path3"
       d="M 397.12,336.48001 V 556"
       style="fill:none;stroke:#000000;stroke-width:26.4;stroke-linecap:round;stroke-linejoin:round;stroke-miterlimit:10;stroke-dasharray:none;stroke-opacity:1"
       transform="translate(0,10.679941)"
       clip-path="url(#clipPath4)" />
    <path
       id="path5"
       d="m 0,0 4.48,-0.16 4.48,-0.48 4.32,-0.96 4.160001,-1.28 4.159999,-1.6 4,-1.92 3.840001,-2.24 3.519998,-2.56 3.360001,-2.88 3.2,-3.040001 2.880002,-3.519998 2.559997,-3.520001 2.240002,-3.84 1.919998,-4 1.600002,-4 L 52,-40.32 l 0.959999,-4.319999 0.48,-4.32 0.159999,-4.48 -0.159999,-4.479999 -0.48,-4.320004 L 52,-66.559998 l -1.279999,-4.319999 -1.600002,-4 -1.919998,-4 -2.240002,-3.840004 -2.559997,-3.680001 -2.880002,-3.36 -3.2,-3.040001 L 32.959999,-95.68 29.440001,-98.239998 25.6,-100.48 21.6,-102.4 17.440001,-104 13.28,-105.28 8.96,-106.24 4.48,-106.72 0,-107.04"
       style="fill:none;stroke:#000000;stroke-width:26.4;stroke-linecap:round;stroke-linejoin:round;stroke-miterlimit:10;stroke-dasharray:none;stroke-opacity:1"
       transform="translate(453.28,454.19993)"
       clip-path="url(#clipPath6)" />
    <path
       id="path7"
       d="m 395.84,335.20001 52.16,-1.28"
       style="fill:none;stroke:#000000;stroke-width:26.4;stroke-linecap:round;stroke-linejoin:round;stroke-miterlimit:10;stroke-dasharray:none;stroke-opacity:1"
       transform="translate(0,10.679941)"
       clip-path="url(#clipPath8)" />
    <path
       id="path9"
       d="m 450.72,443.67999 -53.6,4"
       style="fill:none;stroke:#000000;stroke-width:26.4;stroke-linecap:round;stroke-linejoin:round;stroke-miterlimit:10;stroke-dasharray:none;stroke-opacity:1"
       transform="translate(0,10.679941)"
       clip-path="url(#clipPath10)" />
  </g>
</svg>
