<?xml version="1.0" encoding="UTF-8" standalone="no"?>
<!-- Created with Inkscape (http://www.inkscape.org/) -->

<svg
   version="1.1"
   id="svg1"
   width="264.13333"
   height="320.34668"
   viewBox="0 0 264.13333 320.34668"
   sodipodi:docname="AquaMercurii.pdf"
   xmlns:inkscape="http://www.inkscape.org/namespaces/inkscape"
   xmlns:sodipodi="http://sodipodi.sourceforge.net/DTD/sodipodi-0.dtd"
   xmlns="http://www.w3.org/2000/svg"
   xmlns:svg="http://www.w3.org/2000/svg">
  <defs
     id="defs1">
    <clipPath
       clipPathUnits="userSpaceOnUse"
       id="clipPath2">
      <path
         d="M 0,0.16 V 1122.5601 H 793.59998 V 0.16 Z"
         transform="translate(-284.32001,-617.28003)"
         clip-rule="evenodd"
         id="path2" />
    </clipPath>
    <clipPath
       clipPathUnits="userSpaceOnUse"
       id="clipPath4">
      <path
         d="M 0,0.16 V 1122.5601 H 793.59998 V 0.16 Z"
         transform="translate(-471.67999,-409.11999)"
         clip-rule="evenodd"
         id="path4" />
    </clipPath>
    <clipPath
       clipPathUnits="userSpaceOnUse"
       id="clipPath6">
      <path
         d="M 0,0.16 V 1122.5601 H 793.59998 V 0.16 Z"
         transform="translate(-511.20001,-617.28003)"
         clip-rule="evenodd"
         id="path6" />
    </clipPath>
  </defs>
  <sodipodi:namedview
     id="namedview1"
     pagecolor="#505050"
     bordercolor="#eeeeee"
     borderopacity="1"
     inkscape:showpageshadow="0"
     inkscape:pageopacity="0"
     inkscape:pagecheckerboard="0"
     inkscape:deskcolor="#505050">
    <inkscape:page
       x="0"
       y="0"
       inkscape:label="1"
       id="page1"
       width="264.13333"
       height="320.34668"
       margin="0"
       bleed="0" />
  </sodipodi:namedview>
  <g
     id="g1"
     inkscape:groupmode="layer"
     inkscape:label="1">
    <path
       id="path1"
       d="m 0,0 2.56,5.28 2.24,4 2.08,3.52 2.08,3.2 2.08,2.719999 2.24,2.400002 2.08,1.92 2.080001,1.599998 L 19.52,25.76 21.6,26.559999 23.68,27.040001 25.76,26.879999 27.68,26.4 29.6,25.440001 31.52,24.16 33.439999,22.24 35.200001,20 36.959999,17.280001 38.560001,13.92 40.16,10.24 V 10.08 L 41.279999,6.72 42.560001,2.08 43.84,-3.2 l 0.959999,-5.92 0.959999,-6.4 0.800003,-6.88 0.64,-7.68 0.479999,-8.480001 0.48,-9.119999 0.32,-10.239998 0.319999,-11.200005 0.32,-12.479995 0.16,-7.200005 0.16,-6.239998 0.479999,-18.559999 0.480004,-14.08 0.319999,-6.24 0.48,-9.44 0.479999,-7.84 0.64,-6.40001 0.479999,-5.59999 0.64,-4.64 0.640003,-3.83999 0.639999,-3.36 0.64,-2.56002 0.799999,-2.23999 0.639999,-1.6 0.64,-0.8 0.960003,-0.79999 0.799999,-0.16001 0.959999,0.16001 0.959999,0.64 1.120003,1.11999 1.119999,1.44 1.279998,2.08001 1.440003,2.55999 1.439995,3.04 1.440002,3.52 1.760002,4.16 1.760002,4.96 2.079995,5.6 2.240005,6.72 2.719994,8 3.36,10.4 0.32,1.12 1.440002,4.48 4.32,13.28 1.919998,5.92 2.880005,8.800003 2.720001,7.360001 2.239998,6.079994 1.919999,4.959999 1.92,4.160004 1.76,3.519996 1.6,2.720001 1.44,2.400002 1.44,1.599998 0.48,0.640004"
       style="fill:none;stroke:#000000;stroke-width:26.4;stroke-linecap:round;stroke-linejoin:round;stroke-miterlimit:10;stroke-dasharray:none;stroke-opacity:1"
       transform="translate(17.506674,274.23997)"
       clip-path="url(#clipPath2)" />
    <path
       id="path3"
       d="m 0,0 -3.2,-5.12 -3.68,-4.8 -4,-4.64 -4.16,-4.319999 -4.48,-4 -4.8,-3.520001 -5.120001,-3.36 -5.28,-3.039999 -5.439999,-2.560002 -5.599998,-2.239997 -5.600003,-1.760003 -5.919998,-1.439998 -5.920002,-1.119999 -6.079998,-0.640003 -5.919998,-0.16 -6.080002,0.16 -6.080002,0.640003 -5.919998,1.119999 -5.760002,1.439998 -5.759999,1.760003 -5.6,2.239997 -5.44,2.560002 -5.28,3.039999 -4.96,3.36 -4.8,3.520001 -4.64,4 -4.15999,4.319999 -4,4.64 -3.52001,4.8 -3.36,5.12"
       style="fill:none;stroke:#000000;stroke-width:26.4;stroke-linecap:round;stroke-linejoin:round;stroke-miterlimit:10;stroke-dasharray:none;stroke-opacity:1"
       transform="translate(204.86666,66.079936)"
       clip-path="url(#clipPath4)" />
    <path
       id="path5"
       d="m 0,0 -2.56,5.28 -2.08,4 -2.08,3.52 -2.24,3.2 -2.08,2.719999 -2.08,2.400002 -2.24,1.92 -2.080001,1.599998 L -19.52,25.76 -21.6,26.559999 -23.52,27.040001 -25.6,26.879999 -27.68,26.4 -29.6,25.440001 -31.52,24.16 -33.279999,22.24 -35.200001,20 -36.799999,17.280001 -38.560001,13.92 -40,10.24 V 10.08 L -41.119999,6.72 -42.560001,2.08 -43.68,-3.2 l -1.119999,-5.92 -0.799999,-6.4 -0.800004,-6.88 -0.639999,-7.68 -0.639999,-8.480001 -0.48,-9.119999 -0.32,-10.239998 -0.319999,-11.200005 -0.32,-12.479995 -0.16,-7.200005 -0.16,-6.239998 -0.479999,-18.559999 -0.480004,-14.08 -0.319999,-6.24 -0.48,-9.44 -0.479999,-7.84 -0.48,-6.40001 -0.639999,-5.59999 -0.64,-4.64 -0.479999,-3.83999 -0.640003,-3.36 -0.8,-2.56002 L -56,-179.84 l -0.799999,-1.6 -0.64,-0.8 -0.800003,-0.79999 -0.959999,-0.16001 -0.959999,0.16001 -0.959999,0.64 -1.120003,1.11999 -1.119999,1.44 -1.279998,2.08001 -1.279999,2.55999 -1.440003,3.04 -1.599998,3.52 -1.760002,4.16 -1.760002,4.96 -2.079995,5.6 -2.240005,6.72 -2.719994,8 -3.36,10.4 -0.32,1.12 -1.440002,4.48 -4.160004,13.28 -1.919998,5.92 -3.040001,8.800003 -2.559998,7.360001 -2.239998,6.079994 -2.080002,4.959999 -1.76,4.160004 -1.76,3.519996 -1.6,2.720001 -1.6,2.400002 -1.44,1.599998 -0.48,0.640004"
       style="fill:none;stroke:#000000;stroke-width:26.4;stroke-linecap:round;stroke-linejoin:round;stroke-miterlimit:10;stroke-dasharray:none;stroke-opacity:1"
       transform="translate(244.38668,274.23997)"
       clip-path="url(#clipPath6)" />
  </g>
</svg>
