<?xml version="1.0" encoding="UTF-8" standalone="no"?>
<!-- Created with Inkscape (http://www.inkscape.org/) -->

<svg
   version="1.1"
   id="svg1"
   width="454.90668"
   height="480.53333"
   viewBox="0 0 454.90668 480.53333"
   sodipodi:docname="AquaMercurii2.pdf"
   xmlns:inkscape="http://www.inkscape.org/namespaces/inkscape"
   xmlns:sodipodi="http://sodipodi.sourceforge.net/DTD/sodipodi-0.dtd"
   xmlns="http://www.w3.org/2000/svg"
   xmlns:svg="http://www.w3.org/2000/svg">
  <defs
     id="defs1">
    <clipPath
       clipPathUnits="userSpaceOnUse"
       id="clipPath2">
      <path
         d="M 0,0.16 V 1122.5601 H 793.59998 V 0.16 Z"
         transform="translate(-505.28,-569.59997)"
         clip-rule="evenodd"
         id="path2" />
    </clipPath>
    <clipPath
       clipPathUnits="userSpaceOnUse"
       id="clipPath4">
      <path
         d="M 0,0.16 V 1122.5601 H 793.59998 V 0.16 Z"
         transform="translate(-146.24001,-439.04001)"
         clip-rule="evenodd"
         id="path4" />
    </clipPath>
    <clipPath
       clipPathUnits="userSpaceOnUse"
       id="clipPath6">
      <path
         d="M 0,0.16 V 1122.5601 H 793.59998 V 0.16 Z"
         clip-rule="evenodd"
         id="path6" />
    </clipPath>
    <clipPath
       clipPathUnits="userSpaceOnUse"
       id="clipPath8">
      <path
         d="M 0,0.16 V 1122.5601 H 793.59998 V 0.16 Z"
         clip-rule="evenodd"
         id="path8" />
    </clipPath>
    <clipPath
       clipPathUnits="userSpaceOnUse"
       id="clipPath10">
      <path
         d="M 0,0.16 V 1122.5601 H 793.59998 V 0.16 Z"
         transform="translate(-148.8,-438.56)"
         clip-rule="evenodd"
         id="path10" />
    </clipPath>
    <clipPath
       clipPathUnits="userSpaceOnUse"
       id="clipPath12">
      <path
         d="M 0,0.16 V 1122.5601 H 793.59998 V 0.16 Z"
         transform="translate(-224.32,-438.56)"
         clip-rule="evenodd"
         id="path12" />
    </clipPath>
    <clipPath
       clipPathUnits="userSpaceOnUse"
       id="clipPath14">
      <path
         d="M 0,0.16 V 1122.5601 H 793.59998 V 0.16 Z"
         transform="translate(-224.32,-438.56)"
         clip-rule="evenodd"
         id="path14" />
    </clipPath>
    <clipPath
       clipPathUnits="userSpaceOnUse"
       id="clipPath16">
      <path
         d="M 0,0.16 V 1122.5601 H 793.59998 V 0.16 Z"
         transform="translate(-299.83999,-438.56)"
         clip-rule="evenodd"
         id="path16" />
    </clipPath>
    <clipPath
       clipPathUnits="userSpaceOnUse"
       id="clipPath18">
      <path
         d="M 0,0.16 V 1122.5601 H 793.59998 V 0.16 Z"
         transform="translate(-299.83999,-438.56)"
         clip-rule="evenodd"
         id="path18" />
    </clipPath>
    <clipPath
       clipPathUnits="userSpaceOnUse"
       id="clipPath20">
      <path
         d="M 0,0.16 V 1122.5601 H 793.59998 V 0.16 Z"
         transform="translate(-375.35998,-438.56)"
         clip-rule="evenodd"
         id="path20" />
    </clipPath>
    <clipPath
       clipPathUnits="userSpaceOnUse"
       id="clipPath22">
      <path
         d="M 0,0.16 V 1122.5601 H 793.59998 V 0.16 Z"
         transform="translate(-375.35998,-438.56)"
         clip-rule="evenodd"
         id="path22" />
    </clipPath>
    <clipPath
       clipPathUnits="userSpaceOnUse"
       id="clipPath24">
      <path
         d="M 0,0.16 V 1122.5601 H 793.59998 V 0.16 Z"
         transform="translate(-137.28,-530.88)"
         clip-rule="evenodd"
         id="path24" />
    </clipPath>
    <clipPath
       clipPathUnits="userSpaceOnUse"
       id="clipPath26">
      <path
         d="M 0,0.16 V 1122.5601 H 793.59998 V 0.16 Z"
         transform="translate(-137.28,-530.88)"
         clip-rule="evenodd"
         id="path26" />
    </clipPath>
    <clipPath
       clipPathUnits="userSpaceOnUse"
       id="clipPath28">
      <path
         d="M 0,0.16 V 1122.5601 H 793.59998 V 0.16 Z"
         transform="translate(-212.8,-530.88)"
         clip-rule="evenodd"
         id="path28" />
    </clipPath>
    <clipPath
       clipPathUnits="userSpaceOnUse"
       id="clipPath30">
      <path
         d="M 0,0.16 V 1122.5601 H 793.59998 V 0.16 Z"
         transform="translate(-212.8,-530.88)"
         clip-rule="evenodd"
         id="path30" />
    </clipPath>
    <clipPath
       clipPathUnits="userSpaceOnUse"
       id="clipPath32">
      <path
         d="M 0,0.16 V 1122.5601 H 793.59998 V 0.16 Z"
         transform="translate(-288.32,-530.88)"
         clip-rule="evenodd"
         id="path32" />
    </clipPath>
  </defs>
  <sodipodi:namedview
     id="namedview1"
     pagecolor="#505050"
     bordercolor="#eeeeee"
     borderopacity="1"
     inkscape:showpageshadow="0"
     inkscape:pageopacity="0"
     inkscape:pagecheckerboard="0"
     inkscape:deskcolor="#505050">
    <inkscape:page
       x="0"
       y="0"
       inkscape:label="1"
       id="page1"
       width="454.90668"
       height="480.53333"
       margin="0"
       bleed="0" />
  </sodipodi:namedview>
  <g
     id="g1"
     inkscape:groupmode="layer"
     inkscape:label="1">
    <path
       id="path1"
       d="m 0,0 c 0,-61.759998 -50.029999,-111.84 -111.76,-111.84 -61.73,0 -111.76,50.080002 -111.76,111.84 0,61.759998 50.03,111.84 111.76,111.84 C -50.029999,111.84 0,61.759998 0,0 Z"
       style="fill:none;stroke:#000000;stroke-width:26.4;stroke-linecap:round;stroke-linejoin:round;stroke-miterlimit:10;stroke-dasharray:none;stroke-opacity:1"
       transform="translate(427.90667,174.50658)"
       clip-path="url(#clipPath2)" />
    <path
       id="path3"
       d="m 0,0 v -2.08 l -0.32,-2.08 -0.48,-2.08 -0.8,-1.92 -0.96,-1.76 -1.12,-1.76 -1.44,-1.44 -1.6,-1.28 -1.76,-1.28 -1.92,-0.8 -1.92,-0.800001 -1.92,-0.319999 -2.08,-0.16 h -2.08 l -2.08,0.319999 -2.079999,0.640002 L -24.32,-16 l -1.92,0.96 -1.6,1.28 -1.440001,1.44 -1.279998,1.6 -1.120001,1.76 -0.959999,1.92 -0.48,1.92 -0.479999,2.08 -0.16,2.08"
       style="fill:none;stroke:#000000;stroke-width:26.4;stroke-linecap:round;stroke-linejoin:round;stroke-miterlimit:10;stroke-dasharray:none;stroke-opacity:1"
       transform="translate(68.866672,43.946617)"
       clip-path="url(#clipPath4)" />
    <path
       id="path5"
       d="M 394.23999,684 V 853.91998"
       style="fill:none;stroke:#000000;stroke-width:26.4;stroke-linecap:round;stroke-linejoin:round;stroke-miterlimit:10;stroke-dasharray:none;stroke-opacity:1"
       transform="translate(-77.373333,-395.09339)"
       clip-path="url(#clipPath6)" />
    <path
       id="path7"
       d="M 318.72,759.52002 H 469.76001"
       style="fill:none;stroke:#000000;stroke-width:26.4;stroke-linecap:round;stroke-linejoin:round;stroke-miterlimit:10;stroke-dasharray:none;stroke-opacity:1"
       transform="translate(-77.373333,-395.09339)"
       clip-path="url(#clipPath8)" />
    <path
       id="path9"
       d="m 0,0 0.16,2.24 0.48,2.24 0.64,2.24 0.96,2.08 1.12,1.92 1.44,1.76 1.6,1.6 1.76,1.44 2.08,1.279999 2.08,0.960001 2.08,0.64 2.239999,0.319999 2.24,0.16 2.400002,-0.16 L 23.52,18.4 25.6,17.76 27.68,16.799999 29.76,15.52 31.52,14.08 33.119999,12.48 34.560001,10.72 35.68,8.8 l 0.959999,-2.08 0.64,-2.24 0.479999,-2.24 V 0"
       style="fill:none;stroke:#000000;stroke-width:26.4;stroke-linecap:round;stroke-linejoin:round;stroke-miterlimit:10;stroke-dasharray:none;stroke-opacity:1"
       transform="translate(71.42667,43.466606)"
       clip-path="url(#clipPath10)" />
    <path
       id="path11"
       d="m 0,0 v -2.24 l -0.48,-2.24 -0.64,-2.24 -0.96,-2.08 -1.12,-1.92 -1.44,-1.76 -1.6,-1.6 -1.76,-1.44 -2.08,-1.119999 -2.08,-0.960001 -2.08,-0.64 -2.24,-0.479999 -2.399999,-0.16 -2.240002,0.16 -2.24,0.479999 -2.08,0.64 -2.079999,0.960001 -2.08,1.119999 -1.760001,1.44 -1.599998,1.6 -1.440003,1.76 -1.119998,1.92 -0.96,2.08 -0.639999,2.24 -0.479999,2.24 -0.16,2.24"
       style="fill:none;stroke:#000000;stroke-width:26.4;stroke-linecap:round;stroke-linejoin:round;stroke-miterlimit:10;stroke-dasharray:none;stroke-opacity:1"
       transform="translate(146.94667,43.466606)"
       clip-path="url(#clipPath12)" />
    <path
       id="path13"
       d="m 0,0 0.16,2.24 0.48,2.24 0.64,2.24 0.96,2.08 1.12,1.92 1.44,1.76 1.6,1.6 1.76,1.44 2.08,1.279999 2.08,0.960001 2.08,0.64 2.239999,0.319999 2.24,0.16 2.400002,-0.16 L 23.52,18.4 25.6,17.76 27.68,16.799999 29.6,15.52 31.52,14.08 33.119999,12.48 34.560001,10.72 35.68,8.8 l 0.959999,-2.08 0.64,-2.24 0.479999,-2.24 V 0"
       style="fill:none;stroke:#000000;stroke-width:26.4;stroke-linecap:round;stroke-linejoin:round;stroke-miterlimit:10;stroke-dasharray:none;stroke-opacity:1"
       transform="translate(146.94667,43.466606)"
       clip-path="url(#clipPath14)" />
    <path
       id="path15"
       d="m 0,0 v -2.24 l -0.48,-2.24 -0.64,-2.24 -0.96,-2.08 -1.12,-1.92 -1.44,-1.76 -1.6,-1.6 -1.92,-1.44 -1.92,-1.119999 -2.08,-0.960001 -2.08,-0.64 -2.24,-0.479999 -2.399999,-0.16 -2.240002,0.16 -2.24,0.479999 -2.08,0.64 -2.079999,0.960001 -2.08,1.119999 -1.760001,1.44 -1.599998,1.6 -1.440003,1.76 -1.119998,1.92 -0.96,2.08 -0.639999,2.24 -0.479999,2.24 -0.16,2.24"
       style="fill:none;stroke:#000000;stroke-width:26.4;stroke-linecap:round;stroke-linejoin:round;stroke-miterlimit:10;stroke-dasharray:none;stroke-opacity:1"
       transform="translate(222.46666,43.466606)"
       clip-path="url(#clipPath16)" />
    <path
       id="path17"
       d="m 0,0 0.16,2.24 0.48,2.24 0.64,2.24 0.96,2.08 1.12,1.92 1.44,1.76 1.6,1.6 1.76,1.44 2.08,1.279999 2.08,0.960001 2.08,0.64 2.239999,0.319999 2.24,0.16 2.400002,-0.16 L 23.52,18.4 25.6,17.76 27.68,16.799999 29.6,15.52 31.52,14.08 33.119999,12.48 34.560001,10.72 35.68,8.8 l 0.959999,-2.08 0.64,-2.24 0.479999,-2.24 V 0"
       style="fill:none;stroke:#000000;stroke-width:26.4;stroke-linecap:round;stroke-linejoin:round;stroke-miterlimit:10;stroke-dasharray:none;stroke-opacity:1"
       transform="translate(222.46666,43.466606)"
       clip-path="url(#clipPath18)" />
    <path
       id="path19"
       d="m 0,0 v -2.24 l -0.48,-2.24 -0.64,-2.24 -0.96,-2.08 -1.12,-1.92 -1.44,-1.76 -1.6,-1.6 -1.92,-1.44 -1.92,-1.119999 -2.08,-0.960001 -2.08,-0.64 -2.24,-0.479999 -2.399999,-0.16 -2.240002,0.16 -2.24,0.479999 -2.08,0.64 -2.079999,0.960001 -2.08,1.119999 -1.760001,1.44 -1.599998,1.6 -1.440003,1.76 -1.119998,1.92 -0.96,2.08 -0.639999,2.24 -0.479999,2.24 -0.16,2.24"
       style="fill:none;stroke:#000000;stroke-width:26.4;stroke-linecap:round;stroke-linejoin:round;stroke-miterlimit:10;stroke-dasharray:none;stroke-opacity:1"
       transform="translate(297.98665,43.466606)"
       clip-path="url(#clipPath20)" />
    <path
       id="path21"
       d="m 0,0 0.16,2.24 0.48,2.24 0.64,2.08 0.8,2.08 1.12,1.76 1.28,1.92 1.6,1.6 1.76,1.28 1.76,1.28 2.08,0.960001 2.08,0.799999 2.08,0.479999 2.24,0.16 h 2.24 l 2.239999,-0.32"
       style="fill:none;stroke:#000000;stroke-width:26.4;stroke-linecap:round;stroke-linejoin:round;stroke-miterlimit:10;stroke-dasharray:none;stroke-opacity:1"
       transform="translate(297.98665,43.466606)"
       clip-path="url(#clipPath22)" />
    <path
       id="path23"
       d="m 0,0 v -2.24 l -0.48,-2.24 -0.64,-2.08 -0.96,-2.08 -1.12,-2.08 -1.44,-1.76 -1.6,-1.6 -1.92,-1.44 -1.92,-1.119999 -2.08,-0.960001 -2.08,-0.64 -2.24,-0.479999 -2.399999,-0.16 -2.240002,0.16 -2.24,0.479999 -2.08,0.64 -2.079999,0.960001 -2.08,1.119999 -1.760001,1.44 -1.599998,1.6 -1.440003,1.76 -1.119998,2.08 -0.96,2.08 -0.639999,2.08 -0.479999,2.24 -0.16,2.24"
       style="fill:none;stroke:#000000;stroke-width:26.4;stroke-linecap:round;stroke-linejoin:round;stroke-miterlimit:10;stroke-dasharray:none;stroke-opacity:1"
       transform="translate(59.906666,135.78661)"
       clip-path="url(#clipPath24)" />
    <path
       id="path25"
       d="m 0,0 0.16,2.4 0.48,2.24 0.64,2.08 0.96,2.08 1.12,1.92 1.44,1.92 1.6,1.6 1.76,1.28 2.08,1.279999 2.08,0.960001 2.08,0.64 2.239999,0.319999 2.24,0.16 2.400002,-0.16 L 23.52,18.4 25.6,17.76 27.68,16.799999 29.6,15.52 31.52,14.24 33.119999,12.64 34.400002,10.72 35.68,8.8 l 0.959999,-2.08 0.64,-2.08 0.479999,-2.24 V 0"
       style="fill:none;stroke:#000000;stroke-width:26.4;stroke-linecap:round;stroke-linejoin:round;stroke-miterlimit:10;stroke-dasharray:none;stroke-opacity:1"
       transform="translate(59.906666,135.78661)"
       clip-path="url(#clipPath26)" />
    <path
       id="path27"
       d="m 0,0 -0.16,-2.24 -0.32,-2.24 -0.64,-2.08 -0.96,-2.08 -1.28,-2.08 -1.28,-1.76 -1.6,-1.6 -1.92,-1.44 -1.92,-1.119999 -2.08,-0.960001 -2.08,-0.64 -2.24,-0.479999 -2.399999,-0.16 -2.240002,0.16 -2.24,0.479999 -2.08,0.64 -2.079999,0.960001 -2.08,1.119999 -1.760001,1.44 -1.599998,1.6 -1.440003,1.76 -1.119998,2.08 -0.96,2.08 -0.639999,2.08 -0.479999,2.24 -0.16,2.24"
       style="fill:none;stroke:#000000;stroke-width:26.4;stroke-linecap:round;stroke-linejoin:round;stroke-miterlimit:10;stroke-dasharray:none;stroke-opacity:1"
       transform="translate(135.42667,135.78661)"
       clip-path="url(#clipPath28)" />
    <path
       id="path29"
       d="m 0,0 0.16,2.4 0.48,2.24 0.64,2.08 0.96,2.08 1.12,1.92 1.44,1.92 1.6,1.6 1.76,1.28 2.08,1.279999 2.08,0.960001 2.08,0.64 2.239999,0.319999 2.24,0.16 2.400002,-0.16 L 23.52,18.4 25.6,17.76 27.68,16.799999 29.6,15.52 31.52,14.24 33.119999,12.64 34.400002,10.72 35.68,8.8 l 0.959999,-2.08 0.64,-2.08 0.319999,-2.24 0.16,-2.4"
       style="fill:none;stroke:#000000;stroke-width:26.4;stroke-linecap:round;stroke-linejoin:round;stroke-miterlimit:10;stroke-dasharray:none;stroke-opacity:1"
       transform="translate(135.42667,135.78661)"
       clip-path="url(#clipPath30)" />
    <path
       id="path31"
       d="m 0,0 -0.16,-2.24 -0.32,-2.24 -0.64,-2.08 -0.96,-2.08 -1.28,-2.08 -1.28,-1.76 -1.6,-1.6 -1.92,-1.44 -1.92,-1.119999 -2.08,-0.960001 -2.08,-0.64 -2.24,-0.479999 -2.399999,-0.16 -2.240002,0.16 -2.24,0.479999 -2.239999,0.64 -1.92,0.960001 -2.08,1.119999 -1.760001,1.44 -1.599998,1.6 -1.440003,1.76 -1.119998,2.08 -0.96,2.08 -0.639999,2.08 -0.479999,2.24 -0.16,2.24"
       style="fill:none;stroke:#000000;stroke-width:26.4;stroke-linecap:round;stroke-linejoin:round;stroke-miterlimit:10;stroke-dasharray:none;stroke-opacity:1"
       transform="translate(210.94667,135.78661)"
       clip-path="url(#clipPath32)" />
  </g>
</svg>
