<?xml version="1.0" encoding="UTF-8" standalone="no"?>
<!-- Created with Inkscape (http://www.inkscape.org/) -->

<svg
   version="1.1"
   id="svg1"
   width="502.93332"
   height="448.49332"
   viewBox="0 0 502.93332 448.49332"
   sodipodi:docname="AquaPluvialis5.pdf"
   xmlns:inkscape="http://www.inkscape.org/namespaces/inkscape"
   xmlns:sodipodi="http://sodipodi.sourceforge.net/DTD/sodipodi-0.dtd"
   xmlns="http://www.w3.org/2000/svg"
   xmlns:svg="http://www.w3.org/2000/svg">
  <defs
     id="defs1">
    <clipPath
       clipPathUnits="userSpaceOnUse"
       id="clipPath2">
      <path
         d="M 0,0.16 V 1122.5601 H 793.59998 V 0.16 Z"
         clip-rule="evenodd"
         id="path2" />
    </clipPath>
    <clipPath
       clipPathUnits="userSpaceOnUse"
       id="clipPath4">
      <path
         d="M 0,0.16 V 1122.5601 H 793.59998 V 0.16 Z"
         clip-rule="evenodd"
         id="path4" />
    </clipPath>
    <clipPath
       clipPathUnits="userSpaceOnUse"
       id="clipPath6">
      <path
         d="M 0,0.16 V 1122.5601 H 793.59998 V 0.16 Z"
         transform="translate(-396.79999,-674.56)"
         clip-rule="evenodd"
         id="path6" />
    </clipPath>
  </defs>
  <sodipodi:namedview
     id="namedview1"
     pagecolor="#505050"
     bordercolor="#eeeeee"
     borderopacity="1"
     inkscape:showpageshadow="0"
     inkscape:pageopacity="0"
     inkscape:pagecheckerboard="0"
     inkscape:deskcolor="#505050">
    <inkscape:page
       x="0"
       y="0"
       inkscape:label="1"
       id="page1"
       width="502.93332"
       height="448.49332"
       margin="0"
       bleed="0" />
  </sodipodi:namedview>
  <g
     id="g1"
     inkscape:groupmode="layer"
     inkscape:label="1">
    <path
       id="path1"
       d="M 396.79999,825.59998 625.76001,429.12 H 168 l 228.79999,396.47998"
       style="fill:none;stroke:#000000;stroke-width:26.4;stroke-linecap:round;stroke-linejoin:round;stroke-miterlimit:10;stroke-dasharray:none;stroke-opacity:1"
       transform="translate(0,-126.81339)"
       clip-path="url(#clipPath2)" />
    <path
       id="path3"
       d="m 396.79999,561.28003 -1.44,255.03998"
       style="fill:none;stroke:#000000;stroke-width:26.4;stroke-linecap:round;stroke-linejoin:round;stroke-miterlimit:10;stroke-dasharray:none;stroke-opacity:1"
       transform="translate(0,-126.81339)"
       clip-path="url(#clipPath4)" />
    <path
       id="path5"
       d="m 0,0 4.64,1.12 4.48,0.8 4.64,0.32 4.64,0.16 4.640001,-0.32 4.639999,-0.8 4.48,-0.96 4.479999,-1.44 4.32,-1.76 4.16,-2.08 4,-2.4 3.84,-2.72 3.520001,-3.04 3.2,-3.36 3.040001,-3.52 2.879997,-3.68 2.400002,-4 2.080002,-4.16 1.759994,-4.32 1.440003,-4.32 1.120003,-4.639999 0.799995,-4.479999 0.32,-4.640004 v -4.639999 l -0.32,-4.639999 -0.799995,-4.640004 -1.120003,-4.479995 -1.440003,-4.480004 -1.759994,-4.319999 L 68,-85.599998 l -2.400002,-4 -2.879997,-3.680001 -3.040001,-3.520004 -3.2,-3.359997 -3.520001,-2.88 -3.84,-2.72 -4,-2.56 -4.16,-2.08 -4.32,-1.76 -4.479999,-1.28 -4.48,-1.12 -4.639999,-0.64 L 18.4,-115.52 h -4.64 l -4.64,0.32 -4.48,0.8 -4.64,1.12"
       style="fill:none;stroke:#000000;stroke-width:26.4;stroke-linecap:round;stroke-linejoin:round;stroke-miterlimit:10;stroke-dasharray:none;stroke-opacity:1"
       transform="translate(396.79999,547.74661)"
       clip-path="url(#clipPath6)" />
  </g>
</svg>
