<?xml version="1.0" encoding="UTF-8" standalone="no"?>
<!-- Created with Inkscape (http://www.inkscape.org/) -->

<svg
   version="1.1"
   id="svg1"
   width="509.60001"
   height="503.21332"
   viewBox="0 0 509.60001 503.21332"
   sodipodi:docname="AquaPluvialis3.pdf"
   xmlns:inkscape="http://www.inkscape.org/namespaces/inkscape"
   xmlns:sodipodi="http://sodipodi.sourceforge.net/DTD/sodipodi-0.dtd"
   xmlns="http://www.w3.org/2000/svg"
   xmlns:svg="http://www.w3.org/2000/svg">
  <defs
     id="defs1">
    <clipPath
       clipPathUnits="userSpaceOnUse"
       id="clipPath2">
      <path
         d="M 0,0.16 V 1122.5601 H 793.59998 V 0.16 Z"
         transform="translate(3.3333333e-6)"
         clip-rule="evenodd"
         id="path2" />
    </clipPath>
    <clipPath
       clipPathUnits="userSpaceOnUse"
       id="clipPath4">
      <path
         d="M 0,0.16 V 1122.5601 H 793.59998 V 0.16 Z"
         transform="translate(-226.88,-561.28003)"
         clip-rule="evenodd"
         id="path4" />
    </clipPath>
    <clipPath
       clipPathUnits="userSpaceOnUse"
       id="clipPath6">
      <path
         d="M 0,0.16 V 1122.5601 H 793.59998 V 0.16 Z"
         transform="translate(3.3333333e-6)"
         clip-rule="evenodd"
         id="path6" />
    </clipPath>
    <clipPath
       clipPathUnits="userSpaceOnUse"
       id="clipPath8">
      <path
         d="M 0,0.16 V 1122.5601 H 793.59998 V 0.16 Z"
         transform="translate(3.3333333e-6)"
         clip-rule="evenodd"
         id="path8" />
    </clipPath>
    <clipPath
       clipPathUnits="userSpaceOnUse"
       id="clipPath10">
      <path
         d="M 0,0.16 V 1122.5601 H 793.59998 V 0.16 Z"
         transform="translate(3.3333333e-6)"
         clip-rule="evenodd"
         id="path10" />
    </clipPath>
    <clipPath
       clipPathUnits="userSpaceOnUse"
       id="clipPath12">
      <path
         d="M 0,0.16 V 1122.5601 H 793.59998 V 0.16 Z"
         transform="translate(3.3333333e-6)"
         clip-rule="evenodd"
         id="path12" />
    </clipPath>
    <clipPath
       clipPathUnits="userSpaceOnUse"
       id="clipPath14">
      <path
         d="M 0,0.16 V 1122.5601 H 793.59998 V 0.16 Z"
         transform="translate(3.3333333e-6)"
         clip-rule="evenodd"
         id="path14" />
    </clipPath>
    <clipPath
       clipPathUnits="userSpaceOnUse"
       id="clipPath16">
      <path
         d="M 0,0.16 V 1122.5601 H 793.59998 V 0.16 Z"
         transform="translate(3.3333333e-6)"
         clip-rule="evenodd"
         id="path16" />
    </clipPath>
    <clipPath
       clipPathUnits="userSpaceOnUse"
       id="clipPath18">
      <path
         d="M 0,0.16 V 1122.5601 H 793.59998 V 0.16 Z"
         transform="translate(3.3333333e-6)"
         clip-rule="evenodd"
         id="path18" />
    </clipPath>
  </defs>
  <sodipodi:namedview
     id="namedview1"
     pagecolor="#505050"
     bordercolor="#eeeeee"
     borderopacity="1"
     inkscape:showpageshadow="0"
     inkscape:pageopacity="0"
     inkscape:pagecheckerboard="0"
     inkscape:deskcolor="#505050">
    <inkscape:page
       x="0"
       y="0"
       inkscape:label="1"
       id="page1"
       width="509.60001"
       height="503.21332"
       margin="0"
       bleed="0" />
  </sodipodi:namedview>
  <g
     id="g1"
     inkscape:groupmode="layer"
     inkscape:label="1">
    <path
       id="path1"
       d="M 170.24,334.72 V 787.84003"
       style="fill:none;stroke:#000000;stroke-width:26.4;stroke-linecap:round;stroke-linejoin:round;stroke-miterlimit:10;stroke-dasharray:none;stroke-opacity:1"
       transform="translate(-138.74667,-305.66673)"
       clip-path="url(#clipPath2)" />
    <path
       id="path3"
       d="m 0,0 8.96,-0.16 8.8,-0.48 8.959999,-0.8 L 35.360001,-2.4 44,-3.84 l 8.639999,-1.76 8.32,-1.92 8.160004,-2.24 8,-2.56 7.839996,-2.88 7.68,-3.04 L 100,-21.6 l 7.04,-3.680001 6.72,-3.84 6.4,-3.999998 6.24,-4.32 5.76,-4.479999 5.44001,-4.800003 4.95999,-4.799999 4.64,-5.119999 4.32,-5.119999 3.84,-5.439999 3.36,-5.440002 2.88001,-5.599999 L 164.16,-84 l 2.08,-5.760002 1.6,-5.759995 1.12001,-5.920003 0.79998,-5.92 0.16001,-5.92 -0.16001,-5.92 -0.79998,-5.92 -1.12001,-5.91999 -1.6,-5.76001 -2.08,-5.76 -2.55999,-5.76001 -2.88001,-5.59999 -3.36,-5.44 -3.84,-5.28 -4.32,-5.28 -4.64,-4.96 -4.95999,-4.96 -5.44001,-4.64 -5.76,-4.63999 -6.24,-4.16001 -6.4,-4.16 -6.72,-3.84 -7.04,-3.68001 -7.360001,-3.36 -7.68,-3.03999 -7.839996,-2.88 -8,-2.56 -8.160004,-2.23999 -8.32,-1.92002 L 44,-222.72 35.360001,-224 26.719999,-225.11999 17.76,-225.92 8.96,-226.39999 0,-226.56"
       style="fill:none;stroke:#000000;stroke-width:26.4;stroke-linecap:round;stroke-linejoin:round;stroke-miterlimit:10;stroke-dasharray:none;stroke-opacity:1"
       transform="translate(88.133338,255.6133)"
       clip-path="url(#clipPath4)" />
    <path
       id="path5"
       d="m 170.24,334.72 h 56.64"
       style="fill:none;stroke:#000000;stroke-width:26.4;stroke-linecap:round;stroke-linejoin:round;stroke-miterlimit:10;stroke-dasharray:none;stroke-opacity:1"
       transform="translate(-138.74667,-305.66673)"
       clip-path="url(#clipPath6)" />
    <path
       id="path7"
       d="m 170.24,561.28003 h 56.64"
       style="fill:none;stroke:#000000;stroke-width:26.4;stroke-linecap:round;stroke-linejoin:round;stroke-miterlimit:10;stroke-dasharray:none;stroke-opacity:1"
       transform="translate(-138.74667,-305.66673)"
       clip-path="url(#clipPath8)" />
    <path
       id="path9"
       d="m 226.88,561.28003 169.91999,226.56"
       style="fill:none;stroke:#000000;stroke-width:26.4;stroke-linecap:round;stroke-linejoin:round;stroke-miterlimit:10;stroke-dasharray:none;stroke-opacity:1"
       transform="translate(-138.74667,-305.66673)"
       clip-path="url(#clipPath10)" />
    <path
       id="path11"
       d="M 415.35999,363.51999 H 624.47998"
       style="fill:none;stroke:#000000;stroke-width:26.4;stroke-linecap:round;stroke-linejoin:round;stroke-miterlimit:10;stroke-dasharray:none;stroke-opacity:1"
       transform="translate(-138.74667,-305.66673)"
       clip-path="url(#clipPath12)" />
    <path
       id="path13"
       d="m 415.35999,344.64001 v 37.75998"
       style="fill:none;stroke:#000000;stroke-width:26.4;stroke-linecap:round;stroke-linejoin:round;stroke-miterlimit:10;stroke-dasharray:none;stroke-opacity:1"
       transform="translate(-138.74667,-305.66673)"
       clip-path="url(#clipPath14)" />
    <path
       id="path15"
       d="m 624.32001,349.12 0.32,28.64001"
       style="fill:none;stroke:#000000;stroke-width:26.4;stroke-linecap:round;stroke-linejoin:round;stroke-miterlimit:10;stroke-dasharray:none;stroke-opacity:1"
       transform="translate(-138.74667,-305.66673)"
       clip-path="url(#clipPath16)" />
    <path
       id="path17"
       d="M 520.79999,782.71997 618.88,414.56 H 422.72 l 98.07999,368.15997"
       style="fill:none;stroke:#000000;stroke-width:26.4;stroke-linecap:round;stroke-linejoin:round;stroke-miterlimit:10;stroke-dasharray:none;stroke-opacity:1"
       transform="translate(-138.74667,-305.66673)"
       clip-path="url(#clipPath18)" />
  </g>
</svg>
