<?xml version="1.0" encoding="UTF-8" standalone="no"?>
<!-- Created with Inkscape (http://www.inkscape.org/) -->

<svg
   version="1.1"
   id="svg1"
   width="516.28003"
   height="373.73334"
   viewBox="0 0 516.28003 373.73334"
   sodipodi:docname="AquaMercurii8.pdf"
   xmlns:inkscape="http://www.inkscape.org/namespaces/inkscape"
   xmlns:sodipodi="http://sodipodi.sourceforge.net/DTD/sodipodi-0.dtd"
   xmlns="http://www.w3.org/2000/svg"
   xmlns:svg="http://www.w3.org/2000/svg">
  <defs
     id="defs1">
    <clipPath
       clipPathUnits="userSpaceOnUse"
       id="clipPath2">
      <path
         d="M 0,0.16 V 1122.5601 H 793.59998 V 0.16 Z"
         clip-rule="evenodd"
         id="path2" />
    </clipPath>
    <clipPath
       clipPathUnits="userSpaceOnUse"
       id="clipPath4">
      <path
         d="M 0,0.16 V 1122.5601 H 793.59998 V 0.16 Z"
         transform="translate(-389.60001,-723.03998)"
         clip-rule="evenodd"
         id="path4" />
    </clipPath>
    <clipPath
       clipPathUnits="userSpaceOnUse"
       id="clipPath6">
      <path
         d="M 0,0.16 V 1122.5601 H 793.59998 V 0.16 Z"
         transform="translate(-616.15997,-420.95999)"
         clip-rule="evenodd"
         id="path6" />
    </clipPath>
  </defs>
  <sodipodi:namedview
     id="namedview1"
     pagecolor="#505050"
     bordercolor="#eeeeee"
     borderopacity="1"
     inkscape:showpageshadow="0"
     inkscape:pageopacity="0"
     inkscape:pagecheckerboard="0"
     inkscape:deskcolor="#505050">
    <inkscape:page
       x="0"
       y="0"
       inkscape:label="1"
       id="page1"
       width="516.28003"
       height="373.73334"
       margin="0"
       bleed="0" />
  </sodipodi:namedview>
  <g
     id="g1"
     inkscape:groupmode="layer"
     inkscape:label="1">
    <path
       id="path1"
       d="M 163.03999,572 238.56,420.95999 314.07999,572 389.60001,420.95999 v 302.07999"
       style="fill:none;stroke:#000000;stroke-width:26.4;stroke-linecap:round;stroke-linejoin:round;stroke-miterlimit:10;stroke-dasharray:none;stroke-opacity:1"
       transform="translate(0,-4.0000587)"
       clip-path="url(#clipPath2)" />
    <path
       id="path3"
       d="m 0,0 10.24,0.48 10.24,0.16 10.239999,-0.32 10.08,-0.96 10.080002,-1.28 10.079998,-1.76 10.080002,-2.24 9.760002,-2.56 9.759995,-3.2 9.600002,-3.52 9.44,-4.000001 9.12,-4.479999 8.96,-4.8 8.8,-5.279998 8.63999,-5.600003 8.16001,-6.079998 8,-6.400001 7.68001,-6.720001 7.36,-7.039997 7.03999,-7.360001 6.56,-7.840004 6.40001,-8 5.91999,-8.32 5.6,-8.479997 5.12001,-8.96 4.79998,-8.96 4.32001,-9.28 3.84,-9.44 3.52,-9.6 3.04,-9.76001 2.55999,-9.91999 2.08,-9.92 1.76001,-10.08 1.12,-10.23999 0.8,-10.08001 0.16001,-10.24 -0.16001,-10.24001 -0.64,-10.23999 -1.12001,-10.08 -1.59999,-10.08 -2.08,-10.07999 -2.39999,-9.92001 -3.04001,-9.76001 -3.36,-9.59998"
       style="fill:none;stroke:#000000;stroke-width:26.4;stroke-linecap:round;stroke-linejoin:round;stroke-miterlimit:10;stroke-dasharray:none;stroke-opacity:1"
       transform="translate(389.60001,719.03992)"
       clip-path="url(#clipPath4)" />
    <path
       id="path5"
       d="m 0,0 -0.32,-2.56 -0.48,-2.56 -0.8,-2.56 -1.12,-2.4 -1.44,-2.24 -1.6,-1.92 -1.92,-1.92 -2.08,-1.6 L -12,-19.200001 -14.24,-20.32 -16.799999,-21.120001 -19.360001,-21.76 -21.92,-22.08 h -2.719999 l -2.560002,0.32 -2.559999,0.639999 -2.4,0.960001 -2.400001,1.119999 -2.239998,1.440001 -1.920002,1.76 -1.919998,1.76 -1.600003,2.24 -1.279998,2.24 -1.119999,2.4 -0.8,2.4 -0.479999,2.56 -0.320004,2.72 0.16,2.56 0.320004,2.56 0.639999,2.56 0.959999,2.4 1.279999,2.4 1.440002,2.24 1.759999,1.920001 1.920002,1.759998"
       style="fill:none;stroke:#000000;stroke-width:26.4;stroke-linecap:round;stroke-linejoin:round;stroke-miterlimit:10;stroke-dasharray:none;stroke-opacity:1"
       transform="translate(616.15997,416.95993)"
       clip-path="url(#clipPath6)" />
  </g>
</svg>
