<?xml version="1.0" encoding="UTF-8" standalone="no"?>
<!-- Created with Inkscape (http://www.inkscape.org/) -->

<svg
   version="1.1"
   id="svg1"
   width="386.88"
   height="285.64001"
   viewBox="0 0 386.88 285.64001"
   sodipodi:docname="AquaPluvialis.pdf"
   xmlns:inkscape="http://www.inkscape.org/namespaces/inkscape"
   xmlns:sodipodi="http://sodipodi.sourceforge.net/DTD/sodipodi-0.dtd"
   xmlns="http://www.w3.org/2000/svg"
   xmlns:svg="http://www.w3.org/2000/svg">
  <defs
     id="defs1">
    <clipPath
       clipPathUnits="userSpaceOnUse"
       id="clipPath2">
      <path
         d="M 0,0.16 V 1122.5601 H 793.59998 V 0.16 Z"
         transform="translate(-3.3333333e-6)"
         clip-rule="evenodd"
         id="path2" />
    </clipPath>
    <clipPath
       clipPathUnits="userSpaceOnUse"
       id="clipPath4">
      <path
         d="M 0,0.16 V 1122.5601 H 793.59998 V 0.16 Z"
         transform="translate(-554.88,-601.91998)"
         clip-rule="evenodd"
         id="path4" />
    </clipPath>
    <clipPath
       clipPathUnits="userSpaceOnUse"
       id="clipPath6">
      <path
         d="M 0,0.16 V 1122.5601 H 793.59998 V 0.16 Z"
         transform="translate(-3.3333333e-6)"
         clip-rule="evenodd"
         id="path6" />
    </clipPath>
    <clipPath
       clipPathUnits="userSpaceOnUse"
       id="clipPath8">
      <path
         d="M 0,0.16 V 1122.5601 H 793.59998 V 0.16 Z"
         transform="translate(-3.3333333e-6)"
         clip-rule="evenodd"
         id="path8" />
    </clipPath>
  </defs>
  <sodipodi:namedview
     id="namedview1"
     pagecolor="#505050"
     bordercolor="#eeeeee"
     borderopacity="1"
     inkscape:showpageshadow="0"
     inkscape:pageopacity="0"
     inkscape:pagecheckerboard="0"
     inkscape:deskcolor="#505050">
    <inkscape:page
       x="0"
       y="0"
       inkscape:label="1"
       id="page1"
       width="386.88"
       height="285.64001"
       margin="0"
       bleed="0" />
  </sodipodi:namedview>
  <g
     id="g1"
     inkscape:groupmode="layer"
     inkscape:label="1">
    <path
       id="path1"
       d="m 403.84,715.20001 130.87997,-226.56 H 273.12 l 130.72,226.56"
       style="fill:none;stroke:#000000;stroke-width:26.4;stroke-linecap:round;stroke-linejoin:round;stroke-miterlimit:10;stroke-dasharray:none;stroke-opacity:1"
       transform="translate(-252.13333,-457.84006)"
       clip-path="url(#clipPath2)" />
    <path
       id="path3"
       d="m 0,0 4.48,-0.32 4.48,-0.48 4.32,-0.8 4.32,-1.28 4.16,-1.44 4,-1.92 3.84,-2.24 3.679999,-2.4 3.52,-2.72 L 40,-16.639999 43.040001,-20 l 2.879997,-3.360001 2.400002,-3.68 2.240001,-4 1.759999,-4 1.599998,-4.16 L 55.040001,-43.52 56,-47.84 l 0.48,-4.48 0.159999,-4.319999 -0.159999,-4.48 -0.48,-4.479999 -0.959999,-4.32 -1.120003,-4.32 -1.599998,-4.160004 -1.759999,-4 -2.240001,-3.839996 -2.400002,-3.68 -2.879997,-3.520004 L 40,-96.800003 l -3.200001,-3.039993 -3.52,-2.720004 -3.679999,-2.4 -3.84,-2.24 -4,-1.76 -4.16,-1.6 -4.32,-1.28 -4.32,-0.8 -4.48,-0.48 -4.48,-0.16"
       style="fill:none;stroke:#000000;stroke-width:26.4;stroke-linecap:round;stroke-linejoin:round;stroke-miterlimit:10;stroke-dasharray:none;stroke-opacity:1"
       transform="translate(302.74667,144.07992)"
       clip-path="url(#clipPath4)" />
    <path
       id="path5"
       d="m 536,488.64001 h 18.88"
       style="fill:none;stroke:#000000;stroke-width:26.4;stroke-linecap:round;stroke-linejoin:round;stroke-miterlimit:10;stroke-dasharray:none;stroke-opacity:1"
       transform="translate(-252.13333,-457.84006)"
       clip-path="url(#clipPath6)" />
    <path
       id="path7"
       d="M 474.39999,600.15997 554.88,601.91998"
       style="fill:none;stroke:#000000;stroke-width:26.4;stroke-linecap:round;stroke-linejoin:round;stroke-miterlimit:10;stroke-dasharray:none;stroke-opacity:1"
       transform="translate(-252.13333,-457.84006)"
       clip-path="url(#clipPath8)" />
  </g>
</svg>
