<?xml version="1.0" encoding="UTF-8" standalone="no"?>
<!-- Created with Inkscape (http://www.inkscape.org/) -->

<svg
   version="1.1"
   id="svg1"
   width="1118.5601"
   height="302.82666"
   viewBox="0 0 1118.5601 302.82666"
   sodipodi:docname="Archetypes.pdf"
   xmlns:inkscape="http://www.inkscape.org/namespaces/inkscape"
   xmlns:sodipodi="http://sodipodi.sourceforge.net/DTD/sodipodi-0.dtd"
   xmlns="http://www.w3.org/2000/svg"
   xmlns:svg="http://www.w3.org/2000/svg">
  <defs
     id="defs1">
    <clipPath
       clipPathUnits="userSpaceOnUse"
       id="clipPath2">
      <path
         d="M 0,0.16 V 793.76001 H 1122.4 V 0.16 Z"
         transform="translate(-38.560001,-316.79999)"
         clip-rule="evenodd"
         id="path2" />
    </clipPath>
    <clipPath
       clipPathUnits="userSpaceOnUse"
       id="clipPath4">
      <path
         d="M 0,0.16 V 793.76001 H 1122.4 V 0.16 Z"
         transform="translate(-38.560001,-316.79999)"
         clip-rule="evenodd"
         id="path4" />
    </clipPath>
    <clipPath
       clipPathUnits="userSpaceOnUse"
       id="clipPath6">
      <path
         d="M 0,0.16 V 793.76001 H 1122.4 V 0.16 Z"
         clip-rule="evenodd"
         id="path6" />
    </clipPath>
    <clipPath
       clipPathUnits="userSpaceOnUse"
       id="clipPath8">
      <path
         d="M 0,0.16 V 793.76001 H 1122.4 V 0.16 Z"
         clip-rule="evenodd"
         id="path8" />
    </clipPath>
    <clipPath
       clipPathUnits="userSpaceOnUse"
       id="clipPath10">
      <path
         d="M 0,0.16 V 793.76001 H 1122.4 V 0.16 Z"
         clip-rule="evenodd"
         id="path10" />
    </clipPath>
    <clipPath
       clipPathUnits="userSpaceOnUse"
       id="clipPath12">
      <path
         d="M 0,0.16 V 793.76001 H 1122.4 V 0.16 Z"
         clip-rule="evenodd"
         id="path12" />
    </clipPath>
    <clipPath
       clipPathUnits="userSpaceOnUse"
       id="clipPath14">
      <path
         d="M 0,0.16 V 793.76001 H 1122.4 V 0.16 Z"
         clip-rule="evenodd"
         id="path14" />
    </clipPath>
    <clipPath
       clipPathUnits="userSpaceOnUse"
       id="clipPath16">
      <path
         d="M 0,0.16 V 793.76001 H 1122.4 V 0.16 Z"
         clip-rule="evenodd"
         id="path16" />
    </clipPath>
    <clipPath
       clipPathUnits="userSpaceOnUse"
       id="clipPath18">
      <path
         d="M 0,0.16 V 793.76001 H 1122.4 V 0.16 Z"
         clip-rule="evenodd"
         id="path18" />
    </clipPath>
    <clipPath
       clipPathUnits="userSpaceOnUse"
       id="clipPath20">
      <path
         d="M 0,0.16 V 793.76001 H 1122.4 V 0.16 Z"
         clip-rule="evenodd"
         id="path20" />
    </clipPath>
    <clipPath
       clipPathUnits="userSpaceOnUse"
       id="clipPath26">
      <path
         d="M 0,0.16 V 793.76001 H 1122.4 V 0.16 Z"
         clip-rule="evenodd"
         id="path26" />
    </clipPath>
    <clipPath
       clipPathUnits="userSpaceOnUse"
       id="clipPath29">
      <path
         d="M 0,0.16 V 793.76001 H 1122.4 V 0.16 Z"
         clip-rule="evenodd"
         id="path29" />
    </clipPath>
    <clipPath
       clipPathUnits="userSpaceOnUse"
       id="clipPath32">
      <path
         d="M 0,0.16 V 793.76001 H 1122.4 V 0.16 Z"
         clip-rule="evenodd"
         id="path32" />
    </clipPath>
    <clipPath
       clipPathUnits="userSpaceOnUse"
       id="clipPath34">
      <path
         d="M 0,0.16 V 793.76001 H 1122.4 V 0.16 Z"
         clip-rule="evenodd"
         id="path34" />
    </clipPath>
    <clipPath
       clipPathUnits="userSpaceOnUse"
       id="clipPath36">
      <path
         d="M 0,0.16 V 793.76001 H 1122.4 V 0.16 Z"
         clip-rule="evenodd"
         id="path36" />
    </clipPath>
    <clipPath
       clipPathUnits="userSpaceOnUse"
       id="clipPath38">
      <path
         d="M 0,0.16 V 793.76001 H 1122.4 V 0.16 Z"
         transform="translate(-1067.6801,-317.60001)"
         clip-rule="evenodd"
         id="path38" />
    </clipPath>
    <clipPath
       clipPathUnits="userSpaceOnUse"
       id="clipPath41">
      <path
         d="m -1067.6801,-317.44 v 793.6 H 54.720001 v -793.6 z"
         transform="translate(-4.6e-5)"
         clip-rule="evenodd"
         id="path41" />
    </clipPath>
  </defs>
  <sodipodi:namedview
     id="namedview1"
     pagecolor="#505050"
     bordercolor="#eeeeee"
     borderopacity="1"
     inkscape:showpageshadow="0"
     inkscape:pageopacity="0"
     inkscape:pagecheckerboard="0"
     inkscape:deskcolor="#505050">
    <inkscape:page
       x="0"
       y="0"
       inkscape:label="1"
       id="page1"
       width="1118.5601"
       height="302.82666"
       margin="0"
       bleed="0" />
  </sodipodi:namedview>
  <g
     id="g1"
     inkscape:groupmode="layer"
     inkscape:label="1">
    <path
       id="path1"
       d="M 0,0 V -0.8 L -0.16,-1.44 -0.64,-2.08 -0.96,-2.56 -1.6,-3.04 -2.24,-3.36 -2.88,-3.68 h -0.64 -0.8 l -0.64,0.32 -0.64,0.32 -0.48,0.48 -0.48,0.48 -0.32,0.64 -0.32,0.64 V 0 0.64 l 0.32,0.64 0.32,0.64 0.48,0.64 0.48,0.48 0.64,0.32 0.64,0.16 h 0.8 0.64 L -2.24,3.36 -1.6,3.04 -0.96,2.56 -0.64,1.92 -0.16,1.28 0,0.64 V 0 0 Z"
       style="fill:#000000;fill-opacity:1;fill-rule:evenodd;stroke:none"
       transform="translate(38.560001,351.49331)"
       clip-path="url(#clipPath2)" />
    <path
       id="path3"
       d="M 0,0 V -0.8 L -0.16,-1.44 -0.64,-2.08 -0.96,-2.56 -1.6,-3.04 -2.24,-3.36 -2.88,-3.68 h -0.64 -0.8 l -0.64,0.32 -0.64,0.32 -0.48,0.48 -0.48,0.48 -0.32,0.64 -0.32,0.64 V 0 0.64 l 0.32,0.64 0.32,0.64 0.48,0.64 0.48,0.48 0.64,0.32 0.64,0.16 h 0.8 0.64 L -2.24,3.36 -1.6,3.04 -0.96,2.56 -0.64,1.92 -0.16,1.28 0,0.64 V 0"
       style="fill:none;stroke:#000000;stroke-width:0.48;stroke-linecap:round;stroke-linejoin:round;stroke-miterlimit:10;stroke-dasharray:none;stroke-opacity:1"
       transform="translate(38.560001,351.49331)"
       clip-path="url(#clipPath4)" />
    <path
       id="path5"
       d="m 342.72,278.07999 -32.95999,56.96002 h 65.75998 L 342.72,278.07999"
       style="fill:none;stroke:#000000;stroke-width:11.2;stroke-linecap:round;stroke-linejoin:round;stroke-miterlimit:10;stroke-dasharray:none;stroke-opacity:1"
       transform="translate(0,34.693324)"
       clip-path="url(#clipPath6)" />
    <path
       id="path7"
       d="M 683.84003,247.36 640.15997,381.44"
       style="fill:none;stroke:#000000;stroke-width:11.2;stroke-linecap:round;stroke-linejoin:round;stroke-miterlimit:10;stroke-dasharray:none;stroke-opacity:1"
       transform="translate(0,34.693324)"
       clip-path="url(#clipPath8)" />
    <path
       id="path9"
       d="M 640.15997,381.44 754.23999,298.56"
       style="fill:none;stroke:#000000;stroke-width:11.2;stroke-linecap:round;stroke-linejoin:round;stroke-miterlimit:10;stroke-dasharray:none;stroke-opacity:1"
       transform="translate(0,34.693324)"
       clip-path="url(#clipPath10)" />
    <path
       id="path11"
       d="M 754.23999,298.56 H 613.28003"
       style="fill:none;stroke:#000000;stroke-width:11.2;stroke-linecap:round;stroke-linejoin:round;stroke-miterlimit:10;stroke-dasharray:none;stroke-opacity:1"
       transform="translate(0,34.693324)"
       clip-path="url(#clipPath12)" />
    <path
       id="path13"
       d="m 613.28003,298.56 114.07995,82.88"
       style="fill:none;stroke:#000000;stroke-width:11.2;stroke-linecap:round;stroke-linejoin:round;stroke-miterlimit:10;stroke-dasharray:none;stroke-opacity:1"
       transform="translate(0,34.693324)"
       clip-path="url(#clipPath14)" />
    <path
       id="path15"
       d="M 727.35998,381.44 683.84003,247.36"
       style="fill:none;stroke:#000000;stroke-width:11.2;stroke-linecap:round;stroke-linejoin:round;stroke-miterlimit:10;stroke-dasharray:none;stroke-opacity:1"
       transform="translate(0,34.693324)"
       clip-path="url(#clipPath16)" />
    <path
       id="path17"
       d="m 861.59998,288 -32.79999,56.95999 H 894.56 L 861.59998,288"
       style="fill:none;stroke:#000000;stroke-width:11.2;stroke-linecap:round;stroke-linejoin:round;stroke-miterlimit:10;stroke-dasharray:none;stroke-opacity:1"
       transform="translate(0,34.693324)"
       clip-path="url(#clipPath18)" />
    <path
       id="path19"
       d="M 802.88,257.12 H 920.96002 V 377.92001 H 802.88 V 257.12"
       style="fill:none;stroke:#000000;stroke-width:11.2;stroke-linecap:round;stroke-linejoin:round;stroke-miterlimit:10;stroke-dasharray:none;stroke-opacity:1"
       transform="translate(0,34.693324)"
       clip-path="url(#clipPath20)" />
    <path
       id="path21"
       d="M 0,0 13.6,0.8 V 90.400002 H 2.4 L 2.24,16.959999 C -1.44,21.6 -8.64,27.84 -19.84,36 l -6.879999,-10.4 c 2.879999,-1.76 5.439998,-3.52 8,-5.28 C -16.16,18.559999 -14.08,16.799999 -12.32,15.2 c 1.76,-1.6 3.36,-3.2 4.64,-4.64 1.44,-1.44 2.56,-2.72 3.52,-4 0.96,-1.28 1.6,-2.4 2.24,-3.2 0.48,-0.96 0.96,-1.6 1.28,-2.4 C -0.16,0.32 0,0 0,0 Z"
       style="fill:#000000;fill-opacity:1;fill-rule:nonzero;stroke:none"
       transform="translate(37.119999,462.85333)" />
    <path
       id="path22"
       d="m 0,0 h 10.88 c 0,4.16 1.44,7.52 4.16,10.08 2.88,2.56 6.72,3.84 11.679999,3.84 C 32.16,13.92 36.32,12.48 39.52,9.44 42.720001,6.56 44.16,2.4 44.16,-2.72 c 0,-3.84 -0.64,-7.2 -2.079998,-9.92 -1.280003,-2.56 -3.68,-4.800001 -6.880001,-6.560001 -1.920002,-1.119999 -4,-1.92 -6.240002,-2.559999 -2.08,-0.48 -3.839998,-0.799999 -5.279999,-0.959999 -1.28,0 -3.2,0 -5.6,0 v -11.039999 h 0.960001 c 3.839998,0 7.519998,-0.480004 11.039999,-1.760002 3.039999,-0.96 5.280001,-2.560002 6.719999,-4.32 1.440003,-1.919998 2.080002,-4.48 2.080002,-7.84 0,-2.720002 -1.280003,-4.64 -3.68,-6.239998 C 32.799999,-55.360001 29.76,-56.16 26.08,-56.16 20,-56.16 15.36,-52.959999 12,-46.560001 L 2.24,-52 c 0.16,-0.48 0.48,-1.119999 0.96,-1.919998 0.48,-0.800003 1.28,-2.080002 2.56,-3.68 1.28,-1.440003 2.72,-2.880002 4.32,-4.16 1.6,-1.280003 3.84,-2.560002 6.559999,-3.520001 2.720002,-0.959999 5.600001,-1.440002 8.800002,-1.440002 H 26.08 c 4.32,0 8.320002,0.639999 11.679998,1.760002 3.520001,1.279999 6.400002,3.360001 8.640004,6.239998 2.239997,2.880001 3.359996,6.400001 3.359996,10.560001 0,4.48 -0.799999,8.48 -2.559997,11.84 -1.760002,3.520001 -4.16,5.92 -7.200001,7.199999 C 50.240002,-24.16 55.200001,-15.36 55.200001,-2.72 c 0,3.04 -0.48,6.4 -1.600003,9.92 C 52.48,10.56 50.720001,13.6 48.639999,16.16 43.84,21.92 36.48,24.639999 26.719999,24.639999 18.559999,24.639999 12,22.4 7.2,17.76 2.4,13.12 0,7.2 0,0 Z"
       style="fill:#000000;fill-opacity:1;fill-rule:nonzero;stroke:none"
       transform="translate(308.32001,535.49331)" />
    <path
       id="path23"
       d="m 0,0 c -5.76,0 -11.04,2.4 -15.68,7.36 0,0 -0.16,0.16 -0.16,0.16 l -8.64,-3.68 3.039999,-42.240002 41.440001,0.16 V -27.52 h -31.68 l -1.6,20.48 c 4.16,-2.56 8.48,-3.84 12.96,-3.84 4.8,0 9.28,0.96 13.44,3.04 4.160001,2.24 7.679999,5.76 10.56,10.4 2.879999,4.8 4.32,10.4 4.32,16.96 0,9.920001 -2.719999,17.599999 -8,22.880002 C 14.72,47.84 7.68,50.560001 -0.96,50.560001 h -0.16 c -5.6,0 -10.4,-1.440002 -14.56,-4.479999 C -20,43.040001 -23.52,39.200001 -26.24,34.560001 L -16.959999,28.48 C -14.88,32 -12.64,34.720001 -10.08,36.799999 -7.52,38.880001 -4.48,39.84 -0.96,39.84 4.8,39.84 9.28,38.080002 12.48,34.560001 15.52,31.200001 17.120001,26.08 17.120001,19.52 17.120001,10.56 14.08,4.64 8.16,1.92 5.76,0.64 2.88,0 0,0 Z"
       style="fill:#000000;fill-opacity:1;fill-rule:nonzero;stroke:none"
       transform="translate(686.88,505.73333)" />
    <path
       id="path24"
       d="m 0,0 c 1.92,0 5.12,0 9.44,0.16 4.32,0.16 7.359999,0.16 9.119999,0.16 H 52.48 55.360001 l 3.040001,5.76 C 55.68,11.2 52.48,16.799999 48.959999,22.719999 c -3.52,5.92 -6.399998,10.72 -8.799999,14.4 -2.240002,3.68 -4.64,7.84 -7.040001,12.479999 -2.4,4.480004 -4.32,8.640004 -5.759998,12.32 -1.440001,3.840004 -2.560002,8 -3.520001,12.64 C 23.040001,79.199997 22.559999,84 22.559999,89.120003 H 11.2 c 0,-3.200005 0.16,-6.240006 0.48,-9.280007 0.48,-3.039993 0.8,-5.919998 1.28,-8.479995 0.64,-2.720002 1.44,-5.599999 2.56,-8.64 1.119999,-3.200001 2.08,-5.920002 3.039999,-8.16 0.800002,-2.240001 2.24,-5.120002 4,-8.479999 C 24.32,42.720001 25.76,40 26.879999,37.919998 28,35.84 29.76,32.799999 32.16,29.120001 34.560001,25.280001 36.48,22.4 37.759998,20.32 39.040001,18.4 41.119999,15.2 43.84,10.88 c -2.400001,0.16 -6.880001,0.16 -13.6,0.16 H 21.280001 C 19.200001,11.04 14.4,10.88 6.72,10.56 5.92,12 4.96,14.72 3.84,18.559999 L -5.6,14.24 C -5.12,12.96 -4.16,10.56 -2.88,7.36 -1.6,4.16 -0.64,1.6 0,0 Z"
       style="fill:#000000;fill-opacity:1;fill-rule:nonzero;stroke:none"
       transform="translate(838.23999,467.97332)" />
    <path
       id="path25"
       d="M 179.52,256.79999 V 373.76001"
       style="fill:none;stroke:#000000;stroke-width:11.2;stroke-linecap:round;stroke-linejoin:round;stroke-miterlimit:10;stroke-dasharray:none;stroke-opacity:1"
       transform="translate(0,34.693324)"
       clip-path="url(#clipPath26)" />
    <path
       id="path27"
       d="m 0,0 -10.4,2.4 c -0.8,-2.4 -1.28,-4.96 -1.44,-7.68 0,-0.16 0,-0.48 0,-0.8 0,-0.48 0,-0.64 0,-0.96 0,-7.36 2.4,-13.12 7.2,-17.44 4.8,-4.319999 10.72,-6.560001 17.92,-6.560001 16.8,0 25.280001,8.800001 25.280001,26.080001 0,7.2 -3.68,14.72 -10.880001,22.400001 -1.92,1.92 -5.44,4.959999 -10.239999,9.119998 C 12.48,30.559999 8.96,33.919998 6.56,36.16 c -2.24,2.240002 -4,4.479999 -5.12,6.720001 -1.12,2.239998 -1.76,4 -1.92,5.599999 l 40.32,-0.16 v 10.560001 h -52.32 c 0,-0.639999 0,-1.760002 0,-3.200001 -0.16,-1.439998 -0.16,-2.560001 -0.16,-3.2 0,-2.239998 0.16,-4.16 0.48,-5.599999 C -10.88,40 -7.04,33.439999 -0.32,27.360001 2.08,25.120001 5.6,22.08 9.92,18.719999 14.4,15.2 17.440001,12.48 19.200001,10.72 21.92,8.32 23.84,5.6 25.440001,2.72 26.879999,-0.16 27.68,-2.56 27.68,-4.8 c 0,-4.32 -1.28,-8 -3.52,-11.04 -2.24,-2.879999 -5.76,-4.32 -10.4,-4.32 -4.64,0 -8.32,1.280001 -10.88,3.84 -2.56,2.72 -3.84,6.56 -3.84,12 0,1.28 0.32,2.72 0.96,4.32 z"
       style="fill:#000000;fill-opacity:1;fill-rule:nonzero;stroke:none"
       transform="translate(160.96001,495.33334)" />
    <path
       id="path28"
       d="m 464,270.56 h 87.84003 V 360 H 464 v -89.44"
       style="fill:none;stroke:#000000;stroke-width:11.2;stroke-linecap:round;stroke-linejoin:round;stroke-miterlimit:10;stroke-dasharray:none;stroke-opacity:1"
       transform="translate(0,34.693324)"
       clip-path="url(#clipPath29)" />
    <path
       id="path30"
       d="m 0,0 v -28.959999 c -2.4,4.32 -5.92,9.279999 -10.24,14.879999 -4.48,5.76 -8.319999,10.4 -11.68,14.08 z m -36.48,1.92 c 0.16,-0.16 1.599999,-2.08 4.48,-5.44 2.719999,-3.52 5.76,-7.2 8.799999,-11.36 3.200001,-4.160001 6.560002,-8.480001 9.920001,-13.28 3.36,-4.639999 6.4,-9.119999 8.8,-13.279999 2.4,-4 3.68,-7.2 4,-9.280002 h 11.2 V 0 h 8.8 v 10.72 h -8.8 v 28.8 H 0 V 10.88 h -32.32 z"
       style="fill:#000000;fill-opacity:1;fill-rule:nonzero;stroke:none"
       transform="translate(512,517.25332)" />
    <path
       id="path31"
       d="M 120.96,315.51999 H 237.44"
       style="fill:none;stroke:#000000;stroke-width:11.2;stroke-linecap:round;stroke-linejoin:round;stroke-miterlimit:10;stroke-dasharray:none;stroke-opacity:1"
       transform="translate(0,34.693324)"
       clip-path="url(#clipPath32)" />
    <path
       id="path33"
       d="M 1064.8,262.56 1015.36,348 h 98.72 l -49.28,-85.44"
       style="fill:none;stroke:#000000;stroke-width:11.2;stroke-linecap:round;stroke-linejoin:round;stroke-miterlimit:10;stroke-dasharray:none;stroke-opacity:1"
       transform="translate(0,34.693324)"
       clip-path="url(#clipPath34)" />
    <path
       id="path35"
       d="m 1064,371.51999 49.4399,-85.44 H 1014.72 l 49.28,85.44"
       style="fill:none;stroke:#000000;stroke-width:11.2;stroke-linecap:round;stroke-linejoin:round;stroke-miterlimit:10;stroke-dasharray:none;stroke-opacity:1"
       transform="translate(0,34.693324)"
       clip-path="url(#clipPath36)" />
    <path
       id="path37"
       d="m 0,0 -0.16,-0.64 -0.16,-0.8 -0.32,-0.64 -0.48,-0.48 -0.48,-0.48 -0.64,-0.32 -0.64,-0.16 -0.8,-0.16 -0.64,0.16 -0.64,0.16 -0.64,0.32 -0.64,0.48 -0.48,0.48 -0.32,0.64 -0.16,0.8 V 0 0.64 l 0.16,0.8 0.32,0.64 0.48,0.48 0.64,0.48 0.64,0.32 0.64,0.16 0.64,0.16 0.8,-0.16 L -2.24,3.36 -1.6,3.04 -1.12,2.56 -0.64,2.08 -0.32,1.44 -0.16,0.64 0,0 v 0 z"
       style="fill:#000000;fill-opacity:1;fill-rule:evenodd;stroke:none"
       transform="translate(1067.6801,352.29333)"
       clip-path="url(#clipPath38)" />
    <path
       id="path39"
       d="m 0,0 c 6.4,-0.32 14.88,-0.48 25.280001,-0.48 4.16,0 9.76,0 16.800001,0.16 7.039997,0.16 12.479999,0.32 16.32,0.32 l -0.16,11.04 c -4,0 -9.600003,0 -16.960003,-0.16 C 33.759998,10.88 28,10.72 23.68,10.72 c -1.120001,0 -2.880001,0 -5.28,0 -2.24,0 -4,0 -5.12,0 -4.96,0 -9.44,0.16 -13.28,0.32 z M -0.16,-32.799999 C 5.12,-32.48 11.04,-32.32 17.440001,-32.32 H 23.84 c 4.32,0 10.079998,-0.16 16.959999,-0.16 7.040001,-0.159999 12.799999,-0.159999 17.440003,-0.159999 V -21.76 c -4.480004,0 -10.080002,0.16 -17.120003,0.319999 -7.039997,0.16 -12.959999,0.32 -17.439999,0.32 -7.84,0 -16,-0.32 -24,-0.799999 0,-4.959999 0,-8.639999 0.16,-10.879999 z"
       style="fill:#000000;fill-opacity:1;fill-rule:nonzero;stroke:none"
       transform="translate(946.23999,360.13333)" />
    <path
       id="path40"
       d="m 0,0 -0.16,-0.64 -0.16,-0.8 -0.32,-0.64 -0.48,-0.48 -0.48,-0.48 -0.64,-0.32 -0.64,-0.16 -0.8,-0.16 -0.64,0.16 -0.64,0.16 -0.64,0.32 -0.64,0.48 -0.48,0.48 -0.32,0.64 -0.16,0.8 V 0 0.64 l 0.16,0.8 0.32,0.64 0.48,0.48 0.64,0.48 0.64,0.32 0.64,0.16 0.64,0.16 0.8,-0.16 L -2.24,3.36 -1.6,3.04 -1.12,2.56 -0.64,2.08 -0.32,1.44 -0.16,0.64 0,0"
       style="fill:none;stroke:#000000;stroke-width:0.48;stroke-linecap:round;stroke-linejoin:round;stroke-miterlimit:10;stroke-dasharray:none;stroke-opacity:1"
       transform="translate(1067.6801,352.29333)"
       clip-path="url(#clipPath41)" />
  </g>
</svg>
