<?xml version="1.0" encoding="UTF-8" standalone="no"?>
<!-- Created with Inkscape (http://www.inkscape.org/) -->

<svg
   version="1.1"
   id="svg1"
   width="310.84"
   height="332.35999"
   viewBox="0 0 310.84 332.35999"
   sodipodi:docname="Beginning2.pdf"
   xmlns:inkscape="http://www.inkscape.org/namespaces/inkscape"
   xmlns:sodipodi="http://sodipodi.sourceforge.net/DTD/sodipodi-0.dtd"
   xmlns="http://www.w3.org/2000/svg"
   xmlns:svg="http://www.w3.org/2000/svg">
  <defs
     id="defs1">
    <clipPath
       clipPathUnits="userSpaceOnUse"
       id="clipPath2">
      <path
         d="M 0,0.16 V 1122.5601 H 793.59998 V 0.16 Z"
         transform="translate(-340.16,-485.76001)"
         clip-rule="evenodd"
         id="path2" />
    </clipPath>
    <clipPath
       clipPathUnits="userSpaceOnUse"
       id="clipPath4">
      <path
         d="M 0,0.16 V 1122.5601 H 793.59998 V 0.16 Z"
         transform="translate(-566.71997,-485.76001)"
         clip-rule="evenodd"
         id="path4" />
    </clipPath>
    <clipPath
       clipPathUnits="userSpaceOnUse"
       id="clipPath6">
      <path
         d="M 0,0.16 V 1122.5601 H 793.59998 V 0.16 Z"
         transform="translate(-566.71997,-712.32001)"
         clip-rule="evenodd"
         id="path6" />
    </clipPath>
    <clipPath
       clipPathUnits="userSpaceOnUse"
       id="clipPath8">
      <path
         d="M 0,0.16 V 1122.5601 H 793.59998 V 0.16 Z"
         transform="translate(-340.16,-636.79999)"
         clip-rule="evenodd"
         id="path8" />
    </clipPath>
    <clipPath
       clipPathUnits="userSpaceOnUse"
       id="clipPath10">
      <path
         d="M 0,0.16 V 1122.5601 H 793.59998 V 0.16 Z"
         transform="translate(-549.12,-693.28003)"
         clip-rule="evenodd"
         id="path10" />
    </clipPath>
    <clipPath
       clipPathUnits="userSpaceOnUse"
       id="clipPath12">
      <path
         d="M 0,0.16 V 1122.5601 H 793.59998 V 0.16 Z"
         transform="translate(-313.12,-653.76001)"
         clip-rule="evenodd"
         id="path12" />
    </clipPath>
    <clipPath
       clipPathUnits="userSpaceOnUse"
       id="clipPath14">
      <path
         d="M 0,0.16 V 1122.5601 H 793.59998 V 0.16 Z"
         transform="translate(-566.71997,-485.76001)"
         clip-rule="evenodd"
         id="path14" />
    </clipPath>
    <clipPath
       clipPathUnits="userSpaceOnUse"
       id="clipPath16">
      <path
         d="M 0,0.16 V 1122.5601 H 793.59998 V 0.16 Z"
         clip-rule="evenodd"
         id="path16" />
    </clipPath>
  </defs>
  <sodipodi:namedview
     id="namedview1"
     pagecolor="#505050"
     bordercolor="#eeeeee"
     borderopacity="1"
     inkscape:showpageshadow="0"
     inkscape:pageopacity="0"
     inkscape:pagecheckerboard="0"
     inkscape:deskcolor="#505050">
    <inkscape:page
       x="0"
       y="0"
       inkscape:label="1"
       id="page1"
       width="310.84"
       height="332.35999"
       margin="0"
       bleed="0" />
  </sodipodi:namedview>
  <g
     id="g1"
     inkscape:groupmode="layer"
     inkscape:label="1">
    <path
       id="path1"
       d="m 0,0 c 0,-10.42 -8.45,-18.879999 -18.879999,-18.879999 -10.43,0 -18.879999,8.459999 -18.879999,18.879999 0,10.42 8.449999,18.879999 18.879999,18.879999 C -8.45,18.879999 0,10.42 0,0 Z"
       style="fill:none;stroke:#000000;stroke-width:26.4;stroke-linecap:round;stroke-linejoin:round;stroke-miterlimit:10;stroke-dasharray:none;stroke-opacity:1"
       transform="translate(340.16,424.35995)"
       clip-path="url(#clipPath2)" />
    <path
       id="path3"
       d="m 0,0 c 0,-10.42 -8.45,-18.879999 -18.879999,-18.879999 -10.43,0 -18.879999,8.459999 -18.879999,18.879999 0,10.42 8.449999,18.879999 18.879999,18.879999 C -8.45,18.879999 0,10.42 0,0 Z"
       style="fill:none;stroke:#000000;stroke-width:26.4;stroke-linecap:round;stroke-linejoin:round;stroke-miterlimit:10;stroke-dasharray:none;stroke-opacity:1"
       transform="translate(566.71997,424.35995)"
       clip-path="url(#clipPath4)" />
    <path
       id="path5"
       d="m 0,0 c 0,-10.42 -8.45,-18.879999 -18.879999,-18.879999 -10.43,0 -18.879999,8.459999 -18.879999,18.879999 0,10.42 8.449999,18.879999 18.879999,18.879999 C -8.45,18.879999 0,10.42 0,0 Z"
       style="fill:none;stroke:#000000;stroke-width:26.4;stroke-linecap:round;stroke-linejoin:round;stroke-miterlimit:10;stroke-dasharray:none;stroke-opacity:1"
       transform="translate(566.71997,650.91995)"
       clip-path="url(#clipPath6)" />
    <path
       id="path7"
       d="m 0,0 c 0,-10.42 -8.45,-18.879999 -18.879999,-18.879999 -10.43,0 -18.879999,8.459999 -18.879999,18.879999 0,10.42 8.449999,18.879999 18.879999,18.879999 C -8.45,18.879999 0,10.42 0,0 Z"
       style="fill:none;stroke:#000000;stroke-width:26.4;stroke-linecap:round;stroke-linejoin:round;stroke-miterlimit:10;stroke-dasharray:none;stroke-opacity:1"
       transform="translate(340.16,575.39993)"
       clip-path="url(#clipPath8)" />
    <path
       id="path9"
       d="m 0,0 -0.96,-10.24 -1.44,-10.399999 -1.76,-10.24 -2.4,-10.08 -2.72,-10.080002 -3.36,-9.759998 -3.68,-9.759999 -4.16,-9.600006 -4.640001,-9.279998 -5.119999,-9.119996 -5.44,-8.800002 -5.759999,-8.64 -6.240001,-8.32 -6.720002,-8.00001 -7.039997,-7.67999 -7.360004,-7.36 -7.68,-7.03999 -8,-6.56002 -8.32,-6.23999 -8.479997,-5.91999 -8.96,-5.44001 -9.12,-5.11999 -9.28,-4.48001 -9.44,-4.16001 -9.76,-3.83999 -9.91999,-3.2 -10.08001,-2.88 -10.08,-2.24 -10.24,-1.91999 -10.23999,-1.44001 -10.40001,-0.8"
       style="fill:none;stroke:#000000;stroke-width:26.4;stroke-linecap:round;stroke-linejoin:round;stroke-miterlimit:10;stroke-dasharray:none;stroke-opacity:1"
       transform="translate(549.12,631.87997)"
       clip-path="url(#clipPath10)" />
    <path
       id="path11"
       d="m 0,0 3.2,3.52 3.52,3.2 3.84,2.88 4,2.56 4.159999,2.24 4.480002,2.08 4.479999,1.6 4.64,1.120001 4.639999,0.959999 4.799999,0.479999 4.640004,0.16 4.799999,-0.16 L 56,20 l 4.639999,-0.959999 4.64,-1.280001 4.480003,-1.76 4.32,-1.92 4.159996,-2.4 4,-2.72 3.68,-2.88 3.520004,-3.36 3.199997,-3.52 3.040001,-3.68 2.559998,-4 2.400002,-4.16 1.92,-4.319999"
       style="fill:none;stroke:#000000;stroke-width:26.4;stroke-linecap:round;stroke-linejoin:round;stroke-miterlimit:10;stroke-dasharray:none;stroke-opacity:1"
       transform="translate(313.12,592.35995)"
       clip-path="url(#clipPath12)" />
    <path
       id="path13"
       d="m 0,0 -1.12,-4 -1.44,-4 -1.76,-3.84 -2.08,-3.52 -2.4,-3.519999 -2.72,-3.200001 -3.04,-2.879999 -3.2,-2.720001 -3.520001,-2.4 -3.679998,-2.08 -3.68,-1.920002 -4,-1.279999 -4.16,-1.119999 -4,-0.799999 -4.32,-0.319999 h -4.16 l -4.16,0.319999 -4.159999,0.799999 -4,1.119999 -4,1.279999 -3.840004,1.920002 -3.680001,2.08 -3.36,2.4 -3.199997,2.720001 -3.040001,2.879999 -2.720001,3.200001 -2.399994,3.519999 -2.080002,3.52 -1.919998,3.84 -1.440003,4 -1.120003,4"
       style="fill:none;stroke:#000000;stroke-width:26.4;stroke-linecap:round;stroke-linejoin:round;stroke-miterlimit:10;stroke-dasharray:none;stroke-opacity:1"
       transform="translate(566.71997,424.35995)"
       clip-path="url(#clipPath14)" />
    <path
       id="path15"
       d="M 472.32001,485.76001 415.67999,636.79999"
       style="fill:none;stroke:#000000;stroke-width:26.4;stroke-linecap:round;stroke-linejoin:round;stroke-miterlimit:10;stroke-dasharray:none;stroke-opacity:1"
       transform="translate(0,-61.400059)"
       clip-path="url(#clipPath16)" />
  </g>
</svg>
