<?xml version="1.0" encoding="UTF-8" standalone="no"?>
<!-- Created with Inkscape (http://www.inkscape.org/) -->

<svg
   version="1.1"
   id="svg1"
   width="209.45332"
   height="284.32001"
   viewBox="0 0 209.45332 284.32001"
   sodipodi:docname="CirculatingFire4.pdf"
   xmlns:inkscape="http://www.inkscape.org/namespaces/inkscape"
   xmlns:sodipodi="http://sodipodi.sourceforge.net/DTD/sodipodi-0.dtd"
   xmlns="http://www.w3.org/2000/svg"
   xmlns:svg="http://www.w3.org/2000/svg">
  <defs
     id="defs1">
    <clipPath
       clipPathUnits="userSpaceOnUse"
       id="clipPath2">
      <path
         d="M 0,0.16 V 1122.5601 H 793.59998 V 0.16 Z"
         transform="translate(-396.79999,-448)"
         clip-rule="evenodd"
         id="path2" />
    </clipPath>
    <clipPath
       clipPathUnits="userSpaceOnUse"
       id="clipPath4">
      <path
         d="M 0,0.16 V 1122.5601 H 793.59998 V 0.16 Z"
         transform="translate(3.3333334e-6)"
         clip-rule="evenodd"
         id="path4" />
    </clipPath>
    <clipPath
       clipPathUnits="userSpaceOnUse"
       id="clipPath6">
      <path
         d="M 0,0.16 V 1122.5601 H 793.59998 V 0.16 Z"
         transform="translate(3.3333334e-6)"
         clip-rule="evenodd"
         id="path6" />
    </clipPath>
    <clipPath
       clipPathUnits="userSpaceOnUse"
       id="clipPath8">
      <path
         d="M 0,0.16 V 1122.5601 H 793.59998 V 0.16 Z"
         transform="translate(3.3333334e-6)"
         clip-rule="evenodd"
         id="path8" />
    </clipPath>
  </defs>
  <sodipodi:namedview
     id="namedview1"
     pagecolor="#505050"
     bordercolor="#eeeeee"
     borderopacity="1"
     inkscape:showpageshadow="0"
     inkscape:pageopacity="0"
     inkscape:pagecheckerboard="0"
     inkscape:deskcolor="#505050">
    <inkscape:page
       x="0"
       y="0"
       inkscape:label="1"
       id="page1"
       width="209.45332"
       height="284.32001"
       margin="0"
       bleed="0" />
  </sodipodi:namedview>
  <g
     id="g1"
     inkscape:groupmode="layer"
     inkscape:label="1">
    <path
       id="path1"
       d="m 0,0 -6.72,0.16 -6.88,0.64 -6.72,1.12 -6.720001,1.44 -6.559997,1.76 -6.560002,2.24 -6.240002,2.72 -6.239997,2.88 -5.920002,3.36 L -64.32,20 -69.760002,24.16 -75.040001,28.48 -80,33.279999 l -4.800003,4.960003 -4.32,5.279998 -4,5.439999 -3.839996,5.760002 -3.360001,5.919998 -2.88,6.239998 -2.72,6.240006 -2.24,6.559997 -1.76,6.559998 -1.44,6.720001 -0.96,6.720001 -0.64,6.72 -0.32,6.88 0.32,6.88 0.64,6.72 0.96,6.87999 1.44,6.72001 1.76,6.55999 2.24,6.40001 2.72,6.4 2.88,6.08 3.360001,5.92 3.839996,5.76001 4,5.59999 4.32,5.28 4.800003,4.96 4.959999,4.64 5.279999,4.31999 5.440002,4.16001 5.759999,3.68 5.920002,3.36001 6.239997,3.03999 6.240002,2.56 6.560002,2.24 6.559997,1.92 6.720001,1.28 6.72,1.11999 6.88,0.64 L 0,226.56"
       style="fill:none;stroke:#000000;stroke-width:26.4;stroke-linecap:round;stroke-linejoin:round;stroke-miterlimit:10;stroke-dasharray:none;stroke-opacity:1"
       transform="translate(139.33332,28.879941)"
       clip-path="url(#clipPath2)" />
    <path
       id="path3"
       d="M 396.79999,448 H 434.56"
       style="fill:none;stroke:#000000;stroke-width:26.4;stroke-linecap:round;stroke-linejoin:round;stroke-miterlimit:10;stroke-dasharray:none;stroke-opacity:1"
       transform="translate(-257.46667,-419.12006)"
       clip-path="url(#clipPath4)" />
    <path
       id="path5"
       d="M 396.79999,674.56 H 434.56"
       style="fill:none;stroke:#000000;stroke-width:26.4;stroke-linecap:round;stroke-linejoin:round;stroke-miterlimit:10;stroke-dasharray:none;stroke-opacity:1"
       transform="translate(-257.46667,-419.12006)"
       clip-path="url(#clipPath6)" />
    <path
       id="path7"
       d="M 329.28,529.91998 296.64001,586.56 h 65.43998 L 329.28,529.91998"
       style="fill:none;stroke:#000000;stroke-width:26.4;stroke-linecap:round;stroke-linejoin:round;stroke-miterlimit:10;stroke-dasharray:none;stroke-opacity:1"
       transform="translate(-257.46667,-419.12006)"
       clip-path="url(#clipPath8)" />
  </g>
</svg>
