<?xml version="1.0" encoding="UTF-8" standalone="no"?>
<!-- Created with Inkscape (http://www.inkscape.org/) -->

<svg
   version="1.1"
   id="svg1"
   width="296.16"
   height="292.32001"
   viewBox="0 0 296.16 292.32001"
   sodipodi:docname="CirculatingFire3.pdf"
   xmlns:inkscape="http://www.inkscape.org/namespaces/inkscape"
   xmlns:sodipodi="http://sodipodi.sourceforge.net/DTD/sodipodi-0.dtd"
   xmlns="http://www.w3.org/2000/svg"
   xmlns:svg="http://www.w3.org/2000/svg">
  <defs
     id="defs1">
    <clipPath
       clipPathUnits="userSpaceOnUse"
       id="clipPath2">
      <path
         d="M 0,0.16 V 1122.5601 H 793.59998 V 0.16 Z"
         transform="translate(-3.3333333e-6)"
         clip-rule="evenodd"
         id="path2" />
    </clipPath>
    <clipPath
       clipPathUnits="userSpaceOnUse"
       id="clipPath4">
      <path
         d="M 0,0.16 V 1122.5601 H 793.59998 V 0.16 Z"
         transform="translate(-396.79998,-523.52002)"
         clip-rule="evenodd"
         id="path4" />
    </clipPath>
    <clipPath
       clipPathUnits="userSpaceOnUse"
       id="clipPath6">
      <path
         d="M 0,0.16 V 1122.5601 H 793.59998 V 0.16 Z"
         transform="translate(-3.3333333e-6)"
         clip-rule="evenodd"
         id="path6" />
    </clipPath>
    <clipPath
       clipPathUnits="userSpaceOnUse"
       id="clipPath8">
      <path
         d="M 0,0.16 V 1122.5601 H 793.59998 V 0.16 Z"
         transform="translate(-3.3333333e-6)"
         clip-rule="evenodd"
         id="path8" />
    </clipPath>
  </defs>
  <sodipodi:namedview
     id="namedview1"
     pagecolor="#505050"
     bordercolor="#eeeeee"
     borderopacity="1"
     inkscape:showpageshadow="0"
     inkscape:pageopacity="0"
     inkscape:pagecheckerboard="0"
     inkscape:deskcolor="#505050">
    <inkscape:page
       x="0"
       y="0"
       inkscape:label="1"
       id="page1"
       width="296.16"
       height="292.32001"
       margin="0"
       bleed="0" />
  </sodipodi:namedview>
  <g
     id="g1"
     inkscape:groupmode="layer"
     inkscape:label="1">
    <path
       id="path1"
       d="m 283.51999,448 h 226.56 v 226.56 h -226.56 V 448"
       style="fill:none;stroke:#000000;stroke-width:26.4;stroke-linecap:round;stroke-linejoin:round;stroke-miterlimit:10;stroke-dasharray:none;stroke-opacity:1"
       transform="translate(-244.13333,-411.12006)"
       clip-path="url(#clipPath2)" />
    <path
       id="path3"
       d="M 0,0 -3.36,0.16 -6.88,0.64 -10.24,1.44 -13.6,2.56 -16.799999,4 -19.84,5.6 l -2.879999,2.08 -2.720002,2.24 -2.399999,2.4 -2.24,2.72 -1.92,2.88 -1.759998,3.039999 -1.440003,3.200001 -1.119999,3.36 -0.799999,3.359999 -0.479999,3.360003 -0.16,3.519996 0.16,3.520001 0.479999,3.36 L -36.32,48.16 l 1.119999,3.200001 1.440003,3.2 L -32,57.599998 -30.08,60.48 l 2.24,2.720001 2.399999,2.560001 2.720002,2.079994 2.879999,2.080002 3.040001,1.599999 3.199999,1.440002 3.36,1.120003 3.36,0.799995 3.52,0.480004 3.36,0.159996"
       style="fill:none;stroke:#000000;stroke-width:26.4;stroke-linecap:round;stroke-linejoin:round;stroke-miterlimit:10;stroke-dasharray:none;stroke-opacity:1"
       transform="translate(152.66665,112.39996)"
       clip-path="url(#clipPath4)" />
    <path
       id="path5"
       d="m 396.79999,523.52002 h 18.88"
       style="fill:none;stroke:#000000;stroke-width:26.4;stroke-linecap:round;stroke-linejoin:round;stroke-miterlimit:10;stroke-dasharray:none;stroke-opacity:1"
       transform="translate(-244.13333,-411.12006)"
       clip-path="url(#clipPath6)" />
    <path
       id="path7"
       d="m 396.79999,599.03998 h 18.88"
       style="fill:none;stroke:#000000;stroke-width:26.4;stroke-linecap:round;stroke-linejoin:round;stroke-miterlimit:10;stroke-dasharray:none;stroke-opacity:1"
       transform="translate(-244.13333,-411.12006)"
       clip-path="url(#clipPath8)" />
  </g>
</svg>
