<?xml version="1.0" encoding="UTF-8" standalone="no"?>
<!-- Created with Inkscape (http://www.inkscape.org/) -->

<svg
   version="1.1"
   id="svg1"
   width="240.12"
   height="313.66666"
   viewBox="0 0 240.12 313.66666"
   sodipodi:docname="Element5.pdf"
   xmlns:inkscape="http://www.inkscape.org/namespaces/inkscape"
   xmlns:sodipodi="http://sodipodi.sourceforge.net/DTD/sodipodi-0.dtd"
   xmlns="http://www.w3.org/2000/svg"
   xmlns:svg="http://www.w3.org/2000/svg">
  <defs
     id="defs1">
    <clipPath
       clipPathUnits="userSpaceOnUse"
       id="clipPath2">
      <path
         d="M 0,0.16 V 1122.5601 H 793.59998 V 0.16 Z"
         clip-rule="evenodd"
         id="path2" />
    </clipPath>
    <clipPath
       clipPathUnits="userSpaceOnUse"
       id="clipPath4">
      <path
         d="M 0,0.16 V 1122.5601 H 793.59998 V 0.16 Z"
         clip-rule="evenodd"
         id="path4" />
    </clipPath>
    <clipPath
       clipPathUnits="userSpaceOnUse"
       id="clipPath6">
      <path
         d="M 0,0.16 V 1122.5601 H 793.59998 V 0.16 Z"
         transform="translate(-502.39999,-537.91998)"
         clip-rule="evenodd"
         id="path6" />
    </clipPath>
  </defs>
  <sodipodi:namedview
     id="namedview1"
     pagecolor="#505050"
     bordercolor="#eeeeee"
     borderopacity="1"
     inkscape:showpageshadow="0"
     inkscape:pageopacity="0"
     inkscape:pagecheckerboard="0"
     inkscape:deskcolor="#505050">
    <inkscape:page
       x="0"
       y="0"
       inkscape:label="1"
       id="page1"
       width="240.12"
       height="313.66666"
       margin="0"
       bleed="0" />
  </sodipodi:namedview>
  <g
     id="g1"
     inkscape:groupmode="layer"
     inkscape:label="1">
    <path
       id="path1"
       d="M 426.88,688.96002 V 462.39999 l -113.27999,75.51999 h 188.79998"
       style="fill:none;stroke:#000000;stroke-width:26.4;stroke-linecap:round;stroke-linejoin:round;stroke-miterlimit:10;stroke-dasharray:none;stroke-opacity:1"
       transform="translate(0,13.346608)"
       clip-path="url(#clipPath2)" />
    <path
       id="path3"
       d="m 408,688.96002 h 37.76001"
       style="fill:none;stroke:#000000;stroke-width:26.4;stroke-linecap:round;stroke-linejoin:round;stroke-miterlimit:10;stroke-dasharray:none;stroke-opacity:1"
       transform="translate(0,13.346608)"
       clip-path="url(#clipPath4)" />
    <path
       id="path5"
       d="m 0,0 0.96,-6.24 0.48,-6.24 0.16,-6.239999 -0.32,-6.24 -0.64,-6.240002 -1.12,-6.239998 -1.44,-6.080001 -1.76,-5.919999 -2.24,-5.920002 -2.56,-5.759998 -3.04,-5.439999 L -14.88,-72 l -3.52,-5.120003 -4,-4.799995 -4.319999,-4.64 -4.480002,-4.319999 -4.799999,-4 -5.119999,-3.680001 L -46.400002,-101.92 -52,-104.96 l -5.599998,-2.56 -5.920002,-2.4 -5.920002,-1.76 -6.079995,-1.6"
       style="fill:none;stroke:#000000;stroke-width:26.4;stroke-linecap:round;stroke-linejoin:round;stroke-miterlimit:10;stroke-dasharray:none;stroke-opacity:1"
       transform="translate(502.39999,551.26659)"
       clip-path="url(#clipPath6)" />
  </g>
</svg>
