<?xml version="1.0" encoding="UTF-8" standalone="no"?>
<!-- Created with Inkscape (http://www.inkscape.org/) -->

<svg
   version="1.1"
   id="svg1"
   width="284.16"
   height="253.61333"
   viewBox="0 0 284.16 253.61333"
   sodipodi:docname="FireCineris3.pdf"
   xmlns:inkscape="http://www.inkscape.org/namespaces/inkscape"
   xmlns:sodipodi="http://sodipodi.sourceforge.net/DTD/sodipodi-0.dtd"
   xmlns="http://www.w3.org/2000/svg"
   xmlns:svg="http://www.w3.org/2000/svg">
  <defs
     id="defs1">
    <clipPath
       clipPathUnits="userSpaceOnUse"
       id="clipPath2">
      <path
         d="M 0,0.16 V 1122.5601 H 793.59998 V 0.16 Z"
         transform="translate(-453.44,-561.28003)"
         clip-rule="evenodd"
         id="path2" />
    </clipPath>
    <clipPath
       clipPathUnits="userSpaceOnUse"
       id="clipPath4">
      <path
         d="M 0,0.16 V 1122.5601 H 793.59998 V 0.16 Z"
         clip-rule="evenodd"
         id="path4" />
    </clipPath>
    <clipPath
       clipPathUnits="userSpaceOnUse"
       id="clipPath6">
      <path
         d="M 0,0.16 V 1122.5601 H 793.59998 V 0.16 Z"
         clip-rule="evenodd"
         id="path6" />
    </clipPath>
    <clipPath
       clipPathUnits="userSpaceOnUse"
       id="clipPath8">
      <path
         d="M 0,0.16 V 1122.5601 H 793.59998 V 0.16 Z"
         transform="translate(-380.16,-620)"
         clip-rule="evenodd"
         id="path8" />
    </clipPath>
    <clipPath
       clipPathUnits="userSpaceOnUse"
       id="clipPath10">
      <path
         d="M 0,0.16 V 1122.5601 H 793.59998 V 0.16 Z"
         clip-rule="evenodd"
         id="path10" />
    </clipPath>
    <clipPath
       clipPathUnits="userSpaceOnUse"
       id="clipPath12">
      <path
         d="M 0,0.16 V 1122.5601 H 793.59998 V 0.16 Z"
         transform="translate(-384.16,-693.44)"
         clip-rule="evenodd"
         id="path12" />
    </clipPath>
    <clipPath
       clipPathUnits="userSpaceOnUse"
       id="clipPath14">
      <path
         d="M 0,0.16 V 1122.5601 H 793.59998 V 0.16 Z"
         transform="translate(-471.84,-624.15997)"
         clip-rule="evenodd"
         id="path14" />
    </clipPath>
    <clipPath
       clipPathUnits="userSpaceOnUse"
       id="clipPath16">
      <path
         d="M 0,0.16 V 1122.5601 H 793.59998 V 0.16 Z"
         clip-rule="evenodd"
         id="path16" />
    </clipPath>
    <clipPath
       clipPathUnits="userSpaceOnUse"
       id="clipPath18">
      <path
         d="M 0,0.16 V 1122.5601 H 793.59998 V 0.16 Z"
         transform="translate(-467.51999,-642.56)"
         clip-rule="evenodd"
         id="path18" />
    </clipPath>
  </defs>
  <sodipodi:namedview
     id="namedview1"
     pagecolor="#505050"
     bordercolor="#eeeeee"
     borderopacity="1"
     inkscape:showpageshadow="0"
     inkscape:pageopacity="0"
     inkscape:pagecheckerboard="0"
     inkscape:deskcolor="#505050">
    <inkscape:page
       x="0"
       y="0"
       inkscape:label="1"
       id="page1"
       width="284.16"
       height="253.61333"
       margin="0"
       bleed="0" />
  </sodipodi:namedview>
  <g
     id="g1"
     inkscape:groupmode="layer"
     inkscape:label="1">
    <path
       id="path1"
       d="m 0,0 -0.16,-4.48 -0.48,-4.32 -0.8,-4.48 -1.28,-4.160001 -1.6,-4.159999 -1.76,-4.16 -2.24,-3.84 -2.4,-3.679999 -2.88,-3.52 L -16.48,-40 l -3.36,-3.040001 -3.520001,-2.719997 -3.68,-2.560002 -3.839998,-2.080002 -4.000002,-1.919998 -4.16,-1.599998 -4.32,-1.120003 L -47.68,-55.84 l -4.48,-0.64 -4.479999,-0.159999 -4.32,0.159999 -4.480003,0.64 -4.32,0.799999 -4.32,1.120003 -4.159996,1.599998 -4,1.919998 -4,2.080002 -3.68,2.560002 -3.520004,2.719997 L -96.639999,-40 -99.68,-36.799999 l -2.72,3.52 -2.56,3.679999 -2.08,3.84 -1.92,4.16 -1.44,4.159999 -1.28,4.160001 -0.8,4.48 -0.64,4.32 -0.16,4.48"
       style="fill:none;stroke:#000000;stroke-width:26.4;stroke-linecap:round;stroke-linejoin:round;stroke-miterlimit:10;stroke-dasharray:none;stroke-opacity:1"
       transform="translate(453.44,466.51997)"
       clip-path="url(#clipPath2)" />
    <path
       id="path3"
       d="M 340.16,561.28003 H 283.51999"
       style="fill:none;stroke:#000000;stroke-width:26.4;stroke-linecap:round;stroke-linejoin:round;stroke-miterlimit:10;stroke-dasharray:none;stroke-opacity:1"
       transform="translate(0,-94.760059)"
       clip-path="url(#clipPath4)" />
    <path
       id="path5"
       d="m 453.44,561.28003 h 56.63999"
       style="fill:none;stroke:#000000;stroke-width:26.4;stroke-linecap:round;stroke-linejoin:round;stroke-miterlimit:10;stroke-dasharray:none;stroke-opacity:1"
       transform="translate(0,-94.760059)"
       clip-path="url(#clipPath6)" />
    <path
       id="path7"
       d="m 0,0 -1.6,-3.04 -2.08,-2.88 -2.08,-2.72 -2.56,-2.56 -2.72,-2.08 -2.88,-2.08 -3.039999,-1.599999 L -20.16,-18.4 l -3.200001,-1.12 -3.359998,-0.8 -3.520001,-0.479999 -3.519998,-0.16 -3.520001,0.16 -3.36,0.479999 -3.360001,0.8 -3.360001,1.12 -3.2,1.440001 -3.039997,1.759999 -2.880002,1.92 -2.720001,2.24 -2.399997,2.4 -2.240002,2.72 -1.920002,2.88 -1.759995,3.04 -1.440002,3.2 -1.120003,3.36 -0.799995,3.36 -0.480004,3.36 -0.159996,3.519999 0.159996,3.520001 0.480004,3.36 0.799995,3.520001 1.120003,3.199999 1.440002,3.199998 1.759995,3.040001 L -63.84,39.52 l 2.240002,2.720002 2.399997,2.399997 2.720001,2.240002 2.880002,2.079998 3.039997,1.600002 3.2,1.439999 3.360001,1.119999 3.360001,0.799999 3.36,0.480004 3.520001,0.159999 3.519998,-0.159999 3.520001,-0.480004 3.359998,-0.799999 L -20.16,52 -16.959999,50.560001 -13.92,48.959999 -11.04,47.040001 -8.32,44.799999 -5.76,42.240002 -3.68,39.68 -1.6,36.799999 0,33.759998"
       style="fill:none;stroke:#000000;stroke-width:26.4;stroke-linecap:round;stroke-linejoin:round;stroke-miterlimit:10;stroke-dasharray:none;stroke-opacity:1"
       transform="translate(380.16,525.23994)"
       clip-path="url(#clipPath8)" />
    <path
       id="path9"
       d="m 380.16,653.76001 4,39.67999"
       style="fill:none;stroke:#000000;stroke-width:26.4;stroke-linecap:round;stroke-linejoin:round;stroke-miterlimit:10;stroke-dasharray:none;stroke-opacity:1"
       transform="translate(0,-94.760059)"
       clip-path="url(#clipPath10)" />
    <path
       id="path11"
       d="m 0,0 0.16,2.24 0.48,2.24 0.64,2.24 0.96,2.08 1.12,1.92 1.44,1.76 1.6,1.6 1.76,1.44 2.08,1.279999 2.08,0.800001 2.08,0.8 2.239999,0.319999 2.24,0.16 2.400002,-0.16 L 23.52,18.4 25.6,17.6 27.68,16.799999 29.6,15.52 31.52,14.08 33.119999,12.48 34.400002,10.72 35.68,8.8 l 0.959999,-2.08 0.64,-2.24 0.479999,-2.24 V 0"
       style="fill:none;stroke:#000000;stroke-width:26.4;stroke-linecap:round;stroke-linejoin:round;stroke-miterlimit:10;stroke-dasharray:none;stroke-opacity:1"
       transform="translate(384.16,598.67994)"
       clip-path="url(#clipPath12)" />
    <path
       id="path13"
       d="m 0,0 0.48,-2.24 v -2.24 l -0.16,-2.24 -0.48,-2.24 -0.64,-2.24 -0.96,-2.08 -1.28,-1.92 -1.44,-1.759999 -1.6,-1.6 L -7.84,-20 -9.76,-21.120001 -11.84,-21.92 l -2.24,-0.799999 -2.24,-0.320002 -2.239999,-0.16 -2.4,0.16 -2.240002,0.480002 -2.08,0.799999 -2.08,0.960001 -1.92,1.119999 -1.76,1.44 -1.599998,1.600001 -1.440003,1.919999 -1.119999,1.92 -0.959999,2.08 -0.639999,2.24"
       style="fill:none;stroke:#000000;stroke-width:26.4;stroke-linecap:round;stroke-linejoin:round;stroke-miterlimit:10;stroke-dasharray:none;stroke-opacity:1"
       transform="translate(471.84,529.39991)"
       clip-path="url(#clipPath14)" />
    <path
       id="path15"
       d="M 471.84,624.15997 467.51999,642.56"
       style="fill:none;stroke:#000000;stroke-width:26.4;stroke-linecap:round;stroke-linejoin:round;stroke-miterlimit:10;stroke-dasharray:none;stroke-opacity:1"
       transform="translate(0,-94.760059)"
       clip-path="url(#clipPath16)" />
    <path
       id="path17"
       d="m 0,0 0.32,3.04 0.64,3.04 0.96,2.88 1.12,2.88 1.44,2.56 1.76,2.559999 2.08,2.240002 2.24,2.08 2.4,1.92 2.72,1.599998 L 18.4,26.08 21.280001,27.040001 24.32,27.68 27.360001,28.16 H 30.4 L 33.439999,27.84 36.48,27.360001 39.360001,26.4 42.080002,25.280001 44.799999,23.84 47.360001,22.08 49.599998,20.16 51.84,17.92 53.599998,15.36 55.200001,12.8"
       style="fill:none;stroke:#000000;stroke-width:26.4;stroke-linecap:round;stroke-linejoin:round;stroke-miterlimit:10;stroke-dasharray:none;stroke-opacity:1"
       transform="translate(467.51999,547.79994)"
       clip-path="url(#clipPath18)" />
  </g>
</svg>
