<?xml version="1.0" encoding="UTF-8" standalone="no"?>
<!-- Created with Inkscape (http://www.inkscape.org/) -->

<svg
   version="1.1"
   id="svg1"
   width="348.18668"
   height="332.35999"
   viewBox="0 0 348.18668 332.35999"
   sodipodi:docname="FireIgneAperto2.pdf"
   xmlns:inkscape="http://www.inkscape.org/namespaces/inkscape"
   xmlns:sodipodi="http://sodipodi.sourceforge.net/DTD/sodipodi-0.dtd"
   xmlns="http://www.w3.org/2000/svg"
   xmlns:svg="http://www.w3.org/2000/svg">
  <defs
     id="defs1">
    <clipPath
       clipPathUnits="userSpaceOnUse"
       id="clipPath2">
      <path
         d="M 0,0.16 V 1122.5601 H 793.59998 V 0.16 Z"
         clip-rule="evenodd"
         id="path2" />
    </clipPath>
    <clipPath
       clipPathUnits="userSpaceOnUse"
       id="clipPath4">
      <path
         d="M 0,0.16 V 1122.5601 H 793.59998 V 0.16 Z"
         clip-rule="evenodd"
         id="path4" />
    </clipPath>
    <clipPath
       clipPathUnits="userSpaceOnUse"
       id="clipPath6">
      <path
         d="M 0,0.16 V 1122.5601 H 793.59998 V 0.16 Z"
         transform="translate(-377.92001,-448)"
         clip-rule="evenodd"
         id="path6" />
    </clipPath>
    <clipPath
       clipPathUnits="userSpaceOnUse"
       id="clipPath8">
      <path
         d="M 0,0.16 V 1122.5601 H 793.59998 V 0.16 Z"
         clip-rule="evenodd"
         id="path8" />
    </clipPath>
    <clipPath
       clipPathUnits="userSpaceOnUse"
       id="clipPath10">
      <path
         d="M 0,0.16 V 1122.5601 H 793.59998 V 0.16 Z"
         clip-rule="evenodd"
         id="path10" />
    </clipPath>
    <clipPath
       clipPathUnits="userSpaceOnUse"
       id="clipPath12">
      <path
         d="M 0,0.16 V 1122.5601 H 793.59998 V 0.16 Z"
         clip-rule="evenodd"
         id="path12" />
    </clipPath>
    <clipPath
       clipPathUnits="userSpaceOnUse"
       id="clipPath14">
      <path
         d="M 0,0.16 V 1122.5601 H 793.59998 V 0.16 Z"
         transform="translate(-283.51999,-693.44)"
         clip-rule="evenodd"
         id="path14" />
    </clipPath>
  </defs>
  <sodipodi:namedview
     id="namedview1"
     pagecolor="#505050"
     bordercolor="#eeeeee"
     borderopacity="1"
     inkscape:showpageshadow="0"
     inkscape:pageopacity="0"
     inkscape:pagecheckerboard="0"
     inkscape:deskcolor="#505050">
    <inkscape:page
       x="0"
       y="0"
       inkscape:label="1"
       id="page1"
       width="348.18668"
       height="332.35999"
       margin="0"
       bleed="0" />
  </sodipodi:namedview>
  <g
     id="g1"
     inkscape:groupmode="layer"
     inkscape:label="1">
    <path
       id="path1"
       d="m 170.24,561.28003 h 94.40001"
       style="fill:none;stroke:#000000;stroke-width:26.4;stroke-linecap:round;stroke-linejoin:round;stroke-miterlimit:10;stroke-dasharray:none;stroke-opacity:1"
       transform="translate(0,-58.733392)"
       clip-path="url(#clipPath2)" />
    <path
       id="path3"
       d="m 377.92001,561.28003 h 94.4"
       style="fill:none;stroke:#000000;stroke-width:26.4;stroke-linecap:round;stroke-linejoin:round;stroke-miterlimit:10;stroke-dasharray:none;stroke-opacity:1"
       transform="translate(0,-58.733392)"
       clip-path="url(#clipPath4)" />
    <path
       id="path5"
       d="m 0,0 -6.72,0.16 -6.88,0.64 -6.72,1.12 -6.720001,1.44 -6.559997,1.76 -6.560002,2.24 -6.240002,2.72 -6.239997,2.88 -5.920002,3.36 L -64.32,20 -69.760002,24.16 -75.040001,28.48 -80,33.279999 l -4.800003,4.960003 -4.32,5.279998 -4,5.439999 -3.839996,5.760002 -3.360001,5.919998 -2.88,6.239998 -2.72,6.240006 -2.24,6.559997 -1.76,6.559998 -1.44,6.720001 -0.96,6.720001 -0.64,6.72 -0.32,6.88"
       style="fill:none;stroke:#000000;stroke-width:26.4;stroke-linecap:round;stroke-linejoin:round;stroke-miterlimit:10;stroke-dasharray:none;stroke-opacity:1"
       transform="translate(377.92001,389.26661)"
       clip-path="url(#clipPath6)" />
    <path
       id="path7"
       d="M 377.92001,448 V 561.28003"
       style="fill:none;stroke:#000000;stroke-width:26.4;stroke-linecap:round;stroke-linejoin:round;stroke-miterlimit:10;stroke-dasharray:none;stroke-opacity:1"
       transform="translate(0,-58.733392)"
       clip-path="url(#clipPath8)" />
    <path
       id="path9"
       d="m 283.51999,599.03998 h 75.52002"
       style="fill:none;stroke:#000000;stroke-width:26.4;stroke-linecap:round;stroke-linejoin:round;stroke-miterlimit:10;stroke-dasharray:none;stroke-opacity:1"
       transform="translate(0,-58.733392)"
       clip-path="url(#clipPath10)" />
    <path
       id="path11"
       d="M 359.04001,599.03998 321.28,655.67999"
       style="fill:none;stroke:#000000;stroke-width:26.4;stroke-linecap:round;stroke-linejoin:round;stroke-miterlimit:10;stroke-dasharray:none;stroke-opacity:1"
       transform="translate(0,-58.733392)"
       clip-path="url(#clipPath12)" />
    <path
       id="path13"
       d="M 0,0 0.16,3.52 0.64,7.04 1.44,10.4 2.56,13.76 4,16.959999 5.76,20 7.68,22.879999 9.92,25.6 l 2.56,2.4 2.72,2.24 2.88,1.92 3.040001,1.759998 3.199999,1.280003 3.36,1.119999 3.360001,0.799999 3.52,0.479999 3.520001,0.16 3.519996,-0.16 3.360001,-0.479999 L 48.32,36.32 51.68,35.200001 54.880001,33.759998 57.919998,32 60.799999,29.92 63.52,27.68 65.919998,25.280001 68.160004,22.559999 70.080002,19.52 l 1.759994,-3.04 1.280007,-3.2 1.119995,-3.36 0.800003,-3.36 0.479996,-3.52 V -0.48 L 75.360001,-4 74.879997,-7.36 73.919998,-10.72 72.800003,-14.08 71.360001,-17.280001 69.599998,-20.32 67.68,-23.200001 65.279999,-25.76 62.880001,-28.32 60.16,-30.4 57.119999,-32.32 54.080002,-34.080002 50.880001,-35.360001 47.52,-36.48 44.16,-37.279999"
       style="fill:none;stroke:#000000;stroke-width:26.4;stroke-linecap:round;stroke-linejoin:round;stroke-miterlimit:10;stroke-dasharray:none;stroke-opacity:1"
       transform="translate(283.51999,634.70661)"
       clip-path="url(#clipPath14)" />
  </g>
</svg>
