<?xml version="1.0" encoding="UTF-8" standalone="no"?>
<!-- Created with Inkscape (http://www.inkscape.org/) -->

<svg
   version="1.1"
   id="svg1"
   width="276.16"
   height="328.35999"
   viewBox="0 0 276.16 328.35999"
   sodipodi:docname="Fire13.pdf"
   xmlns:inkscape="http://www.inkscape.org/namespaces/inkscape"
   xmlns:sodipodi="http://sodipodi.sourceforge.net/DTD/sodipodi-0.dtd"
   xmlns="http://www.w3.org/2000/svg"
   xmlns:svg="http://www.w3.org/2000/svg">
  <defs
     id="defs1">
    <clipPath
       clipPathUnits="userSpaceOnUse"
       id="clipPath2">
      <path
         d="M 0,0.16 V 1122.5601 H 793.59998 V 0.16 Z"
         transform="translate(-511.67999,-627.84003)"
         clip-rule="evenodd"
         id="path2" />
    </clipPath>
    <clipPath
       clipPathUnits="userSpaceOnUse"
       id="clipPath4">
      <path
         d="M 0,0.16 V 1122.5601 H 793.59998 V 0.16 Z"
         transform="translate(-402.72,-555.52002)"
         clip-rule="evenodd"
         id="path4" />
    </clipPath>
    <clipPath
       clipPathUnits="userSpaceOnUse"
       id="clipPath6">
      <path
         d="M 0,0.16 V 1122.5601 H 793.59998 V 0.16 Z"
         transform="translate(-398.39999,-560)"
         clip-rule="evenodd"
         id="path6" />
    </clipPath>
  </defs>
  <sodipodi:namedview
     id="namedview1"
     pagecolor="#505050"
     bordercolor="#eeeeee"
     borderopacity="1"
     inkscape:showpageshadow="0"
     inkscape:pageopacity="0"
     inkscape:pagecheckerboard="0"
     inkscape:deskcolor="#505050">
    <inkscape:page
       x="0"
       y="0"
       inkscape:label="1"
       id="page1"
       width="276.16"
       height="328.35999"
       margin="0"
       bleed="0" />
  </sodipodi:namedview>
  <g
     id="g1"
     inkscape:groupmode="layer"
     inkscape:label="1">
    <path
       id="path1"
       d="m 0,0 c 0,-20.85 -16.9,-37.759998 -37.759998,-37.759998 -20.860001,0 -37.759999,16.909998 -37.759999,37.759998 0,20.85 16.899998,37.759998 37.759999,37.759998 C -16.9,37.759998 0,20.85 0,0 Z"
       style="fill:none;stroke:#000000;stroke-width:26.4;stroke-linecap:round;stroke-linejoin:round;stroke-miterlimit:10;stroke-dasharray:none;stroke-opacity:1"
       transform="translate(252.87999,232.74664)"
       clip-path="url(#clipPath2)" />
    <path
       id="path3"
       d="m 0,0 4.32,-3.2 4,-3.68 3.84,-3.84 3.36,-4.16 3.199999,-4.320001 L 21.6,-23.84 l 2.56,-4.799999 2.08,-4.959999 1.76,-5.120003 1.440001,-5.119999 1.119998,-5.279999 0.640002,-5.440002 L 31.52,-59.84 31.360001,-65.279999 30.879999,-70.720001 30.08,-76 l -1.280001,-5.279999 -1.599998,-5.120003 -1.92,-5.119995 L 22.879999,-96.32 20.16,-100.96 l -2.879999,-4.48 -3.360001,-4.32 -3.68,-4 -3.84,-3.84 -4.16,-3.36 -4.32,-3.2 -4.64,-2.88 -4.8,-2.4 -4.96,-2.23999 -5.12,-1.76001 -5.119999,-1.44 -5.440001,-0.96 -5.279999,-0.64 -5.440002,-0.32 -5.279999,0.16 -5.439998,0.48 -5.280003,0.8 -5.280003,1.28 -5.119995,1.6 -5.120003,2.08001 -4.799995,2.23999 -4.639999,2.72 -4.480004,3.04 -4.319999,3.36 -4,3.68 -3.680001,3.84 -3.52,4.16 -3.2,4.32 -2.72,4.639998 -2.56,4.800004 -2.08,4.959999 -1.76,5.120002 -1.44,5.279999 -0.96,5.279999 -0.64,5.279999 -0.32,5.439998 0.16,5.440003 0.48,5.279999 0.96,5.439998"
       style="fill:none;stroke:#000000;stroke-width:26.4;stroke-linecap:round;stroke-linejoin:round;stroke-miterlimit:10;stroke-dasharray:none;stroke-opacity:1"
       transform="translate(143.92,160.42663)"
       clip-path="url(#clipPath4)" />
    <path
       id="path5"
       d="m 0,0 -4.48,2.72 -4.32,3.2 -4.16,3.52 -3.839999,3.68 -3.520001,4.160001 -3.36,4.16 L -26.559999,25.92 -29.280001,30.719999 -31.52,35.52 l -2.079998,4.96 -1.600003,5.119998 -1.119999,5.280003 -0.799999,5.279999 -0.479999,5.439998 -0.16,5.440003 0.319999,5.279999 0.64,5.279998 1.119999,5.279999 1.439998,5.280007 1.760002,5.119995 2.24,4.800003 2.56,4.799998 2.720001,4.64 3.199999,4.32 3.52,4.16 3.68,3.84 4,3.52 4.32,3.36 4.48,3.03999 4.64,2.56002 4.8,2.39999 5.12,1.92 5.12,1.6 5.280001,1.28 5.279999,0.80001 5.279998,0.47999 h 5.440003 l 5.279999,-0.16 5.439998,-0.8 5.280003,-0.96 5.119999,-1.44 5.120002,-1.76001 4.96,-2.23999 4.799995,-2.40001 L 79.68,128.16 l 4.480004,-3.2 4,-3.36 4,-3.84 3.519996,-4 3.360001,-4.16 2.879999,-4.48 2.72,-4.64 2.4,-4.960003 1.92,-4.959999 1.6,-5.119996 1.28,-5.279998"
       style="fill:none;stroke:#000000;stroke-width:26.4;stroke-linecap:round;stroke-linejoin:round;stroke-miterlimit:10;stroke-dasharray:none;stroke-opacity:1"
       transform="translate(139.59999,164.90661)"
       clip-path="url(#clipPath6)" />
  </g>
</svg>
