<?xml version="1.0" encoding="UTF-8" standalone="no"?>
<!-- Created with Inkscape (http://www.inkscape.org/) -->

<svg
   version="1.1"
   id="svg1"
   width="280.16"
   height="332.35999"
   viewBox="0 0 280.16 332.35999"
   sodipodi:docname="FireBM4.pdf"
   xmlns:inkscape="http://www.inkscape.org/namespaces/inkscape"
   xmlns:sodipodi="http://sodipodi.sourceforge.net/DTD/sodipodi-0.dtd"
   xmlns="http://www.w3.org/2000/svg"
   xmlns:svg="http://www.w3.org/2000/svg">
  <defs
     id="defs1">
    <clipPath
       clipPathUnits="userSpaceOnUse"
       id="clipPath2">
      <path
         d="M 0,0.16 V 1122.5601 H 793.59998 V 0.16 Z"
         transform="translate(-453.44,-419.67999)"
         clip-rule="evenodd"
         id="path2" />
    </clipPath>
    <clipPath
       clipPathUnits="userSpaceOnUse"
       id="clipPath4">
      <path
         d="M 0,0.16 V 1122.5601 H 793.59998 V 0.16 Z"
         clip-rule="evenodd"
         id="path4" />
    </clipPath>
    <clipPath
       clipPathUnits="userSpaceOnUse"
       id="clipPath6">
      <path
         d="M 0,0.16 V 1122.5601 H 793.59998 V 0.16 Z"
         clip-rule="evenodd"
         id="path6" />
    </clipPath>
    <clipPath
       clipPathUnits="userSpaceOnUse"
       id="clipPath8">
      <path
         d="M 0,0.16 V 1122.5601 H 793.59998 V 0.16 Z"
         clip-rule="evenodd"
         id="path8" />
    </clipPath>
    <clipPath
       clipPathUnits="userSpaceOnUse"
       id="clipPath10">
      <path
         d="M 0,0.16 V 1122.5601 H 793.59998 V 0.16 Z"
         transform="translate(-343.51999,-673.11999)"
         clip-rule="evenodd"
         id="path10" />
    </clipPath>
    <clipPath
       clipPathUnits="userSpaceOnUse"
       id="clipPath12">
      <path
         d="M 0,0.16 V 1122.5601 H 793.59998 V 0.16 Z"
         clip-rule="evenodd"
         id="path12" />
    </clipPath>
    <clipPath
       clipPathUnits="userSpaceOnUse"
       id="clipPath14">
      <path
         d="M 0,0.16 V 1122.5601 H 793.59998 V 0.16 Z"
         transform="translate(-376.48001,-665.11999)"
         clip-rule="evenodd"
         id="path14" />
    </clipPath>
  </defs>
  <sodipodi:namedview
     id="namedview1"
     pagecolor="#505050"
     bordercolor="#eeeeee"
     borderopacity="1"
     inkscape:showpageshadow="0"
     inkscape:pageopacity="0"
     inkscape:pagecheckerboard="0"
     inkscape:deskcolor="#505050">
    <inkscape:page
       x="0"
       y="0"
       inkscape:label="1"
       id="page1"
       width="280.16"
       height="332.35999"
       margin="0"
       bleed="0" />
  </sodipodi:namedview>
  <g
     id="g1"
     inkscape:groupmode="layer"
     inkscape:label="1">
    <path
       id="path1"
       d="m 0,0 -6.72,0.16 -6.88,0.64 -6.72,1.12 -6.720001,1.44 -6.559997,1.76 -6.560002,2.24 -6.240002,2.72 -6.239997,2.88 -5.920002,3.36 -5.759999,3.84 -5.440002,4 -5.279999,4.32 L -80,33.279999 l -4.800003,4.960003 -4.32,5.279998 -4,5.439999 -3.839996,5.760002 -3.360001,5.919998 -2.88,6.239998 -2.72,6.240006 -2.24,6.559997 -1.76,6.559998 -1.44,6.720001 -1.12,6.720001 -0.48,6.72 -0.32,6.88"
       style="fill:none;stroke:#000000;stroke-width:26.4;stroke-linecap:round;stroke-linejoin:round;stroke-miterlimit:10;stroke-dasharray:none;stroke-opacity:1"
       transform="translate(194.64,28.586601)"
       clip-path="url(#clipPath2)" />
    <path
       id="path3"
       d="M 340.16,532.96002 H 283.51999"
       style="fill:none;stroke:#000000;stroke-width:26.4;stroke-linecap:round;stroke-linejoin:round;stroke-miterlimit:10;stroke-dasharray:none;stroke-opacity:1"
       transform="translate(-258.8,-391.09339)"
       clip-path="url(#clipPath4)" />
    <path
       id="path5"
       d="M 453.44,419.67999 V 532.96002"
       style="fill:none;stroke:#000000;stroke-width:26.4;stroke-linecap:round;stroke-linejoin:round;stroke-miterlimit:10;stroke-dasharray:none;stroke-opacity:1"
       transform="translate(-258.8,-391.09339)"
       clip-path="url(#clipPath6)" />
    <path
       id="path7"
       d="m 453.44,532.96002 h 56.63999"
       style="fill:none;stroke:#000000;stroke-width:26.4;stroke-linecap:round;stroke-linejoin:round;stroke-miterlimit:10;stroke-dasharray:none;stroke-opacity:1"
       transform="translate(-258.8,-391.09339)"
       clip-path="url(#clipPath8)" />
    <path
       id="path9"
       d="m 0,0 2.24,3.68 2.56,3.68 2.88,3.52 3.04,3.2 3.36,2.879999 3.52,2.720001 3.680001,2.4 4,2.08 4,1.76 4.319997,1.440001 4.16,1.119999 4.480004,0.800001 4.319999,0.319999 4.48,0.16 L 55.52,29.440001 59.84,28.959999 64.160004,28 l 4.319999,-1.280001 4.159996,-1.599998 4,-1.92 3.840004,-2.240002 L 84,18.4 87.519997,15.52 90.720001,12.48 93.599998,9.12 96.32,5.6 98.720001,1.92 100.8,-1.92 l 1.76,-4.16 1.6,-4.16 1.12,-4.32 0.8,-4.319999 0.48,-4.480002 V -27.68 l -0.16,-4.48 -0.64,-4.479999 -0.96,-4.32 -1.28,-4.16 -1.6,-4.16 -1.92,-4 -2.239998,-3.84 -2.400001,-3.68 -2.879998,-3.520001 -3.040001,-3.199997 -3.36,-2.880005 -3.520004,-2.720001 -3.680001,-2.399994 -3.839996,-2.080001 -4,-1.919999 -4.32,-1.440002 -4.16,-1.120003 -4.479999,-0.799995 -4.320004,-0.480004 -4.479999,-0.159996 -4.48,0.32 -4.319999,0.479996 -4.32,0.959999 -4.32,1.279999 -4.16,1.600006 -4,1.759994 -3.84,2.240006 -3.68,2.559997"
       style="fill:none;stroke:#000000;stroke-width:26.4;stroke-linecap:round;stroke-linejoin:round;stroke-miterlimit:10;stroke-dasharray:none;stroke-opacity:1"
       transform="translate(84.719989,282.0266)"
       clip-path="url(#clipPath10)" />
    <path
       id="path11"
       d="M 359.67999,600.79999 340.16,570.71997"
       style="fill:none;stroke:#000000;stroke-width:26.4;stroke-linecap:round;stroke-linejoin:round;stroke-miterlimit:10;stroke-dasharray:none;stroke-opacity:1"
       transform="translate(-258.8,-391.09339)"
       clip-path="url(#clipPath12)" />
    <path
       id="path13"
       d="m 0,0 -0.16,-2.08 -0.32,-2.08 -0.64,-2.08 -0.96,-1.92 -1.12,-1.92 -1.28,-1.6 -1.6,-1.44 -1.6,-1.28 -1.92,-1.12 -1.92,-0.8 -2.08,-0.639999 -2.08,-0.320002 -2.08,-0.16 -2.08,0.16 -2.08,0.480002 -2.08,0.639999 -1.92,0.96 -1.76,1.12 -1.600001,1.44 -1.599998,1.6 L -32,-9.28 l -1.119999,1.76 -0.799999,2.08 -0.480004,1.92 -0.319999,2.24 V 0.8 l 0.16,2.08 0.479999,2.08 0.800003,2.08"
       style="fill:none;stroke:#000000;stroke-width:26.4;stroke-linecap:round;stroke-linejoin:round;stroke-miterlimit:10;stroke-dasharray:none;stroke-opacity:1"
       transform="translate(117.68001,274.0266)"
       clip-path="url(#clipPath14)" />
  </g>
</svg>
