<?xml version="1.0" encoding="UTF-8" standalone="no"?>
<!-- Created with Inkscape (http://www.inkscape.org/) -->

<svg
   version="1.1"
   id="svg1"
   width="282.82666"
   height="273.62668"
   viewBox="0 0 282.82666 273.62668"
   sodipodi:docname="Fire14.pdf"
   xmlns:inkscape="http://www.inkscape.org/namespaces/inkscape"
   xmlns:sodipodi="http://sodipodi.sourceforge.net/DTD/sodipodi-0.dtd"
   xmlns="http://www.w3.org/2000/svg"
   xmlns:svg="http://www.w3.org/2000/svg">
  <defs
     id="defs1">
    <clipPath
       clipPathUnits="userSpaceOnUse"
       id="clipPath2">
      <path
         d="M 0,0.16 V 1122.5601 H 793.59998 V 0.16 Z"
         transform="translate(-472.32001,-561.28003)"
         clip-rule="evenodd"
         id="path2" />
    </clipPath>
    <clipPath
       clipPathUnits="userSpaceOnUse"
       id="clipPath4">
      <path
         d="M 0,0.16 V 1122.5601 H 793.59998 V 0.16 Z"
         transform="translate(3.3333334e-6)"
         clip-rule="evenodd"
         id="path4" />
    </clipPath>
    <clipPath
       clipPathUnits="userSpaceOnUse"
       id="clipPath6">
      <path
         d="M 0,0.16 V 1122.5601 H 793.59998 V 0.16 Z"
         transform="translate(-510.07999,-448)"
         clip-rule="evenodd"
         id="path6" />
    </clipPath>
    <clipPath
       clipPathUnits="userSpaceOnUse"
       id="clipPath8">
      <path
         d="M 0,0.16 V 1122.5601 H 793.59998 V 0.16 Z"
         transform="translate(-510.07999,-542.40003)"
         clip-rule="evenodd"
         id="path8" />
    </clipPath>
    <clipPath
       clipPathUnits="userSpaceOnUse"
       id="clipPath10">
      <path
         d="M 0,0.16 V 1122.5601 H 793.59998 V 0.16 Z"
         transform="translate(-510.07999,-542.40003)"
         clip-rule="evenodd"
         id="path10" />
    </clipPath>
  </defs>
  <sodipodi:namedview
     id="namedview1"
     pagecolor="#505050"
     bordercolor="#eeeeee"
     borderopacity="1"
     inkscape:showpageshadow="0"
     inkscape:pageopacity="0"
     inkscape:pagecheckerboard="0"
     inkscape:deskcolor="#505050">
    <inkscape:page
       x="0"
       y="0"
       inkscape:label="1"
       id="page1"
       width="282.82666"
       height="273.62668"
       margin="0"
       bleed="0" />
  </sodipodi:namedview>
  <g
     id="g1"
     inkscape:groupmode="layer"
     inkscape:label="1">
    <path
       id="path1"
       d="m 0,0 c 0,-62.560001 -33.810001,-113.28 -75.519997,-113.28 -41.710003,0 -75.519993,50.719999 -75.519993,113.28 0,62.560001 33.80999,113.28 75.519993,113.28 C -33.810001,113.28 0,62.560001 0,0 Z"
       style="fill:none;stroke:#000000;stroke-width:26.4;stroke-linecap:round;stroke-linejoin:round;stroke-miterlimit:10;stroke-dasharray:none;stroke-opacity:1"
       transform="translate(214.85334,139.47997)"
       clip-path="url(#clipPath2)" />
    <path
       id="path3"
       d="M 283.51999,674.56 510.07999,448"
       style="fill:none;stroke:#000000;stroke-width:26.4;stroke-linecap:round;stroke-linejoin:round;stroke-miterlimit:10;stroke-dasharray:none;stroke-opacity:1"
       transform="translate(-257.46667,-421.80006)"
       clip-path="url(#clipPath4)" />
    <path
       id="path5"
       d="m 0,0 -2.4,3.04 -2.24,3.2 -1.92,3.36 -1.6,3.52 -1.28,3.679999 -0.96,3.84 -0.48,3.840001 -0.32,3.84 0.32,3.84 0.48,4 0.96,3.68 1.28,3.68 1.6,3.520001 1.92,3.52 2.24,3.199997 2.4,2.880001"
       style="fill:none;stroke:#000000;stroke-width:26.4;stroke-linecap:round;stroke-linejoin:round;stroke-miterlimit:10;stroke-dasharray:none;stroke-opacity:1"
       transform="translate(252.61332,26.199941)"
       clip-path="url(#clipPath6)" />
    <path
       id="path7"
       d="m 0,0 -1.92,1.6 -1.92,1.92 -1.6,1.92 -1.44,2.24 -1.12,2.4 -0.8,2.4 -0.64,2.56 -0.16,2.56 v 2.56 l 0.16,2.559999 0.64,2.560002 0.8,2.399999 1.12,2.4 1.44,2.24 1.6,2.080002 L -1.92,36.16 0,37.759998"
       style="fill:none;stroke:#000000;stroke-width:26.4;stroke-linecap:round;stroke-linejoin:round;stroke-miterlimit:10;stroke-dasharray:none;stroke-opacity:1"
       transform="translate(252.61332,120.59997)"
       clip-path="url(#clipPath8)" />
    <path
       id="path9"
       d="m 0,0 2.08,-1.6 1.76,-1.92 1.6,-1.92 1.44,-2.24 1.12,-2.4 0.8,-2.4 0.64,-2.56 0.32,-2.56 v -2.56 L 9.44,-22.719999 8.8,-25.280001 8,-27.68 6.88,-30.08 5.44,-32.32 3.84,-34.240002 2.08,-36.16 0,-37.759998"
       style="fill:none;stroke:#000000;stroke-width:26.4;stroke-linecap:round;stroke-linejoin:round;stroke-miterlimit:10;stroke-dasharray:none;stroke-opacity:1"
       transform="translate(252.61332,120.59997)"
       clip-path="url(#clipPath10)" />
  </g>
</svg>
