<?xml version="1.0" encoding="UTF-8" standalone="no"?>
<!-- Created with Inkscape (http://www.inkscape.org/) -->

<svg
   version="1.1"
   id="svg1"
   width="370.86667"
   height="292.32001"
   viewBox="0 0 370.86667 292.32001"
   sodipodi:docname="Fire12.pdf"
   xmlns:inkscape="http://www.inkscape.org/namespaces/inkscape"
   xmlns:sodipodi="http://sodipodi.sourceforge.net/DTD/sodipodi-0.dtd"
   xmlns="http://www.w3.org/2000/svg"
   xmlns:svg="http://www.w3.org/2000/svg">
  <defs
     id="defs1">
    <clipPath
       clipPathUnits="userSpaceOnUse"
       id="clipPath2">
      <path
         d="M 0,0.16 V 1122.5601 H 793.59998 V 0.16 Z"
         transform="translate(3.3333333e-6)"
         clip-rule="evenodd"
         id="path2" />
    </clipPath>
    <clipPath
       clipPathUnits="userSpaceOnUse"
       id="clipPath4">
      <path
         d="M 0,0.16 V 1122.5601 H 793.59998 V 0.16 Z"
         transform="translate(3.3333333e-6)"
         clip-rule="evenodd"
         id="path4" />
    </clipPath>
    <clipPath
       clipPathUnits="userSpaceOnUse"
       id="clipPath6">
      <path
         d="M 0,0.16 V 1122.5601 H 793.59998 V 0.16 Z"
         transform="translate(3.3333333e-6)"
         clip-rule="evenodd"
         id="path6" />
    </clipPath>
    <clipPath
       clipPathUnits="userSpaceOnUse"
       id="clipPath8">
      <path
         d="M 0,0.16 V 1122.5601 H 793.59998 V 0.16 Z"
         transform="translate(-264.64001,-466.88)"
         clip-rule="evenodd"
         id="path8" />
    </clipPath>
    <clipPath
       clipPathUnits="userSpaceOnUse"
       id="clipPath10">
      <path
         d="M 0,0.16 V 1122.5601 H 793.59998 V 0.16 Z"
         transform="translate(-264.64001,-391.35998)"
         clip-rule="evenodd"
         id="path10" />
    </clipPath>
    <clipPath
       clipPathUnits="userSpaceOnUse"
       id="clipPath12">
      <path
         d="M 0,0.16 V 1122.5601 H 793.59998 V 0.16 Z"
         transform="translate(-510.07999,-542.40002)"
         clip-rule="evenodd"
         id="path12" />
    </clipPath>
    <clipPath
       clipPathUnits="userSpaceOnUse"
       id="clipPath14">
      <path
         d="M 0,0.16 V 1122.5601 H 793.59998 V 0.16 Z"
         transform="translate(-510.07999,-466.88)"
         clip-rule="evenodd"
         id="path14" />
    </clipPath>
  </defs>
  <sodipodi:namedview
     id="namedview1"
     pagecolor="#505050"
     bordercolor="#eeeeee"
     borderopacity="1"
     inkscape:showpageshadow="0"
     inkscape:pageopacity="0"
     inkscape:pagecheckerboard="0"
     inkscape:deskcolor="#505050">
    <inkscape:page
       x="0"
       y="0"
       inkscape:label="1"
       id="page1"
       width="370.86667"
       height="292.32001"
       margin="0"
       bleed="0" />
  </sodipodi:namedview>
  <g
     id="g1"
     inkscape:groupmode="layer"
     inkscape:label="1">
    <path
       id="path1"
       d="m 396.79999,410.23999 -130.72,226.56 h 261.6 l -130.88,-226.56"
       style="fill:none;stroke:#000000;stroke-width:26.4;stroke-linecap:round;stroke-linejoin:round;stroke-miterlimit:10;stroke-dasharray:none;stroke-opacity:1"
       transform="translate(-204.10667,-365.73339)"
       clip-path="url(#clipPath2)" />
    <path
       id="path3"
       d="m 396.79999,542.40002 v 37.75995"
       style="fill:none;stroke:#000000;stroke-width:26.4;stroke-linecap:round;stroke-linejoin:round;stroke-miterlimit:10;stroke-dasharray:none;stroke-opacity:1"
       transform="translate(-204.10667,-365.73339)"
       clip-path="url(#clipPath4)" />
    <path
       id="path5"
       d="M 264.64001,542.40002 H 510.07999"
       style="fill:none;stroke:#000000;stroke-width:26.4;stroke-linecap:round;stroke-linejoin:round;stroke-miterlimit:10;stroke-dasharray:none;stroke-opacity:1"
       transform="translate(-204.10667,-365.73339)"
       clip-path="url(#clipPath6)" />
    <path
       id="path7"
       d="M 0,0 -3.36,0.16 -6.88,0.64 -10.24,1.44 -13.6,2.56 -16.799999,4 -19.84,5.76 l -2.879999,1.92 -2.720002,2.24 -2.399999,2.4 -2.24,2.72 -1.92,2.88 -1.759998,3.039999 -1.440003,3.200001 -1.119999,3.36 -0.799999,3.359999 -0.479999,3.360003 -0.16,3.519996 0.16,3.520001 0.479999,3.52 L -36.32,48.16 l 1.119999,3.200001 1.440003,3.2 L -32,57.599998 -30.08,60.48 l 2.24,2.720001 2.399999,2.560001 2.720002,2.079994 2.879999,2.080002 3.040001,1.599999 3.199999,1.440002 3.36,1.120003 3.36,0.799995 3.52,0.480004 3.36,0.159996"
       style="fill:none;stroke:#000000;stroke-width:26.4;stroke-linecap:round;stroke-linejoin:round;stroke-miterlimit:10;stroke-dasharray:none;stroke-opacity:1"
       transform="translate(60.533348,101.14661)"
       clip-path="url(#clipPath8)" />
    <path
       id="path9"
       d="M 0,0 -3.36,0.16 -6.88,0.64 -10.24,1.44 -13.6,2.56 -16.799999,4 -19.84,5.76 l -2.879999,1.92 -2.720002,2.24 -2.399999,2.4 -2.24,2.72 -1.92,2.88 -1.759998,3.039999 -1.440003,3.200001 -1.119999,3.36 -0.799999,3.359999 -0.479999,3.360003 -0.16,3.519996 0.16,3.520001 0.479999,3.52 L -36.32,48.16 l 1.119999,3.200001 1.440003,3.2 L -32,57.599998 -30.08,60.48 l 2.24,2.720001 2.399999,2.560001 L -22.719999,68 -19.84,69.919998 l 3.040001,1.599999 3.199999,1.440002 3.36,1.120003 3.36,0.799995 3.52,0.480004 3.36,0.159996"
       style="fill:none;stroke:#000000;stroke-width:26.4;stroke-linecap:round;stroke-linejoin:round;stroke-miterlimit:10;stroke-dasharray:none;stroke-opacity:1"
       transform="translate(60.533348,25.626593)"
       clip-path="url(#clipPath10)" />
    <path
       id="path11"
       d="M 0,0 3.52,-0.16 7.04,-0.64 10.4,-1.44 13.76,-2.56 16.959999,-4 20,-5.6 22.879999,-7.68 25.6,-9.92 l 2.4,-2.4 2.24,-2.72 1.92,-2.88 1.759998,-3.039999 1.440003,-3.200001 0.959999,-3.36 0.799999,-3.359999 0.479999,-3.520003 0.16,-3.519996 -0.16,-3.520001 -0.479999,-3.36 L 36.32,-48.16 35.200001,-51.52 33.759998,-54.720001 32,-57.759998 30.08,-60.639999 27.84,-63.360001 25.280001,-65.760002 22.559999,-68 19.68,-69.919998 16.639999,-71.68 13.44,-72.959999 10.08,-74.080002 6.72,-74.879997 3.2,-75.360001 -0.16,-75.519997"
       style="fill:none;stroke:#000000;stroke-width:26.4;stroke-linecap:round;stroke-linejoin:round;stroke-miterlimit:10;stroke-dasharray:none;stroke-opacity:1"
       transform="translate(305.97332,176.66663)"
       clip-path="url(#clipPath12)" />
    <path
       id="path13"
       d="M 0,0 3.52,-0.16 7.04,-0.64 10.4,-1.44 13.76,-2.56 16.799999,-4 19.84,-5.6 22.719999,-7.52 25.440001,-9.76 28,-12.32 l 2.24,-2.72 1.92,-2.88 1.759998,-3.039999 1.280003,-3.200001 1.119999,-3.200001 0.799999,-3.359998 0.479999,-3.520003 0.16,-3.519996 -0.16,-3.520001 -0.479999,-3.36 L 36.32,-48 l -1.119999,-3.360001 -1.280003,-3.2 L 32.16,-57.599998 30.24,-60.48 28,-63.200001 25.440001,-65.599998 22.719999,-67.839996 19.84,-69.760002 16.799999,-71.519997 13.76,-72.959999 10.4,-74.080002 7.04,-74.879997 3.52,-75.360001 0,-75.519997"
       style="fill:none;stroke:#000000;stroke-width:26.4;stroke-linecap:round;stroke-linejoin:round;stroke-miterlimit:10;stroke-dasharray:none;stroke-opacity:1"
       transform="translate(305.97332,101.14661)"
       clip-path="url(#clipPath14)" />
  </g>
</svg>
