<?xml version="1.0" encoding="UTF-8" standalone="no"?>
<!-- Created with Inkscape (http://www.inkscape.org/) -->

<svg
   version="1.1"
   id="svg1"
   width="274.81332"
   height="186.86667"
   viewBox="0 0 274.81332 186.86667"
   sodipodi:docname="FireCineris2.pdf"
   xmlns:inkscape="http://www.inkscape.org/namespaces/inkscape"
   xmlns:sodipodi="http://sodipodi.sourceforge.net/DTD/sodipodi-0.dtd"
   xmlns="http://www.w3.org/2000/svg"
   xmlns:svg="http://www.w3.org/2000/svg">
  <defs
     id="defs1">
    <clipPath
       clipPathUnits="userSpaceOnUse"
       id="clipPath2">
      <path
         d="M 0,0.16 V 1122.5601 H 793.59998 V 0.16 Z"
         transform="translate(-453.44,-561.28003)"
         clip-rule="evenodd"
         id="path2" />
    </clipPath>
    <clipPath
       clipPathUnits="userSpaceOnUse"
       id="clipPath4">
      <path
         d="M 0,0.16 V 1122.5601 H 793.59998 V 0.16 Z"
         clip-rule="evenodd"
         id="path4" />
    </clipPath>
    <clipPath
       clipPathUnits="userSpaceOnUse"
       id="clipPath6">
      <path
         d="M 0,0.16 V 1122.5601 H 793.59998 V 0.16 Z"
         clip-rule="evenodd"
         id="path6" />
    </clipPath>
    <clipPath
       clipPathUnits="userSpaceOnUse"
       id="clipPath8">
      <path
         d="M 0,0.16 V 1122.5601 H 793.59998 V 0.16 Z"
         transform="translate(-396.79999,-606.56)"
         clip-rule="evenodd"
         id="path8" />
    </clipPath>
    <clipPath
       clipPathUnits="userSpaceOnUse"
       id="clipPath10">
      <path
         d="M 0,0.16 V 1122.5601 H 793.59998 V 0.16 Z"
         transform="translate(-434.56,-606.56)"
         clip-rule="evenodd"
         id="path10" />
    </clipPath>
    <clipPath
       clipPathUnits="userSpaceOnUse"
       id="clipPath12">
      <path
         d="M 0,0.16 V 1122.5601 H 793.59998 V 0.16 Z"
         transform="translate(-359.04001,-606.56)"
         clip-rule="evenodd"
         id="path12" />
    </clipPath>
    <clipPath
       clipPathUnits="userSpaceOnUse"
       id="clipPath14">
      <path
         d="M 0,0.16 V 1122.5601 H 793.59998 V 0.16 Z"
         transform="translate(-396.79999,-651.84003)"
         clip-rule="evenodd"
         id="path14" />
    </clipPath>
  </defs>
  <sodipodi:namedview
     id="namedview1"
     pagecolor="#505050"
     bordercolor="#eeeeee"
     borderopacity="1"
     inkscape:showpageshadow="0"
     inkscape:pageopacity="0"
     inkscape:pagecheckerboard="0"
     inkscape:deskcolor="#505050">
    <inkscape:page
       x="0"
       y="0"
       inkscape:label="1"
       id="page1"
       width="274.81332"
       height="186.86667"
       margin="0"
       bleed="0" />
  </sodipodi:namedview>
  <g
     id="g1"
     inkscape:groupmode="layer"
     inkscape:label="1">
    <path
       id="path1"
       d="m 0,0 -0.16,-4.48 -0.48,-4.32 -0.8,-4.48 -1.28,-4.160001 -1.6,-4.159999 -1.76,-4.16 -2.24,-3.84 -2.4,-3.679999 -2.88,-3.52 L -16.48,-40 l -3.36,-3.040001 -3.520001,-2.719997 -3.68,-2.560002 -3.839998,-2.080002 -4.000002,-1.919998 -4.16,-1.599998 -4.32,-1.120003 L -47.68,-55.84 l -4.48,-0.64 -4.479999,-0.159999 -4.32,0.159999 -4.480003,0.64 -4.32,0.799999 -4.32,1.120003 -4.159996,1.599998 -4,1.919998 -4,2.080002 -3.68,2.560002 -3.520004,2.719997 L -96.639999,-40 -99.68,-36.799999 l -2.72,3.52 -2.56,3.679999 -2.08,3.84 -1.92,4.16 -1.44,4.159999 -1.28,4.160001 -0.8,4.48 -0.64,4.32 -0.16,4.48"
       style="fill:none;stroke:#000000;stroke-width:26.4;stroke-linecap:round;stroke-linejoin:round;stroke-miterlimit:10;stroke-dasharray:none;stroke-opacity:1"
       transform="translate(191.96,75.413304)"
       clip-path="url(#clipPath2)" />
    <path
       id="path3"
       d="M 340.16,561.28003 H 283.51999"
       style="fill:none;stroke:#000000;stroke-width:26.4;stroke-linecap:round;stroke-linejoin:round;stroke-miterlimit:10;stroke-dasharray:none;stroke-opacity:1"
       transform="translate(-261.48,-485.86673)"
       clip-path="url(#clipPath4)" />
    <path
       id="path5"
       d="m 453.44,561.28003 h 56.63999"
       style="fill:none;stroke:#000000;stroke-width:26.4;stroke-linecap:round;stroke-linejoin:round;stroke-miterlimit:10;stroke-dasharray:none;stroke-opacity:1"
       transform="translate(-261.48,-485.86673)"
       clip-path="url(#clipPath6)" />
    <path
       id="path7"
       d="m 0,0 v -2.4 l -0.48,-2.56 -0.48,-2.4 -0.8,-2.24 -0.96,-2.24 -1.28,-2.08 -1.28,-1.92 -1.6,-1.600001 -1.76,-1.6 -1.76,-1.119999 -1.92,-1.120001 -1.92,-0.639999 -2.08,-0.48 -2.08,-0.159999 h -2.08 l -2.079999,0.479999 -2.08,0.639999 -1.92,0.800002 L -28.48,-19.52 l -1.76,1.44 -1.6,1.6 -1.439999,1.92 -1.120003,1.92 -1.119998,2.08 -0.96,2.4 -0.639999,2.4 -0.32,2.4 -0.319999,2.4"
       style="fill:none;stroke:#000000;stroke-width:26.4;stroke-linecap:round;stroke-linejoin:round;stroke-miterlimit:10;stroke-dasharray:none;stroke-opacity:1"
       transform="translate(135.31999,120.69327)"
       clip-path="url(#clipPath8)" />
    <path
       id="path9"
       d="m 0,0 v -2.56 l -0.48,-2.4 -0.48,-2.4 -0.8,-2.4 L -2.88,-12 -4,-14.08 -5.44,-16 l -1.6,-1.6 -1.76,-1.600001 -1.76,-1.119999 -2.08,-0.960001 -1.92,-0.799999 -2.079999,-0.32 -2.24,-0.159999 -2.08,0.159999 -2.080002,0.32 -2.08,0.799999 -1.92,0.960001 -1.759998,1.119999 -1.76,1.600001 -1.600001,1.6 -1.439998,1.92 -1.280003,2.08 -0.959999,2.24 -0.799999,2.4 -0.64,2.4 -0.319999,2.4 -0.16,2.56"
       style="fill:none;stroke:#000000;stroke-width:26.4;stroke-linecap:round;stroke-linejoin:round;stroke-miterlimit:10;stroke-dasharray:none;stroke-opacity:1"
       transform="translate(173.08,120.69327)"
       clip-path="url(#clipPath10)" />
    <path
       id="path11"
       d="m 0,0 1.28,4.64 1.44,4.32 1.76,4.32 2.08,4.160001 2.24,3.84 2.56,3.84 2.72,3.519998 L 16.959999,31.84 20,34.880001 23.360001,37.599998 26.719999,40 30.4,42.080002 34.080002,43.84 l 3.679996,1.439999"
       style="fill:none;stroke:#000000;stroke-width:26.4;stroke-linecap:round;stroke-linejoin:round;stroke-miterlimit:10;stroke-dasharray:none;stroke-opacity:1"
       transform="translate(97.560009,120.69327)"
       clip-path="url(#clipPath12)" />
    <path
       id="path13"
       d="m 0,0 3.84,-1.28 3.68,-1.76 3.68,-2.24 3.36,-2.4 3.36,-2.56 3.039999,-3.04 L 24,-16.639999 26.719999,-20 l 2.400002,-3.84 2.24,-4 2.079998,-4 1.760002,-4.32 1.439998,-4.479999 1.119999,-4.64"
       style="fill:none;stroke:#000000;stroke-width:26.4;stroke-linecap:round;stroke-linejoin:round;stroke-miterlimit:10;stroke-dasharray:none;stroke-opacity:1"
       transform="translate(135.31999,165.9733)"
       clip-path="url(#clipPath14)" />
  </g>
</svg>
