<?xml version="1.0" encoding="UTF-8" standalone="no"?>
<!-- Created with Inkscape (http://www.inkscape.org/) -->

<svg
   version="1.1"
   id="svg1"
   width="273.48001"
   height="329.69333"
   viewBox="0 0 273.48001 329.69333"
   sodipodi:docname="FountainWater.pdf"
   xmlns:inkscape="http://www.inkscape.org/namespaces/inkscape"
   xmlns:sodipodi="http://sodipodi.sourceforge.net/DTD/sodipodi-0.dtd"
   xmlns="http://www.w3.org/2000/svg"
   xmlns:svg="http://www.w3.org/2000/svg">
  <defs
     id="defs1">
    <clipPath
       clipPathUnits="userSpaceOnUse"
       id="clipPath2">
      <path
         d="M 26.4,26.559999 V 1096.16 H 767.03998 V 26.559999 Z"
         transform="translate(-396.79999,-646.23999)"
         clip-rule="evenodd"
         id="path2" />
    </clipPath>
    <clipPath
       clipPathUnits="userSpaceOnUse"
       id="clipPath4">
      <path
         d="M 26.4,26.559999 V 1096.16 H 767.03998 V 26.559999 Z"
         transform="translate(-499.04001,-425.60001)"
         clip-rule="evenodd"
         id="path4" />
    </clipPath>
    <clipPath
       clipPathUnits="userSpaceOnUse"
       id="clipPath6">
      <path
         d="M 26.4,26.559999 V 1096.16 H 767.03998 V 26.559999 Z"
         transform="translate(-481.76001,-532.96002)"
         clip-rule="evenodd"
         id="path6" />
    </clipPath>
    <clipPath
       clipPathUnits="userSpaceOnUse"
       id="clipPath8">
      <path
         d="M 26.4,26.559999 V 1096.16 H 767.03998 V 26.559999 Z"
         transform="translate(-481.76001,-532.96002)"
         clip-rule="evenodd"
         id="path8" />
    </clipPath>
    <clipPath
       clipPathUnits="userSpaceOnUse"
       id="clipPath10">
      <path
         d="M 26.4,26.559999 V 1096.16 H 767.03998 V 26.559999 Z"
         transform="translate(3.3333334e-6)"
         clip-rule="evenodd"
         id="path10" />
    </clipPath>
    <clipPath
       clipPathUnits="userSpaceOnUse"
       id="clipPath12">
      <path
         d="M 26.4,26.559999 V 1096.16 H 767.03998 V 26.559999 Z"
         transform="translate(3.3333334e-6)"
         clip-rule="evenodd"
         id="path12" />
    </clipPath>
  </defs>
  <sodipodi:namedview
     id="namedview1"
     pagecolor="#505050"
     bordercolor="#eeeeee"
     borderopacity="1"
     inkscape:showpageshadow="0"
     inkscape:pageopacity="0"
     inkscape:pagecheckerboard="0"
     inkscape:deskcolor="#505050">
    <inkscape:page
       x="0"
       y="0"
       inkscape:label="1"
       id="page1"
       width="273.48001"
       height="329.69333"
       margin="0"
       bleed="0" />
  </sodipodi:namedview>
  <g
     id="g1"
     inkscape:groupmode="layer"
     inkscape:label="1">
    <path
       id="path1"
       d="M 0,0 C 0,-31.280001 -25.35,-56.639999 -56.639999,-56.639999 -87.93,-56.639999 -113.28,-31.280001 -113.28,0 c 0,31.280001 25.35,56.639999 56.640001,56.639999 C -25.35,56.639999 0,31.280001 0,0 Z"
       style="fill:none;stroke:#000000;stroke-width:26.4;stroke-linecap:round;stroke-linejoin:round;stroke-miterlimit:10;stroke-dasharray:none;stroke-opacity:1"
       transform="translate(139.33332,252.47993)"
       clip-path="url(#clipPath2)" />
    <path
       id="path3"
       d="m 0,0 -2.4,-1.6 -2.72,-1.44 -2.72,-1.12 -2.88,-0.96 -2.88,-0.48 -3.039999,-0.16 H -19.68 l -2.879999,0.48 -2.880002,0.64 -2.879999,0.96 -2.720001,1.44 -2.399998,1.44 L -35.84,1.12 -38.080002,3.2 -40,5.44 -41.599998,8 l -1.440003,2.56 -1.119999,2.72 -0.799999,2.88 -0.48,3.040001 -0.159999,2.879999 0.159999,3.040001 0.32,3.039999 0.799999,2.880001 1.119999,2.719997 1.280003,2.720002 1.599998,2.560001 1.919998,2.239998 2.080002,2.080002 2.239998,1.919998 2.560002,1.600002 2.560001,1.439999 2.879999,1.119999 2.879999,0.800003 2.880001,0.479999 3.039999,0.16"
       style="fill:none;stroke:#000000;stroke-width:26.4;stroke-linecap:round;stroke-linejoin:round;stroke-miterlimit:10;stroke-dasharray:none;stroke-opacity:1"
       transform="translate(241.57334,31.839947)"
       clip-path="url(#clipPath4)" />
    <path
       id="path5"
       d="m 0,0 h 2.88 l 3.04,-0.48 2.88,-0.8 2.72,-1.12 2.56,-1.28 2.559999,-1.6 2.24,-1.92 2.08,-2.08 1.92,-2.24 L 24.48,-14.08 25.92,-16.799999 26.879999,-19.52 27.68,-22.4 28.16,-25.280001 28.32,-28.16 28.16,-31.200001 27.68,-34.080002 26.879999,-36.959999 25.92,-39.68 l -1.44,-2.720002 -1.600001,-2.559997 -1.92,-2.240002 -2.08,-2.079998 -2.24,-1.920002 L 14.08,-52.799999 11.52,-54.080002 8.8,-55.200001 5.92,-56 2.88,-56.48 H 0"
       style="fill:none;stroke:#000000;stroke-width:26.4;stroke-linecap:round;stroke-linejoin:round;stroke-miterlimit:10;stroke-dasharray:none;stroke-opacity:1"
       transform="translate(224.29334,139.19996)"
       clip-path="url(#clipPath6)" />
    <path
       id="path7"
       d="m 0,0 -9.6,-0.96 -9.600001,-0.64 -9.599998,-0.16 -9.600003,0.32 L -48,-0.8 l -9.599998,1.28 -9.440003,1.6 -9.440002,2.24 -9.279999,2.4 -9.119995,3.04 -8.960003,3.52 -8.96,3.840001 -8.64,4.16 -8.31999,4.639999 -8.32001,5.120001 -7.84,5.439999 -7.68001,5.760002 -7.36,6.239998 -7.19999,6.400001 -6.72,6.879997 -6.4,7.200001 -6.08,7.520004"
       style="fill:none;stroke:#000000;stroke-width:26.4;stroke-linecap:round;stroke-linejoin:round;stroke-miterlimit:10;stroke-dasharray:none;stroke-opacity:1"
       transform="translate(224.29334,139.19996)"
       clip-path="url(#clipPath8)" />
    <path
       id="path9"
       d="M 406.56,534.56 349.92001,506.23999"
       style="fill:none;stroke:#000000;stroke-width:26.4;stroke-linecap:round;stroke-linejoin:round;stroke-miterlimit:10;stroke-dasharray:none;stroke-opacity:1"
       transform="translate(-257.46667,-393.76006)"
       clip-path="url(#clipPath10)" />
    <path
       id="path11"
       d="m 406.56,534.56 v 56.64001"
       style="fill:none;stroke:#000000;stroke-width:26.4;stroke-linecap:round;stroke-linejoin:round;stroke-miterlimit:10;stroke-dasharray:none;stroke-opacity:1"
       transform="translate(-257.46667,-393.76006)"
       clip-path="url(#clipPath12)" />
  </g>
</svg>
