<?xml version="1.0" encoding="UTF-8" standalone="no"?>
<!-- Created with Inkscape (http://www.inkscape.org/) -->

<svg
   version="1.1"
   id="svg1"
   width="438.90668"
   height="433.81332"
   viewBox="0 0 438.90668 433.81332"
   sodipodi:docname="FountainWater2.pdf"
   xmlns:inkscape="http://www.inkscape.org/namespaces/inkscape"
   xmlns:sodipodi="http://sodipodi.sourceforge.net/DTD/sodipodi-0.dtd"
   xmlns="http://www.w3.org/2000/svg"
   xmlns:svg="http://www.w3.org/2000/svg">
  <defs
     id="defs1">
    <clipPath
       clipPathUnits="userSpaceOnUse"
       id="clipPath2">
      <path
         d="M 26.4,26.559999 V 1096.16 H 767.03998 V 26.559999 Z"
         clip-rule="evenodd"
         id="path2" />
    </clipPath>
    <clipPath
       clipPathUnits="userSpaceOnUse"
       id="clipPath4">
      <path
         d="M 26.4,26.559999 V 1096.16 H 767.03998 V 26.559999 Z"
         clip-rule="evenodd"
         id="path4" />
    </clipPath>
    <clipPath
       clipPathUnits="userSpaceOnUse"
       id="clipPath6">
      <path
         d="M 26.4,26.559999 V 1096.16 H 767.03998 V 26.559999 Z"
         clip-rule="evenodd"
         id="path6" />
    </clipPath>
    <clipPath
       clipPathUnits="userSpaceOnUse"
       id="clipPath8">
      <path
         d="M 26.4,26.559999 V 1096.16 H 767.03998 V 26.559999 Z"
         clip-rule="evenodd"
         id="path8" />
    </clipPath>
    <clipPath
       clipPathUnits="userSpaceOnUse"
       id="clipPath10">
      <path
         d="M 26.4,26.559999 V 1096.16 H 767.03998 V 26.559999 Z"
         transform="translate(-302.39999,-467.04001)"
         clip-rule="evenodd"
         id="path10" />
    </clipPath>
    <clipPath
       clipPathUnits="userSpaceOnUse"
       id="clipPath12">
      <path
         d="M 26.4,26.559999 V 1096.16 H 767.03998 V 26.559999 Z"
         transform="translate(-208,-750.08002)"
         clip-rule="evenodd"
         id="path12" />
    </clipPath>
  </defs>
  <sodipodi:namedview
     id="namedview1"
     pagecolor="#505050"
     bordercolor="#eeeeee"
     borderopacity="1"
     inkscape:showpageshadow="0"
     inkscape:pageopacity="0"
     inkscape:pagecheckerboard="0"
     inkscape:deskcolor="#505050">
    <inkscape:page
       x="0"
       y="0"
       inkscape:label="1"
       id="page1"
       width="438.90668"
       height="433.81332"
       margin="0"
       bleed="0" />
  </sodipodi:namedview>
  <g
     id="g1"
     inkscape:groupmode="layer"
     inkscape:label="1">
    <path
       id="path1"
       d="M 396.79999,467.04001 V 750.08002"
       style="fill:none;stroke:#000000;stroke-width:26.4;stroke-linecap:round;stroke-linejoin:round;stroke-miterlimit:10;stroke-dasharray:none;stroke-opacity:1"
       transform="translate(-178.76,-441.81339)"
       clip-path="url(#clipPath2)" />
    <path
       id="path3"
       d="M 302.39999,467.04001 H 585.59998"
       style="fill:none;stroke:#000000;stroke-width:26.4;stroke-linecap:round;stroke-linejoin:round;stroke-miterlimit:10;stroke-dasharray:none;stroke-opacity:1"
       transform="translate(-178.76,-441.81339)"
       clip-path="url(#clipPath4)" />
    <path
       id="path5"
       d="M 396.79999,599.03998 H 528.96002"
       style="fill:none;stroke:#000000;stroke-width:26.4;stroke-linecap:round;stroke-linejoin:round;stroke-miterlimit:10;stroke-dasharray:none;stroke-opacity:1"
       transform="translate(-178.76,-441.81339)"
       clip-path="url(#clipPath6)" />
    <path
       id="path7"
       d="m 528.96002,580.15997 v 37.76001"
       style="fill:none;stroke:#000000;stroke-width:26.4;stroke-linecap:round;stroke-linejoin:round;stroke-miterlimit:10;stroke-dasharray:none;stroke-opacity:1"
       transform="translate(-178.76,-441.81339)"
       clip-path="url(#clipPath8)" />
    <path
       id="path9"
       d="m 0,0 -6.24,0.16 -6.08,0.64 -6.08,0.96 -6.08,1.44 -5.92,1.76 -5.76,2.08 -5.599998,2.56 -5.440003,3.04 -5.279999,3.2 -4.959999,3.520001 -4.800003,4 -4.479999,4.159999 -4.32,4.48 -3.839996,4.799999 -3.680001,5.119999 -3.200004,5.120003 -2.879997,5.599998 -2.559998,5.600003 L -89.440002,64 l -1.759995,5.919998 -1.440002,5.919998 -0.959999,6.080002 -0.64,6.240006 -0.160004,6.079994"
       style="fill:none;stroke:#000000;stroke-width:26.4;stroke-linecap:round;stroke-linejoin:round;stroke-miterlimit:10;stroke-dasharray:none;stroke-opacity:1"
       transform="translate(123.63999,25.226617)"
       clip-path="url(#clipPath10)" />
    <path
       id="path11"
       d="m 0,0 0.16,6.24 0.64,6.08 0.96,6.08 1.44,6.08 1.76,5.92 2.24,5.76 2.56,5.599998 2.88,5.440003 3.2,5.279999 3.68,5.119998 3.840001,4.640004 4.319999,4.639995 4.48,4.160004 4.799999,3.839996 4.959999,3.680001 5.280003,3.200004 5.439998,3.040001 5.600003,2.399994 L 64,89.440002 69.919998,91.199997 76,92.639999 l 6.080002,0.959999 6.080002,0.64 6.239998,0.160004 6.239998,-0.160004 6.08,-0.64 6.08,-0.959999 6.08,-1.440002 5.92,-1.759995 5.76,-2.240005 5.6,-2.399994 5.44001,-3.040001 5.27999,-3.200004 4.96,-3.680001 4.8,-3.839996 4.47999,-4.160004 4.32001,-4.639995 3.84,-4.640004 L 172.96001,52.48 176.16,47.200001 179.03999,41.759998 181.60001,36.16 183.84,30.4 185.60001,24.48 187.03999,18.4 188,12.32 188.64,6.24 188.8,0"
       style="fill:none;stroke:#000000;stroke-width:26.4;stroke-linecap:round;stroke-linejoin:round;stroke-miterlimit:10;stroke-dasharray:none;stroke-opacity:1"
       transform="translate(29.24,308.26663)"
       clip-path="url(#clipPath12)" />
  </g>
</svg>
