<?xml version="1.0" encoding="UTF-8" standalone="no"?>
<!-- Created with Inkscape (http://www.inkscape.org/) -->

<svg
   version="1.1"
   id="svg1"
   width="490.93332"
   height="428.48001"
   viewBox="0 0 490.93332 428.48001"
   sodipodi:docname="Materia3.pdf"
   xmlns:inkscape="http://www.inkscape.org/namespaces/inkscape"
   xmlns:sodipodi="http://sodipodi.sourceforge.net/DTD/sodipodi-0.dtd"
   xmlns="http://www.w3.org/2000/svg"
   xmlns:svg="http://www.w3.org/2000/svg">
  <defs
     id="defs1">
    <clipPath
       clipPathUnits="userSpaceOnUse"
       id="clipPath2">
      <path
         d="M 0,0.16 V 1122.5601 H 793.59998 V 0.16 Z"
         transform="translate(-347.04001,-556.47998)"
         clip-rule="evenodd"
         id="path2" />
    </clipPath>
    <clipPath
       clipPathUnits="userSpaceOnUse"
       id="clipPath4">
      <path
         d="M 0,0.16 V 1122.5601 H 793.59998 V 0.16 Z"
         transform="translate(-554.71997,-555.67999)"
         clip-rule="evenodd"
         id="path4" />
    </clipPath>
    <clipPath
       clipPathUnits="userSpaceOnUse"
       id="clipPath6">
      <path
         d="M 0,0.16 V 1122.5601 H 793.59998 V 0.16 Z"
         clip-rule="evenodd"
         id="path6" />
    </clipPath>
    <clipPath
       clipPathUnits="userSpaceOnUse"
       id="clipPath8">
      <path
         d="M 0,0.16 V 1122.5601 H 793.59998 V 0.16 Z"
         transform="translate(-347.04001,-613.12)"
         clip-rule="evenodd"
         id="path8" />
    </clipPath>
    <clipPath
       clipPathUnits="userSpaceOnUse"
       id="clipPath10">
      <path
         d="M 0,0.16 V 1122.5601 H 793.59998 V 0.16 Z"
         clip-rule="evenodd"
         id="path10" />
    </clipPath>
    <clipPath
       clipPathUnits="userSpaceOnUse"
       id="clipPath12">
      <path
         d="M 0,0.16 V 1122.5601 H 793.59998 V 0.16 Z"
         transform="translate(-554.71997,-612.32001)"
         clip-rule="evenodd"
         id="path12" />
    </clipPath>
    <clipPath
       clipPathUnits="userSpaceOnUse"
       id="clipPath14">
      <path
         d="M 0,0.16 V 1122.5601 H 793.59998 V 0.16 Z"
         transform="translate(-344.79999,-401.76001)"
         clip-rule="evenodd"
         id="path14" />
    </clipPath>
    <clipPath
       clipPathUnits="userSpaceOnUse"
       id="clipPath16">
      <path
         d="M 0,0.16 V 1122.5601 H 793.59998 V 0.16 Z"
         transform="translate(-344.79999,-401.76001)"
         clip-rule="evenodd"
         id="path16" />
    </clipPath>
    <clipPath
       clipPathUnits="userSpaceOnUse"
       id="clipPath18">
      <path
         d="M 0,0.16 V 1122.5601 H 793.59998 V 0.16 Z"
         transform="translate(-556.15997,-401.76001)"
         clip-rule="evenodd"
         id="path18" />
    </clipPath>
    <clipPath
       clipPathUnits="userSpaceOnUse"
       id="clipPath20">
      <path
         d="M 0,0.16 V 1122.5601 H 793.59998 V 0.16 Z"
         transform="translate(-556.15997,-401.76001)"
         clip-rule="evenodd"
         id="path20" />
    </clipPath>
    <clipPath
       clipPathUnits="userSpaceOnUse"
       id="clipPath22">
      <path
         d="M 0,0.16 V 1122.5601 H 793.59998 V 0.16 Z"
         transform="translate(-177.92,-653.76001)"
         clip-rule="evenodd"
         id="path22" />
    </clipPath>
    <clipPath
       clipPathUnits="userSpaceOnUse"
       id="clipPath24">
      <path
         d="M 0,0.16 V 1122.5601 H 793.59998 V 0.16 Z"
         clip-rule="evenodd"
         id="path24" />
    </clipPath>
    <clipPath
       clipPathUnits="userSpaceOnUse"
       id="clipPath26">
      <path
         d="M 0,0.16 V 1122.5601 H 793.59998 V 0.16 Z"
         transform="translate(-396.48001,-748.96002)"
         clip-rule="evenodd"
         id="path26" />
    </clipPath>
    <clipPath
       clipPathUnits="userSpaceOnUse"
       id="clipPath28">
      <path
         d="M 0,0.16 V 1122.5601 H 793.59998 V 0.16 Z"
         transform="translate(-547.35998,-711.03998)"
         clip-rule="evenodd"
         id="path28" />
    </clipPath>
    <clipPath
       clipPathUnits="userSpaceOnUse"
       id="clipPath30">
      <path
         d="M 0,0.16 V 1122.5601 H 793.59998 V 0.16 Z"
         clip-rule="evenodd"
         id="path30" />
    </clipPath>
    <clipPath
       clipPathUnits="userSpaceOnUse"
       id="clipPath32">
      <path
         d="M 0,0.16 V 1122.5601 H 793.59998 V 0.16 Z"
         transform="translate(-430.72,-711.35999)"
         clip-rule="evenodd"
         id="path32" />
    </clipPath>
    <clipPath
       clipPathUnits="userSpaceOnUse"
       id="clipPath34">
      <path
         d="M 0,0.16 V 1122.5601 H 793.59998 V 0.16 Z"
         transform="translate(-176.32001,-426.4)"
         clip-rule="evenodd"
         id="path34" />
    </clipPath>
  </defs>
  <sodipodi:namedview
     id="namedview1"
     pagecolor="#505050"
     bordercolor="#eeeeee"
     borderopacity="1"
     inkscape:showpageshadow="0"
     inkscape:pageopacity="0"
     inkscape:pagecheckerboard="0"
     inkscape:deskcolor="#505050">
    <inkscape:page
       x="0"
       y="0"
       inkscape:label="1"
       id="page1"
       width="490.93332"
       height="428.48001"
       margin="0"
       bleed="0" />
  </sodipodi:namedview>
  <g
     id="g1"
     inkscape:groupmode="layer"
     inkscape:label="1">
    <path
       id="path1"
       d="m 0,0 c 0,-41.700001 -33.810001,-75.519997 -75.519997,-75.519997 -41.710003,0 -75.519993,33.819996 -75.519993,75.519997 0,41.700001 33.80999,75.519997 75.519993,75.519997 C -33.810001,75.519997 0,41.700001 0,0 Z"
       style="fill:none;stroke:#000000;stroke-width:26.4;stroke-linecap:round;stroke-linejoin:round;stroke-miterlimit:10;stroke-dasharray:none;stroke-opacity:1"
       transform="translate(347.04001,556.47992)"
       clip-path="url(#clipPath2)" />
    <path
       id="path3"
       d="m 0,0 c 0,-41.700001 -33.810001,-75.519997 -75.519997,-75.519997 -41.710003,0 -75.519993,33.819996 -75.519993,75.519997 0,41.700001 33.80999,75.519997 75.519993,75.519997 C -33.810001,75.519997 0,41.700001 0,0 Z"
       style="fill:none;stroke:#000000;stroke-width:26.4;stroke-linecap:round;stroke-linejoin:round;stroke-miterlimit:10;stroke-dasharray:none;stroke-opacity:1"
       transform="translate(554.71997,555.67993)"
       clip-path="url(#clipPath4)" />
    <path
       id="path5"
       d="M 347.04001,537.59998 V 613.12"
       style="fill:none;stroke:#000000;stroke-width:26.4;stroke-linecap:round;stroke-linejoin:round;stroke-miterlimit:10;stroke-dasharray:none;stroke-opacity:1"
       transform="translate(0,-5.8666667e-5)"
       clip-path="url(#clipPath6)" />
    <path
       id="path7"
       d="m 0,0 1.12,2.88 1.44,2.88 1.76,2.56 1.92,2.4 2.24,2.24 2.4,1.92 2.72,1.6 2.72,1.44 2.880001,1.120001 L 22.24,19.84 l 3.200001,0.48 3.039999,0.16 3.2,-0.32 3.040001,-0.48 3.039997,-0.800001"
       style="fill:none;stroke:#000000;stroke-width:26.4;stroke-linecap:round;stroke-linejoin:round;stroke-miterlimit:10;stroke-dasharray:none;stroke-opacity:1"
       transform="translate(347.04001,613.11994)"
       clip-path="url(#clipPath8)" />
    <path
       id="path9"
       d="m 554.71997,536.79999 v 75.52002"
       style="fill:none;stroke:#000000;stroke-width:26.4;stroke-linecap:round;stroke-linejoin:round;stroke-miterlimit:10;stroke-dasharray:none;stroke-opacity:1"
       transform="translate(0,-5.8666667e-5)"
       clip-path="url(#clipPath10)" />
    <path
       id="path11"
       d="m 0,0 1.12,2.88 1.44,2.88 1.6,2.56 2.08,2.4 2.24,2.24 2.4,1.92 2.72,1.759999 L 16.32,17.92 19.200001,19.040001 22.24,19.84 l 3.040001,0.48 3.199999,0.16 3.04,-0.16 3.200001,-0.64 3.039997,-0.800001"
       style="fill:none;stroke:#000000;stroke-width:26.4;stroke-linecap:round;stroke-linejoin:round;stroke-miterlimit:10;stroke-dasharray:none;stroke-opacity:1"
       transform="translate(554.71997,612.31995)"
       clip-path="url(#clipPath12)" />
    <path
       id="path13"
       d="m 0,0 -3.2,-3.68 -3.36,-3.68 -3.52,-3.2 -3.84,-3.04 -4.16,-2.72 -4.16,-2.559999 -4.479999,-2.08 -4.480002,-1.76 L -36,-24.16 l -4.799999,-1.120001 -4.799999,-0.639999 -4.800004,-0.32 h -4.959999 l -4.959999,0.32 -4.800003,0.639999 -4.799995,1.120001 -4.64,1.440001 -4.639999,1.76 -4.32,2.08 -4.319999,2.559999 -4,2.72 -3.840004,3.04 -3.680001,3.2 -3.359999,3.68 -3.04,3.68"
       style="fill:none;stroke:#000000;stroke-width:26.4;stroke-linecap:round;stroke-linejoin:round;stroke-miterlimit:10;stroke-dasharray:none;stroke-opacity:1"
       transform="translate(344.79999,401.75995)"
       clip-path="url(#clipPath14)" />
    <path
       id="path15"
       d="m 0,0 3.04,3.84 3.36,3.68 3.68,3.2 3.84,3.04 4,2.72 4.32,2.560001 4.319999,2.08 4.640002,1.759998 L 35.84,24.32 l 4.799999,1.120001 4.8,0.639999 4.960003,0.32 h 4.799999 L 60.16,26.08 64.959999,25.440001 69.760002,24.32 l 4.64,-1.440001 4.639999,-1.759998 4.479996,-2.08 L 87.68,16.48 91.839996,13.76 95.68,10.72 99.199997,7.52 102.56,3.84 105.6,0"
       style="fill:none;stroke:#000000;stroke-width:26.4;stroke-linecap:round;stroke-linejoin:round;stroke-miterlimit:10;stroke-dasharray:none;stroke-opacity:1"
       transform="translate(344.79999,401.75995)"
       clip-path="url(#clipPath16)" />
    <path
       id="path17"
       d="m 0,0 -3.04,-3.68 -3.36,-3.68 -3.68,-3.2 -3.84,-3.04 -4,-2.72 -4.32,-2.559999 -4.319999,-2.08 -4.640002,-1.76 L -35.84,-24.16 l -4.799999,-1.120001 -4.8,-0.639999 -4.960003,-0.32 h -4.799999 l -4.959999,0.32 -4.799999,0.639999 -4.800003,1.120001 -4.64,1.440001 -4.639999,1.76 -4.479996,2.08 L -87.68,-16.32 l -4.159996,2.72 -3.840004,3.04 -3.519997,3.2 -3.360003,3.68 -3.2,3.68"
       style="fill:none;stroke:#000000;stroke-width:26.4;stroke-linecap:round;stroke-linejoin:round;stroke-miterlimit:10;stroke-dasharray:none;stroke-opacity:1"
       transform="translate(556.15997,401.75995)"
       clip-path="url(#clipPath18)" />
    <path
       id="path19"
       d="m 0,0 3.2,4 3.52,3.68 3.84,3.52 4,3.04 4.159999,2.719999 L 23.200001,19.52 27.84,21.6 32.639999,23.360001 37.599998,24.639999 42.560001,25.76 47.52,26.24 52.639999,26.559999 57.759998,26.4"
       style="fill:none;stroke:#000000;stroke-width:26.4;stroke-linecap:round;stroke-linejoin:round;stroke-miterlimit:10;stroke-dasharray:none;stroke-opacity:1"
       transform="translate(556.15997,401.75995)"
       clip-path="url(#clipPath20)" />
    <path
       id="path21"
       d="m 0,0 0.8,4.96 1.12,4.8 1.44,4.64 1.76,4.640001 2.08,4.479999 2.4,4.16 2.72,4.16 2.88,3.68 3.04,3.680001 3.52,3.200001 3.520001,3.039997 3.84,2.720001 3.839998,2.400001 4.16,1.919999 4.32,1.760002 4.319999,1.279998 4.320004,0.96 4.479999,0.639999 4.48,0.16 4.479999,-0.16 4.48,-0.48"
       style="fill:none;stroke:#000000;stroke-width:26.4;stroke-linecap:round;stroke-linejoin:round;stroke-miterlimit:10;stroke-dasharray:none;stroke-opacity:1"
       transform="translate(177.92,653.75995)"
       clip-path="url(#clipPath22)" />
    <path
       id="path23"
       d="M 243.67999,711.20001 H 362.56"
       style="fill:none;stroke:#000000;stroke-width:26.4;stroke-linecap:round;stroke-linejoin:round;stroke-miterlimit:10;stroke-dasharray:none;stroke-opacity:1"
       transform="translate(0,-5.8666667e-5)"
       clip-path="url(#clipPath24)" />
    <path
       id="path25"
       d="M 0,0 V -3.52 L -0.48,-7.04 -1.12,-10.4 -2.08,-13.76 -3.36,-16.959999 -4.8,-20 -6.56,-22.879999 -8.64,-25.6 l -2.24,-2.56 -2.4,-2.24 -2.56,-1.92 -2.879999,-1.760002 L -21.6,-35.360001 -24.639999,-36.48 -27.68,-37.279999 l -3.039999,-0.319999 -3.199999,-0.16"
       style="fill:none;stroke:#000000;stroke-width:26.4;stroke-linecap:round;stroke-linejoin:round;stroke-miterlimit:10;stroke-dasharray:none;stroke-opacity:1"
       transform="translate(396.48001,748.95996)"
       clip-path="url(#clipPath26)" />
    <path
       id="path27"
       d="m 0,0 4.32,0.48 4.48,0.16 4.64,-0.16 4.32,-0.64 4.48,-0.96 4.319999,-1.28 4.32,-1.6 4.000002,-2.08 4,-2.4 3.84,-2.56 3.520001,-3.04 3.359996,-3.200001 3.200001,-3.679998 2.880001,-3.68 2.720002,-4.16 2.399997,-4.16 2.080002,-4.48 1.759998,-4.479999 1.440003,-4.800003 L 67.199997,-51.52 68,-56.48"
       style="fill:none;stroke:#000000;stroke-width:26.4;stroke-linecap:round;stroke-linejoin:round;stroke-miterlimit:10;stroke-dasharray:none;stroke-opacity:1"
       transform="translate(547.35998,711.03992)"
       clip-path="url(#clipPath28)" />
    <path
       id="path29"
       d="M 549.59998,711.84003 430.72,711.35998"
       style="fill:none;stroke:#000000;stroke-width:26.4;stroke-linecap:round;stroke-linejoin:round;stroke-miterlimit:10;stroke-dasharray:none;stroke-opacity:1"
       transform="translate(0,-5.8666667e-5)"
       clip-path="url(#clipPath30)" />
    <path
       id="path31"
       d="m 0,0 h -3.2 l -3.2,0.48 -3.04,0.8 -3.04,0.96 -2.88,1.44 -2.72,1.6 -2.559999,2.08 -2.560002,2.24 -2.24,2.4 -1.92,2.72 -1.76,2.88 -1.599998,3.039999 L -32,23.84 l -0.959999,3.360001 -0.639999,3.359998 -0.480004,3.520003 -0.16,3.519996"
       style="fill:none;stroke:#000000;stroke-width:26.4;stroke-linecap:round;stroke-linejoin:round;stroke-miterlimit:10;stroke-dasharray:none;stroke-opacity:1"
       transform="translate(430.72,711.35993)"
       clip-path="url(#clipPath32)" />
    <path
       id="path33"
       d="M 0,0 5.12,0.64 10.24,0.8 15.36,0.64 20.48,0 25.440001,-0.96 30.4,-2.24 35.200001,-4 39.84,-6.08 l 4.48,-2.56 4.319999,-2.72 4,-3.2 3.840001,-3.36 3.52,-3.68 3.200001,-4"
       style="fill:none;stroke:#000000;stroke-width:26.4;stroke-linecap:round;stroke-linejoin:round;stroke-miterlimit:10;stroke-dasharray:none;stroke-opacity:1"
       transform="translate(176.32001,426.39994)"
       clip-path="url(#clipPath34)" />
  </g>
</svg>
