<?xml version="1.0" encoding="UTF-8" standalone="no"?>
<!-- Created with Inkscape (http://www.inkscape.org/) -->

<svg
   version="1.1"
   id="svg1"
   width="300.16"
   height="324.34668"
   viewBox="0 0 300.16 324.34668"
   sodipodi:docname="Ouroboros.pdf"
   xmlns:inkscape="http://www.inkscape.org/namespaces/inkscape"
   xmlns:sodipodi="http://sodipodi.sourceforge.net/DTD/sodipodi-0.dtd"
   xmlns="http://www.w3.org/2000/svg"
   xmlns:svg="http://www.w3.org/2000/svg">
  <defs
     id="defs1">
    <clipPath
       clipPathUnits="userSpaceOnUse"
       id="clipPath2">
      <path
         d="M 0,0.16 V 1122.5601 H 793.59998 V 0.16 Z"
         clip-rule="evenodd"
         id="path2" />
    </clipPath>
    <clipPath
       clipPathUnits="userSpaceOnUse"
       id="clipPath4">
      <path
         d="M 0,0.16 V 1122.5601 H 793.59998 V 0.16 Z"
         transform="translate(-359.04001,-441.11999)"
         clip-rule="evenodd"
         id="path4" />
    </clipPath>
    <clipPath
       clipPathUnits="userSpaceOnUse"
       id="clipPath6">
      <path
         d="M 0,0.16 V 1122.5601 H 793.59998 V 0.16 Z"
         transform="translate(-367.04001,-442.23999)"
         clip-rule="evenodd"
         id="path6" />
    </clipPath>
    <clipPath
       clipPathUnits="userSpaceOnUse"
       id="clipPath8">
      <path
         d="M 0,0.16 V 1122.5601 H 793.59998 V 0.16 Z"
         transform="translate(-367.04001,-442.23999)"
         clip-rule="evenodd"
         id="path8" />
    </clipPath>
  </defs>
  <sodipodi:namedview
     id="namedview1"
     pagecolor="#505050"
     bordercolor="#eeeeee"
     borderopacity="1"
     inkscape:showpageshadow="0"
     inkscape:pageopacity="0"
     inkscape:pagecheckerboard="0"
     inkscape:deskcolor="#505050">
    <inkscape:page
       x="0"
       y="0"
       inkscape:label="1"
       id="page1"
       width="300.16"
       height="324.34668"
       margin="0"
       bleed="0" />
  </sodipodi:namedview>
  <g
     id="g1"
     inkscape:groupmode="layer"
     inkscape:label="1">
    <path
       id="path1"
       d="m 310.23999,457.76001 -1.11999,-1.44 -1.44001,-1.92002 -1.28,-1.6 -0.95999,-1.44 -0.79999,-1.12 L 304,449.28 l -0.32001,-0.63999 -0.16,-0.48001 0.16,-0.16 0.48001,-0.16 h 0.32001 l 0.16,-0.16001 h 0.96 l 1.75998,-0.16 2.08001,-0.31998 2.72,-0.32001 1.91999,-0.32 H 314.88 l 2.24,-0.32001 4.16,-0.63998 5.11999,-0.96 3.84,-0.96002 0.80002,-0.32 2.39999,-0.63999 4.79999,-1.76001 4.80002,-2.23999 2.39999,-1.28 0.63999,-0.32 2.08001,-1.28 1.76001,-1.12 1.28,-0.95999 1.59998,-1.76001 0.96002,-1.76001 0.31998,-1.59998 -0.15998,-1.28002 -0.16,-0.63999 -0.64001,-1.76001 -1.12,-1.91998 -1.60001,-2.4 -2.39999,-3.04 -0.95999,-1.12 -0.96002,-1.28 -0.47998,-0.64001 -0.16001,-0.16001 v -0.32 h 0.32001 l 0.47998,0.16 0.96002,0.48001 1.28,0.63999 1.91998,1.12002 1.28,0.95999 0.48001,0.16001 1.44001,0.95999 2.23999,1.44 2.23999,1.44 1.12002,0.95999 0.31998,0.16001 0.96002,0.79999 2.07999,2.08001 0.79999,0.63999 L 364,426.72 l 0.16,0.16 0.48001,0.32001 0.63999,0.15998 0.32001,-0.15998 0.16,-0.32001 v -0.16 l -0.16,-0.48001 -0.32001,-1.11999 -0.63999,-1.44001 -0.64001,-1.28 -0.16,-0.32 -0.48001,-0.95999 -1.59998,-2.72001 -1.12,-2.55999 -0.16,-0.32001 -0.32001,-0.95999 -0.32,-1.44 v -0.96 l 0.48001,-0.48001 h 0.47998 l 0.80002,0.32001 1.11999,0.64001 1.44,0.96 0.48001,0.32 0.15998,0.15998 0.96002,0.64001 3.03998,1.92001 2.24002,1.59998 0.16,0.16 0.79999,0.80002 1.76001,1.91999 1.59998,2.23999 v 0.16 l 0.16,0.16 0.48001,0.96002 0.64001,1.12 0.47999,0.79999 0.48001,0.48001 0.47998,0.47998 v 0.16 h 0.32 l 0.32001,-0.32 0.16,-0.79999 0.16001,-1.12 v -0.32 -0.32001 L 378.88,424 l -0.48001,-1.92001 -0.63998,-2.72 -0.16,-0.15998 V 418.88 l -0.32001,-0.95999 -0.48001,-2.40002 -0.15998,-1.59998 v -0.32 l 0.15998,-0.64002 L 377.28,412 l 0.64001,-0.64001 0.47998,-0.15998 H 378.56 l 0.48001,0.15998 L 380,411.84 l 0.95999,0.95999 1.28,1.12002 0.16,0.31998 0.80002,0.80002 1.75998,2.07999 2.08002,2.88 0.31998,0.48001 0.32,0.31998 0.64002,1.12002 1.44,2.72 0.95999,1.91999 0.16,0.16 v 0.32001 l 0.32001,0.47998 0.31998,0.64001 0.48001,0.48001 0.48001,0.31998 1.28,0.48001 1.75998,0.63999 H 395.84 l 0.64001,0.16 2.07999,0.64001 2.56,0.63999 3.04,0.80002 3.84,0.79999 4.48001,0.95999 4.79999,0.96002 1.44,0.31998 4.16,0.96002 8.79999,1.91998 8.96002,2.56 5.75998,1.76001 1.44001,0.64001 4.32,1.75998 6.56,3.04001 6.56,3.51999 6.72,4 2.56,1.76001 1.28,0.79999 4,2.88 6.08001,4.80002 5.59998,4.95999 4.96002,4.95999 1.59998,1.76001 0.96002,1.12 2.88,3.67999 3.68,5.28 3.35998,5.60001 3.19998,5.76 2.72003,5.76001 0.79999,1.75998 2.08002,5.12 2.56,6.88003 2.55999,7.35999 2.24,8 1.59997,7.83997 0.16003,0.96002 0.32001,2.08001 0.79999,6.07996 0.47998,7.36005 0.16003,7.51996 -0.16003,7.84002 -0.63995,7.68 v 0.96002 l -0.16004,1.76001 -0.79999,5.44 -1.28002,7.51996 -1.91999,7.35998 -1.91998,6.40003 -2.23999,5.91998 -1.12,3.04004 -0.96002,2.07996 -2.40002,5.60003 L 512,633.44 l -3.51999,6.71997 -4.32001,7.04004 -4.64001,7.03998 -4.79999,6.23999 -4,4.64002 -1.92001,1.91998 -4.47998,4.32 -4.96002,4 -5.28,3.84003 -5.75998,3.67999 -6.24002,3.68 -6.87998,3.35998 -7.52002,3.36005 -0.32,0.15997 -2.4,0.96002 -7.19998,2.71998 -8.64001,2.72003 -8,1.91998 -7.84,1.44 -7.35999,0.95996 -7.36001,0.48004 H 396 393.12 l -7.19999,-0.16003 -7.68002,-0.63995 -8,-1.12006 -8.31998,-1.59997 -8,-1.91999 -7.68002,-2.40002 -6.88,-2.56 -1.43998,-0.64001 -2.72,-1.12 -5.6,-2.71997 L 324,686.56 l -5.44,-3.68 -5.44,-4.16003 -5.60001,-4.63995 -5.44,-5.12 -5.75998,-5.92004 -1.28,-1.27997 -1.92001,-2.08002 -5.60001,-6.55999 -5.75998,-7.35999 -5.12,-7.35999 L 272,631.03998 268.16,624 264.95999,616.96002 263.04001,612.32001 262.07999,609.44 260,602.88 258.23999,596 l -1.28,-7.35999 L 256,581.12 l -0.48,-7.83997 -0.16,-8 0.31999,-8.16003 0.32001,-4.47999 0.32001,-2.88 1.11999,-8 1.44,-7.67999 1.76001,-7.36005 2.23999,-7.19995 2.56,-6.56 2.72,-6.40002 3.19999,-5.91999 1.28002,-2.24002 L 276,493.12 l 3.84,-5.28 4,-4.96 4,-4.48001 3.83999,-3.83999 3.36002,-3.35999 3.03998,-2.72 0.48001,-0.32001 1.11999,-0.95999 2.24002,-1.92001 2.07999,-1.60001 2.07999,-1.44 L 308,461.12 l 1.76001,-0.96 1.91998,-0.80001 L 313.44,458.88 h 0.48001 l 1.59998,-0.32 3.20001,-0.32001 h 1.92001 1.91999 2.39999 l 0.64002,-0.16 H 327.84 l 4.16,-0.31998 5.92001,-0.32001 2.56,-0.16 0.79999,-0.16 h 1.92001 l 2.87998,-0.16001 3.68002,0.16001 h 2.88 0.63999 l 1.92001,0.16 4.31998,0.48001 3.20001,0.31998 3.20001,0.48001 0.47998,0.16 1.60001,0.48001 2.07999,0.63999 1.44,0.64001 0.80002,0.63999 0.16,0.48001 v 0.16 L 372,462.23999 l -0.79999,0.48001 -1.28,0.63999 -1.6,0.48001 -2.24002,0.64001 -1.28,0.31998 -0.79999,0.16 -2.07999,0.64002 -3.84002,0.95999 -4.79999,1.11999 -4.95999,1.44001 -0.96002,0.32 -2.4,0.79999 -5.6,2.24002 -5.12,2.56 -1.91998,0.95999 -0.64002,0.48001 -2.23999,1.44 -3.83999,2.87998 -3.52002,3.20001 -3.03998,3.35999 -1.28,1.44 -0.80002,0.96002 -2.23999,3.03998 -2.72,3.84002 -2.56,4.31998 -2.56,4.64002 -2.23999,4.95999 -1.92001,4.47998 -0.64001,1.76001 -1.75998,5.44 -1.60001,6.23999 -1.44,6.56 -0.95999,7.04004 -0.64002,6.88 v 6.56 l 0.16001,2.07996 0.64001,5.76 0.95999,5.92005 1.44,6.07995 1.91999,6.40003 2.24002,6.56 2.39999,5.91998 0.79999,1.60004 2.24002,5.11999 3.35999,6.23999 3.51999,5.44 3.68002,4.47999 3.67999,4 4,3.67999 0.32001,0.32001 1.75998,1.44 4.32001,3.35998 4.80001,3.36005 5.59998,3.19995 6.08002,3.20001 L 356,642.56 l 6.72,2.56 6.56,1.91998 2.88,0.80005 2.56,0.47998 6.07999,0.96002 6.24002,0.47998 6.07999,0.15997 6.39999,-0.32 6.24002,-0.79999 6.23999,-1.12 6.07999,-1.76001 4.16,-1.27997 2.24002,-0.79998 5.91998,-2.56 5.76001,-2.88001 5.44001,-3.36004 5.44,-3.51996 4.95999,-4 4.64001,-4.16004 4.15998,-4.15997 1.44,-1.60003 3.52002,-4.31995 3.03998,-4.64002 2.88,-4.79998 2.56,-5.12006 2.24002,-5.43994 1.75998,-5.92005 1.12,-3.51995 0.48001,-2.08002 1.28,-6.23999 0.95999,-7.04004 0.64001,-7.35998 0.16,-7.35999 -0.32,-7.04004 -0.63999,-5.91998 -0.32,-2.08002 -1.28,-6.07996 -1.60001,-5.92004 -1.92001,-5.75995 -2.4,-5.60004 -2.72,-5.43997 -2.88,-4.96002 -0.63999,-0.79999 -0.95999,-1.6 -3.04001,-4.16001 -3.51999,-4.16 -3.84002,-4 L 452.48001,486.56 448,483.04001 l -3.20001,-2.08002 -1.28,-0.79999 -4.16,-2.39999 -5.59998,-2.88001 -5.92001,-2.55999 -5.76001,-2.08002 -5.59998,-1.44 -1.44,-0.31998 -4.16001,-0.80002 -5.27999,-0.63998 -5.28,-0.32001 -4.96002,-0.16 -4.31998,0.16 h -0.96002 l -3.03998,0.16 -4.64002,0.47999 -2.88,0.48001 -2.23999,0.48001 -4,0.79999 -3.84,0.95999 -1.6,0.32 -4,1.12 -4.32001,1.12002 -4.95999,1.12 -5.44,1.44 -6.07999,1.44 -6.56,1.43998 -7.04001,1.44 L 326.88,480"
       style="fill:none;stroke:#000000;stroke-width:7.52;stroke-linecap:round;stroke-linejoin:round;stroke-miterlimit:10;stroke-dasharray:none;stroke-opacity:1"
       transform="translate(0,2.666608)"
       clip-path="url(#clipPath2)" />
    <path
       id="path3"
       d="M 0,0 0.32,-0.16 0.8,-0.64 2.08,-1.6 3.2,-2.24 3.36,-2.4 3.84,-2.56 5.12,-2.72 H 6.08 6.24 L 6.72,-2.56 8,-2.08 8.96,-1.6 h 0.16 l 0.32,0.32 0.96,0.8 0.64,0.48 v 0.16 l 0.32,0.16 1.12,0.48 0.96,0.16 h 0.16 0.48 L 15.52,0.8 16.799999,0.64 h 0.16 H 17.6 19.040001 L 20.16,0.8 h 0.16 L 20.639999,0.96 21.280001,1.12 21.6,1.28 21.76,1.44 V 1.6 L 21.440001,1.76 H 20.639999 L 19.360001,1.92 H 17.76 17.440001 L 16.48,1.92 13.6,2.4 11.52,3.04 H 11.2 L 10.4,3.52 8.8,4.48 7.84,4.96 7.04,5.44 H 6.88 L 6.24,5.6 5.12,5.44 3.84,5.12 3.2,4.8 3.04,4.64 2.56,4.32 1.12,3.52 -0.16,2.88 H -0.32 L -0.96,2.72 h -1.6 -1.12 -0.16 -0.32 -0.32 L -4.32,2.4 -4,2.24 h 0.16 L -3.52,1.92 -2.4,1.28 -0.8,0.48 0,0"
       style="fill:none;stroke:#000000;stroke-width:3.68;stroke-linecap:round;stroke-linejoin:round;stroke-miterlimit:10;stroke-dasharray:none;stroke-opacity:1"
       transform="translate(359.04001,443.7866)"
       clip-path="url(#clipPath4)" />
    <path
       id="path5"
       d="M 0,0 -0.16,-0.32 -0.32,-0.8 -0.48,-1.12 -0.8,-1.44 -1.12,-1.6 -1.6,-1.76 -1.92,-1.92 -2.4,-1.76 -2.72,-1.6 -3.2,-1.44 -3.36,-1.12 -3.68,-0.8 -3.84,-0.32 V 0 0.48 l 0.16,0.32 0.32,0.48 0.16,0.32 0.48,0.16 0.32,0.16 h 0.48 0.32 L -1.12,1.76 -0.8,1.6 -0.48,1.28 -0.32,0.8 -0.16,0.48 0,0 v 0 z"
       style="fill:#000000;fill-opacity:1;fill-rule:evenodd;stroke:none"
       transform="translate(367.04001,444.9066)"
       clip-path="url(#clipPath6)" />
    <path
       id="path7"
       d="M 0,0 -0.16,-0.32 -0.32,-0.8 -0.48,-1.12 -0.8,-1.44 -1.12,-1.6 -1.6,-1.76 -1.92,-1.92 -2.4,-1.76 -2.72,-1.6 -3.2,-1.44 -3.36,-1.12 -3.68,-0.8 -3.84,-0.32 V 0 0.48 l 0.16,0.32 0.32,0.48 0.16,0.32 0.48,0.16 0.32,0.16 h 0.48 0.32 L -1.12,1.76 -0.8,1.6 -0.48,1.28 -0.32,0.8 -0.16,0.48 0,0"
       style="fill:none;stroke:#000000;stroke-width:0.64;stroke-linecap:round;stroke-linejoin:round;stroke-miterlimit:10;stroke-dasharray:none;stroke-opacity:1"
       transform="translate(367.04001,444.9066)"
       clip-path="url(#clipPath8)" />
  </g>
</svg>
