<?xml version="1.0" encoding="UTF-8" standalone="no"?>
<!-- Created with Inkscape (http://www.inkscape.org/) -->

<svg
   version="1.1"
   id="svg1"
   width="366.86667"
   height="496.53333"
   viewBox="0 0 366.86667 496.53333"
   sodipodi:docname="Phlegma10.pdf"
   xmlns:inkscape="http://www.inkscape.org/namespaces/inkscape"
   xmlns:sodipodi="http://sodipodi.sourceforge.net/DTD/sodipodi-0.dtd"
   xmlns="http://www.w3.org/2000/svg"
   xmlns:svg="http://www.w3.org/2000/svg">
  <defs
     id="defs1">
    <clipPath
       clipPathUnits="userSpaceOnUse"
       id="clipPath2">
      <path
         d="M 0,0.16 V 1122.5601 H 793.59998 V 0.16 Z"
         clip-rule="evenodd"
         id="path2" />
    </clipPath>
    <clipPath
       clipPathUnits="userSpaceOnUse"
       id="clipPath4">
      <path
         d="M 0,0.16 V 1122.5601 H 793.59998 V 0.16 Z"
         clip-rule="evenodd"
         id="path4" />
    </clipPath>
    <clipPath
       clipPathUnits="userSpaceOnUse"
       id="clipPath6">
      <path
         d="M 0,0.16 V 1122.5601 H 793.59998 V 0.16 Z"
         clip-rule="evenodd"
         id="path6" />
    </clipPath>
    <clipPath
       clipPathUnits="userSpaceOnUse"
       id="clipPath8">
      <path
         d="M 0,0.16 V 1122.5601 H 793.59998 V 0.16 Z"
         transform="translate(-339.04001,-308)"
         clip-rule="evenodd"
         id="path8" />
    </clipPath>
    <clipPath
       clipPathUnits="userSpaceOnUse"
       id="clipPath10">
      <path
         d="M 0,0.16 V 1122.5601 H 793.59998 V 0.16 Z"
         transform="translate(-490.07999,-308)"
         clip-rule="evenodd"
         id="path10" />
    </clipPath>
    <clipPath
       clipPathUnits="userSpaceOnUse"
       id="clipPath12">
      <path
         d="M 0,0.16 V 1122.5601 H 793.59998 V 0.16 Z"
         transform="translate(-339.04001,-308)"
         clip-rule="evenodd"
         id="path12" />
    </clipPath>
    <clipPath
       clipPathUnits="userSpaceOnUse"
       id="clipPath14">
      <path
         d="M 0,0.16 V 1122.5601 H 793.59998 V 0.16 Z"
         transform="translate(-490.07999,-308)"
         clip-rule="evenodd"
         id="path14" />
    </clipPath>
  </defs>
  <sodipodi:namedview
     id="namedview1"
     pagecolor="#505050"
     bordercolor="#eeeeee"
     borderopacity="1"
     inkscape:showpageshadow="0"
     inkscape:pageopacity="0"
     inkscape:pagecheckerboard="0"
     inkscape:deskcolor="#505050">
    <inkscape:page
       x="0"
       y="0"
       inkscape:label="1"
       id="page1"
       width="366.86667"
       height="496.53333"
       margin="0"
       bleed="0" />
  </sodipodi:namedview>
  <g
     id="g1"
     inkscape:groupmode="layer"
     inkscape:label="1">
    <path
       id="path1"
       d="M 401.28,723.35998 532,496.79999 H 270.56 l 130.72,226.55999"
       style="fill:none;stroke:#000000;stroke-width:26.4;stroke-linecap:round;stroke-linejoin:round;stroke-miterlimit:10;stroke-dasharray:none;stroke-opacity:1"
       transform="translate(0,124.13327)"
       clip-path="url(#clipPath2)" />
    <path
       id="path3"
       d="m 401.28,270.23999 v 226.56"
       style="fill:none;stroke:#000000;stroke-width:26.4;stroke-linecap:round;stroke-linejoin:round;stroke-miterlimit:10;stroke-dasharray:none;stroke-opacity:1"
       transform="translate(0,124.13327)"
       clip-path="url(#clipPath4)" />
    <path
       id="path5"
       d="M 250.24,383.51999 H 552.32001"
       style="fill:none;stroke:#000000;stroke-width:26.4;stroke-linecap:round;stroke-linejoin:round;stroke-miterlimit:10;stroke-dasharray:none;stroke-opacity:1"
       transform="translate(0,124.13327)"
       clip-path="url(#clipPath6)" />
    <path
       id="path7"
       d="m 0,0 -0.16,-1.76 -0.32,-1.6 -0.64,-1.6 -0.64,-1.6 L -2.72,-8 -4,-9.28 l -1.28,-1.12 -1.44,-0.96 -1.44,-0.8 -1.76,-0.64 -1.6,-0.32 h -1.76 -1.76 l -1.599999,0.32 -1.760001,0.64 -1.44,0.8 -1.440001,0.96 -1.279998,1.12 L -23.68,-8 l -0.959999,1.44 -0.800002,1.6 -0.639999,1.6 -0.32,1.6 L -26.559999,0 -26.4,1.76 l 0.32,1.76 0.639999,1.6 0.800002,1.6 0.959999,1.44 1.120001,1.28 1.279998,1.12 1.440001,0.96 1.44,0.8 1.760001,0.48 1.599999,0.32 1.76,0.16 1.76,-0.16 1.6,-0.32 1.76,-0.48 1.44,-0.8 1.44,-0.96 L -4,9.44 -2.72,8.16 -1.76,6.72 -1.12,5.12 -0.48,3.52 -0.16,1.76 0,0 v 0 z"
       style="fill:#000000;fill-opacity:1;fill-rule:evenodd;stroke:none"
       transform="translate(339.04001,432.13327)"
       clip-path="url(#clipPath8)" />
    <path
       id="path9"
       d="m 0,0 -0.16,-1.76 -0.32,-1.6 -0.64,-1.6 -0.64,-1.6 L -2.72,-8 -4,-9.28 l -1.28,-1.12 -1.44,-0.96 -1.44,-0.8 -1.76,-0.64 -1.6,-0.32 h -1.76 -1.76 l -1.599999,0.32 -1.760001,0.64 -1.44,0.8 -1.440001,0.96 -1.279998,1.12 L -23.84,-8 l -0.959999,1.44 -0.640002,1.6 -0.639999,1.6 -0.32,1.6 L -26.559999,0 -26.4,1.76 l 0.32,1.76 0.639999,1.6 0.640002,1.6 0.959999,1.44 1.280001,1.28 1.279998,1.12 1.440001,0.96 1.44,0.8 1.760001,0.48 1.599999,0.32 1.76,0.16 1.76,-0.16 1.6,-0.32 1.76,-0.48 1.44,-0.8 1.44,-0.96 L -4,9.44 -2.72,8.16 -1.76,6.72 -1.12,5.12 -0.48,3.52 -0.16,1.76 0,0 v 0 z"
       style="fill:#000000;fill-opacity:1;fill-rule:evenodd;stroke:none"
       transform="translate(490.07999,432.13327)"
       clip-path="url(#clipPath10)" />
    <path
       id="path11"
       d="m 0,0 -0.16,-1.76 -0.32,-1.6 -0.64,-1.6 -0.64,-1.6 L -2.72,-8 -4,-9.28 l -1.28,-1.12 -1.44,-0.96 -1.44,-0.8 -1.76,-0.64 -1.6,-0.32 h -1.76 -1.76 l -1.599999,0.32 -1.760001,0.64 -1.44,0.8 -1.440001,0.96 -1.279998,1.12 L -23.68,-8 l -0.959999,1.44 -0.800002,1.6 -0.639999,1.6 -0.32,1.6 L -26.559999,0 -26.4,1.76 l 0.32,1.76 0.639999,1.6 0.800002,1.6 0.959999,1.44 1.120001,1.28 1.279998,1.12 1.440001,0.96 1.44,0.8 1.760001,0.48 1.599999,0.32 1.76,0.16 1.76,-0.16 1.6,-0.32 1.76,-0.48 1.44,-0.8 1.44,-0.96 L -4,9.44 -2.72,8.16 -1.76,6.72 -1.12,5.12 -0.48,3.52 -0.16,1.76 0,0"
       style="fill:none;stroke:#000000;stroke-width:0.64;stroke-linecap:round;stroke-linejoin:round;stroke-miterlimit:10;stroke-dasharray:none;stroke-opacity:1"
       transform="translate(339.04001,432.13327)"
       clip-path="url(#clipPath12)" />
    <path
       id="path13"
       d="m 0,0 -0.16,-1.76 -0.32,-1.6 -0.64,-1.6 -0.64,-1.6 L -2.72,-8 -4,-9.28 l -1.28,-1.12 -1.44,-0.96 -1.44,-0.8 -1.76,-0.64 -1.6,-0.32 h -1.76 -1.76 l -1.599999,0.32 -1.760001,0.64 -1.44,0.8 -1.440001,0.96 -1.279998,1.12 L -23.84,-8 l -0.959999,1.44 -0.640002,1.6 -0.639999,1.6 -0.32,1.6 L -26.559999,0 -26.4,1.76 l 0.32,1.76 0.639999,1.6 0.640002,1.6 0.959999,1.44 1.280001,1.28 1.279998,1.12 1.440001,0.96 1.44,0.8 1.760001,0.48 1.599999,0.32 1.76,0.16 1.76,-0.16 1.6,-0.32 1.76,-0.48 1.44,-0.8 1.44,-0.96 L -4,9.44 -2.72,8.16 -1.76,6.72 -1.12,5.12 -0.48,3.52 -0.16,1.76 0,0"
       style="fill:none;stroke:#000000;stroke-width:0.64;stroke-linecap:round;stroke-linejoin:round;stroke-miterlimit:10;stroke-dasharray:none;stroke-opacity:1"
       transform="translate(490.07999,432.13327)"
       clip-path="url(#clipPath14)" />
  </g>
</svg>
