<?xml version="1.0" encoding="UTF-8" standalone="no"?>
<!-- Created with Inkscape (http://www.inkscape.org/) -->

<svg
   version="1.1"
   id="svg1"
   width="488.26666"
   height="467.17334"
   viewBox="0 0 488.26666 467.17334"
   sodipodi:docname="Quintessence11.pdf"
   xmlns:inkscape="http://www.inkscape.org/namespaces/inkscape"
   xmlns:sodipodi="http://sodipodi.sourceforge.net/DTD/sodipodi-0.dtd"
   xmlns="http://www.w3.org/2000/svg"
   xmlns:svg="http://www.w3.org/2000/svg">
  <defs
     id="defs1">
    <clipPath
       clipPathUnits="userSpaceOnUse"
       id="clipPath2">
      <path
         d="M 0,0.16 V 1122.5601 H 793.59998 V 0.16 Z"
         transform="translate(-441.92001,-542.40003)"
         clip-rule="evenodd"
         id="path2" />
    </clipPath>
    <clipPath
       clipPathUnits="userSpaceOnUse"
       id="clipPath4">
      <path
         d="M 0,0.16 V 1122.5601 H 793.59998 V 0.16 Z"
         transform="translate(-615.03998,-446.88001)"
         clip-rule="evenodd"
         id="path4" />
    </clipPath>
    <clipPath
       clipPathUnits="userSpaceOnUse"
       id="clipPath6">
      <path
         d="M 0,0.16 V 1122.5601 H 793.59998 V 0.16 Z"
         clip-rule="evenodd"
         id="path6" />
    </clipPath>
    <clipPath
       clipPathUnits="userSpaceOnUse"
       id="clipPath8">
      <path
         d="M 0,0.16 V 1122.5601 H 793.59998 V 0.16 Z"
         clip-rule="evenodd"
         id="path8" />
    </clipPath>
    <clipPath
       clipPathUnits="userSpaceOnUse"
       id="clipPath10">
      <path
         d="M 0,0.16 V 1122.5601 H 793.59998 V 0.16 Z"
         clip-rule="evenodd"
         id="path10" />
    </clipPath>
    <clipPath
       clipPathUnits="userSpaceOnUse"
       id="clipPath12">
      <path
         d="M 0,0.16 V 1122.5601 H 793.59998 V 0.16 Z"
         clip-rule="evenodd"
         id="path12" />
    </clipPath>
    <clipPath
       clipPathUnits="userSpaceOnUse"
       id="clipPath14">
      <path
         d="M 0,0.16 V 1122.5601 H 793.59998 V 0.16 Z"
         clip-rule="evenodd"
         id="path14" />
    </clipPath>
  </defs>
  <sodipodi:namedview
     id="namedview1"
     pagecolor="#505050"
     bordercolor="#eeeeee"
     borderopacity="1"
     inkscape:showpageshadow="0"
     inkscape:pageopacity="0"
     inkscape:pagecheckerboard="0"
     inkscape:deskcolor="#505050">
    <inkscape:page
       x="0"
       y="0"
       inkscape:label="1"
       id="page1"
       width="488.26666"
       height="467.17334"
       margin="0"
       bleed="0" />
  </sodipodi:namedview>
  <g
     id="g1"
     inkscape:groupmode="layer"
     inkscape:label="1">
    <path
       id="path1"
       d="m 0,0 -0.16,-5.12 -0.64,-5.12 -1.28,-5.12 -1.6,-5.12 -2.08,-4.960001 -2.56,-5.119998 -3.04,-4.800002 -3.36,-4.959999 -3.999999,-4.639999 -4.320002,-4.799999 -4.639999,-4.480004 -5.279999,-4.479999 -5.440003,-4.32 -6.079998,-4.159996 -6.240001,-4.160004 -6.719998,-3.839996 -7.040004,-3.840004 -7.359993,-3.519997 -7.680001,-3.520004 -8,-3.199997 -8.319999,-3.040001 -8.480004,-2.879997 -8.96,-2.560005 -8.96,-2.559998 -9.28,-2.24 -9.44001,-2.08 -9.59999,-1.76 -9.76001,-1.6 -9.91999,-1.44 -10.08001,-1.12 -10.23999,-0.96 -10.08,-0.64 -10.24,-0.48 -10.4,-0.16 h -10.24 l -10.23999,0.32 L -252,-112 l -10.39999,0.64"
       style="fill:none;stroke:#000000;stroke-width:26.4;stroke-linecap:round;stroke-linejoin:round;stroke-miterlimit:10;stroke-dasharray:none;stroke-opacity:1"
       transform="translate(289.84001,215.3733)"
       clip-path="url(#clipPath2)" />
    <path
       id="path3"
       d="M 0,0 V -6.08 L -0.16,-12 -0.64,-17.76 -1.44,-23.040001 -2.56,-28 l -1.28,-4.639999 -1.6,-4.32 -1.76,-4 -2.08,-3.520001 -2.24,-3.2 -2.56,-2.720002 -2.719999,-2.399997 L -19.84,-54.880001 -23.040001,-56.32 -26.4,-57.439999 l -3.68,-0.800003 -3.679998,-0.16 h -4 l -4.16,0.640004 -4.320004,0.959999 -4.319999,1.439998 -4.64,1.920002 -4.639999,2.239998 -4.640003,2.560002 -4.959999,3.040001 -4.799996,3.519996 -4.959999,3.84 -5.120003,4.16 -5.120002,4.640001 -4.96,4.800002 -5.119995,5.279998 L -104.64,-13.76 -109.6,-8 l -5.12,6.24 -4.96,6.4 -4.96,6.56 -4.8,7.04 -4.64,7.040001 -4.64,7.359998 -4.64,7.360001 -4.31999,7.68 -4.32001,7.84 -4,7.840001 -4,8 -3.67999,8 -3.68001,8 -3.36,8.159996"
       style="fill:none;stroke:#000000;stroke-width:26.4;stroke-linecap:round;stroke-linejoin:round;stroke-miterlimit:10;stroke-dasharray:none;stroke-opacity:1"
       transform="translate(462.95998,119.85328)"
       clip-path="url(#clipPath4)" />
    <path
       id="path5"
       d="M 178.56,693.44 H 405.12"
       style="fill:none;stroke:#000000;stroke-width:26.4;stroke-linecap:round;stroke-linejoin:round;stroke-miterlimit:10;stroke-dasharray:none;stroke-opacity:1"
       transform="translate(-152.08,-327.02673)"
       clip-path="url(#clipPath6)" />
    <path
       id="path7"
       d="M 178.56,391.35999 V 466.88"
       style="fill:none;stroke:#000000;stroke-width:26.4;stroke-linecap:round;stroke-linejoin:round;stroke-miterlimit:10;stroke-dasharray:none;stroke-opacity:1"
       transform="translate(-152.08,-327.02673)"
       clip-path="url(#clipPath8)" />
    <path
       id="path9"
       d="m 178.56,655.67999 v 75.52002"
       style="fill:none;stroke:#000000;stroke-width:26.4;stroke-linecap:round;stroke-linejoin:round;stroke-miterlimit:10;stroke-dasharray:none;stroke-opacity:1"
       transform="translate(-152.08,-327.02673)"
       clip-path="url(#clipPath10)" />
    <path
       id="path11"
       d="m 405.12,655.67999 v 75.52002"
       style="fill:none;stroke:#000000;stroke-width:26.4;stroke-linecap:round;stroke-linejoin:round;stroke-miterlimit:10;stroke-dasharray:none;stroke-opacity:1"
       transform="translate(-152.08,-327.02673)"
       clip-path="url(#clipPath12)" />
    <path
       id="path13"
       d="M 291.84,768.96002 329.60001,353.60001"
       style="fill:none;stroke:#000000;stroke-width:26.4;stroke-linecap:round;stroke-linejoin:round;stroke-miterlimit:10;stroke-dasharray:none;stroke-opacity:1"
       transform="translate(-152.08,-327.02673)"
       clip-path="url(#clipPath14)" />
  </g>
</svg>
