<?xml version="1.0" encoding="UTF-8" standalone="no"?>
<!-- Created with Inkscape (http://www.inkscape.org/) -->

<svg
   version="1.1"
   id="svg1"
   width="392.21332"
   height="360.38666"
   viewBox="0 0 392.21332 360.38666"
   sodipodi:docname="Quintessence5.pdf"
   xmlns:inkscape="http://www.inkscape.org/namespaces/inkscape"
   xmlns:sodipodi="http://sodipodi.sourceforge.net/DTD/sodipodi-0.dtd"
   xmlns="http://www.w3.org/2000/svg"
   xmlns:svg="http://www.w3.org/2000/svg">
  <defs
     id="defs1" />
  <sodipodi:namedview
     id="namedview1"
     pagecolor="#505050"
     bordercolor="#eeeeee"
     borderopacity="1"
     inkscape:showpageshadow="0"
     inkscape:pageopacity="0"
     inkscape:pagecheckerboard="0"
     inkscape:deskcolor="#505050">
    <inkscape:page
       x="0"
       y="0"
       inkscape:label="1"
       id="page1"
       width="392.21332"
       height="360.38666"
       margin="0"
       bleed="0" />
  </sodipodi:namedview>
  <g
     id="g1"
     inkscape:groupmode="layer"
     inkscape:label="1">
    <path
       id="path1"
       d="M 0,0 C -15.84,0 -29.76,-2.88 -41.599998,-8.8 -53.279999,-14.72 -60.639999,-24.48 -63.52,-38.400002 c -10.719998,2.880002 -20.48,4.32 -29.280003,4.32 C -121.76,-34.080002 -145.92,-44 -165.11999,-63.84 -188.8,-88.32 -200.48,-128.8 -200.48,-185.28 c 0,-57.6 9.76,-99.20001 29.6,-124.48001 10.72,-13.75998 21.91999,-23.35999 33.91999,-28.79999 12.00001,-5.6 25.76001,-8.32 41.440013,-8.32 39.359997,0 68.159996,16.48001 86.559997,49.27999 6.24,11.36002 11.2,23.68 14.56,37.12 3.52,13.28001 5.6,24.32001 6.24,32.96001 0.64,8.64 0.96,18.72 0.96,30.40001 0,46.08 -7.52,81.91999 -22.24,107.039988 -10.24,16.800003 -17.760001,27.68 -22.24,32.960003 1.28,8.48 3.84,14.239998 8,17.119999 4.16,3.040001 11.2,4.639999 21.12,4.959999 H 0 c 7.04,0 13.76,-0.799999 20.16,-2.399998 L 20.16,-2.08 C 13.76,-0.64 7.04,0 0,0 Z m -92.480003,-137.60001 c 28.160003,0 45.120002,11.36001 50.720005,34.40001 11.039999,-13.92 16.479997,-44 16.479997,-90.40001 V -200 c 0,-10.72 -0.319999,-19.52 -0.799999,-26.56 -0.479999,-6.88 -1.92,-15.36 -4.479999,-25.44 -2.56,-9.92001 -6.24,-19.20001 -11.199999,-27.51999 -5.760002,-9.44 -13.280003,-16.96002 -22.560002,-22.56 -9.440002,-5.44 -20,-8.16 -31.68,-8.16 -21.6,0 -38.08,9.44 -49.44,28.63998 -11.36,19.20002 -17.12,46.24001 -17.12,81.60001 0,50.24001 5.92,84.32 17.92,102.080002 2.24001,-7.520002 5.44,-14.080002 9.44,-19.520002 4.16001,-5.44 8.64,-9.6 13.76,-12.48 5.12,-2.72 10.08,-4.8 14.72,-5.92 4.64,-1.27999 9.440001,-1.76001 14.239997,-1.76001 z m 25.120002,62.880009 C -67.68,-86.559998 -70.080002,-95.040001 -74.400002,-100 c -4.479995,-4.96 -11.519996,-7.52 -21.439994,-7.52 -8.000004,0 -14.720004,2.56 -20.480004,7.84 -5.6,5.279998 -8.48,11.68 -8.48,19.36 v 0.959999 c 6.24,6.720002 16,10.080002 29.439999,10.080002 10.400002,0 19.680001,-1.760002 28,-5.440002 z"
       style="fill:#000000;fill-opacity:1;fill-rule:nonzero;stroke:none"
       transform="translate(571.67999,757.58661)" />
    <path
       id="path2"
       d="m 0,0 c 8.96,-0.48 25.120001,-0.8 48.799999,-0.8 0,0 7.84,0 23.360005,0 h 26.399994 c 13.280002,0 29.920002,0 49.600002,0.32 19.68,0.16 31.68,0.32 36.16001,0.32 H 188.16 V 35.68 H 37.759998 v 78.4 H 142.56 v 35.84 H 37.759998 v 7.19999 c 0,18.72001 -0.16,41.92 -0.319999,69.76001 -0.32,27.84 -0.32,43.51999 -0.32,47.19999 L 162.56,273.60001 c 4,0 8.32,-0.48001 12.96,-1.60001 4.64,-0.95999 8.32,-1.92001 11.04,-2.88 l 4,-1.76001 10.55999,35.36001 c -1.44,0.48001 -4.15998,1.28 -7.83999,2.4 -3.84,1.11999 -6.88001,2.08001 -8.95999,2.55999 -2.08001,0.64002 -4.96001,1.12 -8.96001,1.60001 -3.84,0.48001 -8,0.64001 -12.32001,0.64001 H 0 Z"
       style="fill:#000000;fill-opacity:1;fill-rule:nonzero;stroke:none"
       transform="translate(546.40002,410.06659)" />
  </g>
</svg>
