<?xml version="1.0" encoding="UTF-8" standalone="no"?>
<!-- Created with Inkscape (http://www.inkscape.org/) -->

<svg
   version="1.1"
   id="svg1"
   width="473.60001"
   height="493.86667"
   viewBox="0 0 473.60001 493.86667"
   sodipodi:docname="QuintessenceWine2.pdf"
   xmlns:inkscape="http://www.inkscape.org/namespaces/inkscape"
   xmlns:sodipodi="http://sodipodi.sourceforge.net/DTD/sodipodi-0.dtd"
   xmlns="http://www.w3.org/2000/svg"
   xmlns:svg="http://www.w3.org/2000/svg">
  <defs
     id="defs1">
    <clipPath
       clipPathUnits="userSpaceOnUse"
       id="clipPath2">
      <path
         d="M 0,0.16 V 1122.5601 H 793.59998 V 0.16 Z"
         transform="translate(-354.07999,-743.52002)"
         clip-rule="evenodd"
         id="path2" />
    </clipPath>
    <clipPath
       clipPathUnits="userSpaceOnUse"
       id="clipPath4">
      <path
         d="M 0,0.16 V 1122.5601 H 793.59998 V 0.16 Z"
         transform="translate(-381.92001,-677.76001)"
         clip-rule="evenodd"
         id="path4" />
    </clipPath>
    <clipPath
       clipPathUnits="userSpaceOnUse"
       id="clipPath6">
      <path
         d="M 0,0.16 V 1122.5601 H 793.59998 V 0.16 Z"
         transform="translate(-381.92001,-677.76001)"
         clip-rule="evenodd"
         id="path6" />
    </clipPath>
    <clipPath
       clipPathUnits="userSpaceOnUse"
       id="clipPath8">
      <path
         d="M 0,0.16 V 1122.5601 H 793.59998 V 0.16 Z"
         transform="translate(-476.79999,-781.44)"
         clip-rule="evenodd"
         id="path8" />
    </clipPath>
    <clipPath
       clipPathUnits="userSpaceOnUse"
       id="clipPath10">
      <path
         d="M 0,0.16 V 1122.5601 H 793.59998 V 0.16 Z"
         transform="translate(-547.84003,-561.28003)"
         clip-rule="evenodd"
         id="path10" />
    </clipPath>
    <clipPath
       clipPathUnits="userSpaceOnUse"
       id="clipPath12">
      <path
         d="M 0,0.16 V 1122.5601 H 793.59998 V 0.16 Z"
         transform="translate(-547.84003,-617.91998)"
         clip-rule="evenodd"
         id="path12" />
    </clipPath>
  </defs>
  <sodipodi:namedview
     id="namedview1"
     pagecolor="#505050"
     bordercolor="#eeeeee"
     borderopacity="1"
     inkscape:showpageshadow="0"
     inkscape:pageopacity="0"
     inkscape:pagecheckerboard="0"
     inkscape:deskcolor="#505050">
    <inkscape:page
       x="0"
       y="0"
       inkscape:label="1"
       id="page1"
       width="473.60001"
       height="493.86667"
       margin="0"
       bleed="0" />
  </sodipodi:namedview>
  <g
     id="g1"
     inkscape:groupmode="layer"
     inkscape:label="1">
    <path
       id="path1"
       d="m 0,0 6.08,-6.4 6.08,-6.72 5.92,-7.2 5.92,-7.36 5.76,-7.84 5.600001,-8 5.439998,-8.32 5.280003,-8.64 5.119999,-8.799999 4.959999,-9.120003 4.799999,-9.279998 4.480003,-9.440003 4.32,-9.599997 4.159996,-9.76 4,-9.92 3.68,-10.08 3.360001,-10.08 3.200005,-10.24 3.039993,-10.08 2.720001,-10.23999 L 96.32,-187.36 98.400002,-197.60001 100.32,-207.84 l 1.6,-10.08 1.44,-10.08 0.96,-9.92 0.8,-9.92 0.48,-9.6 0.16,-9.60001 v -9.28 l -0.48,-9.28 -0.64,-8.79998 -0.96,-8.80002 -1.28,-8.47998 -1.44,-8.16001 -1.919999,-7.83999 -1.919998,-7.68 -2.400002,-7.20001 -2.559997,-7.04001 -2.880005,-6.55999 -3.199997,-6.23999 -3.360001,-5.92002 -3.68,-5.44 -3.840004,-5.11999 -4,-4.63999 -4.32,-4.32001 -4.479995,-3.83999 -4.640004,-3.52002 -4.959999,-2.87998 -5.119999,-2.56002 -5.119999,-2.07999 -5.440002,-1.60001 -5.599999,-1.28 -5.6,-0.63998 -5.92,-0.32001 -5.92,0.32001 -5.92,0.63998 -6.08,1.12 -6.24,1.60001 -6.24,2.08001 -6.399999,2.4 -6.240002,3.04 -6.4,3.35999 -6.399999,3.84 -6.400002,4.16 -6.399997,4.64001 -6.240002,5.12 -6.399998,5.44 -6.239998,5.75998 -6.080001,6.24002 -6.239998,6.56 -5.920006,6.88 L -91.68,-336 l -5.919998,7.51999 -5.600002,7.84 -5.6,8.16 -5.28,8.48001 -5.28,8.64001 -5.12,8.96 -4.8,9.11999 -4.8,9.28"
       style="fill:none;stroke:#000000;stroke-width:26.4;stroke-linecap:round;stroke-linejoin:round;stroke-miterlimit:10;stroke-dasharray:none;stroke-opacity:1"
       transform="translate(193.99999,428.50663)"
       clip-path="url(#clipPath2)" />
    <path
       id="path3"
       d="m 0,0 -0.8,-4.8 -1.28,-4.96 -1.6,-4.8 -2.08,-4.640001 -2.4,-4.639999 -2.88,-4.32 -3.04,-4.16 -3.52,-4 -3.840001,-3.68 -4.159999,-3.52 -4.32,-3.360001 -4.800001,-3.039997 -4.959999,-2.720001 -5.119999,-2.400002 -5.440003,-2.239998 -5.599998,-1.920002 -5.759998,-1.439998 -5.919999,-1.279999 -6.080001,-0.960003 -6.239998,-0.639999 -6.240006,-0.32 -6.239998,0.16 -6.400001,0.319999 -6.399999,0.64 -6.24,1.120003 -6.4,1.279998 -6.08,1.599999 -6.24,1.920002 -5.92,2.239998 -5.92,2.560001 -5.6,2.880001 -5.59999,3.039997 -5.28,3.360001 -5.12001,3.52 -4.80001,3.84 -4.47999,4 -4.31999,4.32 -3.84002,4.320002 -3.67999,4.639999 -3.36,4.64 -2.88,4.96 -2.56,4.8 -2.23999,5.12 -1.92002,5.12 -1.43998,5.12 -1.12001,5.119999 -0.64,5.280001 -0.31999,5.120001 0.15998,5.119999 0.64,5.119999 0.80001,4.960003 1.28,4.959999 1.76,4.799999 2.08001,4.639999 2.39999,4.48 2.88001,4.480003 3.19999,4.159996 3.52001,3.840004 3.83999,3.839996 4.16001,3.520005 4.31999,3.199997 4.8,3.040001 4.95999,2.720001 5.28002,2.400001 5.28,2.079995 5.75999,1.920005 5.76,1.599999 5.91999,1.119995 6.08001,0.960003 6.24,0.64 6.24,0.16 h 6.24 l 6.4,-0.48 6.399999,-0.640004 6.239998,-0.959999 6.240005,-1.439995 L -76,95.839996 -69.919998,93.760002 -63.84,91.519997 -58.080002,88.959999 -52.32,86.080002 -46.880001,83.040001 -41.599998,79.68 -36.48,76.160004 -31.68,72.32 l 4.319999,-4.159996"
       style="fill:none;stroke:#000000;stroke-width:26.4;stroke-linecap:round;stroke-linejoin:round;stroke-miterlimit:10;stroke-dasharray:none;stroke-opacity:1"
       transform="translate(221.84001,362.74662)"
       clip-path="url(#clipPath4)" />
    <path
       id="path5"
       d="m 0,0 1.28,7.2 1.6,7.04 1.76,6.880001 2.24,6.559999 2.56,6.560002 2.72,6.399997 3.2,6.240002 3.359999,5.919998 3.680001,5.760002 4,5.279999 4.159999,5.280003 4.480002,4.799995 4.639999,4.480004 4.8,4.319999 5.119998,3.839997 5.280003,3.520004 L 60.16,93.120003 65.760002,96 l 5.759995,2.239998 5.760002,2.080002 5.760002,1.6 5.919998,1.12 5.919998,0.64"
       style="fill:none;stroke:#000000;stroke-width:26.4;stroke-linecap:round;stroke-linejoin:round;stroke-miterlimit:10;stroke-dasharray:none;stroke-opacity:1"
       transform="translate(221.84001,362.74662)"
       clip-path="url(#clipPath6)" />
    <path
       id="path7"
       d="m 0,0 7.2,1.76 7.04,1.28 7.200001,0.8 L 28.48,4.16 35.68,4 42.880001,3.52 49.919998,2.56 57.119999,1.12 64,-0.8 l 6.879997,-2.24 6.880005,-2.72 6.720001,-3.2 6.399994,-3.52 6.400002,-4 6.240001,-4.319999 5.92,-4.640002 5.92,-5.119998 L 120.8,-36 l 5.44,-5.759998 4.96,-6.080002 4.8,-6.560002"
       style="fill:none;stroke:#000000;stroke-width:26.4;stroke-linecap:round;stroke-linejoin:round;stroke-miterlimit:10;stroke-dasharray:none;stroke-opacity:1"
       transform="translate(316.71999,466.42661)"
       clip-path="url(#clipPath8)" />
    <path
       id="path9"
       d="m 0,0 -3.04,-0.8 -3.04,-0.48 -3.2,-0.16 h -3.04 l -3.2,0.48 -2.88,0.8 -3.040001,1.12 L -24.16,2.4 -26.879999,4.16 -29.280001,6.08 -31.52,8.32 l -1.919999,2.4 -1.760002,2.56 -1.439998,2.88 -1.119999,2.880001 -0.800003,3.039999 -0.48,3.200001 -0.16,3.039999 0.16,3.2 0.48,3.040001 0.800003,3.039997 1.119999,2.880002 1.439998,2.880001 1.760002,2.559997 L -31.52,48.32 -29.280001,50.560001 -26.879999,52.48 -24.16,54.240002 -21.440001,55.68 -18.4,56.799999 l 2.88,0.799999 3.2,0.480004 3.04,0.16 3.2,-0.16 3.04,-0.640003 3.04,-0.8"
       style="fill:none;stroke:#000000;stroke-width:26.4;stroke-linecap:round;stroke-linejoin:round;stroke-miterlimit:10;stroke-dasharray:none;stroke-opacity:1"
       transform="translate(387.76003,246.26664)"
       clip-path="url(#clipPath10)" />
    <path
       id="path11"
       d="m 0,0 -3.04,-0.8 -3.04,-0.48 -3.2,-0.16 h -3.04 l -3.2,0.48 -2.88,0.8 -3.040001,1.12 L -24.16,2.4 -26.879999,4.16 -29.280001,6.08 -31.52,8.32 l -1.919999,2.4 -1.760002,2.56 -1.439998,2.88 -1.119999,2.880001 -0.800003,3.039999 -0.48,3.200001 -0.16,3.039999 0.16,3.2 0.48,3.040001 0.800003,3.039997 1.119999,2.880002 1.439998,2.880001 1.760002,2.559997 L -31.52,48.32 -29.280001,50.560001 -26.879999,52.48 -24.16,54.240002 -21.440001,55.68 -18.4,56.799999 l 2.88,0.799999 3.2,0.480004 3.04,0.16 3.2,-0.320004 3.04,-0.479999 3.04,-0.8"
       style="fill:none;stroke:#000000;stroke-width:26.4;stroke-linecap:round;stroke-linejoin:round;stroke-miterlimit:10;stroke-dasharray:none;stroke-opacity:1"
       transform="translate(387.76003,302.90659)"
       clip-path="url(#clipPath12)" />
  </g>
</svg>
