<?xml version="1.0" encoding="UTF-8" standalone="no"?>
<!-- Created with Inkscape (http://www.inkscape.org/) -->

<svg
   version="1.1"
   id="svg1"
   width="504.26666"
   height="509.89334"
   viewBox="0 0 504.26666 509.89334"
   sodipodi:docname="Recipe2.pdf"
   xmlns:inkscape="http://www.inkscape.org/namespaces/inkscape"
   xmlns:sodipodi="http://sodipodi.sourceforge.net/DTD/sodipodi-0.dtd"
   xmlns="http://www.w3.org/2000/svg"
   xmlns:svg="http://www.w3.org/2000/svg">
  <defs
     id="defs1">
    <clipPath
       clipPathUnits="userSpaceOnUse"
       id="clipPath2">
      <path
         d="M 0,0.16 V 1122.5601 H 793.59998 V 0.16 Z"
         clip-rule="evenodd"
         id="path2" />
    </clipPath>
    <clipPath
       clipPathUnits="userSpaceOnUse"
       id="clipPath4">
      <path
         d="M 0,0.16 V 1122.5601 H 793.59998 V 0.16 Z"
         clip-rule="evenodd"
         id="path4" />
    </clipPath>
    <clipPath
       clipPathUnits="userSpaceOnUse"
       id="clipPath6">
      <path
         d="M 0,0.16 V 1122.5601 H 793.59998 V 0.16 Z"
         transform="translate(-547.84003,-636.64002)"
         clip-rule="evenodd"
         id="path6" />
    </clipPath>
    <clipPath
       clipPathUnits="userSpaceOnUse"
       id="clipPath8">
      <path
         d="M 0,0.16 V 1122.5601 H 793.59998 V 0.16 Z"
         transform="translate(-547.84003,-636.64002)"
         clip-rule="evenodd"
         id="path8" />
    </clipPath>
    <clipPath
       clipPathUnits="userSpaceOnUse"
       id="clipPath10">
      <path
         d="M 0,0.16 V 1122.5601 H 793.59998 V 0.16 Z"
         clip-rule="evenodd"
         id="path10" />
    </clipPath>
    <clipPath
       clipPathUnits="userSpaceOnUse"
       id="clipPath12">
      <path
         d="M 0,0.16 V 1122.5601 H 793.59998 V 0.16 Z"
         transform="translate(-576,-513.44001)"
         clip-rule="evenodd"
         id="path12" />
    </clipPath>
  </defs>
  <sodipodi:namedview
     id="namedview1"
     pagecolor="#505050"
     bordercolor="#eeeeee"
     borderopacity="1"
     inkscape:showpageshadow="0"
     inkscape:pageopacity="0"
     inkscape:pagecheckerboard="0"
     inkscape:deskcolor="#505050">
    <inkscape:page
       x="0"
       y="0"
       inkscape:label="1"
       id="page1"
       width="504.26666"
       height="509.89334"
       margin="0"
       bleed="0" />
  </sodipodi:namedview>
  <g
     id="g1"
     inkscape:groupmode="layer"
     inkscape:label="1">
    <path
       id="path1"
       d="M 170.39999,334.72 H 623.52002"
       style="fill:none;stroke:#000000;stroke-width:26.4;stroke-linecap:round;stroke-linejoin:round;stroke-miterlimit:10;stroke-dasharray:none;stroke-opacity:1"
       transform="translate(0,9.3332747)"
       clip-path="url(#clipPath2)" />
    <path
       id="path3"
       d="M 623.52002,334.72 396.95999,485.76001"
       style="fill:none;stroke:#000000;stroke-width:26.4;stroke-linecap:round;stroke-linejoin:round;stroke-miterlimit:10;stroke-dasharray:none;stroke-opacity:1"
       transform="translate(0,9.3332747)"
       clip-path="url(#clipPath4)" />
    <path
       id="path5"
       d="m 0,0 v -8 l -0.8,-8.16 -0.96,-8.16 -1.6,-8 -1.92,-8 -2.4,-7.84 -2.88,-7.68 -3.2,-7.520001 -3.680001,-7.36 -4,-7.040001 -4.479999,-6.879997 -4.639999,-6.720002 -5.280001,-6.239997 -5.439999,-6.240002 -5.760002,-5.76 -6.079998,-5.44 -6.400001,-5.12 -6.560002,-4.8 -6.879997,-4.32 -7.200005,-4 -7.359993,-3.68001 -7.520004,-3.19999 -7.679999,-2.87999 -7.68,-2.40001 -8,-1.92 -8,-1.60001 -8.16,-1.11999 -8.16,-0.64 -8.16,-0.31999"
       style="fill:none;stroke:#000000;stroke-width:26.4;stroke-linecap:round;stroke-linejoin:round;stroke-miterlimit:10;stroke-dasharray:none;stroke-opacity:1"
       transform="translate(547.84003,645.97329)"
       clip-path="url(#clipPath6)" />
    <path
       id="path7"
       d="M 0,0 -0.16,3.52 0,7.04 0.32,10.56 0.96,13.92 1.92,17.280001 3.2,20.48 4.8,23.68 6.72,26.559999 8.8,29.280001 11.2,31.84 13.76,34.240002 16.639999,36.32 19.52,38.080002 22.719999,39.68 25.92,40.959999 l 3.360001,0.959999 3.359998,0.640003 3.520001,0.32 h 3.52 l 3.520001,-0.32 3.36,-0.640003 3.359997,-0.959999 L 53.119999,39.68 56.32,38.080002 59.200001,36.32 62.080002,34.240002 64.639999,31.84 67.040001,29.280001 69.120003,26.559999 71.040001,23.68 l 1.599998,-3.2 1.279999,-3.199999 0.959999,-3.360001 0.64,-3.36 L 75.839996,7.04 76,3.52 75.519997,0"
       style="fill:none;stroke:#000000;stroke-width:26.4;stroke-linecap:round;stroke-linejoin:round;stroke-miterlimit:10;stroke-dasharray:none;stroke-opacity:1"
       transform="translate(547.84003,645.97329)"
       clip-path="url(#clipPath8)" />
    <path
       id="path9"
       d="M 170.39999,787.84003 574.08002,515.52002"
       style="fill:none;stroke:#000000;stroke-width:26.4;stroke-linecap:round;stroke-linejoin:round;stroke-miterlimit:10;stroke-dasharray:none;stroke-opacity:1"
       transform="translate(0,9.3332747)"
       clip-path="url(#clipPath10)" />
    <path
       id="path11"
       d="M 0,0 2.72,-2.4 5.28,-5.12 7.52,-8 l 1.92,-3.04 1.76,-3.36 1.44,-3.36 0.96,-3.520001 0.8,-3.679998 0.48,-3.68 V -32.32 l -0.32,-3.68 -0.48,-3.68 -0.96,-3.520001 -1.28,-3.52 -1.6,-3.199997 L 8.32,-53.119999 6.24,-56.16 3.84,-59.040001 1.12,-61.599998 -1.76,-63.84 -4.8,-65.919998 -8,-67.68 l -3.36,-1.440003 -3.52,-1.119995 -3.679999,-0.800003 -3.680001,-0.479996 h -3.68 l -3.68,0.159996 -3.679999,0.480004 -3.52,0.959999 -3.520001,1.119995 -3.36,1.440002 -3.360001,1.760003"
       style="fill:none;stroke:#000000;stroke-width:26.4;stroke-linecap:round;stroke-linejoin:round;stroke-miterlimit:10;stroke-dasharray:none;stroke-opacity:1"
       transform="translate(576,522.77328)"
       clip-path="url(#clipPath12)" />
  </g>
</svg>
