<?xml version="1.0" encoding="UTF-8" standalone="no"?>
<!-- Created with Inkscape (http://www.inkscape.org/) -->

<svg
   version="1.1"
   id="svg1"
   width="357.51999"
   height="520.56"
   viewBox="0 0 357.51999 520.56"
   sodipodi:docname="Recipe.pdf"
   xmlns:inkscape="http://www.inkscape.org/namespaces/inkscape"
   xmlns:sodipodi="http://sodipodi.sourceforge.net/DTD/sodipodi-0.dtd"
   xmlns="http://www.w3.org/2000/svg"
   xmlns:svg="http://www.w3.org/2000/svg">
  <defs
     id="defs1">
    <clipPath
       clipPathUnits="userSpaceOnUse"
       id="clipPath2">
      <path
         d="M 0,0.16 V 1122.5601 H 793.59998 V 0.16 Z"
         clip-rule="evenodd"
         id="path2" />
    </clipPath>
    <clipPath
       clipPathUnits="userSpaceOnUse"
       id="clipPath4">
      <path
         d="M 0,0.16 V 1122.5601 H 793.59998 V 0.16 Z"
         transform="translate(-321.92001,-556)"
         clip-rule="evenodd"
         id="path4" />
    </clipPath>
    <clipPath
       clipPathUnits="userSpaceOnUse"
       id="clipPath6">
      <path
         d="M 0,0.16 V 1122.5601 H 793.59998 V 0.16 Z"
         clip-rule="evenodd"
         id="path6" />
    </clipPath>
    <clipPath
       clipPathUnits="userSpaceOnUse"
       id="clipPath8">
      <path
         d="M 0,0.16 V 1122.5601 H 793.59998 V 0.16 Z"
         clip-rule="evenodd"
         id="path8" />
    </clipPath>
    <clipPath
       clipPathUnits="userSpaceOnUse"
       id="clipPath10">
      <path
         d="M 0,0.16 V 1122.5601 H 793.59998 V 0.16 Z"
         transform="translate(-435.51999,-745.28003)"
         clip-rule="evenodd"
         id="path10" />
    </clipPath>
    <clipPath
       clipPathUnits="userSpaceOnUse"
       id="clipPath12">
      <path
         d="M 0,0.16 V 1122.5601 H 793.59998 V 0.16 Z"
         transform="translate(-435.51999,-745.28003)"
         clip-rule="evenodd"
         id="path12" />
    </clipPath>
    <clipPath
       clipPathUnits="userSpaceOnUse"
       id="clipPath14">
      <path
         d="M 0,0.16 V 1122.5601 H 793.59998 V 0.16 Z"
         clip-rule="evenodd"
         id="path14" />
    </clipPath>
    <clipPath
       clipPathUnits="userSpaceOnUse"
       id="clipPath16">
      <path
         d="M 0,0.16 V 1122.5601 H 793.59998 V 0.16 Z"
         clip-rule="evenodd"
         id="path16" />
    </clipPath>
  </defs>
  <sodipodi:namedview
     id="namedview1"
     pagecolor="#505050"
     bordercolor="#eeeeee"
     borderopacity="1"
     inkscape:showpageshadow="0"
     inkscape:pageopacity="0"
     inkscape:pagecheckerboard="0"
     inkscape:deskcolor="#505050">
    <inkscape:page
       x="0"
       y="0"
       inkscape:label="1"
       id="page1"
       width="357.51999"
       height="520.56"
       margin="0"
       bleed="0" />
  </sodipodi:namedview>
  <g
     id="g1"
     inkscape:groupmode="layer"
     inkscape:label="1">
    <path
       id="path1"
       d="M 245.28,328.79999 V 785.28003"
       style="fill:none;stroke:#000000;stroke-width:26.4;stroke-linecap:round;stroke-linejoin:round;stroke-miterlimit:10;stroke-dasharray:none;stroke-opacity:1"
       transform="translate(-220.12,-303.00006)"
       clip-path="url(#clipPath2)" />
    <path
       id="path3"
       d="m 0,0 h 6.88 l 6.88,-0.48 6.879999,-0.96 6.880001,-1.44 6.560002,-1.76 6.559997,-2.24 6.400002,-2.56 6.239998,-3.04 6.080002,-3.36 5.919998,-3.68 5.599998,-4.16 5.280007,-4.32 5.119995,-4.799999 4.639999,-4.959999 4.480004,-5.280003 4.159996,-5.599998 3.68,-5.760003 L 101.76,-60.48 l 3.04,-6.240001 2.56,-6.400002 2.24,-6.399994 1.92,-6.720001 1.44,-6.720001 1.12,-6.879997 0.48,-6.880004 0.32,-6.88 -0.32,-7.04 -0.64,-6.88 -1.12,-6.72 -1.44,-6.87999 -1.92,-6.56 -2.24,-6.56001 -2.72,-6.4 -3.04,-6.24 -3.520002,-5.92 -3.68,-5.76 -4.159996,-5.6 -4.480004,-5.28 -4.799995,-4.95999 -5.120003,-4.64 -5.440002,-4.48001 -5.599999,-4 -5.759998,-3.68 -6.080002,-3.36 -6.239998,-2.88 L 40,-220 l -6.560001,-2.24 -6.56,-1.76 L 20,-225.28 l -6.88,-0.96 -6.88,-0.48 -7.04,-0.16"
       style="fill:none;stroke:#000000;stroke-width:26.4;stroke-linecap:round;stroke-linejoin:round;stroke-miterlimit:10;stroke-dasharray:none;stroke-opacity:1"
       transform="translate(101.80001,252.99994)"
       clip-path="url(#clipPath4)" />
    <path
       id="path5"
       d="m 246.88,330.07999 h 75.51999"
       style="fill:none;stroke:#000000;stroke-width:26.4;stroke-linecap:round;stroke-linejoin:round;stroke-miterlimit:10;stroke-dasharray:none;stroke-opacity:1"
       transform="translate(-220.12,-303.00006)"
       clip-path="url(#clipPath6)" />
    <path
       id="path7"
       d="m 246.88,556.64001 h 75.51999"
       style="fill:none;stroke:#000000;stroke-width:26.4;stroke-linecap:round;stroke-linejoin:round;stroke-miterlimit:10;stroke-dasharray:none;stroke-opacity:1"
       transform="translate(-220.12,-303.00006)"
       clip-path="url(#clipPath8)" />
    <path
       id="path9"
       d="m 0,0 -2.88,-12.8 -3.52,-12.640001 -4,-12.640001 -4.48,-12.32 -4.96,-12.159999 -5.440001,-12.16 -5.92,-11.680001 -6.399997,-11.519996 L -44.32,-109.28 l -7.2,-11.04 -7.680001,-10.71999 -7.999996,-10.56002 -8.480003,-10.07998 -8.800003,-9.76001 -9.279999,-9.44 -9.439998,-9.12 -10.08,-8.8"
       style="fill:none;stroke:#000000;stroke-width:26.4;stroke-linecap:round;stroke-linejoin:round;stroke-miterlimit:10;stroke-dasharray:none;stroke-opacity:1"
       transform="translate(215.39999,442.27997)"
       clip-path="url(#clipPath10)" />
    <path
       id="path11"
       d="m 0,0 2.72,5.44 2.88,4.96 3.2,4.96 3.68,4.48 3.84,4.32 4.319999,4 4.480002,3.84 4.799999,3.360001 5.120001,2.880001 5.119999,2.719997 5.439998,2.240002 5.600003,1.919998 5.599998,1.440002 L 62.560001,47.52 68.32,48.16 74.239998,48.32 80.160004,48 85.919998,47.360001 91.68,46.240002 97.279999,44.799999 102.88,42.880001 108.16,40.48 l 5.12,-2.720002"
       style="fill:none;stroke:#000000;stroke-width:26.4;stroke-linecap:round;stroke-linejoin:round;stroke-miterlimit:10;stroke-dasharray:none;stroke-opacity:1"
       transform="translate(215.39999,442.27997)"
       clip-path="url(#clipPath12)" />
    <path
       id="path13"
       d="m 322.39999,783.20001 226.56003,-226.56"
       style="fill:none;stroke:#000000;stroke-width:26.4;stroke-linecap:round;stroke-linejoin:round;stroke-miterlimit:10;stroke-dasharray:none;stroke-opacity:1"
       transform="translate(-220.12,-303.00006)"
       clip-path="url(#clipPath14)" />
    <path
       id="path15"
       d="M 548.96002,556.64001 511.20001,518.88"
       style="fill:none;stroke:#000000;stroke-width:26.4;stroke-linecap:round;stroke-linejoin:round;stroke-miterlimit:10;stroke-dasharray:none;stroke-opacity:1"
       transform="translate(-220.12,-303.00006)"
       clip-path="url(#clipPath16)" />
  </g>
</svg>
