<?xml version="1.0" encoding="UTF-8" standalone="no"?>
<!-- Created with Inkscape (http://www.inkscape.org/) -->

<svg
   version="1.1"
   id="svg1"
   width="410.88"
   height="485.86667"
   viewBox="0 0 410.88 485.86667"
   sodipodi:docname="RedSulphur.pdf"
   xmlns:inkscape="http://www.inkscape.org/namespaces/inkscape"
   xmlns:sodipodi="http://sodipodi.sourceforge.net/DTD/sodipodi-0.dtd"
   xmlns="http://www.w3.org/2000/svg"
   xmlns:svg="http://www.w3.org/2000/svg">
  <defs
     id="defs1">
    <clipPath
       clipPathUnits="userSpaceOnUse"
       id="clipPath2">
      <path
         d="M 0,0.16 V 1122.5601 H 793.59998 V 0.16 Z"
         transform="translate(3.3333333e-6)"
         clip-rule="evenodd"
         id="path2" />
    </clipPath>
    <clipPath
       clipPathUnits="userSpaceOnUse"
       id="clipPath4">
      <path
         d="M 0,0.16 V 1122.5601 H 793.59998 V 0.16 Z"
         transform="translate(3.3333333e-6)"
         clip-rule="evenodd"
         id="path4" />
    </clipPath>
    <clipPath
       clipPathUnits="userSpaceOnUse"
       id="clipPath6">
      <path
         d="M 0,0.16 V 1122.5601 H 793.59998 V 0.16 Z"
         transform="translate(3.3333333e-6)"
         clip-rule="evenodd"
         id="path6" />
    </clipPath>
    <clipPath
       clipPathUnits="userSpaceOnUse"
       id="clipPath8">
      <path
         d="M 0,0.16 V 1122.5601 H 793.59998 V 0.16 Z"
         transform="translate(3.3333333e-6)"
         clip-rule="evenodd"
         id="path8" />
    </clipPath>
    <clipPath
       clipPathUnits="userSpaceOnUse"
       id="clipPath10">
      <path
         d="M 0,0.16 V 1122.5601 H 793.59998 V 0.16 Z"
         transform="translate(-477.60001,-599.84003)"
         clip-rule="evenodd"
         id="path10" />
    </clipPath>
  </defs>
  <sodipodi:namedview
     id="namedview1"
     pagecolor="#505050"
     bordercolor="#eeeeee"
     borderopacity="1"
     inkscape:showpageshadow="0"
     inkscape:pageopacity="0"
     inkscape:pagecheckerboard="0"
     inkscape:deskcolor="#505050">
    <inkscape:page
       x="0"
       y="0"
       inkscape:label="1"
       id="page1"
       width="410.88"
       height="485.86667"
       margin="0"
       bleed="0" />
  </sodipodi:namedview>
  <g
     id="g1"
     inkscape:groupmode="layer"
     inkscape:label="1">
    <path
       id="path1"
       d="M 329.28,400.79999 216,778.40002"
       style="fill:none;stroke:#000000;stroke-width:26.4;stroke-linecap:round;stroke-linejoin:round;stroke-miterlimit:10;stroke-dasharray:none;stroke-opacity:1"
       transform="translate(-192.10667,-317.68006)"
       clip-path="url(#clipPath2)" />
    <path
       id="path3"
       d="M 329.28,400.79999 H 216"
       style="fill:none;stroke:#000000;stroke-width:26.4;stroke-linecap:round;stroke-linejoin:round;stroke-miterlimit:10;stroke-dasharray:none;stroke-opacity:1"
       transform="translate(-192.10667,-317.68006)"
       clip-path="url(#clipPath4)" />
    <path
       id="path5"
       d="M 216,400.79999 V 344.16"
       style="fill:none;stroke:#000000;stroke-width:26.4;stroke-linecap:round;stroke-linejoin:round;stroke-miterlimit:10;stroke-dasharray:none;stroke-opacity:1"
       transform="translate(-192.10667,-317.68006)"
       clip-path="url(#clipPath6)" />
    <path
       id="path7"
       d="M 216,778.40002 442.56,476.32001"
       style="fill:none;stroke:#000000;stroke-width:26.4;stroke-linecap:round;stroke-linejoin:round;stroke-miterlimit:10;stroke-dasharray:none;stroke-opacity:1"
       transform="translate(-192.10667,-317.68006)"
       clip-path="url(#clipPath8)" />
    <path
       id="path9"
       d="m 0,0 5.12,-0.32 4.96,-0.8 5.12,-0.96 5.12,-1.44 5.120001,-1.92 4.959999,-2.08 5.12,-2.4 4.96,-2.88 4.959999,-3.04 4.800003,-3.360001 4.639999,-3.679998 4.48,-3.84 4.479999,-4.16 L 68,-35.360001 72,-40 l 3.839996,-4.799999 3.520005,-4.959999 3.36,-5.120003 3.040001,-5.279999 2.879997,-5.439998 2.400002,-5.440003 2.239998,-5.440002 1.919998,-5.599999 1.600006,-5.599998 1.279999,-5.599999 0.959999,-5.440002 L 99.68,-104.16 100,-109.6 v -5.28 l -0.32,-5.28 -0.639999,-4.96 -0.959999,-4.96 -1.440003,-4.64 -1.599998,-4.48 -1.919998,-4.16 -2.240006,-4 -2.559997,-3.84 -2.879998,-3.36 -3.04,-3.19999 -3.360001,-2.88001 -3.68,-2.56 -3.840004,-2.24 -4,-1.92 -4.159996,-1.60001 -4.48,-1.11999 -4.479999,-0.8 -4.800004,-0.48 -4.799999,-0.16 -4.959999,0.16 -4.959999,0.64 -4.960001,0.96001 -5.120001,1.27999 -5.119999,1.76 -5.12,1.92 -5.12,2.40001 -4.96,2.55999 -4.96,3.04 -4.8,3.19999 -4.8,3.68001 -4.48,3.84 -4.480001,4 -4.32,4.32001 -4,4.64 -4,4.63999 -3.68,4.8"
       style="fill:none;stroke:#000000;stroke-width:26.4;stroke-linecap:round;stroke-linejoin:round;stroke-miterlimit:10;stroke-dasharray:none;stroke-opacity:1"
       transform="translate(285.49334,282.15997)"
       clip-path="url(#clipPath10)" />
  </g>
</svg>
