<?xml version="1.0" encoding="UTF-8" standalone="no"?>
<!-- Created with Inkscape (http://www.inkscape.org/) -->

<svg
   version="1.1"
   id="svg1"
   width="376.21332"
   height="500.54666"
   viewBox="0 0 376.21332 500.54666"
   sodipodi:docname="RedSulphur2.pdf"
   xmlns:inkscape="http://www.inkscape.org/namespaces/inkscape"
   xmlns:sodipodi="http://sodipodi.sourceforge.net/DTD/sodipodi-0.dtd"
   xmlns="http://www.w3.org/2000/svg"
   xmlns:svg="http://www.w3.org/2000/svg">
  <defs
     id="defs1">
    <clipPath
       clipPathUnits="userSpaceOnUse"
       id="clipPath2">
      <path
         d="M 0,0.16 V 1122.5601 H 793.59998 V 0.16 Z"
         clip-rule="evenodd"
         id="path2" />
    </clipPath>
    <clipPath
       clipPathUnits="userSpaceOnUse"
       id="clipPath4">
      <path
         d="M 0,0.16 V 1122.5601 H 793.59998 V 0.16 Z"
         clip-rule="evenodd"
         id="path4" />
    </clipPath>
    <clipPath
       clipPathUnits="userSpaceOnUse"
       id="clipPath6">
      <path
         d="M 0,0.16 V 1122.5601 H 793.59998 V 0.16 Z"
         clip-rule="evenodd"
         id="path6" />
    </clipPath>
    <clipPath
       clipPathUnits="userSpaceOnUse"
       id="clipPath8">
      <path
         d="M 0,0.16 V 1122.5601 H 793.59998 V 0.16 Z"
         clip-rule="evenodd"
         id="path8" />
    </clipPath>
    <clipPath
       clipPathUnits="userSpaceOnUse"
       id="clipPath10">
      <path
         d="M 0,0.16 V 1122.5601 H 793.59998 V 0.16 Z"
         transform="translate(-558.40002,-400.96)"
         clip-rule="evenodd"
         id="path10" />
    </clipPath>
  </defs>
  <sodipodi:namedview
     id="namedview1"
     pagecolor="#505050"
     bordercolor="#eeeeee"
     borderopacity="1"
     inkscape:showpageshadow="0"
     inkscape:pageopacity="0"
     inkscape:pagecheckerboard="0"
     inkscape:deskcolor="#505050">
    <inkscape:page
       x="0"
       y="0"
       inkscape:label="1"
       id="page1"
       width="376.21332"
       height="500.54666"
       margin="0"
       bleed="0" />
  </sodipodi:namedview>
  <g
     id="g1"
     inkscape:groupmode="layer"
     inkscape:label="1">
    <path
       id="path1"
       d="M 348.48001,334.72 V 787.84003"
       style="fill:none;stroke:#000000;stroke-width:26.4;stroke-linecap:round;stroke-linejoin:round;stroke-miterlimit:10;stroke-dasharray:none;stroke-opacity:1"
       transform="translate(0,8.0132747)"
       clip-path="url(#clipPath2)" />
    <path
       id="path3"
       d="M 235.2,334.72 V 561.28003"
       style="fill:none;stroke:#000000;stroke-width:26.4;stroke-linecap:round;stroke-linejoin:round;stroke-miterlimit:10;stroke-dasharray:none;stroke-opacity:1"
       transform="translate(0,8.0132747)"
       clip-path="url(#clipPath4)" />
    <path
       id="path5"
       d="M 235.2,561.28003 H 461.76001"
       style="fill:none;stroke:#000000;stroke-width:26.4;stroke-linecap:round;stroke-linejoin:round;stroke-miterlimit:10;stroke-dasharray:none;stroke-opacity:1"
       transform="translate(0,8.0132747)"
       clip-path="url(#clipPath6)" />
    <path
       id="path7"
       d="M 235.2,674.56 H 461.76001"
       style="fill:none;stroke:#000000;stroke-width:26.4;stroke-linecap:round;stroke-linejoin:round;stroke-miterlimit:10;stroke-dasharray:none;stroke-opacity:1"
       transform="translate(0,8.0132747)"
       clip-path="url(#clipPath8)" />
    <path
       id="path9"
       d="m 0,0 -1.76,-7.04 -2.08,-6.88 -2.08,-6.56 -2.08,-6.079999 -2.24,-5.760001 -2.24,-5.279998 -2.24,-4.800004 -2.400001,-4.479999 -2.399999,-4 -2.4,-3.520001 -2.56,-3.199996 L -27.040001,-60.16 -29.6,-62.400002 -32.16,-64 l -2.560001,-1.279999 -2.719998,-0.639999 -2.560001,-0.32 -2.560001,0.32 -2.719998,0.639999 L -47.84,-64 l -2.560002,1.599998 -2.559997,2.240002 -2.560001,2.560002 -2.399998,3.199996 -2.560002,3.520001 -2.400001,4 -2.399998,4.479999 -2.239998,4.800004 L -69.760002,-32.32 -72,-26.559999 -74.080002,-20.48 l -2.080002,6.56 -1.919998,6.88 L -80,0.16 l -1.760002,7.52 -1.759995,8 -1.600006,8.16 -1.599998,8.48 -1.440003,8.799999 -1.279998,8.960003 -1.279999,9.279999 -1.119995,9.440002 -0.960007,9.759995 -0.959999,9.760002 -0.64,10.080002 L -95.040001,108.48 -95.68,118.72 -96,129.11999 -96.32,139.36 l -0.160003,10.56 -0.159996,10.40001"
       style="fill:none;stroke:#000000;stroke-width:26.4;stroke-linecap:round;stroke-linejoin:round;stroke-miterlimit:10;stroke-dasharray:none;stroke-opacity:1"
       transform="translate(558.40002,408.97327)"
       clip-path="url(#clipPath10)" />
  </g>
</svg>
