<?xml version="1.0" encoding="UTF-8" standalone="no"?>
<!-- Created with Inkscape (http://www.inkscape.org/) -->

<svg
   version="1.1"
   id="svg1"
   width="310.82666"
   height="315.01334"
   viewBox="0 0 310.82666 315.01334"
   sodipodi:docname="Soil19.pdf"
   xmlns:inkscape="http://www.inkscape.org/namespaces/inkscape"
   xmlns:sodipodi="http://sodipodi.sourceforge.net/DTD/sodipodi-0.dtd"
   xmlns="http://www.w3.org/2000/svg"
   xmlns:svg="http://www.w3.org/2000/svg">
  <defs
     id="defs1">
    <clipPath
       clipPathUnits="userSpaceOnUse"
       id="clipPath2">
      <path
         d="M 0,0.16 V 1122.5601 H 793.59998 V 0.16 Z"
         transform="translate(-431.04001,-485.76001)"
         clip-rule="evenodd"
         id="path2" />
    </clipPath>
    <clipPath
       clipPathUnits="userSpaceOnUse"
       id="clipPath4">
      <path
         d="M 0,0.16 V 1122.5601 H 793.59998 V 0.16 Z"
         transform="translate(-431.04001,-636.79999)"
         clip-rule="evenodd"
         id="path4" />
    </clipPath>
    <clipPath
       clipPathUnits="userSpaceOnUse"
       id="clipPath6">
      <path
         d="M 0,0.16 V 1122.5601 H 793.59998 V 0.16 Z"
         transform="translate(-528.96002,-561.28003)"
         clip-rule="evenodd"
         id="path6" />
    </clipPath>
    <clipPath
       clipPathUnits="userSpaceOnUse"
       id="clipPath8">
      <path
         d="M 0,0.16 V 1122.5601 H 793.59998 V 0.16 Z"
         transform="translate(-377.92001,-561.28003)"
         clip-rule="evenodd"
         id="path8" />
    </clipPath>
    <clipPath
       clipPathUnits="userSpaceOnUse"
       id="clipPath10">
      <path
         d="M 0,0.16 V 1122.5601 H 793.59998 V 0.16 Z"
         transform="translate(-410.07999,-485.76001)"
         clip-rule="evenodd"
         id="path10" />
    </clipPath>
    <clipPath
       clipPathUnits="userSpaceOnUse"
       id="clipPath12">
      <path
         d="M 0,0.16 V 1122.5601 H 793.59998 V 0.16 Z"
         transform="translate(-485.60001,-561.28003)"
         clip-rule="evenodd"
         id="path12" />
    </clipPath>
    <clipPath
       clipPathUnits="userSpaceOnUse"
       id="clipPath14">
      <path
         d="M 0,0.16 V 1122.5601 H 793.59998 V 0.16 Z"
         transform="translate(-410.07999,-636.79999)"
         clip-rule="evenodd"
         id="path14" />
    </clipPath>
    <clipPath
       clipPathUnits="userSpaceOnUse"
       id="clipPath16">
      <path
         d="M 0,0.16 V 1122.5601 H 793.59998 V 0.16 Z"
         transform="translate(-334.56,-561.28003)"
         clip-rule="evenodd"
         id="path16" />
    </clipPath>
    <clipPath
       clipPathUnits="userSpaceOnUse"
       id="clipPath18">
      <path
         d="M 0,0.16 V 1122.5601 H 793.59998 V 0.16 Z"
         transform="translate(-410.07999,-485.76001)"
         clip-rule="evenodd"
         id="path18" />
    </clipPath>
    <clipPath
       clipPathUnits="userSpaceOnUse"
       id="clipPath20">
      <path
         d="M 0,0.16 V 1122.5601 H 793.59998 V 0.16 Z"
         transform="translate(-485.60001,-561.28003)"
         clip-rule="evenodd"
         id="path20" />
    </clipPath>
    <clipPath
       clipPathUnits="userSpaceOnUse"
       id="clipPath22">
      <path
         d="M 0,0.16 V 1122.5601 H 793.59998 V 0.16 Z"
         transform="translate(-410.07999,-636.79999)"
         clip-rule="evenodd"
         id="path22" />
    </clipPath>
    <clipPath
       clipPathUnits="userSpaceOnUse"
       id="clipPath24">
      <path
         d="M 0,0.16 V 1122.5601 H 793.59998 V 0.16 Z"
         transform="translate(-334.56,-561.28003)"
         clip-rule="evenodd"
         id="path24" />
    </clipPath>
  </defs>
  <sodipodi:namedview
     id="namedview1"
     pagecolor="#505050"
     bordercolor="#eeeeee"
     borderopacity="1"
     inkscape:showpageshadow="0"
     inkscape:pageopacity="0"
     inkscape:pagecheckerboard="0"
     inkscape:deskcolor="#505050">
    <inkscape:page
       x="0"
       y="0"
       inkscape:label="1"
       id="page1"
       width="310.82666"
       height="315.01334"
       margin="0"
       bleed="0" />
  </sodipodi:namedview>
  <g
     id="g1"
     inkscape:groupmode="layer"
     inkscape:label="1">
    <path
       id="path1"
       d="m 0,0 c 0,-31.280001 -15.29,-56.639999 -34.16,-56.639999 -18.869999,0 -34.16,25.359998 -34.16,56.639999 0,31.280001 15.290001,56.639999 34.16,56.639999 C -15.29,56.639999 0,31.280001 0,0 Z"
       style="fill:none;stroke:#000000;stroke-width:26.4;stroke-linecap:round;stroke-linejoin:round;stroke-miterlimit:10;stroke-dasharray:none;stroke-opacity:1"
       transform="translate(431.04001,484.42662)"
       clip-path="url(#clipPath2)" />
    <path
       id="path3"
       d="m 0,0 c 0,-31.280001 -15.29,-56.639999 -34.16,-56.639999 -18.869999,0 -34.16,25.359998 -34.16,56.639999 0,31.280001 15.290001,56.639999 34.16,56.639999 C -15.29,56.639999 0,31.280001 0,0 Z"
       style="fill:none;stroke:#000000;stroke-width:26.4;stroke-linecap:round;stroke-linejoin:round;stroke-miterlimit:10;stroke-dasharray:none;stroke-opacity:1"
       transform="translate(431.04001,635.4666)"
       clip-path="url(#clipPath4)" />
    <path
       id="path5"
       d="M 0,0 C 0,-18.91 -25.35,-34.240002 -56.639999,-34.240002 -87.93,-34.240002 -113.28,-18.91 -113.28,0 c 0,18.91 25.35,34.240002 56.640001,34.240002 C -25.35,34.240002 0,18.91 0,0 Z"
       style="fill:none;stroke:#000000;stroke-width:26.4;stroke-linecap:round;stroke-linejoin:round;stroke-miterlimit:10;stroke-dasharray:none;stroke-opacity:1"
       transform="translate(528.96002,559.94664)"
       clip-path="url(#clipPath6)" />
    <path
       id="path7"
       d="M 0,0 C 0,-18.91 -25.35,-34.240002 -56.639999,-34.240002 -87.93,-34.240002 -113.28,-18.91 -113.28,0 c 0,18.91 25.35,34.240002 56.640001,34.240002 C -25.35,34.240002 0,18.91 0,0 Z"
       style="fill:none;stroke:#000000;stroke-width:26.4;stroke-linecap:round;stroke-linejoin:round;stroke-miterlimit:10;stroke-dasharray:none;stroke-opacity:1"
       transform="translate(377.92001,559.94664)"
       clip-path="url(#clipPath8)" />
    <path
       id="path9"
       d="m 0,0 -0.16,-1.76 -0.32,-1.6 -0.48,-1.6 -0.8,-1.6 -0.96,-1.44 -1.12,-1.28 -1.28,-1.12 -1.44,-0.96 -1.6,-0.8 -1.6,-0.64 -1.76,-0.32 h -1.76 -1.6 l -1.759999,0.32 -1.600001,0.64 -1.6,0.8 -1.440001,0.96 -1.279998,1.12 L -23.68,-8 l -0.959999,1.44 -0.800002,1.6 -0.479999,1.6 -0.48,1.6 V 0 1.76 l 0.48,1.76 0.479999,1.6 0.800002,1.44 L -23.68,8 l 1.120001,1.44 1.279998,1.12 1.440001,0.96 1.6,0.64 1.600001,0.64 1.759999,0.32 1.6,0.16 1.76,-0.16 1.76,-0.32 1.6,-0.64 1.6,-0.64 1.44,-0.96 L -3.84,9.44 -2.72,8 -1.76,6.56 -0.96,5.12 -0.48,3.52 -0.16,1.76 0,0 v 0 z"
       style="fill:#000000;fill-opacity:1;fill-rule:evenodd;stroke:none"
       transform="translate(410.07999,484.42662)"
       clip-path="url(#clipPath10)" />
    <path
       id="path11"
       d="m 0,0 -0.16,-1.76 -0.32,-1.6 -0.48,-1.6 -0.8,-1.6 -0.96,-1.44 -1.12,-1.28 -1.28,-1.12 -1.44,-0.96 -1.6,-0.8 -1.6,-0.64 -1.76,-0.32 h -1.76 -1.6 l -1.759999,0.32 -1.600001,0.64 -1.6,0.8 -1.440001,0.96 -1.279998,1.12 L -23.68,-8 l -0.959999,1.44 -0.800002,1.6 -0.479999,1.6 -0.48,1.6 V 0 1.76 l 0.48,1.76 0.479999,1.6 0.800002,1.44 L -23.68,8 l 1.120001,1.44 1.279998,1.12 1.440001,0.96 1.6,0.64 1.600001,0.64 1.759999,0.32 1.6,0.16 1.76,-0.16 1.76,-0.32 1.6,-0.64 1.6,-0.64 1.44,-0.96 L -3.84,9.44 -2.72,8 -1.76,6.56 -0.96,5.12 -0.48,3.52 -0.16,1.76 0,0 v 0 z"
       style="fill:#000000;fill-opacity:1;fill-rule:evenodd;stroke:none"
       transform="translate(485.60001,559.94664)"
       clip-path="url(#clipPath12)" />
    <path
       id="path13"
       d="m 0,0 -0.16,-1.76 -0.32,-1.6 -0.48,-1.76 -0.8,-1.44 -0.96,-1.44 -1.12,-1.28 -1.28,-1.12 -1.44,-0.96 -1.6,-0.8 -1.6,-0.64 -1.76,-0.32 h -1.76 -1.6 l -1.759999,0.32 -1.600001,0.64 -1.6,0.8 -1.440001,0.96 -1.279998,1.12 L -23.68,-8 l -0.959999,1.44 -0.800002,1.44 -0.479999,1.76 -0.48,1.6 V 0 1.76 l 0.48,1.6 0.479999,1.76 0.800002,1.44 L -23.68,8 l 1.120001,1.28 1.279998,1.28 1.440001,0.96 1.6,0.64 1.600001,0.64 1.759999,0.32 1.6,0.16 1.76,-0.16 1.76,-0.32 1.6,-0.64 1.6,-0.64 1.44,-0.96 L -3.84,9.28 -2.72,8 -1.76,6.56 -0.96,5.12 -0.48,3.36 -0.16,1.76 0,0 v 0 z"
       style="fill:#000000;fill-opacity:1;fill-rule:evenodd;stroke:none"
       transform="translate(410.07999,635.4666)"
       clip-path="url(#clipPath14)" />
    <path
       id="path15"
       d="m 0,0 -0.16,-1.76 -0.32,-1.6 -0.48,-1.6 -0.8,-1.6 -0.96,-1.44 -1.12,-1.28 -1.28,-1.12 -1.44,-0.96 -1.6,-0.8 -1.6,-0.64 -1.76,-0.32 h -1.76 -1.6 l -1.759999,0.32 -1.600001,0.64 -1.6,0.8 -1.440001,0.96 -1.279998,1.12 L -23.68,-8 l -0.959999,1.44 -0.800002,1.6 -0.479999,1.6 -0.48,1.6 V 0 1.76 l 0.48,1.76 0.479999,1.6 0.800002,1.44 L -23.68,8 l 1.120001,1.44 1.279998,1.12 1.440001,0.96 1.6,0.64 1.600001,0.64 1.759999,0.32 1.6,0.16 1.76,-0.16 1.76,-0.32 1.6,-0.64 1.6,-0.64 1.44,-0.96 L -3.84,9.44 -2.72,8 -1.76,6.56 -0.96,5.12 -0.48,3.52 -0.16,1.76 0,0 v 0 z"
       style="fill:#000000;fill-opacity:1;fill-rule:evenodd;stroke:none"
       transform="translate(334.56,559.94664)"
       clip-path="url(#clipPath16)" />
    <path
       id="path17"
       d="m 0,0 -0.16,-1.76 -0.32,-1.6 -0.48,-1.6 -0.8,-1.6 -0.96,-1.44 -1.12,-1.28 -1.28,-1.12 -1.44,-0.96 -1.6,-0.8 -1.6,-0.64 -1.76,-0.32 h -1.76 -1.6 l -1.759999,0.32 -1.600001,0.64 -1.6,0.8 -1.440001,0.96 -1.279998,1.12 L -23.68,-8 l -0.959999,1.44 -0.800002,1.6 -0.479999,1.6 -0.48,1.6 V 0 1.76 l 0.48,1.76 0.479999,1.6 0.800002,1.44 L -23.68,8 l 1.120001,1.44 1.279998,1.12 1.440001,0.96 1.6,0.64 1.600001,0.64 1.759999,0.32 1.6,0.16 1.76,-0.16 1.76,-0.32 1.6,-0.64 1.6,-0.64 1.44,-0.96 L -3.84,9.44 -2.72,8 -1.76,6.56 -0.96,5.12 -0.48,3.52 -0.16,1.76 0,0"
       style="fill:none;stroke:#000000;stroke-width:0.64;stroke-linecap:round;stroke-linejoin:round;stroke-miterlimit:10;stroke-dasharray:none;stroke-opacity:1"
       transform="translate(410.07999,484.42662)"
       clip-path="url(#clipPath18)" />
    <path
       id="path19"
       d="m 0,0 -0.16,-1.76 -0.32,-1.6 -0.48,-1.6 -0.8,-1.6 -0.96,-1.44 -1.12,-1.28 -1.28,-1.12 -1.44,-0.96 -1.6,-0.8 -1.6,-0.64 -1.76,-0.32 h -1.76 -1.6 l -1.759999,0.32 -1.600001,0.64 -1.6,0.8 -1.440001,0.96 -1.279998,1.12 L -23.68,-8 l -0.959999,1.44 -0.800002,1.6 -0.479999,1.6 -0.48,1.6 V 0 1.76 l 0.48,1.76 0.479999,1.6 0.800002,1.44 L -23.68,8 l 1.120001,1.44 1.279998,1.12 1.440001,0.96 1.6,0.64 1.600001,0.64 1.759999,0.32 1.6,0.16 1.76,-0.16 1.76,-0.32 1.6,-0.64 1.6,-0.64 1.44,-0.96 L -3.84,9.44 -2.72,8 -1.76,6.56 -0.96,5.12 -0.48,3.52 -0.16,1.76 0,0"
       style="fill:none;stroke:#000000;stroke-width:0.64;stroke-linecap:round;stroke-linejoin:round;stroke-miterlimit:10;stroke-dasharray:none;stroke-opacity:1"
       transform="translate(485.60001,559.94664)"
       clip-path="url(#clipPath20)" />
    <path
       id="path21"
       d="m 0,0 -0.16,-1.76 -0.32,-1.6 -0.48,-1.76 -0.8,-1.44 -0.96,-1.44 -1.12,-1.28 -1.28,-1.12 -1.44,-0.96 -1.6,-0.8 -1.6,-0.64 -1.76,-0.32 h -1.76 -1.6 l -1.759999,0.32 -1.600001,0.64 -1.6,0.8 -1.440001,0.96 -1.279998,1.12 L -23.68,-8 l -0.959999,1.44 -0.800002,1.44 -0.479999,1.76 -0.48,1.6 V 0 1.76 l 0.48,1.6 0.479999,1.76 0.800002,1.44 L -23.68,8 l 1.120001,1.28 1.279998,1.28 1.440001,0.96 1.6,0.64 1.600001,0.64 1.759999,0.32 1.6,0.16 1.76,-0.16 1.76,-0.32 1.6,-0.64 1.6,-0.64 1.44,-0.96 L -3.84,9.28 -2.72,8 -1.76,6.56 -0.96,5.12 -0.48,3.36 -0.16,1.76 0,0"
       style="fill:none;stroke:#000000;stroke-width:0.64;stroke-linecap:round;stroke-linejoin:round;stroke-miterlimit:10;stroke-dasharray:none;stroke-opacity:1"
       transform="translate(410.07999,635.4666)"
       clip-path="url(#clipPath22)" />
    <path
       id="path23"
       d="m 0,0 -0.16,-1.76 -0.32,-1.6 -0.48,-1.6 -0.8,-1.6 -0.96,-1.44 -1.12,-1.28 -1.28,-1.12 -1.44,-0.96 -1.6,-0.8 -1.6,-0.64 -1.76,-0.32 h -1.76 -1.6 l -1.759999,0.32 -1.600001,0.64 -1.6,0.8 -1.440001,0.96 -1.279998,1.12 L -23.68,-8 l -0.959999,1.44 -0.800002,1.6 -0.479999,1.6 -0.48,1.6 V 0 1.76 l 0.48,1.76 0.479999,1.6 0.800002,1.44 L -23.68,8 l 1.120001,1.44 1.279998,1.12 1.440001,0.96 1.6,0.64 1.600001,0.64 1.759999,0.32 1.6,0.16 1.76,-0.16 1.76,-0.32 1.6,-0.64 1.6,-0.64 1.44,-0.96 L -3.84,9.44 -2.72,8 -1.76,6.56 -0.96,5.12 -0.48,3.52 -0.16,1.76 0,0"
       style="fill:none;stroke:#000000;stroke-width:0.64;stroke-linecap:round;stroke-linejoin:round;stroke-miterlimit:10;stroke-dasharray:none;stroke-opacity:1"
       transform="translate(334.56,559.94664)"
       clip-path="url(#clipPath24)" />
  </g>
</svg>
