<?xml version="1.0" encoding="UTF-8" standalone="no"?>
<!-- Created with Inkscape (http://www.inkscape.org/) -->

<svg
   version="1.1"
   id="svg1"
   width="352.18668"
   height="157.50667"
   viewBox="0 0 352.18668 157.50667"
   sodipodi:docname="Soil22.pdf"
   xmlns:inkscape="http://www.inkscape.org/namespaces/inkscape"
   xmlns:sodipodi="http://sodipodi.sourceforge.net/DTD/sodipodi-0.dtd"
   xmlns="http://www.w3.org/2000/svg"
   xmlns:svg="http://www.w3.org/2000/svg">
  <defs
     id="defs1">
    <clipPath
       clipPathUnits="userSpaceOnUse"
       id="clipPath2">
      <path
         d="M -245.75999,-540.47998 V 581.91998 H 547.84003 V -540.47998 Z"
         clip-rule="evenodd"
         id="path2" />
    </clipPath>
  </defs>
  <sodipodi:namedview
     id="namedview1"
     pagecolor="#505050"
     bordercolor="#eeeeee"
     borderopacity="1"
     inkscape:showpageshadow="0"
     inkscape:pageopacity="0"
     inkscape:pagecheckerboard="0"
     inkscape:deskcolor="#505050">
    <inkscape:page
       x="0"
       y="0"
       inkscape:label="1"
       id="page1"
       width="352.18668"
       height="157.50667"
       margin="0"
       bleed="0" />
  </sodipodi:namedview>
  <g
     id="g1"
     inkscape:groupmode="layer"
     inkscape:label="1">
    <path
       id="path1"
       d="m 0,0 2.24,-2.72 3.36,-4 3.04,-3.84 2.88,-3.52 2.72,-3.200001 L 16.799999,-20.16 19.360001,-22.879999 21.76,-25.120001 24,-26.879999 26.24,-28.48 28.32,-29.440001 30.24,-30.08 31.360001,-30.4 h 2.239997 l 2.240002,0.32 2.560002,0.639999 2.559997,1.280001 2.720001,1.600001 3.200001,2.079999 3.360001,2.72 3.679996,3.040001 L 54.880001,-17.92 56.32,-16.639999 60.959999,-12.8 66.400002,-8 73.919998,-1.6 80.32,4 l 3.040001,2.72 3.040001,2.56 1.439994,1.12 3.840004,3.36 3.839997,3.360001 3.520004,3.199999 3.519999,3.2 3.04,3.520001 2.24,2.879999 0.8,0.959999 1.92,3.200003 1.76,3.679996 1.28,3.84 0.96,3.680001 0.32,3.52 V 51.200001 52.32 l -0.48,2.880001 -0.96,3.040001 -1.28,2.879997 -1.6,2.720001 -2.08,2.399998 -1.6,1.760002 -0.8,0.480003 -2.08,1.599999 -2.88,1.439995 -2.880002,0.960006 -3.199997,0.799996 -3.520004,0.160003 H 90.080002 88.959999 L 86.080002,73.120003 82.239998,72.32 78.559998,71.040001 75.040001,69.279999 72,67.360001 71.199997,66.720001 70.559998,66.080002 68.480003,64 66.559998,61.439999 65.120003,58.880001 64.32,56 63.68,53.119999 v -2.879997 l 0.16,-0.640004 v -0.959999 l 0.640003,-3.040001 1.119995,-3.199996 1.599999,-3.360001 2.080002,-3.360001 2.559997,-3.36 2.080002,-2.4 0.800003,-0.799999 2.400002,-2.08 L 80.639999,24.16 83.040001,22.4 84.959999,20.799999 88.639999,17.92 92,14.88 92.800003,14.08 94.080002,12.8 97.120003,9.76 100.48,5.92 l 4.16,-4.48 5.12,-5.76 7.84,-8.16 3.36,-3.2 1.44,-1.440001 4.48,-3.839998 4.32,-3.200001 3.83999,-2.559999 3.68001,-1.92 3.2,-1.440001 3.04001,-0.960001 2.71998,-0.32 h 0.96001 1.11999 l 2.24001,0.32 2.24,0.800001 2.24,1.280001 2.55999,1.759998 2.72,2.400002 3.36,2.879999 3.52001,3.040001 1.28,0.959999 3.68001,2.88 4.79998,3.52 5.44001,3.84 6.4,4.32 6.72001,4.8 1.43998,1.28 4.80001,3.52 8.16,6.56 3.67999,3.2 5.12001,4.959999 3.84,4 1.28,1.280001 0.96,1.120001 2.24,3.039999 1.91999,2.879999 1.44001,2.880001 1.12001,2.720001 0.64,2.879997 0.15998,2.880001 L 233.60001,47.68 H 233.44 l -0.16,1.119999 -0.8,3.040001 -1.28,3.360001 -1.76,3.52 -2.24,3.84 -2.72,3.520001 -1.12,1.279999 -0.64,0.800003 -1.75999,1.919998 L 218.88,71.68 l -2.08,1.120003 -1.92,0.479996 h -2.08 l -2.24,-0.32 -1.44001,-0.479996 L 208.16,72 205.92,70.720001 203.36,69.120003 200.48,66.879997 197.60001,64 195.2,60.799999 193.28,57.759998 192,54.720001 191.67999,53.599998 191.36,50.880001 V 48.16 l 0.31999,-3.040001 0.80001,-3.039997 1.27999,-3.200001 L 195.36,35.52 l 2.08,-3.04 0.64,-0.96 1.92,-2.560001 2.88,-3.039999 3.68,-3.52 2.08,-1.92 3.68001,-3.520001 L 213.28,16.16 l 1.11999,-1.12 3.20002,-3.2 3.67999,-3.68 4.64,-4.64 5.92,-5.76 5.6,-5.28 1.44,-1.12 4,-3.2 5.44001,-4 4.64,-3.200001 4.15999,-2.4 3.67999,-1.76 L 262.88,-24 l 1.12,-0.32 2.72,-0.800001 2.56,-0.32 2.56,0.16 2.55999,0.480002 2.56,0.959999 2.72,1.44 2.4,1.600001 0.96002,0.799999 2.88,2.4 3.35999,2.88 3.84,3.68 4.32,4.96 1.76001,2.08 2.4,3.36 0.47998,0.64"
       style="fill:none;stroke:#000000;stroke-width:26.4;stroke-linecap:round;stroke-linejoin:round;stroke-miterlimit:10;stroke-dasharray:none;stroke-opacity:1"
       transform="translate(20.306662,61.45329)"
       clip-path="url(#clipPath2)" />
  </g>
</svg>
