<?xml version="1.0" encoding="UTF-8" standalone="no"?>
<!-- Created with Inkscape (http://www.inkscape.org/) -->

<svg
   version="1.1"
   id="svg1"
   width="428.22668"
   height="200.22667"
   viewBox="0 0 428.22668 200.22667"
   sodipodi:docname="Soil12.pdf"
   xmlns:inkscape="http://www.inkscape.org/namespaces/inkscape"
   xmlns:sodipodi="http://sodipodi.sourceforge.net/DTD/sodipodi-0.dtd"
   xmlns="http://www.w3.org/2000/svg"
   xmlns:svg="http://www.w3.org/2000/svg">
  <defs
     id="defs1">
    <clipPath
       clipPathUnits="userSpaceOnUse"
       id="clipPath2">
      <path
         d="M 0,0.16 V 1122.5601 H 793.59998 V 0.16 Z"
         transform="translate(-245.76,-485.76001)"
         clip-rule="evenodd"
         id="path2" />
    </clipPath>
    <clipPath
       clipPathUnits="userSpaceOnUse"
       id="clipPath4">
      <path
         d="M 0,0.16 V 1122.5601 H 793.59998 V 0.16 Z"
         transform="translate(-321.28,-485.76001)"
         clip-rule="evenodd"
         id="path4" />
    </clipPath>
    <clipPath
       clipPathUnits="userSpaceOnUse"
       id="clipPath6">
      <path
         d="M 0,0.16 V 1122.5601 H 793.59998 V 0.16 Z"
         transform="translate(-321.28,-485.76001)"
         clip-rule="evenodd"
         id="path6" />
    </clipPath>
    <clipPath
       clipPathUnits="userSpaceOnUse"
       id="clipPath8">
      <path
         d="M 0,0.16 V 1122.5601 H 793.59998 V 0.16 Z"
         transform="translate(-396.79998,-485.76001)"
         clip-rule="evenodd"
         id="path8" />
    </clipPath>
    <clipPath
       clipPathUnits="userSpaceOnUse"
       id="clipPath10">
      <path
         d="M 0,0.16 V 1122.5601 H 793.59998 V 0.16 Z"
         transform="translate(-396.79998,-485.76001)"
         clip-rule="evenodd"
         id="path10" />
    </clipPath>
    <clipPath
       clipPathUnits="userSpaceOnUse"
       id="clipPath12">
      <path
         d="M 0,0.16 V 1122.5601 H 793.59998 V 0.16 Z"
         transform="translate(-472.32,-485.76001)"
         clip-rule="evenodd"
         id="path12" />
    </clipPath>
    <clipPath
       clipPathUnits="userSpaceOnUse"
       id="clipPath14">
      <path
         d="M 0,0.16 V 1122.5601 H 793.59998 V 0.16 Z"
         transform="translate(-472.32,-485.76001)"
         clip-rule="evenodd"
         id="path14" />
    </clipPath>
    <clipPath
       clipPathUnits="userSpaceOnUse"
       id="clipPath16">
      <path
         d="M 0,0.16 V 1122.5601 H 793.59998 V 0.16 Z"
         transform="translate(-283.51999,-562.23999)"
         clip-rule="evenodd"
         id="path16" />
    </clipPath>
    <clipPath
       clipPathUnits="userSpaceOnUse"
       id="clipPath18">
      <path
         d="M 0,0.16 V 1122.5601 H 793.59998 V 0.16 Z"
         transform="translate(-359.04001,-562.23999)"
         clip-rule="evenodd"
         id="path18" />
    </clipPath>
    <clipPath
       clipPathUnits="userSpaceOnUse"
       id="clipPath20">
      <path
         d="M 0,0.16 V 1122.5601 H 793.59998 V 0.16 Z"
         transform="translate(-359.04001,-562.23999)"
         clip-rule="evenodd"
         id="path20" />
    </clipPath>
    <clipPath
       clipPathUnits="userSpaceOnUse"
       id="clipPath22">
      <path
         d="M 0,0.16 V 1122.5601 H 793.59998 V 0.16 Z"
         transform="translate(-434.55999,-562.23999)"
         clip-rule="evenodd"
         id="path22" />
    </clipPath>
    <clipPath
       clipPathUnits="userSpaceOnUse"
       id="clipPath24">
      <path
         d="M 0,0.16 V 1122.5601 H 793.59998 V 0.16 Z"
         transform="translate(-434.55999,-562.23999)"
         clip-rule="evenodd"
         id="path24" />
    </clipPath>
    <clipPath
       clipPathUnits="userSpaceOnUse"
       id="clipPath26">
      <path
         d="M 0,0.16 V 1122.5601 H 793.59998 V 0.16 Z"
         transform="translate(-510.07998,-562.23999)"
         clip-rule="evenodd"
         id="path26" />
    </clipPath>
    <clipPath
       clipPathUnits="userSpaceOnUse"
       id="clipPath28">
      <path
         d="M 0,0.16 V 1122.5601 H 793.59998 V 0.16 Z"
         transform="translate(-510.07998,-562.23999)"
         clip-rule="evenodd"
         id="path28" />
    </clipPath>
    <clipPath
       clipPathUnits="userSpaceOnUse"
       id="clipPath30">
      <path
         d="M 0,0.16 V 1122.5601 H 793.59998 V 0.16 Z"
         transform="translate(-283.51999,-561.28003)"
         clip-rule="evenodd"
         id="path30" />
    </clipPath>
    <clipPath
       clipPathUnits="userSpaceOnUse"
       id="clipPath32">
      <path
         d="M 0,0.16 V 1122.5601 H 793.59998 V 0.16 Z"
         transform="translate(-547.84002,-485.76001)"
         clip-rule="evenodd"
         id="path32" />
    </clipPath>
    <clipPath
       clipPathUnits="userSpaceOnUse"
       id="clipPath34">
      <path
         d="M 0,0.16 V 1122.5601 H 793.59998 V 0.16 Z"
         transform="translate(-585.59997,-561.28003)"
         clip-rule="evenodd"
         id="path34" />
    </clipPath>
    <clipPath
       clipPathUnits="userSpaceOnUse"
       id="clipPath36">
      <path
         d="M 0,0.16 V 1122.5601 H 793.59998 V 0.16 Z"
         transform="translate(-585.59997,-561.28003)"
         clip-rule="evenodd"
         id="path36" />
    </clipPath>
    <clipPath
       clipPathUnits="userSpaceOnUse"
       id="clipPath38">
      <path
         d="M 0,0.16 V 1122.5601 H 793.59998 V 0.16 Z"
         transform="translate(-3.3333333e-6)"
         clip-rule="evenodd"
         id="path38" />
    </clipPath>
  </defs>
  <sodipodi:namedview
     id="namedview1"
     pagecolor="#505050"
     bordercolor="#eeeeee"
     borderopacity="1"
     inkscape:showpageshadow="0"
     inkscape:pageopacity="0"
     inkscape:pagecheckerboard="0"
     inkscape:deskcolor="#505050">
    <inkscape:page
       x="0"
       y="0"
       inkscape:label="1"
       id="page1"
       width="428.22668"
       height="200.22667"
       margin="0"
       bleed="0" />
  </sodipodi:namedview>
  <g
     id="g1"
     inkscape:groupmode="layer"
     inkscape:label="1">
    <path
       id="path1"
       d="m 0,0 0.16,2.24 0.48,2.24 0.64,2.24 0.96,2.08 1.12,1.92 1.44,1.76 1.6,1.6 1.76,1.44 2.08,1.279999 2.08,0.800001 2.08,0.8 2.239999,0.319999 2.24,0.16 2.400002,-0.16 L 23.52,18.4 25.6,17.6 27.68,16.799999 29.6,15.52 31.52,14.08 33.119999,12.48 34.400002,10.72 35.68,8.8 l 0.959999,-2.08 0.64,-2.24 0.479999,-2.24 V 0"
       style="fill:none;stroke:#000000;stroke-width:26.4;stroke-linecap:round;stroke-linejoin:round;stroke-miterlimit:10;stroke-dasharray:none;stroke-opacity:1"
       transform="translate(24.306662,65.306618)"
       clip-path="url(#clipPath2)" />
    <path
       id="path3"
       d="m 0,0 -0.16,-2.24 -0.32,-2.24 -0.64,-2.24 -0.96,-2.08 -1.28,-1.92 -1.28,-1.76 -1.6,-1.6 -1.92,-1.44 -1.92,-1.119999 -2.08,-0.960001 -2.08,-0.64 -2.24,-0.479999 -2.399999,-0.16 -2.240002,0.16 -2.24,0.479999 -2.08,0.64 -2.079999,0.960001 -2.08,1.119999 -1.760001,1.44 -1.599998,1.6 -1.440003,1.76 -1.119998,1.92 -0.96,2.08 -0.639999,2.24 -0.479999,2.24 -0.16,2.24"
       style="fill:none;stroke:#000000;stroke-width:26.4;stroke-linecap:round;stroke-linejoin:round;stroke-miterlimit:10;stroke-dasharray:none;stroke-opacity:1"
       transform="translate(99.826666,65.306618)"
       clip-path="url(#clipPath4)" />
    <path
       id="path5"
       d="m 0,0 0.16,2.24 0.48,2.24 0.64,2.24 0.96,2.08 1.12,1.92 1.44,1.76 1.6,1.6 1.76,1.44 2.08,1.279999 1.92,0.800001 2.24,0.8 2.239999,0.319999 2.24,0.16 2.400002,-0.16 L 23.52,18.4 25.6,17.6 27.68,16.799999 29.6,15.52 31.52,14.08 33.119999,12.48 34.400002,10.72 35.68,8.8 l 0.959999,-2.08 0.64,-2.24 0.319999,-2.24 0.16,-2.24"
       style="fill:none;stroke:#000000;stroke-width:26.4;stroke-linecap:round;stroke-linejoin:round;stroke-miterlimit:10;stroke-dasharray:none;stroke-opacity:1"
       transform="translate(99.826666,65.306618)"
       clip-path="url(#clipPath6)" />
    <path
       id="path7"
       d="m 0,0 -0.16,-2.24 -0.32,-2.24 -0.64,-2.24 -0.96,-2.08 -1.28,-1.92 -1.28,-1.76 -1.6,-1.6 -1.92,-1.44 -1.92,-1.119999 -2.08,-0.960001 -2.08,-0.64 -2.24,-0.479999 -2.399999,-0.16 -2.240002,0.16 -2.24,0.479999 -2.239999,0.64 -2.08,0.960001 -1.92,1.119999 -1.760001,1.44 -1.599998,1.6 -1.440003,1.76 -1.119998,1.92 -0.96,2.08 -0.639999,2.24 -0.479999,2.24 -0.16,2.24"
       style="fill:none;stroke:#000000;stroke-width:26.4;stroke-linecap:round;stroke-linejoin:round;stroke-miterlimit:10;stroke-dasharray:none;stroke-opacity:1"
       transform="translate(175.34665,65.306618)"
       clip-path="url(#clipPath8)" />
    <path
       id="path9"
       d="m 0,0 0.16,2.24 0.48,2.24 0.64,2.24 0.96,2.08 1.12,1.92 1.44,1.76 1.6,1.6 1.76,1.44 1.92,1.279999 2.08,0.800001 2.24,0.8 2.239999,0.319999 2.24,0.16 2.400002,-0.16 L 23.52,18.4 25.6,17.6 27.68,16.799999 29.6,15.52 31.52,14.08 33.119999,12.48 34.400002,10.72 35.68,8.8 l 0.959999,-2.08 0.64,-2.24 0.319999,-2.24 0.16,-2.24"
       style="fill:none;stroke:#000000;stroke-width:26.4;stroke-linecap:round;stroke-linejoin:round;stroke-miterlimit:10;stroke-dasharray:none;stroke-opacity:1"
       transform="translate(175.34665,65.306618)"
       clip-path="url(#clipPath10)" />
    <path
       id="path11"
       d="M 0,0 0.16,-2.24 0,-4.48 l -0.48,-2.24 -0.8,-2.08 -0.96,-2.08 -1.12,-1.92 -1.44,-1.76 -1.6,-1.6 -1.76,-1.280001 -1.92,-1.119998 -2.08,-0.960001 -2.24,-0.64 -2.239999,-0.479999 -2.24,-0.16 -2.240002,0.16 -2.24,0.479999 -2.08,0.64 -2.079999,0.960001 -1.920001,1.119998 -1.76,1.280001 -1.599998,1.6 -1.440003,1.76 -1.279998,1.92 -0.96,2.08 -0.639999,2.08 -0.479999,2.24 -0.16,2.24 V 0"
       style="fill:none;stroke:#000000;stroke-width:26.4;stroke-linecap:round;stroke-linejoin:round;stroke-miterlimit:10;stroke-dasharray:none;stroke-opacity:1"
       transform="translate(250.86667,65.306618)"
       clip-path="url(#clipPath12)" />
    <path
       id="path13"
       d="m 0,0 0.16,2.24 0.48,2.24 0.64,2.24 0.96,2.08 1.12,1.92 1.44,1.76 1.6,1.6 1.76,1.44 1.92,1.279999 2.08,0.800001 2.24,0.8 2.239999,0.319999 2.24,0.16 2.240002,-0.16 L 23.52,18.4 25.6,17.6 27.68,16.799999 29.6,15.52 31.52,14.08 33.119999,12.48 34.400002,10.72 35.68,8.8 l 0.959999,-2.08 0.64,-2.24 0.319999,-2.24 0.16,-2.24"
       style="fill:none;stroke:#000000;stroke-width:26.4;stroke-linecap:round;stroke-linejoin:round;stroke-miterlimit:10;stroke-dasharray:none;stroke-opacity:1"
       transform="translate(250.86667,65.306618)"
       clip-path="url(#clipPath14)" />
    <path
       id="path15"
       d="m 0,0 0.16,2.24 0.48,2.24 0.64,2.24 0.96,2.08 1.12,1.92 1.44,1.76 1.6,1.6 1.76,1.44 2.08,1.279999 2.08,0.800001 2.08,0.8 2.239999,0.319999 2.24,0.16 2.400002,-0.16 L 23.52,18.4 25.6,17.6 27.68,16.799999 29.6,15.52 31.52,14.08 33.119999,12.48 34.400002,10.72 35.68,8.8 l 0.959999,-2.08 0.64,-2.24 0.319999,-2.24 0.16,-2.24"
       style="fill:none;stroke:#000000;stroke-width:26.4;stroke-linecap:round;stroke-linejoin:round;stroke-miterlimit:10;stroke-dasharray:none;stroke-opacity:1"
       transform="translate(62.066656,141.7866)"
       clip-path="url(#clipPath16)" />
    <path
       id="path17"
       d="m 0,0 -0.16,-2.24 -0.32,-2.24 -0.64,-2.24 -0.96,-2.08 -1.28,-1.92 -1.28,-1.76 -1.6,-1.6 -1.92,-1.44 -1.92,-1.119999 -2.08,-0.960001 -2.08,-0.8 -2.24,-0.319999 -2.399999,-0.16 -2.240002,0.16 -2.24,0.319999 -2.239999,0.8 -1.92,0.960001 -2.08,1.119999 -1.760001,1.44 -1.599998,1.6 -1.440003,1.76 -1.119998,1.92 -0.96,2.08 -0.639999,2.24 -0.479999,2.24 -0.16,2.24"
       style="fill:none;stroke:#000000;stroke-width:26.4;stroke-linecap:round;stroke-linejoin:round;stroke-miterlimit:10;stroke-dasharray:none;stroke-opacity:1"
       transform="translate(137.58668,141.7866)"
       clip-path="url(#clipPath18)" />
    <path
       id="path19"
       d="m 0,0 0.16,2.24 0.48,2.24 0.64,2.24 0.96,2.08 1.12,1.92 1.44,1.76 1.6,1.6 1.76,1.44 1.92,1.279999 2.08,0.800001 2.24,0.8 2.239999,0.319999 2.24,0.16 2.400002,-0.16 L 23.52,18.4 25.6,17.6 27.68,16.799999 29.6,15.52 31.52,14.08 33.119999,12.48 34.400002,10.72 35.68,8.8 l 0.959999,-2.08 0.64,-2.24 0.319999,-2.24 0.16,-2.24"
       style="fill:none;stroke:#000000;stroke-width:26.4;stroke-linecap:round;stroke-linejoin:round;stroke-miterlimit:10;stroke-dasharray:none;stroke-opacity:1"
       transform="translate(137.58668,141.7866)"
       clip-path="url(#clipPath20)" />
    <path
       id="path21"
       d="m 0,0 -0.16,-2.24 -0.32,-2.24 -0.64,-2.24 -0.96,-2.08 -1.28,-1.92 -1.28,-1.76 -1.6,-1.6 -1.92,-1.44 -1.92,-1.119999 -2.08,-0.960001 -2.08,-0.8 -2.24,-0.319999 -2.399999,-0.16 -2.240002,0.16 -2.24,0.319999 -2.239999,0.8 -2.08,0.960001 -1.92,1.119999 -1.760001,1.44 -1.599998,1.6 -1.440003,1.76 -1.119998,1.92 -0.96,2.08 -0.639999,2.24 -0.479999,2.24 -0.16,2.24"
       style="fill:none;stroke:#000000;stroke-width:26.4;stroke-linecap:round;stroke-linejoin:round;stroke-miterlimit:10;stroke-dasharray:none;stroke-opacity:1"
       transform="translate(213.10666,141.7866)"
       clip-path="url(#clipPath22)" />
    <path
       id="path23"
       d="m 0,0 0.16,2.24 0.48,2.24 0.64,2.24 0.96,2.08 1.12,1.92 1.44,1.76 1.6,1.6 1.76,1.44 1.92,1.279999 2.08,0.800001 2.24,0.8 2.239999,0.319999 2.24,0.16 2.400002,-0.16 L 23.52,18.4 25.6,17.6 27.68,16.799999 29.6,15.52 31.52,14.08 33.119999,12.48 34.400002,10.72 35.68,8.8 l 0.959999,-2.08 0.64,-2.24 0.319999,-2.24 0.16,-2.24"
       style="fill:none;stroke:#000000;stroke-width:26.4;stroke-linecap:round;stroke-linejoin:round;stroke-miterlimit:10;stroke-dasharray:none;stroke-opacity:1"
       transform="translate(213.10666,141.7866)"
       clip-path="url(#clipPath24)" />
    <path
       id="path25"
       d="M 0,0 0.16,-2.24 0,-4.48 l -0.48,-2.24 -0.8,-2.08 -0.96,-2.08 -1.12,-1.92 -1.44,-1.76 -1.6,-1.6 -1.76,-1.280001 -1.92,-1.279998 -2.08,-0.800001 -2.24,-0.64 -2.239999,-0.479999 -2.24,-0.16 -2.240002,0.16 -2.24,0.479999 -2.08,0.64 -2.079999,0.800001 -1.920001,1.279998 -1.76,1.280001 -1.599998,1.6 -1.440003,1.76 -1.279998,1.92 -0.96,2.08 -0.639999,2.08 -0.479999,2.24 -0.16,2.24 V 0"
       style="fill:none;stroke:#000000;stroke-width:26.4;stroke-linecap:round;stroke-linejoin:round;stroke-miterlimit:10;stroke-dasharray:none;stroke-opacity:1"
       transform="translate(288.62665,141.7866)"
       clip-path="url(#clipPath26)" />
    <path
       id="path27"
       d="m 0,0 0.16,2.24 0.48,2.24 0.64,2.24 0.96,2.08 1.12,1.92 1.44,1.76 1.6,1.6 1.76,1.44 1.92,1.279999 2.08,0.800001 2.24,0.8 2.239999,0.319999 2.24,0.16 2.240002,-0.16 L 23.360001,18.4 25.6,17.6 27.68,16.799999 29.6,15.52 31.52,14.08 33.119999,12.48 34.400002,10.72 35.68,8.8 l 0.959999,-2.08 0.64,-2.24 0.319999,-2.24 0.16,-2.24"
       style="fill:none;stroke:#000000;stroke-width:26.4;stroke-linecap:round;stroke-linejoin:round;stroke-miterlimit:10;stroke-dasharray:none;stroke-opacity:1"
       transform="translate(288.62665,141.7866)"
       clip-path="url(#clipPath28)" />
    <path
       id="path29"
       d="m 0,0 v -2.24 l -0.48,-2.24 -0.64,-2.24 -0.96,-2.08 -1.28,-1.92 -1.28,-1.76 -1.6,-1.6 -1.92,-1.44 -1.92,-1.119999 -2.08,-0.960001 -2.08,-0.64 -2.24,-0.479999 -2.399999,-0.16 -2.240002,0.16 -2.24,0.479999 -2.08,0.64 -2.079999,0.960001 -2.08,1.119999 -1.760001,1.44 -1.599998,1.6 -1.440003,1.76 -1.119998,1.92 -0.96,2.08 -0.639999,2.24 -0.479999,2.24 -0.16,2.24"
       style="fill:none;stroke:#000000;stroke-width:26.4;stroke-linecap:round;stroke-linejoin:round;stroke-miterlimit:10;stroke-dasharray:none;stroke-opacity:1"
       transform="translate(62.066656,140.82664)"
       clip-path="url(#clipPath30)" />
    <path
       id="path31"
       d="m 0,0 -0.16,-2.24 -0.32,-2.24 -0.64,-2.24 -0.96,-2.08 -1.28,-1.92 -1.28,-1.76 -1.6,-1.6 -1.92,-1.44 -1.92,-1.119999 -2.08,-0.960001 -2.24,-0.64 -2.239999,-0.479999 -2.24,-0.16 -2.240002,0.16 -2.24,0.479999 -2.239999,0.64 -2.08,0.960001 -1.92,1.119999 -1.760001,1.44 -1.599998,1.6 -1.440003,1.76 -1.119998,1.92 -0.96,2.08 -0.639999,2.24 -0.479999,2.24 -0.16,2.24"
       style="fill:none;stroke:#000000;stroke-width:26.4;stroke-linecap:round;stroke-linejoin:round;stroke-miterlimit:10;stroke-dasharray:none;stroke-opacity:1"
       transform="translate(326.38669,65.306618)"
       clip-path="url(#clipPath32)" />
    <path
       id="path33"
       d="m 0,0 -0.16,-2.24 -0.32,-2.24 -0.64,-2.24 -0.96,-2.08 -1.28,-1.92 -1.28,-1.76 -1.76,-1.6 -1.76,-1.44 -1.92,-1.119999 -2.08,-0.960001 -2.24,-0.64 -2.239999,-0.479999 -2.24,-0.16 -2.240002,0.16 -2.24,0.479999 -2.239999,0.64 -2.08,0.960001 -1.92,1.119999 -1.760001,1.44 -1.599998,1.6 -1.440003,1.76 -1.119998,1.92 -0.96,2.08 -0.639999,2.24 -0.479999,2.24 -0.16,2.24"
       style="fill:none;stroke:#000000;stroke-width:26.4;stroke-linecap:round;stroke-linejoin:round;stroke-miterlimit:10;stroke-dasharray:none;stroke-opacity:1"
       transform="translate(364.14664,140.82664)"
       clip-path="url(#clipPath34)" />
    <path
       id="path35"
       d="m 0,0 0.16,2.24 0.48,2.24 0.64,2.24 0.96,2.08 1.12,1.92 1.44,1.76 1.6,1.6 1.76,1.44 1.92,1.279999 2.08,0.800001 2.24,0.8 2.239999,0.319999 2.24,0.16 2.240002,-0.16 L 23.360001,18.4 25.6,17.6 27.68,16.799999 29.6,15.52 31.360001,14.08 33.119999,12.48 34.400002,10.72 35.68,8.8 l 0.959999,-2.08 0.64,-2.24 0.319999,-2.24 0.16,-2.24"
       style="fill:none;stroke:#000000;stroke-width:26.4;stroke-linecap:round;stroke-linejoin:round;stroke-miterlimit:10;stroke-dasharray:none;stroke-opacity:1"
       transform="translate(364.14664,140.82664)"
       clip-path="url(#clipPath36)" />
    <path
       id="path37"
       d="m 547.84003,485.76001 75.51995,75.52002"
       style="fill:none;stroke:#000000;stroke-width:26.4;stroke-linecap:round;stroke-linejoin:round;stroke-miterlimit:10;stroke-dasharray:none;stroke-opacity:1"
       transform="translate(-221.45333,-420.45339)"
       clip-path="url(#clipPath38)" />
  </g>
</svg>
