<?xml version="1.0" encoding="UTF-8" standalone="no"?>
<!-- Created with Inkscape (http://www.inkscape.org/) -->

<svg
   version="1.1"
   id="svg1"
   width="444.23999"
   height="509.89334"
   viewBox="0 0 444.23999 509.89334"
   sodipodi:docname="Water21.pdf"
   xmlns:inkscape="http://www.inkscape.org/namespaces/inkscape"
   xmlns:sodipodi="http://sodipodi.sourceforge.net/DTD/sodipodi-0.dtd"
   xmlns="http://www.w3.org/2000/svg"
   xmlns:svg="http://www.w3.org/2000/svg">
  <defs
     id="defs1">
    <clipPath
       clipPathUnits="userSpaceOnUse"
       id="clipPath2">
      <path
         d="M 0,0.16 V 1122.5601 H 793.59998 V 0.16 Z"
         transform="translate(-434.56,-752.47998)"
         clip-rule="evenodd"
         id="path2" />
    </clipPath>
    <clipPath
       clipPathUnits="userSpaceOnUse"
       id="clipPath4">
      <path
         d="M 0,0.16 V 1122.5601 H 793.59998 V 0.16 Z"
         transform="translate(-396.79999,-412.48001)"
         clip-rule="evenodd"
         id="path4" />
    </clipPath>
    <clipPath
       clipPathUnits="userSpaceOnUse"
       id="clipPath6">
      <path
         d="M 0,0.16 V 1122.5601 H 793.59998 V 0.16 Z"
         transform="translate(-396.79999,-412.48001)"
         clip-rule="evenodd"
         id="path6" />
    </clipPath>
    <clipPath
       clipPathUnits="userSpaceOnUse"
       id="clipPath8">
      <path
         d="M 0,0.16 V 1122.5601 H 793.59998 V 0.16 Z"
         transform="translate(-396.79999,-488)"
         clip-rule="evenodd"
         id="path8" />
    </clipPath>
    <clipPath
       clipPathUnits="userSpaceOnUse"
       id="clipPath10">
      <path
         d="M 0,0.16 V 1122.5601 H 793.59998 V 0.16 Z"
         transform="translate(-396.79999,-488)"
         clip-rule="evenodd"
         id="path10" />
    </clipPath>
    <clipPath
       clipPathUnits="userSpaceOnUse"
       id="clipPath12">
      <path
         d="M 0,0.16 V 1122.5601 H 793.59998 V 0.16 Z"
         transform="translate(-396.79999,-563.52002)"
         clip-rule="evenodd"
         id="path12" />
    </clipPath>
    <clipPath
       clipPathUnits="userSpaceOnUse"
       id="clipPath14">
      <path
         d="M 0,0.16 V 1122.5601 H 793.59998 V 0.16 Z"
         transform="translate(-396.79999,-563.52002)"
         clip-rule="evenodd"
         id="path14" />
    </clipPath>
    <clipPath
       clipPathUnits="userSpaceOnUse"
       id="clipPath16">
      <path
         d="M 0,0.16 V 1122.5601 H 793.59998 V 0.16 Z"
         transform="translate(-396.79999,-639.03998)"
         clip-rule="evenodd"
         id="path16" />
    </clipPath>
    <clipPath
       clipPathUnits="userSpaceOnUse"
       id="clipPath18">
      <path
         d="M 0,0.16 V 1122.5601 H 793.59998 V 0.16 Z"
         transform="translate(-396.79999,-639.03998)"
         clip-rule="evenodd"
         id="path18" />
    </clipPath>
    <clipPath
       clipPathUnits="userSpaceOnUse"
       id="clipPath20">
      <path
         d="M 0,0.16 V 1122.5601 H 793.59998 V 0.16 Z"
         transform="translate(3.3333334e-6)"
         clip-rule="evenodd"
         id="path20" />
    </clipPath>
  </defs>
  <sodipodi:namedview
     id="namedview1"
     pagecolor="#505050"
     bordercolor="#eeeeee"
     borderopacity="1"
     inkscape:showpageshadow="0"
     inkscape:pageopacity="0"
     inkscape:pagecheckerboard="0"
     inkscape:deskcolor="#505050">
    <inkscape:page
       x="0"
       y="0"
       inkscape:label="1"
       id="page1"
       width="444.23999"
       height="509.89334"
       margin="0"
       bleed="0" />
  </sodipodi:namedview>
  <g
     id="g1"
     inkscape:groupmode="layer"
     inkscape:label="1">
    <path
       id="path1"
       d="m 0,0 c 0,-20.85 -16.9,-37.759998 -37.759998,-37.759998 -20.860001,0 -37.759999,16.909998 -37.759999,37.759998 0,20.85 16.899998,37.759998 37.759999,37.759998 C -16.9,37.759998 0,20.85 0,0 Z"
       style="fill:none;stroke:#000000;stroke-width:26.4;stroke-linecap:round;stroke-linejoin:round;stroke-miterlimit:10;stroke-dasharray:none;stroke-opacity:1"
       transform="translate(261.13333,448.14659)"
       clip-path="url(#clipPath2)" />
    <path
       id="path3"
       d="m 0,0 -4,-4.48 -4.48,-4.32 -4.64,-4 -4.96,-3.839999 -5.280001,-3.520001 -5.439998,-3.200001 -5.760002,-2.879999 -5.759999,-2.719999 -6.080002,-2.240002 -6.239997,-1.919998 -6.240002,-1.600002 L -65.279999,-36 l -6.559997,-0.959999 -6.560006,-0.48 -6.559997,-0.159999 -6.559998,0.159999 -6.560005,0.48 L -104.48,-36 l -6.4,1.279999 -6.4,1.600002 -6.08,1.919998 -6.08,2.240002 -5.92,2.719999 -5.60001,2.879999 -5.43998,3.200001 -5.28,3.520001 -4.96001,3.839999 -4.64,4 -4.47999,4.32 L -169.92,0"
       style="fill:none;stroke:#000000;stroke-width:26.4;stroke-linecap:round;stroke-linejoin:round;stroke-miterlimit:10;stroke-dasharray:none;stroke-opacity:1"
       transform="translate(223.37332,108.14662)"
       clip-path="url(#clipPath4)" />
    <path
       id="path5"
       d="m 0,0 4.16,4.64 4.32,4.32 4.8,4.16 4.96,3.839999 5.28,3.520001 5.439999,3.2 5.600002,2.879999 5.919999,2.560002 6.080001,2.399999 6.079998,1.919999 6.400002,1.600002 6.400001,1.279999 6.399994,0.799999 6.560006,0.639999 6.559997,0.16 6.559998,-0.16 6.560005,-0.639999 L 104.64,36.32 l 6.4,-1.279999 6.24,-1.600002 6.24,-1.919999 6.08001,-2.399999 5.75999,-2.560002 5.75999,-2.879999 5.44001,-3.2 5.28,-3.520001 4.96,-3.839999 4.64,-4.16 4.48,-4.32 4,-4.64"
       style="fill:none;stroke:#000000;stroke-width:26.4;stroke-linecap:round;stroke-linejoin:round;stroke-miterlimit:10;stroke-dasharray:none;stroke-opacity:1"
       transform="translate(223.37332,108.14662)"
       clip-path="url(#clipPath6)" />
    <path
       id="path7"
       d="m 0,0 -4,-4.48 -4.48,-4.32 -4.64,-4 -4.96,-3.839999 L -23.360001,-20.16 -28.799999,-23.360001 -34.560001,-26.4 -40.32,-28.959999 l -6.080002,-2.240002 -6.239997,-1.919998 -6.240002,-1.600002 L -65.279999,-36 l -6.559997,-0.959999 -6.560006,-0.48 -6.559997,-0.159999 -6.559998,0.159999 -6.560005,0.48 L -104.48,-36 l -6.4,1.279999 -6.4,1.600002 -6.08,1.919998 -6.08,2.240002 -5.92,2.559999 -5.60001,3.039999 -5.43998,3.200001 -5.28,3.520001 -4.96001,3.839999 -4.64,4 -4.47999,4.32 L -169.92,0"
       style="fill:none;stroke:#000000;stroke-width:26.4;stroke-linecap:round;stroke-linejoin:round;stroke-miterlimit:10;stroke-dasharray:none;stroke-opacity:1"
       transform="translate(223.37332,183.66661)"
       clip-path="url(#clipPath8)" />
    <path
       id="path9"
       d="m 0,0 4.16,4.64 4.32,4.32 4.8,4.16 4.96,3.839999 5.28,3.520001 5.439999,3.2 5.600002,2.879999 5.919999,2.560002 6.080001,2.399999 6.079998,1.919999 6.400002,1.600002 6.400001,1.279999 6.399994,0.799999 6.560006,0.639999 6.559997,0.16 6.559998,-0.16 6.560005,-0.639999 L 104.64,36.32 l 6.4,-1.279999 6.24,-1.600002 6.24,-1.919999 6.08001,-2.399999 5.75999,-2.560002 5.75999,-2.879999 5.44001,-3.2 5.28,-3.520001 4.96,-3.839999 4.64,-4.16 4.48,-4.32 4,-4.64"
       style="fill:none;stroke:#000000;stroke-width:26.4;stroke-linecap:round;stroke-linejoin:round;stroke-miterlimit:10;stroke-dasharray:none;stroke-opacity:1"
       transform="translate(223.37332,183.66661)"
       clip-path="url(#clipPath10)" />
    <path
       id="path11"
       d="m 0,0 -3.84,-4.8 -4.32,-4.48 -4.48,-4.32 -4.800001,-4 -4.959999,-3.680001 -5.28,-3.359998 -5.599999,-3.040001 -5.600002,-2.56 -5.919998,-2.24 -5.920002,-1.920002 -6.079998,-1.439998 -6.240002,-0.959999 -6.239998,-0.64 -6.239998,-0.159999 -6.240005,0.159999 -6.239998,0.64 -6.080002,0.959999 -6.079998,1.439998 -5.92,1.920002 -5.92,2.24 -5.6,2.56 -5.6,3.040001 -5.28,3.359998 -4.96,3.680001 -4.8,4 -4.64,4.32 -4.15999,4.48 -4,4.8"
       style="fill:none;stroke:#000000;stroke-width:26.4;stroke-linecap:round;stroke-linejoin:round;stroke-miterlimit:10;stroke-dasharray:none;stroke-opacity:1"
       transform="translate(223.37332,259.18663)"
       clip-path="url(#clipPath12)" />
    <path
       id="path13"
       d="m 0,0 4,4.96 4.16,4.64 4.48,4.32 4.800001,4 5.119998,3.68 5.280001,3.359999 5.439999,2.880001 5.760002,2.719999 5.759998,2.24 6.080002,1.760002 L 56.959999,36 l 6.080002,1.119999 6.239998,0.479999 6.239998,0.32 6.240005,-0.32 L 88,37.119999 94.239998,36 100.32,34.560001 l 5.92,-1.760002 5.92,-2.24 5.6,-2.719999 5.44,-2.880001 5.44,-3.359999 4.96001,-3.68 4.79998,-4 L 142.88,9.6 147.2,4.96 151.03999,0"
       style="fill:none;stroke:#000000;stroke-width:26.4;stroke-linecap:round;stroke-linejoin:round;stroke-miterlimit:10;stroke-dasharray:none;stroke-opacity:1"
       transform="translate(223.37332,259.18663)"
       clip-path="url(#clipPath14)" />
    <path
       id="path15"
       d="m 0,0 -3.84,-4.8 -4.32,-4.64 -4.48,-4.16 -4.800001,-4.16 -4.959999,-3.680001 -5.28,-3.199998 -5.599999,-3.040001 -5.600002,-2.56 -5.919998,-2.24 -5.920002,-1.920002 -6.079998,-1.439998 -6.240002,-0.959999 -6.239998,-0.64 -6.239998,-0.159999 -6.240005,0.159999 -6.239998,0.64 -6.080002,0.959999 -6.079998,1.439998 -5.92,1.920002 -5.92,2.24 -5.6,2.56 -5.6,3.040001 -5.28,3.199998 -4.96,3.680001 -4.8,4.16 -4.64,4.16 -4.15999,4.64 -4,4.8"
       style="fill:none;stroke:#000000;stroke-width:26.4;stroke-linecap:round;stroke-linejoin:round;stroke-miterlimit:10;stroke-dasharray:none;stroke-opacity:1"
       transform="translate(223.37332,334.70659)"
       clip-path="url(#clipPath16)" />
    <path
       id="path17"
       d="m 0,0 4,4.96 4.16,4.64 4.48,4.32 4.800001,4 5.119998,3.68 5.280001,3.359999 5.439999,2.880001 5.760002,2.719999 5.759998,2.24 6.080002,1.760002 L 56.959999,36 l 6.080002,1.119999 6.239998,0.479999 6.239998,0.32 6.240005,-0.32 L 88,37.119999 94.239998,36 100.32,34.560001 l 5.92,-1.760002 5.92,-2.24 5.6,-2.719999 5.44,-2.880001 5.44,-3.359999 4.96001,-3.68 4.79998,-4 L 142.88,9.6 147.2,4.96 151.03999,0"
       style="fill:none;stroke:#000000;stroke-width:26.4;stroke-linecap:round;stroke-linejoin:round;stroke-miterlimit:10;stroke-dasharray:none;stroke-opacity:1"
       transform="translate(223.37332,334.70659)"
       clip-path="url(#clipPath18)" />
    <path
       id="path19"
       d="M 547.84003,714.71997 H 245.75999 L 208,337.12 h 377.59998 l -37.75995,377.59997"
       style="fill:none;stroke:#000000;stroke-width:26.4;stroke-linecap:round;stroke-linejoin:round;stroke-miterlimit:10;stroke-dasharray:none;stroke-opacity:1"
       transform="translate(-173.42667,-304.33339)"
       clip-path="url(#clipPath20)" />
  </g>
</svg>
