<?xml version="1.0" encoding="UTF-8" standalone="no"?>
<!-- Created with Inkscape (http://www.inkscape.org/) -->

<svg
   version="1.1"
   id="svg1"
   width="352.18668"
   height="507.21332"
   viewBox="0 0 352.18668 507.21332"
   sodipodi:docname="WiseMansSulphur8.pdf"
   xmlns:inkscape="http://www.inkscape.org/namespaces/inkscape"
   xmlns:sodipodi="http://sodipodi.sourceforge.net/DTD/sodipodi-0.dtd"
   xmlns="http://www.w3.org/2000/svg"
   xmlns:svg="http://www.w3.org/2000/svg">
  <defs
     id="defs1">
    <clipPath
       clipPathUnits="userSpaceOnUse"
       id="clipPath2">
      <path
         d="M 0,0.16 V 1122.5601 H 793.59998 V 0.16 Z"
         transform="translate(-3.3333333e-6)"
         clip-rule="evenodd"
         id="path2" />
    </clipPath>
    <clipPath
       clipPathUnits="userSpaceOnUse"
       id="clipPath4">
      <path
         d="M 0,0.16 V 1122.5601 H 793.59998 V 0.16 Z"
         transform="translate(-3.3333333e-6)"
         clip-rule="evenodd"
         id="path4" />
    </clipPath>
    <clipPath
       clipPathUnits="userSpaceOnUse"
       id="clipPath6">
      <path
         d="M 0,0.16 V 1122.5601 H 793.59998 V 0.16 Z"
         transform="translate(-3.3333333e-6)"
         clip-rule="evenodd"
         id="path6" />
    </clipPath>
    <clipPath
       clipPathUnits="userSpaceOnUse"
       id="clipPath8">
      <path
         d="M 0,0.16 V 1122.5601 H 793.59998 V 0.16 Z"
         transform="translate(-3.3333333e-6)"
         clip-rule="evenodd"
         id="path8" />
    </clipPath>
    <clipPath
       clipPathUnits="userSpaceOnUse"
       id="clipPath10">
      <path
         d="M 0,0.16 V 1122.5601 H 793.59998 V 0.16 Z"
         transform="translate(-3.3333333e-6)"
         clip-rule="evenodd"
         id="path10" />
    </clipPath>
    <clipPath
       clipPathUnits="userSpaceOnUse"
       id="clipPath12">
      <path
         d="M 0,0.16 V 1122.5601 H 793.59998 V 0.16 Z"
         transform="translate(-452.79998,-520.47998)"
         clip-rule="evenodd"
         id="path12" />
    </clipPath>
  </defs>
  <sodipodi:namedview
     id="namedview1"
     pagecolor="#505050"
     bordercolor="#eeeeee"
     borderopacity="1"
     inkscape:showpageshadow="0"
     inkscape:pageopacity="0"
     inkscape:pagecheckerboard="0"
     inkscape:deskcolor="#505050">
    <inkscape:page
       x="0"
       y="0"
       inkscape:label="1"
       id="page1"
       width="352.18668"
       height="507.21332"
       margin="0"
       bleed="0" />
  </sodipodi:namedview>
  <g
     id="g1"
     inkscape:groupmode="layer"
     inkscape:label="1">
    <path
       id="path1"
       d="M 377.28,331.84 246.56,558.40002 h 261.6 L 377.28,331.84"
       style="fill:none;stroke:#000000;stroke-width:26.4;stroke-linecap:round;stroke-linejoin:round;stroke-miterlimit:10;stroke-dasharray:none;stroke-opacity:1"
       transform="translate(-221.45333,-301.66673)"
       clip-path="url(#clipPath2)" />
    <path
       id="path3"
       d="M 377.28,350.72 V 784.96002"
       style="fill:none;stroke:#000000;stroke-width:26.4;stroke-linecap:round;stroke-linejoin:round;stroke-miterlimit:10;stroke-dasharray:none;stroke-opacity:1"
       transform="translate(-221.45333,-301.66673)"
       clip-path="url(#clipPath4)" />
    <path
       id="path5"
       d="M 301.76001,671.67999 H 452.79999"
       style="fill:none;stroke:#000000;stroke-width:26.4;stroke-linecap:round;stroke-linejoin:round;stroke-miterlimit:10;stroke-dasharray:none;stroke-opacity:1"
       transform="translate(-221.45333,-301.66673)"
       clip-path="url(#clipPath6)" />
    <path
       id="path7"
       d="m 377.28,331.84 h 75.51999"
       style="fill:none;stroke:#000000;stroke-width:26.4;stroke-linecap:round;stroke-linejoin:round;stroke-miterlimit:10;stroke-dasharray:none;stroke-opacity:1"
       transform="translate(-221.45333,-301.66673)"
       clip-path="url(#clipPath8)" />
    <path
       id="path9"
       d="m 377.28,520.64001 h 75.51999"
       style="fill:none;stroke:#000000;stroke-width:26.4;stroke-linecap:round;stroke-linejoin:round;stroke-miterlimit:10;stroke-dasharray:none;stroke-opacity:1"
       transform="translate(-221.45333,-301.66673)"
       clip-path="url(#clipPath10)" />
    <path
       id="path11"
       d="m 0,0 h 6.24 l 6.08,-0.64 6.08,-0.96 6.08,-1.44 5.92,-1.76 5.76,-2.24 5.599998,-2.56 5.440003,-2.88 5.279999,-3.2 4.959999,-3.680001 4.800003,-3.84 4.479999,-4.319999 4.32,-4.48 3.839996,-4.799999 3.680001,-4.959999 3.200004,-5.280003 2.879997,-5.439999 2.559998,-5.600002 2.240005,-5.759998 1.759995,-5.920002 1.440002,-6.079994 0.959999,-6.080002 0.64,-6.080002 0.160004,-6.239998 -0.160004,-6.240002 -0.64,-6.08 -0.959999,-6.08 -1.440002,-6.08 -1.759995,-5.92 -2.240005,-5.75999 -2.559998,-5.60001 -2.879997,-5.44 -3.200004,-5.28 -3.680001,-4.95999 -3.839996,-4.80001 -4.32,-4.48001 -4.479999,-4.31999 -4.800003,-3.83999 L 52.48,-172.8 l -5.279999,-3.2 -5.440003,-2.88 -5.599998,-2.56 -5.76,-2.23999 -5.92,-1.76001 -6.08,-1.44 -6.08,-0.96 -6.08,-0.64 -6.24,-0.16"
       style="fill:none;stroke:#000000;stroke-width:26.4;stroke-linecap:round;stroke-linejoin:round;stroke-miterlimit:10;stroke-dasharray:none;stroke-opacity:1"
       transform="translate(231.34665,218.81325)"
       clip-path="url(#clipPath12)" />
  </g>
</svg>
