<?xml version="1.0" encoding="UTF-8" standalone="no"?>
<!-- Created with Inkscape (http://www.inkscape.org/) -->

<svg
   version="1.1"
   id="svg1"
   width="481.58667"
   height="505.89334"
   viewBox="0 0 481.58667 505.89334"
   sodipodi:docname="YellowGall3.pdf"
   xmlns:inkscape="http://www.inkscape.org/namespaces/inkscape"
   xmlns:sodipodi="http://sodipodi.sourceforge.net/DTD/sodipodi-0.dtd"
   xmlns="http://www.w3.org/2000/svg"
   xmlns:svg="http://www.w3.org/2000/svg">
  <defs
     id="defs1">
    <clipPath
       clipPathUnits="userSpaceOnUse"
       id="clipPath2">
      <path
         d="M 0,0.16 V 1122.5601 H 793.59998 V 0.16 Z"
         transform="translate(-324,-482)"
         clip-rule="evenodd"
         id="path2" />
    </clipPath>
    <clipPath
       clipPathUnits="userSpaceOnUse"
       id="clipPath4">
      <path
         d="M 0,0.16 V 1122.5601 H 793.59998 V 0.16 Z"
         transform="translate(-573.11999,-482)"
         clip-rule="evenodd"
         id="path4" />
    </clipPath>
    <clipPath
       clipPathUnits="userSpaceOnUse"
       id="clipPath6">
      <path
         d="M 0,0.16 V 1122.5601 H 793.59998 V 0.16 Z"
         transform="translate(-234.39999,-663.35999)"
         clip-rule="evenodd"
         id="path6" />
    </clipPath>
    <clipPath
       clipPathUnits="userSpaceOnUse"
       id="clipPath8">
      <path
         d="M 0,0.16 V 1122.5601 H 793.59998 V 0.16 Z"
         transform="translate(-233.28,-662.23999)"
         clip-rule="evenodd"
         id="path8" />
    </clipPath>
    <clipPath
       clipPathUnits="userSpaceOnUse"
       id="clipPath10">
      <path
         d="M 0,0.16 V 1122.5601 H 793.59998 V 0.16 Z"
         transform="translate(-234.72,-753.76001)"
         clip-rule="evenodd"
         id="path10" />
    </clipPath>
    <clipPath
       clipPathUnits="userSpaceOnUse"
       id="clipPath12">
      <path
         d="M 0,0.16 V 1122.5601 H 793.59998 V 0.16 Z"
         transform="translate(-234.72,-753.76001)"
         clip-rule="evenodd"
         id="path12" />
    </clipPath>
    <clipPath
       clipPathUnits="userSpaceOnUse"
       id="clipPath14">
      <path
         d="M 0,0.16 V 1122.5601 H 793.59998 V 0.16 Z"
         transform="translate(-234.72,-572.64002)"
         clip-rule="evenodd"
         id="path14" />
    </clipPath>
    <clipPath
       clipPathUnits="userSpaceOnUse"
       id="clipPath16">
      <path
         d="M 0,0.16 V 1122.5601 H 793.59998 V 0.16 Z"
         transform="translate(-234.72,-844.32001)"
         clip-rule="evenodd"
         id="path16" />
    </clipPath>
    <clipPath
       clipPathUnits="userSpaceOnUse"
       id="clipPath18">
      <path
         d="M 0,0.16 V 1122.5601 H 793.59998 V 0.16 Z"
         transform="translate(-483.51999,-663.52002)"
         clip-rule="evenodd"
         id="path18" />
    </clipPath>
    <clipPath
       clipPathUnits="userSpaceOnUse"
       id="clipPath20">
      <path
         d="M 0,0.16 V 1122.5601 H 793.59998 V 0.16 Z"
         transform="translate(-482.39999,-662.23999)"
         clip-rule="evenodd"
         id="path20" />
    </clipPath>
    <clipPath
       clipPathUnits="userSpaceOnUse"
       id="clipPath22">
      <path
         d="M 0,0.16 V 1122.5601 H 793.59998 V 0.16 Z"
         transform="translate(-483.83999,-753.76001)"
         clip-rule="evenodd"
         id="path22" />
    </clipPath>
    <clipPath
       clipPathUnits="userSpaceOnUse"
       id="clipPath24">
      <path
         d="M 0,0.16 V 1122.5601 H 793.59998 V 0.16 Z"
         transform="translate(-483.83999,-753.76001)"
         clip-rule="evenodd"
         id="path24" />
    </clipPath>
    <clipPath
       clipPathUnits="userSpaceOnUse"
       id="clipPath26">
      <path
         d="M 0,0.16 V 1122.5601 H 793.59998 V 0.16 Z"
         transform="translate(-483.83999,-572.64002)"
         clip-rule="evenodd"
         id="path26" />
    </clipPath>
    <clipPath
       clipPathUnits="userSpaceOnUse"
       id="clipPath28">
      <path
         d="M 0,0.16 V 1122.5601 H 793.59998 V 0.16 Z"
         transform="translate(-483.83999,-844.32001)"
         clip-rule="evenodd"
         id="path28" />
    </clipPath>
  </defs>
  <sodipodi:namedview
     id="namedview1"
     pagecolor="#505050"
     bordercolor="#eeeeee"
     borderopacity="1"
     inkscape:showpageshadow="0"
     inkscape:pageopacity="0"
     inkscape:pagecheckerboard="0"
     inkscape:deskcolor="#505050">
    <inkscape:page
       x="0"
       y="0"
       inkscape:label="1"
       id="page1"
       width="481.58667"
       height="505.89334"
       margin="0"
       bleed="0" />
  </sodipodi:namedview>
  <g
     id="g1"
     inkscape:groupmode="layer"
     inkscape:label="1">
    <path
       id="path1"
       d="M 0,0 C 0,-50.049999 -40.580002,-90.639999 -90.639999,-90.639999 -140.7,-90.639999 -181.28,-50.049999 -181.28,0 c 0,50.049999 40.58,90.639999 90.640001,90.639999 C -40.580002,90.639999 0,50.049999 0,0 Z"
       style="fill:none;stroke:#000000;stroke-width:26.4;stroke-linecap:round;stroke-linejoin:round;stroke-miterlimit:10;stroke-dasharray:none;stroke-opacity:1"
       transform="translate(205.26667,114.93327)"
       clip-path="url(#clipPath2)" />
    <path
       id="path3"
       d="m 0,0 c 0,-50.049999 -40.540001,-90.639999 -90.559998,-90.639999 -50.020002,0 -90.559992,40.59 -90.559992,90.639999 0,50.049999 40.53999,90.639999 90.559992,90.639999 C -40.540001,90.639999 0,50.049999 0,0 Z"
       style="fill:none;stroke:#000000;stroke-width:26.4;stroke-linecap:round;stroke-linejoin:round;stroke-miterlimit:10;stroke-dasharray:none;stroke-opacity:1"
       transform="translate(454.38666,114.93327)"
       clip-path="url(#clipPath4)" />
    <path
       id="path5"
       d="m 0,0 h 2.56 l 2.56,-0.48 2.4,-0.64 2.4,-0.96 2.24,-1.28 2.08,-1.44 1.76,-1.76 1.76,-1.92 1.440001,-2.08 L 20.48,-12.8 21.440001,-15.04 22.08,-17.6 22.4,-20 22.559999,-22.559999 22.4,-25.120001 21.92,-27.68 21.280001,-30.08 20.16,-32.48 18.879999,-34.560001 17.440001,-36.639999 15.68,-38.560001 13.76,-40.16 11.68,-41.599998 9.44,-42.880001 7.04,-43.68 l -2.4,-0.8 -2.56,-0.319999"
       style="fill:none;stroke:#000000;stroke-width:26.4;stroke-linecap:round;stroke-linejoin:round;stroke-miterlimit:10;stroke-dasharray:none;stroke-opacity:1"
       transform="translate(115.66666,296.29326)"
       clip-path="url(#clipPath6)" />
    <path
       id="path7"
       d="m 0,0 -2.56,0.32 -2.56,0.32 -2.56,0.8 -2.56,0.96 -2.24,1.28 -2.24,1.6 -1.919999,1.76 -1.760001,1.92 -1.44,2.24 -1.280001,2.24 -1.119999,2.4 -0.639999,2.56 -0.480002,2.720001 L -23.52,23.68 l 0.159999,2.72 0.480002,2.559999 L -22.24,31.52 -21.280001,33.919998 -20,36.32 l 1.6,2.080002 1.760001,1.919998 1.919999,1.760002 2.24,1.599998 2.24,1.279999 2.4,0.959999 2.56,0.800003 2.72,0.48 2.56,0.16 2.56,-0.32"
       style="fill:none;stroke:#000000;stroke-width:26.4;stroke-linecap:round;stroke-linejoin:round;stroke-miterlimit:10;stroke-dasharray:none;stroke-opacity:1"
       transform="translate(114.54667,295.17326)"
       clip-path="url(#clipPath8)" />
    <path
       id="path9"
       d="m 0,0 h 2.56 l 2.4,-0.48 2.24,-0.64 2.4,-0.96 2.08,-1.12 2.08,-1.44 1.76,-1.6 L 17.280001,-8 18.719999,-10.08 19.84,-12.16 20.799999,-14.4 21.6,-16.799999 22.08,-19.200001 22.24,-21.6 V -24 L 21.92,-26.4 21.280001,-28.799999 20.32,-31.040001 19.200001,-33.279999 17.92,-35.360001 16.32,-37.279999 14.56,-38.880001 12.64,-40.48 10.56,-41.759998 8.32,-42.720001 6.08,-43.52 3.68,-44.16 1.12,-44.48"
       style="fill:none;stroke:#000000;stroke-width:26.4;stroke-linecap:round;stroke-linejoin:round;stroke-miterlimit:10;stroke-dasharray:none;stroke-opacity:1"
       transform="translate(115.98667,386.69328)"
       clip-path="url(#clipPath10)" />
    <path
       id="path11"
       d="m 0,0 -2.56,0.16 -2.56,0.48 -2.4,0.64 -2.4,1.12 -2.4,1.28 -2.08,1.44 -1.92,1.76 -1.76,1.92 -1.44,2.08 -1.279999,2.24 -0.960001,2.4 -0.64,2.56 -0.479999,2.559999 -0.160002,2.560002 0.160002,2.559999 0.479999,2.56 0.64,2.399999 0.960001,2.4 1.279999,2.240002 1.44,2.239997 1.76,1.920002 1.92,1.759999 2.08,1.440002 2.4,1.279999 2.4,0.959999 2.4,0.639999 2.56,0.480004 H 0"
       style="fill:none;stroke:#000000;stroke-width:26.4;stroke-linecap:round;stroke-linejoin:round;stroke-miterlimit:10;stroke-dasharray:none;stroke-opacity:1"
       transform="translate(115.98667,386.69328)"
       clip-path="url(#clipPath12)" />
    <path
       id="path13"
       d="m 0,0 -2.56,0.16 -2.4,0.48 -2.56,0.64 -2.24,0.96 -2.24,1.28 -2.08,1.44 -1.92,1.76 -1.76,1.76 -1.440001,2.08 -1.279999,2.24 -1.12,2.4 -0.64,2.4 -0.479999,2.56 -0.16,2.399999 v 2.560002 L -22.4,27.68 l 0.64,2.4 0.800001,2.4 1.279999,2.240001 1.44,2.239998 1.600001,1.920002 1.919999,1.759998 1.92,1.440003 2.24,1.279999 2.4,1.119999 2.4,0.799999 2.4,0.479999 2.56,0.16 h 2.56"
       style="fill:none;stroke:#000000;stroke-width:26.4;stroke-linecap:round;stroke-linejoin:round;stroke-miterlimit:10;stroke-dasharray:none;stroke-opacity:1"
       transform="translate(115.98667,205.57329)"
       clip-path="url(#clipPath14)" />
    <path
       id="path15"
       d="m 0,0 h 2.56 l 2.4,-0.48 2.4,-0.64 2.4,-0.96 2.08,-1.28 2.08,-1.44 1.76,-1.6 1.760001,-1.92 1.439998,-1.92 L 20,-12.48 20.959999,-14.72 21.76,-17.120001 22.08,-19.68 l 0.16,-2.4 -0.16,-2.559999 -0.32,-2.400002 -0.800001,-2.4 L 20,-31.68 18.879999,-33.919998 17.440001,-36 15.68,-37.759998 13.92,-39.52 11.84,-40.959999 9.76,-42.080002 7.36,-43.040001 4.96,-43.84 2.56,-44.16 0,-44.48"
       style="fill:none;stroke:#000000;stroke-width:26.4;stroke-linecap:round;stroke-linejoin:round;stroke-miterlimit:10;stroke-dasharray:none;stroke-opacity:1"
       transform="translate(115.98667,477.25328)"
       clip-path="url(#clipPath16)" />
    <path
       id="path17"
       d="m 0,0 2.72,-0.16 2.4,-0.48 2.56,-0.64 2.24,-0.96 2.24,-1.28 2.08,-1.44 1.92,-1.76 1.6,-1.92 1.600001,-2.08 1.119999,-2.24 0.960001,-2.24 0.639999,-2.56 0.479999,-2.4 0.16,-2.559999 L 22.4,-25.280001 22.08,-27.84 21.280001,-30.24 20.32,-32.48 l -1.279999,-2.240001 -1.6,-2.079998 L 15.84,-38.720001 13.92,-40.32 11.84,-41.759998 9.44,-42.880001 7.2,-43.84 4.64,-44.48 2.08,-44.959999"
       style="fill:none;stroke:#000000;stroke-width:26.4;stroke-linecap:round;stroke-linejoin:round;stroke-miterlimit:10;stroke-dasharray:none;stroke-opacity:1"
       transform="translate(364.78666,296.45329)"
       clip-path="url(#clipPath18)" />
    <path
       id="path19"
       d="m 0,0 -2.56,0.32 -2.56,0.48 -2.56,0.64 -2.4,0.96 -2.4,1.28 -2.08,1.6 -1.92,1.76 -1.76,1.92 -1.6,2.24 -1.280001,2.24 L -22.08,16 -22.879999,18.4 -23.360001,21.120001 -23.52,23.68 l 0.159999,2.72 0.480002,2.559999 L -22.08,31.52 -21.120001,33.919998 -19.84,36.32 -18.4,38.400002 -16.639999,40.48 -14.56,42.240002 -12.48,43.68 l 2.4,1.279999 2.4,1.120003 2.56,0.639999 2.56,0.48 2.72,0.16 2.56,-0.32"
       style="fill:none;stroke:#000000;stroke-width:26.4;stroke-linecap:round;stroke-linejoin:round;stroke-miterlimit:10;stroke-dasharray:none;stroke-opacity:1"
       transform="translate(363.66666,295.17326)"
       clip-path="url(#clipPath20)" />
    <path
       id="path21"
       d="m 0,0 h 2.56 l 2.4,-0.48 2.4,-0.64 2.24,-0.96 2.24,-1.12 1.92,-1.44 1.92,-1.6 L 17.280001,-8 18.719999,-9.92 20,-12.16 20.959999,-14.4 21.6,-16.639999 22.08,-19.040001 22.4,-21.6 22.24,-24 21.92,-26.4 21.280001,-28.799999 20.48,-31.040001 19.360001,-33.279999 18.08,-35.360001 16.48,-37.279999 14.72,-38.880001 12.8,-40.48 10.72,-41.759998 8.48,-42.720001 6.08,-43.52 3.68,-44 1.28,-44.48"
       style="fill:none;stroke:#000000;stroke-width:26.4;stroke-linecap:round;stroke-linejoin:round;stroke-miterlimit:10;stroke-dasharray:none;stroke-opacity:1"
       transform="translate(365.10666,386.69328)"
       clip-path="url(#clipPath22)" />
    <path
       id="path23"
       d="m 0,0 -2.4,0.16 -2.56,0.48 -2.56,0.8 -2.4,0.96 -2.24,1.28 -2.08,1.44 -1.92,1.76 -1.76,1.92 -1.440001,2.08 -1.279998,2.24 -0.960001,2.4 -0.8,2.56 -0.479999,2.559999 -0.160002,2.560002 0.160002,2.559999 0.479999,2.56 0.8,2.559999 0.960001,2.24 1.279998,2.400001 1.440001,2.079998 1.76,1.920002 1.92,1.759999 2.08,1.440002 L -9.92,44 l 2.4,0.959999 2.56,0.799999 2.56,0.320004 2.4,0.16"
       style="fill:none;stroke:#000000;stroke-width:26.4;stroke-linecap:round;stroke-linejoin:round;stroke-miterlimit:10;stroke-dasharray:none;stroke-opacity:1"
       transform="translate(365.10666,386.69328)"
       clip-path="url(#clipPath24)" />
    <path
       id="path25"
       d="m 0,0 -2.4,0.16 -2.56,0.48 -2.4,0.64 -2.4,0.96 -2.24,1.28 -2.08,1.44 -1.92,1.76 -1.76,1.76 -1.440001,2.08 -1.279999,2.24 -0.960001,2.4 -0.799999,2.4 -0.479999,2.56 -0.16,2.559999 0.16,2.560002 L -22.4,27.68 l 0.64,2.56 0.960001,2.399999 1.119999,2.240002 1.44,2.079998 1.76,1.920002 1.76,1.759998 2.08,1.440003 2.24,1.439998 2.24,0.96 2.4,0.799999 2.56,0.479999 2.56,0.320004 2.4,-0.160004"
       style="fill:none;stroke:#000000;stroke-width:26.4;stroke-linecap:round;stroke-linejoin:round;stroke-miterlimit:10;stroke-dasharray:none;stroke-opacity:1"
       transform="translate(365.10666,205.57329)"
       clip-path="url(#clipPath26)" />
    <path
       id="path27"
       d="m 0,0 h 2.56 l 2.56,-0.48 2.4,-0.64 2.24,-0.96 2.24,-1.12 1.92,-1.44 1.92,-1.76 1.600001,-1.76 1.439998,-2.08 1.280001,-2.24 0.960001,-2.24 0.639999,-2.400001 0.48,-2.399999 0.16,-2.56 -0.16,-2.559999 -0.48,-2.400002 -0.639999,-2.4 L 20.16,-31.68 18.879999,-33.919998 17.440001,-36 15.84,-37.759998 13.92,-39.52 12,-40.959999 9.76,-42.080002 7.52,-43.040001 5.12,-43.68 2.56,-44.16 0,-44.32"
       style="fill:none;stroke:#000000;stroke-width:26.4;stroke-linecap:round;stroke-linejoin:round;stroke-miterlimit:10;stroke-dasharray:none;stroke-opacity:1"
       transform="translate(365.10666,477.25328)"
       clip-path="url(#clipPath28)" />
  </g>
</svg>
