<?xml version="1.0" encoding="UTF-8" standalone="no"?>
<!-- Created with Inkscape (http://www.inkscape.org/) -->

<svg
   version="1.1"
   id="svg1"
   width="326.85333"
   height="415.12"
   viewBox="0 0 326.85333 415.12"
   sodipodi:docname="Ash2.pdf"
   xmlns:inkscape="http://www.inkscape.org/namespaces/inkscape"
   xmlns:sodipodi="http://sodipodi.sourceforge.net/DTD/sodipodi-0.dtd"
   xmlns="http://www.w3.org/2000/svg"
   xmlns:svg="http://www.w3.org/2000/svg">
  <defs
     id="defs1">
    <clipPath
       clipPathUnits="userSpaceOnUse"
       id="clipPath2">
      <path
         d="M 0,0.16 V 1122.5601 H 793.59998 V 0.16 Z"
         transform="translate(-488.48001,-396.32001)"
         clip-rule="evenodd"
         id="path2" />
    </clipPath>
    <clipPath
       clipPathUnits="userSpaceOnUse"
       id="clipPath4">
      <path
         d="M 0,0.16 V 1122.5601 H 793.59998 V 0.16 Z"
         transform="translate(-410.07999,-561.28003)"
         clip-rule="evenodd"
         id="path4" />
    </clipPath>
    <clipPath
       clipPathUnits="userSpaceOnUse"
       id="clipPath6">
      <path
         d="M 0,0.16 V 1122.5601 H 793.59998 V 0.16 Z"
         transform="translate(-410.07999,-561.28003)"
         clip-rule="evenodd"
         id="path6" />
    </clipPath>
  </defs>
  <sodipodi:namedview
     id="namedview1"
     pagecolor="#505050"
     bordercolor="#eeeeee"
     borderopacity="1"
     inkscape:showpageshadow="0"
     inkscape:pageopacity="0"
     inkscape:pagecheckerboard="0"
     inkscape:deskcolor="#505050">
    <inkscape:page
       x="0"
       y="0"
       inkscape:label="1"
       id="page1"
       width="326.85333"
       height="415.12"
       margin="0"
       bleed="0" />
  </sodipodi:namedview>
  <g
     id="g1"
     inkscape:groupmode="layer"
     inkscape:label="1">
    <path
       id="path1"
       d="m 0,0 -8.16,-4.32 -8.32,-3.84 -8.640001,-3.52 -8.639997,-3.04 -8.800003,-2.560001 L -51.52,-19.52 l -9.119999,-1.760001 -9.120003,-1.279998 -9.279999,-0.800002 -9.120003,-0.479999 -9.279998,0.16 -9.279998,0.479999 -9.12,0.960001 -9.12,1.440001 -8.96,1.759998 -8.96,2.400002 -8.79999,2.719999 -8.80001,3.04 -8.48001,3.68 -8.31999,4 -8.16,4.32 -7.84,4.8 -7.68001,5.12 -7.36,5.599999 L -215.36,22.4 l -6.88,6.239999 -6.56,6.560002 -6.08,6.880001 -5.92,7.199997 -5.44,7.36 -5.12,7.680001 -4.8,8 -4.32001,8.160003 -3.84,8.32 -3.51999,8.479996 -3.20001,8.640001 -2.56,8.96 -2.23999,8.96 -1.76001,8.96 -1.44,9.12 -0.79999,9.28 -0.48001,9.12001 v 9.28 l 0.48001,9.27999 0.79999,9.12 1.44,9.11999 1.76001,9.12001 2.23999,8.96 2.56,8.8 3.20001,8.64 3.51999,8.47999 3.84,8.48002 4.32001,8.16 4.8,7.84 5.12,7.67999 5.44,7.51999 5.92,7.04001 6.08,6.88 6.56,6.56 6.88,6.23999 7.03999,5.92001 7.36,5.44 7.68001,5.12 7.84,4.79999 8.16,4.48001 8.31999,4 8.48001,3.51999 8.80001,3.20001 8.79999,2.72 8.96,2.23999 8.96,1.92001 9.12,1.28 9.12,0.96 9.279998,0.48001 9.279998,0.16 9.120003,-0.48001 9.279999,-0.79999 9.120003,-1.28 9.119999,-1.76001 8.959999,-2.08001 8.800003,-2.71998 8.639997,-3.04 8.640001,-3.36002 8.32,-4 8.16,-4.16"
       style="fill:none;stroke:#000000;stroke-width:26.4;stroke-linecap:round;stroke-linejoin:round;stroke-miterlimit:10;stroke-dasharray:none;stroke-opacity:1"
       transform="translate(488.48001,396.31995)"
       clip-path="url(#clipPath2)" />
    <path
       id="path3"
       d="m 0,0 -0.16,-1.76 -0.32,-1.6 -0.48,-1.6 -0.8,-1.6 -0.96,-1.44 -1.12,-1.28 -1.28,-1.12 -1.44,-0.96 -1.6,-0.8 -1.6,-0.64 -1.76,-0.32 h -1.76 -1.6 l -1.759999,0.32 -1.600001,0.64 -1.6,0.8 -1.440001,0.96 -1.279998,1.12 L -23.68,-8 l -0.959999,1.44 -0.800002,1.6 -0.479999,1.6 -0.48,1.6 V 0 1.76 l 0.48,1.76 0.479999,1.6 0.800002,1.44 L -23.68,8 l 1.120001,1.44 1.279998,1.12 1.440001,0.96 1.6,0.64 1.600001,0.64 1.759999,0.32 1.6,0.16 1.76,-0.16 1.76,-0.32 1.6,-0.64 1.6,-0.64 1.44,-0.96 L -3.84,9.44 -2.72,8 -1.76,6.56 -0.96,5.12 -0.48,3.52 -0.16,1.76 0,0 v 0 z"
       style="fill:#000000;fill-opacity:1;fill-rule:evenodd;stroke:none"
       transform="translate(410.07999,561.27997)"
       clip-path="url(#clipPath4)" />
    <path
       id="path5"
       d="m 0,0 -0.16,-1.76 -0.32,-1.6 -0.48,-1.6 -0.8,-1.6 -0.96,-1.44 -1.12,-1.28 -1.28,-1.12 -1.44,-0.96 -1.6,-0.8 -1.6,-0.64 -1.76,-0.32 h -1.76 -1.6 l -1.759999,0.32 -1.600001,0.64 -1.6,0.8 -1.440001,0.96 -1.279998,1.12 L -23.68,-8 l -0.959999,1.44 -0.800002,1.6 -0.479999,1.6 -0.48,1.6 V 0 1.76 l 0.48,1.76 0.479999,1.6 0.800002,1.44 L -23.68,8 l 1.120001,1.44 1.279998,1.12 1.440001,0.96 1.6,0.64 1.600001,0.64 1.759999,0.32 1.6,0.16 1.76,-0.16 1.76,-0.32 1.6,-0.64 1.6,-0.64 1.44,-0.96 L -3.84,9.44 -2.72,8 -1.76,6.56 -0.96,5.12 -0.48,3.52 -0.16,1.76 0,0"
       style="fill:none;stroke:#000000;stroke-width:0.64;stroke-linecap:round;stroke-linejoin:round;stroke-miterlimit:10;stroke-dasharray:none;stroke-opacity:1"
       transform="translate(410.07999,561.27997)"
       clip-path="url(#clipPath6)" />
  </g>
</svg>
