<?xml version="1.0" encoding="UTF-8" standalone="no"?>
<!-- Created with Inkscape (http://www.inkscape.org/) -->

<svg
   version="1.1"
   id="svg1"
   width="478.93332"
   height="497.88"
   viewBox="0 0 478.93332 497.88"
   sodipodi:docname="AshesOfLead3.pdf"
   xmlns:inkscape="http://www.inkscape.org/namespaces/inkscape"
   xmlns:sodipodi="http://sodipodi.sourceforge.net/DTD/sodipodi-0.dtd"
   xmlns="http://www.w3.org/2000/svg"
   xmlns:svg="http://www.w3.org/2000/svg">
  <defs
     id="defs1">
    <clipPath
       clipPathUnits="userSpaceOnUse"
       id="clipPath2">
      <path
         d="M 0,0.16 V 1122.5601 H 793.59998 V 0.16 Z"
         transform="translate(-182.72,-750.71997)"
         clip-rule="evenodd"
         id="path2" />
    </clipPath>
    <clipPath
       clipPathUnits="userSpaceOnUse"
       id="clipPath4">
      <path
         d="M 0,0.16 V 1122.5601 H 793.59998 V 0.16 Z"
         transform="translate(-611.03998,-373.76001)"
         clip-rule="evenodd"
         id="path4" />
    </clipPath>
    <clipPath
       clipPathUnits="userSpaceOnUse"
       id="clipPath6">
      <path
         d="M 0,0.16 V 1122.5601 H 793.59998 V 0.16 Z"
         clip-rule="evenodd"
         id="path6" />
    </clipPath>
  </defs>
  <sodipodi:namedview
     id="namedview1"
     pagecolor="#505050"
     bordercolor="#eeeeee"
     borderopacity="1"
     inkscape:showpageshadow="0"
     inkscape:pageopacity="0"
     inkscape:pagecheckerboard="0"
     inkscape:deskcolor="#505050">
    <inkscape:page
       x="0"
       y="0"
       inkscape:label="1"
       id="page1"
       width="478.93332"
       height="497.88"
       margin="0"
       bleed="0" />
  </sodipodi:namedview>
  <g
     id="g1"
     inkscape:groupmode="layer"
     inkscape:label="1">
    <path
       id="path1"
       d="M 0,0 0.16,3.52 0.48,6.88 1.12,10.4 2.08,13.6 3.2,16.799999 4.48,19.84 6.08,22.719999 7.84,25.440001 9.92,27.84 12,30.08 l 2.24,2.08 2.559999,1.599998 2.560002,1.440003 L 21.92,36.32 l 2.719999,0.799999 2.720002,0.479999 2.879999,0.16 2.719999,-0.16 L 35.68,37.119999 38.400002,36.32 41.119999,35.200001 43.68,33.759998 46.080002,32.16 48.48,30.08 50.560001,27.84 52.48,25.440001 54.240002,22.719999 55.84,19.84 57.279999,16.799999 58.400002,13.6 59.200001,10.4 59.84,6.88 60.32,3.52 60.48,0"
       style="fill:none;stroke:#000000;stroke-width:26.4;stroke-linecap:round;stroke-linejoin:round;stroke-miterlimit:10;stroke-dasharray:none;stroke-opacity:1"
       transform="translate(182.72,761.39991)"
       clip-path="url(#clipPath2)" />
    <path
       id="path3"
       d="M 0,0 -0.16,-3.52 -0.64,-6.88 -1.28,-10.4 -2.08,-13.6 -3.2,-16.799999 -4.64,-19.84 -6.08,-22.719999 -8,-25.440001 -9.92,-28 -12,-30.08 l -2.4,-2.08 -2.399999,-1.599998 -2.560002,-1.440003 L -21.92,-36.32 l -2.719999,-0.799999 -2.880001,-0.479999 -2.72,-0.16 -2.879999,0.16 -2.720001,0.479999 -2.720001,0.799999 -2.559998,1.119999 -2.560001,1.440003 -2.560002,1.599998 -2.239998,2.08 -2.080001,2.08 -2.079998,2.559999 -1.760003,2.720002 L -56,-19.84 -57.279999,-16.799999 -58.400002,-13.6 -59.360001,-10.4 -60,-6.88 -60.32,-3.52 -60.48,0"
       style="fill:none;stroke:#000000;stroke-width:26.4;stroke-linecap:round;stroke-linejoin:round;stroke-miterlimit:10;stroke-dasharray:none;stroke-opacity:1"
       transform="translate(611.03998,384.43995)"
       clip-path="url(#clipPath4)" />
    <path
       id="path5"
       d="m 235.67999,775.52002 104.96002,-441.44003 108.31998,452.16 104.80002,-429.44"
       style="fill:none;stroke:#000000;stroke-width:26.4;stroke-linecap:round;stroke-linejoin:round;stroke-miterlimit:10;stroke-dasharray:none;stroke-opacity:1"
       transform="translate(0,10.679941)"
       clip-path="url(#clipPath6)" />
  </g>
</svg>
