<?xml version="1.0" encoding="UTF-8" standalone="no"?>
<!-- Created with Inkscape (http://www.inkscape.org/) -->

<svg
   version="1.1"
   id="svg1"
   width="365.53333"
   height="365.73334"
   viewBox="0 0 365.53333 365.73334"
   sodipodi:docname="AurumPotabile3.pdf"
   xmlns:inkscape="http://www.inkscape.org/namespaces/inkscape"
   xmlns:sodipodi="http://sodipodi.sourceforge.net/DTD/sodipodi-0.dtd"
   xmlns="http://www.w3.org/2000/svg"
   xmlns:svg="http://www.w3.org/2000/svg">
  <defs
     id="defs1">
    <clipPath
       clipPathUnits="userSpaceOnUse"
       id="clipPath2">
      <path
         d="M 0,0.16 V 1122.5601 H 793.59998 V 0.16 Z"
         transform="translate(-536.47998,-542.40003)"
         clip-rule="evenodd"
         id="path2" />
    </clipPath>
    <clipPath
       clipPathUnits="userSpaceOnUse"
       id="clipPath4">
      <path
         d="M 0,0.16 V 1122.5601 H 793.59998 V 0.16 Z"
         clip-rule="evenodd"
         id="path4" />
    </clipPath>
    <clipPath
       clipPathUnits="userSpaceOnUse"
       id="clipPath6">
      <path
         d="M 0,0.16 V 1122.5601 H 793.59998 V 0.16 Z"
         clip-rule="evenodd"
         id="path6" />
    </clipPath>
    <clipPath
       clipPathUnits="userSpaceOnUse"
       id="clipPath8">
      <path
         d="M 0,0.16 V 1122.5601 H 793.59998 V 0.16 Z"
         transform="translate(-322.88,-621.76001)"
         clip-rule="evenodd"
         id="path8" />
    </clipPath>
  </defs>
  <sodipodi:namedview
     id="namedview1"
     pagecolor="#505050"
     bordercolor="#eeeeee"
     borderopacity="1"
     inkscape:showpageshadow="0"
     inkscape:pageopacity="0"
     inkscape:pagecheckerboard="0"
     inkscape:deskcolor="#505050">
    <inkscape:page
       x="0"
       y="0"
       inkscape:label="1"
       id="page1"
       width="365.53333"
       height="365.73334"
       margin="0"
       bleed="0" />
  </sodipodi:namedview>
  <g
     id="g1"
     inkscape:groupmode="layer"
     inkscape:label="1">
    <path
       id="path1"
       d="m 0,0 c 0,-87.57 -70.980003,-158.56 -158.56,-158.56 -87.58,0 -158.56,70.99 -158.56,158.56 0,87.57 70.98,158.56 158.56,158.56 C -70.980003,158.56 0,87.57 0,0 Z"
       style="fill:none;stroke:#000000;stroke-width:26.4;stroke-linecap:round;stroke-linejoin:round;stroke-miterlimit:10;stroke-dasharray:none;stroke-opacity:1"
       transform="translate(536.47998,589.11997)"
       clip-path="url(#clipPath2)" />
    <path
       id="path3"
       d="M 377.92001,383.84 V 700.96002"
       style="fill:none;stroke:#000000;stroke-width:26.4;stroke-linecap:round;stroke-linejoin:round;stroke-miterlimit:10;stroke-dasharray:none;stroke-opacity:1"
       transform="translate(0,46.719941)"
       clip-path="url(#clipPath4)" />
    <path
       id="path5"
       d="M 219.36,542.40002 H 536.47998"
       style="fill:none;stroke:#000000;stroke-width:26.4;stroke-linecap:round;stroke-linejoin:round;stroke-miterlimit:10;stroke-dasharray:none;stroke-opacity:1"
       transform="translate(0,46.719941)"
       clip-path="url(#clipPath6)" />
    <path
       id="path7"
       d="m 0,0 7.04,-0.16 6.88,-0.48 6.719999,-0.8 6.720002,-1.12 6.720001,-1.44 6.559997,-1.6 6.240002,-1.92 6.239998,-2.4 5.920002,-2.4 5.760002,-2.88 5.439995,-3.04 5.120003,-3.36 4.959999,-3.520001 4.480003,-3.679998 4.32,-4 3.839996,-4 3.520004,-4.32 3.199997,-4.479999 2.72,-4.480004 2.4,-4.799999 1.92,-4.799999 1.44,-4.800003 1.12,-4.959999 0.64,-4.96 0.16,-4.959999 -0.16,-4.959999 -0.64,-4.959999 -1.12,-4.959999 -1.44,-4.800003 -1.92,-4.799999 -2.4,-4.64 -2.72,-4.64 -3.199997,-4.48 -3.520004,-4.16 -3.839996,-4.16 -4.32,-4 -4.480003,-3.68001 -4.959999,-3.51998 -5.120003,-3.36001 -5.439995,-3.04 -5.760002,-2.72 -5.920002,-2.56 -6.239998,-2.23999 -6.240002,-2.08 -6.559997,-1.60001 -6.720001,-1.44 -6.720002,-1.12 L 13.92,-158.08 7.04,-158.39999 0,-158.56"
       style="fill:none;stroke:#000000;stroke-width:26.4;stroke-linecap:round;stroke-linejoin:round;stroke-miterlimit:10;stroke-dasharray:none;stroke-opacity:1"
       transform="translate(322.88,668.47995)"
       clip-path="url(#clipPath8)" />
  </g>
</svg>
