<?xml version="1.0" encoding="UTF-8" standalone="no"?>
<!-- Created with Inkscape (http://www.inkscape.org/) -->

<svg
   version="1.1"
   id="svg1"
   width="401.54666"
   height="272.29333"
   viewBox="0 0 401.54666 272.29333"
   sodipodi:docname="AurumPotabile2.pdf"
   xmlns:inkscape="http://www.inkscape.org/namespaces/inkscape"
   xmlns:sodipodi="http://sodipodi.sourceforge.net/DTD/sodipodi-0.dtd"
   xmlns="http://www.w3.org/2000/svg"
   xmlns:svg="http://www.w3.org/2000/svg">
  <defs
     id="defs1">
    <clipPath
       clipPathUnits="userSpaceOnUse"
       id="clipPath2">
      <path
         d="M 0,0.16 V 1122.5601 H 793.59998 V 0.16 Z"
         transform="translate(-347.20001,-646.71997)"
         clip-rule="evenodd"
         id="path2" />
    </clipPath>
    <clipPath
       clipPathUnits="userSpaceOnUse"
       id="clipPath4">
      <path
         d="M 0,0.16 V 1122.5601 H 793.59998 V 0.16 Z"
         transform="translate(-679.84002,-486.07999)"
         clip-rule="evenodd"
         id="path4" />
    </clipPath>
    <clipPath
       clipPathUnits="userSpaceOnUse"
       id="clipPath6">
      <path
         d="M 0,0.16 V 1122.5601 H 793.59998 V 0.16 Z"
         transform="translate(-3.3333333e-6)"
         clip-rule="evenodd"
         id="path6" />
    </clipPath>
    <clipPath
       clipPathUnits="userSpaceOnUse"
       id="clipPath8">
      <path
         d="M 0,0.16 V 1122.5601 H 793.59998 V 0.16 Z"
         transform="translate(-3.3333333e-6)"
         clip-rule="evenodd"
         id="path8" />
    </clipPath>
    <clipPath
       clipPathUnits="userSpaceOnUse"
       id="clipPath10">
      <path
         d="M 0,0.16 V 1122.5601 H 793.59998 V 0.16 Z"
         transform="translate(-3.3333333e-6)"
         clip-rule="evenodd"
         id="path10" />
    </clipPath>
    <clipPath
       clipPathUnits="userSpaceOnUse"
       id="clipPath12">
      <path
         d="M 0,0.16 V 1122.5601 H 793.59998 V 0.16 Z"
         transform="translate(-359.04001,-636.79999)"
         clip-rule="evenodd"
         id="path12" />
    </clipPath>
    <clipPath
       clipPathUnits="userSpaceOnUse"
       id="clipPath14">
      <path
         d="M 0,0.16 V 1122.5601 H 793.59998 V 0.16 Z"
         transform="translate(-698.88,-636.79999)"
         clip-rule="evenodd"
         id="path14" />
    </clipPath>
    <clipPath
       clipPathUnits="userSpaceOnUse"
       id="clipPath16">
      <path
         d="M 0,0.16 V 1122.5601 H 793.59998 V 0.16 Z"
         transform="translate(-359.04001,-636.79999)"
         clip-rule="evenodd"
         id="path16" />
    </clipPath>
  </defs>
  <sodipodi:namedview
     id="namedview1"
     pagecolor="#505050"
     bordercolor="#eeeeee"
     borderopacity="1"
     inkscape:showpageshadow="0"
     inkscape:pageopacity="0"
     inkscape:pagecheckerboard="0"
     inkscape:deskcolor="#505050">
    <inkscape:page
       x="0"
       y="0"
       inkscape:label="1"
       id="page1"
       width="401.54666"
       height="272.29333"
       margin="0"
       bleed="0" />
  </sodipodi:namedview>
  <g
     id="g1"
     inkscape:groupmode="layer"
     inkscape:label="1">
    <path
       id="path1"
       d="m 0,0 3.52,4.32 3.68,4 3.84,3.68 4,3.36 4.160001,2.88 4.16,2.559999 4.319999,2.240002 4.48,1.759998 4.479999,1.280001 4.48,1.120001 4.479999,0.479999 4.640004,0.16 4.479999,-0.32 4.48,-0.640001 L 63.68,25.92 l 4.480004,-1.6 4.479995,-1.760001 4.160004,-2.239999 4.32,-2.72 4,-3.04 4,-3.36 3.839996,-3.84 3.520004,-4 L 100,-0.96 l 3.36,-4.8 3.04,-4.96 2.88,-5.28 2.72,-5.6 2.4,-5.600001 2.24,-6.079998 2.08,-6.080002 1.6,-6.399997 1.44,-6.400002 1.28,-6.560001 0.96,-6.720001 0.64,-6.720002 0.48,-6.879997 v -6.720001 l -0.16,-6.879997 -0.32,-6.879998 -0.8,-6.720003 -0.96,-6.56 -1.12,-6.56 -1.6,-6.56 -1.76,-6.24 -1.92,-6.08 -2.24,-6.08001 -2.56,-5.59999 -2.72,-5.6 -2.88,-5.12 -3.2,-4.96001 -3.2,-4.79998 -3.519996,-4.32001 -3.680001,-4 -3.840004,-3.67999 -4,-3.36 -4,-3.04001 -4.319999,-2.56 -4.32,-2.24001 -4.32,-1.75999 -4.479999,-1.44 -4.48,-1.12 -4.479999,-0.64 -4.640004,-0.16 -4.479999,0.16 -4.639999,0.64 -4.48,1.12 -4.32,1.44 -4.479999,1.75999 -4.320002,2.24001 -4.16,2.56 -4.159999,3.04001 -3.84,3.36 -3.84,3.67999 -3.68,4 -3.52,4.48 -3.36,4.63999 -3.04,4.96001"
       style="fill:none;stroke:#000000;stroke-width:26.4;stroke-linecap:round;stroke-linejoin:round;stroke-miterlimit:10;stroke-dasharray:none;stroke-opacity:1"
       transform="translate(35.026679,223.58658)"
       clip-path="url(#clipPath2)" />
    <path
       id="path3"
       d="m 0,0 -3.2,-4.96 -3.2,-4.64 -3.52,-4.48 -3.68,-4 -3.840001,-3.68 -4,-3.360001 -4,-3.039999 -4.319999,-2.559999 -4.320002,-2.24 -4.32,-1.760002 -4.479999,-1.439999 -4.48,-1.119999 -4.479999,-0.639999 -4.64,-0.160004 -4.479999,0.160004 -4.480003,0.639999 -4.64,1.119999 -4.32,1.439999 -4.479995,1.760002 -4.32,2.24 -4.160004,2.559999 -4.159996,3.039999 -3.840004,3.360001 -3.839996,3.68 -3.680003,4 -3.52,4.32 -3.36,4.8 -3.04,4.96 -3.04,5.12 -2.72,5.6 -2.4,5.6 -2.24,6.08 -2.08,6.08 -1.76,6.240001 -1.44,6.559998 -1.27999,6.560001 -0.96001,6.560002 -0.64,6.719997 -0.48,6.880001 -0.16,6.879997 0.16,6.720001 0.32,6.880005 0.8,6.719994 0.96001,6.720003 1.11999,6.56 1.44,6.4 1.76,6.4 1.92,6.08 2.24,6.08 2.56,5.59999 2.56,5.60001 2.88,5.28 3.2,4.96 3.2,4.79999 3.52,4.32001 3.68,4 3.840004,3.84 3.839996,3.36 4.160004,3.04 4.159996,2.72001 4.319999,2.23999 4.32,1.76001 4.480003,1.59999 4.479996,0.96 4.640003,0.64 4.48,0.32 4.479999,-0.15999 4.64,-0.48001 4.479999,-1.12 4.48,-1.28 4.32,-1.76001 4.320001,-2.23999 4.32,-2.56 4,-2.88 4,-3.36 3.84,-3.67999 3.68,-4 3.52,-4.32001"
       style="fill:none;stroke:#000000;stroke-width:26.4;stroke-linecap:round;stroke-linejoin:round;stroke-miterlimit:10;stroke-dasharray:none;stroke-opacity:1"
       transform="translate(367.66669,62.946595)"
       clip-path="url(#clipPath4)" />
    <path
       id="path5"
       d="M 396.79999,561.28003 H 623.35998"
       style="fill:none;stroke:#000000;stroke-width:26.4;stroke-linecap:round;stroke-linejoin:round;stroke-miterlimit:10;stroke-dasharray:none;stroke-opacity:1"
       transform="translate(-312.17333,-423.13339)"
       clip-path="url(#clipPath6)" />
    <path
       id="path7"
       d="m 396.79999,542.40002 v 37.75995"
       style="fill:none;stroke:#000000;stroke-width:26.4;stroke-linecap:round;stroke-linejoin:round;stroke-miterlimit:10;stroke-dasharray:none;stroke-opacity:1"
       transform="translate(-312.17333,-423.13339)"
       clip-path="url(#clipPath8)" />
    <path
       id="path9"
       d="m 623.35998,542.40002 v 37.75995"
       style="fill:none;stroke:#000000;stroke-width:26.4;stroke-linecap:round;stroke-linejoin:round;stroke-miterlimit:10;stroke-dasharray:none;stroke-opacity:1"
       transform="translate(-312.17333,-423.13339)"
       clip-path="url(#clipPath10)" />
    <path
       id="path11"
       d="m 0,0 -0.16,-2.24 -0.32,-2.24 -0.64,-2.24 -0.96,-2.08 -1.28,-1.92 -1.28,-1.76 -1.6,-1.6 -1.92,-1.44 -1.92,-1.119999 -2.08,-0.960001 -2.08,-0.64 -2.24,-0.479999 -2.399999,-0.16 -2.240002,0.16 -2.24,0.479999 -2.239999,0.64 -1.92,0.960001 -2.08,1.119999 -1.760001,1.44 -1.599998,1.6 -1.440003,1.76 -1.119998,1.92 -0.96,2.08 -0.639999,2.24 -0.479999,2.24 -0.16,2.24 0.16,2.24 0.479999,2.24 0.639999,2.24 0.96,2.08 1.119998,1.92 1.440003,1.76 1.599998,1.6 1.760001,1.44 2.08,1.279999 1.92,0.800001 2.239999,0.8 2.24,0.319999 2.240002,0.16 2.399999,-0.16 2.24,-0.319999 2.08,-0.8 2.08,-0.800001 1.92,-1.279999 1.92,-1.44 1.6,-1.6 1.28,-1.76 L -2.08,8.8 -1.12,6.72 -0.48,4.48 -0.16,2.24 0,0 v 0 z"
       style="fill:#000000;fill-opacity:1;fill-rule:evenodd;stroke:none"
       transform="translate(46.866676,213.6666)"
       clip-path="url(#clipPath12)" />
    <path
       id="path13"
       d="m 0,0 -0.16,-2.24 -0.32,-2.24 -0.64,-2.24 -0.96,-2.08 -1.28,-1.92 -1.28,-1.76 -1.76,-1.6 -1.76,-1.44 -1.92,-1.119999 -2.08,-0.960001 -2.24,-0.64 -2.239999,-0.479999 -2.24,-0.16 -2.240002,0.16 -2.24,0.479999 -2.239999,0.64 -2.08,0.960001 -1.92,1.119999 -1.760001,1.44 -1.599998,1.6 -1.440003,1.76 -1.119998,1.92 -0.96,2.08 -0.639999,2.24 -0.479999,2.24 -0.16,2.24 0.16,2.24 0.479999,2.24 0.639999,2.24 0.96,2.08 1.119998,1.92 1.440003,1.76 1.599998,1.6 1.760001,1.44 1.92,1.279999 2.08,0.800001 2.239999,0.8 2.24,0.319999 2.240002,0.16 2.24,-0.16 L -14.4,18.4 -12.16,17.6 -10.08,16.799999 -8.16,15.52 -6.4,14.08 -4.64,12.48 -3.36,10.72 -2.08,8.8 -1.12,6.72 -0.48,4.48 -0.16,2.24 0,0 v 0 z"
       style="fill:#000000;fill-opacity:1;fill-rule:evenodd;stroke:none"
       transform="translate(386.70667,213.6666)"
       clip-path="url(#clipPath14)" />
    <path
       id="path15"
       d="m 0,0 -0.16,-2.24 -0.32,-2.24 -0.64,-2.24 -0.96,-2.08 -1.28,-1.92 -1.28,-1.76 -1.6,-1.6 -1.92,-1.44 -1.92,-1.119999 -2.08,-0.960001 -2.08,-0.64 -2.24,-0.479999 -2.399999,-0.16 -2.240002,0.16 -2.24,0.479999 -2.239999,0.64 -1.92,0.960001 -2.08,1.119999 -1.760001,1.44 -1.599998,1.6 -1.440003,1.76 -1.119998,1.92 -0.96,2.08 -0.639999,2.24 -0.479999,2.24 -0.16,2.24 0.16,2.24 0.479999,2.24 0.639999,2.24 0.96,2.08 1.119998,1.92 1.440003,1.76 1.599998,1.6 1.760001,1.44 2.08,1.279999 1.92,0.800001 2.239999,0.8 2.24,0.319999 2.240002,0.16 2.399999,-0.16 2.24,-0.319999 2.08,-0.8 2.08,-0.800001 1.92,-1.279999 1.92,-1.44 1.6,-1.6 1.28,-1.76 L -2.08,8.8 -1.12,6.72 -0.48,4.48 -0.16,2.24 0,0 m 339.84,0 -0.16001,-2.24 -0.32,-2.24 -0.63999,-2.24 -0.95999,-2.08 -1.28,-1.92 -1.28,-1.76 -1.76001,-1.6 -1.76001,-1.44 -1.91998,-1.119999 -2.08002,-0.960001 -2.23999,-0.64 -2.23999,-0.479999 -2.24002,-0.16 -2.23999,0.16 -2.23999,0.479999 -2.24002,0.64 -2.07999,0.960001 -1.92001,1.119999 -1.75998,1.44 -1.60001,1.6 -1.44,1.76 -1.11999,1.92 -0.96002,2.08 -0.63999,2.24 -0.48001,2.24 -0.16,2.24 0.16,2.24 0.48001,2.24 0.63999,2.24 0.96002,2.08 1.11999,1.92 1.44,1.76 1.60001,1.6 1.75998,1.44 1.92001,1.279999 2.07999,0.800001 2.24002,0.8 2.23999,0.319999 2.23999,0.16 2.24002,-0.16 L 325.44,18.4 l 2.23999,-0.8 2.08002,-0.800001 1.91998,-1.279999 1.76001,-1.44 1.76001,-1.6 1.28,-1.76 1.28,-1.92 0.95999,-2.08 0.63999,-2.24 0.32,-2.24 L 339.84,0"
       style="fill:none;stroke:#000000;stroke-width:0.48;stroke-linecap:round;stroke-linejoin:round;stroke-miterlimit:10;stroke-dasharray:none;stroke-opacity:1"
       transform="translate(46.866676,213.6666)"
       clip-path="url(#clipPath16)" />
  </g>
</svg>
