<?xml version="1.0" encoding="UTF-8" standalone="no"?>
<!-- Created with Inkscape (http://www.inkscape.org/) -->

<svg
   version="1.1"
   id="svg1"
   width="364.18668"
   height="419.12"
   viewBox="0 0 364.18668 419.12"
   sodipodi:docname="BoilingWine.pdf"
   xmlns:inkscape="http://www.inkscape.org/namespaces/inkscape"
   xmlns:sodipodi="http://sodipodi.sourceforge.net/DTD/sodipodi-0.dtd"
   xmlns="http://www.w3.org/2000/svg"
   xmlns:svg="http://www.w3.org/2000/svg">
  <defs
     id="defs1">
    <clipPath
       clipPathUnits="userSpaceOnUse"
       id="clipPath2">
      <path
         d="M 0,0.16 V 1122.5601 H 793.59998 V 0.16 Z"
         transform="translate(3.3333333e-6)"
         clip-rule="evenodd"
         id="path2" />
    </clipPath>
    <clipPath
       clipPathUnits="userSpaceOnUse"
       id="clipPath4">
      <path
         d="M 0,0.16 V 1122.5601 H 793.59998 V 0.16 Z"
         transform="translate(3.3333333e-6)"
         clip-rule="evenodd"
         id="path4" />
    </clipPath>
    <clipPath
       clipPathUnits="userSpaceOnUse"
       id="clipPath6">
      <path
         d="M 0,0.16 V 1122.5601 H 793.59998 V 0.16 Z"
         transform="translate(3.3333333e-6)"
         clip-rule="evenodd"
         id="path6" />
    </clipPath>
    <clipPath
       clipPathUnits="userSpaceOnUse"
       id="clipPath8">
      <path
         d="M 0,0.16 V 1122.5601 H 793.59998 V 0.16 Z"
         transform="translate(3.3333333e-6)"
         clip-rule="evenodd"
         id="path8" />
    </clipPath>
    <clipPath
       clipPathUnits="userSpaceOnUse"
       id="clipPath10">
      <path
         d="M 0,0.16 V 1122.5601 H 793.59998 V 0.16 Z"
         transform="translate(-404.32001,-376.48001)"
         clip-rule="evenodd"
         id="path10" />
    </clipPath>
  </defs>
  <sodipodi:namedview
     id="namedview1"
     pagecolor="#505050"
     bordercolor="#eeeeee"
     borderopacity="1"
     inkscape:showpageshadow="0"
     inkscape:pageopacity="0"
     inkscape:pagecheckerboard="0"
     inkscape:deskcolor="#505050">
    <inkscape:page
       x="0"
       y="0"
       inkscape:label="1"
       id="page1"
       width="364.18668"
       height="419.12"
       margin="0"
       bleed="0" />
  </sodipodi:namedview>
  <g
     id="g1"
     inkscape:groupmode="layer"
     inkscape:label="1">
    <path
       id="path1"
       d="M 255.2,466.88 387.35999,750.08002 538.40002,466.88"
       style="fill:none;stroke:#000000;stroke-width:26.4;stroke-linecap:round;stroke-linejoin:round;stroke-miterlimit:10;stroke-dasharray:none;stroke-opacity:1"
       transform="translate(-214.78667,-351.05339)"
       clip-path="url(#clipPath2)" />
    <path
       id="path3"
       d="m 236.32001,466.88 h 37.75998"
       style="fill:none;stroke:#000000;stroke-width:26.4;stroke-linecap:round;stroke-linejoin:round;stroke-miterlimit:10;stroke-dasharray:none;stroke-opacity:1"
       transform="translate(-214.78667,-351.05339)"
       clip-path="url(#clipPath4)" />
    <path
       id="path5"
       d="m 519.52002,466.88 h 37.76001"
       style="fill:none;stroke:#000000;stroke-width:26.4;stroke-linecap:round;stroke-linejoin:round;stroke-miterlimit:10;stroke-dasharray:none;stroke-opacity:1"
       transform="translate(-214.78667,-351.05339)"
       clip-path="url(#clipPath6)" />
    <path
       id="path7"
       d="M 387.35999,731.20001 V 448"
       style="fill:none;stroke:#000000;stroke-width:26.4;stroke-linecap:round;stroke-linejoin:round;stroke-miterlimit:10;stroke-dasharray:none;stroke-opacity:1"
       transform="translate(-214.78667,-351.05339)"
       clip-path="url(#clipPath8)" />
    <path
       id="path9"
       d="m 0,0 -3.2,-1.44 -3.36,-1.12 -3.36,-0.8 -3.52,-0.48 -3.359999,-0.16 -3.520001,0.16 -3.52,0.48 -3.360001,0.8 -3.359998,1.12 -3.199999,1.44 -3.040001,1.6 -2.880001,2.08 -2.720002,2.24 -2.399997,2.4 -2.240002,2.72 -1.919998,2.88 -1.760002,3.039999 L -52.16,20.16 l -1.119999,3.36 -0.800003,3.359999 -0.479999,3.360001 -0.16,3.519998 0.16,3.520001 0.479999,3.52 0.800003,3.360001 1.119999,3.36 1.439999,3.040001 1.760002,3.199997 1.919998,2.720002 2.240002,2.720001 2.399997,2.559997 L -39.68,64 l 2.880001,1.919998 3.040001,1.760002 3.199999,1.279999 3.359998,1.120003 3.360001,0.799995 3.52,0.480004 3.520001,0.159996 3.359999,-0.159996 3.52,-0.480004 3.36,-0.799995 3.36,-1.120003 3.2,-1.440002"
       style="fill:none;stroke:#000000;stroke-width:26.4;stroke-linecap:round;stroke-linejoin:round;stroke-miterlimit:10;stroke-dasharray:none;stroke-opacity:1"
       transform="translate(189.53334,25.426619)"
       clip-path="url(#clipPath10)" />
  </g>
</svg>
