<?xml version="1.0" encoding="UTF-8" standalone="no"?>
<!-- Created with Inkscape (http://www.inkscape.org/) -->

<svg
   version="1.1"
   id="svg1"
   width="273.48001"
   height="475.18668"
   viewBox="0 0 273.48001 475.18668"
   sodipodi:docname="CalcinatedSilver.pdf"
   xmlns:inkscape="http://www.inkscape.org/namespaces/inkscape"
   xmlns:sodipodi="http://sodipodi.sourceforge.net/DTD/sodipodi-0.dtd"
   xmlns="http://www.w3.org/2000/svg"
   xmlns:svg="http://www.w3.org/2000/svg">
  <defs
     id="defs1">
    <clipPath
       clipPathUnits="userSpaceOnUse"
       id="clipPath2">
      <path
         d="M 26.4,26.559999 V 1096.16 H 767.03998 V 26.559999 Z"
         transform="translate(-499.20001,-430.23999)"
         clip-rule="evenodd"
         id="path2" />
    </clipPath>
    <clipPath
       clipPathUnits="userSpaceOnUse"
       id="clipPath4">
      <path
         d="M 26.4,26.559999 V 1096.16 H 767.03998 V 26.559999 Z"
         transform="translate(-499.20001,-430.23999)"
         clip-rule="evenodd"
         id="path4" />
    </clipPath>
    <clipPath
       clipPathUnits="userSpaceOnUse"
       id="clipPath6">
      <path
         d="M 26.4,26.559999 V 1096.16 H 767.03998 V 26.559999 Z"
         transform="translate(-504.48001,-689.59998)"
         clip-rule="evenodd"
         id="path6" />
    </clipPath>
    <clipPath
       clipPathUnits="userSpaceOnUse"
       id="clipPath8">
      <path
         d="M 26.4,26.559999 V 1096.16 H 767.03998 V 26.559999 Z"
         transform="translate(-3.3333333e-6)"
         clip-rule="evenodd"
         id="path8" />
    </clipPath>
    <clipPath
       clipPathUnits="userSpaceOnUse"
       id="clipPath10">
      <path
         d="M 26.4,26.559999 V 1096.16 H 767.03998 V 26.559999 Z"
         transform="translate(-3.3333333e-6)"
         clip-rule="evenodd"
         id="path10" />
    </clipPath>
    <clipPath
       clipPathUnits="userSpaceOnUse"
       id="clipPath12">
      <path
         d="M 26.4,26.559999 V 1096.16 H 767.03998 V 26.559999 Z"
         transform="translate(-510.07998,-768.96002)"
         clip-rule="evenodd"
         id="path12" />
    </clipPath>
  </defs>
  <sodipodi:namedview
     id="namedview1"
     pagecolor="#505050"
     bordercolor="#eeeeee"
     borderopacity="1"
     inkscape:showpageshadow="0"
     inkscape:pageopacity="0"
     inkscape:pagecheckerboard="0"
     inkscape:deskcolor="#505050">
    <inkscape:page
       x="0"
       y="0"
       inkscape:label="1"
       id="page1"
       width="273.48001"
       height="475.18668"
       margin="0"
       bleed="0" />
  </sodipodi:namedview>
  <g
     id="g1"
     inkscape:groupmode="layer"
     inkscape:label="1">
    <path
       id="path1"
       d="m 0,0 -7.52,-3.36 -7.68,-2.88 -7.679999,-2.56 -8,-2.08 -8.000002,-1.76 -8,-1.12 -8.16,-0.8 -8.16,-0.32 -8.319996,0.32 -8.160003,0.64 -8,0.96 -8,1.6 -8,1.92 -7.84,2.56 -7.68,2.88 -7.52,3.2 -7.2,3.68 -7.04001,4.16 -6.87999,4.48 -6.55999,4.96 -6.24001,5.12 -6.08,5.600001 -5.60001,5.919998 -5.28,6.240002 -5.11999,6.559997 -4.48,6.720001 -4.32,7.040001 -3.68,7.199997 -3.52,7.520005 -2.88001,7.519996 -2.55999,7.840004 -2.08,7.839996 -1.6,8.000002 -1.27999,8.16 -0.80001,8.16 -0.16,8.16 0.16,8.16 0.64,8.15999 0.95999,8.16001 1.60001,8 1.92,8 2.56,7.68 2.72,7.68 3.36,7.52 3.68,7.36 4.15999,7.04 4.48001,6.88 4.80001,6.56 5.28,6.24 5.59999,6.08001 5.92,5.59999 6.24,5.28 6.39999,4.96 6.88001,4.64 6.88,4.15999 7.36,3.84 7.36,3.36001 7.68,3.04001 7.68,2.56 7.999998,2.07999 8,1.6 8,1.28 8.160004,0.79999 8.159996,0.16 8.320003,-0.16 8.16,-0.47998 8,-1.12 8,-1.6 8,-1.92002 7.839998,-2.39999 7.680001,-2.88001 7.52,-3.35998 7.2,-3.68002"
       style="fill:none;stroke:#000000;stroke-width:26.4;stroke-linecap:round;stroke-linejoin:round;stroke-miterlimit:10;stroke-dasharray:none;stroke-opacity:1"
       transform="translate(236.38668,36.479931)"
       clip-path="url(#clipPath2)" />
    <path
       id="path3"
       d="m 0,0 -7.52,1.44 -7.52,1.92 -7.2,2.24 -7.200001,2.88 -7.039999,3.04 -6.720001,3.52 -6.559997,4.000001 L -56,23.360001 -62.080002,28 -67.839996,32.959999 -73.440002,38.400002 -78.559998,44 l -4.800003,5.919998 -4.479995,6.240002 -4,6.560001 -3.680001,6.720001 -3.36,6.879998 -2.880003,7.040001 -2.4,7.199997 -2.08,7.36 -1.6,7.520002 -1.28,7.52 -0.64,7.68 -0.32,7.68001 0.16,7.51999 0.64,7.68 0.96,7.51999 1.6,7.52001 1.92,7.52 2.24,7.2 2.88,7.2 3.199997,6.88 3.520004,6.72 4,6.56 4.32,6.24 4.800003,6.08001 4.959999,5.75999 5.439995,5.44 5.600002,5.12 6.080002,4.8 6.239998,4.31999 6.400001,4.16001 6.719997,3.52 6.880002,3.36 7.2,2.88001 7.199999,2.39999 7.360001,1.92001 7.52,1.59998 7.52,1.12"
       style="fill:none;stroke:#000000;stroke-width:26.4;stroke-linecap:round;stroke-linejoin:round;stroke-miterlimit:10;stroke-dasharray:none;stroke-opacity:1"
       transform="translate(236.38668,36.479931)"
       clip-path="url(#clipPath4)" />
    <path
       id="path5"
       d="m 0,0 -6.72,3.52 -6.88,3.04 -7.039999,2.72 -7.200001,2.4 -7.360001,1.92 -7.36,1.6 -7.359997,1.12 -7.520001,0.800001 L -65.120003,17.6 h -7.519996 L -80.160004,17.280001 -87.68,16.48 -95.199997,15.36 -102.56,13.92 -109.92,12 -117.12,9.76 -124.16,7.04 -131.03999,4 -137.92,0.64 l -6.56,-3.68 -6.4,-4 -6.08001,-4.48 -5.91999,-4.64 -5.76,-4.960001 -5.44,-5.279999 -5.12,-5.6 -4.8,-5.759998 -4.48,-6.080002 -4.32,-6.240002 -3.84,-6.559997 -3.52,-6.720002 -3.2,-6.720001 -2.88,-7.040001 -2.4,-7.199997 -2.08,-7.199997 -1.76,-7.36 -1.27999,-7.520003 -0.96001,-7.52 -0.48,-7.52 -0.16,-7.52001 0.16,-7.51999 0.64,-7.52 0.95999,-7.52 1.44001,-7.51999 1.76001,-7.36 2.23999,-7.20002 2.55999,-7.03999 2.88001,-7.03999 3.2,-6.88001 3.68,-6.55999 3.84,-6.56 4.32001,-6.24001 4.64,-5.92 4.79999,-5.76001 5.27999,-5.43998 5.44001,-5.28002 5.76001,-4.95999 5.91999,-4.64 6.23999,-4.32 6.40001,-4 6.56,-3.52001 6.88001,-3.35999 6.87999,-3.04 7.2,-2.56 7.2,-2.07999 7.36,-1.92001 7.359998,-1.44 7.520004,-1.12 7.519997,-0.64001 7.520004,-0.15998 H -63.52 l 7.52,0.47998 7.52,0.96 7.360001,1.28002 7.360001,1.59998 7.359998,2.08002 7.199999,2.39999 7.040001,2.88001 6.88,3.04 -6.72,1.28 -6.719999,1.59998 -6.560002,1.92001 -6.399999,2.4 -6.239998,2.55999 L -44,-246.56 l -6.080002,3.2 -5.759998,3.52 -5.599999,3.84 -5.439998,4.16 -5.120003,4.48 -4.959999,4.64 -4.639999,4.96001 -4.480004,5.27999 -4.159996,5.28 -3.840004,5.59999 -3.68,5.92002 -3.199998,5.92 -2.88,6.23999 -2.72,6.24 -2.24,6.4 -1.92,6.55999 -1.76,6.56002 -1.12,6.72 -0.96,6.71998 -0.64,6.88001 -0.16,6.72 0.16,6.88 0.48,6.72 0.8,6.72 1.28,6.72 1.44,6.720001 1.92,6.559997 2.24,6.400002 2.56,6.400002 2.88,6.080001 3.199998,6.079995 3.520005,5.760002 3.839996,5.760002 4.160004,5.439998 4.319999,5.119999 4.64,4.959999 4.799995,4.800004 5.280007,4.479997 5.279995,4.160002 5.600002,4 5.759998,3.679998 5.920002,3.200001 6.079998,3.04 6.400002,2.72 6.24,2.4 L -20,-4 l 6.56,1.76 6.72,1.28 L 0,0"
       style="fill:none;stroke:#000000;stroke-width:26.4;stroke-linecap:round;stroke-linejoin:round;stroke-miterlimit:10;stroke-dasharray:none;stroke-opacity:1"
       transform="translate(241.66668,295.83992)"
       clip-path="url(#clipPath6)" />
    <path
       id="path7"
       d="m 453.44,599.03998 v 245.44"
       style="fill:none;stroke:#000000;stroke-width:26.4;stroke-linecap:round;stroke-linejoin:round;stroke-miterlimit:10;stroke-dasharray:none;stroke-opacity:1"
       transform="translate(-262.81333,-393.76006)"
       clip-path="url(#clipPath8)" />
    <path
       id="path9"
       d="m 453.44,787.84003 h 18.88001"
       style="fill:none;stroke:#000000;stroke-width:26.4;stroke-linecap:round;stroke-linejoin:round;stroke-miterlimit:10;stroke-dasharray:none;stroke-opacity:1"
       transform="translate(-262.81333,-393.76006)"
       clip-path="url(#clipPath10)" />
    <path
       id="path11"
       d="m 0,0 -2.24,0.16 -2.24,0.48 -2.24,0.64 -2.08,0.96 -1.92,1.12 -1.76,1.44 -1.6,1.6 -1.44,1.76 -1.279999,2.08 -0.800001,2.08 -0.8,2.08 -0.319999,2.239999 -0.16,2.24 0.16,2.400002 L -18.4,23.52 l 0.8,2.08 0.800001,2.08 1.279999,1.92 1.44,1.92 1.6,1.599999 1.76,1.280003 1.92,1.279998 2.08,0.959999 2.24,0.64 2.24,0.479999 H 0"
       style="fill:none;stroke:#000000;stroke-width:26.4;stroke-linecap:round;stroke-linejoin:round;stroke-miterlimit:10;stroke-dasharray:none;stroke-opacity:1"
       transform="translate(247.26665,375.19996)"
       clip-path="url(#clipPath12)" />
  </g>
</svg>
