<?xml version="1.0" encoding="UTF-8" standalone="no"?>
<!-- Created with Inkscape (http://www.inkscape.org/) -->

<svg
   version="1.1"
   id="svg1"
   width="421.56"
   height="389.76001"
   viewBox="0 0 421.56 389.76001"
   sodipodi:docname="CalcinatedTartar2.pdf"
   xmlns:inkscape="http://www.inkscape.org/namespaces/inkscape"
   xmlns:sodipodi="http://sodipodi.sourceforge.net/DTD/sodipodi-0.dtd"
   xmlns="http://www.w3.org/2000/svg"
   xmlns:svg="http://www.w3.org/2000/svg">
  <defs
     id="defs1">
    <clipPath
       clipPathUnits="userSpaceOnUse"
       id="clipPath2">
      <path
         d="M 26.4,26.559999 V 1096.16 H 767.03998 V 26.559999 Z"
         transform="translate(-491.20002,-561.35999)"
         clip-rule="evenodd"
         id="path2" />
    </clipPath>
    <clipPath
       clipPathUnits="userSpaceOnUse"
       id="clipPath4">
      <path
         d="M 26.4,26.559999 V 1096.16 H 767.03998 V 26.559999 Z"
         transform="translate(3.3333334e-6)"
         clip-rule="evenodd"
         id="path4" />
    </clipPath>
    <clipPath
       clipPathUnits="userSpaceOnUse"
       id="clipPath6">
      <path
         d="M 26.4,26.559999 V 1096.16 H 767.03998 V 26.559999 Z"
         transform="translate(-208,-655.67999)"
         clip-rule="evenodd"
         id="path6" />
    </clipPath>
  </defs>
  <sodipodi:namedview
     id="namedview1"
     pagecolor="#505050"
     bordercolor="#eeeeee"
     borderopacity="1"
     inkscape:showpageshadow="0"
     inkscape:pageopacity="0"
     inkscape:pagecheckerboard="0"
     inkscape:deskcolor="#505050">
    <inkscape:page
       x="0"
       y="0"
       inkscape:label="1"
       id="page1"
       width="421.56"
       height="389.76001"
       margin="0"
       bleed="0" />
  </sodipodi:namedview>
  <g
     id="g1"
     inkscape:groupmode="layer"
     inkscape:label="1">
    <path
       id="path1"
       d="M 0,0 C 0,-52.09 -42.259998,-94.32 -94.400002,-94.32 -146.53999,-94.32 -188.8,-52.09 -188.8,0 c 0,52.09 42.26001,94.32 94.399998,94.32 C -42.259998,94.32 0,52.09 0,0 Z"
       style="fill:none;stroke:#000000;stroke-width:26.4;stroke-linecap:round;stroke-linejoin:round;stroke-miterlimit:10;stroke-dasharray:none;stroke-opacity:1"
       transform="translate(305.77335,214.31993)"
       clip-path="url(#clipPath2)" />
    <path
       id="path3"
       d="M 472.32001,617.91998 585.59998,372.64001"
       style="fill:none;stroke:#000000;stroke-width:26.4;stroke-linecap:round;stroke-linejoin:round;stroke-miterlimit:10;stroke-dasharray:none;stroke-opacity:1"
       transform="translate(-185.42667,-347.04006)"
       clip-path="url(#clipPath4)" />
    <path
       id="path5"
       d="m 0,0 5.28,6.4 5.6,6.08 5.919999,5.76 6.240002,5.44 6.559999,5.119999 6.72,4.799999 7.040001,4.32 7.36,4 7.360001,3.68 7.68,3.200001 7.839996,2.720001 7.840004,2.399998 8.159996,1.920002 8.160004,1.439999 8.159998,0.960003 8.32,0.639999 8.16,0.16 8.32,-0.32 8.16,-0.639999 8.32,-1.280003 8,-1.599998 8.16,-1.920002 7.84,-2.559998 7.68,-2.880001 7.68,-3.200001 7.36,-3.84 7.19999,-4 L 208.16,32.32 l 6.72,-4.959999 6.4,-5.120001 6.08,-5.600001 5.92,-5.759999 5.44,-6.24 5.28,-6.4 4.8,-6.72 4.48,-7.04 4,-7.199999 3.67999,-7.360001 3.36002,-7.679998"
       style="fill:none;stroke:#000000;stroke-width:26.4;stroke-linecap:round;stroke-linejoin:round;stroke-miterlimit:10;stroke-dasharray:none;stroke-opacity:1"
       transform="translate(22.573333,308.63993)"
       clip-path="url(#clipPath6)" />
  </g>
</svg>
