<?xml version="1.0" encoding="UTF-8" standalone="no"?>
<!-- Created with Inkscape (http://www.inkscape.org/) -->

<svg
   version="1.1"
   id="svg1"
   width="261.48001"
   height="216.22667"
   viewBox="0 0 261.48001 216.22667"
   sodipodi:docname="CalcinatedTartar9.pdf"
   xmlns:inkscape="http://www.inkscape.org/namespaces/inkscape"
   xmlns:sodipodi="http://sodipodi.sourceforge.net/DTD/sodipodi-0.dtd"
   xmlns="http://www.w3.org/2000/svg"
   xmlns:svg="http://www.w3.org/2000/svg">
  <defs
     id="defs1">
    <clipPath
       clipPathUnits="userSpaceOnUse"
       id="clipPath2">
      <path
         d="M 26.4,26.559999 V 1096.16 H 767.03998 V 26.559999 Z"
         transform="translate(-295.51999,-612)"
         clip-rule="evenodd"
         id="path2" />
    </clipPath>
    <clipPath
       clipPathUnits="userSpaceOnUse"
       id="clipPath4">
      <path
         d="M 26.4,26.559999 V 1096.16 H 767.03998 V 26.559999 Z"
         transform="translate(-430.55999,-544.47998)"
         clip-rule="evenodd"
         id="path4" />
    </clipPath>
    <clipPath
       clipPathUnits="userSpaceOnUse"
       id="clipPath6">
      <path
         d="M 26.4,26.559999 V 1096.16 H 767.03998 V 26.559999 Z"
         transform="translate(-430.55999,-544.47998)"
         clip-rule="evenodd"
         id="path6" />
    </clipPath>
    <clipPath
       clipPathUnits="userSpaceOnUse"
       id="clipPath8">
      <path
         d="M 26.4,26.559999 V 1096.16 H 767.03998 V 26.559999 Z"
         transform="translate(-498.07998,-510.72)"
         clip-rule="evenodd"
         id="path8" />
    </clipPath>
  </defs>
  <sodipodi:namedview
     id="namedview1"
     pagecolor="#505050"
     bordercolor="#eeeeee"
     borderopacity="1"
     inkscape:showpageshadow="0"
     inkscape:pageopacity="0"
     inkscape:pagecheckerboard="0"
     inkscape:deskcolor="#505050">
    <inkscape:page
       x="0"
       y="0"
       inkscape:label="1"
       id="page1"
       width="261.48001"
       height="216.22667"
       margin="0"
       bleed="0" />
  </sodipodi:namedview>
  <g
     id="g1"
     inkscape:groupmode="layer"
     inkscape:label="1">
    <path
       id="path1"
       d="m 0,0 2.4,4.8 2.72,4.64 2.72,4.48 3.04,4.48 3.04,4.159999 3.200001,4 L 20.32,30.24 l 3.2,3.679998 3.359999,3.200001 L 30.4,40.16 l 3.359998,2.720001 3.360001,2.399998 3.360001,2.080002 3.36,1.759998 3.360001,1.440002 3.200001,0.959999 3.199996,0.8 3.040001,0.319999 H 59.52 L 62.400002,52.32 64.959999,51.68 67.519997,50.720001 69.760002,49.279999 72,47.52 73.919998,45.599998 75.68,43.200001 77.120003,40.48 78.400002,37.599998 79.519997,34.240002 80.32,30.879999 l 0.639999,-3.839998 0.480003,-4 V 18.879999 14.56 L 80.959999,10.08 80.32,5.44 79.519997,0.64 78.400002,-4.16 77.120003,-9.12 75.68,-14.08 73.919998,-19.040001 72,-24 l -2.239998,-4.959999 -2.240005,-4.799999"
       style="fill:none;stroke:#000000;stroke-width:26.4;stroke-linecap:round;stroke-linejoin:round;stroke-miterlimit:10;stroke-dasharray:none;stroke-opacity:1"
       transform="translate(20.706656,142.14661)"
       clip-path="url(#clipPath2)" />
    <path
       id="path3"
       d="m 0,0 -2.56,-4.8 -2.56,-4.64 -2.88,-4.48 -2.88,-4.48 -3.04,-4.159999 -3.200001,-4 L -20.32,-30.24 -23.68,-33.919998 -27.040001,-37.119999 -30.4,-40.16 l -3.359998,-2.720001 -3.360001,-2.399998 -3.52,-2.080002 -3.200001,-1.759998 -3.360001,-1.440002 -3.200001,-0.959999 -3.199996,-0.8 -3.040001,-0.319999 H -59.52 l -2.880002,0.319999 -2.720001,0.64 -2.399994,0.959999 -2.400001,1.440002 L -72,-47.52 l -1.919998,1.920002 -1.760002,2.399997 -1.599999,2.720001 -1.279999,2.880002 -0.959999,3.359996 -0.960006,3.360003 -0.64,3.839998 -0.319999,4 -0.159996,4.160002 0.159996,4.319999 0.319999,4.48 0.64,4.64 0.960006,4.8 0.959999,4.8 1.279999,4.96 1.599999,4.96 1.760002,4.960001 L -72,24 l 2.080002,4.959999 2.400001,4.799999"
       style="fill:none;stroke:#000000;stroke-width:26.4;stroke-linecap:round;stroke-linejoin:round;stroke-miterlimit:10;stroke-dasharray:none;stroke-opacity:1"
       transform="translate(155.74666,74.626588)"
       clip-path="url(#clipPath4)" />
    <path
       id="path5"
       d="m 0,0 2.56,4.8 2.56,4.64 2.88,4.48 2.88,4.48 3.04,4.159999 3.200001,4 L 20.32,30.24 23.68,33.759998 27.040001,37.119999 30.4,40.16 l 3.359998,2.720001 3.360001,2.399998 3.52,2.080002 L 44,49.119999 l 3.200001,1.280003 3.200001,1.119998 3.199996,0.8 3.040001,0.319999 H 59.52 L 62.400002,52.32 65.120003,51.68 67.519997,50.720001 69.919998,49.279999 72,47.52 73.919998,45.439999 75.68,43.200001 77.279999,40.48 78.559998,37.599998 79.68,34.240002 l 0.800003,-3.520003 0.64,-3.679998 0.319999,-4 0.159996,-4.160002 L 81.440002,14.56 81.120003,10.08 80.480003,5.44 79.68,0.64 78.559998,-4.16 77.279999,-9.12 75.68,-14.08 73.919998,-19.040001 72,-24 l -2.080002,-4.959999 -2.400001,-4.799999"
       style="fill:none;stroke:#000000;stroke-width:26.4;stroke-linecap:round;stroke-linejoin:round;stroke-miterlimit:10;stroke-dasharray:none;stroke-opacity:1"
       transform="translate(155.74666,74.626588)"
       clip-path="url(#clipPath6)" />
    <path
       id="path7"
       d="m 0,0 -1.12,-1.92 -1.28,-1.92 -1.6,-1.6 -1.76,-1.44 -1.92,-1.28 -2.08,-0.96 -2.08,-0.64 -2.24,-0.48 -2.24,-0.16 h -2.239999 l -2.24,0.32 -2.240002,0.64 -2.08,0.96 -1.92,1.12 -1.919998,1.28 -1.6,1.6 L -32,-2.72 l -1.279999,1.76 -0.960003,2.08 -0.799999,2.24 -0.479999,2.08 -0.16,2.24 v 2.4 l 0.319999,2.24 0.64,2.08 0.800003,2.08 1.119999,2.079999 L -31.52,20.32"
       style="fill:none;stroke:#000000;stroke-width:26.4;stroke-linecap:round;stroke-linejoin:round;stroke-miterlimit:10;stroke-dasharray:none;stroke-opacity:1"
       transform="translate(223.26665,40.866609)"
       clip-path="url(#clipPath8)" />
  </g>
</svg>
