<?xml version="1.0" encoding="UTF-8" standalone="no"?>
<!-- Created with Inkscape (http://www.inkscape.org/) -->

<svg
   version="1.1"
   id="svg1"
   width="249.46667"
   height="233.60001"
   viewBox="0 0 249.46667 233.60001"
   sodipodi:docname="CalcinatedTartar7.pdf"
   xmlns:inkscape="http://www.inkscape.org/namespaces/inkscape"
   xmlns:sodipodi="http://sodipodi.sourceforge.net/DTD/sodipodi-0.dtd"
   xmlns="http://www.w3.org/2000/svg"
   xmlns:svg="http://www.w3.org/2000/svg">
  <defs
     id="defs1">
    <clipPath
       clipPathUnits="userSpaceOnUse"
       id="clipPath2">
      <path
         d="M 26.4,26.559999 V 1096.16 H 767.03998 V 26.559999 Z"
         transform="translate(-362.07999,-617.91998)"
         clip-rule="evenodd"
         id="path2" />
    </clipPath>
    <clipPath
       clipPathUnits="userSpaceOnUse"
       id="clipPath4">
      <path
         d="M 26.4,26.559999 V 1096.16 H 767.03998 V 26.559999 Z"
         transform="translate(3.3333333e-6)"
         clip-rule="evenodd"
         id="path4" />
    </clipPath>
    <clipPath
       clipPathUnits="userSpaceOnUse"
       id="clipPath6">
      <path
         d="M 26.4,26.559999 V 1096.16 H 767.03998 V 26.559999 Z"
         transform="translate(-439.35999,-496.79999)"
         clip-rule="evenodd"
         id="path6" />
    </clipPath>
    <clipPath
       clipPathUnits="userSpaceOnUse"
       id="clipPath8">
      <path
         d="M 26.4,26.559999 V 1096.16 H 767.03998 V 26.559999 Z"
         transform="translate(-413.60001,-594.08002)"
         clip-rule="evenodd"
         id="path8" />
    </clipPath>
    <clipPath
       clipPathUnits="userSpaceOnUse"
       id="clipPath10">
      <path
         d="M 26.4,26.559999 V 1096.16 H 767.03998 V 26.559999 Z"
         transform="translate(-484.32001,-525.59998)"
         clip-rule="evenodd"
         id="path10" />
    </clipPath>
    <clipPath
       clipPathUnits="userSpaceOnUse"
       id="clipPath12">
      <path
         d="M 26.4,26.559999 V 1096.16 H 767.03998 V 26.559999 Z"
         transform="translate(-460.32001,-597.12)"
         clip-rule="evenodd"
         id="path12" />
    </clipPath>
  </defs>
  <sodipodi:namedview
     id="namedview1"
     pagecolor="#505050"
     bordercolor="#eeeeee"
     borderopacity="1"
     inkscape:showpageshadow="0"
     inkscape:pageopacity="0"
     inkscape:pagecheckerboard="0"
     inkscape:deskcolor="#505050">
    <inkscape:page
       x="0"
       y="0"
       inkscape:label="1"
       id="page1"
       width="249.46667"
       height="233.60001"
       margin="0"
       bleed="0" />
  </sodipodi:namedview>
  <g
     id="g1"
     inkscape:groupmode="layer"
     inkscape:label="1">
    <path
       id="path1"
       d="m 0,0 c 0,-20.85 -16.9,-37.759998 -37.759998,-37.759998 -20.860001,0 -37.759999,16.909998 -37.759999,37.759998 0,20.85 16.899998,37.759998 37.759999,37.759998 C -16.9,37.759998 0,20.85 0,0 Z"
       style="fill:none;stroke:#000000;stroke-width:26.4;stroke-linecap:round;stroke-linejoin:round;stroke-miterlimit:10;stroke-dasharray:none;stroke-opacity:1"
       transform="translate(97.93332,173.43992)"
       clip-path="url(#clipPath2)" />
    <path
       id="path3"
       d="m 350.23999,592.32001 125.12,-125.28"
       style="fill:none;stroke:#000000;stroke-width:26.4;stroke-linecap:round;stroke-linejoin:round;stroke-miterlimit:10;stroke-dasharray:none;stroke-opacity:1"
       transform="translate(-264.14667,-444.48006)"
       clip-path="url(#clipPath4)" />
    <path
       id="path5"
       d="m 0,0 -2.88,-2.72 -3.2,-2.4 -3.36,-2.08 -3.68,-1.6 -3.679999,-1.44 -3.84,-0.96 -4,-0.8 -3.840001,-0.16 h -4 l -4,0.48 -3.84,0.8 -3.84,1.28 -3.68,1.44 -3.520001,1.92 -3.2,2.24 -3.199997,2.4 -2.720002,2.88 -2.560001,3.04"
       style="fill:none;stroke:#000000;stroke-width:26.4;stroke-linecap:round;stroke-linejoin:round;stroke-miterlimit:10;stroke-dasharray:none;stroke-opacity:1"
       transform="translate(175.21332,52.319929)"
       clip-path="url(#clipPath6)" />
    <path
       id="path7"
       d="m 0,0 2.72,-2.88 2.56,-3.2 2.08,-3.36 1.76,-3.52 1.6,-3.679999 1.12,-3.840001 0.64,-3.84 0.48,-4 v -4 l -0.32,-3.84 -0.8,-4 -1.12,-3.84 -1.44,-3.68 -1.76,-3.520001 -2.08,-3.36 -2.4,-3.199997 -2.72,-2.880001 -3.04,-2.720002"
       style="fill:none;stroke:#000000;stroke-width:26.4;stroke-linecap:round;stroke-linejoin:round;stroke-miterlimit:10;stroke-dasharray:none;stroke-opacity:1"
       transform="translate(149.45334,149.59996)"
       clip-path="url(#clipPath8)" />
    <path
       id="path9"
       d="m 0,0 -2.24,-0.64 -2.24,-0.32 h -2.4 l -2.24,0.16 -2.24,0.48 -2.08,0.8 -2.08,0.96 -1.920001,1.28 -1.76,1.44 -1.439998,1.76 L -22.08,7.84 -23.040001,9.76 -24,11.84 l -0.48,2.24 -0.319999,2.24 -0.16,2.239999 0.32,2.4 0.479999,2.080002 0.799999,2.24 0.960001,2.08 1.279999,1.76 1.440001,1.759998 1.76,1.600001 1.76,1.279998 2.08,1.120003 L -12,35.68"
       style="fill:none;stroke:#000000;stroke-width:26.4;stroke-linecap:round;stroke-linejoin:round;stroke-miterlimit:10;stroke-dasharray:none;stroke-opacity:1"
       transform="translate(220.17334,81.119917)"
       clip-path="url(#clipPath10)" />
    <path
       id="path11"
       d="m 0,0 2.24,0.64 2.24,0.32 h 2.24 l 2.4,-0.16 2.08,-0.48 2.24,-0.8 2.08,-0.96 1.920001,-1.28 1.6,-1.6 1.599998,-1.6 L 21.92,-7.84 23.040001,-9.76 24,-11.84 l 0.48,-2.24 0.319999,-2.24 0.16,-2.239999 -0.32,-2.4 -0.479999,-2.080002 -0.799999,-2.24 -0.960001,-2.08 -1.279999,-1.92 L 19.68,-30.879999 17.92,-32.48 16.16,-33.759998 14.08,-34.880001 12,-35.84"
       style="fill:none;stroke:#000000;stroke-width:26.4;stroke-linecap:round;stroke-linejoin:round;stroke-miterlimit:10;stroke-dasharray:none;stroke-opacity:1"
       transform="translate(196.17334,152.63994)"
       clip-path="url(#clipPath12)" />
  </g>
</svg>
