<?xml version="1.0" encoding="UTF-8" standalone="no"?>
<!-- Created with Inkscape (http://www.inkscape.org/) -->

<svg
   version="1.1"
   id="svg1"
   width="325.50668"
   height="315.01334"
   viewBox="0 0 325.50668 315.01334"
   sodipodi:docname="CalcinatedLead5.pdf"
   xmlns:inkscape="http://www.inkscape.org/namespaces/inkscape"
   xmlns:sodipodi="http://sodipodi.sourceforge.net/DTD/sodipodi-0.dtd"
   xmlns="http://www.w3.org/2000/svg"
   xmlns:svg="http://www.w3.org/2000/svg">
  <defs
     id="defs1">
    <clipPath
       clipPathUnits="userSpaceOnUse"
       id="clipPath2">
      <path
         d="M 0,0.16 V 1122.5601 H 793.59998 V 0.16 Z"
         transform="translate(-3.3333333e-6)"
         clip-rule="evenodd"
         id="path2" />
    </clipPath>
    <clipPath
       clipPathUnits="userSpaceOnUse"
       id="clipPath4">
      <path
         d="M 0,0.16 V 1122.5601 H 793.59998 V 0.16 Z"
         transform="translate(-3.3333333e-6)"
         clip-rule="evenodd"
         id="path4" />
    </clipPath>
    <clipPath
       clipPathUnits="userSpaceOnUse"
       id="clipPath6">
      <path
         d="M 0,0.16 V 1122.5601 H 793.59998 V 0.16 Z"
         transform="translate(-532.79998,-475.04001)"
         clip-rule="evenodd"
         id="path6" />
    </clipPath>
    <clipPath
       clipPathUnits="userSpaceOnUse"
       id="clipPath8">
      <path
         d="M 0,0.16 V 1122.5601 H 793.59998 V 0.16 Z"
         transform="translate(-320.64002,-683.35999)"
         clip-rule="evenodd"
         id="path8" />
    </clipPath>
    <clipPath
       clipPathUnits="userSpaceOnUse"
       id="clipPath10">
      <path
         d="M 0,0.16 V 1122.5601 H 793.59998 V 0.16 Z"
         transform="translate(-259.84,-647.68)"
         clip-rule="evenodd"
         id="path10" />
    </clipPath>
    <clipPath
       clipPathUnits="userSpaceOnUse"
       id="clipPath12">
      <path
         d="M 0,0.16 V 1122.5601 H 793.59998 V 0.16 Z"
         transform="translate(-303.51999,-644.15998)"
         clip-rule="evenodd"
         id="path12" />
    </clipPath>
  </defs>
  <sodipodi:namedview
     id="namedview1"
     pagecolor="#505050"
     bordercolor="#eeeeee"
     borderopacity="1"
     inkscape:showpageshadow="0"
     inkscape:pageopacity="0"
     inkscape:pagecheckerboard="0"
     inkscape:deskcolor="#505050">
    <inkscape:page
       x="0"
       y="0"
       inkscape:label="1"
       id="page1"
       width="325.50668"
       height="315.01334"
       margin="0"
       bleed="0" />
  </sodipodi:namedview>
  <g
     id="g1"
     inkscape:groupmode="layer"
     inkscape:label="1">
    <path
       id="path1"
       d="M 428.64001,456.16 V 682.71997"
       style="fill:none;stroke:#000000;stroke-width:26.4;stroke-linecap:round;stroke-linejoin:round;stroke-miterlimit:10;stroke-dasharray:none;stroke-opacity:1"
       transform="translate(-236.13333,-403.10673)"
       clip-path="url(#clipPath2)" />
    <path
       id="path3"
       d="M 428.64001,682.71997 481.44,456.16"
       style="fill:none;stroke:#000000;stroke-width:26.4;stroke-linecap:round;stroke-linejoin:round;stroke-miterlimit:10;stroke-dasharray:none;stroke-opacity:1"
       transform="translate(-236.13333,-403.10673)"
       clip-path="url(#clipPath4)" />
    <path
       id="path5"
       d="m 0,0 0.8,-3.36 0.32,-3.52 0.32,-3.36 v -3.52 L 1.12,-17.280001 0.64,-20.639999 0,-24 -0.8,-27.200001 -1.92,-30.4 -3.2,-33.279999 -4.64,-36.16 l -1.76,-2.560001 -1.76,-2.399998 -1.92,-2.080002 -2.08,-1.759998 -2.24,-1.600002 -2.239999,-1.279999 -2.400002,-0.959999 -2.4,-0.64 -2.399999,-0.319999 -2.4,0.16 -2.399999,0.319999 -2.400002,0.64 -2.399998,0.959999 -2.240001,1.119999 -2.239998,1.600002 L -40,-43.040001 -41.919998,-40.959999 -43.68,-38.560001 -45.439999,-36 -46.880001,-33.279999 -48.16,-30.24 l -1.119999,3.039999 -0.800003,3.360001"
       style="fill:none;stroke:#000000;stroke-width:26.4;stroke-linecap:round;stroke-linejoin:round;stroke-miterlimit:10;stroke-dasharray:none;stroke-opacity:1"
       transform="translate(296.66665,71.933284)"
       clip-path="url(#clipPath6)" />
    <path
       id="path7"
       d="M 0,0 8.32,-10.08 16.48,-20.639999 24.32,-31.52 32,-42.880001 l 7.360001,-11.520001 7.040001,-12 6.879997,-12.319999 L 59.84,-91.199997 65.919998,-104.16 72,-117.28 l 5.599998,-13.44 5.279999,-13.76 4.959999,-13.91999 4.640007,-14.24001 4.479996,-14.39999 4.000001,-14.56002 3.68,-14.72 3.2,-14.87999"
       style="fill:none;stroke:#000000;stroke-width:26.4;stroke-linecap:round;stroke-linejoin:round;stroke-miterlimit:10;stroke-dasharray:none;stroke-opacity:1"
       transform="translate(84.506682,280.25326)"
       clip-path="url(#clipPath8)" />
    <path
       id="path9"
       d="M 0,0 0.32,4.32 0.8,8.64 1.76,12.8 2.72,16.799999 4,20.639999 5.6,24.48 7.2,28 9.12,31.360001 11.36,34.400002 13.6,37.279999 16,39.84 18.559999,42.080002 21.280001,44 24.16,45.599998 27.040001,46.880001 29.92,47.68 32.959999,48.32 36,48.48 39.040001,48.32 42.080002,47.84 44.959999,47.040001 47.84,45.759998 50.720001,44.16 53.439999,42.240002 56,40.16 l 2.560001,-2.560002 2.239998,-2.719997"
       style="fill:none;stroke:#000000;stroke-width:26.4;stroke-linecap:round;stroke-linejoin:round;stroke-miterlimit:10;stroke-dasharray:none;stroke-opacity:1"
       transform="translate(23.706663,244.57327)"
       clip-path="url(#clipPath10)" />
    <path
       id="path11"
       d="m 0,0 -0.48,-2.88 -0.48,-3.04 -0.8,-2.72 -0.96,-2.72 -1.12,-2.56 -1.28,-2.4 -1.6,-2.239999 -1.6,-2.08 -1.76,-1.760001 -1.76,-1.44 -1.92,-1.280001 -2.08,-0.959999 -2.08,-0.639999 -2.08,-0.480002 h -2.08 l -2.24,0.16 -2.08,0.480002 -2.08,0.799999 -1.92,0.960001 -1.92,1.439998 L -34.240002,-21.76 -35.84,-20 l -1.599999,2.08 -1.440002,2.24 -1.279999,2.4 -1.119999,2.72 -0.800003,2.72 -0.799999,2.88 -0.48,3.04 L -43.68,0.96 -43.84,4 l 0.16,3.04"
       style="fill:none;stroke:#000000;stroke-width:26.4;stroke-linecap:round;stroke-linejoin:round;stroke-miterlimit:10;stroke-dasharray:none;stroke-opacity:1"
       transform="translate(67.386656,241.05325)"
       clip-path="url(#clipPath12)" />
  </g>
</svg>
