<?xml version="1.0" encoding="UTF-8" standalone="no"?>
<!-- Created with Inkscape (http://www.inkscape.org/) -->

<svg
   version="1.1"
   id="svg1"
   width="416.22668"
   height="393.76001"
   viewBox="0 0 416.22668 393.76001"
   sodipodi:docname="CalcinatedSilver4.pdf"
   xmlns:inkscape="http://www.inkscape.org/namespaces/inkscape"
   xmlns:sodipodi="http://sodipodi.sourceforge.net/DTD/sodipodi-0.dtd"
   xmlns="http://www.w3.org/2000/svg"
   xmlns:svg="http://www.w3.org/2000/svg">
  <defs
     id="defs1">
    <clipPath
       clipPathUnits="userSpaceOnUse"
       id="clipPath2">
      <path
         d="M 26.4,26.559999 V 1096.16 H 767.03998 V 26.559999 Z"
         transform="translate(-329.44001,-659.68)"
         clip-rule="evenodd"
         id="path2" />
    </clipPath>
    <clipPath
       clipPathUnits="userSpaceOnUse"
       id="clipPath4">
      <path
         d="M 26.4,26.559999 V 1096.16 H 767.03998 V 26.559999 Z"
         transform="translate(-329.44001,-659.68)"
         clip-rule="evenodd"
         id="path4" />
    </clipPath>
    <clipPath
       clipPathUnits="userSpaceOnUse"
       id="clipPath6">
      <path
         d="M 26.4,26.559999 V 1096.16 H 767.03998 V 26.559999 Z"
         transform="translate(-325.44,-465.12)"
         clip-rule="evenodd"
         id="path6" />
    </clipPath>
    <clipPath
       clipPathUnits="userSpaceOnUse"
       id="clipPath8">
      <path
         d="M 26.4,26.559999 V 1096.16 H 767.03998 V 26.559999 Z"
         transform="translate(3.3333333e-6)"
         clip-rule="evenodd"
         id="path8" />
    </clipPath>
    <clipPath
       clipPathUnits="userSpaceOnUse"
       id="clipPath10">
      <path
         d="M 26.4,26.559999 V 1096.16 H 767.03998 V 26.559999 Z"
         transform="translate(3.3333333e-6)"
         clip-rule="evenodd"
         id="path10" />
    </clipPath>
    <clipPath
       clipPathUnits="userSpaceOnUse"
       id="clipPath12">
      <path
         d="M 26.4,26.559999 V 1096.16 H 767.03998 V 26.559999 Z"
         transform="translate(3.3333333e-6)"
         clip-rule="evenodd"
         id="path12" />
    </clipPath>
    <clipPath
       clipPathUnits="userSpaceOnUse"
       id="clipPath14">
      <path
         d="M 26.4,26.559999 V 1096.16 H 767.03998 V 26.559999 Z"
         transform="translate(3.3333333e-6)"
         clip-rule="evenodd"
         id="path14" />
    </clipPath>
    <clipPath
       clipPathUnits="userSpaceOnUse"
       id="clipPath16">
      <path
         d="M 26.4,26.559999 V 1096.16 H 767.03998 V 26.559999 Z"
         transform="translate(3.3333333e-6)"
         clip-rule="evenodd"
         id="path16" />
    </clipPath>
  </defs>
  <sodipodi:namedview
     id="namedview1"
     pagecolor="#505050"
     bordercolor="#eeeeee"
     borderopacity="1"
     inkscape:showpageshadow="0"
     inkscape:pageopacity="0"
     inkscape:pagecheckerboard="0"
     inkscape:deskcolor="#505050">
    <inkscape:page
       x="0"
       y="0"
       inkscape:label="1"
       id="page1"
       width="416.22668"
       height="393.76001"
       margin="0"
       bleed="0" />
  </sodipodi:namedview>
  <g
     id="g1"
     inkscape:groupmode="layer"
     inkscape:label="1">
    <path
       id="path1"
       d="m 0,0 6.4,2.88 6.4,2.4 6.560001,1.92 6.719999,1.6 6.719999,1.28 6.880001,0.64 6.880001,0.32 h 6.879998 L 60.32,10.4 67.199997,9.44 73.919998,8 80.639999,6.24 87.040001,4 93.440002,1.28 99.68,-1.76 l 5.92,-3.36 5.76,-3.84 5.44,-4.16 5.28,-4.48 4.96,-4.8 4.63999,-5.12 4.16001,-5.439999 4,-5.600002 3.52,-5.919999 3.2,-6.080001 2.88,-6.239998 2.4,-6.560002 2.08,-6.559997 1.44,-6.720001 1.28,-6.720002 0.64,-6.879997 0.32001,-6.880005 L 157.44,-104 l -0.64,-6.88 -0.96,-6.88 -1.44001,-6.72 -1.75999,-6.55999 -2.4,-6.56002 -2.56001,-6.39999 -3.19999,-6.08 -3.36001,-6.08 -3.83999,-5.59999 -4.16001,-5.60001 -4.47999,-5.12 -4.8,-4.96 -5.28,-4.64 -5.28,-4.16 -5.76,-4 -5.92,-3.51999 -6.080003,-3.20002 -6.239998,-2.87999 -6.559998,-2.24 -6.559997,-2.08 -6.720002,-1.44001 -6.720001,-1.27999 -6.880001,-0.64 -6.880001,-0.32 -6.879997,0.32 -6.880001,0.48001 -6.880001,1.11999 -6.72,1.44 -6.56,1.92 -6.56,2.23999 -6.4,2.72 L -4,-194.56"
       style="fill:none;stroke:#000000;stroke-width:26.4;stroke-linecap:round;stroke-linejoin:round;stroke-miterlimit:10;stroke-dasharray:none;stroke-opacity:1"
       transform="translate(102.65334,292.61327)"
       clip-path="url(#clipPath2)" />
    <path
       id="path3"
       d="m 0,0 6.24,-1.28 6.24,-1.6 6.079999,-2.08 5.920001,-2.4 5.76,-2.72 5.44,-3.2 5.439999,-3.519999 5.120003,-3.84 4.799999,-4.16 4.479999,-4.480002 4.32,-4.800001 3.84,-5.119999 L 67.360001,-44.48 70.559998,-49.919998 73.440002,-55.68 76,-61.599998 78.080002,-67.519997 79.68,-73.760002 81.120003,-80 l 0.799995,-6.239998 0.480004,-6.400001 0.159996,-6.400002 -0.32,-6.399999 -0.799996,-6.4 -1.120002,-6.24 -1.599999,-6.08 -1.919998,-6.08 -2.400001,-6.08001 L 71.68,-142.08 l -3.199997,-5.44 -3.36,-5.44001 -3.840004,-5.11999 -4.16,-4.95999 -4.48,-4.48001 L 48,-171.84 l -5.119999,-4 -5.120003,-3.68 -5.599998,-3.2 -5.600001,-3.03999 -5.92,-2.56002 L 14.72,-190.39999 8.48,-192.16 2.24,-193.60001 -4,-194.56"
       style="fill:none;stroke:#000000;stroke-width:26.4;stroke-linecap:round;stroke-linejoin:round;stroke-miterlimit:10;stroke-dasharray:none;stroke-opacity:1"
       transform="translate(102.65334,292.61327)"
       clip-path="url(#clipPath4)" />
    <path
       id="path5"
       d="m 0,0 5.12,-2.56 5.12,-2.24 5.28,-2.08 5.439999,-1.76 5.440001,-1.44 5.6,-1.28 5.599998,-0.8 5.600003,-0.64 5.599998,-0.32 h 5.760002 l 5.599999,0.16 5.600002,0.64 5.599999,0.8 5.599998,1.12 5.440003,1.44 5.439994,1.76 5.280007,1.92 5.279999,2.24 4.959998,2.56 4.96,2.88 4.8,3.04 4.64,3.2 4.48,3.52 4.32,3.68 4,4 3.83999,4.16 3.68001,4.32 3.36,4.639999 3.2,4.639999 2.88,4.960003 2.56,4.959999 2.4,5.119999 2.24,5.279999 1.76,5.440003 1.6,5.440002 1.28,5.439995 0.96001,5.599998 0.79998,5.600006 0.32001,5.759995 0.16001,5.600006 L 161.44,102.4 l -0.47999,5.76 -0.80001,5.6 -0.96,5.6 -1.44001,5.44 -1.59999,5.44 -1.92,5.28 -2.08,5.28 -2.55999,5.12 -2.72001,4.96 -2.88,4.79999 -3.2,4.80001 -3.52,4.48001 -3.67999,4.31999 -3.84002,4.16 -3.99999,3.84 -4.32,3.68001 -4.48,3.51999 -4.64,3.19999 -4.96,3.04001 -4.96,2.72 -5.120001,2.4 -5.119995,2.24 -5.280007,1.92 -5.439995,1.75999 -5.600006,1.28 -5.599998,1.12001 -5.599999,0.80001 -5.599998,0.47999 -5.600002,0.16001 H 47.68 L 42.080002,205.28 36.48,204.48 30.879999,203.52 25.280001,202.39999 19.84,200.8 14.4,199.03999 9.28,196.96001 4,194.56 l 5.12,-0.95999 4.96,-1.28 4.799999,-1.44001 4.800001,-1.76001 4.8,-1.91999 4.639999,-2.23999 4.479999,-2.40001 4.32,-2.72 4.160004,-2.87999 4.16,-3.04001 3.84,-3.36 3.679996,-3.52001 3.520001,-3.67999 3.36,-3.84 3.040001,-4.16 2.879998,-4.16 2.720001,-4.32 2.400001,-4.48001 2.239998,-4.64 L 80,132.96001 81.599998,128.16 l 1.440003,-4.8 1.279999,-4.96 0.959999,-5.12 0.639999,-4.96 0.480004,-5.12 0.159996,-5.119998 -0.159996,-5.120003 -0.32,-5.120003 -0.64,-5.119995 L 84.480003,77.760002 83.360001,72.800003 81.919998,67.839996 80.32,63.040001 78.400002,58.240002 76.160004,53.759998 73.760002,49.119999 71.199997,44.799999 68.32,40.48 l -3.040001,-4 -3.360001,-4 -3.519996,-3.680001 -3.520001,-3.519998 -4,-3.360001 -4,-3.200001 L 42.720001,15.84 38.400002,13.12 33.919998,10.56 29.440001,8.32 24.639999,6.24 19.84,4.48 15.04,3.04 10.08,1.76 5.12,0.8 0,0"
       style="fill:none;stroke:#000000;stroke-width:26.4;stroke-linecap:round;stroke-linejoin:round;stroke-miterlimit:10;stroke-dasharray:none;stroke-opacity:1"
       transform="translate(98.653335,98.05327)"
       clip-path="url(#clipPath6)" />
    <path
       id="path7"
       d="M 321.28,462.23999 H 250.56"
       style="fill:none;stroke:#000000;stroke-width:26.4;stroke-linecap:round;stroke-linejoin:round;stroke-miterlimit:10;stroke-dasharray:none;stroke-opacity:1"
       transform="translate(-226.78667,-367.06673)"
       clip-path="url(#clipPath8)" />
    <path
       id="path9"
       d="M 335.35999,660.47998 H 250.56"
       style="fill:none;stroke:#000000;stroke-width:26.4;stroke-linecap:round;stroke-linejoin:round;stroke-miterlimit:10;stroke-dasharray:none;stroke-opacity:1"
       transform="translate(-226.78667,-367.06673)"
       clip-path="url(#clipPath10)" />
    <path
       id="path11"
       d="m 476.95999,391.51999 h -184 v 339.68002 h 184"
       style="fill:none;stroke:#000000;stroke-width:26.4;stroke-linecap:round;stroke-linejoin:round;stroke-miterlimit:10;stroke-dasharray:none;stroke-opacity:1"
       transform="translate(-226.78667,-367.06673)"
       clip-path="url(#clipPath12)" />
    <path
       id="path13"
       d="M 491.20001,561.28003 H 618.56"
       style="fill:none;stroke:#000000;stroke-width:26.4;stroke-linecap:round;stroke-linejoin:round;stroke-miterlimit:10;stroke-dasharray:none;stroke-opacity:1"
       transform="translate(-226.78667,-367.06673)"
       clip-path="url(#clipPath14)" />
    <path
       id="path15"
       d="M 547.84003,490.56 V 632.15997"
       style="fill:none;stroke:#000000;stroke-width:26.4;stroke-linecap:round;stroke-linejoin:round;stroke-miterlimit:10;stroke-dasharray:none;stroke-opacity:1"
       transform="translate(-226.78667,-367.06673)"
       clip-path="url(#clipPath16)" />
  </g>
</svg>
