<?xml version="1.0" encoding="UTF-8" standalone="no"?>
<!-- Created with Inkscape (http://www.inkscape.org/) -->

<svg
   version="1.1"
   id="svg1"
   width="282.81332"
   height="331.02667"
   viewBox="0 0 282.81332 331.02667"
   sodipodi:docname="CalcinatedGold5.pdf"
   xmlns:inkscape="http://www.inkscape.org/namespaces/inkscape"
   xmlns:sodipodi="http://sodipodi.sourceforge.net/DTD/sodipodi-0.dtd"
   xmlns="http://www.w3.org/2000/svg"
   xmlns:svg="http://www.w3.org/2000/svg">
  <defs
     id="defs1">
    <clipPath
       clipPathUnits="userSpaceOnUse"
       id="clipPath2">
      <path
         d="M 0,0.16 V 1122.5601 H 793.59998 V 0.16 Z"
         transform="translate(-432.95999,-453.76001)"
         clip-rule="evenodd"
         id="path2" />
    </clipPath>
    <clipPath
       clipPathUnits="userSpaceOnUse"
       id="clipPath4">
      <path
         d="M 0,0.16 V 1122.5601 H 793.59998 V 0.16 Z"
         transform="translate(-246.08,-410.23999)"
         clip-rule="evenodd"
         id="path4" />
    </clipPath>
  </defs>
  <sodipodi:namedview
     id="namedview1"
     pagecolor="#505050"
     bordercolor="#eeeeee"
     borderopacity="1"
     inkscape:showpageshadow="0"
     inkscape:pageopacity="0"
     inkscape:pagecheckerboard="0"
     inkscape:deskcolor="#505050">
    <inkscape:page
       x="0"
       y="0"
       inkscape:label="1"
       id="page1"
       width="282.81332"
       height="331.02667"
       margin="0"
       bleed="0" />
  </sodipodi:namedview>
  <g
     id="g1"
     inkscape:groupmode="layer"
     inkscape:label="1">
    <path
       id="path1"
       d="m 0,0 -6.56,-1.92 -6.72,-1.6 -6.72,-1.12 -6.879999,-0.8 -6.879999,-0.32 h -6.880001 l -6.880001,0.48 -6.720002,0.96 -6.719997,1.28 -6.720001,1.76 -6.559998,2.24 -6.400001,2.4 -6.239998,2.88 -5.920006,3.36 -5.919998,3.68 -5.599999,4.000001 -5.28,4.319999 -5.12,4.48 -4.8,4.960001 L -124,36.32 -128.16,41.759998 -132,47.52 l -3.36,5.919999 -3.2,6.080001 -2.72,6.399998 -2.24,6.400002 -1.92,6.559997 -1.59999,6.720001 -1.12001,6.880005 -0.64,6.719994 -0.31999,6.880003 0.15998,6.88 0.48001,6.88 0.96,6.72 1.44,6.88 1.75999,6.56 2.08001,6.56 2.56001,6.40001 3.03999,6.07998 3.36,6.08 3.67999,5.76001 4.00001,5.6 4.32,5.27999 4.64,5.12001 4.96,4.79999 5.28,4.32001 5.44,4.16 5.760003,3.84 5.919998,3.36 6.239998,3.03999 6.239998,2.72 6.560005,2.24001 6.559998,1.92 6.720001,1.44 6.719997,1.12 6.880001,0.64 6.880001,0.32 6.88,-0.16 6.880001,-0.64 6.719999,-0.96001 6.72,-1.43998 6.72,-1.92002 6.4,-2.07998 6.4,-2.72001 6.24,-2.88 5.92,-3.36"
       style="fill:none;stroke:#000000;stroke-width:26.4;stroke-linecap:round;stroke-linejoin:round;stroke-miterlimit:10;stroke-dasharray:none;stroke-opacity:1"
       transform="translate(432.95999,511.15995)"
       clip-path="url(#clipPath2)" />
    <path
       id="path3"
       d="m 0,0 7.2,7.04 8.16,7.84 7.840001,7.679999 7.84,7.520001 7.52,7.199999 7.359997,7.040001 7.200001,6.720001 7.200001,6.559997 6.879997,6.240002 6.880005,5.920002 6.720001,5.439995 6.719994,5.280006 6.560005,4.799996 6.399998,4.319999 6.56,4 5.92,3.200005 4.8,2.399994 6.4,2.720003 6.4,2.4 6.55999,2.08 6.56,1.6 6.56001,1.12 6.56,0.96 6.23999,0.32 6.24001,0.16 6.08,-0.48 5.92,-0.64 5.44,-0.96 5.28,-1.44 4.64,-1.6 3.03999,-1.12 4.16001,-2.08 4,-2.24 3.52,-2.559998 3.36,-2.720001 2.88001,-2.880005 2.55999,-3.039993 2.23999,-3.040001 1.76001,-3.040001 1.28,-3.040001 0.8,-2.720001 0.48,-2.720001 v -1.279999 -1.440002 l -0.48,-2.079995 -0.8,-1.920005 -1.11999,-1.919999 L 222.72,63.84 220.48,61.919998 217.75999,60 l -3.36,-2.240002 -4.47999,-2.719997 -2.24001,-1.440003 -1.43999,-0.959999 -4.32,-3.2 -3.04,-2.079998 L 196,45.439999 193.60001,44 188.96001,41.599998 184.48,39.84 180.32001,38.720001 176,38.080002 171.52,37.759998 h -1.6"
       style="fill:none;stroke:#000000;stroke-width:26.4;stroke-linecap:round;stroke-linejoin:round;stroke-miterlimit:10;stroke-dasharray:none;stroke-opacity:1"
       transform="translate(246.08,467.63993)"
       clip-path="url(#clipPath4)" />
  </g>
</svg>
