<?xml version="1.0" encoding="UTF-8" standalone="no"?>
<!-- Created with Inkscape (http://www.inkscape.org/) -->

<svg
   version="1.1"
   id="svg1"
   width="446.90668"
   height="360.39999"
   viewBox="0 0 446.90668 360.39999"
   sodipodi:docname="CalcinatedGold4.pdf"
   xmlns:inkscape="http://www.inkscape.org/namespaces/inkscape"
   xmlns:sodipodi="http://sodipodi.sourceforge.net/DTD/sodipodi-0.dtd"
   xmlns="http://www.w3.org/2000/svg"
   xmlns:svg="http://www.w3.org/2000/svg">
  <defs
     id="defs1">
    <clipPath
       clipPathUnits="userSpaceOnUse"
       id="clipPath2">
      <path
         d="M 0,0.16 V 1122.5601 H 793.59998 V 0.16 Z"
         transform="translate(-510.39999,-561.28003)"
         clip-rule="evenodd"
         id="path2" />
    </clipPath>
    <clipPath
       clipPathUnits="userSpaceOnUse"
       id="clipPath4">
      <path
         d="M 0,0.16 V 1122.5601 H 793.59998 V 0.16 Z"
         transform="translate(-281.92001,-529.28003)"
         clip-rule="evenodd"
         id="path4" />
    </clipPath>
  </defs>
  <sodipodi:namedview
     id="namedview1"
     pagecolor="#505050"
     bordercolor="#eeeeee"
     borderopacity="1"
     inkscape:showpageshadow="0"
     inkscape:pageopacity="0"
     inkscape:pagecheckerboard="0"
     inkscape:deskcolor="#505050">
    <inkscape:page
       x="0"
       y="0"
       inkscape:label="1"
       id="page1"
       width="446.90668"
       height="360.39999"
       margin="0"
       bleed="0" />
  </sodipodi:namedview>
  <g
     id="g1"
     inkscape:groupmode="layer"
     inkscape:label="1">
    <path
       id="path1"
       d="m 0,0 c 0,-62.560001 -50.709999,-113.28 -113.28,-113.28 -62.57001,0 -113.28,50.719999 -113.28,113.28 0,62.560001 50.70999,113.28 113.28,113.28 C -50.709999,113.28 0,62.560001 0,0 Z"
       style="fill:none;stroke:#000000;stroke-width:26.4;stroke-linecap:round;stroke-linejoin:round;stroke-miterlimit:10;stroke-dasharray:none;stroke-opacity:1"
       transform="translate(510.39999,482.5333)"
       clip-path="url(#clipPath2)" />
    <path
       id="path3"
       d="m 0,0 -6.56,-1.92 -6.56,-1.6 -6.72,-1.12 -6.879999,-0.8 -6.72,-0.32 H -40.32 l -6.720001,0.48 -6.879997,0.96 -6.720001,1.28 -6.559998,1.6 -6.400001,2.08 L -80,3.2 l -6.239998,2.88 -5.920006,3.2 -5.919998,3.52 -5.599998,3.839999 -5.28,4.32 -5.12,4.480002 -4.8,4.959999 -4.48,5.12 -4.16,5.279999 -3.84,5.760002 -3.52,5.759999 -3.04,6.080002 -2.72,6.239997 -2.39999,6.400002 -2.08,6.559997 -1.60001,6.560006 -1.12,6.719993 -0.8,6.720001 -0.47999,6.880002 v 6.88 l 0.47999,6.72 0.8,6.72 1.28,6.72 1.76,6.72 1.92,6.4 2.55999,6.39999 2.72,6.24001 3.20002,6.08 3.51999,5.75999 3.84,5.60001 4.32,5.44 4.48,4.95999 4.8,4.96001 5.12,4.48 5.44,4.16 5.600001,3.84 5.760002,3.52 6.079995,3.2 6.240005,2.88 6.399994,2.4 6.400001,1.92 6.720002,1.76 6.720001,1.12 6.719997,0.96001 L -39.52,220.64 h 6.880001 l 6.879999,-0.31999 6.719999,-0.80001 6.720001,-1.28 6.56,-1.6 6.56,-1.92 6.4,-2.39999 6.24,-2.88001 6.08,-3.04001 5.760001,-3.51999 5.599998,-3.84001 L 36.32,194.72 l 5.119999,-4.48 4.800003,-4.8 4.639999,-4.96 4.16,-5.44001 3.84,-5.59999 3.68,-5.76001 3.200001,-6.07998 2.720001,-6.24001 2.559998,-6.24001 2.080002,-6.55999"
       style="fill:none;stroke:#000000;stroke-width:26.4;stroke-linecap:round;stroke-linejoin:round;stroke-miterlimit:10;stroke-dasharray:none;stroke-opacity:1"
       transform="translate(281.92001,450.5333)"
       clip-path="url(#clipPath4)" />
  </g>
</svg>
