<?xml version="1.0" encoding="UTF-8" standalone="no"?>
<!-- Created with Inkscape (http://www.inkscape.org/) -->

<svg
   version="1.1"
   id="svg1"
   width="209.44"
   height="206.89333"
   viewBox="0 0 209.44 206.89333"
   sodipodi:docname="CalcinatedGold2.pdf"
   xmlns:inkscape="http://www.inkscape.org/namespaces/inkscape"
   xmlns:sodipodi="http://sodipodi.sourceforge.net/DTD/sodipodi-0.dtd"
   xmlns="http://www.w3.org/2000/svg"
   xmlns:svg="http://www.w3.org/2000/svg">
  <defs
     id="defs1">
    <clipPath
       clipPathUnits="userSpaceOnUse"
       id="clipPath2">
      <path
         d="M 0,0.16 V 1122.5601 H 793.59998 V 0.16 Z"
         clip-rule="evenodd"
         id="path2" />
    </clipPath>
    <clipPath
       clipPathUnits="userSpaceOnUse"
       id="clipPath4">
      <path
         d="M 0,0.16 V 1122.5601 H 793.59998 V 0.16 Z"
         clip-rule="evenodd"
         id="path4" />
    </clipPath>
    <clipPath
       clipPathUnits="userSpaceOnUse"
       id="clipPath6">
      <path
         d="M 0,0.16 V 1122.5601 H 793.59998 V 0.16 Z"
         transform="translate(-397.44,-486.07999)"
         clip-rule="evenodd"
         id="path6" />
    </clipPath>
  </defs>
  <sodipodi:namedview
     id="namedview1"
     pagecolor="#505050"
     bordercolor="#eeeeee"
     borderopacity="1"
     inkscape:showpageshadow="0"
     inkscape:pageopacity="0"
     inkscape:pagecheckerboard="0"
     inkscape:deskcolor="#505050">
    <inkscape:page
       x="0"
       y="0"
       inkscape:label="1"
       id="page1"
       width="209.44"
       height="206.89333"
       margin="0"
       bleed="0" />
  </sodipodi:namedview>
  <g
     id="g1"
     inkscape:groupmode="layer"
     inkscape:label="1">
    <path
       id="path1"
       d="M 472.95999,637.12 H 321.92001"
       style="fill:none;stroke:#000000;stroke-width:26.4;stroke-linecap:round;stroke-linejoin:round;stroke-miterlimit:10;stroke-dasharray:none;stroke-opacity:1"
       transform="translate(-296.16,-460.50673)"
       clip-path="url(#clipPath2)" />
    <path
       id="path3"
       d="M 321.92001,637.12 V 561.59998"
       style="fill:none;stroke:#000000;stroke-width:26.4;stroke-linecap:round;stroke-linejoin:round;stroke-miterlimit:10;stroke-dasharray:none;stroke-opacity:1"
       transform="translate(-296.16,-460.50673)"
       clip-path="url(#clipPath4)" />
    <path
       id="path5"
       d="m 0,0 -4.96,-0.48 -4.96,-0.16 -4.96,0.16 -4.8,0.64 -4.959999,0.8 -4.640002,1.44 -4.800001,1.6 -4.479999,1.92 -4.32,2.4 -4.16,2.56 -4,3.04 -3.84,3.200001 -3.520001,3.519998 -3.199996,3.680001 -2.880005,4 -2.719994,4.16 -2.240005,4.479999 -2.079995,4.48 -1.600006,4.640003 -1.279999,4.799999 L -75.360001,55.68 -76,60.639999 l -0.160004,4.959999 0.160004,4.96 0.480003,4.959999"
       style="fill:none;stroke:#000000;stroke-width:26.4;stroke-linecap:round;stroke-linejoin:round;stroke-miterlimit:10;stroke-dasharray:none;stroke-opacity:1"
       transform="translate(101.28,25.573262)"
       clip-path="url(#clipPath6)" />
  </g>
</svg>
