<?xml version="1.0" encoding="UTF-8" standalone="no"?>
<!-- Created with Inkscape (http://www.inkscape.org/) -->

<svg
   version="1.1"
   id="svg1"
   width="298.82666"
   height="272.29333"
   viewBox="0 0 298.82666 272.29333"
   sodipodi:docname="CalcinatedGold3.pdf"
   xmlns:inkscape="http://www.inkscape.org/namespaces/inkscape"
   xmlns:sodipodi="http://sodipodi.sourceforge.net/DTD/sodipodi-0.dtd"
   xmlns="http://www.w3.org/2000/svg"
   xmlns:svg="http://www.w3.org/2000/svg">
  <defs
     id="defs1">
    <clipPath
       clipPathUnits="userSpaceOnUse"
       id="clipPath2">
      <path
         d="M 0,0.16 V 1122.5601 H 793.59998 V 0.16 Z"
         transform="translate(-397.12,-448)"
         clip-rule="evenodd"
         id="path2" />
    </clipPath>
    <clipPath
       clipPathUnits="userSpaceOnUse"
       id="clipPath4">
      <path
         d="M 0,0.16 V 1122.5601 H 793.59998 V 0.16 Z"
         clip-rule="evenodd"
         id="path4" />
    </clipPath>
    <clipPath
       clipPathUnits="userSpaceOnUse"
       id="clipPath6">
      <path
         d="M 0,0.16 V 1122.5601 H 793.59998 V 0.16 Z"
         transform="translate(-472.64002,-561.28003)"
         clip-rule="evenodd"
         id="path6" />
    </clipPath>
    <clipPath
       clipPathUnits="userSpaceOnUse"
       id="clipPath8">
      <path
         d="M 0,0.16 V 1122.5601 H 793.59998 V 0.16 Z"
         clip-rule="evenodd"
         id="path8" />
    </clipPath>
    <clipPath
       clipPathUnits="userSpaceOnUse"
       id="clipPath10">
      <path
         d="M 0,0.16 V 1122.5601 H 793.59998 V 0.16 Z"
         clip-rule="evenodd"
         id="path10" />
    </clipPath>
  </defs>
  <sodipodi:namedview
     id="namedview1"
     pagecolor="#505050"
     bordercolor="#eeeeee"
     borderopacity="1"
     inkscape:showpageshadow="0"
     inkscape:pageopacity="0"
     inkscape:pagecheckerboard="0"
     inkscape:deskcolor="#505050">
    <inkscape:page
       x="0"
       y="0"
       inkscape:label="1"
       id="page1"
       width="298.82666"
       height="272.29333"
       margin="0"
       bleed="0" />
  </sodipodi:namedview>
  <g
     id="g1"
     inkscape:groupmode="layer"
     inkscape:label="1">
    <path
       id="path1"
       d="m 0,0 -6.88,0.16 -6.72,0.64 -6.88,0.96 -6.560001,1.44 -6.719997,1.92 -6.400002,2.24 -6.400001,2.56 -6.079998,3.04 -5.920002,3.36 L -64.32,20 l -5.599998,4 -5.120003,4.48 -5.120003,4.639999 -4.639999,4.960003 -4.32,5.279999 -4.159996,5.439998 -3.68,5.760002 -3.360001,6.079998 -3.04,6.080002 -2.56,6.400002 -2.24,6.399994 -1.76,6.560005 -1.44,6.720001 -1.12,6.719994 -0.64,6.880003 -0.16,6.88 0.16,6.72 0.64,6.88 1.12,6.72001 1.44,6.72 1.76,6.55999 2.24,6.56 2.56,6.23999 3.04,6.24001 3.360001,5.92 3.68,5.76001 4.159996,5.43998 4.32,5.28002 4.639999,4.95999 5.120003,4.8 5.120003,4.31999 5.599998,4 5.759999,3.84001 5.920002,3.36001 6.079998,2.87999 6.400001,2.72 6.400002,2.24 6.719997,1.76 6.560001,1.44 6.88,0.96001 6.72,0.63999 6.88,0.32"
       style="fill:none;stroke:#000000;stroke-width:26.4;stroke-linecap:round;stroke-linejoin:round;stroke-miterlimit:10;stroke-dasharray:none;stroke-opacity:1"
       transform="translate(138.32,26.199941)"
       clip-path="url(#clipPath2)" />
    <path
       id="path3"
       d="M 397.12,448 V 674.56"
       style="fill:none;stroke:#000000;stroke-width:26.4;stroke-linecap:round;stroke-linejoin:round;stroke-miterlimit:10;stroke-dasharray:none;stroke-opacity:1"
       transform="translate(-258.8,-421.80006)"
       clip-path="url(#clipPath4)" />
    <path
       id="path5"
       d="M 0,0 4.48,-0.16 8.8,-0.8 13.28,-1.6 17.440001,-2.88 21.6,-4.32 l 4.16,-1.92 3.84,-2.24 3.679999,-2.4 3.52,-2.72 L 40,-16.639999 43.040001,-19.84 l 2.719997,-3.520001 2.560002,-3.68 2.080002,-4 1.919998,-4 1.599998,-4.16 L 55.040001,-43.52 56,-47.84 l 0.48,-4.48 0.159999,-4.319999 -0.159999,-4.48 -0.48,-4.479999 -0.959999,-4.32 -1.120003,-4.32 -1.599998,-4.160004 -1.919998,-4 -2.080002,-3.839996 -2.560002,-3.68 -2.719997,-3.520004 L 40,-96.800003 36.799999,-99.68 l -3.52,-2.88 -3.679999,-2.4 -3.84,-2.24 -4.16,-1.76 -4.159999,-1.6 -4.160001,-1.28 -4.48,-0.8 -4.32,-0.48 -4.48,-0.16"
       style="fill:none;stroke:#000000;stroke-width:26.4;stroke-linecap:round;stroke-linejoin:round;stroke-miterlimit:10;stroke-dasharray:none;stroke-opacity:1"
       transform="translate(213.84002,139.47997)"
       clip-path="url(#clipPath6)" />
    <path
       id="path7"
       d="M 472.64001,448 H 397.12"
       style="fill:none;stroke:#000000;stroke-width:26.4;stroke-linecap:round;stroke-linejoin:round;stroke-miterlimit:10;stroke-dasharray:none;stroke-opacity:1"
       transform="translate(-258.8,-421.80006)"
       clip-path="url(#clipPath8)" />
    <path
       id="path9"
       d="M 472.64001,561.28003 H 397.12"
       style="fill:none;stroke:#000000;stroke-width:26.4;stroke-linecap:round;stroke-linejoin:round;stroke-miterlimit:10;stroke-dasharray:none;stroke-opacity:1"
       transform="translate(-258.8,-421.80006)"
       clip-path="url(#clipPath10)" />
  </g>
</svg>
