<?xml version="1.0" encoding="UTF-8" standalone="no"?>
<!-- Created with Inkscape (http://www.inkscape.org/) -->

<svg
   version="1.1"
   id="svg1"
   width="354.85333"
   height="212.24001"
   viewBox="0 0 354.85333 212.24001"
   sodipodi:docname="Calx7.pdf"
   xmlns:inkscape="http://www.inkscape.org/namespaces/inkscape"
   xmlns:sodipodi="http://sodipodi.sourceforge.net/DTD/sodipodi-0.dtd"
   xmlns="http://www.w3.org/2000/svg"
   xmlns:svg="http://www.w3.org/2000/svg">
  <defs
     id="defs1">
    <clipPath
       clipPathUnits="userSpaceOnUse"
       id="clipPath2">
      <path
         d="M 26.4,26.559999 V 1096.16 H 767.03998 V 26.559999 Z"
         transform="translate(-372.32001,-523.52002)"
         clip-rule="evenodd"
         id="path2" />
    </clipPath>
    <clipPath
       clipPathUnits="userSpaceOnUse"
       id="clipPath4">
      <path
         d="M 26.4,26.559999 V 1096.16 H 767.03998 V 26.559999 Z"
         transform="translate(-447.83999,-523.52002)"
         clip-rule="evenodd"
         id="path4" />
    </clipPath>
    <clipPath
       clipPathUnits="userSpaceOnUse"
       id="clipPath6">
      <path
         d="M 26.4,26.559999 V 1096.16 H 767.03998 V 26.559999 Z"
         transform="translate(-372.32001,-599.03998)"
         clip-rule="evenodd"
         id="path6" />
    </clipPath>
    <clipPath
       clipPathUnits="userSpaceOnUse"
       id="clipPath8">
      <path
         d="M 26.4,26.559999 V 1096.16 H 767.03998 V 26.559999 Z"
         transform="translate(-447.83999,-599.03998)"
         clip-rule="evenodd"
         id="path8" />
    </clipPath>
    <clipPath
       clipPathUnits="userSpaceOnUse"
       id="clipPath10">
      <path
         d="M 26.4,26.559999 V 1096.16 H 767.03998 V 26.559999 Z"
         transform="translate(-523.35998,-523.52002)"
         clip-rule="evenodd"
         id="path10" />
    </clipPath>
    <clipPath
       clipPathUnits="userSpaceOnUse"
       id="clipPath12">
      <path
         d="M 26.4,26.559999 V 1096.16 H 767.03998 V 26.559999 Z"
         transform="translate(-598.71997,-523.52002)"
         clip-rule="evenodd"
         id="path12" />
    </clipPath>
    <clipPath
       clipPathUnits="userSpaceOnUse"
       id="clipPath14">
      <path
         d="M 26.4,26.559999 V 1096.16 H 767.03998 V 26.559999 Z"
         transform="translate(-523.35998,-599.03998)"
         clip-rule="evenodd"
         id="path14" />
    </clipPath>
    <clipPath
       clipPathUnits="userSpaceOnUse"
       id="clipPath16">
      <path
         d="M 26.4,26.559999 V 1096.16 H 767.03998 V 26.559999 Z"
         transform="translate(-598.71997,-599.03998)"
         clip-rule="evenodd"
         id="path16" />
    </clipPath>
    <clipPath
       clipPathUnits="userSpaceOnUse"
       id="clipPath18">
      <path
         d="M 26.4,26.559999 V 1096.16 H 767.03998 V 26.559999 Z"
         transform="translate(-372.32001,-523.52002)"
         clip-rule="evenodd"
         id="path18" />
    </clipPath>
    <clipPath
       clipPathUnits="userSpaceOnUse"
       id="clipPath20">
      <path
         d="M 26.4,26.559999 V 1096.16 H 767.03998 V 26.559999 Z"
         transform="translate(-447.83999,-523.52002)"
         clip-rule="evenodd"
         id="path20" />
    </clipPath>
    <clipPath
       clipPathUnits="userSpaceOnUse"
       id="clipPath22">
      <path
         d="M 26.4,26.559999 V 1096.16 H 767.03998 V 26.559999 Z"
         transform="translate(-372.32001,-599.03998)"
         clip-rule="evenodd"
         id="path22" />
    </clipPath>
    <clipPath
       clipPathUnits="userSpaceOnUse"
       id="clipPath24">
      <path
         d="M 26.4,26.559999 V 1096.16 H 767.03998 V 26.559999 Z"
         transform="translate(-447.83999,-599.03998)"
         clip-rule="evenodd"
         id="path24" />
    </clipPath>
    <clipPath
       clipPathUnits="userSpaceOnUse"
       id="clipPath26">
      <path
         d="M 26.4,26.559999 V 1096.16 H 767.03998 V 26.559999 Z"
         transform="translate(-523.35998,-523.52002)"
         clip-rule="evenodd"
         id="path26" />
    </clipPath>
    <clipPath
       clipPathUnits="userSpaceOnUse"
       id="clipPath28">
      <path
         d="M 26.4,26.559999 V 1096.16 H 767.03998 V 26.559999 Z"
         transform="translate(-598.71997,-523.52002)"
         clip-rule="evenodd"
         id="path28" />
    </clipPath>
    <clipPath
       clipPathUnits="userSpaceOnUse"
       id="clipPath30">
      <path
         d="M 26.4,26.559999 V 1096.16 H 767.03998 V 26.559999 Z"
         transform="translate(-523.35998,-599.03998)"
         clip-rule="evenodd"
         id="path30" />
    </clipPath>
    <clipPath
       clipPathUnits="userSpaceOnUse"
       id="clipPath32">
      <path
         d="M 26.4,26.559999 V 1096.16 H 767.03998 V 26.559999 Z"
         transform="translate(-598.71997,-599.03998)"
         clip-rule="evenodd"
         id="path32" />
    </clipPath>
    <clipPath
       clipPathUnits="userSpaceOnUse"
       id="clipPath34">
      <path
         d="M 26.4,26.559999 V 1096.16 H 767.03998 V 26.559999 Z"
         transform="translate(-3.3333333e-6)"
         clip-rule="evenodd"
         id="path34" />
    </clipPath>
  </defs>
  <sodipodi:namedview
     id="namedview1"
     pagecolor="#505050"
     bordercolor="#eeeeee"
     borderopacity="1"
     inkscape:showpageshadow="0"
     inkscape:pageopacity="0"
     inkscape:pagecheckerboard="0"
     inkscape:deskcolor="#505050">
    <inkscape:page
       x="0"
       y="0"
       inkscape:label="1"
       id="page1"
       width="354.85333"
       height="212.24001"
       margin="0"
       bleed="0" />
  </sodipodi:namedview>
  <g
     id="g1"
     inkscape:groupmode="layer"
     inkscape:label="1">
    <path
       id="path1"
       d="M 0,0 -0.16,-1.6 -0.48,-3.36 -1.12,-4.96 -1.76,-6.56 -2.72,-8 -4,-9.28 l -1.28,-1.12 -1.44,-0.96 -1.44,-0.8 -1.76,-0.48 -1.6,-0.32 -1.76,-0.16 -1.76,0.16 -1.599999,0.32 -1.760001,0.48 -1.44,0.8 -1.440001,0.96 -1.279998,1.12 L -23.84,-8 l -0.959999,1.44 -0.640002,1.6 L -26.08,-3.36 -26.4,-1.6 -26.559999,0 -26.4,1.76 l 0.32,1.76 0.639999,1.6 0.640002,1.6 0.959999,1.44 1.280001,1.28 1.279998,1.12 1.440001,0.96 1.44,0.8 1.760001,0.48 1.599999,0.32 1.76,0.16 1.76,-0.16 1.6,-0.32 1.76,-0.48 1.44,-0.8 1.44,-0.96 L -4,9.44 -2.72,8.16 -1.76,6.72 -1.12,5.12 -0.48,3.52 -0.16,1.76 0,0 v 0 z"
       style="fill:#000000;fill-opacity:1;fill-rule:evenodd;stroke:none"
       transform="translate(74.826674,67.026628)"
       clip-path="url(#clipPath2)" />
    <path
       id="path3"
       d="m 0,0 -0.16,-1.6 -0.32,-1.76 -0.64,-1.6 -0.8,-1.6 L -2.88,-8 -4,-9.28 l -1.28,-1.12 -1.44,-0.96 -1.44,-0.8 -1.76,-0.48 -1.6,-0.32 -1.76,-0.16 -1.76,0.16 -1.599999,0.32 -1.760001,0.48 -1.44,0.8 -1.440001,0.96 -1.279998,1.12 L -23.84,-8 l -0.959999,1.44 -0.640002,1.6 L -26.08,-3.36 -26.4,-1.6 -26.559999,0 -26.4,1.76 l 0.32,1.76 0.639999,1.6 0.640002,1.6 0.959999,1.44 1.280001,1.28 1.279998,1.12 1.440001,0.96 1.44,0.8 1.760001,0.48 1.599999,0.32 1.76,0.16 1.76,-0.16 1.6,-0.32 1.76,-0.48 1.44,-0.8 1.44,-0.96 L -4,9.44 -2.88,8.16 -1.92,6.72 -1.12,5.12 -0.48,3.52 -0.16,1.76 0,0 v 0 z"
       style="fill:#000000;fill-opacity:1;fill-rule:evenodd;stroke:none"
       transform="translate(150.34666,67.026628)"
       clip-path="url(#clipPath4)" />
    <path
       id="path5"
       d="M 0,0 -0.16,-1.6 -0.48,-3.36 -1.12,-4.96 -1.76,-6.56 -2.72,-8 -4,-9.28 l -1.28,-1.12 -1.44,-0.96 -1.44,-0.8 -1.76,-0.48 -1.6,-0.32 -1.76,-0.16 -1.76,0.16 -1.599999,0.32 -1.760001,0.48 -1.44,0.8 -1.440001,0.96 -1.279998,1.12 L -23.84,-8 l -0.959999,1.44 -0.640002,1.6 L -26.08,-3.36 -26.4,-1.6 -26.559999,0 -26.4,1.76 l 0.32,1.76 0.639999,1.6 0.640002,1.6 0.959999,1.44 1.280001,1.28 1.279998,1.12 1.440001,0.96 1.44,0.8 1.760001,0.48 1.599999,0.32 1.76,0.16 1.76,-0.16 1.6,-0.32 1.76,-0.48 1.44,-0.8 1.44,-0.96 L -4,9.44 -2.72,8.16 -1.76,6.72 -1.12,5.12 -0.48,3.52 -0.16,1.76 0,0 v 0 z"
       style="fill:#000000;fill-opacity:1;fill-rule:evenodd;stroke:none"
       transform="translate(74.826674,142.54659)"
       clip-path="url(#clipPath6)" />
    <path
       id="path7"
       d="m 0,0 -0.16,-1.6 -0.32,-1.76 -0.64,-1.6 -0.8,-1.6 L -2.88,-8 -4,-9.28 l -1.28,-1.12 -1.44,-0.96 -1.44,-0.8 -1.76,-0.48 -1.6,-0.32 -1.76,-0.16 -1.76,0.16 -1.599999,0.32 -1.760001,0.48 -1.44,0.8 -1.440001,0.96 -1.279998,1.12 L -23.84,-8 l -0.959999,1.44 -0.640002,1.6 L -26.08,-3.36 -26.4,-1.6 -26.559999,0 -26.4,1.76 l 0.32,1.76 0.639999,1.6 0.640002,1.6 0.959999,1.44 1.280001,1.28 1.279998,1.12 1.440001,0.96 1.44,0.8 1.760001,0.48 1.599999,0.32 1.76,0.16 1.76,-0.16 1.6,-0.32 1.76,-0.48 1.44,-0.8 1.44,-0.96 L -4,9.44 -2.88,8.16 -1.92,6.72 -1.12,5.12 -0.48,3.52 -0.16,1.76 0,0 v 0 z"
       style="fill:#000000;fill-opacity:1;fill-rule:evenodd;stroke:none"
       transform="translate(150.34666,142.54659)"
       clip-path="url(#clipPath8)" />
    <path
       id="path9"
       d="m 0,0 -0.16,-1.6 -0.32,-1.76 -0.64,-1.6 -0.8,-1.6 L -2.88,-8 -4,-9.28 l -1.28,-1.12 -1.44,-0.96 -1.44,-0.8 -1.76,-0.48 -1.6,-0.32 -1.76,-0.16 -1.76,0.16 -1.599999,0.32 -1.760001,0.48 -1.44,0.8 -1.440001,0.96 -1.279998,1.12 L -23.84,-8 l -0.959999,1.44 -0.640002,1.6 L -26.08,-3.36 -26.4,-1.6 -26.559999,0 -26.4,1.76 l 0.32,1.76 0.639999,1.6 0.640002,1.6 0.959999,1.44 1.280001,1.28 1.279998,1.12 1.440001,0.96 1.44,0.8 1.760001,0.48 1.599999,0.32 1.76,0.16 1.76,-0.16 1.6,-0.32 1.76,-0.48 1.44,-0.8 1.44,-0.96 L -4,9.44 -2.88,8.16 -1.92,6.72 -1.12,5.12 -0.48,3.52 -0.16,1.76 0,0 v 0 z"
       style="fill:#000000;fill-opacity:1;fill-rule:evenodd;stroke:none"
       transform="translate(225.86665,67.026628)"
       clip-path="url(#clipPath10)" />
    <path
       id="path11"
       d="m 0,0 v -1.6 l -0.32,-1.76 -0.64,-1.6 -0.8,-1.6 -0.96,-1.44 -1.12,-1.28 -1.28,-1.12 -1.44,-0.96 -1.6,-0.8 -1.6,-0.48 -1.6,-0.32 -1.76,-0.16 -1.76,0.16 -1.6,0.32 -1.76,0.48 -1.44,0.8 -1.440001,0.96 -1.439998,1.12 L -23.68,-8 l -0.959999,1.44 -0.640002,1.6 -0.639999,1.6 -0.32,1.76 -0.16,1.6 0.16,1.76 0.32,1.76 0.639999,1.6 0.640002,1.6 0.959999,1.44 1.120001,1.28 1.439998,1.12 1.440001,0.96 1.44,0.8 1.76,0.48 1.6,0.32 1.76,0.16 1.76,-0.16 1.6,-0.32 1.6,-0.48 1.6,-0.8 1.44,-0.96 1.28,-1.12 1.12,-1.28 0.96,-1.44 0.8,-1.6 0.64,-1.6 L 0,1.76 V 0 0 Z"
       style="fill:#000000;fill-opacity:1;fill-rule:evenodd;stroke:none"
       transform="translate(301.22664,67.026628)"
       clip-path="url(#clipPath12)" />
    <path
       id="path13"
       d="m 0,0 -0.16,-1.6 -0.32,-1.76 -0.64,-1.6 -0.8,-1.6 L -2.88,-8 -4,-9.28 l -1.28,-1.12 -1.44,-0.96 -1.44,-0.8 -1.76,-0.48 -1.6,-0.32 -1.76,-0.16 -1.76,0.16 -1.599999,0.32 -1.760001,0.48 -1.44,0.8 -1.440001,0.96 -1.279998,1.12 L -23.84,-8 l -0.959999,1.44 -0.640002,1.6 L -26.08,-3.36 -26.4,-1.6 -26.559999,0 -26.4,1.76 l 0.32,1.76 0.639999,1.6 0.640002,1.6 0.959999,1.44 1.280001,1.28 1.279998,1.12 1.440001,0.96 1.44,0.8 1.760001,0.48 1.599999,0.32 1.76,0.16 1.76,-0.16 1.6,-0.32 1.76,-0.48 1.44,-0.8 1.44,-0.96 L -4,9.44 -2.88,8.16 -1.92,6.72 -1.12,5.12 -0.48,3.52 -0.16,1.76 0,0 v 0 z"
       style="fill:#000000;fill-opacity:1;fill-rule:evenodd;stroke:none"
       transform="translate(225.86665,142.54659)"
       clip-path="url(#clipPath14)" />
    <path
       id="path15"
       d="m 0,0 v -1.6 l -0.32,-1.76 -0.64,-1.6 -0.8,-1.6 -0.96,-1.44 -1.12,-1.28 -1.28,-1.12 -1.44,-0.96 -1.6,-0.8 -1.6,-0.48 -1.6,-0.32 -1.76,-0.16 -1.76,0.16 -1.6,0.32 -1.76,0.48 -1.44,0.8 -1.440001,0.96 -1.439998,1.12 L -23.68,-8 l -0.959999,1.44 -0.640002,1.6 -0.639999,1.6 -0.32,1.76 -0.16,1.6 0.16,1.76 0.32,1.76 0.639999,1.6 0.640002,1.6 0.959999,1.44 1.120001,1.28 1.439998,1.12 1.440001,0.96 1.44,0.8 1.76,0.48 1.6,0.32 1.76,0.16 1.76,-0.16 1.6,-0.32 1.6,-0.48 1.6,-0.8 1.44,-0.96 1.28,-1.12 1.12,-1.28 0.96,-1.44 0.8,-1.6 0.64,-1.6 L 0,1.76 V 0 0 Z"
       style="fill:#000000;fill-opacity:1;fill-rule:evenodd;stroke:none"
       transform="translate(301.22664,142.54659)"
       clip-path="url(#clipPath16)" />
    <path
       id="path17"
       d="M 0,0 -0.16,-1.6 -0.48,-3.36 -1.12,-4.96 -1.76,-6.56 -2.72,-8 -4,-9.28 l -1.28,-1.12 -1.44,-0.96 -1.44,-0.8 -1.76,-0.48 -1.6,-0.32 -1.76,-0.16 -1.76,0.16 -1.599999,0.32 -1.760001,0.48 -1.44,0.8 -1.440001,0.96 -1.279998,1.12 L -23.84,-8 l -0.959999,1.44 -0.640002,1.6 L -26.08,-3.36 -26.4,-1.6 -26.559999,0 -26.4,1.76 l 0.32,1.76 0.639999,1.6 0.640002,1.6 0.959999,1.44 1.280001,1.28 1.279998,1.12 1.440001,0.96 1.44,0.8 1.760001,0.48 1.599999,0.32 1.76,0.16 1.76,-0.16 1.6,-0.32 1.76,-0.48 1.44,-0.8 1.44,-0.96 L -4,9.44 -2.72,8.16 -1.76,6.72 -1.12,5.12 -0.48,3.52 -0.16,1.76 0,0"
       style="fill:none;stroke:#000000;stroke-width:0.64;stroke-linecap:round;stroke-linejoin:round;stroke-miterlimit:10;stroke-dasharray:none;stroke-opacity:1"
       transform="translate(74.826674,67.026628)"
       clip-path="url(#clipPath18)" />
    <path
       id="path19"
       d="m 0,0 -0.16,-1.6 -0.32,-1.76 -0.64,-1.6 -0.8,-1.6 L -2.88,-8 -4,-9.28 l -1.28,-1.12 -1.44,-0.96 -1.44,-0.8 -1.76,-0.48 -1.6,-0.32 -1.76,-0.16 -1.76,0.16 -1.599999,0.32 -1.760001,0.48 -1.44,0.8 -1.440001,0.96 -1.279998,1.12 L -23.84,-8 l -0.959999,1.44 -0.640002,1.6 L -26.08,-3.36 -26.4,-1.6 -26.559999,0 -26.4,1.76 l 0.32,1.76 0.639999,1.6 0.640002,1.6 0.959999,1.44 1.280001,1.28 1.279998,1.12 1.440001,0.96 1.44,0.8 1.760001,0.48 1.599999,0.32 1.76,0.16 1.76,-0.16 1.6,-0.32 1.76,-0.48 1.44,-0.8 1.44,-0.96 L -4,9.44 -2.88,8.16 -1.92,6.72 -1.12,5.12 -0.48,3.52 -0.16,1.76 0,0"
       style="fill:none;stroke:#000000;stroke-width:0.64;stroke-linecap:round;stroke-linejoin:round;stroke-miterlimit:10;stroke-dasharray:none;stroke-opacity:1"
       transform="translate(150.34666,67.026628)"
       clip-path="url(#clipPath20)" />
    <path
       id="path21"
       d="M 0,0 -0.16,-1.6 -0.48,-3.36 -1.12,-4.96 -1.76,-6.56 -2.72,-8 -4,-9.28 l -1.28,-1.12 -1.44,-0.96 -1.44,-0.8 -1.76,-0.48 -1.6,-0.32 -1.76,-0.16 -1.76,0.16 -1.599999,0.32 -1.760001,0.48 -1.44,0.8 -1.440001,0.96 -1.279998,1.12 L -23.84,-8 l -0.959999,1.44 -0.640002,1.6 L -26.08,-3.36 -26.4,-1.6 -26.559999,0 -26.4,1.76 l 0.32,1.76 0.639999,1.6 0.640002,1.6 0.959999,1.44 1.280001,1.28 1.279998,1.12 1.440001,0.96 1.44,0.8 1.760001,0.48 1.599999,0.32 1.76,0.16 1.76,-0.16 1.6,-0.32 1.76,-0.48 1.44,-0.8 1.44,-0.96 L -4,9.44 -2.72,8.16 -1.76,6.72 -1.12,5.12 -0.48,3.52 -0.16,1.76 0,0"
       style="fill:none;stroke:#000000;stroke-width:0.64;stroke-linecap:round;stroke-linejoin:round;stroke-miterlimit:10;stroke-dasharray:none;stroke-opacity:1"
       transform="translate(74.826674,142.54659)"
       clip-path="url(#clipPath22)" />
    <path
       id="path23"
       d="m 0,0 -0.16,-1.6 -0.32,-1.76 -0.64,-1.6 -0.8,-1.6 L -2.88,-8 -4,-9.28 l -1.28,-1.12 -1.44,-0.96 -1.44,-0.8 -1.76,-0.48 -1.6,-0.32 -1.76,-0.16 -1.76,0.16 -1.599999,0.32 -1.760001,0.48 -1.44,0.8 -1.440001,0.96 -1.279998,1.12 L -23.84,-8 l -0.959999,1.44 -0.640002,1.6 L -26.08,-3.36 -26.4,-1.6 -26.559999,0 -26.4,1.76 l 0.32,1.76 0.639999,1.6 0.640002,1.6 0.959999,1.44 1.280001,1.28 1.279998,1.12 1.440001,0.96 1.44,0.8 1.760001,0.48 1.599999,0.32 1.76,0.16 1.76,-0.16 1.6,-0.32 1.76,-0.48 1.44,-0.8 1.44,-0.96 L -4,9.44 -2.88,8.16 -1.92,6.72 -1.12,5.12 -0.48,3.52 -0.16,1.76 0,0"
       style="fill:none;stroke:#000000;stroke-width:0.64;stroke-linecap:round;stroke-linejoin:round;stroke-miterlimit:10;stroke-dasharray:none;stroke-opacity:1"
       transform="translate(150.34666,142.54659)"
       clip-path="url(#clipPath24)" />
    <path
       id="path25"
       d="m 0,0 -0.16,-1.6 -0.32,-1.76 -0.64,-1.6 -0.8,-1.6 L -2.88,-8 -4,-9.28 l -1.28,-1.12 -1.44,-0.96 -1.44,-0.8 -1.76,-0.48 -1.6,-0.32 -1.76,-0.16 -1.76,0.16 -1.599999,0.32 -1.760001,0.48 -1.44,0.8 -1.440001,0.96 -1.279998,1.12 L -23.84,-8 l -0.959999,1.44 -0.640002,1.6 L -26.08,-3.36 -26.4,-1.6 -26.559999,0 -26.4,1.76 l 0.32,1.76 0.639999,1.6 0.640002,1.6 0.959999,1.44 1.280001,1.28 1.279998,1.12 1.440001,0.96 1.44,0.8 1.760001,0.48 1.599999,0.32 1.76,0.16 1.76,-0.16 1.6,-0.32 1.76,-0.48 1.44,-0.8 1.44,-0.96 L -4,9.44 -2.88,8.16 -1.92,6.72 -1.12,5.12 -0.48,3.52 -0.16,1.76 0,0"
       style="fill:none;stroke:#000000;stroke-width:0.64;stroke-linecap:round;stroke-linejoin:round;stroke-miterlimit:10;stroke-dasharray:none;stroke-opacity:1"
       transform="translate(225.86665,67.026628)"
       clip-path="url(#clipPath26)" />
    <path
       id="path27"
       d="m 0,0 v -1.6 l -0.32,-1.76 -0.64,-1.6 -0.8,-1.6 -0.96,-1.44 -1.12,-1.28 -1.28,-1.12 -1.44,-0.96 -1.6,-0.8 -1.6,-0.48 -1.6,-0.32 -1.76,-0.16 -1.76,0.16 -1.6,0.32 -1.76,0.48 -1.44,0.8 -1.440001,0.96 -1.439998,1.12 L -23.68,-8 l -0.959999,1.44 -0.640002,1.6 -0.639999,1.6 -0.32,1.76 -0.16,1.6 0.16,1.76 0.32,1.76 0.639999,1.6 0.640002,1.6 0.959999,1.44 1.120001,1.28 1.439998,1.12 1.440001,0.96 1.44,0.8 1.76,0.48 1.6,0.32 1.76,0.16 1.76,-0.16 1.6,-0.32 1.6,-0.48 1.6,-0.8 1.44,-0.96 1.28,-1.12 1.12,-1.28 0.96,-1.44 0.8,-1.6 0.64,-1.6 L 0,1.76 V 0"
       style="fill:none;stroke:#000000;stroke-width:0.64;stroke-linecap:round;stroke-linejoin:round;stroke-miterlimit:10;stroke-dasharray:none;stroke-opacity:1"
       transform="translate(301.22664,67.026628)"
       clip-path="url(#clipPath28)" />
    <path
       id="path29"
       d="m 0,0 -0.16,-1.6 -0.32,-1.76 -0.64,-1.6 -0.8,-1.6 L -2.88,-8 -4,-9.28 l -1.28,-1.12 -1.44,-0.96 -1.44,-0.8 -1.76,-0.48 -1.6,-0.32 -1.76,-0.16 -1.76,0.16 -1.599999,0.32 -1.760001,0.48 -1.44,0.8 -1.440001,0.96 -1.279998,1.12 L -23.84,-8 l -0.959999,1.44 -0.640002,1.6 L -26.08,-3.36 -26.4,-1.6 -26.559999,0 -26.4,1.76 l 0.32,1.76 0.639999,1.6 0.640002,1.6 0.959999,1.44 1.280001,1.28 1.279998,1.12 1.440001,0.96 1.44,0.8 1.760001,0.48 1.599999,0.32 1.76,0.16 1.76,-0.16 1.6,-0.32 1.76,-0.48 1.44,-0.8 1.44,-0.96 L -4,9.44 -2.88,8.16 -1.92,6.72 -1.12,5.12 -0.48,3.52 -0.16,1.76 0,0"
       style="fill:none;stroke:#000000;stroke-width:0.64;stroke-linecap:round;stroke-linejoin:round;stroke-miterlimit:10;stroke-dasharray:none;stroke-opacity:1"
       transform="translate(225.86665,142.54659)"
       clip-path="url(#clipPath30)" />
    <path
       id="path31"
       d="m 0,0 v -1.6 l -0.32,-1.76 -0.64,-1.6 -0.8,-1.6 -0.96,-1.44 -1.12,-1.28 -1.28,-1.12 -1.44,-0.96 -1.6,-0.8 -1.6,-0.48 -1.6,-0.32 -1.76,-0.16 -1.76,0.16 -1.6,0.32 -1.76,0.48 -1.44,0.8 -1.440001,0.96 -1.439998,1.12 L -23.68,-8 l -0.959999,1.44 -0.640002,1.6 -0.639999,1.6 -0.32,1.76 -0.16,1.6 0.16,1.76 0.32,1.76 0.639999,1.6 0.640002,1.6 0.959999,1.44 1.120001,1.28 1.439998,1.12 1.440001,0.96 1.44,0.8 1.76,0.48 1.6,0.32 1.76,0.16 1.76,-0.16 1.6,-0.32 1.6,-0.48 1.6,-0.8 1.44,-0.96 1.28,-1.12 1.12,-1.28 0.96,-1.44 0.8,-1.6 0.64,-1.6 L 0,1.76 V 0"
       style="fill:none;stroke:#000000;stroke-width:0.64;stroke-linecap:round;stroke-linejoin:round;stroke-miterlimit:10;stroke-dasharray:none;stroke-opacity:1"
       transform="translate(301.22664,142.54659)"
       clip-path="url(#clipPath32)" />
    <path
       id="path33"
       d="M 321.28,485.92001 H 623.35998 V 636.79999 H 321.28 V 485.92001"
       style="fill:none;stroke:#000000;stroke-width:26.4;stroke-linecap:round;stroke-linejoin:round;stroke-miterlimit:10;stroke-dasharray:none;stroke-opacity:1"
       transform="translate(-297.49333,-456.49339)"
       clip-path="url(#clipPath34)" />
  </g>
</svg>
