<?xml version="1.0" encoding="UTF-8" standalone="no"?>
<!-- Created with Inkscape (http://www.inkscape.org/) -->

<svg
   version="1.1"
   id="svg1"
   width="176.09332"
   height="201.54668"
   viewBox="0 0 176.09332 201.54668"
   sodipodi:docname="Calx8.pdf"
   xmlns:inkscape="http://www.inkscape.org/namespaces/inkscape"
   xmlns:sodipodi="http://sodipodi.sourceforge.net/DTD/sodipodi-0.dtd"
   xmlns="http://www.w3.org/2000/svg"
   xmlns:svg="http://www.w3.org/2000/svg">
  <defs
     id="defs1">
    <clipPath
       clipPathUnits="userSpaceOnUse"
       id="clipPath2">
      <path
         d="M 26.4,26.559999 V 1096.16 H 767.03998 V 26.559999 Z"
         transform="translate(-415.35999,-486.88)"
         clip-rule="evenodd"
         id="path2" />
    </clipPath>
    <clipPath
       clipPathUnits="userSpaceOnUse"
       id="clipPath4">
      <path
         d="M 26.4,26.559999 V 1096.16 H 767.03998 V 26.559999 Z"
         clip-rule="evenodd"
         id="path4" />
    </clipPath>
  </defs>
  <sodipodi:namedview
     id="namedview1"
     pagecolor="#505050"
     bordercolor="#eeeeee"
     borderopacity="1"
     inkscape:showpageshadow="0"
     inkscape:pageopacity="0"
     inkscape:pagecheckerboard="0"
     inkscape:deskcolor="#505050">
    <inkscape:page
       x="0"
       y="0"
       inkscape:label="1"
       id="page1"
       width="176.09332"
       height="201.54668"
       margin="0"
       bleed="0" />
  </sodipodi:namedview>
  <g
     id="g1"
     inkscape:groupmode="layer"
     inkscape:label="1">
    <path
       id="path1"
       d="m 0,0 -6.72,-0.64 -6.88,-0.32 h -6.88 l -7.04,0.16 -6.720002,0.48 -6.879997,0.8 -6.720001,1.12 -6.560002,1.28 -6.559997,1.6 -6.239998,1.76 -6.080002,2.08 -6.080002,2.4 -5.599998,2.56 -5.440003,2.88 -5.279998,3.040001 -4.96,3.199999 -4.48,3.36 -4.32,3.680001 -4,3.679998 -3.52,4 -3.2,4 -2.88,4.16 -2.56,4.319999 -2.08,4.480004 -1.6,4.479999 -1.28,4.48 -0.8,4.479996 -0.48,4.640007 v 4.639999 l 0.48,4.639999 0.8,4.479996 1.28,4.480004 1.6,4.479995 2.08,4.480004 2.56,4.159999 2.88,4.32 3.2,4 3.52,4 4,3.68 4.32,3.68 4.48,3.36 4.96,3.19999 5.279998,3.04001 5.440003,2.87999 5.599998,2.56001 6.080002,2.4 6.080002,2.08 6.239998,1.76 6.559997,1.6 6.560002,1.28 6.720001,1.12 6.879997,0.8 6.720002,0.47999 7.04,0.16001 h 6.88 l 6.88,-0.31999 6.72,-0.64"
       style="fill:none;stroke:#000000;stroke-width:26.4;stroke-linecap:round;stroke-linejoin:round;stroke-miterlimit:10;stroke-dasharray:none;stroke-opacity:1"
       transform="translate(415.35999,481.54661)"
       clip-path="url(#clipPath2)" />
    <path
       id="path3"
       d="M 321.28,504.79999 396.79999,561.28003 321.28,617.91998"
       style="fill:none;stroke:#000000;stroke-width:26.4;stroke-linecap:round;stroke-linejoin:round;stroke-miterlimit:10;stroke-dasharray:none;stroke-opacity:1"
       transform="translate(0,-5.333392)"
       clip-path="url(#clipPath4)" />
  </g>
</svg>
