<?xml version="1.0" encoding="UTF-8" standalone="no"?>
<!-- Created with Inkscape (http://www.inkscape.org/) -->

<svg
   version="1.1"
   id="svg1"
   width="360.18668"
   height="327.02667"
   viewBox="0 0 360.18668 327.02667"
   sodipodi:docname="Calx13.pdf"
   xmlns:inkscape="http://www.inkscape.org/namespaces/inkscape"
   xmlns:sodipodi="http://sodipodi.sourceforge.net/DTD/sodipodi-0.dtd"
   xmlns="http://www.w3.org/2000/svg"
   xmlns:svg="http://www.w3.org/2000/svg">
  <defs
     id="defs1">
    <clipPath
       clipPathUnits="userSpaceOnUse"
       id="clipPath2">
      <path
         d="M 26.4,26.559999 V 1096.16 H 767.03998 V 26.559999 Z"
         transform="translate(-3.3333333e-6)"
         clip-rule="evenodd"
         id="path2" />
    </clipPath>
    <clipPath
       clipPathUnits="userSpaceOnUse"
       id="clipPath4">
      <path
         d="M 26.4,26.559999 V 1096.16 H 767.03998 V 26.559999 Z"
         transform="translate(-3.3333333e-6)"
         clip-rule="evenodd"
         id="path4" />
    </clipPath>
    <clipPath
       clipPathUnits="userSpaceOnUse"
       id="clipPath6">
      <path
         d="M 26.4,26.559999 V 1096.16 H 767.03998 V 26.559999 Z"
         transform="translate(-3.3333333e-6)"
         clip-rule="evenodd"
         id="path6" />
    </clipPath>
    <clipPath
       clipPathUnits="userSpaceOnUse"
       id="clipPath8">
      <path
         d="M 26.4,26.559999 V 1096.16 H 767.03998 V 26.559999 Z"
         transform="translate(-321.28,-485.92001)"
         clip-rule="evenodd"
         id="path8" />
    </clipPath>
    <clipPath
       clipPathUnits="userSpaceOnUse"
       id="clipPath10">
      <path
         d="M 26.4,26.559999 V 1096.16 H 767.03998 V 26.559999 Z"
         transform="translate(-321.28,-485.92001)"
         clip-rule="evenodd"
         id="path10" />
    </clipPath>
    <clipPath
       clipPathUnits="userSpaceOnUse"
       id="clipPath12">
      <path
         d="M 26.4,26.559999 V 1096.16 H 767.03998 V 26.559999 Z"
         transform="translate(-547.84002,-485.92001)"
         clip-rule="evenodd"
         id="path12" />
    </clipPath>
  </defs>
  <sodipodi:namedview
     id="namedview1"
     pagecolor="#505050"
     bordercolor="#eeeeee"
     borderopacity="1"
     inkscape:showpageshadow="0"
     inkscape:pageopacity="0"
     inkscape:pagecheckerboard="0"
     inkscape:deskcolor="#505050">
    <inkscape:page
       x="0"
       y="0"
       inkscape:label="1"
       id="page1"
       width="360.18668"
       height="327.02667"
       margin="0"
       bleed="0" />
  </sodipodi:namedview>
  <g
     id="g1"
     inkscape:groupmode="layer"
     inkscape:label="1">
    <path
       id="path1"
       d="M 396.79999,561.28003 V 712.32001"
       style="fill:none;stroke:#000000;stroke-width:26.4;stroke-linecap:round;stroke-linejoin:round;stroke-miterlimit:10;stroke-dasharray:none;stroke-opacity:1"
       transform="translate(-213.45333,-412.45339)"
       clip-path="url(#clipPath2)" />
    <path
       id="path3"
       d="M 321.28,617.91998 H 472.32001"
       style="fill:none;stroke:#000000;stroke-width:26.4;stroke-linecap:round;stroke-linejoin:round;stroke-miterlimit:10;stroke-dasharray:none;stroke-opacity:1"
       transform="translate(-213.45333,-412.45339)"
       clip-path="url(#clipPath4)" />
    <path
       id="path5"
       d="M 321.28,674.56 H 472.32001"
       style="fill:none;stroke:#000000;stroke-width:26.4;stroke-linecap:round;stroke-linejoin:round;stroke-miterlimit:10;stroke-dasharray:none;stroke-opacity:1"
       transform="translate(-213.45333,-412.45339)"
       clip-path="url(#clipPath6)" />
    <path
       id="path7"
       d="M 0,0 0.16,5.28 0.8,10.72 1.76,16 3.04,21.120001 4.8,26.24 6.88,31.360001 9.28,36.16 12,40.799999 l 3.04,4.32 3.36,4.32 3.68,3.84 4,3.68 4.16,3.360001 4.480001,3.2 4.64,2.719998 4.799999,2.400001 4.959999,2.080002 5.120003,1.599999 5.279998,1.440002 5.280003,0.959999 5.279999,0.479996 5.439995,0.160004 5.440002,-0.160004 5.279999,-0.479996 5.279999,-0.959999 L 96.800003,72.32 101.92,70.720001 l 4.96,-2.080002 4.8,-2.400001 4.64,-2.719998 4.48,-3.2 4.16,-3.360001 4.00001,-3.68 3.67999,-3.84 3.36,-4.32 3.03999,-4.32 2.72,-4.639999 L 144.16,31.360001 146.24,26.24 148,21.120001 149.28,16 150.24,10.72 150.88,5.28 151.03999,0"
       style="fill:none;stroke:#000000;stroke-width:26.4;stroke-linecap:round;stroke-linejoin:round;stroke-miterlimit:10;stroke-dasharray:none;stroke-opacity:1"
       transform="translate(107.82667,73.466621)"
       clip-path="url(#clipPath8)" />
    <path
       id="path9"
       d="M 0,0 -0.16,-3.52 -0.64,-7.04 -1.44,-10.4 -2.56,-13.76 -4,-16.959999 -5.6,-20 -7.68,-22.879999 -9.92,-25.440001 -12.32,-28 l -2.72,-2.24 -2.88,-1.92 -3.039999,-1.759998 -3.200001,-1.440003 -3.200001,-0.959999 -3.519998,-0.799999 -3.360003,-0.479999 -3.519996,-0.16 -3.520001,0.16 -3.36,0.479999 L -48.16,-36.32 l -3.200001,0.959999 -3.2,1.440003 -3.039997,1.759998 -2.880002,1.92 -2.720001,2.24 -2.399997,2.559999 -2.239998,2.560002 -2.080002,2.879999 -1.599999,3.040001 -1.440002,3.199999 -1.120003,3.36 -0.799995,3.36 -0.480004,3.52 -0.159996,3.52"
       style="fill:none;stroke:#000000;stroke-width:26.4;stroke-linecap:round;stroke-linejoin:round;stroke-miterlimit:10;stroke-dasharray:none;stroke-opacity:1"
       transform="translate(107.82667,73.466621)"
       clip-path="url(#clipPath10)" />
    <path
       id="path11"
       d="M 0,0 -0.16,-3.52 -0.64,-7.04 -1.44,-10.4 -2.56,-13.76 -4,-16.959999 -5.6,-20 -7.68,-22.879999 -9.92,-25.440001 -12.32,-28 l -2.72,-2.24 -2.88,-1.92 -3.039999,-1.759998 -3.200001,-1.440003 -3.36,-0.959999 -3.359999,-0.799999 -3.360003,-0.479999 -3.519996,-0.16 -3.520001,0.16 -3.36,0.479999 L -48.16,-36.32 l -3.200001,0.959999 -3.2,1.440003 -3.039997,1.759998 -2.880002,1.92 -2.720001,2.24 -2.399997,2.559999 -2.239998,2.560002 -2.080002,2.879999 -1.599999,3.040001 -1.440002,3.199999 -1.120003,3.36 -0.799995,3.36 -0.480004,3.52 -0.159996,3.52"
       style="fill:none;stroke:#000000;stroke-width:26.4;stroke-linecap:round;stroke-linejoin:round;stroke-miterlimit:10;stroke-dasharray:none;stroke-opacity:1"
       transform="translate(334.38669,73.466621)"
       clip-path="url(#clipPath12)" />
  </g>
</svg>
