<?xml version="1.0" encoding="UTF-8" standalone="no"?>
<!-- Created with Inkscape (http://www.inkscape.org/) -->

<svg
   version="1.1"
   id="svg1"
   width="448.23999"
   height="282.98666"
   viewBox="0 0 448.23999 282.98666"
   sodipodi:docname="CaputMortuum11.pdf"
   xmlns:inkscape="http://www.inkscape.org/namespaces/inkscape"
   xmlns:sodipodi="http://sodipodi.sourceforge.net/DTD/sodipodi-0.dtd"
   xmlns="http://www.w3.org/2000/svg"
   xmlns:svg="http://www.w3.org/2000/svg">
  <defs
     id="defs1">
    <clipPath
       clipPathUnits="userSpaceOnUse"
       id="clipPath2">
      <path
         d="M 0,0.16 V 1122.5601 H 793.59998 V 0.16 Z"
         clip-rule="evenodd"
         id="path2" />
    </clipPath>
    <clipPath
       clipPathUnits="userSpaceOnUse"
       id="clipPath4">
      <path
         d="M 0,0.16 V 1122.5601 H 793.59998 V 0.16 Z"
         clip-rule="evenodd"
         id="path4" />
    </clipPath>
    <clipPath
       clipPathUnits="userSpaceOnUse"
       id="clipPath6">
      <path
         d="M 0,0.16 V 1122.5601 H 793.59998 V 0.16 Z"
         clip-rule="evenodd"
         id="path6" />
    </clipPath>
    <clipPath
       clipPathUnits="userSpaceOnUse"
       id="clipPath8">
      <path
         d="M 0,0.16 V 1122.5601 H 793.59998 V 0.16 Z"
         clip-rule="evenodd"
         id="path8" />
    </clipPath>
    <clipPath
       clipPathUnits="userSpaceOnUse"
       id="clipPath10">
      <path
         d="M 0,0.16 V 1122.5601 H 793.59998 V 0.16 Z"
         transform="translate(-579.84003,-557.44001)"
         clip-rule="evenodd"
         id="path10" />
    </clipPath>
    <clipPath
       clipPathUnits="userSpaceOnUse"
       id="clipPath12">
      <path
         d="M 0,0.16 V 1122.5601 H 793.59998 V 0.16 Z"
         transform="translate(-516,-676.64002)"
         clip-rule="evenodd"
         id="path12" />
    </clipPath>
    <clipPath
       clipPathUnits="userSpaceOnUse"
       id="clipPath14">
      <path
         d="M 0,0.16 V 1122.5601 H 793.59998 V 0.16 Z"
         transform="translate(-524.96002,-558.71998)"
         clip-rule="evenodd"
         id="path14" />
    </clipPath>
  </defs>
  <sodipodi:namedview
     id="namedview1"
     pagecolor="#505050"
     bordercolor="#eeeeee"
     borderopacity="1"
     inkscape:showpageshadow="0"
     inkscape:pageopacity="0"
     inkscape:pagecheckerboard="0"
     inkscape:deskcolor="#505050">
    <inkscape:page
       x="0"
       y="0"
       inkscape:label="1"
       id="page1"
       width="448.23999"
       height="282.98666"
       margin="0"
       bleed="0" />
  </sodipodi:namedview>
  <g
     id="g1"
     inkscape:groupmode="layer"
     inkscape:label="1">
    <path
       id="path1"
       d="M 426.23999,450.07999 255.36,620.15997"
       style="fill:none;stroke:#000000;stroke-width:26.4;stroke-linecap:round;stroke-linejoin:round;stroke-miterlimit:10;stroke-dasharray:none;stroke-opacity:1"
       transform="translate(0,1.3332747)"
       clip-path="url(#clipPath2)" />
    <path
       id="path3"
       d="M 198.39999,564.79999 251.52,619.35998"
       style="fill:none;stroke:#000000;stroke-width:26.4;stroke-linecap:round;stroke-linejoin:round;stroke-miterlimit:10;stroke-dasharray:none;stroke-opacity:1"
       transform="translate(0,1.3332747)"
       clip-path="url(#clipPath4)" />
    <path
       id="path5"
       d="M 312.32001,448.48001 424.79999,561.59998"
       style="fill:none;stroke:#000000;stroke-width:26.4;stroke-linecap:round;stroke-linejoin:round;stroke-miterlimit:10;stroke-dasharray:none;stroke-opacity:1"
       transform="translate(0,1.3332747)"
       clip-path="url(#clipPath6)" />
    <path
       id="path7"
       d="M 426.23999,562.40002 540.32001,450.07999"
       style="fill:none;stroke:#000000;stroke-width:26.4;stroke-linecap:round;stroke-linejoin:round;stroke-miterlimit:10;stroke-dasharray:none;stroke-opacity:1"
       transform="translate(0,1.3332747)"
       clip-path="url(#clipPath8)" />
    <path
       id="path9"
       d="m 0,0 0.8,-4.96 0.64,-5.28 0.48,-5.28 0.32,-5.439999 0.32,-5.6 V -32 -37.599998 l -0.32,-5.440003 -0.32,-5.599998 -0.64,-5.279999 -0.64,-5.280003 -0.8,-5.280002 -0.96,-4.959999 -1.12,-4.799996 -1.28,-4.639999 -1.28,-4.32 -1.44,-4.160004 -1.6,-3.839996 -1.76,-3.68 -1.76,-3.200005 -1.92,-2.879998 -1.92,-2.72 -1.920001,-2.24 -2.08,-1.76 -2.08,-1.6 -2.08,-1.12 -2.239999,-0.64 -2.08,-0.48 -2.24,0.16 -2.08,0.32 -2.080002,0.96 -2.079998,1.12 -2.080002,1.6 -2.079998,2.08 -1.920002,2.24 -1.919998,2.72 -1.759998,3.040001 -1.600002,3.360001 -1.599999,3.519996 -1.600002,4 -1.279999,4.160004 -1.279999,4.479996 -1.120003,4.639999 -0.959999,4.959999 -0.959999,4.960003 -0.639999,5.119999 -0.48,5.440003 -0.479999,5.439998 -0.320004,5.440003 v 5.439998 5.600001 l 0.16,5.439998 0.320004,5.600001 0.639999,5.44 0.639999,5.28 0.8,5.12 0.799999,5.12"
       style="fill:none;stroke:#000000;stroke-width:26.4;stroke-linecap:round;stroke-linejoin:round;stroke-miterlimit:10;stroke-dasharray:none;stroke-opacity:1"
       transform="translate(579.84003,558.77328)"
       clip-path="url(#clipPath10)" />
    <path
       id="path11"
       d="m 0,0 6.56,-4.96 6.24,-5.44 5.919999,-5.6 5.600001,-6.08 5.28,-6.24 5.120001,-6.560001 4.48,-6.719997 L 43.52,-48.639999 47.360001,-56 l 3.52,-7.360001 3.039997,-7.68 2.720001,-7.68 2.240002,-8 1.919998,-8 1.440003,-7.999999 0.959999,-8.16 0.639999,-8.32"
       style="fill:none;stroke:#000000;stroke-width:26.4;stroke-linecap:round;stroke-linejoin:round;stroke-miterlimit:10;stroke-dasharray:none;stroke-opacity:1"
       transform="translate(516,677.97329)"
       clip-path="url(#clipPath12)" />
    <path
       id="path13"
       d="m 0,0 -0.16,5.44 v 5.6 l 0.48,5.44 0.96,5.44 1.28,5.440001 1.6,5.279998 2.08,5.119999 2.4,4.960003 2.72,4.799999 3.04,4.64 3.36,4.32 3.680001,4.159999 4,3.840004 L 29.76,68 l 4.480002,3.199997 4.639999,2.880005 4.959999,2.559997 5.119999,2.239998 5.120003,1.920006 L 59.52,82.239998 64.800003,83.199997 70.400002,84"
       style="fill:none;stroke:#000000;stroke-width:26.4;stroke-linecap:round;stroke-linejoin:round;stroke-miterlimit:10;stroke-dasharray:none;stroke-opacity:1"
       transform="translate(524.96002,560.05325)"
       clip-path="url(#clipPath14)" />
  </g>
</svg>
