<?xml version="1.0" encoding="UTF-8" standalone="no"?>
<!-- Created with Inkscape (http://www.inkscape.org/) -->

<svg
   version="1.1"
   id="svg1"
   width="326.84"
   height="353.72"
   viewBox="0 0 326.84 353.72"
   sodipodi:docname="CaputMortuum2.pdf"
   xmlns:inkscape="http://www.inkscape.org/namespaces/inkscape"
   xmlns:sodipodi="http://sodipodi.sourceforge.net/DTD/sodipodi-0.dtd"
   xmlns="http://www.w3.org/2000/svg"
   xmlns:svg="http://www.w3.org/2000/svg">
  <defs
     id="defs1">
    <clipPath
       clipPathUnits="userSpaceOnUse"
       id="clipPath2">
      <path
         d="M 0,0.16 V 1122.5601 H 793.59998 V 0.16 Z"
         transform="translate(-482.07999,-510.56)"
         clip-rule="evenodd"
         id="path2" />
    </clipPath>
    <clipPath
       clipPathUnits="userSpaceOnUse"
       id="clipPath4">
      <path
         d="M 0,0.16 V 1122.5601 H 793.59998 V 0.16 Z"
         transform="translate(-265.44,-660)"
         clip-rule="evenodd"
         id="path4" />
    </clipPath>
    <clipPath
       clipPathUnits="userSpaceOnUse"
       id="clipPath6">
      <path
         d="M 0,0.16 V 1122.5601 H 793.59998 V 0.16 Z"
         transform="translate(-364.95999,-474.07999)"
         clip-rule="evenodd"
         id="path6" />
    </clipPath>
    <clipPath
       clipPathUnits="userSpaceOnUse"
       id="clipPath8">
      <path
         d="M 0,0.16 V 1122.5601 H 793.59998 V 0.16 Z"
         transform="translate(-441.44,-474.72)"
         clip-rule="evenodd"
         id="path8" />
    </clipPath>
    <clipPath
       clipPathUnits="userSpaceOnUse"
       id="clipPath10">
      <path
         d="M 0,0.16 V 1122.5601 H 793.59998 V 0.16 Z"
         transform="translate(-402.23999,-549.11999)"
         clip-rule="evenodd"
         id="path10" />
    </clipPath>
    <clipPath
       clipPathUnits="userSpaceOnUse"
       id="clipPath12">
      <path
         d="M 0,0.16 V 1122.5601 H 793.59998 V 0.16 Z"
         transform="translate(-364.95999,-474.07999)"
         clip-rule="evenodd"
         id="path12" />
    </clipPath>
    <clipPath
       clipPathUnits="userSpaceOnUse"
       id="clipPath14">
      <path
         d="M 0,0.16 V 1122.5601 H 793.59998 V 0.16 Z"
         transform="translate(-441.44,-474.72)"
         clip-rule="evenodd"
         id="path14" />
    </clipPath>
    <clipPath
       clipPathUnits="userSpaceOnUse"
       id="clipPath16">
      <path
         d="M 0,0.16 V 1122.5601 H 793.59998 V 0.16 Z"
         transform="translate(-402.23999,-549.11999)"
         clip-rule="evenodd"
         id="path16" />
    </clipPath>
  </defs>
  <sodipodi:namedview
     id="namedview1"
     pagecolor="#505050"
     bordercolor="#eeeeee"
     borderopacity="1"
     inkscape:showpageshadow="0"
     inkscape:pageopacity="0"
     inkscape:pagecheckerboard="0"
     inkscape:deskcolor="#505050">
    <inkscape:page
       x="0"
       y="0"
       inkscape:label="1"
       id="page1"
       width="326.84"
       height="353.72"
       margin="0"
       bleed="0" />
  </sodipodi:namedview>
  <g
     id="g1"
     inkscape:groupmode="layer"
     inkscape:label="1">
    <path
       id="path1"
       d="M 0,0 C 0,-51.419998 -41.689999,-93.120003 -93.120003,-93.120003 -144.55,-93.120003 -186.24,-51.419998 -186.24,0 c 0,51.419998 41.69,93.120003 93.119997,93.120003 C -41.689999,93.120003 0,51.419998 0,0 Z"
       style="fill:none;stroke:#000000;stroke-width:26.4;stroke-linecap:round;stroke-linejoin:round;stroke-miterlimit:10;stroke-dasharray:none;stroke-opacity:1"
       transform="translate(482.07999,502.54661)"
       clip-path="url(#clipPath2)" />
    <path
       id="path3"
       d="M 0,0 0.32,-0.32 1.28,-1.44 3.68,-3.2 6.08,-4.64 8,-5.28 8.48,-5.44 9.76,-5.6 H 12 l 2.4,0.32 2.399999,0.48 0.320002,0.16 L 18.4,-4.32 22.559999,-3.2 25.92,-2.56 H 26.4 L 28,-2.4 h 3.68 l 3.680001,-0.32 2.239997,-0.32 0.640004,-0.16 1.919998,-0.48 4,-1.28 4.32,-1.6 3.36,-1.44 0.959999,-0.32 2.560002,-0.96 4.799999,-1.92 5.119999,-2.08 5.599998,-2.4 0.959999,-0.32 1.120003,-0.48 3.520004,-1.44 7.359993,-2.879999 6.080002,-2.400002 5.760002,-2.24 0.959999,-0.319999 3.199997,-1.119999 4.800004,-1.76 6.24,-1.760001 2.72,-0.640001 2.88,-0.639999 1.12,-0.16 3.84,-0.64 5.44,-0.799999 7.04,-0.800003 8.96,-0.959999 1.28,-0.16 3.51999,-0.319999 5.28002,-0.64 4.95999,-0.639999 4.96,-0.64 1.44001,-0.159999 0.95999,-0.16 2.56,-0.480004 4.96,-0.799999 4.48,-0.639999 2.88,-0.32 0.64,-0.16 1.92,-0.16 3.52,-0.479999 2.72001,-0.48 1.91999,-0.639999 0.32,-0.160004 0.96,-0.639999 L 193.60001,-44 195.36,-45.919998 197.11999,-47.68 197.44,-48 l 1.28,-0.959999 2.56,-1.600002 3.2,-1.599999 2.4,-1.119999 0.48,-0.16 1.60001,-0.640003 3.51999,-0.959999 1.76,-0.32 3.2,-0.319999 h 0.64 2.08 l 3.36,0.319999 3.84,0.8 4,1.280002 h 0.31999 l 0.80001,0.32 2.08,0.959999 3.36,1.919998 3.52,2.400002 2.88001,2.240001 0.47999,0.32 1.44,1.439999 2.87999,2.720001 3.20002,3.52 0.79998,1.119999 0.48002,0.64 1.11999,1.599998 2.72,4.000002 2.07999,4.32 0.80002,1.76 0.16,0.639999 0.63999,2.08 0.64001,3.680001 0.31998,3.68 -0.15998,4 v 0.64 l -0.16,0.8 -0.32001,2.56 -0.95999,4.48 -1.28,4.32 -1.76001,3.36 -0.16,0.48 -0.48001,0.64 -1.27999,1.92 -2.08,2.08 -2.40001,1.92 -2.55999,1.6 -2.56,1.12 -0.64,0.32 -2.24001,0.639999 L 239.52,17.76 l -3.68,0.32 h -4 l -0.96,-0.16 h -0.8 L 227.67999,17.6 223.52,16.639999 219.2,15.2 215.03999,13.6 214.24,13.28 212,12.16 205.28,9.12 202.08,7.68 198.72,6.56 197.92,6.24 195.36,5.44 190.56,4.32 185.60001,3.68 181.44,3.52 h -0.8 l -2.4,0.16 -4.96,0.32 -2.56,0.48 -4.64,0.64 -2.88,0.48 -1.12,0.16 -3.68001,0.48 -4.95999,0.8 -6.56,0.96 -5.12001,0.96 -4.64,0.8 -1.27999,0.16 -3.51999,0.8 -4.64001,0.96 -4.32,1.28 -4.48,1.28 -2.24,0.8 -0.96,0.32 -2.4,0.8 -4.48,1.76 -4.16,1.92 -2.56,1.280001 -0.64,0.32 L 99.839996,22.4 96.160004,24.639999 91.68,27.52 l -0.319999,0.32 -0.64,0.48 -1.599998,1.28 -3.680001,3.199999 -4.480003,4.32 -0.479996,0.479999 -1.280006,1.440003 -2.719994,3.040001 -2.720001,3.039997 -0.639999,0.639999 -0.480004,0.320004 -1.120002,0.959999 -2.399994,1.759998 -2.560005,1.119999 -1.919999,0.480004 L 64,50.560001 l -1.599998,0.16 H 59.68 l -3.040001,-0.319999 -3.2,-0.800004 -1.119999,-0.479999 -0.8,-0.16 L 49.439999,48 45.759998,46.240002 41.439999,43.84 37.759998,41.599998 36.959999,41.119999 35.040001,39.84 31.68,37.439999 l -2.880001,-2.079998 -2.08,-1.440003 -0.319999,-0.32 -1.119999,-0.959999 -1.92,-1.279998 L 20.959999,30.08 19.52,29.440001 H 19.040001 L 17.6,29.120001 14.88,28.639999 11.2,28.32 9.6,28.16 9.28,28 H 8 L 5.76,27.52 3.68,26.559999 2.24,25.6 1.92,25.280001 0.96,24.16 -0.64,22.24 -2.24,19.68 -3.68,16.639999 -3.84,16.16 -4.16,14.88 -4.64,12.64 V 10.56 L -4.32,8.16 -4.16,7.68 -3.84,6.4 -2.56,3.84 -0.96,1.28 0,0"
       style="fill:none;stroke:#000000;stroke-width:26.4;stroke-linecap:round;stroke-linejoin:round;stroke-miterlimit:10;stroke-dasharray:none;stroke-opacity:1"
       transform="translate(265.44,651.98661)"
       clip-path="url(#clipPath4)" />
    <path
       id="path5"
       d="m 0,0 -0.16,-1.76 -0.32,-1.76 -0.48,-1.6 -0.8,-1.6 -0.96,-1.44 -1.12,-1.28 -1.28,-1.12 -1.44,-0.96 -1.6,-0.8 -1.6,-0.48 -1.76,-0.32 -1.76,-0.16 -1.6,0.16 -1.759999,0.32 -1.600001,0.48 -1.6,0.8 -1.440001,0.96 -1.279998,1.12 -1.120001,1.28 -0.959999,1.44 -0.800002,1.6 -0.479999,1.6 -0.48,1.76 V 0 1.6 l 0.48,1.76 0.479999,1.6 0.800002,1.6 L -23.68,8 l 1.120001,1.28 1.279998,1.12 1.440001,0.96 1.6,0.8 1.600001,0.48 1.759999,0.32 1.6,0.16 1.76,-0.16 1.76,-0.32 1.6,-0.48 1.6,-0.8 L -5.12,10.4 -3.84,9.28 -2.72,8 -1.76,6.56 -0.96,4.96 -0.48,3.36 -0.16,1.6 0,0 v 0 z"
       style="fill:#000000;fill-opacity:1;fill-rule:evenodd;stroke:none"
       transform="translate(364.95999,466.0666)"
       clip-path="url(#clipPath6)" />
    <path
       id="path7"
       d="m 0,0 v -1.76 l -0.32,-1.76 -0.64,-1.6 -0.8,-1.44 -0.96,-1.44 -1.12,-1.44 -1.28,-1.12 -1.44,-0.96 -1.6,-0.64 -1.6,-0.64 -1.6,-0.32 -1.76,-0.16 -1.76,0.16 -1.759999,0.32 -1.600001,0.64 -1.6,0.64 -1.440001,0.96 -1.279998,1.12 L -23.68,-8 l -0.959999,1.44 -0.800002,1.44 -0.479999,1.6 -0.32,1.76 -0.16,1.76 0.16,1.76 0.32,1.6 0.479999,1.6 0.800002,1.6 L -23.68,8 l 1.120001,1.28 1.279998,1.12 1.440001,0.96 1.6,0.8 1.600001,0.64 1.759999,0.32 h 1.76 1.76 l 1.6,-0.32 1.6,-0.64 1.6,-0.8 L -5.12,10.4 -3.84,9.28 -2.72,8 -1.76,6.56 -0.96,4.96 -0.32,3.36 0,1.76 V 0 0 Z"
       style="fill:#000000;fill-opacity:1;fill-rule:evenodd;stroke:none"
       transform="translate(441.44,466.70661)"
       clip-path="url(#clipPath8)" />
    <path
       id="path9"
       d="M 0,0 -0.16,-1.6 -0.48,-3.36 -1.12,-4.96 -1.76,-6.56 -2.72,-8 -4,-9.28 l -1.28,-1.12 -1.44,-0.96 -1.44,-0.8 -1.76,-0.48 -1.6,-0.32 -1.76,-0.16 -1.76,0.16 -1.599999,0.32 -1.760001,0.48 -1.44,0.8 -1.440001,0.96 -1.279998,1.12 L -23.68,-8 l -0.959999,1.44 -0.800002,1.6 L -26.08,-3.36 -26.4,-1.6 -26.559999,0 -26.4,1.76 l 0.32,1.76 0.639999,1.6 0.800002,1.6 0.959999,1.44 1.120001,1.28 1.279998,1.12 1.440001,0.96 1.44,0.8 1.760001,0.48 1.599999,0.32 1.76,0.16 1.76,-0.16 1.6,-0.32 1.76,-0.48 1.44,-0.8 1.44,-0.96 L -4,9.44 -2.72,8.16 -1.76,6.72 -1.12,5.12 -0.48,3.52 -0.16,1.76 0,0 v 0 z"
       style="fill:#000000;fill-opacity:1;fill-rule:evenodd;stroke:none"
       transform="translate(402.23999,541.1066)"
       clip-path="url(#clipPath10)" />
    <path
       id="path11"
       d="m 0,0 -0.16,-1.76 -0.32,-1.76 -0.48,-1.6 -0.8,-1.6 -0.96,-1.44 -1.12,-1.28 -1.28,-1.12 -1.44,-0.96 -1.6,-0.8 -1.6,-0.48 -1.76,-0.32 -1.76,-0.16 -1.6,0.16 -1.759999,0.32 -1.600001,0.48 -1.6,0.8 -1.440001,0.96 -1.279998,1.12 -1.120001,1.28 -0.959999,1.44 -0.800002,1.6 -0.479999,1.6 -0.48,1.76 V 0 1.6 l 0.48,1.76 0.479999,1.6 0.800002,1.6 L -23.68,8 l 1.120001,1.28 1.279998,1.12 1.440001,0.96 1.6,0.8 1.600001,0.48 1.759999,0.32 1.6,0.16 1.76,-0.16 1.76,-0.32 1.6,-0.48 1.6,-0.8 L -5.12,10.4 -3.84,9.28 -2.72,8 -1.76,6.56 -0.96,4.96 -0.48,3.36 -0.16,1.6 0,0"
       style="fill:none;stroke:#000000;stroke-width:0.64;stroke-linecap:round;stroke-linejoin:round;stroke-miterlimit:10;stroke-dasharray:none;stroke-opacity:1"
       transform="translate(364.95999,466.0666)"
       clip-path="url(#clipPath12)" />
    <path
       id="path13"
       d="m 0,0 v -1.76 l -0.32,-1.76 -0.64,-1.6 -0.8,-1.44 -0.96,-1.44 -1.12,-1.44 -1.28,-1.12 -1.44,-0.96 -1.6,-0.64 -1.6,-0.64 -1.6,-0.32 -1.76,-0.16 -1.76,0.16 -1.759999,0.32 -1.600001,0.64 -1.6,0.64 -1.440001,0.96 -1.279998,1.12 L -23.68,-8 l -0.959999,1.44 -0.800002,1.44 -0.479999,1.6 -0.32,1.76 -0.16,1.76 0.16,1.76 0.32,1.6 0.479999,1.6 0.800002,1.6 L -23.68,8 l 1.120001,1.28 1.279998,1.12 1.440001,0.96 1.6,0.8 1.600001,0.64 1.759999,0.32 h 1.76 1.76 l 1.6,-0.32 1.6,-0.64 1.6,-0.8 L -5.12,10.4 -3.84,9.28 -2.72,8 -1.76,6.56 -0.96,4.96 -0.32,3.36 0,1.76 V 0"
       style="fill:none;stroke:#000000;stroke-width:0.64;stroke-linecap:round;stroke-linejoin:round;stroke-miterlimit:10;stroke-dasharray:none;stroke-opacity:1"
       transform="translate(441.44,466.70661)"
       clip-path="url(#clipPath14)" />
    <path
       id="path15"
       d="M 0,0 -0.16,-1.6 -0.48,-3.36 -1.12,-4.96 -1.76,-6.56 -2.72,-8 -4,-9.28 l -1.28,-1.12 -1.44,-0.96 -1.44,-0.8 -1.76,-0.48 -1.6,-0.32 -1.76,-0.16 -1.76,0.16 -1.599999,0.32 -1.760001,0.48 -1.44,0.8 -1.440001,0.96 -1.279998,1.12 L -23.68,-8 l -0.959999,1.44 -0.800002,1.6 L -26.08,-3.36 -26.4,-1.6 -26.559999,0 -26.4,1.76 l 0.32,1.76 0.639999,1.6 0.800002,1.6 0.959999,1.44 1.120001,1.28 1.279998,1.12 1.440001,0.96 1.44,0.8 1.760001,0.48 1.599999,0.32 1.76,0.16 1.76,-0.16 1.6,-0.32 1.76,-0.48 1.44,-0.8 1.44,-0.96 L -4,9.44 -2.72,8.16 -1.76,6.72 -1.12,5.12 -0.48,3.52 -0.16,1.76 0,0"
       style="fill:none;stroke:#000000;stroke-width:0.64;stroke-linecap:round;stroke-linejoin:round;stroke-miterlimit:10;stroke-dasharray:none;stroke-opacity:1"
       transform="translate(402.23999,541.1066)"
       clip-path="url(#clipPath16)" />
  </g>
</svg>
