<?xml version="1.0" encoding="UTF-8" standalone="no"?>
<!-- Created with Inkscape (http://www.inkscape.org/) -->

<svg
   version="1.1"
   id="svg1"
   width="281.49332"
   height="269.62668"
   viewBox="0 0 281.49332 269.62668"
   sodipodi:docname="Cement9.pdf"
   xmlns:inkscape="http://www.inkscape.org/namespaces/inkscape"
   xmlns:sodipodi="http://sodipodi.sourceforge.net/DTD/sodipodi-0.dtd"
   xmlns="http://www.w3.org/2000/svg"
   xmlns:svg="http://www.w3.org/2000/svg">
  <defs
     id="defs1">
    <clipPath
       clipPathUnits="userSpaceOnUse"
       id="clipPath2">
      <path
         d="M 0,0.16 V 1122.5601 H 793.59998 V 0.16 Z"
         transform="translate(-374.23999,-505.28)"
         clip-rule="evenodd"
         id="path2" />
    </clipPath>
    <clipPath
       clipPathUnits="userSpaceOnUse"
       id="clipPath4">
      <path
         d="M 0,0.16 V 1122.5601 H 793.59998 V 0.16 Z"
         transform="translate(-374.23999,-505.28)"
         clip-rule="evenodd"
         id="path4" />
    </clipPath>
    <clipPath
       clipPathUnits="userSpaceOnUse"
       id="clipPath6">
      <path
         d="M 0,0.16 V 1122.5601 H 793.59998 V 0.16 Z"
         transform="translate(-308.32001,-468.32001)"
         clip-rule="evenodd"
         id="path6" />
    </clipPath>
    <clipPath
       clipPathUnits="userSpaceOnUse"
       id="clipPath8">
      <path
         d="M 0,0.16 V 1122.5601 H 793.59998 V 0.16 Z"
         clip-rule="evenodd"
         id="path8" />
    </clipPath>
    <clipPath
       clipPathUnits="userSpaceOnUse"
       id="clipPath10">
      <path
         d="M 0,0.16 V 1122.5601 H 793.59998 V 0.16 Z"
         clip-rule="evenodd"
         id="path10" />
    </clipPath>
  </defs>
  <sodipodi:namedview
     id="namedview1"
     pagecolor="#505050"
     bordercolor="#eeeeee"
     borderopacity="1"
     inkscape:showpageshadow="0"
     inkscape:pageopacity="0"
     inkscape:pagecheckerboard="0"
     inkscape:deskcolor="#505050">
    <inkscape:page
       x="0"
       y="0"
       inkscape:label="1"
       id="page1"
       width="281.49332"
       height="269.62668"
       margin="0"
       bleed="0" />
  </sodipodi:namedview>
  <g
     id="g1"
     inkscape:groupmode="layer"
     inkscape:label="1">
    <path
       id="path1"
       d="M 0,0 -2.56,4.8 -4.64,9.76 -6.4,14.88 -7.84,20 -8.8,25.280001 -9.44,30.719999 -9.76,36 l 0.16,5.439999 0.48,5.440002 0.96,5.279999 1.28,5.279999 1.6,5.120002 2.08,4.959996 2.24,4.800003 2.72,4.639999 3.04,4.480003 3.36,4.32 3.52,4 4,3.68 4.16,3.360001 4.32,3.199997 4.639999,2.88 4.799999,2.4 4.960003,2.08 5.119999,1.76 5.119999,1.44 5.280003,0.96 5.439998,0.64 5.439999,0.32 5.279999,-0.16 5.440002,-0.48 5.279999,-0.96 5.279999,-1.28 5.120003,-1.6 4.959999,-1.92 4.8,-2.4 4.8,-2.72 4.32,-3.040002 4.32,-3.36 4,-3.519997 3.68,-4 3.52,-4.160004 3.04,-4.319999 2.87999,-4.64"
       style="fill:none;stroke:#000000;stroke-width:26.4;stroke-linecap:round;stroke-linejoin:round;stroke-miterlimit:10;stroke-dasharray:none;stroke-opacity:1"
       transform="translate(374.23999,509.27994)"
       clip-path="url(#clipPath2)" />
    <path
       id="path3"
       d="m 0,0 1.44,-3.2 1.28,-3.2 0.96,-3.36 0.8,-3.36 0.32,-3.519999 V -20.16 L 4.48,-23.52 3.84,-27.040001 2.88,-30.4 1.6,-33.599998 0.16,-36.799999 -1.76,-39.68 -3.84,-42.560001 -6.24,-45.119999 -8.8,-47.52 l -2.72,-2.079998 -2.88,-1.760003 -3.2,-1.599998 -3.199999,-1.280003 -3.360001,-0.959999 -3.52,-0.639999 -3.360001,-0.32 h -3.52 l -3.520001,0.32 -3.359997,0.479999 -3.36,0.959999 -3.360001,1.280003 -3.040001,1.599999 -3.040001,1.760002 -2.719997,2.079998 -2.560001,2.400001 -2.399998,2.559998 L -64,-40 l -1.919998,3.040001"
       style="fill:none;stroke:#000000;stroke-width:26.4;stroke-linecap:round;stroke-linejoin:round;stroke-miterlimit:10;stroke-dasharray:none;stroke-opacity:1"
       transform="translate(374.23999,509.27994)"
       clip-path="url(#clipPath4)" />
    <path
       id="path5"
       d="m 0,0 -0.96,2.08 -0.8,2.08 -0.48,2.24 -0.16,2.24 0.16,2.24 0.32,2.4 0.64,2.08 0.8,2.080001 1.12,2.079999 1.44,1.760001 1.44,1.76 L 5.28,24.48 7.2,25.6 9.28,26.719999 11.52,27.360001 13.76,27.84 16,28.16 18.24,28 l 2.24,-0.32 2.239999,-0.639999 2.08,-0.800001 1.92,-1.119999 1.92,-1.440001 1.600001,-1.6 1.44,-1.76 1.279999,-1.92"
       style="fill:none;stroke:#000000;stroke-width:26.4;stroke-linecap:round;stroke-linejoin:round;stroke-miterlimit:10;stroke-dasharray:none;stroke-opacity:1"
       transform="translate(308.32001,472.31995)"
       clip-path="url(#clipPath6)" />
    <path
       id="path7"
       d="m 476.95999,476.48001 -110.88,197.43997"
       style="fill:none;stroke:#000000;stroke-width:26.4;stroke-linecap:round;stroke-linejoin:round;stroke-miterlimit:10;stroke-dasharray:none;stroke-opacity:1"
       transform="translate(0,3.9999413)"
       clip-path="url(#clipPath8)" />
    <path
       id="path9"
       d="m 322.72,519.67999 218.07999,35.84003"
       style="fill:none;stroke:#000000;stroke-width:26.4;stroke-linecap:round;stroke-linejoin:round;stroke-miterlimit:10;stroke-dasharray:none;stroke-opacity:1"
       transform="translate(0,3.9999413)"
       clip-path="url(#clipPath10)" />
  </g>
</svg>
