<?xml version="1.0" encoding="UTF-8" standalone="no"?>
<!-- Created with Inkscape (http://www.inkscape.org/) -->

<svg
   version="1.1"
   id="svg1"
   width="356.18668"
   height="297.65332"
   viewBox="0 0 356.18668 297.65332"
   sodipodi:docname="Cinders8.pdf"
   xmlns:inkscape="http://www.inkscape.org/namespaces/inkscape"
   xmlns:sodipodi="http://sodipodi.sourceforge.net/DTD/sodipodi-0.dtd"
   xmlns="http://www.w3.org/2000/svg"
   xmlns:svg="http://www.w3.org/2000/svg">
  <defs
     id="defs1">
    <clipPath
       clipPathUnits="userSpaceOnUse"
       id="clipPath2">
      <path
         d="M 0,0.16 V 1122.5601 H 793.59998 V 0.16 Z"
         transform="translate(3.3333333e-6)"
         clip-rule="evenodd"
         id="path2" />
    </clipPath>
    <clipPath
       clipPathUnits="userSpaceOnUse"
       id="clipPath4">
      <path
         d="M 0,0.16 V 1122.5601 H 793.59998 V 0.16 Z"
         transform="translate(3.3333333e-6)"
         clip-rule="evenodd"
         id="path4" />
    </clipPath>
    <clipPath
       clipPathUnits="userSpaceOnUse"
       id="clipPath6">
      <path
         d="M 0,0.16 V 1122.5601 H 793.59998 V 0.16 Z"
         transform="translate(3.3333333e-6)"
         clip-rule="evenodd"
         id="path6" />
    </clipPath>
    <clipPath
       clipPathUnits="userSpaceOnUse"
       id="clipPath8">
      <path
         d="M 0,0.16 V 1122.5601 H 793.59998 V 0.16 Z"
         transform="translate(3.3333333e-6)"
         clip-rule="evenodd"
         id="path8" />
    </clipPath>
    <clipPath
       clipPathUnits="userSpaceOnUse"
       id="clipPath10">
      <path
         d="M 0,0.16 V 1122.5601 H 793.59998 V 0.16 Z"
         transform="translate(-178.24,-663.67999)"
         clip-rule="evenodd"
         id="path10" />
    </clipPath>
  </defs>
  <sodipodi:namedview
     id="namedview1"
     pagecolor="#505050"
     bordercolor="#eeeeee"
     borderopacity="1"
     inkscape:showpageshadow="0"
     inkscape:pageopacity="0"
     inkscape:pagecheckerboard="0"
     inkscape:deskcolor="#505050">
    <inkscape:page
       x="0"
       y="0"
       inkscape:label="1"
       id="page1"
       width="356.18668"
       height="297.65332"
       margin="0"
       bleed="0" />
  </sodipodi:namedview>
  <g
     id="g1"
     inkscape:groupmode="layer"
     inkscape:label="1">
    <path
       id="path1"
       d="m 396.79999,485.76001 v 226.56"
       style="fill:none;stroke:#000000;stroke-width:26.4;stroke-linecap:round;stroke-linejoin:round;stroke-miterlimit:10;stroke-dasharray:none;stroke-opacity:1"
       transform="translate(-138.74667,-457.84006)"
       clip-path="url(#clipPath2)" />
    <path
       id="path3"
       d="m 396.79999,485.76001 -151.04,226.56"
       style="fill:none;stroke:#000000;stroke-width:26.4;stroke-linecap:round;stroke-linejoin:round;stroke-miterlimit:10;stroke-dasharray:none;stroke-opacity:1"
       transform="translate(-138.74667,-457.84006)"
       clip-path="url(#clipPath4)" />
    <path
       id="path5"
       d="M 302.39999,636.79999 H 472.32001"
       style="fill:none;stroke:#000000;stroke-width:26.4;stroke-linecap:round;stroke-linejoin:round;stroke-miterlimit:10;stroke-dasharray:none;stroke-opacity:1"
       transform="translate(-138.74667,-457.84006)"
       clip-path="url(#clipPath6)" />
    <path
       id="path7"
       d="M 472.32001,636.79999 V 674.56"
       style="fill:none;stroke:#000000;stroke-width:26.4;stroke-linecap:round;stroke-linejoin:round;stroke-miterlimit:10;stroke-dasharray:none;stroke-opacity:1"
       transform="translate(-138.74667,-457.84006)"
       clip-path="url(#clipPath8)" />
    <path
       id="path9"
       d="m 0,0 -2.72,2.88 -2.4,3.04 -2.08,3.52 -1.6,3.52 -1.44,3.679999 -1.12,3.840001 -0.64,3.84 -0.32,3.84 v 4 l 0.48,4 0.64,3.84 1.12,3.84 1.6,3.520001 1.76,3.52 2.08,3.360001 2.56,3.199997 2.72,2.720001 2.88,2.720001 3.2,2.240002 3.52,2.079994 3.52,1.600006 3.680001,1.279999 3.84,0.959999 4,0.639999 3.84,0.32 3.999998,-0.160004 3.84,-0.479995 3.84,-0.800003 3.84,-1.279999 L 48.32,67.68 51.68,65.919998 55.040001,63.68 58.080002,61.119999 60.799999,58.400002 63.360001,55.360001 65.599998,52.16 67.519997,48.639999"
       style="fill:none;stroke:#000000;stroke-width:26.4;stroke-linecap:round;stroke-linejoin:round;stroke-miterlimit:10;stroke-dasharray:none;stroke-opacity:1"
       transform="translate(39.493338,205.83993)"
       clip-path="url(#clipPath10)" />
  </g>
</svg>
