<?xml version="1.0" encoding="UTF-8" standalone="no"?>
<!-- Created with Inkscape (http://www.inkscape.org/) -->

<svg
   version="1.1"
   id="svg1"
   width="346.85333"
   height="241.60001"
   viewBox="0 0 346.85333 241.60001"
   sodipodi:docname="Crocus3.pdf"
   xmlns:inkscape="http://www.inkscape.org/namespaces/inkscape"
   xmlns:sodipodi="http://sodipodi.sourceforge.net/DTD/sodipodi-0.dtd"
   xmlns="http://www.w3.org/2000/svg"
   xmlns:svg="http://www.w3.org/2000/svg">
  <defs
     id="defs1">
    <clipPath
       clipPathUnits="userSpaceOnUse"
       id="clipPath2">
      <path
         d="M 0,0.16 V 1122.5601 H 793.59998 V 0.16 Z"
         transform="translate(-321.28,-504.64002)"
         clip-rule="evenodd"
         id="path2" />
    </clipPath>
    <clipPath
       clipPathUnits="userSpaceOnUse"
       id="clipPath4">
      <path
         d="M 0,0.16 V 1122.5601 H 793.59998 V 0.16 Z"
         transform="translate(-321.28,-504.64002)"
         clip-rule="evenodd"
         id="path4" />
    </clipPath>
    <clipPath
       clipPathUnits="userSpaceOnUse"
       id="clipPath6">
      <path
         d="M 0,0.16 V 1122.5601 H 793.59998 V 0.16 Z"
         transform="translate(-547.84003,-504.64002)"
         clip-rule="evenodd"
         id="path6" />
    </clipPath>
    <clipPath
       clipPathUnits="userSpaceOnUse"
       id="clipPath8">
      <path
         d="M 0,0.16 V 1122.5601 H 793.59998 V 0.16 Z"
         clip-rule="evenodd"
         id="path8" />
    </clipPath>
  </defs>
  <sodipodi:namedview
     id="namedview1"
     pagecolor="#505050"
     bordercolor="#eeeeee"
     borderopacity="1"
     inkscape:showpageshadow="0"
     inkscape:pageopacity="0"
     inkscape:pagecheckerboard="0"
     inkscape:deskcolor="#505050">
    <inkscape:page
       x="0"
       y="0"
       inkscape:label="1"
       id="page1"
       width="346.85333"
       height="241.60001"
       margin="0"
       bleed="0" />
  </sodipodi:namedview>
  <g
     id="g1"
     inkscape:groupmode="layer"
     inkscape:label="1">
    <path
       id="path1"
       d="M 0,0 0.16,5.44 0.8,10.72 1.76,16 3.04,21.280001 4.8,26.4 6.88,31.360001 9.28,36.16 12,40.799999 l 3.04,4.48 3.519999,4.16 3.680001,4 3.84,3.68 4.16,3.360001 4.480001,3.04 4.64,2.719998 4.799999,2.400001 4.959999,2.080002 5.120003,1.760002 5.279998,1.279999 5.280003,0.959999 5.439995,0.64 5.279999,0.159996 5.440002,-0.159996 5.279999,-0.64 5.440002,-0.959999 5.120003,-1.279999 5.119997,-1.760002 4.96,-2.080002 4.8,-2.400001 4.64,-2.719998 4.48,-3.04 4.16,-3.360001 4.00001,-3.68 3.67999,-4 3.36,-4.16 3.03999,-4.48 2.72,-4.639999 2.56002,-4.799999 L 146.24,26.4 148,21.280001 149.28,16 150.24,10.72 150.88,5.44 151.03999,0"
       style="fill:none;stroke:#000000;stroke-width:26.4;stroke-linecap:round;stroke-linejoin:round;stroke-miterlimit:10;stroke-dasharray:none;stroke-opacity:1"
       transform="translate(97.159999,65.49329)"
       clip-path="url(#clipPath2)" />
    <path
       id="path3"
       d="m 0,0 -0.16,-3.36 -0.48,-3.52 -0.8,-3.36 -0.96,-3.2 -1.44,-3.199999 L -5.44,-19.68 -7.36,-22.559999 -9.6,-25.280001 -12,-27.68 l -2.72,-2.24 -2.720001,-1.92 -3.039999,-1.759998 -3.2,-1.440003 -3.199999,-1.119999 -3.360001,-0.799999 -3.359998,-0.48 -3.520001,-0.319999 -3.52,0.16 L -44,-37.279999 -47.360001,-36.48 l -3.36,0.96 -3.199997,1.439998 -3.040001,1.600002 -2.880001,1.920001 -2.720001,2.079999 -2.399998,2.4 -2.239998,2.56 -2.080002,2.880001 -1.760002,2.879999 -1.440002,3.2 -1.279999,3.2 -0.799996,3.36 -0.639999,3.36 -0.32,3.52"
       style="fill:none;stroke:#000000;stroke-width:26.4;stroke-linecap:round;stroke-linejoin:round;stroke-miterlimit:10;stroke-dasharray:none;stroke-opacity:1"
       transform="translate(97.159999,65.49329)"
       clip-path="url(#clipPath4)" />
    <path
       id="path5"
       d="M 0,0 -0.16,-3.52 -0.64,-7.04 -1.44,-10.4 -2.56,-13.76 -4,-16.959999 -5.76,-20.16 -7.84,-23.040001 -10.08,-25.6 l -2.56,-2.56 -2.72,-2.24 -2.88,-1.92 -3.200001,-1.760002 -3.199998,-1.279999 L -28,-36.48 l -3.52,-0.799999 -3.520001,-0.319999 -3.52,-0.16 -3.520001,0.319999 -3.359997,0.48 -3.52,0.959999 -3.360001,1.119999 -3.040001,1.600002 -3.040001,1.759999 -2.879997,2.079999 -2.720001,2.4 -2.400002,2.560001 -2.239997,2.72 -1.760003,3.040001 -1.760002,3.039999 -1.279998,3.36 -0.96,3.36 -0.639999,3.52 -0.32,3.52 -0.159996,3.52"
       style="fill:none;stroke:#000000;stroke-width:26.4;stroke-linecap:round;stroke-linejoin:round;stroke-miterlimit:10;stroke-dasharray:none;stroke-opacity:1"
       transform="translate(323.72003,65.49329)"
       clip-path="url(#clipPath6)" />
    <path
       id="path7"
       d="m 283.51999,655.67999 h 75.52002 V 580.15997 H 434.56 v 75.52002 h 75.51999"
       style="fill:none;stroke:#000000;stroke-width:26.4;stroke-linecap:round;stroke-linejoin:round;stroke-miterlimit:10;stroke-dasharray:none;stroke-opacity:1"
       transform="translate(-224.12,-439.14673)"
       clip-path="url(#clipPath8)" />
  </g>
</svg>
