<?xml version="1.0" encoding="UTF-8" standalone="no"?>
<!-- Created with Inkscape (http://www.inkscape.org/) -->

<svg
   version="1.1"
   id="svg1"
   width="313.49332"
   height="272.30667"
   viewBox="0 0 313.49332 272.30667"
   sodipodi:docname="Dregs.pdf"
   xmlns:inkscape="http://www.inkscape.org/namespaces/inkscape"
   xmlns:sodipodi="http://sodipodi.sourceforge.net/DTD/sodipodi-0.dtd"
   xmlns="http://www.w3.org/2000/svg"
   xmlns:svg="http://www.w3.org/2000/svg">
  <defs
     id="defs1">
    <clipPath
       clipPathUnits="userSpaceOnUse"
       id="clipPath2">
      <path
         d="M 0,0.16 V 1122.5601 H 793.59998 V 0.16 Z"
         transform="translate(3.3333333e-6)"
         clip-rule="evenodd"
         id="path2" />
    </clipPath>
    <clipPath
       clipPathUnits="userSpaceOnUse"
       id="clipPath4">
      <path
         d="M 0,0.16 V 1122.5601 H 793.59998 V 0.16 Z"
         transform="translate(-283.04001,-654.23999)"
         clip-rule="evenodd"
         id="path4" />
    </clipPath>
    <clipPath
       clipPathUnits="userSpaceOnUse"
       id="clipPath6">
      <path
         d="M 0,0.16 V 1122.5601 H 793.59998 V 0.16 Z"
         transform="translate(-547.35999,-465.44)"
         clip-rule="evenodd"
         id="path6" />
    </clipPath>
  </defs>
  <sodipodi:namedview
     id="namedview1"
     pagecolor="#505050"
     bordercolor="#eeeeee"
     borderopacity="1"
     inkscape:showpageshadow="0"
     inkscape:pageopacity="0"
     inkscape:pagecheckerboard="0"
     inkscape:deskcolor="#505050">
    <inkscape:page
       x="0"
       y="0"
       inkscape:label="1"
       id="page1"
       width="313.49332"
       height="272.30667"
       margin="0"
       bleed="0" />
  </sodipodi:namedview>
  <g
     id="g1"
     inkscape:groupmode="layer"
     inkscape:label="1">
    <path
       id="path1"
       d="m 283.04001,578.71997 h 226.56"
       style="fill:none;stroke:#000000;stroke-width:26.4;stroke-linecap:round;stroke-linejoin:round;stroke-miterlimit:10;stroke-dasharray:none;stroke-opacity:1"
       transform="translate(-264.14667,-444.48006)"
       clip-path="url(#clipPath2)" />
    <path
       id="path3"
       d="M 0,0 5.28,-0.16 10.72,-0.64 16,-1.6 21.280001,-3.04 26.4,-4.64 31.360001,-6.72 36.16,-9.12 40.799999,-12 l 4.48,-3.04 4.16,-3.36 4,-3.68 3.68,-4 3.360001,-4.16 3.04,-4.320001 2.719998,-4.64 2.400001,-4.959999 2.080002,-4.959999 1.760002,-5.120003 1.279999,-5.119999 0.959999,-5.279998 0.64,-5.440003 0.159996,-5.439995 -0.159996,-5.280006 -0.64,-5.439995 -0.959999,-5.279999 -1.279999,-5.280006 -1.760002,-5.119997 -2.080002,-4.96 -2.400001,-4.8 -2.719998,-4.64 -3.04,-4.32 -3.360001,-4.32 -3.68,-3.84 -4,-3.68 -4.16,-3.36 -4.48,-3.19999 -4.639999,-2.72 L 31.360001,-144.16 26.4,-146.24 21.280001,-147.84 16,-149.28 10.72,-150.24 5.28,-150.72 0,-151.03999"
       style="fill:none;stroke:#000000;stroke-width:26.4;stroke-linecap:round;stroke-linejoin:round;stroke-miterlimit:10;stroke-dasharray:none;stroke-opacity:1"
       transform="translate(18.893342,209.75993)"
       clip-path="url(#clipPath4)" />
    <path
       id="path5"
       d="m 0,0 -6.88,0.32 -6.88,0.64 -6.72,0.96 -6.720001,1.44 -6.559997,1.76 -6.400002,2.24 -6.400001,2.72 -6.079998,3.04 -6.080002,3.36 -5.599999,3.68 -5.599998,4 -5.279999,4.32 -4.960007,4.799999 -4.639999,4.960003 -4.479996,5.279998 -4,5.439999 -3.68,5.760002 -3.360001,5.919998 -3.04,6.239998 -2.56,6.240006 -2.24,6.559997 -1.92,6.559998 -1.44,6.720001 -0.96,6.720001 -0.64,6.88 -0.16,6.72 0.16,6.88 0.64,6.88 0.96,6.71999 1.44,6.72001 1.92,6.55999 2.24,6.40001 2.56,6.4 3.04,6.08 3.360001,6.08 3.68,5.75999 4,5.44001 4.479996,5.28 4.639999,4.96 4.960007,4.64 5.279999,4.48 5.599998,4 5.599999,3.68 6.080002,3.36001 6.079998,3.03999 6.400001,2.56 6.400002,2.24 6.559997,1.92 6.720001,1.44 6.72,0.95999 6.88,0.64 L 0,226.56"
       style="fill:none;stroke:#000000;stroke-width:26.4;stroke-linecap:round;stroke-linejoin:round;stroke-miterlimit:10;stroke-dasharray:none;stroke-opacity:1"
       transform="translate(283.21332,20.959943)"
       clip-path="url(#clipPath6)" />
  </g>
</svg>
