<?xml version="1.0" encoding="UTF-8" standalone="no"?>
<!-- Created with Inkscape (http://www.inkscape.org/) -->

<svg
   version="1.1"
   id="svg1"
   width="234.8"
   height="270.95999"
   viewBox="0 0 234.8 270.95999"
   sodipodi:docname="Flores7.pdf"
   xmlns:inkscape="http://www.inkscape.org/namespaces/inkscape"
   xmlns:sodipodi="http://sodipodi.sourceforge.net/DTD/sodipodi-0.dtd"
   xmlns="http://www.w3.org/2000/svg"
   xmlns:svg="http://www.w3.org/2000/svg">
  <defs
     id="defs1">
    <clipPath
       clipPathUnits="userSpaceOnUse"
       id="clipPath2">
      <path
         d="M 0,0.16 V 1122.5601 H 793.59998 V 0.16 Z"
         transform="translate(-377.92001,-674.40003)"
         clip-rule="evenodd"
         id="path2" />
    </clipPath>
    <clipPath
       clipPathUnits="userSpaceOnUse"
       id="clipPath4">
      <path
         d="M 0,0.16 V 1122.5601 H 793.59998 V 0.16 Z"
         transform="translate(-359.04001,-561.12)"
         clip-rule="evenodd"
         id="path4" />
    </clipPath>
    <clipPath
       clipPathUnits="userSpaceOnUse"
       id="clipPath6">
      <path
         d="M 0,0.16 V 1122.5601 H 793.59998 V 0.16 Z"
         transform="translate(-359.67999,-674.71998)"
         clip-rule="evenodd"
         id="path6" />
    </clipPath>
    <clipPath
       clipPathUnits="userSpaceOnUse"
       id="clipPath8">
      <path
         d="M 0,0.16 V 1122.5601 H 793.59998 V 0.16 Z"
         clip-rule="evenodd"
         id="path8" />
    </clipPath>
    <clipPath
       clipPathUnits="userSpaceOnUse"
       id="clipPath10">
      <path
         d="M 0,0.16 V 1122.5601 H 793.59998 V 0.16 Z"
         clip-rule="evenodd"
         id="path10" />
    </clipPath>
    <clipPath
       clipPathUnits="userSpaceOnUse"
       id="clipPath12">
      <path
         d="M 0,0.16 V 1122.5601 H 793.59998 V 0.16 Z"
         clip-rule="evenodd"
         id="path12" />
    </clipPath>
  </defs>
  <sodipodi:namedview
     id="namedview1"
     pagecolor="#505050"
     bordercolor="#eeeeee"
     borderopacity="1"
     inkscape:showpageshadow="0"
     inkscape:pageopacity="0"
     inkscape:pagecheckerboard="0"
     inkscape:deskcolor="#505050">
    <inkscape:page
       x="0"
       y="0"
       inkscape:label="1"
       id="page1"
       width="234.8"
       height="270.95999"
       margin="0"
       bleed="0" />
  </sodipodi:namedview>
  <g
     id="g1"
     inkscape:groupmode="layer"
     inkscape:label="1">
    <path
       id="path1"
       d="m 0,0 6.88,-0.16 6.88,-0.64 6.72,-1.12 6.720001,-1.44 6.559997,-1.76 6.560002,-2.24 6.240001,-2.56 6.239998,-3.04 5.920002,-3.36 5.760002,-3.68 5.439995,-4.16 5.279999,-4.32 4.960007,-4.799999 4.799995,-4.960003 4.32,-5.279998 4,-5.439999 3.68,-5.760002 3.360001,-5.919998 3.04,-6.239998 2.72,-6.240006 2.08,-6.559997 1.92,-6.559998 1.44,-6.720001 0.96,-6.720001 0.64,-6.88 0.16,-6.88 -0.16,-6.72 -0.64,-6.88 -0.96,-6.71999 -1.6,-6.72001 -1.76,-6.55999 -2.24,-6.56002 -2.72,-6.23999 -2.88,-6.24 -3.360001,-5.92 -3.839996,-5.75999 -4,-5.44001 -4.480004,-5.28 L 80,-193.44 l -4.959999,-4.8 -5.279999,-4.32 -5.599998,-4 -5.760002,-3.68 L 52.48,-213.60001 46.400002,-216.64 40,-219.2 l -6.560001,-2.24 -6.56,-1.92 -6.719999,-1.44 -6.72,-0.95999 -6.88,-0.64 -6.72,-0.16001"
       style="fill:none;stroke:#000000;stroke-width:26.4;stroke-linecap:round;stroke-linejoin:round;stroke-miterlimit:10;stroke-dasharray:none;stroke-opacity:1"
       transform="translate(96.440013,249.9333)"
       clip-path="url(#clipPath2)" />
    <path
       id="path3"
       d="m 0,0 4.48,-0.16 4.48,-0.48 4.32,-0.96 4.32,-1.12 4.16,-1.6 4,-1.76 3.84,-2.24 3.679999,-2.4 3.52,-2.88 3.360001,-3.039999 2.880001,-3.200001 2.879997,-3.520001 2.400002,-3.68 2.240001,-3.839998 1.759999,-4.000002 1.599998,-4.16 1.280003,-4.32 L 56,-47.68 l 0.48,-4.48 0.159999,-4.479999 -0.159999,-4.48 -0.48,-4.320003 -0.799999,-4.32 -1.280003,-4.32 L 52.32,-78.239998 50.560001,-82.400002 48.32,-86.239998 l -2.400002,-3.68 -2.879997,-3.520004 L 40.16,-96.639999 36.799999,-99.68 l -3.52,-2.72 -3.679999,-2.56 -3.84,-2.08 -4,-1.92 -4.16,-1.44 -4.32,-1.28 -4.32,-0.8 -4.48,-0.64 -4.48,-0.16"
       style="fill:none;stroke:#000000;stroke-width:26.4;stroke-linecap:round;stroke-linejoin:round;stroke-miterlimit:10;stroke-dasharray:none;stroke-opacity:1"
       transform="translate(77.560009,136.65327)"
       clip-path="url(#clipPath4)" />
    <path
       id="path5"
       d="M 0,0 4.48,-0.16 8.8,-0.64 13.28,-1.6 17.440001,-2.72 21.6,-4.32 l 4.16,-1.92 3.84,-2.08 3.679999,-2.56 3.52,-2.72 L 40,-16.639999 43.040001,-19.84 l 2.719997,-3.520001 2.560002,-3.68 2.080002,-3.839998 1.919998,-4.000002 1.599998,-4.32 1.120003,-4.16 L 56,-47.84 l 0.48,-4.32 0.159999,-4.479999 -0.159999,-4.48 L 56,-65.440002 55.040001,-69.919998 53.919998,-74.080002 52.32,-78.239998 50.400002,-82.400002 48.32,-86.239998 l -2.560002,-3.68 -2.719997,-3.520004 L 40,-96.639999 36.799999,-99.68 l -3.52,-2.72 -3.679999,-2.56 -3.84,-2.08 -4.16,-1.92 -4.159999,-1.6 L 13.28,-111.68 8.8,-112.64 4.48,-113.12 0,-113.28"
       style="fill:none;stroke:#000000;stroke-width:26.4;stroke-linecap:round;stroke-linejoin:round;stroke-miterlimit:10;stroke-dasharray:none;stroke-opacity:1"
       transform="translate(78.199993,250.25325)"
       clip-path="url(#clipPath6)" />
    <path
       id="path7"
       d="M 377.92001,447.84 H 302.39999"
       style="fill:none;stroke:#000000;stroke-width:26.4;stroke-linecap:round;stroke-linejoin:round;stroke-miterlimit:10;stroke-dasharray:none;stroke-opacity:1"
       transform="translate(-281.48,-424.46673)"
       clip-path="url(#clipPath8)" />
    <path
       id="path9"
       d="M 359.04001,561.12 H 302.39999"
       style="fill:none;stroke:#000000;stroke-width:26.4;stroke-linecap:round;stroke-linejoin:round;stroke-miterlimit:10;stroke-dasharray:none;stroke-opacity:1"
       transform="translate(-281.48,-424.46673)"
       clip-path="url(#clipPath10)" />
    <path
       id="path11"
       d="M 377.92001,674.40002 H 302.39999"
       style="fill:none;stroke:#000000;stroke-width:26.4;stroke-linecap:round;stroke-linejoin:round;stroke-miterlimit:10;stroke-dasharray:none;stroke-opacity:1"
       transform="translate(-281.48,-424.46673)"
       clip-path="url(#clipPath12)" />
  </g>
</svg>
