<?xml version="1.0" encoding="UTF-8" standalone="no"?>
<!-- Created with Inkscape (http://www.inkscape.org/) -->

<svg
   version="1.1"
   id="svg1"
   width="265.62668"
   height="113.38667"
   viewBox="0 0 265.62668 113.38667"
   sodipodi:docname="Glass4.pdf"
   xmlns:inkscape="http://www.inkscape.org/namespaces/inkscape"
   xmlns:sodipodi="http://sodipodi.sourceforge.net/DTD/sodipodi-0.dtd"
   xmlns="http://www.w3.org/2000/svg"
   xmlns:svg="http://www.w3.org/2000/svg">
  <defs
     id="defs1">
    <clipPath
       clipPathUnits="userSpaceOnUse"
       id="clipPath2">
      <path
         d="M 26.4,26.719999 V 767.35998 H 1096 V 26.719999 Z"
         transform="translate(-674.40002,-396.95999)"
         clip-rule="evenodd"
         id="path2" />
    </clipPath>
    <clipPath
       clipPathUnits="userSpaceOnUse"
       id="clipPath4">
      <path
         d="M 26.4,26.719999 V 767.35998 H 1096 V 26.719999 Z"
         transform="translate(-448,-396.95999)"
         clip-rule="evenodd"
         id="path4" />
    </clipPath>
    <clipPath
       clipPathUnits="userSpaceOnUse"
       id="clipPath6">
      <path
         d="M 26.4,26.719999 V 767.35998 H 1096 V 26.719999 Z"
         clip-rule="evenodd"
         id="path6" />
    </clipPath>
    <clipPath
       clipPathUnits="userSpaceOnUse"
       id="clipPath8">
      <path
         d="M 26.4,26.719999 V 767.35998 H 1096 V 26.719999 Z"
         clip-rule="evenodd"
         id="path8" />
    </clipPath>
    <clipPath
       clipPathUnits="userSpaceOnUse"
       id="clipPath10">
      <path
         d="M 26.4,26.719999 V 767.35998 H 1096 V 26.719999 Z"
         clip-rule="evenodd"
         id="path10" />
    </clipPath>
  </defs>
  <sodipodi:namedview
     id="namedview1"
     pagecolor="#505050"
     bordercolor="#eeeeee"
     borderopacity="1"
     inkscape:showpageshadow="0"
     inkscape:pageopacity="0"
     inkscape:pagecheckerboard="0"
     inkscape:deskcolor="#505050">
    <inkscape:page
       x="0"
       y="0"
       inkscape:label="1"
       id="page1"
       width="265.62668"
       height="113.38667"
       margin="0"
       bleed="0" />
  </sodipodi:namedview>
  <g
     id="g1"
     inkscape:groupmode="layer"
     inkscape:label="1">
    <path
       id="path1"
       d="m 0,0 -7.52,-5.44 -7.84,-4.96 -8.16,-4.64 -8.32,-4.320001 -8.48,-3.84 -8.799999,-3.359998 -8.799999,-2.880002 L -66.879997,-32 -76,-34.080002 -85.279999,-35.68 l -9.279999,-1.119999 -9.280002,-0.64 -9.28,-0.319999 -9.44,0.319999 -9.28,0.64 -9.27999,1.119999 -9.28,1.599998 L -159.52,-32 l -8.96,2.559999 -8.8,2.880002 -8.8,3.359998 -8.48,3.84 -8.32,4.320001 -8.15999,4.64 -7.84001,4.96 -7.51999,5.44"
       style="fill:none;stroke:#000000;stroke-width:26.4;stroke-linecap:round;stroke-linejoin:round;stroke-miterlimit:10;stroke-dasharray:none;stroke-opacity:1"
       transform="translate(244.60002,56.773315)"
       clip-path="url(#clipPath2)" />
    <path
       id="path3"
       d="m 0,0 7.52,5.44 7.84,4.96 8.16,4.64 8.32,4.320001 8.48,3.84 8.799999,3.359998 8.799999,2.880002 L 66.879997,32 76,34.080002 85.279999,35.68 l 9.279999,1.119999 9.280002,0.799999 9.44,0.16 9.28,-0.16 9.28,-0.799999 9.27999,-1.119999 9.28,-1.599998 L 159.52,32 l 8.96,-2.559999 8.8,-2.880002 8.8,-3.359998 8.48,-3.84 L 202.88,15.04 211.03999,10.4 218.88,5.44 226.39999,0"
       style="fill:none;stroke:#000000;stroke-width:26.4;stroke-linecap:round;stroke-linejoin:round;stroke-miterlimit:10;stroke-dasharray:none;stroke-opacity:1"
       transform="translate(18.2,56.773315)"
       clip-path="url(#clipPath4)" />
    <path
       id="path5"
       d="m 503.51999,370.39999 0.32001,52.96"
       style="fill:none;stroke:#000000;stroke-width:26.4;stroke-linecap:round;stroke-linejoin:round;stroke-miterlimit:10;stroke-dasharray:none;stroke-opacity:1"
       transform="translate(-429.8,-340.18668)"
       clip-path="url(#clipPath6)" />
    <path
       id="path7"
       d="M 636.64001,378.07999 V 415.84"
       style="fill:none;stroke:#000000;stroke-width:26.4;stroke-linecap:round;stroke-linejoin:round;stroke-miterlimit:10;stroke-dasharray:none;stroke-opacity:1"
       transform="translate(-429.8,-340.18668)"
       clip-path="url(#clipPath8)" />
    <path
       id="path9"
       d="M 599.20001,430.39999 598.88,364.16"
       style="fill:none;stroke:#000000;stroke-width:26.4;stroke-linecap:round;stroke-linejoin:round;stroke-miterlimit:10;stroke-dasharray:none;stroke-opacity:1"
       transform="translate(-429.8,-340.18668)"
       clip-path="url(#clipPath10)" />
  </g>
</svg>
