<?xml version="1.0" encoding="UTF-8" standalone="no"?>
<!-- Created with Inkscape (http://www.inkscape.org/) -->

<svg
   version="1.1"
   id="svg1"
   width="449.82666"
   height="410.88"
   viewBox="0 0 449.82666 410.88"
   sodipodi:docname="Glass25.pdf"
   xmlns:inkscape="http://www.inkscape.org/namespaces/inkscape"
   xmlns:sodipodi="http://sodipodi.sourceforge.net/DTD/sodipodi-0.dtd"
   xmlns="http://www.w3.org/2000/svg"
   xmlns:svg="http://www.w3.org/2000/svg">
  <defs
     id="defs1">
    <clipPath
       clipPathUnits="userSpaceOnUse"
       id="clipPath2">
      <path
         d="M 26.4,26.719999 V 767.35998 H 1096 V 26.719999 Z"
         transform="translate(-563.84003,-440.64001)"
         clip-rule="evenodd"
         id="path2" />
    </clipPath>
    <clipPath
       clipPathUnits="userSpaceOnUse"
       id="clipPath4">
      <path
         d="M 26.4,26.719999 V 767.35998 H 1096 V 26.719999 Z"
         transform="translate(-567.67999,-285.44)"
         clip-rule="evenodd"
         id="path4" />
    </clipPath>
    <clipPath
       clipPathUnits="userSpaceOnUse"
       id="clipPath6">
      <path
         d="M 26.4,26.719999 V 767.35998 H 1096 V 26.719999 Z"
         transform="translate(-514.88001,-495.83999)"
         clip-rule="evenodd"
         id="path6" />
    </clipPath>
    <clipPath
       clipPathUnits="userSpaceOnUse"
       id="clipPath8">
      <path
         d="M 26.4,26.719999 V 767.35998 H 1096 V 26.719999 Z"
         transform="translate(-362.88,-497.76001)"
         clip-rule="evenodd"
         id="path8" />
    </clipPath>
    <clipPath
       clipPathUnits="userSpaceOnUse"
       id="clipPath10">
      <path
         d="M 26.4,26.719999 V 767.35998 H 1096 V 26.719999 Z"
         transform="translate(-672.64001,-484.48001)"
         clip-rule="evenodd"
         id="path10" />
    </clipPath>
    <clipPath
       clipPathUnits="userSpaceOnUse"
       id="clipPath12">
      <path
         d="M 26.4,26.719999 V 767.35998 H 1096 V 26.719999 Z"
         transform="translate(-699.52002,-331.67999)"
         clip-rule="evenodd"
         id="path12" />
    </clipPath>
    <clipPath
       clipPathUnits="userSpaceOnUse"
       id="clipPath14">
      <path
         d="M 26.4,26.719999 V 767.35998 H 1096 V 26.719999 Z"
         transform="translate(-616,-531.84002)"
         clip-rule="evenodd"
         id="path14" />
    </clipPath>
  </defs>
  <sodipodi:namedview
     id="namedview1"
     pagecolor="#505050"
     bordercolor="#eeeeee"
     borderopacity="1"
     inkscape:showpageshadow="0"
     inkscape:pageopacity="0"
     inkscape:pagecheckerboard="0"
     inkscape:deskcolor="#505050">
    <inkscape:page
       x="0"
       y="0"
       inkscape:label="1"
       id="page1"
       width="449.82666"
       height="410.88"
       margin="0"
       bleed="0" />
  </sodipodi:namedview>
  <g
     id="g1"
     inkscape:groupmode="layer"
     inkscape:label="1">
    <path
       id="path1"
       d="M 0,0 H 5.44 L 10.72,-0.64 16,-1.6 21.280001,-2.88 26.4,-4.64 31.360001,-6.72 36.16,-9.12 l 4.639999,-2.72 4.48,-3.04 4.16,-3.36 4,-3.68 3.68,-4 3.360001,-4.16 3.04,-4.480001 2.719998,-4.64 L 68.639999,-44 l 2.080002,-4.959999 1.760002,-5.120003 1.279999,-5.279999 0.959999,-5.279998 0.64,-5.279999 0.159996,-5.440003 -0.159996,-5.440002 -0.64,-5.279999 -0.959999,-5.279999 -1.279999,-5.279998 -1.760002,-5.120001 -2.080002,-4.96 -2.400001,-4.8 -2.719998,-4.64 -3.04,-4.48 -3.360001,-4.16 -3.68,-4 -4,-3.68 -4.16,-3.36 -4.48,-3.04 L 36.16,-141.60001 31.360001,-144 26.4,-146.08 21.280001,-147.84 16,-149.11999 10.72,-150.08 5.44,-150.72 0,-151.03999"
       style="fill:none;stroke:#000000;stroke-width:26.4;stroke-linecap:round;stroke-linejoin:round;stroke-miterlimit:10;stroke-dasharray:none;stroke-opacity:1"
       transform="translate(224.80003,245.86667)"
       clip-path="url(#clipPath2)" />
    <path
       id="path3"
       d="m 0,0 2.4,-2.56 2.08,-2.72 1.76,-2.88 1.6,-3.2 1.28,-3.2 0.96,-3.36 0.64,-3.520001 0.32,-3.359998 V -28.32 l -0.32,-3.52 -0.64,-3.360001 -0.96,-3.36 -1.28,-3.359997 -1.6,-3.040001 L 4.48,-48 2.4,-50.720001 0,-53.279999 -2.56,-55.68 -5.28,-57.759998 -8.32,-59.52 l -3.04,-1.599999 -3.36,-1.280003 -3.36,-0.959999 L -21.440001,-64 -24.959999,-64.32 H -28.48 l -3.36,0.32 -3.520001,0.639999 -3.36,0.959999 -3.199997,1.280003 L -45.119999,-59.52 -48,-57.759998 -50.880001,-55.68 l -2.559998,2.240001"
       style="fill:none;stroke:#000000;stroke-width:26.4;stroke-linecap:round;stroke-linejoin:round;stroke-miterlimit:10;stroke-dasharray:none;stroke-opacity:1"
       transform="translate(228.63999,90.666659)"
       clip-path="url(#clipPath4)" />
    <path
       id="path5"
       d="m 0,0 2.72,2.4 2.72,2.08 3.04,1.92 3.2,1.6 3.2,1.28 3.36,0.8 3.52,0.64 3.520001,0.32 h 3.519998 L 32.32,10.72 35.84,10.08 39.200001,8.96 42.400002,7.68 45.599998,6.08 48.48,4.16 51.360001,2.08 53.919998,-0.32 56.16,-3.04 58.240002,-5.92 60,-8.96 l 1.599998,-3.2 1.120003,-3.2 L 63.68,-18.719999 64.160004,-22.24 64.480003,-25.76 64.32,-29.280001 64,-32.799999 63.200001,-36.32 62.240002,-39.68 60.799999,-42.880001 59.200001,-45.919998 57.279999,-48.959999 54.880001,-51.68"
       style="fill:none;stroke:#000000;stroke-width:26.4;stroke-linecap:round;stroke-linejoin:round;stroke-miterlimit:10;stroke-dasharray:none;stroke-opacity:1"
       transform="translate(175.84001,301.06665)"
       clip-path="url(#clipPath6)" />
    <path
       id="path7"
       d="m 0,0 0.32,5.44 0.64,5.44 0.96,5.28 1.44,5.120001 L 5.12,26.4 7.2,31.360001 9.6,36.16 l 2.72,4.639999 3.2,4.48 3.359999,4.16 3.68,3.84 4,3.68 4.16,3.360001 4.480002,3.040001 4.639999,2.720001 4.959999,2.400001 4.959999,2.079995 5.120003,1.600006 L 60,73.440002 l 5.440002,0.96 5.279999,0.479995 5.440003,0.160004 5.439994,-0.160004 5.279999,-0.639999 5.280007,-0.959999 5.279998,-1.440003 L 102.56,70.080002 107.52,68 l 4.8,-2.400002 4.48,-2.719997 4.48,-3.200001 4.16,-3.36 4,-3.680001 3.52001,-4 3.36,-4.159999 3.03999,-4.48 2.72,-4.639999 2.4,-4.960001 2.08,-4.959999 1.6,-5.120001 1.28,-5.28 0.95999,-5.28 0.64,-5.28 v -5.44"
       style="fill:none;stroke:#000000;stroke-width:26.4;stroke-linecap:round;stroke-linejoin:round;stroke-miterlimit:10;stroke-dasharray:none;stroke-opacity:1"
       transform="translate(23.840005,302.98667)"
       clip-path="url(#clipPath8)" />
    <path
       id="path9"
       d="M 0,0 5.44,0.8 10.72,0.96 16.16,0.8 21.440001,0.32 26.879999,-0.64 32,-1.92 37.119999,-3.52 42.240002,-5.6 47.040001,-8 51.68,-10.72 l 4.48,-3.04 4.16,-3.360001 4,-3.679998 3.68,-3.84 3.360001,-4.16 3.199997,-4.48 2.720001,-4.639999 2.400001,-4.800003 2.239998,-4.959999 1.599999,-5.119999 1.440002,-5.119999 0.959999,-5.280003 0.64,-5.439998 0.160003,-5.279999 -0.160003,-5.440003 -0.479996,-5.440002 -0.959999,-5.279999 -1.280007,-5.279999 -1.599998,-5.119999 -2.079994,-4.96 -2.400002,-4.8 -2.720001,-4.64 L 72,-119.36 l -3.360001,-4.16 -3.519996,-4 -4.000004,-3.68 -4.16,-3.52 L 52.48,-137.75999 48,-140.48 l -4.799999,-2.55999 -5.119999,-2.08 -4.960003,-1.76001 -5.279999,-1.28 -5.44,-1.12"
       style="fill:none;stroke:#000000;stroke-width:26.4;stroke-linecap:round;stroke-linejoin:round;stroke-miterlimit:10;stroke-dasharray:none;stroke-opacity:1"
       transform="translate(333.60001,289.70667)"
       clip-path="url(#clipPath10)" />
    <path
       id="path11"
       d="m 0,0 2.88,-2.24 2.4,-2.4 2.24,-2.56 2.08,-2.88 1.76,-3.04 1.44,-3.2 1.12,-3.36 0.8,-3.360001 0.48,-3.359999 0.32,-3.52 -0.16,-3.519999 -0.48,-3.52 -0.8,-3.360001 -0.96,-3.36 -1.44,-3.200001 -1.6,-3.039997 L 8,-52.799999 5.92,-55.52 3.36,-57.919998 0.8,-60.16 -2.08,-62.240002 -5.12,-64 l -3.2,-1.440002 -3.2,-1.119996 -3.52,-0.800003 -3.36,-0.479995 -3.52,-0.320008 -3.520001,0.160004 -3.359998,0.480003 -3.520001,0.799996 -3.2,0.959999 -3.200001,1.440002 -3.039997,1.599999 -3.040001,1.920002"
       style="fill:none;stroke:#000000;stroke-width:26.4;stroke-linecap:round;stroke-linejoin:round;stroke-miterlimit:10;stroke-dasharray:none;stroke-opacity:1"
       transform="translate(360.48002,136.90665)"
       clip-path="url(#clipPath12)" />
    <path
       id="path13"
       d="M 0,0 2.24,2.72 4.8,5.28 7.52,7.52 10.4,9.6 13.44,11.2 16.639999,12.64 20,13.76 l 3.360001,0.96 3.519998,0.48 3.520001,0.16 3.519998,-0.16 3.520001,-0.48 3.36,-0.8 L 44.16,12.8 47.360001,11.36 50.400002,9.6 53.279999,7.52 56,5.28 58.560001,2.88 60.799999,0.16 62.720001,-2.88 64.32,-5.92 65.760002,-9.12 66.879997,-12.48 67.68,-16 68,-19.360001 68.160004,-22.879999 68,-26.4 l -0.639999,-3.52 -0.800003,-3.519999 -1.119996,-3.2 L 63.84,-39.84 62.080002,-43.040001"
       style="fill:none;stroke:#000000;stroke-width:26.4;stroke-linecap:round;stroke-linejoin:round;stroke-miterlimit:10;stroke-dasharray:none;stroke-opacity:1"
       transform="translate(276.96,337.06668)"
       clip-path="url(#clipPath14)" />
  </g>
</svg>
