<?xml version="1.0" encoding="UTF-8" standalone="no"?>
<!-- Created with Inkscape (http://www.inkscape.org/) -->

<svg
   version="1.1"
   id="svg1"
   width="268.29333"
   height="269.48001"
   viewBox="0 0 268.29333 269.48001"
   sodipodi:docname="Glass20.pdf"
   xmlns:inkscape="http://www.inkscape.org/namespaces/inkscape"
   xmlns:sodipodi="http://sodipodi.sourceforge.net/DTD/sodipodi-0.dtd"
   xmlns="http://www.w3.org/2000/svg"
   xmlns:svg="http://www.w3.org/2000/svg">
  <defs
     id="defs1">
    <clipPath
       clipPathUnits="userSpaceOnUse"
       id="clipPath2">
      <path
         d="M 26.4,26.719999 V 767.35998 H 1096 V 26.719999 Z"
         transform="translate(-628.79999,-476.32001)"
         clip-rule="evenodd"
         id="path2" />
    </clipPath>
    <clipPath
       clipPathUnits="userSpaceOnUse"
       id="clipPath4">
      <path
         d="M 26.4,26.719999 V 767.35998 H 1096 V 26.719999 Z"
         transform="translate(3.3333333e-6)"
         clip-rule="evenodd"
         id="path4" />
    </clipPath>
    <clipPath
       clipPathUnits="userSpaceOnUse"
       id="clipPath6">
      <path
         d="M 26.4,26.719999 V 767.35998 H 1096 V 26.719999 Z"
         transform="translate(-527.03998,-369.76001)"
         clip-rule="evenodd"
         id="path6" />
    </clipPath>
    <clipPath
       clipPathUnits="userSpaceOnUse"
       id="clipPath8">
      <path
         d="M 26.4,26.719999 V 767.35998 H 1096 V 26.719999 Z"
         transform="translate(-550.88001,-405.44001)"
         clip-rule="evenodd"
         id="path8" />
    </clipPath>
  </defs>
  <sodipodi:namedview
     id="namedview1"
     pagecolor="#505050"
     bordercolor="#eeeeee"
     borderopacity="1"
     inkscape:showpageshadow="0"
     inkscape:pageopacity="0"
     inkscape:pagecheckerboard="0"
     inkscape:deskcolor="#505050">
    <inkscape:page
       x="0"
       y="0"
       inkscape:label="1"
       id="page1"
       width="268.29333"
       height="269.48001"
       margin="0"
       bleed="0" />
  </sodipodi:namedview>
  <g
     id="g1"
     inkscape:groupmode="layer"
     inkscape:label="1">
    <path
       id="path1"
       d="m 0,0 2.24,-6.4 2.08,-6.56 1.44,-6.72 1.12,-6.72 0.8,-6.719999 L 7.84,-40 v -6.880001 L 7.2,-53.599998 6.4,-60.48 4.96,-67.199997 3.2,-73.760002 l -2.08,-6.400002 -2.56,-6.399994 -2.88,-6.240005 -3.2,-5.919998 -3.68,-5.759999 -4,-5.6 -4.32,-5.28 -4.48,-5.12 -4.959999,-4.8 -5.120003,-4.47999 -5.439998,-4 -5.759999,-3.84002 -5.920002,-3.51998 -6.079998,-3.04001 -6.240001,-2.72 -6.399998,-2.4 -6.560005,-1.92 -6.719994,-1.44 -6.720001,-1.11999 -6.880005,-0.80001 -6.719997,-0.32 -6.88,0.16 -6.88,0.48 -6.72,0.96"
       style="fill:none;stroke:#000000;stroke-width:26.4;stroke-linecap:round;stroke-linejoin:round;stroke-miterlimit:10;stroke-dasharray:none;stroke-opacity:1"
       transform="translate(200.33332,212.17333)"
       clip-path="url(#clipPath2)" />
    <path
       id="path3"
       d="m 448,510.23999 226.40002,-226.56"
       style="fill:none;stroke:#000000;stroke-width:26.4;stroke-linecap:round;stroke-linejoin:round;stroke-miterlimit:10;stroke-dasharray:none;stroke-opacity:1"
       transform="translate(-428.46667,-264.14668)"
       clip-path="url(#clipPath4)" />
    <path
       id="path5"
       d="m 0,0 3.36,-1.12 3.36,-1.28 3.36,-1.44 3.04,-1.6 3.04,-1.76 2.719999,-1.92 2.720001,-1.92 2.24,-1.92 2.24,-2.08 1.76,-2.080001 1.600001,-2.24 1.279998,-2.08 L 31.68,-23.52 l 0.8,-2.24 0.319999,-1.92 v -2.08 l -0.16,-1.92 L 32,-33.599998 31.040001,-35.200001 29.92,-36.799999 28.48,-38.400002 26.719999,-39.68 l -2.08,-1.119999 -2.399999,-1.119999 -2.4,-0.800003 -2.719999,-0.64 L 14.08,-43.68 11.04,-44 H 7.84 4.48 l -3.36,0.32"
       style="fill:none;stroke:#000000;stroke-width:26.4;stroke-linecap:round;stroke-linejoin:round;stroke-miterlimit:10;stroke-dasharray:none;stroke-opacity:1"
       transform="translate(98.573311,105.61333)"
       clip-path="url(#clipPath6)" />
    <path
       id="path7"
       d="m 0,0 3.04,-1.76 2.88,-1.76 2.56,-1.92 2.4,-1.92 2.24,-2.08 1.92,-2.08 1.599999,-2.24 1.280001,-2.08 1.120001,-2.24 0.639999,-2.08 0.48,-2.08 v -2.08 L 20,-26.24 19.360001,-28 18.559999,-29.76 17.440001,-31.360001 16,-32.959999 14.24,-34.240002 12.16,-35.52 9.92,-36.48 7.36,-37.279999 4.8,-37.919998 l -3.04,-0.480004 -3.04,-0.319999 -3.2,-0.16 -3.36,0.16 -3.36,0.319999 -3.52,0.480004 -3.36,0.639999 -3.52,0.959999"
       style="fill:none;stroke:#000000;stroke-width:26.4;stroke-linecap:round;stroke-linejoin:round;stroke-miterlimit:10;stroke-dasharray:none;stroke-opacity:1"
       transform="translate(122.41334,141.29333)"
       clip-path="url(#clipPath8)" />
  </g>
</svg>
