<?xml version="1.0" encoding="UTF-8" standalone="no"?>
<!-- Created with Inkscape (http://www.inkscape.org/) -->

<svg
   version="1.1"
   id="svg1"
   width="393.76001"
   height="304.16"
   viewBox="0 0 393.76001 304.16"
   sodipodi:docname="Glass16.pdf"
   xmlns:inkscape="http://www.inkscape.org/namespaces/inkscape"
   xmlns:sodipodi="http://sodipodi.sourceforge.net/DTD/sodipodi-0.dtd"
   xmlns="http://www.w3.org/2000/svg"
   xmlns:svg="http://www.w3.org/2000/svg">
  <defs
     id="defs1">
    <clipPath
       clipPathUnits="userSpaceOnUse"
       id="clipPath2">
      <path
         d="M 26.4,26.719999 V 767.35998 H 1096 V 26.719999 Z"
         transform="translate(-636.64001,-349.76001)"
         clip-rule="evenodd"
         id="path2" />
    </clipPath>
    <clipPath
       clipPathUnits="userSpaceOnUse"
       id="clipPath4">
      <path
         d="M 26.4,26.719999 V 767.35998 H 1096 V 26.719999 Z"
         transform="translate(-466.88,-368.64001)"
         clip-rule="evenodd"
         id="path4" />
    </clipPath>
    <clipPath
       clipPathUnits="userSpaceOnUse"
       id="clipPath6">
      <path
         d="M 26.4,26.719999 V 767.35998 H 1096 V 26.719999 Z"
         transform="translate(-655.52002,-519.67999)"
         clip-rule="evenodd"
         id="path6" />
    </clipPath>
    <clipPath
       clipPathUnits="userSpaceOnUse"
       id="clipPath8">
      <path
         d="M 26.4,26.719999 V 767.35998 H 1096 V 26.719999 Z"
         clip-rule="evenodd"
         id="path8" />
    </clipPath>
    <clipPath
       clipPathUnits="userSpaceOnUse"
       id="clipPath10">
      <path
         d="M 26.4,26.719999 V 767.35998 H 1096 V 26.719999 Z"
         clip-rule="evenodd"
         id="path10" />
    </clipPath>
    <clipPath
       clipPathUnits="userSpaceOnUse"
       id="clipPath12">
      <path
         d="M 26.4,26.719999 V 767.35998 H 1096 V 26.719999 Z"
         clip-rule="evenodd"
         id="path12" />
    </clipPath>
    <clipPath
       clipPathUnits="userSpaceOnUse"
       id="clipPath14">
      <path
         d="M 26.4,26.719999 V 767.35998 H 1096 V 26.719999 Z"
         clip-rule="evenodd"
         id="path14" />
    </clipPath>
    <clipPath
       clipPathUnits="userSpaceOnUse"
       id="clipPath16">
      <path
         d="M 26.4,26.719999 V 767.35998 H 1096 V 26.719999 Z"
         clip-rule="evenodd"
         id="path16" />
    </clipPath>
  </defs>
  <sodipodi:namedview
     id="namedview1"
     pagecolor="#505050"
     bordercolor="#eeeeee"
     borderopacity="1"
     inkscape:showpageshadow="0"
     inkscape:pageopacity="0"
     inkscape:pagecheckerboard="0"
     inkscape:deskcolor="#505050">
    <inkscape:page
       x="0"
       y="0"
       inkscape:label="1"
       id="page1"
       width="393.76001"
       height="304.16"
       margin="0"
       bleed="0" />
  </sodipodi:namedview>
  <g
     id="g1"
     inkscape:groupmode="layer"
     inkscape:label="1">
    <path
       id="path1"
       d="M 0,0 -0.16,-5.44 -0.64,-10.72 -1.6,-16 -3.04,-21.280001 -4.64,-26.4 -6.72,-31.360001 -9.12,-36.16 -12,-40.799999 l -3.04,-4.48 -3.36,-4.16 -3.68,-4 -4,-3.68 -4.16,-3.360001 -4.480001,-3.04 -4.64,-2.719998 -4.799999,-2.400001 -4.959999,-2.080002 -5.120003,-1.760002 -5.279998,-1.279999 -5.280003,-0.959999 -5.279999,-0.64 -5.439995,-0.159996 -5.440002,0.159996 -5.279999,0.64 -5.440002,0.959999 -5.120003,1.279999 -5.119997,1.760002 -4.96,2.080002 -4.8,2.400001 -4.64,2.879997 -4.48,3.040001 -4.16,3.360001 -4.00001,3.68 -3.67999,4 -3.36,4.16 -3.03999,4.48 -2.72,4.639999 -2.40001,4.799999 -2.08,4.960001 -1.76,5.119999 -1.28,5.280001 -0.96,5.28 -0.48,5.44 -0.16,5.28"
       style="fill:none;stroke:#000000;stroke-width:26.4;stroke-linecap:round;stroke-linejoin:round;stroke-miterlimit:10;stroke-dasharray:none;stroke-opacity:1"
       transform="translate(636.64001,364.42667)"
       clip-path="url(#clipPath2)" />
    <path
       id="path3"
       d="M 0,0 -5.44,0.16 -10.88,0.8 -16.16,1.76 -21.280001,3.04 -26.4,4.8 l -5.12,2.08 -4.8,2.4 -4.639999,2.72 -4.32,3.04 -4.319999,3.36 -3.840001,3.68 -3.68,4 -3.360001,4.16 -3.04,4.480001 -2.880002,4.64 -2.400001,4.799999 -2.079994,4.959999 -1.600006,5.120003 -1.439995,5.279998 -0.959999,5.280003 -0.480004,5.279999 -0.159996,5.439995 0.159996,5.440002 0.480004,5.279999 0.959999,5.279999 1.439995,5.280006 1.600006,5.119997 2.079994,4.96 2.400001,4.8 2.880002,4.64 3.04,4.48 3.360001,4.16 3.68,4.00001 3.840001,3.67999 4.319999,3.36 4.32,3.03999 4.639999,2.72 4.8,2.40001 5.12,2.08 5.119999,1.76 5.120001,1.28 5.28,0.96 5.44,0.64 5.44,0.15999"
       style="fill:none;stroke:#000000;stroke-width:26.4;stroke-linecap:round;stroke-linejoin:round;stroke-miterlimit:10;stroke-dasharray:none;stroke-opacity:1"
       transform="translate(466.88,383.30667)"
       clip-path="url(#clipPath4)" />
    <path
       id="path5"
       d="M 0,0 5.44,-0.16 10.72,-0.8 16,-1.76 21.280001,-3.04 26.4,-4.8 31.360001,-6.72 36.16,-9.12 l 4.639999,-2.72 4.32,-3.2 4.32,-3.36 3.84,-3.52 3.68,-4 3.360001,-4.16 3.2,-4.320002 2.719998,-4.639999 2.400001,-4.799999 2.080002,-4.959999 1.760002,-5.119999 1.279999,-5.120003 0.959999,-5.279999 0.64,-5.440002 0.159996,-5.279999 -0.159996,-5.440002 -0.480004,-5.279999 -0.959999,-5.279999 -1.279999,-5.279999 -1.599998,-5.12 -2.080002,-4.96 -2.400001,-4.8 L 64,-115.84 l -3.040001,-4.48 -3.360001,-4.16 -3.68,-4 -3.839996,-3.68 -4.160004,-3.36 -4.479999,-3.2 -4.48,-2.72 -4.799999,-2.4 -4.959999,-2.24 -5.120001,-1.59999 -5.120001,-1.44 L 11.68,-150.08 l -5.44,-0.64 -5.28,-0.31999"
       style="fill:none;stroke:#000000;stroke-width:26.4;stroke-linecap:round;stroke-linejoin:round;stroke-miterlimit:10;stroke-dasharray:none;stroke-opacity:1"
       transform="translate(655.52002,534.34665)"
       clip-path="url(#clipPath6)" />
    <path
       id="path7"
       d="m 485.76001,349.76001 v 18.88"
       style="fill:none;stroke:#000000;stroke-width:26.4;stroke-linecap:round;stroke-linejoin:round;stroke-miterlimit:10;stroke-dasharray:none;stroke-opacity:1"
       transform="translate(0,14.666657)"
       clip-path="url(#clipPath8)" />
    <path
       id="path9"
       d="m 466.88,368.64001 h 18.88001"
       style="fill:none;stroke:#000000;stroke-width:26.4;stroke-linecap:round;stroke-linejoin:round;stroke-miterlimit:10;stroke-dasharray:none;stroke-opacity:1"
       transform="translate(0,14.666657)"
       clip-path="url(#clipPath10)" />
    <path
       id="path11"
       d="m 636.64001,349.76001 v 18.88"
       style="fill:none;stroke:#000000;stroke-width:26.4;stroke-linecap:round;stroke-linejoin:round;stroke-miterlimit:10;stroke-dasharray:none;stroke-opacity:1"
       transform="translate(0,14.666657)"
       clip-path="url(#clipPath12)" />
    <path
       id="path13"
       d="m 636.64001,368.64001 h 18.88001"
       style="fill:none;stroke:#000000;stroke-width:26.4;stroke-linecap:round;stroke-linejoin:round;stroke-miterlimit:10;stroke-dasharray:none;stroke-opacity:1"
       transform="translate(0,14.666657)"
       clip-path="url(#clipPath14)" />
    <path
       id="path15"
       d="M 466.88,519.67999 H 655.52002"
       style="fill:none;stroke:#000000;stroke-width:26.4;stroke-linecap:round;stroke-linejoin:round;stroke-miterlimit:10;stroke-dasharray:none;stroke-opacity:1"
       transform="translate(0,14.666657)"
       clip-path="url(#clipPath16)" />
  </g>
</svg>
