<?xml version="1.0" encoding="UTF-8" standalone="no"?>
<!-- Created with Inkscape (http://www.inkscape.org/) -->

<svg
   version="1.1"
   id="svg1"
   width="580.64001"
   height="246.8"
   viewBox="0 0 580.64001 246.8"
   sodipodi:docname="Glue5.pdf"
   xmlns:inkscape="http://www.inkscape.org/namespaces/inkscape"
   xmlns:sodipodi="http://sodipodi.sourceforge.net/DTD/sodipodi-0.dtd"
   xmlns="http://www.w3.org/2000/svg"
   xmlns:svg="http://www.w3.org/2000/svg">
  <defs
     id="defs1">
    <clipPath
       clipPathUnits="userSpaceOnUse"
       id="clipPath2">
      <path
         d="M 26.4,26.719999 V 767.35998 H 1096 V 26.719999 Z"
         transform="translate(-448,-398.88001)"
         clip-rule="evenodd"
         id="path2" />
    </clipPath>
    <clipPath
       clipPathUnits="userSpaceOnUse"
       id="clipPath4">
      <path
         d="M 26.4,26.719999 V 767.35998 H 1096 V 26.719999 Z"
         transform="translate(-448,-398.88001)"
         clip-rule="evenodd"
         id="path4" />
    </clipPath>
    <clipPath
       clipPathUnits="userSpaceOnUse"
       id="clipPath6">
      <path
         d="M 26.4,26.719999 V 767.35998 H 1096 V 26.719999 Z"
         transform="translate(-598.08002,-398.23999)"
         clip-rule="evenodd"
         id="path6" />
    </clipPath>
    <clipPath
       clipPathUnits="userSpaceOnUse"
       id="clipPath8">
      <path
         d="M 26.4,26.719999 V 767.35998 H 1096 V 26.719999 Z"
         transform="translate(3.3333333e-6)"
         clip-rule="evenodd"
         id="path8" />
    </clipPath>
    <clipPath
       clipPathUnits="userSpaceOnUse"
       id="clipPath10">
      <path
         d="M 26.4,26.719999 V 767.35998 H 1096 V 26.719999 Z"
         transform="translate(3.3333333e-6)"
         clip-rule="evenodd"
         id="path10" />
    </clipPath>
    <clipPath
       clipPathUnits="userSpaceOnUse"
       id="clipPath12">
      <path
         d="M 26.4,26.719999 V 767.35998 H 1096 V 26.719999 Z"
         transform="translate(3.3333333e-6)"
         clip-rule="evenodd"
         id="path12" />
    </clipPath>
    <clipPath
       clipPathUnits="userSpaceOnUse"
       id="clipPath14">
      <path
         d="M 26.4,26.719999 V 767.35998 H 1096 V 26.719999 Z"
         transform="translate(3.3333333e-6)"
         clip-rule="evenodd"
         id="path14" />
    </clipPath>
    <clipPath
       clipPathUnits="userSpaceOnUse"
       id="clipPath16">
      <path
         d="M 26.4,26.719999 V 767.35998 H 1096 V 26.719999 Z"
         transform="translate(-689.44001,-435.04001)"
         clip-rule="evenodd"
         id="path16" />
    </clipPath>
    <clipPath
       clipPathUnits="userSpaceOnUse"
       id="clipPath18">
      <path
         d="M 26.4,26.719999 V 767.35998 H 1096 V 26.719999 Z"
         transform="translate(-712.15998,-323.35999)"
         clip-rule="evenodd"
         id="path18" />
    </clipPath>
    <clipPath
       clipPathUnits="userSpaceOnUse"
       id="clipPath20">
      <path
         d="M 26.4,26.719999 V 767.35998 H 1096 V 26.719999 Z"
         transform="translate(-712.15998,-323.35999)"
         clip-rule="evenodd"
         id="path20" />
    </clipPath>
  </defs>
  <sodipodi:namedview
     id="namedview1"
     pagecolor="#505050"
     bordercolor="#eeeeee"
     borderopacity="1"
     inkscape:showpageshadow="0"
     inkscape:pageopacity="0"
     inkscape:pagecheckerboard="0"
     inkscape:deskcolor="#505050">
    <inkscape:page
       x="0"
       y="0"
       inkscape:label="1"
       id="page1"
       width="580.64001"
       height="246.8"
       margin="0"
       bleed="0" />
  </sodipodi:namedview>
  <g
     id="g1"
     inkscape:groupmode="layer"
     inkscape:label="1">
    <path
       id="path1"
       d="m 0,0 -7.52,-3.68 -7.52,-3.36 -7.679999,-2.88 -8,-2.56 -8.000002,-2.08 -8,-1.76 -8.16,-1.28 -8.32,-0.8 -8.319996,-0.479999 H -79.68 L -88,-18.4 l -8.160004,0.8 -8.159996,1.28 -8.16,1.76 -8,2.08 -7.84001,2.56 -7.83999,2.88 -7.51999,3.36 -7.36,3.68"
       style="fill:none;stroke:#000000;stroke-width:26.4;stroke-linecap:round;stroke-linejoin:round;stroke-miterlimit:10;stroke-dasharray:none;stroke-opacity:1"
       transform="translate(178.37333,125.4)"
       clip-path="url(#clipPath2)" />
    <path
       id="path3"
       d="m 0,0 7.36,3.68 7.52,3.36 7.839999,2.88 7.84,2.56 8.000002,2.08 8,1.76 8.32,1.28 8.16,0.8 8.32,0.479999 h 8.159996 L 87.839996,18.4 96,17.6 l 8.32,-1.28 8,-1.76 8,-2.08 7.84,-2.56 L 136,7.04 143.52,3.68 151.03999,0"
       style="fill:none;stroke:#000000;stroke-width:26.4;stroke-linecap:round;stroke-linejoin:round;stroke-miterlimit:10;stroke-dasharray:none;stroke-opacity:1"
       transform="translate(178.37333,125.4)"
       clip-path="url(#clipPath4)" />
    <path
       id="path5"
       d="m 0,0 3.84,-1.12 3.68,-1.44 3.84,-1.6 3.84,-2.08 3.840001,-2.24 3.839998,-2.4 3.84,-2.72 L 30.4,-16.639999 33.919998,-19.68 l 3.520001,-3.360001 3.36,-3.519998 L 43.84,-30.08 l 3.040001,-3.839998 2.719997,-3.68 2.560002,-4 2.400001,-3.840001 2.079998,-4 1.760003,-3.84 1.599998,-4 1.279999,-3.84 0.960003,-3.680004 0.639999,-3.68 0.32,-3.519997 0.16,-3.519997 -0.32,-3.200004 -0.48,-3.040001 -0.800003,-2.879997 -1.119999,-2.559998 -1.439998,-2.400001 L 57.599998,-91.68 55.68,-93.599998 53.439999,-95.199997 51.040001,-96.480003 48.32,-97.440002 l -2.880001,-0.64 -3.039997,-0.479996 h -3.200001 l -3.360001,0.159996 -3.52,0.480004 -3.680001,0.959999 -3.68,1.120003 -3.839998,1.439994 -3.84,1.599999 -3.840001,2.080002 -3.84,2.239998 -3.84,2.400001 -3.68,2.720001 -3.84,3.040001 -3.52,3.040001 -3.52,3.360001 -3.2,3.519996 -3.2,3.520005 -3.04,3.679996 -2.719999,3.84 L -23.52,-55.52 l -2.4,4 -2.08,3.84 -1.76,4 -1.600001,3.84 -1.279998,3.84 -0.959999,3.84 -0.640004,3.68 -0.319999,3.520001"
       style="fill:none;stroke:#000000;stroke-width:26.4;stroke-linecap:round;stroke-linejoin:round;stroke-miterlimit:10;stroke-dasharray:none;stroke-opacity:1"
       transform="translate(328.45335,124.75998)"
       clip-path="url(#clipPath6)" />
    <path
       id="path7"
       d="m 563.52002,373.28 -2.23999,101.11999"
       style="fill:none;stroke:#000000;stroke-width:26.4;stroke-linecap:round;stroke-linejoin:round;stroke-miterlimit:10;stroke-dasharray:none;stroke-opacity:1"
       transform="translate(-269.62667,-273.48001)"
       clip-path="url(#clipPath8)" />
    <path
       id="path9"
       d="m 561.28003,474.39999 h 75.35998"
       style="fill:none;stroke:#000000;stroke-width:26.4;stroke-linecap:round;stroke-linejoin:round;stroke-miterlimit:10;stroke-dasharray:none;stroke-opacity:1"
       transform="translate(-269.62667,-273.48001)"
       clip-path="url(#clipPath10)" />
    <path
       id="path11"
       d="M 636.64001,474.39999 V 398.88"
       style="fill:none;stroke:#000000;stroke-width:26.4;stroke-linecap:round;stroke-linejoin:round;stroke-miterlimit:10;stroke-dasharray:none;stroke-opacity:1"
       transform="translate(-269.62667,-273.48001)"
       clip-path="url(#clipPath12)" />
    <path
       id="path13"
       d="m 636.64001,398.88 h 75.51996"
       style="fill:none;stroke:#000000;stroke-width:26.4;stroke-linecap:round;stroke-linejoin:round;stroke-miterlimit:10;stroke-dasharray:none;stroke-opacity:1"
       transform="translate(-269.62667,-273.48001)"
       clip-path="url(#clipPath14)" />
    <path
       id="path15"
       d="m 0,0 1.28,3.68 1.6,3.68 1.92,3.84 2.24,3.68 2.4,3.679999 2.72,3.680001 2.88,3.68 3.2,3.520001 3.36,3.359998 3.520001,3.360001 3.519998,3.040001 3.840001,3.040001 3.84,2.719997 4,2.560001 4,2.399998 4,2.080002 4,1.919998 4.16,1.600002 3.84,1.279999 4,1.119999 3.840004,0.640003 3.679992,0.48 3.520005,0.32 3.36,-0.16 3.199997,-0.48 3.040001,-0.639999 2.879997,-0.960003 L 90.400002,55.84 92.639999,54.400002 94.720001,52.48 96.480003,50.560001 97.919998,48.16 99.040001,45.759998 100,43.040001 100.48,40.16 100.64,36.959999 V 33.759998 L 100.16,30.4 99.519997,26.879999 98.400002,23.360001 97.120003,19.68 95.519997,16 93.599998,12.32 91.360001,8.48 88.959999,4.8 86.239998,1.12 l -2.879997,-3.68 -3.199997,-3.52 -3.360001,-3.36 -3.360001,-3.2 -3.68,-3.2 -3.840004,-2.879999 -3.839996,-2.880001 -4,-2.56 -4,-2.399999 -4,-2.08 -4,-1.760001 -4,-1.6 -4,-1.439999 -4,-0.960003 L 30.4,-35.200001 26.559999,-35.68 23.040001,-35.84"
       style="fill:none;stroke:#000000;stroke-width:26.4;stroke-linecap:round;stroke-linejoin:round;stroke-miterlimit:10;stroke-dasharray:none;stroke-opacity:1"
       transform="translate(419.81334,161.56)"
       clip-path="url(#clipPath16)" />
    <path
       id="path17"
       d="m 0,0 -4.48,6.4 -4,6.72 -3.84,6.88 -3.2,7.200001 -3.039999,7.200001 -2.4,7.519996 -2.080002,7.520001 -1.439999,7.68 -1.12,7.84 -0.8,7.840004 -0.159999,7.839996 0.319999,7.840004 0.64,7.839997 1.28,7.68 1.600001,7.68"
       style="fill:none;stroke:#000000;stroke-width:26.4;stroke-linecap:round;stroke-linejoin:round;stroke-miterlimit:10;stroke-dasharray:none;stroke-opacity:1"
       transform="translate(442.53331,49.879976)"
       clip-path="url(#clipPath18)" />
    <path
       id="path19"
       d="m 0,0 2.08,4.32 2.4,4.16 2.72,4 2.88,3.84 3.36,3.52 3.519999,3.200001 3.68,3.039999 4,2.719999 4.32,2.240002 4.32,2.079998 4.479999,1.600002 L 42.400002,36 l 4.799999,0.959999 4.639999,0.639999 4.799999,0.16 4.8,-0.16 4.799999,-0.639999 L 71.040001,36 75.68,34.720001 l 4.480004,-1.600002 4.319999,-2.079998 4.159996,-2.240002 4,-2.719999 3.840004,-3.039999 L 100,19.84 l 3.36,-3.52 2.88,-3.84 2.72,-4 2.4,-4.16 1.92,-4.32"
       style="fill:none;stroke:#000000;stroke-width:26.4;stroke-linecap:round;stroke-linejoin:round;stroke-miterlimit:10;stroke-dasharray:none;stroke-opacity:1"
       transform="translate(442.53331,49.879976)"
       clip-path="url(#clipPath20)" />
  </g>
</svg>
