<?xml version="1.0" encoding="UTF-8" standalone="no"?>
<!-- Created with Inkscape (http://www.inkscape.org/) -->

<svg
   version="1.1"
   id="svg1"
   width="453.57333"
   height="556.61334"
   viewBox="0 0 453.57333 556.61334"
   sodipodi:docname="Glue11.pdf"
   xmlns:inkscape="http://www.inkscape.org/namespaces/inkscape"
   xmlns:sodipodi="http://sodipodi.sourceforge.net/DTD/sodipodi-0.dtd"
   xmlns="http://www.w3.org/2000/svg"
   xmlns:svg="http://www.w3.org/2000/svg">
  <defs
     id="defs1">
    <clipPath
       clipPathUnits="userSpaceOnUse"
       id="clipPath2">
      <path
         d="M 0,0.16 V 1122.5601 H 793.59998 V 0.16 Z"
         transform="translate(3.3333334e-6)"
         clip-rule="evenodd"
         id="path2" />
    </clipPath>
    <clipPath
       clipPathUnits="userSpaceOnUse"
       id="clipPath4">
      <path
         d="M 0,0.16 V 1122.5601 H 793.59998 V 0.16 Z"
         transform="translate(-593.76001,-420)"
         clip-rule="evenodd"
         id="path4" />
    </clipPath>
    <clipPath
       clipPathUnits="userSpaceOnUse"
       id="clipPath6">
      <path
         d="M 0,0.16 V 1122.5601 H 793.59998 V 0.16 Z"
         transform="translate(3.3333334e-6)"
         clip-rule="evenodd"
         id="path6" />
    </clipPath>
  </defs>
  <sodipodi:namedview
     id="namedview1"
     pagecolor="#505050"
     bordercolor="#eeeeee"
     borderopacity="1"
     inkscape:showpageshadow="0"
     inkscape:pageopacity="0"
     inkscape:pagecheckerboard="0"
     inkscape:deskcolor="#505050">
    <inkscape:page
       x="0"
       y="0"
       inkscape:label="1"
       id="page1"
       width="453.57333"
       height="556.61334"
       margin="0"
       bleed="0" />
  </sodipodi:namedview>
  <g
     id="g1"
     inkscape:groupmode="layer"
     inkscape:label="1">
    <path
       id="path1"
       d="M 198.39999,816.79999 508,507.67999"
       style="fill:none;stroke:#000000;stroke-width:26.4;stroke-linecap:round;stroke-linejoin:round;stroke-miterlimit:10;stroke-dasharray:none;stroke-opacity:1"
       transform="translate(-169.42667,-280.30673)"
       clip-path="url(#clipPath2)" />
    <path
       id="path3"
       d="m 0,0 -3.52,-3.2 -3.68,-3.04 -3.84,-2.56 -4.16,-2.4 -4.32,-1.92 -4.48,-1.6 -4.639999,-1.28 -4.64,-0.959999 -4.639999,-0.640001 -4.800003,-0.16 -4.64,0.16 L -52.16,-16.959999 -56.799999,-16 l -4.48,1.28 -4.480003,1.6 -4.32,1.92 -4.159996,2.4 -4,2.56 -3.68,3.04 -3.520004,3.2 -3.199997,3.52 -2.879998,3.68 -2.720001,3.84 -2.240005,4.16 -2.079995,4.32 -1.600002,4.48 -1.28,4.639999 -0.96,4.64 -0.48,4.639999 -0.16,4.800003 0.16,4.64 0.48,4.799999 0.96,4.639999 1.28,4.48 1.600002,4.480003 2.079995,4.32 2.240005,4.159996 2.720001,4 2.879998,3.68 3.199997,3.520004"
       style="fill:none;stroke:#000000;stroke-width:26.4;stroke-linecap:round;stroke-linejoin:round;stroke-miterlimit:10;stroke-dasharray:none;stroke-opacity:1"
       transform="translate(424.33334,139.69327)"
       clip-path="url(#clipPath4)" />
    <path
       id="path5"
       d="M 198.39999,816.79999 V 304.16"
       style="fill:none;stroke:#000000;stroke-width:26.4;stroke-linecap:round;stroke-linejoin:round;stroke-miterlimit:10;stroke-dasharray:none;stroke-opacity:1"
       transform="translate(-169.42667,-280.30673)"
       clip-path="url(#clipPath6)" />
  </g>
</svg>
