<?xml version="1.0" encoding="UTF-8" standalone="no"?>
<!-- Created with Inkscape (http://www.inkscape.org/) -->

<svg
   version="1.1"
   id="svg1"
   width="568.30664"
   height="340.37332"
   viewBox="0 0 568.30664 340.37332"
   sodipodi:docname="Glue17.pdf"
   xmlns:inkscape="http://www.inkscape.org/namespaces/inkscape"
   xmlns:sodipodi="http://sodipodi.sourceforge.net/DTD/sodipodi-0.dtd"
   xmlns="http://www.w3.org/2000/svg"
   xmlns:svg="http://www.w3.org/2000/svg">
  <defs
     id="defs1">
    <clipPath
       clipPathUnits="userSpaceOnUse"
       id="clipPath2">
      <path
         d="M 0,0.16 V 1122.5601 H 793.59998 V 0.16 Z"
         transform="translate(-311.83999,-476.32001)"
         clip-rule="evenodd"
         id="path2" />
    </clipPath>
    <clipPath
       clipPathUnits="userSpaceOnUse"
       id="clipPath4">
      <path
         d="M 0,0.16 V 1122.5601 H 793.59998 V 0.16 Z"
         transform="translate(-481.76001,-476.32001)"
         clip-rule="evenodd"
         id="path4" />
    </clipPath>
    <clipPath
       clipPathUnits="userSpaceOnUse"
       id="clipPath6">
      <path
         d="M 0,0.16 V 1122.5601 H 793.59998 V 0.16 Z"
         transform="translate(-311.83999,-646.23999)"
         clip-rule="evenodd"
         id="path6" />
    </clipPath>
    <clipPath
       clipPathUnits="userSpaceOnUse"
       id="clipPath8">
      <path
         d="M 0,0.16 V 1122.5601 H 793.59998 V 0.16 Z"
         transform="translate(-481.76001,-646.23999)"
         clip-rule="evenodd"
         id="path8" />
    </clipPath>
    <clipPath
       clipPathUnits="userSpaceOnUse"
       id="clipPath10">
      <path
         d="M 0,0.16 V 1122.5601 H 793.59998 V 0.16 Z"
         transform="translate(-564.79998,-598.40002)"
         clip-rule="evenodd"
         id="path10" />
    </clipPath>
    <clipPath
       clipPathUnits="userSpaceOnUse"
       id="clipPath12">
      <path
         d="M 0,0.16 V 1122.5601 H 793.59998 V 0.16 Z"
         transform="translate(-3.3333333e-6)"
         clip-rule="evenodd"
         id="path12" />
    </clipPath>
    <clipPath
       clipPathUnits="userSpaceOnUse"
       id="clipPath14">
      <path
         d="M 0,0.16 V 1122.5601 H 793.59998 V 0.16 Z"
         transform="translate(-3.3333333e-6)"
         clip-rule="evenodd"
         id="path14" />
    </clipPath>
    <clipPath
       clipPathUnits="userSpaceOnUse"
       id="clipPath16">
      <path
         d="M 0,0.16 V 1122.5601 H 793.59998 V 0.16 Z"
         transform="translate(-3.3333333e-6)"
         clip-rule="evenodd"
         id="path16" />
    </clipPath>
    <clipPath
       clipPathUnits="userSpaceOnUse"
       id="clipPath18">
      <path
         d="M 0,0.16 V 1122.5601 H 793.59998 V 0.16 Z"
         transform="translate(-3.3333333e-6)"
         clip-rule="evenodd"
         id="path18" />
    </clipPath>
    <clipPath
       clipPathUnits="userSpaceOnUse"
       id="clipPath20">
      <path
         d="M 0,0.16 V 1122.5601 H 793.59998 V 0.16 Z"
         transform="translate(-3.3333333e-6)"
         clip-rule="evenodd"
         id="path20" />
    </clipPath>
    <clipPath
       clipPathUnits="userSpaceOnUse"
       id="clipPath22">
      <path
         d="M 0,0.16 V 1122.5601 H 793.59998 V 0.16 Z"
         transform="translate(-3.3333333e-6)"
         clip-rule="evenodd"
         id="path22" />
    </clipPath>
  </defs>
  <sodipodi:namedview
     id="namedview1"
     pagecolor="#505050"
     bordercolor="#eeeeee"
     borderopacity="1"
     inkscape:showpageshadow="0"
     inkscape:pageopacity="0"
     inkscape:pagecheckerboard="0"
     inkscape:deskcolor="#505050">
    <inkscape:page
       x="0"
       y="0"
       inkscape:label="1"
       id="page1"
       width="568.30664"
       height="340.37332"
       margin="0"
       bleed="0" />
  </sodipodi:namedview>
  <g
     id="g1"
     inkscape:groupmode="layer"
     inkscape:label="1">
    <path
       id="path1"
       d="M 0,0 C 0,-31.280001 -25.35,-56.639999 -56.639999,-56.639999 -87.93,-56.639999 -113.28,-31.280001 -113.28,0 c 0,31.280001 25.35,56.639999 56.640001,56.639999 C -25.35,56.639999 0,31.280001 0,0 Z"
       style="fill:none;stroke:#000000;stroke-width:26.4;stroke-linecap:round;stroke-linejoin:round;stroke-miterlimit:10;stroke-dasharray:none;stroke-opacity:1"
       transform="translate(193.10666,85.226615)"
       clip-path="url(#clipPath2)" />
    <path
       id="path3"
       d="M 0,0 C 0,-31.280001 -25.35,-56.639999 -56.639999,-56.639999 -87.93,-56.639999 -113.28,-31.280001 -113.28,0 c 0,31.280001 25.35,56.639999 56.640001,56.639999 C -25.35,56.639999 0,31.280001 0,0 Z"
       style="fill:none;stroke:#000000;stroke-width:26.4;stroke-linecap:round;stroke-linejoin:round;stroke-miterlimit:10;stroke-dasharray:none;stroke-opacity:1"
       transform="translate(363.02668,85.226615)"
       clip-path="url(#clipPath4)" />
    <path
       id="path5"
       d="M 0,0 C 0,-31.280001 -25.35,-56.639999 -56.639999,-56.639999 -87.93,-56.639999 -113.28,-31.280001 -113.28,0 c 0,31.280001 25.35,56.639999 56.640001,56.639999 C -25.35,56.639999 0,31.280001 0,0 Z"
       style="fill:none;stroke:#000000;stroke-width:26.4;stroke-linecap:round;stroke-linejoin:round;stroke-miterlimit:10;stroke-dasharray:none;stroke-opacity:1"
       transform="translate(193.10666,255.1466)"
       clip-path="url(#clipPath6)" />
    <path
       id="path7"
       d="M 0,0 C 0,-31.280001 -25.35,-56.639999 -56.639999,-56.639999 -87.93,-56.639999 -113.28,-31.280001 -113.28,0 c 0,31.280001 25.35,56.639999 56.640001,56.639999 C -25.35,56.639999 0,31.280001 0,0 Z"
       style="fill:none;stroke:#000000;stroke-width:26.4;stroke-linecap:round;stroke-linejoin:round;stroke-miterlimit:10;stroke-dasharray:none;stroke-opacity:1"
       transform="translate(363.02668,255.1466)"
       clip-path="url(#clipPath8)" />
    <path
       id="path9"
       d="m 0,0 -3.68,2.4 -3.36,2.88 -3.2,3.04 -3.04,3.36 -2.72,3.52 -2.4,3.679999 -2.08,3.84 -1.76,4 -1.6,4.16 -1.119999,4.320002 L -25.76,39.52 -26.24,44 l -0.16,4.48 0.32,4.319999 0.48,4.48 0.960001,4.319999 1.279998,4.32 1.440001,4 1.92,4 2.24,4 2.56,3.520004 2.72,3.519997 3.04,3.200005 3.2,3.039993 3.52,2.720001 3.68,2.400002 4,2.239998 4,1.760002 4.16,1.44 4.320001,1.28 4.319999,0.8 4.32,0.48 4.479999,0.16 4.480002,-0.16 4.32,-0.64 4.319999,-0.8 4.32,-1.28 4.16,-1.44 4,-1.920002 L 60,96 l 3.68,-2.400002 3.519997,-2.720001 3.200005,-3.040001 3.04,-3.359993 2.720002,-3.36 2.399994,-3.680001 2.240005,-4 1.759995,-4 1.600006,-4.160003 1.119995,-4.32 0.959999,-4.32 0.480003,-4.319999 0.159996,-4.48"
       style="fill:none;stroke:#000000;stroke-width:26.4;stroke-linecap:round;stroke-linejoin:round;stroke-miterlimit:10;stroke-dasharray:none;stroke-opacity:1"
       transform="translate(446.06665,207.30663)"
       clip-path="url(#clipPath10)" />
    <path
       id="path11"
       d="M 651.67999,646.23999 H 141.92"
       style="fill:none;stroke:#000000;stroke-width:26.4;stroke-linecap:round;stroke-linejoin:round;stroke-miterlimit:10;stroke-dasharray:none;stroke-opacity:1"
       transform="translate(-118.73333,-391.09339)"
       clip-path="url(#clipPath12)" />
    <path
       id="path13"
       d="M 141.92,476.32001 H 538.40002"
       style="fill:none;stroke:#000000;stroke-width:26.4;stroke-linecap:round;stroke-linejoin:round;stroke-miterlimit:10;stroke-dasharray:none;stroke-opacity:1"
       transform="translate(-118.73333,-391.09339)"
       clip-path="url(#clipPath14)" />
    <path
       id="path15"
       d="m 141.92,448 v 56.64001"
       style="fill:none;stroke:#000000;stroke-width:26.4;stroke-linecap:round;stroke-linejoin:round;stroke-miterlimit:10;stroke-dasharray:none;stroke-opacity:1"
       transform="translate(-118.73333,-391.09339)"
       clip-path="url(#clipPath16)" />
    <path
       id="path17"
       d="m 538.40002,448 v 56.64001"
       style="fill:none;stroke:#000000;stroke-width:26.4;stroke-linecap:round;stroke-linejoin:round;stroke-miterlimit:10;stroke-dasharray:none;stroke-opacity:1"
       transform="translate(-118.73333,-391.09339)"
       clip-path="url(#clipPath18)" />
    <path
       id="path19"
       d="M 141.92,617.91998 V 674.56"
       style="fill:none;stroke:#000000;stroke-width:26.4;stroke-linecap:round;stroke-linejoin:round;stroke-miterlimit:10;stroke-dasharray:none;stroke-opacity:1"
       transform="translate(-118.73333,-391.09339)"
       clip-path="url(#clipPath20)" />
    <path
       id="path21"
       d="m 564.79999,598.40002 77.44,-37.11999"
       style="fill:none;stroke:#000000;stroke-width:26.4;stroke-linecap:round;stroke-linejoin:round;stroke-miterlimit:10;stroke-dasharray:none;stroke-opacity:1"
       transform="translate(-118.73333,-391.09339)"
       clip-path="url(#clipPath22)" />
  </g>
</svg>
