<?xml version="1.0" encoding="UTF-8" standalone="no"?>
<!-- Created with Inkscape (http://www.inkscape.org/) -->

<svg
   version="1.1"
   id="svg1"
   width="511.22668"
   height="402.88"
   viewBox="0 0 511.22668 402.88"
   sodipodi:docname="Glue4.pdf"
   xmlns:inkscape="http://www.inkscape.org/namespaces/inkscape"
   xmlns:sodipodi="http://sodipodi.sourceforge.net/DTD/sodipodi-0.dtd"
   xmlns="http://www.w3.org/2000/svg"
   xmlns:svg="http://www.w3.org/2000/svg">
  <defs
     id="defs1">
    <clipPath
       clipPathUnits="userSpaceOnUse"
       id="clipPath2">
      <path
         d="M 26.4,26.719999 V 767.35998 H 1096 V 26.719999 Z"
         transform="translate(-584.64001,-316.79999)"
         clip-rule="evenodd"
         id="path2" />
    </clipPath>
    <clipPath
       clipPathUnits="userSpaceOnUse"
       id="clipPath4">
      <path
         d="M 26.4,26.719999 V 767.35998 H 1096 V 26.719999 Z"
         clip-rule="evenodd"
         id="path4" />
    </clipPath>
    <clipPath
       clipPathUnits="userSpaceOnUse"
       id="clipPath6">
      <path
         d="M 26.4,26.719999 V 767.35998 H 1096 V 26.719999 Z"
         transform="translate(-769.91998,-318.23999)"
         clip-rule="evenodd"
         id="path6" />
    </clipPath>
  </defs>
  <sodipodi:namedview
     id="namedview1"
     pagecolor="#505050"
     bordercolor="#eeeeee"
     borderopacity="1"
     inkscape:showpageshadow="0"
     inkscape:pageopacity="0"
     inkscape:pagecheckerboard="0"
     inkscape:deskcolor="#505050">
    <inkscape:page
       x="0"
       y="0"
       inkscape:label="1"
       id="page1"
       width="511.22668"
       height="402.88"
       margin="0"
       bleed="0" />
  </sodipodi:namedview>
  <g
     id="g1"
     inkscape:groupmode="layer"
     inkscape:label="1">
    <path
       id="path1"
       d="m 0,0 -5.92,-5.6 -6.24,-5.28 -6.399999,-4.96 -6.880002,-4.48 -6.879999,-4.319999 -7.2,-3.680001 -7.520001,-3.52 -7.52,-3.040001 -7.680001,-2.559998 -7.84,-2.240001 -8,-1.759999 -8.159996,-1.280002 -8,-0.959999 -8.160002,-0.48 h -8.16 l -8.16,0.48 -8.16,0.799999 -8,1.440002 -8,1.599999 -7.84,2.240002 -7.84,2.559997 -7.52,3.040001 -7.36,3.360001 -7.36,3.84 -6.87999,4.16 L -194.56,-16 l -6.40001,4.8 -6.23999,5.28 -5.91999,5.6 -5.76001,5.92 -5.28,6.24 -4.95999,6.4 -4.64,6.719999 L -237.92,32 l -3.83999,7.200001 -3.52001,7.36 -3.04001,7.680001 -2.55999,7.679996 -2.23999,7.840004 -1.76001,8 -1.44001,8 -0.95999,8.159996 -0.48001,8.160002 v 8.16 l 0.32001,8 0.95999,8.16 1.28001,8.16 1.59999,7.83999 2.24001,8 2.56,7.68001 2.88,7.67999 3.36,7.36 3.84,7.20002 4.16,7.03999 4.48,6.88 4.96001,6.4 5.27999,6.24 5.6,6.08001 5.76,5.59999 6.24,5.28 6.4,5.12001 6.72001,4.47999 7.03999,4.31999 7.2,3.84002 7.36,3.51998 7.52,3.04001 7.67999,2.72 7.84001,2.23999 8,1.76001 8,1.44001 8.16,0.95999 8.16,0.48001 8.16,0.16 8.160004,-0.48001 8.159996,-0.79999 8,-1.28001 8,-1.60001 7.84,-2.08 7.84,-2.56 7.52,-2.87999 7.520001,-3.36 7.200001,-3.84001 7.039999,-4.15999 6.879999,-4.48001 6.56,-4.79998 6.24,-5.28"
       style="fill:none;stroke:#000000;stroke-width:26.4;stroke-linecap:round;stroke-linejoin:round;stroke-miterlimit:10;stroke-dasharray:none;stroke-opacity:1"
       transform="translate(277.64001,122.02665)"
       clip-path="url(#clipPath2)" />
    <path
       id="path3"
       d="M 515.67999,499.20001 704.47998,234.88"
       style="fill:none;stroke:#000000;stroke-width:26.4;stroke-linecap:round;stroke-linejoin:round;stroke-miterlimit:10;stroke-dasharray:none;stroke-opacity:1"
       transform="translate(-307,-194.77334)"
       clip-path="url(#clipPath4)" />
    <path
       id="path5"
       d="m 0,0 3.52,-2.4 3.52,-2.72 3.2,-3.04 3.04,-3.2 2.56,-3.52 2.4,-3.679999 2.08,-3.840001 1.76,-4.159999 1.44,-4.16 1.119999,-4.160002 0.640002,-4.48 L 25.6,-43.68 v -4.48 l -0.319999,-4.32 -0.800001,-4.319999 -1.119999,-4.32 -1.440001,-4.16 -1.76,-4 -2.08,-3.840004 -2.56,-3.68 L 12.8,-80.32 9.92,-83.519997 6.56,-86.400002 3.2,-89.120003 l -3.68,-2.399994 -4,-2.080001 -4,-1.760003 -4.16,-1.440002 -4.319999,-1.119995 -4.320002,-0.64 -4.319999,-0.480003 -4.48,0.160004 -4.320002,0.319999 -4.319999,0.64 -4.32,1.119995 -4.16,1.440002 -4,1.760003 -3.84,2.080001 -3.68,2.399994 -3.520001,2.720001 -3.2,3.040001"
       style="fill:none;stroke:#000000;stroke-width:26.4;stroke-linecap:round;stroke-linejoin:round;stroke-miterlimit:10;stroke-dasharray:none;stroke-opacity:1"
       transform="translate(462.91998,123.46665)"
       clip-path="url(#clipPath6)" />
  </g>
</svg>
