<?xml version="1.0" encoding="UTF-8" standalone="no"?>
<!-- Created with Inkscape (http://www.inkscape.org/) -->

<svg
   version="1.1"
   id="svg1"
   width="521.61334"
   height="523.23999"
   viewBox="0 0 521.61334 523.23999"
   sodipodi:docname="Glue13.pdf"
   xmlns:inkscape="http://www.inkscape.org/namespaces/inkscape"
   xmlns:sodipodi="http://sodipodi.sourceforge.net/DTD/sodipodi-0.dtd"
   xmlns="http://www.w3.org/2000/svg"
   xmlns:svg="http://www.w3.org/2000/svg">
  <defs
     id="defs1">
    <clipPath
       clipPathUnits="userSpaceOnUse"
       id="clipPath2">
      <path
         d="M 0,0.16 V 1122.5601 H 793.59998 V 0.16 Z"
         transform="translate(-290.07999,-668.15997)"
         clip-rule="evenodd"
         id="path2" />
    </clipPath>
    <clipPath
       clipPathUnits="userSpaceOnUse"
       id="clipPath4">
      <path
         d="M 0,0.16 V 1122.5601 H 793.59998 V 0.16 Z"
         transform="translate(-450.23999,-534.56)"
         clip-rule="evenodd"
         id="path4" />
    </clipPath>
    <clipPath
       clipPathUnits="userSpaceOnUse"
       id="clipPath6">
      <path
         d="M 0,0.16 V 1122.5601 H 793.59998 V 0.16 Z"
         transform="translate(-589.44,-507.67999)"
         clip-rule="evenodd"
         id="path6" />
    </clipPath>
    <clipPath
       clipPathUnits="userSpaceOnUse"
       id="clipPath8">
      <path
         d="M 0,0.16 V 1122.5601 H 793.59998 V 0.16 Z"
         clip-rule="evenodd"
         id="path8" />
    </clipPath>
    <clipPath
       clipPathUnits="userSpaceOnUse"
       id="clipPath10">
      <path
         d="M 0,0.16 V 1122.5601 H 793.59998 V 0.16 Z"
         transform="translate(-415.67999,-787.84003)"
         clip-rule="evenodd"
         id="path10" />
    </clipPath>
    <clipPath
       clipPathUnits="userSpaceOnUse"
       id="clipPath12">
      <path
         d="M 0,0.16 V 1122.5601 H 793.59998 V 0.16 Z"
         transform="translate(-624.64001,-571.20001)"
         clip-rule="evenodd"
         id="path12" />
    </clipPath>
  </defs>
  <sodipodi:namedview
     id="namedview1"
     pagecolor="#505050"
     bordercolor="#eeeeee"
     borderopacity="1"
     inkscape:showpageshadow="0"
     inkscape:pageopacity="0"
     inkscape:pagecheckerboard="0"
     inkscape:deskcolor="#505050">
    <inkscape:page
       x="0"
       y="0"
       inkscape:label="1"
       id="page1"
       width="521.61334"
       height="523.23999"
       margin="0"
       bleed="0" />
  </sodipodi:namedview>
  <g
     id="g1"
     inkscape:groupmode="layer"
     inkscape:label="1">
    <path
       id="path1"
       d="m 0,0 1.76,1.44 2.08,1.12 2.24,0.8 2.56,0.64 2.88,0.32 3.2,-0.16 3.2,-0.32 3.68,-0.64 3.680001,-0.96 4,-1.28 4.159998,-1.6 4.319999,-1.92 4.480004,-2.08 4.639999,-2.4 4.799999,-2.72 4.8,-2.88 4.959999,-3.2 5.119999,-3.520001 4.959999,-3.519998 5.120002,-3.84 5.120003,-4.16 5.119995,-4.160002 4.959999,-4.479999 5.120003,-4.48 4.960001,-4.639999 4.8,-4.8 4.8,-4.960003 4.64,-4.959999 4.64,-4.959999 4.32,-5.120002 4.32,-5.119996 4,-4.959999 3.84,-5.120002 3.68001,-5.120003 3.36,-4.959999 3.19999,-4.959999 3.04,-4.8 2.55999,-4.8 2.40001,-4.64 2.23999,-4.48 1.76001,-4.32 1.59999,-4.16 1.28,-4 0.96001,-3.84 0.64,-3.52 0.48,-3.36001 V -148.64 l -0.32,-2.88 -0.48001,-2.56 -0.79999,-2.4 -1.27999,-2.08 -1.44001,-1.76001 -1.76001,-1.43998 -2.07998,-1.12001 -2.24001,-0.79999 -2.56,-0.64002 -2.88,-0.31999 -3.2,0.16 -3.36,0.32 -3.52,0.64 -3.68,0.96 -4,1.28 -4.16,1.60001 -4.48,1.92 -4.48,2.08 -4.48,2.39999 -4.8,2.72 -4.96,2.88001 -4.799999,3.19999 -5.120003,3.51999 -4.959999,3.52001 -5.120002,3.83999 -5.119995,4.16001 -5.120003,4.16 -4.959999,4.48 -5.119999,4.48 -4.959999,4.64 -4.800003,4.8 -4.8,4.96 L 43.84,-96.959999 39.360001,-92 l -4.32,5.120003 -4.320002,5.119995 -4,4.959999 -3.84,5.120003 -3.679998,5.120002 -3.360001,4.96 -3.2,4.959999 -3.04,4.799999 -2.56,4.799999 -2.56,4.639999 -2.08,4.480004 -1.92,4.32 -1.44,4.159997 -1.28,4 -0.96,3.840001 -0.8,3.52 -0.32,3.36 v 3.04 l 0.16,2.88 0.64,2.56 0.8,2.4 1.28,2.08 L 0,0"
       style="fill:none;stroke:#000000;stroke-width:26.4;stroke-linecap:round;stroke-linejoin:round;stroke-miterlimit:10;stroke-dasharray:none;stroke-opacity:1"
       transform="translate(290.07999,690.83991)"
       clip-path="url(#clipPath2)" />
    <path
       id="path3"
       d="M 0,0 1.6,-15.36 2.72,-30.879999 3.2,-46.400002 V -61.919998 L 2.56,-77.440002 1.44,-92.959999 -0.16,-108.32 l -2.24,-15.52 -2.72,-15.19999 -3.2,-15.20001 -3.84,-15.04 -4.32,-14.88 -4.800001,-14.87999 -5.439998,-14.56002"
       style="fill:none;stroke:#000000;stroke-width:26.4;stroke-linecap:round;stroke-linejoin:round;stroke-miterlimit:10;stroke-dasharray:none;stroke-opacity:1"
       transform="translate(450.23999,557.23994)"
       clip-path="url(#clipPath4)" />
    <path
       id="path5"
       d="M 0,0 -9.44,-3.68 -18.879999,-6.72 -28.48,-9.44 -38.240002,-11.68 -48.16,-13.44 -58.080002,-14.88 -68,-15.84 -77.919998,-16.16 H -88 l -9.919998,0.48 -10.080002,0.96 -9.92,1.28 -9.76,1.92 -9.76,2.24 -9.59999,2.72 -9.44001,3.2 -9.44,3.52"
       style="fill:none;stroke:#000000;stroke-width:26.4;stroke-linecap:round;stroke-linejoin:round;stroke-miterlimit:10;stroke-dasharray:none;stroke-opacity:1"
       transform="translate(589.44,530.35993)"
       clip-path="url(#clipPath6)" />
    <path
       id="path7"
       d="M 423.51999,320.95999 156.64,588"
       style="fill:none;stroke:#000000;stroke-width:26.4;stroke-linecap:round;stroke-linejoin:round;stroke-miterlimit:10;stroke-dasharray:none;stroke-opacity:1"
       transform="translate(0,22.679941)"
       clip-path="url(#clipPath8)" />
    <path
       id="path9"
       d="m 0,0 12.8,-5.92 12.480001,-6.24 12.319997,-6.719999 12.16,-7.200001 11.680001,-7.679998 11.52,-8 11.200005,-8.480004 11.039993,-8.799999 10.560003,-9.120003 10.24,-9.599998 9.92,-9.919998 9.6,-10.239998 9.12,-10.720002 8.8,-10.88 8.48,-11.2 8,-11.52 7.52,-11.84 7.2,-12 6.72,-12.31999 6.39999,-12.64 5.76001,-12.64 5.44001,-12.96001"
       style="fill:none;stroke:#000000;stroke-width:26.4;stroke-linecap:round;stroke-linejoin:round;stroke-miterlimit:10;stroke-dasharray:none;stroke-opacity:1"
       transform="translate(415.67999,810.51997)"
       clip-path="url(#clipPath10)" />
    <path
       id="path11"
       d="m 0,0 0.8,-4.32 0.48,-4.48 0.16,-4.32 -0.32,-4.48 -0.64,-4.32 -0.96,-4.32 -1.28,-4.319999 -1.76,-4.000002 -1.92,-4 -2.4,-3.680001 -2.56,-3.679996 -2.88,-3.360001 -3.04,-3.040001 -3.52,-2.880001 -3.520001,-2.559997 -3.84,-2.240002 -4,-1.919998 -4,-1.600002"
       style="fill:none;stroke:#000000;stroke-width:26.4;stroke-linecap:round;stroke-linejoin:round;stroke-miterlimit:10;stroke-dasharray:none;stroke-opacity:1"
       transform="translate(624.64001,593.87995)"
       clip-path="url(#clipPath12)" />
  </g>
</svg>
