<?xml version="1.0" encoding="UTF-8" standalone="no"?>
<!-- Created with Inkscape (http://www.inkscape.org/) -->

<svg
   version="1.1"
   id="svg1"
   width="298.98666"
   height="317.51999"
   viewBox="0 0 298.98666 317.51999"
   sodipodi:docname="Glue3.pdf"
   xmlns:inkscape="http://www.inkscape.org/namespaces/inkscape"
   xmlns:sodipodi="http://sodipodi.sourceforge.net/DTD/sodipodi-0.dtd"
   xmlns="http://www.w3.org/2000/svg"
   xmlns:svg="http://www.w3.org/2000/svg">
  <defs
     id="defs1">
    <clipPath
       clipPathUnits="userSpaceOnUse"
       id="clipPath2">
      <path
         d="M 26.4,26.719999 V 767.35998 H 1096 V 26.719999 Z"
         transform="translate(-528.47998,-481.44)"
         clip-rule="evenodd"
         id="path2" />
    </clipPath>
    <clipPath
       clipPathUnits="userSpaceOnUse"
       id="clipPath4">
      <path
         d="M 26.4,26.719999 V 767.35998 H 1096 V 26.719999 Z"
         transform="translate(-3.3333334e-6)"
         clip-rule="evenodd"
         id="path4" />
    </clipPath>
    <clipPath
       clipPathUnits="userSpaceOnUse"
       id="clipPath6">
      <path
         d="M 26.4,26.719999 V 767.35998 H 1096 V 26.719999 Z"
         transform="translate(-3.3333334e-6)"
         clip-rule="evenodd"
         id="path6" />
    </clipPath>
    <clipPath
       clipPathUnits="userSpaceOnUse"
       id="clipPath8">
      <path
         d="M 26.4,26.719999 V 767.35998 H 1096 V 26.719999 Z"
         transform="translate(-528.47998,-481.44)"
         clip-rule="evenodd"
         id="path8" />
    </clipPath>
    <clipPath
       clipPathUnits="userSpaceOnUse"
       id="clipPath10">
      <path
         d="M 26.4,26.719999 V 767.35998 H 1096 V 26.719999 Z"
         transform="translate(-3.3333334e-6)"
         clip-rule="evenodd"
         id="path10" />
    </clipPath>
  </defs>
  <sodipodi:namedview
     id="namedview1"
     pagecolor="#505050"
     bordercolor="#eeeeee"
     borderopacity="1"
     inkscape:showpageshadow="0"
     inkscape:pageopacity="0"
     inkscape:pagecheckerboard="0"
     inkscape:deskcolor="#505050">
    <inkscape:page
       x="0"
       y="0"
       inkscape:label="1"
       id="page1"
       width="298.98666"
       height="317.51999"
       margin="0"
       bleed="0" />
  </sodipodi:namedview>
  <g
     id="g1"
     inkscape:groupmode="layer"
     inkscape:label="1">
    <path
       id="path1"
       d="m 0,0 -2.4,-2.4 -2.56,-2.24 -2.88,-2.08 -3.04,-1.76 -3.36,-1.76 -3.52,-1.6 -3.680001,-1.28 -3.84,-1.12 -4,-0.96 -4.159998,-0.64 -4.159999,-0.48 -4.16,-0.16 h -4.16 l -4.160004,0.16 -4.16,0.48 -4.16,0.8 -3.84,0.8 -3.84,1.12 -3.839996,1.44 -3.520004,1.44 -3.199997,1.76 -3.199997,1.92 -2.720002,2.08 -2.720001,2.24 -2.239998,2.24 -1.920005,2.56 -1.759995,2.56 -1.440002,2.56 -0.959999,2.72 -0.64,2.88 -0.480003,2.72 v 2.719999 l 0.319999,2.880001 0.800004,2.72 0.959999,2.720001 1.440002,2.719999 1.599999,2.56 1.919998,2.400001 2.400001,2.399998 2.559998,2.240002 2.720001,2.079998 3.199997,1.920002 3.200005,1.599998 3.519996,1.600002 3.68,1.439999 3.840001,1.119999 4,0.799999 4.159999,0.800003 4,0.48 4.32,0.16 h 4.160004 l 4.16,-0.16 4.16,-0.48 3.999998,-0.639999 4,-0.800003 3.84,-1.119999 3.84,-1.439999 3.52,-1.440002 L -11.04,43.52 -8,41.759998 -5.12,39.68 l 2.56,-2.240001 2.4,-2.239998 2.08,-2.560002"
       style="fill:none;stroke:#000000;stroke-width:26.4;stroke-linecap:round;stroke-linejoin:round;stroke-miterlimit:10;stroke-dasharray:none;stroke-opacity:1"
       transform="translate(116.02665,241.31999)"
       clip-path="url(#clipPath2)" />
    <path
       id="path3"
       d="M 530.40002,514.08002 688.64001,363.04001"
       style="fill:none;stroke:#000000;stroke-width:26.4;stroke-linecap:round;stroke-linejoin:round;stroke-miterlimit:10;stroke-dasharray:none;stroke-opacity:1"
       transform="translate(-412.45333,-240.12001)"
       clip-path="url(#clipPath4)" />
    <path
       id="path5"
       d="M 688.64001,363.04001 450.72,260.95999"
       style="fill:none;stroke:#000000;stroke-width:26.4;stroke-linecap:round;stroke-linejoin:round;stroke-miterlimit:10;stroke-dasharray:none;stroke-opacity:1"
       transform="translate(-412.45333,-240.12001)"
       clip-path="url(#clipPath6)" />
    <path
       id="path7"
       d="M 0,0 3.84,5.6 8,11.04 12.48,16.32 17.440001,21.120001 22.559999,25.76 28,30.08 l 5.599998,3.839998 5.920002,3.520001 6.079998,3.2 6.240002,2.720002 6.560002,2.399997 6.559997,1.920002 6.720001,1.599999 6.720002,1.120003 6.879997,0.799999 6.880005,0.319999"
       style="fill:none;stroke:#000000;stroke-width:26.4;stroke-linecap:round;stroke-linejoin:round;stroke-miterlimit:10;stroke-dasharray:none;stroke-opacity:1"
       transform="translate(116.02665,241.31999)"
       clip-path="url(#clipPath8)" />
    <path
       id="path9"
       d="m 620.64001,532.96002 h 68"
       style="fill:none;stroke:#000000;stroke-width:26.4;stroke-linecap:round;stroke-linejoin:round;stroke-miterlimit:10;stroke-dasharray:none;stroke-opacity:1"
       transform="translate(-412.45333,-240.12001)"
       clip-path="url(#clipPath10)" />
  </g>
</svg>
