<?xml version="1.0" encoding="UTF-8" standalone="no"?>
<!-- Created with Inkscape (http://www.inkscape.org/) -->

<svg
   version="1.1"
   id="svg1"
   width="469.57333"
   height="294.98666"
   viewBox="0 0 469.57333 294.98666"
   sodipodi:docname="OilOfTartar12.pdf"
   xmlns:inkscape="http://www.inkscape.org/namespaces/inkscape"
   xmlns:sodipodi="http://sodipodi.sourceforge.net/DTD/sodipodi-0.dtd"
   xmlns="http://www.w3.org/2000/svg"
   xmlns:svg="http://www.w3.org/2000/svg">
  <defs
     id="defs1">
    <clipPath
       clipPathUnits="userSpaceOnUse"
       id="clipPath2">
      <path
         d="M 0,0.16 V 1122.5601 H 793.59998 V 0.16 Z"
         transform="translate(3.3333334e-6)"
         clip-rule="evenodd"
         id="path2" />
    </clipPath>
    <clipPath
       clipPathUnits="userSpaceOnUse"
       id="clipPath4">
      <path
         d="M 0,0.16 V 1122.5601 H 793.59998 V 0.16 Z"
         transform="translate(3.3333334e-6)"
         clip-rule="evenodd"
         id="path4" />
    </clipPath>
    <clipPath
       clipPathUnits="userSpaceOnUse"
       id="clipPath6">
      <path
         d="M 0,0.16 V 1122.5601 H 793.59998 V 0.16 Z"
         transform="translate(-399.04001,-451.51999)"
         clip-rule="evenodd"
         id="path6" />
    </clipPath>
    <clipPath
       clipPathUnits="userSpaceOnUse"
       id="clipPath8">
      <path
         d="M 0,0.16 V 1122.5601 H 793.59998 V 0.16 Z"
         transform="translate(-396.79999,-558.08002)"
         clip-rule="evenodd"
         id="path8" />
    </clipPath>
    <clipPath
       clipPathUnits="userSpaceOnUse"
       id="clipPath10">
      <path
         d="M 0,0.16 V 1122.5601 H 793.59998 V 0.16 Z"
         transform="translate(3.3333334e-6)"
         clip-rule="evenodd"
         id="path10" />
    </clipPath>
    <clipPath
       clipPathUnits="userSpaceOnUse"
       id="clipPath12">
      <path
         d="M 0,0.16 V 1122.5601 H 793.59998 V 0.16 Z"
         transform="translate(-211.84,-686.08002)"
         clip-rule="evenodd"
         id="path12" />
    </clipPath>
    <clipPath
       clipPathUnits="userSpaceOnUse"
       id="clipPath14">
      <path
         d="M 0,0.16 V 1122.5601 H 793.59998 V 0.16 Z"
         transform="translate(-502.56,-572.79999)"
         clip-rule="evenodd"
         id="path14" />
    </clipPath>
    <clipPath
       clipPathUnits="userSpaceOnUse"
       id="clipPath16">
      <path
         d="M 0,0.16 V 1122.5601 H 793.59998 V 0.16 Z"
         transform="translate(-238.24,-648.32001)"
         clip-rule="evenodd"
         id="path16" />
    </clipPath>
    <clipPath
       clipPathUnits="userSpaceOnUse"
       id="clipPath18">
      <path
         d="M 0,0.16 V 1122.5601 H 793.59998 V 0.16 Z"
         transform="translate(-581.91999,-686.08002)"
         clip-rule="evenodd"
         id="path18" />
    </clipPath>
  </defs>
  <sodipodi:namedview
     id="namedview1"
     pagecolor="#505050"
     bordercolor="#eeeeee"
     borderopacity="1"
     inkscape:showpageshadow="0"
     inkscape:pageopacity="0"
     inkscape:pagecheckerboard="0"
     inkscape:deskcolor="#505050">
    <inkscape:page
       x="0"
       y="0"
       inkscape:label="1"
       id="page1"
       width="469.57333"
       height="294.98666"
       margin="0"
       bleed="0" />
  </sodipodi:namedview>
  <g
     id="g1"
     inkscape:groupmode="layer"
     inkscape:label="1">
    <path
       id="path1"
       d="M 291.20001,572.79999 H 502.56"
       style="fill:none;stroke:#000000;stroke-width:26.4;stroke-linecap:round;stroke-linejoin:round;stroke-miterlimit:10;stroke-dasharray:none;stroke-opacity:1"
       transform="translate(-161.42667,-411.12006)"
       clip-path="url(#clipPath2)" />
    <path
       id="path3"
       d="M 264.64001,610.56 H 528.96002"
       style="fill:none;stroke:#000000;stroke-width:26.4;stroke-linecap:round;stroke-linejoin:round;stroke-miterlimit:10;stroke-dasharray:none;stroke-opacity:1"
       transform="translate(-161.42667,-411.12006)"
       clip-path="url(#clipPath4)" />
    <path
       id="path5"
       d="m 0,0 -4.32,-2.88 -4.16,-2.56 -4,-2.4 -4.159999,-1.92 -4,-1.76 -3.840001,-1.28 -3.84,-1.12 -3.68,-0.64 -3.52,-0.32 -3.360001,-0.16 -3.200001,0.32 -3.039997,0.64 -2.720001,0.96 -2.560002,1.28 -2.239997,1.6 -2.080002,1.92 -1.759999,2.24 -1.439998,2.56 -1.280003,2.72 -0.959999,3.2 -0.639999,3.2 -0.48,3.52 v 3.84 l 0.16,3.999999 0.639999,4.160002 0.8,4.16 0.959999,4.479999 1.440002,4.640002 1.599999,4.479999 1.920002,4.799999 2.239998,4.8 2.400001,4.639999 2.559998,4.799999 2.880001,4.800003 3.2,4.64 3.200001,4.639999 3.520001,4.480003 3.519998,4.32 3.680001,4.32 4,4.159996 3.84,3.840004 4.159999,3.68 4,3.519997 4.16,3.2 4.16,3.04"
       style="fill:none;stroke:#000000;stroke-width:26.4;stroke-linecap:round;stroke-linejoin:round;stroke-miterlimit:10;stroke-dasharray:none;stroke-opacity:1"
       transform="translate(237.61334,40.39993)"
       clip-path="url(#clipPath6)" />
    <path
       id="path7"
       d="m 0,0 4.16,-3.04 4.16,-3.2 4.16,-3.52 4,-3.68 4,-3.840001 3.84,-4.16 3.84,-4.319999 3.52,-4.32 3.520001,-4.480001 3.200001,-4.64 3.039997,-4.639999 2.880001,-4.799999 2.720001,-4.8 2.399998,-4.640003 2.080001,-4.799999 1.919999,-4.799999 1.760002,-4.480004 1.279999,-4.639999 1.119998,-4.479996 0.800004,-4.160003 0.479999,-4.159996 0.32,-4 -0.16,-3.840004 -0.32,-3.519998 -0.639999,-3.2 -0.960003,-3.2 -1.279999,-2.72 -1.439998,-2.56 -1.920002,-2.24 -1.919999,-1.92 -2.400001,-1.6 -2.400002,-1.28 -2.879997,-0.96 L 40,-121.28 l -3.200001,-0.32 -3.36,0.16 -3.519999,0.32 -3.68,0.64 -3.84,1.12 -3.840001,1.28 -3.999999,1.76 -4.16,1.92 -4.16,2.4 -4.16,2.56 -4.16,2.88"
       style="fill:none;stroke:#000000;stroke-width:26.4;stroke-linecap:round;stroke-linejoin:round;stroke-miterlimit:10;stroke-dasharray:none;stroke-opacity:1"
       transform="translate(235.37332,146.95996)"
       clip-path="url(#clipPath8)" />
    <path
       id="path9"
       d="m 396.79999,452 v 15.04001"
       style="fill:none;stroke:#000000;stroke-width:26.4;stroke-linecap:round;stroke-linejoin:round;stroke-miterlimit:10;stroke-dasharray:none;stroke-opacity:1"
       transform="translate(-161.42667,-411.12006)"
       clip-path="url(#clipPath10)" />
    <path
       id="path11"
       d="m 0,0 4.8,-0.16 4.8,-0.64 4.64,-1.12 4.800001,-1.44 4.479999,-1.76 4.64,-2.24 4.32,-2.56 4.319999,-3.04 4.16,-3.36 4.16,-3.68 3.84,-4.16 3.68,-4.32 L 56,-33.119999 l 3.360001,-4.960003 3.040001,-5.279999 2.879997,-5.599998 2.559997,-5.760002 2.400002,-5.919998 2.080002,-6.080002 1.760002,-6.400002 1.599998,-6.399994 1.279999,-6.560005 0.959999,-6.720001 0.800003,-6.879997 0.479996,-6.72 0.160004,-6.88"
       style="fill:none;stroke:#000000;stroke-width:26.4;stroke-linecap:round;stroke-linejoin:round;stroke-miterlimit:10;stroke-dasharray:none;stroke-opacity:1"
       transform="translate(50.413329,274.95996)"
       clip-path="url(#clipPath12)" />
    <path
       id="path13"
       d="m 0,0 0.16,6.88 0.48,6.72 0.64,6.88 0.96,6.720001 1.44,6.559997 1.44,6.400002 1.92,6.400001 2.08,6.079998 2.4,5.920002 L 14.08,64.32 16.959999,69.919998 20,75.199997 l 3.200001,4.960007 3.519998,4.639999 3.680001,4.32 3.840002,4.159996 4,3.68 4.16,3.360001 4.319999,3.04 4.48,2.56 4.479999,2.24 4.64,1.76 4.639999,1.44 4.800003,1.12 4.799996,0.64 4.800003,0.16"
       style="fill:none;stroke:#000000;stroke-width:26.4;stroke-linecap:round;stroke-linejoin:round;stroke-miterlimit:10;stroke-dasharray:none;stroke-opacity:1"
       transform="translate(341.13333,161.67993)"
       clip-path="url(#clipPath14)" />
    <path
       id="path15"
       d="m 0,0 -0.16,-3.52 -0.32,-3.36 -0.48,-3.52 -0.8,-3.2 -0.96,-3.199999 L -4,-19.84 l -1.28,-2.879999 -1.6,-2.720002 -1.76,-2.399999 -1.76,-2.24 -2.08,-2.08 -2.08,-1.599998 -2.239999,-1.440003 L -19.200001,-36.32 -21.6,-37.119999 l -2.4,-0.479999 -2.4,-0.16 -2.399999,0.16 -2.400002,0.479999 L -33.599998,-36.32 -36,-35.200001 -38.240002,-33.759998 -40.32,-32.16 l -2.080002,2.08 -1.759998,2.24 -1.759998,2.399999 -1.600002,2.720002 -1.279999,2.879999 -1.280003,3.040001 -0.959999,3.199999 -0.799999,3.2 -0.48,3.52 -0.319999,3.36 -0.16,3.52 0.16,3.52 0.319999,3.36 0.48,3.52 0.799999,3.2 0.959999,3.199999 1.280003,3.040001 1.279999,2.879999 1.600002,2.720002 L -44.16,27.84 l 1.759998,2.24 2.080002,2.08 2.079998,1.599998 L -36,35.200001 -33.599998,36.32 l 2.399997,0.799999 2.400002,0.479999 2.399999,0.16"
       style="fill:none;stroke:#000000;stroke-width:26.4;stroke-linecap:round;stroke-linejoin:round;stroke-miterlimit:10;stroke-dasharray:none;stroke-opacity:1"
       transform="translate(76.813338,237.19995)"
       clip-path="url(#clipPath16)" />
    <path
       id="path17"
       d="m 0,0 2.4,-0.16 2.4,-0.48 2.4,-0.8 2.24,-1.12 2.24,-1.44 2.24,-1.6 1.92,-2.08 1.92,-2.24 1.76,-2.4 1.439999,-2.72 1.440001,-2.88 1.28,-3.039999 0.959999,-3.200001 0.800002,-3.200001 0.479999,-3.519998 0.32,-3.360003 0.16,-3.519996 -0.16,-3.520001 -0.32,-3.36 L 25.440001,-48.16 24.639999,-51.360001 23.68,-54.560001 22.4,-57.599998 20.959999,-60.48 19.52,-63.200001 l -1.76,-2.399997 -1.92,-2.239998 -1.92,-2.080002 -2.24,-1.599999 -2.24,-1.440002 -2.24,-1.120003 -2.4,-0.799995 -2.4,-0.480004 -2.4,-0.159996 -2.56,0.159996 -2.4,0.480004 -2.4,0.799995 -2.24,1.120003 -2.24,1.440002 -2.08,1.599999 -2.08,2.080002 -1.92,2.239998 -1.6,2.399997 -1.600001,2.720001 -1.439998,2.880002 -1.120001,3.039997 -0.959999,3.2 -0.800002,3.200001 -0.639999,3.520001 -0.32,3.36 -0.159999,3.520001"
       style="fill:none;stroke:#000000;stroke-width:26.4;stroke-linecap:round;stroke-linejoin:round;stroke-miterlimit:10;stroke-dasharray:none;stroke-opacity:1"
       transform="translate(420.49332,274.95996)"
       clip-path="url(#clipPath18)" />
  </g>
</svg>
