<?xml version="1.0" encoding="UTF-8" standalone="no"?>
<!-- Created with Inkscape (http://www.inkscape.org/) -->

<svg
   version="1.1"
   id="svg1"
   width="420.22668"
   height="453.82666"
   viewBox="0 0 420.22668 453.82666"
   sodipodi:docname="OilOfTartar4.pdf"
   xmlns:inkscape="http://www.inkscape.org/namespaces/inkscape"
   xmlns:sodipodi="http://sodipodi.sourceforge.net/DTD/sodipodi-0.dtd"
   xmlns="http://www.w3.org/2000/svg"
   xmlns:svg="http://www.w3.org/2000/svg">
  <defs
     id="defs1">
    <clipPath
       clipPathUnits="userSpaceOnUse"
       id="clipPath2">
      <path
         d="M 0,0.16 V 1122.5601 H 793.59998 V 0.16 Z"
         transform="translate(-398.07998,-432.64002)"
         clip-rule="evenodd"
         id="path2" />
    </clipPath>
    <clipPath
       clipPathUnits="userSpaceOnUse"
       id="clipPath4">
      <path
         d="M 0,0.16 V 1122.5601 H 793.59998 V 0.16 Z"
         transform="translate(-447.20001,-505.44)"
         clip-rule="evenodd"
         id="path4" />
    </clipPath>
    <clipPath
       clipPathUnits="userSpaceOnUse"
       id="clipPath6">
      <path
         d="M 0,0.16 V 1122.5601 H 793.59998 V 0.16 Z"
         transform="translate(-561.44,-611.52002)"
         clip-rule="evenodd"
         id="path6" />
    </clipPath>
    <clipPath
       clipPathUnits="userSpaceOnUse"
       id="clipPath8">
      <path
         d="M 0,0.16 V 1122.5601 H 793.59998 V 0.16 Z"
         transform="translate(-3.3333333e-6)"
         clip-rule="evenodd"
         id="path8" />
    </clipPath>
  </defs>
  <sodipodi:namedview
     id="namedview1"
     pagecolor="#505050"
     bordercolor="#eeeeee"
     borderopacity="1"
     inkscape:showpageshadow="0"
     inkscape:pageopacity="0"
     inkscape:pagecheckerboard="0"
     inkscape:deskcolor="#505050">
    <inkscape:page
       x="0"
       y="0"
       inkscape:label="1"
       id="page1"
       width="420.22668"
       height="453.82666"
       margin="0"
       bleed="0" />
  </sodipodi:namedview>
  <g
     id="g1"
     inkscape:groupmode="layer"
     inkscape:label="1">
    <path
       id="path1"
       d="m 0,0 c 0,-20.85 -16.9,-37.759998 -37.759998,-37.759998 -20.860001,0 -37.759999,16.909998 -37.759999,37.759998 0,20.85 16.899998,37.759998 37.759999,37.759998 C -16.9,37.759998 0,20.85 0,0 Z"
       style="fill:none;stroke:#000000;stroke-width:26.4;stroke-linecap:round;stroke-linejoin:round;stroke-miterlimit:10;stroke-dasharray:none;stroke-opacity:1"
       transform="translate(176.62665,125.63996)"
       clip-path="url(#clipPath2)" />
    <path
       id="path3"
       d="m 0,0 5.12,-6.4 4.96,-6.4 4.8,-6.560001 L 19.52,-26.08 23.84,-32.799999 28,-39.52 l 3.84,-6.880002 3.520001,-6.719997 3.36,-6.720001 3.039997,-6.880001 L 44.48,-73.279999 46.880001,-80 l 2.239998,-6.559998 1.760002,-6.400001 1.439999,-6.239998 1.279998,-6.080003 0.800004,-6.08 0.479999,-5.76 0.16,-5.6 v -5.44 l -0.48,-5.12 -0.800003,-4.8 -1.119999,-4.64 -1.439998,-4.31999 -1.920002,-4.16001 -2.079998,-3.68 -2.400002,-3.51999 -2.559997,-3.04001 -3.040001,-2.88001 L 35.84,-166.72 l -3.52,-2.08 -3.84,-1.76 -4,-1.44 -4.32,-1.11999 -4.48,-0.64 -4.8,-0.32001 -4.96,0.16 -5.12,0.31999 -5.28,0.80001 -5.6,1.12001 -5.6,1.59999 -5.600001,1.92 -5.92,2.24 -5.919998,2.56 -6.080002,2.88 -5.919998,3.2 -6.240002,3.52001 -6.079998,3.83999 -6.080001,4.16001 -6.079998,4.47999 -6.080002,4.8 -6.080002,4.96 -5.919998,5.12 -5.919998,5.6 -5.599999,5.6 -5.760003,5.76 -5.44,6.08 -5.28,6.239997"
       style="fill:none;stroke:#000000;stroke-width:26.4;stroke-linecap:round;stroke-linejoin:round;stroke-miterlimit:10;stroke-dasharray:none;stroke-opacity:1"
       transform="translate(225.74668,198.43994)"
       clip-path="url(#clipPath4)" />
    <path
       id="path5"
       d="m 0,0 5.28,-6.24 4.96,-6.56 4.8,-6.560001 L 19.52,-25.92 23.84,-32.639999 28,-39.52 l 3.84,-6.720002 3.520001,-6.879997 3.2,-6.880001 3.039997,-6.720001 2.720002,-6.720001 2.400001,-6.720002 2.079998,-6.559997 1.760002,-6.559998 1.279999,-6.239998 1.119999,-6.240003 0.799999,-6.08 0.480004,-5.76 0.16,-5.76 -0.32,-5.44 -0.480004,-5.12 -0.959999,-4.96 L 51.52,-143.67999 49.919998,-148 48,-152.16 45.919998,-156 l -2.559997,-3.52 -2.720002,-3.2 -3.2,-2.88001 L 34.080002,-168.16 30.4,-170.39999 26.559999,-172.32001 22.4,-173.75999 17.92,-174.88 13.44,-175.52 8.48,-176 H 3.52 l -5.28,0.32001 -5.44,0.79999 -5.44,1.12001 -5.76,1.43998 -5.76,1.76001 -5.92,2.23999 -6.08,2.40001 -6.080002,2.88001 -6.079998,3.19999 -6.080002,3.51999 -6.239997,3.84001 -6.239998,4.15999 -6.080002,4.32001 -6.080002,4.64 -6.080002,4.96001 -5.919998,5.28 -5.919998,5.43999 -5.760001,5.6 -5.6,5.76 -5.6,6.08 -5.28,6.24"
       style="fill:none;stroke:#000000;stroke-width:26.4;stroke-linecap:round;stroke-linejoin:round;stroke-miterlimit:10;stroke-dasharray:none;stroke-opacity:1"
       transform="translate(339.98667,304.51996)"
       clip-path="url(#clipPath6)" />
    <path
       id="path7"
       d="m 447.20001,505.44 -194.24,231.35999"
       style="fill:none;stroke:#000000;stroke-width:26.4;stroke-linecap:round;stroke-linejoin:round;stroke-miterlimit:10;stroke-dasharray:none;stroke-opacity:1"
       transform="translate(-221.45333,-307.00006)"
       clip-path="url(#clipPath8)" />
  </g>
</svg>
