<?xml version="1.0" encoding="UTF-8" standalone="no"?>
<!-- Created with Inkscape (http://www.inkscape.org/) -->

<svg
   version="1.1"
   id="svg1"
   width="501.60001"
   height="435.13333"
   viewBox="0 0 501.60001 435.13333"
   sodipodi:docname="OleumSaturni5.pdf"
   xmlns:inkscape="http://www.inkscape.org/namespaces/inkscape"
   xmlns:sodipodi="http://sodipodi.sourceforge.net/DTD/sodipodi-0.dtd"
   xmlns="http://www.w3.org/2000/svg"
   xmlns:svg="http://www.w3.org/2000/svg">
  <defs
     id="defs1">
    <clipPath
       clipPathUnits="userSpaceOnUse"
       id="clipPath2">
      <path
         d="M 0,0.16 V 1122.5601 H 793.59998 V 0.16 Z"
         transform="translate(-624.15997,-693.44001)"
         clip-rule="evenodd"
         id="path2" />
    </clipPath>
    <clipPath
       clipPathUnits="userSpaceOnUse"
       id="clipPath4">
      <path
         d="M 0,0.16 V 1122.5601 H 793.59998 V 0.16 Z"
         transform="translate(-340.95999,-750.23999)"
         clip-rule="evenodd"
         id="path4" />
    </clipPath>
    <clipPath
       clipPathUnits="userSpaceOnUse"
       id="clipPath6">
      <path
         d="M 0,0.16 V 1122.5601 H 793.59998 V 0.16 Z"
         transform="translate(-348.79998,-714.40003)"
         clip-rule="evenodd"
         id="path6" />
    </clipPath>
    <clipPath
       clipPathUnits="userSpaceOnUse"
       id="clipPath8">
      <path
         d="M 0,0.16 V 1122.5601 H 793.59998 V 0.16 Z"
         transform="translate(-3.3333333e-6)"
         clip-rule="evenodd"
         id="path8" />
    </clipPath>
    <clipPath
       clipPathUnits="userSpaceOnUse"
       id="clipPath10">
      <path
         d="M 0,0.16 V 1122.5601 H 793.59998 V 0.16 Z"
         transform="translate(-3.3333333e-6)"
         clip-rule="evenodd"
         id="path10" />
    </clipPath>
    <clipPath
       clipPathUnits="userSpaceOnUse"
       id="clipPath12">
      <path
         d="M 0,0.16 V 1122.5601 H 793.59998 V 0.16 Z"
         transform="translate(-3.3333333e-6)"
         clip-rule="evenodd"
         id="path12" />
    </clipPath>
  </defs>
  <sodipodi:namedview
     id="namedview1"
     pagecolor="#505050"
     bordercolor="#eeeeee"
     borderopacity="1"
     inkscape:showpageshadow="0"
     inkscape:pageopacity="0"
     inkscape:pagecheckerboard="0"
     inkscape:deskcolor="#505050">
    <inkscape:page
       x="0"
       y="0"
       inkscape:label="1"
       id="page1"
       width="501.60001"
       height="435.13333"
       margin="0"
       bleed="0" />
  </sodipodi:namedview>
  <g
     id="g1"
     inkscape:groupmode="layer"
     inkscape:label="1">
    <path
       id="path1"
       d="m 0,0 c 0,-20.85 -16.9,-37.759998 -37.759998,-37.759998 -20.860001,0 -37.759999,16.909998 -37.759999,37.759998 0,20.85 16.899998,37.759998 37.759999,37.759998 C -16.9,37.759998 0,20.85 0,0 Z"
       style="fill:none;stroke:#000000;stroke-width:26.4;stroke-linecap:round;stroke-linejoin:round;stroke-miterlimit:10;stroke-dasharray:none;stroke-opacity:1"
       transform="translate(474.74664,355.73328)"
       clip-path="url(#clipPath2)" />
    <path
       id="path3"
       d="m 0,0 6.88,-0.16 6.88,-0.64 6.72,-0.96 6.720001,-1.44 6.559997,-1.92 6.560002,-2.24 6.400001,-2.72 6.079998,-3.04 6.080002,-3.36 5.759998,-3.68 5.440003,-4.16 5.279999,-4.319999 4.959999,-4.8 4.800003,-4.960003 4.319999,-5.279998 4,-5.599999 3.680001,-5.760002 3.359997,-6.079998 3.04,-6.079998 2.56,-6.400001 2.24,-6.560006 1.76,-6.559997 1.44,-6.720001 0.96,-6.879998 0.64,-6.88 0.16,-6.88 -0.32,-6.88 -0.64,-6.72 -1.12,-6.88 -1.44,-6.72 -1.92,-6.56 -2.24,-6.4 -2.72,-6.4 -3.040004,-6.08 L 96.32,-172.8 92.639999,-178.39999 88.480003,-184 84,-189.28 l -4.800003,-4.96 -4.959999,-4.64 -5.439995,-4.32 -5.600002,-4 -5.760002,-3.68 -6.079998,-3.2 -6.080002,-3.03999 -6.399998,-2.56 -6.560001,-2.08 L 25.6,-223.52 18.879999,-224.96001 12.16,-225.92 5.28,-226.39999 -1.6,-226.56 l -6.88,0.32 -6.88,0.8 -6.72,1.11999 -6.719999,1.60001 -6.560002,1.92 -6.559997,2.24 -6.240002,2.88001 -6.080002,3.03999 -5.919998,3.52001 -5.759998,3.83999 -5.440003,4.16001 -5.279998,4.47999 -4.800003,4.8 -4.64,4.96 -4.32,5.44 -4,5.6"
       style="fill:none;stroke:#000000;stroke-width:26.4;stroke-linecap:round;stroke-linejoin:round;stroke-miterlimit:10;stroke-dasharray:none;stroke-opacity:1"
       transform="translate(191.54666,412.53326)"
       clip-path="url(#clipPath4)" />
    <path
       id="path5"
       d="M 0,0 -1.92,-1.28 -3.84,-2.4 -5.92,-3.2 -8,-3.84 l -2.24,-0.32 -2.24,-0.16 h -2.24 l -2.239999,0.48 -2.240002,0.48 -2.08,0.96 -1.92,0.96 -1.92,1.28 -1.599998,1.44 L -28.32,3.04 -29.6,4.8 -30.719999,6.72 -31.68,8.8 l -0.64,2.24 -0.319999,2.08 -0.32,2.24 0.16,2.24 0.319999,2.24 0.48,2.24 0.799999,2.08 1.120001,1.92 1.280001,1.92 1.439998,1.76 1.600001,1.600001 1.76,1.279998 1.92,1.119999 2.08,0.960003 2.08,0.799999 2.24,0.32 2.24,0.32 h 2.24"
       style="fill:none;stroke:#000000;stroke-width:26.4;stroke-linecap:round;stroke-linejoin:round;stroke-miterlimit:10;stroke-dasharray:none;stroke-opacity:1"
       transform="translate(199.38665,376.6933)"
       clip-path="url(#clipPath6)" />
    <path
       id="path7"
       d="M 246.56,372 V 580.32001"
       style="fill:none;stroke:#000000;stroke-width:26.4;stroke-linecap:round;stroke-linejoin:round;stroke-miterlimit:10;stroke-dasharray:none;stroke-opacity:1"
       transform="translate(-149.41333,-337.70673)"
       clip-path="url(#clipPath8)" />
    <path
       id="path9"
       d="M 169.60001,446.39999 321.12,447.20001"
       style="fill:none;stroke:#000000;stroke-width:26.4;stroke-linecap:round;stroke-linejoin:round;stroke-miterlimit:10;stroke-dasharray:none;stroke-opacity:1"
       transform="translate(-149.41333,-337.70673)"
       clip-path="url(#clipPath10)" />
    <path
       id="path11"
       d="M 443.84,693.91998 548.64001,693.44"
       style="fill:none;stroke:#000000;stroke-width:26.4;stroke-linecap:round;stroke-linejoin:round;stroke-miterlimit:10;stroke-dasharray:none;stroke-opacity:1"
       transform="translate(-149.41333,-337.70673)"
       clip-path="url(#clipPath12)" />
  </g>
</svg>
