<?xml version="1.0" encoding="UTF-8" standalone="no"?>
<!-- Created with Inkscape (http://www.inkscape.org/) -->

<svg
   version="1.1"
   id="svg1"
   width="374.86667"
   height="413.78668"
   viewBox="0 0 374.86667 413.78668"
   sodipodi:docname="OleumSaturni4.pdf"
   xmlns:inkscape="http://www.inkscape.org/namespaces/inkscape"
   xmlns:sodipodi="http://sodipodi.sourceforge.net/DTD/sodipodi-0.dtd"
   xmlns="http://www.w3.org/2000/svg"
   xmlns:svg="http://www.w3.org/2000/svg">
  <defs
     id="defs1">
    <clipPath
       clipPathUnits="userSpaceOnUse"
       id="clipPath2">
      <path
         d="M 0,0.16 V 1122.5601 H 793.59998 V 0.16 Z"
         transform="translate(-343.35998,-746.40003)"
         clip-rule="evenodd"
         id="path2" />
    </clipPath>
    <clipPath
       clipPathUnits="userSpaceOnUse"
       id="clipPath4">
      <path
         d="M 0,0.16 V 1122.5601 H 793.59998 V 0.16 Z"
         transform="translate(-351.20001,-710.56)"
         clip-rule="evenodd"
         id="path4" />
    </clipPath>
    <clipPath
       clipPathUnits="userSpaceOnUse"
       id="clipPath6">
      <path
         d="M 0,0.16 V 1122.5601 H 793.59998 V 0.16 Z"
         transform="translate(-3.3333333e-6)"
         clip-rule="evenodd"
         id="path6" />
    </clipPath>
    <clipPath
       clipPathUnits="userSpaceOnUse"
       id="clipPath8">
      <path
         d="M 0,0.16 V 1122.5601 H 793.59998 V 0.16 Z"
         transform="translate(-3.3333333e-6)"
         clip-rule="evenodd"
         id="path8" />
    </clipPath>
    <clipPath
       clipPathUnits="userSpaceOnUse"
       id="clipPath10">
      <path
         d="M 0,0.16 V 1122.5601 H 793.59998 V 0.16 Z"
         transform="translate(-3.3333333e-6)"
         clip-rule="evenodd"
         id="path10" />
    </clipPath>
  </defs>
  <sodipodi:namedview
     id="namedview1"
     pagecolor="#505050"
     bordercolor="#eeeeee"
     borderopacity="1"
     inkscape:showpageshadow="0"
     inkscape:pageopacity="0"
     inkscape:pagecheckerboard="0"
     inkscape:deskcolor="#505050">
    <inkscape:page
       x="0"
       y="0"
       inkscape:label="1"
       id="page1"
       width="374.86667"
       height="413.78668"
       margin="0"
       bleed="0" />
  </sodipodi:namedview>
  <g
     id="g1"
     inkscape:groupmode="layer"
     inkscape:label="1">
    <path
       id="path1"
       d="m 0,0 6.88,-0.16 6.88,-0.64 6.879999,-1.12 6.720002,-1.44 6.559997,-1.76 6.560002,-2.24 6.240001,-2.72 6.239998,-3.04 5.920002,-3.36 5.759998,-3.68 5.599999,-4.16 5.279999,-4.319999 4.960006,-4.8 4.64,-4.960003 4.319999,-5.279998 4.159996,-5.599999 3.680001,-5.760002 3.360001,-6.079998 2.88,-6.240002 2.72,-6.239997 2.24,-6.560006 1.76,-6.559997 1.44,-6.879997 0.96,-6.720002 0.48,-6.88 0.16,-6.88 -0.16,-6.88 -0.64,-6.72 -1.12,-6.88 -1.6,-6.72 -1.76,-6.56 -2.4,-6.55999 -2.72,-6.24001 -3.040004,-6.24 -3.359993,-5.92 -3.840004,-5.76 L 88.480003,-184 84,-189.28 l -4.639999,-4.96 -5.120003,-4.64 -5.279999,-4.32 -5.599998,-4 -5.760003,-3.68 -6.079998,-3.36 -6.240001,-2.87999 -6.399998,-2.56 -6.560001,-2.08 -6.56,-1.76001 -6.719999,-1.44001 L 12.16,-225.92 5.28,-226.39999 -1.6,-226.56 l -6.72,0.32 -6.88,0.8 -6.88,1.11999 -6.559999,1.44001 -6.720002,2.08 -6.399997,2.24 -6.240002,2.72 -6.240002,3.2 -5.919998,3.36 -5.600002,3.84 -5.599999,4.16 -5.120002,4.64 -4.959999,4.8 -4.64,4.96 -4.32,5.44 -4,5.6"
       style="fill:none;stroke:#000000;stroke-width:26.4;stroke-linecap:round;stroke-linejoin:round;stroke-miterlimit:10;stroke-dasharray:none;stroke-opacity:1"
       transform="translate(235.30665,392.67997)"
       clip-path="url(#clipPath2)" />
    <path
       id="path3"
       d="M 0,0 -1.76,-1.28 -3.68,-2.4 -5.76,-3.2 -8,-3.84 -10.24,-4.32 h -2.24 -2.24 l -2.239999,0.32 -2.080002,0.64 -2.08,0.8 -1.92,1.12 -1.919998,1.28 -1.76,1.44 L -28.16,3.04 -29.440001,4.8 -30.559999,6.72 -31.52,8.8 l -0.64,2.08 -0.479999,2.24 -0.16,2.24 v 2.24 l 0.319999,2.24 0.64,2.24 0.799999,2.08 0.960001,1.92 1.280001,1.92 1.439998,1.76 1.600001,1.440001 1.76,1.439998 2.08,1.119999 1.92,0.960003 2.24,0.64 2.08,0.479999 2.24,0.32 2.24,-0.16"
       style="fill:none;stroke:#000000;stroke-width:26.4;stroke-linecap:round;stroke-linejoin:round;stroke-miterlimit:10;stroke-dasharray:none;stroke-opacity:1"
       transform="translate(243.14668,356.83994)"
       clip-path="url(#clipPath4)" />
    <path
       id="path5"
       d="M 248.96001,371.35999 V 576.47998"
       style="fill:none;stroke:#000000;stroke-width:26.4;stroke-linecap:round;stroke-linejoin:round;stroke-miterlimit:10;stroke-dasharray:none;stroke-opacity:1"
       transform="translate(-108.05333,-353.72006)"
       clip-path="url(#clipPath6)" />
    <path
       id="path7"
       d="M 169.28,368.32001 V 746.71997"
       style="fill:none;stroke:#000000;stroke-width:26.4;stroke-linecap:round;stroke-linejoin:round;stroke-miterlimit:10;stroke-dasharray:none;stroke-opacity:1"
       transform="translate(-108.05333,-353.72006)"
       clip-path="url(#clipPath8)" />
    <path
       id="path9"
       d="m 132.16,486.07999 156.79999,-1.43998"
       style="fill:none;stroke:#000000;stroke-width:26.4;stroke-linecap:round;stroke-linejoin:round;stroke-miterlimit:10;stroke-dasharray:none;stroke-opacity:1"
       transform="translate(-108.05333,-353.72006)"
       clip-path="url(#clipPath10)" />
  </g>
</svg>
