<?xml version="1.0" encoding="UTF-8" standalone="no"?>
<!-- Created with Inkscape (http://www.inkscape.org/) -->

<svg
   version="1.1"
   id="svg1"
   width="508.28"
   height="487.20001"
   viewBox="0 0 508.28 487.20001"
   sodipodi:docname="OleumSaturni6.pdf"
   xmlns:inkscape="http://www.inkscape.org/namespaces/inkscape"
   xmlns:sodipodi="http://sodipodi.sourceforge.net/DTD/sodipodi-0.dtd"
   xmlns="http://www.w3.org/2000/svg"
   xmlns:svg="http://www.w3.org/2000/svg">
  <defs
     id="defs1">
    <clipPath
       clipPathUnits="userSpaceOnUse"
       id="clipPath2">
      <path
         d="M 0,0.16 V 1122.5601 H 793.59998 V 0.16 Z"
         transform="translate(-3.3333333e-6)"
         clip-rule="evenodd"
         id="path2" />
    </clipPath>
    <clipPath
       clipPathUnits="userSpaceOnUse"
       id="clipPath4">
      <path
         d="M 0,0.16 V 1122.5601 H 793.59998 V 0.16 Z"
         transform="translate(-3.3333333e-6)"
         clip-rule="evenodd"
         id="path4" />
    </clipPath>
    <clipPath
       clipPathUnits="userSpaceOnUse"
       id="clipPath6">
      <path
         d="M 0,0.16 V 1122.5601 H 793.59998 V 0.16 Z"
         transform="translate(-477.6,-770.56)"
         clip-rule="evenodd"
         id="path6" />
    </clipPath>
    <clipPath
       clipPathUnits="userSpaceOnUse"
       id="clipPath8">
      <path
         d="M 0,0.16 V 1122.5601 H 793.59998 V 0.16 Z"
         transform="translate(-3.3333333e-6)"
         clip-rule="evenodd"
         id="path8" />
    </clipPath>
    <clipPath
       clipPathUnits="userSpaceOnUse"
       id="clipPath10">
      <path
         d="M 0,0.16 V 1122.5601 H 793.59998 V 0.16 Z"
         transform="translate(-3.3333333e-6)"
         clip-rule="evenodd"
         id="path10" />
    </clipPath>
  </defs>
  <sodipodi:namedview
     id="namedview1"
     pagecolor="#505050"
     bordercolor="#eeeeee"
     borderopacity="1"
     inkscape:showpageshadow="0"
     inkscape:pageopacity="0"
     inkscape:pagecheckerboard="0"
     inkscape:deskcolor="#505050">
    <inkscape:page
       x="0"
       y="0"
       inkscape:label="1"
       id="page1"
       width="508.28"
       height="487.20001"
       margin="0"
       bleed="0" />
  </sodipodi:namedview>
  <g
     id="g1"
     inkscape:groupmode="layer"
     inkscape:label="1">
    <path
       id="path1"
       d="M 245.75999,334.72 V 787.84003"
       style="fill:none;stroke:#000000;stroke-width:26.4;stroke-linecap:round;stroke-linejoin:round;stroke-miterlimit:10;stroke-dasharray:none;stroke-opacity:1"
       transform="translate(-149.41333,-319.01339)"
       clip-path="url(#clipPath2)" />
    <path
       id="path3"
       d="M 245.75999,787.84003 359.04001,636.79999"
       style="fill:none;stroke:#000000;stroke-width:26.4;stroke-linecap:round;stroke-linejoin:round;stroke-miterlimit:10;stroke-dasharray:none;stroke-opacity:1"
       transform="translate(-149.41333,-319.01339)"
       clip-path="url(#clipPath4)" />
    <path
       id="path5"
       d="M 0,0 4.96,2.56 9.92,4.64 15.04,6.4 20.32,7.84 25.6,8.8 31.040001,9.44 36.48,9.6 41.759998,9.44 47.200001,8.96 52.639999,8 57.759998,6.56 63.040001,4.96 68,2.88 l 4.800003,-2.4 4.799995,-2.72 4.32,-3.2 4.32,-3.36 4,-3.68 3.68,-4 3.360001,-4.159999 3.040001,-4.480002 2.88,-4.639999 2.4,-4.800001 2.08,-5.119999 1.6,-5.119999 1.44,-5.280003 0.96,-5.279999 0.48,-5.439998 0.16,-5.439999 -0.16,-5.440002 -0.64,-5.279999 -0.96,-5.440003 -1.44,-5.119995 -1.76,-5.280006 -2.08,-4.959999 -2.4,-4.799998 -2.88,-4.64 -3.040001,-4.48 -3.519997,-4.16 -3.68,-4 -4,-3.52 -4.32,-3.36 -4.480003,-3.03999 L 72.32,-132.48 l -4.800003,-2.4 -5.119995,-2.08001 L 57.279999,-138.56 52,-139.84 l -5.439999,-0.96 -5.280002,-0.48 -5.439999,-0.16 -5.44,0.32001 -5.440001,0.63999 -5.279999,0.96 -5.28,1.44 -5.12,1.75999 -4.96,2.24001 -4.8,2.56 -4.64,2.72"
       style="fill:none;stroke:#000000;stroke-width:26.4;stroke-linecap:round;stroke-linejoin:round;stroke-miterlimit:10;stroke-dasharray:none;stroke-opacity:1"
       transform="translate(328.18667,451.54661)"
       clip-path="url(#clipPath6)" />
    <path
       id="path7"
       d="M 472.32001,334.72 V 636.79999"
       style="fill:none;stroke:#000000;stroke-width:26.4;stroke-linecap:round;stroke-linejoin:round;stroke-miterlimit:10;stroke-dasharray:none;stroke-opacity:1"
       transform="translate(-149.41333,-319.01339)"
       clip-path="url(#clipPath8)" />
    <path
       id="path9"
       d="M 170.24,485.76001 H 623.35998"
       style="fill:none;stroke:#000000;stroke-width:26.4;stroke-linecap:round;stroke-linejoin:round;stroke-miterlimit:10;stroke-dasharray:none;stroke-opacity:1"
       transform="translate(-149.41333,-319.01339)"
       clip-path="url(#clipPath10)" />
  </g>
</svg>
