<?xml version="1.0" encoding="UTF-8" standalone="no"?>
<!-- Created with Inkscape (http://www.inkscape.org/) -->

<svg
   version="1.1"
   id="svg1"
   width="482.93332"
   height="393.76001"
   viewBox="0 0 482.93332 393.76001"
   sodipodi:docname="OleumSaturni3.pdf"
   xmlns:inkscape="http://www.inkscape.org/namespaces/inkscape"
   xmlns:sodipodi="http://sodipodi.sourceforge.net/DTD/sodipodi-0.dtd"
   xmlns="http://www.w3.org/2000/svg"
   xmlns:svg="http://www.w3.org/2000/svg">
  <defs
     id="defs1">
    <clipPath
       clipPathUnits="userSpaceOnUse"
       id="clipPath2">
      <path
         d="M 0,0.16 V 1122.5601 H 793.59998 V 0.16 Z"
         transform="translate(-321.28,-731.35998)"
         clip-rule="evenodd"
         id="path2" />
    </clipPath>
    <clipPath
       clipPathUnits="userSpaceOnUse"
       id="clipPath4">
      <path
         d="M 0,0.16 V 1122.5601 H 793.59998 V 0.16 Z"
         transform="translate(-329.12,-695.52002)"
         clip-rule="evenodd"
         id="path4" />
    </clipPath>
    <clipPath
       clipPathUnits="userSpaceOnUse"
       id="clipPath6">
      <path
         d="M 0,0.16 V 1122.5601 H 793.59998 V 0.16 Z"
         clip-rule="evenodd"
         id="path6" />
    </clipPath>
    <clipPath
       clipPathUnits="userSpaceOnUse"
       id="clipPath8">
      <path
         d="M 0,0.16 V 1122.5601 H 793.59998 V 0.16 Z"
         transform="translate(-264.64001,-391.51999)"
         clip-rule="evenodd"
         id="path8" />
    </clipPath>
    <clipPath
       clipPathUnits="userSpaceOnUse"
       id="clipPath10">
      <path
         d="M 0,0.16 V 1122.5601 H 793.59998 V 0.16 Z"
         clip-rule="evenodd"
         id="path10" />
    </clipPath>
    <clipPath
       clipPathUnits="userSpaceOnUse"
       id="clipPath12">
      <path
         d="M 0,0.16 V 1122.5601 H 793.59998 V 0.16 Z"
         clip-rule="evenodd"
         id="path12" />
    </clipPath>
    <clipPath
       clipPathUnits="userSpaceOnUse"
       id="clipPath14">
      <path
         d="M 0,0.16 V 1122.5601 H 793.59998 V 0.16 Z"
         transform="translate(-538.40002,-712.32001)"
         clip-rule="evenodd"
         id="path14" />
    </clipPath>
    <clipPath
       clipPathUnits="userSpaceOnUse"
       id="clipPath16">
      <path
         d="M 0,0.16 V 1122.5601 H 793.59998 V 0.16 Z"
         clip-rule="evenodd"
         id="path16" />
    </clipPath>
    <clipPath
       clipPathUnits="userSpaceOnUse"
       id="clipPath18">
      <path
         d="M 0,0.16 V 1122.5601 H 793.59998 V 0.16 Z"
         clip-rule="evenodd"
         id="path18" />
    </clipPath>
    <clipPath
       clipPathUnits="userSpaceOnUse"
       id="clipPath20">
      <path
         d="M 0,0.16 V 1122.5601 H 793.59998 V 0.16 Z"
         clip-rule="evenodd"
         id="path20" />
    </clipPath>
  </defs>
  <sodipodi:namedview
     id="namedview1"
     pagecolor="#505050"
     bordercolor="#eeeeee"
     borderopacity="1"
     inkscape:showpageshadow="0"
     inkscape:pageopacity="0"
     inkscape:pagecheckerboard="0"
     inkscape:deskcolor="#505050">
    <inkscape:page
       x="0"
       y="0"
       inkscape:label="1"
       id="page1"
       width="482.93332"
       height="393.76001"
       margin="0"
       bleed="0" />
  </sodipodi:namedview>
  <g
     id="g1"
     inkscape:groupmode="layer"
     inkscape:label="1">
    <path
       id="path1"
       d="m 0,0 6.88,-0.16 6.88,-0.64 6.879999,-1.12 6.720002,-1.44 6.559997,-1.76 6.400002,-2.4 6.400001,-2.56 6.239998,-3.04 5.920002,-3.36 5.759998,-3.84 5.599999,-4 5.279999,-4.479999 4.960006,-4.64 4.64,-5.120002 4.319999,-5.279999 4.159996,-5.439999 3.680001,-5.920002 3.360001,-5.919998 2.88,-6.240002 2.72,-6.400001 2.08,-6.400002 1.92,-6.719993 1.28,-6.720001 1.12,-6.720002 0.48,-6.88 0.16,-6.88 -0.16,-6.88 -0.8,-6.88 -0.96,-6.72 -1.6,-6.72 -1.92,-6.56 -2.24,-6.55999 -2.72,-6.24001 -3.040004,-6.24 -3.359993,-5.92 -3.840004,-5.76 L 88.480003,-184 84,-189.28 l -4.639999,-4.96 -5.120003,-4.64 -5.279999,-4.32 -5.599998,-4 -5.920002,-3.68 -5.919999,-3.36 -6.240001,-2.87999 -6.399998,-2.56 L 32.32,-221.92 25.76,-223.67999 19.040001,-224.96001 12.16,-225.92 5.28,-226.39999 -1.6,-226.56 l -6.88,0.32 -6.72,0.63999 -6.88,1.28 -6.719999,1.44001 -6.560002,1.91999 -6.399997,2.40001 -6.400002,2.72 -6.080002,3.2 -5.919998,3.36 -5.759998,3.84 -5.440003,4.16 -5.120002,4.48 -4.959999,4.8 -4.64,5.12 -4.32,5.44 -4,5.6"
       style="fill:none;stroke:#000000;stroke-width:26.4;stroke-linecap:round;stroke-linejoin:round;stroke-miterlimit:10;stroke-dasharray:none;stroke-opacity:1"
       transform="translate(321.28,734.02659)"
       clip-path="url(#clipPath2)" />
    <path
       id="path3"
       d="M 0,0 -1.76,-1.28 -3.68,-2.4 -5.76,-3.2 -8,-3.84 l -2.24,-0.48 -2.24,-0.16 -2.24,0.16 -2.239999,0.32 -2.080002,0.64 -2.08,0.8 -2.08,1.12 -1.759998,1.28 -1.76,1.44 L -28.16,2.88 -29.6,4.8 -30.719999,6.72 -31.52,8.8 l -0.64,2.08 -0.479999,2.24 -0.16,2.24 v 2.24 l 0.319999,2.24 0.64,2.08 0.799999,2.24 0.960001,1.92 1.280001,1.92 1.439998,1.6 1.600001,1.600001 1.76,1.439998 1.92,1.119999 2.08,0.960003 2.24,0.64 2.08,0.479999 2.24,0.16 h 2.24"
       style="fill:none;stroke:#000000;stroke-width:26.4;stroke-linecap:round;stroke-linejoin:round;stroke-miterlimit:10;stroke-dasharray:none;stroke-opacity:1"
       transform="translate(329.12,698.18663)"
       clip-path="url(#clipPath4)" />
    <path
       id="path5"
       d="M 226.88,410.39999 V 561.44"
       style="fill:none;stroke:#000000;stroke-width:26.4;stroke-linecap:round;stroke-linejoin:round;stroke-miterlimit:10;stroke-dasharray:none;stroke-opacity:1"
       transform="translate(0,2.666608)"
       clip-path="url(#clipPath6)" />
    <path
       id="path7"
       d="m 0,0 -2.88,-0.8 -3.2,-0.64 -3.04,-0.16 -3.2,0.16 -3.04,0.32 -3.04,0.8 L -21.440001,0.8 -24.16,2.24 -26.879999,3.84 -29.280001,5.92 -31.52,8 l -1.919999,2.56 -1.760002,2.56 -1.439998,2.88 -1.119999,2.879999"
       style="fill:none;stroke:#000000;stroke-width:26.4;stroke-linecap:round;stroke-linejoin:round;stroke-miterlimit:10;stroke-dasharray:none;stroke-opacity:1"
       transform="translate(264.64001,394.1866)"
       clip-path="url(#clipPath8)" />
    <path
       id="path9"
       d="M 387.35999,712.32001 H 462.88"
       style="fill:none;stroke:#000000;stroke-width:26.4;stroke-linecap:round;stroke-linejoin:round;stroke-miterlimit:10;stroke-dasharray:none;stroke-opacity:1"
       transform="translate(0,2.666608)"
       clip-path="url(#clipPath10)" />
    <path
       id="path11"
       d="m 538.40002,712.32001 h 75.51996"
       style="fill:none;stroke:#000000;stroke-width:26.4;stroke-linecap:round;stroke-linejoin:round;stroke-miterlimit:10;stroke-dasharray:none;stroke-opacity:1"
       transform="translate(0,2.666608)"
       clip-path="url(#clipPath12)" />
    <path
       id="path13"
       d="m 0,0 -0.16,-3.52 -0.48,-3.36 -0.8,-3.52 -1.12,-3.2 -1.28,-3.199999 -1.76,-3.040001 -1.92,-2.879999 -2.24,-2.720002 -2.56,-2.399999 -2.72,-2.24 -2.72,-2.08 -3.199999,-1.599998 L -24,-35.200001 -27.360001,-36.32 l -3.359998,-0.799999 -3.520003,-0.479999 -3.519996,-0.16 -3.520001,0.16 -3.36,0.479999 L -48,-36.32 l -3.360001,1.119999 -3.2,1.440003 -3.039997,1.599998 -2.880002,2.08 -2.720001,2.24 -2.399997,2.399999 -2.239998,2.720002 -1.920006,2.879999 -1.759995,3.040001 -1.440002,3.199999 -1.120003,3.2 -0.799995,3.52 -0.480004,3.36 -0.159996,3.52"
       style="fill:none;stroke:#000000;stroke-width:26.4;stroke-linecap:round;stroke-linejoin:round;stroke-miterlimit:10;stroke-dasharray:none;stroke-opacity:1"
       transform="translate(538.40002,714.98662)"
       clip-path="url(#clipPath14)" />
    <path
       id="path15"
       d="m 179.67999,448 h 94.4"
       style="fill:none;stroke:#000000;stroke-width:26.4;stroke-linecap:round;stroke-linejoin:round;stroke-miterlimit:10;stroke-dasharray:none;stroke-opacity:1"
       transform="translate(0,2.666608)"
       clip-path="url(#clipPath16)" />
    <path
       id="path17"
       d="m 179.67999,429.12 v 37.76"
       style="fill:none;stroke:#000000;stroke-width:26.4;stroke-linecap:round;stroke-linejoin:round;stroke-miterlimit:10;stroke-dasharray:none;stroke-opacity:1"
       transform="translate(0,2.666608)"
       clip-path="url(#clipPath18)" />
    <path
       id="path19"
       d="m 274.07999,429.12 v 37.76"
       style="fill:none;stroke:#000000;stroke-width:26.4;stroke-linecap:round;stroke-linejoin:round;stroke-miterlimit:10;stroke-dasharray:none;stroke-opacity:1"
       transform="translate(0,2.666608)"
       clip-path="url(#clipPath20)" />
  </g>
</svg>
