<?xml version="1.0" encoding="UTF-8" standalone="no"?>
<!-- Created with Inkscape (http://www.inkscape.org/) -->

<svg
   version="1.1"
   id="svg1"
   width="508.26666"
   height="380.41333"
   viewBox="0 0 508.26666 380.41333"
   sodipodi:docname="OleumSaturni2.pdf"
   xmlns:inkscape="http://www.inkscape.org/namespaces/inkscape"
   xmlns:sodipodi="http://sodipodi.sourceforge.net/DTD/sodipodi-0.dtd"
   xmlns="http://www.w3.org/2000/svg"
   xmlns:svg="http://www.w3.org/2000/svg">
  <defs
     id="defs1">
    <clipPath
       clipPathUnits="userSpaceOnUse"
       id="clipPath2">
      <path
         d="M 0,0.16 V 1122.5601 H 793.59998 V 0.16 Z"
         clip-rule="evenodd"
         id="path2" />
    </clipPath>
    <clipPath
       clipPathUnits="userSpaceOnUse"
       id="clipPath4">
      <path
         d="M 0,0.16 V 1122.5601 H 793.59998 V 0.16 Z"
         clip-rule="evenodd"
         id="path4" />
    </clipPath>
    <clipPath
       clipPathUnits="userSpaceOnUse"
       id="clipPath6">
      <path
         d="M 0,0.16 V 1122.5601 H 793.59998 V 0.16 Z"
         clip-rule="evenodd"
         id="path6" />
    </clipPath>
    <clipPath
       clipPathUnits="userSpaceOnUse"
       id="clipPath8">
      <path
         d="M 0,0.16 V 1122.5601 H 793.59998 V 0.16 Z"
         clip-rule="evenodd"
         id="path8" />
    </clipPath>
    <clipPath
       clipPathUnits="userSpaceOnUse"
       id="clipPath10">
      <path
         d="M 0,0.16 V 1122.5601 H 793.59998 V 0.16 Z"
         transform="translate(-337.76001,-561.28003)"
         clip-rule="evenodd"
         id="path10" />
    </clipPath>
    <clipPath
       clipPathUnits="userSpaceOnUse"
       id="clipPath12">
      <path
         d="M 0,0.16 V 1122.5601 H 793.59998 V 0.16 Z"
         transform="translate(-340.16001,-561.28003)"
         clip-rule="evenodd"
         id="path12" />
    </clipPath>
  </defs>
  <sodipodi:namedview
     id="namedview1"
     pagecolor="#505050"
     bordercolor="#eeeeee"
     borderopacity="1"
     inkscape:showpageshadow="0"
     inkscape:pageopacity="0"
     inkscape:pagecheckerboard="0"
     inkscape:deskcolor="#505050">
    <inkscape:page
       x="0"
       y="0"
       inkscape:label="1"
       id="page1"
       width="508.26666"
       height="380.41333"
       margin="0"
       bleed="0" />
  </sodipodi:namedview>
  <g
     id="g1"
     inkscape:groupmode="layer"
     inkscape:label="1">
    <path
       id="path1"
       d="M 176,561.28003 H 547.84003"
       style="fill:none;stroke:#000000;stroke-width:26.4;stroke-linecap:round;stroke-linejoin:round;stroke-miterlimit:10;stroke-dasharray:none;stroke-opacity:1"
       transform="translate(-70.706667,-313.68006)"
       clip-path="url(#clipPath2)" />
    <path
       id="path3"
       d="M 170.24,334.72 V 561.28003"
       style="fill:none;stroke:#000000;stroke-width:26.4;stroke-linecap:round;stroke-linejoin:round;stroke-miterlimit:10;stroke-dasharray:none;stroke-opacity:1"
       transform="translate(-70.706667,-313.68006)"
       clip-path="url(#clipPath4)" />
    <path
       id="path5"
       d="m 473.44,586.40002 h 75.52002 v 84.95996 H 473.44 v -84.95996"
       style="fill:none;stroke:#000000;stroke-width:26.4;stroke-linecap:round;stroke-linejoin:round;stroke-miterlimit:10;stroke-dasharray:none;stroke-opacity:1"
       transform="translate(-70.706667,-313.68006)"
       clip-path="url(#clipPath6)" />
    <path
       id="path7"
       d="M 94.720001,410.23999 H 321.28"
       style="fill:none;stroke:#000000;stroke-width:26.4;stroke-linecap:round;stroke-linejoin:round;stroke-miterlimit:10;stroke-dasharray:none;stroke-opacity:1"
       transform="translate(-70.706667,-313.68006)"
       clip-path="url(#clipPath8)" />
    <path
       id="path9"
       d="M 0,0 -0.16,-5.76 -0.64,-11.52 -1.6,-17.120001 -2.88,-22.719999 -4.64,-28.32 -6.72,-33.599998 -9.12,-38.880001 -12,-43.84 l -3.04,-4.799999 -3.519999,-4.64 -3.680001,-4.319999 -4.16,-4.16 -4.319999,-3.84 -4.480002,-3.360001 L -40,-72.160004 -44.959999,-75.040001 -50.240002,-77.440002 -55.52,-79.68 -60.959999,-81.440002 -66.559998,-82.720001 -72.32,-83.68 -78.080002,-84.32 -83.68,-84.480003 -89.440002,-84.32 l -5.759995,0.64 -5.760003,0.959999 -5.44,1.279999 -5.6,1.760002 -5.28,2.239998 -5.28,2.400001 -4.96,2.879997 -4.80001,3.200005 -4.47999,3.519997 -4.31999,3.680004 -4.16001,4.16 -3.68001,4.319999 -3.51999,4.64 -3.04,4.799999 -2.87999,4.959999 -2.40001,5.280003 -2.08,5.439998 -1.6,5.440001 -1.44,5.599998 -0.8,5.600001 -0.64,5.76 -0.16,5.76"
       style="fill:none;stroke:#000000;stroke-width:26.4;stroke-linecap:round;stroke-linejoin:round;stroke-miterlimit:10;stroke-dasharray:none;stroke-opacity:1"
       transform="translate(267.05334,247.59997)"
       clip-path="url(#clipPath10)" />
    <path
       id="path11"
       d="m 0,0 0.32,6.08 0.64,5.92 1.12,5.92 1.44,5.92 1.92,5.600001 2.4,5.6 2.56,5.439999 3.04,5.119998 3.519999,4.960003 3.68,4.8 4,4.479999 4.32,4.16 4.639999,3.839996 4.960003,3.520005 5.119999,3.199997 5.279999,2.880004 5.440003,2.399994 5.759998,2.080002 5.759998,1.599999 5.919998,1.280006 5.920006,0.799995 5.919998,0.480004 h 6.080002 l 6.079994,-0.32 L 101.76,84.959999 107.68,83.68 113.44,82.080002 119.04,80 l 5.6,-2.400002"
       style="fill:none;stroke:#000000;stroke-width:26.4;stroke-linecap:round;stroke-linejoin:round;stroke-miterlimit:10;stroke-dasharray:none;stroke-opacity:1"
       transform="translate(269.45334,247.59997)"
       clip-path="url(#clipPath12)" />
  </g>
</svg>
