<?xml version="1.0" encoding="UTF-8" standalone="no"?>
<!-- Created with Inkscape (http://www.inkscape.org/) -->

<svg
   version="1.1"
   id="svg1"
   width="470.92001"
   height="388.41333"
   viewBox="0 0 470.92001 388.41333"
   sodipodi:docname="PatinaOfSilver.pdf"
   xmlns:inkscape="http://www.inkscape.org/namespaces/inkscape"
   xmlns:sodipodi="http://sodipodi.sourceforge.net/DTD/sodipodi-0.dtd"
   xmlns="http://www.w3.org/2000/svg"
   xmlns:svg="http://www.w3.org/2000/svg">
  <defs
     id="defs1">
    <clipPath
       clipPathUnits="userSpaceOnUse"
       id="clipPath2">
      <path
         d="M 0,0.16 V 1122.5601 H 793.59998 V 0.16 Z"
         clip-rule="evenodd"
         id="path2" />
    </clipPath>
    <clipPath
       clipPathUnits="userSpaceOnUse"
       id="clipPath4">
      <path
         d="M 0,0.16 V 1122.5601 H 793.59998 V 0.16 Z"
         clip-rule="evenodd"
         id="path4" />
    </clipPath>
    <clipPath
       clipPathUnits="userSpaceOnUse"
       id="clipPath6">
      <path
         d="M 0,0.16 V 1122.5601 H 793.59998 V 0.16 Z"
         transform="translate(-612.64001,-410.72)"
         clip-rule="evenodd"
         id="path6" />
    </clipPath>
    <clipPath
       clipPathUnits="userSpaceOnUse"
       id="clipPath8">
      <path
         d="M 0,0.16 V 1122.5601 H 793.59998 V 0.16 Z"
         transform="translate(-612.64001,-410.72)"
         clip-rule="evenodd"
         id="path8" />
    </clipPath>
  </defs>
  <sodipodi:namedview
     id="namedview1"
     pagecolor="#505050"
     bordercolor="#eeeeee"
     borderopacity="1"
     inkscape:showpageshadow="0"
     inkscape:pageopacity="0"
     inkscape:pagecheckerboard="0"
     inkscape:deskcolor="#505050">
    <inkscape:page
       x="0"
       y="0"
       inkscape:label="1"
       id="page1"
       width="470.92001"
       height="388.41333"
       margin="0"
       bleed="0" />
  </sodipodi:namedview>
  <g
     id="g1"
     inkscape:groupmode="layer"
     inkscape:label="1">
    <path
       id="path1"
       d="M 195.2,576.79999 V 701.44"
       style="fill:none;stroke:#000000;stroke-width:26.4;stroke-linecap:round;stroke-linejoin:round;stroke-miterlimit:10;stroke-dasharray:none;stroke-opacity:1"
       transform="translate(-166.76,-385.76006)"
       clip-path="url(#clipPath2)" />
    <path
       id="path3"
       d="M 195.2,576.79999 H 448.64001"
       style="fill:none;stroke:#000000;stroke-width:26.4;stroke-linecap:round;stroke-linejoin:round;stroke-miterlimit:10;stroke-dasharray:none;stroke-opacity:1"
       transform="translate(-166.76,-385.76006)"
       clip-path="url(#clipPath4)" />
    <path
       id="path5"
       d="M 0,0 -8.64,0.16 -17.280001,0.8 -25.92,1.92 l -8.640001,1.6 -8.48,2.08 -8.32,2.4 -8.159999,3.04 -7.999997,3.2 -7.840004,3.84 -7.68,4.16 -7.360001,4.479999 -7.199996,4.960001 -6.880002,5.279999 -6.72,5.600002 -6.24,6.079998 -5.92,6.240002 -5.75999,6.719997 -5.28,6.880005 -4.96001,7.039994 -4.48,7.520004 -4.16,7.68 -3.67999,7.839997 -3.36,8.000002 -2.88001,8.16 -2.56,8.32 -1.91999,8.48 -1.60001,8.64 -1.11999,8.48 -0.80001,8.8 -0.16,8.64 0.16,8.64 0.80001,8.8 1.11999,8.48 1.60001,8.64 1.91999,8.47999 2.56,8.32001 2.88001,8.16001 3.36,8 3.67999,7.83999 4.16,7.67999 4.48,7.52002 4.96001,7.03998 5.28,6.88001 5.75999,6.72 5.92,6.23999 6.24,6.08002 6.72,5.6 6.880002,5.28 7.199996,4.95999 7.360001,4.48001 7.68,4.15998 7.840004,3.84002 7.999997,3.19999 8.159999,3.04 8.32,2.4 8.48,2.08001 8.640001,1.59998 8.639999,1.12 L -8.64,332 0,332.16"
       style="fill:none;stroke:#000000;stroke-width:26.4;stroke-linecap:round;stroke-linejoin:round;stroke-miterlimit:10;stroke-dasharray:none;stroke-opacity:1"
       transform="translate(445.88001,24.959942)"
       clip-path="url(#clipPath6)" />
    <path
       id="path7"
       d="M 0,0 -7.04,8.32 -13.76,17.120001 -20,26.08 l -5.92,9.280001 -5.440001,9.599998 -4.959999,9.760002 -4.639999,9.919998 -4.32,10.080002 -3.68,10.400002 L -52.32,95.68 l -2.720001,10.56 -2.399998,10.72 -1.920002,10.88 -1.439998,10.88 -0.959999,10.88001 -0.480004,11.03999 v 10.88 l 0.480004,11.04 0.959999,10.88 1.439998,10.88001 1.920002,10.87999 2.399998,10.72 2.720001,10.56 3.360001,10.55999 3.68,10.40001 4.32,10.07999 4.639999,9.92001 4.959999,9.76001 5.440001,9.59998 5.92,9.28 6.24,8.96002 6.72,8.79999 7.04,8.32"
       style="fill:none;stroke:#000000;stroke-width:26.4;stroke-linecap:round;stroke-linejoin:round;stroke-miterlimit:10;stroke-dasharray:none;stroke-opacity:1"
       transform="translate(445.88001,24.959942)"
       clip-path="url(#clipPath8)" />
  </g>
</svg>
