<?xml version="1.0" encoding="UTF-8" standalone="no"?>
<!-- Created with Inkscape (http://www.inkscape.org/) -->

<svg
   version="1.1"
   id="svg1"
   width="276.16"
   height="208.22667"
   viewBox="0 0 276.16 208.22667"
   sodipodi:docname="PowderedBrick3.pdf"
   xmlns:inkscape="http://www.inkscape.org/namespaces/inkscape"
   xmlns:sodipodi="http://sodipodi.sourceforge.net/DTD/sodipodi-0.dtd"
   xmlns="http://www.w3.org/2000/svg"
   xmlns:svg="http://www.w3.org/2000/svg">
  <defs
     id="defs1">
    <clipPath
       clipPathUnits="userSpaceOnUse"
       id="clipPath2">
      <path
         d="M 0,0.16 V 1122.5601 H 793.59998 V 0.16 Z"
         transform="translate(3.3333334e-6)"
         clip-rule="evenodd"
         id="path2" />
    </clipPath>
    <clipPath
       clipPathUnits="userSpaceOnUse"
       id="clipPath4">
      <path
         d="M 0,0.16 V 1122.5601 H 793.59998 V 0.16 Z"
         transform="translate(-330.72,-599.03998)"
         clip-rule="evenodd"
         id="path4" />
    </clipPath>
    <clipPath
       clipPathUnits="userSpaceOnUse"
       id="clipPath6">
      <path
         d="M 0,0.16 V 1122.5601 H 793.59998 V 0.16 Z"
         transform="translate(-406.23999,-599.03998)"
         clip-rule="evenodd"
         id="path6" />
    </clipPath>
    <clipPath
       clipPathUnits="userSpaceOnUse"
       id="clipPath8">
      <path
         d="M 0,0.16 V 1122.5601 H 793.59998 V 0.16 Z"
         transform="translate(-481.76001,-599.03998)"
         clip-rule="evenodd"
         id="path8" />
    </clipPath>
    <clipPath
       clipPathUnits="userSpaceOnUse"
       id="clipPath10">
      <path
         d="M 0,0.16 V 1122.5601 H 793.59998 V 0.16 Z"
         transform="translate(-330.72,-523.52002)"
         clip-rule="evenodd"
         id="path10" />
    </clipPath>
    <clipPath
       clipPathUnits="userSpaceOnUse"
       id="clipPath12">
      <path
         d="M 0,0.16 V 1122.5601 H 793.59998 V 0.16 Z"
         transform="translate(-406.23999,-523.52002)"
         clip-rule="evenodd"
         id="path12" />
    </clipPath>
    <clipPath
       clipPathUnits="userSpaceOnUse"
       id="clipPath14">
      <path
         d="M 0,0.16 V 1122.5601 H 793.59998 V 0.16 Z"
         transform="translate(-481.76001,-523.52002)"
         clip-rule="evenodd"
         id="path14" />
    </clipPath>
    <clipPath
       clipPathUnits="userSpaceOnUse"
       id="clipPath16">
      <path
         d="M 0,0.16 V 1122.5601 H 793.59998 V 0.16 Z"
         transform="translate(3.3333334e-6)"
         clip-rule="evenodd"
         id="path16" />
    </clipPath>
  </defs>
  <sodipodi:namedview
     id="namedview1"
     pagecolor="#505050"
     bordercolor="#eeeeee"
     borderopacity="1"
     inkscape:showpageshadow="0"
     inkscape:pageopacity="0"
     inkscape:pagecheckerboard="0"
     inkscape:deskcolor="#505050">
    <inkscape:page
       x="0"
       y="0"
       inkscape:label="1"
       id="page1"
       width="276.16"
       height="208.22667"
       margin="0"
       bleed="0" />
  </sodipodi:namedview>
  <g
     id="g1"
     inkscape:groupmode="layer"
     inkscape:label="1">
    <path
       id="path1"
       d="m 283.51999,485.76001 h 226.56 v 151.03998 h -226.56 V 485.76001"
       style="fill:none;stroke:#000000;stroke-width:26.4;stroke-linecap:round;stroke-linejoin:round;stroke-miterlimit:10;stroke-dasharray:none;stroke-opacity:1"
       transform="translate(-257.46667,-453.82673)"
       clip-path="url(#clipPath2)" />
    <path
       id="path3"
       d="M 0,0 V -1.28 L -0.32,-2.72 -0.8,-3.84 -1.44,-5.12 -2.24,-6.24 -3.2,-7.04 -4.32,-8 -5.44,-8.64 -6.72,-8.96 -8,-9.28 l -1.44,-0.16 -1.28,0.16 -1.28,0.32 -1.28,0.32 -1.28,0.64 -0.96,0.96 -0.96,0.8 -0.800001,1.12 -0.639999,1.28 -0.48,1.12 -0.319999,1.44 -0.16,1.28 0.16,1.44 0.319999,1.28 0.48,1.28 0.639999,1.12 0.800001,1.12 0.96,0.96 0.96,0.8 1.28,0.64 1.28,0.48 1.28,0.32 H -9.44 -8 L -6.72,9.12 -5.44,8.64 -4.32,8 -3.2,7.2 -2.24,6.24 -1.44,5.12 -0.8,4 -0.32,2.72 0,1.44 V 0 0 Z"
       style="fill:#000000;fill-opacity:1;fill-rule:evenodd;stroke:none"
       transform="translate(73.253334,145.21325)"
       clip-path="url(#clipPath4)" />
    <path
       id="path5"
       d="M 0,0 V -1.28 L -0.32,-2.72 -0.8,-3.84 -1.44,-5.12 -2.24,-6.24 -3.2,-7.04 -4.32,-8 -5.44,-8.64 -6.72,-8.96 -8,-9.28 l -1.44,-0.16 -1.28,0.16 -1.28,0.32 -1.28,0.32 -1.28,0.64 -0.96,0.96 -0.96,0.8 -0.800001,1.12 -0.639999,1.28 -0.48,1.12 -0.319999,1.44 -0.16,1.28 0.16,1.44 0.319999,1.28 0.48,1.28 0.639999,1.12 0.800001,1.12 0.96,0.96 0.96,0.8 1.28,0.64 1.28,0.48 1.28,0.32 H -9.44 -8 L -6.72,9.12 -5.44,8.64 -4.32,8 -3.2,7.2 -2.24,6.24 -1.44,5.12 -0.8,4 -0.32,2.72 0,1.44 V 0 0 Z"
       style="fill:#000000;fill-opacity:1;fill-rule:evenodd;stroke:none"
       transform="translate(148.77332,145.21325)"
       clip-path="url(#clipPath6)" />
    <path
       id="path7"
       d="M 0,0 V -1.28 L -0.32,-2.72 -0.8,-3.84 -1.44,-5.12 -2.24,-6.24 -3.2,-7.04 -4.32,-8 -5.44,-8.64 -6.72,-8.96 -8,-9.28 l -1.44,-0.16 -1.28,0.16 -1.28,0.32 -1.28,0.32 -1.28,0.64 -0.96,0.96 -0.96,0.8 -0.800001,1.12 -0.639999,1.28 -0.48,1.12 -0.319999,1.44 -0.16,1.28 0.16,1.44 0.319999,1.28 0.48,1.28 0.639999,1.12 0.800001,1.12 0.96,0.96 0.96,0.8 1.28,0.64 1.28,0.48 1.28,0.32 H -9.44 -8 L -6.72,9.12 -5.44,8.64 -4.32,8 -3.2,7.2 -2.24,6.24 -1.44,5.12 -0.8,4 -0.32,2.72 0,1.44 V 0 0 Z"
       style="fill:#000000;fill-opacity:1;fill-rule:evenodd;stroke:none"
       transform="translate(224.29334,145.21325)"
       clip-path="url(#clipPath8)" />
    <path
       id="path9"
       d="m 0,0 v -1.28 l -0.32,-1.28 -0.48,-1.28 -0.64,-1.28 -0.8,-0.96 -0.96,-0.96 -1.12,-0.8 -1.12,-0.8 -1.28,-0.32 -1.28,-0.32 -1.44,-0.16 -1.28,0.16 -1.28,0.32 -1.28,0.32 -1.28,0.8 -0.96,0.8 -0.96,0.96 -0.800001,0.96 -0.639999,1.28 -0.48,1.28 -0.319999,1.28 -0.16,1.28 0.16,1.44 0.319999,1.28 0.48,1.28 0.639999,1.12 0.800001,1.12 0.96,0.96 0.96,0.8 1.28,0.64 1.28,0.48 1.28,0.32 H -9.44 -8 L -6.72,9.12 -5.44,8.64 -4.32,8 -3.2,7.2 -2.24,6.24 -1.44,5.12 -0.8,4 -0.32,2.72 0,1.44 V 0 0 Z"
       style="fill:#000000;fill-opacity:1;fill-rule:evenodd;stroke:none"
       transform="translate(73.253334,69.693295)"
       clip-path="url(#clipPath10)" />
    <path
       id="path11"
       d="m 0,0 v -1.28 l -0.32,-1.28 -0.48,-1.28 -0.64,-1.28 -0.8,-0.96 -0.96,-0.96 -1.12,-0.8 -1.12,-0.8 -1.28,-0.32 -1.28,-0.32 -1.44,-0.16 -1.28,0.16 -1.28,0.32 -1.28,0.32 -1.28,0.8 -0.96,0.8 -0.96,0.96 -0.800001,0.96 -0.639999,1.28 -0.48,1.28 -0.319999,1.28 -0.16,1.28 0.16,1.44 0.319999,1.28 0.48,1.28 0.639999,1.12 0.800001,1.12 0.96,0.96 0.96,0.8 1.28,0.64 1.28,0.48 1.28,0.32 H -9.44 -8 L -6.72,9.12 -5.44,8.64 -4.32,8 -3.2,7.2 -2.24,6.24 -1.44,5.12 -0.8,4 -0.32,2.72 0,1.44 V 0 0 Z"
       style="fill:#000000;fill-opacity:1;fill-rule:evenodd;stroke:none"
       transform="translate(148.77332,69.693295)"
       clip-path="url(#clipPath12)" />
    <path
       id="path13"
       d="m 0,0 v -1.28 l -0.32,-1.28 -0.48,-1.28 -0.64,-1.28 -0.8,-0.96 -0.96,-0.96 -1.12,-0.8 -1.12,-0.8 -1.28,-0.32 -1.28,-0.32 -1.44,-0.16 -1.28,0.16 -1.28,0.32 -1.28,0.32 -1.28,0.8 -0.96,0.8 -0.96,0.96 -0.800001,0.96 -0.639999,1.28 -0.48,1.28 -0.319999,1.28 -0.16,1.28 0.16,1.44 0.319999,1.28 0.48,1.28 0.639999,1.12 0.800001,1.12 0.96,0.96 0.96,0.8 1.28,0.64 1.28,0.48 1.28,0.32 H -9.44 -8 L -6.72,9.12 -5.44,8.64 -4.32,8 -3.2,7.2 -2.24,6.24 -1.44,5.12 -0.8,4 -0.32,2.72 0,1.44 V 0 0 Z"
       style="fill:#000000;fill-opacity:1;fill-rule:evenodd;stroke:none"
       transform="translate(224.29334,69.693295)"
       clip-path="url(#clipPath14)" />
    <path
       id="path15"
       d="m 330.72,599.03998 v -1.27997 l -0.32001,-1.44 -0.47998,-1.12 -0.64001,-1.28003 -0.79999,-1.11999 -0.96002,-0.79999 -1.12,-0.96002 -1.11999,-0.63996 -1.28,-0.32 -1.28,-0.32001 -1.44,-0.16003 -1.28,0.16003 -1.28,0.32001 -1.28,0.32 -1.28,0.63996 -0.95999,0.96002 -0.96002,0.79999 -0.79999,1.11999 -0.64001,1.28003 -0.47998,1.12 -0.32001,1.44 -0.16,1.27997 0.16,1.44 0.32001,1.28003 0.47998,1.27997 0.64001,1.11999 0.79999,1.12006 0.96002,0.95996 0.95999,0.79999 1.28,0.64001 1.28,0.47998 1.28,0.32001 h 1.28 1.44 l 1.28,-0.32001 1.28,-0.47998 1.11999,-0.64001 1.12,-0.79999 0.96002,-0.95996 0.79999,-1.12006 0.64001,-1.11999 0.47998,-1.27997 0.32001,-1.28003 v -1.44 m 75.51999,0 v -1.27997 l -0.31998,-1.44 -0.48001,-1.12 -0.64001,-1.28003 L 404,592.79999 403.04001,592 l -1.12,-0.96002 -1.12002,-0.63996 -1.28,-0.32 -1.28,-0.32001 -1.44,-0.16003 -1.28,0.16003 -1.28,0.32001 -1.28,0.32 -1.28,0.63996 L 390.72,592 l -0.95999,0.79999 -0.80002,1.11999 -0.63998,1.28003 -0.48001,1.12 -0.32001,1.44 -0.16,1.27997 0.16,1.44 0.32001,1.28003 0.48001,1.27997 0.63998,1.11999 0.80002,1.12006 0.95999,0.95996 0.95999,0.79999 1.28,0.64001 1.28,0.47998 1.28,0.32001 h 1.28 1.44 l 1.28,-0.32001 1.28,-0.47998 1.12002,-0.64001 1.12,-0.79999 0.95999,-0.95996 0.79999,-1.12006 0.64001,-1.11999 0.48001,-1.27997 0.31998,-1.28003 v -1.44 m 75.52002,0 v -1.27997 l -0.32001,-1.44 -0.48001,-1.12 -0.63998,-1.28003 -0.80002,-1.11999 L 478.56,592 l -1.12,-0.96002 -1.11999,-0.63996 -1.28,-0.32 -1.28,-0.32001 -1.44,-0.16003 -1.28,0.16003 -1.28,0.32001 -1.28,0.32 -1.28,0.63996 -0.96002,0.96002 -0.95999,0.79999 -0.79999,1.11999 -0.64001,1.28003 -0.48001,1.12 -0.31998,1.44 -0.16001,1.27997 0.16001,1.44 0.31998,1.28003 0.48001,1.27997 0.64001,1.11999 0.79999,1.12006 0.95999,0.95996 0.96002,0.79999 1.28,0.64001 1.28,0.47998 1.28,0.32001 h 1.28 1.44 l 1.28,-0.32001 1.28,-0.47998 1.11999,-0.64001 1.12,-0.79999 0.95999,-0.95996 0.80002,-1.12006 0.63998,-1.11999 0.48001,-1.27997 0.32001,-1.28003 v -1.44 M 330.72,523.52002 v -1.28003 l -0.32001,-1.27997 -0.47998,-1.28003 -0.64001,-1.27997 -0.79999,-0.96002 -0.96002,-0.96002 -1.12,-0.79999 L 325.28,514.88 324,514.56 l -1.28,-0.32001 -1.44,-0.15997 -1.28,0.15997 -1.28,0.32001 -1.28,0.32 -1.28,0.79999 -0.95999,0.79999 -0.96002,0.96002 -0.79999,0.96002 -0.64001,1.27997 -0.47998,1.28003 -0.32001,1.27997 -0.16,1.28003 0.16,1.44 0.32001,1.27997 0.47998,1.28003 0.64001,1.11999 0.79999,1.12 0.96002,0.95996 0.95999,0.80005 1.28,0.63995 1.28,0.48004 1.28,0.32001 h 1.28 1.44 l 1.28,-0.32001 1.28,-0.48004 1.11999,-0.63995 1.12,-0.80005 0.96002,-0.95996 0.79999,-1.12 0.64001,-1.11999 0.47998,-1.28003 0.32001,-1.27997 v -1.44 m 75.51999,0 v -1.28003 l -0.31998,-1.27997 -0.48001,-1.28003 -0.64001,-1.27997 L 404,517.44 l -0.95999,-0.96002 -1.12,-0.79999 -1.12002,-0.79999 -1.28,-0.32 -1.28,-0.32001 -1.44,-0.15997 -1.28,0.15997 -1.28,0.32001 -1.28,0.32 -1.28,0.79999 -0.95999,0.79999 -0.95999,0.96002 -0.80002,0.96002 -0.63998,1.27997 -0.48001,1.28003 -0.32001,1.27997 -0.16,1.28003 0.16,1.44 0.32001,1.27997 0.48001,1.28003 0.63998,1.11999 0.80002,1.12 0.95999,0.95996 0.95999,0.80005 1.28,0.63995 1.28,0.48004 1.28,0.32001 h 1.28 1.44 l 1.28,-0.32001 1.28,-0.48004 1.12002,-0.63995 1.12,-0.80005 0.95999,-0.95996 0.79999,-1.12 0.64001,-1.11999 0.48001,-1.28003 0.31998,-1.27997 v -1.44 m 75.52002,0 v -1.28003 l -0.32001,-1.27997 -0.48001,-1.28003 -0.63998,-1.27997 -0.80002,-0.96002 -0.95999,-0.96002 -1.12,-0.79999 -1.11999,-0.79999 -1.28,-0.32 -1.28,-0.32001 -1.44,-0.15997 -1.28,0.15997 -1.28,0.32001 -1.28,0.32 -1.28,0.79999 -0.96002,0.79999 -0.95999,0.96002 -0.79999,0.96002 -0.64001,1.27997 -0.48001,1.28003 -0.31998,1.27997 -0.16001,1.28003 0.16001,1.44 0.31998,1.27997 0.48001,1.28003 0.64001,1.11999 0.79999,1.12 0.95999,0.95996 0.96002,0.80005 1.28,0.63995 1.28,0.48004 1.28,0.32001 h 1.28 1.44 l 1.28,-0.32001 1.28,-0.48004 1.11999,-0.63995 1.12,-0.80005 0.95999,-0.95996 0.80002,-1.12 0.63998,-1.11999 0.48001,-1.28003 0.32001,-1.27997 v -1.44"
       style="fill:none;stroke:#000000;stroke-width:0.48;stroke-linecap:round;stroke-linejoin:round;stroke-miterlimit:10;stroke-dasharray:none;stroke-opacity:1"
       transform="translate(-257.46667,-453.82673)"
       clip-path="url(#clipPath16)" />
  </g>
</svg>
