<?xml version="1.0" encoding="UTF-8" standalone="no"?>
<!-- Created with Inkscape (http://www.inkscape.org/) -->

<svg
   version="1.1"
   id="svg1"
   width="321.50668"
   height="487.20001"
   viewBox="0 0 321.50668 487.20001"
   sodipodi:docname="RedWine2.pdf"
   xmlns:inkscape="http://www.inkscape.org/namespaces/inkscape"
   xmlns:sodipodi="http://sodipodi.sourceforge.net/DTD/sodipodi-0.dtd"
   xmlns="http://www.w3.org/2000/svg"
   xmlns:svg="http://www.w3.org/2000/svg">
  <defs
     id="defs1">
    <clipPath
       clipPathUnits="userSpaceOnUse"
       id="clipPath2">
      <path
         d="M 0,0.16 V 1122.5601 H 793.59998 V 0.16 Z"
         clip-rule="evenodd"
         id="path2" />
    </clipPath>
    <clipPath
       clipPathUnits="userSpaceOnUse"
       id="clipPath4">
      <path
         d="M 0,0.16 V 1122.5601 H 793.59998 V 0.16 Z"
         transform="translate(-413.44,-559.35998)"
         clip-rule="evenodd"
         id="path4" />
    </clipPath>
    <clipPath
       clipPathUnits="userSpaceOnUse"
       id="clipPath6">
      <path
         d="M 0,0.16 V 1122.5601 H 793.59998 V 0.16 Z"
         transform="translate(-417.92001,-561.11999)"
         clip-rule="evenodd"
         id="path6" />
    </clipPath>
    <clipPath
       clipPathUnits="userSpaceOnUse"
       id="clipPath8">
      <path
         d="M 0,0.16 V 1122.5601 H 793.59998 V 0.16 Z"
         clip-rule="evenodd"
         id="path8" />
    </clipPath>
    <clipPath
       clipPathUnits="userSpaceOnUse"
       id="clipPath10">
      <path
         d="M 0,0.16 V 1122.5601 H 793.59998 V 0.16 Z"
         transform="translate(-320.48001,-711.67999)"
         clip-rule="evenodd"
         id="path10" />
    </clipPath>
  </defs>
  <sodipodi:namedview
     id="namedview1"
     pagecolor="#505050"
     bordercolor="#eeeeee"
     borderopacity="1"
     inkscape:showpageshadow="0"
     inkscape:pageopacity="0"
     inkscape:pagecheckerboard="0"
     inkscape:deskcolor="#505050">
    <inkscape:page
       x="0"
       y="0"
       inkscape:label="1"
       id="page1"
       width="321.50668"
       height="487.20001"
       margin="0"
       bleed="0" />
  </sodipodi:namedview>
  <g
     id="g1"
     inkscape:groupmode="layer"
     inkscape:label="1">
    <path
       id="path1"
       d="M 321.60001,410.23999 V 712.32001"
       style="fill:none;stroke:#000000;stroke-width:26.4;stroke-linecap:round;stroke-linejoin:round;stroke-miterlimit:10;stroke-dasharray:none;stroke-opacity:1"
       transform="translate(0,125.46661)"
       clip-path="url(#clipPath2)" />
    <path
       id="path3"
       d="m 0,0 7.2,-4.64 7.04,-4.8 6.719999,-5.12 6.400002,-4.96 6.239997,-5.279999 5.760003,-5.280001 5.599998,-5.280001 5.280003,-5.279998 4.799999,-5.440003 L 59.52,-51.52 l 4.32,-5.439999 3.679997,-5.440003 3.520004,-5.439994 3.040001,-5.440003 2.720001,-5.279999 2.239998,-5.279998 1.760002,-5.280007 1.439995,-5.119995 1.120003,-5.120003 L 84,-104.32 l 0.160004,-4.8 -0.160004,-4.8 -0.639999,-4.48 -1.120003,-4.48 -1.439995,-4.32 -1.920006,-4.16 -2.239998,-3.84 -2.559997,-3.83999 -3.200005,-3.52001 -3.36,-3.36 L 63.68,-149.11999 59.52,-152 l -4.639999,-2.72 -4.799999,-2.39999 -5.280003,-2.24001 -5.599998,-1.92 -5.760002,-1.75999 -6.239998,-1.44001 -6.400002,-1.27999 L 14.08,-166.72 l -7.04,-0.64 -7.2,-0.48 -7.36,-0.16 h -7.68 l -7.679999,0.48 -8,0.48001 -8.160002,0.95999 -8.16,1.11999 -8.319999,1.44001 -8.48,1.6 -8.480003,1.92 -8.479996,2.24001 -8.639999,2.23999 -8.480004,2.72 -8.639998,2.88 -8.48,3.04 -8.48,3.20001"
       style="fill:none;stroke:#000000;stroke-width:26.4;stroke-linecap:round;stroke-linejoin:round;stroke-miterlimit:10;stroke-dasharray:none;stroke-opacity:1"
       transform="translate(413.44,684.82659)"
       clip-path="url(#clipPath4)" />
    <path
       id="path5"
       d="m 0,0 2.4,10.56 2.88,10.239999 3.36,10.08 3.84,10.08 4.319999,9.760002 L 21.440001,60.32 26.719999,69.599998 32.32,78.720001 38.400002,87.519997 44.799999,96 51.68,104.16 l 7.200001,7.84 7.520001,7.52 8,7.04 8.319999,6.88 8.64,6.23999 8.799999,5.92002 9.12,5.43998"
       style="fill:none;stroke:#000000;stroke-width:26.4;stroke-linecap:round;stroke-linejoin:round;stroke-miterlimit:10;stroke-dasharray:none;stroke-opacity:1"
       transform="translate(417.92001,686.5866)"
       clip-path="url(#clipPath6)" />
    <path
       id="path7"
       d="M 321.60001,561.28003 H 413.44"
       style="fill:none;stroke:#000000;stroke-width:26.4;stroke-linecap:round;stroke-linejoin:round;stroke-miterlimit:10;stroke-dasharray:none;stroke-opacity:1"
       transform="translate(0,125.46661)"
       clip-path="url(#clipPath8)" />
    <path
       id="path9"
       d="m 0,0 5.44,2.88 5.6,2.4 5.759999,1.92 5.92,1.44 6.08,0.96 6.080002,0.64 6.399998,0.16 L 47.68,9.92 54.240002,9.28 60.799999,8 67.360001,6.4 74.080002,4.16 80.959999,1.76 87.68,-1.28 94.400002,-4.64 101.28,-8.48 108,-12.8 l 6.72,-4.480001 6.72,-5.119999 6.72,-5.44 6.56,-5.759998 6.56,-6.080002 6.39999,-6.560002 6.40001,-6.719997 6.08,-7.200001 6.08,-7.359997 5.92,-7.840004 5.76,-8 5.6,-8.159996 5.44001,-8.640003 5.27999,-8.64 4.96,-8.96 4.8,-9.12 4.64,-9.44001 4.32001,-9.43998 4.15998,-9.60001 3.84002,-9.75999 3.67999,-9.76001 3.36,-9.92 3.03999,-9.92 2.88001,-9.92 2.56,-10.08 2.24,-9.92 1.92,-9.92 1.75999,-9.92 1.28,-9.91999 1.12001,-9.76001 0.80001,-9.76001 0.47999,-9.43998 0.16,-9.44 -0.16,-9.28 -0.47999,-8.96002 -0.64,-8.95999 -1.12001,-8.64001 -1.28,-8.47999 -1.76,-8.16 -1.92,-7.84 -2.24,-7.67999 -2.4,-7.20001 -2.88,-7.04001 -3.03999,-6.72 -3.36,-6.23999 -3.52001,-6.07999 -3.83999,-5.6 -4.16001,-5.28 -4.32001,-4.80002 -4.63999,-4.47998 -4.80001,-4 -4.95999,-3.68002 -5.11999,-3.19999 -5.44001,-2.88 -5.6,-2.23999 -5.76,-1.92001 -5.92,-1.60001 -6.08,-0.95999 -6.08,-0.63999 -6.39999,-0.16 -6.40001,0.31998 -6.4,0.80002 -6.55999,1.27999 -6.72001,1.60001 -6.72,2.07999 -6.72,2.56 -6.88,2.88"
       style="fill:none;stroke:#000000;stroke-width:26.4;stroke-linecap:round;stroke-linejoin:round;stroke-miterlimit:10;stroke-dasharray:none;stroke-opacity:1"
       transform="translate(320.48001,837.1466)"
       clip-path="url(#clipPath10)" />
  </g>
</svg>
