<?xml version="1.0" encoding="UTF-8" standalone="no"?>
<!-- Created with Inkscape (http://www.inkscape.org/) -->

<svg
   version="1.1"
   id="svg1"
   width="424.22668"
   height="468.50668"
   viewBox="0 0 424.22668 468.50668"
   sodipodi:docname="SilverPaint3.pdf"
   xmlns:inkscape="http://www.inkscape.org/namespaces/inkscape"
   xmlns:sodipodi="http://sodipodi.sourceforge.net/DTD/sodipodi-0.dtd"
   xmlns="http://www.w3.org/2000/svg"
   xmlns:svg="http://www.w3.org/2000/svg">
  <defs
     id="defs1">
    <clipPath
       clipPathUnits="userSpaceOnUse"
       id="clipPath2">
      <path
         d="M 26.4,26.559999 V 1096.16 H 767.03998 V 26.559999 Z"
         transform="translate(-3.3333334e-6)"
         clip-rule="evenodd"
         id="path2" />
    </clipPath>
    <clipPath
       clipPathUnits="userSpaceOnUse"
       id="clipPath4">
      <path
         d="M 26.4,26.559999 V 1096.16 H 767.03998 V 26.559999 Z"
         transform="translate(-208,-730.56)"
         clip-rule="evenodd"
         id="path4" />
    </clipPath>
  </defs>
  <sodipodi:namedview
     id="namedview1"
     pagecolor="#505050"
     bordercolor="#eeeeee"
     borderopacity="1"
     inkscape:showpageshadow="0"
     inkscape:pageopacity="0"
     inkscape:pagecheckerboard="0"
     inkscape:deskcolor="#505050">
    <inkscape:page
       x="0"
       y="0"
       inkscape:label="1"
       id="page1"
       width="424.22668"
       height="468.50668"
       margin="0"
       bleed="0" />
  </sodipodi:namedview>
  <g
     id="g1"
     inkscape:groupmode="layer"
     inkscape:label="1">
    <path
       id="path1"
       d="M 208,730.56 585.59998,352.95999"
       style="fill:none;stroke:#000000;stroke-width:26.4;stroke-linecap:round;stroke-linejoin:round;stroke-miterlimit:10;stroke-dasharray:none;stroke-opacity:1"
       transform="translate(-186.77333,-328.36006)"
       clip-path="url(#clipPath2)" />
    <path
       id="path3"
       d="m 0,0 5.6,5.28 5.92,5.12 6.24,4.64 6.56,4.160001 6.720001,4 6.879997,3.359998 7.200001,3.200001 7.200001,2.56 7.52,2.240001 7.520001,1.759999 7.68,1.439998 7.68,0.800003 7.680001,0.48 h 7.839996 l 7.680002,-0.48 7.68,-0.800003 7.68,-1.439998 7.52,-1.759999 7.52001,-2.240001 7.19999,-2.56 7.2,-3.040001 6.88001,-3.519998 6.72,-3.84 L 170.88,15.04 l 6.23999,-4.64 5.92,-4.96 5.60001,-5.28 5.28,-5.6 5.11999,-5.92 4.64,-6.24 4.16001,-6.56 4,-6.719999 3.52,-6.879999 3.03999,-7.040001 2.72,-7.360001 2.24001,-7.36 1.75999,-7.520001 1.28,-7.68 0.96001,-7.680001 0.48,-7.839996 v -7.68 l -0.48,-7.840002 -0.8,-7.68 -1.44001,-7.68 -1.75999,-7.52 -2.08,-7.36 -2.72,-7.36 -3.04,-7.2 -3.52,-6.88 -3.84,-6.72 -4.16,-6.56 -4.64,-6.08 -4.96001,-6.08 -5.28,-5.6 -5.75999,-5.27999 -5.92,-5.12001 -6.08,-4.64 -6.56,-4.32 -6.72,-3.83999 -6.88,-3.52001 -7.2,-3.04 -7.2,-2.72001 -7.36,-2.23999 -7.68,-1.76001 -7.52,-1.43998 -7.84,-0.96001 -7.679999,-0.48 h -7.68 l -7.840004,0.48 -7.68,0.8"
       style="fill:none;stroke:#000000;stroke-width:26.4;stroke-linecap:round;stroke-linejoin:round;stroke-miterlimit:10;stroke-dasharray:none;stroke-opacity:1"
       transform="translate(21.226667,402.19994)"
       clip-path="url(#clipPath4)" />
  </g>
</svg>
