<?xml version="1.0" encoding="UTF-8" standalone="no"?>
<!-- Created with Inkscape (http://www.inkscape.org/) -->

<svg
   version="1.1"
   id="svg1"
   width="502.93332"
   height="503.22668"
   viewBox="0 0 502.93332 503.22668"
   sodipodi:docname="Smoke.pdf"
   xmlns:inkscape="http://www.inkscape.org/namespaces/inkscape"
   xmlns:sodipodi="http://sodipodi.sourceforge.net/DTD/sodipodi-0.dtd"
   xmlns="http://www.w3.org/2000/svg"
   xmlns:svg="http://www.w3.org/2000/svg">
  <defs
     id="defs1">
    <clipPath
       clipPathUnits="userSpaceOnUse"
       id="clipPath2">
      <path
         d="M 0,0.16 V 1122.5601 H 793.59998 V 0.16 Z"
         transform="translate(-209.60001,-452.16001)"
         clip-rule="evenodd"
         id="path2" />
    </clipPath>
    <clipPath
       clipPathUnits="userSpaceOnUse"
       id="clipPath4">
      <path
         d="M 0,0.16 V 1122.5601 H 793.59998 V 0.16 Z"
         transform="translate(-209.60001,-452.16001)"
         clip-rule="evenodd"
         id="path4" />
    </clipPath>
    <clipPath
       clipPathUnits="userSpaceOnUse"
       id="clipPath6">
      <path
         d="M 0,0.16 V 1122.5601 H 793.59998 V 0.16 Z"
         transform="translate(-209.60001,-586.40003)"
         clip-rule="evenodd"
         id="path6" />
    </clipPath>
    <clipPath
       clipPathUnits="userSpaceOnUse"
       id="clipPath8">
      <path
         d="M 0,0.16 V 1122.5601 H 793.59998 V 0.16 Z"
         transform="translate(-209.60001,-586.40003)"
         clip-rule="evenodd"
         id="path8" />
    </clipPath>
    <clipPath
       clipPathUnits="userSpaceOnUse"
       id="clipPath10">
      <path
         d="M 0,0.16 V 1122.5601 H 793.59998 V 0.16 Z"
         transform="translate(-209.60001,-787.84003)"
         clip-rule="evenodd"
         id="path10" />
    </clipPath>
    <clipPath
       clipPathUnits="userSpaceOnUse"
       id="clipPath12">
      <path
         d="M 0,0.16 V 1122.5601 H 793.59998 V 0.16 Z"
         transform="translate(-308.16,-452.16001)"
         clip-rule="evenodd"
         id="path12" />
    </clipPath>
    <clipPath
       clipPathUnits="userSpaceOnUse"
       id="clipPath14">
      <path
         d="M 0,0.16 V 1122.5601 H 793.59998 V 0.16 Z"
         transform="translate(-308.16,-452.16001)"
         clip-rule="evenodd"
         id="path14" />
    </clipPath>
    <clipPath
       clipPathUnits="userSpaceOnUse"
       id="clipPath16">
      <path
         d="M 0,0.16 V 1122.5601 H 793.59998 V 0.16 Z"
         transform="translate(-308.16,-586.40003)"
         clip-rule="evenodd"
         id="path16" />
    </clipPath>
    <clipPath
       clipPathUnits="userSpaceOnUse"
       id="clipPath18">
      <path
         d="M 0,0.16 V 1122.5601 H 793.59998 V 0.16 Z"
         transform="translate(-308.16,-586.40003)"
         clip-rule="evenodd"
         id="path18" />
    </clipPath>
    <clipPath
       clipPathUnits="userSpaceOnUse"
       id="clipPath20">
      <path
         d="M 0,0.16 V 1122.5601 H 793.59998 V 0.16 Z"
         transform="translate(-308.16,-787.84003)"
         clip-rule="evenodd"
         id="path20" />
    </clipPath>
    <clipPath
       clipPathUnits="userSpaceOnUse"
       id="clipPath22">
      <path
         d="M 0,0.16 V 1122.5601 H 793.59998 V 0.16 Z"
         transform="translate(-426.23999,-452.16001)"
         clip-rule="evenodd"
         id="path22" />
    </clipPath>
    <clipPath
       clipPathUnits="userSpaceOnUse"
       id="clipPath24">
      <path
         d="M 0,0.16 V 1122.5601 H 793.59998 V 0.16 Z"
         transform="translate(-426.23999,-452.16001)"
         clip-rule="evenodd"
         id="path24" />
    </clipPath>
    <clipPath
       clipPathUnits="userSpaceOnUse"
       id="clipPath26">
      <path
         d="M 0,0.16 V 1122.5601 H 793.59998 V 0.16 Z"
         transform="translate(-426.23999,-586.40003)"
         clip-rule="evenodd"
         id="path26" />
    </clipPath>
    <clipPath
       clipPathUnits="userSpaceOnUse"
       id="clipPath28">
      <path
         d="M 0,0.16 V 1122.5601 H 793.59998 V 0.16 Z"
         transform="translate(-426.23999,-586.40003)"
         clip-rule="evenodd"
         id="path28" />
    </clipPath>
    <clipPath
       clipPathUnits="userSpaceOnUse"
       id="clipPath30">
      <path
         d="M 0,0.16 V 1122.5601 H 793.59998 V 0.16 Z"
         transform="translate(-426.23999,-787.84003)"
         clip-rule="evenodd"
         id="path30" />
    </clipPath>
    <clipPath
       clipPathUnits="userSpaceOnUse"
       id="clipPath32">
      <path
         d="M 0,0.16 V 1122.5601 H 793.59998 V 0.16 Z"
         transform="translate(-544.47998,-452.16001)"
         clip-rule="evenodd"
         id="path32" />
    </clipPath>
    <clipPath
       clipPathUnits="userSpaceOnUse"
       id="clipPath34">
      <path
         d="M 0,0.16 V 1122.5601 H 793.59998 V 0.16 Z"
         transform="translate(-544.47998,-452.16001)"
         clip-rule="evenodd"
         id="path34" />
    </clipPath>
    <clipPath
       clipPathUnits="userSpaceOnUse"
       id="clipPath36">
      <path
         d="M 0,0.16 V 1122.5601 H 793.59998 V 0.16 Z"
         transform="translate(-544.47998,-586.40003)"
         clip-rule="evenodd"
         id="path36" />
    </clipPath>
    <clipPath
       clipPathUnits="userSpaceOnUse"
       id="clipPath38">
      <path
         d="M 0,0.16 V 1122.5601 H 793.59998 V 0.16 Z"
         transform="translate(-544.47998,-586.40003)"
         clip-rule="evenodd"
         id="path38" />
    </clipPath>
    <clipPath
       clipPathUnits="userSpaceOnUse"
       id="clipPath40">
      <path
         d="M 0,0.16 V 1122.5601 H 793.59998 V 0.16 Z"
         transform="translate(-544.47998,-787.84003)"
         clip-rule="evenodd"
         id="path40" />
    </clipPath>
    <clipPath
       clipPathUnits="userSpaceOnUse"
       id="clipPath42">
      <path
         d="M 0,0.16 V 1122.5601 H 793.59998 V 0.16 Z"
         clip-rule="evenodd"
         id="path42" />
    </clipPath>
  </defs>
  <sodipodi:namedview
     id="namedview1"
     pagecolor="#505050"
     bordercolor="#eeeeee"
     borderopacity="1"
     inkscape:showpageshadow="0"
     inkscape:pageopacity="0"
     inkscape:pagecheckerboard="0"
     inkscape:deskcolor="#505050">
    <inkscape:page
       x="0"
       y="0"
       inkscape:label="1"
       id="page1"
       width="502.93332"
       height="503.22668"
       margin="0"
       bleed="0" />
  </sodipodi:namedview>
  <g
     id="g1"
     inkscape:groupmode="layer"
     inkscape:label="1">
    <path
       id="path1"
       d="m 0,0 3.68,-0.16 3.68,-0.32 3.52,-0.8 3.52,-0.96 3.2,-1.28 3.199999,-1.44 3.040001,-1.76 2.879999,-1.92 2.560002,-2.24 2.239999,-2.4 2.079998,-2.56 1.760003,-2.719999 1.439998,-2.880002 1.119999,-2.879999 0.960003,-3.040001 0.48,-3.039999 0.159999,-3.039999 -0.159999,-3.2 -0.48,-3.040001 -0.960003,-3.040001 -1.119999,-2.879997 L 35.360001,-48.48 33.599998,-51.200001 31.52,-53.759998 29.280001,-56.16 26.719999,-58.240002 23.84,-60.32 20.799999,-62.080002 17.6,-63.52 l -3.2,-1.280003 -3.52,-0.959999 -3.52,-0.799996 -3.68,-0.319999 -3.68,-0.32"
       style="fill:none;stroke:#000000;stroke-width:26.4;stroke-linecap:round;stroke-linejoin:round;stroke-miterlimit:10;stroke-dasharray:none;stroke-opacity:1"
       transform="translate(209.60001,449.49328)"
       clip-path="url(#clipPath2)" />
    <path
       id="path3"
       d="m 0,0 -3.52,0.16 -3.68,0.48 -3.52,0.64 -3.36,1.12 -3.360001,1.12 -3.199998,1.6 -3.040001,1.76 -2.72,1.92 -2.559999,2.24 -2.400002,2.4 -2.079998,2.56 -1.760002,2.719999 -1.439998,2.720002 -1.119999,3.039999 -0.800003,3.04 -0.64,3.039999 -0.16,3.039999 0.16,3.200001 0.64,3.040001 0.800003,3.040001 1.119999,2.879997 1.439998,2.880001 1.760002,2.720002 2.079998,2.559997 2.400002,2.240002 2.559999,2.240002 2.72,2.079998 3.040001,1.760002 3.199998,1.439998 3.360001,1.279999 3.36,0.959999 3.52,0.64 3.68,0.480003 H 0"
       style="fill:none;stroke:#000000;stroke-width:26.4;stroke-linecap:round;stroke-linejoin:round;stroke-miterlimit:10;stroke-dasharray:none;stroke-opacity:1"
       transform="translate(209.60001,449.49328)"
       clip-path="url(#clipPath4)" />
    <path
       id="path5"
       d="m 0,0 h 3.84 l 3.52,-0.48 3.68,-0.8 3.36,-0.96 3.36,-1.28 3.199999,-1.44 L 24,-6.88 26.879999,-8.8 29.440001,-11.04 31.68,-13.44 33.759998,-16 35.52,-18.719999 36.959999,-21.6 l 1.120003,-3.039999 0.799999,-3.040001 0.48,-3.039999 L 39.52,-33.919998 39.360001,-36.959999 38.720001,-40 37.919998,-43.040001 36.639999,-46.080002 35.040001,-48.959999 33.279999,-51.52 31.200001,-54.080002 28.799999,-56.48 26.08,-58.720001 23.200001,-60.639999 20.16,-62.400002 16.959999,-63.84 13.6,-64.959999 l -3.52,-0.959999 -3.52,-0.64 -3.68,-0.480003 -3.68,-0.159996"
       style="fill:none;stroke:#000000;stroke-width:26.4;stroke-linecap:round;stroke-linejoin:round;stroke-miterlimit:10;stroke-dasharray:none;stroke-opacity:1"
       transform="translate(209.60001,583.7333)"
       clip-path="url(#clipPath6)" />
    <path
       id="path7"
       d="m 0,0 -3.52,0.16 -3.68,0.48 -3.52,0.64 -3.36,1.12 -3.360001,1.12 -3.199998,1.6 -3.040001,1.76 -2.72,1.92 -2.559999,2.24 -2.400002,2.4 -2.079998,2.56 -1.760002,2.719999 -1.439998,2.720002 -1.119999,3.039999 -0.800003,3.04 -0.64,3.039999 -0.16,3.039999 0.16,3.200001 0.64,3.040001 0.800003,3.040001 1.119999,2.879997 1.439998,2.880001 1.760002,2.720002 2.079998,2.559997 2.400002,2.400002 2.559999,2.080002 2.72,2.079998 3.040001,1.760002 3.199998,1.439998 3.360001,1.279999 3.36,0.959999 3.52,0.64 3.68,0.480003 H 0"
       style="fill:none;stroke:#000000;stroke-width:26.4;stroke-linecap:round;stroke-linejoin:round;stroke-miterlimit:10;stroke-dasharray:none;stroke-opacity:1"
       transform="translate(209.60001,583.7333)"
       clip-path="url(#clipPath8)" />
    <path
       id="path9"
       d="m 0,0 5.76,-0.16 5.6,-0.48 5.439999,-0.96 5.440001,-1.12 5.44,-1.44 5.119999,-1.92 5.119999,-2.08 4.800003,-2.56 4.64,-2.72 4.319999,-2.88 4.16,-3.36 3.84,-3.520001 3.520001,-3.679998 3.200001,-4 2.879997,-4.000002 2.559997,-4.32 2.080002,-4.479999 1.760002,-4.48 1.440003,-4.639999 0.959999,-4.799999 0.639999,-4.800004 0.159996,-4.639999 -0.159996,-4.799995 -0.639999,-4.800003 -0.959999,-4.800003 -1.440003,-4.64 -1.760002,-4.479996 -2.080002,-4.480003 -2.559997,-4.32 -2.879997,-3.999999 -3.200001,-4 -3.520001,-3.68 -3.84,-3.52 -4.16,-3.36 -4.319999,-2.88 -4.64,-2.72 -4.800003,-2.56 -5.119999,-2.08 -5.119999,-1.92 -5.44,-1.44 -5.440001,-1.12 L 11.36,-133.60001 5.76,-134.08 0,-134.39999"
       style="fill:none;stroke:#000000;stroke-width:26.4;stroke-linecap:round;stroke-linejoin:round;stroke-miterlimit:10;stroke-dasharray:none;stroke-opacity:1"
       transform="translate(209.60001,785.1733)"
       clip-path="url(#clipPath10)" />
    <path
       id="path11"
       d="m 0,0 3.68,-0.16 3.68,-0.32 3.52,-0.8 3.36,-0.96 3.36,-1.28 3.199999,-1.44 3.040001,-1.76 2.719999,-1.92 2.560002,-2.24 2.399999,-2.4 2.079998,-2.56 1.760003,-2.719999 1.439998,-2.880002 1.119999,-2.879999 0.800003,-3.040001 0.48,-3.039999 0.319999,-3.039999 -0.319999,-3.2 -0.48,-3.040001 -0.800003,-3.040001 -1.119999,-2.879997 L 35.360001,-48.48 33.599998,-51.200001 31.52,-53.759998 29.120001,-56.16 26.559999,-58.240002 23.84,-60.32 20.799999,-62.080002 17.6,-63.52 l -3.36,-1.280003 -3.36,-0.959999 -3.52,-0.799996 -3.68,-0.319999 -3.68,-0.32"
       style="fill:none;stroke:#000000;stroke-width:26.4;stroke-linecap:round;stroke-linejoin:round;stroke-miterlimit:10;stroke-dasharray:none;stroke-opacity:1"
       transform="translate(308.16,449.49328)"
       clip-path="url(#clipPath12)" />
    <path
       id="path13"
       d="m 0,0 -3.52,0.16 -3.68,0.48 -3.52,0.64 -3.52,1.12 -3.200001,1.12 -3.199998,1.6 -3.040001,1.76 -2.879999,1.92 -2.560002,2.24 -2.24,2.4 -2.079998,2.56 -1.760002,2.719999 -1.439998,2.720002 -1.279999,3.039999 -0.800003,3.04 -0.48,3.039999 -0.16,3.039999 0.16,3.200001 0.48,3.040001 0.800003,3.040001 1.279999,2.879997 1.439998,2.880001 1.760002,2.720002 2.079998,2.559997 2.24,2.240002 2.560002,2.240002 L -23.68,60.48 l 3.040001,1.760002 3.199998,1.439998 3.200001,1.279999 3.52,0.959999 3.52,0.64 3.68,0.480003 H 0"
       style="fill:none;stroke:#000000;stroke-width:26.4;stroke-linecap:round;stroke-linejoin:round;stroke-miterlimit:10;stroke-dasharray:none;stroke-opacity:1"
       transform="translate(308.16,449.49328)"
       clip-path="url(#clipPath14)" />
    <path
       id="path15"
       d="m 0,0 h 3.68 l 3.68,-0.48 3.52,-0.8 3.52,-0.96 3.36,-1.28 3.199999,-1.44 L 24,-6.88 26.719999,-8.8 29.280001,-11.04 31.68,-13.44 33.759998,-16 35.52,-18.719999 36.959999,-21.6 l 1.120003,-3.039999 0.799999,-3.040001 0.48,-3.039999 v -3.199999 l -0.16,-3.040001 -0.48,-3.040001 -0.960003,-3.040001 -1.119999,-3.040001 -1.599998,-2.879997 L 33.279999,-51.52 31.040001,-54.080002 28.639999,-56.48 26.08,-58.720001 23.200001,-60.639999 20.16,-62.400002 16.959999,-63.84 13.6,-64.959999 l -3.52,-0.959999 -3.68,-0.64 -3.52,-0.480003 -3.84,-0.159996"
       style="fill:none;stroke:#000000;stroke-width:26.4;stroke-linecap:round;stroke-linejoin:round;stroke-miterlimit:10;stroke-dasharray:none;stroke-opacity:1"
       transform="translate(308.16,583.7333)"
       clip-path="url(#clipPath16)" />
    <path
       id="path17"
       d="m 0,0 -3.52,0.16 -3.68,0.48 -3.52,0.64 -3.52,1.12 -3.200001,1.12 -3.199998,1.6 -3.040001,1.76 -2.879999,1.92 -2.560002,2.24 -2.24,2.4 -2.079998,2.56 -1.760002,2.719999 -1.439998,2.720002 -1.279999,3.039999 -0.800003,3.04 -0.48,3.039999 -0.16,3.039999 0.16,3.200001 0.48,3.040001 0.800003,3.040001 1.279999,2.879997 1.439998,2.880001 1.760002,2.720002 2.079998,2.559997 2.24,2.400002 2.560002,2.080002 L -23.68,60.48 l 3.040001,1.760002 3.199998,1.439998 3.200001,1.279999 3.52,0.959999 3.52,0.64 3.68,0.480003 H 0"
       style="fill:none;stroke:#000000;stroke-width:26.4;stroke-linecap:round;stroke-linejoin:round;stroke-miterlimit:10;stroke-dasharray:none;stroke-opacity:1"
       transform="translate(308.16,583.7333)"
       clip-path="url(#clipPath18)" />
    <path
       id="path19"
       d="m 0,0 5.6,-0.16 5.6,-0.48 5.599999,-0.96 5.440001,-1.12 5.28,-1.44 5.279999,-1.92 4.959999,-2.08 4.960003,-2.56 4.48,-2.72 4.479999,-2.88 4.16,-3.36 3.68,-3.520001 3.680001,-3.679998 3.200001,-4 2.879997,-4.000002 2.400001,-4.32 2.239998,-4.479999 1.760002,-4.48 1.279999,-4.639999 1.120003,-4.799999 0.479996,-4.800004 0.319999,-4.639999 -0.319999,-4.799995 -0.479996,-4.800003 -1.120003,-4.800003 -1.279999,-4.64 -1.760002,-4.479996 -2.239998,-4.480003 -2.400001,-4.32 -2.879997,-3.999999 -3.200001,-4 -3.680001,-3.68 -3.68,-3.52 -4.16,-3.36 -4.479999,-2.88 -4.48,-2.72 -4.960003,-2.56 -4.959999,-2.08 -5.279999,-1.92 -5.28,-1.44 -5.440001,-1.12 L 11.2,-133.60001 5.6,-134.08 0,-134.39999"
       style="fill:none;stroke:#000000;stroke-width:26.4;stroke-linecap:round;stroke-linejoin:round;stroke-miterlimit:10;stroke-dasharray:none;stroke-opacity:1"
       transform="translate(308.16,785.1733)"
       clip-path="url(#clipPath20)" />
    <path
       id="path21"
       d="m 0,0 3.84,-0.16 3.52,-0.32 3.52,-0.8 3.52,-0.96 3.36,-1.28 3.199999,-1.44 2.880001,-1.76 2.879999,-1.92 2.560002,-2.24 2.399999,-2.4 1.919998,-2.56 1.760003,-2.719999 1.599998,-2.880002 1.120003,-2.879999 0.799999,-3.040001 0.48,-3.039999 0.159999,-3.039999 -0.159999,-3.2 -0.48,-3.040001 -0.799999,-3.040001 -1.120003,-2.879997 L 35.360001,-48.48 33.599998,-51.200001 31.68,-53.759998 29.280001,-56.16 26.719999,-58.240002 23.84,-60.32 20.959999,-62.080002 17.76,-63.52 l -3.36,-1.280003 -3.52,-0.959999 -3.52,-0.799996 -3.52,-0.319999 -3.84,-0.32"
       style="fill:none;stroke:#000000;stroke-width:26.4;stroke-linecap:round;stroke-linejoin:round;stroke-miterlimit:10;stroke-dasharray:none;stroke-opacity:1"
       transform="translate(426.23999,449.49328)"
       clip-path="url(#clipPath22)" />
    <path
       id="path23"
       d="m 0,0 -3.52,0.16 -3.52,0.48 -3.52,0.64 -3.52,1.12 -3.360001,1.12 -3.199998,1.6 -2.880001,1.76 -2.88,1.92 -2.559999,2.24 -2.400002,2.4 -1.919998,2.56 -1.760002,2.719999 -1.599998,2.720002 -1.119999,3.039999 -0.800003,3.04 -0.48,3.039999 -0.16,3.039999 0.16,3.200001 0.48,3.040001 0.800003,3.040001 1.119999,2.879997 1.599998,2.880001 1.760002,2.720002 1.919998,2.559997 2.400002,2.240002 2.559999,2.240002 2.88,2.079998 2.880001,1.760002 3.199998,1.439998 3.360001,1.279999 3.52,0.959999 3.52,0.64 3.52,0.480003 H 0"
       style="fill:none;stroke:#000000;stroke-width:26.4;stroke-linecap:round;stroke-linejoin:round;stroke-miterlimit:10;stroke-dasharray:none;stroke-opacity:1"
       transform="translate(426.23999,449.49328)"
       clip-path="url(#clipPath24)" />
    <path
       id="path25"
       d="m 0,0 h 3.84 l 3.68,-0.48 3.52,-0.8 3.52,-0.96 3.2,-1.28 3.199999,-1.44 L 24,-6.88 26.879999,-8.8 29.440001,-11.04 31.68,-13.44 33.759998,-16 35.52,-18.719999 36.959999,-21.6 l 1.120003,-3.039999 0.799999,-3.040001 0.48,-3.039999 L 39.52,-33.919998 39.360001,-36.959999 38.720001,-40 37.919998,-43.040001 36.639999,-46.080002 35.200001,-48.959999 33.279999,-51.52 31.200001,-54.080002 28.799999,-56.48 26.24,-58.720001 23.360001,-60.639999 20.32,-62.400002 16.959999,-63.84 13.6,-64.959999 l -3.52,-0.959999 -3.52,-0.64 -3.68,-0.480003 -3.68,-0.159996"
       style="fill:none;stroke:#000000;stroke-width:26.4;stroke-linecap:round;stroke-linejoin:round;stroke-miterlimit:10;stroke-dasharray:none;stroke-opacity:1"
       transform="translate(426.23999,583.7333)"
       clip-path="url(#clipPath26)" />
    <path
       id="path27"
       d="m 0,0 -3.52,0.16 -3.52,0.48 -3.52,0.64 -3.52,1.12 -3.360001,1.12 -3.199998,1.6 -2.880001,1.76 -2.88,1.92 -2.559999,2.24 -2.400002,2.4 -1.919998,2.56 -1.760002,2.719999 -1.599998,2.720002 -1.119999,3.039999 -0.800003,3.04 -0.48,3.039999 -0.16,3.039999 0.16,3.200001 0.48,3.040001 0.800003,3.040001 1.119999,2.879997 1.599998,2.880001 1.760002,2.720002 1.919998,2.559997 2.400002,2.400002 2.559999,2.080002 2.88,2.079998 2.880001,1.760002 3.199998,1.439998 3.360001,1.279999 3.52,0.959999 3.52,0.64 3.52,0.480003 H 0"
       style="fill:none;stroke:#000000;stroke-width:26.4;stroke-linecap:round;stroke-linejoin:round;stroke-miterlimit:10;stroke-dasharray:none;stroke-opacity:1"
       transform="translate(426.23999,583.7333)"
       clip-path="url(#clipPath28)" />
    <path
       id="path29"
       d="m 0,0 5.76,-0.16 5.6,-0.48 5.599999,-0.96 5.440001,-1.12 5.28,-1.44 5.279999,-1.92 4.959999,-2.08 4.800003,-2.56 4.64,-2.72 4.479999,-2.88 4,-3.36 3.84,-3.520001 3.520001,-3.679998 3.200001,-4 2.879997,-4.000002 2.559997,-4.32 2.080002,-4.479999 1.919998,-4.48 1.280007,-4.639999 0.959999,-4.799999 0.639999,-4.800004 0.159996,-4.639999 -0.159996,-4.799995 -0.639999,-4.800003 -0.959999,-4.800003 -1.280007,-4.64 -1.919998,-4.479996 -2.080002,-4.480003 -2.559997,-4.32 -2.879997,-3.999999 -3.200001,-4 -3.520001,-3.68 -3.84,-3.52 -4,-3.36 -4.479999,-2.88 -4.64,-2.72 -4.800003,-2.56 -4.959999,-2.08 -5.279999,-1.92 -5.28,-1.44 -5.440001,-1.12 L 11.36,-133.60001 5.76,-134.08 0,-134.39999"
       style="fill:none;stroke:#000000;stroke-width:26.4;stroke-linecap:round;stroke-linejoin:round;stroke-miterlimit:10;stroke-dasharray:none;stroke-opacity:1"
       transform="translate(426.23999,785.1733)"
       clip-path="url(#clipPath30)" />
    <path
       id="path31"
       d="m 0,0 3.68,-0.16 3.68,-0.32 3.52,-0.8 3.52,-0.96 3.2,-1.28 3.199999,-1.44 3.040001,-1.76 2.879999,-1.92 2.560002,-2.24 2.239999,-2.4 2.079998,-2.56 1.760003,-2.719999 1.439998,-2.880002 1.280003,-2.879999 0.799999,-3.040001 0.48,-3.039999 0.159999,-3.039999 -0.159999,-3.2 -0.48,-3.040001 -0.799999,-3.040001 -1.280003,-2.879997 L 35.360001,-48.48 33.599998,-51.200001 31.52,-53.759998 29.280001,-56.16 26.719999,-58.240002 23.84,-60.32 20.799999,-62.080002 17.6,-63.52 l -3.2,-1.280003 -3.52,-0.959999 -3.52,-0.799996 -3.68,-0.319999 -3.68,-0.32"
       style="fill:none;stroke:#000000;stroke-width:26.4;stroke-linecap:round;stroke-linejoin:round;stroke-miterlimit:10;stroke-dasharray:none;stroke-opacity:1"
       transform="translate(544.47998,449.49328)"
       clip-path="url(#clipPath32)" />
    <path
       id="path33"
       d="m 0,0 -3.52,0.16 -3.68,0.48 -3.52,0.64 -3.36,1.12 -3.360001,1.12 -3.199998,1.6 -3.040001,1.76 -2.72,1.92 -2.559999,2.24 -2.400002,2.4 -2.079998,2.56 -1.760002,2.719999 -1.439998,2.720002 -1.119999,3.039999 -0.800003,3.04 -0.48,3.039999 -0.32,3.039999 0.32,3.200001 0.48,3.040001 0.800003,3.040001 1.119999,2.879997 1.439998,2.880001 1.760002,2.720002 2.079998,2.559997 2.400002,2.240002 2.559999,2.240002 2.72,2.079998 3.040001,1.760002 3.199998,1.439998 3.360001,1.279999 3.36,0.959999 3.52,0.64 3.68,0.480003 H 0"
       style="fill:none;stroke:#000000;stroke-width:26.4;stroke-linecap:round;stroke-linejoin:round;stroke-miterlimit:10;stroke-dasharray:none;stroke-opacity:1"
       transform="translate(544.47998,449.49328)"
       clip-path="url(#clipPath34)" />
    <path
       id="path35"
       d="m 0,0 h 3.84 l 3.52,-0.48 3.68,-0.8 3.36,-0.96 3.36,-1.28 3.199999,-1.44 L 24,-6.88 26.879999,-8.8 29.440001,-11.04 31.68,-13.44 33.759998,-16 35.52,-18.719999 36.959999,-21.6 l 1.120003,-3.039999 0.799999,-3.040001 0.48,-3.039999 L 39.52,-33.919998 39.360001,-36.959999 38.720001,-40 37.919998,-43.040001 36.639999,-46.080002 35.200001,-48.959999 33.279999,-51.52 31.200001,-54.080002 28.799999,-56.48 26.08,-58.720001 23.360001,-60.639999 20.16,-62.400002 16.959999,-63.84 13.6,-64.959999 l -3.52,-0.959999 -3.52,-0.64 -3.68,-0.480003 -3.68,-0.159996"
       style="fill:none;stroke:#000000;stroke-width:26.4;stroke-linecap:round;stroke-linejoin:round;stroke-miterlimit:10;stroke-dasharray:none;stroke-opacity:1"
       transform="translate(544.47998,583.7333)"
       clip-path="url(#clipPath36)" />
    <path
       id="path37"
       d="m 0,0 -3.52,0.16 -3.68,0.48 -3.52,0.64 -3.36,1.12 -3.360001,1.12 -3.199998,1.6 -3.040001,1.76 -2.72,1.92 -2.559999,2.24 -2.400002,2.4 -2.079998,2.56 -1.760002,2.719999 -1.439998,2.720002 -1.119999,3.039999 -0.800003,3.04 -0.48,3.039999 -0.32,3.039999 0.32,3.200001 0.48,3.040001 0.800003,3.040001 1.119999,2.879997 1.439998,2.880001 1.760002,2.720002 2.079998,2.559997 2.400002,2.400002 2.559999,2.080002 2.72,2.079998 3.040001,1.760002 3.199998,1.439998 3.360001,1.279999 3.36,0.959999 3.52,0.64 3.68,0.480003 H 0"
       style="fill:none;stroke:#000000;stroke-width:26.4;stroke-linecap:round;stroke-linejoin:round;stroke-miterlimit:10;stroke-dasharray:none;stroke-opacity:1"
       transform="translate(544.47998,583.7333)"
       clip-path="url(#clipPath38)" />
    <path
       id="path39"
       d="m 0,0 5.76,-0.16 5.6,-0.48 5.439999,-0.96 5.440001,-1.12 5.44,-1.44 5.119999,-1.92 5.119999,-2.08 4.800003,-2.56 4.64,-2.72 4.319999,-2.88 4.16,-3.36 3.84,-3.520001 3.520001,-3.679998 3.200001,-4 2.879997,-4.000002 2.559997,-4.32 2.080002,-4.479999 1.760002,-4.48 1.440003,-4.639999 0.959999,-4.799999 0.639999,-4.800004 0.159996,-4.639999 -0.159996,-4.799995 -0.639999,-4.800003 -0.959999,-4.800003 -1.440003,-4.64 -1.760002,-4.479996 -2.080002,-4.480003 -2.559997,-4.32 -2.879997,-3.999999 -3.200001,-4 -3.520001,-3.68 -3.84,-3.52 -4.16,-3.36 -4.319999,-2.88 -4.64,-2.72 -4.800003,-2.56 -5.119999,-2.08 -5.119999,-1.92 -5.44,-1.44 -5.440001,-1.12 L 11.36,-133.60001 5.76,-134.08 0,-134.39999"
       style="fill:none;stroke:#000000;stroke-width:26.4;stroke-linecap:round;stroke-linejoin:round;stroke-miterlimit:10;stroke-dasharray:none;stroke-opacity:1"
       transform="translate(544.47998,785.1733)"
       clip-path="url(#clipPath40)" />
    <path
       id="path41"
       d="m 209.75999,334.72 h 393.92"
       style="fill:none;stroke:#000000;stroke-width:26.4;stroke-linecap:round;stroke-linejoin:round;stroke-miterlimit:10;stroke-dasharray:none;stroke-opacity:1"
       transform="translate(0,-2.6667253)"
       clip-path="url(#clipPath42)" />
  </g>
</svg>
