<?xml version="1.0" encoding="UTF-8" standalone="no"?>
<!-- Created with Inkscape (http://www.inkscape.org/) -->

<svg
   version="1.1"
   id="svg1"
   width="320.17334"
   height="305.66666"
   viewBox="0 0 320.17334 305.66666"
   sodipodi:docname="Verdigris31.pdf"
   xmlns:inkscape="http://www.inkscape.org/namespaces/inkscape"
   xmlns:sodipodi="http://sodipodi.sourceforge.net/DTD/sodipodi-0.dtd"
   xmlns="http://www.w3.org/2000/svg"
   xmlns:svg="http://www.w3.org/2000/svg">
  <defs
     id="defs1">
    <clipPath
       clipPathUnits="userSpaceOnUse"
       id="clipPath2">
      <path
         d="M 0,0.16 V 1122.5601 H 793.59998 V 0.16 Z"
         transform="translate(-483.67999,-472.64002)"
         clip-rule="evenodd"
         id="path2" />
    </clipPath>
    <clipPath
       clipPathUnits="userSpaceOnUse"
       id="clipPath4">
      <path
         d="M 0,0.16 V 1122.5601 H 793.59998 V 0.16 Z"
         transform="translate(-393.11999,-563.20002)"
         clip-rule="evenodd"
         id="path4" />
    </clipPath>
    <clipPath
       clipPathUnits="userSpaceOnUse"
       id="clipPath6">
      <path
         d="M 0,0.16 V 1122.5601 H 793.59998 V 0.16 Z"
         transform="translate(-393.11999,-563.20002)"
         clip-rule="evenodd"
         id="path6" />
    </clipPath>
    <clipPath
       clipPathUnits="userSpaceOnUse"
       id="clipPath8">
      <path
         d="M 0,0.16 V 1122.5601 H 793.59998 V 0.16 Z"
         transform="translate(-393.11999,-563.20002)"
         clip-rule="evenodd"
         id="path8" />
    </clipPath>
    <clipPath
       clipPathUnits="userSpaceOnUse"
       id="clipPath10">
      <path
         d="M 0,0.16 V 1122.5601 H 793.59998 V 0.16 Z"
         transform="translate(-393.11999,-563.20002)"
         clip-rule="evenodd"
         id="path10" />
    </clipPath>
    <clipPath
       clipPathUnits="userSpaceOnUse"
       id="clipPath12">
      <path
         d="M 0,0.16 V 1122.5601 H 793.59998 V 0.16 Z"
         transform="translate(-349.6,-542.40003)"
         clip-rule="evenodd"
         id="path12" />
    </clipPath>
    <clipPath
       clipPathUnits="userSpaceOnUse"
       id="clipPath14">
      <path
         d="M 0,0.16 V 1122.5601 H 793.59998 V 0.16 Z"
         transform="translate(-444,-504.64002)"
         clip-rule="evenodd"
         id="path14" />
    </clipPath>
    <clipPath
       clipPathUnits="userSpaceOnUse"
       id="clipPath16">
      <path
         d="M 0,0.16 V 1122.5601 H 793.59998 V 0.16 Z"
         transform="translate(-444,-599.03998)"
         clip-rule="evenodd"
         id="path16" />
    </clipPath>
    <clipPath
       clipPathUnits="userSpaceOnUse"
       id="clipPath18">
      <path
         d="M 0,0.16 V 1122.5601 H 793.59998 V 0.16 Z"
         transform="translate(-349.6,-636.79999)"
         clip-rule="evenodd"
         id="path18" />
    </clipPath>
    <clipPath
       clipPathUnits="userSpaceOnUse"
       id="clipPath20">
      <path
         d="M 0,0.16 V 1122.5601 H 793.59998 V 0.16 Z"
         transform="translate(-349.6,-542.40003)"
         clip-rule="evenodd"
         id="path20" />
    </clipPath>
  </defs>
  <sodipodi:namedview
     id="namedview1"
     pagecolor="#505050"
     bordercolor="#eeeeee"
     borderopacity="1"
     inkscape:showpageshadow="0"
     inkscape:pageopacity="0"
     inkscape:pagecheckerboard="0"
     inkscape:deskcolor="#505050">
    <inkscape:page
       x="0"
       y="0"
       inkscape:label="1"
       id="page1"
       width="320.17334"
       height="305.66666"
       margin="0"
       bleed="0" />
  </sodipodi:namedview>
  <g
     id="g1"
     inkscape:groupmode="layer"
     inkscape:label="1">
    <path
       id="path1"
       d="m 0,0 -3.68,-3.36 -4,-3.04 -4.16,-2.72 -4.48,-2.4 -4.800001,-2.08 L -26.08,-15.2 -31.360001,-16.639999 -36.799999,-17.6 -42.400002,-18.08 -48.16,-18.4 -53.919998,-18.24 -60,-17.76 -66.080002,-16.799999 -72.32,-15.52 l -6.239998,1.6 -6.400001,1.92 -6.400002,2.24 -6.239997,2.72 -6.400002,2.88 -6.24,3.36 -6.08,3.52 -6.24,4 -5.92,4.16 -5.91999,4.48 -5.76001,4.64 -5.44001,4.959999 -5.43998,5.120001 -5.12001,5.44 -4.95999,5.599999 -4.64,5.600002 -4.48001,5.919998 -4.15999,6.080002 -4,6.080002 -3.52001,6.239998 -3.36,6.239998 -2.88,6.239998 -2.72,6.400001 -2.23999,6.240006 -2.08001,6.399996 -1.6,6.24 -1.12,6.24 -0.96,6.08 -0.48,6.08 -0.16,5.91999 0.16,5.76001 0.64,5.6 0.96001,5.27999 1.27999,5.28 1.76,4.96001 2.08,4.8 2.24001,4.48 2.72,4.32001 3.03999,3.83999 3.36,3.67999 3.67999,3.36001 4,3.04 4.32001,2.72 4.48,2.4 4.64,2.08 5.12001,1.60001 5.11999,1.43998 5.44,0.96001 5.6,0.48 5.76001,0.32 5.91999,-0.16 6.08,-0.64 6.08,-0.8 6.24,-1.28 6.24,-1.60001 6.24,-1.92 6.400002,-2.23999 6.400001,-2.72 6.239998,-2.88 6.239998,-3.36 6.239998,-3.68 6.080002,-3.84001 6.080002,-4.15999 5.759998,-4.48001 5.760002,-4.64 5.599999,-4.95999 5.28,-5.12001 5.280001,-5.43998 L -20.16,140 l 4.8,-5.76 4.48,-5.76 4.16,-6.08 3.84,-6.08 L 0.8,110.08 4,103.84 7.04,97.599998 9.6,91.199997 12,84.959999 13.92,78.559998 15.52,72.32 16.799999,66.080002 17.6,60 18.08,53.919998 18.24,48 18.08,42.240002 17.440001,36.639999 16.48,31.200001 15.2,26.08 13.6,21.120001 11.52,16.32 9.12,11.84 6.4,7.52 3.36,3.52 0,0"
       style="fill:none;stroke:#000000;stroke-width:26.4;stroke-linecap:round;stroke-linejoin:round;stroke-miterlimit:10;stroke-dasharray:none;stroke-opacity:1"
       transform="translate(262.22666,54.85329)"
       clip-path="url(#clipPath2)" />
    <path
       id="path3"
       d="M 0,0 1.12,-6.88 1.92,-13.76 2.4,-20.639999 2.24,-27.68 1.76,-34.560001 0.64,-41.439999 -0.64,-48.16 l -1.92,-6.720001 -2.24,-6.559998 -2.72,-6.399997 -3.2,-6.240006 -3.52,-6.080002 -3.84,-5.759994 -4.16,-5.440003 -4.639999,-5.279998 L -31.84,-101.44 l -5.119999,-4.64 -5.600002,-4.32 -5.759999,-3.84 -5.920002,-3.52 -6.239998,-3.04"
       style="fill:none;stroke:#000000;stroke-width:26.4;stroke-linecap:round;stroke-linejoin:round;stroke-miterlimit:10;stroke-dasharray:none;stroke-opacity:1"
       transform="translate(171.66666,145.41329)"
       clip-path="url(#clipPath4)" />
    <path
       id="path5"
       d="m 0,0 8.48,-2.56 8.479999,-3.04 8.160002,-3.52 8.159998,-3.84 7.84,-4.320001 7.52,-4.639999 L 56,-27.040001 63.200001,-32.48 69.919998,-38.240002 76.480003,-44.32 82.559998,-50.880001 88.32,-57.599998 93.760002,-64.800003 98.879997,-72.160004 103.52,-79.68 l 4.32,-7.839997 3.84,-8.160003 3.52,-8.16 3.04,-8.48 2.56,-8.48"
       style="fill:none;stroke:#000000;stroke-width:26.4;stroke-linecap:round;stroke-linejoin:round;stroke-miterlimit:10;stroke-dasharray:none;stroke-opacity:1"
       transform="translate(171.66666,145.41329)"
       clip-path="url(#clipPath6)" />
    <path
       id="path7"
       d="M 0,0 -17.6,4.48 -35.040001,9.6 -52.16,15.36 -69.279999,21.6 -86.080002,28.32 -102.72,35.52 -119.04,43.360001 -135.2,51.68 l -15.83999,8.8"
       style="fill:none;stroke:#000000;stroke-width:26.4;stroke-linecap:round;stroke-linejoin:round;stroke-miterlimit:10;stroke-dasharray:none;stroke-opacity:1"
       transform="translate(171.66666,145.41329)"
       clip-path="url(#clipPath8)" />
    <path
       id="path9"
       d="m 0,0 -1.28,8.8 -0.8,8.96 -0.32,8.799999 V 35.52 l 0.48,8.96 0.8,8.799999 1.44,8.800003 1.6,8.799995 2.24,8.64 L 6.72,88 9.6,96.480003 12.96,104.8 l 3.679999,8 4.16,8 4.480002,7.68 4.959999,7.36"
       style="fill:none;stroke:#000000;stroke-width:26.4;stroke-linecap:round;stroke-linejoin:round;stroke-miterlimit:10;stroke-dasharray:none;stroke-opacity:1"
       transform="translate(171.66666,145.41329)"
       clip-path="url(#clipPath10)" />
    <path
       id="path11"
       d="m 0,0 v -1.28 l -0.32,-1.28 -0.48,-1.28 -0.64,-1.28 -0.8,-1.12 -0.96,-0.8 -1.12,-0.8 -1.12,-0.8 -1.28,-0.32 -1.28,-0.32 -1.44,-0.16 -1.28,0.16 -1.28,0.32 -1.28,0.32 -1.28,0.8 -0.96,0.8 -0.96,0.8 -0.800001,1.12 -0.639999,1.28 -0.48,1.28 -0.319999,1.28 -0.16,1.28 0.16,1.44 0.319999,1.28 0.48,1.28 0.639999,1.12 0.800001,1.12 0.96,0.96 0.96,0.8 1.28,0.64 1.28,0.48 1.28,0.32 H -9.44 -8 L -6.72,9.12 -5.44,8.64 -4.32,8 -3.2,7.2 -2.24,6.24 -1.44,5.12 -0.8,4 -0.32,2.72 0,1.44 V 0 0 Z"
       style="fill:#000000;fill-opacity:1;fill-rule:evenodd;stroke:none"
       transform="translate(128.14667,124.6133)"
       clip-path="url(#clipPath12)" />
    <path
       id="path13"
       d="m 0,0 v -1.28 l -0.32,-1.28 -0.48,-1.28 -0.64,-1.28 -0.8,-0.96 -0.96,-0.96 -1.12,-0.8 -1.12,-0.8 -1.28,-0.32 -1.28,-0.32 -1.44,-0.16 -1.28,0.16 -1.28,0.32 -1.28,0.32 -1.28,0.8 -0.96,0.8 -0.96,0.96 -0.800001,0.96 -0.639999,1.28 -0.48,1.28 -0.319999,1.28 -0.16,1.28 0.16,1.44 0.319999,1.28 0.48,1.28 0.639999,1.12 0.800001,1.12 0.96,0.96 0.96,0.8 1.28,0.64 1.28,0.48 1.28,0.32 H -9.44 -8 L -6.72,9.12 -5.44,8.64 -4.32,8 -3.2,7.2 -2.24,6.24 -1.44,5.12 -0.8,4 -0.32,2.72 0,1.44 V 0 0 Z"
       style="fill:#000000;fill-opacity:1;fill-rule:evenodd;stroke:none"
       transform="translate(222.54667,86.85329)"
       clip-path="url(#clipPath14)" />
    <path
       id="path15"
       d="M 0,0 V -1.28 L -0.32,-2.72 -0.8,-3.84 -1.44,-5.12 -2.24,-6.24 -3.2,-7.04 -4.32,-8 -5.44,-8.64 -6.72,-8.96 -8,-9.28 l -1.44,-0.16 -1.28,0.16 -1.28,0.32 -1.28,0.32 -1.28,0.64 -0.96,0.96 -0.96,0.8 -0.800001,1.12 -0.639999,1.28 -0.48,1.12 -0.319999,1.44 -0.16,1.28 0.16,1.44 0.319999,1.28 0.48,1.28 0.639999,1.12 0.800001,1.12 0.96,0.96 0.96,0.8 1.28,0.64 1.28,0.48 1.28,0.32 H -9.44 -8 L -6.72,9.12 -5.44,8.64 -4.32,8 -3.2,7.2 -2.24,6.24 -1.44,5.12 -0.8,4 -0.32,2.72 0,1.44 V 0 0 Z"
       style="fill:#000000;fill-opacity:1;fill-rule:evenodd;stroke:none"
       transform="translate(222.54667,181.25325)"
       clip-path="url(#clipPath16)" />
    <path
       id="path17"
       d="M 0,0 V -1.28 L -0.32,-2.72 -0.8,-3.84 -1.44,-5.12 -2.24,-6.24 -3.2,-7.04 -4.32,-8 -5.44,-8.64 -6.72,-9.12 -8,-9.28 l -1.44,-0.16 -1.28,0.16 -1.28,0.16 -1.28,0.48 -1.28,0.64 -0.96,0.96 -0.96,0.8 -0.800001,1.12 -0.639999,1.28 -0.48,1.12 -0.319999,1.44 -0.16,1.28 0.16,1.28 0.319999,1.44 0.48,1.28 0.639999,1.12 0.800001,1.12 0.96,0.96 0.96,0.8 1.28,0.64 1.28,0.48 1.28,0.16 1.28,0.16 L -8,9.28 -6.72,9.12 -5.44,8.64 -4.32,8 -3.2,7.2 -2.24,6.24 -1.44,5.12 -0.8,4 -0.32,2.72 0,1.28 V 0 0 Z"
       style="fill:#000000;fill-opacity:1;fill-rule:evenodd;stroke:none"
       transform="translate(128.14667,219.01326)"
       clip-path="url(#clipPath18)" />
    <path
       id="path19"
       d="m 0,0 v -1.28 l -0.32,-1.28 -0.48,-1.28 -0.64,-1.28 -0.8,-1.12 -0.96,-0.8 -1.12,-0.8 -1.12,-0.8 -1.28,-0.32 -1.28,-0.32 -1.44,-0.16 -1.28,0.16 -1.28,0.32 -1.28,0.32 -1.28,0.8 -0.96,0.8 -0.96,0.8 -0.800001,1.12 -0.639999,1.28 -0.48,1.28 -0.319999,1.28 -0.16,1.28 0.16,1.44 0.319999,1.28 0.48,1.28 0.639999,1.12 0.800001,1.12 0.96,0.96 0.96,0.8 1.28,0.64 1.28,0.48 1.28,0.32 H -9.44 -8 L -6.72,9.12 -5.44,8.64 -4.32,8 -3.2,7.2 -2.24,6.24 -1.44,5.12 -0.8,4 -0.32,2.72 0,1.44 V 0 m 94.400002,-37.759998 v -1.280003 l -0.32,-1.279999 -0.480004,-1.279998 -0.639999,-1.280003 -0.799995,-0.959999 -0.960007,-0.959999 -1.119995,-0.799999 -1.120003,-0.800004 -1.279999,-0.319999 -1.279998,-0.32 -1.440003,-0.16 -1.279999,0.16 -1.279998,0.32 -1.279999,0.319999 -1.280007,0.800004 -0.959999,0.799999 -0.959999,0.959999 -0.799995,0.959999 -0.64,1.280003 L 76,-40.32 75.68,-39.040001 75.519997,-37.759998 75.68,-36.32 l 0.32,1.279999 0.480003,1.280003 0.64,1.119999 0.799995,1.119999 0.959999,0.960001 0.959999,0.799999 1.280007,0.639999 1.279999,0.480002 L 83.68,-28.32 h 1.279999 1.440003 l 1.279998,-0.319999 1.279999,-0.480002 1.120003,-0.639999 1.119995,-0.799999 0.960007,-0.960001 0.799995,-1.119999 0.639999,-1.119999 0.480004,-1.280003 0.32,-1.279999 v -1.439998 m 0,94.399997 v -1.279998 l -0.32,-1.440003 L 93.599998,52.799999 92.959999,51.52 92.160004,50.400002 91.199997,49.599998 90.080002,48.639999 88.959999,48 87.68,47.68 l -1.279998,-0.319999 -1.440003,-0.16 -1.279999,0.16 L 82.400002,47.68 81.120003,48 l -1.280007,0.639999 -0.959999,0.959999 -0.959999,0.800004 -0.799995,1.119998 -0.64,1.279999 L 76,53.919998 75.68,55.360001 75.519997,56.639999 75.68,58.080002 76,59.360001 l 0.480003,1.279998 0.64,1.119999 0.799995,1.120003 0.959999,0.959999 0.959999,0.799999 1.280007,0.64 1.279999,0.480003 1.279998,0.32 h 1.279999 1.440003 l 1.279998,-0.32 1.279999,-0.480003 1.120003,-0.64 1.119995,-0.799999 0.960007,-0.959999 0.799995,-1.120003 0.639999,-1.119999 0.480004,-1.279998 0.32,-1.279999 V 56.639999 M 0,94.400002 V 93.120003 L -0.32,91.68 -0.8,90.559998 l -0.64,-1.279999 -0.8,-1.119995 -0.96,-0.800003 -1.12,-0.959999 -1.12,-0.64 -1.28,-0.480003 -1.28,-0.159996 -1.44,-0.160004 -1.28,0.160004 -1.28,0.159996 -1.28,0.480003 -1.28,0.64 -0.96,0.959999 -0.96,0.800003 -0.800001,1.119995 L -17.92,90.559998 -18.4,91.68 l -0.319999,1.440003 -0.16,1.279999 0.16,1.279998 0.319999,1.440003 0.48,1.279999 0.639999,1.119995 0.800001,1.120003 0.96,0.96 0.96,0.8 1.28,0.64 1.28,0.48 1.28,0.16 1.28,0.16 1.44,-0.16 1.28,-0.16 1.28,-0.48 1.12,-0.64 1.12,-0.8 0.96,-0.96 0.8,-1.120003 0.64,-1.119995 0.48,-1.279999 L 0,95.68 v -1.279998"
       style="fill:none;stroke:#000000;stroke-width:0.48;stroke-linecap:round;stroke-linejoin:round;stroke-miterlimit:10;stroke-dasharray:none;stroke-opacity:1"
       transform="translate(128.14667,124.6133)"
       clip-path="url(#clipPath20)" />
  </g>
</svg>
