<?xml version="1.0" encoding="UTF-8" standalone="no"?>
<!-- Created with Inkscape (http://www.inkscape.org/) -->

<svg
   version="1.1"
   id="svg1"
   width="494.93332"
   height="449.82666"
   viewBox="0 0 494.93332 449.82666"
   sodipodi:docname="Verdigris12.pdf"
   xmlns:inkscape="http://www.inkscape.org/namespaces/inkscape"
   xmlns:sodipodi="http://sodipodi.sourceforge.net/DTD/sodipodi-0.dtd"
   xmlns="http://www.w3.org/2000/svg"
   xmlns:svg="http://www.w3.org/2000/svg">
  <defs
     id="defs1">
    <clipPath
       clipPathUnits="userSpaceOnUse"
       id="clipPath2">
      <path
         d="M 0,0.16 V 1122.5601 H 793.59998 V 0.16 Z"
         transform="translate(-421.44001,-659.44)"
         clip-rule="evenodd"
         id="path2" />
    </clipPath>
    <clipPath
       clipPathUnits="userSpaceOnUse"
       id="clipPath4">
      <path
         d="M 0,0.16 V 1122.5601 H 793.59998 V 0.16 Z"
         transform="translate(3.3333333e-6)"
         clip-rule="evenodd"
         id="path4" />
    </clipPath>
    <clipPath
       clipPathUnits="userSpaceOnUse"
       id="clipPath6">
      <path
         d="M 0,0.16 V 1122.5601 H 793.59998 V 0.16 Z"
         transform="translate(3.3333333e-6)"
         clip-rule="evenodd"
         id="path6" />
    </clipPath>
    <clipPath
       clipPathUnits="userSpaceOnUse"
       id="clipPath8">
      <path
         d="M 0,0.16 V 1122.5601 H 793.59998 V 0.16 Z"
         transform="translate(3.3333333e-6)"
         clip-rule="evenodd"
         id="path8" />
    </clipPath>
    <clipPath
       clipPathUnits="userSpaceOnUse"
       id="clipPath10">
      <path
         d="M 0,0.16 V 1122.5601 H 793.59998 V 0.16 Z"
         transform="translate(-437.60001,-744.96002)"
         clip-rule="evenodd"
         id="path10" />
    </clipPath>
    <clipPath
       clipPathUnits="userSpaceOnUse"
       id="clipPath12">
      <path
         d="M 0,0.16 V 1122.5601 H 793.59998 V 0.16 Z"
         transform="translate(-437.60001,-744.96002)"
         clip-rule="evenodd"
         id="path12" />
    </clipPath>
  </defs>
  <sodipodi:namedview
     id="namedview1"
     pagecolor="#505050"
     bordercolor="#eeeeee"
     borderopacity="1"
     inkscape:showpageshadow="0"
     inkscape:pageopacity="0"
     inkscape:pagecheckerboard="0"
     inkscape:deskcolor="#505050">
    <inkscape:page
       x="0"
       y="0"
       inkscape:label="1"
       id="page1"
       width="494.93332"
       height="449.82666"
       margin="0"
       bleed="0" />
  </sodipodi:namedview>
  <g
     id="g1"
     inkscape:groupmode="layer"
     inkscape:label="1">
    <path
       id="path1"
       d="m 0,0 c 0,-54.209999 -43.939999,-98.160004 -98.160004,-98.160004 -54.219996,0 -98.160006,43.950005 -98.160006,98.160004 0,54.209999 43.94001,98.160004 98.160006,98.160004 C -43.939999,98.160004 0,54.209999 0,0 Z"
       style="fill:none;stroke:#000000;stroke-width:26.4;stroke-linecap:round;stroke-linejoin:round;stroke-miterlimit:10;stroke-dasharray:none;stroke-opacity:1"
       transform="translate(274.69334,320.39994)"
       clip-path="url(#clipPath2)" />
    <path
       id="path3"
       d="m 249.60001,585.91998 73.6,-220.95999 73.59998,220.95999"
       style="fill:none;stroke:#000000;stroke-width:26.4;stroke-linecap:round;stroke-linejoin:round;stroke-miterlimit:10;stroke-dasharray:none;stroke-opacity:1"
       transform="translate(-146.74667,-339.04006)"
       clip-path="url(#clipPath4)" />
    <path
       id="path5"
       d="M 617.76001,659.52002 H 519.52002"
       style="fill:none;stroke:#000000;stroke-width:26.4;stroke-linecap:round;stroke-linejoin:round;stroke-miterlimit:10;stroke-dasharray:none;stroke-opacity:1"
       transform="translate(-146.74667,-339.04006)"
       clip-path="url(#clipPath6)" />
    <path
       id="path7"
       d="m 519.52002,659.52002 v 48.95996"
       style="fill:none;stroke:#000000;stroke-width:26.4;stroke-linecap:round;stroke-linejoin:round;stroke-miterlimit:10;stroke-dasharray:none;stroke-opacity:1"
       transform="translate(-146.74667,-339.04006)"
       clip-path="url(#clipPath8)" />
    <path
       id="path9"
       d="m 0,0 3.36,2.88 3.68,2.4 3.68,2.08 4,1.92 4.159999,1.28 4.160002,1.12 4.32,0.64 L 31.68,12.64 H 36 l 4.32,-0.48 4.319999,-0.96 4.16,-1.12 4,-1.6 4,-1.92 L 60.48,4.16 64,1.6 l 3.199997,-2.88 2.880005,-3.2 2.720001,-3.36 2.399994,-3.68 2.080002,-3.84 1.599998,-4.000001 1.280007,-4.159999 0.959999,-4.16 0.639999,-4.32 0.159996,-4.48"
       style="fill:none;stroke:#000000;stroke-width:26.4;stroke-linecap:round;stroke-linejoin:round;stroke-miterlimit:10;stroke-dasharray:none;stroke-opacity:1"
       transform="translate(290.85334,405.91996)"
       clip-path="url(#clipPath10)" />
    <path
       id="path11"
       d="M 0,0 -11.2,-11.04 -22.719999,-21.6 -34.720001,-32 l -12.16,-9.759998 L -59.52,-51.360001 -72.480003,-60.32 -85.760002,-68.959999 -99.199997,-77.120003 -112.96,-84.639999 -126.88,-92 l -14.23999,-6.720001 -14.56,-6.239999 -14.72,-5.76 -14.72,-5.28 -15.04001,-4.64 -15.2,-4.32 -15.36,-3.68 -15.36,-3.2 -15.68001,-2.88"
       style="fill:none;stroke:#000000;stroke-width:26.4;stroke-linecap:round;stroke-linejoin:round;stroke-miterlimit:10;stroke-dasharray:none;stroke-opacity:1"
       transform="translate(290.85334,405.91996)"
       clip-path="url(#clipPath12)" />
  </g>
</svg>
