<?xml version="1.0" encoding="UTF-8" standalone="no"?>
<!-- Created with Inkscape (http://www.inkscape.org/) -->

<svg
   version="1.1"
   id="svg1"
   width="517.61334"
   height="509.89334"
   viewBox="0 0 517.61334 509.89334"
   sodipodi:docname="Verdigris19.pdf"
   xmlns:inkscape="http://www.inkscape.org/namespaces/inkscape"
   xmlns:sodipodi="http://sodipodi.sourceforge.net/DTD/sodipodi-0.dtd"
   xmlns="http://www.w3.org/2000/svg"
   xmlns:svg="http://www.w3.org/2000/svg">
  <defs
     id="defs1">
    <clipPath
       clipPathUnits="userSpaceOnUse"
       id="clipPath2">
      <path
         d="M 0,0.16 V 1122.5601 H 793.59998 V 0.16 Z"
         transform="translate(-406.23999,-787.84003)"
         clip-rule="evenodd"
         id="path2" />
    </clipPath>
    <clipPath
       clipPathUnits="userSpaceOnUse"
       id="clipPath4">
      <path
         d="M 0,0.16 V 1122.5601 H 793.59998 V 0.16 Z"
         clip-rule="evenodd"
         id="path4" />
    </clipPath>
    <clipPath
       clipPathUnits="userSpaceOnUse"
       id="clipPath6">
      <path
         d="M 0,0.16 V 1122.5601 H 793.59998 V 0.16 Z"
         clip-rule="evenodd"
         id="path6" />
    </clipPath>
    <clipPath
       clipPathUnits="userSpaceOnUse"
       id="clipPath8">
      <path
         d="M 0,0.16 V 1122.5601 H 793.59998 V 0.16 Z"
         transform="translate(-330.72,-334.72)"
         clip-rule="evenodd"
         id="path8" />
    </clipPath>
    <clipPath
       clipPathUnits="userSpaceOnUse"
       id="clipPath10">
      <path
         d="M 0,0.16 V 1122.5601 H 793.59998 V 0.16 Z"
         transform="translate(-161.44,-711.67999)"
         clip-rule="evenodd"
         id="path10" />
    </clipPath>
    <clipPath
       clipPathUnits="userSpaceOnUse"
       id="clipPath12">
      <path
         d="M 0,0.16 V 1122.5601 H 793.59998 V 0.16 Z"
         clip-rule="evenodd"
         id="path12" />
    </clipPath>
    <clipPath
       clipPathUnits="userSpaceOnUse"
       id="clipPath14">
      <path
         d="M 0,0.16 V 1122.5601 H 793.59998 V 0.16 Z"
         clip-rule="evenodd"
         id="path14" />
    </clipPath>
  </defs>
  <sodipodi:namedview
     id="namedview1"
     pagecolor="#505050"
     bordercolor="#eeeeee"
     borderopacity="1"
     inkscape:showpageshadow="0"
     inkscape:pageopacity="0"
     inkscape:pagecheckerboard="0"
     inkscape:deskcolor="#505050">
    <inkscape:page
       x="0"
       y="0"
       inkscape:label="1"
       id="page1"
       width="517.61334"
       height="509.89334"
       margin="0"
       bleed="0" />
  </sodipodi:namedview>
  <g
     id="g1"
     inkscape:groupmode="layer"
     inkscape:label="1">
    <path
       id="path1"
       d="M 0,0 10.56,-0.16 20.959999,-0.96 31.360001,-2.24 41.599998,-3.84 51.84,-6.08 62.080002,-8.64 72,-11.68 81.919998,-15.36 91.519997,-19.360001 100.96,-23.68 l 9.28,-4.959999 9.12,-5.279999 8.64,-5.760002 8.64,-6.079998 8.16,-6.560002 7.84,-6.880001 7.68001,-7.200001 7.19999,-7.519996 6.87999,-7.840004 6.40001,-8.32 6.08,-8.479996 5.76,-8.640002 5.28,-9.12 4.96,-9.28 4.48,-9.43999 4,-9.60001 3.52,-9.92 3.04,-9.92 2.72,-10.24 2.08,-10.24001 1.76,-10.23999 1.12001,-10.40001 0.79998,-10.39999 0.16001,-10.56 -0.16001,-10.40001 -0.79998,-10.55999 -1.12001,-10.24001 -1.76,-10.39999 -2.08,-10.23999 -2.72,-10.08002 -3.04,-10.07999 -3.52,-9.76001 -4,-9.75998 -4.48,-9.44 -4.96,-9.28 -5.28,-8.96002 -5.76,-8.79999 -6.08,-8.48001 -6.40001,-8.16 -6.87999,-8 -7.19999,-7.51999 -7.68001,-7.20001 -7.84,-6.87998 -8.16,-6.56 -8.64,-6.08001 -8.64,-5.76001 -9.12,-5.28 -9.28,-4.79999 -9.440003,-4.48001 -9.599999,-4 L 72,-441.28 62.080002,-444.48001 51.84,-447.04001 41.599998,-449.28 31.360001,-450.88 20.959999,-452.16 10.56,-452.79999 0,-453.12"
       style="fill:none;stroke:#000000;stroke-width:26.4;stroke-linecap:round;stroke-linejoin:round;stroke-miterlimit:10;stroke-dasharray:none;stroke-opacity:1"
       transform="translate(406.23999,786.50664)"
       clip-path="url(#clipPath2)" />
    <path
       id="path3"
       d="M 406.23999,334.72 H 330.72"
       style="fill:none;stroke:#000000;stroke-width:26.4;stroke-linecap:round;stroke-linejoin:round;stroke-miterlimit:10;stroke-dasharray:none;stroke-opacity:1"
       transform="translate(0,-1.333392)"
       clip-path="url(#clipPath4)" />
    <path
       id="path5"
       d="M 406.23999,787.84003 H 330.72"
       style="fill:none;stroke:#000000;stroke-width:26.4;stroke-linecap:round;stroke-linejoin:round;stroke-miterlimit:10;stroke-dasharray:none;stroke-opacity:1"
       transform="translate(0,-1.333392)"
       clip-path="url(#clipPath6)" />
    <path
       id="path7"
       d="M 0,0 -10.56,0.32 -21.120001,0.96 -31.68,2.24 -42.240002,4 l -10.399997,2.24 -10.240002,2.72 -10.079998,3.2 -10.080002,3.68 -9.760002,4 -9.599997,4.64 -9.28,4.960001 -9.12,5.6 -8.80001,5.759998 -8.63999,6.400002 -8.32,6.559997 -7.83999,7.040001 L -162.08,68.32 -169.28,76"
       style="fill:none;stroke:#000000;stroke-width:26.4;stroke-linecap:round;stroke-linejoin:round;stroke-miterlimit:10;stroke-dasharray:none;stroke-opacity:1"
       transform="translate(330.72,333.38661)"
       clip-path="url(#clipPath8)" />
    <path
       id="path9"
       d="m 0,0 7.04,7.68 7.36,7.2 7.84,7.04 8,6.56 8.320001,6.080001 8.48,5.759999 L 56,45.759998 l 8.959999,4.960003 9.440003,4.48 9.439994,4.16 9.600006,3.68 9.919998,3.360001 9.92,2.720001 10.08,2.399994 10.24001,1.760002 L 143.84,74.720001 154.08,75.68 164.48,76"
       style="fill:none;stroke:#000000;stroke-width:26.4;stroke-linecap:round;stroke-linejoin:round;stroke-miterlimit:10;stroke-dasharray:none;stroke-opacity:1"
       transform="translate(161.44,710.3466)"
       clip-path="url(#clipPath10)" />
    <path
       id="path11"
       d="M 368.48001,334.72 V 787.84003"
       style="fill:none;stroke:#000000;stroke-width:26.4;stroke-linecap:round;stroke-linejoin:round;stroke-miterlimit:10;stroke-dasharray:none;stroke-opacity:1"
       transform="translate(0,-1.333392)"
       clip-path="url(#clipPath12)" />
    <path
       id="path13"
       d="M 368.48001,561.28003 H 160.8"
       style="fill:none;stroke:#000000;stroke-width:26.4;stroke-linecap:round;stroke-linejoin:round;stroke-miterlimit:10;stroke-dasharray:none;stroke-opacity:1"
       transform="translate(0,-1.333392)"
       clip-path="url(#clipPath14)" />
  </g>
</svg>
