<?xml version="1.0" encoding="UTF-8" standalone="no"?>
<!-- Created with Inkscape (http://www.inkscape.org/) -->

<svg
   version="1.1"
   id="svg1"
   width="508.28"
   height="512.56"
   viewBox="0 0 508.28 512.56"
   sodipodi:docname="VinumAdustum2.pdf"
   xmlns:inkscape="http://www.inkscape.org/namespaces/inkscape"
   xmlns:sodipodi="http://sodipodi.sourceforge.net/DTD/sodipodi-0.dtd"
   xmlns="http://www.w3.org/2000/svg"
   xmlns:svg="http://www.w3.org/2000/svg">
  <defs
     id="defs1">
    <clipPath
       clipPathUnits="userSpaceOnUse"
       id="clipPath2">
      <path
         d="M 0,0.16 V 1122.5601 H 793.59998 V 0.16 Z"
         transform="translate(-632,-555.76001)"
         clip-rule="evenodd"
         id="path2" />
    </clipPath>
    <clipPath
       clipPathUnits="userSpaceOnUse"
       id="clipPath4">
      <path
         d="M 0,0.16 V 1122.5601 H 793.59998 V 0.16 Z"
         clip-rule="evenodd"
         id="path4" />
    </clipPath>
    <clipPath
       clipPathUnits="userSpaceOnUse"
       id="clipPath6">
      <path
         d="M 0,0.16 V 1122.5601 H 793.59998 V 0.16 Z"
         clip-rule="evenodd"
         id="path6" />
    </clipPath>
    <clipPath
       clipPathUnits="userSpaceOnUse"
       id="clipPath8">
      <path
         d="M 0,0.16 V 1122.5601 H 793.59998 V 0.16 Z"
         transform="translate(-343.20001,-574.56)"
         clip-rule="evenodd"
         id="path8" />
    </clipPath>
    <clipPath
       clipPathUnits="userSpaceOnUse"
       id="clipPath10">
      <path
         d="M 0,0.16 V 1122.5601 H 793.59998 V 0.16 Z"
         transform="translate(-494.23999,-574.56)"
         clip-rule="evenodd"
         id="path10" />
    </clipPath>
    <clipPath
       clipPathUnits="userSpaceOnUse"
       id="clipPath12">
      <path
         d="M 0,0.16 V 1122.5601 H 793.59998 V 0.16 Z"
         transform="translate(-418.72,-480.16001)"
         clip-rule="evenodd"
         id="path12" />
    </clipPath>
    <clipPath
       clipPathUnits="userSpaceOnUse"
       id="clipPath14">
      <path
         d="M 0,0.16 V 1122.5601 H 793.59998 V 0.16 Z"
         transform="translate(-343.20001,-574.56)"
         clip-rule="evenodd"
         id="path14" />
    </clipPath>
    <clipPath
       clipPathUnits="userSpaceOnUse"
       id="clipPath16">
      <path
         d="M 0,0.16 V 1122.5601 H 793.59998 V 0.16 Z"
         transform="translate(-494.23999,-574.56)"
         clip-rule="evenodd"
         id="path16" />
    </clipPath>
    <clipPath
       clipPathUnits="userSpaceOnUse"
       id="clipPath18">
      <path
         d="M 0,0.16 V 1122.5601 H 793.59998 V 0.16 Z"
         transform="translate(-418.72,-480.16001)"
         clip-rule="evenodd"
         id="path18" />
    </clipPath>
  </defs>
  <sodipodi:namedview
     id="namedview1"
     pagecolor="#505050"
     bordercolor="#eeeeee"
     borderopacity="1"
     inkscape:showpageshadow="0"
     inkscape:pageopacity="0"
     inkscape:pagecheckerboard="0"
     inkscape:deskcolor="#505050">
    <inkscape:page
       x="0"
       y="0"
       inkscape:label="1"
       id="page1"
       width="508.28"
       height="512.56"
       margin="0"
       bleed="0" />
  </sodipodi:namedview>
  <g
     id="g1"
     inkscape:groupmode="layer"
     inkscape:label="1">
    <path
       id="path1"
       d="m 0,0 c 0,-125.08 -101.43,-226.48 -226.56,-226.48 -125.13,0 -226.56,101.4 -226.56,226.48 0,125.08 101.43,226.48 226.56,226.48 C -101.43,226.48 0,125.08 0,0 Z"
       style="fill:none;stroke:#000000;stroke-width:26.4;stroke-linecap:round;stroke-linejoin:round;stroke-miterlimit:10;stroke-dasharray:none;stroke-opacity:1"
       transform="translate(479.92,259.43995)"
       clip-path="url(#clipPath2)" />
    <path
       id="path3"
       d="M 329.92001,480.16 405.44,631.20001"
       style="fill:none;stroke:#000000;stroke-width:26.4;stroke-linecap:round;stroke-linejoin:round;stroke-miterlimit:10;stroke-dasharray:none;stroke-opacity:1"
       transform="translate(-152.08,-296.32006)"
       clip-path="url(#clipPath4)" />
    <path
       id="path5"
       d="M 480.95999,480.16 405.44,631.20001"
       style="fill:none;stroke:#000000;stroke-width:26.4;stroke-linecap:round;stroke-linejoin:round;stroke-miterlimit:10;stroke-dasharray:none;stroke-opacity:1"
       transform="translate(-152.08,-296.32006)"
       clip-path="url(#clipPath6)" />
    <path
       id="path7"
       d="m 0,0 -0.16,-1.6 -0.32,-1.76 -0.48,-1.6 -0.8,-1.6 -0.96,-1.44 -1.12,-1.28 -1.28,-1.12 -1.44,-0.96 -1.6,-0.8 -1.6,-0.48 -1.76,-0.32 -1.76,-0.16 -1.6,0.16 -1.759999,0.32 -1.600001,0.48 -1.6,0.8 -1.440001,0.96 -1.279998,1.12 L -23.68,-8 l -0.959999,1.44 -0.800002,1.6 -0.479999,1.6 -0.48,1.76 V 0 1.76 l 0.48,1.76 0.479999,1.6 0.800002,1.6 0.959999,1.44 1.120001,1.28 1.279998,1.12 1.440001,0.96 1.6,0.8 1.600001,0.48 1.759999,0.32 1.6,0.16 1.76,-0.16 1.76,-0.32 1.6,-0.48 1.6,-0.8 1.44,-0.96 1.28,-1.12 1.12,-1.28 0.96,-1.44 0.8,-1.6 0.48,-1.6 L -0.16,1.76 0,0 v 0 z"
       style="fill:#000000;fill-opacity:1;fill-rule:evenodd;stroke:none"
       transform="translate(191.12001,278.23994)"
       clip-path="url(#clipPath8)" />
    <path
       id="path9"
       d="m 0,0 -0.16,-1.6 -0.32,-1.76 -0.48,-1.6 -0.8,-1.6 -0.96,-1.44 -1.12,-1.28 -1.28,-1.12 -1.44,-0.96 -1.6,-0.8 -1.6,-0.48 -1.76,-0.32 -1.76,-0.16 -1.6,0.16 -1.759999,0.32 -1.600001,0.48 -1.6,0.8 -1.440001,0.96 -1.279998,1.12 L -23.68,-8 l -0.959999,1.44 -0.800002,1.6 -0.479999,1.6 -0.48,1.76 V 0 1.76 l 0.48,1.76 0.479999,1.6 0.800002,1.6 0.959999,1.44 1.120001,1.28 1.279998,1.12 1.440001,0.96 1.6,0.8 1.600001,0.48 1.759999,0.32 1.6,0.16 1.76,-0.16 1.76,-0.32 1.6,-0.48 1.6,-0.8 1.44,-0.96 1.28,-1.12 1.12,-1.28 0.96,-1.44 0.8,-1.6 0.48,-1.6 L -0.16,1.76 0,0 v 0 z"
       style="fill:#000000;fill-opacity:1;fill-rule:evenodd;stroke:none"
       transform="translate(342.15999,278.23994)"
       clip-path="url(#clipPath10)" />
    <path
       id="path11"
       d="m 0,0 -0.16,-1.6 -0.32,-1.76 -0.48,-1.6 -0.8,-1.6 -0.96,-1.44 -1.12,-1.28 -1.28,-1.12 -1.44,-0.96 -1.6,-0.8 -1.6,-0.48 -1.76,-0.32 -1.76,-0.16 -1.6,0.16 -1.759999,0.32 -1.600001,0.48 -1.6,0.8 -1.440001,0.96 -1.279998,1.12 L -23.68,-8 l -0.959999,1.44 -0.800002,1.6 -0.479999,1.6 -0.48,1.76 V 0 1.76 l 0.48,1.76 0.479999,1.6 0.800002,1.6 0.959999,1.44 1.120001,1.28 1.279998,1.12 1.440001,0.96 1.6,0.8 1.600001,0.48 1.759999,0.32 1.6,0.16 1.76,-0.16 1.76,-0.32 1.6,-0.48 1.6,-0.8 1.44,-0.96 1.28,-1.12 1.12,-1.28 0.96,-1.44 0.8,-1.6 0.48,-1.6 L -0.16,1.76 0,0 v 0 z"
       style="fill:#000000;fill-opacity:1;fill-rule:evenodd;stroke:none"
       transform="translate(266.64,183.83995)"
       clip-path="url(#clipPath12)" />
    <path
       id="path13"
       d="m 0,0 -0.16,-1.6 -0.32,-1.76 -0.48,-1.6 -0.8,-1.6 -0.96,-1.44 -1.12,-1.28 -1.28,-1.12 -1.44,-0.96 -1.6,-0.8 -1.6,-0.48 -1.76,-0.32 -1.76,-0.16 -1.6,0.16 -1.759999,0.32 -1.600001,0.48 -1.6,0.8 -1.440001,0.96 -1.279998,1.12 L -23.68,-8 l -0.959999,1.44 -0.800002,1.6 -0.479999,1.6 -0.48,1.76 V 0 1.76 l 0.48,1.76 0.479999,1.6 0.800002,1.6 0.959999,1.44 1.120001,1.28 1.279998,1.12 1.440001,0.96 1.6,0.8 1.600001,0.48 1.759999,0.32 1.6,0.16 1.76,-0.16 1.76,-0.32 1.6,-0.48 1.6,-0.8 1.44,-0.96 1.28,-1.12 1.12,-1.28 0.96,-1.44 0.8,-1.6 0.48,-1.6 L -0.16,1.76 0,0"
       style="fill:none;stroke:#000000;stroke-width:0.64;stroke-linecap:round;stroke-linejoin:round;stroke-miterlimit:10;stroke-dasharray:none;stroke-opacity:1"
       transform="translate(191.12001,278.23994)"
       clip-path="url(#clipPath14)" />
    <path
       id="path15"
       d="m 0,0 -0.16,-1.6 -0.32,-1.76 -0.48,-1.6 -0.8,-1.6 -0.96,-1.44 -1.12,-1.28 -1.28,-1.12 -1.44,-0.96 -1.6,-0.8 -1.6,-0.48 -1.76,-0.32 -1.76,-0.16 -1.6,0.16 -1.759999,0.32 -1.600001,0.48 -1.6,0.8 -1.440001,0.96 -1.279998,1.12 L -23.68,-8 l -0.959999,1.44 -0.800002,1.6 -0.479999,1.6 -0.48,1.76 V 0 1.76 l 0.48,1.76 0.479999,1.6 0.800002,1.6 0.959999,1.44 1.120001,1.28 1.279998,1.12 1.440001,0.96 1.6,0.8 1.600001,0.48 1.759999,0.32 1.6,0.16 1.76,-0.16 1.76,-0.32 1.6,-0.48 1.6,-0.8 1.44,-0.96 1.28,-1.12 1.12,-1.28 0.96,-1.44 0.8,-1.6 0.48,-1.6 L -0.16,1.76 0,0"
       style="fill:none;stroke:#000000;stroke-width:0.64;stroke-linecap:round;stroke-linejoin:round;stroke-miterlimit:10;stroke-dasharray:none;stroke-opacity:1"
       transform="translate(342.15999,278.23994)"
       clip-path="url(#clipPath16)" />
    <path
       id="path17"
       d="m 0,0 -0.16,-1.6 -0.32,-1.76 -0.48,-1.6 -0.8,-1.6 -0.96,-1.44 -1.12,-1.28 -1.28,-1.12 -1.44,-0.96 -1.6,-0.8 -1.6,-0.48 -1.76,-0.32 -1.76,-0.16 -1.6,0.16 -1.759999,0.32 -1.600001,0.48 -1.6,0.8 -1.440001,0.96 -1.279998,1.12 L -23.68,-8 l -0.959999,1.44 -0.800002,1.6 -0.479999,1.6 -0.48,1.76 V 0 1.76 l 0.48,1.76 0.479999,1.6 0.800002,1.6 0.959999,1.44 1.120001,1.28 1.279998,1.12 1.440001,0.96 1.6,0.8 1.600001,0.48 1.759999,0.32 1.6,0.16 1.76,-0.16 1.76,-0.32 1.6,-0.48 1.6,-0.8 1.44,-0.96 1.28,-1.12 1.12,-1.28 0.96,-1.44 0.8,-1.6 0.48,-1.6 L -0.16,1.76 0,0"
       style="fill:none;stroke:#000000;stroke-width:0.64;stroke-linecap:round;stroke-linejoin:round;stroke-miterlimit:10;stroke-dasharray:none;stroke-opacity:1"
       transform="translate(266.64,183.83995)"
       clip-path="url(#clipPath18)" />
  </g>
</svg>
