<?xml version="1.0" encoding="UTF-8" standalone="no"?>
<!-- Created with Inkscape (http://www.inkscape.org/) -->

<svg
   version="1.1"
   id="svg1"
   width="429.56"
   height="483.20001"
   viewBox="0 0 429.56 483.20001"
   sodipodi:docname="WhiteWine10.pdf"
   xmlns:inkscape="http://www.inkscape.org/namespaces/inkscape"
   xmlns:sodipodi="http://sodipodi.sourceforge.net/DTD/sodipodi-0.dtd"
   xmlns="http://www.w3.org/2000/svg"
   xmlns:svg="http://www.w3.org/2000/svg">
  <defs
     id="defs1">
    <clipPath
       clipPathUnits="userSpaceOnUse"
       id="clipPath2">
      <path
         d="M 0,0.16 V 1122.5601 H 793.59998 V 0.16 Z"
         transform="translate(-556.47998,-414.16001)"
         clip-rule="evenodd"
         id="path2" />
    </clipPath>
    <clipPath
       clipPathUnits="userSpaceOnUse"
       id="clipPath4">
      <path
         d="M 0,0.16 V 1122.5601 H 793.59998 V 0.16 Z"
         clip-rule="evenodd"
         id="path4" />
    </clipPath>
    <clipPath
       clipPathUnits="userSpaceOnUse"
       id="clipPath6">
      <path
         d="M 0,0.16 V 1122.5601 H 793.59998 V 0.16 Z"
         clip-rule="evenodd"
         id="path6" />
    </clipPath>
    <clipPath
       clipPathUnits="userSpaceOnUse"
       id="clipPath8">
      <path
         d="M 0,0.16 V 1122.5601 H 793.59998 V 0.16 Z"
         transform="translate(-255.36,-624.64002)"
         clip-rule="evenodd"
         id="path8" />
    </clipPath>
    <clipPath
       clipPathUnits="userSpaceOnUse"
       id="clipPath10">
      <path
         d="M 0,0.16 V 1122.5601 H 793.59998 V 0.16 Z"
         transform="translate(-480.95999,-716.15997)"
         clip-rule="evenodd"
         id="path10" />
    </clipPath>
  </defs>
  <sodipodi:namedview
     id="namedview1"
     pagecolor="#505050"
     bordercolor="#eeeeee"
     borderopacity="1"
     inkscape:showpageshadow="0"
     inkscape:pageopacity="0"
     inkscape:pagecheckerboard="0"
     inkscape:deskcolor="#505050">
    <inkscape:page
       x="0"
       y="0"
       inkscape:label="1"
       id="page1"
       width="429.56"
       height="483.20001"
       margin="0"
       bleed="0" />
  </sodipodi:namedview>
  <g
     id="g1"
     inkscape:groupmode="layer"
     inkscape:label="1">
    <path
       id="path1"
       d="m 0,0 c 0,-41.66 -67.620003,-75.440002 -151.03999,-75.440002 -83.42002,0 -151.04,33.780002 -151.04,75.440002 0,41.66 67.61998,75.440002 151.04,75.440002 C -67.620003,75.440002 0,41.66 0,0 Z"
       style="fill:none;stroke:#000000;stroke-width:26.4;stroke-linecap:round;stroke-linejoin:round;stroke-miterlimit:10;stroke-dasharray:none;stroke-opacity:1"
       transform="translate(556.47998,418.15995)"
       clip-path="url(#clipPath2)" />
    <path
       id="path3"
       d="M 329.92001,489.60001 V 678.40002"
       style="fill:none;stroke:#000000;stroke-width:26.4;stroke-linecap:round;stroke-linejoin:round;stroke-miterlimit:10;stroke-dasharray:none;stroke-opacity:1"
       transform="translate(0,3.9999413)"
       clip-path="url(#clipPath4)" />
    <path
       id="path5"
       d="M 480.95999,489.60001 V 716.15997"
       style="fill:none;stroke:#000000;stroke-width:26.4;stroke-linecap:round;stroke-linejoin:round;stroke-miterlimit:10;stroke-dasharray:none;stroke-opacity:1"
       transform="translate(0,3.9999413)"
       clip-path="url(#clipPath6)" />
    <path
       id="path7"
       d="M 0,0 -4,1.6 -8.16,3.52 -12,5.76 -15.68,8.16 -19.040001,11.04 -22.4,14.08 -25.280001,17.280001 -28,20.799999 -30.559999,24.48 l -2.08,4 -1.760003,4 L -36,36.639999 l -1.119999,4.32 -0.960003,4.32 -0.479999,4.479999 -0.16,4.320004 0.319999,4.479999 0.480004,4.48 0.959999,4.32 1.119999,4.159996 1.599998,4.160003 1.920002,4.159996 2.08,3.840004 2.56,3.680001 2.720001,3.36 3.039999,3.360001 3.360001,2.879997 3.359999,2.879997 3.84,2.400004 3.84,2.08 4,1.92 4.16,1.44 4.32,1.28 4.32,0.8 4.48,0.48 4.32,0.16 4.479999,-0.16 4.480002,-0.48 4.32,-0.96 4.319999,-1.12 4.16,-1.6 4,-1.92 3.84,-2.08 3.680001,-2.560003 3.52,-2.719994 3.200001,-3.040001 3.039997,-3.200004 2.720001,-3.519997 2.399998,-3.68 2.240005,-3.840004 1.919999,-4 1.439994,-4.159996 1.280007,-4.32 0.799995,-4.32 0.480004,-4.479999 0.159996,-4.480004"
       style="fill:none;stroke:#000000;stroke-width:26.4;stroke-linecap:round;stroke-linejoin:round;stroke-miterlimit:10;stroke-dasharray:none;stroke-opacity:1"
       transform="translate(255.36,628.63996)"
       clip-path="url(#clipPath8)" />
    <path
       id="path9"
       d="m 0,0 0.16,4.48 0.64,4.48 0.8,4.32 1.28,4.32 1.44,4.16 1.92,4 2.08,3.84 2.56,3.679999 2.72,3.52 3.039999,3.360001 3.200001,3.040001 3.520001,2.719997 3.68,2.400002 4,2.240001 4,1.759999 4.16,1.599998 L 43.52,55.200001 47.84,56 l 4.48,0.48 4.319999,0.159999 4.48,-0.159999 4.479999,-0.48 4.32,-0.799999 4.32,-1.280003 4.160004,-1.599998 4,-1.759999 3.839996,-2.240001 3.68,-2.400002 3.520004,-2.719997 L 96.800003,40.16 99.68,36.799999 l 2.88,-3.52 2.4,-3.679999 2.24,-3.84 1.76,-4 1.6,-4.16 1.12,-4.32 0.96,-4.32 0.48,-4.48 0.16,-4.48 -0.16,-4.32 -0.48,-4.48 -0.96,-4.32 -1.12,-4.320001 -1.6,-4.159999 -1.76,-4 -2.24,-4 -2.4,-3.679999 -2.88,-3.52 L 96.800003,-40 l -3.360001,-3.040001 -3.520004,-2.719997 -3.68,-2.400002 -3.839996,-2.240002 -4,-1.919998 -4.160004,-1.439998 -4.32,-1.280003 -4.32,-0.799999 -4.479999,-0.64 -4.48,-0.159999"
       style="fill:none;stroke:#000000;stroke-width:26.4;stroke-linecap:round;stroke-linejoin:round;stroke-miterlimit:10;stroke-dasharray:none;stroke-opacity:1"
       transform="translate(480.95999,720.15991)"
       clip-path="url(#clipPath10)" />
  </g>
</svg>
