<?xml version="1.0" encoding="UTF-8" standalone="no"?>
<!-- Created with Inkscape (http://www.inkscape.org/) -->

<svg
   version="1.1"
   id="svg1"
   width="430.89334"
   height="472.50668"
   viewBox="0 0 430.89334 472.50668"
   sodipodi:docname="WhiteWine4.pdf"
   xmlns:inkscape="http://www.inkscape.org/namespaces/inkscape"
   xmlns:sodipodi="http://sodipodi.sourceforge.net/DTD/sodipodi-0.dtd"
   xmlns="http://www.w3.org/2000/svg"
   xmlns:svg="http://www.w3.org/2000/svg">
  <defs
     id="defs1">
    <clipPath
       clipPathUnits="userSpaceOnUse"
       id="clipPath2">
      <path
         d="M 0,0.16 V 1122.5601 H 793.59998 V 0.16 Z"
         transform="translate(-412,-536.96002)"
         clip-rule="evenodd"
         id="path2" />
    </clipPath>
    <clipPath
       clipPathUnits="userSpaceOnUse"
       id="clipPath4">
      <path
         d="M 0,0.16 V 1122.5601 H 793.59998 V 0.16 Z"
         transform="translate(-217.44,-468)"
         clip-rule="evenodd"
         id="path4" />
    </clipPath>
    <clipPath
       clipPathUnits="userSpaceOnUse"
       id="clipPath6">
      <path
         d="M 0,0.16 V 1122.5601 H 793.59998 V 0.16 Z"
         transform="translate(3.3333333e-6)"
         clip-rule="evenodd"
         id="path6" />
    </clipPath>
    <clipPath
       clipPathUnits="userSpaceOnUse"
       id="clipPath8">
      <path
         d="M 0,0.16 V 1122.5601 H 793.59998 V 0.16 Z"
         transform="translate(-439.51999,-766.88001)"
         clip-rule="evenodd"
         id="path8" />
    </clipPath>
    <clipPath
       clipPathUnits="userSpaceOnUse"
       id="clipPath10">
      <path
         d="M 0,0.16 V 1122.5601 H 793.59998 V 0.16 Z"
         transform="translate(-594.08002,-540.32001)"
         clip-rule="evenodd"
         id="path10" />
    </clipPath>
    <clipPath
       clipPathUnits="userSpaceOnUse"
       id="clipPath12">
      <path
         d="M 0,0.16 V 1122.5601 H 793.59998 V 0.16 Z"
         transform="translate(3.3333333e-6)"
         clip-rule="evenodd"
         id="path12" />
    </clipPath>
  </defs>
  <sodipodi:namedview
     id="namedview1"
     pagecolor="#505050"
     bordercolor="#eeeeee"
     borderopacity="1"
     inkscape:showpageshadow="0"
     inkscape:pageopacity="0"
     inkscape:pagecheckerboard="0"
     inkscape:deskcolor="#505050">
    <inkscape:page
       x="0"
       y="0"
       inkscape:label="1"
       id="page1"
       width="430.89334"
       height="472.50668"
       margin="0"
       bleed="0" />
  </sodipodi:namedview>
  <g
     id="g1"
     inkscape:groupmode="layer"
     inkscape:label="1">
    <path
       id="path1"
       d="m 0,0 4.64,-5.28 4.16,-5.6 3.84,-5.759999 3.52,-6.24 3.040001,-6.240002 L 21.92,-35.68 l 2.24,-6.560002 1.76,-6.719997 1.440001,-6.880001 0.959999,-7.040001 0.479999,-7.039997 v -6.880005 L 28.48,-83.839996 l -0.8,-7.040001 -1.28,-6.880005 -1.600001,-6.719998 -2.24,-6.72 -2.399999,-6.56 -3.039999,-6.4 -3.360001,-6.08 -3.68,-6.08001 -4,-5.59999 -4.48,-5.44 -4.8,-5.12 -5.12,-4.96 -5.28,-4.48 -5.760001,-4.16 -5.92,-3.67999 -6.08,-3.52001 -6.239997,-3.04001 -6.560002,-2.55999 -6.720001,-2.23999 -6.719997,-1.76001 -6.880005,-1.28 -7.039994,-0.95999 -6.880005,-0.32001 -7.04,-0.16001 -7.040001,0.48002 -7.039994,0.95999 -6.880003,1.28 -6.72,1.76001 -6.72,2.08 -6.56,2.55999 -6.24,3.04 -6.24,3.36 -5.92,3.68001 -5.59999,4.15999 -5.44001,4.48001 -5.12001,4.79998 -4.79998,5.12001 -4.48001,5.44001 -4,5.75999 -3.84,5.92 -3.36,6.08 -2.88001,6.4 -2.55999,6.56 -2.23999,6.56 -1.60001,6.880002 -1.28,6.879997 -0.96001,7.040001 -0.31999,6.879998 -0.16,7.04"
       style="fill:none;stroke:#000000;stroke-width:26.4;stroke-linecap:round;stroke-linejoin:round;stroke-miterlimit:10;stroke-dasharray:none;stroke-opacity:1"
       transform="translate(219.89333,212.59996)"
       clip-path="url(#clipPath2)" />
    <path
       id="path3"
       d="m 0,0 0.32,3.52 0.64,3.36 0.8,3.2 1.28,3.2 1.44,3.04 1.6,2.880001 2.08,2.719999 2.24,2.56 2.4,2.239999 2.56,2.24 2.88,1.76 3.040001,1.600001 3.039999,1.279998 3.2,0.960003 3.359999,0.64 3.360003,0.479999 h 3.359996 L 40.959999,35.52 44.32,35.040001 47.52,34.080002 50.720001,32.959999 53.759998,31.52 56.639999,29.92 59.360001,27.84 61.919998,25.76 64.32,23.200001 66.400002,20.639999 68.32,17.76 l 1.599998,-2.88 1.279999,-3.2 0.960007,-3.2 0.799995,-3.36 0.32,-3.2 0.160003,-3.36 -0.319999,-3.52 -0.480004,-3.2 -0.800003,-3.36 -1.119995,-3.2 -1.440002,-3.04 L 67.68,-20.639999 65.760002,-23.360001 63.360001,-26.08"
       style="fill:none;stroke:#000000;stroke-width:26.4;stroke-linecap:round;stroke-linejoin:round;stroke-miterlimit:10;stroke-dasharray:none;stroke-opacity:1"
       transform="translate(25.333335,143.63994)"
       clip-path="url(#clipPath4)" />
    <path
       id="path5"
       d="m 417.92001,530.08002 -161.44,231.20001"
       style="fill:none;stroke:#000000;stroke-width:26.4;stroke-linecap:round;stroke-linejoin:round;stroke-miterlimit:10;stroke-dasharray:none;stroke-opacity:1"
       transform="translate(-192.10667,-324.36006)"
       clip-path="url(#clipPath6)" />
    <path
       id="path7"
       d="m 0,0 -7.2,-4.48 -7.52,-4.16 -7.68,-3.84 -8,-3.36 -8.000002,-3.039999 -8.159999,-2.720001 -8.48,-2.24 -8.32,-1.76 -8.479995,-1.440001 L -80.480003,-28 l -8.64,-0.48 -8.639999,-0.159999 L -106.4,-28.32 l -8.48,0.8 -8.64,1.12 -8.48,1.600001 -8.32001,2.08 -8.31999,2.399999 -8.16,2.879999 -8,3.200001 -7.68,3.68 -7.68,4 -7.51999,4.32"
       style="fill:none;stroke:#000000;stroke-width:26.4;stroke-linecap:round;stroke-linejoin:round;stroke-miterlimit:10;stroke-dasharray:none;stroke-opacity:1"
       transform="translate(247.41332,442.51995)"
       clip-path="url(#clipPath8)" />
    <path
       id="path9"
       d="M 0,0 -11.04,8.32 -21.92,17.120001 -32.32,26.08 -42.560001,35.52 -52.48,45.279999 -61.919998,55.52 l -9.120003,10.399998 -8.799995,10.880005 -8.320008,11.039993 -8,11.360001 L -103.68,110.88 l -7.2,11.84 -6.72,12.16 -6.24,12.48 -5.91999,12.48 -5.44001,12.8 -4.96,12.96001 -4.48,13.27999 -4,13.28 -3.52,13.28"
       style="fill:none;stroke:#000000;stroke-width:26.4;stroke-linecap:round;stroke-linejoin:round;stroke-miterlimit:10;stroke-dasharray:none;stroke-opacity:1"
       transform="translate(401.97335,215.95995)"
       clip-path="url(#clipPath10)" />
    <path
       id="path11"
       d="m 596.47998,538.08002 -61.76001,2.23999"
       style="fill:none;stroke:#000000;stroke-width:26.4;stroke-linecap:round;stroke-linejoin:round;stroke-miterlimit:10;stroke-dasharray:none;stroke-opacity:1"
       transform="translate(-192.10667,-324.36006)"
       clip-path="url(#clipPath12)" />
  </g>
</svg>
