<?xml version="1.0" encoding="UTF-8" standalone="no"?>
<!-- Created with Inkscape (http://www.inkscape.org/) -->

<svg
   version="1.1"
   id="svg1"
   width="589.65332"
   height="436.46667"
   viewBox="0 0 589.65332 436.46667"
   sodipodi:docname="WhiteWine.pdf"
   xmlns:inkscape="http://www.inkscape.org/namespaces/inkscape"
   xmlns:sodipodi="http://sodipodi.sourceforge.net/DTD/sodipodi-0.dtd"
   xmlns="http://www.w3.org/2000/svg"
   xmlns:svg="http://www.w3.org/2000/svg">
  <defs
     id="defs1">
    <clipPath
       clipPathUnits="userSpaceOnUse"
       id="clipPath2">
      <path
         d="M 0,0.16 V 1122.5601 H 793.59998 V 0.16 Z"
         transform="translate(-224.16,-567.03998)"
         clip-rule="evenodd"
         id="path2" />
    </clipPath>
    <clipPath
       clipPathUnits="userSpaceOnUse"
       id="clipPath4">
      <path
         d="M 0,0.16 V 1122.5601 H 793.59998 V 0.16 Z"
         clip-rule="evenodd"
         id="path4" />
    </clipPath>
    <clipPath
       clipPathUnits="userSpaceOnUse"
       id="clipPath6">
      <path
         d="M 0,0.16 V 1122.5601 H 793.59998 V 0.16 Z"
         clip-rule="evenodd"
         id="path6" />
    </clipPath>
    <clipPath
       clipPathUnits="userSpaceOnUse"
       id="clipPath8">
      <path
         d="M 0,0.16 V 1122.5601 H 793.59998 V 0.16 Z"
         transform="translate(-224.16,-453.76001)"
         clip-rule="evenodd"
         id="path8" />
    </clipPath>
    <clipPath
       clipPathUnits="userSpaceOnUse"
       id="clipPath10">
      <path
         d="M 0,0.16 V 1122.5601 H 793.59998 V 0.16 Z"
         transform="translate(-677.28003,-408.48001)"
         clip-rule="evenodd"
         id="path10" />
    </clipPath>
  </defs>
  <sodipodi:namedview
     id="namedview1"
     pagecolor="#505050"
     bordercolor="#eeeeee"
     borderopacity="1"
     inkscape:showpageshadow="0"
     inkscape:pageopacity="0"
     inkscape:pagecheckerboard="0"
     inkscape:deskcolor="#505050">
    <inkscape:page
       x="0"
       y="0"
       inkscape:label="1"
       id="page1"
       width="589.65332"
       height="436.46667"
       margin="0"
       bleed="0" />
  </sodipodi:namedview>
  <g
     id="g1"
     inkscape:groupmode="layer"
     inkscape:label="1">
    <path
       id="path1"
       d="m 0,0 0.32,9.28 0.64,9.12 1.28,9.12 1.6,8.96 2.08,8.959999 2.56,8.800003 2.88,8.799999 3.36,8.479996 3.839999,8.319999 4.32,8.160004 4.640001,7.839996 5.119999,7.680004 5.440003,7.52 5.759998,7.04 6.079998,6.88 6.560002,6.4 6.880001,6.24001 7.040001,5.75999 7.36,5.44 7.68,5.12 8,4.64 8.159998,4.16 8.32,3.84 8.48,3.36 8.64,3.04001 8.8,2.55999 8.96,2.08001 9.12,1.59999 9.11999,1.12001 9.12001,0.79998 9.12,0.16001 9.28,-0.16001 9.11999,-0.79998 L 208.8,179.2 l 8.95999,-1.59999 8.96001,-2.08001 8.8,-2.55999 8.80001,-3.04001 8.47999,-3.36 8.32,-3.84 8.16,-4.16 8,-4.64 7.51999,-5.12 7.52002,-5.44 7.03998,-5.75999 6.88,-6.24001 6.40002,-6.4 6.23999,-6.88 5.76001,-7.04 5.43998,-7.52 5.12002,-7.680004 L 339.84,88 344,79.839996 l 3.84,-8.319999 3.51999,-8.479996 2.88,-8.799999 2.56,-8.800003 L 358.88,36.48 l 1.60001,-8.96 1.12,-9.12 0.79998,-9.12 L 362.56,0"
       style="fill:none;stroke:#000000;stroke-width:26.4;stroke-linecap:round;stroke-linejoin:round;stroke-miterlimit:10;stroke-dasharray:none;stroke-opacity:1"
       transform="translate(224.16,580.38659)"
       clip-path="url(#clipPath2)" />
    <path
       id="path3"
       d="M 224.32001,567.03998 V 453.76001"
       style="fill:none;stroke:#000000;stroke-width:26.4;stroke-linecap:round;stroke-linejoin:round;stroke-miterlimit:10;stroke-dasharray:none;stroke-opacity:1"
       transform="translate(0,13.346608)"
       clip-path="url(#clipPath4)" />
    <path
       id="path5"
       d="M 586.71997,567.03998 V 408.48001"
       style="fill:none;stroke:#000000;stroke-width:26.4;stroke-linecap:round;stroke-linejoin:round;stroke-miterlimit:10;stroke-dasharray:none;stroke-opacity:1"
       transform="translate(0,13.346608)"
       clip-path="url(#clipPath6)" />
    <path
       id="path7"
       d="m 0,0 v -3.84 l -0.64,-4 -0.8,-3.84 -1.12,-3.84 -1.6,-3.520001 -1.76,-3.519998 L -8.16,-25.92 -10.56,-29.120001 -13.12,-32 l -3.04,-2.720001 -3.040001,-2.399998 -3.359998,-2.080002 -3.520001,-1.759998 -3.68,-1.600002 -3.679999,-1.119999 -3.84,-0.959999 -4,-0.48 -4,-0.16 -3.84,0.16 -4,0.48 -3.84,0.959999 -3.68,1.119999 -3.680001,1.600002 -3.519996,1.759998 -3.360001,2.080002 -3.200005,2.399998 -2.879997,2.720001 -2.559997,2.879999 -2.560006,3.200001 -2.080001,3.360001 -1.759995,3.519998 -1.599998,3.520001 -1.120003,3.84 -0.800003,3.84 -0.64,4 -0.159996,3.84"
       style="fill:none;stroke:#000000;stroke-width:26.4;stroke-linecap:round;stroke-linejoin:round;stroke-miterlimit:10;stroke-dasharray:none;stroke-opacity:1"
       transform="translate(224.16,467.10662)"
       clip-path="url(#clipPath8)" />
    <path
       id="path9"
       d="m 0,0 -0.16,-4 -0.48,-3.84 -0.8,-3.84 -1.28,-3.84 -1.44,-3.680001 -1.76,-3.359998 L -8.16,-25.92 -10.56,-29.120001 -13.12,-32 l -3.04,-2.720001 -3.040001,-2.399998 -3.359998,-2.080002 -3.520001,-1.919998 -3.68,-1.440002 -3.679999,-1.119999 -4,-0.959999 -3.84,-0.48 -4,-0.16 -3.84,0.16 -4,0.48 -3.84,0.959999 -3.84,1.119999 -3.520001,1.440002 -3.519996,1.919998 -3.360001,2.080002 -3.200005,2.399998 L -77.279999,-32 -80,-29.120001 -82.400002,-25.92 l -2.080001,3.360001 -1.759995,3.359998 -1.599998,3.680001 -1.120003,3.84 -0.959999,3.84 -0.480004,3.84 -0.159996,4"
       style="fill:none;stroke:#000000;stroke-width:26.4;stroke-linecap:round;stroke-linejoin:round;stroke-miterlimit:10;stroke-dasharray:none;stroke-opacity:1"
       transform="translate(677.28003,421.82662)"
       clip-path="url(#clipPath10)" />
  </g>
</svg>
