<?xml version="1.0" encoding="UTF-8" standalone="no"?>
<!-- Created with Inkscape (http://www.inkscape.org/) -->

<svg
   version="1.1"
   id="svg1"
   width="659.01331"
   height="615.33331"
   viewBox="0 0 659.01331 615.33331"
   sodipodi:docname="Wine.pdf"
   xmlns:inkscape="http://www.inkscape.org/namespaces/inkscape"
   xmlns:sodipodi="http://sodipodi.sourceforge.net/DTD/sodipodi-0.dtd"
   xmlns="http://www.w3.org/2000/svg"
   xmlns:svg="http://www.w3.org/2000/svg">
  <defs
     id="defs1">
    <clipPath
       clipPathUnits="userSpaceOnUse"
       id="clipPath2">
      <path
         d="M 0,0.16 V 1122.5601 H 793.59998 V 0.16 Z"
         clip-rule="evenodd"
         id="path2" />
    </clipPath>
    <clipPath
       clipPathUnits="userSpaceOnUse"
       id="clipPath4">
      <path
         d="M 0,0.16 V 1122.5601 H 793.59998 V 0.16 Z"
         clip-rule="evenodd"
         id="path4" />
    </clipPath>
    <clipPath
       clipPathUnits="userSpaceOnUse"
       id="clipPath6">
      <path
         d="M 0,0.16 V 1122.5601 H 793.59998 V 0.16 Z"
         clip-rule="evenodd"
         id="path6" />
    </clipPath>
    <clipPath
       clipPathUnits="userSpaceOnUse"
       id="clipPath8">
      <path
         d="M 0,0.16 V 1122.5601 H 793.59998 V 0.16 Z"
         clip-rule="evenodd"
         id="path8" />
    </clipPath>
    <clipPath
       clipPathUnits="userSpaceOnUse"
       id="clipPath10">
      <path
         d="M 0,0.16 V 1122.5601 H 793.59998 V 0.16 Z"
         transform="translate(-716,-414.07999)"
         clip-rule="evenodd"
         id="path10" />
    </clipPath>
    <clipPath
       clipPathUnits="userSpaceOnUse"
       id="clipPath12">
      <path
         d="M 0,0.16 V 1122.5601 H 793.59998 V 0.16 Z"
         transform="translate(-716,-414.07999)"
         clip-rule="evenodd"
         id="path12" />
    </clipPath>
  </defs>
  <sodipodi:namedview
     id="namedview1"
     pagecolor="#505050"
     bordercolor="#eeeeee"
     borderopacity="1"
     inkscape:showpageshadow="0"
     inkscape:pageopacity="0"
     inkscape:pagecheckerboard="0"
     inkscape:deskcolor="#505050">
    <inkscape:page
       x="0"
       y="0"
       inkscape:label="1"
       id="page1"
       width="659.01331"
       height="615.33331"
       margin="0"
       bleed="0" />
  </sodipodi:namedview>
  <g
     id="g1"
     inkscape:groupmode="layer"
     inkscape:label="1">
    <path
       id="path1"
       d="M 236.48,272.64001 V 838.88"
       style="fill:none;stroke:#000000;stroke-width:26.4;stroke-linecap:round;stroke-linejoin:round;stroke-miterlimit:10;stroke-dasharray:none;stroke-opacity:1"
       transform="translate(0,26.693275)"
       clip-path="url(#clipPath2)" />
    <path
       id="path3"
       d="M 519.67999,838.88 V 272.64001"
       style="fill:none;stroke:#000000;stroke-width:26.4;stroke-linecap:round;stroke-linejoin:round;stroke-miterlimit:10;stroke-dasharray:none;stroke-opacity:1"
       transform="translate(0,26.693275)"
       clip-path="url(#clipPath4)" />
    <path
       id="path5"
       d="M 94.879997,414.07999 H 661.28003"
       style="fill:none;stroke:#000000;stroke-width:26.4;stroke-linecap:round;stroke-linejoin:round;stroke-miterlimit:10;stroke-dasharray:none;stroke-opacity:1"
       transform="translate(0,26.693275)"
       clip-path="url(#clipPath6)" />
    <path
       id="path7"
       d="M 94.879997,697.28003 H 661.28003"
       style="fill:none;stroke:#000000;stroke-width:26.4;stroke-linecap:round;stroke-linejoin:round;stroke-miterlimit:10;stroke-dasharray:none;stroke-opacity:1"
       transform="translate(0,26.693275)"
       clip-path="url(#clipPath8)" />
    <path
       id="path9"
       d="m 0,0 -0.16,-2.72 -0.32,-2.72 -0.8,-2.72 -0.96,-2.56 -1.28,-2.4 -1.44,-2.4 -1.76,-2.08 -1.92,-1.92 -2.24,-1.760001 -2.24,-1.599998 L -15.68,-24 -18.24,-25.120001 -20.959999,-25.76 -23.68,-26.24 l -2.72,-0.16 -2.720001,0.16 -2.719999,0.48 -2.720001,0.639999 L -37.119999,-24 -39.52,-22.879999 -41.919998,-21.280001 -44,-19.52 l -2.080002,1.92 -1.759998,2.08 -1.439999,2.4 -1.280002,2.4 -0.959999,2.56 -0.64,2.72 -0.479999,2.72 -0.16,2.72 0.16,2.88 0.479999,2.72 0.64,2.72 0.959999,2.56 1.280002,2.4 1.439999,2.4 1.759998,2.08 2.080002,1.92 2.080002,1.760001 2.399998,1.6 2.400001,1.119999 2.559998,1.120001 L -31.84,25.92 -29.120001,26.4 -26.4,26.559999 -23.68,26.4 -20.959999,25.92 -18.24,25.280001 -15.68,24.16 l 2.56,-1.119999 2.24,-1.6 2.24,-1.760001 1.92,-1.92 1.76,-2.08 1.44,-2.4 1.28,-2.4 L -1.28,8.32 -0.48,5.6 -0.16,2.88 0,0 v 0 z"
       style="fill:#000000;fill-opacity:1;fill-rule:evenodd;stroke:none"
       transform="translate(716,440.77326)"
       clip-path="url(#clipPath10)" />
    <path
       id="path11"
       d="m 0,0 -0.16,-2.72 -0.32,-2.72 -0.8,-2.72 -0.96,-2.56 -1.28,-2.4 -1.44,-2.4 -1.76,-2.08 -1.92,-1.92 -2.24,-1.760001 -2.24,-1.599998 L -15.68,-24 -18.24,-25.120001 -20.959999,-25.76 -23.68,-26.24 l -2.72,-0.16 -2.720001,0.16 -2.719999,0.48 -2.720001,0.639999 L -37.119999,-24 -39.52,-22.879999 -41.919998,-21.280001 -44,-19.52 l -2.080002,1.92 -1.759998,2.08 -1.439999,2.4 -1.280002,2.4 -0.959999,2.56 -0.64,2.72 -0.479999,2.72 -0.16,2.72 0.16,2.88 0.479999,2.72 0.64,2.72 0.959999,2.56 1.280002,2.4 1.439999,2.4 1.759998,2.08 2.080002,1.92 2.080002,1.760001 2.399998,1.6 2.400001,1.119999 2.559998,1.120001 L -31.84,25.92 -29.120001,26.4 -26.4,26.559999 -23.68,26.4 -20.959999,25.92 -18.24,25.280001 -15.68,24.16 l 2.56,-1.119999 2.24,-1.6 2.24,-1.760001 1.92,-1.92 1.76,-2.08 1.44,-2.4 1.28,-2.4 L -1.28,8.32 -0.48,5.6 -0.16,2.88 0,0"
       style="fill:none;stroke:#000000;stroke-width:0.64;stroke-linecap:round;stroke-linejoin:round;stroke-miterlimit:10;stroke-dasharray:none;stroke-opacity:1"
       transform="translate(716,440.77326)"
       clip-path="url(#clipPath12)" />
  </g>
</svg>
