<?xml version="1.0" encoding="UTF-8" standalone="no"?>
<!-- Created with Inkscape (http://www.inkscape.org/) -->

<svg
   version="1.1"
   id="svg1"
   width="376.20001"
   height="297.66666"
   viewBox="0 0 376.20001 297.66666"
   sodipodi:docname="Autumn5.pdf"
   xmlns:inkscape="http://www.inkscape.org/namespaces/inkscape"
   xmlns:sodipodi="http://sodipodi.sourceforge.net/DTD/sodipodi-0.dtd"
   xmlns="http://www.w3.org/2000/svg"
   xmlns:svg="http://www.w3.org/2000/svg">
  <defs
     id="defs1">
    <clipPath
       clipPathUnits="userSpaceOnUse"
       id="clipPath2">
      <path
         d="M 0,0.16 V 1122.5601 H 793.59998 V 0.16 Z"
         transform="translate(3.3333333e-6)"
         clip-rule="evenodd"
         id="path2" />
    </clipPath>
    <clipPath
       clipPathUnits="userSpaceOnUse"
       id="clipPath4">
      <path
         d="M 0,0.16 V 1122.5601 H 793.59998 V 0.16 Z"
         transform="translate(-238.24,-474.72)"
         clip-rule="evenodd"
         id="path4" />
    </clipPath>
    <clipPath
       clipPathUnits="userSpaceOnUse"
       id="clipPath6">
      <path
         d="M 0,0.16 V 1122.5601 H 793.59998 V 0.16 Z"
         transform="translate(-412,-515.03998)"
         clip-rule="evenodd"
         id="path6" />
    </clipPath>
    <clipPath
       clipPathUnits="userSpaceOnUse"
       id="clipPath8">
      <path
         d="M 0,0.16 V 1122.5601 H 793.59998 V 0.16 Z"
         transform="translate(3.3333333e-6)"
         clip-rule="evenodd"
         id="path8" />
    </clipPath>
  </defs>
  <sodipodi:namedview
     id="namedview1"
     pagecolor="#505050"
     bordercolor="#eeeeee"
     borderopacity="1"
     inkscape:showpageshadow="0"
     inkscape:pageopacity="0"
     inkscape:pagecheckerboard="0"
     inkscape:deskcolor="#505050">
    <inkscape:page
       x="0"
       y="0"
       inkscape:label="1"
       id="page1"
       width="376.20001"
       height="297.66666"
       margin="0"
       bleed="0" />
  </sodipodi:namedview>
  <g
     id="g1"
     inkscape:groupmode="layer"
     inkscape:label="1">
    <path
       id="path1"
       d="M 528.96002,697.28003 V 576.47998"
       style="fill:none;stroke:#000000;stroke-width:26.4;stroke-linecap:round;stroke-linejoin:round;stroke-miterlimit:10;stroke-dasharray:none;stroke-opacity:1"
       transform="translate(-214.78667,-419.12006)"
       clip-path="url(#clipPath2)" />
    <path
       id="path3"
       d="m 0,0 2.24,-2.24 3.52,-3.52 3.36,-3.2 3.04,-3.2 3.04,-2.88 3.04,-2.88 2.880001,-2.56 L 24.16,-22.879999 27.200001,-25.280001 30.4,-27.52 30.559999,-27.68 31.84,-28.32 35.360001,-30.24 39.68,-32.16 44,-33.599998 l 4.799999,-0.960003 4.959999,-0.8 L 56.16,-35.52 h 1.279999 l 4.319999,-0.16 5.600003,0.319999 5.440002,0.8 5.119995,1.280002 4.64,1.599999 1.279998,0.479999 1.280007,0.480002 3.519996,1.92 3.840004,2.559999 3.839997,2.879999 4,3.680001 4.16,4.32 1.12,0.96 0.96,1.12 2.88,3.2 5.12,6.4 3.84,5.76 2.88,5.12 0.96,2.08 0.48,1.28 1.44,4 1.28,4.800001 0.96,4.959999 0.48,4.960001 v 4.960001 l -0.16,2.239998 -0.16,1.279998 -0.48,3.84 -1.12,4.480004 -1.44,4.16 -1.76,4.16 -2.24,3.84 -2.4,4 -0.8,0.959999 -1.12,1.600002 -2.88,4 -3.36,4.32 -3.84,4.799995 -4.64,5.120003 -5.439999,5.760002 -6.080002,6.079994 L 84.32,99.040001 82.239998,100.8 l -6.079994,5.28 -8,6.24 -8.640004,6.08 -8.799999,5.92 -8.639999,5.28001 -0.640003,0.31999 -2.079998,1.28 -6.400002,3.52 -6.4,3.52 -5.279998,2.72001 -4.16,2.07998 L 13.76,144.8 l -2.72,1.44 -2.08,1.12 -0.8,0.48 -0.64,0.48001 -1.12,0.79998 -0.64,0.64 -0.48,0.48001 0.16,0.32 0.32,0.32 0.96,0.15999 L 8,151.2 h 1.76 0.96 0.8 2.56 3.200001 3.359998 L 24.16,151.03999 h 3.84 4 4.48 1.439998 2.400002 4.639999 4.48 4.479999 4.640003 4.8 4.959999 5.120002 5.599999 5.760002 5.919998 6.400002 6.559997 6.88 7.36 7.52 7.84 8 8.47999 1.28"
       style="fill:none;stroke:#000000;stroke-width:26.4;stroke-linecap:round;stroke-linejoin:round;stroke-miterlimit:10;stroke-dasharray:none;stroke-opacity:1"
       transform="translate(23.453338,55.599942)"
       clip-path="url(#clipPath4)" />
    <path
       id="path5"
       d="m 0,0 1.76,-1.76 3.04,-3.04 2.88,-2.88 2.88,-2.72 2.72,-2.56 2.56,-2.4 2.56,-2.24 2.720001,-2.24 L 24,-21.76 24.48,-22.08 25.440001,-22.559999 28.32,-24.16 l 3.68,-1.6 4,-1.280001 4.32,-0.799999 4.479999,-0.48 1.119999,-0.16 h 3.360001 l 4.960003,0.32 4.959999,0.799999 L 63.68,-26.24 67.040001,-24.959999 68,-24.48 l 2.879997,1.600001 3.360001,2.08 3.36,2.719999 3.680001,3.36 3.040001,3.36 0.800003,0.8 L 87.519997,-8 92,-2.24 l 3.360001,5.12 2.239997,4.48 0.480004,1.12 1.119995,3.2 1.120003,4.32 0.8,4.32 0.32,4.479999 -0.16,4.320002 V 30.24 l -0.48,3.039999 -0.960004,4 -1.439994,3.84 -1.760003,3.68 L 94.559998,48.32 92.959999,50.560001 92.160004,51.84 89.599998,55.52 86.400002,59.360001 82.720001,63.68 l -4.319999,4.800003 -5.120003,5.279999 -5.919998,5.599999 -1.599999,1.279998 -4.960003,4.32 -7.200001,5.440003 -7.68,5.439994 -7.839996,5.120004 -4.960003,3.04 -1.759998,0.96 -5.120001,2.88 -5.76,3.04 -4.48,2.4 -3.52,1.76 -2.72,1.44 -2.08,1.12 -1.12,0.8 -0.64,0.32 -0.96,0.64 -0.64,0.48 -0.16,0.48 0.16,0.32 0.64,0.16 0.96,0.16 H 7.36 8.48 9.12 11.2 14.08 17.120001 20.48 24 27.84 l 2.4,-0.16 h 1.92 4.16 4.16 4 4.319999 4.32 4.639999 4.960003 5.119995 5.440003 5.760002 6.080002 6.239998 6.720001 6.879998 7.2 7.68 0.96"
       style="fill:none;stroke:#000000;stroke-width:26.4;stroke-linecap:round;stroke-linejoin:round;stroke-miterlimit:10;stroke-dasharray:none;stroke-opacity:1"
       transform="translate(197.21333,95.919919)"
       clip-path="url(#clipPath6)" />
    <path
       id="path7"
       d="m 528.96002,636.79999 h 37.75995"
       style="fill:none;stroke:#000000;stroke-width:26.4;stroke-linecap:round;stroke-linejoin:round;stroke-miterlimit:10;stroke-dasharray:none;stroke-opacity:1"
       transform="translate(-214.78667,-419.12006)"
       clip-path="url(#clipPath8)" />
  </g>
</svg>
