<?xml version="1.0" encoding="UTF-8" standalone="no"?>
<!-- Created with Inkscape (http://www.inkscape.org/) -->

<svg
   version="1.1"
   id="svg1"
   width="452.23999"
   height="652.71997"
   viewBox="0 0 452.23999 652.71997"
   sodipodi:docname="Hour17.pdf"
   xmlns:inkscape="http://www.inkscape.org/namespaces/inkscape"
   xmlns:sodipodi="http://sodipodi.sourceforge.net/DTD/sodipodi-0.dtd"
   xmlns="http://www.w3.org/2000/svg"
   xmlns:svg="http://www.w3.org/2000/svg">
  <defs
     id="defs1">
    <clipPath
       clipPathUnits="userSpaceOnUse"
       id="clipPath2">
      <path
         d="M 0,0.16 V 1122.5601 H 793.59998 V 0.16 Z"
         transform="translate(-224.32001,-801.12)"
         clip-rule="evenodd"
         id="path2" />
    </clipPath>
    <clipPath
       clipPathUnits="userSpaceOnUse"
       id="clipPath4">
      <path
         d="M 0,0.16 V 1122.5601 H 793.59998 V 0.16 Z"
         transform="translate(-3.3333333e-6)"
         clip-rule="evenodd"
         id="path4" />
    </clipPath>
    <clipPath
       clipPathUnits="userSpaceOnUse"
       id="clipPath6">
      <path
         d="M 0,0.16 V 1122.5601 H 793.59998 V 0.16 Z"
         transform="translate(-3.3333333e-6)"
         clip-rule="evenodd"
         id="path6" />
    </clipPath>
    <clipPath
       clipPathUnits="userSpaceOnUse"
       id="clipPath8">
      <path
         d="M 0,0.16 V 1122.5601 H 793.59998 V 0.16 Z"
         transform="translate(-3.3333333e-6)"
         clip-rule="evenodd"
         id="path8" />
    </clipPath>
  </defs>
  <sodipodi:namedview
     id="namedview1"
     pagecolor="#505050"
     bordercolor="#eeeeee"
     borderopacity="1"
     inkscape:showpageshadow="0"
     inkscape:pageopacity="0"
     inkscape:pagecheckerboard="0"
     inkscape:deskcolor="#505050">
    <inkscape:page
       x="0"
       y="0"
       inkscape:label="1"
       id="page1"
       width="452.23999"
       height="652.71997"
       margin="0"
       bleed="0" />
  </sodipodi:namedview>
  <g
     id="g1"
     inkscape:groupmode="layer"
     inkscape:label="1">
    <path
       id="path1"
       d="m 0,0 7.68,7.2 8,6.88 8.32,6.4 8.48,6.079999 8.799999,5.600001 9.120003,5.119999 9.279998,4.800003 9.599999,4.32 9.760002,4 9.919998,3.359996 10.080002,3.040001 10.079999,2.560002 10.24,2.079998 10.39999,1.600002 L 140.16,64 l 10.56,0.639999 10.39999,0.160004 10.56,-0.32 L 182.08,63.68 192.48,62.240002 202.72,60.48 212.96001,58.240002 223.2,55.360001 233.11999,52.16 242.88,48.48 l 9.76,-4 9.28001,-4.64 9.28,-4.959999 8.95999,-5.44 L 288.95999,23.68 297.28,17.440001 305.44,10.72 313.28,3.84 320.79999,-3.52 328,-11.2 l 6.72,-8.000001 6.4,-8.319999 5.92001,-8.64 5.75998,-8.799999 5.12002,-9.120003 4.79999,-9.279999 4.32001,-9.599998 3.83999,-9.760002 3.51999,-9.919998 2.88001,-9.920001 2.56,-10.24 1.92001,-10.24 1.59998,-10.4 1.12002,-10.4 0.47998,-10.55999 0.16001,-10.40001 -0.32001,-10.56 -0.95999,-10.39999 -1.28,-10.40001 -1.91999,-10.23999 -2.24002,-10.24001 -2.72,-10.08 -3.35998,-10.08 -3.68,-9.76 -4.16,-9.6 -4.48001,-9.44001 -5.12,-9.27999 -5.44,-8.96 -5.76001,-8.64001 -6.23999,-8.47998 -6.72,-8 -7.04001,-7.84 -7.35998,-7.52002 -7.68,-7.03998 -8,-6.88 -8.32,-6.24002 -8.48001,-6.07999 -8.96,-5.6 -9.11999,-5.12 -9.28,-4.79999 -9.60001,-4.32 -9.76001,-3.84 -9.91999,-3.36002 -10.08001,-3.04 -10.08,-2.4 L 196.64,-385.12 186.39999,-386.56 175.84,-387.67999 165.44,-388.16 h -10.56 l -10.4,0.32 -10.4,0.96 -10.4,1.27999 -10.4,1.92002 -10.24,2.23999 -10.080001,2.88 -9.919998,3.20001 -9.760002,3.84 -9.599999,4.16 -9.439998,4.63999 -9.280003,4.95999 -8.799999,5.44 -8.799999,5.92002 -8.32,6.23999 -8.160001,6.72 -7.84,7.04001 -7.36,7.35998 -7.2,7.68002"
       style="fill:none;stroke:#000000;stroke-width:26.4;stroke-linecap:round;stroke-linejoin:round;stroke-miterlimit:10;stroke-dasharray:none;stroke-opacity:1"
       transform="translate(44.226674,563.53327)"
       clip-path="url(#clipPath2)" />
    <path
       id="path3"
       d="M 231.84,261.76001 H 533.91998"
       style="fill:none;stroke:#000000;stroke-width:26.4;stroke-linecap:round;stroke-linejoin:round;stroke-miterlimit:10;stroke-dasharray:none;stroke-opacity:1"
       transform="translate(-180.09333,-237.58673)"
       clip-path="url(#clipPath4)" />
    <path
       id="path5"
       d="M 305.12,426.56 231.84,261.76001"
       style="fill:none;stroke:#000000;stroke-width:26.4;stroke-linecap:round;stroke-linejoin:round;stroke-miterlimit:10;stroke-dasharray:none;stroke-opacity:1"
       transform="translate(-180.09333,-237.58673)"
       clip-path="url(#clipPath6)" />
    <path
       id="path7"
       d="M 460.64001,426.56 533.91998,261.76001"
       style="fill:none;stroke:#000000;stroke-width:26.4;stroke-linecap:round;stroke-linejoin:round;stroke-miterlimit:10;stroke-dasharray:none;stroke-opacity:1"
       transform="translate(-180.09333,-237.58673)"
       clip-path="url(#clipPath8)" />
  </g>
</svg>
