<?xml version="1.0" encoding="UTF-8" standalone="no"?>
<!-- Created with Inkscape (http://www.inkscape.org/) -->

<svg
   version="1.1"
   id="svg1"
   width="632.33331"
   height="575.29333"
   viewBox="0 0 632.33331 575.29333"
   sodipodi:docname="Hour21.pdf"
   xmlns:inkscape="http://www.inkscape.org/namespaces/inkscape"
   xmlns:sodipodi="http://sodipodi.sourceforge.net/DTD/sodipodi-0.dtd"
   xmlns="http://www.w3.org/2000/svg"
   xmlns:svg="http://www.w3.org/2000/svg">
  <defs
     id="defs1">
    <clipPath
       clipPathUnits="userSpaceOnUse"
       id="clipPath2">
      <path
         d="M 0,0.16 V 1122.5601 H 793.59998 V 0.16 Z"
         clip-rule="evenodd"
         id="path2" />
    </clipPath>
    <clipPath
       clipPathUnits="userSpaceOnUse"
       id="clipPath4">
      <path
         d="M 0,399.35999 H 169.92 V 577.44 H 0 Z"
         clip-rule="evenodd"
         id="path4" />
    </clipPath>
    <clipPath
       clipPathUnits="userSpaceOnUse"
       id="clipPath6">
      <path
         d="M 0,0.16 V 1122.5601 H 793.59998 V 0.16 Z"
         clip-rule="evenodd"
         id="path6" />
    </clipPath>
    <clipPath
       clipPathUnits="userSpaceOnUse"
       id="clipPath8">
      <path
         d="M 0,0.16 V 1122.5601 H 793.59998 V 0.16 Z"
         clip-rule="evenodd"
         id="path8" />
    </clipPath>
    <clipPath
       clipPathUnits="userSpaceOnUse"
       id="clipPath10">
      <path
         d="M 0,0.16 V 1122.5601 H 793.59998 V 0.16 Z"
         clip-rule="evenodd"
         id="path10" />
    </clipPath>
    <clipPath
       clipPathUnits="userSpaceOnUse"
       id="clipPath12">
      <path
         d="M 0,0.16 V 1122.5601 H 793.59998 V 0.16 Z"
         clip-rule="evenodd"
         id="path12" />
    </clipPath>
    <clipPath
       clipPathUnits="userSpaceOnUse"
       id="clipPath14">
      <path
         d="M 0,0.16 V 1122.5601 H 793.59998 V 0.16 Z"
         transform="translate(-292.32001,-790.88001)"
         clip-rule="evenodd"
         id="path14" />
    </clipPath>
  </defs>
  <sodipodi:namedview
     id="namedview1"
     pagecolor="#505050"
     bordercolor="#eeeeee"
     borderopacity="1"
     inkscape:showpageshadow="0"
     inkscape:pageopacity="0"
     inkscape:pagecheckerboard="0"
     inkscape:deskcolor="#505050">
    <inkscape:page
       x="0"
       y="0"
       inkscape:label="1"
       id="page1"
       width="632.33331"
       height="575.29333"
       margin="0"
       bleed="0" />
  </sodipodi:namedview>
  <g
     id="g1"
     inkscape:groupmode="layer"
     inkscape:label="1">
    <path
       id="path1"
       d="M 156.32001,412.79999 V 865.91998"
       style="fill:none;stroke:#000000;stroke-width:26.4;stroke-linecap:round;stroke-linejoin:round;stroke-miterlimit:10;stroke-dasharray:none;stroke-opacity:1"
       transform="translate(0,-221.58673)"
       clip-path="url(#clipPath2)" />
    <path
       id="path3"
       d="M 5.28,563.84003 156.32001,412.79999"
       style="fill:none;stroke:#000000;stroke-width:26.4;stroke-linecap:round;stroke-linejoin:round;stroke-miterlimit:10;stroke-dasharray:none;stroke-opacity:1"
       transform="translate(0,-221.58673)"
       clip-path="url(#clipPath4)" />
    <path
       id="path5"
       d="M 231.84,941.44 458.39999,412.79999"
       style="fill:none;stroke:#000000;stroke-width:26.4;stroke-linecap:round;stroke-linejoin:round;stroke-miterlimit:10;stroke-dasharray:none;stroke-opacity:1"
       transform="translate(0,-221.58673)"
       clip-path="url(#clipPath6)" />
    <path
       id="path7"
       d="M 458.39999,412.79999 V 865.91998"
       style="fill:none;stroke:#000000;stroke-width:26.4;stroke-linecap:round;stroke-linejoin:round;stroke-miterlimit:10;stroke-dasharray:none;stroke-opacity:1"
       transform="translate(0,-221.58673)"
       clip-path="url(#clipPath8)" />
    <path
       id="path9"
       d="M 458.39999,865.91998 609.44,714.88"
       style="fill:none;stroke:#000000;stroke-width:26.4;stroke-linecap:round;stroke-linejoin:round;stroke-miterlimit:10;stroke-dasharray:none;stroke-opacity:1"
       transform="translate(0,-221.58673)"
       clip-path="url(#clipPath10)" />
    <path
       id="path11"
       d="m 364,639.35998 h 94.39999"
       style="fill:none;stroke:#000000;stroke-width:26.4;stroke-linecap:round;stroke-linejoin:round;stroke-miterlimit:10;stroke-dasharray:none;stroke-opacity:1"
       transform="translate(0,-221.58673)"
       clip-path="url(#clipPath12)" />
    <path
       id="path13"
       d="m 0,0 -0.16,-8.32 -0.16,-8.16 -0.48,-8 -0.8,-8 -0.8,-8 -1.12,-7.84 -1.28,-7.68 -1.44,-7.52 -1.6,-7.359997 -1.92,-7.040001 -1.92,-6.880005 -2.24,-6.719994 -2.24,-6.400001 L -18.559999,-104 -21.280001,-109.76 -24,-115.2 l -2.879999,-5.12 -2.880001,-4.8 -3.199999,-4.32 -3.200001,-4 -3.200001,-3.67999 -3.36,-3.20002 -3.520001,-2.87999 -3.519996,-2.40001 -3.520001,-1.91999 -3.68,-1.59999 -3.68,-1.12001 -3.680001,-0.64 -3.68,-0.15999 -3.68,0.15999 -3.680001,0.64 -3.519996,1.12001 -3.680001,1.59999 -3.520004,1.91999 -3.519996,2.40001 -3.520005,2.87999 -3.36,3.20002 -3.359993,3.67999 -3.200004,4 -3.04,4.32 -3.04,4.8 -2.88,5.12 -2.72,5.44 -2.56,5.76 -2.4,6.080002 -2.4,6.400001 -2.08,6.719994 -2.08,6.880005 -1.76,7.040001 -1.60001,7.359997 -1.43998,7.52 -1.28002,7.68 -1.11999,7.84 -0.95999,8 -0.64,8 -0.48001,8 -0.32,8.16 V 0"
       style="fill:none;stroke:#000000;stroke-width:26.4;stroke-linecap:round;stroke-linejoin:round;stroke-miterlimit:10;stroke-dasharray:none;stroke-opacity:1"
       transform="translate(292.32001,569.29328)"
       clip-path="url(#clipPath14)" />
  </g>
</svg>
