<?xml version="1.0" encoding="UTF-8" standalone="no"?>
<!-- Created with Inkscape (http://www.inkscape.org/) -->

<svg
   version="1.1"
   id="svg1"
   width="314.84"
   height="504.56"
   viewBox="0 0 314.84 504.56"
   sodipodi:docname="Hour15.pdf"
   xmlns:inkscape="http://www.inkscape.org/namespaces/inkscape"
   xmlns:sodipodi="http://sodipodi.sourceforge.net/DTD/sodipodi-0.dtd"
   xmlns="http://www.w3.org/2000/svg"
   xmlns:svg="http://www.w3.org/2000/svg">
  <defs
     id="defs1">
    <clipPath
       clipPathUnits="userSpaceOnUse"
       id="clipPath2">
      <path
         d="M 0,0.16 V 1122.5601 H 793.59998 V 0.16 Z"
         transform="translate(-251.03999,-789.91998)"
         clip-rule="evenodd"
         id="path2" />
    </clipPath>
    <clipPath
       clipPathUnits="userSpaceOnUse"
       id="clipPath4">
      <path
         d="M 0,0.16 V 1122.5601 H 793.59998 V 0.16 Z"
         transform="translate(-511.84,-611.67999)"
         clip-rule="evenodd"
         id="path4" />
    </clipPath>
    <clipPath
       clipPathUnits="userSpaceOnUse"
       id="clipPath6">
      <path
         d="M 0,0.16 V 1122.5601 H 793.59998 V 0.16 Z"
         transform="translate(-511.68,-685.28003)"
         clip-rule="evenodd"
         id="path6" />
    </clipPath>
  </defs>
  <sodipodi:namedview
     id="namedview1"
     pagecolor="#505050"
     bordercolor="#eeeeee"
     borderopacity="1"
     inkscape:showpageshadow="0"
     inkscape:pageopacity="0"
     inkscape:pagecheckerboard="0"
     inkscape:deskcolor="#505050">
    <inkscape:page
       x="0"
       y="0"
       inkscape:label="1"
       id="page1"
       width="314.84"
       height="504.56"
       margin="0"
       bleed="0" />
  </sodipodi:namedview>
  <g
     id="g1"
     inkscape:groupmode="layer"
     inkscape:label="1">
    <path
       id="path1"
       d="m 0,0 4.64,7.68 4.96,7.2 5.28,7.04 5.28,6.56 5.6,6.080001 5.76,5.919999 5.919999,5.279998 6.080001,5.120003 6.239998,4.48 L 56.16,59.52 62.720001,63.200001 69.279999,66.400002 76,69.120003 l 6.720001,2.399994 6.879997,1.760002 6.880005,1.440002 L 103.36,75.519997 110.4,76 h 6.88 l 7.04,-0.639999 6.88,-0.959999 6.88,-1.599999 6.72,-1.920006 6.87999,-2.399994 6.56001,-3.040001 6.56,-3.36 6.56,-3.68 6.24001,-4.32 6.23999,-4.640003 6.08,-5.119999 5.92,-5.599999 5.76001,-5.920002 5.43998,-6.24 5.28002,-6.719999 5.11999,-7.04 4.95999,-7.36 4.64,-7.84 4.48001,-8 4.15999,-8.319999 3.84001,-8.640002 3.68,-8.799999 3.36,-9.119999 3.04001,-9.440002 2.87999,-9.440003 2.4,-9.759994 2.24,-9.919998 1.92001,-9.920006 1.6,-10.239998 1.28,-10.24 0.95999,-10.24 0.63999,-10.4 0.32001,-10.4 v -10.39999 l -0.32001,-10.40001 -0.63999,-10.4 -0.95999,-10.4 -1.28,-10.23999 -1.6,-10.08001 -1.92001,-10.08 -2.24,-9.92 -2.4,-9.6 -2.87999,-9.59999 -3.04001,-9.28 -3.36,-9.12 -3.68,-8.96002 -3.84001,-8.63998 -4.15999,-8.32001 -4.48001,-8 -4.64,-7.67999 -4.95999,-7.36002 -5.11999,-7.03998 -5.28002,-6.72 -5.43998,-6.40002 -5.76001,-5.91999 -5.92,-5.44 -6.08,-5.11999 -6.23999,-4.64002 -6.24001,-4.31998 -6.56,-3.84002 -6.56,-3.35999 -6.56001,-2.88 -6.87999,-2.4 -6.72,-2.08001 -6.88,-1.43998 -6.88,-1.12002 -7.04,-0.47998 h -6.88 l -7.04,0.31998 -6.879997,0.96002 -6.880005,1.28 -6.879997,1.91998 -6.720001,2.24002 -6.720001,2.72 -6.559998,3.35999 -6.560001,3.67999 -6.400002,4 -6.239998,4.64001 -6.080001,4.96 -5.919999,5.44 -5.76,5.76001 -5.6,6.23999 -5.28,6.56 -5.28,6.88 -4.96,7.35999 -4.64,7.68002"
       style="fill:none;stroke:#000000;stroke-width:26.4;stroke-linecap:round;stroke-linejoin:round;stroke-miterlimit:10;stroke-dasharray:none;stroke-opacity:1"
       transform="translate(24.253326,406.83992)"
       clip-path="url(#clipPath2)" />
    <path
       id="path3"
       d="M 0,0 -12,-4.32 -24.32,-8 l -12.479999,-3.2 -12.48,-2.72 -12.639999,-2.4 -12.800003,-1.76 -12.799996,-1.120001 L -100.32,-20 l -12.8,-0.32 -12.96,0.32 -12.8,0.799999 -12.79999,1.120001 -12.64002,1.76 -12.79998,2.4 -12.48002,2.72 -12.47999,3.2 -12.31999,3.68 -12,4.32"
       style="fill:none;stroke:#000000;stroke-width:26.4;stroke-linecap:round;stroke-linejoin:round;stroke-miterlimit:10;stroke-dasharray:none;stroke-opacity:1"
       transform="translate(285.05333,228.59993)"
       clip-path="url(#clipPath4)" />
    <path
       id="path5"
       d="m 0,0 -11.84,-4 -12,-3.36 -12.16,-2.88 -12.16,-2.56 -12.32,-1.92 -12.479999,-1.6 -12.480003,-1.120001 L -97.919998,-17.92 -110.4,-18.08 l -12.48,0.32 -12.48,0.800001 -12.31999,1.439999 -12.32001,1.76 -12.32001,2.24 -12.15999,2.72 -12.16,3.2 -12,3.68 -11.68001,4"
       style="fill:none;stroke:#000000;stroke-width:26.4;stroke-linecap:round;stroke-linejoin:round;stroke-miterlimit:10;stroke-dasharray:none;stroke-opacity:1"
       transform="translate(284.89333,302.19997)"
       clip-path="url(#clipPath6)" />
  </g>
</svg>
