<?xml version="1.0" encoding="UTF-8" standalone="no"?>
<!-- Created with Inkscape (http://www.inkscape.org/) -->

<svg
   version="1.1"
   id="svg1"
   width="692.37335"
   height="460.50668"
   viewBox="0 0 692.37335 460.50668"
   sodipodi:docname="Hour16.pdf"
   xmlns:inkscape="http://www.inkscape.org/namespaces/inkscape"
   xmlns:sodipodi="http://sodipodi.sourceforge.net/DTD/sodipodi-0.dtd"
   xmlns="http://www.w3.org/2000/svg"
   xmlns:svg="http://www.w3.org/2000/svg">
  <defs
     id="defs1">
    <clipPath
       clipPathUnits="userSpaceOnUse"
       id="clipPath2">
      <path
         d="M 0,0.16 V 1122.5601 H 793.59998 V 0.16 Z"
         transform="translate(-382.88001,-511.20001)"
         clip-rule="evenodd"
         id="path2" />
    </clipPath>
    <clipPath
       clipPathUnits="userSpaceOnUse"
       id="clipPath4">
      <path
         d="M 0,0.16 V 1122.5601 H 793.59998 V 0.16 Z"
         transform="translate(-254.72,-639.35998)"
         clip-rule="evenodd"
         id="path4" />
    </clipPath>
    <clipPath
       clipPathUnits="userSpaceOnUse"
       id="clipPath6">
      <path
         d="M 0,0.16 V 1122.5601 H 793.59998 V 0.16 Z"
         transform="translate(-511.04001,-639.35998)"
         clip-rule="evenodd"
         id="path6" />
    </clipPath>
    <clipPath
       clipPathUnits="userSpaceOnUse"
       id="clipPath8">
      <path
         d="M 0,0.16 V 1122.5601 H 793.59998 V 0.16 Z"
         transform="translate(-382.88001,-767.52002)"
         clip-rule="evenodd"
         id="path8" />
    </clipPath>
    <clipPath
       clipPathUnits="userSpaceOnUse"
       id="clipPath10">
      <path
         d="M 0,0.16 V 1122.5601 H 793.59998 V 0.16 Z"
         clip-rule="evenodd"
         id="path10" />
    </clipPath>
  </defs>
  <sodipodi:namedview
     id="namedview1"
     pagecolor="#505050"
     bordercolor="#eeeeee"
     borderopacity="1"
     inkscape:showpageshadow="0"
     inkscape:pageopacity="0"
     inkscape:pagecheckerboard="0"
     inkscape:deskcolor="#505050">
    <inkscape:page
       x="0"
       y="0"
       inkscape:label="1"
       id="page1"
       width="692.37335"
       height="460.50668"
       margin="0"
       bleed="0" />
  </sodipodi:namedview>
  <g
     id="g1"
     inkscape:groupmode="layer"
     inkscape:label="1">
    <path
       id="path1"
       d="m 0,0 -6.56,-6.4 -6.72,-6.24 -6.88,-5.919999 -6.880001,-5.920001 -7.040001,-5.6 -7.199997,-5.280001 L -48.48,-40.48 l -7.2,-4.799999 -7.200001,-4.639999 -7.359997,-4.160004 -7.200004,-4 -7.199997,-3.519996 -7.199997,-3.360001 L -98.879997,-68 -105.92,-70.559998 l -6.88,-2.400001 -6.72,-1.919998 -6.56,-1.600006 -6.56,-1.119995 -6.24,-0.96 -6.08001,-0.480003 -5.91999,-0.159996 -5.6,0.32 -5.44,0.639999 -5.28,0.959999 L -172,-76 l -4.64,1.760002 -4.32001,1.919998 -4.15998,2.400002 -3.68001,2.879997 -3.36,3.040001 -3.04,3.360001 -2.88,3.68 -2.4,4.16 -1.91999,4.319999 -1.76001,4.64 -1.28,4.799999 -0.95999,5.280003 -0.64,5.439998 -0.32001,5.600001 0.16,5.92 0.48,6.079999 0.96001,6.24 1.11999,6.56 1.60001,6.56 1.92,6.72 2.39999,6.88 2.56,7.040001 3.04001,7.039999 3.36,7.2 3.51999,7.200001 4,7.199997 4.32,7.360001 4.48,7.200004 4.8,7.199997 5.12,7.199997 5.28,7.200005 5.6,7.039998 5.92,6.88 5.92,6.88 6.24,6.72 6.4,6.56"
       style="fill:none;stroke:#000000;stroke-width:26.4;stroke-linecap:round;stroke-linejoin:round;stroke-miterlimit:10;stroke-dasharray:none;stroke-opacity:1"
       transform="translate(349.53334,105.42662)"
       clip-path="url(#clipPath2)" />
    <path
       id="path3"
       d="m 0,0 -6.4,6.56 -6.24,6.72 -5.919999,6.88 -5.920001,7.040001 -5.6,7.040001 -5.280001,7.039997 L -40.48,48.48 l -4.799999,7.36 -4.479999,7.200001 -4.320004,7.199997 -4,7.36 -3.519996,7.200005 -3.360001,7.039993 L -68,99.040001 -70.559998,105.92 l -2.400001,6.88 -1.919998,6.88 -1.600006,6.56 -1.119995,6.4 -0.96,6.39999 -0.480003,6.08 -0.159996,5.76001 0.32,5.76 0.639999,5.44 0.959999,5.12 1.279999,4.96 1.760002,4.64 1.919998,4.31999 2.400002,4 2.879997,3.68001 3.040001,3.52001 3.360001,3.03999 3.68,2.72 4.16,2.4 4.319999,2.08 4.64,1.6 4.799999,1.44001 5.280003,0.95999 5.439998,0.64 5.600001,0.16 5.92,-0.16 6.079999,-0.48 6.24,-0.8 6.56,-1.28 6.56,-1.60001 6.72,-1.92 6.88,-2.23999 7.040001,-2.72 7.039999,-2.88 7.2,-3.36 7.200001,-3.68 7.199997,-3.84001 7.360001,-4.31999 7.200004,-4.47999 L 79.68,168.64 l 7.199997,-4.96001 7.200005,-5.43999 7.039998,-5.6 6.88,-5.76 6.88,-6.08 6.72,-6.24 6.56,-6.4"
       style="fill:none;stroke:#000000;stroke-width:26.4;stroke-linecap:round;stroke-linejoin:round;stroke-miterlimit:10;stroke-dasharray:none;stroke-opacity:1"
       transform="translate(221.37333,233.58659)"
       clip-path="url(#clipPath4)" />
    <path
       id="path5"
       d="m 0,0 6.4,-6.56 6.24,-6.72 6.079999,-6.88 5.760001,-6.880001 5.6,-7.040001 5.44,-7.199997 4.96,-7.200001 4.959999,-7.2 4.479999,-7.200001 4.320004,-7.359997 3.84,-7.200004 3.679996,-7.199997 3.360005,-7.199997 L 68,-98.879997 70.720001,-105.92 l 2.239998,-6.88 1.919998,-6.72 1.600006,-6.56 1.279999,-6.56 0.799996,-6.24 0.480003,-6.08001 0.159996,-5.91999 -0.159996,-5.6 -0.639999,-5.44 -0.96,-5.28 -1.279998,-4.8 -1.760002,-4.64 -2.080002,-4.32001 -2.400002,-4.15998 -2.720001,-3.68001 -3.039993,-3.36 -3.520005,-3.04 -3.68,-2.88 -4,-2.4 -4.32,-1.91999 L 44,-204.16 l -4.959999,-1.28 -5.120003,-0.95999 -5.439998,-0.64 -5.760001,-0.32001 -5.76,0.16 -6.079999,0.48 -6.4,0.96001 -6.4,1.11999 -6.56,1.60001 -6.88,1.92 -6.88,2.39999 -6.880001,2.56 -7.199999,3.04001 -7.040001,3.36 -7.2,3.51999 -7.359997,4 -7.200005,4.16 -7.199997,4.64 -7.36,4.8 -7.199997,5.12 -7.040001,5.28 -7.040002,5.6 -7.04,5.92 -6.88,5.92 -6.72,6.24 -6.56,6.4"
       style="fill:none;stroke:#000000;stroke-width:26.4;stroke-linecap:round;stroke-linejoin:round;stroke-miterlimit:10;stroke-dasharray:none;stroke-opacity:1"
       transform="translate(477.69334,233.58659)"
       clip-path="url(#clipPath6)" />
    <path
       id="path7"
       d="m 0,0 6.56,6.4 6.72,6.24 6.88,6.079999 7.040001,5.760001 7.040001,5.6 7.039997,5.44 7.200001,4.96 7.36,4.959999 7.200001,4.479999 7.199997,4.320004 7.36,3.84 7.200005,3.679996 7.039993,3.360005 L 99.040001,68 105.92,70.720001 l 6.88,2.239998 6.88,1.919998 6.56,1.600006 6.4,1.279999 6.39999,0.799996 6.08,0.480003 5.76001,0.159996 5.76,-0.159996 5.44,-0.639999 5.12,-0.96 L 172.16,76 176.8,74.400002 181.11999,72.32 l 4,-2.400002 3.68001,-2.720001 3.52001,-3.039993 3.03999,-3.520005 2.72,-3.68 2.4,-4 2.08,-4.32 L 204.32001,44 l 1.28,-4.959999 0.95999,-5.120003 0.64,-5.439998 0.16,-5.760001 -0.16,-5.76 -0.48,-6.079999 -0.8,-6.4 -1.28,-6.4 -1.60001,-6.56 -1.92,-6.88 -2.23999,-6.88 -2.72,-6.880001 -2.88,-7.199999 -3.36,-7.040001 -3.68,-7.2 -3.84001,-7.359997 -4.31999,-7.200005 -4.47999,-7.199997 -4.96001,-7.36 -4.96001,-7.199997 -5.43999,-7.040001 -5.6,-7.040002 -5.76,-7.04 -6.08,-6.88 -6.24,-6.72 -6.4,-6.56"
       style="fill:none;stroke:#000000;stroke-width:26.4;stroke-linecap:round;stroke-linejoin:round;stroke-miterlimit:10;stroke-dasharray:none;stroke-opacity:1"
       transform="translate(349.53334,361.74663)"
       clip-path="url(#clipPath8)" />
    <path
       id="path9"
       d="M 62.560001,639.35998 H 703.35998"
       style="fill:none;stroke:#000000;stroke-width:26.4;stroke-linecap:round;stroke-linejoin:round;stroke-miterlimit:10;stroke-dasharray:none;stroke-opacity:1"
       transform="translate(-33.346667,-405.77339)"
       clip-path="url(#clipPath10)" />
  </g>
</svg>
