<?xml version="1.0" encoding="UTF-8" standalone="no"?>
<!-- Created with Inkscape (http://www.inkscape.org/) -->

<svg
   version="1.1"
   id="svg1"
   width="357.51999"
   height="479.20001"
   viewBox="0 0 357.51999 479.20001"
   sodipodi:docname="Minute.pdf"
   xmlns:inkscape="http://www.inkscape.org/namespaces/inkscape"
   xmlns:sodipodi="http://sodipodi.sourceforge.net/DTD/sodipodi-0.dtd"
   xmlns="http://www.w3.org/2000/svg"
   xmlns:svg="http://www.w3.org/2000/svg">
  <defs
     id="defs1">
    <clipPath
       clipPathUnits="userSpaceOnUse"
       id="clipPath2">
      <path
         d="M 0,0.16 V 1122.5601 H 793.59998 V 0.16 Z"
         transform="translate(-515.84003,-558.15998)"
         clip-rule="evenodd"
         id="path2" />
    </clipPath>
    <clipPath
       clipPathUnits="userSpaceOnUse"
       id="clipPath4">
      <path
         d="M 0,0.16 V 1122.5601 H 793.59998 V 0.16 Z"
         clip-rule="evenodd"
         id="path4" />
    </clipPath>
    <clipPath
       clipPathUnits="userSpaceOnUse"
       id="clipPath6">
      <path
         d="M 0,0.16 V 1122.5601 H 793.59998 V 0.16 Z"
         transform="translate(-334.07999,-738.88001)"
         clip-rule="evenodd"
         id="path6" />
    </clipPath>
    <clipPath
       clipPathUnits="userSpaceOnUse"
       id="clipPath8">
      <path
         d="M 0,0.16 V 1122.5601 H 793.59998 V 0.16 Z"
         transform="translate(-447.35999,-738.88001)"
         clip-rule="evenodd"
         id="path8" />
    </clipPath>
    <clipPath
       clipPathUnits="userSpaceOnUse"
       id="clipPath10">
      <path
         d="M 0,0.16 V 1122.5601 H 793.59998 V 0.16 Z"
         transform="translate(-447.35999,-738.88001)"
         clip-rule="evenodd"
         id="path10" />
    </clipPath>
  </defs>
  <sodipodi:namedview
     id="namedview1"
     pagecolor="#505050"
     bordercolor="#eeeeee"
     borderopacity="1"
     inkscape:showpageshadow="0"
     inkscape:pageopacity="0"
     inkscape:pagecheckerboard="0"
     inkscape:deskcolor="#505050">
    <inkscape:page
       x="0"
       y="0"
       inkscape:label="1"
       id="page1"
       width="357.51999"
       height="479.20001"
       margin="0"
       bleed="0" />
  </sodipodi:namedview>
  <g
     id="g1"
     inkscape:groupmode="layer"
     inkscape:label="1">
    <path
       id="path1"
       d="m 0,0 c 0,-75.059998 -60.849998,-135.92 -135.92,-135.92 -75.07,0 -135.92,60.860002 -135.92,135.92 0,75.059998 60.85,135.92 135.92,135.92 C -60.849998,135.92 0,75.059998 0,0 Z"
       style="fill:none;stroke:#000000;stroke-width:26.4;stroke-linecap:round;stroke-linejoin:round;stroke-miterlimit:10;stroke-dasharray:none;stroke-opacity:1"
       transform="translate(515.84003,411.33325)"
       clip-path="url(#clipPath2)" />
    <path
       id="path3"
       d="m 379.84,422.23999 v 340"
       style="fill:none;stroke:#000000;stroke-width:26.4;stroke-linecap:round;stroke-linejoin:round;stroke-miterlimit:10;stroke-dasharray:none;stroke-opacity:1"
       transform="translate(0,-146.82673)"
       clip-path="url(#clipPath4)" />
    <path
       id="path5"
       d="m 0,0 -3.36,2.56 -3.36,3.04 -3.2,3.2 -3.2,3.52 -3.2,3.68 -2.880001,3.84 -3.039999,4 -2.719999,4.16 -2.720001,4.48 -2.4,4.319999 -2.24,4.48 -2.240001,4.639999 -1.919999,4.640003 -1.600002,4.48 L -39.68,59.68 l -1.279999,4.480004 -0.959999,4.479995 -0.800003,4.32 -0.64,4.32 -0.319999,4 v 4 l 0.16,3.68 0.479999,3.520004 0.639999,3.199997 0.960003,3.040001 1.119999,2.719999 1.439999,2.56 1.600002,2.24 1.759999,1.76 2.080001,1.6 2.239998,1.28 2.400002,0.8 2.559999,0.64 2.72,0.16 2.880001,-0.16 2.879999,-0.32 3.04,-0.96 3.2,-1.12 3.2,-1.44 3.36,-1.76 3.36,-2.08 3.36,-2.4 3.2,-2.720003 3.36,-3.039994 3.2,-3.200004 3.2,-3.360001 3.2,-3.68 3.039999,-3.839996 2.880001,-4 2.719999,-4.32 2.720002,-4.32 2.559999,-4.32 2.240002,-4.480003 L 36.16,56.32 38.080002,51.68 39.84,47.200001 l 1.599999,-4.64 1.280002,-4.479999 0.959999,-4.480004 0.8,-4.319997 0.639999,-4.320002 0.32,-4"
       style="fill:none;stroke:#000000;stroke-width:26.4;stroke-linecap:round;stroke-linejoin:round;stroke-miterlimit:10;stroke-dasharray:none;stroke-opacity:1"
       transform="translate(334.07999,592.05328)"
       clip-path="url(#clipPath6)" />
    <path
       id="path7"
       d="m 0,0 -6.08,-3.36 -6.24,-3.04 -6.559999,-2.56 -6.560002,-2.24 -6.719999,-1.76 -6.880001,-1.44 -6.879997,-0.96 -6.880001,-0.48 H -59.84 l -6.880001,0.32 -7.040001,0.8 -6.879997,1.12 -6.720002,1.6 -6.720001,2.08 -6.559998,2.4 -6.24,2.88 -6.24,3.2"
       style="fill:none;stroke:#000000;stroke-width:26.4;stroke-linecap:round;stroke-linejoin:round;stroke-miterlimit:10;stroke-dasharray:none;stroke-opacity:1"
       transform="translate(447.35999,592.05328)"
       clip-path="url(#clipPath8)" />
    <path
       id="path9"
       d="m 0,0 3.84,4 4,3.52 4.16,3.36 4.639999,3.04 4.640002,2.719999 4.959999,2.24 5.120001,1.92 L 36.48,22.4 l 5.439998,1.12 5.280003,0.64 5.439998,0.32 h 5.440003 L 63.52,24 68.800003,23.040001 74.080002,21.76 79.199997,20.16 84.32,18.08 89.120003,15.52 93.760002,12.8 98.239998,9.6 102.4,6.24"
       style="fill:none;stroke:#000000;stroke-width:26.4;stroke-linecap:round;stroke-linejoin:round;stroke-miterlimit:10;stroke-dasharray:none;stroke-opacity:1"
       transform="translate(447.35999,592.05328)"
       clip-path="url(#clipPath10)" />
  </g>
</svg>
