<?xml version="1.0" encoding="UTF-8" standalone="no"?>
<!-- Created with Inkscape (http://www.inkscape.org/) -->

<svg
   version="1.1"
   id="svg1"
   width="510.93332"
   height="248.26666"
   viewBox="0 0 510.93332 248.26666"
   sodipodi:docname="Month8.pdf"
   xmlns:inkscape="http://www.inkscape.org/namespaces/inkscape"
   xmlns:sodipodi="http://sodipodi.sourceforge.net/DTD/sodipodi-0.dtd"
   xmlns="http://www.w3.org/2000/svg"
   xmlns:svg="http://www.w3.org/2000/svg">
  <defs
     id="defs1">
    <clipPath
       clipPathUnits="userSpaceOnUse"
       id="clipPath2">
      <path
         d="M 0,0.16 V 1122.5601 H 793.59998 V 0.16 Z"
         clip-rule="evenodd"
         id="path2" />
    </clipPath>
    <clipPath
       clipPathUnits="userSpaceOnUse"
       id="clipPath4">
      <path
         d="M 0,0.16 V 1122.5601 H 793.59998 V 0.16 Z"
         clip-rule="evenodd"
         id="path4" />
    </clipPath>
    <clipPath
       clipPathUnits="userSpaceOnUse"
       id="clipPath6">
      <path
         d="M 0,0.16 V 1122.5601 H 793.59998 V 0.16 Z"
         clip-rule="evenodd"
         id="path6" />
    </clipPath>
    <clipPath
       clipPathUnits="userSpaceOnUse"
       id="clipPath8">
      <path
         d="M 0,0.16 V 1122.5601 H 793.59998 V 0.16 Z"
         transform="translate(-505.44,-573.76001)"
         clip-rule="evenodd"
         id="path8" />
    </clipPath>
    <clipPath
       clipPathUnits="userSpaceOnUse"
       id="clipPath10">
      <path
         d="M 0,0.16 V 1122.5601 H 793.59998 V 0.16 Z"
         transform="translate(-389.76001,-698.23999)"
         clip-rule="evenodd"
         id="path10" />
    </clipPath>
    <clipPath
       clipPathUnits="userSpaceOnUse"
       id="clipPath12">
      <path
         d="M 0,0.16 V 1122.5601 H 793.59998 V 0.16 Z"
         transform="translate(-508.16,-576.96003)"
         clip-rule="evenodd"
         id="path12" />
    </clipPath>
    <clipPath
       clipPathUnits="userSpaceOnUse"
       id="clipPath14">
      <path
         d="M 0,0.16 V 1122.5601 H 793.59998 V 0.16 Z"
         transform="translate(-621.44,-576.96003)"
         clip-rule="evenodd"
         id="path14" />
    </clipPath>
  </defs>
  <sodipodi:namedview
     id="namedview1"
     pagecolor="#505050"
     bordercolor="#eeeeee"
     borderopacity="1"
     inkscape:showpageshadow="0"
     inkscape:pageopacity="0"
     inkscape:pagecheckerboard="0"
     inkscape:deskcolor="#505050">
    <inkscape:page
       x="0"
       y="0"
       inkscape:label="1"
       id="page1"
       width="510.93332"
       height="248.26666"
       margin="0"
       bleed="0" />
  </sodipodi:namedview>
  <g
     id="g1"
     inkscape:groupmode="layer"
     inkscape:label="1">
    <path
       id="path1"
       d="M 167.03999,694.40002 H 620.15997"
       style="fill:none;stroke:#000000;stroke-width:26.4;stroke-linecap:round;stroke-linejoin:round;stroke-miterlimit:10;stroke-dasharray:none;stroke-opacity:1"
       transform="translate(0,-142.82673)"
       clip-path="url(#clipPath2)" />
    <path
       id="path3"
       d="m 167.03999,656.64001 v 75.51996"
       style="fill:none;stroke:#000000;stroke-width:26.4;stroke-linecap:round;stroke-linejoin:round;stroke-miterlimit:10;stroke-dasharray:none;stroke-opacity:1"
       transform="translate(0,-142.82673)"
       clip-path="url(#clipPath4)" />
    <path
       id="path5"
       d="m 620.15997,656.64001 v 75.51996"
       style="fill:none;stroke:#000000;stroke-width:26.4;stroke-linecap:round;stroke-linejoin:round;stroke-miterlimit:10;stroke-dasharray:none;stroke-opacity:1"
       transform="translate(0,-142.82673)"
       clip-path="url(#clipPath6)" />
    <path
       id="path7"
       d="m 0,0 -3.04,-5.12 -3.04,-4.8 -3.2,-4.32 -3.2,-3.84 -3.2,-3.360001 L -19.040001,-24.32 -22.4,-26.879999 l -3.36,-2.08 -3.520001,-1.440001 -3.359998,-1.12 -3.520001,-0.64 -3.36,-0.16 -3.520001,0.32 -3.52,0.799999 -3.359997,1.440001 -3.360001,1.76 -3.52,2.24 L -60.16,-23.200001 -63.360001,-20 l -3.199997,3.68 -3.200004,4 -3.199997,4.48 L -76,-2.88 l -3.040001,5.28 -2.879997,5.76 -2.720001,6.08 -2.720002,6.559999 -2.559997,6.880001 -2.560005,7.200001 -2.399994,7.520001 -2.240006,7.84 -2.079994,8.16 -2.080003,8.479995 -1.92,8.64 -1.76,9.120002 -1.6,9.120003 -1.44,9.439998 -1.28,9.6 -1.12,9.76"
       style="fill:none;stroke:#000000;stroke-width:26.4;stroke-linecap:round;stroke-linejoin:round;stroke-miterlimit:10;stroke-dasharray:none;stroke-opacity:1"
       transform="translate(505.44,430.93328)"
       clip-path="url(#clipPath8)" />
    <path
       id="path9"
       d="M 0,0 -1.28,-9.76 -2.56,-19.360001 -4,-28.799999 -5.6,-37.919998 -7.36,-46.880001 -9.28,-55.68 -11.2,-64.160004 -13.44,-72.32 l -2.24,-7.840004 -2.4,-7.519996 -2.4,-7.199997 -2.720001,-6.880003 -2.559999,-6.56 -2.879999,-6.08 -2.880001,-5.76 -3.040001,-5.28 -3.039997,-4.95999 -3.040001,-4.48001 -3.200001,-4 -3.200001,-3.68 -3.360001,-3.19999 -3.359996,-2.56002 -3.360001,-2.23999 -3.360001,-1.76001 -3.52,-1.28 -3.519997,-0.95999 -3.36,-0.32 -3.520005,0.16 -3.36,0.64 -3.519997,1.11999 -3.36,1.44001 -3.520005,2.08 -3.359993,2.56 -3.200004,2.88 -3.360001,3.36 -3.199998,3.84 -3.2,4.32 -3.04,4.8 -3.04,5.12"
       style="fill:none;stroke:#000000;stroke-width:26.4;stroke-linecap:round;stroke-linejoin:round;stroke-miterlimit:10;stroke-dasharray:none;stroke-opacity:1"
       transform="translate(389.76001,555.41326)"
       clip-path="url(#clipPath10)" />
    <path
       id="path11"
       d="m 0,0 2.08,4.32 2.4,4.16 2.56,4 3.04,3.84 3.36,3.52 3.519999,3.200001 3.68,3.039999 4,2.559999 4.32,2.400002 4.32,1.919998 4.479999,1.760002 L 42.400002,36 l 4.639999,0.959999 4.799999,0.48 4.799999,0.159999 4.8,-0.159999 4.799999,-0.48 L 71.040001,36 75.68,34.720001 l 4.480004,-1.760002 4.319999,-1.919998 4.159996,-2.400002 4,-2.559999 3.840004,-3.039999 L 100,19.84 l 3.36,-3.52 2.88,-3.84 2.72,-4 2.4,-4.16 1.92,-4.32"
       style="fill:none;stroke:#000000;stroke-width:26.4;stroke-linecap:round;stroke-linejoin:round;stroke-miterlimit:10;stroke-dasharray:none;stroke-opacity:1"
       transform="translate(508.16,434.1333)"
       clip-path="url(#clipPath12)" />
    <path
       id="path13"
       d="M 0,0 1.76,-1.92 3.2,-4 l 1.12,-2.08 0.96,-2.24 0.64,-2.4 0.48,-2.56 0.16,-2.4 -0.16,-2.4 -0.32,-2.559999 -0.64,-2.400002 -0.96,-2.24 L 3.2,-27.52 l -1.28,-1.920001 -1.76,-1.92 -1.76,-1.599998 -1.92,-1.600002 L -5.76,-35.68 -8,-36.639999 l -2.4,-0.8 -2.4,-0.479999 -2.4,-0.160004 -2.56,0.160004 -2.4,0.32 -2.399999,0.639999 -2.4,0.959999 -2.080002,1.119999 -2.08,1.280003 -1.92,1.599998 -1.759998,1.92 -1.440003,1.92 -1.279998,2.08 -0.96,2.4 -0.799999,2.239999 -0.479999,2.560002"
       style="fill:none;stroke:#000000;stroke-width:26.4;stroke-linecap:round;stroke-linejoin:round;stroke-miterlimit:10;stroke-dasharray:none;stroke-opacity:1"
       transform="translate(621.44,434.1333)"
       clip-path="url(#clipPath14)" />
  </g>
</svg>
