<?xml version="1.0" encoding="UTF-8" standalone="no"?>
<!-- Created with Inkscape (http://www.inkscape.org/) -->

<svg
   version="1.1"
   id="svg1"
   width="605.65332"
   height="469.84"
   viewBox="0 0 605.65332 469.84"
   sodipodi:docname="Month9.pdf"
   xmlns:inkscape="http://www.inkscape.org/namespaces/inkscape"
   xmlns:sodipodi="http://sodipodi.sourceforge.net/DTD/sodipodi-0.dtd"
   xmlns="http://www.w3.org/2000/svg"
   xmlns:svg="http://www.w3.org/2000/svg">
  <defs
     id="defs1">
    <clipPath
       clipPathUnits="userSpaceOnUse"
       id="clipPath2">
      <path
         d="M 0,0.16 V 1122.5601 H 793.59998 V 0.16 Z"
         clip-rule="evenodd"
         id="path2" />
    </clipPath>
    <clipPath
       clipPathUnits="userSpaceOnUse"
       id="clipPath4">
      <path
         d="M 0,0.16 V 1122.5601 H 793.59998 V 0.16 Z"
         clip-rule="evenodd"
         id="path4" />
    </clipPath>
    <clipPath
       clipPathUnits="userSpaceOnUse"
       id="clipPath6">
      <path
         d="M 0,0.16 V 1122.5601 H 793.59998 V 0.16 Z"
         clip-rule="evenodd"
         id="path6" />
    </clipPath>
    <clipPath
       clipPathUnits="userSpaceOnUse"
       id="clipPath8">
      <path
         d="M 0,0.16 V 1122.5601 H 793.59998 V 0.16 Z"
         clip-rule="evenodd"
         id="path8" />
    </clipPath>
    <clipPath
       clipPathUnits="userSpaceOnUse"
       id="clipPath10">
      <path
         d="M 0,0.16 V 1122.5601 H 793.59998 V 0.16 Z"
         transform="translate(-530.23999,-842.56)"
         clip-rule="evenodd"
         id="path10" />
    </clipPath>
  </defs>
  <sodipodi:namedview
     id="namedview1"
     pagecolor="#505050"
     bordercolor="#eeeeee"
     borderopacity="1"
     inkscape:showpageshadow="0"
     inkscape:pageopacity="0"
     inkscape:pagecheckerboard="0"
     inkscape:deskcolor="#505050">
    <inkscape:page
       x="0"
       y="0"
       inkscape:label="1"
       id="page1"
       width="605.65332"
       height="469.84"
       margin="0"
       bleed="0" />
  </sodipodi:namedview>
  <g
     id="g1"
     inkscape:groupmode="layer"
     inkscape:label="1">
    <path
       id="path1"
       d="M 118.88,678.71997 H 526.56"
       style="fill:none;stroke:#000000;stroke-width:26.4;stroke-linecap:round;stroke-linejoin:round;stroke-miterlimit:10;stroke-dasharray:none;stroke-opacity:1"
       transform="translate(0,-150.82673)"
       clip-path="url(#clipPath2)" />
    <path
       id="path3"
       d="m 118.88,644.79999 v 68"
       style="fill:none;stroke:#000000;stroke-width:26.4;stroke-linecap:round;stroke-linejoin:round;stroke-miterlimit:10;stroke-dasharray:none;stroke-opacity:1"
       transform="translate(0,-150.82673)"
       clip-path="url(#clipPath4)" />
    <path
       id="path5"
       d="m 188.64,525.59998 134.56001,150.88"
       style="fill:none;stroke:#000000;stroke-width:26.4;stroke-linecap:round;stroke-linejoin:round;stroke-miterlimit:10;stroke-dasharray:none;stroke-opacity:1"
       transform="translate(0,-150.82673)"
       clip-path="url(#clipPath6)" />
    <path
       id="path7"
       d="M 323.20001,677.28003 460.16,524"
       style="fill:none;stroke:#000000;stroke-width:26.4;stroke-linecap:round;stroke-linejoin:round;stroke-miterlimit:10;stroke-dasharray:none;stroke-opacity:1"
       transform="translate(0,-150.82673)"
       clip-path="url(#clipPath8)" />
    <path
       id="path9"
       d="m 0,0 7.36,-8.8 7.2,-8.96 7.2,-9.280001 L 28.799999,-36.48 35.68,-46.080002 42.560001,-55.84 49.119999,-65.919998 55.68,-76 62.080002,-86.239998 68.160004,-96.639999 74.080002,-107.2 80,-117.76 l 5.599998,-10.56001 5.279999,-10.71998 5.120003,-10.72 4.96,-10.72001 4.64,-10.55999 4.48,-10.72 4.16,-10.56002 3.84,-10.55999 3.68,-10.4 3.36,-10.39999 3.04,-10.24001 2.87999,-10.08 2.40001,-9.92 2.23999,-9.75999 1.92002,-9.60001 1.59999,-9.44 1.28,-9.12 0.96,-8.80001 0.8,-8.79999 0.32,-8.32001 v -8.16 l -0.16001,-7.84 -0.64,-7.51999 -0.79998,-7.20001 -1.28002,-6.72 -1.43999,-6.56 -1.76,-6.23999 -2.08001,-5.76001 -2.39999,-5.44 -2.72,-4.95999 -3.04,-4.63999 -3.2,-4.32001 -3.52,-3.67999 -3.84,-3.52002 -4,-2.88 -4.32,-2.56 L 102.72,-408 97.919998,-409.60001 92.800003,-410.88 87.519997,-411.67999 82.080002,-412.16 76.32,-412 70.400002,-411.51999 64.32,-410.56 l -6.239998,1.44 -6.400002,1.76001 -6.720001,2.23999 -6.719997,2.72001 -6.880001,3.04 -6.880001,3.51999 -7.199999,4 -7.200001,4.32001 -7.2,4.79999 -7.36,5.11999 L -12,-372 l -7.360001,5.76001 -7.519998,6.39999 -7.520003,6.56 -7.68,6.88001 -7.519996,7.35998 -7.520001,7.68002 -7.360004,7.84"
       style="fill:none;stroke:#000000;stroke-width:26.4;stroke-linecap:round;stroke-linejoin:round;stroke-miterlimit:10;stroke-dasharray:none;stroke-opacity:1"
       transform="translate(530.23999,691.73327)"
       clip-path="url(#clipPath10)" />
  </g>
</svg>
