<?xml version="1.0" encoding="UTF-8" standalone="no"?>
<!-- Created with Inkscape (http://www.inkscape.org/) -->

<svg
   version="1.1"
   id="svg1"
   width="413.54666"
   height="476.51999"
   viewBox="0 0 413.54666 476.51999"
   sodipodi:docname="Night6.pdf"
   xmlns:inkscape="http://www.inkscape.org/namespaces/inkscape"
   xmlns:sodipodi="http://sodipodi.sourceforge.net/DTD/sodipodi-0.dtd"
   xmlns="http://www.w3.org/2000/svg"
   xmlns:svg="http://www.w3.org/2000/svg">
  <defs
     id="defs1">
    <clipPath
       clipPathUnits="userSpaceOnUse"
       id="clipPath2">
      <path
         d="M -215.36,-410.88 V 711.52002 H 578.23999 V -410.88 Z"
         clip-rule="evenodd"
         id="path2" />
    </clipPath>
  </defs>
  <sodipodi:namedview
     id="namedview1"
     pagecolor="#505050"
     bordercolor="#eeeeee"
     borderopacity="1"
     inkscape:showpageshadow="0"
     inkscape:pageopacity="0"
     inkscape:pagecheckerboard="0"
     inkscape:deskcolor="#505050">
    <inkscape:page
       x="0"
       y="0"
       inkscape:label="1"
       id="page1"
       width="413.54666"
       height="476.51999"
       margin="0"
       bleed="0" />
  </sodipodi:namedview>
  <g
     id="g1"
     inkscape:groupmode="layer"
     inkscape:label="1">
    <path
       id="path1"
       d="m 0,0 4,2.4 6.72,4.16 6.560001,4 6.399999,3.84 6.56,3.68 6.559999,3.68 6.720001,3.520001 6.720002,3.679998 7.199997,3.520001 5.440002,2.560001 2.719997,1.279999 7.680001,3.68 9.760002,4.32 9.919998,4.16 10.240001,4.479999 8.8,3.84 2.24,0.959999 6.56,3.040001 14.23999,6.560002 8.16001,3.519996 4.64,1.760002 8.32,3.199997 2.08,0.640007 2.56,0.959999 7.68,2.399994 8.48001,2.560006 9.59999,2.400001 10.88,2.559998 11.84,2.239997 8.47999,1.279999 3.04001,0.32 9.12,0.960007 8.96,0.479995 8.79999,0.160004 L 256,92.32 l 8.32001,-0.800003 7.83999,-1.279999 3.68,-0.799996 2.88,-0.639999 7.67999,-2.080002 7.84,-2.559997 8.16,-3.040001 7.84,-3.200005 6.88001,-3.36 5.76,-3.040001 3.68,-1.919999 1.92001,-1.119995 4,-2.560005 3.67999,-2.559997 3.51999,-2.720002 3.20001,-2.880001 3.19999,-3.039997 2.88,-3.52 2.88001,-4 0.32,-0.48 0.79999,-1.280002 2.4,-4.16 L 357.76001,36.16 359.67999,30.879999 361.28,25.6 362.23999,20.16 362.72,16 362.88,14.24 V 9.12 L 362.39999,4 361.60001,-0.96 360.16,-5.92 l -1.76001,-4.8 -2.23999,-4.64 -1.44,-2.72 -0.95999,-1.6 -3.04001,-4.48 -3.36001,-4.32 -4,-4.319999 -4.31998,-4.16 -4.96002,-4.16 -5.28,-4 L 324.32001,-48 l -2.08002,-1.279999 -6.23999,-3.84 -6.72,-3.360001 -7.04001,-3.04 -7.03998,-2.560002 -6.88,-2.080002 -6.88001,-1.599998 -4.32,-0.64 -2.56,-0.319999 -6.4,-0.479996 -6.55999,-0.160004 -6.56002,0.32 -6.55999,0.800003 -6.72001,1.279999 -6.39999,1.599998 -6.24001,2.080002 -1.59999,0.48 -2.08,0.959999 -5.76001,2.560001 -5.59999,2.879997 -5.6,3.360001 -5.76,3.84 -5.75999,4.32 -5.92002,4.799999 -0.64,0.480004 -1.43998,1.279998 -4.48001,4 -5.92,5.92 -4.95999,5.600001 -4.16001,5.439999 -3.36,5.28 -2.24,3.84 -1.12,2.08 -2.56,5.44 -2.55999,6.08 -2.56002,6.72 -2.23999,7.360001 -1.92,7.68 -1.44,7.839998 -0.8,6.240002 -0.31999,2.559997 L 148,52.799999 V 59.52 l 0.48,6.719998 0.8,6.400001 1.11999,5.919999 L 152,84.32 l 1.75999,5.120002 0.48001,1.119996 0.79999,1.920005 2.24001,4.479996 2.72,4.320001 3.03999,4.16 3.52001,4.32 4,4.16 4.8,4.48 3.84,3.2 1.6,1.44 5.12,4 7.19999,5.28001 8.16001,5.59999 8.96,5.6 5.43999,3.04 1.76001,0.96 5.44,2.87999 6.72001,3.36 8.31999,4 6.24,3.20002 6.08,3.36 1.6,1.11999 4.95999,3.2 5.6,4.16 5.28,4.48 4.80002,4.64 4.47998,4.96 4.32001,5.12 0.64001,0.96001 1.43998,1.91999 3.68002,5.6 3.51999,5.91999 3.36001,6.56002 3.03998,6.71998 2.56,6.88001 1.92001,6.88 1.44,6.56 0.16001,0.16 0.31998,2.56 0.80001,6.39999 0.32001,6.24001 -0.16,6.56001 -0.64002,6.72 -0.95999,6.71998 -1.44,6.72 -1.92001,6.88 -0.79999,2.4 -0.79999,2.40002 -2.72,6.72 -3.04001,6.56 -3.35999,6.23999 -3.84002,6.07999 -4.15998,5.6 -4.48001,5.44 -3.83999,4.16001 -1.92002,1.76001 -5.11999,4.79999 -5.60001,4.32 -5.75999,4 -5.92,3.51999 -6.24001,3.20001 -6.55999,2.88001 -6.56,2.39999 -3.36,1.12 -2.88001,0.79999 -7.03999,1.76001 -7.2,1.27999 -7.52,0.96 -7.67999,0.48001 H 185.44 l -7.2,-0.48001 -7.04,-0.79999 -6.23999,-1.28 -2.88001,-0.79999 -5.92,-1.76001 -5.92,-2.23999 -5.76,-2.72 -5.76,-3.04001 -5.75999,-3.67999 L 127.2,346.88 l -5.76,-4.64001 -5.76,-5.11999 -0.64,-0.47999 -2.08,-2.08001 -2.88,-2.88001 -2.24,-2.55999 -4,-4.79999 -3.36,-4.80002 -2.880002,-4.79999 -2.720001,-4.79999 -2.399994,-5.12002 -2.240005,-5.12 -1.919998,-5.6 -2.080002,-5.59998 -1.759995,-6.08002 L 82.720001,276.16 81.120003,269.60001 79.68,262.72 l -1.599998,-7.2 -0.160004,-1.28"
       style="fill:none;stroke:#000000;stroke-width:26.4;stroke-linecap:round;stroke-linejoin:round;stroke-miterlimit:10;stroke-dasharray:none;stroke-opacity:1"
       transform="translate(25.920001,86.67995)"
       clip-path="url(#clipPath2)" />
  </g>
</svg>
