<?xml version="1.0" encoding="UTF-8" standalone="no"?>
<!-- Created with Inkscape (http://www.inkscape.org/) -->

<svg
   version="1.1"
   id="svg1"
   width="497.60001"
   height="359.06668"
   viewBox="0 0 497.60001 359.06668"
   sodipodi:docname="Night7.pdf"
   xmlns:inkscape="http://www.inkscape.org/namespaces/inkscape"
   xmlns:sodipodi="http://sodipodi.sourceforge.net/DTD/sodipodi-0.dtd"
   xmlns="http://www.w3.org/2000/svg"
   xmlns:svg="http://www.w3.org/2000/svg">
  <defs
     id="defs1">
    <clipPath
       clipPathUnits="userSpaceOnUse"
       id="clipPath2">
      <path
         d="M 0,0.16 V 1122.5601 H 793.59998 V 0.16 Z"
         transform="translate(-287.83999,-427.84)"
         clip-rule="evenodd"
         id="path2" />
    </clipPath>
    <clipPath
       clipPathUnits="userSpaceOnUse"
       id="clipPath4">
      <path
         d="M 0,0.16 V 1122.5601 H 793.59998 V 0.16 Z"
         transform="translate(-403.83999,-515.67999)"
         clip-rule="evenodd"
         id="path4" />
    </clipPath>
    <clipPath
       clipPathUnits="userSpaceOnUse"
       id="clipPath6">
      <path
         d="M 0,0.16 V 1122.5601 H 793.59998 V 0.16 Z"
         transform="translate(-3.3333333e-6)"
         clip-rule="evenodd"
         id="path6" />
    </clipPath>
    <clipPath
       clipPathUnits="userSpaceOnUse"
       id="clipPath8">
      <path
         d="M 0,0.16 V 1122.5601 H 793.59998 V 0.16 Z"
         transform="translate(-3.3333333e-6)"
         clip-rule="evenodd"
         id="path8" />
    </clipPath>
    <clipPath
       clipPathUnits="userSpaceOnUse"
       id="clipPath10">
      <path
         d="M 0,0.16 V 1122.5601 H 793.59998 V 0.16 Z"
         transform="translate(-3.3333333e-6)"
         clip-rule="evenodd"
         id="path10" />
    </clipPath>
  </defs>
  <sodipodi:namedview
     id="namedview1"
     pagecolor="#505050"
     bordercolor="#eeeeee"
     borderopacity="1"
     inkscape:showpageshadow="0"
     inkscape:pageopacity="0"
     inkscape:pagecheckerboard="0"
     inkscape:deskcolor="#505050">
    <inkscape:page
       x="0"
       y="0"
       inkscape:label="1"
       id="page1"
       width="497.60001"
       height="359.06668"
       margin="0"
       bleed="0" />
  </sodipodi:namedview>
  <g
     id="g1"
     inkscape:groupmode="layer"
     inkscape:label="1">
    <path
       id="path1"
       d="m 0,0 -4.48,8.48 -4.32,8.800001 -4.32,8.959999 -4.000001,8.960001 -4,9.119999 -3.839998,9.279998 -3.68,9.280003 -3.680001,9.280003 -3.36,9.439994 -3.200001,9.279999 -3.039997,9.440003 -2.880001,9.28 -2.720001,9.28 -2.399998,9.12 -2.400002,9.11999 -2.080002,8.96001 -1.759998,8.8 -1.759998,8.64 -1.440003,8.48 -1.119999,8.32001 -1.119998,8 -0.640004,7.83999 -0.639999,7.68 -0.32,7.19999 v 7.04001 6.72 l 0.48,6.4 0.479999,6.08 0.960003,5.75999 0.959999,5.28002 1.279999,4.95999 1.440003,4.64001 1.759998,4.31998 1.920002,3.68002 2.079998,3.51999 2.400001,2.88001 2.559998,2.55999 2.720001,2.07999 2.880001,1.76001 3.039997,1.28 3.360001,0.79999 L -31.52,281.12 h 3.68 l 3.68,-0.47999 3.84,-1.12002 4,-1.28 4.16,-1.91998 4.32,-2.24002 4.32,-2.72 4.48,-3.19999 4.48,-3.51999 4.64,-3.84002 4.64,-4.47998 4.640001,-4.64002 L 24.16,246.56 28.959999,241.11999 33.759998,235.2 38.720001,228.96001 43.52,222.56 l 4.8,-6.88001 4.799999,-7.03999 4.799999,-7.52001 4.640003,-7.51998 4.8,-8 4.479995,-8.16001 4.640007,-8.32001 4.479996,-8.47999 4.32,-8.8 4.160003,-8.80001 4.159996,-8.95999 4,-9.12 3.840002,-9.28 3.84,-9.28 3.52,-9.279997 3.52,-9.440003"
       style="fill:none;stroke:#000000;stroke-width:26.4;stroke-linecap:round;stroke-linejoin:round;stroke-miterlimit:10;stroke-dasharray:none;stroke-opacity:1"
       transform="translate(138.42666,44.759937)"
       clip-path="url(#clipPath2)" />
    <path
       id="path3"
       d="m 0,0 2.56,9.6 2.88,9.760001 3.04,9.599998 3.2,9.440003 3.2,9.439998 3.52,9.439999 3.52,9.120003 3.68,9.119995 3.680001,8.960006 3.999998,8.64 3.84,8.639997 4.16,8.16 4,8.16 4.319999,7.68 4.16,7.52 4.320004,7.2 4.32,6.88 4.319999,6.56 4.479996,6.24 4.32,5.76 4.319999,5.44 4.320008,5.12 4.319999,4.8 4.32,4.16 4.32,3.84 4.159997,3.52 4.16,3.04 4,2.55999 4,2.08001 4,1.6 3.68,1.28 3.68,0.64 3.68,0.32001 3.36,-0.16001 3.36,-0.64 3.19999,-1.12001 2.88001,-1.43998 2.88,-2.08001 2.72,-2.4 2.56,-2.87999 2.4,-3.36001 2.24,-3.84001 1.92,-4.15999 1.92,-4.63999 1.6,-4.96001 1.44001,-5.28 1.11999,-5.75999 1.12,-6.24001 0.8,-6.39999 0.64,-6.72001 0.47999,-7.20001 L 165.28,127.68 v -7.84 L 165.11999,112 164.64,103.68 164,95.199997 163.2,86.559998 162.08,77.760002 160.96001,68.639999 159.52,59.52 157.92,50.080002 156,40.639999 154.08,31.200001 151.84,21.6 l -2.4,-9.6 -2.56,-9.76 -2.72,-9.6 -2.72,-9.599999 -3.04001,-9.6 L 135.2,-36.16 l -3.36,-9.439998 -3.36,-9.280003 -3.68,-9.280003 -3.68,-8.959999 -3.68,-8.959999 -4,-8.639999"
       style="fill:none;stroke:#000000;stroke-width:26.4;stroke-linecap:round;stroke-linejoin:round;stroke-miterlimit:10;stroke-dasharray:none;stroke-opacity:1"
       transform="translate(254.42666,132.59993)"
       clip-path="url(#clipPath4)" />
    <path
       id="path5"
       d="M 170.24,421.44 H 623.35998"
       style="fill:none;stroke:#000000;stroke-width:26.4;stroke-linecap:round;stroke-linejoin:round;stroke-miterlimit:10;stroke-dasharray:none;stroke-opacity:1"
       transform="translate(-149.41333,-383.08006)"
       clip-path="url(#clipPath6)" />
    <path
       id="path7"
       d="m 170.24,402.56 v 37.76001"
       style="fill:none;stroke:#000000;stroke-width:26.4;stroke-linecap:round;stroke-linejoin:round;stroke-miterlimit:10;stroke-dasharray:none;stroke-opacity:1"
       transform="translate(-149.41333,-383.08006)"
       clip-path="url(#clipPath8)" />
    <path
       id="path9"
       d="m 623.35998,402.56 v 37.76001"
       style="fill:none;stroke:#000000;stroke-width:26.4;stroke-linecap:round;stroke-linejoin:round;stroke-miterlimit:10;stroke-dasharray:none;stroke-opacity:1"
       transform="translate(-149.41333,-383.08006)"
       clip-path="url(#clipPath10)" />
  </g>
</svg>
