<?xml version="1.0" encoding="UTF-8" standalone="no"?>
<!-- Created with Inkscape (http://www.inkscape.org/) -->

<svg
   version="1.1"
   id="svg1"
   width="353.51999"
   height="497.88"
   viewBox="0 0 353.51999 497.88"
   sodipodi:docname="Spring.pdf"
   xmlns:inkscape="http://www.inkscape.org/namespaces/inkscape"
   xmlns:sodipodi="http://sodipodi.sourceforge.net/DTD/sodipodi-0.dtd"
   xmlns="http://www.w3.org/2000/svg"
   xmlns:svg="http://www.w3.org/2000/svg">
  <defs
     id="defs1">
    <clipPath
       clipPathUnits="userSpaceOnUse"
       id="clipPath2">
      <path
         d="M 0,0.16 V 1122.5601 H 793.59998 V 0.16 Z"
         transform="translate(-245.75999,-334.72)"
         clip-rule="evenodd"
         id="path2" />
    </clipPath>
    <clipPath
       clipPathUnits="userSpaceOnUse"
       id="clipPath4">
      <path
         d="M 0,0.16 V 1122.5601 H 793.59998 V 0.16 Z"
         clip-rule="evenodd"
         id="path4" />
    </clipPath>
    <clipPath
       clipPathUnits="userSpaceOnUse"
       id="clipPath6">
      <path
         d="M 0,0.16 V 1122.5601 H 793.59998 V 0.16 Z"
         clip-rule="evenodd"
         id="path6" />
    </clipPath>
  </defs>
  <sodipodi:namedview
     id="namedview1"
     pagecolor="#505050"
     bordercolor="#eeeeee"
     borderopacity="1"
     inkscape:showpageshadow="0"
     inkscape:pageopacity="0"
     inkscape:pagecheckerboard="0"
     inkscape:deskcolor="#505050">
    <inkscape:page
       x="0"
       y="0"
       inkscape:label="1"
       id="page1"
       width="353.51999"
       height="497.88"
       margin="0"
       bleed="0" />
  </sodipodi:namedview>
  <g
     id="g1"
     inkscape:groupmode="layer"
     inkscape:label="1">
    <path
       id="path1"
       d="m 0,0 0.32,12.16 0.64,12.16 1.28,12.16 1.76,12 2.24,12 L 8.8,72.32 12,84 l 3.68,11.68 4,11.52 4.48,11.2 5.120001,11.20001 5.44,10.87999 5.759999,10.55999 6.400001,10.40001 6.719997,10.23999 7.040001,9.76001 7.520005,9.59999 7.839996,9.28002 8.32,8.95999 8.480003,8.64 8.959997,8.16 9.28,8 9.6,7.36 9.92,7.2 10.08,6.72 10.39999,6.24001 10.72,5.91998 10.88001,5.44 11.03999,4.96002 11.36,4.47998 11.36,4.16001 11.68001,3.67999 11.67999,3.04001 12,2.72 11.84002,2.23999 12.16,1.60001 12,1.28 12.16,0.80001 12.15998,0.15998"
       style="fill:none;stroke:#000000;stroke-width:26.4;stroke-linecap:round;stroke-linejoin:round;stroke-miterlimit:10;stroke-dasharray:none;stroke-opacity:1"
       transform="translate(245.75999,340.06661)"
       clip-path="url(#clipPath2)" />
    <path
       id="path3"
       d="M 283.51999,448 547.84003,334.72"
       style="fill:none;stroke:#000000;stroke-width:26.4;stroke-linecap:round;stroke-linejoin:round;stroke-miterlimit:10;stroke-dasharray:none;stroke-opacity:1"
       transform="translate(0,5.346608)"
       clip-path="url(#clipPath4)" />
    <path
       id="path5"
       d="M 547.84003,334.72 359.04001,787.84003"
       style="fill:none;stroke:#000000;stroke-width:26.4;stroke-linecap:round;stroke-linejoin:round;stroke-miterlimit:10;stroke-dasharray:none;stroke-opacity:1"
       transform="translate(0,5.346608)"
       clip-path="url(#clipPath6)" />
  </g>
</svg>
