<?xml version="1.0" encoding="UTF-8" standalone="no"?>
<!-- Created with Inkscape (http://www.inkscape.org/) -->

<svg
   version="1.1"
   id="svg1"
   width="496.26666"
   height="412.45334"
   viewBox="0 0 496.26666 412.45334"
   sodipodi:docname="Summer4.pdf"
   xmlns:inkscape="http://www.inkscape.org/namespaces/inkscape"
   xmlns:sodipodi="http://sodipodi.sourceforge.net/DTD/sodipodi-0.dtd"
   xmlns="http://www.w3.org/2000/svg"
   xmlns:svg="http://www.w3.org/2000/svg">
  <defs
     id="defs1">
    <clipPath
       clipPathUnits="userSpaceOnUse"
       id="clipPath2">
      <path
         d="M 0,0.16 V 1122.5601 H 793.59998 V 0.16 Z"
         transform="translate(-253.28,-550.23999)"
         clip-rule="evenodd"
         id="path2" />
    </clipPath>
    <clipPath
       clipPathUnits="userSpaceOnUse"
       id="clipPath4">
      <path
         d="M 0,0.16 V 1122.5601 H 793.59998 V 0.16 Z"
         transform="translate(-253.28,-550.56)"
         clip-rule="evenodd"
         id="path4" />
    </clipPath>
    <clipPath
       clipPathUnits="userSpaceOnUse"
       id="clipPath6">
      <path
         d="M 0,0.16 V 1122.5601 H 793.59998 V 0.16 Z"
         clip-rule="evenodd"
         id="path6" />
    </clipPath>
    <clipPath
       clipPathUnits="userSpaceOnUse"
       id="clipPath8">
      <path
         d="M 0,0.16 V 1122.5601 H 793.59998 V 0.16 Z"
         transform="translate(-585.12,-496.48001)"
         clip-rule="evenodd"
         id="path8" />
    </clipPath>
  </defs>
  <sodipodi:namedview
     id="namedview1"
     pagecolor="#505050"
     bordercolor="#eeeeee"
     borderopacity="1"
     inkscape:showpageshadow="0"
     inkscape:pageopacity="0"
     inkscape:pagecheckerboard="0"
     inkscape:deskcolor="#505050">
    <inkscape:page
       x="0"
       y="0"
       inkscape:label="1"
       id="page1"
       width="496.26666"
       height="412.45334"
       margin="0"
       bleed="0" />
  </sodipodi:namedview>
  <g
     id="g1"
     inkscape:groupmode="layer"
     inkscape:label="1">
    <path
       id="path1"
       d="m 0,0 -1.76,8.96 -1.6,9.12 -1.28,8.960001 -0.96,9.119999 -0.64,8.959999 -0.32,9.120003 0.16,8.959999 0.32,8.960003 0.8,8.639999 0.96,8.799995 1.44,8.480004 1.6,8.319998 2.08,8.16 2.24,8 2.72,7.68 2.88,7.51999 3.2,7.20002 3.52,6.87999 3.840001,6.72 4,6.24 4.319999,5.92 4.64,5.60001 4.799999,5.28 4.959999,4.79998 5.280003,4.48001 5.439998,4.15999 5.600003,3.52001 5.759998,3.36 5.919998,2.72 5.919998,2.39999 6.240006,1.76001 6.239998,1.44 6.400001,1.12 6.399999,0.48 h 6.56 l 6.56,-0.32 6.56,-0.8 6.56,-1.28 6.56,-1.76001 6.40001,-2.23999 6.55999,-2.72 6.4,-3.04001 L 159.67999,196.16 165.92,192.32001 172,188 l 6.08,-4.8 5.76,-5.12 5.76001,-5.44 5.59999,-5.92 5.28,-6.24 5.12001,-6.4 4.95999,-6.88 4.8,-7.2 4.48,-7.36 4.16,-7.68 4,-7.84 3.67999,-8.16 3.52001,-8.16 3.19999,-8.48 2.72,-8.64 2.56,-8.800003 2.24001,-8.959999"
       style="fill:none;stroke:#000000;stroke-width:26.4;stroke-linecap:round;stroke-linejoin:round;stroke-miterlimit:10;stroke-dasharray:none;stroke-opacity:1"
       transform="translate(253.28,502.1866)"
       clip-path="url(#clipPath2)" />
    <path
       id="path3"
       d="m 0,0 0.8,-3.68 0.48,-4 v -4 l -0.16,-3.84 -0.64,-4 -0.8,-3.840001 -1.12,-3.68 -1.44,-3.679998 -1.76,-3.360003 -2.08,-3.359997 -2.24,-3.040001 -2.56,-2.880001 -2.72,-2.720001 L -17.280001,-48.32 -20.32,-50.400002 -23.68,-52.16 l -3.360001,-1.439998 -3.519998,-1.280003 -3.680003,-0.799999 -3.519996,-0.32 -3.680001,-0.16 -3.68,0.16 -3.68,0.639999 -3.680001,0.959999 -3.36,1.120003 -3.360001,1.599999 -3.36,1.920002 -3.039997,2.079998 -2.880005,2.400001 -2.719994,2.719998 -2.400001,3.040001 -2.239998,3.2 -1.920006,3.200001 -1.599999,3.519999 -1.440002,3.68 -0.959999,3.84 -0.799996,3.84 -0.480003,4 -0.159996,3.84 0.32,4 0.479995,3.84 0.800004,3.84 1.119995,3.84 1.440002,3.52 1.760002,3.52 2.080002,3.36 2.239998,3.039999 2.559997,2.880002 L -67.68,24.16 l 2.879997,2.399999 3.200005,2.08 3.199996,1.600001"
       style="fill:none;stroke:#000000;stroke-width:26.4;stroke-linecap:round;stroke-linejoin:round;stroke-miterlimit:10;stroke-dasharray:none;stroke-opacity:1"
       transform="translate(253.28,502.50661)"
       clip-path="url(#clipPath4)" />
    <path
       id="path5"
       d="m 499.20001,616.32001 40.95996,-175.84"
       style="fill:none;stroke:#000000;stroke-width:26.4;stroke-linecap:round;stroke-linejoin:round;stroke-miterlimit:10;stroke-dasharray:none;stroke-opacity:1"
       transform="translate(0,-48.053392)"
       clip-path="url(#clipPath6)" />
    <path
       id="path7"
       d="m 0,0 3.68,-0.48 3.68,-0.96 3.52,-1.12 3.36,-1.6 3.200001,-1.92 3.199998,-2.08 2.880001,-2.4 2.72,-2.72 2.399999,-3.04 2.24,-3.2 1.92,-3.359999 L 34.560001,-26.4 35.84,-30.08 l 1.119999,-3.679998 0.799999,-3.84 0.320004,-4 0.16,-4 -0.16,-4 -0.480004,-3.840001 -0.959999,-3.84 -1.119999,-3.84 -1.439998,-3.52 L 32.32,-68.160004 30.4,-71.519997 28,-74.559998 25.6,-77.440002 22.719999,-80.160004 19.84,-82.559998 16.639999,-84.639999 13.44,-86.400002 9.92,-87.839996 6.4,-88.959999 l -3.52,-0.800003 -3.68,-0.479996 -3.68,-0.160004 -3.68,0.32 -3.68,0.480004 -3.68,0.959999 -3.520001,1.279998 L -22.4,-85.919998 -25.6,-84 l -3.039999,2.239998 -2.880001,2.400001 -2.720002,2.720002 -2.559997,3.040001 -2.080002,3.199996 -1.919998,3.360001 -1.760002,3.520001 -1.279999,3.68 -1.119999,3.68"
       style="fill:none;stroke:#000000;stroke-width:26.4;stroke-linecap:round;stroke-linejoin:round;stroke-miterlimit:10;stroke-dasharray:none;stroke-opacity:1"
       transform="translate(585.12,448.42662)"
       clip-path="url(#clipPath8)" />
  </g>
</svg>
