<?xml version="1.0" encoding="UTF-8" standalone="no"?>
<!-- Created with Inkscape (http://www.inkscape.org/) -->

<svg
   version="1.1"
   id="svg1"
   width="509.60001"
   height="321.67999"
   viewBox="0 0 509.60001 321.67999"
   sodipodi:docname="Summer3.pdf"
   xmlns:inkscape="http://www.inkscape.org/namespaces/inkscape"
   xmlns:sodipodi="http://sodipodi.sourceforge.net/DTD/sodipodi-0.dtd"
   xmlns="http://www.w3.org/2000/svg"
   xmlns:svg="http://www.w3.org/2000/svg">
  <defs
     id="defs1">
    <clipPath
       clipPathUnits="userSpaceOnUse"
       id="clipPath2">
      <path
         d="M 0,0.16 V 1122.5601 H 793.59998 V 0.16 Z"
         transform="translate(-216.8,-652.15997)"
         clip-rule="evenodd"
         id="path2" />
    </clipPath>
    <clipPath
       clipPathUnits="userSpaceOnUse"
       id="clipPath4">
      <path
         d="M 0,0.16 V 1122.5601 H 793.59998 V 0.16 Z"
         transform="translate(-538.88,-475.35998)"
         clip-rule="evenodd"
         id="path4" />
    </clipPath>
    <clipPath
       clipPathUnits="userSpaceOnUse"
       id="clipPath6">
      <path
         d="M 0,0.16 V 1122.5601 H 793.59998 V 0.16 Z"
         transform="translate(-3.3333333e-6)"
         clip-rule="evenodd"
         id="path6" />
    </clipPath>
    <clipPath
       clipPathUnits="userSpaceOnUse"
       id="clipPath8">
      <path
         d="M 0,0.16 V 1122.5601 H 793.59998 V 0.16 Z"
         transform="translate(-3.3333333e-6)"
         clip-rule="evenodd"
         id="path8" />
    </clipPath>
    <clipPath
       clipPathUnits="userSpaceOnUse"
       id="clipPath10">
      <path
         d="M 0,0.16 V 1122.5601 H 793.59998 V 0.16 Z"
         transform="translate(-3.3333333e-6)"
         clip-rule="evenodd"
         id="path10" />
    </clipPath>
  </defs>
  <sodipodi:namedview
     id="namedview1"
     pagecolor="#505050"
     bordercolor="#eeeeee"
     borderopacity="1"
     inkscape:showpageshadow="0"
     inkscape:pageopacity="0"
     inkscape:pagecheckerboard="0"
     inkscape:deskcolor="#505050">
    <inkscape:page
       x="0"
       y="0"
       inkscape:label="1"
       id="page1"
       width="509.60001"
       height="321.67999"
       margin="0"
       bleed="0" />
  </sodipodi:namedview>
  <g
     id="g1"
     inkscape:groupmode="layer"
     inkscape:label="1">
    <path
       id="path1"
       d="m 0,0 3.68,4.8 3.84,4.48 3.84,4.16 4.16,3.840001 4.16,3.359998 L 24,23.68 l 4.48,2.72 4.639999,2.239999 4.479999,1.760001 4.800004,1.44 4.639999,1.119999 4.799999,0.639999 4.799999,0.16 4.8,-0.319999 4.799999,-0.64 L 70.879997,31.84 75.68,30.4 l 4.480004,-1.92 4.639999,-2.4 4.479996,-2.56 4.319999,-3.04 4.160004,-3.520001 L 101.76,13.12 l 4,-4.16 3.68,-4.48 3.68,-4.8 3.36,-5.12 3.2,-5.44 2.88,-5.6 2.72,-5.92 2.56,-6.239999 2.24,-6.400002 2.08,-6.559997 1.76,-6.720002 1.44,-6.880001 1.28,-6.880001 0.96001,-7.199997 0.63999,-7.040001 0.48,-7.36 0.16,-7.199997 -0.16,-7.200005 -0.48,-7.199998 -0.63999,-7.2 -0.96001,-7.04 -1.28,-7.04 -1.44,-6.88 -1.76,-6.72 -2.08,-6.56 -2.24,-6.39999 -2.56,-6.08001 -2.72,-5.91999 -2.88,-5.76001 -3.2,-5.44001 -3.36,-5.11999 -3.52,-4.8 -3.84,-4.48 -3.84,-4.16 -4.159998,-3.84 -4.160004,-3.36 -4.319999,-3.03999 -4.479996,-2.72001 -4.480003,-2.24 -4.64,-1.92 -4.639999,-1.44 -4.800003,-1.12 -4.799999,-0.64 -4.8,-0.32 -4.799999,0.32 -4.639999,0.48 -4.799999,1.11999 -4.640004,1.44001 -4.639999,1.76001 L 28.48,-208 l -4.48,2.56 -4.32,3.04001 -4.16,3.36 -4.16,3.83999 -3.84,4.16001 -3.84,4.47999 -3.52,4.80001 -3.52,4.95999"
       style="fill:none;stroke:#000000;stroke-width:26.4;stroke-linecap:round;stroke-linejoin:round;stroke-miterlimit:10;stroke-dasharray:none;stroke-opacity:1"
       transform="translate(75.38667,251.71991)"
       clip-path="url(#clipPath2)" />
    <path
       id="path3"
       d="m 0,0 -3.36,-4.96 -3.52,-4.8 -3.84,-4.48 -3.84,-4.16 -4.159999,-3.84 -4.16,-3.36 -4.320002,-3.039999 -4.479999,-2.560002 -4.64,-2.399997 -4.479999,-1.760003 -4.799999,-1.439998 -4.640004,-1.119999 -4.799999,-0.480004 -4.799999,-0.319999 -4.799999,0.319999 -4.800003,0.640004 -4.64,1.119999 -4.799995,1.439998 -4.480004,1.920002 L -88,-31.040001 -92.480003,-28.32 l -4.32,3.039999 -4.159997,3.360001 -4,3.84 -4,4.16 -3.68,4.48 -3.68,4.8 -3.36,5.12 -3.2,5.44 -2.88,5.76 -2.72,5.92 -2.55999,6.08 -2.24001,6.4 -2.08,6.559999 -1.75999,6.720002 -1.44001,6.880001 -1.28,7.039997 -0.96,7.040001 -0.64,7.199997 -0.48,7.200004 -0.16,7.199997 0.16,7.200005 0.48,7.359997 0.64,7.04 0.96,7.2 1.28,6.88 1.44001,6.88 1.75999,6.72 2.08,6.55999 2.24001,6.40001 2.55999,6.23999 2.72,5.92002 2.88,5.59999 3.2,5.44 3.36,5.12 3.68,4.8 3.68,4.47999 4,4.16001 4,3.83999 4.159997,3.52001 4.480003,3.04001 4.32,2.55999 4.639999,2.4 4.64,1.92 4.639999,1.44 4.64,0.96001 4.800003,0.63999 4.799999,0.32 4.799999,-0.16001 4.799999,-0.64 4.640004,-1.11999 4.799999,-1.44 4.639999,-1.76 4.48,-2.24 4.479999,-2.72 4.320002,-3.04 4.16,-3.36 4.159999,-3.84 3.84,-4.16 3.84,-4.47999 3.52,-4.80001"
       style="fill:none;stroke:#000000;stroke-width:26.4;stroke-linecap:round;stroke-linejoin:round;stroke-miterlimit:10;stroke-dasharray:none;stroke-opacity:1"
       transform="translate(397.46667,74.919926)"
       clip-path="url(#clipPath4)" />
    <path
       id="path5"
       d="M 170.24,561.28003 H 551.35998"
       style="fill:none;stroke:#000000;stroke-width:26.4;stroke-linecap:round;stroke-linejoin:round;stroke-miterlimit:10;stroke-dasharray:none;stroke-opacity:1"
       transform="translate(-141.41333,-400.44006)"
       clip-path="url(#clipPath6)" />
    <path
       id="path7"
       d="M 540.96002,519.84003 582.23999,602.88"
       style="fill:none;stroke:#000000;stroke-width:26.4;stroke-linecap:round;stroke-linejoin:round;stroke-miterlimit:10;stroke-dasharray:none;stroke-opacity:1"
       transform="translate(-141.41333,-400.44006)"
       clip-path="url(#clipPath8)" />
    <path
       id="path9"
       d="m 582.23999,602.88 41.11999,-83.03997"
       style="fill:none;stroke:#000000;stroke-width:26.4;stroke-linecap:round;stroke-linejoin:round;stroke-miterlimit:10;stroke-dasharray:none;stroke-opacity:1"
       transform="translate(-141.41333,-400.44006)"
       clip-path="url(#clipPath10)" />
  </g>
</svg>
