<?xml version="1.0" encoding="UTF-8" standalone="no"?>
<!-- Created with Inkscape (http://www.inkscape.org/) -->

<svg
   version="1.1"
   id="svg1"
   width="378.88"
   height="345.70667"
   viewBox="0 0 378.88 345.70667"
   sodipodi:docname="Winter.pdf"
   xmlns:inkscape="http://www.inkscape.org/namespaces/inkscape"
   xmlns:sodipodi="http://sodipodi.sourceforge.net/DTD/sodipodi-0.dtd"
   xmlns="http://www.w3.org/2000/svg"
   xmlns:svg="http://www.w3.org/2000/svg">
  <defs
     id="defs1">
    <clipPath
       clipPathUnits="userSpaceOnUse"
       id="clipPath2">
      <path
         d="M 0,0.16 V 1122.5601 H 793.59998 V 0.16 Z"
         transform="translate(-349.60001,-561.59998)"
         clip-rule="evenodd"
         id="path2" />
    </clipPath>
    <clipPath
       clipPathUnits="userSpaceOnUse"
       id="clipPath4">
      <path
         d="M 0,0.16 V 1122.5601 H 793.59998 V 0.16 Z"
         transform="translate(-425.12,-561.59998)"
         clip-rule="evenodd"
         id="path4" />
    </clipPath>
    <clipPath
       clipPathUnits="userSpaceOnUse"
       id="clipPath6">
      <path
         d="M 0,0.16 V 1122.5601 H 793.59998 V 0.16 Z"
         transform="translate(-500.64001,-561.59998)"
         clip-rule="evenodd"
         id="path6" />
    </clipPath>
    <clipPath
       clipPathUnits="userSpaceOnUse"
       id="clipPath8">
      <path
         d="M 0,0.16 V 1122.5601 H 793.59998 V 0.16 Z"
         transform="translate(-349.60001,-637.12)"
         clip-rule="evenodd"
         id="path8" />
    </clipPath>
    <clipPath
       clipPathUnits="userSpaceOnUse"
       id="clipPath10">
      <path
         d="M 0,0.16 V 1122.5601 H 793.59998 V 0.16 Z"
         transform="translate(-425.12,-637.12)"
         clip-rule="evenodd"
         id="path10" />
    </clipPath>
    <clipPath
       clipPathUnits="userSpaceOnUse"
       id="clipPath12">
      <path
         d="M 0,0.16 V 1122.5601 H 793.59998 V 0.16 Z"
         transform="translate(-500.64001,-637.12)"
         clip-rule="evenodd"
         id="path12" />
    </clipPath>
    <clipPath
       clipPathUnits="userSpaceOnUse"
       id="clipPath14">
      <path
         d="M 0,0.16 V 1122.5601 H 793.59998 V 0.16 Z"
         transform="translate(-425.12,-486.07999)"
         clip-rule="evenodd"
         id="path14" />
    </clipPath>
    <clipPath
       clipPathUnits="userSpaceOnUse"
       id="clipPath16">
      <path
         d="M 0,0.16 V 1122.5601 H 793.59998 V 0.16 Z"
         transform="translate(-349.60001,-561.59998)"
         clip-rule="evenodd"
         id="path16" />
    </clipPath>
    <clipPath
       clipPathUnits="userSpaceOnUse"
       id="clipPath18">
      <path
         d="M 0,0.16 V 1122.5601 H 793.59998 V 0.16 Z"
         transform="translate(-425.12,-561.59998)"
         clip-rule="evenodd"
         id="path18" />
    </clipPath>
    <clipPath
       clipPathUnits="userSpaceOnUse"
       id="clipPath20">
      <path
         d="M 0,0.16 V 1122.5601 H 793.59998 V 0.16 Z"
         transform="translate(-500.64001,-561.59998)"
         clip-rule="evenodd"
         id="path20" />
    </clipPath>
    <clipPath
       clipPathUnits="userSpaceOnUse"
       id="clipPath22">
      <path
         d="M 0,0.16 V 1122.5601 H 793.59998 V 0.16 Z"
         transform="translate(-349.60001,-637.12)"
         clip-rule="evenodd"
         id="path22" />
    </clipPath>
    <clipPath
       clipPathUnits="userSpaceOnUse"
       id="clipPath24">
      <path
         d="M 0,0.16 V 1122.5601 H 793.59998 V 0.16 Z"
         transform="translate(-425.12,-637.12)"
         clip-rule="evenodd"
         id="path24" />
    </clipPath>
    <clipPath
       clipPathUnits="userSpaceOnUse"
       id="clipPath26">
      <path
         d="M 0,0.16 V 1122.5601 H 793.59998 V 0.16 Z"
         transform="translate(-500.64001,-637.12)"
         clip-rule="evenodd"
         id="path26" />
    </clipPath>
    <clipPath
       clipPathUnits="userSpaceOnUse"
       id="clipPath28">
      <path
         d="M 0,0.16 V 1122.5601 H 793.59998 V 0.16 Z"
         transform="translate(-425.12,-486.07999)"
         clip-rule="evenodd"
         id="path28" />
    </clipPath>
    <clipPath
       clipPathUnits="userSpaceOnUse"
       id="clipPath30">
      <path
         d="M 0,0.16 V 1122.5601 H 793.59998 V 0.16 Z"
         transform="translate(-544.15997,-557.28003)"
         clip-rule="evenodd"
         id="path30" />
    </clipPath>
    <clipPath
       clipPathUnits="userSpaceOnUse"
       id="clipPath32">
      <path
         d="M 0,0.16 V 1122.5601 H 793.59998 V 0.16 Z"
         clip-rule="evenodd"
         id="path32" />
    </clipPath>
    <clipPath
       clipPathUnits="userSpaceOnUse"
       id="clipPath34">
      <path
         d="M 0,0.16 V 1122.5601 H 793.59998 V 0.16 Z"
         clip-rule="evenodd"
         id="path34" />
    </clipPath>
    <clipPath
       clipPathUnits="userSpaceOnUse"
       id="clipPath36">
      <path
         d="M 0,0.16 V 1122.5601 H 793.59998 V 0.16 Z"
         clip-rule="evenodd"
         id="path36" />
    </clipPath>
    <clipPath
       clipPathUnits="userSpaceOnUse"
       id="clipPath38">
      <path
         d="M 0,0.16 V 1122.5601 H 793.59998 V 0.16 Z"
         clip-rule="evenodd"
         id="path38" />
    </clipPath>
  </defs>
  <sodipodi:namedview
     id="namedview1"
     pagecolor="#505050"
     bordercolor="#eeeeee"
     borderopacity="1"
     inkscape:showpageshadow="0"
     inkscape:pageopacity="0"
     inkscape:pagecheckerboard="0"
     inkscape:deskcolor="#505050">
    <inkscape:page
       x="0"
       y="0"
       inkscape:label="1"
       id="page1"
       width="378.88"
       height="345.70667"
       margin="0"
       bleed="0" />
  </sodipodi:namedview>
  <g
     id="g1"
     inkscape:groupmode="layer"
     inkscape:label="1">
    <path
       id="path1"
       d="m 0,0 -0.16,-3.04 -0.48,-2.88 -0.64,-2.88 -1.12,-2.72 -1.28,-2.72 -1.6,-2.399999 -1.92,-2.400002 -2.08,-2.08 -2.4,-1.759998 -2.4,-1.600001 -2.719999,-1.44 L -19.52,-27.040001 -22.4,-27.68 l -2.880001,-0.48 -3.039999,-0.16 -2.880001,0.16 -2.880001,0.48 -2.879997,0.639999 L -39.84,-25.92 l -2.560002,1.44 -2.559997,1.600001 -2.240002,1.759998 -2.079998,2.08 -1.920002,2.400002 -1.599998,2.399999 -1.280003,2.72 -1.119999,2.72 L -56,-5.92 -56.48,-3.04 -56.639999,0 -56.48,2.88 -56,5.92 l 0.799999,2.72 1.119999,2.88 1.280003,2.56 1.599998,2.559999 1.920002,2.24 2.079998,2.08 2.240002,1.92 2.559997,1.600001 2.560002,1.28 2.880001,1.119999 2.879997,0.800001 2.880001,0.48 2.880001,0.16 3.039999,-0.16 L -22.4,27.68 -19.52,26.879999 -16.799999,25.76 -14.08,24.48 l 2.4,-1.600001 2.4,-1.92 2.08,-2.08 1.92,-2.24 L -3.68,14.08 -2.4,11.52 -1.28,8.64 -0.64,5.92 -0.16,2.88 0,0 v 0 z"
       style="fill:#000000;fill-opacity:1;fill-rule:evenodd;stroke:none"
       transform="translate(144.16001,175.83992)"
       clip-path="url(#clipPath2)" />
    <path
       id="path3"
       d="m 0,0 -0.16,-3.04 -0.48,-2.88 -0.64,-2.88 -1.12,-2.72 -1.28,-2.72 -1.6,-2.399999 -1.92,-2.400002 -2.08,-2.08 -2.4,-1.759998 -2.4,-1.600001 -2.719999,-1.44 L -19.52,-27.040001 -22.4,-27.68 l -2.880001,-0.48 -3.039999,-0.16 -2.880001,0.16 -2.880001,0.48 -2.879997,0.639999 L -39.84,-25.92 l -2.560002,1.44 -2.559997,1.600001 -2.240002,1.759998 -2.079998,2.08 -1.920002,2.400002 -1.599998,2.399999 -1.280003,2.72 -1.119999,2.72 L -56,-5.92 -56.48,-3.04 -56.639999,0 -56.48,2.88 -56,5.92 l 0.799999,2.72 1.119999,2.88 1.280003,2.56 1.599998,2.559999 1.920002,2.24 2.079998,2.08 2.240002,1.92 2.559997,1.600001 2.560002,1.28 2.880001,1.119999 2.879997,0.800001 2.880001,0.48 2.880001,0.16 3.039999,-0.16 L -22.4,27.68 -19.52,26.879999 -16.799999,25.76 -14.08,24.48 l 2.4,-1.600001 2.4,-1.92 2.08,-2.08 1.92,-2.24 L -3.68,14.08 -2.4,11.52 -1.28,8.64 -0.64,5.92 -0.16,2.88 0,0 v 0 z"
       style="fill:#000000;fill-opacity:1;fill-rule:evenodd;stroke:none"
       transform="translate(219.68,175.83992)"
       clip-path="url(#clipPath4)" />
    <path
       id="path5"
       d="m 0,0 -0.16,-3.04 -0.48,-2.88 -0.64,-2.88 -1.12,-2.72 -1.28,-2.72 -1.76,-2.399999 -1.76,-2.400002 -2.08,-2.08 -2.4,-1.759998 -2.4,-1.600001 -2.719999,-1.44 L -19.52,-27.040001 -22.4,-27.68 l -2.880001,-0.48 -3.039999,-0.16 -2.880001,0.16 -3.040001,0.48 -2.719997,0.639999 L -39.84,-25.92 l -2.560002,1.44 -2.559997,1.600001 -2.240002,1.759998 -2.079998,2.08 -1.920002,2.400002 -1.599998,2.399999 -1.280003,2.72 -1.119999,2.72 L -56,-5.92 -56.48,-3.04 -56.639999,0 -56.48,2.88 -56,5.92 l 0.799999,2.72 1.119999,2.88 1.280003,2.56 1.599998,2.559999 1.920002,2.24 2.079998,2.08 2.240002,1.92 2.559997,1.600001 2.560002,1.28 2.880001,1.119999 2.719997,0.800001 3.040001,0.48 2.880001,0.16 3.039999,-0.16 L -22.4,27.68 -19.52,26.879999 -16.799999,25.76 -14.08,24.48 l 2.4,-1.600001 2.4,-1.92 2.08,-2.08 1.76,-2.24 L -3.68,14.08 -2.4,11.52 -1.28,8.64 -0.64,5.92 -0.16,2.88 0,0 v 0 z"
       style="fill:#000000;fill-opacity:1;fill-rule:evenodd;stroke:none"
       transform="translate(295.20001,175.83992)"
       clip-path="url(#clipPath6)" />
    <path
       id="path7"
       d="m 0,0 -0.16,-3.04 -0.48,-2.88 -0.64,-2.88 -1.12,-2.72 -1.28,-2.72 -1.6,-2.399999 -1.92,-2.400002 -2.08,-2.08 -2.4,-1.759998 -2.4,-1.76 L -16.799999,-25.92 -19.52,-27.040001 -22.4,-27.68 l -2.880001,-0.48 -3.039999,-0.16 -2.880001,0.16 -2.880001,0.48 -2.879997,0.639999 L -39.84,-25.92 l -2.560002,1.280001 -2.559997,1.76 -2.240002,1.759998 -2.079998,2.08 -1.920002,2.400002 -1.599998,2.399999 -1.280003,2.72 -1.119999,2.72 L -56,-5.92 -56.48,-3.04 -56.639999,0 -56.48,2.88 -56,5.92 l 0.799999,2.72 1.119999,2.88 1.280003,2.56 1.599998,2.559999 1.920002,2.24 2.079998,2.08 2.240002,1.92 2.559997,1.600001 2.560002,1.28 2.880001,1.119999 2.879997,0.800001 2.880001,0.48 2.880001,0.16 3.039999,-0.16 L -22.4,27.68 -19.52,26.879999 -16.799999,25.76 -14.08,24.48 l 2.4,-1.600001 2.4,-1.92 2.08,-2.08 1.92,-2.24 L -3.68,14.08 -2.4,11.52 -1.28,8.64 -0.64,5.92 -0.16,2.88 0,0 v 0 z"
       style="fill:#000000;fill-opacity:1;fill-rule:evenodd;stroke:none"
       transform="translate(144.16001,251.35994)"
       clip-path="url(#clipPath8)" />
    <path
       id="path9"
       d="m 0,0 -0.16,-3.04 -0.48,-2.88 -0.64,-2.88 -1.12,-2.72 -1.28,-2.72 -1.6,-2.399999 -1.92,-2.400002 -2.08,-2.08 -2.4,-1.759998 -2.4,-1.76 L -16.799999,-25.92 -19.52,-27.040001 -22.4,-27.68 l -2.880001,-0.48 -3.039999,-0.16 -2.880001,0.16 -2.880001,0.48 -2.879997,0.639999 L -39.84,-25.92 l -2.560002,1.280001 -2.559997,1.76 -2.240002,1.759998 -2.079998,2.08 -1.920002,2.400002 -1.599998,2.399999 -1.280003,2.72 -1.119999,2.72 L -56,-5.92 -56.48,-3.04 -56.639999,0 -56.48,2.88 -56,5.92 l 0.799999,2.72 1.119999,2.88 1.280003,2.56 1.599998,2.559999 1.920002,2.24 2.079998,2.08 2.240002,1.92 2.559997,1.600001 2.560002,1.28 2.880001,1.119999 2.879997,0.800001 2.880001,0.48 2.880001,0.16 3.039999,-0.16 L -22.4,27.68 -19.52,26.879999 -16.799999,25.76 -14.08,24.48 l 2.4,-1.600001 2.4,-1.92 2.08,-2.08 1.92,-2.24 L -3.68,14.08 -2.4,11.52 -1.28,8.64 -0.64,5.92 -0.16,2.88 0,0 v 0 z"
       style="fill:#000000;fill-opacity:1;fill-rule:evenodd;stroke:none"
       transform="translate(219.68,251.35994)"
       clip-path="url(#clipPath10)" />
    <path
       id="path11"
       d="m 0,0 -0.16,-3.04 -0.48,-2.88 -0.64,-2.88 -1.12,-2.72 -1.28,-2.72 -1.76,-2.399999 -1.76,-2.400002 -2.08,-2.08 -2.4,-1.759998 -2.4,-1.76 L -16.799999,-25.92 -19.52,-27.040001 -22.4,-27.68 l -2.880001,-0.48 -3.039999,-0.16 -2.880001,0.16 -3.040001,0.48 -2.719997,0.639999 L -39.84,-25.92 l -2.560002,1.280001 -2.559997,1.76 -2.240002,1.759998 -2.079998,2.08 -1.920002,2.400002 -1.599998,2.399999 -1.280003,2.72 -1.119999,2.72 L -56,-5.92 -56.48,-3.04 -56.639999,0 -56.48,2.88 -56,5.92 l 0.799999,2.72 1.119999,2.88 1.280003,2.56 1.599998,2.559999 1.920002,2.24 2.079998,2.08 2.240002,1.92 2.559997,1.600001 2.560002,1.28 2.880001,1.119999 2.719997,0.800001 3.040001,0.48 2.880001,0.16 3.039999,-0.16 L -22.4,27.68 -19.52,26.879999 -16.799999,25.76 -14.08,24.48 l 2.4,-1.600001 2.4,-1.92 2.08,-2.08 1.76,-2.24 L -3.68,14.08 -2.4,11.52 -1.28,8.64 -0.64,5.92 -0.16,2.88 0,0 v 0 z"
       style="fill:#000000;fill-opacity:1;fill-rule:evenodd;stroke:none"
       transform="translate(295.20001,251.35994)"
       clip-path="url(#clipPath12)" />
    <path
       id="path13"
       d="m 0,0 -0.16,-3.04 -0.48,-2.88 -0.64,-2.88 -1.12,-2.72 -1.28,-2.72 -1.6,-2.399999 -1.92,-2.400002 -2.08,-2.08 -2.4,-1.759998 -2.4,-1.600001 -2.719999,-1.44 L -19.52,-27.040001 -22.4,-27.68 l -2.880001,-0.48 -3.039999,-0.16 -2.880001,0.16 -2.880001,0.48 -2.879997,0.639999 L -39.84,-25.92 l -2.560002,1.44 -2.559997,1.600001 -2.240002,1.759998 -2.079998,2.08 -1.920002,2.400002 -1.599998,2.399999 -1.280003,2.72 -1.119999,2.72 L -56,-5.92 -56.48,-3.04 -56.639999,0 -56.48,2.88 -56,5.92 l 0.799999,2.88 1.119999,2.72 1.280003,2.56 1.599998,2.559999 1.920002,2.24 2.079998,2.08 2.240002,1.92 2.559997,1.600001 2.560002,1.28 2.880001,1.119999 2.879997,0.800001 2.880001,0.48 2.880001,0.16 3.039999,-0.16 L -22.4,27.68 -19.52,26.879999 -16.799999,25.76 -14.08,24.48 l 2.4,-1.600001 2.4,-1.92 2.08,-2.08 1.92,-2.24 L -3.68,14.08 -2.4,11.52 -1.28,8.8 -0.64,5.92 -0.16,2.88 0,0 v 0 z"
       style="fill:#000000;fill-opacity:1;fill-rule:evenodd;stroke:none"
       transform="translate(219.68,100.31993)"
       clip-path="url(#clipPath14)" />
    <path
       id="path15"
       d="m 0,0 -0.16,-3.04 -0.48,-2.88 -0.64,-2.88 -1.12,-2.72 -1.28,-2.72 -1.6,-2.399999 -1.92,-2.400002 -2.08,-2.08 -2.4,-1.759998 -2.4,-1.600001 -2.719999,-1.44 L -19.52,-27.040001 -22.4,-27.68 l -2.880001,-0.48 -3.039999,-0.16 -2.880001,0.16 -2.880001,0.48 -2.879997,0.639999 L -39.84,-25.92 l -2.560002,1.44 -2.559997,1.600001 -2.240002,1.759998 -2.079998,2.08 -1.920002,2.400002 -1.599998,2.399999 -1.280003,2.72 -1.119999,2.72 L -56,-5.92 -56.48,-3.04 -56.639999,0 -56.48,2.88 -56,5.92 l 0.799999,2.72 1.119999,2.88 1.280003,2.56 1.599998,2.559999 1.920002,2.24 2.079998,2.08 2.240002,1.92 2.559997,1.600001 2.560002,1.28 2.880001,1.119999 2.879997,0.800001 2.880001,0.48 2.880001,0.16 3.039999,-0.16 L -22.4,27.68 -19.52,26.879999 -16.799999,25.76 -14.08,24.48 l 2.4,-1.600001 2.4,-1.92 2.08,-2.08 1.92,-2.24 L -3.68,14.08 -2.4,11.52 -1.28,8.64 -0.64,5.92 -0.16,2.88 0,0"
       style="fill:none;stroke:#000000;stroke-width:0.64;stroke-linecap:round;stroke-linejoin:round;stroke-miterlimit:10;stroke-dasharray:none;stroke-opacity:1"
       transform="translate(144.16001,175.83992)"
       clip-path="url(#clipPath16)" />
    <path
       id="path17"
       d="m 0,0 -0.16,-3.04 -0.48,-2.88 -0.64,-2.88 -1.12,-2.72 -1.28,-2.72 -1.6,-2.399999 -1.92,-2.400002 -2.08,-2.08 -2.4,-1.759998 -2.4,-1.600001 -2.719999,-1.44 L -19.52,-27.040001 -22.4,-27.68 l -2.880001,-0.48 -3.039999,-0.16 -2.880001,0.16 -2.880001,0.48 -2.879997,0.639999 L -39.84,-25.92 l -2.560002,1.44 -2.559997,1.600001 -2.240002,1.759998 -2.079998,2.08 -1.920002,2.400002 -1.599998,2.399999 -1.280003,2.72 -1.119999,2.72 L -56,-5.92 -56.48,-3.04 -56.639999,0 -56.48,2.88 -56,5.92 l 0.799999,2.72 1.119999,2.88 1.280003,2.56 1.599998,2.559999 1.920002,2.24 2.079998,2.08 2.240002,1.92 2.559997,1.600001 2.560002,1.28 2.880001,1.119999 2.879997,0.800001 2.880001,0.48 2.880001,0.16 3.039999,-0.16 L -22.4,27.68 -19.52,26.879999 -16.799999,25.76 -14.08,24.48 l 2.4,-1.600001 2.4,-1.92 2.08,-2.08 1.92,-2.24 L -3.68,14.08 -2.4,11.52 -1.28,8.64 -0.64,5.92 -0.16,2.88 0,0"
       style="fill:none;stroke:#000000;stroke-width:0.64;stroke-linecap:round;stroke-linejoin:round;stroke-miterlimit:10;stroke-dasharray:none;stroke-opacity:1"
       transform="translate(219.68,175.83992)"
       clip-path="url(#clipPath18)" />
    <path
       id="path19"
       d="m 0,0 -0.16,-3.04 -0.48,-2.88 -0.64,-2.88 -1.12,-2.72 -1.28,-2.72 -1.76,-2.399999 -1.76,-2.400002 -2.08,-2.08 -2.4,-1.759998 -2.4,-1.600001 -2.719999,-1.44 L -19.52,-27.040001 -22.4,-27.68 l -2.880001,-0.48 -3.039999,-0.16 -2.880001,0.16 -3.040001,0.48 -2.719997,0.639999 L -39.84,-25.92 l -2.560002,1.44 -2.559997,1.600001 -2.240002,1.759998 -2.079998,2.08 -1.920002,2.400002 -1.599998,2.399999 -1.280003,2.72 -1.119999,2.72 L -56,-5.92 -56.48,-3.04 -56.639999,0 -56.48,2.88 -56,5.92 l 0.799999,2.72 1.119999,2.88 1.280003,2.56 1.599998,2.559999 1.920002,2.24 2.079998,2.08 2.240002,1.92 2.559997,1.600001 2.560002,1.28 2.880001,1.119999 2.719997,0.800001 3.040001,0.48 2.880001,0.16 3.039999,-0.16 L -22.4,27.68 -19.52,26.879999 -16.799999,25.76 -14.08,24.48 l 2.4,-1.600001 2.4,-1.92 2.08,-2.08 1.76,-2.24 L -3.68,14.08 -2.4,11.52 -1.28,8.64 -0.64,5.92 -0.16,2.88 0,0"
       style="fill:none;stroke:#000000;stroke-width:0.64;stroke-linecap:round;stroke-linejoin:round;stroke-miterlimit:10;stroke-dasharray:none;stroke-opacity:1"
       transform="translate(295.20001,175.83992)"
       clip-path="url(#clipPath20)" />
    <path
       id="path21"
       d="m 0,0 -0.16,-3.04 -0.48,-2.88 -0.64,-2.88 -1.12,-2.72 -1.28,-2.72 -1.6,-2.399999 -1.92,-2.400002 -2.08,-2.08 -2.4,-1.759998 -2.4,-1.76 L -16.799999,-25.92 -19.52,-27.040001 -22.4,-27.68 l -2.880001,-0.48 -3.039999,-0.16 -2.880001,0.16 -2.880001,0.48 -2.879997,0.639999 L -39.84,-25.92 l -2.560002,1.280001 -2.559997,1.76 -2.240002,1.759998 -2.079998,2.08 -1.920002,2.400002 -1.599998,2.399999 -1.280003,2.72 -1.119999,2.72 L -56,-5.92 -56.48,-3.04 -56.639999,0 -56.48,2.88 -56,5.92 l 0.799999,2.72 1.119999,2.88 1.280003,2.56 1.599998,2.559999 1.920002,2.24 2.079998,2.08 2.240002,1.92 2.559997,1.600001 2.560002,1.28 2.880001,1.119999 2.879997,0.800001 2.880001,0.48 2.880001,0.16 3.039999,-0.16 L -22.4,27.68 -19.52,26.879999 -16.799999,25.76 -14.08,24.48 l 2.4,-1.600001 2.4,-1.92 2.08,-2.08 1.92,-2.24 L -3.68,14.08 -2.4,11.52 -1.28,8.64 -0.64,5.92 -0.16,2.88 0,0"
       style="fill:none;stroke:#000000;stroke-width:0.64;stroke-linecap:round;stroke-linejoin:round;stroke-miterlimit:10;stroke-dasharray:none;stroke-opacity:1"
       transform="translate(144.16001,251.35994)"
       clip-path="url(#clipPath22)" />
    <path
       id="path23"
       d="m 0,0 -0.16,-3.04 -0.48,-2.88 -0.64,-2.88 -1.12,-2.72 -1.28,-2.72 -1.6,-2.399999 -1.92,-2.400002 -2.08,-2.08 -2.4,-1.759998 -2.4,-1.76 L -16.799999,-25.92 -19.52,-27.040001 -22.4,-27.68 l -2.880001,-0.48 -3.039999,-0.16 -2.880001,0.16 -2.880001,0.48 -2.879997,0.639999 L -39.84,-25.92 l -2.560002,1.280001 -2.559997,1.76 -2.240002,1.759998 -2.079998,2.08 -1.920002,2.400002 -1.599998,2.399999 -1.280003,2.72 -1.119999,2.72 L -56,-5.92 -56.48,-3.04 -56.639999,0 -56.48,2.88 -56,5.92 l 0.799999,2.72 1.119999,2.88 1.280003,2.56 1.599998,2.559999 1.920002,2.24 2.079998,2.08 2.240002,1.92 2.559997,1.600001 2.560002,1.28 2.880001,1.119999 2.879997,0.800001 2.880001,0.48 2.880001,0.16 3.039999,-0.16 L -22.4,27.68 -19.52,26.879999 -16.799999,25.76 -14.08,24.48 l 2.4,-1.600001 2.4,-1.92 2.08,-2.08 1.92,-2.24 L -3.68,14.08 -2.4,11.52 -1.28,8.64 -0.64,5.92 -0.16,2.88 0,0"
       style="fill:none;stroke:#000000;stroke-width:0.64;stroke-linecap:round;stroke-linejoin:round;stroke-miterlimit:10;stroke-dasharray:none;stroke-opacity:1"
       transform="translate(219.68,251.35994)"
       clip-path="url(#clipPath24)" />
    <path
       id="path25"
       d="m 0,0 -0.16,-3.04 -0.48,-2.88 -0.64,-2.88 -1.12,-2.72 -1.28,-2.72 -1.76,-2.399999 -1.76,-2.400002 -2.08,-2.08 -2.4,-1.759998 -2.4,-1.76 L -16.799999,-25.92 -19.52,-27.040001 -22.4,-27.68 l -2.880001,-0.48 -3.039999,-0.16 -2.880001,0.16 -3.040001,0.48 -2.719997,0.639999 L -39.84,-25.92 l -2.560002,1.280001 -2.559997,1.76 -2.240002,1.759998 -2.079998,2.08 -1.920002,2.400002 -1.599998,2.399999 -1.280003,2.72 -1.119999,2.72 L -56,-5.92 -56.48,-3.04 -56.639999,0 -56.48,2.88 -56,5.92 l 0.799999,2.72 1.119999,2.88 1.280003,2.56 1.599998,2.559999 1.920002,2.24 2.079998,2.08 2.240002,1.92 2.559997,1.600001 2.560002,1.28 2.880001,1.119999 2.719997,0.800001 3.040001,0.48 2.880001,0.16 3.039999,-0.16 L -22.4,27.68 -19.52,26.879999 -16.799999,25.76 -14.08,24.48 l 2.4,-1.600001 2.4,-1.92 2.08,-2.08 1.76,-2.24 L -3.68,14.08 -2.4,11.52 -1.28,8.64 -0.64,5.92 -0.16,2.88 0,0"
       style="fill:none;stroke:#000000;stroke-width:0.64;stroke-linecap:round;stroke-linejoin:round;stroke-miterlimit:10;stroke-dasharray:none;stroke-opacity:1"
       transform="translate(295.20001,251.35994)"
       clip-path="url(#clipPath26)" />
    <path
       id="path27"
       d="m 0,0 -0.16,-3.04 -0.48,-2.88 -0.64,-2.88 -1.12,-2.72 -1.28,-2.72 -1.6,-2.399999 -1.92,-2.400002 -2.08,-2.08 -2.4,-1.759998 -2.4,-1.600001 -2.719999,-1.44 L -19.52,-27.040001 -22.4,-27.68 l -2.880001,-0.48 -3.039999,-0.16 -2.880001,0.16 -2.880001,0.48 -2.879997,0.639999 L -39.84,-25.92 l -2.560002,1.44 -2.559997,1.600001 -2.240002,1.759998 -2.079998,2.08 -1.920002,2.400002 -1.599998,2.399999 -1.280003,2.72 -1.119999,2.72 L -56,-5.92 -56.48,-3.04 -56.639999,0 -56.48,2.88 -56,5.92 l 0.799999,2.88 1.119999,2.72 1.280003,2.56 1.599998,2.559999 1.920002,2.24 2.079998,2.08 2.240002,1.92 2.559997,1.600001 2.560002,1.28 2.880001,1.119999 2.879997,0.800001 2.880001,0.48 2.880001,0.16 3.039999,-0.16 L -22.4,27.68 -19.52,26.879999 -16.799999,25.76 -14.08,24.48 l 2.4,-1.600001 2.4,-1.92 2.08,-2.08 1.92,-2.24 L -3.68,14.08 -2.4,11.52 -1.28,8.8 -0.64,5.92 -0.16,2.88 0,0"
       style="fill:none;stroke:#000000;stroke-width:0.64;stroke-linecap:round;stroke-linejoin:round;stroke-miterlimit:10;stroke-dasharray:none;stroke-opacity:1"
       transform="translate(219.68,100.31993)"
       clip-path="url(#clipPath28)" />
    <path
       id="path29"
       d="m 0,0 -0.32,-8 -0.64,-7.84 -0.96,-8 -1.6,-7.84 -1.92,-7.680001 -2.24,-7.68 -2.88,-7.52 -3.04,-7.199997 -3.520001,-7.200001 -4,-6.879997 -4.32,-6.720002 L -30.08,-89.120003 -35.040001,-95.360001 -40.32,-101.28 l -5.760002,-5.6 -5.919998,-5.28 -6.240002,-5.12 -6.399997,-4.64 -6.720002,-4.16 -6.879997,-4 -7.200004,-3.52001 -7.360001,-3.19999 -7.519997,-2.72 -7.52,-2.4 -7.84,-1.92 -7.84,-1.44 -7.84,-1.11999 -8,-0.64 -8,-0.16001 -7.84,0.16001 -8,0.64 -7.83999,1.11999 -7.84001,1.44 -7.84,1.92 -7.52,2.4 -7.51999,2.72 -7.36,3.19999 -7.20002,3.52001 -6.87999,4 -6.72,4.16 -6.56,4.64 -6.08,5.12 -6.08,5.28 -5.6,5.6 -5.27999,5.919999 -4.96002,6.239998 -4.63999,6.560005 -4.32,6.720002 -4,6.879997 -3.51999,7.200001 -3.20001,7.199997 -2.72,7.52 -2.24,7.68 -1.92001,7.680001 -1.6,7.84 -1.12,8 -0.63998,7.84 -0.16001,8"
       style="fill:none;stroke:#000000;stroke-width:26.4;stroke-linecap:round;stroke-linejoin:round;stroke-miterlimit:10;stroke-dasharray:none;stroke-opacity:1"
       transform="translate(338.71997,171.51997)"
       clip-path="url(#clipPath30)" />
    <path
       id="path31"
       d="M 249.60001,557.28003 V 712.64001"
       style="fill:none;stroke:#000000;stroke-width:26.4;stroke-linecap:round;stroke-linejoin:round;stroke-miterlimit:10;stroke-dasharray:none;stroke-opacity:1"
       transform="translate(-205.44,-385.76006)"
       clip-path="url(#clipPath32)" />
    <path
       id="path33"
       d="M 544.15997,557.28003 V 712.64001"
       style="fill:none;stroke:#000000;stroke-width:26.4;stroke-linecap:round;stroke-linejoin:round;stroke-miterlimit:10;stroke-dasharray:none;stroke-opacity:1"
       transform="translate(-205.44,-385.76006)"
       clip-path="url(#clipPath34)" />
    <path
       id="path35"
       d="m 226.88,712.64001 h 37.76001"
       style="fill:none;stroke:#000000;stroke-width:26.4;stroke-linecap:round;stroke-linejoin:round;stroke-miterlimit:10;stroke-dasharray:none;stroke-opacity:1"
       transform="translate(-205.44,-385.76006)"
       clip-path="url(#clipPath36)" />
    <path
       id="path37"
       d="m 528.96002,712.64001 h 37.75995"
       style="fill:none;stroke:#000000;stroke-width:26.4;stroke-linecap:round;stroke-linejoin:round;stroke-miterlimit:10;stroke-dasharray:none;stroke-opacity:1"
       transform="translate(-205.44,-385.76006)"
       clip-path="url(#clipPath38)" />
  </g>
</svg>
