<?xml version="1.0" encoding="UTF-8" standalone="no"?>
<!-- Created with Inkscape (http://www.inkscape.org/) -->

<svg
   version="1.1"
   id="svg1"
   width="430.90668"
   height="420.45334"
   viewBox="0 0 430.90668 420.45334"
   sodipodi:docname="Aquarius3.pdf"
   xmlns:inkscape="http://www.inkscape.org/namespaces/inkscape"
   xmlns:sodipodi="http://sodipodi.sourceforge.net/DTD/sodipodi-0.dtd"
   xmlns="http://www.w3.org/2000/svg"
   xmlns:svg="http://www.w3.org/2000/svg">
  <defs
     id="defs1">
    <clipPath
       clipPathUnits="userSpaceOnUse"
       id="clipPath2">
      <path
         d="M 0,0.16 V 1122.5601 H 793.59998 V 0.16 Z"
         transform="translate(-337.60001,-372.48001)"
         clip-rule="evenodd"
         id="path2" />
    </clipPath>
    <clipPath
       clipPathUnits="userSpaceOnUse"
       id="clipPath4">
      <path
         d="M 0,0.16 V 1122.5601 H 793.59998 V 0.16 Z"
         transform="translate(-337.60001,-561.28003)"
         clip-rule="evenodd"
         id="path4" />
    </clipPath>
    <clipPath
       clipPathUnits="userSpaceOnUse"
       id="clipPath6">
      <path
         d="M 0,0.16 V 1122.5601 H 793.59998 V 0.16 Z"
         transform="translate(-427.84,-408.64001)"
         clip-rule="evenodd"
         id="path6" />
    </clipPath>
    <clipPath
       clipPathUnits="userSpaceOnUse"
       id="clipPath8">
      <path
         d="M 0,0.16 V 1122.5601 H 793.59998 V 0.16 Z"
         transform="translate(-427.84,-559.67999)"
         clip-rule="evenodd"
         id="path8" />
    </clipPath>
    <clipPath
       clipPathUnits="userSpaceOnUse"
       id="clipPath10">
      <path
         d="M 0,0.16 V 1122.5601 H 793.59998 V 0.16 Z"
         transform="translate(-511.68,-438.88)"
         clip-rule="evenodd"
         id="path10" />
    </clipPath>
    <clipPath
       clipPathUnits="userSpaceOnUse"
       id="clipPath12">
      <path
         d="M 0,0.16 V 1122.5601 H 793.59998 V 0.16 Z"
         transform="translate(-511.68,-559.67999)"
         clip-rule="evenodd"
         id="path12" />
    </clipPath>
    <clipPath
       clipPathUnits="userSpaceOnUse"
       id="clipPath14">
      <path
         d="M 0,0.16 V 1122.5601 H 793.59998 V 0.16 Z"
         transform="translate(-588.15998,-463.20001)"
         clip-rule="evenodd"
         id="path14" />
    </clipPath>
    <clipPath
       clipPathUnits="userSpaceOnUse"
       id="clipPath16">
      <path
         d="M 0,0.16 V 1122.5601 H 793.59998 V 0.16 Z"
         transform="translate(-588.15998,-559.84003)"
         clip-rule="evenodd"
         id="path16" />
    </clipPath>
  </defs>
  <sodipodi:namedview
     id="namedview1"
     pagecolor="#505050"
     bordercolor="#eeeeee"
     borderopacity="1"
     inkscape:showpageshadow="0"
     inkscape:pageopacity="0"
     inkscape:pagecheckerboard="0"
     inkscape:deskcolor="#505050">
    <inkscape:page
       x="0"
       y="0"
       inkscape:label="1"
       id="page1"
       width="430.90668"
       height="420.45334"
       margin="0"
       bleed="0" />
  </sodipodi:namedview>
  <g
     id="g1"
     inkscape:groupmode="layer"
     inkscape:label="1">
    <path
       id="path1"
       d="m 0,0 -7.68,0.16 -7.68,0.48 -7.519999,0.8 L -30.4,2.56 -37.919998,4 -45.119999,5.76 -52.32,7.68 l -6.880001,2.4 -6.880001,2.56 -6.559997,2.88 -6.239998,3.199999 -6.080002,3.360001 -5.760002,3.68 -5.440003,3.84 -4.959996,4.159998 -4.8,4.320004 -4.48,4.479999 -4,4.64 -3.68,4.799999 -3.2,4.959999 -2.88,5.120003 -2.4,5.279999 -1.92,5.279998 -1.6,5.440003 -1.12,5.439995 -0.64,5.440002 -0.32,5.440003 0.32,5.439994 0.64,5.600004 1.12,5.44 1.6,5.28 1.92,5.28 2.4,5.28 2.88,5.12 3.2,4.96 3.68,4.80001 4,4.63999 4.48,4.48 4.8,4.31999 4.959996,4.16001 5.440003,3.83999 5.760002,3.68001 6.080002,3.36 6.239998,3.2 6.559997,2.88 6.880001,2.56 6.880001,2.39999 7.200001,2.08001 7.200001,1.6 7.519998,1.44 7.520001,1.12 7.519999,0.8 7.68,0.48 7.68,0.16"
       style="fill:none;stroke:#000000;stroke-width:26.4;stroke-linecap:round;stroke-linejoin:round;stroke-miterlimit:10;stroke-dasharray:none;stroke-opacity:1"
       transform="translate(156.17334,22.759952)"
       clip-path="url(#clipPath2)" />
    <path
       id="path3"
       d="m 0,0 -7.68,0.16 -7.68,0.48 -7.519999,0.8 L -30.4,2.56 -37.919998,4 -45.119999,5.76 -52.32,7.68 l -6.880001,2.4 -6.880001,2.56 -6.559997,2.88 -6.239998,3.199999 -6.080002,3.360001 -5.760002,3.68 -5.440003,3.84 -4.959996,4.159998 -4.8,4.320004 -4.48,4.479999 -4,4.64 -3.68,4.799999 -3.2,4.959999 -2.88,5.120003 -2.4,5.279999 -1.92,5.279998 -1.6,5.440003 -1.12,5.439995 -0.64,5.440002 -0.32,5.440003 0.32,5.439994 0.64,5.600004 1.12,5.44 1.6,5.28 1.92,5.28 2.4,5.28 2.88,5.12 3.2,4.96 3.68,4.80001 4,4.63999 4.48,4.48 4.8,4.31999 4.959996,4.16001 5.440003,3.83999 5.760002,3.68001 6.080002,3.36 6.239998,3.2 6.559997,2.88 6.880001,2.56 6.880001,2.39999 7.200001,1.92 7.200001,1.76001 7.519998,1.44 7.520001,1.12 7.519999,0.8 7.68,0.48 7.68,0.16"
       style="fill:none;stroke:#000000;stroke-width:26.4;stroke-linecap:round;stroke-linejoin:round;stroke-miterlimit:10;stroke-dasharray:none;stroke-opacity:1"
       transform="translate(156.17334,211.55997)"
       clip-path="url(#clipPath4)" />
    <path
       id="path5"
       d="m 0,0 -6.56,0.16 -6.72,0.48 -6.56,0.8 -6.4,0.96 -6.399999,1.44 -6.240002,1.6 -6.079998,1.76 -5.920002,2.24 -5.759998,2.4 -5.440003,2.72 -5.279999,2.880001 L -72.32,20.48 l -4.800003,3.36 -4.319999,3.68 -4,3.680001 -3.839997,4 -3.36,4 L -95.68,43.52 l -2.559998,4.32 -2.240002,4.48 -1.92,4.479999 -1.44,4.64 -0.96,4.640003 -0.64,4.799995 -0.32,4.64 0.32,4.800003 0.64,4.800003 0.96,4.639999 1.44,4.64 1.92,4.479995 2.240002,4.480003 2.559998,4.32 3.040001,4.32 3.36,4 3.839997,4 4,3.68 4.319999,3.68 4.800003,3.36 4.959999,3.03999 5.279999,2.88001 5.440003,2.72 5.759998,2.39999 5.920002,2.24001 6.079998,1.75999 6.240002,1.60001 6.399999,1.44 6.4,0.95999 6.56,0.80001 6.72,0.32 6.56,0.15999"
       style="fill:none;stroke:#000000;stroke-width:26.4;stroke-linecap:round;stroke-linejoin:round;stroke-miterlimit:10;stroke-dasharray:none;stroke-opacity:1"
       transform="translate(246.41333,58.919956)"
       clip-path="url(#clipPath6)" />
    <path
       id="path7"
       d="m 0,0 -6.56,0.16 -6.72,0.48 -6.56,0.8 -6.4,0.96 -6.399999,1.44 -6.240002,1.6 -6.079998,1.76 -5.920002,2.24 -5.759998,2.4 -5.440003,2.72 -5.279999,2.880001 L -72.32,20.48 l -4.800003,3.36 -4.319999,3.68 -4,3.680001 -3.839997,4 -3.36,4 -3.040001,4.16 -2.559998,4.479999 -2.240002,4.48 -1.92,4.479999 -1.44,4.64 -0.96,4.640003 -0.64,4.799995 -0.32,4.64 0.32,4.800003 0.64,4.800003 0.96,4.639999 1.44,4.64 1.92,4.479995 2.240002,4.480003 2.559998,4.32 3.040001,4.32 3.36,4 3.839997,4 4,3.68 4.319999,3.52 4.800003,3.36 4.959999,3.19999 5.279999,2.88001 5.440003,2.72 5.759998,2.39999 5.920002,2.08001 6.079998,1.91999 6.240002,1.60001 6.399999,1.44 6.4,0.95999 6.56,0.80001 6.72,0.32 6.56,0.15999"
       style="fill:none;stroke:#000000;stroke-width:26.4;stroke-linecap:round;stroke-linejoin:round;stroke-miterlimit:10;stroke-dasharray:none;stroke-opacity:1"
       transform="translate(246.41333,209.95993)"
       clip-path="url(#clipPath8)" />
    <path
       id="path9"
       d="m 0,0 -5.76,0.16 -5.76,0.48 -5.760001,0.64 -5.599998,0.96 L -28.32,3.52 -33.759998,5.12 -38.880001,6.88 -44,8.8 l -4.799999,2.24 -4.64,2.56 -4.319999,2.72 -4,2.880001 -3.84,3.199999 -3.520005,3.2 -3.199997,3.520001 -2.720001,3.519998 -2.559997,3.680001 -2.080002,3.84 -1.760002,4 -1.439995,4 -0.959999,4 -0.480004,4.16 -0.319999,4.16 0.319999,4.159999 0.480004,4 0.959999,4.160004 1.439995,4 1.760002,3.839996 2.080002,3.840004 2.559997,3.839997 2.720001,3.519996 3.199997,3.520005 3.520005,3.199997 3.84,3.200002 4,2.88 4.319999,2.72 4.64,2.4 L -44,112 l 5.119999,2.08 5.120003,1.76 5.439998,1.6 5.440001,1.12 5.599998,1.12 5.760001,0.64 5.76,0.48 H 0"
       style="fill:none;stroke:#000000;stroke-width:26.4;stroke-linecap:round;stroke-linejoin:round;stroke-miterlimit:10;stroke-dasharray:none;stroke-opacity:1"
       transform="translate(330.25333,89.159946)"
       clip-path="url(#clipPath10)" />
    <path
       id="path11"
       d="m 0,0 -5.76,0.16 -5.76,0.48 -5.760001,0.64 -5.599998,0.96 L -28.32,3.52 -33.759998,5.12 -38.880001,6.88 -44,8.8 l -4.799999,2.4 -4.64,2.4 -4.319999,2.72 -4,2.880001 -3.84,3.199999 -3.520005,3.2 -3.199997,3.520001 -2.720001,3.519998 -2.559997,3.840001 -2.080002,3.84 -1.760002,3.84 -1.439995,4 -0.959999,4.16 -0.480004,4 -0.319999,4.16 0.319999,4.159999 0.480004,4 0.959999,4.160004 1.439995,4 1.760002,3.839996 2.080002,3.840004 2.559997,3.839997 2.720001,3.519996 3.199997,3.520005 3.520005,3.199997 3.84,3.200002 4,2.88 4.319999,2.72 4.64,2.4 4.799999,2.4 5.119999,1.92 5.120003,1.76 5.439998,1.6 5.440001,1.28 5.599998,0.96 5.760001,0.64 5.76,0.48 5.76,0.16"
       style="fill:none;stroke:#000000;stroke-width:26.4;stroke-linecap:round;stroke-linejoin:round;stroke-miterlimit:10;stroke-dasharray:none;stroke-opacity:1"
       transform="translate(330.25333,209.95993)"
       clip-path="url(#clipPath12)" />
    <path
       id="path13"
       d="m 0,0 h -4.96 l -5.12,0.48 -4.96,0.64 -4.8,0.96 -4.799999,1.12 -4.640002,1.6 -4.479997,1.6 -4.320004,1.92 -4,2.24 -3.839996,2.24 -3.68,2.56 -3.200001,2.72 -3.040001,3.040001 -2.720001,3.039999 -2.399998,3.200001 -1.920002,3.199998 -1.759998,3.520003 -1.279999,3.359997 -0.959999,3.68 -0.480004,3.52 L -67.68,48.32 l 0.319999,3.52 0.480004,3.68 0.959999,3.520001 1.279999,3.52 1.759998,3.359997 1.920002,3.360001 2.399998,3.200004 2.720001,3.039994 3.040001,2.880005 3.200001,2.720001 3.68,2.559997 3.839996,2.400002 4,2.080002 4.320004,1.919998 4.479997,1.759994 4.640002,1.440003 4.799999,1.120003 4.8,0.959999 L -10.08,96 -4.96,96.480003 0,96.639999"
       style="fill:none;stroke:#000000;stroke-width:26.4;stroke-linecap:round;stroke-linejoin:round;stroke-miterlimit:10;stroke-dasharray:none;stroke-opacity:1"
       transform="translate(406.73331,113.47995)"
       clip-path="url(#clipPath14)" />
    <path
       id="path15"
       d="m 0,0 -4.96,0.16 -5.12,0.32 -4.96,0.64 -4.8,0.96 -4.799999,1.28 -4.640002,1.44 -4.479997,1.6 -4.320004,1.92 -4,2.24 -3.839996,2.24 -3.68,2.56 -3.200001,2.72 -3.040001,3.040001 -2.720001,3.039999 -2.399998,3.200001 -1.920002,3.199998 -1.759998,3.520003 -1.279999,3.519996 -0.959999,3.520001 -0.480004,3.52 L -67.68,48.32 l 0.319999,3.52 0.480004,3.68 0.959999,3.520001 1.279999,3.52 1.759998,3.359997 1.920002,3.360001 2.399998,3.200004 2.720001,3.039994 3.040001,2.880005 3.200001,2.720001 3.68,2.559997 3.839996,2.400002 4,2.080002 4.320004,1.919998 4.479997,1.759994 4.640002,1.440003 4.799999,1.120003 4.8,0.959999 L -10.08,96 -4.96,96.480003 0,96.639999"
       style="fill:none;stroke:#000000;stroke-width:26.4;stroke-linecap:round;stroke-linejoin:round;stroke-miterlimit:10;stroke-dasharray:none;stroke-opacity:1"
       transform="translate(406.73331,210.11997)"
       clip-path="url(#clipPath16)" />
  </g>
</svg>
