<?xml version="1.0" encoding="UTF-8" standalone="no"?>
<!-- Created with Inkscape (http://www.inkscape.org/) -->

<svg
   version="1.1"
   id="svg1"
   width="442.90668"
   height="206.89333"
   viewBox="0 0 442.90668 206.89333"
   sodipodi:docname="Aquarius.pdf"
   xmlns:inkscape="http://www.inkscape.org/namespaces/inkscape"
   xmlns:sodipodi="http://sodipodi.sourceforge.net/DTD/sodipodi-0.dtd"
   xmlns="http://www.w3.org/2000/svg"
   xmlns:svg="http://www.w3.org/2000/svg">
  <defs
     id="defs1">
    <clipPath
       clipPathUnits="userSpaceOnUse"
       id="clipPath2">
      <path
         d="M 26.4,26.559999 V 1096.16 H 767.03998 V 26.559999 Z"
         transform="translate(-193.92,-533.91998)"
         clip-rule="evenodd"
         id="path2" />
    </clipPath>
    <clipPath
       clipPathUnits="userSpaceOnUse"
       id="clipPath4">
      <path
         d="M 26.4,26.559999 V 1096.16 H 767.03998 V 26.559999 Z"
         transform="translate(-203.36,-630.08002)"
         clip-rule="evenodd"
         id="path4" />
    </clipPath>
  </defs>
  <sodipodi:namedview
     id="namedview1"
     pagecolor="#505050"
     bordercolor="#eeeeee"
     borderopacity="1"
     inkscape:showpageshadow="0"
     inkscape:pageopacity="0"
     inkscape:pagecheckerboard="0"
     inkscape:deskcolor="#505050">
    <inkscape:page
       x="0"
       y="0"
       inkscape:label="1"
       id="page1"
       width="442.90668"
       height="206.89333"
       margin="0"
       bleed="0" />
  </sodipodi:namedview>
  <g
     id="g1"
     inkscape:groupmode="layer"
     inkscape:label="1">
    <path
       id="path1"
       d="m 0,0 2.72,-4.8 4.32,-6.88 4,-6.4 2.88,-4.479999 5.120001,-7.200001 4.479999,-5.92 4,-4.48 3.840001,-3.84 3.68,-2.880001 3.360001,-2.399998 3.519996,-1.760002 3.200001,-1.279999 3.360001,-0.639999 3.2,-0.32 3.200001,0.32 3.200001,0.639999 3.199997,1.119999 1.600002,0.799999 3.84,2.240002 3.199997,2.400002 3.68,2.719997 3.840004,3.520001 4.32,4.159999 4.799996,4.960001 5.600006,5.92 7.199997,7.680001 5.919999,6.079999 4.8,4.96 3.68,3.36 6.24,5.28 5.28,4.16 4.8,3.04 4.31999,2.4 4.16001,1.6 3.83999,1.12 3.84001,0.48 3.51999,0.16 1.12001,-0.16 2.4,-0.32 3.36,-0.8 3.52,-1.44 3.68,-1.76 3.83999,-2.24 4,-2.88 4.16001,-3.36 4.64,-4 4.96,-4.96 5.76,-5.76 7.04,-7.520001 10.56,-11.359998 5.76,-5.760001 3.36,-3.2 5.6,-4.959999 5.12,-4 4.47999,-2.880001 4.16001,-2.399998 3.83999,-1.600002 3.68001,-0.96 0.48,-0.159999 2.39999,-0.32 3.52001,-0.16 3.52,0.16 3.67999,0.639999 3.84,1.119999 4,1.600003 4,2.079998 4.48001,2.720001 4.63999,3.200001 4.96002,3.84 5.6,4.639999 6.4,5.919998 8.16,7.680001 6.07999,5.6 3.83999,3.68 6.08002,5.28 4.95999,4 4.16001,2.88 3.83999,2.08 3.68,1.6 3.36001,0.96 3.19998,0.64 3.36002,0.16 3.19998,-0.32 3.36002,-0.64 3.35998,-1.12 3.52002,-1.6 3.35999,-2.08 3.67999,-2.56 3.68002,-3.04 3.84,-3.68 4.16,-4.32 4.31998,-5.280001 4.96002,-6.08 5.91998,-7.68 1.92002,-2.719997"
       style="fill:none;stroke:#000000;stroke-width:26.4;stroke-linecap:round;stroke-linejoin:round;stroke-miterlimit:10;stroke-dasharray:none;stroke-opacity:1"
       transform="translate(20.493331,80.093258)"
       clip-path="url(#clipPath2)" />
    <path
       id="path3"
       d="m 0,0 2.72,-4.64 4.32,-7.04 4,-6.24 2.88,-4.48 5.120001,-7.36 4.479999,-5.76 4,-4.64 3.840001,-3.68 3.68,-3.040001 3.360001,-2.239998 3.519996,-1.920002 3.200001,-1.119999 3.360001,-0.799999 3.2,-0.16 3.200001,0.16 3.200001,0.799999 3.199997,1.119999 1.600002,0.799999 3.84,2.080002 3.199997,2.400002 3.68,2.879997 3.840004,3.360001 4.32,4.159999 4.799996,4.960001 5.600006,5.92 7.199997,7.840001 5.919999,5.919999 4.8,4.96 3.68,3.36 6.24,5.44 5.28,4 4.8,3.2 4.31999,2.24 4.16001,1.76 3.83999,0.96 3.84001,0.64 h 3.51999 1.12001 l 2.4,-0.48 3.36,-0.8 3.52,-1.28 3.68,-1.76 3.83999,-2.4 4,-2.72 4.16001,-3.52 4.64,-4 4.96,-4.8 5.76,-5.92 7.04,-7.360001 10.56,-11.359998 5.76,-5.920001 3.36,-3.04 5.6,-5.119999 5.12,-3.840001 4.47999,-3.04 4.16001,-2.239998 3.83999,-1.600003 L 244.8,-56.48 l 0.48,-0.159999 2.39999,-0.32 3.52001,-0.16 3.52,0.32 3.67999,0.639999 3.84,1.119999 4,1.600002 4,2.079998 4.48001,2.560002 4.63999,3.200001 4.96002,4 5.6,4.639999 6.4,5.759998 8.16,7.680001 6.07999,5.76 3.83999,3.52 6.08002,5.44 4.95999,3.84 4.16001,2.88 3.83999,2.08 3.68,1.6 3.36001,1.12 3.19998,0.48 3.36002,0.16 3.19998,-0.16 3.36002,-0.8 3.35998,-1.12 3.52002,-1.44 3.35999,-2.08 3.67999,-2.56 3.68002,-3.2 3.84,-3.68 4.16,-4.32 4.31998,-5.120001 4.96002,-6.24 5.91998,-7.68 1.92002,-2.719997"
       style="fill:none;stroke:#000000;stroke-width:26.4;stroke-linecap:round;stroke-linejoin:round;stroke-miterlimit:10;stroke-dasharray:none;stroke-opacity:1"
       transform="translate(29.933334,176.25329)"
       clip-path="url(#clipPath4)" />
  </g>
</svg>
