<?xml version="1.0" encoding="UTF-8" standalone="no"?>
<!-- Created with Inkscape (http://www.inkscape.org/) -->

<svg
   version="1.1"
   id="svg1"
   width="414.88"
   height="397.77332"
   viewBox="0 0 414.88 397.77332"
   sodipodi:docname="Aries.pdf"
   xmlns:inkscape="http://www.inkscape.org/namespaces/inkscape"
   xmlns:sodipodi="http://sodipodi.sourceforge.net/DTD/sodipodi-0.dtd"
   xmlns="http://www.w3.org/2000/svg"
   xmlns:svg="http://www.w3.org/2000/svg">
  <defs
     id="defs1">
    <clipPath
       clipPathUnits="userSpaceOnUse"
       id="clipPath2">
      <path
         d="M 26.4,26.559999 V 1096.16 H 767.03998 V 26.559999 Z"
         transform="translate(-396.79999,-467.04001)"
         clip-rule="evenodd"
         id="path2" />
    </clipPath>
    <clipPath
       clipPathUnits="userSpaceOnUse"
       id="clipPath4">
      <path
         d="M 26.4,26.559999 V 1096.16 H 767.03998 V 26.559999 Z"
         transform="translate(-585.59998,-467.04001)"
         clip-rule="evenodd"
         id="path4" />
    </clipPath>
    <clipPath
       clipPathUnits="userSpaceOnUse"
       id="clipPath6">
      <path
         d="M 26.4,26.559999 V 1096.16 H 767.03998 V 26.559999 Z"
         clip-rule="evenodd"
         id="path6" />
    </clipPath>
  </defs>
  <sodipodi:namedview
     id="namedview1"
     pagecolor="#505050"
     bordercolor="#eeeeee"
     borderopacity="1"
     inkscape:showpageshadow="0"
     inkscape:pageopacity="0"
     inkscape:pagecheckerboard="0"
     inkscape:deskcolor="#505050">
    <inkscape:page
       x="0"
       y="0"
       inkscape:label="1"
       id="page1"
       width="414.88"
       height="397.77332"
       margin="0"
       bleed="0" />
  </sodipodi:namedview>
  <g
     id="g1"
     inkscape:groupmode="layer"
     inkscape:label="1">
    <path
       id="path1"
       d="M 0,0 -0.16,-6.24 -0.8,-12.32 -1.76,-18.559999 -3.2,-24.48 l -1.76,-5.92 -2.24,-5.76 -2.56,-5.599998 -2.88,-5.440003 -3.2,-5.279999 -3.68,-5.119998 -3.840001,-4.640004 -4.319999,-4.639995 -4.48,-4.160004 -4.799999,-4 -4.959999,-3.519997 -5.280003,-3.200004 -5.439998,-3.040001 -5.600003,-2.559998 L -64,-89.440002 -69.919998,-91.199997 -76,-92.639999 l -6.080002,-0.959999 -6.080002,-0.64 -6.239998,-0.160004 -6.239998,0.160004 -6.08,0.64 -6.08,0.959999 -6.08,1.440002 -5.92,1.759995 -5.76,2.080001 -5.6,2.559998 -5.44001,3.040001 -5.27999,3.200004 -4.96,3.519997 -4.8,4 -4.47999,4.160004 -4.32001,4.639995 -3.84,4.640004 -3.68001,5.119998 -3.19999,5.279999 -2.87999,5.440003 -2.56002,5.599998 -2.23999,5.76 -1.76001,5.92 -1.43998,5.920001 L -188,-12.32 -188.64,-6.24 -188.8,0"
       style="fill:none;stroke:#000000;stroke-width:26.4;stroke-linecap:round;stroke-linejoin:round;stroke-miterlimit:10;stroke-dasharray:none;stroke-opacity:1"
       transform="translate(396.79999,481.71995)"
       clip-path="url(#clipPath2)" />
    <path
       id="path3"
       d="M 0,0 -0.16,-6.24 -0.8,-12.32 -1.76,-18.559999 -3.2,-24.48 -4.96,-30.4 -7.2,-36.16 -9.76,-41.759998 -12.64,-47.200001 -16,-52.48 l -3.52,-5.119998 -4,-4.640004 -4.16,-4.639995 -4.48,-4.160004 -4.799999,-4 -4.959999,-3.519997 -5.280003,-3.200004 -5.439998,-3.040001 -5.600003,-2.559998 L -64,-89.440002 -69.919998,-91.199997 -76,-92.639999 l -6.080002,-0.959999 -6.080002,-0.64 -6.239998,-0.160004 -6.239998,0.160004 -6.08,0.64 -6.08,0.959999 -6.08,1.440002 -5.92,1.759995 -5.76,2.080001 -5.6,2.559998 -5.44001,3.040001 -5.27999,3.200004 -4.96,3.519997 -4.8,4 -4.47999,4.160004 -4.32001,4.639995 -3.84,4.640004 -3.68001,5.119998 -3.19999,5.279999 -2.87999,5.440003 -2.56002,5.599998 -2.23999,5.76 -1.76001,5.92 -1.43998,5.920001 L -188,-12.32 -188.64,-6.24 -188.8,0"
       style="fill:none;stroke:#000000;stroke-width:26.4;stroke-linecap:round;stroke-linejoin:round;stroke-miterlimit:10;stroke-dasharray:none;stroke-opacity:1"
       transform="translate(585.59998,481.71995)"
       clip-path="url(#clipPath4)" />
    <path
       id="path5"
       d="M 396.79999,467.04001 V 750.08002"
       style="fill:none;stroke:#000000;stroke-width:26.4;stroke-linecap:round;stroke-linejoin:round;stroke-miterlimit:10;stroke-dasharray:none;stroke-opacity:1"
       transform="translate(0,14.679941)"
       clip-path="url(#clipPath6)" />
  </g>
</svg>
