<?xml version="1.0" encoding="UTF-8" standalone="no"?>
<!-- Created with Inkscape (http://www.inkscape.org/) -->

<svg
   version="1.1"
   id="svg1"
   width="234.8"
   height="320.34668"
   viewBox="0 0 234.8 320.34668"
   sodipodi:docname="Aries5.pdf"
   xmlns:inkscape="http://www.inkscape.org/namespaces/inkscape"
   xmlns:sodipodi="http://sodipodi.sourceforge.net/DTD/sodipodi-0.dtd"
   xmlns="http://www.w3.org/2000/svg"
   xmlns:svg="http://www.w3.org/2000/svg">
  <defs
     id="defs1">
    <clipPath
       clipPathUnits="userSpaceOnUse"
       id="clipPath2">
      <path
         d="M 0,0.16 V 1122.5601 H 793.59998 V 0.16 Z"
         transform="translate(-340.16,-485.76001)"
         clip-rule="evenodd"
         id="path2" />
    </clipPath>
    <clipPath
       clipPathUnits="userSpaceOnUse"
       id="clipPath4">
      <path
         d="M 0,0.16 V 1122.5601 H 793.59998 V 0.16 Z"
         transform="translate(-340.16,-485.76001)"
         clip-rule="evenodd"
         id="path4" />
    </clipPath>
    <clipPath
       clipPathUnits="userSpaceOnUse"
       id="clipPath6">
      <path
         d="M 0,0.16 V 1122.5601 H 793.59998 V 0.16 Z"
         transform="translate(-453.44,-485.76001)"
         clip-rule="evenodd"
         id="path6" />
    </clipPath>
  </defs>
  <sodipodi:namedview
     id="namedview1"
     pagecolor="#505050"
     bordercolor="#eeeeee"
     borderopacity="1"
     inkscape:showpageshadow="0"
     inkscape:pageopacity="0"
     inkscape:pagecheckerboard="0"
     inkscape:deskcolor="#505050">
    <inkscape:page
       x="0"
       y="0"
       inkscape:label="1"
       id="page1"
       width="234.8"
       height="320.34668"
       margin="0"
       bleed="0" />
  </sodipodi:namedview>
  <g
     id="g1"
     inkscape:groupmode="layer"
     inkscape:label="1">
    <path
       id="path1"
       d="m 0,0 -4.8,3.84 -4.48,4.32 -4.32,4.48 -4,4.640001 L -21.280001,22.4 -24.639999,27.52 -27.52,32.959999 -30.24,38.720001 -32.48,44.48 -34.240002,50.400002 -35.68,56.48 l -1.119999,6.080001 -0.64,6.079998 -0.319999,6.239998 0.16,6.240006 0.639999,6.079994 0.959999,6.240005 1.439999,6.079995 1.760002,5.920003 2.08,5.76 2.559999,5.6 2.879999,5.6 3.200001,5.28 3.68,4.96 3.84,4.8 4.32,4.64 4.48,4.16 4.8,4 4.96,3.68 5.28,3.19999 5.44,3.04001 5.76,2.56 5.76,2.24001 5.92,1.75999 6.080002,1.44 6.079998,0.95999 6.240001,0.64 6.079998,0.16001 6.240002,-0.16001 6.240002,-0.64 6.079994,-0.95999 6.080002,-1.44 5.919998,-1.75999 5.760002,-2.24001 5.599999,-2.56 5.440002,-3.04001 5.28,-3.19999 5.12,-3.68 4.8,-4 4.48,-4.16 4.16,-4.64 4,-4.8 3.52,-4.96 3.36,-5.28 2.88001,-5.6 2.55999,-5.6 2.08,-5.76 1.76,-5.920003 1.44,-6.079995 0.95999,-6.240005 0.48001,-6.079994 0.15999,-6.240006 L 150.88,68.639999 150.24,62.560001 149.11999,56.48 147.67999,50.400002 145.75999,44.48 143.52,38.720001 140.96001,32.959999 137.92,27.52 134.72,22.4 131.03999,17.280001 127.04,12.64 122.72,8.16 118.24,3.84 113.28,0"
       style="fill:none;stroke:#000000;stroke-width:26.4;stroke-linecap:round;stroke-linejoin:round;stroke-miterlimit:10;stroke-dasharray:none;stroke-opacity:1"
       transform="translate(61.346671,133.37328)"
       clip-path="url(#clipPath2)" />
    <path
       id="path3"
       d="m 0,0 3.36,-1.76 8,-4 8.96,-4 10.559999,-4.64 15.200003,-6.239999 10.079998,-4.32 10.240002,-4.800001 3.519996,-1.76 4,-2.239998 7.200005,-4 6.239998,-4.16 5.599998,-4.160004 5.120003,-4.16 4.959998,-4.479999 4.64,-4.64 4.48,-4.959999 4.48,-5.120002 4.32,-5.439995 4.16,-5.760002 4.32,-6.080002 4.16001,-6.239998 4,-6.720001 4.15998,-6.88 0.64,-1.28"
       style="fill:none;stroke:#000000;stroke-width:26.4;stroke-linecap:round;stroke-linejoin:round;stroke-miterlimit:10;stroke-dasharray:none;stroke-opacity:1"
       transform="translate(61.346671,133.37328)"
       clip-path="url(#clipPath4)" />
    <path
       id="path5"
       d="m 0,0 -3.2,-1.76 -8.16,-4 -8.8,-4 -10.719999,-4.64 -15.039999,-6.239999 L -56,-24.959999 -66.400002,-29.76 l -3.36,-1.76 -4,-2.239998 -7.199997,-4 -6.400002,-4.16 -5.440002,-4.160004 -5.279999,-4.16 -4.799998,-4.479999 -4.64,-4.64 -4.64,-4.959999 -4.32,-5.120002 -4.32,-5.439995 -4.32,-5.760002 -4.16,-6.080002 -4.16,-6.239998 -4.16001,-6.720001 -4,-6.88 -0.63999,-1.28"
       style="fill:none;stroke:#000000;stroke-width:26.4;stroke-linecap:round;stroke-linejoin:round;stroke-miterlimit:10;stroke-dasharray:none;stroke-opacity:1"
       transform="translate(174.62667,133.37328)"
       clip-path="url(#clipPath6)" />
  </g>
</svg>
