<?xml version="1.0" encoding="UTF-8" standalone="no"?>
<!-- Created with Inkscape (http://www.inkscape.org/) -->

<svg
   version="1.1"
   id="svg1"
   width="224.12"
   height="313.67999"
   viewBox="0 0 224.12 313.67999"
   sodipodi:docname="AscendingNode5.pdf"
   xmlns:inkscape="http://www.inkscape.org/namespaces/inkscape"
   xmlns:sodipodi="http://sodipodi.sourceforge.net/DTD/sodipodi-0.dtd"
   xmlns="http://www.w3.org/2000/svg"
   xmlns:svg="http://www.w3.org/2000/svg">
  <defs
     id="defs1">
    <clipPath
       clipPathUnits="userSpaceOnUse"
       id="clipPath2">
      <path
         d="M 0,0.16 V 1122.5601 H 793.59998 V 0.16 Z"
         transform="translate(-472.32001,-448)"
         clip-rule="evenodd"
         id="path2" />
    </clipPath>
    <clipPath
       clipPathUnits="userSpaceOnUse"
       id="clipPath4">
      <path
         d="M 0,0.16 V 1122.5601 H 793.59998 V 0.16 Z"
         transform="translate(-472.32001,-674.56)"
         clip-rule="evenodd"
         id="path4" />
    </clipPath>
    <clipPath
       clipPathUnits="userSpaceOnUse"
       id="clipPath6">
      <path
         d="M 0,0.16 V 1122.5601 H 793.59998 V 0.16 Z"
         transform="translate(-396.79999,-448)"
         clip-rule="evenodd"
         id="path6" />
    </clipPath>
    <clipPath
       clipPathUnits="userSpaceOnUse"
       id="clipPath8">
      <path
         d="M 0,0.16 V 1122.5601 H 793.59998 V 0.16 Z"
         clip-rule="evenodd"
         id="path8" />
    </clipPath>
    <clipPath
       clipPathUnits="userSpaceOnUse"
       id="clipPath10">
      <path
         d="M 0,0.16 V 1122.5601 H 793.59998 V 0.16 Z"
         clip-rule="evenodd"
         id="path10" />
    </clipPath>
    <clipPath
       clipPathUnits="userSpaceOnUse"
       id="clipPath12">
      <path
         d="M 0,0.16 V 1122.5601 H 793.59998 V 0.16 Z"
         transform="translate(-434.56,-448)"
         clip-rule="evenodd"
         id="path12" />
    </clipPath>
  </defs>
  <sodipodi:namedview
     id="namedview1"
     pagecolor="#505050"
     bordercolor="#eeeeee"
     borderopacity="1"
     inkscape:showpageshadow="0"
     inkscape:pageopacity="0"
     inkscape:pagecheckerboard="0"
     inkscape:deskcolor="#505050">
    <inkscape:page
       x="0"
       y="0"
       inkscape:label="1"
       id="page1"
       width="224.12"
       height="313.67999"
       margin="0"
       bleed="0" />
  </sodipodi:namedview>
  <g
     id="g1"
     inkscape:groupmode="layer"
     inkscape:label="1">
    <path
       id="path1"
       d="m 0,0 c 0,-10.42 -8.45,-18.879999 -18.879999,-18.879999 -10.43,0 -18.879999,8.459999 -18.879999,18.879999 0,10.42 8.449999,18.879999 18.879999,18.879999 C -8.45,18.879999 0,10.42 0,0 Z"
       style="fill:none;stroke:#000000;stroke-width:26.4;stroke-linecap:round;stroke-linejoin:round;stroke-miterlimit:10;stroke-dasharray:none;stroke-opacity:1"
       transform="translate(472.32001,450.66661)"
       clip-path="url(#clipPath2)" />
    <path
       id="path3"
       d="m 0,0 c 0,-10.42 -8.45,-18.879999 -18.879999,-18.879999 -10.43,0 -18.879999,8.459999 -18.879999,18.879999 0,10.42 8.449999,18.879999 18.879999,18.879999 C -8.45,18.879999 0,10.42 0,0 Z"
       style="fill:none;stroke:#000000;stroke-width:26.4;stroke-linecap:round;stroke-linejoin:round;stroke-miterlimit:10;stroke-dasharray:none;stroke-opacity:1"
       transform="translate(472.32001,677.22661)"
       clip-path="url(#clipPath4)" />
    <path
       id="path5"
       d="m 0,0 -6.72,0.16 -6.88,0.64 -6.72,1.12 -6.720001,1.44 -6.559997,1.76 -6.560002,2.24 -6.240002,2.72 -6.239997,2.88 -5.920002,3.36 L -64.32,20 -69.760002,24.16 -75.040001,28.48 -80,33.279999 l -4.800003,4.960003 -4.32,5.279998 -4,5.439999 -3.839996,5.760002 -3.360001,5.919998 -2.88,6.239998 -2.72,6.240006 -2.24,6.559997 -1.76,6.559998 -1.44,6.720001 -0.96,6.720001 -0.64,6.72 -0.32,6.88 0.32,6.88 0.64,6.72 0.96,6.87999 1.44,6.72001 1.76,6.55999 2.24,6.40001 2.72,6.4 2.88,6.08 3.360001,5.92 3.839996,5.76001 4,5.59999 4.32,5.28 4.800003,4.96 4.959999,4.64 5.279999,4.31999 5.440002,4.16001 5.759999,3.68 5.920002,3.36001 6.239997,3.03999 6.240002,2.56 6.560002,2.24 6.559997,1.92 6.720001,1.28 6.72,1.11999 6.88,0.64 L 0,226.56"
       style="fill:none;stroke:#000000;stroke-width:26.4;stroke-linecap:round;stroke-linejoin:round;stroke-miterlimit:10;stroke-dasharray:none;stroke-opacity:1"
       transform="translate(396.79999,450.66661)"
       clip-path="url(#clipPath6)" />
    <path
       id="path7"
       d="M 396.79999,448 H 434.56"
       style="fill:none;stroke:#000000;stroke-width:26.4;stroke-linecap:round;stroke-linejoin:round;stroke-miterlimit:10;stroke-dasharray:none;stroke-opacity:1"
       transform="translate(0,2.666608)"
       clip-path="url(#clipPath8)" />
    <path
       id="path9"
       d="M 396.79999,674.56 H 434.56"
       style="fill:none;stroke:#000000;stroke-width:26.4;stroke-linecap:round;stroke-linejoin:round;stroke-miterlimit:10;stroke-dasharray:none;stroke-opacity:1"
       transform="translate(0,2.666608)"
       clip-path="url(#clipPath10)" />
    <path
       id="path11"
       d="m 0,0 -6.72,3.04 -6.56,3.52 -6.24,3.84 -6.08,4.16 -5.92,4.640001 L -36.959999,24 l -5.280003,5.280001 -4.799999,5.6 -4.639999,5.759998 -4.16,6.080002 -3.84,6.399998 -3.520001,6.560001 -2.880001,6.720002 -2.720001,6.879997 -2.239998,7.200004 -1.760002,7.039994 -1.279999,7.36 -0.959999,7.360003 -0.32,7.36 v 7.36 l 0.32,7.36 0.959999,7.35999 1.279999,7.36 1.760002,7.20001 2.239998,7.04 2.720001,6.88 2.880001,6.72 3.520001,6.56 3.84,6.4 4.16,6.08 4.639999,5.75999 4.799999,5.60001 5.280003,5.28 5.439999,4.96 5.92,4.48 6.08,4.16 6.24,3.84 6.56,3.52 6.72,3.04"
       style="fill:none;stroke:#000000;stroke-width:26.4;stroke-linecap:round;stroke-linejoin:round;stroke-miterlimit:10;stroke-dasharray:none;stroke-opacity:1"
       transform="translate(434.56,450.66661)"
       clip-path="url(#clipPath12)" />
  </g>
</svg>
