<?xml version="1.0" encoding="UTF-8" standalone="no"?>
<!-- Created with Inkscape (http://www.inkscape.org/) -->

<svg
   version="1.1"
   id="svg1"
   width="328.18668"
   height="345.70667"
   viewBox="0 0 328.18668 345.70667"
   sodipodi:docname="Aten.pdf"
   xmlns:inkscape="http://www.inkscape.org/namespaces/inkscape"
   xmlns:sodipodi="http://sodipodi.sourceforge.net/DTD/sodipodi-0.dtd"
   xmlns="http://www.w3.org/2000/svg"
   xmlns:svg="http://www.w3.org/2000/svg">
  <defs
     id="defs1">
    <clipPath
       clipPathUnits="userSpaceOnUse"
       id="clipPath2">
      <path
         d="M 0,0.16 V 1122.5601 H 793.59998 V 0.16 Z"
         transform="translate(-490.56,-504.64001)"
         clip-rule="evenodd"
         id="path2" />
    </clipPath>
    <clipPath
       clipPathUnits="userSpaceOnUse"
       id="clipPath4">
      <path
         d="M 0,0.16 V 1122.5601 H 793.59998 V 0.16 Z"
         transform="translate(-405.60001,-504.64001)"
         clip-rule="evenodd"
         id="path4" />
    </clipPath>
    <clipPath
       clipPathUnits="userSpaceOnUse"
       id="clipPath6">
      <path
         d="M 0,0.16 V 1122.5601 H 793.59998 V 0.16 Z"
         transform="translate(-405.60001,-504.64001)"
         clip-rule="evenodd"
         id="path6" />
    </clipPath>
    <clipPath
       clipPathUnits="userSpaceOnUse"
       id="clipPath8">
      <path
         d="M 0,0.16 V 1122.5601 H 793.59998 V 0.16 Z"
         clip-rule="evenodd"
         id="path8" />
    </clipPath>
    <clipPath
       clipPathUnits="userSpaceOnUse"
       id="clipPath10">
      <path
         d="M 0,0.16 V 1122.5601 H 793.59998 V 0.16 Z"
         clip-rule="evenodd"
         id="path10" />
    </clipPath>
    <clipPath
       clipPathUnits="userSpaceOnUse"
       id="clipPath12">
      <path
         d="M 0,0.16 V 1122.5601 H 793.59998 V 0.16 Z"
         clip-rule="evenodd"
         id="path12" />
    </clipPath>
    <clipPath
       clipPathUnits="userSpaceOnUse"
       id="clipPath14">
      <path
         d="M 0,0.16 V 1122.5601 H 793.59998 V 0.16 Z"
         clip-rule="evenodd"
         id="path14" />
    </clipPath>
    <clipPath
       clipPathUnits="userSpaceOnUse"
       id="clipPath16">
      <path
         d="M 0,0.16 V 1122.5601 H 793.59998 V 0.16 Z"
         clip-rule="evenodd"
         id="path16" />
    </clipPath>
    <clipPath
       clipPathUnits="userSpaceOnUse"
       id="clipPath18">
      <path
         d="M 0,0.16 V 1122.5601 H 793.59998 V 0.16 Z"
         clip-rule="evenodd"
         id="path18" />
    </clipPath>
  </defs>
  <sodipodi:namedview
     id="namedview1"
     pagecolor="#505050"
     bordercolor="#eeeeee"
     borderopacity="1"
     inkscape:showpageshadow="0"
     inkscape:pageopacity="0"
     inkscape:pagecheckerboard="0"
     inkscape:deskcolor="#505050">
    <inkscape:page
       x="0"
       y="0"
       inkscape:label="1"
       id="page1"
       width="328.18668"
       height="345.70667"
       margin="0"
       bleed="0" />
  </sodipodi:namedview>
  <g
     id="g1"
     inkscape:groupmode="layer"
     inkscape:label="1">
    <path
       id="path1"
       d="m 0,0 c 0,-52.130001 -42.220001,-94.400002 -94.32,-94.400002 -52.1,0 -94.32,42.270001 -94.32,94.400002 0,52.130001 42.22,94.400002 94.32,94.400002 C -42.220001,94.400002 0,52.130001 0,0 Z"
       style="fill:none;stroke:#000000;stroke-width:26.4;stroke-linecap:round;stroke-linejoin:round;stroke-miterlimit:10;stroke-dasharray:none;stroke-opacity:1"
       transform="translate(490.56,499.30662)"
       clip-path="url(#clipPath2)" />
    <path
       id="path3"
       d="m 0,0 v -1.28 l -0.32,-1.28 -0.48,-1.28 -0.64,-1.28 -0.8,-0.96 -0.96,-0.96 -1.12,-0.8 -1.12,-0.8 -1.28,-0.32 -1.28,-0.32 -1.44,-0.16 -1.28,0.16 -1.28,0.32 -1.28,0.32 -1.12,0.8 -1.12,0.8 -0.96,0.96 -0.800001,0.96 -0.639999,1.28 -0.48,1.28 -0.319999,1.28 -0.16,1.28 0.16,1.44 0.319999,1.28 0.48,1.28 0.639999,1.12 0.800001,1.12 0.96,0.96 1.12,0.8 1.12,0.64 1.28,0.48 1.28,0.32 H -9.44 -8 L -6.72,9.12 -5.44,8.64 -4.32,8 -3.2,7.2 -2.24,6.24 -1.44,5.12 -0.8,4 -0.32,2.72 0,1.44 V 0 0 Z"
       style="fill:#000000;fill-opacity:1;fill-rule:evenodd;stroke:none"
       transform="translate(405.60001,499.30662)"
       clip-path="url(#clipPath4)" />
    <path
       id="path5"
       d="m 0,0 v -1.28 l -0.32,-1.28 -0.48,-1.28 -0.64,-1.28 -0.8,-0.96 -0.96,-0.96 -1.12,-0.8 -1.12,-0.8 -1.28,-0.32 -1.28,-0.32 -1.44,-0.16 -1.28,0.16 -1.28,0.32 -1.28,0.32 -1.12,0.8 -1.12,0.8 -0.96,0.96 -0.800001,0.96 -0.639999,1.28 -0.48,1.28 -0.319999,1.28 -0.16,1.28 0.16,1.44 0.319999,1.28 0.48,1.28 0.639999,1.12 0.800001,1.12 0.96,0.96 1.12,0.8 1.12,0.64 1.28,0.48 1.28,0.32 H -9.44 -8 L -6.72,9.12 -5.44,8.64 -4.32,8 -3.2,7.2 -2.24,6.24 -1.44,5.12 -0.8,4 -0.32,2.72 0,1.44 V 0"
       style="fill:none;stroke:#000000;stroke-width:0.48;stroke-linecap:round;stroke-linejoin:round;stroke-miterlimit:10;stroke-dasharray:none;stroke-opacity:1"
       transform="translate(405.60001,499.30662)"
       clip-path="url(#clipPath6)" />
    <path
       id="path7"
       d="M 396.16,599.03998 V 693.44"
       style="fill:none;stroke:#000000;stroke-width:26.4;stroke-linecap:round;stroke-linejoin:round;stroke-miterlimit:10;stroke-dasharray:none;stroke-opacity:1"
       transform="translate(0,-5.333392)"
       clip-path="url(#clipPath8)" />
    <path
       id="path9"
       d="M 396.16,712.32001 377.28,693.44 h 37.76001 L 396.16,712.32001"
       style="fill:none;stroke:#000000;stroke-width:26.4;stroke-linecap:round;stroke-linejoin:round;stroke-miterlimit:10;stroke-dasharray:none;stroke-opacity:1"
       transform="translate(0,-5.333392)"
       clip-path="url(#clipPath10)" />
    <path
       id="path11"
       d="m 458.56,574.71997 66.72003,66.88001"
       style="fill:none;stroke:#000000;stroke-width:26.4;stroke-linecap:round;stroke-linejoin:round;stroke-miterlimit:10;stroke-dasharray:none;stroke-opacity:1"
       transform="translate(0,-5.333392)"
       clip-path="url(#clipPath12)" />
    <path
       id="path13"
       d="m 538.56,654.88 h -26.72 l 26.72,-26.72003 V 654.88"
       style="fill:none;stroke:#000000;stroke-width:26.4;stroke-linecap:round;stroke-linejoin:round;stroke-miterlimit:10;stroke-dasharray:none;stroke-opacity:1"
       transform="translate(0,-5.333392)"
       clip-path="url(#clipPath14)" />
    <path
       id="path15"
       d="m 335.20001,579.67999 -66.72,66.72003"
       style="fill:none;stroke:#000000;stroke-width:26.4;stroke-linecap:round;stroke-linejoin:round;stroke-miterlimit:10;stroke-dasharray:none;stroke-opacity:1"
       transform="translate(0,-5.333392)"
       clip-path="url(#clipPath16)" />
    <path
       id="path17"
       d="M 255.2,659.84003 V 633.12 l 26.56001,26.72003 H 255.2"
       style="fill:none;stroke:#000000;stroke-width:26.4;stroke-linecap:round;stroke-linejoin:round;stroke-miterlimit:10;stroke-dasharray:none;stroke-opacity:1"
       transform="translate(0,-5.333392)"
       clip-path="url(#clipPath18)" />
  </g>
</svg>
