<?xml version="1.0" encoding="UTF-8" standalone="no"?>
<!-- Created with Inkscape (http://www.inkscape.org/) -->

<svg
   version="1.1"
   id="svg1"
   width="393.54666"
   height="397.77332"
   viewBox="0 0 393.54666 397.77332"
   sodipodi:docname="Cancer8.pdf"
   xmlns:inkscape="http://www.inkscape.org/namespaces/inkscape"
   xmlns:sodipodi="http://sodipodi.sourceforge.net/DTD/sodipodi-0.dtd"
   xmlns="http://www.w3.org/2000/svg"
   xmlns:svg="http://www.w3.org/2000/svg">
  <defs
     id="defs1">
    <clipPath
       clipPathUnits="userSpaceOnUse"
       id="clipPath2">
      <path
         d="M 0,0.16 V 1122.5601 H 793.59998 V 0.16 Z"
         transform="translate(-470.07999,-413.28)"
         clip-rule="evenodd"
         id="path2" />
    </clipPath>
    <clipPath
       clipPathUnits="userSpaceOnUse"
       id="clipPath4">
      <path
         d="M 0,0.16 V 1122.5601 H 793.59998 V 0.16 Z"
         transform="translate(-385.76001,-604)"
         clip-rule="evenodd"
         id="path4" />
    </clipPath>
    <clipPath
       clipPathUnits="userSpaceOnUse"
       id="clipPath6">
      <path
         d="M 0,0.16 V 1122.5601 H 793.59998 V 0.16 Z"
         transform="translate(-399.51999,-459.84)"
         clip-rule="evenodd"
         id="path6" />
    </clipPath>
    <clipPath
       clipPathUnits="userSpaceOnUse"
       id="clipPath8">
      <path
         d="M 0,0.16 V 1122.5601 H 793.59998 V 0.16 Z"
         transform="translate(-564.47998,-476.48001)"
         clip-rule="evenodd"
         id="path8" />
    </clipPath>
    <clipPath
       clipPathUnits="userSpaceOnUse"
       id="clipPath10">
      <path
         d="M 0,0.16 V 1122.5601 H 793.59998 V 0.16 Z"
         transform="translate(-494.07999,-523.20001)"
         clip-rule="evenodd"
         id="path10" />
    </clipPath>
    <clipPath
       clipPathUnits="userSpaceOnUse"
       id="clipPath12">
      <path
         d="M 0,0.16 V 1122.5601 H 793.59998 V 0.16 Z"
         transform="translate(-324.79999,-637.11999)"
         clip-rule="evenodd"
         id="path12" />
    </clipPath>
    <clipPath
       clipPathUnits="userSpaceOnUse"
       id="clipPath14">
      <path
         d="M 0,0.16 V 1122.5601 H 793.59998 V 0.16 Z"
         transform="translate(-230.88,-568.32001)"
         clip-rule="evenodd"
         id="path14" />
    </clipPath>
  </defs>
  <sodipodi:namedview
     id="namedview1"
     pagecolor="#505050"
     bordercolor="#eeeeee"
     borderopacity="1"
     inkscape:showpageshadow="0"
     inkscape:pageopacity="0"
     inkscape:pagecheckerboard="0"
     inkscape:deskcolor="#505050">
    <inkscape:page
       x="0"
       y="0"
       inkscape:label="1"
       id="page1"
       width="393.54666"
       height="397.77332"
       margin="0"
       bleed="0" />
  </sodipodi:namedview>
  <g
     id="g1"
     inkscape:groupmode="layer"
     inkscape:label="1">
    <path
       id="path1"
       d="m 0,0 -2.4,-1.12 -2.56,-0.8 -2.88,-0.48 -2.88,-0.16 -3.04,0.32 -3.199999,0.48 -3.360001,0.96 -3.36,1.28 -3.360001,1.6 -3.519998,1.92 -3.520003,2.4 -3.519996,2.56 -3.520001,2.72 -3.52,3.2 L -48,18.24 l -3.360001,3.68 -3.36,3.84 -3.199997,4 -3.200001,4.320002 -3.040005,4.32 -2.719993,4.639999 -2.720001,4.639999 -2.560006,4.64 -2.399994,4.959999 -2.080001,4.800003 -2.080002,4.959999 -1.599999,4.799995 -1.599998,4.800003 -1.279999,4.800003 -1.120003,4.799996 -0.800003,4.639999 -0.479995,4.480004 -0.32,4.319999 v 4.16 l 0.159996,4 0.480003,3.68 0.64,3.52 0.959999,3.36 1.120002,3.04 1.439995,2.72 1.600006,2.4 1.919999,2.08 2.080001,1.92 2.239998,1.44 2.400002,1.11999 2.559997,0.80001 2.879998,0.47999 h 2.880001 L -59.52,134.24 l 3.2,-0.63999 3.360001,-0.96001 3.360001,-1.28 3.359996,-1.60001 3.520001,-1.91999 3.52,-2.24 3.520001,-2.56 3.52,-2.88 3.360001,-3.04 3.519998,-3.36 3.360001,-3.68 3.360001,-3.84 3.199999,-4 3.2,-4.320002 2.88,-4.32 L -6.4,88.959999 -3.68,84.32 -1.12,79.519997 1.28,74.720001 3.36,69.919998 5.28,64.959999 7.04,60.16 l 1.6,-4.959999 1.28,-4.799999 0.96,-4.640004 0.8,-4.639999 0.64,-4.48 L 12.64,32.32 v -4.16 l -0.16,-4 L 12,20.32 11.36,16.799999 10.4,13.6 9.28,10.56 7.84,7.84 6.24,5.44 4.32,3.2 2.24,1.44 0,0"
       style="fill:none;stroke:#000000;stroke-width:26.4;stroke-linecap:round;stroke-linejoin:round;stroke-miterlimit:10;stroke-dasharray:none;stroke-opacity:1"
       transform="translate(268.63999,32.866607)"
       clip-path="url(#clipPath2)" />
    <path
       id="path3"
       d="m 0,0 -2.4,-1.28 -2.72,-0.8 -2.72,-0.32 -3.04,-0.16 -3.04,0.32 -3.200001,0.48 -3.199999,0.96 -3.36,1.28 -3.520001,1.6 -3.359998,1.92 -3.520003,2.24 -3.519996,2.56 -3.520001,2.88 -3.52,3.2 -3.520001,3.36 -3.36,3.52 -3.360001,4 -3.200001,4 -3.039997,4.159998 -3.040005,4.480004 -2.879997,4.479999 -2.720001,4.639999 -2.559998,4.8 -2.239998,4.799999 -2.240005,4.960003 -1.919998,4.799995 -1.760002,4.959999 -1.439995,4.800003 -1.279999,4.800003 -1.120003,4.799996 -0.800003,4.639999 -0.639999,4.480004 -0.159996,4.319999 -0.160004,4.16 0.160004,4 0.479996,3.68 0.639999,3.52 0.960007,3.36 1.279998,3.04 1.279999,2.72 1.760002,2.4 1.759995,2.08 2.080002,1.75999 2.239998,1.60001 2.560005,1.11999 2.559997,0.80001 2.720002,0.47999 h 3.039997 L -59.52,134.24 l 3.2,-0.63999 3.200001,-0.96001 3.360001,-1.28 3.519996,-1.60001 3.360001,-1.91999 3.52,-2.24 3.520001,-2.56 3.52,-2.88 3.520001,-3.04 3.519998,-3.52 3.360001,-3.52 3.360001,-3.84 3.199999,-4.16 3.04,-4.160002 3.04,-4.479996 L -6.4,88.959999 -3.68,84.32 -1.12,79.519997 1.12,74.720001 3.36,69.760002 5.28,64.959999 7.04,60 l 1.44,-4.799999 1.28,-4.799999 1.12,-4.640004 0.8,-4.639999 0.64,-4.48 L 12.48,32.16 12.64,28 12.48,24.16 12,20.32 11.36,16.799999 10.4,13.44 9.12,10.56 7.84,7.84 6.08,5.28 4.32,3.2 2.24,1.44 0,0"
       style="fill:none;stroke:#000000;stroke-width:26.4;stroke-linecap:round;stroke-linejoin:round;stroke-miterlimit:10;stroke-dasharray:none;stroke-opacity:1"
       transform="translate(184.32001,223.58661)"
       clip-path="url(#clipPath4)" />
    <path
       id="path5"
       d="M 0,0 -2.56,4.96 -5.44,10.56 -8,16 l -2.24,5.440001 -1.92,5.439998 -1.76,5.280001 -1.6,5.279999 -1.279999,5.280002 L -17.76,48 -18.559999,53.279999 -19.200001,58.720001 -19.52,64.480003 -19.84,70.559998 -20,71.68 v 2.720002 l -0.32,7.36 -0.16,7.040001 v 7.039993 l 0.32,6.560004 0.799999,6.08 1.120001,5.6 0.64,2.08 0.479999,1.92 1.920001,5.12 2.24,5.6 3.36,7.36 1.92,4.64 1.44,3.68 2.24,6.72 1.44,5.76001 0.48,2.55999 0.8,5.44001 0.32,5.43998 v 5.28 l -0.48,5.12001 -0.8,5.28 -1.12,5.44 -1.6,5.28 -1.76,5.59999 -2.08,5.44001 -2.56,5.76001 -2.72,5.75999 -3.040001,5.92 -1.119999,2.08"
       style="fill:none;stroke:#000000;stroke-width:26.4;stroke-linecap:round;stroke-linejoin:round;stroke-miterlimit:10;stroke-dasharray:none;stroke-opacity:1"
       transform="translate(198.07999,79.426604)"
       clip-path="url(#clipPath6)" />
    <path
       id="path7"
       d="m 0,0 -2.4,-1.12 -2.56,-0.8 -2.88,-0.48 h -2.88 l -3.04,0.16 -3.199999,0.64 -3.360001,0.96 -3.36,1.28 -3.360001,1.6 -3.519998,1.92 -3.520003,2.24 -3.519996,2.56 -3.520001,2.88 -3.360001,3.04 -3.52,3.52 -3.360001,3.52 -3.36,3.84 -3.199997,4.16 -3.200001,4.160002 L -64,38.560001 l -2.879997,4.48 -2.720001,4.639999 -2.560006,4.8 -2.399994,4.799999 -2.080001,4.960003 -1.919999,4.799999 L -80.32,72 l -1.599998,4.800003 -1.279999,4.799995 -0.960007,4.64 -0.799995,4.639999 -0.639999,4.480004 -0.32,4.319999 V 104 l 0.159996,3.84 0.480003,3.84 0.64,3.52 0.959999,3.2 1.120002,3.04 1.439995,2.72 1.600006,2.56 1.919999,2.08 2.080001,1.76 2.239998,1.44 2.400002,1.11999 2.559997,0.80001 2.879998,0.47999 2.880001,0.16001 3.040001,-0.32 3.2,-0.48001 3.360001,-0.95999 3.360001,-1.28 3.359996,-1.6 3.520001,-1.92 3.52,-2.24 3.520001,-2.56 3.52,-2.88 3.520001,-3.2 3.359998,-3.36 3.360001,-3.52 3.360001,-4 3.199999,-4 3.2,-4.159998 3.04,-4.480004 2.72,-4.479995 2.72,-4.800003 2.56,-4.64 2.4,-4.800003 2.08,-4.959999 2.08,-4.799995 1.6,-4.960003 1.6,-4.799999 1.28,-4.8 1.12,-4.800003 0.8,-4.639999 0.48,-4.48 L 12.64,32.32 v -4.16 l -0.16,-4 L 12,20.48 11.36,16.959999 10.4,13.6 9.28,10.56 7.84,7.84 6.24,5.44 4.32,3.36 2.24,1.6 0,0"
       style="fill:none;stroke:#000000;stroke-width:26.4;stroke-linecap:round;stroke-linejoin:round;stroke-miterlimit:10;stroke-dasharray:none;stroke-opacity:1"
       transform="translate(363.03998,96.066619)"
       clip-path="url(#clipPath8)" />
    <path
       id="path9"
       d="M 0,0 -2.72,4.8 -5.44,10.4 -8,16 l -2.4,5.440001 -1.92,5.279998 -1.76,5.440001 -1.6,5.279999 -1.279999,5.280002 L -17.92,47.84 -18.719999,53.279999 -19.360001,58.720001 -19.68,64.32 -20,70.400002 -20.16,71.68 v 2.559998 l -0.32,7.36 -0.159999,7.200005 V 95.68 l 0.319999,6.56 0.8,6.08 1.12,5.76 0.64,2.08 0.479999,1.92 1.920001,4.96 2.4,5.76 3.2,7.36 1.92,4.64 1.44,3.68 2.24,6.55999 1.44,5.92002 0.48,2.39999 0.8,5.44 0.32,5.44 v 5.28 l -0.48,5.28 -0.8,5.28 -1.12,5.28 -1.44,5.44 -1.92,5.44 -2.08,5.6 -2.4,5.6 -2.88,5.92 -3.040001,5.75999 L -18.4,227.36"
       style="fill:none;stroke:#000000;stroke-width:26.4;stroke-linecap:round;stroke-linejoin:round;stroke-miterlimit:10;stroke-dasharray:none;stroke-opacity:1"
       transform="translate(292.63999,142.78662)"
       clip-path="url(#clipPath10)" />
    <path
       id="path11"
       d="m 0,0 2.88,-3.68 3.36,-4 3.2,-3.84 3.2,-3.52 3.2,-3.2 2.879999,-2.880001 L 21.76,-23.84 24.639999,-26.4 27.52,-28.639999 l 2.72,-1.92 L 33.119999,-32.32 36,-34.080002 39.040001,-35.52 h 0.16 l 1.279999,-0.64 3.84,-1.599998 3.84,-1.280003 4.32,-1.119999 4.799999,-0.799999 5.440002,-0.639999 h 1.440003 l 1.439994,-0.16 4.480004,-0.16 L 76,-42.080002 h 7.199997 l 10.080002,0.320004 2.880005,0.16 h 1.599998 l 4.479998,0.319999 6.88,0.48 7.2,0.479999 7.84,0.8 h 0.32 l 1.28,0.159999 3.84001,0.48 10.07998,1.600002 4.16001,0.799999 5.91999,1.599999 1.12001,0.32 3.68,1.280002 7.68,2.56 5.92,1.599998 2.87999,0.640001 2.88001,0.48 1.11999,0.16 3.68001,0.16 4,-0.32 3.84,-0.639999 3.68,-1.280001 3.68,-1.6 3.68001,-1.919999 L 200,-35.040001 201.44,-36 l 3.52001,-2.720001 3.36,-2.879997 3.19999,-3.040001 3.04,-3.360001 3.04001,-3.52 3.03999,-3.840001 3.03999,-4 3.20001,-4.319999 3.2,-4.64 3.2,-4.959999 3.2,-5.279999 3.52,-5.600006 1.28,-2.079994"
       style="fill:none;stroke:#000000;stroke-width:26.4;stroke-linecap:round;stroke-linejoin:round;stroke-miterlimit:10;stroke-dasharray:none;stroke-opacity:1"
       transform="translate(123.35999,256.7066)"
       clip-path="url(#clipPath12)" />
    <path
       id="path13"
       d="m 0,0 3.2,-2.72 4,-3.52 3.84,-3.36 3.68,-3.2 3.52,-2.88 3.36,-2.56 3.359999,-2.399999 3.200001,-2.24 3.040001,-2.08 3.040001,-1.76 3.199997,-1.760001 3.040001,-1.6 0.479999,-0.16 1.280003,-0.639999 3.84,-1.600001 3.839996,-1.279998 4.320004,-1.120003 4.959999,-0.799999 5.280002,-0.64 h 1.599999 L 67.519997,-36.48 72,-36.639999 l 5.760002,-0.16 7.199997,0.16 10.080002,0.159999 2.879997,0.16 h 1.599999 L 104,-36 l 6.88,0.48 7.2,0.479999 7.84,0.799999 0.32,0.16 h 1.28 l 3.84,0.480004 10.08,1.599998 4.16001,0.799999 5.91999,1.600001 1.28,0.319999 3.52001,1.280001 7.83999,2.559999 5.76,1.600001 2.88,0.799999 2.87999,0.480002 h 1.28002 L 180.48,-22.4 l 4,-0.159999 3.84001,-0.800002 3.67999,-1.279998 3.67999,-1.440001 3.68001,-2.08 2.39999,-1.44 1.60001,-1.119999 3.52,-2.72 3.36,-2.880001 3.2,-3.2 3.04,-3.520001 3.04,-3.68 2.87999,-4.16 3.04001,-4.32 2.88001,-4.639999 2.71998,-4.960003 2.88001,-5.279999 2.88,-5.599998 0.64,-1.440003"
       style="fill:none;stroke:#000000;stroke-width:26.4;stroke-linecap:round;stroke-linejoin:round;stroke-miterlimit:10;stroke-dasharray:none;stroke-opacity:1"
       transform="translate(29.440005,187.90662)"
       clip-path="url(#clipPath14)" />
  </g>
</svg>
