<?xml version="1.0" encoding="UTF-8" standalone="no"?>
<!-- Created with Inkscape (http://www.inkscape.org/) -->

<svg
   version="1.1"
   id="svg1"
   width="344.18668"
   height="208.22667"
   viewBox="0 0 344.18668 208.22667"
   sodipodi:docname="Cancer5.pdf"
   xmlns:inkscape="http://www.inkscape.org/namespaces/inkscape"
   xmlns:sodipodi="http://sodipodi.sourceforge.net/DTD/sodipodi-0.dtd"
   xmlns="http://www.w3.org/2000/svg"
   xmlns:svg="http://www.w3.org/2000/svg">
  <defs
     id="defs1">
    <clipPath
       clipPathUnits="userSpaceOnUse"
       id="clipPath2">
      <path
         d="M 0,0.16 V 1122.5601 H 793.59998 V 0.16 Z"
         transform="translate(-539.52002,-530.23999)"
         clip-rule="evenodd"
         id="path2" />
    </clipPath>
    <clipPath
       clipPathUnits="userSpaceOnUse"
       id="clipPath4">
      <path
         d="M 0,0.16 V 1122.5601 H 793.59998 V 0.16 Z"
         transform="translate(-545.12,-619.03998)"
         clip-rule="evenodd"
         id="path4" />
    </clipPath>
    <clipPath
       clipPathUnits="userSpaceOnUse"
       id="clipPath6">
      <path
         d="M 0,0.16 V 1122.5601 H 793.59998 V 0.16 Z"
         transform="translate(-361.92001,-549.11999)"
         clip-rule="evenodd"
         id="path6" />
    </clipPath>
    <clipPath
       clipPathUnits="userSpaceOnUse"
       id="clipPath8">
      <path
         d="M 0,0.16 V 1122.5601 H 793.59998 V 0.16 Z"
         transform="translate(-361.92001,-549.11999)"
         clip-rule="evenodd"
         id="path8" />
    </clipPath>
    <clipPath
       clipPathUnits="userSpaceOnUse"
       id="clipPath10">
      <path
         d="M 0,0.16 V 1122.5601 H 793.59998 V 0.16 Z"
         transform="translate(-367.35999,-637.91998)"
         clip-rule="evenodd"
         id="path10" />
    </clipPath>
    <clipPath
       clipPathUnits="userSpaceOnUse"
       id="clipPath12">
      <path
         d="M 0,0.16 V 1122.5601 H 793.59998 V 0.16 Z"
         transform="translate(-367.35999,-637.91998)"
         clip-rule="evenodd"
         id="path12" />
    </clipPath>
  </defs>
  <sodipodi:namedview
     id="namedview1"
     pagecolor="#505050"
     bordercolor="#eeeeee"
     borderopacity="1"
     inkscape:showpageshadow="0"
     inkscape:pageopacity="0"
     inkscape:pagecheckerboard="0"
     inkscape:deskcolor="#505050">
    <inkscape:page
       x="0"
       y="0"
       inkscape:label="1"
       id="page1"
       width="344.18668"
       height="208.22667"
       margin="0"
       bleed="0" />
  </sodipodi:namedview>
  <g
     id="g1"
     inkscape:groupmode="layer"
     inkscape:label="1">
    <path
       id="path1"
       d="m 0,0 c 0,-14.75 -11.92,-26.719999 -26.639999,-26.719999 -14.720002,0 -26.64,11.969999 -26.64,26.719999 0,14.75 11.919998,26.719999 26.64,26.719999 C -11.92,26.719999 0,14.75 0,0 Z"
       style="fill:none;stroke:#000000;stroke-width:26.4;stroke-linecap:round;stroke-linejoin:round;stroke-miterlimit:10;stroke-dasharray:none;stroke-opacity:1"
       transform="translate(315.40002,52.386598)"
       clip-path="url(#clipPath2)" />
    <path
       id="path3"
       d="m 0,0 c 0,-14.75 -11.96,-26.719999 -26.719999,-26.719999 -14.760001,0 -26.72,11.969999 -26.72,26.719999 0,14.75 11.959999,26.719999 26.72,26.719999 C -11.96,26.719999 0,14.75 0,0 Z"
       style="fill:none;stroke:#000000;stroke-width:26.4;stroke-linecap:round;stroke-linejoin:round;stroke-miterlimit:10;stroke-dasharray:none;stroke-opacity:1"
       transform="translate(321,141.18659)"
       clip-path="url(#clipPath4)" />
    <path
       id="path5"
       d="m 0,0 -4.96,-3.52 -5.28,-3.2 -5.44,-2.72 -5.440001,-2.56 -5.759998,-2.08 -5.76,-1.76 -5.920002,-1.280001 -6.079998,-0.959999 -5.920002,-0.639999 -6.079998,-0.16 -6.080002,0.16 -6.080002,0.639999 -6.079994,0.959999 -5.920006,1.280001 -5.759995,1.76 -5.760002,2.08 -5.440002,2.56 -5.439998,2.72 -5.12,3.2 -4.96,3.52"
       style="fill:none;stroke:#000000;stroke-width:26.4;stroke-linecap:round;stroke-linejoin:round;stroke-miterlimit:10;stroke-dasharray:none;stroke-opacity:1"
       transform="translate(137.80001,71.266603)"
       clip-path="url(#clipPath6)" />
    <path
       id="path7"
       d="m 0,0 4.96,3.52 5.12,3.04 5.44,2.88 5.439999,2.4 5.76,2.24 5.760001,1.6 5.920002,1.440001 L 44.48,18.08 l 6.080001,0.639999 6.079998,0.16 6.080002,-0.16 L 68.639999,18.08 74.720001,17.120001 80.639999,15.68 86.400002,14.08 92.160004,11.84 97.599998,9.44 103.04,6.56 108.16,3.52 113.28,0"
       style="fill:none;stroke:#000000;stroke-width:26.4;stroke-linecap:round;stroke-linejoin:round;stroke-miterlimit:10;stroke-dasharray:none;stroke-opacity:1"
       transform="translate(137.80001,71.266603)"
       clip-path="url(#clipPath8)" />
    <path
       id="path9"
       d="m 0,0 -4.96,-3.52 -5.12,-3.04 -5.44,-2.88 -5.600001,-2.4 -5.599998,-2.08 -5.92,-1.76 -5.920002,-1.440001 L -44.48,-18.08 l -6.080001,-0.639999 -6.079998,-0.16 -6.080002,0.16 -6.080002,0.639999 -5.919998,0.959999 -5.919998,1.440001 -5.760003,1.76 -5.760002,2.08 -5.599998,2.4 -5.279998,2.88 -5.28,3.04 -4.96,3.52"
       style="fill:none;stroke:#000000;stroke-width:26.4;stroke-linecap:round;stroke-linejoin:round;stroke-miterlimit:10;stroke-dasharray:none;stroke-opacity:1"
       transform="translate(143.23999,160.06659)"
       clip-path="url(#clipPath10)" />
    <path
       id="path11"
       d="m 0,0 4.96,3.52 5.28,3.2 5.28,2.72 5.600001,2.56 5.759998,2.08 5.76,1.76 5.920002,1.280001 L 44.48,18.08 l 6.080001,0.639999 6.079998,0.16 6.080002,-0.16 L 68.800003,18.08 74.720001,17.120001 80.639999,15.84 86.559998,14.08 92.160004,12 97.760002,9.44 103.2,6.72 108.32,3.52 113.28,0"
       style="fill:none;stroke:#000000;stroke-width:26.4;stroke-linecap:round;stroke-linejoin:round;stroke-miterlimit:10;stroke-dasharray:none;stroke-opacity:1"
       transform="translate(143.23999,160.06659)"
       clip-path="url(#clipPath12)" />
  </g>
</svg>
