<?xml version="1.0" encoding="UTF-8" standalone="no"?>
<!-- Created with Inkscape (http://www.inkscape.org/) -->

<svg
   version="1.1"
   id="svg1"
   width="361.53333"
   height="320.35999"
   viewBox="0 0 361.53333 320.35999"
   sodipodi:docname="Cancer12.pdf"
   xmlns:inkscape="http://www.inkscape.org/namespaces/inkscape"
   xmlns:sodipodi="http://sodipodi.sourceforge.net/DTD/sodipodi-0.dtd"
   xmlns="http://www.w3.org/2000/svg"
   xmlns:svg="http://www.w3.org/2000/svg">
  <defs
     id="defs1">
    <clipPath
       clipPathUnits="userSpaceOnUse"
       id="clipPath2">
      <path
         d="M 0,0.16 V 1122.5601 H 793.59998 V 0.16 Z"
         clip-rule="evenodd"
         id="path2" />
    </clipPath>
  </defs>
  <sodipodi:namedview
     id="namedview1"
     pagecolor="#505050"
     bordercolor="#eeeeee"
     borderopacity="1"
     inkscape:showpageshadow="0"
     inkscape:pageopacity="0"
     inkscape:pagecheckerboard="0"
     inkscape:deskcolor="#505050">
    <inkscape:page
       x="0"
       y="0"
       inkscape:label="1"
       id="page1"
       width="361.53333"
       height="320.35999"
       margin="0"
       bleed="0" />
  </sodipodi:namedview>
  <g
     id="g1"
     inkscape:groupmode="layer"
     inkscape:label="1">
    <path
       id="path1"
       d="m 238.08,570.40002 0.64,-3.36004 1.60001,-5.91998 1.91999,-5.76002 2.4,-5.76 2.56,-5.75995 3.04,-5.60004 3.36001,-5.44 3.51999,-5.27997 3.67999,-5.12 3.04001,-3.84002 1.44,-1.76001 3.36001,-4.15998 3.35999,-4 3.67999,-3.84002 3.68,-4 4.32,-4.31998 5.28,-5.12002 0.16001,-0.15998 1.27999,-1.12002 3.52002,-3.35999 5.43998,-5.11999 5.28002,-4.64002 4.31998,-3.67999 5.12,-4 1.28,-0.95999 4,-2.88001 7.04,-4.64001 7.04001,-4.15998 7.04001,-3.68002 0.95999,-0.47998 1.44,-0.64001 4.16001,-1.76001 6.72,-2.72 7.51999,-2.4 8.32001,-2.23999 0.16,-0.16 1.59998,-0.32001 4.48001,-1.11999 9.11999,-1.91999 8.64002,-1.12002 7.35998,-0.63999 h 1.60001 4.79999 l 6.88,0.32001 7.04001,0.79999 7.20001,1.11999 5.59998,1.12 1.76001,0.48001 5.44,1.44 7.04001,2.23999 6.88,2.56 6.72,2.88 6.56,3.20002 3.35999,1.91998 1.92001,1.12002 5.91998,3.68 6.4,4.47998 6.88,5.44 6.24002,5.28 L 504.16,480 l 2.72,2.72 1.28,1.44 2.88001,3.19999 2.72,3.36001 2.56,3.84 2.71997,4.48001 2.72003,5.28 2.56,5.44 0.79999,1.75998 2.23998,5.12002 2.40003,5.76001 2.56,6.88001 2.71997,8 2.40002,8.47998 0.64002,2.71997 0.32,2.08002 1.27997,6.40002 0.79999,7.19995 0.48004,7.20001 v 7.04004 l -0.64001,6.88001 -0.79999,6.07995 -0.32001,2.24 -1.44,6.72003 -2.08002,7.20001 -2.39996,7.51996 -3.04004,7.67999 -3.20001,7.36005 -2.23999,4.47998 -0.95996,1.76001 -3.04004,5.59997 -3.67999,5.76001 -3.83997,5.44001 -4.32004,5.44 -4.63998,5.28003 -2.4,2.55999 -1.28,1.27997 -4.16,3.84003 -5.60001,4.79999 -5.92001,4.32 -5.91998,3.83997 -6.24002,3.36005 -2.23999,1.27997 -1.91999,0.79998 -5.92001,2.72003 -7.04001,2.88001 -7.83999,2.56 -8.16001,2.39996 -8,1.76001 -3.19998,0.64001 -2.24002,0.32001 L 420,704 l -6.88,0.47998 -6.88001,0.16003 -7.03998,-0.48004 -7.20001,-0.79999 -5.28,-0.95996 -2.23999,-0.32 -6.56,-1.44001 -7.68002,-2.08001 -8.16,-2.71997 -8.31998,-3.20002 L 345.44,689.12 343.04001,688 l -2.08002,-1.12 -5.91998,-3.03997 -6.08002,-3.84003 -5.28,-3.84003 -4.63998,-4 -3.84,-4 -3.52002,-4.31994 -2.72,-4 -1.28,-2.08002 -2.55999,-4.79999 -2.56,-5.28003 -2.23999,-6.08001 -2.24002,-6.71998 -1.91999,-7.20001 -1.6,-7.35998 -1.12,-6.88001 v -1.11999 l -0.32,-2.23999 -0.47999,-5.60004 -0.16,-5.27997 0.16,-5.44 0.47999,-5.44 0.80001,-5.76001 1.12,-5.91999 0.63998,-2.72003 0.48001,-1.59997 1.28,-4.96003 2.4,-7.51995 2.72,-7.20002 3.04001,-6.72003 1.27999,-2.88 0.63999,-1.27997 2.24002,-4 3.67999,-6.23999 4.32001,-6.40002 4.63998,-6.08002 1.76001,-2.23999 0.96,-1.27997 3.52001,-4.16003 4.96,-5.59998 5.75998,-5.92001 5.92001,-5.12 5.11999,-3.84 1.44001,-0.95999 4.64001,-2.88 4.95999,-2.56 5.28,-2.24002 5.76001,-2.07999 6.23999,-1.76001 4,-0.95999 1.60001,-0.32 5.28,-0.96 7.35998,-0.80001 7.36002,-0.47999 h 7.19998 l 5.92001,0.32001 1.76001,0.31998 5.28,0.64001 6.23999,1.44001 6.07999,1.6 5.92001,2.23999 5.60001,2.56 2.55999,1.44 1.60001,0.95999 4.63999,2.88001 5.11999,3.67999 5.12,4.16001 5.12002,4.64001 5.12,5.28 1.91998,2.39999 1.28,1.44 3.52002,4.32001 4.32,5.91999 3.51999,5.91998 3.04001,5.92004 2.4,5.75995 0.95999,3.04004 0.64001,1.76001 1.44,5.44 1.12,5.91998 0.63998,5.76001 0.16001,5.91999 -0.32001,5.91998 -0.63998,6.08002 -0.48001,3.84002 -0.47999,2.39997 -1.28002,6.23999 -1.91999,6.72003 -2.39999,7.20001 -2.88001,7.35999 -3.20001,7.03997 -3.35998,6.24 -2.24002,3.68005 -1.28,1.91998 -3.35999,4.47998 -3.67999,4.16004 -3.84,3.83996 -4.16,3.52002 -4.48001,3.20001 -4.95999,2.88001 -5.12,2.56 -4.32001,1.75995 -2.23999,0.96002 -5.92001,2.08001 -6.56,1.76001 -6.88,1.59998 -7.35999,1.12 -7.52002,0.79998 -7.35998,0.32001 -7.04001,-0.32001 -2.72,-0.15997 -2.72,-0.32001 -6.07999,-0.96002 -5.92001,-1.27997 -5.91999,-1.76001 -5.76001,-2.08002 -5.44,-2.55999 -5.28,-2.71997 -4.79999,-2.88001 -3.20001,-2.08001 -1.6,-1.27997 -3.84,-3.04004 -3.51999,-3.20001 -3.04001,-3.51996 -2.72,-3.52002 -2.39999,-3.68 -2.08002,-4 -1.59998,-4.16003 -0.16,-0.63995 -0.48001,-1.44001 -1.12,-4.48004 -0.64001,-4.63995 -0.47998,-5.12 v -5.60003 l 0.31998,-5.91999 0.16,-2.55999 0.16,-1.44001 0.48001,-4 0.79999,-5.28002 0.96002,-4.79999 1.28,-4.47998 0.95999,-3.20001 0.32001,-0.96003 1.12,-2.55999 1.91998,-3.68 2.24002,-3.67999 2.87998,-4.15997 0.48001,-0.64002 0.64001,-0.79999 1.59998,-2.23999 4.16,-4.64001 4.16,-4.32001 3.04001,-3.03998 0.79999,-0.80004 2.72,-2.39997 4.48001,-3.67999 4.63999,-3.36005 4.80001,-2.87994 4,-1.92005 1.44001,-0.64001 4.32,-1.75995 5.28,-1.60004 5.91999,-1.44 6.08001,-1.11999 5.91999,-0.47998 h 1.44 l 1.6,-0.16004 4.16001,0.16004 4.31998,0.47998 4.32,0.96002 4.16001,1.27997 4,1.76001 2.88,1.44 1.12,0.64001 3.20001,2.24 4,3.03997 3.83999,3.36005 3.51999,4 3.36002,4 v 0.15997 l 0.79999,1.12 1.92001,3.04004 2.39999,4.31994 2.07999,4.64002 1.92001,5.11999 1.12,3.52002 0.32001,1.12 0.95999,3.52002 1.11999,6.23999 0.64002,5.59997 -0.16001,4.96002 -0.32,2.56 -0.16001,1.27997 -0.79998,3.68005 -1.28,4 -1.76001,4 -2.23999,3.83997 -2.56,3.67999 L 452.16,608 l -0.80001,0.79999 -2.71998,2.72003 -3.52001,2.88 -3.68,2.56 -4.16,2.23999 -4.16,1.76001 -3.51999,1.12 -1.44001,0.47998 -4.64001,1.11999 -5.12,0.79999 -5.44,0.48004 h -5.6 l -5.59998,-0.48004 -5.28,-0.95996 h -0.16 l -1.76001,-0.48004 -4.95999,-1.44 -4.80002,-1.91999 -4.47998,-2.23999 -4.16001,-2.56 -3.83999,-2.88 -3.04001,-3.03998 -1.92001,-1.92004 -0.96,-1.27997 -2.07998,-3.04004 -1.76001,-3.35999 -1.28,-3.51995 -1.12,-3.68006 -0.48001,-3.83996 -0.32,-3.68 0.16,-3.04003 0.16,-1.27997 0.64002,-3.03998 0.95999,-3.04004 1.44,-2.88001 1.92001,-2.71997 2.23999,-2.55999 2.88001,-2.56 0.95999,-0.80005 0.95999,-0.79999 3.36002,-2.23999 4.16,-2.55999 5.12,-2.71998 5.44,-2.40002 2.23999,-0.96002 2.88,-0.79999 1.12,-0.32001 2.88,-0.63995 2.72001,-0.32001 H 404.16 l 2.56,0.15998 2.56,0.64001 2.39999,0.95996 0.64002,0.32001 1.91998,0.96002 2.88001,2.08002 2.55999,2.23999 2.24002,2.71997 1.12,1.44 0.47998,0.80005 1.28,2.23999 1.44,3.35998 0.96002,3.52002 0.47998,3.35999 v 2.88 l -0.16,0.79999 -0.47998,2.40003 -0.80002,2.55999 -1.44,2.56 -1.75998,2.23999 -2.08002,2.08002 -0.95999,0.79999 -0.64001,0.32 -1.91999,1.27997 -2.72,1.12 -2.88,0.64001 -3.04001,0.47998 h -2.56 l -0.63998,-0.15997 -1.92002,-0.16003 -2.39999,-0.79999 -2.23999,-1.27997 L 397.28,589.91998 395.51999,588 395.04001,587.35998 394.56,586.56 l -1.28,-2.40003 -1.76001,-3.19995 -1.44,-2.88 -1.43998,-2.40003 -0.96002,-1.27997 -1.44,-1.76001 -0.31998,-0.16003 L 385.28,572 384,571.35998 l -1.44,-0.15997 -1.60001,0.15997 -1.6,0.48005 -1.75998,0.95996 -1.60001,1.44 -0.64001,0.96002 -0.47999,0.47998 -0.95999,1.60004 -1.12002,2.39996 -0.47998,2.40003 -0.16001,2.71997 0.32001,2.55999 v 0.16004 l 0.16,0.63995 0.63999,1.92005 1.28,2.39996 1.76001,2.23999 2.23999,2.24005 2.56,2.07996 0.16,0.16003 0.79999,0.47998 2.24002,1.44001 3.51999,1.76 3.83999,1.59998 4.32001,1.28003 3.20001,0.64001 1.12,0.15998 3.35998,0.47998 4.80002,0.32 4.95999,-0.32 4.48001,-0.63996 4.15998,-1.11999 0.16,-0.16003 1.12,-0.32001 3.04,-1.44001 3.20002,-1.91998 3.04,-2.23999 2.71998,-2.72003 2.40002,-2.88 1.44,-2.24 0.63999,-0.79998 1.44,-2.88001 1.28,-3.52002 0.95999,-3.83996 0.48001,-3.84003 0.16,-4.15997 -0.16,-1.91999 v -1.11999 l -0.48001,-3.52002 -0.95999,-4.47998 -1.44,-4.32001 -1.76001,-4 -2.07999,-3.52002 -0.79999,-1.11999 -0.64001,-0.79999 -2.4,-2.56 -2.72,-2.24005 -3.04001,-2.07996 -3.51999,-1.92004 -4,-1.59997 -2.72,-0.96003 -1.11999,-0.31994 -3.52002,-0.96003 -5.28,-0.96002 -5.28,-0.47998 -4.95999,-0.15997 -3.51999,0.31995 -1.12,0.16003 -3.20001,0.64001 -3.83999,1.12 -3.84,1.44 -4.16,2.07996 -3.20002,1.76001 -0.95999,0.64001 -2.56,1.59998 -4.80001,3.52002 -4.15998,3.67999 -3.68002,3.84003 -0.16,0.15997 -0.79999,0.96002 -2.07999,2.88001 -2.88,4.15997 -2.72,4.64001 -2.24002,4.96003 -1.43998,4.31994 -0.48001,1.28003 -0.95999,3.84003 -0.96002,5.11999 -0.47998,5.27997 -0.16001,5.12 0.47999,4.79999 v 0.16003 l 0.16,1.27997 0.64001,3.36004 1.28,3.83997 1.44,3.67999 2.07999,3.68 2.4,3.36004 0.96002,1.44 0.79999,0.79999 2.55999,2.71997 3.52002,3.20002 3.84,2.88 4.16,2.71997 4.31998,2.24005 2.88,1.27997 1.44001,0.64001 4.64001,1.59998 5.28,1.44 5.75998,1.12 5.92001,0.80005 6.4,0.31994 h 4.64001 1.91998 L 416,643.67999 l 6.56,-0.79999 6.23999,-1.28002 6.08001,-1.75995 5.44001,-2.08002 3.51999,-1.44 1.6,-0.79999 4.16001,-2.40002 4,-2.71998 3.67999,-3.04004 3.51999,-3.35998 3.36001,-3.84003 3.19999,-4.31994 0.16,-0.32001 0.96002,-1.44 2.56,-4.48004 2.72,-5.27997 L 476,598.88 l 1.92001,-5.59997 1.28,-5.44 0.79999,-5.60004 0.16,-0.32001 0.16001,-1.91998 0.16,-5.44 -0.32001,-5.59998 -0.64001,-5.76001 -1.12,-5.91998 -1.44,-5.76001 -1.75998,-5.28003 -0.48001,-1.27997 -0.64001,-1.60004 -2.07999,-4.32 -2.39999,-4.32001 -2.72001,-4.15997 -3.20001,-4.32001 -4,-4.64001 -2.07998,-2.24 -1.12,-1.11999 -3.20001,-3.20001 -5.28,-4.63999 -4.95999,-3.51999 -4.64002,-2.72 -4.47998,-2.23999 -3.04001,-1.12002 -1.76,-0.47998 -4.63999,-1.28 -5.12002,-0.80002 -5.43998,-0.63998 -5.76001,-0.16001 -6.08001,0.32001 -6.07999,0.63998 -5.60001,0.96 -2.07998,0.48001 -5.92002,1.6 -5.91998,2.23999 -5.92001,2.4 -5.76001,3.04001 -5.59998,3.20001 -5.12002,3.52002 -1.12,0.79998 -1.44,1.12 -4.31998,3.52002 -4.16,4 -4.16001,4.47998 -4,4.95996 -4,5.60004 -1.92001,2.71997 -0.95999,1.60003 -3.04001,4.79999 -4,7.20001 -3.67999,7.51996 -2.88001,7.04004 -1.91998,5.44 -0.48001,1.76001 -1.28,5.27997 -0.95999,5.91999 -0.64001,6.24005 -0.32001,6.39996 v 6.72003 l 0.16,2.23999 0.16001,1.76001 0.48001,4.95996 0.95999,6.72003 1.44,5.91999 1.92001,5.11999 2.07999,4.79999 1.28,2.40002 0.95999,1.44001 2.72,4 3.20001,3.83996 3.68,3.84003 4,3.52002 4.48001,3.51996 4.79999,3.20001 4,2.40002 1.92001,1.12 5.75998,2.88 6.08001,2.71997 6.56,2.56 6.88001,2.08002 7.03998,1.76001 7.20001,1.27997 5.76001,0.80005 2.72,0.31994 7.19998,0.32001 h 7.52002 L 417.44,684 l 7.68,-0.96002 7.52001,-1.27997 7.03998,-1.76001 6.56,-2.08002 h 0.16 l 2.4,-0.79998 5.6,-2.40003 L 459.84,672 l 5.44,-3.03998 5.28,-3.52002 5.28,-3.84002 5.11999,-4.47998 5.12,-4.79999 1.6,-1.76001 4.80002,-5.27997 5.28,-6.24005 4.95999,-6.71997 4.48001,-6.88001 3.84,-6.40002 2.24002,-4.47998 0.95996,-1.91999 2.56,-5.60003 2.08001,-5.75995 1.59998,-5.92005 1.28003,-6.07995 0.95996,-6.24005 0.48004,-6.39997 V 575.67999 573.44 567.20001 L 522.71997,560 l -0.95996,-7.35999 -1.28003,-7.52001 -1.76001,-7.35999 -1.75995,-5.28003 -0.64001,-2.07996 -2.40003,-6.08001 -2.87997,-6.08002 -3.20001,-5.76001 -3.51999,-5.59998 -3.84,-5.27999 -4.32001,-4.80002 -0.48001,-0.63999 -1.44,-1.44 -4.47998,-4.48001 -5.12,-4.16 -5.28002,-3.84 -5.59998,-3.51999 -6.08002,-3.36001 -6.39999,-3.03998 -1.60001,-0.80002 L 457.44,470.72 450.56,468 l -7.35999,-2.39999 -7.68002,-2.08002 -8,-1.59998 -8.16,-1.28 -8.31998,-0.96002 H 409.12 l -2.72001,-0.16 -8.16,-0.16 -8.16,0.32 -7.68,0.64002 -7.19998,1.11999 -6.24002,1.44 -5.6,1.60001 -4.79999,1.75998 -1.91999,0.80002 -4,1.91998 -3.84002,2.4 -3.67999,2.56002 -4,3.19999 -4,3.83999 -5.12,4.96002 -3.04001,3.03998 -1.28,1.28 -4,3.84 -8.16,8 -3.67999,3.84002 -5.28,6.23996 -4.16001,5.60004 -1.11999,1.76001 -3.35999,5.44 -3.20001,5.91998 -3.20001,6.88001 -3.19998,7.67999 -3.20001,8.79999 -1.28,3.52002 -0.63999,2.08002 -1.92001,6.07995 -2.4,8.16004 -1.92001,8.32 -1.44,8.15998 -0.79999,6.56 -0.16,1.91998 -0.48001,5.92004 -0.15998,7.83997 0.31998,8 0.80002,8.16003 1.11999,7.67999 0.32001,1.91999 1.12,5.91998 2.07998,8 2.4,7.52002 2.72,7.03998 3.04001,6.40002 0.32,0.79999 0.96,1.76001 2.88,4.96002 3.67999,5.27997 3.84,4.96002 4.16,4.47998 4.48001,4 4.63999,3.84003 1.28,0.79999 1.76001,1.27997 5.11999,3.20001 L 326.72,712 l 6.23999,2.88 6.72,2.71998 L 346.72,720 l 7.20001,2.08002 2.4,0.47998 2.23999,0.47998 6.72,1.11999 7.04001,0.80005 L 380,725.44 h 8.16 l 8.79999,-0.15997 5.92001,-0.16003 2.56,-0.15998 8,-0.48004 9.44,-0.95996 9.76001,-1.12 9.75998,-1.60003 9.28,-2.08002 7.52002,-1.91998 2.87998,-0.95996 7.68002,-2.72003 7.35999,-3.03998 7.04,-3.52002 6.72,-3.68 6.56,-4.16003 6.23999,-4.47998 6.08002,-4.64001 5.91998,-5.12 L 516,684 l 2.88,-2.56 5.44001,-5.59997 5.27997,-5.76001 4.64001,-5.92005 4.47998,-6.07995 4,-6.23999 3.68005,-6.40003 3.35999,-6.56 3.03998,-6.88 2.88,-7.03998 2.56,-7.36004 2.23999,-7.35999 1.92004,-7.83997 0.63996,-2.55999"
       style="fill:none;stroke:#000000;stroke-width:11.2;stroke-linecap:round;stroke-linejoin:round;stroke-miterlimit:10;stroke-dasharray:none;stroke-opacity:1"
       transform="translate(0,-38.706725)"
       clip-path="url(#clipPath2)" />
  </g>
</svg>
