<?xml version="1.0" encoding="UTF-8" standalone="no"?>
<!-- Created with Inkscape (http://www.inkscape.org/) -->

<svg
   version="1.1"
   id="svg1"
   width="430.89334"
   height="173.52"
   viewBox="0 0 430.89334 173.52"
   sodipodi:docname="Cancer10.pdf"
   xmlns:inkscape="http://www.inkscape.org/namespaces/inkscape"
   xmlns:sodipodi="http://sodipodi.sourceforge.net/DTD/sodipodi-0.dtd"
   xmlns="http://www.w3.org/2000/svg"
   xmlns:svg="http://www.w3.org/2000/svg">
  <defs
     id="defs1">
    <clipPath
       clipPathUnits="userSpaceOnUse"
       id="clipPath2">
      <path
         d="M 0,0.16 V 1122.5601 H 793.59998 V 0.16 Z"
         transform="translate(-472.32001,-542.40002)"
         clip-rule="evenodd"
         id="path2" />
    </clipPath>
    <clipPath
       clipPathUnits="userSpaceOnUse"
       id="clipPath4">
      <path
         d="M 0,0.16 V 1122.5601 H 793.59998 V 0.16 Z"
         transform="translate(-502.23999,-496.79999)"
         clip-rule="evenodd"
         id="path4" />
    </clipPath>
    <clipPath
       clipPathUnits="userSpaceOnUse"
       id="clipPath6">
      <path
         d="M 0,0.16 V 1122.5601 H 793.59998 V 0.16 Z"
         clip-rule="evenodd"
         id="path6" />
    </clipPath>
    <clipPath
       clipPathUnits="userSpaceOnUse"
       id="clipPath8">
      <path
         d="M 0,0.16 V 1122.5601 H 793.59998 V 0.16 Z"
         transform="translate(-151.36,-555.35999)"
         clip-rule="evenodd"
         id="path8" />
    </clipPath>
    <clipPath
       clipPathUnits="userSpaceOnUse"
       id="clipPath10">
      <path
         d="M 0,0.16 V 1122.5601 H 793.59998 V 0.16 Z"
         transform="translate(-126.08,-604.15998)"
         clip-rule="evenodd"
         id="path10" />
    </clipPath>
    <clipPath
       clipPathUnits="userSpaceOnUse"
       id="clipPath12">
      <path
         d="M 0,0.16 V 1122.5601 H 793.59998 V 0.16 Z"
         clip-rule="evenodd"
         id="path12" />
    </clipPath>
  </defs>
  <sodipodi:namedview
     id="namedview1"
     pagecolor="#505050"
     bordercolor="#eeeeee"
     borderopacity="1"
     inkscape:showpageshadow="0"
     inkscape:pageopacity="0"
     inkscape:pagecheckerboard="0"
     inkscape:deskcolor="#505050">
    <inkscape:page
       x="0"
       y="0"
       inkscape:label="1"
       id="page1"
       width="430.89334"
       height="173.52"
       margin="0"
       bleed="0" />
  </sodipodi:namedview>
  <g
     id="g1"
     inkscape:groupmode="layer"
     inkscape:label="1">
    <path
       id="path1"
       d="M 0,0 -10.72,-6.24 -21.6,-12 -32.799999,-17.280001 -44.16,-22.24 l -11.52,-4.319999 -11.839997,-4 -11.840004,-3.520003 -12,-3.039997 L -103.52,-39.52 -115.68,-41.599998 -128,-43.200001 -140.32001,-44.16 -152.64,-44.799999 h -12.47999 L -177.44,-44.48 l -12.31999,0.96 -12.32001,1.439998 -12.31999,1.920002 -12.16001,2.400002"
       style="fill:none;stroke:#000000;stroke-width:26.4;stroke-linecap:round;stroke-linejoin:round;stroke-miterlimit:10;stroke-dasharray:none;stroke-opacity:1"
       transform="translate(377.60001,77.893299)"
       clip-path="url(#clipPath2)" />
    <path
       id="path3"
       d="m 0,0 -3.68,-1.76 -3.84,-1.44 -4,-1.12 -4,-0.8 -4,-0.48 -4.16,-0.16 -4.16,0.32 -4,0.64 -4,0.96 -3.84,1.28 -3.84,1.6 -3.520001,1.92 -3.52,2.24 -3.199997,2.56 -2.880001,2.88 -2.720002,3.04 -2.559997,3.36 L -64,18.4 l -1.919998,3.68 -1.440003,3.84 -1.279998,4 -0.800003,3.999998 -0.479996,4 -0.160004,4.160004 0.160004,4.16 0.639999,4 0.959999,4 1.279999,3.84 1.599999,3.839996 1.920002,3.68 2.240001,3.360001 2.399998,3.200005 2.880001,3.039993 3.040001,2.720001 3.200001,2.560005 3.519996,2.239998 3.680001,1.760002 3.68,1.599999"
       style="fill:none;stroke:#000000;stroke-width:26.4;stroke-linecap:round;stroke-linejoin:round;stroke-miterlimit:10;stroke-dasharray:none;stroke-opacity:1"
       transform="translate(407.51999,32.293263)"
       clip-path="url(#clipPath4)" />
    <path
       id="path5"
       d="m 245.75999,504.64001 37.76,56.64002 18.88,-56.64002"
       style="fill:none;stroke:#000000;stroke-width:26.4;stroke-linecap:round;stroke-linejoin:round;stroke-miterlimit:10;stroke-dasharray:none;stroke-opacity:1"
       transform="translate(-94.72,-464.50673)"
       clip-path="url(#clipPath6)" />
    <path
       id="path7"
       d="M 0,0 10.72,6.24 21.76,12 32.959999,17.440001 44.32,22.24 l 11.52,4.479999 11.679997,4 12,3.360003 12,3.039997 L 103.68,39.68 l 12.16,2.079998 12.32,1.440003 12.32,1.119999 12.32,0.479999 12.48,0.16 L 177.60001,44.48 189.92,43.52 202.24,42.080002 214.39999,40.16 226.56,37.759998"
       style="fill:none;stroke:#000000;stroke-width:26.4;stroke-linecap:round;stroke-linejoin:round;stroke-miterlimit:10;stroke-dasharray:none;stroke-opacity:1"
       transform="translate(56.640001,90.85326)"
       clip-path="url(#clipPath8)" />
    <path
       id="path9"
       d="m 0,0 3.84,1.44 4,0.96 4,0.8 4.16,0.32 h 4.16 l 4,-0.32 4,-0.8 4,-0.96 L 36,0 l 3.84,-1.76 3.520001,-1.92 3.36,-2.4 3.199997,-2.56 2.880001,-2.88 2.560002,-3.2 2.399997,-3.36 2.080002,-3.52 1.759998,-3.680001 1.440003,-3.84 1.120003,-3.999998 0.799995,-4 0.32,-4.16 v -4 l -0.159996,-4.16 -0.800003,-4 -0.959999,-4 -1.279999,-3.84 L 60.32,-65.120003 58.240002,-68.639999 56,-72 53.439999,-75.199997 50.560001,-78.080002 47.52,-80.800003 l -3.36,-2.399994 -3.520001,-2.240005 -3.68,-1.759995 -3.84,-1.440002 -3.999998,-1.120003"
       style="fill:none;stroke:#000000;stroke-width:26.4;stroke-linecap:round;stroke-linejoin:round;stroke-miterlimit:10;stroke-dasharray:none;stroke-opacity:1"
       transform="translate(31.360002,139.65325)"
       clip-path="url(#clipPath10)" />
    <path
       id="path11"
       d="M 377.92001,593.12 340.16,536.47998 321.28,593.12"
       style="fill:none;stroke:#000000;stroke-width:26.4;stroke-linecap:round;stroke-linejoin:round;stroke-miterlimit:10;stroke-dasharray:none;stroke-opacity:1"
       transform="translate(-94.72,-464.50673)"
       clip-path="url(#clipPath12)" />
  </g>
</svg>
