<?xml version="1.0" encoding="UTF-8" standalone="no"?>
<!-- Created with Inkscape (http://www.inkscape.org/) -->

<svg
   version="1.1"
   id="svg1"
   width="360.20001"
   height="297.65332"
   viewBox="0 0 360.20001 297.65332"
   sodipodi:docname="Capricorn23.pdf"
   xmlns:inkscape="http://www.inkscape.org/namespaces/inkscape"
   xmlns:sodipodi="http://sodipodi.sourceforge.net/DTD/sodipodi-0.dtd"
   xmlns="http://www.w3.org/2000/svg"
   xmlns:svg="http://www.w3.org/2000/svg">
  <defs
     id="defs1">
    <clipPath
       clipPathUnits="userSpaceOnUse"
       id="clipPath2">
      <path
         d="M 0,0.16 V 1122.5601 H 793.59998 V 0.16 Z"
         transform="translate(-353.28,-633.59998)"
         clip-rule="evenodd"
         id="path2" />
    </clipPath>
    <clipPath
       clipPathUnits="userSpaceOnUse"
       id="clipPath4">
      <path
         d="M 0,0.16 V 1122.5601 H 793.59998 V 0.16 Z"
         transform="translate(-554.56,-491.35999)"
         clip-rule="evenodd"
         id="path4" />
    </clipPath>
    <clipPath
       clipPathUnits="userSpaceOnUse"
       id="clipPath6">
      <path
         d="M 0,0.16 V 1122.5601 H 793.59998 V 0.16 Z"
         clip-rule="evenodd"
         id="path6" />
    </clipPath>
    <clipPath
       clipPathUnits="userSpaceOnUse"
       id="clipPath8">
      <path
         d="M 0,0.16 V 1122.5601 H 793.59998 V 0.16 Z"
         transform="translate(-617.44,-674.71998)"
         clip-rule="evenodd"
         id="path8" />
    </clipPath>
    <clipPath
       clipPathUnits="userSpaceOnUse"
       id="clipPath10">
      <path
         d="M 0,0.16 V 1122.5601 H 793.59998 V 0.16 Z"
         transform="translate(-624.15997,-600.15998)"
         clip-rule="evenodd"
         id="path10" />
    </clipPath>
  </defs>
  <sodipodi:namedview
     id="namedview1"
     pagecolor="#505050"
     bordercolor="#eeeeee"
     borderopacity="1"
     inkscape:showpageshadow="0"
     inkscape:pageopacity="0"
     inkscape:pagecheckerboard="0"
     inkscape:deskcolor="#505050">
    <inkscape:page
       x="0"
       y="0"
       inkscape:label="1"
       id="page1"
       width="360.20001"
       height="297.65332"
       margin="0"
       bleed="0" />
  </sodipodi:namedview>
  <g
     id="g1"
     inkscape:groupmode="layer"
     inkscape:label="1">
    <path
       id="path1"
       d="m 0,0 2.24,5.12 2.4,4.96 2.56,4.48 2.72,4.319999 2.88,3.84 L 15.68,26.24 18.719999,29.440001 21.92,32.32 l 3.200001,2.400001 3.199999,2.079998 3.36,1.600003 3.360001,1.279998 3.360001,0.8 3.519996,0.479999 h 3.360001 L 48.799999,40.48 52.16,39.68 55.52,38.400002 58.880001,36.799999 62.080002,34.720001 65.279999,32.32 68.480003,29.440001 71.519997,26.24 l 2.880005,-3.520001 2.879997,-4 L 80,14.56 l 2.559998,-4.64 2.400001,-4.8 2.239998,-5.28 2.080002,-5.44 1.919998,-5.6 1.760002,-5.920001 1.599999,-6.08 1.440002,-6.24 1.279999,-6.399999 0.959999,-6.560002 0.800003,-6.719997 L 99.68,-55.84 l 0.32,-6.880001 0.16,-6.879997 v -6.880005 l -0.16,-6.879998 -0.480003,-6.720001 -0.64,-6.720001 -0.799995,-6.719997 -1.120003,-6.56 -1.279999,-6.4 -1.440002,-6.24 -1.599999,-6.08 -1.760002,-5.76 -1.919998,-5.6 -2.239998,-5.44001 -2.239998,-5.11999 -2.400001,-4.8 -2.720001,-4.48 -2.720002,-4.16 -2.720001,-3.84 -3.040001,-3.52 -3.040001,-3.2 -3.199997,-2.72 -3.2,-2.4 -3.199997,-1.91999 -3.360001,-1.60001 -3.360001,-1.12 -3.52,-0.8 -3.360001,-0.32001 -3.52,0.16001 -3.360001,0.47999 -3.359996,0.96001 -3.360001,1.28 -3.360001,1.75999 -3.36,2.08001 -3.199999,2.55999 -3.040001,2.88001 -3.04,3.2 -2.88,3.68 -2.88,4 -2.56,4.32 -2.56,4.63999 -2.4,4.96001"
       style="fill:none;stroke:#000000;stroke-width:26.4;stroke-linecap:round;stroke-linejoin:round;stroke-miterlimit:10;stroke-dasharray:none;stroke-opacity:1"
       transform="translate(353.28,638.93325)"
       clip-path="url(#clipPath2)" />
    <path
       id="path3"
       d="m 0,0 -2.24,-5.12 -2.56,-4.8 -2.56,-4.64 -2.72,-4.159999 -2.72,-4 L -15.84,-26.24 -18.879999,-29.440001 -21.92,-32.32 l -3.200001,-2.400001 -3.359999,-2.079998 -3.36,-1.600003 -3.360001,-1.279998 -3.36,-0.8 -3.520001,-0.319999 h -3.359997 l -3.52,0.319999 -3.360001,0.96 -3.36,1.279998 -3.360001,1.600003 -3.200001,2.079998 -3.2,2.400001 -3.199997,2.879999 L -71.68,-26.08 l -2.879998,3.68 -2.880004,3.840001 -2.720002,4.319999 -2.559997,4.64 -2.400002,4.8 -2.239998,5.28 -2.080001,5.44 -1.919999,5.6 -1.760002,5.920001 -1.599998,6.079999 -1.440003,6.4 -1.119995,6.4 -0.959999,6.560001 -0.800003,6.719997 L -99.68,56.32 l -0.48,6.880001 -0.16,6.880001 0.16,6.879997 0.16,6.879997 0.480003,6.720002 0.64,6.720001 0.799995,6.720001 1.120003,6.56 1.279999,6.4 1.440002,6.24 1.599999,6.08 1.919998,5.75999 1.919998,5.60001 2.080002,5.44 2.400001,5.12 2.400002,4.8 2.720001,4.48 2.719994,4.16 2.880005,3.84 2.879997,3.36 3.040001,3.19999 3.199997,2.72 3.200004,2.24001 3.360001,1.92 3.359997,1.6 3.36,1.12 3.360001,0.64 3.52,0.32001"
       style="fill:none;stroke:#000000;stroke-width:26.4;stroke-linecap:round;stroke-linejoin:round;stroke-miterlimit:10;stroke-dasharray:none;stroke-opacity:1"
       transform="translate(554.56,496.69326)"
       clip-path="url(#clipPath4)" />
    <path
       id="path5"
       d="M 507.35999,676.64001 H 620.64001"
       style="fill:none;stroke:#000000;stroke-width:26.4;stroke-linecap:round;stroke-linejoin:round;stroke-miterlimit:10;stroke-dasharray:none;stroke-opacity:1"
       transform="translate(0,5.3332747)"
       clip-path="url(#clipPath6)" />
    <path
       id="path7"
       d="m 0,0 3.52,0.32 3.52,-0.16 3.36,-0.32 3.36,-0.8 3.360001,-0.96 3.199999,-1.44 3.040001,-1.6 2.879999,-1.92 2.719999,-2.08 2.400002,-2.4 2.399997,-2.56 L 35.68,-16.799999 37.439999,-19.84 38.880001,-22.879999 40,-26.24 l 0.959999,-3.36 0.48,-3.359999 0.319999,-3.360001 -0.16,-3.52 -0.479999,-3.360001 -0.639999,-3.52 -1.119999,-3.199997 -1.279999,-3.200001 L 36.48,-56.16 34.560001,-59.040001 32.48,-61.759998 30.08,-64.32 27.360001,-66.559998 24.639999,-68.480003 21.6,-70.239998 18.559999,-71.68 15.2,-72.959999 l -3.36,-0.800003 -3.36,-0.64 -3.52,-0.159996"
       style="fill:none;stroke:#000000;stroke-width:26.4;stroke-linecap:round;stroke-linejoin:round;stroke-miterlimit:10;stroke-dasharray:none;stroke-opacity:1"
       transform="translate(617.44,680.05325)"
       clip-path="url(#clipPath8)" />
    <path
       id="path9"
       d="m 0,0 h -2.24 l -2.4,0.32 -2.08,0.64 -2.24,0.96 -1.92,1.12 -1.92,1.44 -1.6,1.6 -1.6,1.76 -1.120001,1.92 -0.959999,2.08 -0.799999,2.24 -0.480002,2.24 -0.159999,2.399999 0.159999,2.24 0.480002,2.240002 0.639999,2.24 0.959999,2.079999 1.120001,2.08 1.44,1.760001 1.76,1.599998 1.76,1.440003 2.08,1.279998 2.08,0.8 2.24,0.639999 2.24,0.479999"
       style="fill:none;stroke:#000000;stroke-width:26.4;stroke-linecap:round;stroke-linejoin:round;stroke-miterlimit:10;stroke-dasharray:none;stroke-opacity:1"
       transform="translate(624.15997,605.49325)"
       clip-path="url(#clipPath10)" />
  </g>
</svg>
