<?xml version="1.0" encoding="UTF-8" standalone="no"?>
<!-- Created with Inkscape (http://www.inkscape.org/) -->

<svg
   version="1.1"
   id="svg1"
   width="265.46667"
   height="262.95999"
   viewBox="0 0 265.46667 262.95999"
   sodipodi:docname="Capricorn8.pdf"
   xmlns:inkscape="http://www.inkscape.org/namespaces/inkscape"
   xmlns:sodipodi="http://sodipodi.sourceforge.net/DTD/sodipodi-0.dtd"
   xmlns="http://www.w3.org/2000/svg"
   xmlns:svg="http://www.w3.org/2000/svg">
  <defs
     id="defs1">
    <clipPath
       clipPathUnits="userSpaceOnUse"
       id="clipPath2">
      <path
         d="M 0,0.16 V 1122.5601 H 793.59998 V 0.16 Z"
         transform="translate(-462.88,-466.88)"
         clip-rule="evenodd"
         id="path2" />
    </clipPath>
    <clipPath
       clipPathUnits="userSpaceOnUse"
       id="clipPath4">
      <path
         d="M 0,0.16 V 1122.5601 H 793.59998 V 0.16 Z"
         transform="translate(-462.88,-542.40002)"
         clip-rule="evenodd"
         id="path4" />
    </clipPath>
    <clipPath
       clipPathUnits="userSpaceOnUse"
       id="clipPath6">
      <path
         d="M 0,0.16 V 1122.5601 H 793.59998 V 0.16 Z"
         transform="translate(-462.88,-655.67999)"
         clip-rule="evenodd"
         id="path6" />
    </clipPath>
    <clipPath
       clipPathUnits="userSpaceOnUse"
       id="clipPath8">
      <path
         d="M 0,0.16 V 1122.5601 H 793.59998 V 0.16 Z"
         transform="translate(-292.95999,-466.88)"
         clip-rule="evenodd"
         id="path8" />
    </clipPath>
    <clipPath
       clipPathUnits="userSpaceOnUse"
       id="clipPath10">
      <path
         d="M 0,0.16 V 1122.5601 H 793.59998 V 0.16 Z"
         transform="translate(-462.88,-580.15997)"
         clip-rule="evenodd"
         id="path10" />
    </clipPath>
  </defs>
  <sodipodi:namedview
     id="namedview1"
     pagecolor="#505050"
     bordercolor="#eeeeee"
     borderopacity="1"
     inkscape:showpageshadow="0"
     inkscape:pageopacity="0"
     inkscape:pagecheckerboard="0"
     inkscape:deskcolor="#505050">
    <inkscape:page
       x="0"
       y="0"
       inkscape:label="1"
       id="page1"
       width="265.46667"
       height="262.95999"
       margin="0"
       bleed="0" />
  </sodipodi:namedview>
  <g
     id="g1"
     inkscape:groupmode="layer"
     inkscape:label="1">
    <path
       id="path1"
       d="M 0,0 -6.08,0.16 -12.32,0.8 -18.4,1.92 -24.32,3.2 -30.24,4.96 -36,7.2 -41.759998,9.76 -47.200001,12.64 -52.32,16 l -5.119999,3.52 -4.800003,4 -4.479999,4.16 -4.159996,4.48 -4,4.799999 -3.520005,4.959999 -3.36,5.280003 -2.879997,5.439998 -2.559998,5.600003 L -89.279999,64 -91.199997,69.919998 -92.480003,76 l -1.119995,6.080002 -0.480004,6.239998 -0.32,6.080002 0.32,6.239998 0.480004,6.08 1.119995,6.08 1.280006,6.08 1.919998,5.92 2.080002,5.76 2.559998,5.6 2.879997,5.44001 3.36,5.27999 3.520005,4.96 4,4.8 4.159996,4.47999 4.479999,4.32001 4.800003,3.84 5.119999,3.68001 5.119999,3.19999 5.440003,2.87999 5.759998,2.56002 5.76,2.23999 5.92,1.76001 5.92,1.43998 6.08,0.96001 6.24,0.64 6.08,0.16"
       style="fill:none;stroke:#000000;stroke-width:26.4;stroke-linecap:round;stroke-linejoin:round;stroke-miterlimit:10;stroke-dasharray:none;stroke-opacity:1"
       transform="translate(200.06667,39.746613)"
       clip-path="url(#clipPath2)" />
    <path
       id="path3"
       d="M 0,0 3.52,-0.16 7.04,-0.64 10.4,-1.44 13.76,-2.56 16.959999,-4 20,-5.76 22.879999,-7.68 25.6,-9.92 l 2.56,-2.56 2.24,-2.72 1.92,-2.88 1.599998,-3.040001 1.440003,-3.199999 1.119999,-3.36 0.799999,-3.520001 0.319999,-3.52 0.16,-3.360001 -0.16,-3.519996 -0.479999,-3.520001 L 36.16,-48.48 35.040001,-51.84 33.599998,-55.040001 31.84,-58.080002 29.76,-60.959999 27.52,-63.68 24.959999,-66.080002 22.24,-68.32 19.360001,-70.239998 16.16,-71.839996 l -3.2,-1.440003 -3.36,-0.959999 -3.36,-0.800003 -3.52,-0.32 -3.52,-0.159996"
       style="fill:none;stroke:#000000;stroke-width:26.4;stroke-linecap:round;stroke-linejoin:round;stroke-miterlimit:10;stroke-dasharray:none;stroke-opacity:1"
       transform="translate(200.06667,115.26663)"
       clip-path="url(#clipPath4)" />
    <path
       id="path5"
       d="M 0,0 3.52,-0.16 7.04,-0.64 10.4,-1.44 13.76,-2.56 16.799999,-4 20,-5.6 22.719999,-7.68 25.440001,-9.92 28,-12.32 l 2.24,-2.72 1.92,-2.88 1.759998,-3.039999 1.280003,-3.200001 1.119999,-3.200001 0.799999,-3.519998 0.479999,-3.360003 0.16,-3.519996 -0.16,-3.520001 -0.479999,-3.36 L 36.32,-48 l -1.119999,-3.360001 -1.280003,-3.2 L 32.16,-57.599998 30.24,-60.48 28,-63.200001 25.440001,-65.599998 22.719999,-67.839996 20,-69.919998 16.799999,-71.519997 13.76,-72.959999 10.4,-74.080002 7.04,-74.879997 3.52,-75.360001 0,-75.519997"
       style="fill:none;stroke:#000000;stroke-width:26.4;stroke-linecap:round;stroke-linejoin:round;stroke-miterlimit:10;stroke-dasharray:none;stroke-opacity:1"
       transform="translate(200.06667,228.5466)"
       clip-path="url(#clipPath6)" />
    <path
       id="path7"
       d="m 0,0 4.48,7.04 4.64,6.72 5.12,6.56 5.44,6.239999 5.760001,5.920001 5.92,5.760002 6.399997,5.279998 6.560002,5.119999 6.720001,4.64 7.200001,4.319999 7.2,3.840001 7.519997,3.52 7.520004,3.200005 7.839997,2.719993 8,2.400002 8,1.919998 8.16,1.600006 8.16,1.119995 8.16,0.64 8.31999,0.160003 8.32001,-0.160003 8.16001,-0.479996 8.15998,-1.120003 8.16001,-1.440002"
       style="fill:none;stroke:#000000;stroke-width:26.4;stroke-linecap:round;stroke-linejoin:round;stroke-miterlimit:10;stroke-dasharray:none;stroke-opacity:1"
       transform="translate(30.146658,39.746613)"
       clip-path="url(#clipPath8)" />
    <path
       id="path9"
       d="m 0,0 -9.12,-0.48 -9.28,-0.16 -9.28,0.32 -9.119999,0.64 -9.280003,1.28 -8.959999,1.6 -9.120003,2.08 -8.799995,2.56 -8.800003,2.88 -8.64,3.36 -8.479995,3.68 -8.160003,4.16 -8.16,4.639999 -7.68,4.800002 -7.68,5.439998 -7.19999,5.600003 L -144.8,48.32 l -6.72,6.400001 -6.56,6.559998 -6.08,7.040001 -5.76,7.199997"
       style="fill:none;stroke:#000000;stroke-width:26.4;stroke-linecap:round;stroke-linejoin:round;stroke-miterlimit:10;stroke-dasharray:none;stroke-opacity:1"
       transform="translate(200.06667,153.02658)"
       clip-path="url(#clipPath10)" />
  </g>
</svg>
