<?xml version="1.0" encoding="UTF-8" standalone="no"?>
<!-- Created with Inkscape (http://www.inkscape.org/) -->

<svg
   version="1.1"
   id="svg1"
   width="292.14667"
   height="355.05334"
   viewBox="0 0 292.14667 355.05334"
   sodipodi:docname="Capricorn18.pdf"
   xmlns:inkscape="http://www.inkscape.org/namespaces/inkscape"
   xmlns:sodipodi="http://sodipodi.sourceforge.net/DTD/sodipodi-0.dtd"
   xmlns="http://www.w3.org/2000/svg"
   xmlns:svg="http://www.w3.org/2000/svg">
  <defs
     id="defs1">
    <clipPath
       clipPathUnits="userSpaceOnUse"
       id="clipPath2">
      <path
         d="M 0,0.16 V 1122.5601 H 793.59998 V 0.16 Z"
         clip-rule="evenodd"
         id="path2" />
    </clipPath>
    <clipPath
       clipPathUnits="userSpaceOnUse"
       id="clipPath4">
      <path
         d="M 0,0.16 V 1122.5601 H 793.59998 V 0.16 Z"
         clip-rule="evenodd"
         id="path4" />
    </clipPath>
    <clipPath
       clipPathUnits="userSpaceOnUse"
       id="clipPath6">
      <path
         d="M 0,0.16 V 1122.5601 H 793.59998 V 0.16 Z"
         clip-rule="evenodd"
         id="path6" />
    </clipPath>
    <clipPath
       clipPathUnits="userSpaceOnUse"
       id="clipPath8">
      <path
         d="M 0,0.16 V 1122.5601 H 793.59998 V 0.16 Z"
         transform="translate(-400.48001,-678.88001)"
         clip-rule="evenodd"
         id="path8" />
    </clipPath>
    <clipPath
       clipPathUnits="userSpaceOnUse"
       id="clipPath10">
      <path
         d="M 0,0.16 V 1122.5601 H 793.59998 V 0.16 Z"
         transform="translate(-544.15997,-632.47998)"
         clip-rule="evenodd"
         id="path10" />
    </clipPath>
  </defs>
  <sodipodi:namedview
     id="namedview1"
     pagecolor="#505050"
     bordercolor="#eeeeee"
     borderopacity="1"
     inkscape:showpageshadow="0"
     inkscape:pageopacity="0"
     inkscape:pagecheckerboard="0"
     inkscape:deskcolor="#505050">
    <inkscape:page
       x="0"
       y="0"
       inkscape:label="1"
       id="page1"
       width="292.14667"
       height="355.05334"
       margin="0"
       bleed="0" />
  </sodipodi:namedview>
  <g
     id="g1"
     inkscape:groupmode="layer"
     inkscape:label="1">
    <path
       id="path1"
       d="M 321.28,410.23999 H 547.84003"
       style="fill:none;stroke:#000000;stroke-width:26.4;stroke-linecap:round;stroke-linejoin:round;stroke-miterlimit:10;stroke-dasharray:none;stroke-opacity:1"
       transform="translate(-288.16,-377.74673)"
       clip-path="url(#clipPath2)" />
    <path
       id="path3"
       d="M 321.28,636.79999 H 547.84003"
       style="fill:none;stroke:#000000;stroke-width:26.4;stroke-linecap:round;stroke-linejoin:round;stroke-miterlimit:10;stroke-dasharray:none;stroke-opacity:1"
       transform="translate(-288.16,-377.74673)"
       clip-path="url(#clipPath4)" />
    <path
       id="path5"
       d="M 547.84003,410.23999 321.28,636.79999"
       style="fill:none;stroke:#000000;stroke-width:26.4;stroke-linecap:round;stroke-linejoin:round;stroke-miterlimit:10;stroke-dasharray:none;stroke-opacity:1"
       transform="translate(-288.16,-377.74673)"
       clip-path="url(#clipPath6)" />
    <path
       id="path7"
       d="m 0,0 1.28,3.36 1.44,3.04 1.92,3.04 2.08,2.88 2.24,2.56 2.56,2.400001 2.72,2.08 3.040001,1.92 L 20.32,22.879999 23.52,24.16 26.879999,25.120001 30.4,25.76 l 3.359998,0.32 3.520001,0.16 3.52,-0.32 L 44.16,25.280001 47.52,24.32 50.880001,23.200001 53.919998,21.6 56.959999,19.84 59.84,17.76 62.400002,15.36 64.800003,12.8 66.879997,10.08 68.800003,7.2 70.400002,4 71.68,0.8 l 0.959999,-3.36 0.64,-3.36 0.319999,-3.52 0.160004,-3.52 -0.32,-3.36 -0.639999,-3.52 -0.960007,-3.360001"
       style="fill:none;stroke:#000000;stroke-width:26.4;stroke-linecap:round;stroke-linejoin:round;stroke-miterlimit:10;stroke-dasharray:none;stroke-opacity:1"
       transform="translate(112.32001,301.13328)"
       clip-path="url(#clipPath8)" />
    <path
       id="path9"
       d="m 0,0 -1.12,-3.36 -1.6,-3.04 -1.76,-3.04 -2.08,-2.72 -2.4,-2.72 -2.56,-2.400001 -2.72,-2.08 -2.880001,-1.92 L -20.32,-22.719999 -23.52,-24.16 -26.879999,-25.120001 -30.24,-25.76 l -3.519998,-0.32 h -3.520001 l -3.36,0.16 -3.520001,0.639999 -3.36,0.960001 -3.200001,1.279999 -3.199997,1.440001 -3.040001,1.76 -2.720001,2.08 -2.560002,2.4 -2.399997,2.56 -2.080002,2.72 -1.919998,2.88 -1.599999,3.2 -1.279999,3.2 -0.960006,3.36 -0.799996,3.36 -0.319999,3.52 v 3.52 l 0.319999,3.52 0.64,3.36 0.800003,3.360001"
       style="fill:none;stroke:#000000;stroke-width:26.4;stroke-linecap:round;stroke-linejoin:round;stroke-miterlimit:10;stroke-dasharray:none;stroke-opacity:1"
       transform="translate(255.99997,254.73325)"
       clip-path="url(#clipPath10)" />
  </g>
</svg>
