<?xml version="1.0" encoding="UTF-8" standalone="no"?>
<!-- Created with Inkscape (http://www.inkscape.org/) -->

<svg
   version="1.1"
   id="svg1"
   width="349.51999"
   height="296.32001"
   viewBox="0 0 349.51999 296.32001"
   sodipodi:docname="Capricorn11.pdf"
   xmlns:inkscape="http://www.inkscape.org/namespaces/inkscape"
   xmlns:sodipodi="http://sodipodi.sourceforge.net/DTD/sodipodi-0.dtd"
   xmlns="http://www.w3.org/2000/svg"
   xmlns:svg="http://www.w3.org/2000/svg">
  <defs
     id="defs1">
    <clipPath
       clipPathUnits="userSpaceOnUse"
       id="clipPath2">
      <path
         d="M 0,0.16 V 1122.5601 H 793.59998 V 0.16 Z"
         transform="translate(-547.84003,-495.20002)"
         clip-rule="evenodd"
         id="path2" />
    </clipPath>
    <clipPath
       clipPathUnits="userSpaceOnUse"
       id="clipPath4">
      <path
         d="M 0,0.16 V 1122.5601 H 793.59998 V 0.16 Z"
         transform="translate(-245.75999,-627.35999)"
         clip-rule="evenodd"
         id="path4" />
    </clipPath>
    <clipPath
       clipPathUnits="userSpaceOnUse"
       id="clipPath6">
      <path
         d="M 0,0.16 V 1122.5601 H 793.59998 V 0.16 Z"
         transform="translate(-321.28,-627.35999)"
         clip-rule="evenodd"
         id="path6" />
    </clipPath>
    <clipPath
       clipPathUnits="userSpaceOnUse"
       id="clipPath8">
      <path
         d="M 0,0.16 V 1122.5601 H 793.59998 V 0.16 Z"
         transform="translate(-285.76001,-618.56)"
         clip-rule="evenodd"
         id="path8" />
    </clipPath>
    <clipPath
       clipPathUnits="userSpaceOnUse"
       id="clipPath10">
      <path
         d="M 0,0.16 V 1122.5601 H 793.59998 V 0.16 Z"
         clip-rule="evenodd"
         id="path10" />
    </clipPath>
    <clipPath
       clipPathUnits="userSpaceOnUse"
       id="clipPath12">
      <path
         d="M 0,0.16 V 1122.5601 H 793.59998 V 0.16 Z"
         clip-rule="evenodd"
         id="path12" />
    </clipPath>
    <clipPath
       clipPathUnits="userSpaceOnUse"
       id="clipPath14">
      <path
         d="M 0,0.16 V 1122.5601 H 793.59998 V 0.16 Z"
         transform="translate(-444.64001,-476.32001)"
         clip-rule="evenodd"
         id="path14" />
    </clipPath>
    <clipPath
       clipPathUnits="userSpaceOnUse"
       id="clipPath16">
      <path
         d="M 0,0.16 V 1122.5601 H 793.59998 V 0.16 Z"
         transform="translate(-434.56,-608.47998)"
         clip-rule="evenodd"
         id="path16" />
    </clipPath>
    <clipPath
       clipPathUnits="userSpaceOnUse"
       id="clipPath18">
      <path
         d="M 0,0.16 V 1122.5601 H 793.59998 V 0.16 Z"
         transform="translate(-415.67999,-589.59998)"
         clip-rule="evenodd"
         id="path18" />
    </clipPath>
  </defs>
  <sodipodi:namedview
     id="namedview1"
     pagecolor="#505050"
     bordercolor="#eeeeee"
     borderopacity="1"
     inkscape:showpageshadow="0"
     inkscape:pageopacity="0"
     inkscape:pagecheckerboard="0"
     inkscape:deskcolor="#505050">
    <inkscape:page
       x="0"
       y="0"
       inkscape:label="1"
       id="page1"
       width="349.51999"
       height="296.32001"
       margin="0"
       bleed="0" />
  </sodipodi:namedview>
  <g
     id="g1"
     inkscape:groupmode="layer"
     inkscape:label="1">
    <path
       id="path1"
       d="M 0,0 C 0,-20.85 -25.35,-37.759998 -56.639999,-37.759998 -87.93,-37.759998 -113.28,-20.85 -113.28,0 c 0,20.85 25.35,37.759998 56.640001,37.759998 C -25.35,37.759998 0,20.85 0,0 Z"
       style="fill:none;stroke:#000000;stroke-width:26.4;stroke-linecap:round;stroke-linejoin:round;stroke-miterlimit:10;stroke-dasharray:none;stroke-opacity:1"
       transform="translate(547.84003,496.53329)"
       clip-path="url(#clipPath2)" />
    <path
       id="path3"
       d="M 0,0 0.16,4.48 0.8,8.8 1.6,13.28 2.88,17.440001 4.32,21.6 l 1.92,4 2.08,4 2.56,3.679999 2.72,3.36 L 16.639999,40 19.84,43.040001 l 3.520001,2.719997 3.68,2.400002 3.839998,2.240002 4.000002,1.919998 4.16,1.439998 4.16,1.280003 L 47.68,56 52,56.48 56.48,56.639999 60.959999,56.48 l 4.32,-0.48 4.319999,-0.799999 4.32,-1.280003 4.160004,-1.439998 4,-1.919999 4,-2.080001 3.68,-2.399998 3.519997,-2.720001 L 96.480003,40.32 99.519997,37.119999 102.24,33.599998 104.8,29.92 l 2.24,-3.84 1.76,-4 1.6,-4.16"
       style="fill:none;stroke:#000000;stroke-width:26.4;stroke-linecap:round;stroke-linejoin:round;stroke-miterlimit:10;stroke-dasharray:none;stroke-opacity:1"
       transform="translate(245.75999,628.69326)"
       clip-path="url(#clipPath4)" />
    <path
       id="path5"
       d="m 0,0 -0.16,-3.52 -0.48,-3.36 -0.8,-3.36 -1.12,-3.36 -1.28,-3.199999 -1.76,-3.040001 -1.92,-2.879999 -2.24,-2.720002 -2.56,-2.399999 -2.56,-2.24 -2.88,-2.08 -3.039999,-1.599998 L -24,-35.200001 -27.360001,-36.32 l -3.359998,-0.799999 -3.520003,-0.479999 -3.519996,-0.16 -3.360001,0.16 -3.52,0.479999 L -48,-36.32 l -3.360001,1.119999 -3.2,1.440003 -3.039997,1.599998 -2.880002,2.08 -2.720001,2.24 -2.399997,2.399999 -2.239998,2.720002 -1.920006,2.879999 -1.759995,3.040001 -1.440002,3.199999 -1.120003,3.36 -0.799995,3.36 -0.480004,3.36 -0.159996,3.52"
       style="fill:none;stroke:#000000;stroke-width:26.4;stroke-linecap:round;stroke-linejoin:round;stroke-miterlimit:10;stroke-dasharray:none;stroke-opacity:1"
       transform="translate(321.28,628.69326)"
       clip-path="url(#clipPath6)" />
    <path
       id="path7"
       d="m 0,0 -0.96,2.08 -0.64,2.08 -0.48,2.24 -0.16,2.4 0.16,2.24 0.48,2.24 0.64,2.08 L 0,17.440001 1.12,19.52 2.56,21.280001 4.16,22.879999 5.92,24.32 7.84,25.440001 9.92,26.4 12.16,27.200001 14.4,27.52 l 2.239999,0.16 2.24,-0.16 2.240002,-0.319999 2.24,-0.640002 2.08,-0.959999 1.92,-1.28 1.76,-1.279999 1.759998,-1.76 L 32.16,19.52 l 1.279999,-1.92 0.960003,-2.08 0.639999,-2.24 0.32,-2.24 L 35.52,8.8"
       style="fill:none;stroke:#000000;stroke-width:26.4;stroke-linecap:round;stroke-linejoin:round;stroke-miterlimit:10;stroke-dasharray:none;stroke-opacity:1"
       transform="translate(285.76001,619.89327)"
       clip-path="url(#clipPath8)" />
    <path
       id="path9"
       d="M 356.16,645.28003 434.56,438.56"
       style="fill:none;stroke:#000000;stroke-width:26.4;stroke-linecap:round;stroke-linejoin:round;stroke-miterlimit:10;stroke-dasharray:none;stroke-opacity:1"
       transform="translate(0,1.3332747)"
       clip-path="url(#clipPath10)" />
    <path
       id="path11"
       d="m 434.56,438.56 v 56.64001"
       style="fill:none;stroke:#000000;stroke-width:26.4;stroke-linecap:round;stroke-linejoin:round;stroke-miterlimit:10;stroke-dasharray:none;stroke-opacity:1"
       transform="translate(0,1.3332747)"
       clip-path="url(#clipPath12)" />
    <path
       id="path13"
       d="m 0,0 -3.36,3.2 -3.04,3.52 -2.88,3.68 -2.4,3.84 -2.24,4 -1.76,4.319999 -1.440001,4.32 L -18.24,31.360001 -19.040001,35.84 -19.52,40.48 v 4.639999 l 0.319999,4.639999 0.640002,4.480004 0.959999,4.479999 1.44,4.48 1.76,4.319996 1.92,4 2.4,4"
       style="fill:none;stroke:#000000;stroke-width:26.4;stroke-linecap:round;stroke-linejoin:round;stroke-miterlimit:10;stroke-dasharray:none;stroke-opacity:1"
       transform="translate(444.64001,477.65328)"
       clip-path="url(#clipPath14)" />
    <path
       id="path15"
       d="m 0,0 2.56,-2.72 2.24,-2.88 1.92,-3.2 1.6,-3.36 1.28,-3.36 1.12,-3.680001 0.64,-3.519998 L 11.68,-26.4 v -3.68 l -0.32,-3.679998 -0.64,-3.680001 -1.12,-3.52 L 8.32,-44.48 6.72,-47.84 4.8,-50.880001 2.56,-53.919998 0,-56.639999"
       style="fill:none;stroke:#000000;stroke-width:26.4;stroke-linecap:round;stroke-linejoin:round;stroke-miterlimit:10;stroke-dasharray:none;stroke-opacity:1"
       transform="translate(434.56,609.81325)"
       clip-path="url(#clipPath16)" />
    <path
       id="path17"
       d="m 0,0 -1.12,1.28 -0.96,1.44 -0.8,1.6 -0.48,1.76 -0.32,1.6 -0.16,1.76 0.16,1.76 0.32,1.76 0.48,1.6 0.8,1.6 0.96,1.44 L 0,18.879999 1.44,20 2.88,20.959999 4.32,21.76 l 1.76,0.64 1.6,0.319999 1.76,0.16 1.76,-0.16 L 12.96,22.4 14.56,21.76 16.16,20.959999 17.6,20 18.879999,18.879999"
       style="fill:none;stroke:#000000;stroke-width:26.4;stroke-linecap:round;stroke-linejoin:round;stroke-miterlimit:10;stroke-dasharray:none;stroke-opacity:1"
       transform="translate(415.67999,590.93325)"
       clip-path="url(#clipPath18)" />
  </g>
</svg>
