<?xml version="1.0" encoding="UTF-8" standalone="no"?>
<!-- Created with Inkscape (http://www.inkscape.org/) -->

<svg
   version="1.1"
   id="svg1"
   width="289.49332"
   height="182.86667"
   viewBox="0 0 289.49332 182.86667"
   sodipodi:docname="Capricorn22.pdf"
   xmlns:inkscape="http://www.inkscape.org/namespaces/inkscape"
   xmlns:sodipodi="http://sodipodi.sourceforge.net/DTD/sodipodi-0.dtd"
   xmlns="http://www.w3.org/2000/svg"
   xmlns:svg="http://www.w3.org/2000/svg">
  <defs
     id="defs1">
    <clipPath
       clipPathUnits="userSpaceOnUse"
       id="clipPath2">
      <path
         d="M 0,0.16 V 1122.5601 H 793.59998 V 0.16 Z"
         transform="translate(-473.28,-552.32)"
         clip-rule="evenodd"
         id="path2" />
    </clipPath>
    <clipPath
       clipPathUnits="userSpaceOnUse"
       id="clipPath4">
      <path
         d="M 0,0.16 V 1122.5601 H 793.59998 V 0.16 Z"
         transform="translate(-330.23999,-584)"
         clip-rule="evenodd"
         id="path4" />
    </clipPath>
    <clipPath
       clipPathUnits="userSpaceOnUse"
       id="clipPath6">
      <path
         d="M 0,0.16 V 1122.5601 H 793.59998 V 0.16 Z"
         transform="translate(-330.23999,-584)"
         clip-rule="evenodd"
         id="path6" />
    </clipPath>
    <clipPath
       clipPathUnits="userSpaceOnUse"
       id="clipPath8">
      <path
         d="M 0,0.16 V 1122.5601 H 793.59998 V 0.16 Z"
         transform="translate(-514.40002,-527.28003)"
         clip-rule="evenodd"
         id="path8" />
    </clipPath>
    <clipPath
       clipPathUnits="userSpaceOnUse"
       id="clipPath10">
      <path
         d="M 0,0.16 V 1122.5601 H 793.59998 V 0.16 Z"
         clip-rule="evenodd"
         id="path10" />
    </clipPath>
  </defs>
  <sodipodi:namedview
     id="namedview1"
     pagecolor="#505050"
     bordercolor="#eeeeee"
     borderopacity="1"
     inkscape:showpageshadow="0"
     inkscape:pageopacity="0"
     inkscape:pagecheckerboard="0"
     inkscape:deskcolor="#505050">
    <inkscape:page
       x="0"
       y="0"
       inkscape:label="1"
       id="page1"
       width="289.49332"
       height="182.86667"
       margin="0"
       bleed="0" />
  </sodipodi:namedview>
  <g
     id="g1"
     inkscape:groupmode="layer"
     inkscape:label="1">
    <path
       id="path1"
       d="m 0,0 -4.96,-1.92 -5.28,-1.76 -5.44,-1.6 -5.760001,-1.6 -5.92,-1.28 -6.239997,-1.28 -6.240002,-0.96 -6.560002,-0.96 -6.559997,-0.8 -6.720001,-0.48 -6.720002,-0.48 -6.879997,-0.32 h -6.880005 -6.879997 l -6.879997,0.32 -6.720002,0.32 -6.72,0.64 -6.72,0.64 -6.4,0.96 -6.4,0.96 -6.23999,1.28 -5.92,1.28 -5.76001,1.44 -5.59999,1.6 -5.28,1.76 -4.96001,1.92 -4.8,1.92 -4.31999,2.24 -4.16001,2.08 -3.68001,2.4 -3.36,2.4 -3.03999,2.4 -2.56,2.56 -2.24,2.56 -1.92,2.559999 -1.44,2.720001 -0.95999,2.72 -0.64,2.719999 -0.16001,2.720001 0.16001,2.720002 0.64,2.719997 L -192,39.84 l 1.44,2.720001 1.76,2.559998 2.24,2.560001 2.72,2.560002 3.04,2.559997 3.36,2.240002 3.68001,2.399998 4.15998,2.080001 4.48002,2.239998 4.63999,1.920002 5.12,1.919998 5.28,1.760003 5.44,1.599998 5.92,1.440003"
       style="fill:none;stroke:#000000;stroke-width:26.4;stroke-linecap:round;stroke-linejoin:round;stroke-miterlimit:10;stroke-dasharray:none;stroke-opacity:1"
       transform="translate(473.28,544.30661)"
       clip-path="url(#clipPath2)" />
    <path
       id="path3"
       d="m 0,0 v -1.76 l -0.48,-1.76 -0.48,-1.6 -0.8,-1.6 -0.96,-1.44 -1.12,-1.28 -1.28,-1.12 -1.44,-0.96 -1.6,-0.8 -1.6,-0.48 -1.76,-0.32 -1.6,-0.16 -1.76,0.16 -1.759999,0.32 -1.600001,0.48 -1.6,0.8 -1.440001,0.96 -1.279998,1.12 -1.120001,1.28 -0.959999,1.44 -0.800002,1.6 -0.479999,1.6 -0.32,1.76 -0.16,1.76 0.16,1.76 0.32,1.6 0.479999,1.6 0.800002,1.6 L -23.68,8 l 1.120001,1.28 1.279998,1.12 1.440001,0.96 1.6,0.8 1.600001,0.64 1.759999,0.32 h 1.76 1.6 l 1.76,-0.32 1.6,-0.64 1.6,-0.8 L -5.12,10.4 -3.84,9.28 -2.72,8 -1.76,6.56 -0.96,4.96 -0.48,3.36 0,1.76 V 0 0 Z"
       style="fill:#000000;fill-opacity:1;fill-rule:evenodd;stroke:none"
       transform="translate(330.23999,575.98661)"
       clip-path="url(#clipPath4)" />
    <path
       id="path5"
       d="m 0,0 v -1.76 l -0.48,-1.76 -0.48,-1.6 -0.8,-1.6 -0.96,-1.44 -1.12,-1.28 -1.28,-1.12 -1.44,-0.96 -1.6,-0.8 -1.6,-0.48 -1.76,-0.32 -1.6,-0.16 -1.76,0.16 -1.759999,0.32 -1.600001,0.48 -1.6,0.8 -1.440001,0.96 -1.279998,1.12 -1.120001,1.28 -0.959999,1.44 -0.800002,1.6 -0.479999,1.6 -0.32,1.76 -0.16,1.76 0.16,1.76 0.32,1.6 0.479999,1.6 0.800002,1.6 L -23.68,8 l 1.120001,1.28 1.279998,1.12 1.440001,0.96 1.6,0.8 1.600001,0.64 1.759999,0.32 h 1.76 1.6 l 1.76,-0.32 1.6,-0.64 1.6,-0.8 L -5.12,10.4 -3.84,9.28 -2.72,8 -1.76,6.56 -0.96,4.96 -0.48,3.36 0,1.76 V 0"
       style="fill:none;stroke:#000000;stroke-width:0.64;stroke-linecap:round;stroke-linejoin:round;stroke-miterlimit:10;stroke-dasharray:none;stroke-opacity:1"
       transform="translate(330.23999,575.98661)"
       clip-path="url(#clipPath6)" />
    <path
       id="path7"
       d="m 0,0 c 0,-15.15 -12.28,-27.440001 -27.440001,-27.440001 -15.159997,0 -27.44,12.290001 -27.44,27.440001 0,15.15 12.280003,27.440001 27.44,27.440001 C -12.28,27.440001 0,15.15 0,0 Z"
       style="fill:none;stroke:#000000;stroke-width:26.4;stroke-linecap:round;stroke-linejoin:round;stroke-miterlimit:10;stroke-dasharray:none;stroke-opacity:1"
       transform="translate(514.40002,519.26664)"
       clip-path="url(#clipPath8)" />
    <path
       id="path9"
       d="m 458.23999,526.08002 47.68002,95.67999"
       style="fill:none;stroke:#000000;stroke-width:26.4;stroke-linecap:round;stroke-linejoin:round;stroke-miterlimit:10;stroke-dasharray:none;stroke-opacity:1"
       transform="translate(0,-8.013392)"
       clip-path="url(#clipPath10)" />
  </g>
</svg>
