<?xml version="1.0" encoding="UTF-8" standalone="no"?>
<!-- Created with Inkscape (http://www.inkscape.org/) -->

<svg
   version="1.1"
   id="svg1"
   width="430.90668"
   height="319.01334"
   viewBox="0 0 430.90668 319.01334"
   sodipodi:docname="Capricorn15.pdf"
   xmlns:inkscape="http://www.inkscape.org/namespaces/inkscape"
   xmlns:sodipodi="http://sodipodi.sourceforge.net/DTD/sodipodi-0.dtd"
   xmlns="http://www.w3.org/2000/svg"
   xmlns:svg="http://www.w3.org/2000/svg">
  <defs
     id="defs1">
    <clipPath
       clipPathUnits="userSpaceOnUse"
       id="clipPath2">
      <path
         d="M 0,0.16 V 1122.5601 H 793.59998 V 0.16 Z"
         transform="translate(3.3333334e-6)"
         clip-rule="evenodd"
         id="path2" />
    </clipPath>
    <clipPath
       clipPathUnits="userSpaceOnUse"
       id="clipPath4">
      <path
         d="M 0,0.16 V 1122.5601 H 793.59998 V 0.16 Z"
         transform="translate(3.3333334e-6)"
         clip-rule="evenodd"
         id="path4" />
    </clipPath>
    <clipPath
       clipPathUnits="userSpaceOnUse"
       id="clipPath6">
      <path
         d="M 0,0.16 V 1122.5601 H 793.59998 V 0.16 Z"
         transform="translate(-246.39999,-462.88001)"
         clip-rule="evenodd"
         id="path6" />
    </clipPath>
    <clipPath
       clipPathUnits="userSpaceOnUse"
       id="clipPath8">
      <path
         d="M 0,0.16 V 1122.5601 H 793.59998 V 0.16 Z"
         transform="translate(-434.07999,-688.79999)"
         clip-rule="evenodd"
         id="path8" />
    </clipPath>
    <clipPath
       clipPathUnits="userSpaceOnUse"
       id="clipPath10">
      <path
         d="M 0,0.16 V 1122.5601 H 793.59998 V 0.16 Z"
         transform="translate(3.3333334e-6)"
         clip-rule="evenodd"
         id="path10" />
    </clipPath>
    <clipPath
       clipPathUnits="userSpaceOnUse"
       id="clipPath12">
      <path
         d="M 0,0.16 V 1122.5601 H 793.59998 V 0.16 Z"
         transform="translate(-432.32001,-488.95999)"
         clip-rule="evenodd"
         id="path12" />
    </clipPath>
    <clipPath
       clipPathUnits="userSpaceOnUse"
       id="clipPath14">
      <path
         d="M 0,0.16 V 1122.5601 H 793.59998 V 0.16 Z"
         transform="translate(-434.23999,-472.79999)"
         clip-rule="evenodd"
         id="path14" />
    </clipPath>
    <clipPath
       clipPathUnits="userSpaceOnUse"
       id="clipPath16">
      <path
         d="M 0,0.16 V 1122.5601 H 793.59998 V 0.16 Z"
         transform="translate(3.3333334e-6)"
         clip-rule="evenodd"
         id="path16" />
    </clipPath>
  </defs>
  <sodipodi:namedview
     id="namedview1"
     pagecolor="#505050"
     bordercolor="#eeeeee"
     borderopacity="1"
     inkscape:showpageshadow="0"
     inkscape:pageopacity="0"
     inkscape:pagecheckerboard="0"
     inkscape:deskcolor="#505050">
    <inkscape:page
       x="0"
       y="0"
       inkscape:label="1"
       id="page1"
       width="430.90668"
       height="319.01334"
       margin="0"
       bleed="0" />
  </sodipodi:namedview>
  <g
     id="g1"
     inkscape:groupmode="layer"
     inkscape:label="1">
    <path
       id="path1"
       d="m 246.72,461.12 72.63999,227.03997"
       style="fill:none;stroke:#000000;stroke-width:26.4;stroke-linecap:round;stroke-linejoin:round;stroke-miterlimit:10;stroke-dasharray:none;stroke-opacity:1"
       transform="translate(-181.42667,-403.10673)"
       clip-path="url(#clipPath2)" />
    <path
       id="path3"
       d="M 320.64001,685.12 398.72,462.88"
       style="fill:none;stroke:#000000;stroke-width:26.4;stroke-linecap:round;stroke-linejoin:round;stroke-miterlimit:10;stroke-dasharray:none;stroke-opacity:1"
       transform="translate(-181.42667,-403.10673)"
       clip-path="url(#clipPath4)" />
    <path
       id="path5"
       d="m 0,0 v -2.24 l -0.32,-2.24 -0.48,-2.08 -0.8,-2.08 -1.12,-2.08 -1.12,-1.76 -1.44,-1.76 -1.6,-1.6 -1.76,-1.440001 L -10.56,-18.4 -12.64,-19.360001 -14.72,-20 l -2.239999,-0.48 -2.240002,-0.319999 h -2.24 L -23.68,-20.48 -25.92,-20 -28,-19.200001 -29.92,-18.24 l -1.92,1.280001 -1.759998,1.279999 -1.600003,1.6 -1.439998,1.76 -1.119999,1.92 -0.960003,2.08 L -39.52,-6.24 -40,-4.16"
       style="fill:none;stroke:#000000;stroke-width:26.4;stroke-linecap:round;stroke-linejoin:round;stroke-miterlimit:10;stroke-dasharray:none;stroke-opacity:1"
       transform="translate(64.973327,59.77328)"
       clip-path="url(#clipPath6)" />
    <path
       id="path7"
       d="m 0,0 1.44,1.92 1.6,1.92 1.92,1.6 2.08,1.44 2.08,1.12 2.4,0.96 2.4,0.64 2.4,0.48 2.559999,0.16 2.400002,-0.16 L 23.68,9.6 26.08,8.96 28.48,8 l 2.079999,-1.12 2.08,-1.44 1.920002,-1.6 L 36.16,1.92 37.759998,0"
       style="fill:none;stroke:#000000;stroke-width:26.4;stroke-linecap:round;stroke-linejoin:round;stroke-miterlimit:10;stroke-dasharray:none;stroke-opacity:1"
       transform="translate(252.65332,285.69326)"
       clip-path="url(#clipPath8)" />
    <path
       id="path9"
       d="m 398.72,462.88 5.60001,-20.48001"
       style="fill:none;stroke:#000000;stroke-width:26.4;stroke-linecap:round;stroke-linejoin:round;stroke-miterlimit:10;stroke-dasharray:none;stroke-opacity:1"
       transform="translate(-181.42667,-403.10673)"
       clip-path="url(#clipPath10)" />
    <path
       id="path11"
       d="m 0,0 0.8,1.92 1.28,1.76 1.76,1.6 1.92,1.6 2.4,1.28 2.88,1.12 3.04,0.8 3.360001,0.8 3.68,0.48 4,0.48 4.32,0.16 4.479997,-0.16 4.800003,-0.16 L 43.52,11.2 48.639999,10.56 53.919998,9.76 59.200001,8.8 64.800003,7.68 70.239998,6.24 75.839996,4.8 81.279999,3.04 86.879997,1.28 92.32,-0.8 97.760002,-2.88 103.04,-5.12 l 5.12,-2.4 5.12,-2.4 4.8,-2.56 4.64,-2.56 4.32,-2.72 4.16,-2.56 3.83999,-2.880001 3.68001,-2.719999 3.2,-2.719999 2.88,-2.720002 2.56,-2.720001 2.24001,-2.719997 1.91999,-2.560002 1.44001,-2.720001 1.11999,-2.399998 0.64,-2.400001 0.31999,-2.399998 -0.15999,-2.080002 -0.48001,-2.079998 -0.79998,-1.920002 -1.28,-1.759998 -1.76001,-1.600002 -1.92,-1.439999 -2.4,-1.279999 -2.88,-1.120002 -3.03999,-0.959999 -3.36,-0.8 -3.68001,-0.480003 -4,-0.32 -4.32,-0.159996 h -4.48 l -4.8,0.159996 -4.8,0.480004 -5.12,0.639999 -5.28,0.799999 -5.280003,0.959999 -5.439995,1.280003 -5.599998,1.279999 -5.600006,1.599998 -5.439995,1.600002 -5.600006,1.919999 -5.439995,1.920002 -5.440003,2.079998 -5.279998,2.240001 -5.119999,2.400002 -5.120003,2.399998 -4.799999,2.560001 -4.64,2.559997 -4.319999,2.720002 -4.16,2.720001 -3.84,2.719999 L 15.84,-27.52 12.48,-24.799999 9.6,-22.08 7.04,-19.360001 4.8,-16.639999 2.88,-13.92 l -1.44,2.56 -1.12,2.4 -0.64,2.4 -0.32,2.4 0.16,2.08 L 0,0"
       style="fill:none;stroke:#000000;stroke-width:26.4;stroke-linecap:round;stroke-linejoin:round;stroke-miterlimit:10;stroke-dasharray:none;stroke-opacity:1"
       transform="translate(250.89334,85.853266)"
       clip-path="url(#clipPath12)" />
    <path
       id="path13"
       d="m 0,0 -5.6,7.2 -5.12,7.36 -4.64,7.68 -4.32,7.84 -3.84,8.160002 -3.520001,8.319999 -3.039999,8.48 -2.559999,8.479999 -2.080002,8.8 -1.599999,8.800003 -1.279998,8.959999 -0.640004,8.959999 -0.319999,8.959999 0.319999,8.96 0.640004,8.96 1.119998,8.96 1.759999,8.79999 2.080002,8.80001 2.559999,8.63999 2.879999,8.32001 3.520001,8.31999 3.84,8.16001 4.32,7.83999 4.64,7.68001 5.12,7.36 5.6,7.2"
       style="fill:none;stroke:#000000;stroke-width:26.4;stroke-linecap:round;stroke-linejoin:round;stroke-miterlimit:10;stroke-dasharray:none;stroke-opacity:1"
       transform="translate(252.81332,69.693263)"
       clip-path="url(#clipPath14)" />
    <path
       id="path15"
       d="M 404.32001,442.39999 435.35999,492.16"
       style="fill:none;stroke:#000000;stroke-width:26.4;stroke-linecap:round;stroke-linejoin:round;stroke-miterlimit:10;stroke-dasharray:none;stroke-opacity:1"
       transform="translate(-181.42667,-403.10673)"
       clip-path="url(#clipPath16)" />
  </g>
</svg>
