<?xml version="1.0" encoding="UTF-8" standalone="no"?>
<!-- Created with Inkscape (http://www.inkscape.org/) -->

<svg
   version="1.1"
   id="svg1"
   width="314.84"
   height="389.76001"
   viewBox="0 0 314.84 389.76001"
   sodipodi:docname="Capricorn7.pdf"
   xmlns:inkscape="http://www.inkscape.org/namespaces/inkscape"
   xmlns:sodipodi="http://sodipodi.sourceforge.net/DTD/sodipodi-0.dtd"
   xmlns="http://www.w3.org/2000/svg"
   xmlns:svg="http://www.w3.org/2000/svg">
  <defs
     id="defs1">
    <clipPath
       clipPathUnits="userSpaceOnUse"
       id="clipPath2">
      <path
         d="M 0,0.16 V 1122.5601 H 793.59998 V 0.16 Z"
         clip-rule="evenodd"
         id="path2" />
    </clipPath>
    <clipPath
       clipPathUnits="userSpaceOnUse"
       id="clipPath4">
      <path
         d="M 0,0.16 V 1122.5601 H 793.59998 V 0.16 Z"
         transform="translate(-462.88,-495.20002)"
         clip-rule="evenodd"
         id="path4" />
    </clipPath>
    <clipPath
       clipPathUnits="userSpaceOnUse"
       id="clipPath6">
      <path
         d="M 0,0.16 V 1122.5601 H 793.59998 V 0.16 Z"
         transform="translate(-462.88,-684)"
         clip-rule="evenodd"
         id="path6" />
    </clipPath>
    <clipPath
       clipPathUnits="userSpaceOnUse"
       id="clipPath8">
      <path
         d="M 0,0.16 V 1122.5601 H 793.59998 V 0.16 Z"
         transform="translate(-405.92001,-620.96003)"
         clip-rule="evenodd"
         id="path8" />
    </clipPath>
  </defs>
  <sodipodi:namedview
     id="namedview1"
     pagecolor="#505050"
     bordercolor="#eeeeee"
     borderopacity="1"
     inkscape:showpageshadow="0"
     inkscape:pageopacity="0"
     inkscape:pagecheckerboard="0"
     inkscape:deskcolor="#505050">
    <inkscape:page
       x="0"
       y="0"
       inkscape:label="1"
       id="page1"
       width="314.84"
       height="389.76001"
       margin="0"
       bleed="0" />
  </sodipodi:namedview>
  <g
     id="g1"
     inkscape:groupmode="layer"
     inkscape:label="1">
    <path
       id="path1"
       d="M 274.07999,400.79999 462.88,495.20001"
       style="fill:none;stroke:#000000;stroke-width:26.4;stroke-linecap:round;stroke-linejoin:round;stroke-miterlimit:10;stroke-dasharray:none;stroke-opacity:1"
       transform="translate(0,14.693275)"
       clip-path="url(#clipPath2)" />
    <path
       id="path3"
       d="M 0,0 -6.08,0.16 -12.32,0.8 -18.4,1.76 -24.32,3.2 -30.24,4.96 -36,7.2 -41.759998,9.76 -47.200001,12.64 -52.32,16 l -5.119999,3.52 -4.800003,4 -4.479999,4.16 -4.159996,4.48 -4,4.799999 -3.520005,4.959999 -3.36,5.280003 -2.879997,5.439998 -2.559998,5.600003 L -89.279999,64 -91.199997,69.919998 -92.480003,76 l -1.119995,6.080002 -0.480004,6.239998 -0.32,6.080002 0.32,6.239998 0.480004,6.08 1.119995,6.08 1.280006,6.08 1.919998,5.92 2.080002,5.76 2.559998,5.6 2.879997,5.44001 3.36,5.27999 3.520005,4.96 4,4.8 4.159996,4.47999 4.479999,4.32001 4.800003,3.84 5.119999,3.68001 5.119999,3.19999 5.440003,2.87999 5.759998,2.56002 5.76,2.23999 5.92,1.76001 5.92,1.43998 6.08,0.96001 6.24,0.64 6.08,0.16"
       style="fill:none;stroke:#000000;stroke-width:26.4;stroke-linecap:round;stroke-linejoin:round;stroke-miterlimit:10;stroke-dasharray:none;stroke-opacity:1"
       transform="translate(462.88,509.89329)"
       clip-path="url(#clipPath4)" />
    <path
       id="path5"
       d="m 0,0 4.48,-0.16 4.48,-0.48 4.32,-0.96 4.32,-1.12 4.16,-1.6 4.16,-1.92 3.84,-2.24 3.679999,-2.4 3.52,-2.72 L 40.16,-16.639999 43.200001,-20 l 2.880001,-3.52 2.399998,-3.680001 2.080001,-4 1.919999,-4 1.600002,-4.16 L 55.200001,-43.68 56,-48.16 l 0.48,-4.479999 0.159999,-4.32 -0.159999,-4.48 -0.64,-4.479999 -0.799999,-4.32 -1.280003,-4.32 L 52.16,-78.720001 50.240002,-82.879997 48,-86.720001 45.599998,-90.400002 42.720001,-93.919998 39.68,-97.120003 36.32,-100.16 l -3.520001,-2.72 -3.679998,-2.4 -4,-2.08 -4,-1.92 -4.320002,-1.44 -4.319999,-1.12 -4.32,-0.8 -4.48,-0.48 -4.48,-0.16 -4.48,0.32 -4.32,0.48 -4.48,0.96 -4.16,1.28 -4.16,1.6 -4.159999,1.92 -3.840001,2.24 -3.680002,2.56 -3.359997,2.879999 -3.2,3.040001 -3.040001,3.360001 -2.720002,3.519996 -2.399997,3.840004 -2.080002,4 -1.759998,4 -1.440003,4.159996 -1.279999,4.32 L -56,-64.32"
       style="fill:none;stroke:#000000;stroke-width:26.4;stroke-linecap:round;stroke-linejoin:round;stroke-miterlimit:10;stroke-dasharray:none;stroke-opacity:1"
       transform="translate(462.88,698.69327)"
       clip-path="url(#clipPath6)" />
    <path
       id="path7"
       d="m 0,0 -1.44,5.6 -0.96,5.76 -0.64,5.920001 -0.16,5.76 0.32,5.919998 0.64,5.760002 1.12,5.759999 1.44,5.760002 1.92,5.599998 2.4,5.279999 2.72,5.280003 3.04,4.959999 3.36,4.800003 3.84,4.479995 4,4.160004 4.32,4 4.639999,3.519997 4.960001,3.36 5.119999,2.879998 5.279999,2.400001 5.440003,2.080002 5.599998,1.759999"
       style="fill:none;stroke:#000000;stroke-width:26.4;stroke-linecap:round;stroke-linejoin:round;stroke-miterlimit:10;stroke-dasharray:none;stroke-opacity:1"
       transform="translate(405.92001,635.6533)"
       clip-path="url(#clipPath8)" />
  </g>
</svg>
