<?xml version="1.0" encoding="UTF-8" standalone="no"?>
<!-- Created with Inkscape (http://www.inkscape.org/) -->

<svg
   version="1.1"
   id="svg1"
   width="277.49332"
   height="213.57333"
   viewBox="0 0 277.49332 213.57333"
   sodipodi:docname="Capricorn25.pdf"
   xmlns:inkscape="http://www.inkscape.org/namespaces/inkscape"
   xmlns:sodipodi="http://sodipodi.sourceforge.net/DTD/sodipodi-0.dtd"
   xmlns="http://www.w3.org/2000/svg"
   xmlns:svg="http://www.w3.org/2000/svg">
  <defs
     id="defs1">
    <clipPath
       clipPathUnits="userSpaceOnUse"
       id="clipPath2">
      <path
         d="M 0,0.16 V 1122.5601 H 793.59998 V 0.16 Z"
         transform="translate(-375.04001,-624.32001)"
         clip-rule="evenodd"
         id="path2" />
    </clipPath>
    <clipPath
       clipPathUnits="userSpaceOnUse"
       id="clipPath4">
      <path
         d="M 0,0.16 V 1122.5601 H 793.59998 V 0.16 Z"
         transform="translate(-510.07999,-556.79999)"
         clip-rule="evenodd"
         id="path4" />
    </clipPath>
    <clipPath
       clipPathUnits="userSpaceOnUse"
       id="clipPath6">
      <path
         d="M 0,0.16 V 1122.5601 H 793.59998 V 0.16 Z"
         clip-rule="evenodd"
         id="path6" />
    </clipPath>
    <clipPath
       clipPathUnits="userSpaceOnUse"
       id="clipPath8">
      <path
         d="M 0,0.16 V 1122.5601 H 793.59998 V 0.16 Z"
         transform="translate(-291.51999,-552.79999)"
         clip-rule="evenodd"
         id="path8" />
    </clipPath>
    <clipPath
       clipPathUnits="userSpaceOnUse"
       id="clipPath10">
      <path
         d="M 0,0.16 V 1122.5601 H 793.59998 V 0.16 Z"
         clip-rule="evenodd"
         id="path10" />
    </clipPath>
  </defs>
  <sodipodi:namedview
     id="namedview1"
     pagecolor="#505050"
     bordercolor="#eeeeee"
     borderopacity="1"
     inkscape:showpageshadow="0"
     inkscape:pageopacity="0"
     inkscape:pagecheckerboard="0"
     inkscape:deskcolor="#505050">
    <inkscape:page
       x="0"
       y="0"
       inkscape:label="1"
       id="page1"
       width="277.49332"
       height="213.57333"
       margin="0"
       bleed="0" />
  </sodipodi:namedview>
  <g
     id="g1"
     inkscape:groupmode="layer"
     inkscape:label="1">
    <path
       id="path1"
       d="m 0,0 1.6,3.04 1.92,2.88 2.24,2.72 2.56,2.56 2.72,2.08 2.88,2.08 3.039999,1.599999 L 20.16,18.4 l 3.200001,1.12 3.519998,0.8 3.360001,0.479999 3.519998,0.16 3.520001,-0.16 3.36,-0.479999 3.520001,-0.8 3.200001,-1.12 3.2,-1.440001 L 53.599998,15.2 56.48,13.28 59.200001,11.04 61.599998,8.64 63.84,5.92 65.760002,3.04 67.519997,0 l 1.440002,-3.2 1.120003,-3.36 0.799995,-3.36 0.480004,-3.52 0.159996,-3.519999 -0.159996,-3.360001 -0.64,-3.52 -0.800003,-3.360001 -1.119995,-3.359998 -1.280006,-3.199999"
       style="fill:none;stroke:#000000;stroke-width:26.4;stroke-linecap:round;stroke-linejoin:round;stroke-miterlimit:10;stroke-dasharray:none;stroke-opacity:1"
       transform="translate(375.04001,622.98662)"
       clip-path="url(#clipPath2)" />
    <path
       id="path3"
       d="m 0,0 -1.76,-3.04 -1.92,-2.88 -2.24,-2.56 -2.56,-2.56 -2.56,-2.24 -2.88,-1.92 -3.039999,-1.759999 L -20.16,-18.24 -23.52,-19.360001 -26.879999,-20.16 -30.4,-20.639999 l -3.519998,-0.16 -3.360001,0.16 -3.52,0.479999 -3.360001,0.799999 -3.36,1.120001 -3.200001,1.440001 -3.039997,1.599999 -2.880001,2.08 -2.720002,2.24 -2.399997,2.4 L -64,-5.76 -65.919998,-2.88 -67.68,0.16 l -1.279999,3.2 -1.120003,3.36 -0.799995,3.36 -0.480004,3.36 -0.159996,3.519999 0.159996,3.520001 0.480004,3.52 0.799995,3.360001 1.120003,3.199998 1.440002,3.199999"
       style="fill:none;stroke:#000000;stroke-width:26.4;stroke-linecap:round;stroke-linejoin:round;stroke-miterlimit:10;stroke-dasharray:none;stroke-opacity:1"
       transform="translate(510.07999,555.4666)"
       clip-path="url(#clipPath4)" />
    <path
       id="path5"
       d="M 442.56,477.28 329.28,590.56"
       style="fill:none;stroke:#000000;stroke-width:26.4;stroke-linecap:round;stroke-linejoin:round;stroke-miterlimit:10;stroke-dasharray:none;stroke-opacity:1"
       transform="translate(0,-1.333392)"
       clip-path="url(#clipPath6)" />
    <path
       id="path7"
       d="m 0,0 -1.92,2.08 -1.6,2.24 -1.44,2.56 -1.12,2.56 -0.8,2.56 -0.64,2.72 -0.32,2.88 v 2.72 l 0.32,2.720001 0.64,2.879999 0.8,2.56 1.12,2.560001 1.44,2.399998 L -1.92,35.68 0,37.759998 2.08,39.68 4.32,41.279999 6.72,42.720001 9.28,43.84 12,44.799999 l 2.72,0.48 2.720001,0.319999 H 20.16 l 2.880001,-0.319999 2.719999,-0.48 2.72,-0.959999 2.399999,-1.119999 2.56,-1.440002 L 35.68,39.68 37.759998,37.759998"
       style="fill:none;stroke:#000000;stroke-width:26.4;stroke-linecap:round;stroke-linejoin:round;stroke-miterlimit:10;stroke-dasharray:none;stroke-opacity:1"
       transform="translate(291.51999,551.4666)"
       clip-path="url(#clipPath8)" />
    <path
       id="path9"
       d="M 442.56,590.56 385.92001,533.91998"
       style="fill:none;stroke:#000000;stroke-width:26.4;stroke-linecap:round;stroke-linejoin:round;stroke-miterlimit:10;stroke-dasharray:none;stroke-opacity:1"
       transform="translate(0,-1.333392)"
       clip-path="url(#clipPath10)" />
  </g>
</svg>
