<?xml version="1.0" encoding="UTF-8" standalone="no"?>
<!-- Created with Inkscape (http://www.inkscape.org/) -->

<svg
   version="1.1"
   id="svg1"
   width="260.13333"
   height="425.79999"
   viewBox="0 0 260.13333 425.79999"
   sodipodi:docname="Capricorn.pdf"
   xmlns:inkscape="http://www.inkscape.org/namespaces/inkscape"
   xmlns:sodipodi="http://sodipodi.sourceforge.net/DTD/sodipodi-0.dtd"
   xmlns="http://www.w3.org/2000/svg"
   xmlns:svg="http://www.w3.org/2000/svg">
  <defs
     id="defs1">
    <clipPath
       clipPathUnits="userSpaceOnUse"
       id="clipPath2">
      <path
         d="M 26.4,26.559999 V 1096.16 H 767.03998 V 26.559999 Z"
         transform="translate(-359.84,-410.23999)"
         clip-rule="evenodd"
         id="path2" />
    </clipPath>
    <clipPath
       clipPathUnits="userSpaceOnUse"
       id="clipPath4">
      <path
         d="M 26.4,26.559999 V 1096.16 H 767.03998 V 26.559999 Z"
         transform="translate(-435.35998,-410.23999)"
         clip-rule="evenodd"
         id="path4" />
    </clipPath>
    <clipPath
       clipPathUnits="userSpaceOnUse"
       id="clipPath6">
      <path
         d="M 26.4,26.559999 V 1096.16 H 767.03998 V 26.559999 Z"
         transform="translate(-3.3333333e-6)"
         clip-rule="evenodd"
         id="path6" />
    </clipPath>
    <clipPath
       clipPathUnits="userSpaceOnUse"
       id="clipPath8">
      <path
         d="M 26.4,26.559999 V 1096.16 H 767.03998 V 26.559999 Z"
         transform="translate(-3.3333333e-6)"
         clip-rule="evenodd"
         id="path8" />
    </clipPath>
    <clipPath
       clipPathUnits="userSpaceOnUse"
       id="clipPath10">
      <path
         d="M 26.4,26.559999 V 1096.16 H 767.03998 V 26.559999 Z"
         transform="translate(-404.32,-637.91998)"
         clip-rule="evenodd"
         id="path10" />
    </clipPath>
    <clipPath
       clipPathUnits="userSpaceOnUse"
       id="clipPath12">
      <path
         d="M 26.4,26.559999 V 1096.16 H 767.03998 V 26.559999 Z"
         transform="translate(-427.67999,-734.56)"
         clip-rule="evenodd"
         id="path12" />
    </clipPath>
    <clipPath
       clipPathUnits="userSpaceOnUse"
       id="clipPath14">
      <path
         d="M 26.4,26.559999 V 1096.16 H 767.03998 V 26.559999 Z"
         transform="translate(-468.79998,-670.23999)"
         clip-rule="evenodd"
         id="path14" />
    </clipPath>
    <clipPath
       clipPathUnits="userSpaceOnUse"
       id="clipPath16">
      <path
         d="M 26.4,26.559999 V 1096.16 H 767.03998 V 26.559999 Z"
         transform="translate(-351.35999,-742.08002)"
         clip-rule="evenodd"
         id="path16" />
    </clipPath>
  </defs>
  <sodipodi:namedview
     id="namedview1"
     pagecolor="#505050"
     bordercolor="#eeeeee"
     borderopacity="1"
     inkscape:showpageshadow="0"
     inkscape:pageopacity="0"
     inkscape:pagecheckerboard="0"
     inkscape:deskcolor="#505050">
    <inkscape:page
       x="0"
       y="0"
       inkscape:label="1"
       id="page1"
       width="260.13333"
       height="425.79999"
       margin="0"
       bleed="0" />
  </sodipodi:namedview>
  <g
     id="g1"
     inkscape:groupmode="layer"
     inkscape:label="1">
    <path
       id="path1"
       d="m 0,0 0.48,-3.52 0.16,-3.52 -0.16,-3.68 -0.32,-3.52 -0.8,-3.52 -1.12,-3.360001 -1.44,-3.199999 -1.76,-3.2 -1.92,-3.039999 -2.4,-2.72 -2.4,-2.560001 -2.72,-2.240002 -3.040001,-2.079998 -3.039999,-1.759998 -3.36,-1.440003 -3.360001,-1.119999 -3.519998,-0.799999 -3.520003,-0.479999 -3.519996,-0.320004 -3.680001,0.320004 -3.52,0.479999 L -48.48,-44.48 l -3.36,1.119999 -3.200001,1.440003 -3.200001,1.759998 -2.879997,2.079998 L -63.84,-35.84 l -2.560002,2.560001 -2.239997,2.72 -2.080002,3.039999 -1.760002,3.2 -1.439995,3.199999 -0.959999,3.360001 -0.800003,3.52 -0.480004,3.52 -0.159996,3.68 0.159996,3.52 0.640007,3.52"
       style="fill:none;stroke:#000000;stroke-width:26.4;stroke-linecap:round;stroke-linejoin:round;stroke-miterlimit:10;stroke-dasharray:none;stroke-opacity:1"
       transform="translate(93.026663,63.199931)"
       clip-path="url(#clipPath2)" />
    <path
       id="path3"
       d="m 0,0 0.48,-3.52 0.16,-3.52 -0.16,-3.68 -0.32,-3.52 -0.8,-3.52 -1.12,-3.360001 -1.44,-3.199999 -1.76,-3.2 -1.92,-3.039999 -2.4,-2.72 -2.4,-2.560001 -2.88,-2.240002 -2.880001,-2.079998 -3.039999,-1.759998 -3.36,-1.440003 -3.360001,-1.119999 -3.519998,-0.799999 -3.520003,-0.479999 -3.519996,-0.320004 -3.680001,0.320004 -3.52,0.479999 L -48.48,-44.48 l -3.36,1.119999 -3.200001,1.440003 -3.200001,1.759998 -2.879997,2.079998 L -64,-35.84 l -2.400002,2.560001 -2.239997,2.72 -2.080002,3.039999 -1.760002,3.2 -1.439995,3.199999 -1.120003,3.360001 -0.639999,3.52 -0.480004,3.52 -0.159996,3.68 0.159996,3.52 0.640007,3.52"
       style="fill:none;stroke:#000000;stroke-width:26.4;stroke-linecap:round;stroke-linejoin:round;stroke-miterlimit:10;stroke-dasharray:none;stroke-opacity:1"
       transform="translate(168.54665,63.199931)"
       clip-path="url(#clipPath4)" />
    <path
       id="path5"
       d="M 359.84,407.67999 335.84,644"
       style="fill:none;stroke:#000000;stroke-width:26.4;stroke-linecap:round;stroke-linejoin:round;stroke-miterlimit:10;stroke-dasharray:none;stroke-opacity:1"
       transform="translate(-266.81333,-347.04006)"
       clip-path="url(#clipPath6)" />
    <path
       id="path7"
       d="M 434.23999,416.48001 404,643.03998"
       style="fill:none;stroke:#000000;stroke-width:26.4;stroke-linecap:round;stroke-linejoin:round;stroke-miterlimit:10;stroke-dasharray:none;stroke-opacity:1"
       transform="translate(-266.81333,-347.04006)"
       clip-path="url(#clipPath8)" />
    <path
       id="path9"
       d="m 0,0 0.16,3.68 0.32,3.68 0.8,3.68 1.12,3.52 1.44,3.52 1.6,3.200001 2.08,3.199999 2.24,2.880001 2.56,2.719999 2.88,2.4 2.88,2.240001 3.200001,1.919998 3.359998,1.600003 L 28.16,39.52 l 3.52,0.96 3.680001,0.639999 3.68,0.32 h 3.84 l 3.68,-0.48 L 50.080002,40.16 53.759998,39.200001 57.119999,37.759998 60.48,36.16 63.68,34.080002 66.559998,31.84"
       style="fill:none;stroke:#000000;stroke-width:26.4;stroke-linecap:round;stroke-linejoin:round;stroke-miterlimit:10;stroke-dasharray:none;stroke-opacity:1"
       transform="translate(137.50667,290.87992)"
       clip-path="url(#clipPath10)" />
    <path
       id="path11"
       d="M 0,0 1.92,-13.12 3.36,-26.24 4.16,-39.52 4.48,-52.799999 4.16,-66.080002 3.36,-79.360001 1.92,-92.480003 0,-105.6"
       style="fill:none;stroke:#000000;stroke-width:26.4;stroke-linecap:round;stroke-linejoin:round;stroke-miterlimit:10;stroke-dasharray:none;stroke-opacity:1"
       transform="translate(160.86666,387.51994)"
       clip-path="url(#clipPath12)" />
    <path
       id="path13"
       d="m 0,0 3.84,-0.16 3.68,-0.48 3.68,-0.96 3.68,-1.12 3.52,-1.6 3.2,-1.76 3.199999,-2.08 2.880001,-2.4 2.72,-2.72 2.399999,-2.88 2.240002,-3.200001 1.919998,-3.359998 1.440003,-3.360001 1.279998,-3.68 0.8,-3.679999 0.639999,-3.84 0.16,-3.68 -0.16,-3.84 -0.48,-3.84 L 39.68,-52.32 l -1.119999,-3.52 -1.600002,-3.520001 -1.759998,-3.36 -2.080002,-3.199997 -2.56,-2.880005 L 28,-71.519997 24.959999,-73.919998 21.92,-76 18.559999,-77.919998 15.2,-79.519997 11.52,-80.639999 7.84,-81.599998 4,-82.080002 l -3.68,-0.32 -3.84,0.160004 -3.84,0.64 -3.68,0.799995 -3.52,1.120003 -3.52,1.599998 -3.360001,1.760002 -3.199998,2.239998 L -27.52,-71.68 l -2.72,2.720001 -2.399999,2.879997 -2.240002,3.040001 -1.759998,3.360001 -1.600003,3.52 -1.279998,3.520001 -0.8,3.68 -0.479999,3.84 -0.32,3.84"
       style="fill:none;stroke:#000000;stroke-width:26.4;stroke-linecap:round;stroke-linejoin:round;stroke-miterlimit:10;stroke-dasharray:none;stroke-opacity:1"
       transform="translate(201.98665,323.19993)"
       clip-path="url(#clipPath14)" />
    <path
       id="path15"
       d="M 0,0 2.72,2.88 5.6,5.6 8.64,8 12,10.24 15.36,12 l 3.680001,1.6 3.839998,1.28 3.84,0.8 3.84,0.48 4.000002,0.16 3.840001,-0.16 4,-0.48 3.84,-0.8 3.679996,-1.28 3.68,-1.44 3.520001,-1.92 L 60.32,8.16 63.52,5.76 66.400002,3.04 68.959999,0 l 2.400002,-3.04 2.080001,-3.36 1.759995,-3.68 1.440002,-3.68 1.120003,-3.680001"
       style="fill:none;stroke:#000000;stroke-width:26.4;stroke-linecap:round;stroke-linejoin:round;stroke-miterlimit:10;stroke-dasharray:none;stroke-opacity:1"
       transform="translate(84.546652,395.03996)"
       clip-path="url(#clipPath16)" />
  </g>
</svg>
