<?xml version="1.0" encoding="UTF-8" standalone="no"?>
<!-- Created with Inkscape (http://www.inkscape.org/) -->

<svg
   version="1.1"
   id="svg1"
   width="284.16"
   height="305.66666"
   viewBox="0 0 284.16 305.66666"
   sodipodi:docname="Capricorn24.pdf"
   xmlns:inkscape="http://www.inkscape.org/namespaces/inkscape"
   xmlns:sodipodi="http://sodipodi.sourceforge.net/DTD/sodipodi-0.dtd"
   xmlns="http://www.w3.org/2000/svg"
   xmlns:svg="http://www.w3.org/2000/svg">
  <defs
     id="defs1">
    <clipPath
       clipPathUnits="userSpaceOnUse"
       id="clipPath2">
      <path
         d="M 0,0.16 V 1122.5601 H 793.59998 V 0.16 Z"
         transform="translate(-281.12,-437.6)"
         clip-rule="evenodd"
         id="path2" />
    </clipPath>
    <clipPath
       clipPathUnits="userSpaceOnUse"
       id="clipPath4">
      <path
         d="M 0,0.16 V 1122.5601 H 793.59998 V 0.16 Z"
         transform="translate(-396,-438.07999)"
         clip-rule="evenodd"
         id="path4" />
    </clipPath>
    <clipPath
       clipPathUnits="userSpaceOnUse"
       id="clipPath6">
      <path
         d="M 0,0.16 V 1122.5601 H 793.59998 V 0.16 Z"
         clip-rule="evenodd"
         id="path6" />
    </clipPath>
    <clipPath
       clipPathUnits="userSpaceOnUse"
       id="clipPath8">
      <path
         d="M 0,0.16 V 1122.5601 H 793.59998 V 0.16 Z"
         transform="translate(-396.79999,-628.47998)"
         clip-rule="evenodd"
         id="path8" />
    </clipPath>
  </defs>
  <sodipodi:namedview
     id="namedview1"
     pagecolor="#505050"
     bordercolor="#eeeeee"
     borderopacity="1"
     inkscape:showpageshadow="0"
     inkscape:pageopacity="0"
     inkscape:pagecheckerboard="0"
     inkscape:deskcolor="#505050">
    <inkscape:page
       x="0"
       y="0"
       inkscape:label="1"
       id="page1"
       width="284.16"
       height="305.66666"
       margin="0"
       bleed="0" />
  </sodipodi:namedview>
  <g
     id="g1"
     inkscape:groupmode="layer"
     inkscape:label="1">
    <path
       id="path1"
       d="m 0,0 v 4.48 l 0.32,4.64 0.8,4.48 0.96,4.48 1.44,4.32 1.76,4.319999 2.08,4 2.4,3.840002 2.72,3.680001 3.04,3.519996 3.199999,3.200001 L 22.24,48 l 3.68,2.560001 4,2.399998 4.160002,2.080002 4.16,1.759998 4.319999,1.280003 4.48,1.119999 L 51.68,59.84 l 4.48,0.32 4.639999,-0.16 4.48,-0.32 4.480003,-0.799999 4.479996,-1.280003 4.32,-1.439998 4.160003,-1.759998 L 86.879997,52.16 90.720001,49.759998 94.400002,47.040001 97.760002,44 100.96,40.639999 l 2.88,-3.52 2.56,-3.84 2.4,-3.839998 1.92,-4.16 1.6,-4.320002 1.28,-4.32 0.96,-4.479999 0.64,-4.64 0.16,-4.48"
       style="fill:none;stroke:#000000;stroke-width:26.4;stroke-linecap:round;stroke-linejoin:round;stroke-miterlimit:10;stroke-dasharray:none;stroke-opacity:1"
       transform="translate(281.12,450.94661)"
       clip-path="url(#clipPath2)" />
    <path
       id="path3"
       d="m 0,0 v 4.64 l 0.32,4.48 0.64,4.48 1.12,4.48 1.28,4.32 1.76,4.319999 2.08,4 2.4,4.000002 2.56,3.680001 3.04,3.359996 3.2,3.360001 L 21.76,48 l 3.680001,2.720001 3.84,2.399998 4.159998,2.240002 4.159999,1.759998 4.32,1.440002 4.480004,1.119999 4.479999,0.64 4.48,0.479999 H 60 L 64.480003,60.48 l 4.479996,-0.64 4.480003,-0.959999 4.32,-1.440002 4.32,-1.599999 4,-2.080002 4,-2.239998 3.68,-2.720001 3.519997,-2.880001 3.200001,-3.199997 3.04,-3.36 2.72,-3.680001 2.56,-3.84 2.08,-4.16 1.76,-4.16 1.44,-4.319999 1.28,-4.320001 0.8,-4.48 0.32,-4.64 0.16,-4.48"
       style="fill:none;stroke:#000000;stroke-width:26.4;stroke-linecap:round;stroke-linejoin:round;stroke-miterlimit:10;stroke-dasharray:none;stroke-opacity:1"
       transform="translate(396,451.4266)"
       clip-path="url(#clipPath4)" />
    <path
       id="path5"
       d="M 510.07999,439.67999 V 628.47998"
       style="fill:none;stroke:#000000;stroke-width:26.4;stroke-linecap:round;stroke-linejoin:round;stroke-miterlimit:10;stroke-dasharray:none;stroke-opacity:1"
       transform="translate(0,13.346608)"
       clip-path="url(#clipPath6)" />
    <path
       id="path7"
       d="M 0,0 0.32,4.32 0.8,8.8 1.6,13.12 2.88,17.440001 4.32,21.6 l 1.92,4 2.24,4 2.4,3.679999 2.72,3.36 L 16.639999,40 20,43.040001 l 3.360001,2.719997 3.68,2.400002 4,2.240002 4,1.919998 4.16,1.439998 4.319999,1.280003 4.32,0.799999 4.48,0.48 4.319999,0.319999 4.48,-0.319999 4.479999,-0.48 4.32,-0.799999 4.32,-1.280003 4.160004,-1.439998 4,-1.919998 3.839996,-2.240002 3.68,-2.400002 3.520004,-2.719997 L 96.800003,40 l 3.039993,-3.360001 2.720004,-3.36 2.4,-3.679999 2.24,-4 1.76,-4 1.6,-4.159999 1.28,-4.320001 0.8,-4.32 0.48,-4.48 0.16,-4.32"
       style="fill:none;stroke:#000000;stroke-width:26.4;stroke-linecap:round;stroke-linejoin:round;stroke-miterlimit:10;stroke-dasharray:none;stroke-opacity:1"
       transform="translate(396.79999,641.82659)"
       clip-path="url(#clipPath8)" />
  </g>
</svg>
