<?xml version="1.0" encoding="UTF-8" standalone="no"?>
<!-- Created with Inkscape (http://www.inkscape.org/) -->

<svg
   version="1.1"
   id="svg1"
   width="242.8"
   height="185.53333"
   viewBox="0 0 242.8 185.53333"
   sodipodi:docname="Capricorn5.pdf"
   xmlns:inkscape="http://www.inkscape.org/namespaces/inkscape"
   xmlns:sodipodi="http://sodipodi.sourceforge.net/DTD/sodipodi-0.dtd"
   xmlns="http://www.w3.org/2000/svg"
   xmlns:svg="http://www.w3.org/2000/svg">
  <defs
     id="defs1">
    <clipPath
       clipPathUnits="userSpaceOnUse"
       id="clipPath2">
      <path
         d="M 0,0.16 V 1122.5601 H 793.59998 V 0.16 Z"
         transform="translate(-3.3333333e-6)"
         clip-rule="evenodd"
         id="path2" />
    </clipPath>
    <clipPath
       clipPathUnits="userSpaceOnUse"
       id="clipPath4">
      <path
         d="M 0,0.16 V 1122.5601 H 793.59998 V 0.16 Z"
         transform="translate(-208,-466.88)"
         clip-rule="evenodd"
         id="path4" />
    </clipPath>
    <clipPath
       clipPathUnits="userSpaceOnUse"
       id="clipPath6">
      <path
         d="M 0,0.16 V 1122.5601 H 793.59998 V 0.16 Z"
         transform="translate(-3.3333333e-6)"
         clip-rule="evenodd"
         id="path6" />
    </clipPath>
    <clipPath
       clipPathUnits="userSpaceOnUse"
       id="clipPath8">
      <path
         d="M 0,0.16 V 1122.5601 H 793.59998 V 0.16 Z"
         transform="translate(-324.64001,-496.48001)"
         clip-rule="evenodd"
         id="path8" />
    </clipPath>
    <clipPath
       clipPathUnits="userSpaceOnUse"
       id="clipPath10">
      <path
         d="M 0,0.16 V 1122.5601 H 793.59998 V 0.16 Z"
         transform="translate(-253.92,-524.96002)"
         clip-rule="evenodd"
         id="path10" />
    </clipPath>
  </defs>
  <sodipodi:namedview
     id="namedview1"
     pagecolor="#505050"
     bordercolor="#eeeeee"
     borderopacity="1"
     inkscape:showpageshadow="0"
     inkscape:pageopacity="0"
     inkscape:pagecheckerboard="0"
     inkscape:deskcolor="#505050">
    <inkscape:page
       x="0"
       y="0"
       inkscape:label="1"
       id="page1"
       width="242.8"
       height="185.53333"
       margin="0"
       bleed="0" />
  </sodipodi:namedview>
  <g
     id="g1"
     inkscape:groupmode="layer"
     inkscape:label="1">
    <path
       id="path1"
       d="M 208,466.88 H 396.79999"
       style="fill:none;stroke:#000000;stroke-width:26.4;stroke-linecap:round;stroke-linejoin:round;stroke-miterlimit:10;stroke-dasharray:none;stroke-opacity:1"
       transform="translate(-180.09333,-391.09339)"
       clip-path="url(#clipPath2)" />
    <path
       id="path3"
       d="M 0,0 0.16,3.52 0.64,7.04 1.44,10.4 2.56,13.6 4,16.799999 5.76,19.84 7.68,22.719999 9.92,25.440001 12.32,28 l 2.72,2.08 2.88,2.08 3.039999,1.599998 3.200001,1.440003 3.36,1.119999 3.359999,0.799999 3.520003,0.479999 3.359996,0.16 3.520001,-0.16 3.52,-0.479999 L 48.16,36.32 51.52,35.200001 54.720001,33.759998 57.759998,32.16 60.639999,30.08 63.200001,28 65.760002,25.440001 68,22.719999 69.919998,19.84 71.68,16.799999 72.959999,13.6 74.080002,10.4 74.879997,7.04 75.360001,3.52 75.519997,0"
       style="fill:none;stroke:#000000;stroke-width:26.4;stroke-linecap:round;stroke-linejoin:round;stroke-miterlimit:10;stroke-dasharray:none;stroke-opacity:1"
       transform="translate(27.906667,75.786613)"
       clip-path="url(#clipPath4)" />
    <path
       id="path5"
       d="M 283.51999,410.23999 V 466.88"
       style="fill:none;stroke:#000000;stroke-width:26.4;stroke-linecap:round;stroke-linejoin:round;stroke-miterlimit:10;stroke-dasharray:none;stroke-opacity:1"
       transform="translate(-180.09333,-391.09339)"
       clip-path="url(#clipPath6)" />
    <path
       id="path7"
       d="m 0,0 1.6,3.84 1.76,3.52 2.08,3.36 2.08,3.2 2.4,2.879999 2.4,2.560002 L 14.88,21.6 17.6,23.52 20.32,25.120001 23.200001,26.4 26.24,27.360001 29.120001,28 32.16,28.16 h 3.040001 L 38.080002,27.68 40.959999,26.719999 44,25.6 46.720001,24.16 49.439999,22.24 52.16,20.16 l 2.400001,-2.56 2.399998,-2.72 2.240002,-3.04 2.079998,-3.2 1.760002,-3.52 1.760002,-3.68 1.439995,-4 1.279999,-4 0.960006,-4.16 0.799996,-4.32 0.639999,-4.48 0.32,-4.48 0.160004,-4.48"
       style="fill:none;stroke:#000000;stroke-width:26.4;stroke-linecap:round;stroke-linejoin:round;stroke-miterlimit:10;stroke-dasharray:none;stroke-opacity:1"
       transform="translate(144.54668,105.38662)"
       clip-path="url(#clipPath8)" />
    <path
       id="path9"
       d="m 0,0 1.6,3.84 1.92,3.52 1.92,3.36 2.24,3.2 2.24,2.719999 2.4,2.560002 L 15.04,21.6 17.6,23.52 20.48,25.120001 23.360001,26.4 26.24,27.360001 29.120001,28 32.16,28.16 35.200001,28 38.080002,27.52 41.119999,26.719999 44,25.6 46.720001,24 49.439999,22.24 52.16,20.16 l 2.400001,-2.56 2.399998,-2.72 2.240002,-3.04 2.079998,-3.2 1.920002,-3.52 1.600002,-3.84 1.439995,-3.84 1.279999,-4 1.120002,-4.32 0.800003,-4.32 0.479996,-4.32 0.480004,-4.48 v -4.48"
       style="fill:none;stroke:#000000;stroke-width:26.4;stroke-linecap:round;stroke-linejoin:round;stroke-miterlimit:10;stroke-dasharray:none;stroke-opacity:1"
       transform="translate(73.826665,133.86663)"
       clip-path="url(#clipPath10)" />
  </g>
</svg>
