<?xml version="1.0" encoding="UTF-8" standalone="no"?>
<!-- Created with Inkscape (http://www.inkscape.org/) -->

<svg
   version="1.1"
   id="svg1"
   width="356.18668"
   height="246.93333"
   viewBox="0 0 356.18668 246.93333"
   sodipodi:docname="Capricorn10.pdf"
   xmlns:inkscape="http://www.inkscape.org/namespaces/inkscape"
   xmlns:sodipodi="http://sodipodi.sourceforge.net/DTD/sodipodi-0.dtd"
   xmlns="http://www.w3.org/2000/svg"
   xmlns:svg="http://www.w3.org/2000/svg">
  <defs
     id="defs1">
    <clipPath
       clipPathUnits="userSpaceOnUse"
       id="clipPath2">
      <path
         d="M 0,0.16 V 1122.5601 H 793.59998 V 0.16 Z"
         clip-rule="evenodd"
         id="path2" />
    </clipPath>
    <clipPath
       clipPathUnits="userSpaceOnUse"
       id="clipPath4">
      <path
         d="M 0,0.16 V 1122.5601 H 793.59998 V 0.16 Z"
         transform="translate(-434.56,-557.44)"
         clip-rule="evenodd"
         id="path4" />
    </clipPath>
    <clipPath
       clipPathUnits="userSpaceOnUse"
       id="clipPath6">
      <path
         d="M 0,0.16 V 1122.5601 H 793.59998 V 0.16 Z"
         transform="translate(-434.56,-557.44)"
         clip-rule="evenodd"
         id="path6" />
    </clipPath>
    <clipPath
       clipPathUnits="userSpaceOnUse"
       id="clipPath8">
      <path
         d="M 0,0.16 V 1122.5601 H 793.59998 V 0.16 Z"
         transform="translate(-528.96002,-651.84003)"
         clip-rule="evenodd"
         id="path8" />
    </clipPath>
    <clipPath
       clipPathUnits="userSpaceOnUse"
       id="clipPath10">
      <path
         d="M 0,0.16 V 1122.5601 H 793.59998 V 0.16 Z"
         transform="translate(-491.20001,-614.08002)"
         clip-rule="evenodd"
         id="path10" />
    </clipPath>
  </defs>
  <sodipodi:namedview
     id="namedview1"
     pagecolor="#505050"
     bordercolor="#eeeeee"
     borderopacity="1"
     inkscape:showpageshadow="0"
     inkscape:pageopacity="0"
     inkscape:pagecheckerboard="0"
     inkscape:deskcolor="#505050">
    <inkscape:page
       x="0"
       y="0"
       inkscape:label="1"
       id="page1"
       width="356.18668"
       height="246.93333"
       margin="0"
       bleed="0" />
  </sodipodi:namedview>
  <g
     id="g1"
     inkscape:groupmode="layer"
     inkscape:label="1">
    <path
       id="path1"
       d="M 245.75999,557.44 340.16,463.04001 434.56,557.44"
       style="fill:none;stroke:#000000;stroke-width:26.4;stroke-linecap:round;stroke-linejoin:round;stroke-miterlimit:10;stroke-dasharray:none;stroke-opacity:1"
       transform="translate(0,-5.8666667e-5)"
       clip-path="url(#clipPath2)" />
    <path
       id="path3"
       d="M 0,0 2.24,1.92 4.8,3.68 7.52,5.12 10.4,6.4 13.6,7.2 16.959999,7.68 20.32,8 h 3.52 l 3.68,-0.48 3.680001,-0.64 3.84,-0.96 3.84,-1.28 3.68,-1.6 3.840001,-1.92 3.68,-2.08 3.519996,-2.4 3.520001,-2.56 3.360001,-2.88 3.2,-3.04 3.040001,-3.2 2.879997,-3.36 2.560006,-3.52 2.399994,-3.520001 2.080001,-3.68 1.919999,-3.839998 1.600006,-3.84 1.279998,-3.680001 0.96,-3.84 0.639999,-3.68 0.479996,-3.68 v -3.520001 l -0.159996,-3.52 -0.64,-3.199997 -0.800003,-3.200005 L 80.639999,-68 l -1.440002,-2.720001 -1.759995,-2.559998 -1.920005,-2.239998 -2.239998,-2.080001 -2.559998,-1.760003 L 68,-80.800003 l -3.040001,-1.119995 -3.040001,-0.959999 -3.359997,-0.480004 -3.36,-0.319999 -3.680001,0.160003 -3.52,0.32 -3.84,0.639999 -3.68,1.119996 -3.840001,1.279998 -3.84,1.600006 -3.679998,1.759995 -3.68,2.240005 L 21.76,-72.32 l -3.36,2.720002 -3.36,2.720001 -3.2,3.039997 -3.04,3.200001 -2.88,3.36 -2.56,3.520001 -2.4,3.679996 -2.24,3.68 -1.76,3.680001 -1.6,3.84 -1.28,3.84 -0.96,3.68 L -7.68,-27.68 -8,-24 v 3.68 l 0.16,3.360001 0.64,3.359999 0.8,3.04 1.12,3.04 1.44,2.72 1.76,2.4 L 0,0"
       style="fill:none;stroke:#000000;stroke-width:26.4;stroke-linecap:round;stroke-linejoin:round;stroke-miterlimit:10;stroke-dasharray:none;stroke-opacity:1"
       transform="translate(434.56,557.43994)"
       clip-path="url(#clipPath4)" />
    <path
       id="path5"
       d="m 0,0 1.92,3.36 2.24,3.2 2.4,3.04 2.72,2.72 3.04,2.56 3.2,2.079999 3.520001,1.92 3.519998,1.600001 3.680001,1.28 3.84,0.799999 3.839998,0.480002 3.84,0.32 4,-0.32 3.84,-0.480002 3.680001,-0.959999 3.84,-1.12 3.52,-1.600001"
       style="fill:none;stroke:#000000;stroke-width:26.4;stroke-linecap:round;stroke-linejoin:round;stroke-miterlimit:10;stroke-dasharray:none;stroke-opacity:1"
       transform="translate(434.56,557.43994)"
       clip-path="url(#clipPath6)" />
    <path
       id="path7"
       d="m 0,0 3.04,-2.24 2.72,-2.4 2.56,-2.72 2.4,-2.88 2.08,-3.2 1.76,-3.199999 1.6,-3.520001 1.120001,-3.52 0.959999,-3.520001 0.479999,-3.679998 0.320002,-3.840002 -0.160002,-3.680001 -0.479999,-3.68 -0.64,-3.679996 -1.120001,-3.520001 -1.279999,-3.52 L 13.6,-56.16 11.68,-59.360001 9.44,-62.400002 7.04,-65.120003 4.32,-67.68 1.28,-70.080002 -1.76,-72 l -3.36,-1.760002 -3.36,-1.599999 -3.52,-1.120002 -3.68,-0.799996 -3.680001,-0.480003 -3.84,-0.32 -3.679998,0.160004 -3.68,0.479996 -3.680003,0.800003 -3.519996,1.120002"
       style="fill:none;stroke:#000000;stroke-width:26.4;stroke-linecap:round;stroke-linejoin:round;stroke-miterlimit:10;stroke-dasharray:none;stroke-opacity:1"
       transform="translate(528.96002,651.83997)"
       clip-path="url(#clipPath8)" />
    <path
       id="path9"
       d="m 0,0 -1.92,2.08 -1.6,2.24 -1.44,2.4 -1.12,2.56 -0.8,2.56 -0.64,2.88 -0.32,2.720001 V 20.16 l 0.32,2.880001 0.64,2.719999 0.8,2.56 1.12,2.559999 1.44,2.56 L -1.92,35.68 0,37.759998 2.08,39.52 4.32,41.279999 6.72,42.560001 9.28,43.68 12,44.639999 l 2.72,0.48 2.720001,0.32 H 20.32 l 2.720001,-0.32 2.719999,-0.48 L 28.48,43.68 31.040001,42.560001 33.439999,41.279999 35.68,39.52 37.759998,37.759998"
       style="fill:none;stroke:#000000;stroke-width:26.4;stroke-linecap:round;stroke-linejoin:round;stroke-miterlimit:10;stroke-dasharray:none;stroke-opacity:1"
       transform="translate(491.20001,614.07996)"
       clip-path="url(#clipPath10)" />
  </g>
</svg>
