<?xml version="1.0" encoding="UTF-8" standalone="no"?>
<!-- Created with Inkscape (http://www.inkscape.org/) -->

<svg
   version="1.1"
   id="svg1"
   width="260.13333"
   height="284.30667"
   viewBox="0 0 260.13333 284.30667"
   sodipodi:docname="Capricorn16.pdf"
   xmlns:inkscape="http://www.inkscape.org/namespaces/inkscape"
   xmlns:sodipodi="http://sodipodi.sourceforge.net/DTD/sodipodi-0.dtd"
   xmlns="http://www.w3.org/2000/svg"
   xmlns:svg="http://www.w3.org/2000/svg">
  <defs
     id="defs1">
    <clipPath
       clipPathUnits="userSpaceOnUse"
       id="clipPath2">
      <path
         d="M 0,0.16 V 1122.5601 H 793.59998 V 0.16 Z"
         transform="translate(-3.3333333e-6)"
         clip-rule="evenodd"
         id="path2" />
    </clipPath>
    <clipPath
       clipPathUnits="userSpaceOnUse"
       id="clipPath4">
      <path
         d="M 0,0.16 V 1122.5601 H 793.59998 V 0.16 Z"
         transform="translate(-378.39999,-519.68)"
         clip-rule="evenodd"
         id="path4" />
    </clipPath>
  </defs>
  <sodipodi:namedview
     id="namedview1"
     pagecolor="#505050"
     bordercolor="#eeeeee"
     borderopacity="1"
     inkscape:showpageshadow="0"
     inkscape:pageopacity="0"
     inkscape:pagecheckerboard="0"
     inkscape:deskcolor="#505050">
    <inkscape:page
       x="0"
       y="0"
       inkscape:label="1"
       id="page1"
       width="260.13333"
       height="284.30667"
       margin="0"
       bleed="0" />
  </sodipodi:namedview>
  <g
     id="g1"
     inkscape:groupmode="layer"
     inkscape:label="1">
    <path
       id="path1"
       d="m 302.56,523.03998 v -75.51999 h 75.51999 v 75.51999"
       style="fill:none;stroke:#000000;stroke-width:26.4;stroke-linecap:round;stroke-linejoin:round;stroke-miterlimit:10;stroke-dasharray:none;stroke-opacity:1"
       transform="translate(-270.81333,-413.78673)"
       clip-path="url(#clipPath2)" />
    <path
       id="path3"
       d="M 0,0 0.16,2.72 0.32,6.56 0.8,10.4 1.44,13.92 2.4,17.120001 3.52,20.32 4.96,23.200001 6.72,26.08 l 1.92,2.719999 2.4,2.880001 1.28,1.439999 0.96,1.120003 2.56,2.719997 3.84,3.84 3.680001,3.360001 3.68,2.880001 2.08,1.439999 0.799999,0.479999 2.4,1.600002 L 36,52.32 l 4,1.439998 4.16,0.960003 3.36,0.64 h 1.279999 L 52.48,55.84 57.439999,56 H 63.68 l 2.879998,-0.16 4.319999,-0.479999 1.280007,-0.32 0.959999,-0.32 2.559997,-0.800003 2.559998,-1.119999 2.560005,-1.439998 2.559998,-2.080002 2.720001,-2.559998 L 88.480003,44.32 89.440002,43.360001 92.160004,40.48 l 3.199997,-3.360001 4.159996,-4.48 L 102.08,29.6 l 2.4,-2.880001 1.6,-2.239999 2.56,-3.840001 V 20.48 l 0.64,-1.119999 1.44,-2.880001 0.96,-2.88 0.64,-2.88 0.32,-3.2 V 4.16 l -0.48,-3.68 -0.32,-2.08 -0.32,-1.12 -0.8,-3.68 -1.6,-4.8 -1.92,-4.8 -2.24,-4 -2.56,-3.360001 -1.44,-1.76 L 100,-25.92 l -2.720001,-2.24 -3.199997,-1.92 -3.520004,-1.76 -3.680001,-1.439999 -4.159996,-0.960003 -4.319999,-0.639999 -1.919999,-0.16 -1.280006,-0.16 -3.68,0.16 -4,0.48 L 64,-33.759998 60.48,-32.48 l -3.200001,1.760001 -3.039997,2.08 L 53.279999,-27.84 50.720001,-25.440001 48.32,-22.559999 46.240002,-19.200001 44.48,-15.68 l -1.439999,3.84 -1.120003,4 v 0.48 l -0.32,1.44 -0.319999,4.16 v 4.32 l 0.479999,4.16 0.960003,4 L 44.16,14.24 45.919998,17.6 47.52,20 l 0.96,1.120001 2.560001,2.559999 2.879997,2.4 3.520001,2.4 4.319999,2.560001 5.280003,2.719997 6.559997,3.200001 0.160004,0.16 1.439995,0.639999 4,1.920002 5.120003,2.560002 4.800003,3.039997 4.319999,3.200001 3.360001,2.880001 0.959999,0.959999 2.559998,3.2 2.72,3.680001 2.4,4.16 2.24,4.319999 1.76,4.800003 1.28,4.799996 0.32,1.599998 L 112,84 l 0.48,5.440002 0.16,5.599999 -0.48,5.439999 -0.8,4.8 -1.12,4.32 -0.16,0.48 -0.48,1.44 -1.44,3.36 -1.92,3.36 -2.24,3.36 -2.88,3.52 -3.520002,3.68 -3.199996,3.36 -0.96,0.80001 -2.880004,2.87999 -3.680001,3.36 -2.559997,2.24 -4.480004,3.2 -4.479995,2.56 -3.520005,1.76001 -1.599998,0.47999 -4.32,1.59999 -4.959999,1.28002 -5.759998,1.28 -6.560002,0.95999 -6.720001,0.64 -5.119999,0.16 H 35.200001 L 30.559999,155.03999 26.4,154.56 22.559999,153.92 19.040001,152.8 15.84,151.52 l -2.88,-1.6 -1.12,-0.80001 -0.8,-0.63999 -2.4,-2.24 -1.92,-2.4 -1.6,-2.56 L 3.68,138.39999 2.88,135.36 2.4,133.11999 2.24,132.32001 V 129.92 l 0.32,-2.4 0.8,-2.24 1.12,-2.24 1.6,-1.92 1.44,-1.44 0.64,-0.48 2.4,-1.44 2.56,-1.12 2.56,-0.64 h 2.72 l 2.880001,0.16 3.039999,0.48 3.2,0.96 3.359999,1.28 3.200003,1.28"
       style="fill:none;stroke:#000000;stroke-width:26.4;stroke-linecap:round;stroke-linejoin:round;stroke-miterlimit:10;stroke-dasharray:none;stroke-opacity:1"
       transform="translate(107.58666,105.89327)"
       clip-path="url(#clipPath4)" />
  </g>
</svg>
