<?xml version="1.0" encoding="UTF-8" standalone="no"?>
<!-- Created with Inkscape (http://www.inkscape.org/) -->

<svg
   version="1.1"
   id="svg1"
   width="278.82666"
   height="274.97333"
   viewBox="0 0 278.82666 274.97333"
   sodipodi:docname="CaudaLeonis2.pdf"
   xmlns:inkscape="http://www.inkscape.org/namespaces/inkscape"
   xmlns:sodipodi="http://sodipodi.sourceforge.net/DTD/sodipodi-0.dtd"
   xmlns="http://www.w3.org/2000/svg"
   xmlns:svg="http://www.w3.org/2000/svg">
  <defs
     id="defs1">
    <clipPath
       clipPathUnits="userSpaceOnUse"
       id="clipPath2">
      <path
         d="M 0,0.16 V 1122.5601 H 793.59998 V 0.16 Z"
         transform="translate(-472.32,-561.28003)"
         clip-rule="evenodd"
         id="path2" />
    </clipPath>
    <clipPath
       clipPathUnits="userSpaceOnUse"
       id="clipPath4">
      <path
         d="M 0,0.16 V 1122.5601 H 793.59998 V 0.16 Z"
         transform="translate(-283.51999,-410.23999)"
         clip-rule="evenodd"
         id="path4" />
    </clipPath>
  </defs>
  <sodipodi:namedview
     id="namedview1"
     pagecolor="#505050"
     bordercolor="#eeeeee"
     borderopacity="1"
     inkscape:showpageshadow="0"
     inkscape:pageopacity="0"
     inkscape:pagecheckerboard="0"
     inkscape:deskcolor="#505050">
    <inkscape:page
       x="0"
       y="0"
       inkscape:label="1"
       id="page1"
       width="278.82666"
       height="274.97333"
       margin="0"
       bleed="0" />
  </sodipodi:namedview>
  <g
     id="g1"
     inkscape:groupmode="layer"
     inkscape:label="1">
    <path
       id="path1"
       d="m 0,0 c 0,-41.700001 -33.810001,-75.519997 -75.519997,-75.519997 -41.710003,0 -75.519993,33.819996 -75.519993,75.519997 0,41.700001 33.80999,75.519997 75.519993,75.519997 C -33.810001,75.519997 0,41.700001 0,0 Z"
       style="fill:none;stroke:#000000;stroke-width:26.4;stroke-linecap:round;stroke-linejoin:round;stroke-miterlimit:10;stroke-dasharray:none;stroke-opacity:1"
       transform="translate(212.18667,179.5333)"
       clip-path="url(#clipPath2)" />
    <path
       id="path3"
       d="m 0,0 3.04,6.72 3.52,6.56 3.84,6.4 4.16,6.08 4.640001,5.76 4.959999,5.599999 5.120001,5.120003 5.6,4.959999 5.759998,4.479999 6.240002,4.32 6.239998,3.84 6.560001,3.360001 6.720002,3.039997 7.04,2.560005 7.040001,2.239998 7.199997,1.760002 7.199997,1.279999 7.360003,0.959999 7.36,0.479996 h 7.36 l 7.52,-0.479996 7.36,-0.959999 7.19999,-1.279999 7.20001,-1.760002 7.04,-2.239998 6.88,-2.560005 6.87999,-3.039997 L 173.44,59.84 l 6.4,-3.84 6.08,-4.32 5.92,-4.479999 5.44,-4.959999 5.28,-5.120003 4.96,-5.599999 4.48,-5.76 4.32001,-6.08 3.83999,-6.4 3.36,-6.56 3.04,-6.72"
       style="fill:none;stroke:#000000;stroke-width:26.4;stroke-linecap:round;stroke-linejoin:round;stroke-miterlimit:10;stroke-dasharray:none;stroke-opacity:1"
       transform="translate(23.386656,28.493265)"
       clip-path="url(#clipPath4)" />
  </g>
</svg>
