<?xml version="1.0" encoding="UTF-8" standalone="no"?>
<!-- Created with Inkscape (http://www.inkscape.org/) -->

<svg
   version="1.1"
   id="svg1"
   width="480.25333"
   height="278.97333"
   viewBox="0 0 480.25333 278.97333"
   sodipodi:docname="CaudaLeonis4.pdf"
   xmlns:inkscape="http://www.inkscape.org/namespaces/inkscape"
   xmlns:sodipodi="http://sodipodi.sourceforge.net/DTD/sodipodi-0.dtd"
   xmlns="http://www.w3.org/2000/svg"
   xmlns:svg="http://www.w3.org/2000/svg">
  <defs
     id="defs1">
    <clipPath
       clipPathUnits="userSpaceOnUse"
       id="clipPath2">
      <path
         d="M 0,0.16 V 1122.5601 H 793.59998 V 0.16 Z"
         transform="translate(-604.47998,-561.28003)"
         clip-rule="evenodd"
         id="path2" />
    </clipPath>
    <clipPath
       clipPathUnits="userSpaceOnUse"
       id="clipPath4">
      <path
         d="M 0,0.16 V 1122.5601 H 793.59998 V 0.16 Z"
         transform="translate(-338.23999,-489.60001)"
         clip-rule="evenodd"
         id="path4" />
    </clipPath>
  </defs>
  <sodipodi:namedview
     id="namedview1"
     pagecolor="#505050"
     bordercolor="#eeeeee"
     borderopacity="1"
     inkscape:showpageshadow="0"
     inkscape:pageopacity="0"
     inkscape:pagecheckerboard="0"
     inkscape:deskcolor="#505050">
    <inkscape:page
       x="0"
       y="0"
       inkscape:label="1"
       id="page1"
       width="480.25333"
       height="278.97333"
       margin="0"
       bleed="0" />
  </sodipodi:namedview>
  <g
     id="g1"
     inkscape:groupmode="layer"
     inkscape:label="1">
    <path
       id="path1"
       d="m 0,0 c 0,-62.560001 -50.709999,-113.28 -113.28,-113.28 -62.57001,0 -113.28,50.719999 -113.28,113.28 0,62.560001 50.70999,113.28 113.28,113.28 C -50.709999,113.28 0,62.560001 0,0 Z"
       style="fill:none;stroke:#000000;stroke-width:26.4;stroke-linecap:round;stroke-linejoin:round;stroke-miterlimit:10;stroke-dasharray:none;stroke-opacity:1"
       transform="translate(452.39998,138.14664)"
       clip-path="url(#clipPath2)" />
    <path
       id="path3"
       d="m 0,0 -6.56,-1.28 -6.72,-0.96 -6.72,-0.8 -6.719999,-0.48 -6.879999,-0.32 -6.880002,0.16 -6.880001,0.32 -6.720001,0.48 -6.719997,0.96 -6.719998,1.12 -6.400001,1.44 -6.400002,1.6 -6.239998,1.92 -6.080001,2.24 -5.760003,2.4 -5.599998,2.56 -5.44,2.88 -4.96,3.040001 -4.8,3.359998 -4.48,3.520001 -4.16,3.52 -3.83999,3.84 -3.52001,4 -3.04,4 -2.72001,4.16 -2.39999,4.32 -1.92,4.32 -1.6,4.479999 -1.12,4.48 -0.8,4.639999 -0.31999,4.480004 0.15998,4.639999 0.48001,4.479996 0.96,4.640007 1.28,4.479995 1.76,4.32 2.08001,4.32 2.55999,4.320001 2.87999,4.16 3.36,4 3.68001,3.84 3.84,3.68 4.32,3.68 4.64,3.36 4.96,3.2 5.12,2.87999 5.6,2.88001 5.600004,2.39999 5.919998,2.40001 6.080002,2.08 6.399994,1.76 6.400001,1.6 6.559998,1.28 6.720005,0.95999 6.719997,0.80001 6.880001,0.47999 6.880001,0.16001 h 6.72 l 6.879999,-0.48 6.880001,-0.64 6.719999,-0.8 6.56,-1.12 6.56,-1.44 6.24,-1.75999 6.24,-1.92002 6.08,-2.23999 5.760001,-2.40001 5.599998,-2.72 L 38.240002,128.8 43.360001,125.76 48,122.4"
       style="fill:none;stroke:#000000;stroke-width:26.4;stroke-linecap:round;stroke-linejoin:round;stroke-miterlimit:10;stroke-dasharray:none;stroke-opacity:1"
       transform="translate(186.15999,66.466614)"
       clip-path="url(#clipPath4)" />
  </g>
</svg>
