<?xml version="1.0" encoding="UTF-8" standalone="no"?>
<!-- Created with Inkscape (http://www.inkscape.org/) -->

<svg
   version="1.1"
   id="svg1"
   width="406.88"
   height="311.01334"
   viewBox="0 0 406.88 311.01334"
   sodipodi:docname="CaudaUrsae.pdf"
   xmlns:inkscape="http://www.inkscape.org/namespaces/inkscape"
   xmlns:sodipodi="http://sodipodi.sourceforge.net/DTD/sodipodi-0.dtd"
   xmlns="http://www.w3.org/2000/svg"
   xmlns:svg="http://www.w3.org/2000/svg">
  <defs
     id="defs1">
    <clipPath
       clipPathUnits="userSpaceOnUse"
       id="clipPath2">
      <path
         d="M 0,0.16 V 1122.5601 H 793.59998 V 0.16 Z"
         transform="translate(-311.20001,-506.07999)"
         clip-rule="evenodd"
         id="path2" />
    </clipPath>
    <clipPath
       clipPathUnits="userSpaceOnUse"
       id="clipPath4">
      <path
         d="M 0,0.16 V 1122.5601 H 793.59998 V 0.16 Z"
         transform="translate(-312.95999,-618.71997)"
         clip-rule="evenodd"
         id="path4" />
    </clipPath>
    <clipPath
       clipPathUnits="userSpaceOnUse"
       id="clipPath6">
      <path
         d="M 0,0.16 V 1122.5601 H 793.59998 V 0.16 Z"
         transform="translate(-389.92002,-467.67999)"
         clip-rule="evenodd"
         id="path6" />
    </clipPath>
    <clipPath
       clipPathUnits="userSpaceOnUse"
       id="clipPath8">
      <path
         d="M 0,0.16 V 1122.5601 H 793.59998 V 0.16 Z"
         transform="translate(-389.92002,-654.40002)"
         clip-rule="evenodd"
         id="path8" />
    </clipPath>
    <clipPath
       clipPathUnits="userSpaceOnUse"
       id="clipPath10">
      <path
         d="M 0,0.16 V 1122.5601 H 793.59998 V 0.16 Z"
         transform="translate(-491.20002,-448)"
         clip-rule="evenodd"
         id="path10" />
    </clipPath>
    <clipPath
       clipPathUnits="userSpaceOnUse"
       id="clipPath12">
      <path
         d="M 0,0.16 V 1122.5601 H 793.59998 V 0.16 Z"
         transform="translate(-492.79999,-665.28003)"
         clip-rule="evenodd"
         id="path12" />
    </clipPath>
    <clipPath
       clipPathUnits="userSpaceOnUse"
       id="clipPath14">
      <path
         d="M 0,0.16 V 1122.5601 H 793.59998 V 0.16 Z"
         transform="translate(3.3333334e-6)"
         clip-rule="evenodd"
         id="path14" />
    </clipPath>
    <clipPath
       clipPathUnits="userSpaceOnUse"
       id="clipPath16">
      <path
         d="M 0,0.16 V 1122.5601 H 793.59998 V 0.16 Z"
         transform="translate(-617.12,-519.52002)"
         clip-rule="evenodd"
         id="path16" />
    </clipPath>
    <clipPath
       clipPathUnits="userSpaceOnUse"
       id="clipPath18">
      <path
         d="M 0,0.16 V 1122.5601 H 793.59998 V 0.16 Z"
         transform="translate(3.3333334e-6)"
         clip-rule="evenodd"
         id="path18" />
    </clipPath>
    <clipPath
       clipPathUnits="userSpaceOnUse"
       id="clipPath20">
      <path
         d="M 0,0.16 V 1122.5601 H 793.59998 V 0.16 Z"
         transform="translate(3.3333334e-6)"
         clip-rule="evenodd"
         id="path20" />
    </clipPath>
    <clipPath
       clipPathUnits="userSpaceOnUse"
       id="clipPath22">
      <path
         d="M 0,0.16 V 1122.5601 H 793.59998 V 0.16 Z"
         transform="translate(3.3333334e-6)"
         clip-rule="evenodd"
         id="path22" />
    </clipPath>
    <clipPath
       clipPathUnits="userSpaceOnUse"
       id="clipPath24">
      <path
         d="M 0,0.16 V 1122.5601 H 793.59998 V 0.16 Z"
         transform="translate(3.3333334e-6)"
         clip-rule="evenodd"
         id="path24" />
    </clipPath>
    <clipPath
       clipPathUnits="userSpaceOnUse"
       id="clipPath26">
      <path
         d="M 0,0.16 V 1122.5601 H 793.59998 V 0.16 Z"
         transform="translate(3.3333334e-6)"
         clip-rule="evenodd"
         id="path26" />
    </clipPath>
    <clipPath
       clipPathUnits="userSpaceOnUse"
       id="clipPath28">
      <path
         d="M 0,0.16 V 1122.5601 H 793.59998 V 0.16 Z"
         transform="translate(3.3333334e-6)"
         clip-rule="evenodd"
         id="path28" />
    </clipPath>
    <clipPath
       clipPathUnits="userSpaceOnUse"
       id="clipPath30">
      <path
         d="M 0,0.16 V 1122.5601 H 793.59998 V 0.16 Z"
         transform="translate(-453.44001,-448)"
         clip-rule="evenodd"
         id="path30" />
    </clipPath>
    <clipPath
       clipPathUnits="userSpaceOnUse"
       id="clipPath32">
      <path
         d="M 0,0.16 V 1122.5601 H 793.59998 V 0.16 Z"
         transform="translate(-415.68,-674.56)"
         clip-rule="evenodd"
         id="path32" />
    </clipPath>
  </defs>
  <sodipodi:namedview
     id="namedview1"
     pagecolor="#505050"
     bordercolor="#eeeeee"
     borderopacity="1"
     inkscape:showpageshadow="0"
     inkscape:pageopacity="0"
     inkscape:pagecheckerboard="0"
     inkscape:deskcolor="#505050">
    <inkscape:page
       x="0"
       y="0"
       inkscape:label="1"
       id="page1"
       width="406.88"
       height="311.01334"
       margin="0"
       bleed="0" />
  </sodipodi:namedview>
  <g
     id="g1"
     inkscape:groupmode="layer"
     inkscape:label="1">
    <path
       id="path1"
       d="m 0,0 c 0,-10.42 -8.45,-18.879999 -18.879999,-18.879999 -10.43,0 -18.879999,8.459999 -18.879999,18.879999 0,10.42 8.449999,18.879999 18.879999,18.879999 C -8.45,18.879999 0,10.42 0,0 Z"
       style="fill:none;stroke:#000000;stroke-width:26.4;stroke-linecap:round;stroke-linejoin:round;stroke-miterlimit:10;stroke-dasharray:none;stroke-opacity:1"
       transform="translate(65.733345,100.3066)"
       clip-path="url(#clipPath2)" />
    <path
       id="path3"
       d="m 0,0 c 0,-10.42 -8.45,-18.879999 -18.879999,-18.879999 -10.43,0 -18.879999,8.459999 -18.879999,18.879999 0,10.42 8.449999,18.879999 18.879999,18.879999 C -8.45,18.879999 0,10.42 0,0 Z"
       style="fill:none;stroke:#000000;stroke-width:26.4;stroke-linecap:round;stroke-linejoin:round;stroke-miterlimit:10;stroke-dasharray:none;stroke-opacity:1"
       transform="translate(67.493324,212.94658)"
       clip-path="url(#clipPath4)" />
    <path
       id="path5"
       d="m 0,0 c 0,-10.42 -8.45,-18.879999 -18.879999,-18.879999 -10.43,0 -18.879999,8.459999 -18.879999,18.879999 0,10.42 8.449999,18.879999 18.879999,18.879999 C -8.45,18.879999 0,10.42 0,0 Z"
       style="fill:none;stroke:#000000;stroke-width:26.4;stroke-linecap:round;stroke-linejoin:round;stroke-miterlimit:10;stroke-dasharray:none;stroke-opacity:1"
       transform="translate(144.45335,61.906601)"
       clip-path="url(#clipPath6)" />
    <path
       id="path7"
       d="m 0,0 c 0,-10.42 -8.45,-18.879999 -18.879999,-18.879999 -10.43,0 -18.879999,8.459999 -18.879999,18.879999 0,10.42 8.449999,18.879999 18.879999,18.879999 C -8.45,18.879999 0,10.42 0,0 Z"
       style="fill:none;stroke:#000000;stroke-width:26.4;stroke-linecap:round;stroke-linejoin:round;stroke-miterlimit:10;stroke-dasharray:none;stroke-opacity:1"
       transform="translate(144.45335,248.62663)"
       clip-path="url(#clipPath8)" />
    <path
       id="path9"
       d="m 0,0 c 0,-10.42 -8.45,-18.879999 -18.879999,-18.879999 -10.43,0 -18.879999,8.459999 -18.879999,18.879999 0,10.42 8.449999,18.879999 18.879999,18.879999 C -8.45,18.879999 0,10.42 0,0 Z"
       style="fill:none;stroke:#000000;stroke-width:26.4;stroke-linecap:round;stroke-linejoin:round;stroke-miterlimit:10;stroke-dasharray:none;stroke-opacity:1"
       transform="translate(245.73335,42.226608)"
       clip-path="url(#clipPath10)" />
    <path
       id="path11"
       d="m 0,0 c 0,-10.42 -8.45,-18.879999 -18.879999,-18.879999 -10.43,0 -18.879999,8.459999 -18.879999,18.879999 0,10.42 8.449999,18.879999 18.879999,18.879999 C -8.45,18.879999 0,10.42 0,0 Z"
       style="fill:none;stroke:#000000;stroke-width:26.4;stroke-linecap:round;stroke-linejoin:round;stroke-miterlimit:10;stroke-dasharray:none;stroke-opacity:1"
       transform="translate(247.33332,259.50664)"
       clip-path="url(#clipPath12)" />
    <path
       id="path13"
       d="M 321.28,561.28003 H 547.84003"
       style="fill:none;stroke:#000000;stroke-width:26.4;stroke-linecap:round;stroke-linejoin:round;stroke-miterlimit:10;stroke-dasharray:none;stroke-opacity:1"
       transform="translate(-245.46667,-405.77339)"
       clip-path="url(#clipPath14)" />
    <path
       id="path15"
       d="m 0,0 -1.6,-4.48 -1.76,-4.16 -1.92,-3.84 -1.92,-3.68 -2.24,-3.200001 -2.24,-3.039999 -2.24,-2.720001 -2.56,-2.399999 -2.399999,-1.920001 -2.560002,-1.6 L -24.16,-32.32 l -2.719999,-0.799999 -2.560002,-0.479999 -2.719999,-0.16 -2.720001,0.319999 -2.719997,0.64 L -40.32,-31.68 l -2.560001,1.44 -2.559998,1.76 -2.400001,2.24 -2.400002,2.56 -2.399997,2.880001 -2.080002,3.199999 -2.079998,3.36 -1.920002,3.84 -1.919998,4 -1.600003,4.32 L -63.68,2.4 -64.959999,7.2 -66.239998,12 -67.199997,17.120001 -68,22.24 l -0.639999,5.28 -0.32,5.439999 -0.160004,5.280003 -0.159996,5.439998 0.159996,5.439999 0.480004,5.280003 0.479995,5.439998 0.800003,5.119999 0.800003,5.120003 1.119996,4.959999 1.279998,4.799995 1.440003,4.480004 1.600002,4.319999 1.759998,4.160004 1.920002,3.839996 2.079998,3.680001 2.080002,3.2 2.399998,3.04 2.240002,2.56 2.559997,2.24 2.560002,1.92 2.560001,1.6 2.559997,1.12 2.720002,0.8 2.720001,0.48 H -30.24 l 2.72,-0.32 2.560001,-0.8 2.719999,-1.12 2.56,-1.6 2.559999,-1.76 2.400001,-2.24 2.4,-2.72 2.4,-2.88 2.08,-3.2 2.08,-3.519997 1.92,-3.840004 1.76,-4.159996 1.6,-4.32 L 0.96,80.32 2.24,75.519997"
       style="fill:none;stroke:#000000;stroke-width:26.4;stroke-linecap:round;stroke-linejoin:round;stroke-miterlimit:10;stroke-dasharray:none;stroke-opacity:1"
       transform="translate(371.65333,113.74663)"
       clip-path="url(#clipPath16)" />
    <path
       id="path17"
       d="M 302.39999,523.52002 321.28,561.28003"
       style="fill:none;stroke:#000000;stroke-width:26.4;stroke-linecap:round;stroke-linejoin:round;stroke-miterlimit:10;stroke-dasharray:none;stroke-opacity:1"
       transform="translate(-245.46667,-405.77339)"
       clip-path="url(#clipPath18)" />
    <path
       id="path19"
       d="m 321.28,561.28003 -18.88001,37.75995"
       style="fill:none;stroke:#000000;stroke-width:26.4;stroke-linecap:round;stroke-linejoin:round;stroke-miterlimit:10;stroke-dasharray:none;stroke-opacity:1"
       transform="translate(-245.46667,-405.77339)"
       clip-path="url(#clipPath20)" />
    <path
       id="path21"
       d="M 396.79999,561.28003 377.92001,485.76001"
       style="fill:none;stroke:#000000;stroke-width:26.4;stroke-linecap:round;stroke-linejoin:round;stroke-miterlimit:10;stroke-dasharray:none;stroke-opacity:1"
       transform="translate(-245.46667,-405.77339)"
       clip-path="url(#clipPath22)" />
    <path
       id="path23"
       d="m 396.79999,561.28003 -18.87998,75.51996"
       style="fill:none;stroke:#000000;stroke-width:26.4;stroke-linecap:round;stroke-linejoin:round;stroke-miterlimit:10;stroke-dasharray:none;stroke-opacity:1"
       transform="translate(-245.46667,-405.77339)"
       clip-path="url(#clipPath24)" />
    <path
       id="path25"
       d="M 472.32001,561.28003 453.44,448"
       style="fill:none;stroke:#000000;stroke-width:26.4;stroke-linecap:round;stroke-linejoin:round;stroke-miterlimit:10;stroke-dasharray:none;stroke-opacity:1"
       transform="translate(-245.46667,-405.77339)"
       clip-path="url(#clipPath26)" />
    <path
       id="path27"
       d="M 472.32001,561.28003 453.44,674.56"
       style="fill:none;stroke:#000000;stroke-width:26.4;stroke-linecap:round;stroke-linejoin:round;stroke-miterlimit:10;stroke-dasharray:none;stroke-opacity:1"
       transform="translate(-245.46667,-405.77339)"
       clip-path="url(#clipPath28)" />
    <path
       id="path29"
       d="m 0,0 -0.16,-2.24 -0.32,-2.24 -0.64,-2.24 -0.96,-2.08 -1.28,-1.92 -1.28,-1.76 -1.6,-1.6 -1.92,-1.44 -1.92,-1.119999 -2.08,-0.960001 -2.08,-0.64 -2.24,-0.479999 -2.399999,-0.16 -2.240002,0.16 -2.24,0.479999 -2.239999,0.64 -2.08,0.960001 -1.92,1.119999 -1.760001,1.44 -1.599998,1.6 -1.440003,1.76 -1.119998,1.92 -0.96,2.08 -0.639999,2.24 -0.479999,2.24 -0.16,2.24"
       style="fill:none;stroke:#000000;stroke-width:26.4;stroke-linecap:round;stroke-linejoin:round;stroke-miterlimit:10;stroke-dasharray:none;stroke-opacity:1"
       transform="translate(207.97334,42.226608)"
       clip-path="url(#clipPath30)" />
    <path
       id="path31"
       d="m 0,0 0.16,2.24 0.48,2.24 0.64,2.24 0.96,2.08 1.12,1.92 1.44,1.76 1.6,1.6 1.76,1.44 1.92,1.279999 2.08,0.800001 2.24,0.8 2.239999,0.319999 2.24,0.16 2.400002,-0.16 L 23.52,18.4 25.6,17.6 27.68,16.799999 29.6,15.52 31.52,14.08 33.119999,12.48 34.400002,10.72 35.68,8.8 l 0.959999,-2.08 0.64,-2.24 0.319999,-2.24 0.16,-2.24"
       style="fill:none;stroke:#000000;stroke-width:26.4;stroke-linecap:round;stroke-linejoin:round;stroke-miterlimit:10;stroke-dasharray:none;stroke-opacity:1"
       transform="translate(170.21333,268.78661)"
       clip-path="url(#clipPath32)" />
  </g>
</svg>
