<?xml version="1.0" encoding="UTF-8" standalone="no"?>
<!-- Created with Inkscape (http://www.inkscape.org/) -->

<svg
   version="1.1"
   id="svg1"
   width="294.82666"
   height="265.62668"
   viewBox="0 0 294.82666 265.62668"
   sodipodi:docname="ConjunctionJupiterSaturnMars.pdf"
   xmlns:inkscape="http://www.inkscape.org/namespaces/inkscape"
   xmlns:sodipodi="http://sodipodi.sourceforge.net/DTD/sodipodi-0.dtd"
   xmlns="http://www.w3.org/2000/svg"
   xmlns:svg="http://www.w3.org/2000/svg">
  <defs
     id="defs1">
    <clipPath
       clipPathUnits="userSpaceOnUse"
       id="clipPath2">
      <path
         d="M 0,0.16 V 1122.5601 H 793.59998 V 0.16 Z"
         transform="translate(-3.3333333e-6)"
         clip-rule="evenodd"
         id="path2" />
    </clipPath>
    <clipPath
       clipPathUnits="userSpaceOnUse"
       id="clipPath4">
      <path
         d="M 0,0.16 V 1122.5601 H 793.59998 V 0.16 Z"
         transform="translate(-526.40002,-673.91998)"
         clip-rule="evenodd"
         id="path4" />
    </clipPath>
    <clipPath
       clipPathUnits="userSpaceOnUse"
       id="clipPath6">
      <path
         d="M 0,0.16 V 1122.5601 H 793.59998 V 0.16 Z"
         transform="translate(-3.3333333e-6)"
         clip-rule="evenodd"
         id="path6" />
    </clipPath>
    <clipPath
       clipPathUnits="userSpaceOnUse"
       id="clipPath8">
      <path
         d="M 0,0.16 V 1122.5601 H 793.59998 V 0.16 Z"
         transform="translate(-3.3333333e-6)"
         clip-rule="evenodd"
         id="path8" />
    </clipPath>
    <clipPath
       clipPathUnits="userSpaceOnUse"
       id="clipPath10">
      <path
         d="M 0,0.16 V 1122.5601 H 793.59998 V 0.16 Z"
         transform="translate(-3.3333333e-6)"
         clip-rule="evenodd"
         id="path10" />
    </clipPath>
    <clipPath
       clipPathUnits="userSpaceOnUse"
       id="clipPath12">
      <path
         d="M 0,0.16 V 1122.5601 H 793.59998 V 0.16 Z"
         transform="translate(-321.28,-561.28003)"
         clip-rule="evenodd"
         id="path12" />
    </clipPath>
    <clipPath
       clipPathUnits="userSpaceOnUse"
       id="clipPath14">
      <path
         d="M 0,0.16 V 1122.5601 H 793.59998 V 0.16 Z"
         transform="translate(-3.3333333e-6)"
         clip-rule="evenodd"
         id="path14" />
    </clipPath>
  </defs>
  <sodipodi:namedview
     id="namedview1"
     pagecolor="#505050"
     bordercolor="#eeeeee"
     borderopacity="1"
     inkscape:showpageshadow="0"
     inkscape:pageopacity="0"
     inkscape:pagecheckerboard="0"
     inkscape:deskcolor="#505050">
    <inkscape:page
       x="0"
       y="0"
       inkscape:label="1"
       id="page1"
       width="294.82666"
       height="265.62668"
       margin="0"
       bleed="0" />
  </sodipodi:namedview>
  <g
     id="g1"
     inkscape:groupmode="layer"
     inkscape:label="1">
    <path
       id="path1"
       d="M 396.79999,448 V 674.56"
       style="fill:none;stroke:#000000;stroke-width:26.4;stroke-linecap:round;stroke-linejoin:round;stroke-miterlimit:10;stroke-dasharray:none;stroke-opacity:1"
       transform="translate(-260.13333,-429.80006)"
       clip-path="url(#clipPath2)" />
    <path
       id="path3"
       d="m 0,0 -0.16,-3.68 -0.64,-3.68 -0.96,-3.68 -1.44,-3.68 -1.76,-3.52 -2.24,-3.36 -2.56,-3.359999 -2.88,-3.360001 -3.2,-3.040001 -3.520001,-3.040001 -4,-2.879997 L -27.52,-40 -32,-42.560001 l -4.799999,-2.239998 -4.959999,-2.240002 -5.280003,-1.919998 L -52.48,-50.720001 -58.080002,-52.32 -63.84,-53.599998 -69.760002,-54.720001 -75.68,-55.52 l -6.080002,-0.64 -6.079994,-0.32 -6.240006,-0.159999 -6.079998,0.159999 -6.24,0.32 -6.08,0.48 -5.92,0.959999 -5.92,0.960003 -5.76,1.279998 -5.59999,1.599999 -5.44,1.600002 -5.28,2.079998 -5.12001,2.080002 -4.80001,2.239998 -4.47999,2.560001 -4.16001,2.720002 -4,2.879997 -3.67999,2.880001 -3.2,3.200001 -2.88,3.199998 -2.72,3.360001"
       style="fill:none;stroke:#000000;stroke-width:26.4;stroke-linecap:round;stroke-linejoin:round;stroke-miterlimit:10;stroke-dasharray:none;stroke-opacity:1"
       transform="translate(266.26669,244.11992)"
       clip-path="url(#clipPath4)" />
    <path
       id="path5"
       d="m 283.51999,561.28003 h 226.56"
       style="fill:none;stroke:#000000;stroke-width:26.4;stroke-linecap:round;stroke-linejoin:round;stroke-miterlimit:10;stroke-dasharray:none;stroke-opacity:1"
       transform="translate(-260.13333,-429.80006)"
       clip-path="url(#clipPath6)" />
    <path
       id="path7"
       d="M 510.07999,561.28003 453.44,599.03998"
       style="fill:none;stroke:#000000;stroke-width:26.4;stroke-linecap:round;stroke-linejoin:round;stroke-miterlimit:10;stroke-dasharray:none;stroke-opacity:1"
       transform="translate(-260.13333,-429.80006)"
       clip-path="url(#clipPath8)" />
    <path
       id="path9"
       d="M 510.07999,561.28003 453.44,523.52002"
       style="fill:none;stroke:#000000;stroke-width:26.4;stroke-linecap:round;stroke-linejoin:round;stroke-miterlimit:10;stroke-dasharray:none;stroke-opacity:1"
       transform="translate(-260.13333,-429.80006)"
       clip-path="url(#clipPath10)" />
    <path
       id="path11"
       d="M 0,0 3.52,-0.16 7.04,-0.64 10.4,-1.44 13.76,-2.56 16.959999,-4 20,-5.6 22.879999,-7.68 25.440001,-9.76 28,-12.32 l 2.24,-2.72 1.92,-2.88 1.759998,-3.039999 1.280003,-3.200001 1.119999,-3.200001 0.799999,-3.359998 0.479999,-3.520003 0.16,-3.519996 -0.16,-3.520001 -0.479999,-3.36 L 36.32,-48 l -1.119999,-3.360001 -1.280003,-3.2 L 32.16,-57.599998 30.24,-60.48 28,-63.200001 25.440001,-65.599998 22.879999,-67.839996 20,-69.760002 16.959999,-71.519997 13.76,-72.959999 10.4,-74.080002 7.04,-74.879997 3.52,-75.360001 0,-75.519997"
       style="fill:none;stroke:#000000;stroke-width:26.4;stroke-linecap:round;stroke-linejoin:round;stroke-miterlimit:10;stroke-dasharray:none;stroke-opacity:1"
       transform="translate(61.146666,131.47997)"
       clip-path="url(#clipPath12)" />
    <path
       id="path13"
       d="M 283.51999,485.76001 H 321.28"
       style="fill:none;stroke:#000000;stroke-width:26.4;stroke-linecap:round;stroke-linejoin:round;stroke-miterlimit:10;stroke-dasharray:none;stroke-opacity:1"
       transform="translate(-260.13333,-429.80006)"
       clip-path="url(#clipPath14)" />
  </g>
</svg>
