<?xml version="1.0" encoding="UTF-8" standalone="no"?>
<!-- Created with Inkscape (http://www.inkscape.org/) -->

<svg
   version="1.1"
   id="svg1"
   width="228.12"
   height="264.29333"
   viewBox="0 0 228.12 264.29333"
   sodipodi:docname="ConjunctionSaturnMars2.pdf"
   xmlns:inkscape="http://www.inkscape.org/namespaces/inkscape"
   xmlns:sodipodi="http://sodipodi.sourceforge.net/DTD/sodipodi-0.dtd"
   xmlns="http://www.w3.org/2000/svg"
   xmlns:svg="http://www.w3.org/2000/svg">
  <defs
     id="defs1">
    <clipPath
       clipPathUnits="userSpaceOnUse"
       id="clipPath2">
      <path
         d="M 0,0.16 V 1122.5601 H 793.59998 V 0.16 Z"
         transform="translate(3.3333333e-6)"
         clip-rule="evenodd"
         id="path2" />
    </clipPath>
    <clipPath
       clipPathUnits="userSpaceOnUse"
       id="clipPath4">
      <path
         d="M 0,0.16 V 1122.5601 H 793.59998 V 0.16 Z"
         transform="translate(3.3333333e-6)"
         clip-rule="evenodd"
         id="path4" />
    </clipPath>
    <clipPath
       clipPathUnits="userSpaceOnUse"
       id="clipPath6">
      <path
         d="M 0,0.16 V 1122.5601 H 793.59998 V 0.16 Z"
         transform="translate(3.3333333e-6)"
         clip-rule="evenodd"
         id="path6" />
    </clipPath>
    <clipPath
       clipPathUnits="userSpaceOnUse"
       id="clipPath8">
      <path
         d="M 0,0.16 V 1122.5601 H 793.59998 V 0.16 Z"
         transform="translate(-525.28003,-646.23999)"
         clip-rule="evenodd"
         id="path8" />
    </clipPath>
  </defs>
  <sodipodi:namedview
     id="namedview1"
     pagecolor="#505050"
     bordercolor="#eeeeee"
     borderopacity="1"
     inkscape:showpageshadow="0"
     inkscape:pageopacity="0"
     inkscape:pagecheckerboard="0"
     inkscape:deskcolor="#505050">
    <inkscape:page
       x="0"
       y="0"
       inkscape:label="1"
       id="page1"
       width="228.12"
       height="264.29333"
       margin="0"
       bleed="0" />
  </sodipodi:namedview>
  <g
     id="g1"
     inkscape:groupmode="layer"
     inkscape:label="1">
    <path
       id="path1"
       d="M 396.79999,448 V 674.56"
       style="fill:none;stroke:#000000;stroke-width:26.4;stroke-linecap:round;stroke-linejoin:round;stroke-miterlimit:10;stroke-dasharray:none;stroke-opacity:1"
       transform="translate(-321.50667,-425.80006)"
       clip-path="url(#clipPath2)" />
    <path
       id="path3"
       d="m 396.79999,448 -37.75998,56.64001"
       style="fill:none;stroke:#000000;stroke-width:26.4;stroke-linecap:round;stroke-linejoin:round;stroke-miterlimit:10;stroke-dasharray:none;stroke-opacity:1"
       transform="translate(-321.50667,-425.80006)"
       clip-path="url(#clipPath4)" />
    <path
       id="path5"
       d="M 396.79999,448 434.56,504.64001"
       style="fill:none;stroke:#000000;stroke-width:26.4;stroke-linecap:round;stroke-linejoin:round;stroke-miterlimit:10;stroke-dasharray:none;stroke-opacity:1"
       transform="translate(-321.50667,-425.80006)"
       clip-path="url(#clipPath6)" />
    <path
       id="path7"
       d="m 0,0 -0.16,-3.68 -0.64,-3.68 -0.96,-3.68 -1.44,-3.52 -1.76,-3.52 -2.24,-3.52 -2.56,-3.359999 -2.88,-3.200001 -3.2,-3.200001 -3.520001,-3.040001 -4,-2.879997 L -27.52,-40 -32,-42.560001 l -4.799999,-2.239998 -4.959999,-2.240002 -5.280003,-1.919998 L -52.48,-50.720001 -58.080002,-52.32 -63.84,-53.599998 -69.599998,-54.720001 -75.68,-55.52 l -6.080002,-0.64 -6.079994,-0.32 -6.240006,-0.159999 -6.079998,0.159999 -6.08,0.32 -6.08,0.64 -6.08,0.799999 -5.92,0.960003 -5.76,1.279998 -5.59999,1.599999 -5.44,1.760002 -5.28,1.919998 -4.96001,2.080002 -4.8,2.399998 -4.64,2.400001 -4.16001,2.720002 -4,2.879997 -3.51999,3.040001 -3.36,3.040001 -2.88,3.199998 -2.56,3.360001"
       style="fill:none;stroke:#000000;stroke-width:26.4;stroke-linecap:round;stroke-linejoin:round;stroke-miterlimit:10;stroke-dasharray:none;stroke-opacity:1"
       transform="translate(203.77336,220.43993)"
       clip-path="url(#clipPath8)" />
  </g>
</svg>
