<?xml version="1.0" encoding="UTF-8" standalone="no"?>
<!-- Created with Inkscape (http://www.inkscape.org/) -->

<svg
   version="1.1"
   id="svg1"
   width="438.90668"
   height="242.93333"
   viewBox="0 0 438.90668 242.93333"
   sodipodi:docname="CorLeonis.pdf"
   xmlns:inkscape="http://www.inkscape.org/namespaces/inkscape"
   xmlns:sodipodi="http://sodipodi.sourceforge.net/DTD/sodipodi-0.dtd"
   xmlns="http://www.w3.org/2000/svg"
   xmlns:svg="http://www.w3.org/2000/svg">
  <defs
     id="defs1">
    <clipPath
       clipPathUnits="userSpaceOnUse"
       id="clipPath2">
      <path
         d="M 0,0.16 V 1122.5601 H 793.59998 V 0.16 Z"
         transform="translate(-481.76001,-636.79999)"
         clip-rule="evenodd"
         id="path2" />
    </clipPath>
    <clipPath
       clipPathUnits="userSpaceOnUse"
       id="clipPath4">
      <path
         d="M 0,0.16 V 1122.5601 H 793.59998 V 0.16 Z"
         transform="translate(-538.40002,-636.79999)"
         clip-rule="evenodd"
         id="path4" />
    </clipPath>
    <clipPath
       clipPathUnits="userSpaceOnUse"
       id="clipPath6">
      <path
         d="M 0,0.16 V 1122.5601 H 793.59998 V 0.16 Z"
         transform="translate(-519.52002,-485.76001)"
         clip-rule="evenodd"
         id="path6" />
    </clipPath>
    <clipPath
       clipPathUnits="userSpaceOnUse"
       id="clipPath8">
      <path
         d="M 0,0.16 V 1122.5601 H 793.59998 V 0.16 Z"
         transform="translate(-3.3333333e-6)"
         clip-rule="evenodd"
         id="path8" />
    </clipPath>
    <clipPath
       clipPathUnits="userSpaceOnUse"
       id="clipPath10">
      <path
         d="M 0,0.16 V 1122.5601 H 793.59998 V 0.16 Z"
         transform="translate(-3.3333333e-6)"
         clip-rule="evenodd"
         id="path10" />
    </clipPath>
    <clipPath
       clipPathUnits="userSpaceOnUse"
       id="clipPath12">
      <path
         d="M 0,0.16 V 1122.5601 H 793.59998 V 0.16 Z"
         transform="translate(-3.3333333e-6)"
         clip-rule="evenodd"
         id="path12" />
    </clipPath>
    <clipPath
       clipPathUnits="userSpaceOnUse"
       id="clipPath14">
      <path
         d="M 0,0.16 V 1122.5601 H 793.59998 V 0.16 Z"
         transform="translate(-3.3333333e-6)"
         clip-rule="evenodd"
         id="path14" />
    </clipPath>
    <clipPath
       clipPathUnits="userSpaceOnUse"
       id="clipPath16">
      <path
         d="M 0,0.16 V 1122.5601 H 793.59998 V 0.16 Z"
         transform="translate(-3.3333333e-6)"
         clip-rule="evenodd"
         id="path16" />
    </clipPath>
    <clipPath
       clipPathUnits="userSpaceOnUse"
       id="clipPath18">
      <path
         d="M 0,0.16 V 1122.5601 H 793.59998 V 0.16 Z"
         transform="translate(-198.56,-504.64002)"
         clip-rule="evenodd"
         id="path18" />
    </clipPath>
    <clipPath
       clipPathUnits="userSpaceOnUse"
       id="clipPath20">
      <path
         d="M 0,0.16 V 1122.5601 H 793.59998 V 0.16 Z"
         transform="translate(-519.52002,-617.91999)"
         clip-rule="evenodd"
         id="path20" />
    </clipPath>
    <clipPath
       clipPathUnits="userSpaceOnUse"
       id="clipPath22">
      <path
         d="M 0,0.16 V 1122.5601 H 793.59998 V 0.16 Z"
         transform="translate(-595.03997,-617.91999)"
         clip-rule="evenodd"
         id="path22" />
    </clipPath>
    <clipPath
       clipPathUnits="userSpaceOnUse"
       id="clipPath24">
      <path
         d="M 0,0.16 V 1122.5601 H 793.59998 V 0.16 Z"
         transform="translate(-481.76001,-485.76001)"
         clip-rule="evenodd"
         id="path24" />
    </clipPath>
  </defs>
  <sodipodi:namedview
     id="namedview1"
     pagecolor="#505050"
     bordercolor="#eeeeee"
     borderopacity="1"
     inkscape:showpageshadow="0"
     inkscape:pageopacity="0"
     inkscape:pagecheckerboard="0"
     inkscape:deskcolor="#505050">
    <inkscape:page
       x="0"
       y="0"
       inkscape:label="1"
       id="page1"
       width="438.90668"
       height="242.93333"
       margin="0"
       bleed="0" />
  </sodipodi:namedview>
  <g
     id="g1"
     inkscape:groupmode="layer"
     inkscape:label="1">
    <path
       id="path1"
       d="m 0,0 c 0,-10.42 -8.45,-18.879999 -18.879999,-18.879999 -10.43,0 -18.879999,8.459999 -18.879999,18.879999 0,10.42 8.449999,18.879999 18.879999,18.879999 C -8.45,18.879999 0,10.42 0,0 Z"
       style="fill:none;stroke:#000000;stroke-width:26.4;stroke-linecap:round;stroke-linejoin:round;stroke-miterlimit:10;stroke-dasharray:none;stroke-opacity:1"
       transform="translate(301.66668,193.65326)"
       clip-path="url(#clipPath2)" />
    <path
       id="path3"
       d="m 0,0 c 0,-10.42 -8.45,-18.879999 -18.879999,-18.879999 -10.43,0 -18.879999,8.459999 -18.879999,18.879999 0,10.42 8.449999,18.879999 18.879999,18.879999 C -8.45,18.879999 0,10.42 0,0 Z"
       style="fill:none;stroke:#000000;stroke-width:26.4;stroke-linecap:round;stroke-linejoin:round;stroke-miterlimit:10;stroke-dasharray:none;stroke-opacity:1"
       transform="translate(358.30669,193.65326)"
       clip-path="url(#clipPath4)" />
    <path
       id="path5"
       d="m 0,0 c 0,-10.42 -8.45,-18.879999 -18.879999,-18.879999 -10.43,0 -18.879999,8.459999 -18.879999,18.879999 0,10.42 8.449999,18.879999 18.879999,18.879999 C -8.45,18.879999 0,10.42 0,0 Z"
       style="fill:none;stroke:#000000;stroke-width:26.4;stroke-linecap:round;stroke-linejoin:round;stroke-miterlimit:10;stroke-dasharray:none;stroke-opacity:1"
       transform="translate(339.42669,42.613285)"
       clip-path="url(#clipPath6)" />
    <path
       id="path7"
       d="M 236.32001,504.64001 V 655.67999"
       style="fill:none;stroke:#000000;stroke-width:26.4;stroke-linecap:round;stroke-linejoin:round;stroke-miterlimit:10;stroke-dasharray:none;stroke-opacity:1"
       transform="translate(-180.09333,-443.14673)"
       clip-path="url(#clipPath8)" />
    <path
       id="path9"
       d="M 236.32001,655.67999 H 387.35999"
       style="fill:none;stroke:#000000;stroke-width:26.4;stroke-linecap:round;stroke-linejoin:round;stroke-miterlimit:10;stroke-dasharray:none;stroke-opacity:1"
       transform="translate(-180.09333,-443.14673)"
       clip-path="url(#clipPath10)" />
    <path
       id="path11"
       d="M 387.35999,655.67999 349.60001,504.64001"
       style="fill:none;stroke:#000000;stroke-width:26.4;stroke-linecap:round;stroke-linejoin:round;stroke-miterlimit:10;stroke-dasharray:none;stroke-opacity:1"
       transform="translate(-180.09333,-443.14673)"
       clip-path="url(#clipPath12)" />
    <path
       id="path13"
       d="m 349.60001,504.64001 h 151.04"
       style="fill:none;stroke:#000000;stroke-width:26.4;stroke-linecap:round;stroke-linejoin:round;stroke-miterlimit:10;stroke-dasharray:none;stroke-opacity:1"
       transform="translate(-180.09333,-443.14673)"
       clip-path="url(#clipPath14)" />
    <path
       id="path15"
       d="M 444,504.64001 V 636.79999"
       style="fill:none;stroke:#000000;stroke-width:26.4;stroke-linecap:round;stroke-linejoin:round;stroke-miterlimit:10;stroke-dasharray:none;stroke-opacity:1"
       transform="translate(-180.09333,-443.14673)"
       clip-path="url(#clipPath16)" />
    <path
       id="path17"
       d="m 0,0 0.16,2.24 0.48,2.24 0.64,2.24 0.96,2.08 1.12,1.92 1.44,1.76 1.6,1.6 1.76,1.44 2.08,1.279999 2.08,0.800001 2.08,0.8 2.239999,0.319999 2.24,0.16 2.400002,-0.16 L 23.52,18.4 25.6,17.6 27.68,16.799999 29.6,15.52 31.52,14.08 33.119999,12.48 34.400002,10.72 35.68,8.8 l 0.959999,-2.08 0.64,-2.24 0.479999,-2.24 V 0"
       style="fill:none;stroke:#000000;stroke-width:26.4;stroke-linecap:round;stroke-linejoin:round;stroke-miterlimit:10;stroke-dasharray:none;stroke-opacity:1"
       transform="translate(18.466665,61.49329)"
       clip-path="url(#clipPath18)" />
    <path
       id="path19"
       d="m 0,0 -0.8,-2.88 -1.28,-2.88 -1.6,-2.72 -1.76,-2.56 -2.08,-2.24 -2.24,-2.08 -2.4,-1.760001 -2.72,-1.599998 L -17.76,-20 -20.639999,-20.959999 -23.68,-21.6 -26.719999,-21.92 H -29.76 L -32.959999,-21.6 -35.84,-20.959999 -38.880001,-20 l -2.719997,1.280001 -2.720002,1.599998 -2.560001,1.760001 -2.239998,2.08 -2.080002,2.24 -1.759998,2.56 -1.440003,2.72 L -55.68,-2.88 -56.639999,0"
       style="fill:none;stroke:#000000;stroke-width:26.4;stroke-linecap:round;stroke-linejoin:round;stroke-miterlimit:10;stroke-dasharray:none;stroke-opacity:1"
       transform="translate(339.42669,174.77326)"
       clip-path="url(#clipPath20)" />
    <path
       id="path21"
       d="M 0,0 -3.52,0.16 -6.88,0.32 -10.24,0.8 -13.6,1.28 -16.799999,1.92 -19.84,2.88 -22.719999,3.84 -25.440001,4.96 -27.84,6.24 -30.08,7.52 -32,8.96 -33.759998,10.4 -35.200001,12 -36.32,13.76 l -0.799999,1.6 -0.479999,1.760001 -0.16,1.759998 0.16,1.76 L -37.119999,22.4 -36.32,24 l 1.119999,1.76 1.440003,1.600001 1.599998,1.439998 2.08,1.440001 2.24,1.28 2.399999,1.279999 2.720002,1.119999 2.879999,0.960003 3.040001,0.959999"
       style="fill:none;stroke:#000000;stroke-width:26.4;stroke-linecap:round;stroke-linejoin:round;stroke-miterlimit:10;stroke-dasharray:none;stroke-opacity:1"
       transform="translate(414.94664,174.77326)"
       clip-path="url(#clipPath22)" />
    <path
       id="path23"
       d="m 0,0 1.12,2.08 1.76,2.88 1.76,2.56 1.76,2.4 1.92,2.08 2.08,1.92 2.24,1.6 2.56,1.439999 L 18.4,18.4 21.120001,19.52 22.24,20 l 3.84,1.440001 5.280001,2.079999 6.559997,2.4 8.320004,3.520001 2.079998,1.119998 1.439998,0.640002 4.16,1.919998 6.400002,3.68 5.440002,3.680001 4.64,3.68 3.199996,3.040001 1.120003,1.119999 3.199997,3.84 3.520004,4.479999 3.519997,5.119999 3.360001,5.759999 3.199997,6.240005 1.120002,2.079994 0.64,1.600006 1.919998,5.119996 0.639999,2.400001 0.960007,4.160004 0.639999,4.159996 0.159996,4.160003 0.160004,4.319998 -0.160004,4.48 -0.319999,4.64 -0.479996,4.96 -0.639999,5.12 -0.800003,5.28 -0.959999,5.76 v 0.16"
       style="fill:none;stroke:#000000;stroke-width:26.4;stroke-linecap:round;stroke-linejoin:round;stroke-miterlimit:10;stroke-dasharray:none;stroke-opacity:1"
       transform="translate(301.66668,42.613285)"
       clip-path="url(#clipPath24)" />
  </g>
</svg>
