<?xml version="1.0" encoding="UTF-8" standalone="no"?>
<!-- Created with Inkscape (http://www.inkscape.org/) -->

<svg
   version="1.1"
   id="svg1"
   width="374.86667"
   height="226.90668"
   viewBox="0 0 374.86667 226.90668"
   sodipodi:docname="CorLeonis2.pdf"
   xmlns:inkscape="http://www.inkscape.org/namespaces/inkscape"
   xmlns:sodipodi="http://sodipodi.sourceforge.net/DTD/sodipodi-0.dtd"
   xmlns="http://www.w3.org/2000/svg"
   xmlns:svg="http://www.w3.org/2000/svg">
  <defs
     id="defs1">
    <clipPath
       clipPathUnits="userSpaceOnUse"
       id="clipPath2">
      <path
         d="M 0,0.16 V 1122.5601 H 793.59998 V 0.16 Z"
         transform="translate(-566.71997,-485.76001)"
         clip-rule="evenodd"
         id="path2" />
    </clipPath>
    <clipPath
       clipPathUnits="userSpaceOnUse"
       id="clipPath4">
      <path
         d="M 0,0.16 V 1122.5601 H 793.59998 V 0.16 Z"
         transform="translate(3.3333333e-6)"
         clip-rule="evenodd"
         id="path4" />
    </clipPath>
    <clipPath
       clipPathUnits="userSpaceOnUse"
       id="clipPath6">
      <path
         d="M 0,0.16 V 1122.5601 H 793.59998 V 0.16 Z"
         transform="translate(3.3333333e-6)"
         clip-rule="evenodd"
         id="path6" />
    </clipPath>
    <clipPath
       clipPathUnits="userSpaceOnUse"
       id="clipPath8">
      <path
         d="M 0,0.16 V 1122.5601 H 793.59998 V 0.16 Z"
         transform="translate(-245.75999,-466.88001)"
         clip-rule="evenodd"
         id="path8" />
    </clipPath>
  </defs>
  <sodipodi:namedview
     id="namedview1"
     pagecolor="#505050"
     bordercolor="#eeeeee"
     borderopacity="1"
     inkscape:showpageshadow="0"
     inkscape:pageopacity="0"
     inkscape:pagecheckerboard="0"
     inkscape:deskcolor="#505050">
    <inkscape:page
       x="0"
       y="0"
       inkscape:label="1"
       id="page1"
       width="374.86667"
       height="226.90668"
       margin="0"
       bleed="0" />
  </sodipodi:namedview>
  <g
     id="g1"
     inkscape:groupmode="layer"
     inkscape:label="1">
    <path
       id="path1"
       d="m 0,0 c 0,-10.42 -8.45,-18.879999 -18.879999,-18.879999 -10.43,0 -18.879999,8.459999 -18.879999,18.879999 0,10.42 8.449999,18.879999 18.879999,18.879999 C -8.45,18.879999 0,10.42 0,0 Z"
       style="fill:none;stroke:#000000;stroke-width:26.4;stroke-linecap:round;stroke-linejoin:round;stroke-miterlimit:10;stroke-dasharray:none;stroke-opacity:1"
       transform="translate(351.9333,50.613285)"
       clip-path="url(#clipPath2)" />
    <path
       id="path3"
       d="m 321.28,485.76001 v 151.03998 h 75.51999 V 485.76001 h 132.16003"
       style="fill:none;stroke:#000000;stroke-width:26.4;stroke-linecap:round;stroke-linejoin:round;stroke-miterlimit:10;stroke-dasharray:none;stroke-opacity:1"
       transform="translate(-214.78667,-435.14673)"
       clip-path="url(#clipPath4)" />
    <path
       id="path5"
       d="M 547.84003,504.64001 V 636.79999"
       style="fill:none;stroke:#000000;stroke-width:26.4;stroke-linecap:round;stroke-linejoin:round;stroke-miterlimit:10;stroke-dasharray:none;stroke-opacity:1"
       transform="translate(-214.78667,-435.14673)"
       clip-path="url(#clipPath6)" />
    <path
       id="path7"
       d="m 0,0 2.24,3.84 2.56,3.68 2.72,3.36 3.2,3.04 3.2,2.879999 3.68,2.560002 3.680001,2.239999 4,1.92 4,1.600001 4.319997,1.279999 4.32,0.960001 4.320004,0.479999 4.319999,0.16 4.48,-0.16 4.32,-0.639999 L 59.68,26.24 63.84,24.959999 68,23.200001 l 3.839996,-1.92 3.680001,-2.400002"
       style="fill:none;stroke:#000000;stroke-width:26.4;stroke-linecap:round;stroke-linejoin:round;stroke-miterlimit:10;stroke-dasharray:none;stroke-opacity:1"
       transform="translate(30.973328,31.73328)"
       clip-path="url(#clipPath8)" />
  </g>
</svg>
