<?xml version="1.0" encoding="UTF-8" standalone="no"?>
<!-- Created with Inkscape (http://www.inkscape.org/) -->

<svg
   version="1.1"
   id="svg1"
   width="213.45332"
   height="204.22667"
   viewBox="0 0 213.45332 204.22667"
   sodipodi:docname="DescendingNode3.pdf"
   xmlns:inkscape="http://www.inkscape.org/namespaces/inkscape"
   xmlns:sodipodi="http://sodipodi.sourceforge.net/DTD/sodipodi-0.dtd"
   xmlns="http://www.w3.org/2000/svg"
   xmlns:svg="http://www.w3.org/2000/svg">
  <defs
     id="defs1">
    <clipPath
       clipPathUnits="userSpaceOnUse"
       id="clipPath2">
      <path
         d="M 0,0.16 V 1122.5601 H 793.59998 V 0.16 Z"
         transform="translate(-321.28,-504.64002)"
         clip-rule="evenodd"
         id="path2" />
    </clipPath>
    <clipPath
       clipPathUnits="userSpaceOnUse"
       id="clipPath4">
      <path
         d="M 0,0.16 V 1122.5601 H 793.59998 V 0.16 Z"
         transform="translate(-321.28,-617.91999)"
         clip-rule="evenodd"
         id="path4" />
    </clipPath>
    <clipPath
       clipPathUnits="userSpaceOnUse"
       id="clipPath6">
      <path
         d="M 0,0.16 V 1122.5601 H 793.59998 V 0.16 Z"
         transform="translate(-322.23999,-615.20002)"
         clip-rule="evenodd"
         id="path6" />
    </clipPath>
    <clipPath
       clipPathUnits="userSpaceOnUse"
       id="clipPath8">
      <path
         d="M 0,0.16 V 1122.5601 H 793.59998 V 0.16 Z"
         transform="translate(-322.23999,-615.20002)"
         clip-rule="evenodd"
         id="path8" />
    </clipPath>
  </defs>
  <sodipodi:namedview
     id="namedview1"
     pagecolor="#505050"
     bordercolor="#eeeeee"
     borderopacity="1"
     inkscape:showpageshadow="0"
     inkscape:pageopacity="0"
     inkscape:pagecheckerboard="0"
     inkscape:deskcolor="#505050">
    <inkscape:page
       x="0"
       y="0"
       inkscape:label="1"
       id="page1"
       width="213.45332"
       height="204.22667"
       margin="0"
       bleed="0" />
  </sodipodi:namedview>
  <g
     id="g1"
     inkscape:groupmode="layer"
     inkscape:label="1">
    <path
       id="path1"
       d="m 0,0 c 0,-10.42 -8.45,-18.879999 -18.879999,-18.879999 -10.43,0 -18.879999,8.459999 -18.879999,18.879999 0,10.42 8.449999,18.879999 18.879999,18.879999 C -8.45,18.879999 0,10.42 0,0 Z"
       style="fill:none;stroke:#000000;stroke-width:26.4;stroke-linecap:round;stroke-linejoin:round;stroke-miterlimit:10;stroke-dasharray:none;stroke-opacity:1"
       transform="translate(321.28,512.65329)"
       clip-path="url(#clipPath2)" />
    <path
       id="path3"
       d="m 0,0 c 0,-10.42 -8.45,-18.879999 -18.879999,-18.879999 -10.43,0 -18.879999,8.459999 -18.879999,18.879999 0,10.42 8.449999,18.879999 18.879999,18.879999 C -8.45,18.879999 0,10.42 0,0 Z"
       style="fill:none;stroke:#000000;stroke-width:26.4;stroke-linecap:round;stroke-linejoin:round;stroke-miterlimit:10;stroke-dasharray:none;stroke-opacity:1"
       transform="translate(321.28,625.93326)"
       clip-path="url(#clipPath4)" />
    <path
       id="path5"
       d="m 0,0 3.84,3.68 4.32,3.36 4.32,3.04 4.640001,2.72 4.799999,2.56 5.120001,1.920001 5.119999,1.76 L 37.279999,20.32 42.560001,21.280001 48,21.92 l 5.439999,0.16 5.280002,-0.16 5.440003,-0.639999 5.279998,-0.960001 5.279999,-1.279999 4.959999,-1.76 5.120003,-1.920001 4.799995,-2.56 4.64,-2.72 4.32,-3.04 L 102.88,3.68 106.72,0 l 3.68,-4 3.36,-4.16 3.2,-4.48 2.72,-4.640001 2.4,-4.799999 2.08,-4.960001 1.6,-5.119999 1.44,-5.119999 0.96,-5.440002 0.48,-5.279999 0.32001,-5.439999 -0.32001,-5.280002 -0.48,-5.440003 -0.96,-5.279998 -1.44,-5.279999 -1.6,-5.119995 -2.08,-4.960007 -2.4,-4.799995 -2.72,-4.64 -3.2,-4.480003 -3.36,-4.159999 -3.68,-4 -3.84,-3.52 -4.320002,-3.52 -4.32,-3.04 -4.64,-2.72 -4.799995,-2.4 -5.120003,-2.08 -4.959999,-1.76 -5.279999,-1.28 -5.279998,-0.96 -5.440003,-0.64 -5.280002,-0.16001 L 48,-128.8 l -5.439999,0.64 -5.280002,0.96 -5.119999,1.28 -5.119999,1.76 -5.120001,2.08 -4.799999,2.4 -4.640001,2.72 -4.32,3.04 -4.32,3.52 -3.84,3.52"
       style="fill:none;stroke:#000000;stroke-width:26.4;stroke-linecap:round;stroke-linejoin:round;stroke-miterlimit:10;stroke-dasharray:none;stroke-opacity:1"
       transform="translate(322.23999,623.21329)"
       clip-path="url(#clipPath6)" />
    <path
       id="path7"
       d="M 0,0 4.32,-0.96 8.48,-2.24 12.64,-4 16.639999,-5.92 20.48,-8.32 24,-10.88 27.360001,-13.76 30.4,-16.959999 33.279999,-20.32 35.84,-24 38.080002,-27.84 40,-31.84 41.599998,-36 l 1.280003,-4.16 0.959999,-4.479999 0.48,-4.32 0.16,-4.48 -0.16,-4.479999 -0.48,-4.320004 -0.959999,-4.319996 -1.280003,-4.319999 L 40,-75.040001 l -1.919998,-4 L 35.84,-82.879997 33.279999,-86.400002 30.4,-89.919998 27.360001,-92.959999 24,-96 20.48,-98.559998 16.639999,-100.8 12.64,-102.88 8.48,-104.48 4.32,-105.76 0,-106.88"
       style="fill:none;stroke:#000000;stroke-width:26.4;stroke-linecap:round;stroke-linejoin:round;stroke-miterlimit:10;stroke-dasharray:none;stroke-opacity:1"
       transform="translate(322.23999,623.21329)"
       clip-path="url(#clipPath8)" />
  </g>
</svg>
