<?xml version="1.0" encoding="UTF-8" standalone="no"?>
<!-- Created with Inkscape (http://www.inkscape.org/) -->

<svg
   version="1.1"
   id="svg1"
   width="278.82666"
   height="184.2"
   viewBox="0 0 278.82666 184.2"
   sodipodi:docname="DescendingNode2.pdf"
   xmlns:inkscape="http://www.inkscape.org/namespaces/inkscape"
   xmlns:sodipodi="http://sodipodi.sourceforge.net/DTD/sodipodi-0.dtd"
   xmlns="http://www.w3.org/2000/svg"
   xmlns:svg="http://www.w3.org/2000/svg">
  <defs
     id="defs1">
    <clipPath
       clipPathUnits="userSpaceOnUse"
       id="clipPath2">
      <path
         d="M 0,0.16 V 1122.5601 H 793.59998 V 0.16 Z"
         transform="translate(-343.51999,-507.84)"
         clip-rule="evenodd"
         id="path2" />
    </clipPath>
    <clipPath
       clipPathUnits="userSpaceOnUse"
       id="clipPath4">
      <path
         d="M 0,0.16 V 1122.5601 H 793.59998 V 0.16 Z"
         clip-rule="evenodd"
         id="path4" />
    </clipPath>
    <clipPath
       clipPathUnits="userSpaceOnUse"
       id="clipPath6">
      <path
         d="M 0,0.16 V 1122.5601 H 793.59998 V 0.16 Z"
         clip-rule="evenodd"
         id="path6" />
    </clipPath>
  </defs>
  <sodipodi:namedview
     id="namedview1"
     pagecolor="#505050"
     bordercolor="#eeeeee"
     borderopacity="1"
     inkscape:showpageshadow="0"
     inkscape:pageopacity="0"
     inkscape:pagecheckerboard="0"
     inkscape:deskcolor="#505050">
    <inkscape:page
       x="0"
       y="0"
       inkscape:label="1"
       id="page1"
       width="278.82666"
       height="184.2"
       margin="0"
       bleed="0" />
  </sodipodi:namedview>
  <g
     id="g1"
     inkscape:groupmode="layer"
     inkscape:label="1">
    <path
       id="path1"
       d="m 0,0 -3.68,4 -3.52,4.16 -3.04,4.48 -2.72,4.640001 -2.4,4.799999 -2.080001,4.960001 -1.76,5.119999 L -20.48,37.439999 -21.440001,42.720001 -21.92,48 l -0.32,5.439999 0.32,5.440002 0.479999,5.280003 0.960001,5.279998 1.279999,5.279999 1.76,5.119995 2.080001,4.960007 2.4,4.799995 2.72,4.64 3.04,4.480003 3.52,4.159999 3.68,4 3.84,3.68 4.16,3.36 4.48,3.04 4.640001,2.72 4.799999,2.4 4.959999,2.08 5.120001,1.76 5.279999,1.28 5.280002,0.96 L 48,128.8 53.279999,128.96001 58.720001,128.8 64,128.16 l 5.440002,-0.96 5.119996,-1.28 5.120002,-1.76 4.959999,-2.08 4.959999,-2.4 4.480004,-2.72 4.479996,-3.04 4.160002,-3.36 4,-3.68 3.68,-4 3.36,-4.159999 3.04,-4.480003 2.88,-4.64 2.4,-4.799995 2.08,-4.960007 1.6,-5.119995 1.28,-5.279999 0.96,-5.279998 0.64,-5.280003 0.16,-5.440002 L 128.64,48 128,42.720001 127.04,37.439999 125.76,32.16 124.16,27.040001 122.08,22.08 119.68,17.280001 116.8,12.64 113.76,8.16 110.4,4 106.72,0"
       style="fill:none;stroke:#000000;stroke-width:26.4;stroke-linecap:round;stroke-linejoin:round;stroke-miterlimit:10;stroke-dasharray:none;stroke-opacity:1"
       transform="translate(84.719989,28.653271)"
       clip-path="url(#clipPath2)" />
    <path
       id="path3"
       d="m 283.51999,542.40002 h 226.56"
       style="fill:none;stroke:#000000;stroke-width:26.4;stroke-linecap:round;stroke-linejoin:round;stroke-miterlimit:10;stroke-dasharray:none;stroke-opacity:1"
       transform="translate(-258.8,-479.18673)"
       clip-path="url(#clipPath4)" />
    <path
       id="path5"
       d="m 283.51999,580.15997 h 226.56"
       style="fill:none;stroke:#000000;stroke-width:26.4;stroke-linecap:round;stroke-linejoin:round;stroke-miterlimit:10;stroke-dasharray:none;stroke-opacity:1"
       transform="translate(-258.8,-479.18673)"
       clip-path="url(#clipPath6)" />
  </g>
</svg>
