<?xml version="1.0" encoding="UTF-8" standalone="no"?>
<!-- Created with Inkscape (http://www.inkscape.org/) -->

<svg
   version="1.1"
   id="svg1"
   width="325.51999"
   height="166.84"
   viewBox="0 0 325.51999 166.84"
   sodipodi:docname="EclipseSun.pdf"
   xmlns:inkscape="http://www.inkscape.org/namespaces/inkscape"
   xmlns:sodipodi="http://sodipodi.sourceforge.net/DTD/sodipodi-0.dtd"
   xmlns="http://www.w3.org/2000/svg"
   xmlns:svg="http://www.w3.org/2000/svg">
  <defs
     id="defs1">
    <clipPath
       clipPathUnits="userSpaceOnUse"
       id="clipPath2">
      <path
         d="M 0,0.16 V 1122.5601 H 793.59998 V 0.16 Z"
         transform="translate(-510.07999,-561.28003)"
         clip-rule="evenodd"
         id="path2" />
    </clipPath>
    <clipPath
       clipPathUnits="userSpaceOnUse"
       id="clipPath4">
      <path
         d="M 0,0.16 V 1122.5601 H 793.59998 V 0.16 Z"
         transform="translate(-377.92002,-561.28003)"
         clip-rule="evenodd"
         id="path4" />
    </clipPath>
    <clipPath
       clipPathUnits="userSpaceOnUse"
       id="clipPath6">
      <path
         d="M 0,0.16 V 1122.5601 H 793.59998 V 0.16 Z"
         transform="translate(-510.07999,-561.28003)"
         clip-rule="evenodd"
         id="path6" />
    </clipPath>
    <clipPath
       clipPathUnits="userSpaceOnUse"
       id="clipPath8">
      <path
         d="M 0,0.16 V 1122.5601 H 793.59998 V 0.16 Z"
         transform="translate(3.3333333e-6)"
         clip-rule="evenodd"
         id="path8" />
    </clipPath>
    <clipPath
       clipPathUnits="userSpaceOnUse"
       id="clipPath10">
      <path
         d="M 0,0.16 V 1122.5601 H 793.59998 V 0.16 Z"
         transform="translate(-245.75999,-599.03998)"
         clip-rule="evenodd"
         id="path10" />
    </clipPath>
    <clipPath
       clipPathUnits="userSpaceOnUse"
       id="clipPath12">
      <path
         d="M 0,0.16 V 1122.5601 H 793.59998 V 0.16 Z"
         transform="translate(-245.75999,-599.03998)"
         clip-rule="evenodd"
         id="path12" />
    </clipPath>
  </defs>
  <sodipodi:namedview
     id="namedview1"
     pagecolor="#505050"
     bordercolor="#eeeeee"
     borderopacity="1"
     inkscape:showpageshadow="0"
     inkscape:pageopacity="0"
     inkscape:pagecheckerboard="0"
     inkscape:deskcolor="#505050">
    <inkscape:page
       x="0"
       y="0"
       inkscape:label="1"
       id="page1"
       width="325.51999"
       height="166.84"
       margin="0"
       bleed="0" />
  </sodipodi:namedview>
  <g
     id="g1"
     inkscape:groupmode="layer"
     inkscape:label="1">
    <path
       id="path1"
       d="m 0,0 -0.16,-3.52 -0.48,-3.36 -0.8,-3.36 -1.12,-3.36 -1.28,-3.199999 -1.76,-3.040001 -1.92,-2.879999 -2.24,-2.720002 -2.56,-2.399999 -2.72,-2.24 -2.72,-2.08 -3.199999,-1.599998 L -24,-35.200001 -27.360001,-36.32 l -3.359998,-0.799999 -3.520003,-0.479999 -3.519996,-0.16 -3.360001,0.16 -3.52,0.479999 L -48,-36.32 l -3.360001,1.119999 -3.2,1.440003 -3.039997,1.599998 -2.880002,2.08 -2.720001,2.24 -2.399997,2.399999 -2.239998,2.720002 -1.920006,2.879999 -1.759995,3.040001 -1.440002,3.199999 -1.120003,3.36 -0.799995,3.36 -0.480004,3.36 -0.159996,3.52 0.159996,3.52 0.480004,3.36 0.799995,3.52 1.120003,3.2 1.440002,3.199999 1.759995,3.040001 1.920006,2.879999 2.239998,2.720002 L -63.200001,28 -60.48,30.08 l 2.880002,2.08 3.039997,1.599998 3.2,1.440003 L -48,36.32 l 3.360001,0.799999 3.52,0.479999 3.360001,0.16 3.519996,-0.16 3.520003,-0.479999 L -27.360001,36.32 -24,35.200001 -20.959999,33.759998 -17.76,32.16 -15.04,30.08 -12.32,28 -9.76,25.440001 -7.52,22.719999 -5.6,19.84 -3.84,16.799999 -2.56,13.6 -1.44,10.4 -0.64,6.88 -0.16,3.52 0,0 v 0 z"
       style="fill:#000000;fill-opacity:1;fill-rule:evenodd;stroke:none"
       transform="translate(301.97332,102.10664)"
       clip-path="url(#clipPath2)" />
    <path
       id="path3"
       d="m 0,0 c 0,-10.42 -8.45,-18.879999 -18.879999,-18.879999 -10.43,0 -18.879999,8.459999 -18.879999,18.879999 0,10.42 8.449999,18.879999 18.879999,18.879999 C -8.45,18.879999 0,10.42 0,0 Z"
       style="fill:none;stroke:#000000;stroke-width:26.4;stroke-linecap:round;stroke-linejoin:round;stroke-miterlimit:10;stroke-dasharray:none;stroke-opacity:1"
       transform="translate(169.81335,102.10664)"
       clip-path="url(#clipPath4)" />
    <path
       id="path5"
       d="m 0,0 -0.16,-3.52 -0.48,-3.36 -0.8,-3.36 -1.12,-3.36 -1.28,-3.199999 -1.76,-3.040001 -1.92,-2.879999 -2.24,-2.720002 -2.56,-2.399999 -2.72,-2.24 -2.72,-2.08 -3.199999,-1.599998 L -24,-35.200001 -27.360001,-36.32 l -3.359998,-0.799999 -3.520003,-0.479999 -3.519996,-0.16 -3.360001,0.16 -3.52,0.479999 L -48,-36.32 l -3.360001,1.119999 -3.2,1.440003 -3.039997,1.599998 -2.880002,2.08 -2.720001,2.24 -2.399997,2.399999 -2.239998,2.720002 -1.920006,2.879999 -1.759995,3.040001 -1.440002,3.199999 -1.120003,3.36 -0.799995,3.36 -0.480004,3.36 -0.159996,3.52 0.159996,3.52 0.480004,3.36 0.799995,3.52 1.120003,3.2 1.440002,3.199999 1.759995,3.040001 1.920006,2.879999 2.239998,2.720002 L -63.200001,28 -60.48,30.08 l 2.880002,2.08 3.039997,1.599998 3.2,1.440003 L -48,36.32 l 3.360001,0.799999 3.52,0.479999 3.360001,0.16 3.519996,-0.16 3.520003,-0.479999 L -27.360001,36.32 -24,35.200001 -20.959999,33.759998 -17.76,32.16 -15.04,30.08 -12.32,28 -9.76,25.440001 -7.52,22.719999 -5.6,19.84 -3.84,16.799999 -2.56,13.6 -1.44,10.4 -0.64,6.88 -0.16,3.52 0,0"
       style="fill:none;stroke:#000000;stroke-width:26.4;stroke-linecap:round;stroke-linejoin:round;stroke-miterlimit:10;stroke-dasharray:none;stroke-opacity:1"
       transform="translate(301.97332,102.10664)"
       clip-path="url(#clipPath6)" />
    <path
       id="path7"
       d="m 359.04001,542.40002 18.88,-56.64001"
       style="fill:none;stroke:#000000;stroke-width:26.4;stroke-linecap:round;stroke-linejoin:round;stroke-miterlimit:10;stroke-dasharray:none;stroke-opacity:1"
       transform="translate(-208.10667,-459.17339)"
       clip-path="url(#clipPath8)" />
    <path
       id="path9"
       d="m 0,0 3.36,-2.56 2.88,-3.04 2.72,-3.04 2.4,-3.52 2.08,-3.52 1.76,-3.84 1.439999,-3.840001 1.120001,-4 0.799999,-4.159999 0.32,-4.16 v -4.16 L 18.559999,-44 17.76,-48 16.639999,-52.16 15.2,-56 l -1.76,-3.84 -2.08,-3.520001 -2.4,-3.36 L 6.24,-69.919998 3.36,-72.800003 0,-75.519997"
       style="fill:none;stroke:#000000;stroke-width:26.4;stroke-linecap:round;stroke-linejoin:round;stroke-miterlimit:10;stroke-dasharray:none;stroke-opacity:1"
       transform="translate(37.653328,139.86659)"
       clip-path="url(#clipPath10)" />
    <path
       id="path11"
       d="M 0,0 3.68,0.8 7.2,1.44 10.88,1.6 14.56,1.44 18.08,0.96 21.6,0.16 25.120001,-0.96 28.48,-2.4 l 3.2,-1.92 3.040001,-1.92 2.719998,-2.4 L 40,-11.2 42.400002,-13.92 44.48,-16.959999 46.240002,-20.16 47.68,-23.52 l 1.119999,-3.359999 0.959999,-3.68 0.480004,-3.520003 0.16,-3.679996 -0.16,-3.680001 -0.480004,-3.52 L 48.799999,-48.48 47.68,-52 46.240002,-55.360001 44.48,-58.560001 42.400002,-61.439999 40,-64.32 37.439999,-66.879997 34.720001,-69.120003 31.68,-71.199997 28.48,-72.959999 25.120001,-74.400002 21.6,-75.68 l -3.52,-0.800003 -3.52,-0.479996 -3.68,-0.160004 -3.68,0.32 L 3.68,-76.32 0,-75.519997"
       style="fill:none;stroke:#000000;stroke-width:26.4;stroke-linecap:round;stroke-linejoin:round;stroke-miterlimit:10;stroke-dasharray:none;stroke-opacity:1"
       transform="translate(37.653328,139.86659)"
       clip-path="url(#clipPath12)" />
  </g>
</svg>
