<?xml version="1.0" encoding="UTF-8" standalone="no"?>
<!-- Created with Inkscape (http://www.inkscape.org/) -->

<svg
   version="1.1"
   id="svg1"
   width="304.17334"
   height="168.18668"
   viewBox="0 0 304.17334 168.18668"
   sodipodi:docname="EclipseMoon.pdf"
   xmlns:inkscape="http://www.inkscape.org/namespaces/inkscape"
   xmlns:sodipodi="http://sodipodi.sourceforge.net/DTD/sodipodi-0.dtd"
   xmlns="http://www.w3.org/2000/svg"
   xmlns:svg="http://www.w3.org/2000/svg">
  <defs
     id="defs1">
    <clipPath
       clipPathUnits="userSpaceOnUse"
       id="clipPath2">
      <path
         d="M 0,0.16 V 1122.5601 H 793.59998 V 0.16 Z"
         transform="translate(-510.07999,-561.28003)"
         clip-rule="evenodd"
         id="path2" />
    </clipPath>
    <clipPath
       clipPathUnits="userSpaceOnUse"
       id="clipPath4">
      <path
         d="M 0,0.16 V 1122.5601 H 793.59998 V 0.16 Z"
         transform="translate(-377.92001,-561.28003)"
         clip-rule="evenodd"
         id="path4" />
    </clipPath>
    <clipPath
       clipPathUnits="userSpaceOnUse"
       id="clipPath6">
      <path
         d="M 0,0.16 V 1122.5601 H 793.59998 V 0.16 Z"
         clip-rule="evenodd"
         id="path6" />
    </clipPath>
    <clipPath
       clipPathUnits="userSpaceOnUse"
       id="clipPath8">
      <path
         d="M 0,0.16 V 1122.5601 H 793.59998 V 0.16 Z"
         transform="translate(-245.75999,-599.03998)"
         clip-rule="evenodd"
         id="path8" />
    </clipPath>
    <clipPath
       clipPathUnits="userSpaceOnUse"
       id="clipPath10">
      <path
         d="M 0,0.16 V 1122.5601 H 793.59998 V 0.16 Z"
         transform="translate(-245.75999,-599.03998)"
         clip-rule="evenodd"
         id="path10" />
    </clipPath>
    <clipPath
       clipPathUnits="userSpaceOnUse"
       id="clipPath12">
      <path
         d="M 0,0.16 V 1122.5601 H 793.59998 V 0.16 Z"
         transform="translate(-245.75999,-523.52002)"
         clip-rule="evenodd"
         id="path12" />
    </clipPath>
    <clipPath
       clipPathUnits="userSpaceOnUse"
       id="clipPath14">
      <path
         d="M 0,0.16 V 1122.5601 H 793.59998 V 0.16 Z"
         transform="translate(-245.75999,-523.52002)"
         clip-rule="evenodd"
         id="path14" />
    </clipPath>
  </defs>
  <sodipodi:namedview
     id="namedview1"
     pagecolor="#505050"
     bordercolor="#eeeeee"
     borderopacity="1"
     inkscape:showpageshadow="0"
     inkscape:pageopacity="0"
     inkscape:pagecheckerboard="0"
     inkscape:deskcolor="#505050">
    <inkscape:page
       x="0"
       y="0"
       inkscape:label="1"
       id="page1"
       width="304.17334"
       height="168.18668"
       margin="0"
       bleed="0" />
  </sodipodi:namedview>
  <g
     id="g1"
     inkscape:groupmode="layer"
     inkscape:label="1">
    <path
       id="path1"
       d="m 0,0 c 0,-20.85 -16.9,-37.759998 -37.759998,-37.759998 -20.860001,0 -37.759999,16.909998 -37.759999,37.759998 0,20.85 16.899998,37.759998 37.759999,37.759998 C -16.9,37.759998 0,20.85 0,0 Z"
       style="fill:none;stroke:#000000;stroke-width:26.4;stroke-linecap:round;stroke-linejoin:round;stroke-miterlimit:10;stroke-dasharray:none;stroke-opacity:1"
       transform="translate(510.07999,591.9733)"
       clip-path="url(#clipPath2)" />
    <path
       id="path3"
       d="m 0,0 c 0,-10.42 -8.45,-18.879999 -18.879999,-18.879999 -10.43,0 -18.879999,8.459999 -18.879999,18.879999 0,10.42 8.449999,18.879999 18.879999,18.879999 C -8.45,18.879999 0,10.42 0,0 Z"
       style="fill:none;stroke:#000000;stroke-width:26.4;stroke-linecap:round;stroke-linejoin:round;stroke-miterlimit:10;stroke-dasharray:none;stroke-opacity:1"
       transform="translate(377.92001,591.9733)"
       clip-path="url(#clipPath4)" />
    <path
       id="path5"
       d="m 359.04001,542.40002 18.88,-56.64001"
       style="fill:none;stroke:#000000;stroke-width:26.4;stroke-linecap:round;stroke-linejoin:round;stroke-miterlimit:10;stroke-dasharray:none;stroke-opacity:1"
       transform="translate(0,30.693275)"
       clip-path="url(#clipPath6)" />
    <path
       id="path7"
       d="m 0,0 3.36,-2.56 2.88,-3.04 2.72,-3.04 2.4,-3.52 2.08,-3.52 1.76,-3.84 1.439999,-3.840001 1.120001,-4 0.799999,-4.159999 0.32,-4.16 v -4.16 L 18.559999,-44 17.76,-48 16.639999,-52.16 15.2,-56 l -1.76,-3.84 -2.08,-3.520001 -2.4,-3.36 L 6.24,-69.919998 3.36,-72.800003 0,-75.519997"
       style="fill:none;stroke:#000000;stroke-width:26.4;stroke-linecap:round;stroke-linejoin:round;stroke-miterlimit:10;stroke-dasharray:none;stroke-opacity:1"
       transform="translate(245.75999,629.73325)"
       clip-path="url(#clipPath8)" />
    <path
       id="path9"
       d="M 0,0 3.68,0.8 7.2,1.44 10.88,1.6 14.56,1.44 18.08,0.96 21.6,0.16 25.120001,-0.96 28.48,-2.4 l 3.2,-1.92 3.040001,-1.92 2.719998,-2.4 L 40,-11.2 42.400002,-13.92 44.48,-16.959999 46.240002,-20.16 47.68,-23.52 l 1.119999,-3.359999 0.959999,-3.68 0.480004,-3.520003 0.16,-3.679996 -0.16,-3.680001 -0.480004,-3.52 L 48.799999,-48.48 47.68,-52 46.240002,-55.360001 44.48,-58.560001 42.400002,-61.439999 40,-64.32 37.439999,-66.879997 34.720001,-69.120003 31.68,-71.199997 28.48,-72.959999 25.120001,-74.400002 21.6,-75.68 l -3.52,-0.800003 -3.52,-0.479996 -3.68,-0.160004 -3.68,0.32 L 3.68,-76.32 0,-75.519997"
       style="fill:none;stroke:#000000;stroke-width:26.4;stroke-linecap:round;stroke-linejoin:round;stroke-miterlimit:10;stroke-dasharray:none;stroke-opacity:1"
       transform="translate(245.75999,629.73325)"
       clip-path="url(#clipPath10)" />
    <path
       id="path11"
       d="m 0,0 1.92,1.6 1.92,1.6 1.76,1.6 1.6,1.76 1.6,1.92 1.44,1.92 1.28,2.08 1.28,2.08 1.12,2.079999 1.12,2.24 0.8,2.240002 0.799999,2.24 0.800002,2.399999 0.479999,2.4 0.48,2.399999 0.319999,2.4 0.16,2.400002 V 37.759998 40.16 l -0.16,2.400001 L 18.4,45.119999 17.92,47.360001 17.440001,49.759998 16.639999,52.16 15.84,54.400002 l -0.8,2.239997 -1.12,2.240002 -1.12,2.079998 -1.28,2.080002 -1.28,2.080002 L 8.8,67.040001 7.2,68.959999 5.6,70.720001 3.84,72.480003 1.92,74.080002 0,75.519997 2.08,76 4,76.480003 l 2.08,0.32 2.08,0.159996 2.08,0.160004 h 1.92 l 2.08,-0.160004 2.08,-0.159996 2.08,-0.32 L 20.32,76 l 2.08,-0.480003 1.92,-0.64 1.92,-0.799995 L 28,73.279999 29.92,72.32 31.68,71.199997 33.439999,70.080002 35.040001,68.959999 36.639999,67.68 38.240002,66.239998 39.68,64.800003 40.959999,63.200001 42.240002,61.599998 43.52,60 44.639999,58.240002 45.599998,56.48 l 0.960003,-1.759999 0.8,-1.920002 0.799999,-1.919998 0.639999,-1.920002 0.48,-2.079998 0.479999,-1.920002 0.320004,-2.079998 0.16,-2.080002 0.16,-1.919998 v -2.080002 l -0.16,-2.079998 -0.16,-2.080002 -0.320004,-2.08 -0.479999,-1.92 -0.48,-1.92 -0.639999,-2.08 -0.799999,-1.92 -0.8,-1.76 -0.960003,-1.919998 -0.959999,-1.76 L 43.52,15.52 42.240002,13.92 40.959999,12.32 39.68,10.72 38.240002,9.28 36.639999,8 35.040001,6.72 33.439999,5.44 31.68,4.32 29.92,3.2 28,2.4 26.24,1.44 24.32,0.8 22.4,0.16 20.32,-0.48 18.4,-0.8 16.32,-1.12 14.24,-1.44 12.16,-1.6 H 10.24 L 8.16,-1.44 6.08,-1.28 4,-0.96 2.08,-0.48 0,0 v 0 z"
       style="fill:#000000;fill-opacity:1;fill-rule:evenodd;stroke:none"
       transform="translate(245.75999,554.21329)"
       clip-path="url(#clipPath12)" />
    <path
       id="path13"
       d="m 0,0 1.92,1.6 1.92,1.6 1.76,1.6 1.6,1.76 1.6,1.92 1.44,1.92 1.28,2.08 1.28,2.08 1.12,2.079999 1.12,2.24 0.8,2.240002 0.799999,2.24 0.800002,2.399999 0.479999,2.4 0.48,2.399999 0.319999,2.4 0.16,2.400002 V 37.759998 40.16 l -0.16,2.400001 L 18.4,45.119999 17.92,47.360001 17.440001,49.759998 16.639999,52.16 15.84,54.400002 l -0.8,2.239997 -1.12,2.240002 -1.12,2.079998 -1.28,2.080002 -1.28,2.080002 L 8.8,67.040001 7.2,68.959999 5.6,70.720001 3.84,72.480003 1.92,74.080002 0,75.519997 2.08,76 4,76.480003 l 2.08,0.32 2.08,0.159996 2.08,0.160004 h 1.92 l 2.08,-0.160004 2.08,-0.159996 2.08,-0.32 L 20.32,76 l 2.08,-0.480003 1.92,-0.64 1.92,-0.799995 L 28,73.279999 29.92,72.32 31.68,71.199997 33.439999,70.080002 35.040001,68.959999 36.639999,67.68 38.240002,66.239998 39.68,64.800003 40.959999,63.200001 42.240002,61.599998 43.52,60 44.639999,58.240002 45.599998,56.48 l 0.960003,-1.759999 0.8,-1.920002 0.799999,-1.919998 0.639999,-1.920002 0.48,-2.079998 0.479999,-1.920002 0.320004,-2.079998 0.16,-2.080002 0.16,-1.919998 v -2.080002 l -0.16,-2.079998 -0.16,-2.080002 -0.320004,-2.08 -0.479999,-1.92 -0.48,-1.92 -0.639999,-2.08 -0.799999,-1.92 -0.8,-1.76 -0.960003,-1.919998 -0.959999,-1.76 L 43.52,15.52 42.240002,13.92 40.959999,12.32 39.68,10.72 38.240002,9.28 36.639999,8 35.040001,6.72 33.439999,5.44 31.68,4.32 29.92,3.2 28,2.4 26.24,1.44 24.32,0.8 22.4,0.16 20.32,-0.48 18.4,-0.8 16.32,-1.12 14.24,-1.44 12.16,-1.6 H 10.24 L 8.16,-1.44 6.08,-1.28 4,-0.96 2.08,-0.48 0,0"
       style="fill:none;stroke:#000000;stroke-width:26.4;stroke-linecap:round;stroke-linejoin:round;stroke-miterlimit:10;stroke-dasharray:none;stroke-opacity:1"
       transform="translate(245.75999,554.21329)"
       clip-path="url(#clipPath14)" />
  </g>
</svg>
