<?xml version="1.0" encoding="UTF-8" standalone="no"?>
<!-- Created with Inkscape (http://www.inkscape.org/) -->

<svg
   version="1.1"
   id="svg1"
   width="270.81332"
   height="323.02667"
   viewBox="0 0 270.81332 323.02667"
   sodipodi:docname="Eris1.pdf"
   xmlns:inkscape="http://www.inkscape.org/namespaces/inkscape"
   xmlns:sodipodi="http://sodipodi.sourceforge.net/DTD/sodipodi-0.dtd"
   xmlns="http://www.w3.org/2000/svg"
   xmlns:svg="http://www.w3.org/2000/svg">
  <defs
     id="defs1">
    <clipPath
       clipPathUnits="userSpaceOnUse"
       id="clipPath2">
      <path
         d="M 26.4,26.559999 V 1096.16 H 767.03998 V 26.559999 Z"
         transform="translate(-304.64001,-728.96002)"
         clip-rule="evenodd"
         id="path2" />
    </clipPath>
    <clipPath
       clipPathUnits="userSpaceOnUse"
       id="clipPath4">
      <path
         d="M 26.4,26.559999 V 1096.16 H 767.03998 V 26.559999 Z"
         transform="translate(-531.20002,-477.11999)"
         clip-rule="evenodd"
         id="path4" />
    </clipPath>
    <clipPath
       clipPathUnits="userSpaceOnUse"
       id="clipPath6">
      <path
         d="M 26.4,26.559999 V 1096.16 H 767.03998 V 26.559999 Z"
         transform="translate(3.3333334e-6)"
         clip-rule="evenodd"
         id="path6" />
    </clipPath>
  </defs>
  <sodipodi:namedview
     id="namedview1"
     pagecolor="#505050"
     bordercolor="#eeeeee"
     borderopacity="1"
     inkscape:showpageshadow="0"
     inkscape:pageopacity="0"
     inkscape:pagecheckerboard="0"
     inkscape:deskcolor="#505050">
    <inkscape:page
       x="0"
       y="0"
       inkscape:label="1"
       id="page1"
       width="270.81332"
       height="323.02667"
       margin="0"
       bleed="0" />
  </sodipodi:namedview>
  <g
     id="g1"
     inkscape:groupmode="layer"
     inkscape:label="1">
    <path
       id="path1"
       d="m 0,0 6.56,-0.32 6.56,-0.64 6.56,-0.96 6.4,-1.6 6.4,-1.76 6.240001,-2.4 6.079998,-2.72 5.920002,-3.04 5.919998,-3.519999 5.600003,-3.84 5.439998,-4.16 5.120003,-4.480002 4.959999,-4.960001 4.64,-5.119998 4.319999,-5.439999 4.159996,-5.760002 3.680001,-6.079998 3.520004,-6.240002 L 101.12,-69.440002 104,-76 l 2.4,-6.879997 2.08,-6.880005 1.76,-7.199997 1.28,-7.040001 0.96,-7.36 0.64,-7.2 0.16,-7.36 -0.16,-7.36 -0.64,-7.2 -0.96,-7.36 -1.28,-7.04 -1.76,-7.2 -2.08,-6.88001 -2.4,-6.87999 -2.88,-6.55999 -3.039998,-6.40001 -3.520004,-6.23999 -3.680001,-6.08 -4.159996,-5.76001 -4.319999,-5.44001 -4.64,-5.11999 -4.959999,-4.95999 L 67.68,-226.88 l -5.439998,-4.15999 -5.600003,-3.84001 -5.919998,-3.51999 -5.920002,-3.04001 -6.079998,-2.72 -6.240001,-2.4 -6.4,-1.76001 -6.4,-1.59999 -6.56,-0.96 -6.56,-0.64 -6.56,-0.32"
       style="fill:none;stroke:#000000;stroke-width:26.4;stroke-linecap:round;stroke-linejoin:round;stroke-miterlimit:10;stroke-dasharray:none;stroke-opacity:1"
       transform="translate(24.493348,288.47996)"
       clip-path="url(#clipPath2)" />
    <path
       id="path3"
       d="m 0,0 -6.72,0.32 -6.56,0.64 -6.4,0.96 -6.56,1.6 -6.24,1.76 -6.240001,2.4 -6.239998,2.72 -5.920002,3.04 -5.759998,3.519999 -5.600003,3.84 -5.439998,4.16 -5.120003,4.480002 -4.959999,4.960001 -4.64,5.119998 -4.479995,5.439999 -4,5.760002 -3.840004,6.079998 -3.360001,6.240002 L -101.28,69.440002 -104,76 l -2.56,6.879997 -2.08,6.880005 -1.6,7.199997 -1.44,7.040001 -0.96,7.36 -0.48,7.2 -0.16,7.36 0.16,7.36 0.48,7.2 0.96,7.36 1.44,7.04 1.6,7.2 2.08,6.88001 2.56,6.87999 2.72,6.55999 3.199998,6.40001 3.360001,6.23999 3.840004,6.08 4,5.76001 4.479995,5.44001 4.64,5.11999 4.959999,4.95999 5.120003,4.48001 5.439998,4.15999 5.600003,3.84001 5.759998,3.51999 5.920002,3.04001 6.239998,2.72 6.240001,2.4 6.24,1.76001 6.56,1.59999 6.4,0.96 6.56,0.64 6.72,0.32"
       style="fill:none;stroke:#000000;stroke-width:26.4;stroke-linecap:round;stroke-linejoin:round;stroke-miterlimit:10;stroke-dasharray:none;stroke-opacity:1"
       transform="translate(251.05335,36.639936)"
       clip-path="url(#clipPath4)" />
    <path
       id="path5"
       d="M 417.92001,452 V 754.08002"
       style="fill:none;stroke:#000000;stroke-width:26.4;stroke-linecap:round;stroke-linejoin:round;stroke-miterlimit:10;stroke-dasharray:none;stroke-opacity:1"
       transform="translate(-280.14667,-440.48006)"
       clip-path="url(#clipPath6)" />
  </g>
</svg>
