<?xml version="1.0" encoding="UTF-8" standalone="no"?>
<!-- Created with Inkscape (http://www.inkscape.org/) -->

<svg
   version="1.1"
   id="svg1"
   width="197.44"
   height="341.70667"
   viewBox="0 0 197.44 341.70667"
   sodipodi:docname="FirstQuarterMoon.pdf"
   xmlns:inkscape="http://www.inkscape.org/namespaces/inkscape"
   xmlns:sodipodi="http://sodipodi.sourceforge.net/DTD/sodipodi-0.dtd"
   xmlns="http://www.w3.org/2000/svg"
   xmlns:svg="http://www.w3.org/2000/svg">
  <defs
     id="defs1">
    <clipPath
       clipPathUnits="userSpaceOnUse"
       id="clipPath2">
      <path
         d="M 0,0.16 V 1122.5601 H 793.59998 V 0.16 Z"
         transform="translate(-396.79999,-636.79999)"
         clip-rule="evenodd"
         id="path2" />
    </clipPath>
    <clipPath
       clipPathUnits="userSpaceOnUse"
       id="clipPath4">
      <path
         d="M 0,0.16 V 1122.5601 H 793.59998 V 0.16 Z"
         transform="translate(-396.79999,-636.79999)"
         clip-rule="evenodd"
         id="path4" />
    </clipPath>
  </defs>
  <sodipodi:namedview
     id="namedview1"
     pagecolor="#505050"
     bordercolor="#eeeeee"
     borderopacity="1"
     inkscape:showpageshadow="0"
     inkscape:pageopacity="0"
     inkscape:pagecheckerboard="0"
     inkscape:deskcolor="#505050">
    <inkscape:page
       x="0"
       y="0"
       inkscape:label="1"
       id="page1"
       width="197.44"
       height="341.70667"
       margin="0"
       bleed="0" />
  </sodipodi:namedview>
  <g
     id="g1"
     inkscape:groupmode="layer"
     inkscape:label="1">
    <path
       id="path1"
       d="m 0,0 8.16,-0.16 8.16,-0.64 8.16,-1.12 8,-1.6 8,-1.92 7.84,-2.4 7.68,-2.88 7.52,-3.2 7.200001,-3.68 7.199997,-4 6.880005,-4.48 6.719994,-4.639999 6.240005,-5.120001 6.079998,-5.599999 5.92,-5.760002 5.44,-6.079998 5.12,-6.400001 4.8,-6.559998 4.32,-6.880005 4,-7.199997 3.67999,-7.199997 3.20002,-7.520004 2.87999,-7.679999 2.40001,-7.84 1.91999,-8 1.59999,-8 1.12001,-8.16 0.64,-8.16 0.15999,-8.15999 -0.15999,-8.16001 -0.64,-8.16 -1.12001,-8.16 -1.59999,-8 -1.91999,-7.84 -2.40001,-7.84 -2.87999,-7.68 -3.20002,-7.51999 -3.67999,-7.36 -4,-7.04001 -4.32,-7.04 -4.8,-6.55999 -5.12,-6.40001 -5.44,-6.08 -5.92,-5.76001 -6.079998,-5.43998 -6.240005,-5.12002 -6.719994,-4.79999 -6.880005,-4.48001 -7.199997,-4 L 63.52,-288.16 56,-291.35999 l -7.68,-2.72 -7.84,-2.40002 -8,-2.07999 -8,-1.44 -8.16,-1.12 -8.16,-0.64001 -8.16,-0.31998"
       style="fill:none;stroke:#000000;stroke-width:26.4;stroke-linecap:round;stroke-linejoin:round;stroke-miterlimit:10;stroke-dasharray:none;stroke-opacity:1"
       transform="translate(396.79999,790.29326)"
       clip-path="url(#clipPath2)" />
    <path
       id="path3"
       d="m 0,0 6.72,-2.56 6.56,-3.04 6.4,-3.36 6.24,-3.84 6.24,-4.320001 L 37.919998,-21.6 43.68,-26.719999 49.119999,-32 54.240002,-37.599998 59.200001,-43.68 63.84,-50.080002 68.160004,-56.639999 72.32,-63.52 76,-70.559998 l 3.519997,-7.520004 3.040001,-7.519996 2.720001,-7.680001 L 87.68,-101.28 l 2.080002,-8 1.599999,-8.32 1.440002,-8.16 0.959999,-8.48 0.479996,-8.32 0.160004,-8.47999 -0.160004,-8.48001 -0.479996,-8.32 -0.959999,-8.32 -1.440002,-8.32 -1.599999,-8.16 -2.080002,-8.16 -2.400001,-7.84 -2.720001,-7.84 L 79.519997,-224 76,-231.36 l -3.68,-7.2 -4.159996,-6.88 L 63.84,-252 l -4.639999,-6.39999 -4.959999,-5.92002 -5.120003,-5.75998 -5.439999,-5.28 -5.760002,-4.96002 -5.759998,-4.63998 -6.24,-4.32001 -6.24,-3.67999 -6.4,-3.52002 -6.56,-3.03998 -6.72,-2.56"
       style="fill:none;stroke:#000000;stroke-width:26.4;stroke-linecap:round;stroke-linejoin:round;stroke-miterlimit:10;stroke-dasharray:none;stroke-opacity:1"
       transform="translate(396.79999,790.29326)"
       clip-path="url(#clipPath4)" />
  </g>
</svg>
