<?xml version="1.0" encoding="UTF-8" standalone="no"?>
<!-- Created with Inkscape (http://www.inkscape.org/) -->

<svg
   version="1.1"
   id="svg1"
   width="504.26666"
   height="387.09332"
   viewBox="0 0 504.26666 387.09332"
   sodipodi:docname="FixedStar3.pdf"
   xmlns:inkscape="http://www.inkscape.org/namespaces/inkscape"
   xmlns:sodipodi="http://sodipodi.sourceforge.net/DTD/sodipodi-0.dtd"
   xmlns="http://www.w3.org/2000/svg"
   xmlns:svg="http://www.w3.org/2000/svg">
  <defs
     id="defs1">
    <clipPath
       clipPathUnits="userSpaceOnUse"
       id="clipPath2">
      <path
         d="M 0,0.16 V 1122.5601 H 793.59998 V 0.16 Z"
         transform="translate(-566.71997,-448.48001)"
         clip-rule="evenodd"
         id="path2" />
    </clipPath>
    <clipPath
       clipPathUnits="userSpaceOnUse"
       id="clipPath4">
      <path
         d="M 0,0.16 V 1122.5601 H 793.59998 V 0.16 Z"
         clip-rule="evenodd"
         id="path4" />
    </clipPath>
    <clipPath
       clipPathUnits="userSpaceOnUse"
       id="clipPath6">
      <path
         d="M 0,0.16 V 1122.5601 H 793.59998 V 0.16 Z"
         clip-rule="evenodd"
         id="path6" />
    </clipPath>
    <clipPath
       clipPathUnits="userSpaceOnUse"
       id="clipPath8">
      <path
         d="M 0,0.16 V 1122.5601 H 793.59998 V 0.16 Z"
         clip-rule="evenodd"
         id="path8" />
    </clipPath>
    <clipPath
       clipPathUnits="userSpaceOnUse"
       id="clipPath10">
      <path
         d="M 0,0.16 V 1122.5601 H 793.59998 V 0.16 Z"
         clip-rule="evenodd"
         id="path10" />
    </clipPath>
    <clipPath
       clipPathUnits="userSpaceOnUse"
       id="clipPath12">
      <path
         d="M 0,0.16 V 1122.5601 H 793.59998 V 0.16 Z"
         transform="translate(-209.28,-722.88)"
         clip-rule="evenodd"
         id="path12" />
    </clipPath>
  </defs>
  <sodipodi:namedview
     id="namedview1"
     pagecolor="#505050"
     bordercolor="#eeeeee"
     borderopacity="1"
     inkscape:showpageshadow="0"
     inkscape:pageopacity="0"
     inkscape:pagecheckerboard="0"
     inkscape:deskcolor="#505050">
    <inkscape:page
       x="0"
       y="0"
       inkscape:label="1"
       id="page1"
       width="504.26666"
       height="387.09332"
       margin="0"
       bleed="0" />
  </sodipodi:namedview>
  <g
     id="g1"
     inkscape:groupmode="layer"
     inkscape:label="1">
    <path
       id="path1"
       d="m 0,0 -6.88,0.32 -6.72,0.64 -6.72,0.96 -6.720001,1.44 -6.559997,1.76 -6.560002,2.24 -6.240002,2.72 -6.239997,3.04 -5.920002,3.36 -5.759999,3.68 -5.440002,4 -5.279999,4.32 L -80,33.279999 l -4.800003,4.960003 -4.32,5.279998 -4,5.439999 -3.839996,5.760002 -3.360001,5.919998 -2.88,6.239998 -2.72,6.240006 -2.24,6.559997 -1.76,6.559998 -1.44,6.720001 -1.12,6.720001 -0.48,6.88 -0.32,6.72 0.32,6.88 0.48,6.88 1.12,6.71999 1.44,6.72001 1.76,6.55999 2.24,6.40001 2.72,6.4 2.88,6.08 3.360001,6.08 3.839996,5.75999 4,5.44001 4.32,5.28 4.800003,4.96 4.959999,4.64 5.279999,4.48 5.440002,4 5.759999,3.68 5.920002,3.36001 6.239997,3.03999 6.240002,2.56 6.560002,2.24 6.559997,1.92 6.720001,1.44 6.72,0.95999 6.72,0.64 L 0,226.56"
       style="fill:none;stroke:#000000;stroke-width:26.4;stroke-linecap:round;stroke-linejoin:round;stroke-miterlimit:10;stroke-dasharray:none;stroke-opacity:1"
       transform="translate(566.71997,455.14662)"
       clip-path="url(#clipPath2)" />
    <path
       id="path3"
       d="m 566.71997,448.48001 h 56.64001"
       style="fill:none;stroke:#000000;stroke-width:26.4;stroke-linecap:round;stroke-linejoin:round;stroke-miterlimit:10;stroke-dasharray:none;stroke-opacity:1"
       transform="translate(0,6.666608)"
       clip-path="url(#clipPath4)" />
    <path
       id="path5"
       d="m 566.71997,675.03998 h 56.64001"
       style="fill:none;stroke:#000000;stroke-width:26.4;stroke-linecap:round;stroke-linejoin:round;stroke-miterlimit:10;stroke-dasharray:none;stroke-opacity:1"
       transform="translate(0,6.666608)"
       clip-path="url(#clipPath6)" />
    <path
       id="path7"
       d="M 566.71997,561.76001 H 170.24"
       style="fill:none;stroke:#000000;stroke-width:26.4;stroke-linecap:round;stroke-linejoin:round;stroke-miterlimit:10;stroke-dasharray:none;stroke-opacity:1"
       transform="translate(0,6.666608)"
       clip-path="url(#clipPath8)" />
    <path
       id="path9"
       d="M 172.32001,391.35999 V 731.20001"
       style="fill:none;stroke:#000000;stroke-width:26.4;stroke-linecap:round;stroke-linejoin:round;stroke-miterlimit:10;stroke-dasharray:none;stroke-opacity:1"
       transform="translate(0,6.666608)"
       clip-path="url(#clipPath10)" />
    <path
       id="path11"
       d="m 0,0 5.28,-2.72 4.96,-3.04 4.8,-3.36 4.48,-3.68 4.16,-3.999999 4,-4.320002 3.680001,-4.639999 3.2,-4.799999 L 37.599998,-35.52 40.32,-40.799999 42.560001,-46.080002 44.48,-51.68 l 1.439998,-5.599999 1.120003,-5.600002 0.799999,-5.920002 0.32,-5.759995 V -80.32 L 47.68,-86.239998 46.720001,-92 45.599998,-97.599998 43.84,-103.2 l -1.920002,-5.6 -2.399998,-5.28 -2.720001,-5.12 -3.040001,-4.96 -3.519998,-4.64 -3.680001,-4.48 -4,-4.32001 L 18.24,-141.44 13.6,-145.11999 8.8,-148.48 l -4.96,-2.88 -5.28,-2.72 -5.28,-2.24001 -5.6,-1.75999 -5.6,-1.59999 -5.76,-1.12001"
       style="fill:none;stroke:#000000;stroke-width:26.4;stroke-linecap:round;stroke-linejoin:round;stroke-miterlimit:10;stroke-dasharray:none;stroke-opacity:1"
       transform="translate(209.28,729.54661)"
       clip-path="url(#clipPath12)" />
  </g>
</svg>
