<?xml version="1.0" encoding="UTF-8" standalone="no"?>
<!-- Created with Inkscape (http://www.inkscape.org/) -->

<svg
   version="1.1"
   id="svg1"
   width="469.57333"
   height="344.37332"
   viewBox="0 0 469.57333 344.37332"
   sodipodi:docname="FixedStar2.pdf"
   xmlns:inkscape="http://www.inkscape.org/namespaces/inkscape"
   xmlns:sodipodi="http://sodipodi.sourceforge.net/DTD/sodipodi-0.dtd"
   xmlns="http://www.w3.org/2000/svg"
   xmlns:svg="http://www.w3.org/2000/svg">
  <defs
     id="defs1">
    <clipPath
       clipPathUnits="userSpaceOnUse"
       id="clipPath2">
      <path
         d="M 0,0.16 V 1122.5601 H 793.59998 V 0.16 Z"
         transform="translate(-566.71997,-476.32001)"
         clip-rule="evenodd"
         id="path2" />
    </clipPath>
    <clipPath
       clipPathUnits="userSpaceOnUse"
       id="clipPath4">
      <path
         d="M 0,0.16 V 1122.5601 H 793.59998 V 0.16 Z"
         transform="translate(3.3333334e-6)"
         clip-rule="evenodd"
         id="path4" />
    </clipPath>
    <clipPath
       clipPathUnits="userSpaceOnUse"
       id="clipPath6">
      <path
         d="M 0,0.16 V 1122.5601 H 793.59998 V 0.16 Z"
         transform="translate(3.3333334e-6)"
         clip-rule="evenodd"
         id="path6" />
    </clipPath>
    <clipPath
       clipPathUnits="userSpaceOnUse"
       id="clipPath8">
      <path
         d="M 0,0.16 V 1122.5601 H 793.59998 V 0.16 Z"
         transform="translate(3.3333334e-6)"
         clip-rule="evenodd"
         id="path8" />
    </clipPath>
    <clipPath
       clipPathUnits="userSpaceOnUse"
       id="clipPath10">
      <path
         d="M 0,0.16 V 1122.5601 H 793.59998 V 0.16 Z"
         transform="translate(-264.64002,-551.84003)"
         clip-rule="evenodd"
         id="path10" />
    </clipPath>
    <clipPath
       clipPathUnits="userSpaceOnUse"
       id="clipPath12">
      <path
         d="M 0,0.16 V 1122.5601 H 793.59998 V 0.16 Z"
         transform="translate(3.3333334e-6)"
         clip-rule="evenodd"
         id="path12" />
    </clipPath>
  </defs>
  <sodipodi:namedview
     id="namedview1"
     pagecolor="#505050"
     bordercolor="#eeeeee"
     borderopacity="1"
     inkscape:showpageshadow="0"
     inkscape:pageopacity="0"
     inkscape:pagecheckerboard="0"
     inkscape:deskcolor="#505050">
    <inkscape:page
       x="0"
       y="0"
       inkscape:label="1"
       id="page1"
       width="469.57333"
       height="344.37332"
       margin="0"
       bleed="0" />
  </sodipodi:namedview>
  <g
     id="g1"
     inkscape:groupmode="layer"
     inkscape:label="1">
    <path
       id="path1"
       d="M 0,0 -5.28,0.16 -10.72,0.8 -16,1.76 -21.280001,3.04 -26.4,4.8 -31.360001,6.88 -36.16,9.28 -40.799999,12 l -4.48,3.04 -4.16,3.36 -3.84,3.68 -3.68,4 -3.520001,4.16 -3.04,4.480001 -2.719998,4.64 -2.400001,4.799999 -2.080002,4.959999 -1.760002,5.120003 -1.279999,5.279998 -0.959999,5.280003 -0.64,5.279999 -0.159996,5.439995 0.159996,5.440002 0.64,5.279999 0.959999,5.279999 1.279999,5.280006 1.760002,5.119997 2.080002,4.96 2.400001,4.8 2.719998,4.64 3.04,4.48 3.520001,4.16 3.68,4.00001 3.84,3.67999 4.16,3.36 4.48,3.03999 4.639999,2.72 4.799999,2.40001 4.960001,2.08 5.119999,1.76 5.280001,1.28 5.28,0.96 5.44,0.64 5.28,0.15999"
       style="fill:none;stroke:#000000;stroke-width:26.4;stroke-linecap:round;stroke-linejoin:round;stroke-miterlimit:10;stroke-dasharray:none;stroke-opacity:1"
       transform="translate(405.2933,95.906615)"
       clip-path="url(#clipPath2)" />
    <path
       id="path3"
       d="m 566.71997,476.32001 h 37.76001"
       style="fill:none;stroke:#000000;stroke-width:26.4;stroke-linecap:round;stroke-linejoin:round;stroke-miterlimit:10;stroke-dasharray:none;stroke-opacity:1"
       transform="translate(-161.42667,-380.41339)"
       clip-path="url(#clipPath4)" />
    <path
       id="path5"
       d="m 566.71997,627.35998 h 37.76001"
       style="fill:none;stroke:#000000;stroke-width:26.4;stroke-linecap:round;stroke-linejoin:round;stroke-miterlimit:10;stroke-dasharray:none;stroke-opacity:1"
       transform="translate(-161.42667,-380.41339)"
       clip-path="url(#clipPath6)" />
    <path
       id="path7"
       d="m 491.20001,551.84003 h -226.56"
       style="fill:none;stroke:#000000;stroke-width:26.4;stroke-linecap:round;stroke-linejoin:round;stroke-miterlimit:10;stroke-dasharray:none;stroke-opacity:1"
       transform="translate(-161.42667,-380.41339)"
       clip-path="url(#clipPath8)" />
    <path
       id="path9"
       d="M 0,0 -5.28,0.16 -10.72,0.8 -16,1.76 -21.280001,3.04 -26.4,4.8 -31.360001,6.88 -36.32,9.28 l -4.639999,2.88 -4.32,3.04 -4.319999,3.359999 -3.840001,3.680001 -3.68,4 -3.360001,4.16 -3.2,4.480001 -2.720002,4.639999 -2.400001,4.96 -2.079994,4.959999 -1.600006,5.120002 -1.279999,5.279999 -0.959999,5.280003 -0.64,5.439995 L -75.519997,76 l 0.32,5.279999 0.639999,5.440002 0.96,5.279999 1.279998,5.279999 1.760002,5.120001 2.079995,4.96 2.560005,4.8 2.719997,4.64 3.200001,4.48 3.360001,4.16 3.68,4 4,3.52001 4.32,3.36 4.479999,3.03999 4.64,2.72 4.800001,2.4 5.119999,2.08 5.12,1.6 5.28,1.28 5.28,0.95999 5.44,0.48001 5.44,0.15999 5.28,-0.31999 5.44,-0.64 5.279999,-0.96001 5.280001,-1.44 5.120001,-1.75999 4.959999,-2.08 4.799999,-2.56 4.639999,-2.72 4.320004,-3.2 4.16,-3.36 4,-3.84 3.519996,-4 3.360001,-4.16 3.040005,-4.64 2.719993,-4.64 2.400002,-4.8 1.919998,-5.12 1.600006,-5.12 1.279999,-5.279998 0.959999,-5.279999 L 75.519997,79.68 V 74.239998 L 75.360001,68.959999 74.559998,63.52 73.599998,58.240002 72.160004,52.959999 70.400002,47.84 68.160004,42.880001 65.599998,38.080002 62.720001,33.439999"
       style="fill:none;stroke:#000000;stroke-width:26.4;stroke-linecap:round;stroke-linejoin:round;stroke-miterlimit:10;stroke-dasharray:none;stroke-opacity:1"
       transform="translate(103.21335,171.42664)"
       clip-path="url(#clipPath10)" />
    <path
       id="path11"
       d="m 327.51999,585.44 -138.4,-165.76001"
       style="fill:none;stroke:#000000;stroke-width:26.4;stroke-linecap:round;stroke-linejoin:round;stroke-miterlimit:10;stroke-dasharray:none;stroke-opacity:1"
       transform="translate(-161.42667,-380.41339)"
       clip-path="url(#clipPath12)" />
  </g>
</svg>
