<?xml version="1.0" encoding="UTF-8" standalone="no"?>
<!-- Created with Inkscape (http://www.inkscape.org/) -->

<svg
   version="1.1"
   id="svg1"
   width="448.25333"
   height="393.76001"
   viewBox="0 0 448.25333 393.76001"
   sodipodi:docname="Gonggong.pdf"
   xmlns:inkscape="http://www.inkscape.org/namespaces/inkscape"
   xmlns:sodipodi="http://sodipodi.sourceforge.net/DTD/sodipodi-0.dtd"
   xmlns="http://www.w3.org/2000/svg"
   xmlns:svg="http://www.w3.org/2000/svg">
  <defs
     id="defs1">
    <clipPath
       clipPathUnits="userSpaceOnUse"
       id="clipPath2">
      <path
         d="M 26.4,26.559999 V 1096.16 H 767.03998 V 26.559999 Z"
         transform="translate(-606.71997,-659.67999)"
         clip-rule="evenodd"
         id="path2" />
    </clipPath>
    <clipPath
       clipPathUnits="userSpaceOnUse"
       id="clipPath4">
      <path
         d="M 26.4,26.559999 V 1096.16 H 767.03998 V 26.559999 Z"
         clip-rule="evenodd"
         id="path4" />
    </clipPath>
    <clipPath
       clipPathUnits="userSpaceOnUse"
       id="clipPath6">
      <path
         d="M 26.4,26.559999 V 1096.16 H 767.03998 V 26.559999 Z"
         clip-rule="evenodd"
         id="path6" />
    </clipPath>
    <clipPath
       clipPathUnits="userSpaceOnUse"
       id="clipPath8">
      <path
         d="M 26.4,26.559999 V 1096.16 H 767.03998 V 26.559999 Z"
         clip-rule="evenodd"
         id="path8" />
    </clipPath>
    <clipPath
       clipPathUnits="userSpaceOnUse"
       id="clipPath10">
      <path
         d="M 26.4,26.559999 V 1096.16 H 767.03998 V 26.559999 Z"
         clip-rule="evenodd"
         id="path10" />
    </clipPath>
    <clipPath
       clipPathUnits="userSpaceOnUse"
       id="clipPath12">
      <path
         d="M 26.4,26.559999 V 1096.16 H 767.03998 V 26.559999 Z"
         transform="translate(-304.64001,-603.03998)"
         clip-rule="evenodd"
         id="path12" />
    </clipPath>
    <clipPath
       clipPathUnits="userSpaceOnUse"
       id="clipPath14">
      <path
         d="M 26.4,26.559999 V 1096.16 H 767.03998 V 26.559999 Z"
         transform="translate(-550.08002,-603.03998)"
         clip-rule="evenodd"
         id="path14" />
    </clipPath>
  </defs>
  <sodipodi:namedview
     id="namedview1"
     pagecolor="#505050"
     bordercolor="#eeeeee"
     borderopacity="1"
     inkscape:showpageshadow="0"
     inkscape:pageopacity="0"
     inkscape:pagecheckerboard="0"
     inkscape:deskcolor="#505050">
    <inkscape:page
       x="0"
       y="0"
       inkscape:label="1"
       id="page1"
       width="448.25333"
       height="393.76001"
       margin="0"
       bleed="0" />
  </sodipodi:namedview>
  <g
     id="g1"
     inkscape:groupmode="layer"
     inkscape:label="1">
    <path
       id="path1"
       d="M 0,0 C 0,-31.280001 -25.35,-56.639999 -56.639999,-56.639999 -87.93,-56.639999 -113.28,-31.280001 -113.28,0 c 0,31.280001 25.35,56.639999 56.640001,56.639999 C -25.35,56.639999 0,31.280001 0,0 Z"
       style="fill:none;stroke:#000000;stroke-width:26.4;stroke-linecap:round;stroke-linejoin:round;stroke-miterlimit:10;stroke-dasharray:none;stroke-opacity:1"
       transform="translate(606.71997,691.7066)"
       clip-path="url(#clipPath2)" />
    <path
       id="path3"
       d="M 210.24,470.88 H 587.84003"
       style="fill:none;stroke:#000000;stroke-width:26.4;stroke-linecap:round;stroke-linejoin:round;stroke-miterlimit:10;stroke-dasharray:none;stroke-opacity:1"
       transform="translate(0,32.026608)"
       clip-path="url(#clipPath4)" />
    <path
       id="path5"
       d="M 210.24,565.28003 H 587.84003"
       style="fill:none;stroke:#000000;stroke-width:26.4;stroke-linecap:round;stroke-linejoin:round;stroke-miterlimit:10;stroke-dasharray:none;stroke-opacity:1"
       transform="translate(0,32.026608)"
       clip-path="url(#clipPath6)" />
    <path
       id="path7"
       d="M 493.44,376.48001 V 659.67999"
       style="fill:none;stroke:#000000;stroke-width:26.4;stroke-linecap:round;stroke-linejoin:round;stroke-miterlimit:10;stroke-dasharray:none;stroke-opacity:1"
       transform="translate(0,32.026608)"
       clip-path="url(#clipPath8)" />
    <path
       id="path9"
       d="M 304.64001,376.48001 V 565.28003"
       style="fill:none;stroke:#000000;stroke-width:26.4;stroke-linecap:round;stroke-linejoin:round;stroke-miterlimit:10;stroke-dasharray:none;stroke-opacity:1"
       transform="translate(0,32.026608)"
       clip-path="url(#clipPath10)" />
    <path
       id="path11"
       d="m 0,0 -4.48,0.16 -4.48,0.48 -4.32,0.96 -4.32,1.12 -4.16,1.6 -4,1.92 -3.84,2.08 -3.679999,2.56 -3.52,2.72 -3.360001,3.039999 -2.880001,3.200001 -2.879997,3.520001 -2.400002,3.68 -2.240001,3.839998 -1.759999,4.160002 -1.599998,4.16 -1.120003,4.16 L -56,47.84 l -0.48,4.32 -0.159999,4.479999 0.159999,4.48 0.48,4.320003 0.959999,4.479996 1.120003,4.160004 1.599998,4.159996 1.759999,4.160004 2.240001,3.839996 2.400002,3.68 2.879997,3.520004 2.880001,3.199997 3.360001,3.040001 3.52,2.72 3.679999,2.56 3.84,2.08 4,1.92 4.16,1.6 4.32,1.12 4.32,0.96 4.48,0.48 4.48,0.16"
       style="fill:none;stroke:#000000;stroke-width:26.4;stroke-linecap:round;stroke-linejoin:round;stroke-miterlimit:10;stroke-dasharray:none;stroke-opacity:1"
       transform="translate(304.64001,635.06659)"
       clip-path="url(#clipPath12)" />
    <path
       id="path13"
       d="m 0,0 -5.44,0.16 -4.48,0.64 -4.32,0.8 -4,1.12 -3.84,1.44 -3.68,1.76 -3.520001,2.24 -3.199999,2.56 -3.2,2.88 -2.880001,3.359999 -2.879998,3.68 -2.560001,4.16 -2.560001,4.800001 -2.559998,5.440001 -2.400001,6.399998 -2.720002,7.68 L -55.040001,52 -56.32,55.360001 -59.040001,63.68 -61.599998,71.040001 -64,77.760002 -66.080002,83.68 l -2.080002,5.279999 -1.919998,4.480003 -1.919998,4 -1.760002,3.519998 -1.759995,2.88 -0.960006,1.28 -1.759995,2.08 L -80,108.96 -81.919998,110.4 -84,111.52 l -2.400002,0.96 -2.720001,0.48 -3.36,0.32 H -96.32 h -1.279998 -1.440003 -4.639999 -4.48 -4.48 -4.48 -4.64 -4.96 -5.12 -5.44 l -5.6,-0.16 h -4.32 -4.32 -6.56 -7.36 -8.48 L -184,112.96 h -12.64 -10.72 -11.36 l -6.24001,0.16 H -234.72 l -7.84,0.16 h -2.88"
       style="fill:none;stroke:#000000;stroke-width:26.4;stroke-linecap:round;stroke-linejoin:round;stroke-miterlimit:10;stroke-dasharray:none;stroke-opacity:1"
       transform="translate(550.08002,635.06659)"
       clip-path="url(#clipPath14)" />
  </g>
</svg>
