<?xml version="1.0" encoding="UTF-8" standalone="no"?>
<!-- Created with Inkscape (http://www.inkscape.org/) -->

<svg
   version="1.1"
   id="svg1"
   width="652.34668"
   height="485.86667"
   viewBox="0 0 652.34668 485.86667"
   sodipodi:docname="Hathor.pdf"
   xmlns:inkscape="http://www.inkscape.org/namespaces/inkscape"
   xmlns:sodipodi="http://sodipodi.sourceforge.net/DTD/sodipodi-0.dtd"
   xmlns="http://www.w3.org/2000/svg"
   xmlns:svg="http://www.w3.org/2000/svg">
  <defs
     id="defs1">
    <clipPath
       clipPathUnits="userSpaceOnUse"
       id="clipPath2">
      <path
         d="M 0,0.16 V 1122.5601 H 793.59998 V 0.16 Z"
         transform="translate(-208,-561.28003)"
         clip-rule="evenodd"
         id="path2" />
    </clipPath>
    <clipPath
       clipPathUnits="userSpaceOnUse"
       id="clipPath4">
      <path
         d="M 0,0.16 V 1122.5601 H 793.59998 V 0.16 Z"
         transform="translate(-208,-561.28003)"
         clip-rule="evenodd"
         id="path4" />
    </clipPath>
    <clipPath
       clipPathUnits="userSpaceOnUse"
       id="clipPath6">
      <path
         d="M 0,0.16 V 1122.5601 H 793.59998 V 0.16 Z"
         transform="translate(-698.88001,-561.28003)"
         clip-rule="evenodd"
         id="path6" />
    </clipPath>
    <clipPath
       clipPathUnits="userSpaceOnUse"
       id="clipPath8">
      <path
         d="M 0,0.16 V 1122.5601 H 793.59998 V 0.16 Z"
         clip-rule="evenodd"
         id="path8" />
    </clipPath>
    <clipPath
       clipPathUnits="userSpaceOnUse"
       id="clipPath10">
      <path
         d="M 0,0.16 V 1122.5601 H 793.59998 V 0.16 Z"
         clip-rule="evenodd"
         id="path10" />
    </clipPath>
  </defs>
  <sodipodi:namedview
     id="namedview1"
     pagecolor="#505050"
     bordercolor="#eeeeee"
     borderopacity="1"
     inkscape:showpageshadow="0"
     inkscape:pageopacity="0"
     inkscape:pagecheckerboard="0"
     inkscape:deskcolor="#505050">
    <inkscape:page
       x="0"
       y="0"
       inkscape:label="1"
       id="page1"
       width="652.34668"
       height="485.86667"
       margin="0"
       bleed="0" />
  </sodipodi:namedview>
  <g
     id="g1"
     inkscape:groupmode="layer"
     inkscape:label="1">
    <path
       id="path1"
       d="m 0,0 0.32,9.28 0.64,9.279999 1.12,9.120001 1.6,9.119999 2.08,9.119999 2.4,8.960003 2.88,8.799999 3.36,8.64 3.84,8.480003 4.16,8.159996 4.479999,8.160004 L 31.84,104.96 l 5.439999,7.52 5.600002,7.36 6.079998,7.04 6.400002,6.56 6.720001,6.4 7.040001,6.08 7.199997,5.75999 7.68,5.28002 7.839996,4.95999 8,4.64 8.320004,4.16 8.48,3.67999 8.64,3.36 8.8,2.88001 8.95999,2.56 8.96001,1.91999 9.11999,1.60001 9.28,1.12 9.12001,0.8 9.28,0.16 9.28,-0.16 9.28,-0.8 9.12,-1.12 9.27999,-1.60001 8.96001,-1.91999 8.95999,-2.56 8.80001,-2.88001 8.64,-3.36 8.48001,-3.67999 8.32,-4.16 8,-4.64 7.84,-4.95999 7.51999,-5.28002 7.36001,-5.75999 7.03998,-6.08 6.72,-6.4 6.4,-6.56 5.92001,-7.04 5.76001,-7.36 5.28,-7.52 4.95999,-7.839997 4.63999,-8.160004 4.16,-8.159996 3.68002,-8.480003 3.35999,-8.64 2.88,-8.799999 2.56,-8.960003 2.07999,-9.119999 1.44,-9.119999 1.28,-9.120001 L 377.44,9.28 377.60001,0"
       style="fill:none;stroke:#000000;stroke-width:26.4;stroke-linecap:round;stroke-linejoin:round;stroke-miterlimit:10;stroke-dasharray:none;stroke-opacity:1"
       transform="translate(137.29333,80.75997)"
       clip-path="url(#clipPath2)" />
    <path
       id="path3"
       d="m 0,0 -0.16,-4.48 -0.48,-4.32 -0.8,-4.48 -1.28,-4.160001 -1.6,-4.159999 -1.76,-4.16 -2.24,-3.84 -2.4,-3.679999 -2.72,-3.52 L -16.48,-40 l -3.36,-3.040001 -3.520001,-2.719997 -3.68,-2.560002 -3.839998,-2.080002 -4.000002,-1.919998 -4.16,-1.599998 -4.32,-1.120003 L -47.68,-55.84 l -4.48,-0.64 -4.479999,-0.159999 -4.32,0.159999 -4.480003,0.64 -4.32,0.799999 -4.32,1.120003 -4.159996,1.599998 -4,1.919998 -4,2.080002 -3.68,2.560002 -3.360001,2.719997 -3.36,3.040001 -3.040001,3.200001 -2.72,3.52 -2.4,3.679999 -2.24,3.84 -1.92,4.16 -1.44,4.159999 -1.28,4.160001 -0.8,4.48 -0.48,4.32 -0.32,4.48"
       style="fill:none;stroke:#000000;stroke-width:26.4;stroke-linecap:round;stroke-linejoin:round;stroke-miterlimit:10;stroke-dasharray:none;stroke-opacity:1"
       transform="translate(137.29333,80.75997)"
       clip-path="url(#clipPath4)" />
    <path
       id="path5"
       d="M 0,0 -0.16,-4.48 -0.64,-8.8 -1.6,-13.28 -2.72,-17.440001 -4.32,-21.6 l -1.76,-4.16 -2.24,-3.84 -2.4,-3.679999 -2.88,-3.52 L -16.48,-40 l -3.36,-3.040001 -3.520001,-2.719997 -3.68,-2.560002 -3.839998,-2.080002 -4.000002,-1.919998 -4.16,-1.599998 -4.32,-1.120003 L -47.68,-55.84 l -4.48,-0.64 -4.479999,-0.159999 -4.48,0.159999 -4.320003,0.64 -4.32,0.799999 -4.32,1.120003 -4.159996,1.599998 -4,1.919998 -4,2.080002 -3.68,2.560002 -3.520004,2.719997 L -96.639999,-40 -99.68,-36.799999 l -2.72,3.52 -2.56,3.679999 -2.08,3.84 -1.92,4.16 -1.44,4.159999 -1.28,4.160001 -0.8,4.48 -0.64,4.32 -0.16,4.48"
       style="fill:none;stroke:#000000;stroke-width:26.4;stroke-linecap:round;stroke-linejoin:round;stroke-miterlimit:10;stroke-dasharray:none;stroke-opacity:1"
       transform="translate(628.17334,80.75997)"
       clip-path="url(#clipPath6)" />
    <path
       id="path7"
       d="M 396.79999,750.08002 V 938.88"
       style="fill:none;stroke:#000000;stroke-width:26.4;stroke-linecap:round;stroke-linejoin:round;stroke-miterlimit:10;stroke-dasharray:none;stroke-opacity:1"
       transform="translate(-70.706667,-480.52006)"
       clip-path="url(#clipPath8)" />
    <path
       id="path9"
       d="M 302.39999,844.47998 H 491.20001"
       style="fill:none;stroke:#000000;stroke-width:26.4;stroke-linecap:round;stroke-linejoin:round;stroke-miterlimit:10;stroke-dasharray:none;stroke-opacity:1"
       transform="translate(-70.706667,-480.52006)"
       clip-path="url(#clipPath10)" />
  </g>
</svg>
