<?xml version="1.0" encoding="UTF-8" standalone="no"?>
<!-- Created with Inkscape (http://www.inkscape.org/) -->

<svg
   version="1.1"
   id="svg1"
   width="609.65332"
   height="647.37335"
   viewBox="0 0 609.65332 647.37335"
   sodipodi:docname="Jupiter16.pdf"
   xmlns:inkscape="http://www.inkscape.org/namespaces/inkscape"
   xmlns:sodipodi="http://sodipodi.sourceforge.net/DTD/sodipodi-0.dtd"
   xmlns="http://www.w3.org/2000/svg"
   xmlns:svg="http://www.w3.org/2000/svg">
  <defs
     id="defs1">
    <clipPath
       clipPathUnits="userSpaceOnUse"
       id="clipPath2">
      <path
         d="M 26.4,26.559999 V 1096.16 H 767.03998 V 26.559999 Z"
         transform="translate(-224,-329.28)"
         clip-rule="evenodd"
         id="path2" />
    </clipPath>
    <clipPath
       clipPathUnits="userSpaceOnUse"
       id="clipPath4">
      <path
         d="M 26.4,26.559999 V 1096.16 H 767.03998 V 26.559999 Z"
         clip-rule="evenodd"
         id="path4" />
    </clipPath>
    <clipPath
       clipPathUnits="userSpaceOnUse"
       id="clipPath6">
      <path
         d="M 26.4,26.559999 V 1096.16 H 767.03998 V 26.559999 Z"
         clip-rule="evenodd"
         id="path6" />
    </clipPath>
    <clipPath
       clipPathUnits="userSpaceOnUse"
       id="clipPath8">
      <path
         d="M 26.4,26.559999 V 1096.16 H 767.03998 V 26.559999 Z"
         transform="translate(-141.92,-649.44001)"
         clip-rule="evenodd"
         id="path8" />
    </clipPath>
    <clipPath
       clipPathUnits="userSpaceOnUse"
       id="clipPath10">
      <path
         d="M 26.4,26.559999 V 1096.16 H 767.03998 V 26.559999 Z"
         clip-rule="evenodd"
         id="path10" />
    </clipPath>
    <clipPath
       clipPathUnits="userSpaceOnUse"
       id="clipPath12">
      <path
         d="M 26.4,26.559999 V 1096.16 H 767.03998 V 26.559999 Z"
         clip-rule="evenodd"
         id="path12" />
    </clipPath>
  </defs>
  <sodipodi:namedview
     id="namedview1"
     pagecolor="#505050"
     bordercolor="#eeeeee"
     borderopacity="1"
     inkscape:showpageshadow="0"
     inkscape:pageopacity="0"
     inkscape:pagecheckerboard="0"
     inkscape:deskcolor="#505050">
    <inkscape:page
       x="0"
       y="0"
       inkscape:label="1"
       id="page1"
       width="609.65332"
       height="647.37335"
       margin="0"
       bleed="0" />
  </sodipodi:namedview>
  <g
     id="g1"
     inkscape:groupmode="layer"
     inkscape:label="1">
    <path
       id="path1"
       d="M 0,0 0.32,5.44 0.8,10.72 1.76,16 3.2,21.280001 4.8,26.4 6.88,31.360001 9.28,36.16 12,40.799999 l 3.2,4.48 3.359999,4.16 3.680001,4 3.84,3.68 4.32,3.360001 4.320001,3.04 4.64,2.719998 4.799999,2.400001 4.959999,2.080002 5.120003,1.760002 5.279998,1.279999 5.280003,0.959999 5.439995,0.64 5.279999,0.159996 5.440002,-0.159996 5.440003,-0.64 5.279998,-0.959999 5.120003,-1.279999 5.119997,-1.760002 4.96,-2.080002 4.96,-2.400001 4.64,-2.719998 4.32,-3.04 4.16,-3.360001 4.00001,-3.68 3.67999,-4 3.36,-4.16 3.03999,-4.48 L 141.92,36.16 144.32001,31.360001 146.39999,26.4 148,21.280001 149.44,16 150.39999,10.72 150.88,5.44 151.03999,0"
       style="fill:none;stroke:#000000;stroke-width:26.4;stroke-linecap:round;stroke-linejoin:round;stroke-miterlimit:10;stroke-dasharray:none;stroke-opacity:1"
       transform="translate(224,323.93327)"
       clip-path="url(#clipPath2)" />
    <path
       id="path3"
       d="M 375.04001,329.28 V 857.91998"
       style="fill:none;stroke:#000000;stroke-width:26.4;stroke-linecap:round;stroke-linejoin:round;stroke-miterlimit:10;stroke-dasharray:none;stroke-opacity:1"
       transform="translate(0,-5.3467253)"
       clip-path="url(#clipPath4)" />
    <path
       id="path5"
       d="m 201.44,740.79999 476.15998,-347.84"
       style="fill:none;stroke:#000000;stroke-width:26.4;stroke-linecap:round;stroke-linejoin:round;stroke-miterlimit:10;stroke-dasharray:none;stroke-opacity:1"
       transform="translate(0,-5.3467253)"
       clip-path="url(#clipPath6)" />
    <path
       id="path7"
       d="m 0,0 -3.68,2.4 -3.52,2.72 -3.2,3.04 -3.04,3.2 -2.72,3.52 -2.399999,3.679999 -2.08,4 -1.760001,4 -1.44,4.16 -0.959999,4.320002 -0.800001,4.32 -0.32,4.319999 v 4.48 l 0.32,4.32 0.800001,4.479999 1.119999,4.16 1.44,4.16 1.76,4.160003 2.08,3.839997 2.4,3.68 2.72,3.520004 3.04,3.199997 3.2,3.040001 3.52,2.559998 3.68,2.400001 4,2.080002 4,1.759995 4.16,1.440002 4.319999,1.120003 4.32,0.639999 4.480002,0.479996 H 29.76 l 4.480002,-0.479996 4.319999,-0.639999 4.32,-1.120003 4.16,-1.440002 4,-1.759995 3.84,-2.240005"
       style="fill:none;stroke:#000000;stroke-width:26.4;stroke-linecap:round;stroke-linejoin:round;stroke-miterlimit:10;stroke-dasharray:none;stroke-opacity:1"
       transform="translate(141.92,644.09328)"
       clip-path="url(#clipPath8)" />
    <path
       id="path9"
       d="M 677.59998,392.95999 609.44,283.67999"
       style="fill:none;stroke:#000000;stroke-width:26.4;stroke-linecap:round;stroke-linejoin:round;stroke-miterlimit:10;stroke-dasharray:none;stroke-opacity:1"
       transform="translate(0,-5.3467253)"
       clip-path="url(#clipPath10)" />
    <path
       id="path11"
       d="m 571.67999,302.56 56.64002,-37.76001"
       style="fill:none;stroke:#000000;stroke-width:26.4;stroke-linecap:round;stroke-linejoin:round;stroke-miterlimit:10;stroke-dasharray:none;stroke-opacity:1"
       transform="translate(0,-5.3467253)"
       clip-path="url(#clipPath12)" />
  </g>
</svg>
