<?xml version="1.0" encoding="UTF-8" standalone="no"?>
<!-- Created with Inkscape (http://www.inkscape.org/) -->

<svg
   version="1.1"
   id="svg1"
   width="574.98669"
   height="513.89331"
   viewBox="0 0 574.98669 513.89331"
   sodipodi:docname="Jupiter8.pdf"
   xmlns:inkscape="http://www.inkscape.org/namespaces/inkscape"
   xmlns:sodipodi="http://sodipodi.sourceforge.net/DTD/sodipodi-0.dtd"
   xmlns="http://www.w3.org/2000/svg"
   xmlns:svg="http://www.w3.org/2000/svg">
  <defs
     id="defs1">
    <clipPath
       clipPathUnits="userSpaceOnUse"
       id="clipPath2">
      <path
         d="M 26.4,26.559999 V 1096.16 H 767.03998 V 26.559999 Z"
         clip-rule="evenodd"
         id="path2" />
    </clipPath>
    <clipPath
       clipPathUnits="userSpaceOnUse"
       id="clipPath4">
      <path
         d="M 26.4,26.559999 V 1096.16 H 767.03998 V 26.559999 Z"
         clip-rule="evenodd"
         id="path4" />
    </clipPath>
    <clipPath
       clipPathUnits="userSpaceOnUse"
       id="clipPath6">
      <path
         d="M 26.4,26.559999 V 1096.16 H 767.03998 V 26.559999 Z"
         clip-rule="evenodd"
         id="path6" />
    </clipPath>
    <clipPath
       clipPathUnits="userSpaceOnUse"
       id="clipPath8">
      <path
         d="M 26.4,26.559999 V 1096.16 H 767.03998 V 26.559999 Z"
         transform="translate(-482.39999,-461.6)"
         clip-rule="evenodd"
         id="path8" />
    </clipPath>
    <clipPath
       clipPathUnits="userSpaceOnUse"
       id="clipPath10">
      <path
         d="M 26.4,26.559999 V 1096.16 H 767.03998 V 26.559999 Z"
         transform="translate(-241.28,-350.23999)"
         clip-rule="evenodd"
         id="path10" />
    </clipPath>
  </defs>
  <sodipodi:namedview
     id="namedview1"
     pagecolor="#505050"
     bordercolor="#eeeeee"
     borderopacity="1"
     inkscape:showpageshadow="0"
     inkscape:pageopacity="0"
     inkscape:pagecheckerboard="0"
     inkscape:deskcolor="#505050">
    <inkscape:page
       x="0"
       y="0"
       inkscape:label="1"
       id="page1"
       width="574.98669"
       height="513.89331"
       margin="0"
       bleed="0" />
  </sodipodi:namedview>
  <g
     id="g1"
     inkscape:groupmode="layer"
     inkscape:label="1">
    <path
       id="path1"
       d="M 132.16,644 H 585.28003"
       style="fill:none;stroke:#000000;stroke-width:26.4;stroke-linecap:round;stroke-linejoin:round;stroke-miterlimit:10;stroke-dasharray:none;stroke-opacity:1"
       transform="translate(0,2.666608)"
       clip-path="url(#clipPath2)" />
    <path
       id="path3"
       d="M 245.44,795.03998 320.95999,341.92001"
       style="fill:none;stroke:#000000;stroke-width:26.4;stroke-linecap:round;stroke-linejoin:round;stroke-miterlimit:10;stroke-dasharray:none;stroke-opacity:1"
       transform="translate(0,2.666608)"
       clip-path="url(#clipPath4)" />
    <path
       id="path5"
       d="M 434.23999,795.03998 509.76001,341.92001"
       style="fill:none;stroke:#000000;stroke-width:26.4;stroke-linecap:round;stroke-linejoin:round;stroke-miterlimit:10;stroke-dasharray:none;stroke-opacity:1"
       transform="translate(0,2.666608)"
       clip-path="url(#clipPath6)" />
    <path
       id="path7"
       d="m 0,0 9.6,-3.68 9.440001,-3.84 9.439999,-3.84 9.279998,-3.84 9.120003,-4.000001 8.799999,-4 8.800003,-4.16 8.64,-4.159999 8.319999,-4 8,-4.16 7.839997,-4.32 7.520001,-4.16 7.36,-4.16 6.88,-4.16 6.72,-4 6.24,-4.159999 5.92,-4 5.6,-4 5.28,-3.840004 4.80001,-4 4.47999,-3.680001 4,-3.679992 3.67999,-3.680001 3.20002,-3.520004 2.71998,-3.360001 2.40001,-3.199998 1.92,-3.2 1.44,-3.04 0.95999,-2.88 0.48001,-2.72 0.15999,-2.56 -0.31999,-2.4 -0.8,-2.24 -1.28,-2.08 -1.60001,-1.92 -2.23999,-1.76 -2.56,-1.6 -2.88,-1.44 -3.52,-1.12 -3.84,-1.11999 -4.16,-0.80001 -4.64,-0.63999 -5.12,-0.48002 -5.44,-0.15998 -5.76,-0.16001 -6.08,0.16001 -6.56,0.31999 -6.72,0.47999 -7.2,0.80001 -7.36,0.8 -7.680001,1.12 -8,1.27999 -8.32,1.44001 -8.32,1.6 L 60,-124 l -8.959999,1.92 -8.959999,2.08 -9.280003,2.4 -9.279999,2.4 -9.44,2.72 -9.44,2.72 -9.6,2.88 -9.6,3.04 -9.76,3.2 -9.599998,3.360001 -9.760002,3.360001 -9.599999,3.519996 -9.600002,3.680001 -9.600002,3.68 -9.439995,3.840004"
       style="fill:none;stroke:#000000;stroke-width:26.4;stroke-linecap:round;stroke-linejoin:round;stroke-miterlimit:10;stroke-dasharray:none;stroke-opacity:1"
       transform="translate(482.39999,464.26661)"
       clip-path="url(#clipPath8)" />
    <path
       id="path9"
       d="m 0,0 -6.24,4.16 -5.92,4.16 -5.44,4.16 -5.279999,4 -4.800001,4 -4.48,4 -4,3.68 -3.68,3.68 -3.200001,3.68 -2.719997,3.360001 -2.400002,3.360001 -2.080002,3.199997 -1.599998,3.2 -1.119999,2.880001 -0.639999,2.720002 -0.16,2.719997 0.16,2.400002 0.639999,2.399997 L -52,63.84 l 1.599998,1.920002 1.920002,1.759995 2.239998,1.600006 2.880001,1.439995 3.040001,1.279998 3.680001,0.960007 4,0.799995 4.319999,0.64 4.8,0.480003 5.12,0.32 h 5.44 l 5.92,-0.160004 6.08,-0.319999 6.56,-0.64 6.88,-0.799995 7.04,-0.959999 7.359999,-1.120003 7.680002,-1.279999 8,-1.599998 8,-1.600006 8.48,-1.919999 8.479996,-2.079998 L 76.32,60.32 l 8.800003,-2.400002 9.119995,-2.559997 9.120002,-2.720002 9.28,-2.880001 9.28,-3.039997 9.44,-3.200001 9.44,-3.2 9.59999,-3.520001 9.44001,-3.52"
       style="fill:none;stroke:#000000;stroke-width:26.4;stroke-linecap:round;stroke-linejoin:round;stroke-miterlimit:10;stroke-dasharray:none;stroke-opacity:1"
       transform="translate(241.28,352.9066)"
       clip-path="url(#clipPath10)" />
  </g>
</svg>
