<?xml version="1.0" encoding="UTF-8" standalone="no"?>
<!-- Created with Inkscape (http://www.inkscape.org/) -->

<svg
   version="1.1"
   id="svg1"
   width="509.60001"
   height="505.89334"
   viewBox="0 0 509.60001 505.89334"
   sodipodi:docname="Jupiter27.pdf"
   xmlns:inkscape="http://www.inkscape.org/namespaces/inkscape"
   xmlns:sodipodi="http://sodipodi.sourceforge.net/DTD/sodipodi-0.dtd"
   xmlns="http://www.w3.org/2000/svg"
   xmlns:svg="http://www.w3.org/2000/svg">
  <defs
     id="defs1">
    <clipPath
       clipPathUnits="userSpaceOnUse"
       id="clipPath2">
      <path
         d="M 26.4,26.559999 V 1096.16 H 767.03998 V 26.559999 Z"
         transform="translate(-321.28,-712.32001)"
         clip-rule="evenodd"
         id="path2" />
    </clipPath>
    <clipPath
       clipPathUnits="userSpaceOnUse"
       id="clipPath4">
      <path
         d="M 26.4,26.559999 V 1096.16 H 767.03998 V 26.559999 Z"
         transform="translate(-623.35998,-712.32001)"
         clip-rule="evenodd"
         id="path4" />
    </clipPath>
    <clipPath
       clipPathUnits="userSpaceOnUse"
       id="clipPath6">
      <path
         d="M 26.4,26.559999 V 1096.16 H 767.03998 V 26.559999 Z"
         clip-rule="evenodd"
         id="path6" />
    </clipPath>
    <clipPath
       clipPathUnits="userSpaceOnUse"
       id="clipPath8">
      <path
         d="M 26.4,26.559999 V 1096.16 H 767.03998 V 26.559999 Z"
         clip-rule="evenodd"
         id="path8" />
    </clipPath>
    <clipPath
       clipPathUnits="userSpaceOnUse"
       id="clipPath10">
      <path
         d="M 26.4,26.559999 V 1096.16 H 767.03998 V 26.559999 Z"
         transform="translate(-547.84003,-485.92002)"
         clip-rule="evenodd"
         id="path10" />
    </clipPath>
  </defs>
  <sodipodi:namedview
     id="namedview1"
     pagecolor="#505050"
     bordercolor="#eeeeee"
     borderopacity="1"
     inkscape:showpageshadow="0"
     inkscape:pageopacity="0"
     inkscape:pagecheckerboard="0"
     inkscape:deskcolor="#505050">
    <inkscape:page
       x="0"
       y="0"
       inkscape:label="1"
       id="page1"
       width="509.60001"
       height="505.89334"
       margin="0"
       bleed="0" />
  </sodipodi:namedview>
  <g
     id="g1"
     inkscape:groupmode="layer"
     inkscape:label="1">
    <path
       id="path1"
       d="m 0,0 c 0,-41.700001 -33.810001,-75.519997 -75.519997,-75.519997 -41.710003,0 -75.519993,33.819996 -75.519993,75.519997 0,41.700001 33.80999,75.519997 75.519993,75.519997 C -33.810001,75.519997 0,41.700001 0,0 Z"
       style="fill:none;stroke:#000000;stroke-width:26.4;stroke-linecap:round;stroke-linejoin:round;stroke-miterlimit:10;stroke-dasharray:none;stroke-opacity:1"
       transform="translate(321.28,717.65328)"
       clip-path="url(#clipPath2)" />
    <path
       id="path3"
       d="m 0,0 c 0,-41.700001 -33.810001,-75.519997 -75.519997,-75.519997 -41.710003,0 -75.519993,33.819996 -75.519993,75.519997 0,41.700001 33.80999,75.519997 75.519993,75.519997 C -33.810001,75.519997 0,41.700001 0,0 Z"
       style="fill:none;stroke:#000000;stroke-width:26.4;stroke-linecap:round;stroke-linejoin:round;stroke-miterlimit:10;stroke-dasharray:none;stroke-opacity:1"
       transform="translate(623.35998,717.65328)"
       clip-path="url(#clipPath4)" />
    <path
       id="path5"
       d="M 245.75999,485.92001 V 636.79999"
       style="fill:none;stroke:#000000;stroke-width:26.4;stroke-linecap:round;stroke-linejoin:round;stroke-miterlimit:10;stroke-dasharray:none;stroke-opacity:1"
       transform="translate(0,5.3332747)"
       clip-path="url(#clipPath6)" />
    <path
       id="path7"
       d="M 547.84003,485.92001 V 636.79999"
       style="fill:none;stroke:#000000;stroke-width:26.4;stroke-linecap:round;stroke-linejoin:round;stroke-miterlimit:10;stroke-dasharray:none;stroke-opacity:1"
       transform="translate(0,5.3332747)"
       clip-path="url(#clipPath8)" />
    <path
       id="path9"
       d="m 0,0 -0.16,-8.32 -0.8,-8.16 -1.12,-8 -1.44,-8 -2.08,-8 -2.4,-7.84 -2.72,-7.68 -3.2,-7.52 -3.68,-7.359997 -4,-7.040001 -4.48,-6.880005 -4.799999,-6.719994 L -36,-97.919998 -41.439999,-104 l -5.760002,-5.76 -6.079998,-5.44 -6.400001,-5.12 -6.559998,-4.8 -6.880005,-4.32 -7.199997,-4 -7.36,-3.67999 -7.519997,-3.20002 -7.680003,-2.87999 -7.84,-2.40001 -7.84,-1.91999 -8,-1.59999 -8.16,-1.12001 -8.16,-0.64 -8.15999,-0.15999 -8.16001,0.15999 -8.16,0.64 -8.16,1.12001 -8,1.59999 -8,1.91999 -7.68,2.40001 -7.68,2.87999 -7.51999,3.20002 -7.36,3.67999 -7.20002,4 -6.87999,4.32 -6.55999,4.8 -6.40001,5.12 -6.08,5.44 -5.76001,5.76 -5.43998,6.080002 -5.28,6.400001 -4.64001,6.719994 -4.48001,6.880005 -4,7.040001 -3.67999,7.359997 -3.19999,7.52 -2.88,7.68 -2.40002,7.84 -1.91999,8 -1.6,8 -0.96,8 -0.80001,8.16 -0.15998,8.32"
       style="fill:none;stroke:#000000;stroke-width:26.4;stroke-linecap:round;stroke-linejoin:round;stroke-miterlimit:10;stroke-dasharray:none;stroke-opacity:1"
       transform="translate(547.84003,491.25329)"
       clip-path="url(#clipPath10)" />
  </g>
</svg>
