<?xml version="1.0" encoding="UTF-8" standalone="no"?>
<!-- Created with Inkscape (http://www.inkscape.org/) -->

<svg
   version="1.1"
   id="svg1"
   width="648.34668"
   height="499.21332"
   viewBox="0 0 648.34668 499.21332"
   sodipodi:docname="Jupiter34.pdf"
   xmlns:inkscape="http://www.inkscape.org/namespaces/inkscape"
   xmlns:sodipodi="http://sodipodi.sourceforge.net/DTD/sodipodi-0.dtd"
   xmlns="http://www.w3.org/2000/svg"
   xmlns:svg="http://www.w3.org/2000/svg">
  <defs
     id="defs1">
    <clipPath
       clipPathUnits="userSpaceOnUse"
       id="clipPath2">
      <path
         d="M 26.4,26.559999 V 1096.16 H 767.03998 V 26.559999 Z"
         transform="translate(-627.20001,-485.83999)"
         clip-rule="evenodd"
         id="path2" />
    </clipPath>
    <clipPath
       clipPathUnits="userSpaceOnUse"
       id="clipPath4">
      <path
         d="M 26.4,26.559999 V 1096.16 H 767.03998 V 26.559999 Z"
         clip-rule="evenodd"
         id="path4" />
    </clipPath>
    <clipPath
       clipPathUnits="userSpaceOnUse"
       id="clipPath6">
      <path
         d="M 26.4,26.559999 V 1096.16 H 767.03998 V 26.559999 Z"
         clip-rule="evenodd"
         id="path6" />
    </clipPath>
    <clipPath
       clipPathUnits="userSpaceOnUse"
       id="clipPath8">
      <path
         d="M 26.4,26.559999 V 1096.16 H 767.03998 V 26.559999 Z"
         clip-rule="evenodd"
         id="path8" />
    </clipPath>
    <clipPath
       clipPathUnits="userSpaceOnUse"
       id="clipPath10">
      <path
         d="M 26.4,26.559999 V 1096.16 H 767.03998 V 26.559999 Z"
         transform="translate(-493.76001,-535.35998)"
         clip-rule="evenodd"
         id="path10" />
    </clipPath>
  </defs>
  <sodipodi:namedview
     id="namedview1"
     pagecolor="#505050"
     bordercolor="#eeeeee"
     borderopacity="1"
     inkscape:showpageshadow="0"
     inkscape:pageopacity="0"
     inkscape:pagecheckerboard="0"
     inkscape:deskcolor="#505050">
    <inkscape:page
       x="0"
       y="0"
       inkscape:label="1"
       id="page1"
       width="648.34668"
       height="499.21332"
       margin="0"
       bleed="0" />
  </sodipodi:namedview>
  <g
     id="g1"
     inkscape:groupmode="layer"
     inkscape:label="1">
    <path
       id="path1"
       d="M 0,0 C 0,-41.66 -33.77,-75.440002 -75.440002,-75.440002 -117.11,-75.440002 -150.88,-41.66 -150.88,0 c 0,41.66 33.77,75.440002 75.439998,75.440002 C -33.77,75.440002 0,41.66 0,0 Z"
       style="fill:none;stroke:#000000;stroke-width:26.4;stroke-linecap:round;stroke-linejoin:round;stroke-miterlimit:10;stroke-dasharray:none;stroke-opacity:1"
       transform="translate(553.82668,181.5066)"
       clip-path="url(#clipPath2)" />
    <path
       id="path3"
       d="M 325.28,334.88 V 787.84003"
       style="fill:none;stroke:#000000;stroke-width:26.4;stroke-linecap:round;stroke-linejoin:round;stroke-miterlimit:10;stroke-dasharray:none;stroke-opacity:1"
       transform="translate(-73.373333,-304.33339)"
       clip-path="url(#clipPath4)" />
    <path
       id="path5"
       d="M 98.720001,561.28003 551.67999,410.39999"
       style="fill:none;stroke:#000000;stroke-width:26.4;stroke-linecap:round;stroke-linejoin:round;stroke-miterlimit:10;stroke-dasharray:none;stroke-opacity:1"
       transform="translate(-73.373333,-304.33339)"
       clip-path="url(#clipPath6)" />
    <path
       id="path7"
       d="M 98.720001,712.32001 551.67999,561.28003"
       style="fill:none;stroke:#000000;stroke-width:26.4;stroke-linecap:round;stroke-linejoin:round;stroke-miterlimit:10;stroke-dasharray:none;stroke-opacity:1"
       transform="translate(-73.373333,-304.33339)"
       clip-path="url(#clipPath8)" />
    <path
       id="path9"
       d="m 0,0 5.44,6.56 5.92,6.24 6.24,5.919999 6.4,5.600001 6.879999,5.120001 7.039999,4.800001 7.360001,4.479999 7.68,4 7.68,3.680001 8,3.199996 8.160004,2.720002 8.32,2.240001 8.319999,1.759999 8.479998,1.439998 8.48,0.960003 8.64,0.32 h 8.64 l 8.48,-0.48 8.48,-0.960003 8.47999,-1.439998 8.48002,-1.919998 8.15998,-2.400002 8.16001,-2.720001 8,-3.360001 7.68001,-3.679996 7.51998,-4"
       style="fill:none;stroke:#000000;stroke-width:26.4;stroke-linecap:round;stroke-linejoin:round;stroke-miterlimit:10;stroke-dasharray:none;stroke-opacity:1"
       transform="translate(420.38668,231.02659)"
       clip-path="url(#clipPath10)" />
  </g>
</svg>
