<?xml version="1.0" encoding="UTF-8" standalone="no"?>
<!-- Created with Inkscape (http://www.inkscape.org/) -->

<svg
   version="1.1"
   id="svg1"
   width="608.33331"
   height="412.45334"
   viewBox="0 0 608.33331 412.45334"
   sodipodi:docname="Jupiter18.pdf"
   xmlns:inkscape="http://www.inkscape.org/namespaces/inkscape"
   xmlns:sodipodi="http://sodipodi.sourceforge.net/DTD/sodipodi-0.dtd"
   xmlns="http://www.w3.org/2000/svg"
   xmlns:svg="http://www.w3.org/2000/svg">
  <defs
     id="defs1">
    <clipPath
       clipPathUnits="userSpaceOnUse"
       id="clipPath2">
      <path
         d="M 26.4,26.559999 V 1096.16 H 767.03998 V 26.559999 Z"
         transform="translate(-120,-412.64001)"
         clip-rule="evenodd"
         id="path2" />
    </clipPath>
    <clipPath
       clipPathUnits="userSpaceOnUse"
       id="clipPath4">
      <path
         d="M 26.4,26.559999 V 1096.16 H 767.03998 V 26.559999 Z"
         transform="translate(-377.60001,-700)"
         clip-rule="evenodd"
         id="path4" />
    </clipPath>
    <clipPath
       clipPathUnits="userSpaceOnUse"
       id="clipPath6">
      <path
         d="M 26.4,26.559999 V 1096.16 H 767.03998 V 26.559999 Z"
         clip-rule="evenodd"
         id="path6" />
    </clipPath>
    <clipPath
       clipPathUnits="userSpaceOnUse"
       id="clipPath8">
      <path
         d="M 26.4,26.559999 V 1096.16 H 767.03998 V 26.559999 Z"
         transform="translate(-626.88001,-498.23999)"
         clip-rule="evenodd"
         id="path8" />
    </clipPath>
    <clipPath
       clipPathUnits="userSpaceOnUse"
       id="clipPath10">
      <path
         d="M 26.4,26.559999 V 1096.16 H 767.03998 V 26.559999 Z"
         clip-rule="evenodd"
         id="path10" />
    </clipPath>
    <clipPath
       clipPathUnits="userSpaceOnUse"
       id="clipPath12">
      <path
         d="M 26.4,26.559999 V 1096.16 H 767.03998 V 26.559999 Z"
         transform="translate(-506.23999,-504.79999)"
         clip-rule="evenodd"
         id="path12" />
    </clipPath>
  </defs>
  <sodipodi:namedview
     id="namedview1"
     pagecolor="#505050"
     bordercolor="#eeeeee"
     borderopacity="1"
     inkscape:showpageshadow="0"
     inkscape:pageopacity="0"
     inkscape:pagecheckerboard="0"
     inkscape:deskcolor="#505050">
    <inkscape:page
       x="0"
       y="0"
       inkscape:label="1"
       id="page1"
       width="608.33331"
       height="412.45334"
       margin="0"
       bleed="0" />
  </sodipodi:namedview>
  <g
     id="g1"
     inkscape:groupmode="layer"
     inkscape:label="1">
    <path
       id="path1"
       d="m 0,0 0.32,8.16 0.64,8.16 1.12,8.16 1.44,8 2.08,8 2.4,7.84 2.72,7.68 3.36,7.52 3.52,7.359997 4.16,7.040001 4.32,6.880005 4.799999,6.719994 L 36,97.760002 41.439999,103.84 l 5.760002,5.92 6.079998,5.44 6.400001,5.12 6.720002,4.8 6.879997,4.32 7.040001,4 7.36,3.67999 7.519997,3.20002 7.680003,2.87999 7.84,2.40001 7.84,1.91999 8.16,1.59999 8,1.12001 8.16,0.64 8.15999,0.15999 8.16001,-0.15999 8.16,-0.64 8.16,-1.12001 8,-1.59999 8,-1.91999 7.84,-2.40001 7.67999,-2.87999 7.52001,-3.20002 7.19999,-3.67999 7.20002,-4 6.87999,-4.32 6.72,-4.8 6.24,-5.12 6.08,-5.44 5.91999,-5.92 5.44,-6.079998 5.12,-6.240005 4.80001,-6.719994 4.32001,-6.880005 4,-7.040001 L 288.16,63.52 291.35999,56 l 2.88,-7.68 2.40002,-7.84 1.91999,-8 1.6,-8 1.12,-8.16 0.64001,-8.16 0.15998,-8.16"
       style="fill:none;stroke:#000000;stroke-width:26.4;stroke-linecap:round;stroke-linejoin:round;stroke-miterlimit:10;stroke-dasharray:none;stroke-opacity:1"
       transform="translate(37.293333,57.586623)"
       clip-path="url(#clipPath2)" />
    <path
       id="path3"
       d="m 0,0 4.8,-4.96 4.48,-4.96 4.32,-4.96 4,-5.12 4,-5.280001 3.680001,-5.279998 L 28.639999,-35.84 31.84,-41.119999 34.720001,-46.400002 37.279999,-51.68 39.52,-56.799999 41.599998,-62.080002 43.200001,-67.040001 44.639999,-72 l 0.959999,-4.800003 0.640004,-4.639999 0.479999,-4.32 v -4.32 l -0.319999,-4 -0.640004,-3.839996 L 44.799999,-101.6 43.52,-104.96 41.919998,-108 40,-110.88 l -2.240002,-2.4 -2.399997,-2.24 -2.880001,-1.92 -3.039999,-1.6 -3.360001,-1.28 -3.68,-0.96 -3.840001,-0.64 -3.999999,-0.32 h -4.32 l -4.32,0.48 -4.64,0.64 -4.8,0.96 -4.96,1.44 -4.96,1.6 -5.279999,2.08 -5.120001,2.24 -5.280001,2.56 -5.280001,2.88 -5.279998,3.2 -5.279999,3.36 -5.280003,3.679997 -5.279998,4 -5.119999,4 -5.120003,4.32 -4.799996,4.480003 -4.959999,4.800003 -4.640007,4.799996 -4.479995,4.959999 -4.32,4.960003 -4,5.119999 -4,5.279998 -3.680001,5.280003 -3.36,5.279999 -3.2,5.279999 -2.88,5.28 -2.56,5.280001 -2.24,5.280001 -2.08,5.119999 -1.6,4.96 -1.44,4.96 -0.96,4.8 -0.64,4.64 -0.48,4.32 v 4.32 l 0.32,4 0.64,3.84 0.96,3.68 1.28,3.360001 1.6,3.039999 1.92,2.880001 2.08,2.399997 2.56,2.240002 2.88,1.919998 3.04,1.600003 3.36,1.279998 3.679998,0.959999 3.840004,0.640004 4,0.319999 h 4.32 l 4.319999,-0.479999 4.64,-0.640003 4.800003,-0.959999 4.959999,-1.439999 4.959999,-1.600002 5.119999,-2.079998 5.279999,-2.240002 5.279998,-2.559998 5.280003,-2.880001 5.279999,-3.2 5.28,-3.359999 5.279999,-3.68 5.280001,-4 L -14.72,13.44 -9.76,9.12 -4.8,4.64 0,0"
       style="fill:none;stroke:#000000;stroke-width:26.4;stroke-linecap:round;stroke-linejoin:round;stroke-miterlimit:10;stroke-dasharray:none;stroke-opacity:1"
       transform="translate(294.89334,344.94661)"
       clip-path="url(#clipPath4)" />
    <path
       id="path5"
       d="M 422.07999,412.64001 V 601.44"
       style="fill:none;stroke:#000000;stroke-width:26.4;stroke-linecap:round;stroke-linejoin:round;stroke-miterlimit:10;stroke-dasharray:none;stroke-opacity:1"
       transform="translate(-82.706667,-355.05339)"
       clip-path="url(#clipPath6)" />
    <path
       id="path7"
       d="m 0,0 4.64,-4.8 4.48,-4.96 4.32,-4.96 4.16,-5.12 3.840001,-5.280001 3.68,-5.279999 3.359999,-5.28 3.2,-5.279999 2.880001,-5.280003 2.559998,-5.279998 2.400001,-5.279999 1.919999,-5.119999 1.600002,-4.959999 1.439999,-4.959999 0.959999,-4.800003 0.800003,-4.64 0.319999,-4.319999 v -4.32 L 46.400002,-94.080002 45.759998,-97.919998 44.799999,-101.44 43.52,-104.8 41.919998,-107.84 40,-110.72 l -2.240002,-2.56 -2.559997,-2.08 -2.720001,-1.92 -3.199999,-1.6 -3.360001,-1.28 -3.52,-0.96 -3.840001,-0.64 L 14.4,-122.08 h -4.16 l -4.48,0.32 -4.64,0.8 -4.8,0.96 -4.96,1.44 -4.96,1.6 -5.119999,2.08 -5.280001,2.24 -5.120001,2.56 -5.44,2.88 -5.279999,3.2 -5.279999,3.36 -5.280003,3.680001 -5.119998,3.839996 -5.279999,4.160004 -4.960003,4.32 -4.959999,4.479995 -4.799996,4.640007 -4.640007,4.959999 -4.479995,4.799996 -4.32,5.120003 -4.160004,5.119999 -3.839996,5.279998 -3.680001,5.280003 -3.52,5.279999 -3.04,5.279998 -2.88,5.280001 -2.56,5.280001 -2.4,5.120001 -1.92,5.119999 -1.76,5.12 -1.28,4.96 -1.12,4.8 -0.64,4.48 -0.32,4.48 -0.16,4.32 0.32,3.999999 0.64,3.840001 0.96,3.68 1.28,3.360001 1.6,3.039999 1.92,2.880001 2.24,2.399997 2.56,2.240002 2.72,1.919998 3.04,1.600002 3.36,1.279999 3.680002,0.959999 3.839996,0.640004 4,0.319999 h 4.32 l 4.480003,-0.479999 4.64,-0.640004 4.800003,-0.959999 4.799995,-1.439998 5.120003,-1.600003 L -56.799999,39.52 -51.68,37.279999 -46.400002,34.720001 -41.119999,31.84 -35.84,28.639999 -30.4,25.280001 -25.280001,21.6 -20,17.6 -14.88,13.6 -9.76,9.28 -4.8,4.8 0,0"
       style="fill:none;stroke:#000000;stroke-width:26.4;stroke-linecap:round;stroke-linejoin:round;stroke-miterlimit:10;stroke-dasharray:none;stroke-opacity:1"
       transform="translate(544.17334,143.1866)"
       clip-path="url(#clipPath8)" />
    <path
       id="path9"
       d="M 367.04001,584 549.44,540.96002"
       style="fill:none;stroke:#000000;stroke-width:26.4;stroke-linecap:round;stroke-linejoin:round;stroke-miterlimit:10;stroke-dasharray:none;stroke-opacity:1"
       transform="translate(-82.706667,-355.05339)"
       clip-path="url(#clipPath10)" />
    <path
       id="path11"
       d="m 0,0 -1.6,6.56 -1.28,6.72 -0.8,6.56 -0.32,6.719999 v 6.72 L -3.68,40 l 0.8,6.720001 1.12,6.559998 1.6,6.560001 2.08,6.399998 2.24,6.240005 2.72,6.239998 3.2,5.919998 3.36,5.760003 L 17.280001,96 l 4,5.28 4.479999,5.12 4.64,4.8 4.960001,4.48 5.279998,4.16 5.440003,3.84 5.759998,3.52 5.919998,3.19999 6.080002,2.88001 6.240002,2.56 6.400001,2.08 6.559998,1.6 6.559997,1.44001 6.560006,0.79998 6.719996,0.64 h 6.72 l 6.72,-0.15999 6.72,-0.63999 6.56001,-1.12001 6.55999,-1.44001 6.56,-1.92"
       style="fill:none;stroke:#000000;stroke-width:26.4;stroke-linecap:round;stroke-linejoin:round;stroke-miterlimit:10;stroke-dasharray:none;stroke-opacity:1"
       transform="translate(423.53332,149.7466)"
       clip-path="url(#clipPath12)" />
  </g>
</svg>
