<?xml version="1.0" encoding="UTF-8" standalone="no"?>
<!-- Created with Inkscape (http://www.inkscape.org/) -->

<svg
   version="1.1"
   id="svg1"
   width="580.32001"
   height="644.70667"
   viewBox="0 0 580.32001 644.70667"
   sodipodi:docname="Jupiter12.pdf"
   xmlns:inkscape="http://www.inkscape.org/namespaces/inkscape"
   xmlns:sodipodi="http://sodipodi.sourceforge.net/DTD/sodipodi-0.dtd"
   xmlns="http://www.w3.org/2000/svg"
   xmlns:svg="http://www.w3.org/2000/svg">
  <defs
     id="defs1">
    <clipPath
       clipPathUnits="userSpaceOnUse"
       id="clipPath2">
      <path
         d="M 26.4,26.559999 V 1096.16 H 767.03998 V 26.559999 Z"
         transform="translate(-580.96002,-714.32001)"
         clip-rule="evenodd"
         id="path2" />
    </clipPath>
    <clipPath
       clipPathUnits="userSpaceOnUse"
       id="clipPath4">
      <path
         d="M 26.4,26.559999 V 1096.16 H 767.03998 V 26.559999 Z"
         transform="translate(-281.92001,-261.12)"
         clip-rule="evenodd"
         id="path4" />
    </clipPath>
    <clipPath
       clipPathUnits="userSpaceOnUse"
       id="clipPath6">
      <path
         d="M 26.4,26.559999 V 1096.16 H 767.03998 V 26.559999 Z"
         clip-rule="evenodd"
         id="path6" />
    </clipPath>
    <clipPath
       clipPathUnits="userSpaceOnUse"
       id="clipPath8">
      <path
         d="M 26.4,26.559999 V 1096.16 H 767.03998 V 26.559999 Z"
         transform="translate(-662.40002,-484.48001)"
         clip-rule="evenodd"
         id="path8" />
    </clipPath>
  </defs>
  <sodipodi:namedview
     id="namedview1"
     pagecolor="#505050"
     bordercolor="#eeeeee"
     borderopacity="1"
     inkscape:showpageshadow="0"
     inkscape:pageopacity="0"
     inkscape:pagecheckerboard="0"
     inkscape:deskcolor="#505050">
    <inkscape:page
       x="0"
       y="0"
       inkscape:label="1"
       id="page1"
       width="580.32001"
       height="644.70667"
       margin="0"
       bleed="0" />
  </sodipodi:namedview>
  <g
     id="g1"
     inkscape:groupmode="layer"
     inkscape:label="1">
    <path
       id="path1"
       d="m 0,0 c 0,-81.339996 -65.93,-147.28 -147.28,-147.28 -81.35,0 -147.28,65.940004 -147.28,147.28 0,81.339996 65.93,147.28 147.28,147.28 C -65.93,147.28 0,81.339996 0,0 Z"
       style="fill:none;stroke:#000000;stroke-width:26.4;stroke-linecap:round;stroke-linejoin:round;stroke-miterlimit:10;stroke-dasharray:none;stroke-opacity:1"
       transform="translate(580.96002,716.99995)"
       clip-path="url(#clipPath2)" />
    <path
       id="path3"
       d="m 0,0 -8.32,0.32 -8.16,0.8 -8.159999,1.12 -8,1.6 -8,2.08 -7.840001,2.4 -7.68,2.88 -7.52,3.36 -7.360001,3.68 -7.199997,4.16 -6.880005,4.479999 L -91.68,31.68 l -6.400002,5.279999 -6.079998,5.440003 -5.76,5.919998 -5.44,6.080002 -5.12,6.559997 -4.8,6.720001 -4.32001,6.879998 -4,7.200004 -3.67999,7.360001 -3.2,7.68 -2.72,7.679997 -2.40001,7.84 -1.91999,8 -1.44001,8.16 -1.11999,8.16 -0.48,8.16 -0.16,8.31999 0.16,8.16001 0.80001,8.16 1.11999,8.16001 1.60001,8 2.07998,8 2.56002,7.83999 2.87999,7.67999 3.19999,7.52001 3.84001,7.36 4,7.2 4.48,6.88 4.8,6.72 5.28,6.23999 5.6,6.08001 5.76,5.76 6.24,5.60001 6.400002,4.95999 6.720001,4.79999 7.039993,4.32001 7.200005,4 7.360001,3.67999 7.519996,3.20001 7.84,2.72 7.84,2.4 8.000002,1.92001 8,1.44 8.16,1.12 8.32,0.63998 8.16,0.16001"
       style="fill:none;stroke:#000000;stroke-width:26.4;stroke-linecap:round;stroke-linejoin:round;stroke-miterlimit:10;stroke-dasharray:none;stroke-opacity:1"
       transform="translate(281.92001,263.79994)"
       clip-path="url(#clipPath4)" />
    <path
       id="path5"
       d="m 285.28,567.20001 144.95999,-1.11999"
       style="fill:none;stroke:#000000;stroke-width:26.4;stroke-linecap:round;stroke-linejoin:round;stroke-miterlimit:10;stroke-dasharray:none;stroke-opacity:1"
       transform="translate(0,2.6799413)"
       clip-path="url(#clipPath6)" />
    <path
       id="path7"
       d="m 0,0 -20.16,2.88 -20.16,3.36 -20.16,3.84 -19.84,4.48 -19.84,4.96 -19.68,5.600001 -19.52,6.08 -19.36,6.559997 -19.2,7.200001 -18.88,7.520001 -18.87999,8.159999 -18.40001,8.800003 -18.24001,9.119996 -18.07998,9.600006 L -288.16,98.400002 -305.60001,108.96 -322.72,120.16"
       style="fill:none;stroke:#000000;stroke-width:26.4;stroke-linecap:round;stroke-linejoin:round;stroke-miterlimit:10;stroke-dasharray:none;stroke-opacity:1"
       transform="translate(662.40002,487.15995)"
       clip-path="url(#clipPath8)" />
  </g>
</svg>
