<?xml version="1.0" encoding="UTF-8" standalone="no"?>
<!-- Created with Inkscape (http://www.inkscape.org/) -->

<svg
   version="1.1"
   id="svg1"
   width="190.77333"
   height="341.70667"
   viewBox="0 0 190.77333 341.70667"
   sodipodi:docname="LastQuarterMoon.pdf"
   xmlns:inkscape="http://www.inkscape.org/namespaces/inkscape"
   xmlns:sodipodi="http://sodipodi.sourceforge.net/DTD/sodipodi-0.dtd"
   xmlns="http://www.w3.org/2000/svg"
   xmlns:svg="http://www.w3.org/2000/svg">
  <defs
     id="defs1">
    <clipPath
       clipPathUnits="userSpaceOnUse"
       id="clipPath2">
      <path
         d="M 0,0.16 V 1122.5601 H 793.59998 V 0.16 Z"
         transform="translate(-472.32001,-334.72001)"
         clip-rule="evenodd"
         id="path2" />
    </clipPath>
    <clipPath
       clipPathUnits="userSpaceOnUse"
       id="clipPath4">
      <path
         d="M 0,0.16 V 1122.5601 H 793.59998 V 0.16 Z"
         transform="translate(-472.32001,-334.72001)"
         clip-rule="evenodd"
         id="path4" />
    </clipPath>
  </defs>
  <sodipodi:namedview
     id="namedview1"
     pagecolor="#505050"
     bordercolor="#eeeeee"
     borderopacity="1"
     inkscape:showpageshadow="0"
     inkscape:pageopacity="0"
     inkscape:pagecheckerboard="0"
     inkscape:deskcolor="#505050">
    <inkscape:page
       x="0"
       y="0"
       inkscape:label="1"
       id="page1"
       width="190.77333"
       height="341.70667"
       margin="0"
       bleed="0" />
  </sodipodi:namedview>
  <g
     id="g1"
     inkscape:groupmode="layer"
     inkscape:label="1">
    <path
       id="path1"
       d="m 0,0 -8.16,0.32 -8.16,0.64 -8,1.12 -8.16,1.44 -7.84,2.08 -7.84,2.4 -7.68,2.72 -7.520001,3.2 -7.36,3.68 -7.040001,4 -6.879997,4.48 -6.720002,4.799999 L -97.760002,36 -103.84,41.439999 l -5.76,5.760002 -5.44,6.079998 -5.12,6.400001 -4.8,6.559998 -4.48,7.040001 -4,7.040001 -3.52001,7.36 -3.36,7.519997 -2.71998,7.680003 -2.40001,7.84 -2.08,7.84 -1.44001,8 -1.11999,8.16 -0.64,8.16 -0.31999,8.15999 0.31999,8.16001 0.64,8.16 1.11999,8.16 1.44001,8 2.08,8 2.40001,7.84 2.71998,7.67999 3.36,7.52001 3.52001,7.19999 4,7.20002 4.48,6.87999 4.8,6.55999 5.12,6.40001 5.44,6.08 5.76,5.76001 6.079998,5.59998 6.400001,5.12 6.720002,4.64001 6.879997,4.48001 7.040001,4 7.36,3.67999 7.520001,3.19999 7.68,2.88 7.84,2.40002 7.84,1.91999 8.16,1.6 8,1.12 8.16,0.64001 8.16,0.15998"
       style="fill:none;stroke:#000000;stroke-width:26.4;stroke-linecap:round;stroke-linejoin:round;stroke-miterlimit:10;stroke-dasharray:none;stroke-opacity:1"
       transform="translate(472.32001,488.21328)"
       clip-path="url(#clipPath2)" />
    <path
       id="path3"
       d="m 0,0 -6.72,2.56 -6.56,3.04 -6.4,3.52 -6.24,3.68 L -32,17.120001 -37.919998,21.76 -43.52,26.719999 -48.959999,32 -54.240002,37.759998 -59.040001,43.68 -63.84,50.080002 l -4.320004,6.559997 -4,6.880001 L -76,70.720001 l -3.360001,7.360001 -3.040001,7.519996 -2.879997,7.840004 L -87.68,101.28 l -1.919998,8.16 -1.760003,8.16 -1.279998,8.32 -0.959999,8.32 -0.480004,8.32 -0.32,8.47999 0.32,8.48001 0.480004,8.32 0.959999,8.48001 1.279998,8.15999 1.760003,8.32 1.919998,8 2.400001,8 2.879997,7.68 3.040001,7.52 3.360001,7.52 3.839996,7.04 4,6.88 4.320004,6.56 4.799999,6.39999 4.799999,6.08002 5.280003,5.59998 5.439999,5.28 5.600002,5.12002 5.919998,4.47998 6.08,4.32001 6.24,3.84 6.4,3.36001 6.56,3.03998 6.72,2.56"
       style="fill:none;stroke:#000000;stroke-width:26.4;stroke-linecap:round;stroke-linejoin:round;stroke-miterlimit:10;stroke-dasharray:none;stroke-opacity:1"
       transform="translate(472.32001,488.21328)"
       clip-path="url(#clipPath4)" />
  </g>
</svg>
