<?xml version="1.0" encoding="UTF-8" standalone="no"?>
<!-- Created with Inkscape (http://www.inkscape.org/) -->

<svg
   version="1.1"
   id="svg1"
   width="392.21332"
   height="507.22668"
   viewBox="0 0 392.21332 507.22668"
   sodipodi:docname="Leo16.pdf"
   xmlns:inkscape="http://www.inkscape.org/namespaces/inkscape"
   xmlns:sodipodi="http://sodipodi.sourceforge.net/DTD/sodipodi-0.dtd"
   xmlns="http://www.w3.org/2000/svg"
   xmlns:svg="http://www.w3.org/2000/svg">
  <defs
     id="defs1">
    <clipPath
       clipPathUnits="userSpaceOnUse"
       id="clipPath2">
      <path
         d="M 0,0.16 V 1122.5601 H 793.59998 V 0.16 Z"
         transform="translate(-379.51999,-419.83999)"
         clip-rule="evenodd"
         id="path2" />
    </clipPath>
    <clipPath
       clipPathUnits="userSpaceOnUse"
       id="clipPath4">
      <path
         d="M 0,0.16 V 1122.5601 H 793.59998 V 0.16 Z"
         transform="translate(-333.44,-333.11999)"
         clip-rule="evenodd"
         id="path4" />
    </clipPath>
    <clipPath
       clipPathUnits="userSpaceOnUse"
       id="clipPath6">
      <path
         d="M 0,0.16 V 1122.5601 H 793.59998 V 0.16 Z"
         transform="translate(-333.44,-333.11999)"
         clip-rule="evenodd"
         id="path6" />
    </clipPath>
    <clipPath
       clipPathUnits="userSpaceOnUse"
       id="clipPath8">
      <path
         d="M 0,0.16 V 1122.5601 H 793.59998 V 0.16 Z"
         transform="translate(-518.08001,-679.67999)"
         clip-rule="evenodd"
         id="path8" />
    </clipPath>
  </defs>
  <sodipodi:namedview
     id="namedview1"
     pagecolor="#505050"
     bordercolor="#eeeeee"
     borderopacity="1"
     inkscape:showpageshadow="0"
     inkscape:pageopacity="0"
     inkscape:pagecheckerboard="0"
     inkscape:deskcolor="#505050">
    <inkscape:page
       x="0"
       y="0"
       inkscape:label="1"
       id="page1"
       width="392.21332"
       height="507.22668"
       margin="0"
       bleed="0" />
  </sodipodi:namedview>
  <g
     id="g1"
     inkscape:groupmode="layer"
     inkscape:label="1">
    <path
       id="path1"
       d="m 0,0 -8.32,4.64 -8.16,5.28 -7.84,5.44 -7.68,5.920001 -7.200001,6.399999 -7.040001,6.560002 -6.719997,7.039997 -6.240002,7.200001 -5.920002,7.68 -5.599998,7.84 -5.119995,8.160004 -4.800003,8.319999 -4.32,8.64 -4,8.799995 L -92.32,106.88 l -3.040001,9.12 -2.559997,9.28 -2.240002,9.44 -1.6,9.44 -1.12,9.59999 -0.8,9.60001 -0.32,9.60001 0.32,9.59999 0.64,9.76001 1.28,9.43998 1.6,9.60001 2.079998,9.28 2.560005,9.44 3.039994,9.12 3.36,8.96 4,8.79999 4.32,8.64002 4.639999,8.32 5.120003,8.15998 5.599999,8 5.920002,7.52002 6.240001,7.35998 6.719998,6.88001 6.880001,6.72 7.36,6.23999 7.520001,5.92001 8,5.60001 7.999999,5.28 8.48,4.63998 8.64,4.32001 8.800001,4 8.959999,3.51999 9.120001,3.04001 9.279999,2.55999 9.439998,2.08002 9.440003,1.59998 9.599998,1.28002 9.599999,0.63999 9.600006,0.32001 9.599996,-0.32001 9.6,-0.63999 9.6,-1.12002 9.43999,-1.59998 9.44001,-2.24002 9.27999,-2.39999 9.28,-3.04001 8.96001,-3.51999 8.8,-3.84 8.64,-4.32"
       style="fill:none;stroke:#000000;stroke-width:26.4;stroke-linecap:round;stroke-linejoin:round;stroke-miterlimit:10;stroke-dasharray:none;stroke-opacity:1"
       transform="translate(176.74666,111.5066)"
       clip-path="url(#clipPath2)" />
    <path
       id="path3"
       d="m 0,0 -8.32,4.8 -8.16,5.12 -8,5.6 -7.52,5.920001 -7.360001,6.239999 -7.040001,6.720002 -6.559997,6.879997 -6.400002,7.36 L -65.279999,56.16 -70.720001,64 -76,72.160004 l -4.639999,8.319999 -4.480004,8.64 -3.839996,8.799995 -3.520004,8.960002 -3.039994,9.28 -2.560005,9.28 -2.079998,9.28 -1.76,9.60001 -1.12,9.43998 -0.8,9.76001 -0.16,9.59999 0.16,9.60001 0.8,9.60001 1.12,9.59999 1.6,9.44 2.080002,9.44 2.559998,9.28 3.040001,9.12 3.519996,8.96 3.840004,8.96 4.32,8.48001 4.799995,8.47998 5.120003,8.16 5.440003,7.84 5.919998,7.68002 6.400001,7.19998 6.559998,7.04001 7.040001,6.72 7.2,6.23999 7.680001,5.92001 7.84,5.60001 8.159999,5.12 8.32,4.79998 8.64,4.32001 8.799999,3.84 8.960001,3.51999 9.120001,3.04001 9.279999,2.55999 9.439998,2.24002 9.440003,1.59998 9.600002,1.12002 9.599999,0.79999 9.760002,0.16001 9.599996,-0.16001 9.6,-0.64001 9.6,-1.28 9.43999,-1.59998 9.44001,-2.08001 9.27999,-2.56 9.12001,-3.04001 8.96,-3.35999 8.8,-4 8.64,-4.32"
       style="fill:none;stroke:#000000;stroke-width:26.4;stroke-linecap:round;stroke-linejoin:round;stroke-miterlimit:10;stroke-dasharray:none;stroke-opacity:1"
       transform="translate(130.66667,24.786603)"
       clip-path="url(#clipPath4)" />
    <path
       id="path5"
       d="m 0,0 -1.92,4.48 -1.44,4.48 -1.12,4.64 -0.8,4.64 -0.48,4.639999 V 27.68 l 0.32,4.64 0.64,4.799999 0.96,4.639999 1.44,4.480004 1.76,4.479999 2.08,4.16 2.4,4.16 2.72,3.84 2.88,3.679997 3.36,3.520004 3.52,3.040001 3.68,3.040001 4,2.559997 4.16,2.239998 4.32,1.919998 4.479999,1.600006 4.48,1.279999 4.640003,0.959999"
       style="fill:none;stroke:#000000;stroke-width:26.4;stroke-linecap:round;stroke-linejoin:round;stroke-miterlimit:10;stroke-dasharray:none;stroke-opacity:1"
       transform="translate(130.66667,24.786603)"
       clip-path="url(#clipPath6)" />
    <path
       id="path7"
       d="m 0,0 -1.76,4.48 -1.6,4.48 -1.12,4.48 -0.8,4.8 -0.32,4.639999 -0.16,4.800001 0.32,4.64 0.64,4.799999 1.12,4.639999 1.28,4.480004 1.76,4.319999 2.08,4.32 2.4,4.16 2.72,3.84 3.04,3.679997 3.2,3.520004 3.52,3.040001 L 20,76 l 4,2.720001 4.16,2.239998 4.32,1.919998 4.479999,1.600006 4.639999,1.279999 4.640004,0.959999"
       style="fill:none;stroke:#000000;stroke-width:26.4;stroke-linecap:round;stroke-linejoin:round;stroke-miterlimit:10;stroke-dasharray:none;stroke-opacity:1"
       transform="translate(315.30668,371.3466)"
       clip-path="url(#clipPath8)" />
  </g>
</svg>
