<?xml version="1.0" encoding="UTF-8" standalone="no"?>
<!-- Created with Inkscape (http://www.inkscape.org/) -->

<svg
   version="1.1"
   id="svg1"
   width="441.57333"
   height="440.48001"
   viewBox="0 0 441.57333 440.48001"
   sodipodi:docname="Leo18.pdf"
   xmlns:inkscape="http://www.inkscape.org/namespaces/inkscape"
   xmlns:sodipodi="http://sodipodi.sourceforge.net/DTD/sodipodi-0.dtd"
   xmlns="http://www.w3.org/2000/svg"
   xmlns:svg="http://www.w3.org/2000/svg">
  <defs
     id="defs1">
    <clipPath
       clipPathUnits="userSpaceOnUse"
       id="clipPath2">
      <path
         d="M 0,0.16 V 1122.5601 H 793.59998 V 0.16 Z"
         transform="translate(-356.79999,-690.40003)"
         clip-rule="evenodd"
         id="path2" />
    </clipPath>
    <clipPath
       clipPathUnits="userSpaceOnUse"
       id="clipPath4">
      <path
         d="M 0,0.16 V 1122.5601 H 793.59998 V 0.16 Z"
         transform="translate(-356,-692.79999)"
         clip-rule="evenodd"
         id="path4" />
    </clipPath>
    <clipPath
       clipPathUnits="userSpaceOnUse"
       id="clipPath6">
      <path
         d="M 0,0.16 V 1122.5601 H 793.59998 V 0.16 Z"
         transform="translate(-262.56,-519.35999)"
         clip-rule="evenodd"
         id="path6" />
    </clipPath>
    <clipPath
       clipPathUnits="userSpaceOnUse"
       id="clipPath8">
      <path
         d="M 0,0.16 V 1122.5601 H 793.59998 V 0.16 Z"
         transform="translate(-275.84,-559.35999)"
         clip-rule="evenodd"
         id="path8" />
    </clipPath>
  </defs>
  <sodipodi:namedview
     id="namedview1"
     pagecolor="#505050"
     bordercolor="#eeeeee"
     borderopacity="1"
     inkscape:showpageshadow="0"
     inkscape:pageopacity="0"
     inkscape:pagecheckerboard="0"
     inkscape:deskcolor="#505050">
    <inkscape:page
       x="0"
       y="0"
       inkscape:label="1"
       id="page1"
       width="441.57333"
       height="440.48001"
       margin="0"
       bleed="0" />
  </sodipodi:namedview>
  <g
     id="g1"
     inkscape:groupmode="layer"
     inkscape:label="1">
    <path
       id="path1"
       d="m 0,0 8.64,-8.16 8.640001,-8.16 8.639999,-8.479999 8.640001,-8.48 8.8,-8.479999 L 52,-50.400002 l 8.48,-8.639999 8.640003,-8.639999 8.479995,-8.64 8.32,-8.800003 8.32,-8.639999 L 102.4,-102.4 l 8.16,-8.64 7.84,-8.48 7.84,-8.48 7.51999,-8.48 7.52001,-8.32 7.2,-8.16001 7.04,-8 6.87999,-8 6.56002,-7.83999 6.39999,-7.68 6.08,-7.36 5.92,-7.36 5.60001,-7.04 5.27999,-6.87999 5.12,-6.56 4.8,-6.40001 4.48,-6.24001 4.16,-5.91999 3.84,-5.6 3.52,-5.44 3.2,-5.11999 2.88,-4.80002 2.56,-4.47998 2.23999,-4.16001 1.92002,-4 1.43998,-3.51999 1.28,-3.36001 0.80001,-2.88001 0.48001,-2.55999 0.15998,-2.4 -0.31999,-1.92001 -0.47999,-1.59998 -0.96001,-1.12002 -1.28,-0.95999 -1.6,-0.48001 -1.92,-0.31998 -2.23999,0.16 -2.72,0.63999 -2.88001,0.80001 -3.36,1.28 -3.52,1.43998 -4,1.92001 -4.16001,2.23999 -4.64,2.56 -4.79999,2.88 -5.12001,3.36002 -5.44,3.51999 -5.59999,3.83999 -5.92,4.16001 -6.24,4.48001 -6.4,4.79999 -6.72,5.12001 -6.88,5.43998 -7.04,5.60001 -7.36,5.92 -7.36,6.08 -7.68,6.39999 -7.84,6.56002 -8,6.87999 -8,7.04 -8.159997,7.36 -8.319999,7.36001 -8.480004,7.67999 -8.480003,7.68001 -8.639996,8 -8.479999,8 -8.800003,8.15998 -8.64,8.32001 L 24,-128.8 l -8.64,8.48 -8.8,8.48 -8.64,8.64 -8.48,8.640002 -8.640001,8.64 -8.319999,8.799995 -8.48,8.64 -8.32,8.640003"
       style="fill:none;stroke:#000000;stroke-width:26.4;stroke-linecap:round;stroke-linejoin:round;stroke-miterlimit:10;stroke-dasharray:none;stroke-opacity:1"
       transform="translate(179.37332,376.71997)"
       clip-path="url(#clipPath2)" />
    <path
       id="path3"
       d="M 0,0 -1.6,1.76 -2.88,3.68 -4,5.6 -4.8,7.84 -5.28,10.08 -5.6,12.32 v 2.24 l 0.32,2.239999 0.48,2.240002 0.8,2.08 1.12,2.08 1.28,1.92 L 0,26.719999 1.6,28.32 3.52,29.6 5.6,30.559999 7.68,31.360001 9.92,32 l 2.24,0.32 h 2.24 l 2.239999,-0.32 2.24,-0.639999 2.08,-0.800002 2.080002,-0.959999 1.919998,-1.28 1.6,-1.600001"
       style="fill:none;stroke:#000000;stroke-width:26.4;stroke-linecap:round;stroke-linejoin:round;stroke-miterlimit:10;stroke-dasharray:none;stroke-opacity:1"
       transform="translate(178.57333,379.11993)"
       clip-path="url(#clipPath4)" />
    <path
       id="path5"
       d="m 0,0 -5.12,0.16 -4.96,0.64 -4.96,0.96 -4.8,1.28 -4.799999,1.6 -4.480002,2.08 -4.479997,2.4 -4.32,2.72 -4,2.88 -3.68,3.36 -3.520001,3.52 -3.360001,3.840001 -2.880001,4 -2.720001,4.319997 L -60.32,38.240002 -62.240002,42.880001 -64,47.68 l -1.120003,4.8 -0.959999,4.959999 -0.479996,4.960003 -0.160003,4.959999 0.160003,5.120002 0.64,4.959999 0.959999,4.96 1.439999,4.799995 1.600002,4.639999 2.079998,4.640007 2.400001,4.479997 2.719998,4.16 3.040001,4 3.36,3.68 3.680001,3.52 3.84,3.2 4,3.04 4.319999,2.56 4.48,2.24 4.639999,1.92 4.800002,1.6 4.799999,1.28 4.96,0.80001 4.96,0.47999 5.12,0.16001 4.96,-0.32001 4.96,-0.64 4.96,-0.96001 4.799999,-1.43999 4.640001,-1.76 4.64,-2.08 4.320001,-2.4 4.16,-2.72 4,-3.04 3.84,-3.36 3.359997,-3.68"
       style="fill:none;stroke:#000000;stroke-width:26.4;stroke-linecap:round;stroke-linejoin:round;stroke-miterlimit:10;stroke-dasharray:none;stroke-opacity:1"
       transform="translate(85.133331,205.67993)"
       clip-path="url(#clipPath6)" />
    <path
       id="path7"
       d="M 0,0 2.08,-1.12 4,-2.4 5.76,-4 l 1.6,-1.76 1.44,-1.92 1.28,-2.08 0.8,-2.24 0.8,-2.24 0.32,-2.399999 0.16,-2.24 v -2.400002 L 11.84,-23.68 11.2,-25.92 10.24,-28.16 9.12,-30.24 7.84,-32.16 6.24,-34.080002 4.48,-35.68 2.56,-36.959999 0.48,-38.240002 -1.6,-39.200001 -4,-39.84 l -2.24,-0.48 -2.4,-0.16 -2.4,0.16 -2.24,0.32"
       style="fill:none;stroke:#000000;stroke-width:26.4;stroke-linecap:round;stroke-linejoin:round;stroke-miterlimit:10;stroke-dasharray:none;stroke-opacity:1"
       transform="translate(98.413329,245.67993)"
       clip-path="url(#clipPath8)" />
  </g>
</svg>
