<?xml version="1.0" encoding="UTF-8" standalone="no"?>
<!-- Created with Inkscape (http://www.inkscape.org/) -->

<svg
   version="1.1"
   id="svg1"
   width="454.90668"
   height="411.12"
   viewBox="0 0 454.90668 411.12"
   sodipodi:docname="Leo13.pdf"
   xmlns:inkscape="http://www.inkscape.org/namespaces/inkscape"
   xmlns:sodipodi="http://sodipodi.sourceforge.net/DTD/sodipodi-0.dtd"
   xmlns="http://www.w3.org/2000/svg"
   xmlns:svg="http://www.w3.org/2000/svg">
  <defs
     id="defs1">
    <clipPath
       clipPathUnits="userSpaceOnUse"
       id="clipPath2">
      <path
         d="M 0,0.16 V 1122.5601 H 793.59998 V 0.16 Z"
         transform="translate(-321.92001,-743.03998)"
         clip-rule="evenodd"
         id="path2" />
    </clipPath>
    <clipPath
       clipPathUnits="userSpaceOnUse"
       id="clipPath4">
      <path
         d="M 0,0.16 V 1122.5601 H 793.59998 V 0.16 Z"
         transform="translate(-251.36,-676.79999)"
         clip-rule="evenodd"
         id="path4" />
    </clipPath>
    <clipPath
       clipPathUnits="userSpaceOnUse"
       id="clipPath6">
      <path
         d="M 0,0.16 V 1122.5601 H 793.59998 V 0.16 Z"
         transform="translate(-371.20001,-564.64002)"
         clip-rule="evenodd"
         id="path6" />
    </clipPath>
    <clipPath
       clipPathUnits="userSpaceOnUse"
       id="clipPath8">
      <path
         d="M 0,0.16 V 1122.5601 H 793.59998 V 0.16 Z"
         transform="translate(-537.28003,-722.71997)"
         clip-rule="evenodd"
         id="path8" />
    </clipPath>
  </defs>
  <sodipodi:namedview
     id="namedview1"
     pagecolor="#505050"
     bordercolor="#eeeeee"
     borderopacity="1"
     inkscape:showpageshadow="0"
     inkscape:pageopacity="0"
     inkscape:pagecheckerboard="0"
     inkscape:deskcolor="#505050">
    <inkscape:page
       x="0"
       y="0"
       inkscape:label="1"
       id="page1"
       width="454.90668"
       height="411.12"
       margin="0"
       bleed="0" />
  </sodipodi:namedview>
  <g
     id="g1"
     inkscape:groupmode="layer"
     inkscape:label="1">
    <path
       id="path1"
       d="m 0,0 0.8,-8.96 0.64,-9.28 0.48,-9.120001 0.16,-9.279998 v -9.279999 l -0.16,-9.280003 -0.16,-9.280002 -0.64,-9.279999 -0.64,-9.119995 -0.8,-8.959999 -1.12,-8.960004 -1.12,-8.8 -1.44,-8.64 -1.6,-8.48 -1.6,-8.16 -1.92,-8 -2.08,-7.84 -2.08,-7.52 -2.4,-7.2 -2.4,-7.04 -2.559999,-6.55999 -2.720002,-6.24001 -2.879999,-6.08 -3.040001,-5.60001 -3.039999,-5.27999 -3.2,-4.79999 -3.200001,-4.48001 -3.360001,-4 -3.359997,-3.68 -3.52,-3.19999 -3.520001,-2.88001 -3.68,-2.24 -3.52,-1.92 -3.680001,-1.44 -3.68,-0.96 -3.839996,-0.64 h -3.680001 l -3.68,0.32 -3.68,0.8 -3.68,1.28 -3.680001,1.75999 -3.520004,2.24001 -3.68,2.56 -3.519997,3.04 -3.36,3.51999 -3.36,3.84002 -3.36,4.31999 -3.2,4.64 -3.04,5.12001 -3.04,5.59999 -2.88,5.76001 -2.72,6.23999"
       style="fill:none;stroke:#000000;stroke-width:26.4;stroke-linecap:round;stroke-linejoin:round;stroke-miterlimit:10;stroke-dasharray:none;stroke-opacity:1"
       transform="translate(321.92001,739.03992)"
       clip-path="url(#clipPath2)" />
    <path
       id="path3"
       d="m 0,0 15.84,-5.92 15.68,-6.4 15.360001,-6.880001 15.200001,-7.359998 14.879997,-7.840003 14.720001,-8.319999 14.4,-8.959999 14.08,-9.119999 13.76,-9.759999 13.44,-10.240005 13.28,-10.559998 12.8,-11.039999 12.31999,-11.36 12.16001,-11.84"
       style="fill:none;stroke:#000000;stroke-width:26.4;stroke-linecap:round;stroke-linejoin:round;stroke-miterlimit:10;stroke-dasharray:none;stroke-opacity:1"
       transform="translate(251.36,672.79993)"
       clip-path="url(#clipPath4)" />
    <path
       id="path5"
       d="M 0,0 3.52,2.08 7.36,4 l 4,1.28 4.32,1.12 4.32,0.64 4.48,0.32 h 4.800001 L 34.080002,6.88 38.880001,5.92 43.84,4.8 l 5.119999,-1.6 5.120003,-1.92 4.959999,-2.4 5.120003,-2.56 5.119995,-3.04 5.120003,-3.36 4.959999,-3.52 4.800003,-4 4.799995,-4.16 4.800003,-4.48 4.479996,-4.639999 L 102.56,-35.84 l 4.32,-5.119999 4,-5.440003 3.84,-5.439998 3.68,-5.599999 3.36,-5.920002 3.04,-5.760002 2.88,-5.919998 2.56,-6.080002 2.4,-6.079994 2.08,-6.080002 1.60001,-5.919998 1.43998,-6.080003 1.12001,-5.92 0.79999,-5.76 0.48001,-5.76 0.16001,-5.60001 -0.16001,-5.43998 -0.48001,-5.28 L 138.88,-144 l -0.96,-4.96001 -1.44,-4.47999 -1.76,-4.48 -2.08,-4 -2.24001,-3.83999 -2.55999,-3.52001 -2.88,-3.04001 -3.2,-2.87999 -3.36,-2.55999 -3.52,-2.08001 -3.84,-1.76001 -4,-1.43998 -4.32,-1.12001 -4.319998,-0.64 -4.64,-0.31999 H 89.120003 L 84.32,-184.64 l -4.800003,0.96001 -5.119995,1.11999 -4.96,1.59999 -5.120002,1.92002 -5.119999,2.39999 -5.119999,2.56 -4.960003,3.04001 -5.119999,3.36 -4.959999,3.51999 -4.959999,4 -4.800001,4.16 -4.640002,4.48 -4.479999,4.64 -4.48,4.96 -4.16,5.12 -4,5.44 -3.84,5.44 -3.68,5.6 -3.36,5.92 -3.04,5.76 -2.88,6.08 -2.72,5.920001 -2.24,6.080001 -2.08,6.079995 -1.76,5.920005 -1.44,6.079995 -1.119999,5.920005 -0.800002,5.759999 -0.479999,5.759998 -0.16,5.600002 0.16,5.439999 0.479999,5.279999 0.800002,4.960003 1.119999,4.959999 1.44,4.639999 1.76,4.32 2.08,4 2.24,3.84 2.56,3.52 2.88,3.2 3.2,2.72 L 0,0"
       style="fill:none;stroke:#000000;stroke-width:26.4;stroke-linecap:round;stroke-linejoin:round;stroke-miterlimit:10;stroke-dasharray:none;stroke-opacity:1"
       transform="translate(371.20001,560.63996)"
       clip-path="url(#clipPath6)" />
    <path
       id="path7"
       d="M 0,0 6.56,-1.76 12.8,-3.68 18.719999,-5.6 24.32,-7.84 l 5.120001,-2.4 4.800001,-2.4 4.479999,-2.72 4,-2.88 3.520001,-2.880001 3.199997,-3.039999 2.720001,-3.200001 2.400001,-3.359998 1.919999,-3.360003 1.439998,-3.519996 0.960003,-3.680001 0.48,-3.68 0.159999,-3.68 -0.319999,-3.840001 -0.799999,-3.84 -1.280003,-3.84 -1.759998,-4.000004 -2.080002,-4 -2.559998,-4 L 47.68,-76 44.16,-80 40.32,-84 36.16,-88 31.52,-91.839996 26.4,-95.68 20.959999,-99.519997 15.2,-103.36 l -6.08,-3.68 -6.4,-3.52 -6.72,-3.52 -7.04,-3.36 -7.36,-3.36 -7.68,-3.2 -7.679998,-3.04 -8.16,-3.04 -8.160004,-2.72 -8.479999,-2.72 -8.639996,-2.56 -8.800003,-2.4 -8.800003,-2.24 -9.119995,-1.92 -8.960002,-1.92 -9.12,-1.76001 -9.28,-1.43998 -9.11999,-1.44001 -9.12001,-1.12001 -9.12,-0.95999 -9.11999,-0.8"
       style="fill:none;stroke:#000000;stroke-width:26.4;stroke-linecap:round;stroke-linejoin:round;stroke-miterlimit:10;stroke-dasharray:none;stroke-opacity:1"
       transform="translate(537.28003,718.71991)"
       clip-path="url(#clipPath8)" />
  </g>
</svg>
