<?xml version="1.0" encoding="UTF-8" standalone="no"?>
<!-- Created with Inkscape (http://www.inkscape.org/) -->

<svg
   version="1.1"
   id="svg1"
   width="352.18668"
   height="541.91998"
   viewBox="0 0 352.18668 541.91998"
   sodipodi:docname="Leo12.pdf"
   xmlns:inkscape="http://www.inkscape.org/namespaces/inkscape"
   xmlns:sodipodi="http://sodipodi.sourceforge.net/DTD/sodipodi-0.dtd"
   xmlns="http://www.w3.org/2000/svg"
   xmlns:svg="http://www.w3.org/2000/svg">
  <defs
     id="defs1">
    <clipPath
       clipPathUnits="userSpaceOnUse"
       id="clipPath2">
      <path
         d="M 0,0.16 V 1122.5601 H 793.59998 V 0.16 Z"
         transform="translate(-434.55999,-429.12)"
         clip-rule="evenodd"
         id="path2" />
    </clipPath>
    <clipPath
       clipPathUnits="userSpaceOnUse"
       id="clipPath4">
      <path
         d="M 0,0.16 V 1122.5601 H 793.59998 V 0.16 Z"
         transform="translate(-434.55999,-806.71997)"
         clip-rule="evenodd"
         id="path4" />
    </clipPath>
    <clipPath
       clipPathUnits="userSpaceOnUse"
       id="clipPath6">
      <path
         d="M 0,0.16 V 1122.5601 H 793.59998 V 0.16 Z"
         transform="translate(-434.55999,-429.12)"
         clip-rule="evenodd"
         id="path6" />
    </clipPath>
    <clipPath
       clipPathUnits="userSpaceOnUse"
       id="clipPath8">
      <path
         d="M 0,0.16 V 1122.5601 H 793.59998 V 0.16 Z"
         transform="translate(-547.84002,-542.40003)"
         clip-rule="evenodd"
         id="path8" />
    </clipPath>
    <clipPath
       clipPathUnits="userSpaceOnUse"
       id="clipPath10">
      <path
         d="M 0,0.16 V 1122.5601 H 793.59998 V 0.16 Z"
         transform="translate(-3.3333333e-6)"
         clip-rule="evenodd"
         id="path10" />
    </clipPath>
  </defs>
  <sodipodi:namedview
     id="namedview1"
     pagecolor="#505050"
     bordercolor="#eeeeee"
     borderopacity="1"
     inkscape:showpageshadow="0"
     inkscape:pageopacity="0"
     inkscape:pagecheckerboard="0"
     inkscape:deskcolor="#505050">
    <inkscape:page
       x="0"
       y="0"
       inkscape:label="1"
       id="page1"
       width="352.18668"
       height="541.91998"
       margin="0"
       bleed="0" />
  </sodipodi:namedview>
  <g
     id="g1"
     inkscape:groupmode="layer"
     inkscape:label="1">
    <path
       id="path1"
       d="m 0,0 -9.28,0.32 -9.12,0.64 -9.28,1.12 -9.119999,1.6 -8.959999,2.08 -8.960003,2.4 -8.799999,2.88 -8.640004,3.36 -8.479995,3.68 -8.32,4.32 -8,4.479999 L -104.8,31.84 l -7.68,5.279999 -7.2,5.760002 -7.04,6.079998 -6.72,6.400002 -6.4,6.720001 -6.08,7.040001 -5.6,7.199997 -5.44001,7.68 -4.95999,7.839996 -4.47999,8 -4.16001,8.320004 -3.83999,8.48 -3.36,8.64 -2.88001,8.8 -2.39999,8.8 -2.08,9.12 -1.60001,9.11999 -1.12,9.12001 -0.64,9.28 -0.32,9.28 0.32,9.28 0.64,9.28 1.12,9.12 1.60001,9.12001 2.08,9.11999 2.39999,8.95999 2.88001,8.80001 3.36,8.64 3.83999,8.48001 4.16001,8.16 4.47999,8.16 4.95999,7.84 5.44001,7.51999 5.6,7.36001 6.08,6.87998 6.4,6.72 6.72,6.40002 7.04,6.07999 7.2,5.76001 7.68,5.28 7.840001,4.95999 8,4.63999 8.32,4.16 8.479995,3.68002 8.640004,3.35999 8.799999,2.88 8.960003,2.56 8.959999,1.92001 9.119999,1.59998 9.28,1.12002 9.12,0.79999 9.28,0.16001"
       style="fill:none;stroke:#000000;stroke-width:26.4;stroke-linecap:round;stroke-linejoin:round;stroke-miterlimit:10;stroke-dasharray:none;stroke-opacity:1"
       transform="translate(213.10666,140.79994)"
       clip-path="url(#clipPath2)" />
    <path
       id="path3"
       d="m 0,0 4.48,-0.16 4.48,-0.48 4.32,-0.96 4.32,-1.12 4.16,-1.6 4,-1.92 4,-2.08 3.679999,-2.56 3.52,-2.72 3.200001,-3.039999 3.040001,-3.200001 2.719997,-3.520001 2.400002,-3.84 2.240001,-3.84 1.919999,-4 1.439998,-4.16 L 55.200001,-43.52 56,-47.84 l 0.48,-4.48 0.159999,-4.479999 -0.159999,-4.48 -0.48,-4.319999 -0.959999,-4.480004 -1.120003,-4.159996 -1.599998,-4.32 -1.919998,-4 -2.240002,-3.840004 -2.400002,-3.68 -2.719997,-3.519996 L 40,-96.800003 l -3.360001,-3.039993 -3.52,-2.720004 -3.679998,-2.56 -4,-2.08 -4,-1.92 -4.16,-1.44 -4.320001,-1.28 -4.32,-0.8 -4.48,-0.48 -4.48,-0.16 -4.48,0.16 -4.32,0.64 -4.32,0.8 -4.32,1.28 -4.16,1.6 -4,1.92 -4,2.08 -3.679998,2.56 -3.360001,2.720003 L -40.32,-96.32 l -3.040001,3.199997 -2.720001,3.520005 -2.399998,3.68 -2.080001,4"
       style="fill:none;stroke:#000000;stroke-width:26.4;stroke-linecap:round;stroke-linejoin:round;stroke-miterlimit:10;stroke-dasharray:none;stroke-opacity:1"
       transform="translate(213.10666,518.39991)"
       clip-path="url(#clipPath4)" />
    <path
       id="path5"
       d="M 0,0 7.68,-1.28 15.36,-3.04 22.879999,-5.28 30.24,-8 37.279999,-11.04 44.32,-14.56 51.040001,-18.4 57.599998,-22.719999 63.84,-27.360001 69.919998,-32.32 l 5.599999,-5.439998 5.440002,-5.600003 4.959999,-6.079998 4.64,-6.240001 4.319999,-6.560002 3.840004,-6.719997 L 102.24,-76 l 3.04,-7.040001 2.72,-7.360001 2.24,-7.519996 1.76,-7.680002 1.28,-7.68"
       style="fill:none;stroke:#000000;stroke-width:26.4;stroke-linecap:round;stroke-linejoin:round;stroke-miterlimit:10;stroke-dasharray:none;stroke-opacity:1"
       transform="translate(213.10666,140.79994)"
       clip-path="url(#clipPath6)" />
    <path
       id="path7"
       d="M 0,0 -1.28,-7.68 -3.04,-15.2 -5.28,-22.719999 -8,-30.08 -11.04,-37.279999 -14.56,-44.32 -18.4,-51.040001 -22.719999,-57.599998 -27.360001,-63.84 -32.32,-69.760002 l -5.439998,-5.759995 -5.600003,-5.280006 -6.079998,-5.119995 -6.240001,-4.64 -6.560002,-4.319999 -6.719997,-3.840004 L -76,-102.24 l -7.040001,-3.04 -7.360001,-2.72 -7.519996,-2.08 -7.680002,-1.92 -7.68,-1.28"
       style="fill:none;stroke:#000000;stroke-width:26.4;stroke-linecap:round;stroke-linejoin:round;stroke-miterlimit:10;stroke-dasharray:none;stroke-opacity:1"
       transform="translate(326.38669,254.07997)"
       clip-path="url(#clipPath8)" />
    <path
       id="path9"
       d="M 547.84003,315.84 V 542.40002"
       style="fill:none;stroke:#000000;stroke-width:26.4;stroke-linecap:round;stroke-linejoin:round;stroke-miterlimit:10;stroke-dasharray:none;stroke-opacity:1"
       transform="translate(-221.45333,-288.32006)"
       clip-path="url(#clipPath10)" />
  </g>
</svg>
