<?xml version="1.0" encoding="UTF-8" standalone="no"?>
<!-- Created with Inkscape (http://www.inkscape.org/) -->

<svg
   version="1.1"
   id="svg1"
   width="581.65332"
   height="431.14667"
   viewBox="0 0 581.65332 431.14667"
   sodipodi:docname="Leo2.pdf"
   xmlns:inkscape="http://www.inkscape.org/namespaces/inkscape"
   xmlns:sodipodi="http://sodipodi.sourceforge.net/DTD/sodipodi-0.dtd"
   xmlns="http://www.w3.org/2000/svg"
   xmlns:svg="http://www.w3.org/2000/svg">
  <defs
     id="defs1">
    <clipPath
       clipPathUnits="userSpaceOnUse"
       id="clipPath2">
      <path
         d="M 0,0.16 V 1122.5601 H 793.59998 V 0.16 Z"
         transform="translate(-585.76001,-523.52002)"
         clip-rule="evenodd"
         id="path2" />
    </clipPath>
    <clipPath
       clipPathUnits="userSpaceOnUse"
       id="clipPath4">
      <path
         d="M 0,0.16 V 1122.5601 H 793.59998 V 0.16 Z"
         clip-rule="evenodd"
         id="path4" />
    </clipPath>
    <clipPath
       clipPathUnits="userSpaceOnUse"
       id="clipPath6">
      <path
         d="M 0,0.16 V 1122.5601 H 793.59998 V 0.16 Z"
         clip-rule="evenodd"
         id="path6" />
    </clipPath>
    <clipPath
       clipPathUnits="userSpaceOnUse"
       id="clipPath8">
      <path
         d="M 0,0.16 V 1122.5601 H 793.59998 V 0.16 Z"
         transform="translate(-132.64,-674.56)"
         clip-rule="evenodd"
         id="path8" />
    </clipPath>
    <clipPath
       clipPathUnits="userSpaceOnUse"
       id="clipPath10">
      <path
         d="M 0,0.16 V 1122.5601 H 793.59998 V 0.16 Z"
         transform="translate(-189.28,-712.32001)"
         clip-rule="evenodd"
         id="path10" />
    </clipPath>
    <clipPath
       clipPathUnits="userSpaceOnUse"
       id="clipPath12">
      <path
         d="M 0,0.16 V 1122.5601 H 793.59998 V 0.16 Z"
         transform="translate(-585.76001,-599.03998)"
         clip-rule="evenodd"
         id="path12" />
    </clipPath>
  </defs>
  <sodipodi:namedview
     id="namedview1"
     pagecolor="#505050"
     bordercolor="#eeeeee"
     borderopacity="1"
     inkscape:showpageshadow="0"
     inkscape:pageopacity="0"
     inkscape:pagecheckerboard="0"
     inkscape:deskcolor="#505050">
    <inkscape:page
       x="0"
       y="0"
       inkscape:label="1"
       id="page1"
       width="581.65332"
       height="431.14667"
       margin="0"
       bleed="0" />
  </sodipodi:namedview>
  <g
     id="g1"
     inkscape:groupmode="layer"
     inkscape:label="1">
    <path
       id="path1"
       d="m 0,0 -0.16,-8.16 -0.64,-8.16 -1.12,-8.16 -1.6,-8 -1.92,-7.84 -2.4,-7.84 -2.88,-7.68 -3.2,-7.520001 -3.68,-7.36 -4,-7.199997 -4.48,-6.880005 -4.639999,-6.559998 -5.120001,-6.400001 -5.599999,-6.079998 -5.760002,-5.76 -6.079998,-5.44 -6.400001,-5.12 -6.559998,-4.8 -6.880005,-4.48 -7.199997,-4 -7.36,-3.67999 -7.519997,-3.20002 -7.520003,-2.71998 -7.84,-2.40001 -8,-2.08 -8,-1.44001 -8.16,-1.11999 -8.16,-0.64 -8.15999,-0.31999 -8.16001,0.31999 -8.16,0.64 -8.16,1.11999 -8,1.44001 -7.84,2.08 -7.84,2.40001 -7.68,2.71998 -7.51999,3.20002 -7.36,3.67999 -7.20002,4 -6.87999,4.48 -6.55999,4.8 -6.40001,5.12 -6.08,5.44 -5.76001,5.76 -5.43998,6.079998 -5.12002,6.400001 -4.79999,6.559998 -4.48001,6.880005 -4,7.199997 -3.67999,7.36 -3.19999,7.520001 -2.72,7.68 -2.40002,7.84 -2.07999,7.84 -1.44,8 -1.12,8.16 -0.64001,8.16 -0.31998,8.16"
       style="fill:none;stroke:#000000;stroke-width:26.4;stroke-linecap:round;stroke-linejoin:round;stroke-miterlimit:10;stroke-dasharray:none;stroke-opacity:1"
       transform="translate(585.76001,526.18663)"
       clip-path="url(#clipPath2)" />
    <path
       id="path3"
       d="M 283.67999,523.52002 V 674.56"
       style="fill:none;stroke:#000000;stroke-width:26.4;stroke-linecap:round;stroke-linejoin:round;stroke-miterlimit:10;stroke-dasharray:none;stroke-opacity:1"
       transform="translate(0,2.666608)"
       clip-path="url(#clipPath4)" />
    <path
       id="path5"
       d="m 585.76001,523.52002 v 75.51996"
       style="fill:none;stroke:#000000;stroke-width:26.4;stroke-linecap:round;stroke-linejoin:round;stroke-miterlimit:10;stroke-dasharray:none;stroke-opacity:1"
       transform="translate(0,2.666608)"
       clip-path="url(#clipPath6)" />
    <path
       id="path7"
       d="M 0,0 0.16,5.44 0.8,10.72 1.76,16 3.04,21.280001 4.8,26.4 6.88,31.360001 9.28,36.16 12,40.799999 l 3.04,4.48 3.519999,4.16 3.520001,4 4,3.68 4.16,3.360001 4.480001,3.04 4.64,2.719998 4.799999,2.400001 4.959999,2.080002 5.120003,1.760002 5.279998,1.279999 5.280003,0.959999 5.439995,0.64 5.279999,0.159996 5.440002,-0.159996 5.279999,-0.64 5.440002,-0.959999 5.120003,-1.279999 5.119997,-1.760002 4.96,-2.080002 4.8,-2.400001 4.64,-2.719998 4.48,-3.04 4.16,-3.360001 4.00001,-3.68 3.67999,-4 3.36,-4.16 3.03999,-4.48 2.72,-4.639999 2.56002,-4.799999 L 146.24,26.4 148,21.280001 149.28,16 150.24,10.72 150.88,5.44 151.03999,0"
       style="fill:none;stroke:#000000;stroke-width:26.4;stroke-linecap:round;stroke-linejoin:round;stroke-miterlimit:10;stroke-dasharray:none;stroke-opacity:1"
       transform="translate(132.64,677.22661)"
       clip-path="url(#clipPath8)" />
    <path
       id="path9"
       d="m 0,0 3.68,-1.28 3.52,-1.6 3.36,-1.76 3.2,-2.24 3.039999,-2.4 L 19.68,-12 l 2.4,-2.88 2.4,-3.04 1.92,-3.360001 1.76,-3.519998 1.44,-3.520001 0.959999,-3.84 0.800002,-3.68 0.319999,-3.84 0.16,-3.84 -0.32,-4 -0.479999,-3.680001 -0.960001,-3.84 -1.280001,-3.68 -1.599998,-3.520001 -1.76,-3.359996 -2.24,-3.200005 -2.400002,-3.039993 -2.719999,-2.720002 -2.88,-2.560005 -3.04,-2.239998 -3.36,-2.080001 -3.52,-1.759995 -3.52,-1.280006 -3.68,-1.119995 -3.84,-0.800004 -3.84,-0.319999 -3.84,-0.159996 -3.840001,0.319999 -3.84,0.479996 -3.839998,0.959999 -3.68,1.280007 -3.520001,1.599998 -3.36,1.759995 -3.200001,2.240005 -3.039997,2.400002 -2.720002,2.559997 -2.560001,3.040001 -2.399998,3.040001 -1.920002,3.359997 -1.759998,3.36 -1.440002,3.680001 -0.959999,3.68 -0.8,3.84 -0.479999,3.84 v 3.840001 l 0.16,3.84"
       style="fill:none;stroke:#000000;stroke-width:26.4;stroke-linecap:round;stroke-linejoin:round;stroke-miterlimit:10;stroke-dasharray:none;stroke-opacity:1"
       transform="translate(189.28,714.98662)"
       clip-path="url(#clipPath10)" />
    <path
       id="path11"
       d="M 0,0 0.16,3.52 0.64,6.88 1.44,10.4 2.56,13.6 4,16.799999 5.6,19.84 7.68,22.719999 9.92,25.440001 12.32,28 l 2.72,2.08 2.88,2.08 3.039999,1.599998 3.200001,1.440003 3.200001,1.119999 3.519998,0.799999 3.360003,0.479999 3.519996,0.16 3.520001,-0.16 3.36,-0.479999 L 48.16,36.32 l 3.200001,-1.119999 3.2,-1.440003 L 57.599998,32.16 60.48,30.08 63.200001,28 65.599998,25.440001 67.839996,22.719999 69.919998,19.84 71.519997,16.799999 72.959999,13.6 74.080002,10.4 74.879997,6.88 75.360001,3.52 75.519997,0"
       style="fill:none;stroke:#000000;stroke-width:26.4;stroke-linecap:round;stroke-linejoin:round;stroke-miterlimit:10;stroke-dasharray:none;stroke-opacity:1"
       transform="translate(585.76001,601.70659)"
       clip-path="url(#clipPath12)" />
  </g>
</svg>
