<?xml version="1.0" encoding="UTF-8" standalone="no"?>
<!-- Created with Inkscape (http://www.inkscape.org/) -->

<svg
   version="1.1"
   id="svg1"
   width="444.23999"
   height="443.16"
   viewBox="0 0 444.23999 443.16"
   sodipodi:docname="Leo4.pdf"
   xmlns:inkscape="http://www.inkscape.org/namespaces/inkscape"
   xmlns:sodipodi="http://sodipodi.sourceforge.net/DTD/sodipodi-0.dtd"
   xmlns="http://www.w3.org/2000/svg"
   xmlns:svg="http://www.w3.org/2000/svg">
  <defs
     id="defs1">
    <clipPath
       clipPathUnits="userSpaceOnUse"
       id="clipPath2">
      <path
         d="M 0,0.16 V 1122.5601 H 793.59998 V 0.16 Z"
         clip-rule="evenodd"
         id="path2" />
    </clipPath>
    <clipPath
       clipPathUnits="userSpaceOnUse"
       id="clipPath4">
      <path
         d="M 0,0.16 V 1122.5601 H 793.59998 V 0.16 Z"
         transform="translate(-514.71997,-367.84)"
         clip-rule="evenodd"
         id="path4" />
    </clipPath>
    <clipPath
       clipPathUnits="userSpaceOnUse"
       id="clipPath6">
      <path
         d="M 0,0.16 V 1122.5601 H 793.59998 V 0.16 Z"
         transform="translate(-408,-688.32001)"
         clip-rule="evenodd"
         id="path6" />
    </clipPath>
  </defs>
  <sodipodi:namedview
     id="namedview1"
     pagecolor="#505050"
     bordercolor="#eeeeee"
     borderopacity="1"
     inkscape:showpageshadow="0"
     inkscape:pageopacity="0"
     inkscape:pagecheckerboard="0"
     inkscape:deskcolor="#505050">
    <inkscape:page
       x="0"
       y="0"
       inkscape:label="1"
       id="page1"
       width="444.23999"
       height="443.16"
       margin="0"
       bleed="0" />
  </sodipodi:namedview>
  <g
     id="g1"
     inkscape:groupmode="layer"
     inkscape:label="1">
    <path
       id="path1"
       d="M 514.56,368.16 127.84,754.71997"
       style="fill:none;stroke:#000000;stroke-width:26.4;stroke-linecap:round;stroke-linejoin:round;stroke-miterlimit:10;stroke-dasharray:none;stroke-opacity:1"
       transform="translate(0,12.013275)"
       clip-path="url(#clipPath2)" />
    <path
       id="path3"
       d="M 0,0 -9.76,14.08 -19.040001,28.48 -28,43.200001 l -8.32,14.880001 -8,15.199997 -7.68,15.36 -7.040001,15.520001 -6.559997,15.84 -6.239998,16 -5.600006,16.16 -5.119996,16.32 -4.800003,16.48001 -4.159996,16.64 -3.68,16.79998 -3.200005,16.80001 -2.719998,16.96 -2.08,16.96 -1.76,17.11999 -1.12,17.12 -0.64,17.12002"
       style="fill:none;stroke:#000000;stroke-width:26.4;stroke-linecap:round;stroke-linejoin:round;stroke-miterlimit:10;stroke-dasharray:none;stroke-opacity:1"
       transform="translate(514.71997,379.85327)"
       clip-path="url(#clipPath4)" />
    <path
       id="path5"
       d="m 0,0 -2.72,-8.32 -3.2,-8.16 -3.68,-8 -4,-7.68 -4.48,-7.52 -4.960001,-7.360001 -5.279999,-6.879997 -5.599998,-6.720001 -5.920002,-6.400002 -6.400002,-5.919998 -6.719997,-5.760002 L -59.84,-84 l -7.359997,-4.800003 -7.520004,-4.479996 -7.680001,-4 -8,-3.680001 -8.159996,-3.2 -8.320002,-2.72"
       style="fill:none;stroke:#000000;stroke-width:26.4;stroke-linecap:round;stroke-linejoin:round;stroke-miterlimit:10;stroke-dasharray:none;stroke-opacity:1"
       transform="translate(408,700.33328)"
       clip-path="url(#clipPath6)" />
  </g>
</svg>
