<?xml version="1.0" encoding="UTF-8" standalone="no"?>
<!-- Created with Inkscape (http://www.inkscape.org/) -->

<svg
   version="1.1"
   id="svg1"
   width="589.65332"
   height="504.54666"
   viewBox="0 0 589.65332 504.54666"
   sodipodi:docname="Libra7.pdf"
   xmlns:inkscape="http://www.inkscape.org/namespaces/inkscape"
   xmlns:sodipodi="http://sodipodi.sourceforge.net/DTD/sodipodi-0.dtd"
   xmlns="http://www.w3.org/2000/svg"
   xmlns:svg="http://www.w3.org/2000/svg">
  <defs
     id="defs1">
    <clipPath
       clipPathUnits="userSpaceOnUse"
       id="clipPath2">
      <path
         d="M 0,0.16 V 1122.5601 H 793.59998 V 0.16 Z"
         transform="translate(-435.35999,-637.35999)"
         clip-rule="evenodd"
         id="path2" />
    </clipPath>
    <clipPath
       clipPathUnits="userSpaceOnUse"
       id="clipPath4">
      <path
         d="M 0,0.16 V 1122.5601 H 793.59998 V 0.16 Z"
         clip-rule="evenodd"
         id="path4" />
    </clipPath>
    <clipPath
       clipPathUnits="userSpaceOnUse"
       id="clipPath6">
      <path
         d="M 0,0.16 V 1122.5601 H 793.59998 V 0.16 Z"
         clip-rule="evenodd"
         id="path6" />
    </clipPath>
    <clipPath
       clipPathUnits="userSpaceOnUse"
       id="clipPath8">
      <path
         d="M 0,0.16 V 1122.5601 H 793.59998 V 0.16 Z"
         transform="translate(-625.91998,-518.56)"
         clip-rule="evenodd"
         id="path8" />
    </clipPath>
    <clipPath
       clipPathUnits="userSpaceOnUse"
       id="clipPath10">
      <path
         d="M 0,0.16 V 1122.5601 H 793.59998 V 0.16 Z"
         transform="translate(-474.07999,-754.40003)"
         clip-rule="evenodd"
         id="path10" />
    </clipPath>
  </defs>
  <sodipodi:namedview
     id="namedview1"
     pagecolor="#505050"
     bordercolor="#eeeeee"
     borderopacity="1"
     inkscape:showpageshadow="0"
     inkscape:pageopacity="0"
     inkscape:pagecheckerboard="0"
     inkscape:deskcolor="#505050">
    <inkscape:page
       x="0"
       y="0"
       inkscape:label="1"
       id="page1"
       width="589.65332"
       height="504.54666"
       margin="0"
       bleed="0" />
  </sodipodi:namedview>
  <g
     id="g1"
     inkscape:groupmode="layer"
     inkscape:label="1">
    <path
       id="path1"
       d="m 0,0 c 0,-83.370003 -67.580002,-150.96001 -150.96001,-150.96001 -83.37999,0 -150.96,67.590007 -150.96,150.96001 0,83.370003 67.58001,150.96001 150.96,150.96001 C -67.580002,150.96001 0,83.370003 0,0 Z"
       style="fill:none;stroke:#000000;stroke-width:26.4;stroke-linecap:round;stroke-linejoin:round;stroke-miterlimit:10;stroke-dasharray:none;stroke-opacity:1"
       transform="translate(435.35999,630.67993)"
       clip-path="url(#clipPath2)" />
    <path
       id="path3"
       d="M 285.12,334.23999 V 484.64001"
       style="fill:none;stroke:#000000;stroke-width:26.4;stroke-linecap:round;stroke-linejoin:round;stroke-miterlimit:10;stroke-dasharray:none;stroke-opacity:1"
       transform="translate(0,-6.6800587)"
       clip-path="url(#clipPath4)" />
    <path
       id="path5"
       d="M 431.67999,636.47998 H 660.32001"
       style="fill:none;stroke:#000000;stroke-width:26.4;stroke-linecap:round;stroke-linejoin:round;stroke-miterlimit:10;stroke-dasharray:none;stroke-opacity:1"
       transform="translate(0,-6.6800587)"
       clip-path="url(#clipPath6)" />
    <path
       id="path7"
       d="m 0,0 -4.8,0.32 -4.8,0.64 -4.64,1.12 -4.639999,1.44 -4.640001,1.92 -4.48,2.4 -4.32,2.72 -4.319999,3.04 -4.16,3.520001 -4,4 -3.84,4.16 L -52.16,29.92 -55.68,34.880001 -58.880001,40 l -3.039997,5.599998 -2.880005,5.760003 -2.399994,5.919998 -2.400001,6.240001 -2.080002,6.560002 -1.760002,6.559997 -1.439995,6.720002 -1.280007,6.879997 -0.959999,7.040001 -0.639999,7.040001 -0.479996,7.04 v 7.2"
       style="fill:none;stroke:#000000;stroke-width:26.4;stroke-linecap:round;stroke-linejoin:round;stroke-miterlimit:10;stroke-dasharray:none;stroke-opacity:1"
       transform="translate(625.91998,511.87994)"
       clip-path="url(#clipPath8)" />
    <path
       id="path9"
       d="m 0,0 4.64,-0.48 4.64,-0.8 4.64,-1.44 4.48,-1.76 4.479999,-2.08 4.320002,-2.56 L 31.52,-12 l 4.16,-3.36 4,-3.680001 3.84,-4 3.680001,-4.479999 3.52,-4.64 3.360001,-4.959999 3.039997,-5.440002 L 60,-48 l 2.560001,-5.919998 2.560002,-5.920002 2.079994,-6.240002 1.920006,-6.559997 1.599998,-6.559998 1.440003,-6.720001 1.119995,-6.880005 0.800003,-6.879997 0.639999,-7.04 0.32,-7.04 v -7.04"
       style="fill:none;stroke:#000000;stroke-width:26.4;stroke-linecap:round;stroke-linejoin:round;stroke-miterlimit:10;stroke-dasharray:none;stroke-opacity:1"
       transform="translate(474.07999,747.71997)"
       clip-path="url(#clipPath10)" />
  </g>
</svg>
