<?xml version="1.0" encoding="UTF-8" standalone="no"?>
<!-- Created with Inkscape (http://www.inkscape.org/) -->

<svg
   version="1.1"
   id="svg1"
   width="573.64001"
   height="468.51999"
   viewBox="0 0 573.64001 468.51999"
   sodipodi:docname="LotOfFortune6.pdf"
   xmlns:inkscape="http://www.inkscape.org/namespaces/inkscape"
   xmlns:sodipodi="http://sodipodi.sourceforge.net/DTD/sodipodi-0.dtd"
   xmlns="http://www.w3.org/2000/svg"
   xmlns:svg="http://www.w3.org/2000/svg">
  <defs
     id="defs1">
    <clipPath
       clipPathUnits="userSpaceOnUse"
       id="clipPath2">
      <path
         d="M 0,0.16 V 1122.5601 H 793.59998 V 0.16 Z"
         transform="translate(-549.44,-561.35999)"
         clip-rule="evenodd"
         id="path2" />
    </clipPath>
    <clipPath
       clipPathUnits="userSpaceOnUse"
       id="clipPath4">
      <path
         d="M 0,0.16 V 1122.5601 H 793.59998 V 0.16 Z"
         clip-rule="evenodd"
         id="path4" />
    </clipPath>
    <clipPath
       clipPathUnits="userSpaceOnUse"
       id="clipPath6">
      <path
         d="M 0,0.16 V 1122.5601 H 793.59998 V 0.16 Z"
         clip-rule="evenodd"
         id="path6" />
    </clipPath>
    <clipPath
       clipPathUnits="userSpaceOnUse"
       id="clipPath8">
      <path
         d="M 0,0.16 V 1122.5601 H 793.59998 V 0.16 Z"
         clip-rule="evenodd"
         id="path8" />
    </clipPath>
    <clipPath
       clipPathUnits="userSpaceOnUse"
       id="clipPath10">
      <path
         d="M 0,0.16 V 1122.5601 H 793.59998 V 0.16 Z"
         transform="translate(-291.20001,-296.95999)"
         clip-rule="evenodd"
         id="path10" />
    </clipPath>
    <clipPath
       clipPathUnits="userSpaceOnUse"
       id="clipPath12">
      <path
         d="M 0,0.16 V 1122.5601 H 793.59998 V 0.16 Z"
         transform="translate(-698.88,-599.03998)"
         clip-rule="evenodd"
         id="path12" />
    </clipPath>
  </defs>
  <sodipodi:namedview
     id="namedview1"
     pagecolor="#505050"
     bordercolor="#eeeeee"
     borderopacity="1"
     inkscape:showpageshadow="0"
     inkscape:pageopacity="0"
     inkscape:pagecheckerboard="0"
     inkscape:deskcolor="#505050">
    <inkscape:page
       x="0"
       y="0"
       inkscape:label="1"
       id="page1"
       width="573.64001"
       height="468.51999"
       margin="0"
       bleed="0" />
  </sodipodi:namedview>
  <g
     id="g1"
     inkscape:groupmode="layer"
     inkscape:label="1">
    <path
       id="path1"
       d="m 0,0 c 0,-84.25 -68.300003,-152.56 -152.56,-152.56 -84.26001,0 -152.56,68.31 -152.56,152.56 0,84.25 68.29999,152.56 152.56,152.56 C -68.300003,152.56 0,84.25 0,0 Z"
       style="fill:none;stroke:#000000;stroke-width:26.4;stroke-linecap:round;stroke-linejoin:round;stroke-miterlimit:10;stroke-dasharray:none;stroke-opacity:1"
       transform="translate(549.44,673.47993)"
       clip-path="url(#clipPath2)" />
    <path
       id="path3"
       d="M 245.75999,561.28003 H 698.88"
       style="fill:none;stroke:#000000;stroke-width:26.4;stroke-linecap:round;stroke-linejoin:round;stroke-miterlimit:10;stroke-dasharray:none;stroke-opacity:1"
       transform="translate(0,112.11994)"
       clip-path="url(#clipPath4)" />
    <path
       id="path5"
       d="M 396.79999,410.23999 V 712.32001"
       style="fill:none;stroke:#000000;stroke-width:26.4;stroke-linecap:round;stroke-linejoin:round;stroke-miterlimit:10;stroke-dasharray:none;stroke-opacity:1"
       transform="translate(0,112.11994)"
       clip-path="url(#clipPath6)" />
    <path
       id="path7"
       d="m 698.88,561.28003 v 37.75995"
       style="fill:none;stroke:#000000;stroke-width:26.4;stroke-linecap:round;stroke-linejoin:round;stroke-miterlimit:10;stroke-dasharray:none;stroke-opacity:1"
       transform="translate(0,112.11994)"
       clip-path="url(#clipPath8)" />
    <path
       id="path9"
       d="m 0,0 0.16,6.72 0.64,6.56 1.12,6.56 1.44,6.4 1.76,6.399999 2.24,6.240002 2.72,6.079998 3.04,5.920002 3.36,5.759998 3.68,5.440003 4.16,5.279999 4.319999,4.959999 4.64,4.639999 4.960003,4.480003 5.279998,4 5.599999,3.839997 5.600002,3.36 5.919998,3.040001 6.080002,2.559998 6.239998,2.240002 6.400002,1.92 6.559997,1.44 6.560005,0.96 6.559998,0.64 6.559999,0.16 6.72,-0.16 6.56,-0.64 6.56,-0.96 6.4,-1.44 6.4,-1.92 6.24,-2.240002 6.08,-2.559998 5.92,-3.040001 5.76,-3.36 5.43999,-3.839997 5.28002,-4 4.95999,-4.480003 4.8,-4.639999 4.31999,-4.959999 4,-5.279999 3.84001,-5.440003 3.36,-5.759998 3.04,-5.920002 2.56,-6.079998 2.24,-6.240002 L 208,26.24 l 1.44,-6.4 0.95999,-6.56 0.64,-6.56 L 211.2,0"
       style="fill:none;stroke:#000000;stroke-width:26.4;stroke-linecap:round;stroke-linejoin:round;stroke-miterlimit:10;stroke-dasharray:none;stroke-opacity:1"
       transform="translate(291.20001,409.07993)"
       clip-path="url(#clipPath10)" />
    <path
       id="path11"
       d="M 0,0 0.16,3.52 0.64,6.88 1.44,10.4 2.56,13.6 4,16.799999 5.76,19.84 7.68,22.719999 9.92,25.440001 12.32,28 l 2.72,2.08 2.88,2.08 3.039999,1.599998 3.200001,1.440003 3.36,1.119999 3.359999,0.799999 3.360003,0.479999 3.519996,0.16 3.520001,-0.16 3.52,-0.479999 L 48.16,36.32 l 3.200001,-1.119999 3.2,-1.440003 L 57.599998,32.16 60.48,30.08 63.200001,28 65.760002,25.440001 67.839996,22.719999 69.919998,19.84 71.519997,16.799999 72.959999,13.6 74.080002,10.4 74.879997,6.88 75.360001,3.52 75.519997,0"
       style="fill:none;stroke:#000000;stroke-width:26.4;stroke-linecap:round;stroke-linejoin:round;stroke-miterlimit:10;stroke-dasharray:none;stroke-opacity:1"
       transform="translate(698.88,711.15992)"
       clip-path="url(#clipPath12)" />
  </g>
</svg>
