<?xml version="1.0" encoding="UTF-8" standalone="no"?>
<!-- Created with Inkscape (http://www.inkscape.org/) -->

<svg
   version="1.1"
   id="svg1"
   width="500.26666"
   height="499.21332"
   viewBox="0 0 500.26666 499.21332"
   sodipodi:docname="Mars6.pdf"
   xmlns:inkscape="http://www.inkscape.org/namespaces/inkscape"
   xmlns:sodipodi="http://sodipodi.sourceforge.net/DTD/sodipodi-0.dtd"
   xmlns="http://www.w3.org/2000/svg"
   xmlns:svg="http://www.w3.org/2000/svg">
  <defs
     id="defs1">
    <clipPath
       clipPathUnits="userSpaceOnUse"
       id="clipPath2">
      <path
         d="M 0,0.16 V 1122.5601 H 793.59998 V 0.16 Z"
         transform="translate(-253.75999,-424.64002)"
         clip-rule="evenodd"
         id="path2" />
    </clipPath>
    <clipPath
       clipPathUnits="userSpaceOnUse"
       id="clipPath4">
      <path
         d="M 0,0.16 V 1122.5601 H 793.59998 V 0.16 Z"
         transform="translate(-516.64001,-561.12)"
         clip-rule="evenodd"
         id="path4" />
    </clipPath>
    <clipPath
       clipPathUnits="userSpaceOnUse"
       id="clipPath6">
      <path
         d="M 0,0.16 V 1122.5601 H 793.59998 V 0.16 Z"
         transform="translate(-525.12,-642.71998)"
         clip-rule="evenodd"
         id="path6" />
    </clipPath>
    <clipPath
       clipPathUnits="userSpaceOnUse"
       id="clipPath8">
      <path
         d="M 0,0.16 V 1122.5601 H 793.59998 V 0.16 Z"
         clip-rule="evenodd"
         id="path8" />
    </clipPath>
    <clipPath
       clipPathUnits="userSpaceOnUse"
       id="clipPath10">
      <path
         d="M 0,0.16 V 1122.5601 H 793.59998 V 0.16 Z"
         transform="translate(-412.32001,-683.03998)"
         clip-rule="evenodd"
         id="path10" />
    </clipPath>
    <clipPath
       clipPathUnits="userSpaceOnUse"
       id="clipPath12">
      <path
         d="M 0,0.16 V 1122.5601 H 793.59998 V 0.16 Z"
         clip-rule="evenodd"
         id="path12" />
    </clipPath>
    <clipPath
       clipPathUnits="userSpaceOnUse"
       id="clipPath14">
      <path
         d="M 0,0.16 V 1122.5601 H 793.59998 V 0.16 Z"
         clip-rule="evenodd"
         id="path14" />
    </clipPath>
    <clipPath
       clipPathUnits="userSpaceOnUse"
       id="clipPath16">
      <path
         d="M 0,0.16 V 1122.5601 H 793.59998 V 0.16 Z"
         clip-rule="evenodd"
         id="path16" />
    </clipPath>
  </defs>
  <sodipodi:namedview
     id="namedview1"
     pagecolor="#505050"
     bordercolor="#eeeeee"
     borderopacity="1"
     inkscape:showpageshadow="0"
     inkscape:pageopacity="0"
     inkscape:pagecheckerboard="0"
     inkscape:deskcolor="#505050">
    <inkscape:page
       x="0"
       y="0"
       inkscape:label="1"
       id="page1"
       width="500.26666"
       height="499.21332"
       margin="0"
       bleed="0" />
  </sodipodi:namedview>
  <g
     id="g1"
     inkscape:groupmode="layer"
     inkscape:label="1">
    <path
       id="path1"
       d="m 0,0 7.04,18.879999 7.68,18.56 L 22.879999,55.84 31.360001,73.919998 40.48,91.839996 49.919998,109.6 60,127.04 l 10.400002,17.28001 10.720001,16.79998 11.36,16.64 L 104.16,194.08 l 12.16,16.16 12.48,15.68 12.95999,15.36 13.28,15.04001"
       style="fill:none;stroke:#000000;stroke-width:26.4;stroke-linecap:round;stroke-linejoin:round;stroke-miterlimit:10;stroke-dasharray:none;stroke-opacity:1"
       transform="translate(105.67999,112.29329)"
       clip-path="url(#clipPath2)" />
    <path
       id="path3"
       d="M 0,0 -16.799999,-12.96 -34.080002,-25.6 -51.68,-37.599998 -69.440002,-49.119999 -87.68,-60.16 l -18.4,-10.560001 -18.88,-10.080002 -19.04,-9.599999 -19.2,-8.959999 -19.52,-8.479999 -19.84,-8 -19.83999,-7.36 -20.16001,-6.88 -20.32,-6.4"
       style="fill:none;stroke:#000000;stroke-width:26.4;stroke-linecap:round;stroke-linejoin:round;stroke-miterlimit:10;stroke-dasharray:none;stroke-opacity:1"
       transform="translate(368.56001,248.77327)"
       clip-path="url(#clipPath4)" />
    <path
       id="path5"
       d="m 0,0 2.88,-3.36 2.72,-3.52 2.24,-3.84 2.08,-4 1.76,-3.999999 1.28,-4.320002 0.96,-4.32 0.64,-4.319999 0.32,-4.48 -0.16,-4.479999 -0.48,-4.32 -0.8,-4.32 -1.12,-4.319999 -1.6,-4.16 -1.76,-4 -2.24,-3.84 -2.4,-3.680001 L 1.44,-72.800003 -1.6,-76 l -3.36,-2.879997 -3.52,-2.720001"
       style="fill:none;stroke:#000000;stroke-width:26.4;stroke-linecap:round;stroke-linejoin:round;stroke-miterlimit:10;stroke-dasharray:none;stroke-opacity:1"
       transform="translate(377.04,330.37325)"
       clip-path="url(#clipPath6)" />
    <path
       id="path7"
       d="m 497.12,677.28003 28,-34.56006"
       style="fill:none;stroke:#000000;stroke-width:26.4;stroke-linecap:round;stroke-linejoin:round;stroke-miterlimit:10;stroke-dasharray:none;stroke-opacity:1"
       transform="translate(-148.08,-312.34673)"
       clip-path="url(#clipPath8)" />
    <path
       id="path9"
       d="m 0,0 3.2,3.04 3.68,2.56 3.68,2.4 4,1.92 4.159999,1.76 4.16,1.28 4.320002,0.96 4.319999,0.64 4.48,0.32 4.48,-0.16 4.319999,-0.32 4.48,-0.96 4.16,-1.12 4.159999,-1.44 4.16,-1.92 3.84,-2.24 3.680001,-2.4 3.36,-2.88 3.199997,-3.04 3.040001,-3.36 2.560005,-3.52"
       style="fill:none;stroke:#000000;stroke-width:26.4;stroke-linecap:round;stroke-linejoin:round;stroke-miterlimit:10;stroke-dasharray:none;stroke-opacity:1"
       transform="translate(264.24001,370.69325)"
       clip-path="url(#clipPath10)" />
    <path
       id="path11"
       d="M 170.24,787.84003 623.35998,334.72"
       style="fill:none;stroke:#000000;stroke-width:26.4;stroke-linecap:round;stroke-linejoin:round;stroke-miterlimit:10;stroke-dasharray:none;stroke-opacity:1"
       transform="translate(-148.08,-312.34673)"
       clip-path="url(#clipPath12)" />
    <path
       id="path13"
       d="M 510.07999,334.72 H 623.35998"
       style="fill:none;stroke:#000000;stroke-width:26.4;stroke-linecap:round;stroke-linejoin:round;stroke-miterlimit:10;stroke-dasharray:none;stroke-opacity:1"
       transform="translate(-148.08,-312.34673)"
       clip-path="url(#clipPath14)" />
    <path
       id="path15"
       d="M 623.35998,334.72 V 448"
       style="fill:none;stroke:#000000;stroke-width:26.4;stroke-linecap:round;stroke-linejoin:round;stroke-miterlimit:10;stroke-dasharray:none;stroke-opacity:1"
       transform="translate(-148.08,-312.34673)"
       clip-path="url(#clipPath16)" />
  </g>
</svg>
