<?xml version="1.0" encoding="UTF-8" standalone="no"?>
<!-- Created with Inkscape (http://www.inkscape.org/) -->

<svg
   version="1.1"
   id="svg1"
   width="577.65332"
   height="380.42667"
   viewBox="0 0 577.65332 380.42667"
   sodipodi:docname="Mars10.pdf"
   xmlns:inkscape="http://www.inkscape.org/namespaces/inkscape"
   xmlns:sodipodi="http://sodipodi.sourceforge.net/DTD/sodipodi-0.dtd"
   xmlns="http://www.w3.org/2000/svg"
   xmlns:svg="http://www.w3.org/2000/svg">
  <defs
     id="defs1">
    <clipPath
       clipPathUnits="userSpaceOnUse"
       id="clipPath2">
      <path
         d="M 0,0.16 V 1122.5601 H 793.59998 V 0.16 Z"
         transform="translate(-359.04001,-573.59998)"
         clip-rule="evenodd"
         id="path2" />
    </clipPath>
    <clipPath
       clipPathUnits="userSpaceOnUse"
       id="clipPath4">
      <path
         d="M 0,0.16 V 1122.5601 H 793.59998 V 0.16 Z"
         transform="translate(3.3333333e-6)"
         clip-rule="evenodd"
         id="path4" />
    </clipPath>
    <clipPath
       clipPathUnits="userSpaceOnUse"
       id="clipPath6">
      <path
         d="M 0,0.16 V 1122.5601 H 793.59998 V 0.16 Z"
         transform="translate(-661.12,-422.56)"
         clip-rule="evenodd"
         id="path6" />
    </clipPath>
    <clipPath
       clipPathUnits="userSpaceOnUse"
       id="clipPath8">
      <path
         d="M 0,0.16 V 1122.5601 H 793.59998 V 0.16 Z"
         transform="translate(-510.07999,-724.47998)"
         clip-rule="evenodd"
         id="path8" />
    </clipPath>
    <clipPath
       clipPathUnits="userSpaceOnUse"
       id="clipPath10">
      <path
         d="M 0,0.16 V 1122.5601 H 793.59998 V 0.16 Z"
         transform="translate(3.3333333e-6)"
         clip-rule="evenodd"
         id="path10" />
    </clipPath>
    <clipPath
       clipPathUnits="userSpaceOnUse"
       id="clipPath12">
      <path
         d="M 0,0.16 V 1122.5601 H 793.59998 V 0.16 Z"
         transform="translate(-575.35999,-421.92001)"
         clip-rule="evenodd"
         id="path12" />
    </clipPath>
  </defs>
  <sodipodi:namedview
     id="namedview1"
     pagecolor="#505050"
     bordercolor="#eeeeee"
     borderopacity="1"
     inkscape:showpageshadow="0"
     inkscape:pageopacity="0"
     inkscape:pagecheckerboard="0"
     inkscape:deskcolor="#505050">
    <inkscape:page
       x="0"
       y="0"
       inkscape:label="1"
       id="page1"
       width="577.65332"
       height="380.42667"
       margin="0"
       bleed="0" />
  </sodipodi:namedview>
  <g
     id="g1"
     inkscape:groupmode="layer"
     inkscape:label="1">
    <path
       id="path1"
       d="m 0,0 c 0,-62.560001 -50.709999,-113.28 -113.28,-113.28 -62.57001,0 -113.28,50.719999 -113.28,113.28 0,62.560001 50.70999,113.28 113.28,113.28 C -50.709999,113.28 0,62.560001 0,0 Z"
       style="fill:none;stroke:#000000;stroke-width:26.4;stroke-linecap:round;stroke-linejoin:round;stroke-miterlimit:10;stroke-dasharray:none;stroke-opacity:1"
       transform="translate(249.65334,202.53325)"
       clip-path="url(#clipPath2)" />
    <path
       id="path3"
       d="M 132.48,573.59998 H 585.59998"
       style="fill:none;stroke:#000000;stroke-width:26.4;stroke-linecap:round;stroke-linejoin:round;stroke-miterlimit:10;stroke-dasharray:none;stroke-opacity:1"
       transform="translate(-109.38667,-371.06673)"
       clip-path="url(#clipPath4)" />
    <path
       id="path5"
       d="m 0,0 -6.88,4.16 -6.72,4.64 -6.56,4.96 -6.08,5.280001 -5.92,5.599998 -5.599998,5.92 -5.280003,6.08 L -48,43.200001 -52.48,49.919998 -56.799999,56.799999 -60.639999,64 -64,71.360001 -67.040001,78.879997 -69.760002,86.559998 -72,94.400002 -73.760002,102.4 l -1.279999,8 -0.959999,8.16 -0.480003,8 -0.159996,8.16 0.319999,8.16 0.800003,8.15999"
       style="fill:none;stroke:#000000;stroke-width:26.4;stroke-linecap:round;stroke-linejoin:round;stroke-miterlimit:10;stroke-dasharray:none;stroke-opacity:1"
       transform="translate(551.73333,51.493273)"
       clip-path="url(#clipPath6)" />
    <path
       id="path7"
       d="m 0,0 7.04,-4.16 6.72,-4.64 6.4,-4.8 6.24,-5.279999 5.92,-5.600001 5.599998,-5.92 5.280003,-6.239999 L 48,-43.200001 l 4.639999,-6.719997 4.16,-6.880001 3.84,-7.200001 3.520005,-7.360001 3.039993,-7.519996 2.560005,-7.680001 L 72,-94.400002 73.760002,-102.4 l 1.439995,-8 0.960007,-8 0.479995,-8.16 v -8.16 l -0.319999,-8.16 -0.800003,-8"
       style="fill:none;stroke:#000000;stroke-width:26.4;stroke-linecap:round;stroke-linejoin:round;stroke-miterlimit:10;stroke-dasharray:none;stroke-opacity:1"
       transform="translate(400.69332,353.41325)"
       clip-path="url(#clipPath8)" />
    <path
       id="path9"
       d="M 585.59998,422.56 H 661.12"
       style="fill:none;stroke:#000000;stroke-width:26.4;stroke-linecap:round;stroke-linejoin:round;stroke-miterlimit:10;stroke-dasharray:none;stroke-opacity:1"
       transform="translate(-109.38667,-371.06673)"
       clip-path="url(#clipPath10)" />
    <path
       id="path11"
       d="M 0,0 -8.48,-4.32 -17.280001,-8.16 -26.08,-11.68 -35.040001,-14.72 -44.16,-17.280001 -53.439999,-19.52 l -9.280002,-1.760001 -9.440003,-1.279998 -9.439994,-0.800002 L -91.040001,-23.84 H -100.48 l -9.6,0.479999 -9.44,0.960001 -9.28,1.279999 -9.44,1.76 -9.12,2.24 -9.12,2.720001 -8.96,3.04 -8.95999,3.52 -8.64,3.84 -8.32001,4.32 -8.31999,4.64 -8,5.12 -7.84001,5.44 -7.51999,5.760001 -7.20001,6.239999 -6.87999,6.399998 -6.72001,6.880001 -6.24,7.040001 -5.92,7.360001"
       style="fill:none;stroke:#000000;stroke-width:26.4;stroke-linecap:round;stroke-linejoin:round;stroke-miterlimit:10;stroke-dasharray:none;stroke-opacity:1"
       transform="translate(465.97332,50.853288)"
       clip-path="url(#clipPath12)" />
  </g>
</svg>
