<?xml version="1.0" encoding="UTF-8" standalone="no"?>
<!-- Created with Inkscape (http://www.inkscape.org/) -->

<svg
   version="1.1"
   id="svg1"
   width="508.26666"
   height="395.09332"
   viewBox="0 0 508.26666 395.09332"
   sodipodi:docname="Mars4.pdf"
   xmlns:inkscape="http://www.inkscape.org/namespaces/inkscape"
   xmlns:sodipodi="http://sodipodi.sourceforge.net/DTD/sodipodi-0.dtd"
   xmlns="http://www.w3.org/2000/svg"
   xmlns:svg="http://www.w3.org/2000/svg">
  <defs
     id="defs1">
    <clipPath
       clipPathUnits="userSpaceOnUse"
       id="clipPath2">
      <path
         d="M 0,0.16 V 1122.5601 H 793.59998 V 0.16 Z"
         transform="translate(-396.79999,-385.92001)"
         clip-rule="evenodd"
         id="path2" />
    </clipPath>
    <clipPath
       clipPathUnits="userSpaceOnUse"
       id="clipPath4">
      <path
         d="M 0,0.16 V 1122.5601 H 793.59998 V 0.16 Z"
         transform="translate(-473.12,-672)"
         clip-rule="evenodd"
         id="path4" />
    </clipPath>
    <clipPath
       clipPathUnits="userSpaceOnUse"
       id="clipPath6">
      <path
         d="M 0,0.16 V 1122.5601 H 793.59998 V 0.16 Z"
         transform="translate(-418.56,-733.28003)"
         clip-rule="evenodd"
         id="path6" />
    </clipPath>
    <clipPath
       clipPathUnits="userSpaceOnUse"
       id="clipPath8">
      <path
         d="M 0,0.16 V 1122.5601 H 793.59998 V 0.16 Z"
         clip-rule="evenodd"
         id="path8" />
    </clipPath>
    <clipPath
       clipPathUnits="userSpaceOnUse"
       id="clipPath10">
      <path
         d="M 0,0.16 V 1122.5601 H 793.59998 V 0.16 Z"
         transform="translate(-312.64001,-677.11999)"
         clip-rule="evenodd"
         id="path10" />
    </clipPath>
    <clipPath
       clipPathUnits="userSpaceOnUse"
       id="clipPath12">
      <path
         d="M 0,0.16 V 1122.5601 H 793.59998 V 0.16 Z"
         clip-rule="evenodd"
         id="path12" />
    </clipPath>
    <clipPath
       clipPathUnits="userSpaceOnUse"
       id="clipPath14">
      <path
         d="M 0,0.16 V 1122.5601 H 793.59998 V 0.16 Z"
         transform="translate(-585.59998,-561.28003)"
         clip-rule="evenodd"
         id="path14" />
    </clipPath>
    <clipPath
       clipPathUnits="userSpaceOnUse"
       id="clipPath16">
      <path
         d="M 0,0.16 V 1122.5601 H 793.59998 V 0.16 Z"
         transform="translate(-585.59998,-674.56)"
         clip-rule="evenodd"
         id="path16" />
    </clipPath>
    <clipPath
       clipPathUnits="userSpaceOnUse"
       id="clipPath18">
      <path
         d="M 0,0.16 V 1122.5601 H 793.59998 V 0.16 Z"
         clip-rule="evenodd"
         id="path18" />
    </clipPath>
    <clipPath
       clipPathUnits="userSpaceOnUse"
       id="clipPath20">
      <path
         d="M 0,0.16 V 1122.5601 H 793.59998 V 0.16 Z"
         clip-rule="evenodd"
         id="path20" />
    </clipPath>
  </defs>
  <sodipodi:namedview
     id="namedview1"
     pagecolor="#505050"
     bordercolor="#eeeeee"
     borderopacity="1"
     inkscape:showpageshadow="0"
     inkscape:pageopacity="0"
     inkscape:pagecheckerboard="0"
     inkscape:deskcolor="#505050">
    <inkscape:page
       x="0"
       y="0"
       inkscape:label="1"
       id="page1"
       width="508.26666"
       height="395.09332"
       margin="0"
       bleed="0" />
  </sodipodi:namedview>
  <g
     id="g1"
     inkscape:groupmode="layer"
     inkscape:label="1">
    <path
       id="path1"
       d="m 0,0 -9.12,17.92 -8.64,18.08 -8,18.400002 -7.679999,18.559997 -7.2,18.720001 -6.720002,19.04 -6.079998,19.03999 -5.760002,19.36 L -64.32,168.48 -69.120003,188 l -4.159996,19.67999 -3.68,19.84001 -3.200005,19.84 -2.559997,19.84001 -2.239998,20"
       style="fill:none;stroke:#000000;stroke-width:26.4;stroke-linecap:round;stroke-linejoin:round;stroke-miterlimit:10;stroke-dasharray:none;stroke-opacity:1"
       transform="translate(396.79999,384.58662)"
       clip-path="url(#clipPath2)" />
    <path
       id="path3"
       d="m 0,0 -1.76,-21.120001 -2.4,-21.120001 -2.88,-21.119999 -3.52,-20.959999 -4,-20.96 -4.640001,-20.8 -5.279999,-20.64 -5.76,-20.48 -6.24,-20.32 -6.880001,-20.15999 -7.52,-20 -8,-19.68001 -8.48,-19.52 -8.959999,-19.19999"
       style="fill:none;stroke:#000000;stroke-width:26.4;stroke-linecap:round;stroke-linejoin:round;stroke-miterlimit:10;stroke-dasharray:none;stroke-opacity:1"
       transform="translate(473.12,670.66661)"
       clip-path="url(#clipPath4)" />
    <path
       id="path5"
       d="M 0,0 H 4.48 L 8.8,-0.48 13.12,-1.28 17.440001,-2.56 21.6,-4 l 4,-1.92 4,-2.08 3.519999,-2.56 3.52,-2.72 3.200001,-3.04 3.040001,-3.36 2.559998,-3.520001 2.400001,-3.84 2.079998,-3.839998 1.760002,-4.160002 1.279999,-4.16 1.120003,-4.319999 0.639999,-4.48 0.32,-4.32 v -4.479999 l -0.48,-4.48"
       style="fill:none;stroke:#000000;stroke-width:26.4;stroke-linecap:round;stroke-linejoin:round;stroke-miterlimit:10;stroke-dasharray:none;stroke-opacity:1"
       transform="translate(418.56,731.94664)"
       clip-path="url(#clipPath6)" />
    <path
       id="path7"
       d="M 374.07999,736 418.56,733.28003"
       style="fill:none;stroke:#000000;stroke-width:26.4;stroke-linecap:round;stroke-linejoin:round;stroke-miterlimit:10;stroke-dasharray:none;stroke-opacity:1"
       transform="translate(0,-1.333392)"
       clip-path="url(#clipPath8)" />
    <path
       id="path9"
       d="M 0,0 V 4.48 L 0.48,8.8 1.28,13.12 2.56,17.440001 4,21.6 l 1.92,4 2.08,3.840001 2.56,3.679998 2.72,3.52 3.2,3.200001 3.2,3.040001 3.520001,2.559998 3.84,2.400001 3.839998,2.079998 4.160002,1.760002 4.16,1.279999 4.319999,1.120003 4.48,0.639999 4.32,0.32 4.479999,-0.16 4.48,-0.32"
       style="fill:none;stroke:#000000;stroke-width:26.4;stroke-linecap:round;stroke-linejoin:round;stroke-miterlimit:10;stroke-dasharray:none;stroke-opacity:1"
       transform="translate(312.64001,675.7866)"
       clip-path="url(#clipPath10)" />
    <path
       id="path11"
       d="M 208,561.28003 H 585.59998"
       style="fill:none;stroke:#000000;stroke-width:26.4;stroke-linecap:round;stroke-linejoin:round;stroke-miterlimit:10;stroke-dasharray:none;stroke-opacity:1"
       transform="translate(0,-1.333392)"
       clip-path="url(#clipPath12)" />
    <path
       id="path13"
       d="m 0,0 4.48,-2.08 4.16,-2.24 4,-2.72 3.68,-3.04 3.52,-3.2 3.360001,-3.519999 2.879999,-3.84 2.719999,-4 2.400002,-4.16 1.919998,-4.32 1.760002,-4.639999 1.279999,-4.480004 0.959999,-4.799999 0.479999,-4.799999 0.16,-4.799999 -0.16,-4.8 -0.479999,-4.799999 -0.959999,-4.639999 -1.279999,-4.64 L 33.119999,-80 l -1.919998,-4.480003 -2.400002,-4.159996 -2.719999,-4 -2.879999,-3.840004 L 19.84,-100 l -3.52,-3.2 -3.68,-3.04 -4,-2.56 -4.16,-2.4 -4.48,-2.08"
       style="fill:none;stroke:#000000;stroke-width:26.4;stroke-linecap:round;stroke-linejoin:round;stroke-miterlimit:10;stroke-dasharray:none;stroke-opacity:1"
       transform="translate(585.59998,559.94664)"
       clip-path="url(#clipPath14)" />
    <path
       id="path15"
       d="M 0,0 4.16,-3.04 8,-6.4 l 3.68,-3.68 3.36,-3.84 3.04,-4.16 2.719999,-4.32 2.400002,-4.479999 2.08,-4.640001 1.599998,-4.96 L 28.32,-41.439999 29.280001,-46.400002 29.76,-51.52 l 0.16,-5.119999 -0.16,-5.119999 -0.479999,-5.119999 -0.960001,-4.959999 -1.440001,-4.960007 -1.599998,-4.799995 -2.08,-4.800004 -2.400002,-4.479995 -2.719999,-4.32 -3.04,-4.160004 L 11.68,-103.2 8,-106.88 4.16,-110.24 0,-113.28"
       style="fill:none;stroke:#000000;stroke-width:26.4;stroke-linecap:round;stroke-linejoin:round;stroke-miterlimit:10;stroke-dasharray:none;stroke-opacity:1"
       transform="translate(585.59998,673.22661)"
       clip-path="url(#clipPath16)" />
    <path
       id="path17"
       d="M 208,561.28003 170.24,485.76001"
       style="fill:none;stroke:#000000;stroke-width:26.4;stroke-linecap:round;stroke-linejoin:round;stroke-miterlimit:10;stroke-dasharray:none;stroke-opacity:1"
       transform="translate(0,-1.333392)"
       clip-path="url(#clipPath18)" />
    <path
       id="path19"
       d="m 208,561.28003 -37.76,75.51996"
       style="fill:none;stroke:#000000;stroke-width:26.4;stroke-linecap:round;stroke-linejoin:round;stroke-miterlimit:10;stroke-dasharray:none;stroke-opacity:1"
       transform="translate(0,-1.333392)"
       clip-path="url(#clipPath20)" />
  </g>
</svg>
