<?xml version="1.0" encoding="UTF-8" standalone="no"?>
<!-- Created with Inkscape (http://www.inkscape.org/) -->

<svg
   version="1.1"
   id="svg1"
   width="509.60001"
   height="388.42667"
   viewBox="0 0 509.60001 388.42667"
   sodipodi:docname="Mars8.pdf"
   xmlns:inkscape="http://www.inkscape.org/namespaces/inkscape"
   xmlns:sodipodi="http://sodipodi.sourceforge.net/DTD/sodipodi-0.dtd"
   xmlns="http://www.w3.org/2000/svg"
   xmlns:svg="http://www.w3.org/2000/svg">
  <defs
     id="defs1">
    <clipPath
       clipPathUnits="userSpaceOnUse"
       id="clipPath2">
      <path
         d="M 0,0.16 V 1122.5601 H 793.59998 V 0.16 Z"
         transform="translate(3.3333333e-6)"
         clip-rule="evenodd"
         id="path2" />
    </clipPath>
    <clipPath
       clipPathUnits="userSpaceOnUse"
       id="clipPath4">
      <path
         d="M 0,0.16 V 1122.5601 H 793.59998 V 0.16 Z"
         transform="translate(3.3333333e-6)"
         clip-rule="evenodd"
         id="path4" />
    </clipPath>
    <clipPath
       clipPathUnits="userSpaceOnUse"
       id="clipPath6">
      <path
         d="M 0,0.16 V 1122.5601 H 793.59998 V 0.16 Z"
         transform="translate(3.3333333e-6)"
         clip-rule="evenodd"
         id="path6" />
    </clipPath>
    <clipPath
       clipPathUnits="userSpaceOnUse"
       id="clipPath8">
      <path
         d="M 0,0.16 V 1122.5601 H 793.59998 V 0.16 Z"
         transform="translate(-397.44001,-539.52002)"
         clip-rule="evenodd"
         id="path8" />
    </clipPath>
    <clipPath
       clipPathUnits="userSpaceOnUse"
       id="clipPath10">
      <path
         d="M 0,0.16 V 1122.5601 H 793.59998 V 0.16 Z"
         transform="translate(-443.84,-589.44)"
         clip-rule="evenodd"
         id="path10" />
    </clipPath>
  </defs>
  <sodipodi:namedview
     id="namedview1"
     pagecolor="#505050"
     bordercolor="#eeeeee"
     borderopacity="1"
     inkscape:showpageshadow="0"
     inkscape:pageopacity="0"
     inkscape:pagecheckerboard="0"
     inkscape:deskcolor="#505050">
    <inkscape:page
       x="0"
       y="0"
       inkscape:label="1"
       id="page1"
       width="509.60001"
       height="388.42667"
       margin="0"
       bleed="0" />
  </sodipodi:namedview>
  <g
     id="g1"
     inkscape:groupmode="layer"
     inkscape:label="1">
    <path
       id="path1"
       d="m 399.20001,541.12 h 226.56"
       style="fill:none;stroke:#000000;stroke-width:26.4;stroke-linecap:round;stroke-linejoin:round;stroke-miterlimit:10;stroke-dasharray:none;stroke-opacity:1"
       transform="translate(-146.74667,-365.73339)"
       clip-path="url(#clipPath2)" />
    <path
       id="path3"
       d="M 625.76001,541.12 550.23999,465.60001"
       style="fill:none;stroke:#000000;stroke-width:26.4;stroke-linecap:round;stroke-linejoin:round;stroke-miterlimit:10;stroke-dasharray:none;stroke-opacity:1"
       transform="translate(-146.74667,-365.73339)"
       clip-path="url(#clipPath4)" />
    <path
       id="path5"
       d="m 625.76001,541.12 -75.52002,75.52001"
       style="fill:none;stroke:#000000;stroke-width:26.4;stroke-linecap:round;stroke-linejoin:round;stroke-miterlimit:10;stroke-dasharray:none;stroke-opacity:1"
       transform="translate(-146.74667,-365.73339)"
       clip-path="url(#clipPath6)" />
    <path
       id="path7"
       d="m 0,0 -5.6,-0.8 -6.08,-0.48 -6.24,-0.16 -6.4,0.16 -6.720001,0.32 -6.719997,0.8 L -44.799999,0.8 -52,1.92 l -7.200001,1.6 -7.359997,1.76 -7.36,2.08 -7.520004,2.24 -7.360001,2.56 -7.519997,2.88 -7.52,3.04 -7.36,3.360001 -7.52,3.519998 -7.2,3.68 -7.19999,3.840001 -7.04001,4.159999 -7.04,4.32 -6.72,4.32 -6.56,4.639999 -6.4,4.640003 -6.23999,4.959999 -5.92,4.8 -5.60001,5.120002 -5.44,5.119996 -5.12,5.120002 -4.8,5.279999 -4.48,5.279999 -4,5.279999 -3.84001,5.280003 -3.51999,5.28 -3.04,5.12 -2.72001,5.28 -2.23999,5.12 -1.91999,4.96 -1.60001,4.96 -1.12,4.80001 -0.63999,4.79998 -0.32001,4.64 V 150.24 l 0.47999,4.15999 0.96001,4.16001 1.28,4 1.75999,3.68 2.08001,3.51999 2.4,3.36 2.87999,3.04001 3.20002,2.87999 3.67999,2.56002 4,2.39999 4.16,2.08 4.64,1.76 4.95999,1.6 5.28002,1.28 5.43999,0.95999 5.76,0.64002 6.08001,0.47999 6.23999,0.16001 6.40001,-0.16001 6.72,-0.47999 6.87999,-0.64002 7.04001,-0.95999 7.03999,-1.28 7.36,-1.6 7.36,-1.76 7.36,-2.08 7.36,-2.39999 7.519997,-2.56002 7.520005,-2.87999 7.519996,-3.04001 7.360001,-3.36 7.36,-3.51999 7.360001,-3.84001 7.200001,-3.83999 7.040001,-4.16001 6.879997,-4.31999 6.720001,-4.47999 6.56,-4.48002 6.4,-4.79998 6.24,-4.80001 5.76,-4.96 5.76,-5.12 5.28,-5.12 5.12,-5.12 4.64,-5.28 4.48,-5.28 4.16,-5.279999 3.68,-5.120003 3.359999,-5.279999 L 36.32,79.68 39.040001,74.559998 41.279999,69.440002 43.200001,64.32 l 1.439998,-4.959999 1.119999,-4.8 0.640004,-4.640003"
       style="fill:none;stroke:#000000;stroke-width:26.4;stroke-linecap:round;stroke-linejoin:round;stroke-miterlimit:10;stroke-dasharray:none;stroke-opacity:1"
       transform="translate(250.69334,173.78663)"
       clip-path="url(#clipPath8)" />
    <path
       id="path9"
       d="m 0,0 2.4,-8 1.92,-8 1.6,-8.16 0.96,-8.16 0.64,-8.16 0.32,-8.319999 -0.32,-8.16 -0.64,-8.32 -1.12,-8.160003 -1.6,-8.159996 -2.08,-8 -2.4,-7.840004 -2.88,-7.679998 -3.2,-7.68 -3.68,-7.36 -4.16,-7.2 -4.479999,-6.88 -4.800001,-6.72001 -5.119999,-6.39999 -5.600003,-6.24001 L -40,-159.36 l -6.080002,-5.60001 -6.559997,-5.11999 -6.720002,-4.8 -6.879997,-4.48 -7.200004,-4.16 -7.360001,-3.68 -7.519997,-3.19999 -7.840004,-2.88001 -7.839996,-2.39999 -8,-2.08 -8.16,-1.60001"
       style="fill:none;stroke:#000000;stroke-width:26.4;stroke-linecap:round;stroke-linejoin:round;stroke-miterlimit:10;stroke-dasharray:none;stroke-opacity:1"
       transform="translate(297.09333,223.70661)"
       clip-path="url(#clipPath10)" />
  </g>
</svg>
