<?xml version="1.0" encoding="UTF-8" standalone="no"?>
<!-- Created with Inkscape (http://www.inkscape.org/) -->

<svg
   version="1.1"
   id="svg1"
   width="506.93332"
   height="504.56"
   viewBox="0 0 506.93332 504.56"
   sodipodi:docname="Mars22.pdf"
   xmlns:inkscape="http://www.inkscape.org/namespaces/inkscape"
   xmlns:sodipodi="http://sodipodi.sourceforge.net/DTD/sodipodi-0.dtd"
   xmlns="http://www.w3.org/2000/svg"
   xmlns:svg="http://www.w3.org/2000/svg">
  <defs
     id="defs1">
    <clipPath
       clipPathUnits="userSpaceOnUse"
       id="clipPath2">
      <path
         d="M 0,0.16 V 1122.5601 H 793.59998 V 0.16 Z"
         transform="translate(-3.3333333e-6)"
         clip-rule="evenodd"
         id="path2" />
    </clipPath>
    <clipPath
       clipPathUnits="userSpaceOnUse"
       id="clipPath4">
      <path
         d="M 0,0.16 V 1122.5601 H 793.59998 V 0.16 Z"
         transform="translate(-3.3333333e-6)"
         clip-rule="evenodd"
         id="path4" />
    </clipPath>
    <clipPath
       clipPathUnits="userSpaceOnUse"
       id="clipPath6">
      <path
         d="M 0,0.16 V 1122.5601 H 793.59998 V 0.16 Z"
         transform="translate(-3.3333333e-6)"
         clip-rule="evenodd"
         id="path6" />
    </clipPath>
    <clipPath
       clipPathUnits="userSpaceOnUse"
       id="clipPath8">
      <path
         d="M 0,0.16 V 1122.5601 H 793.59998 V 0.16 Z"
         transform="translate(-3.3333333e-6)"
         clip-rule="evenodd"
         id="path8" />
    </clipPath>
    <clipPath
       clipPathUnits="userSpaceOnUse"
       id="clipPath10">
      <path
         d="M 0,0.16 V 1122.5601 H 793.59998 V 0.16 Z"
         transform="translate(-547.84002,-485.76001)"
         clip-rule="evenodd"
         id="path10" />
    </clipPath>
    <clipPath
       clipPathUnits="userSpaceOnUse"
       id="clipPath12">
      <path
         d="M 0,0.16 V 1122.5601 H 793.59998 V 0.16 Z"
         transform="translate(-3.3333333e-6)"
         clip-rule="evenodd"
         id="path12" />
    </clipPath>
    <clipPath
       clipPathUnits="userSpaceOnUse"
       id="clipPath14">
      <path
         d="M 0,0.16 V 1122.5601 H 793.59998 V 0.16 Z"
         transform="translate(-698.88,-485.76001)"
         clip-rule="evenodd"
         id="path14" />
    </clipPath>
  </defs>
  <sodipodi:namedview
     id="namedview1"
     pagecolor="#505050"
     bordercolor="#eeeeee"
     borderopacity="1"
     inkscape:showpageshadow="0"
     inkscape:pageopacity="0"
     inkscape:pagecheckerboard="0"
     inkscape:deskcolor="#505050">
    <inkscape:page
       x="0"
       y="0"
       inkscape:label="1"
       id="page1"
       width="506.93332"
       height="504.56"
       margin="0"
       bleed="0" />
  </sodipodi:namedview>
  <g
     id="g1"
     inkscape:groupmode="layer"
     inkscape:label="1">
    <path
       id="path1"
       d="M 396.79999,334.72 V 787.84003"
       style="fill:none;stroke:#000000;stroke-width:26.4;stroke-linecap:round;stroke-linejoin:round;stroke-miterlimit:10;stroke-dasharray:none;stroke-opacity:1"
       transform="translate(-221.45333,-309.66673)"
       clip-path="url(#clipPath2)" />
    <path
       id="path3"
       d="M 245.75999,712.32001 H 623.35998"
       style="fill:none;stroke:#000000;stroke-width:26.4;stroke-linecap:round;stroke-linejoin:round;stroke-miterlimit:10;stroke-dasharray:none;stroke-opacity:1"
       transform="translate(-221.45333,-309.66673)"
       clip-path="url(#clipPath4)" />
    <path
       id="path5"
       d="M 245.75999,599.03998 H 623.35998"
       style="fill:none;stroke:#000000;stroke-width:26.4;stroke-linecap:round;stroke-linejoin:round;stroke-miterlimit:10;stroke-dasharray:none;stroke-opacity:1"
       transform="translate(-221.45333,-309.66673)"
       clip-path="url(#clipPath6)" />
    <path
       id="path7"
       d="M 396.79999,485.76001 H 547.84003"
       style="fill:none;stroke:#000000;stroke-width:26.4;stroke-linecap:round;stroke-linejoin:round;stroke-miterlimit:10;stroke-dasharray:none;stroke-opacity:1"
       transform="translate(-221.45333,-309.66673)"
       clip-path="url(#clipPath8)" />
    <path
       id="path9"
       d="m 0,0 -1.76,5.6 -1.28,5.6 -0.96,5.920001 -0.64,5.759998 -0.16,5.76 0.16,5.920002 L -4,40.32 -2.88,46.080002 -1.6,51.84 0.32,57.279999 2.4,62.720001 4.96,68 l 2.88,5.120003 3.36,4.799995 3.52,4.64 3.839999,4.319999 4.16,4.160004 4.480002,3.839996 4.639999,3.520005 4.959999,3.039998 5.119999,2.88 5.280003,2.4 5.439998,2.08 5.600003,1.76 5.759998,1.28 5.760002,0.96 5.759995,0.48"
       style="fill:none;stroke:#000000;stroke-width:26.4;stroke-linecap:round;stroke-linejoin:round;stroke-miterlimit:10;stroke-dasharray:none;stroke-opacity:1"
       transform="translate(326.38669,176.09328)"
       clip-path="url(#clipPath10)" />
    <path
       id="path11"
       d="M 321.28,334.72 H 472.32001"
       style="fill:none;stroke:#000000;stroke-width:26.4;stroke-linecap:round;stroke-linejoin:round;stroke-miterlimit:10;stroke-dasharray:none;stroke-opacity:1"
       transform="translate(-221.45333,-309.66673)"
       clip-path="url(#clipPath12)" />
    <path
       id="path13"
       d="m 0,0 -7.52,5.44 -7.36,5.92 -6.88,6.24 -6.72,6.56 -6.240001,6.880001 -5.919998,7.200001 -5.600003,7.519996 -5.119999,7.84 -4.799999,8 -4.32,8.32 -3.84,8.480004 -3.519996,8.639999 -3.040001,8.799995 -2.560005,8.960004 -2.239998,9.12 -1.599999,9.28 -1.120003,9.28 -0.799995,9.27999 -0.160004,9.28 0.160004,9.28002 0.799995,9.43998 1.120003,9.28 1.599999,9.12001 2.239998,9.12 2.560005,8.96 3.040001,8.79999 3.519996,8.64 3.84,8.48001 4.32,8.32 4.799999,8 5.119999,7.84001 5.600003,7.51999 5.919998,7.20001 6.240001,6.88 6.72,6.56 6.88,6.23999 7.36,5.92001 7.52,5.43998"
       style="fill:none;stroke:#000000;stroke-width:26.4;stroke-linecap:round;stroke-linejoin:round;stroke-miterlimit:10;stroke-dasharray:none;stroke-opacity:1"
       transform="translate(477.42667,176.09328)"
       clip-path="url(#clipPath14)" />
  </g>
</svg>
