<?xml version="1.0" encoding="UTF-8" standalone="no"?>
<!-- Created with Inkscape (http://www.inkscape.org/) -->

<svg
   version="1.1"
   id="svg1"
   width="540.29333"
   height="604.66669"
   viewBox="0 0 540.29333 604.66669"
   sodipodi:docname="Moon11.pdf"
   xmlns:inkscape="http://www.inkscape.org/namespaces/inkscape"
   xmlns:sodipodi="http://sodipodi.sourceforge.net/DTD/sodipodi-0.dtd"
   xmlns="http://www.w3.org/2000/svg"
   xmlns:svg="http://www.w3.org/2000/svg">
  <defs
     id="defs1">
    <clipPath
       clipPathUnits="userSpaceOnUse"
       id="clipPath2">
      <path
         d="M 26.4,26.559999 V 1096.16 H 767.03998 V 26.559999 Z"
         transform="translate(-202.39999,-560.32001)"
         clip-rule="evenodd"
         id="path2" />
    </clipPath>
    <clipPath
       clipPathUnits="userSpaceOnUse"
       id="clipPath4">
      <path
         d="M 26.4,26.559999 V 1096.16 H 767.03998 V 26.559999 Z"
         transform="translate(-171.36,-762.08002)"
         clip-rule="evenodd"
         id="path4" />
    </clipPath>
  </defs>
  <sodipodi:namedview
     id="namedview1"
     pagecolor="#505050"
     bordercolor="#eeeeee"
     borderopacity="1"
     inkscape:showpageshadow="0"
     inkscape:pageopacity="0"
     inkscape:pagecheckerboard="0"
     inkscape:deskcolor="#505050">
    <inkscape:page
       x="0"
       y="0"
       inkscape:label="1"
       id="page1"
       width="540.29333"
       height="604.66669"
       margin="0"
       bleed="0" />
  </sodipodi:namedview>
  <g
     id="g1"
     inkscape:groupmode="layer"
     inkscape:label="1">
    <path
       id="path1"
       d="m 0,0 c 0,-14.13 -11.46,-25.6 -25.6,-25.6 -14.140002,0 -25.600001,11.47 -25.600001,25.6 0,14.13 11.459999,25.6 25.600001,25.6 C -11.46,25.6 0,14.13 0,0 Z"
       style="fill:none;stroke:#000000;stroke-width:26.4;stroke-linecap:round;stroke-linejoin:round;stroke-miterlimit:10;stroke-dasharray:none;stroke-opacity:1"
       transform="translate(202.39999,562.98662)"
       clip-path="url(#clipPath2)" />
    <path
       id="path3"
       d="m 0,0 8.8,8 8.96,7.52 9.280001,7.359999 L 36.639999,29.6 46.560001,36 56.799999,42.080002 67.199997,47.52 l 10.720001,5.119999 10.720001,4.64 11.040001,4.319999 11.2,3.680001 11.36,3.200004 11.51999,2.719994 11.52001,2.240005 11.68001,1.759995 11.83999,1.280006 11.68,0.799996 11.84001,0.319999 11.83999,-0.319999 11.68,-0.64 11.83999,-1.279998 11.68001,-1.760003 11.52,-2.239997 11.51999,-2.720002 11.36002,-3.199997 11.19998,-3.680004 L 296,57.599998 306.88,53.119999 317.60001,48 328,42.400002 338.23999,36.48 l 9.92001,-6.4 9.60001,-6.719999 9.44,-7.200001 8.95999,-7.52 8.63999,-8 8.48001,-8.32 8,-8.8 7.51999,-8.960001 7.36001,-9.28 6.72,-9.599999 6.56,-9.920002 5.91999,-10.240001 5.6,-10.399994 5.12,-10.560005 L 450.72,-96.32 l 4.16,-11.04 3.68,-11.2 3.36001,-11.36 2.72,-11.36 2.23999,-11.68001 1.76001,-11.67999 1.28,-11.68001 0.79999,-11.83999 0.32001,-11.68 -0.16001,-11.83999 -0.80001,-11.84001 -1.12,-11.68 -1.75998,-11.68 -2.24002,-11.68 -2.72,-11.51999 -3.19998,-11.36001 -3.68002,-11.20001 -4,-11.03998 L 446.72,-314.56 441.60001,-325.12 436.16,-335.67999 430.23999,-345.76001 423.84,-355.84 l -6.72,-9.6 -7.19999,-9.28 -7.68002,-9.12 -7.84,-8.64001 -8.32,-8.47998 -8.63999,-8 -9.11999,-7.68002 -9.28,-7.19999 -9.60001,-6.88 -9.92001,-6.4 -10.07999,-6.08001 -10.39999,-5.44 -10.72,-5.28 -10.72,-4.63999 -11.04001,-4.16 -11.20001,-3.67999 -11.35999,-3.36002 -11.52,-2.72 -11.51999,-2.23999 -11.68001,-1.92001 -11.67999,-1.28 -11.84002,-0.79999 -11.83999,-0.32001 -11.84,0.32001 -11.68001,0.64001 -11.83999,1.12 -11.68,1.75998 -11.52,2.24002 -11.52,2.72 -11.36,3.03998 -11.2,3.68002 -11.040002,4.16 -10.879997,4.47999 -10.720002,5.11999 -10.399997,5.44 L 48,-438.39999 38.080002,-432 28.32,-425.28 19.040001,-418.07999 9.92,-410.56 l -8.64,8"
       style="fill:none;stroke:#000000;stroke-width:26.4;stroke-linecap:round;stroke-linejoin:round;stroke-miterlimit:10;stroke-dasharray:none;stroke-opacity:1"
       transform="translate(171.36,764.74663)"
       clip-path="url(#clipPath4)" />
  </g>
</svg>
