<?xml version="1.0" encoding="UTF-8" standalone="no"?>
<!-- Created with Inkscape (http://www.inkscape.org/) -->

<svg
   version="1.1"
   id="svg1"
   width="637.67999"
   height="551.26666"
   viewBox="0 0 637.67999 551.26666"
   sodipodi:docname="Moon12.pdf"
   xmlns:inkscape="http://www.inkscape.org/namespaces/inkscape"
   xmlns:sodipodi="http://sodipodi.sourceforge.net/DTD/sodipodi-0.dtd"
   xmlns="http://www.w3.org/2000/svg"
   xmlns:svg="http://www.w3.org/2000/svg">
  <defs
     id="defs1">
    <clipPath
       clipPathUnits="userSpaceOnUse"
       id="clipPath2">
      <path
         d="M 26.4,26.559999 V 1096.16 H 767.03998 V 26.559999 Z"
         transform="translate(-468.32,-443.67999)"
         clip-rule="evenodd"
         id="path2" />
    </clipPath>
    <clipPath
       clipPathUnits="userSpaceOnUse"
       id="clipPath4">
      <path
         d="M 26.4,26.559999 V 1096.16 H 767.03998 V 26.559999 Z"
         transform="translate(-217.44,-349.11999)"
         clip-rule="evenodd"
         id="path4" />
    </clipPath>
    <clipPath
       clipPathUnits="userSpaceOnUse"
       id="clipPath6">
      <path
         d="M 26.4,26.559999 V 1096.16 H 767.03998 V 26.559999 Z"
         transform="translate(-217.44,-349.11999)"
         clip-rule="evenodd"
         id="path6" />
    </clipPath>
    <clipPath
       clipPathUnits="userSpaceOnUse"
       id="clipPath8">
      <path
         d="M 26.4,26.559999 V 1096.16 H 767.03998 V 26.559999 Z"
         clip-rule="evenodd"
         id="path8" />
    </clipPath>
    <clipPath
       clipPathUnits="userSpaceOnUse"
       id="clipPath10">
      <path
         d="M 26.4,26.559999 V 1096.16 H 767.03998 V 26.559999 Z"
         transform="translate(-323.04001,-676.96002)"
         clip-rule="evenodd"
         id="path10" />
    </clipPath>
    <clipPath
       clipPathUnits="userSpaceOnUse"
       id="clipPath12">
      <path
         d="M 26.4,26.559999 V 1096.16 H 767.03998 V 26.559999 Z"
         transform="translate(-575.84002,-763.52002)"
         clip-rule="evenodd"
         id="path12" />
    </clipPath>
    <clipPath
       clipPathUnits="userSpaceOnUse"
       id="clipPath14">
      <path
         d="M 26.4,26.559999 V 1096.16 H 767.03998 V 26.559999 Z"
         transform="translate(-575.84002,-763.52002)"
         clip-rule="evenodd"
         id="path14" />
    </clipPath>
    <clipPath
       clipPathUnits="userSpaceOnUse"
       id="clipPath16">
      <path
         d="M 26.4,26.559999 V 1096.16 H 767.03998 V 26.559999 Z"
         clip-rule="evenodd"
         id="path16" />
    </clipPath>
  </defs>
  <sodipodi:namedview
     id="namedview1"
     pagecolor="#505050"
     bordercolor="#eeeeee"
     borderopacity="1"
     inkscape:showpageshadow="0"
     inkscape:pageopacity="0"
     inkscape:pagecheckerboard="0"
     inkscape:deskcolor="#505050">
    <inkscape:page
       x="0"
       y="0"
       inkscape:label="1"
       id="page1"
       width="637.67999"
       height="551.26666"
       margin="0"
       bleed="0" />
  </sodipodi:namedview>
  <g
     id="g1"
     inkscape:groupmode="layer"
     inkscape:label="1">
    <path
       id="path1"
       d="M 0,0 H 5.44 L 10.88,-0.16 16.639999,-0.48 22.4,-1.28 28.16,-2.08 34.080002,-3.36 39.84,-4.8 45.759998,-6.56 51.52,-8.48 l 5.919999,-2.24 5.600002,-2.4 5.599998,-2.56 5.440003,-2.879999 5.279999,-3.040001 5.120002,-3.199999 4.959999,-3.360001 4.64,-3.52 4.479996,-3.520001 4.160002,-3.84 3.84,-3.84 3.68,-4 3.2,-4 3.04,-4 2.56,-4.16 2.4,-4 1.92,-4.159996 1.44,-4.160004 1.28,-4 0.8,-4 0.32,-4 0.16,-3.839996 -0.48,-3.68 -0.64,-3.680001 -1.12,-3.36 -1.6,-3.360002 -1.76,-3.2 -2.24,-3.04 -2.56,-2.72 -3.04,-2.56 -3.2,-2.4 -3.52,-2.08 -3.84,-1.92 -4.160003,-1.76 -4.479996,-1.44 -4.639999,-1.12 -4.800003,-0.8 -5.119995,-0.64 -5.280007,-0.48 H 69.440002 L 64,-125.28 l -5.759998,0.32 -5.760002,0.8 -5.759999,0.96 -5.920002,1.28 -5.919998,1.44 -5.76,1.76 -5.92,1.92 -5.76,2.24 -5.600001,2.4 -5.6,2.72 -5.44,2.72 -5.28,3.04 -5.12,3.2 -4.8,3.359997 -4.800001,3.520005 -4.319999,3.68 -4.16,3.839996 -3.84,3.840004 -3.680001,4 -3.200001,4 -3.039997,4 -2.560001,4.159996 -2.240002,4 -1.919998,4.160004 -1.439998,4.16 -1.280003,4 -0.639999,4 -0.48,3.84"
       style="fill:none;stroke:#000000;stroke-width:26.4;stroke-linecap:round;stroke-linejoin:round;stroke-miterlimit:10;stroke-dasharray:none;stroke-opacity:1"
       transform="translate(386.94667,166.03993)"
       clip-path="url(#clipPath2)" />
    <path
       id="path3"
       d="m 0,0 10.4,8.96 10.399999,8.64 10.880001,8 10.880001,7.839999 11.199997,7.2 11.360005,6.880001 11.68,6.399998 11.68,6.080002 11.839997,5.440002 12.16,5.119996 12.16,4.480003 12.32001,4.159996 12.31999,3.68 12.47999,3.040001 12.64,2.720001 12.64,2.239998 12.64,1.760002 12.80001,1.120003 12.8,0.799996 12.8,0.160003 12.8,-0.160003"
       style="fill:none;stroke:#000000;stroke-width:26.4;stroke-linecap:round;stroke-linejoin:round;stroke-miterlimit:10;stroke-dasharray:none;stroke-opacity:1"
       transform="translate(136.06667,71.479936)"
       clip-path="url(#clipPath4)" />
    <path
       id="path5"
       d="m 0,0 -4.96,-4.32 -5.28,-3.84 -5.44,-3.68 -5.600001,-3.2 -5.76,-2.72 -5.919998,-2.4 -6.080002,-1.92 -6.079998,-1.6 -6.240002,-1.119999 -6.079998,-0.640002 L -63.68,-25.6 l -6.239998,0.159999 -6.240006,0.640002 -6.239998,1.119999 -6.080001,1.44 -6.079995,1.92 -5.760002,2.4 -5.92,2.72 -5.6,3.2"
       style="fill:none;stroke:#000000;stroke-width:26.4;stroke-linecap:round;stroke-linejoin:round;stroke-miterlimit:10;stroke-dasharray:none;stroke-opacity:1"
       transform="translate(136.06667,71.479936)"
       clip-path="url(#clipPath6)" />
    <path
       id="path7"
       d="m 416.32001,401.76001 -21.60001,156"
       style="fill:none;stroke:#000000;stroke-width:26.4;stroke-linecap:round;stroke-linejoin:round;stroke-miterlimit:10;stroke-dasharray:none;stroke-opacity:1"
       transform="translate(-81.373333,-277.64006)"
       clip-path="url(#clipPath8)" />
    <path
       id="path9"
       d="m 0,0 h -5.44 l -5.44,0.32 -5.759999,0.64 -5.760001,0.8 -5.76,1.12 -5.759998,1.44 -5.920002,1.6 -5.759998,1.92 -5.760003,2.08 -5.759998,2.4 -5.600002,2.56 L -68.32,17.76 -73.760002,20.799999 -78.879997,23.84 -84,27.200001 l -4.800003,3.519998 -4.639999,3.680003 -4.32,3.84 -3.999998,3.84 -3.84,4 -3.52,4 -3.2,4.16 -2.88,4.16 -2.56,4.159999 -2.24,4.16 -1.76,4.159996 -1.44,4.160004 -1.12,4.159996 -0.8,4 -0.32,4 0.16,3.840004 0.32,3.68 0.96,3.519997 1.12,3.520002 1.6,3.2 1.92,3.2 2.24,2.88 2.72,2.72 2.88,2.4 3.36,2.4 3.68,1.92 3.84,1.76 4.159997,1.6 4.480003,1.28 4.639999,0.96 4.800003,0.8 5.119996,0.48 5.279998,0.16 h 5.440003 l 5.600002,-0.32 5.599999,-0.64 5.760002,-0.96 5.759998,-1.12 5.919998,-1.44 5.760002,-1.6 5.92,-1.92 5.760001,-2.24 5.759999,-2.4 5.6,-2.56 5.44,-2.72 5.44,-3.04 5.12,-3.2 5.12,-3.36 4.799999,-3.519997 4.480002,-3.68 4.479999,-3.840004 4,-3.839996 3.839999,-4 3.52,-4 L 40,72.959999 42.880001,68.800003 45.439999,64.639999 47.52,60.48 49.439999,56.32 50.880001,52.16 51.84,48 l 0.64,-4 0.319999,-4"
       style="fill:none;stroke:#000000;stroke-width:26.4;stroke-linecap:round;stroke-linejoin:round;stroke-miterlimit:10;stroke-dasharray:none;stroke-opacity:1"
       transform="translate(241.66668,399.31996)"
       clip-path="url(#clipPath10)" />
    <path
       id="path11"
       d="M 0,0 -10.4,-8.64 -21.120001,-16.799999 -32.16,-24.639999 -43.200001,-32 l -11.36,-7.040001 -11.520001,-6.399998 -11.839996,-6.080001 -11.840004,-5.599999 -11.999998,-5.120003 -12.16,-4.639995 -12.32,-4.32 -12.32,-3.68 -12.47999,-3.200005 -12.64,-2.879997 -12.64002,-2.239998 -12.64,-1.760002 -12.79998,-1.279999 -12.64,-0.800003 -12.80001,-0.479996 -12.8,0.159996 -12.8,0.800003"
       style="fill:none;stroke:#000000;stroke-width:26.4;stroke-linecap:round;stroke-linejoin:round;stroke-miterlimit:10;stroke-dasharray:none;stroke-opacity:1"
       transform="translate(494.46669,485.87996)"
       clip-path="url(#clipPath12)" />
    <path
       id="path13"
       d="m 0,0 5.12,4.16 5.44,3.68 5.44,3.52 5.76,2.88 5.76,2.719999 6.079998,2.080002 L 39.52,20.799999 45.759998,22.24 51.84,23.200001 58.080002,23.68 H 64.32 L 70.559998,23.200001 76.800003,22.4 l 6.079994,-1.279999 6.080002,-1.76 6.080002,-2.08 L 100.8,14.72 l 5.76,-2.88 5.6,-3.36"
       style="fill:none;stroke:#000000;stroke-width:26.4;stroke-linecap:round;stroke-linejoin:round;stroke-miterlimit:10;stroke-dasharray:none;stroke-opacity:1"
       transform="translate(494.46669,485.87996)"
       clip-path="url(#clipPath14)" />
    <path
       id="path15"
       d="M 375.84,716.96002 394.07999,560.47998"
       style="fill:none;stroke:#000000;stroke-width:26.4;stroke-linecap:round;stroke-linejoin:round;stroke-miterlimit:10;stroke-dasharray:none;stroke-opacity:1"
       transform="translate(-81.373333,-277.64006)"
       clip-path="url(#clipPath16)" />
  </g>
</svg>
