<?xml version="1.0" encoding="UTF-8" standalone="no"?>
<!-- Created with Inkscape (http://www.inkscape.org/) -->

<svg
   version="1.1"
   id="svg1"
   width="586.98669"
   height="389.76001"
   viewBox="0 0 586.98669 389.76001"
   sodipodi:docname="Moon23.pdf"
   xmlns:inkscape="http://www.inkscape.org/namespaces/inkscape"
   xmlns:sodipodi="http://sodipodi.sourceforge.net/DTD/sodipodi-0.dtd"
   xmlns="http://www.w3.org/2000/svg"
   xmlns:svg="http://www.w3.org/2000/svg">
  <defs
     id="defs1">
    <clipPath
       clipPathUnits="userSpaceOnUse"
       id="clipPath2">
      <path
         d="M 26.4,26.559999 V 1096.16 H 767.03998 V 26.559999 Z"
         transform="translate(-666.08002,-691.03998)"
         clip-rule="evenodd"
         id="path2" />
    </clipPath>
    <clipPath
       clipPathUnits="userSpaceOnUse"
       id="clipPath4">
      <path
         d="M 26.4,26.559999 V 1096.16 H 767.03998 V 26.559999 Z"
         transform="translate(-212.96001,-691.03998)"
         clip-rule="evenodd"
         id="path4" />
    </clipPath>
    <clipPath
       clipPathUnits="userSpaceOnUse"
       id="clipPath6">
      <path
         d="M 26.4,26.559999 V 1096.16 H 767.03998 V 26.559999 Z"
         transform="translate(-593.12,-585.28003)"
         clip-rule="evenodd"
         id="path6" />
    </clipPath>
    <clipPath
       clipPathUnits="userSpaceOnUse"
       id="clipPath8">
      <path
         d="M 26.4,26.559999 V 1096.16 H 767.03998 V 26.559999 Z"
         clip-rule="evenodd"
         id="path8" />
    </clipPath>
    <clipPath
       clipPathUnits="userSpaceOnUse"
       id="clipPath10">
      <path
         d="M 26.4,26.559999 V 1096.16 H 767.03998 V 26.559999 Z"
         clip-rule="evenodd"
         id="path10" />
    </clipPath>
    <clipPath
       clipPathUnits="userSpaceOnUse"
       id="clipPath12">
      <path
         d="M 26.4,26.559999 V 1096.16 H 767.03998 V 26.559999 Z"
         clip-rule="evenodd"
         id="path12" />
    </clipPath>
  </defs>
  <sodipodi:namedview
     id="namedview1"
     pagecolor="#505050"
     bordercolor="#eeeeee"
     borderopacity="1"
     inkscape:showpageshadow="0"
     inkscape:pageopacity="0"
     inkscape:pagecheckerboard="0"
     inkscape:deskcolor="#505050">
    <inkscape:page
       x="0"
       y="0"
       inkscape:label="1"
       id="page1"
       width="586.98669"
       height="389.76001"
       margin="0"
       bleed="0" />
  </sodipodi:namedview>
  <g
     id="g1"
     inkscape:groupmode="layer"
     inkscape:label="1">
    <path
       id="path1"
       d="M 0,0 C 0,-23.59 -19.120001,-42.720001 -42.720001,-42.720001 -66.32,-42.720001 -85.440002,-23.59 -85.440002,0 c 0,23.59 19.120002,42.720001 42.720001,42.720001 C -19.120001,42.720001 0,23.59 0,0 Z"
       style="fill:none;stroke:#000000;stroke-width:26.4;stroke-linecap:round;stroke-linejoin:round;stroke-miterlimit:10;stroke-dasharray:none;stroke-opacity:1"
       transform="translate(666.08002,689.70659)"
       clip-path="url(#clipPath2)" />
    <path
       id="path3"
       d="M 0,0 C 0,-23.59 -19.120001,-42.720001 -42.720001,-42.720001 -66.32,-42.720001 -85.440002,-23.59 -85.440002,0 c 0,23.59 19.120002,42.720001 42.720001,42.720001 C -19.120001,42.720001 0,23.59 0,0 Z"
       style="fill:none;stroke:#000000;stroke-width:26.4;stroke-linecap:round;stroke-linejoin:round;stroke-miterlimit:10;stroke-dasharray:none;stroke-opacity:1"
       transform="translate(212.96001,689.70659)"
       clip-path="url(#clipPath4)" />
    <path
       id="path5"
       d="m 0,0 -0.16,-9.6 -0.8,-9.600001 -1.12,-9.599998 -1.6,-9.440003 -2.24,-9.439998 -2.56,-9.279999 -3.04,-9.120003 -3.36,-8.959999 -3.999999,-8.799995 -4.320002,-8.640007 L -28,-100.96 l -5.119999,-8.16 -5.440002,-7.84 -5.919999,-7.52 -6.400001,-7.36 -6.559998,-7.04 -7.040004,-6.56 -7.359993,-6.23999 -7.520005,-5.92002 -7.839996,-5.59999 -8.160004,-5.12001 -8.479999,-4.79998 -8.48,-4.32001 -8.8,-4 -9.12,-3.36 -9.12,-3.04 -9.28,-2.55999 -9.44,-2.08001 -9.44,-1.76 -9.59999,-1.12 -9.60001,-0.64 -9.60001,-0.32001 -9.59999,0.32001 -9.6,0.64 -9.59999,1.12 -9.44001,1.76 -9.44,2.08001 -9.28,2.55999 -9.11999,3.04 -9.12,3.36 -8.80002,4 -8.47998,4.32001 -8.48001,4.79998 -8.16,5.12001 -7.84,5.59999 -7.67999,5.92002 -7.20001,6.23999 -7.04001,6.56 -6.56,7.04 -6.39999,7.36 -5.91999,7.52 -5.44,7.84 -5.28,8.16 -4.64001,8.479997 -4.32001,8.640007 -4,8.799995 -3.35999,8.959999 -3.04,9.120003 -2.56,9.279999 -2.23999,9.439998 -1.60001,9.440003 -1.11999,9.599998 -0.80002,9.600001 -0.16,9.6"
       style="fill:none;stroke:#000000;stroke-width:26.4;stroke-linecap:round;stroke-linejoin:round;stroke-miterlimit:10;stroke-dasharray:none;stroke-opacity:1"
       transform="translate(593.12,583.94664)"
       clip-path="url(#clipPath6)" />
    <path
       id="path7"
       d="m 200.48,585.28003 v 75.51996"
       style="fill:none;stroke:#000000;stroke-width:26.4;stroke-linecap:round;stroke-linejoin:round;stroke-miterlimit:10;stroke-dasharray:none;stroke-opacity:1"
       transform="translate(0,-1.333392)"
       clip-path="url(#clipPath8)" />
    <path
       id="path9"
       d="m 593.12,585.28003 v 75.51996"
       style="fill:none;stroke:#000000;stroke-width:26.4;stroke-linecap:round;stroke-linejoin:round;stroke-miterlimit:10;stroke-dasharray:none;stroke-opacity:1"
       transform="translate(0,-1.333392)"
       clip-path="url(#clipPath10)" />
    <path
       id="path11"
       d="M 593.12,660.79999 H 200.48"
       style="fill:none;stroke:#000000;stroke-width:26.4;stroke-linecap:round;stroke-linejoin:round;stroke-miterlimit:10;stroke-dasharray:none;stroke-opacity:1"
       transform="translate(0,-1.333392)"
       clip-path="url(#clipPath12)" />
  </g>
</svg>
