<?xml version="1.0" encoding="UTF-8" standalone="no"?>
<!-- Created with Inkscape (http://www.inkscape.org/) -->

<svg
   version="1.1"
   id="svg1"
   width="429.57333"
   height="499.21332"
   viewBox="0 0 429.57333 499.21332"
   sodipodi:docname="Neptun6.pdf"
   xmlns:inkscape="http://www.inkscape.org/namespaces/inkscape"
   xmlns:sodipodi="http://sodipodi.sourceforge.net/DTD/sodipodi-0.dtd"
   xmlns="http://www.w3.org/2000/svg"
   xmlns:svg="http://www.w3.org/2000/svg">
  <defs
     id="defs1">
    <clipPath
       clipPathUnits="userSpaceOnUse"
       id="clipPath2">
      <path
         d="M 0,0.16 V 1122.5601 H 793.59998 V 0.16 Z"
         transform="translate(-434.56,-674.56)"
         clip-rule="evenodd"
         id="path2" />
    </clipPath>
    <clipPath
       clipPathUnits="userSpaceOnUse"
       id="clipPath4">
      <path
         d="M 0,0.16 V 1122.5601 H 793.59998 V 0.16 Z"
         transform="translate(3.3333334e-6)"
         clip-rule="evenodd"
         id="path4" />
    </clipPath>
    <clipPath
       clipPathUnits="userSpaceOnUse"
       id="clipPath6">
      <path
         d="M 0,0.16 V 1122.5601 H 793.59998 V 0.16 Z"
         transform="translate(-245.75999,-259.20001)"
         clip-rule="evenodd"
         id="path6" />
    </clipPath>
  </defs>
  <sodipodi:namedview
     id="namedview1"
     pagecolor="#505050"
     bordercolor="#eeeeee"
     borderopacity="1"
     inkscape:showpageshadow="0"
     inkscape:pageopacity="0"
     inkscape:pagecheckerboard="0"
     inkscape:deskcolor="#505050">
    <inkscape:page
       x="0"
       y="0"
       inkscape:label="1"
       id="page1"
       width="429.57333"
       height="499.21332"
       margin="0"
       bleed="0" />
  </sodipodi:namedview>
  <g
     id="g1"
     inkscape:groupmode="layer"
     inkscape:label="1">
    <path
       id="path1"
       d="m 0,0 c 0,-20.85 -16.9,-37.759998 -37.759998,-37.759998 -20.860001,0 -37.759999,16.909998 -37.759999,37.759998 0,20.85 16.899998,37.759998 37.759999,37.759998 C -16.9,37.759998 0,20.85 0,0 Z"
       style="fill:none;stroke:#000000;stroke-width:26.4;stroke-linecap:round;stroke-linejoin:round;stroke-miterlimit:10;stroke-dasharray:none;stroke-opacity:1"
       transform="translate(253.13333,438.30661)"
       clip-path="url(#clipPath2)" />
    <path
       id="path3"
       d="M 396.79999,636.79999 V 372.48001"
       style="fill:none;stroke:#000000;stroke-width:26.4;stroke-linecap:round;stroke-linejoin:round;stroke-miterlimit:10;stroke-dasharray:none;stroke-opacity:1"
       transform="translate(-181.42667,-236.25339)"
       clip-path="url(#clipPath4)" />
    <path
       id="path5"
       d="m 0,0 -5.28,7.52 -4.96,7.84 -4.64,8.000001 L -19.040001,31.52 -22.879999,40 -26.24,48.639999 l -3.040001,8.8 L -31.68,66.239998 -33.759998,75.199997 -35.52,84.32 l -1.119999,9.120002 -0.8,9.279998 -0.319999,9.28 0.16,9.12 0.639999,9.27999 1.119999,9.12001 1.439998,9.12 2.080002,9.11999 2.24,8.96001 2.879999,8.8 3.360001,8.64 3.52,8.48 4.16,8.16 4.48,8.16001 4.8,7.83999 5.28,7.68 5.6,7.19999 6.08,7.04001 6.24,6.88001 6.720001,6.39999 6.879999,6.07999 7.199999,5.76001 7.52,5.44 7.840001,4.95999 7.84,4.64001 8.319999,4.32001 8.32,3.84 8.639999,3.35998 8.800004,3.04001 8.799998,2.56 8.96,2.07999 9.12,1.6 9.11999,1.28 9.28,0.80002 9.28002,0.31998 9.11999,-0.15998 9.28,-0.48001 9.12,-1.11999 9.12001,-1.44001 9.11999,-1.92001 8.95999,-2.39999 8.80001,-2.72 8.63999,-3.19999 8.48002,-3.68002 8.31999,-4 8.16,-4.47998 7.84,-4.80002 7.52,-5.28 7.35999,-5.6 L 276,254.88 l 6.72,-6.24 6.4,-6.56 6.23999,-6.88 5.76001,-7.2 5.44,-7.52 4.95999,-7.84 4.80002,-7.84 4.16,-8.32 4,-8.32 3.35999,-8.64 3.04,-8.64 2.56,-8.96 2.23999,-8.95999 L 337.44,144 l 1.28,-9.28 0.79999,-9.12 0.32001,-9.28 v -9.28 l -0.63999,-9.120002 -0.96002,-9.279999 -1.44,-9.120002 -1.75998,-8.959999 -2.4,-8.96 -2.72,-8.799999 L 326.72,44 l -3.51999,-8.48 -4.16,-8.319999 -4.32001,-8 -4.79999,-8.000001 -5.28,-7.68"
       style="fill:none;stroke:#000000;stroke-width:26.4;stroke-linecap:round;stroke-linejoin:round;stroke-miterlimit:10;stroke-dasharray:none;stroke-opacity:1"
       transform="translate(64.333328,22.94662)"
       clip-path="url(#clipPath6)" />
  </g>
</svg>
