<?xml version="1.0" encoding="UTF-8" standalone="no"?>
<!-- Created with Inkscape (http://www.inkscape.org/) -->

<svg
   version="1.1"
   id="svg1"
   width="486.93332"
   height="493.86667"
   viewBox="0 0 486.93332 493.86667"
   sodipodi:docname="Neptun.pdf"
   xmlns:inkscape="http://www.inkscape.org/namespaces/inkscape"
   xmlns:sodipodi="http://sodipodi.sourceforge.net/DTD/sodipodi-0.dtd"
   xmlns="http://www.w3.org/2000/svg"
   xmlns:svg="http://www.w3.org/2000/svg">
  <defs
     id="defs1">
    <clipPath
       clipPathUnits="userSpaceOnUse"
       id="clipPath2">
      <path
         d="M 0,0.16 V 1122.5601 H 793.59998 V 0.16 Z"
         transform="translate(-200.48,-386.4)"
         clip-rule="evenodd"
         id="path2" />
    </clipPath>
    <clipPath
       clipPathUnits="userSpaceOnUse"
       id="clipPath4">
      <path
         d="M 0,0.16 V 1122.5601 H 793.59998 V 0.16 Z"
         clip-rule="evenodd"
         id="path4" />
    </clipPath>
    <clipPath
       clipPathUnits="userSpaceOnUse"
       id="clipPath6">
      <path
         d="M 0,0.16 V 1122.5601 H 793.59998 V 0.16 Z"
         clip-rule="evenodd"
         id="path6" />
    </clipPath>
    <clipPath
       clipPathUnits="userSpaceOnUse"
       id="clipPath8">
      <path
         d="M 0,0.16 V 1122.5601 H 793.59998 V 0.16 Z"
         clip-rule="evenodd"
         id="path8" />
    </clipPath>
    <clipPath
       clipPathUnits="userSpaceOnUse"
       id="clipPath10">
      <path
         d="M 0,0.16 V 1122.5601 H 793.59998 V 0.16 Z"
         clip-rule="evenodd"
         id="path10" />
    </clipPath>
    <clipPath
       clipPathUnits="userSpaceOnUse"
       id="clipPath12">
      <path
         d="M 0,0.16 V 1122.5601 H 793.59998 V 0.16 Z"
         clip-rule="evenodd"
         id="path12" />
    </clipPath>
  </defs>
  <sodipodi:namedview
     id="namedview1"
     pagecolor="#505050"
     bordercolor="#eeeeee"
     borderopacity="1"
     inkscape:showpageshadow="0"
     inkscape:pageopacity="0"
     inkscape:pagecheckerboard="0"
     inkscape:deskcolor="#505050">
    <inkscape:page
       x="0"
       y="0"
       inkscape:label="1"
       id="page1"
       width="486.93332"
       height="493.86667"
       margin="0"
       bleed="0" />
  </sodipodi:namedview>
  <g
     id="g1"
     inkscape:groupmode="layer"
     inkscape:label="1">
    <path
       id="path1"
       d="m 0,0 0.32,9.6 0.64,9.760001 1.12,9.439998 1.76,9.600003 2.08,9.279998 2.56,9.279999 3.04,9.279999 3.52,8.959999 L 18.879999,84 23.200001,92.639999 28,100.96 l 5.119999,8.16 5.600002,7.84 5.919998,7.68 6.240002,7.2 6.719997,7.04 6.880005,6.56 7.359993,6.4 7.520005,5.91999 8,5.60001 8,5.12 8.479999,4.63999 8.64,4.48002 8.8,3.83999 8.96,3.52001 9.12,3.03999 9.28,2.56 9.44,2.08 9.44,1.6 9.59999,1.12 9.60001,0.8 9.60001,0.16001 9.75999,-0.16001 9.59999,-0.8 9.44,-1.12 9.60001,-1.6 9.28,-2.08 9.44,-2.56 9.12,-3.03999 8.95999,-3.52001 8.80002,-3.83999 8.63998,-4.48002 8.32001,-4.63999 8.16,-5.12 7.84,-5.60001 7.67999,-5.91999 7.20001,-6.4 7.04001,-6.56 6.72,-7.04 6.23999,-7.2 5.91999,-7.68 5.6,-7.84 5.12,-8.16 4.80002,-8.320001 4.32,-8.639999 3.84,-8.800003 3.51999,-8.959999 3.04001,-9.279999 L 386.88,47.68 388.95999,38.400002 390.56,28.799999 391.84,19.360001 392.48001,9.6 l 0.16,-9.6"
       style="fill:none;stroke:#000000;stroke-width:26.4;stroke-linecap:round;stroke-linejoin:round;stroke-miterlimit:10;stroke-dasharray:none;stroke-opacity:1"
       transform="translate(200.48,390.39994)"
       clip-path="url(#clipPath2)" />
    <path
       id="path3"
       d="M 396.79999,779.03998 V 411.04001"
       style="fill:none;stroke:#000000;stroke-width:26.4;stroke-linecap:round;stroke-linejoin:round;stroke-miterlimit:10;stroke-dasharray:none;stroke-opacity:1"
       transform="translate(0,3.9999413)"
       clip-path="url(#clipPath4)" />
    <path
       id="path5"
       d="M 298.72,680.96002 H 495.04001"
       style="fill:none;stroke:#000000;stroke-width:26.4;stroke-linecap:round;stroke-linejoin:round;stroke-miterlimit:10;stroke-dasharray:none;stroke-opacity:1"
       transform="translate(0,3.9999413)"
       clip-path="url(#clipPath6)" />
    <path
       id="path7"
       d="m 200.48,343.51999 -21.28,36.80002 h 42.55999 L 200.48,343.51999"
       style="fill:none;stroke:#000000;stroke-width:26.4;stroke-linecap:round;stroke-linejoin:round;stroke-miterlimit:10;stroke-dasharray:none;stroke-opacity:1"
       transform="translate(0,3.9999413)"
       clip-path="url(#clipPath8)" />
    <path
       id="path9"
       d="m 396.79999,368 -21.28,36.79999 h 42.56 L 396.79999,368"
       style="fill:none;stroke:#000000;stroke-width:26.4;stroke-linecap:round;stroke-linejoin:round;stroke-miterlimit:10;stroke-dasharray:none;stroke-opacity:1"
       transform="translate(0,3.9999413)"
       clip-path="url(#clipPath10)" />
    <path
       id="path11"
       d="M 593.12,343.51999 572,380.32001 h 42.40002 L 593.12,343.51999"
       style="fill:none;stroke:#000000;stroke-width:26.4;stroke-linecap:round;stroke-linejoin:round;stroke-miterlimit:10;stroke-dasharray:none;stroke-opacity:1"
       transform="translate(0,3.9999413)"
       clip-path="url(#clipPath12)" />
  </g>
</svg>
