<?xml version="1.0" encoding="UTF-8" standalone="no"?>
<!-- Created with Inkscape (http://www.inkscape.org/) -->

<svg
   version="1.1"
   id="svg1"
   width="188.10667"
   height="192.21333"
   viewBox="0 0 188.10667 192.21333"
   sodipodi:docname="Occultation.pdf"
   xmlns:inkscape="http://www.inkscape.org/namespaces/inkscape"
   xmlns:sodipodi="http://sodipodi.sourceforge.net/DTD/sodipodi-0.dtd"
   xmlns="http://www.w3.org/2000/svg"
   xmlns:svg="http://www.w3.org/2000/svg">
  <defs
     id="defs1">
    <clipPath
       clipPathUnits="userSpaceOnUse"
       id="clipPath2">
      <path
         d="M 0,0.16 V 1122.5601 H 793.59998 V 0.16 Z"
         transform="translate(-434.55999,-580.15998)"
         clip-rule="evenodd"
         id="path2" />
    </clipPath>
    <clipPath
       clipPathUnits="userSpaceOnUse"
       id="clipPath4">
      <path
         d="M 0,0.16 V 1122.5601 H 793.59998 V 0.16 Z"
         transform="translate(-434.55999,-580.15998)"
         clip-rule="evenodd"
         id="path4" />
    </clipPath>
    <clipPath
       clipPathUnits="userSpaceOnUse"
       id="clipPath6">
      <path
         d="M 0,0.16 V 1122.5601 H 793.59998 V 0.16 Z"
         transform="translate(-3.3333333e-6)"
         clip-rule="evenodd"
         id="path6" />
    </clipPath>
  </defs>
  <sodipodi:namedview
     id="namedview1"
     pagecolor="#505050"
     bordercolor="#eeeeee"
     borderopacity="1"
     inkscape:showpageshadow="0"
     inkscape:pageopacity="0"
     inkscape:pagecheckerboard="0"
     inkscape:deskcolor="#505050">
    <inkscape:page
       x="0"
       y="0"
       inkscape:label="1"
       id="page1"
       width="188.10667"
       height="192.21333"
       margin="0"
       bleed="0" />
  </sodipodi:namedview>
  <g
     id="g1"
     inkscape:groupmode="layer"
     inkscape:label="1">
    <path
       id="path1"
       d="m 0,0 -0.16,-4.48 -0.48,-4.32 -0.8,-4.48 -1.28,-4.160001 -1.6,-4.159999 -1.76,-4.16 -2.24,-3.84 -2.4,-3.679999 -2.88,-3.52 L -16.48,-40 l -3.36,-3.040001 -3.520001,-2.719997 -3.68,-2.560002 -3.839998,-2.080002 -4.000002,-1.919998 -4.16,-1.599998 -4.32,-1.120003 L -47.68,-56 l -4.48,-0.48 -4.479999,-0.159999 -4.32,0.159999 -4.480003,0.48 -4.32,0.959999 -4.32,1.120003 -4.159996,1.599998 -4,1.919998 -4,2.080002 -3.68,2.560002 -3.520004,2.719997 L -96.639999,-40 -99.68,-36.799999 l -2.72,3.52 -2.4,3.679999 -2.24,3.84 -1.92,4.16 -1.44,4.159999 -1.28,4.160001 -0.8,4.48 -0.64,4.32 -0.16,4.48 0.16,4.48 0.64,4.32 0.8,4.48 1.28,4.32 1.44,4.16 1.92,4 2.24,3.84 2.4,3.679999 2.72,3.52 3.040001,3.200001 3.199997,3.040001 3.520004,2.719997 3.68,2.560002 4,2.240001 4,1.759999 4.159996,1.599998 4.32,1.120003 4.32,0.959999 4.480003,0.48 4.32,0.159999 L -52.16,56.48 -47.68,56 l 4.319999,-0.959999 4.32,-1.120003 4.16,-1.599998 4.000002,-1.759999 3.839998,-2.240001 3.68,-2.560002 L -19.84,43.040001 -16.48,40 l 2.88,-3.200001 2.88,-3.52 2.4,-3.679999 2.24,-3.84 1.76,-4 1.6,-4.16 1.28,-4.32 L -0.64,8.8 -0.16,4.48 0,0 v 0 z"
       style="fill:#000000;fill-opacity:1;fill-rule:evenodd;stroke:none"
       transform="translate(133.06666,115.65325)"
       clip-path="url(#clipPath2)" />
    <path
       id="path3"
       d="m 0,0 -0.16,-4.48 -0.48,-4.32 -0.8,-4.48 -1.28,-4.160001 -1.6,-4.159999 -1.76,-4.16 -2.24,-3.84 -2.4,-3.679999 -2.88,-3.52 L -16.48,-40 l -3.36,-3.040001 -3.520001,-2.719997 -3.68,-2.560002 -3.839998,-2.080002 -4.000002,-1.919998 -4.16,-1.599998 -4.32,-1.120003 L -47.68,-56 l -4.48,-0.48 -4.479999,-0.159999 -4.32,0.159999 -4.480003,0.48 -4.32,0.959999 -4.32,1.120003 -4.159996,1.599998 -4,1.919998 -4,2.080002 -3.68,2.560002 -3.520004,2.719997 L -96.639999,-40 -99.68,-36.799999 l -2.72,3.52 -2.4,3.679999 -2.24,3.84 -1.92,4.16 -1.44,4.159999 -1.28,4.160001 -0.8,4.48 -0.64,4.32 -0.16,4.48 0.16,4.48 0.64,4.32 0.8,4.48 1.28,4.32 1.44,4.16 1.92,4 2.24,3.84 2.4,3.679999 2.72,3.52 3.040001,3.200001 3.199997,3.040001 3.520004,2.719997 3.68,2.560002 4,2.240001 4,1.759999 4.159996,1.599998 4.32,1.120003 4.32,0.959999 4.480003,0.48 4.32,0.159999 L -52.16,56.48 -47.68,56 l 4.319999,-0.959999 4.32,-1.120003 4.16,-1.599998 4.000002,-1.759999 3.839998,-2.240001 3.68,-2.560002 L -19.84,43.040001 -16.48,40 l 2.88,-3.200001 2.88,-3.52 2.4,-3.679999 2.24,-3.84 1.76,-4 1.6,-4.16 1.28,-4.32 L -0.64,8.8 -0.16,4.48 0,0"
       style="fill:none;stroke:#000000;stroke-width:26.4;stroke-linecap:round;stroke-linejoin:round;stroke-miterlimit:10;stroke-dasharray:none;stroke-opacity:1"
       transform="translate(133.06666,115.65325)"
       clip-path="url(#clipPath4)" />
    <path
       id="path5"
       d="m 418.88,539.03998 53.44001,-53.27997"
       style="fill:none;stroke:#000000;stroke-width:26.4;stroke-linecap:round;stroke-linejoin:round;stroke-miterlimit:10;stroke-dasharray:none;stroke-opacity:1"
       transform="translate(-301.49333,-464.50673)"
       clip-path="url(#clipPath6)" />
  </g>
</svg>
