<?xml version="1.0" encoding="UTF-8" standalone="no"?>
<!-- Created with Inkscape (http://www.inkscape.org/) -->

<svg
   version="1.1"
   id="svg1"
   width="344.18668"
   height="347.04001"
   viewBox="0 0 344.18668 347.04001"
   sodipodi:docname="Orcus2.pdf"
   xmlns:inkscape="http://www.inkscape.org/namespaces/inkscape"
   xmlns:sodipodi="http://sodipodi.sourceforge.net/DTD/sodipodi-0.dtd"
   xmlns="http://www.w3.org/2000/svg"
   xmlns:svg="http://www.w3.org/2000/svg">
  <defs
     id="defs1">
    <clipPath
       clipPathUnits="userSpaceOnUse"
       id="clipPath2">
      <path
         d="M 0,0.16 V 1122.5601 H 793.59998 V 0.16 Z"
         transform="translate(-415.67999,-693.44001)"
         clip-rule="evenodd"
         id="path2" />
    </clipPath>
    <clipPath
       clipPathUnits="userSpaceOnUse"
       id="clipPath4">
      <path
         d="M 0,0.16 V 1122.5601 H 793.59998 V 0.16 Z"
         transform="translate(-3.3333333e-6)"
         clip-rule="evenodd"
         id="path4" />
    </clipPath>
    <clipPath
       clipPathUnits="userSpaceOnUse"
       id="clipPath6">
      <path
         d="M 0,0.16 V 1122.5601 H 793.59998 V 0.16 Z"
         transform="translate(-396.79998,-485.76001)"
         clip-rule="evenodd"
         id="path6" />
    </clipPath>
    <clipPath
       clipPathUnits="userSpaceOnUse"
       id="clipPath8">
      <path
         d="M 0,0.16 V 1122.5601 H 793.59998 V 0.16 Z"
         transform="translate(-396.79998,-485.76001)"
         clip-rule="evenodd"
         id="path8" />
    </clipPath>
    <clipPath
       clipPathUnits="userSpaceOnUse"
       id="clipPath10">
      <path
         d="M 0,0.16 V 1122.5601 H 793.59998 V 0.16 Z"
         transform="translate(-547.84002,-712.32001)"
         clip-rule="evenodd"
         id="path10" />
    </clipPath>
  </defs>
  <sodipodi:namedview
     id="namedview1"
     pagecolor="#505050"
     bordercolor="#eeeeee"
     borderopacity="1"
     inkscape:showpageshadow="0"
     inkscape:pageopacity="0"
     inkscape:pagecheckerboard="0"
     inkscape:deskcolor="#505050">
    <inkscape:page
       x="0"
       y="0"
       inkscape:label="1"
       id="page1"
       width="344.18668"
       height="347.04001"
       margin="0"
       bleed="0" />
  </sodipodi:namedview>
  <g
     id="g1"
     inkscape:groupmode="layer"
     inkscape:label="1">
    <path
       id="path1"
       d="m 0,0 c 0,-10.42 -8.45,-18.879999 -18.879999,-18.879999 -10.43,0 -18.879999,8.459999 -18.879999,18.879999 0,10.42 8.449999,18.879999 18.879999,18.879999 C -8.45,18.879999 0,10.42 0,0 Z"
       style="fill:none;stroke:#000000;stroke-width:26.4;stroke-linecap:round;stroke-linejoin:round;stroke-miterlimit:10;stroke-dasharray:none;stroke-opacity:1"
       transform="translate(190.22666,309.01328)"
       clip-path="url(#clipPath2)" />
    <path
       id="path3"
       d="M 396.79999,410.23999 V 674.56"
       style="fill:none;stroke:#000000;stroke-width:26.4;stroke-linecap:round;stroke-linejoin:round;stroke-miterlimit:10;stroke-dasharray:none;stroke-opacity:1"
       transform="translate(-225.45333,-384.42673)"
       clip-path="url(#clipPath4)" />
    <path
       id="path5"
       d="M 0,0 0.16,3.52 0.64,7.04 1.44,10.4 2.56,13.6 4,16.799999 5.76,19.84 7.68,22.719999 9.92,25.440001 12.32,28 l 2.72,2.08 2.88,2.08 3.039999,1.599998 3.200001,1.440003 3.36,1.119999 3.359999,0.799999 3.520003,0.479999 3.359996,0.16 3.520001,-0.16 3.52,-0.479999 L 48.16,36.32 51.52,35.200001 54.560001,33.759998 57.759998,32.16 60.639999,30.08 63.200001,28 65.760002,25.440001 68,22.719999 69.919998,19.84 71.68,16.799999 72.959999,13.6 74.080002,10.4 74.879997,7.04 75.360001,3.52 75.519997,0"
       style="fill:none;stroke:#000000;stroke-width:26.4;stroke-linecap:round;stroke-linejoin:round;stroke-miterlimit:10;stroke-dasharray:none;stroke-opacity:1"
       transform="translate(171.34665,101.33328)"
       clip-path="url(#clipPath6)" />
    <path
       id="path7"
       d="m 0,0 -0.16,-3.52 -0.48,-3.36 -0.8,-3.36 -1.12,-3.36 -1.28,-3.199999 L -5.6,-19.84 -7.52,-22.719999 -9.76,-25.440001 -12.32,-27.84 -14.88,-30.08 -17.76,-32 -20.799999,-33.759998 -24,-35.200001 -27.360001,-36.32 l -3.359998,-0.799999 -3.520003,-0.479999 -3.519996,-0.16 -3.360001,0.16 -3.52,0.479999 L -48,-36.32 l -3.360001,1.119999 -3.2,1.440003 L -57.599998,-32 -60.48,-30.08 l -2.720001,2.24 -2.399997,2.399999 -2.239998,2.720002 -1.920006,2.879999 -1.759995,3.040001 -1.440002,3.199999 -1.120003,3.36 -0.799995,3.36 -0.480004,3.36 -0.159996,3.52"
       style="fill:none;stroke:#000000;stroke-width:26.4;stroke-linecap:round;stroke-linejoin:round;stroke-miterlimit:10;stroke-dasharray:none;stroke-opacity:1"
       transform="translate(171.34665,101.33328)"
       clip-path="url(#clipPath8)" />
    <path
       id="path9"
       d="m 0,0 -0.16,-8.16 -0.64,-8.16 -1.12,-8.16 -1.6,-8 -1.92,-7.84 -2.4,-7.84 -2.88,-7.68 -3.2,-7.520001 -3.68,-7.36 -4,-7.199997 -4.32,-6.880005 -4.799999,-6.559998 -5.120001,-6.400001 -5.439999,-6.079998 -5.920002,-5.76 -6.079998,-5.44 -6.240001,-5.12 -6.719998,-4.8 -6.880005,-4.48 -7.199997,-4 -7.199997,-3.67999 -7.520004,-3.20002 -7.679999,-2.71998 -7.84,-2.40001 -8,-2.08 -8,-1.44001 -8.16,-1.11999 -8.16,-0.64 -8.15999,-0.31999 -8.16001,0.31999 -8.16,0.64 -8,1.11999 -8.16,1.44001 -7.84,2.08 -7.84,2.40001 -7.68,2.71998 -7.51999,3.20002 -7.36,3.67999 -7.04001,4 -6.87999,4.48 -6.72,4.8 -6.40001,5.12 -6.08,5.44 -5.76001,5.76 -5.43998,6.079998 -5.12002,6.400001 -4.79999,6.559998 -4.48001,6.880005 -4,7.199997 -3.51999,7.36 -3.35999,7.520001 -2.72,7.68 -2.40002,7.84 -2.07999,7.84 -1.44,8 -1.12,8.16 -0.64001,8.16 -0.31998,8.16"
       style="fill:none;stroke:#000000;stroke-width:26.4;stroke-linecap:round;stroke-linejoin:round;stroke-miterlimit:10;stroke-dasharray:none;stroke-opacity:1"
       transform="translate(322.38669,327.89328)"
       clip-path="url(#clipPath10)" />
  </g>
</svg>
