<?xml version="1.0" encoding="UTF-8" standalone="no"?>
<!-- Created with Inkscape (http://www.inkscape.org/) -->

<svg
   version="1.1"
   id="svg1"
   width="498.93332"
   height="484.53333"
   viewBox="0 0 498.93332 484.53333"
   sodipodi:docname="Pisces8.pdf"
   xmlns:inkscape="http://www.inkscape.org/namespaces/inkscape"
   xmlns:sodipodi="http://sodipodi.sourceforge.net/DTD/sodipodi-0.dtd"
   xmlns="http://www.w3.org/2000/svg"
   xmlns:svg="http://www.w3.org/2000/svg">
  <defs
     id="defs1">
    <clipPath
       clipPathUnits="userSpaceOnUse"
       id="clipPath2">
      <path
         d="M 26.4,26.559999 V 1096.16 H 767.03998 V 26.559999 Z"
         transform="translate(-396.79999,-416.95999)"
         clip-rule="evenodd"
         id="path2" />
    </clipPath>
    <clipPath
       clipPathUnits="userSpaceOnUse"
       id="clipPath4">
      <path
         d="M 26.4,26.559999 V 1096.16 H 767.03998 V 26.559999 Z"
         transform="translate(-396.79999,-416.95999)"
         clip-rule="evenodd"
         id="path4" />
    </clipPath>
    <clipPath
       clipPathUnits="userSpaceOnUse"
       id="clipPath6">
      <path
         d="M 26.4,26.559999 V 1096.16 H 767.03998 V 26.559999 Z"
         transform="translate(-322.23999,-762.40003)"
         clip-rule="evenodd"
         id="path6" />
    </clipPath>
    <clipPath
       clipPathUnits="userSpaceOnUse"
       id="clipPath8">
      <path
         d="M 26.4,26.559999 V 1096.16 H 767.03998 V 26.559999 Z"
         transform="translate(-623.35998,-416.95999)"
         clip-rule="evenodd"
         id="path8" />
    </clipPath>
    <clipPath
       clipPathUnits="userSpaceOnUse"
       id="clipPath10">
      <path
         d="M 26.4,26.559999 V 1096.16 H 767.03998 V 26.559999 Z"
         transform="translate(-566.40002,-360.32001)"
         clip-rule="evenodd"
         id="path10" />
    </clipPath>
  </defs>
  <sodipodi:namedview
     id="namedview1"
     pagecolor="#505050"
     bordercolor="#eeeeee"
     borderopacity="1"
     inkscape:showpageshadow="0"
     inkscape:pageopacity="0"
     inkscape:pagecheckerboard="0"
     inkscape:deskcolor="#505050">
    <inkscape:page
       x="0"
       y="0"
       inkscape:label="1"
       id="page1"
       width="498.93332"
       height="484.53333"
       margin="0"
       bleed="0" />
  </sodipodi:namedview>
  <g
     id="g1"
     inkscape:groupmode="layer"
     inkscape:label="1">
    <path
       id="path1"
       d="m 0,0 -0.16,-4.64 -0.64,-4.48 -1.12,-4.64 -1.44,-4.32 -1.76,-4.479999 -2.24,-4.32 -2.56,-4.160002 -3.04,-4.16 -3.36,-4 -3.68,-3.84 -4.16,-3.68 -4.32,-3.360001 -4.639999,-3.359997 -5.120003,-3.2 -5.119999,-2.880001 -5.599998,-2.720002 -5.760002,-2.399997 -5.919998,-2.239998 -6.080002,-2.080002 -6.400002,-1.760002 -6.399994,-1.440003 -6.720001,-1.279998 -6.560005,-0.96 -6.879997,-0.639999 -6.72,-0.479996 h -6.88 -6.88 l -6.72,0.479996 -6.87999,0.639999 -6.56002,0.96 -6.71998,1.279998 -6.40001,1.440003 -6.4,1.760002 -6.08,2.080002 -5.92,2.239998 -5.76001,2.399997 -5.59999,2.720002 -5.12001,2.880001 -5.11999,3.2 -4.64,3.359997 -4.31999,3.360001 -4.16001,3.68 -3.68,3.84 -3.36001,4 -3.03999,4.16 -2.56,4.160002 -2.24,4.32 -1.76,4.479999 -1.44,4.32 -1.11999,4.64 -0.64,4.48 L -226.56,0"
       style="fill:none;stroke:#000000;stroke-width:26.4;stroke-linecap:round;stroke-linejoin:round;stroke-miterlimit:10;stroke-dasharray:none;stroke-opacity:1"
       transform="translate(248.71999,99.279932)"
       clip-path="url(#clipPath2)" />
    <path
       id="path3"
       d="m 0,0 0.16,4.48 0.64,4.48 1.12,4.64 1.44,4.48 1.76,4.32 2.24,4.319999 2.56,4.16 3.04,4.160002 3.36,4 3.68,3.84 4.16,3.68 4.32,3.520001 4.639999,3.199997 4.960003,3.200001 5.279999,2.880001 5.599998,2.720001 5.760002,2.400001 5.919998,2.239998 6.080002,2.080002 6.400002,1.759995 L 79.519997,72 l 6.560005,1.279999 6.720001,0.959999 6.879997,0.639999 6.72,0.480004 6.88,0.159996 6.88,-0.159996 6.72,-0.480004 6.87999,-0.639999 6.56002,-0.959999 L 147.03999,72 153.44,70.559998 l 6.23999,-1.759995 6.24001,-2.080002 5.92,-2.239998 5.76001,-2.400001 L 183.2,59.360001 188.32001,56.48 193.44,53.279999 l 4.64,-3.199997 4.31999,-3.520001 4.16001,-3.68 3.68,-3.84 3.36001,-4 2.87999,-4.160002 2.72,-4.16 2.24,-4.319999 1.76,-4.32 1.44,-4.48 1.11999,-4.64 0.64,-4.48 L 226.56,0"
       style="fill:none;stroke:#000000;stroke-width:26.4;stroke-linecap:round;stroke-linejoin:round;stroke-miterlimit:10;stroke-dasharray:none;stroke-opacity:1"
       transform="translate(248.71999,99.279932)"
       clip-path="url(#clipPath4)" />
    <path
       id="path5"
       d="m 0,0 2.56,3.36 2.88,2.88 3.2,2.72 3.36,2.4 3.68,2.08 3.680001,1.76 4,1.439999 4,1.120001 4.159999,0.799999 4.16,0.32 h 4.16 l 4,-0.32 L 48,17.76 52,16.639999 56,15.2 l 3.68,-1.76 3.680001,-2.08 3.36,-2.4 L 69.919998,6.24 72.800003,3.36 75.519997,0"
       style="fill:none;stroke:#000000;stroke-width:26.4;stroke-linecap:round;stroke-linejoin:round;stroke-miterlimit:10;stroke-dasharray:none;stroke-opacity:1"
       transform="translate(174.15999,444.71997)"
       clip-path="url(#clipPath6)" />
    <path
       id="path7"
       d="m 0,0 -0.96,-5.12 -1.28,-4.8 -1.6,-4.8 -2.08,-4.640001 -2.24,-4.479999 -2.72,-4.32 -3.04,-4.16 -3.360001,-3.84 -3.519998,-3.52 -3.84,-3.200001 -4.16,-3.039997 -4.32,-2.720001 -4.479999,-2.240002 -4.640004,-2.079998 -4.799999,-1.600002 L -52,-55.84 l -4.959999,-0.799999"
       style="fill:none;stroke:#000000;stroke-width:26.4;stroke-linecap:round;stroke-linejoin:round;stroke-miterlimit:10;stroke-dasharray:none;stroke-opacity:1"
       transform="translate(475.27998,99.279932)"
       clip-path="url(#clipPath8)" />
    <path
       id="path9"
       d="M 0,0 -11.36,-0.16 -22.879999,0.32 -34.400002,1.28 -45.759998,2.72 -57.119999,4.48 -68.32,6.88 -79.360001,9.76 -90.400002,13.12 -101.28,16.959999 -112,21.120001 -122.4,25.76 l -10.24,5.119999 -10.08,5.600001 -9.76,6.080001 -9.6,6.399998 -9.28,6.720001 -8.96001,7.200001 -8.64,7.520001 -8.31999,8 -7.83999,8.319999 -7.68001,8.479996 -7.2,8.960003 -6.88,9.28 -6.4,9.44 -6.08,9.76 -5.60001,10.08 -5.11999,10.24001 -4.8,10.39999 -4.32001,10.72 -3.84,10.72 -3.35998,11.04 -2.88001,11.04 -2.39999,11.2 -2.08002,11.36 -1.44,11.36 -0.95999,11.52001 -0.48001,11.51999 v 11.36001 l 0.48001,11.51999 0.95999,11.51999 1.44,11.36002 1.92001,11.19998 2.4,11.36001 2.88,11.04001 3.35999,11.03998 3.84002,10.72 4.32,10.72 4.79999,10.4 5.12001,10.24002"
       style="fill:none;stroke:#000000;stroke-width:26.4;stroke-linecap:round;stroke-linejoin:round;stroke-miterlimit:10;stroke-dasharray:none;stroke-opacity:1"
       transform="translate(418.32002,42.639948)"
       clip-path="url(#clipPath10)" />
  </g>
</svg>
