<?xml version="1.0" encoding="UTF-8" standalone="no"?>
<!-- Created with Inkscape (http://www.inkscape.org/) -->

<svg
   version="1.1"
   id="svg1"
   width="517.59998"
   height="504.56"
   viewBox="0 0 517.59998 504.56"
   sodipodi:docname="Pisces17.pdf"
   xmlns:inkscape="http://www.inkscape.org/namespaces/inkscape"
   xmlns:sodipodi="http://sodipodi.sourceforge.net/DTD/sodipodi-0.dtd"
   xmlns="http://www.w3.org/2000/svg"
   xmlns:svg="http://www.w3.org/2000/svg">
  <defs
     id="defs1">
    <clipPath
       clipPathUnits="userSpaceOnUse"
       id="clipPath2">
      <path
         d="M 26.4,26.559999 V 1096.16 H 767.03998 V 26.559999 Z"
         transform="translate(-164.64,-691.20002)"
         clip-rule="evenodd"
         id="path2" />
    </clipPath>
    <clipPath
       clipPathUnits="userSpaceOnUse"
       id="clipPath4">
      <path
         d="M 26.4,26.559999 V 1096.16 H 767.03998 V 26.559999 Z"
         transform="translate(-613.76001,-426.4)"
         clip-rule="evenodd"
         id="path4" />
    </clipPath>
    <clipPath
       clipPathUnits="userSpaceOnUse"
       id="clipPath6">
      <path
         d="M 26.4,26.559999 V 1096.16 H 767.03998 V 26.559999 Z"
         transform="translate(-239.19999,-562.40003)"
         clip-rule="evenodd"
         id="path6" />
    </clipPath>
  </defs>
  <sodipodi:namedview
     id="namedview1"
     pagecolor="#505050"
     bordercolor="#eeeeee"
     borderopacity="1"
     inkscape:showpageshadow="0"
     inkscape:pageopacity="0"
     inkscape:pagecheckerboard="0"
     inkscape:deskcolor="#505050">
    <inkscape:page
       x="0"
       y="0"
       inkscape:label="1"
       id="page1"
       width="517.59998"
       height="504.56"
       margin="0"
       bleed="0" />
  </sodipodi:namedview>
  <g
     id="g1"
     inkscape:groupmode="layer"
     inkscape:label="1">
    <path
       id="path1"
       d="m 0,0 2.88,8.48 3.04,8.159999 3.2,7.680001 3.36,7.52 3.52,7.200001 3.68,6.719997 3.84,6.400002 4,5.920002 4.16,5.759998 4.16,5.119999 4.32,4.800003 4.479999,4.32 4.48,4 4.639999,3.36 4.640004,3.040001 4.639999,2.559998 4.799995,2.080002 4.800003,1.599998 4.800003,1.119995 4.96,0.640007 4.799995,0.159996 L 92,96.32 96.959999,95.68 101.76,94.400002 l 4.8,-1.760003 4.8,-2.239997 L 116,87.68 l 4.64,-3.040001 4.64,-3.68 4.47999,-4 4.32001,-4.479996 4.31999,-4.800003 4.16001,-5.439998 4,-5.760002 4,-6.079998 L 154.39999,44 158.08,37.119999 161.60001,29.92 l 3.36,-7.68 L 168,14.4 l 3.03999,-8.16 2.88001,-8.48 2.56,-8.8 2.55999,-8.96 2.24001,-9.280001 2.08,-9.44 1.75999,-9.599999 1.76001,-9.760002 1.44001,-10.080002 1.11999,-10.079994 1.12,-10.080002 0.64,-10.400001 0.64,-10.239999 0.32,-10.4 0.16001,-10.56 -0.16001,-10.40001 -0.32,-10.39999 -0.64,-10.24001 -0.64,-10.39999 -1.12,-10.08 -1.11999,-10.08 -1.44001,-10.08001 -1.76001,-9.75999 -1.75999,-9.60001 -2.08,-9.43998 -2.24001,-9.28 -2.55999,-8.96001 -2.56,-8.8 -2.88001,-8.48001 -3.03999,-8.15998 -3.03999,-7.84002 -3.36,-7.68 -3.52001,-7.19998 -3.68001,-6.88 -3.83999,-6.4 -4,-6.24002 -4,-5.6 -4.16001,-5.43998 -4.31999,-4.80001 -4.32001,-4.48001 -4.47999,-4 -4.64,-3.68 -4.64,-3.03998 -4.64,-2.72 -4.8,-2.24002 -4.8,-1.75998 -4.800001,-1.28 L 92,-356 l -4.800003,-0.32001 -4.799995,0.16001 -4.96,0.64001 -4.800003,1.12 -4.800003,1.6 -4.799995,2.07999 -4.639999,2.56 -4.640004,3.04 -4.639999,3.35999 -4.48,4 -4.479999,4.32001 -4.32,4.79999 -4.16,5.12002 -4.16,5.59998 -4,6.08001 -3.84,6.4 -3.68,6.72 -3.52,7.20001 L 9.12,-284 5.92,-276.32001 2.88,-268.16 0,-259.67999"
       style="fill:none;stroke:#000000;stroke-width:26.4;stroke-linecap:round;stroke-linejoin:round;stroke-miterlimit:10;stroke-dasharray:none;stroke-opacity:1"
       transform="translate(27.226666,381.53329)"
       clip-path="url(#clipPath2)" />
    <path
       id="path3"
       d="m 0,0 -3.36,-8.32 -3.52,-7.84 -3.68,-7.68 -3.84,-7.200001 -4,-6.879997 -4.159999,-6.560002 -4.16,-6.240001 -4.320002,-5.759999 -4.32,-5.279998 L -40,-66.720001 l -4.48,-4.479996 -4.799999,-4.160004 -4.639999,-3.68 -4.800003,-3.199997 -4.799999,-2.720001 -4.960003,-2.239998 -4.799996,-1.760002 -4.959999,-1.279999 -4.800003,-0.959999 -4.959999,-0.32 -4.800003,0.159996 -4.799995,0.64 -4.800002,0.959999 -4.8,1.599998 -4.64,1.920006 -4.64,2.559998 -4.64,2.879997 -4.32,3.520004 -4.31999,3.839997 -4.32001,4.319999 -4.16,4.64 -4,5.120002 -3.84,5.600003 -3.67999,5.919998 -3.52001,6.400001 -3.52,6.719998 -3.2,7.040001 -3.03999,7.36 -2.88001,7.84 -2.72,8 -2.56,8.32 -2.40001,8.64 -2.07998,8.960001 -1.92002,9.119998 -1.75999,9.280001 -1.44,9.599999 -1.28,9.760002 -1.12,9.759998 -0.8,10.080002 -0.64,10.239998 -0.47999,10.239998 -0.16001,10.240003 0.16001,10.4 0.15998,10.4 0.64,10.40001 0.64002,10.39999 0.95999,10.39999 1.11999,10.24001 1.44001,10.24 1.6,10.08001 1.76,10.07998 2.08,9.76001 2.24,9.76 2.4,9.44 2.56,9.44 2.88,8.95999 2.88001,8.96001 3.19999,8.48001 3.36,8.31998 3.52001,8 3.51999,7.68002 3.83999,7.35999 4,7.04001 4,6.55999 4.16001,6.23999 4.32,5.92002 4.32,5.44 4.48,5.11999 4.64,4.63999 4.64,4.16 4.64,3.84 4.8,3.20001 4.800003,2.88001 4.959999,2.39999 4.799996,1.92001 4.959999,1.43998 4.800003,0.96002 4.959999,0.63998 h 4.800003 l 4.959999,-0.47998 4.799999,-0.96002 4.64,-1.44 4.799999,-1.91999 4.639999,-2.23999 4.480004,-2.88 4.479999,-3.20001 4.48,-3.84 4.16,-4.16 4.16,-4.63999 4,-4.96002 3.999999,-5.44 3.68,-5.91999 3.68,-6.23999 3.36,-6.56002 3.36,-7.03998 3.2,-7.20001 2.88,-7.68 2.72,-8 2.56,-8.32 2.4,-8.48001"
       style="fill:none;stroke:#000000;stroke-width:26.4;stroke-linecap:round;stroke-linejoin:round;stroke-miterlimit:10;stroke-dasharray:none;stroke-opacity:1"
       transform="translate(476.34668,116.73327)"
       clip-path="url(#clipPath4)" />
    <path
       id="path5"
       d="m 0,0 0.16,2.72 0.8,2.56 1.12,2.72 1.6,2.56 2.08,2.56 2.56,2.56 2.88,2.4 3.36,2.4 3.68,2.399999 4.16,2.240002 4.479999,2.08 4.960001,2.08 5.279999,2.08 5.600002,1.919998 5.919998,1.760002 6.240002,1.759998 6.559998,1.440003 L 68.32,39.84 l 7.040001,1.279999 7.36,1.280003 7.519997,0.959999 7.68,0.959999 7.840002,0.799999 8,0.639999 8.16,0.640004 8.16,0.319999 8.31999,0.32 h 8.32001 8.31999 l 8.32001,-0.16 8.48,-0.32 8.16,-0.479999 8.32001,-0.640003 8,-0.8 8,-0.799999 7.83999,-1.119999 7.68,-1.120003 7.52,-1.279998 7.2,-1.439999 7.04001,-1.600002 L 248.48,35.68 254.88,33.919998 261.12,32 l 5.92001,-1.92 5.44,-2.08 5.28,-2.08 4.79999,-2.24 4.48001,-2.239999 4.16,-2.4 L 294.88,16.48 l 3.19999,-2.4 2.88,-2.56 2.4,-2.56 2.08001,-2.56 1.44,-2.72 1.12,-2.56 0.64001,-2.72 0.15998,-2.72 -0.15998,-2.56 -0.80001,-2.72 -1.12,-2.56 -1.6,-2.72 -2.07999,-2.400001 -2.56,-2.559999 -2.88,-2.56 -3.36002,-2.399999 -3.67999,-2.240002 -4.16001,-2.24 -4.63998,-2.239999 -4.80002,-2.079998 -5.28,-1.920002 -5.6,-1.919999 -5.91999,-1.920002 -6.24,-1.599998 -6.56,-1.600002 L 240.48,-44 l -7.04,-1.279999 -7.36,-1.280002 -7.52,-1.119999 -7.68,-0.959999 -7.84001,-0.8 -8,-0.640003 -8.15999,-0.479999 -8.16,-0.48 -8.32001,-0.16 -8.31999,-0.16 h -8.32001 l -8.47999,0.32 -8.31999,0.32 -8.16001,0.479999 -8.32,0.640004 -8,0.639999 -8,0.959999 -7.840001,0.959999 -7.68,1.280003 -7.519997,1.279998 -7.200004,1.279999 -7.040001,1.600003 L 60.32,-40 53.919998,-38.240002 47.68,-36.32 41.759998,-34.400002 36.16,-32.32 31.040001,-30.08 26.24,-28 l -4.48,2.4 -4.16,2.399999 -3.68,2.400002 -3.2,2.559999 -2.88,2.4 -2.4,2.72 -2.08,2.56 L 1.92,-8 0.8,-5.28 0.16,-2.56 0,0"
       style="fill:none;stroke:#000000;stroke-width:26.4;stroke-linecap:round;stroke-linejoin:round;stroke-miterlimit:10;stroke-dasharray:none;stroke-opacity:1"
       transform="translate(101.78666,252.7333)"
       clip-path="url(#clipPath6)" />
  </g>
</svg>
