<?xml version="1.0" encoding="UTF-8" standalone="no"?>
<!-- Created with Inkscape (http://www.inkscape.org/) -->

<svg
   version="1.1"
   id="svg1"
   width="625.67999"
   height="320.34668"
   viewBox="0 0 625.67999 320.34668"
   sodipodi:docname="Pisces7.pdf"
   xmlns:inkscape="http://www.inkscape.org/namespaces/inkscape"
   xmlns:sodipodi="http://sodipodi.sourceforge.net/DTD/sodipodi-0.dtd"
   xmlns="http://www.w3.org/2000/svg"
   xmlns:svg="http://www.w3.org/2000/svg">
  <defs
     id="defs1">
    <clipPath
       clipPathUnits="userSpaceOnUse"
       id="clipPath2">
      <path
         d="M 26.4,26.559999 V 1096.16 H 767.03998 V 26.559999 Z"
         clip-rule="evenodd"
         id="path2" />
    </clipPath>
    <clipPath
       clipPathUnits="userSpaceOnUse"
       id="clipPath4">
      <path
         d="M 26.4,26.559999 V 1096.16 H 767.03998 V 26.559999 Z"
         transform="translate(-126.88,-561.28003)"
         clip-rule="evenodd"
         id="path4" />
    </clipPath>
    <clipPath
       clipPathUnits="userSpaceOnUse"
       id="clipPath6">
      <path
         d="M 26.4,26.559999 V 1096.16 H 767.03998 V 26.559999 Z"
         transform="translate(-693.12,-561.28003)"
         clip-rule="evenodd"
         id="path6" />
    </clipPath>
    <clipPath
       clipPathUnits="userSpaceOnUse"
       id="clipPath8">
      <path
         d="M 26.4,26.559999 V 1096.16 H 767.03998 V 26.559999 Z"
         transform="translate(-126.88,-561.28003)"
         clip-rule="evenodd"
         id="path8" />
    </clipPath>
    <clipPath
       clipPathUnits="userSpaceOnUse"
       id="clipPath10">
      <path
         d="M 26.4,26.559999 V 1096.16 H 767.03998 V 26.559999 Z"
         transform="translate(-693.12,-561.28003)"
         clip-rule="evenodd"
         id="path10" />
    </clipPath>
    <clipPath
       clipPathUnits="userSpaceOnUse"
       id="clipPath12">
      <path
         d="M 26.4,26.559999 V 1096.16 H 767.03998 V 26.559999 Z"
         transform="translate(-113.6,-693.44001)"
         clip-rule="evenodd"
         id="path12" />
    </clipPath>
    <clipPath
       clipPathUnits="userSpaceOnUse"
       id="clipPath14">
      <path
         d="M 26.4,26.559999 V 1096.16 H 767.03998 V 26.559999 Z"
         transform="translate(-680,-429.28)"
         clip-rule="evenodd"
         id="path14" />
    </clipPath>
  </defs>
  <sodipodi:namedview
     id="namedview1"
     pagecolor="#505050"
     bordercolor="#eeeeee"
     borderopacity="1"
     inkscape:showpageshadow="0"
     inkscape:pageopacity="0"
     inkscape:pagecheckerboard="0"
     inkscape:deskcolor="#505050">
    <inkscape:page
       x="0"
       y="0"
       inkscape:label="1"
       id="page1"
       width="625.67999"
       height="320.34668"
       margin="0"
       bleed="0" />
  </sodipodi:namedview>
  <g
     id="g1"
     inkscape:groupmode="layer"
     inkscape:label="1">
    <path
       id="path1"
       d="M 254.56,561.28003 H 539.03998"
       style="fill:none;stroke:#000000;stroke-width:26.4;stroke-linecap:round;stroke-linejoin:round;stroke-miterlimit:10;stroke-dasharray:none;stroke-opacity:1"
       transform="translate(0,1.3332747)"
       clip-path="url(#clipPath2)" />
    <path
       id="path3"
       d="M 0,0 -0.16,-1.6 -0.48,-3.36 -1.12,-4.96 -1.76,-6.56 -2.72,-8 -4,-9.28 l -1.28,-1.12 -1.44,-0.96 -1.44,-0.8 -1.76,-0.48 -1.6,-0.32 -1.76,-0.16 -1.76,0.16 -1.599999,0.32 -1.760001,0.48 -1.44,0.8 -1.440001,0.96 -1.279998,1.12 L -23.68,-8 l -0.959999,1.44 -0.800002,1.6 L -26.08,-3.36 -26.4,-1.6 -26.559999,0 -26.4,1.76 l 0.32,1.76 0.639999,1.6 0.800002,1.6 0.959999,1.44 1.120001,1.28 1.279998,1.12 1.440001,0.96 1.44,0.8 1.760001,0.48 1.599999,0.32 1.76,0.16 1.76,-0.16 1.6,-0.32 1.76,-0.48 1.44,-0.8 1.44,-0.96 L -4,9.44 -2.72,8.16 -1.76,6.72 -1.12,5.12 -0.48,3.52 -0.16,1.76 0,0 v 0 z"
       style="fill:#000000;fill-opacity:1;fill-rule:evenodd;stroke:none"
       transform="translate(126.88,562.6133)"
       clip-path="url(#clipPath4)" />
    <path
       id="path5"
       d="m 0,0 v -1.6 l -0.32,-1.76 -0.64,-1.6 -0.8,-1.6 -0.96,-1.44 -1.12,-1.28 -1.28,-1.12 -1.44,-0.96 -1.6,-0.8 -1.6,-0.48 -1.6,-0.32 -1.76,-0.16 -1.76,0.16 -1.759999,0.32 -1.600001,0.48 -1.44,0.8 -1.440001,0.96 -1.439998,1.12 L -23.68,-8 l -0.959999,1.44 -0.640002,1.6 -0.639999,1.6 -0.32,1.76 -0.16,1.6 0.16,1.76 0.32,1.76 0.639999,1.6 0.640002,1.6 0.959999,1.44 1.120001,1.28 1.439998,1.12 1.440001,0.96 1.44,0.8 1.600001,0.48 1.759999,0.32 1.76,0.16 1.76,-0.16 1.6,-0.32 1.6,-0.48 1.6,-0.8 1.44,-0.96 1.28,-1.12 1.12,-1.28 0.96,-1.44 0.8,-1.6 0.64,-1.6 L 0,1.76 V 0 0 Z"
       style="fill:#000000;fill-opacity:1;fill-rule:evenodd;stroke:none"
       transform="translate(693.12,562.6133)"
       clip-path="url(#clipPath6)" />
    <path
       id="path7"
       d="M 0,0 -0.16,-1.6 -0.48,-3.36 -1.12,-4.96 -1.76,-6.56 -2.72,-8 -4,-9.28 l -1.28,-1.12 -1.44,-0.96 -1.44,-0.8 -1.76,-0.48 -1.6,-0.32 -1.76,-0.16 -1.76,0.16 -1.599999,0.32 -1.760001,0.48 -1.44,0.8 -1.440001,0.96 -1.279998,1.12 L -23.68,-8 l -0.959999,1.44 -0.800002,1.6 L -26.08,-3.36 -26.4,-1.6 -26.559999,0 -26.4,1.76 l 0.32,1.76 0.639999,1.6 0.800002,1.6 0.959999,1.44 1.120001,1.28 1.279998,1.12 1.440001,0.96 1.44,0.8 1.760001,0.48 1.599999,0.32 1.76,0.16 1.76,-0.16 1.6,-0.32 1.76,-0.48 1.44,-0.8 1.44,-0.96 L -4,9.44 -2.72,8.16 -1.76,6.72 -1.12,5.12 -0.48,3.52 -0.16,1.76 0,0"
       style="fill:none;stroke:#000000;stroke-width:0.64;stroke-linecap:round;stroke-linejoin:round;stroke-miterlimit:10;stroke-dasharray:none;stroke-opacity:1"
       transform="translate(126.88,562.6133)"
       clip-path="url(#clipPath8)" />
    <path
       id="path9"
       d="m 0,0 v -1.6 l -0.32,-1.76 -0.64,-1.6 -0.8,-1.6 -0.96,-1.44 -1.12,-1.28 -1.28,-1.12 -1.44,-0.96 -1.6,-0.8 -1.6,-0.48 -1.6,-0.32 -1.76,-0.16 -1.76,0.16 -1.759999,0.32 -1.600001,0.48 -1.44,0.8 -1.440001,0.96 -1.439998,1.12 L -23.68,-8 l -0.959999,1.44 -0.640002,1.6 -0.639999,1.6 -0.32,1.76 -0.16,1.6 0.16,1.76 0.32,1.76 0.639999,1.6 0.640002,1.6 0.959999,1.44 1.120001,1.28 1.439998,1.12 1.440001,0.96 1.44,0.8 1.600001,0.48 1.759999,0.32 1.76,0.16 1.76,-0.16 1.6,-0.32 1.6,-0.48 1.6,-0.8 1.44,-0.96 1.28,-1.12 1.12,-1.28 0.96,-1.44 0.8,-1.6 0.64,-1.6 L 0,1.76 V 0"
       style="fill:none;stroke:#000000;stroke-width:0.64;stroke-linecap:round;stroke-linejoin:round;stroke-miterlimit:10;stroke-dasharray:none;stroke-opacity:1"
       transform="translate(693.12,562.6133)"
       clip-path="url(#clipPath10)" />
    <path
       id="path11"
       d="m 0,0 7.68,-0.16 7.68,-0.64 7.680001,-1.12 7.519998,-1.6 7.359999,-1.92 7.360001,-2.4 7.040001,-2.88 7.040001,-3.2 6.720001,-3.68 6.559997,-4 6.239998,-4.48 6.080002,-4.799999 L 90.720001,-36 l 5.440003,-5.439999 5.119996,-5.760002 4.8,-5.919998 4.32,-6.400001 4,-6.560002 3.68,-6.720001 3.2,-6.879997 2.88,-7.199997 2.4,-7.360001 2.08,-7.360002 1.44,-7.52 1.12,-7.68 0.8,-7.52 0.16,-7.84 -0.16,-7.68 -0.8,-7.52 -1.12,-7.67999 -1.44,-7.52001 -2.08,-7.36 -2.4,-7.36 -2.88,-7.2 -3.2,-6.88 -3.68,-6.72 -4,-6.56 -4.32,-6.39999 -4.8,-5.92002 -5.119996,-5.75999 -5.440003,-5.44 -5.760002,-5.12 -6.080002,-4.8 -6.239998,-4.48 -6.559997,-4 -6.720001,-3.68 -7.040001,-3.2 -7.040001,-2.88001 -7.360001,-2.39999 -7.359999,-1.92001 -7.519998,-1.59998 -7.680001,-1.12 L 7.68,-264 0,-264.16"
       style="fill:none;stroke:#000000;stroke-width:26.4;stroke-linecap:round;stroke-linejoin:round;stroke-miterlimit:10;stroke-dasharray:none;stroke-opacity:1"
       transform="translate(113.6,694.77328)"
       clip-path="url(#clipPath12)" />
    <path
       id="path13"
       d="m 0,0 -7.68,0.16 -7.68,0.64 -7.680001,1.12 -7.519998,1.6 -7.359999,1.92 -7.360001,2.4 -7.040001,2.88 -7.040001,3.2 -6.720001,3.68 -6.559997,4 -6.239998,4.48 -6.080002,4.799999 L -90.720001,36 l -5.440003,5.439999 -5.119996,5.760002 -4.8,5.919998 -4.32,6.400001 -4,6.560002 -3.68,6.720001 -3.36,6.879997 -2.72,7.199997 -2.4,7.360001 -2.08,7.360002 -1.6,7.52 -1.12,7.68 -0.64,7.52 -0.16,7.68 0.16,7.84 0.64,7.52 1.12,7.67999 1.6,7.52001 2.08,7.36 2.4,7.36 2.72,7.2 3.36,6.88 3.68,6.72 4,6.56 4.32,6.39999 4.8,5.92002 5.119996,5.75999 5.440003,5.44 5.760002,5.12 6.080002,4.8 6.239998,4.48 6.559997,4 6.720001,3.68 7.040001,3.2 7.040001,2.88001 7.360001,2.39999 7.359999,1.92001 7.519998,1.59998 7.680001,1.12 L -7.68,264 0,264.16"
       style="fill:none;stroke:#000000;stroke-width:26.4;stroke-linecap:round;stroke-linejoin:round;stroke-miterlimit:10;stroke-dasharray:none;stroke-opacity:1"
       transform="translate(680,430.61327)"
       clip-path="url(#clipPath14)" />
  </g>
</svg>
