<?xml version="1.0" encoding="UTF-8" standalone="no"?>
<!-- Created with Inkscape (http://www.inkscape.org/) -->

<svg
   version="1.1"
   id="svg1"
   width="517.59998"
   height="459.17334"
   viewBox="0 0 517.59998 459.17334"
   sodipodi:docname="Pisces11.pdf"
   xmlns:inkscape="http://www.inkscape.org/namespaces/inkscape"
   xmlns:sodipodi="http://sodipodi.sourceforge.net/DTD/sodipodi-0.dtd"
   xmlns="http://www.w3.org/2000/svg"
   xmlns:svg="http://www.w3.org/2000/svg">
  <defs
     id="defs1">
    <clipPath
       clipPathUnits="userSpaceOnUse"
       id="clipPath2">
      <path
         d="M 26.4,26.559999 V 1096.16 H 767.03998 V 26.559999 Z"
         transform="translate(-162.56,-656.47998)"
         clip-rule="evenodd"
         id="path2" />
    </clipPath>
    <clipPath
       clipPathUnits="userSpaceOnUse"
       id="clipPath4">
      <path
         d="M 26.4,26.559999 V 1096.16 H 767.03998 V 26.559999 Z"
         transform="translate(-631.03998,-463.51999)"
         clip-rule="evenodd"
         id="path4" />
    </clipPath>
    <clipPath
       clipPathUnits="userSpaceOnUse"
       id="clipPath6">
      <path
         d="M 26.4,26.559999 V 1096.16 H 767.03998 V 26.559999 Z"
         transform="translate(-393.92001,-555.67999)"
         clip-rule="evenodd"
         id="path6" />
    </clipPath>
    <clipPath
       clipPathUnits="userSpaceOnUse"
       id="clipPath8">
      <path
         d="M 26.4,26.559999 V 1096.16 H 767.03998 V 26.559999 Z"
         transform="translate(-395.20001,-560.15997)"
         clip-rule="evenodd"
         id="path8" />
    </clipPath>
  </defs>
  <sodipodi:namedview
     id="namedview1"
     pagecolor="#505050"
     bordercolor="#eeeeee"
     borderopacity="1"
     inkscape:showpageshadow="0"
     inkscape:pageopacity="0"
     inkscape:pagecheckerboard="0"
     inkscape:deskcolor="#505050">
    <inkscape:page
       x="0"
       y="0"
       inkscape:label="1"
       id="page1"
       width="517.59998"
       height="459.17334"
       margin="0"
       bleed="0" />
  </sodipodi:namedview>
  <g
     id="g1"
     inkscape:groupmode="layer"
     inkscape:label="1">
    <path
       id="path1"
       d="M 0,0 2.4,8.8 4.96,17.280001 7.68,25.6 l 2.72,7.839999 3.04,7.52 3.04,7.200001 3.2,6.880001 3.360001,6.399998 3.359999,6.079998 3.52,5.600006 3.679998,5.279999 3.680001,4.639999 3.84,4.32 3.84,4 3.84,3.36 4,3.040001 4,2.399998 4,2.08 4.16,1.44 4,1.12 4.160004,0.48 h 4.159996 l 4.160003,-0.32 4,-0.96 4.159996,-1.44 4,-1.76 4,-2.399998 4.000002,-2.880005 4,-3.359993 3.84,-3.680001 3.84,-4.160003 3.68,-4.800003 3.68,-4.959999 3.52,-5.599999 3.36,-5.919998 3.36,-6.400002 3.2,-6.720001 3.2,-7.039997 2.88,-7.52 2.87999,-7.680001 2.72,-8.16 2.56002,-8.48 2.39999,-8.8 2.39999,-8.96 2.08001,-9.28 1.91999,-9.6 1.76001,-9.760001 1.6,-9.919998 1.44,-10.080002 1.28,-10.400001 1.12001,-10.400002 0.95999,-10.559997 0.64,-10.559998 0.64,-10.720001 0.32,-10.88 0.15999,-10.72001 V -140.48 l -0.15999,-10.72 -0.32,-10.88 -0.64,-10.72 -0.80001,-10.56 -0.95999,-10.56 -1.12001,-10.40001 -1.28,-10.23999 -1.43998,-10.08 -1.60001,-9.92 -1.75999,-9.76001 -2.08001,-9.59999 -2.08,-9.12001 -2.24,-9.11999 -2.56,-8.63999 -2.56,-8.48001 -2.72,-8"
       style="fill:none;stroke:#000000;stroke-width:26.4;stroke-linecap:round;stroke-linejoin:round;stroke-miterlimit:10;stroke-dasharray:none;stroke-opacity:1"
       transform="translate(162.56,663.14659)"
       clip-path="url(#clipPath2)" />
    <path
       id="path3"
       d="M 0,0 -2.4,-8.8 -4.96,-17.440001 -7.68,-25.6 l -2.88,-7.839999 -2.88,-7.68 -3.04,-7.200001 -3.2,-6.720001 -3.360001,-6.559997 -3.359999,-5.919999 -3.52,-5.600006 -3.679998,-5.279999 -3.680001,-4.799995 -3.84,-4.32 -3.84,-3.840004 -3.84,-3.36 -4,-3.040001 -4,-2.399998 -4,-2.08 -4.16,-1.44 -4,-1.12 -4.160004,-0.48 -4.159996,-0.16 -4.160003,0.48 -4,0.96 -4.159996,1.28 -4,1.92 -4,2.399998 -4.000002,2.880005 -4,3.199997 -3.84,3.839997 -3.84,4.160003 -3.68,4.64 -3.68,5.120002 -3.52,5.599999 -3.36,5.919998 -3.36,6.240002 -3.2,6.719997 -3.2,7.200001 -3.04001,7.360001 -2.71998,7.84 -2.72,8.16 -2.56002,8.48 -2.55999,8.64 -2.23999,9.12 -2.08001,9.28 -1.91999,9.440001 -1.76001,9.76 -1.6,9.919998 -1.6,10.240002 -1.12,10.239997 L -164.32001,76 -165.28,86.559998 -166.08,97.279999 -166.56,108 l -0.32,10.72 -0.15999,10.88001 v 10.72 L -166.88,151.2 l 0.32,10.72 0.64,10.72 0.80001,10.72 0.79998,10.39999 1.12001,10.56002 1.28,10.23999 1.59999,10.08 1.60001,9.92 1.75999,9.76001 2.08001,9.43998 2.08,9.28002 2.24,8.95999 2.4,8.79999 2.72,8.32001 2.72,8.16"
       style="fill:none;stroke:#000000;stroke-width:26.4;stroke-linecap:round;stroke-linejoin:round;stroke-miterlimit:10;stroke-dasharray:none;stroke-opacity:1"
       transform="translate(631.03998,470.1866)"
       clip-path="url(#clipPath4)" />
    <path
       id="path5"
       d="M 0,0 -1.76,-11.84 -3.84,-23.52 -5.92,-34.880001 -8.16,-45.919998 -10.72,-56.799999 -13.28,-67.519997 -16,-77.760002 -18.879999,-87.839996 -21.92,-97.440002 -25.120001,-106.72 -28.48,-115.68 l -3.36,-8.64 -3.520001,-8.16 -3.68,-7.84001 -3.84,-7.35998 -3.84,-7.04001 -4,-6.56 -4,-6.08 -4.16,-5.60001 -4.16,-5.27999 -4.32,-4.64 -4.319999,-4.32 -4.480004,-3.68 -4.479995,-3.36 -4.480004,-2.72001 -4.479995,-2.23999 -4.64,-1.76001 -4.639999,-1.27999 -4.480003,-0.79999 -4.64,-0.32001 -4.64,0.32001"
       style="fill:none;stroke:#000000;stroke-width:26.4;stroke-linecap:round;stroke-linejoin:round;stroke-miterlimit:10;stroke-dasharray:none;stroke-opacity:1"
       transform="translate(393.92001,562.3466)"
       clip-path="url(#clipPath6)" />
    <path
       id="path7"
       d="m 0,0 1.6,11.68 1.76,11.520001 1.92,11.36 L 7.52,45.599998 9.76,56.48 12.16,67.040001 14.72,77.279999 17.440001,87.360001 20.16,97.120003 23.200001,106.4 26.24,115.52 l 3.36,8.8 3.359999,8.32 3.360001,8 3.68,7.52 3.68,7.36 3.680001,6.72 3.84,6.4 4,5.92 4,5.6 4.16,5.12 4.159996,4.64 4.319999,4.16 4.320008,3.67999 4.319999,3.20002 4.32,2.71998 4.479996,2.24001 4.480003,1.75999 4.479996,1.44 4.480002,0.80001 4.48,0.32 4.48,-0.16"
       style="fill:none;stroke:#000000;stroke-width:26.4;stroke-linecap:round;stroke-linejoin:round;stroke-miterlimit:10;stroke-dasharray:none;stroke-opacity:1"
       transform="translate(395.20001,566.82658)"
       clip-path="url(#clipPath8)" />
  </g>
</svg>
