<?xml version="1.0" encoding="UTF-8" standalone="no"?>
<!-- Created with Inkscape (http://www.inkscape.org/) -->

<svg
   version="1.1"
   id="svg1"
   width="356.18668"
   height="452.49332"
   viewBox="0 0 356.18668 452.49332"
   sodipodi:docname="Pisces2.pdf"
   xmlns:inkscape="http://www.inkscape.org/namespaces/inkscape"
   xmlns:sodipodi="http://sodipodi.sourceforge.net/DTD/sodipodi-0.dtd"
   xmlns="http://www.w3.org/2000/svg"
   xmlns:svg="http://www.w3.org/2000/svg">
  <defs
     id="defs1">
    <clipPath
       clipPathUnits="userSpaceOnUse"
       id="clipPath2">
      <path
         d="M 0,0.16 V 1122.5601 H 793.59998 V 0.16 Z"
         transform="translate(-441.11999,-658.23999)"
         clip-rule="evenodd"
         id="path2" />
    </clipPath>
    <clipPath
       clipPathUnits="userSpaceOnUse"
       id="clipPath4">
      <path
         d="M 0,0.16 V 1122.5601 H 793.59998 V 0.16 Z"
         transform="translate(-3.3333333e-6)"
         clip-rule="evenodd"
         id="path4" />
    </clipPath>
    <clipPath
       clipPathUnits="userSpaceOnUse"
       id="clipPath6">
      <path
         d="M 0,0.16 V 1122.5601 H 793.59998 V 0.16 Z"
         transform="translate(-243.52,-715.03998)"
         clip-rule="evenodd"
         id="path6" />
    </clipPath>
    <clipPath
       clipPathUnits="userSpaceOnUse"
       id="clipPath8">
      <path
         d="M 0,0.16 V 1122.5601 H 793.59998 V 0.16 Z"
         transform="translate(-3.3333333e-6)"
         clip-rule="evenodd"
         id="path8" />
    </clipPath>
    <clipPath
       clipPathUnits="userSpaceOnUse"
       id="clipPath10">
      <path
         d="M 0,0.16 V 1122.5601 H 793.59998 V 0.16 Z"
         transform="translate(-359.83999,-661.11999)"
         clip-rule="evenodd"
         id="path10" />
    </clipPath>
  </defs>
  <sodipodi:namedview
     id="namedview1"
     pagecolor="#505050"
     bordercolor="#eeeeee"
     borderopacity="1"
     inkscape:showpageshadow="0"
     inkscape:pageopacity="0"
     inkscape:pagecheckerboard="0"
     inkscape:deskcolor="#505050">
    <inkscape:page
       x="0"
       y="0"
       inkscape:label="1"
       id="page1"
       width="356.18668"
       height="452.49332"
       margin="0"
       bleed="0" />
  </sodipodi:namedview>
  <g
     id="g1"
     inkscape:groupmode="layer"
     inkscape:label="1">
    <path
       id="path1"
       d="m 0,0 4.16,-5.92 4.32,-6.08 4.16,-6.559999 4.159999,-6.720002 4.16,-7.039999 4.160002,-7.36 4,-7.520001 3.839998,-7.68 3.84,-8 3.84,-7.999996 3.680001,-8.160004 3.52,-8.479996 3.360001,-8.319999 3.200001,-8.640004 3.199996,-8.48 3.040001,-8.64 2.720002,-8.79999 2.720001,-8.64 2.400001,-8.64 2.399994,-8.48001 2.080002,-8.48 1.919998,-8.47999 1.760002,-8.32001 1.599999,-8.16001 1.279999,-8 1.280006,-7.83999 0.799995,-7.52001 0.800004,-7.51999 0.479995,-7.19999 0.32,-6.88001 v -6.72 -6.39999 l -0.479996,-6.08 -0.480003,-5.76 -0.799996,-5.28 -0.959999,-5.12002 -1.280006,-4.79999 -1.279999,-4.32001 -1.599998,-4 -1.760002,-3.51999 -2.079995,-3.20001 -2.080001,-2.72 L 68,-294.72 l -2.559998,-1.92001 -2.720001,-1.59998 -2.880001,-0.96002 -3.040001,-0.63999 -3.040001,-0.16 -3.359996,0.32001 -3.520001,0.63998 -3.52,1.12 -3.680001,1.6 -3.68,1.92002 -4,2.39999 -3.84,2.88 -4,3.19999 -4.16,3.68002 -4.16,4 -4.16,4.47998 -4.32,4.80002 -4.16,5.11999 -4.32,5.44001 -4.16,5.75999 -4.32,6.24001 -4.16,6.39999 -4.16,6.72 -4.16,6.88001 -4.16,7.36 -4,7.36 -4.000002,7.67999 -3.84,7.84 -3.679996,8.16 -3.680001,8.16 -3.68,8.32 -3.360001,8.48001 -3.36,8.47999 -3.200001,8.64 -2.879997,8.48 -2.880005,8.8 -2.719994,8.64 -2.560005,8.64 -2.400001,8.48 -2.079995,8.640002 -2.080001,8.32 -1.760003,8.32 -1.599998,8.159996 -1.279999,8.160003 -1.279999,7.84 -0.959999,7.680001 -0.800003,7.519996 -0.480003,7.200001"
       style="fill:none;stroke:#000000;stroke-width:26.4;stroke-linecap:round;stroke-linejoin:round;stroke-miterlimit:10;stroke-dasharray:none;stroke-opacity:1"
       transform="translate(223.66666,324.5466)"
       clip-path="url(#clipPath2)" />
    <path
       id="path3"
       d="M 441.12,658.71997 411.35999,696"
       style="fill:none;stroke:#000000;stroke-width:26.4;stroke-linecap:round;stroke-linejoin:round;stroke-miterlimit:10;stroke-dasharray:none;stroke-opacity:1"
       transform="translate(-217.45333,-333.69339)"
       clip-path="url(#clipPath4)" />
    <path
       id="path5"
       d="m 0,0 6.88,3.68 7.2,3.36 7.200001,2.88 7.519998,2.56 7.520001,2.24 7.68,1.6 7.68,1.28 7.84,0.959999 7.840001,0.32 h 7.839996 L 83.040001,18.4 90.879997,17.6 98.720001,16.32 106.4,14.56 l 7.52,-2.24 7.36,-2.56 7.36,-2.88 7.03999,-3.52 6.88001,-3.68 6.72,-4.16 6.39999,-4.48 6.24001,-4.8 5.92,-5.280001"
       style="fill:none;stroke:#000000;stroke-width:26.4;stroke-linecap:round;stroke-linejoin:round;stroke-miterlimit:10;stroke-dasharray:none;stroke-opacity:1"
       transform="translate(26.066671,381.34659)"
       clip-path="url(#clipPath6)" />
    <path
       id="path7"
       d="M 356,627.52002 359.84,661.12"
       style="fill:none;stroke:#000000;stroke-width:26.4;stroke-linecap:round;stroke-linejoin:round;stroke-miterlimit:10;stroke-dasharray:none;stroke-opacity:1"
       transform="translate(-217.45333,-333.69339)"
       clip-path="url(#clipPath8)" />
    <path
       id="path9"
       d="M 0,0 1.12,7.04 2.56,13.92 4.64,20.799999 6.88,27.52 9.76,34.080002 12.8,40.48 l 3.52,6.240001 4,5.919998 4.16,5.760003 4.640001,5.439998 4.960001,5.119999 5.119999,4.800003 5.599998,4.64 5.760002,4.159996 5.919999,3.840004 6.240001,3.519996 6.400002,3.040001 L 75.68,95.68 82.559998,98.080002 89.279999,99.839996 96.32,101.44 l 7.04,0.96 7.04,0.64 7.2,0.16 7.04,-0.16 7.2,-0.64 7.04,-1.12 6.87999,-1.440004 6.88001,-1.919998 6.72,-2.400001 6.56,-2.719994 6.56,-3.200005 6.08,-3.36 6.08,-4 5.75999,-4.159996"
       style="fill:none;stroke:#000000;stroke-width:26.4;stroke-linecap:round;stroke-linejoin:round;stroke-miterlimit:10;stroke-dasharray:none;stroke-opacity:1"
       transform="translate(142.38666,327.4266)"
       clip-path="url(#clipPath10)" />
  </g>
</svg>
