<?xml version="1.0" encoding="UTF-8" standalone="no"?>
<!-- Created with Inkscape (http://www.inkscape.org/) -->

<svg
   version="1.1"
   id="svg1"
   width="581.65332"
   height="587.30664"
   viewBox="0 0 581.65332 587.30664"
   sodipodi:docname="Pisces.pdf"
   xmlns:inkscape="http://www.inkscape.org/namespaces/inkscape"
   xmlns:sodipodi="http://sodipodi.sourceforge.net/DTD/sodipodi-0.dtd"
   xmlns="http://www.w3.org/2000/svg"
   xmlns:svg="http://www.w3.org/2000/svg">
  <defs
     id="defs1">
    <clipPath
       clipPathUnits="userSpaceOnUse"
       id="clipPath2">
      <path
         d="M 26.4,26.559999 V 1096.16 H 767.03998 V 26.559999 Z"
         transform="translate(-137.28,-825.59998)"
         clip-rule="evenodd"
         id="path2" />
    </clipPath>
    <clipPath
       clipPathUnits="userSpaceOnUse"
       id="clipPath4">
      <path
         d="M 26.4,26.559999 V 1096.16 H 767.03998 V 26.559999 Z"
         transform="translate(-656.32001,-297.12)"
         clip-rule="evenodd"
         id="path4" />
    </clipPath>
    <clipPath
       clipPathUnits="userSpaceOnUse"
       id="clipPath6">
      <path
         d="M 26.4,26.559999 V 1096.16 H 767.03998 V 26.559999 Z"
         transform="translate(3.3333333e-6)"
         clip-rule="evenodd"
         id="path6" />
    </clipPath>
  </defs>
  <sodipodi:namedview
     id="namedview1"
     pagecolor="#505050"
     bordercolor="#eeeeee"
     borderopacity="1"
     inkscape:showpageshadow="0"
     inkscape:pageopacity="0"
     inkscape:pagecheckerboard="0"
     inkscape:deskcolor="#505050">
    <inkscape:page
       x="0"
       y="0"
       inkscape:label="1"
       id="page1"
       width="581.65332"
       height="587.30664"
       margin="0"
       bleed="0" />
  </sodipodi:namedview>
  <g
     id="g1"
     inkscape:groupmode="layer"
     inkscape:label="1">
    <path
       id="path1"
       d="m 0,0 8.8,-0.16 8.8,-0.8 8.64,-1.12 8.800001,-1.6 8.639999,-2.24 8.64,-2.56 8.479999,-3.04 8.320004,-3.52 8.319999,-4.000001 8,-4.32 8,-4.959999 7.839998,-5.119999 7.52,-5.760002 7.36,-6.079998 7.2,-6.400001 7.03999,-6.880001 6.72,-7.200001 6.56,-7.68 6.24001,-8 5.92,-8.159996 5.6,-8.64 5.44,-8.800002 5.12,-9.28 4.8,-9.28 4.48,-9.76 4.16,-9.92 3.67999,-10.08 3.52001,-10.39999 3.03999,-10.40001 2.88001,-10.72 2.40001,-10.72001 1.91999,-11.03999 1.76,-10.88 1.28,-11.2 0.96,-11.03999 0.48,-11.20002 0.16,-11.36 -0.16,-11.19998 -0.48,-11.20001 -0.96,-11.04001 -1.28,-11.19998 -1.76,-11.04001 -1.91999,-10.88 -2.40001,-10.72001 -2.88001,-10.72 -3.03999,-10.39999 -3.52001,-10.4 -3.67999,-10.08001 -4.16,-9.91999 -4.48,-9.76 -4.8,-9.44001 -5.12,-9.11999 -5.44,-8.79999 -5.6,-8.64001 -5.92,-8.32001 -6.24001,-7.84 -6.56,-7.67999 -6.72,-7.20001 -7.03999,-6.87998 -7.2,-6.40002 -7.36,-6.07999 -7.52,-5.76001 -7.839998,-5.28 -8,-4.79999 -8,-4.32 -8.319999,-4 -8.320004,-3.52002 L 52.32,-520 l -8.64,-2.56 -8.639999,-2.23999 -8.800001,-1.60003 -8.64,-1.12 -8.8,-0.79999 -8.8,-0.15997"
       style="fill:none;stroke:#000000;stroke-width:26.4;stroke-linecap:round;stroke-linejoin:round;stroke-miterlimit:10;stroke-dasharray:none;stroke-opacity:1"
       transform="translate(27.893332,559.97325)"
       clip-path="url(#clipPath2)" />
    <path
       id="path3"
       d="m 0,0 -8.8,0.16 -8.8,0.8 -8.8,1.12 -8.640001,1.6 -8.639999,2.24 -8.64,2.56 -8.479999,3.04 -8.320004,3.52 -8.319999,4.000001 -8,4.32 -8,4.799999 -7.839998,5.279999 -7.52,5.760002 -7.36,6.079998 -7.2,6.400001 -7.03999,6.880001 -6.72,7.200001 -6.56,7.68 -6.24001,7.839997 -5.92,8.319999 -5.6,8.64 -5.44,8.800002 -5.12,9.12 -4.8,9.44 -4.48,9.76 -4.16,9.92 -3.67999,10.08 -3.52001,10.39999 -3.03999,10.40001 -2.88001,10.72 -2.40001,10.72001 -1.91999,10.87999 -1.76,11.04 -1.28,11.2 -0.96,11.03999 -0.48,11.20002 -0.31999,11.19999 0.31999,11.35999 0.48,11.20001 0.96,11.04001 1.28,11.19998 1.76,10.88001 1.91999,11.04 2.40001,10.72001 2.88001,10.72 3.03999,10.39999 3.52001,10.4 3.67999,10.08001 4.16,9.91999 4.48,9.76 4.8,9.28 5.12,9.28 5.44,8.79999 5.6,8.64001 5.92,8.16001 6.24001,8 6.56,7.67999 6.72,7.20001 7.03999,6.87998 7.2,6.40002 7.36,6.07999 7.52,5.76001 7.839998,5.11999 8,4.96 8,4.32 8.319999,4 8.320004,3.52002 L -52.32,520 l 8.64,2.56 8.639999,2.23999 8.640001,1.60003 8.8,1.12 8.8,0.79999 8.8,0.15997"
       style="fill:none;stroke:#000000;stroke-width:26.4;stroke-linecap:round;stroke-linejoin:round;stroke-miterlimit:10;stroke-dasharray:none;stroke-opacity:1"
       transform="translate(546.93334,31.49327)"
       clip-path="url(#clipPath4)" />
    <path
       id="path5"
       d="M 137.28,561.28003 H 656.32001"
       style="fill:none;stroke:#000000;stroke-width:26.4;stroke-linecap:round;stroke-linejoin:round;stroke-miterlimit:10;stroke-dasharray:none;stroke-opacity:1"
       transform="translate(-109.38667,-265.62673)"
       clip-path="url(#clipPath6)" />
  </g>
</svg>
