<?xml version="1.0" encoding="UTF-8" standalone="no"?>
<!-- Created with Inkscape (http://www.inkscape.org/) -->

<svg
   version="1.1"
   id="svg1"
   width="445.57333"
   height="503.22668"
   viewBox="0 0 445.57333 503.22668"
   sodipodi:docname="Pisces13.pdf"
   xmlns:inkscape="http://www.inkscape.org/namespaces/inkscape"
   xmlns:sodipodi="http://sodipodi.sourceforge.net/DTD/sodipodi-0.dtd"
   xmlns="http://www.w3.org/2000/svg"
   xmlns:svg="http://www.w3.org/2000/svg">
  <defs
     id="defs1">
    <clipPath
       clipPathUnits="userSpaceOnUse"
       id="clipPath2">
      <path
         d="M 26.4,26.559999 V 1096.16 H 767.03998 V 26.559999 Z"
         transform="translate(-197.60001,-691.20001)"
         clip-rule="evenodd"
         id="path2" />
    </clipPath>
    <clipPath
       clipPathUnits="userSpaceOnUse"
       id="clipPath4">
      <path
         d="M 26.4,26.559999 V 1096.16 H 767.03998 V 26.559999 Z"
         transform="translate(-580.64002,-426.56)"
         clip-rule="evenodd"
         id="path4" />
    </clipPath>
    <clipPath
       clipPathUnits="userSpaceOnUse"
       id="clipPath6">
      <path
         d="M 26.4,26.559999 V 1096.16 H 767.03998 V 26.559999 Z"
         transform="translate(3.3333334e-6)"
         clip-rule="evenodd"
         id="path6" />
    </clipPath>
    <clipPath
       clipPathUnits="userSpaceOnUse"
       id="clipPath8">
      <path
         d="M 26.4,26.559999 V 1096.16 H 767.03998 V 26.559999 Z"
         transform="translate(3.3333334e-6)"
         clip-rule="evenodd"
         id="path8" />
    </clipPath>
  </defs>
  <sodipodi:namedview
     id="namedview1"
     pagecolor="#505050"
     bordercolor="#eeeeee"
     borderopacity="1"
     inkscape:showpageshadow="0"
     inkscape:pageopacity="0"
     inkscape:pagecheckerboard="0"
     inkscape:deskcolor="#505050">
    <inkscape:page
       x="0"
       y="0"
       inkscape:label="1"
       id="page1"
       width="445.57333"
       height="503.22668"
       margin="0"
       bleed="0" />
  </sodipodi:namedview>
  <g
     id="g1"
     inkscape:groupmode="layer"
     inkscape:label="1">
    <path
       id="path1"
       d="m 0,0 2.88,8.48 3.04,8.159999 3.36,7.680001 3.36,7.52 3.52,7.200001 3.68,6.719997 3.84,6.400002 4,5.920002 4.16,5.759998 4.16,5.119999 4.32,4.800003 4.479999,4.32 4.48,4 4.479999,3.36 4.640004,3.040001 4.799999,2.559998 L 68,93.120003 l 4.800003,1.599998 4.799995,1.119995 4.800004,0.640007 4.959999,0.159996 4.800003,-0.319999 4.799995,-0.64 4.960001,-1.279998 4.8,-1.760003 4.64,-2.239997 4.8,-2.720002 4.64,-3.040001 4.48,-3.68 4.47999,-4 4.48001,-4.479996 4.32,-4.800003 4.16,-5.439998 4,-5.760002 4,-6.079998 L 154.56,44 l 3.52,-6.880001 3.52001,-7.199999 3.36,-7.68 3.19999,-7.84 3.04,-8.16 2.88,-8.48 2.56,-8.8 2.56,-8.96 2.24,-9.280001 2.08,-9.44 1.76,-9.599999 1.6,-9.760002 1.44001,-10.080002 1.28,-10.079994 L 190.56,-88.32 191.36,-98.720001 192,-108.96 l 0.32001,-10.4 v -10.56 -10.40001 L 192,-150.72 l -0.64,-10.24001 -0.8,-10.39999 -0.95999,-10.08 -1.28,-10.08 -1.44001,-10.08001 -1.6,-9.75999 -1.76,-9.60001 -2.08,-9.43998 -2.24,-9.28 -2.56,-8.96001 -2.56,-8.8 -2.88,-8.48001 -3.04,-8.15998 -3.19999,-7.84002 -3.36,-7.68 -3.52001,-7.19998 -3.52,-6.88 -3.84,-6.4 -4,-6.24002 -4,-5.6 -4.16,-5.43998 -4.32,-4.80001 -4.48001,-4.48001 -4.47999,-4 -4.48,-3.68 -4.64,-3.03998 -4.8,-2.72 -4.64,-2.24002 -4.8,-1.75998 -4.960001,-1.28 -4.799995,-0.64001 -4.800003,-0.32001 -4.959999,0.16001 -4.800004,0.64001 -4.799995,1.12 -4.800003,1.6 -4.799999,2.07999 -4.799999,2.56 -4.640004,3.04 -4.479999,3.35999 -4.48,4 -4.479999,4.32001 -4.32,4.79999 -4.16,5.12002 -4.16,5.59998 -4,6.08001 -3.84,6.4 -3.68,6.72 -3.52,7.20001 L 9.28,-284 5.92,-276.32001 2.88,-268.16 0,-259.67999"
       style="fill:none;stroke:#000000;stroke-width:26.4;stroke-linecap:round;stroke-linejoin:round;stroke-miterlimit:10;stroke-dasharray:none;stroke-opacity:1"
       transform="translate(24.173339,380.19995)"
       clip-path="url(#clipPath2)" />
    <path
       id="path3"
       d="m 0,0 -3.36,-8.16 -3.52,-8 -3.68,-7.52 -3.84,-7.360001 -4,-6.879997 -4,-6.560002 -4.319999,-6.080001 -4.16,-5.759999 -4.480002,-5.439998 -4.479999,-4.960003 -4.64,-4.479996 -4.639999,-4 -4.799999,-3.68 -4.800003,-3.200005 -4.799999,-2.720001 -4.8,-2.239998 -4.959999,-1.919998 -4.800003,-1.279999 -4.959999,-0.800003 -4.799995,-0.32 h -4.960007 l -4.799995,0.64 -4.800002,1.120003 -4.8,1.439994 -4.64,2.080002 -4.64,2.400002 -4.48,3.040001 -4.48,3.36 -4.31999,3.839997 -4.32001,4.319999 -4,4.64 -4,5.280002 -4,5.440003 -3.67999,6.079998 -3.52001,6.240001 -3.36,6.719998 -3.36,7.040001 -3.03999,7.52 -2.88001,7.68 -2.72,8 -2.56,8.48 -2.24,8.64 -2.23999,8.800001 -1.92002,9.119998 L -179.2,40 l -1.6,9.439999 -1.28,9.760002 -1.12,9.920002 -0.8,10.079994 -0.64,10.080002 -0.32001,10.239998 -0.15998,10.240003 v 10.4 l 0.31999,10.4 0.47999,10.40001 0.64002,10.39999 0.95999,10.39999 1.28,10.24001 1.28,10.24 1.6,10.24 1.92,9.91999 1.92,9.92002 2.24,9.59999 2.4,9.6 2.56,9.28 2.88,9.12 3.03999,8.8 3.04001,8.63999 3.36,8.16 3.52001,8 3.67999,7.68002 3.67999,7.35999 4,7.04001 4,6.72 4.16001,6.23999 4.32,5.92001 4.48,5.44 4.48,4.95999 4.48,4.63999 4.64,4.32001 4.8,3.67999 4.8,3.36001 4.799999,2.88001 4.800003,2.39999 4.799996,1.91999 4.959999,1.44 4.960007,0.96002 4.799995,0.47998 h 4.959999 l 4.800003,-0.47998 4.799999,-0.96002 4.8,-1.28 4.639999,-1.91998 4.639999,-2.4 4.640004,-2.88 4.479999,-3.20001 4.32,-3.68 4.32,-4.16 4.159999,-4.64001 4,-5.12 3.84,-5.44 3.84,-5.75998 3.52,-6.24002 3.52,-6.72 3.2,-6.87998 3.2,-7.36001 2.88,-7.68 2.88,-8 2.56,-8.16 2.4,-8.64001"
       style="fill:none;stroke:#000000;stroke-width:26.4;stroke-linecap:round;stroke-linejoin:round;stroke-miterlimit:10;stroke-dasharray:none;stroke-opacity:1"
       transform="translate(407.21335,115.55994)"
       clip-path="url(#clipPath4)" />
    <path
       id="path5"
       d="M 208.48,516 H 586.08002"
       style="fill:none;stroke:#000000;stroke-width:26.4;stroke-linecap:round;stroke-linejoin:round;stroke-miterlimit:10;stroke-dasharray:none;stroke-opacity:1"
       transform="translate(-173.42667,-311.00006)"
       clip-path="url(#clipPath6)" />
    <path
       id="path7"
       d="M 208.48,606.71997 H 586.08002"
       style="fill:none;stroke:#000000;stroke-width:26.4;stroke-linecap:round;stroke-linejoin:round;stroke-miterlimit:10;stroke-dasharray:none;stroke-opacity:1"
       transform="translate(-173.42667,-311.00006)"
       clip-path="url(#clipPath8)" />
  </g>
</svg>
