<?xml version="1.0" encoding="UTF-8" standalone="no"?>
<!-- Created with Inkscape (http://www.inkscape.org/) -->

<svg
   version="1.1"
   id="svg1"
   width="206.77333"
   height="419.13333"
   viewBox="0 0 206.77333 419.13333"
   sodipodi:docname="Pluto3.pdf"
   xmlns:inkscape="http://www.inkscape.org/namespaces/inkscape"
   xmlns:sodipodi="http://sodipodi.sourceforge.net/DTD/sodipodi-0.dtd"
   xmlns="http://www.w3.org/2000/svg"
   xmlns:svg="http://www.w3.org/2000/svg">
  <defs
     id="defs1">
    <clipPath
       clipPathUnits="userSpaceOnUse"
       id="clipPath2">
      <path
         d="M 0,0.16 V 1122.5601 H 793.59998 V 0.16 Z"
         transform="translate(-413.76001,-602.88001)"
         clip-rule="evenodd"
         id="path2" />
    </clipPath>
    <clipPath
       clipPathUnits="userSpaceOnUse"
       id="clipPath4">
      <path
         d="M 0,0.16 V 1122.5601 H 793.59998 V 0.16 Z"
         clip-rule="evenodd"
         id="path4" />
    </clipPath>
    <clipPath
       clipPathUnits="userSpaceOnUse"
       id="clipPath6">
      <path
         d="M 0,0.16 V 1122.5601 H 793.59998 V 0.16 Z"
         clip-rule="evenodd"
         id="path6" />
    </clipPath>
    <clipPath
       clipPathUnits="userSpaceOnUse"
       id="clipPath8">
      <path
         d="M 0,0.16 V 1122.5601 H 793.59998 V 0.16 Z"
         clip-rule="evenodd"
         id="path8" />
    </clipPath>
    <clipPath
       clipPathUnits="userSpaceOnUse"
       id="clipPath10">
      <path
         d="M 0,0.16 V 1122.5601 H 793.59998 V 0.16 Z"
         clip-rule="evenodd"
         id="path10" />
    </clipPath>
  </defs>
  <sodipodi:namedview
     id="namedview1"
     pagecolor="#505050"
     bordercolor="#eeeeee"
     borderopacity="1"
     inkscape:showpageshadow="0"
     inkscape:pageopacity="0"
     inkscape:pagecheckerboard="0"
     inkscape:deskcolor="#505050">
    <inkscape:page
       x="0"
       y="0"
       inkscape:label="1"
       id="page1"
       width="206.77333"
       height="419.13333"
       margin="0"
       bleed="0" />
  </sodipodi:namedview>
  <g
     id="g1"
     inkscape:groupmode="layer"
     inkscape:label="1">
    <path
       id="path1"
       d="m 0,0 6.08,-0.16 6.24,-0.64 6.08,-0.96 5.92,-1.44 5.92,-1.76 5.92,-2.08 5.599998,-2.56 5.440003,-3.04 5.279999,-3.2 4.959999,-3.520001 4.800003,-4 4.479999,-4.159999 4.159996,-4.64 4,-4.639999 3.520005,-5.119999 3.36,-5.280003 2.879997,-5.439998 2.559998,-5.600003 L 89.279999,-64 l 1.919998,-5.919998 1.280006,-5.919998 1.119995,-6.240006 0.480004,-6.080002 0.32,-6.239998 -0.32,-6.079998 -0.480004,-6.24 -1.119995,-6.08 -1.280006,-5.92 -1.919998,-5.92 -2.080002,-5.75999 -2.559998,-5.60001 -2.879997,-5.60001 -3.36,-5.11999 -3.520005,-5.12 -4,-4.8 -4.159996,-4.47999 -4.479999,-4.16001 -4.800003,-4 -4.959999,-3.52 -5.279999,-3.2 -5.440003,-3.03999 -5.599998,-2.56002 -5.92,-2.07998 -5.92,-1.76001 -5.92,-1.44 -6.08,-0.96 -6.24,-0.64 L 0,-188.8"
       style="fill:none;stroke:#000000;stroke-width:26.4;stroke-linecap:round;stroke-linejoin:round;stroke-miterlimit:10;stroke-dasharray:none;stroke-opacity:1"
       transform="translate(94.92001,210.45328)"
       clip-path="url(#clipPath2)" />
    <path
       id="path3"
       d="M 413.76001,414.07999 H 338.23999"
       style="fill:none;stroke:#000000;stroke-width:26.4;stroke-linecap:round;stroke-linejoin:round;stroke-miterlimit:10;stroke-dasharray:none;stroke-opacity:1"
       transform="translate(-318.84,-392.42673)"
       clip-path="url(#clipPath4)" />
    <path
       id="path5"
       d="M 413.76001,602.88 H 338.23999"
       style="fill:none;stroke:#000000;stroke-width:26.4;stroke-linecap:round;stroke-linejoin:round;stroke-miterlimit:10;stroke-dasharray:none;stroke-opacity:1"
       transform="translate(-318.84,-392.42673)"
       clip-path="url(#clipPath6)" />
    <path
       id="path7"
       d="m 338.23999,414.07999 v 377.6"
       style="fill:none;stroke:#000000;stroke-width:26.4;stroke-linecap:round;stroke-linejoin:round;stroke-miterlimit:10;stroke-dasharray:none;stroke-opacity:1"
       transform="translate(-318.84,-392.42673)"
       clip-path="url(#clipPath8)" />
    <path
       id="path9"
       d="M 338.23999,791.67999 H 508.16"
       style="fill:none;stroke:#000000;stroke-width:26.4;stroke-linecap:round;stroke-linejoin:round;stroke-miterlimit:10;stroke-dasharray:none;stroke-opacity:1"
       transform="translate(-318.84,-392.42673)"
       clip-path="url(#clipPath10)" />
  </g>
</svg>
