<?xml version="1.0" encoding="UTF-8" standalone="no"?>
<!-- Created with Inkscape (http://www.inkscape.org/) -->

<svg
   version="1.1"
   id="svg1"
   width="469.58667"
   height="313.67999"
   viewBox="0 0 469.58667 313.67999"
   sodipodi:docname="Quincunx4.pdf"
   xmlns:inkscape="http://www.inkscape.org/namespaces/inkscape"
   xmlns:sodipodi="http://sodipodi.sourceforge.net/DTD/sodipodi-0.dtd"
   xmlns="http://www.w3.org/2000/svg"
   xmlns:svg="http://www.w3.org/2000/svg">
  <defs
     id="defs1">
    <clipPath
       clipPathUnits="userSpaceOnUse"
       id="clipPath2">
      <path
         d="M 0,0.16 V 1122.5601 H 793.59998 V 0.16 Z"
         transform="translate(-427.04001,-516)"
         clip-rule="evenodd"
         id="path2" />
    </clipPath>
    <clipPath
       clipPathUnits="userSpaceOnUse"
       id="clipPath4">
      <path
         d="M 0,0.16 V 1122.5601 H 793.59998 V 0.16 Z"
         transform="translate(-366.72,-667.03998)"
         clip-rule="evenodd"
         id="path4" />
    </clipPath>
    <clipPath
       clipPathUnits="userSpaceOnUse"
       id="clipPath6">
      <path
         d="M 0,0.16 V 1122.5601 H 793.59998 V 0.16 Z"
         transform="translate(-366.72,-667.03998)"
         clip-rule="evenodd"
         id="path6" />
    </clipPath>
    <clipPath
       clipPathUnits="userSpaceOnUse"
       id="clipPath8">
      <path
         d="M 0,0.16 V 1122.5601 H 793.59998 V 0.16 Z"
         transform="translate(3.3333334e-6)"
         clip-rule="evenodd"
         id="path8" />
    </clipPath>
    <clipPath
       clipPathUnits="userSpaceOnUse"
       id="clipPath10">
      <path
         d="M 0,0.16 V 1122.5601 H 793.59998 V 0.16 Z"
         transform="translate(3.3333334e-6)"
         clip-rule="evenodd"
         id="path10" />
    </clipPath>
    <clipPath
       clipPathUnits="userSpaceOnUse"
       id="clipPath12">
      <path
         d="M 0,0.16 V 1122.5601 H 793.59998 V 0.16 Z"
         transform="translate(3.3333334e-6)"
         clip-rule="evenodd"
         id="path12" />
    </clipPath>
  </defs>
  <sodipodi:namedview
     id="namedview1"
     pagecolor="#505050"
     bordercolor="#eeeeee"
     borderopacity="1"
     inkscape:showpageshadow="0"
     inkscape:pageopacity="0"
     inkscape:pagecheckerboard="0"
     inkscape:deskcolor="#505050">
    <inkscape:page
       x="0"
       y="0"
       inkscape:label="1"
       id="page1"
       width="469.58667"
       height="313.67999"
       margin="0"
       bleed="0" />
  </sodipodi:namedview>
  <g
     id="g1"
     inkscape:groupmode="layer"
     inkscape:label="1">
    <path
       id="path1"
       d="M 0,0 C 0,-50.009998 -40.580002,-90.559998 -90.639999,-90.559998 -140.7,-90.559998 -181.28,-50.009998 -181.28,0 c 0,50.009998 40.58,90.559998 90.640001,90.559998 C -40.580002,90.559998 0,50.009998 0,0 Z"
       style="fill:none;stroke:#000000;stroke-width:26.4;stroke-linecap:round;stroke-linejoin:round;stroke-miterlimit:10;stroke-dasharray:none;stroke-opacity:1"
       transform="translate(261.61334,112.89327)"
       clip-path="url(#clipPath2)" />
    <path
       id="path3"
       d="m 0,0 -6.72,-4.64 -6.88,-4.32 -7.039999,-4 -7.200001,-3.52 -7.520001,-3.2 -7.52,-2.72 -7.84,-2.399999 -7.84,-1.92 -7.999997,-1.600001 -8,-0.960001 -8,-0.799999 -8.160003,-0.16 -8,0.16 -8.159999,0.799999 -8,0.960001 -8,1.600001 -7.84,1.92 -7.67999,2.399999 -7.68001,2.72 -7.36,3.2 -7.36,3.52 -7.04,4 -6.88,4.32 -6.56,4.64"
       style="fill:none;stroke:#000000;stroke-width:26.4;stroke-linecap:round;stroke-linejoin:round;stroke-miterlimit:10;stroke-dasharray:none;stroke-opacity:1"
       transform="translate(201.29333,263.93325)"
       clip-path="url(#clipPath4)" />
    <path
       id="path5"
       d="m 0,0 6.56,4.64 6.88,4.32 7.04,4 7.2,3.52 7.520001,3.2 7.52,2.72 7.84,2.399999 7.840001,1.92 8,1.440001 8,1.120001 8,0.639999 8.159996,0.32 8,-0.32 8.160002,-0.639999 8,-1.120001 8,-1.440001 7.84,-1.92 7.68,-2.399999 7.68,-2.72 7.52,-3.2 7.2,-3.52 7.03999,-4 L 174.56,4.64 181.11999,0"
       style="fill:none;stroke:#000000;stroke-width:26.4;stroke-linecap:round;stroke-linejoin:round;stroke-miterlimit:10;stroke-dasharray:none;stroke-opacity:1"
       transform="translate(201.29333,263.93325)"
       clip-path="url(#clipPath6)" />
    <path
       id="path7"
       d="m 185.44,667.03998 85.12,-86.39997"
       style="fill:none;stroke:#000000;stroke-width:26.4;stroke-linecap:round;stroke-linejoin:round;stroke-miterlimit:10;stroke-dasharray:none;stroke-opacity:1"
       transform="translate(-165.42667,-403.10673)"
       clip-path="url(#clipPath8)" />
    <path
       id="path9"
       d="m 427.04001,606.56 181.28,-181.12"
       style="fill:none;stroke:#000000;stroke-width:26.4;stroke-linecap:round;stroke-linejoin:round;stroke-miterlimit:10;stroke-dasharray:none;stroke-opacity:1"
       transform="translate(-165.42667,-403.10673)"
       clip-path="url(#clipPath10)" />
    <path
       id="path11"
       d="m 427.04001,425.44 181.28,181.12"
       style="fill:none;stroke:#000000;stroke-width:26.4;stroke-linecap:round;stroke-linejoin:round;stroke-miterlimit:10;stroke-dasharray:none;stroke-opacity:1"
       transform="translate(-165.42667,-403.10673)"
       clip-path="url(#clipPath12)" />
  </g>
</svg>
