<?xml version="1.0" encoding="UTF-8" standalone="no"?>
<!-- Created with Inkscape (http://www.inkscape.org/) -->

<svg
   version="1.1"
   id="svg1"
   width="236.13333"
   height="133.48"
   viewBox="0 0 236.13333 133.48"
   sodipodi:docname="Regulus2.pdf"
   xmlns:inkscape="http://www.inkscape.org/namespaces/inkscape"
   xmlns:sodipodi="http://sodipodi.sourceforge.net/DTD/sodipodi-0.dtd"
   xmlns="http://www.w3.org/2000/svg"
   xmlns:svg="http://www.w3.org/2000/svg">
  <defs
     id="defs1">
    <clipPath
       clipPathUnits="userSpaceOnUse"
       id="clipPath2">
      <path
         d="M 0,0.16 V 1122.5601 H 793.59998 V 0.16 Z"
         transform="translate(-415.67999,-580.15997)"
         clip-rule="evenodd"
         id="path2" />
    </clipPath>
    <clipPath
       clipPathUnits="userSpaceOnUse"
       id="clipPath4">
      <path
         d="M 0,0.16 V 1122.5601 H 793.59998 V 0.16 Z"
         transform="translate(-491.20001,-599.03998)"
         clip-rule="evenodd"
         id="path4" />
    </clipPath>
  </defs>
  <sodipodi:namedview
     id="namedview1"
     pagecolor="#505050"
     bordercolor="#eeeeee"
     borderopacity="1"
     inkscape:showpageshadow="0"
     inkscape:pageopacity="0"
     inkscape:pagecheckerboard="0"
     inkscape:deskcolor="#505050">
    <inkscape:page
       x="0"
       y="0"
       inkscape:label="1"
       id="page1"
       width="236.13333"
       height="133.48"
       margin="0"
       bleed="0" />
  </sodipodi:namedview>
  <g
     id="g1"
     inkscape:groupmode="layer"
     inkscape:label="1">
    <path
       id="path1"
       d="m 0,0 c 0,-10.42 -8.45,-18.879999 -18.879999,-18.879999 -10.43,0 -18.879999,8.459999 -18.879999,18.879999 0,10.42 8.449999,18.879999 18.879999,18.879999 C -8.45,18.879999 0,10.42 0,0 Z"
       style="fill:none;stroke:#000000;stroke-width:26.4;stroke-linecap:round;stroke-linejoin:round;stroke-miterlimit:10;stroke-dasharray:none;stroke-opacity:1"
       transform="translate(415.67999,597.50658)"
       clip-path="url(#clipPath2)" />
    <path
       id="path3"
       d="m 0,0 -0.16,-6.08 -0.64,-6.24 -0.96,-6.08 -1.44,-6.08 -1.76,-5.92 -2.24,-5.76 -2.56,-5.599998 -2.88,-5.440003 -3.2,-5.279999 -3.68,-4.959999 -3.840001,-4.800003 -4.319999,-4.479999 -4.48,-4.159996 -4.799999,-4 -4.959999,-3.520005 -5.280003,-3.36 -5.439998,-2.879997 -5.600003,-2.559998 L -64,-89.440002 -69.919998,-91.199997 -76,-92.639999 l -6.080002,-0.959999 -6.080002,-0.64 -6.239998,-0.160004 -6.079998,0.160004 -6.24,0.64 -6.08,0.959999 -5.92,1.440002 -5.92,1.759995 -5.75999,2.240005 -5.76001,2.559998 -5.44001,2.879997 -5.11999,3.36 -5.12,3.520005 -4.8,4 -4.47999,4.159996 -4.16001,4.479999 -4,4.800003 -3.52,4.959999 -3.36,5.279999 -2.87999,5.440003 -2.56002,5.599998 -2.07998,5.76 -1.92002,5.92 -1.27999,6.08 -1.12,6.08 -0.48,6.24 -0.32,6.08"
       style="fill:none;stroke:#000000;stroke-width:26.4;stroke-linecap:round;stroke-linejoin:round;stroke-miterlimit:10;stroke-dasharray:none;stroke-opacity:1"
       transform="translate(491.20001,616.38659)"
       clip-path="url(#clipPath4)" />
  </g>
</svg>
