<?xml version="1.0" encoding="UTF-8" standalone="no"?>
<!-- Created with Inkscape (http://www.inkscape.org/) -->

<svg
   version="1.1"
   id="svg1"
   width="289.49332"
   height="445.82666"
   viewBox="0 0 289.49332 445.82666"
   sodipodi:docname="Retrograde3.pdf"
   xmlns:inkscape="http://www.inkscape.org/namespaces/inkscape"
   xmlns:sodipodi="http://sodipodi.sourceforge.net/DTD/sodipodi-0.dtd"
   xmlns="http://www.w3.org/2000/svg"
   xmlns:svg="http://www.w3.org/2000/svg">
  <defs
     id="defs1">
    <clipPath
       clipPathUnits="userSpaceOnUse"
       id="clipPath2">
      <path
         d="M 0,0.16 V 1122.5601 H 793.59998 V 0.16 Z"
         transform="translate(-3.3333333e-6)"
         clip-rule="evenodd"
         id="path2" />
    </clipPath>
    <clipPath
       clipPathUnits="userSpaceOnUse"
       id="clipPath4">
      <path
         d="M 0,0.16 V 1122.5601 H 793.59998 V 0.16 Z"
         transform="translate(-333.76001,-635.52002)"
         clip-rule="evenodd"
         id="path4" />
    </clipPath>
    <clipPath
       clipPathUnits="userSpaceOnUse"
       id="clipPath6">
      <path
         d="M 0,0.16 V 1122.5601 H 793.59998 V 0.16 Z"
         transform="translate(-3.3333333e-6)"
         clip-rule="evenodd"
         id="path6" />
    </clipPath>
    <clipPath
       clipPathUnits="userSpaceOnUse"
       id="clipPath8">
      <path
         d="M 0,0.16 V 1122.5601 H 793.59998 V 0.16 Z"
         transform="translate(-3.3333333e-6)"
         clip-rule="evenodd"
         id="path8" />
    </clipPath>
    <clipPath
       clipPathUnits="userSpaceOnUse"
       id="clipPath10">
      <path
         d="M 0,0.16 V 1122.5601 H 793.59998 V 0.16 Z"
         transform="translate(-419.04001,-738.23999)"
         clip-rule="evenodd"
         id="path10" />
    </clipPath>
    <clipPath
       clipPathUnits="userSpaceOnUse"
       id="clipPath12">
      <path
         d="M 0,0.16 V 1122.5601 H 793.59998 V 0.16 Z"
         transform="translate(-420.95999,-745.91998)"
         clip-rule="evenodd"
         id="path12" />
    </clipPath>
    <clipPath
       clipPathUnits="userSpaceOnUse"
       id="clipPath14">
      <path
         d="M 0,0.16 V 1122.5601 H 793.59998 V 0.16 Z"
         transform="translate(-3.3333333e-6)"
         clip-rule="evenodd"
         id="path14" />
    </clipPath>
  </defs>
  <sodipodi:namedview
     id="namedview1"
     pagecolor="#505050"
     bordercolor="#eeeeee"
     borderopacity="1"
     inkscape:showpageshadow="0"
     inkscape:pageopacity="0"
     inkscape:pagecheckerboard="0"
     inkscape:deskcolor="#505050">
    <inkscape:page
       x="0"
       y="0"
       inkscape:label="1"
       id="page1"
       width="289.49332"
       height="445.82666"
       margin="0"
       bleed="0" />
  </sodipodi:namedview>
  <g
     id="g1"
     inkscape:groupmode="layer"
     inkscape:label="1">
    <path
       id="path1"
       d="M 269.60001,443.04001 V 828.15997"
       style="fill:none;stroke:#000000;stroke-width:26.4;stroke-linecap:round;stroke-linejoin:round;stroke-miterlimit:10;stroke-dasharray:none;stroke-opacity:1"
       transform="translate(-233.45333,-415.12006)"
       clip-path="url(#clipPath2)" />
    <path
       id="path3"
       d="m 0,0 6.4,-0.16 6.24,-0.64 6.239999,-0.96 6.08,-1.44 6.080002,-1.92 5.919998,-2.08 5.760002,-2.72 5.439999,-2.88 5.439998,-3.36 5.120003,-3.68 4.799999,-4 4.640004,-4.32 4.319999,-4.639999 4,-4.799999 3.680001,-5.120003 3.359993,-5.439999 2.880005,-5.439998 2.559997,-5.760003 2.239998,-5.919998 1.920006,-6.080002 1.439995,-6.080001 0.959999,-6.239998 0.640007,-6.239998 0.159996,-6.240006 -0.159996,-6.399996 -0.640007,-6.24 -0.959999,-6.24 -1.439995,-6.08 -1.920006,-6.08 -2.239998,-5.91999 -2.559997,-5.76001 -2.880005,-5.44001 -3.359993,-5.43998 -3.680001,-5.12001 -4,-4.79999 -4.319999,-4.64002 L 63.52,-168.64 l -4.799999,-4 -5.120003,-3.68001 -5.439998,-3.35998 -5.439999,-2.88001 -5.760002,-2.55999 -5.919998,-2.24001 -6.080002,-1.92 -6.08,-1.44 L 12.64,-191.67999 6.4,-192.32001 0,-192.64"
       style="fill:none;stroke:#000000;stroke-width:26.4;stroke-linecap:round;stroke-linejoin:round;stroke-miterlimit:10;stroke-dasharray:none;stroke-opacity:1"
       transform="translate(100.30668,220.39996)"
       clip-path="url(#clipPath4)" />
    <path
       id="path5"
       d="m 269.60001,443.04001 h 64.16"
       style="fill:none;stroke:#000000;stroke-width:26.4;stroke-linecap:round;stroke-linejoin:round;stroke-miterlimit:10;stroke-dasharray:none;stroke-opacity:1"
       transform="translate(-233.45333,-415.12006)"
       clip-path="url(#clipPath6)" />
    <path
       id="path7"
       d="m 269.60001,635.52002 h 64.16"
       style="fill:none;stroke:#000000;stroke-width:26.4;stroke-linecap:round;stroke-linejoin:round;stroke-miterlimit:10;stroke-dasharray:none;stroke-opacity:1"
       transform="translate(-233.45333,-415.12006)"
       clip-path="url(#clipPath8)" />
    <path
       id="path9"
       d="m 0,0 -1.92,-8.16 -2.56,-8.32 -3.04,-8 -3.36,-7.84 -3.84,-7.68 -4.320001,-7.360001 -4.639999,-7.2 -5.119999,-6.879998 -5.440003,-6.720005 L -40,-74.400002 -46.240002,-80.32 l -6.399997,-5.599998 -6.720002,-5.279999 -7.040001,-4.960007 -7.36,-4.479996 -7.68,-4.16"
       style="fill:none;stroke:#000000;stroke-width:26.4;stroke-linecap:round;stroke-linejoin:round;stroke-miterlimit:10;stroke-dasharray:none;stroke-opacity:1"
       transform="translate(185.58668,323.11993)"
       clip-path="url(#clipPath10)" />
    <path
       id="path11"
       d="m 0,0 v 5.76 l 0.16,5.28 0.16,5.12 0.48,4.960001 0.48,4.479999 0.8,4.32 0.8,3.999998 0.96,3.520001 1.28,3.2 L 6.4,43.68 7.68,46.080002 9.28,48.32 l 1.76,1.599998 1.76,1.440003 1.92,0.799999 1.919999,0.479999 2.08,0.16 2.08,-0.319999 2.240002,-0.8 2.4,-1.279998 2.239999,-1.440003 2.4,-2.079998 2.4,-2.400001 2.400001,-2.720002 2.559998,-3.199997 2.400001,-3.36 2.400002,-3.84 2.399997,-4.16 2.400002,-4.480002 L 49.439999,17.92 51.68,12.8 53.919998,7.52 56.16,2.08 58.240002,-3.68 60.32,-9.44 62.240002,-15.52 64,-21.76 65.599998,-28 l 1.599999,-6.400002 1.440002,-6.399997 1.440003,-6.400002 1.119995,-6.399997 L 72.160004,-60 l 0.959999,-6.239998 0.799995,-6.240005 0.480004,-6.079995 0.479995,-6.080001 0.32,-5.760003 V -96 v -5.44 l -0.159996,-5.12 -0.480003,-4.96 -0.479996,-4.64 -0.64,-4.32 -0.800003,-4 -0.959999,-3.68 -1.120002,-3.36 -1.279999,-3.04 -1.440003,-2.55999 -1.439994,-2.24001 -1.760003,-1.75999 -1.759998,-1.44001 -1.760002,-0.96 -2.079998,-0.64 -1.920002,-0.16001 -2.239998,0.32001 -2.240002,0.64 -2.239997,1.12 -2.240002,1.44 -2.400002,1.92 -2.399997,2.4 -2.560002,2.56 -2.399997,3.04 -2.400002,3.52 -2.400002,3.68 -2.559997,4.16 -2.400002,4.32 -2.239999,4.8 -2.4,4.96 -2.24,5.28 -2.08,5.439999 -2.239999,5.599998 -1.920001,5.920006 -1.92,5.919998 -1.92,6.080002"
       style="fill:none;stroke:#000000;stroke-width:26.4;stroke-linecap:round;stroke-linejoin:round;stroke-miterlimit:10;stroke-dasharray:none;stroke-opacity:1"
       transform="translate(187.50666,330.79992)"
       clip-path="url(#clipPath12)" />
    <path
       id="path13"
       d="m 432.64001,674.88 -48.32,160.96003"
       style="fill:none;stroke:#000000;stroke-width:26.4;stroke-linecap:round;stroke-linejoin:round;stroke-miterlimit:10;stroke-dasharray:none;stroke-opacity:1"
       transform="translate(-233.45333,-415.12006)"
       clip-path="url(#clipPath14)" />
  </g>
</svg>
