<?xml version="1.0" encoding="UTF-8" standalone="no"?>
<!-- Created with Inkscape (http://www.inkscape.org/) -->

<svg
   version="1.1"
   id="svg1"
   width="432.22668"
   height="512.56"
   viewBox="0 0 432.22668 512.56"
   sodipodi:docname="Retrograde2.pdf"
   xmlns:inkscape="http://www.inkscape.org/namespaces/inkscape"
   xmlns:sodipodi="http://sodipodi.sourceforge.net/DTD/sodipodi-0.dtd"
   xmlns="http://www.w3.org/2000/svg"
   xmlns:svg="http://www.w3.org/2000/svg">
  <defs
     id="defs1">
    <clipPath
       clipPathUnits="userSpaceOnUse"
       id="clipPath2">
      <path
         d="M 0,0.16 V 1122.5601 H 793.59998 V 0.16 Z"
         transform="translate(-481.60001,-769.52002)"
         clip-rule="evenodd"
         id="path2" />
    </clipPath>
    <clipPath
       clipPathUnits="userSpaceOnUse"
       id="clipPath4">
      <path
         d="M 0,0.16 V 1122.5601 H 793.59998 V 0.16 Z"
         clip-rule="evenodd"
         id="path4" />
    </clipPath>
    <clipPath
       clipPathUnits="userSpaceOnUse"
       id="clipPath6">
      <path
         d="M 0,0.16 V 1122.5601 H 793.59998 V 0.16 Z"
         transform="translate(-256.79999,-608.96002)"
         clip-rule="evenodd"
         id="path6" />
    </clipPath>
    <clipPath
       clipPathUnits="userSpaceOnUse"
       id="clipPath8">
      <path
         d="M 0,0.16 V 1122.5601 H 793.59998 V 0.16 Z"
         clip-rule="evenodd"
         id="path8" />
    </clipPath>
    <clipPath
       clipPathUnits="userSpaceOnUse"
       id="clipPath10">
      <path
         d="M 0,0.16 V 1122.5601 H 793.59998 V 0.16 Z"
         clip-rule="evenodd"
         id="path10" />
    </clipPath>
    <clipPath
       clipPathUnits="userSpaceOnUse"
       id="clipPath12">
      <path
         d="M 0,0.16 V 1122.5601 H 793.59998 V 0.16 Z"
         transform="translate(-256.79999,-608.96002)"
         clip-rule="evenodd"
         id="path12" />
    </clipPath>
    <clipPath
       clipPathUnits="userSpaceOnUse"
       id="clipPath14">
      <path
         d="M 0,0.16 V 1122.5601 H 793.59998 V 0.16 Z"
         clip-rule="evenodd"
         id="path14" />
    </clipPath>
    <clipPath
       clipPathUnits="userSpaceOnUse"
       id="clipPath16">
      <path
         d="M 0,0.16 V 1122.5601 H 793.59998 V 0.16 Z"
         clip-rule="evenodd"
         id="path16" />
    </clipPath>
    <clipPath
       clipPathUnits="userSpaceOnUse"
       id="clipPath18">
      <path
         d="M 0,0.16 V 1122.5601 H 793.59998 V 0.16 Z"
         clip-rule="evenodd"
         id="path18" />
    </clipPath>
  </defs>
  <sodipodi:namedview
     id="namedview1"
     pagecolor="#505050"
     bordercolor="#eeeeee"
     borderopacity="1"
     inkscape:showpageshadow="0"
     inkscape:pageopacity="0"
     inkscape:pagecheckerboard="0"
     inkscape:deskcolor="#505050">
    <inkscape:page
       x="0"
       y="0"
       inkscape:label="1"
       id="page1"
       width="432.22668"
       height="512.56"
       margin="0"
       bleed="0" />
  </sodipodi:namedview>
  <g
     id="g1"
     inkscape:groupmode="layer"
     inkscape:label="1">
    <path
       id="path1"
       d="m 0,0 c 0,-17.709999 -14.39,-32.080002 -32.16,-32.080002 -17.77,0 -32.16,14.370003 -32.16,32.080002 0,17.709999 14.39,32.080002 32.16,32.080002 C -14.39,32.080002 0,17.709999 0,0 Z"
       style="fill:none;stroke:#000000;stroke-width:26.4;stroke-linecap:round;stroke-linejoin:round;stroke-miterlimit:10;stroke-dasharray:none;stroke-opacity:1"
       transform="translate(481.60001,624.02663)"
       clip-path="url(#clipPath2)" />
    <path
       id="path3"
       d="M 192.64,416.48001 V 801.59998"
       style="fill:none;stroke:#000000;stroke-width:26.4;stroke-linecap:round;stroke-linejoin:round;stroke-miterlimit:10;stroke-dasharray:none;stroke-opacity:1"
       transform="translate(0,-145.49339)"
       clip-path="url(#clipPath4)" />
    <path
       id="path5"
       d="m 0,0 h 6.4 l 6.24,-0.64 6.239999,-1.12 6.08,-1.44 6.080002,-1.76 5.919998,-2.24 5.760002,-2.56 5.439999,-3.04 5.439998,-3.2 5.120003,-3.68 4.799999,-4 4.640004,-4.32 4.319999,-4.639999 4,-4.959999 3.680001,-5.120003 L 83.519997,-48 l 2.880005,-5.599998 2.559997,-5.760003 2.239998,-5.760002 1.920006,-6.079994 1.439995,-6.080002 0.959999,-6.239998 0.640007,-6.240005 L 96.32,-96.160004 96.160004,-102.4 l -0.640007,-6.24 -0.959999,-6.24 -1.439995,-6.24 -1.920006,-5.92 -2.239998,-5.92001 -2.559997,-5.75999 -2.880005,-5.60001 -3.359993,-5.28 -3.680001,-5.11999 -4,-4.95999 -4.319999,-4.48001 -4.640004,-4.32 -4.799999,-4 -5.120003,-3.68 -5.439998,-3.36 -5.439999,-3.04 -5.760002,-2.55999 -5.919998,-2.24001 -6.080002,-1.75999 -6.08,-1.44001 L 12.64,-191.52 6.4,-192.16 0,-192.48"
       style="fill:none;stroke:#000000;stroke-width:26.4;stroke-linecap:round;stroke-linejoin:round;stroke-miterlimit:10;stroke-dasharray:none;stroke-opacity:1"
       transform="translate(256.79999,463.46663)"
       clip-path="url(#clipPath6)" />
    <path
       id="path7"
       d="m 192.64,416.48001 h 64.15999"
       style="fill:none;stroke:#000000;stroke-width:26.4;stroke-linecap:round;stroke-linejoin:round;stroke-miterlimit:10;stroke-dasharray:none;stroke-opacity:1"
       transform="translate(0,-145.49339)"
       clip-path="url(#clipPath8)" />
    <path
       id="path9"
       d="m 192.64,609.12 h 64.15999"
       style="fill:none;stroke:#000000;stroke-width:26.4;stroke-linecap:round;stroke-linejoin:round;stroke-miterlimit:10;stroke-dasharray:none;stroke-opacity:1"
       transform="translate(0,-145.49339)"
       clip-path="url(#clipPath10)" />
    <path
       id="path11"
       d="M 0,0 1.76,10.4 4,20.639999 l 2.56,10.08 3.2,9.92 3.52,9.920002 L 17.280001,60.16 21.76,69.599998 26.559999,78.720001 31.84,87.68 37.599998,96.480003 43.68,104.96 l 6.560002,8.16 6.879997,7.84 7.200001,7.52 7.519996,7.19999 L 79.68,142.56 87.839996,149.11999 96.32,155.2 l 8.64,5.6 9.12,5.28 9.12,4.95999 9.44,4.48001 9.6,4 9.92,3.51999 9.92,3.20001 10.08,2.56 10.23999,2.23999 L 192.48,192.64"
       style="fill:none;stroke:#000000;stroke-width:26.4;stroke-linecap:round;stroke-linejoin:round;stroke-miterlimit:10;stroke-dasharray:none;stroke-opacity:1"
       transform="translate(256.79999,463.46663)"
       clip-path="url(#clipPath12)" />
    <path
       id="path13"
       d="M 572,602.23999 299.20001,425.60001"
       style="fill:none;stroke:#000000;stroke-width:26.4;stroke-linecap:round;stroke-linejoin:round;stroke-miterlimit:10;stroke-dasharray:none;stroke-opacity:1"
       transform="translate(0,-145.49339)"
       clip-path="url(#clipPath14)" />
    <path
       id="path15"
       d="m 377.28,862.71997 50.56,-67.19995"
       style="fill:none;stroke:#000000;stroke-width:26.4;stroke-linecap:round;stroke-linejoin:round;stroke-miterlimit:10;stroke-dasharray:none;stroke-opacity:1"
       transform="translate(0,-145.49339)"
       clip-path="url(#clipPath16)" />
    <path
       id="path17"
       d="M 467.51999,741.28003 572,602.23999"
       style="fill:none;stroke:#000000;stroke-width:26.4;stroke-linecap:round;stroke-linejoin:round;stroke-miterlimit:10;stroke-dasharray:none;stroke-opacity:1"
       transform="translate(0,-145.49339)"
       clip-path="url(#clipPath18)" />
  </g>
</svg>
