<?xml version="1.0" encoding="UTF-8" standalone="no"?>
<!-- Created with Inkscape (http://www.inkscape.org/) -->

<svg
   version="1.1"
   id="svg1"
   width="493.60001"
   height="492.53333"
   viewBox="0 0 493.60001 492.53333"
   sodipodi:docname="Sagittarius19.pdf"
   xmlns:inkscape="http://www.inkscape.org/namespaces/inkscape"
   xmlns:sodipodi="http://sodipodi.sourceforge.net/DTD/sodipodi-0.dtd"
   xmlns="http://www.w3.org/2000/svg"
   xmlns:svg="http://www.w3.org/2000/svg">
  <defs
     id="defs1">
    <clipPath
       clipPathUnits="userSpaceOnUse"
       id="clipPath2">
      <path
         d="M 0,0.16 V 1122.5601 H 793.59998 V 0.16 Z"
         clip-rule="evenodd"
         id="path2" />
    </clipPath>
    <clipPath
       clipPathUnits="userSpaceOnUse"
       id="clipPath4">
      <path
         d="M 0,0.16 V 1122.5601 H 793.59998 V 0.16 Z"
         transform="translate(-377.44,-579.84003)"
         clip-rule="evenodd"
         id="path4" />
    </clipPath>
    <clipPath
       clipPathUnits="userSpaceOnUse"
       id="clipPath6">
      <path
         d="M 0,0.16 V 1122.5601 H 793.59998 V 0.16 Z"
         transform="translate(-194.72,-555.67999)"
         clip-rule="evenodd"
         id="path6" />
    </clipPath>
    <clipPath
       clipPathUnits="userSpaceOnUse"
       id="clipPath8">
      <path
         d="M 0,0.16 V 1122.5601 H 793.59998 V 0.16 Z"
         transform="translate(-275.51999,-681.12)"
         clip-rule="evenodd"
         id="path8" />
    </clipPath>
    <clipPath
       clipPathUnits="userSpaceOnUse"
       id="clipPath10">
      <path
         d="M 0,0.16 V 1122.5601 H 793.59998 V 0.16 Z"
         transform="translate(-276.32001,-681.76001)"
         clip-rule="evenodd"
         id="path10" />
    </clipPath>
    <clipPath
       clipPathUnits="userSpaceOnUse"
       id="clipPath12">
      <path
         d="M 0,0.16 V 1122.5601 H 793.59998 V 0.16 Z"
         clip-rule="evenodd"
         id="path12" />
    </clipPath>
    <clipPath
       clipPathUnits="userSpaceOnUse"
       id="clipPath14">
      <path
         d="M 0,0.16 V 1122.5601 H 793.59998 V 0.16 Z"
         transform="translate(-485.76001,-321.28)"
         clip-rule="evenodd"
         id="path14" />
    </clipPath>
    <clipPath
       clipPathUnits="userSpaceOnUse"
       id="clipPath16">
      <path
         d="M 0,0.16 V 1122.5601 H 793.59998 V 0.16 Z"
         transform="translate(-561.28003,-396.79999)"
         clip-rule="evenodd"
         id="path16" />
    </clipPath>
  </defs>
  <sodipodi:namedview
     id="namedview1"
     pagecolor="#505050"
     bordercolor="#eeeeee"
     borderopacity="1"
     inkscape:showpageshadow="0"
     inkscape:pageopacity="0"
     inkscape:pagecheckerboard="0"
     inkscape:deskcolor="#505050">
    <inkscape:page
       x="0"
       y="0"
       inkscape:label="1"
       id="page1"
       width="493.60001"
       height="492.53333"
       margin="0"
       bleed="0" />
  </sodipodi:namedview>
  <g
     id="g1"
     inkscape:groupmode="layer"
     inkscape:label="1">
    <path
       id="path1"
       d="M 251.52,706.71997 629.12,329.12"
       style="fill:none;stroke:#000000;stroke-width:26.4;stroke-linecap:round;stroke-linejoin:round;stroke-miterlimit:10;stroke-dasharray:none;stroke-opacity:1"
       transform="translate(-166.76,-299.00006)"
       clip-path="url(#clipPath2)" />
    <path
       id="path3"
       d="m 0,0 -1.6,-5.92 -1.76,-5.76 -2.08,-5.600001 -2.08,-5.279998 -2.24,-4.960001 -2.56,-4.8 -2.56,-4.479999 -2.72,-4.16 -2.88,-3.68 L -23.360001,-48.16 -26.4,-51.200001 -29.6,-53.919998 -32.799999,-56.16 -36,-58.080002 -39.360001,-59.68 l -3.36,-1.119999 -3.360001,-0.799999 -3.519996,-0.32 -3.360001,0.16 -3.360001,0.479999 -3.36,0.959999 -3.360001,1.279999 -3.360001,1.760002 -3.199996,2.079998 -3.200005,2.560002 -3.039993,2.880001 -3.040001,3.199997 -2.880005,3.68 -2.879997,4 -2.559998,4.16 -2.560005,4.640001 -2.400002,4.959999 -2.239998,5.120001 -2.080001,5.44 -1.919999,5.6 -1.759998,5.92 -1.44,6.08 -1.44,6.24 -1.12,6.4 -0.96,6.56 -0.8,6.719999 -0.64,6.720001 -0.32,6.720002 -0.16,6.879997 V 56.16 l 0.32,6.720001 0.48,6.880001 0.64,6.559998 0.8,6.720001 1.12,6.400001 1.12,6.399994 1.44,6.080004"
       style="fill:none;stroke:#000000;stroke-width:26.4;stroke-linecap:round;stroke-linejoin:round;stroke-miterlimit:10;stroke-dasharray:none;stroke-opacity:1"
       transform="translate(210.68,280.83997)"
       clip-path="url(#clipPath4)" />
    <path
       id="path5"
       d="m 0,0 0.16,7.68 0.32,7.68 0.8,7.680001 1.28,7.519998 1.76,7.520003 2.08,7.359997 2.72,7.2 L 12,59.68 l 3.36,6.879998 3.840001,6.720001 4.16,6.400001 4.479999,6.239998 4.959999,5.919998 5.280003,5.600006 L 43.52,102.72 l 5.919999,4.96 6.080001,4.64 6.399998,4.32 6.560005,3.84 6.879998,3.52 6.879997,2.88"
       style="fill:none;stroke:#000000;stroke-width:26.4;stroke-linecap:round;stroke-linejoin:round;stroke-miterlimit:10;stroke-dasharray:none;stroke-opacity:1"
       transform="translate(27.960001,256.67993)"
       clip-path="url(#clipPath6)" />
    <path
       id="path7"
       d="m 0,0 3.2,7.04 3.36,6.88 4,6.56 4.16,6.399999 4.640001,6.08 L 24.32,38.880001 29.6,44.32 l 5.760001,5.279998 5.759998,4.960003 6.240002,4.48 6.399997,4.16 6.720002,3.84 6.880001,3.360001 7.040001,3.04 L 81.599998,76 l 7.360001,2.080002 7.520004,1.759994 7.519997,1.280007 7.68,0.799995 7.68,0.480004 7.52,-0.160004"
       style="fill:none;stroke:#000000;stroke-width:26.4;stroke-linecap:round;stroke-linejoin:round;stroke-miterlimit:10;stroke-dasharray:none;stroke-opacity:1"
       transform="translate(108.75999,382.11994)"
       clip-path="url(#clipPath8)" />
    <path
       id="path9"
       d="m 0,0 6.24,1.6 6.4,1.28 6.400001,0.96 6.719999,0.96 6.72,0.64 6.720001,0.32 6.719997,0.32 h 6.880001 L 59.68,5.92 66.400002,5.6 73.120003,4.96 79.839996,4.16 86.400002,3.2 92.800003,2.08 99.040001,0.64 105.12,-0.8 l 5.92,-1.76 5.6,-1.92 5.44,-2.08 5.12,-2.24 4.96,-2.4 4.64,-2.56 4.16001,-2.56 4,-2.880001 3.67999,-2.879999 3.2,-2.879999 2.88,-3.200001 2.56,-3.200001 2.08,-3.2 1.75999,-3.359997 1.28,-3.200001 0.96001,-3.52 0.48,-3.360001 0.16,-3.360001 -0.32001,-3.52 -0.79999,-3.360001 -1.12001,-3.359996 -1.43998,-3.360001 -1.92002,-3.200005 -2.39999,-3.199997 -2.72,-3.199997 -3.04,-3.04 -3.52,-2.880005 -3.68001,-2.879998 -4.15999,-2.720001 -4.48001,-2.559997 -4.79998,-2.400002 -4.96001,-2.400001 -5.28,-2.079995 -5.6,-2.080001 -5.76,-1.760003 -6.08,-1.759999"
       style="fill:none;stroke:#000000;stroke-width:26.4;stroke-linecap:round;stroke-linejoin:round;stroke-miterlimit:10;stroke-dasharray:none;stroke-opacity:1"
       transform="translate(109.56001,382.75995)"
       clip-path="url(#clipPath10)" />
    <path
       id="path11"
       d="M 378.07999,429.12 529.12,580.15997"
       style="fill:none;stroke:#000000;stroke-width:26.4;stroke-linecap:round;stroke-linejoin:round;stroke-miterlimit:10;stroke-dasharray:none;stroke-opacity:1"
       transform="translate(-166.76,-299.00006)"
       clip-path="url(#clipPath12)" />
    <path
       id="path13"
       d="m 0,0 -2.88,3.36 -2.72,3.52 -2.4,3.68 -2.08,3.84 -1.76,4 -1.44,4.159999 -1.12,4.32 -0.64,4.320002 L -15.52,35.68 V 40 l 0.48,4.48 0.64,4.319999 1.12,4.32 1.44,4.16 1.76,4 2.08,3.840004 2.4,3.68 2.72,3.519997 3.04,3.199997 3.2,3.040001 3.52,2.720001 3.68,2.400001 3.84,2.080002 4,1.759995 4.159999,1.440002 4.32,1.120003 4.320002,0.799995 4.479999,0.32 H 40 l 4.48,-0.32 4.319999,-0.799995 4.32,-1.120003 4.16,-1.440002 4,-1.759995 4,-2.080002 3.68,-2.400001 3.360001,-2.720001 3.199997,-3.040001"
       style="fill:none;stroke:#000000;stroke-width:26.4;stroke-linecap:round;stroke-linejoin:round;stroke-miterlimit:10;stroke-dasharray:none;stroke-opacity:1"
       transform="translate(319.00001,22.27994)"
       clip-path="url(#clipPath14)" />
    <path
       id="path15"
       d="m 0,0 -2.88,3.36 -2.72,3.52 -2.4,3.68 -2.08,3.84 -1.76,4 -1.44,4.159999 -1.12,4.32 -0.8,4.320002 L -15.52,35.68 V 40 l 0.32,4.48 0.8,4.319999 1.12,4.32 1.44,4.16 1.76,4 2.08,3.840004 2.4,3.68 2.72,3.519997 3.04,3.199997 3.2,3.040001 3.52,2.720001 3.68,2.400001 3.84,2.080002 4,1.759995 4.159999,1.440002 4.32,1.120003 4.320002,0.799995 4.479999,0.32 H 40 l 4.48,-0.32 4.319999,-0.799995 4.32,-1.120003 4.16,-1.440002 4,-1.759995 L 65.120003,83.68 68.959999,81.279999 72.32,78.559998 75.519997,75.519997"
       style="fill:none;stroke:#000000;stroke-width:26.4;stroke-linecap:round;stroke-linejoin:round;stroke-miterlimit:10;stroke-dasharray:none;stroke-opacity:1"
       transform="translate(394.52003,97.799929)"
       clip-path="url(#clipPath16)" />
  </g>
</svg>
