<?xml version="1.0" encoding="UTF-8" standalone="no"?>
<!-- Created with Inkscape (http://www.inkscape.org/) -->

<svg
   version="1.1"
   id="svg1"
   width="350.85333"
   height="509.89334"
   viewBox="0 0 350.85333 509.89334"
   sodipodi:docname="Sagittarius12.pdf"
   xmlns:inkscape="http://www.inkscape.org/namespaces/inkscape"
   xmlns:sodipodi="http://sodipodi.sourceforge.net/DTD/sodipodi-0.dtd"
   xmlns="http://www.w3.org/2000/svg"
   xmlns:svg="http://www.w3.org/2000/svg">
  <defs
     id="defs1">
    <clipPath
       clipPathUnits="userSpaceOnUse"
       id="clipPath2">
      <path
         d="M 0,0.16 V 1122.5601 H 793.59998 V 0.16 Z"
         transform="translate(-472.32001,-410.23999)"
         clip-rule="evenodd"
         id="path2" />
    </clipPath>
    <clipPath
       clipPathUnits="userSpaceOnUse"
       id="clipPath4">
      <path
         d="M 0,0.16 V 1122.5601 H 793.59998 V 0.16 Z"
         clip-rule="evenodd"
         id="path4" />
    </clipPath>
    <clipPath
       clipPathUnits="userSpaceOnUse"
       id="clipPath6">
      <path
         d="M 0,0.16 V 1122.5601 H 793.59998 V 0.16 Z"
         transform="translate(-396.79999,-636.79999)"
         clip-rule="evenodd"
         id="path6" />
    </clipPath>
    <clipPath
       clipPathUnits="userSpaceOnUse"
       id="clipPath8">
      <path
         d="M 0,0.16 V 1122.5601 H 793.59998 V 0.16 Z"
         transform="translate(-511.67999,-701.12)"
         clip-rule="evenodd"
         id="path8" />
    </clipPath>
  </defs>
  <sodipodi:namedview
     id="namedview1"
     pagecolor="#505050"
     bordercolor="#eeeeee"
     borderopacity="1"
     inkscape:showpageshadow="0"
     inkscape:pageopacity="0"
     inkscape:pagecheckerboard="0"
     inkscape:deskcolor="#505050">
    <inkscape:page
       x="0"
       y="0"
       inkscape:label="1"
       id="page1"
       width="350.85333"
       height="509.89334"
       margin="0"
       bleed="0" />
  </sodipodi:namedview>
  <g
     id="g1"
     inkscape:groupmode="layer"
     inkscape:label="1">
    <path
       id="path1"
       d="m 0,0 c 0,-41.700001 -33.810001,-75.519997 -75.519997,-75.519997 -41.710003,0 -75.519993,33.819996 -75.519993,75.519997 0,41.700001 33.80999,75.519997 75.519993,75.519997 C -33.810001,75.519997 0,41.700001 0,0 Z"
       style="fill:none;stroke:#000000;stroke-width:26.4;stroke-linecap:round;stroke-linejoin:round;stroke-miterlimit:10;stroke-dasharray:none;stroke-opacity:1"
       transform="translate(472.32001,403.57326)"
       clip-path="url(#clipPath2)" />
    <path
       id="path3"
       d="M 396.79999,334.72 V 787.84003"
       style="fill:none;stroke:#000000;stroke-width:26.4;stroke-linecap:round;stroke-linejoin:round;stroke-miterlimit:10;stroke-dasharray:none;stroke-opacity:1"
       transform="translate(0,-6.6667253)"
       clip-path="url(#clipPath4)" />
    <path
       id="path5"
       d="M 0,0 -0.16,-5.28 -0.64,-10.72 -1.6,-15.84 -2.88,-21.120001 -4.64,-26.24 -6.72,-31.040001 -8.96,-35.84 l -2.72,-4.64 -3.04,-4.479999 -3.36,-4.16 -3.68,-3.84 -3.84,-3.68 -4.16,-3.520001 -4.320002,-3.040001 -4.639999,-2.719997 L -43.52,-68.32 l -4.8,-2.080002 -5.119999,-1.760002 -5.120002,-1.439994 -5.279999,-0.96 -5.280003,-0.639999 -5.439995,-0.32 -5.279998,0.159996 -5.280007,0.480004 -5.279999,0.799995 -5.279998,1.279999 -5.12,1.600006 -4.96,2.079994 -4.8,2.240006 -4.64,2.719993 -4.48,2.880005 -4.16,3.360001 -4,3.519996 -3.68,3.840001 -3.51999,4.159999 -3.04001,4.32 -2.88001,4.480004 -2.39999,4.639999 -2.24001,4.959999 -1.75999,5.120001 -1.44,5.119999 -1.12,5.12 -0.64,5.44 -0.32,5.28 v 5.28 l 0.48001,5.44 0.79998,5.28 1.12001,5.120001 1.6,5.119999 1.76001,4.960001 2.39999,4.960001 2.56,4.639999 2.88,4.48 3.2,4.319999 3.52,4 3.84,3.680001 4,3.52 4.32,3.200001 4.48,2.879997 4.64,2.559998"
       style="fill:none;stroke:#000000;stroke-width:26.4;stroke-linecap:round;stroke-linejoin:round;stroke-miterlimit:10;stroke-dasharray:none;stroke-opacity:1"
       transform="translate(396.79999,630.13326)"
       clip-path="url(#clipPath6)" />
    <path
       id="path7"
       d="m 0,0 4.64,-2.88 4.32,-3.36 4,-3.52 3.839999,-4 3.520001,-4.16 3.040001,-4.32 2.879999,-4.639999 2.559999,-4.800001 2.08,-4.959999 1.92,-5.119999 1.440003,-5.280003 0.959999,-5.279999 0.639999,-5.279998 0.32,-5.440003 v -5.440002 l -0.64,-5.439995 -0.799999,-5.279999 -1.280002,-5.280006 L 31.84,-89.599998 29.76,-94.720001 27.52,-99.519997 24.799999,-104.32 21.76,-108.8 l -3.36,-4.16 -3.68,-4.16 -3.84,-3.68 -4.32,-3.36 -4.32,-3.2 -4.64,-2.88 -4.8,-2.4 -4.96,-2.08 -5.120001,-1.76 -5.279998,-1.44 -5.280001,-0.96 -5.439999,-0.64 -5.440002,-0.32 -5.439999,0.16001 -5.279999,0.47999 -5.440002,0.96 -5.279999,1.27999 -5.119999,1.76001 -4.959999,2.08001 -4.959999,2.39999 -4.639999,2.72 -4.480004,3.04 -4.160003,3.36 -4,3.68 -3.680001,4 -3.519996,4.16 -3.04,4.48 -2.72,4.64 -2.56,4.800004 -2.08,4.959999 -1.6,5.119995 -1.44,5.279999 -0.96,5.440002 -0.48,5.279999 -0.32,5.440002"
       style="fill:none;stroke:#000000;stroke-width:26.4;stroke-linecap:round;stroke-linejoin:round;stroke-miterlimit:10;stroke-dasharray:none;stroke-opacity:1"
       transform="translate(511.67999,694.45327)"
       clip-path="url(#clipPath8)" />
  </g>
</svg>
