<?xml version="1.0" encoding="UTF-8" standalone="no"?>
<!-- Created with Inkscape (http://www.inkscape.org/) -->

<svg
   version="1.1"
   id="svg1"
   width="357.51999"
   height="508.56"
   viewBox="0 0 357.51999 508.56"
   sodipodi:docname="Sagittarius26.pdf"
   xmlns:inkscape="http://www.inkscape.org/namespaces/inkscape"
   xmlns:sodipodi="http://sodipodi.sourceforge.net/DTD/sodipodi-0.dtd"
   xmlns="http://www.w3.org/2000/svg"
   xmlns:svg="http://www.w3.org/2000/svg">
  <defs
     id="defs1">
    <clipPath
       clipPathUnits="userSpaceOnUse"
       id="clipPath2">
      <path
         d="M 0,0.16 V 1122.5601 H 793.59998 V 0.16 Z"
         clip-rule="evenodd"
         id="path2" />
    </clipPath>
    <clipPath
       clipPathUnits="userSpaceOnUse"
       id="clipPath4">
      <path
         d="M 0,0.16 V 1122.5601 H 793.59998 V 0.16 Z"
         clip-rule="evenodd"
         id="path4" />
    </clipPath>
    <clipPath
       clipPathUnits="userSpaceOnUse"
       id="clipPath6">
      <path
         d="M 0,0.16 V 1122.5601 H 793.59998 V 0.16 Z"
         clip-rule="evenodd"
         id="path6" />
    </clipPath>
    <clipPath
       clipPathUnits="userSpaceOnUse"
       id="clipPath8">
      <path
         d="M 0,0.16 V 1122.5601 H 793.59998 V 0.16 Z"
         transform="translate(-396.79999,-526.88001)"
         clip-rule="evenodd"
         id="path8" />
    </clipPath>
  </defs>
  <sodipodi:namedview
     id="namedview1"
     pagecolor="#505050"
     bordercolor="#eeeeee"
     borderopacity="1"
     inkscape:showpageshadow="0"
     inkscape:pageopacity="0"
     inkscape:pagecheckerboard="0"
     inkscape:deskcolor="#505050">
    <inkscape:page
       x="0"
       y="0"
       inkscape:label="1"
       id="page1"
       width="357.51999"
       height="508.56"
       margin="0"
       bleed="0" />
  </sodipodi:namedview>
  <g
     id="g1"
     inkscape:groupmode="layer"
     inkscape:label="1">
    <path
       id="path1"
       d="M 396.79999,787.84003 V 334.72"
       style="fill:none;stroke:#000000;stroke-width:26.4;stroke-linecap:round;stroke-linejoin:round;stroke-miterlimit:10;stroke-dasharray:none;stroke-opacity:1"
       transform="translate(-220.12,-309.66673)"
       clip-path="url(#clipPath2)" />
    <path
       id="path3"
       d="m 396.79999,334.72 -151.04,151.04001"
       style="fill:none;stroke:#000000;stroke-width:26.4;stroke-linecap:round;stroke-linejoin:round;stroke-miterlimit:10;stroke-dasharray:none;stroke-opacity:1"
       transform="translate(-220.12,-309.66673)"
       clip-path="url(#clipPath4)" />
    <path
       id="path5"
       d="M 396.79999,334.72 547.84003,485.76001"
       style="fill:none;stroke:#000000;stroke-width:26.4;stroke-linecap:round;stroke-linejoin:round;stroke-miterlimit:10;stroke-dasharray:none;stroke-opacity:1"
       transform="translate(-220.12,-309.66673)"
       clip-path="url(#clipPath6)" />
    <path
       id="path7"
       d="m 0,0 -8.16,0.16 -8.16,0.32 -8,0.48 -8.16,0.8 -7.84,0.96 -7.84,1.12 -7.68,1.44 -7.520001,1.44 -7.36,1.76 -7.040001,1.92 -6.879997,2.08 -6.720002,2.24 -6.400001,2.560001 L -103.84,19.84 l -5.76,2.719999 -5.44,2.880002 -5.12,3.039999 -4.8,3.2 -4.48,3.360001 -4,3.360001 -3.52001,3.519996 -3.36,3.520001 -2.71998,3.68 -2.40001,3.84 -2.08,3.68 -1.44001,3.840001 -1.11999,3.84 -0.64,4 -0.31999,3.840004 0.31999,4 0.64,3.839996 1.11999,3.839996 1.44001,3.840004 2.08,3.839997 2.40001,3.68 2.71998,3.68 3.36,3.520003 3.52001,3.52 4,3.36 4.48,3.36 4.8,3.2 5.12,3.04 5.44,2.88 5.76,2.72 6.079998,2.72 6.400001,2.40001 6.720002,2.23999 6.879997,2.08 7.040001,1.92 7.36,1.76001 7.520001,1.59999 7.68,1.28 7.84,1.12001 7.84,0.95999 8.16,0.8 8,0.48 8.16,0.32 8.16,0.16001 8.16,-0.16001 8.16,-0.32 8.16,-0.48 8,-0.8 8,-0.95999 7.84,-1.12001 7.68,-1.28 7.52,-1.59999 7.200001,-1.76001 7.199997,-1.92 6.880005,-2.08 6.719994,-2.23999 6.240005,-2.40001 6.079998,-2.72 5.92,-2.72 5.44,-2.88 5.12,-3.04 4.8,-3.2 4.32,-3.36 4,-3.36 3.67999,-3.52 3.20002,-3.520003 2.87999,-3.68 2.40001,-3.68 L 147.52,87.68 149.11999,83.839996 150.24,80 l 0.48,-4"
       style="fill:none;stroke:#000000;stroke-width:26.4;stroke-linecap:round;stroke-linejoin:round;stroke-miterlimit:10;stroke-dasharray:none;stroke-opacity:1"
       transform="translate(176.67999,217.21328)"
       clip-path="url(#clipPath8)" />
  </g>
</svg>
