<?xml version="1.0" encoding="UTF-8" standalone="no"?>
<!-- Created with Inkscape (http://www.inkscape.org/) -->

<svg
   version="1.1"
   id="svg1"
   width="361.51999"
   height="509.89334"
   viewBox="0 0 361.51999 509.89334"
   sodipodi:docname="Sagittarius22.pdf"
   xmlns:inkscape="http://www.inkscape.org/namespaces/inkscape"
   xmlns:sodipodi="http://sodipodi.sourceforge.net/DTD/sodipodi-0.dtd"
   xmlns="http://www.w3.org/2000/svg"
   xmlns:svg="http://www.w3.org/2000/svg">
  <defs
     id="defs1">
    <clipPath
       clipPathUnits="userSpaceOnUse"
       id="clipPath2">
      <path
         d="M 0,0.16 V 1122.5601 H 793.59998 V 0.16 Z"
         clip-rule="evenodd"
         id="path2" />
    </clipPath>
    <clipPath
       clipPathUnits="userSpaceOnUse"
       id="clipPath4">
      <path
         d="M 0,0.16 V 1122.5601 H 793.59998 V 0.16 Z"
         clip-rule="evenodd"
         id="path4" />
    </clipPath>
    <clipPath
       clipPathUnits="userSpaceOnUse"
       id="clipPath6">
      <path
         d="M 0,0.16 V 1122.5601 H 793.59998 V 0.16 Z"
         transform="translate(-566.71997,-466.88001)"
         clip-rule="evenodd"
         id="path6" />
    </clipPath>
  </defs>
  <sodipodi:namedview
     id="namedview1"
     pagecolor="#505050"
     bordercolor="#eeeeee"
     borderopacity="1"
     inkscape:showpageshadow="0"
     inkscape:pageopacity="0"
     inkscape:pagecheckerboard="0"
     inkscape:deskcolor="#505050">
    <inkscape:page
       x="0"
       y="0"
       inkscape:label="1"
       id="page1"
       width="361.51999"
       height="509.89334"
       margin="0"
       bleed="0" />
  </sodipodi:namedview>
  <g
     id="g1"
     inkscape:groupmode="layer"
     inkscape:label="1">
    <path
       id="path1"
       d="M 415.84,768.96002 V 315.84"
       style="fill:none;stroke:#000000;stroke-width:26.4;stroke-linecap:round;stroke-linejoin:round;stroke-miterlimit:10;stroke-dasharray:none;stroke-opacity:1"
       transform="translate(0,30.693275)"
       clip-path="url(#clipPath2)" />
    <path
       id="path3"
       d="M 264.79999,617.91998 H 566.88"
       style="fill:none;stroke:#000000;stroke-width:26.4;stroke-linecap:round;stroke-linejoin:round;stroke-miterlimit:10;stroke-dasharray:none;stroke-opacity:1"
       transform="translate(0,30.693275)"
       clip-path="url(#clipPath4)" />
    <path
       id="path5"
       d="m 0,0 v -8.16 l -0.8,-8.16 -0.96,-8.16 -1.6,-8 -1.92,-7.84 -2.4,-7.84 -2.88,-7.68 -3.2,-7.520001 -3.680001,-7.36 -4,-7.040001 -4.479999,-7.040001 -4.799999,-6.559998 -5.120001,-6.400001 -5.439999,-6.079998 -5.760002,-5.76 -6.079998,-5.44 -6.400001,-5.12 -6.560002,-4.8 -6.879997,-4.48 -7.200005,-4 -7.359993,-3.67999 -7.520004,-3.20002 -7.679999,-2.71998 -7.68,-2.40001 -8,-2.08 -8,-1.44001 -8.16,-1.11999 -8.16,-0.64 -8.16,-0.31999 -8.15999,0.31999 -8.16001,0.64 -8.16,1.11999 -8,1.44001 -8,2.08 -7.67999,2.40001 -7.68001,2.71998 -7.52,3.20002 -7.36001,3.67999 -7.19999,4 -6.87999,4.48 -6.56001,4.8 -6.4,5.12 -6.08,5.44 -5.76001,5.76 -5.44,6.079998 -5.12,6.400001 -4.79999,6.559998 -4.48001,7.040001 -4,7.040001 -3.67999,7.36 -3.20001,7.520001 -2.87998,7.68 -2.40002,7.84 -1.91998,7.84 -1.44001,8 -1.11999,8.16 -0.80002,8.16 -0.16,8.16"
       style="fill:none;stroke:#000000;stroke-width:26.4;stroke-linecap:round;stroke-linejoin:round;stroke-miterlimit:10;stroke-dasharray:none;stroke-opacity:1"
       transform="translate(566.71997,497.57328)"
       clip-path="url(#clipPath6)" />
  </g>
</svg>
