<?xml version="1.0" encoding="UTF-8" standalone="no"?>
<!-- Created with Inkscape (http://www.inkscape.org/) -->

<svg
   version="1.1"
   id="svg1"
   width="504.26666"
   height="209.56"
   viewBox="0 0 504.26666 209.56"
   sodipodi:docname="Sagittarius8.pdf"
   xmlns:inkscape="http://www.inkscape.org/namespaces/inkscape"
   xmlns:sodipodi="http://sodipodi.sourceforge.net/DTD/sodipodi-0.dtd"
   xmlns="http://www.w3.org/2000/svg"
   xmlns:svg="http://www.w3.org/2000/svg">
  <defs
     id="defs1">
    <clipPath
       clipPathUnits="userSpaceOnUse"
       id="clipPath2">
      <path
         d="M 0,0.16 V 1122.5601 H 793.59998 V 0.16 Z"
         transform="translate(-3.3333333e-6)"
         clip-rule="evenodd"
         id="path2" />
    </clipPath>
    <clipPath
       clipPathUnits="userSpaceOnUse"
       id="clipPath4">
      <path
         d="M 0,0.16 V 1122.5601 H 793.59998 V 0.16 Z"
         transform="translate(-226.88001,-636.64002)"
         clip-rule="evenodd"
         id="path4" />
    </clipPath>
    <clipPath
       clipPathUnits="userSpaceOnUse"
       id="clipPath6">
      <path
         d="M 0,0.16 V 1122.5601 H 793.59998 V 0.16 Z"
         transform="translate(-340.16,-636.64002)"
         clip-rule="evenodd"
         id="path6" />
    </clipPath>
    <clipPath
       clipPathUnits="userSpaceOnUse"
       id="clipPath8">
      <path
         d="M 0,0.16 V 1122.5601 H 793.59998 V 0.16 Z"
         transform="translate(-453.44,-636.64002)"
         clip-rule="evenodd"
         id="path8" />
    </clipPath>
  </defs>
  <sodipodi:namedview
     id="namedview1"
     pagecolor="#505050"
     bordercolor="#eeeeee"
     borderopacity="1"
     inkscape:showpageshadow="0"
     inkscape:pageopacity="0"
     inkscape:pagecheckerboard="0"
     inkscape:deskcolor="#505050">
    <inkscape:page
       x="0"
       y="0"
       inkscape:label="1"
       id="page1"
       width="504.26666"
       height="209.56"
       margin="0"
       bleed="0" />
  </sodipodi:namedview>
  <g
     id="g1"
     inkscape:groupmode="layer"
     inkscape:label="1">
    <path
       id="path1"
       d="M 170.24,561.28003 H 623.35998"
       style="fill:none;stroke:#000000;stroke-width:26.4;stroke-linecap:round;stroke-linejoin:round;stroke-miterlimit:10;stroke-dasharray:none;stroke-opacity:1"
       transform="translate(-145.41333,-453.82673)"
       clip-path="url(#clipPath2)" />
    <path
       id="path3"
       d="m 0,0 h 5.44 l 5.44,-0.64 5.44,-0.96 5.28,-1.44 5.119999,-1.6 4.960001,-2.24 4.959999,-2.4 4.64,-2.88 4.479999,-3.04 4.16,-3.519999 4,-3.680001 3.68,-4 3.360001,-4.319999 L 64,-35.200001 66.720001,-39.84 l 2.400002,-4.959999 2.079994,-5.119999 1.600006,-5.120003 1.279999,-5.279999 0.799995,-5.440002 0.64,-5.439995 v -5.440002 l -0.159996,-5.440003 -0.800003,-5.279999 -0.96,-5.440002 -1.439994,-5.279999 -1.920006,-5.119998 -2.079994,-4.96 -2.560006,-4.8 -2.879997,-4.64 -3.200001,-4.32 -3.52,-4.16 -3.84,-4 -4.16,-3.52001 -4.32,-3.36 L 39.200001,-140 34.400002,-142.56 29.440001,-144.96001 24.48,-146.88 19.200001,-148.48 13.92,-149.60001 8.48,-150.39999 3.04,-150.88"
       style="fill:none;stroke:#000000;stroke-width:26.4;stroke-linecap:round;stroke-linejoin:round;stroke-miterlimit:10;stroke-dasharray:none;stroke-opacity:1"
       transform="translate(81.466672,182.81329)"
       clip-path="url(#clipPath4)" />
    <path
       id="path5"
       d="m 0,0 h 5.44 l 5.44,-0.64 5.44,-0.96 5.28,-1.44 5.119999,-1.6 4.960001,-2.24 4.959999,-2.4 4.64,-2.88 4.479999,-3.04 4.16,-3.519999 4,-3.680001 3.68,-4 3.360001,-4.319999 L 64,-35.200001 66.720001,-39.84 l 2.400002,-4.959999 2.079994,-5.119999 1.600006,-5.120003 1.279999,-5.279999 0.799995,-5.440002 0.64,-5.439995 v -5.440002 l -0.32,-5.440003 -0.639999,-5.279999 -0.96,-5.440002 -1.439994,-5.279999 -1.920006,-5.119998 -2.079994,-4.96 -2.560006,-4.8 -2.879997,-4.64 -3.200001,-4.32 -3.52,-4.16 -3.84,-4 -4.16,-3.52001 -4.32,-3.36 L 39.200001,-140 34.400002,-142.56 29.440001,-144.96001 24.48,-146.88 19.200001,-148.48 13.92,-149.60001 8.48,-150.39999 3.04,-150.88"
       style="fill:none;stroke:#000000;stroke-width:26.4;stroke-linecap:round;stroke-linejoin:round;stroke-miterlimit:10;stroke-dasharray:none;stroke-opacity:1"
       transform="translate(194.74667,182.81329)"
       clip-path="url(#clipPath6)" />
    <path
       id="path7"
       d="m 0,0 h 5.44 l 5.44,-0.64 5.44,-0.96 5.28,-1.44 5.119999,-1.6 4.960001,-2.24 4.959999,-2.4 4.64,-2.88 4.479999,-3.04 4.16,-3.519999 4,-3.680001 3.68,-4 3.360001,-4.319999 L 64,-35.200001 66.720001,-39.84 l 2.400002,-4.959999 2.079994,-5.119999 1.600006,-5.120003 1.279999,-5.279999 0.799995,-5.440002 0.64,-5.439995 v -5.440002 l -0.32,-5.440003 -0.639999,-5.279999 -0.96,-5.440002 -1.439994,-5.279999 L 70.239998,-103.2 68,-108.16 l -2.400002,-4.8 -2.879997,-4.64 -3.200001,-4.32 -3.52,-4.16 -3.84,-4 -4.16,-3.52001 -4.32,-3.36 L 39.200001,-140 34.400002,-142.56 29.440001,-144.96001 24.32,-146.88 19.200001,-148.48 13.92,-149.60001 8.48,-150.39999 3.04,-150.88"
       style="fill:none;stroke:#000000;stroke-width:26.4;stroke-linecap:round;stroke-linejoin:round;stroke-miterlimit:10;stroke-dasharray:none;stroke-opacity:1"
       transform="translate(308.02667,182.81329)"
       clip-path="url(#clipPath8)" />
  </g>
</svg>
