<?xml version="1.0" encoding="UTF-8" standalone="no"?>
<!-- Created with Inkscape (http://www.inkscape.org/) -->

<svg
   version="1.1"
   id="svg1"
   width="506.93332"
   height="407.10666"
   viewBox="0 0 506.93332 407.10666"
   sodipodi:docname="Saturn12.pdf"
   xmlns:inkscape="http://www.inkscape.org/namespaces/inkscape"
   xmlns:sodipodi="http://sodipodi.sourceforge.net/DTD/sodipodi-0.dtd"
   xmlns="http://www.w3.org/2000/svg"
   xmlns:svg="http://www.w3.org/2000/svg">
  <defs
     id="defs1">
    <clipPath
       clipPathUnits="userSpaceOnUse"
       id="clipPath2">
      <path
         d="M 26.4,26.559999 V 1096.16 H 767.03998 V 26.559999 Z"
         clip-rule="evenodd"
         id="path2" />
    </clipPath>
    <clipPath
       clipPathUnits="userSpaceOnUse"
       id="clipPath4">
      <path
         d="M 26.4,26.559999 V 1096.16 H 767.03998 V 26.559999 Z"
         clip-rule="evenodd"
         id="path4" />
    </clipPath>
    <clipPath
       clipPathUnits="userSpaceOnUse"
       id="clipPath6">
      <path
         d="M 26.4,26.559999 V 1096.16 H 767.03998 V 26.559999 Z"
         transform="translate(-540,-734.56)"
         clip-rule="evenodd"
         id="path6" />
    </clipPath>
    <clipPath
       clipPathUnits="userSpaceOnUse"
       id="clipPath8">
      <path
         d="M 26.4,26.559999 V 1096.16 H 767.03998 V 26.559999 Z"
         clip-rule="evenodd"
         id="path8" />
    </clipPath>
  </defs>
  <sodipodi:namedview
     id="namedview1"
     pagecolor="#505050"
     bordercolor="#eeeeee"
     borderopacity="1"
     inkscape:showpageshadow="0"
     inkscape:pageopacity="0"
     inkscape:pagecheckerboard="0"
     inkscape:deskcolor="#505050">
    <inkscape:page
       x="0"
       y="0"
       inkscape:label="1"
       id="page1"
       width="506.93332"
       height="407.10666"
       margin="0"
       bleed="0" />
  </sodipodi:namedview>
  <g
     id="g1"
     inkscape:groupmode="layer"
     inkscape:label="1">
    <path
       id="path1"
       d="m 168.32001,717.12 332.32,-332.32001"
       style="fill:none;stroke:#000000;stroke-width:26.4;stroke-linecap:round;stroke-linejoin:round;stroke-miterlimit:10;stroke-dasharray:none;stroke-opacity:1"
       transform="translate(-144.08,-360.40006)"
       clip-path="url(#clipPath2)" />
    <path
       id="path3"
       d="m 168.32001,384.79999 249.28,249.28003"
       style="fill:none;stroke:#000000;stroke-width:26.4;stroke-linecap:round;stroke-linejoin:round;stroke-miterlimit:10;stroke-dasharray:none;stroke-opacity:1"
       transform="translate(-144.08,-360.40006)"
       clip-path="url(#clipPath4)" />
    <path
       id="path5"
       d="m 0,0 6.88,-1.12 6.56,-1.44 6.56,-1.6 6.24,-1.92 5.92,-1.92 5.920002,-2.24 5.439998,-2.24 5.279999,-2.56 4.959999,-2.56 4.640004,-2.72 4.319999,-3.040001 4,-2.879999 3.680001,-3.200001 3.199996,-3.199998 L 76.480003,-36 l 2.399994,-3.360001 2.080002,-3.52 1.760002,-3.520001 1.119995,-3.519996 0.960007,-3.68 0.32,-3.520001 v -3.68 L 84.800003,-64.32 84,-68 l -1.279999,-3.519997 -1.760002,-3.520004 -2.080002,-3.519997 -2.399994,-3.36 -2.880005,-3.360001 -3.199996,-3.200004 -3.680001,-3.199997 -3.84,-2.879998 -4.32,-3.04 -4.640003,-2.720002 -4.959999,-2.56 -5.279999,-2.56 -5.599998,-2.4 -5.760002,-2.08 -6.08,-2.08 -6.24,-1.76 -6.4,-1.6 -6.72,-1.44 -6.72,-1.28 -6.88,-0.96 -7.04,-0.96 -7.199999,-0.64 -7.200001,-0.32 -7.200001,-0.32 h -7.2 l -7.199997,0.16 -7.200001,0.48 -7.200005,0.64 -7.039993,0.8 -6.880005,0.96 -6.879997,1.28 -6.559998,1.44 -6.560005,1.6 -6.239998,1.76 -6.08,1.92 -5.76,2.24 -5.6,2.24 -5.28,2.4"
       style="fill:none;stroke:#000000;stroke-width:26.4;stroke-linecap:round;stroke-linejoin:round;stroke-miterlimit:10;stroke-dasharray:none;stroke-opacity:1"
       transform="translate(395.92,374.15994)"
       clip-path="url(#clipPath6)" />
    <path
       id="path7"
       d="M 417.60001,737.91998 540,734.71997"
       style="fill:none;stroke:#000000;stroke-width:26.4;stroke-linecap:round;stroke-linejoin:round;stroke-miterlimit:10;stroke-dasharray:none;stroke-opacity:1"
       transform="translate(-144.08,-360.40006)"
       clip-path="url(#clipPath8)" />
  </g>
</svg>
