<?xml version="1.0" encoding="UTF-8" standalone="no"?>
<!-- Created with Inkscape (http://www.inkscape.org/) -->

<svg
   version="1.1"
   id="svg1"
   width="612.32001"
   height="524.56"
   viewBox="0 0 612.32001 524.56"
   sodipodi:docname="Saturn6.pdf"
   xmlns:inkscape="http://www.inkscape.org/namespaces/inkscape"
   xmlns:sodipodi="http://sodipodi.sourceforge.net/DTD/sodipodi-0.dtd"
   xmlns="http://www.w3.org/2000/svg"
   xmlns:svg="http://www.w3.org/2000/svg">
  <defs
     id="defs1">
    <clipPath
       clipPathUnits="userSpaceOnUse"
       id="clipPath2">
      <path
         d="M 26.4,26.559999 V 1096.16 H 767.03998 V 26.559999 Z"
         transform="translate(-302.39999,-419.76001)"
         clip-rule="evenodd"
         id="path2" />
    </clipPath>
    <clipPath
       clipPathUnits="userSpaceOnUse"
       id="clipPath4">
      <path
         d="M 26.4,26.559999 V 1096.16 H 767.03998 V 26.559999 Z"
         clip-rule="evenodd"
         id="path4" />
    </clipPath>
    <clipPath
       clipPathUnits="userSpaceOnUse"
       id="clipPath6">
      <path
         d="M 26.4,26.559999 V 1096.16 H 767.03998 V 26.559999 Z"
         clip-rule="evenodd"
         id="path6" />
    </clipPath>
    <clipPath
       clipPathUnits="userSpaceOnUse"
       id="clipPath8">
      <path
         d="M 26.4,26.559999 V 1096.16 H 767.03998 V 26.559999 Z"
         clip-rule="evenodd"
         id="path8" />
    </clipPath>
    <clipPath
       clipPathUnits="userSpaceOnUse"
       id="clipPath10">
      <path
         d="M 26.4,26.559999 V 1096.16 H 767.03998 V 26.559999 Z"
         transform="translate(-491.04001,-702.88001)"
         clip-rule="evenodd"
         id="path10" />
    </clipPath>
    <clipPath
       clipPathUnits="userSpaceOnUse"
       id="clipPath12">
      <path
         d="M 26.4,26.559999 V 1096.16 H 767.03998 V 26.559999 Z"
         transform="translate(-491.04001,-419.67999)"
         clip-rule="evenodd"
         id="path12" />
    </clipPath>
  </defs>
  <sodipodi:namedview
     id="namedview1"
     pagecolor="#505050"
     bordercolor="#eeeeee"
     borderopacity="1"
     inkscape:showpageshadow="0"
     inkscape:pageopacity="0"
     inkscape:pagecheckerboard="0"
     inkscape:deskcolor="#505050">
    <inkscape:page
       x="0"
       y="0"
       inkscape:label="1"
       id="page1"
       width="612.32001"
       height="524.56"
       margin="0"
       bleed="0" />
  </sodipodi:namedview>
  <g
     id="g1"
     inkscape:groupmode="layer"
     inkscape:label="1">
    <path
       id="path1"
       d="M 0,0 C 0,-52.09 -42.259998,-94.32 -94.400002,-94.32 -146.53999,-94.32 -188.8,-52.09 -188.8,0 c 0,52.09 42.26001,94.32 94.399998,94.32 C -42.259998,94.32 0,52.09 0,0 Z"
       style="fill:none;stroke:#000000;stroke-width:26.4;stroke-linecap:round;stroke-linejoin:round;stroke-miterlimit:10;stroke-dasharray:none;stroke-opacity:1"
       transform="translate(210.34666,120.75995)"
       clip-path="url(#clipPath2)" />
    <path
       id="path3"
       d="M 302.39999,419.84 V 797.28003"
       style="fill:none;stroke:#000000;stroke-width:26.4;stroke-linecap:round;stroke-linejoin:round;stroke-miterlimit:10;stroke-dasharray:none;stroke-opacity:1"
       transform="translate(-92.053333,-299.00006)"
       clip-path="url(#clipPath4)" />
    <path
       id="path5"
       d="M 302.39999,608.47998 H 491.20001"
       style="fill:none;stroke:#000000;stroke-width:26.4;stroke-linecap:round;stroke-linejoin:round;stroke-miterlimit:10;stroke-dasharray:none;stroke-opacity:1"
       transform="translate(-92.053333,-299.00006)"
       clip-path="url(#clipPath6)" />
    <path
       id="path7"
       d="M 491.20001,419.84 V 702.88"
       style="fill:none;stroke:#000000;stroke-width:26.4;stroke-linecap:round;stroke-linejoin:round;stroke-miterlimit:10;stroke-dasharray:none;stroke-opacity:1"
       transform="translate(-92.053333,-299.00006)"
       clip-path="url(#clipPath8)" />
    <path
       id="path9"
       d="m 0,0 0.32,6.24 0.64,6.08 0.96,6.239999 1.44,5.920001 1.76,5.92 2.24,5.76 2.56,5.599998 2.88,5.440003 3.2,5.279999 3.68,5.119998 3.84,4.640004 4.32,4.639995 4.48,4.160004 4.799999,3.839996 4.960003,3.680001 5.279999,3.200004 5.439998,3.040001 5.600003,2.399994 5.760002,2.240005 5.919998,1.759995 6.080002,1.440002 6.079994,0.959999 6.080002,0.64 6.239998,0.160004 6.080002,-0.160004 6.24,-0.64 6.08,-0.959999 6.08,-1.440002 5.92,-1.759995 5.76,-2.240005 5.60001,-2.399994 5.43998,-3.040001 5.28,-3.200004 4.96001,-3.680001 4.8,-3.839996 4.48,-4.160004 4.16,-4.639995 4,-4.640004 3.52001,-5.119998 3.36,-5.279999 L 179.2,41.759998 181.75999,36.16 184,30.4 185.75999,24.48 187.2,18.559999 188.16,12.32 188.8,6.24 V 0"
       style="fill:none;stroke:#000000;stroke-width:26.4;stroke-linecap:round;stroke-linejoin:round;stroke-miterlimit:10;stroke-dasharray:none;stroke-opacity:1"
       transform="translate(398.98668,403.87995)"
       clip-path="url(#clipPath10)" />
    <path
       id="path11"
       d="m 0,0 v -6.08 l -0.64,-6.24 -0.96,-6.08 -1.44,-6.08 -1.92,-5.92 -2.08,-5.76 -2.56,-5.599998 -3.04,-5.440003 -3.2,-5.279999 -3.68,-4.959999 -3.840001,-4.800003 -4.319999,-4.639995 -4.48,-4.160004 -4.799999,-3.839996 -5.120003,-3.680001 -5.279999,-3.200004 -5.439998,-2.879997 -5.600003,-2.559998 -5.760002,-2.240005 -5.919998,-1.759995 -6.080002,-1.440002 -6.079994,-0.959999 -6.240005,-0.480004 -6.239998,-0.159996 -6.079999,0.159996 -6.24,0.64 -6.08,0.959999"
       style="fill:none;stroke:#000000;stroke-width:26.4;stroke-linecap:round;stroke-linejoin:round;stroke-miterlimit:10;stroke-dasharray:none;stroke-opacity:1"
       transform="translate(398.98668,120.67993)"
       clip-path="url(#clipPath12)" />
  </g>
</svg>
