<?xml version="1.0" encoding="UTF-8" standalone="no"?>
<!-- Created with Inkscape (http://www.inkscape.org/) -->

<svg
   version="1.1"
   id="svg1"
   width="350.85333"
   height="500.54666"
   viewBox="0 0 350.85333 500.54666"
   sodipodi:docname="Saturn27.pdf"
   xmlns:inkscape="http://www.inkscape.org/namespaces/inkscape"
   xmlns:sodipodi="http://sodipodi.sourceforge.net/DTD/sodipodi-0.dtd"
   xmlns="http://www.w3.org/2000/svg"
   xmlns:svg="http://www.w3.org/2000/svg">
  <defs
     id="defs1">
    <clipPath
       clipPathUnits="userSpaceOnUse"
       id="clipPath2">
      <path
         d="M 26.4,26.559999 V 1096.16 H 767.03998 V 26.559999 Z"
         transform="translate(-547.84003,-561.35998)"
         clip-rule="evenodd"
         id="path2" />
    </clipPath>
    <clipPath
       clipPathUnits="userSpaceOnUse"
       id="clipPath4">
      <path
         d="M 26.4,26.559999 V 1096.16 H 767.03998 V 26.559999 Z"
         transform="translate(-396.64001,-787.84003)"
         clip-rule="evenodd"
         id="path4" />
    </clipPath>
    <clipPath
       clipPathUnits="userSpaceOnUse"
       id="clipPath6">
      <path
         d="M 26.4,26.559999 V 1096.16 H 767.03998 V 26.559999 Z"
         clip-rule="evenodd"
         id="path6" />
    </clipPath>
  </defs>
  <sodipodi:namedview
     id="namedview1"
     pagecolor="#505050"
     bordercolor="#eeeeee"
     borderopacity="1"
     inkscape:showpageshadow="0"
     inkscape:pageopacity="0"
     inkscape:pagecheckerboard="0"
     inkscape:deskcolor="#505050">
    <inkscape:page
       x="0"
       y="0"
       inkscape:label="1"
       id="page1"
       width="350.85333"
       height="500.54666"
       margin="0"
       bleed="0" />
  </sodipodi:namedview>
  <g
     id="g1"
     inkscape:groupmode="layer"
     inkscape:label="1">
    <path
       id="path1"
       d="M 0,0 C 0,-41.66 -33.810001,-75.440002 -75.519997,-75.440002 -117.23,-75.440002 -151.03999,-41.66 -151.03999,0 c 0,41.66 33.80999,75.440002 75.519993,75.440002 C -33.810001,75.440002 0,41.66 0,0 Z"
       style="fill:none;stroke:#000000;stroke-width:26.4;stroke-linecap:round;stroke-linejoin:round;stroke-miterlimit:10;stroke-dasharray:none;stroke-opacity:1"
       transform="translate(547.84003,566.70659)"
       clip-path="url(#clipPath2)" />
    <path
       id="path3"
       d="m 0,0 10.4,-5.12 9.92,-5.6 9.76,-5.919999 9.44,-6.400002 9.119999,-6.879999 8.959999,-7.199999 8.480004,-7.52 8.32,-8 7.839996,-8.32 7.520004,-8.639999 7.199997,-8.800004 L 103.68,-87.68 l 6.24,-9.599999 5.92,-9.760001 5.6,-9.92 4.96,-10.24 4.63999,-10.55999 4.16001,-10.56002 3.68,-10.87999 3.36,-10.88 2.72001,-11.2 2.23999,-11.2 1.91999,-11.19999 1.28,-11.36 0.64,-11.52001"
       style="fill:none;stroke:#000000;stroke-width:26.4;stroke-linecap:round;stroke-linejoin:round;stroke-miterlimit:10;stroke-dasharray:none;stroke-opacity:1"
       transform="translate(396.64001,793.18664)"
       clip-path="url(#clipPath4)" />
    <path
       id="path5"
       d="M 245.75999,636.79999 547.84003,334.88"
       style="fill:none;stroke:#000000;stroke-width:26.4;stroke-linecap:round;stroke-linejoin:round;stroke-miterlimit:10;stroke-dasharray:none;stroke-opacity:1"
       transform="translate(0,5.346608)"
       clip-path="url(#clipPath6)" />
  </g>
</svg>
