<?xml version="1.0" encoding="UTF-8" standalone="no"?>
<!-- Created with Inkscape (http://www.inkscape.org/) -->

<svg
   version="1.1"
   id="svg1"
   width="490.93332"
   height="489.86667"
   viewBox="0 0 490.93332 489.86667"
   sodipodi:docname="Saturn13.pdf"
   xmlns:inkscape="http://www.inkscape.org/namespaces/inkscape"
   xmlns:sodipodi="http://sodipodi.sourceforge.net/DTD/sodipodi-0.dtd"
   xmlns="http://www.w3.org/2000/svg"
   xmlns:svg="http://www.w3.org/2000/svg">
  <defs
     id="defs1">
    <clipPath
       clipPathUnits="userSpaceOnUse"
       id="clipPath2">
      <path
         d="M 26.4,26.559999 V 1096.16 H 767.03998 V 26.559999 Z"
         transform="translate(-298.72,-434.56)"
         clip-rule="evenodd"
         id="path2" />
    </clipPath>
    <clipPath
       clipPathUnits="userSpaceOnUse"
       id="clipPath4">
      <path
         d="M 26.4,26.559999 V 1096.16 H 767.03998 V 26.559999 Z"
         transform="translate(-252,-700)"
         clip-rule="evenodd"
         id="path4" />
    </clipPath>
    <clipPath
       clipPathUnits="userSpaceOnUse"
       id="clipPath6">
      <path
         d="M 26.4,26.559999 V 1096.16 H 767.03998 V 26.559999 Z"
         clip-rule="evenodd"
         id="path6" />
    </clipPath>
    <clipPath
       clipPathUnits="userSpaceOnUse"
       id="clipPath8">
      <path
         d="M 26.4,26.559999 V 1096.16 H 767.03998 V 26.559999 Z"
         clip-rule="evenodd"
         id="path8" />
    </clipPath>
    <clipPath
       clipPathUnits="userSpaceOnUse"
       id="clipPath10">
      <path
         d="M 26.4,26.559999 V 1096.16 H 767.03998 V 26.559999 Z"
         transform="translate(-482.23999,-705.12)"
         clip-rule="evenodd"
         id="path10" />
    </clipPath>
    <clipPath
       clipPathUnits="userSpaceOnUse"
       id="clipPath12">
      <path
         d="M 26.4,26.559999 V 1096.16 H 767.03998 V 26.559999 Z"
         clip-rule="evenodd"
         id="path12" />
    </clipPath>
    <clipPath
       clipPathUnits="userSpaceOnUse"
       id="clipPath14">
      <path
         d="M 26.4,26.559999 V 1096.16 H 767.03998 V 26.559999 Z"
         clip-rule="evenodd"
         id="path14" />
    </clipPath>
  </defs>
  <sodipodi:namedview
     id="namedview1"
     pagecolor="#505050"
     bordercolor="#eeeeee"
     borderopacity="1"
     inkscape:showpageshadow="0"
     inkscape:pageopacity="0"
     inkscape:pagecheckerboard="0"
     inkscape:deskcolor="#505050">
    <inkscape:page
       x="0"
       y="0"
       inkscape:label="1"
       id="page1"
       width="490.93332"
       height="489.86667"
       margin="0"
       bleed="0" />
  </sodipodi:namedview>
  <g
     id="g1"
     inkscape:groupmode="layer"
     inkscape:label="1">
    <path
       id="path1"
       d="m 0,0 0.8,-5.76 0.32,-5.76 v -5.920001 l -0.48,-5.92 -0.96,-5.76 -1.28,-5.76 -1.6,-5.599999 -2.08,-5.439998 -2.56,-5.440003 -2.72,-5.119999 -3.2,-4.959999 -3.520001,-4.640003 -3.84,-4.479996 -4,-4.319999 -4.479999,-3.840004 -4.640002,-3.680001 -4.799999,-3.199996 -5.119999,-2.880005 -5.279999,-2.559998 -5.440002,-2.239998 L -60.48,-95.040001 -66.239998,-96.480003 -72,-97.440002 l -5.919998,-0.64 -5.919998,-0.159996 -5.760002,0.159996 -5.919999,0.64 -5.760003,0.959999 -5.76,1.440002 -5.6,1.760002 -5.44,2.239998 -5.28,2.400002"
       style="fill:none;stroke:#000000;stroke-width:26.4;stroke-linecap:round;stroke-linejoin:round;stroke-miterlimit:10;stroke-dasharray:none;stroke-opacity:1"
       transform="translate(146.64,118.21327)"
       clip-path="url(#clipPath2)" />
    <path
       id="path3"
       d="m 0,0 0.16,5.92 0.48,5.76 0.96,5.92 1.28,5.600001 1.6,5.759998 2.08,5.440003 2.56,5.279998 2.72,5.279999 3.2,4.799999 3.519999,4.800003 3.840001,4.48 4.159999,4.16 4.480002,3.84 4.639999,3.68 4.8,3.199997 5.119998,2.880005 5.280003,2.559998 5.599999,2.080001 5.600002,1.919999 5.599998,1.279998 5.760002,0.959999 5.919999,0.64 5.919998,0.160004 5.760002,-0.160004 5.919998,-0.64 5.760001,-1.119995 5.76,-1.280006 5.6,-1.919998 5.44,-2.239998 5.28,-2.559998 5.12,-2.880005 4.8,-3.36"
       style="fill:none;stroke:#000000;stroke-width:26.4;stroke-linecap:round;stroke-linejoin:round;stroke-miterlimit:10;stroke-dasharray:none;stroke-opacity:1"
       transform="translate(99.92,383.65327)"
       clip-path="url(#clipPath4)" />
    <path
       id="path5"
       d="M 298.88,434.72 252,700"
       style="fill:none;stroke:#000000;stroke-width:26.4;stroke-linecap:round;stroke-linejoin:round;stroke-miterlimit:10;stroke-dasharray:none;stroke-opacity:1"
       transform="translate(-152.08,-316.34673)"
       clip-path="url(#clipPath6)" />
    <path
       id="path7"
       d="M 482.23999,365.44 V 705.28003"
       style="fill:none;stroke:#000000;stroke-width:26.4;stroke-linecap:round;stroke-linejoin:round;stroke-miterlimit:10;stroke-dasharray:none;stroke-opacity:1"
       transform="translate(-152.08,-316.34673)"
       clip-path="url(#clipPath8)" />
    <path
       id="path9"
       d="M 0,0 0.16,5.28 0.8,10.24 1.76,15.2 3.04,20.16 4.8,24.959999 6.72,29.6 l 2.4,4.480002 2.72,4.32 3.04,4.159999 3.36,3.840001 3.52,3.519996 3.84,3.360001 4.16,3.040001 4.320002,2.720001 4.479999,2.399998 4.64,1.920002 L 48,65.120003 l 4.799999,1.279999 5.119999,0.959999 4.960003,0.479995 L 68,68.160004 73.120003,67.839996 78.080002,67.360001 83.040001,66.400002 88,65.120003 92.800003,63.360001 97.440002,61.439999 101.92,59.040001 106.24,56.32 l 4.16,-3.040001 3.84,-3.360001 3.52,-3.519996 3.36,-3.840001 3.04,-4.159999 2.72,-4.32 L 129.28,29.6 131.2,24.959999 132.96001,20.16 134.24,15.2 135.2,10.24 135.84,5.28 V 0"
       style="fill:none;stroke:#000000;stroke-width:26.4;stroke-linecap:round;stroke-linejoin:round;stroke-miterlimit:10;stroke-dasharray:none;stroke-opacity:1"
       transform="translate(330.15999,388.77327)"
       clip-path="url(#clipPath10)" />
    <path
       id="path11"
       d="m 295.35999,501.44 h 186.88"
       style="fill:none;stroke:#000000;stroke-width:26.4;stroke-linecap:round;stroke-linejoin:round;stroke-miterlimit:10;stroke-dasharray:none;stroke-opacity:1"
       transform="translate(-152.08,-316.34673)"
       clip-path="url(#clipPath12)" />
    <path
       id="path13"
       d="M 261.44,637.28003 H 482.23999"
       style="fill:none;stroke:#000000;stroke-width:26.4;stroke-linecap:round;stroke-linejoin:round;stroke-miterlimit:10;stroke-dasharray:none;stroke-opacity:1"
       transform="translate(-152.08,-316.34673)"
       clip-path="url(#clipPath14)" />
  </g>
</svg>
