<?xml version="1.0" encoding="UTF-8" standalone="no"?>
<!-- Created with Inkscape (http://www.inkscape.org/) -->

<svg
   version="1.1"
   id="svg1"
   width="376.21332"
   height="603.33331"
   viewBox="0 0 376.21332 603.33331"
   sodipodi:docname="Saturn.pdf"
   xmlns:inkscape="http://www.inkscape.org/namespaces/inkscape"
   xmlns:sodipodi="http://sodipodi.sourceforge.net/DTD/sodipodi-0.dtd"
   xmlns="http://www.w3.org/2000/svg"
   xmlns:svg="http://www.w3.org/2000/svg">
  <defs
     id="defs1">
    <clipPath
       clipPathUnits="userSpaceOnUse"
       id="clipPath2">
      <path
         d="M 26.4,26.559999 V 1096.16 H 767.03998 V 26.559999 Z"
         transform="translate(-286.23999,-820.79999)"
         clip-rule="evenodd"
         id="path2" />
    </clipPath>
    <clipPath
       clipPathUnits="userSpaceOnUse"
       id="clipPath4">
      <path
         d="M 26.4,26.559999 V 1096.16 H 767.03998 V 26.559999 Z"
         clip-rule="evenodd"
         id="path4" />
    </clipPath>
    <clipPath
       clipPathUnits="userSpaceOnUse"
       id="clipPath6">
      <path
         d="M 26.4,26.559999 V 1096.16 H 767.03998 V 26.559999 Z"
         clip-rule="evenodd"
         id="path6" />
    </clipPath>
  </defs>
  <sodipodi:namedview
     id="namedview1"
     pagecolor="#505050"
     bordercolor="#eeeeee"
     borderopacity="1"
     inkscape:showpageshadow="0"
     inkscape:pageopacity="0"
     inkscape:pagecheckerboard="0"
     inkscape:deskcolor="#505050">
    <inkscape:page
       x="0"
       y="0"
       inkscape:label="1"
       id="page1"
       width="376.21332"
       height="603.33331"
       margin="0"
       bleed="0" />
  </sodipodi:namedview>
  <g
     id="g1"
     inkscape:groupmode="layer"
     inkscape:label="1">
    <path
       id="path1"
       d="m 0,0 8.16,4.32 8.32,3.84 8.640001,3.52 8.639997,3.04 8.960003,2.560001 L 51.68,19.52 60.799999,21.120001 69.919998,22.4 79.040001,23.360001 88.32,23.68 h 9.279998 L 106.72,23.200001 116,22.24 l 9.12,-1.440001 8.96,-1.92 8.95999,-2.24 L 151.84,13.92 l 8.64,-3.2 8.63999,-3.52 8.32001,-4 8.16001,-4.48 7.83999,-4.8 7.67999,-5.12 7.36001,-5.599999 7.04,-5.76 6.87999,-6.24 6.56002,-6.560002 6.07998,-6.880001 5.92002,-7.199997 5.43998,-7.36 5.12001,-7.680004 4.64,-8 4.32001,-8.159996 4,-8.32 3.51999,-8.639999 3.04001,-8.640002 2.72,-8.8 L 276,-124 l 1.76001,-9.11999 1.28,-9.12001 0.95999,-9.28 0.48001,-9.12 -0.16,-9.28 -0.32001,-9.28 -0.95999,-9.12001 -1.44,-9.11999 -1.76001,-9.12 -2.23999,-8.96 -2.72001,-8.80001 -3.04,-8.64 -3.51999,-8.64 -4,-8.31999 -4.32001,-8.15999 -4.8,-7.84002 -5.12,-7.68 -5.44,-7.51999 -5.92,-7.04 -6.08,-6.88001 -6.56,-6.56 -6.88,-6.23999 -7.04,-5.76001 -7.52,-5.6 -7.67999,-5.12 -7.84002,-4.79999 -8.15998,-4.32 -8.32001,-4 -8.48,-3.51999 -8.8,-3.20001 -8.8,-2.72 -8.95999,-2.24 -8.96001,-1.76 -9.12,-1.44001 -9.28,-0.95999 -9.119997,-0.48001 h -9.280007 l -9.279998,0.32001 -9.119996,0.95999 -9.120002,1.28 -9.119999,1.76001 -8.959999,2.23999 -8.800003,2.56 -8.8,3.04 -8.479999,3.52002 -8.48,4 -8.16,4.15998 -7.84,4.80001"
       style="fill:none;stroke:#000000;stroke-width:26.4;stroke-linecap:round;stroke-linejoin:round;stroke-miterlimit:10;stroke-dasharray:none;stroke-opacity:1"
       transform="translate(286.23999,822.13326)"
       clip-path="url(#clipPath2)" />
    <path
       id="path3"
       d="m 264.64001,504.79999 113.28,-226.56"
       style="fill:none;stroke:#000000;stroke-width:26.4;stroke-linecap:round;stroke-linejoin:round;stroke-miterlimit:10;stroke-dasharray:none;stroke-opacity:1"
       transform="translate(0,1.3332747)"
       clip-path="url(#clipPath4)" />
    <path
       id="path5"
       d="M 226.88,353.76001 H 453.44"
       style="fill:none;stroke:#000000;stroke-width:26.4;stroke-linecap:round;stroke-linejoin:round;stroke-miterlimit:10;stroke-dasharray:none;stroke-opacity:1"
       transform="translate(0,1.3332747)"
       clip-path="url(#clipPath6)" />
  </g>
</svg>
