<?xml version="1.0" encoding="UTF-8" standalone="no"?>
<!-- Created with Inkscape (http://www.inkscape.org/) -->

<svg
   version="1.1"
   id="svg1"
   width="494.93332"
   height="367.06668"
   viewBox="0 0 494.93332 367.06668"
   sodipodi:docname="Saturn38.pdf"
   xmlns:inkscape="http://www.inkscape.org/namespaces/inkscape"
   xmlns:sodipodi="http://sodipodi.sourceforge.net/DTD/sodipodi-0.dtd"
   xmlns="http://www.w3.org/2000/svg"
   xmlns:svg="http://www.w3.org/2000/svg">
  <defs
     id="defs1">
    <clipPath
       clipPathUnits="userSpaceOnUse"
       id="clipPath2">
      <path
         d="M 26.4,26.559999 V 1096.16 H 767.03998 V 26.559999 Z"
         transform="translate(-356.64001,-564.15997)"
         clip-rule="evenodd"
         id="path2" />
    </clipPath>
    <clipPath
       clipPathUnits="userSpaceOnUse"
       id="clipPath4">
      <path
         d="M 26.4,26.559999 V 1096.16 H 767.03998 V 26.559999 Z"
         transform="translate(-572,-573.12)"
         clip-rule="evenodd"
         id="path4" />
    </clipPath>
    <clipPath
       clipPathUnits="userSpaceOnUse"
       id="clipPath6">
      <path
         d="M 26.4,26.559999 V 1096.16 H 767.03998 V 26.559999 Z"
         transform="translate(-3.3333333e-6)"
         clip-rule="evenodd"
         id="path6" />
    </clipPath>
    <clipPath
       clipPathUnits="userSpaceOnUse"
       id="clipPath8">
      <path
         d="M 26.4,26.559999 V 1096.16 H 767.03998 V 26.559999 Z"
         transform="translate(-3.3333333e-6)"
         clip-rule="evenodd"
         id="path8" />
    </clipPath>
    <clipPath
       clipPathUnits="userSpaceOnUse"
       id="clipPath10">
      <path
         d="M 26.4,26.559999 V 1096.16 H 767.03998 V 26.559999 Z"
         transform="translate(-516.96002,-644.64002)"
         clip-rule="evenodd"
         id="path10" />
    </clipPath>
  </defs>
  <sodipodi:namedview
     id="namedview1"
     pagecolor="#505050"
     bordercolor="#eeeeee"
     borderopacity="1"
     inkscape:showpageshadow="0"
     inkscape:pageopacity="0"
     inkscape:pagecheckerboard="0"
     inkscape:deskcolor="#505050">
    <inkscape:page
       x="0"
       y="0"
       inkscape:label="1"
       id="page1"
       width="494.93332"
       height="367.06668"
       margin="0"
       bleed="0" />
  </sodipodi:namedview>
  <g
     id="g1"
     inkscape:groupmode="layer"
     inkscape:label="1">
    <path
       id="path1"
       d="m 0,0 -5.44,-5.28 -5.6,-5.12 -5.919999,-4.8 -6.080002,-4.64 -6.08,-4.32 -6.399999,-4 -6.239998,-3.84 -6.400002,-3.52 -6.560001,-3.040001 -6.559998,-2.879998 L -67.68,-43.84 l -6.559998,-2.240002 -6.560005,-1.759998 -6.399994,-1.439999 -6.240005,-1.120003 -6.399994,-0.639999 -6.080004,-0.32 H -112 l -5.76,0.32 -5.76,0.799999 -5.44001,1.120003 -5.27999,1.439999 -5.12,1.920002 -4.8,2.079998 -4.64,2.560001 -4.31999,2.879997 -4,3.200001 -3.68001,3.520001 -3.36,3.84 -3.2,4 -2.72,4.479999 -2.4,4.640001 -2.08,4.8 -1.76001,5.12 -1.43998,5.44 -0.96001,5.6 -0.8,5.6 -0.15999,5.92 V 24 l 0.47999,6.24 0.80001,6.24 1.11999,6.400001 1.60001,6.399998 1.75999,6.560001 2.24001,6.400002 2.71998,6.560001 2.88001,6.559998 3.2,6.400001 3.52,6.400002 3.84,6.399994 4.16,6.240002 4.48,6.08 4.64,6.08 4.96,5.76 5.12,5.76 5.28,5.27999"
       style="fill:none;stroke:#000000;stroke-width:26.4;stroke-linecap:round;stroke-linejoin:round;stroke-miterlimit:10;stroke-dasharray:none;stroke-opacity:1"
       transform="translate(211.22668,185.07991)"
       clip-path="url(#clipPath2)" />
    <path
       id="path3"
       d="m 0,0 5.12,-5.76 4.8,-5.92 4.64,-6.08 4.159999,-6.24 4,-6.24 3.680001,-6.399999 3.36,-6.560002 3.039999,-6.399997 L 35.52,-56.16 37.919998,-62.720001 40,-69.279999 41.599998,-75.68 43.040001,-82.080002 43.84,-88.480003 44.48,-94.720001 44.639999,-100.8 44.48,-106.72 44,-112.64 l -0.799999,-5.6 -1.280003,-5.44 L 40.32,-128.96001 38.240002,-133.92 36,-138.72 33.279999,-143.2 30.4,-147.36 l -3.359999,-4 -3.68,-3.52 -3.840001,-3.36 -4.32,-3.04 -4.48,-2.56 -4.64,-2.4 -5.12,-1.92 -5.12,-1.59999 -5.44,-1.28 -5.76,-0.80001 -5.760001,-0.48001 -5.92,-0.15999 -6.079998,0.15999 -6.240002,0.64002 -6.399997,0.95999 -6.400002,1.28 -6.560001,1.6 -6.400002,2.08001 -6.559997,2.39999 -6.559998,2.72 -6.560005,3.03999 -6.399994,3.36001 -6.400001,3.68 -6.240002,4 -6.24,4.32 -6.08,4.48001 -5.92,4.79998 -5.92,4.96001 -5.60001,5.28 -5.27999,5.6 -5.28,5.6 -4.95999,5.92 -4.64,5.92 -4.48001,6.080002 -4.15999,6.239997"
       style="fill:none;stroke:#000000;stroke-width:26.4;stroke-linecap:round;stroke-linejoin:round;stroke-miterlimit:10;stroke-dasharray:none;stroke-opacity:1"
       transform="translate(426.58667,194.03994)"
       clip-path="url(#clipPath4)" />
    <path
       id="path5"
       d="m 409.60001,485.76001 -52.96,78.71997"
       style="fill:none;stroke:#000000;stroke-width:26.4;stroke-linecap:round;stroke-linejoin:round;stroke-miterlimit:10;stroke-dasharray:none;stroke-opacity:1"
       transform="translate(-145.41333,-379.08006)"
       clip-path="url(#clipPath6)" />
    <path
       id="path7"
       d="M 572.15997,573.12 517.12,644.64001"
       style="fill:none;stroke:#000000;stroke-width:26.4;stroke-linecap:round;stroke-linejoin:round;stroke-miterlimit:10;stroke-dasharray:none;stroke-opacity:1"
       transform="translate(-145.41333,-379.08006)"
       clip-path="url(#clipPath8)" />
    <path
       id="path9"
       d="m 0,0 -2.56,2.88 -2.4,3.2 -2.24,3.36 -1.76,3.52 -1.44,3.679999 -1.28,3.680001 -0.8,3.84 -0.48,4 -0.32,4 0.32,3.84 0.48,4 0.8,3.84 1.28,3.84 1.44,3.680001 1.76,3.52 2.24,3.200001 2.4,3.199997 2.72,2.880005 2.88,2.719993 3.04,2.400002 3.36,2.080002 3.52,1.919998 3.679999,1.440002 L 20.48,76 l 3.84,0.800003 3.84,0.479996 4,0.160003 4,-0.160003 L 40,76.800003 44,76 l 3.68,-1.279999 3.680001,-1.440002 3.52,-1.919998 3.360001,-2.080002 3.039997,-2.400002 3.040001,-2.719993 2.559997,-2.880005 2.400002,-3.199997 2.239998,-3.200001 1.760002,-3.52 L 74.879997,47.68 76,43.84 76.800003,40 l 0.639999,-4 0.159996,-3.84 -0.159996,-4 -0.639999,-4 L 76,20.32 74.879997,16.639999 73.279999,12.96 71.519997,9.44 69.279999,6.08 66.879997,2.88 64.160004,0"
       style="fill:none;stroke:#000000;stroke-width:26.4;stroke-linecap:round;stroke-linejoin:round;stroke-miterlimit:10;stroke-dasharray:none;stroke-opacity:1"
       transform="translate(371.54669,265.55996)"
       clip-path="url(#clipPath10)" />
  </g>
</svg>
