<?xml version="1.0" encoding="UTF-8" standalone="no"?>
<!-- Created with Inkscape (http://www.inkscape.org/) -->

<svg
   version="1.1"
   id="svg1"
   width="425.57333"
   height="496.54666"
   viewBox="0 0 425.57333 496.54666"
   sodipodi:docname="Saturn9.pdf"
   xmlns:inkscape="http://www.inkscape.org/namespaces/inkscape"
   xmlns:sodipodi="http://sodipodi.sourceforge.net/DTD/sodipodi-0.dtd"
   xmlns="http://www.w3.org/2000/svg"
   xmlns:svg="http://www.w3.org/2000/svg">
  <defs
     id="defs1">
    <clipPath
       clipPathUnits="userSpaceOnUse"
       id="clipPath2">
      <path
         d="M 26.4,26.559999 V 1096.16 H 767.03998 V 26.559999 Z"
         transform="translate(3.3333334e-6)"
         clip-rule="evenodd"
         id="path2" />
    </clipPath>
    <clipPath
       clipPathUnits="userSpaceOnUse"
       id="clipPath4">
      <path
         d="M 26.4,26.559999 V 1096.16 H 767.03998 V 26.559999 Z"
         transform="translate(-508.32001,-486.23999)"
         clip-rule="evenodd"
         id="path4" />
    </clipPath>
    <clipPath
       clipPathUnits="userSpaceOnUse"
       id="clipPath6">
      <path
         d="M 26.4,26.559999 V 1096.16 H 767.03998 V 26.559999 Z"
         transform="translate(3.3333334e-6)"
         clip-rule="evenodd"
         id="path6" />
    </clipPath>
    <clipPath
       clipPathUnits="userSpaceOnUse"
       id="clipPath8">
      <path
         d="M 26.4,26.559999 V 1096.16 H 767.03998 V 26.559999 Z"
         transform="translate(-286.07999,-486.07999)"
         clip-rule="evenodd"
         id="path8" />
    </clipPath>
  </defs>
  <sodipodi:namedview
     id="namedview1"
     pagecolor="#505050"
     bordercolor="#eeeeee"
     borderopacity="1"
     inkscape:showpageshadow="0"
     inkscape:pageopacity="0"
     inkscape:pagecheckerboard="0"
     inkscape:deskcolor="#505050">
    <inkscape:page
       x="0"
       y="0"
       inkscape:label="1"
       id="page1"
       width="425.57333"
       height="496.54666"
       margin="0"
       bleed="0" />
  </sodipodi:namedview>
  <g
     id="g1"
     inkscape:groupmode="layer"
     inkscape:label="1">
    <path
       id="path1"
       d="M 432.79999,409.60001 433.28,787.84003"
       style="fill:none;stroke:#000000;stroke-width:26.4;stroke-linecap:round;stroke-linejoin:round;stroke-miterlimit:10;stroke-dasharray:none;stroke-opacity:1"
       transform="translate(-185.42667,-309.66673)"
       clip-path="url(#clipPath2)" />
    <path
       id="path3"
       d="m 0,0 h 5.44 l 5.44,-0.48 5.28,-0.96 5.120001,-1.28 5.119999,-1.6 5.12,-1.92 4.8,-2.4 4.639999,-2.72 4.48,-2.88 4.159999,-3.36 4,-3.520001 3.840001,-3.839998 3.36,-4.160002 L 64,-33.439999 l 2.879997,-4.640003 2.400002,-4.799999 2.239998,-4.799999 1.760002,-5.119999 1.440002,-5.119999 1.119995,-5.280003 0.640007,-5.439998 0.32,-5.279999 -0.160004,-5.440003 -0.319999,-5.279998 -0.959999,-5.279999 -1.120003,-5.279999 -1.599999,-5.120003 -1.919998,-5.12 -2.239998,-4.8 -2.720001,-4.64 -2.880001,-4.48 -3.200001,-4.32 -3.68,-4 -3.68,-3.84 -4.16,-3.51999 -4.32,-3.04001 -4.479999,-2.88001 -4.8,-2.55999 -4.800001,-2.23999 -5.120001,-1.92 -5.119999,-1.44 -5.28,-1.12001 -5.28,-0.79999 -5.44,-0.32001 h -5.28 l -5.44,0.32001 -5.28,0.79999 -5.28,1.12001 -5.119999,1.59999 -5.120001,1.91999 -4.799999,2.24001 -4.799999,2.56 -4.480004,2.88 -4.32,3.2 -4,3.52 -3.84,3.68 -3.519996,4.16 -3.200001,4.32 -3.040001,4.48 -2.559998,4.64 -2.240005,4.96 -1.919998,4.96 -1.440003,5.120003 -1.279998,5.279999 -0.799996,5.279998 -0.480003,5.440003 v 5.279999"
       style="fill:none;stroke:#000000;stroke-width:26.4;stroke-linecap:round;stroke-linejoin:round;stroke-miterlimit:10;stroke-dasharray:none;stroke-opacity:1"
       transform="translate(322.89334,176.57326)"
       clip-path="url(#clipPath4)" />
    <path
       id="path5"
       d="m 503.67999,486.23999 h -217.44"
       style="fill:none;stroke:#000000;stroke-width:26.4;stroke-linecap:round;stroke-linejoin:round;stroke-miterlimit:10;stroke-dasharray:none;stroke-opacity:1"
       transform="translate(-185.42667,-309.66673)"
       clip-path="url(#clipPath6)" />
    <path
       id="path7"
       d="M 0,0 -5.12,0.16 -10.4,0.48 -15.68,1.12 -20.799999,2.24 -25.92,3.68 -30.879999,5.44 -35.68,7.68 l -4.64,2.4 -4.479999,2.88 -4.32,3.04 -4,3.360001 -3.68,3.68 -3.520001,4 -3.36,4.16 -2.879998,4.479999 -2.560005,4.48 -2.239998,4.799999 -1.919998,4.959999 -1.599998,4.960003 L -76.160004,60 l -0.799995,5.279999 -0.480003,5.279999 -0.159996,5.279998 0.319999,5.280007 0.64,5.119995 0.959999,5.279999 1.279998,5.120002 1.760003,4.960001 2.080001,4.8 2.399994,4.64 2.720002,4.64 3.04,4.32 3.360001,4 3.68,3.84 3.840001,3.52 4.159999,3.36 4.32,3.03999 4.639999,2.56002 4.640004,2.39999 4.959999,1.92 4.959999,1.75999 5.120001,1.28 5.279999,0.96001 5.12,0.47999 5.28,0.16001"
       style="fill:none;stroke:#000000;stroke-width:26.4;stroke-linecap:round;stroke-linejoin:round;stroke-miterlimit:10;stroke-dasharray:none;stroke-opacity:1"
       transform="translate(100.65332,176.41326)"
       clip-path="url(#clipPath8)" />
  </g>
</svg>
