<?xml version="1.0" encoding="UTF-8" standalone="no"?>
<!-- Created with Inkscape (http://www.inkscape.org/) -->

<svg
   version="1.1"
   id="svg1"
   width="285.49332"
   height="497.86667"
   viewBox="0 0 285.49332 497.86667"
   sodipodi:docname="Saturn21.pdf"
   xmlns:inkscape="http://www.inkscape.org/namespaces/inkscape"
   xmlns:sodipodi="http://sodipodi.sourceforge.net/DTD/sodipodi-0.dtd"
   xmlns="http://www.w3.org/2000/svg"
   xmlns:svg="http://www.w3.org/2000/svg">
  <defs
     id="defs1">
    <clipPath
       clipPathUnits="userSpaceOnUse"
       id="clipPath2">
      <path
         d="M 26.4,26.559999 V 1096.16 H 767.03998 V 26.559999 Z"
         clip-rule="evenodd"
         id="path2" />
    </clipPath>
    <clipPath
       clipPathUnits="userSpaceOnUse"
       id="clipPath4">
      <path
         d="M 26.4,26.559999 V 1096.16 H 767.03998 V 26.559999 Z"
         clip-rule="evenodd"
         id="path4" />
    </clipPath>
    <clipPath
       clipPathUnits="userSpaceOnUse"
       id="clipPath6">
      <path
         d="M 26.4,26.559999 V 1096.16 H 767.03998 V 26.559999 Z"
         transform="translate(-290.56,-749.76001)"
         clip-rule="evenodd"
         id="path6" />
    </clipPath>
    <clipPath
       clipPathUnits="userSpaceOnUse"
       id="clipPath8">
      <path
         d="M 26.4,26.559999 V 1096.16 H 767.03998 V 26.559999 Z"
         clip-rule="evenodd"
         id="path8" />
    </clipPath>
    <clipPath
       clipPathUnits="userSpaceOnUse"
       id="clipPath10">
      <path
         d="M 26.4,26.559999 V 1096.16 H 767.03998 V 26.559999 Z"
         transform="translate(-341.12,-697.12)"
         clip-rule="evenodd"
         id="path10" />
    </clipPath>
  </defs>
  <sodipodi:namedview
     id="namedview1"
     pagecolor="#505050"
     bordercolor="#eeeeee"
     borderopacity="1"
     inkscape:showpageshadow="0"
     inkscape:pageopacity="0"
     inkscape:pagecheckerboard="0"
     inkscape:deskcolor="#505050">
    <inkscape:page
       x="0"
       y="0"
       inkscape:label="1"
       id="page1"
       width="285.49332"
       height="497.86667"
       margin="0"
       bleed="0" />
  </sodipodi:namedview>
  <g
     id="g1"
     inkscape:groupmode="layer"
     inkscape:label="1">
    <path
       id="path1"
       d="M 409.28,583.20001 500,639.84003"
       style="fill:none;stroke:#000000;stroke-width:26.4;stroke-linecap:round;stroke-linejoin:round;stroke-miterlimit:10;stroke-dasharray:none;stroke-opacity:1"
       transform="translate(0,-5.8666667e-5)"
       clip-path="url(#clipPath2)" />
    <path
       id="path3"
       d="m 500,639.84003 -90.72,56.63995"
       style="fill:none;stroke:#000000;stroke-width:26.4;stroke-linecap:round;stroke-linejoin:round;stroke-miterlimit:10;stroke-dasharray:none;stroke-opacity:1"
       transform="translate(0,-5.8666667e-5)"
       clip-path="url(#clipPath4)" />
    <path
       id="path5"
       d="m 0,0 5.6,5.28 5.92,4.8 6.08,4.64 6.24,4.159999 6.56,3.68 L 36.959999,26.08 43.84,28.959999 50.720001,31.52 l 7.039997,2.239998 7.200001,1.760002 7.200005,1.279999 7.359993,0.799999 7.200004,0.480004 h 7.360001 l 7.359998,-0.480004 7.2,-0.799999 7.2,-1.279999 7.2,-1.760002 L 130.08,31.52 136.96001,28.959999 143.84,25.92 l 6.72,-3.360001 6.40001,-3.84 L 163.2,14.56 l 6.08,-4.48 5.92,-4.96 5.6,-5.28 5.28,-5.44 5.12,-5.92 4.64,-6.24 4.48001,-6.4 4.15999,-6.719999 3.84001,-6.879999 3.51999,-7.200001 3.04,-7.360001 2.72001,-7.52 2.39999,-7.679997 2.08,-7.840004 1.59999,-8 1.28002,-8 0.79998,-8 L 226.24,-107.52 v -8.16 l -0.32,-8.16 -0.80001,-8 L 224,-140 l -1.44,-7.84 -1.92,-7.83999 -2.24001,-7.84001 -2.55999,-7.51999 -3.04,-7.52001 -3.36,-7.19999 -3.68001,-7.04001 -4.15998,-6.72 -4.32001,-6.56 -4.64,-6.24001 -4.96001,-5.91999 -5.28,-5.76 -5.43998,-5.28 -5.76001,-5.11999 -6.08001,-4.64 -6.23999,-4.16001 -6.4,-4 -6.56,-3.52 -6.72,-3.03999 -6.87999,-2.72002 -7.04001,-2.39999 -7.2,-1.91999 -7.2,-1.44 -7.2,-0.96002 -7.36,-0.63999 h -7.360001 l -7.199997,0.16001 -7.36,0.79999 -7.200005,1.11999 L 60,-260.16 l -7.040001,2.08001 -7.040001,2.4 -6.879997,2.87999 -6.720001,3.36 -6.56,3.68001 -6.24,4 -6.24,4.47999 -5.92,4.8 -5.6,5.12 -5.44,5.44 -5.28,5.59999"
       style="fill:none;stroke:#000000;stroke-width:26.4;stroke-linecap:round;stroke-linejoin:round;stroke-miterlimit:10;stroke-dasharray:none;stroke-opacity:1"
       transform="translate(290.56,749.75995)"
       clip-path="url(#clipPath6)" />
    <path
       id="path7"
       d="M 281.76001,533.59998 286.07999,334.88"
       style="fill:none;stroke:#000000;stroke-width:26.4;stroke-linecap:round;stroke-linejoin:round;stroke-miterlimit:10;stroke-dasharray:none;stroke-opacity:1"
       transform="translate(0,-5.8666667e-5)"
       clip-path="url(#clipPath8)" />
    <path
       id="path9"
       d="M 0,0 -2.88,-1.92 -6.24,-3.52 -9.6,-4.96 -13.28,-6.08 -16.799999,-7.04 -20.48,-7.52 -24.32,-7.84 -28,-8 l -3.68,0.32 -3.680001,0.48 -3.52,0.96 -3.360001,1.12 -3.199997,1.28 -3.040001,1.6 -2.880001,1.92 -2.720001,2.08 L -56.32,4 -58.400002,6.56 -60.32,9.28 -61.759998,12 -62.880001,14.88 -63.68,17.92 -64.160004,20.959999 -64.32,24.16 -64.160004,27.360001 -63.68,30.4 l 0.959999,3.199998 1.120003,3.040001 L -60.16,39.52 l 1.919998,2.880002 2.080002,2.559997"
       style="fill:none;stroke:#000000;stroke-width:26.4;stroke-linecap:round;stroke-linejoin:round;stroke-miterlimit:10;stroke-dasharray:none;stroke-opacity:1"
       transform="translate(341.12,697.11994)"
       clip-path="url(#clipPath10)" />
  </g>
</svg>
