<?xml version="1.0" encoding="UTF-8" standalone="no"?>
<!-- Created with Inkscape (http://www.inkscape.org/) -->

<svg
   version="1.1"
   id="svg1"
   width="316.16"
   height="492.54666"
   viewBox="0 0 316.16 492.54666"
   sodipodi:docname="Saturn32.pdf"
   xmlns:inkscape="http://www.inkscape.org/namespaces/inkscape"
   xmlns:sodipodi="http://sodipodi.sourceforge.net/DTD/sodipodi-0.dtd"
   xmlns="http://www.w3.org/2000/svg"
   xmlns:svg="http://www.w3.org/2000/svg">
  <defs
     id="defs1">
    <clipPath
       clipPathUnits="userSpaceOnUse"
       id="clipPath2">
      <path
         d="M 26.4,26.559999 V 1096.16 H 767.03998 V 26.559999 Z"
         transform="translate(-377.76001,-787.84002)"
         clip-rule="evenodd"
         id="path2" />
    </clipPath>
    <clipPath
       clipPathUnits="userSpaceOnUse"
       id="clipPath4">
      <path
         d="M 26.4,26.559999 V 1096.16 H 767.03998 V 26.559999 Z"
         transform="translate(-377.76001,-787.84002)"
         clip-rule="evenodd"
         id="path4" />
    </clipPath>
    <clipPath
       clipPathUnits="userSpaceOnUse"
       id="clipPath6">
      <path
         d="M 26.4,26.559999 V 1096.16 H 767.03998 V 26.559999 Z"
         clip-rule="evenodd"
         id="path6" />
    </clipPath>
    <clipPath
       clipPathUnits="userSpaceOnUse"
       id="clipPath8">
      <path
         d="M 26.4,26.559999 V 1096.16 H 767.03998 V 26.559999 Z"
         clip-rule="evenodd"
         id="path8" />
    </clipPath>
    <clipPath
       clipPathUnits="userSpaceOnUse"
       id="clipPath10">
      <path
         d="M 26.4,26.559999 V 1096.16 H 767.03998 V 26.559999 Z"
         clip-rule="evenodd"
         id="path10" />
    </clipPath>
    <clipPath
       clipPathUnits="userSpaceOnUse"
       id="clipPath12">
      <path
         d="M 26.4,26.559999 V 1096.16 H 767.03998 V 26.559999 Z"
         clip-rule="evenodd"
         id="path12" />
    </clipPath>
  </defs>
  <sodipodi:namedview
     id="namedview1"
     pagecolor="#505050"
     bordercolor="#eeeeee"
     borderopacity="1"
     inkscape:showpageshadow="0"
     inkscape:pageopacity="0"
     inkscape:pagecheckerboard="0"
     inkscape:deskcolor="#505050">
    <inkscape:page
       x="0"
       y="0"
       inkscape:label="1"
       id="page1"
       width="316.16"
       height="492.54666"
       margin="0"
       bleed="0" />
  </sodipodi:namedview>
  <g
     id="g1"
     inkscape:groupmode="layer"
     inkscape:label="1">
    <path
       id="path1"
       d="m 0,0 8.32,-0.16 8.16,-0.64 8.159999,-1.12 8,-1.6 7.840001,-1.92 7.84,-2.4 7.68,-2.88 7.52,-3.2 7.359997,-3.68 7.200005,-4 6.879997,-4.32 6.559998,-4.799999 L 97.919998,-35.84 104,-41.279999 l 5.76,-5.760002 5.44,-6.079998 5.12,-6.400001 4.8,-6.719998 4.48001,-6.880005 4,-7.040001 3.67999,-7.359993 3.2,-7.520004 2.72,-7.679999 2.40001,-7.84 2.07998,-8 1.44,-8 1.12001,-8 0.79999,-8.16 0.16001,-8.31999 -0.16001,-8.16001 -0.79999,-8.16 -1.12001,-8 -1.44,-8 -2.07998,-8 -2.40001,-7.84 -2.72,-7.68 -3.2,-7.51999 -3.67999,-7.36 -4,-7.04001 -4.48001,-6.87999 -4.8,-6.72 -5.12,-6.40001 -5.44,-6.08 -5.76,-5.76001 -6.080002,-5.43998 -6.400001,-5.12002 -6.559998,-4.79999 -6.879997,-4.32001 -7.200005,-4.16 L 63.52,-288 56,-291.20001 l -7.68,-2.87998 -7.84,-2.40002 -7.840001,-1.91998 -8,-1.60001 L 16.48,-301.12 8.32,-301.76001 0,-302.07999"
       style="fill:none;stroke:#000000;stroke-width:26.4;stroke-linecap:round;stroke-linejoin:round;stroke-miterlimit:10;stroke-dasharray:none;stroke-opacity:1"
       transform="translate(377.76001,771.82663)"
       clip-path="url(#clipPath2)" />
    <path
       id="path3"
       d="m 0,0 7.36,-5.6 7.04,-6.08 6.559999,-6.4 6.400002,-6.719999 5.919998,-7.040001 5.600002,-7.200001 5.279999,-7.52 4.959999,-7.840001 4.479999,-8 4.16,-8.319999 3.680001,-8.32 L 64.800003,-87.68 67.68,-96.480003 70.080002,-105.28 l 2.080002,-9.12 1.439994,-8.96 1.120003,-9.28 0.799996,-9.11999 0.160003,-9.28 -0.160003,-9.12001 -0.799996,-9.28 -1.120003,-9.12 -1.439994,-8.96 -2.080002,-9.12 -2.400002,-8.8 -2.879997,-8.8 -3.360004,-8.64 -3.680001,-8.32 -4.16,-8.32 -4.479999,-8 -4.959999,-7.84 -5.279999,-7.52 -5.600002,-7.19999 -5.919998,-7.04001 -6.400002,-6.72 L 14.4,-290.23999 7.36,-296.32001 0,-302.07999"
       style="fill:none;stroke:#000000;stroke-width:26.4;stroke-linecap:round;stroke-linejoin:round;stroke-miterlimit:10;stroke-dasharray:none;stroke-opacity:1"
       transform="translate(377.76001,771.82663)"
       clip-path="url(#clipPath4)" />
    <path
       id="path5"
       d="M 377.92001,787.84003 H 340.16"
       style="fill:none;stroke:#000000;stroke-width:26.4;stroke-linecap:round;stroke-linejoin:round;stroke-miterlimit:10;stroke-dasharray:none;stroke-opacity:1"
       transform="translate(0,-16.013392)"
       clip-path="url(#clipPath6)" />
    <path
       id="path7"
       d="M 377.92001,485.92001 H 340.16"
       style="fill:none;stroke:#000000;stroke-width:26.4;stroke-linecap:round;stroke-linejoin:round;stroke-miterlimit:10;stroke-dasharray:none;stroke-opacity:1"
       transform="translate(0,-16.013392)"
       clip-path="url(#clipPath8)" />
    <path
       id="path9"
       d="M 340.16,334.88 V 485.92001"
       style="fill:none;stroke:#000000;stroke-width:26.4;stroke-linecap:round;stroke-linejoin:round;stroke-miterlimit:10;stroke-dasharray:none;stroke-opacity:1"
       transform="translate(0,-16.013392)"
       clip-path="url(#clipPath10)" />
    <path
       id="path11"
       d="M 264.64001,410.39999 H 415.67999"
       style="fill:none;stroke:#000000;stroke-width:26.4;stroke-linecap:round;stroke-linejoin:round;stroke-miterlimit:10;stroke-dasharray:none;stroke-opacity:1"
       transform="translate(0,-16.013392)"
       clip-path="url(#clipPath12)" />
  </g>
</svg>
