<?xml version="1.0" encoding="UTF-8" standalone="no"?>
<!-- Created with Inkscape (http://www.inkscape.org/) -->

<svg
   version="1.1"
   id="svg1"
   width="434.90668"
   height="492.54666"
   viewBox="0 0 434.90668 492.54666"
   sodipodi:docname="Saturn22.pdf"
   xmlns:inkscape="http://www.inkscape.org/namespaces/inkscape"
   xmlns:sodipodi="http://sodipodi.sourceforge.net/DTD/sodipodi-0.dtd"
   xmlns="http://www.w3.org/2000/svg"
   xmlns:svg="http://www.w3.org/2000/svg">
  <defs
     id="defs1">
    <clipPath
       clipPathUnits="userSpaceOnUse"
       id="clipPath2">
      <path
         d="M 26.4,26.559999 V 1096.16 H 767.03998 V 26.559999 Z"
         transform="translate(-515.35998,-670.71998)"
         clip-rule="evenodd"
         id="path2" />
    </clipPath>
    <clipPath
       clipPathUnits="userSpaceOnUse"
       id="clipPath4">
      <path
         d="M 26.4,26.559999 V 1096.16 H 767.03998 V 26.559999 Z"
         transform="translate(-513.44,-672.47998)"
         clip-rule="evenodd"
         id="path4" />
    </clipPath>
    <clipPath
       clipPathUnits="userSpaceOnUse"
       id="clipPath6">
      <path
         d="M 26.4,26.559999 V 1096.16 H 767.03998 V 26.559999 Z"
         clip-rule="evenodd"
         id="path6" />
    </clipPath>
    <clipPath
       clipPathUnits="userSpaceOnUse"
       id="clipPath8">
      <path
         d="M 26.4,26.559999 V 1096.16 H 767.03998 V 26.559999 Z"
         clip-rule="evenodd"
         id="path8" />
    </clipPath>
  </defs>
  <sodipodi:namedview
     id="namedview1"
     pagecolor="#505050"
     bordercolor="#eeeeee"
     borderopacity="1"
     inkscape:showpageshadow="0"
     inkscape:pageopacity="0"
     inkscape:pagecheckerboard="0"
     inkscape:deskcolor="#505050">
    <inkscape:page
       x="0"
       y="0"
       inkscape:label="1"
       id="page1"
       width="434.90668"
       height="492.54666"
       margin="0"
       bleed="0" />
  </sodipodi:namedview>
  <g
     id="g1"
     inkscape:groupmode="layer"
     inkscape:label="1">
    <path
       id="path1"
       d="m 0,0 5.6,-4.64 5.44,-5.12 4.96,-5.44 4.639999,-5.759999 4.32,-5.92 4,-6.24 3.68,-6.560001 3.200001,-6.720002 2.720001,-7.039997 2.559998,-7.040001 2.080002,-7.359996 1.599998,-7.360001 1.119999,-7.68 0.800003,-7.680001 0.48,-7.68 V -106.08 l -0.48,-7.84 -0.960003,-7.84 L 44.48,-129.60001 42.720001,-137.28 40.639999,-144.96001 38.080002,-152.64 35.200001,-160.16 32,-167.52 l -3.68,-7.36 -4.16,-7.04 -4.32,-6.88 -4.8,-6.72 -4.96,-6.4 -5.44,-6.24 -5.6,-5.92 -5.92,-5.59999 -6.24,-5.28002 -6.4,-5.11999 -6.72,-4.64 -6.879999,-4.31999 -7.040001,-4 -7.36,-3.52001 -7.360001,-3.19999 -7.360001,-2.88001 -7.679996,-2.39999 -7.68,-1.92 -7.680001,-1.60001 -7.68,-1.28 -7.840001,-0.80001 -7.68,-0.31998 -7.84,0.16 -7.52,0.47998 -7.68,0.96002 -7.36,1.43998 -7.36,1.76001 -7.2,2.08 -7.04,2.72 -6.72,2.88 -6.72,3.36001 -6.40001,3.83999 -6.07998,4.16001 -5.92002,4.47999 -5.43998,4.8 -5.28,5.12 -4.96001,5.44 -4.64,5.76 -4.32001,6.08 -4,6.24 -3.51999,6.56 -3.19999,6.88001 -2.88001,6.87999 -2.40001,7.20001 -1.91999,7.35998 -1.6,7.36 -1.12001,7.68001 -0.79998,7.67999 -0.32001,7.68001 v 7.68"
       style="fill:none;stroke:#000000;stroke-width:26.4;stroke-linecap:round;stroke-linejoin:round;stroke-miterlimit:10;stroke-dasharray:none;stroke-opacity:1"
       transform="translate(515.35998,678.73325)"
       clip-path="url(#clipPath2)" />
    <path
       id="path3"
       d="m 0,0 -4,1.92 -3.84,2.24 -3.68,2.56 -3.52,2.88 -3.2,3.04 L -21.280001,16 -24,19.68 l -2.24,3.84 -2.08,4 -1.76,4.16 -1.44,4.32 -0.96,4.32 -0.639999,4.479999 -0.32,4.48 0.16,4.479999 0.48,4.480004 0.799999,4.479999 1.280001,4.32 1.439998,4.159996 1.92,4.160004 2.24,3.839996 2.560002,3.840004 2.879999,3.360001 3.040001,3.36 3.359999,2.879997 3.68,2.720002 3.84,2.400001 4,2.079994 4.16,1.760004 4.32,1.28 4.32,0.96 4.48,0.64 4.48,0.32 h 4.48 l 4.479999,-0.48 4.48,-0.96 4.319999,-1.12 4.16,-1.6 4.160004,-1.919999 3.839996,-2.080002 3.84,-2.559997 3.360001,-2.880005 3.360001,-3.039993 2.880001,-3.520005 2.720001,-3.519996 2.400001,-3.840004 2.079995,-4 1.760002,-4.159996 1.279998,-4.32 1.120003,-4.320003 0.64,-4.48 0.319999,-4.48 -0.160003,-4.479999 -0.479996,-4.48 -0.959999,-4.479999"
       style="fill:none;stroke:#000000;stroke-width:26.4;stroke-linecap:round;stroke-linejoin:round;stroke-miterlimit:10;stroke-dasharray:none;stroke-opacity:1"
       transform="translate(513.44,680.49325)"
       clip-path="url(#clipPath4)" />
    <path
       id="path5"
       d="M 276.64001,544.64001 204.48,542.40002"
       style="fill:none;stroke:#000000;stroke-width:26.4;stroke-linecap:round;stroke-linejoin:round;stroke-miterlimit:10;stroke-dasharray:none;stroke-opacity:1"
       transform="translate(0,8.0132747)"
       clip-path="url(#clipPath6)" />
    <path
       id="path7"
       d="M 204.48,787.84003 V 334.88"
       style="fill:none;stroke:#000000;stroke-width:26.4;stroke-linecap:round;stroke-linejoin:round;stroke-miterlimit:10;stroke-dasharray:none;stroke-opacity:1"
       transform="translate(0,8.0132747)"
       clip-path="url(#clipPath8)" />
  </g>
</svg>
