<?xml version="1.0" encoding="UTF-8" standalone="no"?>
<!-- Created with Inkscape (http://www.inkscape.org/) -->

<svg
   version="1.1"
   id="svg1"
   width="501.60001"
   height="315.01334"
   viewBox="0 0 501.60001 315.01334"
   sodipodi:docname="Saturn41.pdf"
   xmlns:inkscape="http://www.inkscape.org/namespaces/inkscape"
   xmlns:sodipodi="http://sodipodi.sourceforge.net/DTD/sodipodi-0.dtd"
   xmlns="http://www.w3.org/2000/svg"
   xmlns:svg="http://www.w3.org/2000/svg">
  <defs
     id="defs1">
    <clipPath
       clipPathUnits="userSpaceOnUse"
       id="clipPath2">
      <path
         d="M 26.4,26.559999 V 1096.16 H 767.03998 V 26.559999 Z"
         transform="translate(-3.3333333e-6)"
         clip-rule="evenodd"
         id="path2" />
    </clipPath>
    <clipPath
       clipPathUnits="userSpaceOnUse"
       id="clipPath4">
      <path
         d="M 26.4,26.559999 V 1096.16 H 767.03998 V 26.559999 Z"
         transform="translate(-278.39999,-549.91998)"
         clip-rule="evenodd"
         id="path4" />
    </clipPath>
    <clipPath
       clipPathUnits="userSpaceOnUse"
       id="clipPath6">
      <path
         d="M 26.4,26.559999 V 1096.16 H 767.03998 V 26.559999 Z"
         transform="translate(-3.3333333e-6)"
         clip-rule="evenodd"
         id="path6" />
    </clipPath>
    <clipPath
       clipPathUnits="userSpaceOnUse"
       id="clipPath8">
      <path
         d="M 26.4,26.559999 V 1096.16 H 767.03998 V 26.559999 Z"
         transform="translate(-3.3333333e-6)"
         clip-rule="evenodd"
         id="path8" />
    </clipPath>
  </defs>
  <sodipodi:namedview
     id="namedview1"
     pagecolor="#505050"
     bordercolor="#eeeeee"
     borderopacity="1"
     inkscape:showpageshadow="0"
     inkscape:pageopacity="0"
     inkscape:pagecheckerboard="0"
     inkscape:deskcolor="#505050">
    <inkscape:page
       x="0"
       y="0"
       inkscape:label="1"
       id="page1"
       width="501.60001"
       height="315.01334"
       margin="0"
       bleed="0" />
  </sodipodi:namedview>
  <g
     id="g1"
     inkscape:groupmode="layer"
     inkscape:label="1">
    <path
       id="path1"
       d="M 547.84003,693.44 H 245.75999"
       style="fill:none;stroke:#000000;stroke-width:26.4;stroke-linecap:round;stroke-linejoin:round;stroke-miterlimit:10;stroke-dasharray:none;stroke-opacity:1"
       transform="translate(-145.41333,-404.44006)"
       clip-path="url(#clipPath2)" />
    <path
       id="path3"
       d="m 0,0 -4.96,-2.24 -5.12,-1.76 -5.12,-1.44 -5.28,-0.96 -5.44,-0.8 -5.440001,-0.16 h -5.439998 l -5.440003,0.48 -5.279998,0.96 -5.279999,1.28 -5.119999,1.6 -5.120003,1.92 -4.799995,2.4 -4.800003,2.72 -4.480004,3.04 -4.159996,3.36 -4,3.52 -3.840004,4 -3.36,4.16 L -95.68,26.559999 -98.559998,31.200001 -100.96,36 l -2.08,4.959999 -1.76,5.120003 -1.44,5.279999 -0.96,5.279998 -0.64,5.440003 -0.32,5.279999 0.16,5.440002 0.48,5.439995 0.96,5.279999 1.28,5.280006 1.76,5.119995 1.92,5.120003 2.400003,4.799999 2.879997,4.64 3.040001,4.48 3.360001,4.32 3.68,4 4,3.68 4.159996,3.36001 4.480004,3.19999 4.639999,2.72 4.799995,2.4 4.960003,2.08 5.119999,1.76 5.280003,1.44 5.279999,0.96 5.439998,0.48 5.440003,0.16"
       style="fill:none;stroke:#000000;stroke-width:26.4;stroke-linecap:round;stroke-linejoin:round;stroke-miterlimit:10;stroke-dasharray:none;stroke-opacity:1"
       transform="translate(132.98666,145.47992)"
       clip-path="url(#clipPath4)" />
    <path
       id="path5"
       d="M 547.84003,693.44 396.79999,467.04001"
       style="fill:none;stroke:#000000;stroke-width:26.4;stroke-linecap:round;stroke-linejoin:round;stroke-miterlimit:10;stroke-dasharray:none;stroke-opacity:1"
       transform="translate(-145.41333,-404.44006)"
       clip-path="url(#clipPath6)" />
    <path
       id="path7"
       d="M 396.79999,467.04001 623.35998,429.28"
       style="fill:none;stroke:#000000;stroke-width:26.4;stroke-linecap:round;stroke-linejoin:round;stroke-miterlimit:10;stroke-dasharray:none;stroke-opacity:1"
       transform="translate(-145.41333,-404.44006)"
       clip-path="url(#clipPath8)" />
  </g>
</svg>
