<?xml version="1.0" encoding="UTF-8" standalone="no"?>
<!-- Created with Inkscape (http://www.inkscape.org/) -->

<svg
   version="1.1"
   id="svg1"
   width="500.26666"
   height="435.14667"
   viewBox="0 0 500.26666 435.14667"
   sodipodi:docname="Saturn18.pdf"
   xmlns:inkscape="http://www.inkscape.org/namespaces/inkscape"
   xmlns:sodipodi="http://sodipodi.sourceforge.net/DTD/sodipodi-0.dtd"
   xmlns="http://www.w3.org/2000/svg"
   xmlns:svg="http://www.w3.org/2000/svg">
  <defs
     id="defs1">
    <clipPath
       clipPathUnits="userSpaceOnUse"
       id="clipPath2">
      <path
         d="M 26.4,26.559999 V 1096.16 H 767.03998 V 26.559999 Z"
         transform="translate(-523.52002,-472.95999)"
         clip-rule="evenodd"
         id="path2" />
    </clipPath>
    <clipPath
       clipPathUnits="userSpaceOnUse"
       id="clipPath4">
      <path
         d="M 26.4,26.559999 V 1096.16 H 767.03998 V 26.559999 Z"
         transform="translate(-311.68,-472.95999)"
         clip-rule="evenodd"
         id="path4" />
    </clipPath>
    <clipPath
       clipPathUnits="userSpaceOnUse"
       id="clipPath6">
      <path
         d="M 26.4,26.559999 V 1096.16 H 767.03998 V 26.559999 Z"
         transform="translate(3.3333333e-6)"
         clip-rule="evenodd"
         id="path6" />
    </clipPath>
    <clipPath
       clipPathUnits="userSpaceOnUse"
       id="clipPath8">
      <path
         d="M 26.4,26.559999 V 1096.16 H 767.03998 V 26.559999 Z"
         transform="translate(3.3333333e-6)"
         clip-rule="evenodd"
         id="path8" />
    </clipPath>
    <clipPath
       clipPathUnits="userSpaceOnUse"
       id="clipPath10">
      <path
         d="M 26.4,26.559999 V 1096.16 H 767.03998 V 26.559999 Z"
         transform="translate(3.3333333e-6)"
         clip-rule="evenodd"
         id="path10" />
    </clipPath>
    <clipPath
       clipPathUnits="userSpaceOnUse"
       id="clipPath12">
      <path
         d="M 26.4,26.559999 V 1096.16 H 767.03998 V 26.559999 Z"
         transform="translate(3.3333333e-6)"
         clip-rule="evenodd"
         id="path12" />
    </clipPath>
  </defs>
  <sodipodi:namedview
     id="namedview1"
     pagecolor="#505050"
     bordercolor="#eeeeee"
     borderopacity="1"
     inkscape:showpageshadow="0"
     inkscape:pageopacity="0"
     inkscape:pagecheckerboard="0"
     inkscape:deskcolor="#505050">
    <inkscape:page
       x="0"
       y="0"
       inkscape:label="1"
       id="page1"
       width="500.26666"
       height="435.14667"
       margin="0"
       bleed="0" />
  </sodipodi:namedview>
  <g
     id="g1"
     inkscape:groupmode="layer"
     inkscape:label="1">
    <path
       id="path1"
       d="m 0,0 -0.16,-6.56 -0.64,-6.56 -0.96,-6.56 -1.6,-6.56 -1.76,-6.399999 -2.24,-6.240002 -2.72,-6.079998 -3.04,-5.920002 -3.36,-5.759998 -3.68,-5.440003 -4.16,-5.279999 -4.319999,-4.959999 -4.8,-4.800003 -4.960003,-4.319999 -5.279998,-4.159996 -5.439999,-3.680001 -5.760002,-3.36 -5.919998,-3.040001 -6.079998,-2.720002 -6.240006,-2.239998 -6.399994,-1.76 -6.560005,-1.44 -6.559997,-1.12 -6.559998,-0.64 -6.720003,-0.16 -6.56,0.16 -6.72,0.64 -6.56,1.12 -6.4,1.44 -6.4,1.76 -6.24,2.239998 -6.08,2.720002 -6.08001,3.040001 -5.59999,3.36 -5.6,3.680001 -5.28,4.159996 -4.95999,4.319999 -4.64,4.800003 -4.48001,4.959999 -4,5.279999 -3.84,5.440003 -3.36,5.759998 -3.03999,5.920002 -2.56002,6.079998 -2.23999,6.240002 -1.92,6.399999 -1.44,6.56 -0.96,6.56 -0.64,6.56 -0.32,6.56"
       style="fill:none;stroke:#000000;stroke-width:26.4;stroke-linecap:round;stroke-linejoin:round;stroke-miterlimit:10;stroke-dasharray:none;stroke-opacity:1"
       transform="translate(376.77335,129.91993)"
       clip-path="url(#clipPath2)" />
    <path
       id="path3"
       d="m 0,0 -0.16,-6.56 -0.64,-6.56 -0.96,-6.56 -1.44,-6.56 -1.92,-6.399999 -2.24,-6.240002 -2.72,-6.079998 -2.88,-5.920002 -3.52,-5.759998 -3.68,-5.440003 -4.16,-5.279999 -4.319999,-4.959999 -4.64,-4.800003 -5.120003,-4.319999 -5.119998,-4.159996 -5.599999,-3.680001 -5.760002,-3.36 -5.919998,-3.040001 -6.079998,-2.720002 -6.240006,-2.239998 -6.399994,-1.76 -6.400001,-1.44 -6.720001,-1.12 -6.559998,-0.64 -6.720003,-0.32"
       style="fill:none;stroke:#000000;stroke-width:26.4;stroke-linecap:round;stroke-linejoin:round;stroke-miterlimit:10;stroke-dasharray:none;stroke-opacity:1"
       transform="translate(164.93333,129.91993)"
       clip-path="url(#clipPath4)" />
    <path
       id="path5"
       d="M 311.67999,473.12 V 755.52002"
       style="fill:none;stroke:#000000;stroke-width:26.4;stroke-linecap:round;stroke-linejoin:round;stroke-miterlimit:10;stroke-dasharray:none;stroke-opacity:1"
       transform="translate(-146.74667,-343.04006)"
       clip-path="url(#clipPath6)" />
    <path
       id="path7"
       d="M 523.52002,473.12 V 755.52002"
       style="fill:none;stroke:#000000;stroke-width:26.4;stroke-linecap:round;stroke-linejoin:round;stroke-miterlimit:10;stroke-dasharray:none;stroke-opacity:1"
       transform="translate(-146.74667,-343.04006)"
       clip-path="url(#clipPath8)" />
    <path
       id="path9"
       d="M 204.16,689.76001 H 589.28003"
       style="fill:none;stroke:#000000;stroke-width:26.4;stroke-linecap:round;stroke-linejoin:round;stroke-miterlimit:10;stroke-dasharray:none;stroke-opacity:1"
       transform="translate(-146.74667,-343.04006)"
       clip-path="url(#clipPath10)" />
    <path
       id="path11"
       d="M 172.16,753.91998 H 621.44"
       style="fill:none;stroke:#000000;stroke-width:26.4;stroke-linecap:round;stroke-linejoin:round;stroke-miterlimit:10;stroke-dasharray:none;stroke-opacity:1"
       transform="translate(-146.74667,-343.04006)"
       clip-path="url(#clipPath12)" />
  </g>
</svg>
