<?xml version="1.0" encoding="UTF-8" standalone="no"?>
<!-- Created with Inkscape (http://www.inkscape.org/) -->

<svg
   version="1.1"
   id="svg1"
   width="420.22668"
   height="505.89334"
   viewBox="0 0 420.22668 505.89334"
   sodipodi:docname="Saturn31.pdf"
   xmlns:inkscape="http://www.inkscape.org/namespaces/inkscape"
   xmlns:sodipodi="http://sodipodi.sourceforge.net/DTD/sodipodi-0.dtd"
   xmlns="http://www.w3.org/2000/svg"
   xmlns:svg="http://www.w3.org/2000/svg">
  <defs
     id="defs1">
    <clipPath
       clipPathUnits="userSpaceOnUse"
       id="clipPath2">
      <path
         d="M 26.4,26.559999 V 1096.16 H 767.03998 V 26.559999 Z"
         clip-rule="evenodd"
         id="path2" />
    </clipPath>
    <clipPath
       clipPathUnits="userSpaceOnUse"
       id="clipPath4">
      <path
         d="M 26.4,26.559999 V 1096.16 H 767.03998 V 26.559999 Z"
         clip-rule="evenodd"
         id="path4" />
    </clipPath>
    <clipPath
       clipPathUnits="userSpaceOnUse"
       id="clipPath6">
      <path
         d="M 26.4,26.559999 V 1096.16 H 767.03998 V 26.559999 Z"
         transform="translate(-585.44,-561.28003)"
         clip-rule="evenodd"
         id="path6" />
    </clipPath>
    <clipPath
       clipPathUnits="userSpaceOnUse"
       id="clipPath8">
      <path
         d="M 26.4,26.559999 V 1096.16 H 767.03998 V 26.559999 Z"
         clip-rule="evenodd"
         id="path8" />
    </clipPath>
  </defs>
  <sodipodi:namedview
     id="namedview1"
     pagecolor="#505050"
     bordercolor="#eeeeee"
     borderopacity="1"
     inkscape:showpageshadow="0"
     inkscape:pageopacity="0"
     inkscape:pagecheckerboard="0"
     inkscape:deskcolor="#505050">
    <inkscape:page
       x="0"
       y="0"
       inkscape:label="1"
       id="page1"
       width="420.22668"
       height="505.89334"
       margin="0"
       bleed="0" />
  </sodipodi:namedview>
  <g
     id="g1"
     inkscape:groupmode="layer"
     inkscape:label="1">
    <path
       id="path1"
       d="M 359.04001,334.88 V 787.84003"
       style="fill:none;stroke:#000000;stroke-width:26.4;stroke-linecap:round;stroke-linejoin:round;stroke-miterlimit:10;stroke-dasharray:none;stroke-opacity:1"
       transform="translate(0,5.3332747)"
       clip-path="url(#clipPath2)" />
    <path
       id="path3"
       d="M 208,561.28003 H 585.59998"
       style="fill:none;stroke:#000000;stroke-width:26.4;stroke-linecap:round;stroke-linejoin:round;stroke-miterlimit:10;stroke-dasharray:none;stroke-opacity:1"
       transform="translate(0,5.3332747)"
       clip-path="url(#clipPath4)" />
    <path
       id="path5"
       d="m 0,0 -6.72,0.32 -6.72,0.64 -6.88,0.96 -6.720001,1.44 -6.559997,1.92 L -40,7.36 l -6.400002,2.72 -6.079998,3.04 -5.920002,3.36 -5.760002,3.68 -5.599998,4 -5.279999,4.479999 -4.959999,4.64 -4.639999,4.960003 -4.32,5.279998 -4.160004,5.439999 -3.68,5.760002 -3.359997,5.919998 -3.04,6.239998 -2.56,6.240006 -2.24,6.559997 -1.76,6.559998 -1.44,6.720001 -1.12,6.720001 -0.64,6.88 -0.16,6.72 0.16,6.88 0.64,6.88 1.12,6.71999 1.44,6.72001 1.76,6.55999 2.24,6.40001 2.56,6.4 3.04,6.08 3.359997,6.08 3.68,5.75999 4.160004,5.44001 4.32,5.28 4.639999,4.96 4.959999,4.64 5.279999,4.48 5.599998,4 5.760002,3.68 5.920002,3.36001 6.079998,3.03999 6.400002,2.56 6.400002,2.24 6.559997,1.92 6.720001,1.44 6.88,0.95999 6.72,0.64 L 0,226.56"
       style="fill:none;stroke:#000000;stroke-width:26.4;stroke-linecap:round;stroke-linejoin:round;stroke-miterlimit:10;stroke-dasharray:none;stroke-opacity:1"
       transform="translate(585.44,566.6133)"
       clip-path="url(#clipPath6)" />
    <path
       id="path7"
       d="m 321.28,334.88 h 75.51999"
       style="fill:none;stroke:#000000;stroke-width:26.4;stroke-linecap:round;stroke-linejoin:round;stroke-miterlimit:10;stroke-dasharray:none;stroke-opacity:1"
       transform="translate(0,5.3332747)"
       clip-path="url(#clipPath8)" />
  </g>
</svg>
