<?xml version="1.0" encoding="UTF-8" standalone="no"?>
<!-- Created with Inkscape (http://www.inkscape.org/) -->

<svg
   version="1.1"
   id="svg1"
   width="353.51999"
   height="504.56"
   viewBox="0 0 353.51999 504.56"
   sodipodi:docname="Saturn30.pdf"
   xmlns:inkscape="http://www.inkscape.org/namespaces/inkscape"
   xmlns:sodipodi="http://sodipodi.sourceforge.net/DTD/sodipodi-0.dtd"
   xmlns="http://www.w3.org/2000/svg"
   xmlns:svg="http://www.w3.org/2000/svg">
  <defs
     id="defs1">
    <clipPath
       clipPathUnits="userSpaceOnUse"
       id="clipPath2">
      <path
         d="M 26.4,26.559999 V 1096.16 H 767.03998 V 26.559999 Z"
         transform="translate(-245.76,-636.79999)"
         clip-rule="evenodd"
         id="path2" />
    </clipPath>
    <clipPath
       clipPathUnits="userSpaceOnUse"
       id="clipPath4">
      <path
         d="M 26.4,26.559999 V 1096.16 H 767.03998 V 26.559999 Z"
         transform="translate(-3.3333333e-6)"
         clip-rule="evenodd"
         id="path4" />
    </clipPath>
    <clipPath
       clipPathUnits="userSpaceOnUse"
       id="clipPath6">
      <path
         d="M 26.4,26.559999 V 1096.16 H 767.03998 V 26.559999 Z"
         transform="translate(-3.3333333e-6)"
         clip-rule="evenodd"
         id="path6" />
    </clipPath>
    <clipPath
       clipPathUnits="userSpaceOnUse"
       id="clipPath8">
      <path
         d="M 26.4,26.559999 V 1096.16 H 767.03998 V 26.559999 Z"
         transform="translate(-319.84,-646.71997)"
         clip-rule="evenodd"
         id="path8" />
    </clipPath>
  </defs>
  <sodipodi:namedview
     id="namedview1"
     pagecolor="#505050"
     bordercolor="#eeeeee"
     borderopacity="1"
     inkscape:showpageshadow="0"
     inkscape:pageopacity="0"
     inkscape:pagecheckerboard="0"
     inkscape:deskcolor="#505050">
    <inkscape:page
       x="0"
       y="0"
       inkscape:label="1"
       id="page1"
       width="353.51999"
       height="504.56"
       margin="0"
       bleed="0" />
  </sodipodi:namedview>
  <g
     id="g1"
     inkscape:groupmode="layer"
     inkscape:label="1">
    <path
       id="path1"
       d="m 0,0 0.16,8.16 0.8,8.16 0.96,8.16 1.6,8 1.92,8 2.4,7.68 2.88,7.68 3.2,7.520001 3.68,7.36 4,7.040001 4.32,6.879997 4.799999,6.720002 5.120001,6.400001 5.439999,6.079998 5.760002,5.76 6.079998,5.44 6.240002,5.12 6.720001,4.8 6.879997,4.32 7.040001,4.16 7.360001,3.52001 7.519996,3.36 7.680003,2.71998 7.68,2.40001 8,2.08 8,1.59999 8,1.12001 8.15999,0.64 8.16001,0.15999 8.16,-0.15999 8.16,-0.64 8.15999,-1.12001 8,-1.44 7.84001,-1.92 7.84,-2.39999 7.67999,-2.72 7.52001,-3.2 7.36,-3.68001 7.2,-4 6.88,-4.31999 6.56,-4.8 6.40001,-5.12 6.07998,-5.44 5.76001,-5.6 5.60001,-6.079998 L 270.88,92 275.67999,85.440002 280,78.559998 l 4.16,-7.040001 3.68,-7.359993 3.20001,-7.520005 2.88,-7.68 2.4,-7.68 2.07998,-8 1.60001,-7.999998 1.12,-8 0.64001,-8.160001 0.31998,-8.16 -0.15998,-8.16 -0.64001,-8.16 -1.12,-8.16 -1.44,-8 -1.92001,-7.840001 -2.4,-7.84 -2.72,-7.68 -3.19998,-7.520001 -3.52002,-7.36 -4,-7.199997 -4.31998,-6.879997 -4.80001,-6.720002 -4.96,-6.400001 -5.44,-6.080001 -5.76001,-5.76 -6.07998,-5.6 -6.24001,-5.12 -6.72,-4.8 -6.72,-4.48 -7.2,-4 -7.2,-3.68 -7.52,-3.36 -7.67999,-2.88 -7.68001,-2.39999 -8,-2.08001 -8,-1.6 -8,-1.12 -8.16,-0.8 -8.15999,-0.16 H 144.16 l -8.16,0.64 -8.16,1.12001 -8,1.44 -8,1.75999"
       style="fill:none;stroke:#000000;stroke-width:26.4;stroke-linecap:round;stroke-linejoin:round;stroke-miterlimit:10;stroke-dasharray:none;stroke-opacity:1"
       transform="translate(24.306662,329.79993)"
       clip-path="url(#clipPath2)" />
    <path
       id="path3"
       d="M 359.04001,334.88 H 547.84003"
       style="fill:none;stroke:#000000;stroke-width:26.4;stroke-linecap:round;stroke-linejoin:round;stroke-miterlimit:10;stroke-dasharray:none;stroke-opacity:1"
       transform="translate(-221.45333,-307.00006)"
       clip-path="url(#clipPath4)" />
    <path
       id="path5"
       d="m 357.76001,491.04001 1.28,-156.16001"
       style="fill:none;stroke:#000000;stroke-width:26.4;stroke-linecap:round;stroke-linejoin:round;stroke-miterlimit:10;stroke-dasharray:none;stroke-opacity:1"
       transform="translate(-221.45333,-307.00006)"
       clip-path="url(#clipPath6)" />
    <path
       id="path7"
       d="M 0,0 0.96,-3.36 1.28,-6.88 1.44,-10.4 1.28,-13.92 0.64,-17.440001 -0.16,-20.799999 -1.44,-24.16 -2.88,-27.360001 -4.64,-30.4 -6.72,-33.279999 -8.96,-36 -11.52,-38.400002 -14.4,-40.48 -17.280001,-42.400002 -20.48,-44.16 l -3.2,-1.279999 -3.360001,-0.960003 -3.519998,-0.799999 -3.520003,-0.319999 h -3.519996 l -3.520001,0.159999 -3.360001,0.64 -3.52,0.960003 -3.200001,1.279998 -3.200001,1.439999 -3.039997,1.920002 -2.880001,2.079998 -2.560001,2.400002 -2.399998,2.559997 -2.080002,2.720001 -1.919998,3.040001 -1.599998,3.199999 -1.280007,3.200001 -0.959999,3.52 -0.639999,3.36"
       style="fill:none;stroke:#000000;stroke-width:26.4;stroke-linecap:round;stroke-linejoin:round;stroke-miterlimit:10;stroke-dasharray:none;stroke-opacity:1"
       transform="translate(98.386663,339.71991)"
       clip-path="url(#clipPath8)" />
  </g>
</svg>
