<?xml version="1.0" encoding="UTF-8" standalone="no"?>
<!-- Created with Inkscape (http://www.inkscape.org/) -->

<svg
   version="1.1"
   id="svg1"
   width="505.60001"
   height="308.34668"
   viewBox="0 0 505.60001 308.34668"
   sodipodi:docname="Saturn17.pdf"
   xmlns:inkscape="http://www.inkscape.org/namespaces/inkscape"
   xmlns:sodipodi="http://sodipodi.sourceforge.net/DTD/sodipodi-0.dtd"
   xmlns="http://www.w3.org/2000/svg"
   xmlns:svg="http://www.w3.org/2000/svg">
  <defs
     id="defs1">
    <clipPath
       clipPathUnits="userSpaceOnUse"
       id="clipPath2">
      <path
         d="M 26.4,26.559999 V 1096.16 H 767.03998 V 26.559999 Z"
         clip-rule="evenodd"
         id="path2" />
    </clipPath>
    <clipPath
       clipPathUnits="userSpaceOnUse"
       id="clipPath4">
      <path
         d="M 26.4,26.559999 V 1096.16 H 767.03998 V 26.559999 Z"
         clip-rule="evenodd"
         id="path4" />
    </clipPath>
    <clipPath
       clipPathUnits="userSpaceOnUse"
       id="clipPath6">
      <path
         d="M 26.4,26.559999 V 1096.16 H 767.03998 V 26.559999 Z"
         clip-rule="evenodd"
         id="path6" />
    </clipPath>
    <clipPath
       clipPathUnits="userSpaceOnUse"
       id="clipPath8">
      <path
         d="M 26.4,26.559999 V 1096.16 H 767.03998 V 26.559999 Z"
         clip-rule="evenodd"
         id="path8" />
    </clipPath>
    <clipPath
       clipPathUnits="userSpaceOnUse"
       id="clipPath10">
      <path
         d="M 26.4,26.559999 V 1096.16 H 767.03998 V 26.559999 Z"
         transform="translate(-321.12,-466.88001)"
         clip-rule="evenodd"
         id="path10" />
    </clipPath>
  </defs>
  <sodipodi:namedview
     id="namedview1"
     pagecolor="#505050"
     bordercolor="#eeeeee"
     borderopacity="1"
     inkscape:showpageshadow="0"
     inkscape:pageopacity="0"
     inkscape:pagecheckerboard="0"
     inkscape:deskcolor="#505050">
    <inkscape:page
       x="0"
       y="0"
       inkscape:label="1"
       id="page1"
       width="505.60001"
       height="308.34668"
       margin="0"
       bleed="0" />
  </sodipodi:namedview>
  <g
     id="g1"
     inkscape:groupmode="layer"
     inkscape:label="1">
    <path
       id="path1"
       d="M 170.24,617.91998 623.35998,467.04001"
       style="fill:none;stroke:#000000;stroke-width:26.4;stroke-linecap:round;stroke-linejoin:round;stroke-miterlimit:10;stroke-dasharray:none;stroke-opacity:1"
       transform="translate(0,-2.6667253)"
       clip-path="url(#clipPath2)" />
    <path
       id="path3"
       d="M 170.24,693.44 623.35998,542.40002"
       style="fill:none;stroke:#000000;stroke-width:26.4;stroke-linecap:round;stroke-linejoin:round;stroke-miterlimit:10;stroke-dasharray:none;stroke-opacity:1"
       transform="translate(0,-2.6667253)"
       clip-path="url(#clipPath4)" />
    <path
       id="path5"
       d="M 321.28,467.04001 V 693.44"
       style="fill:none;stroke:#000000;stroke-width:26.4;stroke-linecap:round;stroke-linejoin:round;stroke-miterlimit:10;stroke-dasharray:none;stroke-opacity:1"
       transform="translate(0,-2.6667253)"
       clip-path="url(#clipPath6)" />
    <path
       id="path7"
       d="M 472.32001,429.28 V 655.67999"
       style="fill:none;stroke:#000000;stroke-width:26.4;stroke-linecap:round;stroke-linejoin:round;stroke-miterlimit:10;stroke-dasharray:none;stroke-opacity:1"
       transform="translate(0,-2.6667253)"
       clip-path="url(#clipPath8)" />
    <path
       id="path9"
       d="m 0,0 v -3.36 l -0.48,-3.52 -0.8,-3.36 -1.12,-3.36 -1.44,-3.199999 -1.6,-3.040001 -2.08,-2.879999 -2.24,-2.560002 -2.4,-2.559999 -2.72,-2.24 -2.88,-1.92 -3.039999,-1.759998 L -24,-35.200001 -27.200001,-36.16 l -3.519998,-0.799999 -3.360003,-0.48 -3.519996,-0.159999 -3.520001,0.159999 -3.360001,0.48 -3.52,0.799999 -3.200001,0.959999 -3.200001,1.440003 L -57.439999,-32 -60.32,-30.08 l -2.720001,2.24 -2.400001,2.559999 -2.239998,2.560002 -2.080002,2.879999 -1.599999,3.040001 -1.440002,3.199999 -1.119995,3.36 -0.800003,3.36 -0.479996,3.52 -0.160004,3.36"
       style="fill:none;stroke:#000000;stroke-width:26.4;stroke-linecap:round;stroke-linejoin:round;stroke-miterlimit:10;stroke-dasharray:none;stroke-opacity:1"
       transform="translate(321.12,464.21328)"
       clip-path="url(#clipPath10)" />
  </g>
</svg>
