<?xml version="1.0" encoding="UTF-8" standalone="no"?>
<!-- Created with Inkscape (http://www.inkscape.org/) -->

<svg
   version="1.1"
   id="svg1"
   width="428.22668"
   height="503.21332"
   viewBox="0 0 428.22668 503.21332"
   sodipodi:docname="Saturn14.pdf"
   xmlns:inkscape="http://www.inkscape.org/namespaces/inkscape"
   xmlns:sodipodi="http://sodipodi.sourceforge.net/DTD/sodipodi-0.dtd"
   xmlns="http://www.w3.org/2000/svg"
   xmlns:svg="http://www.w3.org/2000/svg">
  <defs
     id="defs1">
    <clipPath
       clipPathUnits="userSpaceOnUse"
       id="clipPath2">
      <path
         d="M 26.4,26.559999 V 1096.16 H 767.03998 V 26.559999 Z"
         clip-rule="evenodd"
         id="path2" />
    </clipPath>
    <clipPath
       clipPathUnits="userSpaceOnUse"
       id="clipPath4">
      <path
         d="M 26.4,26.559999 V 1096.16 H 767.03998 V 26.559999 Z"
         clip-rule="evenodd"
         id="path4" />
    </clipPath>
    <clipPath
       clipPathUnits="userSpaceOnUse"
       id="clipPath6">
      <path
         d="M 26.4,26.559999 V 1096.16 H 767.03998 V 26.559999 Z"
         clip-rule="evenodd"
         id="path6" />
    </clipPath>
    <clipPath
       clipPathUnits="userSpaceOnUse"
       id="clipPath8">
      <path
         d="M 26.4,26.559999 V 1096.16 H 767.03998 V 26.559999 Z"
         transform="translate(-509.60001,-649.76001)"
         clip-rule="evenodd"
         id="path8" />
    </clipPath>
    <clipPath
       clipPathUnits="userSpaceOnUse"
       id="clipPath10">
      <path
         d="M 26.4,26.559999 V 1096.16 H 767.03998 V 26.559999 Z"
         transform="translate(-505.60001,-652.32001)"
         clip-rule="evenodd"
         id="path10" />
    </clipPath>
  </defs>
  <sodipodi:namedview
     id="namedview1"
     pagecolor="#505050"
     bordercolor="#eeeeee"
     borderopacity="1"
     inkscape:showpageshadow="0"
     inkscape:pageopacity="0"
     inkscape:pagecheckerboard="0"
     inkscape:deskcolor="#505050">
    <inkscape:page
       x="0"
       y="0"
       inkscape:label="1"
       id="page1"
       width="428.22668"
       height="503.21332"
       margin="0"
       bleed="0" />
  </sodipodi:namedview>
  <g
     id="g1"
     inkscape:groupmode="layer"
     inkscape:label="1">
    <path
       id="path1"
       d="M 250.08,334.88 V 787.84003"
       style="fill:none;stroke:#000000;stroke-width:26.4;stroke-linecap:round;stroke-linejoin:round;stroke-miterlimit:10;stroke-dasharray:none;stroke-opacity:1"
       transform="translate(-178.76,-305.66673)"
       clip-path="url(#clipPath2)" />
    <path
       id="path3"
       d="M 212.32001,334.88 H 287.84"
       style="fill:none;stroke:#000000;stroke-width:26.4;stroke-linecap:round;stroke-linejoin:round;stroke-miterlimit:10;stroke-dasharray:none;stroke-opacity:1"
       transform="translate(-178.76,-305.66673)"
       clip-path="url(#clipPath4)" />
    <path
       id="path5"
       d="m 250.08,561.28003 h 75.52001"
       style="fill:none;stroke:#000000;stroke-width:26.4;stroke-linecap:round;stroke-linejoin:round;stroke-miterlimit:10;stroke-dasharray:none;stroke-opacity:1"
       transform="translate(-178.76,-305.66673)"
       clip-path="url(#clipPath6)" />
    <path
       id="path7"
       d="m 0,0 5.28,-4.32 4.96,-4.8 4.64,-4.96 4.320001,-5.280001 4,-5.599998 3.679998,-5.76 3.200001,-5.92 2.879999,-6.240002 L 35.52,-49.119999 37.759998,-55.68 39.52,-62.240002 l 1.439999,-6.719997 0.959999,-6.720001 0.480004,-6.720002 0.159999,-6.879997 -0.159999,-6.880005 -0.800004,-6.719996 -0.959999,-6.72 -1.599998,-6.72 -1.760002,-6.56 -2.399998,-6.4 -2.560001,-6.24 -3.039999,-6.23999 -3.360001,-5.92 -3.84,-5.60001 -4,-5.6 -4.48,-5.12 -4.64,-4.96001 -4.96,-4.64 -5.28,-4.31999 -5.6,-4 -5.76,-3.68001 -5.919999,-3.36 -6.08,-3.03999 -6.400002,-2.56 -6.399998,-2.08 -6.560001,-1.92 -6.720001,-1.28 -6.719998,-1.12001 -6.880001,-0.47999 -6.720001,-0.16001 -6.879997,0.16001 -6.880005,0.64 -6.719994,1.12001 -6.560005,1.43999 -6.559998,1.76 -6.56,2.24 -6.24,2.72 -6.08,3.04 -5.92,3.36001 -5.76,3.67999 -5.6,4 -5.12,4.47999 -4.96,4.64 -4.64,4.96001 -4.48,5.28 -4,5.44 -3.67999,5.76 -3.36,5.91999 -3.04001,6.24001 -2.56,6.24 -2.24,6.4 -1.76,6.56 -1.44,6.72 -0.95999,6.72 -0.64,6.880003 -0.32001,6.719994"
       style="fill:none;stroke:#000000;stroke-width:26.4;stroke-linecap:round;stroke-linejoin:round;stroke-miterlimit:10;stroke-dasharray:none;stroke-opacity:1"
       transform="translate(330.84001,344.09328)"
       clip-path="url(#clipPath8)" />
    <path
       id="path9"
       d="m 0,0 -3.68,2.24 -3.52,2.56 -3.36,2.72 -3.04,3.04 -2.72,3.2 -2.559999,3.520001 -2.240002,3.679998 -1.92,3.84 -1.599998,4 -1.280001,4 -0.799999,4.32 -0.640002,4.16 -0.159999,4.319999 0.159999,4.32 0.480002,4.160004 0.959999,4.32 1.280001,4 1.439998,4 1.92,3.839996 2.24,3.840004 2.560001,3.36 2.72,3.360001 3.04,3.039993 3.36,2.720002 3.36,2.400001 3.84,2.239998 3.84,1.920006 4,1.439995 4.16,1.279998 4.16,0.800003 4.32,0.480004 4.16,0.159996 4.319999,-0.159996 4.32,-0.64 4.16,-0.960006 4.16,-1.279999 4,-1.599999 3.68,-1.919998 3.68,-2.239998 L 56.32,85.919998 59.52,83.040001 62.560001,80 65.279999,76.639999 67.68,73.120003 69.760002,69.440002 71.68,65.599998 l 1.440003,-4.159999 1.119995,-4 0.800003,-4.32 0.479996,-4.16 V 44.48"
       style="fill:none;stroke:#000000;stroke-width:26.4;stroke-linecap:round;stroke-linejoin:round;stroke-miterlimit:10;stroke-dasharray:none;stroke-opacity:1"
       transform="translate(326.84001,346.65328)"
       clip-path="url(#clipPath10)" />
  </g>
</svg>
