<?xml version="1.0" encoding="UTF-8" standalone="no"?>
<!-- Created with Inkscape (http://www.inkscape.org/) -->

<svg
   version="1.1"
   id="svg1"
   width="600.32001"
   height="614"
   viewBox="0 0 600.32001 614"
   sodipodi:docname="Saturn5.pdf"
   xmlns:inkscape="http://www.inkscape.org/namespaces/inkscape"
   xmlns:sodipodi="http://sodipodi.sourceforge.net/DTD/sodipodi-0.dtd"
   xmlns="http://www.w3.org/2000/svg"
   xmlns:svg="http://www.w3.org/2000/svg">
  <defs
     id="defs1">
    <clipPath
       clipPathUnits="userSpaceOnUse"
       id="clipPath2">
      <path
         d="M 26.4,26.559999 V 1096.16 H 767.03998 V 26.559999 Z"
         transform="translate(-656.32001,-623.03998)"
         clip-rule="evenodd"
         id="path2" />
    </clipPath>
    <clipPath
       clipPathUnits="userSpaceOnUse"
       id="clipPath4">
      <path
         d="M 26.4,26.559999 V 1096.16 H 767.03998 V 26.559999 Z"
         transform="translate(-220.16,-477.92001)"
         clip-rule="evenodd"
         id="path4" />
    </clipPath>
    <clipPath
       clipPathUnits="userSpaceOnUse"
       id="clipPath6">
      <path
         d="M 26.4,26.559999 V 1096.16 H 767.03998 V 26.559999 Z"
         transform="translate(-220.16,-477.92001)"
         clip-rule="evenodd"
         id="path6" />
    </clipPath>
    <clipPath
       clipPathUnits="userSpaceOnUse"
       id="clipPath8">
      <path
         d="M 26.4,26.559999 V 1096.16 H 767.03998 V 26.559999 Z"
         transform="translate(-384.95999,-644.64001)"
         clip-rule="evenodd"
         id="path8" />
    </clipPath>
    <clipPath
       clipPathUnits="userSpaceOnUse"
       id="clipPath10">
      <path
         d="M 26.4,26.559999 V 1096.16 H 767.03998 V 26.559999 Z"
         transform="translate(-384.95999,-644.64001)"
         clip-rule="evenodd"
         id="path10" />
    </clipPath>
    <clipPath
       clipPathUnits="userSpaceOnUse"
       id="clipPath12">
      <path
         d="M 26.4,26.559999 V 1096.16 H 767.03998 V 26.559999 Z"
         clip-rule="evenodd"
         id="path12" />
    </clipPath>
  </defs>
  <sodipodi:namedview
     id="namedview1"
     pagecolor="#505050"
     bordercolor="#eeeeee"
     borderopacity="1"
     inkscape:showpageshadow="0"
     inkscape:pageopacity="0"
     inkscape:pagecheckerboard="0"
     inkscape:deskcolor="#505050">
    <inkscape:page
       x="0"
       y="0"
       inkscape:label="1"
       id="page1"
       width="600.32001"
       height="614"
       margin="0"
       bleed="0" />
  </sodipodi:namedview>
  <g
     id="g1"
     inkscape:groupmode="layer"
     inkscape:label="1">
    <path
       id="path1"
       d="M 0,0 C 0,-46.919998 -35.529999,-84.959999 -79.360001,-84.959999 -123.19,-84.959999 -158.72,-46.919998 -158.72,0 c 0,46.919998 35.53,84.959999 79.359999,84.959999 C -35.529999,84.959999 0,46.919998 0,0 Z"
       style="fill:none;stroke:#000000;stroke-width:26.4;stroke-linecap:round;stroke-linejoin:round;stroke-miterlimit:10;stroke-dasharray:none;stroke-opacity:1"
       transform="translate(656.32001,621.70659)"
       clip-path="url(#clipPath2)" />
    <path
       id="path3"
       d="m 0,0 6.56,-7.36 6.4,-7.52 6.080001,-7.52 6.08,-7.52 5.92,-7.679998 5.759998,-7.520001 5.600003,-7.68 L 47.84,-60.32 l 5.119999,-7.519996 4.959999,-7.520005 4.800003,-7.36 4.479996,-7.360001 4.32,-7.199997 4,-7.040001 3.68,-6.88 3.520004,-6.88 3.199997,-6.56 2.880005,-6.39999 2.719994,-6.24001 2.240005,-5.92 2.079994,-5.76001 1.600006,-5.59999 1.439995,-5.28 0.959999,-4.96 0.800004,-4.64 0.48,-4.48 v -4.16 l -0.16,-3.84 -0.48,-3.36 -0.960003,-3.2 -1.119995,-2.88 -1.440003,-2.56 -1.919998,-2.08 -2.080002,-1.92 -2.400001,-1.44 -2.720002,-0.96001 -3.039993,-0.79998 -3.200005,-0.32001 -3.68,-0.16001 -3.839996,0.48002 -4,0.63999 -4.32,1.12 -4.640003,1.44 -4.799999,1.76 -5.119999,2.08 -5.280003,2.40001 L 40.48,-188.8 l -5.599999,3.19999 -5.76,3.36001 -6.08,3.84001 -6.080002,4.15999 -6.239999,4.32 -6.4,4.80001 -6.4,4.95999 -6.56,5.12001 -6.56,5.59999 -6.72,5.76001 -6.719999,5.92 -6.720002,6.23999 -6.880001,6.4 -6.719997,6.56 -6.720001,6.72 -6.720002,6.88 -6.720001,7.040002 -6.559997,7.199997 -6.559998,7.200004"
       style="fill:none;stroke:#000000;stroke-width:26.4;stroke-linecap:round;stroke-linejoin:round;stroke-miterlimit:10;stroke-dasharray:none;stroke-opacity:1"
       transform="translate(220.16,476.58662)"
       clip-path="url(#clipPath4)" />
    <path
       id="path5"
       d="m 0,0 -6.24,7.36 -6.4,7.52 -6.239999,7.52 -5.92,7.68 -5.92,7.519998 -5.760001,7.680001 -5.600002,7.52 L -47.52,60.32 -52.639999,68 l -4.959999,7.360001 -4.800004,7.519996 -4.479995,7.200005 -4.32,7.199997 -4,7.040001 -3.68,7.04 -3.520005,6.72 -3.199996,6.56 -2.880005,6.39999 -2.719994,6.24001 -2.240005,6.08 -2.079995,5.75999 -1.600006,5.44001 -1.439995,5.28 -1.120002,4.96 -0.64,4.80001 -0.48,4.31999 -0.16,4.16 0.32,3.84 0.48,3.52 0.960003,3.2 1.119995,2.88 1.440003,2.4 1.760002,2.24 2.239998,1.76 2.400001,1.44 2.720001,1.12 3.039994,0.8 3.200004,0.32001 h 3.519997 l 3.840004,-0.32001 4.159996,-0.8 4.32,-0.96 4.640003,-1.44 L -56,196.32001 -50.880001,194.08 -45.599998,191.67999 -40.16,188.8 l 5.599999,-3.04001 5.760002,-3.51999 6.08,-3.84001 6.08,-4 L -10.4,169.92 l 6.4,-4.64 6.4,-4.95999 6.56,-5.28002 6.56,-5.43998 6.72,-5.76001 6.719999,-6.08001 6.720001,-6.08 6.880001,-6.39999 6.719998,-6.56 L 56,111.84 62.720001,104.96 69.440002,97.919998 76,90.720001 l 6.400002,-7.36"
       style="fill:none;stroke:#000000;stroke-width:26.4;stroke-linecap:round;stroke-linejoin:round;stroke-miterlimit:10;stroke-dasharray:none;stroke-opacity:1"
       transform="translate(220.16,476.58662)"
       clip-path="url(#clipPath6)" />
    <path
       id="path7"
       d="m 0,0 6.56,-7.2 6.24,-7.52 6.240001,-7.52 6.08,-7.68 5.92,-7.519999 5.759998,-7.68 5.600003,-7.52 L 47.68,-60.32 l 5.279999,-7.519996 4.959999,-7.360001 4.800003,-7.520004 4.479996,-7.199997 4.32,-7.200005 4,-7.039997 3.68,-7.04 3.520004,-6.72 3.199997,-6.56 2.880005,-6.4 2.559998,-6.23999 2.400001,-6.08001 1.919998,-5.76001 1.760002,-5.43998 1.439995,-5.28 0.959999,-4.96001 0.800004,-4.8 0.48,-4.31999 V -177.92 l -0.16,-3.83999 -0.48,-3.52001 -0.960003,-3.2 -1.119995,-2.88 -1.599999,-2.39999 -1.760002,-2.24001 -2.080002,-1.75999 -2.400001,-1.44001 -2.720002,-1.12001 -3.039993,-0.79998 -3.360001,-0.32001 h -3.520004 l -3.839996,0.32001 -4,0.79998 -4.480004,0.96001 -4.479999,1.44 -4.959999,1.76 -4.959999,2.24 -5.280003,2.4 -5.439998,2.88 -5.599999,3.03999 -5.920002,3.52001 -5.919998,3.84 -6.080002,4 -6.239999,4.48001 -6.4,4.64 -6.4,4.95999 -6.56,5.28 -6.72,5.44 -6.56,5.76001 -6.719999,6.07998 -6.880001,6.08001 -6.720002,6.4 -6.719997,6.56 -6.720001,6.88 -6.720002,6.88 -6.720001,7.039998 -6.559997,7.200004 -6.720002,7.199997"
       style="fill:none;stroke:#000000;stroke-width:26.4;stroke-linecap:round;stroke-linejoin:round;stroke-miterlimit:10;stroke-dasharray:none;stroke-opacity:1"
       transform="translate(384.95999,643.30662)"
       clip-path="url(#clipPath8)" />
    <path
       id="path9"
       d="m 0,0 -6.4,7.52 -6.24,7.52 -6.239999,7.519999 -6.08,7.520001 -5.92,7.679998 -5.76,7.520001 -5.440003,7.68 L -47.52,60.48 -52.799999,68 l -4.959999,7.519997 -4.640004,7.36 -4.479995,7.360001 -4.32,7.200004 -4,7.039998 -3.840004,6.88 -3.360001,6.88 -3.199996,6.56 -3.040001,6.4 -2.559998,6.24 -2.240005,5.92 -2.079995,5.75999 -1.760002,5.60001 -1.279999,5.28 -1.120002,4.96001 -0.8,4.64 -0.32,4.47999 -0.16,4.16 0.16,3.84 0.64,3.36 0.799999,3.2 1.279999,2.88 1.440003,2.56 1.760002,2.08 2.079994,1.76 2.560005,1.6 2.559998,0.96 3.040001,0.8 3.36,0.32001 3.519997,0.15998 3.840004,-0.47999 4.159996,-0.64 4.32,-1.12 4.640003,-1.44 4.799999,-1.75999 4.959999,-2.08001 5.280003,-2.56001 5.439998,-2.71998 5.759999,-3.20002 5.760002,-3.36 5.92,-3.83999 6.08,-4.16001 L -10.56,170.08 -4.16,165.28 2.4,160.32001 8.96,155.2 15.52,149.60001 22.24,143.84 28.959999,137.92 35.68,131.67999 42.400002,125.28 49.279999,118.72 56,112 62.720001,105.12 69.279999,98.080002 76,90.879997 l 6.400002,-7.36"
       style="fill:none;stroke:#000000;stroke-width:26.4;stroke-linecap:round;stroke-linejoin:round;stroke-miterlimit:10;stroke-dasharray:none;stroke-opacity:1"
       transform="translate(384.95999,643.30662)"
       clip-path="url(#clipPath10)" />
    <path
       id="path11"
       d="M 467.51999,728.15997 674.40002,528.47998"
       style="fill:none;stroke:#000000;stroke-width:26.4;stroke-linecap:round;stroke-linejoin:round;stroke-miterlimit:10;stroke-dasharray:none;stroke-opacity:1"
       transform="translate(0,-1.333392)"
       clip-path="url(#clipPath12)" />
  </g>
</svg>
