<?xml version="1.0" encoding="UTF-8" standalone="no"?>
<!-- Created with Inkscape (http://www.inkscape.org/) -->

<svg
   version="1.1"
   id="svg1"
   width="525.61334"
   height="505.88"
   viewBox="0 0 525.61334 505.88"
   sodipodi:docname="Saturn20.pdf"
   xmlns:inkscape="http://www.inkscape.org/namespaces/inkscape"
   xmlns:sodipodi="http://sodipodi.sourceforge.net/DTD/sodipodi-0.dtd"
   xmlns="http://www.w3.org/2000/svg"
   xmlns:svg="http://www.w3.org/2000/svg">
  <defs
     id="defs1">
    <clipPath
       clipPathUnits="userSpaceOnUse"
       id="clipPath2">
      <path
         d="M 26.4,26.559999 V 1096.16 H 767.03998 V 26.559999 Z"
         clip-rule="evenodd"
         id="path2" />
    </clipPath>
    <clipPath
       clipPathUnits="userSpaceOnUse"
       id="clipPath4">
      <path
         d="M 26.4,26.559999 V 1096.16 H 767.03998 V 26.559999 Z"
         clip-rule="evenodd"
         id="path4" />
    </clipPath>
    <clipPath
       clipPathUnits="userSpaceOnUse"
       id="clipPath6">
      <path
         d="M 26.4,26.559999 V 1096.16 H 767.03998 V 26.559999 Z"
         clip-rule="evenodd"
         id="path6" />
    </clipPath>
    <clipPath
       clipPathUnits="userSpaceOnUse"
       id="clipPath8">
      <path
         d="M 26.4,26.559999 V 1096.16 H 767.03998 V 26.559999 Z"
         clip-rule="evenodd"
         id="path8" />
    </clipPath>
    <clipPath
       clipPathUnits="userSpaceOnUse"
       id="clipPath10">
      <path
         d="M 26.4,26.559999 V 1096.16 H 767.03998 V 26.559999 Z"
         transform="translate(-396.64001,-410.23999)"
         clip-rule="evenodd"
         id="path10" />
    </clipPath>
  </defs>
  <sodipodi:namedview
     id="namedview1"
     pagecolor="#505050"
     bordercolor="#eeeeee"
     borderopacity="1"
     inkscape:showpageshadow="0"
     inkscape:pageopacity="0"
     inkscape:pagecheckerboard="0"
     inkscape:deskcolor="#505050">
    <inkscape:page
       x="0"
       y="0"
       inkscape:label="1"
       id="page1"
       width="525.61334"
       height="505.88"
       margin="0"
       bleed="0" />
  </sodipodi:namedview>
  <g
     id="g1"
     inkscape:groupmode="layer"
     inkscape:label="1">
    <path
       id="path1"
       d="M 170.24,636.79999 H 623.35998"
       style="fill:none;stroke:#000000;stroke-width:26.4;stroke-linecap:round;stroke-linejoin:round;stroke-miterlimit:10;stroke-dasharray:none;stroke-opacity:1"
       transform="translate(0,-8.013392)"
       clip-path="url(#clipPath2)" />
    <path
       id="path3"
       d="M 245.75999,561.28003 H 623.35998"
       style="fill:none;stroke:#000000;stroke-width:26.4;stroke-linecap:round;stroke-linejoin:round;stroke-miterlimit:10;stroke-dasharray:none;stroke-opacity:1"
       transform="translate(0,-8.013392)"
       clip-path="url(#clipPath4)" />
    <path
       id="path5"
       d="M 623.35998,787.84003 V 334.88"
       style="fill:none;stroke:#000000;stroke-width:26.4;stroke-linecap:round;stroke-linejoin:round;stroke-miterlimit:10;stroke-dasharray:none;stroke-opacity:1"
       transform="translate(0,-8.013392)"
       clip-path="url(#clipPath6)" />
    <path
       id="path7"
       d="M 396.79999,787.84003 V 410.39999"
       style="fill:none;stroke:#000000;stroke-width:26.4;stroke-linecap:round;stroke-linejoin:round;stroke-miterlimit:10;stroke-dasharray:none;stroke-opacity:1"
       transform="translate(0,-8.013392)"
       clip-path="url(#clipPath8)" />
    <path
       id="path9"
       d="M 0,0 V -5.28 L -0.64,-10.72 -1.6,-16 -2.88,-21.120001 -4.64,-26.24 -6.72,-31.360001 -9.12,-36.16 l -2.72,-4.639999 -3.04,-4.32 -3.36,-4.32 -3.68,-3.84 -4,-3.68 -4.16,-3.360001 -4.480001,-3.2 -4.64,-2.719998 L -44,-68.639999 l -4.959999,-2.080002 -5.120003,-1.599999 -5.279999,-1.440002 -5.279998,-0.959999 -5.279999,-0.479996 -5.440003,-0.160004 -5.440002,0.160004 -5.279999,0.479996 -5.279999,0.959999 -5.279998,1.440002 -5.120001,1.599999 -4.96,2.080002 -4.8,2.400001 -4.64,2.719998 -4.48,3.2 -4.16,3.360001 -4,3.68 -3.68,3.84 -3.36,4.32 -3.04,4.32 -2.72001,4.639999 -2.39999,4.799999 -2.08,5.120001 -1.76,5.119999 -1.27999,5.120001 -0.96001,5.28 -0.64,5.44 -0.16,5.28"
       style="fill:none;stroke:#000000;stroke-width:26.4;stroke-linecap:round;stroke-linejoin:round;stroke-miterlimit:10;stroke-dasharray:none;stroke-opacity:1"
       transform="translate(396.64001,402.2266)"
       clip-path="url(#clipPath10)" />
  </g>
</svg>
