<?xml version="1.0" encoding="UTF-8" standalone="no"?>
<!-- Created with Inkscape (http://www.inkscape.org/) -->

<svg
   version="1.1"
   id="svg1"
   width="641.67999"
   height="473.85333"
   viewBox="0 0 641.67999 473.85333"
   sodipodi:docname="Scorpio5.pdf"
   xmlns:inkscape="http://www.inkscape.org/namespaces/inkscape"
   xmlns:sodipodi="http://sodipodi.sourceforge.net/DTD/sodipodi-0.dtd"
   xmlns="http://www.w3.org/2000/svg"
   xmlns:svg="http://www.w3.org/2000/svg">
  <defs
     id="defs1">
    <clipPath
       clipPathUnits="userSpaceOnUse"
       id="clipPath2">
      <path
         d="M 0,0.16 V 1122.5601 H 793.59998 V 0.16 Z"
         transform="translate(-691.03998,-402.64001)"
         clip-rule="evenodd"
         id="path2" />
    </clipPath>
    <clipPath
       clipPathUnits="userSpaceOnUse"
       id="clipPath4">
      <path
         d="M 0,0.16 V 1122.5601 H 793.59998 V 0.16 Z"
         transform="translate(-253.60001,-509.11999)"
         clip-rule="evenodd"
         id="path4" />
    </clipPath>
    <clipPath
       clipPathUnits="userSpaceOnUse"
       id="clipPath6">
      <path
         d="M 0,0.16 V 1122.5601 H 793.59998 V 0.16 Z"
         transform="translate(-194.08,-515.84003)"
         clip-rule="evenodd"
         id="path6" />
    </clipPath>
    <clipPath
       clipPathUnits="userSpaceOnUse"
       id="clipPath8">
      <path
         d="M 0,0.16 V 1122.5601 H 793.59998 V 0.16 Z"
         clip-rule="evenodd"
         id="path8" />
    </clipPath>
    <clipPath
       clipPathUnits="userSpaceOnUse"
       id="clipPath10">
      <path
         d="M 0,0.16 V 1122.5601 H 793.59998 V 0.16 Z"
         transform="translate(-405.12,-513.44)"
         clip-rule="evenodd"
         id="path10" />
    </clipPath>
    <clipPath
       clipPathUnits="userSpaceOnUse"
       id="clipPath12">
      <path
         d="M 0,0.16 V 1122.5601 H 793.59998 V 0.16 Z"
         transform="translate(-556.15997,-513.44)"
         clip-rule="evenodd"
         id="path12" />
    </clipPath>
    <clipPath
       clipPathUnits="userSpaceOnUse"
       id="clipPath14">
      <path
         d="M 0,0.16 V 1122.5601 H 793.59998 V 0.16 Z"
         transform="translate(-281.28,-440.79999)"
         clip-rule="evenodd"
         id="path14" />
    </clipPath>
    <clipPath
       clipPathUnits="userSpaceOnUse"
       id="clipPath16">
      <path
         d="M 0,0.16 V 1122.5601 H 793.59998 V 0.16 Z"
         clip-rule="evenodd"
         id="path16" />
    </clipPath>
    <clipPath
       clipPathUnits="userSpaceOnUse"
       id="clipPath18">
      <path
         d="M 0,0.16 V 1122.5601 H 793.59998 V 0.16 Z"
         clip-rule="evenodd"
         id="path18" />
    </clipPath>
    <clipPath
       clipPathUnits="userSpaceOnUse"
       id="clipPath20">
      <path
         d="M 0,0.16 V 1122.5601 H 793.59998 V 0.16 Z"
         clip-rule="evenodd"
         id="path20" />
    </clipPath>
  </defs>
  <sodipodi:namedview
     id="namedview1"
     pagecolor="#505050"
     bordercolor="#eeeeee"
     borderopacity="1"
     inkscape:showpageshadow="0"
     inkscape:pageopacity="0"
     inkscape:pagecheckerboard="0"
     inkscape:deskcolor="#505050">
    <inkscape:page
       x="0"
       y="0"
       inkscape:label="1"
       id="page1"
       width="641.67999"
       height="473.85333"
       margin="0"
       bleed="0" />
  </sodipodi:namedview>
  <g
     id="g1"
     inkscape:groupmode="layer"
     inkscape:label="1">
    <path
       id="path1"
       d="m 0,0 c 0,-29.549999 -23.959999,-53.52 -53.52,-53.52 -29.560002,0 -53.52,23.970001 -53.52,53.52 0,29.549999 23.959998,53.52 53.52,53.52 C -23.959999,53.52 0,29.549999 0,0 Z"
       style="fill:none;stroke:#000000;stroke-width:26.4;stroke-linecap:round;stroke-linejoin:round;stroke-miterlimit:10;stroke-dasharray:none;stroke-opacity:1"
       transform="translate(614.99998,79.626623)"
       clip-path="url(#clipPath2)" />
    <path
       id="path3"
       d="m 0,0 v -6.08 l -0.48,-6.24 -0.8,-6.08 -1.12,-5.92 -1.44,-5.92 -1.76,-5.76 -2.08,-5.759998 -2.24,-5.440003 -2.72,-5.119999 -2.88,-5.119999 -3.039999,-4.800003 -3.360001,-4.479999 -3.68,-4.159996 -3.840001,-4 -3.999998,-3.520005 -4.159999,-3.36 -4.32,-2.879997 -4.640003,-2.559998 -4.48,-2.080002 -4.799999,-1.760002 -4.799999,-1.440002 -4.959999,-1.119995 -4.800004,-0.480004 -4.959999,-0.32 -4.959999,0.32 -4.959999,0.480004 -4.800003,1.119995 -4.799995,1.440002 -4.800003,1.760002 -4.64,2.080002 -4.48,2.559998 -4.32,2.879997 -4.16,3.36 -4.16,3.520005 -3.68,4 -3.68,4.159996 -3.36,4.479999 -3.2,4.800003 -2.88,5.119999 -2.56,5.119999 -2.23999,5.440003 -2.08,5.759998 -1.76001,5.76 -1.44001,5.92 -1.11999,5.92 -0.8,6.08 -0.48,6.24 -0.31999,6.08"
       style="fill:none;stroke:#000000;stroke-width:26.4;stroke-linecap:round;stroke-linejoin:round;stroke-miterlimit:10;stroke-dasharray:none;stroke-opacity:1"
       transform="translate(177.56001,186.1066)"
       clip-path="url(#clipPath4)" />
    <path
       id="path5"
       d="m 0,0 -2.4,2.72 -2.56,3.2 -2.24,3.36 -2.4,3.84 -2.08,4.320001 -2.24,4.639999 -1.92,4.960001 -1.92,5.279999 -1.92,5.599998 -1.600001,5.920002 -1.599998,6.240002 -1.440001,6.559997 -1.28,6.560002 -1.279999,7.039997 -0.960001,7.040001 -0.959999,7.200004 -0.640002,7.359993 -0.639999,7.520005 -0.479999,7.679999 -0.32,7.68 -0.160002,7.68 0.160002,7.68 0.16,7.67999 0.319999,7.68001 0.48,7.67999 0.639999,7.36001 0.640002,7.36 0.959999,7.36 1.120001,7.04 1.119998,6.87999 1.440001,6.56 1.440001,6.40001 1.6,6.24001 1.759998,5.75999 1.76,5.59999 1.920001,5.28002 2.08,4.95999 2.08,4.47999 2.24,4.16001 2.24,3.83999 2.4,3.36 2.56,3.04001 2.4,2.56 2.56,2.08 2.56,1.76 2.56,1.28001 2.72,0.79999 2.56,0.32001 h 2.72 L 18.719999,256.95999 21.440001,256 24,254.56 l 2.559999,-1.76 2.560002,-2.40001 2.399999,-2.72 2.399998,-3.03999 2.400002,-3.67999 2.240001,-3.84002 2.239998,-4.31999 2.080002,-4.64 2.079998,-5.12001 1.760002,-5.28 1.919998,-5.75999 1.600003,-5.92 1.599998,-6.24 1.439999,-6.56 1.280002,-6.72 1.119999,-6.88001 0.959999,-7.19999 0.959999,-7.2 0.640004,-7.52001 0.639999,-7.51999 0.32,-7.52 0.319999,-7.68001 0.16,-7.83999 -0.16,-7.68 -0.159999,-7.68 -0.32,-7.68 -0.48,-7.520001 -0.800003,-7.519996"
       style="fill:none;stroke:#000000;stroke-width:26.4;stroke-linecap:round;stroke-linejoin:round;stroke-miterlimit:10;stroke-dasharray:none;stroke-opacity:1"
       transform="translate(118.04,192.82664)"
       clip-path="url(#clipPath6)" />
    <path
       id="path7"
       d="M 253.75999,509.12 252,604.96002"
       style="fill:none;stroke:#000000;stroke-width:26.4;stroke-linecap:round;stroke-linejoin:round;stroke-miterlimit:10;stroke-dasharray:none;stroke-opacity:1"
       transform="translate(-76.04,-323.01339)"
       clip-path="url(#clipPath8)" />
    <path
       id="path9"
       d="m 0,0 -0.16,-6.08 -0.48,-6.08 -0.8,-6.08 -1.12,-5.92 -1.28,-5.76 -1.76,-5.76 -1.92,-5.599999 -2.4,-5.440002 -2.56,-5.119999 -2.72,-5.119999 -3.04,-4.639999 -3.36,-4.480004 -3.520001,-4.32 -3.839998,-3.839996 -3.84,-3.68 -4.16,-3.200005 -4.32,-3.040001 -4.319999,-2.559997 -4.640004,-2.239998 -4.639999,-1.760002 L -59.68,-92.32 l -4.800003,-0.959999 -4.799996,-0.800003 -4.959999,-0.32 -4.800003,0.160004 -4.959999,0.479996 -4.800003,0.800003 -4.799995,1.279999 -4.64,1.760002 L -102.88,-88 l -4.48,2.400002 -4.32,2.879997 -4.32,3.040001 -4,3.36 -3.84,3.680001"
       style="fill:none;stroke:#000000;stroke-width:26.4;stroke-linecap:round;stroke-linejoin:round;stroke-miterlimit:10;stroke-dasharray:none;stroke-opacity:1"
       transform="translate(329.08,190.42661)"
       clip-path="url(#clipPath10)" />
    <path
       id="path11"
       d="m 0,0 -0.16,-6.08 -0.48,-6.24 -0.8,-6.08 -1.12,-6.08 -1.44,-5.92 -1.76,-5.76 -2.08,-5.599998 -2.24,-5.440003 -2.56,-5.279999 -2.88,-4.959999 -3.199999,-4.800003 -3.360001,-4.479999 -3.68,-4.159996 -3.680001,-4 -4.159997,-3.520005 -4.16,-3.36 -4.320004,-2.879997 -4.479999,-2.559998 -4.64,-2.240005 L -56,-91.199997 l -4.799999,-1.280006 -4.799999,-1.119995 -4.96,-0.64 -4.959999,-0.160004 -4.960006,0.160004 -4.799996,0.64 -4.959999,1.119995 -4.800003,1.280006 -4.799995,1.759995 -4.480004,2.240005 -4.64,2.559998 -4.32,2.879997 -4.16,3.36 -4,3.520005 -3.84,4 -3.68001,4.159996 -3.36,4.479999 -3.03999,4.800003 -2.88,4.959999 -2.72001,5.279999 -2.23999,5.440003 -2.08,5.599998 -1.75999,5.76 -1.44001,5.92 -1.12001,6.08 -0.79998,6.08 -0.48001,6.24 -0.15999,6.08"
       style="fill:none;stroke:#000000;stroke-width:26.4;stroke-linecap:round;stroke-linejoin:round;stroke-miterlimit:10;stroke-dasharray:none;stroke-opacity:1"
       transform="translate(480.11997,190.42661)"
       clip-path="url(#clipPath12)" />
    <path
       id="path13"
       d="m 0,0 -8.8,4.32 -8.480001,4.64 -8.319999,4.96 -8.159998,5.440001 -7.84,5.76 -7.520001,6.08 L -56.32,37.759998 -63.200001,44.639999 -69.760002,51.84 -76,59.360001 l -5.760002,7.68 -5.439995,8"
       style="fill:none;stroke:#000000;stroke-width:26.4;stroke-linecap:round;stroke-linejoin:round;stroke-miterlimit:10;stroke-dasharray:none;stroke-opacity:1"
       transform="translate(205.24,117.7866)"
       clip-path="url(#clipPath14)" />
    <path
       id="path15"
       d="m 406.88,510.88 -3.67999,258.08002"
       style="fill:none;stroke:#000000;stroke-width:26.4;stroke-linecap:round;stroke-linejoin:round;stroke-miterlimit:10;stroke-dasharray:none;stroke-opacity:1"
       transform="translate(-76.04,-323.01339)"
       clip-path="url(#clipPath16)" />
    <path
       id="path17"
       d="m 556.64001,515.67999 -1.11999,198.56"
       style="fill:none;stroke:#000000;stroke-width:26.4;stroke-linecap:round;stroke-linejoin:round;stroke-miterlimit:10;stroke-dasharray:none;stroke-opacity:1"
       transform="translate(-76.04,-323.01339)"
       clip-path="url(#clipPath18)" />
    <path
       id="path19"
       d="M 556.64001,722.56 629.12,471.67999"
       style="fill:none;stroke:#000000;stroke-width:26.4;stroke-linecap:round;stroke-linejoin:round;stroke-miterlimit:10;stroke-dasharray:none;stroke-opacity:1"
       transform="translate(-76.04,-323.01339)"
       clip-path="url(#clipPath20)" />
  </g>
</svg>
