<?xml version="1.0" encoding="UTF-8" standalone="no"?>
<!-- Created with Inkscape (http://www.inkscape.org/) -->

<svg
   version="1.1"
   id="svg1"
   width="488.26666"
   height="286.98666"
   viewBox="0 0 488.26666 286.98666"
   sodipodi:docname="Scorpio16.pdf"
   xmlns:inkscape="http://www.inkscape.org/namespaces/inkscape"
   xmlns:sodipodi="http://sodipodi.sourceforge.net/DTD/sodipodi-0.dtd"
   xmlns="http://www.w3.org/2000/svg"
   xmlns:svg="http://www.w3.org/2000/svg">
  <defs
     id="defs1">
    <clipPath
       clipPathUnits="userSpaceOnUse"
       id="clipPath2">
      <path
         d="M 0,0.16 V 1122.5601 H 793.59998 V 0.16 Z"
         transform="translate(-224,-590.88001)"
         clip-rule="evenodd"
         id="path2" />
    </clipPath>
    <clipPath
       clipPathUnits="userSpaceOnUse"
       id="clipPath4">
      <path
         d="M 0,0.16 V 1122.5601 H 793.59998 V 0.16 Z"
         transform="translate(-178.72,-636.15998)"
         clip-rule="evenodd"
         id="path4" />
    </clipPath>
    <clipPath
       clipPathUnits="userSpaceOnUse"
       id="clipPath6">
      <path
         d="M 0,0.16 V 1122.5601 H 793.59998 V 0.16 Z"
         transform="translate(-237.28,-545.59998)"
         clip-rule="evenodd"
         id="path6" />
    </clipPath>
    <clipPath
       clipPathUnits="userSpaceOnUse"
       id="clipPath8">
      <path
         d="M 0,0.16 V 1122.5601 H 793.59998 V 0.16 Z"
         transform="translate(-237.28,-636.32001)"
         clip-rule="evenodd"
         id="path8" />
    </clipPath>
    <clipPath
       clipPathUnits="userSpaceOnUse"
       id="clipPath10">
      <path
         d="M 0,0.16 V 1122.5601 H 793.59998 V 0.16 Z"
         transform="translate(-237.28,-545.59998)"
         clip-rule="evenodd"
         id="path10" />
    </clipPath>
    <clipPath
       clipPathUnits="userSpaceOnUse"
       id="clipPath12">
      <path
         d="M 0,0.16 V 1122.5601 H 793.59998 V 0.16 Z"
         transform="translate(-237.28,-636.32001)"
         clip-rule="evenodd"
         id="path12" />
    </clipPath>
    <clipPath
       clipPathUnits="userSpaceOnUse"
       id="clipPath14">
      <path
         d="M 0,0.16 V 1122.5601 H 793.59998 V 0.16 Z"
         transform="translate(-273.28,-627.03998)"
         clip-rule="evenodd"
         id="path14" />
    </clipPath>
    <clipPath
       clipPathUnits="userSpaceOnUse"
       id="clipPath16">
      <path
         d="M 0,0.16 V 1122.5601 H 793.59998 V 0.16 Z"
         transform="translate(-360,-613.44001)"
         clip-rule="evenodd"
         id="path16" />
    </clipPath>
    <clipPath
       clipPathUnits="userSpaceOnUse"
       id="clipPath18">
      <path
         d="M 0,0.16 V 1122.5601 H 793.59998 V 0.16 Z"
         transform="translate(-437.92001,-614.88001)"
         clip-rule="evenodd"
         id="path18" />
    </clipPath>
    <clipPath
       clipPathUnits="userSpaceOnUse"
       id="clipPath20">
      <path
         d="M 0,0.16 V 1122.5601 H 793.59998 V 0.16 Z"
         transform="translate(-502.56,-606.88001)"
         clip-rule="evenodd"
         id="path20" />
    </clipPath>
    <clipPath
       clipPathUnits="userSpaceOnUse"
       id="clipPath22">
      <path
         d="M 0,0.16 V 1122.5601 H 793.59998 V 0.16 Z"
         transform="translate(-541.12,-590.88001)"
         clip-rule="evenodd"
         id="path22" />
    </clipPath>
    <clipPath
       clipPathUnits="userSpaceOnUse"
       id="clipPath24">
      <path
         d="M 0,0.16 V 1122.5601 H 793.59998 V 0.16 Z"
         transform="translate(-586.40002,-454.88001)"
         clip-rule="evenodd"
         id="path24" />
    </clipPath>
  </defs>
  <sodipodi:namedview
     id="namedview1"
     pagecolor="#505050"
     bordercolor="#eeeeee"
     borderopacity="1"
     inkscape:showpageshadow="0"
     inkscape:pageopacity="0"
     inkscape:pagecheckerboard="0"
     inkscape:deskcolor="#505050">
    <inkscape:page
       x="0"
       y="0"
       inkscape:label="1"
       id="page1"
       width="488.26666"
       height="286.98666"
       margin="0"
       bleed="0" />
  </sodipodi:namedview>
  <g
     id="g1"
     inkscape:groupmode="layer"
     inkscape:label="1">
    <path
       id="path1"
       d="m 0,0 4,-0.16 3.84,-0.48 3.84,-0.8 3.84,-1.12 3.680001,-1.6 3.359998,-1.76 L 25.92,-8 29.120001,-10.4 32,-13.12 34.720001,-16 37.119999,-19.040001 39.200001,-22.4 l 1.759998,-3.52 1.600002,-3.520001 1.279999,-3.839998 0.799999,-3.84 0.48,-3.84 0.32,-3.84 -0.16,-4 -0.48,-3.84 L 44,-56.48 42.880001,-60.32 41.279999,-64 39.52,-67.519997 l -2.080001,-3.36 -2.239998,-3.040001 -2.720001,-3.040001 -2.88,-2.559998 -3.040001,-2.560005 -3.359998,-2.080002 -3.360001,-1.919998 -3.68,-1.439995 -3.68,-1.280006 -3.84,-0.959999 -3.84,-0.479996 -4,-0.32 -4,0.159996 -3.84,0.480004 -3.84,0.799995 -3.84,1.120003 -3.68,1.440002 -3.52,1.599999 -3.200001,2.080002 -3.199999,2.399994 -3.040001,2.560005 -2.720001,2.879997 L -36.48,-72 l -2.240001,3.360001 -1.759999,3.36 -1.600002,3.680001 -1.279999,3.68 -1.119999,3.679996"
       style="fill:none;stroke:#000000;stroke-width:26.4;stroke-linecap:round;stroke-linejoin:round;stroke-miterlimit:10;stroke-dasharray:none;stroke-opacity:1"
       transform="translate(71.92,173.09328)"
       clip-path="url(#clipPath2)" />
    <path
       id="path3"
       d="m 0,0 0.16,4 0.64,4 0.8,3.84 1.12,3.84 1.6,3.520001 1.76,3.519998 2.24,3.360001 2.4,3.200001 2.56,2.879999 2.88,2.720001 3.200001,2.399998 3.359998,2.080002 3.520001,1.759998 3.68,1.600002 3.679998,1.119999 3.840001,0.959999 4,0.48 4,0.16 3.84,-0.16 4,-0.48 3.84,-0.959999 3.68,-1.119999 3.680004,-1.600002 L 68,39.360001 71.360001,37.279999 74.559998,34.880001 77.440002,32.16 80,29.280001 82.400002,26.08 84.639999,22.719999 86.400002,19.200001 88,15.68 89.120003,11.84 89.919998,8 l 0.64,-4 0.160003,-3.84 -0.160003,-4 -0.64,-4 -0.799995,-3.84 L 88,-15.36 86.400002,-19.040001 84.639999,-22.559999 82.400002,-25.92 80,-28.959999 77.440002,-32 74.559998,-34.560001 71.360001,-36.959999 68,-39.200001 l -3.519997,-1.759998 -3.680004,-1.440003 -3.68,-1.279998 -3.84,-0.8 -4,-0.479999 -4,-0.32"
       style="fill:none;stroke:#000000;stroke-width:26.4;stroke-linecap:round;stroke-linejoin:round;stroke-miterlimit:10;stroke-dasharray:none;stroke-opacity:1"
       transform="translate(26.640001,218.37325)"
       clip-path="url(#clipPath4)" />
    <path
       id="path5"
       d="m 0,0 -0.16,-1.6 -0.32,-1.76 -0.48,-1.6 -0.8,-1.6 -0.96,-1.44 -1.12,-1.28 -1.28,-1.12 -1.44,-0.96 -1.6,-0.8 -1.6,-0.48 -1.76,-0.48 h -1.6 -1.76 l -1.759999,0.48 -1.600001,0.48 -1.6,0.8 -1.440001,0.96 -1.279998,1.12 L -23.68,-8 l -0.959999,1.44 -0.800002,1.6 -0.479999,1.6 -0.32,1.76 -0.16,1.6 0.16,1.76 0.32,1.76 0.479999,1.6 0.800002,1.6 0.959999,1.44 1.120001,1.28 1.279998,1.12 1.440001,0.96 1.6,0.8 1.600001,0.48 1.759999,0.32 1.76,0.16 1.6,-0.16 1.76,-0.32 1.6,-0.48 1.6,-0.8 1.44,-0.96 1.28,-1.12 1.12,-1.28 0.96,-1.44 0.8,-1.6 0.48,-1.6 L -0.16,1.76 0,0 v 0 z"
       style="fill:#000000;fill-opacity:1;fill-rule:evenodd;stroke:none"
       transform="translate(85.199999,127.81325)"
       clip-path="url(#clipPath6)" />
    <path
       id="path7"
       d="m 0,0 -0.16,-1.76 -0.32,-1.76 -0.48,-1.6 -0.8,-1.6 -0.96,-1.44 -1.12,-1.28 -1.28,-1.12 -1.44,-0.96 -1.6,-0.8 -1.6,-0.48 -1.76,-0.32 -1.6,-0.16 -1.76,0.16 -1.759999,0.32 -1.600001,0.48 -1.6,0.8 -1.440001,0.96 -1.279998,1.12 -1.120001,1.28 -0.959999,1.44 -0.800002,1.6 -0.479999,1.6 -0.32,1.76 -0.16,1.76 0.16,1.6 0.32,1.76 0.479999,1.6 0.800002,1.6 L -23.68,8 l 1.120001,1.28 1.279998,1.12 1.440001,0.96 1.6,0.8 1.600001,0.48 1.759999,0.48 h 1.76 1.6 l 1.76,-0.48 1.6,-0.48 1.6,-0.8 L -5.12,10.4 -3.84,9.28 -2.72,8 -1.76,6.56 -0.96,4.96 -0.48,3.36 -0.16,1.6 0,0 v 0 z"
       style="fill:#000000;fill-opacity:1;fill-rule:evenodd;stroke:none"
       transform="translate(85.199999,218.53328)"
       clip-path="url(#clipPath8)" />
    <path
       id="path9"
       d="m 0,0 -0.16,-1.6 -0.32,-1.76 -0.48,-1.6 -0.8,-1.6 -0.96,-1.44 -1.12,-1.28 -1.28,-1.12 -1.44,-0.96 -1.6,-0.8 -1.6,-0.48 -1.76,-0.48 h -1.6 -1.76 l -1.759999,0.48 -1.600001,0.48 -1.6,0.8 -1.440001,0.96 -1.279998,1.12 L -23.68,-8 l -0.959999,1.44 -0.800002,1.6 -0.479999,1.6 -0.32,1.76 -0.16,1.6 0.16,1.76 0.32,1.76 0.479999,1.6 0.800002,1.6 0.959999,1.44 1.120001,1.28 1.279998,1.12 1.440001,0.96 1.6,0.8 1.600001,0.48 1.759999,0.32 1.76,0.16 1.6,-0.16 1.76,-0.32 1.6,-0.48 1.6,-0.8 1.44,-0.96 1.28,-1.12 1.12,-1.28 0.96,-1.44 0.8,-1.6 0.48,-1.6 L -0.16,1.76 0,0"
       style="fill:none;stroke:#000000;stroke-width:0.64;stroke-linecap:round;stroke-linejoin:round;stroke-miterlimit:10;stroke-dasharray:none;stroke-opacity:1"
       transform="translate(85.199999,127.81325)"
       clip-path="url(#clipPath10)" />
    <path
       id="path11"
       d="m 0,0 -0.16,-1.76 -0.32,-1.76 -0.48,-1.6 -0.8,-1.6 -0.96,-1.44 -1.12,-1.28 -1.28,-1.12 -1.44,-0.96 -1.6,-0.8 -1.6,-0.48 -1.76,-0.32 -1.6,-0.16 -1.76,0.16 -1.759999,0.32 -1.600001,0.48 -1.6,0.8 -1.440001,0.96 -1.279998,1.12 -1.120001,1.28 -0.959999,1.44 -0.800002,1.6 -0.479999,1.6 -0.32,1.76 -0.16,1.76 0.16,1.6 0.32,1.76 0.479999,1.6 0.800002,1.6 L -23.68,8 l 1.120001,1.28 1.279998,1.12 1.440001,0.96 1.6,0.8 1.600001,0.48 1.759999,0.48 h 1.76 1.6 l 1.76,-0.48 1.6,-0.48 1.6,-0.8 L -5.12,10.4 -3.84,9.28 -2.72,8 -1.76,6.56 -0.96,4.96 -0.48,3.36 -0.16,1.6 0,0"
       style="fill:none;stroke:#000000;stroke-width:0.64;stroke-linecap:round;stroke-linejoin:round;stroke-miterlimit:10;stroke-dasharray:none;stroke-opacity:1"
       transform="translate(85.199999,218.53328)"
       clip-path="url(#clipPath12)" />
    <path
       id="path13"
       d="m 0,0 3.2,3.04 3.36,2.56 3.52,2.24 3.68,2.08 3.84,1.6 4,1.44 4,1.12 4.16,0.64 4.159998,0.32 h 4.320004 l 4.16,-0.32 4.159999,-0.64 4.16,-0.96 4,-1.44 3.84,-1.6 3.680001,-1.92 3.52,-2.4 L 69.120003,3.2 72.32,0.48 75.199997,-2.72 77.760002,-5.92 80,-9.44 l 2.080002,-3.68 1.759994,-3.839999 1.440003,-4 1.120003,-4.160002 0.639999,-4.16 0.479996,-4.159998 v -4.159999 l -0.32,-4.16 -0.639999,-4.16 -0.96,-4.160004 -1.279998,-4 -1.760002,-3.839996 -1.919999,-3.84 -2.239997,-3.520001 -2.560006,-3.36 -2.719993,-3.040001 -3.040001,-3.040001 -3.360001,-2.559998 -3.52,-2.400001 -3.680001,-2.080002 -3.84,-1.759995 -3.84,-1.440002 -4.16,-1.120003 -4.16,-0.639999 -4.159999,-0.479996 -4.16,-0.160004 -4.320002,0.32 -4.16,0.639999 -4,0.96 -4,1.279998 -3.999999,1.600006 -3.68,1.919999 -3.52,2.239997 -3.52,2.560006 -3.04,2.719993 -3.04,3.040001 -2.72,3.200005"
       style="fill:none;stroke:#000000;stroke-width:26.4;stroke-linecap:round;stroke-linejoin:round;stroke-miterlimit:10;stroke-dasharray:none;stroke-opacity:1"
       transform="translate(121.2,209.25325)"
       clip-path="url(#clipPath14)" />
    <path
       id="path15"
       d="m 0,0 2.4,3.2 2.4,2.72 2.88,2.56 2.88,2.4 3.2,1.92 3.360001,1.76 L 20.639999,16 24.32,16.959999 28,17.76 l 3.68,0.32 3.84,0.16 3.680001,-0.32 3.68,-0.639999 3.68,-1.120001 3.520001,-1.28 3.359997,-1.6 3.2,-2.08 3.040001,-2.24 2.880001,-2.4 2.560002,-2.88 2.239998,-2.88 2.080001,-3.2 1.599999,-3.36 1.440002,-3.52 1.119995,-3.68 0.64,-3.679999 0.32,-3.680001 0.160003,-3.84 -0.319999,-3.68 -0.800004,-3.68 -0.959999,-3.680001 -1.279998,-3.52 -1.760003,-3.360001 L 67.68,-45.279999 65.440002,-48.32 62.880001,-51.200001 60.16,-53.759998 57.119999,-56 53.919998,-57.919998 50.560001,-59.68 l -3.52,-1.279999 -3.68,-1.120003 -3.680001,-0.639999 -3.68,-0.48 h -3.84 l -3.68,0.48 -3.680001,0.639999 -3.679998,0.960003 L 17.6,-59.68 14.24,-58.080002 11.04,-56 8,-53.759998 5.12,-51.360001"
       style="fill:none;stroke:#000000;stroke-width:26.4;stroke-linecap:round;stroke-linejoin:round;stroke-miterlimit:10;stroke-dasharray:none;stroke-opacity:1"
       transform="translate(207.92,195.65328)"
       clip-path="url(#clipPath16)" />
    <path
       id="path17"
       d="M 0,0 2.4,2.4 5.12,4.32 8,6.08 l 3.04,1.44 3.2,1.12 3.200001,0.8 3.199998,0.48 L 24,10.08 27.360001,9.92 30.719999,9.44 33.919998,8.64 37.119999,7.52 40,6.08 42.880001,4.32 45.599998,2.4 48,0.16 50.240002,-2.4 52.32,-5.12 l 1.760002,-2.72 1.279999,-3.04 1.119999,-3.2 0.959999,-3.200001 0.479999,-3.359998 L 58.080002,-24 57.919998,-27.200001 57.439999,-30.559999 56.48,-33.759998 55.360001,-36.959999 54.080002,-40 52.32,-42.880001 50.240002,-45.439999 48,-48 45.599998,-50.240002 42.880001,-52.16 40,-53.919998 37.119999,-55.360001 33.919998,-56.48 l -3.199999,-0.799999 -3.359998,-0.479999 -3.360001,-0.16 -3.360001,0.16 -3.199998,0.479999 L 14.24,-56.48 11.04,-55.360001 8,-53.919998 5.12,-52.16 2.4,-50.240002 0,-48"
       style="fill:none;stroke:#000000;stroke-width:26.4;stroke-linecap:round;stroke-linejoin:round;stroke-miterlimit:10;stroke-dasharray:none;stroke-opacity:1"
       transform="translate(285.84001,197.09328)"
       clip-path="url(#clipPath18)" />
    <path
       id="path19"
       d="M 0,0 1.92,1.76 4,3.2 6.24,4.48 8.48,5.44 11.04,6.24 13.44,6.56 16,6.72 18.559999,6.56 21.120001,6.24 23.52,5.44 25.92,4.48 28.16,3.2 30.08,1.76 32,0.16 33.759998,-1.76 35.200001,-3.84 36.48,-6.08 l 0.959999,-2.4 0.640003,-2.4 0.479999,-2.56 0.16,-2.56 -0.16,-2.4 -0.479999,-2.559999 -0.640003,-2.400002 L 36.48,-25.76 35.200001,-28 33.759998,-30.08 32,-32 30.08,-33.599998 28.16,-35.040001 25.92,-36.32 l -2.4,-0.959999 -2.399999,-0.800003 -2.560002,-0.32 L 16,-38.560001 l -2.56,0.159999 -2.4,0.32 -2.56,0.800003 L 6.24,-36.32 4,-35.040001 1.92,-33.599998 0,-32"
       style="fill:none;stroke:#000000;stroke-width:26.4;stroke-linecap:round;stroke-linejoin:round;stroke-miterlimit:10;stroke-dasharray:none;stroke-opacity:1"
       transform="translate(350.48,189.09328)"
       clip-path="url(#clipPath20)" />
    <path
       id="path21"
       d="m 0,0 5.6,-0.32 5.44,-0.8 5.28,-1.12 5.28,-1.6 4.959999,-1.92 L 31.52,-8 l 4.8,-2.56 4.639999,-3.04 4.32,-3.199999 4.16,-3.520001 3.84,-4 3.52,-4 3.360001,-4.479999 2.880001,-4.48 2.720001,-4.800003 L 68,-47.040001 69.919998,-52.16 l 1.440003,-5.279999 1.279998,-5.280002 0.800003,-5.440003 0.32,-5.439994 v -5.440003 l -0.32,-5.440002 -0.800003,-5.439995 -1.120002,-5.279999 L 69.919998,-100.48 68,-105.6 l -2.239998,-4.96 -2.560001,-4.8 -3.040001,-4.48 -3.200001,-4.48 -3.52,-4.16 -3.840001,-3.84001 L 45.279999,-136"
       style="fill:none;stroke:#000000;stroke-width:26.4;stroke-linecap:round;stroke-linejoin:round;stroke-miterlimit:10;stroke-dasharray:none;stroke-opacity:1"
       transform="translate(389.04,173.09328)"
       clip-path="url(#clipPath22)" />
    <path
       id="path23"
       d="m 0,0 -1.12,-2.08 -1.6,-2.24 -1.6,-1.92 -2.08,-1.76 -2.08,-1.6 -2.24,-1.28 -2.4,-1.12 -2.4,-0.8 -2.56,-0.64 -2.559999,-0.32 h -2.720002 l -2.559999,0.16 -2.56,0.48 -2.560001,0.8 -2.399998,0.96 -2.240001,1.28 -2.239998,1.44 -1.920002,1.76 -1.919998,1.92 -1.600003,2.08 -1.279998,2.24 -1.279999,2.24 -0.800003,2.56 -0.64,2.56 -0.319999,2.56 -0.16,2.56 0.16,2.72 0.479999,2.560001 0.64,2.559999 1.120002,2.4 1.119999,2.24 1.439999,2.239999 1.760002,2.08 1.759998,1.760001 2.080002,1.6 2.239998,1.439999 2.400002,1.280002 L -30.24,35.52 l 2.56,0.8 2.559999,0.319999 2.560002,0.16"
       style="fill:none;stroke:#000000;stroke-width:26.4;stroke-linecap:round;stroke-linejoin:round;stroke-miterlimit:10;stroke-dasharray:none;stroke-opacity:1"
       transform="translate(434.32002,37.09328)"
       clip-path="url(#clipPath24)" />
  </g>
</svg>
