<?xml version="1.0" encoding="UTF-8" standalone="no"?>
<!-- Created with Inkscape (http://www.inkscape.org/) -->

<svg
   version="1.1"
   id="svg1"
   width="612.32001"
   height="624.67999"
   viewBox="0 0 612.32001 624.67999"
   sodipodi:docname="Scorpio8.pdf"
   xmlns:inkscape="http://www.inkscape.org/namespaces/inkscape"
   xmlns:sodipodi="http://sodipodi.sourceforge.net/DTD/sodipodi-0.dtd"
   xmlns="http://www.w3.org/2000/svg"
   xmlns:svg="http://www.w3.org/2000/svg">
  <defs
     id="defs1">
    <clipPath
       clipPathUnits="userSpaceOnUse"
       id="clipPath2">
      <path
         d="M 0,0.16 V 1122.5601 H 793.59998 V 0.16 Z"
         clip-rule="evenodd"
         id="path2" />
    </clipPath>
    <clipPath
       clipPathUnits="userSpaceOnUse"
       id="clipPath4">
      <path
         d="M 0,0.16 V 1122.5601 H 793.59998 V 0.16 Z"
         transform="translate(-401.11999,-373.44)"
         clip-rule="evenodd"
         id="path4" />
    </clipPath>
    <clipPath
       clipPathUnits="userSpaceOnUse"
       id="clipPath6">
      <path
         d="M 0,0.16 V 1122.5601 H 793.59998 V 0.16 Z"
         clip-rule="evenodd"
         id="path6" />
    </clipPath>
    <clipPath
       clipPathUnits="userSpaceOnUse"
       id="clipPath8">
      <path
         d="M 0,0.16 V 1122.5601 H 793.59998 V 0.16 Z"
         clip-rule="evenodd"
         id="path8" />
    </clipPath>
    <clipPath
       clipPathUnits="userSpaceOnUse"
       id="clipPath10">
      <path
         d="M 0,0.16 V 1122.5601 H 793.59998 V 0.16 Z"
         transform="translate(-215.52,-373.44)"
         clip-rule="evenodd"
         id="path10" />
    </clipPath>
    <clipPath
       clipPathUnits="userSpaceOnUse"
       id="clipPath12">
      <path
         d="M 0,0.16 V 1122.5601 H 793.59998 V 0.16 Z"
         clip-rule="evenodd"
         id="path12" />
    </clipPath>
    <clipPath
       clipPathUnits="userSpaceOnUse"
       id="clipPath14">
      <path
         d="M 0,0.16 V 1122.5601 H 793.59998 V 0.16 Z"
         transform="translate(-583.20001,-468.32001)"
         clip-rule="evenodd"
         id="path14" />
    </clipPath>
  </defs>
  <sodipodi:namedview
     id="namedview1"
     pagecolor="#505050"
     bordercolor="#eeeeee"
     borderopacity="1"
     inkscape:showpageshadow="0"
     inkscape:pageopacity="0"
     inkscape:pagecheckerboard="0"
     inkscape:deskcolor="#505050">
    <inkscape:page
       x="0"
       y="0"
       inkscape:label="1"
       id="page1"
       width="612.32001"
       height="624.67999"
       margin="0"
       bleed="0" />
  </sodipodi:namedview>
  <g
     id="g1"
     inkscape:groupmode="layer"
     inkscape:label="1">
    <path
       id="path1"
       d="m 113.28,654.56 567.19998,1.11999"
       style="fill:none;stroke:#000000;stroke-width:26.4;stroke-linecap:round;stroke-linejoin:round;stroke-miterlimit:10;stroke-dasharray:none;stroke-opacity:1"
       transform="translate(-92.053333,-241.60006)"
       clip-path="url(#clipPath2)" />
    <path
       id="path3"
       d="M 0,0 -0.16,-5.92 -0.8,-12 l -0.96,-5.92 -1.28,-5.76 -1.76,-5.760001 -2.08,-5.76 -2.4,-5.439998 -2.72,-5.279999 -3.2,-5.120003 L -18.559999,-56 -22.24,-60.639999 l -4.16,-4.480004 -4.319999,-4.159996 -4.480002,-3.840004 L -40,-76.639999 l -4.959999,-3.199997 -5.280003,-2.880005 -5.439998,-2.559998 -5.439999,-2.239998 -5.759998,-1.760002 -5.760002,-1.440002 -5.760003,-1.119995 -5.919998,-0.640007 -5.919998,-0.32 -5.920006,0.160004 -5.919996,0.479995 -5.92,0.960007 -5.92,1.279999 -5.6,1.599998 -5.6,2.080002 -5.44,2.400002 -5.28,2.719993 -5.12001,3.040001 -4.95999,3.360001 -4.64,3.840004 -4.47999,4 -4.16001,4.319996 -3.83999,4.479999 -3.52001,4.800003 -3.19999,5.119999 -3.04001,5.279999 -2.56,5.440002 -2.24001,5.599999 -1.75999,5.6 -1.60001,5.92 -1.11999,5.92 -0.64,5.92 -0.48,5.92"
       style="fill:none;stroke:#000000;stroke-width:26.4;stroke-linecap:round;stroke-linejoin:round;stroke-miterlimit:10;stroke-dasharray:none;stroke-opacity:1"
       transform="translate(309.06666,131.83994)"
       clip-path="url(#clipPath4)" />
    <path
       id="path5"
       d="M 402.39999,377.12 401.12,656.64001"
       style="fill:none;stroke:#000000;stroke-width:26.4;stroke-linecap:round;stroke-linejoin:round;stroke-miterlimit:10;stroke-dasharray:none;stroke-opacity:1"
       transform="translate(-92.053333,-241.60006)"
       clip-path="url(#clipPath6)" />
    <path
       id="path7"
       d="M 215.67999,373.44 213.28,648.32001"
       style="fill:none;stroke:#000000;stroke-width:26.4;stroke-linecap:round;stroke-linejoin:round;stroke-miterlimit:10;stroke-dasharray:none;stroke-opacity:1"
       transform="translate(-92.053333,-241.60006)"
       clip-path="url(#clipPath8)" />
    <path
       id="path9"
       d="m 0,0 -0.16,-6.24 -0.64,-6.08 -1.12,-6.239999 -1.44,-6.08 -1.92,-5.92 -2.08,-5.760001 -2.72,-5.760002 -2.88,-5.439998 -3.2,-5.279999 -3.68,-5.119999 -3.84,-4.800003 -4.32,-4.479996 -4.48,-4.32 -4.799999,-4 -4.960003,-3.68 -5.279998,-3.200005 -5.279999,-3.04 L -58.400002,-88 l -5.760002,-2.239998 -5.919998,-1.920006 -6.080002,-1.439994 -6.079994,-1.120003 -6.080002,-0.64 L -94.400002,-95.68 H -100.64"
       style="fill:none;stroke:#000000;stroke-width:26.4;stroke-linecap:round;stroke-linejoin:round;stroke-miterlimit:10;stroke-dasharray:none;stroke-opacity:1"
       transform="translate(123.46667,131.83994)"
       clip-path="url(#clipPath10)" />
    <path
       id="path11"
       d="M 208.32001,844.79999 585.91998,467.20001"
       style="fill:none;stroke:#000000;stroke-width:26.4;stroke-linecap:round;stroke-linejoin:round;stroke-miterlimit:10;stroke-dasharray:none;stroke-opacity:1"
       transform="translate(-92.053333,-241.60006)"
       clip-path="url(#clipPath12)" />
    <path
       id="path13"
       d="m 0,0 3.04,-1.12 2.72,-1.44 2.56,-1.6 2.4,-2.08 2.24,-2.08 1.92,-2.56 1.759999,-2.56 L 18.08,-16.16 19.040001,-19.200001 19.84,-22.08 l 0.48,-3.200001 0.16,-3.039999 -0.16,-3.040001 -0.48,-3.2 -0.799999,-2.879998 L 17.92,-40.48 16.48,-43.200001 14.88,-45.759998 12.8,-48.16 10.72,-50.400002 8.32,-52.32 5.6,-54.080002 2.88,-55.52 0,-56.639999 l -3.04,-0.8 -3.04,-0.479999 -3.2,-0.160004 -3.04,0.160004 -3.04,0.479999 -3.04,0.8 -2.880001,1.119999 -2.879999,1.439998 -2.559999,1.600002 -2.400002,1.919999 -2.24,2.240001 -1.919998,2.400002 -1.760002,2.559997 -1.439999,2.720002 -1.279998,2.880001"
       style="fill:none;stroke:#000000;stroke-width:26.4;stroke-linecap:round;stroke-linejoin:round;stroke-miterlimit:10;stroke-dasharray:none;stroke-opacity:1"
       transform="translate(491.14668,226.71995)"
       clip-path="url(#clipPath14)" />
  </g>
</svg>
