<?xml version="1.0" encoding="UTF-8" standalone="no"?>
<!-- Created with Inkscape (http://www.inkscape.org/) -->

<svg
   version="1.1"
   id="svg1"
   width="477.58667"
   height="289.65332"
   viewBox="0 0 477.58667 289.65332"
   sodipodi:docname="Scorpio22.pdf"
   xmlns:inkscape="http://www.inkscape.org/namespaces/inkscape"
   xmlns:sodipodi="http://sodipodi.sourceforge.net/DTD/sodipodi-0.dtd"
   xmlns="http://www.w3.org/2000/svg"
   xmlns:svg="http://www.w3.org/2000/svg">
  <defs
     id="defs1">
    <clipPath
       clipPathUnits="userSpaceOnUse"
       id="clipPath2">
      <path
         d="M 0,0.16 V 1122.5601 H 793.59998 V 0.16 Z"
         transform="translate(-271.83999,-493.28)"
         clip-rule="evenodd"
         id="path2" />
    </clipPath>
    <clipPath
       clipPathUnits="userSpaceOnUse"
       id="clipPath4">
      <path
         d="M 0,0.16 V 1122.5601 H 793.59998 V 0.16 Z"
         transform="translate(-362.55999,-493.28)"
         clip-rule="evenodd"
         id="path4" />
    </clipPath>
    <clipPath
       clipPathUnits="userSpaceOnUse"
       id="clipPath6">
      <path
         d="M 0,0.16 V 1122.5601 H 793.59998 V 0.16 Z"
         transform="translate(-453.11999,-493.28)"
         clip-rule="evenodd"
         id="path6" />
    </clipPath>
    <clipPath
       clipPathUnits="userSpaceOnUse"
       id="clipPath8">
      <path
         d="M 0,0.16 V 1122.5601 H 793.59998 V 0.16 Z"
         transform="translate(-543.67999,-493.28)"
         clip-rule="evenodd"
         id="path8" />
    </clipPath>
    <clipPath
       clipPathUnits="userSpaceOnUse"
       id="clipPath10">
      <path
         d="M 0,0.16 V 1122.5601 H 793.59998 V 0.16 Z"
         transform="translate(-3.3333333e-6)"
         clip-rule="evenodd"
         id="path10" />
    </clipPath>
    <clipPath
       clipPathUnits="userSpaceOnUse"
       id="clipPath12">
      <path
         d="M 0,0.16 V 1122.5601 H 793.59998 V 0.16 Z"
         transform="translate(-3.3333333e-6)"
         clip-rule="evenodd"
         id="path12" />
    </clipPath>
    <clipPath
       clipPathUnits="userSpaceOnUse"
       id="clipPath14">
      <path
         d="M 0,0.16 V 1122.5601 H 793.59998 V 0.16 Z"
         transform="translate(-543.67999,-496)"
         clip-rule="evenodd"
         id="path14" />
    </clipPath>
    <clipPath
       clipPathUnits="userSpaceOnUse"
       id="clipPath16">
      <path
         d="M 0,0.16 V 1122.5601 H 793.59998 V 0.16 Z"
         transform="translate(-3.3333333e-6)"
         clip-rule="evenodd"
         id="path16" />
    </clipPath>
    <clipPath
       clipPathUnits="userSpaceOnUse"
       id="clipPath18">
      <path
         d="M 0,0.16 V 1122.5601 H 793.59998 V 0.16 Z"
         transform="translate(-3.3333333e-6)"
         clip-rule="evenodd"
         id="path18" />
    </clipPath>
  </defs>
  <sodipodi:namedview
     id="namedview1"
     pagecolor="#505050"
     bordercolor="#eeeeee"
     borderopacity="1"
     inkscape:showpageshadow="0"
     inkscape:pageopacity="0"
     inkscape:pagecheckerboard="0"
     inkscape:deskcolor="#505050">
    <inkscape:page
       x="0"
       y="0"
       inkscape:label="1"
       id="page1"
       width="477.58667"
       height="289.65332"
       margin="0"
       bleed="0" />
  </sodipodi:namedview>
  <g
     id="g1"
     inkscape:groupmode="layer"
     inkscape:label="1">
    <path
       id="path1"
       d="m 0,0 v -3.84 l -0.48,-4 -0.96,-3.84 -1.12,-3.68 -1.6,-3.680001 -1.76,-3.519998 L -8,-25.92 -10.4,-29.120001 -13.12,-32 -16,-34.720001 l -3.200001,-2.399998 -3.359998,-2.080002 -3.520001,-1.759998 -3.68,-1.600002 -3.679999,-1.119999 -3.84,-0.959999 -4,-0.48 -3.84,-0.16 -4,0.16 -4,0.48 -3.84,0.959999 -3.68,1.119999 -3.680001,1.600002 -3.519996,1.759998 -3.360001,2.080002 -3.040001,2.399998 -3.040001,2.720001 -2.559997,2.879999 -2.400002,3.200001 -2.240005,3.360001 -1.759995,3.519998 L -87.68,-15.36 l -1.279999,3.68 -0.800003,3.84 -0.479996,4 -0.32,3.84"
       style="fill:none;stroke:#000000;stroke-width:26.4;stroke-linecap:round;stroke-linejoin:round;stroke-miterlimit:10;stroke-dasharray:none;stroke-opacity:1"
       transform="translate(118.42666,86.173274)"
       clip-path="url(#clipPath2)" />
    <path
       id="path3"
       d="m 0,0 -0.16,-3.84 -0.48,-4 -0.8,-3.84 -1.28,-3.68 -1.44,-3.680001 -1.92,-3.519998 L -8.16,-25.92 -10.56,-29.120001 -13.28,-32 l -2.88,-2.720001 -3.200001,-2.399998 -3.199998,-2.080002 -3.520001,-1.759998 -3.68,-1.600002 -3.839998,-1.119999 -3.840001,-0.959999 -3.84,-0.48 -4,-0.16 -4,0.16 -3.84,0.48 -3.84,0.959999 -3.84,1.119999 -3.680004,1.600002 -3.519997,1.759998 -3.199997,2.080002 -3.200005,2.399998 L -77.279999,-32 -80,-29.120001 -82.400002,-25.92 l -2.080001,3.360001 -1.919999,3.519998 -1.439994,3.680001 -1.280007,3.68 -0.799995,3.84 -0.480004,4 -0.319999,3.84"
       style="fill:none;stroke:#000000;stroke-width:26.4;stroke-linecap:round;stroke-linejoin:round;stroke-miterlimit:10;stroke-dasharray:none;stroke-opacity:1"
       transform="translate(209.14666,86.173274)"
       clip-path="url(#clipPath4)" />
    <path
       id="path5"
       d="m 0,0 -0.16,-3.84 -0.48,-4 -0.8,-3.84 -1.28,-3.68 -1.44,-3.680001 -1.76,-3.519998 L -8.16,-25.92 -10.56,-29.120001 -13.12,-32 l -3.04,-2.720001 -3.040001,-2.399998 -3.359998,-2.080002 -3.520001,-1.759998 -3.68,-1.600002 -3.679999,-1.119999 -3.84,-0.959999 -4,-0.48 -4,-0.16 -3.84,0.16 -4,0.48 -3.84,0.959999 -3.68,1.119999 -3.680001,1.600002 -3.519996,1.759998 -3.360001,2.080002 -3.200005,2.399998 L -77.279999,-32 -80,-29.120001 -82.400002,-25.92 l -2.080001,3.360001 -1.759995,3.519998 -1.599998,3.680001 -1.120003,3.68 -0.959999,3.84 -0.480004,4 -0.159996,3.84"
       style="fill:none;stroke:#000000;stroke-width:26.4;stroke-linecap:round;stroke-linejoin:round;stroke-miterlimit:10;stroke-dasharray:none;stroke-opacity:1"
       transform="translate(299.70666,86.173274)"
       clip-path="url(#clipPath6)" />
    <path
       id="path7"
       d="m 0,0 -0.16,-3.84 -0.48,-4 -0.8,-3.84 -1.28,-3.68 -1.44,-3.680001 -1.92,-3.519998 -2.08,-3.360001 -2.4,-3.039999 -2.56,-2.880001 -3.04,-2.720001 -3.040001,-2.399998 -3.359998,-2.080002 -3.520001,-1.919998 -3.68,-1.440003 -3.679999,-1.279998 -3.84,-0.8 -4,-0.479999 -3.84,-0.16 -4,0.16 -3.84,0.479999 -3.84,0.8 -3.84,1.279998 -3.680001,1.440003 -3.519996,1.919998 -3.200005,2.080002 -3.199997,2.399998 -2.880005,2.720001 -2.719993,2.880001 -2.400002,3.039999 -2.080002,3.360001 -1.760002,3.519998 L -87.68,-15.36 l -1.120003,3.68 -0.959999,3.84 -0.479996,4 -0.160004,3.84"
       style="fill:none;stroke:#000000;stroke-width:26.4;stroke-linecap:round;stroke-linejoin:round;stroke-miterlimit:10;stroke-dasharray:none;stroke-opacity:1"
       transform="translate(390.26666,86.173274)"
       clip-path="url(#clipPath8)" />
    <path
       id="path9"
       d="M 272,493.28 V 674.56"
       style="fill:none;stroke:#000000;stroke-width:26.4;stroke-linecap:round;stroke-linejoin:round;stroke-miterlimit:10;stroke-dasharray:none;stroke-opacity:1"
       transform="translate(-153.41333,-407.10673)"
       clip-path="url(#clipPath10)" />
    <path
       id="path11"
       d="M 362.56,493.28 V 674.56"
       style="fill:none;stroke:#000000;stroke-width:26.4;stroke-linecap:round;stroke-linejoin:round;stroke-miterlimit:10;stroke-dasharray:none;stroke-opacity:1"
       transform="translate(-153.41333,-407.10673)"
       clip-path="url(#clipPath12)" />
    <path
       id="path13"
       d="m 0,0 0.8,3.68 0.96,3.52 1.28,3.36 1.76,3.2 1.92,3.039999 2.24,2.880001 2.4,2.56 2.72,2.399999 2.879999,2.08 3.200001,1.92 L 23.360001,30.08 26.879999,31.360001 30.4,32.16 l 3.519998,0.639999 3.520001,0.16 3.68,-0.16 3.52,-0.479999 3.520001,-0.8 3.52,-1.12 3.360001,-1.440001 3.040001,-1.919998"
       style="fill:none;stroke:#000000;stroke-width:26.4;stroke-linecap:round;stroke-linejoin:round;stroke-miterlimit:10;stroke-dasharray:none;stroke-opacity:1"
       transform="translate(390.26666,88.893275)"
       clip-path="url(#clipPath14)" />
    <path
       id="path15"
       d="m 575.35998,506.72 36.96003,7.99997"
       style="fill:none;stroke:#000000;stroke-width:26.4;stroke-linecap:round;stroke-linejoin:round;stroke-miterlimit:10;stroke-dasharray:none;stroke-opacity:1"
       transform="translate(-153.41333,-407.10673)"
       clip-path="url(#clipPath16)" />
    <path
       id="path17"
       d="m 612.32001,514.71997 -8,36.80005"
       style="fill:none;stroke:#000000;stroke-width:26.4;stroke-linecap:round;stroke-linejoin:round;stroke-miterlimit:10;stroke-dasharray:none;stroke-opacity:1"
       transform="translate(-153.41333,-407.10673)"
       clip-path="url(#clipPath18)" />
  </g>
</svg>
