<?xml version="1.0" encoding="UTF-8" standalone="no"?>
<!-- Created with Inkscape (http://www.inkscape.org/) -->

<svg
   version="1.1"
   id="svg1"
   width="458.90668"
   height="277.64001"
   viewBox="0 0 458.90668 277.64001"
   sodipodi:docname="Scorpio18.pdf"
   xmlns:inkscape="http://www.inkscape.org/namespaces/inkscape"
   xmlns:sodipodi="http://sodipodi.sourceforge.net/DTD/sodipodi-0.dtd"
   xmlns="http://www.w3.org/2000/svg"
   xmlns:svg="http://www.w3.org/2000/svg">
  <defs
     id="defs1">
    <clipPath
       clipPathUnits="userSpaceOnUse"
       id="clipPath2">
      <path
         d="M 0,0.16 V 1122.5601 H 793.59998 V 0.16 Z"
         transform="translate(-490.07998,-523.52002)"
         clip-rule="evenodd"
         id="path2" />
    </clipPath>
    <clipPath
       clipPathUnits="userSpaceOnUse"
       id="clipPath4">
      <path
         d="M 0,0.16 V 1122.5601 H 793.59998 V 0.16 Z"
         transform="translate(-527.84002,-523.52002)"
         clip-rule="evenodd"
         id="path4" />
    </clipPath>
    <clipPath
       clipPathUnits="userSpaceOnUse"
       id="clipPath6">
      <path
         d="M 0,0.16 V 1122.5601 H 793.59998 V 0.16 Z"
         transform="translate(-263.51999,-599.03998)"
         clip-rule="evenodd"
         id="path6" />
    </clipPath>
    <clipPath
       clipPathUnits="userSpaceOnUse"
       id="clipPath8">
      <path
         d="M 0,0.16 V 1122.5601 H 793.59998 V 0.16 Z"
         transform="translate(-527.84002,-674.56)"
         clip-rule="evenodd"
         id="path8" />
    </clipPath>
  </defs>
  <sodipodi:namedview
     id="namedview1"
     pagecolor="#505050"
     bordercolor="#eeeeee"
     borderopacity="1"
     inkscape:showpageshadow="0"
     inkscape:pageopacity="0"
     inkscape:pagecheckerboard="0"
     inkscape:deskcolor="#505050">
    <inkscape:page
       x="0"
       y="0"
       inkscape:label="1"
       id="page1"
       width="458.90668"
       height="277.64001"
       margin="0"
       bleed="0" />
  </sodipodi:namedview>
  <g
     id="g1"
     inkscape:groupmode="layer"
     inkscape:label="1">
    <path
       id="path1"
       d="m 0,0 c 0,-41.700001 -33.810001,-75.519997 -75.519997,-75.519997 -41.710003,0 -75.519993,33.819996 -75.519993,75.519997 0,41.700001 33.80999,75.519997 75.519993,75.519997 C -33.810001,75.519997 0,41.700001 0,0 Z"
       style="fill:none;stroke:#000000;stroke-width:26.4;stroke-linecap:round;stroke-linejoin:round;stroke-miterlimit:10;stroke-dasharray:none;stroke-opacity:1"
       transform="translate(321.98665,97.719961)"
       clip-path="url(#clipPath2)" />
    <path
       id="path3"
       d="m 0,0 c 0,-10.42 -8.45,-18.879999 -18.879999,-18.879999 -10.43,0 -18.879999,8.459999 -18.879999,18.879999 0,10.42 8.449999,18.879999 18.879999,18.879999 C -8.45,18.879999 0,10.42 0,0 Z"
       style="fill:none;stroke:#000000;stroke-width:26.4;stroke-linecap:round;stroke-linejoin:round;stroke-miterlimit:10;stroke-dasharray:none;stroke-opacity:1"
       transform="translate(359.74669,97.719961)"
       clip-path="url(#clipPath4)" />
    <path
       id="path5"
       d="M 0,0 5.44,-0.16 10.72,-0.8 16,-1.76 21.120001,-3.04 26.24,-4.64 31.200001,-6.72 36,-9.12 l 4.639999,-2.72 4.32,-3.04 4.32,-3.36 3.84,-3.52 3.68,-4 3.360001,-4.16 3.200001,-4.320002 2.720001,-4.639999 L 68.480003,-43.52 70.559998,-48.48 72.32,-53.599998 73.760002,-58.720001 74.720001,-64 l 0.64,-5.279999 0.159996,-5.440002 L 75.360001,-80 l -0.480004,-5.440002 -0.799995,-5.279999 -1.279999,-5.119995 -1.600006,-5.120004 -2.079994,-4.96 -2.240006,-4.8 -2.719993,-4.64 -3.040005,-4.48 -3.200001,-4.16 -3.679996,-4 -3.84,-3.67999 -4,-3.52001 -4.480004,-3.04 -4.479999,-2.87999 -4.8,-2.40001 L 27.84,-145.75999 22.719999,-147.52 17.6,-148.96001 12.32,-150.08 l -5.28,-0.64 -5.44,-0.31999 -5.28,0.15999 -5.28,0.48001 -5.28,0.79998 -5.28,1.12001 -5.119999,1.6 -4.960001,1.91999 -4.800002,2.24001 -4.799999,2.72 -4.479999,2.88001 -4.16,3.19999 -4,3.68 -3.84,3.68 -3.360001,4.16 -3.200001,4.32 -2.880001,4.48 -2.559997,4.8 -2.239998,4.8 -1.760002,5.120003 -1.599999,4.959999"
       style="fill:none;stroke:#000000;stroke-width:26.4;stroke-linecap:round;stroke-linejoin:round;stroke-miterlimit:10;stroke-dasharray:none;stroke-opacity:1"
       transform="translate(95.426656,173.23992)"
       clip-path="url(#clipPath6)" />
    <path
       id="path7"
       d="m 0,0 5.44,-0.16 5.44,-0.64 5.44,-0.96 5.28,-1.28 5.119999,-1.76 4.960001,-2.08 4.959999,-2.56 4.64,-2.72 4.479999,-3.2 4.16,-3.519999 4,-3.68 3.68,-4 3.360001,-4.32 L 64,-35.360001 66.720001,-40.16 l 2.400002,-4.799999 2.079994,-5.120003 1.600006,-5.119999 1.279999,-5.279999 0.799995,-5.439998 0.480004,-5.440003 0.159996,-5.440002 -0.32,-5.439995 L 74.559998,-87.68 73.440002,-92.959999 72,-98.239998 70.239998,-103.36 68,-108.32 l -2.559998,-4.8 -2.880001,-4.64 -3.2,-4.48 -3.520001,-4.16 -3.84,-3.84 -4,-3.68 -4.32,-3.19999 -4.639999,-3.04001 -4.799999,-2.56 -4.960001,-2.39999 -4.960001,-1.92 L 19.040001,-148.64 13.76,-149.75999 8.32,-150.56 2.88,-151.03999"
       style="fill:none;stroke:#000000;stroke-width:26.4;stroke-linecap:round;stroke-linejoin:round;stroke-miterlimit:10;stroke-dasharray:none;stroke-opacity:1"
       transform="translate(359.74669,248.75994)"
       clip-path="url(#clipPath8)" />
  </g>
</svg>
