<?xml version="1.0" encoding="UTF-8" standalone="no"?>
<!-- Created with Inkscape (http://www.inkscape.org/) -->

<svg
   version="1.1"
   id="svg1"
   width="497.60001"
   height="512.56"
   viewBox="0 0 497.60001 512.56"
   sodipodi:docname="Scorpio3.pdf"
   xmlns:inkscape="http://www.inkscape.org/namespaces/inkscape"
   xmlns:sodipodi="http://sodipodi.sourceforge.net/DTD/sodipodi-0.dtd"
   xmlns="http://www.w3.org/2000/svg"
   xmlns:svg="http://www.w3.org/2000/svg">
  <defs
     id="defs1">
    <clipPath
       clipPathUnits="userSpaceOnUse"
       id="clipPath2">
      <path
         d="M 0,0.16 V 1122.5601 H 793.59998 V 0.16 Z"
         transform="translate(-317.28,-514.08002)"
         clip-rule="evenodd"
         id="path2" />
    </clipPath>
    <clipPath
       clipPathUnits="userSpaceOnUse"
       id="clipPath4">
      <path
         d="M 0,0.16 V 1122.5601 H 793.59998 V 0.16 Z"
         transform="translate(-506.07999,-514.08002)"
         clip-rule="evenodd"
         id="path4" />
    </clipPath>
    <clipPath
       clipPathUnits="userSpaceOnUse"
       id="clipPath6">
      <path
         d="M 0,0.16 V 1122.5601 H 793.59998 V 0.16 Z"
         transform="translate(3.3333333e-6)"
         clip-rule="evenodd"
         id="path6" />
    </clipPath>
    <clipPath
       clipPathUnits="userSpaceOnUse"
       id="clipPath8">
      <path
         d="M 0,0.16 V 1122.5601 H 793.59998 V 0.16 Z"
         transform="translate(-431.51999,-520.79999)"
         clip-rule="evenodd"
         id="path8" />
    </clipPath>
    <clipPath
       clipPathUnits="userSpaceOnUse"
       id="clipPath10">
      <path
         d="M 0,0.16 V 1122.5601 H 793.59998 V 0.16 Z"
         transform="translate(3.3333333e-6)"
         clip-rule="evenodd"
         id="path10" />
    </clipPath>
    <clipPath
       clipPathUnits="userSpaceOnUse"
       id="clipPath12">
      <path
         d="M 0,0.16 V 1122.5601 H 793.59998 V 0.16 Z"
         transform="translate(3.3333333e-6)"
         clip-rule="evenodd"
         id="path12" />
    </clipPath>
  </defs>
  <sodipodi:namedview
     id="namedview1"
     pagecolor="#505050"
     bordercolor="#eeeeee"
     borderopacity="1"
     inkscape:showpageshadow="0"
     inkscape:pageopacity="0"
     inkscape:pagecheckerboard="0"
     inkscape:deskcolor="#505050">
    <inkscape:page
       x="0"
       y="0"
       inkscape:label="1"
       id="page1"
       width="497.60001"
       height="512.56"
       margin="0"
       bleed="0" />
  </sodipodi:namedview>
  <g
     id="g1"
     inkscape:groupmode="layer"
     inkscape:label="1">
    <path
       id="path1"
       d="m 0,0 -0.16,-6.24 -0.64,-6.08 -0.96,-6.239999 -1.44,-6.08 -1.92,-5.92 L -7.2,-36.32 -9.92,-42.080002 -12.8,-47.52 l -3.36,-5.279999 -3.68,-4.959999 -3.84,-4.800003 -4.32,-4.639996 -4.639999,-4.160004 -4.8,-3.839996 -5.120002,-3.68 -5.279999,-3.200005 -5.599999,-2.879997 -5.600002,-2.559998 -5.919998,-2.080001 -5.919998,-1.760003 -6.080002,-1.440002 -6.239998,-0.959999 -6.080002,-0.479996 -6.239998,-0.160004 -6.240003,0.32 -6.24,0.64 -6.08,1.120002 -6.08,1.599999 -5.92,1.919998 -5.76,2.240005 -5.6,2.559998 -5.59999,3.040001"
       style="fill:none;stroke:#000000;stroke-width:26.4;stroke-linecap:round;stroke-linejoin:round;stroke-miterlimit:10;stroke-dasharray:none;stroke-opacity:1"
       transform="translate(170.53333,213.74663)"
       clip-path="url(#clipPath2)" />
    <path
       id="path3"
       d="m 0,0 -0.16,-6.08 -0.64,-6.24 -0.96,-6.08 -1.44,-5.92 -1.76,-5.92 -2.24,-5.92 -2.56,-5.599998 -2.88,-5.440003 -3.2,-5.279999 -3.68,-4.959999 -3.840001,-4.800003 -4.319999,-4.479999 -4.48,-4.159996 -4.799999,-4 -4.959999,-3.520005 -5.280003,-3.36 -5.439998,-2.879997 -5.600003,-2.559998 L -64,-89.279999 -69.919998,-91.199997 -76,-92.480003 l -6.080002,-1.119995 -6.080002,-0.480004 -6.239998,-0.32 -6.079998,0.32 -6.24,0.480004 -6.08,1.119995 -6.08,1.280006 -5.76,1.919998 -5.92,2.080002 -5.6,2.559998 -5.44001,2.879997 -5.27999,3.36 -4.96,3.520005 -4.8,4 -4.47999,4.159996 -4.16001,4.479999 -4,4.800003 -3.52,4.959999 -3.36,5.279999 -2.87999,5.440003 -2.56002,5.599998 -2.07998,5.92 -1.92002,5.92 -1.27999,5.92 -1.12,6.08 -0.64,6.24 -0.16,6.08"
       style="fill:none;stroke:#000000;stroke-width:26.4;stroke-linecap:round;stroke-linejoin:round;stroke-miterlimit:10;stroke-dasharray:none;stroke-opacity:1"
       transform="translate(359.33332,213.74663)"
       clip-path="url(#clipPath4)" />
    <path
       id="path5"
       d="M 317.28,514.08002 V 797.28003"
       style="fill:none;stroke:#000000;stroke-width:26.4;stroke-linecap:round;stroke-linejoin:round;stroke-miterlimit:10;stroke-dasharray:none;stroke-opacity:1"
       transform="translate(-146.74667,-300.33339)"
       clip-path="url(#clipPath6)" />
    <path
       id="path7"
       d="m 0,0 -3.04,2.72 -3.04,3.04 -3.04,3.52 -2.72,3.84 -2.88,4.320001 L -17.280001,22.08 -19.84,27.040001 -22.24,32.32 l -2.24,5.599998 -2.079999,5.920002 -2.08,6.240002 L -30.4,56.48 l -1.6,6.720001 -1.439999,6.880001 -1.280002,7.199997 -1.119999,7.200004 -0.959999,7.359993 -0.799999,7.520005 -0.480004,7.679999 -0.479999,7.68 -0.16,7.68 v 7.68 l 0.319999,7.67999 0.32,7.68001 0.640003,7.52001 0.8,7.51999 0.959999,7.36 1.119999,7.19999 1.280002,7.20001 1.599999,6.72001 1.6,6.71998 1.92,6.40001 1.92,6.24001 2.24,5.75999 2.24,5.59999 2.399999,5.28002 2.560002,4.79998 2.719999,4.64 2.72,4.16001 2.88,3.83999 3.04,3.36 3.04,3.04001 3.04,2.56 3.2,2.08 3.2,1.76 3.2,1.28001 3.36,0.79999 3.359999,0.32001 L 20.16,257.44 23.52,256.95999 26.719999,256 30.08,254.56 l 3.199999,-1.92 3.040001,-2.24001 3.2,-2.72 3.040001,-3.19999 2.879998,-3.51999 L 48.32,237.11999 51.040001,232.8 53.599998,228 56.16,223.03999 58.560001,217.60001 60.799999,212 l 2.080002,-5.92 1.920002,-6.24 1.759995,-6.56 1.600006,-6.72 1.439994,-6.88001 L 70.879997,172.48 72,165.11999 l 0.800003,-7.36 0.799995,-7.51999 0.480004,-7.68 0.32,-7.52001 0.159996,-7.83999 v -7.68 l -0.32,-7.68 -0.32,-7.68 L 73.279999,96.639999 72.32,89.120003"
       style="fill:none;stroke:#000000;stroke-width:26.4;stroke-linecap:round;stroke-linejoin:round;stroke-miterlimit:10;stroke-dasharray:none;stroke-opacity:1"
       transform="translate(284.77332,220.4666)"
       clip-path="url(#clipPath8)" />
    <path
       id="path9"
       d="M 506.07999,514.08002 503.84,609.91998"
       style="fill:none;stroke:#000000;stroke-width:26.4;stroke-linecap:round;stroke-linejoin:round;stroke-miterlimit:10;stroke-dasharray:none;stroke-opacity:1"
       transform="translate(-146.74667,-300.33339)"
       clip-path="url(#clipPath10)" />
    <path
       id="path11"
       d="M 431.51999,520.96002 619.35998,325.28"
       style="fill:none;stroke:#000000;stroke-width:26.4;stroke-linecap:round;stroke-linejoin:round;stroke-miterlimit:10;stroke-dasharray:none;stroke-opacity:1"
       transform="translate(-146.74667,-300.33339)"
       clip-path="url(#clipPath12)" />
  </g>
</svg>
