<?xml version="1.0" encoding="UTF-8" standalone="no"?>
<!-- Created with Inkscape (http://www.inkscape.org/) -->

<svg
   version="1.1"
   id="svg1"
   width="509.60001"
   height="423.13333"
   viewBox="0 0 509.60001 423.13333"
   sodipodi:docname="Scorpio14.pdf"
   xmlns:inkscape="http://www.inkscape.org/namespaces/inkscape"
   xmlns:sodipodi="http://sodipodi.sourceforge.net/DTD/sodipodi-0.dtd"
   xmlns="http://www.w3.org/2000/svg"
   xmlns:svg="http://www.w3.org/2000/svg">
  <defs
     id="defs1">
    <clipPath
       clipPathUnits="userSpaceOnUse"
       id="clipPath2">
      <path
         d="M 0,0.16 V 1122.5601 H 793.59998 V 0.16 Z"
         clip-rule="evenodd"
         id="path2" />
    </clipPath>
    <clipPath
       clipPathUnits="userSpaceOnUse"
       id="clipPath4">
      <path
         d="M 0,0.16 V 1122.5601 H 793.59998 V 0.16 Z"
         transform="translate(-623.35998,-405.12)"
         clip-rule="evenodd"
         id="path4" />
    </clipPath>
    <clipPath
       clipPathUnits="userSpaceOnUse"
       id="clipPath6">
      <path
         d="M 0,0.16 V 1122.5601 H 793.59998 V 0.16 Z"
         clip-rule="evenodd"
         id="path6" />
    </clipPath>
    <clipPath
       clipPathUnits="userSpaceOnUse"
       id="clipPath8">
      <path
         d="M 0,0.16 V 1122.5601 H 793.59998 V 0.16 Z"
         clip-rule="evenodd"
         id="path8" />
    </clipPath>
    <clipPath
       clipPathUnits="userSpaceOnUse"
       id="clipPath10">
      <path
         d="M 0,0.16 V 1122.5601 H 793.59998 V 0.16 Z"
         clip-rule="evenodd"
         id="path10" />
    </clipPath>
  </defs>
  <sodipodi:namedview
     id="namedview1"
     pagecolor="#505050"
     bordercolor="#eeeeee"
     borderopacity="1"
     inkscape:showpageshadow="0"
     inkscape:pageopacity="0"
     inkscape:pagecheckerboard="0"
     inkscape:deskcolor="#505050">
    <inkscape:page
       x="0"
       y="0"
       inkscape:label="1"
       id="page1"
       width="509.60001"
       height="423.13333"
       margin="0"
       bleed="0" />
  </sodipodi:namedview>
  <g
     id="g1"
     inkscape:groupmode="layer"
     inkscape:label="1">
    <path
       id="path1"
       d="m 283.51999,745.12 226.56,-226.56"
       style="fill:none;stroke:#000000;stroke-width:26.4;stroke-linecap:round;stroke-linejoin:round;stroke-miterlimit:10;stroke-dasharray:none;stroke-opacity:1"
       transform="translate(0,10.679941)"
       clip-path="url(#clipPath2)" />
    <path
       id="path3"
       d="m 0,0 -4.16,-3.68 -4.48,-3.68 -4.64,-3.2 -4.96,-2.88 -5.120001,-2.56 -5.279998,-2.24 -5.440003,-1.76 -5.439998,-1.440001 -5.759999,-1.119998 -5.600002,-0.480002 -5.759998,-0.32 -5.600003,0.32 L -68,-22.559999 -73.599998,-21.440001 -79.199997,-20 l -5.440002,1.76 -5.279999,2.24 -5.120003,2.56 -4.799995,2.88 -4.800004,3.2 -4.48,3.68 -4.16,3.84 -3.84,4.16 -3.68,4.48 -3.2,4.64 -2.88,4.96 -2.56,5.12 -2.23999,5.279999 -1.76001,5.440003 -1.44,5.599998 -0.96,5.599999 -0.64,5.600002 -0.16,5.759998 0.16,5.760002 0.64,5.600003 0.96,5.599998 1.44,5.599999 1.76001,5.440002 2.23999,5.279999 2.56,5.119995 2.88,4.960003 3.2,4.64 3.68,4.48 3.84,4"
       style="fill:none;stroke:#000000;stroke-width:26.4;stroke-linecap:round;stroke-linejoin:round;stroke-miterlimit:10;stroke-dasharray:none;stroke-opacity:1"
       transform="translate(623.35998,415.79994)"
       clip-path="url(#clipPath4)" />
    <path
       id="path5"
       d="M 283.51999,745.12 V 575.20001"
       style="fill:none;stroke:#000000;stroke-width:26.4;stroke-linecap:round;stroke-linejoin:round;stroke-miterlimit:10;stroke-dasharray:none;stroke-opacity:1"
       transform="translate(0,10.679941)"
       clip-path="url(#clipPath6)" />
    <path
       id="path7"
       d="M 170.24,405.28 283.51999,575.20001"
       style="fill:none;stroke:#000000;stroke-width:26.4;stroke-linecap:round;stroke-linejoin:round;stroke-miterlimit:10;stroke-dasharray:none;stroke-opacity:1"
       transform="translate(0,10.679941)"
       clip-path="url(#clipPath8)" />
    <path
       id="path9"
       d="M 277.44,438.56 227.52,399.67999 260.79999,377.44 277.44,438.56"
       style="fill:none;stroke:#000000;stroke-width:26.4;stroke-linecap:round;stroke-linejoin:round;stroke-miterlimit:10;stroke-dasharray:none;stroke-opacity:1"
       transform="translate(0,10.679941)"
       clip-path="url(#clipPath10)" />
  </g>
</svg>
