<?xml version="1.0" encoding="UTF-8" standalone="no"?>
<!-- Created with Inkscape (http://www.inkscape.org/) -->

<svg
   version="1.1"
   id="svg1"
   width="465.57333"
   height="274.95999"
   viewBox="0 0 465.57333 274.95999"
   sodipodi:docname="Semisextile2.pdf"
   xmlns:inkscape="http://www.inkscape.org/namespaces/inkscape"
   xmlns:sodipodi="http://sodipodi.sourceforge.net/DTD/sodipodi-0.dtd"
   xmlns="http://www.w3.org/2000/svg"
   xmlns:svg="http://www.w3.org/2000/svg">
  <defs
     id="defs1">
    <clipPath
       clipPathUnits="userSpaceOnUse"
       id="clipPath2">
      <path
         d="M 0,0.16 V 1122.5601 H 793.59998 V 0.16 Z"
         clip-rule="evenodd"
         id="path2" />
    </clipPath>
    <clipPath
       clipPathUnits="userSpaceOnUse"
       id="clipPath4">
      <path
         d="M 0,0.16 V 1122.5601 H 793.59998 V 0.16 Z"
         clip-rule="evenodd"
         id="path4" />
    </clipPath>
    <clipPath
       clipPathUnits="userSpaceOnUse"
       id="clipPath6">
      <path
         d="M 0,0.16 V 1122.5601 H 793.59998 V 0.16 Z"
         clip-rule="evenodd"
         id="path6" />
    </clipPath>
    <clipPath
       clipPathUnits="userSpaceOnUse"
       id="clipPath8">
      <path
         d="M 0,0.16 V 1122.5601 H 793.59998 V 0.16 Z"
         transform="translate(-289.92001,-447.51999)"
         clip-rule="evenodd"
         id="path8" />
    </clipPath>
    <clipPath
       clipPathUnits="userSpaceOnUse"
       id="clipPath10">
      <path
         d="M 0,0.16 V 1122.5601 H 793.59998 V 0.16 Z"
         transform="translate(-188.16,-675.03998)"
         clip-rule="evenodd"
         id="path10" />
    </clipPath>
  </defs>
  <sodipodi:namedview
     id="namedview1"
     pagecolor="#505050"
     bordercolor="#eeeeee"
     borderopacity="1"
     inkscape:showpageshadow="0"
     inkscape:pageopacity="0"
     inkscape:pagecheckerboard="0"
     inkscape:deskcolor="#505050">
    <inkscape:page
       x="0"
       y="0"
       inkscape:label="1"
       id="page1"
       width="465.57333"
       height="274.95999"
       margin="0"
       bleed="0" />
  </sodipodi:namedview>
  <g
     id="g1"
     inkscape:groupmode="layer"
     inkscape:label="1">
    <path
       id="path1"
       d="M 288.16,563.84003 H 605.44"
       style="fill:none;stroke:#000000;stroke-width:26.4;stroke-linecap:round;stroke-linejoin:round;stroke-miterlimit:10;stroke-dasharray:none;stroke-opacity:1"
       transform="translate(-166.76,-424.46673)"
       clip-path="url(#clipPath2)" />
    <path
       id="path3"
       d="M 341.12,666.40002 558.88,451.67999"
       style="fill:none;stroke:#000000;stroke-width:26.4;stroke-linecap:round;stroke-linejoin:round;stroke-miterlimit:10;stroke-dasharray:none;stroke-opacity:1"
       transform="translate(-166.76,-424.46673)"
       clip-path="url(#clipPath4)" />
    <path
       id="path5"
       d="M 334.72,451.67999 552.47998,666.40002"
       style="fill:none;stroke:#000000;stroke-width:26.4;stroke-linecap:round;stroke-linejoin:round;stroke-miterlimit:10;stroke-dasharray:none;stroke-opacity:1"
       transform="translate(-166.76,-424.46673)"
       clip-path="url(#clipPath6)" />
    <path
       id="path7"
       d="m 0,0 -5.12,-1.28 -5.12,-0.96 -5.44,-0.8 -5.279999,-0.32 -5.440001,-0.16 -5.44,0.16 -5.279999,0.64 -5.280003,0.8 -5.279998,1.12 -4.959999,1.44 -4.959999,1.6 -4.800004,2.08 -4.639999,2.24 -4.32,2.4 -4.159996,2.88 -4,2.88 -3.520004,3.2 -3.360001,3.360001 -3.04,3.679998 -2.720002,3.68 -2.239998,3.840001 -2.080001,4 -1.599999,4.159999 -1.279999,4.16 -0.959999,4.32 -0.48,4.32 v 4.319999 l 0.16,4.320004 0.64,4.159996 1.120003,4.32 1.439995,4.160003 1.760002,4 2.080002,4 2.400001,3.839997 2.879997,3.68 3.199997,3.520004 3.360001,3.360001 3.68,3.039997 4,2.88 4.32,2.72 4.480003,2.4 4.64,2.08 4.799999,1.92 4.959999,1.6"
       style="fill:none;stroke:#000000;stroke-width:26.4;stroke-linecap:round;stroke-linejoin:round;stroke-miterlimit:10;stroke-dasharray:none;stroke-opacity:1"
       transform="translate(123.16001,23.053264)"
       clip-path="url(#clipPath8)" />
    <path
       id="path9"
       d="m 0,0 5.28,1.28 5.28,1.12 5.28,0.64 5.440001,0.48 h 5.279998 L 32,3.36 37.279999,2.88 42.560001,1.92 47.84,0.8 l 5.119999,-1.28 4.959999,-1.76 4.800003,-1.92 4.479996,-2.4 4.480003,-2.4 4.159996,-2.72 3.840004,-3.04 3.680001,-3.2 3.199997,-3.360001 3.04,-3.679998 2.720002,-3.68 2.400001,-3.840001 1.919998,-4 1.599999,-4.159999 1.279999,-4.16 0.960003,-4.32 0.48,-4.32 0.16,-4.319999 -0.32,-4.16 -0.64,-4.32 -0.960003,-4.32 -1.439995,-4.160003 -1.760002,-4 -2.239998,-4 -2.400001,-3.839997 -2.879998,-3.68 -3.040001,-3.520004 -3.520004,-3.199997 -3.68,-3.200001 -4,-2.88 -4.32,-2.72 -4.479996,-2.4 -4.640003,-2.08 L 56,-112.16 l -5.119999,-1.6"
       style="fill:none;stroke:#000000;stroke-width:26.4;stroke-linecap:round;stroke-linejoin:round;stroke-miterlimit:10;stroke-dasharray:none;stroke-opacity:1"
       transform="translate(21.400004,250.57325)"
       clip-path="url(#clipPath10)" />
  </g>
</svg>
