<?xml version="1.0" encoding="UTF-8" standalone="no"?>
<!-- Created with Inkscape (http://www.inkscape.org/) -->

<svg
   version="1.1"
   id="svg1"
   width="517.59998"
   height="516.56"
   viewBox="0 0 517.59998 516.56"
   sodipodi:docname="Sun16.pdf"
   xmlns:inkscape="http://www.inkscape.org/namespaces/inkscape"
   xmlns:sodipodi="http://sodipodi.sourceforge.net/DTD/sodipodi-0.dtd"
   xmlns="http://www.w3.org/2000/svg"
   xmlns:svg="http://www.w3.org/2000/svg">
  <defs
     id="defs1">
    <clipPath
       clipPathUnits="userSpaceOnUse"
       id="clipPath2">
      <path
         d="M 0,0.16 V 1122.5601 H 793.59998 V 0.16 Z"
         transform="translate(-396.79999,-561.28003)"
         clip-rule="evenodd"
         id="path2" />
    </clipPath>
    <clipPath
       clipPathUnits="userSpaceOnUse"
       id="clipPath4">
      <path
         d="M 0,0.16 V 1122.5601 H 793.59998 V 0.16 Z"
         transform="translate(-396.79999,-561.28003)"
         clip-rule="evenodd"
         id="path4" />
    </clipPath>
    <clipPath
       clipPathUnits="userSpaceOnUse"
       id="clipPath6">
      <path
         d="M 0,0.16 V 1122.5601 H 793.59998 V 0.16 Z"
         transform="translate(-396.79999,-561.28003)"
         clip-rule="evenodd"
         id="path6" />
    </clipPath>
    <clipPath
       clipPathUnits="userSpaceOnUse"
       id="clipPath8">
      <path
         d="M 0,0.16 V 1122.5601 H 793.59998 V 0.16 Z"
         transform="translate(-396.79999,-561.28003)"
         clip-rule="evenodd"
         id="path8" />
    </clipPath>
    <clipPath
       clipPathUnits="userSpaceOnUse"
       id="clipPath10">
      <path
         d="M 0,0.16 V 1122.5601 H 793.59998 V 0.16 Z"
         transform="translate(-396.79999,-561.28003)"
         clip-rule="evenodd"
         id="path10" />
    </clipPath>
    <clipPath
       clipPathUnits="userSpaceOnUse"
       id="clipPath12">
      <path
         d="M 0,0.16 V 1122.5601 H 793.59998 V 0.16 Z"
         transform="translate(-396.79999,-561.28003)"
         clip-rule="evenodd"
         id="path12" />
    </clipPath>
  </defs>
  <sodipodi:namedview
     id="namedview1"
     pagecolor="#505050"
     bordercolor="#eeeeee"
     borderopacity="1"
     inkscape:showpageshadow="0"
     inkscape:pageopacity="0"
     inkscape:pagecheckerboard="0"
     inkscape:deskcolor="#505050">
    <inkscape:page
       x="0"
       y="0"
       inkscape:label="1"
       id="page1"
       width="517.59998"
       height="516.56"
       margin="0"
       bleed="0" />
  </sodipodi:namedview>
  <g
     id="g1"
     inkscape:groupmode="layer"
     inkscape:label="1">
    <path
       id="path1"
       d="m 0,0 -2.4,-10.08 -2.72,-9.92 -2.72,-9.92 -2.88,-9.92 -3.04,-9.599999 -3.039999,-9.600002 L -20,-68.480003 l -3.360001,-9.119995 -3.359998,-9.120003 -3.520001,-8.799996 -3.519998,-8.640003 -3.680001,-8.32 -3.68,-8 -3.84,-7.84001 -3.84,-7.35998 -3.84,-7.20001 -3.840001,-6.87999 -3.84,-6.56002 -4,-6.07998 -4,-5.76001 -3.840004,-5.44001 -4,-4.95999 L -80,-183.2 l -4,-4.16 -3.839996,-3.84 -3.840004,-3.36 -3.839997,-2.88 -3.68,-2.4 -3.680003,-2.08 -3.52,-1.6 -3.52,-1.12 -3.52,-0.64 -3.36,-0.32001 -3.2,0.16001 -3.2,0.8 -3.04,1.12 -2.87999,1.6 -2.88001,1.92 -2.72,2.56 -2.56,2.88 -2.39999,3.36 -2.24001,3.84 -2.08,4.16 -2.08,4.48 -1.76,5.11999 -1.6,5.28 -1.59999,5.76001 -1.28002,6.08"
       style="fill:none;stroke:#000000;stroke-width:26.4;stroke-linecap:round;stroke-linejoin:round;stroke-miterlimit:10;stroke-dasharray:none;stroke-opacity:1"
       transform="translate(258.05332,258.27997)"
       clip-path="url(#clipPath2)" />
    <path
       id="path3"
       d="M 0,0 -9.44,-2.72 -19.040001,-5.28 -28.48,-7.68 -38.080002,-9.92 -47.52,-12 l -9.439999,-1.92 -9.279999,-1.76 -9.279999,-1.440001 -9.120002,-1.439998 -8.959999,-1.120001 -8.800002,-0.8 -8.64,-0.800001 -8.32,-0.479999 -8.32,-0.32 -7.99999,-0.16 -7.68001,0.16 -7.52,0.16 -7.2,0.639999 -7.03999,0.640002 -6.56,0.799999 -6.24001,1.120001 -5.92,1.279998 -5.6,1.600001 -5.28,1.6 -4.95999,1.92 -4.48001,2.08 -4.16001,2.08 -3.67999,2.4 -3.2,2.72 -2.88,2.72 -2.56,2.88 -2.08,3.04 -1.60001,3.2 -1.11999,3.2 -0.8,3.52 -0.32,3.520001 0.16001,3.679998 0.64,3.84 0.95999,4 1.44,4.000002 1.92,4 2.24,4.16 2.72,4.32 3.2,4.16 3.52001,4.319999 4,4.48 4.15998,4.32"
       style="fill:none;stroke:#000000;stroke-width:26.4;stroke-linecap:round;stroke-linejoin:round;stroke-miterlimit:10;stroke-dasharray:none;stroke-opacity:1"
       transform="translate(258.05332,258.27997)"
       clip-path="url(#clipPath4)" />
    <path
       id="path5"
       d="m 0,0 -6.88,7.52 -6.88,7.68 -6.72,7.679999 -6.560001,7.68 -6.399998,7.840003 -6.240001,7.84 -5.919998,8 -5.920002,7.84 -5.599999,7.839996 -5.440002,7.840004 -5.119999,7.839996 -4.800003,7.680001 -4.64,7.680001 -4.479995,7.52 -4,7.36 -3.840004,7.36 -3.519997,7.04 -3.200005,7.04 -2.879997,6.88 -2.559999,6.56 -2.4,6.56 -1.92,6.08 -1.6,6.08 -1.28,5.76 -0.96,5.44 -0.64,5.28 -0.16,4.96 v 4.64 l 0.48,4.32 0.64,4.16 1.12,3.67999 1.44,3.52001 1.76,3.04 2.08,2.72001 2.4,2.39999 2.720002,2.08 3.040001,1.76 3.36,1.44 3.519997,0.96001 4,0.63999 4.160004,0.32 4.479995,-0.16001 4.800003,-0.31999 4.96,-0.8 5.279998,-1.12 5.439999,-1.6 5.600002,-1.92"
       style="fill:none;stroke:#000000;stroke-width:26.4;stroke-linecap:round;stroke-linejoin:round;stroke-miterlimit:10;stroke-dasharray:none;stroke-opacity:1"
       transform="translate(258.05332,258.27997)"
       clip-path="url(#clipPath6)" />
    <path
       id="path7"
       d="M 0,0 2.56,10.08 5.12,20 8,29.92 l 2.88,9.92 2.88,9.599999 3.199999,9.600002 3.200001,9.440002 3.36,9.279999 3.359999,8.959999 3.520001,8.799996 3.519998,8.640003 3.68,8.32 3.680001,8 3.68,7.84001 3.84,7.51999 3.84,7.04 4,6.87999 3.840001,6.56002 4.000003,6.07998 3.839997,5.76001 4,5.44001 4,4.95999 3.840004,4.64 3.839996,4.16 4,3.84 3.839996,3.36 3.680001,2.88 3.840004,2.56 3.519999,1.92 3.68,1.6 3.52,1.12 3.52,0.8 3.36,0.16001 3.2,-0.16001 3.2,-0.64 3.04,-1.28 2.88,-1.44 2.88,-2.08 2.56,-2.56 2.56,-2.88 2.39999,-3.36 2.40001,-3.68 2.08,-4.16 1.92,-4.64 1.76,-4.96001 1.76001,-5.43998 1.43998,-5.76001 1.28002,-6.23999"
       style="fill:none;stroke:#000000;stroke-width:26.4;stroke-linecap:round;stroke-linejoin:round;stroke-miterlimit:10;stroke-dasharray:none;stroke-opacity:1"
       transform="translate(258.05332,258.27997)"
       clip-path="url(#clipPath8)" />
    <path
       id="path9"
       d="m 0,0 9.6,2.72 9.440001,2.72 9.599998,2.4 9.440003,2.24 9.439998,2.08 9.439999,1.92 9.440003,1.6 9.119995,1.600001 9.120002,1.279998 8.959999,1.120001 8.800002,0.959999 8.64,0.640002 8.48,0.479999 8.16,0.32 7.99999,0.16 H 143.52 l 7.51999,-0.32 7.20001,-0.479999 6.87999,-0.800002 L 171.84,19.84 178.08,18.719999 184,17.440001 189.60001,16 194.88,14.24 l 4.79999,-1.92 4.64002,-1.92 4,-2.24 3.67999,-2.4 3.36,-2.56 2.88,-2.72 2.4,-2.88 2.08,-3.04 1.60001,-3.2 1.28,-3.36 0.63999,-3.52 0.32,-3.520001 -0.16001,-3.679998 -0.47999,-3.84 -1.12,-3.840001 -1.28,-4.000002 -1.91999,-4.159999 -2.40001,-4.16 -2.72,-4.16 -3.04,-4.32 -3.52,-4.319999 -4,-4.48 -4.48,-4.480003"
       style="fill:none;stroke:#000000;stroke-width:26.4;stroke-linecap:round;stroke-linejoin:round;stroke-miterlimit:10;stroke-dasharray:none;stroke-opacity:1"
       transform="translate(258.05332,258.27997)"
       clip-path="url(#clipPath10)" />
    <path
       id="path11"
       d="m 0,0 7.04,-7.52 6.88,-7.52 6.719999,-7.839999 6.400002,-7.68 6.399998,-7.840003 6.240001,-7.84 6.079998,-7.84 5.760002,-8 5.599999,-7.839996 5.440002,-7.840004 5.119999,-7.68 4.959999,-7.839997 4.64,-7.520001 4.319999,-7.52 4.160004,-7.52 3.839996,-7.2 3.520005,-7.2 3.199997,-7.04 2.879997,-6.88 2.560003,-6.56 2.24,-6.39999 1.92,-6.24001 1.6,-6.08 1.28,-5.76 0.96,-5.44 0.64,-5.28 0.32,-4.96 -0.16,-4.64 -0.32,-4.32 -0.8,-4 -1.12,-3.83999 -1.28,-3.36 -1.76,-3.20001 -2.08,-2.72001 -2.4,-2.39999 -2.719998,-2.08 -3.040001,-1.76 -3.360001,-1.28 -3.68,-1.12001 -3.839996,-0.63999 -4.320008,-0.32 -4.479995,0.16001 -4.64,0.31999 -5.120003,0.8 -5.119998,1.28 -5.599999,1.44 -5.760002,1.76"
       style="fill:none;stroke:#000000;stroke-width:26.4;stroke-linecap:round;stroke-linejoin:round;stroke-miterlimit:10;stroke-dasharray:none;stroke-opacity:1"
       transform="translate(258.05332,258.27997)"
       clip-path="url(#clipPath12)" />
  </g>
</svg>
