<?xml version="1.0" encoding="UTF-8" standalone="no"?>
<!-- Created with Inkscape (http://www.inkscape.org/) -->

<svg
   version="1.1"
   id="svg1"
   width="513.59998"
   height="505.89334"
   viewBox="0 0 513.59998 505.89334"
   sodipodi:docname="Sun27.pdf"
   xmlns:inkscape="http://www.inkscape.org/namespaces/inkscape"
   xmlns:sodipodi="http://sodipodi.sourceforge.net/DTD/sodipodi-0.dtd"
   xmlns="http://www.w3.org/2000/svg"
   xmlns:svg="http://www.w3.org/2000/svg">
  <defs
     id="defs1">
    <clipPath
       clipPathUnits="userSpaceOnUse"
       id="clipPath2">
      <path
         d="M 0,0.16 V 1122.5601 H 793.59998 V 0.16 Z"
         clip-rule="evenodd"
         id="path2" />
    </clipPath>
    <clipPath
       clipPathUnits="userSpaceOnUse"
       id="clipPath4">
      <path
         d="M 0,0.16 V 1122.5601 H 793.59998 V 0.16 Z"
         clip-rule="evenodd"
         id="path4" />
    </clipPath>
    <clipPath
       clipPathUnits="userSpaceOnUse"
       id="clipPath6">
      <path
         d="M 0,0.16 V 1122.5601 H 793.59998 V 0.16 Z"
         transform="translate(-623.35998,-334.72)"
         clip-rule="evenodd"
         id="path6" />
    </clipPath>
    <clipPath
       clipPathUnits="userSpaceOnUse"
       id="clipPath8">
      <path
         d="M 0,0.16 V 1122.5601 H 793.59998 V 0.16 Z"
         transform="translate(-623.35998,-561.28003)"
         clip-rule="evenodd"
         id="path8" />
    </clipPath>
    <clipPath
       clipPathUnits="userSpaceOnUse"
       id="clipPath10">
      <path
         d="M 0,0.16 V 1122.5601 H 793.59998 V 0.16 Z"
         transform="translate(-321.28,-636.79999)"
         clip-rule="evenodd"
         id="path10" />
    </clipPath>
  </defs>
  <sodipodi:namedview
     id="namedview1"
     pagecolor="#505050"
     bordercolor="#eeeeee"
     borderopacity="1"
     inkscape:showpageshadow="0"
     inkscape:pageopacity="0"
     inkscape:pagecheckerboard="0"
     inkscape:deskcolor="#505050">
    <inkscape:page
       x="0"
       y="0"
       inkscape:label="1"
       id="page1"
       width="513.59998"
       height="505.89334"
       margin="0"
       bleed="0" />
  </sodipodi:namedview>
  <g
     id="g1"
     inkscape:groupmode="layer"
     inkscape:label="1">
    <path
       id="path1"
       d="m 170.24,561.28003 453.11998,226.56"
       style="fill:none;stroke:#000000;stroke-width:26.4;stroke-linecap:round;stroke-linejoin:round;stroke-miterlimit:10;stroke-dasharray:none;stroke-opacity:1"
       transform="translate(0,2.666608)"
       clip-path="url(#clipPath2)" />
    <path
       id="path3"
       d="M 170.24,561.28003 623.35998,334.72"
       style="fill:none;stroke:#000000;stroke-width:26.4;stroke-linecap:round;stroke-linejoin:round;stroke-miterlimit:10;stroke-dasharray:none;stroke-opacity:1"
       transform="translate(0,2.666608)"
       clip-path="url(#clipPath4)" />
    <path
       id="path5"
       d="m 0,0 -6.72,2.56 -6.72,2.88 -6.56,3.36 -6.24,3.68 -5.92,4.159999 -5.759998,4.32 L -43.52,25.76 l -5.119999,5.119999 -4.8,5.440001 -4.479999,5.760002 L -62.080002,48 l -3.839996,6.240002 -3.360001,6.399997 -3.040001,6.559998 -2.720001,6.880005 -2.080002,6.879997 L -78.879997,88 l -1.280007,7.199997 -0.959999,7.200003 -0.479995,7.2 v 7.36 l 0.479995,7.2 0.959999,7.2 1.280007,7.2 1.759994,7.04001 2.080002,7.03999 2.720001,6.72 3.040001,6.56 3.360001,6.56 3.839996,6.08 4.160004,6.08 4.479999,5.6 4.8,5.43999 5.119999,5.12001 5.600002,4.80001 5.759998,4.47999 5.92,4 6.24,3.67999 6.56,3.36 L -6.72,224 0,226.56"
       style="fill:none;stroke:#000000;stroke-width:26.4;stroke-linecap:round;stroke-linejoin:round;stroke-miterlimit:10;stroke-dasharray:none;stroke-opacity:1"
       transform="translate(623.35998,337.38661)"
       clip-path="url(#clipPath6)" />
    <path
       id="path7"
       d="m 0,0 -6.72,2.88 -6.4,3.36 -6.240001,3.52 -6.08,4 -5.92,4.48 -5.439998,4.639999 L -42.080002,28 l -4.959999,5.279999 -4.639999,5.600002 -4.16,5.919998 -4,6.080002 -3.520001,6.399998 -3.040001,6.560001 -2.879997,6.719998 -2.239998,6.880004 -1.920005,7.040001 -1.599999,7.039994 -1.120003,7.200004 -0.639999,7.359999 -0.159996,7.2 0.159996,7.36 0.639999,7.2 1.120003,7.19999 1.599999,7.04001 1.920005,7.03999 2.239998,6.88001 2.879997,6.72 3.040001,6.56 3.520001,6.39999 4,6.08 4.16,5.92 4.639999,5.60001 4.959999,5.28 5.280003,5.11999 5.439998,4.64002 5.92,4.47999 6.08,4 6.240001,3.68 6.4,3.19999 L 0,226.56"
       style="fill:none;stroke:#000000;stroke-width:26.4;stroke-linecap:round;stroke-linejoin:round;stroke-miterlimit:10;stroke-dasharray:none;stroke-opacity:1"
       transform="translate(623.35998,563.94664)"
       clip-path="url(#clipPath8)" />
    <path
       id="path9"
       d="m 0,0 4.96,-3.84 4.64,-4.32 4.32,-4.48 4,-4.800001 3.68,-5.119998 3.199999,-5.280001 3.040001,-5.439999 2.56,-5.760002 2.239999,-5.759998 1.920002,-5.920002 L 36,-56.799999 l 0.959999,-6.240002 0.639999,-6.239998 0.16,-6.239998 -0.16,-6.240005 L 36.959999,-88 36,-94.080002 34.560001,-100.16 32.639999,-106.24 30.4,-112 l -2.56,-5.76 -3.040001,-5.44 -3.199999,-5.28 -3.68,-5.12001 -4,-4.79998 -4.32,-4.48001 -4.64,-4.15999 -4.96,-4"
       style="fill:none;stroke:#000000;stroke-width:26.4;stroke-linecap:round;stroke-linejoin:round;stroke-miterlimit:10;stroke-dasharray:none;stroke-opacity:1"
       transform="translate(321.28,639.4666)"
       clip-path="url(#clipPath10)" />
  </g>
</svg>
