<?xml version="1.0" encoding="UTF-8" standalone="no"?>
<!-- Created with Inkscape (http://www.inkscape.org/) -->

<svg
   version="1.1"
   id="svg1"
   width="500.26666"
   height="505.89334"
   viewBox="0 0 500.26666 505.89334"
   sodipodi:docname="Sun38.pdf"
   xmlns:inkscape="http://www.inkscape.org/namespaces/inkscape"
   xmlns:sodipodi="http://sodipodi.sourceforge.net/DTD/sodipodi-0.dtd"
   xmlns="http://www.w3.org/2000/svg"
   xmlns:svg="http://www.w3.org/2000/svg">
  <defs
     id="defs1">
    <clipPath
       clipPathUnits="userSpaceOnUse"
       id="clipPath2">
      <path
         d="M 0,0.16 V 1122.5601 H 793.59998 V 0.16 Z"
         transform="translate(-396.79999,-334.72)"
         clip-rule="evenodd"
         id="path2" />
    </clipPath>
    <clipPath
       clipPathUnits="userSpaceOnUse"
       id="clipPath4">
      <path
         d="M 0,0.16 V 1122.5601 H 793.59998 V 0.16 Z"
         transform="translate(-298.39999,-357.11999)"
         clip-rule="evenodd"
         id="path4" />
    </clipPath>
    <clipPath
       clipPathUnits="userSpaceOnUse"
       id="clipPath6">
      <path
         d="M 0,0.16 V 1122.5601 H 793.59998 V 0.16 Z"
         transform="translate(-219.67999,-420)"
         clip-rule="evenodd"
         id="path6" />
    </clipPath>
    <clipPath
       clipPathUnits="userSpaceOnUse"
       id="clipPath8">
      <path
         d="M 0,0.16 V 1122.5601 H 793.59998 V 0.16 Z"
         transform="translate(-175.84,-510.88)"
         clip-rule="evenodd"
         id="path8" />
    </clipPath>
    <clipPath
       clipPathUnits="userSpaceOnUse"
       id="clipPath10">
      <path
         d="M 0,0.16 V 1122.5601 H 793.59998 V 0.16 Z"
         transform="translate(-175.84,-611.67999)"
         clip-rule="evenodd"
         id="path10" />
    </clipPath>
    <clipPath
       clipPathUnits="userSpaceOnUse"
       id="clipPath12">
      <path
         d="M 0,0.16 V 1122.5601 H 793.59998 V 0.16 Z"
         transform="translate(-219.67999,-702.40002)"
         clip-rule="evenodd"
         id="path12" />
    </clipPath>
    <clipPath
       clipPathUnits="userSpaceOnUse"
       id="clipPath14">
      <path
         d="M 0,0.16 V 1122.5601 H 793.59998 V 0.16 Z"
         transform="translate(-298.39999,-765.28003)"
         clip-rule="evenodd"
         id="path14" />
    </clipPath>
    <clipPath
       clipPathUnits="userSpaceOnUse"
       id="clipPath16">
      <path
         d="M 0,0.16 V 1122.5601 H 793.59998 V 0.16 Z"
         transform="translate(-396.79999,-787.84003)"
         clip-rule="evenodd"
         id="path16" />
    </clipPath>
    <clipPath
       clipPathUnits="userSpaceOnUse"
       id="clipPath18">
      <path
         d="M 0,0.16 V 1122.5601 H 793.59998 V 0.16 Z"
         transform="translate(-495.04001,-765.28003)"
         clip-rule="evenodd"
         id="path18" />
    </clipPath>
    <clipPath
       clipPathUnits="userSpaceOnUse"
       id="clipPath20">
      <path
         d="M 0,0.16 V 1122.5601 H 793.59998 V 0.16 Z"
         transform="translate(-573.91998,-702.40002)"
         clip-rule="evenodd"
         id="path20" />
    </clipPath>
    <clipPath
       clipPathUnits="userSpaceOnUse"
       id="clipPath22">
      <path
         d="M 0,0.16 V 1122.5601 H 793.59998 V 0.16 Z"
         transform="translate(-617.59998,-611.67999)"
         clip-rule="evenodd"
         id="path22" />
    </clipPath>
    <clipPath
       clipPathUnits="userSpaceOnUse"
       id="clipPath24">
      <path
         d="M 0,0.16 V 1122.5601 H 793.59998 V 0.16 Z"
         transform="translate(-617.59998,-510.88)"
         clip-rule="evenodd"
         id="path24" />
    </clipPath>
    <clipPath
       clipPathUnits="userSpaceOnUse"
       id="clipPath26">
      <path
         d="M 0,0.16 V 1122.5601 H 793.59998 V 0.16 Z"
         transform="translate(-573.91998,-420)"
         clip-rule="evenodd"
         id="path26" />
    </clipPath>
    <clipPath
       clipPathUnits="userSpaceOnUse"
       id="clipPath28">
      <path
         d="M 0,0.16 V 1122.5601 H 793.59998 V 0.16 Z"
         transform="translate(-495.04001,-357.11999)"
         clip-rule="evenodd"
         id="path28" />
    </clipPath>
    <clipPath
       clipPathUnits="userSpaceOnUse"
       id="clipPath30">
      <path
         d="M 0,0.16 V 1122.5601 H 793.59998 V 0.16 Z"
         transform="translate(-353.44,-514.08002)"
         clip-rule="evenodd"
         id="path30" />
    </clipPath>
    <clipPath
       clipPathUnits="userSpaceOnUse"
       id="clipPath32">
      <path
         d="M 0,0.16 V 1122.5601 H 793.59998 V 0.16 Z"
         transform="translate(-466.72,-514.08002)"
         clip-rule="evenodd"
         id="path32" />
    </clipPath>
    <clipPath
       clipPathUnits="userSpaceOnUse"
       id="clipPath34">
      <path
         d="M 0,0.16 V 1122.5601 H 793.59998 V 0.16 Z"
         transform="translate(-410.07999,-608.47998)"
         clip-rule="evenodd"
         id="path34" />
    </clipPath>
    <clipPath
       clipPathUnits="userSpaceOnUse"
       id="clipPath36">
      <path
         d="M 0,0.16 V 1122.5601 H 793.59998 V 0.16 Z"
         transform="translate(-353.44,-514.08002)"
         clip-rule="evenodd"
         id="path36" />
    </clipPath>
    <clipPath
       clipPathUnits="userSpaceOnUse"
       id="clipPath38">
      <path
         d="M 0,0.16 V 1122.5601 H 793.59998 V 0.16 Z"
         transform="translate(-466.72,-514.08002)"
         clip-rule="evenodd"
         id="path38" />
    </clipPath>
    <clipPath
       clipPathUnits="userSpaceOnUse"
       id="clipPath40">
      <path
         d="M 0,0.16 V 1122.5601 H 793.59998 V 0.16 Z"
         transform="translate(-410.07999,-608.47998)"
         clip-rule="evenodd"
         id="path40" />
    </clipPath>
  </defs>
  <sodipodi:namedview
     id="namedview1"
     pagecolor="#505050"
     bordercolor="#eeeeee"
     borderopacity="1"
     inkscape:showpageshadow="0"
     inkscape:pageopacity="0"
     inkscape:pagecheckerboard="0"
     inkscape:deskcolor="#505050">
    <inkscape:page
       x="0"
       y="0"
       inkscape:label="1"
       id="page1"
       width="500.26666"
       height="505.89334"
       margin="0"
       bleed="0" />
  </sodipodi:namedview>
  <g
     id="g1"
     inkscape:groupmode="layer"
     inkscape:label="1">
    <path
       id="path1"
       d="m 0,0 -3.2,2.72 -2.88,2.88 -2.72,3.2 -2.4,3.36 -2.24,3.52 -1.76,3.84 -1.439999,3.840001 L -17.76,27.52 l -0.64,4 -0.319999,4.16 v 4.16 L -18.4,44 l 0.64,4.16 1.120001,4 L -15.2,56 l 1.76,3.84 2.24,3.520001 2.4,3.519996 2.72,3.040001 2.88,3.040001 3.2,2.559998"
       style="fill:none;stroke:#000000;stroke-width:26.4;stroke-linecap:round;stroke-linejoin:round;stroke-miterlimit:10;stroke-dasharray:none;stroke-opacity:1"
       transform="translate(396.79999,337.38661)"
       clip-path="url(#clipPath2)" />
    <path
       id="path3"
       d="m 0,0 -1.6,3.84 -1.44,4 -0.96,4 -0.8,4 -0.32,4.16 v 4.16 l 0.48,4.16 0.64,4.16 1.12,4 1.6,3.84 1.76,3.84 2.08,3.52 2.56,3.360001 2.72,3.200001 2.88,2.879997 3.36,2.720001 3.360001,2.240002 3.68,2.080002 3.839998,1.599998 3.84,1.439995 4,0.800003"
       style="fill:none;stroke:#000000;stroke-width:26.4;stroke-linecap:round;stroke-linejoin:round;stroke-miterlimit:10;stroke-dasharray:none;stroke-opacity:1"
       transform="translate(298.39999,359.7866)"
       clip-path="url(#clipPath4)" />
    <path
       id="path5"
       d="m 0,0 0.16,4.16 0.32,4.16 0.8,4.16 1.12,4 1.6,3.84 1.76,3.84 2.24,3.52 2.4,3.360001 2.72,3.040001 3.04,2.879997 3.36,2.720001 3.359999,2.239998 3.68,1.920002 3.840001,1.759998 4.000002,1.280003 4,0.959999 4.159999,0.64 4.16,0.159999 4.16,-0.159999 4.16,-0.48 4,-0.959999"
       style="fill:none;stroke:#000000;stroke-width:26.4;stroke-linecap:round;stroke-linejoin:round;stroke-miterlimit:10;stroke-dasharray:none;stroke-opacity:1"
       transform="translate(219.67999,422.66661)"
       clip-path="url(#clipPath6)" />
    <path
       id="path7"
       d="m 0,0 2.08,3.68 2.08,3.68 2.56,3.2 2.72,3.2 3.04,2.879999 3.36,2.560002 3.360001,2.24 3.679998,1.92 3.84,1.599998 4,1.280001 4.000002,0.960001 4.16,0.639999 4.16,0.16 4.16,-0.16 4.16,-0.479999 L 55.52,26.4 l 3.840001,-1.279999 3.84,-1.600001 3.84,-1.92 3.360001,-2.239999 3.36,-2.560002"
       style="fill:none;stroke:#000000;stroke-width:26.4;stroke-linecap:round;stroke-linejoin:round;stroke-miterlimit:10;stroke-dasharray:none;stroke-opacity:1"
       transform="translate(175.84,513.54661)"
       clip-path="url(#clipPath8)" />
    <path
       id="path9"
       d="m 0,0 3.52,2.56 3.36,2.24 3.68,1.92 4,1.6 3.84,1.28 4.159999,0.96 4.16,0.48 4.16,0.16 4.160002,-0.16 4,-0.64 4.16,-0.8 4,-1.28 3.84,-1.76 3.68,-1.92 3.360001,-2.24 3.359997,-2.56 3.040004,-2.88 2.719994,-3.04 2.560005,-3.36 2.079994,-3.68 1.920006,-3.679999"
       style="fill:none;stroke:#000000;stroke-width:26.4;stroke-linecap:round;stroke-linejoin:round;stroke-miterlimit:10;stroke-dasharray:none;stroke-opacity:1"
       transform="translate(175.84,614.3466)"
       clip-path="url(#clipPath10)" />
    <path
       id="path11"
       d="M 0,0 4.16,0.96 8.32,1.6 h 4.16 l 4.159999,-0.16 4,-0.64 4.16,-0.96 4,-1.28 3.680001,-1.6 3.68,-2.08 3.52,-2.24 3.200001,-2.56 3.039997,-2.88 2.720001,-3.2 2.560002,-3.360001 2.079998,-3.519998 1.920002,-3.68 1.439998,-4 1.119999,-4.000002 0.800003,-4 0.48,-4.16 v -4.32"
       style="fill:none;stroke:#000000;stroke-width:26.4;stroke-linecap:round;stroke-linejoin:round;stroke-miterlimit:10;stroke-dasharray:none;stroke-opacity:1"
       transform="translate(219.67999,705.06663)"
       clip-path="url(#clipPath12)" />
    <path
       id="path13"
       d="m 0,0 4.16,-0.8 4,-1.44 3.84,-1.6 3.68,-2.08 3.360001,-2.24 L 22.24,-10.88 25.280001,-13.76 28,-16.959999 30.4,-20.32 l 2.239999,-3.52 1.760003,-3.68 1.439998,-4 1.119999,-4 0.799999,-4.16 0.320004,-4 0.16,-4.16 L 37.919998,-52 37.119999,-56.16 36.16,-60.16 34.720001,-64.160004 32.799999,-68"
       style="fill:none;stroke:#000000;stroke-width:26.4;stroke-linecap:round;stroke-linejoin:round;stroke-miterlimit:10;stroke-dasharray:none;stroke-opacity:1"
       transform="translate(298.39999,767.94664)"
       clip-path="url(#clipPath14)" />
    <path
       id="path15"
       d="m 0,0 3.2,-2.56 3.04,-3.04 2.72,-3.2 2.4,-3.36 2.08,-3.52 1.76,-3.84 1.439999,-3.840001 1.120001,-4 0.799999,-4.159999 0.32,-4.16 v -4.16 l -0.32,-4.16 -0.799999,-4.16 -1.120001,-4 L 15.2,-56 l -1.76,-3.84 -2.08,-3.520001 -2.4,-3.36 L 6.24,-69.919998 3.2,-72.800003 0,-75.519997"
       style="fill:none;stroke:#000000;stroke-width:26.4;stroke-linecap:round;stroke-linejoin:round;stroke-miterlimit:10;stroke-dasharray:none;stroke-opacity:1"
       transform="translate(396.79999,790.50664)"
       clip-path="url(#clipPath16)" />
    <path
       id="path17"
       d="m 0,0 1.92,-3.68 1.28,-3.84 1.12,-4 0.64,-4.16 0.48,-4.16 -0.16,-4.16 -0.32,-4.16 -0.8,-4.16 -1.12,-4 -1.44,-3.84 -1.76,-3.84 -2.24,-3.52 -2.4,-3.360001 -2.72,-3.200001 -3.04,-2.879997 -3.2,-2.560001 -3.520001,-2.399998 -3.519998,-1.920002 -3.84,-1.759998 -4,-1.279999 -4.16,-1.120003"
       style="fill:none;stroke:#000000;stroke-width:26.4;stroke-linecap:round;stroke-linejoin:round;stroke-miterlimit:10;stroke-dasharray:none;stroke-opacity:1"
       transform="translate(495.04001,767.94664)"
       clip-path="url(#clipPath18)" />
    <path
       id="path19"
       d="m 0,0 v -4 l -0.48,-4.16 -0.8,-4.16 -1.12,-4 -1.44,-3.84 -1.92,-3.68 -2.08,-3.68 -2.56,-3.359999 -2.72,-3.039999 -3.04,-2.880001 -3.200001,-2.560002 -3.519998,-2.399997 -3.68,-1.920002 -3.680001,-1.599999 -4.000002,-1.440002 -4.16,-0.959999 -4,-0.48 -4.159999,-0.32 -4.16,0.16 -4.16,0.48 -4.16,0.799999"
       style="fill:none;stroke:#000000;stroke-width:26.4;stroke-linecap:round;stroke-linejoin:round;stroke-miterlimit:10;stroke-dasharray:none;stroke-opacity:1"
       transform="translate(573.91998,705.06663)"
       clip-path="url(#clipPath20)" />
    <path
       id="path21"
       d="M 0,0 -1.76,-3.68 -4,-7.2 l -2.4,-3.36 -2.72,-3.2 -3.04,-2.72 -3.36,-2.720001 -3.520001,-2.24 -3.679998,-1.92 -3.84,-1.599998 L -30.4,-26.24 l -4.160001,-0.960001 -4.16,-0.639999 -4.16,-0.16 -4.16,0.16 -4.16,0.639999 -4,0.800001 -4,1.279999 -3.84,1.600001 -3.68,1.92 -3.519997,2.239999 -3.36,2.560002"
       style="fill:none;stroke:#000000;stroke-width:26.4;stroke-linecap:round;stroke-linejoin:round;stroke-miterlimit:10;stroke-dasharray:none;stroke-opacity:1"
       transform="translate(617.59998,614.3466)"
       clip-path="url(#clipPath22)" />
    <path
       id="path23"
       d="m 0,0 -3.2,-2.56 -3.52,-2.24 -3.68,-1.92 -3.84,-1.6 -4,-1.28 -4,-0.8 -4.16,-0.64 -4.159999,-0.16 -4.160002,0.16 -4.16,0.64 -4,0.96 -4,1.28 -3.84,1.6 -3.680001,1.92 -3.519996,2.24 -3.200001,2.56 -3.040005,2.88 -2.879997,3.2 -2.400001,3.36 -2.239998,3.52 -1.919998,3.679999"
       style="fill:none;stroke:#000000;stroke-width:26.4;stroke-linecap:round;stroke-linejoin:round;stroke-miterlimit:10;stroke-dasharray:none;stroke-opacity:1"
       transform="translate(617.59998,513.54661)"
       clip-path="url(#clipPath24)" />
    <path
       id="path25"
       d="m 0,0 -4,-0.8 -4.16,-0.48 -4.16,-0.16 -4.16,0.16 -4.159999,0.64 -4,0.96 -4,1.28 -3.840001,1.76 -3.68,1.92 -3.36,2.24 -3.360001,2.72 -3.039997,2.88 -2.720001,3.04 -2.400002,3.36 -2.239998,3.520001 -1.760002,3.839998 -1.599998,3.84 -1.119999,4.000002 -0.800003,4.16 -0.32,4.16 -0.16,4"
       style="fill:none;stroke:#000000;stroke-width:26.4;stroke-linecap:round;stroke-linejoin:round;stroke-miterlimit:10;stroke-dasharray:none;stroke-opacity:1"
       transform="translate(573.91998,422.66661)"
       clip-path="url(#clipPath26)" />
    <path
       id="path27"
       d="M 0,0 -4,1.12 -7.84,2.4 -11.68,4 -15.36,6.08 -18.879999,8.48 -22.08,11.04 -25.120001,13.92 -27.84,17.120001 -30.24,20.48 -32.32,24 l -1.760002,3.84 -1.599998,3.84 -1.119999,4 -0.64,4.16 -0.479999,4.16 v 4.16 l 0.32,4.16 0.639999,4 1.119999,4.16 1.439998,3.84 1.600003,3.68"
       style="fill:none;stroke:#000000;stroke-width:26.4;stroke-linecap:round;stroke-linejoin:round;stroke-miterlimit:10;stroke-dasharray:none;stroke-opacity:1"
       transform="translate(495.04001,359.7866)"
       clip-path="url(#clipPath28)" />
    <path
       id="path29"
       d="m 0,0 -0.16,-1.76 -0.32,-1.6 -0.48,-1.6 -0.8,-1.6 -0.96,-1.44 -1.12,-1.28 -1.28,-1.12 -1.44,-0.96 -1.6,-0.8 -1.6,-0.64 -1.76,-0.32 h -1.76 -1.6 l -1.759999,0.32 -1.600001,0.64 -1.6,0.8 -1.440001,0.96 -1.279998,1.12 L -23.68,-8 l -0.959999,1.44 -0.800002,1.6 -0.479999,1.6 -0.48,1.6 V 0 1.76 l 0.48,1.76 0.479999,1.6 0.800002,1.44 L -23.68,8 l 1.120001,1.44 1.279998,1.12 1.440001,0.96 1.6,0.64 1.600001,0.64 1.759999,0.32 1.6,0.16 1.76,-0.16 1.76,-0.32 1.6,-0.64 1.6,-0.64 1.44,-0.96 L -3.84,9.44 -2.72,8 -1.76,6.56 -0.96,5.12 -0.48,3.52 -0.16,1.76 0,0 v 0 z"
       style="fill:#000000;fill-opacity:1;fill-rule:evenodd;stroke:none"
       transform="translate(353.44,516.74663)"
       clip-path="url(#clipPath30)" />
    <path
       id="path31"
       d="m 0,0 -0.16,-1.76 -0.32,-1.6 -0.48,-1.6 -0.8,-1.6 -0.96,-1.44 -1.12,-1.28 -1.28,-1.12 -1.44,-0.96 -1.6,-0.8 -1.6,-0.64 -1.76,-0.32 h -1.76 -1.6 l -1.759999,0.32 -1.600001,0.64 -1.6,0.8 -1.440001,0.96 -1.279998,1.12 L -23.68,-8 l -0.959999,1.44 -0.800002,1.6 -0.479999,1.6 -0.48,1.6 V 0 1.76 l 0.48,1.76 0.479999,1.6 0.800002,1.44 L -23.68,8 l 1.120001,1.44 1.279998,1.12 1.440001,0.96 1.6,0.64 1.600001,0.64 1.759999,0.32 1.6,0.16 1.76,-0.16 1.76,-0.32 1.6,-0.64 1.6,-0.64 1.44,-0.96 L -3.84,9.44 -2.72,8 -1.76,6.56 -0.96,5.12 -0.48,3.52 -0.16,1.76 0,0 v 0 z"
       style="fill:#000000;fill-opacity:1;fill-rule:evenodd;stroke:none"
       transform="translate(466.72,516.74663)"
       clip-path="url(#clipPath32)" />
    <path
       id="path33"
       d="m 0,0 -0.16,-1.76 -0.32,-1.6 -0.48,-1.76 -0.8,-1.44 -0.96,-1.44 -1.12,-1.28 -1.28,-1.12 -1.44,-0.96 -1.6,-0.8 -1.6,-0.64 -1.76,-0.32 h -1.76 -1.6 l -1.759999,0.32 -1.600001,0.64 -1.6,0.8 -1.440001,0.96 -1.279998,1.12 L -23.68,-8 l -0.959999,1.44 -0.800002,1.44 -0.479999,1.76 -0.48,1.6 V 0 1.76 l 0.48,1.6 0.479999,1.76 0.800002,1.44 L -23.68,8 l 1.120001,1.44 1.279998,1.12 1.440001,0.96 1.6,0.64 1.600001,0.64 1.759999,0.32 1.6,0.16 1.76,-0.16 1.76,-0.32 1.6,-0.64 1.6,-0.64 1.44,-0.96 L -3.84,9.44 -2.72,8 -1.76,6.56 -0.96,5.12 -0.48,3.36 -0.16,1.76 0,0 v 0 z"
       style="fill:#000000;fill-opacity:1;fill-rule:evenodd;stroke:none"
       transform="translate(410.07999,611.14659)"
       clip-path="url(#clipPath34)" />
    <path
       id="path35"
       d="m 0,0 -0.16,-1.76 -0.32,-1.6 -0.48,-1.6 -0.8,-1.6 -0.96,-1.44 -1.12,-1.28 -1.28,-1.12 -1.44,-0.96 -1.6,-0.8 -1.6,-0.64 -1.76,-0.32 h -1.76 -1.6 l -1.759999,0.32 -1.600001,0.64 -1.6,0.8 -1.440001,0.96 -1.279998,1.12 L -23.68,-8 l -0.959999,1.44 -0.800002,1.6 -0.479999,1.6 -0.48,1.6 V 0 1.76 l 0.48,1.76 0.479999,1.6 0.800002,1.44 L -23.68,8 l 1.120001,1.44 1.279998,1.12 1.440001,0.96 1.6,0.64 1.600001,0.64 1.759999,0.32 1.6,0.16 1.76,-0.16 1.76,-0.32 1.6,-0.64 1.6,-0.64 1.44,-0.96 L -3.84,9.44 -2.72,8 -1.76,6.56 -0.96,5.12 -0.48,3.52 -0.16,1.76 0,0"
       style="fill:none;stroke:#000000;stroke-width:0.64;stroke-linecap:round;stroke-linejoin:round;stroke-miterlimit:10;stroke-dasharray:none;stroke-opacity:1"
       transform="translate(353.44,516.74663)"
       clip-path="url(#clipPath36)" />
    <path
       id="path37"
       d="m 0,0 -0.16,-1.76 -0.32,-1.6 -0.48,-1.6 -0.8,-1.6 -0.96,-1.44 -1.12,-1.28 -1.28,-1.12 -1.44,-0.96 -1.6,-0.8 -1.6,-0.64 -1.76,-0.32 h -1.76 -1.6 l -1.759999,0.32 -1.600001,0.64 -1.6,0.8 -1.440001,0.96 -1.279998,1.12 L -23.68,-8 l -0.959999,1.44 -0.800002,1.6 -0.479999,1.6 -0.48,1.6 V 0 1.76 l 0.48,1.76 0.479999,1.6 0.800002,1.44 L -23.68,8 l 1.120001,1.44 1.279998,1.12 1.440001,0.96 1.6,0.64 1.600001,0.64 1.759999,0.32 1.6,0.16 1.76,-0.16 1.76,-0.32 1.6,-0.64 1.6,-0.64 1.44,-0.96 L -3.84,9.44 -2.72,8 -1.76,6.56 -0.96,5.12 -0.48,3.52 -0.16,1.76 0,0"
       style="fill:none;stroke:#000000;stroke-width:0.64;stroke-linecap:round;stroke-linejoin:round;stroke-miterlimit:10;stroke-dasharray:none;stroke-opacity:1"
       transform="translate(466.72,516.74663)"
       clip-path="url(#clipPath38)" />
    <path
       id="path39"
       d="m 0,0 -0.16,-1.76 -0.32,-1.6 -0.48,-1.76 -0.8,-1.44 -0.96,-1.44 -1.12,-1.28 -1.28,-1.12 -1.44,-0.96 -1.6,-0.8 -1.6,-0.64 -1.76,-0.32 h -1.76 -1.6 l -1.759999,0.32 -1.600001,0.64 -1.6,0.8 -1.440001,0.96 -1.279998,1.12 L -23.68,-8 l -0.959999,1.44 -0.800002,1.44 -0.479999,1.76 -0.48,1.6 V 0 1.76 l 0.48,1.6 0.479999,1.76 0.800002,1.44 L -23.68,8 l 1.120001,1.44 1.279998,1.12 1.440001,0.96 1.6,0.64 1.600001,0.64 1.759999,0.32 1.6,0.16 1.76,-0.16 1.76,-0.32 1.6,-0.64 1.6,-0.64 1.44,-0.96 L -3.84,9.44 -2.72,8 -1.76,6.56 -0.96,5.12 -0.48,3.36 -0.16,1.76 0,0"
       style="fill:none;stroke:#000000;stroke-width:0.64;stroke-linecap:round;stroke-linejoin:round;stroke-miterlimit:10;stroke-dasharray:none;stroke-opacity:1"
       transform="translate(410.07999,611.14659)"
       clip-path="url(#clipPath40)" />
  </g>
</svg>
