<?xml version="1.0" encoding="UTF-8" standalone="no"?>
<!-- Created with Inkscape (http://www.inkscape.org/) -->

<svg
   version="1.1"
   id="svg1"
   width="453.58667"
   height="500.54666"
   viewBox="0 0 453.58667 500.54666"
   sodipodi:docname="Taurus11.pdf"
   xmlns:inkscape="http://www.inkscape.org/namespaces/inkscape"
   xmlns:sodipodi="http://sodipodi.sourceforge.net/DTD/sodipodi-0.dtd"
   xmlns="http://www.w3.org/2000/svg"
   xmlns:svg="http://www.w3.org/2000/svg">
  <defs
     id="defs1">
    <clipPath
       clipPathUnits="userSpaceOnUse"
       id="clipPath2">
      <path
         d="M 0,0.16 V 1122.5601 H 793.59998 V 0.16 Z"
         transform="translate(-505.28,-697.84003)"
         clip-rule="evenodd"
         id="path2" />
    </clipPath>
    <clipPath
       clipPathUnits="userSpaceOnUse"
       id="clipPath4">
      <path
         d="M 0,0.16 V 1122.5601 H 793.59998 V 0.16 Z"
         transform="translate(-194.56,-397.92001)"
         clip-rule="evenodd"
         id="path4" />
    </clipPath>
    <clipPath
       clipPathUnits="userSpaceOnUse"
       id="clipPath6">
      <path
         d="M 0,0.16 V 1122.5601 H 793.59998 V 0.16 Z"
         transform="translate(-314.56,-655.67999)"
         clip-rule="evenodd"
         id="path6" />
    </clipPath>
    <clipPath
       clipPathUnits="userSpaceOnUse"
       id="clipPath8">
      <path
         d="M 0,0.16 V 1122.5601 H 793.59998 V 0.16 Z"
         transform="translate(-427.84,-655.67999)"
         clip-rule="evenodd"
         id="path8" />
    </clipPath>
    <clipPath
       clipPathUnits="userSpaceOnUse"
       id="clipPath10">
      <path
         d="M 0,0.16 V 1122.5601 H 793.59998 V 0.16 Z"
         transform="translate(-371.20001,-750.08002)"
         clip-rule="evenodd"
         id="path10" />
    </clipPath>
    <clipPath
       clipPathUnits="userSpaceOnUse"
       id="clipPath12">
      <path
         d="M 0,0.16 V 1122.5601 H 793.59998 V 0.16 Z"
         transform="translate(-314.56,-655.67999)"
         clip-rule="evenodd"
         id="path12" />
    </clipPath>
    <clipPath
       clipPathUnits="userSpaceOnUse"
       id="clipPath14">
      <path
         d="M 0,0.16 V 1122.5601 H 793.59998 V 0.16 Z"
         transform="translate(-427.84,-655.67999)"
         clip-rule="evenodd"
         id="path14" />
    </clipPath>
    <clipPath
       clipPathUnits="userSpaceOnUse"
       id="clipPath16">
      <path
         d="M 0,0.16 V 1122.5601 H 793.59998 V 0.16 Z"
         transform="translate(-371.20001,-750.08002)"
         clip-rule="evenodd"
         id="path16" />
    </clipPath>
  </defs>
  <sodipodi:namedview
     id="namedview1"
     pagecolor="#505050"
     bordercolor="#eeeeee"
     borderopacity="1"
     inkscape:showpageshadow="0"
     inkscape:pageopacity="0"
     inkscape:pagecheckerboard="0"
     inkscape:deskcolor="#505050">
    <inkscape:page
       x="0"
       y="0"
       inkscape:label="1"
       id="page1"
       width="453.58667"
       height="500.54666"
       margin="0"
       bleed="0" />
  </sodipodi:namedview>
  <g
     id="g1"
     inkscape:groupmode="layer"
     inkscape:label="1">
    <path
       id="path1"
       d="m 0,0 c 0,-81.339996 -65.93,-147.28 -147.28,-147.28 -81.35,0 -147.28,65.940004 -147.28,147.28 0,81.339996 65.93,147.28 147.28,147.28 C -65.93,147.28 0,81.339996 0,0 Z"
       style="fill:none;stroke:#000000;stroke-width:26.4;stroke-linecap:round;stroke-linejoin:round;stroke-miterlimit:10;stroke-dasharray:none;stroke-opacity:1"
       transform="translate(375.88,329.43997)"
       clip-path="url(#clipPath2)" />
    <path
       id="path3"
       d="m 0,0 -5.12,4.16 -4.64,4.16 -4.32,4.32 -4,4.319999 -3.360001,4.480002 L -24.48,26.08 l -2.560001,4.639999 -2.08,4.640002 L -30.879999,40.16 -32,44.959999 l -0.639999,4.799999 -0.32,4.800003 0.32,4.8 0.639999,4.800003 1.120001,4.799995 1.759998,4.639999 2.08,4.800004 2.560001,4.639999 3.039999,4.479996 L -18.08,92 l 3.84,4.480003 4.32,4.319997 4.8,4.16 5.12,4 5.6,4 5.92,3.68 6.24,3.68 6.56,3.52 7.040001,3.36 7.2,3.04 7.520001,3.04 8,2.72 8,2.56 8.32,2.40001 8.639999,2.23999 8.799995,1.91999 8.960007,1.76001 9.119997,1.6 9.28,1.27999 9.44,0.96001 9.44,0.95999 9.44,0.48001 9.59999,0.48 h 9.60001 9.76 l 9.6,-0.31999 9.44,-0.64002 9.44001,-0.79999 9.43998,-0.96 9.28,-1.28 9.12001,-1.60001 9.12,-1.59999 8.8,-1.92 8.48,-2.24 8.47999,-2.4 8.16001,-2.55999 7.83999,-2.72 7.68,-2.88001 7.20001,-3.2 7.04001,-3.2 6.72,-3.52 6.23999,-3.68 5.92001,-3.68 5.59998,-4 5.28,-4 4.64001,-4.16 4.48001,-4.320001 3.84,-4.32 3.51999,-4.479995 3.20001,-4.640007 2.56,-4.64 2.07998,-4.639999 1.76001,-4.799996 1.28,-4.639999 L 359.51999,60 l 0.16,-4.799999 -0.16,-4.799999 L 358.88,45.599998 357.76001,40.799999 356.16,36 l -1.92001,-4.639999 -2.56,-4.640002 L 348.64001,22.08 345.28,17.6 l -3.84,-4.48 -4.16,-4.32 -4.79999,-4.16 -5.12002,-4 -5.43998,-4 L 316,-7.2"
       style="fill:none;stroke:#000000;stroke-width:26.4;stroke-linecap:round;stroke-linejoin:round;stroke-miterlimit:10;stroke-dasharray:none;stroke-opacity:1"
       transform="translate(65.159998,29.519954)"
       clip-path="url(#clipPath4)" />
    <path
       id="path5"
       d="m 0,0 -0.16,-1.76 -0.32,-1.6 -0.48,-1.76 -0.8,-1.44 -0.96,-1.44 -1.12,-1.28 -1.28,-1.12 -1.44,-0.96 -1.6,-0.8 -1.6,-0.64 -1.76,-0.32 -1.76,-0.16 -1.76,0.16 -1.599999,0.32 -1.600001,0.64 -1.6,0.8 -1.440001,0.96 -1.279998,1.12 L -23.68,-8 l -0.959999,1.44 -0.800002,1.44 -0.639999,1.76 -0.32,1.6 V 0 1.76 l 0.32,1.6 0.639999,1.76 0.800002,1.44 L -23.68,8 l 1.120001,1.28 1.279998,1.28 1.440001,0.96 1.6,0.64 1.600001,0.64 1.599999,0.32 1.76,0.16 1.76,-0.16 1.76,-0.32 1.6,-0.64 1.6,-0.64 1.44,-0.96 L -3.84,9.28 -2.72,8 -1.76,6.56 -0.96,5.12 -0.48,3.36 -0.16,1.76 0,0 v 0 z"
       style="fill:#000000;fill-opacity:1;fill-rule:evenodd;stroke:none"
       transform="translate(185.16,287.27993)"
       clip-path="url(#clipPath6)" />
    <path
       id="path7"
       d="m 0,0 -0.16,-1.76 -0.32,-1.6 -0.48,-1.76 -0.8,-1.44 -0.96,-1.44 -1.12,-1.28 -1.28,-1.12 -1.44,-0.96 -1.6,-0.8 -1.6,-0.64 -1.76,-0.32 -1.76,-0.16 -1.76,0.16 -1.599999,0.32 -1.600001,0.64 -1.6,0.8 -1.440001,0.96 -1.279998,1.12 L -23.68,-8 l -0.959999,1.44 -0.800002,1.44 -0.639999,1.76 -0.32,1.6 V 0 1.76 l 0.32,1.6 0.639999,1.76 0.800002,1.44 L -23.68,8 l 1.120001,1.28 1.279998,1.28 1.440001,0.96 1.6,0.64 1.600001,0.64 1.599999,0.32 1.76,0.16 1.76,-0.16 1.76,-0.32 1.6,-0.64 1.6,-0.64 1.44,-0.96 L -3.84,9.28 -2.72,8 -1.76,6.56 -0.96,5.12 -0.48,3.36 -0.16,1.76 0,0 v 0 z"
       style="fill:#000000;fill-opacity:1;fill-rule:evenodd;stroke:none"
       transform="translate(298.44,287.27993)"
       clip-path="url(#clipPath8)" />
    <path
       id="path9"
       d="m 0,0 -0.16,-1.76 -0.32,-1.6 -0.48,-1.76 -0.8,-1.44 -0.96,-1.44 -1.12,-1.28 -1.28,-1.12 -1.44,-0.96 -1.6,-0.8 -1.6,-0.64 -1.76,-0.32 -1.76,-0.16 -1.76,0.16 -1.599999,0.32 -1.600001,0.64 -1.6,0.8 -1.440001,0.96 -1.279998,1.12 L -23.68,-8 l -0.959999,1.44 -0.800002,1.44 -0.639999,1.76 -0.32,1.6 V 0 1.76 l 0.32,1.6 0.639999,1.76 0.800002,1.44 L -23.68,8 l 1.120001,1.28 1.279998,1.28 1.440001,0.96 1.6,0.64 1.600001,0.64 1.599999,0.32 1.76,0.16 1.76,-0.16 1.76,-0.32 1.6,-0.64 1.6,-0.64 1.44,-0.96 L -3.84,9.28 -2.72,8 -1.76,6.56 -0.96,5.12 -0.48,3.36 -0.16,1.76 0,0 v 0 z"
       style="fill:#000000;fill-opacity:1;fill-rule:evenodd;stroke:none"
       transform="translate(241.80001,381.67996)"
       clip-path="url(#clipPath10)" />
    <path
       id="path11"
       d="m 0,0 -0.16,-1.76 -0.32,-1.6 -0.48,-1.76 -0.8,-1.44 -0.96,-1.44 -1.12,-1.28 -1.28,-1.12 -1.44,-0.96 -1.6,-0.8 -1.6,-0.64 -1.76,-0.32 -1.76,-0.16 -1.76,0.16 -1.599999,0.32 -1.600001,0.64 -1.6,0.8 -1.440001,0.96 -1.279998,1.12 L -23.68,-8 l -0.959999,1.44 -0.800002,1.44 -0.639999,1.76 -0.32,1.6 V 0 1.76 l 0.32,1.6 0.639999,1.76 0.800002,1.44 L -23.68,8 l 1.120001,1.28 1.279998,1.28 1.440001,0.96 1.6,0.64 1.600001,0.64 1.599999,0.32 1.76,0.16 1.76,-0.16 1.76,-0.32 1.6,-0.64 1.6,-0.64 1.44,-0.96 L -3.84,9.28 -2.72,8 -1.76,6.56 -0.96,5.12 -0.48,3.36 -0.16,1.76 0,0"
       style="fill:none;stroke:#000000;stroke-width:0.64;stroke-linecap:round;stroke-linejoin:round;stroke-miterlimit:10;stroke-dasharray:none;stroke-opacity:1"
       transform="translate(185.16,287.27993)"
       clip-path="url(#clipPath12)" />
    <path
       id="path13"
       d="m 0,0 -0.16,-1.76 -0.32,-1.6 -0.48,-1.76 -0.8,-1.44 -0.96,-1.44 -1.12,-1.28 -1.28,-1.12 -1.44,-0.96 -1.6,-0.8 -1.6,-0.64 -1.76,-0.32 -1.76,-0.16 -1.76,0.16 -1.599999,0.32 -1.600001,0.64 -1.6,0.8 -1.440001,0.96 -1.279998,1.12 L -23.68,-8 l -0.959999,1.44 -0.800002,1.44 -0.639999,1.76 -0.32,1.6 V 0 1.76 l 0.32,1.6 0.639999,1.76 0.800002,1.44 L -23.68,8 l 1.120001,1.28 1.279998,1.28 1.440001,0.96 1.6,0.64 1.600001,0.64 1.599999,0.32 1.76,0.16 1.76,-0.16 1.76,-0.32 1.6,-0.64 1.6,-0.64 1.44,-0.96 L -3.84,9.28 -2.72,8 -1.76,6.56 -0.96,5.12 -0.48,3.36 -0.16,1.76 0,0"
       style="fill:none;stroke:#000000;stroke-width:0.64;stroke-linecap:round;stroke-linejoin:round;stroke-miterlimit:10;stroke-dasharray:none;stroke-opacity:1"
       transform="translate(298.44,287.27993)"
       clip-path="url(#clipPath14)" />
    <path
       id="path15"
       d="m 0,0 -0.16,-1.76 -0.32,-1.6 -0.48,-1.76 -0.8,-1.44 -0.96,-1.44 -1.12,-1.28 -1.28,-1.12 -1.44,-0.96 -1.6,-0.8 -1.6,-0.64 -1.76,-0.32 -1.76,-0.16 -1.76,0.16 -1.599999,0.32 -1.600001,0.64 -1.6,0.8 -1.440001,0.96 -1.279998,1.12 L -23.68,-8 l -0.959999,1.44 -0.800002,1.44 -0.639999,1.76 -0.32,1.6 V 0 1.76 l 0.32,1.6 0.639999,1.76 0.800002,1.44 L -23.68,8 l 1.120001,1.28 1.279998,1.28 1.440001,0.96 1.6,0.64 1.600001,0.64 1.599999,0.32 1.76,0.16 1.76,-0.16 1.76,-0.32 1.6,-0.64 1.6,-0.64 1.44,-0.96 L -3.84,9.28 -2.72,8 -1.76,6.56 -0.96,5.12 -0.48,3.36 -0.16,1.76 0,0"
       style="fill:none;stroke:#000000;stroke-width:0.64;stroke-linecap:round;stroke-linejoin:round;stroke-miterlimit:10;stroke-dasharray:none;stroke-opacity:1"
       transform="translate(241.80001,381.67996)"
       clip-path="url(#clipPath16)" />
  </g>
</svg>
