<?xml version="1.0" encoding="UTF-8" standalone="no"?>
<!-- Created with Inkscape (http://www.inkscape.org/) -->

<svg
   version="1.1"
   id="svg1"
   width="502.93332"
   height="515.22668"
   viewBox="0 0 502.93332 515.22668"
   sodipodi:docname="Taurus14.pdf"
   xmlns:inkscape="http://www.inkscape.org/namespaces/inkscape"
   xmlns:sodipodi="http://sodipodi.sourceforge.net/DTD/sodipodi-0.dtd"
   xmlns="http://www.w3.org/2000/svg"
   xmlns:svg="http://www.w3.org/2000/svg">
  <defs
     id="defs1">
    <clipPath
       clipPathUnits="userSpaceOnUse"
       id="clipPath2">
      <path
         d="M 0,0.16 V 1122.5601 H 793.59998 V 0.16 Z"
         transform="translate(-357.92002,-433.44)"
         clip-rule="evenodd"
         id="path2" />
    </clipPath>
    <clipPath
       clipPathUnits="userSpaceOnUse"
       id="clipPath4">
      <path
         d="M 0,0.16 V 1122.5601 H 793.59998 V 0.16 Z"
         transform="translate(-357.92002,-433.44)"
         clip-rule="evenodd"
         id="path4" />
    </clipPath>
    <clipPath
       clipPathUnits="userSpaceOnUse"
       id="clipPath6">
      <path
         d="M 0,0.16 V 1122.5601 H 793.59998 V 0.16 Z"
         transform="translate(-352.16001,-443.20001)"
         clip-rule="evenodd"
         id="path6" />
    </clipPath>
  </defs>
  <sodipodi:namedview
     id="namedview1"
     pagecolor="#505050"
     bordercolor="#eeeeee"
     borderopacity="1"
     inkscape:showpageshadow="0"
     inkscape:pageopacity="0"
     inkscape:pagecheckerboard="0"
     inkscape:deskcolor="#505050">
    <inkscape:page
       x="0"
       y="0"
       inkscape:label="1"
       id="page1"
       width="502.93332"
       height="515.22668"
       margin="0"
       bleed="0" />
  </sodipodi:namedview>
  <g
     id="g1"
     inkscape:groupmode="layer"
     inkscape:label="1">
    <path
       id="path1"
       d="m 0,0 -7.36,-5.76 -7.52,-5.44 -7.679999,-5.12 -8,-4.479999 -8.320002,-4.16 -8.32,-3.84 L -55.68,-32 l -8.64,-2.880001 -8.800003,-2.399998 -8.799995,-1.920002 -8.800003,-1.279999 -8.959999,-0.959999 -9.12,-0.479999 h -8.96 l -8.96,0.479999 -8.95999,0.959999 -8.96001,1.279999 -8.8,1.920002 -8.8,2.399998 -8.48,2.880001 -8.64,3.200001 -8.31999,3.84 -8.16001,4.16 -8,4.479999 -7.83999,5.12 -7.52001,5.44 -7.36,5.76"
       style="fill:none;stroke:#000000;stroke-width:26.4;stroke-linecap:round;stroke-linejoin:round;stroke-miterlimit:10;stroke-dasharray:none;stroke-opacity:1"
       transform="translate(245.85335,79.719943)"
       clip-path="url(#clipPath2)" />
    <path
       id="path3"
       d="m 0,0 7.36,5.92 7.52,5.44 7.839999,4.96 8,4.639999 8.160002,4.160002 8.32,3.679998 L 55.68,32.16 l 8.64,2.720001 8.800003,2.399998 8.799995,1.920002 8.959999,1.439998 8.959999,0.959999 8.960004,0.480004 h 8.96 l 8.96,-0.480004 8.95999,-0.959999 8.96001,-1.439998 8.8,-1.920002 8.8,-2.399998 8.64,-2.720001 8.48,-3.360001 8.31999,-3.679998 8.16001,-4.160002 8,-4.639999 7.83999,-4.96 L 219.2,5.92 226.56,0"
       style="fill:none;stroke:#000000;stroke-width:26.4;stroke-linecap:round;stroke-linejoin:round;stroke-miterlimit:10;stroke-dasharray:none;stroke-opacity:1"
       transform="translate(245.85335,79.719943)"
       clip-path="url(#clipPath4)" />
    <path
       id="path5"
       d="M 0,0 -2.4,9.12 -4.64,18.559999 -6.56,28.16 -8.48,37.919998 -10.24,48 l -1.6,10.240002 -1.44,10.560001 -1.12,10.559998 -1.12,10.720001 -0.8,10.719998 -0.800001,11.04 -0.479999,11.04 -0.32,11.04 -0.16,11.04001 V 156 l 0.16,11.03999 0.479999,11.04001 0.480002,11.03999 L -16.16,200 l 0.96,10.72 1.12,10.72 1.28,10.56 1.44,10.39999 1.6,10.24001 1.76,9.92 1.92,9.76001 2.08,9.6 2.4,9.28 2.4,8.95999 2.56,8.79999 2.72,8.48001 2.72,8 3.04,7.68 3.04,7.52001 3.2,7.03998 3.360001,6.56 3.359998,6.24002 3.520001,5.91998 3.68,5.28 3.68,5.12 3.84,4.48001 3.840001,4.16 3.84,3.51999 4,3.20001 4,2.72 4,2.24 4.16,1.76 4.159996,1.28 4.160003,0.79999 4,0.32001 4.159996,-0.16 L 84,400.48001 l 4.160004,-1.28 4.159996,-1.6 4,-2.08002 4,-2.56 4,-3.03998 4,-3.52002 3.84,-4 3.84,-4.47998 3.68,-4.80001 3.68,-5.44001 3.52,-5.6 3.36,-6.23999 3.36001,-6.56 3.19999,-6.88001 3.2,-7.35998 2.88,-7.68002"
       style="fill:none;stroke:#000000;stroke-width:26.4;stroke-linecap:round;stroke-linejoin:round;stroke-miterlimit:10;stroke-dasharray:none;stroke-opacity:1"
       transform="translate(240.09334,89.479953)"
       clip-path="url(#clipPath6)" />
  </g>
</svg>
