<?xml version="1.0" encoding="UTF-8" standalone="no"?>
<!-- Created with Inkscape (http://www.inkscape.org/) -->

<svg
   version="1.1"
   id="svg1"
   width="500.28"
   height="357.72"
   viewBox="0 0 500.28 357.72"
   sodipodi:docname="Taurus7.pdf"
   xmlns:inkscape="http://www.inkscape.org/namespaces/inkscape"
   xmlns:sodipodi="http://sodipodi.sourceforge.net/DTD/sodipodi-0.dtd"
   xmlns="http://www.w3.org/2000/svg"
   xmlns:svg="http://www.w3.org/2000/svg">
  <defs
     id="defs1">
    <clipPath
       clipPathUnits="userSpaceOnUse"
       id="clipPath2">
      <path
         d="M 0,0.16 V 1122.5601 H 793.59998 V 0.16 Z"
         transform="translate(-433.44,-466.88)"
         clip-rule="evenodd"
         id="path2" />
    </clipPath>
    <clipPath
       clipPathUnits="userSpaceOnUse"
       id="clipPath4">
      <path
         d="M 0,0.16 V 1122.5601 H 793.59998 V 0.16 Z"
         clip-rule="evenodd"
         id="path4" />
    </clipPath>
    <clipPath
       clipPathUnits="userSpaceOnUse"
       id="clipPath6">
      <path
         d="M 0,0.16 V 1122.5601 H 793.59998 V 0.16 Z"
         transform="translate(-584.47998,-617.91998)"
         clip-rule="evenodd"
         id="path6" />
    </clipPath>
  </defs>
  <sodipodi:namedview
     id="namedview1"
     pagecolor="#505050"
     bordercolor="#eeeeee"
     borderopacity="1"
     inkscape:showpageshadow="0"
     inkscape:pageopacity="0"
     inkscape:pagecheckerboard="0"
     inkscape:deskcolor="#505050">
    <inkscape:page
       x="0"
       y="0"
       inkscape:label="1"
       id="page1"
       width="500.28"
       height="357.72"
       margin="0"
       bleed="0" />
  </sodipodi:namedview>
  <g
     id="g1"
     inkscape:groupmode="layer"
     inkscape:label="1">
    <path
       id="path1"
       d="m 0,0 -8.16,0.32 -8.16,0.64 -8,1.12 -8.16,1.44 -7.84,2.08 -7.84,2.4 -7.68,2.72 -7.520001,3.2 -7.36,3.68 -7.040001,4 -7.040001,4.48 -6.559998,4.799999 L -97.760002,36 -103.84,41.439999 l -5.76,5.760002 -5.44,6.079998 -5.12,6.400001 -4.8,6.559998 -4.48,6.880005 -4,7.199997 -3.52001,7.36 -3.36,7.519997 -2.71998,7.680003 -2.40001,7.84 -2.08,7.84 -1.44001,8 -1.11999,8.16 -0.64,8.16 -0.31999,8.15999 0.31999,8.16001 0.64,8.16 1.11999,8.16 1.44001,8 2.08,8 2.40001,7.84 2.71998,7.52 3.36,7.51999 3.52001,7.36 4,7.20002 4.48,6.87999 4.8,6.55999 5.12,6.40001 5.44,6.08 5.76,5.76001 6.079998,5.59998 6.400001,5.12 6.559998,4.64001 7.040001,4.48001 7.040001,4 7.36,3.67999 7.520001,3.19999 7.68,2.88 7.84,2.40002 7.84,1.91999 8.16,1.6 8,1.12 8.16,0.64001 8.16,0.15998 8.16,-0.15998 8.16,-0.64001 8.16,-1.12 8,-1.6 8,-1.91999 7.84,-2.40002 7.68,-2.88 7.52,-3.19999 7.200001,-3.67999 7.199997,-4 6.880005,-4.48001 6.559998,-4.64001 6.400001,-5.12 6.079998,-5.59998 5.92,-5.76001 5.44,-6.08 5.12,-6.40001 4.8,-6.55999 4.32,-6.87999 4,-7.20002 3.67999,-7.36 3.20002,-7.51999 2.87999,-7.52 2.40001,-7.84 1.91999,-8 1.59999,-8 1.12001,-8.16 0.64,-8.16 0.15999,-8.16001"
       style="fill:none;stroke:#000000;stroke-width:26.4;stroke-linecap:round;stroke-linejoin:round;stroke-miterlimit:10;stroke-dasharray:none;stroke-opacity:1"
       transform="translate(433.44,361.42661)"
       clip-path="url(#clipPath2)" />
    <path
       id="path3"
       d="M 433.44,466.88 H 131.36"
       style="fill:none;stroke:#000000;stroke-width:26.4;stroke-linecap:round;stroke-linejoin:round;stroke-miterlimit:10;stroke-dasharray:none;stroke-opacity:1"
       transform="translate(0,-105.45339)"
       clip-path="url(#clipPath4)" />
    <path
       id="path5"
       d="m 0,0 -0.16,-4.16 -0.48,-4.16 -0.96,-4.16 -1.12,-4 -1.6,-3.84 -1.76,-3.84 -2.24,-3.52 -2.4,-3.360001 -2.72,-3.200001 -3.04,-3.039997 -3.2,-2.720001 -3.360001,-2.400002 -3.679998,-2.079998 -3.84,-1.760002 -3.840003,-1.439998 -4,-1.279999 -4.159999,-0.799999 -4.16,-0.480004 -4.16,-0.16 -4.16,0.32 -4.16,0.480004 -4.16,0.959999 -4,1.279998 -3.839996,1.600003 -3.840004,1.919998 -3.519997,2.240002 -3.36,2.399997 L -85.120003,-36.48 -88,-33.439999 -90.559998,-30.08 l -2.400001,3.360001 -2.080002,3.679998 -1.760002,3.84 -1.439995,3.840001 -1.120003,4.16 -0.799999,4 -0.48,4.16 v 4.32 l 0.32,4.16 0.64,4.16 0.959999,4 1.279999,4 1.600006,3.840001 1.919998,3.84 2.239998,3.519998 2.559997,3.360001 2.720001,3.040001 3.200005,2.880001 3.199997,2.559997 3.519997,2.400002 3.520004,1.919998"
       style="fill:none;stroke:#000000;stroke-width:26.4;stroke-linecap:round;stroke-linejoin:round;stroke-miterlimit:10;stroke-dasharray:none;stroke-opacity:1"
       transform="translate(584.47998,512.46659)"
       clip-path="url(#clipPath6)" />
  </g>
</svg>
