<?xml version="1.0" encoding="UTF-8" standalone="no"?>
<!-- Created with Inkscape (http://www.inkscape.org/) -->

<svg
   version="1.1"
   id="svg1"
   width="500.26666"
   height="319.01334"
   viewBox="0 0 500.26666 319.01334"
   sodipodi:docname="Trioctile4.pdf"
   xmlns:inkscape="http://www.inkscape.org/namespaces/inkscape"
   xmlns:sodipodi="http://sodipodi.sourceforge.net/DTD/sodipodi-0.dtd"
   xmlns="http://www.w3.org/2000/svg"
   xmlns:svg="http://www.w3.org/2000/svg">
  <defs
     id="defs1">
    <clipPath
       clipPathUnits="userSpaceOnUse"
       id="clipPath2">
      <path
         d="M 0,0.16 V 1122.5601 H 793.59998 V 0.16 Z"
         transform="translate(-3.3333333e-6)"
         clip-rule="evenodd"
         id="path2" />
    </clipPath>
    <clipPath
       clipPathUnits="userSpaceOnUse"
       id="clipPath4">
      <path
         d="M 0,0.16 V 1122.5601 H 793.59998 V 0.16 Z"
         transform="translate(-408.79998,-638.71997)"
         clip-rule="evenodd"
         id="path4" />
    </clipPath>
    <clipPath
       clipPathUnits="userSpaceOnUse"
       id="clipPath6">
      <path
         d="M 0,0.16 V 1122.5601 H 793.59998 V 0.16 Z"
         transform="translate(-384.79998,-710.23999)"
         clip-rule="evenodd"
         id="path6" />
    </clipPath>
  </defs>
  <sodipodi:namedview
     id="namedview1"
     pagecolor="#505050"
     bordercolor="#eeeeee"
     borderopacity="1"
     inkscape:showpageshadow="0"
     inkscape:pageopacity="0"
     inkscape:pagecheckerboard="0"
     inkscape:deskcolor="#505050">
    <inkscape:page
       x="0"
       y="0"
       inkscape:label="1"
       id="page1"
       width="500.26666"
       height="319.01334"
       margin="0"
       bleed="0" />
  </sodipodi:namedview>
  <g
     id="g1"
     inkscape:groupmode="layer"
     inkscape:label="1">
    <path
       id="path1"
       d="M 359.04001,674.56 H 170.24 V 448 H 623.35998 V 674.56 H 434.56"
       style="fill:none;stroke:#000000;stroke-width:26.4;stroke-linecap:round;stroke-linejoin:round;stroke-miterlimit:10;stroke-dasharray:none;stroke-opacity:1"
       transform="translate(-149.41333,-421.80006)"
       clip-path="url(#clipPath2)" />
    <path
       id="path3"
       d="m 0,0 -2.08,-0.48 -2.24,-0.32 -2.4,-0.16 -2.24,0.32 -2.24,0.48 -2.08,0.8 -2.08,0.96 -1.920001,1.28 -1.76,1.44 L -20.48,5.92 -21.92,7.84 -23.040001,9.76 -23.84,12 l -0.64,2.08 -0.319999,2.4 v 2.239999 l 0.16,2.24 0.479999,2.240002 0.799999,2.08 1.120001,2.08 1.119999,1.92 1.600001,1.76 1.6,1.439999 1.92,1.439998 1.92,1.120003 L -12,35.84"
       style="fill:none;stroke:#000000;stroke-width:26.4;stroke-linecap:round;stroke-linejoin:round;stroke-miterlimit:10;stroke-dasharray:none;stroke-opacity:1"
       transform="translate(259.38665,216.91991)"
       clip-path="url(#clipPath4)" />
    <path
       id="path5"
       d="M 0,0 2.24,0.8 4.48,1.12 H 6.72 L 8.96,0.8 11.2,0.32 l 2.24,-0.64 2.08,-1.12 1.760001,-1.28 1.76,-1.44 1.599998,-1.6 L 21.92,-7.68 23.040001,-9.6 24,-11.84 l 0.48,-2.08 0.319999,-2.24 0.16,-2.399999 -0.32,-2.24 -0.479999,-2.240002 -0.799999,-2.08 -0.960001,-2.08 -1.279999,-1.92 L 19.68,-30.879999 18.08,-32.32 16.16,-33.759998 14.24,-34.880001 12,-35.68"
       style="fill:none;stroke:#000000;stroke-width:26.4;stroke-linecap:round;stroke-linejoin:round;stroke-miterlimit:10;stroke-dasharray:none;stroke-opacity:1"
       transform="translate(235.38665,288.43993)"
       clip-path="url(#clipPath6)" />
  </g>
</svg>
