<?xml version="1.0" encoding="UTF-8" standalone="no"?>
<!-- Created with Inkscape (http://www.inkscape.org/) -->

<svg
   version="1.1"
   id="svg1"
   width="326.85333"
   height="459.17334"
   viewBox="0 0 326.85333 459.17334"
   sodipodi:docname="Venus3.pdf"
   xmlns:inkscape="http://www.inkscape.org/namespaces/inkscape"
   xmlns:sodipodi="http://sodipodi.sourceforge.net/DTD/sodipodi-0.dtd"
   xmlns="http://www.w3.org/2000/svg"
   xmlns:svg="http://www.w3.org/2000/svg">
  <defs
     id="defs1">
    <clipPath
       clipPathUnits="userSpaceOnUse"
       id="clipPath2">
      <path
         d="M 0,0.16 V 1122.5601 H 793.59998 V 0.16 Z"
         transform="translate(-532.79999,-448.07999)"
         clip-rule="evenodd"
         id="path2" />
    </clipPath>
    <clipPath
       clipPathUnits="userSpaceOnUse"
       id="clipPath4">
      <path
         d="M 0,0.16 V 1122.5601 H 793.59998 V 0.16 Z"
         transform="translate(-351.51999,-674.56)"
         clip-rule="evenodd"
         id="path4" />
    </clipPath>
    <clipPath
       clipPathUnits="userSpaceOnUse"
       id="clipPath6">
      <path
         d="M 0,0.16 V 1122.5601 H 793.59998 V 0.16 Z"
         transform="translate(3.3333333e-6)"
         clip-rule="evenodd"
         id="path6" />
    </clipPath>
    <clipPath
       clipPathUnits="userSpaceOnUse"
       id="clipPath8">
      <path
         d="M 0,0.16 V 1122.5601 H 793.59998 V 0.16 Z"
         transform="translate(3.3333333e-6)"
         clip-rule="evenodd"
         id="path8" />
    </clipPath>
  </defs>
  <sodipodi:namedview
     id="namedview1"
     pagecolor="#505050"
     bordercolor="#eeeeee"
     borderopacity="1"
     inkscape:showpageshadow="0"
     inkscape:pageopacity="0"
     inkscape:pagecheckerboard="0"
     inkscape:deskcolor="#505050">
    <inkscape:page
       x="0"
       y="0"
       inkscape:label="1"
       id="page1"
       width="326.85333"
       height="459.17334"
       margin="0"
       bleed="0" />
  </sodipodi:namedview>
  <g
     id="g1"
     inkscape:groupmode="layer"
     inkscape:label="1">
    <path
       id="path1"
       d="M 0,0 C 0,-50.049999 -40.580002,-90.639999 -90.639999,-90.639999 -140.7,-90.639999 -181.28,-50.049999 -181.28,0 c 0,50.049999 40.58,90.639999 90.640001,90.639999 C -40.580002,90.639999 0,50.049999 0,0 Z"
       style="fill:none;stroke:#000000;stroke-width:26.4;stroke-linecap:round;stroke-linejoin:round;stroke-miterlimit:10;stroke-dasharray:none;stroke-opacity:1"
       transform="translate(298.01332,113.05326)"
       clip-path="url(#clipPath2)" />
    <path
       id="path3"
       d="m 0,0 -6.24,0.16 -6.08,0.32 -6.08,0.48 -6.08,0.8 -5.92,0.8 -5.76,1.28 -5.439998,1.28 -5.440003,1.44 -5.119999,1.76 -4.959999,1.92 -4.639999,1.92 -4.48,2.24 -4,2.399999 -3.840004,2.400002 -3.36,2.559999 -3.040001,2.72 -2.559998,2.720001 -2.400001,2.879999 -1.759995,3.039999 -1.440002,3.040001 -1.120003,3.040001 -0.64,3.040001 -0.159996,3.039997 0.159996,3.200001 0.64,3.04 1.120003,3.040001 1.440002,3.039997 1.759995,2.880002 2.400001,2.880001 2.559998,2.879997 3.040001,2.560005 3.36,2.719994 3.840004,2.400001 4,2.400002 4.48,2.080002 4.639999,2.080001 L -52.16,82.400002 -47.040001,84 -41.599998,85.599998 -36.16,86.879997 -30.4,88 l 5.92,0.959999 6.08,0.800003 6.08,0.479996 6.08,0.32 H 0 6.24 l 6.08,-0.32 6.08,-0.479996 6.08,-0.800003 L 30.4,88 36.16,86.879997 41.759998,85.599998 47.040001,84 52.32,82.400002 l 4.959999,-1.919999 4.639999,-2.080001 4.32,-2.080002 4,-2.400002 3.840004,-2.400001 3.36,-2.719994 3.040001,-2.560005 2.719994,-2.879997 2.240005,-2.880001 1.759995,-2.880002 1.600006,-3.039997 0.959999,-3.040001 0.64,-3.04 0.159996,-3.200001"
       style="fill:none;stroke:#000000;stroke-width:26.4;stroke-linecap:round;stroke-linejoin:round;stroke-miterlimit:10;stroke-dasharray:none;stroke-opacity:1"
       transform="translate(116.73332,339.53327)"
       clip-path="url(#clipPath4)" />
    <path
       id="path5"
       d="M 442.07999,538.71997 V 719.84003"
       style="fill:none;stroke:#000000;stroke-width:26.4;stroke-linecap:round;stroke-linejoin:round;stroke-miterlimit:10;stroke-dasharray:none;stroke-opacity:1"
       transform="translate(-234.78667,-335.02673)"
       clip-path="url(#clipPath6)" />
    <path
       id="path7"
       d="m 351.51999,674.56 h 181.28"
       style="fill:none;stroke:#000000;stroke-width:26.4;stroke-linecap:round;stroke-linejoin:round;stroke-miterlimit:10;stroke-dasharray:none;stroke-opacity:1"
       transform="translate(-234.78667,-335.02673)"
       clip-path="url(#clipPath8)" />
  </g>
</svg>
