<?xml version="1.0" encoding="UTF-8" standalone="no"?>
<!-- Created with Inkscape (http://www.inkscape.org/) -->

<svg
   version="1.1"
   id="svg1"
   width="357.51999"
   height="471.17334"
   viewBox="0 0 357.51999 471.17334"
   sodipodi:docname="Vesta6.pdf"
   xmlns:inkscape="http://www.inkscape.org/namespaces/inkscape"
   xmlns:sodipodi="http://sodipodi.sourceforge.net/DTD/sodipodi-0.dtd"
   xmlns="http://www.w3.org/2000/svg"
   xmlns:svg="http://www.w3.org/2000/svg">
  <defs
     id="defs1">
    <clipPath
       clipPathUnits="userSpaceOnUse"
       id="clipPath2">
      <path
         d="M 0,0.16 V 1122.5601 H 793.59998 V 0.16 Z"
         transform="translate(-510.07998,-334.72)"
         clip-rule="evenodd"
         id="path2" />
    </clipPath>
    <clipPath
       clipPathUnits="userSpaceOnUse"
       id="clipPath4">
      <path
         d="M 0,0.16 V 1122.5601 H 793.59998 V 0.16 Z"
         transform="translate(-3.3333333e-6)"
         clip-rule="evenodd"
         id="path4" />
    </clipPath>
    <clipPath
       clipPathUnits="userSpaceOnUse"
       id="clipPath6">
      <path
         d="M 0,0.16 V 1122.5601 H 793.59998 V 0.16 Z"
         transform="translate(-3.3333333e-6)"
         clip-rule="evenodd"
         id="path6" />
    </clipPath>
    <clipPath
       clipPathUnits="userSpaceOnUse"
       id="clipPath8">
      <path
         d="M 0,0.16 V 1122.5601 H 793.59998 V 0.16 Z"
         transform="translate(-245.76,-561.28003)"
         clip-rule="evenodd"
         id="path8" />
    </clipPath>
  </defs>
  <sodipodi:namedview
     id="namedview1"
     pagecolor="#505050"
     bordercolor="#eeeeee"
     borderopacity="1"
     inkscape:showpageshadow="0"
     inkscape:pageopacity="0"
     inkscape:pagecheckerboard="0"
     inkscape:deskcolor="#505050">
    <inkscape:page
       x="0"
       y="0"
       inkscape:label="1"
       id="page1"
       width="357.51999"
       height="471.17334"
       margin="0"
       bleed="0" />
  </sodipodi:namedview>
  <g
     id="g1"
     inkscape:groupmode="layer"
     inkscape:label="1">
    <path
       id="path1"
       d="m 0,0 c 0,-62.560001 -50.709999,-113.28 -113.28,-113.28 -62.57001,0 -113.28,50.719999 -113.28,113.28 0,62.560001 50.70999,113.28 113.28,113.28 C -50.709999,113.28 0,62.560001 0,0 Z"
       style="fill:none;stroke:#000000;stroke-width:26.4;stroke-linecap:round;stroke-linejoin:round;stroke-miterlimit:10;stroke-dasharray:none;stroke-opacity:1"
       transform="translate(292.62665,143.83994)"
       clip-path="url(#clipPath2)" />
    <path
       id="path3"
       d="M 396.79999,448 V 599.03998"
       style="fill:none;stroke:#000000;stroke-width:26.4;stroke-linecap:round;stroke-linejoin:round;stroke-miterlimit:10;stroke-dasharray:none;stroke-opacity:1"
       transform="translate(-217.45333,-190.88006)"
       clip-path="url(#clipPath4)" />
    <path
       id="path5"
       d="M 321.28,523.52002 H 472.32001"
       style="fill:none;stroke:#000000;stroke-width:26.4;stroke-linecap:round;stroke-linejoin:round;stroke-miterlimit:10;stroke-dasharray:none;stroke-opacity:1"
       transform="translate(-217.45333,-190.88006)"
       clip-path="url(#clipPath6)" />
    <path
       id="path7"
       d="m 0,0 5.76,7.2 6.08,7.04 6.4,6.559999 6.719999,6.400002 6.880001,5.919998 7.360001,5.600002 7.52,5.279999 7.84,4.959999 8,4.48 8.319996,4.159999 8.32,3.680001 8.639999,3.36 8.800003,2.879998 L 105.44,69.919998 114.4,72 l 9.12,1.440002 9.12,1.119996 9.28,0.800003 9.11999,0.159996 9.28002,-0.159996 9.11999,-0.800003 9.12,-1.119996 L 187.67999,72 196.64,69.919998 l 8.96001,-2.400001 8.79998,-2.879998 8.48001,-3.36 8.48,-3.680001 8.31999,-4.159999 8,-4.48 L 255.52,44 263.04001,38.720001 270.23999,33.119999 277.28,27.200001 284,20.799999 290.39999,14.24 296.48001,7.2 302.07999,0"
       style="fill:none;stroke:#000000;stroke-width:26.4;stroke-linecap:round;stroke-linejoin:round;stroke-miterlimit:10;stroke-dasharray:none;stroke-opacity:1"
       transform="translate(28.306662,370.39997)"
       clip-path="url(#clipPath8)" />
  </g>
</svg>
