<?xml version="1.0" encoding="UTF-8" standalone="no"?>
<!-- Created with Inkscape (http://www.inkscape.org/) -->

<svg
   version="1.1"
   id="svg1"
   width="576.30664"
   height="504.54666"
   viewBox="0 0 576.30664 504.54666"
   sodipodi:docname="Virgo11.pdf"
   xmlns:inkscape="http://www.inkscape.org/namespaces/inkscape"
   xmlns:sodipodi="http://sodipodi.sourceforge.net/DTD/sodipodi-0.dtd"
   xmlns="http://www.w3.org/2000/svg"
   xmlns:svg="http://www.w3.org/2000/svg">
  <defs
     id="defs1">
    <clipPath
       clipPathUnits="userSpaceOnUse"
       id="clipPath2">
      <path
         d="M 26.4,26.559999 V 1096.16 H 767.03998 V 26.559999 Z"
         transform="translate(-253.75999,-441.28)"
         clip-rule="evenodd"
         id="path2" />
    </clipPath>
    <clipPath
       clipPathUnits="userSpaceOnUse"
       id="clipPath4">
      <path
         d="M 26.4,26.559999 V 1096.16 H 767.03998 V 26.559999 Z"
         transform="translate(-252.32001,-436)"
         clip-rule="evenodd"
         id="path4" />
    </clipPath>
    <clipPath
       clipPathUnits="userSpaceOnUse"
       id="clipPath6">
      <path
         d="M 26.4,26.559999 V 1096.16 H 767.03998 V 26.559999 Z"
         clip-rule="evenodd"
         id="path6" />
    </clipPath>
    <clipPath
       clipPathUnits="userSpaceOnUse"
       id="clipPath8">
      <path
         d="M 26.4,26.559999 V 1096.16 H 767.03998 V 26.559999 Z"
         transform="translate(-448.16,-605.28003)"
         clip-rule="evenodd"
         id="path8" />
    </clipPath>
    <clipPath
       clipPathUnits="userSpaceOnUse"
       id="clipPath10">
      <path
         d="M 26.4,26.559999 V 1096.16 H 767.03998 V 26.559999 Z"
         clip-rule="evenodd"
         id="path10" />
    </clipPath>
  </defs>
  <sodipodi:namedview
     id="namedview1"
     pagecolor="#505050"
     bordercolor="#eeeeee"
     borderopacity="1"
     inkscape:showpageshadow="0"
     inkscape:pageopacity="0"
     inkscape:pagecheckerboard="0"
     inkscape:deskcolor="#505050">
    <inkscape:page
       x="0"
       y="0"
       inkscape:label="1"
       id="page1"
       width="576.30664"
       height="504.54666"
       margin="0"
       bleed="0" />
  </sodipodi:namedview>
  <g
     id="g1"
     inkscape:groupmode="layer"
     inkscape:label="1">
    <path
       id="path1"
       d="m 0,0 1.92,8.16 2.24,7.84 2.4,7.84 2.72,7.520001 3.04,7.36 3.2,7.039997 3.520001,6.720002 3.679998,6.560001 3.84,6.080002 4.16,5.919998 4.480002,5.440002 4.479999,5.119995 4.64,4.64 4.959999,4.32 4.960003,4 5.279998,3.520004 5.280003,3.039998 5.279999,2.72 5.439995,2.24 5.600006,1.76 5.599998,1.28 5.599999,0.8 5.599998,0.32 5.760002,-0.16 5.6,-0.48 5.6,-1.12 5.6,-1.44 5.44,-1.92 5.44,-2.4 5.44,-2.880004 5.12,-3.199997 5.11999,-3.68 L 152,88.800003 156.8,84.32 l 4.64,-4.959999 4.48,-5.279999 4.32,-5.599999 4,-5.920002 3.84,-6.400001 3.67999,-6.560002 3.36,-6.879997 L 188.16,35.52 l 2.87999,-7.36 2.72,-7.68 2.24001,-7.84 2.08,-8 1.76,-8.16 1.44,-8.32 1.11999,-8.48 0.80001,-8.479999 0.64,-8.48 0.16,-8.639999 v -8.640003 l -0.48,-8.48 -0.64,-8.479996 L 201.92,-80 l -1.28,-8.480003 -1.60001,-8.32"
       style="fill:none;stroke:#000000;stroke-width:26.4;stroke-linecap:round;stroke-linejoin:round;stroke-miterlimit:10;stroke-dasharray:none;stroke-opacity:1"
       transform="translate(253.75999,450.62661)"
       clip-path="url(#clipPath2)" />
    <path
       id="path3"
       d="m 0,0 -1.76,-4.64 -2.08,-4.64 -2.4,-4.48 -2.72,-4.32 -3.04,-4 -3.36,-3.84 -3.680001,-3.520001 -3.839998,-3.359998 -4.160002,-2.880001 -4.32,-2.720002 -4.479999,-2.239997 -4.64,-2.080002 -4.959999,-1.599999 -4.800003,-1.279998 -5.119999,-0.800004 -4.959999,-0.639999 -5.120002,-0.16 -5.119996,0.32 -4.959999,0.639999 -4.960006,0.960003 -4.959999,1.439999 -4.799996,1.599998 -4.639999,2.080002 -4.480004,2.560002 -4.159999,2.719997 -4.16,3.040001 -3.84,3.36 -3.52,3.680001 -3.2,3.84 -3.04,4.16 -2.72,4.319999 -2.24,4.48 -1.92,4.64 -1.76,4.8 -1.28,4.96 -0.8,4.96 -0.48,5.12 -0.16,5.12 0.16,4.959999 0.64,5.120001 0.96,4.959999 1.27999,4.8"
       style="fill:none;stroke:#000000;stroke-width:26.4;stroke-linecap:round;stroke-linejoin:round;stroke-miterlimit:10;stroke-dasharray:none;stroke-opacity:1"
       transform="translate(252.32001,445.34661)"
       clip-path="url(#clipPath4)" />
    <path
       id="path5"
       d="M 458.72,340.48001 562.23999,664"
       style="fill:none;stroke:#000000;stroke-width:26.4;stroke-linecap:round;stroke-linejoin:round;stroke-miterlimit:10;stroke-dasharray:none;stroke-opacity:1"
       transform="translate(0,9.346608)"
       clip-path="url(#clipPath6)" />
    <path
       id="path7"
       d="m 0,0 -5.76,2.24 -5.6,2.4 -5.439999,2.88 L -22.08,10.72 -27.200001,14.4 -32,18.24 l -4.48,4.16 -4.159999,4.640001 -4,4.799999 -3.520001,5.119999 -3.200001,5.280003 -2.880001,5.439998 -2.399997,5.599999 -2.080002,5.920002 -1.599999,5.920002 -1.279998,6.079994 -0.800004,6.080002 -0.479999,6.239998 v 6.240005 l 0.479999,6.079994 0.960003,6.240004 1.119999,5.92 1.759999,6.08 2.080001,5.76 2.560002,5.6 2.719997,5.59999 3.360001,5.28002 3.52,4.95999 3.84,4.8 4.32,4.48 4.48,4.32 4.800001,3.84 5.119999,3.52 5.28,3.2 5.44,2.88001 5.76,2.39999 5.76,2.08 6.08,1.76 5.92,1.11999 6.239999,0.96001 6.08,0.32001 h 6.240002 l 6.239998,-0.48001 6.080002,-0.80001 6.079998,-1.28 5.920002,-1.75999 5.759998,-2.08 5.759998,-2.4 5.440003,-2.88 5.279998,-3.2 5.120003,-3.68001 L 87.519997,154.56 92,150.39999 l 4.160004,-4.64 L 100,140.96001 103.68,136 l 3.2,-5.44 2.72,-5.44 2.56,-5.6 2.08,-5.92 1.6,-5.92 1.28,-6.08 0.8,-6.080003 0.32,-6.239998 v -6.239998 l -0.32,-6.080002 -0.96,-6.239998 -1.28,-5.919998 -1.76,-6.080002"
       style="fill:none;stroke:#000000;stroke-width:26.4;stroke-linecap:round;stroke-linejoin:round;stroke-miterlimit:10;stroke-dasharray:none;stroke-opacity:1"
       transform="translate(448.16,614.62664)"
       clip-path="url(#clipPath8)" />
    <path
       id="path9"
       d="M 448.32001,605.44 642.40002,543.20001"
       style="fill:none;stroke:#000000;stroke-width:26.4;stroke-linecap:round;stroke-linejoin:round;stroke-miterlimit:10;stroke-dasharray:none;stroke-opacity:1"
       transform="translate(0,9.346608)"
       clip-path="url(#clipPath10)" />
  </g>
</svg>
