<?xml version="1.0" encoding="UTF-8" standalone="no"?>
<!-- Created with Inkscape (http://www.inkscape.org/) -->

<svg
   version="1.1"
   id="svg1"
   width="480.25333"
   height="425.79999"
   viewBox="0 0 480.25333 425.79999"
   sodipodi:docname="Virgo17.pdf"
   xmlns:inkscape="http://www.inkscape.org/namespaces/inkscape"
   xmlns:sodipodi="http://sodipodi.sourceforge.net/DTD/sodipodi-0.dtd"
   xmlns="http://www.w3.org/2000/svg"
   xmlns:svg="http://www.w3.org/2000/svg">
  <defs
     id="defs1">
    <clipPath
       clipPathUnits="userSpaceOnUse"
       id="clipPath2">
      <path
         d="M 26.4,26.559999 V 1096.16 H 767.03998 V 26.559999 Z"
         transform="translate(-314.88001,-523.52002)"
         clip-rule="evenodd"
         id="path2" />
    </clipPath>
    <clipPath
       clipPathUnits="userSpaceOnUse"
       id="clipPath4">
      <path
         d="M 26.4,26.559999 V 1096.16 H 767.03998 V 26.559999 Z"
         transform="translate(-314.88001,-523.52002)"
         clip-rule="evenodd"
         id="path4" />
    </clipPath>
    <clipPath
       clipPathUnits="userSpaceOnUse"
       id="clipPath6">
      <path
         d="M 26.4,26.559999 V 1096.16 H 767.03998 V 26.559999 Z"
         transform="translate(3.3333333e-6)"
         clip-rule="evenodd"
         id="path6" />
    </clipPath>
    <clipPath
       clipPathUnits="userSpaceOnUse"
       id="clipPath8">
      <path
         d="M 26.4,26.559999 V 1096.16 H 767.03998 V 26.559999 Z"
         transform="translate(3.3333333e-6)"
         clip-rule="evenodd"
         id="path8" />
    </clipPath>
  </defs>
  <sodipodi:namedview
     id="namedview1"
     pagecolor="#505050"
     bordercolor="#eeeeee"
     borderopacity="1"
     inkscape:showpageshadow="0"
     inkscape:pageopacity="0"
     inkscape:pagecheckerboard="0"
     inkscape:deskcolor="#505050">
    <inkscape:page
       x="0"
       y="0"
       inkscape:label="1"
       id="page1"
       width="480.25333"
       height="425.79999"
       margin="0"
       bleed="0" />
  </sodipodi:namedview>
  <g
     id="g1"
     inkscape:groupmode="layer"
     inkscape:label="1">
    <path
       id="path1"
       d="M 0,0 -0.16,-5.28 -0.64,-10.56 -1.6,-15.84 -2.88,-21.120001 -4.64,-26.24 -6.72,-31.200001 -9.12,-36 l -2.72,-4.639999 -3.04,-4.32 -3.36,-4.16 -3.52,-4 -4,-3.68 -4.16,-3.360001 -4.320002,-3.040001 -4.639999,-2.880001 -4.799999,-2.400001 -4.959999,-2.079995 -5.119999,-1.760002 -5.120003,-1.279998 -5.280003,-0.96 -5.279998,-0.639999 -5.439995,-0.160004 h -5.280007 l -5.439994,0.64 -5.279999,0.800003 -5.120003,1.279999 -5.12,1.760002 -4.96,1.919998 -4.8,2.400001 -4.64,2.719998 -4.48,3.040001 -4.16,3.200001 -4,3.68 -3.68,3.839996 -3.52,4.160004 -3.03999,4.32 -2.88001,4.639999 -2.39999,4.799999 -2.08,4.959999 -1.76001,4.960001 -1.44001,5.280001 -0.95999,5.279999 -0.8,5.28 -0.31999,5.28"
       style="fill:none;stroke:#000000;stroke-width:26.4;stroke-linecap:round;stroke-linejoin:round;stroke-miterlimit:10;stroke-dasharray:none;stroke-opacity:1"
       transform="translate(172.13334,176.47996)"
       clip-path="url(#clipPath2)" />
    <path
       id="path3"
       d="m 0,0 0.32,5.44 0.48,5.44 1.12,5.28 1.28,5.280001 1.76,5.119998 2.08,5.120001 2.4,4.8 2.72,4.639999 3.2,4.479999 3.359999,4.16 3.680001,4 4,3.680001 4.319999,3.36 4.480002,3.040001 4.639999,2.719998 4.799999,2.400001 5.119999,2.080002 5.120003,1.599998 5.279999,1.279999 5.280002,0.959999 5.439995,0.64 H 76.32 l 5.440002,-0.159996 5.279999,-0.64 L 92.32,73.760002 97.599998,72.32 102.72,70.559998 l 4.96,-2.079995 4.8,-2.560005 4.64,-2.719997 L 121.6,60 l 4.16,-3.52 3.99999,-3.680001 3.52001,-4 3.36,-4.319999"
       style="fill:none;stroke:#000000;stroke-width:26.4;stroke-linecap:round;stroke-linejoin:round;stroke-miterlimit:10;stroke-dasharray:none;stroke-opacity:1"
       transform="translate(172.13334,176.47996)"
       clip-path="url(#clipPath4)" />
    <path
       id="path5"
       d="M 333.92001,750.08002 579.35998,372.64001"
       style="fill:none;stroke:#000000;stroke-width:26.4;stroke-linecap:round;stroke-linejoin:round;stroke-miterlimit:10;stroke-dasharray:none;stroke-opacity:1"
       transform="translate(-142.74667,-347.04006)"
       clip-path="url(#clipPath6)" />
    <path
       id="path7"
       d="m 466.07999,410.39999 132.16,94.4"
       style="fill:none;stroke:#000000;stroke-width:26.4;stroke-linecap:round;stroke-linejoin:round;stroke-miterlimit:10;stroke-dasharray:none;stroke-opacity:1"
       transform="translate(-142.74667,-347.04006)"
       clip-path="url(#clipPath8)" />
  </g>
</svg>
