<?xml version="1.0" encoding="UTF-8" standalone="no"?>
<!-- Created with Inkscape (http://www.inkscape.org/) -->

<svg
   version="1.1"
   id="svg1"
   width="554.97333"
   height="497.86667"
   viewBox="0 0 554.97333 497.86667"
   sodipodi:docname="Virgo21.pdf"
   xmlns:inkscape="http://www.inkscape.org/namespaces/inkscape"
   xmlns:sodipodi="http://sodipodi.sourceforge.net/DTD/sodipodi-0.dtd"
   xmlns="http://www.w3.org/2000/svg"
   xmlns:svg="http://www.w3.org/2000/svg">
  <defs
     id="defs1">
    <clipPath
       clipPathUnits="userSpaceOnUse"
       id="clipPath2">
      <path
         d="M 26.4,26.559999 V 1096.16 H 767.03998 V 26.559999 Z"
         transform="translate(-312.95999,-516)"
         clip-rule="evenodd"
         id="path2" />
    </clipPath>
    <clipPath
       clipPathUnits="userSpaceOnUse"
       id="clipPath4">
      <path
         d="M 26.4,26.559999 V 1096.16 H 767.03998 V 26.559999 Z"
         transform="translate(-3.3333333e-6)"
         clip-rule="evenodd"
         id="path4" />
    </clipPath>
    <clipPath
       clipPathUnits="userSpaceOnUse"
       id="clipPath6">
      <path
         d="M 26.4,26.559999 V 1096.16 H 767.03998 V 26.559999 Z"
         transform="translate(-327.20001,-646.08002)"
         clip-rule="evenodd"
         id="path6" />
    </clipPath>
    <clipPath
       clipPathUnits="userSpaceOnUse"
       id="clipPath8">
      <path
         d="M 26.4,26.559999 V 1096.16 H 767.03998 V 26.559999 Z"
         transform="translate(-131.84,-787.84003)"
         clip-rule="evenodd"
         id="path8" />
    </clipPath>
    <clipPath
       clipPathUnits="userSpaceOnUse"
       id="clipPath10">
      <path
         d="M 26.4,26.559999 V 1096.16 H 767.03998 V 26.559999 Z"
         transform="translate(-3.3333333e-6)"
         clip-rule="evenodd"
         id="path10" />
    </clipPath>
    <clipPath
       clipPathUnits="userSpaceOnUse"
       id="clipPath12">
      <path
         d="M 26.4,26.559999 V 1096.16 H 767.03998 V 26.559999 Z"
         transform="translate(-3.3333333e-6)"
         clip-rule="evenodd"
         id="path12" />
    </clipPath>
    <clipPath
       clipPathUnits="userSpaceOnUse"
       id="clipPath14">
      <path
         d="M 26.4,26.559999 V 1096.16 H 767.03998 V 26.559999 Z"
         transform="translate(-3.3333333e-6)"
         clip-rule="evenodd"
         id="path14" />
    </clipPath>
  </defs>
  <sodipodi:namedview
     id="namedview1"
     pagecolor="#505050"
     bordercolor="#eeeeee"
     borderopacity="1"
     inkscape:showpageshadow="0"
     inkscape:pageopacity="0"
     inkscape:pagecheckerboard="0"
     inkscape:deskcolor="#505050">
    <inkscape:page
       x="0"
       y="0"
       inkscape:label="1"
       id="page1"
       width="554.97333"
       height="497.86667"
       margin="0"
       bleed="0" />
  </sodipodi:namedview>
  <g
     id="g1"
     inkscape:groupmode="layer"
     inkscape:label="1">
    <path
       id="path1"
       d="m 0,0 v -6.08 l -0.64,-6.24 -1.12,-6.08 -1.44,-6.08 -1.92,-5.76 -2.24,-5.76 -2.72,-5.599998 -3.04,-5.440003 -3.36,-5.119999 -3.68,-4.959999 -4.16,-4.639999 -4.319999,-4.48 -4.64,-4 -4.960003,-3.68 -5.119999,-3.520004 -5.439998,-3.040001 -5.600003,-2.559998 L -60.16,-85.279999 -66.080002,-87.199997 -72,-88.639999 l -6.080002,-1.120003 -6.239998,-0.64 -6.239998,-0.159996 -6.080001,0.159996 -6.240001,0.64 -6.08,1.120003 -5.92,1.440002 -5.92,1.919998 -5.76,2.239998 -5.6,2.559998 -5.44001,3.040001 -5.11999,3.520004 -4.95999,3.68 -4.64002,4 -4.31999,4.48 -4.16,4.639999 -3.68,4.959999 -3.36,5.119999 -3.04,5.440003 -2.72001,5.599998 -2.23999,5.76 -1.91999,5.76 -1.44001,6.08 -1.12001,6.08 -0.64,6.24 -0.15998,6.08 0.15998,6.24 0.64,6.08 1.12001,6.239999 1.44001,5.920001 1.91999,5.92 2.23999,5.76 2.72001,5.599998 3.04,5.440003 3.36,5.119999 3.68,4.959999 4.16,4.639999 4.31999,4.32 4.64002,4.160004 4.95999,3.68 5.11999,3.36 5.44001,3.040001 5.6,2.719994 5.76,2.240005 5.92,1.919999 5.92,1.440002 6.08,0.959999 6.240001,0.64 6.080001,0.159996"
       style="fill:none;stroke:#000000;stroke-width:26.4;stroke-linecap:round;stroke-linejoin:round;stroke-miterlimit:10;stroke-dasharray:none;stroke-opacity:1"
       transform="translate(208.90666,203.65327)"
       clip-path="url(#clipPath2)" />
    <path
       id="path3"
       d="m 222.39999,606.71997 h 181.28"
       style="fill:none;stroke:#000000;stroke-width:26.4;stroke-linecap:round;stroke-linejoin:round;stroke-miterlimit:10;stroke-dasharray:none;stroke-opacity:1"
       transform="translate(-104.05333,-312.34673)"
       clip-path="url(#clipPath4)" />
    <path
       id="path5"
       d="m 0,0 -3.2,5.28 -3.04,5.6 -2.56,5.6 -2.08,5.76 -1.76,5.92 -1.28,6.080002 -0.96,6.079998 -0.48,6.080002 -0.16,6.239997 0.32,6.080002 0.8,6.239998 1.12,6.080002 1.6,5.919998 1.92,5.919998 2.4,5.600006 2.72,5.599999 3.2,5.279999 3.36,5.119999 3.84,4.8 4.16,4.64 4.48,4.32 4.640001,4 5.119999,3.52 5.120001,3.35999 5.44,2.88001 5.599999,2.56 5.920002,2.24 5.759998,1.76 6.080002,1.44 6.080002,0.96001 6.239998,0.47999 6.080001,0.16001 6.239998,-0.32001 6.080002,-0.8 6.079994,-1.12 6.080003,-1.60001 5.76,-1.91999 5.76,-2.4 5.44,-2.72 5.44,-3.04 5.12,-3.52 4.8,-3.84 4.64,-4.16 4.32,-4.32 4,-4.8 3.68,-4.96 3.19999,-5.279997 3.04001,-5.280006 2.56,-5.759995 L 160.96001,80 162.72,74.080002 164,68.160004 l 0.96001,-6.080002 0.64,-6.240002 0.15998,-6.080002 L 165.44,43.52 l -0.8,-6.080001 -1.12,-6.079998 -1.44,-6.08 L 160,19.52 l -2.24001,-5.76 -2.72,-5.6 -3.19999,-5.28 -3.36,-5.12 -3.84,-4.96 -4.16,-4.48 -4.32,-4.32 -4.8,-4 -4.96,-3.68 -5.12,-3.360001 -5.44,-3.039999 -5.6,-2.559999 -5.76,-2.240002 -5.920002,-1.759998 -6.079995,-1.440003 -6.080001,-0.959999 L 80.32,-39.52 l -6.239998,-0.16 -6.240006,0.319999 -6.079998,0.64"
       style="fill:none;stroke:#000000;stroke-width:26.4;stroke-linecap:round;stroke-linejoin:round;stroke-miterlimit:10;stroke-dasharray:none;stroke-opacity:1"
       transform="translate(223.14668,333.73329)"
       clip-path="url(#clipPath6)" />
    <path
       id="path7"
       d="m 0,0 12.48,-8.8 12,-9.28 11.68,-9.6 L 47.68,-37.759998 58.720001,-48.16 69.440002,-59.040001 79.68,-70.239998 l 9.919998,-11.520004 9.440003,-12 L 108.16,-105.92 l 8.64,-12.48 8.16,-12.8 7.84,-13.12001 7.36,-13.28 6.87999,-13.59999 6.24001,-13.91999 5.92,-13.92 5.44,-14.24001 4.96001,-14.39999 4.31999,-14.56001 4,-14.71999 3.19999,-14.88001"
       style="fill:none;stroke:#000000;stroke-width:26.4;stroke-linecap:round;stroke-linejoin:round;stroke-miterlimit:10;stroke-dasharray:none;stroke-opacity:1"
       transform="translate(27.786663,475.4933)"
       clip-path="url(#clipPath8)" />
    <path
       id="path9"
       d="M 327.20001,646.23999 516.96002,334.88"
       style="fill:none;stroke:#000000;stroke-width:26.4;stroke-linecap:round;stroke-linejoin:round;stroke-miterlimit:10;stroke-dasharray:none;stroke-opacity:1"
       transform="translate(-104.05333,-312.34673)"
       clip-path="url(#clipPath10)" />
    <path
       id="path11"
       d="m 516.96002,334.88 113.27997,90.56"
       style="fill:none;stroke:#000000;stroke-width:26.4;stroke-linecap:round;stroke-linejoin:round;stroke-miterlimit:10;stroke-dasharray:none;stroke-opacity:1"
       transform="translate(-104.05333,-312.34673)"
       clip-path="url(#clipPath12)" />
    <path
       id="path13"
       d="M 448.95999,470.72 516.96002,516"
       style="fill:none;stroke:#000000;stroke-width:26.4;stroke-linecap:round;stroke-linejoin:round;stroke-miterlimit:10;stroke-dasharray:none;stroke-opacity:1"
       transform="translate(-104.05333,-312.34673)"
       clip-path="url(#clipPath14)" />
  </g>
</svg>
