<?xml version="1.0" encoding="UTF-8" standalone="no"?>
<!-- Created with Inkscape (http://www.inkscape.org/) -->

<svg
   version="1.1"
   id="svg1"
   width="619"
   height="391.09332"
   viewBox="0 0 619 391.09332"
   sodipodi:docname="Virgo12.pdf"
   xmlns:inkscape="http://www.inkscape.org/namespaces/inkscape"
   xmlns:sodipodi="http://sodipodi.sourceforge.net/DTD/sodipodi-0.dtd"
   xmlns="http://www.w3.org/2000/svg"
   xmlns:svg="http://www.w3.org/2000/svg">
  <defs
     id="defs1">
    <clipPath
       clipPathUnits="userSpaceOnUse"
       id="clipPath2">
      <path
         d="M 26.4,26.559999 V 1096.16 H 767.03998 V 26.559999 Z"
         clip-rule="evenodd"
         id="path2" />
    </clipPath>
    <clipPath
       clipPathUnits="userSpaceOnUse"
       id="clipPath4">
      <path
         d="M 26.4,26.559999 V 1096.16 H 767.03998 V 26.559999 Z"
         transform="translate(-359.83999,-526.56)"
         clip-rule="evenodd"
         id="path4" />
    </clipPath>
    <clipPath
       clipPathUnits="userSpaceOnUse"
       id="clipPath6">
      <path
         d="M 26.4,26.559999 V 1096.16 H 767.03998 V 26.559999 Z"
         transform="translate(-511.67999,-637.59998)"
         clip-rule="evenodd"
         id="path6" />
    </clipPath>
    <clipPath
       clipPathUnits="userSpaceOnUse"
       id="clipPath8">
      <path
         d="M 26.4,26.559999 V 1096.16 H 767.03998 V 26.559999 Z"
         clip-rule="evenodd"
         id="path8" />
    </clipPath>
    <clipPath
       clipPathUnits="userSpaceOnUse"
       id="clipPath10">
      <path
         d="M 26.4,26.559999 V 1096.16 H 767.03998 V 26.559999 Z"
         transform="translate(-362.72,-662.56)"
         clip-rule="evenodd"
         id="path10" />
    </clipPath>
    <clipPath
       clipPathUnits="userSpaceOnUse"
       id="clipPath12">
      <path
         d="M 26.4,26.559999 V 1096.16 H 767.03998 V 26.559999 Z"
         transform="translate(-362.72,-662.56)"
         clip-rule="evenodd"
         id="path12" />
    </clipPath>
  </defs>
  <sodipodi:namedview
     id="namedview1"
     pagecolor="#505050"
     bordercolor="#eeeeee"
     borderopacity="1"
     inkscape:showpageshadow="0"
     inkscape:pageopacity="0"
     inkscape:pagecheckerboard="0"
     inkscape:deskcolor="#505050">
    <inkscape:page
       x="0"
       y="0"
       inkscape:label="1"
       id="page1"
       width="619"
       height="391.09332"
       margin="0"
       bleed="0" />
  </sodipodi:namedview>
  <g
     id="g1"
     inkscape:groupmode="layer"
     inkscape:label="1">
    <path
       id="path1"
       d="M 95.68,526.56 H 662.08002"
       style="fill:none;stroke:#000000;stroke-width:26.4;stroke-linecap:round;stroke-linejoin:round;stroke-miterlimit:10;stroke-dasharray:none;stroke-opacity:1"
       transform="translate(-73.373333,-367.06673)"
       clip-path="url(#clipPath2)" />
    <path
       id="path3"
       d="M 0,0 -0.16,-7.68 -0.8,-15.36 -1.92,-22.879999 -3.36,-30.4 l -2.08,-7.519998 -2.4,-7.200001 -2.88,-7.200001 -3.2,-6.880001 -3.68,-6.880001 -4,-6.559997 -4.48,-6.239998 -4.639999,-6.080002 L -35.84,-90.559998 -41.279999,-96 l -5.760002,-5.12 -6.079998,-4.8 -6.240002,-4.48 -6.559997,-4 -6.720001,-3.68 -7.040001,-3.2 -7.199997,-2.88 -7.200005,-2.4 -7.519998,-1.92 -7.52,-1.6 -7.52,-1.12 -7.68,-0.64 -7.68,-0.32 -7.67999,0.32 -7.68001,0.64 -7.67999,1.12 -7.52001,1.6 -7.36,1.92 -7.36,2.4 -7.04001,2.88 -7.03999,3.2 -6.72,3.68 -6.56,4 -6.24,4.48 -6.08001,4.8 -5.75999,5.12 -5.44,5.440002 -5.12,5.599999 -4.8,6.080002 -4.31999,6.239998 -4,6.559997 -3.68001,6.880001 -3.36,6.880001 -2.72,7.200001 -2.4,7.200001 -2.08001,7.519998 -1.59998,7.520001 -1.12,7.519999 L -264,-7.68 -264.32001,0"
       style="fill:none;stroke:#000000;stroke-width:26.4;stroke-linecap:round;stroke-linejoin:round;stroke-miterlimit:10;stroke-dasharray:none;stroke-opacity:1"
       transform="translate(286.46666,159.49327)"
       clip-path="url(#clipPath4)" />
    <path
       id="path5"
       d="m 0,0 1.28,5.44 1.44,5.12 1.76,5.12 2.24,4.959999 2.4,4.800002 L 12,29.92 l 3.2,4.480002 3.519999,4 3.680001,3.84 4,3.679996 4.319999,3.200001 4.480002,3.040001 4.639999,2.560001 4.959999,2.399998 4.959999,1.920002 5.280003,1.599998 5.119999,1.279999 5.439998,0.800003 5.279999,0.48 H 76.32 l 5.440002,-0.32 5.279999,-0.639999 L 92.32,61.119999 97.440002,59.68 102.56,57.919998 107.52,55.68 l 4.8,-2.560001 4.48,-2.719997 4.48,-3.200001 4,-3.520001 3.83999,-3.84 3.68001,-4 3.2,-4.16 3.03999,-4.479999 2.72,-4.800001 2.24001,-4.8 1.92,-5.12 1.6,-5.12 1.28,-5.28 0.80001,-5.28 0.47999,-5.44 v -5.28 l -0.32001,-5.440001 -0.79998,-5.439998"
       style="fill:none;stroke:#000000;stroke-width:26.4;stroke-linecap:round;stroke-linejoin:round;stroke-miterlimit:10;stroke-dasharray:none;stroke-opacity:1"
       transform="translate(438.30666,270.53325)"
       clip-path="url(#clipPath6)" />
    <path
       id="path7"
       d="m 662.08002,526.56 v 94.40002"
       style="fill:none;stroke:#000000;stroke-width:26.4;stroke-linecap:round;stroke-linejoin:round;stroke-miterlimit:10;stroke-dasharray:none;stroke-opacity:1"
       transform="translate(-73.373333,-367.06673)"
       clip-path="url(#clipPath8)" />
    <path
       id="path9"
       d="m 0,0 1.12,5.28 1.44,5.28 1.92,4.96 2.08,4.96 2.56,4.800001 L 12,29.76 l 3.2,4.480002 3.519999,4 3.680001,4 4,3.519996 4.319999,3.360001 L 35.200001,52 39.84,54.720001 l 4.959999,2.239998 4.959999,1.920002 5.120003,1.599999 5.279999,1.279998 5.439998,0.800003 5.279999,0.48 H 76.32 l 5.279998,-0.32 5.440003,-0.639999 L 92.32,60.959999 97.440002,59.52 102.56,57.759998 107.52,55.52 l 4.8,-2.400001 4.48,-2.879997 4.32,-3.200001 4.16,-3.520001 3.83999,-3.68 3.68001,-4 3.2,-4.32 3.03999,-4.479999 L 141.60001,22.24 144,17.440001 145.92,12.32 l 1.6,-5.12 1.28,-5.28 0.80001,-5.28 0.47999,-5.28 v -5.44 l -0.32001,-5.44 -0.79998,-5.439999"
       style="fill:none;stroke:#000000;stroke-width:26.4;stroke-linecap:round;stroke-linejoin:round;stroke-miterlimit:10;stroke-dasharray:none;stroke-opacity:1"
       transform="translate(289.34667,295.49327)"
       clip-path="url(#clipPath10)" />
    <path
       id="path11"
       d="m 0,0 -0.96,-5.28 -1.44,-5.12 -1.76,-5.12 -2.24,-4.96 -2.56,-4.800001 -2.88,-4.479999 -3.04,-4.480002 -3.52,-4 -3.84,-3.84 -4,-3.679996 -4.319999,-3.200001 L -35.040001,-52 -39.68,-54.720001 l -4.8,-2.239998 -5.119998,-1.920002 L -54.720001,-60.48 -60,-61.759998 l -5.279999,-0.800003 -5.440002,-0.48 H -76 l -5.440002,0.32 -5.279999,0.639999 L -92,-60.959999 -97.279999,-59.52 -102.4,-57.759998 l -4.8,2.239998 -4.8,2.560001 -4.64,2.719997 -4.32,3.200001 -4.16,3.520001 -3.84001,3.68 -3.51999,4.16 -3.36,4.16 -2.88,4.479999 -2.72,4.800001 -2.23999,4.799999 -2.08,5.120001 -1.60001,5.12 -1.12,5.28 -0.8,5.28 -0.47999,5.44 -0.16001,5.28 0.31999,5.44 0.64,5.279999"
       style="fill:none;stroke:#000000;stroke-width:26.4;stroke-linecap:round;stroke-linejoin:round;stroke-miterlimit:10;stroke-dasharray:none;stroke-opacity:1"
       transform="translate(289.34667,295.49327)"
       clip-path="url(#clipPath12)" />
  </g>
</svg>
