<?xml version="1.0" encoding="UTF-8" standalone="no"?>
<!-- Created with Inkscape (http://www.inkscape.org/) -->

<svg
   version="1.1"
   id="svg1"
   width="512.28003"
   height="557.94666"
   viewBox="0 0 512.28003 557.94666"
   sodipodi:docname="Virgo3.pdf"
   xmlns:inkscape="http://www.inkscape.org/namespaces/inkscape"
   xmlns:sodipodi="http://sodipodi.sourceforge.net/DTD/sodipodi-0.dtd"
   xmlns="http://www.w3.org/2000/svg"
   xmlns:svg="http://www.w3.org/2000/svg">
  <defs
     id="defs1">
    <clipPath
       clipPathUnits="userSpaceOnUse"
       id="clipPath2">
      <path
         d="M 26.4,26.559999 V 1096.16 H 767.03998 V 26.559999 Z"
         clip-rule="evenodd"
         id="path2" />
    </clipPath>
    <clipPath
       clipPathUnits="userSpaceOnUse"
       id="clipPath4">
      <path
         d="M 26.4,26.559999 V 1096.16 H 767.03998 V 26.559999 Z"
         clip-rule="evenodd"
         id="path4" />
    </clipPath>
    <clipPath
       clipPathUnits="userSpaceOnUse"
       id="clipPath6">
      <path
         d="M 26.4,26.559999 V 1096.16 H 767.03998 V 26.559999 Z"
         transform="translate(-315.84,-359.04001)"
         clip-rule="evenodd"
         id="path6" />
    </clipPath>
    <clipPath
       clipPathUnits="userSpaceOnUse"
       id="clipPath8">
      <path
         d="M 26.4,26.559999 V 1096.16 H 767.03998 V 26.559999 Z"
         transform="translate(-315.84,-359.04001)"
         clip-rule="evenodd"
         id="path8" />
    </clipPath>
  </defs>
  <sodipodi:namedview
     id="namedview1"
     pagecolor="#505050"
     bordercolor="#eeeeee"
     borderopacity="1"
     inkscape:showpageshadow="0"
     inkscape:pageopacity="0"
     inkscape:pagecheckerboard="0"
     inkscape:deskcolor="#505050">
    <inkscape:page
       x="0"
       y="0"
       inkscape:label="1"
       id="page1"
       width="512.28003"
       height="557.94666"
       margin="0"
       bleed="0" />
  </sodipodi:namedview>
  <g
     id="g1"
     inkscape:groupmode="layer"
     inkscape:label="1">
    <path
       id="path1"
       d="M 384,812.15997 H 157.44"
       style="fill:none;stroke:#000000;stroke-width:26.4;stroke-linecap:round;stroke-linejoin:round;stroke-miterlimit:10;stroke-dasharray:none;stroke-opacity:1"
       transform="translate(0,1.3332747)"
       clip-path="url(#clipPath2)" />
    <path
       id="path3"
       d="M 157.44,812.15997 610.56,359.20001"
       style="fill:none;stroke:#000000;stroke-width:26.4;stroke-linecap:round;stroke-linejoin:round;stroke-miterlimit:10;stroke-dasharray:none;stroke-opacity:1"
       transform="translate(0,1.3332747)"
       clip-path="url(#clipPath4)" />
    <path
       id="path5"
       d="m 0,0 v -3.84 l -0.48,-4 -0.96,-3.84 -1.12,-3.68 -1.6,-3.680001 -1.76,-3.519998 L -8,-25.92 -10.4,-28.959999 -13.12,-32 -16,-34.560001 l -3.200001,-2.399998 -3.359998,-2.240002 -3.520001,-1.759998 -3.52,-1.600002 -3.839999,-1.119999 -3.84,-0.8 -4,-0.639999 -3.84,-0.16 -4,0.16 -3.84,0.639999 -4,0.8 -3.68,1.119999 -3.680001,1.600002 -3.519996,1.759998 -3.360001,2.240002 -3.040001,2.399998 L -77.120003,-32 -79.839996,-28.959999 -82.239998,-25.92 -84.32,-22.559999 -86.239998,-19.040001 -87.68,-15.36 l -1.279999,3.68 -0.800003,3.84 -0.479996,4 -0.32,3.84"
       style="fill:none;stroke:#000000;stroke-width:26.4;stroke-linecap:round;stroke-linejoin:round;stroke-miterlimit:10;stroke-dasharray:none;stroke-opacity:1"
       transform="translate(315.84,360.37328)"
       clip-path="url(#clipPath6)" />
    <path
       id="path7"
       d="M 0,0 2.4,18.24 5.12,36.32 8.32,54.400002 12.16,72.32 16.48,90.080002 21.120001,107.68 26.4,125.28 l 5.76,17.28 6.240002,17.28 6.719997,16.96 L 52.32,193.60001 60,210.24 l 8,16.32"
       style="fill:none;stroke:#000000;stroke-width:26.4;stroke-linecap:round;stroke-linejoin:round;stroke-miterlimit:10;stroke-dasharray:none;stroke-opacity:1"
       transform="translate(315.84,360.37328)"
       clip-path="url(#clipPath8)" />
  </g>
</svg>
