<?xml version="1.0" encoding="UTF-8" standalone="no"?>
<!-- Created with Inkscape (http://www.inkscape.org/) -->

<svg
   version="1.1"
   id="svg1"
   width="504.28"
   height="503.21332"
   viewBox="0 0 504.28 503.21332"
   sodipodi:docname="Virgo14.pdf"
   xmlns:inkscape="http://www.inkscape.org/namespaces/inkscape"
   xmlns:sodipodi="http://sodipodi.sourceforge.net/DTD/sodipodi-0.dtd"
   xmlns="http://www.w3.org/2000/svg"
   xmlns:svg="http://www.w3.org/2000/svg">
  <defs
     id="defs1">
    <clipPath
       clipPathUnits="userSpaceOnUse"
       id="clipPath2">
      <path
         d="M 26.4,26.559999 V 1096.16 H 767.03998 V 26.559999 Z"
         transform="translate(-339.67999,-510.23999)"
         clip-rule="evenodd"
         id="path2" />
    </clipPath>
    <clipPath
       clipPathUnits="userSpaceOnUse"
       id="clipPath4">
      <path
         d="M 26.4,26.559999 V 1096.16 H 767.03998 V 26.559999 Z"
         transform="translate(-338.07999,-512.15997)"
         clip-rule="evenodd"
         id="path4" />
    </clipPath>
    <clipPath
       clipPathUnits="userSpaceOnUse"
       id="clipPath6">
      <path
         d="M 26.4,26.559999 V 1096.16 H 767.03998 V 26.559999 Z"
         clip-rule="evenodd"
         id="path6" />
    </clipPath>
    <clipPath
       clipPathUnits="userSpaceOnUse"
       id="clipPath8">
      <path
         d="M 26.4,26.559999 V 1096.16 H 767.03998 V 26.559999 Z"
         clip-rule="evenodd"
         id="path8" />
    </clipPath>
    <clipPath
       clipPathUnits="userSpaceOnUse"
       id="clipPath10">
      <path
         d="M 26.4,26.559999 V 1096.16 H 767.03998 V 26.559999 Z"
         clip-rule="evenodd"
         id="path10" />
    </clipPath>
    <clipPath
       clipPathUnits="userSpaceOnUse"
       id="clipPath12">
      <path
         d="M 26.4,26.559999 V 1096.16 H 767.03998 V 26.559999 Z"
         clip-rule="evenodd"
         id="path12" />
    </clipPath>
    <clipPath
       clipPathUnits="userSpaceOnUse"
       id="clipPath14">
      <path
         d="M 26.4,26.559999 V 1096.16 H 767.03998 V 26.559999 Z"
         transform="translate(-358.88,-349.92001)"
         clip-rule="evenodd"
         id="path14" />
    </clipPath>
  </defs>
  <sodipodi:namedview
     id="namedview1"
     pagecolor="#505050"
     bordercolor="#eeeeee"
     borderopacity="1"
     inkscape:showpageshadow="0"
     inkscape:pageopacity="0"
     inkscape:pagecheckerboard="0"
     inkscape:deskcolor="#505050">
    <inkscape:page
       x="0"
       y="0"
       inkscape:label="1"
       id="page1"
       width="504.28"
       height="503.21332"
       margin="0"
       bleed="0" />
  </sodipodi:namedview>
  <g
     id="g1"
     inkscape:groupmode="layer"
     inkscape:label="1">
    <path
       id="path1"
       d="M 0,0 3.04,-3.68 5.76,-7.52 8,-11.68 10.08,-16 l 1.6,-4.48 1.44,-4.479999 0.8,-4.640001 0.64,-4.640002 0.16,-4.639999 -0.16,-4.799999 -0.48,-4.64 -0.8,-4.639999 -1.28,-4.48 -1.6,-4.479999 -2.08,-4.32 -2.24,-4.160004 -2.56,-4 -3.04,-3.68 -3.2,-3.68 -3.52,-3.199997 L -9.92,-88 l -4,-2.879997 -4.16,-2.400002 -4.32,-2.239998 -4.479999,-1.760002 L -31.52,-98.879997 -36.32,-100 l -4.799999,-0.96 -4.960003,-0.48 -4.959999,-0.16 -4.799999,0.32 -4.959999,0.48 -4.799999,0.960004 -4.800004,1.279998 -4.639999,1.599999 -4.479996,1.919998 -4.319999,2.239998 -4,2.560005 -4,2.879997 -3.680001,3.199997 -3.36,3.360001 -3.200003,3.520004 -2.88,3.839997 -2.56,4 -2.08,4.319999 -1.92,4.320004 -1.6,4.479999 -1.28,4.48"
       style="fill:none;stroke:#000000;stroke-width:26.4;stroke-linecap:round;stroke-linejoin:round;stroke-miterlimit:10;stroke-dasharray:none;stroke-opacity:1"
       transform="translate(339.67999,515.5866)"
       clip-path="url(#clipPath2)" />
    <path
       id="path3"
       d="m 0,0 -2.88,4.32 -2.56,4.32 -2.24,4.64 -2.08,4.64 -1.44,4.799999 -1.28,4.800001 -0.8,4.96 -0.48,5.119998 -0.16,4.960003 0.32,5.119999 0.64,4.959999 0.96,4.959999 1.44,4.800004 1.76,4.799995 2.08,4.480003 2.4,4.480004 2.72,4.319999 3.04,4.159996 L 4.8,88.480003 8.48,92 l 3.84,3.519997 4.16,3.040001 4.319999,2.880002 4.640002,2.4 L 30.24,106.08 35.040001,108 40,109.44 l 5.119999,1.12 5.280003,0.96 L 55.68,112 h 5.119999 l 5.280003,-0.16 5.279999,-0.64 5.120002,-0.96 5.119995,-1.28 4.96,-1.6 4.800003,-1.92 4.800003,-2.4 4.479996,-2.56 4.32,-2.880002 4,-3.199996 3.84,-3.520005 3.52,-3.68 3.2,-4 3.04,-4.159996 2.72,-4.32 2.24,-4.480003 1.92,-4.64 1.59999,-4.799999 L 132.32001,56 133.28,51.040001 133.75999,45.919998 133.92,40.959999 133.60001,35.84"
       style="fill:none;stroke:#000000;stroke-width:26.4;stroke-linecap:round;stroke-linejoin:round;stroke-miterlimit:10;stroke-dasharray:none;stroke-opacity:1"
       transform="translate(338.07999,517.50658)"
       clip-path="url(#clipPath4)" />
    <path
       id="path5"
       d="M 470.39999,543.03998 469.44,722.23999"
       style="fill:none;stroke:#000000;stroke-width:26.4;stroke-linecap:round;stroke-linejoin:round;stroke-miterlimit:10;stroke-dasharray:none;stroke-opacity:1"
       transform="translate(0,5.346608)"
       clip-path="url(#clipPath6)" />
    <path
       id="path7"
       d="M 469.44,722.23999 400.79999,785.44"
       style="fill:none;stroke:#000000;stroke-width:26.4;stroke-linecap:round;stroke-linejoin:round;stroke-miterlimit:10;stroke-dasharray:none;stroke-opacity:1"
       transform="translate(0,5.346608)"
       clip-path="url(#clipPath8)" />
    <path
       id="path9"
       d="m 473.92001,720.64001 64.16001,65.59998"
       style="fill:none;stroke:#000000;stroke-width:26.4;stroke-linecap:round;stroke-linejoin:round;stroke-miterlimit:10;stroke-dasharray:none;stroke-opacity:1"
       transform="translate(0,5.346608)"
       clip-path="url(#clipPath10)" />
    <path
       id="path11"
       d="M 256.64001,787.84003 608.47998,553.91998"
       style="fill:none;stroke:#000000;stroke-width:26.4;stroke-linecap:round;stroke-linejoin:round;stroke-miterlimit:10;stroke-dasharray:none;stroke-opacity:1"
       transform="translate(0,5.346608)"
       clip-path="url(#clipPath12)" />
    <path
       id="path13"
       d="m 0,0 -7.04,-3.2 -7.2,-2.88 -7.52,-2.56 -7.680001,-2.08 -7.679998,-1.6 -7.84,-1.28 -7.84,-0.8 -7.84,-0.48 -8,0.16 -7.840004,0.32 -7.839997,0.96 -7.840004,1.28 -7.679992,1.76 -7.520004,2.08 -7.52,2.56 -7.2,2.88 -7.2,3.36 -6.88,3.68 -6.72,4.16 -6.4,4.32 -6.08,4.800001 -5.92,5.119998 L -166.72,28 -172,33.599998 -176.8,39.52 l -4.48,6.239998 -4.16,6.400002 -3.84,6.720001 -3.36,6.880001 -2.88,7.040001 -2.56,7.199997 -2.08,7.199997 -1.59999,7.360001 -1.28,7.520002 -0.80001,7.52 -0.32,7.52 0.16,7.52 0.64,7.52 0.96001,7.51999 1.43998,7.36"
       style="fill:none;stroke:#000000;stroke-width:26.4;stroke-linecap:round;stroke-linejoin:round;stroke-miterlimit:10;stroke-dasharray:none;stroke-opacity:1"
       transform="translate(358.88,355.26662)"
       clip-path="url(#clipPath14)" />
  </g>
</svg>
