<?xml version="1.0" encoding="UTF-8" standalone="no"?>
<!-- Created with Inkscape (http://www.inkscape.org/) -->

<svg
   version="1.1"
   id="svg1"
   width="498.93332"
   height="282.97333"
   viewBox="0 0 498.93332 282.97333"
   sodipodi:docname="Virgo13.pdf"
   xmlns:inkscape="http://www.inkscape.org/namespaces/inkscape"
   xmlns:sodipodi="http://sodipodi.sourceforge.net/DTD/sodipodi-0.dtd"
   xmlns="http://www.w3.org/2000/svg"
   xmlns:svg="http://www.w3.org/2000/svg">
  <defs
     id="defs1">
    <clipPath
       clipPathUnits="userSpaceOnUse"
       id="clipPath2">
      <path
         d="M 26.4,26.559999 V 1096.16 H 767.03998 V 26.559999 Z"
         transform="translate(-472.32001,-530.23999)"
         clip-rule="evenodd"
         id="path2" />
    </clipPath>
    <clipPath
       clipPathUnits="userSpaceOnUse"
       id="clipPath4">
      <path
         d="M 26.4,26.559999 V 1096.16 H 767.03998 V 26.559999 Z"
         transform="translate(-472.48001,-528.79999)"
         clip-rule="evenodd"
         id="path4" />
    </clipPath>
    <clipPath
       clipPathUnits="userSpaceOnUse"
       id="clipPath6">
      <path
         d="M 26.4,26.559999 V 1096.16 H 767.03998 V 26.559999 Z"
         transform="translate(-337.44,-564.32001)"
         clip-rule="evenodd"
         id="path6" />
    </clipPath>
    <clipPath
       clipPathUnits="userSpaceOnUse"
       id="clipPath8">
      <path
         d="M 26.4,26.559999 V 1096.16 H 767.03998 V 26.559999 Z"
         transform="translate(-153.75999,-610.56)"
         clip-rule="evenodd"
         id="path8" />
    </clipPath>
  </defs>
  <sodipodi:namedview
     id="namedview1"
     pagecolor="#505050"
     bordercolor="#eeeeee"
     borderopacity="1"
     inkscape:showpageshadow="0"
     inkscape:pageopacity="0"
     inkscape:pagecheckerboard="0"
     inkscape:deskcolor="#505050">
    <inkscape:page
       x="0"
       y="0"
       inkscape:label="1"
       id="page1"
       width="498.93332"
       height="282.97333"
       margin="0"
       bleed="0" />
  </sodipodi:namedview>
  <g
     id="g1"
     inkscape:groupmode="layer"
     inkscape:label="1">
    <path
       id="path1"
       d="m 0,0 -3.04,-4.32 -3.2,-4.16 -3.52,-3.84 -3.84,-3.52 -4.16,-3.360001 -4.16,-2.879999 -4.48,-2.719999 -4.640001,-2.400002 -4.799999,-1.92 -4.799999,-1.599998 L -45.599998,-32 l -5.120003,-0.959999 -5.119999,-0.48 -5.119999,-0.159999 -5.120003,0.319999 -5.119995,0.64 -4.960007,0.959999 -4.959999,1.44 -4.799995,1.76 -4.800003,2.08 -4.64,2.4 -4.319999,2.719999 -4.16,3.200001 -4,3.36 -3.68,3.68 -3.52,3.84 -3.2,4.16 -2.88,4.48 -2.72,4.64 -2.24,4.8 -1.92,4.96 -1.60001,5.119999 -1.27999,5.120001 -0.96,5.280001 -0.48001,5.279998 -0.15999,5.440003 0.15999,5.279999 0.48001,5.439998 0.96,5.280003 1.27999,5.119999 L -128,68.32 l 1.92,4.959999 2.24,4.800003 2.56,4.479996"
       style="fill:none;stroke:#000000;stroke-width:26.4;stroke-linecap:round;stroke-linejoin:round;stroke-miterlimit:10;stroke-dasharray:none;stroke-opacity:1"
       transform="translate(472.32001,536.91993)"
       clip-path="url(#clipPath2)" />
    <path
       id="path3"
       d="m 0,0 3.04,4.64 3.36,4.32 3.52,4.16 3.84,3.679999 4.16,3.520001 4.32,3.040001 4.479999,2.879999 4.800001,2.399999 4.8,2.24 4.959999,1.76 5.120003,1.279999 5.279998,0.960003 5.119999,0.639999 5.280003,0.16 5.279999,-0.319999 5.279998,-0.48 5.120003,-1.120003 L 82.879997,32.48 88,30.559999 92.800003,28.48 97.440002,25.92 101.92,23.200001 106.24,20 l 4.16,-3.52 3.84,-3.84 3.52,-4 3.2,-4.48 3.04,-4.48 2.56,-4.8 2.40001,-4.96 1.91999,-5.12 1.6,-5.28 1.12001,-5.28 0.95999,-5.440001 0.47999,-5.599998 v -5.440003 L 134.88,-47.68 l -0.64,-5.599999 -1.12001,-5.280002 -1.44,-5.439999 -1.75999,-5.120003 -2.08,-5.119995 -2.56,-4.959999"
       style="fill:none;stroke:#000000;stroke-width:26.4;stroke-linecap:round;stroke-linejoin:round;stroke-miterlimit:10;stroke-dasharray:none;stroke-opacity:1"
       transform="translate(472.48001,535.47993)"
       clip-path="url(#clipPath4)" />
    <path
       id="path5"
       d="m 0,0 -3.04,-5.6 -3.36,-5.6 -3.84,-5.12 -4.16,-4.960001 L -18.719999,-26.08 -23.52,-30.4 l -4.96,-4.000002 -5.119998,-3.68 -5.440003,-3.359997 -5.599998,-3.040001 -5.760003,-2.560001 -5.919998,-2.079998 -6.080002,-1.760002 -6.080001,-1.439999 -6.239998,-0.799999 -6.239998,-0.639999 h -6.400002 l -6.239997,0.319999 -6.239998,0.8 -6.080004,1.119999 -6.24,1.600002 -5.92,2.079998 -5.76,2.400001 -5.76001,2.879998 -5.43998,3.2 -5.28002,3.520001 -5.11999,3.84 -4.8,4.32 -4.48,4.479999 -4.16,4.960001 -4,5.12 -3.51999,5.44 -3.36,5.6 -2.88001,5.76 -2.39999,6.08 -2.24001,6.08 -1.75999,6.4 -1.28002,6.399999 -0.95999,6.400002 -0.64,6.559997 -0.16,6.560002"
       style="fill:none;stroke:#000000;stroke-width:26.4;stroke-linecap:round;stroke-linejoin:round;stroke-miterlimit:10;stroke-dasharray:none;stroke-opacity:1"
       transform="translate(337.44,570.99995)"
       clip-path="url(#clipPath6)" />
    <path
       id="path7"
       d="m 0,0 0.16,4.96 0.48,4.8 0.8,4.64 1.12,4.800001 L 4,23.68 5.76,28.16 8,32.48 10.4,36.639999 13.12,40.48 16,44.16 19.200001,47.68 22.719999,50.880001 26.4,53.759998 30.24,56.48 l 4.160002,2.240001 4.159999,1.919998 4.32,1.760003 4.48,1.279998 4.479999,0.959999 4.64,0.480004 4.639999,0.319999 4.640003,-0.160003 4.479996,-0.479996 L 74.879997,64 79.360001,62.720001 83.68,61.119999 88,59.360001 92,57.119999 96,54.560001 99.68,51.68 l 3.52,-3.040001 3.36,-3.36 3.04,-3.680001 2.72,-3.84 2.56,-4.16 2.24,-4.159997 1.76,-4.480002 1.6,-4.479999 1.28,-4.8 0.8,-4.64 0.64,-4.8 0.16,-4.8 -0.16,-4.8 -0.48,-4.8 -0.8,-4.8 -1.28,-4.64 -1.44,-4.64 -1.76,-4.479999 -2.24,-4.16 -2.4,-4.160002 -2.72,-3.84 -3.04,-3.68 -3.2,-3.520001 -3.52,-3.199997"
       style="fill:none;stroke:#000000;stroke-width:26.4;stroke-linecap:round;stroke-linejoin:round;stroke-miterlimit:10;stroke-dasharray:none;stroke-opacity:1"
       transform="translate(153.75999,617.23994)"
       clip-path="url(#clipPath8)" />
  </g>
</svg>
