<?xml version="1.0" encoding="UTF-8" standalone="no"?>
<!-- Created with Inkscape (http://www.inkscape.org/) -->

<svg
   version="1.1"
   id="svg1"
   width="605.66669"
   height="577.96002"
   viewBox="0 0 605.66669 577.96002"
   sodipodi:docname="Virgo.pdf"
   xmlns:inkscape="http://www.inkscape.org/namespaces/inkscape"
   xmlns:sodipodi="http://sodipodi.sourceforge.net/DTD/sodipodi-0.dtd"
   xmlns="http://www.w3.org/2000/svg"
   xmlns:svg="http://www.w3.org/2000/svg">
  <defs
     id="defs1">
    <clipPath
       clipPathUnits="userSpaceOnUse"
       id="clipPath2">
      <path
         d="M 26.4,26.559999 V 1096.16 H 767.03998 V 26.559999 Z"
         transform="translate(-102.56,-825.59998)"
         clip-rule="evenodd"
         id="path2" />
    </clipPath>
    <clipPath
       clipPathUnits="userSpaceOnUse"
       id="clipPath4">
      <path
         d="M 26.4,26.559999 V 1096.16 H 767.03998 V 26.559999 Z"
         transform="translate(-499.04001,-561.28003)"
         clip-rule="evenodd"
         id="path4" />
    </clipPath>
  </defs>
  <sodipodi:namedview
     id="namedview1"
     pagecolor="#505050"
     bordercolor="#eeeeee"
     borderopacity="1"
     inkscape:showpageshadow="0"
     inkscape:pageopacity="0"
     inkscape:pagecheckerboard="0"
     inkscape:deskcolor="#505050">
    <inkscape:page
       x="0"
       y="0"
       inkscape:label="1"
       id="page1"
       width="605.66669"
       height="577.96002"
       margin="0"
       bleed="0" />
  </sodipodi:namedview>
  <g
     id="g1"
     inkscape:groupmode="layer"
     inkscape:label="1">
    <path
       id="path1"
       d="m 0,0 5.12,-11.2 7.68,-17.12 7.36,-16.799999 5.44,-12.479999 8.960001,-21.599999 7.520001,-19.360001 L 48.799999,-116 54.560001,-132.48 59.84,-148.32001 64.800003,-163.84 69.279999,-179.03999 73.440002,-194.08 77.279999,-209.11999 80.800003,-224 l 3.360001,-14.88 3.039993,-15.04 2.080002,-10.40001 L 92.32,-281.44 l 2.720001,-16.32001 2.879997,-19.03998 3.360002,-23.52002 4.32,-31.83999 1.76,-13.28 2.4,-19.51999 2.08,-16.16001 1.76,-13.6 1.6,-12 1.44,-10.56 1.44,-9.6 1.28,-8.63999 1.28,-7.68002 1.28,-7.03998 1.12,-6.40002 1.28,-5.59998 1.12,-5.12 1.12,-4.48001 1.12,-3.83999 1.12,-3.35999 1.12,-2.88 1.11999,-2.23999 1.12001,-1.92005 1.12,-1.27996 1.28,-0.79999 1.11999,-0.32001 H 136 l 1.28,0.15997 1.11999,0.79999 1.28,1.12 1.28002,1.60003 1.27999,2.08002 1.28,2.56 1.44001,3.03997 1.43998,3.52002 1.44001,3.99997 1.44,4.64002 1.6,4.95999 1.44001,5.60001 1.75999,6.23999 1.59999,6.72 1.76001,7.36001 1.59999,8 1.92002,8.63999 1.75999,9.44 1.92,10.07999 1.92,11.04001 1.92,12 2.08,13.11999 2.24,14.40002 2.08,16 2.4,17.91999 2.39999,20.64001 2.72,24.95999 2.72,28.96 0.96001,12.16 0.8,11.84 1.28,18.24 0.80001,16.64 0.64,15.67999 0.63999,14.88001 0.32,13.92 0.32,13.12001 0.32,12.15999 0.32,11.52 0.15999,10.72 0.16001,9.92 0.16,9.28 0.32001,8.64 0.15999,7.999996 0.32,7.360001 0.31999,6.720001 0.32001,6.240006 0.48,5.599998 0.47999,5.119999 0.64,4.639999 0.64,4 0.64002,3.520001 0.79998,3.040001 0.96001,2.559997 0.95999,2.080002 1.12001,1.599999 1.12,1.119999 1.28,0.640003 1.28,0.16 H 204 l 1.28,-0.16 1.6,-0.480004 1.6,-1.119998 1.91999,-1.439999 1.92002,-1.920002 2.07998,-2.399998 2.24001,-2.880001 2.24,-3.200001 2.4,-3.84 2.56,-4.16 2.72,-4.800003 2.88,-5.279998 2.88001,-5.599999 3.03999,-6.400001 3.2,-6.720002 3.19999,-7.359993 3.36,-8.000003 3.52001,-8.48 3.52,-9.12 3.68,-9.6 3.67999,-10.39999 3.84,-11.04001 4,-11.84 4,-12.48 4.16,-13.27999 4.16,-14.08001 4.16001,-14.88 4.16,-15.84 4.32001,-16.8 0.79999,-3.52 4.32,-18.56 4.48001,-19.84 4.95999,-23.84 5.76001,-29.6 2.71998,-13.76001 4,-21.91998 3.20001,-18.24002 2.72,-15.19999 2.39999,-13.44 2.24002,-12 1.91999,-10.72 1.76001,-9.76001 1.75998,-8.95999 1.6,-8.16 1.44,-7.35999 1.44001,-6.56 1.28,-6.08001 1.27999,-5.28 1.28,-4.79999 1.12,-4.32004 1.12002,-3.67999 0.95999,-3.19995 1.12,-2.56 0.95999,-2.08002 0.96002,-1.76001 0.95999,-1.11999 0.96,-0.64002 0.80001,-0.15997 0.96,0.15997 0.79998,0.79999 0.80002,1.12 0.79999,1.60003 0.95999,2.08002 0.80002,2.56 0.95999,3.03997 0.79999,3.52002 0.96002,4.15998 0.79999,4.48001 0.95999,5.11999 0.96002,5.60001 1.12,6.23999 0.95999,6.72 1.11999,7.51999 1.12,8 1.28,8.80002 1.28,9.6 1.44,10.4 1.44,11.35998 1.60001,12.48001 1.92001,13.76001 2.07999,15.19999 2.56,17.44 3.04,20.32001 4,24.79998 2.4,13.60001 2.08001,11.67999 4.15998,20.16001 2.56,11.83999 3.84002,16.80001 3.67999,13.91999 3.84,13.92002 4.16,13.75999 4.32001,13.92 4.79999,13.76 4.95999,13.91999 5.44,13.92002 5.76001,14.07998 6.07999,14.24001 6.72,14.56 7.20001,15.039997 7.84,15.68 8.64001,16.640003 9.59998,18.079998 11.36002,20.480002 12.16,21.6"
       style="fill:none;stroke:#000000;stroke-width:26.4;stroke-linecap:round;stroke-linejoin:round;stroke-miterlimit:10;stroke-dasharray:none;stroke-opacity:1"
       transform="translate(102.56,833.61325)"
       clip-path="url(#clipPath2)" />
    <path
       id="path3"
       d="m 0,0 v -6.24 l 0.32,-9.28 0.48,-9.119999 0.8,-8.959999 0.96,-8.800004 1.28,-8.479999 1.44,-8.16 1.76,-8 1.92,-7.839996 2.08,-7.680001 2.24,-7.36 2.56,-7.200005 L 18.719999,-104 21.6,-110.88 l 3.199999,-6.4 3.200001,-6.4 3.52,-6.07999 3.520001,-5.76001 3.68,-5.59999 3.680001,-5.44001 3.519996,-4.96 1.280003,-1.76 2.719997,-3.83999 3.360001,-4.32001 3.200001,-4.16001 3.04,-3.67999 2.880002,-3.36 2.720001,-3.03999 2.719993,-2.56001 2.720002,-2.24 2.720001,-1.76 2.559997,-1.43999 2.720002,-0.96001 2.720001,-0.47999 H 84 l 2.879997,0.31999 2.880005,0.8 2.079994,0.8 3.200005,1.59999 3.360001,1.92002 3.519998,2.39999 3.52,2.88001 3.84,3.36 3.84,4 3.84,4.31999 4,4.8 3.84,5.44 4,5.92 3.68,6.4 3.68,6.88 0.80001,1.28 2.07998,4.32 3.36,7.52 3.20002,8.16 2.87999,8.64 2.88,9.120002 2.39999,9.759995 2.24001,9.920005 1.75999,10.239998 1.28,10.400002 0.96001,10.559997 0.48,10.400002 V -28.32 -22.559999 L 160,-12.48 159.03999,-2.4 157.60001,7.68 155.84,17.92 153.60001,28 150.88,38.240002 147.67999,48.48 144.16,58.880001 l -4,10.399998 -4.48001,10.400001 -3.51999,7.680001 -2.88,6.080001 -2.56,4.799996 -4.64,8.640002 -4.48,7.68 -4.64,7.04 -4.64,6.72001 -4.64,6.39999 -4.959999,6.39999 -5.279999,6.24001 -5.279998,6.08 -5.760002,6.23999 -5.760003,6.08 -6.080001,6.24001 -6.399994,6.24 -6.720005,6.24 -6.879998,6.4 -7.2,6.4 L 36,203.67999 28.32,210.24 l -8,6.72001 -8.32,6.71998 -8.48,6.72 -8.8,7.04001 -9.12,7.04 -9.44,7.04 -4.48,3.36"
       style="fill:none;stroke:#000000;stroke-width:26.4;stroke-linecap:round;stroke-linejoin:round;stroke-miterlimit:10;stroke-dasharray:none;stroke-opacity:1"
       transform="translate(499.04001,569.2933)"
       clip-path="url(#clipPath4)" />
  </g>
</svg>
