<?xml version="1.0" encoding="UTF-8" standalone="no"?>
<!-- Created with Inkscape (http://www.inkscape.org/) -->

<svg
   version="1.1"
   id="svg1"
   width="318.84"
   height="492.53333"
   viewBox="0 0 318.84 492.53333"
   sodipodi:docname="Virgo18.pdf"
   xmlns:inkscape="http://www.inkscape.org/namespaces/inkscape"
   xmlns:sodipodi="http://sodipodi.sourceforge.net/DTD/sodipodi-0.dtd"
   xmlns="http://www.w3.org/2000/svg"
   xmlns:svg="http://www.w3.org/2000/svg">
  <defs
     id="defs1">
    <clipPath
       clipPathUnits="userSpaceOnUse"
       id="clipPath2">
      <path
         d="M 26.4,26.559999 V 1096.16 H 767.03998 V 26.559999 Z"
         transform="translate(-516.96002,-470.79999)"
         clip-rule="evenodd"
         id="path2" />
    </clipPath>
    <clipPath
       clipPathUnits="userSpaceOnUse"
       id="clipPath4">
      <path
         d="M 26.4,26.559999 V 1096.16 H 767.03998 V 26.559999 Z"
         transform="translate(-290.39999,-787.84003)"
         clip-rule="evenodd"
         id="path4" />
    </clipPath>
    <clipPath
       clipPathUnits="userSpaceOnUse"
       id="clipPath6">
      <path
         d="M 26.4,26.559999 V 1096.16 H 767.03998 V 26.559999 Z"
         transform="translate(-380.95999,-606.56)"
         clip-rule="evenodd"
         id="path6" />
    </clipPath>
    <clipPath
       clipPathUnits="userSpaceOnUse"
       id="clipPath8">
      <path
         d="M 26.4,26.559999 V 1096.16 H 767.03998 V 26.559999 Z"
         transform="translate(-3.3333333e-6)"
         clip-rule="evenodd"
         id="path8" />
    </clipPath>
    <clipPath
       clipPathUnits="userSpaceOnUse"
       id="clipPath10">
      <path
         d="M 26.4,26.559999 V 1096.16 H 767.03998 V 26.559999 Z"
         transform="translate(-3.3333333e-6)"
         clip-rule="evenodd"
         id="path10" />
    </clipPath>
  </defs>
  <sodipodi:namedview
     id="namedview1"
     pagecolor="#505050"
     bordercolor="#eeeeee"
     borderopacity="1"
     inkscape:showpageshadow="0"
     inkscape:pageopacity="0"
     inkscape:pagecheckerboard="0"
     inkscape:deskcolor="#505050">
    <inkscape:page
       x="0"
       y="0"
       inkscape:label="1"
       id="page1"
       width="318.84"
       height="492.53333"
       margin="0"
       bleed="0" />
  </sodipodi:namedview>
  <g
     id="g1"
     inkscape:groupmode="layer"
     inkscape:label="1">
    <path
       id="path1"
       d="m 0,0 c 0,-75.059998 -60.849998,-135.92 -135.92,-135.92 -75.07,0 -135.92,60.860002 -135.92,135.92 0,75.059998 60.85,135.92 135.92,135.92 C -60.849998,135.92 0,75.059998 0,0 Z"
       style="fill:none;stroke:#000000;stroke-width:26.4;stroke-linecap:round;stroke-linejoin:round;stroke-miterlimit:10;stroke-dasharray:none;stroke-opacity:1"
       transform="translate(295.50669,157.11993)"
       clip-path="url(#clipPath2)" />
    <path
       id="path3"
       d="m 0,0 4.64,-0.16 4.64,-0.64 4.48,-1.28 4.48,-1.6 4.479999,-2.08 4.480002,-2.56 4.319999,-2.88 4.32,-3.36 4.16,-3.84 4,-4.319999 4,-4.640002 3.84,-5.119999 3.68,-5.439998 3.520001,-5.760002 3.360001,-6.079998 3.36,-6.560002 3.040001,-6.880001 2.879997,-7.039997 2.720002,-7.36 2.559997,-7.680001 2.239998,-8 2.240005,-8.000001 1.919999,-8.48 1.599998,-8.48 1.599999,-8.64 1.279998,-8.79999 0.960007,-8.96001 0.799995,-9.11999 0.64,-9.12001 0.32,-9.12 v -9.28"
       style="fill:none;stroke:#000000;stroke-width:26.4;stroke-linecap:round;stroke-linejoin:round;stroke-miterlimit:10;stroke-dasharray:none;stroke-opacity:1"
       transform="translate(68.946661,474.15997)"
       clip-path="url(#clipPath4)" />
    <path
       id="path5"
       d="m 0,0 0.16,9.28 0.48,9.12 0.48,9.12 0.8,9.119999 1.12,8.959999 1.28,8.800004 1.44,8.639999 1.76,8.479996 L 9.44,80 l 2.08,8 2.24,8 2.56,7.68 2.720001,7.36 2.879999,7.04 3.200001,6.88 3.199999,6.56 3.36,6.08001 3.520001,5.75999 3.68,5.44 3.84,5.12 4,4.64 4.16,4.32 4.16,3.84 4.16,3.36 4.319999,2.88001 4.48,2.55999 4.480003,2.08001 4.479996,1.59999 4.639999,1.28 4.480004,0.63999 4.479996,0.16001"
       style="fill:none;stroke:#000000;stroke-width:26.4;stroke-linecap:round;stroke-linejoin:round;stroke-miterlimit:10;stroke-dasharray:none;stroke-opacity:1"
       transform="translate(159.50666,292.87994)"
       clip-path="url(#clipPath6)" />
    <path
       id="path7"
       d="m 290.39999,787.84003 h 181.28"
       style="fill:none;stroke:#000000;stroke-width:26.4;stroke-linecap:round;stroke-linejoin:round;stroke-miterlimit:10;stroke-dasharray:none;stroke-opacity:1"
       transform="translate(-221.45333,-313.68006)"
       clip-path="url(#clipPath8)" />
    <path
       id="path9"
       d="M 381.12,606.71997 V 334.88"
       style="fill:none;stroke:#000000;stroke-width:26.4;stroke-linecap:round;stroke-linejoin:round;stroke-miterlimit:10;stroke-dasharray:none;stroke-opacity:1"
       transform="translate(-221.45333,-313.68006)"
       clip-path="url(#clipPath10)" />
  </g>
</svg>
