<?xml version="1.0" encoding="UTF-8" standalone="no"?>
<!-- Created with Inkscape (http://www.inkscape.org/) -->

<svg
   version="1.1"
   id="svg1"
   width="615"
   height="500.54666"
   viewBox="0 0 615 500.54666"
   sodipodi:docname="Virgo7.pdf"
   xmlns:inkscape="http://www.inkscape.org/namespaces/inkscape"
   xmlns:sodipodi="http://sodipodi.sourceforge.net/DTD/sodipodi-0.dtd"
   xmlns="http://www.w3.org/2000/svg"
   xmlns:svg="http://www.w3.org/2000/svg">
  <defs
     id="defs1">
    <clipPath
       clipPathUnits="userSpaceOnUse"
       id="clipPath2">
      <path
         d="M 26.4,26.559999 V 1096.16 H 767.03998 V 26.559999 Z"
         transform="translate(-324.32001,-448)"
         clip-rule="evenodd"
         id="path2" />
    </clipPath>
    <clipPath
       clipPathUnits="userSpaceOnUse"
       id="clipPath4">
      <path
         d="M 26.4,26.559999 V 1096.16 H 767.03998 V 26.559999 Z"
         transform="translate(-550.88,-448)"
         clip-rule="evenodd"
         id="path4" />
    </clipPath>
    <clipPath
       clipPathUnits="userSpaceOnUse"
       id="clipPath6">
      <path
         d="M 26.4,26.559999 V 1096.16 H 767.03998 V 26.559999 Z"
         clip-rule="evenodd"
         id="path6" />
    </clipPath>
    <clipPath
       clipPathUnits="userSpaceOnUse"
       id="clipPath8">
      <path
         d="M 26.4,26.559999 V 1096.16 H 767.03998 V 26.559999 Z"
         clip-rule="evenodd"
         id="path8" />
    </clipPath>
    <clipPath
       clipPathUnits="userSpaceOnUse"
       id="clipPath10">
      <path
         d="M 26.4,26.559999 V 1096.16 H 767.03998 V 26.559999 Z"
         clip-rule="evenodd"
         id="path10" />
    </clipPath>
  </defs>
  <sodipodi:namedview
     id="namedview1"
     pagecolor="#505050"
     bordercolor="#eeeeee"
     borderopacity="1"
     inkscape:showpageshadow="0"
     inkscape:pageopacity="0"
     inkscape:pagecheckerboard="0"
     inkscape:deskcolor="#505050">
    <inkscape:page
       x="0"
       y="0"
       inkscape:label="1"
       id="page1"
       width="615"
       height="500.54666"
       margin="0"
       bleed="0" />
  </sodipodi:namedview>
  <g
     id="g1"
     inkscape:groupmode="layer"
     inkscape:label="1">
    <path
       id="path1"
       d="M 0,0 -0.16,-6.72 -0.8,-13.6 -1.76,-20.32 -3.2,-27.040001 -4.96,-33.599998 -7.2,-40.16 -9.92,-46.400002 -12.8,-52.48 -16.16,-58.560001 -20,-64.32 -24,-69.760002 -28.32,-75.040001 -33.119999,-80 l -4.960003,-4.639999 -5.279999,-4.480004 -5.439998,-4 -5.760002,-3.68 L -60.48,-100.16 l -6.240001,-3.04 -6.239998,-2.56 -6.559998,-2.24 -6.560005,-1.92 -6.720001,-1.44 -6.719994,-0.96 -6.880003,-0.64 -6.72,-0.16 -6.88,0.16 -6.88,0.64 -6.72001,0.96 -6.72,1.44 -6.55999,1.92 -6.4,2.24 -6.39999,2.56 -6.08,3.04 -6.08001,3.359997 -5.6,3.68 -5.59999,4 -5.28002,4.480004 L -193.28,-80 l -4.64,4.959999 -4.47999,5.279999 -4,5.440002 -3.68001,5.759999 -3.36,6.080001 -3.04,6.079998 -2.55999,6.240002 -2.24001,6.560002 -1.92,6.559997 -1.44,6.720001 -0.96001,6.72 -0.63999,6.88 -0.32,6.72"
       style="fill:none;stroke:#000000;stroke-width:26.4;stroke-linecap:round;stroke-linejoin:round;stroke-miterlimit:10;stroke-dasharray:none;stroke-opacity:1"
       transform="translate(324.32001,453.34661)"
       clip-path="url(#clipPath2)" />
    <path
       id="path3"
       d="M 0,0 -0.16,-6.72 -0.8,-13.6 -1.76,-20.32 -3.2,-27.040001 -4.96,-33.599998 -7.2,-40.16 -9.92,-46.400002 -12.96,-52.48 -16.32,-58.560001 -20,-64.32 -24,-69.760002 -28.32,-75.040001 -33.119999,-80 l -4.960003,-4.639999 -5.279999,-4.480004 -5.439998,-4 -5.760002,-3.68 L -60.48,-100.16 l -6.240001,-3.04 -6.239998,-2.56 -6.559998,-2.24 -6.560005,-1.92 -6.720001,-1.44 -6.719994,-0.96 -6.880003,-0.64 -6.72,-0.16 -6.88,0.16 -6.88,0.64 -6.72001,0.96 -6.72,1.44 -6.55999,1.92 -6.4,2.24 -6.39999,2.56 -6.08,3.04 -6.08001,3.359997 -5.76001,3.68 -5.43998,4 -5.28002,4.480004 L -193.28,-80 l -4.64,4.959999 -4.47999,5.279999 -4,5.440002 -3.68001,5.759999 -3.36,6.080001 -3.04,6.079998 -2.55999,6.240002 -2.24001,6.560002 -1.92,6.559997 -1.44,6.720001 -0.96001,6.72 -0.63999,6.88 -0.32,6.72"
       style="fill:none;stroke:#000000;stroke-width:26.4;stroke-linecap:round;stroke-linejoin:round;stroke-miterlimit:10;stroke-dasharray:none;stroke-opacity:1"
       transform="translate(550.88,453.34661)"
       clip-path="url(#clipPath4)" />
    <path
       id="path5"
       d="M 324.48001,448.16 V 787.84003"
       style="fill:none;stroke:#000000;stroke-width:26.4;stroke-linecap:round;stroke-linejoin:round;stroke-miterlimit:10;stroke-dasharray:none;stroke-opacity:1"
       transform="translate(0,5.346608)"
       clip-path="url(#clipPath6)" />
    <path
       id="path7"
       d="M 551.03998,448.16 V 787.84003"
       style="fill:none;stroke:#000000;stroke-width:26.4;stroke-linecap:round;stroke-linejoin:round;stroke-miterlimit:10;stroke-dasharray:none;stroke-opacity:1"
       transform="translate(0,5.346608)"
       clip-path="url(#clipPath8)" />
    <path
       id="path9"
       d="m 437.76001,674.56 h 226.56"
       style="fill:none;stroke:#000000;stroke-width:26.4;stroke-linecap:round;stroke-linejoin:round;stroke-miterlimit:10;stroke-dasharray:none;stroke-opacity:1"
       transform="translate(0,5.346608)"
       clip-path="url(#clipPath10)" />
  </g>
</svg>
