<?xml version="1.0" encoding="UTF-8" standalone="no"?>
<!-- Created with Inkscape (http://www.inkscape.org/) -->

<svg
   version="1.1"
   id="svg1"
   width="276.14667"
   height="196.21333"
   viewBox="0 0 276.14667 196.21333"
   sodipodi:docname="AcidumAereum2.pdf"
   xmlns:inkscape="http://www.inkscape.org/namespaces/inkscape"
   xmlns:sodipodi="http://sodipodi.sourceforge.net/DTD/sodipodi-0.dtd"
   xmlns="http://www.w3.org/2000/svg"
   xmlns:svg="http://www.w3.org/2000/svg">
  <defs
     id="defs1">
    <clipPath
       clipPathUnits="userSpaceOnUse"
       id="clipPath2">
      <path
         d="M 0,0.16 V 1122.5601 H 793.59998 V 0.16 Z"
         clip-rule="evenodd"
         id="path2" />
    </clipPath>
    <clipPath
       clipPathUnits="userSpaceOnUse"
       id="clipPath4">
      <path
         d="M 0,0.16 V 1122.5601 H 793.59998 V 0.16 Z"
         clip-rule="evenodd"
         id="path4" />
    </clipPath>
    <clipPath
       clipPathUnits="userSpaceOnUse"
       id="clipPath6">
      <path
         d="M 0,0.16 V 1122.5601 H 793.59998 V 0.16 Z"
         transform="translate(-504.32001,-580)"
         clip-rule="evenodd"
         id="path6" />
    </clipPath>
    <clipPath
       clipPathUnits="userSpaceOnUse"
       id="clipPath8">
      <path
         d="M 0,0.16 V 1122.5601 H 793.59998 V 0.16 Z"
         transform="translate(-353.28,-731.03998)"
         clip-rule="evenodd"
         id="path8" />
    </clipPath>
  </defs>
  <sodipodi:namedview
     id="namedview1"
     pagecolor="#505050"
     bordercolor="#eeeeee"
     borderopacity="1"
     inkscape:showpageshadow="0"
     inkscape:pageopacity="0"
     inkscape:pagecheckerboard="0"
     inkscape:deskcolor="#505050">
    <inkscape:page
       x="0"
       y="0"
       inkscape:label="1"
       id="page1"
       width="276.14667"
       height="196.21333"
       margin="0"
       bleed="0" />
  </sodipodi:namedview>
  <g
     id="g1"
     inkscape:groupmode="layer"
     inkscape:label="1">
    <path
       id="path1"
       d="m 277.76001,655.52002 h 226.56"
       style="fill:none;stroke:#000000;stroke-width:26.4;stroke-linecap:round;stroke-linejoin:round;stroke-miterlimit:10;stroke-dasharray:none;stroke-opacity:1"
       transform="translate(-250.8,-556.61339)"
       clip-path="url(#clipPath2)" />
    <path
       id="path3"
       d="M 315.51999,580 V 731.03998"
       style="fill:none;stroke:#000000;stroke-width:26.4;stroke-linecap:round;stroke-linejoin:round;stroke-miterlimit:10;stroke-dasharray:none;stroke-opacity:1"
       transform="translate(-250.8,-556.61339)"
       clip-path="url(#clipPath4)" />
    <path
       id="path5"
       d="M 0,0 -5.44,0.16 -10.72,0.8 -16.16,1.6 -21.280001,3.04 -26.4,4.64 -31.360001,6.72 -36.32,9.12 -40.799999,12 l -4.48,3.04 -4.16,3.36 -4,3.68 -3.68,4 -3.360001,4.16 -3.04,4.480001 -2.880002,4.48 -2.400001,4.959999 -2.079994,4.959999 -1.600006,5.120003 -1.279999,5.119999 -0.959999,5.440002 -0.64,5.279999 -0.159996,5.439995"
       style="fill:none;stroke:#000000;stroke-width:26.4;stroke-linecap:round;stroke-linejoin:round;stroke-miterlimit:10;stroke-dasharray:none;stroke-opacity:1"
       transform="translate(253.52001,23.386608)"
       clip-path="url(#clipPath6)" />
    <path
       id="path7"
       d="M 0,0 5.28,-0.32 10.72,-0.8 16,-1.76 21.280001,-3.04 26.4,-4.8 31.360001,-6.88 36.16,-9.28 40.799999,-12 l 4.48,-3.04 4.16,-3.519999 3.84,-3.680001 3.68,-3.84 3.520001,-4.16 3.04,-4.480001 2.719998,-4.64 2.400001,-4.799999 2.080002,-4.959999 1.760002,-5.120003 1.279999,-5.279998 0.959999,-5.280003 0.64,-5.439995 0.159996,-5.279999"
       style="fill:none;stroke:#000000;stroke-width:26.4;stroke-linecap:round;stroke-linejoin:round;stroke-miterlimit:10;stroke-dasharray:none;stroke-opacity:1"
       transform="translate(102.48,174.42659)"
       clip-path="url(#clipPath8)" />
  </g>
</svg>
