<?xml version="1.0" encoding="UTF-8" standalone="no"?>
<!-- Created with Inkscape (http://www.inkscape.org/) -->

<svg
   version="1.1"
   id="svg1"
   width="492.26666"
   height="156.17332"
   viewBox="0 0 492.26666 156.17332"
   sodipodi:docname="Acid.pdf"
   xmlns:inkscape="http://www.inkscape.org/namespaces/inkscape"
   xmlns:sodipodi="http://sodipodi.sourceforge.net/DTD/sodipodi-0.dtd"
   xmlns="http://www.w3.org/2000/svg"
   xmlns:svg="http://www.w3.org/2000/svg">
  <defs
     id="defs1">
    <clipPath
       clipPathUnits="userSpaceOnUse"
       id="clipPath2">
      <path
         d="M 0,0.16 V 1122.5601 H 793.59998 V 0.16 Z"
         transform="translate(-471.67999,-582.71997)"
         clip-rule="evenodd"
         id="path2" />
    </clipPath>
    <clipPath
       clipPathUnits="userSpaceOnUse"
       id="clipPath4">
      <path
         d="M 0,0.16 V 1122.5601 H 793.59998 V 0.16 Z"
         clip-rule="evenodd"
         id="path4" />
    </clipPath>
    <clipPath
       clipPathUnits="userSpaceOnUse"
       id="clipPath6">
      <path
         d="M 0,0.16 V 1122.5601 H 793.59998 V 0.16 Z"
         clip-rule="evenodd"
         id="path6" />
    </clipPath>
    <clipPath
       clipPathUnits="userSpaceOnUse"
       id="clipPath8">
      <path
         d="M 0,0.16 V 1122.5601 H 793.59998 V 0.16 Z"
         clip-rule="evenodd"
         id="path8" />
    </clipPath>
    <clipPath
       clipPathUnits="userSpaceOnUse"
       id="clipPath10">
      <path
         d="M 0,0.16 V 1122.5601 H 793.59998 V 0.16 Z"
         clip-rule="evenodd"
         id="path10" />
    </clipPath>
    <clipPath
       clipPathUnits="userSpaceOnUse"
       id="clipPath12">
      <path
         d="M 0,0.16 V 1122.5601 H 793.59998 V 0.16 Z"
         clip-rule="evenodd"
         id="path12" />
    </clipPath>
    <clipPath
       clipPathUnits="userSpaceOnUse"
       id="clipPath14">
      <path
         d="M 0,0.16 V 1122.5601 H 793.59998 V 0.16 Z"
         clip-rule="evenodd"
         id="path14" />
    </clipPath>
  </defs>
  <sodipodi:namedview
     id="namedview1"
     pagecolor="#505050"
     bordercolor="#eeeeee"
     borderopacity="1"
     inkscape:showpageshadow="0"
     inkscape:pageopacity="0"
     inkscape:pagecheckerboard="0"
     inkscape:deskcolor="#505050">
    <inkscape:page
       x="0"
       y="0"
       inkscape:label="1"
       id="page1"
       width="492.26666"
       height="156.17332"
       margin="0"
       bleed="0" />
  </sodipodi:namedview>
  <g
     id="g1"
     inkscape:groupmode="layer"
     inkscape:label="1">
    <path
       id="path1"
       d="m 0,0 -0.32,-5.6 -0.48,-5.6 -0.96,-5.599999 -1.28,-5.440001 -1.76,-5.28 -2.08,-5.279999 -2.4,-4.959999 -2.72,-4.960003 -3.04,-4.64 -3.36,-4.319999 -3.52,-4.16 -4,-3.84 -4.16,-3.520001 -4.320002,-3.200001 -4.639999,-2.879997 -4.799999,-2.559997 -4.799999,-2.080002 -5.119999,-1.760002 -5.120003,-1.440003 -5.280003,-0.959999 -5.279998,-0.639999 -5.439995,-0.159996 -5.280007,0.159996 -5.279998,0.639999 -5.279999,0.959999 -5.119995,1.440003 -5.120004,1.760002 -4.96,2.080002 -4.8,2.559997 -4.48,2.879997 -4.48,3.200001 -4.16,3.520001 -3.84,3.84 -3.68,4.16 -3.36,4.319999 -3.03999,4.64 -2.72001,4.960003 -2.4,4.959999 -1.92,5.279999 -1.76,5.28 -1.28,5.440001 -0.96,5.599999 -0.64,5.6 -0.16001,5.6"
       style="fill:none;stroke:#000000;stroke-width:26.4;stroke-linecap:round;stroke-linejoin:round;stroke-miterlimit:10;stroke-dasharray:none;stroke-opacity:1"
       transform="translate(319.59999,100.86658)"
       clip-path="url(#clipPath2)" />
    <path
       id="path3"
       d="m 321.28,580.96002 h -94.4"
       style="fill:none;stroke:#000000;stroke-width:26.4;stroke-linecap:round;stroke-linejoin:round;stroke-miterlimit:10;stroke-dasharray:none;stroke-opacity:1"
       transform="translate(-152.08,-481.85339)"
       clip-path="url(#clipPath4)" />
    <path
       id="path5"
       d="m 472.32001,580.96002 h 94.39996"
       style="fill:none;stroke:#000000;stroke-width:26.4;stroke-linecap:round;stroke-linejoin:round;stroke-miterlimit:10;stroke-dasharray:none;stroke-opacity:1"
       transform="translate(-152.08,-481.85339)"
       clip-path="url(#clipPath6)" />
    <path
       id="path7"
       d="m 623.35998,580.96002 -56.64001,-37.76001 v 75.51996 l 56.64001,-37.75995 v 0 z"
       style="fill:#000000;fill-opacity:1;fill-rule:evenodd;stroke:none"
       transform="translate(-152.08,-481.85339)"
       clip-path="url(#clipPath8)" />
    <path
       id="path9"
       d="m 623.35998,580.96002 -56.64001,-37.76001 v 75.51996 l 56.64001,-37.75995"
       style="fill:none;stroke:#000000;stroke-width:26.4;stroke-linecap:round;stroke-linejoin:round;stroke-miterlimit:10;stroke-dasharray:none;stroke-opacity:1"
       transform="translate(-152.08,-481.85339)"
       clip-path="url(#clipPath10)" />
    <path
       id="path11"
       d="m 170.24,580.96002 56.64,-37.76001 v 75.51996 l -56.64,-37.75995 v 0 z"
       style="fill:#000000;fill-opacity:1;fill-rule:evenodd;stroke:none"
       transform="translate(-152.08,-481.85339)"
       clip-path="url(#clipPath12)" />
    <path
       id="path13"
       d="m 170.24,580.96002 56.64,-37.76001 v 75.51996 l -56.64,-37.75995"
       style="fill:none;stroke:#000000;stroke-width:26.4;stroke-linecap:round;stroke-linejoin:round;stroke-miterlimit:10;stroke-dasharray:none;stroke-opacity:1"
       transform="translate(-152.08,-481.85339)"
       clip-path="url(#clipPath14)" />
  </g>
</svg>
