<?xml version="1.0" encoding="UTF-8" standalone="no"?>
<!-- Created with Inkscape (http://www.inkscape.org/) -->

<svg
   version="1.1"
   id="svg1"
   width="288.16"
   height="303"
   viewBox="0 0 288.16 303"
   sodipodi:docname="AesViride5.pdf"
   xmlns:inkscape="http://www.inkscape.org/namespaces/inkscape"
   xmlns:sodipodi="http://sodipodi.sourceforge.net/DTD/sodipodi-0.dtd"
   xmlns="http://www.w3.org/2000/svg"
   xmlns:svg="http://www.w3.org/2000/svg">
  <defs
     id="defs1">
    <clipPath
       clipPathUnits="userSpaceOnUse"
       id="clipPath2">
      <path
         d="M 0,0.16 V 1122.5601 H 793.59998 V 0.16 Z"
         transform="translate(-396.79999,-674.56)"
         clip-rule="evenodd"
         id="path2" />
    </clipPath>
    <clipPath
       clipPathUnits="userSpaceOnUse"
       id="clipPath4">
      <path
         d="M 0,0.16 V 1122.5601 H 793.59998 V 0.16 Z"
         transform="translate(3.3333334e-6)"
         clip-rule="evenodd"
         id="path4" />
    </clipPath>
    <clipPath
       clipPathUnits="userSpaceOnUse"
       id="clipPath6">
      <path
         d="M 0,0.16 V 1122.5601 H 793.59998 V 0.16 Z"
         transform="translate(3.3333334e-6)"
         clip-rule="evenodd"
         id="path6" />
    </clipPath>
    <clipPath
       clipPathUnits="userSpaceOnUse"
       id="clipPath8">
      <path
         d="M 0,0.16 V 1122.5601 H 793.59998 V 0.16 Z"
         transform="translate(3.3333334e-6)"
         clip-rule="evenodd"
         id="path8" />
    </clipPath>
    <clipPath
       clipPathUnits="userSpaceOnUse"
       id="clipPath10">
      <path
         d="M 0,0.16 V 1122.5601 H 793.59998 V 0.16 Z"
         transform="translate(3.3333334e-6)"
         clip-rule="evenodd"
         id="path10" />
    </clipPath>
    <clipPath
       clipPathUnits="userSpaceOnUse"
       id="clipPath12">
      <path
         d="M 0,0.16 V 1122.5601 H 793.59998 V 0.16 Z"
         transform="translate(3.3333334e-6)"
         clip-rule="evenodd"
         id="path12" />
    </clipPath>
    <clipPath
       clipPathUnits="userSpaceOnUse"
       id="clipPath14">
      <path
         d="M 0,0.16 V 1122.5601 H 793.59998 V 0.16 Z"
         transform="translate(3.3333334e-6)"
         clip-rule="evenodd"
         id="path14" />
    </clipPath>
    <clipPath
       clipPathUnits="userSpaceOnUse"
       id="clipPath16">
      <path
         d="M 0,0.16 V 1122.5601 H 793.59998 V 0.16 Z"
         transform="translate(3.3333334e-6)"
         clip-rule="evenodd"
         id="path16" />
    </clipPath>
  </defs>
  <sodipodi:namedview
     id="namedview1"
     pagecolor="#505050"
     bordercolor="#eeeeee"
     borderopacity="1"
     inkscape:showpageshadow="0"
     inkscape:pageopacity="0"
     inkscape:pagecheckerboard="0"
     inkscape:deskcolor="#505050">
    <inkscape:page
       x="0"
       y="0"
       inkscape:label="1"
       id="page1"
       width="288.16"
       height="303"
       margin="0"
       bleed="0" />
  </sodipodi:namedview>
  <g
     id="g1"
     inkscape:groupmode="layer"
     inkscape:label="1">
    <path
       id="path1"
       d="M 0,0 6.88,-0.16 13.6,-0.8 20.48,-1.76 27.040001,-3.2 33.599998,-5.12 40.16,-7.36 46.400002,-9.92 52.48,-12.96 l 6.080001,-3.2 5.600003,-3.68 5.599998,-4.16 5.279999,-4.32 L 80,-32.959999 l 4.639999,-4.959999 4.32,-5.280003 4.160004,-5.439998 3.68,-5.760003 L 100.16,-60.32 l 3.04,-6.080002 2.56,-6.239997 2.24,-6.559998 1.92,-6.560005 1.44,-6.559998 1.12,-6.720001 0.64,-6.879999 0.16,-6.72 -0.16,-6.88 -0.48,-6.88 -1.12,-6.71999 -1.28,-6.56 -1.92,-6.72 -2.08,-6.40001 -2.56,-6.23999 -3.04,-6.24001 -3.199998,-5.92 -3.68,-5.76001 -4,-5.59999 -4.32,-5.28 -4.639999,-4.96 -4.960007,-4.64 -5.279998,-4.48 -5.439995,-4 -5.760002,-3.83999 -5.920002,-3.36 -6.079998,-3.04001 -6.240002,-2.72 -6.399998,-2.23999 -6.560001,-1.92 L 21.440001,-224.48 14.72,-225.60001 8,-226.24 1.12,-226.56"
       style="fill:none;stroke:#000000;stroke-width:26.4;stroke-linecap:round;stroke-linejoin:round;stroke-miterlimit:10;stroke-dasharray:none;stroke-opacity:1"
       transform="translate(151.33332,262.10661)"
       clip-path="url(#clipPath2)" />
    <path
       id="path3"
       d="M 396.79999,448 H 321.28"
       style="fill:none;stroke:#000000;stroke-width:26.4;stroke-linecap:round;stroke-linejoin:round;stroke-miterlimit:10;stroke-dasharray:none;stroke-opacity:1"
       transform="translate(-245.46667,-412.45339)"
       clip-path="url(#clipPath4)" />
    <path
       id="path5"
       d="m 396.79999,674.56 h -113.28"
       style="fill:none;stroke:#000000;stroke-width:26.4;stroke-linecap:round;stroke-linejoin:round;stroke-miterlimit:10;stroke-dasharray:none;stroke-opacity:1"
       transform="translate(-245.46667,-412.45339)"
       clip-path="url(#clipPath6)" />
    <path
       id="path7"
       d="M 359.04001,448 V 674.56"
       style="fill:none;stroke:#000000;stroke-width:26.4;stroke-linecap:round;stroke-linejoin:round;stroke-miterlimit:10;stroke-dasharray:none;stroke-opacity:1"
       transform="translate(-245.46667,-412.45339)"
       clip-path="url(#clipPath8)" />
    <path
       id="path9"
       d="m 321.28,561.28003 h 37.76001"
       style="fill:none;stroke:#000000;stroke-width:26.4;stroke-linecap:round;stroke-linejoin:round;stroke-miterlimit:10;stroke-dasharray:none;stroke-opacity:1"
       transform="translate(-245.46667,-412.45339)"
       clip-path="url(#clipPath10)" />
    <path
       id="path11"
       d="m 321.28,542.40002 v 37.75995"
       style="fill:none;stroke:#000000;stroke-width:26.4;stroke-linecap:round;stroke-linejoin:round;stroke-miterlimit:10;stroke-dasharray:none;stroke-opacity:1"
       transform="translate(-245.46667,-412.45339)"
       clip-path="url(#clipPath12)" />
    <path
       id="path13"
       d="M 283.51999,655.67999 264.64001,693.44"
       style="fill:none;stroke:#000000;stroke-width:26.4;stroke-linecap:round;stroke-linejoin:round;stroke-miterlimit:10;stroke-dasharray:none;stroke-opacity:1"
       transform="translate(-245.46667,-412.45339)"
       clip-path="url(#clipPath14)" />
    <path
       id="path15"
       d="m 321.28,429.12 v 37.76"
       style="fill:none;stroke:#000000;stroke-width:26.4;stroke-linecap:round;stroke-linejoin:round;stroke-miterlimit:10;stroke-dasharray:none;stroke-opacity:1"
       transform="translate(-245.46667,-412.45339)"
       clip-path="url(#clipPath16)" />
  </g>
</svg>
