<?xml version="1.0" encoding="UTF-8" standalone="no"?>
<!-- Created with Inkscape (http://www.inkscape.org/) -->

<svg
   version="1.1"
   id="svg1"
   width="350.86667"
   height="309.66666"
   viewBox="0 0 350.86667 309.66666"
   sodipodi:docname="AlumenPlumeum2.pdf"
   xmlns:inkscape="http://www.inkscape.org/namespaces/inkscape"
   xmlns:sodipodi="http://sodipodi.sourceforge.net/DTD/sodipodi-0.dtd"
   xmlns="http://www.w3.org/2000/svg"
   xmlns:svg="http://www.w3.org/2000/svg">
  <defs
     id="defs1">
    <clipPath
       clipPathUnits="userSpaceOnUse"
       id="clipPath2">
      <path
         d="M 0,0.16 V 1122.5601 H 793.59998 V 0.16 Z"
         transform="translate(-396.32001,-484.32001)"
         clip-rule="evenodd"
         id="path2" />
    </clipPath>
    <clipPath
       clipPathUnits="userSpaceOnUse"
       id="clipPath4">
      <path
         d="M 0,0.16 V 1122.5601 H 793.59998 V 0.16 Z"
         transform="translate(-434.07999,-597.59997)"
         clip-rule="evenodd"
         id="path4" />
    </clipPath>
    <clipPath
       clipPathUnits="userSpaceOnUse"
       id="clipPath6">
      <path
         d="M 0,0.16 V 1122.5601 H 793.59998 V 0.16 Z"
         transform="translate(3.3333334e-6)"
         clip-rule="evenodd"
         id="path6" />
    </clipPath>
    <clipPath
       clipPathUnits="userSpaceOnUse"
       id="clipPath8">
      <path
         d="M 0,0.16 V 1122.5601 H 793.59998 V 0.16 Z"
         transform="translate(3.3333334e-6)"
         clip-rule="evenodd"
         id="path8" />
    </clipPath>
    <clipPath
       clipPathUnits="userSpaceOnUse"
       id="clipPath10">
      <path
         d="M 0,0.16 V 1122.5601 H 793.59998 V 0.16 Z"
         transform="translate(3.3333334e-6)"
         clip-rule="evenodd"
         id="path10" />
    </clipPath>
    <clipPath
       clipPathUnits="userSpaceOnUse"
       id="clipPath12">
      <path
         d="M 0,0.16 V 1122.5601 H 793.59998 V 0.16 Z"
         transform="translate(-207.52,-673.11999)"
         clip-rule="evenodd"
         id="path12" />
    </clipPath>
    <clipPath
       clipPathUnits="userSpaceOnUse"
       id="clipPath14">
      <path
         d="M 0,0.16 V 1122.5601 H 793.59998 V 0.16 Z"
         transform="translate(-434.07999,-673.11999)"
         clip-rule="evenodd"
         id="path14" />
    </clipPath>
  </defs>
  <sodipodi:namedview
     id="namedview1"
     pagecolor="#505050"
     bordercolor="#eeeeee"
     borderopacity="1"
     inkscape:showpageshadow="0"
     inkscape:pageopacity="0"
     inkscape:pagecheckerboard="0"
     inkscape:deskcolor="#505050">
    <inkscape:page
       x="0"
       y="0"
       inkscape:label="1"
       id="page1"
       width="350.86667"
       height="309.66666"
       margin="0"
       bleed="0" />
  </sodipodi:namedview>
  <g
     id="g1"
     inkscape:groupmode="layer"
     inkscape:label="1">
    <path
       id="path1"
       d="m 0,0 c 0,-20.85 -16.9,-37.759998 -37.759998,-37.759998 -20.860001,0 -37.759999,16.909998 -37.759999,37.759998 0,20.85 16.899998,37.759998 37.759999,37.759998 C -16.9,37.759998 0,20.85 0,0 Z"
       style="fill:none;stroke:#000000;stroke-width:26.4;stroke-linecap:round;stroke-linejoin:round;stroke-miterlimit:10;stroke-dasharray:none;stroke-opacity:1"
       transform="translate(210.89334,61.186615)"
       clip-path="url(#clipPath2)" />
    <path
       id="path3"
       d="M 0,0 -0.16,-5.28 -0.8,-10.72 -1.76,-16 -3.04,-21.280001 -4.8,-26.4 -6.88,-31.360001 -9.28,-36.16 -12,-40.799999 l -3.04,-4.32 -3.519999,-4.32 -3.520001,-3.84 -4,-3.68 -4.16,-3.360001 -4.480001,-3.2 -4.64,-2.719998 -4.799999,-2.400001 -4.959999,-2.080002 -5.120003,-1.599999 -5.279998,-1.440002 -5.280003,-0.959999 -5.439995,-0.479996 -5.279999,-0.32 -5.440002,0.32 -5.279999,0.479996 -5.440002,0.959999 -5.120003,1.440002 -5.119997,1.599999 -4.96,2.080002 -4.8,2.400001 -4.64,2.719998 -4.48,3.2 -4.16,3.360001 -4.00001,3.68 -3.67999,3.84 -3.36,4.32 -3.03999,4.32 -2.72,4.639999 -2.56002,4.799999 L -146.24,-26.4 -148,-21.280001 -149.28,-16 l -0.96,5.28 -0.64,5.44 -0.15999,5.28"
       style="fill:none;stroke:#000000;stroke-width:26.4;stroke-linecap:round;stroke-linejoin:round;stroke-miterlimit:10;stroke-dasharray:none;stroke-opacity:1"
       transform="translate(248.65332,174.46658)"
       clip-path="url(#clipPath4)" />
    <path
       id="path5"
       d="M 283.04001,597.59998 V 673.12"
       style="fill:none;stroke:#000000;stroke-width:26.4;stroke-linecap:round;stroke-linejoin:round;stroke-miterlimit:10;stroke-dasharray:none;stroke-opacity:1"
       transform="translate(-185.42667,-423.13339)"
       clip-path="url(#clipPath6)" />
    <path
       id="path7"
       d="M 434.07999,597.59998 V 673.12"
       style="fill:none;stroke:#000000;stroke-width:26.4;stroke-linecap:round;stroke-linejoin:round;stroke-miterlimit:10;stroke-dasharray:none;stroke-opacity:1"
       transform="translate(-185.42667,-423.13339)"
       clip-path="url(#clipPath8)" />
    <path
       id="path9"
       d="M 358.56,522.08002 V 710.88"
       style="fill:none;stroke:#000000;stroke-width:26.4;stroke-linecap:round;stroke-linejoin:round;stroke-miterlimit:10;stroke-dasharray:none;stroke-opacity:1"
       transform="translate(-185.42667,-423.13339)"
       clip-path="url(#clipPath10)" />
    <path
       id="path11"
       d="M 0,0 0.16,3.52 0.64,7.04 1.44,10.4 2.56,13.76 4,16.959999 5.6,20 7.68,22.879999 9.76,25.440001 12.32,28 l 2.72,2.24 2.88,1.92 3.039999,1.759998 3.200001,1.280003 3.200001,1.119999 3.359998,0.799999 3.520003,0.479999 3.519996,0.16 3.520001,-0.16 3.36,-0.479999 L 48,36.32 l 3.360001,-1.119999 3.2,-1.280003 L 57.599998,32.16 60.48,30.24 63.200001,28 65.599998,25.440001 67.839996,22.879999 69.760002,20 71.519997,16.959999 72.959999,13.76 74.080002,10.4 74.879997,7.04 75.360001,3.52 75.519997,0"
       style="fill:none;stroke:#000000;stroke-width:26.4;stroke-linecap:round;stroke-linejoin:round;stroke-miterlimit:10;stroke-dasharray:none;stroke-opacity:1"
       transform="translate(22.093337,249.9866)"
       clip-path="url(#clipPath12)" />
    <path
       id="path13"
       d="m 0,0 0.16,3.52 0.48,3.52 0.8,3.36 1.12,3.36 1.28,3.039999 L 5.6,19.84 7.52,22.719999 9.76,25.440001 12.32,28 l 2.56,2.24 2.88,1.92 3.039999,1.599998 L 24,35.200001 27.360001,36.32 l 3.359998,0.799999 3.520003,0.479999 3.359996,0.16 3.520001,-0.16 3.52,-0.479999 L 48,36.32 51.200001,35.360001 54.400002,33.919998 57.439999,32.16 60.32,30.24 63.040001,28 65.599998,25.6 67.839996,22.879999 69.760002,20 71.519997,16.959999 72.959999,13.76 74.080002,10.56 74.879997,7.2 75.360001,3.68 75.519997,0.16"
       style="fill:none;stroke:#000000;stroke-width:26.4;stroke-linecap:round;stroke-linejoin:round;stroke-miterlimit:10;stroke-dasharray:none;stroke-opacity:1"
       transform="translate(248.65332,249.9866)"
       clip-path="url(#clipPath14)" />
  </g>
</svg>
