<?xml version="1.0" encoding="UTF-8" standalone="no"?>
<!-- Created with Inkscape (http://www.inkscape.org/) -->

<svg
   version="1.1"
   id="svg1"
   width="357.53333"
   height="282.97333"
   viewBox="0 0 357.53333 282.97333"
   sodipodi:docname="AlumenPlumeum3.pdf"
   xmlns:inkscape="http://www.inkscape.org/namespaces/inkscape"
   xmlns:sodipodi="http://sodipodi.sourceforge.net/DTD/sodipodi-0.dtd"
   xmlns="http://www.w3.org/2000/svg"
   xmlns:svg="http://www.w3.org/2000/svg">
  <defs
     id="defs1">
    <clipPath
       clipPathUnits="userSpaceOnUse"
       id="clipPath2">
      <path
         d="M 0,0.16 V 1122.5601 H 793.59998 V 0.16 Z"
         transform="translate(-509.6,-465.44)"
         clip-rule="evenodd"
         id="path2" />
    </clipPath>
    <clipPath
       clipPathUnits="userSpaceOnUse"
       id="clipPath4">
      <path
         d="M 0,0.16 V 1122.5601 H 793.59998 V 0.16 Z"
         transform="translate(-207.52,-692)"
         clip-rule="evenodd"
         id="path4" />
    </clipPath>
    <clipPath
       clipPathUnits="userSpaceOnUse"
       id="clipPath6">
      <path
         d="M 0,0.16 V 1122.5601 H 793.59998 V 0.16 Z"
         transform="translate(-3.3333333e-6)"
         clip-rule="evenodd"
         id="path6" />
    </clipPath>
    <clipPath
       clipPathUnits="userSpaceOnUse"
       id="clipPath8">
      <path
         d="M 0,0.16 V 1122.5601 H 793.59998 V 0.16 Z"
         transform="translate(-3.3333333e-6)"
         clip-rule="evenodd"
         id="path8" />
    </clipPath>
    <clipPath
       clipPathUnits="userSpaceOnUse"
       id="clipPath10">
      <path
         d="M 0,0.16 V 1122.5601 H 793.59998 V 0.16 Z"
         transform="translate(-3.3333333e-6)"
         clip-rule="evenodd"
         id="path10" />
    </clipPath>
  </defs>
  <sodipodi:namedview
     id="namedview1"
     pagecolor="#505050"
     bordercolor="#eeeeee"
     borderopacity="1"
     inkscape:showpageshadow="0"
     inkscape:pageopacity="0"
     inkscape:pagecheckerboard="0"
     inkscape:deskcolor="#505050">
    <inkscape:page
       x="0"
       y="0"
       inkscape:label="1"
       id="page1"
       width="357.53333"
       height="282.97333"
       margin="0"
       bleed="0" />
  </sodipodi:namedview>
  <g
     id="g1"
     inkscape:groupmode="layer"
     inkscape:label="1">
    <path
       id="path1"
       d="m 0,0 -6.88,0.32 -6.88,0.64 -6.72,0.96 -6.720001,1.44 -6.559997,1.76 -6.400002,2.24 -6.400001,2.72 -6.079998,3.04 -6.080002,3.36 -5.599999,3.68 -5.599998,4 -5.279999,4.32 -4.960007,4.799999 -4.639999,4.960003 -4.479996,5.279998 -4,5.439999 -3.68,5.760002 -3.360001,5.919998 -3.04,6.239998 -2.56,6.240006 -2.24,6.559997 -1.92,6.559998 -1.44,6.720001 -0.96,6.720001 -0.64,6.88 -0.16,6.72 0.16,6.88 0.64,6.88 0.96,6.71999 1.44,6.72001 1.92,6.55999 2.24,6.40001 2.56,6.4 3.04,6.08 3.360001,6.08 3.68,5.75999 4,5.44001 4.479996,5.28 4.639999,4.96 4.960007,4.64 5.279999,4.48 5.599998,4 5.599999,3.68 6.080002,3.36001 6.079998,3.03999 6.400001,2.56 6.400002,2.24 6.559997,1.92 6.720001,1.44 6.72,0.95999 6.88,0.64 L 0,226.56"
       style="fill:none;stroke:#000000;stroke-width:26.4;stroke-linecap:round;stroke-linejoin:round;stroke-miterlimit:10;stroke-dasharray:none;stroke-opacity:1"
       transform="translate(329.50667,28.959943)"
       clip-path="url(#clipPath2)" />
    <path
       id="path3"
       d="m 0,0 6.88,-0.16 6.72,-0.64 6.72,-0.96 6.720001,-1.44 6.559997,-1.92 6.560002,-2.24 6.240002,-2.56 6.239997,-3.04 5.920002,-3.36 L 64.32,-20 69.760002,-24 75.040001,-28.48 80,-33.119999 l 4.800003,-4.960003 4.32,-5.279999 4,-5.439998 3.839996,-5.760002 3.360001,-6.079998 2.88,-6.080002 2.72,-6.400002 2.24,-6.399994 1.76,-6.560005 1.44,-6.720001 1.12,-6.719994 0.64,-6.880003 0.16,-6.88 -0.16,-6.72 -0.64,-6.88 -1.12,-6.72001 -1.44,-6.72 -1.76,-6.55999 -2.24,-6.56 -2.72,-6.23999 -2.88,-6.24001 -3.360001,-5.92 -3.839996,-5.76001 -4,-5.43998 -4.32,-5.28002 L 80,-193.28 l -4.959999,-4.8 -5.279999,-4.31999 -5.440002,-4 -5.759999,-3.68001 -5.920002,-3.36 -6.239997,-3.04 L 40.16,-219.2 33.599998,-221.44 27.040001,-223.2 20.32,-224.64 13.6,-225.60001 6.88,-226.24 0,-226.56"
       style="fill:none;stroke:#000000;stroke-width:26.4;stroke-linecap:round;stroke-linejoin:round;stroke-miterlimit:10;stroke-dasharray:none;stroke-opacity:1"
       transform="translate(27.426671,255.51994)"
       clip-path="url(#clipPath4)" />
    <path
       id="path5"
       d="M 358.56,465.44 V 692"
       style="fill:none;stroke:#000000;stroke-width:26.4;stroke-linecap:round;stroke-linejoin:round;stroke-miterlimit:10;stroke-dasharray:none;stroke-opacity:1"
       transform="translate(-180.09333,-436.48006)"
       clip-path="url(#clipPath6)" />
    <path
       id="path7"
       d="M 207.52,540.96002 H 509.60001"
       style="fill:none;stroke:#000000;stroke-width:26.4;stroke-linecap:round;stroke-linejoin:round;stroke-miterlimit:10;stroke-dasharray:none;stroke-opacity:1"
       transform="translate(-180.09333,-436.48006)"
       clip-path="url(#clipPath8)" />
    <path
       id="path9"
       d="M 207.52,616.47998 H 509.60001"
       style="fill:none;stroke:#000000;stroke-width:26.4;stroke-linecap:round;stroke-linejoin:round;stroke-miterlimit:10;stroke-dasharray:none;stroke-opacity:1"
       transform="translate(-180.09333,-436.48006)"
       clip-path="url(#clipPath10)" />
  </g>
</svg>
