<?xml version="1.0" encoding="UTF-8" standalone="no"?>
<!-- Created with Inkscape (http://www.inkscape.org/) -->

<svg
   version="1.1"
   id="svg1"
   width="269.48001"
   height="336.35999"
   viewBox="0 0 269.48001 336.35999"
   sodipodi:docname="AlumenSaccharinum.pdf"
   xmlns:inkscape="http://www.inkscape.org/namespaces/inkscape"
   xmlns:sodipodi="http://sodipodi.sourceforge.net/DTD/sodipodi-0.dtd"
   xmlns="http://www.w3.org/2000/svg"
   xmlns:svg="http://www.w3.org/2000/svg">
  <defs
     id="defs1">
    <clipPath
       clipPathUnits="userSpaceOnUse"
       id="clipPath2">
      <path
         d="M 0,0.16 V 1122.5601 H 793.59998 V 0.16 Z"
         transform="translate(-396.32001,-408.79999)"
         clip-rule="evenodd"
         id="path2" />
    </clipPath>
    <clipPath
       clipPathUnits="userSpaceOnUse"
       id="clipPath4">
      <path
         d="M 0,0.16 V 1122.5601 H 793.59998 V 0.16 Z"
         transform="translate(-322.72,-471.35999)"
         clip-rule="evenodd"
         id="path4" />
    </clipPath>
    <clipPath
       clipPathUnits="userSpaceOnUse"
       id="clipPath6">
      <path
         d="M 0,0.16 V 1122.5601 H 793.59998 V 0.16 Z"
         clip-rule="evenodd"
         id="path6" />
    </clipPath>
    <clipPath
       clipPathUnits="userSpaceOnUse"
       id="clipPath8">
      <path
         d="M 0,0.16 V 1122.5601 H 793.59998 V 0.16 Z"
         clip-rule="evenodd"
         id="path8" />
    </clipPath>
  </defs>
  <sodipodi:namedview
     id="namedview1"
     pagecolor="#505050"
     bordercolor="#eeeeee"
     borderopacity="1"
     inkscape:showpageshadow="0"
     inkscape:pageopacity="0"
     inkscape:pagecheckerboard="0"
     inkscape:deskcolor="#505050">
    <inkscape:page
       x="0"
       y="0"
       inkscape:label="1"
       id="page1"
       width="269.48001"
       height="336.35999"
       margin="0"
       bleed="0" />
  </sodipodi:namedview>
  <g
     id="g1"
     inkscape:groupmode="layer"
     inkscape:label="1">
    <path
       id="path1"
       d="m 0,0 c 0,-5.21 -16.9,-9.44 -37.759998,-9.44 -20.860001,0 -37.759999,4.23 -37.759999,9.44 0,5.21 16.899998,9.44 37.759999,9.44 C -16.9,9.44 0,5.21 0,0 Z"
       style="fill:none;stroke:#000000;stroke-width:26.4;stroke-linecap:round;stroke-linejoin:round;stroke-miterlimit:10;stroke-dasharray:none;stroke-opacity:1"
       transform="translate(396.32001,442.17326)"
       clip-path="url(#clipPath2)" />
    <path
       id="path3"
       d="m 0,0 -6.4,2.4 -6.4,2.72 -6.079999,3.04 -5.92,3.52 -5.600001,3.84 -5.44,4.16 -5.279999,4.64 -4.799999,4.800001 -4.640003,5.120001 -4.32,5.279998 -4,5.599999 -3.520001,5.920002 -3.199996,6.079998 -2.880005,6.240002 -2.559998,6.400001 L -73.120003,76.32 -74.720001,82.879997 -76,89.599998 -76.959999,96.480003 -77.440002,103.36 v 6.88 l 0.319999,6.88 0.800003,6.72 1.279999,6.72 1.599999,6.72 1.920005,6.56 2.559998,6.4 2.720001,6.4 3.199997,6.08 3.520001,5.92 3.84,5.6 4.16,5.43999 4.639999,5.12001 4.799999,4.95999 5.120003,4.48001 5.439999,4.32 5.6,3.83999 5.92,3.52001 6.08,3.19999 6.24,2.88001 6.4,2.39999 6.56,2.08001 6.72,1.6 6.719999,1.28 6.720002,0.8 6.879999,0.48 h 6.880001 l 6.880001,-0.48 6.879997,-0.8 6.720001,-1.28 6.720002,-1.6 6.559997,-2.08001 L 79.360001,212 85.599998,209.11999 91.68,205.92 97.440002,202.39999 103.2,198.56 l 5.28,-4.32 5.12,-4.48001 4.96,-4.95999 4.48,-5.12001 4.16,-5.43999 4,-5.6 3.52,-5.92 3.2,-6.08 2.72,-6.4 2.39999,-6.4 2.08,-6.56 1.60001,-6.72 1.12,-6.72 0.8,-6.72 0.47999,-6.88 -0.15998,-6.88 -0.48001,-6.879997 -0.80001,-6.880005 -1.28,-6.720001 L 144.64,76.32 l -2.08,-6.559998 -2.4,-6.400001 -2.88,-6.240002 -3.2,-6.079998 -3.68001,-5.920002 L 126.56,39.52 122.24,34.240002 117.6,29.120001 112.64,24.32 107.52,19.68 102.08,15.52 96.32,11.68 90.400002,8.16 84.32,5.12 78.080002,2.4 71.68,0"
       style="fill:none;stroke:#000000;stroke-width:26.4;stroke-linecap:round;stroke-linejoin:round;stroke-miterlimit:10;stroke-dasharray:none;stroke-opacity:1"
       transform="translate(322.72,504.73326)"
       clip-path="url(#clipPath4)" />
    <path
       id="path5"
       d="M 320.79999,408.79999 V 465.44"
       style="fill:none;stroke:#000000;stroke-width:26.4;stroke-linecap:round;stroke-linejoin:round;stroke-miterlimit:10;stroke-dasharray:none;stroke-opacity:1"
       transform="translate(0,33.373275)"
       clip-path="url(#clipPath6)" />
    <path
       id="path7"
       d="M 396.32001,408.79999 V 473.28"
       style="fill:none;stroke:#000000;stroke-width:26.4;stroke-linecap:round;stroke-linejoin:round;stroke-miterlimit:10;stroke-dasharray:none;stroke-opacity:1"
       transform="translate(0,33.373275)"
       clip-path="url(#clipPath8)" />
  </g>
</svg>
