<?xml version="1.0" encoding="UTF-8" standalone="no"?>
<!-- Created with Inkscape (http://www.inkscape.org/) -->

<svg
   version="1.1"
   id="svg1"
   width="353.51999"
   height="274.97333"
   viewBox="0 0 353.51999 274.97333"
   sodipodi:docname="Alumn16.pdf"
   xmlns:inkscape="http://www.inkscape.org/namespaces/inkscape"
   xmlns:sodipodi="http://sodipodi.sourceforge.net/DTD/sodipodi-0.dtd"
   xmlns="http://www.w3.org/2000/svg"
   xmlns:svg="http://www.w3.org/2000/svg">
  <defs
     id="defs1">
    <clipPath
       clipPathUnits="userSpaceOnUse"
       id="clipPath2">
      <path
         d="M 0,0.16 V 1122.5601 H 793.59998 V 0.16 Z"
         transform="translate(-238.88,-677.12)"
         clip-rule="evenodd"
         id="path2" />
    </clipPath>
    <clipPath
       clipPathUnits="userSpaceOnUse"
       id="clipPath4">
      <path
         d="M 0,0.16 V 1122.5601 H 793.59998 V 0.16 Z"
         transform="translate(-543.20001,-482.88001)"
         clip-rule="evenodd"
         id="path4" />
    </clipPath>
    <clipPath
       clipPathUnits="userSpaceOnUse"
       id="clipPath6">
      <path
         d="M 0,0.16 V 1122.5601 H 793.59998 V 0.16 Z"
         clip-rule="evenodd"
         id="path6" />
    </clipPath>
  </defs>
  <sodipodi:namedview
     id="namedview1"
     pagecolor="#505050"
     bordercolor="#eeeeee"
     borderopacity="1"
     inkscape:showpageshadow="0"
     inkscape:pageopacity="0"
     inkscape:pagecheckerboard="0"
     inkscape:deskcolor="#505050">
    <inkscape:page
       x="0"
       y="0"
       inkscape:label="1"
       id="page1"
       width="353.51999"
       height="274.97333"
       margin="0"
       bleed="0" />
  </sodipodi:namedview>
  <g
     id="g1"
     inkscape:groupmode="layer"
     inkscape:label="1">
    <path
       id="path1"
       d="m 0,0 4,3.36 4,2.88 4.32,2.56 4.319999,2.24 4.32,1.92 4.480002,1.28 4.479999,1.12 4.480002,0.48 4.639999,0.32 4.479999,-0.32 4.64,-0.64 4.479999,-0.96 4.48,-1.44 4.32,-1.92 4.320003,-2.24 4.159996,-2.56 4.160004,-3.04 4,-3.36 3.68,-3.68 3.68,-4.16 3.519997,-4.32 3.360001,-4.640001 3.040001,-4.959999 3.040001,-5.280001 2.559998,-5.599998 2.56,-5.760002 2.24,-5.919998 1.92,-6.080002 1.76,-6.399998 1.44,-6.400001 1.28,-6.560002 0.96,-6.720001 0.64,-6.719994 0.48,-6.880005 0.16,-6.720001 -0.16,-6.879997 -0.48,-6.72 -0.64,-6.88 -0.96,-6.56 -1.28,-6.72 -1.44,-6.4 -1.76,-6.24 -1.92,-6.23999 -2.24,-5.92 -2.56,-5.76001 -2.559998,-5.44 -3.040001,-5.28 -3.040001,-4.95999 -3.360001,-4.80001 -3.519997,-4.32 -3.68,-4 -3.68,-3.84 -4,-3.36 -4.160004,-2.88001 -4.159996,-2.71998 -4.320003,-2.24001 -4.32,-1.75999 -4.48,-1.44001 -4.479999,-1.12001 -4.64,-0.63999 -4.479999,-0.15999 -4.639999,0.15999 -4.480002,0.63999 -4.479999,0.96001 -4.480002,1.44 -4.32,1.76 -4.319999,2.24 -4.32,2.56 -4,3.03999 -4,3.36001"
       style="fill:none;stroke:#000000;stroke-width:26.4;stroke-linecap:round;stroke-linejoin:round;stroke-miterlimit:10;stroke-dasharray:none;stroke-opacity:1"
       transform="translate(238.88,641.07994)"
       clip-path="url(#clipPath2)" />
    <path
       id="path3"
       d="m 0,0 -4,-3.36 -4.16,-3.04 -4.16,-2.56 -4.319999,-2.24 -4.480002,-1.76 -4.479999,-1.44 -4.48,-0.96 -4.480001,-0.64 -4.48,-0.16 -4.639999,0.16 -4.48,0.64 -4.479999,1.12 -4.48,1.44 -4.479999,1.76 -4.32,2.24 -4.160004,2.72 -4,2.88 -4,3.36 -3.839996,3.84 -3.68,4 -3.520005,4.32 -3.199997,4.800001 -3.199997,4.959999 -2.880005,5.280001 -2.719998,5.439998 -2.4,5.760002 -2.24,5.919999 -2.08,6.240001 -1.76,6.239998 -1.44,6.400002 -1.28,6.720001 -0.96,6.559997 -0.64,6.879998 -0.32,6.720001 -0.16,6.880005 0.16,6.719997 0.32,6.88 0.64,6.72 0.96,6.72 1.28,6.56 1.44,6.39999 1.76,6.40001 2.08,6.08001 2.24,5.91999 2.4,5.76 2.719998,5.6 2.880005,5.28 3.199997,4.95999 3.199997,4.64 3.520005,4.32001 3.68,4.16 3.839996,3.68 4,3.36 4,3.04001 4.160004,2.55999 4.32,2.23999 4.479999,1.92 4.48,1.44001 4.479999,0.96 4.48,0.64 4.639999,0.31999 4.48,-0.31999 4.480001,-0.47999 4.48,-1.12001 4.479999,-1.28 4.480002,-1.92 L -12.32,203.03999 -8.16,200.48 -4,197.60001 0,194.24"
       style="fill:none;stroke:#000000;stroke-width:26.4;stroke-linecap:round;stroke-linejoin:round;stroke-miterlimit:10;stroke-dasharray:none;stroke-opacity:1"
       transform="translate(543.20001,446.83995)"
       clip-path="url(#clipPath4)" />
    <path
       id="path5"
       d="M 240,580 H 542.08002"
       style="fill:none;stroke:#000000;stroke-width:26.4;stroke-linecap:round;stroke-linejoin:round;stroke-miterlimit:10;stroke-dasharray:none;stroke-opacity:1"
       transform="translate(0,-36.040059)"
       clip-path="url(#clipPath6)" />
  </g>
</svg>
