<?xml version="1.0" encoding="UTF-8" standalone="no"?>
<!-- Created with Inkscape (http://www.inkscape.org/) -->

<svg
   version="1.1"
   id="svg1"
   width="348.18668"
   height="345.70667"
   viewBox="0 0 348.18668 345.70667"
   sodipodi:docname="Alumn7.pdf"
   xmlns:inkscape="http://www.inkscape.org/namespaces/inkscape"
   xmlns:sodipodi="http://sodipodi.sourceforge.net/DTD/sodipodi-0.dtd"
   xmlns="http://www.w3.org/2000/svg"
   xmlns:svg="http://www.w3.org/2000/svg">
  <defs
     id="defs1">
    <clipPath
       clipPathUnits="userSpaceOnUse"
       id="clipPath2">
      <path
         d="M 0,0.16 V 1122.5601 H 793.59998 V 0.16 Z"
         transform="translate(-547.84003,-561.28003)"
         clip-rule="evenodd"
         id="path2" />
    </clipPath>
    <clipPath
       clipPathUnits="userSpaceOnUse"
       id="clipPath4">
      <path
         d="M 0,0.16 V 1122.5601 H 793.59998 V 0.16 Z"
         transform="translate(-396.79999,-504.64002)"
         clip-rule="evenodd"
         id="path4" />
    </clipPath>
  </defs>
  <sodipodi:namedview
     id="namedview1"
     pagecolor="#505050"
     bordercolor="#eeeeee"
     borderopacity="1"
     inkscape:showpageshadow="0"
     inkscape:pageopacity="0"
     inkscape:pagecheckerboard="0"
     inkscape:deskcolor="#505050">
    <inkscape:page
       x="0"
       y="0"
       inkscape:label="1"
       id="page1"
       width="348.18668"
       height="345.70667"
       margin="0"
       bleed="0" />
  </sodipodi:namedview>
  <g
     id="g1"
     inkscape:groupmode="layer"
     inkscape:label="1">
    <path
       id="path1"
       d="m 0,0 c 0,-83.410004 -67.620003,-151.03999 -151.03999,-151.03999 -83.42002,0 -151.04,67.629986 -151.04,151.03999 0,83.410004 67.61998,151.03999 151.04,151.03999 C -67.620003,151.03999 0,83.410004 0,0 Z"
       style="fill:none;stroke:#000000;stroke-width:26.4;stroke-linecap:round;stroke-linejoin:round;stroke-miterlimit:10;stroke-dasharray:none;stroke-opacity:1"
       transform="translate(325.05336,175.51997)"
       clip-path="url(#clipPath2)" />
    <path
       id="path3"
       d="M 0,0 -4.32,0.16 -8.8,0.8 -13.12,1.6 -17.440001,2.72 -21.6,4.32 l -4,1.92 -4,2.08 -3.679999,2.56 -3.52,2.72 L -40,16.639999 -43.040001,19.84 l -2.719997,3.520001 -2.560002,3.68 -2.080002,3.839998 -1.919998,4.160002 -1.439998,4.16 -1.280003,4.16 L -55.84,47.84 l -0.64,4.32 -0.159999,4.479999 0.159999,4.48 0.64,4.479999 0.799999,4.32 1.280003,4.32 1.439998,4.160004 1.919998,4 2.080002,3.839996 2.560002,3.68 2.719997,3.520004 L -40,96.639999 -36.799999,99.68 l 3.52,2.72 3.679999,2.56 4,2.24 4,1.76 4.159999,1.6 4.320001,1.12 4.32,0.96 4.48,0.48 4.32,0.16"
       style="fill:none;stroke:#000000;stroke-width:26.4;stroke-linecap:round;stroke-linejoin:round;stroke-miterlimit:10;stroke-dasharray:none;stroke-opacity:1"
       transform="translate(174.01332,118.87996)"
       clip-path="url(#clipPath4)" />
  </g>
</svg>
