<?xml version="1.0" encoding="UTF-8" standalone="no"?>
<!-- Created with Inkscape (http://www.inkscape.org/) -->

<svg
   version="1.1"
   id="svg1"
   width="234.78667"
   height="293.65332"
   viewBox="0 0 234.78667 293.65332"
   sodipodi:docname="AlumenPlumeum13.pdf"
   xmlns:inkscape="http://www.inkscape.org/namespaces/inkscape"
   xmlns:sodipodi="http://sodipodi.sourceforge.net/DTD/sodipodi-0.dtd"
   xmlns="http://www.w3.org/2000/svg"
   xmlns:svg="http://www.w3.org/2000/svg">
  <defs
     id="defs1">
    <clipPath
       clipPathUnits="userSpaceOnUse"
       id="clipPath2">
      <path
         d="M 0,0.16 V 1122.5601 H 793.59998 V 0.16 Z"
         transform="translate(-358.56,-616.47998)"
         clip-rule="evenodd"
         id="path2" />
    </clipPath>
    <clipPath
       clipPathUnits="userSpaceOnUse"
       id="clipPath4">
      <path
         d="M 0,0.16 V 1122.5601 H 793.59998 V 0.16 Z"
         clip-rule="evenodd"
         id="path4" />
    </clipPath>
    <clipPath
       clipPathUnits="userSpaceOnUse"
       id="clipPath6">
      <path
         d="M 0,0.16 V 1122.5601 H 793.59998 V 0.16 Z"
         clip-rule="evenodd"
         id="path6" />
    </clipPath>
    <clipPath
       clipPathUnits="userSpaceOnUse"
       id="clipPath8">
      <path
         d="M 0,0.16 V 1122.5601 H 793.59998 V 0.16 Z"
         clip-rule="evenodd"
         id="path8" />
    </clipPath>
    <clipPath
       clipPathUnits="userSpaceOnUse"
       id="clipPath10">
      <path
         d="M 0,0.16 V 1122.5601 H 793.59998 V 0.16 Z"
         clip-rule="evenodd"
         id="path10" />
    </clipPath>
    <clipPath
       clipPathUnits="userSpaceOnUse"
       id="clipPath12">
      <path
         d="M 0,0.16 V 1122.5601 H 793.59998 V 0.16 Z"
         clip-rule="evenodd"
         id="path12" />
    </clipPath>
    <clipPath
       clipPathUnits="userSpaceOnUse"
       id="clipPath14">
      <path
         d="M 0,0.16 V 1122.5601 H 793.59998 V 0.16 Z"
         clip-rule="evenodd"
         id="path14" />
    </clipPath>
    <clipPath
       clipPathUnits="userSpaceOnUse"
       id="clipPath16">
      <path
         d="M 0,0.16 V 1122.5601 H 793.59998 V 0.16 Z"
         clip-rule="evenodd"
         id="path16" />
    </clipPath>
  </defs>
  <sodipodi:namedview
     id="namedview1"
     pagecolor="#505050"
     bordercolor="#eeeeee"
     borderopacity="1"
     inkscape:showpageshadow="0"
     inkscape:pageopacity="0"
     inkscape:pagecheckerboard="0"
     inkscape:deskcolor="#505050">
    <inkscape:page
       x="0"
       y="0"
       inkscape:label="1"
       id="page1"
       width="234.78667"
       height="293.65332"
       margin="0"
       bleed="0" />
  </sodipodi:namedview>
  <g
     id="g1"
     inkscape:groupmode="layer"
     inkscape:label="1">
    <path
       id="path1"
       d="m 0,0 6.88,-0.16 6.72,-0.64 6.72,-0.96 6.720001,-1.44 6.559997,-1.92 6.560002,-2.24 6.240002,-2.56 6.239997,-3.04 5.920002,-3.36 L 64.32,-20 69.760002,-24 75.040001,-28.48 80,-33.119999 l 4.800003,-4.960003 4.32,-5.279999 4,-5.439998 3.839996,-5.760002 3.360001,-6.079998 2.88,-6.080002 2.72,-6.400002 2.24,-6.399994 1.76,-6.560005 1.44,-6.720001 1.12,-6.719994 0.48,-6.880003 0.32,-6.88 -0.32,-6.72 -0.48,-6.88 -1.12,-6.72001 -1.44,-6.72 -1.76,-6.55999 -2.24,-6.56 -2.72,-6.23999 -2.88,-6.24001 -3.360001,-5.92 -3.839996,-5.76001 -4,-5.43998 -4.32,-5.28002 L 80,-193.28 l -4.959999,-4.64 -5.279999,-4.47999 -5.440002,-4 -5.759999,-3.68001 -5.920002,-3.36 -6.239997,-3.04 L 40.16,-219.2 33.599998,-221.28 27.040001,-223.2 20.32,-224.64 13.6,-225.60001 6.88,-226.24 0,-226.56"
       style="fill:none;stroke:#000000;stroke-width:26.4;stroke-linecap:round;stroke-linejoin:round;stroke-miterlimit:10;stroke-dasharray:none;stroke-opacity:1"
       transform="translate(97.079998,260.09325)"
       clip-path="url(#clipPath2)" />
    <path
       id="path3"
       d="M 358.56,389.92001 H 320.79999"
       style="fill:none;stroke:#000000;stroke-width:26.4;stroke-linecap:round;stroke-linejoin:round;stroke-miterlimit:10;stroke-dasharray:none;stroke-opacity:1"
       transform="translate(-261.48,-356.38673)"
       clip-path="url(#clipPath4)" />
    <path
       id="path5"
       d="M 358.56,616.47998 H 320.79999"
       style="fill:none;stroke:#000000;stroke-width:26.4;stroke-linecap:round;stroke-linejoin:round;stroke-miterlimit:10;stroke-dasharray:none;stroke-opacity:1"
       transform="translate(-261.48,-356.38673)"
       clip-path="url(#clipPath6)" />
    <path
       id="path7"
       d="M 358.56,389.92001 V 616.47998"
       style="fill:none;stroke:#000000;stroke-width:26.4;stroke-linecap:round;stroke-linejoin:round;stroke-miterlimit:10;stroke-dasharray:none;stroke-opacity:1"
       transform="translate(-261.48,-356.38673)"
       clip-path="url(#clipPath8)" />
    <path
       id="path9"
       d="M 471.84,503.20001 H 283.04001"
       style="fill:none;stroke:#000000;stroke-width:26.4;stroke-linecap:round;stroke-linejoin:round;stroke-miterlimit:10;stroke-dasharray:none;stroke-opacity:1"
       transform="translate(-261.48,-356.38673)"
       clip-path="url(#clipPath10)" />
    <path
       id="path11"
       d="m 283.04001,484.32001 v 37.76001"
       style="fill:none;stroke:#000000;stroke-width:26.4;stroke-linecap:round;stroke-linejoin:round;stroke-miterlimit:10;stroke-dasharray:none;stroke-opacity:1"
       transform="translate(-261.48,-356.38673)"
       clip-path="url(#clipPath12)" />
    <path
       id="path13"
       d="m 320.79999,371.04001 v 37.75998"
       style="fill:none;stroke:#000000;stroke-width:26.4;stroke-linecap:round;stroke-linejoin:round;stroke-miterlimit:10;stroke-dasharray:none;stroke-opacity:1"
       transform="translate(-261.48,-356.38673)"
       clip-path="url(#clipPath14)" />
    <path
       id="path15"
       d="m 320.79999,597.59998 v 37.76"
       style="fill:none;stroke:#000000;stroke-width:26.4;stroke-linecap:round;stroke-linejoin:round;stroke-miterlimit:10;stroke-dasharray:none;stroke-opacity:1"
       transform="translate(-261.48,-356.38673)"
       clip-path="url(#clipPath16)" />
  </g>
</svg>
