<?xml version="1.0" encoding="UTF-8" standalone="no"?>
<!-- Created with Inkscape (http://www.inkscape.org/) -->

<svg
   version="1.1"
   id="svg1"
   width="452.23999"
   height="315.01334"
   viewBox="0 0 452.23999 315.01334"
   sodipodi:docname="Alumn3.pdf"
   xmlns:inkscape="http://www.inkscape.org/namespaces/inkscape"
   xmlns:sodipodi="http://sodipodi.sourceforge.net/DTD/sodipodi-0.dtd"
   xmlns="http://www.w3.org/2000/svg"
   xmlns:svg="http://www.w3.org/2000/svg">
  <defs
     id="defs1">
    <clipPath
       clipPathUnits="userSpaceOnUse"
       id="clipPath2">
      <path
         d="M 0,0.16 V 1122.5601 H 793.59998 V 0.16 Z"
         transform="translate(-339.51999,-502.72)"
         clip-rule="evenodd"
         id="path2" />
    </clipPath>
    <clipPath
       clipPathUnits="userSpaceOnUse"
       id="clipPath4">
      <path
         d="M 0,0.16 V 1122.5601 H 793.59998 V 0.16 Z"
         transform="translate(-601.91998,-502.39999)"
         clip-rule="evenodd"
         id="path4" />
    </clipPath>
    <clipPath
       clipPathUnits="userSpaceOnUse"
       id="clipPath6">
      <path
         d="M 0,0.16 V 1122.5601 H 793.59998 V 0.16 Z"
         clip-rule="evenodd"
         id="path6" />
    </clipPath>
    <clipPath
       clipPathUnits="userSpaceOnUse"
       id="clipPath8">
      <path
         d="M 0,0.16 V 1122.5601 H 793.59998 V 0.16 Z"
         clip-rule="evenodd"
         id="path8" />
    </clipPath>
    <clipPath
       clipPathUnits="userSpaceOnUse"
       id="clipPath10">
      <path
         d="M 0,0.16 V 1122.5601 H 793.59998 V 0.16 Z"
         clip-rule="evenodd"
         id="path10" />
    </clipPath>
  </defs>
  <sodipodi:namedview
     id="namedview1"
     pagecolor="#505050"
     bordercolor="#eeeeee"
     borderopacity="1"
     inkscape:showpageshadow="0"
     inkscape:pageopacity="0"
     inkscape:pagecheckerboard="0"
     inkscape:deskcolor="#505050">
    <inkscape:page
       x="0"
       y="0"
       inkscape:label="1"
       id="page1"
       width="452.23999"
       height="315.01334"
       margin="0"
       bleed="0" />
  </sodipodi:namedview>
  <g
     id="g1"
     inkscape:groupmode="layer"
     inkscape:label="1">
    <path
       id="path1"
       d="m 0,0 -0.16,-5.6 -0.48,-5.6 -0.96,-5.439999 -1.44,-5.440001 -1.6,-5.44 -2.08,-5.119999 -2.4,-5.119999 -2.72,-4.800003 -3.04,-4.64 -3.36,-4.479999 -3.68,-4 -3.84,-3.84 -4.16,-3.520001 -4.320002,-3.199997 -4.639999,-2.880005 L -43.68,-71.68 -48.639999,-73.919998 -53.599998,-75.68 -58.880001,-76.959999 -64,-78.080002 l -5.440002,-0.479996 -5.279999,-0.319999 -5.279999,0.319999 -5.279999,0.479996 -5.279999,1.120003 -5.279998,1.279999 -4.960004,1.760002 -4.96,2.239998 -4.8,2.559997 -4.64,2.880005 -4.32,3.199997 -4.16,3.520001 -3.84,3.84 -3.68,4 -3.36,4.479999 -3.04001,4.64 -2.72,4.800003 -2.39999,5.119999 -2.08,5.119999 -1.59999,5.44 -1.44001,5.440001 -0.8,5.439999 -0.64,5.6 -0.16,5.6"
       style="fill:none;stroke:#000000;stroke-width:26.4;stroke-linecap:round;stroke-linejoin:round;stroke-miterlimit:10;stroke-dasharray:none;stroke-opacity:1"
       transform="translate(168.75999,99.613276)"
       clip-path="url(#clipPath2)" />
    <path
       id="path3"
       d="m 0,0 -0.16,-5.6 -0.48,-5.6 -0.96,-5.599999 -1.44,-5.440001 -1.6,-5.44 -2.08,-5.119999 -2.4,-5.119999 -2.72,-4.800003 -3.04,-4.64 -3.36,-4.319999 -3.68,-4.16 -3.84,-3.84 -4.16,-3.520001 -4.320002,-3.200001 -4.639999,-2.879997 L -43.68,-71.839996 -48.639999,-73.919998 -53.599998,-75.68 -58.880001,-77.120003 -64,-78.080002 l -5.440002,-0.639999 -5.279999,-0.159996 -5.279999,0.159996 -5.279999,0.639999 -5.279999,0.959999 -5.279998,1.440003 -4.960004,1.760002 -4.96,2.080002 -4.8,2.559997 -4.64,2.879997 -4.32,3.200001 -4.16,3.520001 -3.84,3.84 -3.68,4.16 -3.36,4.319999 -3.04001,4.64 -2.72,4.800003 -2.39999,5.119999 -2.08,5.119999 -1.59999,5.44 -1.44001,5.440001 -0.8,5.599999 -0.64,5.6 -0.16,5.6"
       style="fill:none;stroke:#000000;stroke-width:26.4;stroke-linecap:round;stroke-linejoin:round;stroke-miterlimit:10;stroke-dasharray:none;stroke-opacity:1"
       transform="translate(431.15998,99.293269)"
       clip-path="url(#clipPath4)" />
    <path
       id="path5"
       d="M 339.35999,503.20001 H 452.64001"
       style="fill:none;stroke:#000000;stroke-width:26.4;stroke-linecap:round;stroke-linejoin:round;stroke-miterlimit:10;stroke-dasharray:none;stroke-opacity:1"
       transform="translate(-170.76,-403.10673)"
       clip-path="url(#clipPath6)" />
    <path
       id="path7"
       d="m 342.07999,694.71997 h 113.28"
       style="fill:none;stroke:#000000;stroke-width:26.4;stroke-linecap:round;stroke-linejoin:round;stroke-miterlimit:10;stroke-dasharray:none;stroke-opacity:1"
       transform="translate(-170.76,-403.10673)"
       clip-path="url(#clipPath8)" />
    <path
       id="path9"
       d="M 396.79999,503.84 V 693.76001"
       style="fill:none;stroke:#000000;stroke-width:26.4;stroke-linecap:round;stroke-linejoin:round;stroke-miterlimit:10;stroke-dasharray:none;stroke-opacity:1"
       transform="translate(-170.76,-403.10673)"
       clip-path="url(#clipPath10)" />
  </g>
</svg>
