<?xml version="1.0" encoding="UTF-8" standalone="no"?>
<!-- Created with Inkscape (http://www.inkscape.org/) -->

<svg
   version="1.1"
   id="svg1"
   width="576.32001"
   height="380.41333"
   viewBox="0 0 576.32001 380.41333"
   sodipodi:docname="Ammonia.pdf"
   xmlns:inkscape="http://www.inkscape.org/namespaces/inkscape"
   xmlns:sodipodi="http://sodipodi.sourceforge.net/DTD/sodipodi-0.dtd"
   xmlns="http://www.w3.org/2000/svg"
   xmlns:svg="http://www.w3.org/2000/svg">
  <defs
     id="defs1">
    <clipPath
       clipPathUnits="userSpaceOnUse"
       id="clipPath2">
      <path
         d="M 0,0.16 V 1122.5601 H 793.59998 V 0.16 Z"
         transform="translate(-455.84,-561.35999)"
         clip-rule="evenodd"
         id="path2" />
    </clipPath>
    <clipPath
       clipPathUnits="userSpaceOnUse"
       id="clipPath4">
      <path
         d="M 0,0.16 V 1122.5601 H 793.59998 V 0.16 Z"
         clip-rule="evenodd"
         id="path4" />
    </clipPath>
    <clipPath
       clipPathUnits="userSpaceOnUse"
       id="clipPath6">
      <path
         d="M 0,0.16 V 1122.5601 H 793.59998 V 0.16 Z"
         transform="translate(-318.88,-466.88001)"
         clip-rule="evenodd"
         id="path6" />
    </clipPath>
    <clipPath
       clipPathUnits="userSpaceOnUse"
       id="clipPath8">
      <path
         d="M 0,0.16 V 1122.5601 H 793.59998 V 0.16 Z"
         transform="translate(-318.88,-655.67999)"
         clip-rule="evenodd"
         id="path8" />
    </clipPath>
    <clipPath
       clipPathUnits="userSpaceOnUse"
       id="clipPath10">
      <path
         d="M 0,0.16 V 1122.5601 H 793.59998 V 0.16 Z"
         transform="translate(-602.08002,-561.28003)"
         clip-rule="evenodd"
         id="path10" />
    </clipPath>
    <clipPath
       clipPathUnits="userSpaceOnUse"
       id="clipPath12">
      <path
         d="M 0,0.16 V 1122.5601 H 793.59998 V 0.16 Z"
         transform="translate(-318.88,-466.88001)"
         clip-rule="evenodd"
         id="path12" />
    </clipPath>
  </defs>
  <sodipodi:namedview
     id="namedview1"
     pagecolor="#505050"
     bordercolor="#eeeeee"
     borderopacity="1"
     inkscape:showpageshadow="0"
     inkscape:pageopacity="0"
     inkscape:pagecheckerboard="0"
     inkscape:deskcolor="#505050">
    <inkscape:page
       x="0"
       y="0"
       inkscape:label="1"
       id="page1"
       width="576.32001"
       height="380.41333"
       margin="0"
       bleed="0" />
  </sodipodi:namedview>
  <g
     id="g1"
     inkscape:groupmode="layer"
     inkscape:label="1">
    <path
       id="path1"
       d="m 0,0 c 0,-94.68 -73.959999,-171.44 -165.2,-171.44 -91.24,0 -165.19999,76.76 -165.19999,171.44 0,94.68 73.95999,171.44 165.19999,171.44 C -73.959999,171.44 0,94.68 0,0 Z"
       style="fill:none;stroke:#000000;stroke-width:26.4;stroke-linecap:round;stroke-linejoin:round;stroke-miterlimit:10;stroke-dasharray:none;stroke-opacity:1"
       transform="translate(455.84,564.03993)"
       clip-path="url(#clipPath2)" />
    <path
       id="path3"
       d="m 126.72,561.59998 h 336.16 l 112,-94.71998 93.27997,94.71998"
       style="fill:none;stroke:#000000;stroke-width:26.4;stroke-linecap:round;stroke-linejoin:round;stroke-miterlimit:10;stroke-dasharray:none;stroke-opacity:1"
       transform="translate(0,2.6799413)"
       clip-path="url(#clipPath4)" />
    <path
       id="path5"
       d="m 0,0 v -2.88 l -0.48,-3.04 -0.8,-2.88 -1.12,-2.72 -1.28,-2.56 -1.6,-2.559999 -1.92,-2.24 -2.08,-2.08 -2.24,-1.92 L -14.08,-24.48 -16.799999,-25.92 -19.52,-26.879999 -22.4,-27.68 l -2.880001,-0.48 -3.039999,-0.16 -2.880001,0.16 -2.880001,0.48 -2.879997,0.800001 L -39.68,-25.92 l -2.720002,1.44 -2.559997,1.600001 -2.240002,1.92 -2.079998,2.08 -1.920002,2.24 -1.599998,2.559999 -1.280003,2.56 -1.119999,2.72 L -56,-5.92 -56.48,-2.88 V 0 3.04 l 0.48,2.88 0.799999,2.88 1.119999,2.72 1.280003,2.72 1.599998,2.399999 1.920002,2.400002 2.079998,2.08 2.240002,1.759998 2.559997,1.600001 2.720002,1.44 2.720001,0.959999 2.879997,0.800001 2.880001,0.48 2.880001,0.16 3.039999,-0.16 L -22.4,27.68 -19.52,26.879999 -16.799999,25.92 -14.08,24.48 l 2.56,-1.600001 2.24,-1.759998 2.08,-2.08 1.92,-2.400002 L -3.68,14.24 -2.4,11.52 -1.28,8.8 -0.48,5.92 0,3.04 V 0 0 Z"
       style="fill:#000000;fill-opacity:1;fill-rule:evenodd;stroke:none"
       transform="translate(318.88,469.55995)"
       clip-path="url(#clipPath6)" />
    <path
       id="path7"
       d="m 0,0 v -2.88 l -0.48,-3.04 -0.8,-2.88 -1.12,-2.72 -1.28,-2.56 -1.6,-2.559999 -1.92,-2.24 -2.08,-2.08 -2.24,-1.92 L -14.08,-24.48 -16.799999,-25.92 -19.52,-26.879999 -22.4,-27.68 l -2.880001,-0.48 -3.039999,-0.16 -2.880001,0.16 -2.880001,0.48 -2.879997,0.800001 L -39.68,-25.92 l -2.720002,1.44 -2.559997,1.600001 -2.240002,1.92 -2.079998,2.08 -1.920002,2.24 -1.599998,2.559999 -1.280003,2.56 -1.119999,2.72 L -56,-5.92 -56.48,-2.88 V 0 3.04 l 0.48,2.88 0.799999,2.88 1.119999,2.72 1.280003,2.72 1.599998,2.399999 1.920002,2.400002 2.079998,2.08 2.240002,1.759998 2.559997,1.600001 2.720002,1.44 2.720001,0.959999 2.879997,0.800001 2.880001,0.48 2.880001,0.16 3.039999,-0.16 L -22.4,27.68 -19.52,26.879999 -16.799999,25.92 -14.08,24.48 l 2.56,-1.600001 2.24,-1.759998 2.08,-2.08 1.92,-2.400002 L -3.68,14.24 -2.4,11.52 -1.28,8.8 -0.48,5.92 0,3.04 V 0 0 Z"
       style="fill:#000000;fill-opacity:1;fill-rule:evenodd;stroke:none"
       transform="translate(318.88,658.35993)"
       clip-path="url(#clipPath8)" />
    <path
       id="path9"
       d="m 0,0 -0.16,-2.88 -0.48,-3.04 -0.64,-2.88 -1.12,-2.72 -1.28,-2.56 -1.6,-2.559999 -1.92,-2.24 -2.08,-2.08 -2.4,-1.92 -2.4,-1.600001 -2.719999,-1.44 L -19.52,-26.879999 -22.4,-27.68 l -2.880001,-0.48 -3.039999,-0.16 -2.880001,0.16 -2.880001,0.48 -2.879997,0.800001 L -39.84,-25.92 l -2.560002,1.44 -2.559997,1.600001 -2.240002,1.92 -2.079998,2.08 -1.920002,2.24 -1.599998,2.559999 -1.280003,2.56 -1.119999,2.72 L -56,-5.92 -56.48,-2.88 -56.639999,0 -56.48,3.04 -56,5.92 l 0.799999,2.88 1.119999,2.72 1.280003,2.72 1.599998,2.399999 1.920002,2.400002 2.079998,2.08 2.240002,1.759998 2.559997,1.600001 2.560002,1.44 2.880001,0.959999 2.879997,0.800001 2.880001,0.48 2.880001,0.16 3.039999,-0.16 L -22.4,27.68 -19.52,26.879999 -16.799999,25.92 -14.08,24.48 l 2.4,-1.600001 2.4,-1.759998 2.08,-2.08 1.92,-2.400002 L -3.68,14.24 -2.4,11.52 -1.28,8.8 -0.64,5.92 -0.16,3.04 0,0 v 0 z"
       style="fill:#000000;fill-opacity:1;fill-rule:evenodd;stroke:none"
       transform="translate(602.08002,563.95997)"
       clip-path="url(#clipPath10)" />
    <path
       id="path11"
       d="m 0,0 v -2.88 l -0.48,-3.04 -0.8,-2.88 -1.12,-2.72 -1.28,-2.56 -1.6,-2.559999 -1.92,-2.24 -2.08,-2.08 -2.24,-1.92 L -14.08,-24.48 -16.799999,-25.92 -19.52,-26.879999 -22.4,-27.68 l -2.880001,-0.48 -3.039999,-0.16 -2.880001,0.16 -2.880001,0.48 -2.879997,0.800001 L -39.68,-25.92 l -2.720002,1.44 -2.559997,1.600001 -2.240002,1.92 -2.079998,2.08 -1.920002,2.24 -1.599998,2.559999 -1.280003,2.56 -1.119999,2.72 L -56,-5.92 -56.48,-2.88 V 0 3.04 l 0.48,2.88 0.799999,2.88 1.119999,2.72 1.280003,2.72 1.599998,2.399999 1.920002,2.400002 2.079998,2.08 2.240002,1.759998 2.559997,1.600001 2.720002,1.44 2.720001,0.959999 2.879997,0.800001 2.880001,0.48 2.880001,0.16 3.039999,-0.16 L -22.4,27.68 -19.52,26.879999 -16.799999,25.92 -14.08,24.48 l 2.56,-1.600001 2.24,-1.759998 2.08,-2.08 1.92,-2.400002 L -3.68,14.24 -2.4,11.52 -1.28,8.8 -0.48,5.92 0,3.04 V 0 m 0,188.8 v -2.88 l -0.48,-3.04 -0.8,-2.88 -1.12,-2.72 -1.28,-2.56 -1.6,-2.56 -1.92,-2.24 -2.08,-2.08 -2.24,-1.92 -2.56,-1.59999 L -16.799999,162.88 -19.52,161.92 -22.4,161.11999 -25.280001,160.64 -28.32,160.48 l -2.880001,0.16 -2.880001,0.47999 -2.879997,0.80001 -2.720001,0.96 -2.720002,1.44001 -2.559997,1.59999 -2.240002,1.92 -2.079998,2.08 -1.920002,2.24 -1.599998,2.56 -1.280003,2.56 -1.119999,2.72 -0.799999,2.88 -0.48,3.04 v 2.88 3.04 l 0.48,2.88 0.799999,2.88001 1.119999,2.72 1.280003,2.71998 1.599998,2.40001 1.920002,2.4 2.079998,2.08 2.240002,1.75999 2.559997,1.60001 2.720002,1.44 2.720001,0.95999 2.879997,0.80001 2.880001,0.48001 2.880001,0.15998 3.039999,-0.15998 L -22.4,216.48 l 2.88,-0.80001 2.720001,-0.95999 2.719999,-1.44 2.56,-1.60001 2.24,-1.75999 2.08,-2.08 1.92,-2.4 1.6,-2.40001 1.28,-2.71998 1.12,-2.72 0.8,-2.88001 0.48,-2.88 v -3.04 m 283.20001,-94.399998 -0.16,-2.880005 -0.48001,-3.039994 -0.63999,-2.880005 -1.12002,-2.720001 -1.28,-2.559997 -1.59998,-2.559998 L 276,75.519997 l -2.07999,-2.079995 -2.40002,-1.920005 -2.39999,-1.599999 -2.72001,-1.439995 -2.72,-0.960006 -2.88,-0.799996 -2.87998,-0.480003 -3.04001,-0.159996 -2.88,0.159996 -2.88001,0.480003 -2.87999,0.799996 -2.88,0.960006 -2.56,1.439995 -2.56,1.599999 -2.24,1.920005 -2.08,2.079995 -1.92,2.240005 -1.60001,2.559998 -1.28,2.559997 -1.11999,2.720001 -0.8,2.880005 -0.48,3.039994 -0.16,2.880005 0.16,3.04 0.48,2.879998 0.8,2.88 1.11999,2.72 1.28,2.72 1.60001,2.4 1.92,2.4 2.08,2.08 2.24,1.76 2.56,1.6 2.56,1.44 2.88,0.96 2.87999,0.8 2.88001,0.48 2.88,0.16 3.04001,-0.16 2.87998,-0.48 2.88,-0.8 2.72,-0.96 2.72001,-1.44 2.39999,-1.6 2.40002,-1.76 2.07999,-2.08 1.92001,-2.4 1.59998,-2.4 1.28,-2.72 1.12002,-2.72 0.63999,-2.88 0.48001,-2.879998 0.16,-3.04"
       style="fill:none;stroke:#000000;stroke-width:0.48;stroke-linecap:round;stroke-linejoin:round;stroke-miterlimit:10;stroke-dasharray:none;stroke-opacity:1"
       transform="translate(318.88,469.55995)"
       clip-path="url(#clipPath12)" />
  </g>
</svg>
