<?xml version="1.0" encoding="UTF-8" standalone="no"?>
<!-- Created with Inkscape (http://www.inkscape.org/) -->

<svg
   version="1.1"
   id="svg1"
   width="356.18668"
   height="376.41333"
   viewBox="0 0 356.18668 376.41333"
   sodipodi:docname="AntimonySublimate3.pdf"
   xmlns:inkscape="http://www.inkscape.org/namespaces/inkscape"
   xmlns:sodipodi="http://sodipodi.sourceforge.net/DTD/sodipodi-0.dtd"
   xmlns="http://www.w3.org/2000/svg"
   xmlns:svg="http://www.w3.org/2000/svg">
  <defs
     id="defs1">
    <clipPath
       clipPathUnits="userSpaceOnUse"
       id="clipPath2">
      <path
         d="M 0,0.16 V 1122.5601 H 793.59998 V 0.16 Z"
         transform="translate(-491.68,-650.40003)"
         clip-rule="evenodd"
         id="path2" />
    </clipPath>
    <clipPath
       clipPathUnits="userSpaceOnUse"
       id="clipPath4">
      <path
         d="M 0,0.16 V 1122.5601 H 793.59998 V 0.16 Z"
         transform="translate(3.3333333e-6)"
         clip-rule="evenodd"
         id="path4" />
    </clipPath>
    <clipPath
       clipPathUnits="userSpaceOnUse"
       id="clipPath6">
      <path
         d="M 0,0.16 V 1122.5601 H 793.59998 V 0.16 Z"
         transform="translate(3.3333333e-6)"
         clip-rule="evenodd"
         id="path6" />
    </clipPath>
    <clipPath
       clipPathUnits="userSpaceOnUse"
       id="clipPath8">
      <path
         d="M 0,0.16 V 1122.5601 H 793.59998 V 0.16 Z"
         transform="translate(-498.07999,-458.72)"
         clip-rule="evenodd"
         id="path8" />
    </clipPath>
  </defs>
  <sodipodi:namedview
     id="namedview1"
     pagecolor="#505050"
     bordercolor="#eeeeee"
     borderopacity="1"
     inkscape:showpageshadow="0"
     inkscape:pageopacity="0"
     inkscape:pagecheckerboard="0"
     inkscape:deskcolor="#505050">
    <inkscape:page
       x="0"
       y="0"
       inkscape:label="1"
       id="page1"
       width="356.18668"
       height="376.41333"
       margin="0"
       bleed="0" />
  </sodipodi:namedview>
  <g
     id="g1"
     inkscape:groupmode="layer"
     inkscape:label="1">
    <path
       id="path1"
       d="m 0,0 c 0,-55.049999 -42.470001,-99.68 -94.879997,-99.68 -52.409993,0 -94.879993,44.630001 -94.879993,99.68 0,55.049999 42.47,99.68 94.879993,99.68 C -42.470001,99.68 0,55.049999 0,0 Z"
       style="fill:none;stroke:#000000;stroke-width:26.4;stroke-linecap:round;stroke-linejoin:round;stroke-miterlimit:10;stroke-dasharray:none;stroke-opacity:1"
       transform="translate(215.53333,241.95997)"
       clip-path="url(#clipPath2)" />
    <path
       id="path3"
       d="M 396.79999,418.72 V 542.23999"
       style="fill:none;stroke:#000000;stroke-width:26.4;stroke-linecap:round;stroke-linejoin:round;stroke-miterlimit:10;stroke-dasharray:none;stroke-opacity:1"
       transform="translate(-276.14667,-408.44006)"
       clip-path="url(#clipPath4)" />
    <path
       id="path5"
       d="m 343.35999,458.72 h 154.72"
       style="fill:none;stroke:#000000;stroke-width:26.4;stroke-linecap:round;stroke-linejoin:round;stroke-miterlimit:10;stroke-dasharray:none;stroke-opacity:1"
       transform="translate(-276.14667,-408.44006)"
       clip-path="url(#clipPath6)" />
    <path
       id="path7"
       d="m 0,0 0.32,4.32 0.64,4.32 0.96,4.16 1.28,3.999999 1.76,4 1.92,3.84 2.24,3.680001 2.56,3.52 2.88,3.200001 3.04,3.040001 3.359999,2.719997 3.520001,2.400002 3.84,2.239998 3.84,1.760002 4,1.439998 4.16,1.279999 4.319999,0.800003 4.16,0.48 4.32,0.16 4.32,-0.32 4.319999,-0.48 4.16,-0.960003 4.160004,-1.279998 4,-1.599999 3.839996,-1.920002 3.68,-2.239998 L 85.120003,40 88.32,37.279999 l 3.040001,-3.039997 2.879997,-3.360003 2.400001,-3.519998 2.239998,-3.680001 1.920003,-4 1.44,-4 1.28,-4.16 0.96,-4.16 0.48,-4.32 0.16,-4.32"
       style="fill:none;stroke:#000000;stroke-width:26.4;stroke-linecap:round;stroke-linejoin:round;stroke-miterlimit:10;stroke-dasharray:none;stroke-opacity:1"
       transform="translate(221.93332,50.279942)"
       clip-path="url(#clipPath8)" />
  </g>
</svg>
