<?xml version="1.0" encoding="UTF-8" standalone="no"?>
<!-- Created with Inkscape (http://www.inkscape.org/) -->

<svg
   version="1.1"
   id="svg1"
   width="330.85333"
   height="355.05334"
   viewBox="0 0 330.85333 355.05334"
   sodipodi:docname="Antimony4.pdf"
   xmlns:inkscape="http://www.inkscape.org/namespaces/inkscape"
   xmlns:sodipodi="http://sodipodi.sourceforge.net/DTD/sodipodi-0.dtd"
   xmlns="http://www.w3.org/2000/svg"
   xmlns:svg="http://www.w3.org/2000/svg">
  <defs
     id="defs1">
    <clipPath
       clipPathUnits="userSpaceOnUse"
       id="clipPath2">
      <path
         d="M 0,0.16 V 1122.5601 H 793.59998 V 0.16 Z"
         transform="translate(-251.52,-461.44)"
         clip-rule="evenodd"
         id="path2" />
    </clipPath>
    <clipPath
       clipPathUnits="userSpaceOnUse"
       id="clipPath4">
      <path
         d="M 0,0.16 V 1122.5601 H 793.59998 V 0.16 Z"
         transform="translate(-3.3333333e-6)"
         clip-rule="evenodd"
         id="path4" />
    </clipPath>
    <clipPath
       clipPathUnits="userSpaceOnUse"
       id="clipPath6">
      <path
         d="M 0,0.16 V 1122.5601 H 793.59998 V 0.16 Z"
         transform="translate(-3.3333333e-6)"
         clip-rule="evenodd"
         id="path6" />
    </clipPath>
  </defs>
  <sodipodi:namedview
     id="namedview1"
     pagecolor="#505050"
     bordercolor="#eeeeee"
     borderopacity="1"
     inkscape:showpageshadow="0"
     inkscape:pageopacity="0"
     inkscape:pagecheckerboard="0"
     inkscape:deskcolor="#505050">
    <inkscape:page
       x="0"
       y="0"
       inkscape:label="1"
       id="page1"
       width="330.85333"
       height="355.05334"
       margin="0"
       bleed="0" />
  </sodipodi:namedview>
  <g
     id="g1"
     inkscape:groupmode="layer"
     inkscape:label="1">
    <path
       id="path1"
       d="m 0,0 v -4.48 l 0.32,-4.8 0.48,-4.64 0.64,-4.32 0.8,-4 1.12,-3.68 1.28,-3.68 1.6,-3.199999 L 8,-35.84 9.92,-38.720001 12.32,-41.439999 14.88,-44 17.76,-46.400002 20.799999,-48.48 22.24,-49.439999 26.879999,-52.16 l 4.320002,-2.080002 4.16,-1.599998 4,-0.959999 3.68,-0.64 3.52,-0.159999 3.199997,0.479999 h 0.320004 l 1.279999,0.32 3.040001,0.959999 2.719997,1.439998 L 59.84,-52.48 l 2.560002,2.239998 2.559997,2.720002 2.400002,3.2 2.239997,3.680001 1.279999,2.559997 L 71.68,-36.48 l 1.919998,4.64 1.919999,5.280001 1.440002,5.6 0.959999,5.439999 0.32,5.12 v 4.32 l -0.479996,2.56 -0.160004,1.6 -0.959999,3.36 -1.440002,3.36 -1.759995,3.84 -2.560005,4.8 L 69.440002,16 66.720001,21.120001 64.639999,26.08 64,27.68 63.200001,29.76 61.759998,34.560001 60.32,39.84 59.040001,45.919998 57.919998,52.799999 56.959999,60.48 l -0.32,7.680004 0.16,7.199997 0.32,4.319999 0.32,2.559998 0.800003,5.440002 1.279998,5.279999 1.759999,5.279999 2.080002,5.120002 2.559997,4.96 3.040001,4.96 3.360001,4.96 3.840004,4.64 1.599998,1.76 4.64,4.96001 4.959999,4.63999 5.440002,4.32 5.599999,3.83999 5.599998,3.36 5.44,2.88001 4.8,1.92 2.08,0.8 4.96,1.44 5.12,0.95999 5.27999,0.64 5.44,0.32001 5.60001,-0.16 5.92,-0.64 6.08,-1.12 2.72,-0.47999 2.4,-0.64002 6.55999,-1.75999 7.04001,-2.24001 7.04,-2.71998 7.04,-3.20002 6.56,-3.51999 6.08,-3.84001 4,-2.87999 2.08,-1.6 4.79999,-4.16 4.48001,-4.32 4.15999,-4.64 3.68001,-4.96 3.36,-5.12 2.88001,-5.28 L 232,96.160004 233.60001,91.68 234.39999,89.440002 235.84,83.68 l 1.12001,-5.919998 0.64,-6.240005 0.47999,-6.559998 v -6.879997 l -0.32001,-6.720001 -0.64,-6.240002 v -0.16 L 236.8,42.880001 235.84,37.439999 234.72,32.32 l -1.28,-4.959999 -1.76001,-4.800002 -1.92,-4.639999 -2.23999,-4.48 -0.8,-1.28 -0.8,-1.28 -2.56,-3.84 -3.84,-5.6 -3.04,-4.96 -1.12,-2.4 -1.60001,-4 -0.95999,-3.84 -0.16,-1.6 -0.31999,-3.680001 0.15999,-4 0.63999,-4.32 0.96001,-4.479999 1.59999,-4.32 1.76001,-4.32 2.23999,-3.68 1.76001,-2.560001 1.12,-1.279999 2.55999,-2.560001 2.72001,-2.079998 3.04,-1.920002 3.36,-1.599999 3.68,-1.119999 3.83999,-0.960003 4.16001,-0.479999 3.19999,-0.16 H 250.72 l 4.48,0.479999 4.31999,0.800004 4,1.279998 3.68002,1.759999 3.35999,2.080001 3.04001,2.399998 2.88,2.720001 1.28,1.440003 1.11999,1.599998 2.24,3.360001 2.08001,3.84 1.91999,4.16 1.6,4.639999 1.44,4.959999 1.12,5.280001 0.79999,5.6 0.48001,5.76 0.16,6.24 V 0"
       style="fill:none;stroke:#000000;stroke-width:26.4;stroke-linecap:round;stroke-linejoin:round;stroke-miterlimit:10;stroke-dasharray:none;stroke-opacity:1"
       transform="translate(22.066671,81.02661)"
       clip-path="url(#clipPath2)" />
    <path
       id="path3"
       d="M 396.79999,405.60001 V 717.12"
       style="fill:none;stroke:#000000;stroke-width:26.4;stroke-linecap:round;stroke-linejoin:round;stroke-miterlimit:10;stroke-dasharray:none;stroke-opacity:1"
       transform="translate(-229.45333,-380.41339)"
       clip-path="url(#clipPath4)" />
    <path
       id="path5"
       d="m 344.95999,665.12 h 103.84"
       style="fill:none;stroke:#000000;stroke-width:26.4;stroke-linecap:round;stroke-linejoin:round;stroke-miterlimit:10;stroke-dasharray:none;stroke-opacity:1"
       transform="translate(-229.45333,-380.41339)"
       clip-path="url(#clipPath6)" />
  </g>
</svg>
