<?xml version="1.0" encoding="UTF-8" standalone="no"?>
<!-- Created with Inkscape (http://www.inkscape.org/) -->

<svg
   version="1.1"
   id="svg1"
   width="348.18668"
   height="348.37332"
   viewBox="0 0 348.18668 348.37332"
   sodipodi:docname="AntimonySublimate4.pdf"
   xmlns:inkscape="http://www.inkscape.org/namespaces/inkscape"
   xmlns:sodipodi="http://sodipodi.sourceforge.net/DTD/sodipodi-0.dtd"
   xmlns="http://www.w3.org/2000/svg"
   xmlns:svg="http://www.w3.org/2000/svg">
  <defs
     id="defs1">
    <clipPath
       clipPathUnits="userSpaceOnUse"
       id="clipPath2">
      <path
         d="M 0,0.16 V 1122.5601 H 793.59998 V 0.16 Z"
         transform="translate(-283.04001,-564)"
         clip-rule="evenodd"
         id="path2" />
    </clipPath>
    <clipPath
       clipPathUnits="userSpaceOnUse"
       id="clipPath4">
      <path
         d="M 0,0.16 V 1122.5601 H 793.59998 V 0.16 Z"
         transform="translate(-3.3333333e-6)"
         clip-rule="evenodd"
         id="path4" />
    </clipPath>
    <clipPath
       clipPathUnits="userSpaceOnUse"
       id="clipPath6">
      <path
         d="M 0,0.16 V 1122.5601 H 793.59998 V 0.16 Z"
         transform="translate(-3.3333333e-6)"
         clip-rule="evenodd"
         id="path6" />
    </clipPath>
    <clipPath
       clipPathUnits="userSpaceOnUse"
       id="clipPath8">
      <path
         d="M 0,0.16 V 1122.5601 H 793.59998 V 0.16 Z"
         transform="translate(-3.3333333e-6)"
         clip-rule="evenodd"
         id="path8" />
    </clipPath>
  </defs>
  <sodipodi:namedview
     id="namedview1"
     pagecolor="#505050"
     bordercolor="#eeeeee"
     borderopacity="1"
     inkscape:showpageshadow="0"
     inkscape:pageopacity="0"
     inkscape:pagecheckerboard="0"
     inkscape:deskcolor="#505050">
    <inkscape:page
       x="0"
       y="0"
       inkscape:label="1"
       id="page1"
       width="348.18668"
       height="348.37332"
       margin="0"
       bleed="0" />
  </sodipodi:namedview>
  <g
     id="g1"
     inkscape:groupmode="layer"
     inkscape:label="1">
    <path
       id="path1"
       d="m 0,0 -4.48,4.64 -4.16,5.12 -3.84,5.28 -3.36,5.44 -3.200001,5.6 L -21.76,32 l -2.4,6.080002 -2.08,6.079998 -1.6,6.240002 -1.119999,6.239997 -0.800001,6.400002 -0.32,6.400001 V 75.68 l 0.48,6.400002 0.800001,6.239998 1.439998,6.239998 1.600001,5.920002 2.08,5.92 2.559999,5.76 2.880001,5.6 3.2,5.28 3.52,5.12 4,4.80001 4.16,4.47999 4.64,4.31999 4.8,3.84002 4.96,3.67999 5.44,3.2 5.44,2.88 5.76,2.39999 L 33.599998,159.84 39.68,161.60001 45.759998,162.88 52,163.67999 l 6.400002,0.48001 6.400001,0.16001 6.239998,-0.48001 6.400001,-0.64 6.399994,-1.28 6.240006,-1.59999 6.080002,-1.92002 L 102.08,156 l 5.92,-2.88001 5.76,-3.03999 5.44,-3.52 5.28,-3.84 4.96,-4.16 4.8,-4.48 4.48,-4.8 4.16,-4.96 3.84,-5.28 3.52,-5.44 3.04,-5.76 2.88,-5.76 2.23999,-6.08 2.08001,-6.080002 1.6,-6.239998 1.12,-6.400001 0.8,-6.239998 0.48,-6.400002 -0.15999,-6.399997 L 163.84,52 163.03999,45.759998 161.75999,39.52 160,33.439999 157.92,27.52 l -2.56,-5.6 -2.72,-5.6 -3.36,-5.28 -3.52001,-5.12 -3.83999,-4.8 -4.31999,-4.64 -4.48002,-4.16 -4.79998,-4 -5.12001,-3.52 -5.28,-3.2 -5.6,-2.880001 -5.76,-2.559999 -5.92,-2.08 -6.080002,-1.6 -6.079995,-1.279999 -6.240005,-0.960001 -6.400002,-0.48 h -6.239998 l -6.399997,0.32 -6.400002,0.799999 L 50.560001,-28 44.32,-26.4 38.080002,-24.32 32.16,-21.92 26.24,-19.200001 20.639999,-16 15.04,-12.48 9.76,-8.64 4.8,-4.48 0,0"
       style="fill:none;stroke:#000000;stroke-width:26.4;stroke-linecap:round;stroke-linejoin:round;stroke-miterlimit:10;stroke-dasharray:none;stroke-opacity:1"
       transform="translate(53.586676,163.55994)"
       clip-path="url(#clipPath2)" />
    <path
       id="path3"
       d="M 553.12,432.48001 426.72,554.56"
       style="fill:none;stroke:#000000;stroke-width:26.4;stroke-linecap:round;stroke-linejoin:round;stroke-miterlimit:10;stroke-dasharray:none;stroke-opacity:1"
       transform="translate(-229.45333,-400.44006)"
       clip-path="url(#clipPath4)" />
    <path
       id="path5"
       d="m 447.84,457.76001 76.95999,76.95996"
       style="fill:none;stroke:#000000;stroke-width:26.4;stroke-linecap:round;stroke-linejoin:round;stroke-miterlimit:10;stroke-dasharray:none;stroke-opacity:1"
       transform="translate(-229.45333,-400.44006)"
       clip-path="url(#clipPath6)" />
    <path
       id="path7"
       d="M 553.12,432.48001 549.44,503.84"
       style="fill:none;stroke:#000000;stroke-width:26.4;stroke-linecap:round;stroke-linejoin:round;stroke-miterlimit:10;stroke-dasharray:none;stroke-opacity:1"
       transform="translate(-229.45333,-400.44006)"
       clip-path="url(#clipPath8)" />
  </g>
</svg>
