<?xml version="1.0" encoding="UTF-8" standalone="no"?>
<!-- Created with Inkscape (http://www.inkscape.org/) -->

<svg
   version="1.1"
   id="svg1"
   width="378.88"
   height="487.20001"
   viewBox="0 0 378.88 487.20001"
   sodipodi:docname="Antimony3.pdf"
   xmlns:inkscape="http://www.inkscape.org/namespaces/inkscape"
   xmlns:sodipodi="http://sodipodi.sourceforge.net/DTD/sodipodi-0.dtd"
   xmlns="http://www.w3.org/2000/svg"
   xmlns:svg="http://www.w3.org/2000/svg">
  <defs
     id="defs1">
    <clipPath
       clipPathUnits="userSpaceOnUse"
       id="clipPath2">
      <path
         d="M 0,0.16 V 1122.5601 H 793.59998 V 0.16 Z"
         transform="translate(-524.32001,-658.96002)"
         clip-rule="evenodd"
         id="path2" />
    </clipPath>
    <clipPath
       clipPathUnits="userSpaceOnUse"
       id="clipPath4">
      <path
         d="M 0,0.16 V 1122.5601 H 793.59998 V 0.16 Z"
         clip-rule="evenodd"
         id="path4" />
    </clipPath>
    <clipPath
       clipPathUnits="userSpaceOnUse"
       id="clipPath6">
      <path
         d="M 0,0.16 V 1122.5601 H 793.59998 V 0.16 Z"
         clip-rule="evenodd"
         id="path6" />
    </clipPath>
    <clipPath
       clipPathUnits="userSpaceOnUse"
       id="clipPath8">
      <path
         d="M 0,0.16 V 1122.5601 H 793.59998 V 0.16 Z"
         transform="translate(-566.71997,-357.76001)"
         clip-rule="evenodd"
         id="path8" />
    </clipPath>
    <clipPath
       clipPathUnits="userSpaceOnUse"
       id="clipPath10">
      <path
         d="M 0,0.16 V 1122.5601 H 793.59998 V 0.16 Z"
         transform="translate(-226.88,-508.79999)"
         clip-rule="evenodd"
         id="path10" />
    </clipPath>
  </defs>
  <sodipodi:namedview
     id="namedview1"
     pagecolor="#505050"
     bordercolor="#eeeeee"
     borderopacity="1"
     inkscape:showpageshadow="0"
     inkscape:pageopacity="0"
     inkscape:pagecheckerboard="0"
     inkscape:deskcolor="#505050">
    <inkscape:page
       x="0"
       y="0"
       inkscape:label="1"
       id="page1"
       width="378.88"
       height="487.20001"
       margin="0"
       bleed="0" />
  </sodipodi:namedview>
  <g
     id="g1"
     inkscape:groupmode="layer"
     inkscape:label="1">
    <path
       id="path1"
       d="m 0,0 c 0,-68.879997 -56.66,-124.72 -126.56,-124.72 -69.90001,0 -126.55999,55.840003 -126.55999,124.72 0,68.879997 56.65998,124.72 126.55999,124.72 C -56.66,124.72 0,68.879997 0,0 Z"
       style="fill:none;stroke:#000000;stroke-width:26.4;stroke-linecap:round;stroke-linejoin:round;stroke-miterlimit:10;stroke-dasharray:none;stroke-opacity:1"
       transform="translate(524.32001,661.62663)"
       clip-path="url(#clipPath2)" />
    <path
       id="path3"
       d="M 396.79999,338.88 V 522.56"
       style="fill:none;stroke:#000000;stroke-width:26.4;stroke-linecap:round;stroke-linejoin:round;stroke-miterlimit:10;stroke-dasharray:none;stroke-opacity:1"
       transform="translate(0,2.666608)"
       clip-path="url(#clipPath4)" />
    <path
       id="path5"
       d="M 302.39999,433.28 H 491.20001"
       style="fill:none;stroke:#000000;stroke-width:26.4;stroke-linecap:round;stroke-linejoin:round;stroke-miterlimit:10;stroke-dasharray:none;stroke-opacity:1"
       transform="translate(0,2.666608)"
       clip-path="url(#clipPath6)" />
    <path
       id="path7"
       d="M 0,0 -5.28,0.32 -10.72,0.8 -16,1.76 -21.280001,3.2 -26.4,4.8 -31.360001,6.88 -36.16,9.28 -40.799999,12 l -4.48,3.2 -4.16,3.359999 -3.84,3.680001 -3.68,3.84 -3.520001,4.32 -3.04,4.320001 -2.719998,4.64 -2.400001,4.799999 -2.080002,5.119999 -1.760002,4.960003 -1.279999,5.279998 -0.959999,5.280003 -0.64,5.439995 -0.159996,5.279999 0.159996,5.440002 0.64,5.440003 0.959999,5.279998 1.279999,5.120003 1.760002,5.119997 2.080002,5.12 2.400001,4.8 2.719998,4.64 3.04,4.32 3.520001,4.32 3.68,3.84001 3.84,3.67999 4.16,3.36 4.48,3.03999 4.639999,2.88001 4.799999,2.40001 L -26.4,146.39999 -21.280001,148 -16,149.44 l 5.28,0.95999 5.44,0.48001 5.28,0.15999"
       style="fill:none;stroke:#000000;stroke-width:26.4;stroke-linecap:round;stroke-linejoin:round;stroke-miterlimit:10;stroke-dasharray:none;stroke-opacity:1"
       transform="translate(566.71997,360.42662)"
       clip-path="url(#clipPath8)" />
    <path
       id="path9"
       d="M 0,0 5.44,-0.16 10.88,-0.64 16.16,-1.6 21.280001,-3.04 26.4,-4.64 31.360001,-6.72 36.32,-9.12 40.959999,-12 l 4.32,-3.04 4.16,-3.36 4,-3.68 3.68,-3.84 3.360001,-4.32 3.04,-4.320001 2.880002,-4.64 L 68.800003,-44 l 2.079994,-5.119999 1.600006,-5.120003 1.439995,-5.119999 0.959999,-5.279998 0.480004,-5.440003 0.159996,-5.439995 -0.159996,-5.280006 -0.480004,-5.439995 -0.959999,-5.279999 -1.439995,-5.280006 -1.600006,-4.959997 -2.079994,-5.12 -2.400001,-4.8 -2.880002,-4.64 -3.04,-4.32 -3.360001,-4.32 -3.68,-3.84 -4,-3.68 -4.16,-3.36 -4.32,-3.19999 -4.639999,-2.72 -4.959999,-2.40001 -4.960001,-2.08 -5.119999,-1.6 -5.120001,-1.44 -5.28,-0.96 -5.44,-0.48 -5.44,-0.31999"
       style="fill:none;stroke:#000000;stroke-width:26.4;stroke-linecap:round;stroke-linejoin:round;stroke-miterlimit:10;stroke-dasharray:none;stroke-opacity:1"
       transform="translate(226.88,511.4666)"
       clip-path="url(#clipPath10)" />
  </g>
</svg>
