<?xml version="1.0" encoding="UTF-8" standalone="no"?>
<!-- Created with Inkscape (http://www.inkscape.org/) -->

<svg
   version="1.1"
   id="svg1"
   width="273.48001"
   height="344.37332"
   viewBox="0 0 273.48001 344.37332"
   sodipodi:docname="AquaRegia7.pdf"
   xmlns:inkscape="http://www.inkscape.org/namespaces/inkscape"
   xmlns:sodipodi="http://sodipodi.sourceforge.net/DTD/sodipodi-0.dtd"
   xmlns="http://www.w3.org/2000/svg"
   xmlns:svg="http://www.w3.org/2000/svg">
  <defs
     id="defs1">
    <clipPath
       clipPathUnits="userSpaceOnUse"
       id="clipPath2">
      <path
         d="M 0,0.16 V 1122.5601 H 793.59998 V 0.16 Z"
         clip-rule="evenodd"
         id="path2" />
    </clipPath>
  </defs>
  <sodipodi:namedview
     id="namedview1"
     pagecolor="#505050"
     bordercolor="#eeeeee"
     borderopacity="1"
     inkscape:showpageshadow="0"
     inkscape:pageopacity="0"
     inkscape:pagecheckerboard="0"
     inkscape:deskcolor="#505050">
    <inkscape:page
       x="0"
       y="0"
       inkscape:label="1"
       id="page1"
       width="273.48001"
       height="344.37332"
       margin="0"
       bleed="0" />
  </sodipodi:namedview>
  <g
     id="g1"
     inkscape:groupmode="layer"
     inkscape:label="1">
    <path
       id="path1"
       d="m 396.79999,693.44 114.56,-198.23999 h -228.96 l 114.4,198.23999"
       style="fill:none;stroke:#000000;stroke-width:26.4;stroke-linecap:round;stroke-linejoin:round;stroke-miterlimit:10;stroke-dasharray:none;stroke-opacity:1"
       transform="translate(0,33.359941)"
       clip-path="url(#clipPath2)" />
    <path
       id="path3"
       d="m 0,0 c 0.32,0.48 1.76,2.72 4.32,6.72 2.4,4 4.16,6.72 5.28,8.32 0.96,1.44 2.4,3.679999 4.32,6.56 1.92,2.88 3.520001,5.279999 4.799999,7.039999 C 20,30.4 21.120001,31.84 22.08,32.959999 c 0,0 0.479999,0.32 0.960001,0.959999 C 23.68,34.400002 24.16,34.880001 24.639999,35.200001 24.959999,35.52 25.440001,36 26.08,36.48 c 0.639999,0.479999 1.280001,0.799999 2.08,1.119998 0.639999,0.32 1.280001,0.640004 2.08,0.800004 l -5.280001,12 C 22.4,50.080002 20,49.119999 17.76,47.68 15.36,46.080002 13.44,44.32 11.84,42.400002 6.08,36.16 -3.2,22.24 -16,0.48 -20.639999,0 -27.360001,-0.96 -36.32,-2.4 v 50.88 h -14.080002 v -99.840001 c 0,-5.919998 -0.159999,-11.2 -0.479999,-15.68 9.440002,-0.959999 16,-1.440002 19.52,-1.440002 5.120001,0 9.280001,0.160003 12.800002,0.319999 C -15.2,-68 -11.68,-67.68 -7.84,-67.040001 c 3.84,0.480003 7.04,1.279999 9.76,2.400002 2.72,0.959999 5.44,2.399997 8,4.319999 2.72,1.759999 5.12,4 7.200001,6.560002 2.24,2.879997 4.16,6.079998 5.439998,9.759998 1.440001,3.68 2.08,7.200001 2.08,10.880001 C 24.639999,-13.76 16.48,-2.72 0,0 Z m 10.72,-31.84 c 0,-5.279999 -1.76,-9.759998 -5.12,-13.759998 -2.88,-3.360001 -7.2,-5.760003 -12.64,-7.040001 -5.6,-1.440003 -13.599999,-2.080002 -23.839999,-2.080002 -2.08,0 -3.840002,0 -5.600001,0.16 L -36.32,-16 c 1.439999,0.32 4,0.8 7.680001,1.6 3.68,0.64 6.559999,1.28 8.959999,1.6 2.239999,0.32 4.48,0.48 6.72,0.48 1.44,0 2.88,-0.16 4.32,-0.32 3.52,-0.48 6.24,-0.96 8.48,-1.6 C 1.92,-15.04 4,-16 5.76,-17.440001 7.52,-18.719999 8.8,-20.639999 9.6,-22.879999 10.4,-25.280001 10.72,-28.32 10.72,-31.84 Z"
       style="fill:#000000;fill-opacity:1;fill-rule:nonzero;stroke:none"
       transform="translate(409.92001,485.03993)" />
  </g>
</svg>
