<?xml version="1.0" encoding="UTF-8" standalone="no"?>
<!-- Created with Inkscape (http://www.inkscape.org/) -->

<svg
   version="1.1"
   id="svg1"
   width="477.58667"
   height="356.38666"
   viewBox="0 0 477.58667 356.38666"
   sodipodi:docname="AquaRegia.pdf"
   xmlns:inkscape="http://www.inkscape.org/namespaces/inkscape"
   xmlns:sodipodi="http://sodipodi.sourceforge.net/DTD/sodipodi-0.dtd"
   xmlns="http://www.w3.org/2000/svg"
   xmlns:svg="http://www.w3.org/2000/svg">
  <defs
     id="defs1">
    <clipPath
       clipPathUnits="userSpaceOnUse"
       id="clipPath2">
      <path
         d="M 0,0.16 V 1122.5601 H 793.59998 V 0.16 Z"
         transform="translate(3.3333334e-6)"
         clip-rule="evenodd"
         id="path2" />
    </clipPath>
    <clipPath
       clipPathUnits="userSpaceOnUse"
       id="clipPath4">
      <path
         d="M 0,0.16 V 1122.5601 H 793.59998 V 0.16 Z"
         transform="translate(-557.28003,-402.07999)"
         clip-rule="evenodd"
         id="path4" />
    </clipPath>
  </defs>
  <sodipodi:namedview
     id="namedview1"
     pagecolor="#505050"
     bordercolor="#eeeeee"
     borderopacity="1"
     inkscape:showpageshadow="0"
     inkscape:pageopacity="0"
     inkscape:pagecheckerboard="0"
     inkscape:deskcolor="#505050">
    <inkscape:page
       x="0"
       y="0"
       inkscape:label="1"
       id="page1"
       width="477.58667"
       height="356.38666"
       margin="0"
       bleed="0" />
  </sodipodi:namedview>
  <g
     id="g1"
     inkscape:groupmode="layer"
     inkscape:label="1">
    <path
       id="path1"
       d="M 367.04001,721.76001 555.84003,400.79999 H 178.24 l 188.80001,320.96002"
       style="fill:none;stroke:#000000;stroke-width:26.4;stroke-linecap:round;stroke-linejoin:round;stroke-miterlimit:10;stroke-dasharray:none;stroke-opacity:1"
       transform="translate(-161.42667,-381.74673)"
       clip-path="url(#clipPath2)" />
    <path
       id="path3"
       d="m 0,0 2.88,0.96 8.48,2.88 6.4,2.4 4.32,1.76 7.200001,3.52 5.92,3.36 4.959999,3.52 4.32,3.52 3.68,3.84 2.240002,2.56 L 52.32,30.719999 55.040001,35.040001 57.599998,39.68 59.68,44.639999 61.599998,49.759998 62.880001,55.040001 63.84,60.48 l 0.48,5.439998 v 5.440003 l -0.48,5.279998 -0.799999,5.120003 -1.440003,4.799996 L 59.84,91.360001 58.400002,94.559998 55.84,99.040001 52.959999,103.52 l -3.52,4.32 -4,4.48 -4.48,4.48 L 36,121.12 l -5.6,4.32 -6.08,4 -6.4,3.84 -6.72,3.52 -7.04,3.2 -4.16,1.60001 -3.68,1.43998 -7.04,2.24001 -7.839999,2.24 -4.16,1.28 -6.720002,2.4 -5.12,2.24 -3.840001,2.23999 -3.199996,2.24001 -2.560002,2.56 -1.920002,2.72 -1.599998,2.88 -1.279999,3.03999 -0.799999,3.36001 -0.320004,3.52 -0.16,3.36 0.16,4.48 0.480004,4.32 0.799999,4.80001 1.119999,5.27999 1.279998,5.6 1.760003,6.24 2.079998,6.72 2.400001,7.2 2.720001,8 3.199997,8.48 3.680003,9.27999 L -26.4,260 l 4.64,11.20001 5.44,12.63999 6.4,14.72 8,17.76001 1.92,4.63998"
       style="fill:none;stroke:#000000;stroke-width:26.4;stroke-linecap:round;stroke-linejoin:round;stroke-miterlimit:10;stroke-dasharray:none;stroke-opacity:1"
       transform="translate(395.85336,20.333262)"
       clip-path="url(#clipPath4)" />
  </g>
</svg>
