<?xml version="1.0" encoding="UTF-8" standalone="no"?>
<!-- Created with Inkscape (http://www.inkscape.org/) -->

<svg
   version="1.1"
   id="svg1"
   width="360.18668"
   height="353.70667"
   viewBox="0 0 360.18668 353.70667"
   sodipodi:docname="AquaRegia6.pdf"
   xmlns:inkscape="http://www.inkscape.org/namespaces/inkscape"
   xmlns:sodipodi="http://sodipodi.sourceforge.net/DTD/sodipodi-0.dtd"
   xmlns="http://www.w3.org/2000/svg"
   xmlns:svg="http://www.w3.org/2000/svg">
  <defs
     id="defs1">
    <clipPath
       clipPathUnits="userSpaceOnUse"
       id="clipPath2">
      <path
         d="M 0,0.16 V 1122.5601 H 793.59998 V 0.16 Z"
         transform="translate(-244.48,-532.47998)"
         clip-rule="evenodd"
         id="path2" />
    </clipPath>
    <clipPath
       clipPathUnits="userSpaceOnUse"
       id="clipPath4">
      <path
         d="M 0,0.16 V 1122.5601 H 793.59998 V 0.16 Z"
         transform="translate(-320,-532.96002)"
         clip-rule="evenodd"
         id="path4" />
    </clipPath>
    <clipPath
       clipPathUnits="userSpaceOnUse"
       id="clipPath6">
      <path
         d="M 0,0.16 V 1122.5601 H 793.59998 V 0.16 Z"
         transform="translate(-320,-532.96002)"
         clip-rule="evenodd"
         id="path6" />
    </clipPath>
    <clipPath
       clipPathUnits="userSpaceOnUse"
       id="clipPath8">
      <path
         d="M 0,0.16 V 1122.5601 H 793.59998 V 0.16 Z"
         transform="translate(-395.51999,-532.96002)"
         clip-rule="evenodd"
         id="path8" />
    </clipPath>
    <clipPath
       clipPathUnits="userSpaceOnUse"
       id="clipPath10">
      <path
         d="M 0,0.16 V 1122.5601 H 793.59998 V 0.16 Z"
         transform="translate(-395.51999,-532.96002)"
         clip-rule="evenodd"
         id="path10" />
    </clipPath>
    <clipPath
       clipPathUnits="userSpaceOnUse"
       id="clipPath12">
      <path
         d="M 0,0.16 V 1122.5601 H 793.59998 V 0.16 Z"
         transform="translate(-244.48,-589.12)"
         clip-rule="evenodd"
         id="path12" />
    </clipPath>
    <clipPath
       clipPathUnits="userSpaceOnUse"
       id="clipPath14">
      <path
         d="M 0,0.16 V 1122.5601 H 793.59998 V 0.16 Z"
         transform="translate(-320,-589.59998)"
         clip-rule="evenodd"
         id="path14" />
    </clipPath>
    <clipPath
       clipPathUnits="userSpaceOnUse"
       id="clipPath16">
      <path
         d="M 0,0.16 V 1122.5601 H 793.59998 V 0.16 Z"
         transform="translate(-320,-589.59998)"
         clip-rule="evenodd"
         id="path16" />
    </clipPath>
    <clipPath
       clipPathUnits="userSpaceOnUse"
       id="clipPath18">
      <path
         d="M 0,0.16 V 1122.5601 H 793.59998 V 0.16 Z"
         transform="translate(-395.51999,-589.59998)"
         clip-rule="evenodd"
         id="path18" />
    </clipPath>
    <clipPath
       clipPathUnits="userSpaceOnUse"
       id="clipPath20">
      <path
         d="M 0,0.16 V 1122.5601 H 793.59998 V 0.16 Z"
         transform="translate(-395.51999,-589.59998)"
         clip-rule="evenodd"
         id="path20" />
    </clipPath>
    <clipPath
       clipPathUnits="userSpaceOnUse"
       id="clipPath22">
      <path
         d="M 0,0.16 V 1122.5601 H 793.59998 V 0.16 Z"
         clip-rule="evenodd"
         id="path22" />
    </clipPath>
    <clipPath
       clipPathUnits="userSpaceOnUse"
       id="clipPath24">
      <path
         d="M 0,0.16 V 1122.5601 H 793.59998 V 0.16 Z"
         transform="translate(-433.28,-410.23999)"
         clip-rule="evenodd"
         id="path24" />
    </clipPath>
    <clipPath
       clipPathUnits="userSpaceOnUse"
       id="clipPath26">
      <path
         d="M 0,0.16 V 1122.5601 H 793.59998 V 0.16 Z"
         transform="translate(-546.56,-712.32001)"
         clip-rule="evenodd"
         id="path26" />
    </clipPath>
  </defs>
  <sodipodi:namedview
     id="namedview1"
     pagecolor="#505050"
     bordercolor="#eeeeee"
     borderopacity="1"
     inkscape:showpageshadow="0"
     inkscape:pageopacity="0"
     inkscape:pagecheckerboard="0"
     inkscape:deskcolor="#505050">
    <inkscape:page
       x="0"
       y="0"
       inkscape:label="1"
       id="page1"
       width="360.18668"
       height="353.70667"
       margin="0"
       bleed="0" />
  </sodipodi:namedview>
  <g
     id="g1"
     inkscape:groupmode="layer"
     inkscape:label="1">
    <path
       id="path1"
       d="m 0,0 0.16,2.24 0.32,2.4 0.64,2.08 0.96,2.24 1.12,1.92 1.28,1.92 1.6,1.6 1.76,1.44 2.08,1.280001 L 12,18.08 l 2.08,0.639999 2.24,0.480002 2.399999,0.16 2.24,-0.16 2.240002,-0.320002 2.24,-0.639999 L 27.52,17.280001 29.440001,16.16 l 1.92,-1.44 1.599998,-1.6 1.440003,-1.76 L 35.52,9.28 36.48,7.2 l 0.799999,-2.08 0.319999,-2.4 0.16,-2.24"
       style="fill:none;stroke:#000000;stroke-width:26.4;stroke-linecap:round;stroke-linejoin:round;stroke-miterlimit:10;stroke-dasharray:none;stroke-opacity:1"
       transform="translate(244.48,532.47992)"
       clip-path="url(#clipPath2)" />
    <path
       id="path3"
       d="m 0,0 -0.16,-2.24 -0.32,-2.24 -0.64,-2.24 -0.96,-2.08 -1.28,-1.92 -1.28,-1.76 -1.76,-1.6 -1.76,-1.44 -1.92,-1.119999 -2.08,-0.960001 -2.24,-0.64 -2.239999,-0.479999 -2.24,-0.16 -2.240002,0.16 -2.24,0.479999 -2.239999,0.64 -2.08,0.960001 -1.92,1.119999 -1.760001,1.44 -1.599998,1.6 -1.440003,1.76 -1.119998,1.92 -0.96,2.08 -0.639999,2.24 -0.479999,2.24 -0.16,2.24"
       style="fill:none;stroke:#000000;stroke-width:26.4;stroke-linecap:round;stroke-linejoin:round;stroke-miterlimit:10;stroke-dasharray:none;stroke-opacity:1"
       transform="translate(320,532.95996)"
       clip-path="url(#clipPath4)" />
    <path
       id="path5"
       d="m 0,0 0.16,2.24 0.48,2.24 0.64,2.24 0.96,2.08 1.12,1.92 1.44,1.76 1.6,1.6 1.76,1.44 1.92,1.279999 2.08,0.800001 2.24,0.8 2.239999,0.319999 2.24,0.16 2.240002,-0.16 L 23.360001,18.4 25.6,17.6 27.68,16.799999 29.6,15.52 31.360001,14.08 32.959999,12.48 34.400002,10.72 35.68,8.8 l 0.959999,-2.08 0.64,-2.24 0.319999,-2.24 0.16,-2.24"
       style="fill:none;stroke:#000000;stroke-width:26.4;stroke-linecap:round;stroke-linejoin:round;stroke-miterlimit:10;stroke-dasharray:none;stroke-opacity:1"
       transform="translate(320,532.95996)"
       clip-path="url(#clipPath6)" />
    <path
       id="path7"
       d="m 0,0 -0.16,-2.24 -0.32,-2.24 -0.8,-2.24 -0.8,-2.08 -1.28,-1.92 -1.44,-1.76 -1.6,-1.6 -1.76,-1.44 -1.92,-1.119999 -2.08,-0.960001 -2.24,-0.64 -2.239999,-0.479999 -2.24,-0.16 -2.240002,0.16 -2.24,0.479999 -2.239999,0.64 -2.08,0.960001 -1.92,1.119999 -1.760001,1.44 -1.599998,1.6 -1.440003,1.76 -1.119998,1.92 -0.96,2.08 -0.639999,2.24 -0.479999,2.24 -0.16,2.24"
       style="fill:none;stroke:#000000;stroke-width:26.4;stroke-linecap:round;stroke-linejoin:round;stroke-miterlimit:10;stroke-dasharray:none;stroke-opacity:1"
       transform="translate(395.51999,532.95996)"
       clip-path="url(#clipPath8)" />
    <path
       id="path9"
       d="m 0,0 0.16,2.24 0.48,2.24 0.64,2.24 0.96,2.08 1.12,1.92 1.44,1.76 1.6,1.6 1.76,1.44 1.92,1.279999 2.08,0.800001 2.24,0.8 2.239999,0.319999 2.24,0.16 2.240002,-0.16 L 23.360001,18.4 25.6,17.6 27.68,16.799999 29.6,15.52 31.360001,14.08 32.959999,12.48 34.400002,10.72 35.68,8.8 l 0.8,-2.08 0.799999,-2.24 0.319999,-2.24 0.16,-2.24"
       style="fill:none;stroke:#000000;stroke-width:26.4;stroke-linecap:round;stroke-linejoin:round;stroke-miterlimit:10;stroke-dasharray:none;stroke-opacity:1"
       transform="translate(395.51999,532.95996)"
       clip-path="url(#clipPath10)" />
    <path
       id="path11"
       d="m 0,0 0.16,2.24 0.32,2.4 0.64,2.08 0.96,2.24 1.12,1.92 1.28,1.92 1.6,1.6 1.76,1.44 2.08,1.280001 L 12,18.08 l 2.08,0.639999 2.24,0.480002 2.399999,0.16 2.24,-0.16 2.240002,-0.320002 2.24,-0.639999 L 27.52,17.280001 29.440001,16.16 l 1.92,-1.44 1.599998,-1.6 1.440003,-1.76 L 35.52,9.28 36.48,7.2 l 0.799999,-2.08 0.319999,-2.4 0.16,-2.24"
       style="fill:none;stroke:#000000;stroke-width:26.4;stroke-linecap:round;stroke-linejoin:round;stroke-miterlimit:10;stroke-dasharray:none;stroke-opacity:1"
       transform="translate(244.48,589.11994)"
       clip-path="url(#clipPath12)" />
    <path
       id="path13"
       d="m 0,0 -0.16,-2.24 -0.32,-2.24 -0.64,-2.24 -0.96,-2.08 -1.28,-1.92 -1.28,-1.76 -1.76,-1.6 -1.76,-1.44 -1.92,-1.119999 -2.08,-0.960001 -2.24,-0.64 -2.239999,-0.479999 -2.24,-0.16 -2.240002,0.16 -2.24,0.479999 -2.239999,0.64 -2.08,0.960001 -1.92,1.119999 -1.760001,1.44 -1.599998,1.6 -1.440003,1.76 -1.119998,1.92 -0.96,2.08 -0.639999,2.24 -0.479999,2.24 -0.16,2.24"
       style="fill:none;stroke:#000000;stroke-width:26.4;stroke-linecap:round;stroke-linejoin:round;stroke-miterlimit:10;stroke-dasharray:none;stroke-opacity:1"
       transform="translate(320,589.59992)"
       clip-path="url(#clipPath14)" />
    <path
       id="path15"
       d="m 0,0 0.16,2.24 0.48,2.24 0.64,2.24 0.96,2.08 1.12,1.92 1.44,1.76 1.6,1.6 1.76,1.44 1.92,1.279999 2.08,0.800001 2.24,0.8 2.239999,0.319999 2.24,0.16 2.240002,-0.16 L 23.360001,18.4 25.6,17.6 27.68,16.799999 29.6,15.52 31.360001,14.08 32.959999,12.48 34.400002,10.72 35.68,8.8 l 0.959999,-2.08 0.64,-2.24 0.319999,-2.24 0.16,-2.24"
       style="fill:none;stroke:#000000;stroke-width:26.4;stroke-linecap:round;stroke-linejoin:round;stroke-miterlimit:10;stroke-dasharray:none;stroke-opacity:1"
       transform="translate(320,589.59992)"
       clip-path="url(#clipPath16)" />
    <path
       id="path17"
       d="m 0,0 -0.16,-2.24 -0.32,-2.24 -0.8,-2.24 -0.8,-2.08 -1.28,-1.92 -1.44,-1.76 -1.6,-1.6 -1.76,-1.44 -1.92,-1.119999 -2.08,-0.960001 -2.24,-0.64 -2.239999,-0.479999 -2.24,-0.16 -2.240002,0.16 -2.24,0.479999 -2.239999,0.64 -2.08,0.960001 -1.92,1.119999 -1.760001,1.44 -1.599998,1.6 -1.440003,1.76 -1.119998,1.92 -0.96,2.08 -0.639999,2.24 -0.479999,2.24 -0.16,2.24"
       style="fill:none;stroke:#000000;stroke-width:26.4;stroke-linecap:round;stroke-linejoin:round;stroke-miterlimit:10;stroke-dasharray:none;stroke-opacity:1"
       transform="translate(395.51999,589.59992)"
       clip-path="url(#clipPath18)" />
    <path
       id="path19"
       d="m 0,0 0.16,2.24 0.48,2.24 0.64,2.24 0.96,2.08 1.12,1.92 1.44,1.76 1.6,1.6 1.76,1.44 1.92,1.279999 2.08,0.800001 2.24,0.8 2.239999,0.319999 2.24,0.16 2.240002,-0.16 L 23.360001,18.4 25.6,17.6 27.68,16.799999 29.6,15.52 31.360001,14.08 32.959999,12.48 34.400002,10.72 35.68,8.8 l 0.8,-2.08 0.799999,-2.24 0.319999,-2.24 0.16,-2.24"
       style="fill:none;stroke:#000000;stroke-width:26.4;stroke-linecap:round;stroke-linejoin:round;stroke-miterlimit:10;stroke-dasharray:none;stroke-opacity:1"
       transform="translate(395.51999,589.59992)"
       clip-path="url(#clipPath20)" />
    <path
       id="path21"
       d="M 433.28,410.23999 V 712.32001"
       style="fill:none;stroke:#000000;stroke-width:26.4;stroke-linecap:round;stroke-linejoin:round;stroke-miterlimit:10;stroke-dasharray:none;stroke-opacity:1"
       transform="translate(0,-5.8666667e-5)"
       clip-path="url(#clipPath22)" />
    <path
       id="path23"
       d="M 0,0 7.04,0.16 14.88,0.48 22.559999,0.96 29.92,1.6 36.959999,2.56 43.84,3.84 50.240002,5.12 56.48,6.88 62.400002,8.64 68,10.72 l 5.440002,2.24 4.96,2.56 4.799995,2.72 L 87.68,21.280001 91.839996,24.48 95.68,27.84 99.199997,31.52 102.4,35.360001 105.28,39.52 l 2.4,4.32 2.24,4.64 1.92,4.799999 1.6,5.120003 1.12,5.279998 0.8,5.599999 0.48,5.599998 v 3.040001 5.279999 l -0.64,5.760002 -0.96,5.279999 -1.44,4.959999 -1.76,4.480003 -2.24,4.16 -2.56,4 -2.88,3.68 -3.36,3.52 -3.519997,3.2 -4,3.04 L 88,128.16 l -4.639999,2.56 -5.120003,2.56 -5.439995,2.39999 -5.760002,2.08 -6.080002,2.08001 -6.559997,1.91999 L 47.68,143.52 l -7.2,1.59999 -7.520001,1.44001 -7.839998,1.28 -8.160002,1.27999 L 8.48,150.08 0,151.03999"
       style="fill:none;stroke:#000000;stroke-width:26.4;stroke-linecap:round;stroke-linejoin:round;stroke-miterlimit:10;stroke-dasharray:none;stroke-opacity:1"
       transform="translate(433.28,410.23993)"
       clip-path="url(#clipPath24)" />
    <path
       id="path25"
       d="m 0,0 -2.88,-10.88 -3.36,-10.72 -3.84,-10.56 -4.16,-10.400001 -4.800001,-10.239998 -5.279999,-9.920002 -5.6,-9.760002 -6.08,-9.599999 -6.400002,-9.119995 -6.879997,-8.960003 -7.200001,-8.64 -7.680004,-8.16 -8,-8 -8.319999,-7.52 -8.64,-7.19999 -8.959999,-6.88001 -9.279998,-6.40001"
       style="fill:none;stroke:#000000;stroke-width:26.4;stroke-linecap:round;stroke-linejoin:round;stroke-miterlimit:10;stroke-dasharray:none;stroke-opacity:1"
       transform="translate(546.56,712.31995)"
       clip-path="url(#clipPath26)" />
  </g>
</svg>
