<?xml version="1.0" encoding="UTF-8" standalone="no"?>
<!-- Created with Inkscape (http://www.inkscape.org/) -->

<svg
   version="1.1"
   id="svg1"
   width="329.51999"
   height="352.38666"
   viewBox="0 0 329.51999 352.38666"
   sodipodi:docname="AquaForte5.pdf"
   xmlns:inkscape="http://www.inkscape.org/namespaces/inkscape"
   xmlns:sodipodi="http://sodipodi.sourceforge.net/DTD/sodipodi-0.dtd"
   xmlns="http://www.w3.org/2000/svg"
   xmlns:svg="http://www.w3.org/2000/svg">
  <defs
     id="defs1">
    <clipPath
       clipPathUnits="userSpaceOnUse"
       id="clipPath2">
      <path
         d="M 0,0.16 V 1122.5601 H 793.59998 V 0.16 Z"
         transform="translate(-3.3333334e-6)"
         clip-rule="evenodd"
         id="path2" />
    </clipPath>
    <clipPath
       clipPathUnits="userSpaceOnUse"
       id="clipPath4">
      <path
         d="M 0,0.16 V 1122.5601 H 793.59998 V 0.16 Z"
         transform="translate(-3.3333334e-6)"
         clip-rule="evenodd"
         id="path4" />
    </clipPath>
    <clipPath
       clipPathUnits="userSpaceOnUse"
       id="clipPath6">
      <path
         d="M 0,0.16 V 1122.5601 H 793.59998 V 0.16 Z"
         transform="translate(-230.39999,-650.08002)"
         clip-rule="evenodd"
         id="path6" />
    </clipPath>
    <clipPath
       clipPathUnits="userSpaceOnUse"
       id="clipPath8">
      <path
         d="M 0,0.16 V 1122.5601 H 793.59998 V 0.16 Z"
         transform="translate(-3.3333334e-6)"
         clip-rule="evenodd"
         id="path8" />
    </clipPath>
  </defs>
  <sodipodi:namedview
     id="namedview1"
     pagecolor="#505050"
     bordercolor="#eeeeee"
     borderopacity="1"
     inkscape:showpageshadow="0"
     inkscape:pageopacity="0"
     inkscape:pagecheckerboard="0"
     inkscape:deskcolor="#505050">
    <inkscape:page
       x="0"
       y="0"
       inkscape:label="1"
       id="page1"
       width="329.51999"
       height="352.38666"
       margin="0"
       bleed="0" />
  </sodipodi:namedview>
  <g
     id="g1"
     inkscape:groupmode="layer"
     inkscape:label="1">
    <path
       id="path1"
       d="M 340.95999,572 H 510.88"
       style="fill:none;stroke:#000000;stroke-width:26.4;stroke-linecap:round;stroke-linejoin:round;stroke-miterlimit:10;stroke-dasharray:none;stroke-opacity:1"
       transform="translate(-206.77333,-357.72006)"
       clip-path="url(#clipPath2)" />
    <path
       id="path3"
       d="M 397.60001,383.20001 H 510.88"
       style="fill:none;stroke:#000000;stroke-width:26.4;stroke-linecap:round;stroke-linejoin:round;stroke-miterlimit:10;stroke-dasharray:none;stroke-opacity:1"
       transform="translate(-206.77333,-357.72006)"
       clip-path="url(#clipPath4)" />
    <path
       id="path5"
       d="m 0,0 -0.48,3.52 v 3.52 l 0.16,3.52 0.64,3.36 0.8,3.360001 L 2.4,20.639999 3.84,23.84 5.6,26.719999 7.68,29.6 l 2.24,2.72 2.56,2.400001 2.72,2.079998 2.88,1.920002 3.040001,1.599999 3.199999,1.439998 3.36,0.960003 3.360001,0.799999 3.52,0.32 3.520001,0.16 3.519996,-0.32 3.360001,-0.479999 L 48.32,42.240002 51.68,41.119999 54.880001,39.68 57.759998,37.919998 60.639999,35.84 63.200001,33.599998 65.760002,31.040001 67.839996,28.32 69.760002,25.440001 71.360001,22.24 72.800003,19.040001 73.760002,15.68 74.559998,12.32"
       style="fill:none;stroke:#000000;stroke-width:26.4;stroke-linecap:round;stroke-linejoin:round;stroke-miterlimit:10;stroke-dasharray:none;stroke-opacity:1"
       transform="translate(23.626661,292.35996)"
       clip-path="url(#clipPath6)" />
    <path
       id="path7"
       d="m 303.20001,666.40002 94.4,-283.20001 L 492,666.40002"
       style="fill:none;stroke:#000000;stroke-width:26.4;stroke-linecap:round;stroke-linejoin:round;stroke-miterlimit:10;stroke-dasharray:none;stroke-opacity:1"
       transform="translate(-206.77333,-357.72006)"
       clip-path="url(#clipPath8)" />
  </g>
</svg>
