<?xml version="1.0" encoding="UTF-8" standalone="no"?>
<!-- Created with Inkscape (http://www.inkscape.org/) -->

<svg
   version="1.1"
   id="svg1"
   width="286.82666"
   height="344.37332"
   viewBox="0 0 286.82666 344.37332"
   sodipodi:docname="AquaRegia2.pdf"
   xmlns:inkscape="http://www.inkscape.org/namespaces/inkscape"
   xmlns:sodipodi="http://sodipodi.sourceforge.net/DTD/sodipodi-0.dtd"
   xmlns="http://www.w3.org/2000/svg"
   xmlns:svg="http://www.w3.org/2000/svg">
  <defs
     id="defs1">
    <clipPath
       clipPathUnits="userSpaceOnUse"
       id="clipPath2">
      <path
         d="M 0,0.16 V 1122.5601 H 793.59998 V 0.16 Z"
         transform="translate(-431.04001,-408.48001)"
         clip-rule="evenodd"
         id="path2" />
    </clipPath>
    <clipPath
       clipPathUnits="userSpaceOnUse"
       id="clipPath4">
      <path
         d="M 0,0.16 V 1122.5601 H 793.59998 V 0.16 Z"
         clip-rule="evenodd"
         id="path4" />
    </clipPath>
    <clipPath
       clipPathUnits="userSpaceOnUse"
       id="clipPath6">
      <path
         d="M 0,0.16 V 1122.5601 H 793.59998 V 0.16 Z"
         clip-rule="evenodd"
         id="path6" />
    </clipPath>
  </defs>
  <sodipodi:namedview
     id="namedview1"
     pagecolor="#505050"
     bordercolor="#eeeeee"
     borderopacity="1"
     inkscape:showpageshadow="0"
     inkscape:pageopacity="0"
     inkscape:pagecheckerboard="0"
     inkscape:deskcolor="#505050">
    <inkscape:page
       x="0"
       y="0"
       inkscape:label="1"
       id="page1"
       width="286.82666"
       height="344.37332"
       margin="0"
       bleed="0" />
  </sodipodi:namedview>
  <g
     id="g1"
     inkscape:groupmode="layer"
     inkscape:label="1">
    <path
       id="path1"
       d="m 0,0 3.04,0.16 8.8,0.64 6.879999,0.64 4.640002,0.48 7.68,1.44 6.719997,1.6 5.760002,2.08 5.119999,2.24 4.64,2.72 L 56,13.92 l 2.560001,1.76 3.680001,3.360001 3.679996,3.839998 3.520004,4.160002 3.040001,4.479999 2.879998,4.8 2.239997,4.959999 1.919999,5.120003 1.440002,5.119998 0.959999,5.279999 0.480004,5.119999 v 5.120003 l -0.32,4.959999 -0.64,3.519997 -1.279998,4.960006 -1.600006,5.119995 -2.079995,5.120003 -2.720001,5.440003 -3.200004,5.439996 -3.680001,5.6 -4.159996,5.6 -4.639999,5.44 -5.280003,5.44 -5.599998,5.28001 -5.760002,4.79998 -3.520001,2.72001 -3.359997,2.4 -6.080001,4 -7.039999,4.32 -3.520001,2.40001 -5.92,4 -4.32,3.51998 -3.2,3.20002 -2.4,3.03999 -1.76,3.2 -1.12,3.04001 -0.8,3.19999 -0.32,3.36 0.16,3.36 0.48,3.51999 0.8,3.36 1.28,4.16001 1.76,4.16 1.92,4.31999 2.56,4.64 2.88,5.12001 3.2,5.44 3.839999,5.76 4.320002,6.08 4.959999,6.72 5.44,6.87999 6.079998,7.52001 6.720002,8 7.52,8.64 8.639999,9.28 9.440003,9.92001 10.879997,10.88 10.239998,9.91999"
       style="fill:none;stroke:#000000;stroke-width:26.4;stroke-linecap:round;stroke-linejoin:round;stroke-miterlimit:10;stroke-dasharray:none;stroke-opacity:1"
       transform="translate(431.04001,415.14662)"
       clip-path="url(#clipPath2)" />
    <path
       id="path3"
       d="M 276.79999,712.32001 427.84,410.23999 v 302.08002"
       style="fill:none;stroke:#000000;stroke-width:26.4;stroke-linecap:round;stroke-linejoin:round;stroke-miterlimit:10;stroke-dasharray:none;stroke-opacity:1"
       transform="translate(0,6.666608)"
       clip-path="url(#clipPath4)" />
    <path
       id="path5"
       d="m 344.79999,580.15997 h 75.52002"
       style="fill:none;stroke:#000000;stroke-width:26.4;stroke-linecap:round;stroke-linejoin:round;stroke-miterlimit:10;stroke-dasharray:none;stroke-opacity:1"
       transform="translate(0,6.666608)"
       clip-path="url(#clipPath6)" />
  </g>
</svg>
