<?xml version="1.0" encoding="UTF-8" standalone="no"?>
<!-- Created with Inkscape (http://www.inkscape.org/) -->

<svg
   version="1.1"
   id="svg1"
   width="245.46667"
   height="335.04001"
   viewBox="0 0 245.46667 335.04001"
   sodipodi:docname="AquaMercurii3.pdf"
   xmlns:inkscape="http://www.inkscape.org/namespaces/inkscape"
   xmlns:sodipodi="http://sodipodi.sourceforge.net/DTD/sodipodi-0.dtd"
   xmlns="http://www.w3.org/2000/svg"
   xmlns:svg="http://www.w3.org/2000/svg">
  <defs
     id="defs1">
    <clipPath
       clipPathUnits="userSpaceOnUse"
       id="clipPath2">
      <path
         d="M 0,0.16 V 1122.5601 H 793.59998 V 0.16 Z"
         transform="translate(-309.44,-418.39999)"
         clip-rule="evenodd"
         id="path2" />
    </clipPath>
    <clipPath
       clipPathUnits="userSpaceOnUse"
       id="clipPath4">
      <path
         d="M 0,0.16 V 1122.5601 H 793.59998 V 0.16 Z"
         transform="translate(-3.3333333e-6)"
         clip-rule="evenodd"
         id="path4" />
    </clipPath>
    <clipPath
       clipPathUnits="userSpaceOnUse"
       id="clipPath6">
      <path
         d="M 0,0.16 V 1122.5601 H 793.59998 V 0.16 Z"
         transform="translate(-3.3333333e-6)"
         clip-rule="evenodd"
         id="path6" />
    </clipPath>
    <clipPath
       clipPathUnits="userSpaceOnUse"
       id="clipPath8">
      <path
         d="M 0,0.16 V 1122.5601 H 793.59998 V 0.16 Z"
         transform="translate(-3.3333333e-6)"
         clip-rule="evenodd"
         id="path8" />
    </clipPath>
    <clipPath
       clipPathUnits="userSpaceOnUse"
       id="clipPath10">
      <path
         d="M 0,0.16 V 1122.5601 H 793.59998 V 0.16 Z"
         transform="translate(-3.3333333e-6)"
         clip-rule="evenodd"
         id="path10" />
    </clipPath>
  </defs>
  <sodipodi:namedview
     id="namedview1"
     pagecolor="#505050"
     bordercolor="#eeeeee"
     borderopacity="1"
     inkscape:showpageshadow="0"
     inkscape:pageopacity="0"
     inkscape:pagecheckerboard="0"
     inkscape:deskcolor="#505050">
    <inkscape:page
       x="0"
       y="0"
       inkscape:label="1"
       id="page1"
       width="245.46667"
       height="335.04001"
       margin="0"
       bleed="0" />
  </sodipodi:namedview>
  <g
     id="g1"
     inkscape:groupmode="layer"
     inkscape:label="1">
    <path
       id="path1"
       d="m 0,0 0.16,6.08 0.64,6.24 0.96,6.08 1.44,5.92 1.76,5.92 2.08,5.76 2.56,5.759998 3.04,5.440003 3.2,5.119999 3.520001,5.119999 4,4.800003 4.159999,4.479999 4.64,4.159996 4.639999,4 5.119999,3.520005 5.280003,3.36 5.439998,2.879997 5.600003,2.559998 L 64,89.279999 l 5.919998,1.919998 5.919998,1.280006 6.080002,1.119995 6.240006,0.480004 6.079994,0.32 6.240002,-0.32 6.24,-0.480004 6.08,-1.119995 5.92,-1.280006 5.92,-1.919998 5.75999,-2.080002 5.60001,-2.559998 5.44,-2.879997 5.28,-3.36 5.12,-3.520005 4.64,-4 4.63999,-4.159996 4.16001,-4.479999 4,-4.800003 L 172.8,52.32 176,47.200001 179.03999,41.759998 181.60001,36 l 2.07998,-5.76 1.76001,-5.92 1.44,-5.92 0.96,-6.08 0.64,-6.24 0.16,-6.08"
       style="fill:none;stroke:#000000;stroke-width:26.4;stroke-linecap:round;stroke-linejoin:round;stroke-miterlimit:10;stroke-dasharray:none;stroke-opacity:1"
       transform="translate(26.626669,25.973269)"
       clip-path="url(#clipPath2)" />
    <path
       id="path3"
       d="M 309.44,437.28 H 498.07999"
       style="fill:none;stroke:#000000;stroke-width:26.4;stroke-linecap:round;stroke-linejoin:round;stroke-miterlimit:10;stroke-dasharray:none;stroke-opacity:1"
       transform="translate(-282.81333,-392.42673)"
       clip-path="url(#clipPath4)" />
    <path
       id="path5"
       d="M 366.07999,512.79999 309.44,607.20001 H 498.07999 L 441.44,512.79999"
       style="fill:none;stroke:#000000;stroke-width:26.4;stroke-linecap:round;stroke-linejoin:round;stroke-miterlimit:10;stroke-dasharray:none;stroke-opacity:1"
       transform="translate(-282.81333,-392.42673)"
       clip-path="url(#clipPath6)" />
    <path
       id="path7"
       d="M 403.67999,512.79999 V 701.59998"
       style="fill:none;stroke:#000000;stroke-width:26.4;stroke-linecap:round;stroke-linejoin:round;stroke-miterlimit:10;stroke-dasharray:none;stroke-opacity:1"
       transform="translate(-282.81333,-392.42673)"
       clip-path="url(#clipPath8)" />
    <path
       id="path9"
       d="M 384.95999,701.59998 H 422.56"
       style="fill:none;stroke:#000000;stroke-width:26.4;stroke-linecap:round;stroke-linejoin:round;stroke-miterlimit:10;stroke-dasharray:none;stroke-opacity:1"
       transform="translate(-282.81333,-392.42673)"
       clip-path="url(#clipPath10)" />
  </g>
</svg>
