<?xml version="1.0" encoding="UTF-8" standalone="no"?>
<!-- Created with Inkscape (http://www.inkscape.org/) -->

<svg
   version="1.1"
   id="svg1"
   width="413.54666"
   height="262.95999"
   viewBox="0 0 413.54666 262.95999"
   sodipodi:docname="ArsenicSulphate.pdf"
   xmlns:inkscape="http://www.inkscape.org/namespaces/inkscape"
   xmlns:sodipodi="http://sodipodi.sourceforge.net/DTD/sodipodi-0.dtd"
   xmlns="http://www.w3.org/2000/svg"
   xmlns:svg="http://www.w3.org/2000/svg">
  <defs
     id="defs1">
    <clipPath
       clipPathUnits="userSpaceOnUse"
       id="clipPath2">
      <path
         d="M 0,0.16 V 1122.5601 H 793.59998 V 0.16 Z"
         transform="translate(-359.04001,-599.03998)"
         clip-rule="evenodd"
         id="path2" />
    </clipPath>
    <clipPath
       clipPathUnits="userSpaceOnUse"
       id="clipPath4">
      <path
         d="M 0,0.16 V 1122.5601 H 793.59998 V 0.16 Z"
         transform="translate(-585.59998,-599.03998)"
         clip-rule="evenodd"
         id="path4" />
    </clipPath>
    <clipPath
       clipPathUnits="userSpaceOnUse"
       id="clipPath6">
      <path
         d="M 0,0.16 V 1122.5601 H 793.59998 V 0.16 Z"
         clip-rule="evenodd"
         id="path6" />
    </clipPath>
    <clipPath
       clipPathUnits="userSpaceOnUse"
       id="clipPath8">
      <path
         d="M 0,0.16 V 1122.5601 H 793.59998 V 0.16 Z"
         clip-rule="evenodd"
         id="path8" />
    </clipPath>
    <clipPath
       clipPathUnits="userSpaceOnUse"
       id="clipPath10">
      <path
         d="M 0,0.16 V 1122.5601 H 793.59998 V 0.16 Z"
         transform="translate(-311.84,-599.03998)"
         clip-rule="evenodd"
         id="path10" />
    </clipPath>
    <clipPath
       clipPathUnits="userSpaceOnUse"
       id="clipPath12">
      <path
         d="M 0,0.16 V 1122.5601 H 793.59998 V 0.16 Z"
         transform="translate(-538.40002,-599.03998)"
         clip-rule="evenodd"
         id="path12" />
    </clipPath>
    <clipPath
       clipPathUnits="userSpaceOnUse"
       id="clipPath14">
      <path
         d="M 0,0.16 V 1122.5601 H 793.59998 V 0.16 Z"
         transform="translate(-311.84,-599.03998)"
         clip-rule="evenodd"
         id="path14" />
    </clipPath>
    <clipPath
       clipPathUnits="userSpaceOnUse"
       id="clipPath16">
      <path
         d="M 0,0.16 V 1122.5601 H 793.59998 V 0.16 Z"
         clip-rule="evenodd"
         id="path16" />
    </clipPath>
    <clipPath
       clipPathUnits="userSpaceOnUse"
       id="clipPath18">
      <path
         d="M 0,0.16 V 1122.5601 H 793.59998 V 0.16 Z"
         clip-rule="evenodd"
         id="path18" />
    </clipPath>
  </defs>
  <sodipodi:namedview
     id="namedview1"
     pagecolor="#505050"
     bordercolor="#eeeeee"
     borderopacity="1"
     inkscape:showpageshadow="0"
     inkscape:pageopacity="0"
     inkscape:pagecheckerboard="0"
     inkscape:deskcolor="#505050">
    <inkscape:page
       x="0"
       y="0"
       inkscape:label="1"
       id="page1"
       width="413.54666"
       height="262.95999"
       margin="0"
       bleed="0" />
  </sodipodi:namedview>
  <g
     id="g1"
     inkscape:groupmode="layer"
     inkscape:label="1">
    <path
       id="path1"
       d="m 0,0 c 0,-41.700001 -33.810001,-75.519997 -75.519997,-75.519997 -41.710003,0 -75.519993,33.819996 -75.519993,75.519997 0,41.700001 33.80999,75.519997 75.519993,75.519997 C -33.810001,75.519997 0,41.700001 0,0 Z"
       style="fill:none;stroke:#000000;stroke-width:26.4;stroke-linecap:round;stroke-linejoin:round;stroke-miterlimit:10;stroke-dasharray:none;stroke-opacity:1"
       transform="translate(359.04001,601.70659)"
       clip-path="url(#clipPath2)" />
    <path
       id="path3"
       d="m 0,0 c 0,-41.700001 -33.810001,-75.519997 -75.519997,-75.519997 -41.710003,0 -75.519993,33.819996 -75.519993,75.519997 0,41.700001 33.80999,75.519997 75.519993,75.519997 C -33.810001,75.519997 0,41.700001 0,0 Z"
       style="fill:none;stroke:#000000;stroke-width:26.4;stroke-linecap:round;stroke-linejoin:round;stroke-miterlimit:10;stroke-dasharray:none;stroke-opacity:1"
       transform="translate(585.59998,601.70659)"
       clip-path="url(#clipPath4)" />
    <path
       id="path5"
       d="M 359.04001,599.03998 H 434.56"
       style="fill:none;stroke:#000000;stroke-width:26.4;stroke-linecap:round;stroke-linejoin:round;stroke-miterlimit:10;stroke-dasharray:none;stroke-opacity:1"
       transform="translate(0,2.666608)"
       clip-path="url(#clipPath6)" />
    <path
       id="path7"
       d="M 396.79999,448 V 599.03998"
       style="fill:none;stroke:#000000;stroke-width:26.4;stroke-linecap:round;stroke-linejoin:round;stroke-miterlimit:10;stroke-dasharray:none;stroke-opacity:1"
       transform="translate(0,2.666608)"
       clip-path="url(#clipPath8)" />
    <path
       id="path9"
       d="m 0,0 -0.16,-2.88 -0.48,-3.04 -0.64,-2.88 -1.12,-2.72 -1.28,-2.56 -1.6,-2.559999 -1.92,-2.24 -2.08,-2.08 -2.4,-1.92 -2.4,-1.600001 -2.719999,-1.44 L -19.52,-26.879999 -22.4,-27.68 l -2.880001,-0.48 -3.039999,-0.16 -2.880001,0.16 -2.880001,0.48 -2.879997,0.800001 L -39.84,-25.92 l -2.560002,1.44 -2.559997,1.600001 -2.240002,1.92 -2.079998,2.08 -1.920002,2.24 -1.599998,2.559999 -1.280003,2.56 -1.119999,2.72 L -56,-5.92 -56.48,-2.88 -56.639999,0 -56.48,3.04 -56,5.92 l 0.799999,2.88 1.119999,2.72 1.280003,2.72 1.599998,2.399999 1.920002,2.400002 2.079998,2.08 2.240002,1.759998 2.559997,1.600001 2.560002,1.44 2.880001,0.959999 2.879997,0.800001 2.880001,0.48 2.880001,0.16 3.039999,-0.16 L -22.4,27.68 -19.52,26.879999 -16.799999,25.92 -14.08,24.48 l 2.4,-1.600001 2.4,-1.759998 2.08,-2.08 1.92,-2.400002 L -3.68,14.24 -2.4,11.52 -1.28,8.8 -0.64,5.92 -0.16,3.04 0,0 v 0 z"
       style="fill:#000000;fill-opacity:1;fill-rule:evenodd;stroke:none"
       transform="translate(311.84,601.70659)"
       clip-path="url(#clipPath10)" />
    <path
       id="path11"
       d="m 0,0 -0.16,-2.88 -0.48,-3.04 -0.64,-2.88 -1.12,-2.72 -1.28,-2.56 -1.76,-2.559999 -1.76,-2.24 -2.08,-2.08 -2.4,-1.92 -2.4,-1.600001 -2.719999,-1.44 L -19.52,-26.879999 -22.4,-27.68 l -2.880001,-0.48 -3.039999,-0.16 -2.880001,0.16 -3.040001,0.48 -2.719997,0.800001 L -39.84,-25.92 l -2.560002,1.44 -2.559997,1.600001 -2.240002,1.92 -2.079998,2.08 -1.920002,2.24 -1.599998,2.559999 -1.280003,2.56 -1.119999,2.72 L -56,-5.92 -56.48,-2.88 -56.639999,0 -56.48,3.04 -56,5.92 l 0.799999,2.88 1.119999,2.72 1.280003,2.72 1.599998,2.399999 1.920002,2.400002 2.079998,2.08 2.240002,1.759998 2.559997,1.600001 2.560002,1.44 2.880001,0.959999 2.719997,0.800001 3.040001,0.48 2.880001,0.16 3.039999,-0.16 L -22.4,27.68 -19.52,26.879999 -16.799999,25.92 -14.08,24.48 l 2.4,-1.600001 2.4,-1.759998 2.08,-2.08 1.76,-2.400002 L -3.68,14.24 -2.4,11.52 -1.28,8.8 -0.64,5.92 -0.16,3.04 0,0 v 0 z"
       style="fill:#000000;fill-opacity:1;fill-rule:evenodd;stroke:none"
       transform="translate(538.40002,601.70659)"
       clip-path="url(#clipPath12)" />
    <path
       id="path13"
       d="m 0,0 -0.16,-2.88 -0.48,-3.04 -0.64,-2.88 -1.12,-2.72 -1.28,-2.56 -1.6,-2.559999 -1.92,-2.24 -2.08,-2.08 -2.4,-1.92 -2.4,-1.600001 -2.719999,-1.44 L -19.52,-26.879999 -22.4,-27.68 l -2.880001,-0.48 -3.039999,-0.16 -2.880001,0.16 -2.880001,0.48 -2.879997,0.800001 L -39.84,-25.92 l -2.560002,1.44 -2.559997,1.600001 -2.240002,1.92 -2.079998,2.08 -1.920002,2.24 -1.599998,2.559999 -1.280003,2.56 -1.119999,2.72 L -56,-5.92 -56.48,-2.88 -56.639999,0 -56.48,3.04 -56,5.92 l 0.799999,2.88 1.119999,2.72 1.280003,2.72 1.599998,2.399999 1.920002,2.400002 2.079998,2.08 2.240002,1.759998 2.559997,1.600001 2.560002,1.44 2.880001,0.959999 2.879997,0.800001 2.880001,0.48 2.880001,0.16 3.039999,-0.16 L -22.4,27.68 -19.52,26.879999 -16.799999,25.92 -14.08,24.48 l 2.4,-1.600001 2.4,-1.759998 2.08,-2.08 1.92,-2.400002 L -3.68,14.24 -2.4,11.52 -1.28,8.8 -0.64,5.92 -0.16,3.04 0,0 m 226.56,0 -0.16001,-2.88 -0.47999,-3.04 -0.64,-2.88 -1.12,-2.72 -1.28,-2.56 -1.76001,-2.559999 -1.75999,-2.24 -2.08,-2.08 -2.4,-1.92 -2.4,-1.600001 -2.72001,-1.44 -2.72,-0.959999 L 204.16,-27.68 l -2.88,-0.48 -3.04,-0.16 -2.88,0.16 -3.03999,0.48 -2.72,0.800001 -2.88001,0.959999 -2.56,1.44 -2.55999,1.600001 -2.24001,1.92 -2.08,2.08 -1.92,2.24 -1.60001,2.559999 -1.27999,2.56 -1.12,2.72 -0.8,2.88 -0.48,3.04 -0.16,2.88 0.16,3.04 0.48,2.88 0.8,2.88 1.12,2.72 1.27999,2.72 1.60001,2.399999 1.92,2.400002 2.08,2.08 2.24001,1.759998 2.55999,1.600001 2.56,1.44 2.88001,0.959999 2.72,0.800001 3.03999,0.48 2.88,0.16 3.04,-0.16 2.88,-0.48 2.87999,-0.800001 2.72,-0.959999 2.72001,-1.44 2.4,-1.600001 2.4,-1.759998 2.08,-2.08 1.75999,-2.400002 L 222.88,14.24 224.16,11.52 225.28,8.8 225.92,5.92 226.39999,3.04 226.56,0"
       style="fill:none;stroke:#000000;stroke-width:0.48;stroke-linecap:round;stroke-linejoin:round;stroke-miterlimit:10;stroke-dasharray:none;stroke-opacity:1"
       transform="translate(311.84,601.70659)"
       clip-path="url(#clipPath14)" />
    <path
       id="path15"
       d="M 359.04001,523.52002 434.56,448"
       style="fill:none;stroke:#000000;stroke-width:26.4;stroke-linecap:round;stroke-linejoin:round;stroke-miterlimit:10;stroke-dasharray:none;stroke-opacity:1"
       transform="translate(0,2.666608)"
       clip-path="url(#clipPath16)" />
    <path
       id="path17"
       d="M 359.04001,448 434.56,523.52002"
       style="fill:none;stroke:#000000;stroke-width:26.4;stroke-linecap:round;stroke-linejoin:round;stroke-miterlimit:10;stroke-dasharray:none;stroke-opacity:1"
       transform="translate(0,2.666608)"
       clip-path="url(#clipPath18)" />
  </g>
</svg>
