<?xml version="1.0" encoding="UTF-8" standalone="no"?>
<!-- Created with Inkscape (http://www.inkscape.org/) -->

<svg
   version="1.1"
   id="svg1"
   width="397.54666"
   height="477.85333"
   viewBox="0 0 397.54666 477.85333"
   sodipodi:docname="AurumMusivum.pdf"
   xmlns:inkscape="http://www.inkscape.org/namespaces/inkscape"
   xmlns:sodipodi="http://sodipodi.sourceforge.net/DTD/sodipodi-0.dtd"
   xmlns="http://www.w3.org/2000/svg"
   xmlns:svg="http://www.w3.org/2000/svg">
  <defs
     id="defs1">
    <clipPath
       clipPathUnits="userSpaceOnUse"
       id="clipPath2">
      <path
         d="M 0,0.16 V 1122.5601 H 793.59998 V 0.16 Z"
         clip-rule="evenodd"
         id="path2" />
    </clipPath>
    <clipPath
       clipPathUnits="userSpaceOnUse"
       id="clipPath4">
      <path
         d="M 0,0.16 V 1122.5601 H 793.59998 V 0.16 Z"
         clip-rule="evenodd"
         id="path4" />
    </clipPath>
    <clipPath
       clipPathUnits="userSpaceOnUse"
       id="clipPath6">
      <path
         d="M 0,0.16 V 1122.5601 H 793.59998 V 0.16 Z"
         transform="translate(-252.48,-507.51999)"
         clip-rule="evenodd"
         id="path6" />
    </clipPath>
    <clipPath
       clipPathUnits="userSpaceOnUse"
       id="clipPath8">
      <path
         d="M 0,0.16 V 1122.5601 H 793.59998 V 0.16 Z"
         clip-rule="evenodd"
         id="path8" />
    </clipPath>
  </defs>
  <sodipodi:namedview
     id="namedview1"
     pagecolor="#505050"
     bordercolor="#eeeeee"
     borderopacity="1"
     inkscape:showpageshadow="0"
     inkscape:pageopacity="0"
     inkscape:pagecheckerboard="0"
     inkscape:deskcolor="#505050">
    <inkscape:page
       x="0"
       y="0"
       inkscape:label="1"
       id="page1"
       width="397.54666"
       height="477.85333"
       margin="0"
       bleed="0" />
  </sodipodi:namedview>
  <g
     id="g1"
     inkscape:groupmode="layer"
     inkscape:label="1">
    <path
       id="path1"
       d="m 399.67999,365.92001 v 266.72"
       style="fill:none;stroke:#000000;stroke-width:26.4;stroke-linecap:round;stroke-linejoin:round;stroke-miterlimit:10;stroke-dasharray:none;stroke-opacity:1"
       transform="translate(-197.44,-317.68006)"
       clip-path="url(#clipPath2)" />
    <path
       id="path3"
       d="m 470.39999,507.51999 h -212.32"
       style="fill:none;stroke:#000000;stroke-width:26.4;stroke-linecap:round;stroke-linejoin:round;stroke-miterlimit:10;stroke-dasharray:none;stroke-opacity:1"
       transform="translate(-197.44,-317.68006)"
       clip-path="url(#clipPath4)" />
    <path
       id="path5"
       d="m 0,0 3.52,-2.08 10.56,-6.4 7.040001,-4.64 4.959999,-3.2 8.000002,-5.92 6.719997,-5.44 5.440003,-5.119999 4.479999,-4.959999 3.84,-4.800003 3.199997,-4.959999 1.280003,-1.919999 1.599998,-3.36 2.240002,-4.959999 1.759998,-5.120003 L 66.080002,-68.32 67.040001,-74.080002 67.68,-79.839996 67.839996,-85.760002 67.519997,-91.68 66.720001,-97.440002 65.599998,-103.2 64,-108.8 l -1.919998,-5.28 -2.400002,-4.96 -0.639999,-1.28 -1.920002,-3.04 -3.039997,-4.48 -3.520001,-4.48001 -4.159999,-4.47999 -4.640004,-4.31999 -5.119999,-4.48002 -6.08,-4.63999 -6.719999,-4.79999 -8,-5.12001 -9.6,-5.92 -6.24,-3.67999"
       style="fill:none;stroke:#000000;stroke-width:26.4;stroke-linecap:round;stroke-linejoin:round;stroke-miterlimit:10;stroke-dasharray:none;stroke-opacity:1"
       transform="translate(55.039996,189.83993)"
       clip-path="url(#clipPath6)" />
    <path
       id="path7"
       d="M 389.76001,776.64001 219.84,635.03998 h 353.92001 l -184,141.60003"
       style="fill:none;stroke:#000000;stroke-width:26.4;stroke-linecap:round;stroke-linejoin:round;stroke-miterlimit:10;stroke-dasharray:none;stroke-opacity:1"
       transform="translate(-197.44,-317.68006)"
       clip-path="url(#clipPath8)" />
  </g>
</svg>
