<?xml version="1.0" encoding="UTF-8" standalone="no"?>
<!-- Created with Inkscape (http://www.inkscape.org/) -->

<svg
   version="1.1"
   id="svg1"
   width="380.20001"
   height="284.32001"
   viewBox="0 0 380.20001 284.32001"
   sodipodi:docname="Borax15.pdf"
   xmlns:inkscape="http://www.inkscape.org/namespaces/inkscape"
   xmlns:sodipodi="http://sodipodi.sourceforge.net/DTD/sodipodi-0.dtd"
   xmlns="http://www.w3.org/2000/svg"
   xmlns:svg="http://www.w3.org/2000/svg">
  <defs
     id="defs1">
    <clipPath
       clipPathUnits="userSpaceOnUse"
       id="clipPath2">
      <path
         d="M 0,0.16 V 1122.5601 H 793.59998 V 0.16 Z"
         transform="translate(-505.44,-449.11999)"
         clip-rule="evenodd"
         id="path2" />
    </clipPath>
    <clipPath
       clipPathUnits="userSpaceOnUse"
       id="clipPath4">
      <path
         d="M 0,0.16 V 1122.5601 H 793.59998 V 0.16 Z"
         transform="translate(-278.88,-675.67999)"
         clip-rule="evenodd"
         id="path4" />
    </clipPath>
    <clipPath
       clipPathUnits="userSpaceOnUse"
       id="clipPath6">
      <path
         d="M 0,0.16 V 1122.5601 H 793.59998 V 0.16 Z"
         clip-rule="evenodd"
         id="path6" />
    </clipPath>
    <clipPath
       clipPathUnits="userSpaceOnUse"
       id="clipPath8">
      <path
         d="M 0,0.16 V 1122.5601 H 793.59998 V 0.16 Z"
         clip-rule="evenodd"
         id="path8" />
    </clipPath>
    <clipPath
       clipPathUnits="userSpaceOnUse"
       id="clipPath10">
      <path
         d="M 0,0.16 V 1122.5601 H 793.59998 V 0.16 Z"
         clip-rule="evenodd"
         id="path10" />
    </clipPath>
    <clipPath
       clipPathUnits="userSpaceOnUse"
       id="clipPath12">
      <path
         d="M 0,0.16 V 1122.5601 H 793.59998 V 0.16 Z"
         clip-rule="evenodd"
         id="path12" />
    </clipPath>
    <clipPath
       clipPathUnits="userSpaceOnUse"
       id="clipPath14">
      <path
         d="M 0,0.16 V 1122.5601 H 793.59998 V 0.16 Z"
         clip-rule="evenodd"
         id="path14" />
    </clipPath>
    <clipPath
       clipPathUnits="userSpaceOnUse"
       id="clipPath16">
      <path
         d="M 0,0.16 V 1122.5601 H 793.59998 V 0.16 Z"
         transform="translate(-297.76001,-675.67999)"
         clip-rule="evenodd"
         id="path16" />
    </clipPath>
    <clipPath
       clipPathUnits="userSpaceOnUse"
       id="clipPath18">
      <path
         d="M 0,0.16 V 1122.5601 H 793.59998 V 0.16 Z"
         transform="translate(-377.60001,-451.04001)"
         clip-rule="evenodd"
         id="path18" />
    </clipPath>
  </defs>
  <sodipodi:namedview
     id="namedview1"
     pagecolor="#505050"
     bordercolor="#eeeeee"
     borderopacity="1"
     inkscape:showpageshadow="0"
     inkscape:pageopacity="0"
     inkscape:pagecheckerboard="0"
     inkscape:deskcolor="#505050">
    <inkscape:page
       x="0"
       y="0"
       inkscape:label="1"
       id="page1"
       width="380.20001"
       height="284.32001"
       margin="0"
       bleed="0" />
  </sodipodi:namedview>
  <g
     id="g1"
     inkscape:groupmode="layer"
     inkscape:label="1">
    <path
       id="path1"
       d="m 0,0 -6.72,0.32 -6.88,0.64 -6.72,0.96 -6.720001,1.44 -6.559997,1.76 -6.560002,2.24 -6.240002,2.72 -6.239997,3.04 -5.920002,3.36 -5.759999,3.68 -5.440002,4 -5.279999,4.32 L -80,33.279999 l -4.800003,4.960003 -4.32,5.279998 -4,5.439999 -3.839996,5.760002 -3.360001,5.919998 -2.88,6.239998 -2.72,6.240006 -2.24,6.559997 -1.76,6.559998 -1.44,6.720001 -1.12,6.720001 -0.48,6.88 -0.32,6.72"
       style="fill:none;stroke:#000000;stroke-width:26.4;stroke-linecap:round;stroke-linejoin:round;stroke-miterlimit:10;stroke-dasharray:none;stroke-opacity:1"
       transform="translate(304,29.999936)"
       clip-path="url(#clipPath2)" />
    <path
       id="path3"
       d="m 0,0 6.88,-0.16 6.88,-0.64 6.72,-0.96 6.720001,-1.44 6.559997,-1.92 6.400002,-2.24 6.400001,-2.56 6.079998,-3.04 6.080002,-3.36 5.760002,-3.68 5.439995,-4 5.279999,-4.48 4.960007,-4.639999 4.639999,-4.960003 4.479996,-5.279999 4,-5.439998 3.68,-5.760002 3.360001,-6.079998 3.04,-6.080002 2.56,-6.400002 2.24,-6.399994 1.92,-6.560005 1.44,-6.720001 0.96,-6.719994 0.64,-6.880003 0.16,-6.88"
       style="fill:none;stroke:#000000;stroke-width:26.4;stroke-linecap:round;stroke-linejoin:round;stroke-miterlimit:10;stroke-dasharray:none;stroke-opacity:1"
       transform="translate(77.440005,256.55993)"
       clip-path="url(#clipPath4)" />
    <path
       id="path5"
       d="m 505.44,449.12 v 94.40002"
       style="fill:none;stroke:#000000;stroke-width:26.4;stroke-linecap:round;stroke-linejoin:round;stroke-miterlimit:10;stroke-dasharray:none;stroke-opacity:1"
       transform="translate(-201.44,-419.12006)"
       clip-path="url(#clipPath6)" />
    <path
       id="path7"
       d="M 505.44,543.52002 H 486.56"
       style="fill:none;stroke:#000000;stroke-width:26.4;stroke-linecap:round;stroke-linejoin:round;stroke-miterlimit:10;stroke-dasharray:none;stroke-opacity:1"
       transform="translate(-201.44,-419.12006)"
       clip-path="url(#clipPath8)" />
    <path
       id="path9"
       d="m 332.32001,563.03998 h 113.28"
       style="fill:none;stroke:#000000;stroke-width:26.4;stroke-linecap:round;stroke-linejoin:round;stroke-miterlimit:10;stroke-dasharray:none;stroke-opacity:1"
       transform="translate(-201.44,-419.12006)"
       clip-path="url(#clipPath10)" />
    <path
       id="path11"
       d="M 318.56,600.96002 H 431.84"
       style="fill:none;stroke:#000000;stroke-width:26.4;stroke-linecap:round;stroke-linejoin:round;stroke-miterlimit:10;stroke-dasharray:none;stroke-opacity:1"
       transform="translate(-201.44,-419.12006)"
       clip-path="url(#clipPath12)" />
    <path
       id="path13"
       d="M 298.72,640.47998 H 412"
       style="fill:none;stroke:#000000;stroke-width:26.4;stroke-linecap:round;stroke-linejoin:round;stroke-miterlimit:10;stroke-dasharray:none;stroke-opacity:1"
       transform="translate(-201.44,-419.12006)"
       clip-path="url(#clipPath14)" />
    <path
       id="path15"
       d="m 0,0 -3.2,0.16 -4.96,0.16 h -4.64 l -4.320001,-0.16 -4.32,-0.32 -3.84,-0.32 -3.84,-0.64 -3.519998,-0.8 L -36,-2.88 -39.360001,-4 l -2.079998,-0.8 -1.280002,-0.64 -3.360001,-1.76 -3.039997,-1.92 -2.720001,-2.08 -2.560002,-2.4 -2.239997,-2.72 -1.600003,-2.559999 L -58.720001,-19.68 -60,-22.4 l -1.439999,-3.52 -0.960003,-3.84 -0.479999,-3.679999 v -3.84 l 0.16,-0.479999 v -0.960003 l 0.639999,-2.879997 0.960003,-3.360001 L -59.68,-48 l 1.920002,-3.040001 2.239998,-2.719997 2.240001,-2.080002 0.799999,-0.799999 3.040001,-2.240002 3.199997,-1.439999 3.040001,-0.959999 3.040001,-0.479999 3.200001,-0.16 3.200001,0.32 3.359998,0.639999 3.520001,1.119999 3.679998,1.279999 3.84,1.760002 0.480002,0.16"
       style="fill:none;stroke:#000000;stroke-width:26.4;stroke-linecap:round;stroke-linejoin:round;stroke-miterlimit:10;stroke-dasharray:none;stroke-opacity:1"
       transform="translate(96.32001,256.55993)"
       clip-path="url(#clipPath16)" />
    <path
       id="path17"
       d="m 0,0 2.88,5.76 3.2,5.6 3.68,5.439999 3.84,5.120001 4.32,4.799999 4.639999,4.480002 4.800002,4.319999 5.119999,4 5.439998,3.520001 5.600002,3.200001 5.759999,2.879997 6.080002,2.560001 6.079998,2.079998 6.240001,1.600003 6.400002,1.279998 6.400001,0.8 6.399994,0.479999 h 6.560005 l 6.399994,-0.479999 6.400004,-0.8 6.4,-1.279998 6.24,-1.600003 L 124.96,51.68 131.03999,49.279999 136.8,46.400002 142.39999,43.200001 147.84,39.68 l 5.12001,-4 4.79998,-4.16 4.64,-4.640001 L 166.72,22.08 l 4,-5.120001 L 174.24,11.52 177.60001,6.08 180.48,0.16"
       style="fill:none;stroke:#000000;stroke-width:26.4;stroke-linecap:round;stroke-linejoin:round;stroke-miterlimit:10;stroke-dasharray:none;stroke-opacity:1"
       transform="translate(176.16001,31.91995)"
       clip-path="url(#clipPath18)" />
  </g>
</svg>
