<?xml version="1.0" encoding="UTF-8" standalone="no"?>
<!-- Created with Inkscape (http://www.inkscape.org/) -->

<svg
   version="1.1"
   id="svg1"
   width="421.56"
   height="360.39999"
   viewBox="0 0 421.56 360.39999"
   sodipodi:docname="Borax10.pdf"
   xmlns:inkscape="http://www.inkscape.org/namespaces/inkscape"
   xmlns:sodipodi="http://sodipodi.sourceforge.net/DTD/sodipodi-0.dtd"
   xmlns="http://www.w3.org/2000/svg"
   xmlns:svg="http://www.w3.org/2000/svg">
  <defs
     id="defs1">
    <clipPath
       clipPathUnits="userSpaceOnUse"
       id="clipPath2">
      <path
         d="M 0,0.16 V 1122.5601 H 793.59998 V 0.16 Z"
         transform="translate(-249.60001,-603.20002)"
         clip-rule="evenodd"
         id="path2" />
    </clipPath>
    <clipPath
       clipPathUnits="userSpaceOnUse"
       id="clipPath4">
      <path
         d="M 0,0.16 V 1122.5601 H 793.59998 V 0.16 Z"
         transform="translate(-435.35999,-636.96003)"
         clip-rule="evenodd"
         id="path4" />
    </clipPath>
    <clipPath
       clipPathUnits="userSpaceOnUse"
       id="clipPath6">
      <path
         d="M 0,0.16 V 1122.5601 H 793.59998 V 0.16 Z"
         clip-rule="evenodd"
         id="path6" />
    </clipPath>
    <clipPath
       clipPathUnits="userSpaceOnUse"
       id="clipPath8">
      <path
         d="M 0,0.16 V 1122.5601 H 793.59998 V 0.16 Z"
         clip-rule="evenodd"
         id="path8" />
    </clipPath>
    <clipPath
       clipPathUnits="userSpaceOnUse"
       id="clipPath10">
      <path
         d="M 0,0.16 V 1122.5601 H 793.59998 V 0.16 Z"
         clip-rule="evenodd"
         id="path10" />
    </clipPath>
    <clipPath
       clipPathUnits="userSpaceOnUse"
       id="clipPath12">
      <path
         d="M 0,0.16 V 1122.5601 H 793.59998 V 0.16 Z"
         clip-rule="evenodd"
         id="path12" />
    </clipPath>
    <clipPath
       clipPathUnits="userSpaceOnUse"
       id="clipPath14">
      <path
         d="M 0,0.16 V 1122.5601 H 793.59998 V 0.16 Z"
         clip-rule="evenodd"
         id="path14" />
    </clipPath>
    <clipPath
       clipPathUnits="userSpaceOnUse"
       id="clipPath16">
      <path
         d="M 0,0.16 V 1122.5601 H 793.59998 V 0.16 Z"
         clip-rule="evenodd"
         id="path16" />
    </clipPath>
  </defs>
  <sodipodi:namedview
     id="namedview1"
     pagecolor="#505050"
     bordercolor="#eeeeee"
     borderopacity="1"
     inkscape:showpageshadow="0"
     inkscape:pageopacity="0"
     inkscape:pagecheckerboard="0"
     inkscape:deskcolor="#505050">
    <inkscape:page
       x="0"
       y="0"
       inkscape:label="1"
       id="page1"
       width="421.56"
       height="360.39999"
       margin="0"
       bleed="0" />
  </sodipodi:namedview>
  <g
     id="g1"
     inkscape:groupmode="layer"
     inkscape:label="1">
    <path
       id="path1"
       d="m 0,0 -0.96,6.08 -0.48,6.24 -0.16,6.08 0.32,6.239999 0.8,6.08 1.12,6.08 1.44,6.080002 L 4,48.799999 6.24,54.400002 8.96,60 l 2.88,5.440002 3.36,5.279999 3.679999,4.959999 4,4.64 4.320002,4.480003 L 31.84,88.959999 36.639999,92.800003 41.759998,96.32 47.040001,99.360001 52.48,102.24 58.240002,104.64 64,106.72 69.919998,108.48 76,109.76 l 6.080002,0.96 6.080002,0.48 6.239998,0.16 6.239998,-0.32 6.08,-0.8 6.08,-1.12 5.92,-1.44 5.92,-1.92 5.75999,-2.24 5.60001,-2.72 5.44,-2.880002 5.12,-3.36 4.96,-3.680001 4.80001,-4 4.31999,-4.319999 4.16,-4.64 3.84,-4.799995 L 172.16,68 l 3.2,-5.279999 2.88,-5.440002 2.4,-5.599999 2.08,-5.920002 1.76,-5.919998 1.27999,-6.080002"
       style="fill:none;stroke:#000000;stroke-width:26.4;stroke-linecap:round;stroke-linejoin:round;stroke-miterlimit:10;stroke-dasharray:none;stroke-opacity:1"
       transform="translate(249.60001,604.53329)"
       clip-path="url(#clipPath2)" />
    <path
       id="path3"
       d="m 0,0 -0.64,4.48 -0.32,4.48 0.16,4.32 0.32,4.48 0.8,4.32 1.12,4.32 1.44,4.319999 1.76,4.000002 2.08,4 2.4,3.680001 2.72,3.519996 2.88,3.360001 3.2,3.040001 3.520001,2.880001 3.519998,2.559997 3.84,2.240002 4,1.919998 4.16,1.760002 4.32,1.279999 4.319999,0.959999 4.32,0.64 4.480004,0.160003 h 4.479999 l 4.32,-0.480003 4.479999,-0.64 L 72,64.480003 76.160004,63.040001 80.32,61.279999 84.160004,59.200001 88,56.799999 l 3.519997,-2.719997 3.36,-2.880001 L 97.919998,48 100.8,44.48 l 2.56,-3.680001 2.24,-3.84 1.92,-4 1.6,-4 1.28,-4.32 0.96,-4.319999"
       style="fill:none;stroke:#000000;stroke-width:26.4;stroke-linecap:round;stroke-linejoin:round;stroke-miterlimit:10;stroke-dasharray:none;stroke-opacity:1"
       transform="translate(435.35999,638.2933)"
       clip-path="url(#clipPath4)" />
    <path
       id="path5"
       d="M 434.56,627.35998 491.20001,438.56"
       style="fill:none;stroke:#000000;stroke-width:26.4;stroke-linecap:round;stroke-linejoin:round;stroke-miterlimit:10;stroke-dasharray:none;stroke-opacity:1"
       transform="translate(0,1.3332747)"
       clip-path="url(#clipPath6)" />
    <path
       id="path7"
       d="M 396.79999,438.56 H 566.71997"
       style="fill:none;stroke:#000000;stroke-width:26.4;stroke-linecap:round;stroke-linejoin:round;stroke-miterlimit:10;stroke-dasharray:none;stroke-opacity:1"
       transform="translate(0,1.3332747)"
       clip-path="url(#clipPath8)" />
    <path
       id="path9"
       d="m 585.59998,400.79999 -18.88001,75.52002"
       style="fill:none;stroke:#000000;stroke-width:26.4;stroke-linecap:round;stroke-linejoin:round;stroke-miterlimit:10;stroke-dasharray:none;stroke-opacity:1"
       transform="translate(0,1.3332747)"
       clip-path="url(#clipPath10)" />
    <path
       id="path11"
       d="M 396.79999,400.79999 377.92001,457.44"
       style="fill:none;stroke:#000000;stroke-width:26.4;stroke-linecap:round;stroke-linejoin:round;stroke-miterlimit:10;stroke-dasharray:none;stroke-opacity:1"
       transform="translate(0,1.3332747)"
       clip-path="url(#clipPath12)" />
    <path
       id="path13"
       d="m 208.64,597.12 h 69.92"
       style="fill:none;stroke:#000000;stroke-width:26.4;stroke-linecap:round;stroke-linejoin:round;stroke-miterlimit:10;stroke-dasharray:none;stroke-opacity:1"
       transform="translate(0,1.3332747)"
       clip-path="url(#clipPath14)" />
    <path
       id="path15"
       d="m 508.95999,636.47998 h 74.39999"
       style="fill:none;stroke:#000000;stroke-width:26.4;stroke-linecap:round;stroke-linejoin:round;stroke-miterlimit:10;stroke-dasharray:none;stroke-opacity:1"
       transform="translate(0,1.3332747)"
       clip-path="url(#clipPath16)" />
  </g>
</svg>
