<?xml version="1.0" encoding="UTF-8" standalone="no"?>
<!-- Created with Inkscape (http://www.inkscape.org/) -->

<svg
   version="1.1"
   id="svg1"
   width="509.61334"
   height="513.89331"
   viewBox="0 0 509.61334 513.89331"
   sodipodi:docname="Borax7.pdf"
   xmlns:inkscape="http://www.inkscape.org/namespaces/inkscape"
   xmlns:sodipodi="http://sodipodi.sourceforge.net/DTD/sodipodi-0.dtd"
   xmlns="http://www.w3.org/2000/svg"
   xmlns:svg="http://www.w3.org/2000/svg">
  <defs
     id="defs1">
    <clipPath
       clipPathUnits="userSpaceOnUse"
       id="clipPath2">
      <path
         d="M 0,0.16 V 1122.5601 H 793.59998 V 0.16 Z"
         transform="translate(-491.20001,-372.48001)"
         clip-rule="evenodd"
         id="path2" />
    </clipPath>
    <clipPath
       clipPathUnits="userSpaceOnUse"
       id="clipPath4">
      <path
         d="M 0,0.16 V 1122.5601 H 793.59998 V 0.16 Z"
         clip-rule="evenodd"
         id="path4" />
    </clipPath>
    <clipPath
       clipPathUnits="userSpaceOnUse"
       id="clipPath6">
      <path
         d="M 0,0.16 V 1122.5601 H 793.59998 V 0.16 Z"
         clip-rule="evenodd"
         id="path6" />
    </clipPath>
    <clipPath
       clipPathUnits="userSpaceOnUse"
       id="clipPath8">
      <path
         d="M 0,0.16 V 1122.5601 H 793.59998 V 0.16 Z"
         transform="translate(-774.40002,-655.67999)"
         clip-rule="evenodd"
         id="path8" />
    </clipPath>
  </defs>
  <sodipodi:namedview
     id="namedview1"
     pagecolor="#505050"
     bordercolor="#eeeeee"
     borderopacity="1"
     inkscape:showpageshadow="0"
     inkscape:pageopacity="0"
     inkscape:pagecheckerboard="0"
     inkscape:deskcolor="#505050">
    <inkscape:page
       x="0"
       y="0"
       inkscape:label="1"
       id="page1"
       width="509.61334"
       height="513.89331"
       margin="0"
       bleed="0" />
  </sodipodi:namedview>
  <g
     id="g1"
     inkscape:groupmode="layer"
     inkscape:label="1">
    <path
       id="path1"
       d="M 0,0 C 0,-52.130001 -42.259998,-94.400002 -94.400002,-94.400002 -146.53999,-94.400002 -188.8,-52.130001 -188.8,0 c 0,52.130001 42.26001,94.400002 94.399998,94.400002 C -42.259998,94.400002 0,52.130001 0,0 Z"
       style="fill:none;stroke:#000000;stroke-width:26.4;stroke-linecap:round;stroke-linejoin:round;stroke-miterlimit:10;stroke-dasharray:none;stroke-opacity:1"
       transform="translate(491.20001,465.91995)"
       clip-path="url(#clipPath2)" />
    <path
       id="path3"
       d="M 396.79999,466.88 V 655.67999"
       style="fill:none;stroke:#000000;stroke-width:26.4;stroke-linecap:round;stroke-linejoin:round;stroke-miterlimit:10;stroke-dasharray:none;stroke-opacity:1"
       transform="translate(0,93.439941)"
       clip-path="url(#clipPath4)" />
    <path
       id="path5"
       d="M 396.79999,655.67999 H 585.59998"
       style="fill:none;stroke:#000000;stroke-width:26.4;stroke-linecap:round;stroke-linejoin:round;stroke-miterlimit:10;stroke-dasharray:none;stroke-opacity:1"
       transform="translate(0,93.439941)"
       clip-path="url(#clipPath6)" />
    <path
       id="path7"
       d="m 0,0 -0.16,-6.08 -0.64,-6.24 -0.96,-6.08 -1.44,-6.08 -1.76,-5.92 -2.24,-5.76 -2.56,-5.599998 -2.88,-5.440003 -3.2,-5.279999 -3.68,-4.959999 -3.840001,-4.800003 -4.319999,-4.479999 -4.48,-4.159996 -4.799999,-4 -4.959999,-3.520005 -5.280003,-3.36 -5.439998,-2.879997 -5.600003,-2.559998 L -64,-89.440002 -69.919998,-91.199997 -76,-92.639999 l -6.080002,-0.959999 -6.080002,-0.64 -6.239998,-0.160004 -6.079998,0.160004 -6.24,0.64 -6.08,0.959999 -5.92,1.440002 -5.92,1.759995 -5.92,2.240005 -5.6,2.559998 -5.44001,2.879997 -5.27999,3.36 -4.96,3.520005 -4.8,4 -4.47999,4.159996 -4.16001,4.479999 -4,4.800003 -3.52,4.959999 -3.36,5.279999 -2.87999,5.440003 -2.56002,5.599998 -2.07998,5.76 -1.92002,5.92 -1.27999,6.08 -1.12,6.08 -0.48,6.24 -0.32,6.08 0.32,6.24 0.48,6.08 1.12,6.08 1.27999,6.08 1.92002,5.92 2.07998,5.76 2.56002,5.599998 2.87999,5.440003 3.36,5.279999 3.52,4.959999 4,4.800003 4.16001,4.479999 4.47999,4.32 4.8,3.839996 4.96,3.680001 5.27999,3.200004 5.44001,2.879997 5.6,2.559998 5.92,2.240005 5.92,1.759995 5.92,1.440002 6.08,0.959999 6.24,0.64 6.079998,0.160004 6.239998,-0.160004 6.080002,-0.64 L -76,92.639999 -69.919998,91.199997 -64,89.440002 l 5.759998,-2.240005 5.600003,-2.559998 5.439998,-2.879997 5.280003,-3.200004 4.959999,-3.680001 4.799999,-3.839996 4.48,-4.32 4.319999,-4.479999 L -19.52,57.439999 -15.84,52.48 -12.64,47.200001 -9.76,41.759998 -7.2,36.16 -4.96,30.4 -3.2,24.48 -1.76,18.4 -0.8,12.32 -0.16,6.24 0,0"
       style="fill:none;stroke:#000000;stroke-width:26.4;stroke-linecap:round;stroke-linejoin:round;stroke-miterlimit:10;stroke-dasharray:none;stroke-opacity:1"
       transform="translate(774.40002,749.11993)"
       clip-path="url(#clipPath8)" />
  </g>
</svg>
