<?xml version="1.0" encoding="UTF-8" standalone="no"?>
<!-- Created with Inkscape (http://www.inkscape.org/) -->

<svg
   version="1.1"
   id="svg1"
   width="230.78667"
   height="285.64001"
   viewBox="0 0 230.78667 285.64001"
   sodipodi:docname="BurnedAlum.pdf"
   xmlns:inkscape="http://www.inkscape.org/namespaces/inkscape"
   xmlns:sodipodi="http://sodipodi.sourceforge.net/DTD/sodipodi-0.dtd"
   xmlns="http://www.w3.org/2000/svg"
   xmlns:svg="http://www.w3.org/2000/svg">
  <defs
     id="defs1">
    <clipPath
       clipPathUnits="userSpaceOnUse"
       id="clipPath2">
      <path
         d="M 0,0.16 V 1122.5601 H 793.59998 V 0.16 Z"
         transform="translate(-270.23999,-656.32001)"
         clip-rule="evenodd"
         id="path2" />
    </clipPath>
    <clipPath
       clipPathUnits="userSpaceOnUse"
       id="clipPath4">
      <path
         d="M 0,0.16 V 1122.5601 H 793.59998 V 0.16 Z"
         transform="translate(-337.60001,-585.91998)"
         clip-rule="evenodd"
         id="path4" />
    </clipPath>
    <clipPath
       clipPathUnits="userSpaceOnUse"
       id="clipPath6">
      <path
         d="M 0,0.16 V 1122.5601 H 793.59998 V 0.16 Z"
         transform="translate(-348.95999,-588.96002)"
         clip-rule="evenodd"
         id="path6" />
    </clipPath>
  </defs>
  <sodipodi:namedview
     id="namedview1"
     pagecolor="#505050"
     bordercolor="#eeeeee"
     borderopacity="1"
     inkscape:showpageshadow="0"
     inkscape:pageopacity="0"
     inkscape:pagecheckerboard="0"
     inkscape:deskcolor="#505050">
    <inkscape:page
       x="0"
       y="0"
       inkscape:label="1"
       id="page1"
       width="230.78667"
       height="285.64001"
       margin="0"
       bleed="0" />
  </sodipodi:namedview>
  <g
     id="g1"
     inkscape:groupmode="layer"
     inkscape:label="1">
    <path
       id="path1"
       d="m 0,0 1.6,5.12 1.44,4.96 1.76,4.8 1.76,4.320001 1.92,4 1.92,3.679998 1.92,3.360001 2.08,2.879999 2.08,2.720001 2.239999,2.079998 2.24,1.760002 2.240002,1.439999 2.24,0.960003 2.239999,0.639999 2.24,0.16 2.4,-0.32 2.240001,-0.640003 2.239998,-1.119999 2.240002,-1.439998 2.239998,-1.920002 2.080002,-2.239998 L 45.439999,32.48 47.52,29.440001 49.439999,25.92 51.360001,22.24 53.279999,18.08 55.040001,13.6 56.639999,8.8 58.240002,3.84 59.68,-1.44 l 1.279999,-5.6 1.280003,-5.76 1.119999,-6.079999 0.959999,-6.240002 0.800003,-6.399999 0.639999,-6.399998 0.64,-6.720001 0.479995,-6.720002 0.32,-6.720001 0.160004,-6.879997 v -6.879997 -6.880005 l -0.32,-6.720001 -0.32,-6.879998 -0.480003,-6.559997 -0.64,-6.720003 -0.799995,-6.4 -0.960003,-6.24 -0.959999,-6.24 -1.120003,-5.91999 L 60.48,-136 59.040001,-141.60001 57.599998,-146.72 56,-151.67999 54.240002,-156.32001 52.48,-160.64 l -1.919999,-4 -1.920002,-3.52 -1.919998,-3.36 -2.080002,-2.87999 -2.079998,-2.56002 L 40.32,-179.03999 38.080002,-180.8 35.84,-182.08 l -2.240002,-0.95999 -2.239997,-0.48001 -2.400002,-0.15999 -2.24,0.31999 -2.239999,0.8 -2.24,1.12 -2.24,1.6 -2.24,1.92 -2.08,2.24001 -2.08,2.87999 -2.08,3.04001 -1.92,3.51999 -1.92,3.84001 -1.92,4.15999 -1.6,4.48001 -1.76,4.79998 -1.44,5.12001 -1.44,5.28 -1.28,5.59999 -1.28,5.92001 -1.12,5.92"
       style="fill:none;stroke:#000000;stroke-width:26.4;stroke-linecap:round;stroke-linejoin:round;stroke-miterlimit:10;stroke-dasharray:none;stroke-opacity:1"
       transform="translate(26.106657,219.83995)"
       clip-path="url(#clipPath2)" />
    <path
       id="path3"
       d="m 0,0 h 5.12 l 4.96,-0.48 4.96,-0.8 4.96,-1.12 4.639999,-1.6 4.640002,-1.92 4.479997,-2.24 4.320004,-2.72 4,-2.88 3.839996,-3.360001 3.520001,-3.519998 3.36,-3.840001 2.880001,-4.159999 2.560002,-4.16 2.239998,-4.48 1.920002,-4.800003 L 64,-46.720001 65.120003,-51.68 l 0.799995,-4.959999 0.32,-4.959999 v -5.120003 L 65.760002,-71.68 64.959999,-76.639999 63.68,-81.599998 l -1.599998,-4.64 L 60.16,-90.879997 57.919998,-95.360001 55.200001,-99.68 l -3.040001,-4 -3.200001,-3.84 -3.68,-3.52 -3.84,-3.2 -4,-2.88 -4.32,-2.56 -4.48,-2.24 -4.799999,-1.92 -4.799999,-1.44 -4.800001,-1.12 -4.96,-0.8 -5.12,-0.32 H -0.8 l -4.96,0.48 -4.96,0.96 -4.96,1.12 -4.64,1.6 -4.639999,2.08 -4.480002,2.24 -4.159997,2.72 -4.16,3.04"
       style="fill:none;stroke:#000000;stroke-width:26.4;stroke-linecap:round;stroke-linejoin:round;stroke-miterlimit:10;stroke-dasharray:none;stroke-opacity:1"
       transform="translate(93.466673,149.43992)"
       clip-path="url(#clipPath4)" />
    <path
       id="path5"
       d="m 0,0 3.36,0.32 4,0.8 3.84,1.12 3.84,1.44 3.519999,1.92 3.520001,2.24 3.360001,2.56 3.199998,3.04 3.040001,3.359999 3.040001,4 2.879997,4.320002 L 40.48,29.76 l 0.959999,1.76 0.960003,1.919999 2.399997,4.640003 2.080002,4.479999 2.079998,4.64 1.920002,4.639999 1.759998,4.959999 1.920002,5.600003 0.48,1.760002 0.479999,1.279998 1.439999,4.32 3.84,10.559998 1.920002,4.639999 3.040001,6.239998 0.64,1.280006 2.400001,4 1.279999,1.759995 2.559997,2.560002 2.720002,2.24 2.879997,1.76 3.200004,1.44 3.360001,1.28 3.68,0.96 4,0.64 4.159996,0.64 4.640001,0.48 h 0.64"
       style="fill:none;stroke:#000000;stroke-width:26.4;stroke-linecap:round;stroke-linejoin:round;stroke-miterlimit:10;stroke-dasharray:none;stroke-opacity:1"
       transform="translate(104.82666,152.47996)"
       clip-path="url(#clipPath6)" />
  </g>
</svg>
