<?xml version="1.0" encoding="UTF-8" standalone="no"?>
<!-- Created with Inkscape (http://www.inkscape.org/) -->

<svg
   version="1.1"
   id="svg1"
   width="466.90668"
   height="501.89334"
   viewBox="0 0 466.90668 501.89334"
   sodipodi:docname="CalcinatedLead8.pdf"
   xmlns:inkscape="http://www.inkscape.org/namespaces/inkscape"
   xmlns:sodipodi="http://sodipodi.sourceforge.net/DTD/sodipodi-0.dtd"
   xmlns="http://www.w3.org/2000/svg"
   xmlns:svg="http://www.w3.org/2000/svg">
  <defs
     id="defs1">
    <clipPath
       clipPathUnits="userSpaceOnUse"
       id="clipPath2">
      <path
         d="M 0,0.16 V 1122.5601 H 793.59998 V 0.16 Z"
         transform="translate(-302.72,-636.64001)"
         clip-rule="evenodd"
         id="path2" />
    </clipPath>
    <clipPath
       clipPathUnits="userSpaceOnUse"
       id="clipPath4">
      <path
         d="M 0,0.16 V 1122.5601 H 793.59998 V 0.16 Z"
         clip-rule="evenodd"
         id="path4" />
    </clipPath>
    <clipPath
       clipPathUnits="userSpaceOnUse"
       id="clipPath6">
      <path
         d="M 0,0.16 V 1122.5601 H 793.59998 V 0.16 Z"
         clip-rule="evenodd"
         id="path6" />
    </clipPath>
    <clipPath
       clipPathUnits="userSpaceOnUse"
       id="clipPath8">
      <path
         d="M 0,0.16 V 1122.5601 H 793.59998 V 0.16 Z"
         clip-rule="evenodd"
         id="path8" />
    </clipPath>
    <clipPath
       clipPathUnits="userSpaceOnUse"
       id="clipPath10">
      <path
         d="M 0,0.16 V 1122.5601 H 793.59998 V 0.16 Z"
         clip-rule="evenodd"
         id="path10" />
    </clipPath>
    <clipPath
       clipPathUnits="userSpaceOnUse"
       id="clipPath12">
      <path
         d="M 0,0.16 V 1122.5601 H 793.59998 V 0.16 Z"
         clip-rule="evenodd"
         id="path12" />
    </clipPath>
    <clipPath
       clipPathUnits="userSpaceOnUse"
       id="clipPath14">
      <path
         d="M 0,0.16 V 1122.5601 H 793.59998 V 0.16 Z"
         clip-rule="evenodd"
         id="path14" />
    </clipPath>
  </defs>
  <sodipodi:namedview
     id="namedview1"
     pagecolor="#505050"
     bordercolor="#eeeeee"
     borderopacity="1"
     inkscape:showpageshadow="0"
     inkscape:pageopacity="0"
     inkscape:pagecheckerboard="0"
     inkscape:deskcolor="#505050">
    <inkscape:page
       x="0"
       y="0"
       inkscape:label="1"
       id="page1"
       width="466.90668"
       height="501.89334"
       margin="0"
       bleed="0" />
  </sodipodi:namedview>
  <g
     id="g1"
     inkscape:groupmode="layer"
     inkscape:label="1">
    <path
       id="path1"
       d="m 0,0 0.16,8.32 0.8,8.16 0.96,8 1.6,8.159999 1.92,7.840001 2.4,7.84 2.88,7.68 3.2,7.52 3.68,7.359997 4,7.040001 4.48,6.880005 4.639999,6.719994 L 36,97.919998 41.439999,104 l 5.760002,5.76 6.079998,5.44 6.400001,5.12 6.559998,4.8 6.880005,4.32 7.199997,4.16001 7.36,3.51998 7.519997,3.36001 7.680003,2.72 7.68,2.40001 8,1.91999 8,1.59999 8.16,1.12001 8.16,0.64 8.15999,0.32 8.16001,-0.32 8.16,-0.64 8.16,-1.12001 8,-1.59999 7.84,-1.91999 7.84,-2.40001 7.68,-2.72 7.51999,-3.36001 7.36,-3.51998 7.20002,-4.16001 6.87999,-4.32 6.55999,-4.8 6.40001,-5.12 6.08,-5.44 5.76001,-5.76 5.43998,-6.080002 5.12002,-6.400001 4.79999,-6.719994 4.48001,-6.880005 4,-7.040001 L 288.16,63.52 291.35999,56 l 2.72,-7.68 2.40002,-7.84 L 298.56,32.639999 300,24.48 l 1.12,-8 0.64001,-8.16 0.31998,-8.16 -0.31998,-8.16 -0.64001,-8.16 -1.12,-8.16 -1.44,-8 -2.07999,-8 -2.40002,-7.84 -2.72,-7.68 -3.19999,-7.520001 -3.67999,-7.36 -4,-7.040001 -4.48001,-6.879997 -4.79999,-6.720002 -5.12002,-6.239997 -5.43998,-6.240002 -5.76001,-5.76 -6.08,-5.44 -6.40001,-5.12 -6.55999,-4.8 -6.87999,-4.32 -7.20002,-4 -7.36,-3.68001 -7.51999,-3.19999 -7.68,-2.87999 -7.84,-2.40001 -7.84,-1.92 -8,-1.60001 -8.16,-1.11999 -8.16,-0.64 -8.32,-0.31999"
       style="fill:none;stroke:#000000;stroke-width:26.4;stroke-linecap:round;stroke-linejoin:round;stroke-miterlimit:10;stroke-dasharray:none;stroke-opacity:1"
       transform="translate(302.72,635.30662)"
       clip-path="url(#clipPath2)" />
    <path
       id="path3"
       d="M 453.76001,485.76001 V 334.72"
       style="fill:none;stroke:#000000;stroke-width:26.4;stroke-linecap:round;stroke-linejoin:round;stroke-miterlimit:10;stroke-dasharray:none;stroke-opacity:1"
       transform="translate(0,-1.333392)"
       clip-path="url(#clipPath4)" />
    <path
       id="path5"
       d="M 378.23999,410.23999 H 529.28003"
       style="fill:none;stroke:#000000;stroke-width:26.4;stroke-linecap:round;stroke-linejoin:round;stroke-miterlimit:10;stroke-dasharray:none;stroke-opacity:1"
       transform="translate(0,-1.333392)"
       clip-path="url(#clipPath6)" />
    <path
       id="path7"
       d="M 189.44,410.23999 H 340.48001"
       style="fill:none;stroke:#000000;stroke-width:26.4;stroke-linecap:round;stroke-linejoin:round;stroke-miterlimit:10;stroke-dasharray:none;stroke-opacity:1"
       transform="translate(0,-1.333392)"
       clip-path="url(#clipPath8)" />
    <path
       id="path9"
       d="m 340.32001,410.07999 h 0.32 v 0.32 h -0.32 v -0.32"
       style="fill:none;stroke:#000000;stroke-width:26.4;stroke-linecap:round;stroke-linejoin:round;stroke-miterlimit:10;stroke-dasharray:none;stroke-opacity:1"
       transform="translate(0,-1.333392)"
       clip-path="url(#clipPath10)" />
    <path
       id="path11"
       d="M 340.48001,410.23999 189.44,561.28003"
       style="fill:none;stroke:#000000;stroke-width:26.4;stroke-linecap:round;stroke-linejoin:round;stroke-miterlimit:10;stroke-dasharray:none;stroke-opacity:1"
       transform="translate(0,-1.333392)"
       clip-path="url(#clipPath12)" />
    <path
       id="path13"
       d="M 189.44,561.28003 H 340.48001"
       style="fill:none;stroke:#000000;stroke-width:26.4;stroke-linecap:round;stroke-linejoin:round;stroke-miterlimit:10;stroke-dasharray:none;stroke-opacity:1"
       transform="translate(0,-1.333392)"
       clip-path="url(#clipPath14)" />
  </g>
</svg>
