<?xml version="1.0" encoding="UTF-8" standalone="no"?>
<!-- Created with Inkscape (http://www.inkscape.org/) -->

<svg
   version="1.1"
   id="svg1"
   width="422.90668"
   height="491.20001"
   viewBox="0 0 422.90668 491.20001"
   sodipodi:docname="CalcinatedLead9.pdf"
   xmlns:inkscape="http://www.inkscape.org/namespaces/inkscape"
   xmlns:sodipodi="http://sodipodi.sourceforge.net/DTD/sodipodi-0.dtd"
   xmlns="http://www.w3.org/2000/svg"
   xmlns:svg="http://www.w3.org/2000/svg">
  <defs
     id="defs1">
    <clipPath
       clipPathUnits="userSpaceOnUse"
       id="clipPath2">
      <path
         d="M 0,0.16 V 1122.5601 H 793.59998 V 0.16 Z"
         clip-rule="evenodd"
         id="path2" />
    </clipPath>
    <clipPath
       clipPathUnits="userSpaceOnUse"
       id="clipPath4">
      <path
         d="M 0,0.16 V 1122.5601 H 793.59998 V 0.16 Z"
         clip-rule="evenodd"
         id="path4" />
    </clipPath>
    <clipPath
       clipPathUnits="userSpaceOnUse"
       id="clipPath6">
      <path
         d="M 0,0.16 V 1122.5601 H 793.59998 V 0.16 Z"
         transform="translate(-330.88,-339.84)"
         clip-rule="evenodd"
         id="path6" />
    </clipPath>
    <clipPath
       clipPathUnits="userSpaceOnUse"
       id="clipPath8">
      <path
         d="M 0,0.16 V 1122.5601 H 793.59998 V 0.16 Z"
         transform="translate(-488.32001,-735.03998)"
         clip-rule="evenodd"
         id="path8" />
    </clipPath>
    <clipPath
       clipPathUnits="userSpaceOnUse"
       id="clipPath10">
      <path
         d="M 0,0.16 V 1122.5601 H 793.59998 V 0.16 Z"
         transform="translate(-488.48001,-729.76001)"
         clip-rule="evenodd"
         id="path10" />
    </clipPath>
    <clipPath
       clipPathUnits="userSpaceOnUse"
       id="clipPath12">
      <path
         d="M 0,0.16 V 1122.5601 H 793.59998 V 0.16 Z"
         clip-rule="evenodd"
         id="path12" />
    </clipPath>
  </defs>
  <sodipodi:namedview
     id="namedview1"
     pagecolor="#505050"
     bordercolor="#eeeeee"
     borderopacity="1"
     inkscape:showpageshadow="0"
     inkscape:pageopacity="0"
     inkscape:pagecheckerboard="0"
     inkscape:deskcolor="#505050">
    <inkscape:page
       x="0"
       y="0"
       inkscape:label="1"
       id="page1"
       width="422.90668"
       height="491.20001"
       margin="0"
       bleed="0" />
  </sodipodi:namedview>
  <g
     id="g1"
     inkscape:groupmode="layer"
     inkscape:label="1">
    <path
       id="path1"
       d="m 274.39999,396.64001 v 226.56"
       style="fill:none;stroke:#000000;stroke-width:26.4;stroke-linecap:round;stroke-linejoin:round;stroke-miterlimit:10;stroke-dasharray:none;stroke-opacity:1"
       transform="translate(0,-4.0000587)"
       clip-path="url(#clipPath2)" />
    <path
       id="path3"
       d="m 387.67999,396.64001 v 226.56"
       style="fill:none;stroke:#000000;stroke-width:26.4;stroke-linecap:round;stroke-linejoin:round;stroke-miterlimit:10;stroke-dasharray:none;stroke-opacity:1"
       transform="translate(0,-4.0000587)"
       clip-path="url(#clipPath4)" />
    <path
       id="path5"
       d="M 0,0 -4.32,0.32 -8.8,0.8 -13.12,1.6 -17.440001,2.88 -21.6,4.48 l -4,1.76 -3.840001,2.24 -3.679998,2.4 -3.52,2.72 L -40,16.639999 -42.880001,20 l -2.879997,3.52 -2.400002,3.680001 -2.240002,3.84 -1.759998,4 -1.599998,4.16 -1.280003,4.319999 -0.799999,4.32 -0.48,4.48 -0.319999,4.319999"
       style="fill:none;stroke:#000000;stroke-width:26.4;stroke-linecap:round;stroke-linejoin:round;stroke-miterlimit:10;stroke-dasharray:none;stroke-opacity:1"
       transform="translate(330.88,335.83994)"
       clip-path="url(#clipPath6)" />
    <path
       id="path7"
       d="m 0,0 v -8.8 l -0.16,-8.8 -0.16,-8.8 -0.48,-8.800001 -0.64,-8.639999 -0.64,-8.64 -0.96,-8.479999 -0.96,-8.32 -1.28,-8 -1.28,-8 -1.44,-7.68 -1.6,-7.520001 -1.6,-7.2 -1.92,-6.88 -1.92,-6.72 -2.080001,-6.4 -2.24,-5.92001 L -21.6,-139.2 l -2.4,-5.28 -2.4,-4.96 -2.559999,-4.48 -2.560001,-4.16 -2.720002,-3.67999 -2.719997,-3.36 L -39.84,-168 l -2.720001,-2.39999 -2.879998,-1.92002 -2.880001,-1.43998 -3.040001,-1.12001 -2.880001,-0.64 -3.039997,-0.15999 -2.880001,0.47999 -2.880001,0.64 -3.040001,1.28 -2.879997,1.76 -2.879997,2.08 -2.720002,2.72 -2.880004,3.04001 -2.720002,3.35998 -2.559997,4 -2.559998,4.32001 -2.559997,4.64 -2.400002,5.12 -2.400001,5.44 -2.239998,5.76001 -2.080002,6.07999 -2.080002,6.56 -1.919999,6.72"
       style="fill:none;stroke:#000000;stroke-width:26.4;stroke-linecap:round;stroke-linejoin:round;stroke-miterlimit:10;stroke-dasharray:none;stroke-opacity:1"
       transform="translate(488.32001,731.03992)"
       clip-path="url(#clipPath8)" />
    <path
       id="path9"
       d="m 0,0 -0.48,3.84 -0.16,3.84 v 3.84 l 0.48,3.84 0.8,3.840001 1.12,3.679998 L 3.2,26.4 4.96,29.92 6.88,33.119999 9.12,36.32 11.68,39.200001 14.56,41.759998 17.6,44.16 20.799999,46.400002 24.16,48.16 l 3.52,1.599998 3.680001,1.280003 3.68,0.799999 3.84,0.64 3.84,0.319999 3.84,-0.16 3.840001,-0.479999 3.84,-0.64 3.679996,-1.119998 3.520001,-1.440003 3.52,-1.599998 3.200005,-2.080002 3.199997,-2.239998 2.879997,-2.560001 2.720001,-2.720002 2.400002,-3.039997 2.080001,-3.200001 1.919999,-3.36 1.599998,-3.520001 1.279999,-3.519998 0.959999,-3.84 L 87.68,13.44 88,9.6"
       style="fill:none;stroke:#000000;stroke-width:26.4;stroke-linecap:round;stroke-linejoin:round;stroke-miterlimit:10;stroke-dasharray:none;stroke-opacity:1"
       transform="translate(488.48001,725.75995)"
       clip-path="url(#clipPath10)" />
    <path
       id="path11"
       d="m 217.75999,453.28 h 283.2"
       style="fill:none;stroke:#000000;stroke-width:26.4;stroke-linecap:round;stroke-linejoin:round;stroke-miterlimit:10;stroke-dasharray:none;stroke-opacity:1"
       transform="translate(0,-4.0000587)"
       clip-path="url(#clipPath12)" />
  </g>
</svg>
