<?xml version="1.0" encoding="UTF-8" standalone="no"?>
<!-- Created with Inkscape (http://www.inkscape.org/) -->

<svg
   version="1.1"
   id="svg1"
   width="241.45332"
   height="290.97333"
   viewBox="0 0 241.45332 290.97333"
   sodipodi:docname="Camphor4.pdf"
   xmlns:inkscape="http://www.inkscape.org/namespaces/inkscape"
   xmlns:sodipodi="http://sodipodi.sourceforge.net/DTD/sodipodi-0.dtd"
   xmlns="http://www.w3.org/2000/svg"
   xmlns:svg="http://www.w3.org/2000/svg">
  <defs
     id="defs1">
    <clipPath
       clipPathUnits="userSpaceOnUse"
       id="clipPath2">
      <path
         d="M 0,0.16 V 1122.5601 H 793.59998 V 0.16 Z"
         transform="translate(-396.16,-747.52002)"
         clip-rule="evenodd"
         id="path2" />
    </clipPath>
    <clipPath
       clipPathUnits="userSpaceOnUse"
       id="clipPath4">
      <path
         d="M 0,0.16 V 1122.5601 H 793.59998 V 0.16 Z"
         transform="translate(-566.08001,-520.96002)"
         clip-rule="evenodd"
         id="path4" />
    </clipPath>
    <clipPath
       clipPathUnits="userSpaceOnUse"
       id="clipPath6">
      <path
         d="M 0,0.16 V 1122.5601 H 793.59998 V 0.16 Z"
         transform="translate(-3.3333334e-6)"
         clip-rule="evenodd"
         id="path6" />
    </clipPath>
  </defs>
  <sodipodi:namedview
     id="namedview1"
     pagecolor="#505050"
     bordercolor="#eeeeee"
     borderopacity="1"
     inkscape:showpageshadow="0"
     inkscape:pageopacity="0"
     inkscape:pagecheckerboard="0"
     inkscape:deskcolor="#505050">
    <inkscape:page
       x="0"
       y="0"
       inkscape:label="1"
       id="page1"
       width="241.45332"
       height="290.97333"
       margin="0"
       bleed="0" />
  </sodipodi:namedview>
  <g
     id="g1"
     inkscape:groupmode="layer"
     inkscape:label="1">
    <path
       id="path1"
       d="m 0,0 4.48,-0.32 4.64,-0.64 4.48,-0.96 4.48,-1.44 4.32,-1.92 4.319999,-2.08 4.320002,-2.72 4,-3.04 4,-3.36 3.84,-3.68 3.68,-4 3.520001,-4.479999 3.359997,-4.64 3.040001,-4.960003 2.880001,-5.279998 2.720001,-5.439999 2.559997,-5.760002 2.239998,-5.919998 1.920006,-6.239998 1.759995,-6.240006 L 72,-79.68 l 1.279999,-6.559998 0.959999,-6.720001 0.639999,-6.720001 0.480004,-6.88 0.159996,-6.72 -0.159996,-6.88 -0.480004,-6.88 -0.639999,-6.71999 L 73.279999,-140.48 72,-147.03999 70.559998,-153.44 l -1.759995,-6.4 -1.920006,-6.08 -2.239998,-6.08 -2.559997,-5.75999 -2.720001,-5.44001 -2.880001,-5.28 -3.040001,-4.96 -3.359997,-4.64 -3.520001,-4.48 -3.68,-4 -3.84,-3.68 -4,-3.36001 -4,-3.03999 -4.320002,-2.56 -4.319999,-2.24 -4.32,-1.92 -4.48,-1.44 -4.48,-0.95999 -4.64,-0.64 L 0,-226.56"
       style="fill:none;stroke:#000000;stroke-width:26.4;stroke-linecap:round;stroke-linejoin:round;stroke-miterlimit:10;stroke-dasharray:none;stroke-opacity:1"
       transform="translate(34.626671,264.31996)"
       clip-path="url(#clipPath2)" />
    <path
       id="path3"
       d="m 0,0 -4.64,0.16 -4.48,0.64 -4.48,0.96 -4.48,1.44 -4.479999,1.92 -4.32,2.24 -4.160002,2.56 -4.16,3.04 -3.84,3.36 -3.84,3.68 -3.68,4 -3.520001,4.48 -3.359997,4.639999 -3.2,4.960003 -2.880001,5.279999 -2.720002,5.439998 -2.399997,5.760002 -2.239998,6.079998 -2.080002,6.080002 -1.760002,6.400002 -1.440003,6.399994 -1.119995,6.560005 -0.959999,6.720001 -0.800003,6.719994 -0.32,6.880003 -0.159996,6.88 0.159996,6.72 0.32,6.88 0.800003,6.72001 0.959999,6.72 1.119995,6.55999 1.440003,6.56 1.760002,6.23999 2.080002,6.24001 2.239998,5.92 2.399997,5.76001 2.720002,5.43998 2.880001,5.28002 3.2,4.95999 3.359997,4.64 3.520001,4.47999 3.68,4 3.84,3.68001 3.84,3.36 4.16,3.04 4.160002,2.72 4.32,2.08 4.479999,1.92 4.48,1.44 4.48,0.96001 4.48,0.63999 4.64,0.32"
       style="fill:none;stroke:#000000;stroke-width:26.4;stroke-linecap:round;stroke-linejoin:round;stroke-miterlimit:10;stroke-dasharray:none;stroke-opacity:1"
       transform="translate(204.54668,37.759963)"
       clip-path="url(#clipPath4)" />
    <path
       id="path5"
       d="m 490.56,634.23999 h -94.4"
       style="fill:none;stroke:#000000;stroke-width:26.4;stroke-linecap:round;stroke-linejoin:round;stroke-miterlimit:10;stroke-dasharray:none;stroke-opacity:1"
       transform="translate(-361.53333,-483.20006)"
       clip-path="url(#clipPath6)" />
  </g>
</svg>
