<?xml version="1.0" encoding="UTF-8" standalone="no"?>
<!-- Created with Inkscape (http://www.inkscape.org/) -->

<svg
   version="1.1"
   id="svg1"
   width="569.64001"
   height="198.88"
   viewBox="0 0 569.64001 198.88"
   sodipodi:docname="Camphor.pdf"
   xmlns:inkscape="http://www.inkscape.org/namespaces/inkscape"
   xmlns:sodipodi="http://sodipodi.sourceforge.net/DTD/sodipodi-0.dtd"
   xmlns="http://www.w3.org/2000/svg"
   xmlns:svg="http://www.w3.org/2000/svg">
  <defs
     id="defs1">
    <clipPath
       clipPathUnits="userSpaceOnUse"
       id="clipPath2">
      <path
         d="M 0,0.16 V 1122.5601 H 793.59998 V 0.16 Z"
         clip-rule="evenodd"
         id="path2" />
    </clipPath>
    <clipPath
       clipPathUnits="userSpaceOnUse"
       id="clipPath4">
      <path
         d="M 0,0.16 V 1122.5601 H 793.59998 V 0.16 Z"
         clip-rule="evenodd"
         id="path4" />
    </clipPath>
    <clipPath
       clipPathUnits="userSpaceOnUse"
       id="clipPath6">
      <path
         d="M 0,0.16 V 1122.5601 H 793.59998 V 0.16 Z"
         transform="translate(-588.15997,-634.23999)"
         clip-rule="evenodd"
         id="path6" />
    </clipPath>
  </defs>
  <sodipodi:namedview
     id="namedview1"
     pagecolor="#505050"
     bordercolor="#eeeeee"
     borderopacity="1"
     inkscape:showpageshadow="0"
     inkscape:pageopacity="0"
     inkscape:pagecheckerboard="0"
     inkscape:deskcolor="#505050">
    <inkscape:page
       x="0"
       y="0"
       inkscape:label="1"
       id="page1"
       width="569.64001"
       height="198.88"
       margin="0"
       bleed="0" />
  </sodipodi:namedview>
  <g
     id="g1"
     inkscape:groupmode="layer"
     inkscape:label="1">
    <path
       id="path1"
       d="m 135.03999,634.23999 75.52001,-75.52002 151.04001,151.04004 151.04,-151.04004 75.51996,75.52002"
       style="fill:none;stroke:#000000;stroke-width:26.4;stroke-linecap:round;stroke-linejoin:round;stroke-miterlimit:10;stroke-dasharray:none;stroke-opacity:1"
       transform="translate(0,-141.49339)"
       clip-path="url(#clipPath2)" />
    <path
       id="path3"
       d="m 135.03999,634.23999 75.52001,75.52002 151.04001,-151.04004 151.04,151.04004 75.51996,-75.52002"
       style="fill:none;stroke:#000000;stroke-width:26.4;stroke-linecap:round;stroke-linejoin:round;stroke-miterlimit:10;stroke-dasharray:none;stroke-opacity:1"
       transform="translate(0,-141.49339)"
       clip-path="url(#clipPath4)" />
    <path
       id="path5"
       d="M 0,0 5.6,-2.72 10.56,-4.8 15.36,-6.56 20,-8 l 4.48,-1.28 4.319999,-0.8 4.16,-0.48 4,-0.16 h 3.84 l 3.520001,0.48 3.52,0.8 3.200001,0.96 3.040001,1.44 2.719997,1.76 2.560002,1.92 2.399997,2.4 L 63.84,1.6 64.480003,2.56 65.599998,4.32 67.040001,7.36 68,10.56 l 0.800003,3.52 0.159996,3.52 v 3.680001 L 68.32,24.959999 l -0.959999,3.84 -1.440003,4 L 64.160004,36.48 62.400002,39.360001 61.439999,40.959999 58.880001,44 56.16,46.560001 53.439999,48.639999 50.560001,50.240002 47.52,51.200001 44.32,51.84 41.119999,52 37.759998,51.68 34.240002,51.040001 30.559999,50.080002 30.24,49.919998"
       style="fill:none;stroke:#000000;stroke-width:26.4;stroke-linecap:round;stroke-linejoin:round;stroke-miterlimit:10;stroke-dasharray:none;stroke-opacity:1"
       transform="translate(588.15997,492.7466)"
       clip-path="url(#clipPath6)" />
  </g>
</svg>
