<?xml version="1.0" encoding="UTF-8" standalone="no"?>
<!-- Created with Inkscape (http://www.inkscape.org/) -->

<svg
   version="1.1"
   id="svg1"
   width="473.58667"
   height="559.28003"
   viewBox="0 0 473.58667 559.28003"
   sodipodi:docname="CrocusMartis21.pdf"
   xmlns:inkscape="http://www.inkscape.org/namespaces/inkscape"
   xmlns:sodipodi="http://sodipodi.sourceforge.net/DTD/sodipodi-0.dtd"
   xmlns="http://www.w3.org/2000/svg"
   xmlns:svg="http://www.w3.org/2000/svg">
  <defs
     id="defs1">
    <clipPath
       clipPathUnits="userSpaceOnUse"
       id="clipPath2">
      <path
         d="M 0,0.16 V 1122.5601 H 793.59998 V 0.16 Z"
         transform="translate(3.3333334e-6)"
         clip-rule="evenodd"
         id="path2" />
    </clipPath>
    <clipPath
       clipPathUnits="userSpaceOnUse"
       id="clipPath4">
      <path
         d="M 0,0.16 V 1122.5601 H 793.59998 V 0.16 Z"
         transform="translate(3.3333334e-6)"
         clip-rule="evenodd"
         id="path4" />
    </clipPath>
    <clipPath
       clipPathUnits="userSpaceOnUse"
       id="clipPath6">
      <path
         d="M 0,0.16 V 1122.5601 H 793.59998 V 0.16 Z"
         transform="translate(3.3333334e-6)"
         clip-rule="evenodd"
         id="path6" />
    </clipPath>
    <clipPath
       clipPathUnits="userSpaceOnUse"
       id="clipPath8">
      <path
         d="M 0,0.16 V 1122.5601 H 793.59998 V 0.16 Z"
         transform="translate(3.3333334e-6)"
         clip-rule="evenodd"
         id="path8" />
    </clipPath>
    <clipPath
       clipPathUnits="userSpaceOnUse"
       id="clipPath10">
      <path
         d="M 0,0.16 V 1122.5601 H 793.59998 V 0.16 Z"
         transform="translate(-336.48001,-334.72)"
         clip-rule="evenodd"
         id="path10" />
    </clipPath>
    <clipPath
       clipPathUnits="userSpaceOnUse"
       id="clipPath12">
      <path
         d="M 0,0.16 V 1122.5601 H 793.59998 V 0.16 Z"
         transform="translate(3.3333334e-6)"
         clip-rule="evenodd"
         id="path12" />
    </clipPath>
  </defs>
  <sodipodi:namedview
     id="namedview1"
     pagecolor="#505050"
     bordercolor="#eeeeee"
     borderopacity="1"
     inkscape:showpageshadow="0"
     inkscape:pageopacity="0"
     inkscape:pagecheckerboard="0"
     inkscape:deskcolor="#505050">
    <inkscape:page
       x="0"
       y="0"
       inkscape:label="1"
       id="page1"
       width="473.58667"
       height="559.28003"
       margin="0"
       bleed="0" />
  </sodipodi:namedview>
  <g
     id="g1"
     inkscape:groupmode="layer"
     inkscape:label="1">
    <path
       id="path1"
       d="M 396.79999,516 185.44,727.35998"
       style="fill:none;stroke:#000000;stroke-width:26.4;stroke-linecap:round;stroke-linejoin:round;stroke-miterlimit:10;stroke-dasharray:none;stroke-opacity:1"
       transform="translate(-161.42667,-281.64006)"
       clip-path="url(#clipPath2)" />
    <path
       id="path3"
       d="m 517.59998,395.20001 90.72003,-90.72"
       style="fill:none;stroke:#000000;stroke-width:26.4;stroke-linecap:round;stroke-linejoin:round;stroke-miterlimit:10;stroke-dasharray:none;stroke-opacity:1"
       transform="translate(-161.42667,-281.64006)"
       clip-path="url(#clipPath4)" />
    <path
       id="path5"
       d="m 547.84003,304.48001 h 60.47998"
       style="fill:none;stroke:#000000;stroke-width:26.4;stroke-linecap:round;stroke-linejoin:round;stroke-miterlimit:10;stroke-dasharray:none;stroke-opacity:1"
       transform="translate(-161.42667,-281.64006)"
       clip-path="url(#clipPath6)" />
    <path
       id="path7"
       d="m 608.32001,304.48001 v 60.47998"
       style="fill:none;stroke:#000000;stroke-width:26.4;stroke-linecap:round;stroke-linejoin:round;stroke-miterlimit:10;stroke-dasharray:none;stroke-opacity:1"
       transform="translate(-161.42667,-281.64006)"
       clip-path="url(#clipPath8)" />
    <path
       id="path9"
       d="m 0,0 -3.04,3.36 -2.72,3.68 -2.24,4 -2.08,4.32 -1.6,4.48 -1.28,4.799999 -0.8,5.120001 -0.48,5.440001 -0.16,5.599998 0.16,5.760002 0.64,6.079998 0.96,6.080002 1.28,6.400002 1.76,6.559997 2.08,6.720002 2.4,6.720001 L -2.4,92 0.64,98.879997 4,105.92 l 3.84,7.04 4,7.2 4.32,7.04 4.639999,7.04 4.960001,7.04 5.119999,6.88 5.440001,6.87999 5.599998,6.88001 5.920002,6.72 6.079998,6.56 6.240002,6.40001 6.399998,6.23999 6.560005,6.08 6.559997,5.75999 6.879998,5.60001 6.880004,5.44 6.879998,5.28 7.04,4.8 7.04,4.64 7.2,4.31999 7.04,4 7.03999,3.84002 7.04001,3.36 6.88001,3.03999 6.87999,2.88 6.88,2.4 6.56,1.92 6.56,1.76001 6.4,1.27999 6.23999,0.96 5.92,0.64 5.92002,0.16 h 5.43998 l 5.44001,-0.64 5.12001,-0.8 4.79998,-1.28 4.64,-1.60001 4.16001,-1.92 4,-2.39999 3.68,-2.72 3.36001,-2.88001 3.03999,-3.36 2.72,-3.67999 2.24001,-4 1.91999,-4.32001 1.59999,-4.47999 1.28,-4.95999 0.96001,-5.12001 0.48,-5.28 0.16,-5.59999 -0.16,-5.76001 -0.64,-6.08001 -0.96,-6.23999 -1.44,-6.4 -1.6,-6.4 -2.08001,-6.72 L 246.72,156.64 244,149.75999 240.96001,142.72 237.44,135.67999 233.75999,128.64 l -4,-7.04 -4.31999,-7.04 -4.64,-7.04 -4.96,-7.04 -5.12,-7.039998 -5.44,-6.880004 -5.60001,-6.720002 -5.92,-6.719993 -6.08,-6.560005 L 181.44,60.16 175.03999,53.919998 168.48,47.84 161.75999,42.080002 155.03999,36.32 148.16,30.879999 141.11999,25.76 134.08,20.959999 127.04,16.32 120,12 112.96,7.84 105.92,4.16 98.879997,0.8 91.839996,-2.4 85.120003,-5.12 78.239998,-7.52 71.68,-9.6 65.120003,-11.2 58.720001,-12.64 52.48,-13.6 46.560001,-14.08 40.639999,-14.4 35.040001,-14.24 29.76,-13.76 24.639999,-12.8 19.84,-11.52 15.2,-9.92 10.88,-8 7.04,-5.6 3.36,-3.04 0,0"
       style="fill:none;stroke:#000000;stroke-width:26.4;stroke-linecap:round;stroke-linejoin:round;stroke-miterlimit:10;stroke-dasharray:none;stroke-opacity:1"
       transform="translate(175.05334,53.079942)"
       clip-path="url(#clipPath10)" />
    <path
       id="path11"
       d="M 185.44,727.35998 276,636.79999 366.72,727.35998 276,818.08002 185.44,727.35998"
       style="fill:none;stroke:#000000;stroke-width:26.4;stroke-linecap:round;stroke-linejoin:round;stroke-miterlimit:10;stroke-dasharray:none;stroke-opacity:1"
       transform="translate(-161.42667,-281.64006)"
       clip-path="url(#clipPath12)" />
  </g>
</svg>
