<?xml version="1.0" encoding="UTF-8" standalone="no"?>
<!-- Created with Inkscape (http://www.inkscape.org/) -->

<svg
   version="1.1"
   id="svg1"
   width="224.12"
   height="194.88"
   viewBox="0 0 224.12 194.88"
   sodipodi:docname="CrocusOfCopper24.pdf"
   xmlns:inkscape="http://www.inkscape.org/namespaces/inkscape"
   xmlns:sodipodi="http://sodipodi.sourceforge.net/DTD/sodipodi-0.dtd"
   xmlns="http://www.w3.org/2000/svg"
   xmlns:svg="http://www.w3.org/2000/svg">
  <defs
     id="defs1">
    <clipPath
       clipPathUnits="userSpaceOnUse"
       id="clipPath2">
      <path
         d="M 0,0.16 V 1122.5601 H 793.59998 V 0.16 Z"
         transform="translate(-405.12,-655.52002)"
         clip-rule="evenodd"
         id="path2" />
    </clipPath>
    <clipPath
       clipPathUnits="userSpaceOnUse"
       id="clipPath4">
      <path
         d="M 0,0.16 V 1122.5601 H 793.59998 V 0.16 Z"
         clip-rule="evenodd"
         id="path4" />
    </clipPath>
  </defs>
  <sodipodi:namedview
     id="namedview1"
     pagecolor="#505050"
     bordercolor="#eeeeee"
     borderopacity="1"
     inkscape:showpageshadow="0"
     inkscape:pageopacity="0"
     inkscape:pagecheckerboard="0"
     inkscape:deskcolor="#505050">
    <inkscape:page
       x="0"
       y="0"
       inkscape:label="1"
       id="page1"
       width="224.12"
       height="194.88"
       margin="0"
       bleed="0" />
  </sodipodi:namedview>
  <g
     id="g1"
     inkscape:groupmode="layer"
     inkscape:label="1">
    <path
       id="path1"
       d="m 0,0 -0.16,-7.04 -0.32,-6.88 -0.8,-6.719999 -0.96,-6.880001 -1.28,-6.560002 -1.44,-6.559997 -1.76,-6.400002 -2.08,-6.239998 -2.24,-5.920002 -2.56,-5.759998 -2.72,-5.599999 -3.040001,-5.279998 -3.199998,-4.960007 -3.360001,-4.799995 -3.68,-4.32 -3.679999,-4 -3.84,-3.68 -4.16,-3.360002 -4.16,-3.04 -4.159999,-2.56 -4.480004,-2.08 -4.479999,-1.76 -4.48,-1.44 -4.639999,-0.8 -4.480004,-0.64 h -4.639999 l -4.639999,0.32 -4.64,0.8 -4.479996,1.12 -4.480003,1.6 -4.479996,1.92 -4.320003,2.4"
       style="fill:none;stroke:#000000;stroke-width:26.4;stroke-linecap:round;stroke-linejoin:round;stroke-miterlimit:10;stroke-dasharray:none;stroke-opacity:1"
       transform="translate(405.12,627.49329)"
       clip-path="url(#clipPath2)" />
    <path
       id="path3"
       d="M 405.12,655.52002 480.64001,504.48001"
       style="fill:none;stroke:#000000;stroke-width:26.4;stroke-linecap:round;stroke-linejoin:round;stroke-miterlimit:10;stroke-dasharray:none;stroke-opacity:1"
       transform="translate(0,-28.026725)"
       clip-path="url(#clipPath4)" />
  </g>
</svg>
