<?xml version="1.0" encoding="UTF-8" standalone="no"?>
<!-- Created with Inkscape (http://www.inkscape.org/) -->

<svg
   version="1.1"
   id="svg1"
   width="266.81332"
   height="201.56"
   viewBox="0 0 266.81332 201.56"
   sodipodi:docname="CrocusOfCopper30.pdf"
   xmlns:inkscape="http://www.inkscape.org/namespaces/inkscape"
   xmlns:sodipodi="http://sodipodi.sourceforge.net/DTD/sodipodi-0.dtd"
   xmlns="http://www.w3.org/2000/svg"
   xmlns:svg="http://www.w3.org/2000/svg">
  <defs
     id="defs1">
    <clipPath
       clipPathUnits="userSpaceOnUse"
       id="clipPath2">
      <path
         d="M 0,0.16 V 1122.5601 H 793.59998 V 0.16 Z"
         transform="translate(-392.79999,-508.48001)"
         clip-rule="evenodd"
         id="path2" />
    </clipPath>
    <clipPath
       clipPathUnits="userSpaceOnUse"
       id="clipPath4">
      <path
         d="M 0,0.16 V 1122.5601 H 793.59998 V 0.16 Z"
         transform="translate(-428,-617.76001)"
         clip-rule="evenodd"
         id="path4" />
    </clipPath>
    <clipPath
       clipPathUnits="userSpaceOnUse"
       id="clipPath6">
      <path
         d="M 0,0.16 V 1122.5601 H 793.59998 V 0.16 Z"
         transform="translate(3.3333333e-6)"
         clip-rule="evenodd"
         id="path6" />
    </clipPath>
  </defs>
  <sodipodi:namedview
     id="namedview1"
     pagecolor="#505050"
     bordercolor="#eeeeee"
     borderopacity="1"
     inkscape:showpageshadow="0"
     inkscape:pageopacity="0"
     inkscape:pagecheckerboard="0"
     inkscape:deskcolor="#505050">
    <inkscape:page
       x="0"
       y="0"
       inkscape:label="1"
       id="page1"
       width="266.81332"
       height="201.56"
       margin="0"
       bleed="0" />
  </sodipodi:namedview>
  <g
     id="g1"
     inkscape:groupmode="layer"
     inkscape:label="1">
    <path
       id="path1"
       d="m 0,0 -4.64,2.72 -4.64,3.04 -4.64,3.36 -4.48,3.52 -4.479999,3.84 -4.480002,4 -4.319999,4.159999 -4.16,4.480002 -4,4.639997 -3.84,4.640004 -3.680001,4.959999 -3.52,4.959999 -3.200001,5.119999 -3.039997,5.280002 L -60,63.84 l -2.560001,5.280003 -2.399998,5.279999 -1.919998,5.279998 -1.920006,5.120003 -1.439995,5.279999 -1.279999,4.959999 L -72.32,100 l -0.639999,4.96 -0.32,4.64 v 4.48 l 0.32,4.32 0.479996,4.16 0.960006,4 1.119995,3.68 1.599999,3.36001 1.760002,3.19999 1.919998,2.87999 2.400002,2.56001 2.560001,2.4 2.720001,1.92 3.039997,1.76001 3.360001,1.28 3.360001,0.95999 3.68,0.64 3.84,0.32 h 4 l 4.16,-0.32 4.32,-0.64 4.319999,-1.12 4.480002,-1.28 4.639999,-1.76001 4.64,-2.07998 4.64,-2.24001 4.64,-2.72 4.64,-2.88 4.64,-3.2 4.48,-3.52001 4.64,-3.67999 4.32,-3.84 4.319999,-4.16 4.320002,-4.48 4,-4.48"
       style="fill:none;stroke:#000000;stroke-width:26.4;stroke-linecap:round;stroke-linejoin:round;stroke-miterlimit:10;stroke-dasharray:none;stroke-opacity:1"
       transform="translate(93.973321,27.959952)"
       clip-path="url(#clipPath2)" />
    <path
       id="path3"
       d="M 0,0 0.16,2.88 0.48,5.92 1.28,8.8 2.56,11.68 4,14.56 5.76,17.280001 7.84,19.84 l 2.4,2.56 2.72,2.399999 3.04,2.240002 3.200001,2.08 3.359998,1.92 3.680001,1.759998 3.84,1.440003 4.000002,1.439998 4.16,1.119999 4.319999,0.959999 4.32,0.640004 4.32,0.479999 4.479999,0.16 h 4.48 l 4.479999,-0.32 4.32,-0.479999 4.32,-0.640004 4.160003,-0.959999 4,-1.119999 4,-1.279998 3.680001,-1.600003 3.519996,-1.76 3.360001,-1.92 3.040001,-2.08 2.879999,-2.24 2.56,-2.399999 2.24,-2.56 1.92,-2.720001 1.6,-2.719999 1.28,-2.88 0.8,-2.88 0.64,-2.88 0.32,-3.04 -0.16,-2.88 -0.48,-3.04 -0.8,-2.88 -1.12,-2.88 -1.44,-2.72 -1.76,-2.88 -2.24,-2.560001 -2.4,-2.559999 -2.56,-2.4 -3.040001,-2.24 -3.199997,-2.079999 -3.520004,-1.920001 -3.680001,-1.76 -3.839996,-1.44"
       style="fill:none;stroke:#000000;stroke-width:26.4;stroke-linecap:round;stroke-linejoin:round;stroke-miterlimit:10;stroke-dasharray:none;stroke-opacity:1"
       transform="translate(129.17333,137.23995)"
       clip-path="url(#clipPath4)" />
    <path
       id="path5"
       d="M 316.48001,539.52002 392,541.28003"
       style="fill:none;stroke:#000000;stroke-width:26.4;stroke-linecap:round;stroke-linejoin:round;stroke-miterlimit:10;stroke-dasharray:none;stroke-opacity:1"
       transform="translate(-298.82667,-480.52006)"
       clip-path="url(#clipPath6)" />
  </g>
</svg>
