<?xml version="1.0" encoding="UTF-8" standalone="no"?>
<!-- Created with Inkscape (http://www.inkscape.org/) -->

<svg
   version="1.1"
   id="svg1"
   width="506.93332"
   height="375.07999"
   viewBox="0 0 506.93332 375.07999"
   sodipodi:docname="CrocusMartis27.pdf"
   xmlns:inkscape="http://www.inkscape.org/namespaces/inkscape"
   xmlns:sodipodi="http://sodipodi.sourceforge.net/DTD/sodipodi-0.dtd"
   xmlns="http://www.w3.org/2000/svg"
   xmlns:svg="http://www.w3.org/2000/svg">
  <defs
     id="defs1">
    <clipPath
       clipPathUnits="userSpaceOnUse"
       id="clipPath2">
      <path
         d="M 0,0.16 V 1122.5601 H 793.59998 V 0.16 Z"
         clip-rule="evenodd"
         id="path2" />
    </clipPath>
    <clipPath
       clipPathUnits="userSpaceOnUse"
       id="clipPath4">
      <path
         d="M 0,0.16 V 1122.5601 H 793.59998 V 0.16 Z"
         clip-rule="evenodd"
         id="path4" />
    </clipPath>
    <clipPath
       clipPathUnits="userSpaceOnUse"
       id="clipPath6">
      <path
         d="M 0,0.16 V 1122.5601 H 793.59998 V 0.16 Z"
         transform="translate(-209.11999,-716.96002)"
         clip-rule="evenodd"
         id="path6" />
    </clipPath>
    <clipPath
       clipPathUnits="userSpaceOnUse"
       id="clipPath8">
      <path
         d="M 0,0.16 V 1122.5601 H 793.59998 V 0.16 Z"
         transform="translate(-335.20001,-720.79999)"
         clip-rule="evenodd"
         id="path8" />
    </clipPath>
    <clipPath
       clipPathUnits="userSpaceOnUse"
       id="clipPath10">
      <path
         d="M 0,0.16 V 1122.5601 H 793.59998 V 0.16 Z"
         transform="translate(-335.20001,-720.79999)"
         clip-rule="evenodd"
         id="path10" />
    </clipPath>
  </defs>
  <sodipodi:namedview
     id="namedview1"
     pagecolor="#505050"
     bordercolor="#eeeeee"
     borderopacity="1"
     inkscape:showpageshadow="0"
     inkscape:pageopacity="0"
     inkscape:pagecheckerboard="0"
     inkscape:deskcolor="#505050">
    <inkscape:page
       x="0"
       y="0"
       inkscape:label="1"
       id="page1"
       width="506.93332"
       height="375.07999"
       margin="0"
       bleed="0" />
  </sodipodi:namedview>
  <g
     id="g1"
     inkscape:groupmode="layer"
     inkscape:label="1">
    <path
       id="path1"
       d="M 170.24,570.40002 H 623.35998"
       style="fill:none;stroke:#000000;stroke-width:26.4;stroke-linecap:round;stroke-linejoin:round;stroke-miterlimit:10;stroke-dasharray:none;stroke-opacity:1"
       transform="translate(0,-37.373392)"
       clip-path="url(#clipPath2)" />
    <path
       id="path3"
       d="M 547.84003,457.12 V 683.67999"
       style="fill:none;stroke:#000000;stroke-width:26.4;stroke-linecap:round;stroke-linejoin:round;stroke-miterlimit:10;stroke-dasharray:none;stroke-opacity:1"
       transform="translate(0,-37.373392)"
       clip-path="url(#clipPath4)" />
    <path
       id="path5"
       d="m 0,0 4.8,-2.56 4.8,-3.04 4.8,-3.36 4.960001,-3.84 4.959999,-4.159999 4.960001,-4.480002 5.120001,-4.799999 4.959999,-5.120001 5.119999,-5.599998 4.959999,-5.760002 4.960003,-6.079998 4.959999,-6.240002 4.800003,-6.559997 4.799995,-6.880005 4.800003,-7.039994 4.479996,-7.200004 4.480003,-7.360001 4.479996,-7.519996 4.160004,-7.680002 4.159996,-7.84 3.840004,-7.84 3.839999,-8.00001 3.52,-8 3.36,-8 3.2,-8 2.88,-8 2.88,-8 2.56,-7.83999 2.24,-7.84 2.08,-7.68001 1.76,-7.67999 1.6,-7.36 1.28,-7.36 1.11999,-7.03999 0.80001,-6.88001 0.63999,-6.72 0.16001,-6.39999 0.16,-6.24001 -0.32001,-5.92 -0.47999,-5.59999 -0.8,-5.28 -0.96,-4.96002 -1.27999,-4.63998 -1.44001,-4.32001 -1.76,-4 -2.08,-3.51999 -2.24,-3.20001 -2.56,-2.72 -2.56,-2.4 -3.04,-2.08001 -3.04,-1.59998 -3.36,-1.12 -3.52,-0.80001 -3.68,-0.32001 h -4 l -4,0.48001 -4.159996,0.79999 -4.320008,1.44 -4.479995,1.60001 -4.64,2.23999 -4.639999,2.40002 -4.800003,3.03998 -4.799999,3.20001 -4.96,3.67999 -4.959999,4.16001 -4.960003,4.32 -5.119998,4.79999 -4.96,5.12 -4.960001,5.28 -5.119998,5.76001 -4.960001,5.92 -4.96,6.24 -4.8,6.56 -4.8,6.72 -4.8,7.04001 -4.64,7.03999 -4.48,7.36 -4.48,7.52001 -4.319999,7.51999"
       style="fill:none;stroke:#000000;stroke-width:26.4;stroke-linecap:round;stroke-linejoin:round;stroke-miterlimit:10;stroke-dasharray:none;stroke-opacity:1"
       transform="translate(209.11999,679.58663)"
       clip-path="url(#clipPath6)" />
    <path
       id="path7"
       d="m 0,0 -3.68,-4 -4.16,-4 -4.32,-3.52 -4.639999,-3.36 -4.800001,-3.04 -4.959999,-2.56 -5.120001,-2.399999 -5.279999,-1.92 L -42.400002,-26.4 -48,-27.68 l -5.599998,-0.8 -5.600003,-0.479999 -5.600002,-0.160002 -5.759995,0.320002 -5.600006,0.639999 -5.439994,0.959999 -5.599999,1.440001 -5.280006,1.76 -5.279999,2.08 -5.119998,2.559999 -4.96,2.720002 -4.64,3.199999 -4.48,3.52 -4.32,3.52"
       style="fill:none;stroke:#000000;stroke-width:26.4;stroke-linecap:round;stroke-linejoin:round;stroke-miterlimit:10;stroke-dasharray:none;stroke-opacity:1"
       transform="translate(335.20001,683.4266)"
       clip-path="url(#clipPath8)" />
    <path
       id="path9"
       d="m 0,0 4.32,4 4.48,3.52 4.8,3.2 4.8,2.88 5.12,2.4 5.279999,2.24 L 34.240002,20 39.84,21.440001 45.439999,22.4 l 5.600002,0.640001 5.759998,0.16 5.600003,-0.16 L 68.160004,22.4 73.760002,21.440001 79.199997,20 84.639999,18.24 89.919998,16 95.040001,13.6 100,10.72 104.8,7.52 109.12,4 113.28,0"
       style="fill:none;stroke:#000000;stroke-width:26.4;stroke-linecap:round;stroke-linejoin:round;stroke-miterlimit:10;stroke-dasharray:none;stroke-opacity:1"
       transform="translate(335.20001,683.4266)"
       clip-path="url(#clipPath10)" />
  </g>
</svg>
