<?xml version="1.0" encoding="UTF-8" standalone="no"?>
<!-- Created with Inkscape (http://www.inkscape.org/) -->

<svg
   version="1.1"
   id="svg1"
   width="270.81332"
   height="344.38666"
   viewBox="0 0 270.81332 344.38666"
   sodipodi:docname="CrocusOfCopper28.pdf"
   xmlns:inkscape="http://www.inkscape.org/namespaces/inkscape"
   xmlns:sodipodi="http://sodipodi.sourceforge.net/DTD/sodipodi-0.dtd"
   xmlns="http://www.w3.org/2000/svg"
   xmlns:svg="http://www.w3.org/2000/svg">
  <defs
     id="defs1">
    <clipPath
       clipPathUnits="userSpaceOnUse"
       id="clipPath2">
      <path
         d="M 0,0.16 V 1122.5601 H 793.59998 V 0.16 Z"
         transform="translate(-466.56,-580)"
         clip-rule="evenodd"
         id="path2" />
    </clipPath>
    <clipPath
       clipPathUnits="userSpaceOnUse"
       id="clipPath4">
      <path
         d="M 0,0.16 V 1122.5601 H 793.59998 V 0.16 Z"
         transform="translate(-470.4,-580)"
         clip-rule="evenodd"
         id="path4" />
    </clipPath>
    <clipPath
       clipPathUnits="userSpaceOnUse"
       id="clipPath6">
      <path
         d="M 0,0.16 V 1122.5601 H 793.59998 V 0.16 Z"
         transform="translate(-470.4,-580)"
         clip-rule="evenodd"
         id="path6" />
    </clipPath>
    <clipPath
       clipPathUnits="userSpaceOnUse"
       id="clipPath8">
      <path
         d="M 0,0.16 V 1122.5601 H 793.59998 V 0.16 Z"
         transform="translate(3.3333334e-6)"
         clip-rule="evenodd"
         id="path8" />
    </clipPath>
    <clipPath
       clipPathUnits="userSpaceOnUse"
       id="clipPath10">
      <path
         d="M 0,0.16 V 1122.5601 H 793.59998 V 0.16 Z"
         transform="translate(3.3333334e-6)"
         clip-rule="evenodd"
         id="path10" />
    </clipPath>
    <clipPath
       clipPathUnits="userSpaceOnUse"
       id="clipPath12">
      <path
         d="M 0,0.16 V 1122.5601 H 793.59998 V 0.16 Z"
         transform="translate(-391.04001,-693.28003)"
         clip-rule="evenodd"
         id="path12" />
    </clipPath>
    <clipPath
       clipPathUnits="userSpaceOnUse"
       id="clipPath14">
      <path
         d="M 0,0.16 V 1122.5601 H 793.59998 V 0.16 Z"
         transform="translate(3.3333334e-6)"
         clip-rule="evenodd"
         id="path14" />
    </clipPath>
    <clipPath
       clipPathUnits="userSpaceOnUse"
       id="clipPath16">
      <path
         d="M 0,0.16 V 1122.5601 H 793.59998 V 0.16 Z"
         transform="translate(3.3333334e-6)"
         clip-rule="evenodd"
         id="path16" />
    </clipPath>
    <clipPath
       clipPathUnits="userSpaceOnUse"
       id="clipPath18">
      <path
         d="M 0,0.16 V 1122.5601 H 793.59998 V 0.16 Z"
         transform="translate(3.3333334e-6)"
         clip-rule="evenodd"
         id="path18" />
    </clipPath>
  </defs>
  <sodipodi:namedview
     id="namedview1"
     pagecolor="#505050"
     bordercolor="#eeeeee"
     borderopacity="1"
     inkscape:showpageshadow="0"
     inkscape:pageopacity="0"
     inkscape:pagecheckerboard="0"
     inkscape:deskcolor="#505050">
    <inkscape:page
       x="0"
       y="0"
       inkscape:label="1"
       id="page1"
       width="270.81332"
       height="344.38666"
       margin="0"
       bleed="0" />
  </sodipodi:namedview>
  <g
     id="g1"
     inkscape:groupmode="layer"
     inkscape:label="1">
    <path
       id="path1"
       d="m 0,0 c 0,-41.700001 -33.810001,-75.519997 -75.519997,-75.519997 -41.710003,0 -75.519993,33.819996 -75.519993,75.519997 0,41.700001 33.80999,75.519997 75.519993,75.519997 C -33.810001,75.519997 0,41.700001 0,0 Z"
       style="fill:none;stroke:#000000;stroke-width:26.4;stroke-linecap:round;stroke-linejoin:round;stroke-miterlimit:10;stroke-dasharray:none;stroke-opacity:1"
       transform="translate(247.77333,98.146608)"
       clip-path="url(#clipPath2)" />
    <path
       id="path3"
       d="M 0,0 -0.16,-0.32 V -0.8 L -0.48,-1.12 -0.8,-1.44 -1.12,-1.6 -1.44,-1.76 H -1.92 -2.4 l -0.32,0.16 -0.32,0.16 -0.32,0.32 -0.32,0.32 -0.16,0.48 V 0 0.48 l 0.16,0.48 0.32,0.32 0.32,0.32 0.32,0.16 0.32,0.16 h 0.48 0.48 L -1.12,1.76 -0.8,1.6 -0.48,1.28 -0.16,0.96 V 0.48 L 0,0 v 0 z"
       style="fill:#000000;fill-opacity:1;fill-rule:evenodd;stroke:none"
       transform="translate(251.61333,98.146608)"
       clip-path="url(#clipPath4)" />
    <path
       id="path5"
       d="M 0,0 -0.16,-0.32 V -0.8 L -0.48,-1.12 -0.8,-1.44 -1.12,-1.6 -1.44,-1.76 H -1.92 -2.4 l -0.32,0.16 -0.32,0.16 -0.32,0.32 -0.32,0.32 -0.16,0.48 V 0 0.48 l 0.16,0.48 0.32,0.32 0.32,0.32 0.32,0.16 0.32,0.16 h 0.48 0.48 L -1.12,1.76 -0.8,1.6 -0.48,1.28 -0.16,0.96 V 0.48 L 0,0"
       style="fill:none;stroke:#000000;stroke-width:0.64;stroke-linecap:round;stroke-linejoin:round;stroke-miterlimit:10;stroke-dasharray:none;stroke-opacity:1"
       transform="translate(251.61333,98.146608)"
       clip-path="url(#clipPath6)" />
    <path
       id="path7"
       d="M 391.04001,655.52002 V 806.56"
       style="fill:none;stroke:#000000;stroke-width:26.4;stroke-linecap:round;stroke-linejoin:round;stroke-miterlimit:10;stroke-dasharray:none;stroke-opacity:1"
       transform="translate(-218.78667,-481.85339)"
       clip-path="url(#clipPath8)" />
    <path
       id="path9"
       d="M 466.56,731.03998 H 240"
       style="fill:none;stroke:#000000;stroke-width:26.4;stroke-linecap:round;stroke-linejoin:round;stroke-miterlimit:10;stroke-dasharray:none;stroke-opacity:1"
       transform="translate(-218.78667,-481.85339)"
       clip-path="url(#clipPath10)" />
    <path
       id="path11"
       d="M 0,0 -3.52,0.16 -6.88,0.64 -10.24,1.28 -13.6,2.4 -16.639999,3.84 -19.68,5.44 -22.559999,7.36 -25.280001,9.6 -27.68,12 l -2.24,2.56 -1.92,2.880001 -1.759998,3.039999 -1.440003,3.04 -1.119999,3.359999 -0.959999,3.360001 -0.479999,3.359998 -0.16,3.360001 V 40.48 l 0.479999,3.36 0.64,3.360001 1.119999,3.36 1.279998,3.199997 1.600003,3.040001 1.92,2.880001 2.08,2.720002 2.399999,2.559997 2.56,2.239998 2.880001,2.080002 2.879999,1.760002 3.2,1.440002 3.2,1.119995 3.36,0.96 3.36,0.639999 3.36,0.160004 h 3.52"
       style="fill:none;stroke:#000000;stroke-width:26.4;stroke-linecap:round;stroke-linejoin:round;stroke-miterlimit:10;stroke-dasharray:none;stroke-opacity:1"
       transform="translate(172.25334,211.42664)"
       clip-path="url(#clipPath12)" />
    <path
       id="path13"
       d="M 391.04001,693.28003 H 466.56"
       style="fill:none;stroke:#000000;stroke-width:26.4;stroke-linecap:round;stroke-linejoin:round;stroke-miterlimit:10;stroke-dasharray:none;stroke-opacity:1"
       transform="translate(-218.78667,-481.85339)"
       clip-path="url(#clipPath14)" />
    <path
       id="path15"
       d="M 391.04001,768.79999 H 466.56"
       style="fill:none;stroke:#000000;stroke-width:26.4;stroke-linecap:round;stroke-linejoin:round;stroke-miterlimit:10;stroke-dasharray:none;stroke-opacity:1"
       transform="translate(-218.78667,-481.85339)"
       clip-path="url(#clipPath16)" />
    <path
       id="path17"
       d="m 277.76001,693.28003 v 75.51996"
       style="fill:none;stroke:#000000;stroke-width:26.4;stroke-linecap:round;stroke-linejoin:round;stroke-miterlimit:10;stroke-dasharray:none;stroke-opacity:1"
       transform="translate(-218.78667,-481.85339)"
       clip-path="url(#clipPath18)" />
  </g>
</svg>
