<?xml version="1.0" encoding="UTF-8" standalone="no"?>
<!-- Created with Inkscape (http://www.inkscape.org/) -->

<svg
   version="1.1"
   id="svg1"
   width="358.85333"
   height="315.01334"
   viewBox="0 0 358.85333 315.01334"
   sodipodi:docname="CrocusOfCopper15.pdf"
   xmlns:inkscape="http://www.inkscape.org/namespaces/inkscape"
   xmlns:sodipodi="http://sodipodi.sourceforge.net/DTD/sodipodi-0.dtd"
   xmlns="http://www.w3.org/2000/svg"
   xmlns:svg="http://www.w3.org/2000/svg">
  <defs
     id="defs1">
    <clipPath
       clipPathUnits="userSpaceOnUse"
       id="clipPath2">
      <path
         d="M 0,0.16 V 1122.5601 H 793.59998 V 0.16 Z"
         transform="translate(-481.76001,-427.20001)"
         clip-rule="evenodd"
         id="path2" />
    </clipPath>
    <clipPath
       clipPathUnits="userSpaceOnUse"
       id="clipPath4">
      <path
         d="M 0,0.16 V 1122.5601 H 793.59998 V 0.16 Z"
         transform="translate(-3.3333333e-6)"
         clip-rule="evenodd"
         id="path4" />
    </clipPath>
    <clipPath
       clipPathUnits="userSpaceOnUse"
       id="clipPath6">
      <path
         d="M 0,0.16 V 1122.5601 H 793.59998 V 0.16 Z"
         transform="translate(-533.76001,-559.03998)"
         clip-rule="evenodd"
         id="path6" />
    </clipPath>
  </defs>
  <sodipodi:namedview
     id="namedview1"
     pagecolor="#505050"
     bordercolor="#eeeeee"
     borderopacity="1"
     inkscape:showpageshadow="0"
     inkscape:pageopacity="0"
     inkscape:pagecheckerboard="0"
     inkscape:deskcolor="#505050">
    <inkscape:page
       x="0"
       y="0"
       inkscape:label="1"
       id="page1"
       width="358.85333"
       height="315.01334"
       margin="0"
       bleed="0" />
  </sodipodi:namedview>
  <g
     id="g1"
     inkscape:groupmode="layer"
     inkscape:label="1">
    <path
       id="path1"
       d="m 0,0 -3.52,-1.92 -3.84,-1.6 -4,-1.28 -4.16,-0.8 -4.48,-0.48 -4.639999,-0.16 -4.640002,0.32 -4.960001,0.64 -5.119999,1.12 -5.119999,1.44 -5.279998,1.92 -5.440003,2.08 -5.439998,2.72 -5.440003,2.88 -5.599998,3.2 -5.599999,3.68 -5.599998,4 -5.760002,4.32 -5.599999,4.479999 -5.599998,4.960001 -5.600004,5.119999 -5.44,5.440003 -5.44,5.759998 -5.28,5.919998 -5.28,6.240002 -5.12,6.239998 -5.11999,6.560005 -4.80001,6.719994 -4.64,6.880005 -4.64,7.04 -4.32,7.199998 -4.15999,7.2 -4,7.36 -3.68001,7.36 -3.52,7.36 -3.36,7.36 -2.87999,7.36 L -180,152 l -2.56,7.36 -2.24,7.2 -1.92,7.19999 -1.76,7.04001 -1.44,7.04 -1.11999,6.72 -0.80001,6.72 -0.48001,6.39999 -0.31999,6.24001 0.16,6.08 0.32,5.75999 0.64,5.60001 0.8,5.28 1.28,4.96001 1.44,4.79998 1.92,4.32001 1.92,4.16 2.40001,3.68 2.55999,3.51999 2.87999,3.04001 3.20002,2.72 3.36,2.39999 3.51999,2.08002 3.84001,1.6 4,1.12 4.15999,0.95999 4.48001,0.48001 h 4.64 l 4.63999,-0.32001 4.96,-0.64001 5.12001,-1.12 5.11999,-1.44 5.28,-1.75998 5.28,-2.24002 5.6,-2.56 5.44,-3.04 5.599998,-3.19999 5.599999,-3.67999 5.600006,-4.00001 5.759994,-4.15999 5.600006,-4.64002 5.599999,-4.95999 5.599998,-5.11999 5.439999,-5.44001 5.440002,-5.76001 5.279999,-5.91999 5.279999,-6.08001 5.120003,-6.39999 5.119999,-6.56 4.799999,-6.72 4.639999,-6.88 4.640002,-7.04 4.319999,-7.19999 4.16,-7.20002 4,-7.19999 3.68,-7.36 3.52,-7.36 3.2,-7.51999 3.04,-7.36001 2.88,-7.36 2.56,-7.36 2.24,-7.2 1.919999,-7.199997 1.76,-7.040001 L 20,82.559998 21.120001,75.68 22.08,69.120003 l 0.479999,-6.560002 0.32,-6.240001 -0.16,-5.919998 L 22.4,44.48 21.76,39.040001 20.799999,33.599998 19.68,28.639999 18.08,24 16.32,19.52 14.24,15.36 12,11.68 9.44,8.16 6.56,5.12 3.36,2.4 0,0"
       style="fill:none;stroke:#000000;stroke-width:26.4;stroke-linecap:round;stroke-linejoin:round;stroke-miterlimit:10;stroke-dasharray:none;stroke-opacity:1"
       transform="translate(214.94668,21.42662)"
       clip-path="url(#clipPath2)" />
    <path
       id="path3"
       d="M 530.23999,561.44 H 307.20001"
       style="fill:none;stroke:#000000;stroke-width:26.4;stroke-linecap:round;stroke-linejoin:round;stroke-miterlimit:10;stroke-dasharray:none;stroke-opacity:1"
       transform="translate(-266.81333,-405.77339)"
       clip-path="url(#clipPath4)" />
    <path
       id="path5"
       d="m 0,0 -0.16,3.52 0.32,3.36 0.64,3.36 0.8,3.2 1.28,3.199999 1.6,3.040001 1.76,2.879999 2.08,2.560002 2.24,2.559999 2.56,2.08 2.88,2.08 2.879999,1.599999 L 21.92,34.880001 25.280001,36 28.48,36.799999 l 3.36,0.32 3.360001,0.16 3.36,-0.16 3.359997,-0.639999 3.360001,-0.8 3.200001,-1.119999 3.04,-1.600002 2.880002,-1.759998 2.719997,-2.08 L 59.52,26.879999 61.759998,24.32 63.84,21.6 65.599998,18.719999 67.040001,15.68 68.160004,12.48 68.959999,9.12 69.440002,5.76 69.599998,2.4"
       style="fill:none;stroke:#000000;stroke-width:26.4;stroke-linecap:round;stroke-linejoin:round;stroke-miterlimit:10;stroke-dasharray:none;stroke-opacity:1"
       transform="translate(266.94668,153.26659)"
       clip-path="url(#clipPath6)" />
  </g>
</svg>
