<?xml version="1.0" encoding="UTF-8" standalone="no"?>
<!-- Created with Inkscape (http://www.inkscape.org/) -->

<svg
   version="1.1"
   id="svg1"
   width="561.64001"
   height="337.69333"
   viewBox="0 0 561.64001 337.69333"
   sodipodi:docname="CrocusOfCopper2.pdf"
   xmlns:inkscape="http://www.inkscape.org/namespaces/inkscape"
   xmlns:sodipodi="http://sodipodi.sourceforge.net/DTD/sodipodi-0.dtd"
   xmlns="http://www.w3.org/2000/svg"
   xmlns:svg="http://www.w3.org/2000/svg">
  <defs
     id="defs1">
    <clipPath
       clipPathUnits="userSpaceOnUse"
       id="clipPath2">
      <path
         d="M 0,0.16 V 1122.5601 H 793.59998 V 0.16 Z"
         transform="translate(-472.32001,-372.48001)"
         clip-rule="evenodd"
         id="path2" />
    </clipPath>
    <clipPath
       clipPathUnits="userSpaceOnUse"
       id="clipPath4">
      <path
         d="M 0,0.16 V 1122.5601 H 793.59998 V 0.16 Z"
         clip-rule="evenodd"
         id="path4" />
    </clipPath>
    <clipPath
       clipPathUnits="userSpaceOnUse"
       id="clipPath6">
      <path
         d="M 0,0.16 V 1122.5601 H 793.59998 V 0.16 Z"
         clip-rule="evenodd"
         id="path6" />
    </clipPath>
    <clipPath
       clipPathUnits="userSpaceOnUse"
       id="clipPath8">
      <path
         d="M 0,0.16 V 1122.5601 H 793.59998 V 0.16 Z"
         transform="translate(-698.88,-221.44)"
         clip-rule="evenodd"
         id="path8" />
    </clipPath>
  </defs>
  <sodipodi:namedview
     id="namedview1"
     pagecolor="#505050"
     bordercolor="#eeeeee"
     borderopacity="1"
     inkscape:showpageshadow="0"
     inkscape:pageopacity="0"
     inkscape:pagecheckerboard="0"
     inkscape:deskcolor="#505050">
    <inkscape:page
       x="0"
       y="0"
       inkscape:label="1"
       id="page1"
       width="561.64001"
       height="337.69333"
       margin="0"
       bleed="0" />
  </sodipodi:namedview>
  <g
     id="g1"
     inkscape:groupmode="layer"
     inkscape:label="1">
    <path
       id="path1"
       d="m 0,0 c 0,-83.410004 -67.620003,-151.03999 -151.03999,-151.03999 -83.42002,0 -151.04,67.629986 -151.04,151.03999 0,83.410004 67.61998,151.03999 151.04,151.03999 C -67.620003,151.03999 0,83.410004 0,0 Z"
       style="fill:none;stroke:#000000;stroke-width:26.4;stroke-linecap:round;stroke-linejoin:round;stroke-miterlimit:10;stroke-dasharray:none;stroke-opacity:1"
       transform="translate(472.32001,751.55995)"
       clip-path="url(#clipPath2)" />
    <path
       id="path3"
       d="M 321.28,221.44 V 523.52002"
       style="fill:none;stroke:#000000;stroke-width:26.4;stroke-linecap:round;stroke-linejoin:round;stroke-miterlimit:10;stroke-dasharray:none;stroke-opacity:1"
       transform="translate(0,379.07994)"
       clip-path="url(#clipPath4)" />
    <path
       id="path5"
       d="m 321.28,372.48001 h 377.6"
       style="fill:none;stroke:#000000;stroke-width:26.4;stroke-linecap:round;stroke-linejoin:round;stroke-miterlimit:10;stroke-dasharray:none;stroke-opacity:1"
       transform="translate(0,379.07994)"
       clip-path="url(#clipPath6)" />
    <path
       id="path7"
       d="m 0,0 -8.16,0.32 -8.16,0.64 -8.16,1.12 -8,1.44 -7.84,2.08 -7.84,2.4 -7.68,2.72 -7.520001,3.36 -7.36,3.52 -7.040001,4 -7.040001,4.48 -6.559998,4.799999 L -97.760002,36 -103.84,41.439999 l -5.76,5.760002 -5.44,6.079998 -5.12,6.400001 -4.8,6.559998 -4.48,7.040001 -4,7.040001 -3.67999,7.36 -3.20002,7.519997 -2.71998,7.680003 -2.40001,7.84 -2.08,7.84 -1.44001,8 -1.11999,8.16 -0.64,8.16 -0.31999,8.15999 0.31999,8.16001 0.64,8.16 1.11999,8.16 1.44001,8 2.08,8 2.40001,7.84 2.71998,7.67999 3.20002,7.52001 3.67999,7.19999 4,7.20002 4.48,6.87999 4.8,6.55999 5.12,6.40001 5.44,6.08 5.76,5.76001 6.079998,5.59998 6.400001,5.12 6.559998,4.64001 7.040001,4.48001 7.040001,4 7.36,3.67999 7.520001,3.19999 7.68,2.88 7.84,2.40002 7.84,1.91999 8,1.6 8.16,1.12 8.16,0.64001 8.16,0.15998"
       style="fill:none;stroke:#000000;stroke-width:26.4;stroke-linecap:round;stroke-linejoin:round;stroke-miterlimit:10;stroke-dasharray:none;stroke-opacity:1"
       transform="translate(698.88,600.51994)"
       clip-path="url(#clipPath8)" />
  </g>
</svg>
