<?xml version="1.0" encoding="UTF-8" standalone="no"?>
<!-- Created with Inkscape (http://www.inkscape.org/) -->

<svg
   version="1.1"
   id="svg1"
   width="336.18668"
   height="332.37332"
   viewBox="0 0 336.18668 332.37332"
   sodipodi:docname="CrocusMartis3.pdf"
   xmlns:inkscape="http://www.inkscape.org/namespaces/inkscape"
   xmlns:sodipodi="http://sodipodi.sourceforge.net/DTD/sodipodi-0.dtd"
   xmlns="http://www.w3.org/2000/svg"
   xmlns:svg="http://www.w3.org/2000/svg">
  <defs
     id="defs1">
    <clipPath
       clipPathUnits="userSpaceOnUse"
       id="clipPath2">
      <path
         d="M 0,0.16 V 1122.5601 H 793.59998 V 0.16 Z"
         transform="translate(-403.35999,-630.56)"
         clip-rule="evenodd"
         id="path2" />
    </clipPath>
    <clipPath
       clipPathUnits="userSpaceOnUse"
       id="clipPath4">
      <path
         d="M 0,0.16 V 1122.5601 H 793.59998 V 0.16 Z"
         transform="translate(-434.56,-416.96)"
         clip-rule="evenodd"
         id="path4" />
    </clipPath>
    <clipPath
       clipPathUnits="userSpaceOnUse"
       id="clipPath6">
      <path
         d="M 0,0.16 V 1122.5601 H 793.59998 V 0.16 Z"
         transform="translate(-488,-470.23999)"
         clip-rule="evenodd"
         id="path6" />
    </clipPath>
    <clipPath
       clipPathUnits="userSpaceOnUse"
       id="clipPath8">
      <path
         d="M 0,0.16 V 1122.5601 H 793.59998 V 0.16 Z"
         clip-rule="evenodd"
         id="path8" />
    </clipPath>
  </defs>
  <sodipodi:namedview
     id="namedview1"
     pagecolor="#505050"
     bordercolor="#eeeeee"
     borderopacity="1"
     inkscape:showpageshadow="0"
     inkscape:pageopacity="0"
     inkscape:pagecheckerboard="0"
     inkscape:deskcolor="#505050">
    <inkscape:page
       x="0"
       y="0"
       inkscape:label="1"
       id="page1"
       width="336.18668"
       height="332.37332"
       margin="0"
       bleed="0" />
  </sodipodi:namedview>
  <g
     id="g1"
     inkscape:groupmode="layer"
     inkscape:label="1">
    <path
       id="path1"
       d="m 0,0 c 0,-41.700001 -33.810001,-75.519997 -75.519997,-75.519997 -41.710003,0 -75.519993,33.819996 -75.519993,75.519997 0,41.700001 33.80999,75.519997 75.519993,75.519997 C -33.810001,75.519997 0,41.700001 0,0 Z"
       style="fill:none;stroke:#000000;stroke-width:26.4;stroke-linecap:round;stroke-linejoin:round;stroke-miterlimit:10;stroke-dasharray:none;stroke-opacity:1"
       transform="translate(403.35999,627.89327)"
       clip-path="url(#clipPath2)" />
    <path
       id="path3"
       d="m 0,0 -2.24,2.56 -2.24,2.72 -1.76,3.04 -1.6,3.04 -1.28,3.36 -0.96,3.2 -0.64,3.520001 -0.32,3.519998 V 28.32 l 0.32,3.52 0.64,3.520001 0.96,3.2 1.28,3.359997 1.6,3.040001 L -4.48,48 -2.24,50.720001 0,53.279999 2.56,55.68 5.44,57.759998 8.32,59.68 l 3.2,1.439999 3.2,1.280003 3.36,0.959999 L 21.6,64 24.959999,64.32 H 28.48 L 32,64 l 3.360001,-0.639999 3.36,-0.959999 3.199997,-1.280003 L 45.119999,59.68 48.16,57.759998 50.880001,55.68 53.439999,53.279999"
       style="fill:none;stroke:#000000;stroke-width:26.4;stroke-linecap:round;stroke-linejoin:round;stroke-miterlimit:10;stroke-dasharray:none;stroke-opacity:1"
       transform="translate(434.56,414.29327)"
       clip-path="url(#clipPath4)" />
    <path
       id="path5"
       d="m 0,0 -2.4,2.56 -2.08,2.88 -1.76,2.88 -1.6,3.2 -1.28,3.2 -0.96,3.36 -0.64,3.52 -0.32,3.359999 V 28.48 l 0.32,3.52 0.64,3.360001 0.96,3.36 1.28,3.360001 1.6,3.039997 L -4.48,48.16 -2.4,50.880001 0,53.439999 2.56,55.84 5.44,57.919998 8.32,59.68 l 3.2,1.599999 3.2,1.280002 3.36,0.959999 3.360001,0.640004 3.519998,0.319999 H 28.48 l 3.36,-0.319999 3.520001,-0.640004 3.36,-0.959999 3.199997,-1.280002 L 45.119999,59.68 48,57.919998 50.880001,55.84 53.439999,53.439999"
       style="fill:none;stroke:#000000;stroke-width:26.4;stroke-linecap:round;stroke-linejoin:round;stroke-miterlimit:10;stroke-dasharray:none;stroke-opacity:1"
       transform="translate(488,467.57326)"
       clip-path="url(#clipPath6)" />
    <path
       id="path7"
       d="M 488,470.23999 381.28,577.12"
       style="fill:none;stroke:#000000;stroke-width:26.4;stroke-linecap:round;stroke-linejoin:round;stroke-miterlimit:10;stroke-dasharray:none;stroke-opacity:1"
       transform="translate(0,-2.6667253)"
       clip-path="url(#clipPath8)" />
  </g>
</svg>
