<?xml version="1.0" encoding="UTF-8" standalone="no"?>
<!-- Created with Inkscape (http://www.inkscape.org/) -->

<svg
   version="1.1"
   id="svg1"
   width="249.46667"
   height="340.37332"
   viewBox="0 0 249.46667 340.37332"
   sodipodi:docname="CrocusOfCopper29.pdf"
   xmlns:inkscape="http://www.inkscape.org/namespaces/inkscape"
   xmlns:sodipodi="http://sodipodi.sourceforge.net/DTD/sodipodi-0.dtd"
   xmlns="http://www.w3.org/2000/svg"
   xmlns:svg="http://www.w3.org/2000/svg">
  <defs
     id="defs1">
    <clipPath
       clipPathUnits="userSpaceOnUse"
       id="clipPath2">
      <path
         d="M 0,0.16 V 1122.5601 H 793.59998 V 0.16 Z"
         transform="translate(-438.23999,-539.84003)"
         clip-rule="evenodd"
         id="path2" />
    </clipPath>
    <clipPath
       clipPathUnits="userSpaceOnUse"
       id="clipPath4">
      <path
         d="M 0,0.16 V 1122.5601 H 793.59998 V 0.16 Z"
         transform="translate(-442.07999,-539.84003)"
         clip-rule="evenodd"
         id="path4" />
    </clipPath>
    <clipPath
       clipPathUnits="userSpaceOnUse"
       id="clipPath6">
      <path
         d="M 0,0.16 V 1122.5601 H 793.59998 V 0.16 Z"
         transform="translate(-442.07999,-539.84003)"
         clip-rule="evenodd"
         id="path6" />
    </clipPath>
    <clipPath
       clipPathUnits="userSpaceOnUse"
       id="clipPath8">
      <path
         d="M 0,0.16 V 1122.5601 H 793.59998 V 0.16 Z"
         clip-rule="evenodd"
         id="path8" />
    </clipPath>
    <clipPath
       clipPathUnits="userSpaceOnUse"
       id="clipPath10">
      <path
         d="M 0,0.16 V 1122.5601 H 793.59998 V 0.16 Z"
         clip-rule="evenodd"
         id="path10" />
    </clipPath>
    <clipPath
       clipPathUnits="userSpaceOnUse"
       id="clipPath12">
      <path
         d="M 0,0.16 V 1122.5601 H 793.59998 V 0.16 Z"
         transform="translate(-428.64002,-431.35999)"
         clip-rule="evenodd"
         id="path12" />
    </clipPath>
  </defs>
  <sodipodi:namedview
     id="namedview1"
     pagecolor="#505050"
     bordercolor="#eeeeee"
     borderopacity="1"
     inkscape:showpageshadow="0"
     inkscape:pageopacity="0"
     inkscape:pagecheckerboard="0"
     inkscape:deskcolor="#505050">
    <inkscape:page
       x="0"
       y="0"
       inkscape:label="1"
       id="page1"
       width="249.46667"
       height="340.37332"
       margin="0"
       bleed="0" />
  </sodipodi:namedview>
  <g
     id="g1"
     inkscape:groupmode="layer"
     inkscape:label="1">
    <path
       id="path1"
       d="m 0,0 c 0,-41.700001 -33.810001,-75.519997 -75.519997,-75.519997 -41.710003,0 -75.519993,33.819996 -75.519993,75.519997 0,41.700001 33.80999,75.519997 75.519993,75.519997 C -33.810001,75.519997 0,41.700001 0,0 Z"
       style="fill:none;stroke:#000000;stroke-width:26.4;stroke-linecap:round;stroke-linejoin:round;stroke-miterlimit:10;stroke-dasharray:none;stroke-opacity:1"
       transform="translate(172.75999,132.7333)"
       clip-path="url(#clipPath2)" />
    <path
       id="path3"
       d="M 0,0 -0.16,-0.32 -0.32,-0.8 -0.48,-1.12 -0.8,-1.44 -1.12,-1.6 -1.6,-1.76 H -1.92 -2.4 l -0.32,0.16 -0.48,0.16 -0.16,0.32 -0.32,0.32 -0.16,0.48 V 0 0.48 l 0.16,0.48 0.32,0.32 0.16,0.32 0.48,0.16 0.32,0.16 h 0.48 0.32 L -1.12,1.76 -0.8,1.6 -0.48,1.28 -0.32,0.96 -0.16,0.48 0,0 v 0 z"
       style="fill:#000000;fill-opacity:1;fill-rule:evenodd;stroke:none"
       transform="translate(176.59999,132.7333)"
       clip-path="url(#clipPath4)" />
    <path
       id="path5"
       d="M 0,0 -0.16,-0.32 -0.32,-0.8 -0.48,-1.12 -0.8,-1.44 -1.12,-1.6 -1.6,-1.76 H -1.92 -2.4 l -0.32,0.16 -0.48,0.16 -0.16,0.32 -0.32,0.32 -0.16,0.48 V 0 0.48 l 0.16,0.48 0.32,0.32 0.16,0.32 0.48,0.16 0.32,0.16 h 0.48 0.32 L -1.12,1.76 -0.8,1.6 -0.48,1.28 -0.32,0.96 -0.16,0.48 0,0"
       style="fill:none;stroke:#000000;stroke-width:0.64;stroke-linecap:round;stroke-linejoin:round;stroke-miterlimit:10;stroke-dasharray:none;stroke-opacity:1"
       transform="translate(176.59999,132.7333)"
       clip-path="url(#clipPath6)" />
    <path
       id="path7"
       d="M 362.72,615.35998 V 728.64001"
       style="fill:none;stroke:#000000;stroke-width:26.4;stroke-linecap:round;stroke-linejoin:round;stroke-miterlimit:10;stroke-dasharray:none;stroke-opacity:1"
       transform="translate(-265.48,-407.10673)"
       clip-path="url(#clipPath8)" />
    <path
       id="path9"
       d="m 419.35999,672 h -113.28"
       style="fill:none;stroke:#000000;stroke-width:26.4;stroke-linecap:round;stroke-linejoin:round;stroke-miterlimit:10;stroke-dasharray:none;stroke-opacity:1"
       transform="translate(-265.48,-407.10673)"
       clip-path="url(#clipPath10)" />
    <path
       id="path11"
       d="M 0,0 -2.72,2.56 -5.28,5.6 -7.68,8.64 -9.6,12 l -1.76,3.52 -1.28,3.520001 -1.12,3.679998 -0.8,3.84 -0.32,3.840001 -0.16,3.840002 0.32,3.84 0.48,3.839996 0.96,3.84 1.28,3.680001 1.6,3.52 1.76,3.360001 2.24,3.2 2.4,3.040001 2.72,2.719998 2.88,2.559997 3.2,2.400002 3.2,1.920006 3.52,1.759994 3.68,1.279999 3.679999,1.120003 3.84,0.800003 3.84,0.319999 3.840001,0.159996 3.840002,-0.319999 3.84,-0.479996 3.679996,-0.960007 3.680001,-1.279998 3.52,-1.599999 L 52.32,71.040001 55.68,68.959999 58.560001,66.559998 61.439999,63.84 64,60.959999 66.239998,57.759998"
       style="fill:none;stroke:#000000;stroke-width:26.4;stroke-linecap:round;stroke-linejoin:round;stroke-miterlimit:10;stroke-dasharray:none;stroke-opacity:1"
       transform="translate(163.16002,24.25326)"
       clip-path="url(#clipPath12)" />
  </g>
</svg>
