<?xml version="1.0" encoding="UTF-8" standalone="no"?>
<!-- Created with Inkscape (http://www.inkscape.org/) -->

<svg
   version="1.1"
   id="svg1"
   width="294.82666"
   height="266.95999"
   viewBox="0 0 294.82666 266.95999"
   sodipodi:docname="CrocusOfCopper14.pdf"
   xmlns:inkscape="http://www.inkscape.org/namespaces/inkscape"
   xmlns:sodipodi="http://sodipodi.sourceforge.net/DTD/sodipodi-0.dtd"
   xmlns="http://www.w3.org/2000/svg"
   xmlns:svg="http://www.w3.org/2000/svg">
  <defs
     id="defs1">
    <clipPath
       clipPathUnits="userSpaceOnUse"
       id="clipPath2">
      <path
         d="M 0,0.16 V 1122.5601 H 793.59998 V 0.16 Z"
         transform="translate(-278.88,-655.84003)"
         clip-rule="evenodd"
         id="path2" />
    </clipPath>
    <clipPath
       clipPathUnits="userSpaceOnUse"
       id="clipPath4">
      <path
         d="M 0,0.16 V 1122.5601 H 793.59998 V 0.16 Z"
         transform="translate(-484.48001,-447.84)"
         clip-rule="evenodd"
         id="path4" />
    </clipPath>
    <clipPath
       clipPathUnits="userSpaceOnUse"
       id="clipPath6">
      <path
         d="M 0,0.16 V 1122.5601 H 793.59998 V 0.16 Z"
         transform="translate(-316.48001,-616)"
         clip-rule="evenodd"
         id="path6" />
    </clipPath>
    <clipPath
       clipPathUnits="userSpaceOnUse"
       id="clipPath8">
      <path
         d="M 0,0.16 V 1122.5601 H 793.59998 V 0.16 Z"
         transform="translate(-470.56,-445.44001)"
         clip-rule="evenodd"
         id="path8" />
    </clipPath>
    <clipPath
       clipPathUnits="userSpaceOnUse"
       id="clipPath10">
      <path
         d="M 0,0.16 V 1122.5601 H 793.59998 V 0.16 Z"
         clip-rule="evenodd"
         id="path10" />
    </clipPath>
    <clipPath
       clipPathUnits="userSpaceOnUse"
       id="clipPath12">
      <path
         d="M 0,0.16 V 1122.5601 H 793.59998 V 0.16 Z"
         transform="translate(-314.56,-560.15998)"
         clip-rule="evenodd"
         id="path12" />
    </clipPath>
  </defs>
  <sodipodi:namedview
     id="namedview1"
     pagecolor="#505050"
     bordercolor="#eeeeee"
     borderopacity="1"
     inkscape:showpageshadow="0"
     inkscape:pageopacity="0"
     inkscape:pagecheckerboard="0"
     inkscape:deskcolor="#505050">
    <inkscape:page
       x="0"
       y="0"
       inkscape:label="1"
       id="page1"
       width="294.82666"
       height="266.95999"
       margin="0"
       bleed="0" />
  </sodipodi:namedview>
  <g
     id="g1"
     inkscape:groupmode="layer"
     inkscape:label="1">
    <path
       id="path1"
       d="m 0,0 4,3.36 4.16,2.88 4.16,2.72 4.319999,2.08 4.480002,1.92 4.479999,1.44 4.48,0.96 4.640001,0.48 4.64,0.16 4.479999,-0.16 4.64,-0.64 4.479999,-1.12 4.48,-1.6 4.479999,-1.92 4.32,-2.24 4.160004,-2.72 4.159996,-3.04 4,-3.52 3.840004,-3.68 3.68,-4.16 3.519996,-4.48 3.200005,-4.8 L 96,-23.200001 98.879997,-28.48 101.6,-34.080002 104,-40 l 2.08,-6.080002 2.08,-6.239998 1.6,-6.400001 1.44,-6.559998 1.12,-6.559997 0.96,-6.720002 0.64,-6.880004 0.32,-6.879998 v -6.879997 l -0.16,-6.880003 -0.48,-6.88 -0.8,-6.72 -1.12,-6.72 -1.28,-6.71999 -1.6,-6.40001 -1.76,-6.23999 -2.08,-6.24001 -2.4,-5.92 -2.56,-5.6 -2.879997,-5.44001 -3.040001,-5.27999 -3.200005,-4.96 -3.36,-4.47999 L 84,-188 l -3.839996,-4 -4,-3.52 -4,-3.2 L 68,-201.60001 63.68,-204.16 l -4.319999,-2.08 -4.48,-1.6 -4.479999,-1.27999 -4.640004,-0.80001 -4.479999,-0.47999 h -4.64 L 32,-210.08 27.52,-209.11999 23.040001,-208"
       style="fill:none;stroke:#000000;stroke-width:26.4;stroke-linecap:round;stroke-linejoin:round;stroke-miterlimit:10;stroke-dasharray:none;stroke-opacity:1"
       transform="translate(278.88,665.1733)"
       clip-path="url(#clipPath2)" />
    <path
       id="path3"
       d="M 0,0 -4.48,-1.12 -8.96,-2.08 -13.6,-2.4 h -4.64 l -4.479999,0.48 -4.640002,0.8 -4.479999,1.28 -4.48,1.6 -4.319999,2.08 -4.32,2.56 -4.16,2.88 -4.16,3.2 -3.84,3.52 -3.84,4 -3.520004,4.32 L -68,28.799999 -71.199997,33.759998 -74.239998,39.040001 -76.959999,44.48 -79.519997,50.080002 -81.919998,56 -84,62.240002 l -1.760002,6.240001 -1.599999,6.399994 -1.440002,6.720001 -0.959999,6.720002 -0.799996,6.720001 -0.480003,6.879999 -0.32,6.88 0.160004,6.88 0.32,6.88 0.639999,6.88 0.799996,6.72 1.279998,6.56 1.440003,6.56 1.599998,6.39999 1.920006,6.24001 2.239998,6.08 2.400001,5.92 2.720002,5.6 2.879997,5.28 3.199997,5.12 3.200004,4.8 3.519997,4.48 3.68,4.16 3.840001,3.67999 4,3.52001 4,3.04001 4.319999,2.72 4.32,2.23999 4.32,1.92 4.480001,1.6 4.639999,1.12 4.480002,0.64 4.639999,0.16 4.64,-0.16 4.48,-0.48 4.64,-0.96001 4.48,-1.43998 4.48,-1.92002 4.32,-2.07998 4.16,-2.72001 4.160001,-2.88 4,-3.36"
       style="fill:none;stroke:#000000;stroke-width:26.4;stroke-linecap:round;stroke-linejoin:round;stroke-miterlimit:10;stroke-dasharray:none;stroke-opacity:1"
       transform="translate(484.48001,457.17327)"
       clip-path="url(#clipPath4)" />
    <path
       id="path5"
       d="m 0,0 -2.08,-1.92 -2.24,-1.6 -2.4,-1.44 -2.56,-1.12 -2.72,-0.8 -2.72,-0.64 -2.720001,-0.32 H -20.32 l -2.720001,0.32 -2.719999,0.64 -2.72,0.8 -2.560001,1.12 -2.399998,1.44 L -35.68,-1.92 -37.759998,0 -39.68,2.08 -41.279999,4.32 -42.720001,6.72 -43.84,9.28 -44.639999,12 l -0.64,2.72 -0.319999,2.720001 V 20.32 l 0.319999,2.720001 0.64,2.719999 0.799999,2.72 1.119999,2.560001 1.440002,2.399998 L -39.68,35.68 l 1.920002,2.079998"
       style="fill:none;stroke:#000000;stroke-width:26.4;stroke-linecap:round;stroke-linejoin:round;stroke-miterlimit:10;stroke-dasharray:none;stroke-opacity:1"
       transform="translate(316.48001,625.33327)"
       clip-path="url(#clipPath6)" />
    <path
       id="path7"
       d="m 0,0 2.24,0.16 3.68,0.48 3.36,0.64 3.04,0.96 2.88,1.12 2.56,1.28 2.4,1.76 2.08,1.76 1.92,2.08 1.6,2.4 0.48,0.64 0.479999,0.96 L 28.16,16.959999 29.120001,19.84 29.92,23.040001 30.4,26.4 l 0.159999,4 v 0.479999 l 0.16,0.800001 v 2.560002 l 0.320002,3.519996 0.32,1.920002 0.959999,3.040001 1.279998,2.239998 0.480004,0.639999 0.479999,0.640004 L 36.32,47.360001 38.080002,48.16 39.68,48.32 41.279999,47.84 42.720001,47.040001 44,45.599998 45.119999,44 l 0.960003,-2.240002 0.959999,-2.399997 0.32,-1.279999"
       style="fill:none;stroke:#000000;stroke-width:26.4;stroke-linecap:round;stroke-linejoin:round;stroke-miterlimit:10;stroke-dasharray:none;stroke-opacity:1"
       transform="translate(470.56,454.77328)"
       clip-path="url(#clipPath8)" />
    <path
       id="path9"
       d="m 355.51999,558.40002 74.08002,-0.80004"
       style="fill:none;stroke:#000000;stroke-width:26.4;stroke-linecap:round;stroke-linejoin:round;stroke-miterlimit:10;stroke-dasharray:none;stroke-opacity:1"
       transform="translate(0,9.3332747)"
       clip-path="url(#clipPath10)" />
    <path
       id="path11"
       d="m 0,0 v 2.24 l 0.16,2.4 0.48,2.24 0.8,2.08 1.12,2.08 1.28,1.92 1.44,1.76 1.76,1.6 1.76,1.44 2.08,1.119999 2.08,0.960001 2.24,0.64 2.240001,0.319999 H 19.84 l 2.24,-0.16 2.4,-0.479999 2.079999,-0.64 2.08,-0.960001 2.08,-1.279998 L 32.48,15.84 34.080002,14.08 35.52,12.32 l 1.119999,-2.08 0.959999,-2.08 0.640004,-2.24 0.479999,-2.24 0.16,-2.24"
       style="fill:none;stroke:#000000;stroke-width:26.4;stroke-linecap:round;stroke-linejoin:round;stroke-miterlimit:10;stroke-dasharray:none;stroke-opacity:1"
       transform="translate(314.56,569.49325)"
       clip-path="url(#clipPath12)" />
  </g>
</svg>
