<?xml version="1.0" encoding="UTF-8" standalone="no"?>
<!-- Created with Inkscape (http://www.inkscape.org/) -->

<svg
   version="1.1"
   id="svg1"
   width="316.16"
   height="319.01334"
   viewBox="0 0 316.16 319.01334"
   sodipodi:docname="CrocusOfCopper17.pdf"
   xmlns:inkscape="http://www.inkscape.org/namespaces/inkscape"
   xmlns:sodipodi="http://sodipodi.sourceforge.net/DTD/sodipodi-0.dtd"
   xmlns="http://www.w3.org/2000/svg"
   xmlns:svg="http://www.w3.org/2000/svg">
  <defs
     id="defs1">
    <clipPath
       clipPathUnits="userSpaceOnUse"
       id="clipPath2">
      <path
         d="M 0,0.16 V 1122.5601 H 793.59998 V 0.16 Z"
         transform="translate(-343.04001,-670.56)"
         clip-rule="evenodd"
         id="path2" />
    </clipPath>
    <clipPath
       clipPathUnits="userSpaceOnUse"
       id="clipPath4">
      <path
         d="M 0,0.16 V 1122.5601 H 793.59998 V 0.16 Z"
         transform="translate(-524.32,-670.56)"
         clip-rule="evenodd"
         id="path4" />
    </clipPath>
    <clipPath
       clipPathUnits="userSpaceOnUse"
       id="clipPath6">
      <path
         d="M 0,0.16 V 1122.5601 H 793.59998 V 0.16 Z"
         transform="translate(-524.32,-489.28)"
         clip-rule="evenodd"
         id="path6" />
    </clipPath>
    <clipPath
       clipPathUnits="userSpaceOnUse"
       id="clipPath8">
      <path
         d="M 0,0.16 V 1122.5601 H 793.59998 V 0.16 Z"
         transform="translate(-343.04001,-489.28)"
         clip-rule="evenodd"
         id="path8" />
    </clipPath>
    <clipPath
       clipPathUnits="userSpaceOnUse"
       id="clipPath10">
      <path
         d="M 0,0.16 V 1122.5601 H 793.59998 V 0.16 Z"
         transform="translate(-3.3333333e-6)"
         clip-rule="evenodd"
         id="path10" />
    </clipPath>
    <clipPath
       clipPathUnits="userSpaceOnUse"
       id="clipPath12">
      <path
         d="M 0,0.16 V 1122.5601 H 793.59998 V 0.16 Z"
         transform="translate(-3.3333333e-6)"
         clip-rule="evenodd"
         id="path12" />
    </clipPath>
  </defs>
  <sodipodi:namedview
     id="namedview1"
     pagecolor="#505050"
     bordercolor="#eeeeee"
     borderopacity="1"
     inkscape:showpageshadow="0"
     inkscape:pageopacity="0"
     inkscape:pagecheckerboard="0"
     inkscape:deskcolor="#505050">
    <inkscape:page
       x="0"
       y="0"
       inkscape:label="1"
       id="page1"
       width="316.16"
       height="319.01334"
       margin="0"
       bleed="0" />
  </sodipodi:namedview>
  <g
     id="g1"
     inkscape:groupmode="layer"
     inkscape:label="1">
    <path
       id="path1"
       d="M 0,0 C 0,-23.59 -19.120001,-42.720001 -42.720001,-42.720001 -66.32,-42.720001 -85.440002,-23.59 -85.440002,0 c 0,23.59 19.120002,42.720001 42.720001,42.720001 C -19.120001,42.720001 0,23.59 0,0 Z"
       style="fill:none;stroke:#000000;stroke-width:26.4;stroke-linecap:round;stroke-linejoin:round;stroke-miterlimit:10;stroke-dasharray:none;stroke-opacity:1"
       transform="translate(106.90668,248.75994)"
       clip-path="url(#clipPath2)" />
    <path
       id="path3"
       d="M 0,0 C 0,-23.59 -19.120001,-42.720001 -42.720001,-42.720001 -66.32,-42.720001 -85.440002,-23.59 -85.440002,0 c 0,23.59 19.120002,42.720001 42.720001,42.720001 C -19.120001,42.720001 0,23.59 0,0 Z"
       style="fill:none;stroke:#000000;stroke-width:26.4;stroke-linecap:round;stroke-linejoin:round;stroke-miterlimit:10;stroke-dasharray:none;stroke-opacity:1"
       transform="translate(288.18667,248.75994)"
       clip-path="url(#clipPath4)" />
    <path
       id="path5"
       d="M 0,0 C 0,-23.59 -19.120001,-42.720001 -42.720001,-42.720001 -66.32,-42.720001 -85.440002,-23.59 -85.440002,0 c 0,23.59 19.120002,42.720001 42.720001,42.720001 C -19.120001,42.720001 0,23.59 0,0 Z"
       style="fill:none;stroke:#000000;stroke-width:26.4;stroke-linecap:round;stroke-linejoin:round;stroke-miterlimit:10;stroke-dasharray:none;stroke-opacity:1"
       transform="translate(288.18667,67.47994)"
       clip-path="url(#clipPath6)" />
    <path
       id="path7"
       d="M 0,0 C 0,-23.59 -19.120001,-42.720001 -42.720001,-42.720001 -66.32,-42.720001 -85.440002,-23.59 -85.440002,0 c 0,23.59 19.120002,42.720001 42.720001,42.720001 C -19.120001,42.720001 0,23.59 0,0 Z"
       style="fill:none;stroke:#000000;stroke-width:26.4;stroke-linecap:round;stroke-linejoin:round;stroke-miterlimit:10;stroke-dasharray:none;stroke-opacity:1"
       transform="translate(106.90668,67.47994)"
       clip-path="url(#clipPath8)" />
    <path
       id="path9"
       d="M 330.56,519.52002 451.35999,640.32001"
       style="fill:none;stroke:#000000;stroke-width:26.4;stroke-linecap:round;stroke-linejoin:round;stroke-miterlimit:10;stroke-dasharray:none;stroke-opacity:1"
       transform="translate(-236.13333,-421.80006)"
       clip-path="url(#clipPath10)" />
    <path
       id="path11"
       d="M 451.35999,519.52002 330.56,640.32001"
       style="fill:none;stroke:#000000;stroke-width:26.4;stroke-linecap:round;stroke-linejoin:round;stroke-miterlimit:10;stroke-dasharray:none;stroke-opacity:1"
       transform="translate(-236.13333,-421.80006)"
       clip-path="url(#clipPath12)" />
  </g>
</svg>
