<?xml version="1.0" encoding="UTF-8" standalone="no"?>
<!-- Created with Inkscape (http://www.inkscape.org/) -->

<svg
   version="1.1"
   id="svg1"
   width="205.44"
   height="213.57333"
   viewBox="0 0 205.44 213.57333"
   sodipodi:docname="CrocusMartis6.pdf"
   xmlns:inkscape="http://www.inkscape.org/namespaces/inkscape"
   xmlns:sodipodi="http://sodipodi.sourceforge.net/DTD/sodipodi-0.dtd"
   xmlns="http://www.w3.org/2000/svg"
   xmlns:svg="http://www.w3.org/2000/svg">
  <defs
     id="defs1">
    <clipPath
       clipPathUnits="userSpaceOnUse"
       id="clipPath2">
      <path
         d="M 0,0.16 V 1122.5601 H 793.59998 V 0.16 Z"
         transform="translate(-316.95999,-534.56)"
         clip-rule="evenodd"
         id="path2" />
    </clipPath>
    <clipPath
       clipPathUnits="userSpaceOnUse"
       id="clipPath4">
      <path
         d="M 0,0.16 V 1122.5601 H 793.59998 V 0.16 Z"
         transform="translate(-370.39999,-587.84003)"
         clip-rule="evenodd"
         id="path4" />
    </clipPath>
    <clipPath
       clipPathUnits="userSpaceOnUse"
       id="clipPath6">
      <path
         d="M 0,0.16 V 1122.5601 H 793.59998 V 0.16 Z"
         clip-rule="evenodd"
         id="path6" />
    </clipPath>
    <clipPath
       clipPathUnits="userSpaceOnUse"
       id="clipPath8">
      <path
         d="M 0,0.16 V 1122.5601 H 793.59998 V 0.16 Z"
         clip-rule="evenodd"
         id="path8" />
    </clipPath>
    <clipPath
       clipPathUnits="userSpaceOnUse"
       id="clipPath10">
      <path
         d="M 0,0.16 V 1122.5601 H 793.59998 V 0.16 Z"
         clip-rule="evenodd"
         id="path10" />
    </clipPath>
  </defs>
  <sodipodi:namedview
     id="namedview1"
     pagecolor="#505050"
     bordercolor="#eeeeee"
     borderopacity="1"
     inkscape:showpageshadow="0"
     inkscape:pageopacity="0"
     inkscape:pagecheckerboard="0"
     inkscape:deskcolor="#505050">
    <inkscape:page
       x="0"
       y="0"
       inkscape:label="1"
       id="page1"
       width="205.44"
       height="213.57333"
       margin="0"
       bleed="0" />
  </sodipodi:namedview>
  <g
     id="g1"
     inkscape:groupmode="layer"
     inkscape:label="1">
    <path
       id="path1"
       d="m 0,0 -0.32,4.16 -0.16,4.16 0.32,4.16 0.8,4 0.96,4.159999 1.44,3.840001 1.76,3.84 2.08,3.52 2.4,3.520001 2.72,3.2 2.88,2.879998 3.2,2.720001 3.360001,2.400001 3.68,2.079998 3.839998,1.760003 3.84,1.279998 4,1.119999 4.16,0.64 4.16,0.319999 h 4.16 l 4.16,-0.479999"
       style="fill:none;stroke:#000000;stroke-width:26.4;stroke-linecap:round;stroke-linejoin:round;stroke-miterlimit:10;stroke-dasharray:none;stroke-opacity:1"
       transform="translate(24.799991,80.733273)"
       clip-path="url(#clipPath2)" />
    <path
       id="path3"
       d="m 0,0 -0.48,4.16 v 4.16 l 0.32,4.16 0.8,4.159999 0.96,4 1.44,4 L 4.8,28.32 6.88,32 l 2.4,3.360001 2.56,3.2 3.04,3.039997 3.2,2.560002 3.360001,2.400001 3.68,2.079998 3.679998,1.760003 4,1.439998 4,1.119999 4.16,0.639999 4.16,0.32 h 4.16 l 4.16,-0.479999"
       style="fill:none;stroke:#000000;stroke-width:26.4;stroke-linecap:round;stroke-linejoin:round;stroke-miterlimit:10;stroke-dasharray:none;stroke-opacity:1"
       transform="translate(78.239994,134.0133)"
       clip-path="url(#clipPath4)" />
    <path
       id="path5"
       d="M 477.12,481.12 316.95999,641.28003"
       style="fill:none;stroke:#000000;stroke-width:26.4;stroke-linecap:round;stroke-linejoin:round;stroke-miterlimit:10;stroke-dasharray:none;stroke-opacity:1"
       transform="translate(-292.16,-453.82673)"
       clip-path="url(#clipPath6)" />
    <path
       id="path7"
       d="m 477.12,481.12 -66.72001,13.27999"
       style="fill:none;stroke:#000000;stroke-width:26.4;stroke-linecap:round;stroke-linejoin:round;stroke-miterlimit:10;stroke-dasharray:none;stroke-opacity:1"
       transform="translate(-292.16,-453.82673)"
       clip-path="url(#clipPath8)" />
    <path
       id="path9"
       d="m 477.12,481.12 -13.28,66.72003"
       style="fill:none;stroke:#000000;stroke-width:26.4;stroke-linecap:round;stroke-linejoin:round;stroke-miterlimit:10;stroke-dasharray:none;stroke-opacity:1"
       transform="translate(-292.16,-453.82673)"
       clip-path="url(#clipPath10)" />
  </g>
</svg>
