<?xml version="1.0" encoding="UTF-8" standalone="no"?>
<!-- Created with Inkscape (http://www.inkscape.org/) -->

<svg
   version="1.1"
   id="svg1"
   width="286.82666"
   height="266.95999"
   viewBox="0 0 286.82666 266.95999"
   sodipodi:docname="CrocusOfCopper5.pdf"
   xmlns:inkscape="http://www.inkscape.org/namespaces/inkscape"
   xmlns:sodipodi="http://sodipodi.sourceforge.net/DTD/sodipodi-0.dtd"
   xmlns="http://www.w3.org/2000/svg"
   xmlns:svg="http://www.w3.org/2000/svg">
  <defs
     id="defs1">
    <clipPath
       clipPathUnits="userSpaceOnUse"
       id="clipPath2">
      <path
         d="M 0,0.16 V 1122.5601 H 793.59998 V 0.16 Z"
         transform="translate(-425.12,-523.52002)"
         clip-rule="evenodd"
         id="path2" />
    </clipPath>
    <clipPath
       clipPathUnits="userSpaceOnUse"
       id="clipPath4">
      <path
         d="M 0,0.16 V 1122.5601 H 793.59998 V 0.16 Z"
         transform="translate(-274.07999,-599.03998)"
         clip-rule="evenodd"
         id="path4" />
    </clipPath>
    <clipPath
       clipPathUnits="userSpaceOnUse"
       id="clipPath6">
      <path
         d="M 0,0.16 V 1122.5601 H 793.59998 V 0.16 Z"
         clip-rule="evenodd"
         id="path6" />
    </clipPath>
    <clipPath
       clipPathUnits="userSpaceOnUse"
       id="clipPath8">
      <path
         d="M 0,0.16 V 1122.5601 H 793.59998 V 0.16 Z"
         clip-rule="evenodd"
         id="path8" />
    </clipPath>
    <clipPath
       clipPathUnits="userSpaceOnUse"
       id="clipPath10">
      <path
         d="M 0,0.16 V 1122.5601 H 793.59998 V 0.16 Z"
         transform="translate(-500.64001,-599.03998)"
         clip-rule="evenodd"
         id="path10" />
    </clipPath>
  </defs>
  <sodipodi:namedview
     id="namedview1"
     pagecolor="#505050"
     bordercolor="#eeeeee"
     borderopacity="1"
     inkscape:showpageshadow="0"
     inkscape:pageopacity="0"
     inkscape:pagecheckerboard="0"
     inkscape:deskcolor="#505050">
    <inkscape:page
       x="0"
       y="0"
       inkscape:label="1"
       id="page1"
       width="286.82666"
       height="266.95999"
       margin="0"
       bleed="0" />
  </sodipodi:namedview>
  <g
     id="g1"
     inkscape:groupmode="layer"
     inkscape:label="1">
    <path
       id="path1"
       d="M 0,0 -0.16,-5.28 -0.64,-10.72 -1.6,-16 -3.04,-21.120001 -4.64,-26.24 -6.72,-31.200001 -9.12,-36.16 l -2.72,-4.479999 -3.04,-4.48 -3.36,-4.16 -3.68,-4 -4,-3.68 -4.16,-3.360001 -4.320002,-3.040001 -4.639999,-2.720001 -4.799999,-2.559997 -4.959999,-2.080002 -5.119999,-1.599999 -5.280003,-1.440002 -5.280002,-0.959999 -5.279999,-0.479996 -5.439995,-0.32 -5.280006,0.159996 -5.439995,0.64 -5.279999,0.959999 -5.120003,1.279999 -5.12,1.600006 -5.12,2.079994 -4.8,2.400001 -4.64,2.720002 -4.32,3.040001 -4.32,3.36 -3.84,3.520001 -3.68,4 -3.51999,4.16 -3.04001,4.319999 -2.72,4.64 -2.56,4.799999 -2.08,4.960001 -1.76,5.119999 -1.27999,5.120001 -0.96001,5.279999 -0.64,5.44 -0.31999,5.28"
       style="fill:none;stroke:#000000;stroke-width:26.4;stroke-linecap:round;stroke-linejoin:round;stroke-miterlimit:10;stroke-dasharray:none;stroke-opacity:1"
       transform="translate(425.12,524.85329)"
       clip-path="url(#clipPath2)" />
    <path
       id="path3"
       d="M 0,0 0.32,5.44 0.8,10.72 1.76,16 3.04,21.280001 4.8,26.4 6.88,31.360001 9.28,36.16 12,40.799999 l 3.2,4.48 3.359999,4.16 3.680001,4 3.84,3.68 4.16,3.360001 4.480001,3.04 4.64,2.719998 4.799999,2.400001 4.959999,2.080002 5.120003,1.760002 5.279998,1.279999 5.280003,0.959999 5.439995,0.64 5.279999,0.159996 5.440002,-0.159996 5.440003,-0.64 5.279998,-0.959999 5.120003,-1.279999 5.119997,-1.760002 4.96,-2.080002 4.96,-2.400001 4.48,-2.719998 4.48,-3.04 4.16,-3.360001 4.00001,-3.68 3.67999,-4 3.36,-4.16 3.03999,-4.48 L 141.92,36.16 144.32001,31.360001 146.39999,26.4 148,21.280001 149.44,16 l 0.8,-5.28 0.64,-5.28 0.15999,-5.44"
       style="fill:none;stroke:#000000;stroke-width:26.4;stroke-linecap:round;stroke-linejoin:round;stroke-miterlimit:10;stroke-dasharray:none;stroke-opacity:1"
       transform="translate(274.07999,600.37325)"
       clip-path="url(#clipPath4)" />
    <path
       id="path5"
       d="m 425.12,523.52002 v 75.51996"
       style="fill:none;stroke:#000000;stroke-width:26.4;stroke-linecap:round;stroke-linejoin:round;stroke-miterlimit:10;stroke-dasharray:none;stroke-opacity:1"
       transform="translate(0,1.3332747)"
       clip-path="url(#clipPath6)" />
    <path
       id="path7"
       d="M 292.95999,561.28003 H 500.64001"
       style="fill:none;stroke:#000000;stroke-width:26.4;stroke-linecap:round;stroke-linejoin:round;stroke-miterlimit:10;stroke-dasharray:none;stroke-opacity:1"
       transform="translate(0,1.3332747)"
       clip-path="url(#clipPath8)" />
    <path
       id="path9"
       d="m 0,0 2.24,-0.16 2.4,-0.32 2.08,-0.8 2.08,-0.8 1.92,-1.28 1.92,-1.44 1.6,-1.6 1.28,-1.76 1.279999,-1.92 0.960001,-2.08 0.64,-2.24 0.319999,-2.239999 0.16,-2.24 -0.16,-2.240002 L 18.4,-23.360001 17.76,-25.6 16.799999,-27.68 15.52,-29.6 14.24,-31.360001 12.64,-32.959999 10.72,-34.400002 8.8,-35.52 l -2.08,-0.96 -2.08,-0.639999 -2.4,-0.479999 -2.24,-0.16"
       style="fill:none;stroke:#000000;stroke-width:26.4;stroke-linecap:round;stroke-linejoin:round;stroke-miterlimit:10;stroke-dasharray:none;stroke-opacity:1"
       transform="translate(500.64001,600.37325)"
       clip-path="url(#clipPath10)" />
  </g>
</svg>
