<?xml version="1.0" encoding="UTF-8" standalone="no"?>
<!-- Created with Inkscape (http://www.inkscape.org/) -->

<svg
   version="1.1"
   id="svg1"
   width="462.90668"
   height="258.94666"
   viewBox="0 0 462.90668 258.94666"
   sodipodi:docname="Ethanol29.pdf"
   xmlns:inkscape="http://www.inkscape.org/namespaces/inkscape"
   xmlns:sodipodi="http://sodipodi.sourceforge.net/DTD/sodipodi-0.dtd"
   xmlns="http://www.w3.org/2000/svg"
   xmlns:svg="http://www.w3.org/2000/svg">
  <defs
     id="defs1">
    <clipPath
       clipPathUnits="userSpaceOnUse"
       id="clipPath2">
      <path
         d="M 0,0.16 V 1122.5601 H 793.59998 V 0.16 Z"
         transform="translate(-189.12,-587.20002)"
         clip-rule="evenodd"
         id="path2" />
    </clipPath>
    <clipPath
       clipPathUnits="userSpaceOnUse"
       id="clipPath4">
      <path
         d="M 0,0.16 V 1122.5601 H 793.59998 V 0.16 Z"
         transform="translate(-566.71997,-511.67999)"
         clip-rule="evenodd"
         id="path4" />
    </clipPath>
    <clipPath
       clipPathUnits="userSpaceOnUse"
       id="clipPath6">
      <path
         d="M 0,0.16 V 1122.5601 H 793.59998 V 0.16 Z"
         transform="translate(-3.3333333e-6)"
         clip-rule="evenodd"
         id="path6" />
    </clipPath>
    <clipPath
       clipPathUnits="userSpaceOnUse"
       id="clipPath8">
      <path
         d="M 0,0.16 V 1122.5601 H 793.59998 V 0.16 Z"
         transform="translate(-3.3333333e-6)"
         clip-rule="evenodd"
         id="path8" />
    </clipPath>
    <clipPath
       clipPathUnits="userSpaceOnUse"
       id="clipPath10">
      <path
         d="M 0,0.16 V 1122.5601 H 793.59998 V 0.16 Z"
         transform="translate(-3.3333333e-6)"
         clip-rule="evenodd"
         id="path10" />
    </clipPath>
    <clipPath
       clipPathUnits="userSpaceOnUse"
       id="clipPath12">
      <path
         d="M 0,0.16 V 1122.5601 H 793.59998 V 0.16 Z"
         transform="translate(-528.96002,-624.96003)"
         clip-rule="evenodd"
         id="path12" />
    </clipPath>
  </defs>
  <sodipodi:namedview
     id="namedview1"
     pagecolor="#505050"
     bordercolor="#eeeeee"
     borderopacity="1"
     inkscape:showpageshadow="0"
     inkscape:pageopacity="0"
     inkscape:pagecheckerboard="0"
     inkscape:deskcolor="#505050">
    <inkscape:page
       x="0"
       y="0"
       inkscape:label="1"
       id="page1"
       width="462.90668"
       height="258.94666"
       margin="0"
       bleed="0" />
  </sodipodi:namedview>
  <g
     id="g1"
     inkscape:groupmode="layer"
     inkscape:label="1">
    <path
       id="path1"
       d="M 0,0 0.16,5.44 0.8,10.72 1.76,16 3.04,21.280001 4.8,26.24 6.72,31.200001 9.12,36 l 2.72,4.639999 3.04,4.48 3.36,4.16 3.52,3.84 4,3.68 4.16,3.360001 4.320002,3.200001 4.639999,2.720001 L 43.52,68.480003 48.48,70.559998 53.599998,72.32 58.720001,73.760002 64,74.720001 l 5.279999,0.64 L 74.559998,75.68 80,75.519997 l 5.279999,-0.479996 5.279999,-0.959999 5.279998,-1.279999 4.960004,-1.600006 5.12,-1.919998 4.8,-2.400002 4.64,-2.559997 4.32,-3.040001 4.32,-3.199997 4,-3.68 3.67999,-3.840001 3.36,-4 3.20001,-4.319999 2.87999,-4.640004 L 143.52,32.959999 145.75999,28 147.52,23.040001 148.96001,17.76 150.08,12.64 l 0.64,-5.28 0.31999,-5.44"
       style="fill:none;stroke:#000000;stroke-width:26.4;stroke-linecap:round;stroke-linejoin:round;stroke-miterlimit:10;stroke-dasharray:none;stroke-opacity:1"
       transform="translate(21.026662,158.73329)"
       clip-path="url(#clipPath2)" />
    <path
       id="path3"
       d="m 0,0 -4,-5.76 -4.32,-5.6 -4.8,-5.279999 -4.96,-5.120001 -5.280001,-4.799999 -5.439998,-4.480002 -5.760002,-4.16 -6.079998,-3.68 -6.240002,-3.520001 -6.399998,-3.039997 L -59.84,-48.16 -66.559998,-50.560001 -73.440002,-52.48 -80.32,-53.919998 -87.360001,-55.040001 -94.400002,-55.84 -101.44,-56.16 l -7.2,0.16 -7.04,0.48 -7.04,0.799999 -7.03999,1.280002 -6.88001,1.759999 -6.72,2.080002 -6.72,2.559997 -6.56,2.880001 -6.24,3.200001 -6.23999,3.52 -5.92,4 -5.60001,4.319998 -5.44,4.640001 -5.12,4.8 -4.8,5.28 -4.64,5.44 -4.16,5.76 -4,5.92 -3.52001,6.08 -3.19999,6.4 -2.72,6.56 -2.4,6.56 -2.08,6.880001 -1.60001,6.880001 -1.28,7.039997 -0.79998,7.040001 -0.48001,7.040001 v 7.200001 l 0.32,7.04"
       style="fill:none;stroke:#000000;stroke-width:26.4;stroke-linecap:round;stroke-linejoin:round;stroke-miterlimit:10;stroke-dasharray:none;stroke-opacity:1"
       transform="translate(398.62664,83.213268)"
       clip-path="url(#clipPath4)" />
    <path
       id="path5"
       d="m 340.16,589.12 188.80002,-1.76002"
       style="fill:none;stroke:#000000;stroke-width:26.4;stroke-linecap:round;stroke-linejoin:round;stroke-miterlimit:10;stroke-dasharray:none;stroke-opacity:1"
       transform="translate(-168.09333,-428.46673)"
       clip-path="url(#clipPath6)" />
    <path
       id="path7"
       d="M 528.96002,587.35998 V 625.12"
       style="fill:none;stroke:#000000;stroke-width:26.4;stroke-linecap:round;stroke-linejoin:round;stroke-miterlimit:10;stroke-dasharray:none;stroke-opacity:1"
       transform="translate(-168.09333,-428.46673)"
       clip-path="url(#clipPath8)" />
    <path
       id="path9"
       d="M 434.56,511.84 V 662.88"
       style="fill:none;stroke:#000000;stroke-width:26.4;stroke-linecap:round;stroke-linejoin:round;stroke-miterlimit:10;stroke-dasharray:none;stroke-opacity:1"
       transform="translate(-168.09333,-428.46673)"
       clip-path="url(#clipPath10)" />
    <path
       id="path11"
       d="M 0,0 0.16,3.52 0.64,7.04 1.44,10.4 2.56,13.76 4,16.959999 5.6,20 7.68,22.879999 9.92,25.6 l 2.4,2.4 2.72,2.24 2.88,1.92 3.039999,1.759998 3.200001,1.440003 3.36,1.119999 3.359999,0.799999 3.360003,0.479999 3.519996,0.16 3.520001,-0.16 3.36,-0.479999 L 48.16,36.48 l 3.200001,-1.119999 3.2,-1.440003 L 57.599998,32.16 60.48,30.24 63.200001,28 65.599998,25.6 67.839996,22.879999 69.919998,20 71.519997,16.959999 72.959999,13.76 74.080002,10.4 74.879997,7.04 75.360001,3.52 75.519997,0"
       style="fill:none;stroke:#000000;stroke-width:26.4;stroke-linecap:round;stroke-linejoin:round;stroke-miterlimit:10;stroke-dasharray:none;stroke-opacity:1"
       transform="translate(360.86669,196.4933)"
       clip-path="url(#clipPath12)" />
  </g>
</svg>
