<?xml version="1.0" encoding="UTF-8" standalone="no"?>
<!-- Created with Inkscape (http://www.inkscape.org/) -->

<svg
   version="1.1"
   id="svg1"
   width="433.56"
   height="412.44"
   viewBox="0 0 433.56 412.44"
   sodipodi:docname="Ethanol27.pdf"
   xmlns:inkscape="http://www.inkscape.org/namespaces/inkscape"
   xmlns:sodipodi="http://sodipodi.sourceforge.net/DTD/sodipodi-0.dtd"
   xmlns="http://www.w3.org/2000/svg"
   xmlns:svg="http://www.w3.org/2000/svg">
  <defs
     id="defs1">
    <clipPath
       clipPathUnits="userSpaceOnUse"
       id="clipPath2">
      <path
         d="M 0,0.16 V 1122.5601 H 793.59998 V 0.16 Z"
         clip-rule="evenodd"
         id="path2" />
    </clipPath>
    <clipPath
       clipPathUnits="userSpaceOnUse"
       id="clipPath4">
      <path
         d="M 0,0.16 V 1122.5601 H 793.59998 V 0.16 Z"
         transform="translate(-283.51999,-708.32001)"
         clip-rule="evenodd"
         id="path4" />
    </clipPath>
    <clipPath
       clipPathUnits="userSpaceOnUse"
       id="clipPath6">
      <path
         d="M 0,0.16 V 1122.5601 H 793.59998 V 0.16 Z"
         transform="translate(-396.79999,-680)"
         clip-rule="evenodd"
         id="path6" />
    </clipPath>
  </defs>
  <sodipodi:namedview
     id="namedview1"
     pagecolor="#505050"
     bordercolor="#eeeeee"
     borderopacity="1"
     inkscape:showpageshadow="0"
     inkscape:pageopacity="0"
     inkscape:pagecheckerboard="0"
     inkscape:deskcolor="#505050">
    <inkscape:page
       x="0"
       y="0"
       inkscape:label="1"
       id="page1"
       width="433.56"
       height="412.44"
       margin="0"
       bleed="0" />
  </sodipodi:namedview>
  <g
     id="g1"
     inkscape:groupmode="layer"
     inkscape:label="1">
    <path
       id="path1"
       d="M 623.35998,557.28003 H 245.75999 l 151.04,-151.04004 v 302.08002"
       style="fill:none;stroke:#000000;stroke-width:26.4;stroke-linecap:round;stroke-linejoin:round;stroke-miterlimit:10;stroke-dasharray:none;stroke-opacity:1"
       transform="translate(0,-58.733392)"
       clip-path="url(#clipPath2)" />
    <path
       id="path3"
       d="M 0,0 0.16,4.48 0.8,8.8 1.6,13.28 2.88,17.440001 4.32,21.76 l 1.92,4 2.24,3.84 2.4,3.679999 2.72,3.52 L 16.639999,40 19.84,43.040001 l 3.520001,2.719997 3.68,2.560002 4,2.080002 4,1.919998 4.16,1.599998 L 43.52,55.040001 47.84,56 l 4.48,0.48 4.319999,0.159999 4.48,-0.159999 4.479999,-0.48 4.32,-0.959999 4.32,-1.120003 4.160004,-1.599998 4,-1.919998 3.839996,-2.080002 3.68,-2.560002 3.520004,-2.719997 L 96.800003,40 l 3.039993,-3.200001 2.720004,-3.52 2.4,-3.679999 2.24,-3.84 1.76,-4 1.6,-4.319999 1.28,-4.160001 0.8,-4.48 0.48,-4.32 0.16,-4.48"
       style="fill:none;stroke:#000000;stroke-width:26.4;stroke-linecap:round;stroke-linejoin:round;stroke-miterlimit:10;stroke-dasharray:none;stroke-opacity:1"
       transform="translate(283.51999,649.58662)"
       clip-path="url(#clipPath4)" />
    <path
       id="path5"
       d="m 0,0 0.32,6.24 0.48,6.08 1.12,6.08 1.28,6.08 1.92,5.92 2.08,5.76 2.56,5.599998 2.88,5.440003 L 16,52.48 l 3.52,4.959999 4,4.800003 4.16,4.479999 4.48,4.32 4.799999,3.839996 5.120003,3.680001 5.119999,3.200004 5.439998,2.879997 5.760003,2.559998 5.760002,2.240005 5.919998,1.759995 L 76,92.639999 l 6.080002,0.959999 6.239998,0.64 6.080002,0.160004 6.239998,-0.160004 6.08,-0.64 6.08,-0.959999 6.08,-1.440002 5.92,-1.759995 5.76,-2.240005 5.6,-2.559998 5.44001,-2.879997 5.27999,-3.200004 4.96,-3.680001 4.8,-3.839996 4.47999,-4.32 4.32001,-4.479999 3.84,-4.800003 L 172.96001,52.48 176.16,47.200001 179.03999,41.759998 181.60001,36.16 183.84,30.4 185.60001,24.48 187.03999,18.4 188,12.32 188.64,6.24 188.8,0"
       style="fill:none;stroke:#000000;stroke-width:26.4;stroke-linecap:round;stroke-linejoin:round;stroke-miterlimit:10;stroke-dasharray:none;stroke-opacity:1"
       transform="translate(396.79999,621.26661)"
       clip-path="url(#clipPath6)" />
  </g>
</svg>
