<?xml version="1.0" encoding="UTF-8" standalone="no"?>
<!-- Created with Inkscape (http://www.inkscape.org/) -->

<svg
   version="1.1"
   id="svg1"
   width="514.94666"
   height="532.58667"
   viewBox="0 0 514.94666 532.58667"
   sodipodi:docname="Ethanol7.pdf"
   xmlns:inkscape="http://www.inkscape.org/namespaces/inkscape"
   xmlns:sodipodi="http://sodipodi.sourceforge.net/DTD/sodipodi-0.dtd"
   xmlns="http://www.w3.org/2000/svg"
   xmlns:svg="http://www.w3.org/2000/svg">
  <defs
     id="defs1">
    <clipPath
       clipPathUnits="userSpaceOnUse"
       id="clipPath2">
      <path
         d="M 0,0.16 V 1122.5601 H 793.59998 V 0.16 Z"
         clip-rule="evenodd"
         id="path2" />
    </clipPath>
    <clipPath
       clipPathUnits="userSpaceOnUse"
       id="clipPath4">
      <path
         d="M 0,0.16 V 1122.5601 H 793.59998 V 0.16 Z"
         clip-rule="evenodd"
         id="path4" />
    </clipPath>
    <clipPath
       clipPathUnits="userSpaceOnUse"
       id="clipPath6">
      <path
         d="M 0,0.16 V 1122.5601 H 793.59998 V 0.16 Z"
         transform="translate(-448.64002,-344.16)"
         clip-rule="evenodd"
         id="path6" />
    </clipPath>
  </defs>
  <sodipodi:namedview
     id="namedview1"
     pagecolor="#505050"
     bordercolor="#eeeeee"
     borderopacity="1"
     inkscape:showpageshadow="0"
     inkscape:pageopacity="0"
     inkscape:pagecheckerboard="0"
     inkscape:deskcolor="#505050">
    <inkscape:page
       x="0"
       y="0"
       inkscape:label="1"
       id="page1"
       width="514.94666"
       height="532.58667"
       margin="0"
       bleed="0" />
  </sodipodi:namedview>
  <g
     id="g1"
     inkscape:groupmode="layer"
     inkscape:label="1">
    <path
       id="path1"
       d="M 168.8,328.32001 395.04001,782.08002"
       style="fill:none;stroke:#000000;stroke-width:26.4;stroke-linecap:round;stroke-linejoin:round;stroke-miterlimit:10;stroke-dasharray:none;stroke-opacity:1"
       transform="translate(-144.08,-282.97339)"
       clip-path="url(#clipPath2)" />
    <path
       id="path3"
       d="M 393.76001,784.47998 627.35998,330.88"
       style="fill:none;stroke:#000000;stroke-width:26.4;stroke-linecap:round;stroke-linejoin:round;stroke-miterlimit:10;stroke-dasharray:none;stroke-opacity:1"
       transform="translate(-144.08,-282.97339)"
       clip-path="url(#clipPath4)" />
    <path
       id="path5"
       d="m 0,0 -4.96,0.48 -14.72,1.6 -8.16,0.96 -11.200001,1.44 -8.799999,1.6 -7.200001,1.44 -6.079998,1.6 -5.280003,1.6 -4.319999,1.76 -3.839997,1.76 -3.200004,1.92 -1.919998,1.44 -1.919998,1.760001 -1.919999,2.08 -1.600006,2.399999 -1.119995,2.56 -0.800003,2.720001 -0.32,2.719999 0.160004,2.880001 0.479996,3.039997 0.959999,3.040001 L -84.32,43.84 l 1.919998,3.040001 2.239998,3.039997 2.880005,2.880001 3.199997,2.720001 3.68,2.560002 0.64,0.479999 2.720001,1.599999 4.48,2.400001 5.440002,2.240002 6.559998,2.719994 4.319999,1.600006 3.680001,1.279999 2.880001,1.119995 4.639999,1.760002 3.360001,1.760002 2.399999,1.440002 1.760001,1.279999 1.28,1.439995 0.48,1.280006 0.16,1.439995 -0.32,1.279999 -0.16,0.32 -0.960001,1.600006 -1.439999,1.439995 -1.92,1.600006 -2.239999,1.759994 L -35.52,91.68 l -3.200001,1.919998 -3.84,2.080002 -4.48,2.239998 L -52,100.32 -57.599998,102.88 -64,105.76 l -7.199997,3.04 -8.160004,3.2 -9.440002,3.84 -11.199997,4.48 -12.16,4.64"
       style="fill:none;stroke:#000000;stroke-width:26.4;stroke-linecap:round;stroke-linejoin:round;stroke-miterlimit:10;stroke-dasharray:none;stroke-opacity:1"
       transform="translate(304.56002,61.186612)"
       clip-path="url(#clipPath6)" />
  </g>
</svg>
