<?xml version="1.0" encoding="UTF-8" standalone="no"?>
<!-- Created with Inkscape (http://www.inkscape.org/) -->

<svg
   version="1.1"
   id="svg1"
   width="370.86667"
   height="535.25336"
   viewBox="0 0 370.86667 535.25336"
   sodipodi:docname="Ethanol11.pdf"
   xmlns:inkscape="http://www.inkscape.org/namespaces/inkscape"
   xmlns:sodipodi="http://sodipodi.sourceforge.net/DTD/sodipodi-0.dtd"
   xmlns="http://www.w3.org/2000/svg"
   xmlns:svg="http://www.w3.org/2000/svg">
  <defs
     id="defs1">
    <clipPath
       clipPathUnits="userSpaceOnUse"
       id="clipPath2">
      <path
         d="M 0,0.16 V 1122.5601 H 793.59998 V 0.16 Z"
         transform="translate(-476.64001,-596)"
         clip-rule="evenodd"
         id="path2" />
    </clipPath>
    <clipPath
       clipPathUnits="userSpaceOnUse"
       id="clipPath4">
      <path
         d="M 0,0.16 V 1122.5601 H 793.59998 V 0.16 Z"
         clip-rule="evenodd"
         id="path4" />
    </clipPath>
    <clipPath
       clipPathUnits="userSpaceOnUse"
       id="clipPath6">
      <path
         d="M 0,0.16 V 1122.5601 H 793.59998 V 0.16 Z"
         clip-rule="evenodd"
         id="path6" />
    </clipPath>
  </defs>
  <sodipodi:namedview
     id="namedview1"
     pagecolor="#505050"
     bordercolor="#eeeeee"
     borderopacity="1"
     inkscape:showpageshadow="0"
     inkscape:pageopacity="0"
     inkscape:pagecheckerboard="0"
     inkscape:deskcolor="#505050">
    <inkscape:page
       x="0"
       y="0"
       inkscape:label="1"
       id="page1"
       width="370.86667"
       height="535.25336"
       margin="0"
       bleed="0" />
  </sodipodi:namedview>
  <g
     id="g1"
     inkscape:groupmode="layer"
     inkscape:label="1">
    <path
       id="path1"
       d="m 0,0 -7.36,0.8 -22.080001,2.24 -9.92,1.28 -14.079998,1.76 -11.680004,1.76 -9.599998,1.92 -8.479996,1.76 -7.360001,1.92 -6.400001,1.92 -5.920001,2.080001 -4.96,2.079999 -4.48,2.24 -4,2.24 -3.2,2.4 -2.88,2.559999 -2.4,2.720001 -2.08,2.880001 -1.6,3.039997 -1.27999,3.040001 L -130.56,44 l -0.47999,3.52 0.15999,3.520001 0.32,3.52 0.95999,3.840001 1.28,3.68 1.92001,3.68 2.24,3.839996 2.72,3.680001 3.2,3.68 3.52,3.360001 4.16,3.36 4.48,3.199997 1.44,0.959999 4.16,2.560006 5.439999,2.720001 6.400002,2.879997 7.68,3.199997 9.599998,3.680003 5.120003,1.76 3.839996,1.44 6.400002,2.56 4.959999,2.08 3.84,1.92 3.040001,1.76 2.240002,1.76 1.759998,1.6 1.119999,1.6 0.639999,1.6 v 1.76 l -0.319999,1.6 -0.48,1.12 -0.639999,1.12 -1.279999,1.76001 -1.760002,1.75999 -2.399998,1.92 -2.720001,2.08 -3.200001,2.24001 -3.68,2.23999 -4.32,2.55999 -4.799999,2.56 -5.279999,2.72 -6.080002,2.88001 -6.559997,3.04001 -7.360001,3.35998 -8.160003,3.52001 -8.959998,3.68 -9.92,4.15999 -11.36,4.48001 -12.8,5.12 -15.52,6.08 -12.16,4.8"
       style="fill:none;stroke:#000000;stroke-width:26.4;stroke-linecap:round;stroke-linejoin:round;stroke-miterlimit:10;stroke-dasharray:none;stroke-opacity:1"
       transform="translate(476.64001,628.02661)"
       clip-path="url(#clipPath2)" />
    <path
       id="path3"
       d="M 393.76001,605.44 242.08,314.23999"
       style="fill:none;stroke:#000000;stroke-width:26.4;stroke-linecap:round;stroke-linejoin:round;stroke-miterlimit:10;stroke-dasharray:none;stroke-opacity:1"
       transform="translate(0,32.026608)"
       clip-path="url(#clipPath4)" />
    <path
       id="path5"
       d="M 388.95999,604.15997 547.84003,319.20001"
       style="fill:none;stroke:#000000;stroke-width:26.4;stroke-linecap:round;stroke-linejoin:round;stroke-miterlimit:10;stroke-dasharray:none;stroke-opacity:1"
       transform="translate(0,32.026608)"
       clip-path="url(#clipPath6)" />
  </g>
</svg>
