<?xml version="1.0" encoding="UTF-8" standalone="no"?>
<!-- Created with Inkscape (http://www.inkscape.org/) -->

<svg
   version="1.1"
   id="svg1"
   width="277.49332"
   height="348.37332"
   viewBox="0 0 277.49332 348.37332"
   sodipodi:docname="GoldLitharge3.pdf"
   xmlns:inkscape="http://www.inkscape.org/namespaces/inkscape"
   xmlns:sodipodi="http://sodipodi.sourceforge.net/DTD/sodipodi-0.dtd"
   xmlns="http://www.w3.org/2000/svg"
   xmlns:svg="http://www.w3.org/2000/svg">
  <defs
     id="defs1">
    <clipPath
       clipPathUnits="userSpaceOnUse"
       id="clipPath2">
      <path
         d="M 0,0.16 V 1122.5601 H 793.59998 V 0.16 Z"
         transform="translate(-434.56,-448)"
         clip-rule="evenodd"
         id="path2" />
    </clipPath>
    <clipPath
       clipPathUnits="userSpaceOnUse"
       id="clipPath4">
      <path
         d="M 0,0.16 V 1122.5601 H 793.59998 V 0.16 Z"
         transform="translate(-245.75999,-448)"
         clip-rule="evenodd"
         id="path4" />
    </clipPath>
    <clipPath
       clipPathUnits="userSpaceOnUse"
       id="clipPath6">
      <path
         d="M 0,0.16 V 1122.5601 H 793.59998 V 0.16 Z"
         transform="translate(-245.75999,-599.03998)"
         clip-rule="evenodd"
         id="path6" />
    </clipPath>
    <clipPath
       clipPathUnits="userSpaceOnUse"
       id="clipPath8">
      <path
         d="M 0,0.16 V 1122.5601 H 793.59998 V 0.16 Z"
         clip-rule="evenodd"
         id="path8" />
    </clipPath>
    <clipPath
       clipPathUnits="userSpaceOnUse"
       id="clipPath10">
      <path
         d="M 0,0.16 V 1122.5601 H 793.59998 V 0.16 Z"
         clip-rule="evenodd"
         id="path10" />
    </clipPath>
  </defs>
  <sodipodi:namedview
     id="namedview1"
     pagecolor="#505050"
     bordercolor="#eeeeee"
     borderopacity="1"
     inkscape:showpageshadow="0"
     inkscape:pageopacity="0"
     inkscape:pagecheckerboard="0"
     inkscape:deskcolor="#505050">
    <inkscape:page
       x="0"
       y="0"
       inkscape:label="1"
       id="page1"
       width="277.49332"
       height="348.37332"
       margin="0"
       bleed="0" />
  </sodipodi:namedview>
  <g
     id="g1"
     inkscape:groupmode="layer"
     inkscape:label="1">
    <path
       id="path1"
       d="m 0,0 c 0,-10.42 -8.45,-18.879999 -18.879999,-18.879999 -10.43,0 -18.879999,8.459999 -18.879999,18.879999 0,10.42 8.449999,18.879999 18.879999,18.879999 C -8.45,18.879999 0,10.42 0,0 Z"
       style="fill:none;stroke:#000000;stroke-width:26.4;stroke-linecap:round;stroke-linejoin:round;stroke-miterlimit:10;stroke-dasharray:none;stroke-opacity:1"
       transform="translate(434.56,525.41327)"
       clip-path="url(#clipPath2)" />
    <path
       id="path3"
       d="m 0,0 c 0,-10.42 -8.45,-18.879999 -18.879999,-18.879999 -10.43,0 -18.879999,8.459999 -18.879999,18.879999 0,10.42 8.449999,18.879999 18.879999,18.879999 C -8.45,18.879999 0,10.42 0,0 Z"
       style="fill:none;stroke:#000000;stroke-width:26.4;stroke-linecap:round;stroke-linejoin:round;stroke-miterlimit:10;stroke-dasharray:none;stroke-opacity:1"
       transform="translate(245.75999,525.41327)"
       clip-path="url(#clipPath4)" />
    <path
       id="path5"
       d="M 0,0 0.32,5.44 0.8,10.72 1.76,16 3.04,21.280001 4.8,26.4 6.88,31.360001 9.28,36.16 12,40.799999 l 3.2,4.48 3.359999,4.16 3.680001,4 3.84,3.68 4.32,3.360001 4.320001,3.04 4.64,2.719998 4.799999,2.400001 4.959999,2.080002 5.120003,1.760002 5.279998,1.279999 5.280003,0.959999 5.439995,0.64 5.279999,0.159996 5.440002,-0.159996 5.440003,-0.64 5.279998,-0.959999 5.120003,-1.279999 5.119997,-1.760002 4.96,-2.080002 4.96,-2.400001 4.64,-2.719998 4.32,-3.04 4.16,-3.360001 4.00001,-3.68 3.67999,-4 3.36,-4.16 3.03999,-4.48 L 141.92,36.16 144.32001,31.360001 146.39999,26.4 148,21.280001 149.44,16 150.39999,10.72 150.88,5.44 151.03999,0 150.88,-5.44 150.39999,-10.72 149.44,-16 148,-21.280001 146.39999,-26.4 144.32001,-31.360001 141.92,-36.16 l -2.88001,-4.639999 -3.03999,-4.48 -3.36,-4.16 -3.67999,-4 -4.00001,-3.68 -4.16,-3.360001 -4.32,-3.04 -4.64,-2.719998 -4.96,-2.400001 -4.96,-2.080002 -5.119997,-1.760002 -5.120003,-1.279999 -5.279998,-0.959999 -5.440003,-0.64 -5.440002,-0.159996"
       style="fill:none;stroke:#000000;stroke-width:26.4;stroke-linecap:round;stroke-linejoin:round;stroke-miterlimit:10;stroke-dasharray:none;stroke-opacity:1"
       transform="translate(245.75999,676.45325)"
       clip-path="url(#clipPath6)" />
    <path
       id="path7"
       d="M 321.28,523.52002 V 372.48001"
       style="fill:none;stroke:#000000;stroke-width:26.4;stroke-linecap:round;stroke-linejoin:round;stroke-miterlimit:10;stroke-dasharray:none;stroke-opacity:1"
       transform="translate(0,77.413275)"
       clip-path="url(#clipPath8)" />
    <path
       id="path9"
       d="m 245.75999,448 h 151.04"
       style="fill:none;stroke:#000000;stroke-width:26.4;stroke-linecap:round;stroke-linejoin:round;stroke-miterlimit:10;stroke-dasharray:none;stroke-opacity:1"
       transform="translate(0,77.413275)"
       clip-path="url(#clipPath10)" />
  </g>
</svg>
