<?xml version="1.0" encoding="UTF-8" standalone="no"?>
<!-- Created with Inkscape (http://www.inkscape.org/) -->

<svg
   version="1.1"
   id="svg1"
   width="192.09332"
   height="248.26666"
   viewBox="0 0 192.09332 248.26666"
   sodipodi:docname="Gypsum.pdf"
   xmlns:inkscape="http://www.inkscape.org/namespaces/inkscape"
   xmlns:sodipodi="http://sodipodi.sourceforge.net/DTD/sodipodi-0.dtd"
   xmlns="http://www.w3.org/2000/svg"
   xmlns:svg="http://www.w3.org/2000/svg">
  <defs
     id="defs1">
    <clipPath
       clipPathUnits="userSpaceOnUse"
       id="clipPath2">
      <path
         d="M 0,0.16 V 1122.5601 H 793.59998 V 0.16 Z"
         transform="translate(-228.32001,-615.84003)"
         clip-rule="evenodd"
         id="path2" />
    </clipPath>
    <clipPath
       clipPathUnits="userSpaceOnUse"
       id="clipPath4">
      <path
         d="M 0,0.16 V 1122.5601 H 793.59998 V 0.16 Z"
         transform="translate(-227.84,-734.88001)"
         clip-rule="evenodd"
         id="path4" />
    </clipPath>
    <clipPath
       clipPathUnits="userSpaceOnUse"
       id="clipPath6">
      <path
         d="M 0,0.16 V 1122.5601 H 793.59998 V 0.16 Z"
         transform="translate(-3.3333333e-6)"
         clip-rule="evenodd"
         id="path6" />
    </clipPath>
    <clipPath
       clipPathUnits="userSpaceOnUse"
       id="clipPath8">
      <path
         d="M 0,0.16 V 1122.5601 H 793.59998 V 0.16 Z"
         transform="translate(-3.3333333e-6)"
         clip-rule="evenodd"
         id="path8" />
    </clipPath>
    <clipPath
       clipPathUnits="userSpaceOnUse"
       id="clipPath10">
      <path
         d="M 0,0.16 V 1122.5601 H 793.59998 V 0.16 Z"
         transform="translate(-3.3333333e-6)"
         clip-rule="evenodd"
         id="path10" />
    </clipPath>
    <clipPath
       clipPathUnits="userSpaceOnUse"
       id="clipPath12">
      <path
         d="M 0,0.16 V 1122.5601 H 793.59998 V 0.16 Z"
         transform="translate(-3.3333333e-6)"
         clip-rule="evenodd"
         id="path12" />
    </clipPath>
  </defs>
  <sodipodi:namedview
     id="namedview1"
     pagecolor="#505050"
     bordercolor="#eeeeee"
     borderopacity="1"
     inkscape:showpageshadow="0"
     inkscape:pageopacity="0"
     inkscape:pagecheckerboard="0"
     inkscape:deskcolor="#505050">
    <inkscape:page
       x="0"
       y="0"
       inkscape:label="1"
       id="page1"
       width="192.09332"
       height="248.26666"
       margin="0"
       bleed="0" />
  </sodipodi:namedview>
  <g
     id="g1"
     inkscape:groupmode="layer"
     inkscape:label="1">
    <path
       id="path1"
       d="m 0,0 4.96,-0.16 5.12,-0.32 4.96,-0.64 4.96,-0.8 4.799999,-1.12 4.640002,-1.44 4.479997,-1.6 4.320004,-1.76 4.16,-2.08 3.84,-2.08 3.519996,-2.4 3.360001,-2.559999 L 56.16,-19.68 58.880001,-22.559999 61.119999,-25.6 l 2.080002,-3.039999 1.759998,-3.200001 1.279999,-3.360001 0.959999,-3.36 0.480003,-3.359997 0.159996,-3.360001 -0.159996,-3.36 L 67.199997,-52 l -0.959999,-3.360001 -1.279999,-3.2 -1.759998,-3.199997 -2.080002,-3.200001 L 58.880001,-68 56.16,-70.720001 l -3.040001,-2.720001 -3.360001,-2.720002 -3.519996,-2.399994 -3.84,-2.080001 -4.16,-2.080002 -4.320004,-1.760002 -4.479997,-1.599999 -4.640002,-1.439995 L 20,-88.639999 l -4.96,-0.800003 -4.96,-0.64 -5.12,-0.32 L 0,-90.559998"
       style="fill:none;stroke:#000000;stroke-width:18.88;stroke-linecap:round;stroke-linejoin:round;stroke-miterlimit:10;stroke-dasharray:none;stroke-opacity:1"
       transform="translate(86.906674,107.27997)"
       clip-path="url(#clipPath2)" />
    <path
       id="path3"
       d="m 0,0 6.24,-0.16 6.08,-0.32 6.08,-0.8 6.08,-0.96 5.92,-1.12 5.76,-1.6 5.599998,-1.76 5.280003,-1.92 5.279999,-2.24 4.799999,-2.4 4.799999,-2.72 4.32,-2.879999 4,-3.040001 3.840004,-3.200001 3.36,-3.519998 3.040001,-3.520001 2.559998,-3.68 2.400001,-3.68 1.759995,-4 1.440002,-3.840001 1.120003,-4 0.64,-4.159999 0.159996,-4 -0.159996,-4 -0.64,-4.16 -1.120003,-4 -1.440002,-3.839997 -1.759995,-4 -2.400001,-3.68 -2.559998,-3.68 -3.040001,-3.520005 -3.36,-3.519996 -3.840004,-3.200005 -4,-3.039997 -4.32,-2.88 -4.799999,-2.72 -4.799999,-2.4 -5.279999,-2.24 -5.280003,-2.08 -5.599998,-1.6 -5.76,-1.6 -5.92,-1.12 -6.08,-0.96 -6.08,-0.8 -6.08,-0.32 -6.24,-0.16"
       style="fill:none;stroke:#000000;stroke-width:18.88;stroke-linecap:round;stroke-linejoin:round;stroke-miterlimit:10;stroke-dasharray:none;stroke-opacity:1"
       transform="translate(86.426663,226.31995)"
       clip-path="url(#clipPath4)" />
    <path
       id="path5"
       d="m 208.32001,525.59998 0.64,210.24005"
       style="fill:none;stroke:#000000;stroke-width:18.88;stroke-linecap:round;stroke-linejoin:round;stroke-miterlimit:10;stroke-dasharray:none;stroke-opacity:1"
       transform="translate(-141.41333,-508.56006)"
       clip-path="url(#clipPath6)" />
    <path
       id="path7"
       d="M 228.32001,525.28003 H 183.03999"
       style="fill:none;stroke:#000000;stroke-width:18.88;stroke-linecap:round;stroke-linejoin:round;stroke-miterlimit:10;stroke-dasharray:none;stroke-opacity:1"
       transform="translate(-141.41333,-508.56006)"
       clip-path="url(#clipPath8)" />
    <path
       id="path9"
       d="m 227.84,734.88 -67.2,0.32001"
       style="fill:none;stroke:#000000;stroke-width:18.88;stroke-linecap:round;stroke-linejoin:round;stroke-miterlimit:10;stroke-dasharray:none;stroke-opacity:1"
       transform="translate(-141.41333,-508.56006)"
       clip-path="url(#clipPath10)" />
    <path
       id="path11"
       d="M 228.32001,615.84003 H 210.39999"
       style="fill:none;stroke:#000000;stroke-width:18.88;stroke-linecap:round;stroke-linejoin:round;stroke-miterlimit:10;stroke-dasharray:none;stroke-opacity:1"
       transform="translate(-141.41333,-508.56006)"
       clip-path="url(#clipPath12)" />
  </g>
</svg>
