<?xml version="1.0" encoding="UTF-8" standalone="no"?>
<!-- Created with Inkscape (http://www.inkscape.org/) -->

<svg
   version="1.1"
   id="svg1"
   width="261.46667"
   height="439.14667"
   viewBox="0 0 261.46667 439.14667"
   sodipodi:docname="HeparTerraepond.pdf"
   xmlns:inkscape="http://www.inkscape.org/namespaces/inkscape"
   xmlns:sodipodi="http://sodipodi.sourceforge.net/DTD/sodipodi-0.dtd"
   xmlns="http://www.w3.org/2000/svg"
   xmlns:svg="http://www.w3.org/2000/svg">
  <defs
     id="defs1">
    <clipPath
       clipPathUnits="userSpaceOnUse"
       id="clipPath2">
      <path
         d="M 0,0.16 V 1122.5601 H 793.59998 V 0.16 Z"
         transform="translate(-3.3333333e-6)"
         clip-rule="evenodd"
         id="path2" />
    </clipPath>
    <clipPath
       clipPathUnits="userSpaceOnUse"
       id="clipPath4">
      <path
         d="M 0,0.16 V 1122.5601 H 793.59998 V 0.16 Z"
         transform="translate(-3.3333333e-6)"
         clip-rule="evenodd"
         id="path4" />
    </clipPath>
    <clipPath
       clipPathUnits="userSpaceOnUse"
       id="clipPath6">
      <path
         d="M 0,0.16 V 1122.5601 H 793.59998 V 0.16 Z"
         transform="translate(-302.39999,-402.23999)"
         clip-rule="evenodd"
         id="path6" />
    </clipPath>
    <clipPath
       clipPathUnits="userSpaceOnUse"
       id="clipPath8">
      <path
         d="M 0,0.16 V 1122.5601 H 793.59998 V 0.16 Z"
         transform="translate(-330.72,-388.48001)"
         clip-rule="evenodd"
         id="path8" />
    </clipPath>
    <clipPath
       clipPathUnits="userSpaceOnUse"
       id="clipPath10">
      <path
         d="M 0,0.16 V 1122.5601 H 793.59998 V 0.16 Z"
         transform="translate(-425.11999,-378.07999)"
         clip-rule="evenodd"
         id="path10" />
    </clipPath>
    <clipPath
       clipPathUnits="userSpaceOnUse"
       id="clipPath12">
      <path
         d="M 0,0.16 V 1122.5601 H 793.59998 V 0.16 Z"
         transform="translate(-519.52002,-388.48001)"
         clip-rule="evenodd"
         id="path12" />
    </clipPath>
    <clipPath
       clipPathUnits="userSpaceOnUse"
       id="clipPath14">
      <path
         d="M 0,0.16 V 1122.5601 H 793.59998 V 0.16 Z"
         transform="translate(-330.72,-388.48001)"
         clip-rule="evenodd"
         id="path14" />
    </clipPath>
    <clipPath
       clipPathUnits="userSpaceOnUse"
       id="clipPath16">
      <path
         d="M 0,0.16 V 1122.5601 H 793.59998 V 0.16 Z"
         transform="translate(-425.11999,-378.07999)"
         clip-rule="evenodd"
         id="path16" />
    </clipPath>
    <clipPath
       clipPathUnits="userSpaceOnUse"
       id="clipPath18">
      <path
         d="M 0,0.16 V 1122.5601 H 793.59998 V 0.16 Z"
         transform="translate(-519.52002,-388.48001)"
         clip-rule="evenodd"
         id="path18" />
    </clipPath>
    <clipPath
       clipPathUnits="userSpaceOnUse"
       id="clipPath20">
      <path
         d="M 0,0.16 V 1122.5601 H 793.59998 V 0.16 Z"
         transform="translate(-3.3333333e-6)"
         clip-rule="evenodd"
         id="path20" />
    </clipPath>
  </defs>
  <sodipodi:namedview
     id="namedview1"
     pagecolor="#505050"
     bordercolor="#eeeeee"
     borderopacity="1"
     inkscape:showpageshadow="0"
     inkscape:pageopacity="0"
     inkscape:pagecheckerboard="0"
     inkscape:deskcolor="#505050">
    <inkscape:page
       x="0"
       y="0"
       inkscape:label="1"
       id="page1"
       width="261.46667"
       height="439.14667"
       margin="0"
       bleed="0" />
  </sodipodi:namedview>
  <g
     id="g1"
     inkscape:groupmode="layer"
     inkscape:label="1">
    <path
       id="path1"
       d="M 396.79999,765.12 494.88,595.20001 H 298.72 L 396.79999,765.12"
       style="fill:none;stroke:#000000;stroke-width:26.4;stroke-linecap:round;stroke-linejoin:round;stroke-miterlimit:10;stroke-dasharray:none;stroke-opacity:1"
       transform="translate(-266.81333,-341.70673)"
       clip-path="url(#clipPath2)" />
    <path
       id="path3"
       d="M 396.79999,396.95999 V 585.76001"
       style="fill:none;stroke:#000000;stroke-width:26.4;stroke-linecap:round;stroke-linejoin:round;stroke-miterlimit:10;stroke-dasharray:none;stroke-opacity:1"
       transform="translate(-266.81333,-341.70673)"
       clip-path="url(#clipPath4)" />
    <path
       id="path5"
       d="m 0,0 0.32,4.64 0.48,4.48 1.12,4.48 1.28,4.32 1.92,4.32 2.08,4.319999 2.56,4.16 2.88,4.000002 3.36,3.84 3.52,3.680001 4,3.519996 4.16,3.200001 4.48,3.200001 4.799999,2.880001 5.120003,2.559997 L 47.200001,60 52.639999,62.080002 58.400002,64 64.160004,65.599998 70.080002,66.879997 76,68 82.080002,68.639999 88.32,69.120003 94.400002,69.279999 100.64,69.120003 106.72,68.639999 112.8,68 118.88,66.879997 124.8,65.599998 130.56,64 136.16,62.080002 141.60001,60 146.88,57.599998 l 4.96,-2.559997 4.8,-2.880001 4.47999,-3.200001 4.32001,-3.200001 3.84,-3.519996 3.68001,-3.680001 3.19999,-3.84 2.87999,-4.000002 2.56002,-4.16 L 183.84,22.24 185.60001,17.92 187.03999,13.6 188,9.12 188.64,4.64 188.8,0"
       style="fill:none;stroke:#000000;stroke-width:26.4;stroke-linecap:round;stroke-linejoin:round;stroke-miterlimit:10;stroke-dasharray:none;stroke-opacity:1"
       transform="translate(35.586661,60.533265)"
       clip-path="url(#clipPath6)" />
    <path
       id="path7"
       d="m 0,0 -0.16,-3.04 -0.48,-2.88 -0.64,-2.88 -1.12,-2.72 -1.28,-2.72 -1.6,-2.399999 -1.92,-2.400002 -2.08,-2.08 -2.4,-1.759998 -2.4,-1.600001 -2.719999,-1.44 L -19.52,-27.040001 -22.4,-27.68 l -2.880001,-0.48 -3.039999,-0.16 -2.880001,0.16 -2.880001,0.48 -2.879997,0.639999 L -39.84,-25.92 l -2.560002,1.44 -2.559997,1.600001 -2.240002,1.759998 -2.079998,2.08 -1.920002,2.400002 -1.599998,2.399999 -1.280003,2.72 -1.119999,2.72 L -56,-5.92 -56.48,-3.04 -56.639999,0 -56.48,2.88 -56,5.92 l 0.799999,2.72 1.119999,2.88 1.280003,2.56 1.599998,2.559999 1.920002,2.24 2.079998,2.08 2.240002,1.92 2.559997,1.600001 2.560002,1.28 2.880001,1.119999 2.879997,0.800001 2.880001,0.48 2.880001,0.16 3.039999,-0.16 L -22.4,27.68 -19.52,26.879999 -16.799999,25.76 -14.08,24.48 l 2.4,-1.600001 2.4,-1.92 2.08,-2.08 1.92,-2.24 L -3.68,14.08 -2.4,11.52 -1.28,8.64 -0.64,5.92 -0.16,2.88 0,0 v 0 z"
       style="fill:#000000;fill-opacity:1;fill-rule:evenodd;stroke:none"
       transform="translate(63.906668,46.773286)"
       clip-path="url(#clipPath8)" />
    <path
       id="path9"
       d="m 0,0 -0.16,-3.04 -0.48,-2.88 -0.64,-2.88 -1.12,-2.72 -1.28,-2.72 -1.6,-2.399999 -1.92,-2.400002 -2.08,-2.08 -2.4,-1.759998 -2.4,-1.600001 -2.719999,-1.44 L -19.52,-26.879999 -22.4,-27.68 l -2.880001,-0.48 -3.039999,-0.16 -2.880001,0.16 -2.880001,0.48 -2.879997,0.800001 L -39.84,-25.92 l -2.560002,1.44 -2.559997,1.600001 -2.240002,1.759998 -2.079998,2.08 -1.920002,2.400002 -1.599998,2.399999 -1.280003,2.72 -1.119999,2.72 L -56,-5.92 -56.48,-3.04 -56.639999,0 -56.48,2.88 -56,5.92 l 0.799999,2.88 1.119999,2.72 1.280003,2.56 1.599998,2.559999 1.920002,2.24 2.079998,2.08 2.240002,1.92 2.559997,1.600001 2.560002,1.44 2.880001,0.959999 2.879997,0.800001 2.880001,0.48 2.880001,0.16 3.039999,-0.16 L -22.4,27.68 -19.52,26.879999 -16.799999,25.92 -14.08,24.48 l 2.4,-1.600001 2.4,-1.92 2.08,-2.08 1.92,-2.24 L -3.68,14.08 -2.4,11.52 -1.28,8.8 -0.64,5.92 -0.16,2.88 0,0 v 0 z"
       style="fill:#000000;fill-opacity:1;fill-rule:evenodd;stroke:none"
       transform="translate(158.30666,36.373262)"
       clip-path="url(#clipPath10)" />
    <path
       id="path11"
       d="m 0,0 -0.16,-3.04 -0.48,-2.88 -0.64,-2.88 -1.12,-2.72 -1.28,-2.72 -1.76,-2.399999 -1.76,-2.400002 -2.08,-2.08 -2.4,-1.759998 -2.4,-1.600001 -2.719999,-1.44 L -19.52,-27.040001 -22.4,-27.68 l -2.880001,-0.48 -3.039999,-0.16 -2.880001,0.16 -3.040001,0.48 -2.719997,0.639999 L -39.84,-25.92 l -2.560002,1.44 -2.559997,1.600001 -2.240002,1.759998 -2.079998,2.08 -1.920002,2.400002 -1.599998,2.399999 -1.280003,2.72 -1.119999,2.72 L -56,-5.92 -56.48,-3.04 -56.639999,0 -56.48,2.88 -56,5.92 l 0.799999,2.72 1.119999,2.88 1.280003,2.56 1.599998,2.559999 1.920002,2.24 2.079998,2.08 2.240002,1.92 2.559997,1.600001 2.560002,1.28 2.880001,1.119999 2.719997,0.800001 3.040001,0.48 2.880001,0.16 3.039999,-0.16 L -22.4,27.68 -19.52,26.879999 -16.799999,25.76 -14.08,24.48 l 2.4,-1.600001 2.4,-1.92 2.08,-2.08 1.76,-2.24 L -3.68,14.08 -2.4,11.52 -1.28,8.64 -0.64,5.92 -0.16,2.88 0,0 v 0 z"
       style="fill:#000000;fill-opacity:1;fill-rule:evenodd;stroke:none"
       transform="translate(252.70669,46.773286)"
       clip-path="url(#clipPath12)" />
    <path
       id="path13"
       d="m 0,0 -0.16,-3.04 -0.48,-2.88 -0.64,-2.88 -1.12,-2.72 -1.28,-2.72 -1.6,-2.399999 -1.92,-2.400002 -2.08,-2.08 -2.4,-1.759998 -2.4,-1.600001 -2.719999,-1.44 L -19.52,-27.040001 -22.4,-27.68 l -2.880001,-0.48 -3.039999,-0.16 -2.880001,0.16 -2.880001,0.48 -2.879997,0.639999 L -39.84,-25.92 l -2.560002,1.44 -2.559997,1.600001 -2.240002,1.759998 -2.079998,2.08 -1.920002,2.400002 -1.599998,2.399999 -1.280003,2.72 -1.119999,2.72 L -56,-5.92 -56.48,-3.04 -56.639999,0 -56.48,2.88 -56,5.92 l 0.799999,2.72 1.119999,2.88 1.280003,2.56 1.599998,2.559999 1.920002,2.24 2.079998,2.08 2.240002,1.92 2.559997,1.600001 2.560002,1.28 2.880001,1.119999 2.879997,0.800001 2.880001,0.48 2.880001,0.16 3.039999,-0.16 L -22.4,27.68 -19.52,26.879999 -16.799999,25.76 -14.08,24.48 l 2.4,-1.600001 2.4,-1.92 2.08,-2.08 1.92,-2.24 L -3.68,14.08 -2.4,11.52 -1.28,8.64 -0.64,5.92 -0.16,2.88 0,0"
       style="fill:none;stroke:#000000;stroke-width:0.64;stroke-linecap:round;stroke-linejoin:round;stroke-miterlimit:10;stroke-dasharray:none;stroke-opacity:1"
       transform="translate(63.906668,46.773286)"
       clip-path="url(#clipPath14)" />
    <path
       id="path15"
       d="m 0,0 -0.16,-3.04 -0.48,-2.88 -0.64,-2.88 -1.12,-2.72 -1.28,-2.72 -1.6,-2.399999 -1.92,-2.400002 -2.08,-2.08 -2.4,-1.759998 -2.4,-1.600001 -2.719999,-1.44 L -19.52,-26.879999 -22.4,-27.68 l -2.880001,-0.48 -3.039999,-0.16 -2.880001,0.16 -2.880001,0.48 -2.879997,0.800001 L -39.84,-25.92 l -2.560002,1.44 -2.559997,1.600001 -2.240002,1.759998 -2.079998,2.08 -1.920002,2.400002 -1.599998,2.399999 -1.280003,2.72 -1.119999,2.72 L -56,-5.92 -56.48,-3.04 -56.639999,0 -56.48,2.88 -56,5.92 l 0.799999,2.88 1.119999,2.72 1.280003,2.56 1.599998,2.559999 1.920002,2.24 2.079998,2.08 2.240002,1.92 2.559997,1.600001 2.560002,1.44 2.880001,0.959999 2.879997,0.800001 2.880001,0.48 2.880001,0.16 3.039999,-0.16 L -22.4,27.68 -19.52,26.879999 -16.799999,25.92 -14.08,24.48 l 2.4,-1.600001 2.4,-1.92 2.08,-2.08 1.92,-2.24 L -3.68,14.08 -2.4,11.52 -1.28,8.8 -0.64,5.92 -0.16,2.88 0,0"
       style="fill:none;stroke:#000000;stroke-width:0.64;stroke-linecap:round;stroke-linejoin:round;stroke-miterlimit:10;stroke-dasharray:none;stroke-opacity:1"
       transform="translate(158.30666,36.373262)"
       clip-path="url(#clipPath16)" />
    <path
       id="path17"
       d="m 0,0 -0.16,-3.04 -0.48,-2.88 -0.64,-2.88 -1.12,-2.72 -1.28,-2.72 -1.76,-2.399999 -1.76,-2.400002 -2.08,-2.08 -2.4,-1.759998 -2.4,-1.600001 -2.719999,-1.44 L -19.52,-27.040001 -22.4,-27.68 l -2.880001,-0.48 -3.039999,-0.16 -2.880001,0.16 -3.040001,0.48 -2.719997,0.639999 L -39.84,-25.92 l -2.560002,1.44 -2.559997,1.600001 -2.240002,1.759998 -2.079998,2.08 -1.920002,2.400002 -1.599998,2.399999 -1.280003,2.72 -1.119999,2.72 L -56,-5.92 -56.48,-3.04 -56.639999,0 -56.48,2.88 -56,5.92 l 0.799999,2.72 1.119999,2.88 1.280003,2.56 1.599998,2.559999 1.920002,2.24 2.079998,2.08 2.240002,1.92 2.559997,1.600001 2.560002,1.28 2.880001,1.119999 2.719997,0.800001 3.040001,0.48 2.880001,0.16 3.039999,-0.16 L -22.4,27.68 -19.52,26.879999 -16.799999,25.76 -14.08,24.48 l 2.4,-1.600001 2.4,-1.92 2.08,-2.08 1.76,-2.24 L -3.68,14.08 -2.4,11.52 -1.28,8.64 -0.64,5.92 -0.16,2.88 0,0"
       style="fill:none;stroke:#000000;stroke-width:0.64;stroke-linecap:round;stroke-linejoin:round;stroke-miterlimit:10;stroke-dasharray:none;stroke-opacity:1"
       transform="translate(252.70669,46.773286)"
       clip-path="url(#clipPath18)" />
    <path
       id="path19"
       d="M 302.39999,510.23999 H 491.20001 V 548 H 302.39999 v -37.76001"
       style="fill:none;stroke:#000000;stroke-width:26.4;stroke-linecap:round;stroke-linejoin:round;stroke-miterlimit:10;stroke-dasharray:none;stroke-opacity:1"
       transform="translate(-266.81333,-341.70673)"
       clip-path="url(#clipPath20)" />
  </g>
</svg>
