<?xml version="1.0" encoding="UTF-8" standalone="no"?>
<!-- Created with Inkscape (http://www.inkscape.org/) -->

<svg
   version="1.1"
   id="svg1"
   width="556.30664"
   height="536.58667"
   viewBox="0 0 556.30664 536.58667"
   sodipodi:docname="HgO2.pdf"
   xmlns:inkscape="http://www.inkscape.org/namespaces/inkscape"
   xmlns:sodipodi="http://sodipodi.sourceforge.net/DTD/sodipodi-0.dtd"
   xmlns="http://www.w3.org/2000/svg"
   xmlns:svg="http://www.w3.org/2000/svg">
  <defs
     id="defs1">
    <clipPath
       clipPathUnits="userSpaceOnUse"
       id="clipPath2">
      <path
         d="M 0,0.16 V 1122.5601 H 793.59998 V 0.16 Z"
         transform="translate(-372.16,-561.12)"
         clip-rule="evenodd"
         id="path2" />
    </clipPath>
    <clipPath
       clipPathUnits="userSpaceOnUse"
       id="clipPath4">
      <path
         d="M 0,0.16 V 1122.5601 H 793.59998 V 0.16 Z"
         transform="translate(-145.60001,-334.56)"
         clip-rule="evenodd"
         id="path4" />
    </clipPath>
    <clipPath
       clipPathUnits="userSpaceOnUse"
       id="clipPath6">
      <path
         d="M 0,0.16 V 1122.5601 H 793.59998 V 0.16 Z"
         clip-rule="evenodd"
         id="path6" />
    </clipPath>
    <clipPath
       clipPathUnits="userSpaceOnUse"
       id="clipPath8">
      <path
         d="M 0,0.16 V 1122.5601 H 793.59998 V 0.16 Z"
         clip-rule="evenodd"
         id="path8" />
    </clipPath>
    <clipPath
       clipPathUnits="userSpaceOnUse"
       id="clipPath10">
      <path
         d="M 0,0.16 V 1122.5601 H 793.59998 V 0.16 Z"
         transform="translate(-409.92001,-447.84)"
         clip-rule="evenodd"
         id="path10" />
    </clipPath>
    <clipPath
       clipPathUnits="userSpaceOnUse"
       id="clipPath12">
      <path
         d="M 0,0.16 V 1122.5601 H 793.59998 V 0.16 Z"
         clip-rule="evenodd"
         id="path12" />
    </clipPath>
    <clipPath
       clipPathUnits="userSpaceOnUse"
       id="clipPath14">
      <path
         d="M 0,0.16 V 1122.5601 H 793.59998 V 0.16 Z"
         transform="translate(-272,-561.12)"
         clip-rule="evenodd"
         id="path14" />
    </clipPath>
    <clipPath
       clipPathUnits="userSpaceOnUse"
       id="clipPath16">
      <path
         d="M 0,0.16 V 1122.5601 H 793.59998 V 0.16 Z"
         transform="translate(-272,-561.12)"
         clip-rule="evenodd"
         id="path16" />
    </clipPath>
    <clipPath
       clipPathUnits="userSpaceOnUse"
       id="clipPath18">
      <path
         d="M 0,0.16 V 1122.5601 H 793.59998 V 0.16 Z"
         clip-rule="evenodd"
         id="path18" />
    </clipPath>
    <clipPath
       clipPathUnits="userSpaceOnUse"
       id="clipPath20">
      <path
         d="M 0,0.16 V 1122.5601 H 793.59998 V 0.16 Z"
         clip-rule="evenodd"
         id="path20" />
    </clipPath>
  </defs>
  <sodipodi:namedview
     id="namedview1"
     pagecolor="#505050"
     bordercolor="#eeeeee"
     borderopacity="1"
     inkscape:showpageshadow="0"
     inkscape:pageopacity="0"
     inkscape:pagecheckerboard="0"
     inkscape:deskcolor="#505050">
    <inkscape:page
       x="0"
       y="0"
       inkscape:label="1"
       id="page1"
       width="556.30664"
       height="536.58667"
       margin="0"
       bleed="0" />
  </sodipodi:namedview>
  <g
     id="g1"
     inkscape:groupmode="layer"
     inkscape:label="1">
    <path
       id="path1"
       d="m 0,0 c 0,-62.560001 -50.709999,-113.28 -113.28,-113.28 -62.57001,0 -113.28,50.719999 -113.28,113.28 0,62.560001 50.70999,113.28 113.28,113.28 C -50.709999,113.28 0,62.560001 0,0 Z"
       style="fill:none;stroke:#000000;stroke-width:26.4;stroke-linecap:round;stroke-linejoin:round;stroke-miterlimit:10;stroke-dasharray:none;stroke-opacity:1"
       transform="translate(269.44,251.45327)"
       clip-path="url(#clipPath2)" />
    <path
       id="path3"
       d="m 0,0 0.16,6.88 0.64,6.72 0.96,6.72 1.44,6.720001 1.92,6.559997 2.24,6.560002 2.56,6.240002 3.04,6.239997 3.36,5.920002 L 20,64.32 24.16,69.760002 28.48,75.040001 33.119999,80 l 4.960003,4.800003 5.279999,4.32 5.599998,4 5.760002,3.839996 5.919998,3.360001 6.080002,2.88 6.400002,2.72 6.399994,2.24 6.560005,1.76 6.720001,1.44 6.719994,1.12 6.880003,0.48 6.88,0.32 6.88,-0.32 6.72,-0.48 6.72001,-1.12 6.72,-1.44 6.55999,-1.76 6.56,-2.24 6.23999,-2.72 6.24001,-2.88 5.92,-3.360001 5.76001,-3.839996 5.43998,-4 5.28002,-4.32 L 193.28,80 l 4.8,-4.959999 4.31999,-5.279999 4,-5.440002 3.84001,-5.759999 3.36001,-5.920002 L 216.48,46.400002 219.2,40.16 221.44,33.599998 223.2,27.040001 224.64,20.32 225.75999,13.6 226.24,6.88 226.56,0"
       style="fill:none;stroke:#000000;stroke-width:26.4;stroke-linecap:round;stroke-linejoin:round;stroke-miterlimit:10;stroke-dasharray:none;stroke-opacity:1"
       transform="translate(42.880006,24.893273)"
       clip-path="url(#clipPath4)" />
    <path
       id="path5"
       d="M 258.88,674.40002 V 825.44"
       style="fill:none;stroke:#000000;stroke-width:26.4;stroke-linecap:round;stroke-linejoin:round;stroke-miterlimit:10;stroke-dasharray:none;stroke-opacity:1"
       transform="translate(-102.72,-309.66673)"
       clip-path="url(#clipPath6)" />
    <path
       id="path7"
       d="m 145.60001,447.84 h 264.32"
       style="fill:none;stroke:#000000;stroke-width:26.4;stroke-linecap:round;stroke-linejoin:round;stroke-miterlimit:10;stroke-dasharray:none;stroke-opacity:1"
       transform="translate(-102.72,-309.66673)"
       clip-path="url(#clipPath8)" />
    <path
       id="path9"
       d="M 0,0 0.16,5.28 0.8,10.72 1.76,16 3.04,21.280001 4.64,26.4 6.72,31.360001 9.12,36.16 12,40.799999 l 3.04,4.48 3.36,4.16 3.68,3.84 4,3.68 4.16,3.520001 4.480001,3.04 4.64,2.719998 4.799999,2.400001 4.959999,2.080002 5.120003,1.760002 5.119999,1.279999 5.440002,0.959999 5.279999,0.64 5.439995,0.159996 5.280006,-0.159996 5.439995,-0.64 5.279999,-0.959999 5.280006,-1.279999 5.119997,-1.760002 4.96,-2.080002 4.8,-2.400001 4.64,-2.719998 4.48,-3.04 4.16,-3.520001 3.84,-3.68 3.68,-3.84 3.52,-4.16 3.03999,-4.48 2.72,-4.639999 L 144.16,31.360001 146.24,26.4 148,21.280001 149.28,16 150.24,10.72 150.72,5.28 151.03999,0"
       style="fill:none;stroke:#000000;stroke-width:26.4;stroke-linecap:round;stroke-linejoin:round;stroke-miterlimit:10;stroke-dasharray:none;stroke-opacity:1"
       transform="translate(307.20001,138.17327)"
       clip-path="url(#clipPath10)" />
    <path
       id="path11"
       d="m 560.96002,447.84 h 75.51996"
       style="fill:none;stroke:#000000;stroke-width:26.4;stroke-linecap:round;stroke-linejoin:round;stroke-miterlimit:10;stroke-dasharray:none;stroke-opacity:1"
       transform="translate(-102.72,-309.66673)"
       clip-path="url(#clipPath12)" />
    <path
       id="path13"
       d="m 0,0 v -1.76 l -0.32,-1.76 -0.64,-1.6 -0.8,-1.6 -0.96,-1.44 -1.12,-1.28 -1.28,-1.12 -1.44,-0.96 -1.6,-0.8 -1.6,-0.48 -1.6,-0.32 -1.76,-0.16 -1.76,0.16 -1.759999,0.32 -1.600001,0.48 -1.6,0.8 -1.280001,0.96 -1.439998,1.12 -1.120001,1.28 -0.959999,1.44 -0.800002,1.6 -0.479999,1.6 -0.32,1.76 -0.16,1.76 0.16,1.6 0.32,1.76 0.479999,1.6 0.800002,1.6 L -23.68,8 l 1.120001,1.28 1.439998,1.12 1.280001,0.96 1.6,0.8 1.600001,0.48 1.759999,0.48 h 1.76 1.76 l 1.6,-0.48 1.6,-0.48 1.6,-0.8 L -5.12,10.4 -3.84,9.28 -2.72,8 -1.76,6.56 -0.96,4.96 -0.32,3.36 0,1.6 V 0 0 Z"
       style="fill:#000000;fill-opacity:1;fill-rule:evenodd;stroke:none"
       transform="translate(169.28,251.45327)"
       clip-path="url(#clipPath14)" />
    <path
       id="path15"
       d="m 0,0 v -1.76 l -0.32,-1.76 -0.64,-1.6 -0.8,-1.6 -0.96,-1.44 -1.12,-1.28 -1.28,-1.12 -1.44,-0.96 -1.6,-0.8 -1.6,-0.48 -1.6,-0.32 -1.76,-0.16 -1.76,0.16 -1.759999,0.32 -1.600001,0.48 -1.6,0.8 -1.280001,0.96 -1.439998,1.12 -1.120001,1.28 -0.959999,1.44 -0.800002,1.6 -0.479999,1.6 -0.32,1.76 -0.16,1.76 0.16,1.6 0.32,1.76 0.479999,1.6 0.800002,1.6 L -23.68,8 l 1.120001,1.28 1.439998,1.12 1.280001,0.96 1.6,0.8 1.600001,0.48 1.759999,0.48 h 1.76 1.76 l 1.6,-0.48 1.6,-0.48 1.6,-0.8 L -5.12,10.4 -3.84,9.28 -2.72,8 -1.76,6.56 -0.96,4.96 -0.32,3.36 0,1.6 V 0"
       style="fill:none;stroke:#000000;stroke-width:0.64;stroke-linecap:round;stroke-linejoin:round;stroke-miterlimit:10;stroke-dasharray:none;stroke-opacity:1"
       transform="translate(169.28,251.45327)"
       clip-path="url(#clipPath16)" />
    <path
       id="path17"
       d="M 372.16,334.56 H 485.44"
       style="fill:none;stroke:#000000;stroke-width:26.4;stroke-linecap:round;stroke-linejoin:round;stroke-miterlimit:10;stroke-dasharray:none;stroke-opacity:1"
       transform="translate(-102.72,-309.66673)"
       clip-path="url(#clipPath18)" />
    <path
       id="path19"
       d="M 202.24,768.79999 H 315.51999"
       style="fill:none;stroke:#000000;stroke-width:26.4;stroke-linecap:round;stroke-linejoin:round;stroke-miterlimit:10;stroke-dasharray:none;stroke-opacity:1"
       transform="translate(-102.72,-309.66673)"
       clip-path="url(#clipPath20)" />
  </g>
</svg>
