<?xml version="1.0" encoding="UTF-8" standalone="no"?>
<!-- Created with Inkscape (http://www.inkscape.org/) -->

<svg
   version="1.1"
   id="svg1"
   width="413.54666"
   height="467.18668"
   viewBox="0 0 413.54666 467.18668"
   sodipodi:docname="HgO3.pdf"
   xmlns:inkscape="http://www.inkscape.org/namespaces/inkscape"
   xmlns:sodipodi="http://sodipodi.sourceforge.net/DTD/sodipodi-0.dtd"
   xmlns="http://www.w3.org/2000/svg"
   xmlns:svg="http://www.w3.org/2000/svg">
  <defs
     id="defs1">
    <clipPath
       clipPathUnits="userSpaceOnUse"
       id="clipPath2">
      <path
         d="M 0,0.16 V 1122.5601 H 793.59998 V 0.16 Z"
         transform="translate(-487.51999,-561.28003)"
         clip-rule="evenodd"
         id="path2" />
    </clipPath>
    <clipPath
       clipPathUnits="userSpaceOnUse"
       id="clipPath4">
      <path
         d="M 0,0.16 V 1122.5601 H 793.59998 V 0.16 Z"
         clip-rule="evenodd"
         id="path4" />
    </clipPath>
    <clipPath
       clipPathUnits="userSpaceOnUse"
       id="clipPath6">
      <path
         d="M 0,0.16 V 1122.5601 H 793.59998 V 0.16 Z"
         transform="translate(-410.07999,-561.28003)"
         clip-rule="evenodd"
         id="path6" />
    </clipPath>
    <clipPath
       clipPathUnits="userSpaceOnUse"
       id="clipPath8">
      <path
         d="M 0,0.16 V 1122.5601 H 793.59998 V 0.16 Z"
         transform="translate(-410.07999,-561.28003)"
         clip-rule="evenodd"
         id="path8" />
    </clipPath>
    <clipPath
       clipPathUnits="userSpaceOnUse"
       id="clipPath10">
      <path
         d="M 0,0.16 V 1122.5601 H 793.59998 V 0.16 Z"
         clip-rule="evenodd"
         id="path10" />
    </clipPath>
    <clipPath
       clipPathUnits="userSpaceOnUse"
       id="clipPath12">
      <path
         d="M 0,0.16 V 1122.5601 H 793.59998 V 0.16 Z"
         transform="translate(-306.23999,-380)"
         clip-rule="evenodd"
         id="path12" />
    </clipPath>
    <clipPath
       clipPathUnits="userSpaceOnUse"
       id="clipPath14">
      <path
         d="M 0,0.16 V 1122.5601 H 793.59998 V 0.16 Z"
         transform="translate(-351.51999,-380)"
         clip-rule="evenodd"
         id="path14" />
    </clipPath>
    <clipPath
       clipPathUnits="userSpaceOnUse"
       id="clipPath16">
      <path
         d="M 0,0.16 V 1122.5601 H 793.59998 V 0.16 Z"
         clip-rule="evenodd"
         id="path16" />
    </clipPath>
    <clipPath
       clipPathUnits="userSpaceOnUse"
       id="clipPath18">
      <path
         d="M 0,0.16 V 1122.5601 H 793.59998 V 0.16 Z"
         clip-rule="evenodd"
         id="path18" />
    </clipPath>
    <clipPath
       clipPathUnits="userSpaceOnUse"
       id="clipPath20">
      <path
         d="M 0,0.16 V 1122.5601 H 793.59998 V 0.16 Z"
         clip-rule="evenodd"
         id="path20" />
    </clipPath>
    <clipPath
       clipPathUnits="userSpaceOnUse"
       id="clipPath22">
      <path
         d="M 0,0.16 V 1122.5601 H 793.59998 V 0.16 Z"
         clip-rule="evenodd"
         id="path22" />
    </clipPath>
  </defs>
  <sodipodi:namedview
     id="namedview1"
     pagecolor="#505050"
     bordercolor="#eeeeee"
     borderopacity="1"
     inkscape:showpageshadow="0"
     inkscape:pageopacity="0"
     inkscape:pagecheckerboard="0"
     inkscape:deskcolor="#505050">
    <inkscape:page
       x="0"
       y="0"
       inkscape:label="1"
       id="page1"
       width="413.54666"
       height="467.18668"
       margin="0"
       bleed="0" />
  </sodipodi:namedview>
  <g
     id="g1"
     inkscape:groupmode="layer"
     inkscape:label="1">
    <path
       id="path1"
       d="M 0,0 C 0,-50.009998 -40.580002,-90.559998 -90.639999,-90.559998 -140.7,-90.559998 -181.28,-50.009998 -181.28,0 c 0,50.009998 40.58,90.559998 90.640001,90.559998 C -40.580002,90.559998 0,50.009998 0,0 Z"
       style="fill:none;stroke:#000000;stroke-width:26.4;stroke-linecap:round;stroke-linejoin:round;stroke-miterlimit:10;stroke-dasharray:none;stroke-opacity:1"
       transform="translate(298.07999,238.26664)"
       clip-path="url(#clipPath2)" />
    <path
       id="path3"
       d="M 396.79999,651.84003 V 772.79999"
       style="fill:none;stroke:#000000;stroke-width:26.4;stroke-linecap:round;stroke-linejoin:round;stroke-miterlimit:10;stroke-dasharray:none;stroke-opacity:1"
       transform="translate(-189.44,-323.01339)"
       clip-path="url(#clipPath4)" />
    <path
       id="path5"
       d="m 0,0 -0.16,-1.76 -0.32,-1.6 -0.48,-1.6 -0.8,-1.6 -0.96,-1.44 -1.12,-1.28 -1.28,-1.12 -1.44,-0.96 -1.6,-0.8 -1.6,-0.64 -1.76,-0.32 h -1.76 -1.6 l -1.759999,0.32 -1.600001,0.64 -1.6,0.8 -1.440001,0.96 -1.279998,1.12 L -23.68,-8 l -0.959999,1.44 -0.800002,1.6 -0.479999,1.6 -0.48,1.6 V 0 1.76 l 0.48,1.76 0.479999,1.6 0.800002,1.44 L -23.68,8 l 1.120001,1.44 1.279998,1.12 1.440001,0.96 1.6,0.64 1.600001,0.64 1.759999,0.32 1.6,0.16 1.76,-0.16 1.76,-0.32 1.6,-0.64 1.6,-0.64 1.44,-0.96 L -3.84,9.44 -2.72,8 -1.76,6.56 -0.96,5.12 -0.48,3.52 -0.16,1.76 0,0 v 0 z"
       style="fill:#000000;fill-opacity:1;fill-rule:evenodd;stroke:none"
       transform="translate(220.63999,238.26664)"
       clip-path="url(#clipPath6)" />
    <path
       id="path7"
       d="m 0,0 -0.16,-1.76 -0.32,-1.6 -0.48,-1.6 -0.8,-1.6 -0.96,-1.44 -1.12,-1.28 -1.28,-1.12 -1.44,-0.96 -1.6,-0.8 -1.6,-0.64 -1.76,-0.32 h -1.76 -1.6 l -1.759999,0.32 -1.600001,0.64 -1.6,0.8 -1.440001,0.96 -1.279998,1.12 L -23.68,-8 l -0.959999,1.44 -0.800002,1.6 -0.479999,1.6 -0.48,1.6 V 0 1.76 l 0.48,1.76 0.479999,1.6 0.800002,1.44 L -23.68,8 l 1.120001,1.44 1.279998,1.12 1.440001,0.96 1.6,0.64 1.600001,0.64 1.759999,0.32 1.6,0.16 1.76,-0.16 1.76,-0.32 1.6,-0.64 1.6,-0.64 1.44,-0.96 L -3.84,9.44 -2.72,8 -1.76,6.56 -0.96,5.12 -0.48,3.52 -0.16,1.76 0,0"
       style="fill:none;stroke:#000000;stroke-width:0.64;stroke-linecap:round;stroke-linejoin:round;stroke-miterlimit:10;stroke-dasharray:none;stroke-opacity:1"
       transform="translate(220.63999,238.26664)"
       clip-path="url(#clipPath8)" />
    <path
       id="path9"
       d="m 351.51999,727.35998 h 90.56"
       style="fill:none;stroke:#000000;stroke-width:26.4;stroke-linecap:round;stroke-linejoin:round;stroke-miterlimit:10;stroke-dasharray:none;stroke-opacity:1"
       transform="translate(-189.44,-323.01339)"
       clip-path="url(#clipPath10)" />
    <path
       id="path11"
       d="m 0,0 0.16,6.24 0.64,6.24 1.12,6.079999 1.44,5.920001 1.92,5.92 2.24,5.76 2.56,5.599998 3.04,5.440003 3.519999,5.119999 3.680001,4.959999 4,4.639999 4.479999,4.32 4.64,4.160004 4.960003,3.68 5.119998,3.36 5.439999,3.040001 5.600002,2.719994 5.759999,2.240005 5.919998,1.919999 5.920006,1.440002 6.079994,0.959999 6.240005,0.64 6.079995,0.319999 6.240005,-0.319999 6.079997,-0.64 6.24,-0.959999 5.92,-1.440002 5.92,-1.919999 5.76,-2.240005 5.60001,-2.719994 5.43998,-3.040001 5.12001,-3.36 4.96,-3.68 4.64,-4.160004 4.32,-4.32 4.16001,-4.639999 L 164.64,52.32 168,47.200001 171.03999,41.759998 173.75999,36.16 176,30.4 l 1.92,-5.92 1.44,-5.920001 0.96001,-6.079999 0.64,-6.24 L 181.28,0"
       style="fill:none;stroke:#000000;stroke-width:26.4;stroke-linecap:round;stroke-linejoin:round;stroke-miterlimit:10;stroke-dasharray:none;stroke-opacity:1"
       transform="translate(116.79999,56.986608)"
       clip-path="url(#clipPath12)" />
    <path
       id="path13"
       d="m 0,0 0.16,4 0.48,4 0.96,3.84 1.12,3.68 1.6,3.680001 1.76,3.519998 2.08,3.360001 2.4,3.040001 2.72,3.039999 2.88,2.560001 3.200001,2.399998 3.359998,2.240002 3.520001,1.759998 3.52,1.600002 3.839998,1.119999 3.840001,0.799999 4,0.64 3.84,0.16 4,-0.16 3.84,-0.64 4,-0.799999 3.68,-1.119999 3.680004,-1.600002 L 68,39.360001 71.360001,37.119999 74.400002,34.720001 77.440002,32.16 80,29.120001 82.400002,26.08 84.639999,22.719999 86.400002,19.200001 87.839996,15.52 89.120003,11.84 89.919998,8 90.400002,4 90.559998,0"
       style="fill:none;stroke:#000000;stroke-width:26.4;stroke-linecap:round;stroke-linejoin:round;stroke-miterlimit:10;stroke-dasharray:none;stroke-opacity:1"
       transform="translate(162.07999,56.986608)"
       clip-path="url(#clipPath14)" />
    <path
       id="path15"
       d="M 351.51999,380 V 349.92001"
       style="fill:none;stroke:#000000;stroke-width:26.4;stroke-linecap:round;stroke-linejoin:round;stroke-miterlimit:10;stroke-dasharray:none;stroke-opacity:1"
       transform="translate(-189.44,-323.01339)"
       clip-path="url(#clipPath16)" />
    <path
       id="path17"
       d="M 442.07999,380 V 349.92001"
       style="fill:none;stroke:#000000;stroke-width:26.4;stroke-linecap:round;stroke-linejoin:round;stroke-miterlimit:10;stroke-dasharray:none;stroke-opacity:1"
       transform="translate(-189.44,-323.01339)"
       clip-path="url(#clipPath18)" />
    <path
       id="path19"
       d="M 442.07999,349.92001 H 578.08002"
       style="fill:none;stroke:#000000;stroke-width:26.4;stroke-linecap:round;stroke-linejoin:round;stroke-miterlimit:10;stroke-dasharray:none;stroke-opacity:1"
       transform="translate(-189.44,-323.01339)"
       clip-path="url(#clipPath20)" />
    <path
       id="path21"
       d="m 351.51999,349.92001 h -135.84"
       style="fill:none;stroke:#000000;stroke-width:26.4;stroke-linecap:round;stroke-linejoin:round;stroke-miterlimit:10;stroke-dasharray:none;stroke-opacity:1"
       transform="translate(-189.44,-323.01339)"
       clip-path="url(#clipPath22)" />
  </g>
</svg>
