<?xml version="1.0" encoding="UTF-8" standalone="no"?>
<!-- Created with Inkscape (http://www.inkscape.org/) -->

<svg
   version="1.1"
   id="svg1"
   width="452.23999"
   height="540.58667"
   viewBox="0 0 452.23999 540.58667"
   sodipodi:docname="HgO5.pdf"
   xmlns:inkscape="http://www.inkscape.org/namespaces/inkscape"
   xmlns:sodipodi="http://sodipodi.sourceforge.net/DTD/sodipodi-0.dtd"
   xmlns="http://www.w3.org/2000/svg"
   xmlns:svg="http://www.w3.org/2000/svg">
  <defs
     id="defs1">
    <clipPath
       clipPathUnits="userSpaceOnUse"
       id="clipPath2">
      <path
         d="M 0,0.16 V 1122.5601 H 793.59998 V 0.16 Z"
         transform="translate(-385.60001,-500.88001)"
         clip-rule="evenodd"
         id="path2" />
    </clipPath>
    <clipPath
       clipPathUnits="userSpaceOnUse"
       id="clipPath4">
      <path
         d="M 0,0.16 V 1122.5601 H 793.59998 V 0.16 Z"
         transform="translate(3.3333334e-6)"
         clip-rule="evenodd"
         id="path4" />
    </clipPath>
    <clipPath
       clipPathUnits="userSpaceOnUse"
       id="clipPath6">
      <path
         d="M 0,0.16 V 1122.5601 H 793.59998 V 0.16 Z"
         transform="translate(3.3333334e-6)"
         clip-rule="evenodd"
         id="path6" />
    </clipPath>
    <clipPath
       clipPathUnits="userSpaceOnUse"
       id="clipPath8">
      <path
         d="M 0,0.16 V 1122.5601 H 793.59998 V 0.16 Z"
         transform="translate(-204.16,-319.51999)"
         clip-rule="evenodd"
         id="path8" />
    </clipPath>
    <clipPath
       clipPathUnits="userSpaceOnUse"
       id="clipPath10">
      <path
         d="M 0,0.16 V 1122.5601 H 793.59998 V 0.16 Z"
         transform="translate(-362.72,-757.59998)"
         clip-rule="evenodd"
         id="path10" />
    </clipPath>
    <clipPath
       clipPathUnits="userSpaceOnUse"
       id="clipPath12">
      <path
         d="M 0,0.16 V 1122.5601 H 793.59998 V 0.16 Z"
         transform="translate(3.3333334e-6)"
         clip-rule="evenodd"
         id="path12" />
    </clipPath>
    <clipPath
       clipPathUnits="userSpaceOnUse"
       id="clipPath14">
      <path
         d="M 0,0.16 V 1122.5601 H 793.59998 V 0.16 Z"
         transform="translate(3.3333334e-6)"
         clip-rule="evenodd"
         id="path14" />
    </clipPath>
    <clipPath
       clipPathUnits="userSpaceOnUse"
       id="clipPath16">
      <path
         d="M 0,0.16 V 1122.5601 H 793.59998 V 0.16 Z"
         transform="translate(3.3333334e-6)"
         clip-rule="evenodd"
         id="path16" />
    </clipPath>
    <clipPath
       clipPathUnits="userSpaceOnUse"
       id="clipPath18">
      <path
         d="M 0,0.16 V 1122.5601 H 793.59998 V 0.16 Z"
         transform="translate(3.3333334e-6)"
         clip-rule="evenodd"
         id="path18" />
    </clipPath>
    <clipPath
       clipPathUnits="userSpaceOnUse"
       id="clipPath20">
      <path
         d="M 0,0.16 V 1122.5601 H 793.59998 V 0.16 Z"
         transform="translate(3.3333334e-6)"
         clip-rule="evenodd"
         id="path20" />
    </clipPath>
    <clipPath
       clipPathUnits="userSpaceOnUse"
       id="clipPath22">
      <path
         d="M 0,0.16 V 1122.5601 H 793.59998 V 0.16 Z"
         transform="translate(-472.32001,-523.52002)"
         clip-rule="evenodd"
         id="path22" />
    </clipPath>
    <clipPath
       clipPathUnits="userSpaceOnUse"
       id="clipPath24">
      <path
         d="M 0,0.16 V 1122.5601 H 793.59998 V 0.16 Z"
         transform="translate(3.3333334e-6)"
         clip-rule="evenodd"
         id="path24" />
    </clipPath>
  </defs>
  <sodipodi:namedview
     id="namedview1"
     pagecolor="#505050"
     bordercolor="#eeeeee"
     borderopacity="1"
     inkscape:showpageshadow="0"
     inkscape:pageopacity="0"
     inkscape:pagecheckerboard="0"
     inkscape:deskcolor="#505050">
    <inkscape:page
       x="0"
       y="0"
       inkscape:label="1"
       id="page1"
       width="452.23999"
       height="540.58667"
       margin="0"
       bleed="0" />
  </sodipodi:namedview>
  <g
     id="g1"
     inkscape:groupmode="layer"
     inkscape:label="1">
    <path
       id="path1"
       d="M 0,0 C 0,-50.049999 -40.580002,-90.639999 -90.639999,-90.639999 -140.7,-90.639999 -181.28,-50.049999 -181.28,0 c 0,50.049999 40.58,90.639999 90.640001,90.639999 C -40.580002,90.639999 0,50.049999 0,0 Z"
       style="fill:none;stroke:#000000;stroke-width:26.4;stroke-linecap:round;stroke-linejoin:round;stroke-miterlimit:10;stroke-dasharray:none;stroke-opacity:1"
       transform="translate(212.17334,205.89328)"
       clip-path="url(#clipPath2)" />
    <path
       id="path3"
       d="M 294.88,591.52002 V 806.71997"
       style="fill:none;stroke:#000000;stroke-width:26.4;stroke-linecap:round;stroke-linejoin:round;stroke-miterlimit:10;stroke-dasharray:none;stroke-opacity:1"
       transform="translate(-173.42667,-294.98673)"
       clip-path="url(#clipPath4)" />
    <path
       id="path5"
       d="M 226.88,651.84003 H 604.47998"
       style="fill:none;stroke:#000000;stroke-width:26.4;stroke-linecap:round;stroke-linejoin:round;stroke-miterlimit:10;stroke-dasharray:none;stroke-opacity:1"
       transform="translate(-173.42667,-294.98673)"
       clip-path="url(#clipPath6)" />
    <path
       id="path7"
       d="m 0,0 0.32,6.24 0.64,6.24 1.12,6.079999 1.44,6.08 1.76,5.760001 2.4,5.76 2.56,5.599998 3.04,5.440003 3.359999,5.119999 3.840001,4.959999 4,4.639999 4.479999,4.480004 4.639999,4 4.960003,3.839996 5.119999,3.36 5.439999,3.040001 5.600002,2.559998 5.599999,2.240005 5.919998,1.919999 6.080002,1.440002 6.080002,1.119995 6.239997,0.64 6.080002,0.160003 6.239998,-0.160003 6.080001,-0.64 6.08,-1.119995 6.08,-1.440002 5.92,-1.919999 5.76,-2.240005 5.6,-2.559998 5.27999,-3.040001 5.28,-3.36 4.96001,-3.839996 4.64,-4 4.32001,-4.480004 4,-4.639999 L 164.8,52.32 l 3.36,-5.119999 3.04,-5.440003 2.72,-5.599998 2.24,-5.76 1.92,-5.760001 1.44,-6.08 L 180.48,12.48 181.11999,6.24 181.28,0"
       style="fill:none;stroke:#000000;stroke-width:26.4;stroke-linecap:round;stroke-linejoin:round;stroke-miterlimit:10;stroke-dasharray:none;stroke-opacity:1"
       transform="translate(30.733337,24.533264)"
       clip-path="url(#clipPath8)" />
    <path
       id="path9"
       d="m 0,0 0.32,4 0.48,3.84 0.96,4 1.12,3.68 1.44,3.680001 1.92,3.519998 L 8.32,26.08 10.72,29.120001 13.44,32 l 2.88,2.720001 3.2,2.399998 3.359999,2.080002 3.360001,1.919998 3.68,1.440002 3.839998,1.279999 3.84,0.799999 3.840001,0.48 4,0.16 4,-0.16 3.84,-0.48 3.84,-0.799999 3.84,-1.279999 3.68,-1.440002 3.520005,-1.919998 3.359993,-2.080002 3.040001,-2.399998 L 77.440002,32 80.160004,29.120001 82.559998,26.08 84.639999,22.719999 86.559998,19.200001 88,15.52 89.279999,11.84 90.080002,7.84 90.559998,4 90.720001,0"
       style="fill:none;stroke:#000000;stroke-width:26.4;stroke-linecap:round;stroke-linejoin:round;stroke-miterlimit:10;stroke-dasharray:none;stroke-opacity:1"
       transform="translate(189.29333,462.61325)"
       clip-path="url(#clipPath10)" />
    <path
       id="path11"
       d="m 362.88,757.59998 v -30.24"
       style="fill:none;stroke:#000000;stroke-width:26.4;stroke-linecap:round;stroke-linejoin:round;stroke-miterlimit:10;stroke-dasharray:none;stroke-opacity:1"
       transform="translate(-173.42667,-294.98673)"
       clip-path="url(#clipPath12)" />
    <path
       id="path13"
       d="m 453.44,757.59998 v -30.24"
       style="fill:none;stroke:#000000;stroke-width:26.4;stroke-linecap:round;stroke-linejoin:round;stroke-miterlimit:10;stroke-dasharray:none;stroke-opacity:1"
       transform="translate(-173.42667,-294.98673)"
       clip-path="url(#clipPath14)" />
    <path
       id="path15"
       d="m 453.44,727.35998 h 136"
       style="fill:none;stroke:#000000;stroke-width:26.4;stroke-linecap:round;stroke-linejoin:round;stroke-miterlimit:10;stroke-dasharray:none;stroke-opacity:1"
       transform="translate(-173.42667,-294.98673)"
       clip-path="url(#clipPath16)" />
    <path
       id="path17"
       d="m 362.88,727.35998 h -136"
       style="fill:none;stroke:#000000;stroke-width:26.4;stroke-linecap:round;stroke-linejoin:round;stroke-miterlimit:10;stroke-dasharray:none;stroke-opacity:1"
       transform="translate(-173.42667,-294.98673)"
       clip-path="url(#clipPath18)" />
    <path
       id="path19"
       d="M 472.32001,334.72 V 523.52002"
       style="fill:none;stroke:#000000;stroke-width:26.4;stroke-linecap:round;stroke-linejoin:round;stroke-miterlimit:10;stroke-dasharray:none;stroke-opacity:1"
       transform="translate(-173.42667,-294.98673)"
       clip-path="url(#clipPath20)" />
    <path
       id="path21"
       d="M 0,0 0.16,3.52 0.64,7.04 1.44,10.4 2.56,13.6 4,16.799999 5.76,19.84 7.68,22.719999 9.92,25.440001 12.32,28 l 2.72,2.08 2.88,2.08 3.039999,1.599998 3.200001,1.440003 3.36,1.119999 3.359999,0.799999 3.360003,0.479999 3.519996,0.16 3.520001,-0.16 3.52,-0.479999 L 48.16,36.32 51.52,35.200001 54.560001,33.759998 57.599998,32.16 60.48,30.08 63.200001,28 65.760002,25.440001 68,22.719999 69.919998,19.84 71.68,16.799999 72.959999,13.6 74.080002,10.4 74.879997,7.04 75.360001,3.52 75.519997,0"
       style="fill:none;stroke:#000000;stroke-width:26.4;stroke-linecap:round;stroke-linejoin:round;stroke-miterlimit:10;stroke-dasharray:none;stroke-opacity:1"
       transform="translate(298.89334,228.53329)"
       clip-path="url(#clipPath22)" />
    <path
       id="path23"
       d="m 434.56,410.23999 h 94.40002"
       style="fill:none;stroke:#000000;stroke-width:26.4;stroke-linecap:round;stroke-linejoin:round;stroke-miterlimit:10;stroke-dasharray:none;stroke-opacity:1"
       transform="translate(-173.42667,-294.98673)"
       clip-path="url(#clipPath24)" />
  </g>
</svg>
