<?xml version="1.0" encoding="UTF-8" standalone="no"?>
<!-- Created with Inkscape (http://www.inkscape.org/) -->

<svg
   version="1.1"
   id="svg1"
   width="504.26666"
   height="417.78668"
   viewBox="0 0 504.26666 417.78668"
   sodipodi:docname="HgO6.pdf"
   xmlns:inkscape="http://www.inkscape.org/namespaces/inkscape"
   xmlns:sodipodi="http://sodipodi.sourceforge.net/DTD/sodipodi-0.dtd"
   xmlns="http://www.w3.org/2000/svg"
   xmlns:svg="http://www.w3.org/2000/svg">
  <defs
     id="defs1">
    <clipPath
       clipPathUnits="userSpaceOnUse"
       id="clipPath2">
      <path
         d="M 0,0.16 V 1122.5601 H 793.59998 V 0.16 Z"
         transform="translate(-320.64001,-742.08002)"
         clip-rule="evenodd"
         id="path2" />
    </clipPath>
    <clipPath
       clipPathUnits="userSpaceOnUse"
       id="clipPath4">
      <path
         d="M 0,0.16 V 1122.5601 H 793.59998 V 0.16 Z"
         clip-rule="evenodd"
         id="path4" />
    </clipPath>
    <clipPath
       clipPathUnits="userSpaceOnUse"
       id="clipPath6">
      <path
         d="M 0,0.16 V 1122.5601 H 793.59998 V 0.16 Z"
         transform="translate(-576.79999,-375.67999)"
         clip-rule="evenodd"
         id="path6" />
    </clipPath>
  </defs>
  <sodipodi:namedview
     id="namedview1"
     pagecolor="#505050"
     bordercolor="#eeeeee"
     borderopacity="1"
     inkscape:showpageshadow="0"
     inkscape:pageopacity="0"
     inkscape:pagecheckerboard="0"
     inkscape:deskcolor="#505050">
    <inkscape:page
       x="0"
       y="0"
       inkscape:label="1"
       id="page1"
       width="504.26666"
       height="417.78668"
       margin="0"
       bleed="0" />
  </sodipodi:namedview>
  <g
     id="g1"
     inkscape:groupmode="layer"
     inkscape:label="1">
    <path
       id="path1"
       d="m 0,0 3.52,-4 3.52,-4.48 3.36,-4.96 3.36,-5.279999 3.199999,-5.600001 3.200001,-5.92 3.040001,-6.399999 3.039999,-6.560002 2.719999,-6.880001 2.720001,-7.199997 2.720002,-7.36 2.399997,-7.680001 2.240002,-7.840004 2.239998,-8.159996 1.920002,-8.160003 1.919998,-8.319997 1.600002,-8.48 1.599999,-8.64 1.279998,-8.64 1.120003,-8.8 0.959999,-8.8 0.8,-8.64 0.639999,-8.80001 0.32,-8.63999 0.319999,-8.64 v -8.64 l -0.16,-8.48 -0.319999,-8.32001 -0.64,-8 -0.639999,-8 -0.959999,-7.83999 -1.120003,-7.51999 -1.279999,-7.20001 -1.439998,-7.04 -1.600003,-6.87999 L 43.84,-267.20001 41.919998,-273.28 39.68,-279.04001 l -2.240001,-5.44 -2.399998,-5.12 L 32.48,-294.39999 29.92,-298.72 27.040001,-302.56 24.16,-306.07999 21.120001,-309.12 17.92,-311.67999 l -3.2,-2.24002 -3.2,-1.75998 -3.52,-1.28 -3.36,-0.80002 -3.52,-0.47998 -3.52,0.16 -3.68,0.47998 -3.52,0.96 -3.68,1.44 -3.679999,1.92001 -3.520001,2.23999 -3.68,2.88001 -3.52,3.20001 -3.680001,3.51999 -3.52,4 -3.520001,4.48001 -3.359996,4.79999 -3.360001,5.28 -3.200001,5.44 -3.2,5.92001 -3.040001,6.23999 -3.039997,6.56 -2.880002,6.88 -2.720001,7.04 -2.560001,7.36 -2.559998,7.68001 -2.239998,7.83999 -2.240005,8 -2.079994,8.16001"
       style="fill:none;stroke:#000000;stroke-width:26.4;stroke-linecap:round;stroke-linejoin:round;stroke-miterlimit:10;stroke-dasharray:none;stroke-opacity:1"
       transform="translate(320.64001,742.07996)"
       clip-path="url(#clipPath2)" />
    <path
       id="path3"
       d="M 313.60001,748.96002 576.96002,375.84"
       style="fill:none;stroke:#000000;stroke-width:26.4;stroke-linecap:round;stroke-linejoin:round;stroke-miterlimit:10;stroke-dasharray:none;stroke-opacity:1"
       transform="translate(0,-5.8666667e-5)"
       clip-path="url(#clipPath4)" />
    <path
       id="path5"
       d="m 0,0 0.48,4.8 0.64,4.64 1.12,4.64 1.44,4.479999 1.76,4.480002 2.08,4.16 2.4,4.16 2.88,3.84 3.04,3.68 3.200001,3.360001 3.679998,3.039997 L 26.4,48.16 l 4,2.560001 4.160001,2.239998 4.48,1.920002 L 43.52,56.32 48,57.599998 l 4.639999,0.800004 4.8,0.479999 h 4.800003 l 4.639995,-0.16 4.64,-0.639999 4.640007,-0.960003 4.639999,-1.439999 4.32,-1.760002 L 89.440002,52 93.599998,49.599998 97.440002,46.880001 101.12,44 l 3.52,-3.360001 3.2,-3.52 2.88,-3.68 2.56,-3.999998 2.4,-4.16 1.92,-4.320002 1.6,-4.32 L 120.48,12 l 0.96,-4.64 0.48,-4.64 0.16,-4.96"
       style="fill:none;stroke:#000000;stroke-width:26.4;stroke-linecap:round;stroke-linejoin:round;stroke-miterlimit:10;stroke-dasharray:none;stroke-opacity:1"
       transform="translate(576.79999,375.67993)"
       clip-path="url(#clipPath6)" />
  </g>
</svg>
