<?xml version="1.0" encoding="UTF-8" standalone="no"?>
<!-- Created with Inkscape (http://www.inkscape.org/) -->

<svg
   version="1.1"
   id="svg1"
   width="352.18668"
   height="473.85333"
   viewBox="0 0 352.18668 473.85333"
   sodipodi:docname="HgS1.pdf"
   xmlns:inkscape="http://www.inkscape.org/namespaces/inkscape"
   xmlns:sodipodi="http://sodipodi.sourceforge.net/DTD/sodipodi-0.dtd"
   xmlns="http://www.w3.org/2000/svg"
   xmlns:svg="http://www.w3.org/2000/svg">
  <defs
     id="defs1">
    <clipPath
       clipPathUnits="userSpaceOnUse"
       id="clipPath2">
      <path
         d="M -259.67999,-424.16 V 698.23999 H 533.91998 V -424.16 Z"
         clip-rule="evenodd"
         id="path2" />
    </clipPath>
  </defs>
  <sodipodi:namedview
     id="namedview1"
     pagecolor="#505050"
     bordercolor="#eeeeee"
     borderopacity="1"
     inkscape:showpageshadow="0"
     inkscape:pageopacity="0"
     inkscape:pagecheckerboard="0"
     inkscape:deskcolor="#505050">
    <inkscape:page
       x="0"
       y="0"
       inkscape:label="1"
       id="page1"
       width="352.18668"
       height="473.85333"
       margin="0"
       bleed="0" />
  </sodipodi:namedview>
  <g
     id="g1"
     inkscape:groupmode="layer"
     inkscape:label="1">
    <path
       id="path1"
       d="m 0,0 3.2,-4.8 9.76,-14.079999 4.8,-6.560002 7.039999,-9.44 6.240002,-7.360001 5.599998,-5.919998 5.119999,-4.799999 4.960003,-4.16 4.799999,-3.52 4.8,-2.720002 4.639999,-2.239997 4.480003,-1.760003 4.64,-1.120002 0.959999,-0.159996 4.32,-0.64 L 80,-69.440002 l 5.120003,0.160003 5.439995,0.479996 6.080001,0.960007 6.880001,1.279998 7.84,1.759995 8.96,2.080002 10.07999,2.240001 10.40001,1.919999 9.59999,1.280002 8.80001,0.799999 8.16,0.32 7.84,-0.16 5.12001,-0.319999 6.87999,-0.8 7.68,-1.280002 8.48,-1.759999 9.60001,-2.400001 11.19999,-3.039997 12.80001,-3.840004 5.91999,-1.759995 9.28,-2.720001 7.68,-2.400001 6.23999,-1.599999 5.28,-1.279999 4.64001,-0.960006 3.84,-0.479996 3.20001,-0.160004 h 2.88 l 2.23999,0.32 1.91999,0.800003 1.44,0.959999 0.96002,0.959999 0.63999,0.959999 0.48001,1.760002 0.16,1.919999 -0.16,2.240005 -0.48001,2.719994 -0.79999,2.880005 -1.12,3.199996 -1.6,3.680001 -1.92002,3.84 -2.39999,4.32 -2.88001,4.640003 -3.19998,5.119999 -3.84002,5.279999 -4.31998,5.92 -4.80002,6.08 -5.59998,6.560001 -6.24002,7.039999 -7.03999,7.52 -7.84,7.68 -8.48001,8 -9.11999,7.840001 -7.52001,6.08 -7.36,5.599998 -9.28,6.560002 L 187.84,45.919998 177.60001,52.16 167.52,58.080002 158.08,63.52 l -8.47999,4.8 -7.68001,4.160003 -6.56,3.680001 -5.92,3.359993 -5.12,2.880005 -4.48,2.720001 -3.68,2.559997 -3.2,2.239998 -2.72,2.240006 -2.08,1.919998 L 106.72,96 l -1.12,1.760002 -0.48,1.439995 -0.16,1.120003 0.16,1.6 0.48,1.44 1.12,1.6 1.44,1.44 1.92,1.6 2.56,1.6 2.88,1.6 3.52,1.6 4.16,1.6 4.64,1.92 5.6,1.76 6.4,2.08 7.36,2.4 9.12001,2.88 12,3.84 8.47999,2.88 5.59999,2.08 5.92002,2.24 5.28,2.24 6.55999,3.2 6.23999,3.36 5.92002,3.52 5.59999,3.68 5.28,4 5.12001,4.16 4.79998,4.47999 4.48002,4.80001 4.15998,4.96 3.84002,5.28 3.67999,5.59999 3.36,6.08001 1.92,3.68 1.6,3.51999 2.72,6.72 2.24,6.72001 1.6,6.72 1.12,6.55999 0.80001,6.40001 0.15998,6.4 -0.15998,6.24 -0.80001,6.23999 -1.12,6.24001 -1.6,5.92001 -1.91999,6.07999 -1.44,3.36001 -1.76001,4.15998 -3.03999,5.76001 -3.52001,5.92001 -4,5.91998 -4.47999,5.92002 -4.96001,6.07998 -5.44,5.76001 -5.92,5.60001 -6.08,5.28 -6.56,5.11999 -6.72,4.48001 -6.88001,4.15998 -6.87999,3.52002 -1.44,0.79999 -4.64,2.08001 -7.04001,2.72 -7.19999,2.23999 -7.68,2.07999 -8,1.76001 -8.32,1.28 -8.80001,0.95999 -9.11999,0.64001 -9.44,0.32001 -9.76,-0.16 -9.92,-0.48001 -5.439999,-0.48001 -4.480003,-0.47998 -9.279999,-0.96 -8.639999,-1.44 -8.32,-1.6 -8,-1.92002 -7.360001,-2.07998 -6.880001,-2.24002 -6.559997,-2.71998 -6.08,-2.72 -5.76,-3.20001 -1.280001,-0.79999 -2.719999,-1.6 -4.960001,-3.52002 -4.8,-3.84 -4.96,-4.47998 -4.8,-4.80002 -4.96,-5.6 -5.28,-6.4 -6.08,-8 -2.880001,-3.83999"
       style="fill:none;stroke:#000000;stroke-width:26.4;stroke-linecap:round;stroke-linejoin:round;stroke-miterlimit:10;stroke-dasharray:none;stroke-opacity:1"
       transform="translate(38.22666,102.63995)"
       clip-path="url(#clipPath2)" />
  </g>
</svg>
