<?xml version="1.0" encoding="UTF-8" standalone="no"?>
<!-- Created with Inkscape (http://www.inkscape.org/) -->

<svg
   version="1.1"
   id="svg1"
   width="294.82666"
   height="385.76001"
   viewBox="0 0 294.82666 385.76001"
   sodipodi:docname="HgS13.pdf"
   xmlns:inkscape="http://www.inkscape.org/namespaces/inkscape"
   xmlns:sodipodi="http://sodipodi.sourceforge.net/DTD/sodipodi-0.dtd"
   xmlns="http://www.w3.org/2000/svg"
   xmlns:svg="http://www.w3.org/2000/svg">
  <defs
     id="defs1">
    <clipPath
       clipPathUnits="userSpaceOnUse"
       id="clipPath2">
      <path
         d="M 0,0.16 V 1122.5601 H 793.59998 V 0.16 Z"
         transform="translate(-276,-611.20002)"
         clip-rule="evenodd"
         id="path2" />
    </clipPath>
    <clipPath
       clipPathUnits="userSpaceOnUse"
       id="clipPath4">
      <path
         d="M 0,0.16 V 1122.5601 H 793.59998 V 0.16 Z"
         transform="translate(-396.79998,-611.20002)"
         clip-rule="evenodd"
         id="path4" />
    </clipPath>
    <clipPath
       clipPathUnits="userSpaceOnUse"
       id="clipPath6">
      <path
         d="M 0,0.16 V 1122.5601 H 793.59998 V 0.16 Z"
         transform="translate(-396.79998,-461.60001)"
         clip-rule="evenodd"
         id="path6" />
    </clipPath>
    <clipPath
       clipPathUnits="userSpaceOnUse"
       id="clipPath8">
      <path
         d="M 0,0.16 V 1122.5601 H 793.59998 V 0.16 Z"
         transform="translate(-517.59997,-611.20002)"
         clip-rule="evenodd"
         id="path8" />
    </clipPath>
    <clipPath
       clipPathUnits="userSpaceOnUse"
       id="clipPath10">
      <path
         d="M 0,0.16 V 1122.5601 H 793.59998 V 0.16 Z"
         transform="translate(-3.3333333e-6)"
         clip-rule="evenodd"
         id="path10" />
    </clipPath>
    <clipPath
       clipPathUnits="userSpaceOnUse"
       id="clipPath12">
      <path
         d="M 0,0.16 V 1122.5601 H 793.59998 V 0.16 Z"
         transform="translate(-3.3333333e-6)"
         clip-rule="evenodd"
         id="path12" />
    </clipPath>
  </defs>
  <sodipodi:namedview
     id="namedview1"
     pagecolor="#505050"
     bordercolor="#eeeeee"
     borderopacity="1"
     inkscape:showpageshadow="0"
     inkscape:pageopacity="0"
     inkscape:pagecheckerboard="0"
     inkscape:deskcolor="#505050">
    <inkscape:page
       x="0"
       y="0"
       inkscape:label="1"
       id="page1"
       width="294.82666"
       height="385.76001"
       margin="0"
       bleed="0" />
  </sodipodi:namedview>
  <g
     id="g1"
     inkscape:groupmode="layer"
     inkscape:label="1">
    <path
       id="path1"
       d="m 0,0 0.16,3.84 0.64,3.84 0.96,3.84 1.28,3.84 1.6,3.680001 1.92,3.519998 2.4,3.360001 2.56,3.360001 3.04,3.039999 3.2,2.880001 3.520001,2.559997 3.679998,2.560002 3.84,2.080002 4.16,1.919998 4.32,1.599998 4.479999,1.440003 4.640004,1.119999 4.639999,0.639999 4.639999,0.479999 4.8,0.16 4.640003,-0.16 4.799995,-0.479999 4.64,-0.639999 4.480003,-1.119999 4.479996,-1.440003 L 87.839996,44.32 92,42.400002 96,40.32 99.68,37.759998 103.2,35.200001 106.4,32.32 109.28,29.280001 112,25.92 l 2.24,-3.360001 2.08,-3.519998 1.6,-3.680001 1.28,-3.84 0.96,-3.84 0.48,-3.84 L 120.8,0"
       style="fill:none;stroke:#000000;stroke-width:26.4;stroke-linecap:round;stroke-linejoin:round;stroke-miterlimit:10;stroke-dasharray:none;stroke-opacity:1"
       transform="translate(23.866667,301.53329)"
       clip-path="url(#clipPath2)" />
    <path
       id="path3"
       d="m 0,0 0.16,3.84 0.64,3.84 0.96,3.84 1.28,3.84 1.6,3.680001 1.92,3.519998 2.4,3.360001 2.56,3.360001 3.04,3.039999 3.2,2.880001 3.520001,2.559997 3.679998,2.560002 4,2.080002 4,1.919998 4.32,1.599998 4.479999,1.440003 4.640004,1.119999 4.639999,0.639999 4.639999,0.479999 4.8,0.16 4.799999,-0.16 4.639999,-0.479999 4.64,-0.639999 4.639999,-1.119999 4.32,-1.440003 L 87.839996,44.32 92,42.400002 96,40.32 99.68,37.759998 103.2,35.200001 106.4,32.32 109.28,29.280001 112,25.92 l 2.24,-3.360001 2.08,-3.519998 1.6,-3.680001 1.28,-3.84 0.96,-3.84 0.48,-3.84 L 120.8,0"
       style="fill:none;stroke:#000000;stroke-width:26.4;stroke-linecap:round;stroke-linejoin:round;stroke-miterlimit:10;stroke-dasharray:none;stroke-opacity:1"
       transform="translate(144.66665,301.53329)"
       clip-path="url(#clipPath4)" />
    <path
       id="path5"
       d="m 0,0 -8.16,1.92 -8.16,2.24 -7.84,2.56 -7.84,2.88 -7.52,3.36 -7.360001,3.52 -7.039997,4 -6.880001,4.159999 -6.560002,4.480002 -6.239997,4.799997 -5.919999,4.960003 L -85.120003,44.16 -90.400002,49.759998 -95.360001,55.52 -100,61.439999 -104.16,67.68 l -3.68,6.239998 -3.36,6.560005 -2.88,6.559998 -2.56,6.720001 -2.08,6.879998 -1.6,6.88 -1.28,6.88 -0.64,7.04 -0.32,7.04 0.16,7.04 0.64,7.04 0.96,7.04001"
       style="fill:none;stroke:#000000;stroke-width:26.4;stroke-linecap:round;stroke-linejoin:round;stroke-miterlimit:10;stroke-dasharray:none;stroke-opacity:1"
       transform="translate(144.66665,151.93328)"
       clip-path="url(#clipPath6)" />
    <path
       id="path7"
       d="M 0,0 1.12,-7.04 1.76,-14.08 1.92,-21.120001 1.6,-28.16 0.8,-35.200001 -0.32,-42.080002 -1.92,-48.959999 -4,-55.84 -6.56,-62.560001 -9.44,-69.120003 -12.8,-75.68 l -3.839999,-6.239998 -4.16,-6.240006 -4.480002,-5.919998 -4.959999,-5.759994 -5.28,-5.600004 -5.599999,-5.28 -5.920002,-4.96 -6.239998,-4.8 -6.560001,-4.48 -6.880001,-4.15999 -7.199997,-4 -7.200005,-3.52001 -7.68,-3.36 -7.68,-2.88 -7.999997,-2.56 -8,-2.23999 -8.32,-1.92002"
       style="fill:none;stroke:#000000;stroke-width:26.4;stroke-linecap:round;stroke-linejoin:round;stroke-miterlimit:10;stroke-dasharray:none;stroke-opacity:1"
       transform="translate(265.46664,301.53329)"
       clip-path="url(#clipPath8)" />
    <path
       id="path9"
       d="M 396.79999,334.72 V 466.88"
       style="fill:none;stroke:#000000;stroke-width:26.4;stroke-linecap:round;stroke-linejoin:round;stroke-miterlimit:10;stroke-dasharray:none;stroke-opacity:1"
       transform="translate(-252.13333,-309.66673)"
       clip-path="url(#clipPath10)" />
    <path
       id="path11"
       d="M 321.28,391.35999 H 472.32001"
       style="fill:none;stroke:#000000;stroke-width:26.4;stroke-linecap:round;stroke-linejoin:round;stroke-miterlimit:10;stroke-dasharray:none;stroke-opacity:1"
       transform="translate(-252.13333,-309.66673)"
       clip-path="url(#clipPath12)" />
  </g>
</svg>
