<?xml version="1.0" encoding="UTF-8" standalone="no"?>
<!-- Created with Inkscape (http://www.inkscape.org/) -->

<svg
   version="1.1"
   id="svg1"
   width="472.25333"
   height="361.73334"
   viewBox="0 0 472.25333 361.73334"
   sodipodi:docname="HgS2.pdf"
   xmlns:inkscape="http://www.inkscape.org/namespaces/inkscape"
   xmlns:sodipodi="http://sodipodi.sourceforge.net/DTD/sodipodi-0.dtd"
   xmlns="http://www.w3.org/2000/svg"
   xmlns:svg="http://www.w3.org/2000/svg">
  <defs
     id="defs1">
    <clipPath
       clipPathUnits="userSpaceOnUse"
       id="clipPath2">
      <path
         d="M 0,0.16 V 1122.5601 H 793.59998 V 0.16 Z"
         transform="translate(-222.24,-561.28003)"
         clip-rule="evenodd"
         id="path2" />
    </clipPath>
    <clipPath
       clipPathUnits="userSpaceOnUse"
       id="clipPath4">
      <path
         d="M 0,0.16 V 1122.5601 H 793.59998 V 0.16 Z"
         transform="translate(-180,-716.32001)"
         clip-rule="evenodd"
         id="path4" />
    </clipPath>
    <clipPath
       clipPathUnits="userSpaceOnUse"
       id="clipPath6">
      <path
         d="M 0,0.16 V 1122.5601 H 793.59998 V 0.16 Z"
         transform="translate(-413.28,-561.28003)"
         clip-rule="evenodd"
         id="path6" />
    </clipPath>
    <clipPath
       clipPathUnits="userSpaceOnUse"
       id="clipPath8">
      <path
         d="M 0,0.16 V 1122.5601 H 793.59998 V 0.16 Z"
         transform="translate(-371.20001,-716.32001)"
         clip-rule="evenodd"
         id="path8" />
    </clipPath>
    <clipPath
       clipPathUnits="userSpaceOnUse"
       id="clipPath10">
      <path
         d="M 0,0.16 V 1122.5601 H 793.59998 V 0.16 Z"
         clip-rule="evenodd"
         id="path10" />
    </clipPath>
  </defs>
  <sodipodi:namedview
     id="namedview1"
     pagecolor="#505050"
     bordercolor="#eeeeee"
     borderopacity="1"
     inkscape:showpageshadow="0"
     inkscape:pageopacity="0"
     inkscape:pagecheckerboard="0"
     inkscape:deskcolor="#505050">
    <inkscape:page
       x="0"
       y="0"
       inkscape:label="1"
       id="page1"
       width="472.25333"
       height="361.73334"
       margin="0"
       bleed="0" />
  </sodipodi:namedview>
  <g
     id="g1"
     inkscape:groupmode="layer"
     inkscape:label="1">
    <path
       id="path1"
       d="m 0,0 6.88,-0.16 6.88,-0.48 6.72,-0.64 6.720001,-1.12 6.719997,-1.28 6.560002,-1.6 6.240001,-1.92 6.239998,-2.08 6.080002,-2.4 5.760002,-2.72 5.439995,-2.880001 5.279999,-3.199999 5.120002,-3.36 4.64,-3.520001 4.319999,-3.68 4.160004,-4 3.68,-4.16 3.359998,-4.16 3.04,-4.479999 2.56,-4.48 2.24,-4.639999 1.76,-4.799999 1.44,-4.640004 0.96,-4.959999 0.48,-4.800003 0.16,-4.959999 -0.16,-4.799995 -0.64,-4.800003 -1.12,-4.959999 -1.6,-4.64 -1.92,-4.8 -2.24,-4.48 -2.72,-4.64 -3.04,-4.32 -3.519997,-4.16 -3.840004,-4.16 -4.159996,-3.84 L 84,-134.39999 79.199997,-137.92 l -4.959999,-3.36 -5.439995,-3.04001 -5.600002,-2.87999 -5.760002,-2.55999 -6.079998,-2.40001 -6.240002,-2.08 L 38.720001,-156 32.16,-157.60001 25.440001,-158.72 18.719999,-159.67999 11.84,-160.32001 4.96,-160.8 h -6.88 l -6.88,0.16 -6.88,0.64 -6.72,0.8 -6.720001,1.12 -6.719999,1.28 -6.400002,1.76001"
       style="fill:none;stroke:#000000;stroke-width:26.4;stroke-linecap:round;stroke-linejoin:round;stroke-miterlimit:10;stroke-dasharray:none;stroke-opacity:1"
       transform="translate(222.24,563.94664)"
       clip-path="url(#clipPath2)" />
    <path
       id="path3"
       d="m 0,0 6.4,1.76 6.72,1.44 6.72,1.12 6.719999,0.8 6.88,0.48 L 40.32,5.76 h 6.880001 L 54.080002,5.44 60.959999,4.8 67.68,3.84 l 6.720002,-1.28 6.559997,-1.6 6.400002,-1.76 6.239997,-2.08 6.080002,-2.4 5.76,-2.56 5.6,-2.88 5.44,-3.04 4.96,-3.360001 4.8,-3.359999 4.48,-3.84 4.16,-3.84 3.84,-4.16 3.52,-4.16 3.04,-4.319999 2.72,-4.48 2.24,-4.639999 1.92,-4.640003 1.59999,-4.8 1.12001,-4.800003 0.64,-4.959999 0.15999,-4.799995 -0.15999,-4.959999 -0.48001,-4.800003 -0.95999,-4.800003 -1.44,-4.799996 -1.76,-4.800003 -2.24,-4.639998 -2.56,-4.48 -3.04001,-4.32 -3.36,-4.32 L 136,-120 l -4.16,-3.84 -4.32,-3.84 -4.64,-3.52 -5.12,-3.36 -5.28,-3.19999 -5.44,-2.88001 -5.76,-2.72 -6.080003,-2.39999 -6.239998,-2.08001 -6.239998,-1.91999 -6.559997,-1.60001 -6.720002,-1.28 -6.720001,-1.11999 -6.720001,-0.64 -6.880001,-0.48001 -6.879997,-0.15999"
       style="fill:none;stroke:#000000;stroke-width:26.4;stroke-linecap:round;stroke-linejoin:round;stroke-miterlimit:10;stroke-dasharray:none;stroke-opacity:1"
       transform="translate(180,718.98662)"
       clip-path="url(#clipPath4)" />
    <path
       id="path5"
       d="m 0,0 7.04,-0.16 6.72,-0.48 6.879999,-0.64 6.720002,-1.12 6.720001,-1.28 6.399998,-1.6 6.400001,-1.92 6.239998,-2.08 5.920002,-2.4 5.760002,-2.72 5.599999,-2.880001 L 75.68,-20.48 l 4.959999,-3.36 4.800003,-3.520001 4.32,-3.68 4.159996,-4 3.68,-4.16 3.360002,-4.16 2.88,-4.479999 2.72,-4.48 2.08,-4.639999 1.92,-4.799999 1.44,-4.640004 0.96,-4.959999 0.48,-4.800003 0.16,-4.959999 -0.16,-4.799995 -0.8,-4.800003 -1.12,-4.959999 -1.44,-4.64 -1.92,-4.8 -2.24,-4.48 -2.72,-4.64 -3.2,-4.32 -3.360001,-4.16 -3.839996,-4.16 -4.160004,-3.84 -4.479995,-3.67999 -4.800003,-3.52001 -4.959999,-3.36 -5.440003,-3.04001 L 63.360001,-147.2 57.599998,-149.75999 51.52,-152.16 45.279999,-154.24 38.880001,-156 32.32,-157.60001 25.6,-158.72 18.879999,-159.67999 12,-160.32001 5.12,-160.8 h -6.88 l -6.88,0.16 -6.88,0.64 -6.72,0.8 -6.719999,1.12 -6.720001,1.28 -6.400002,1.76001"
       style="fill:none;stroke:#000000;stroke-width:26.4;stroke-linecap:round;stroke-linejoin:round;stroke-miterlimit:10;stroke-dasharray:none;stroke-opacity:1"
       transform="translate(413.28,563.94664)"
       clip-path="url(#clipPath6)" />
    <path
       id="path7"
       d="m 0,0 6.4,1.76 6.72,1.44 6.72,1.12 6.719999,0.8 6.88,0.48 L 40.32,5.76 h 6.880001 L 54.080002,5.44 60.959999,4.8 67.68,3.84 l 6.720002,-1.28 6.559997,-1.6 6.400002,-1.76 6.239997,-2.08 6.080002,-2.4 5.76,-2.56 5.6,-2.88 5.44,-3.04 4.96,-3.360001 4.8,-3.359999 4.48,-3.84 4.16,-3.84 3.84,-4.16 3.36,-4.16 3.2,-4.319999 2.72,-4.48 2.24,-4.639999 1.92,-4.640003 1.44001,-4.8 1.11999,-4.800003 0.8,-4.959999 0.15999,-4.799995 -0.15999,-4.959999 -0.48001,-4.800003 -0.95999,-4.800003 -1.44,-4.799996 -1.92,-4.800003 -2.08,-4.639998 -2.72,-4.48 -2.88001,-4.32 -3.36,-4.32 L 136,-120 l -4.16,-3.84 -4.32,-3.84 -4.8,-3.52 -4.96,-3.36 -5.28,-3.19999 -5.6,-2.88001 -5.76,-2.72 -5.920003,-2.39999 -6.239998,-2.08001 -6.400001,-1.91999 -6.399994,-1.60001 -6.720002,-1.28 -6.720001,-1.11999 -6.880001,-0.64 -6.720001,-0.48001 -7.039997,-0.15999"
       style="fill:none;stroke:#000000;stroke-width:26.4;stroke-linecap:round;stroke-linejoin:round;stroke-miterlimit:10;stroke-dasharray:none;stroke-opacity:1"
       transform="translate(371.20001,718.98662)"
       clip-path="url(#clipPath8)" />
    <path
       id="path9"
       d="M 202.08,561.28003 H 613.76001"
       style="fill:none;stroke:#000000;stroke-width:26.4;stroke-linecap:round;stroke-linejoin:round;stroke-miterlimit:10;stroke-dasharray:none;stroke-opacity:1"
       transform="translate(0,2.666608)"
       clip-path="url(#clipPath10)" />
  </g>
</svg>
