<?xml version="1.0" encoding="UTF-8" standalone="no"?>
<!-- Created with Inkscape (http://www.inkscape.org/) -->

<svg
   version="1.1"
   id="svg1"
   width="437.57333"
   height="270.95999"
   viewBox="0 0 437.57333 270.95999"
   sodipodi:docname="HydrochloricAcid2.pdf"
   xmlns:inkscape="http://www.inkscape.org/namespaces/inkscape"
   xmlns:sodipodi="http://sodipodi.sourceforge.net/DTD/sodipodi-0.dtd"
   xmlns="http://www.w3.org/2000/svg"
   xmlns:svg="http://www.w3.org/2000/svg">
  <defs
     id="defs1">
    <clipPath
       clipPathUnits="userSpaceOnUse"
       id="clipPath2">
      <path
         d="M 0,0.16 V 1122.5601 H 793.59998 V 0.16 Z"
         transform="translate(-623.35998,-787.84002)"
         clip-rule="evenodd"
         id="path2" />
    </clipPath>
    <clipPath
       clipPathUnits="userSpaceOnUse"
       id="clipPath4">
      <path
         d="M 0,0.16 V 1122.5601 H 793.59998 V 0.16 Z"
         clip-rule="evenodd"
         id="path4" />
    </clipPath>
    <clipPath
       clipPathUnits="userSpaceOnUse"
       id="clipPath6">
      <path
         d="M 0,0.16 V 1122.5601 H 793.59998 V 0.16 Z"
         transform="translate(-283.51999,-674.56)"
         clip-rule="evenodd"
         id="path6" />
    </clipPath>
    <clipPath
       clipPathUnits="userSpaceOnUse"
       id="clipPath8">
      <path
         d="M 0,0.16 V 1122.5601 H 793.59998 V 0.16 Z"
         transform="translate(-283.51999,-787.84002)"
         clip-rule="evenodd"
         id="path8" />
    </clipPath>
    <clipPath
       clipPathUnits="userSpaceOnUse"
       id="clipPath10">
      <path
         d="M 0,0.16 V 1122.5601 H 793.59998 V 0.16 Z"
         transform="translate(-523.35998,-731.20001)"
         clip-rule="evenodd"
         id="path10" />
    </clipPath>
    <clipPath
       clipPathUnits="userSpaceOnUse"
       id="clipPath12">
      <path
         d="M 0,0.16 V 1122.5601 H 793.59998 V 0.16 Z"
         transform="translate(-523.35998,-844.47998)"
         clip-rule="evenodd"
         id="path12" />
    </clipPath>
    <clipPath
       clipPathUnits="userSpaceOnUse"
       id="clipPath14">
      <path
         d="M 0,0.16 V 1122.5601 H 793.59998 V 0.16 Z"
         transform="translate(-523.35998,-731.20001)"
         clip-rule="evenodd"
         id="path14" />
    </clipPath>
    <clipPath
       clipPathUnits="userSpaceOnUse"
       id="clipPath16">
      <path
         d="M 0,0.16 V 1122.5601 H 793.59998 V 0.16 Z"
         transform="translate(-523.35998,-844.47998)"
         clip-rule="evenodd"
         id="path16" />
    </clipPath>
  </defs>
  <sodipodi:namedview
     id="namedview1"
     pagecolor="#505050"
     bordercolor="#eeeeee"
     borderopacity="1"
     inkscape:showpageshadow="0"
     inkscape:pageopacity="0"
     inkscape:pagecheckerboard="0"
     inkscape:deskcolor="#505050">
    <inkscape:page
       x="0"
       y="0"
       inkscape:label="1"
       id="page1"
       width="437.57333"
       height="270.95999"
       margin="0"
       bleed="0" />
  </sodipodi:namedview>
  <g
     id="g1"
     inkscape:groupmode="layer"
     inkscape:label="1">
    <path
       id="path1"
       d="m 0,0 c 0,-62.560001 -50.709999,-113.28 -113.28,-113.28 -62.57001,0 -113.28,50.719999 -113.28,113.28 0,62.560001 50.70999,113.28 113.28,113.28 C -50.709999,113.28 0,62.560001 0,0 Z"
       style="fill:none;stroke:#000000;stroke-width:26.4;stroke-linecap:round;stroke-linejoin:round;stroke-miterlimit:10;stroke-dasharray:none;stroke-opacity:1"
       transform="translate(623.35998,328.66663)"
       clip-path="url(#clipPath2)" />
    <path
       id="path3"
       d="M 623.35998,787.84003 H 283.51999"
       style="fill:none;stroke:#000000;stroke-width:26.4;stroke-linecap:round;stroke-linejoin:round;stroke-miterlimit:10;stroke-dasharray:none;stroke-opacity:1"
       transform="translate(0,-459.17339)"
       clip-path="url(#clipPath4)" />
    <path
       id="path5"
       d="M 0,0 -4.32,0.16 -8.8,0.64 -13.12,1.6 -17.440001,2.72 -21.6,4.32 l -4,1.92 -4,2.08 -3.679999,2.56 -3.52,2.72 L -40,16.639999 -43.040001,19.84 l -2.719997,3.520001 -2.400002,3.68 -2.240002,3.839998 -1.919998,4.160002 -1.439998,4.16 -1.280003,4.16 L -55.84,47.84 l -0.64,4.32 -0.159999,4.479999 0.159999,4.48 0.64,4.320003 0.799999,4.479996 1.280003,4.160004 1.439998,4.32 1.919998,4 2.240002,3.839996 2.400002,3.68 2.719997,3.520004 L -40,96.639999 -36.799999,99.68 l 3.52,2.72 3.679999,2.56 4,2.08 4,1.92 4.159999,1.6 4.320001,1.12 4.32,0.96 4.48,0.48 4.32,0.16"
       style="fill:none;stroke:#000000;stroke-width:26.4;stroke-linecap:round;stroke-linejoin:round;stroke-miterlimit:10;stroke-dasharray:none;stroke-opacity:1"
       transform="translate(283.51999,215.38661)"
       clip-path="url(#clipPath6)" />
    <path
       id="path7"
       d="M 0,0 -4.32,0.16 -8.8,0.64 -13.12,1.6 -17.440001,2.72 -21.6,4.32 l -4,1.92 -4,2.08 -3.679999,2.56 -3.52,2.72 L -40,16.639999 -43.040001,19.84 l -2.719997,3.520001 -2.400002,3.68 -2.240002,3.839998 -1.919998,4.160002 -1.439998,4.16 -1.280003,4.16 L -55.84,47.84 l -0.64,4.32 -0.159999,4.479999 0.159999,4.48 0.64,4.320003 0.799999,4.479996 1.280003,4.160004 1.439998,4.159996 1.919998,4.160004 2.240002,3.839996 2.400002,3.68 2.719997,3.520004 L -40,96.639999 -36.799999,99.68 l 3.52,2.72 3.679999,2.56 4,2.08 4,1.92 4.159999,1.6 4.320001,1.12 4.32,0.96 4.48,0.48 4.32,0.16"
       style="fill:none;stroke:#000000;stroke-width:26.4;stroke-linecap:round;stroke-linejoin:round;stroke-miterlimit:10;stroke-dasharray:none;stroke-opacity:1"
       transform="translate(283.51999,328.66663)"
       clip-path="url(#clipPath8)" />
    <path
       id="path9"
       d="m 0,0 -0.16,-1.76 -0.32,-1.6 -0.48,-1.76 -0.8,-1.44 -0.96,-1.44 -1.12,-1.28 -1.28,-1.12 -1.44,-0.96 -1.6,-0.8 -1.6,-0.64 -1.76,-0.32 -1.76,-0.16 -1.76,0.16 -1.599999,0.32 -1.600001,0.64 -1.6,0.8 -1.440001,0.96 -1.279998,1.12 L -23.68,-8 l -0.959999,1.44 -0.800002,1.44 -0.639999,1.76 -0.32,1.6 V 0 1.76 l 0.32,1.6 0.639999,1.76 0.800002,1.44 L -23.68,8 l 1.120001,1.28 1.279998,1.28 1.440001,0.96 1.6,0.64 1.600001,0.64 1.599999,0.32 1.76,0.16 1.76,-0.16 1.76,-0.32 1.6,-0.64 1.6,-0.64 1.44,-0.96 L -3.84,9.28 -2.72,8 -1.76,6.56 -0.96,5.12 -0.48,3.36 -0.16,1.76 0,0 v 0 z"
       style="fill:#000000;fill-opacity:1;fill-rule:evenodd;stroke:none"
       transform="translate(523.35998,272.02662)"
       clip-path="url(#clipPath10)" />
    <path
       id="path11"
       d="m 0,0 -0.16,-1.76 -0.32,-1.6 -0.48,-1.76 -0.8,-1.44 -0.96,-1.44 -1.12,-1.28 -1.28,-1.28 -1.44,-0.96 -1.6,-0.64 -1.6,-0.64 -1.76,-0.32 -1.76,-0.16 -1.76,0.16 -1.599999,0.32 -1.600001,0.64 -1.6,0.64 -1.440001,0.96 -1.279998,1.28 L -23.68,-8 l -0.959999,1.44 -0.800002,1.44 -0.639999,1.76 -0.32,1.6 V 0 1.76 l 0.32,1.6 0.639999,1.76 0.800002,1.44 L -23.68,8 l 1.120001,1.28 1.279998,1.28 1.440001,0.96 1.6,0.64 1.600001,0.64 1.599999,0.32 1.76,0.16 1.76,-0.16 1.76,-0.32 1.6,-0.64 1.6,-0.64 1.44,-0.96 L -3.84,9.28 -2.72,8 -1.76,6.56 -0.96,5.12 -0.48,3.36 -0.16,1.76 0,0 v 0 z"
       style="fill:#000000;fill-opacity:1;fill-rule:evenodd;stroke:none"
       transform="translate(523.35998,385.30659)"
       clip-path="url(#clipPath12)" />
    <path
       id="path13"
       d="m 0,0 -0.16,-1.76 -0.32,-1.6 -0.48,-1.76 -0.8,-1.44 -0.96,-1.44 -1.12,-1.28 -1.28,-1.12 -1.44,-0.96 -1.6,-0.8 -1.6,-0.64 -1.76,-0.32 -1.76,-0.16 -1.76,0.16 -1.599999,0.32 -1.600001,0.64 -1.6,0.8 -1.440001,0.96 -1.279998,1.12 L -23.68,-8 l -0.959999,1.44 -0.800002,1.44 -0.639999,1.76 -0.32,1.6 V 0 1.76 l 0.32,1.6 0.639999,1.76 0.800002,1.44 L -23.68,8 l 1.120001,1.28 1.279998,1.28 1.440001,0.96 1.6,0.64 1.600001,0.64 1.599999,0.32 1.76,0.16 1.76,-0.16 1.76,-0.32 1.6,-0.64 1.6,-0.64 1.44,-0.96 L -3.84,9.28 -2.72,8 -1.76,6.56 -0.96,5.12 -0.48,3.36 -0.16,1.76 0,0"
       style="fill:none;stroke:#000000;stroke-width:0.64;stroke-linecap:round;stroke-linejoin:round;stroke-miterlimit:10;stroke-dasharray:none;stroke-opacity:1"
       transform="translate(523.35998,272.02662)"
       clip-path="url(#clipPath14)" />
    <path
       id="path15"
       d="m 0,0 -0.16,-1.76 -0.32,-1.6 -0.48,-1.76 -0.8,-1.44 -0.96,-1.44 -1.12,-1.28 -1.28,-1.28 -1.44,-0.96 -1.6,-0.64 -1.6,-0.64 -1.76,-0.32 -1.76,-0.16 -1.76,0.16 -1.599999,0.32 -1.600001,0.64 -1.6,0.64 -1.440001,0.96 -1.279998,1.28 L -23.68,-8 l -0.959999,1.44 -0.800002,1.44 -0.639999,1.76 -0.32,1.6 V 0 1.76 l 0.32,1.6 0.639999,1.76 0.800002,1.44 L -23.68,8 l 1.120001,1.28 1.279998,1.28 1.440001,0.96 1.6,0.64 1.600001,0.64 1.599999,0.32 1.76,0.16 1.76,-0.16 1.76,-0.32 1.6,-0.64 1.6,-0.64 1.44,-0.96 L -3.84,9.28 -2.72,8 -1.76,6.56 -0.96,5.12 -0.48,3.36 -0.16,1.76 0,0"
       style="fill:none;stroke:#000000;stroke-width:0.64;stroke-linecap:round;stroke-linejoin:round;stroke-miterlimit:10;stroke-dasharray:none;stroke-opacity:1"
       transform="translate(523.35998,385.30659)"
       clip-path="url(#clipPath16)" />
  </g>
</svg>
