<?xml version="1.0" encoding="UTF-8" standalone="no"?>
<!-- Created with Inkscape (http://www.inkscape.org/) -->

<svg
   version="1.1"
   id="svg1"
   width="472.25333"
   height="246.93333"
   viewBox="0 0 472.25333 246.93333"
   sodipodi:docname="IronVitriol7.pdf"
   xmlns:inkscape="http://www.inkscape.org/namespaces/inkscape"
   xmlns:sodipodi="http://sodipodi.sourceforge.net/DTD/sodipodi-0.dtd"
   xmlns="http://www.w3.org/2000/svg"
   xmlns:svg="http://www.w3.org/2000/svg">
  <defs
     id="defs1">
    <clipPath
       clipPathUnits="userSpaceOnUse"
       id="clipPath2">
      <path
         d="M 0,0.16 V 1122.5601 H 793.59998 V 0.16 Z"
         transform="translate(-608.64001,-622.08002)"
         clip-rule="evenodd"
         id="path2" />
    </clipPath>
    <clipPath
       clipPathUnits="userSpaceOnUse"
       id="clipPath4">
      <path
         d="M 0,0.16 V 1122.5601 H 793.59998 V 0.16 Z"
         transform="translate(-185.60001,-489.92001)"
         clip-rule="evenodd"
         id="path4" />
    </clipPath>
    <clipPath
       clipPathUnits="userSpaceOnUse"
       id="clipPath6">
      <path
         d="M 0,0.16 V 1122.5601 H 793.59998 V 0.16 Z"
         transform="translate(-291.35999,-489.92001)"
         clip-rule="evenodd"
         id="path6" />
    </clipPath>
    <clipPath
       clipPathUnits="userSpaceOnUse"
       id="clipPath8">
      <path
         d="M 0,0.16 V 1122.5601 H 793.59998 V 0.16 Z"
         transform="translate(-291.35999,-489.92001)"
         clip-rule="evenodd"
         id="path8" />
    </clipPath>
    <clipPath
       clipPathUnits="userSpaceOnUse"
       id="clipPath10">
      <path
         d="M 0,0.16 V 1122.5601 H 793.59998 V 0.16 Z"
         transform="translate(-397.12,-489.92001)"
         clip-rule="evenodd"
         id="path10" />
    </clipPath>
    <clipPath
       clipPathUnits="userSpaceOnUse"
       id="clipPath12">
      <path
         d="M 0,0.16 V 1122.5601 H 793.59998 V 0.16 Z"
         transform="translate(-397.12,-489.92001)"
         clip-rule="evenodd"
         id="path12" />
    </clipPath>
    <clipPath
       clipPathUnits="userSpaceOnUse"
       id="clipPath14">
      <path
         d="M 0,0.16 V 1122.5601 H 793.59998 V 0.16 Z"
         transform="translate(-502.72,-489.92001)"
         clip-rule="evenodd"
         id="path14" />
    </clipPath>
    <clipPath
       clipPathUnits="userSpaceOnUse"
       id="clipPath16">
      <path
         d="M 0,0.16 V 1122.5601 H 793.59998 V 0.16 Z"
         transform="translate(-502.72,-489.92001)"
         clip-rule="evenodd"
         id="path16" />
    </clipPath>
    <clipPath
       clipPathUnits="userSpaceOnUse"
       id="clipPath18">
      <path
         d="M 0,0.16 V 1122.5601 H 793.59998 V 0.16 Z"
         transform="translate(-185.60001,-595.52002)"
         clip-rule="evenodd"
         id="path18" />
    </clipPath>
    <clipPath
       clipPathUnits="userSpaceOnUse"
       id="clipPath20">
      <path
         d="M 0,0.16 V 1122.5601 H 793.59998 V 0.16 Z"
         transform="translate(-291.35999,-595.52002)"
         clip-rule="evenodd"
         id="path20" />
    </clipPath>
    <clipPath
       clipPathUnits="userSpaceOnUse"
       id="clipPath22">
      <path
         d="M 0,0.16 V 1122.5601 H 793.59998 V 0.16 Z"
         transform="translate(-291.35999,-595.52002)"
         clip-rule="evenodd"
         id="path22" />
    </clipPath>
    <clipPath
       clipPathUnits="userSpaceOnUse"
       id="clipPath24">
      <path
         d="M 0,0.16 V 1122.5601 H 793.59998 V 0.16 Z"
         transform="translate(-397.12,-595.52002)"
         clip-rule="evenodd"
         id="path24" />
    </clipPath>
    <clipPath
       clipPathUnits="userSpaceOnUse"
       id="clipPath26">
      <path
         d="M 0,0.16 V 1122.5601 H 793.59998 V 0.16 Z"
         transform="translate(-397.12,-595.52002)"
         clip-rule="evenodd"
         id="path26" />
    </clipPath>
    <clipPath
       clipPathUnits="userSpaceOnUse"
       id="clipPath28">
      <path
         d="M 0,0.16 V 1122.5601 H 793.59998 V 0.16 Z"
         transform="translate(-502.72,-595.52002)"
         clip-rule="evenodd"
         id="path28" />
    </clipPath>
    <clipPath
       clipPathUnits="userSpaceOnUse"
       id="clipPath30">
      <path
         d="M 0,0.16 V 1122.5601 H 793.59998 V 0.16 Z"
         transform="translate(-502.72,-595.52002)"
         clip-rule="evenodd"
         id="path30" />
    </clipPath>
  </defs>
  <sodipodi:namedview
     id="namedview1"
     pagecolor="#505050"
     bordercolor="#eeeeee"
     borderopacity="1"
     inkscape:showpageshadow="0"
     inkscape:pageopacity="0"
     inkscape:pagecheckerboard="0"
     inkscape:deskcolor="#505050">
    <inkscape:page
       x="0"
       y="0"
       inkscape:label="1"
       id="page1"
       width="472.25333"
       height="246.93333"
       margin="0"
       bleed="0" />
  </sodipodi:namedview>
  <g
     id="g1"
     inkscape:groupmode="layer"
     inkscape:label="1">
    <path
       id="path1"
       d="m 0,0 c 0,-21.91 -17.76,-39.68 -39.68,-39.68 -21.919998,0 -39.680001,17.77 -39.680001,39.68 0,21.91 17.760003,39.68 39.680001,39.68 C -17.76,39.68 0,21.91 0,0 Z"
       style="fill:none;stroke:#000000;stroke-width:26.4;stroke-linecap:round;stroke-linejoin:round;stroke-miterlimit:10;stroke-dasharray:none;stroke-opacity:1"
       transform="translate(608.64001,622.07996)"
       clip-path="url(#clipPath2)" />
    <path
       id="path3"
       d="m 0,0 0.32,2.72 0.32,2.72 0.8,2.72 0.96,2.56 1.28,2.56 1.44,2.24 1.76,2.24 1.92,1.92 2.24,1.760001 2.24,1.439998 L 15.84,24.16 18.4,25.120001 21.120001,25.92 23.84,26.24 26.559999,26.4 29.280001,26.24 32,25.92 34.720001,25.120001 37.279999,24.16 39.68,22.879999 42.080002,21.440001 44.16,19.68 46.240002,17.76 48,15.52 49.439999,13.28 50.720001,10.72 51.68,8.16 52.32,5.44 52.799999,2.72 52.959999,0"
       style="fill:none;stroke:#000000;stroke-width:26.4;stroke-linecap:round;stroke-linejoin:round;stroke-miterlimit:10;stroke-dasharray:none;stroke-opacity:1"
       transform="translate(185.60001,489.91995)"
       clip-path="url(#clipPath4)" />
    <path
       id="path5"
       d="m 0,0 v -2.72 l -0.48,-2.72 -0.8,-2.72 -0.96,-2.56 -1.28,-2.4 -1.44,-2.4 -1.76,-2.08 -1.92,-2.08 -2.24,-1.760001 -2.24,-1.439998 -2.56,-1.280001 -2.56,-0.960001 -2.559999,-0.639999 -2.720001,-0.48 -2.88,-0.16 -2.720001,0.16 -2.719999,0.48 -2.720001,0.639999 -2.559998,0.960001 -2.400001,1.280001 -2.399998,1.439998 L -44,-19.68 l -2.080002,2.08 -1.599998,2.08 -1.599999,2.4 -1.280002,2.4 -0.959999,2.56 -0.64,2.72 -0.479999,2.72 -0.16,2.72"
       style="fill:none;stroke:#000000;stroke-width:26.4;stroke-linecap:round;stroke-linejoin:round;stroke-miterlimit:10;stroke-dasharray:none;stroke-opacity:1"
       transform="translate(291.35999,489.91995)"
       clip-path="url(#clipPath6)" />
    <path
       id="path7"
       d="m 0,0 0.16,2.72 0.48,2.72 0.8,2.72 0.96,2.56 1.28,2.56 1.44,2.24 1.76,2.24 1.92,1.92 2.24,1.760001 2.24,1.439998 L 15.68,24.16 18.4,25.120001 20.959999,25.92 23.68,26.24 26.559999,26.4 29.280001,26.24 32,25.92 34.720001,25.120001 37.279999,24.16 39.68,22.879999 42.080002,21.440001 44.16,19.68 46.080002,17.76 47.84,15.52 49.439999,13.28 50.720001,10.72 51.68,8.16 52.32,5.44 52.799999,2.72 V 0"
       style="fill:none;stroke:#000000;stroke-width:26.4;stroke-linecap:round;stroke-linejoin:round;stroke-miterlimit:10;stroke-dasharray:none;stroke-opacity:1"
       transform="translate(291.35999,489.91995)"
       clip-path="url(#clipPath8)" />
    <path
       id="path9"
       d="m 0,0 -0.16,-2.72 -0.32,-2.72 -0.8,-2.72 -0.96,-2.56 -1.28,-2.4 -1.44,-2.4 -1.76,-2.08 -1.92,-2.08 -2.24,-1.760001 -2.24,-1.439998 -2.56,-1.280001 -2.56,-0.960001 -2.719999,-0.639999 -2.720001,-0.48 -2.72,-0.16 -2.720001,0.16 -2.719999,0.48 -2.720001,0.639999 -2.559998,0.960001 -2.560001,1.280001 -2.239998,1.439998 L -44.16,-19.68 l -1.920002,2.08 -1.759998,2.08 -1.439999,2.4 -1.280002,2.4 -0.959999,2.56 -0.8,2.72 -0.319999,2.72 -0.32,2.72"
       style="fill:none;stroke:#000000;stroke-width:26.4;stroke-linecap:round;stroke-linejoin:round;stroke-miterlimit:10;stroke-dasharray:none;stroke-opacity:1"
       transform="translate(397.12,489.91995)"
       clip-path="url(#clipPath10)" />
    <path
       id="path11"
       d="m 0,0 0.16,2.72 0.48,2.72 0.64,2.72 0.96,2.56 1.28,2.56 1.6,2.24 1.76,2.24 1.92,1.92 2.08,1.760001 2.4,1.439998 2.4,1.280001 2.56,0.960001 L 20.959999,25.92 23.68,26.24 26.4,26.4 29.280001,26.24 32,25.92 34.560001,25.120001 37.279999,24.16 39.68,22.879999 41.919998,21.440001 44.16,19.68 46.080002,17.76 47.84,15.52 49.279999,13.28 50.560001,10.72 51.52,8.16 52.32,5.44 52.799999,2.72 V 0"
       style="fill:none;stroke:#000000;stroke-width:26.4;stroke-linecap:round;stroke-linejoin:round;stroke-miterlimit:10;stroke-dasharray:none;stroke-opacity:1"
       transform="translate(397.12,489.91995)"
       clip-path="url(#clipPath12)" />
    <path
       id="path13"
       d="m 0,0 v -2.72 l -0.48,-2.72 -0.64,-2.72 -0.96,-2.56 -1.28,-2.4 -1.6,-2.4 -1.6,-2.08 -2.08,-2.08 -2.08,-1.760001 -2.4,-1.439998 -2.4,-1.280001 -2.56,-0.960001 -2.719999,-0.639999 -2.720001,-0.48 -2.72,-0.16 -2.719999,0.16 -2.880001,0.48 -2.560002,0.639999 -2.559997,0.960001 -2.560001,1.280001 -2.239998,1.439998 L -44,-19.68 l -1.919998,2.08 -1.760002,2.08 -1.439999,2.4 -1.280003,2.4 -0.959999,2.56 -0.799999,2.72 -0.479999,2.72 -0.16,2.72"
       style="fill:none;stroke:#000000;stroke-width:26.4;stroke-linecap:round;stroke-linejoin:round;stroke-miterlimit:10;stroke-dasharray:none;stroke-opacity:1"
       transform="translate(502.72,489.91995)"
       clip-path="url(#clipPath14)" />
    <path
       id="path15"
       d="m 0,0 0.32,2.72 0.48,2.72 0.64,2.72 0.96,2.56 1.28,2.56 1.6,2.24 1.6,2.24 2.08,1.92 2.08,1.760001 2.4,1.439998 L 15.84,24.16 18.4,25.120001 21.120001,25.92 23.84,26.24 26.559999,26.4"
       style="fill:none;stroke:#000000;stroke-width:26.4;stroke-linecap:round;stroke-linejoin:round;stroke-miterlimit:10;stroke-dasharray:none;stroke-opacity:1"
       transform="translate(502.72,489.91995)"
       clip-path="url(#clipPath16)" />
    <path
       id="path17"
       d="m 0,0 0.32,2.88 0.32,2.72 0.8,2.72 0.96,2.56 1.28,2.4 1.44,2.4 1.76,2.08 1.92,2.08 2.24,1.76 2.24,1.440001 L 15.84,24.32 18.4,25.280001 21.120001,25.92 23.84,26.4 26.559999,26.559999 29.280001,26.4 32,25.92 34.720001,25.280001 37.279999,24.32 39.68,23.040001 42.080002,21.6 44.16,19.84 46.240002,17.76 48,15.68 49.439999,13.28 50.720001,10.88 51.68,8.32 52.32,5.6 52.799999,2.88 52.959999,0"
       style="fill:none;stroke:#000000;stroke-width:26.4;stroke-linecap:round;stroke-linejoin:round;stroke-miterlimit:10;stroke-dasharray:none;stroke-opacity:1"
       transform="translate(185.60001,595.51996)"
       clip-path="url(#clipPath18)" />
    <path
       id="path19"
       d="m 0,0 v -2.56 l -0.48,-2.72 -0.8,-2.72 -0.96,-2.56 -1.28,-2.56 -1.44,-2.24 -1.76,-2.24 -1.92,-1.92 -2.24,-1.760001 -2.24,-1.439998 L -15.68,-24 -18.24,-24.959999 -20.799999,-25.76 -23.52,-26.08 l -2.88,-0.16 -2.720001,0.16 -2.719999,0.32 -2.720001,0.800001 L -37.119999,-24 -39.52,-22.719999 -41.919998,-21.280001 -44,-19.52 l -2.080002,1.92 -1.599998,2.24 -1.599999,2.24 -1.280002,2.56 L -51.52,-8 l -0.64,2.72 -0.479999,2.72 -0.16,2.56"
       style="fill:none;stroke:#000000;stroke-width:26.4;stroke-linecap:round;stroke-linejoin:round;stroke-miterlimit:10;stroke-dasharray:none;stroke-opacity:1"
       transform="translate(291.35999,595.51996)"
       clip-path="url(#clipPath20)" />
    <path
       id="path21"
       d="m 0,0 0.16,2.88 0.48,2.72 0.8,2.72 0.96,2.56 1.28,2.4 1.44,2.4 1.76,2.08 1.92,2.08 2.24,1.76 2.24,1.440001 L 15.68,24.32 18.4,25.280001 20.959999,25.92 23.68,26.4 26.559999,26.559999 29.280001,26.4 32,25.92 34.720001,25.280001 37.279999,24.32 39.68,23.040001 42.080002,21.6 44.16,19.84 46.080002,17.76 47.84,15.68 49.439999,13.28 50.720001,10.88 51.68,8.32 52.32,5.6 52.799999,2.88 V 0"
       style="fill:none;stroke:#000000;stroke-width:26.4;stroke-linecap:round;stroke-linejoin:round;stroke-miterlimit:10;stroke-dasharray:none;stroke-opacity:1"
       transform="translate(291.35999,595.51996)"
       clip-path="url(#clipPath22)" />
    <path
       id="path23"
       d="m 0,0 -0.16,-2.56 -0.32,-2.72 -0.8,-2.72 -0.96,-2.56 -1.28,-2.56 -1.44,-2.24 -1.76,-2.24 -1.92,-1.92 -2.24,-1.760001 -2.24,-1.439998 L -15.68,-24 -18.24,-24.959999 -20.959999,-25.76 -23.68,-26.08 l -2.72,-0.16 -2.720001,0.16 -2.719999,0.32 -2.720001,0.800001 L -37.119999,-24 -39.68,-22.719999 -41.919998,-21.280001 -44.16,-19.52 l -1.920002,1.92 -1.759998,2.24 -1.439999,2.24 -1.280002,2.56 L -51.52,-8 l -0.8,2.72 -0.319999,2.72 -0.32,2.56"
       style="fill:none;stroke:#000000;stroke-width:26.4;stroke-linecap:round;stroke-linejoin:round;stroke-miterlimit:10;stroke-dasharray:none;stroke-opacity:1"
       transform="translate(397.12,595.51996)"
       clip-path="url(#clipPath24)" />
    <path
       id="path25"
       d="m 0,0 0.16,2.88 0.48,2.72 0.64,2.72 0.96,2.56 1.28,2.4 1.6,2.4 1.76,2.08 1.92,2.08 2.08,1.76 2.4,1.440001 2.4,1.279999 2.56,0.960001 L 20.959999,25.92 23.68,26.4 26.4,26.559999 29.280001,26.4 32,25.92 34.560001,25.280001 37.279999,24.32 39.68,23.040001 41.919998,21.6 44.16,19.84 46.080002,17.76 47.84,15.68 49.279999,13.28 50.560001,10.88 51.52,8.32 52.32,5.6 52.799999,2.88 V 0"
       style="fill:none;stroke:#000000;stroke-width:26.4;stroke-linecap:round;stroke-linejoin:round;stroke-miterlimit:10;stroke-dasharray:none;stroke-opacity:1"
       transform="translate(397.12,595.51996)"
       clip-path="url(#clipPath26)" />
    <path
       id="path27"
       d="M 0,0 V -2.56 L -0.48,-5.28 -1.12,-8 l -0.96,-2.56 -1.28,-2.56 -1.6,-2.24 -1.6,-2.24 -2.08,-1.92 -2.08,-1.760001 -2.4,-1.439998 L -15.52,-24 -18.08,-24.959999 -20.799999,-25.76 -23.52,-26.08 l -2.72,-0.16 -2.719999,0.16 -2.880001,0.32 -2.560002,0.800001 L -36.959999,-24 -39.52,-22.719999 -41.759998,-21.280001 -44,-19.52 l -1.919998,1.92 -1.760002,2.24 -1.439999,2.24 -1.280003,2.56 -0.959999,2.56 -0.799999,2.72 -0.479999,2.72 -0.16,2.56"
       style="fill:none;stroke:#000000;stroke-width:26.4;stroke-linecap:round;stroke-linejoin:round;stroke-miterlimit:10;stroke-dasharray:none;stroke-opacity:1"
       transform="translate(502.72,595.51996)"
       clip-path="url(#clipPath28)" />
    <path
       id="path29"
       d="m 0,0 0.32,2.88 0.48,2.72 0.64,2.72 0.96,2.56 1.28,2.4 1.6,2.4 1.6,2.08 2.08,2.08 2.08,1.76 2.4,1.440001 L 15.84,24.32 18.4,25.280001 21.120001,25.92 23.84,26.4 l 2.719999,0.159999"
       style="fill:none;stroke:#000000;stroke-width:26.4;stroke-linecap:round;stroke-linejoin:round;stroke-miterlimit:10;stroke-dasharray:none;stroke-opacity:1"
       transform="translate(502.72,595.51996)"
       clip-path="url(#clipPath30)" />
  </g>
</svg>
