<?xml version="1.0" encoding="UTF-8" standalone="no"?>
<!-- Created with Inkscape (http://www.inkscape.org/) -->

<svg
   version="1.1"
   id="svg1"
   width="390.88"
   height="505.88"
   viewBox="0 0 390.88 505.88"
   sodipodi:docname="LeadAcetate.pdf"
   xmlns:inkscape="http://www.inkscape.org/namespaces/inkscape"
   xmlns:sodipodi="http://sodipodi.sourceforge.net/DTD/sodipodi-0.dtd"
   xmlns="http://www.w3.org/2000/svg"
   xmlns:svg="http://www.w3.org/2000/svg">
  <defs
     id="defs1">
    <clipPath
       clipPathUnits="userSpaceOnUse"
       id="clipPath2">
      <path
         d="M 0,0.16 V 1122.5601 H 793.59998 V 0.16 Z"
         transform="translate(-281.28,-560.15997)"
         clip-rule="evenodd"
         id="path2" />
    </clipPath>
    <clipPath
       clipPathUnits="userSpaceOnUse"
       id="clipPath4">
      <path
         d="M 0,0.16 V 1122.5601 H 793.59998 V 0.16 Z"
         clip-rule="evenodd"
         id="path4" />
    </clipPath>
    <clipPath
       clipPathUnits="userSpaceOnUse"
       id="clipPath6">
      <path
         d="M 0,0.16 V 1122.5601 H 793.59998 V 0.16 Z"
         clip-rule="evenodd"
         id="path6" />
    </clipPath>
    <clipPath
       clipPathUnits="userSpaceOnUse"
       id="clipPath8">
      <path
         d="M 0,0.16 V 1122.5601 H 793.59998 V 0.16 Z"
         clip-rule="evenodd"
         id="path8" />
    </clipPath>
    <clipPath
       clipPathUnits="userSpaceOnUse"
       id="clipPath10">
      <path
         d="M 0,0.16 V 1122.5601 H 793.59998 V 0.16 Z"
         clip-rule="evenodd"
         id="path10" />
    </clipPath>
    <clipPath
       clipPathUnits="userSpaceOnUse"
       id="clipPath12">
      <path
         d="M 0,0.16 V 1122.5601 H 793.59998 V 0.16 Z"
         clip-rule="evenodd"
         id="path12" />
    </clipPath>
    <clipPath
       clipPathUnits="userSpaceOnUse"
       id="clipPath14">
      <path
         d="M 0,0.16 V 1122.5601 H 793.59998 V 0.16 Z"
         clip-rule="evenodd"
         id="path14" />
    </clipPath>
  </defs>
  <sodipodi:namedview
     id="namedview1"
     pagecolor="#505050"
     bordercolor="#eeeeee"
     borderopacity="1"
     inkscape:showpageshadow="0"
     inkscape:pageopacity="0"
     inkscape:pagecheckerboard="0"
     inkscape:deskcolor="#505050">
    <inkscape:page
       x="0"
       y="0"
       inkscape:label="1"
       id="page1"
       width="390.88"
       height="505.88"
       margin="0"
       bleed="0" />
  </sodipodi:namedview>
  <g
     id="g1"
     inkscape:groupmode="layer"
     inkscape:label="1">
    <path
       id="path1"
       d="M 0,0 0.16,6.88 0.8,13.92 1.76,20.799999 3.2,27.52 l 1.76,6.720002 2.24,6.719997 2.72,6.400002 2.88,6.239997 3.36,6.080002 3.84,5.919998 4,5.599999 4.48,5.440002 4.799999,5.120003 4.960003,4.799996 5.279998,4.480003 5.599999,4.159996 5.760002,3.840004 6.079998,3.359999 6.239998,3.2 6.400001,2.72 6.560006,2.24 6.719993,1.92 6.880005,1.6 6.879998,1.12 6.88,0.64 6.88,0.16 7.04,-0.16 6.88001,-0.48 6.87999,-0.96 6.88,-1.44 6.72,-1.92 6.56,-2.24 6.56,-2.56 6.24,-3.04 6.08,-3.360004 5.92,-3.679992 L 185.75999,92 l 5.28,-4.32 5.12001,-4.800003 4.80001,-4.959999 4.47999,-5.439995 4.16001,-5.600006 3.83999,-5.759998 3.52001,-6.079998 3.03999,-6.240002 2.72,-6.399997 2.39999,-6.560002 1.92,-6.719999 L 228.48,22.4 l 1.12001,-6.88 0.63999,-6.88 0.32,-7.04 -0.16001,-6.88 -0.64,-7.04 L 228.8,-19.200001 227.36,-25.92 225.60001,-32.639999 223.36,-39.360001 220.64,-45.759998 217.75999,-52 l -3.36,-6.080002 L 210.56,-64 l -4,-5.599998 -4.48,-5.440003 -4.8,-5.120003 -4.95999,-4.799995 -5.28002,-4.480003 -5.59999,-4.159996 -5.92,-3.840004 -5.91999,-3.359998 -6.24001,-3.2 -6.39999,-2.72 -6.56002,-2.24 -6.72,-1.92 -6.87999,-1.6 -6.88,-0.96 -6.88,-0.8 -7.04,-0.16"
       style="fill:none;stroke:#000000;stroke-width:26.4;stroke-linecap:round;stroke-linejoin:round;stroke-miterlimit:10;stroke-dasharray:none;stroke-opacity:1"
       transform="translate(281.28,795.07991)"
       clip-path="url(#clipPath2)" />
    <path
       id="path3"
       d="M 396.64001,447.35999 394.88,216.16"
       style="fill:none;stroke:#000000;stroke-width:26.4;stroke-linecap:round;stroke-linejoin:round;stroke-miterlimit:10;stroke-dasharray:none;stroke-opacity:1"
       transform="translate(0,234.91994)"
       clip-path="url(#clipPath4)" />
    <path
       id="path5"
       d="M 359.04001,334.72 H 510.07999"
       style="fill:none;stroke:#000000;stroke-width:26.4;stroke-linecap:round;stroke-linejoin:round;stroke-miterlimit:10;stroke-dasharray:none;stroke-opacity:1"
       transform="translate(0,234.91994)"
       clip-path="url(#clipPath6)" />
    <path
       id="path7"
       d="M 321.28,334.72 H 170.24"
       style="fill:none;stroke:#000000;stroke-width:26.4;stroke-linecap:round;stroke-linejoin:round;stroke-miterlimit:10;stroke-dasharray:none;stroke-opacity:1"
       transform="translate(0,234.91994)"
       clip-path="url(#clipPath8)" />
    <path
       id="path9"
       d="M 321.28,334.72 170.24,485.76001"
       style="fill:none;stroke:#000000;stroke-width:26.4;stroke-linecap:round;stroke-linejoin:round;stroke-miterlimit:10;stroke-dasharray:none;stroke-opacity:1"
       transform="translate(0,234.91994)"
       clip-path="url(#clipPath10)" />
    <path
       id="path11"
       d="M 170.24,485.76001 H 321.28"
       style="fill:none;stroke:#000000;stroke-width:26.4;stroke-linecap:round;stroke-linejoin:round;stroke-miterlimit:10;stroke-dasharray:none;stroke-opacity:1"
       transform="translate(0,234.91994)"
       clip-path="url(#clipPath12)" />
    <path
       id="path13"
       d="M 321.28,485.76001 359.04001,448"
       style="fill:none;stroke:#000000;stroke-width:26.4;stroke-linecap:round;stroke-linejoin:round;stroke-miterlimit:10;stroke-dasharray:none;stroke-opacity:1"
       transform="translate(0,234.91994)"
       clip-path="url(#clipPath14)" />
  </g>
</svg>
