<?xml version="1.0" encoding="UTF-8" standalone="no"?>
<!-- Created with Inkscape (http://www.inkscape.org/) -->

<svg
   version="1.1"
   id="svg1"
   width="663.01331"
   height="660.71997"
   viewBox="0 0 663.01331 660.71997"
   sodipodi:docname="Lime9.pdf"
   xmlns:inkscape="http://www.inkscape.org/namespaces/inkscape"
   xmlns:sodipodi="http://sodipodi.sourceforge.net/DTD/sodipodi-0.dtd"
   xmlns="http://www.w3.org/2000/svg"
   xmlns:svg="http://www.w3.org/2000/svg">
  <defs
     id="defs1">
    <clipPath
       clipPathUnits="userSpaceOnUse"
       id="clipPath2">
      <path
         d="M 0,0.16 V 1122.5601 H 793.59998 V 0.16 Z"
         transform="translate(-472.64002,-787.84003)"
         clip-rule="evenodd"
         id="path2" />
    </clipPath>
    <clipPath
       clipPathUnits="userSpaceOnUse"
       id="clipPath4">
      <path
         d="M 0,0.16 V 1122.5601 H 793.59998 V 0.16 Z"
         clip-rule="evenodd"
         id="path4" />
    </clipPath>
    <clipPath
       clipPathUnits="userSpaceOnUse"
       id="clipPath6">
      <path
         d="M 0,0.16 V 1122.5601 H 793.59998 V 0.16 Z"
         transform="translate(-95.040001,-561.28003)"
         clip-rule="evenodd"
         id="path6" />
    </clipPath>
    <clipPath
       clipPathUnits="userSpaceOnUse"
       id="clipPath8">
      <path
         d="M 0,0.16 V 1122.5601 H 793.59998 V 0.16 Z"
         transform="translate(-397.12,-259.20001)"
         clip-rule="evenodd"
         id="path8" />
    </clipPath>
    <clipPath
       clipPathUnits="userSpaceOnUse"
       id="clipPath10">
      <path
         d="M 0,0.16 V 1122.5601 H 793.59998 V 0.16 Z"
         clip-rule="evenodd"
         id="path10" />
    </clipPath>
    <clipPath
       clipPathUnits="userSpaceOnUse"
       id="clipPath12">
      <path
         d="M 0,0.16 V 1122.5601 H 793.59998 V 0.16 Z"
         clip-rule="evenodd"
         id="path12" />
    </clipPath>
  </defs>
  <sodipodi:namedview
     id="namedview1"
     pagecolor="#505050"
     bordercolor="#eeeeee"
     borderopacity="1"
     inkscape:showpageshadow="0"
     inkscape:pageopacity="0"
     inkscape:pagecheckerboard="0"
     inkscape:deskcolor="#505050">
    <inkscape:page
       x="0"
       y="0"
       inkscape:label="1"
       id="page1"
       width="663.01331"
       height="660.71997"
       margin="0"
       bleed="0" />
  </sodipodi:namedview>
  <g
     id="g1"
     inkscape:groupmode="layer"
     inkscape:label="1">
    <path
       id="path1"
       d="m 0,0 c 0,-41.700001 -33.810001,-75.519997 -75.519997,-75.519997 -41.710003,0 -75.519993,33.819996 -75.519993,75.519997 0,41.700001 33.80999,75.519997 75.519993,75.519997 C -33.810001,75.519997 0,41.700001 0,0 Z"
       style="fill:none;stroke:#000000;stroke-width:26.4;stroke-linecap:round;stroke-linejoin:round;stroke-miterlimit:10;stroke-dasharray:none;stroke-opacity:1"
       transform="translate(405.93335,560.91997)"
       clip-path="url(#clipPath2)" />
    <path
       id="path3"
       d="M 397.12,561.28003 V 712.32001"
       style="fill:none;stroke:#000000;stroke-width:26.4;stroke-linecap:round;stroke-linejoin:round;stroke-miterlimit:10;stroke-dasharray:none;stroke-opacity:1"
       transform="translate(-66.706667,-226.92006)"
       clip-path="url(#clipPath4)" />
    <path
       id="path5"
       d="m 0,0 14.24,-4.16 14.24,-4.8 13.920002,-5.12 13.919998,-5.6 13.440002,-6.08 13.439995,-6.56 13.120003,-7.040001 12.96,-7.52 12.64,-7.84 12.32,-8.32 12,-8.799995 11.68,-9.280007 11.52,-9.599998 11.04,-9.919999 10.72,-10.4 10.24,-10.72 10.08,-11.04 9.59999,-11.36 9.12001,-11.68 8.79999,-12.16 8.32001,-12.32001 8,-12.64 7.36,-12.79998 7.04001,-13.12001 6.56,-13.44001 6.07998,-13.59999 5.76001,-13.75999 5.12,-13.92002 4.64001,-14.23999 4.15998,-14.23999"
       style="fill:none;stroke:#000000;stroke-width:26.4;stroke-linecap:round;stroke-linejoin:round;stroke-miterlimit:10;stroke-dasharray:none;stroke-opacity:1"
       transform="translate(28.333334,334.35997)"
       clip-path="url(#clipPath6)" />
    <path
       id="path7"
       d="M 0,0 4.16,14.24 8.8,28.48 13.92,42.400002 19.52,56.16 25.76,69.760002 32.32,83.199997 39.360001,96.32 l 7.36,12.8 8,12.64 8.32,12.32 8.799995,12.16 9.120003,11.68 9.599999,11.36 10.080002,11.04001 10.24,10.71998 10.72,10.40001 11.04,9.92 11.52,9.60001 11.68,9.27999 12,8.79999 12.32,8.32001 12.64,7.84 12.95999,7.52 13.12001,7.04001 13.28,6.56 13.59999,6.07998 13.92,5.60001 13.92002,5.12 14.07998,4.80001 14.4,4.15998"
       style="fill:none;stroke:#000000;stroke-width:26.4;stroke-linecap:round;stroke-linejoin:round;stroke-miterlimit:10;stroke-dasharray:none;stroke-opacity:1"
       transform="translate(330.41333,32.279953)"
       clip-path="url(#clipPath8)" />
    <path
       id="path9"
       d="M 397.12,561.28003 286.23999,450.23999"
       style="fill:none;stroke:#000000;stroke-width:26.4;stroke-linecap:round;stroke-linejoin:round;stroke-miterlimit:10;stroke-dasharray:none;stroke-opacity:1"
       transform="translate(-66.706667,-226.92006)"
       clip-path="url(#clipPath10)" />
    <path
       id="path11"
       d="M 397.12,561.28003 508,450.23999"
       style="fill:none;stroke:#000000;stroke-width:26.4;stroke-linecap:round;stroke-linejoin:round;stroke-miterlimit:10;stroke-dasharray:none;stroke-opacity:1"
       transform="translate(-66.706667,-226.92006)"
       clip-path="url(#clipPath12)" />
  </g>
</svg>
