<?xml version="1.0" encoding="UTF-8" standalone="no"?>
<!-- Created with Inkscape (http://www.inkscape.org/) -->

<svg
   version="1.1"
   id="svg1"
   width="510.93332"
   height="288.30667"
   viewBox="0 0 510.93332 288.30667"
   sodipodi:docname="Litharge4.pdf"
   xmlns:inkscape="http://www.inkscape.org/namespaces/inkscape"
   xmlns:sodipodi="http://sodipodi.sourceforge.net/DTD/sodipodi-0.dtd"
   xmlns="http://www.w3.org/2000/svg"
   xmlns:svg="http://www.w3.org/2000/svg">
  <defs
     id="defs1">
    <clipPath
       clipPathUnits="userSpaceOnUse"
       id="clipPath2">
      <path
         d="M 0,0.16 V 1122.5601 H 793.59998 V 0.16 Z"
         clip-rule="evenodd"
         id="path2" />
    </clipPath>
    <clipPath
       clipPathUnits="userSpaceOnUse"
       id="clipPath4">
      <path
         d="M 0,0.16 V 1122.5601 H 793.59998 V 0.16 Z"
         clip-rule="evenodd"
         id="path4" />
    </clipPath>
    <clipPath
       clipPathUnits="userSpaceOnUse"
       id="clipPath6">
      <path
         d="M 0,0.16 V 1122.5601 H 793.59998 V 0.16 Z"
         clip-rule="evenodd"
         id="path6" />
    </clipPath>
    <clipPath
       clipPathUnits="userSpaceOnUse"
       id="clipPath8">
      <path
         d="M 0,0.16 V 1122.5601 H 793.59998 V 0.16 Z"
         transform="translate(-547.84003,-523.52002)"
         clip-rule="evenodd"
         id="path8" />
    </clipPath>
    <clipPath
       clipPathUnits="userSpaceOnUse"
       id="clipPath10">
      <path
         d="M 0,0.16 V 1122.5601 H 793.59998 V 0.16 Z"
         transform="translate(-547.84003,-523.52002)"
         clip-rule="evenodd"
         id="path10" />
    </clipPath>
  </defs>
  <sodipodi:namedview
     id="namedview1"
     pagecolor="#505050"
     bordercolor="#eeeeee"
     borderopacity="1"
     inkscape:showpageshadow="0"
     inkscape:pageopacity="0"
     inkscape:pagecheckerboard="0"
     inkscape:deskcolor="#505050">
    <inkscape:page
       x="0"
       y="0"
       inkscape:label="1"
       id="page1"
       width="510.93332"
       height="288.30667"
       margin="0"
       bleed="0" />
  </sodipodi:namedview>
  <g
     id="g1"
     inkscape:groupmode="layer"
     inkscape:label="1">
    <path
       id="path1"
       d="m 245.75999,523.52002 v 226.56"
       style="fill:none;stroke:#000000;stroke-width:26.4;stroke-linecap:round;stroke-linejoin:round;stroke-miterlimit:10;stroke-dasharray:none;stroke-opacity:1"
       transform="translate(-66.706667,-496.54673)"
       clip-path="url(#clipPath2)" />
    <path
       id="path3"
       d="m 245.75999,523.52002 -151.039989,226.56"
       style="fill:none;stroke:#000000;stroke-width:26.4;stroke-linecap:round;stroke-linejoin:round;stroke-miterlimit:10;stroke-dasharray:none;stroke-opacity:1"
       transform="translate(-66.706667,-496.54673)"
       clip-path="url(#clipPath4)" />
    <path
       id="path5"
       d="m 245.75999,523.52002 151.04,226.56"
       style="fill:none;stroke:#000000;stroke-width:26.4;stroke-linecap:round;stroke-linejoin:round;stroke-miterlimit:10;stroke-dasharray:none;stroke-opacity:1"
       transform="translate(-66.706667,-496.54673)"
       clip-path="url(#clipPath6)" />
    <path
       id="path7"
       d="M 0,0 -9.28,2.56 -18.4,5.6 -27.360001,8.96 -36.16,12.8 l -8.639999,4.320001 -8.48,4.639999 -8.16,5.119999 -8.000003,5.440001 -7.680001,5.760002 -7.36,6.239998 -7.039994,6.560001 -6.720001,6.879997 -6.560002,7.200001 -6.08,7.360001 -5.6,7.840004 -5.44,8 -4.96,8.159996 -4.48,8.64 -4.16,8.64 -3.84,8.8 -3.2,9.12 -2.88,9.12 -2.4,9.44 -2.08,9.44 -1.44,9.44001 -1.12,9.59999 -0.63999,9.6 -0.16001,9.59999 0.31999,9.60001 0.80001,9.60001 1.12001,9.59999"
       style="fill:none;stroke:#000000;stroke-width:26.4;stroke-linecap:round;stroke-linejoin:round;stroke-miterlimit:10;stroke-dasharray:none;stroke-opacity:1"
       transform="translate(481.13336,26.973295)"
       clip-path="url(#clipPath8)" />
    <path
       id="path9"
       d="m 0,0 -7.84,7.52 -7.68,7.68 -7.199999,8.160001 L -29.6,31.68 -36,40.48 -42.080002,49.439999 -47.68,58.720001 -52.959999,68.32 -57.759998,78.080002 -62.080002,88 l -4,10.080002 -3.36,10.399998 -3.040001,10.4 -2.399994,10.56 -2.080002,10.72 -1.440003,10.72 -1.119995,10.87999 L -80,172.48 l -0.160004,10.88 0.480004,10.88 0.959999,10.87999 1.279999,10.72001 1.920005,10.72"
       style="fill:none;stroke:#000000;stroke-width:26.4;stroke-linecap:round;stroke-linejoin:round;stroke-miterlimit:10;stroke-dasharray:none;stroke-opacity:1"
       transform="translate(481.13336,26.973295)"
       clip-path="url(#clipPath10)" />
  </g>
</svg>
