<?xml version="1.0" encoding="UTF-8" standalone="no"?>
<!-- Created with Inkscape (http://www.inkscape.org/) -->

<svg
   version="1.1"
   id="svg1"
   width="558.96002"
   height="369.73334"
   viewBox="0 0 558.96002 369.73334"
   sodipodi:docname="Litharge6.pdf"
   xmlns:inkscape="http://www.inkscape.org/namespaces/inkscape"
   xmlns:sodipodi="http://sodipodi.sourceforge.net/DTD/sodipodi-0.dtd"
   xmlns="http://www.w3.org/2000/svg"
   xmlns:svg="http://www.w3.org/2000/svg">
  <defs
     id="defs1">
    <clipPath
       clipPathUnits="userSpaceOnUse"
       id="clipPath2">
      <path
         d="M 0,0.16 V 1122.5601 H 793.59998 V 0.16 Z"
         transform="translate(-649.12,-484.32001)"
         clip-rule="evenodd"
         id="path2" />
    </clipPath>
    <clipPath
       clipPathUnits="userSpaceOnUse"
       id="clipPath4">
      <path
         d="M 0,0.16 V 1122.5601 H 793.59998 V 0.16 Z"
         transform="translate(-649.12,-484.32001)"
         clip-rule="evenodd"
         id="path4" />
    </clipPath>
    <clipPath
       clipPathUnits="userSpaceOnUse"
       id="clipPath6">
      <path
         d="M 0,0.16 V 1122.5601 H 793.59998 V 0.16 Z"
         clip-rule="evenodd"
         id="path6" />
    </clipPath>
    <clipPath
       clipPathUnits="userSpaceOnUse"
       id="clipPath8">
      <path
         d="M 0,0.16 V 1122.5601 H 793.59998 V 0.16 Z"
         clip-rule="evenodd"
         id="path8" />
    </clipPath>
    <clipPath
       clipPathUnits="userSpaceOnUse"
       id="clipPath10">
      <path
         d="M 0,0.16 V 1122.5601 H 793.59998 V 0.16 Z"
         clip-rule="evenodd"
         id="path10" />
    </clipPath>
  </defs>
  <sodipodi:namedview
     id="namedview1"
     pagecolor="#505050"
     bordercolor="#eeeeee"
     borderopacity="1"
     inkscape:showpageshadow="0"
     inkscape:pageopacity="0"
     inkscape:pagecheckerboard="0"
     inkscape:deskcolor="#505050">
    <inkscape:page
       x="0"
       y="0"
       inkscape:label="1"
       id="page1"
       width="558.96002"
       height="369.73334"
       margin="0"
       bleed="0" />
  </sodipodi:namedview>
  <g
     id="g1"
     inkscape:groupmode="layer"
     inkscape:label="1">
    <path
       id="path1"
       d="m 0,0 -8,2.56 -8,3.04 -7.68,3.36 -7.520001,3.84 -7.200001,4.320001 L -45.599998,21.6 -52.32,26.719999 -58.880001,32 l -6.240002,5.759998 -5.919998,5.920002 -5.599998,6.400002 -5.279999,6.559997 -4.800003,6.880001 -4.479996,7.200001 -4.160004,7.360001 -3.68,7.519996 -3.359999,7.680001 -2.88,8.000001 -2.4,8 -2.08,8.32 -1.44,8.16 -1.28,8.48 -0.64,8.32 -0.16,8.47999 0.16,8.48001 0.64,8.32 1.28,8.32 1.44,8.32 2.08,8.16 2.4,8.16 2.88,7.84 3.359999,7.84 3.68,7.52 4.160004,7.36 4.479996,7.2 4.800003,6.88 5.279999,6.56 5.599998,6.39999 5.919998,5.92002 6.240002,5.75998 6.560001,5.28 6.720002,4.96002 7.199996,4.63998 7.200001,4.32001 7.520001,3.84 7.68,3.36001 8,3.03998 8,2.56"
       style="fill:none;stroke:#000000;stroke-width:26.4;stroke-linecap:round;stroke-linejoin:round;stroke-miterlimit:10;stroke-dasharray:none;stroke-opacity:1"
       transform="translate(527.72,35.826615)"
       clip-path="url(#clipPath2)" />
    <path
       id="path3"
       d="m 0,0 -5.76,11.2 -5.28,11.359999 -4.8,11.680003 -4.32,11.84 -3.84,12 -3.360001,12 -3.039999,12.32 -2.399999,12.319999 L -34.720001,107.2 -36.32,119.68 l -0.959999,12.48 -0.479999,12.64 v 12.48 l 0.479999,12.64 0.959999,12.47999 1.599999,12.48001 1.920002,12.48 L -30.4,219.67999 -27.360001,231.84 -24,244 l 3.84,12 4.32,11.84 4.8,11.51999 L -5.76,290.88 0,302.07999"
       style="fill:none;stroke:#000000;stroke-width:26.4;stroke-linecap:round;stroke-linejoin:round;stroke-miterlimit:10;stroke-dasharray:none;stroke-opacity:1"
       transform="translate(527.72,35.826615)"
       clip-path="url(#clipPath4)" />
    <path
       id="path5"
       d="M 464.95999,476.64001 144.64,796.96002"
       style="fill:none;stroke:#000000;stroke-width:26.4;stroke-linecap:round;stroke-linejoin:round;stroke-miterlimit:10;stroke-dasharray:none;stroke-opacity:1"
       transform="translate(-121.4,-448.49339)"
       clip-path="url(#clipPath6)" />
    <path
       id="path7"
       d="M 464.95999,476.64001 H 251.36"
       style="fill:none;stroke:#000000;stroke-width:26.4;stroke-linecap:round;stroke-linejoin:round;stroke-miterlimit:10;stroke-dasharray:none;stroke-opacity:1"
       transform="translate(-121.4,-448.49339)"
       clip-path="url(#clipPath8)" />
    <path
       id="path9"
       d="M 464.95999,476.64001 V 690.23999"
       style="fill:none;stroke:#000000;stroke-width:26.4;stroke-linecap:round;stroke-linejoin:round;stroke-miterlimit:10;stroke-dasharray:none;stroke-opacity:1"
       transform="translate(-121.4,-448.49339)"
       clip-path="url(#clipPath10)" />
  </g>
</svg>
