<?xml version="1.0" encoding="UTF-8" standalone="no"?>
<!-- Created with Inkscape (http://www.inkscape.org/) -->

<svg
   version="1.1"
   id="svg1"
   width="530.96002"
   height="521.90668"
   viewBox="0 0 530.96002 521.90668"
   sodipodi:docname="Magnesia4.pdf"
   xmlns:inkscape="http://www.inkscape.org/namespaces/inkscape"
   xmlns:sodipodi="http://sodipodi.sourceforge.net/DTD/sodipodi-0.dtd"
   xmlns="http://www.w3.org/2000/svg"
   xmlns:svg="http://www.w3.org/2000/svg">
  <defs
     id="defs1">
    <clipPath
       clipPathUnits="userSpaceOnUse"
       id="clipPath2">
      <path
         d="M 0,0.16 V 1122.5601 H 793.59998 V 0.16 Z"
         transform="translate(-634.71997,-580.15998)"
         clip-rule="evenodd"
         id="path2" />
    </clipPath>
    <clipPath
       clipPathUnits="userSpaceOnUse"
       id="clipPath4">
      <path
         d="M 0,0.16 V 1122.5601 H 793.59998 V 0.16 Z"
         transform="translate(-396.79999,-342.23999)"
         clip-rule="evenodd"
         id="path4" />
    </clipPath>
    <clipPath
       clipPathUnits="userSpaceOnUse"
       id="clipPath6">
      <path
         d="M 0,0.16 V 1122.5601 H 793.59998 V 0.16 Z"
         transform="translate(-396.79999,-659.52002)"
         clip-rule="evenodd"
         id="path6" />
    </clipPath>
    <clipPath
       clipPathUnits="userSpaceOnUse"
       id="clipPath8">
      <path
         d="M 0,0.16 V 1122.5601 H 793.59998 V 0.16 Z"
         transform="translate(-396.79999,-659.52002)"
         clip-rule="evenodd"
         id="path8" />
    </clipPath>
  </defs>
  <sodipodi:namedview
     id="namedview1"
     pagecolor="#505050"
     bordercolor="#eeeeee"
     borderopacity="1"
     inkscape:showpageshadow="0"
     inkscape:pageopacity="0"
     inkscape:pagecheckerboard="0"
     inkscape:deskcolor="#505050">
    <inkscape:page
       x="0"
       y="0"
       inkscape:label="1"
       id="page1"
       width="530.96002"
       height="521.90668"
       margin="0"
       bleed="0" />
  </sodipodi:namedview>
  <g
     id="g1"
     inkscape:groupmode="layer"
     inkscape:label="1">
    <path
       id="path1"
       d="m 0,0 c 0,-131.39 -106.48,-237.92 -237.84,-237.92 -131.36001,0 -237.83999,106.53 -237.83999,237.92 0,131.39 106.47998,237.92 237.83999,237.92 C -106.48,237.92 0,131.39 0,0 Z"
       style="fill:none;stroke:#000000;stroke-width:26.4;stroke-linecap:round;stroke-linejoin:round;stroke-miterlimit:10;stroke-dasharray:none;stroke-opacity:1"
       transform="translate(634.71997,537.45325)"
       clip-path="url(#clipPath2)" />
    <path
       id="path3"
       d="M 0,0 -5.6,0.32 -11.2,0.8 -16.799999,1.92 -22.24,3.2 l -5.44,1.92 -5.279999,2.08 -4.959999,2.56 -4.960003,2.88 -4.639999,3.2 -4.32,3.520001 -4.16,4 -3.84,4 -3.520001,4.479999 -3.36,4.64 -2.879997,4.799999 L -72,46.400002 -74.239998,51.68 -76,56.959999 l -1.440002,5.600002 -0.96,5.439999 -0.639999,5.760002 -0.159996,5.599999 0.159996,5.599998 0.639999,5.760002 0.96,5.440003 L -76,101.76 l 1.760002,5.28 2.239998,5.28 2.400002,4.96 2.879997,4.96 3.36,4.64 3.520001,4.48 3.84,4 4.16,4 4.32,3.52 4.639999,3.2 4.960003,2.88001 4.959999,2.55999 5.279999,2.08001 5.44,1.75999 5.440001,1.44 5.599999,1.12 5.6,0.47999 L 0,158.72"
       style="fill:none;stroke:#000000;stroke-width:26.4;stroke-linecap:round;stroke-linejoin:round;stroke-miterlimit:10;stroke-dasharray:none;stroke-opacity:1"
       transform="translate(396.79999,299.53326)"
       clip-path="url(#clipPath4)" />
    <path
       id="path5"
       d="M 0,0 5.76,-0.32 11.52,-0.8 17.120001,-1.92 22.719999,-3.36 28,-5.12 l 5.279999,-2.24 5.120003,-2.56 4.959999,-3.04 4.639999,-3.2 4.48,-3.68 4.159999,-4 L 60.48,-28 64,-32.48 l 3.199997,-4.799999 2.880005,-4.960003 2.559997,-5.119999 2.080002,-5.279998 1.760002,-5.440003 1.279999,-5.599998 0.959999,-5.760002 0.479996,-5.599999 0.160004,-5.760002 -0.32,-5.759995 -0.800003,-5.600006 -1.119995,-5.599998 L 75.68,-103.36 l -1.919998,-5.28 -2.400001,-5.28 -2.720002,-5.12 -3.040001,-4.8 -3.359996,-4.64 -3.680001,-4.32 -4,-4.16001 -4.319999,-3.67999 -4.480004,-3.52 -4.799999,-3.2 -5.119999,-2.72 -5.120001,-2.4 -5.439998,-2.08 -5.440001,-1.6 -5.6,-1.12 -5.6,-0.96"
       style="fill:none;stroke:#000000;stroke-width:26.4;stroke-linecap:round;stroke-linejoin:round;stroke-miterlimit:10;stroke-dasharray:none;stroke-opacity:1"
       transform="translate(396.79999,616.81329)"
       clip-path="url(#clipPath6)" />
    <path
       id="path7"
       d="M 0,0 -5.6,0.16 -11.2,0.8 -16.799999,1.76 -22.24,3.2 l -5.44,1.76 -5.279999,2.08 -4.959999,2.56 -4.960003,2.88 -4.639999,3.36 -4.32,3.520001 -4.16,3.84 -3.84,4.16 -3.520001,4.319999 -3.36,4.64 -2.879997,4.959999 L -72,46.240002 -74.239998,51.52 -76,56.959999 l -1.440002,5.440003 -0.96,5.599998 -0.639999,5.599998 -0.159996,5.599999 0.159996,5.760002 0.639999,5.599999 0.96,5.600006 L -76,101.6 l 1.760002,5.28 2.239998,5.28 2.400002,5.12 2.879997,4.8 3.36,4.64 3.520001,4.48 3.84,4.16 4.16,3.84 4.32,3.52 4.639999,3.2 4.960003,2.88 4.959999,2.56 5.279999,2.24001 5.44,1.75999 5.440001,1.28 5.599999,1.11999 5.6,0.64 L 0,158.56"
       style="fill:none;stroke:#000000;stroke-width:26.4;stroke-linecap:round;stroke-linejoin:round;stroke-miterlimit:10;stroke-dasharray:none;stroke-opacity:1"
       transform="translate(396.79999,616.81329)"
       clip-path="url(#clipPath8)" />
  </g>
</svg>
