<?xml version="1.0" encoding="UTF-8" standalone="no"?>
<!-- Created with Inkscape (http://www.inkscape.org/) -->

<svg
   version="1.1"
   id="svg1"
   width="602.98669"
   height="285.64001"
   viewBox="0 0 602.98669 285.64001"
   sodipodi:docname="Magnesia8.pdf"
   xmlns:inkscape="http://www.inkscape.org/namespaces/inkscape"
   xmlns:sodipodi="http://sodipodi.sourceforge.net/DTD/sodipodi-0.dtd"
   xmlns="http://www.w3.org/2000/svg"
   xmlns:svg="http://www.w3.org/2000/svg">
  <defs
     id="defs1">
    <clipPath
       clipPathUnits="userSpaceOnUse"
       id="clipPath2">
      <path
         d="M 0,0.16 V 1122.5601 H 793.59998 V 0.16 Z"
         transform="translate(-113.92,-660.32001)"
         clip-rule="evenodd"
         id="path2" />
    </clipPath>
    <clipPath
       clipPathUnits="userSpaceOnUse"
       id="clipPath4">
      <path
         d="M 0,0.16 V 1122.5601 H 793.59998 V 0.16 Z"
         clip-rule="evenodd"
         id="path4" />
    </clipPath>
    <clipPath
       clipPathUnits="userSpaceOnUse"
       id="clipPath6">
      <path
         d="M 0,0.16 V 1122.5601 H 793.59998 V 0.16 Z"
         clip-rule="evenodd"
         id="path6" />
    </clipPath>
    <clipPath
       clipPathUnits="userSpaceOnUse"
       id="clipPath8">
      <path
         d="M 0,0.16 V 1122.5601 H 793.59998 V 0.16 Z"
         clip-rule="evenodd"
         id="path8" />
    </clipPath>
    <clipPath
       clipPathUnits="userSpaceOnUse"
       id="clipPath10">
      <path
         d="M 0,0.16 V 1122.5601 H 793.59998 V 0.16 Z"
         clip-rule="evenodd"
         id="path10" />
    </clipPath>
  </defs>
  <sodipodi:namedview
     id="namedview1"
     pagecolor="#505050"
     bordercolor="#eeeeee"
     borderopacity="1"
     inkscape:showpageshadow="0"
     inkscape:pageopacity="0"
     inkscape:pagecheckerboard="0"
     inkscape:deskcolor="#505050">
    <inkscape:page
       x="0"
       y="0"
       inkscape:label="1"
       id="page1"
       width="602.98669"
       height="285.64001"
       margin="0"
       bleed="0" />
  </sodipodi:namedview>
  <g
     id="g1"
     inkscape:groupmode="layer"
     inkscape:label="1">
    <path
       id="path1"
       d="m 0,0 7.52,3.52 8,3.52 8.16,3.2 8.48,3.04 8.799999,2.88 8.959999,2.719999 9.280003,2.400002 9.439998,2.239999 9.760003,1.920001 9.760002,1.76 10.079994,1.599998 L 108.32,30.08 118.56,31.200001 128.96001,32 139.36,32.639999 l 10.39999,0.32 10.40001,0.16 10.56,-0.16 10.39999,-0.32 L 191.52,32 201.92,31.200001 212.16,30.08 l 10.08,-1.280001 9.92,-1.599998 9.92,-1.76 9.59999,-1.920001 9.44001,-2.239999 9.27999,-2.400002 9.12,-2.719999 8.80002,-2.88 8.47998,-3.04 8.16,-3.2 7.84,-3.52 7.68002,-3.52 7.19998,-3.84 6.88001,-4 6.39999,-4 6.08002,-4.32 5.75998,-4.32 5.28,-4.479999 4.96002,-4.640001 4.47998,-4.800002 4,-4.799999 3.52002,-4.959999 3.03998,-4.959999 2.72,-5.120003 2.08001,-5.119999 1.76001,-5.120002 1.12,-5.279999 0.79999,-5.119995 0.16,-5.280007 -0.16,-5.279998 -0.79999,-5.119996 -1.12,-5.279998 -1.76001,-5.120004 -2.08001,-5.12 -2.72,-5.12 -3.03998,-4.96 -3.52002,-4.96 -4,-4.8 -4.47998,-4.64 -4.96002,-4.64 -5.28,-4.64 -5.75998,-4.32 -6.08002,-4.32 -6.39999,-4 -6.88001,-4 -7.19998,-3.68 -7.68002,-3.68 -7.84,-3.52 -8.16,-3.2 -8.47998,-3.04001 -8.80002,-2.87999 -9.12,-2.55999 -9.27999,-2.56002 -9.44001,-2.23999 -9.59999,-1.91999 -9.92,-1.76001 -9.92,-1.59999 -10.08,-1.28 -10.24,-1.12001 -10.4,-0.80001 -10.40001,-0.64 -10.39999,-0.31999 -10.56,-0.16"
       style="fill:none;stroke:#000000;stroke-width:26.4;stroke-linecap:round;stroke-linejoin:round;stroke-miterlimit:10;stroke-dasharray:none;stroke-opacity:1"
       transform="translate(113.92,629.61328)"
       clip-path="url(#clipPath2)" />
    <path
       id="path3"
       d="M 274.07999,466.88 V 693.44"
       style="fill:none;stroke:#000000;stroke-width:26.4;stroke-linecap:round;stroke-linejoin:round;stroke-miterlimit:10;stroke-dasharray:none;stroke-opacity:1"
       transform="translate(0,-30.706725)"
       clip-path="url(#clipPath4)" />
    <path
       id="path5"
       d="M 349.60001,580.15997 H 651.67999"
       style="fill:none;stroke:#000000;stroke-width:26.4;stroke-linecap:round;stroke-linejoin:round;stroke-miterlimit:10;stroke-dasharray:none;stroke-opacity:1"
       transform="translate(0,-30.706725)"
       clip-path="url(#clipPath6)" />
    <path
       id="path7"
       d="M 104.16,617.91998 V 693.44"
       style="fill:none;stroke:#000000;stroke-width:26.4;stroke-linecap:round;stroke-linejoin:round;stroke-miterlimit:10;stroke-dasharray:none;stroke-opacity:1"
       transform="translate(0,-30.706725)"
       clip-path="url(#clipPath8)" />
    <path
       id="path9"
       d="m 651.67999,542.40002 v 75.51996"
       style="fill:none;stroke:#000000;stroke-width:26.4;stroke-linecap:round;stroke-linejoin:round;stroke-miterlimit:10;stroke-dasharray:none;stroke-opacity:1"
       transform="translate(0,-30.706725)"
       clip-path="url(#clipPath10)" />
  </g>
</svg>
