<?xml version="1.0" encoding="UTF-8" standalone="no"?>
<!-- Created with Inkscape (http://www.inkscape.org/) -->

<svg
   version="1.1"
   id="svg1"
   width="268.13333"
   height="547.26666"
   viewBox="0 0 268.13333 547.26666"
   sodipodi:docname="MercuryOfLead3.pdf"
   xmlns:inkscape="http://www.inkscape.org/namespaces/inkscape"
   xmlns:sodipodi="http://sodipodi.sourceforge.net/DTD/sodipodi-0.dtd"
   xmlns="http://www.w3.org/2000/svg"
   xmlns:svg="http://www.w3.org/2000/svg">
  <defs
     id="defs1">
    <clipPath
       clipPathUnits="userSpaceOnUse"
       id="clipPath2">
      <path
         d="M 0,0.16 V 1122.5601 H 793.59998 V 0.16 Z"
         transform="translate(-493.12,-585.44)"
         clip-rule="evenodd"
         id="path2" />
    </clipPath>
    <clipPath
       clipPathUnits="userSpaceOnUse"
       id="clipPath4">
      <path
         d="M 0,0.16 V 1122.5601 H 793.59998 V 0.16 Z"
         clip-rule="evenodd"
         id="path4" />
    </clipPath>
    <clipPath
       clipPathUnits="userSpaceOnUse"
       id="clipPath6">
      <path
         d="M 0,0.16 V 1122.5601 H 793.59998 V 0.16 Z"
         clip-rule="evenodd"
         id="path6" />
    </clipPath>
    <clipPath
       clipPathUnits="userSpaceOnUse"
       id="clipPath8">
      <path
         d="M 0,0.16 V 1122.5601 H 793.59998 V 0.16 Z"
         transform="translate(-302.88,-395.20001)"
         clip-rule="evenodd"
         id="path8" />
    </clipPath>
    <clipPath
       clipPathUnits="userSpaceOnUse"
       id="clipPath10">
      <path
         d="M 0,0.16 V 1122.5601 H 793.59998 V 0.16 Z"
         clip-rule="evenodd"
         id="path10" />
    </clipPath>
    <clipPath
       clipPathUnits="userSpaceOnUse"
       id="clipPath12">
      <path
         d="M 0,0.16 V 1122.5601 H 793.59998 V 0.16 Z"
         clip-rule="evenodd"
         id="path12" />
    </clipPath>
    <clipPath
       clipPathUnits="userSpaceOnUse"
       id="clipPath14">
      <path
         d="M 0,0.16 V 1122.5601 H 793.59998 V 0.16 Z"
         transform="translate(-396.79999,-802.88001)"
         clip-rule="evenodd"
         id="path14" />
    </clipPath>
  </defs>
  <sodipodi:namedview
     id="namedview1"
     pagecolor="#505050"
     bordercolor="#eeeeee"
     borderopacity="1"
     inkscape:showpageshadow="0"
     inkscape:pageopacity="0"
     inkscape:pagecheckerboard="0"
     inkscape:deskcolor="#505050">
    <inkscape:page
       x="0"
       y="0"
       inkscape:label="1"
       id="page1"
       width="268.13333"
       height="547.26666"
       margin="0"
       bleed="0" />
  </sodipodi:namedview>
  <g
     id="g1"
     inkscape:groupmode="layer"
     inkscape:label="1">
    <path
       id="path1"
       d="M 0,0 C 0,-52.57 -42.580002,-95.199997 -95.120003,-95.199997 -147.66,-95.199997 -190.24,-52.57 -190.24,0 c 0,52.57 42.58,95.199997 95.119997,95.199997 C -42.580002,95.199997 0,52.57 0,0 Z"
       style="fill:none;stroke:#000000;stroke-width:26.4;stroke-linecap:round;stroke-linejoin:round;stroke-miterlimit:10;stroke-dasharray:none;stroke-opacity:1"
       transform="translate(493.12,434.59994)"
       clip-path="url(#clipPath2)" />
    <path
       id="path3"
       d="M 397.92001,680.64001 V 802.88"
       style="fill:none;stroke:#000000;stroke-width:26.4;stroke-linecap:round;stroke-linejoin:round;stroke-miterlimit:10;stroke-dasharray:none;stroke-opacity:1"
       transform="translate(0,-150.84006)"
       clip-path="url(#clipPath4)" />
    <path
       id="path5"
       d="M 291.20001,746.23999 H 502.56"
       style="fill:none;stroke:#000000;stroke-width:26.4;stroke-linecap:round;stroke-linejoin:round;stroke-miterlimit:10;stroke-dasharray:none;stroke-opacity:1"
       transform="translate(0,-150.84006)"
       clip-path="url(#clipPath6)" />
    <path
       id="path7"
       d="m 0,0 0.16,6.24 0.64,6.08 0.96,6.239999 1.44,6.08 1.76,5.92 L 7.2,36.32 9.76,42.080002 12.64,47.52 16,52.799999 l 3.68,5.119999 3.84,4.800003 4.32,4.479996 4.48,4.32 4.799999,4 5.120003,3.520004 5.279998,3.360001 5.439999,2.879997 5.760002,2.559997 5.760002,2.240006 5.919999,1.759994 6.080001,1.440003 6.239998,0.959999 6.239998,0.639999 6.080002,0.160004 6.239999,-0.160004 6.24,-0.639999 6.08,-0.959999 6.08,-1.440003 6.08,-1.759994 5.76,-2.240006 5.59999,-2.559997 5.60001,-2.879997 5.28,-3.360001 4.96001,-3.520004 4.79998,-4 4.64,-4.32 4.16001,-4.479996 4,-4.800003 3.68,-5.119999 3.2,-5.279999 3.04,-5.439998 2.55999,-5.760002 2.24001,-5.760001 1.75999,-5.92 1.44001,-6.08 L 189.44,12.32 190.08,6.24 190.24,0"
       style="fill:none;stroke:#000000;stroke-width:26.4;stroke-linecap:round;stroke-linejoin:round;stroke-miterlimit:10;stroke-dasharray:none;stroke-opacity:1"
       transform="translate(302.88,244.35995)"
       clip-path="url(#clipPath8)" />
    <path
       id="path9"
       d="m 396.79999,802.88 h 75.52002"
       style="fill:none;stroke:#000000;stroke-width:26.4;stroke-linecap:round;stroke-linejoin:round;stroke-miterlimit:10;stroke-dasharray:none;stroke-opacity:1"
       transform="translate(0,-150.84006)"
       clip-path="url(#clipPath10)" />
    <path
       id="path11"
       d="m 472.32001,802.88 v 75.52002"
       style="fill:none;stroke:#000000;stroke-width:26.4;stroke-linecap:round;stroke-linejoin:round;stroke-miterlimit:10;stroke-dasharray:none;stroke-opacity:1"
       transform="translate(0,-150.84006)"
       clip-path="url(#clipPath12)" />
    <path
       id="path13"
       d="M 0,0 -3.36,0.16 -6.88,0.64 -10.24,1.44 -13.6,2.56 -16.799999,4 -19.84,5.76 l -2.879999,1.92 -2.720002,2.24 -2.399999,2.4 -2.24,2.72 -1.92,2.88 -1.759998,3.039999 -1.440003,3.200001 -1.119999,3.36 -0.799999,3.359999 -0.479999,3.520003 -0.16,3.359996 0.16,3.520001 0.479999,3.52 L -36.32,48.16 l 1.119999,3.36 1.440003,3.200001 1.759998,3.039997 1.92,2.880001 2.24,2.560002 2.399999,2.560001 L -22.719999,68 -19.84,69.919998 -16.799999,71.68 -13.6,72.959999 l 3.36,1.120003 3.36,0.799995 3.52,0.480004 3.36,0.159996"
       style="fill:none;stroke:#000000;stroke-width:26.4;stroke-linecap:round;stroke-linejoin:round;stroke-miterlimit:10;stroke-dasharray:none;stroke-opacity:1"
       transform="translate(396.79999,652.03995)"
       clip-path="url(#clipPath14)" />
  </g>
</svg>
