<?xml version="1.0" encoding="UTF-8" standalone="no"?>
<!-- Created with Inkscape (http://www.inkscape.org/) -->

<svg
   version="1.1"
   id="svg1"
   width="429.56"
   height="349.70667"
   viewBox="0 0 429.56 349.70667"
   sodipodi:docname="Minium11.pdf"
   xmlns:inkscape="http://www.inkscape.org/namespaces/inkscape"
   xmlns:sodipodi="http://sodipodi.sourceforge.net/DTD/sodipodi-0.dtd"
   xmlns="http://www.w3.org/2000/svg"
   xmlns:svg="http://www.w3.org/2000/svg">
  <defs
     id="defs1">
    <clipPath
       clipPathUnits="userSpaceOnUse"
       id="clipPath2">
      <path
         d="M 0,0.16 V 1122.5601 H 793.59998 V 0.16 Z"
         transform="translate(-3.3333333e-6)"
         clip-rule="evenodd"
         id="path2" />
    </clipPath>
    <clipPath
       clipPathUnits="userSpaceOnUse"
       id="clipPath4">
      <path
         d="M 0,0.16 V 1122.5601 H 793.59998 V 0.16 Z"
         transform="translate(-3.3333333e-6)"
         clip-rule="evenodd"
         id="path4" />
    </clipPath>
    <clipPath
       clipPathUnits="userSpaceOnUse"
       id="clipPath6">
      <path
         d="M 0,0.16 V 1122.5601 H 793.59998 V 0.16 Z"
         transform="translate(-3.3333333e-6)"
         clip-rule="evenodd"
         id="path6" />
    </clipPath>
    <clipPath
       clipPathUnits="userSpaceOnUse"
       id="clipPath8">
      <path
         d="M 0,0.16 V 1122.5601 H 793.59998 V 0.16 Z"
         transform="translate(-547.84002,-787.84003)"
         clip-rule="evenodd"
         id="path8" />
    </clipPath>
  </defs>
  <sodipodi:namedview
     id="namedview1"
     pagecolor="#505050"
     bordercolor="#eeeeee"
     borderopacity="1"
     inkscape:showpageshadow="0"
     inkscape:pageopacity="0"
     inkscape:pagecheckerboard="0"
     inkscape:deskcolor="#505050">
    <inkscape:page
       x="0"
       y="0"
       inkscape:label="1"
       id="page1"
       width="429.56"
       height="349.70667"
       margin="0"
       bleed="0" />
  </sodipodi:namedview>
  <g
     id="g1"
     inkscape:groupmode="layer"
     inkscape:label="1">
    <path
       id="path1"
       d="m 245.75999,485.76001 151.04,302.08002"
       style="fill:none;stroke:#000000;stroke-width:26.4;stroke-linecap:round;stroke-linejoin:round;stroke-miterlimit:10;stroke-dasharray:none;stroke-opacity:1"
       transform="translate(-221.45333,-460.50673)"
       clip-path="url(#clipPath2)" />
    <path
       id="path3"
       d="M 396.79999,787.84003 547.84003,485.76001"
       style="fill:none;stroke:#000000;stroke-width:26.4;stroke-linecap:round;stroke-linejoin:round;stroke-miterlimit:10;stroke-dasharray:none;stroke-opacity:1"
       transform="translate(-221.45333,-460.50673)"
       clip-path="url(#clipPath4)" />
    <path
       id="path5"
       d="M 245.75999,636.79999 H 547.84003"
       style="fill:none;stroke:#000000;stroke-width:26.4;stroke-linecap:round;stroke-linejoin:round;stroke-miterlimit:10;stroke-dasharray:none;stroke-opacity:1"
       transform="translate(-221.45333,-460.50673)"
       clip-path="url(#clipPath6)" />
    <path
       id="path7"
       d="m 0,0 5.44,-0.16 5.44,-0.64 5.28,-0.96 5.280001,-1.28 5.119998,-1.76 5.120001,-2.08 4.8,-2.56 4.639999,-2.72 4.479999,-3.2 4.16,-3.359999 4,-3.680001 3.680001,-4 3.36,-4.319999 3.040001,-4.480002 2.719998,-4.639999 2.400001,-4.959999 2.080002,-4.959999 1.599998,-5.280003 1.279999,-5.279999 0.959999,-5.279998 0.480004,-5.440003 0.159996,-5.440002 -0.159996,-5.439995 -0.800003,-5.279999 -0.96,-5.440002 -1.439994,-5.120003 -1.760002,-5.279998 -2.239998,-4.96 -2.400002,-4.8 -2.880001,-4.64 -3.200001,-4.32 -3.52,-4.16 -3.68,-4 -4,-3.52 -4.32,-3.36 -4.64,-3.04 -4.639999,-2.72 -4.960001,-2.24 -4.960001,-2.08 -5.279999,-1.6 -5.28,-1.12001 -5.44,-0.95999 -5.28,-0.32"
       style="fill:none;stroke:#000000;stroke-width:26.4;stroke-linecap:round;stroke-linejoin:round;stroke-miterlimit:10;stroke-dasharray:none;stroke-opacity:1"
       transform="translate(326.38669,327.3333)"
       clip-path="url(#clipPath8)" />
  </g>
</svg>
