<?xml version="1.0" encoding="UTF-8" standalone="no"?>
<!-- Created with Inkscape (http://www.inkscape.org/) -->

<svg
   version="1.1"
   id="svg1"
   width="510.93332"
   height="496.53333"
   viewBox="0 0 510.93332 496.53333"
   sodipodi:docname="Minium2.pdf"
   xmlns:inkscape="http://www.inkscape.org/namespaces/inkscape"
   xmlns:sodipodi="http://sodipodi.sourceforge.net/DTD/sodipodi-0.dtd"
   xmlns="http://www.w3.org/2000/svg"
   xmlns:svg="http://www.w3.org/2000/svg">
  <defs
     id="defs1">
    <clipPath
       clipPathUnits="userSpaceOnUse"
       id="clipPath2">
      <path
         d="M 0,0.16 V 1122.5601 H 793.59998 V 0.16 Z"
         transform="translate(3.3333333e-6)"
         clip-rule="evenodd"
         id="path2" />
    </clipPath>
    <clipPath
       clipPathUnits="userSpaceOnUse"
       id="clipPath4">
      <path
         d="M 0,0.16 V 1122.5601 H 793.59998 V 0.16 Z"
         transform="translate(3.3333333e-6)"
         clip-rule="evenodd"
         id="path4" />
    </clipPath>
    <clipPath
       clipPathUnits="userSpaceOnUse"
       id="clipPath6">
      <path
         d="M 0,0.16 V 1122.5601 H 793.59998 V 0.16 Z"
         transform="translate(3.3333333e-6)"
         clip-rule="evenodd"
         id="path6" />
    </clipPath>
    <clipPath
       clipPathUnits="userSpaceOnUse"
       id="clipPath8">
      <path
         d="M 0,0.16 V 1122.5601 H 793.59998 V 0.16 Z"
         transform="translate(-510.07999,-797.28003)"
         clip-rule="evenodd"
         id="path8" />
    </clipPath>
    <clipPath
       clipPathUnits="userSpaceOnUse"
       id="clipPath10">
      <path
         d="M 0,0.16 V 1122.5601 H 793.59998 V 0.16 Z"
         transform="translate(-170.24,-797.28003)"
         clip-rule="evenodd"
         id="path10" />
    </clipPath>
  </defs>
  <sodipodi:namedview
     id="namedview1"
     pagecolor="#505050"
     bordercolor="#eeeeee"
     borderopacity="1"
     inkscape:showpageshadow="0"
     inkscape:pageopacity="0"
     inkscape:pagecheckerboard="0"
     inkscape:deskcolor="#505050">
    <inkscape:page
       x="0"
       y="0"
       inkscape:label="1"
       id="page1"
       width="510.93332"
       height="496.53333"
       margin="0"
       bleed="0" />
  </sodipodi:namedview>
  <g
     id="g1"
     inkscape:groupmode="layer"
     inkscape:label="1">
    <path
       id="path1"
       d="M 170.24,419.67999 H 623.35998"
       style="fill:none;stroke:#000000;stroke-width:26.4;stroke-linecap:round;stroke-linejoin:round;stroke-miterlimit:10;stroke-dasharray:none;stroke-opacity:1"
       transform="translate(-138.74667,-387.09339)"
       clip-path="url(#clipPath2)" />
    <path
       id="path3"
       d="M 283.51999,419.67999 V 797.28003"
       style="fill:none;stroke:#000000;stroke-width:26.4;stroke-linecap:round;stroke-linejoin:round;stroke-miterlimit:10;stroke-dasharray:none;stroke-opacity:1"
       transform="translate(-138.74667,-387.09339)"
       clip-path="url(#clipPath4)" />
    <path
       id="path5"
       d="M 510.07999,419.67999 V 797.28003"
       style="fill:none;stroke:#000000;stroke-width:26.4;stroke-linecap:round;stroke-linejoin:round;stroke-miterlimit:10;stroke-dasharray:none;stroke-opacity:1"
       transform="translate(-138.74667,-387.09339)"
       clip-path="url(#clipPath6)" />
    <path
       id="path7"
       d="M 0,0 0.16,4.48 0.8,8.8 1.6,13.28 2.88,17.440001 4.32,21.6 l 1.92,4.16 2.08,3.84 2.56,3.679999 2.72,3.52 L 16.639999,40 19.84,43.040001 l 3.520001,2.719997 3.68,2.560002 4,2.080002 4,1.919998 4.16,1.599998 L 43.52,55.040001 47.84,56 l 4.32,0.48 4.479999,0.159999 4.48,-0.159999 4.479999,-0.48 4.32,-0.959999 4.32,-1.120003 4.160004,-1.599998 4,-1.919998 3.839996,-2.080002 3.68,-2.560002 3.520004,-2.719997 L 96.800003,40 99.68,36.799999 l 2.88,-3.52 2.4,-3.679999 2.24,-3.84 1.76,-4.16 1.6,-4.159999 L 111.68,13.28 112.64,8.8 113.12,4.48 113.28,0"
       style="fill:none;stroke:#000000;stroke-width:26.4;stroke-linecap:round;stroke-linejoin:round;stroke-miterlimit:10;stroke-dasharray:none;stroke-opacity:1"
       transform="translate(371.33332,410.18664)"
       clip-path="url(#clipPath8)" />
    <path
       id="path9"
       d="M 0,0 0.16,4.48 0.8,8.8 1.6,13.28 2.88,17.440001 4.32,21.6 l 1.92,4.16 2.24,3.84 2.4,3.679999 2.72,3.52 L 16.639999,40 19.84,43.040001 l 3.520001,2.719997 3.68,2.560002 4,2.080002 4,1.919998 4.16,1.599998 L 43.52,55.040001 47.84,56 l 4.48,0.48 4.319999,0.159999 4.48,-0.159999 4.479999,-0.48 4.32,-0.959999 4.32,-1.120003 4.160004,-1.599998 4,-1.919998 3.839996,-2.080002 3.68,-2.560002 3.520004,-2.719997 L 96.800003,40 l 3.039993,-3.200001 2.720004,-3.52 2.4,-3.679999 2.24,-3.84 1.76,-4.16 1.6,-4.159999 1.28,-4.160001 0.8,-4.48 0.48,-4.32 0.16,-4.48"
       style="fill:none;stroke:#000000;stroke-width:26.4;stroke-linecap:round;stroke-linejoin:round;stroke-miterlimit:10;stroke-dasharray:none;stroke-opacity:1"
       transform="translate(31.493338,410.18664)"
       clip-path="url(#clipPath10)" />
  </g>
</svg>
