<?xml version="1.0" encoding="UTF-8" standalone="no"?>
<!-- Created with Inkscape (http://www.inkscape.org/) -->

<svg
   version="1.1"
   id="svg1"
   width="317.49332"
   height="501.88"
   viewBox="0 0 317.49332 501.88"
   sodipodi:docname="Minium3.pdf"
   xmlns:inkscape="http://www.inkscape.org/namespaces/inkscape"
   xmlns:sodipodi="http://sodipodi.sourceforge.net/DTD/sodipodi-0.dtd"
   xmlns="http://www.w3.org/2000/svg"
   xmlns:svg="http://www.w3.org/2000/svg">
  <defs
     id="defs1">
    <clipPath
       clipPathUnits="userSpaceOnUse"
       id="clipPath2">
      <path
         d="M 0,0.16 V 1122.5601 H 793.59998 V 0.16 Z"
         transform="translate(-284.32001,-411.83999)"
         clip-rule="evenodd"
         id="path2" />
    </clipPath>
    <clipPath
       clipPathUnits="userSpaceOnUse"
       id="clipPath4">
      <path
         d="M 0,0.16 V 1122.5601 H 793.59998 V 0.16 Z"
         clip-rule="evenodd"
         id="path4" />
    </clipPath>
    <clipPath
       clipPathUnits="userSpaceOnUse"
       id="clipPath6">
      <path
         d="M 0,0.16 V 1122.5601 H 793.59998 V 0.16 Z"
         transform="translate(-268.95999,-801.44)"
         clip-rule="evenodd"
         id="path6" />
    </clipPath>
    <clipPath
       clipPathUnits="userSpaceOnUse"
       id="clipPath8">
      <path
         d="M 0,0.16 V 1122.5601 H 793.59998 V 0.16 Z"
         transform="translate(-335.20001,-802.56)"
         clip-rule="evenodd"
         id="path8" />
    </clipPath>
  </defs>
  <sodipodi:namedview
     id="namedview1"
     pagecolor="#505050"
     bordercolor="#eeeeee"
     borderopacity="1"
     inkscape:showpageshadow="0"
     inkscape:pageopacity="0"
     inkscape:pagecheckerboard="0"
     inkscape:deskcolor="#505050">
    <inkscape:page
       x="0"
       y="0"
       inkscape:label="1"
       id="page1"
       width="317.49332"
       height="501.88"
       margin="0"
       bleed="0" />
  </sodipodi:namedview>
  <g
     id="g1"
     inkscape:groupmode="layer"
     inkscape:label="1">
    <path
       id="path1"
       d="m 0,0 7.04,7.36 7.2,7.2 7.68,6.720001 8,6.399999 8.320002,6.079998 8.479999,5.600003 L 55.52,44.48 l 9.119999,4.799999 9.120003,4.319999 9.439995,4 9.760002,3.360001 L 102.72,64 l 9.92,2.559998 9.92,2.080001 10.08,1.599999 10.24,1.120003 L 152.96001,72 163.2,72.160004 l 10.24,-0.320008 10.23999,-0.799995 10.08,-1.279999 L 203.84,68"
       style="fill:none;stroke:#000000;stroke-width:26.4;stroke-linecap:round;stroke-linejoin:round;stroke-miterlimit:10;stroke-dasharray:none;stroke-opacity:1"
       transform="translate(284.32001,263.6666)"
       clip-path="url(#clipPath2)" />
    <path
       id="path3"
       d="M 488.16,479.84 284.32001,615.67999"
       style="fill:none;stroke:#000000;stroke-width:26.4;stroke-linecap:round;stroke-linejoin:round;stroke-miterlimit:10;stroke-dasharray:none;stroke-opacity:1"
       transform="translate(0,-148.17339)"
       clip-path="url(#clipPath4)" />
    <path
       id="path5"
       d="m 0,0 4.8,6.4 5.28,6.24 5.6,5.76 5.92,5.6 6.08,5.120001 6.560002,4.960001 6.719997,4.479999 6.880001,4 7.200001,3.680001 7.360001,3.359996 7.68,2.880002 7.68,2.400001 7.839996,1.919998 7.840004,1.600003 L 101.44,59.52 l 8.16,0.64 8,0.16 8.16,-0.16 7.99999,-0.799999 8,-1.119999 8,-1.600003 7.68001,-1.919998 7.84,-2.560001 7.52,-2.880001 7.36,-3.360001 7.2,-3.679996 6.88,-4.16 6.72001,-4.480004 L 207.36,28.799999 213.60001,23.52 219.36,17.92 224.96001,12 230.24,5.92 l 4.79999,-6.56 4.48001,-6.72 4,-6.88 3.84,-7.200001 3.2,-7.359998 2.88,-7.680001 2.4,-7.68 2.08001,-7.84 1.59998,-7.84 1.12002,-7.999996 L 261.28,-76 l 0.16,-8 -0.16,-8.160004 -0.79999,-7.999996 -1.12002,-8 -1.59998,-7.84 -1.92001,-7.84 -2.56,-7.68 -2.88001,-7.68 -3.36,-7.36 -3.67999,-7.19999 -4.16,-6.88001 -4.48,-6.72 -4.8,-6.39999 -5.28,-6.24001 -5.60001,-5.92 -5.75999,-5.44 -6.24001,-5.28 -6.39999,-4.8 -6.72,-4.48 -7.04,-4.16 -7.20001,-3.67999 -7.35998,-3.20002 -7.52001,-2.87999 -7.68001,-2.55999 -7.83999,-1.92002 -8,-1.59999 -8,-1.11999 -8,-0.64 -8,-0.32001 -8.16,0.32001 -8,0.64 -7.999997,1.11999 -8,1.59999 -7.840004,2.08001 -7.680001,2.4 -7.519996,2.87999 -7.360001,3.36 -7.200001,3.68001 -7.04,4 -6.720002,4.48 -6.399997,4.96 -6.08,5.12 -5.920001,5.60001"
       style="fill:none;stroke:#000000;stroke-width:26.4;stroke-linecap:round;stroke-linejoin:round;stroke-miterlimit:10;stroke-dasharray:none;stroke-opacity:1"
       transform="translate(268.95999,653.26661)"
       clip-path="url(#clipPath6)" />
    <path
       id="path7"
       d="M 0,0 1.44,-3.2 2.56,-6.4 3.36,-9.76 3.84,-13.28 4,-16.799999 V -20.16 L 3.52,-23.68 2.72,-27.040001 1.6,-30.4 0.32,-33.599998 -1.44,-36.639999 -3.36,-39.52 -5.6,-42.240002 -8,-44.639999 l -2.56,-2.240002 -2.88,-2.079998 -3.04,-1.760002 -3.2,-1.439999 -3.199999,-1.119999 -3.360001,-0.960003 -3.52,-0.479999 -3.359999,-0.16 h -3.52 l -3.520001,0.479999 -3.36,0.640004 -3.360001,1.119999 -3.200001,1.279998 -3.039997,1.600003 L -56,-47.84 l -2.720001,2.240002 -2.559998,2.239997 -2.240001,2.720002 -2.079998,2.720001 -1.760003,3.039997 -1.599998,3.200001 -1.120003,3.2 -0.959999,3.359999 L -71.68,-21.6 l -0.159996,3.36 v 3.52 l 0.319999,3.52 0.64,3.36 1.119995,3.36"
       style="fill:none;stroke:#000000;stroke-width:26.4;stroke-linecap:round;stroke-linejoin:round;stroke-miterlimit:10;stroke-dasharray:none;stroke-opacity:1"
       transform="translate(335.20001,654.38661)"
       clip-path="url(#clipPath8)" />
  </g>
</svg>
