<?xml version="1.0" encoding="UTF-8" standalone="no"?>
<!-- Created with Inkscape (http://www.inkscape.org/) -->

<svg
   version="1.1"
   id="svg1"
   width="506.93332"
   height="433.79999"
   viewBox="0 0 506.93332 433.79999"
   sodipodi:docname="Minium6.pdf"
   xmlns:inkscape="http://www.inkscape.org/namespaces/inkscape"
   xmlns:sodipodi="http://sodipodi.sourceforge.net/DTD/sodipodi-0.dtd"
   xmlns="http://www.w3.org/2000/svg"
   xmlns:svg="http://www.w3.org/2000/svg">
  <defs
     id="defs1">
    <clipPath
       clipPathUnits="userSpaceOnUse"
       id="clipPath2">
      <path
         d="M 0,0.16 V 1122.5601 H 793.59998 V 0.16 Z"
         transform="translate(-396.79998,-636.79999)"
         clip-rule="evenodd"
         id="path2" />
    </clipPath>
    <clipPath
       clipPathUnits="userSpaceOnUse"
       id="clipPath4">
      <path
         d="M 0,0.16 V 1122.5601 H 793.59998 V 0.16 Z"
         transform="translate(-623.35998,-636.79999)"
         clip-rule="evenodd"
         id="path4" />
    </clipPath>
    <clipPath
       clipPathUnits="userSpaceOnUse"
       id="clipPath6">
      <path
         d="M 0,0.16 V 1122.5601 H 793.59998 V 0.16 Z"
         transform="translate(-3.3333333e-6)"
         clip-rule="evenodd"
         id="path6" />
    </clipPath>
    <clipPath
       clipPathUnits="userSpaceOnUse"
       id="clipPath8">
      <path
         d="M 0,0.16 V 1122.5601 H 793.59998 V 0.16 Z"
         transform="translate(-3.3333333e-6)"
         clip-rule="evenodd"
         id="path8" />
    </clipPath>
  </defs>
  <sodipodi:namedview
     id="namedview1"
     pagecolor="#505050"
     bordercolor="#eeeeee"
     borderopacity="1"
     inkscape:showpageshadow="0"
     inkscape:pageopacity="0"
     inkscape:pagecheckerboard="0"
     inkscape:deskcolor="#505050">
    <inkscape:page
       x="0"
       y="0"
       inkscape:label="1"
       id="page1"
       width="506.93332"
       height="433.79999"
       margin="0"
       bleed="0" />
  </sodipodi:namedview>
  <g
     id="g1"
     inkscape:groupmode="layer"
     inkscape:label="1">
    <path
       id="path1"
       d="m 0,0 -0.16,-6.88 -0.64,-6.72 -0.96,-6.88 -1.44,-6.560001 -1.92,-6.719997 -2.24,-6.400002 -2.56,-6.240002 -3.04,-6.239997 -3.36,-5.920002 L -20,-64.32 l -4,-5.599998 -4.48,-5.120003 -4.639999,-5.120003 -4.960003,-4.639999 -5.279999,-4.32 -5.439998,-4.159996 -5.760002,-3.68 -6.079998,-3.360001 -6.080002,-2.88 -6.400002,-2.72 -6.399994,-2.24 -6.560005,-1.76 -6.720001,-1.44 -6.719994,-1.12 -6.880003,-0.64 -6.88,-0.16 -6.72,0.16 -6.88,0.64 -6.72001,1.12 -6.72,1.44 -6.55999,1.76 -6.56,2.24 -6.23999,2.72 -6.24001,2.88 -5.92,3.360001 -5.76001,3.68 -5.43998,4.159996 -5.28002,4.32 -4.95999,4.639999 -4.8,5.120003 -4.31999,5.120003 -4,5.599998 -3.68001,5.759999 -3.52001,5.920002 -2.87999,6.239997 -2.72,6.240002 -2.24,6.400002 -1.76,6.719997 -1.44,6.560001 -0.96001,6.88 -0.63999,6.72 -0.32,6.88"
       style="fill:none;stroke:#000000;stroke-width:26.4;stroke-linecap:round;stroke-linejoin:round;stroke-miterlimit:10;stroke-dasharray:none;stroke-opacity:1"
       transform="translate(251.38665,408.5466)"
       clip-path="url(#clipPath2)" />
    <path
       id="path3"
       d="m 0,0 -0.16,-6.88 -0.64,-6.72 -0.96,-6.88 -1.44,-6.560001 -1.92,-6.719997 -2.24,-6.400002 -2.56,-6.240002 -3.04,-6.239997 -3.36,-5.920002 L -20,-64.32 l -4,-5.599998 -4.48,-5.120003 -4.639999,-5.120003 -4.960003,-4.639999 -5.279999,-4.32 -5.599998,-4.159996 -5.600002,-3.68 -6.079998,-3.360001 -6.080002,-2.88 -6.400002,-2.72 -6.399994,-2.24 -6.560005,-1.76 -6.720001,-1.44 -6.719994,-1.12 -6.880003,-0.64 -6.88,-0.16 -6.72,0.16 -6.88,0.64 -6.72001,1.12 -6.72,1.44 -6.55999,1.76 -6.56,2.24 -6.23999,2.72 -6.24001,2.88 -5.92,3.360001 -5.76001,3.68 -5.43998,4.159996 -5.28002,4.32 -4.95999,4.639999 -4.8,5.120003 -4.31999,5.120003 -4,5.599998 -3.84001,5.759999 -3.36001,5.920002 -2.87999,6.239997 -2.72,6.240002 -2.24,6.400002 -1.76,6.719997 -1.44,6.560001 -1.11999,6.88 -0.48001,6.72 -0.32,6.88"
       style="fill:none;stroke:#000000;stroke-width:26.4;stroke-linecap:round;stroke-linejoin:round;stroke-miterlimit:10;stroke-dasharray:none;stroke-opacity:1"
       transform="translate(477.94665,408.5466)"
       clip-path="url(#clipPath4)" />
    <path
       id="path5"
       d="M 396.79999,636.79999 V 259.20001"
       style="fill:none;stroke:#000000;stroke-width:26.4;stroke-linecap:round;stroke-linejoin:round;stroke-miterlimit:10;stroke-dasharray:none;stroke-opacity:1"
       transform="translate(-145.41333,-228.25339)"
       clip-path="url(#clipPath6)" />
    <path
       id="path7"
       d="m 283.51999,259.20001 h 226.56"
       style="fill:none;stroke:#000000;stroke-width:26.4;stroke-linecap:round;stroke-linejoin:round;stroke-miterlimit:10;stroke-dasharray:none;stroke-opacity:1"
       transform="translate(-145.41333,-228.25339)"
       clip-path="url(#clipPath8)" />
  </g>
</svg>
