<?xml version="1.0" encoding="UTF-8" standalone="no"?>
<!-- Created with Inkscape (http://www.inkscape.org/) -->

<svg
   version="1.1"
   id="svg1"
   width="349.51999"
   height="487.20001"
   viewBox="0 0 349.51999 487.20001"
   sodipodi:docname="Nitre14.pdf"
   xmlns:inkscape="http://www.inkscape.org/namespaces/inkscape"
   xmlns:sodipodi="http://sodipodi.sourceforge.net/DTD/sodipodi-0.dtd"
   xmlns="http://www.w3.org/2000/svg"
   xmlns:svg="http://www.w3.org/2000/svg">
  <defs
     id="defs1">
    <clipPath
       clipPathUnits="userSpaceOnUse"
       id="clipPath2">
      <path
         d="M 0,0.16 V 1122.5601 H 793.59998 V 0.16 Z"
         transform="translate(3.3333333e-6)"
         clip-rule="evenodd"
         id="path2" />
    </clipPath>
    <clipPath
       clipPathUnits="userSpaceOnUse"
       id="clipPath4">
      <path
         d="M 0,0.16 V 1122.5601 H 793.59998 V 0.16 Z"
         transform="translate(3.3333333e-6)"
         clip-rule="evenodd"
         id="path4" />
    </clipPath>
    <clipPath
       clipPathUnits="userSpaceOnUse"
       id="clipPath6">
      <path
         d="M 0,0.16 V 1122.5601 H 793.59998 V 0.16 Z"
         transform="translate(3.3333333e-6)"
         clip-rule="evenodd"
         id="path6" />
    </clipPath>
    <clipPath
       clipPathUnits="userSpaceOnUse"
       id="clipPath8">
      <path
         d="M 0,0.16 V 1122.5601 H 793.59998 V 0.16 Z"
         transform="translate(-547.84003,-485.76001)"
         clip-rule="evenodd"
         id="path8" />
    </clipPath>
  </defs>
  <sodipodi:namedview
     id="namedview1"
     pagecolor="#505050"
     bordercolor="#eeeeee"
     borderopacity="1"
     inkscape:showpageshadow="0"
     inkscape:pageopacity="0"
     inkscape:pagecheckerboard="0"
     inkscape:deskcolor="#505050">
    <inkscape:page
       x="0"
       y="0"
       inkscape:label="1"
       id="page1"
       width="349.51999"
       height="487.20001"
       margin="0"
       bleed="0" />
  </sodipodi:namedview>
  <g
     id="g1"
     inkscape:groupmode="layer"
     inkscape:label="1">
    <path
       id="path1"
       d="M 245.75999,334.72 V 787.84003"
       style="fill:none;stroke:#000000;stroke-width:26.4;stroke-linecap:round;stroke-linejoin:round;stroke-miterlimit:10;stroke-dasharray:none;stroke-opacity:1"
       transform="translate(-218.78667,-315.01339)"
       clip-path="url(#clipPath2)" />
    <path
       id="path3"
       d="m 245.75999,561.28003 h 151.04"
       style="fill:none;stroke:#000000;stroke-width:26.4;stroke-linecap:round;stroke-linejoin:round;stroke-miterlimit:10;stroke-dasharray:none;stroke-opacity:1"
       transform="translate(-218.78667,-315.01339)"
       clip-path="url(#clipPath4)" />
    <path
       id="path5"
       d="M 396.79999,561.28003 V 485.76001"
       style="fill:none;stroke:#000000;stroke-width:26.4;stroke-linecap:round;stroke-linejoin:round;stroke-miterlimit:10;stroke-dasharray:none;stroke-opacity:1"
       transform="translate(-218.78667,-315.01339)"
       clip-path="url(#clipPath6)" />
    <path
       id="path7"
       d="M 0,0 -0.16,-5.28 -0.8,-10.72 -1.6,-16 -3.04,-21.280001 -4.64,-26.24 -6.72,-31.360001 -9.12,-36.16 l -2.72,-4.639999 -3.2,-4.32 -3.36,-4.16 -3.52,-4 -4,-3.68 -4.16,-3.360001 -4.480001,-3.040001 -4.64,-2.879997 L -44,-68.639999 l -4.959999,-2.080002 -5.120003,-1.599999 -5.119999,-1.440002 -5.280002,-0.959999 -5.439995,-0.64 -5.279999,-0.159996 -5.440002,0.159996 -5.279999,0.64 -5.279999,0.959999 -5.280006,1.279999 -5.119997,1.600006 -4.96,2.079994 -4.8,2.400001 -4.64,2.720002 -4.48,3.040001 -4.16,3.36 -4,3.680001 -3.68001,3.84 -3.35998,4.16 -3.04001,4.479999 -2.88001,4.639999 -2.39999,4.8 -2.08,4.960001 -1.76,4.959999 -1.27999,5.28 -0.96001,5.28 -0.64,5.28 -0.31999,5.44"
       style="fill:none;stroke:#000000;stroke-width:26.4;stroke-linecap:round;stroke-linejoin:round;stroke-miterlimit:10;stroke-dasharray:none;stroke-opacity:1"
       transform="translate(329.05336,170.74662)"
       clip-path="url(#clipPath8)" />
  </g>
</svg>
