<?xml version="1.0" encoding="UTF-8" standalone="no"?>
<!-- Created with Inkscape (http://www.inkscape.org/) -->

<svg
   version="1.1"
   id="svg1"
   width="378.88"
   height="499.21332"
   viewBox="0 0 378.88 499.21332"
   sodipodi:docname="Nitre8.pdf"
   xmlns:inkscape="http://www.inkscape.org/namespaces/inkscape"
   xmlns:sodipodi="http://sodipodi.sourceforge.net/DTD/sodipodi-0.dtd"
   xmlns="http://www.w3.org/2000/svg"
   xmlns:svg="http://www.w3.org/2000/svg">
  <defs
     id="defs1">
    <clipPath
       clipPathUnits="userSpaceOnUse"
       id="clipPath2">
      <path
         d="M 0,0.16 V 1122.5601 H 793.59998 V 0.16 Z"
         transform="translate(-396.79999,-706.71998)"
         clip-rule="evenodd"
         id="path2" />
    </clipPath>
    <clipPath
       clipPathUnits="userSpaceOnUse"
       id="clipPath4">
      <path
         d="M 0,0.16 V 1122.5601 H 793.59998 V 0.16 Z"
         clip-rule="evenodd"
         id="path4" />
    </clipPath>
    <clipPath
       clipPathUnits="userSpaceOnUse"
       id="clipPath6">
      <path
         d="M 0,0.16 V 1122.5601 H 793.59998 V 0.16 Z"
         transform="translate(-477.76001,-575.52002)"
         clip-rule="evenodd"
         id="path6" />
    </clipPath>
    <clipPath
       clipPathUnits="userSpaceOnUse"
       id="clipPath8">
      <path
         d="M 0,0.16 V 1122.5601 H 793.59998 V 0.16 Z"
         clip-rule="evenodd"
         id="path8" />
    </clipPath>
    <clipPath
       clipPathUnits="userSpaceOnUse"
       id="clipPath10">
      <path
         d="M 0,0.16 V 1122.5601 H 793.59998 V 0.16 Z"
         clip-rule="evenodd"
         id="path10" />
    </clipPath>
    <clipPath
       clipPathUnits="userSpaceOnUse"
       id="clipPath12">
      <path
         d="M 0,0.16 V 1122.5601 H 793.59998 V 0.16 Z"
         transform="translate(-438.23999,-581.91999)"
         clip-rule="evenodd"
         id="path12" />
    </clipPath>
    <clipPath
       clipPathUnits="userSpaceOnUse"
       id="clipPath14">
      <path
         d="M 0,0.16 V 1122.5601 H 793.59998 V 0.16 Z"
         transform="translate(-460.16,-744.96003)"
         clip-rule="evenodd"
         id="path14" />
    </clipPath>
  </defs>
  <sodipodi:namedview
     id="namedview1"
     pagecolor="#505050"
     bordercolor="#eeeeee"
     borderopacity="1"
     inkscape:showpageshadow="0"
     inkscape:pageopacity="0"
     inkscape:pagecheckerboard="0"
     inkscape:deskcolor="#505050">
    <inkscape:page
       x="0"
       y="0"
       inkscape:label="1"
       id="page1"
       width="378.88"
       height="499.21332"
       margin="0"
       bleed="0" />
  </sodipodi:namedview>
  <g
     id="g1"
     inkscape:groupmode="layer"
     inkscape:label="1">
    <path
       id="path1"
       d="M 0,0 C 0,-45.860001 -37.169998,-83.040001 -83.040001,-83.040001 -128.91,-83.040001 -166.08,-45.860001 -166.08,0 c 0,45.860001 37.17,83.040001 83.039999,83.040001 C -37.169998,83.040001 0,45.860001 0,0 Z"
       style="fill:none;stroke:#000000;stroke-width:26.4;stroke-linecap:round;stroke-linejoin:round;stroke-miterlimit:10;stroke-dasharray:none;stroke-opacity:1"
       transform="translate(187.35999,397.05325)"
       clip-path="url(#clipPath2)" />
    <path
       id="path3"
       d="M 313.76001,623.67999 V 457.44"
       style="fill:none;stroke:#000000;stroke-width:26.4;stroke-linecap:round;stroke-linejoin:round;stroke-miterlimit:10;stroke-dasharray:none;stroke-opacity:1"
       transform="translate(-209.44,-309.66673)"
       clip-path="url(#clipPath4)" />
    <path
       id="path5"
       d="m 0,0 6.88,-2.4 6.56,-2.88 6.56,-3.2 6.24,-3.68 6.08,-4 5.760002,-4.32 5.599998,-4.640001 5.279999,-4.959999 4.959999,-5.280001 4.640003,-5.599998 4.32,-5.760002 3.84,-6.079998 3.680001,-6.240002 3.199996,-6.559997 2.880005,-6.720002 2.559998,-6.720001 1.919998,-7.040001 1.760002,-7.040001 L 84,-100.16 l 0.800003,-7.2 0.32,-7.36 v -7.2 l -0.32,-7.19999 -0.960007,-7.20002 -1.279998,-7.19999 -1.599999,-7.04 -2.080002,-6.88 -2.559997,-6.88001 -2.879998,-6.55999 -3.200004,-6.56 -3.68,-6.23999 -3.999997,-6.08 -4.319999,-5.76001 -4.640004,-5.59999 -4.959999,-5.12001 -5.279998,-4.96 -5.600003,-4.8 -5.919998,-4.32001 -5.92,-3.83999 -6.4,-3.68 -6.4,-3.19999 -6.72,-2.88001 -6.72,-2.40001 -7.04,-2.07998 -7.04,-1.76001 -7.2,-1.28 -7.199999,-0.8 L -36,-242.56 h -7.200001 l -7.200001,0.48 -7.199996,0.8 -7.200005,1.28 -7.039993,1.60001 -6.880005,2.07998 -6.879997,2.56002 -6.560006,2.87999 -6.559997,3.20001 L -104.96,-224 l -6.08,4 -5.76,4.32001 -5.6,4.64 -5.28,4.95999 -4.96,5.28 -4.64,5.6 -4.32001,5.92 -4,5.92 -3.51998,6.39999 -3.20002,6.40001 -2.87999,6.72 -2.55999,6.72001 -2.08001,7.03999 -1.6,7.04001 -1.28,7.19999 -0.8,7.2 -0.48,7.04"
       style="fill:none;stroke:#000000;stroke-width:26.4;stroke-linecap:round;stroke-linejoin:round;stroke-miterlimit:10;stroke-dasharray:none;stroke-opacity:1"
       transform="translate(268.32001,265.85329)"
       clip-path="url(#clipPath6)" />
    <path
       id="path7"
       d="m 477.76001,575.67999 -39.36002,6.40003"
       style="fill:none;stroke:#000000;stroke-width:26.4;stroke-linecap:round;stroke-linejoin:round;stroke-miterlimit:10;stroke-dasharray:none;stroke-opacity:1"
       transform="translate(-209.44,-309.66673)"
       clip-path="url(#clipPath8)" />
    <path
       id="path9"
       d="M 438.39999,623.67999 H 479.84"
       style="fill:none;stroke:#000000;stroke-width:26.4;stroke-linecap:round;stroke-linejoin:round;stroke-miterlimit:10;stroke-dasharray:none;stroke-opacity:1"
       transform="translate(-209.44,-309.66673)"
       clip-path="url(#clipPath10)" />
    <path
       id="path11"
       d="m 0,0 -2.24,0.32 -2.24,0.32 -2.24,0.64 -2.08,0.96 -2.08,1.12 -1.92,1.28 -1.76,1.6 -1.6,1.76 -1.280001,1.92 -1.119998,1.92 -0.960001,2.24 -0.64,2.24 -0.32,2.239999 -0.159999,2.4 0.159999,2.240002 0.32,2.399999 0.64,2.24 0.960001,2.08 1.119998,2.08 1.280001,1.919998 1.6,1.600002 1.76,1.599999 1.92,1.440002 2.08,1.119999 2.08,0.8 2.24,0.639999 2.24,0.479999 H 0"
       style="fill:none;stroke:#000000;stroke-width:26.4;stroke-linecap:round;stroke-linejoin:round;stroke-miterlimit:10;stroke-dasharray:none;stroke-opacity:1"
       transform="translate(228.79999,272.25326)"
       clip-path="url(#clipPath12)" />
    <path
       id="path13"
       d="M 0,0 4.8,1.44 9.6,2.4 14.4,3.04 19.360001,3.2 24.16,3.04 29.120001,2.56 33.919998,1.6 l 4.640003,-1.28 4.64,-1.6 4.479999,-2.08 4.16,-2.4 4.16,-2.56 3.84,-3.04 3.68,-3.36 3.359997,-3.52 3.040001,-3.84 2.720001,-4 2.400002,-4.32 2.080002,-4.480001 1.759994,-4.48 L 80.160004,-44 l 1.119995,-4.799999 0.480003,-4.959999 0.32,-4.800003 -0.160004,-4.959999 -0.639999,-4.8 -0.799996,-4.800003 -1.280006,-4.799995 -1.759995,-4.64 -1.920005,-4.319999 -2.399994,-4.32 -2.720001,-4.160004 -3.040001,-3.839996 -3.199997,-3.680003 -3.680004,-3.2 -3.680001,-3.2 -4.16,-2.72 -4.159999,-2.4 -4.48,-2.08 -4.639999,-1.76 -4.64,-1.28 -4.800001,-0.96 -4.799999,-0.64 -4.960001,-0.32"
       style="fill:none;stroke:#000000;stroke-width:26.4;stroke-linecap:round;stroke-linejoin:round;stroke-miterlimit:10;stroke-dasharray:none;stroke-opacity:1"
       transform="translate(250.72,435.2933)"
       clip-path="url(#clipPath14)" />
  </g>
</svg>
