<?xml version="1.0" encoding="UTF-8" standalone="no"?>
<!-- Created with Inkscape (http://www.inkscape.org/) -->

<svg
   version="1.1"
   id="svg1"
   width="510.93332"
   height="501.88"
   viewBox="0 0 510.93332 501.88"
   sodipodi:docname="Nitre17.pdf"
   xmlns:inkscape="http://www.inkscape.org/namespaces/inkscape"
   xmlns:sodipodi="http://sodipodi.sourceforge.net/DTD/sodipodi-0.dtd"
   xmlns="http://www.w3.org/2000/svg"
   xmlns:svg="http://www.w3.org/2000/svg">
  <defs
     id="defs1">
    <clipPath
       clipPathUnits="userSpaceOnUse"
       id="clipPath2">
      <path
         d="M 0,0.16 V 1122.5601 H 793.59998 V 0.16 Z"
         clip-rule="evenodd"
         id="path2" />
    </clipPath>
    <clipPath
       clipPathUnits="userSpaceOnUse"
       id="clipPath4">
      <path
         d="M 0,0.16 V 1122.5601 H 793.59998 V 0.16 Z"
         clip-rule="evenodd"
         id="path4" />
    </clipPath>
    <clipPath
       clipPathUnits="userSpaceOnUse"
       id="clipPath6">
      <path
         d="M 0,0.16 V 1122.5601 H 793.59998 V 0.16 Z"
         clip-rule="evenodd"
         id="path6" />
    </clipPath>
    <clipPath
       clipPathUnits="userSpaceOnUse"
       id="clipPath8">
      <path
         d="M 0,0.16 V 1122.5601 H 793.59998 V 0.16 Z"
         transform="translate(-623.35998,-561.28003)"
         clip-rule="evenodd"
         id="path8" />
    </clipPath>
  </defs>
  <sodipodi:namedview
     id="namedview1"
     pagecolor="#505050"
     bordercolor="#eeeeee"
     borderopacity="1"
     inkscape:showpageshadow="0"
     inkscape:pageopacity="0"
     inkscape:pagecheckerboard="0"
     inkscape:deskcolor="#505050">
    <inkscape:page
       x="0"
       y="0"
       inkscape:label="1"
       id="page1"
       width="510.93332"
       height="501.88"
       margin="0"
       bleed="0" />
  </sodipodi:namedview>
  <g
     id="g1"
     inkscape:groupmode="layer"
     inkscape:label="1">
    <path
       id="path1"
       d="M 170.24,334.72 V 787.84003"
       style="fill:none;stroke:#000000;stroke-width:26.4;stroke-linecap:round;stroke-linejoin:round;stroke-miterlimit:10;stroke-dasharray:none;stroke-opacity:1"
       transform="translate(-140.08,-301.66673)"
       clip-path="url(#clipPath2)" />
    <path
       id="path3"
       d="M 170.24,334.72 H 623.35998"
       style="fill:none;stroke:#000000;stroke-width:26.4;stroke-linecap:round;stroke-linejoin:round;stroke-miterlimit:10;stroke-dasharray:none;stroke-opacity:1"
       transform="translate(-140.08,-301.66673)"
       clip-path="url(#clipPath4)" />
    <path
       id="path5"
       d="M 623.35998,334.72 V 561.28003"
       style="fill:none;stroke:#000000;stroke-width:26.4;stroke-linecap:round;stroke-linejoin:round;stroke-miterlimit:10;stroke-dasharray:none;stroke-opacity:1"
       transform="translate(-140.08,-301.66673)"
       clip-path="url(#clipPath6)" />
    <path
       id="path7"
       d="m 0,0 -11.2,-8.16 -11.519999,-7.68 -11.840002,-7.200001 -12.16,-6.879999 -12.32,-6.4 -12.479996,-5.920002 L -84.32,-47.68 l -12.959999,-4.959999 -13.120001,-4.64 -13.28,-4 -13.43999,-3.520004 -13.60001,-3.039993 -13.60001,-2.560006 L -178.08,-72.32 l -13.76,-1.599998 -13.91999,-0.959999 -13.76001,-0.480004 h -13.92 l -13.92,0.480004 -13.76,0.959999 -13.92001,1.599998 -13.6,1.919998 -13.75998,2.560006 -13.44001,3.039993 -13.44,3.520004 -13.28,4 -13.11999,4.64 -12.96002,4.959999 -12.79999,5.439998 -12.63999,5.920002 -12.32,6.4 -12,6.879999 -11.84,7.200001 -11.52002,7.68 L -453.12,0"
       style="fill:none;stroke:#000000;stroke-width:26.4;stroke-linecap:round;stroke-linejoin:round;stroke-miterlimit:10;stroke-dasharray:none;stroke-opacity:1"
       transform="translate(483.27998,259.6133)"
       clip-path="url(#clipPath8)" />
  </g>
</svg>
