<?xml version="1.0" encoding="UTF-8" standalone="no"?>
<!-- Created with Inkscape (http://www.inkscape.org/) -->

<svg
   version="1.1"
   id="svg1"
   width="506.93332"
   height="281.64001"
   viewBox="0 0 506.93332 281.64001"
   sodipodi:docname="Nitre28.pdf"
   xmlns:inkscape="http://www.inkscape.org/namespaces/inkscape"
   xmlns:sodipodi="http://sodipodi.sourceforge.net/DTD/sodipodi-0.dtd"
   xmlns="http://www.w3.org/2000/svg"
   xmlns:svg="http://www.w3.org/2000/svg">
  <defs
     id="defs1">
    <clipPath
       clipPathUnits="userSpaceOnUse"
       id="clipPath2">
      <path
         d="M 0,0.16 V 1122.5601 H 793.59998 V 0.16 Z"
         transform="translate(-553.12,-562.79999)"
         clip-rule="evenodd"
         id="path2" />
    </clipPath>
    <clipPath
       clipPathUnits="userSpaceOnUse"
       id="clipPath4">
      <path
         d="M 0,0.16 V 1122.5601 H 793.59998 V 0.16 Z"
         clip-rule="evenodd"
         id="path4" />
    </clipPath>
    <clipPath
       clipPathUnits="userSpaceOnUse"
       id="clipPath6">
      <path
         d="M 0,0.16 V 1122.5601 H 793.59998 V 0.16 Z"
         transform="translate(-168.8,-559.67999)"
         clip-rule="evenodd"
         id="path6" />
    </clipPath>
  </defs>
  <sodipodi:namedview
     id="namedview1"
     pagecolor="#505050"
     bordercolor="#eeeeee"
     borderopacity="1"
     inkscape:showpageshadow="0"
     inkscape:pageopacity="0"
     inkscape:pagecheckerboard="0"
     inkscape:deskcolor="#505050">
    <inkscape:page
       x="0"
       y="0"
       inkscape:label="1"
       id="page1"
       width="506.93332"
       height="281.64001"
       margin="0"
       bleed="0" />
  </sodipodi:namedview>
  <g
     id="g1"
     inkscape:groupmode="layer"
     inkscape:label="1">
    <path
       id="path1"
       d="m 0,0 c 0,-62.509998 -50.68,-113.2 -113.2,-113.2 -62.52,0 -113.19999,50.690002 -113.19999,113.2 0,62.509998 50.67999,113.2 113.19999,113.2 C -50.68,113.2 0,62.509998 0,0 Z"
       style="fill:none;stroke:#000000;stroke-width:26.4;stroke-linecap:round;stroke-linejoin:round;stroke-miterlimit:10;stroke-dasharray:none;stroke-opacity:1"
       transform="translate(553.12,560.11993)"
       clip-path="url(#clipPath2)" />
    <path
       id="path3"
       d="M 627.03998,561.28003 254.39999,560.47998"
       style="fill:none;stroke:#000000;stroke-width:26.4;stroke-linecap:round;stroke-linejoin:round;stroke-miterlimit:10;stroke-dasharray:none;stroke-opacity:1"
       transform="translate(0,-2.6800587)"
       clip-path="url(#clipPath4)" />
    <path
       id="path5"
       d="m 0,0 0.32,3.84 0.32,3.84 0.8,3.68 1.12,3.68 L 4,18.559999 5.6,21.92 7.68,25.120001 9.92,28.16 12.48,31.040001 15.2,33.599998 18.08,35.84 21.280001,37.919998 24.639999,39.84 28.16,41.279999 l 3.52,1.120003 3.84,0.799999 3.680001,0.639999 3.84,0.16 3.68,-0.16 3.84,-0.479999 3.680001,-0.8 3.679996,-1.120002 L 61.279999,40 64.800003,38.240002 68,36.16 70.879997,33.919998 73.760002,31.360001 76.32,28.639999 78.559998,25.6 80.639999,22.4 82.400002,19.040001 83.839996,15.52 84.959999,11.84 85.760002,8.16 86.239998,4.32"
       style="fill:none;stroke:#000000;stroke-width:26.4;stroke-linecap:round;stroke-linejoin:round;stroke-miterlimit:10;stroke-dasharray:none;stroke-opacity:1"
       transform="translate(168.8,556.99993)"
       clip-path="url(#clipPath6)" />
  </g>
</svg>
