<?xml version="1.0" encoding="UTF-8" standalone="no"?>
<!-- Created with Inkscape (http://www.inkscape.org/) -->

<svg
   version="1.1"
   id="svg1"
   width="462.90668"
   height="413.78668"
   viewBox="0 0 462.90668 413.78668"
   sodipodi:docname="Nitre16.pdf"
   xmlns:inkscape="http://www.inkscape.org/namespaces/inkscape"
   xmlns:sodipodi="http://sodipodi.sourceforge.net/DTD/sodipodi-0.dtd"
   xmlns="http://www.w3.org/2000/svg"
   xmlns:svg="http://www.w3.org/2000/svg">
  <defs
     id="defs1">
    <clipPath
       clipPathUnits="userSpaceOnUse"
       id="clipPath2">
      <path
         d="M 0,0.16 V 1122.5601 H 793.59998 V 0.16 Z"
         transform="translate(-573.59997,-456.48001)"
         clip-rule="evenodd"
         id="path2" />
    </clipPath>
    <clipPath
       clipPathUnits="userSpaceOnUse"
       id="clipPath4">
      <path
         d="M 0,0.16 V 1122.5601 H 793.59998 V 0.16 Z"
         transform="translate(-3.3333333e-6)"
         clip-rule="evenodd"
         id="path4" />
    </clipPath>
    <clipPath
       clipPathUnits="userSpaceOnUse"
       id="clipPath6">
      <path
         d="M 0,0.16 V 1122.5601 H 793.59998 V 0.16 Z"
         transform="translate(-376.79998,-681.76001)"
         clip-rule="evenodd"
         id="path6" />
    </clipPath>
  </defs>
  <sodipodi:namedview
     id="namedview1"
     pagecolor="#505050"
     bordercolor="#eeeeee"
     borderopacity="1"
     inkscape:showpageshadow="0"
     inkscape:pageopacity="0"
     inkscape:pagecheckerboard="0"
     inkscape:deskcolor="#505050">
    <inkscape:page
       x="0"
       y="0"
       inkscape:label="1"
       id="page1"
       width="462.90668"
       height="413.78668"
       margin="0"
       bleed="0" />
  </sodipodi:namedview>
  <g
     id="g1"
     inkscape:groupmode="layer"
     inkscape:label="1">
    <path
       id="path1"
       d="M 0,0 C 0,-29.51 -23.889999,-53.439999 -53.360001,-53.439999 -82.830002,-53.439999 -106.72,-29.51 -106.72,0 c 0,29.51 23.889998,53.439999 53.359999,53.439999 C -23.889999,53.439999 0,29.51 0,0 Z"
       style="fill:none;stroke:#000000;stroke-width:26.4;stroke-linecap:round;stroke-linejoin:round;stroke-miterlimit:10;stroke-dasharray:none;stroke-opacity:1"
       transform="translate(436.18664,90.746619)"
       clip-path="url(#clipPath2)" />
    <path
       id="path3"
       d="M 164,419.67999 311.35999,386.88 344.16,534.40002 491.67999,501.60001 524.32001,648.96002 376.95999,681.76001"
       style="fill:none;stroke:#000000;stroke-width:26.4;stroke-linecap:round;stroke-linejoin:round;stroke-miterlimit:10;stroke-dasharray:none;stroke-opacity:1"
       transform="translate(-137.41333,-365.73339)"
       clip-path="url(#clipPath4)" />
    <path
       id="path5"
       d="m 0,0 -3.2,0.96 -3.36,1.12 -3.04,1.6 -3.04,1.76 -2.72,2.08 -2.72,2.24 -2.4,2.56 -2.079999,2.88 -1.920001,2.88 -1.6,3.040001 -1.280001,3.359999 -0.959999,3.36 -0.639999,3.360001 -0.480002,3.52 v 3.360001 l 0.32,3.519996 0.640001,3.520001 0.8,3.360001 1.28,3.2 1.440001,3.200001 1.919998,2.879997 2.080002,2.880001 2.24,2.560002 2.559999,2.399997 2.72,2.080002 3.04,1.919998 3.04,1.599999 3.2,1.280006 3.36,0.959999 3.52,0.799996 3.36,0.32 H 9.6 l 3.52,-0.32 3.36,-0.64"
       style="fill:none;stroke:#000000;stroke-width:26.4;stroke-linecap:round;stroke-linejoin:round;stroke-miterlimit:10;stroke-dasharray:none;stroke-opacity:1"
       transform="translate(239.38665,316.02662)"
       clip-path="url(#clipPath6)" />
  </g>
</svg>
