<?xml version="1.0" encoding="UTF-8" standalone="no"?>
<!-- Created with Inkscape (http://www.inkscape.org/) -->

<svg
   version="1.1"
   id="svg1"
   width="484.26666"
   height="336.37332"
   viewBox="0 0 484.26666 336.37332"
   sodipodi:docname="Nitre7.pdf"
   xmlns:inkscape="http://www.inkscape.org/namespaces/inkscape"
   xmlns:sodipodi="http://sodipodi.sourceforge.net/DTD/sodipodi-0.dtd"
   xmlns="http://www.w3.org/2000/svg"
   xmlns:svg="http://www.w3.org/2000/svg">
  <defs
     id="defs1">
    <clipPath
       clipPathUnits="userSpaceOnUse"
       id="clipPath2">
      <path
         d="M 0,0.16 V 1122.5601 H 793.59998 V 0.16 Z"
         transform="translate(-494.72,-568)"
         clip-rule="evenodd"
         id="path2" />
    </clipPath>
    <clipPath
       clipPathUnits="userSpaceOnUse"
       id="clipPath4">
      <path
         d="M 0,0.16 V 1122.5601 H 793.59998 V 0.16 Z"
         transform="translate(-324.16,-623.52002)"
         clip-rule="evenodd"
         id="path4" />
    </clipPath>
    <clipPath
       clipPathUnits="userSpaceOnUse"
       id="clipPath6">
      <path
         d="M 0,0.16 V 1122.5601 H 793.59998 V 0.16 Z"
         transform="translate(-399.20001,-565.59997)"
         clip-rule="evenodd"
         id="path6" />
    </clipPath>
    <clipPath
       clipPathUnits="userSpaceOnUse"
       id="clipPath8">
      <path
         d="M 0,0.16 V 1122.5601 H 793.59998 V 0.16 Z"
         clip-rule="evenodd"
         id="path8" />
    </clipPath>
    <clipPath
       clipPathUnits="userSpaceOnUse"
       id="clipPath10">
      <path
         d="M 0,0.16 V 1122.5601 H 793.59998 V 0.16 Z"
         transform="translate(-240.96001,-498.88)"
         clip-rule="evenodd"
         id="path10" />
    </clipPath>
    <clipPath
       clipPathUnits="userSpaceOnUse"
       id="clipPath12">
      <path
         d="M 0,0.16 V 1122.5601 H 793.59998 V 0.16 Z"
         transform="translate(-282.56,-457.44)"
         clip-rule="evenodd"
         id="path12" />
    </clipPath>
    <clipPath
       clipPathUnits="userSpaceOnUse"
       id="clipPath14">
      <path
         d="M 0,0.16 V 1122.5601 H 793.59998 V 0.16 Z"
         transform="translate(-531.67999,-665.11999)"
         clip-rule="evenodd"
         id="path14" />
    </clipPath>
  </defs>
  <sodipodi:namedview
     id="namedview1"
     pagecolor="#505050"
     bordercolor="#eeeeee"
     borderopacity="1"
     inkscape:showpageshadow="0"
     inkscape:pageopacity="0"
     inkscape:pagecheckerboard="0"
     inkscape:deskcolor="#505050">
    <inkscape:page
       x="0"
       y="0"
       inkscape:label="1"
       id="page1"
       width="484.26666"
       height="336.37332"
       margin="0"
       bleed="0" />
  </sodipodi:namedview>
  <g
     id="g1"
     inkscape:groupmode="layer"
     inkscape:label="1">
    <path
       id="path1"
       d="m 0,0 4.8,-3.2 4.32,-3.68 4.16,-3.84 3.840001,-4.16 3.519998,-4.480001 L 23.84,-24 26.719999,-28.799999 29.280001,-33.919998 31.52,-39.200001 33.439999,-44.48 34.880001,-49.919998 36,-55.52 l 0.799999,-5.599999 0.32,-5.759998 -0.16,-5.600006 -0.32,-5.759995 L 35.84,-83.839996 34.560001,-89.279999 32.959999,-94.720001 31.040001,-100.16 28.799999,-105.28 26.08,-110.4 23.040001,-115.2 19.84,-119.68 16.16,-124.16 12.32,-128.32001 8.16,-132 l -4.48,-3.67999 -4.64,-3.20001 -4.96,-2.87999 -4.96,-2.56002 -5.28,-2.23999 -5.44,-1.76001 -5.440001,-1.59999 -5.599998,-1.11999 -5.600003,-0.64 L -43.84,-152 h -5.759998 l -5.600003,0.48 -5.599998,0.8 -5.600003,1.28 -5.439994,1.44 -5.280007,2.08 -5.279999,2.24001 -4.959999,2.71998 -4.800003,2.88001 -4.639999,3.36 -4.319997,3.68001 -4.16,3.83999 -3.84,4.16 -3.52,4.48 -3.2,4.64 -2.88,4.96 -2.56,4.96 -2.24,5.279999 -1.92,5.440002 -1.44,5.440003 -1.12,5.599998 -0.64,5.599999 -0.32001,5.599998 v 5.760002 l 0.48001,5.599999 0.8,5.599998 1.28,5.600002 1.6,5.439999 1.92,5.280003 2.24,5.279998 2.72,4.96 3.04,4.800001 3.2,4.639999 3.68,4.32 4,4.16 4.160004,3.84 4.319999,3.36"
       style="fill:none;stroke:#000000;stroke-width:26.4;stroke-linecap:round;stroke-linejoin:round;stroke-miterlimit:10;stroke-dasharray:none;stroke-opacity:1"
       transform="translate(494.72,574.66661)"
       clip-path="url(#clipPath2)" />
    <path
       id="path3"
       d="M 0,0 10.88,0.48 21.6,0.32 32.32,-0.16 43.200001,-1.28 53.759998,-2.72 64.480003,-4.8 75.040001,-7.2 85.440002,-10.08 95.68,-13.44 l 10.08,-3.680001 9.92,-4.32 9.76,-4.639999 9.59999,-4.960001 9.28002,-5.599998 9.11999,-5.920002 8.8,-6.239998 8.32,-6.720001"
       style="fill:none;stroke:#000000;stroke-width:26.4;stroke-linecap:round;stroke-linejoin:round;stroke-miterlimit:10;stroke-dasharray:none;stroke-opacity:1"
       transform="translate(324.16,630.18663)"
       clip-path="url(#clipPath4)" />
    <path
       id="path5"
       d="m 0,0 8,6.88 8.32,6.56 8.479999,6.08 8.799999,5.600001 L 42.720001,30.4 52,35.360001 61.439999,39.68 l 9.759998,4 9.920006,3.520001 9.919998,3.040001 10.239999,2.719997 10.24,2.080002 10.4,1.759998 10.40001,1.119999 10.39999,0.800003 10.56,0.16 10.39999,-0.16 10.40001,-0.800003"
       style="fill:none;stroke:#000000;stroke-width:26.4;stroke-linecap:round;stroke-linejoin:round;stroke-miterlimit:10;stroke-dasharray:none;stroke-opacity:1"
       transform="translate(399.20001,572.26658)"
       clip-path="url(#clipPath6)" />
    <path
       id="path7"
       d="M 324.16,623.67999 H 241.11999"
       style="fill:none;stroke:#000000;stroke-width:26.4;stroke-linecap:round;stroke-linejoin:round;stroke-miterlimit:10;stroke-dasharray:none;stroke-opacity:1"
       transform="translate(0,6.666608)"
       clip-path="url(#clipPath8)" />
    <path
       id="path9"
       d="m 0,0 -4.8,0.32 -4.8,0.64 -4.8,0.96 -4.640001,1.28 -4.639999,1.6 -4.48,2.08 -4.32,2.4 -4,2.72 -3.84,3.04 -3.52,3.36 -3.360001,3.52 -3.040001,3.84 -2.719997,4.16 -2.400002,4.160002 -2.079998,4.479999 -1.600002,4.64 L -60.48,47.84 l -0.959999,4.799999 -0.479999,4.959999 -0.160004,4.800004 0.160004,4.959999 0.479999,4.800003 0.959999,4.799995 1.439999,4.639999 1.600002,4.64 2.079998,4.480003 2.400002,4.32 2.719997,4 3.040001,3.839999 3.360001,3.52 3.52,3.36 3.84,3.04 4,2.72 4.32,2.4 4.48,2.08 4.639999,1.6 4.640001,1.44 4.8,0.96 4.8,0.48 4.8,0.16"
       style="fill:none;stroke:#000000;stroke-width:26.4;stroke-linecap:round;stroke-linejoin:round;stroke-miterlimit:10;stroke-dasharray:none;stroke-opacity:1"
       transform="translate(240.96001,505.54661)"
       clip-path="url(#clipPath10)" />
    <path
       id="path11"
       d="m 0,0 -3.68,0.16 -3.84,0.64 -3.84,0.8 -3.52,1.28 -3.52,1.44 -3.36,1.92 -3.199999,2.24 -2.880001,2.4 -2.719999,2.72 -2.56,2.88 -2.080002,3.2 -1.919998,3.360001 -1.600002,3.519998 L -39.84,30.24 l -0.959999,3.679998 -0.48,3.84 -0.16,3.84 0.16,3.840001 0.48,3.68 0.959999,3.84 1.119999,3.68 1.600002,3.360001 1.919998,3.360001 2.080002,3.199997 2.56,3.04 L -27.84,72.32 l 2.880001,2.400001 3.199999,2.080002 3.36,1.919998 3.52,1.599999 3.52,1.120002 3.84,0.96 3.84,0.479995 3.68,0.160004"
       style="fill:none;stroke:#000000;stroke-width:26.4;stroke-linecap:round;stroke-linejoin:round;stroke-miterlimit:10;stroke-dasharray:none;stroke-opacity:1"
       transform="translate(282.56,464.10661)"
       clip-path="url(#clipPath12)" />
    <path
       id="path13"
       d="m 0,0 0.32,3.84 0.48,3.84 0.96,3.68 1.12,3.68 1.6,3.519999 L 6.4,21.92 8.48,25.120001 11.04,28 l 2.72,2.719999 2.879999,2.4 3.200001,2.240002 3.360001,1.759998 3.519998,1.600002 L 30.4,40 l 3.680002,0.799999 3.839996,0.64 3.84,0.159999 3.680001,-0.159999 3.84,-0.64 3.84,-0.799999 3.52,-1.279999 3.520001,-1.600002 3.36,-1.759998 3.200001,-2.240002 2.879997,-2.4 L 72.32,28 74.879997,25.120001 76.959999,21.92 78.879997,18.559999 80.480003,15.04 l 1.119995,-3.68 0.96,-3.68 0.480003,-3.84 0.159996,-3.84 -0.159996,-3.84 -0.480003,-3.84 -0.96,-3.68 -1.119995,-3.68 -1.600006,-3.519999 L 76.959999,-21.92 74.879997,-24.959999 72.32,-28 l -2.720002,-2.719999 -2.879997,-2.4 -3.200001,-2.240002 -3.36,-1.759998 -3.520001,-1.600002 -3.52,-1.279999 -3.84,-0.799999 -3.84,-0.48 -3.840001,-0.319999"
       style="fill:none;stroke:#000000;stroke-width:26.4;stroke-linecap:round;stroke-linejoin:round;stroke-miterlimit:10;stroke-dasharray:none;stroke-opacity:1"
       transform="translate(531.67999,671.7866)"
       clip-path="url(#clipPath14)" />
  </g>
</svg>
