<?xml version="1.0" encoding="UTF-8" standalone="no"?>
<!-- Created with Inkscape (http://www.inkscape.org/) -->

<svg
   version="1.1"
   id="svg1"
   width="509.60001"
   height="496.53333"
   viewBox="0 0 509.60001 496.53333"
   sodipodi:docname="Nitre36.pdf"
   xmlns:inkscape="http://www.inkscape.org/namespaces/inkscape"
   xmlns:sodipodi="http://sodipodi.sourceforge.net/DTD/sodipodi-0.dtd"
   xmlns="http://www.w3.org/2000/svg"
   xmlns:svg="http://www.w3.org/2000/svg">
  <defs
     id="defs1">
    <clipPath
       clipPathUnits="userSpaceOnUse"
       id="clipPath2">
      <path
         d="M 0,0.16 V 1122.5601 H 793.59998 V 0.16 Z"
         clip-rule="evenodd"
         id="path2" />
    </clipPath>
    <clipPath
       clipPathUnits="userSpaceOnUse"
       id="clipPath4">
      <path
         d="M 0,0.16 V 1122.5601 H 793.59998 V 0.16 Z"
         transform="translate(-359.04001,-636.79999)"
         clip-rule="evenodd"
         id="path4" />
    </clipPath>
    <clipPath
       clipPathUnits="userSpaceOnUse"
       id="clipPath6">
      <path
         d="M 0,0.16 V 1122.5601 H 793.59998 V 0.16 Z"
         clip-rule="evenodd"
         id="path6" />
    </clipPath>
    <clipPath
       clipPathUnits="userSpaceOnUse"
       id="clipPath8">
      <path
         d="M 0,0.16 V 1122.5601 H 793.59998 V 0.16 Z"
         clip-rule="evenodd"
         id="path8" />
    </clipPath>
    <clipPath
       clipPathUnits="userSpaceOnUse"
       id="clipPath10">
      <path
         d="M 0,0.16 V 1122.5601 H 793.59998 V 0.16 Z"
         transform="translate(-321.28,-334.72001)"
         clip-rule="evenodd"
         id="path10" />
    </clipPath>
    <clipPath
       clipPathUnits="userSpaceOnUse"
       id="clipPath12">
      <path
         d="M 0,0.16 V 1122.5601 H 793.59998 V 0.16 Z"
         transform="translate(-623.35998,-485.76001)"
         clip-rule="evenodd"
         id="path12" />
    </clipPath>
    <clipPath
       clipPathUnits="userSpaceOnUse"
       id="clipPath14">
      <path
         d="M 0,0.16 V 1122.5601 H 793.59998 V 0.16 Z"
         clip-rule="evenodd"
         id="path14" />
    </clipPath>
    <clipPath
       clipPathUnits="userSpaceOnUse"
       id="clipPath16">
      <path
         d="M 0,0.16 V 1122.5601 H 793.59998 V 0.16 Z"
         transform="translate(-623.35998,-485.76001)"
         clip-rule="evenodd"
         id="path16" />
    </clipPath>
  </defs>
  <sodipodi:namedview
     id="namedview1"
     pagecolor="#505050"
     bordercolor="#eeeeee"
     borderopacity="1"
     inkscape:showpageshadow="0"
     inkscape:pageopacity="0"
     inkscape:pagecheckerboard="0"
     inkscape:deskcolor="#505050">
    <inkscape:page
       x="0"
       y="0"
       inkscape:label="1"
       id="page1"
       width="509.60001"
       height="496.53333"
       margin="0"
       bleed="0" />
  </sodipodi:namedview>
  <g
     id="g1"
     inkscape:groupmode="layer"
     inkscape:label="1">
    <path
       id="path1"
       d="M 321.28,485.76001 V 787.84003"
       style="fill:none;stroke:#000000;stroke-width:26.4;stroke-linecap:round;stroke-linejoin:round;stroke-miterlimit:10;stroke-dasharray:none;stroke-opacity:1"
       transform="translate(0,1.3332747)"
       clip-path="url(#clipPath2)" />
    <path
       id="path3"
       d="M 0,0 5.44,-0.16 10.72,-0.8 16,-1.76 21.280001,-3.04 26.4,-4.64 31.360001,-6.72 36.16,-9.12 l 4.639999,-2.72 4.32,-3.2 4.32,-3.36 3.84,-3.52 3.68,-4 3.360001,-4.16 3.2,-4.480001 2.719998,-4.48 2.400001,-4.799999 2.080002,-4.959999 1.760002,-5.119999 1.279999,-5.280003 0.959999,-5.280002 0.64,-5.279999 0.159996,-5.439995 -0.159996,-5.280006 -0.480004,-5.439995 -0.959999,-5.279999 -1.279999,-5.120003 -1.760002,-5.12 -1.919998,-4.96 -2.400001,-4.96 L 63.84,-116 l -3.040001,-4.32 -3.36,-4.32 -3.680001,-3.84 -3.84,-3.68 -4.16,-3.51999 -4.479999,-3.04001 -4.48,-2.72 L 32,-144 27.040001,-146.08 21.92,-147.84 16.799999,-149.11999 11.52,-150.08 l -5.44,-0.64 -5.44,-0.31999"
       style="fill:none;stroke:#000000;stroke-width:26.4;stroke-linecap:round;stroke-linejoin:round;stroke-miterlimit:10;stroke-dasharray:none;stroke-opacity:1"
       transform="translate(359.04001,638.13326)"
       clip-path="url(#clipPath4)" />
    <path
       id="path5"
       d="m 321.28,485.76001 h 38.56"
       style="fill:none;stroke:#000000;stroke-width:26.4;stroke-linecap:round;stroke-linejoin:round;stroke-miterlimit:10;stroke-dasharray:none;stroke-opacity:1"
       transform="translate(0,1.3332747)"
       clip-path="url(#clipPath6)" />
    <path
       id="path7"
       d="m 321.28,636.79999 h 37.76001"
       style="fill:none;stroke:#000000;stroke-width:26.4;stroke-linecap:round;stroke-linejoin:round;stroke-miterlimit:10;stroke-dasharray:none;stroke-opacity:1"
       transform="translate(0,1.3332747)"
       clip-path="url(#clipPath8)" />
    <path
       id="path9"
       d="m 0,0 -8.16,0.32 -8.16,0.64 -8,1.12 -8.16,1.44 -7.84,2.08 -7.84,2.4 -7.68,2.72 -7.520001,3.2 -7.36,3.68 -7.040001,4 -6.879997,4.48 -6.720002,4.799999 L -97.760002,36 -103.84,41.439999 l -5.76,5.760002 -5.44,6.079998 -5.12,6.400001 -4.8,6.559998 -4.32,7.040001 -4.16,7.040001 -3.52001,7.36 -3.36,7.519997 -2.71998,7.680003 -2.40001,7.84 -2.08,7.84 -1.44001,8 -1.11999,8.16 -0.64,8.16 -0.31999,8.15999 0.31999,8.16001 0.64,8.16 1.11999,8.16 1.44001,8 2.08,8 2.40001,7.84 2.71998,7.67999 3.36,7.52001 3.52001,7.19999 4.16,7.20002 4.32,6.87999 4.8,6.55999 5.12,6.40001 5.44,6.08 5.76,5.76001 6.079998,5.59998 6.400001,5.12 6.720002,4.64001 6.879997,4.48001 7.040001,4 7.36,3.67999 7.520001,3.19999 7.68,2.88 7.84,2.40002 7.84,1.91999 8.16,1.6 8,1.12 8.16,0.64001 8.16,0.15998"
       style="fill:none;stroke:#000000;stroke-width:26.4;stroke-linecap:round;stroke-linejoin:round;stroke-miterlimit:10;stroke-dasharray:none;stroke-opacity:1"
       transform="translate(321.28,336.05328)"
       clip-path="url(#clipPath10)" />
    <path
       id="path11"
       d="m 0,0 -0.16,-8.16 -0.64,-8.16 -1.12,-8.16 -1.6,-8 -1.92,-7.84 -2.4,-7.84 -2.88,-7.68 -3.2,-7.520001 -3.68,-7.36 -4,-7.040001 -4.32,-7.040001 -4.799999,-6.559998 -5.120001,-6.400001 -5.439999,-6.079998 -5.920002,-5.76 -6.079998,-5.44 -6.240001,-5.12 -6.719998,-4.8 -6.880005,-4.48 -7.199997,-4 -7.199997,-3.67999 -7.520004,-3.20002 -7.679999,-2.71998 -7.84,-2.40001 -8,-2.08 -8,-1.44001 -8.16,-1.11999 -8.16,-0.64 -8.15999,-0.31999"
       style="fill:none;stroke:#000000;stroke-width:26.4;stroke-linecap:round;stroke-linejoin:round;stroke-miterlimit:10;stroke-dasharray:none;stroke-opacity:1"
       transform="translate(623.35998,487.09328)"
       clip-path="url(#clipPath12)" />
    <path
       id="path13"
       d="M 321.28,334.72 H 472.32001"
       style="fill:none;stroke:#000000;stroke-width:26.4;stroke-linecap:round;stroke-linejoin:round;stroke-miterlimit:10;stroke-dasharray:none;stroke-opacity:1"
       transform="translate(0,1.3332747)"
       clip-path="url(#clipPath14)" />
    <path
       id="path15"
       d="M 0,0 -5.28,0.16 -10.72,0.8 -16,1.76 -21.280001,3.04 -26.4,4.8 -31.360001,6.88 -36.16,9.28 -40.799999,12 l -4.48,3.04 -4.16,3.36 -4,3.68 -3.52,4 -3.520001,4.16 -3.04,4.480001 -2.719998,4.64 -2.400001,4.799999 -2.080002,4.959999 -1.760002,5.120003 -1.279999,5.279998 -0.959999,5.280003 -0.64,5.279999 -0.159996,5.439995 0.159996,5.440002 0.64,5.279999 0.959999,5.279999 1.279999,5.280006 1.760002,5.119997 2.080002,4.96 2.400001,4.8 2.719998,4.64 3.04,4.48 3.520001,4.16 3.52,4.00001 4,3.67999 4.16,3.36 4.48,3.03999 4.639999,2.72 4.799999,2.40001 4.960001,2.08 5.119999,1.76 5.280001,1.28 5.28,0.96 5.44,0.64 5.28,0.15999"
       style="fill:none;stroke:#000000;stroke-width:26.4;stroke-linecap:round;stroke-linejoin:round;stroke-miterlimit:10;stroke-dasharray:none;stroke-opacity:1"
       transform="translate(623.35998,487.09328)"
       clip-path="url(#clipPath16)" />
  </g>
</svg>
