<?xml version="1.0" encoding="UTF-8" standalone="no"?>
<!-- Created with Inkscape (http://www.inkscape.org/) -->

<svg
   version="1.1"
   id="svg1"
   width="488.26666"
   height="312.34668"
   viewBox="0 0 488.26666 312.34668"
   sodipodi:docname="Potash28.pdf"
   xmlns:inkscape="http://www.inkscape.org/namespaces/inkscape"
   xmlns:sodipodi="http://sodipodi.sourceforge.net/DTD/sodipodi-0.dtd"
   xmlns="http://www.w3.org/2000/svg"
   xmlns:svg="http://www.w3.org/2000/svg">
  <defs
     id="defs1">
    <clipPath
       clipPathUnits="userSpaceOnUse"
       id="clipPath2">
      <path
         d="M 0,0.16 V 1122.5601 H 793.59998 V 0.16 Z"
         transform="translate(-556.47998,-561.28003)"
         clip-rule="evenodd"
         id="path2" />
    </clipPath>
    <clipPath
       clipPathUnits="userSpaceOnUse"
       id="clipPath4">
      <path
         d="M 0,0.16 V 1122.5601 H 793.59998 V 0.16 Z"
         transform="translate(-428.64001,-561.28003)"
         clip-rule="evenodd"
         id="path4" />
    </clipPath>
    <clipPath
       clipPathUnits="userSpaceOnUse"
       id="clipPath6">
      <path
         d="M 0,0.16 V 1122.5601 H 793.59998 V 0.16 Z"
         transform="translate(-428.64001,-561.28003)"
         clip-rule="evenodd"
         id="path6" />
    </clipPath>
    <clipPath
       clipPathUnits="userSpaceOnUse"
       id="clipPath8">
      <path
         d="M 0,0.16 V 1122.5601 H 793.59998 V 0.16 Z"
         transform="translate(-300.95999,-561.28003)"
         clip-rule="evenodd"
         id="path8" />
    </clipPath>
    <clipPath
       clipPathUnits="userSpaceOnUse"
       id="clipPath10">
      <path
         d="M 0,0.16 V 1122.5601 H 793.59998 V 0.16 Z"
         transform="translate(-300.95999,-561.28003)"
         clip-rule="evenodd"
         id="path10" />
    </clipPath>
    <clipPath
       clipPathUnits="userSpaceOnUse"
       id="clipPath12">
      <path
         d="M 0,0.16 V 1122.5601 H 793.59998 V 0.16 Z"
         transform="translate(-620.15997,-561.28003)"
         clip-rule="evenodd"
         id="path12" />
    </clipPath>
  </defs>
  <sodipodi:namedview
     id="namedview1"
     pagecolor="#505050"
     bordercolor="#eeeeee"
     borderopacity="1"
     inkscape:showpageshadow="0"
     inkscape:pageopacity="0"
     inkscape:pagecheckerboard="0"
     inkscape:deskcolor="#505050">
    <inkscape:page
       x="0"
       y="0"
       inkscape:label="1"
       id="page1"
       width="488.26666"
       height="312.34668"
       margin="0"
       bleed="0" />
  </sodipodi:namedview>
  <g
     id="g1"
     inkscape:groupmode="layer"
     inkscape:label="1">
    <path
       id="path1"
       d="m 0,0 c 0,-72.809998 -57.16,-131.84 -127.68,-131.84 -70.52,0 -127.68,59.030002 -127.68,131.84 0,72.809998 57.16,131.84 127.68,131.84 C -57.16,131.84 0,72.809998 0,0 Z"
       style="fill:none;stroke:#000000;stroke-width:26.4;stroke-linecap:round;stroke-linejoin:round;stroke-miterlimit:10;stroke-dasharray:none;stroke-opacity:1"
       transform="translate(556.47998,554.6133)"
       clip-path="url(#clipPath2)" />
    <path
       id="path3"
       d="m 0,0 0.32,6.56 0.64,6.4 0.96,6.400001 L 3.36,25.6 5.28,31.84 7.36,37.919998 9.92,43.84 l 3.04,5.599999 3.36,5.600002 3.52,5.119999 4,5.119999 4.32,4.639999 4.639999,4.480004 4.799999,4.159996 5.120003,3.68 L 48,85.760002 l 5.439999,3.040001 5.760002,2.559998 5.920002,2.400001 5.919998,1.759995 6.080002,1.440002 6.239998,1.120003 6.239997,0.639999 6.239998,0.159996 6.240004,-0.159996 6.24,-0.639999 6.24,-1.120003 6.08,-1.440002 5.92,-1.759995 5.92,-2.400001 5.76,-2.559998 5.43999,-3.040001 5.44,-3.520004 4.96001,-3.68 4.95999,-4.159996 4.48001,-4.480004 4.32,-4.639999 4,-5.119999 3.68,-5.119999 3.2,-5.600002 L 181.75999,43.84 184.32001,37.919998 186.56,31.84 188.32001,25.6 189.75999,19.360001 190.72,12.96 191.36,6.56 191.52,0"
       style="fill:none;stroke:#000000;stroke-width:26.4;stroke-linecap:round;stroke-linejoin:round;stroke-miterlimit:10;stroke-dasharray:none;stroke-opacity:1"
       transform="translate(428.64001,554.6133)"
       clip-path="url(#clipPath4)" />
    <path
       id="path5"
       d="m 0,0 v -3.2 l -0.48,-3.2 -0.8,-3.2 -0.96,-3.04 -1.44,-2.88 -1.6,-2.72 -1.92,-2.719999 -2.08,-2.400002 -2.24,-2.08 -2.56,-1.92 -2.719999,-1.76 L -19.52,-30.4 l -3.039999,-1.12 -3.040001,-0.8 -3.039999,-0.479999 -3.200001,-0.16 -3.040001,0.16 -3.200001,0.479999 -3.039997,0.8 L -44,-30.4 l -2.880001,1.279999 -2.559998,1.76 -2.560001,1.92 -2.400002,2.08 L -56.48,-20.959999 -58.400002,-18.24 -60,-15.52 l -1.279999,2.88 -1.120003,3.04 -0.639999,3.2 L -63.52,-3.2 -63.84,0"
       style="fill:none;stroke:#000000;stroke-width:26.4;stroke-linecap:round;stroke-linejoin:round;stroke-miterlimit:10;stroke-dasharray:none;stroke-opacity:1"
       transform="translate(428.64001,554.6133)"
       clip-path="url(#clipPath6)" />
    <path
       id="path7"
       d="m 0,0 0.32,3.2 0.48,3.2 0.8,3.2 0.96,3.04 1.44,2.88 1.6,2.88 1.76,2.559999 2.08,2.400002 2.4,2.08 2.56,1.92 2.559999,1.76 L 19.84,30.559999 22.879999,31.52 25.92,32.32 l 3.039999,0.479999 3.040001,0.16 3.200001,-0.16 3.040001,-0.479999 3.039997,-0.8 3.040001,-0.960001 2.720001,-1.439998 2.719997,-1.76 2.560002,-1.92 2.240001,-2.08 2.239998,-2.400002 L 58.560001,18.4 60.16,15.52 l 1.439998,-2.88 0.960003,-3.04 0.8,-3.2 L 63.84,3.2 V 0"
       style="fill:none;stroke:#000000;stroke-width:26.4;stroke-linecap:round;stroke-linejoin:round;stroke-miterlimit:10;stroke-dasharray:none;stroke-opacity:1"
       transform="translate(300.95999,554.6133)"
       clip-path="url(#clipPath8)" />
    <path
       id="path9"
       d="m 0,0 v -4.96 l -0.48,-4.8 -0.96,-4.96 -1.28,-4.640001 L -4.32,-24 l -1.92,-4.639999 -2.08,-4.32 -2.56,-4.16 -2.88,-4 -3.199999,-3.68 L -20.32,-48.32 l -3.52,-3.2 -3.84,-2.880002 -4,-2.719997 -4.32,-2.240002 -4.32,-2.079998 -4.479999,-1.600002 -4.64,-1.279999 -4.640003,-0.800003 -4.799999,-0.639999 -4.799999,-0.159996 -4.800003,0.159996 -4.64,0.639999 -4.799995,0.800003 -4.64,1.279999 -4.480003,1.600002 -4.32,2.079998 -4.159996,2.240002 -4.160003,2.719997 -3.84,2.880002 -3.52,3.2 -3.36,3.520001 -3.2,3.68 -2.88,4 -2.4,4.16 -2.24,4.32 -1.92,4.639999 -1.6,4.639999 -1.28,4.640001 -0.8,4.96 -0.64,4.8 -0.16,4.96"
       style="fill:none;stroke:#000000;stroke-width:26.4;stroke-linecap:round;stroke-linejoin:round;stroke-miterlimit:10;stroke-dasharray:none;stroke-opacity:1"
       transform="translate(300.95999,554.6133)"
       clip-path="url(#clipPath10)" />
    <path
       id="path11"
       d="m 0,0 v -1.92 l -0.32,-1.92 -0.64,-1.92 -0.8,-1.76 -0.96,-1.76 -1.12,-1.6 -1.28,-1.28 -1.6,-1.28 -1.6,-0.96 -1.76,-0.96 -1.76,-0.64 -1.92,-0.32 -1.76,-0.16 -1.920001,0.16 -1.92,0.32 -1.76,0.48 -1.759998,0.8 -1.76,0.96 -1.440001,1.12 -1.44,1.44 -1.279999,1.44 -0.960001,1.6 -0.799999,1.76 -0.640002,1.92 -0.479999,1.92 -0.16,1.92 v 2.08 l 0.32,1.92 0.479999,1.92 L -30.4,7.04 -29.440001,8.8 -28.32,10.24"
       style="fill:none;stroke:#000000;stroke-width:26.4;stroke-linecap:round;stroke-linejoin:round;stroke-miterlimit:10;stroke-dasharray:none;stroke-opacity:1"
       transform="translate(620.15997,554.6133)"
       clip-path="url(#clipPath12)" />
  </g>
</svg>
