<?xml version="1.0" encoding="UTF-8" standalone="no"?>
<!-- Created with Inkscape (http://www.inkscape.org/) -->

<svg
   version="1.1"
   id="svg1"
   width="500.26666"
   height="501.88"
   viewBox="0 0 500.26666 501.88"
   sodipodi:docname="Potash11.pdf"
   xmlns:inkscape="http://www.inkscape.org/namespaces/inkscape"
   xmlns:sodipodi="http://sodipodi.sourceforge.net/DTD/sodipodi-0.dtd"
   xmlns="http://www.w3.org/2000/svg"
   xmlns:svg="http://www.w3.org/2000/svg">
  <defs
     id="defs1">
    <clipPath
       clipPathUnits="userSpaceOnUse"
       id="clipPath2">
      <path
         d="M 0,0.16 V 1122.5601 H 793.59998 V 0.16 Z"
         clip-rule="evenodd"
         id="path2" />
    </clipPath>
    <clipPath
       clipPathUnits="userSpaceOnUse"
       id="clipPath4">
      <path
         d="M 0,0.16 V 1122.5601 H 793.59998 V 0.16 Z"
         transform="translate(-549.12,-561.91998)"
         clip-rule="evenodd"
         id="path4" />
    </clipPath>
    <clipPath
       clipPathUnits="userSpaceOnUse"
       id="clipPath6">
      <path
         d="M 0,0.16 V 1122.5601 H 793.59998 V 0.16 Z"
         clip-rule="evenodd"
         id="path6" />
    </clipPath>
    <clipPath
       clipPathUnits="userSpaceOnUse"
       id="clipPath8">
      <path
         d="M 0,0.16 V 1122.5601 H 793.59998 V 0.16 Z"
         clip-rule="evenodd"
         id="path8" />
    </clipPath>
  </defs>
  <sodipodi:namedview
     id="namedview1"
     pagecolor="#505050"
     bordercolor="#eeeeee"
     borderopacity="1"
     inkscape:showpageshadow="0"
     inkscape:pageopacity="0"
     inkscape:pagecheckerboard="0"
     inkscape:deskcolor="#505050">
    <inkscape:page
       x="0"
       y="0"
       inkscape:label="1"
       id="page1"
       width="500.26666"
       height="501.88"
       margin="0"
       bleed="0" />
  </sodipodi:namedview>
  <g
     id="g1"
     inkscape:groupmode="layer"
     inkscape:label="1">
    <path
       id="path1"
       d="M 170.24,561.91998 H 623.35998"
       style="fill:none;stroke:#000000;stroke-width:26.4;stroke-linecap:round;stroke-linejoin:round;stroke-miterlimit:10;stroke-dasharray:none;stroke-opacity:1"
       transform="translate(-144.08,-385.76006)"
       clip-path="url(#clipPath2)" />
    <path
       id="path3"
       d="m 0,0 -0.32,-8.32 -0.64,-8.16 -1.12,-8.159999 -1.6,-8.16 -1.92,-8 -2.4,-7.84 -2.88,-7.680001 -3.2,-7.68 -3.68,-7.360001 -4.16,-7.199997 -4.32,-6.880004 -4.800001,-6.720002 L -36.32,-98.559998 -41.759998,-104.64 -47.52,-110.56 -53.759998,-116 -60.16,-121.28 l -6.719997,-4.8 -6.880005,-4.31999 -7.199997,-4.16001 -7.360001,-3.68 -7.68,-3.2 -7.68,-2.88001 -7.84,-2.39999 -8,-1.92 -8.16,-1.6 -8.16,-1.12 -8.16,-0.64 -8.32001,-0.16 -8.15999,0.16 -8.32,0.64 -8.16001,1.12 -8,1.6 -8,1.92 -7.83999,2.39999 -7.84,2.88001 -7.52,3.2 -7.36,3.68 -7.2,4.16001 -7.03999,4.31999 -6.56002,4.8 -6.55999,5.28 -6.07999,5.44 -5.76001,5.92 -5.60001,6.080002 -5.11999,6.399994 -4.79999,6.720002 -4.48001,6.880004 -4,7.199997 -3.67999,7.360001 -3.20002,7.68 -2.88,7.680001 -2.39999,7.84 -2.07999,8 -1.44,8.16 -1.12,8.159999 -0.80002,8.16 -0.16,8.32"
       style="fill:none;stroke:#000000;stroke-width:26.4;stroke-linecap:round;stroke-linejoin:round;stroke-miterlimit:10;stroke-dasharray:none;stroke-opacity:1"
       transform="translate(405.04,176.15992)"
       clip-path="url(#clipPath4)" />
    <path
       id="path5"
       d="M 208,561.91998 V 864"
       style="fill:none;stroke:#000000;stroke-width:26.4;stroke-linecap:round;stroke-linejoin:round;stroke-miterlimit:10;stroke-dasharray:none;stroke-opacity:1"
       transform="translate(-144.08,-385.76006)"
       clip-path="url(#clipPath6)" />
    <path
       id="path7"
       d="M 585.59998,561.91998 V 864"
       style="fill:none;stroke:#000000;stroke-width:26.4;stroke-linecap:round;stroke-linejoin:round;stroke-miterlimit:10;stroke-dasharray:none;stroke-opacity:1"
       transform="translate(-144.08,-385.76006)"
       clip-path="url(#clipPath8)" />
  </g>
</svg>
