<?xml version="1.0" encoding="UTF-8" standalone="no"?>
<!-- Created with Inkscape (http://www.inkscape.org/) -->

<svg
   version="1.1"
   id="svg1"
   width="504.26666"
   height="495.20001"
   viewBox="0 0 504.26666 495.20001"
   sodipodi:docname="Potash24.pdf"
   xmlns:inkscape="http://www.inkscape.org/namespaces/inkscape"
   xmlns:sodipodi="http://sodipodi.sourceforge.net/DTD/sodipodi-0.dtd"
   xmlns="http://www.w3.org/2000/svg"
   xmlns:svg="http://www.w3.org/2000/svg">
  <defs
     id="defs1">
    <clipPath
       clipPathUnits="userSpaceOnUse"
       id="clipPath2">
      <path
         d="M 0,0.16 V 1122.5601 H 793.59998 V 0.16 Z"
         transform="translate(-3.3333333e-6)"
         clip-rule="evenodd"
         id="path2" />
    </clipPath>
    <clipPath
       clipPathUnits="userSpaceOnUse"
       id="clipPath4">
      <path
         d="M 0,0.16 V 1122.5601 H 793.59998 V 0.16 Z"
         transform="translate(-3.3333333e-6)"
         clip-rule="evenodd"
         id="path4" />
    </clipPath>
    <clipPath
       clipPathUnits="userSpaceOnUse"
       id="clipPath6">
      <path
         d="M 0,0.16 V 1122.5601 H 793.59998 V 0.16 Z"
         transform="translate(-321.28,-759.52002)"
         clip-rule="evenodd"
         id="path6" />
    </clipPath>
    <clipPath
       clipPathUnits="userSpaceOnUse"
       id="clipPath8">
      <path
         d="M 0,0.16 V 1122.5601 H 793.59998 V 0.16 Z"
         transform="translate(-245.75999,-721.76001)"
         clip-rule="evenodd"
         id="path8" />
    </clipPath>
    <clipPath
       clipPathUnits="userSpaceOnUse"
       id="clipPath10">
      <path
         d="M 0,0.16 V 1122.5601 H 793.59998 V 0.16 Z"
         transform="translate(-3.3333333e-6)"
         clip-rule="evenodd"
         id="path10" />
    </clipPath>
  </defs>
  <sodipodi:namedview
     id="namedview1"
     pagecolor="#505050"
     bordercolor="#eeeeee"
     borderopacity="1"
     inkscape:showpageshadow="0"
     inkscape:pageopacity="0"
     inkscape:pagecheckerboard="0"
     inkscape:deskcolor="#505050">
    <inkscape:page
       x="0"
       y="0"
       inkscape:label="1"
       id="page1"
       width="504.26666"
       height="495.20001"
       margin="0"
       bleed="0" />
  </sodipodi:namedview>
  <g
     id="g1"
     inkscape:groupmode="layer"
     inkscape:label="1">
    <path
       id="path1"
       d="M 396.79999,561.28003 H 585.59998"
       style="fill:none;stroke:#000000;stroke-width:26.4;stroke-linecap:round;stroke-linejoin:round;stroke-miterlimit:10;stroke-dasharray:none;stroke-opacity:1"
       transform="translate(-145.41333,-315.01339)"
       clip-path="url(#clipPath2)" />
    <path
       id="path3"
       d="M 170.24,344.16 H 321.28"
       style="fill:none;stroke:#000000;stroke-width:26.4;stroke-linecap:round;stroke-linejoin:round;stroke-miterlimit:10;stroke-dasharray:none;stroke-opacity:1"
       transform="translate(-145.41333,-315.01339)"
       clip-path="url(#clipPath4)" />
    <path
       id="path5"
       d="m 0,0 7.84,-9.76 7.52,-10.08 7.04,-10.4 6.720001,-10.559999 6.24,-10.880001 5.919998,-11.040001 5.280002,-11.360001 4.959999,-11.36 4.64,-11.839997 4,-11.840001 3.52,-12 3.199997,-11.99999 2.720001,-12.32001 2.080002,-12.31999 1.760002,-12.48001 1.119996,-12.48 0.800003,-12.48 0.159996,-12.47999 -0.159996,-12.48001 -0.800003,-12.64 -1.119996,-12.31999 -1.760002,-12.48002 -2.080002,-12.32 -2.720001,-12.31998 -3.199997,-12.16 -3.52,-12 -4,-11.84 -4.64,-11.68002 -4.959999,-11.51999 -5.280002,-11.20001 -5.919998,-11.19999 -6.24,-10.72 L 22.4,-385.28 15.36,-395.51999 7.84,-405.60001 0,-415.35999"
       style="fill:none;stroke:#000000;stroke-width:26.4;stroke-linecap:round;stroke-linejoin:round;stroke-miterlimit:10;stroke-dasharray:none;stroke-opacity:1"
       transform="translate(175.86667,444.50663)"
       clip-path="url(#clipPath6)" />
    <path
       id="path7"
       d="m 0,0 -0.96,3.52 -0.8,3.68 -0.48,3.68 -0.16,3.68 0.32,3.84 0.48,3.68 0.8,3.52 1.12,3.680001 1.6,3.359998 1.76,3.200001 1.92,3.200001 2.4,2.879997 2.56,2.720001 2.72,2.560002 3.04,2.239998 3.2,1.920002 3.359999,1.599998 3.360001,1.440003 3.68,0.959999 3.679998,0.799999 3.680001,0.479999 h 3.68 L 44.639999,56.48 48.32,55.84 52,55.040001 55.52,53.759998 58.880001,52.32 62.240002,50.560001 65.279999,48.48 68.160004,46.080002 70.879997,43.52 l 2.560005,-2.720001 2.079995,-3.040001"
       style="fill:none;stroke:#000000;stroke-width:26.4;stroke-linecap:round;stroke-linejoin:round;stroke-miterlimit:10;stroke-dasharray:none;stroke-opacity:1"
       transform="translate(100.34666,406.74662)"
       clip-path="url(#clipPath8)" />
    <path
       id="path9"
       d="M 623.35998,334.72 547.84003,787.84003"
       style="fill:none;stroke:#000000;stroke-width:26.4;stroke-linecap:round;stroke-linejoin:round;stroke-miterlimit:10;stroke-dasharray:none;stroke-opacity:1"
       transform="translate(-145.41333,-315.01339)"
       clip-path="url(#clipPath10)" />
  </g>
</svg>
