<?xml version="1.0" encoding="UTF-8" standalone="no"?>
<!-- Created with Inkscape (http://www.inkscape.org/) -->

<svg
   version="1.1"
   id="svg1"
   width="501.60001"
   height="365.73334"
   viewBox="0 0 501.60001 365.73334"
   sodipodi:docname="Potash22.pdf"
   xmlns:inkscape="http://www.inkscape.org/namespaces/inkscape"
   xmlns:sodipodi="http://sodipodi.sourceforge.net/DTD/sodipodi-0.dtd"
   xmlns="http://www.w3.org/2000/svg"
   xmlns:svg="http://www.w3.org/2000/svg">
  <defs
     id="defs1">
    <clipPath
       clipPathUnits="userSpaceOnUse"
       id="clipPath2">
      <path
         d="M 0,0.16 V 1122.5601 H 793.59998 V 0.16 Z"
         clip-rule="evenodd"
         id="path2" />
    </clipPath>
    <clipPath
       clipPathUnits="userSpaceOnUse"
       id="clipPath4">
      <path
         d="M 0,0.16 V 1122.5601 H 793.59998 V 0.16 Z"
         clip-rule="evenodd"
         id="path4" />
    </clipPath>
    <clipPath
       clipPathUnits="userSpaceOnUse"
       id="clipPath6">
      <path
         d="M 0,0.16 V 1122.5601 H 793.59998 V 0.16 Z"
         clip-rule="evenodd"
         id="path6" />
    </clipPath>
    <clipPath
       clipPathUnits="userSpaceOnUse"
       id="clipPath8">
      <path
         d="M 0,0.16 V 1122.5601 H 793.59998 V 0.16 Z"
         clip-rule="evenodd"
         id="path8" />
    </clipPath>
    <clipPath
       clipPathUnits="userSpaceOnUse"
       id="clipPath10">
      <path
         d="M 0,0.16 V 1122.5601 H 793.59998 V 0.16 Z"
         transform="translate(-396.79999,-721.91999)"
         clip-rule="evenodd"
         id="path10" />
    </clipPath>
    <clipPath
       clipPathUnits="userSpaceOnUse"
       id="clipPath12">
      <path
         d="M 0,0.16 V 1122.5601 H 793.59998 V 0.16 Z"
         transform="translate(-547.84003,-419.84)"
         clip-rule="evenodd"
         id="path12" />
    </clipPath>
  </defs>
  <sodipodi:namedview
     id="namedview1"
     pagecolor="#505050"
     bordercolor="#eeeeee"
     borderopacity="1"
     inkscape:showpageshadow="0"
     inkscape:pageopacity="0"
     inkscape:pagecheckerboard="0"
     inkscape:deskcolor="#505050">
    <inkscape:page
       x="0"
       y="0"
       inkscape:label="1"
       id="page1"
       width="501.60001"
       height="365.73334"
       margin="0"
       bleed="0" />
  </sodipodi:namedview>
  <g
     id="g1"
     inkscape:groupmode="layer"
     inkscape:label="1">
    <path
       id="path1"
       d="M 170.24,570.88 H 623.35998"
       style="fill:none;stroke:#000000;stroke-width:26.4;stroke-linecap:round;stroke-linejoin:round;stroke-miterlimit:10;stroke-dasharray:none;stroke-opacity:1"
       transform="translate(-144.08,-377.74673)"
       clip-path="url(#clipPath2)" />
    <path
       id="path3"
       d="M 245.75999,721.91998 V 419.84"
       style="fill:none;stroke:#000000;stroke-width:26.4;stroke-linecap:round;stroke-linejoin:round;stroke-miterlimit:10;stroke-dasharray:none;stroke-opacity:1"
       transform="translate(-144.08,-377.74673)"
       clip-path="url(#clipPath4)" />
    <path
       id="path5"
       d="m 245.75999,419.84 h 151.04"
       style="fill:none;stroke:#000000;stroke-width:26.4;stroke-linecap:round;stroke-linejoin:round;stroke-miterlimit:10;stroke-dasharray:none;stroke-opacity:1"
       transform="translate(-144.08,-377.74673)"
       clip-path="url(#clipPath6)" />
    <path
       id="path7"
       d="M 396.79999,419.84 V 721.91998"
       style="fill:none;stroke:#000000;stroke-width:26.4;stroke-linecap:round;stroke-linejoin:round;stroke-miterlimit:10;stroke-dasharray:none;stroke-opacity:1"
       transform="translate(-144.08,-377.74673)"
       clip-path="url(#clipPath8)" />
    <path
       id="path9"
       d="m 0,0 10.72,-6.4 10.239999,-6.72 10.080002,-7.2 9.759998,-7.52 9.440003,-8 8.959999,-8.32 L 68,-52.959999 l 8.480003,-8.959999 8,-9.440003 L 92,-81.120003 99.360001,-91.040001 106.08,-101.44 l 6.4,-10.56 5.92,-10.72 5.6,-11.03999 5.11999,-11.20002 4.48002,-11.51999 4.15998,-11.68 3.68001,-11.68 3.2,-12 2.72,-12 2.24001,-12.16 1.59999,-12.16 1.28,-12.32 0.8,-12.32 0.16,-12.32 -0.32001,-12.32 -0.79998,-12.32001 -1.28002,-12.31998"
       style="fill:none;stroke:#000000;stroke-width:26.4;stroke-linecap:round;stroke-linejoin:round;stroke-miterlimit:10;stroke-dasharray:none;stroke-opacity:1"
       transform="translate(252.71999,344.17326)"
       clip-path="url(#clipPath10)" />
    <path
       id="path11"
       d="m 0,0 -0.48,-2.4 -0.8,-2.4 -0.96,-2.24 -1.28,-2.24 -1.44,-1.92 -1.76,-1.76 -1.76,-1.6 -2.08,-1.44 -2.24,-1.120001 -2.24,-0.959999 -2.400001,-0.639999 -2.399999,-0.320002 h -2.56 l -2.399999,0.160002 L -27.360001,-18.4 -29.6,-17.76 -31.84,-16.799999 -34.080002,-15.52 -36,-14.08 l -1.919998,1.6 -1.600002,1.92 -1.439999,2.08 -1.120003,2.08 -0.959999,2.4 -0.639999,2.4 -0.48,2.4 v 2.4 l 0.16,2.56 0.32,2.4 0.799999,2.4 0.960003,2.24 1.119999,2.24 1.439998,1.919999 1.600003,1.92"
       style="fill:none;stroke:#000000;stroke-width:26.4;stroke-linecap:round;stroke-linejoin:round;stroke-miterlimit:10;stroke-dasharray:none;stroke-opacity:1"
       transform="translate(403.76003,42.093271)"
       clip-path="url(#clipPath12)" />
  </g>
</svg>
