<?xml version="1.0" encoding="UTF-8" standalone="no"?>
<!-- Created with Inkscape (http://www.inkscape.org/) -->

<svg
   version="1.1"
   id="svg1"
   width="537.61334"
   height="503.22668"
   viewBox="0 0 537.61334 503.22668"
   sodipodi:docname="Potash29.pdf"
   xmlns:inkscape="http://www.inkscape.org/namespaces/inkscape"
   xmlns:sodipodi="http://sodipodi.sourceforge.net/DTD/sodipodi-0.dtd"
   xmlns="http://www.w3.org/2000/svg"
   xmlns:svg="http://www.w3.org/2000/svg">
  <defs
     id="defs1">
    <clipPath
       clipPathUnits="userSpaceOnUse"
       id="clipPath2">
      <path
         d="M 0,0.16 V 1122.5601 H 793.59998 V 0.16 Z"
         transform="translate(-276.16001,-429.20001)"
         clip-rule="evenodd"
         id="path2" />
    </clipPath>
    <clipPath
       clipPathUnits="userSpaceOnUse"
       id="clipPath4">
      <path
         d="M 0,0.16 V 1122.5601 H 793.59998 V 0.16 Z"
         transform="translate(-181.28,-491.67999)"
         clip-rule="evenodd"
         id="path4" />
    </clipPath>
    <clipPath
       clipPathUnits="userSpaceOnUse"
       id="clipPath6">
      <path
         d="M 0,0.16 V 1122.5601 H 793.59998 V 0.16 Z"
         transform="translate(-321.44001,-540)"
         clip-rule="evenodd"
         id="path6" />
    </clipPath>
    <clipPath
       clipPathUnits="userSpaceOnUse"
       id="clipPath8">
      <path
         d="M 0,0.16 V 1122.5601 H 793.59998 V 0.16 Z"
         transform="translate(-321.44001,-540)"
         clip-rule="evenodd"
         id="path8" />
    </clipPath>
    <clipPath
       clipPathUnits="userSpaceOnUse"
       id="clipPath10">
      <path
         d="M 0,0.16 V 1122.5601 H 793.59998 V 0.16 Z"
         transform="translate(3.3333334e-6)"
         clip-rule="evenodd"
         id="path10" />
    </clipPath>
  </defs>
  <sodipodi:namedview
     id="namedview1"
     pagecolor="#505050"
     bordercolor="#eeeeee"
     borderopacity="1"
     inkscape:showpageshadow="0"
     inkscape:pageopacity="0"
     inkscape:pagecheckerboard="0"
     inkscape:deskcolor="#505050">
    <inkscape:page
       x="0"
       y="0"
       inkscape:label="1"
       id="page1"
       width="537.61334"
       height="503.22668"
       margin="0"
       bleed="0" />
  </sodipodi:namedview>
  <g
     id="g1"
     inkscape:groupmode="layer"
     inkscape:label="1">
    <path
       id="path1"
       d="M 0,0 C 0,-37.59 -30.48,-68.080002 -68.080002,-68.080002 -105.68,-68.080002 -136.16,-37.59 -136.16,0 c 0,37.59 30.48,68.080002 68.079998,68.080002 C -30.48,68.080002 0,37.59 0,0 Z"
       style="fill:none;stroke:#000000;stroke-width:26.4;stroke-linecap:round;stroke-linejoin:round;stroke-miterlimit:10;stroke-dasharray:none;stroke-opacity:1"
       transform="translate(164.09334,120.86662)"
       clip-path="url(#clipPath2)" />
    <path
       id="path3"
       d="m 0,0 -3.36,11.2 -2.72,11.519999 -2.08,11.520003 -1.6,11.519996 -0.96,11.680001 -0.32,11.680004 0.32,11.68 0.96,11.68 1.44,11.679997 2.08,11.52 2.72,11.36 3.2,11.35999 3.84,11.04001 4.48,10.72 4.96,10.72 5.44,10.23999 6.08,10.08001 6.560001,9.76001 6.879997,9.27999 7.520001,9.12 8,8.48 8.479999,8.16 8.800003,7.67999 9.119995,7.36 9.600006,6.72002 9.919999,6.23999 10.079999,5.76001 10.56,5.28 10.72,4.63998 11.03999,4.16001 11.04001,3.51999 11.36,2.88 11.51999,2.40002 11.52001,1.75998 11.68,1.12 11.68,0.64001 11.68,-0.16 11.68,-0.64001 11.68001,-1.12 11.51999,-1.91998 11.52001,-2.4 L 280,286.88 l 11.04001,-3.67999 11.03998,-4.16 10.56002,-4.80002 10.56,-5.28 10.07999,-5.75998 9.92001,-6.40002 9.44,-6.87999 9.12,-7.2 8.79999,-7.84 8.32,-8.16 7.84,-8.8 7.51999,-8.95999 6.88001,-9.44001 6.55999,-9.76001 5.92002,-10.08 5.44,-10.39999 4.79999,-10.56 4.32,-10.88 3.84,-11.2 3.20001,-11.2 2.56,-11.36 1.91998,-11.68 1.44001,-11.520003 0.80001,-11.68 0.15998,-11.68 -0.31998,-11.839997 -1.12,-11.52 -1.6,-11.68 L 436.79999,20.959999 434.07999,9.6 430.56,-1.6 426.72,-12.64 422.07999,-23.360001 417.12,-33.919998 411.35999,-44.16 405.28,-54.240002 398.72,-63.84 l -7.20001,-9.280003 -7.67999,-8.959999 -8,-8.479996 -8.48001,-8 -8.96,-7.680002 -9.27999,-7.04 -9.60001,-6.72 -9.91998,-6.08 -10.24002,-5.76 -10.56,-4.96 -10.87998,-4.64 -10.88,-4 -11.20001,-3.36 -11.51999,-2.87999 -11.36,-2.08 -11.68001,-1.76001 -11.67999,-0.96 -11.68001,-0.48001 -11.68,0.16001 -11.68,0.8 -11.68,1.44 -11.52,1.92 -11.36,2.72 -11.36,3.04 -11.03999,3.84001 -10.88001,4.31999 -10.72,4.8 -10.4,5.44 -10.080003,5.92 -9.759995,6.4 -9.440002,7.04"
       style="fill:none;stroke:#000000;stroke-width:26.4;stroke-linecap:round;stroke-linejoin:round;stroke-miterlimit:10;stroke-dasharray:none;stroke-opacity:1"
       transform="translate(69.213332,183.3466)"
       clip-path="url(#clipPath4)" />
    <path
       id="path5"
       d="M 0,0 -0.16,3.52 V 7.04 L 0.16,10.56 0.8,13.92 1.92,17.280001 3.2,20.48 4.8,23.52 6.56,26.559999 8.8,29.280001 11.2,31.84 13.76,34.080002 16.48,36.16 19.52,38.080002 22.719999,39.52 25.92,40.799999 l 3.360001,0.799999 3.519998,0.640004 3.360001,0.319999 h 3.52 l 3.520001,-0.479999 3.36,-0.640003 L 49.919998,40.48 53.119999,39.200001 56.32,37.599998 59.200001,35.68 61.919998,33.599998 64.480003,31.200001 66.879997,28.48 68.959999,25.76 70.720001,22.719999 72.160004,19.68 l 1.279998,-3.36 0.96,-3.36 0.479995,-3.52"
       style="fill:none;stroke:#000000;stroke-width:26.4;stroke-linecap:round;stroke-linejoin:round;stroke-miterlimit:10;stroke-dasharray:none;stroke-opacity:1"
       transform="translate(209.37334,231.66661)"
       clip-path="url(#clipPath6)" />
    <path
       id="path7"
       d="m 0,0 0.32,-3.36 v -3.52 l -0.48,-3.52 -0.64,-3.36 -0.96,-3.360001 -1.28,-3.199999 -1.6,-3.2 -1.92,-2.88 -2.08,-2.720001 -2.4,-2.559999 -2.56,-2.400002 -2.88,-2.079998 -3.04,-1.759998 -3.039999,-1.440003 -3.360001,-1.279998 -3.360001,-0.959999 -3.519998,-0.640004"
       style="fill:none;stroke:#000000;stroke-width:26.4;stroke-linecap:round;stroke-linejoin:round;stroke-miterlimit:10;stroke-dasharray:none;stroke-opacity:1"
       transform="translate(209.37334,231.66661)"
       clip-path="url(#clipPath8)" />
    <path
       id="path9"
       d="m 320.32001,552.15997 38.72,84.64002"
       style="fill:none;stroke:#000000;stroke-width:26.4;stroke-linecap:round;stroke-linejoin:round;stroke-miterlimit:10;stroke-dasharray:none;stroke-opacity:1"
       transform="translate(-112.06667,-308.33339)"
       clip-path="url(#clipPath10)" />
  </g>
</svg>
