<?xml version="1.0" encoding="UTF-8" standalone="no"?>
<!-- Created with Inkscape (http://www.inkscape.org/) -->

<svg
   version="1.1"
   id="svg1"
   width="501.60001"
   height="489.86667"
   viewBox="0 0 501.60001 489.86667"
   sodipodi:docname="Potash26.pdf"
   xmlns:inkscape="http://www.inkscape.org/namespaces/inkscape"
   xmlns:sodipodi="http://sodipodi.sourceforge.net/DTD/sodipodi-0.dtd"
   xmlns="http://www.w3.org/2000/svg"
   xmlns:svg="http://www.w3.org/2000/svg">
  <defs
     id="defs1">
    <clipPath
       clipPathUnits="userSpaceOnUse"
       id="clipPath2">
      <path
         d="M 0,0.16 V 1122.5601 H 793.59998 V 0.16 Z"
         transform="translate(-621.59997,-372.64002)"
         clip-rule="evenodd"
         id="path2" />
    </clipPath>
    <clipPath
       clipPathUnits="userSpaceOnUse"
       id="clipPath4">
      <path
         d="M 0,0.16 V 1122.5601 H 793.59998 V 0.16 Z"
         transform="translate(-170.24001,-371.84)"
         clip-rule="evenodd"
         id="path4" />
    </clipPath>
    <clipPath
       clipPathUnits="userSpaceOnUse"
       id="clipPath6">
      <path
         d="M 0,0.16 V 1122.5601 H 793.59998 V 0.16 Z"
         transform="translate(-3.3333333e-6)"
         clip-rule="evenodd"
         id="path6" />
    </clipPath>
    <clipPath
       clipPathUnits="userSpaceOnUse"
       id="clipPath8">
      <path
         d="M 0,0.16 V 1122.5601 H 793.59998 V 0.16 Z"
         transform="translate(-3.3333333e-6)"
         clip-rule="evenodd"
         id="path8" />
    </clipPath>
    <clipPath
       clipPathUnits="userSpaceOnUse"
       id="clipPath10">
      <path
         d="M 0,0.16 V 1122.5601 H 793.59998 V 0.16 Z"
         transform="translate(-3.3333333e-6)"
         clip-rule="evenodd"
         id="path10" />
    </clipPath>
  </defs>
  <sodipodi:namedview
     id="namedview1"
     pagecolor="#505050"
     bordercolor="#eeeeee"
     borderopacity="1"
     inkscape:showpageshadow="0"
     inkscape:pageopacity="0"
     inkscape:pagecheckerboard="0"
     inkscape:deskcolor="#505050">
    <inkscape:page
       x="0"
       y="0"
       inkscape:label="1"
       id="page1"
       width="501.60001"
       height="489.86667"
       margin="0"
       bleed="0" />
  </sodipodi:namedview>
  <g
     id="g1"
     inkscape:groupmode="layer"
     inkscape:label="1">
    <path
       id="path1"
       d="m 0,0 -18.08,-5.92 -18.24,-5.6 -18.400001,-4.96 -18.559998,-4.479999 -18.559997,-4 L -110.56,-28.32 -129.44,-31.200001 -148.32001,-33.599998 -167.2,-35.52 l -19.04,-1.279999 -19.04,-0.799999 -19.04001,-0.32 -19.03999,0.32 -19.03999,0.799999 -19.04001,1.279999 -18.88001,1.920002 -18.88,2.399997 -18.87998,2.880001 -18.72,3.360001 -18.56,4 -18.56002,4.479999 -18.4,4.96 -18.23999,5.6 -18.23999,5.92"
       style="fill:none;stroke:#000000;stroke-width:26.4;stroke-linecap:round;stroke-linejoin:round;stroke-miterlimit:10;stroke-dasharray:none;stroke-opacity:1"
       transform="translate(476.18664,60.29329)"
       clip-path="url(#clipPath2)" />
    <path
       id="path3"
       d="m 0,0 19.200001,6.24 19.200001,5.6 19.359996,5.119999 19.520001,4.480002 19.68,4 L 116.8,28.959999 136.48,31.84 l 20,2.400002 L 176.32001,36 l 20,1.279999 20,0.639999 20.15999,0.160004 20.00001,-0.480004 20,-0.959999 20,-1.599998 19.84,-2.080002 L 336.16,30.24 356,27.040001 l 19.67999,-3.84 19.52002,-4.320002 L 414.72,14.08 433.92001,8.64 453.12,2.56"
       style="fill:none;stroke:#000000;stroke-width:26.4;stroke-linecap:round;stroke-linejoin:round;stroke-miterlimit:10;stroke-dasharray:none;stroke-opacity:1"
       transform="translate(24.826672,59.493271)"
       clip-path="url(#clipPath4)" />
    <path
       id="path5"
       d="m 244,394.88 v 162.56 l 303.20001,0.96002 -0.96002,-162.72003"
       style="fill:none;stroke:#000000;stroke-width:26.4;stroke-linecap:round;stroke-linejoin:round;stroke-miterlimit:10;stroke-dasharray:none;stroke-opacity:1"
       transform="translate(-145.41333,-312.34673)"
       clip-path="url(#clipPath6)" />
    <path
       id="path7"
       d="m 395.51999,561.28003 v 226.56"
       style="fill:none;stroke:#000000;stroke-width:26.4;stroke-linecap:round;stroke-linejoin:round;stroke-miterlimit:10;stroke-dasharray:none;stroke-opacity:1"
       transform="translate(-145.41333,-312.34673)"
       clip-path="url(#clipPath8)" />
    <path
       id="path9"
       d="m 282.23999,674.56 h 226.56"
       style="fill:none;stroke:#000000;stroke-width:26.4;stroke-linecap:round;stroke-linejoin:round;stroke-miterlimit:10;stroke-dasharray:none;stroke-opacity:1"
       transform="translate(-145.41333,-312.34673)"
       clip-path="url(#clipPath10)" />
  </g>
</svg>
