<?xml version="1.0" encoding="UTF-8" standalone="no"?>
<!-- Created with Inkscape (http://www.inkscape.org/) -->

<svg
   version="1.1"
   id="svg1"
   width="502.93332"
   height="488.53333"
   viewBox="0 0 502.93332 488.53333"
   sodipodi:docname="Potash23.pdf"
   xmlns:inkscape="http://www.inkscape.org/namespaces/inkscape"
   xmlns:sodipodi="http://sodipodi.sourceforge.net/DTD/sodipodi-0.dtd"
   xmlns="http://www.w3.org/2000/svg"
   xmlns:svg="http://www.w3.org/2000/svg">
  <defs
     id="defs1">
    <clipPath
       clipPathUnits="userSpaceOnUse"
       id="clipPath2">
      <path
         d="M 0,0.16 V 1122.5601 H 793.59998 V 0.16 Z"
         clip-rule="evenodd"
         id="path2" />
    </clipPath>
    <clipPath
       clipPathUnits="userSpaceOnUse"
       id="clipPath4">
      <path
         d="M 0,0.16 V 1122.5601 H 793.59998 V 0.16 Z"
         transform="translate(-547.84003,-646.23999)"
         clip-rule="evenodd"
         id="path4" />
    </clipPath>
    <clipPath
       clipPathUnits="userSpaceOnUse"
       id="clipPath6">
      <path
         d="M 0,0.16 V 1122.5601 H 793.59998 V 0.16 Z"
         clip-rule="evenodd"
         id="path6" />
    </clipPath>
    <clipPath
       clipPathUnits="userSpaceOnUse"
       id="clipPath8">
      <path
         d="M 0,0.16 V 1122.5601 H 793.59998 V 0.16 Z"
         transform="translate(-321.28,-835.03998)"
         clip-rule="evenodd"
         id="path8" />
    </clipPath>
    <clipPath
       clipPathUnits="userSpaceOnUse"
       id="clipPath10">
      <path
         d="M 0,0.16 V 1122.5601 H 793.59998 V 0.16 Z"
         transform="translate(-245.75999,-797.28003)"
         clip-rule="evenodd"
         id="path10" />
    </clipPath>
  </defs>
  <sodipodi:namedview
     id="namedview1"
     pagecolor="#505050"
     bordercolor="#eeeeee"
     borderopacity="1"
     inkscape:showpageshadow="0"
     inkscape:pageopacity="0"
     inkscape:pagecheckerboard="0"
     inkscape:deskcolor="#505050">
    <inkscape:page
       x="0"
       y="0"
       inkscape:label="1"
       id="page1"
       width="502.93332"
       height="488.53333"
       margin="0"
       bleed="0" />
  </sodipodi:namedview>
  <g
     id="g1"
     inkscape:groupmode="layer"
     inkscape:label="1">
    <path
       id="path1"
       d="M 170.24,646.23999 H 547.84003"
       style="fill:none;stroke:#000000;stroke-width:26.4;stroke-linecap:round;stroke-linejoin:round;stroke-miterlimit:10;stroke-dasharray:none;stroke-opacity:1"
       transform="translate(-144.08,-388.42673)"
       clip-path="url(#clipPath2)" />
    <path
       id="path3"
       d="M 0,0 0.16,3.52 0.64,6.88 1.44,10.24 2.56,13.6 4,16.799999 5.76,19.84 l 1.92,2.879999 2.24,2.720002 2.4,2.399999 2.72,2.24 2.88,2.08 3.039999,1.599998 3.200001,1.440003 3.36,1.119999 3.359999,0.799999 3.360003,0.479999 3.519996,0.16 3.520001,-0.16 3.52,-0.479999 L 48.16,36.32 l 3.200001,-1.119999 3.2,-1.440003 L 57.599998,32.16 60.48,30.08 63.200001,27.84 65.760002,25.440001 68,22.719999 69.919998,19.84 71.519997,16.799999 72.959999,13.6 74.080002,10.24 74.879997,6.88 75.360001,3.52 75.519997,0"
       style="fill:none;stroke:#000000;stroke-width:26.4;stroke-linecap:round;stroke-linejoin:round;stroke-miterlimit:10;stroke-dasharray:none;stroke-opacity:1"
       transform="translate(403.76003,257.81326)"
       clip-path="url(#clipPath4)" />
    <path
       id="path5"
       d="M 170.24,419.67999 H 321.28"
       style="fill:none;stroke:#000000;stroke-width:26.4;stroke-linecap:round;stroke-linejoin:round;stroke-miterlimit:10;stroke-dasharray:none;stroke-opacity:1"
       transform="translate(-144.08,-388.42673)"
       clip-path="url(#clipPath6)" />
    <path
       id="path7"
       d="m 0,0 7.84,-9.76 7.52,-10.08 7.04,-10.4 6.720001,-10.559999 6.24,-10.880001 5.919998,-11.040001 5.280002,-11.360001 4.959999,-11.519996 4.64,-11.680001 4,-11.840001 3.52,-12 3.199997,-12.16 2.720001,-12.16 2.080002,-12.31999 1.760002,-12.48001 1.119996,-12.48 0.800003,-12.48 0.159996,-12.47999 -0.159996,-12.48001 -0.800003,-12.64 -1.119996,-12.31999 -1.760002,-12.48002 -2.080002,-12.32 -2.720001,-12.31998 -3.199997,-12.16 -3.52,-12 -4,-11.84 -4.64,-11.68002 -4.959999,-11.51999 -5.280002,-11.20001 -5.919998,-11.19999 -6.24,-10.72 L 22.4,-385.28 15.36,-395.51999 7.84,-405.60001 0,-415.35999"
       style="fill:none;stroke:#000000;stroke-width:26.4;stroke-linecap:round;stroke-linejoin:round;stroke-miterlimit:10;stroke-dasharray:none;stroke-opacity:1"
       transform="translate(177.2,446.61325)"
       clip-path="url(#clipPath8)" />
    <path
       id="path9"
       d="m 0,0 -0.96,3.52 -0.8,3.68 -0.48,3.68 -0.16,3.68 0.32,3.84 0.48,3.68 0.8,3.52 1.12,3.520001 1.6,3.519998 1.76,3.200001 1.92,3.200001 2.4,2.879997 2.56,2.720001 2.72,2.560002 3.04,2.079998 3.2,2.080002 3.359999,1.599998 3.360001,1.440003 3.68,0.959999 3.679998,0.799999 3.680001,0.479999 h 3.68 L 44.639999,56.48 48.32,55.84 52,55.040001 55.52,53.759998 58.880001,52.32 62.240002,50.560001 65.279999,48.48 68.160004,46.080002 70.879997,43.52 l 2.560005,-2.720001 2.079995,-3.040001"
       style="fill:none;stroke:#000000;stroke-width:26.4;stroke-linecap:round;stroke-linejoin:round;stroke-miterlimit:10;stroke-dasharray:none;stroke-opacity:1"
       transform="translate(101.67999,408.8533)"
       clip-path="url(#clipPath10)" />
  </g>
</svg>
