<?xml version="1.0" encoding="UTF-8" standalone="no"?>
<!-- Created with Inkscape (http://www.inkscape.org/) -->

<svg
   version="1.1"
   id="svg1"
   width="500.26666"
   height="270.95999"
   viewBox="0 0 500.26666 270.95999"
   sodipodi:docname="Quicklime17.pdf"
   xmlns:inkscape="http://www.inkscape.org/namespaces/inkscape"
   xmlns:sodipodi="http://sodipodi.sourceforge.net/DTD/sodipodi-0.dtd"
   xmlns="http://www.w3.org/2000/svg"
   xmlns:svg="http://www.w3.org/2000/svg">
  <defs
     id="defs1">
    <clipPath
       clipPathUnits="userSpaceOnUse"
       id="clipPath2">
      <path
         d="M 26.4,26.559999 V 1096.16 H 767.03998 V 26.559999 Z"
         transform="translate(-472.32001,-448.16)"
         clip-rule="evenodd"
         id="path2" />
    </clipPath>
    <clipPath
       clipPathUnits="userSpaceOnUse"
       id="clipPath4">
      <path
         d="M 26.4,26.559999 V 1096.16 H 767.03998 V 26.559999 Z"
         clip-rule="evenodd"
         id="path4" />
    </clipPath>
    <clipPath
       clipPathUnits="userSpaceOnUse"
       id="clipPath6">
      <path
         d="M 26.4,26.559999 V 1096.16 H 767.03998 V 26.559999 Z"
         clip-rule="evenodd"
         id="path6" />
    </clipPath>
    <clipPath
       clipPathUnits="userSpaceOnUse"
       id="clipPath8">
      <path
         d="M 26.4,26.559999 V 1096.16 H 767.03998 V 26.559999 Z"
         clip-rule="evenodd"
         id="path8" />
    </clipPath>
    <clipPath
       clipPathUnits="userSpaceOnUse"
       id="clipPath10">
      <path
         d="M 26.4,26.559999 V 1096.16 H 767.03998 V 26.559999 Z"
         clip-rule="evenodd"
         id="path10" />
    </clipPath>
    <clipPath
       clipPathUnits="userSpaceOnUse"
       id="clipPath12">
      <path
         d="M 26.4,26.559999 V 1096.16 H 767.03998 V 26.559999 Z"
         clip-rule="evenodd"
         id="path12" />
    </clipPath>
    <clipPath
       clipPathUnits="userSpaceOnUse"
       id="clipPath14">
      <path
         d="M 26.4,26.559999 V 1096.16 H 767.03998 V 26.559999 Z"
         clip-rule="evenodd"
         id="path14" />
    </clipPath>
    <clipPath
       clipPathUnits="userSpaceOnUse"
       id="clipPath16">
      <path
         d="M 26.4,26.559999 V 1096.16 H 767.03998 V 26.559999 Z"
         transform="translate(-472.32001,-523.52002)"
         clip-rule="evenodd"
         id="path16" />
    </clipPath>
  </defs>
  <sodipodi:namedview
     id="namedview1"
     pagecolor="#505050"
     bordercolor="#eeeeee"
     borderopacity="1"
     inkscape:showpageshadow="0"
     inkscape:pageopacity="0"
     inkscape:pagecheckerboard="0"
     inkscape:deskcolor="#505050">
    <inkscape:page
       x="0"
       y="0"
       inkscape:label="1"
       id="page1"
       width="500.26666"
       height="270.95999"
       margin="0"
       bleed="0" />
  </sodipodi:namedview>
  <g
     id="g1"
     inkscape:groupmode="layer"
     inkscape:label="1">
    <path
       id="path1"
       d="M 0,0 -0.16,-5.44 -0.8,-10.88 -1.76,-16.16 -3.04,-21.280001 -4.8,-26.4 l -2.08,-5.12 -2.4,-4.8 -2.72,-4.639999 -3.04,-4.32 -3.36,-4.319999 -3.68,-3.840001 -4,-3.68 -4.16,-3.360001 -4.480001,-3.2 -4.64,-2.720002 -4.799999,-2.400001 -4.959999,-2.079994 -5.120003,-1.600006 -5.279998,-1.439995 -5.280003,-0.959999 -5.279999,-0.480004 -5.439995,-0.159996 -5.440002,0.159996 -5.279999,0.480004 -5.279999,0.959999 -5.280006,1.439995 -5.119997,1.600006 -4.96,2.079994 -4.8,2.400001 -4.64,2.720002 -4.48,3.2 -4.16,3.360001 -4.00001,3.68 -3.67999,3.840001 -3.36,4.319999 -3.03999,4.32 -2.72,4.639999 -2.40001,4.8 -2.08,5.12 -1.76,5.119999 -1.28,5.120001 -0.96,5.28 -0.64,5.44 -0.15999,5.44"
       style="fill:none;stroke:#000000;stroke-width:26.4;stroke-linecap:round;stroke-linejoin:round;stroke-miterlimit:10;stroke-dasharray:none;stroke-opacity:1"
       transform="translate(324.24001,97.106612)"
       clip-path="url(#clipPath2)" />
    <path
       id="path3"
       d="m 321.28,448.16 v 37.76001"
       style="fill:none;stroke:#000000;stroke-width:26.4;stroke-linecap:round;stroke-linejoin:round;stroke-miterlimit:10;stroke-dasharray:none;stroke-opacity:1"
       transform="translate(-148.08,-351.05339)"
       clip-path="url(#clipPath4)" />
    <path
       id="path5"
       d="m 472.32001,448.16 v 37.76001"
       style="fill:none;stroke:#000000;stroke-width:26.4;stroke-linecap:round;stroke-linejoin:round;stroke-miterlimit:10;stroke-dasharray:none;stroke-opacity:1"
       transform="translate(-148.08,-351.05339)"
       clip-path="url(#clipPath6)" />
    <path
       id="path7"
       d="M 472.32001,485.92001 H 623.35998"
       style="fill:none;stroke:#000000;stroke-width:26.4;stroke-linecap:round;stroke-linejoin:round;stroke-miterlimit:10;stroke-dasharray:none;stroke-opacity:1"
       transform="translate(-148.08,-351.05339)"
       clip-path="url(#clipPath8)" />
    <path
       id="path9"
       d="M 321.28,485.92001 H 170.24"
       style="fill:none;stroke:#000000;stroke-width:26.4;stroke-linecap:round;stroke-linejoin:round;stroke-miterlimit:10;stroke-dasharray:none;stroke-opacity:1"
       transform="translate(-148.08,-351.05339)"
       clip-path="url(#clipPath10)" />
    <path
       id="path11"
       d="m 283.51999,523.52002 h 113.28"
       style="fill:none;stroke:#000000;stroke-width:26.4;stroke-linecap:round;stroke-linejoin:round;stroke-miterlimit:10;stroke-dasharray:none;stroke-opacity:1"
       transform="translate(-148.08,-351.05339)"
       clip-path="url(#clipPath12)" />
    <path
       id="path13"
       d="M 396.79999,523.52002 321.28,599.03998"
       style="fill:none;stroke:#000000;stroke-width:26.4;stroke-linecap:round;stroke-linejoin:round;stroke-miterlimit:10;stroke-dasharray:none;stroke-opacity:1"
       transform="translate(-148.08,-351.05339)"
       clip-path="url(#clipPath14)" />
    <path
       id="path15"
       d="M 0,0 -3.52,0.32 -6.88,0.8 -10.4,1.6 -13.6,2.56 -16.799999,4 -19.84,5.76 l -2.879999,1.92 -2.720002,2.24 -2.399999,2.4 -2.24,2.72 -2.08,2.88 -1.599998,3.039999 -1.440003,3.200001 -1.119999,3.36 -0.799999,3.359999 -0.479999,3.520003 -0.16,3.359996 0.16,3.520001 0.479999,3.52 L -36.32,48.16 l 1.119999,3.36 1.440003,3.200001 1.599998,3.039997 2.08,2.880001 2.24,2.560002 2.399999,2.560001 L -22.719999,68 -19.84,69.919998 -16.799999,71.68 -13.6,73.120003 l 3.2,0.959999 3.52,0.799995 3.36,0.480004 3.52,0.159996"
       style="fill:none;stroke:#000000;stroke-width:26.4;stroke-linecap:round;stroke-linejoin:round;stroke-miterlimit:10;stroke-dasharray:none;stroke-opacity:1"
       transform="translate(324.24001,172.46663)"
       clip-path="url(#clipPath16)" />
  </g>
</svg>
