<?xml version="1.0" encoding="UTF-8" standalone="no"?>
<!-- Created with Inkscape (http://www.inkscape.org/) -->

<svg
   version="1.1"
   id="svg1"
   width="333.51999"
   height="286.98666"
   viewBox="0 0 333.51999 286.98666"
   sodipodi:docname="Quicklime2.pdf"
   xmlns:inkscape="http://www.inkscape.org/namespaces/inkscape"
   xmlns:sodipodi="http://sodipodi.sourceforge.net/DTD/sodipodi-0.dtd"
   xmlns="http://www.w3.org/2000/svg"
   xmlns:svg="http://www.w3.org/2000/svg">
  <defs
     id="defs1">
    <clipPath
       clipPathUnits="userSpaceOnUse"
       id="clipPath2">
      <path
         d="M 26.4,26.559999 V 1096.16 H 767.03998 V 26.559999 Z"
         transform="translate(-298.56,-463.20001)"
         clip-rule="evenodd"
         id="path2" />
    </clipPath>
    <clipPath
       clipPathUnits="userSpaceOnUse"
       id="clipPath4">
      <path
         d="M 26.4,26.559999 V 1096.16 H 767.03998 V 26.559999 Z"
         transform="translate(-298.56,-463.20001)"
         clip-rule="evenodd"
         id="path4" />
    </clipPath>
    <clipPath
       clipPathUnits="userSpaceOnUse"
       id="clipPath6">
      <path
         d="M 26.4,26.559999 V 1096.16 H 767.03998 V 26.559999 Z"
         transform="translate(-544,-463.20001)"
         clip-rule="evenodd"
         id="path6" />
    </clipPath>
    <clipPath
       clipPathUnits="userSpaceOnUse"
       id="clipPath8">
      <path
         d="M 26.4,26.559999 V 1096.16 H 767.03998 V 26.559999 Z"
         transform="translate(3.3333333e-6)"
         clip-rule="evenodd"
         id="path8" />
    </clipPath>
    <clipPath
       clipPathUnits="userSpaceOnUse"
       id="clipPath10">
      <path
         d="M 26.4,26.559999 V 1096.16 H 767.03998 V 26.559999 Z"
         transform="translate(3.3333333e-6)"
         clip-rule="evenodd"
         id="path10" />
    </clipPath>
    <clipPath
       clipPathUnits="userSpaceOnUse"
       id="clipPath12">
      <path
         d="M 26.4,26.559999 V 1096.16 H 767.03998 V 26.559999 Z"
         transform="translate(-495.04001,-659.52002)"
         clip-rule="evenodd"
         id="path12" />
    </clipPath>
    <clipPath
       clipPathUnits="userSpaceOnUse"
       id="clipPath14">
      <path
         d="M 26.4,26.559999 V 1096.16 H 767.03998 V 26.559999 Z"
         transform="translate(-249.60001,-659.52002)"
         clip-rule="evenodd"
         id="path14" />
    </clipPath>
    <clipPath
       clipPathUnits="userSpaceOnUse"
       id="clipPath16">
      <path
         d="M 26.4,26.559999 V 1096.16 H 767.03998 V 26.559999 Z"
         transform="translate(-495.04001,-659.52002)"
         clip-rule="evenodd"
         id="path16" />
    </clipPath>
    <clipPath
       clipPathUnits="userSpaceOnUse"
       id="clipPath18">
      <path
         d="M 26.4,26.559999 V 1096.16 H 767.03998 V 26.559999 Z"
         transform="translate(3.3333333e-6)"
         clip-rule="evenodd"
         id="path18" />
    </clipPath>
    <clipPath
       clipPathUnits="userSpaceOnUse"
       id="clipPath20">
      <path
         d="M 26.4,26.559999 V 1096.16 H 767.03998 V 26.559999 Z"
         transform="translate(3.3333333e-6)"
         clip-rule="evenodd"
         id="path20" />
    </clipPath>
  </defs>
  <sodipodi:namedview
     id="namedview1"
     pagecolor="#505050"
     bordercolor="#eeeeee"
     borderopacity="1"
     inkscape:showpageshadow="0"
     inkscape:pageopacity="0"
     inkscape:pagecheckerboard="0"
     inkscape:deskcolor="#505050">
    <inkscape:page
       x="0"
       y="0"
       inkscape:label="1"
       id="page1"
       width="333.51999"
       height="286.98666"
       margin="0"
       bleed="0" />
  </sodipodi:namedview>
  <g
     id="g1"
     inkscape:groupmode="layer"
     inkscape:label="1">
    <path
       id="path1"
       d="m 0,0 0.32,6.4 0.64,6.4 0.96,6.400001 1.44,6.24 1.92,6.079999 2.24,6.079998 2.72,5.760003 3.04,5.759998 3.359999,5.440002 L 20.32,59.68 l 4.16,4.959999 4.319999,4.800003 4.64,4.32 4.960003,4.159996 5.279998,3.68 5.439999,3.360001 L 54.880001,88 l 5.759998,2.720001 6.080002,2.239998 6.080002,1.919998 6.239998,1.440003 6.400001,0.959999 6.399994,0.639999 6.400002,0.160004 6.400002,-0.160004 6.4,-0.639999 6.4,-0.959999 6.24,-1.440003 6.07999,-1.919998 L 135.84,90.720001 141.60001,88 147.36,84.959999 l 5.44,-3.360001 5.12,-3.68 5.11999,-4.159996 4.64,-4.32 L 172,64.639999 176.16,59.68 l 3.68,-5.119999 3.36,-5.440002 3.04,-5.759998 2.72001,-5.760003 L 191.2,31.52 l 1.91999,-6.079999 1.44001,-6.24 L 195.52,12.8 196.16,6.4 196.48,0"
       style="fill:none;stroke:#000000;stroke-width:26.4;stroke-linecap:round;stroke-linejoin:round;stroke-miterlimit:10;stroke-dasharray:none;stroke-opacity:1"
       transform="translate(67.773331,46.74662)"
       clip-path="url(#clipPath2)" />
    <path
       id="path3"
       d="m 0,0 -0.16,-2.72 -0.32,-2.72 -0.8,-2.72 -1.12,-2.56 -1.28,-2.4 -1.6,-2.24 -1.92,-2.080001 -1.92,-1.76 -2.24,-1.599998 -2.4,-1.280001 -2.56,-1.120001 L -19.040001,-24 -21.76,-24.48 h -2.72 -2.720001 L -29.92,-24 l -2.719999,0.799999 -2.560002,1.120001 -2.399997,1.280001 -2.240002,1.599998 -1.919998,1.76 L -43.68,-15.36 l -1.599999,2.24 -1.280002,2.4 -1.119999,2.56 -0.8,2.72 -0.319999,2.72 -0.16,2.72"
       style="fill:none;stroke:#000000;stroke-width:26.4;stroke-linecap:round;stroke-linejoin:round;stroke-miterlimit:10;stroke-dasharray:none;stroke-opacity:1"
       transform="translate(67.773331,46.74662)"
       clip-path="url(#clipPath4)" />
    <path
       id="path5"
       d="m 0,0 -0.16,-2.72 -0.48,-2.72 -0.64,-2.72 -1.12,-2.56 -1.28,-2.4 -1.6,-2.24 -1.92,-2.080001 -1.92,-1.76 -2.24,-1.599998 -2.56,-1.280001 -2.4,-1.120001 L -19.040001,-24 -21.76,-24.48 h -2.72 -2.720001 L -29.92,-24 l -2.719999,0.799999 -2.560002,1.120001 -2.399997,1.280001 -2.240002,1.599998 -2.079998,1.76 L -43.68,-15.36 l -1.599999,2.24 -1.280002,2.4 -1.119999,2.56 -0.8,2.72 -0.479999,2.72 V 0"
       style="fill:none;stroke:#000000;stroke-width:26.4;stroke-linecap:round;stroke-linejoin:round;stroke-miterlimit:10;stroke-dasharray:none;stroke-opacity:1"
       transform="translate(313.21333,46.74662)"
       clip-path="url(#clipPath6)" />
    <path
       id="path7"
       d="M 396.79999,438.72 V 561.28003"
       style="fill:none;stroke:#000000;stroke-width:26.4;stroke-linecap:round;stroke-linejoin:round;stroke-miterlimit:10;stroke-dasharray:none;stroke-opacity:1"
       transform="translate(-230.78667,-416.45339)"
       clip-path="url(#clipPath8)" />
    <path
       id="path9"
       d="M 372.32001,438.72 H 421.28"
       style="fill:none;stroke:#000000;stroke-width:26.4;stroke-linecap:round;stroke-linejoin:round;stroke-miterlimit:10;stroke-dasharray:none;stroke-opacity:1"
       transform="translate(-230.78667,-416.45339)"
       clip-path="url(#clipPath10)" />
    <path
       id="path11"
       d="m 0,0 -0.32,-6.4 -0.64,-6.4 -0.96,-6.400001 -1.44,-6.24 -1.92,-6.079999 -2.24,-6.079998 -2.72,-5.760003 -3.04,-5.759998 -3.359999,-5.440002 L -20.32,-59.68 l -4.16,-5.120003 -4.319999,-4.639999 -4.64,-4.32 -5.120002,-4.159996 -5.119999,-3.68 -5.439999,-3.360001 L -54.880001,-88 l -5.759998,-2.720001 -6.080002,-2.239998 -6.080002,-1.919998 -6.239998,-1.440003 -6.400001,-0.959999 -6.399994,-0.639999 -6.400002,-0.32 -6.400002,0.32 -6.4,0.639999 -6.4,0.959999 -6.24,1.440003 -6.07999,1.919998 -6.08001,2.239998 -5.76001,2.720001 -5.75999,3.040001 -5.44,3.360001 -5.28,3.68 -4.95999,4.159996 -4.64,4.32 -4.32001,4.639999 -4.16,5.120003 -3.68,5.119999 -3.36,5.440002 -3.04,5.759998 -2.72001,5.760003 -2.23999,6.079998 -1.91999,6.079999 -1.44001,6.24 -0.96,6.400001 -0.64,6.4 -0.32,6.4"
       style="fill:none;stroke:#000000;stroke-width:26.4;stroke-linecap:round;stroke-linejoin:round;stroke-miterlimit:10;stroke-dasharray:none;stroke-opacity:1"
       transform="translate(264.25334,243.06663)"
       clip-path="url(#clipPath12)" />
    <path
       id="path13"
       d="m 0,0 0.16,2.72 0.32,2.72 0.8,2.72 1.12,2.56 1.28,2.4 1.6,2.24 1.92,2.080001 1.92,1.76 2.24,1.599998 2.4,1.280001 2.56,1.120001 L 19.040001,24 21.76,24.32 24.48,24.48 27.200001,24.32 29.92,24 32.639999,23.200001 35.200001,22.08 37.599998,20.799999 39.84,19.200001 l 1.919998,-1.76 L 43.68,15.36 45.279999,13.12 46.560001,10.72 47.68,8.16 l 0.8,-2.72 0.319999,-2.72 0.16,-2.72"
       style="fill:none;stroke:#000000;stroke-width:26.4;stroke-linecap:round;stroke-linejoin:round;stroke-miterlimit:10;stroke-dasharray:none;stroke-opacity:1"
       transform="translate(18.813339,243.06663)"
       clip-path="url(#clipPath14)" />
    <path
       id="path15"
       d="m 0,0 v 2.72 l 0.48,2.72 0.8,2.72 1.12,2.56 1.28,2.4 1.6,2.24 1.76,2.080001 2.08,1.76 2.24,1.599998 2.4,1.280001 2.56,1.120001 L 19.040001,24 21.76,24.32 24.48,24.48 27.200001,24.32 29.92,24 32.639999,23.200001 35.040001,22.08 37.599998,20.799999 39.84,19.200001 l 1.919998,-1.76 L 43.68,15.36 45.279999,13.12 46.560001,10.72 47.68,8.16 48.32,5.44 48.799999,2.72 48.959999,0"
       style="fill:none;stroke:#000000;stroke-width:26.4;stroke-linecap:round;stroke-linejoin:round;stroke-miterlimit:10;stroke-dasharray:none;stroke-opacity:1"
       transform="translate(264.25334,243.06663)"
       clip-path="url(#clipPath16)" />
    <path
       id="path17"
       d="M 396.79999,684 V 561.28003"
       style="fill:none;stroke:#000000;stroke-width:26.4;stroke-linecap:round;stroke-linejoin:round;stroke-miterlimit:10;stroke-dasharray:none;stroke-opacity:1"
       transform="translate(-230.78667,-416.45339)"
       clip-path="url(#clipPath18)" />
    <path
       id="path19"
       d="M 372.32001,684 H 421.28"
       style="fill:none;stroke:#000000;stroke-width:26.4;stroke-linecap:round;stroke-linejoin:round;stroke-miterlimit:10;stroke-dasharray:none;stroke-opacity:1"
       transform="translate(-230.78667,-416.45339)"
       clip-path="url(#clipPath20)" />
  </g>
</svg>
