<?xml version="1.0" encoding="UTF-8" standalone="no"?>
<!-- Created with Inkscape (http://www.inkscape.org/) -->

<svg
   version="1.1"
   id="svg1"
   width="248.13333"
   height="467.18668"
   viewBox="0 0 248.13333 467.18668"
   sodipodi:docname="Quicklime9.pdf"
   xmlns:inkscape="http://www.inkscape.org/namespaces/inkscape"
   xmlns:sodipodi="http://sodipodi.sourceforge.net/DTD/sodipodi-0.dtd"
   xmlns="http://www.w3.org/2000/svg"
   xmlns:svg="http://www.w3.org/2000/svg">
  <defs
     id="defs1">
    <clipPath
       clipPathUnits="userSpaceOnUse"
       id="clipPath2">
      <path
         d="M 26.4,26.559999 V 1096.16 H 767.03998 V 26.559999 Z"
         transform="translate(-484.79999,-283.20001)"
         clip-rule="evenodd"
         id="path2" />
    </clipPath>
    <clipPath
       clipPathUnits="userSpaceOnUse"
       id="clipPath4">
      <path
         d="M 26.4,26.559999 V 1096.16 H 767.03998 V 26.559999 Z"
         clip-rule="evenodd"
         id="path4" />
    </clipPath>
    <clipPath
       clipPathUnits="userSpaceOnUse"
       id="clipPath6">
      <path
         d="M 26.4,26.559999 V 1096.16 H 767.03998 V 26.559999 Z"
         clip-rule="evenodd"
         id="path6" />
    </clipPath>
    <clipPath
       clipPathUnits="userSpaceOnUse"
       id="clipPath8">
      <path
         d="M 26.4,26.559999 V 1096.16 H 767.03998 V 26.559999 Z"
         clip-rule="evenodd"
         id="path8" />
    </clipPath>
  </defs>
  <sodipodi:namedview
     id="namedview1"
     pagecolor="#505050"
     bordercolor="#eeeeee"
     borderopacity="1"
     inkscape:showpageshadow="0"
     inkscape:pageopacity="0"
     inkscape:pagecheckerboard="0"
     inkscape:deskcolor="#505050">
    <inkscape:page
       x="0"
       y="0"
       inkscape:label="1"
       id="page1"
       width="248.13333"
       height="467.18668"
       margin="0"
       bleed="0" />
  </sodipodi:namedview>
  <g
     id="g1"
     inkscape:groupmode="layer"
     inkscape:label="1">
    <path
       id="path1"
       d="m 0,0 -5.12,-0.32 -5.12,0.16 -5.44,0.64 -5.279999,0.96 -5.6,1.6 -5.600001,1.92 -5.599998,2.4 -5.600003,2.72 -5.759998,3.2 -5.760002,3.679999 -5.919998,4.160002 L -66.559998,25.6 -72.32,30.4 l -5.760002,5.28 -5.759994,5.599999 -5.600006,5.920002 -5.599999,6.399997 L -100.64,60.32 l -5.44,6.879997 -5.44,7.360001 -5.28,7.520004 -5.28,8 -4.96,8 -4.96,8.479998 -4.8,8.48 -4.48,8.8 -4.47999,8.96 -4.32001,9.12 -4,9.28 -3.84,9.44 -3.68001,9.44 -3.51998,9.59999 -3.20002,9.76001 -3.03999,9.76 -2.88,9.6 -2.56,9.76 -2.23999,9.76001 -2.08,9.75999 -1.92,9.59999 -1.44001,9.44001 -1.44,9.44 -0.96,9.44 -0.79999,9.12 -0.48001,8.95999 -0.32,8.96002 0.15999,8.63998 0.16001,8.48001 0.64,8.16001 0.8,7.83999 1.11999,7.68 1.28,7.51999 1.60001,7.04 1.92,6.72001 2.08,6.55999 2.39999,6.08002 2.56002,5.75998 2.87999,5.28 3.04,5.12002 3.36,4.63999 3.51999,4.16 3.68001,3.84 3.84,3.36001 4.16,2.87998 4.31999,2.56 4.48001,2.08001 4.64,1.60001 4.80001,1.28 4.95999,0.63998 4.96,0.32001 5.28,-0.16 5.28,-0.47999 5.44,-1.12002 5.44,-1.44 5.599998,-1.91999 5.599999,-2.39999 5.760002,-2.88001 5.760002,-3.20001 5.760002,-3.67999 5.759995,-4 5.760002,-4.48001 5.760002,-4.95999 5.759998,-5.12 5.759998,-5.76001 5.600003,-5.91998 5.759998,-6.40002 5.440001,-6.56"
       style="fill:none;stroke:#000000;stroke-width:26.4;stroke-linecap:round;stroke-linejoin:round;stroke-miterlimit:10;stroke-dasharray:none;stroke-opacity:1"
       transform="translate(484.79999,420.67995)"
       clip-path="url(#clipPath2)" />
    <path
       id="path3"
       d="M 308.48001,493.76001 H 497.28"
       style="fill:none;stroke:#000000;stroke-width:26.4;stroke-linecap:round;stroke-linejoin:round;stroke-miterlimit:10;stroke-dasharray:none;stroke-opacity:1"
       transform="translate(0,137.47994)"
       clip-path="url(#clipPath4)" />
    <path
       id="path5"
       d="m 497.28,456 v 75.52002"
       style="fill:none;stroke:#000000;stroke-width:26.4;stroke-linecap:round;stroke-linejoin:round;stroke-miterlimit:10;stroke-dasharray:none;stroke-opacity:1"
       transform="translate(0,137.47994)"
       clip-path="url(#clipPath6)" />
    <path
       id="path7"
       d="m 497.28,267.20001 v 37.75998"
       style="fill:none;stroke:#000000;stroke-width:26.4;stroke-linecap:round;stroke-linejoin:round;stroke-miterlimit:10;stroke-dasharray:none;stroke-opacity:1"
       transform="translate(0,137.47994)"
       clip-path="url(#clipPath8)" />
  </g>
</svg>
