<?xml version="1.0" encoding="UTF-8" standalone="no"?>
<!-- Created with Inkscape (http://www.inkscape.org/) -->

<svg
   version="1.1"
   id="svg1"
   width="506.93332"
   height="477.85333"
   viewBox="0 0 506.93332 477.85333"
   sodipodi:docname="Quicklime23.pdf"
   xmlns:inkscape="http://www.inkscape.org/namespaces/inkscape"
   xmlns:sodipodi="http://sodipodi.sourceforge.net/DTD/sodipodi-0.dtd"
   xmlns="http://www.w3.org/2000/svg"
   xmlns:svg="http://www.w3.org/2000/svg">
  <defs
     id="defs1">
    <clipPath
       clipPathUnits="userSpaceOnUse"
       id="clipPath2">
      <path
         d="M 26.4,26.559999 V 1096.16 H 767.03998 V 26.559999 Z"
         transform="translate(-168.32001,-658.88001)"
         clip-rule="evenodd"
         id="path2" />
    </clipPath>
    <clipPath
       clipPathUnits="userSpaceOnUse"
       id="clipPath4">
      <path
         d="M 26.4,26.559999 V 1096.16 H 767.03998 V 26.559999 Z"
         clip-rule="evenodd"
         id="path4" />
    </clipPath>
    <clipPath
       clipPathUnits="userSpaceOnUse"
       id="clipPath6">
      <path
         d="M 26.4,26.559999 V 1096.16 H 767.03998 V 26.559999 Z"
         transform="translate(-625.28003,-294.56)"
         clip-rule="evenodd"
         id="path6" />
    </clipPath>
    <clipPath
       clipPathUnits="userSpaceOnUse"
       id="clipPath8">
      <path
         d="M 26.4,26.559999 V 1096.16 H 767.03998 V 26.559999 Z"
         clip-rule="evenodd"
         id="path8" />
    </clipPath>
    <clipPath
       clipPathUnits="userSpaceOnUse"
       id="clipPath10">
      <path
         d="M 26.4,26.559999 V 1096.16 H 767.03998 V 26.559999 Z"
         transform="translate(-624,-290.72)"
         clip-rule="evenodd"
         id="path10" />
    </clipPath>
    <clipPath
       clipPathUnits="userSpaceOnUse"
       id="clipPath12">
      <path
         d="M 26.4,26.559999 V 1096.16 H 767.03998 V 26.559999 Z"
         transform="translate(-170.88,-668.32001)"
         clip-rule="evenodd"
         id="path12" />
    </clipPath>
    <clipPath
       clipPathUnits="userSpaceOnUse"
       id="clipPath14">
      <path
         d="M 26.4,26.559999 V 1096.16 H 767.03998 V 26.559999 Z"
         clip-rule="evenodd"
         id="path14" />
    </clipPath>
    <clipPath
       clipPathUnits="userSpaceOnUse"
       id="clipPath16">
      <path
         d="M 26.4,26.559999 V 1096.16 H 767.03998 V 26.559999 Z"
         clip-rule="evenodd"
         id="path16" />
    </clipPath>
  </defs>
  <sodipodi:namedview
     id="namedview1"
     pagecolor="#505050"
     bordercolor="#eeeeee"
     borderopacity="1"
     inkscape:showpageshadow="0"
     inkscape:pageopacity="0"
     inkscape:pagecheckerboard="0"
     inkscape:deskcolor="#505050">
    <inkscape:page
       x="0"
       y="0"
       inkscape:label="1"
       id="page1"
       width="506.93332"
       height="477.85333"
       margin="0"
       bleed="0" />
  </sodipodi:namedview>
  <g
     id="g1"
     inkscape:groupmode="layer"
     inkscape:label="1">
    <path
       id="path1"
       d="m 0,0 7.36,1.92 7.52,1.6 7.52,1.12 7.52,0.64 7.679998,0.16 7.680001,-0.16 7.52,-0.64 L 60.32,3.52 67.839996,1.92 75.199997,0 82.400002,-2.4 89.599998,-5.12 96.480003,-8.32 103.2,-12 l 6.56,-4 6.24,-4.32 5.92,-4.639999 5.76,-4.960001 5.43999,-5.440001 5.12001,-5.599998 4.79999,-5.920002 4.48001,-6.239998 4,-6.400001 3.68,-6.719998"
       style="fill:none;stroke:#000000;stroke-width:26.4;stroke-linecap:round;stroke-linejoin:round;stroke-miterlimit:10;stroke-dasharray:none;stroke-opacity:1"
       transform="translate(168.32001,809.71995)"
       clip-path="url(#clipPath2)" />
    <path
       id="path3"
       d="m 397.44,366.23999 -75.51999,226.56"
       style="fill:none;stroke:#000000;stroke-width:26.4;stroke-linecap:round;stroke-linejoin:round;stroke-miterlimit:10;stroke-dasharray:none;stroke-opacity:1"
       transform="translate(0,150.83994)"
       clip-path="url(#clipPath4)" />
    <path
       id="path5"
       d="m 0,0 -7.52,-1.6 -7.52,-0.96 -7.519999,-0.64 -7.680001,-0.32 -7.679998,0.32 -7.520001,0.64 -7.52,1.12 -7.520001,1.6 -7.359996,1.92 -7.200005,2.4 -7.040001,2.88 -7.040001,3.2 -6.719993,3.68 -6.400004,3.84 -6.24,4.479999 -6.08,4.640002 -5.76,5.119999 -5.44,5.279998 -4.96,5.600003 -4.8,6.079998 -4.48,6.080002 -4,6.559997 -3.67999,6.720001 -3.36,6.879998"
       style="fill:none;stroke:#000000;stroke-width:26.4;stroke-linecap:round;stroke-linejoin:round;stroke-miterlimit:10;stroke-dasharray:none;stroke-opacity:1"
       transform="translate(625.28003,445.39994)"
       clip-path="url(#clipPath6)" />
    <path
       id="path7"
       d="M 474.23999,370.07999 398.72,596.47998"
       style="fill:none;stroke:#000000;stroke-width:26.4;stroke-linecap:round;stroke-linejoin:round;stroke-miterlimit:10;stroke-dasharray:none;stroke-opacity:1"
       transform="translate(0,150.83994)"
       clip-path="url(#clipPath8)" />
    <path
       id="path9"
       d="m 0,0 -7.68,-3.84 -8,-3.52 -8,-3.04 -8.16,-2.56 -8.32,-2.24 -8.479999,-1.759999 -8.64,-1.280001 -8.480003,-0.960001 -8.64,-0.319999 h -8.639999 l -8.639999,0.479999 -8.48,0.960001 -8.64,1.440001 -8.32,1.919999 -8.32,2.24 -8.31999,2.72 -8,3.2 -7.84002,3.52 -7.67999,4 -7.36,4.48 -7.2,4.64 -6.88,5.12 -6.72,5.599999 -6.4,5.76 -5.91999,6.24 -5.76001,6.400002 -5.44001,6.719997 -4.95999,7.040001 -4.64,7.360001 -4.16,7.519996 -3.84,7.680001"
       style="fill:none;stroke:#000000;stroke-width:26.4;stroke-linecap:round;stroke-linejoin:round;stroke-miterlimit:10;stroke-dasharray:none;stroke-opacity:1"
       transform="translate(624,441.55994)"
       clip-path="url(#clipPath10)" />
    <path
       id="path11"
       d="m 0,0 6.24,4.96 6.56,4.48 6.72,4.16 7.039999,3.680001 7.039999,3.359998 7.360001,2.880001 7.520001,2.56 7.68,2.08 7.68,1.6 7.84,1.280001 7.839997,0.799999 8,0.32 h 7.840004 l 7.999999,-0.64 7.84,-0.960001 7.68,-1.439998 7.68,-1.92 7.68,-2.240002 7.36001,-2.719999 7.36,-3.039999 L 156,15.68 l 6.88,-4 6.56,-4.32 6.4,-4.64 6.24,-4.96 5.76,-5.44 5.44,-5.6 5.28,-6.080001 4.8,-6.239999 4.48,-6.4 4.16,-6.880001 3.67999,-6.879997 3.36,-7.200001 2.88001,-7.360001 2.56,-7.519996 2.08,-7.680001"
       style="fill:none;stroke:#000000;stroke-width:26.4;stroke-linecap:round;stroke-linejoin:round;stroke-miterlimit:10;stroke-dasharray:none;stroke-opacity:1"
       transform="translate(170.88,819.15995)"
       clip-path="url(#clipPath12)" />
    <path
       id="path13"
       d="M 388.79999,409.12 453.44,410.39999"
       style="fill:none;stroke:#000000;stroke-width:26.4;stroke-linecap:round;stroke-linejoin:round;stroke-miterlimit:10;stroke-dasharray:none;stroke-opacity:1"
       transform="translate(0,150.83994)"
       clip-path="url(#clipPath14)" />
    <path
       id="path15"
       d="m 340.16,561.28003 66.88001,0.31995"
       style="fill:none;stroke:#000000;stroke-width:26.4;stroke-linecap:round;stroke-linejoin:round;stroke-miterlimit:10;stroke-dasharray:none;stroke-opacity:1"
       transform="translate(0,150.83994)"
       clip-path="url(#clipPath16)" />
  </g>
</svg>
