<?xml version="1.0" encoding="UTF-8" standalone="no"?>
<!-- Created with Inkscape (http://www.inkscape.org/) -->

<svg
   version="1.1"
   id="svg1"
   width="513.59998"
   height="337.70667"
   viewBox="0 0 513.59998 337.70667"
   sodipodi:docname="Realgar30.pdf"
   xmlns:inkscape="http://www.inkscape.org/namespaces/inkscape"
   xmlns:sodipodi="http://sodipodi.sourceforge.net/DTD/sodipodi-0.dtd"
   xmlns="http://www.w3.org/2000/svg"
   xmlns:svg="http://www.w3.org/2000/svg">
  <defs
     id="defs1">
    <clipPath
       clipPathUnits="userSpaceOnUse"
       id="clipPath2">
      <path
         d="M 0,0.16 V 1122.5601 H 793.59998 V 0.16 Z"
         transform="translate(-623.67999,-665.12)"
         clip-rule="evenodd"
         id="path2" />
    </clipPath>
    <clipPath
       clipPathUnits="userSpaceOnUse"
       id="clipPath4">
      <path
         d="M 0,0.16 V 1122.5601 H 793.59998 V 0.16 Z"
         transform="translate(-170.56,-476.16001)"
         clip-rule="evenodd"
         id="path4" />
    </clipPath>
    <clipPath
       clipPathUnits="userSpaceOnUse"
       id="clipPath6">
      <path
         d="M 0,0.16 V 1122.5601 H 793.59998 V 0.16 Z"
         transform="translate(-283.84,-476.16001)"
         clip-rule="evenodd"
         id="path6" />
    </clipPath>
    <clipPath
       clipPathUnits="userSpaceOnUse"
       id="clipPath8">
      <path
         d="M 0,0.16 V 1122.5601 H 793.59998 V 0.16 Z"
         transform="translate(-623.52002,-476.16001)"
         clip-rule="evenodd"
         id="path8" />
    </clipPath>
  </defs>
  <sodipodi:namedview
     id="namedview1"
     pagecolor="#505050"
     bordercolor="#eeeeee"
     borderopacity="1"
     inkscape:showpageshadow="0"
     inkscape:pageopacity="0"
     inkscape:pagecheckerboard="0"
     inkscape:deskcolor="#505050">
    <inkscape:page
       x="0"
       y="0"
       inkscape:label="1"
       id="page1"
       width="513.59998"
       height="337.70667"
       margin="0"
       bleed="0" />
  </sodipodi:namedview>
  <g
     id="g1"
     inkscape:groupmode="layer"
     inkscape:label="1">
    <path
       id="path1"
       d="m 0,0 c 0,-20.85 -16.9,-37.759998 -37.759998,-37.759998 -20.860001,0 -37.759999,16.909998 -37.759999,37.759998 0,20.85 16.899998,37.759998 37.759999,37.759998 C -16.9,37.759998 0,20.85 0,0 Z"
       style="fill:none;stroke:#000000;stroke-width:26.4;stroke-linecap:round;stroke-linejoin:round;stroke-miterlimit:10;stroke-dasharray:none;stroke-opacity:1"
       transform="translate(623.67999,665.11994)"
       clip-path="url(#clipPath2)" />
    <path
       id="path3"
       d="M 0,0 0.32,10.56 0.96,20.959999 2.24,31.360001 3.84,41.759998 6.08,52 l 2.56,10.080002 3.04,10.080002 3.68,9.759994 4.000001,9.760002 4.319999,9.44 4.959999,9.28 5.279999,8.96 5.760002,8.8 6.079998,8.48 6.560002,8.16 6.880001,8 7.200001,7.52001 7.519996,7.19999 7.840004,6.87999 8.32,6.56002 8.479996,6.07998 8.800002,5.76001 8.96,5.28 9.28,4.8 9.43999,4.48 9.60001,4 9.92,3.52 9.92,3.2 10.24,2.56 10.24001,2.08 10.23999,1.76 10.40001,1.27999 10.55999,0.64 10.4,0.32001 10.40001,-0.32001 10.55999,-0.64 10.40001,-1.27999 10.23999,-1.76 10.23999,-2.08 10.08002,-2.56 10.07999,-3.2 9.76001,-3.52 9.75998,-4 9.44,-4.48 9.28,-4.8 8.96002,-5.28 8.79999,-5.76001 8.48001,-6.07998 8.31998,-6.56002 7.84002,-6.87999 7.51999,-7.19999 7.20001,-7.52001 6.87998,-8 6.56,-8.16 6.08001,-8.48 5.76001,-8.8 5.28,-8.96 4.79999,-9.28 4.48001,-9.44 4,-9.760002 L 441.28,72.160004 444.48001,62.080002 447.04001,52 449.28,41.759998 450.88,31.360001 452.16,20.959999 452.79999,10.56 452.95999,0"
       style="fill:none;stroke:#000000;stroke-width:26.4;stroke-linecap:round;stroke-linejoin:round;stroke-miterlimit:10;stroke-dasharray:none;stroke-opacity:1"
       transform="translate(170.56,476.15995)"
       clip-path="url(#clipPath4)" />
    <path
       id="path5"
       d="M 0,0 -0.16,-4.32 -0.64,-8.8 -1.6,-13.12 -2.72,-17.440001 -4.32,-21.6 l -1.92,-4 -2.08,-3.840001 -2.56,-3.679998 -2.72,-3.52 L -16.639999,-40 -19.84,-42.880001 l -3.520001,-2.879997 -3.68,-2.400002 -3.839998,-2.240002 -4.160002,-1.759998 -4.16,-1.599998 -4.16,-1.280003 L -47.84,-55.84 l -4.32,-0.48 -4.479999,-0.16 -4.48,0.16 -4.320003,0.48 -4.479996,0.799999 -4.160004,1.280003 -4.159996,1.599998 -4.160004,1.759998 -3.839996,2.240002 -3.68,2.400002 -3.520004,2.879997 L -96.639999,-40 -99.68,-36.639999 l -2.72,3.52 -2.56,3.679998 -2.08,3.840001 -1.92,4 -1.6,4.159999 -1.12,4.320001 -0.96,4.32 -0.48,4.48 -0.16,4.32"
       style="fill:none;stroke:#000000;stroke-width:26.4;stroke-linecap:round;stroke-linejoin:round;stroke-miterlimit:10;stroke-dasharray:none;stroke-opacity:1"
       transform="translate(283.84,476.15995)"
       clip-path="url(#clipPath6)" />
    <path
       id="path7"
       d="m 0,0 v -4.32 l -0.48,-4.48 -0.96,-4.32 -1.12,-4.320001 -1.6,-4.159999 -1.92,-4 -2.08,-3.840001 -2.56,-3.679998 -2.72,-3.52 L -16.48,-40 l -3.2,-2.880001 -3.520001,-2.879997 -3.679998,-2.400002 -3.84,-2.240002 -4.160002,-1.759998 -4.16,-1.599998 -4.16,-1.280003 L -47.68,-55.84 -52,-56.32 l -4.48,-0.16 -4.479999,0.16 -4.32,0.48 -4.480003,0.799999 -4.159996,1.280003 -4.32,1.599998 -4,1.759998 -3.840004,2.240002 -3.68,2.400002 -3.519997,2.879997 -3.200004,2.880001 -3.039994,3.360001 -2.720003,3.52 -2.56,3.679998 -2.08,3.840001 -1.92,4 -1.6,4.159999 -1.12,4.320001 -0.96,4.32 -0.48,4.48 -0.32,4.32"
       style="fill:none;stroke:#000000;stroke-width:26.4;stroke-linecap:round;stroke-linejoin:round;stroke-miterlimit:10;stroke-dasharray:none;stroke-opacity:1"
       transform="translate(623.52002,476.15995)"
       clip-path="url(#clipPath8)" />
  </g>
</svg>
