<?xml version="1.0" encoding="UTF-8" standalone="no"?>
<!-- Created with Inkscape (http://www.inkscape.org/) -->

<svg
   version="1.1"
   id="svg1"
   width="498.93332"
   height="365.73334"
   viewBox="0 0 498.93332 365.73334"
   sodipodi:docname="Realgar6.pdf"
   xmlns:inkscape="http://www.inkscape.org/namespaces/inkscape"
   xmlns:sodipodi="http://sodipodi.sourceforge.net/DTD/sodipodi-0.dtd"
   xmlns="http://www.w3.org/2000/svg"
   xmlns:svg="http://www.w3.org/2000/svg">
  <defs
     id="defs1">
    <clipPath
       clipPathUnits="userSpaceOnUse"
       id="clipPath2">
      <path
         d="M 0,0.16 V 1122.5601 H 793.59998 V 0.16 Z"
         transform="translate(-321.60001,-646.71997)"
         clip-rule="evenodd"
         id="path2" />
    </clipPath>
    <clipPath
       clipPathUnits="userSpaceOnUse"
       id="clipPath4">
      <path
         d="M 0,0.16 V 1122.5601 H 793.59998 V 0.16 Z"
         transform="translate(-623.67999,-646.71997)"
         clip-rule="evenodd"
         id="path4" />
    </clipPath>
    <clipPath
       clipPathUnits="userSpaceOnUse"
       id="clipPath6">
      <path
         d="M 0,0.16 V 1122.5601 H 793.59998 V 0.16 Z"
         transform="translate(-548,-571.20001)"
         clip-rule="evenodd"
         id="path6" />
    </clipPath>
    <clipPath
       clipPathUnits="userSpaceOnUse"
       id="clipPath8">
      <path
         d="M 0,0.16 V 1122.5601 H 793.59998 V 0.16 Z"
         transform="translate(-359.20001,-457.92001)"
         clip-rule="evenodd"
         id="path8" />
    </clipPath>
    <clipPath
       clipPathUnits="userSpaceOnUse"
       id="clipPath10">
      <path
         d="M 0,0.16 V 1122.5601 H 793.59998 V 0.16 Z"
         transform="translate(-509.44,-418.88)"
         clip-rule="evenodd"
         id="path10" />
    </clipPath>
  </defs>
  <sodipodi:namedview
     id="namedview1"
     pagecolor="#505050"
     bordercolor="#eeeeee"
     borderopacity="1"
     inkscape:showpageshadow="0"
     inkscape:pageopacity="0"
     inkscape:pagecheckerboard="0"
     inkscape:deskcolor="#505050">
    <inkscape:page
       x="0"
       y="0"
       inkscape:label="1"
       id="page1"
       width="498.93332"
       height="365.73334"
       margin="0"
       bleed="0" />
  </sodipodi:namedview>
  <g
     id="g1"
     inkscape:groupmode="layer"
     inkscape:label="1">
    <path
       id="path1"
       d="m 0,0 c 0,-41.700001 -33.810001,-75.519997 -75.519997,-75.519997 -41.710003,0 -75.519993,33.819996 -75.519993,75.519997 0,41.700001 33.80999,75.519997 75.519993,75.519997 C -33.810001,75.519997 0,41.700001 0,0 Z"
       style="fill:none;stroke:#000000;stroke-width:26.4;stroke-linecap:round;stroke-linejoin:round;stroke-miterlimit:10;stroke-dasharray:none;stroke-opacity:1"
       transform="translate(173.52001,270.30658)"
       clip-path="url(#clipPath2)" />
    <path
       id="path3"
       d="m 0,0 c 0,-41.700001 -33.810001,-75.519997 -75.519997,-75.519997 -41.710003,0 -75.519993,33.819996 -75.519993,75.519997 0,41.700001 33.80999,75.519997 75.519993,75.519997 C -33.810001,75.519997 0,41.700001 0,0 Z"
       style="fill:none;stroke:#000000;stroke-width:26.4;stroke-linecap:round;stroke-linejoin:round;stroke-miterlimit:10;stroke-dasharray:none;stroke-opacity:1"
       transform="translate(475.59999,270.30658)"
       clip-path="url(#clipPath4)" />
    <path
       id="path5"
       d="m 0,0 -2.4,-8 -3.04,-7.84 -3.36,-7.68 -3.84,-7.520001 -4.319999,-7.360001 L -21.6,-45.439999 -26.559999,-52.32 -31.84,-58.720001 l -5.759998,-6.239998 -5.920002,-5.919998 -6.399998,-5.600006 -6.560002,-5.279999 -6.880001,-4.799996 -7.199997,-4.639999 -7.36,-4 -7.520004,-3.68 -7.839997,-3.360003 -7.840001,-2.88 -8.16,-2.4 -8.16,-2.08 -8.32,-1.6 -8.32,-1.12 -8.31999,-0.64 -8.48001,-0.32 -8.48,0.32 -8.31999,0.64 -8.48001,1.12 -8.16001,1.6 -8.31999,2.08 -8,2.4 -8,2.88 -7.68001,3.360003 -7.51999,3.68 -7.36,4 -7.19999,4.639999 -6.88001,4.799996 -6.56,5.279999 -6.39999,5.600006 -5.92001,5.919998 -5.76001,6.239998 -5.28,6.400001 -4.95999,6.880001 -4.63999,7.039997 -4.32001,7.360001 -3.83999,7.520001 -3.36002,7.68 -3.03998,7.84 -2.56002,8"
       style="fill:none;stroke:#000000;stroke-width:26.4;stroke-linecap:round;stroke-linejoin:round;stroke-miterlimit:10;stroke-dasharray:none;stroke-opacity:1"
       transform="translate(399.92,194.78662)"
       clip-path="url(#clipPath6)" />
    <path
       id="path7"
       d="M 0,0 1.28,-3.52 2.08,-7.2 2.4,-10.88 2.56,-14.56 2.4,-18.24 1.92,-21.92 0.96,-25.6 -0.16,-29.120001 -1.6,-32.639999 -3.36,-35.84 l -2.08,-3.200001 -2.4,-2.879997 -2.56,-2.720001 -2.72,-2.400002 -3.04,-2.239998 -3.200001,-1.920002 -3.199998,-1.759998 -3.520001,-1.280003 -3.52,-1.119999 -3.679999,-0.799999 -3.68,-0.32 -3.84,-0.159999 L -44.48,-56.32 l -3.68,0.48 -3.68,0.959999 -3.520001,1.120003 -3.36,1.439998 -3.199997,1.759999 L -65.120003,-48.48 -68,-46.080002 -70.720001,-43.52 l -2.400002,2.880001 -2.239998,2.880001"
       style="fill:none;stroke:#000000;stroke-width:26.4;stroke-linecap:round;stroke-linejoin:round;stroke-miterlimit:10;stroke-dasharray:none;stroke-opacity:1"
       transform="translate(211.12001,81.506621)"
       clip-path="url(#clipPath8)" />
    <path
       id="path9"
       d="m 0,0 -2.08,-2.88 -2.56,-2.88 -2.72,-2.56 -2.88,-2.24 -3.04,-2.08 -3.359999,-1.76 L -20,-15.84 l -3.52,-1.280001 -3.680001,-0.799999 -3.679998,-0.639999 -3.680002,-0.16 -3.840001,0.16 -3.68,0.319999 -3.679996,0.799999 -3.520001,1.120001 -3.52,1.28 -3.200001,1.76 -3.200001,1.92 -3.040001,2.24 -2.719997,2.56 -2.559998,2.72 -2.400001,2.88 -1.919998,3.2 -1.760002,3.2 -1.440003,3.52 -1.279999,3.52 -0.800003,3.68 -0.479995,3.68 -0.160004,3.68 0.160004,3.680001 0.479995,3.679998 0.64,3.680002 1.120002,3.520001"
       style="fill:none;stroke:#000000;stroke-width:26.4;stroke-linecap:round;stroke-linejoin:round;stroke-miterlimit:10;stroke-dasharray:none;stroke-opacity:1"
       transform="translate(361.36,42.466613)"
       clip-path="url(#clipPath10)" />
  </g>
</svg>
