<?xml version="1.0" encoding="UTF-8" standalone="no"?>
<!-- Created with Inkscape (http://www.inkscape.org/) -->

<svg
   version="1.1"
   id="svg1"
   width="429.57333"
   height="449.82666"
   viewBox="0 0 429.57333 449.82666"
   sodipodi:docname="Realgar5.pdf"
   xmlns:inkscape="http://www.inkscape.org/namespaces/inkscape"
   xmlns:sodipodi="http://sodipodi.sourceforge.net/DTD/sodipodi-0.dtd"
   xmlns="http://www.w3.org/2000/svg"
   xmlns:svg="http://www.w3.org/2000/svg">
  <defs
     id="defs1">
    <clipPath
       clipPathUnits="userSpaceOnUse"
       id="clipPath2">
      <path
         d="M 0,0.16 V 1122.5601 H 793.59998 V 0.16 Z"
         transform="translate(-323.67999,-520.96003)"
         clip-rule="evenodd"
         id="path2" />
    </clipPath>
    <clipPath
       clipPathUnits="userSpaceOnUse"
       id="clipPath4">
      <path
         d="M 0,0.16 V 1122.5601 H 793.59998 V 0.16 Z"
         transform="translate(-323.67999,-520.96003)"
         clip-rule="evenodd"
         id="path4" />
    </clipPath>
    <clipPath
       clipPathUnits="userSpaceOnUse"
       id="clipPath6">
      <path
         d="M 0,0.16 V 1122.5601 H 793.59998 V 0.16 Z"
         transform="translate(-585.76001,-404.32001)"
         clip-rule="evenodd"
         id="path6" />
    </clipPath>
    <clipPath
       clipPathUnits="userSpaceOnUse"
       id="clipPath8">
      <path
         d="M 0,0.16 V 1122.5601 H 793.59998 V 0.16 Z"
         clip-rule="evenodd"
         id="path8" />
    </clipPath>
  </defs>
  <sodipodi:namedview
     id="namedview1"
     pagecolor="#505050"
     bordercolor="#eeeeee"
     borderopacity="1"
     inkscape:showpageshadow="0"
     inkscape:pageopacity="0"
     inkscape:pagecheckerboard="0"
     inkscape:deskcolor="#505050">
    <inkscape:page
       x="0"
       y="0"
       inkscape:label="1"
       id="page1"
       width="429.57333"
       height="449.82666"
       margin="0"
       bleed="0" />
  </sodipodi:namedview>
  <g
     id="g1"
     inkscape:groupmode="layer"
     inkscape:label="1">
    <path
       id="path1"
       d="m 0,0 -6.08,4.48 -6.08,4.8 -5.6,5.12 -5.440001,5.44 -5.119999,5.76 -4.639999,6.08 -4.32,6.239998 -4,6.560002 -3.68,6.880001 -3.200001,6.880001 -2.720001,7.2 -2.399998,7.199997 -2.080002,7.520005 -1.439998,7.519996 -1.119999,7.519997 -0.640003,7.680003 -0.16,7.68 0.319999,7.68 0.640004,7.52 1.119999,7.68 1.599998,7.52001 1.920002,7.36 2.559998,7.19999 2.720001,7.2 3.36,6.88001 3.680001,6.72 4,6.55999 4.479999,6.23999 4.64,6.08001 5.120001,5.76001 5.439998,5.27999 5.760001,5.12 6.08,4.8 6.24,4.32 6.56,4 6.72,3.68 7.040001,3.2 7.039999,2.88 7.36,2.4 7.360001,1.92 7.52,1.6 7.520001,1.12 7.68,0.64 7.68,0.16 7.680001,-0.16 7.68,-0.64 7.519997,-1.12 7.52,-1.6 7.36,-1.92 7.36,-2.4 7.04,-2.88 7.04,-3.2 6.72,-3.68 6.56,-4 6.24,-4.32 6.08,-4.8 5.76,-5.12 5.44,-5.27999 5.12,-5.76001 4.64,-6.08001 4.47999,-6.23999 4,-6.55999 3.68001,-6.72 3.2,-6.88001 2.88,-7.2 2.4,-7.19999 2.08,-7.36 1.6,-7.52001 1.12,-7.68 0.64,-7.52 0.32001,-7.68 L 205.44,102.88 204.8,95.199997 203.67999,87.68 202.08,80.160004 l -1.92,-7.520005 -2.40001,-7.199997 -2.72,-7.2 L 191.84,51.360001 188.16,44.48 184.16,37.919998 179.84,31.68 175.2,25.6 170.08,19.84 164.64,14.4 159.03999,9.28 152.96001,4.48 146.72,0"
       style="fill:none;stroke:#000000;stroke-width:26.4;stroke-linecap:round;stroke-linejoin:round;stroke-miterlimit:10;stroke-dasharray:none;stroke-opacity:1"
       transform="translate(140.91999,185.9333)"
       clip-path="url(#clipPath2)" />
    <path
       id="path3"
       d="m 0,0 5.12,-2.88 4.96,-3.2 4.64,-3.52 4.320001,-3.84 4,-4.16 3.839998,-4.32 L 30.4,-26.719999 33.599998,-31.52 36.48,-36.639999 l 2.400001,-5.279999 2.239998,-5.440003 1.600002,-5.439998 1.439999,-5.760002 0.959999,-5.600003 0.639999,-5.919998 0.16,-5.759994 -0.16,-5.760002 -0.639999,-5.919999 L 44.16,-93.120003 42.720001,-98.879997 41.119999,-104.48 38.880001,-109.76 36.48,-115.04 33.599998,-120.16 30.4,-125.12 l -3.520001,-4.63999 -3.839998,-4.32001 -4,-4.16 -4.320001,-3.84 -4.64,-3.52001 -4.96,-3.19999 -4.96,-2.87999 -5.28,-2.56001 -5.44,-2.24 -5.44,-1.76 -5.76,-1.43999 -5.600001,-1.12001 -5.919998,-0.64 -5.760002,-0.16001 -5.759998,0.16001 -5.760002,0.47999 L -56.32,-160 l -5.760002,1.28 -5.599998,1.75999 -5.440003,2.08001 -5.279999,2.4 -5.119995,2.72001 -4.800003,3.19999 -4.800003,3.36 -4.319999,3.84 -4.159998,4 -4,4.32001 -3.52,4.63999 -3.36,4.8 -2.88,4.96"
       style="fill:none;stroke:#000000;stroke-width:26.4;stroke-linecap:round;stroke-linejoin:round;stroke-miterlimit:10;stroke-dasharray:none;stroke-opacity:1"
       transform="translate(140.91999,185.9333)"
       clip-path="url(#clipPath4)" />
    <path
       id="path5"
       d="m 0,0 -2.72,-4.96 -3.36,-4.8 -3.52,-4.64 -4,-4.319999 -4.16,-4 -4.32,-3.84 L -26.879999,-29.92 -31.68,-33.119999 -36.799999,-35.84 -42.080002,-38.240002 -47.52,-40.32 l -5.599999,-1.760002 -5.760002,-1.279999 -5.759998,-0.959999 -5.760003,-0.479999 -5.760002,-0.16 -5.919998,0.16 -5.759994,0.639999 -5.760002,1.119999 -5.599999,1.440003 -5.440003,1.759998 -5.44,2.240002 -5.28,2.559997 -4.96,2.880001 -4.96,3.200001 -4.64,3.519998 -4.32,3.840001 -4.15999,4.159999 -3.68001,4.320001 -3.52001,4.64 -3.19999,4.96 -2.87999,5.12 -2.40001,5.28 -2.24001,5.28 -1.75999,5.6 -1.28,5.76 -0.96001,5.600001 -0.64,5.92 -0.15998,5.759998 0.15998,5.760002 0.64,5.919999 0.96001,5.600002 1.28,5.759998 1.75999,5.439999 2.24001,5.440002 2.40001,5.279999 2.87999,5.120003 3.19999,4.799995 3.52001,4.800003 3.68001,4.32 4.15999,4.159999 4.32,3.84 4.64,3.52 4.96,3.2 4.96,2.88"
       style="fill:none;stroke:#000000;stroke-width:26.4;stroke-linecap:round;stroke-linejoin:round;stroke-miterlimit:10;stroke-dasharray:none;stroke-opacity:1"
       transform="translate(403.00001,69.293282)"
       clip-path="url(#clipPath6)" />
    <path
       id="path7"
       d="M 378.23999,442.23999 H 416"
       style="fill:none;stroke:#000000;stroke-width:26.4;stroke-linecap:round;stroke-linejoin:round;stroke-miterlimit:10;stroke-dasharray:none;stroke-opacity:1"
       transform="translate(-182.76,-335.02673)"
       clip-path="url(#clipPath8)" />
  </g>
</svg>
