<?xml version="1.0" encoding="UTF-8" standalone="no"?>
<!-- Created with Inkscape (http://www.inkscape.org/) -->

<svg
   version="1.1"
   id="svg1"
   width="389.54666"
   height="612.66669"
   viewBox="0 0 389.54666 612.66669"
   sodipodi:docname="Realgar.pdf"
   xmlns:inkscape="http://www.inkscape.org/namespaces/inkscape"
   xmlns:sodipodi="http://sodipodi.sourceforge.net/DTD/sodipodi-0.dtd"
   xmlns="http://www.w3.org/2000/svg"
   xmlns:svg="http://www.w3.org/2000/svg">
  <defs
     id="defs1">
    <clipPath
       clipPathUnits="userSpaceOnUse"
       id="clipPath2">
      <path
         d="M 0,0.16 V 1122.5601 H 793.59998 V 0.16 Z"
         transform="translate(-567.84003,-670.79999)"
         clip-rule="evenodd"
         id="path2" />
    </clipPath>
    <clipPath
       clipPathUnits="userSpaceOnUse"
       id="clipPath4">
      <path
         d="M 0,0.16 V 1122.5601 H 793.59998 V 0.16 Z"
         clip-rule="evenodd"
         id="path4" />
    </clipPath>
    <clipPath
       clipPathUnits="userSpaceOnUse"
       id="clipPath6">
      <path
         d="M 0,0.16 V 1122.5601 H 793.59998 V 0.16 Z"
         transform="translate(-396.79999,-383.35999)"
         clip-rule="evenodd"
         id="path6" />
    </clipPath>
    <clipPath
       clipPathUnits="userSpaceOnUse"
       id="clipPath8">
      <path
         d="M 0,0.16 V 1122.5601 H 793.59998 V 0.16 Z"
         transform="translate(-396.79999,-383.35999)"
         clip-rule="evenodd"
         id="path8" />
    </clipPath>
  </defs>
  <sodipodi:namedview
     id="namedview1"
     pagecolor="#505050"
     bordercolor="#eeeeee"
     borderopacity="1"
     inkscape:showpageshadow="0"
     inkscape:pageopacity="0"
     inkscape:pagecheckerboard="0"
     inkscape:deskcolor="#505050">
    <inkscape:page
       x="0"
       y="0"
       inkscape:label="1"
       id="page1"
       width="389.54666"
       height="612.66669"
       margin="0"
       bleed="0" />
  </sodipodi:namedview>
  <g
     id="g1"
     inkscape:groupmode="layer"
     inkscape:label="1">
    <path
       id="path1"
       d="m 0,0 c 0,-94.410004 -76.540001,-170.96001 -170.96001,-170.96001 -94.41999,0 -170.96,76.550006 -170.96,170.96001 0,94.410004 76.54001,170.96001 170.96,170.96001 C -76.540001,170.96001 0,94.410004 0,0 Z"
       style="fill:none;stroke:#000000;stroke-width:26.4;stroke-linecap:round;stroke-linejoin:round;stroke-miterlimit:10;stroke-dasharray:none;stroke-opacity:1"
       transform="translate(567.84003,678.79993)"
       clip-path="url(#clipPath2)" />
    <path
       id="path3"
       d="m 396.79999,397.44 v 96.48001"
       style="fill:none;stroke:#000000;stroke-width:26.4;stroke-linecap:round;stroke-linejoin:round;stroke-miterlimit:10;stroke-dasharray:none;stroke-opacity:1"
       transform="translate(0,7.9999413)"
       clip-path="url(#clipPath4)" />
    <path
       id="path5"
       d="m 0,0 -0.96,-3.84 -2.88,-11.2 -2.56,-9.599999 -1.92,-6.560002 -3.52,-10.559997 -3.52,-8.800003 -3.359999,-7.520001 -3.520001,-6.400001 -2.880001,-4.799996 -1.92,-2.720001 -3.839998,-4.959999 -4.320002,-4.800003 L -40,-86.559998 -45.279999,-91.360001 -51.52,-96.480003 -58.560001,-101.76 l -8.319996,-5.76 -8.64,-5.76"
       style="fill:none;stroke:#000000;stroke-width:26.4;stroke-linecap:round;stroke-linejoin:round;stroke-miterlimit:10;stroke-dasharray:none;stroke-opacity:1"
       transform="translate(396.79999,391.35993)"
       clip-path="url(#clipPath6)" />
    <path
       id="path7"
       d="m 0,0 0.96,-3.84 2.88,-11.2 2.72,-9.599999 1.92,-6.560002 3.52,-10.559997 3.36,-8.800003 3.519999,-7.520001 3.360001,-6.400001 3.040001,-4.799996 1.92,-2.720001 3.84,-4.959999 4.16,-4.800003 L 40,-86.559998 45.439999,-91.360001 51.52,-96.480003 58.720001,-101.76 l 8.32,-5.76 8.479996,-5.76"
       style="fill:none;stroke:#000000;stroke-width:26.4;stroke-linecap:round;stroke-linejoin:round;stroke-miterlimit:10;stroke-dasharray:none;stroke-opacity:1"
       transform="translate(396.79999,391.35993)"
       clip-path="url(#clipPath8)" />
  </g>
</svg>
