<?xml version="1.0" encoding="UTF-8" standalone="no"?>
<!-- Created with Inkscape (http://www.inkscape.org/) -->

<svg
   version="1.1"
   id="svg1"
   width="505.60001"
   height="332.35999"
   viewBox="0 0 505.60001 332.35999"
   sodipodi:docname="Realgar8.pdf"
   xmlns:inkscape="http://www.inkscape.org/namespaces/inkscape"
   xmlns:sodipodi="http://sodipodi.sourceforge.net/DTD/sodipodi-0.dtd"
   xmlns="http://www.w3.org/2000/svg"
   xmlns:svg="http://www.w3.org/2000/svg">
  <defs
     id="defs1">
    <clipPath
       clipPathUnits="userSpaceOnUse"
       id="clipPath2">
      <path
         d="M 0,0.16 V 1122.5601 H 793.59998 V 0.16 Z"
         transform="translate(-396.95999,-504.48002)"
         clip-rule="evenodd"
         id="path2" />
    </clipPath>
    <clipPath
       clipPathUnits="userSpaceOnUse"
       id="clipPath4">
      <path
         d="M 0,0.16 V 1122.5601 H 793.59998 V 0.16 Z"
         transform="translate(-510.23999,-504.48002)"
         clip-rule="evenodd"
         id="path4" />
    </clipPath>
    <clipPath
       clipPathUnits="userSpaceOnUse"
       id="clipPath6">
      <path
         d="M 0,0.16 V 1122.5601 H 793.59998 V 0.16 Z"
         transform="translate(-3.3333333e-6)"
         clip-rule="evenodd"
         id="path6" />
    </clipPath>
    <clipPath
       clipPathUnits="userSpaceOnUse"
       id="clipPath8">
      <path
         d="M 0,0.16 V 1122.5601 H 793.59998 V 0.16 Z"
         transform="translate(-3.3333333e-6)"
         clip-rule="evenodd"
         id="path8" />
    </clipPath>
    <clipPath
       clipPathUnits="userSpaceOnUse"
       id="clipPath10">
      <path
         d="M 0,0.16 V 1122.5601 H 793.59998 V 0.16 Z"
         transform="translate(-3.3333333e-6)"
         clip-rule="evenodd"
         id="path10" />
    </clipPath>
    <clipPath
       clipPathUnits="userSpaceOnUse"
       id="clipPath12">
      <path
         d="M 0,0.16 V 1122.5601 H 793.59998 V 0.16 Z"
         transform="translate(-170.56,-617.76001)"
         clip-rule="evenodd"
         id="path12" />
    </clipPath>
    <clipPath
       clipPathUnits="userSpaceOnUse"
       id="clipPath14">
      <path
         d="M 0,0.16 V 1122.5601 H 793.59998 V 0.16 Z"
         transform="translate(-510.23999,-617.76001)"
         clip-rule="evenodd"
         id="path14" />
    </clipPath>
    <clipPath
       clipPathUnits="userSpaceOnUse"
       id="clipPath16">
      <path
         d="M 0,0.16 V 1122.5601 H 793.59998 V 0.16 Z"
         transform="translate(-3.3333333e-6)"
         clip-rule="evenodd"
         id="path16" />
    </clipPath>
    <clipPath
       clipPathUnits="userSpaceOnUse"
       id="clipPath18">
      <path
         d="M 0,0.16 V 1122.5601 H 793.59998 V 0.16 Z"
         transform="translate(-3.3333333e-6)"
         clip-rule="evenodd"
         id="path18" />
    </clipPath>
  </defs>
  <sodipodi:namedview
     id="namedview1"
     pagecolor="#505050"
     bordercolor="#eeeeee"
     borderopacity="1"
     inkscape:showpageshadow="0"
     inkscape:pageopacity="0"
     inkscape:pagecheckerboard="0"
     inkscape:deskcolor="#505050">
    <inkscape:page
       x="0"
       y="0"
       inkscape:label="1"
       id="page1"
       width="505.60001"
       height="332.35999"
       margin="0"
       bleed="0" />
  </sodipodi:namedview>
  <g
     id="g1"
     inkscape:groupmode="layer"
     inkscape:label="1">
    <path
       id="path1"
       d="m 0,0 v -5.76 l -0.32,-5.76 -0.64,-5.600001 -0.96,-5.759998 L -3.04,-28.32 -4.48,-33.759998 -6.24,-39.040001 -8.16,-44 l -2.08,-4.959999 -2.24,-4.48 -2.56,-4.479999 -2.72,-4 -3.039999,-3.840004 L -23.84,-69.279999 -27.040001,-72.480003 -30.4,-75.360001 -33.919998,-77.760002 -37.439999,-80 l -3.84,-1.760002 -3.68,-1.279999 -3.84,-0.959999 -3.84,-0.639999 -3.840001,-0.160004 -3.84,0.160004 L -64.160004,-84 -68,-83.040001 -71.839996,-81.760002 -75.519997,-80 l -3.520004,2.239998 -3.519997,2.400001 -3.36,2.879998 -3.200005,3.200004 -3.040001,3.519997 -3.039993,3.840004 -2.720001,4 -2.560002,4.479999 -2.24,4.48 -2.08,4.959999 -1.92,4.959999 -1.76,5.280003 -1.44,5.439998 -1.12,5.440001 -0.96,5.759998 -0.64,5.600001 -0.32,5.76 -0.16,5.76"
       style="fill:none;stroke:#000000;stroke-width:26.4;stroke-linecap:round;stroke-linejoin:round;stroke-miterlimit:10;stroke-dasharray:none;stroke-opacity:1"
       transform="translate(251.54666,112.05329)"
       clip-path="url(#clipPath2)" />
    <path
       id="path3"
       d="m 0,0 v -5.76 l -0.32,-5.76 -0.64,-5.600001 -0.96,-5.759998 L -3.2,-28.32 -4.48,-33.759998 -6.24,-39.040001 -8.16,-44 l -2.08,-4.959999 -2.24,-4.48 -2.56,-4.479999 -2.72,-4 -3.039999,-3.840004 -3.040001,-3.519997 -3.200001,-3.200004 -3.359999,-2.879998 -3.519998,-2.400001 -3.68,-2.239998 -3.680001,-1.760002 -3.68,-1.279999 -3.84,-0.959999 -3.84,-0.639999 -3.840001,-0.160004 -3.84,0.160004 L -64.160004,-84 -68,-83.040001 -71.839996,-81.760002 -75.519997,-80 l -3.520004,2.239998 -3.519997,2.400001 -3.36,2.879998 -3.200005,3.200004 -3.040001,3.519997 -3.039993,3.840004 -2.720001,4 -2.560002,4.479999 -2.24,4.48 -2.24,4.959999 -1.76,4.959999 -1.76,5.280003 -1.44,5.439998 -1.12,5.440001 -0.96,5.759998 -0.64,5.600001 -0.32,5.76 -0.32,5.76"
       style="fill:none;stroke:#000000;stroke-width:26.4;stroke-linecap:round;stroke-linejoin:round;stroke-miterlimit:10;stroke-dasharray:none;stroke-opacity:1"
       transform="translate(364.82666,112.05329)"
       clip-path="url(#clipPath4)" />
    <path
       id="path5"
       d="M 283.84,504.64001 V 617.91998"
       style="fill:none;stroke:#000000;stroke-width:26.4;stroke-linecap:round;stroke-linejoin:round;stroke-miterlimit:10;stroke-dasharray:none;stroke-opacity:1"
       transform="translate(-145.41333,-392.42673)"
       clip-path="url(#clipPath6)" />
    <path
       id="path7"
       d="M 397.12,504.64001 V 617.91998"
       style="fill:none;stroke:#000000;stroke-width:26.4;stroke-linecap:round;stroke-linejoin:round;stroke-miterlimit:10;stroke-dasharray:none;stroke-opacity:1"
       transform="translate(-145.41333,-392.42673)"
       clip-path="url(#clipPath8)" />
    <path
       id="path9"
       d="M 510.39999,504.64001 V 617.91998"
       style="fill:none;stroke:#000000;stroke-width:26.4;stroke-linecap:round;stroke-linejoin:round;stroke-miterlimit:10;stroke-dasharray:none;stroke-opacity:1"
       transform="translate(-145.41333,-392.42673)"
       clip-path="url(#clipPath10)" />
    <path
       id="path11"
       d="m 0,0 0.16,5.92 0.32,5.76 0.64,5.760001 0.96,5.6 L 3.2,28.48 4.64,33.919998 6.4,39.200001 8.32,44.32 l 2.08,4.799999 2.24,4.639999 2.56,4.320004 2.72,4.16 3.039999,3.84 3.040001,3.36 3.200001,3.199997 3.359998,2.879998 3.520003,2.560005 3.519996,2.080002 3.840001,1.759994 3.68,1.279999 3.84,1.120003 3.84,0.480003 3.84,0.32 3.840001,-0.32 L 64.32,84.32 68.160004,83.199997 72,81.919998 l 3.68,-1.759994 3.519997,-2.080002 3.520004,-2.560005 3.360001,-2.879998 3.199997,-3.199997 3.040001,-3.36 3.040001,-3.84 2.720001,-4.16 2.559998,-4.320004 2.24,-4.639999 2.08,-4.799999 1.92,-5.119999 1.76,-5.280003 1.44,-5.439998 1.12,-5.439999 0.96,-5.6 L 112.8,11.68 113.12,5.92 113.28,0"
       style="fill:none;stroke:#000000;stroke-width:26.4;stroke-linecap:round;stroke-linejoin:round;stroke-miterlimit:10;stroke-dasharray:none;stroke-opacity:1"
       transform="translate(25.146665,225.33328)"
       clip-path="url(#clipPath12)" />
    <path
       id="path13"
       d="m 0,0 0.32,5.92 0.32,5.76 0.64,5.760001 0.96,5.6 L 3.36,28.48 4.8,33.919998 6.56,39.200001 8.32,44.32 l 2.24,4.799999 2.24,4.639999 2.56,4.320004 2.72,4.16 3.040001,3.84 3.039999,3.36 3.200001,3.199997 3.359998,2.879998 3.520003,2.560005 3.519996,2.080002 3.680001,1.759994 3.84,1.279999 3.84,1.120003 3.84,0.480003 3.84,0.32 3.84,-0.32 L 64.480003,84.32 68.32,83.199997 72,81.919998 l 3.68,-1.759994 3.680001,-2.080002 3.519996,-2.560005 3.360001,-2.879998 3.200004,-3.199997 3.040001,-3.36 3.039994,-3.84 2.720001,-4.16 2.400002,-4.320004 2.4,-4.639999 2.08,-4.799999 1.92,-5.119999 1.76,-5.280003 1.28,-5.439998 1.28,-5.439999 0.8,-5.6 0.8,-5.760001 0.32,-5.76 V 0"
       style="fill:none;stroke:#000000;stroke-width:26.4;stroke-linecap:round;stroke-linejoin:round;stroke-miterlimit:10;stroke-dasharray:none;stroke-opacity:1"
       transform="translate(364.82666,225.33328)"
       clip-path="url(#clipPath14)" />
    <path
       id="path15"
       d="M 170.56,561.28003 H 623.67999"
       style="fill:none;stroke:#000000;stroke-width:26.4;stroke-linecap:round;stroke-linejoin:round;stroke-miterlimit:10;stroke-dasharray:none;stroke-opacity:1"
       transform="translate(-145.41333,-392.42673)"
       clip-path="url(#clipPath16)" />
    <path
       id="path17"
       d="M 170.56,504.64001 H 623.67999"
       style="fill:none;stroke:#000000;stroke-width:26.4;stroke-linecap:round;stroke-linejoin:round;stroke-miterlimit:10;stroke-dasharray:none;stroke-opacity:1"
       transform="translate(-145.41333,-392.42673)"
       clip-path="url(#clipPath18)" />
  </g>
</svg>
