<?xml version="1.0" encoding="UTF-8" standalone="no"?>
<!-- Created with Inkscape (http://www.inkscape.org/) -->

<svg
   version="1.1"
   id="svg1"
   width="458.90668"
   height="472.51999"
   viewBox="0 0 458.90668 472.51999"
   sodipodi:docname="Realgar31.pdf"
   xmlns:inkscape="http://www.inkscape.org/namespaces/inkscape"
   xmlns:sodipodi="http://sodipodi.sourceforge.net/DTD/sodipodi-0.dtd"
   xmlns="http://www.w3.org/2000/svg"
   xmlns:svg="http://www.w3.org/2000/svg">
  <defs
     id="defs1">
    <clipPath
       clipPathUnits="userSpaceOnUse"
       id="clipPath2">
      <path
         d="M 0,0.16 V 1122.5601 H 793.59998 V 0.16 Z"
         transform="translate(-465.60001,-390.72001)"
         clip-rule="evenodd"
         id="path2" />
    </clipPath>
    <clipPath
       clipPathUnits="userSpaceOnUse"
       id="clipPath4">
      <path
         d="M 0,0.16 V 1122.5601 H 793.59998 V 0.16 Z"
         transform="translate(-255.67999,-724.32001)"
         clip-rule="evenodd"
         id="path4" />
    </clipPath>
    <clipPath
       clipPathUnits="userSpaceOnUse"
       id="clipPath6">
      <path
         d="M 0,0.16 V 1122.5601 H 793.59998 V 0.16 Z"
         clip-rule="evenodd"
         id="path6" />
    </clipPath>
  </defs>
  <sodipodi:namedview
     id="namedview1"
     pagecolor="#505050"
     bordercolor="#eeeeee"
     borderopacity="1"
     inkscape:showpageshadow="0"
     inkscape:pageopacity="0"
     inkscape:pagecheckerboard="0"
     inkscape:deskcolor="#505050">
    <inkscape:page
       x="0"
       y="0"
       inkscape:label="1"
       id="page1"
       width="458.90668"
       height="472.51999"
       margin="0"
       bleed="0" />
  </sodipodi:namedview>
  <g
     id="g1"
     inkscape:groupmode="layer"
     inkscape:label="1">
    <path
       id="path1"
       d="M 0,0 0.32,-7.36 0.48,-14.56 0.32,-21.440001 0,-28 -0.64,-34.080002 -1.44,-40 l -1.12,-5.439999 -1.28,-5.120002 -1.44,-4.64 -1.76,-4.319999 -2.08,-4 -2.24,-3.359997 -2.4,-3.200005 -2.56,-2.559997 -2.880001,-2.239998 -3.039999,-1.760002 -3.36,-1.279999 -3.359999,-0.800003 -3.520001,-0.479996 h -3.84 l -4,0.639999 -4,0.799996 -4.319999,1.440002 -4.32,1.760002 -4.48,2.399994 -4.640003,2.560006 -4.639999,3.199996 -4.799996,3.520001 -4.960006,4 -4.959999,4.32 -5.119996,4.800003 -5.120002,5.119999 -5.120003,5.599998 -5.119997,5.920002 -5.28,6.24 -5.12,6.559999 -5.28,6.88 -5.12,7.2 -5.28,7.52 -5.11999,7.84 -5.12001,8.000001 -4.96,8.32 -4.96,8.479997 -4.95999,8.800003 -4.80001,8.959999 -4.8,9.119999 -4.64,9.119999 -4.48,9.440003 -4.32,9.440002 -4.16001,9.599999 L -184.48,108 l -3.84001,9.76 -3.83999,9.76 -3.51999,9.59999 -3.52001,9.76001 -3.19999,9.76 -3.04001,9.6 -2.88001,9.6 -2.55999,9.44 -2.4,9.28 -2.24,9.28 -2.08001,8.96 -1.75999,8.95999 -1.44,8.64 -1.28,8.48001 -1.12,8.32 -0.8,8 -0.64,7.68 -0.32001,7.51999 -0.15998,7.04001 0.15998,6.88001 0.32001,6.55999 0.64,6.07999 0.8,5.92001 1.12,5.44001 1.28,4.95999 1.6,4.79999 1.76,4.32 2.08,3.84 2.08,3.36002"
       style="fill:none;stroke:#000000;stroke-width:26.4;stroke-linecap:round;stroke-linejoin:round;stroke-miterlimit:10;stroke-dasharray:none;stroke-opacity:1"
       transform="translate(249.48001,106.41328)"
       clip-path="url(#clipPath2)" />
    <path
       id="path3"
       d="M 0,0 3.68,1.92 7.84,3.36 12.32,4.64 17.280001,5.6 22.4,6.4 28,6.72 33.919998,6.88 40.16,6.72 46.720001,6.4 53.439999,5.76 60.639999,4.8 68,3.52 l 7.68,-1.44 7.839997,-1.76 8,-2.08 8.319999,-2.24 8.480004,-2.56 8.64,-2.88 8.8,-3.04 8.8,-3.2 8.96,-3.520001 9.12,-3.679998 9.11999,-4 9.28,-4 9.28002,-4.320002 9.28,-4.639999 9.11999,-4.64 9.28,-4.799999 9.11999,-5.120003 9.12001,-5.119998 8.96,-5.280003 8.96,-5.439995 8.80001,-5.599998 8.64,-5.600006 8.47998,-5.759995 8.16,-5.760002 8.16,-5.919998 7.84,-5.920003 7.68002,-5.92 7.35999,-5.92 7.20001,-6.08 6.72,-5.92 6.56,-6.08 6.23999,-5.92 5.92001,-5.92 5.59998,-5.92 5.28,-5.76 4.96002,-5.76 4.47998,-5.60001 4.16,-5.59999 3.68,-5.44 3.36001,-5.28 3.04001,-5.11999 2.56,-5.12001 2.07999,-4.80001 1.76,-4.79998 1.28,-4.48001 0.79999,-4.32 0.48001,-4.16 v -4 l -0.32,-3.67999 -0.96,-3.52001 -1.11999,-3.36 -1.76001,-3.04001 -2.07999,-2.87999 -2.56,-2.55999 -2.88,-2.24001 -3.36002,-2.08 -3.67999,-1.76 -4,-1.6 -4.48001,-1.28 -4.95999,-0.95999 -5.12,-0.64002 -5.6,-0.47999 -5.91999,-0.16001 -6.24002,0.16001 -6.39999,0.32 -6.88,0.64 -7.04001,0.96 -7.51999,1.12001"
       style="fill:none;stroke:#000000;stroke-width:26.4;stroke-linecap:round;stroke-linejoin:round;stroke-miterlimit:10;stroke-dasharray:none;stroke-opacity:1"
       transform="translate(39.559993,440.01328)"
       clip-path="url(#clipPath4)" />
    <path
       id="path5"
       d="M 302.72,466.88 491.51999,655.67999"
       style="fill:none;stroke:#000000;stroke-width:26.4;stroke-linecap:round;stroke-linejoin:round;stroke-miterlimit:10;stroke-dasharray:none;stroke-opacity:1"
       transform="translate(-216.12,-284.30673)"
       clip-path="url(#clipPath6)" />
  </g>
</svg>
