<?xml version="1.0" encoding="UTF-8" standalone="no"?>
<!-- Created with Inkscape (http://www.inkscape.org/) -->

<svg
   version="1.1"
   id="svg1"
   width="336.18668"
   height="307"
   viewBox="0 0 336.18668 307"
   sodipodi:docname="RectifiedEthanol2.pdf"
   xmlns:inkscape="http://www.inkscape.org/namespaces/inkscape"
   xmlns:sodipodi="http://sodipodi.sourceforge.net/DTD/sodipodi-0.dtd"
   xmlns="http://www.w3.org/2000/svg"
   xmlns:svg="http://www.w3.org/2000/svg">
  <defs
     id="defs1">
    <clipPath
       clipPathUnits="userSpaceOnUse"
       id="clipPath2">
      <path
         d="M 0,0.16 V 1122.5601 H 793.59998 V 0.16 Z"
         clip-rule="evenodd"
         id="path2" />
    </clipPath>
    <clipPath
       clipPathUnits="userSpaceOnUse"
       id="clipPath4">
      <path
         d="M 0,0.16 V 1122.5601 H 793.59998 V 0.16 Z"
         clip-rule="evenodd"
         id="path4" />
    </clipPath>
    <clipPath
       clipPathUnits="userSpaceOnUse"
       id="clipPath6">
      <path
         d="M 0,0.16 V 1122.5601 H 793.59998 V 0.16 Z"
         transform="translate(-367.35999,-452.48001)"
         clip-rule="evenodd"
         id="path6" />
    </clipPath>
  </defs>
  <sodipodi:namedview
     id="namedview1"
     pagecolor="#505050"
     bordercolor="#eeeeee"
     borderopacity="1"
     inkscape:showpageshadow="0"
     inkscape:pageopacity="0"
     inkscape:pagecheckerboard="0"
     inkscape:deskcolor="#505050">
    <inkscape:page
       x="0"
       y="0"
       inkscape:label="1"
       id="page1"
       width="336.18668"
       height="307"
       margin="0"
       bleed="0" />
  </sodipodi:namedview>
  <g
     id="g1"
     inkscape:groupmode="layer"
     inkscape:label="1">
    <path
       id="path1"
       d="M 261.12,433.44 350.56,673.76001 440,433.44 536.96002,676.96002"
       style="fill:none;stroke:#000000;stroke-width:26.4;stroke-linecap:round;stroke-linejoin:round;stroke-miterlimit:10;stroke-dasharray:none;stroke-opacity:1"
       transform="translate(0,14.679941)"
       clip-path="url(#clipPath2)" />
    <path
       id="path3"
       d="m 392.64001,568.15997 49.43998,112 49.6,-107.67999"
       style="fill:none;stroke:#000000;stroke-width:26.4;stroke-linecap:round;stroke-linejoin:round;stroke-miterlimit:10;stroke-dasharray:none;stroke-opacity:1"
       transform="translate(0,14.679941)"
       clip-path="url(#clipPath4)" />
    <path
       id="path5"
       d="m 0,0 -2.24,-1.6 -2.4,-1.12 -2.4,-0.96 -2.4,-0.48 -2.4,-0.16 -2.56,0.16 -2.399999,0.48 -2.400002,0.96 -2.24,1.28 L -23.68,0 -25.92,1.92 -28,4.16 l -1.92,2.4 -1.76,2.72 -1.759999,3.04 -1.440002,3.2 -1.279999,3.359999 -1.119999,3.68 -0.960003,3.680001 -0.639999,4 -0.639999,3.840002 -0.32,4 v 4.16 l 0.16,4 0.319999,4 0.48,4 0.799999,3.84 0.960003,3.679996 L -36,65.440002 -34.720001,68.800003 -33.279999,72 -31.52,74.879997 l 1.76,2.720001 1.92,2.560006 2.08,2.079994 2.24,1.920006 2.239999,1.439994 2.400002,1.279999 L -16.48,87.68 l 2.4,0.480004 2.4,0.159996 2.4,-0.159996 2.56,-0.640007 2.4,-0.799996 2.24,-1.279999 L 0.16,83.839996 2.4,81.919998 4.48,79.68 6.4,77.279999 8.16,74.559998"
       style="fill:none;stroke:#000000;stroke-width:26.4;stroke-linecap:round;stroke-linejoin:round;stroke-miterlimit:10;stroke-dasharray:none;stroke-opacity:1"
       transform="translate(367.35999,467.15995)"
       clip-path="url(#clipPath6)" />
  </g>
</svg>
