<?xml version="1.0" encoding="UTF-8" standalone="no"?>
<!-- Created with Inkscape (http://www.inkscape.org/) -->

<svg
   version="1.1"
   id="svg1"
   width="458.90668"
   height="433.81332"
   viewBox="0 0 458.90668 433.81332"
   sodipodi:docname="RectifiedEthanol.pdf"
   xmlns:inkscape="http://www.inkscape.org/namespaces/inkscape"
   xmlns:sodipodi="http://sodipodi.sourceforge.net/DTD/sodipodi-0.dtd"
   xmlns="http://www.w3.org/2000/svg"
   xmlns:svg="http://www.w3.org/2000/svg">
  <defs
     id="defs1">
    <clipPath
       clipPathUnits="userSpaceOnUse"
       id="clipPath2">
      <path
         d="M 0,0.16 V 1122.5601 H 793.59998 V 0.16 Z"
         clip-rule="evenodd"
         id="path2" />
    </clipPath>
    <clipPath
       clipPathUnits="userSpaceOnUse"
       id="clipPath4">
      <path
         d="M 0,0.16 V 1122.5601 H 793.59998 V 0.16 Z"
         clip-rule="evenodd"
         id="path4" />
    </clipPath>
    <clipPath
       clipPathUnits="userSpaceOnUse"
       id="clipPath6">
      <path
         d="M 0,0.16 V 1122.5601 H 793.59998 V 0.16 Z"
         clip-rule="evenodd"
         id="path6" />
    </clipPath>
    <clipPath
       clipPathUnits="userSpaceOnUse"
       id="clipPath8">
      <path
         d="M 0,0.16 V 1122.5601 H 793.59998 V 0.16 Z"
         transform="translate(-264.16,-382.72)"
         clip-rule="evenodd"
         id="path8" />
    </clipPath>
    <clipPath
       clipPathUnits="userSpaceOnUse"
       id="clipPath10">
      <path
         d="M 0,0.16 V 1122.5601 H 793.59998 V 0.16 Z"
         transform="translate(-425.28,-540.96002)"
         clip-rule="evenodd"
         id="path10" />
    </clipPath>
    <clipPath
       clipPathUnits="userSpaceOnUse"
       id="clipPath12">
      <path
         d="M 0,0.16 V 1122.5601 H 793.59998 V 0.16 Z"
         clip-rule="evenodd"
         id="path12" />
    </clipPath>
    <clipPath
       clipPathUnits="userSpaceOnUse"
       id="clipPath14">
      <path
         d="M 0,0.16 V 1122.5601 H 793.59998 V 0.16 Z"
         clip-rule="evenodd"
         id="path14" />
    </clipPath>
  </defs>
  <sodipodi:namedview
     id="namedview1"
     pagecolor="#505050"
     bordercolor="#eeeeee"
     borderopacity="1"
     inkscape:showpageshadow="0"
     inkscape:pageopacity="0"
     inkscape:pagecheckerboard="0"
     inkscape:deskcolor="#505050">
    <inkscape:page
       x="0"
       y="0"
       inkscape:label="1"
       id="page1"
       width="458.90668"
       height="433.81332"
       margin="0"
       bleed="0" />
  </sodipodi:namedview>
  <g
     id="g1"
     inkscape:groupmode="layer"
     inkscape:label="1">
    <path
       id="path1"
       d="m 217.44,521.91998 h 94.4"
       style="fill:none;stroke:#000000;stroke-width:26.4;stroke-linecap:round;stroke-linejoin:round;stroke-miterlimit:10;stroke-dasharray:none;stroke-opacity:1"
       transform="translate(-189.44,-359.05339)"
       clip-path="url(#clipPath2)" />
    <path
       id="path3"
       d="m 311.84,521.91998 v 245.44"
       style="fill:none;stroke:#000000;stroke-width:26.4;stroke-linecap:round;stroke-linejoin:round;stroke-miterlimit:10;stroke-dasharray:none;stroke-opacity:1"
       transform="translate(-189.44,-359.05339)"
       clip-path="url(#clipPath4)" />
    <path
       id="path5"
       d="M 311.84,767.35998 500.64001,389.76001"
       style="fill:none;stroke:#000000;stroke-width:26.4;stroke-linecap:round;stroke-linejoin:round;stroke-miterlimit:10;stroke-dasharray:none;stroke-opacity:1"
       transform="translate(-189.44,-359.05339)"
       clip-path="url(#clipPath6)" />
    <path
       id="path7"
       d="M 0,0 4.96,0.48 19.68,1.6 27.84,2.4 39.040001,3.68 48,4.96 l 7.200001,1.44 6.079998,1.44 5.279999,1.44 4.480003,1.6 3.839996,1.76 3.200005,1.92 L 80,15.84 82.080002,17.6 84,19.68 l 1.599998,2.4 1.279999,2.4 L 87.68,27.200001 88,29.92 v 3.039999 L 87.519997,35.84 86.559998,38.880001 85.279999,42.080002 83.360001,45.119999 81.120003,48.16 78.400002,51.200001 75.199997,53.919998 71.68,56.639999 l -0.639999,0.48 -2.879997,1.600002 L 63.84,61.119999 58.560001,63.52 52,66.400002 47.68,68 44,69.440002 l -2.880001,1.119996 -4.48,2.080001 -3.36,1.599999 -2.4,1.599998 -1.759998,1.440003 L 28,78.559998 27.360001,80 v 1.279999 l 0.319999,1.440002 0.16,0.32 1.119999,1.440002 1.440001,1.439995 1.76,1.599999 2.400001,1.600006 2.879998,1.759994 3.36,1.920006 3.84,1.919998 4.48,2.239998 4.960003,2.239998 L 59.84,101.6 l 6.399998,2.72 7.200004,2.88 8.32,3.2 9.439995,3.52 11.360003,4.16 12.16,4.48"
       style="fill:none;stroke:#000000;stroke-width:26.4;stroke-linecap:round;stroke-linejoin:round;stroke-miterlimit:10;stroke-dasharray:none;stroke-opacity:1"
       transform="translate(74.720004,23.666609)"
       clip-path="url(#clipPath8)" />
    <path
       id="path9"
       d="m 0,0 4.48,4.32 4.8,4.16 5.28,3.84 5.44,3.52 5.6,3.200001 L 31.52,22.08 37.599998,24.639999 44,27.040001 l 6.400002,1.919998 6.719997,1.6 L 63.84,31.84 l 6.719998,0.959999 6.880004,0.64 6.879998,0.159999 6.879997,-0.159999 6.880005,-0.48 L 104.8,32.16 l 6.72,-1.280001 6.72,-1.599998 6.4,-1.92 6.39999,-2.24 6.24001,-2.560002 5.92,-2.879999 5.76001,-3.2 5.43998,-3.36 5.28,-3.84 4.80001,-4 4.63999,-4.32 4.32001,-4.48 4,-4.8 3.52001,-4.8 3.19999,-5.12 2.87999,-5.28 2.40001,-5.439999 2.08,-5.440003 L 193.11999,-40 194.24,-45.759998 195.03999,-51.52 195.36,-57.279999 v -5.760002 l -0.48,-5.760002 -0.96,-5.599999 -1.44,-5.760002 -1.76,-5.599998 -2.24,-5.439995 -2.56,-5.280006 -3.04,-5.279997 -3.36,-4.96 -3.68,-4.8 -4.16001,-4.64 -4.47999,-4.48 -4.64,-4.16 -5.12,-3.84 -5.28,-3.68001 -5.6,-3.35998 -5.92,-3.04001 -5.92,-2.88001 -6.24,-2.39999 -6.56,-2.08 -6.4,-1.76 -6.72,-1.44 -6.88,-0.96 -6.720003,-0.79999 L 88.32,-151.36 h -6.879998"
       style="fill:none;stroke:#000000;stroke-width:26.4;stroke-linecap:round;stroke-linejoin:round;stroke-miterlimit:10;stroke-dasharray:none;stroke-opacity:1"
       transform="translate(235.84,181.90663)"
       clip-path="url(#clipPath10)" />
    <path
       id="path11"
       d="m 508.79999,577.59998 0.80002,185.76"
       style="fill:none;stroke:#000000;stroke-width:26.4;stroke-linecap:round;stroke-linejoin:round;stroke-miterlimit:10;stroke-dasharray:none;stroke-opacity:1"
       transform="translate(-189.44,-359.05339)"
       clip-path="url(#clipPath12)" />
    <path
       id="path13"
       d="m 509.60001,763.35998 h 73.75997"
       style="fill:none;stroke:#000000;stroke-width:26.4;stroke-linecap:round;stroke-linejoin:round;stroke-miterlimit:10;stroke-dasharray:none;stroke-opacity:1"
       transform="translate(-189.44,-359.05339)"
       clip-path="url(#clipPath14)" />
  </g>
</svg>
