<?xml version="1.0" encoding="UTF-8" standalone="no"?>
<!-- Created with Inkscape (http://www.inkscape.org/) -->

<svg
   version="1.1"
   id="svg1"
   width="504.28"
   height="477.86667"
   viewBox="0 0 504.28 477.86667"
   sodipodi:docname="SalAlkali25.pdf"
   xmlns:inkscape="http://www.inkscape.org/namespaces/inkscape"
   xmlns:sodipodi="http://sodipodi.sourceforge.net/DTD/sodipodi-0.dtd"
   xmlns="http://www.w3.org/2000/svg"
   xmlns:svg="http://www.w3.org/2000/svg">
  <defs
     id="defs1">
    <clipPath
       clipPathUnits="userSpaceOnUse"
       id="clipPath2">
      <path
         d="M 0,0.16 V 1122.5601 H 793.59998 V 0.16 Z"
         transform="translate(-3.3333333e-6)"
         clip-rule="evenodd"
         id="path2" />
    </clipPath>
    <clipPath
       clipPathUnits="userSpaceOnUse"
       id="clipPath4">
      <path
         d="M 0,0.16 V 1122.5601 H 793.59998 V 0.16 Z"
         transform="translate(-512,-849.59998)"
         clip-rule="evenodd"
         id="path4" />
    </clipPath>
    <clipPath
       clipPathUnits="userSpaceOnUse"
       id="clipPath6">
      <path
         d="M 0,0.16 V 1122.5601 H 793.59998 V 0.16 Z"
         transform="translate(-3.3333333e-6)"
         clip-rule="evenodd"
         id="path6" />
    </clipPath>
    <clipPath
       clipPathUnits="userSpaceOnUse"
       id="clipPath8">
      <path
         d="M 0,0.16 V 1122.5601 H 793.59998 V 0.16 Z"
         transform="translate(-3.3333333e-6)"
         clip-rule="evenodd"
         id="path8" />
    </clipPath>
  </defs>
  <sodipodi:namedview
     id="namedview1"
     pagecolor="#505050"
     bordercolor="#eeeeee"
     borderopacity="1"
     inkscape:showpageshadow="0"
     inkscape:pageopacity="0"
     inkscape:pagecheckerboard="0"
     inkscape:deskcolor="#505050">
    <inkscape:page
       x="0"
       y="0"
       inkscape:label="1"
       id="page1"
       width="504.28"
       height="477.86667"
       margin="0"
       bleed="0" />
  </sodipodi:namedview>
  <g
     id="g1"
     inkscape:groupmode="layer"
     inkscape:label="1">
    <path
       id="path1"
       d="M 208,636.79999 H 661.12"
       style="fill:none;stroke:#000000;stroke-width:26.4;stroke-linecap:round;stroke-linejoin:round;stroke-miterlimit:10;stroke-dasharray:none;stroke-opacity:1"
       transform="translate(-184.09333,-396.42673)"
       clip-path="url(#clipPath2)" />
    <path
       id="path3"
       d="m 0,0 9.92,-3.68 9.6,-4.32 9.439999,-4.8 9.280003,-5.12 8.799999,-5.6 L 55.84,-29.6 64.160004,-36 72.32,-42.720001 80,-49.919998 l 7.519997,-7.520001 7.040001,-7.84 6.720002,-8.160003 6.24,-8.479996 5.92,-8.800003 5.44,-8.959999 5.12,-9.28 4.64,-9.44 4.16,-9.76 3.68,-9.92 3.19999,-10.08 2.88001,-10.08 2.24,-10.4 1.76,-10.39999 1.44,-10.40001 0.8,-10.56 0.31999,-10.56 -0.15998,-10.55999 -0.64,-10.56 L 147.2,-242.24 l -1.59999,-10.4 -2.08001,-10.24 -2.55999,-10.24 -3.04001,-10.23999 -3.52001,-9.92001 -4,-9.76001 -4.47999,-9.6 -4.8,-9.43998 -5.28,-9.12002 -5.76,-8.79999 -6.08,-8.64001 -6.559998,-8.31998 -6.880004,-8 -7.360001,-7.68002 -7.68,-7.19999 -7.839997,-7.04 -8.319999,-6.56 -8.48,-6.07999 -8.960003,-5.76001 -9.119999,-5.44 -9.279999,-4.95999 -9.6,-4.48001 -9.76,-4 -9.92,-3.68"
       style="fill:none;stroke:#000000;stroke-width:26.4;stroke-linecap:round;stroke-linejoin:round;stroke-miterlimit:10;stroke-dasharray:none;stroke-opacity:1"
       transform="translate(327.90667,453.17325)"
       clip-path="url(#clipPath4)" />
    <path
       id="path5"
       d="M 434.56,485.76001 V 787.84003"
       style="fill:none;stroke:#000000;stroke-width:26.4;stroke-linecap:round;stroke-linejoin:round;stroke-miterlimit:10;stroke-dasharray:none;stroke-opacity:1"
       transform="translate(-184.09333,-396.42673)"
       clip-path="url(#clipPath6)" />
    <path
       id="path7"
       d="M 321.28,485.76001 V 787.84003"
       style="fill:none;stroke:#000000;stroke-width:26.4;stroke-linecap:round;stroke-linejoin:round;stroke-miterlimit:10;stroke-dasharray:none;stroke-opacity:1"
       transform="translate(-184.09333,-396.42673)"
       clip-path="url(#clipPath8)" />
  </g>
</svg>
