<?xml version="1.0" encoding="UTF-8" standalone="no"?>
<!-- Created with Inkscape (http://www.inkscape.org/) -->

<svg
   version="1.1"
   id="svg1"
   width="501.60001"
   height="576.64001"
   viewBox="0 0 501.60001 576.64001"
   sodipodi:docname="SalAlkali17.pdf"
   xmlns:inkscape="http://www.inkscape.org/namespaces/inkscape"
   xmlns:sodipodi="http://sodipodi.sourceforge.net/DTD/sodipodi-0.dtd"
   xmlns="http://www.w3.org/2000/svg"
   xmlns:svg="http://www.w3.org/2000/svg">
  <defs
     id="defs1">
    <clipPath
       clipPathUnits="userSpaceOnUse"
       id="clipPath2">
      <path
         d="M 0,0.16 V 1122.5601 H 793.59998 V 0.16 Z"
         transform="translate(-453.92001,-931.67999)"
         clip-rule="evenodd"
         id="path2" />
    </clipPath>
    <clipPath
       clipPathUnits="userSpaceOnUse"
       id="clipPath4">
      <path
         d="M 0,0.16 V 1122.5601 H 793.59998 V 0.16 Z"
         transform="translate(-539.35998,-843.52002)"
         clip-rule="evenodd"
         id="path4" />
    </clipPath>
    <clipPath
       clipPathUnits="userSpaceOnUse"
       id="clipPath6">
      <path
         d="M 0,0.16 V 1122.5601 H 793.59998 V 0.16 Z"
         transform="translate(-245.60001,-676.64002)"
         clip-rule="evenodd"
         id="path6" />
    </clipPath>
    <clipPath
       clipPathUnits="userSpaceOnUse"
       id="clipPath8">
      <path
         d="M 0,0.16 V 1122.5601 H 793.59998 V 0.16 Z"
         transform="translate(-434.39999,-450.07999)"
         clip-rule="evenodd"
         id="path8" />
    </clipPath>
    <clipPath
       clipPathUnits="userSpaceOnUse"
       id="clipPath10">
      <path
         d="M 0,0.16 V 1122.5601 H 793.59998 V 0.16 Z"
         transform="translate(-435.04001,-893.91998)"
         clip-rule="evenodd"
         id="path10" />
    </clipPath>
    <clipPath
       clipPathUnits="userSpaceOnUse"
       id="clipPath12">
      <path
         d="M 0,0.16 V 1122.5601 H 793.59998 V 0.16 Z"
         transform="translate(-539.35998,-843.52002)"
         clip-rule="evenodd"
         id="path12" />
    </clipPath>
  </defs>
  <sodipodi:namedview
     id="namedview1"
     pagecolor="#505050"
     bordercolor="#eeeeee"
     borderopacity="1"
     inkscape:showpageshadow="0"
     inkscape:pageopacity="0"
     inkscape:pagecheckerboard="0"
     inkscape:deskcolor="#505050">
    <inkscape:page
       x="0"
       y="0"
       inkscape:label="1"
       id="page1"
       width="501.60001"
       height="576.64001"
       margin="0"
       bleed="0" />
  </sodipodi:namedview>
  <g
     id="g1"
     inkscape:groupmode="layer"
     inkscape:label="1">
    <path
       id="path1"
       d="m 0,0 c 0,-20.85 -8.45,-37.759998 -18.879999,-37.759998 -10.43,0 -18.879999,16.909998 -18.879999,37.759998 0,20.85 8.449999,37.759998 18.879999,37.759998 C -8.45,37.759998 0,20.85 0,0 Z"
       style="fill:none;stroke:#000000;stroke-width:26.4;stroke-linecap:round;stroke-linejoin:round;stroke-miterlimit:10;stroke-dasharray:none;stroke-opacity:1"
       transform="translate(273.82668,512.55993)"
       clip-path="url(#clipPath2)" />
    <path
       id="path3"
       d="m 0,0 9.12,-2.56 8.96,-2.72 8.799999,-3.04 8.320002,-3.04 8.16,-3.36 7.84,-3.52 7.36,-3.68 7.200001,-3.84 6.720001,-4 6.399994,-4.159998 5.920006,-4.320004 5.599999,-4.479999 5.119995,-4.64 L 100.32,-52 l 4.16,-4.799999 3.84,-4.959999 3.52,-4.960003 2.88,-4.959999 2.4,-5.120003 1.92,-5.119995 1.6,-5.279999 0.96,-5.120003 0.48,-5.279998 V -102.88 l -0.48,-5.28 -0.8,-5.12 -1.44,-5.28 -1.92,-5.12 -2.4,-5.12 -2.88,-5.12 -3.36,-4.96 -3.68,-4.96 -4.32,-4.8 -4.639996,-4.64 -5.120003,-4.64 -5.440003,-4.47999 L 79.68,-166.72 l -6.400001,-4.16 -6.559998,-4 -7.200001,-3.84 -7.36,-3.84 -7.84,-3.52 -8,-3.36 -8.32,-3.04 -8.799999,-3.04 -8.800001,-2.72 -9.28,-2.56 -9.28,-2.4 -9.6,-2.08 -9.92,-1.92 -9.919998,-1.6 -10.080002,-1.44 -10.239998,-1.28 -10.240006,-0.96 -10.399994,-0.63999 -10.560005,-0.48002 -10.399994,-0.31999 H -110.08 l -10.56,0.31999 -10.39999,0.48002 -10.40001,0.79998 -10.23999,0.96001 -10.24001,1.28 -10.08,1.44 -9.92,1.60001 -9.92,1.92 -9.44,2.08 -9.44,2.39999 -9.12,2.56 -8.96,2.88 -8.64,2.87999 -8.31999,3.20002 -8,3.36 -7.84002,3.51999 -7.35998,3.84001 -7.04001,3.83999 -6.72,4 -6.23999,4.32 -5.92001,4.32 -5.44001,4.48 -5.11999,4.64 -4.48001,4.64 -4.31998,4.8 -3.68002,4.96001 -3.19999,4.95999 -2.88,5.11999 -2.39999,5.12001 -1.76001,5.12 -1.44001,5.12 -0.79998,5.28 -0.48001,5.28 v 5.279997 l 0.64001,5.120003 0.95999,5.279999 1.60001,5.279999 2.07998,5.120002 2.4,5.120003 3.04001,4.959999 3.36001,4.959999 3.84,4.959999 4.31998,4.8 4.80001,4.639999 5.12,4.479999 5.6,4.480004 6.07999,4.32 6.4,4.159997 6.72,4 7.20001,3.840001 7.51999,3.68 7.84001,3.52 8.16,3.36 8.48,3.04 8.64,2.88 8.96001,2.72 9.27999,2.56"
       style="fill:none;stroke:#000000;stroke-width:26.4;stroke-linecap:round;stroke-linejoin:round;stroke-miterlimit:10;stroke-dasharray:none;stroke-opacity:1"
       transform="translate(359.26665,424.39996)"
       clip-path="url(#clipPath4)" />
    <path
       id="path5"
       d="m 0,0 12.96,-7.68 12.64,-8.16 12.319998,-8.64 12,-9.119998 11.84,-9.440003 11.360005,-9.919998 L 84,-63.200001 94.720001,-73.760002 104.96,-84.800003 114.88,-96.32 l 9.44,-11.68 8.96,-12 8.47999,-12.48 8.16001,-12.63999 7.68001,-12.96001 7.19999,-13.28 6.72,-13.44 6.23999,-13.76 5.76001,-13.92 5.28,-14.08"
       style="fill:none;stroke:#000000;stroke-width:26.4;stroke-linecap:round;stroke-linejoin:round;stroke-miterlimit:10;stroke-dasharray:none;stroke-opacity:1"
       transform="translate(65.506673,257.51996)"
       clip-path="url(#clipPath6)" />
    <path
       id="path7"
       d="M 0,0 5.28,14.08 10.88,28 17.120001,41.759998 24,55.200001 l 7.200001,13.280002 7.52,12.959999 8.16,12.64 L 55.52,106.56 l 8.960003,12 9.439995,11.68 9.919998,11.51999 L 94.080002,152.8 104.64,163.36 l 11.04,10.24001 11.36,9.91999 11.68,9.44001 12,9.11999 12.48,8.64 12.64,8.16 12.96,7.68"
       style="fill:none;stroke:#000000;stroke-width:26.4;stroke-linecap:round;stroke-linejoin:round;stroke-miterlimit:10;stroke-dasharray:none;stroke-opacity:1"
       transform="translate(254.30666,30.959928)"
       clip-path="url(#clipPath8)" />
    <path
       id="path9"
       d="M 0,0 -14.08,-8.64 -28.32,-16.799999 -42.880001,-24.48 -57.759998,-31.68 -72.800003,-38.400002 -88,-44.639999 l -15.52,-5.600003"
       style="fill:none;stroke:#000000;stroke-width:26.4;stroke-linecap:round;stroke-linejoin:round;stroke-miterlimit:10;stroke-dasharray:none;stroke-opacity:1"
       transform="translate(254.94668,474.79992)"
       clip-path="url(#clipPath10)" />
    <path
       id="path11"
       d="m 0,0 -15.52,5.76 -15.359999,6.4 -15.200003,6.719999 L -60.959999,26.08 -75.68,33.759998 l -14.400002,8.16 -14.239998,8.480004"
       style="fill:none;stroke:#000000;stroke-width:26.4;stroke-linecap:round;stroke-linejoin:round;stroke-miterlimit:10;stroke-dasharray:none;stroke-opacity:1"
       transform="translate(359.26665,424.39996)"
       clip-path="url(#clipPath12)" />
  </g>
</svg>
