<?xml version="1.0" encoding="UTF-8" standalone="no"?>
<!-- Created with Inkscape (http://www.inkscape.org/) -->

<svg
   version="1.1"
   id="svg1"
   width="520.28003"
   height="500.54666"
   viewBox="0 0 520.28003 500.54666"
   sodipodi:docname="SalAlkali41.pdf"
   xmlns:inkscape="http://www.inkscape.org/namespaces/inkscape"
   xmlns:sodipodi="http://sodipodi.sourceforge.net/DTD/sodipodi-0.dtd"
   xmlns="http://www.w3.org/2000/svg"
   xmlns:svg="http://www.w3.org/2000/svg">
  <defs
     id="defs1">
    <clipPath
       clipPathUnits="userSpaceOnUse"
       id="clipPath2">
      <path
         d="M 0,0.16 V 1122.5601 H 793.59998 V 0.16 Z"
         transform="translate(-201.44,-853.76001)"
         clip-rule="evenodd"
         id="path2" />
    </clipPath>
    <clipPath
       clipPathUnits="userSpaceOnUse"
       id="clipPath4">
      <path
         d="M 0,0.16 V 1122.5601 H 793.59998 V 0.16 Z"
         transform="translate(3.3333334e-6)"
         clip-rule="evenodd"
         id="path4" />
    </clipPath>
    <clipPath
       clipPathUnits="userSpaceOnUse"
       id="clipPath6">
      <path
         d="M 0,0.16 V 1122.5601 H 793.59998 V 0.16 Z"
         transform="translate(-554.23999,-712.32001)"
         clip-rule="evenodd"
         id="path6" />
    </clipPath>
  </defs>
  <sodipodi:namedview
     id="namedview1"
     pagecolor="#505050"
     bordercolor="#eeeeee"
     borderopacity="1"
     inkscape:showpageshadow="0"
     inkscape:pageopacity="0"
     inkscape:pagecheckerboard="0"
     inkscape:deskcolor="#505050">
    <inkscape:page
       x="0"
       y="0"
       inkscape:label="1"
       id="page1"
       width="520.28003"
       height="500.54666"
       margin="0"
       bleed="0" />
  </sodipodi:namedview>
  <g
     id="g1"
     inkscape:groupmode="layer"
     inkscape:label="1">
    <path
       id="path1"
       d="m 0,0 3.52,8.16 3.52,7.68 3.68,7.360001 3.84,6.879999 4.159999,6.719999 4.16,6.240002 4.320002,5.919998 L 31.68,54.400002 36.16,59.360001 40.799999,64 45.599998,68.160004 50.560001,72 55.52,75.199997 60.48,78.080002 65.599998,80.32 70.720001,82.239998 76,83.68 l 5.120003,0.959999 5.279999,0.480004 5.119995,-0.160004 5.280006,-0.479996 5.119997,-0.960006 5.28,-1.439995 5.12,-1.919998 5.12,-2.400002 4.96,-2.880005 4.96,-3.36 4.8,-3.839997 4.80001,-4.319999 4.64,-4.64 4.63999,-5.120003 4.32,-5.439998 4.32,-5.919998 4.15999,-6.400002 4,-6.559999 L 166.88,22.24 l 3.84,-7.52 3.36,-7.68 3.36,-8 3.2,-8.32 2.88,-8.64 2.87999,-8.959999 L 188.8,-36 l 2.4,-9.279999 2.08,-9.600002 1.92,-9.759998 1.6,-9.919999 1.44,-10.080001 1.28,-10.080002 0.96,-10.239999 0.63999,-10.4 0.48002,-10.4 0.31999,-10.4 v -10.56 l -0.31999,-10.39999 -0.48002,-10.40001 -0.63999,-10.23999 -0.96,-10.40001 -1.28,-10.08 -1.44,-10.08001 -1.6,-9.91999 -1.92,-9.76 -2.08,-9.60001 -2.4,-9.27999 -2.40001,-9.12 -2.87999,-8.95999 -2.88,-8.48001 -3.2,-8.48001 -3.36,-8 -3.36,-7.68 -3.84,-7.35998 -3.84001,-7.04001 -4,-6.72 -4.15999,-6.4 -4.32,-5.92001 -4.32,-5.44 -4.63999,-5.12 -4.64,-4.63998 -4.80001,-4.32001 -4.8,-3.83999 -4.96,-3.20002 -4.96,-2.88 -5.12,-2.56 -5.12,-1.91998 -5.28,-1.44 -5.119997,-0.96 -5.280006,-0.48001 -5.119995,-0.16 -5.279999,0.48001 L 76,-366.56 l -5.279999,1.44 -5.120003,1.91999 -5.119998,2.24002 -4.96,2.88 -4.959999,3.35999 -4.960003,3.67999 -4.799999,4.16001 -4.639999,4.64001 -4.48,4.95999 -4.479999,5.60001 -4.320002,5.75998 -4.16,6.24002 -4.159999,6.72 -3.84,7.03998 -3.68,7.20001 -3.52,7.84 -3.52,7.83999"
       style="fill:none;stroke:#000000;stroke-width:26.4;stroke-linecap:round;stroke-linejoin:round;stroke-miterlimit:10;stroke-dasharray:none;stroke-opacity:1"
       transform="translate(28.013335,391.91995)"
       clip-path="url(#clipPath2)" />
    <path
       id="path3"
       d="M 290.07999,712.32001 H 554.40002"
       style="fill:none;stroke:#000000;stroke-width:26.4;stroke-linecap:round;stroke-linejoin:round;stroke-miterlimit:10;stroke-dasharray:none;stroke-opacity:1"
       transform="translate(-173.42667,-461.84006)"
       clip-path="url(#clipPath4)" />
    <path
       id="path5"
       d="m 0,0 0.32,4.48 0.48,4.32 0.8,4.48 1.28,4.160001 1.6,4.319999 1.76,4 2.24,3.84 2.4,3.679999 2.72,3.52 L 16.639999,40 20,43.040001 l 3.52,2.719997 3.680001,2.560002 3.84,2.080002 4,1.919998 4.16,1.599998 L 43.52,55.040001 47.84,56 l 4.48,0.48 4.479999,0.159999 4.32,-0.159999 4.479999,-0.48 4.32,-0.959999 4.32,-1.120003 4.160004,-1.599998 4,-1.919998 4,-2.080002 3.68,-2.560002 3.519996,-2.719997 L 96.800003,40 l 3.039993,-3.200001 2.720004,-3.52 2.4,-3.679999 2.24,-3.84 1.92,-4 1.44,-4.319999 1.28,-4.160001 0.8,-4.48 0.64,-4.32 V 0"
       style="fill:none;stroke:#000000;stroke-width:26.4;stroke-linecap:round;stroke-linejoin:round;stroke-miterlimit:10;stroke-dasharray:none;stroke-opacity:1"
       transform="translate(380.81332,250.47995)"
       clip-path="url(#clipPath6)" />
  </g>
</svg>
