<?xml version="1.0" encoding="UTF-8" standalone="no"?>
<!-- Created with Inkscape (http://www.inkscape.org/) -->

<svg
   version="1.1"
   id="svg1"
   width="397.54666"
   height="351.05334"
   viewBox="0 0 397.54666 351.05334"
   sodipodi:docname="SalAlkali3.pdf"
   xmlns:inkscape="http://www.inkscape.org/namespaces/inkscape"
   xmlns:sodipodi="http://sodipodi.sourceforge.net/DTD/sodipodi-0.dtd"
   xmlns="http://www.w3.org/2000/svg"
   xmlns:svg="http://www.w3.org/2000/svg">
  <defs
     id="defs1">
    <clipPath
       clipPathUnits="userSpaceOnUse"
       id="clipPath2">
      <path
         d="M 0,0.16 V 1122.5601 H 793.59998 V 0.16 Z"
         transform="translate(-396.79999,-636.79999)"
         clip-rule="evenodd"
         id="path2" />
    </clipPath>
    <clipPath
       clipPathUnits="userSpaceOnUse"
       id="clipPath4">
      <path
         d="M 0,0.16 V 1122.5601 H 793.59998 V 0.16 Z"
         clip-rule="evenodd"
         id="path4" />
    </clipPath>
    <clipPath
       clipPathUnits="userSpaceOnUse"
       id="clipPath6">
      <path
         d="M 0,0.16 V 1122.5601 H 793.59998 V 0.16 Z"
         transform="translate(-472.32001,-334.72)"
         clip-rule="evenodd"
         id="path6" />
    </clipPath>
  </defs>
  <sodipodi:namedview
     id="namedview1"
     pagecolor="#505050"
     bordercolor="#eeeeee"
     borderopacity="1"
     inkscape:showpageshadow="0"
     inkscape:pageopacity="0"
     inkscape:pagecheckerboard="0"
     inkscape:deskcolor="#505050">
    <inkscape:page
       x="0"
       y="0"
       inkscape:label="1"
       id="page1"
       width="397.54666"
       height="351.05334"
       margin="0"
       bleed="0" />
  </sodipodi:namedview>
  <g
     id="g1"
     inkscape:groupmode="layer"
     inkscape:label="1">
    <path
       id="path1"
       d="M 0,0 5.44,-0.16 10.72,-0.8 16.16,-1.76 21.280001,-3.04 26.4,-4.8 31.360001,-6.88 36.32,-9.28 40.799999,-12 l 4.48,-3.04 4.16,-3.36 4,-3.68 3.68,-4 3.360001,-4.16 3.04,-4.480001 2.880002,-4.64 2.400001,-4.799999 2.079994,-4.959999 1.600006,-5.120003 1.279999,-5.279998 0.959999,-5.280003 0.64,-5.279999 0.159996,-5.439995"
       style="fill:none;stroke:#000000;stroke-width:26.4;stroke-linecap:round;stroke-linejoin:round;stroke-miterlimit:10;stroke-dasharray:none;stroke-opacity:1"
       transform="translate(396.79999,791.63993)"
       clip-path="url(#clipPath2)" />
    <path
       id="path3"
       d="M 472.32001,561.28003 V 334.72"
       style="fill:none;stroke:#000000;stroke-width:26.4;stroke-linecap:round;stroke-linejoin:round;stroke-miterlimit:10;stroke-dasharray:none;stroke-opacity:1"
       transform="translate(0,154.83994)"
       clip-path="url(#clipPath4)" />
    <path
       id="path5"
       d="m 0,0 -194.24,194.39999 -1.28,1.44001 -1.12,1.44 -1.11999,1.75999 -0.80001,1.76001 -0.47999,1.76 -0.48001,1.92 -0.15999,1.91999 -0.16001,1.92002 0.16001,1.91999 0.47999,1.92 0.48,1.92 0.8,1.76 0.80001,1.6 1.11999,1.59999 1.28,1.60001 1.44,1.28 1.44,1.28 1.6,0.96 1.76,0.80001 1.92,0.79998 1.76,0.48001 1.92,0.32 h 1.91999 237.600009 l 2.080002,-0.16001 1.919998,-0.15999 1.920002,-0.63999 1.759999,-0.64 1.760002,-0.96001 1.759994,-0.96001 1.440003,-1.28 1.440002,-1.43998 L 72,218.72 l 0.959999,-1.60001 0.959999,-1.75999 0.64,-1.75999 0.639999,-1.92002 0.32,-2.07998 V 207.67999 94.400002 L 75.68,92.480003 76,90.559998 l 0.480003,-1.919999 0.64,-1.919998 0.959999,-1.760002 1.119995,-1.599998 1.280006,-1.599999 1.279999,-1.440002 1.599999,-1.120003 1.599998,-1.119995 1.760002,-0.959999 1.919998,-0.64 L 90.559998,76 l 1.920005,-0.32 1.919999,-0.160003 h 56.639988"
       style="fill:none;stroke:#000000;stroke-width:26.4;stroke-linecap:round;stroke-linejoin:round;stroke-miterlimit:10;stroke-dasharray:none;stroke-opacity:1"
       transform="translate(472.32001,489.55994)"
       clip-path="url(#clipPath6)" />
  </g>
</svg>
