<?xml version="1.0" encoding="UTF-8" standalone="no"?>
<!-- Created with Inkscape (http://www.inkscape.org/) -->

<svg
   version="1.1"
   id="svg1"
   width="586.98669"
   height="355.05334"
   viewBox="0 0 586.98669 355.05334"
   sodipodi:docname="SalAlkali9.pdf"
   xmlns:inkscape="http://www.inkscape.org/namespaces/inkscape"
   xmlns:sodipodi="http://sodipodi.sourceforge.net/DTD/sodipodi-0.dtd"
   xmlns="http://www.w3.org/2000/svg"
   xmlns:svg="http://www.w3.org/2000/svg">
  <defs
     id="defs1">
    <clipPath
       clipPathUnits="userSpaceOnUse"
       id="clipPath2">
      <path
         d="M 26.4,26.559999 V 1096.16 H 767.03998 V 26.559999 Z"
         transform="translate(-377.76001,-561.35999)"
         clip-rule="evenodd"
         id="path2" />
    </clipPath>
    <clipPath
       clipPathUnits="userSpaceOnUse"
       id="clipPath4">
      <path
         d="M 26.4,26.559999 V 1096.16 H 767.03998 V 26.559999 Z"
         clip-rule="evenodd"
         id="path4" />
    </clipPath>
    <clipPath
       clipPathUnits="userSpaceOnUse"
       id="clipPath6">
      <path
         d="M 26.4,26.559999 V 1096.16 H 767.03998 V 26.559999 Z"
         clip-rule="evenodd"
         id="path6" />
    </clipPath>
    <clipPath
       clipPathUnits="userSpaceOnUse"
       id="clipPath8">
      <path
         d="M 26.4,26.559999 V 1096.16 H 767.03998 V 26.559999 Z"
         transform="translate(-240,-485.92001)"
         clip-rule="evenodd"
         id="path8" />
    </clipPath>
    <clipPath
       clipPathUnits="userSpaceOnUse"
       id="clipPath10">
      <path
         d="M 26.4,26.559999 V 1096.16 H 767.03998 V 26.559999 Z"
         transform="translate(-240,-636.79999)"
         clip-rule="evenodd"
         id="path10" />
    </clipPath>
    <clipPath
       clipPathUnits="userSpaceOnUse"
       id="clipPath12">
      <path
         d="M 26.4,26.559999 V 1096.16 H 767.03998 V 26.559999 Z"
         transform="translate(-240,-485.92001)"
         clip-rule="evenodd"
         id="path12" />
    </clipPath>
    <clipPath
       clipPathUnits="userSpaceOnUse"
       id="clipPath14">
      <path
         d="M 26.4,26.559999 V 1096.16 H 767.03998 V 26.559999 Z"
         transform="translate(-240,-636.79999)"
         clip-rule="evenodd"
         id="path14" />
    </clipPath>
    <clipPath
       clipPathUnits="userSpaceOnUse"
       id="clipPath16">
      <path
         d="M 26.4,26.559999 V 1096.16 H 767.03998 V 26.559999 Z"
         transform="translate(-528.79998,-674.56)"
         clip-rule="evenodd"
         id="path16" />
    </clipPath>
  </defs>
  <sodipodi:namedview
     id="namedview1"
     pagecolor="#505050"
     bordercolor="#eeeeee"
     borderopacity="1"
     inkscape:showpageshadow="0"
     inkscape:pageopacity="0"
     inkscape:pagecheckerboard="0"
     inkscape:deskcolor="#505050">
    <inkscape:page
       x="0"
       y="0"
       inkscape:label="1"
       id="page1"
       width="586.98669"
       height="355.05334"
       margin="0"
       bleed="0" />
  </sodipodi:namedview>
  <g
     id="g1"
     inkscape:groupmode="layer"
     inkscape:label="1">
    <path
       id="path1"
       d="m 0,0 c 0,-83.370003 -67.620003,-150.96001 -151.03999,-150.96001 -83.42002,0 -151.04,67.590007 -151.04,150.96001 0,83.370003 67.61998,150.96001 151.04,150.96001 C -67.620003,150.96001 0,83.370003 0,0 Z"
       style="fill:none;stroke:#000000;stroke-width:26.4;stroke-linecap:round;stroke-linejoin:round;stroke-miterlimit:10;stroke-dasharray:none;stroke-opacity:1"
       transform="translate(327.06668,175.59993)"
       clip-path="url(#clipPath2)" />
    <path
       id="path3"
       d="M 75.68,561.28003 H 528.79999"
       style="fill:none;stroke:#000000;stroke-width:26.4;stroke-linecap:round;stroke-linejoin:round;stroke-miterlimit:10;stroke-dasharray:none;stroke-opacity:1"
       transform="translate(-50.693333,-385.76006)"
       clip-path="url(#clipPath4)" />
    <path
       id="path5"
       d="M 528.79999,561.28003 V 674.56"
       style="fill:none;stroke:#000000;stroke-width:26.4;stroke-linecap:round;stroke-linejoin:round;stroke-miterlimit:10;stroke-dasharray:none;stroke-opacity:1"
       transform="translate(-50.693333,-385.76006)"
       clip-path="url(#clipPath6)" />
    <path
       id="path7"
       d="m 0,0 -0.16,-1.76 -0.32,-1.76 -0.48,-1.6 -0.8,-1.6 -0.96,-1.44 -1.12,-1.28 -1.28,-1.12 -1.44,-0.96 -1.6,-0.8 -1.6,-0.48 -1.76,-0.32 -1.76,-0.16 -1.76,0.16 -1.599999,0.32 -1.600001,0.48 -1.6,0.8 -1.440001,0.96 -1.279998,1.12 -1.120001,1.28 -0.959999,1.44 -0.800002,1.6 -0.639999,1.6 -0.32,1.76 V 0 1.6 l 0.32,1.76 0.639999,1.6 0.800002,1.6 L -23.68,8 l 1.120001,1.28 1.279998,1.12 1.440001,0.96 1.6,0.8 1.600001,0.48 1.599999,0.32 1.76,0.16 1.76,-0.16 1.76,-0.32 1.6,-0.48 1.6,-0.8 L -5.12,10.4 -3.84,9.28 -2.72,8 -1.76,6.56 -0.96,4.96 -0.48,3.36 -0.16,1.6 0,0 v 0 z"
       style="fill:#000000;fill-opacity:1;fill-rule:evenodd;stroke:none"
       transform="translate(189.30667,100.15995)"
       clip-path="url(#clipPath8)" />
    <path
       id="path9"
       d="m 0,0 -0.16,-1.6 -0.32,-1.76 -0.48,-1.6 -0.8,-1.6 -0.96,-1.44 -1.12,-1.28 -1.28,-1.12 -1.44,-0.96 -1.6,-0.8 -1.6,-0.48 -1.76,-0.32 -1.76,-0.16 -1.76,0.16 -1.599999,0.32 -1.600001,0.48 -1.6,0.8 -1.440001,0.96 -1.279998,1.12 L -23.68,-8 l -0.959999,1.44 -0.800002,1.6 -0.639999,1.6 -0.32,1.76 V 0 1.76 l 0.32,1.76 0.639999,1.6 0.800002,1.6 0.959999,1.44 1.120001,1.28 1.279998,1.12 1.440001,0.96 1.6,0.8 1.600001,0.48 1.599999,0.32 1.76,0.16 1.76,-0.16 1.76,-0.32 1.6,-0.48 1.6,-0.8 1.44,-0.96 1.28,-1.12 1.12,-1.28 0.96,-1.44 0.8,-1.6 0.48,-1.6 L -0.16,1.76 0,0 v 0 z"
       style="fill:#000000;fill-opacity:1;fill-rule:evenodd;stroke:none"
       transform="translate(189.30667,251.03993)"
       clip-path="url(#clipPath10)" />
    <path
       id="path11"
       d="m 0,0 -0.16,-1.76 -0.32,-1.76 -0.48,-1.6 -0.8,-1.6 -0.96,-1.44 -1.12,-1.28 -1.28,-1.12 -1.44,-0.96 -1.6,-0.8 -1.6,-0.48 -1.76,-0.32 -1.76,-0.16 -1.76,0.16 -1.599999,0.32 -1.600001,0.48 -1.6,0.8 -1.440001,0.96 -1.279998,1.12 -1.120001,1.28 -0.959999,1.44 -0.800002,1.6 -0.639999,1.6 -0.32,1.76 V 0 1.6 l 0.32,1.76 0.639999,1.6 0.800002,1.6 L -23.68,8 l 1.120001,1.28 1.279998,1.12 1.440001,0.96 1.6,0.8 1.600001,0.48 1.599999,0.32 1.76,0.16 1.76,-0.16 1.76,-0.32 1.6,-0.48 1.6,-0.8 L -5.12,10.4 -3.84,9.28 -2.72,8 -1.76,6.56 -0.96,4.96 -0.48,3.36 -0.16,1.6 0,0"
       style="fill:none;stroke:#000000;stroke-width:0.64;stroke-linecap:round;stroke-linejoin:round;stroke-miterlimit:10;stroke-dasharray:none;stroke-opacity:1"
       transform="translate(189.30667,100.15995)"
       clip-path="url(#clipPath12)" />
    <path
       id="path13"
       d="m 0,0 -0.16,-1.6 -0.32,-1.76 -0.48,-1.6 -0.8,-1.6 -0.96,-1.44 -1.12,-1.28 -1.28,-1.12 -1.44,-0.96 -1.6,-0.8 -1.6,-0.48 -1.76,-0.32 -1.76,-0.16 -1.76,0.16 -1.599999,0.32 -1.600001,0.48 -1.6,0.8 -1.440001,0.96 -1.279998,1.12 L -23.68,-8 l -0.959999,1.44 -0.800002,1.6 -0.639999,1.6 -0.32,1.76 V 0 1.76 l 0.32,1.76 0.639999,1.6 0.800002,1.6 0.959999,1.44 1.120001,1.28 1.279998,1.12 1.440001,0.96 1.6,0.8 1.600001,0.48 1.599999,0.32 1.76,0.16 1.76,-0.16 1.76,-0.32 1.6,-0.48 1.6,-0.8 1.44,-0.96 1.28,-1.12 1.12,-1.28 0.96,-1.44 0.8,-1.6 0.48,-1.6 L -0.16,1.76 0,0"
       style="fill:none;stroke:#000000;stroke-width:0.64;stroke-linecap:round;stroke-linejoin:round;stroke-miterlimit:10;stroke-dasharray:none;stroke-opacity:1"
       transform="translate(189.30667,251.03993)"
       clip-path="url(#clipPath14)" />
    <path
       id="path15"
       d="m 0,0 6.56,-2.4 6.24,-3.04 6.079999,-3.2 5.92,-3.68 5.76,-4 5.280001,-4.319999 5.279999,-4.800002 4.799999,-4.959999 4.480004,-5.28 4.159999,-5.439999 3.840001,-5.760002 3.519996,-6.079998 3.200005,-6.240002 2.719993,-6.399997 2.400002,-6.560006 1.920006,-6.559997 1.439994,-6.879997 1.120003,-6.720002 0.64,-7.040001 L 75.68,-106.24 l -0.160003,-7.04"
       style="fill:none;stroke:#000000;stroke-width:26.4;stroke-linecap:round;stroke-linejoin:round;stroke-miterlimit:10;stroke-dasharray:none;stroke-opacity:1"
       transform="translate(478.10665,288.79994)"
       clip-path="url(#clipPath16)" />
  </g>
</svg>
