<?xml version="1.0" encoding="UTF-8" standalone="no"?>
<!-- Created with Inkscape (http://www.inkscape.org/) -->

<svg
   version="1.1"
   id="svg1"
   width="514.94666"
   height="332.35999"
   viewBox="0 0 514.94666 332.35999"
   sodipodi:docname="SalAlkali39.pdf"
   xmlns:inkscape="http://www.inkscape.org/namespaces/inkscape"
   xmlns:sodipodi="http://sodipodi.sourceforge.net/DTD/sodipodi-0.dtd"
   xmlns="http://www.w3.org/2000/svg"
   xmlns:svg="http://www.w3.org/2000/svg">
  <defs
     id="defs1">
    <clipPath
       clipPathUnits="userSpaceOnUse"
       id="clipPath2">
      <path
         d="M 0,0.16 V 1122.5601 H 793.59998 V 0.16 Z"
         transform="translate(-505.92001,-625.59998)"
         clip-rule="evenodd"
         id="path2" />
    </clipPath>
    <clipPath
       clipPathUnits="userSpaceOnUse"
       id="clipPath4">
      <path
         d="M 0,0.16 V 1122.5601 H 793.59998 V 0.16 Z"
         transform="translate(-581.44,-852.15997)"
         clip-rule="evenodd"
         id="path4" />
    </clipPath>
    <clipPath
       clipPathUnits="userSpaceOnUse"
       id="clipPath6">
      <path
         d="M 0,0.16 V 1122.5601 H 793.59998 V 0.16 Z"
         transform="translate(-579.35998,-730.56)"
         clip-rule="evenodd"
         id="path6" />
    </clipPath>
  </defs>
  <sodipodi:namedview
     id="namedview1"
     pagecolor="#505050"
     bordercolor="#eeeeee"
     borderopacity="1"
     inkscape:showpageshadow="0"
     inkscape:pageopacity="0"
     inkscape:pagecheckerboard="0"
     inkscape:deskcolor="#505050">
    <inkscape:page
       x="0"
       y="0"
       inkscape:label="1"
       id="page1"
       width="514.94666"
       height="332.35999"
       margin="0"
       bleed="0" />
  </sodipodi:namedview>
  <g
     id="g1"
     inkscape:groupmode="layer"
     inkscape:label="1">
    <path
       id="path1"
       d="M 0,0 H -302.07999 V 226.56 H -113.28 v -75.52001 h 75.520002 V 226.56 H 75.519997"
       style="fill:none;stroke:#000000;stroke-width:26.4;stroke-linecap:round;stroke-linejoin:round;stroke-miterlimit:10;stroke-dasharray:none;stroke-opacity:1"
       transform="translate(327.16001,75.666584)"
       clip-path="url(#clipPath2)" />
    <path
       id="path3"
       d="m 0,0 5.44,-0.16 5.28,-0.32 5.44,-0.8 5.120001,-0.96 L 26.4,-3.52 31.360001,-5.12 36.16,-6.88 l 4.639999,-2.08 4.48,-2.24 4.16,-2.56 4,-2.879999 3.68,-2.880001 3.360001,-3.199999 3.04,-3.200001 2.719998,-3.520001 2.560005,-3.679998 1.919998,-3.68 1.760002,-3.84 1.279999,-4 0.959999,-3.840001 0.64,-4.159999 0.159996,-4 -0.159996,-4 -0.64,-4 -0.959999,-4 -1.279999,-4 -1.760002,-3.840004 -1.919998,-3.680001 L 66.239998,-83.68 63.52,-87.199997 l -3.04,-3.360001 -3.360001,-3.200004 -3.68,-2.879997 -4,-2.720002 -4.16,-2.559999 -4.48,-2.4 L 36.16,-106.24 31.360001,-108.16 26.4,-109.6 21.280001,-110.88 16.16,-112 10.72,-112.64 5.44,-113.12 0,-113.28"
       style="fill:none;stroke:#000000;stroke-width:26.4;stroke-linecap:round;stroke-linejoin:round;stroke-miterlimit:10;stroke-dasharray:none;stroke-opacity:1"
       transform="translate(402.68,302.22658)"
       clip-path="url(#clipPath4)" />
    <path
       id="path5"
       d="m 0,0 6.08,-3.68 6.08,-4.16 5.76,-4.16 5.76,-4.48 5.600001,-4.640001 5.44,-4.799999 L 40,-30.879999 45.119999,-36 l 4.799999,-5.119999 4.480004,-5.280003 4.319999,-5.439998 4.16,-5.439999 3.679997,-5.440002 3.520004,-5.440003 3.199997,-5.439994 L 76,-79.040001 l 2.559998,-5.440002 2.080001,-5.279999 1.760003,-5.279999 1.439994,-5.119999 1.120003,-5.12 0.639999,-4.8 0.32,-4.8 v -4.64 l -0.479996,-4.32 -0.800003,-4.16 -1.120002,-4 -1.599999,-3.67999 L 80.160004,-139.2 77.919998,-142.39999 75.360001,-145.28 72.32,-148 l -3.199997,-2.39999 -3.520005,-1.92002 -3.84,-1.75999 -4.16,-1.44 -4.319999,-1.12 -4.64,-0.8 -4.959999,-0.48 -5.119999,-0.16 -5.280002,0.16 -5.439999,0.48 -5.76,0.96 -5.76,1.12 -5.92,1.44 -5.92,1.92 -6.08,2.08 -6.24,2.4 -6.08,2.72 -6.24,3.04001 -6.08,3.19999 -6.24,3.52001 -6.080001,3.67999 -5.919999,4 -5.920002,4.32 -5.759998,4.32 -5.599998,4.64 -5.600003,4.8 -5.279998,4.8"
       style="fill:none;stroke:#000000;stroke-width:26.4;stroke-linecap:round;stroke-linejoin:round;stroke-miterlimit:10;stroke-dasharray:none;stroke-opacity:1"
       transform="translate(400.59998,180.62661)"
       clip-path="url(#clipPath6)" />
  </g>
</svg>
