<?xml version="1.0" encoding="UTF-8" standalone="no"?>
<!-- Created with Inkscape (http://www.inkscape.org/) -->

<svg
   version="1.1"
   id="svg1"
   width="361.53333"
   height="501.88"
   viewBox="0 0 361.53333 501.88"
   sodipodi:docname="SalAlkali20.pdf"
   xmlns:inkscape="http://www.inkscape.org/namespaces/inkscape"
   xmlns:sodipodi="http://sodipodi.sourceforge.net/DTD/sodipodi-0.dtd"
   xmlns="http://www.w3.org/2000/svg"
   xmlns:svg="http://www.w3.org/2000/svg">
  <defs
     id="defs1">
    <clipPath
       clipPathUnits="userSpaceOnUse"
       id="clipPath2">
      <path
         d="M 0,0.16 V 1122.5601 H 793.59998 V 0.16 Z"
         transform="translate(-318.56,-691.03998)"
         clip-rule="evenodd"
         id="path2" />
    </clipPath>
    <clipPath
       clipPathUnits="userSpaceOnUse"
       id="clipPath4">
      <path
         d="M 0,0.16 V 1122.5601 H 793.59998 V 0.16 Z"
         clip-rule="evenodd"
         id="path4" />
    </clipPath>
    <clipPath
       clipPathUnits="userSpaceOnUse"
       id="clipPath6">
      <path
         d="M 0,0.16 V 1122.5601 H 793.59998 V 0.16 Z"
         clip-rule="evenodd"
         id="path6" />
    </clipPath>
  </defs>
  <sodipodi:namedview
     id="namedview1"
     pagecolor="#505050"
     bordercolor="#eeeeee"
     borderopacity="1"
     inkscape:showpageshadow="0"
     inkscape:pageopacity="0"
     inkscape:pagecheckerboard="0"
     inkscape:deskcolor="#505050">
    <inkscape:page
       x="0"
       y="0"
       inkscape:label="1"
       id="page1"
       width="361.53333"
       height="501.88"
       margin="0"
       bleed="0" />
  </sodipodi:namedview>
  <g
     id="g1"
     inkscape:groupmode="layer"
     inkscape:label="1">
    <path
       id="path1"
       d="m 0,0 -4.96,6.56 -4.64,6.72 -4.48,6.88 -3.84,7.200001 -3.68,7.36 -3.039999,7.520001 -2.880001,7.679996 -2.24,7.84 -1.92,8.000004 -1.439999,8 -1.120003,8.159996 -0.479999,8.160004 -0.16,8.159996 0.32,8.160002 0.640003,8.16 1.279999,8 1.599998,8.16 2.080002,7.84 2.4,7.83999 2.879999,7.68001 3.36,7.36 3.680001,7.36 4.159999,7.04 4.32,6.88 4.96,6.56 5.12,6.39999 5.6,6.08 5.76,5.60001 6.080001,5.44 6.559999,5.12 6.56,4.64 7.04,4.32 7.040001,4 7.359997,3.51999 7.68,3.20002 7.680001,2.72 7.840004,2.39999 7.839996,1.92 8.160004,1.44 7.999997,0.95999 8.16,0.64 8.32,0.16001 8.16,-0.32 7.99999,-0.8 8.16001,-1.11999 8,-1.60001 8,-2.08 7.68001,-2.4 7.67999,-2.88 7.52,-3.36 7.36,-3.67999 7.04,-4.16001 6.88,-4.47999 6.56,-4.80001 6.24,-5.12001 6.08001,-5.59999 5.75999,-5.76001 5.44,-6.23999 4.95999,-6.40001 4.80001,-6.55999 4.32,-7.04 4,-7.04001 3.51999,-7.36 3.2,-7.67999 2.72,-7.68001 2.4,-7.83999 1.76001,-7.84 1.6,-8.16 0.95999,-8 0.48001,-8.32"
       style="fill:none;stroke:#000000;stroke-width:26.4;stroke-linecap:round;stroke-linejoin:round;stroke-miterlimit:10;stroke-dasharray:none;stroke-opacity:1"
       transform="translate(63.759998,229.19992)"
       clip-path="url(#clipPath2)" />
    <path
       id="path3"
       d="m 318.72,691.20001 191.51999,-205.44"
       style="fill:none;stroke:#000000;stroke-width:26.4;stroke-linecap:round;stroke-linejoin:round;stroke-miterlimit:10;stroke-dasharray:none;stroke-opacity:1"
       transform="translate(-254.8,-461.84006)"
       clip-path="url(#clipPath4)" />
    <path
       id="path5"
       d="M 359.20001,485.76001 510.23999,636.79999"
       style="fill:none;stroke:#000000;stroke-width:26.4;stroke-linecap:round;stroke-linejoin:round;stroke-miterlimit:10;stroke-dasharray:none;stroke-opacity:1"
       transform="translate(-254.8,-461.84006)"
       clip-path="url(#clipPath6)" />
  </g>
</svg>
