<?xml version="1.0" encoding="UTF-8" standalone="no"?>
<!-- Created with Inkscape (http://www.inkscape.org/) -->

<svg
   version="1.1"
   id="svg1"
   width="273.49332"
   height="387.07999"
   viewBox="0 0 273.49332 387.07999"
   sodipodi:docname="SalAlkali.pdf"
   xmlns:inkscape="http://www.inkscape.org/namespaces/inkscape"
   xmlns:sodipodi="http://sodipodi.sourceforge.net/DTD/sodipodi-0.dtd"
   xmlns="http://www.w3.org/2000/svg"
   xmlns:svg="http://www.w3.org/2000/svg">
  <defs
     id="defs1">
    <clipPath
       clipPathUnits="userSpaceOnUse"
       id="clipPath2">
      <path
         d="M 0,0.16 V 1122.5601 H 793.59998 V 0.16 Z"
         transform="translate(-510.07998,-485.76001)"
         clip-rule="evenodd"
         id="path2" />
    </clipPath>
    <clipPath
       clipPathUnits="userSpaceOnUse"
       id="clipPath4">
      <path
         d="M 0,0.16 V 1122.5601 H 793.59998 V 0.16 Z"
         transform="translate(-510.07998,-712.32001)"
         clip-rule="evenodd"
         id="path4" />
    </clipPath>
  </defs>
  <sodipodi:namedview
     id="namedview1"
     pagecolor="#505050"
     bordercolor="#eeeeee"
     borderopacity="1"
     inkscape:showpageshadow="0"
     inkscape:pageopacity="0"
     inkscape:pagecheckerboard="0"
     inkscape:deskcolor="#505050">
    <inkscape:page
       x="0"
       y="0"
       inkscape:label="1"
       id="page1"
       width="273.49332"
       height="387.07999"
       margin="0"
       bleed="0" />
  </sodipodi:namedview>
  <g
     id="g1"
     inkscape:groupmode="layer"
     inkscape:label="1">
    <path
       id="path1"
       d="m 0,0 c 0,-62.560001 -50.709999,-113.28 -113.28,-113.28 -62.57001,0 -113.28,50.719999 -113.28,113.28 0,62.560001 50.70999,113.28 113.28,113.28 C -50.709999,113.28 0,62.560001 0,0 Z"
       style="fill:none;stroke:#000000;stroke-width:26.4;stroke-linecap:round;stroke-linejoin:round;stroke-miterlimit:10;stroke-dasharray:none;stroke-opacity:1"
       transform="translate(249.94665,137.37328)"
       clip-path="url(#clipPath2)" />
    <path
       id="path3"
       d="M 0,0 -0.16,-6.72 -0.8,-13.6 -1.76,-20.32 -3.2,-27.040001 -4.96,-33.599998 -7.2,-40 -9.92,-46.240002 -12.8,-52.48 -16.16,-58.400002 -19.84,-64 l -4,-5.599998 -4.32,-5.279999 -4.639999,-4.959999 -4.959999,-4.640007 -5.280003,-4.32 -5.439999,-4.159996 -5.760002,-3.68 L -60.16,-100 l -6.079998,-3.04 -6.240005,-2.56 -6.399994,-2.4 -6.560005,-1.76 -6.720002,-1.44 -6.719993,-1.12 -6.720003,-0.64 -6.88,-0.32 -6.72,0.16 -6.88,0.64 -6.72,0.96 -6.56,1.28 -6.56,1.76 -6.56,2.24 -6.24,2.56 -6.24001,2.88 -5.91999,3.359998 -5.76,3.520004 -5.6,4 -5.28,4.32 -4.96,4.639999 -4.63999,4.959999 -4.48002,5.120003 -4.15998,5.439995 -3.68001,5.760002 -3.36,5.760002 -3.2,6.079998 -2.56,6.400001 -2.40001,6.399998 -1.91999,6.400002 -1.44001,6.719999 -1.11999,6.72 -0.8,6.72"
       style="fill:none;stroke:#000000;stroke-width:26.4;stroke-linecap:round;stroke-linejoin:round;stroke-miterlimit:10;stroke-dasharray:none;stroke-opacity:1"
       transform="translate(249.94665,363.93328)"
       clip-path="url(#clipPath4)" />
  </g>
</svg>
