<?xml version="1.0" encoding="UTF-8" standalone="no"?>
<!-- Created with Inkscape (http://www.inkscape.org/) -->

<svg
   version="1.1"
   id="svg1"
   width="198.77333"
   height="261.62668"
   viewBox="0 0 198.77333 261.62668"
   sodipodi:docname="SalAlkali4.pdf"
   xmlns:inkscape="http://www.inkscape.org/namespaces/inkscape"
   xmlns:sodipodi="http://sodipodi.sourceforge.net/DTD/sodipodi-0.dtd"
   xmlns="http://www.w3.org/2000/svg"
   xmlns:svg="http://www.w3.org/2000/svg">
  <defs
     id="defs1">
    <clipPath
       clipPathUnits="userSpaceOnUse"
       id="clipPath2">
      <path
         d="M 0,0.16 V 1122.5601 H 793.59998 V 0.16 Z"
         transform="translate(-473.44,-596.96002)"
         clip-rule="evenodd"
         id="path2" />
    </clipPath>
    <clipPath
       clipPathUnits="userSpaceOnUse"
       id="clipPath4">
      <path
         d="M 0,0.16 V 1122.5601 H 793.59998 V 0.16 Z"
         transform="translate(-433.12,-484.16001)"
         clip-rule="evenodd"
         id="path4" />
    </clipPath>
    <clipPath
       clipPathUnits="userSpaceOnUse"
       id="clipPath6">
      <path
         d="M 0,0.16 V 1122.5601 H 793.59998 V 0.16 Z"
         transform="translate(-411.04001,-600.15997)"
         clip-rule="evenodd"
         id="path6" />
    </clipPath>
    <clipPath
       clipPathUnits="userSpaceOnUse"
       id="clipPath8">
      <path
         d="M 0,0.16 V 1122.5601 H 793.59998 V 0.16 Z"
         transform="translate(-411.04001,-600.15997)"
         clip-rule="evenodd"
         id="path8" />
    </clipPath>
  </defs>
  <sodipodi:namedview
     id="namedview1"
     pagecolor="#505050"
     bordercolor="#eeeeee"
     borderopacity="1"
     inkscape:showpageshadow="0"
     inkscape:pageopacity="0"
     inkscape:pagecheckerboard="0"
     inkscape:deskcolor="#505050">
    <inkscape:page
       x="0"
       y="0"
       inkscape:label="1"
       id="page1"
       width="198.77333"
       height="261.62668"
       margin="0"
       bleed="0" />
  </sodipodi:namedview>
  <g
     id="g1"
     inkscape:groupmode="layer"
     inkscape:label="1">
    <path
       id="path1"
       d="M 0,0 C 0,-42.32 -34.310001,-76.639999 -76.639999,-76.639999 -118.97,-76.639999 -153.28,-42.32 -153.28,0 c 0,42.32 34.31,76.639999 76.640001,76.639999 C -34.310001,76.639999 0,42.32 0,0 Z"
       style="fill:none;stroke:#000000;stroke-width:26.4;stroke-linecap:round;stroke-linejoin:round;stroke-miterlimit:10;stroke-dasharray:none;stroke-opacity:1"
       transform="translate(473.44,600.95996)"
       clip-path="url(#clipPath2)" />
    <path
       id="path3"
       d="m 0,0 c 0,-19.440001 -15.75,-35.200001 -35.200001,-35.200001 -19.450001,0 -35.200001,15.76 -35.200001,35.200001 0,19.440001 15.75,35.200001 35.200001,35.200001 C -15.75,35.200001 0,19.440001 0,0 Z"
       style="fill:none;stroke:#000000;stroke-width:26.4;stroke-linecap:round;stroke-linejoin:round;stroke-miterlimit:10;stroke-dasharray:none;stroke-opacity:1"
       transform="translate(433.12,488.15995)"
       clip-path="url(#clipPath4)" />
    <path
       id="path5"
       d="m 0,0 v -1.76 l -0.48,-1.76 -0.48,-1.6 -0.8,-1.6 -0.96,-1.44 -1.12,-1.28 -1.28,-1.12 -1.44,-0.96 -1.6,-0.8 -1.6,-0.48 -1.76,-0.32 -1.6,-0.16 -1.76,0.16 -1.759999,0.32 -1.600001,0.48 -1.6,0.8 -1.440001,0.96 -1.279998,1.12 -1.120001,1.28 -0.959999,1.44 -0.800002,1.6 -0.479999,1.6 -0.32,1.76 -0.16,1.76 0.16,1.6 0.32,1.76 0.479999,1.6 0.800002,1.6 L -23.68,8 l 1.120001,1.28 1.279998,1.12 1.440001,0.96 1.6,0.8 1.600001,0.48 1.759999,0.48 h 1.76 1.6 l 1.76,-0.48 1.6,-0.48 1.6,-0.8 L -5.12,10.4 -3.84,9.28 -2.72,8 -1.76,6.56 -0.96,4.96 -0.48,3.36 0,1.6 V 0 0 Z"
       style="fill:#000000;fill-opacity:1;fill-rule:evenodd;stroke:none"
       transform="translate(411.04001,604.15991)"
       clip-path="url(#clipPath6)" />
    <path
       id="path7"
       d="m 0,0 v -1.76 l -0.48,-1.76 -0.48,-1.6 -0.8,-1.6 -0.96,-1.44 -1.12,-1.28 -1.28,-1.12 -1.44,-0.96 -1.6,-0.8 -1.6,-0.48 -1.76,-0.32 -1.6,-0.16 -1.76,0.16 -1.759999,0.32 -1.600001,0.48 -1.6,0.8 -1.440001,0.96 -1.279998,1.12 -1.120001,1.28 -0.959999,1.44 -0.800002,1.6 -0.479999,1.6 -0.32,1.76 -0.16,1.76 0.16,1.6 0.32,1.76 0.479999,1.6 0.800002,1.6 L -23.68,8 l 1.120001,1.28 1.279998,1.12 1.440001,0.96 1.6,0.8 1.600001,0.48 1.759999,0.48 h 1.76 1.6 l 1.76,-0.48 1.6,-0.48 1.6,-0.8 L -5.12,10.4 -3.84,9.28 -2.72,8 -1.76,6.56 -0.96,4.96 -0.48,3.36 0,1.6 V 0"
       style="fill:none;stroke:#000000;stroke-width:0.64;stroke-linecap:round;stroke-linejoin:round;stroke-miterlimit:10;stroke-dasharray:none;stroke-opacity:1"
       transform="translate(411.04001,604.15991)"
       clip-path="url(#clipPath8)" />
  </g>
</svg>
