<?xml version="1.0" encoding="UTF-8" standalone="no"?>
<!-- Created with Inkscape (http://www.inkscape.org/) -->

<svg
   version="1.1"
   id="svg1"
   width="322.84"
   height="499.21332"
   viewBox="0 0 322.84 499.21332"
   sodipodi:docname="SalAlkali18.pdf"
   xmlns:inkscape="http://www.inkscape.org/namespaces/inkscape"
   xmlns:sodipodi="http://sodipodi.sourceforge.net/DTD/sodipodi-0.dtd"
   xmlns="http://www.w3.org/2000/svg"
   xmlns:svg="http://www.w3.org/2000/svg">
  <defs
     id="defs1">
    <clipPath
       clipPathUnits="userSpaceOnUse"
       id="clipPath2">
      <path
         d="M 0,0.16 V 1122.5601 H 793.59998 V 0.16 Z"
         transform="translate(-566.55999,-523.84003)"
         clip-rule="evenodd"
         id="path2" />
    </clipPath>
    <clipPath
       clipPathUnits="userSpaceOnUse"
       id="clipPath4">
      <path
         d="M 0,0.16 V 1122.5601 H 793.59998 V 0.16 Z"
         transform="translate(-453.76001,-712.32001)"
         clip-rule="evenodd"
         id="path4" />
    </clipPath>
  </defs>
  <sodipodi:namedview
     id="namedview1"
     pagecolor="#505050"
     bordercolor="#eeeeee"
     borderopacity="1"
     inkscape:showpageshadow="0"
     inkscape:pageopacity="0"
     inkscape:pagecheckerboard="0"
     inkscape:deskcolor="#505050">
    <inkscape:page
       x="0"
       y="0"
       inkscape:label="1"
       id="page1"
       width="322.84"
       height="499.21332"
       margin="0"
       bleed="0" />
  </sodipodi:namedview>
  <g
     id="g1"
     inkscape:groupmode="layer"
     inkscape:label="1">
    <path
       id="path1"
       d="m 0,0 -5.6,-4.48 -5.76,-4.16 -6.24,-4 -6.4,-3.68 -6.719999,-3.52 -7.039999,-3.200001 -7.040001,-2.879999 -7.360001,-2.56 -7.52,-2.399999 -7.839997,-1.92 -7.68,-1.760002 -8,-1.279999 -8,-1.119999 -8.160004,-0.639999 -7.999999,-0.32 -8.16,-0.160004 -8.16,0.320004 -8.16,0.639999 -8,0.799999 -8,1.279999 -7.83999,1.600002 -7.68001,1.919999 -7.52,2.239999 -7.51999,2.400002 -7.20002,2.879999 -7.03999,3.040001 -6.72,3.359999 -6.56,3.68 -6.24,3.84 -6.08,4.16 -5.6,4.32 -5.44,4.64 -4.96,4.8 -4.64,4.96 -4.32,5.12 -4,5.440001 -3.52,5.439998 -3.03999,5.600003 L -256.48001,40.16 -258.88,46.080002 -260.64001,52 -262.07999,57.919998 -263.20001,64 l -0.47998,6.080002 -0.16001,6.080002 0.16001,6.079994 0.79999,6.080002 1.11999,6.080002 1.60001,6.079998 2.08001,5.76 2.4,5.92 2.87999,5.76 3.19999,5.44 3.68001,5.60001 4.16001,5.27999 4.31999,5.12 4.8,4.8 5.12,4.80001 5.44,4.47999 5.75999,4.31999 6.08001,4 6.4,3.84002 6.56,3.51998 6.88001,3.36001 7.19999,3.04 7.2,2.56 7.52,2.4 7.68,2.08 7.68001,1.92 8,1.44 8,1.11999 8,0.80001 8.15999,0.48001 8.16,0.15999"
       style="fill:none;stroke:#000000;stroke-width:26.4;stroke-linecap:round;stroke-linejoin:round;stroke-miterlimit:10;stroke-dasharray:none;stroke-opacity:1"
       transform="translate(295.74666,63.333302)"
       clip-path="url(#clipPath2)" />
    <path
       id="path3"
       d="m 0,0 -8.16,0.16 -8.16,0.48 -8,0.8 -8,1.12 -8,1.6 -7.68,1.76 -7.68,2.08 -7.520001,2.4 -7.200001,2.72 -7.199996,2.88 -6.880005,3.360001 -6.559998,3.519998 -6.400001,3.84 -6.079998,4 -5.76,4.320002 -5.44,4.479999 -5.12,4.8 -4.8,4.959999 -4.32001,5.120003 -4.15998,5.279998 -3.68001,5.440003 -3.2,5.599998 -2.88,5.599999 -2.4,5.919998 -2.08,5.920006 -1.60001,5.919998 -1.11999,6.079998 -0.8,6.08 -0.15999,6.08 0.15999,6.08 0.48001,6.08 1.11999,6.08 1.44,5.92 1.76,5.91999 2.40001,5.92002 2.71998,5.75999 3.04001,5.59999 3.52001,5.44 4,5.44001 4.31999,5.11999 4.64,4.96001 4.96,4.8 5.44,4.64 5.6,4.31999 6.079999,4.16001 6.239998,4 6.560005,3.52 6.720002,3.36 7.039993,3.04 7.200005,2.88 7.519996,2.56 7.520001,2.08 7.68,1.92 7.84,1.6 8,1.28 8,0.80001 8.160001,0.63999 8.16,0.32 h 8.16 l 8,-0.48 8.16,-0.64 8,-1.11999 7.999998,-1.28002 7.680001,-1.75999 7.84,-1.92 7.52,-2.39999 L 68,214.39999 75.040001,211.52 l 7.040001,-3.19999 6.720001,-3.36 6.399994,-3.84002 6.240003,-3.83999 5.76,-4.31999 5.6,-4.48001"
       style="fill:none;stroke:#000000;stroke-width:26.4;stroke-linecap:round;stroke-linejoin:round;stroke-miterlimit:10;stroke-dasharray:none;stroke-opacity:1"
       transform="translate(182.94668,251.81328)"
       clip-path="url(#clipPath4)" />
  </g>
</svg>
