<?xml version="1.0" encoding="UTF-8" standalone="no"?>
<!-- Created with Inkscape (http://www.inkscape.org/) -->

<svg
   version="1.1"
   id="svg1"
   width="469.58667"
   height="288.32001"
   viewBox="0 0 469.58667 288.32001"
   sodipodi:docname="SalAlkali32.pdf"
   xmlns:inkscape="http://www.inkscape.org/namespaces/inkscape"
   xmlns:sodipodi="http://sodipodi.sourceforge.net/DTD/sodipodi-0.dtd"
   xmlns="http://www.w3.org/2000/svg"
   xmlns:svg="http://www.w3.org/2000/svg">
  <defs
     id="defs1">
    <clipPath
       clipPathUnits="userSpaceOnUse"
       id="clipPath2">
      <path
         d="M 0,0.16 V 1122.5601 H 793.59998 V 0.16 Z"
         transform="translate(-480.48001,-591.35998)"
         clip-rule="evenodd"
         id="path2" />
    </clipPath>
    <clipPath
       clipPathUnits="userSpaceOnUse"
       id="clipPath4">
      <path
         d="M 0,0.16 V 1122.5601 H 793.59998 V 0.16 Z"
         clip-rule="evenodd"
         id="path4" />
    </clipPath>
    <clipPath
       clipPathUnits="userSpaceOnUse"
       id="clipPath6">
      <path
         d="M 0,0.16 V 1122.5601 H 793.59998 V 0.16 Z"
         transform="translate(-465.28,-651.84002)"
         clip-rule="evenodd"
         id="path6" />
    </clipPath>
    <clipPath
       clipPathUnits="userSpaceOnUse"
       id="clipPath8">
      <path
         d="M 0,0.16 V 1122.5601 H 793.59998 V 0.16 Z"
         clip-rule="evenodd"
         id="path8" />
    </clipPath>
    <clipPath
       clipPathUnits="userSpaceOnUse"
       id="clipPath10">
      <path
         d="M 0,0.16 V 1122.5601 H 793.59998 V 0.16 Z"
         transform="translate(-329.44,-651.84002)"
         clip-rule="evenodd"
         id="path10" />
    </clipPath>
  </defs>
  <sodipodi:namedview
     id="namedview1"
     pagecolor="#505050"
     bordercolor="#eeeeee"
     borderopacity="1"
     inkscape:showpageshadow="0"
     inkscape:pageopacity="0"
     inkscape:pagecheckerboard="0"
     inkscape:deskcolor="#505050">
    <inkscape:page
       x="0"
       y="0"
       inkscape:label="1"
       id="page1"
       width="469.58667"
       height="288.32001"
       margin="0"
       bleed="0" />
  </sodipodi:namedview>
  <g
     id="g1"
     inkscape:groupmode="layer"
     inkscape:label="1">
    <path
       id="path1"
       d="m 0,0 -7.2,0.32 -7.36,0.64 -7.2,1.12 -7.039999,1.6 L -35.84,5.6 -42.720001,8 l -6.879997,2.72 -6.560002,3.2 -6.240002,3.68 -6.239997,4 -5.760003,4.32 L -80,30.559999 -85.440002,35.52 l -4.96,5.279999 -4.639999,5.600003 -4.32,5.919998 -3.999999,6.080002 -3.52,6.400001 -3.2,6.559998 -2.88,6.720001 -2.4,6.879997 -1.92,7.040001 -1.44,7.199997 -1.12,7.200003 -0.64,7.2 -0.32,7.36 0.32,7.36001 0.64,7.19999 1.12,7.2 1.44,7.2 1.92,7.04001 2.4,6.87999 2.88,6.72 3.2,6.55999 3.52,6.40001 3.999999,6.08001 4.32,5.91999 4.639999,5.59999 4.96,5.28 L -80,211.36 l 5.599998,4.8 5.760003,4.32 6.239997,3.84001 L -56.16,228 l 6.560002,3.2 6.879997,2.72 6.880001,2.40001 7.040001,1.91999 7.039999,1.6 7.2,1.12001 7.36,0.64 7.2,0.15998 7.36,-0.15998 7.2,-0.64 7.36,-1.12001 7.039999,-1.6 L 36,236.32001 42.880001,233.92 49.599998,231.2 56.16,228 l 6.400001,-3.67999 6.079998,-3.84001 5.919999,-4.32 5.600006,-4.8 5.279998,-4.96001 5.119996,-5.28 4.639999,-5.59999 4.32,-5.91999 4.000003,-6.08001 3.52,-6.40001 3.2,-6.55999 2.72,-6.72 2.4,-6.87999 2.08,-7.04001 1.44,-7.2 1.12,-7.2 0.64,-7.19999 0.16,-7.36001"
       style="fill:none;stroke:#000000;stroke-width:26.4;stroke-linecap:round;stroke-linejoin:round;stroke-miterlimit:10;stroke-dasharray:none;stroke-opacity:1"
       transform="translate(480.48001,293.70659)"
       clip-path="url(#clipPath2)" />
    <path
       id="path3"
       d="m 556,712.32001 h 90.71997"
       style="fill:none;stroke:#000000;stroke-width:26.4;stroke-linecap:round;stroke-linejoin:round;stroke-miterlimit:10;stroke-dasharray:none;stroke-opacity:1"
       transform="translate(0,-297.65339)"
       clip-path="url(#clipPath4)" />
    <path
       id="path5"
       d="m 0,0 h 4.96 l 4.64,-0.32 4.64,-0.48 4.479999,-0.64 4.480002,-0.8 4.319999,-0.96 4.16,-1.12 3.84,-1.28 3.840001,-1.44 3.36,-1.6 3.199997,-1.76 3.040001,-1.92 2.560001,-1.92 2.399998,-2.08 1.920002,-2.08 1.759998,-2.239999 1.280003,-2.24 L 59.84,-25.280001 60.32,-27.68 60.639999,-29.92 60.48,-32.32 59.84,-34.720001 59.040001,-36.959999 57.759998,-39.360001 56.16,-41.439999 54.240002,-43.68 51.84,-45.759998 49.279999,-47.68 46.400002,-49.599998 43.200001,-51.360001 39.68,-52.959999 36,-54.400002 32.16,-55.68 28,-56.959999 23.84,-57.919998 19.360001,-58.720001 14.72,-59.52"
       style="fill:none;stroke:#000000;stroke-width:26.4;stroke-linecap:round;stroke-linejoin:round;stroke-miterlimit:10;stroke-dasharray:none;stroke-opacity:1"
       transform="translate(465.28,354.18663)"
       clip-path="url(#clipPath6)" />
    <path
       id="path7"
       d="m 465.44,651.84003 h -136"
       style="fill:none;stroke:#000000;stroke-width:26.4;stroke-linecap:round;stroke-linejoin:round;stroke-miterlimit:10;stroke-dasharray:none;stroke-opacity:1"
       transform="translate(0,-297.65339)"
       clip-path="url(#clipPath8)" />
    <path
       id="path9"
       d="m 0,0 -5.92,-0.64 -5.92,-0.48 h -6.08 l -5.92,0.32 -6.08,0.8 -5.76,1.12 -5.919998,1.6 -5.600003,1.92 -5.599998,2.24 -5.440003,2.72 -5.119999,3.04 -5.120002,3.36 -4.799996,3.52 -4.480003,4 -4.159996,4.32 -4,4.48 -3.68,4.799999 -3.360001,4.960003 L -96,47.200001 l -2.720001,5.439998 -2.239999,5.600003 -1.92,5.599998 -1.6,5.920002 -1.12,5.759995 -0.8,6.080001 -0.48,5.919999 v 6.080001 l 0.48,5.919999 0.64,6.080003 1.28,5.76 1.44,5.92 1.92,5.6 2.399999,5.6 2.559997,5.44 3.040001,5.11999 3.360001,5.12001 3.68,4.64 3.840004,4.64 4.32,4.16001 4.479996,4 4.800003,3.67999 4.959999,3.36 5.279998,3.03999 5.280003,2.56001 5.599999,2.4 5.760002,1.92 5.759998,1.6 5.76,1.12"
       style="fill:none;stroke:#000000;stroke-width:26.4;stroke-linecap:round;stroke-linejoin:round;stroke-miterlimit:10;stroke-dasharray:none;stroke-opacity:1"
       transform="translate(329.44,354.18663)"
       clip-path="url(#clipPath10)" />
  </g>
</svg>
