<?xml version="1.0" encoding="UTF-8" standalone="no"?>
<!-- Created with Inkscape (http://www.inkscape.org/) -->

<svg
   version="1.1"
   id="svg1"
   width="496.26666"
   height="262.94666"
   viewBox="0 0 496.26666 262.94666"
   sodipodi:docname="SalGemmae20.pdf"
   xmlns:inkscape="http://www.inkscape.org/namespaces/inkscape"
   xmlns:sodipodi="http://sodipodi.sourceforge.net/DTD/sodipodi-0.dtd"
   xmlns="http://www.w3.org/2000/svg"
   xmlns:svg="http://www.w3.org/2000/svg">
  <defs
     id="defs1">
    <clipPath
       clipPathUnits="userSpaceOnUse"
       id="clipPath2">
      <path
         d="M 0,0.16 V 1122.5601 H 793.59998 V 0.16 Z"
         clip-rule="evenodd"
         id="path2" />
    </clipPath>
    <clipPath
       clipPathUnits="userSpaceOnUse"
       id="clipPath4">
      <path
         d="M 0,0.16 V 1122.5601 H 793.59998 V 0.16 Z"
         clip-rule="evenodd"
         id="path4" />
    </clipPath>
    <clipPath
       clipPathUnits="userSpaceOnUse"
       id="clipPath6">
      <path
         d="M 0,0.16 V 1122.5601 H 793.59998 V 0.16 Z"
         transform="translate(-248.32001,-455.51999)"
         clip-rule="evenodd"
         id="path6" />
    </clipPath>
  </defs>
  <sodipodi:namedview
     id="namedview1"
     pagecolor="#505050"
     bordercolor="#eeeeee"
     borderopacity="1"
     inkscape:showpageshadow="0"
     inkscape:pageopacity="0"
     inkscape:pagecheckerboard="0"
     inkscape:deskcolor="#505050">
    <inkscape:page
       x="0"
       y="0"
       inkscape:label="1"
       id="page1"
       width="496.26666"
       height="262.94666"
       margin="0"
       bleed="0" />
  </sodipodi:namedview>
  <g
     id="g1"
     inkscape:groupmode="layer"
     inkscape:label="1">
    <path
       id="path1"
       d="M 406.88,667.03998 618.40002,455.51999"
       style="fill:none;stroke:#000000;stroke-width:26.4;stroke-linecap:round;stroke-linejoin:round;stroke-miterlimit:10;stroke-dasharray:none;stroke-opacity:1"
       transform="translate(0,-8.013392)"
       clip-path="url(#clipPath2)" />
    <path
       id="path3"
       d="M 406.88,667.03998 301.12,561.28003"
       style="fill:none;stroke:#000000;stroke-width:26.4;stroke-linecap:round;stroke-linejoin:round;stroke-miterlimit:10;stroke-dasharray:none;stroke-opacity:1"
       transform="translate(0,-8.013392)"
       clip-path="url(#clipPath4)" />
    <path
       id="path5"
       d="m 0,0 -4.96,0.32 -4.96,0.48 -4.96,0.96 -4.8,1.28 -4.64,1.6 -4.479999,2.08 -4.48,2.24 -4.16,2.72 -4,3.04 -3.84,3.2 -3.36,3.520001 -3.360001,3.84 -2.880001,4 -2.559998,4.319997 -2.400001,4.32 -1.919998,4.640003 -1.600003,4.64 L -64.639999,52 l -0.800003,4.959999 -0.479996,4.959999 -0.160004,4.959999 0.32,4.959999 0.480003,4.960007 1.119995,4.959999 1.280003,4.64 1.760002,4.799995 2.079998,4.480003 2.400002,4.32 2.559997,4.16 3.040001,4 3.360001,3.68 3.52,3.52 3.84,3.2 4.16,2.88 4.16,2.56 4.48,2.24 4.640001,1.92 4.639999,1.44001 4.96,1.27999 4.8,0.79999 4.96,0.48001 h 4.96 l 5.12,-0.32 4.8,-0.64 4.96,-0.96 4.800001,-1.44 4.639999,-1.76 4.48,-2.08 4.320001,-2.56 4.16,-2.72 3.84,-3.04 3.680001,-3.36 3.519996,-3.68 3.040001,-3.84"
       style="fill:none;stroke:#000000;stroke-width:26.4;stroke-linecap:round;stroke-linejoin:round;stroke-miterlimit:10;stroke-dasharray:none;stroke-opacity:1"
       transform="translate(248.32001,447.5066)"
       clip-path="url(#clipPath6)" />
  </g>
</svg>
