<?xml version="1.0" encoding="UTF-8" standalone="no"?>
<!-- Created with Inkscape (http://www.inkscape.org/) -->

<svg
   version="1.1"
   id="svg1"
   width="274.81332"
   height="493.86667"
   viewBox="0 0 274.81332 493.86667"
   sodipodi:docname="SalGemmae33.pdf"
   xmlns:inkscape="http://www.inkscape.org/namespaces/inkscape"
   xmlns:sodipodi="http://sodipodi.sourceforge.net/DTD/sodipodi-0.dtd"
   xmlns="http://www.w3.org/2000/svg"
   xmlns:svg="http://www.w3.org/2000/svg">
  <defs
     id="defs1">
    <clipPath
       clipPathUnits="userSpaceOnUse"
       id="clipPath2">
      <path
         d="M 0,0.16 V 1122.5601 H 793.59998 V 0.16 Z"
         transform="translate(-513.28003,-448)"
         clip-rule="evenodd"
         id="path2" />
    </clipPath>
    <clipPath
       clipPathUnits="userSpaceOnUse"
       id="clipPath4">
      <path
         d="M 0,0.16 V 1122.5601 H 793.59998 V 0.16 Z"
         transform="translate(-286.72,-787.84003)"
         clip-rule="evenodd"
         id="path4" />
    </clipPath>
  </defs>
  <sodipodi:namedview
     id="namedview1"
     pagecolor="#505050"
     bordercolor="#eeeeee"
     borderopacity="1"
     inkscape:showpageshadow="0"
     inkscape:pageopacity="0"
     inkscape:pagecheckerboard="0"
     inkscape:deskcolor="#505050">
    <inkscape:page
       x="0"
       y="0"
       inkscape:label="1"
       id="page1"
       width="274.81332"
       height="493.86667"
       margin="0"
       bleed="0" />
  </sodipodi:namedview>
  <g
     id="g1"
     inkscape:groupmode="layer"
     inkscape:label="1">
    <path
       id="path1"
       d="m 0,0 c 0,-62.560001 -50.709999,-113.28 -113.28,-113.28 -62.57001,0 -113.28,50.719999 -113.28,113.28 0,62.560001 50.70999,113.28 113.28,113.28 C -50.709999,113.28 0,62.560001 0,0 Z"
       style="fill:none;stroke:#000000;stroke-width:26.4;stroke-linecap:round;stroke-linejoin:round;stroke-miterlimit:10;stroke-dasharray:none;stroke-opacity:1"
       transform="translate(513.28003,443.99994)"
       clip-path="url(#clipPath2)" />
    <path
       id="path3"
       d="M 0,0 12.16,-4.48 24,-9.44 l 11.68,-5.44 11.520001,-5.919999 11.200001,-6.240002 11.04,-6.719997 10.720002,-7.040001 10.399994,-7.520001 10.240002,-8 9.76,-8.319999 9.6,-8.64 9.28,-8.959999 8.8,-9.279999 8.48,-9.760003 8.16,-9.92 7.68,-10.4 7.36,-10.56 7.04001,-10.87999 6.39999,-11.04001 6.08,-11.36 5.76,-11.52001 5.28,-11.83999 4.63999,-12 4.32001,-12.16001 3.84,-12.15998 3.52,-12.48002 2.87999,-12.63999 2.40001,-12.64 1.92,-12.63999 1.60001,-12.80002 0.95999,-12.79999 0.47999,-12.95999 V -326.88 L 226.56,-339.84"
       style="fill:none;stroke:#000000;stroke-width:26.4;stroke-linecap:round;stroke-linejoin:round;stroke-miterlimit:10;stroke-dasharray:none;stroke-opacity:1"
       transform="translate(286.72,783.83997)"
       clip-path="url(#clipPath4)" />
  </g>
</svg>
