<?xml version="1.0" encoding="UTF-8" standalone="no"?>
<!-- Created with Inkscape (http://www.inkscape.org/) -->

<svg
   version="1.1"
   id="svg1"
   width="617.66669"
   height="388.41333"
   viewBox="0 0 617.66669 388.41333"
   sodipodi:docname="SalGemmae6.pdf"
   xmlns:inkscape="http://www.inkscape.org/namespaces/inkscape"
   xmlns:sodipodi="http://sodipodi.sourceforge.net/DTD/sodipodi-0.dtd"
   xmlns="http://www.w3.org/2000/svg"
   xmlns:svg="http://www.w3.org/2000/svg">
  <defs
     id="defs1">
    <clipPath
       clipPathUnits="userSpaceOnUse"
       id="clipPath2">
      <path
         d="M 0,0.16 V 1122.5601 H 793.59998 V 0.16 Z"
         clip-rule="evenodd"
         id="path2" />
    </clipPath>
    <clipPath
       clipPathUnits="userSpaceOnUse"
       id="clipPath4">
      <path
         d="M 0,0.16 V 1122.5601 H 793.59998 V 0.16 Z"
         clip-rule="evenodd"
         id="path4" />
    </clipPath>
    <clipPath
       clipPathUnits="userSpaceOnUse"
       id="clipPath6">
      <path
         d="M 0,0.16 V 1122.5601 H 793.59998 V 0.16 Z"
         clip-rule="evenodd"
         id="path6" />
    </clipPath>
    <clipPath
       clipPathUnits="userSpaceOnUse"
       id="clipPath8">
      <path
         d="M 0,0.16 V 1122.5601 H 793.59998 V 0.16 Z"
         clip-rule="evenodd"
         id="path8" />
    </clipPath>
    <clipPath
       clipPathUnits="userSpaceOnUse"
       id="clipPath10">
      <path
         d="M 0,0.16 V 1122.5601 H 793.59998 V 0.16 Z"
         transform="translate(-532.47998,-712.32001)"
         clip-rule="evenodd"
         id="path10" />
    </clipPath>
    <clipPath
       clipPathUnits="userSpaceOnUse"
       id="clipPath12">
      <path
         d="M 0,0.16 V 1122.5601 H 793.59998 V 0.16 Z"
         transform="translate(-532.47998,-712.32001)"
         clip-rule="evenodd"
         id="path12" />
    </clipPath>
  </defs>
  <sodipodi:namedview
     id="namedview1"
     pagecolor="#505050"
     bordercolor="#eeeeee"
     borderopacity="1"
     inkscape:showpageshadow="0"
     inkscape:pageopacity="0"
     inkscape:pagecheckerboard="0"
     inkscape:deskcolor="#505050">
    <inkscape:page
       x="0"
       y="0"
       inkscape:label="1"
       id="page1"
       width="617.66669"
       height="388.41333"
       margin="0"
       bleed="0" />
  </sodipodi:namedview>
  <g
     id="g1"
     inkscape:groupmode="layer"
     inkscape:label="1">
    <path
       id="path1"
       d="M 154.88,561.28003 H 456.95999"
       style="fill:none;stroke:#000000;stroke-width:26.4;stroke-linecap:round;stroke-linejoin:round;stroke-miterlimit:10;stroke-dasharray:none;stroke-opacity:1"
       transform="translate(-92.053333,-385.76006)"
       clip-path="url(#clipPath2)" />
    <path
       id="path3"
       d="m 192.64,523.52002 -75.52,75.51996"
       style="fill:none;stroke:#000000;stroke-width:26.4;stroke-linecap:round;stroke-linejoin:round;stroke-miterlimit:10;stroke-dasharray:none;stroke-opacity:1"
       transform="translate(-92.053333,-385.76006)"
       clip-path="url(#clipPath4)" />
    <path
       id="path5"
       d="M 305.92001,410.23999 V 712.32001"
       style="fill:none;stroke:#000000;stroke-width:26.4;stroke-linecap:round;stroke-linejoin:round;stroke-miterlimit:10;stroke-dasharray:none;stroke-opacity:1"
       transform="translate(-92.053333,-385.76006)"
       clip-path="url(#clipPath6)" />
    <path
       id="path7"
       d="M 456.95999,561.28003 381.44,712.32001"
       style="fill:none;stroke:#000000;stroke-width:26.4;stroke-linecap:round;stroke-linejoin:round;stroke-miterlimit:10;stroke-dasharray:none;stroke-opacity:1"
       transform="translate(-92.053333,-385.76006)"
       clip-path="url(#clipPath8)" />
    <path
       id="path9"
       d="m 0,0 -4,-4.8 -4.16,-4.64 -4.48,-4.32 -4.800001,-4 -5.119998,-3.680001 -5.280001,-3.359998 -5.439999,-3.040001 -5.760002,-2.56 -5.759998,-2.239999 -6.080002,-1.760003 -6.079998,-1.439998 -6.080002,-1.119999 -6.239998,-0.639999 -6.239998,-0.16 -6.240005,0.16 L -88,-36.959999 -94.239998,-35.84 l -6.080002,1.439998 -5.92,1.760003 -5.92,2.239999 -5.6,2.56 -5.44,3.040001 -5.28,3.359998 -5.12001,3.680001 -4.79998,4 -4.48001,4.32 -4.32,4.64 -3.83999,4.8"
       style="fill:none;stroke:#000000;stroke-width:26.4;stroke-linecap:round;stroke-linejoin:round;stroke-miterlimit:10;stroke-dasharray:none;stroke-opacity:1"
       transform="translate(440.42665,326.55995)"
       clip-path="url(#clipPath10)" />
    <path
       id="path11"
       d="m 0,0 3.84,4.96 4.32,4.48 4.48,4.32 4.800001,4 4.959999,3.680001 5.44,3.359998 5.439999,3.040001 5.600002,2.56 5.919998,2.239999 5.920002,1.760003 6.079998,1.439998 6.240002,1.119999 6.239998,0.639999 6.239998,0.16 6.240005,-0.16 L 88,36.959999 94.080002,35.84 100.16,34.400002 106.24,32.639999 112,30.4 l 5.76,-2.56 5.44,-3.040001 5.28,-3.359998 5.12001,-3.680001 4.79998,-4 4.48001,-4.32 4.15999,-4.48 4,-4.96"
       style="fill:none;stroke:#000000;stroke-width:26.4;stroke-linecap:round;stroke-linejoin:round;stroke-miterlimit:10;stroke-dasharray:none;stroke-opacity:1"
       transform="translate(440.42665,326.55995)"
       clip-path="url(#clipPath12)" />
  </g>
</svg>
