<?xml version="1.0" encoding="UTF-8" standalone="no"?>
<!-- Created with Inkscape (http://www.inkscape.org/) -->

<svg
   version="1.1"
   id="svg1"
   width="497.60001"
   height="343.04001"
   viewBox="0 0 497.60001 343.04001"
   sodipodi:docname="SalGemmae26.pdf"
   xmlns:inkscape="http://www.inkscape.org/namespaces/inkscape"
   xmlns:sodipodi="http://sodipodi.sourceforge.net/DTD/sodipodi-0.dtd"
   xmlns="http://www.w3.org/2000/svg"
   xmlns:svg="http://www.w3.org/2000/svg">
  <defs
     id="defs1">
    <clipPath
       clipPathUnits="userSpaceOnUse"
       id="clipPath2">
      <path
         d="M 0,0.16 V 1122.5601 H 793.59998 V 0.16 Z"
         transform="translate(-3.3333333e-6)"
         clip-rule="evenodd"
         id="path2" />
    </clipPath>
    <clipPath
       clipPathUnits="userSpaceOnUse"
       id="clipPath4">
      <path
         d="M 0,0.16 V 1122.5601 H 793.59998 V 0.16 Z"
         transform="translate(-3.3333333e-6)"
         clip-rule="evenodd"
         id="path4" />
    </clipPath>
    <clipPath
       clipPathUnits="userSpaceOnUse"
       id="clipPath6">
      <path
         d="M 0,0.16 V 1122.5601 H 793.59998 V 0.16 Z"
         transform="translate(-3.3333333e-6)"
         clip-rule="evenodd"
         id="path6" />
    </clipPath>
    <clipPath
       clipPathUnits="userSpaceOnUse"
       id="clipPath8">
      <path
         d="M 0,0.16 V 1122.5601 H 793.59998 V 0.16 Z"
         transform="translate(-3.3333333e-6)"
         clip-rule="evenodd"
         id="path8" />
    </clipPath>
    <clipPath
       clipPathUnits="userSpaceOnUse"
       id="clipPath10">
      <path
         d="M 0,0.16 V 1122.5601 H 793.59998 V 0.16 Z"
         transform="translate(-597.44,-496.32001)"
         clip-rule="evenodd"
         id="path10" />
    </clipPath>
  </defs>
  <sodipodi:namedview
     id="namedview1"
     pagecolor="#505050"
     bordercolor="#eeeeee"
     borderopacity="1"
     inkscape:showpageshadow="0"
     inkscape:pageopacity="0"
     inkscape:pagecheckerboard="0"
     inkscape:deskcolor="#505050">
    <inkscape:page
       x="0"
       y="0"
       inkscape:label="1"
       id="page1"
       width="497.60001"
       height="343.04001"
       margin="0"
       bleed="0" />
  </sodipodi:namedview>
  <g
     id="g1"
     inkscape:groupmode="layer"
     inkscape:label="1">
    <path
       id="path1"
       d="M 174.56,707.67999 H 491.67999"
       style="fill:none;stroke:#000000;stroke-width:26.4;stroke-linecap:round;stroke-linejoin:round;stroke-miterlimit:10;stroke-dasharray:none;stroke-opacity:1"
       transform="translate(-153.41333,-388.42673)"
       clip-path="url(#clipPath2)" />
    <path
       id="path3"
       d="M 491.67999,707.67999 385.92001,602.08002"
       style="fill:none;stroke:#000000;stroke-width:26.4;stroke-linecap:round;stroke-linejoin:round;stroke-miterlimit:10;stroke-dasharray:none;stroke-opacity:1"
       transform="translate(-153.41333,-388.42673)"
       clip-path="url(#clipPath4)" />
    <path
       id="path5"
       d="M 597.44,496.32001 174.56,707.67999"
       style="fill:none;stroke:#000000;stroke-width:26.4;stroke-linecap:round;stroke-linejoin:round;stroke-miterlimit:10;stroke-dasharray:none;stroke-opacity:1"
       transform="translate(-153.41333,-388.42673)"
       clip-path="url(#clipPath6)" />
    <path
       id="path7"
       d="m 385.92001,602.08002 -105.6,-105.76001"
       style="fill:none;stroke:#000000;stroke-width:26.4;stroke-linecap:round;stroke-linejoin:round;stroke-miterlimit:10;stroke-dasharray:none;stroke-opacity:1"
       transform="translate(-153.41333,-388.42673)"
       clip-path="url(#clipPath8)" />
    <path
       id="path9"
       d="m 0,0 3.68,-1.44 3.36,-1.76 3.36,-1.92 3.04,-2.4 2.88,-2.56 2.559999,-2.88 2.400002,-3.04 1.92,-3.360001 1.759998,-3.359998 L 26.4,-26.4 l 1.12,-3.68 0.64,-3.839998 0.32,-3.84 v -3.84 l -0.32,-3.840001 -0.64,-3.84 -1.12,-3.68 L 24.959999,-56.48 23.360001,-60 l -2.08,-3.360001 -2.400002,-3.040001 L 16.32,-69.279999 13.44,-71.839996 10.4,-74.080002 7.04,-76.160004 3.68,-77.919998 0,-79.360001 -3.68,-80.32 l -3.84,-0.800003 -3.84,-0.319999 h -3.84 l -3.840001,0.319999 -3.839998,0.800003 -3.68,0.959999 -3.520001,1.440003 -3.519998,1.759994 -3.200001,2.080002 -3.200001,2.240006 -2.880001,2.719993 -2.559998,2.720001 L -47.68,-63.200001 -49.759998,-60 -51.52,-56.48 l -1.279999,3.520001"
       style="fill:none;stroke:#000000;stroke-width:26.4;stroke-linecap:round;stroke-linejoin:round;stroke-miterlimit:10;stroke-dasharray:none;stroke-opacity:1"
       transform="translate(444.02667,107.89328)"
       clip-path="url(#clipPath10)" />
  </g>
</svg>
