<?xml version="1.0" encoding="UTF-8" standalone="no"?>
<!-- Created with Inkscape (http://www.inkscape.org/) -->

<svg
   version="1.1"
   id="svg1"
   width="384.21332"
   height="503.21332"
   viewBox="0 0 384.21332 503.21332"
   sodipodi:docname="SalGemmae19.pdf"
   xmlns:inkscape="http://www.inkscape.org/namespaces/inkscape"
   xmlns:sodipodi="http://sodipodi.sourceforge.net/DTD/sodipodi-0.dtd"
   xmlns="http://www.w3.org/2000/svg"
   xmlns:svg="http://www.w3.org/2000/svg">
  <defs
     id="defs1">
    <clipPath
       clipPathUnits="userSpaceOnUse"
       id="clipPath2">
      <path
         d="M 0,0.16 V 1122.5601 H 793.59998 V 0.16 Z"
         transform="translate(-540.32001,-372.95999)"
         clip-rule="evenodd"
         id="path2" />
    </clipPath>
    <clipPath
       clipPathUnits="userSpaceOnUse"
       id="clipPath4">
      <path
         d="M 0,0.16 V 1122.5601 H 793.59998 V 0.16 Z"
         clip-rule="evenodd"
         id="path4" />
    </clipPath>
    <clipPath
       clipPathUnits="userSpaceOnUse"
       id="clipPath6">
      <path
         d="M 0,0.16 V 1122.5601 H 793.59998 V 0.16 Z"
         clip-rule="evenodd"
         id="path6" />
    </clipPath>
    <clipPath
       clipPathUnits="userSpaceOnUse"
       id="clipPath8">
      <path
         d="M 0,0.16 V 1122.5601 H 793.59998 V 0.16 Z"
         transform="translate(-408.32001,-712.32001)"
         clip-rule="evenodd"
         id="path8" />
    </clipPath>
  </defs>
  <sodipodi:namedview
     id="namedview1"
     pagecolor="#505050"
     bordercolor="#eeeeee"
     borderopacity="1"
     inkscape:showpageshadow="0"
     inkscape:pageopacity="0"
     inkscape:pagecheckerboard="0"
     inkscape:deskcolor="#505050">
    <inkscape:page
       x="0"
       y="0"
       inkscape:label="1"
       id="page1"
       width="384.21332"
       height="503.21332"
       margin="0"
       bleed="0" />
  </sodipodi:namedview>
  <g
     id="g1"
     inkscape:groupmode="layer"
     inkscape:label="1">
    <path
       id="path1"
       d="m 0,0 -4.8,-5.28 -4.96,-4.96 -5.12,-4.64 -5.28,-4.160001 -5.44,-3.839998 -5.600001,-3.360001 -5.759998,-3.040001 -5.920002,-2.559999 -5.919998,-2.079998 -5.920002,-1.760002 -6.079998,-1.279999 -6.240002,-0.799999 -6.080002,-0.480004 -6.239998,0.16 -6.080001,0.480004 -6.239998,0.959999 -6.080002,1.439998 -5.919998,1.760002 -5.92,2.239998 -5.76,2.720001 -5.76,3.199999 -5.6,3.520001 -5.44,3.84 -5.28,4.32 -4.95999,4.8 -4.96001,4.96 -4.64,5.44 -4.32001,5.76 -4.31999,5.92 -3.84,6.4 -3.68,6.56 -3.36,6.879999 -3.2,7.200001 -2.72,7.2 -2.56,7.520001 -2.24,7.68 -1.76,7.839997 -1.60001,8 -1.27999,8 -0.96,8.160003 -0.48001,8.159999 -0.31999,8.16 0.16,8.32 0.48,8.16 0.64,8.15999 1.12,8.16001 1.44,7.83999 1.76001,8 2.07998,7.68001 2.40001,7.67999 2.72,7.36 2.87999,7.20002 3.36,6.87999 3.52001,6.72 3.84,6.40001 4,6.23999 4.48001,5.91999 4.47999,5.44001 4.8,5.28 4.96,4.8 5.12001,4.47999 5.43998,4 5.44001,3.84002 5.6,3.19999 5.92,2.87999 5.76,2.4 6.08,2.08001 5.920002,1.60001 L -88,262.88 l 6.080002,0.63999 6.239998,0.32001 6.080002,-0.16001 6.079998,-0.63998 6.240001,-1.12 6.079998,-1.44 5.920002,-2.08002 5.919998,-2.39999 5.760003,-2.72 5.599998,-3.2 5.6,-3.68001 5.440001,-4 L -11.84,237.92 -6.88,233.11999 -2.08,228 l 4.64,-5.44 4.32,-5.92 4.16,-6.08 3.84,-6.4 3.679999,-6.72 3.200001,-6.88"
       style="fill:none;stroke:#000000;stroke-width:26.4;stroke-linecap:round;stroke-linejoin:round;stroke-miterlimit:10;stroke-dasharray:none;stroke-opacity:1"
       transform="translate(540.32001,378.3066)"
       clip-path="url(#clipPath2)" />
    <path
       id="path3"
       d="m 351.67999,410.23999 h -113.28 v 151.04004 h 113.28"
       style="fill:none;stroke:#000000;stroke-width:26.4;stroke-linecap:round;stroke-linejoin:round;stroke-miterlimit:10;stroke-dasharray:none;stroke-opacity:1"
       transform="translate(0,5.346608)"
       clip-path="url(#clipPath4)" />
    <path
       id="path5"
       d="M 559.35998,561.28003 V 712.32001"
       style="fill:none;stroke:#000000;stroke-width:26.4;stroke-linecap:round;stroke-linejoin:round;stroke-miterlimit:10;stroke-dasharray:none;stroke-opacity:1"
       transform="translate(0,5.346608)"
       clip-path="url(#clipPath6)" />
    <path
       id="path7"
       d="M 0,0 0.16,5.44 0.8,10.72 1.76,16 3.04,21.280001 4.8,26.4 6.88,31.360001 9.28,36.16 12,40.799999 l 3.04,4.48 3.519999,4.16 3.520001,4 4,3.68 4.16,3.360001 4.480001,3.04 4.64,2.719998 4.799999,2.400001 4.959999,2.080002 5.120003,1.760002 5.279998,1.279999 5.280003,0.959999 5.439995,0.64 5.279999,0.159996 5.440002,-0.159996 5.279999,-0.64 5.440002,-0.959999 5.120003,-1.279999 5.119997,-1.760002 4.96,-2.080002 4.8,-2.400001 4.64,-2.719998 4.48,-3.04 4.16,-3.360001 4.00001,-3.68 3.67999,-4 3.36,-4.16 3.03999,-4.48 2.72,-4.639999 2.56002,-4.799999 L 146.24,26.4 148,21.280001 149.28,16 150.24,10.72 150.88,5.44 151.03999,0"
       style="fill:none;stroke:#000000;stroke-width:26.4;stroke-linecap:round;stroke-linejoin:round;stroke-miterlimit:10;stroke-dasharray:none;stroke-opacity:1"
       transform="translate(408.32001,717.66662)"
       clip-path="url(#clipPath8)" />
  </g>
</svg>
