<?xml version="1.0" encoding="UTF-8" standalone="no"?>
<!-- Created with Inkscape (http://www.inkscape.org/) -->

<svg
   version="1.1"
   id="svg1"
   width="370.86667"
   height="496.53333"
   viewBox="0 0 370.86667 496.53333"
   sodipodi:docname="SalGemmae37.pdf"
   xmlns:inkscape="http://www.inkscape.org/namespaces/inkscape"
   xmlns:sodipodi="http://sodipodi.sourceforge.net/DTD/sodipodi-0.dtd"
   xmlns="http://www.w3.org/2000/svg"
   xmlns:svg="http://www.w3.org/2000/svg">
  <defs
     id="defs1">
    <clipPath
       clipPathUnits="userSpaceOnUse"
       id="clipPath2">
      <path
         d="M 0,0.16 V 1122.5601 H 793.59998 V 0.16 Z"
         transform="translate(-551.35999,-636.79999)"
         clip-rule="evenodd"
         id="path2" />
    </clipPath>
    <clipPath
       clipPathUnits="userSpaceOnUse"
       id="clipPath4">
      <path
         d="M 0,0.16 V 1122.5601 H 793.59998 V 0.16 Z"
         transform="translate(-249.11999,-334.72)"
         clip-rule="evenodd"
         id="path4" />
    </clipPath>
    <clipPath
       clipPathUnits="userSpaceOnUse"
       id="clipPath6">
      <path
         d="M 0,0.16 V 1122.5601 H 793.59998 V 0.16 Z"
         transform="translate(3.3333333e-6)"
         clip-rule="evenodd"
         id="path6" />
    </clipPath>
  </defs>
  <sodipodi:namedview
     id="namedview1"
     pagecolor="#505050"
     bordercolor="#eeeeee"
     borderopacity="1"
     inkscape:showpageshadow="0"
     inkscape:pageopacity="0"
     inkscape:pagecheckerboard="0"
     inkscape:deskcolor="#505050">
    <inkscape:page
       x="0"
       y="0"
       inkscape:label="1"
       id="page1"
       width="370.86667"
       height="496.53333"
       margin="0"
       bleed="0" />
  </sodipodi:namedview>
  <g
     id="g1"
     inkscape:groupmode="layer"
     inkscape:label="1">
    <path
       id="path1"
       d="m 0,0 c 0,-83.410004 -67.620003,-151.03999 -151.03999,-151.03999 -83.42002,0 -151.04,67.629986 -151.04,151.03999 0,83.410004 67.61998,151.03999 151.04,151.03999 C -67.620003,151.03999 0,83.410004 0,0 Z"
       style="fill:none;stroke:#000000;stroke-width:26.4;stroke-linecap:round;stroke-linejoin:round;stroke-miterlimit:10;stroke-dasharray:none;stroke-opacity:1"
       transform="translate(343.25332,323.11993)"
       clip-path="url(#clipPath2)" />
    <path
       id="path3"
       d="m 0,0 0.32,8.16 0.64,8.16 1.12,8.16 1.6,8 1.92,8 2.4,7.84 2.88,7.68 3.2,7.52 3.68,7.200001 4,7.199997 4.48,6.880005 4.639999,6.559998 L 36,97.760002 41.439999,103.84 l 5.920002,5.92 6.079998,5.44 6.400001,5.12 6.560002,4.8 6.879997,4.32 7.200004,4 7.199997,3.67999 7.519997,3.20002 7.680003,2.87999 7.84,2.40001 8,1.91999 8,1.59999 8.16,1.12001 8.15999,0.64 8.16001,0.15999 8.16,-0.15999 8.16,-0.64 8.15999,-1.12001 8,-1.59999 7.84001,-1.91999 7.84,-2.40001 7.67999,-2.87999 7.52001,-3.20002 7.36,-3.67999 7.04001,-4 7.03999,-4.32 6.56,-4.8 6.40001,-5.12 6.07998,-5.44 5.76,-5.92 5.44,-6.079998 5.12,-6.400001 4.80001,-6.559998 4.48001,-6.880005 4,-7.199997 L 288.16,63.52 291.51999,56 l 2.72,-7.68 2.40002,-7.84 2.07999,-8 1.44,-8 1.12,-8.16 0.64001,-8.16 0.15998,-8.16"
       style="fill:none;stroke:#000000;stroke-width:26.4;stroke-linecap:round;stroke-linejoin:round;stroke-miterlimit:10;stroke-dasharray:none;stroke-opacity:1"
       transform="translate(41.013328,21.039942)"
       clip-path="url(#clipPath4)" />
    <path
       id="path5"
       d="M 400.32001,485.76001 V 787.84003"
       style="fill:none;stroke:#000000;stroke-width:26.4;stroke-linecap:round;stroke-linejoin:round;stroke-miterlimit:10;stroke-dasharray:none;stroke-opacity:1"
       transform="translate(-208.10667,-313.68006)"
       clip-path="url(#clipPath6)" />
  </g>
</svg>
