<?xml version="1.0" encoding="UTF-8" standalone="no"?>
<!-- Created with Inkscape (http://www.inkscape.org/) -->

<svg
   version="1.1"
   id="svg1"
   width="345.51999"
   height="492.54666"
   viewBox="0 0 345.51999 492.54666"
   sodipodi:docname="SalGemmae43.pdf"
   xmlns:inkscape="http://www.inkscape.org/namespaces/inkscape"
   xmlns:sodipodi="http://sodipodi.sourceforge.net/DTD/sodipodi-0.dtd"
   xmlns="http://www.w3.org/2000/svg"
   xmlns:svg="http://www.w3.org/2000/svg">
  <defs
     id="defs1">
    <clipPath
       clipPathUnits="userSpaceOnUse"
       id="clipPath2">
      <path
         d="M 0,0.16 V 1122.5601 H 793.59998 V 0.16 Z"
         transform="translate(-524.96003,-592.47998)"
         clip-rule="evenodd"
         id="path2" />
    </clipPath>
    <clipPath
       clipPathUnits="userSpaceOnUse"
       id="clipPath4">
      <path
         d="M 0,0.16 V 1122.5601 H 793.59998 V 0.16 Z"
         transform="translate(3.3333333e-6)"
         clip-rule="evenodd"
         id="path4" />
    </clipPath>
    <clipPath
       clipPathUnits="userSpaceOnUse"
       id="clipPath6">
      <path
         d="M 0,0.16 V 1122.5601 H 793.59998 V 0.16 Z"
         transform="translate(-358.72,-467.84)"
         clip-rule="evenodd"
         id="path6" />
    </clipPath>
    <clipPath
       clipPathUnits="userSpaceOnUse"
       id="clipPath8">
      <path
         d="M 0,0.16 V 1122.5601 H 793.59998 V 0.16 Z"
         transform="translate(-545.59998,-343.20001)"
         clip-rule="evenodd"
         id="path8" />
    </clipPath>
  </defs>
  <sodipodi:namedview
     id="namedview1"
     pagecolor="#505050"
     bordercolor="#eeeeee"
     borderopacity="1"
     inkscape:showpageshadow="0"
     inkscape:pageopacity="0"
     inkscape:pagecheckerboard="0"
     inkscape:deskcolor="#505050">
    <inkscape:page
       x="0"
       y="0"
       inkscape:label="1"
       id="page1"
       width="345.51999"
       height="492.54666"
       margin="0"
       bleed="0" />
  </sodipodi:namedview>
  <g
     id="g1"
     inkscape:groupmode="layer"
     inkscape:label="1">
    <path
       id="path1"
       d="m 0,0 c 0,-68.830002 -55.799999,-124.64 -124.64,-124.64 -68.84,0 -124.64,55.809998 -124.64,124.64 0,68.830002 55.8,124.64 124.64,124.64 C -55.799999,124.64 0,68.830002 0,0 Z"
       style="fill:none;stroke:#000000;stroke-width:26.4;stroke-linecap:round;stroke-linejoin:round;stroke-miterlimit:10;stroke-dasharray:none;stroke-opacity:1"
       transform="translate(298.17336,282.81325)"
       clip-path="url(#clipPath2)" />
    <path
       id="path3"
       d="m 275.67999,779.35998 30.08002,-44.95996 32.16,-17.28002 H 462.56 l 32.32,17.28002 30.08002,44.95996"
       style="fill:none;stroke:#000000;stroke-width:26.4;stroke-linecap:round;stroke-linejoin:round;stroke-miterlimit:10;stroke-dasharray:none;stroke-opacity:1"
       transform="translate(-226.78667,-309.66673)"
       clip-path="url(#clipPath4)" />
    <path
       id="path5"
       d="m 0,0 -0.96,-7.84 -1.28,-7.68 -1.76,-7.680001 -2.24,-7.519998 -2.56,-7.360003 -2.88,-7.199997 -3.52,-7.040001 -3.679999,-6.880001 -4.160002,-6.719997 L -27.52,-72.32 l -4.96,-6.239998 -5.119998,-5.760002 -5.440003,-5.599998 -5.919998,-5.279999 -6.080002,-4.960003 -6.239998,-4.64 -6.559997,-4.32 -6.880005,-3.84 -7.040001,-3.52 -7.199997,-3.04 -7.360001,-2.72 -7.52,-2.4"
       style="fill:none;stroke:#000000;stroke-width:26.4;stroke-linecap:round;stroke-linejoin:round;stroke-miterlimit:10;stroke-dasharray:none;stroke-opacity:1"
       transform="translate(131.93333,158.17327)"
       clip-path="url(#clipPath6)" />
    <path
       id="path7"
       d="m 0,0 -7.52,2.4 -7.36,2.72 -7.04,3.04 -7.039999,3.52 -6.880001,3.84 -6.560002,4.32 -6.399997,4.64 -6.080002,4.960001 -5.759998,5.28 -5.440003,5.599999 -5.279999,5.760002 -4.800003,6.239998 -4.479995,6.400001 -4.160004,6.720001 L -88.639999,72.32 -92,79.360001 l -3.040001,7.199997 -2.559997,7.36 -2.239998,7.520002 -1.760004,7.68 -1.28,7.68 -0.96,7.84"
       style="fill:none;stroke:#000000;stroke-width:26.4;stroke-linecap:round;stroke-linejoin:round;stroke-miterlimit:10;stroke-dasharray:none;stroke-opacity:1"
       transform="translate(318.81331,33.533287)"
       clip-path="url(#clipPath8)" />
  </g>
</svg>
