<?xml version="1.0" encoding="UTF-8" standalone="no"?>
<!-- Created with Inkscape (http://www.inkscape.org/) -->

<svg
   version="1.1"
   id="svg1"
   width="352.18668"
   height="507.22668"
   viewBox="0 0 352.18668 507.22668"
   sodipodi:docname="SalGemmae36.pdf"
   xmlns:inkscape="http://www.inkscape.org/namespaces/inkscape"
   xmlns:sodipodi="http://sodipodi.sourceforge.net/DTD/sodipodi-0.dtd"
   xmlns="http://www.w3.org/2000/svg"
   xmlns:svg="http://www.w3.org/2000/svg">
  <defs
     id="defs1">
    <clipPath
       clipPathUnits="userSpaceOnUse"
       id="clipPath2">
      <path
         d="M 0,0.16 V 1122.5601 H 793.59998 V 0.16 Z"
         transform="translate(-292.79999,-710.23999)"
         clip-rule="evenodd"
         id="path2" />
    </clipPath>
    <clipPath
       clipPathUnits="userSpaceOnUse"
       id="clipPath4">
      <path
         d="M 0,0.16 V 1122.5601 H 793.59998 V 0.16 Z"
         transform="translate(-3.3333333e-6)"
         clip-rule="evenodd"
         id="path4" />
    </clipPath>
  </defs>
  <sodipodi:namedview
     id="namedview1"
     pagecolor="#505050"
     bordercolor="#eeeeee"
     borderopacity="1"
     inkscape:showpageshadow="0"
     inkscape:pageopacity="0"
     inkscape:pagecheckerboard="0"
     inkscape:deskcolor="#505050">
    <inkscape:page
       x="0"
       y="0"
       inkscape:label="1"
       id="page1"
       width="352.18668"
       height="507.22668"
       margin="0"
       bleed="0" />
  </sodipodi:namedview>
  <g
     id="g1"
     inkscape:groupmode="layer"
     inkscape:label="1">
    <path
       id="path1"
       d="m 0,0 2.4,6.56 2.72,6.24 3.04,6.079999 3.52,5.92 3.84,5.600001 4,5.44 4.48,5.119999 4.799999,4.799999 5.119999,4.640004 5.280003,4.319999 5.439998,3.84 5.920002,3.680001 5.919999,3.2 6.240001,2.879998 6.239998,2.559997 6.559998,2.080002 6.560005,1.760002 L 88.800003,76 l 6.719994,0.959999 6.720003,0.480003 6.88,0.159996 6.72,-0.319999 6.88,-0.64 6.72,-1.120002 L 136,73.919998 142.56,72 148.96001,69.760002 155.2,67.040001 161.28,64 l 5.92,-3.360001 5.76001,-3.84 5.43998,-4 L 183.52,48.32 l 4.96,-4.8 4.48001,-4.959999 4.31999,-5.280002 4,-5.439999 3.68001,-5.76 3.36,-6.08 2.87999,-6.08 2.55999,-6.4 2.08001,-6.4 1.91999,-6.56 1.28,-6.72 L 220,-22.879999 220.64,-29.6 l 0.16,-6.88 -0.32,-6.720001 -0.64,-6.880001 -1.12,-6.719997 -1.44,-6.560002 -1.92,-6.559997 -2.24001,-6.560005 -2.55999,-6.239998 -3.04,-6.080002 -3.36,-5.919998 -3.68,-5.759999 -4.15999,-5.44 -4.32001,-5.12 -4.64,-4.96 -4.96001,-4.64 -5.28,-4.48 -5.59999,-3.99999 -5.6,-3.68001 -6.08,-3.2 -6.08001,-3.03999 -6.23999,-2.56002 -6.55999,-2.23999 -6.56002,-1.76001 -6.55999,-1.43998 -6.72,-1.12001 -6.88,-0.64 -6.88,-0.16001"
       style="fill:none;stroke:#000000;stroke-width:26.4;stroke-linecap:round;stroke-linejoin:round;stroke-miterlimit:10;stroke-dasharray:none;stroke-opacity:1"
       transform="translate(63.346655,405.9066)"
       clip-path="url(#clipPath2)" />
    <path
       id="path3"
       d="M 400.32001,561.28003 513.59998,485.76001 400.32001,410.23999 551.35998,334.72 H 249.28"
       style="fill:none;stroke:#000000;stroke-width:26.4;stroke-linecap:round;stroke-linejoin:round;stroke-miterlimit:10;stroke-dasharray:none;stroke-opacity:1"
       transform="translate(-229.45333,-304.33339)"
       clip-path="url(#clipPath4)" />
  </g>
</svg>
