<?xml version="1.0" encoding="UTF-8" standalone="no"?>
<!-- Created with Inkscape (http://www.inkscape.org/) -->

<svg
   version="1.1"
   id="svg1"
   width="412.21332"
   height="364.39999"
   viewBox="0 0 412.21332 364.39999"
   sodipodi:docname="SalGemmae40.pdf"
   xmlns:inkscape="http://www.inkscape.org/namespaces/inkscape"
   xmlns:sodipodi="http://sodipodi.sourceforge.net/DTD/sodipodi-0.dtd"
   xmlns="http://www.w3.org/2000/svg"
   xmlns:svg="http://www.w3.org/2000/svg">
  <defs
     id="defs1">
    <clipPath
       clipPathUnits="userSpaceOnUse"
       id="clipPath2">
      <path
         d="M 0,0.16 V 1122.5601 H 793.59998 V 0.16 Z"
         transform="translate(-579.20001,-480.16)"
         clip-rule="evenodd"
         id="path2" />
    </clipPath>
    <clipPath
       clipPathUnits="userSpaceOnUse"
       id="clipPath4">
      <path
         d="M 0,0.16 V 1122.5601 H 793.59998 V 0.16 Z"
         transform="translate(-3.3333334e-6)"
         clip-rule="evenodd"
         id="path4" />
    </clipPath>
    <clipPath
       clipPathUnits="userSpaceOnUse"
       id="clipPath6">
      <path
         d="M 0,0.16 V 1122.5601 H 793.59998 V 0.16 Z"
         transform="translate(-3.3333334e-6)"
         clip-rule="evenodd"
         id="path6" />
    </clipPath>
    <clipPath
       clipPathUnits="userSpaceOnUse"
       id="clipPath8">
      <path
         d="M 0,0.16 V 1122.5601 H 793.59998 V 0.16 Z"
         transform="translate(-239.36,-706.71998)"
         clip-rule="evenodd"
         id="path8" />
    </clipPath>
    <clipPath
       clipPathUnits="userSpaceOnUse"
       id="clipPath10">
      <path
         d="M 0,0.16 V 1122.5601 H 793.59998 V 0.16 Z"
         transform="translate(-428.16,-706.71998)"
         clip-rule="evenodd"
         id="path10" />
    </clipPath>
  </defs>
  <sodipodi:namedview
     id="namedview1"
     pagecolor="#505050"
     bordercolor="#eeeeee"
     borderopacity="1"
     inkscape:showpageshadow="0"
     inkscape:pageopacity="0"
     inkscape:pagecheckerboard="0"
     inkscape:deskcolor="#505050">
    <inkscape:page
       x="0"
       y="0"
       inkscape:label="1"
       id="page1"
       width="412.21332"
       height="364.39999"
       margin="0"
       bleed="0" />
  </sodipodi:namedview>
  <g
     id="g1"
     inkscape:groupmode="layer"
     inkscape:label="1">
    <path
       id="path1"
       d="m 0,0 c 0,-41.700001 -33.810001,-75.519997 -75.519997,-75.519997 -41.710003,0 -75.519993,33.819996 -75.519993,75.519997 0,41.700001 33.80999,75.519997 75.519993,75.519997 C -33.810001,75.519997 0,41.700001 0,0 Z"
       style="fill:none;stroke:#000000;stroke-width:26.4;stroke-linecap:round;stroke-linejoin:round;stroke-miterlimit:10;stroke-dasharray:none;stroke-opacity:1"
       transform="translate(388.42668,98.413279)"
       clip-path="url(#clipPath2)" />
    <path
       id="path3"
       d="M 220.48,404.64001 H 390.39999"
       style="fill:none;stroke:#000000;stroke-width:26.4;stroke-linecap:round;stroke-linejoin:round;stroke-miterlimit:10;stroke-dasharray:none;stroke-opacity:1"
       transform="translate(-190.77333,-381.74673)"
       clip-path="url(#clipPath4)" />
    <path
       id="path5"
       d="M 390.39999,404.64001 239.36,517.91998"
       style="fill:none;stroke:#000000;stroke-width:26.4;stroke-linecap:round;stroke-linejoin:round;stroke-miterlimit:10;stroke-dasharray:none;stroke-opacity:1"
       transform="translate(-190.77333,-381.74673)"
       clip-path="url(#clipPath6)" />
    <path
       id="path7"
       d="m 0,0 6.08,2.88 6.08,2.24 6.24,2.08 6.399999,1.6 6.560002,1.12 6.559997,0.8 L 44.48,11.2 51.200001,11.04 57.759998,10.72 64.32,9.76 l 6.400001,-1.28 6.400002,-1.6 6.239998,-2.08 6.239997,-2.56 5.919999,-2.72 5.760003,-3.2 5.6,-3.68 5.28,-3.84 5.12,-4.16 4.8,-4.64 4.48,-4.799999 4.16,-5.120001 3.84,-5.280001 3.52,-5.599998 3.2,-5.760002 2.88,-6.079998 2.4,-6.080002 2.08,-6.239998 1.6,-6.400002 1.28,-6.559997 0.80001,-6.560005 0.31999,-6.559998 v -6.559997 l -0.31999,-6.720002 -0.80001,-6.56 -1.28,-6.4 -1.6,-6.4 -2.08,-6.24 -2.4,-6.24 -2.88,-5.92 -3.2,-5.76 -3.52,-5.6 -3.84,-5.44 -4.16,-5.12 -4.48,-4.8 -4.8,-4.48 -5.12,-4.32001 -5.28,-3.83999 -5.6,-3.52001 -5.760003,-3.19999 -5.919999,-2.87999 -6.239997,-2.40001 -6.239998,-2.08 -6.400002,-1.76 -6.400001,-1.28 -6.560002,-0.8 -6.559997,-0.48 H 44.48 l -6.560002,0.32 -6.559997,0.8 -6.560002,1.28 -6.399999,1.6 -6.24,1.92 -6.08,2.4 -6.08,2.72"
       style="fill:none;stroke:#000000;stroke-width:26.4;stroke-linecap:round;stroke-linejoin:round;stroke-miterlimit:10;stroke-dasharray:none;stroke-opacity:1"
       transform="translate(48.586668,324.97325)"
       clip-path="url(#clipPath8)" />
    <path
       id="path9"
       d="m 0,0 9.6,-3.2 9.440001,-3.68 9.279999,-4.16 9.119999,-4.64 8.800003,-4.959999 8.479999,-5.440001 8.48,-5.76 7.999996,-6.240002 7.68,-6.559997 7.520005,-6.880001 7.04,-7.200001 6.719998,-7.680001 6.4,-7.839996 6.08,-8.160004 5.6,-8.479995 5.28,-8.64 4.80001,-8.960003 4.31999,-9.12 4,-9.44 3.52,-9.44 3.04,-9.6 2.72,-9.92 2.08,-9.92 1.75999,-9.92 1.12001,-10.08 0.79999,-10.24 0.16001,-10.08 -0.16001,-10.08001 L 150.88,-226.56"
       style="fill:none;stroke:#000000;stroke-width:26.4;stroke-linecap:round;stroke-linejoin:round;stroke-miterlimit:10;stroke-dasharray:none;stroke-opacity:1"
       transform="translate(237.38667,324.97325)"
       clip-path="url(#clipPath10)" />
  </g>
</svg>
