<?xml version="1.0" encoding="UTF-8" standalone="no"?>
<!-- Created with Inkscape (http://www.inkscape.org/) -->

<svg
   version="1.1"
   id="svg1"
   width="360.18668"
   height="528.5733"
   viewBox="0 0 360.18668 528.5733"
   sodipodi:docname="SalGemmae5.pdf"
   xmlns:inkscape="http://www.inkscape.org/namespaces/inkscape"
   xmlns:sodipodi="http://sodipodi.sourceforge.net/DTD/sodipodi-0.dtd"
   xmlns="http://www.w3.org/2000/svg"
   xmlns:svg="http://www.w3.org/2000/svg">
  <defs
     id="defs1">
    <clipPath
       clipPathUnits="userSpaceOnUse"
       id="clipPath2">
      <path
         d="M 0,0.16 V 1122.5601 H 793.59998 V 0.16 Z"
         clip-rule="evenodd"
         id="path2" />
    </clipPath>
    <clipPath
       clipPathUnits="userSpaceOnUse"
       id="clipPath4">
      <path
         d="M 0,0.16 V 1122.5601 H 793.59998 V 0.16 Z"
         clip-rule="evenodd"
         id="path4" />
    </clipPath>
    <clipPath
       clipPathUnits="userSpaceOnUse"
       id="clipPath6">
      <path
         d="M 0,0.16 V 1122.5601 H 793.59998 V 0.16 Z"
         transform="translate(-249.28,-636.79999)"
         clip-rule="evenodd"
         id="path6" />
    </clipPath>
  </defs>
  <sodipodi:namedview
     id="namedview1"
     pagecolor="#505050"
     bordercolor="#eeeeee"
     borderopacity="1"
     inkscape:showpageshadow="0"
     inkscape:pageopacity="0"
     inkscape:pagecheckerboard="0"
     inkscape:deskcolor="#505050">
    <inkscape:page
       x="0"
       y="0"
       inkscape:label="1"
       id="page1"
       width="360.18668"
       height="528.5733"
       margin="0"
       bleed="0" />
  </sodipodi:namedview>
  <g
     id="g1"
     inkscape:groupmode="layer"
     inkscape:label="1">
    <path
       id="path1"
       d="M 249.28,334.72 H 551.35998"
       style="fill:none;stroke:#000000;stroke-width:26.4;stroke-linecap:round;stroke-linejoin:round;stroke-miterlimit:10;stroke-dasharray:none;stroke-opacity:1"
       transform="translate(0,9.346608)"
       clip-path="url(#clipPath2)" />
    <path
       id="path3"
       d="M 551.35998,334.72 400.32001,485.76001"
       style="fill:none;stroke:#000000;stroke-width:26.4;stroke-linecap:round;stroke-linejoin:round;stroke-miterlimit:10;stroke-dasharray:none;stroke-opacity:1"
       transform="translate(0,9.346608)"
       clip-path="url(#clipPath4)" />
    <path
       id="path5"
       d="m 0,0 0.16,8.16 0.64,8.16 1.12,8.16 1.6,8 1.92,8 2.4,7.68 2.88,7.68 3.2,7.520001 3.68,7.36 4,7.199997 4.48,6.880005 4.639999,6.559998 5.120001,6.400001 5.439999,6.079998 5.920002,5.76 6.079998,5.6 6.400001,5.12 6.559998,4.64 6.880005,4.48 7.199997,4 7.199997,3.67999 7.520004,3.20002 7.679999,2.87999 7.84,2.40001 8,1.91999 8,1.59999 8.16,0.96001 8.16,0.8 8.15999,0.15999 8.16001,-0.15999 8.16,-0.8 8.16,-0.96001 8,-1.59999 7.84,-1.91999 7.84,-2.40001 7.68,-2.87999 7.51999,-3.20002 7.36,-3.67999 7.04001,-4 7.04,-4.48 6.55999,-4.64 6.40001,-5.12 6.08,-5.6 5.76001,-5.76 5.43998,-6.079998 5.12002,-6.400001 4.79999,-6.559998 4.48001,-6.880005 4,-7.199997 3.51999,-7.36 3.35999,-7.520001 2.72,-7.68 2.40002,-7.68 2.07999,-8 1.44,-8 1.12,-8.16 0.64001,-8.16 0.31998,-8.16 -0.31998,-8.16 -0.64001,-8.16 -1.12,-8.16 -1.44,-8 -2.07999,-7.84 -2.40002,-7.84 -2.72,-7.68 -3.35999,-7.520001 -3.51999,-7.36 -4,-7.199997 -4.48001,-6.880005 -4.79999,-6.559998 -5.12002,-6.400001 -5.43998,-6.079998 -5.76001,-5.76 -6.08,-5.44 -6.40001,-5.12 -6.55999,-4.8 -7.04,-4.48 -7.04001,-4 -7.36,-3.67999 -7.51999,-3.20002 -7.68,-2.71998 -7.84,-2.40001 -7.84,-2.08 -8,-1.44001 -8.16,-1.11999 -8.16,-0.64 -8.16001,-0.31999"
       style="fill:none;stroke:#000000;stroke-width:26.4;stroke-linecap:round;stroke-linejoin:round;stroke-miterlimit:10;stroke-dasharray:none;stroke-opacity:1"
       transform="translate(249.28,646.1466)"
       clip-path="url(#clipPath6)" />
  </g>
</svg>
