<?xml version="1.0" encoding="UTF-8" standalone="no"?>
<!-- Created with Inkscape (http://www.inkscape.org/) -->

<svg
   version="1.1"
   id="svg1"
   width="454.90668"
   height="489.86667"
   viewBox="0 0 454.90668 489.86667"
   sodipodi:docname="SalGemmae15.pdf"
   xmlns:inkscape="http://www.inkscape.org/namespaces/inkscape"
   xmlns:sodipodi="http://sodipodi.sourceforge.net/DTD/sodipodi-0.dtd"
   xmlns="http://www.w3.org/2000/svg"
   xmlns:svg="http://www.w3.org/2000/svg">
  <defs
     id="defs1">
    <clipPath
       clipPathUnits="userSpaceOnUse"
       id="clipPath2">
      <path
         d="M 0,0.16 V 1122.5601 H 793.59998 V 0.16 Z"
         clip-rule="evenodd"
         id="path2" />
    </clipPath>
    <clipPath
       clipPathUnits="userSpaceOnUse"
       id="clipPath4">
      <path
         d="M 0,0.16 V 1122.5601 H 793.59998 V 0.16 Z"
         clip-rule="evenodd"
         id="path4" />
    </clipPath>
    <clipPath
       clipPathUnits="userSpaceOnUse"
       id="clipPath6">
      <path
         d="M 0,0.16 V 1122.5601 H 793.59998 V 0.16 Z"
         clip-rule="evenodd"
         id="path6" />
    </clipPath>
    <clipPath
       clipPathUnits="userSpaceOnUse"
       id="clipPath8">
      <path
         d="M 0,0.16 V 1122.5601 H 793.59998 V 0.16 Z"
         transform="translate(-434.07999,-712.32001)"
         clip-rule="evenodd"
         id="path8" />
    </clipPath>
    <clipPath
       clipPathUnits="userSpaceOnUse"
       id="clipPath10">
      <path
         d="M 0,0.16 V 1122.5601 H 793.59998 V 0.16 Z"
         transform="translate(-434.07999,-712.32001)"
         clip-rule="evenodd"
         id="path10" />
    </clipPath>
    <clipPath
       clipPathUnits="userSpaceOnUse"
       id="clipPath12">
      <path
         d="M 0,0.16 V 1122.5601 H 793.59998 V 0.16 Z"
         transform="translate(-585.12,-712.32001)"
         clip-rule="evenodd"
         id="path12" />
    </clipPath>
  </defs>
  <sodipodi:namedview
     id="namedview1"
     pagecolor="#505050"
     bordercolor="#eeeeee"
     borderopacity="1"
     inkscape:showpageshadow="0"
     inkscape:pageopacity="0"
     inkscape:pagecheckerboard="0"
     inkscape:deskcolor="#505050">
    <inkscape:page
       x="0"
       y="0"
       inkscape:label="1"
       id="page1"
       width="454.90668"
       height="489.86667"
       margin="0"
       bleed="0" />
  </sodipodi:namedview>
  <g
     id="g1"
     inkscape:groupmode="layer"
     inkscape:label="1">
    <path
       id="path1"
       d="M 207.52,334.72 V 787.84003"
       style="fill:none;stroke:#000000;stroke-width:26.4;stroke-linecap:round;stroke-linejoin:round;stroke-miterlimit:10;stroke-dasharray:none;stroke-opacity:1"
       transform="translate(-166.76,-313.68006)"
       clip-path="url(#clipPath2)" />
    <path
       id="path3"
       d="M 207.52,485.76001 H 509.60001"
       style="fill:none;stroke:#000000;stroke-width:26.4;stroke-linecap:round;stroke-linejoin:round;stroke-miterlimit:10;stroke-dasharray:none;stroke-opacity:1"
       transform="translate(-166.76,-313.68006)"
       clip-path="url(#clipPath4)" />
    <path
       id="path5"
       d="m 509.60001,485.76001 -226.56,151.03998"
       style="fill:none;stroke:#000000;stroke-width:26.4;stroke-linecap:round;stroke-linejoin:round;stroke-miterlimit:10;stroke-dasharray:none;stroke-opacity:1"
       transform="translate(-166.76,-313.68006)"
       clip-path="url(#clipPath6)" />
    <path
       id="path7"
       d="m 0,0 -4.16,-6.88 -4.64,-6.72 -4.96,-6.56 -5.280001,-6.08 -5.599998,-5.92 -5.92,-5.599998 -6.08,-5.280003 L -43.200001,-48 l -6.719997,-4.639999 -6.880001,-4.16 L -64,-60.639999 -71.360001,-64 -78.879997,-67.040001 -86.720001,-69.760002 -94.400002,-72 -102.4,-73.760002 l -8,-1.439995 -8.16,-0.800003 -8,-0.639999 h -8.16 l -8.16,0.319999 -8.15999,0.800003"
       style="fill:none;stroke:#000000;stroke-width:26.4;stroke-linecap:round;stroke-linejoin:round;stroke-miterlimit:10;stroke-dasharray:none;stroke-opacity:1"
       transform="translate(267.31999,398.63995)"
       clip-path="url(#clipPath8)" />
    <path
       id="path9"
       d="m 0,0 4,4.96 4.16,4.48 4.48,4.32 4.800001,4 5.119998,3.680001 5.280001,3.359998 5.439999,3.040001 5.760002,2.56 5.759998,2.239999 6.080002,1.760003 6.079998,1.439998 6.080002,1.119999 6.239998,0.639999 6.239998,0.16 6.240005,-0.16 L 88,36.959999 94.239998,35.84 100.32,34.400002 106.24,32.639999 112.16,30.4 l 5.6,-2.56 5.44,-3.040001 5.44,-3.359998 4.96001,-3.680001 4.79998,-4 L 142.88,9.44 147.2,4.96 151.03999,0"
       style="fill:none;stroke:#000000;stroke-width:26.4;stroke-linecap:round;stroke-linejoin:round;stroke-miterlimit:10;stroke-dasharray:none;stroke-opacity:1"
       transform="translate(267.31999,398.63995)"
       clip-path="url(#clipPath10)" />
    <path
       id="path11"
       d="m 0,0 1.92,-2.08 1.6,-2.24 1.44,-2.4 1.12,-2.56 0.8,-2.72 0.64,-2.72 0.32,-2.720001 V -20.32 L 7.52,-23.040001 6.88,-25.76 6.08,-28.48 4.96,-31.040001 3.52,-33.439999 1.92,-35.68 0,-37.759998 -2.08,-39.68 -4.32,-41.279999 -6.72,-42.720001 -9.28,-43.84 -12,-44.639999 l -2.72,-0.64 -2.720001,-0.319999 H -20.16 l -2.880001,0.319999 -2.719999,0.64 -2.72,0.799999 -2.399999,1.119999 -2.56,1.440002 L -35.68,-39.68 -37.759998,-37.759998 -39.52,-35.68 l -1.759999,2.240001 -1.280002,2.399998 L -43.84,-28.48 l -0.799999,2.72 -0.64,2.719999 -0.16,2.720001 v 2.879999 l 0.16,2.720001 0.64,2.72 0.799999,2.72 1.279999,2.56 1.280002,2.4 1.759999,2.24 1.760002,2.08"
       style="fill:none;stroke:#000000;stroke-width:26.4;stroke-linecap:round;stroke-linejoin:round;stroke-miterlimit:10;stroke-dasharray:none;stroke-opacity:1"
       transform="translate(418.36,398.63995)"
       clip-path="url(#clipPath12)" />
  </g>
</svg>
