<?xml version="1.0" encoding="UTF-8" standalone="no"?>
<!-- Created with Inkscape (http://www.inkscape.org/) -->

<svg
   version="1.1"
   id="svg1"
   width="609.65332"
   height="417.78668"
   viewBox="0 0 609.65332 417.78668"
   sodipodi:docname="Salmiak6.pdf"
   xmlns:inkscape="http://www.inkscape.org/namespaces/inkscape"
   xmlns:sodipodi="http://sodipodi.sourceforge.net/DTD/sodipodi-0.dtd"
   xmlns="http://www.w3.org/2000/svg"
   xmlns:svg="http://www.w3.org/2000/svg">
  <defs
     id="defs1">
    <clipPath
       clipPathUnits="userSpaceOnUse"
       id="clipPath2">
      <path
         d="M 0,0.16 V 1122.5601 H 793.59998 V 0.16 Z"
         clip-rule="evenodd"
         id="path2" />
    </clipPath>
    <clipPath
       clipPathUnits="userSpaceOnUse"
       id="clipPath4">
      <path
         d="M 0,0.16 V 1122.5601 H 793.59998 V 0.16 Z"
         clip-rule="evenodd"
         id="path4" />
    </clipPath>
    <clipPath
       clipPathUnits="userSpaceOnUse"
       id="clipPath6">
      <path
         d="M 0,0.16 V 1122.5601 H 793.59998 V 0.16 Z"
         transform="translate(-432.64002,-376.64002)"
         clip-rule="evenodd"
         id="path6" />
    </clipPath>
    <clipPath
       clipPathUnits="userSpaceOnUse"
       id="clipPath8">
      <path
         d="M 0,0.16 V 1122.5601 H 793.59998 V 0.16 Z"
         clip-rule="evenodd"
         id="path8" />
    </clipPath>
    <clipPath
       clipPathUnits="userSpaceOnUse"
       id="clipPath10">
      <path
         d="M 0,0.16 V 1122.5601 H 793.59998 V 0.16 Z"
         clip-rule="evenodd"
         id="path10" />
    </clipPath>
    <clipPath
       clipPathUnits="userSpaceOnUse"
       id="clipPath12">
      <path
         d="M 0,0.16 V 1122.5601 H 793.59998 V 0.16 Z"
         transform="translate(-492.48001,-484.64002)"
         clip-rule="evenodd"
         id="path12" />
    </clipPath>
    <clipPath
       clipPathUnits="userSpaceOnUse"
       id="clipPath14">
      <path
         d="M 0,0.16 V 1122.5601 H 793.59998 V 0.16 Z"
         transform="translate(-389.60001,-642.56)"
         clip-rule="evenodd"
         id="path14" />
    </clipPath>
    <clipPath
       clipPathUnits="userSpaceOnUse"
       id="clipPath16">
      <path
         d="M 0,0.16 V 1122.5601 H 793.59998 V 0.16 Z"
         transform="translate(-424.95999,-748.47998)"
         clip-rule="evenodd"
         id="path16" />
    </clipPath>
    <clipPath
       clipPathUnits="userSpaceOnUse"
       id="clipPath18">
      <path
         d="M 0,0.16 V 1122.5601 H 793.59998 V 0.16 Z"
         transform="translate(-427.20001,-705.44)"
         clip-rule="evenodd"
         id="path18" />
    </clipPath>
    <clipPath
       clipPathUnits="userSpaceOnUse"
       id="clipPath20">
      <path
         d="M 0,0.16 V 1122.5601 H 793.59998 V 0.16 Z"
         transform="translate(-460.16,-656.32001)"
         clip-rule="evenodd"
         id="path20" />
    </clipPath>
    <clipPath
       clipPathUnits="userSpaceOnUse"
       id="clipPath22">
      <path
         d="M 0,0.16 V 1122.5601 H 793.59998 V 0.16 Z"
         transform="translate(-322.07999,-639.20001)"
         clip-rule="evenodd"
         id="path22" />
    </clipPath>
    <clipPath
       clipPathUnits="userSpaceOnUse"
       id="clipPath24">
      <path
         d="M 0,0.16 V 1122.5601 H 793.59998 V 0.16 Z"
         transform="translate(-230.88,-583.52002)"
         clip-rule="evenodd"
         id="path24" />
    </clipPath>
    <clipPath
       clipPathUnits="userSpaceOnUse"
       id="clipPath26">
      <path
         d="M 0,0.16 V 1122.5601 H 793.59998 V 0.16 Z"
         transform="translate(-336,-592.79999)"
         clip-rule="evenodd"
         id="path26" />
    </clipPath>
    <clipPath
       clipPathUnits="userSpaceOnUse"
       id="clipPath28">
      <path
         d="M 0,0.16 V 1122.5601 H 793.59998 V 0.16 Z"
         transform="translate(-445.28,-470.23999)"
         clip-rule="evenodd"
         id="path28" />
    </clipPath>
    <clipPath
       clipPathUnits="userSpaceOnUse"
       id="clipPath30">
      <path
         d="M 0,0.16 V 1122.5601 H 793.59998 V 0.16 Z"
         clip-rule="evenodd"
         id="path30" />
    </clipPath>
    <clipPath
       clipPathUnits="userSpaceOnUse"
       id="clipPath32">
      <path
         d="M 0,0.16 V 1122.5601 H 793.59998 V 0.16 Z"
         clip-rule="evenodd"
         id="path32" />
    </clipPath>
    <clipPath
       clipPathUnits="userSpaceOnUse"
       id="clipPath34">
      <path
         d="M 0,0.16 V 1122.5601 H 793.59998 V 0.16 Z"
         clip-rule="evenodd"
         id="path34" />
    </clipPath>
    <clipPath
       clipPathUnits="userSpaceOnUse"
       id="clipPath36">
      <path
         d="M 0,0.16 V 1122.5601 H 793.59998 V 0.16 Z"
         clip-rule="evenodd"
         id="path36" />
    </clipPath>
  </defs>
  <sodipodi:namedview
     id="namedview1"
     pagecolor="#505050"
     bordercolor="#eeeeee"
     borderopacity="1"
     inkscape:showpageshadow="0"
     inkscape:pageopacity="0"
     inkscape:pagecheckerboard="0"
     inkscape:deskcolor="#505050">
    <inkscape:page
       x="0"
       y="0"
       inkscape:label="1"
       id="page1"
       width="609.65332"
       height="417.78668"
       margin="0"
       bleed="0" />
  </sodipodi:namedview>
  <g
     id="g1"
     inkscape:groupmode="layer"
     inkscape:label="1">
    <path
       id="path1"
       d="m 547.84003,520.96002 v 94.39996"
       style="fill:none;stroke:#000000;stroke-width:26.4;stroke-linecap:round;stroke-linejoin:round;stroke-miterlimit:10;stroke-dasharray:none;stroke-opacity:1"
       transform="translate(0,-5.8666667e-5)"
       clip-path="url(#clipPath2)" />
    <path
       id="path3"
       d="m 601.44,529.91998 3.84003,57.60004"
       style="fill:none;stroke:#000000;stroke-width:26.4;stroke-linecap:round;stroke-linejoin:round;stroke-miterlimit:10;stroke-dasharray:none;stroke-opacity:1"
       transform="translate(0,-5.8666667e-5)"
       clip-path="url(#clipPath4)" />
    <path
       id="path5"
       d="m 0,0 -5.92,4.16 -5.76,4.32 -5.600001,4.64 -5.279998,4.96 -4.800002,5.280001 L -32,28.959999 l -4.32,5.760002 -3.84,6.079998 -3.52,6.400002 -3.200001,6.399997 L -49.599998,60.32 -52,67.199997 l -2.080002,6.880005 -1.439998,7.040001 -1.279999,7.040001"
       style="fill:none;stroke:#000000;stroke-width:26.4;stroke-linecap:round;stroke-linejoin:round;stroke-miterlimit:10;stroke-dasharray:none;stroke-opacity:1"
       transform="translate(432.64002,376.63996)"
       clip-path="url(#clipPath6)" />
    <path
       id="path7"
       d="M 434.72,373.92001 435.20001,384 436,393.92001 l 1.28,9.91999 1.6,9.92001 1.91999,9.75998 2.40002,9.60001"
       style="fill:none;stroke:#000000;stroke-width:26.4;stroke-linecap:round;stroke-linejoin:round;stroke-miterlimit:10;stroke-dasharray:none;stroke-opacity:1"
       transform="translate(0,-5.8666667e-5)"
       clip-path="url(#clipPath8)" />
    <path
       id="path9"
       d="m 487.67999,387.04001 -9.11999,9.75998 -8.95999,9.92001 -8.48001,10.23999 -8.16001,10.56 -7.83999,10.72"
       style="fill:none;stroke:#000000;stroke-width:26.4;stroke-linecap:round;stroke-linejoin:round;stroke-miterlimit:10;stroke-dasharray:none;stroke-opacity:1"
       transform="translate(0,-5.8666667e-5)"
       clip-path="url(#clipPath10)" />
    <path
       id="path11"
       d="m 0,0 1.76,-8.16 1.44,-8.16 0.96,-8.319999 0.64,-8.32 v -8.48 l -0.16,-8.319999 -0.8,-8.320004 -1.12,-8.32 -1.6,-8.159996 -1.92,-8.160003 -2.4,-8 -2.88,-8"
       style="fill:none;stroke:#000000;stroke-width:26.4;stroke-linecap:round;stroke-linejoin:round;stroke-miterlimit:10;stroke-dasharray:none;stroke-opacity:1"
       transform="translate(492.48001,484.63996)"
       clip-path="url(#clipPath12)" />
    <path
       id="path13"
       d="m 0,0 0.64,10.08 1.12,9.92 1.6,9.76 2.08,9.76 2.56,9.599999 3.04,9.440002 3.36,9.279995 4,9.120003 4.479999,8.959999 4.960001,8.64 5.119999,8.320002"
       style="fill:none;stroke:#000000;stroke-width:26.4;stroke-linecap:round;stroke-linejoin:round;stroke-miterlimit:10;stroke-dasharray:none;stroke-opacity:1"
       transform="translate(389.60001,642.55994)"
       clip-path="url(#clipPath14)" />
    <path
       id="path15"
       d="m 0,0 1.12,-5.76 0.8,-5.92 0.16,-6.08 v -5.92 l -0.64,-5.92 -0.8,-5.92 -1.44,-5.919999"
       style="fill:none;stroke:#000000;stroke-width:26.4;stroke-linecap:round;stroke-linejoin:round;stroke-miterlimit:10;stroke-dasharray:none;stroke-opacity:1"
       transform="translate(424.95999,748.47992)"
       clip-path="url(#clipPath16)" />
    <path
       id="path17"
       d="m 0,0 1.92,4.64 2.24,4.32 2.4,4.16 2.88,3.839999 3.04,3.84 3.36,3.360001 3.68,3.200001 3.840001,3.039999 4,2.559999 4.319999,2.240002 4.48,1.919998 4.479999,1.600002 4.64,1.279999"
       style="fill:none;stroke:#000000;stroke-width:26.4;stroke-linecap:round;stroke-linejoin:round;stroke-miterlimit:10;stroke-dasharray:none;stroke-opacity:1"
       transform="translate(427.20001,705.43994)"
       clip-path="url(#clipPath18)" />
    <path
       id="path19"
       d="m 0,0 -1.44,6.24 -1.28,6.24 -0.8,6.399999 -0.32,6.400002 V 31.52 l 0.48,6.399998 0.8,6.240002 1.28,6.240002 1.6,6.239997 2.08,5.920002 2.56,5.920002 2.88,5.599999 3.2,5.599998 3.52,5.279999 3.84,4.800003"
       style="fill:none;stroke:#000000;stroke-width:26.4;stroke-linecap:round;stroke-linejoin:round;stroke-miterlimit:10;stroke-dasharray:none;stroke-opacity:1"
       transform="translate(460.16,656.31995)"
       clip-path="url(#clipPath20)" />
    <path
       id="path21"
       d="m 0,0 4.48,-6.24 4.16,-6.4 3.68,-6.560001 3.36,-6.879999 3.039999,-7.039999 2.560002,-7.200001 2.239999,-7.36 1.760001,-7.360001 1.439998,-7.52 0.960001,-7.520001 0.48,-7.68 0.16,-7.68 L 28,-92.959999 27.360001,-100.64 26.24,-108.16 l -1.600001,-7.52 -1.92,-7.36 -2.399999,-7.2 -2.72,-7.2 -3.04,-7.04 -3.52,-6.72 -3.84,-6.55999 -4.32,-6.40001"
       style="fill:none;stroke:#000000;stroke-width:26.4;stroke-linecap:round;stroke-linejoin:round;stroke-miterlimit:10;stroke-dasharray:none;stroke-opacity:1"
       transform="translate(322.07999,639.19995)"
       clip-path="url(#clipPath22)" />
    <path
       id="path23"
       d="m 0,0 16.959999,-7.68 16.639999,-8.16 16.32,-8.799999 16,-9.440003 15.68,-9.759998 L 96.959999,-54.240002 112,-65.120003"
       style="fill:none;stroke:#000000;stroke-width:26.4;stroke-linecap:round;stroke-linejoin:round;stroke-miterlimit:10;stroke-dasharray:none;stroke-opacity:1"
       transform="translate(230.88,583.51996)"
       clip-path="url(#clipPath24)" />
    <path
       id="path25"
       d="M 0,0 -5.44,-5.76 -11.2,-11.2 -17.280001,-16.32 -23.52,-21.120001 -30.08,-25.6 -36.959999,-29.6 -44,-33.279999 -51.360001,-36.48 l -7.36,-2.880001 -7.519997,-2.399997 -7.840004,-1.920002 -7.68,-1.599999 -8,-0.960003 -7.839996,-0.639999 -8.000002,-0.16 -8,0.16"
       style="fill:none;stroke:#000000;stroke-width:26.4;stroke-linecap:round;stroke-linejoin:round;stroke-miterlimit:10;stroke-dasharray:none;stroke-opacity:1"
       transform="translate(336,592.79993)"
       clip-path="url(#clipPath26)" />
    <path
       id="path27"
       d="m 0,0 -8.96,-0.96 -9.12,-0.96 -9.280001,-0.64 -9.279998,-0.32 -9.279999,-0.32 -9.280003,0.16 -9.280002,0.16 -9.279999,0.48 -9.119995,0.8 L -92,-0.64 l -8.96,1.12 -8.8,1.28 -8.8,1.6 -8.48,1.76 -8.32,2.08 -8.16,2.08 -7.84,2.4 -7.67999,2.56 -7.36,2.880001 L -173.44,20 -180.32001,23.040001 -186.72,26.4 l -6.08,3.36 -5.76,3.519999 -5.44,3.68 -4.96001,3.84 -4.64,4 -4.31999,4 -3.83999,4.16 -3.36,4.32 -3.04001,4.319999 -2.4,4.32 -2.24,4.480004 -1.59999,4.479995 -1.12001,4.480004 -0.80001,4.639999 -0.31999,4.480003 0.31999,4.64 0.64002,4.479995 0.95999,4.640002 1.60001,4.48 1.91999,4.48 2.56,4.32 2.88001,4.32 3.19999,4.32 3.84,4.16001 4.16,4.15999 4.48,4 4.96001,3.84001 5.27999,3.83999 5.76,3.51999 6.08,3.52001 6.39999,3.36 6.56002,3.19999 L -168,160.8 l 7.36,2.87999 7.52001,2.56001 7.83999,2.56 8.16001,2.23999 8.31999,2.08 8.48,1.92 8.64,1.60001 8.8,1.44 8.960002,1.28 9.119995,1.12 9.120003,0.8 9.279998,0.47999 9.120003,0.48001 9.439999,0.15999 9.279999,-0.15999 9.28,-0.32 9.120001,-0.48 9.12,-0.8 9.12,-0.96001 8.8,-1.28"
       style="fill:none;stroke:#000000;stroke-width:26.4;stroke-linecap:round;stroke-linejoin:round;stroke-miterlimit:10;stroke-dasharray:none;stroke-opacity:1"
       transform="translate(445.28,470.23993)"
       clip-path="url(#clipPath28)" />
    <path
       id="path29"
       d="M 445.28,470.23999 680,558.71997"
       style="fill:none;stroke:#000000;stroke-width:26.4;stroke-linecap:round;stroke-linejoin:round;stroke-miterlimit:10;stroke-dasharray:none;stroke-opacity:1"
       transform="translate(0,-5.8666667e-5)"
       clip-path="url(#clipPath30)" />
    <path
       id="path31"
       d="M 680,558.71997 452.32001,648.64001"
       style="fill:none;stroke:#000000;stroke-width:26.4;stroke-linecap:round;stroke-linejoin:round;stroke-miterlimit:10;stroke-dasharray:none;stroke-opacity:1"
       transform="translate(0,-5.8666667e-5)"
       clip-path="url(#clipPath32)" />
    <path
       id="path33"
       d="M 208,539.84003 113.6,464.32001"
       style="fill:none;stroke:#000000;stroke-width:26.4;stroke-linecap:round;stroke-linejoin:round;stroke-miterlimit:10;stroke-dasharray:none;stroke-opacity:1"
       transform="translate(0,-5.8666667e-5)"
       clip-path="url(#clipPath34)" />
    <path
       id="path35"
       d="m 208,539.84003 -94.4,56.63995"
       style="fill:none;stroke:#000000;stroke-width:26.4;stroke-linecap:round;stroke-linejoin:round;stroke-miterlimit:10;stroke-dasharray:none;stroke-opacity:1"
       transform="translate(0,-5.8666667e-5)"
       clip-path="url(#clipPath36)" />
  </g>
</svg>
