<?xml version="1.0" encoding="UTF-8" standalone="no"?>
<!-- Created with Inkscape (http://www.inkscape.org/) -->

<svg
   version="1.1"
   id="svg1"
   width="445.57333"
   height="449.81332"
   viewBox="0 0 445.57333 449.81332"
   sodipodi:docname="Salmiak3.pdf"
   xmlns:inkscape="http://www.inkscape.org/namespaces/inkscape"
   xmlns:sodipodi="http://sodipodi.sourceforge.net/DTD/sodipodi-0.dtd"
   xmlns="http://www.w3.org/2000/svg"
   xmlns:svg="http://www.w3.org/2000/svg">
  <defs
     id="defs1">
    <clipPath
       clipPathUnits="userSpaceOnUse"
       id="clipPath2">
      <path
         d="M 0,0.16 V 1122.5601 H 793.59998 V 0.16 Z"
         clip-rule="evenodd"
         id="path2" />
    </clipPath>
    <clipPath
       clipPathUnits="userSpaceOnUse"
       id="clipPath4">
      <path
         d="M 0,0.16 V 1122.5601 H 793.59998 V 0.16 Z"
         clip-rule="evenodd"
         id="path4" />
    </clipPath>
    <clipPath
       clipPathUnits="userSpaceOnUse"
       id="clipPath6">
      <path
         d="M 0,0.16 V 1122.5601 H 793.59998 V 0.16 Z"
         clip-rule="evenodd"
         id="path6" />
    </clipPath>
    <clipPath
       clipPathUnits="userSpaceOnUse"
       id="clipPath8">
      <path
         d="M 0,0.16 V 1122.5601 H 793.59998 V 0.16 Z"
         clip-rule="evenodd"
         id="path8" />
    </clipPath>
    <clipPath
       clipPathUnits="userSpaceOnUse"
       id="clipPath10">
      <path
         d="M 0,0.16 V 1122.5601 H 793.59998 V 0.16 Z"
         transform="translate(-425.12,-372.48001)"
         clip-rule="evenodd"
         id="path10" />
    </clipPath>
    <clipPath
       clipPathUnits="userSpaceOnUse"
       id="clipPath12">
      <path
         d="M 0,0.16 V 1122.5601 H 793.59998 V 0.16 Z"
         transform="translate(-557.28003,-429.11999)"
         clip-rule="evenodd"
         id="path12" />
    </clipPath>
    <clipPath
       clipPathUnits="userSpaceOnUse"
       id="clipPath14">
      <path
         d="M 0,0.16 V 1122.5601 H 793.59998 V 0.16 Z"
         transform="translate(-613.91998,-561.28003)"
         clip-rule="evenodd"
         id="path14" />
    </clipPath>
    <clipPath
       clipPathUnits="userSpaceOnUse"
       id="clipPath16">
      <path
         d="M 0,0.16 V 1122.5601 H 793.59998 V 0.16 Z"
         transform="translate(-557.28003,-693.44)"
         clip-rule="evenodd"
         id="path16" />
    </clipPath>
    <clipPath
       clipPathUnits="userSpaceOnUse"
       id="clipPath18">
      <path
         d="M 0,0.16 V 1122.5601 H 793.59998 V 0.16 Z"
         transform="translate(-425.12,-750.08002)"
         clip-rule="evenodd"
         id="path18" />
    </clipPath>
    <clipPath
       clipPathUnits="userSpaceOnUse"
       id="clipPath20">
      <path
         d="M 0,0.16 V 1122.5601 H 793.59998 V 0.16 Z"
         transform="translate(-292.95999,-693.44)"
         clip-rule="evenodd"
         id="path20" />
    </clipPath>
    <clipPath
       clipPathUnits="userSpaceOnUse"
       id="clipPath22">
      <path
         d="M 0,0.16 V 1122.5601 H 793.59998 V 0.16 Z"
         transform="translate(-236.32001,-561.28003)"
         clip-rule="evenodd"
         id="path22" />
    </clipPath>
    <clipPath
       clipPathUnits="userSpaceOnUse"
       id="clipPath24">
      <path
         d="M 0,0.16 V 1122.5601 H 793.59998 V 0.16 Z"
         transform="translate(-292.95999,-429.11999)"
         clip-rule="evenodd"
         id="path24" />
    </clipPath>
    <clipPath
       clipPathUnits="userSpaceOnUse"
       id="clipPath26">
      <path
         d="M 0,0.16 V 1122.5601 H 793.59998 V 0.16 Z"
         clip-rule="evenodd"
         id="path26" />
    </clipPath>
  </defs>
  <sodipodi:namedview
     id="namedview1"
     pagecolor="#505050"
     bordercolor="#eeeeee"
     borderopacity="1"
     inkscape:showpageshadow="0"
     inkscape:pageopacity="0"
     inkscape:pagecheckerboard="0"
     inkscape:deskcolor="#505050">
    <inkscape:page
       x="0"
       y="0"
       inkscape:label="1"
       id="page1"
       width="445.57333"
       height="449.81332"
       margin="0"
       bleed="0" />
  </sodipodi:namedview>
  <g
     id="g1"
     inkscape:groupmode="layer"
     inkscape:label="1">
    <path
       id="path1"
       d="M 396.79999,391.35999 V 731.20001"
       style="fill:none;stroke:#000000;stroke-width:26.4;stroke-linecap:round;stroke-linejoin:round;stroke-miterlimit:10;stroke-dasharray:none;stroke-opacity:1"
       transform="translate(-174.76,-336.37339)"
       clip-path="url(#clipPath2)" />
    <path
       id="path3"
       d="M 226.88,561.28003 H 566.71997"
       style="fill:none;stroke:#000000;stroke-width:26.4;stroke-linecap:round;stroke-linejoin:round;stroke-miterlimit:10;stroke-dasharray:none;stroke-opacity:1"
       transform="translate(-174.76,-336.37339)"
       clip-path="url(#clipPath4)" />
    <path
       id="path5"
       d="M 276.64001,441.12 516.96002,681.44"
       style="fill:none;stroke:#000000;stroke-width:26.4;stroke-linecap:round;stroke-linejoin:round;stroke-miterlimit:10;stroke-dasharray:none;stroke-opacity:1"
       transform="translate(-174.76,-336.37339)"
       clip-path="url(#clipPath6)" />
    <path
       id="path7"
       d="M 276.64001,681.44 516.96002,441.12"
       style="fill:none;stroke:#000000;stroke-width:26.4;stroke-linecap:round;stroke-linejoin:round;stroke-miterlimit:10;stroke-dasharray:none;stroke-opacity:1"
       transform="translate(-174.76,-336.37339)"
       clip-path="url(#clipPath8)" />
    <path
       id="path9"
       d="m 0,0 -0.16,-2.88 -0.48,-3.04 -0.64,-2.72 -1.12,-2.88 -1.28,-2.56 -1.6,-2.559999 -1.92,-2.24 -2.08,-2.08 -2.4,-1.92 -2.4,-1.600001 -2.719999,-1.28 L -19.52,-26.879999 -22.4,-27.68 l -2.880001,-0.48 -3.039999,-0.16 -2.880001,0.16 -2.880001,0.48 -2.879997,0.800001 L -39.84,-25.76 l -2.560002,1.28 -2.559997,1.600001 -2.240002,1.92 -2.079998,2.08 -1.920002,2.24 -1.599998,2.559999 -1.280003,2.56 -1.119999,2.88 L -56,-5.92 -56.48,-2.88 -56.639999,0 -56.48,3.04 -56,5.92 l 0.799999,2.88 1.119999,2.72 1.280003,2.72 1.599998,2.399999 1.920002,2.400002 2.079998,2.08 2.240002,1.759998 2.559997,1.600001 2.560002,1.44 2.880001,1.120001 2.879997,0.639999 2.880001,0.48 2.880001,0.16 3.039999,-0.16 L -22.4,27.68 -19.52,27.040001 -16.799999,25.92 -14.08,24.48 l 2.4,-1.600001 2.4,-1.759998 2.08,-2.08 1.92,-2.400002 L -3.68,14.24 -2.4,11.52 -1.28,8.8 -0.64,5.92 -0.16,3.04 0,0 v 0 z"
       style="fill:#000000;fill-opacity:1;fill-rule:evenodd;stroke:none"
       transform="translate(250.36,36.106619)"
       clip-path="url(#clipPath10)" />
    <path
       id="path11"
       d="m 0,0 -0.16,-2.88 -0.48,-3.04 -0.64,-2.88 -1.12,-2.72 -1.28,-2.56 -1.76,-2.559999 -1.76,-2.24 -2.08,-2.08 -2.4,-1.92 -2.4,-1.600001 -2.719999,-1.44 L -19.52,-26.879999 -22.4,-27.68 l -2.880001,-0.48 -3.039999,-0.16 -2.880001,0.16 -3.040001,0.48 -2.719997,0.800001 L -39.84,-25.92 l -2.560002,1.44 -2.559997,1.600001 -2.240002,1.92 -2.079998,2.08 -1.920002,2.24 -1.599998,2.559999 -1.280003,2.56 -1.119999,2.72 L -56,-5.92 -56.48,-2.88 -56.639999,0 -56.48,3.04 -56,5.92 l 0.799999,2.88 1.119999,2.72 1.280003,2.72 1.599998,2.399999 1.920002,2.400002 2.079998,2.08 2.240002,1.759998 2.559997,1.600001 2.560002,1.44 2.880001,1.120001 2.719997,0.639999 3.040001,0.48 2.880001,0.16 3.039999,-0.16 L -22.4,27.68 -19.52,27.040001 -16.799999,25.92 -14.08,24.48 l 2.4,-1.600001 2.4,-1.759998 2.08,-2.08 1.76,-2.400002 L -3.68,14.24 -2.4,11.52 -1.28,8.8 -0.64,5.92 -0.16,3.04 0,0 v 0 z"
       style="fill:#000000;fill-opacity:1;fill-rule:evenodd;stroke:none"
       transform="translate(382.52003,92.746603)"
       clip-path="url(#clipPath12)" />
    <path
       id="path13"
       d="m 0,0 -0.16,-2.88 -0.48,-3.04 -0.64,-2.88 -1.12,-2.72 -1.28,-2.56 -1.76,-2.559999 -1.76,-2.24 -2.08,-2.08 -2.4,-1.92 -2.4,-1.600001 -2.719999,-1.44 L -19.52,-26.879999 -22.4,-27.68 l -2.880001,-0.48 -3.039999,-0.16 -2.880001,0.16 -3.040001,0.48 -2.719997,0.800001 L -39.84,-25.92 l -2.560002,1.44 -2.559997,1.600001 -2.240002,1.92 -2.079998,2.08 -1.920002,2.24 -1.599998,2.559999 -1.280003,2.56 -1.119999,2.72 L -56,-5.92 -56.48,-2.88 -56.639999,0 -56.48,3.04 -56,5.92 l 0.799999,2.88 1.119999,2.72 1.280003,2.72 1.599998,2.399999 1.920002,2.400002 2.079998,2.08 2.240002,1.759998 2.559997,1.600001 2.560002,1.44 2.880001,0.959999 2.719997,0.800001 3.040001,0.48 2.880001,0.16 3.039999,-0.16 L -22.4,27.68 -19.52,26.879999 -16.799999,25.92 -14.08,24.48 l 2.4,-1.600001 2.4,-1.759998 2.08,-2.08 1.76,-2.400002 L -3.68,14.24 -2.4,11.52 -1.28,8.8 -0.64,5.92 -0.16,3.04 0,0 v 0 z"
       style="fill:#000000;fill-opacity:1;fill-rule:evenodd;stroke:none"
       transform="translate(439.15998,224.90664)"
       clip-path="url(#clipPath14)" />
    <path
       id="path15"
       d="m 0,0 -0.16,-2.88 -0.48,-3.04 -0.64,-2.88 -1.12,-2.72 -1.28,-2.56 -1.76,-2.559999 -1.76,-2.24 -2.08,-2.08 -2.4,-1.92 -2.4,-1.600001 -2.719999,-1.44 L -19.52,-26.879999 -22.4,-27.68 l -2.880001,-0.48 -3.039999,-0.16 -2.880001,0.16 -3.040001,0.48 -2.719997,0.800001 L -39.84,-25.92 l -2.560002,1.44 -2.559997,1.600001 -2.240002,1.92 -2.079998,2.08 -1.920002,2.24 -1.599998,2.559999 -1.280003,2.56 -1.119999,2.72 L -56,-5.92 -56.48,-2.88 -56.639999,0 -56.48,3.04 -56,5.92 l 0.799999,2.88 1.119999,2.72 1.280003,2.72 1.599998,2.399999 1.920002,2.400002 2.079998,2.08 2.240002,1.759998 2.559997,1.600001 2.560002,1.44 2.880001,0.959999 2.719997,0.800001 3.040001,0.48 2.880001,0.16 3.039999,-0.16 L -22.4,27.68 -19.52,26.879999 -16.799999,25.92 -14.08,24.48 l 2.4,-1.600001 2.4,-1.759998 2.08,-2.08 1.76,-2.400002 L -3.68,14.24 -2.4,11.52 -1.28,8.8 -0.64,5.92 -0.16,3.04 0,0 v 0 z"
       style="fill:#000000;fill-opacity:1;fill-rule:evenodd;stroke:none"
       transform="translate(382.52003,357.06661)"
       clip-path="url(#clipPath16)" />
    <path
       id="path17"
       d="m 0,0 -0.16,-2.88 -0.48,-3.04 -0.64,-2.88 -1.12,-2.72 -1.28,-2.56 -1.6,-2.559999 -1.92,-2.24 -2.08,-2.08 -2.4,-1.92 -2.4,-1.600001 -2.719999,-1.44 L -19.52,-26.879999 -22.4,-27.68 l -2.880001,-0.48 -3.039999,-0.16 -2.880001,0.16 -2.880001,0.48 -2.879997,0.800001 L -39.84,-25.92 l -2.560002,1.44 -2.559997,1.600001 -2.240002,1.92 -2.079998,2.08 -1.920002,2.24 -1.599998,2.559999 -1.280003,2.56 -1.119999,2.72 L -56,-5.92 -56.48,-2.88 -56.639999,0 -56.48,3.04 -56,5.92 l 0.799999,2.88 1.119999,2.72 1.280003,2.72 1.599998,2.399999 1.920002,2.24 2.079998,2.240002 2.240002,1.759998 2.559997,1.600001 2.560002,1.44 2.880001,0.959999 2.879997,0.800001 2.880001,0.48 2.880001,0.16 3.039999,-0.16 L -22.4,27.68 -19.52,26.879999 -16.799999,25.92 -14.08,24.48 l 2.4,-1.600001 2.4,-1.759998 2.08,-2.240002 1.92,-2.24 L -3.68,14.24 -2.4,11.52 -1.28,8.8 -0.64,5.92 -0.16,3.04 0,0 v 0 z"
       style="fill:#000000;fill-opacity:1;fill-rule:evenodd;stroke:none"
       transform="translate(250.36,413.70663)"
       clip-path="url(#clipPath18)" />
    <path
       id="path19"
       d="m 0,0 -0.16,-2.88 -0.48,-3.04 -0.64,-2.88 -1.12,-2.72 -1.28,-2.56 -1.6,-2.559999 -1.92,-2.24 -2.08,-2.08 -2.4,-1.92 -2.4,-1.600001 -2.719999,-1.44 L -19.52,-26.879999 -22.4,-27.68 l -2.880001,-0.48 -3.039999,-0.16 -2.880001,0.16 -2.880001,0.48 -2.879997,0.800001 L -39.84,-25.92 l -2.560002,1.44 -2.559997,1.600001 -2.240002,1.92 -2.079998,2.08 -1.920002,2.24 -1.599998,2.559999 -1.280003,2.56 -1.119999,2.72 L -56,-5.92 -56.48,-2.88 -56.639999,0 -56.48,3.04 -56,5.92 l 0.799999,2.88 1.119999,2.72 1.280003,2.72 1.599998,2.399999 1.920002,2.400002 2.079998,2.08 2.240002,1.759998 2.559997,1.600001 2.560002,1.44 2.880001,0.959999 2.879997,0.800001 2.880001,0.48 2.880001,0.16 3.039999,-0.16 L -22.4,27.68 -19.52,26.879999 -16.799999,25.92 -14.08,24.48 l 2.4,-1.600001 2.4,-1.759998 2.08,-2.08 1.92,-2.400002 L -3.68,14.24 -2.4,11.52 -1.28,8.8 -0.64,5.92 -0.16,3.04 0,0 v 0 z"
       style="fill:#000000;fill-opacity:1;fill-rule:evenodd;stroke:none"
       transform="translate(118.19999,357.06661)"
       clip-path="url(#clipPath20)" />
    <path
       id="path21"
       d="m 0,0 -0.16,-2.88 -0.32,-3.04 -0.8,-2.88 -1.12,-2.72 -1.28,-2.56 -1.6,-2.559999 -1.92,-2.24 -2.08,-2.08 -2.4,-1.92 -2.4,-1.600001 -2.719999,-1.44 L -19.52,-26.879999 -22.4,-27.68 l -2.880001,-0.48 -3.039999,-0.16 -2.880001,0.16 -2.880001,0.48 -2.879997,0.800001 L -39.84,-25.92 l -2.560002,1.44 -2.559997,1.600001 -2.240002,1.92 -2.079998,2.08 -1.920002,2.24 -1.599998,2.559999 -1.280003,2.56 -1.119999,2.72 L -56,-5.92 -56.48,-2.88 -56.639999,0 -56.48,3.04 -56,5.92 l 0.799999,2.88 1.119999,2.72 1.280003,2.72 1.599998,2.399999 1.920002,2.400002 2.079998,2.08 2.240002,1.759998 2.559997,1.600001 2.560002,1.44 2.880001,0.959999 2.879997,0.800001 2.880001,0.48 2.880001,0.16 3.039999,-0.16 L -22.4,27.68 -19.52,26.879999 -16.799999,25.92 -14.08,24.48 l 2.4,-1.600001 2.4,-1.759998 2.08,-2.08 1.92,-2.400002 L -3.68,14.24 -2.4,11.52 -1.28,8.8 -0.48,5.92 -0.16,3.04 0,0 v 0 z"
       style="fill:#000000;fill-opacity:1;fill-rule:evenodd;stroke:none"
       transform="translate(61.560007,224.90664)"
       clip-path="url(#clipPath22)" />
    <path
       id="path23"
       d="m 0,0 -0.16,-2.88 -0.48,-3.04 -0.64,-2.88 -1.12,-2.72 -1.28,-2.56 -1.6,-2.559999 -1.92,-2.24 -2.08,-2.08 -2.4,-1.92 -2.4,-1.600001 -2.719999,-1.44 L -19.52,-26.879999 -22.4,-27.68 l -2.880001,-0.48 -3.039999,-0.16 -2.880001,0.16 -2.880001,0.48 -2.879997,0.800001 L -39.84,-25.92 l -2.560002,1.44 -2.559997,1.600001 -2.240002,1.92 -2.079998,2.08 -1.920002,2.24 -1.599998,2.559999 -1.280003,2.56 -1.119999,2.72 L -56,-5.92 -56.48,-2.88 -56.639999,0 -56.48,3.04 -56,5.92 l 0.799999,2.88 1.119999,2.72 1.280003,2.72 1.599998,2.399999 1.920002,2.400002 2.079998,2.08 2.240002,1.759998 2.559997,1.600001 2.560002,1.44 2.880001,1.120001 2.879997,0.639999 2.880001,0.48 2.880001,0.16 3.039999,-0.16 L -22.4,27.68 -19.52,27.040001 -16.799999,25.92 -14.08,24.48 l 2.4,-1.600001 2.4,-1.759998 2.08,-2.08 1.92,-2.400002 L -3.68,14.24 -2.4,11.52 -1.28,8.8 -0.64,5.92 -0.16,3.04 0,0 v 0 z"
       style="fill:#000000;fill-opacity:1;fill-rule:evenodd;stroke:none"
       transform="translate(118.19999,92.746603)"
       clip-path="url(#clipPath24)" />
    <path
       id="path25"
       d="m 425.12,372.48001 -0.16001,-2.88 -0.47998,-3.04001 -0.64001,-2.72 -1.12,-2.88001 -1.28,-2.56 -1.6,-2.55999 -1.91999,-2.23999 -2.08001,-2.08002 -2.4,-1.91998 -2.39999,-1.60001 -2.72,-1.28 -2.72,-1.11999 -2.88001,-0.80002 -2.88,-0.47998 -3.04001,-0.16001 -2.87998,0.16001 -2.88,0.47998 -2.88001,0.80002 -2.88,1.11999 -2.56,1.28 -2.56,1.60001 -2.23999,1.91998 -2.08001,2.08002 -1.91999,2.23999 -1.6,2.55999 -1.28,2.56 -1.12,2.88001 -0.80001,2.72 -0.47999,3.04001 -0.16,2.88 0.16,3.03998 0.47999,2.88 0.80001,2.88001 1.12,2.72 1.28,2.72 1.6,2.4 1.91999,2.39999 2.08001,2.08002 2.23999,1.75998 2.56,1.6 2.56,1.44 2.88,1.12 2.88001,0.64001 2.88,0.48001 2.87998,0.15998 3.04001,-0.15998 2.88,-0.48001 2.88001,-0.64001 2.72,-1.12 2.72,-1.44 2.39999,-1.6 2.4,-1.75998 2.08001,-2.08002 1.91999,-2.39999 1.6,-2.4 1.28,-2.72 1.12,-2.72 0.64001,-2.88001 0.47998,-2.88 0.16001,-3.03998 M 557.28003,429.12 557.12,426.23999 l -0.47999,-3.03998 -0.64001,-2.88 -1.12,-2.72 -1.28002,-2.56 -1.75995,-2.56 -1.76001,-2.24002 L 548,408.16 l -2.40002,-1.92001 -2.39997,-1.59998 -2.72003,-1.44 -2.71997,-0.96002 L 534.88,401.44 532,400.95999 l -3.03998,-0.16 -2.88,0.16 -3.04004,0.48001 -2.71997,0.79999 -2.88001,0.96002 -2.56,1.44 -2.55999,1.59998 -2.24002,1.92001 -2.07999,2.07999 -1.92001,2.24002 -1.59998,2.56 -1.28,2.56 -1.12002,2.72 -0.79999,2.88 -0.48001,3.03998 -0.15998,2.88001 0.15998,3.04 0.48001,2.88001 0.79999,2.88 1.12002,2.72 1.28,2.71998 1.59998,2.40002 L 508,448.16 l 2.07999,2.07999 2.24002,1.76001 2.55999,1.60001 2.56,1.44 2.88001,1.11999 2.71997,0.63999 3.04004,0.48001 2.88,0.16 3.03998,-0.16 2.88,-0.48001 2.88001,-0.63999 2.71997,-1.11999 2.72003,-1.44 L 545.59998,452 548,450.23999 l 2.08002,-2.07999 1.76001,-2.39999 1.75995,-2.40002 1.28002,-2.71998 1.12,-2.72 0.64001,-2.88 0.47999,-2.88001 0.16003,-3.04 m 56.63995,132.16003 -0.15997,-2.88001 -0.47998,-3.04004 -0.64002,-2.88 -1.11999,-2.71997 -1.28003,-2.56 -1.76001,-2.56 -1.76001,-2.23999 -2.07996,-2.08001 -2.40002,-1.91999 -2.39996,-1.60003 -2.72003,-1.44001 -2.71998,-0.95996 -2.88,-0.80004 -2.88001,-0.47998 -3.04003,-0.15998 -2.88001,0.15998 -3.03998,0.47998 -2.71997,0.80004 -2.88,0.95996 -2.56,1.44001 -2.56,1.60003 -2.24005,1.91999 -2.07996,2.08001 -1.92004,2.23999 -1.59997,2.56 -1.27997,2.56 -1.12006,2.71997 -0.79999,2.88 -0.47998,3.04004 -0.15997,2.88001 0.15997,3.03998 0.47998,2.88 0.79999,2.88001 1.12006,2.71997 1.27997,2.72003 1.59997,2.39996 1.92004,2.40003 2.07996,2.08001 2.24005,1.75995 2.56,1.60004 2.56,1.44 2.88,0.95996 2.71997,0.80005 3.03998,0.47998 2.88001,0.15998 3.04003,-0.15998 2.88001,-0.47998 2.88,-0.80005 2.71998,-0.95996 2.72003,-1.44 2.39996,-1.60004 2.40002,-1.75995 2.07996,-2.08001 1.76001,-2.40003 1.76001,-2.39996 1.28003,-2.72003 1.11999,-2.71997 0.64002,-2.88001 0.47998,-2.88 0.15997,-3.03998 M 557.28003,693.44 557.12,690.56 556.64001,687.52002 556,684.64001 l -1.12,-2.72003 -1.28002,-2.56 -1.75995,-2.55999 L 550.08002,674.56 548,672.47998 545.59998,670.56 l -2.39997,-1.59998 -2.72003,-1.44 -2.71997,-0.96002 -2.88001,-0.79999 -2.88,-0.47998 -3.03998,-0.16003 -2.88,0.16003 -3.04004,0.47998 -2.71997,0.79999 -2.88001,0.96002 -2.56,1.44 -2.55999,1.59998 -2.24002,1.91998 L 508,674.56 l -1.92001,2.23999 -1.59998,2.55999 -1.28,2.56 -1.12002,2.72003 -0.79999,2.88001 -0.48001,3.03998 -0.15998,2.88 0.15998,3.03998 0.48001,2.88 0.79999,2.88001 1.12002,2.72003 1.28,2.71997 1.59998,2.40003 1.92001,2.39996 2.07999,2.08002 2.24002,1.76001 2.55999,1.59997 2.56,1.44 2.88001,0.96003 2.71997,0.79999 3.04004,0.47998 2.88,0.16003 3.03998,-0.16003 2.88,-0.47998 2.88001,-0.79999 2.71997,-0.96003 2.72003,-1.44 2.39997,-1.59997 L 548,714.56 l 2.08002,-2.08002 1.76001,-2.39996 1.75995,-2.40003 1.28002,-2.71997 1.12,-2.72003 0.64001,-2.88001 0.47999,-2.88 0.16003,-3.03998 M 425.12,750.08002 l -0.16001,-2.88001 -0.47998,-3.04004 -0.64001,-2.87994 -1.12,-2.72003 -1.28,-2.56 -1.6,-2.56 -1.91999,-2.23999 -2.08001,-2.08001 -2.4,-1.91999 -2.39999,-1.60003 -2.72,-1.44001 -2.72,-0.95996 -2.88001,-0.79999 -2.88,-0.48004 -3.04001,-0.15997 -2.87998,0.15997 -2.88,0.48004 -2.88001,0.79999 -2.88,0.95996 -2.56,1.44001 -2.56,1.60003 -2.23999,1.91999 -2.08001,2.08001 -1.91999,2.23999 -1.6,2.56 -1.28,2.56 -1.12,2.72003 -0.80001,2.87994 -0.47999,3.04004 -0.16,2.88001 0.16,3.03998 0.47999,2.88 0.80001,2.88 1.12,2.71998 1.28,2.72003 1.6,2.39996 1.91999,2.24005 2.08001,2.23999 2.23999,1.76001 2.56,1.59998 2.56,1.44 2.88,0.96002 2.88001,0.79999 2.88,0.47998 2.87998,0.16003 3.04001,-0.16003 2.88,-0.47998 2.88001,-0.79999 2.72,-0.96002 2.72,-1.44 2.39999,-1.59998 2.4,-1.76001 2.08001,-2.23999 1.91999,-2.24005 1.6,-2.39996 1.28,-2.72003 1.12,-2.71998 0.64001,-2.88 0.47998,-2.88 0.16001,-3.03998 M 292.95999,693.44 l -0.16,-2.88 -0.47998,-3.03998 -0.64002,-2.88001 -1.11999,-2.72003 -1.28,-2.56 -1.60001,-2.55999 -1.91998,-2.23999 -2.08002,-2.08002 -2.39999,-1.91998 -2.4,-1.59998 -2.72,-1.44 -2.72,-0.96002 -2.88,-0.79999 -2.88001,-0.47998 -3.03998,-0.16003 -2.88,0.16003 -2.88001,0.47998 -2.88,0.79999 -2.88001,0.96002 -2.55999,1.44 -2.56,1.59998 -2.24001,1.91998 -2.08,2.08002 -1.92,2.23999 -1.59999,2.55999 -1.28,2.56 -1.12001,2.72003 -0.79998,2.88001 -0.48001,3.03998 -0.15999,2.88 0.15999,3.03998 0.48001,2.88 0.79998,2.88001 1.12001,2.72003 1.28,2.71997 1.59999,2.40003 1.92,2.39996 2.08,2.08002 2.24001,1.76001 2.56,1.59997 2.55999,1.44 2.88001,0.96003 2.88,0.79999 2.88001,0.47998 2.88,0.16003 3.03998,-0.16003 2.88001,-0.47998 2.88,-0.79999 2.72,-0.96003 2.72,-1.44 2.4,-1.59997 2.39999,-1.76001 2.08002,-2.08002 1.91998,-2.39996 1.60001,-2.40003 1.28,-2.71997 1.11999,-2.72003 0.64002,-2.88001 0.47998,-2.88 0.16,-3.03998 m -56.63998,-132.15997 -0.16001,-2.88001 -0.32,-3.04004 -0.80001,-2.88 -1.11999,-2.71997 -1.28,-2.56 -1.60001,-2.56 -1.92,-2.23999 -2.08,-2.08001 -2.39999,-1.91999 -2.4,-1.60003 -2.72,-1.44001 -2.72,-0.95996 -2.88,-0.80004 L 211.03999,533.12 208,532.96002 l -2.88001,0.15998 -2.87999,0.47998 -2.88,0.80004 -2.88,0.95996 -2.56,1.44001 -2.56,1.60003 -2.24001,1.91999 -2.08,2.08001 -1.92,2.23999 -1.59999,2.56 -1.28,2.56 -1.12001,2.71997 -0.79998,2.88 -0.48001,3.04004 -0.16001,2.88001 0.16001,3.03998 0.48001,2.88 0.79998,2.88001 1.12001,2.71997 1.28,2.72003 1.59999,2.39996 1.92,2.40003 2.08,2.08001 2.24001,1.75995 2.56,1.60004 2.56,1.44 2.88,0.95996 2.88,0.80005 2.87999,0.47998 2.88001,0.15998 3.03999,-0.15998 2.88001,-0.47998 2.88,-0.80005 2.72,-0.95996 2.72,-1.44 2.4,-1.60004 2.39999,-1.75995 2.08,-2.08001 1.92,-2.40003 1.60001,-2.39996 1.28,-2.72003 1.11999,-2.71997 0.80001,-2.88001 0.32,-2.88 0.16001,-3.03998 M 292.95999,429.12 l -0.16,-2.88001 -0.47998,-3.03998 -0.64002,-2.88 -1.11999,-2.72 -1.28,-2.56 -1.60001,-2.56 -1.91998,-2.24002 -2.08002,-2.07999 -2.39999,-1.92001 -2.4,-1.59998 -2.72,-1.44 -2.72,-0.96002 -2.88,-0.79999 -2.88001,-0.48001 -3.03998,-0.16 -2.88,0.16 -2.88001,0.48001 -2.88,0.79999 -2.88001,0.96002 -2.55999,1.44 -2.56,1.59998 -2.24001,1.92001 -2.08,2.07999 -1.92,2.24002 -1.59999,2.56 -1.28,2.56 -1.12001,2.72 -0.79998,2.88 -0.48001,3.03998 -0.15999,2.88001 0.15999,3.04 0.48001,2.88001 0.79998,2.88 1.12001,2.72 1.28,2.71998 1.59999,2.40002 1.92,2.39999 2.08,2.07999 L 248,452 l 2.56,1.60001 2.55999,1.44 L 256,456.16 l 2.88,0.63999 2.88001,0.48001 2.88,0.16 3.03998,-0.16 2.88001,-0.48001 2.88,-0.63999 2.72,-1.11999 2.72,-1.44 2.4,-1.60001 2.39999,-1.76001 2.08002,-2.07999 1.91998,-2.39999 1.60001,-2.40002 1.28,-2.71998 1.11999,-2.72 0.64002,-2.88 0.47998,-2.88001 0.16,-3.04"
       style="fill:none;stroke:#000000;stroke-width:0.48;stroke-linecap:round;stroke-linejoin:round;stroke-miterlimit:10;stroke-dasharray:none;stroke-opacity:1"
       transform="translate(-174.76,-336.37339)"
       clip-path="url(#clipPath26)" />
  </g>
</svg>
