<?xml version="1.0" encoding="UTF-8" standalone="no"?>
<!-- Created with Inkscape (http://www.inkscape.org/) -->

<svg
   version="1.1"
   id="svg1"
   width="469.58667"
   height="385.76001"
   viewBox="0 0 469.58667 385.76001"
   sodipodi:docname="Salmiak19.pdf"
   xmlns:inkscape="http://www.inkscape.org/namespaces/inkscape"
   xmlns:sodipodi="http://sodipodi.sourceforge.net/DTD/sodipodi-0.dtd"
   xmlns="http://www.w3.org/2000/svg"
   xmlns:svg="http://www.w3.org/2000/svg">
  <defs
     id="defs1">
    <clipPath
       clipPathUnits="userSpaceOnUse"
       id="clipPath2">
      <path
         d="M 0,0.16 V 1122.5601 H 793.59998 V 0.16 Z"
         transform="translate(-182.24,-643.03998)"
         clip-rule="evenodd"
         id="path2" />
    </clipPath>
    <clipPath
       clipPathUnits="userSpaceOnUse"
       id="clipPath4">
      <path
         d="M 0,0.16 V 1122.5601 H 793.59998 V 0.16 Z"
         clip-rule="evenodd"
         id="path4" />
    </clipPath>
    <clipPath
       clipPathUnits="userSpaceOnUse"
       id="clipPath6">
      <path
         d="M 0,0.16 V 1122.5601 H 793.59998 V 0.16 Z"
         clip-rule="evenodd"
         id="path6" />
    </clipPath>
    <clipPath
       clipPathUnits="userSpaceOnUse"
       id="clipPath8">
      <path
         d="M 0,0.16 V 1122.5601 H 793.59998 V 0.16 Z"
         clip-rule="evenodd"
         id="path8" />
    </clipPath>
  </defs>
  <sodipodi:namedview
     id="namedview1"
     pagecolor="#505050"
     bordercolor="#eeeeee"
     borderopacity="1"
     inkscape:showpageshadow="0"
     inkscape:pageopacity="0"
     inkscape:pagecheckerboard="0"
     inkscape:deskcolor="#505050">
    <inkscape:page
       x="0"
       y="0"
       inkscape:label="1"
       id="page1"
       width="469.58667"
       height="385.76001"
       margin="0"
       bleed="0" />
  </sodipodi:namedview>
  <g
     id="g1"
     inkscape:groupmode="layer"
     inkscape:label="1">
    <path
       id="path1"
       d="m 0,0 5.44,8.96 5.92,8.64 6.4,8.32 6.56,8.160002 7.040001,7.679996 7.36,7.520001 7.84,7.040001 8,6.720001 8.32,6.239998 8.639996,5.919998 8.800003,5.600006 9.279998,5.119995 9.279999,4.64 9.600003,4.319999 9.76,3.680001 9.92,3.360002 10.08,2.88 10.08001,2.4 10.39999,1.92 10.24001,1.6 10.39999,0.96 10.56,0.48 h 10.40001 l 10.39999,-0.48 10.56,-0.96 10.24,-1.44 10.4,-1.92 10.08,-2.24 10.07999,-2.88 9.92001,-3.360003 9.76001,-3.68 9.59998,-4.32 9.44,-4.639999 9.12002,-4.959999 L 318.88,75.68 327.51999,69.760002 335.84,63.52 344,56.799999 l 7.67999,-7.040001 7.36002,-7.359996 7.03998,-7.680001 6.72,-8.000002 L 379.20001,18.4 385.12,9.76 l 5.44,-8.96 5.11999,-9.12 4.80002,-9.28 4.16,-9.600001 3.84,-9.759998 3.35999,-9.920002 2.88,-10.079998 2.4,-10.239998 1.92001,-10.240005 1.44,-10.399994 0.95999,-10.400002 0.63999,-10.400002 v -10.56 l -0.47998,-10.40001 -0.96,-10.39999 -1.44,-10.39999 -1.92001,-10.24001 -2.4,-10.24 -2.88,-10.08001 -3.20001,-9.91999 -3.84,-9.76 -4.16,-9.6 -4.63999,-9.28 -5.11999,-9.28"
       style="fill:none;stroke:#000000;stroke-width:26.4;stroke-linecap:round;stroke-linejoin:round;stroke-miterlimit:10;stroke-dasharray:none;stroke-opacity:1"
       transform="translate(182.24,594.98659)"
       clip-path="url(#clipPath2)" />
    <path
       id="path3"
       d="M 573.28003,414.23999 312.64001,566.88"
       style="fill:none;stroke:#000000;stroke-width:26.4;stroke-linecap:round;stroke-linejoin:round;stroke-miterlimit:10;stroke-dasharray:none;stroke-opacity:1"
       transform="translate(0,-48.053392)"
       clip-path="url(#clipPath4)" />
    <path
       id="path5"
       d="m 312.64001,566.88 -76.32,-130.39999"
       style="fill:none;stroke:#000000;stroke-width:26.4;stroke-linecap:round;stroke-linejoin:round;stroke-miterlimit:10;stroke-dasharray:none;stroke-opacity:1"
       transform="translate(0,-48.053392)"
       clip-path="url(#clipPath6)" />
    <path
       id="path7"
       d="m 189.11999,429.12 h 94.4"
       style="fill:none;stroke:#000000;stroke-width:26.4;stroke-linecap:round;stroke-linejoin:round;stroke-miterlimit:10;stroke-dasharray:none;stroke-opacity:1"
       transform="translate(0,-48.053392)"
       clip-path="url(#clipPath8)" />
  </g>
</svg>
