<?xml version="1.0" encoding="UTF-8" standalone="no"?>
<!-- Created with Inkscape (http://www.inkscape.org/) -->

<svg
   version="1.1"
   id="svg1"
   width="501.60001"
   height="481.86667"
   viewBox="0 0 501.60001 481.86667"
   sodipodi:docname="Salmiak24.pdf"
   xmlns:inkscape="http://www.inkscape.org/namespaces/inkscape"
   xmlns:sodipodi="http://sodipodi.sourceforge.net/DTD/sodipodi-0.dtd"
   xmlns="http://www.w3.org/2000/svg"
   xmlns:svg="http://www.w3.org/2000/svg">
  <defs
     id="defs1">
    <clipPath
       clipPathUnits="userSpaceOnUse"
       id="clipPath2">
      <path
         d="M 0,0.16 V 1122.5601 H 793.59998 V 0.16 Z"
         transform="translate(-623.03998,-523.52002)"
         clip-rule="evenodd"
         id="path2" />
    </clipPath>
    <clipPath
       clipPathUnits="userSpaceOnUse"
       id="clipPath4">
      <path
         d="M 0,0.16 V 1122.5601 H 793.59998 V 0.16 Z"
         clip-rule="evenodd"
         id="path4" />
    </clipPath>
    <clipPath
       clipPathUnits="userSpaceOnUse"
       id="clipPath6">
      <path
         d="M 0,0.16 V 1122.5601 H 793.59998 V 0.16 Z"
         clip-rule="evenodd"
         id="path6" />
    </clipPath>
    <clipPath
       clipPathUnits="userSpaceOnUse"
       id="clipPath8">
      <path
         d="M 0,0.16 V 1122.5601 H 793.59998 V 0.16 Z"
         clip-rule="evenodd"
         id="path8" />
    </clipPath>
    <clipPath
       clipPathUnits="userSpaceOnUse"
       id="clipPath10">
      <path
         d="M 0,0.16 V 1122.5601 H 793.59998 V 0.16 Z"
         transform="translate(-245.75999,-636.79999)"
         clip-rule="evenodd"
         id="path10" />
    </clipPath>
    <clipPath
       clipPathUnits="userSpaceOnUse"
       id="clipPath12">
      <path
         d="M 0,0.16 V 1122.5601 H 793.59998 V 0.16 Z"
         transform="translate(-623.35998,-410.23999)"
         clip-rule="evenodd"
         id="path12" />
    </clipPath>
  </defs>
  <sodipodi:namedview
     id="namedview1"
     pagecolor="#505050"
     bordercolor="#eeeeee"
     borderopacity="1"
     inkscape:showpageshadow="0"
     inkscape:pageopacity="0"
     inkscape:pagecheckerboard="0"
     inkscape:deskcolor="#505050">
    <inkscape:page
       x="0"
       y="0"
       inkscape:label="1"
       id="page1"
       width="501.60001"
       height="481.86667"
       margin="0"
       bleed="0" />
  </sodipodi:namedview>
  <g
     id="g1"
     inkscape:groupmode="layer"
     inkscape:label="1">
    <path
       id="path1"
       d="m 0,0 c 0,-20.67 -16.76,-37.439999 -37.439999,-37.439999 -20.68,0 -37.439998,16.769999 -37.439998,37.439999 0,20.67 16.759998,37.439999 37.439998,37.439999 C -16.76,37.439999 0,20.67 0,0 Z"
       style="fill:none;stroke:#000000;stroke-width:26.4;stroke-linecap:round;stroke-linejoin:round;stroke-miterlimit:10;stroke-dasharray:none;stroke-opacity:1"
       transform="translate(623.03998,523.51996)"
       clip-path="url(#clipPath2)" />
    <path
       id="path3"
       d="M 396.79999,334.72 V 787.84003"
       style="fill:none;stroke:#000000;stroke-width:26.4;stroke-linecap:round;stroke-linejoin:round;stroke-miterlimit:10;stroke-dasharray:none;stroke-opacity:1"
       transform="translate(0,-5.8666667e-5)"
       clip-path="url(#clipPath4)" />
    <path
       id="path5"
       d="M 170.24,485.76001 H 585.59998"
       style="fill:none;stroke:#000000;stroke-width:26.4;stroke-linecap:round;stroke-linejoin:round;stroke-miterlimit:10;stroke-dasharray:none;stroke-opacity:1"
       transform="translate(0,-5.8666667e-5)"
       clip-path="url(#clipPath6)" />
    <path
       id="path7"
       d="M 245.75999,636.79999 H 623.35998"
       style="fill:none;stroke:#000000;stroke-width:26.4;stroke-linecap:round;stroke-linejoin:round;stroke-miterlimit:10;stroke-dasharray:none;stroke-opacity:1"
       transform="translate(0,-5.8666667e-5)"
       clip-path="url(#clipPath8)" />
    <path
       id="path9"
       d="m 0,0 -0.16,-3.52 -0.48,-3.36 -0.8,-3.36 -1.12,-3.36 -1.28,-3.199999 -1.76,-3.040001 -1.92,-2.879999 -2.24,-2.720002 -2.56,-2.399999 -2.56,-2.24 -2.88,-2.08 -3.039999,-1.599998 L -24,-35.200001 -27.360001,-36.32 l -3.359998,-0.799999 -3.520003,-0.479999 -3.519996,-0.16 -3.360001,0.16 -3.52,0.479999 L -48,-36.32 l -3.360001,1.119999 -3.2,1.440003 -3.039997,1.599998 -2.880002,2.08 -2.720001,2.24 -2.399997,2.399999 -2.239998,2.720002 -1.920006,2.879999 -1.759995,3.040001 -1.440002,3.199999 -1.120003,3.36 -0.799995,3.36 -0.480004,3.36 -0.159996,3.52"
       style="fill:none;stroke:#000000;stroke-width:26.4;stroke-linecap:round;stroke-linejoin:round;stroke-miterlimit:10;stroke-dasharray:none;stroke-opacity:1"
       transform="translate(245.75999,636.79993)"
       clip-path="url(#clipPath10)" />
    <path
       id="path11"
       d="m 0,0 -7.04,4.32 -6.88,4.64 -6.56,5.12 -6.239999,5.44 -6.08,5.760001 -5.600003,6.08 -5.439998,6.399997 -4.959999,6.560002 -4.48,6.880001 -4.319999,7.200001 -3.840001,7.36 -3.360004,7.519997 -3.039993,7.840004 -2.560006,7.839996 -2.080001,8 -1.759995,8.160001 -1.279999,8.16"
       style="fill:none;stroke:#000000;stroke-width:26.4;stroke-linecap:round;stroke-linejoin:round;stroke-miterlimit:10;stroke-dasharray:none;stroke-opacity:1"
       transform="translate(623.35998,410.23993)"
       clip-path="url(#clipPath12)" />
  </g>
</svg>
