<?xml version="1.0" encoding="UTF-8" standalone="no"?>
<!-- Created with Inkscape (http://www.inkscape.org/) -->

<svg
   version="1.1"
   id="svg1"
   width="580.30664"
   height="569.96002"
   viewBox="0 0 580.30664 569.96002"
   sodipodi:docname="Salmiak7.pdf"
   xmlns:inkscape="http://www.inkscape.org/namespaces/inkscape"
   xmlns:sodipodi="http://sodipodi.sourceforge.net/DTD/sodipodi-0.dtd"
   xmlns="http://www.w3.org/2000/svg"
   xmlns:svg="http://www.w3.org/2000/svg">
  <defs
     id="defs1">
    <clipPath
       clipPathUnits="userSpaceOnUse"
       id="clipPath2">
      <path
         d="M 0,0.16 V 1122.5601 H 793.59998 V 0.16 Z"
         transform="translate(-368.48001,-561.28003)"
         clip-rule="evenodd"
         id="path2" />
    </clipPath>
    <clipPath
       clipPathUnits="userSpaceOnUse"
       id="clipPath4">
      <path
         d="M 0,0.16 V 1122.5601 H 793.59998 V 0.16 Z"
         clip-rule="evenodd"
         id="path4" />
    </clipPath>
    <clipPath
       clipPathUnits="userSpaceOnUse"
       id="clipPath6">
      <path
         d="M 0,0.16 V 1122.5601 H 793.59998 V 0.16 Z"
         clip-rule="evenodd"
         id="path6" />
    </clipPath>
    <clipPath
       clipPathUnits="userSpaceOnUse"
       id="clipPath8">
      <path
         d="M 0,0.16 V 1122.5601 H 793.59998 V 0.16 Z"
         clip-rule="evenodd"
         id="path8" />
    </clipPath>
    <clipPath
       clipPathUnits="userSpaceOnUse"
       id="clipPath10">
      <path
         d="M 0,0.16 V 1122.5601 H 793.59998 V 0.16 Z"
         clip-rule="evenodd"
         id="path10" />
    </clipPath>
    <clipPath
       clipPathUnits="userSpaceOnUse"
       id="clipPath12">
      <path
         d="M 0,0.16 V 1122.5601 H 793.59998 V 0.16 Z"
         clip-rule="evenodd"
         id="path12" />
    </clipPath>
    <clipPath
       clipPathUnits="userSpaceOnUse"
       id="clipPath14">
      <path
         d="M 0,0.16 V 1122.5601 H 793.59998 V 0.16 Z"
         transform="translate(-311.84,-315.84)"
         clip-rule="evenodd"
         id="path14" />
    </clipPath>
    <clipPath
       clipPathUnits="userSpaceOnUse"
       id="clipPath16">
      <path
         d="M 0,0.16 V 1122.5601 H 793.59998 V 0.16 Z"
         transform="translate(-545.28003,-485.44)"
         clip-rule="evenodd"
         id="path16" />
    </clipPath>
    <clipPath
       clipPathUnits="userSpaceOnUse"
       id="clipPath18">
      <path
         d="M 0,0.16 V 1122.5601 H 793.59998 V 0.16 Z"
         transform="translate(-456,-759.84003)"
         clip-rule="evenodd"
         id="path18" />
    </clipPath>
    <clipPath
       clipPathUnits="userSpaceOnUse"
       id="clipPath20">
      <path
         d="M 0,0.16 V 1122.5601 H 793.59998 V 0.16 Z"
         transform="translate(-78.400002,-485.44)"
         clip-rule="evenodd"
         id="path20" />
    </clipPath>
    <clipPath
       clipPathUnits="userSpaceOnUse"
       id="clipPath22">
      <path
         d="M 0,0.16 V 1122.5601 H 793.59998 V 0.16 Z"
         transform="translate(-167.52,-759.84003)"
         clip-rule="evenodd"
         id="path22" />
    </clipPath>
  </defs>
  <sodipodi:namedview
     id="namedview1"
     pagecolor="#505050"
     bordercolor="#eeeeee"
     borderopacity="1"
     inkscape:showpageshadow="0"
     inkscape:pageopacity="0"
     inkscape:pagecheckerboard="0"
     inkscape:deskcolor="#505050">
    <inkscape:page
       x="0"
       y="0"
       inkscape:label="1"
       id="page1"
       width="580.30664"
       height="569.96002"
       margin="0"
       bleed="0" />
  </sodipodi:namedview>
  <g
     id="g1"
     inkscape:groupmode="layer"
     inkscape:label="1">
    <path
       id="path1"
       d="M 0,0 C 0,-31.280001 -25.35,-56.639999 -56.639999,-56.639999 -87.93,-56.639999 -113.28,-31.280001 -113.28,0 c 0,31.280001 25.35,56.639999 56.640001,56.639999 C -25.35,56.639999 0,31.280001 0,0 Z"
       style="fill:none;stroke:#000000;stroke-width:26.4;stroke-linecap:round;stroke-linejoin:round;stroke-miterlimit:10;stroke-dasharray:none;stroke-opacity:1"
       transform="translate(368.48001,550.59997)"
       clip-path="url(#clipPath2)" />
    <path
       id="path3"
       d="M 311.84,315.84 V 504.64001"
       style="fill:none;stroke:#000000;stroke-width:26.4;stroke-linecap:round;stroke-linejoin:round;stroke-miterlimit:10;stroke-dasharray:none;stroke-opacity:1"
       transform="translate(0,-10.680059)"
       clip-path="url(#clipPath4)" />
    <path
       id="path5"
       d="M 545.28003,485.44 368.48001,542.40002"
       style="fill:none;stroke:#000000;stroke-width:26.4;stroke-linecap:round;stroke-linejoin:round;stroke-miterlimit:10;stroke-dasharray:none;stroke-opacity:1"
       transform="translate(0,-10.680059)"
       clip-path="url(#clipPath6)" />
    <path
       id="path7"
       d="M 456.16,759.84003 344.64001,609.91998"
       style="fill:none;stroke:#000000;stroke-width:26.4;stroke-linecap:round;stroke-linejoin:round;stroke-miterlimit:10;stroke-dasharray:none;stroke-opacity:1"
       transform="translate(0,-10.680059)"
       clip-path="url(#clipPath8)" />
    <path
       id="path9"
       d="M 167.67999,759.84003 280.16,609.12"
       style="fill:none;stroke:#000000;stroke-width:26.4;stroke-linecap:round;stroke-linejoin:round;stroke-miterlimit:10;stroke-dasharray:none;stroke-opacity:1"
       transform="translate(0,-10.680059)"
       clip-path="url(#clipPath10)" />
    <path
       id="path11"
       d="M 78.559998,485.44 255.2,542.40002"
       style="fill:none;stroke:#000000;stroke-width:26.4;stroke-linecap:round;stroke-linejoin:round;stroke-miterlimit:10;stroke-dasharray:none;stroke-opacity:1"
       transform="translate(0,-10.680059)"
       clip-path="url(#clipPath12)" />
    <path
       id="path13"
       d="m 0,0 -8,-3.36 -8.16,-2.88 -8.479999,-2.4 -8.48,-2.08 -8.479999,-1.6 -8.640004,-1.12 -8.799999,-0.64 -8.639999,-0.32 -8.800003,0.32 -8.64,0.64 -8.639999,1.12 -8.639998,1.6 -8.48,2.08 -8.32,2.4 -8.16,2.88 -8,3.36 -8,3.84 -7.67999,4.16 -7.36,4.48 -7.20002,4.960001 -6.87999,5.279998 -6.72,5.760001 -6.24,5.920002 -6.08,6.399997 -5.59999,6.560002 -5.28,6.880001 -4.96001,7.199997 -4.64,7.52 -4.16,7.68 -3.68,7.840004 -3.36,8 -2.88,8.319997 -2.56,8.32 -1.92,8.48 -1.6,8.48 -1.12,8.64 -0.8,8.8 -0.16,8.64 0.16,8.80001 0.64,8.64"
       style="fill:none;stroke:#000000;stroke-width:26.4;stroke-linecap:round;stroke-linejoin:round;stroke-miterlimit:10;stroke-dasharray:none;stroke-opacity:1"
       transform="translate(311.84,305.15994)"
       clip-path="url(#clipPath14)" />
    <path
       id="path15"
       d="M 0,0 -0.64,-9.12 -1.6,-18.4 -3.2,-27.360001 -5.12,-36.48 l -2.4,-8.799999 -2.88,-8.800003 -3.2,-8.639999 -3.840001,-8.479996 -4.159999,-8.160004 -4.48,-8 -4.960001,-7.839996 L -36.32,-102.72 l -5.760002,-7.2 -6.079998,-6.88 -6.400001,-6.72 -6.719998,-6.23999 -7.040001,-6.08001 -7.199997,-5.6 -7.68,-5.12 -7.840004,-4.8 -8,-4.48 -8.319999,-4 -8.48,-3.68 -8.64,-3.2 -8.8,-2.72 -8.96,-2.23999 -8.96,-1.92002 -9.12001,-1.43998 -9.11999,-0.80001 -9.28,-0.48001 -9.28,-0.15999 -9.11999,0.48 -9.12001,0.96001 -9.12,1.43998 -9.12,1.76001 -8.96,2.23999"
       style="fill:none;stroke:#000000;stroke-width:26.4;stroke-linecap:round;stroke-linejoin:round;stroke-miterlimit:10;stroke-dasharray:none;stroke-opacity:1"
       transform="translate(545.28003,474.75994)"
       clip-path="url(#clipPath16)" />
    <path
       id="path17"
       d="m 0,0 8.8,-4 8.480001,-4.64 8.16,-4.8 7.999998,-5.439999 7.68,-5.600001 7.360001,-6.079999 7.2,-6.4 6.720002,-6.880001 6.400001,-7.040001 6.079994,-7.360001 5.600006,-7.84 5.439995,-7.839996 4.800003,-8.32 4.479996,-8.480003 4.160004,-8.64 3.519999,-8.799999 3.2,-9.12 2.72,-9.12 2.24,-9.27999 1.92,-9.44 1.28,-9.44001 0.96,-9.6 0.32,-9.59999 V -183.2 l -0.64,-9.6 -0.96,-9.59999 -1.44,-9.44001 -2.08,-9.27999 -2.4,-9.28 -2.88,-9.12001 -3.2,-9.12 -3.839998,-8.8 -4.160004,-8.48001 -4.639999,-8.47998"
       style="fill:none;stroke:#000000;stroke-width:26.4;stroke-linecap:round;stroke-linejoin:round;stroke-miterlimit:10;stroke-dasharray:none;stroke-opacity:1"
       transform="translate(456,749.15997)"
       clip-path="url(#clipPath18)" />
    <path
       id="path19"
       d="m 0,0 -4.96,7.52 -4.64,7.84 -4.32,7.840001 -3.84,8.319999 -3.520001,8.32 -2.879999,8.48 -2.719999,8.639999 -2.08,8.800003 -1.76,8.959999 L -31.84,83.68 l -0.799999,8.959999 -0.48,9.120001 0.16,8.96 0.639999,9.12 0.959999,8.96 1.440001,8.95999 1.92,8.80001 2.4,8.8 2.720001,8.48 3.359999,8.48001 3.52,8.31999 4.16,8.16 4.48,7.84 4.8,7.52 5.28,7.51999 5.6,7.04001 5.92,6.88001 6.24,6.39999 6.560001,6.24 6.879997,5.92 7.200001,5.44001 7.52,5.11999 7.680001,4.79999 8,4.32001 8.160003,4 8.32,3.51999 8.32,3.04"
       style="fill:none;stroke:#000000;stroke-width:26.4;stroke-linecap:round;stroke-linejoin:round;stroke-miterlimit:10;stroke-dasharray:none;stroke-opacity:1"
       transform="translate(78.400002,474.75994)"
       clip-path="url(#clipPath20)" />
    <path
       id="path21"
       d="m 0,0 6.4,6.88 6.72,6.56 6.88,6.24 7.200001,5.92 7.52,5.600001 7.84,5.119999 8,4.799999 8.16,4.479999 8.479996,3.840001 8.639999,3.68 8.800003,3.040001 8.959999,2.720001 9.120002,2.239998 9.12,1.920002 9.28,1.279999 9.27999,0.959999 9.28,0.480003 h 9.44 l 9.28,-0.480003 9.28,-0.959999 9.28002,-1.279999 9.11999,-1.920002 9.12,-2.239998 8.8,-2.720001 8.8,-3.040001 8.64,-3.68 8.48,-3.840001 8.32,-4.479999 8,-4.799999 7.84,-5.119999 7.52001,-5.600001 7.19998,-5.92 6.88,-6.24 6.72,-6.56 6.08002,-6.88"
       style="fill:none;stroke:#000000;stroke-width:26.4;stroke-linecap:round;stroke-linejoin:round;stroke-miterlimit:10;stroke-dasharray:none;stroke-opacity:1"
       transform="translate(167.52,749.15997)"
       clip-path="url(#clipPath22)" />
  </g>
</svg>
