<?xml version="1.0" encoding="UTF-8" standalone="no"?>
<!-- Created with Inkscape (http://www.inkscape.org/) -->

<svg
   version="1.1"
   id="svg1"
   width="398.88"
   height="409.78668"
   viewBox="0 0 398.88 409.78668"
   sodipodi:docname="Salmiak2.pdf"
   xmlns:inkscape="http://www.inkscape.org/namespaces/inkscape"
   xmlns:sodipodi="http://sodipodi.sourceforge.net/DTD/sodipodi-0.dtd"
   xmlns="http://www.w3.org/2000/svg"
   xmlns:svg="http://www.w3.org/2000/svg">
  <defs
     id="defs1">
    <clipPath
       clipPathUnits="userSpaceOnUse"
       id="clipPath2">
      <path
         d="M 0,0.16 V 1122.5601 H 793.59998 V 0.16 Z"
         clip-rule="evenodd"
         id="path2" />
    </clipPath>
    <clipPath
       clipPathUnits="userSpaceOnUse"
       id="clipPath4">
      <path
         d="M 0,0.16 V 1122.5601 H 793.59998 V 0.16 Z"
         clip-rule="evenodd"
         id="path4" />
    </clipPath>
    <clipPath
       clipPathUnits="userSpaceOnUse"
       id="clipPath6">
      <path
         d="M 0,0.16 V 1122.5601 H 793.59998 V 0.16 Z"
         clip-rule="evenodd"
         id="path6" />
    </clipPath>
    <clipPath
       clipPathUnits="userSpaceOnUse"
       id="clipPath8">
      <path
         d="M 0,0.16 V 1122.5601 H 793.59998 V 0.16 Z"
         clip-rule="evenodd"
         id="path8" />
    </clipPath>
    <clipPath
       clipPathUnits="userSpaceOnUse"
       id="clipPath10">
      <path
         d="M 0,0.16 V 1122.5601 H 793.59998 V 0.16 Z"
         transform="translate(-312.95999,-504.16001)"
         clip-rule="evenodd"
         id="path10" />
    </clipPath>
    <clipPath
       clipPathUnits="userSpaceOnUse"
       id="clipPath12">
      <path
         d="M 0,0.16 V 1122.5601 H 793.59998 V 0.16 Z"
         transform="translate(-539.52002,-504.16001)"
         clip-rule="evenodd"
         id="path12" />
    </clipPath>
    <clipPath
       clipPathUnits="userSpaceOnUse"
       id="clipPath14">
      <path
         d="M 0,0.16 V 1122.5601 H 793.59998 V 0.16 Z"
         transform="translate(-312.95999,-617.44)"
         clip-rule="evenodd"
         id="path14" />
    </clipPath>
    <clipPath
       clipPathUnits="userSpaceOnUse"
       id="clipPath16">
      <path
         d="M 0,0.16 V 1122.5601 H 793.59998 V 0.16 Z"
         transform="translate(-539.52002,-617.44)"
         clip-rule="evenodd"
         id="path16" />
    </clipPath>
    <clipPath
       clipPathUnits="userSpaceOnUse"
       id="clipPath18">
      <path
         d="M 0,0.16 V 1122.5601 H 793.59998 V 0.16 Z"
         transform="translate(-264.95999,-731.03998)"
         clip-rule="evenodd"
         id="path18" />
    </clipPath>
    <clipPath
       clipPathUnits="userSpaceOnUse"
       id="clipPath20">
      <path
         d="M 0,0.16 V 1122.5601 H 793.59998 V 0.16 Z"
         transform="translate(-585.44,-731.67999)"
         clip-rule="evenodd"
         id="path20" />
    </clipPath>
    <clipPath
       clipPathUnits="userSpaceOnUse"
       id="clipPath22">
      <path
         d="M 0,0.16 V 1122.5601 H 793.59998 V 0.16 Z"
         transform="translate(-426.23999,-390.88001)"
         clip-rule="evenodd"
         id="path22" />
    </clipPath>
    <clipPath
       clipPathUnits="userSpaceOnUse"
       id="clipPath24">
      <path
         d="M 0,0.16 V 1122.5601 H 793.59998 V 0.16 Z"
         clip-rule="evenodd"
         id="path24" />
    </clipPath>
  </defs>
  <sodipodi:namedview
     id="namedview1"
     pagecolor="#505050"
     bordercolor="#eeeeee"
     borderopacity="1"
     inkscape:showpageshadow="0"
     inkscape:pageopacity="0"
     inkscape:pagecheckerboard="0"
     inkscape:deskcolor="#505050">
    <inkscape:page
       x="0"
       y="0"
       inkscape:label="1"
       id="page1"
       width="398.88"
       height="409.78668"
       margin="0"
       bleed="0" />
  </sodipodi:namedview>
  <g
     id="g1"
     inkscape:groupmode="layer"
     inkscape:label="1">
    <path
       id="path1"
       d="m 500.64001,617.44 h -205.44"
       style="fill:none;stroke:#000000;stroke-width:26.4;stroke-linecap:round;stroke-linejoin:round;stroke-miterlimit:10;stroke-dasharray:none;stroke-opacity:1"
       transform="translate(0,-5.8666667e-5)"
       clip-path="url(#clipPath2)" />
    <path
       id="path3"
       d="M 397.92001,390.88 V 730.71997"
       style="fill:none;stroke:#000000;stroke-width:26.4;stroke-linecap:round;stroke-linejoin:round;stroke-miterlimit:10;stroke-dasharray:none;stroke-opacity:1"
       transform="translate(0,-5.8666667e-5)"
       clip-path="url(#clipPath4)" />
    <path
       id="path5"
       d="M 246.88,730.71997 H 548.96002"
       style="fill:none;stroke:#000000;stroke-width:26.4;stroke-linecap:round;stroke-linejoin:round;stroke-miterlimit:10;stroke-dasharray:none;stroke-opacity:1"
       transform="translate(0,-5.8666667e-5)"
       clip-path="url(#clipPath6)" />
    <path
       id="path7"
       d="m 500.64001,504.16 h -205.44"
       style="fill:none;stroke:#000000;stroke-width:26.4;stroke-linecap:round;stroke-linejoin:round;stroke-miterlimit:10;stroke-dasharray:none;stroke-opacity:1"
       transform="translate(0,-5.8666667e-5)"
       clip-path="url(#clipPath8)" />
    <path
       id="path9"
       d="m 0,0 -0.16,-2.88 -0.48,-3.04 -0.8,-2.88 -0.96,-2.72 -1.44,-2.56 -1.6,-2.559999 -1.92,-2.24 -2.08,-2.08 -2.24,-1.92 L -14.24,-24.48 -16.799999,-25.92 -19.52,-26.879999 -22.4,-27.68 l -3.040001,-0.48 -2.879999,-0.16 -3.040001,0.16 -2.880001,0.48 -2.879997,0.800001 L -39.84,-25.92 l -2.720001,1.44 -2.399998,1.600001 -2.240002,1.92 -2.239998,2.08 -1.760002,2.24 -1.599998,2.559999 -1.440003,2.56 -0.959999,2.72 L -56,-5.92 -56.48,-2.88 -56.639999,0 -56.48,3.04 -56,5.92 l 0.799999,2.88 0.959999,2.72 1.440003,2.72 1.599998,2.399999 1.760002,2.400002 2.239998,2.08 2.240002,1.759998 2.399998,1.600001 2.720001,1.44 2.720001,0.959999 2.879997,0.800001 2.880001,0.48 3.040001,0.16 2.879999,-0.16 L -22.4,27.68 -19.52,26.879999 -16.799999,25.92 -14.24,24.48 l 2.56,-1.600001 2.24,-1.759998 2.08,-2.08 1.92,-2.400002 L -3.84,14.24 -2.4,11.52 -1.44,8.8 -0.64,5.92 -0.16,3.04 0,0 v 0 z"
       style="fill:#000000;fill-opacity:1;fill-rule:evenodd;stroke:none"
       transform="translate(312.95999,504.15995)"
       clip-path="url(#clipPath10)" />
    <path
       id="path11"
       d="m 0,0 -0.16,-2.88 -0.48,-3.04 -0.8,-2.88 -0.96,-2.72 -1.44,-2.56 -1.6,-2.559999 -1.92,-2.24 -2.08,-2.08 -2.24,-1.92 L -14.24,-24.48 -16.799999,-25.92 -19.52,-26.879999 -22.4,-27.68 l -3.040001,-0.48 -2.879999,-0.16 -3.040001,0.16 -2.880001,0.48 -2.879997,0.800001 L -39.84,-25.92 l -2.720001,1.44 -2.399998,1.600001 -2.400002,1.92 -2.079998,2.08 -1.760002,2.24 -1.599998,2.559999 -1.440003,2.56 -0.959999,2.72 L -56,-5.92 -56.48,-2.88 -56.639999,0 -56.48,3.04 -56,5.92 l 0.799999,2.88 0.959999,2.72 1.440003,2.72 1.599998,2.399999 1.760002,2.400002 2.079998,2.08 2.400002,1.759998 2.399998,1.600001 2.720001,1.44 2.720001,0.959999 2.879997,0.800001 2.880001,0.48 3.040001,0.16 2.879999,-0.16 L -22.4,27.68 -19.52,26.879999 -16.799999,25.92 -14.24,24.48 l 2.56,-1.600001 2.24,-1.759998 2.08,-2.08 1.92,-2.400002 L -3.84,14.24 -2.4,11.52 -1.44,8.8 -0.64,5.92 -0.16,3.04 0,0 v 0 z"
       style="fill:#000000;fill-opacity:1;fill-rule:evenodd;stroke:none"
       transform="translate(539.52002,504.15995)"
       clip-path="url(#clipPath12)" />
    <path
       id="path13"
       d="m 0,0 -0.16,-2.88 -0.48,-3.04 -0.8,-2.88 -0.96,-2.72 -1.44,-2.56 -1.6,-2.559999 -1.92,-2.24 -2.08,-2.08 -2.24,-1.92 L -14.24,-24.48 -16.799999,-25.92 -19.52,-26.879999 -22.4,-27.68 l -3.040001,-0.48 -2.879999,-0.16 -3.040001,0.16 -2.880001,0.48 -2.879997,0.800001 L -39.84,-25.92 l -2.720001,1.44 -2.399998,1.600001 -2.240002,1.92 -2.239998,2.08 -1.760002,2.24 -1.599998,2.559999 -1.440003,2.56 -0.959999,2.72 L -56,-5.92 -56.48,-2.88 -56.639999,0 -56.48,3.04 -56,5.92 l 0.799999,2.88 0.959999,2.72 1.440003,2.72 1.599998,2.399999 1.760002,2.24 2.239998,2.240002 2.240002,1.759998 2.399998,1.600001 2.720001,1.44 2.720001,0.959999 2.879997,0.800001 2.880001,0.48 3.040001,0.16 2.879999,-0.16 L -22.4,27.68 -19.52,26.879999 -16.799999,25.92 -14.24,24.48 l 2.56,-1.600001 2.24,-1.759998 2.08,-2.240002 1.92,-2.24 L -3.84,14.24 -2.4,11.52 -1.44,8.8 -0.64,5.92 -0.16,3.04 0,0 v 0 z"
       style="fill:#000000;fill-opacity:1;fill-rule:evenodd;stroke:none"
       transform="translate(312.95999,617.43994)"
       clip-path="url(#clipPath14)" />
    <path
       id="path15"
       d="m 0,0 -0.16,-2.88 -0.48,-3.04 -0.8,-2.88 -0.96,-2.72 -1.44,-2.56 -1.6,-2.559999 -1.92,-2.24 -2.08,-2.08 -2.24,-1.92 L -14.24,-24.48 -16.799999,-25.92 -19.52,-26.879999 -22.4,-27.68 l -3.040001,-0.48 -2.879999,-0.16 -3.040001,0.16 -2.880001,0.48 -2.879997,0.800001 L -39.84,-25.92 l -2.720001,1.44 -2.399998,1.600001 -2.400002,1.92 -2.079998,2.08 -1.760002,2.24 -1.599998,2.559999 -1.440003,2.56 -0.959999,2.72 L -56,-5.92 -56.48,-2.88 -56.639999,0 -56.48,3.04 -56,5.92 l 0.799999,2.88 0.959999,2.72 1.440003,2.72 1.599998,2.399999 1.760002,2.24 2.079998,2.240002 2.400002,1.759998 2.399998,1.600001 2.720001,1.44 2.720001,0.959999 2.879997,0.800001 2.880001,0.48 3.040001,0.16 2.879999,-0.16 L -22.4,27.68 -19.52,26.879999 -16.799999,25.92 -14.24,24.48 l 2.56,-1.600001 2.24,-1.759998 2.08,-2.240002 1.92,-2.24 L -3.84,14.24 -2.4,11.52 -1.44,8.8 -0.64,5.92 -0.16,3.04 0,0 v 0 z"
       style="fill:#000000;fill-opacity:1;fill-rule:evenodd;stroke:none"
       transform="translate(539.52002,617.43994)"
       clip-path="url(#clipPath16)" />
    <path
       id="path17"
       d="m 0,0 -0.16,-3.04 -0.48,-2.88 -0.8,-2.88 -1.12,-2.72 -1.28,-2.72 -1.6,-2.399999 -1.92,-2.400002 -2.08,-2.08 -2.24,-1.92 -2.56,-1.599998 L -16.799999,-25.92 -19.68,-27.040001 -22.559999,-27.68 l -2.880002,-0.48 -2.879999,-0.16 -3.040001,0.16 -2.880001,0.48 -2.879997,0.639999 L -39.84,-25.92 l -2.720001,1.280001 -2.399998,1.599998 -2.400002,1.92 -2.079998,2.08 -1.760002,2.400002 -1.759998,2.399999 -1.280003,2.72 -1.119999,2.72 L -56,-5.92 -56.48,-3.04 -56.639999,0 -56.48,2.88 -56,5.76 l 0.639999,2.88 1.119999,2.88 1.280003,2.56 1.759998,2.559999 1.760002,2.24 2.079998,2.08 2.400002,1.92 2.399998,1.600001 2.720001,1.28 2.720001,1.119999 2.879997,0.800001 2.880001,0.48 3.040001,0.16 2.879999,-0.16 2.880002,-0.48 L -19.68,26.879999 -16.799999,25.76 -14.24,24.48 l 2.56,-1.600001 2.24,-1.92 2.08,-2.08 1.92,-2.24 L -3.84,14.08 -2.56,11.52 -1.44,8.64 -0.64,5.76 -0.16,2.88 0,0 v 0 z"
       style="fill:#000000;fill-opacity:1;fill-rule:evenodd;stroke:none"
       transform="translate(264.95999,731.03992)"
       clip-path="url(#clipPath18)" />
    <path
       id="path19"
       d="m 0,0 -0.16,-3.04 -0.48,-2.88 -0.64,-2.88 -1.12,-2.72 -1.44,-2.72 -1.6,-2.399999 -1.76,-2.24 -2.08,-2.240002 -2.4,-1.759998 -2.4,-1.600001 -2.719999,-1.44 L -19.52,-26.879999 -22.4,-27.68 l -2.880001,-0.48 -3.039999,-0.16 -2.880001,0.16 -3.040001,0.48 -2.879997,0.800001 L -39.84,-25.92 l -2.560002,1.44 -2.559997,1.600001 -2.240002,1.759998 -2.079998,2.240002 -1.920002,2.24 -1.599998,2.399999 -1.440003,2.72 -0.959999,2.72 L -56,-5.92 -56.48,-3.04 -56.639999,0 -56.48,2.88 -56,5.92 l 0.799999,2.88 0.959999,2.72 1.440003,2.56 1.599998,2.559999 1.920002,2.24 2.079998,2.240002 2.240002,1.759998 2.559997,1.600001 2.560002,1.44 2.720001,0.959999 2.879997,0.800001 3.040001,0.48 2.880001,0.16 3.039999,-0.16 L -22.4,27.68 -19.52,26.879999 -16.799999,25.92 -14.08,24.48 l 2.4,-1.600001 2.4,-1.759998 2.08,-2.240002 1.76,-2.24 L -3.84,14.08 -2.4,11.52 -1.28,8.8 -0.64,5.92 -0.16,2.88 0,0 v 0 z"
       style="fill:#000000;fill-opacity:1;fill-rule:evenodd;stroke:none"
       transform="translate(585.44,731.67993)"
       clip-path="url(#clipPath20)" />
    <path
       id="path21"
       d="m 0,0 -0.16,-2.88 -0.48,-3.04 -0.8,-2.88 -0.96,-2.72 -1.44,-2.56 -1.6,-2.559999 -1.92,-2.24 -2.08,-2.08 -2.24,-1.92 L -14.24,-24.48 -16.799999,-25.92 -19.52,-26.879999 -22.4,-27.68 l -3.040001,-0.48 -2.879999,-0.16 -3.040001,0.16 -2.880001,0.48 -2.879997,0.800001 L -39.84,-25.92 l -2.720001,1.44 -2.399998,1.600001 -2.400002,1.92 -2.079998,2.08 -1.760002,2.24 -1.599998,2.559999 -1.440003,2.56 -0.959999,2.72 L -56,-5.92 -56.48,-2.88 -56.639999,0 -56.48,3.04 -56,5.92 l 0.799999,2.88 0.959999,2.72 1.440003,2.72 1.599998,2.399999 1.760002,2.400002 2.079998,2.08 2.400002,1.759998 2.399998,1.600001 2.720001,1.44 2.720001,0.959999 2.879997,0.800001 2.880001,0.48 3.040001,0.16 2.879999,-0.16 L -22.4,27.68 -19.52,26.879999 -16.799999,25.92 -14.24,24.48 l 2.56,-1.600001 2.24,-1.759998 2.08,-2.08 1.92,-2.400002 L -3.84,14.24 -2.4,11.52 -1.44,8.8 -0.64,5.92 -0.16,3.04 0,0 v 0 z"
       style="fill:#000000;fill-opacity:1;fill-rule:evenodd;stroke:none"
       transform="translate(426.23999,390.87995)"
       clip-path="url(#clipPath22)" />
    <path
       id="path23"
       d="m 312.95999,504.16 -0.16,-2.88 -0.47998,-3.04001 -0.80002,-2.88 -0.95999,-2.71998 -1.44,-2.56002 -1.60001,-2.56 -1.91998,-2.23999 -2.08002,-2.07999 -2.23999,-1.92001 -2.56,-1.60001 -2.56,-1.44 -2.72,-0.95999 -2.88,-0.79999 -3.04001,-0.48001 -2.87998,-0.16 -3.04,0.16 -2.88001,0.48001 -2.88,0.79999 -2.72,0.95999 -2.72001,1.44 L 268,481.28 l -2.23999,1.92001 -2.24002,2.07999 -1.75998,2.23999 -1.60001,2.56 -1.44,2.56002 -0.95999,2.71998 -0.80002,2.88 -0.47998,3.04001 -0.16,2.88 0.16,3.04001 0.47998,2.87998 0.80002,2.88003 0.95999,2.71997 1.44,2.72003 1.60001,2.39997 1.75998,2.40002 2.24002,2.08002 2.23999,1.75995 2.39999,1.60003 2.72001,1.44001 2.72,0.95996 2.88,0.80005 2.88001,0.47998 3.04,0.15997 2.87998,-0.15997 3.04001,-0.47998 2.88,-0.80005 2.72,-0.95996 2.56,-1.44001 2.56,-1.60003 2.23999,-1.75995 2.08002,-2.08002 1.91998,-2.40002 1.60001,-2.39997 1.44,-2.72003 0.95999,-2.71997 0.80002,-2.88003 0.47998,-2.87998 0.16,-3.04001 m 226.56003,0 -0.16004,-2.88 -0.47998,-3.04001 -0.79998,-2.88 -0.96002,-2.71998 -1.44001,-2.56002 -1.59997,-2.56 -1.92005,-2.23999 -2.07995,-2.07999 -2.23999,-1.92001 -2.56,-1.60001 -2.56006,-1.44 L 520,477.28 517.12,476.48001 514.08002,476 511.20001,475.84 508.16,476 l -2.88,0.48001 -2.88001,0.79999 -2.72,0.95999 -2.72,1.44 -2.39999,1.60001 -2.4,1.92001 -2.08001,2.07999 -1.75998,2.23999 -1.60001,2.56 -1.44,2.56002 -0.95999,2.71998 -0.80002,2.88 -0.47998,3.04001 -0.16001,2.88 0.16001,3.04001 0.47998,2.87998 0.80002,2.88003 0.95999,2.71997 1.44,2.72003 1.60001,2.39997 1.75998,2.40002 2.08001,2.08002 2.4,1.75995 2.39999,1.60003 2.72,1.44001 2.72,0.95996 2.88001,0.80005 2.88,0.47998 3.04001,0.15997 2.88001,-0.15997 3.03998,-0.47998 2.88,-0.80005 2.71997,-0.95996 2.56006,-1.44001 2.56,-1.60003 2.23999,-1.75995 2.07995,-2.08002 1.92005,-2.40002 1.59997,-2.39997 1.44001,-2.72003 0.96002,-2.71997 0.79998,-2.88003 0.47998,-2.87998 0.16004,-3.04001 m -226.56003,113.28 -0.16,-2.88 -0.47998,-3.03998 -0.80002,-2.88001 -0.95999,-2.72003 -1.44,-2.56 -1.60001,-2.55999 -1.91998,-2.23999 -2.08002,-2.08002 -2.23999,-1.91998 -2.56,-1.59998 -2.56,-1.44 -2.72,-0.96002 -2.88,-0.79999 -3.04001,-0.47998 -2.87998,-0.16003 -3.04,0.16003 -2.88001,0.47998 -2.88,0.79999 -2.72,0.96002 -2.72001,1.44 L 268,594.56 l -2.23999,1.91998 -2.24002,2.08002 -1.75998,2.23999 -1.60001,2.55999 -1.44,2.56 -0.95999,2.72003 -0.80002,2.88001 -0.47998,3.03998 -0.16,2.88 0.16,3.03998 0.47998,2.88 0.80002,2.88001 0.95999,2.72003 1.44,2.71997 1.60001,2.40003 1.75998,2.23999 2.24002,2.23999 2.23999,1.76001 2.39999,1.59997 2.72001,1.44 2.72,0.96003 2.88,0.79999 2.88001,0.47998 3.04,0.16003 2.87998,-0.16003 3.04001,-0.47998 2.88,-0.79999 2.72,-0.96003 2.56,-1.44 2.56,-1.59997 2.23999,-1.76001 2.08002,-2.23999 1.91998,-2.23999 1.60001,-2.40003 1.44,-2.71997 0.95999,-2.72003 0.80002,-2.88001 0.47998,-2.88 0.16,-3.03998 m 226.56003,0 -0.16004,-2.88 -0.47998,-3.03998 -0.79998,-2.88001 -0.96002,-2.72003 -1.44001,-2.56 -1.59997,-2.55999 -1.92005,-2.23999 -2.07995,-2.08002 -2.23999,-1.91998 -2.56,-1.59998 -2.56006,-1.44 L 520,590.56 l -2.88,-0.79999 -3.03998,-0.47998 -2.88001,-0.16003 -3.04001,0.16003 -2.88,0.47998 -2.88001,0.79999 -2.72,0.96002 -2.72,1.44 -2.39999,1.59998 -2.4,1.91998 -2.08001,2.08002 -1.75998,2.23999 -1.60001,2.55999 -1.44,2.56 -0.95999,2.72003 -0.80002,2.88001 -0.47998,3.03998 -0.16001,2.88 0.16001,3.03998 0.47998,2.88 0.80002,2.88001 0.95999,2.72003 1.44,2.71997 1.60001,2.40003 1.75998,2.23999 2.08001,2.23999 2.4,1.76001 2.39999,1.59997 2.72,1.44 2.72,0.96003 2.88001,0.79999 2.88,0.47998 3.04001,0.16003 2.88001,-0.16003 3.03998,-0.47998 2.88,-0.79999 2.71997,-0.96003 2.56006,-1.44 2.56,-1.59997 2.23999,-1.76001 2.07995,-2.23999 1.92005,-2.23999 1.59997,-2.40003 1.44001,-2.71997 0.96002,-2.72003 0.79998,-2.88001 0.47998,-2.88 0.16004,-3.03998 m -274.56003,113.59998 -0.16,-3.03998 -0.47998,-2.88 -0.80002,-2.88001 -1.12,-2.71997 -1.27999,-2.72003 -1.60001,-2.39997 L 257.60001,712 255.52,709.91998 253.28,708 250.72,706.40002 248.16,705.12 245.28,704 242.39999,703.35998 239.52,702.88 236.64,702.71997 233.60001,702.88 230.72,703.35998 227.84,704 l -2.72001,1.12 -2.72,1.28002 L 220,708 217.60001,709.91998 215.52,712 l -1.76001,2.40002 -1.75999,2.39997 -1.28,2.72003 -1.11999,2.71997 -0.64,2.88001 -0.48001,2.88 -0.15999,3.03998 0.15999,2.88 0.48001,2.88001 0.64,2.88 1.11999,2.88001 1.28,2.56 1.75999,2.55999 1.76001,2.23999 2.08001,2.08002 2.39999,1.91998 2.39999,1.60004 2.72,1.27997 2.72001,1.11999 2.88,0.79999 2.88001,0.48004 3.03999,0.15997 2.88,-0.15997 2.87999,-0.48004 2.88001,-0.79999 2.88,-1.11999 2.56,-1.27997 2.56,-1.60004 2.24,-1.91998 2.08001,-2.08002 1.91998,-2.23999 1.60001,-2.55999 1.27999,-2.56 1.12,-2.88001 0.80002,-2.88 0.47998,-2.88001 0.16,-2.88 m 320.48001,0.64001 -0.15997,-3.03998 -0.48004,-2.88 -0.64002,-2.88001 -1.11999,-2.72003 -1.44,-2.71997 -1.59998,-2.40002 -1.76001,-2.23999 -2.08002,-2.23999 -2.39996,-1.76001 -2.40003,-1.59998 -2.71997,-1.44 -2.72003,-0.96002 -2.88,-0.79999 -2.88001,-0.47998 -3.03997,-0.16004 -2.88001,0.16004 -3.03998,0.47998 -2.88,0.79999 -2.72003,0.96002 -2.56,1.44 -2.56,1.59998 -2.23999,1.76001 -2.08002,2.23999 -1.91998,2.23999 -1.59998,2.40002 -1.44,2.71997 -0.96002,2.72003 -0.79999,2.88001 -0.47998,2.88 -0.16003,3.03998 0.16003,2.88001 0.47998,3.03998 0.79999,2.88 0.96002,2.72003 1.44,2.56 1.59998,2.56 1.91998,2.23999 2.08002,2.23999 2.23999,1.76001 2.56,1.59997 2.56,1.44001 2.72003,0.96002 2.88,0.79998 3.03998,0.48005 L 557.12,760 l 3.03997,-0.15997 2.88001,-0.48005 2.88,-0.79998 2.72003,-0.96002 2.71997,-1.44001 2.40003,-1.59997 2.39996,-1.76001 2.08002,-2.23999 1.76001,-2.23999 1.59998,-2.56 1.44,-2.56 1.11999,-2.72003 0.64002,-2.88 0.48004,-3.03998 0.15997,-2.88001 M 426.23999,390.88 l -0.16,-2.88 -0.47998,-3.04001 -0.80002,-2.88 -0.95999,-2.72 -1.44001,-2.56 -1.6,-2.56 L 418.88,372 416.79999,369.92001 414.56,368 412,366.39999 l -2.56,-1.44 -2.72,-0.95999 -2.88,-0.79999 -3.04001,-0.48001 -2.87998,-0.16 -3.04001,0.16 -2.88,0.48001 -2.88,0.79999 -2.72001,0.95999 -2.72,1.44 L 381.28,368 l -2.4,1.92001 -2.08001,2.07999 -1.75998,2.23999 -1.60001,2.56 -1.44,2.56 -0.95999,2.72 -0.80002,2.88 -0.47998,3.04001 -0.16,2.88 0.16,3.04001 0.47998,2.87998 0.80002,2.88 0.95999,2.72 1.44,2.72001 1.60001,2.39999 1.75998,2.40002 L 378.88,412 l 2.4,1.76001 2.39999,1.59998 2.72,1.44 2.72001,0.96002 2.88,0.79999 2.88,0.48001 3.04001,0.16 2.87998,-0.16 3.04001,-0.48001 2.88,-0.79999 2.72,-0.96002 2.56,-1.44 2.56,-1.59998 2.23999,-1.76001 2.08001,-2.07999 1.91999,-2.40002 1.6,-2.39999 1.44001,-2.72001 0.95999,-2.72 0.80002,-2.88 0.47998,-2.87998 0.16,-3.04001"
       style="fill:none;stroke:#000000;stroke-width:0.48;stroke-linecap:round;stroke-linejoin:round;stroke-miterlimit:10;stroke-dasharray:none;stroke-opacity:1"
       transform="translate(0,-5.8666667e-5)"
       clip-path="url(#clipPath24)" />
  </g>
</svg>
