<?xml version="1.0" encoding="UTF-8" standalone="no"?>
<!-- Created with Inkscape (http://www.inkscape.org/) -->

<svg
   version="1.1"
   id="svg1"
   width="354.85333"
   height="493.86667"
   viewBox="0 0 354.85333 493.86667"
   sodipodi:docname="Salmiak28.pdf"
   xmlns:inkscape="http://www.inkscape.org/namespaces/inkscape"
   xmlns:sodipodi="http://sodipodi.sourceforge.net/DTD/sodipodi-0.dtd"
   xmlns="http://www.w3.org/2000/svg"
   xmlns:svg="http://www.w3.org/2000/svg">
  <defs
     id="defs1">
    <clipPath
       clipPathUnits="userSpaceOnUse"
       id="clipPath2">
      <path
         d="M 0,0.16 V 1122.5601 H 793.59998 V 0.16 Z"
         transform="translate(-396.79999,-561.28003)"
         clip-rule="evenodd"
         id="path2" />
    </clipPath>
    <clipPath
       clipPathUnits="userSpaceOnUse"
       id="clipPath4">
      <path
         d="M 0,0.16 V 1122.5601 H 793.59998 V 0.16 Z"
         transform="translate(-547.84003,-561.28003)"
         clip-rule="evenodd"
         id="path4" />
    </clipPath>
    <clipPath
       clipPathUnits="userSpaceOnUse"
       id="clipPath6">
      <path
         d="M 0,0.16 V 1122.5601 H 793.59998 V 0.16 Z"
         transform="translate(-396.79999,-334.72)"
         clip-rule="evenodd"
         id="path6" />
    </clipPath>
    <clipPath
       clipPathUnits="userSpaceOnUse"
       id="clipPath8">
      <path
         d="M 0,0.16 V 1122.5601 H 793.59998 V 0.16 Z"
         transform="translate(-396.79999,-787.84003)"
         clip-rule="evenodd"
         id="path8" />
    </clipPath>
  </defs>
  <sodipodi:namedview
     id="namedview1"
     pagecolor="#505050"
     bordercolor="#eeeeee"
     borderopacity="1"
     inkscape:showpageshadow="0"
     inkscape:pageopacity="0"
     inkscape:pagecheckerboard="0"
     inkscape:deskcolor="#505050">
    <inkscape:page
       x="0"
       y="0"
       inkscape:label="1"
       id="page1"
       width="354.85333"
       height="493.86667"
       margin="0"
       bleed="0" />
  </sodipodi:namedview>
  <g
     id="g1"
     inkscape:groupmode="layer"
     inkscape:label="1">
    <path
       id="path1"
       d="m 0,0 c 0,-41.700001 -33.810001,-75.519997 -75.519997,-75.519997 -41.710003,0 -75.519993,33.819996 -75.519993,75.519997 0,41.700001 33.80999,75.519997 75.519993,75.519997 C -33.810001,75.519997 0,41.700001 0,0 Z"
       style="fill:none;stroke:#000000;stroke-width:26.4;stroke-linecap:round;stroke-linejoin:round;stroke-miterlimit:10;stroke-dasharray:none;stroke-opacity:1"
       transform="translate(178.01332,248.9333)"
       clip-path="url(#clipPath2)" />
    <path
       id="path3"
       d="m 0,0 c 0,-41.700001 -33.810001,-75.519997 -75.519997,-75.519997 -41.710003,0 -75.519993,33.819996 -75.519993,75.519997 0,41.700001 33.80999,75.519997 75.519993,75.519997 C -33.810001,75.519997 0,41.700001 0,0 Z"
       style="fill:none;stroke:#000000;stroke-width:26.4;stroke-linecap:round;stroke-linejoin:round;stroke-miterlimit:10;stroke-dasharray:none;stroke-opacity:1"
       transform="translate(329.05336,248.9333)"
       clip-path="url(#clipPath4)" />
    <path
       id="path5"
       d="m 0,0 -10.4,6.4 -10.399999,6.72 -9.92,7.04 -9.760001,7.52 -9.279998,8 -9.120003,8.16 -8.639996,8.64 L -76,61.599998 l -8,9.279999 -7.519997,9.600006 -7.200004,9.919999 L -105.6,100.64 l -6.4,10.4 -5.92,10.72 -5.44,11.04 -5.12,11.2 -4.63999,11.36 -4.16001,11.52 -3.68001,11.68 -3.19999,11.83999 -2.72,12 -2.4,12 -1.75999,12.16001"
       style="fill:none;stroke:#000000;stroke-width:26.4;stroke-linecap:round;stroke-linejoin:round;stroke-miterlimit:10;stroke-dasharray:none;stroke-opacity:1"
       transform="translate(178.01332,22.373276)"
       clip-path="url(#clipPath6)" />
    <path
       id="path7"
       d="M 0,0 9.28,-2.56 18.559999,-5.6 27.52,-8.96 l 8.8,-3.84 8.639999,-4.320001 8.48,-4.639999 8.159999,-5.119999 L 69.440002,-32.32 77.120003,-38.080002 84.639999,-44.32 91.68,-50.880001 98.400002,-57.759998 104.8,-64.800003 110.88,-72.32 l 5.76,-7.840004 5.28,-8 4.96,-8.159996 4.64,-8.48 4.15999,-8.8 3.68001,-8.8 3.36,-9.12 2.88001,-9.12 2.39999,-9.28 1.92,-9.44 1.6,-9.60001 1.12,-9.59999 0.47999,-9.6 0.16001,-9.59999 -0.16001,-9.60001 -0.79998,-9.60001 -1.28002,-9.59999"
       style="fill:none;stroke:#000000;stroke-width:26.4;stroke-linecap:round;stroke-linejoin:round;stroke-miterlimit:10;stroke-dasharray:none;stroke-opacity:1"
       transform="translate(178.01332,475.4933)"
       clip-path="url(#clipPath8)" />
  </g>
</svg>
