<?xml version="1.0" encoding="UTF-8" standalone="no"?>
<!-- Created with Inkscape (http://www.inkscape.org/) -->

<svg
   version="1.1"
   id="svg1"
   width="296.16"
   height="383.09332"
   viewBox="0 0 296.16 383.09332"
   sodipodi:docname="SalSedativus.pdf"
   xmlns:inkscape="http://www.inkscape.org/namespaces/inkscape"
   xmlns:sodipodi="http://sodipodi.sourceforge.net/DTD/sodipodi-0.dtd"
   xmlns="http://www.w3.org/2000/svg"
   xmlns:svg="http://www.w3.org/2000/svg">
  <defs
     id="defs1">
    <clipPath
       clipPathUnits="userSpaceOnUse"
       id="clipPath2">
      <path
         d="M 0,0.16 V 1122.5601 H 793.59998 V 0.16 Z"
         transform="translate(-521.44,-560)"
         clip-rule="evenodd"
         id="path2" />
    </clipPath>
    <clipPath
       clipPathUnits="userSpaceOnUse"
       id="clipPath4">
      <path
         d="M 0,0.16 V 1122.5601 H 793.59998 V 0.16 Z"
         clip-rule="evenodd"
         id="path4" />
    </clipPath>
    <clipPath
       clipPathUnits="userSpaceOnUse"
       id="clipPath6">
      <path
         d="M 0,0.16 V 1122.5601 H 793.59998 V 0.16 Z"
         clip-rule="evenodd"
         id="path6" />
    </clipPath>
    <clipPath
       clipPathUnits="userSpaceOnUse"
       id="clipPath8">
      <path
         d="M 0,0.16 V 1122.5601 H 793.59998 V 0.16 Z"
         transform="translate(-524.96002,-395.35998)"
         clip-rule="evenodd"
         id="path8" />
    </clipPath>
    <clipPath
       clipPathUnits="userSpaceOnUse"
       id="clipPath10">
      <path
         d="M 0,0.16 V 1122.5601 H 793.59998 V 0.16 Z"
         transform="translate(-349.60001,-678.23999)"
         clip-rule="evenodd"
         id="path10" />
    </clipPath>
  </defs>
  <sodipodi:namedview
     id="namedview1"
     pagecolor="#505050"
     bordercolor="#eeeeee"
     borderopacity="1"
     inkscape:showpageshadow="0"
     inkscape:pageopacity="0"
     inkscape:pagecheckerboard="0"
     inkscape:deskcolor="#505050">
    <inkscape:page
       x="0"
       y="0"
       inkscape:label="1"
       id="page1"
       width="296.16"
       height="383.09332"
       margin="0"
       bleed="0" />
  </sodipodi:namedview>
  <g
     id="g1"
     inkscape:groupmode="layer"
     inkscape:label="1">
    <path
       id="path1"
       d="m 0,0 c 0,-68.040001 -55.150002,-123.2 -123.2,-123.2 -68.05,0 -123.19999,55.159999 -123.19999,123.2 0,68.040001 55.14999,123.2 123.19999,123.2 C -55.150002,123.2 0,68.040001 0,0 Z"
       style="fill:none;stroke:#000000;stroke-width:26.4;stroke-linecap:round;stroke-linejoin:round;stroke-miterlimit:10;stroke-dasharray:none;stroke-opacity:1"
       transform="translate(521.44,562.66661)"
       clip-path="url(#clipPath2)" />
    <path
       id="path3"
       d="m 284.95999,560 h 226.56"
       style="fill:none;stroke:#000000;stroke-width:26.4;stroke-linecap:round;stroke-linejoin:round;stroke-miterlimit:10;stroke-dasharray:none;stroke-opacity:1"
       transform="translate(0,2.666608)"
       clip-path="url(#clipPath4)" />
    <path
       id="path5"
       d="M 436,446.72 353.28,670.08002"
       style="fill:none;stroke:#000000;stroke-width:26.4;stroke-linecap:round;stroke-linejoin:round;stroke-miterlimit:10;stroke-dasharray:none;stroke-opacity:1"
       transform="translate(0,2.666608)"
       clip-path="url(#clipPath6)" />
    <path
       id="path7"
       d="m 0,0 -2.08,-0.8 -4,-1.28 -4,-1.12 -3.84,-0.96 -3.84,-0.48 -4,-0.48 -3.84,-0.16 H -29.76 -30.719999 -32 -35.360001 L -40,-5.12 l -4,0.48 -3.68,0.8 -2.560002,0.96 -0.799999,0.32 -2.239998,1.28 L -55.84,0.8 -58.400002,3.2 -61.119999,6.08 -64,9.44 l -1.120003,1.44 -0.799995,1.12 -2.560005,3.36 -1.119995,1.599999 -2.239998,3.360001 -2.240006,3.36 -2.239998,3.520001 -2.080002,3.84 -2.239997,4 -2.239998,4.16 -2.400002,4.479999 -2.400001,4.8 -1.279999,2.880001"
       style="fill:none;stroke:#000000;stroke-width:26.4;stroke-linecap:round;stroke-linejoin:round;stroke-miterlimit:10;stroke-dasharray:none;stroke-opacity:1"
       transform="translate(524.96002,398.02659)"
       clip-path="url(#clipPath8)" />
    <path
       id="path9"
       d="m 0,0 -1.28,2.08 -3.36,6.24 -3.84,7.84 -3.52,7.040001 -2.88,5.759998 -2.560001,4.48 -1.92,3.2 -0.799999,1.279999 -1.92,2.560002 -2.08,2.240001 -2.24,2.239998 -2.559999,1.760002 L -32,48.48 -35.52,49.919998 -38.560001,51.040001 -39.84,51.52 -44,52.639999 l -4.16,0.8 -4.16,0.640003 -4,0.16 h -4.319999 l -4.480004,-0.16 -4.639999,-0.320004 -4.959999,-0.639999 -5.119995,-0.799999 -3.680001,-0.64"
       style="fill:none;stroke:#000000;stroke-width:26.4;stroke-linecap:round;stroke-linejoin:round;stroke-miterlimit:10;stroke-dasharray:none;stroke-opacity:1"
       transform="translate(349.60001,680.9066)"
       clip-path="url(#clipPath10)" />
  </g>
</svg>
