<?xml version="1.0" encoding="UTF-8" standalone="no"?>
<!-- Created with Inkscape (http://www.inkscape.org/) -->

<svg
   version="1.1"
   id="svg1"
   width="390.88"
   height="508.56"
   viewBox="0 0 390.88 508.56"
   sodipodi:docname="Salt32.pdf"
   xmlns:inkscape="http://www.inkscape.org/namespaces/inkscape"
   xmlns:sodipodi="http://sodipodi.sourceforge.net/DTD/sodipodi-0.dtd"
   xmlns="http://www.w3.org/2000/svg"
   xmlns:svg="http://www.w3.org/2000/svg">
  <defs
     id="defs1">
    <clipPath
       clipPathUnits="userSpaceOnUse"
       id="clipPath2">
      <path
         d="M 0,0.16 V 1122.5601 H 793.59998 V 0.16 Z"
         transform="translate(-453.44001,-561.28003)"
         clip-rule="evenodd"
         id="path2" />
    </clipPath>
    <clipPath
       clipPathUnits="userSpaceOnUse"
       id="clipPath4">
      <path
         d="M 0,0.16 V 1122.5601 H 793.59998 V 0.16 Z"
         transform="translate(-566.71997,-334.72)"
         clip-rule="evenodd"
         id="path4" />
    </clipPath>
  </defs>
  <sodipodi:namedview
     id="namedview1"
     pagecolor="#505050"
     bordercolor="#eeeeee"
     borderopacity="1"
     inkscape:showpageshadow="0"
     inkscape:pageopacity="0"
     inkscape:pagecheckerboard="0"
     inkscape:deskcolor="#505050">
    <inkscape:page
       x="0"
       y="0"
       inkscape:label="1"
       id="page1"
       width="390.88"
       height="508.56"
       margin="0"
       bleed="0" />
  </sodipodi:namedview>
  <g
     id="g1"
     inkscape:groupmode="layer"
     inkscape:label="1">
    <path
       id="path1"
       d="m 0,0 c 0,-62.560001 -50.709999,-113.28 -113.28,-113.28 -62.57001,0 -113.28,50.719999 -113.28,113.28 0,62.560001 50.70999,113.28 113.28,113.28 C -50.709999,113.28 0,62.560001 0,0 Z"
       style="fill:none;stroke:#000000;stroke-width:26.4;stroke-linecap:round;stroke-linejoin:round;stroke-miterlimit:10;stroke-dasharray:none;stroke-opacity:1"
       transform="translate(249.33334,252.94664)"
       clip-path="url(#clipPath2)" />
    <path
       id="path3"
       d="M 0,0 -10.4,0.32 -20.799999,0.96 -31.200001,2.24 -41.599998,3.84 -51.84,6.08 -61.919998,8.64 -72,11.84 -81.760002,15.36 -91.519997,19.360001 -100.96,23.84 l -9.28,4.799999 -8.96,5.279999 -8.8,5.760002 -8.48,6.079998 -8.16,6.560002 -8,6.880001 -7.52,7.200001 -7.2,7.519996 -6.88,8 -6.56,8.160004 -6.08,8.479996 -5.76,8.800002 -5.28,8.96 -4.8,9.28 -4.48,9.43999 -4,9.76001 -3.52,9.76 -3.2,10.08 -2.56,10.08 -2.24,10.24001 -1.60001,10.39999 -1.28,10.24001 -0.63999,10.55999 -0.32,10.4 0.32,10.55999 0.63999,10.40001 1.28,10.40001 1.60001,10.23999 2.24,10.23999 2.56,10.24002 3.2,9.91999 3.52,9.92001 4,9.59998 4.48,9.44 4.8,9.28 5.28,9.12002 5.76,8.63999 6.08,8.48001 6.56,8.31998 6.88,7.84002 7.2,7.51999 7.52,7.20001 8,6.87998 8.16,6.56 8.48,6.08001 8.8,5.76001 8.96,5.28 9.28,4.95999 9.440003,4.32001 9.759995,4 L -72,441.44 l 10.080002,3.04001 10.079998,2.56 10.240002,2.23999 10.399997,1.6 10.400002,1.28 L -10.4,452.95999 0,453.12"
       style="fill:none;stroke:#000000;stroke-width:26.4;stroke-linecap:round;stroke-linejoin:round;stroke-miterlimit:10;stroke-dasharray:none;stroke-opacity:1"
       transform="translate(362.6133,26.386609)"
       clip-path="url(#clipPath4)" />
  </g>
</svg>
