<?xml version="1.0" encoding="UTF-8" standalone="no"?>
<!-- Created with Inkscape (http://www.inkscape.org/) -->

<svg
   version="1.1"
   id="svg1"
   width="504.26666"
   height="459.17334"
   viewBox="0 0 504.26666 459.17334"
   sodipodi:docname="Salt27.pdf"
   xmlns:inkscape="http://www.inkscape.org/namespaces/inkscape"
   xmlns:sodipodi="http://sodipodi.sourceforge.net/DTD/sodipodi-0.dtd"
   xmlns="http://www.w3.org/2000/svg"
   xmlns:svg="http://www.w3.org/2000/svg">
  <defs
     id="defs1">
    <clipPath
       clipPathUnits="userSpaceOnUse"
       id="clipPath2">
      <path
         d="M 0,0.16 V 1122.5601 H 793.59998 V 0.16 Z"
         clip-rule="evenodd"
         id="path2" />
    </clipPath>
    <clipPath
       clipPathUnits="userSpaceOnUse"
       id="clipPath4">
      <path
         d="M 0,0.16 V 1122.5601 H 793.59998 V 0.16 Z"
         transform="translate(-462.39999,-761.91998)"
         clip-rule="evenodd"
         id="path4" />
    </clipPath>
  </defs>
  <sodipodi:namedview
     id="namedview1"
     pagecolor="#505050"
     bordercolor="#eeeeee"
     borderopacity="1"
     inkscape:showpageshadow="0"
     inkscape:pageopacity="0"
     inkscape:pagecheckerboard="0"
     inkscape:deskcolor="#505050">
    <inkscape:page
       x="0"
       y="0"
       inkscape:label="1"
       id="page1"
       width="504.26666"
       height="459.17334"
       margin="0"
       bleed="0" />
  </sodipodi:namedview>
  <g
     id="g1"
     inkscape:groupmode="layer"
     inkscape:label="1">
    <path
       id="path1"
       d="M 170.24,485.76001 H 623.35998"
       style="fill:none;stroke:#000000;stroke-width:26.4;stroke-linecap:round;stroke-linejoin:round;stroke-miterlimit:10;stroke-dasharray:none;stroke-opacity:1"
       transform="translate(-144.08,-328.36006)"
       clip-path="url(#clipPath2)" />
    <path
       id="path3"
       d="m 0,0 7.36,0.96 7.2,0.32 h 6.880001 L 28.32,0.64 35.040001,-0.16 41.599998,-1.6 48,-3.36 54.080002,-5.6 60,-8.32 l 5.599998,-3.04 5.440003,-3.36 5.279999,-3.839999 4.959999,-4.32 4.639999,-4.640001 4.32,-4.96 4.160004,-5.279998 3.68,-5.760002 L 101.6,-49.599998 104.8,-56 l 2.72,-6.560001 2.56,-7.039997 2.08,-7.200005 1.92,-7.519997 1.44,-7.840004 1.12,-7.999996 0.8,-8.16 0.32,-8.48 0.16,-8.64 -0.32,-8.64 -0.64,-8.95999 L 116,-152 l -1.44,-9.11999 -1.6,-9.28 -2.08,-9.28 -2.4,-9.28002 -2.72,-9.43998 -3.04,-9.28 -3.359999,-9.28002 -3.520005,-9.43998 -4,-9.12001 -4.319999,-9.28 -4.479996,-8.95999 -4.959999,-8.96001 -4.959999,-8.95999 L 67.68,-280.32001 62.080002,-288.79999 56.32,-297.12 50.240002,-305.28 44,-313.12 l -6.560001,-7.67999 -6.56,-7.36001 L 24,-335.20001 17.120001,-342.07999 9.92,-348.64001 2.72,-354.88 l -7.2,-5.76001 -7.52,-5.59998 -7.52,-5.12 -7.520001,-4.80001 -7.52,-4.48001 -7.680001,-4 -7.519996,-3.68 -7.680001,-3.19998 -7.52,-2.88 -7.68,-2.4 L -80,-398.88 l -7.519997,-1.44001 -7.36,-1.28 -7.200003,-0.63998 -7.04,-0.32001 -7.04,0.16001 -6.88,0.63998 -6.56001,0.96002 -6.55999,1.44 -6.23999,1.91999 -6.24001,2.23999 -5.75999,2.72 -5.76001,3.20001 -5.28,3.51999 -5.12,3.84 -4.96,4.32 -4.64,4.80002 -4.32,4.95999 -4,5.44001 -3.68,5.75998 -3.36,6.08001 -3.2,6.4 -2.72,6.88 -2.4,6.88001 -2.08,7.35998 -1.75999,7.52002 -1.44,7.84 -0.96001,8.16 -0.8,8.16 -0.48,8.31998"
       style="fill:none;stroke:#000000;stroke-width:26.4;stroke-linecap:round;stroke-linejoin:round;stroke-miterlimit:10;stroke-dasharray:none;stroke-opacity:1"
       transform="translate(318.31999,433.55992)"
       clip-path="url(#clipPath4)" />
  </g>
</svg>
