<?xml version="1.0" encoding="UTF-8" standalone="no"?>
<!-- Created with Inkscape (http://www.inkscape.org/) -->

<svg
   version="1.1"
   id="svg1"
   width="422.90668"
   height="489.86667"
   viewBox="0 0 422.90668 489.86667"
   sodipodi:docname="Salt19.pdf"
   xmlns:inkscape="http://www.inkscape.org/namespaces/inkscape"
   xmlns:sodipodi="http://sodipodi.sourceforge.net/DTD/sodipodi-0.dtd"
   xmlns="http://www.w3.org/2000/svg"
   xmlns:svg="http://www.w3.org/2000/svg">
  <defs
     id="defs1">
    <clipPath
       clipPathUnits="userSpaceOnUse"
       id="clipPath2">
      <path
         d="M 0,0.16 V 1122.5601 H 793.59998 V 0.16 Z"
         transform="translate(-386.23999,-606.71997)"
         clip-rule="evenodd"
         id="path2" />
    </clipPath>
    <clipPath
       clipPathUnits="userSpaceOnUse"
       id="clipPath4">
      <path
         d="M 0,0.16 V 1122.5601 H 793.59998 V 0.16 Z"
         transform="translate(-447.68,-545.28003)"
         clip-rule="evenodd"
         id="path4" />
    </clipPath>
    <clipPath
       clipPathUnits="userSpaceOnUse"
       id="clipPath6">
      <path
         d="M 0,0.16 V 1122.5601 H 793.59998 V 0.16 Z"
         transform="translate(-508.95999,-483.84)"
         clip-rule="evenodd"
         id="path6" />
    </clipPath>
    <clipPath
       clipPathUnits="userSpaceOnUse"
       id="clipPath8">
      <path
         d="M 0,0.16 V 1122.5601 H 793.59998 V 0.16 Z"
         transform="translate(3.3333334e-6)"
         clip-rule="evenodd"
         id="path8" />
    </clipPath>
    <clipPath
       clipPathUnits="userSpaceOnUse"
       id="clipPath10">
      <path
         d="M 0,0.16 V 1122.5601 H 793.59998 V 0.16 Z"
         transform="translate(-211.2,-782.56)"
         clip-rule="evenodd"
         id="path10" />
    </clipPath>
    <clipPath
       clipPathUnits="userSpaceOnUse"
       id="clipPath12">
      <path
         d="M 0,0.16 V 1122.5601 H 793.59998 V 0.16 Z"
         transform="translate(3.3333334e-6)"
         clip-rule="evenodd"
         id="path12" />
    </clipPath>
  </defs>
  <sodipodi:namedview
     id="namedview1"
     pagecolor="#505050"
     bordercolor="#eeeeee"
     borderopacity="1"
     inkscape:showpageshadow="0"
     inkscape:pageopacity="0"
     inkscape:pagecheckerboard="0"
     inkscape:deskcolor="#505050">
    <inkscape:page
       x="0"
       y="0"
       inkscape:label="1"
       id="page1"
       width="422.90668"
       height="489.86667"
       margin="0"
       bleed="0" />
  </sodipodi:namedview>
  <g
     id="g1"
     inkscape:groupmode="layer"
     inkscape:label="1">
    <path
       id="path1"
       d="m 0,0 2.88,2.72 3.04,2.24 3.2,2.08 3.36,1.76 3.36,1.44 3.68,1.12 3.680001,0.8 3.84,0.48 3.679998,0.16 3.840002,-0.16 3.680001,-0.48 3.84,-0.8 3.519996,-1.12 L 49.119999,8.8 52.48,7.04 55.68,4.96 58.720001,2.72 61.439999,0.16 64,-2.72 66.400002,-5.76 68.32,-8.96 l 1.760002,-3.36 1.439995,-3.52 1.120002,-3.520001 0.959999,-3.68 0.480004,-3.839998 0.159996,-3.68 -0.159996,-3.840003 -0.480004,-3.68 -0.959999,-3.839996 -1.120002,-3.520001 -1.439995,-3.52 L 68.32,-52.32 66.400002,-55.52 64,-58.560001 61.439999,-61.439999"
       style="fill:none;stroke:#000000;stroke-width:26.4;stroke-linecap:round;stroke-linejoin:round;stroke-miterlimit:10;stroke-dasharray:none;stroke-opacity:1"
       transform="translate(200.81332,289.03991)"
       clip-path="url(#clipPath2)" />
    <path
       id="path3"
       d="m 0,0 2.88,2.72 2.88,2.24 3.2,2.08 3.36,1.76 3.52,1.44 3.68,1.12 3.680001,0.8 3.679998,0.48 3.84,0.16 3.840002,-0.16 3.680001,-0.48 3.679996,-0.8 3.68,-1.12 L 49.119999,8.8 52.48,7.04 55.68,4.96 58.720001,2.72 61.439999,0.16 64,-2.72 66.239998,-5.6 68.32,-8.8 l 1.760002,-3.36 1.439995,-3.52 1.120002,-3.680001 0.800003,-3.68 0.479996,-3.679998 0.160004,-3.84 -0.160004,-3.840003 -0.479996,-3.68 -0.800003,-3.679996 -1.120002,-3.680001 -1.439995,-3.52 L 68.32,-52.32 66.239998,-55.52 64,-58.560001 61.279999,-61.439999"
       style="fill:none;stroke:#000000;stroke-width:26.4;stroke-linecap:round;stroke-linejoin:round;stroke-miterlimit:10;stroke-dasharray:none;stroke-opacity:1"
       transform="translate(262.25333,227.59997)"
       clip-path="url(#clipPath4)" />
    <path
       id="path5"
       d="m 0,0 2.88,2.72 3.04,2.24 3.2,2.08 3.36,1.76 3.52,1.44 3.68,1.12 3.680001,0.8 3.68,0.48 3.839998,0.16 3.840002,-0.16 3.680001,-0.48 3.68,-0.8 3.679996,-1.12 3.520001,-1.44 3.36,-1.76 3.200001,-2.08 2.880001,-2.24 2.879997,-2.56 2.560006,-2.72 2.239998,-3.04 2.080001,-3.2 1.759995,-3.36 1.440002,-3.52 1.120003,-3.680001 0.799995,-3.68 0.480004,-3.679998 0.159996,-3.84 -0.159996,-3.840003 -0.480004,-3.68 -0.799995,-3.679996 -1.120003,-3.680001 -1.440002,-3.52 -1.759995,-3.360001 -2.080001,-3.2 -2.239998,-2.880002 -2.720005,-2.879997"
       style="fill:none;stroke:#000000;stroke-width:26.4;stroke-linecap:round;stroke-linejoin:round;stroke-miterlimit:10;stroke-dasharray:none;stroke-opacity:1"
       transform="translate(323.53332,166.15994)"
       clip-path="url(#clipPath6)" />
    <path
       id="path7"
       d="M 570.56,422.56 539.84003,391.84"
       style="fill:none;stroke:#000000;stroke-width:26.4;stroke-linecap:round;stroke-linejoin:round;stroke-miterlimit:10;stroke-dasharray:none;stroke-opacity:1"
       transform="translate(-185.42667,-317.68006)"
       clip-path="url(#clipPath8)" />
    <path
       id="path9"
       d="m 0,0 8.96,-0.16 8.8,-0.64 8.64,-1.12 8.640001,-1.6 8.639999,-1.92 8.48,-2.4 8.32,-2.88 8.159999,-3.36 8,-3.52 7.840004,-4.16 L 92,-26.24 99.360001,-31.040001 106.4,-36.32 l 6.88,-5.439998 6.56,-5.920002 6.24,-6.239998 5.92,-6.560002 5.44,-6.880001 5.28,-7.040001 4.8,-7.36 4.48,-7.519997 4.16,-7.840004 3.51999,-7.999997 3.36,-8.16 2.88001,-8.32 2.40001,-8.48 1.91999,-8.64 1.6,-8.64 1.12001,-8.64 0.64,-8.8 0.15998,-8.95999"
       style="fill:none;stroke:#000000;stroke-width:26.4;stroke-linecap:round;stroke-linejoin:round;stroke-miterlimit:10;stroke-dasharray:none;stroke-opacity:1"
       transform="translate(25.77333,464.87994)"
       clip-path="url(#clipPath10)" />
    <path
       id="path11"
       d="m 209.44,338.23999 0.95999,443.04004"
       style="fill:none;stroke:#000000;stroke-width:26.4;stroke-linecap:round;stroke-linejoin:round;stroke-miterlimit:10;stroke-dasharray:none;stroke-opacity:1"
       transform="translate(-185.42667,-317.68006)"
       clip-path="url(#clipPath12)" />
  </g>
</svg>
