<?xml version="1.0" encoding="UTF-8" standalone="no"?>
<!-- Created with Inkscape (http://www.inkscape.org/) -->

<svg
   version="1.1"
   id="svg1"
   width="362.85333"
   height="501.89334"
   viewBox="0 0 362.85333 501.89334"
   sodipodi:docname="Salt15.pdf"
   xmlns:inkscape="http://www.inkscape.org/namespaces/inkscape"
   xmlns:sodipodi="http://sodipodi.sourceforge.net/DTD/sodipodi-0.dtd"
   xmlns="http://www.w3.org/2000/svg"
   xmlns:svg="http://www.w3.org/2000/svg">
  <defs
     id="defs1">
    <clipPath
       clipPathUnits="userSpaceOnUse"
       id="clipPath2">
      <path
         d="M 0,0.16 V 1122.5601 H 793.59998 V 0.16 Z"
         transform="translate(-3.3333333e-6)"
         clip-rule="evenodd"
         id="path2" />
    </clipPath>
    <clipPath
       clipPathUnits="userSpaceOnUse"
       id="clipPath4">
      <path
         d="M 0,0.16 V 1122.5601 H 793.59998 V 0.16 Z"
         transform="translate(-3.3333333e-6)"
         clip-rule="evenodd"
         id="path4" />
    </clipPath>
    <clipPath
       clipPathUnits="userSpaceOnUse"
       id="clipPath6">
      <path
         d="M 0,0.16 V 1122.5601 H 793.59998 V 0.16 Z"
         transform="translate(-396.79998,-485.76001)"
         clip-rule="evenodd"
         id="path6" />
    </clipPath>
    <clipPath
       clipPathUnits="userSpaceOnUse"
       id="clipPath8">
      <path
         d="M 0,0.16 V 1122.5601 H 793.59998 V 0.16 Z"
         transform="translate(-510.07998,-485.76001)"
         clip-rule="evenodd"
         id="path8" />
    </clipPath>
    <clipPath
       clipPathUnits="userSpaceOnUse"
       id="clipPath10">
      <path
         d="M 0,0.16 V 1122.5601 H 793.59998 V 0.16 Z"
         transform="translate(-3.3333333e-6)"
         clip-rule="evenodd"
         id="path10" />
    </clipPath>
  </defs>
  <sodipodi:namedview
     id="namedview1"
     pagecolor="#505050"
     bordercolor="#eeeeee"
     borderopacity="1"
     inkscape:showpageshadow="0"
     inkscape:pageopacity="0"
     inkscape:pagecheckerboard="0"
     inkscape:deskcolor="#505050">
    <inkscape:page
       x="0"
       y="0"
       inkscape:label="1"
       id="page1"
       width="362.85333"
       height="501.89334"
       margin="0"
       bleed="0" />
  </sodipodi:namedview>
  <g
     id="g1"
     inkscape:groupmode="layer"
     inkscape:label="1">
    <path
       id="path1"
       d="M 396.79999,334.72 H 623.35998"
       style="fill:none;stroke:#000000;stroke-width:26.4;stroke-linecap:round;stroke-linejoin:round;stroke-miterlimit:10;stroke-dasharray:none;stroke-opacity:1"
       transform="translate(-293.49333,-309.66673)"
       clip-path="url(#clipPath2)" />
    <path
       id="path3"
       d="M 396.79999,334.72 V 787.84003"
       style="fill:none;stroke:#000000;stroke-width:26.4;stroke-linecap:round;stroke-linejoin:round;stroke-miterlimit:10;stroke-dasharray:none;stroke-opacity:1"
       transform="translate(-293.49333,-309.66673)"
       clip-path="url(#clipPath4)" />
    <path
       id="path5"
       d="m 0,0 4.96,3.52 5.28,3.2 5.28,2.72 5.600001,2.56 5.759998,2.08 5.76,1.76 5.920002,1.280001 6.079998,0.959999 5.920002,0.639999 6.079998,0.16 6.080002,-0.16 L 68.800003,18.08 74.720001,17.120001 80.639999,15.84 86.559998,14.08 92.160004,12 97.760002,9.44 103.2,6.72 108.32,3.52 113.28,0"
       style="fill:none;stroke:#000000;stroke-width:26.4;stroke-linecap:round;stroke-linejoin:round;stroke-miterlimit:10;stroke-dasharray:none;stroke-opacity:1"
       transform="translate(103.30665,176.09328)"
       clip-path="url(#clipPath6)" />
    <path
       id="path7"
       d="m 0,0 6.88,0.48 h 6.88 l 6.879999,-0.32 6.720002,-0.8 6.720001,-1.28 6.719997,-1.6 6.560002,-2.08 6.399997,-2.56 L 60,-11.04 l 6.080002,-3.2 5.759994,-3.68 5.600006,-3.84 5.279999,-4.32 5.119995,-4.639999 4.800003,-4.960001 4.480004,-5.279999 3.999997,-5.440003 3.84,-5.759998 3.36,-5.920002 3.04,-6.080002 2.72,-6.399994 2.24,-6.560005 1.76,-6.559997 1.44,-6.720002 0.96,-6.720001 0.64,-6.879997 0.16,-6.88 -0.32,-6.88 -0.64,-6.72 -1.12,-6.88 -1.6,-6.56 -1.92,-6.72 -2.4,-6.39999"
       style="fill:none;stroke:#000000;stroke-width:26.4;stroke-linecap:round;stroke-linejoin:round;stroke-miterlimit:10;stroke-dasharray:none;stroke-opacity:1"
       transform="translate(216.58665,176.09328)"
       clip-path="url(#clipPath8)" />
    <path
       id="path9"
       d="M 321.28,787.84003 H 472.32001"
       style="fill:none;stroke:#000000;stroke-width:26.4;stroke-linecap:round;stroke-linejoin:round;stroke-miterlimit:10;stroke-dasharray:none;stroke-opacity:1"
       transform="translate(-293.49333,-309.66673)"
       clip-path="url(#clipPath10)" />
  </g>
</svg>
