<?xml version="1.0" encoding="UTF-8" standalone="no"?>
<!-- Created with Inkscape (http://www.inkscape.org/) -->

<svg
   version="1.1"
   id="svg1"
   width="498.93332"
   height="480.53333"
   viewBox="0 0 498.93332 480.53333"
   sodipodi:docname="Salt35.pdf"
   xmlns:inkscape="http://www.inkscape.org/namespaces/inkscape"
   xmlns:sodipodi="http://sodipodi.sourceforge.net/DTD/sodipodi-0.dtd"
   xmlns="http://www.w3.org/2000/svg"
   xmlns:svg="http://www.w3.org/2000/svg">
  <defs
     id="defs1">
    <clipPath
       clipPathUnits="userSpaceOnUse"
       id="clipPath2">
      <path
         d="M 0,0.16 V 1122.5601 H 793.59998 V 0.16 Z"
         transform="translate(-510.07999,-438.56)"
         clip-rule="evenodd"
         id="path2" />
    </clipPath>
    <clipPath
       clipPathUnits="userSpaceOnUse"
       id="clipPath4">
      <path
         d="M 0,0.16 V 1122.5601 H 793.59998 V 0.16 Z"
         transform="translate(-287.04001,-452.64002)"
         clip-rule="evenodd"
         id="path4" />
    </clipPath>
    <clipPath
       clipPathUnits="userSpaceOnUse"
       id="clipPath6">
      <path
         d="M 0,0.16 V 1122.5601 H 793.59998 V 0.16 Z"
         transform="translate(-468.95999,-393.11999)"
         clip-rule="evenodd"
         id="path6" />
    </clipPath>
    <clipPath
       clipPathUnits="userSpaceOnUse"
       id="clipPath8">
      <path
         d="M 0,0.16 V 1122.5601 H 793.59998 V 0.16 Z"
         clip-rule="evenodd"
         id="path8" />
    </clipPath>
    <clipPath
       clipPathUnits="userSpaceOnUse"
       id="clipPath10">
      <path
         d="M 0,0.16 V 1122.5601 H 793.59998 V 0.16 Z"
         transform="translate(-321.28,-778.40003)"
         clip-rule="evenodd"
         id="path10" />
    </clipPath>
    <clipPath
       clipPathUnits="userSpaceOnUse"
       id="clipPath12">
      <path
         d="M 0,0.16 V 1122.5601 H 793.59998 V 0.16 Z"
         transform="translate(-434.56,-665.12)"
         clip-rule="evenodd"
         id="path12" />
    </clipPath>
  </defs>
  <sodipodi:namedview
     id="namedview1"
     pagecolor="#505050"
     bordercolor="#eeeeee"
     borderopacity="1"
     inkscape:showpageshadow="0"
     inkscape:pageopacity="0"
     inkscape:pagecheckerboard="0"
     inkscape:deskcolor="#505050">
    <inkscape:page
       x="0"
       y="0"
       inkscape:label="1"
       id="page1"
       width="498.93332"
       height="480.53333"
       margin="0"
       bleed="0" />
  </sodipodi:namedview>
  <g
     id="g1"
     inkscape:groupmode="layer"
     inkscape:label="1">
    <path
       id="path1"
       d="m 0,0 c 0,-31.280001 -50.709999,-56.639999 -113.28,-56.639999 -62.57001,0 -113.28,25.359998 -113.28,56.639999 0,31.280001 50.70999,56.639999 113.28,56.639999 C -50.709999,56.639999 0,31.280001 0,0 Z"
       style="fill:none;stroke:#000000;stroke-width:26.4;stroke-linecap:round;stroke-linejoin:round;stroke-miterlimit:10;stroke-dasharray:none;stroke-opacity:1"
       transform="translate(361.99999,116.87994)"
       clip-path="url(#clipPath2)" />
    <path
       id="path3"
       d="m 0,0 -8.96,2.72 -8.8,2.88 -8.48,3.04 -8.160002,3.2 -8,3.52 -7.519996,3.519999 -7.360001,3.84 -6.880005,4 -6.559997,4 -6.080002,4.320002 -5.759995,4.32 -5.279998,4.479999 -4.960007,4.64 -4.479996,4.799999 -4.000001,4.800003 -3.52,4.959999 L -108,68 l -2.56,5.120003 -2.24,5.119995 -1.76,5.120003 -1.12,5.279998 -0.8,5.120003 -0.32,5.279999 0.32,5.279999 0.64,5.12 1.28,5.28 1.6,5.12 2.24,5.12 2.56,5.12 3.04,4.95999 3.52,4.96001 4.000002,4.8 4.479995,4.80001 4.959999,4.63999 5.280007,4.48 5.599998,4.48 6.239998,4.16 6.400002,4.16 6.880001,4 7.199997,3.68 7.68,3.68 7.84,3.36 8.160002,3.36001 8.479999,3.03999 8.8,2.88 9.12,2.56 9.28,2.56 9.44,2.24 9.6,1.92 9.919998,1.76 9.920002,1.6 10.239998,1.28 10.240006,1.12 10.239998,0.8 10.559997,0.64 10.400002,0.32001 L 109.76,212.48 120.32,212.32001 130.72,212 l 10.39999,-0.64 10.40001,-0.8 10.23999,-1.12 10.08001,-1.28 10.08,-1.6 9.75999,-1.76 9.76001,-1.92 9.44,-2.24 9.28,-2.56 8.95999,-2.56 8.80001,-2.88 8.47999,-3.03999 8.32001,-3.36001 7.84,-3.36 7.51999,-3.68 7.36001,-3.68 6.72,-4 6.56,-4.16 6.07999,-4.16 5.76001,-4.48 5.28,-4.48 4.95999,-4.63999 4.32001,-4.80001 4,-4.8 3.52001,-4.96001 3.19999,-4.95999 2.55999,-5.12 2.24002,-5.12 1.59998,-5.12 1.12,-5.28 0.80001,-5.12 0.16001,-5.279999 -0.16001,-5.279999 -0.80001,-5.120003 -1.28,-5.279998 -1.59998,-5.120003 -2.24002,-5.119995 -2.72,-5.120003 -3.03998,-4.959999 -3.52002,-4.959999 -4.16,-4.800003 -4.47998,-4.799999 -4.80002,-4.64 -5.44,-4.479999 -5.59998,-4.32 -6.24002,-4.320002 -6.56,-4 -6.88,-4 -7.19998,-3.84 L 261.92001,15.36 254.08,11.84 245.92,8.64 237.28,5.6 228.48,2.72 219.36,0"
       style="fill:none;stroke:#000000;stroke-width:26.4;stroke-linecap:round;stroke-linejoin:round;stroke-miterlimit:10;stroke-dasharray:none;stroke-opacity:1"
       transform="translate(138.96001,130.95996)"
       clip-path="url(#clipPath4)" />
    <path
       id="path5"
       d="M 0,0 1.44,-2.56 2.4,-5.28 3.2,-8 3.36,-10.72 3.2,-13.44 2.72,-16.16 1.92,-18.719999 0.64,-21.440001 -1.12,-24 l -2.08,-2.559999 -2.24,-2.4 -2.88,-2.400002 -3.04,-2.239997 -3.36,-2.080002 -3.68,-2.079998 -3.84,-1.760002 -4.319999,-1.759999 -4.480002,-1.600002 L -35.68,-44.16 l -4.8,-1.279999 -4.959999,-1.120002 -5.280002,-0.8 L -56,-48 l -5.279999,-0.48 -5.440002,-0.319999 -5.440003,-0.16 -5.439994,0.16 L -82.879997,-48.48 -88.32,-48 l -5.279998,0.639999 -5.120003,0.8 -4.959999,1.120002 -4.96,1.279999 -4.64,1.279999 -4.48,1.600002 -4.16,1.759999 -4,1.760002 -3.68001,2.079998 -3.36,2.080002 -3.03999,2.239997 -2.72,2.400002 -2.39999,2.4 L -143.2,-24 l -1.6,2.559999 -1.28,2.720002 -0.95999,2.559999 -0.48001,2.72 -0.15999,2.72 0.31999,2.72 0.64,2.72 1.11999,2.72 1.28,2.56"
       style="fill:none;stroke:#000000;stroke-width:26.4;stroke-linecap:round;stroke-linejoin:round;stroke-miterlimit:10;stroke-dasharray:none;stroke-opacity:1"
       transform="translate(320.87999,71.439936)"
       clip-path="url(#clipPath6)" />
    <path
       id="path7"
       d="M 321.28,778.40002 H 472.32001"
       style="fill:none;stroke:#000000;stroke-width:26.4;stroke-linecap:round;stroke-linejoin:round;stroke-miterlimit:10;stroke-dasharray:none;stroke-opacity:1"
       transform="translate(-148.08,-321.68006)"
       clip-path="url(#clipPath8)" />
    <path
       id="path9"
       d="m 0,0 5.44,-5.6 4.96,-5.92 4.64,-6.24 4.160001,-6.4 3.84,-6.719999 3.519998,-6.879999 L 29.6,-44.959999 32.32,-52.16 l 2.240001,-7.36 1.759999,-7.520001 1.439998,-7.68 0.800003,-7.680001 0.48,-7.68 v -7.839996 l -0.32,-7.680002 -0.960003,-7.68"
       style="fill:none;stroke:#000000;stroke-width:26.4;stroke-linecap:round;stroke-linejoin:round;stroke-miterlimit:10;stroke-dasharray:none;stroke-opacity:1"
       transform="translate(173.2,456.71997)"
       clip-path="url(#clipPath10)" />
    <path
       id="path11"
       d="m 0,0 -1.44,6.56 -1.28,6.56 -0.64,6.56 -0.32,6.72 v 6.559999 L -3.2,39.68 l 0.96,6.560002 1.28,6.559997 1.76,6.400002 2.08,6.240001 2.56,6.239998 2.88,6.080002 3.2,5.759995 3.52,5.600006 4.000001,5.439995 4.16,5.120002 4.639999,4.8 4.799999,4.48 5.119999,4.32"
       style="fill:none;stroke:#000000;stroke-width:26.4;stroke-linecap:round;stroke-linejoin:round;stroke-miterlimit:10;stroke-dasharray:none;stroke-opacity:1"
       transform="translate(286.48,343.43994)"
       clip-path="url(#clipPath12)" />
  </g>
</svg>
