<?xml version="1.0" encoding="UTF-8" standalone="no"?>
<!-- Created with Inkscape (http://www.inkscape.org/) -->

<svg
   version="1.1"
   id="svg1"
   width="298.82666"
   height="504.54666"
   viewBox="0 0 298.82666 504.54666"
   sodipodi:docname="Salt31.pdf"
   xmlns:inkscape="http://www.inkscape.org/namespaces/inkscape"
   xmlns:sodipodi="http://sodipodi.sourceforge.net/DTD/sodipodi-0.dtd"
   xmlns="http://www.w3.org/2000/svg"
   xmlns:svg="http://www.w3.org/2000/svg">
  <defs
     id="defs1">
    <clipPath
       clipPathUnits="userSpaceOnUse"
       id="clipPath2">
      <path
         d="M 0,0.16 V 1122.5601 H 793.59998 V 0.16 Z"
         transform="translate(-283.51999,-485.76001)"
         clip-rule="evenodd"
         id="path2" />
    </clipPath>
    <clipPath
       clipPathUnits="userSpaceOnUse"
       id="clipPath4">
      <path
         d="M 0,0.16 V 1122.5601 H 793.59998 V 0.16 Z"
         clip-rule="evenodd"
         id="path4" />
    </clipPath>
  </defs>
  <sodipodi:namedview
     id="namedview1"
     pagecolor="#505050"
     bordercolor="#eeeeee"
     borderopacity="1"
     inkscape:showpageshadow="0"
     inkscape:pageopacity="0"
     inkscape:pagecheckerboard="0"
     inkscape:deskcolor="#505050">
    <inkscape:page
       x="0"
       y="0"
       inkscape:label="1"
       id="page1"
       width="298.82666"
       height="504.54666"
       margin="0"
       bleed="0" />
  </sodipodi:namedview>
  <g
     id="g1"
     inkscape:groupmode="layer"
     inkscape:label="1">
    <path
       id="path1"
       d="M 0,0 5.44,-0.16 10.88,-0.8 16.16,-1.76 21.280001,-3.04 26.4,-4.8 31.360001,-6.72 36.32,-9.28 40.959999,-12 l 4.32,-3.04 4.16,-3.36 4,-3.68 3.68,-4 3.360001,-4.16 3.04,-4.480001 2.880002,-4.64 2.400001,-4.799999 2.079994,-4.959999 1.600006,-5.120003 1.439995,-5.119999 0.959999,-5.440002 0.480004,-5.279999 0.159996,-5.439995 -0.159996,-5.280006 -0.480004,-5.439995 -0.959999,-5.279999 -1.439995,-5.280006 -1.600006,-5.119997 -2.079994,-4.96 -2.400001,-4.8 -2.880002,-4.64 -3.04,-4.48 -3.360001,-4.16 -3.68,-4.00001 -4,-3.67999 -4.16,-3.36 -4.32,-3.03999 -4.639999,-2.72 L 31.360001,-144.16 26.4,-146.24 21.280001,-148 16.16,-149.28 10.88,-150.24 5.44,-150.88 0,-151.03999"
       style="fill:none;stroke:#000000;stroke-width:26.4;stroke-linecap:round;stroke-linejoin:round;stroke-miterlimit:10;stroke-dasharray:none;stroke-opacity:1"
       transform="translate(283.51999,479.07995)"
       clip-path="url(#clipPath2)" />
    <path
       id="path3"
       d="m 283.51999,485.76001 226.56,302.08002"
       style="fill:none;stroke:#000000;stroke-width:26.4;stroke-linecap:round;stroke-linejoin:round;stroke-miterlimit:10;stroke-dasharray:none;stroke-opacity:1"
       transform="translate(0,-6.6800587)"
       clip-path="url(#clipPath4)" />
  </g>
</svg>
