<?xml version="1.0" encoding="UTF-8" standalone="no"?>
<!-- Created with Inkscape (http://www.inkscape.org/) -->

<svg
   version="1.1"
   id="svg1"
   width="504.26666"
   height="500.54666"
   viewBox="0 0 504.26666 500.54666"
   sodipodi:docname="Salt14.pdf"
   xmlns:inkscape="http://www.inkscape.org/namespaces/inkscape"
   xmlns:sodipodi="http://sodipodi.sourceforge.net/DTD/sodipodi-0.dtd"
   xmlns="http://www.w3.org/2000/svg"
   xmlns:svg="http://www.w3.org/2000/svg">
  <defs
     id="defs1">
    <clipPath
       clipPathUnits="userSpaceOnUse"
       id="clipPath2">
      <path
         d="M 0,0.16 V 1122.5601 H 793.59998 V 0.16 Z"
         clip-rule="evenodd"
         id="path2" />
    </clipPath>
    <clipPath
       clipPathUnits="userSpaceOnUse"
       id="clipPath4">
      <path
         d="M 0,0.16 V 1122.5601 H 793.59998 V 0.16 Z"
         clip-rule="evenodd"
         id="path4" />
    </clipPath>
    <clipPath
       clipPathUnits="userSpaceOnUse"
       id="clipPath6">
      <path
         d="M 0,0.16 V 1122.5601 H 793.59998 V 0.16 Z"
         clip-rule="evenodd"
         id="path6" />
    </clipPath>
    <clipPath
       clipPathUnits="userSpaceOnUse"
       id="clipPath8">
      <path
         d="M 0,0.16 V 1122.5601 H 793.59998 V 0.16 Z"
         transform="translate(-170.24,-561.28003)"
         clip-rule="evenodd"
         id="path8" />
    </clipPath>
  </defs>
  <sodipodi:namedview
     id="namedview1"
     pagecolor="#505050"
     bordercolor="#eeeeee"
     borderopacity="1"
     inkscape:showpageshadow="0"
     inkscape:pageopacity="0"
     inkscape:pagecheckerboard="0"
     inkscape:deskcolor="#505050">
    <inkscape:page
       x="0"
       y="0"
       inkscape:label="1"
       id="page1"
       width="504.26666"
       height="500.54666"
       margin="0"
       bleed="0" />
  </sodipodi:namedview>
  <g
     id="g1"
     inkscape:groupmode="layer"
     inkscape:label="1">
    <path
       id="path1"
       d="M 170.24,334.72 H 396.79999"
       style="fill:none;stroke:#000000;stroke-width:26.4;stroke-linecap:round;stroke-linejoin:round;stroke-miterlimit:10;stroke-dasharray:none;stroke-opacity:1"
       transform="translate(-144.08,-307.00006)"
       clip-path="url(#clipPath2)" />
    <path
       id="path3"
       d="M 396.79999,334.72 V 787.84003"
       style="fill:none;stroke:#000000;stroke-width:26.4;stroke-linecap:round;stroke-linejoin:round;stroke-miterlimit:10;stroke-dasharray:none;stroke-opacity:1"
       transform="translate(-144.08,-307.00006)"
       clip-path="url(#clipPath4)" />
    <path
       id="path5"
       d="M 396.79999,334.72 170.24,561.28003"
       style="fill:none;stroke:#000000;stroke-width:26.4;stroke-linecap:round;stroke-linejoin:round;stroke-miterlimit:10;stroke-dasharray:none;stroke-opacity:1"
       transform="translate(-144.08,-307.00006)"
       clip-path="url(#clipPath6)" />
    <path
       id="path7"
       d="m 0,0 7.2,9.28 7.68,8.8 7.839999,8.639999 8.320002,8.160002 8.639999,7.84 8.8,7.520001 9.279998,7.199997 9.439999,6.720005 9.920006,6.399994 9.919998,5.920005 10.400001,5.599999 10.399998,5.119995 10.72,4.639999 10.88,4.320008 11.04,3.679992 11.19999,3.360004 11.36,2.88 11.36,2.4 11.52001,1.92 11.52,1.44 11.67999,0.96 11.68001,0.48 h 11.68 l 11.68,-0.48 11.51999,-0.96 11.68,-1.44 11.52001,-1.92 11.35999,-2.4 11.36002,-2.88 11.19998,-3.360004 11.04001,-3.679992 10.88,-4.320008 10.72,-4.639999 10.4,-5.119995 10.23999,-5.599999 10.08001,-5.920005 9.76001,-6.399994 9.59998,-6.720005 9.12002,-7.199997 8.96,-7.520001 8.63998,-7.84 8.16,-8.160002 8,-8.639999 7.52002,-8.8 L 453.12,0"
       style="fill:none;stroke:#000000;stroke-width:26.4;stroke-linecap:round;stroke-linejoin:round;stroke-miterlimit:10;stroke-dasharray:none;stroke-opacity:1"
       transform="translate(26.160005,254.27997)"
       clip-path="url(#clipPath8)" />
  </g>
</svg>
