<?xml version="1.0" encoding="UTF-8" standalone="no"?>
<!-- Created with Inkscape (http://www.inkscape.org/) -->

<svg
   version="1.1"
   id="svg1"
   width="510.93332"
   height="473.85333"
   viewBox="0 0 510.93332 473.85333"
   sodipodi:docname="Soap3.pdf"
   xmlns:inkscape="http://www.inkscape.org/namespaces/inkscape"
   xmlns:sodipodi="http://sodipodi.sourceforge.net/DTD/sodipodi-0.dtd"
   xmlns="http://www.w3.org/2000/svg"
   xmlns:svg="http://www.w3.org/2000/svg">
  <defs
     id="defs1">
    <clipPath
       clipPathUnits="userSpaceOnUse"
       id="clipPath2">
      <path
         d="M 0,0.16 V 1122.5601 H 793.59998 V 0.16 Z"
         transform="translate(-3.3333333e-6)"
         clip-rule="evenodd"
         id="path2" />
    </clipPath>
    <clipPath
       clipPathUnits="userSpaceOnUse"
       id="clipPath4">
      <path
         d="M 0,0.16 V 1122.5601 H 793.59998 V 0.16 Z"
         transform="translate(-283.51999,-655.67999)"
         clip-rule="evenodd"
         id="path4" />
    </clipPath>
    <clipPath
       clipPathUnits="userSpaceOnUse"
       id="clipPath6">
      <path
         d="M 0,0.16 V 1122.5601 H 793.59998 V 0.16 Z"
         transform="translate(-623.35998,-768.96002)"
         clip-rule="evenodd"
         id="path6" />
    </clipPath>
    <clipPath
       clipPathUnits="userSpaceOnUse"
       id="clipPath8">
      <path
         d="M 0,0.16 V 1122.5601 H 793.59998 V 0.16 Z"
         transform="translate(-510.07998,-655.67999)"
         clip-rule="evenodd"
         id="path8" />
    </clipPath>
    <clipPath
       clipPathUnits="userSpaceOnUse"
       id="clipPath10">
      <path
         d="M 0,0.16 V 1122.5601 H 793.59998 V 0.16 Z"
         transform="translate(-3.3333333e-6)"
         clip-rule="evenodd"
         id="path10" />
    </clipPath>
    <clipPath
       clipPathUnits="userSpaceOnUse"
       id="clipPath12">
      <path
         d="M 0,0.16 V 1122.5601 H 793.59998 V 0.16 Z"
         transform="translate(-3.3333333e-6)"
         clip-rule="evenodd"
         id="path12" />
    </clipPath>
    <clipPath
       clipPathUnits="userSpaceOnUse"
       id="clipPath14">
      <path
         d="M 0,0.16 V 1122.5601 H 793.59998 V 0.16 Z"
         transform="translate(-3.3333333e-6)"
         clip-rule="evenodd"
         id="path14" />
    </clipPath>
  </defs>
  <sodipodi:namedview
     id="namedview1"
     pagecolor="#505050"
     bordercolor="#eeeeee"
     borderopacity="1"
     inkscape:showpageshadow="0"
     inkscape:pageopacity="0"
     inkscape:pagecheckerboard="0"
     inkscape:deskcolor="#505050">
    <inkscape:page
       x="0"
       y="0"
       inkscape:label="1"
       id="page1"
       width="510.93332"
       height="473.85333"
       margin="0"
       bleed="0" />
  </sodipodi:namedview>
  <g
     id="g1"
     inkscape:groupmode="layer"
     inkscape:label="1">
    <path
       id="path1"
       d="M 170.24,768.96002 H 623.35998"
       style="fill:none;stroke:#000000;stroke-width:26.4;stroke-linecap:round;stroke-linejoin:round;stroke-miterlimit:10;stroke-dasharray:none;stroke-opacity:1"
       transform="translate(-141.41333,-325.69339)"
       clip-path="url(#clipPath2)" />
    <path
       id="path3"
       d="m 0,0 -6.72,0.16 -6.88,0.64 -6.72,1.12 -6.720001,1.44 -6.559997,1.76 -6.560002,2.24 -6.240002,2.56 -6.239997,3.04 -5.920002,3.36 L -64.32,20 -69.760002,24.16 -75.040001,28.48 -80,33.119999 l -4.800003,5.120003 -4.32,5.119999 -4,5.599998 -3.68,5.760002 -3.519997,5.919998 -2.88,6.080002 -2.72,6.400002 -2.24,6.399994 -1.76,6.720001 -1.44,6.560005 -0.96,6.879997 -0.64,6.72 -0.32,6.88"
       style="fill:none;stroke:#000000;stroke-width:26.4;stroke-linecap:round;stroke-linejoin:round;stroke-miterlimit:10;stroke-dasharray:none;stroke-opacity:1"
       transform="translate(142.10666,329.9866)"
       clip-path="url(#clipPath4)" />
    <path
       id="path5"
       d="m 0,0 -0.16,-6.88 -0.64,-6.72 -0.96,-6.88 -1.44,-6.560001 -1.92,-6.719997 -2.24,-6.400002 -2.56,-6.400001 -3.04,-6.079998 -3.36,-5.920002 L -20,-64.32 l -4,-5.599998 -4.48,-5.120003 -4.639999,-5.120003 -4.960003,-4.639999 -5.279999,-4.32 -5.599998,-4.159996 -5.600002,-3.68 -6.079998,-3.360001 -6.080002,-3.04 -6.400002,-2.56 -6.399994,-2.24 -6.560005,-1.76 -6.720001,-1.44 -6.719994,-1.12 -6.880003,-0.64 -6.88,-0.16"
       style="fill:none;stroke:#000000;stroke-width:26.4;stroke-linecap:round;stroke-linejoin:round;stroke-miterlimit:10;stroke-dasharray:none;stroke-opacity:1"
       transform="translate(481.94665,443.26663)"
       clip-path="url(#clipPath6)" />
    <path
       id="path7"
       d="m 0,0 -0.16,-6.88 -0.64,-6.72 -0.96,-6.88 -1.44,-6.560001 -1.92,-6.719997 -2.24,-6.400002 -2.56,-6.240002 -3.04,-6.239997 -3.36,-5.920002 L -20,-64.32 l -4,-5.599998 -4.48,-5.120003 -4.639999,-5.120003 -4.960003,-4.639999 -5.279999,-4.32 -5.599998,-4.159996 -5.600002,-3.68 -6.079998,-3.360001 -6.080002,-2.88 -6.400002,-2.72 -6.399994,-2.24 -6.560005,-1.76 -6.720001,-1.44 -6.719994,-1.12 -6.880003,-0.64 -6.88,-0.16 -6.72,0.16 -6.88,0.64 -6.72001,1.12 -6.72,1.44 -6.55999,1.76 -6.56,2.24 -6.23999,2.72 -6.24001,2.88 -5.92,3.360001 -5.76001,3.68 -5.43998,4.159996 -5.28002,4.32 -4.95999,4.639999 -4.8,5.120003 -4.31999,5.120003 -4,5.599998 -3.84001,5.759999 -3.36001,5.920002 -2.87999,6.239997 -2.72,6.240002 -2.24,6.400002 -1.76,6.719997 -1.44,6.560001 -0.96001,6.88 -0.63999,6.72 -0.32,6.88"
       style="fill:none;stroke:#000000;stroke-width:26.4;stroke-linecap:round;stroke-linejoin:round;stroke-miterlimit:10;stroke-dasharray:none;stroke-opacity:1"
       transform="translate(368.66665,329.9866)"
       clip-path="url(#clipPath8)" />
    <path
       id="path9"
       d="M 396.79999,353.60001 472.32001,429.12 396.79999,504.64001 321.28,429.12 396.79999,353.60001"
       style="fill:none;stroke:#000000;stroke-width:26.4;stroke-linecap:round;stroke-linejoin:round;stroke-miterlimit:10;stroke-dasharray:none;stroke-opacity:1"
       transform="translate(-141.41333,-325.69339)"
       clip-path="url(#clipPath10)" />
    <path
       id="path11"
       d="m 170.24,542.40002 75.51999,75.51996"
       style="fill:none;stroke:#000000;stroke-width:26.4;stroke-linecap:round;stroke-linejoin:round;stroke-miterlimit:10;stroke-dasharray:none;stroke-opacity:1"
       transform="translate(-141.41333,-325.69339)"
       clip-path="url(#clipPath12)" />
    <path
       id="path13"
       d="m 547.84003,617.91998 75.51995,-75.51996"
       style="fill:none;stroke:#000000;stroke-width:26.4;stroke-linecap:round;stroke-linejoin:round;stroke-miterlimit:10;stroke-dasharray:none;stroke-opacity:1"
       transform="translate(-141.41333,-325.69339)"
       clip-path="url(#clipPath14)" />
  </g>
</svg>
