<?xml version="1.0" encoding="UTF-8" standalone="no"?>
<!-- Created with Inkscape (http://www.inkscape.org/) -->

<svg
   version="1.1"
   id="svg1"
   width="498.93332"
   height="300.33334"
   viewBox="0 0 498.93332 300.33334"
   sodipodi:docname="Soda.pdf"
   xmlns:inkscape="http://www.inkscape.org/namespaces/inkscape"
   xmlns:sodipodi="http://sodipodi.sourceforge.net/DTD/sodipodi-0.dtd"
   xmlns="http://www.w3.org/2000/svg"
   xmlns:svg="http://www.w3.org/2000/svg">
  <defs
     id="defs1">
    <clipPath
       clipPathUnits="userSpaceOnUse"
       id="clipPath2">
      <path
         d="M 0,0.16 V 1122.5601 H 793.59998 V 0.16 Z"
         clip-rule="evenodd"
         id="path2" />
    </clipPath>
    <clipPath
       clipPathUnits="userSpaceOnUse"
       id="clipPath4">
      <path
         d="M 0,0.16 V 1122.5601 H 793.59998 V 0.16 Z"
         clip-rule="evenodd"
         id="path4" />
    </clipPath>
    <clipPath
       clipPathUnits="userSpaceOnUse"
       id="clipPath6">
      <path
         d="M 0,0.16 V 1122.5601 H 793.59998 V 0.16 Z"
         clip-rule="evenodd"
         id="path6" />
    </clipPath>
    <clipPath
       clipPathUnits="userSpaceOnUse"
       id="clipPath8">
      <path
         d="M 0,0.16 V 1122.5601 H 793.59998 V 0.16 Z"
         transform="translate(-169.44,-712.32001)"
         clip-rule="evenodd"
         id="path8" />
    </clipPath>
  </defs>
  <sodipodi:namedview
     id="namedview1"
     pagecolor="#505050"
     bordercolor="#eeeeee"
     borderopacity="1"
     inkscape:showpageshadow="0"
     inkscape:pageopacity="0"
     inkscape:pagecheckerboard="0"
     inkscape:deskcolor="#505050">
    <inkscape:page
       x="0"
       y="0"
       inkscape:label="1"
       id="page1"
       width="498.93332"
       height="300.33334"
       margin="0"
       bleed="0" />
  </sodipodi:namedview>
  <g
     id="g1"
     inkscape:groupmode="layer"
     inkscape:label="1">
    <path
       id="path1"
       d="M 170.24,712.32001 H 623.35998"
       style="fill:none;stroke:#000000;stroke-width:26.4;stroke-linecap:round;stroke-linejoin:round;stroke-miterlimit:10;stroke-dasharray:none;stroke-opacity:1"
       transform="translate(0,-80.093392)"
       clip-path="url(#clipPath2)" />
    <path
       id="path3"
       d="M 396.79999,561.28003 V 712.32001"
       style="fill:none;stroke:#000000;stroke-width:26.4;stroke-linecap:round;stroke-linejoin:round;stroke-miterlimit:10;stroke-dasharray:none;stroke-opacity:1"
       transform="translate(0,-80.093392)"
       clip-path="url(#clipPath4)" />
    <path
       id="path5"
       d="M 510.07999,561.28003 V 712.32001"
       style="fill:none;stroke:#000000;stroke-width:26.4;stroke-linecap:round;stroke-linejoin:round;stroke-miterlimit:10;stroke-dasharray:none;stroke-opacity:1"
       transform="translate(0,-80.093392)"
       clip-path="url(#clipPath6)" />
    <path
       id="path7"
       d="m 0,0 6.08,-9.92 5.92,-9.76 5.92,-9.760001 5.6,-9.76 5.439999,-9.759998 5.280003,-9.600002 5.119999,-9.600003 4.799999,-9.279998 4.799999,-9.279999 4.48,-9.119995 4.159999,-8.960004 4.16,-8.8 3.680004,-8.48 3.680001,-8.48 3.36,-8.16 3.039994,-7.84 2.720001,-7.68 2.560005,-7.36001 2.239998,-7.03999 2.080002,-6.88 1.759994,-6.56 1.440003,-6.24001 1.279998,-5.91999 0.800004,-5.43999 0.639999,-5.28002 0.32,-4.79998 0.159996,-4.48001 -0.32,-4.15999 -0.479996,-3.84001 -0.800003,-3.36001 -1.119995,-3.03999 -1.280006,-2.56 -1.759995,-2.24 L 84,-235.2 l -2.239998,-1.44 -2.400001,-0.96001 -2.720002,-0.63999 -3.040001,-0.15999 -3.199996,0.15999 -3.520005,0.63999 -3.679996,0.96001 -4,1.44 -4.16,1.92 -4.32,2.24001 -4.639999,2.55999 -4.800003,3.04 -5.119999,3.52 -5.119999,3.68 -5.440001,4.16 -5.6,4.64 -5.76,4.8 -5.92,5.28"
       style="fill:none;stroke:#000000;stroke-width:26.4;stroke-linecap:round;stroke-linejoin:round;stroke-miterlimit:10;stroke-dasharray:none;stroke-opacity:1"
       transform="translate(169.44,632.22662)"
       clip-path="url(#clipPath8)" />
  </g>
</svg>
