<?xml version="1.0" encoding="UTF-8" standalone="no"?>
<!-- Created with Inkscape (http://www.inkscape.org/) -->

<svg
   version="1.1"
   id="svg1"
   width="504.26666"
   height="344.38666"
   viewBox="0 0 504.26666 344.38666"
   sodipodi:docname="Soda2.pdf"
   xmlns:inkscape="http://www.inkscape.org/namespaces/inkscape"
   xmlns:sodipodi="http://sodipodi.sourceforge.net/DTD/sodipodi-0.dtd"
   xmlns="http://www.w3.org/2000/svg"
   xmlns:svg="http://www.w3.org/2000/svg">
  <defs
     id="defs1">
    <clipPath
       clipPathUnits="userSpaceOnUse"
       id="clipPath2">
      <path
         d="M 0,0.16 V 1122.5601 H 793.59998 V 0.16 Z"
         clip-rule="evenodd"
         id="path2" />
    </clipPath>
    <clipPath
       clipPathUnits="userSpaceOnUse"
       id="clipPath4">
      <path
         d="M 0,0.16 V 1122.5601 H 793.59998 V 0.16 Z"
         clip-rule="evenodd"
         id="path4" />
    </clipPath>
    <clipPath
       clipPathUnits="userSpaceOnUse"
       id="clipPath6">
      <path
         d="M 0,0.16 V 1122.5601 H 793.59998 V 0.16 Z"
         clip-rule="evenodd"
         id="path6" />
    </clipPath>
    <clipPath
       clipPathUnits="userSpaceOnUse"
       id="clipPath8">
      <path
         d="M 0,0.16 V 1122.5601 H 793.59998 V 0.16 Z"
         transform="translate(-472.32001,-561.28003)"
         clip-rule="evenodd"
         id="path8" />
    </clipPath>
  </defs>
  <sodipodi:namedview
     id="namedview1"
     pagecolor="#505050"
     bordercolor="#eeeeee"
     borderopacity="1"
     inkscape:showpageshadow="0"
     inkscape:pageopacity="0"
     inkscape:pagecheckerboard="0"
     inkscape:deskcolor="#505050">
    <inkscape:page
       x="0"
       y="0"
       inkscape:label="1"
       id="page1"
       width="504.26666"
       height="344.38666"
       margin="0"
       bleed="0" />
  </sodipodi:namedview>
  <g
     id="g1"
     inkscape:groupmode="layer"
     inkscape:label="1">
    <path
       id="path1"
       d="M 170.24,712.32001 H 623.35998"
       style="fill:none;stroke:#000000;stroke-width:26.4;stroke-linecap:round;stroke-linejoin:round;stroke-miterlimit:10;stroke-dasharray:none;stroke-opacity:1"
       transform="translate(0,-14.680059)"
       clip-path="url(#clipPath2)" />
    <path
       id="path3"
       d="m 321.28,485.76001 v 226.56"
       style="fill:none;stroke:#000000;stroke-width:26.4;stroke-linecap:round;stroke-linejoin:round;stroke-miterlimit:10;stroke-dasharray:none;stroke-opacity:1"
       transform="translate(0,-14.680059)"
       clip-path="url(#clipPath4)" />
    <path
       id="path5"
       d="M 472.32001,561.28003 V 712.32001"
       style="fill:none;stroke:#000000;stroke-width:26.4;stroke-linecap:round;stroke-linejoin:round;stroke-miterlimit:10;stroke-dasharray:none;stroke-opacity:1"
       transform="translate(0,-14.680059)"
       clip-path="url(#clipPath6)" />
    <path
       id="path7"
       d="m 0,0 8.32,-0.16 8.16,-0.32 8,-0.48 8.159999,-0.8 L 40.48,-2.72 48.32,-4 l 7.84,-1.44 7.52,-1.6 7.360001,-1.76 7.040001,-2.08 6.879997,-2.24 6.720001,-2.4 6.400002,-2.56 6.079998,-2.719999 5.76,-2.880001 5.44,-3.039999 5.12,-3.200001 4.8,-3.359999 4.32001,-3.52 4.15998,-3.520001 3.52001,-3.68 3.2,-3.84 2.88,-3.84 2.39999,-3.84 1.92,-4 1.44,-4 1.12001,-4.16 0.64,-4 0.15999,-4.159996 L 150.88,-80 l -0.8,-4 -1.11999,-4 L 147.36,-92.160004 145.44,-96 l -2.56,-4 -2.88,-3.84 -3.2,-3.68 -3.68001,-3.68 -4.15998,-3.68 -4.48001,-3.36 -4.8,-3.36 -5.12,-3.2 -5.6,-3.04 -5.76,-2.88 -6.079997,-2.72 -6.560005,-2.56"
       style="fill:none;stroke:#000000;stroke-width:26.4;stroke-linecap:round;stroke-linejoin:round;stroke-miterlimit:10;stroke-dasharray:none;stroke-opacity:1"
       transform="translate(472.32001,546.59997)"
       clip-path="url(#clipPath8)" />
  </g>
</svg>
