<?xml version="1.0" encoding="UTF-8" standalone="no"?>
<!-- Created with Inkscape (http://www.inkscape.org/) -->

<svg
   version="1.1"
   id="svg1"
   width="225.46667"
   height="353.72"
   viewBox="0 0 225.46667 353.72"
   sodipodi:docname="Sphalerite2.pdf"
   xmlns:inkscape="http://www.inkscape.org/namespaces/inkscape"
   xmlns:sodipodi="http://sodipodi.sourceforge.net/DTD/sodipodi-0.dtd"
   xmlns="http://www.w3.org/2000/svg"
   xmlns:svg="http://www.w3.org/2000/svg">
  <defs
     id="defs1">
    <clipPath
       clipPathUnits="userSpaceOnUse"
       id="clipPath2">
      <path
         d="M 0,0.16 V 1122.5601 H 793.59998 V 0.16 Z"
         clip-rule="evenodd"
         id="path2" />
    </clipPath>
    <clipPath
       clipPathUnits="userSpaceOnUse"
       id="clipPath4">
      <path
         d="M 0,0.16 V 1122.5601 H 793.59998 V 0.16 Z"
         clip-rule="evenodd"
         id="path4" />
    </clipPath>
    <clipPath
       clipPathUnits="userSpaceOnUse"
       id="clipPath6">
      <path
         d="M 0,0.16 V 1122.5601 H 793.59998 V 0.16 Z"
         clip-rule="evenodd"
         id="path6" />
    </clipPath>
    <clipPath
       clipPathUnits="userSpaceOnUse"
       id="clipPath8">
      <path
         d="M 0,0.16 V 1122.5601 H 793.59998 V 0.16 Z"
         transform="translate(-306.23999,-712.32001)"
         clip-rule="evenodd"
         id="path8" />
    </clipPath>
    <clipPath
       clipPathUnits="userSpaceOnUse"
       id="clipPath10">
      <path
         d="M 0,0.16 V 1122.5601 H 793.59998 V 0.16 Z"
         transform="translate(-487.51999,-531.03998)"
         clip-rule="evenodd"
         id="path10" />
    </clipPath>
    <clipPath
       clipPathUnits="userSpaceOnUse"
       id="clipPath12">
      <path
         d="M 0,0.16 V 1122.5601 H 793.59998 V 0.16 Z"
         transform="translate(-336.48001,-410.23999)"
         clip-rule="evenodd"
         id="path12" />
    </clipPath>
  </defs>
  <sodipodi:namedview
     id="namedview1"
     pagecolor="#505050"
     bordercolor="#eeeeee"
     borderopacity="1"
     inkscape:showpageshadow="0"
     inkscape:pageopacity="0"
     inkscape:pagecheckerboard="0"
     inkscape:deskcolor="#505050">
    <inkscape:page
       x="0"
       y="0"
       inkscape:label="1"
       id="page1"
       width="225.46667"
       height="353.72"
       margin="0"
       bleed="0" />
  </sodipodi:namedview>
  <g
     id="g1"
     inkscape:groupmode="layer"
     inkscape:label="1">
    <path
       id="path1"
       d="m 306.23999,531.03998 h 181.28"
       style="fill:none;stroke:#000000;stroke-width:26.4;stroke-linecap:round;stroke-linejoin:round;stroke-miterlimit:10;stroke-dasharray:none;stroke-opacity:1"
       transform="translate(0,2.6799413)"
       clip-path="url(#clipPath2)" />
    <path
       id="path3"
       d="m 306.23999,712.32001 h 181.28"
       style="fill:none;stroke:#000000;stroke-width:26.4;stroke-linecap:round;stroke-linejoin:round;stroke-miterlimit:10;stroke-dasharray:none;stroke-opacity:1"
       transform="translate(0,2.6799413)"
       clip-path="url(#clipPath4)" />
    <path
       id="path5"
       d="M 396.79999,470.72 V 712.32001"
       style="fill:none;stroke:#000000;stroke-width:26.4;stroke-linecap:round;stroke-linejoin:round;stroke-miterlimit:10;stroke-dasharray:none;stroke-opacity:1"
       transform="translate(0,2.6799413)"
       clip-path="url(#clipPath6)" />
    <path
       id="path7"
       d="m 0,0 4.64,-6.56 4.32,-6.88 4,-7.04 3.52,-7.36 3.2,-7.360001 2.72,-7.68 2.399999,-7.68 1.92,-7.840001 1.600001,-8 0.960001,-8 0.639999,-8.159996 0.32,-8 -0.32,-8.160003 -0.639999,-7.999999 -0.960001,-8.16 -1.600001,-7.84 -1.92,-7.84 -2.399999,-7.83999 -2.72,-7.52001 -3.2,-7.52 -3.52,-7.2 -4,-7.2 -4.32,-6.72 -4.64,-6.72"
       style="fill:none;stroke:#000000;stroke-width:26.4;stroke-linecap:round;stroke-linejoin:round;stroke-miterlimit:10;stroke-dasharray:none;stroke-opacity:1"
       transform="translate(306.23999,714.99995)"
       clip-path="url(#clipPath8)" />
    <path
       id="path9"
       d="m 0,0 -4.8,6.72 -4.32,6.72 -3.84,7.199999 -3.679999,7.200001 -3.040001,7.520001 -2.879999,7.52 -2.24,7.84 -1.92,7.84 -1.600001,7.840001 -1.120001,8.159996 -0.639999,8 -0.16,8.160003 0.16,8 0.639999,8.159999 1.120001,8 1.600001,8 1.92,7.84 2.24,7.67999 2.879999,7.68001 3.040001,7.36 3.679999,7.36 3.84,7.04 4.32,6.88 4.8,6.56"
       style="fill:none;stroke:#000000;stroke-width:26.4;stroke-linecap:round;stroke-linejoin:round;stroke-miterlimit:10;stroke-dasharray:none;stroke-opacity:1"
       transform="translate(487.51999,533.71992)"
       clip-path="url(#clipPath10)" />
    <path
       id="path11"
       d="m 0,0 0.16,4.8 0.48,4.64 0.96,4.64 1.28,4.639999 1.6,4.480002 2.08,4.319999 2.24,4 2.72,4 2.88,3.680001 3.2,3.52 3.520001,3.199997 3.679998,3.040001 4,2.560001 4.16,2.399998 4.32,1.920002 4.479999,1.599999 4.480004,1.280002 4.639999,0.959999 4.799999,0.64 4.64,0.16 4.800003,-0.16 4.639999,-0.64 4.64,-0.959999 4.639999,-1.280002 L 83.519997,55.84 87.839996,53.919998 92,51.52 95.839996,48.959999 99.68,45.919998 l 3.36,-3.199997 3.2,-3.52 3.04,-3.680001 2.56,-4 2.4,-4 1.92,-4.319999 1.6,-4.480002 L 119.04,14.08 120,9.44 120.64,4.8 120.8,0"
       style="fill:none;stroke:#000000;stroke-width:26.4;stroke-linecap:round;stroke-linejoin:round;stroke-miterlimit:10;stroke-dasharray:none;stroke-opacity:1"
       transform="translate(336.48001,412.91993)"
       clip-path="url(#clipPath12)" />
  </g>
</svg>
