<?xml version="1.0" encoding="UTF-8" standalone="no"?>
<!-- Created with Inkscape (http://www.inkscape.org/) -->

<svg
   version="1.1"
   id="svg1"
   width="257.46667"
   height="475.18668"
   viewBox="0 0 257.46667 475.18668"
   sodipodi:docname="Sublimate16.pdf"
   xmlns:inkscape="http://www.inkscape.org/namespaces/inkscape"
   xmlns:sodipodi="http://sodipodi.sourceforge.net/DTD/sodipodi-0.dtd"
   xmlns="http://www.w3.org/2000/svg"
   xmlns:svg="http://www.w3.org/2000/svg">
  <defs
     id="defs1">
    <clipPath
       clipPathUnits="userSpaceOnUse"
       id="clipPath2">
      <path
         d="M 0,0.16 V 1122.5601 H 793.59998 V 0.16 Z"
         transform="translate(-457.28,-478.23999)"
         clip-rule="evenodd"
         id="path2" />
    </clipPath>
    <clipPath
       clipPathUnits="userSpaceOnUse"
       id="clipPath4">
      <path
         d="M 0,0.16 V 1122.5601 H 793.59998 V 0.16 Z"
         transform="translate(-457.28,-599.12)"
         clip-rule="evenodd"
         id="path4" />
    </clipPath>
    <clipPath
       clipPathUnits="userSpaceOnUse"
       id="clipPath6">
      <path
         d="M 0,0.16 V 1122.5601 H 793.59998 V 0.16 Z"
         transform="translate(-3.3333333e-6)"
         clip-rule="evenodd"
         id="path6" />
    </clipPath>
    <clipPath
       clipPathUnits="userSpaceOnUse"
       id="clipPath8">
      <path
         d="M 0,0.16 V 1122.5601 H 793.59998 V 0.16 Z"
         transform="translate(-3.3333333e-6)"
         clip-rule="evenodd"
         id="path8" />
    </clipPath>
    <clipPath
       clipPathUnits="userSpaceOnUse"
       id="clipPath10">
      <path
         d="M 0,0.16 V 1122.5601 H 793.59998 V 0.16 Z"
         transform="translate(-442.07998,-387.67999)"
         clip-rule="evenodd"
         id="path10" />
    </clipPath>
    <clipPath
       clipPathUnits="userSpaceOnUse"
       id="clipPath12">
      <path
         d="M 0,0.16 V 1122.5601 H 793.59998 V 0.16 Z"
         transform="translate(-3.3333333e-6)"
         clip-rule="evenodd"
         id="path12" />
    </clipPath>
    <clipPath
       clipPathUnits="userSpaceOnUse"
       id="clipPath14">
      <path
         d="M 0,0.16 V 1122.5601 H 793.59998 V 0.16 Z"
         transform="translate(-3.3333333e-6)"
         clip-rule="evenodd"
         id="path14" />
    </clipPath>
  </defs>
  <sodipodi:namedview
     id="namedview1"
     pagecolor="#505050"
     bordercolor="#eeeeee"
     borderopacity="1"
     inkscape:showpageshadow="0"
     inkscape:pageopacity="0"
     inkscape:pagecheckerboard="0"
     inkscape:deskcolor="#505050">
    <inkscape:page
       x="0"
       y="0"
       inkscape:label="1"
       id="page1"
       width="257.46667"
       height="475.18668"
       margin="0"
       bleed="0" />
  </sodipodi:namedview>
  <g
     id="g1"
     inkscape:groupmode="layer"
     inkscape:label="1">
    <path
       id="path1"
       d="m 0,0 c 0,-33.400002 -27.040001,-60.48 -60.400002,-60.48 -33.36,0 -60.399998,27.079998 -60.399998,60.48 0,33.400002 27.039998,60.48 60.399998,60.48 C -27.040001,60.48 0,33.400002 0,0 Z"
       style="fill:none;stroke:#000000;stroke-width:26.4;stroke-linecap:round;stroke-linejoin:round;stroke-miterlimit:10;stroke-dasharray:none;stroke-opacity:1"
       transform="translate(186.46667,157.89326)"
       clip-path="url(#clipPath2)" />
    <path
       id="path3"
       d="m 0,0 c 0,-33.400002 -27.040001,-60.48 -60.400002,-60.48 -33.36,0 -60.399998,27.079998 -60.399998,60.48 0,33.400002 27.039998,60.48 60.399998,60.48 C -27.040001,60.48 0,33.400002 0,0 Z"
       style="fill:none;stroke:#000000;stroke-width:26.4;stroke-linecap:round;stroke-linejoin:round;stroke-miterlimit:10;stroke-dasharray:none;stroke-opacity:1"
       transform="translate(186.46667,278.77327)"
       clip-path="url(#clipPath4)" />
    <path
       id="path5"
       d="M 396.79999,659.52002 V 780.32001"
       style="fill:none;stroke:#000000;stroke-width:26.4;stroke-linecap:round;stroke-linejoin:round;stroke-miterlimit:10;stroke-dasharray:none;stroke-opacity:1"
       transform="translate(-270.81333,-320.34673)"
       clip-path="url(#clipPath6)" />
    <path
       id="path7"
       d="m 351.51999,719.84003 h 90.56"
       style="fill:none;stroke:#000000;stroke-width:26.4;stroke-linecap:round;stroke-linejoin:round;stroke-miterlimit:10;stroke-dasharray:none;stroke-opacity:1"
       transform="translate(-270.81333,-320.34673)"
       clip-path="url(#clipPath8)" />
    <path
       id="path9"
       d="m 0,0 -0.16,-4 -0.48,-4 -0.8,-3.84 -1.28,-3.68 -1.44,-3.680001 -1.76,-3.519998 -2.24,-3.360001 -2.4,-3.040001 -2.56,-3.039999 -3.04,-2.560001 -3.040001,-2.399998 -3.359998,-2.240002 -3.520001,-1.759998 -3.68,-1.600002 -3.679999,-1.119999 -4,-0.799999 -3.84,-0.64 -4,-0.16 -3.84,0.16 -4,0.64 -3.84,0.799999 -3.84,1.119999 -3.520001,1.600002 -3.519996,1.759998 -3.360001,2.240002 -3.200005,2.399998 L -77.279999,-32.16 -80,-29.120001 -82.400002,-26.08 l -2.080001,3.360001 -1.759995,3.519998 -1.599998,3.680001 -1.120003,3.68 -0.959999,3.84 -0.480004,4 -0.159996,4"
       style="fill:none;stroke:#000000;stroke-width:26.4;stroke-linecap:round;stroke-linejoin:round;stroke-miterlimit:10;stroke-dasharray:none;stroke-opacity:1"
       transform="translate(171.26665,67.333268)"
       clip-path="url(#clipPath10)" />
    <path
       id="path11"
       d="m 291.20001,387.67999 h 60.31998"
       style="fill:none;stroke:#000000;stroke-width:26.4;stroke-linecap:round;stroke-linejoin:round;stroke-miterlimit:10;stroke-dasharray:none;stroke-opacity:1"
       transform="translate(-270.81333,-320.34673)"
       clip-path="url(#clipPath12)" />
    <path
       id="path13"
       d="M 442.07999,387.67999 H 502.56"
       style="fill:none;stroke:#000000;stroke-width:26.4;stroke-linecap:round;stroke-linejoin:round;stroke-miterlimit:10;stroke-dasharray:none;stroke-opacity:1"
       transform="translate(-270.81333,-320.34673)"
       clip-path="url(#clipPath14)" />
  </g>
</svg>
