<?xml version="1.0" encoding="UTF-8" standalone="no"?>
<!-- Created with Inkscape (http://www.inkscape.org/) -->

<svg
   version="1.1"
   id="svg1"
   width="386.88"
   height="448.49332"
   viewBox="0 0 386.88 448.49332"
   sodipodi:docname="Sublimate17.pdf"
   xmlns:inkscape="http://www.inkscape.org/namespaces/inkscape"
   xmlns:sodipodi="http://sodipodi.sourceforge.net/DTD/sodipodi-0.dtd"
   xmlns="http://www.w3.org/2000/svg"
   xmlns:svg="http://www.w3.org/2000/svg">
  <defs
     id="defs1">
    <clipPath
       clipPathUnits="userSpaceOnUse"
       id="clipPath2">
      <path
         d="M 0,0.16 V 1122.5601 H 793.59998 V 0.16 Z"
         transform="translate(-505.44001,-448)"
         clip-rule="evenodd"
         id="path2" />
    </clipPath>
    <clipPath
       clipPathUnits="userSpaceOnUse"
       id="clipPath4">
      <path
         d="M 0,0.16 V 1122.5601 H 793.59998 V 0.16 Z"
         transform="translate(-566.71997,-391.35998)"
         clip-rule="evenodd"
         id="path4" />
    </clipPath>
    <clipPath
       clipPathUnits="userSpaceOnUse"
       id="clipPath6">
      <path
         d="M 0,0.16 V 1122.5601 H 793.59998 V 0.16 Z"
         transform="translate(-528.96003,-617.91998)"
         clip-rule="evenodd"
         id="path6" />
    </clipPath>
    <clipPath
       clipPathUnits="userSpaceOnUse"
       id="clipPath8">
      <path
         d="M 0,0.16 V 1122.5601 H 793.59998 V 0.16 Z"
         transform="translate(3.3333333e-6)"
         clip-rule="evenodd"
         id="path8" />
    </clipPath>
    <clipPath
       clipPathUnits="userSpaceOnUse"
       id="clipPath10">
      <path
         d="M 0,0.16 V 1122.5601 H 793.59998 V 0.16 Z"
         transform="translate(3.3333333e-6)"
         clip-rule="evenodd"
         id="path10" />
    </clipPath>
  </defs>
  <sodipodi:namedview
     id="namedview1"
     pagecolor="#505050"
     bordercolor="#eeeeee"
     borderopacity="1"
     inkscape:showpageshadow="0"
     inkscape:pageopacity="0"
     inkscape:pagecheckerboard="0"
     inkscape:deskcolor="#505050">
    <inkscape:page
       x="0"
       y="0"
       inkscape:label="1"
       id="page1"
       width="386.88"
       height="448.49332"
       margin="0"
       bleed="0" />
  </sodipodi:namedview>
  <g
     id="g1"
     inkscape:groupmode="layer"
     inkscape:label="1">
    <path
       id="path1"
       d="m 0,0 c 0,-18.290001 -14.82,-33.119999 -33.119999,-33.119999 -18.299999,0 -33.119999,14.829998 -33.119999,33.119999 0,18.290001 14.82,33.119999 33.119999,33.119999 C -14.82,33.119999 0,18.290001 0,0 Z"
       style="fill:none;stroke:#000000;stroke-width:26.4;stroke-linecap:round;stroke-linejoin:round;stroke-miterlimit:10;stroke-dasharray:none;stroke-opacity:1"
       transform="translate(301.33334,115.63994)"
       clip-path="url(#clipPath2)" />
    <path
       id="path3"
       d="m 0,0 c 0,-20.85 -16.9,-37.759998 -37.759998,-37.759998 -20.860001,0 -37.759999,16.909998 -37.759999,37.759998 0,20.85 16.899998,37.759998 37.759999,37.759998 C -16.9,37.759998 0,20.85 0,0 Z"
       style="fill:none;stroke:#000000;stroke-width:26.4;stroke-linecap:round;stroke-linejoin:round;stroke-miterlimit:10;stroke-dasharray:none;stroke-opacity:1"
       transform="translate(362.6133,58.999926)"
       clip-path="url(#clipPath4)" />
    <path
       id="path5"
       d="m 0,0 -0.16,-8.16 -0.64,-8.16 -1.12,-8.16 -1.6,-8 -1.92,-7.84 -2.4,-7.84 -2.88,-7.68 -3.2,-7.520001 -3.68,-7.36 -4,-7.199997 -4.32,-6.880005 -4.799999,-6.559998 -5.120001,-6.400001 -5.439999,-6.079998 -5.920002,-5.76 -6.079998,-5.44 -6.240001,-5.12 -6.719998,-4.8 -6.880005,-4.48 -7.199997,-4 -7.199997,-3.67999 -7.520004,-3.20002 -7.679999,-2.71998 -7.84,-2.40001 -8,-2.08 -8,-1.44001 -8.16,-1.11999 -8.16,-0.64 -8.15999,-0.31999 -8.16001,0.31999 -8.16,0.64 -8,1.11999 -8.16,1.44001 -7.84,2.08 -7.84,2.40001 -7.68,2.71998 -7.51999,3.20002 -7.36,3.67999 -7.04001,4 -6.87999,4.48 -6.72,4.8 -6.40001,5.12 -6.08,5.44 -5.76001,5.76 -5.43998,6.079998 -5.12002,6.400001 -4.79999,6.559998 -4.32001,6.880005 -4.16,7.199997 -3.51999,7.36 -3.35999,7.520001 -2.72,7.68 -2.40002,7.84 -2.07999,7.84 -1.44,8 -1.12,8.16 -0.64001,8.16 -0.31998,8.16"
       style="fill:none;stroke:#000000;stroke-width:26.4;stroke-linecap:round;stroke-linejoin:round;stroke-miterlimit:10;stroke-dasharray:none;stroke-opacity:1"
       transform="translate(324.85336,285.55992)"
       clip-path="url(#clipPath6)" />
    <path
       id="path7"
       d="M 226.88,617.91998 V 768.96002"
       style="fill:none;stroke:#000000;stroke-width:26.4;stroke-linecap:round;stroke-linejoin:round;stroke-miterlimit:10;stroke-dasharray:none;stroke-opacity:1"
       transform="translate(-204.10667,-332.36006)"
       clip-path="url(#clipPath8)" />
    <path
       id="path9"
       d="M 528.96002,617.91998 V 768.96002"
       style="fill:none;stroke:#000000;stroke-width:26.4;stroke-linecap:round;stroke-linejoin:round;stroke-miterlimit:10;stroke-dasharray:none;stroke-opacity:1"
       transform="translate(-204.10667,-332.36006)"
       clip-path="url(#clipPath10)" />
  </g>
</svg>
