<?xml version="1.0" encoding="UTF-8" standalone="no"?>
<!-- Created with Inkscape (http://www.inkscape.org/) -->

<svg
   version="1.1"
   id="svg1"
   width="204.10667"
   height="348.38666"
   viewBox="0 0 204.10667 348.38666"
   sodipodi:docname="Sublimate19.pdf"
   xmlns:inkscape="http://www.inkscape.org/namespaces/inkscape"
   xmlns:sodipodi="http://sodipodi.sourceforge.net/DTD/sodipodi-0.dtd"
   xmlns="http://www.w3.org/2000/svg"
   xmlns:svg="http://www.w3.org/2000/svg">
  <defs
     id="defs1">
    <clipPath
       clipPathUnits="userSpaceOnUse"
       id="clipPath2">
      <path
         d="M 0,0.16 V 1122.5601 H 793.59998 V 0.16 Z"
         clip-rule="evenodd"
         id="path2" />
    </clipPath>
    <clipPath
       clipPathUnits="userSpaceOnUse"
       id="clipPath4">
      <path
         d="M 0,0.16 V 1122.5601 H 793.59998 V 0.16 Z"
         clip-rule="evenodd"
         id="path4" />
    </clipPath>
    <clipPath
       clipPathUnits="userSpaceOnUse"
       id="clipPath6">
      <path
         d="M 0,0.16 V 1122.5601 H 793.59998 V 0.16 Z"
         transform="translate(-307.35999,-627.35999)"
         clip-rule="evenodd"
         id="path6" />
    </clipPath>
    <clipPath
       clipPathUnits="userSpaceOnUse"
       id="clipPath8">
      <path
         d="M 0,0.16 V 1122.5601 H 793.59998 V 0.16 Z"
         transform="translate(-172.48,-491.35999)"
         clip-rule="evenodd"
         id="path8" />
    </clipPath>
  </defs>
  <sodipodi:namedview
     id="namedview1"
     pagecolor="#505050"
     bordercolor="#eeeeee"
     borderopacity="1"
     inkscape:showpageshadow="0"
     inkscape:pageopacity="0"
     inkscape:pagecheckerboard="0"
     inkscape:deskcolor="#505050">
    <inkscape:page
       x="0"
       y="0"
       inkscape:label="1"
       id="page1"
       width="204.10667"
       height="348.38666"
       margin="0"
       bleed="0" />
  </sodipodi:namedview>
  <g
     id="g1"
     inkscape:groupmode="layer"
     inkscape:label="1">
    <path
       id="path1"
       d="m 239.52,769.59998 v -136"
       style="fill:none;stroke:#000000;stroke-width:26.4;stroke-linecap:round;stroke-linejoin:round;stroke-miterlimit:10;stroke-dasharray:none;stroke-opacity:1"
       transform="translate(0,-128.14673)"
       clip-path="url(#clipPath2)" />
    <path
       id="path3"
       d="M 171.52,701.59998 H 307.51999"
       style="fill:none;stroke:#000000;stroke-width:26.4;stroke-linecap:round;stroke-linejoin:round;stroke-miterlimit:10;stroke-dasharray:none;stroke-opacity:1"
       transform="translate(0,-128.14673)"
       clip-path="url(#clipPath4)" />
    <path
       id="path5"
       d="m 0,0 v -5.12 l -0.64,-4.96 -0.96,-4.96 -1.28,-4.96 -1.76,-4.799999 -1.92,-4.640002 -2.4,-4.479997 -2.72,-4.320004 -3.04,-4.16 -3.36,-3.84 -3.52,-3.519996 -3.840001,-3.360001 L -29.6,-56.16 l -4.319998,-2.720001 -4.480004,-2.399998 -4.639999,-1.920002 -4.799999,-1.759998 -4.799999,-1.279999 -5.119999,-0.959999 -4.960003,-0.480003 -5.119995,-0.32 -5.120003,0.32 -4.959999,0.480003 -4.959999,0.959999 -4.959999,1.279999 -4.800003,1.759998 -4.64,1.920002 -4.480001,2.399998 -4.32,2.720001 -4.16,3.040001 -3.84,3.360001 -3.52,3.519996 -3.36,3.84 -3.04,4.16 -2.72,4.320004 -2.39999,4.479997 -1.92,4.640002 L -132.8,-20 l -1.28,4.96 -0.95999,4.96 -0.64,4.96 L -135.84,0"
       style="fill:none;stroke:#000000;stroke-width:26.4;stroke-linecap:round;stroke-linejoin:round;stroke-miterlimit:10;stroke-dasharray:none;stroke-opacity:1"
       transform="translate(307.35999,499.21326)"
       clip-path="url(#clipPath6)" />
    <path
       id="path7"
       d="m 0,0 0.16,5.12 0.64,4.96 0.96,4.8 1.28,4.8 1.6,4.8 1.92,4.479999 2.4,4.48 2.56,4.159999 3.04,4.16 3.2,3.680001 3.520001,3.52 3.679998,3.360001 4,2.880001 4.32,2.719997 L 37.599998,60.32 42.240002,62.240002 46.880001,64 51.68,65.279999 l 4.959999,0.959999 4.959999,0.639999 4.96,0.160004 4.959999,-0.160004 4.960006,-0.479995 4.799996,-0.800004 4.959999,-1.279998 4.639999,-1.599999 4.64,-1.920002 L 100,58.560001 104.16,55.84 l 4,-2.880001 3.84,-3.200001 3.68,-3.519996 3.2,-3.680001 3.04,-4 2.72,-4.159999 2.4,-4.320002 2.07999,-4.639999 L 130.72,20.799999 132.16,16 l 0.95999,-4.96"
       style="fill:none;stroke:#000000;stroke-width:26.4;stroke-linecap:round;stroke-linejoin:round;stroke-miterlimit:10;stroke-dasharray:none;stroke-opacity:1"
       transform="translate(172.48,363.21326)"
       clip-path="url(#clipPath8)" />
  </g>
</svg>
