<?xml version="1.0" encoding="UTF-8" standalone="no"?>
<!-- Created with Inkscape (http://www.inkscape.org/) -->

<svg
   version="1.1"
   id="svg1"
   width="524.28003"
   height="400.44"
   viewBox="0 0 524.28003 400.44"
   sodipodi:docname="Sugar.pdf"
   xmlns:inkscape="http://www.inkscape.org/namespaces/inkscape"
   xmlns:sodipodi="http://sodipodi.sourceforge.net/DTD/sodipodi-0.dtd"
   xmlns="http://www.w3.org/2000/svg"
   xmlns:svg="http://www.w3.org/2000/svg">
  <defs
     id="defs1">
    <clipPath
       clipPathUnits="userSpaceOnUse"
       id="clipPath4">
      <path
         d="M 0,0.16 V 1122.5601 H 793.59998 V 0.16 Z"
         clip-rule="evenodd"
         id="path4" />
    </clipPath>
    <clipPath
       clipPathUnits="userSpaceOnUse"
       id="clipPath6">
      <path
         d="M 0,0.16 V 1122.5601 H 793.59998 V 0.16 Z"
         clip-rule="evenodd"
         id="path6" />
    </clipPath>
  </defs>
  <sodipodi:namedview
     id="namedview1"
     pagecolor="#505050"
     bordercolor="#eeeeee"
     borderopacity="1"
     inkscape:showpageshadow="0"
     inkscape:pageopacity="0"
     inkscape:pagecheckerboard="0"
     inkscape:deskcolor="#505050">
    <inkscape:page
       x="0"
       y="0"
       inkscape:label="1"
       id="page1"
       width="524.28003"
       height="400.44"
       margin="0"
       bleed="0" />
  </sodipodi:namedview>
  <g
     id="g1"
     inkscape:groupmode="layer"
     inkscape:label="1">
    <path
       id="path1"
       d="m 0,0 c 12,0 21.92,0.8 29.76,2.08 7.839998,1.28 15.999998,3.2 24.159998,5.44 8.320004,2.4 18.560005,5.12 30.880005,8.16 2.399994,14.56 4.159996,29.599999 5.439995,45.279999 1.440002,15.520004 2.240005,27.200005 2.720001,34.879997 0.32,1.920006 -0.959999,3.360001 -4.159996,4.320004 -3.040001,0.96 -5.440002,1.44 -7.360001,1.44 -2.720001,0 -4.800003,-0.8 -6.400001,-2.400003 C 74.239998,92.32 72,84.32 68.160004,75.040001 64.32,65.760002 59.040001,56.959999 52.32,48.48 45.599998,40 37.439999,33.119999 28,27.52 18.559999,21.92 8,19.040001 -4,19.040001 c -15.360001,0 -27.52,3.359999 -36.32,9.919998 -8.799999,6.560001 -15.2,14.560001 -19.040001,24.16 -3.84,9.600002 -5.760002,19.040005 -5.760002,28.320003 0,14.879998 4.000004,27.359998 11.840004,37.439998 7.84,9.92 17.919998,18.87999 29.919998,26.56 C -11.2,153.11999 0.96,160.96001 13.28,168.96001 22.559999,174.88 32.799999,181.11999 43.84,188 c 11.200001,7.03999 21.920002,14.72 32.320004,23.2 10.399994,8.32 18.879997,18.08 25.439996,29.12001 6.56,10.87999 9.76,23.35998 9.76,37.11999 0,20.32001 -5.6,38.4 -16.959998,53.91999 C 83.040001,346.88 68.480003,359.04001 50.560001,367.67999 32.639999,376.32001 13.76,380.64001 -6.24,380.64001 c -18.880001,0 -36.960001,-2.08001 -54.559999,-6.24002 C -78.239998,370.07999 -93.919998,366.56 -107.84,364 c -2.24,-11.20001 -4.32,-23.04001 -5.92,-35.84 -1.76,-12.64001 -3.2,-23.83999 -4.16,-33.44 -0.96,-9.6 -1.44,-15.51999 -1.44,-17.92001 1.92,-1.91999 4.16,-3.51999 6.72,-4.79999 2.4,-1.44 5.12,-2.07999 7.68,-2.07999 3.52,0 5.599999,1.75998 6.400002,5.28 1.119996,5.28 3.519997,12.79999 7.199997,22.07999 3.680001,9.44 9.120003,19.20001 16.160004,29.11999 7.199997,10.08002 16.319996,18.4 27.679997,25.12 11.36,6.72 25.44,10.08002 42.4,10.08002 18.08,0 33.759999,-6.08002 47.360002,-18.08002 13.439998,-12.16 20.16,-29.12 20.16,-51.03998 0,-15.84 -3.680001,-28.16 -10.720002,-36.96001 C 44.639999,246.72 35.360001,239.03999 24,232.48 12.64,225.92 0.48,219.03999 -12.64,211.67999 c -14.239999,-8.47999 -28.959998,-17.75999 -44.159999,-28 -15.039997,-10.07998 -27.84,-22.07998 -38.240002,-36 C -105.44,133.92 -110.72,117.6 -110.72,98.720001 c 0,-20 5.28,-37.440002 15.999999,-52.16 C -84.160004,31.68 -70.400002,20.32 -53.599998,12.16 -36.639999,4.16 -18.719999,0 0,0 Z"
       style="fill:#000000;fill-opacity:1;fill-rule:nonzero;stroke:none"
       transform="translate(136.40001,7.5999393)" />
    <path
       id="path2"
       d="m 0,0 c 12,0 21.92,0.64 29.76,2.08 7.839998,1.28 15.999998,3.2 24.159998,5.44 8.320004,2.24 18.560005,4.96 30.880005,8 2.239998,14.72 4.159996,29.759999 5.439995,45.279999 C 91.68,76.480003 92.480003,88 92.800003,95.68 c 0.479996,1.919998 -0.960007,3.360001 -4,4.32 -3.040001,0.96 -5.600006,1.44 -7.520004,1.44 -2.559998,0 -4.799996,-0.64 -6.239998,-2.240003 C 74.239998,92.32 72,84.160004 68,75.040001 64.160004,65.760002 58.880001,56.959999 52.16,48.48 45.439999,40 37.439999,32.959999 28,27.360001 c -9.440001,-5.440001 -20.16,-8.32 -32,-8.32 -15.360001,0 -27.52,3.359999 -36.32,9.759998 -8.799999,6.560002 -15.2,14.720001 -19.040001,24.32 -3.84,9.600002 -5.760002,19.040005 -5.760002,28.16 0,15.040001 4.000004,27.520001 11.840004,37.600001 7.84,9.92 17.919998,18.72001 29.919998,26.4 C -11.2,152.96001 0.96,160.96001 13.28,168.96001 22.559999,174.72 32.639999,181.11999 43.84,188 55.040001,194.88 65.760002,202.56 76.160004,211.03999 86.559998,219.52 95.040001,229.28 101.6,240.16 c 6.4,11.04 9.76,23.35999 9.76,37.28 0,20.32001 -5.76,38.23999 -17.120002,53.91999 C 83.040001,346.88 68.32,359.04001 50.560001,367.67999 32.639999,376.32001 13.76,380.64001 -6.24,380.64001 c -18.880001,0 -37.120001,-2.08001 -54.559999,-6.40002 -17.439999,-4.16 -33.119999,-7.67999 -47.040001,-10.39999 -2.24,-11.04001 -4.32,-23.04001 -6.08,-35.68 -1.6,-12.64001 -3.04,-23.83999 -4,-33.44 -0.96,-9.6 -1.44,-15.51999 -1.44,-17.92001 1.92,-1.91999 4.16,-3.51999 6.72,-4.79999 2.4,-1.44 4.96,-2.07999 7.68,-2.07999 3.52,0 5.599999,1.75998 6.400002,5.12 1.119996,5.44 3.519997,12.79999 7.199997,22.23999 3.680001,9.44 8.959999,19.20001 16.160004,29.11999 7.039993,10.08002 16.319996,18.4 27.679997,25.12 11.36,6.72 25.44,10.08002 42.4,10.08002 18.08,0 33.759999,-6.08002 47.200002,-18.24002 13.439998,-12 20.16,-29.12 20.16,-51.03998 0,-15.68 -3.520001,-28 -10.560002,-36.80001 C 44.48,246.72 35.360001,238.88 24,232.48 12.64,225.92 0.48,219.03999 -12.64,211.67999 -26.879999,203.2 -41.599998,193.92 -56.799999,183.67999 -72,173.44 -84.800003,161.44 -95.040001,147.67999 -105.44,133.75999 -110.72,117.44 -110.72,98.559998 c 0,-19.839997 5.28,-37.279999 15.840003,-52.159996 C -84.32,31.68 -70.559998,20.16 -53.599998,12.16 -36.639999,4 -18.879999,0 0,0 Z"
       style="fill:#000000;fill-opacity:1;fill-rule:nonzero;stroke:none"
       transform="translate(386.32,8.3999263)" />
    <path
       id="path3"
       d="M 271.51999,447.04001 H 753.44"
       style="fill:none;stroke:#000000;stroke-width:26.4;stroke-linecap:round;stroke-linejoin:round;stroke-miterlimit:10;stroke-dasharray:none;stroke-opacity:1"
       transform="translate(-250.8,-266.96006)"
       clip-path="url(#clipPath4)" />
    <path
       id="path5"
       d="M 268.32001,492.95999 H 750.40002"
       style="fill:none;stroke:#000000;stroke-width:26.4;stroke-linecap:round;stroke-linejoin:round;stroke-miterlimit:10;stroke-dasharray:none;stroke-opacity:1"
       transform="translate(-250.8,-266.96006)"
       clip-path="url(#clipPath6)" />
  </g>
</svg>
