<?xml version="1.0" encoding="UTF-8" standalone="no"?>
<!-- Created with Inkscape (http://www.inkscape.org/) -->

<svg
   version="1.1"
   id="svg1"
   width="358.86667"
   height="499.21332"
   viewBox="0 0 358.86667 499.21332"
   sodipodi:docname="Tartar18.pdf"
   xmlns:inkscape="http://www.inkscape.org/namespaces/inkscape"
   xmlns:sodipodi="http://sodipodi.sourceforge.net/DTD/sodipodi-0.dtd"
   xmlns="http://www.w3.org/2000/svg"
   xmlns:svg="http://www.w3.org/2000/svg">
  <defs
     id="defs1">
    <clipPath
       clipPathUnits="userSpaceOnUse"
       id="clipPath2">
      <path
         d="M 0,0.16 V 1122.5601 H 793.59998 V 0.16 Z"
         transform="translate(-386.72,-587.67999)"
         clip-rule="evenodd"
         id="path2" />
    </clipPath>
    <clipPath
       clipPathUnits="userSpaceOnUse"
       id="clipPath4">
      <path
         d="M 0,0.16 V 1122.5601 H 793.59998 V 0.16 Z"
         transform="translate(-335.51999,-827.03998)"
         clip-rule="evenodd"
         id="path4" />
    </clipPath>
    <clipPath
       clipPathUnits="userSpaceOnUse"
       id="clipPath6">
      <path
         d="M 0,0.16 V 1122.5601 H 793.59998 V 0.16 Z"
         transform="translate(-386.72,-587.67999)"
         clip-rule="evenodd"
         id="path6" />
    </clipPath>
    <clipPath
       clipPathUnits="userSpaceOnUse"
       id="clipPath8">
      <path
         d="M 0,0.16 V 1122.5601 H 793.59998 V 0.16 Z"
         clip-rule="evenodd"
         id="path8" />
    </clipPath>
  </defs>
  <sodipodi:namedview
     id="namedview1"
     pagecolor="#505050"
     bordercolor="#eeeeee"
     borderopacity="1"
     inkscape:showpageshadow="0"
     inkscape:pageopacity="0"
     inkscape:pagecheckerboard="0"
     inkscape:deskcolor="#505050">
    <inkscape:page
       x="0"
       y="0"
       inkscape:label="1"
       id="page1"
       width="358.86667"
       height="499.21332"
       margin="0"
       bleed="0" />
  </sodipodi:namedview>
  <g
     id="g1"
     inkscape:groupmode="layer"
     inkscape:label="1">
    <path
       id="path1"
       d="m 0,0 7.36,-5.92 7.2,-6.24 6.880001,-6.24 6.719999,-6.239999 6.400001,-6.400002 6.079998,-6.559997 L 46.560001,-44.16 52.16,-50.720001 57.439999,-57.439999 62.400002,-64 l 4.639999,-6.720001 4.159996,-6.559998 4,-6.559997 3.520004,-6.400002 3.199997,-6.560005 2.880005,-6.239997 2.399994,-6.24 2.080002,-6.08 1.599998,-6.08 1.280007,-5.76 0.799995,-5.76001 0.480003,-5.43998 v -5.28 l -0.480003,-5.12001 -0.799995,-4.95999 -1.120003,-4.64 -1.599999,-4.48001 -2.080001,-4.15999 -2.239998,-4 -2.880005,-3.68001 -3.040001,-3.36 -3.68,-3.03999 L 71.68,-184 l -4.160003,-2.56 -4.639996,-2.24 -4.960003,-1.92 -5.119999,-1.60001 -5.599998,-1.11999 -5.920002,-0.95999 -6.079998,-0.64 -6.400002,-0.32001 H 22.24 l -6.88,0.32001 -7.2,0.64 -7.2,0.95999 -7.52,1.28 -7.68,1.76001 -7.84,1.91999 -7.84,2.24 -7.999998,2.56001 -8.160004,2.87999 -8.16,3.04001 -8.319999,3.51999 -8.319996,3.68 -8.32,4 -8.160004,4.16001 -8.319999,4.47999 -8.16,4.64 -8.16,4.95999 -8,5.12001 -8,5.28 -7.84,5.59999 -7.68,5.76001 -7.51999,5.76"
       style="fill:none;stroke:#000000;stroke-width:26.4;stroke-linecap:round;stroke-linejoin:round;stroke-miterlimit:10;stroke-dasharray:none;stroke-opacity:1"
       transform="translate(207.96,219.27993)"
       clip-path="url(#clipPath2)" />
    <path
       id="path3"
       d="m 0,0 8.16,3.04 8,2.72 8,2.56 7.84,2.08 7.68,1.76 7.520001,1.6 7.36,1.12 7.199997,0.96 6.880001,0.48 6.720002,0.319999 L 81.919998,16.48 88.160004,16.16 94.239998,15.36 100,14.4 l 5.44,-1.44 5.12,-1.6 4.8,-2.08 4.32,-2.24 4.16,-2.56 3.84,-2.88 3.35999,-3.04 3.04001,-3.52 2.72,-3.68 2.23999,-4 1.92002,-4.159999 1.43998,-4.480002 L 143.52,-25.92 144.32001,-30.879999 144.64,-36 144.48,-41.279999 144,-46.720001 143.2,-52.48 l -1.28,-5.760002 -1.76,-5.920002 -2.08,-6.079994 -2.40001,-6.240005 L 132.8,-82.879997 129.60001,-89.120003 126.08,-95.68 l -4,-6.56 -4.32,-6.4 -4.48,-6.72 -4.96,-6.56 -5.28,-6.56 -5.599998,-6.55999 L 91.68,-141.44 85.440002,-148 l -6.400001,-6.39999 -6.559998,-6.24001 -6.880005,-6.24 -7.039997,-6.08001 -7.36,-6.07998"
       style="fill:none;stroke:#000000;stroke-width:26.4;stroke-linecap:round;stroke-linejoin:round;stroke-miterlimit:10;stroke-dasharray:none;stroke-opacity:1"
       transform="translate(156.75999,458.63992)"
       clip-path="url(#clipPath4)" />
    <path
       id="path5"
       d="m 0,0 -3.2,2.24 -2.88,2.24 -2.72,2.56 -2.4,2.72 -2.08,2.88 -1.76,3.04 -1.44,3.039999 -1.12,3.200001 -0.8,3.360001 -0.319999,3.359998 V 32 l 0.319999,3.200001 0.8,3.36 1.12,3.199997 1.44,3.040001 1.76,3.040001 2.08,2.880001 2.4,2.719998 L -6.08,56 -3.2,58.400002 0,60.32"
       style="fill:none;stroke:#000000;stroke-width:26.4;stroke-linecap:round;stroke-linejoin:round;stroke-miterlimit:10;stroke-dasharray:none;stroke-opacity:1"
       transform="translate(207.96,219.27993)"
       clip-path="url(#clipPath6)" />
    <path
       id="path7"
       d="m 206.88,844.47998 302.07999,-226.56"
       style="fill:none;stroke:#000000;stroke-width:26.4;stroke-linecap:round;stroke-linejoin:round;stroke-miterlimit:10;stroke-dasharray:none;stroke-opacity:1"
       transform="translate(-178.76,-368.40006)"
       clip-path="url(#clipPath8)" />
  </g>
</svg>
