<?xml version="1.0" encoding="UTF-8" standalone="no"?>
<!-- Created with Inkscape (http://www.inkscape.org/) -->

<svg
   version="1.1"
   id="svg1"
   width="504.28"
   height="485.85333"
   viewBox="0 0 504.28 485.85333"
   sodipodi:docname="Tartar14.pdf"
   xmlns:inkscape="http://www.inkscape.org/namespaces/inkscape"
   xmlns:sodipodi="http://sodipodi.sourceforge.net/DTD/sodipodi-0.dtd"
   xmlns="http://www.w3.org/2000/svg"
   xmlns:svg="http://www.w3.org/2000/svg">
  <defs
     id="defs1">
    <clipPath
       clipPathUnits="userSpaceOnUse"
       id="clipPath2">
      <path
         d="M 0,0.16 V 1122.5601 H 793.59998 V 0.16 Z"
         clip-rule="evenodd"
         id="path2" />
    </clipPath>
    <clipPath
       clipPathUnits="userSpaceOnUse"
       id="clipPath4">
      <path
         d="M 0,0.16 V 1122.5601 H 793.59998 V 0.16 Z"
         clip-rule="evenodd"
         id="path4" />
    </clipPath>
    <clipPath
       clipPathUnits="userSpaceOnUse"
       id="clipPath6">
      <path
         d="M 0,0.16 V 1122.5601 H 793.59998 V 0.16 Z"
         transform="translate(-197.92,-635.03998)"
         clip-rule="evenodd"
         id="path6" />
    </clipPath>
    <clipPath
       clipPathUnits="userSpaceOnUse"
       id="clipPath8">
      <path
         d="M 0,0.16 V 1122.5601 H 793.59998 V 0.16 Z"
         clip-rule="evenodd"
         id="path8" />
    </clipPath>
    <clipPath
       clipPathUnits="userSpaceOnUse"
       id="clipPath10">
      <path
         d="M 0,0.16 V 1122.5601 H 793.59998 V 0.16 Z"
         clip-rule="evenodd"
         id="path10" />
    </clipPath>
    <clipPath
       clipPathUnits="userSpaceOnUse"
       id="clipPath12">
      <path
         d="M 0,0.16 V 1122.5601 H 793.59998 V 0.16 Z"
         transform="translate(-401.76001,-635.03998)"
         clip-rule="evenodd"
         id="path12" />
    </clipPath>
    <clipPath
       clipPathUnits="userSpaceOnUse"
       id="clipPath14">
      <path
         d="M 0,0.16 V 1122.5601 H 793.59998 V 0.16 Z"
         transform="translate(-469.76001,-710.56)"
         clip-rule="evenodd"
         id="path14" />
    </clipPath>
    <clipPath
       clipPathUnits="userSpaceOnUse"
       id="clipPath16">
      <path
         d="M 0,0.16 V 1122.5601 H 793.59998 V 0.16 Z"
         clip-rule="evenodd"
         id="path16" />
    </clipPath>
    <clipPath
       clipPathUnits="userSpaceOnUse"
       id="clipPath18">
      <path
         d="M 0,0.16 V 1122.5601 H 793.59998 V 0.16 Z"
         transform="translate(-484.95999,-782.23999)"
         clip-rule="evenodd"
         id="path18" />
    </clipPath>
  </defs>
  <sodipodi:namedview
     id="namedview1"
     pagecolor="#505050"
     bordercolor="#eeeeee"
     borderopacity="1"
     inkscape:showpageshadow="0"
     inkscape:pageopacity="0"
     inkscape:pagecheckerboard="0"
     inkscape:deskcolor="#505050">
    <inkscape:page
       x="0"
       y="0"
       inkscape:label="1"
       id="page1"
       width="504.28"
       height="485.85333"
       margin="0"
       bleed="0" />
  </sodipodi:namedview>
  <g
     id="g1"
     inkscape:groupmode="layer"
     inkscape:label="1">
    <path
       id="path1"
       d="M 130.08,408.64001 H 401.92001"
       style="fill:none;stroke:#000000;stroke-width:26.4;stroke-linecap:round;stroke-linejoin:round;stroke-miterlimit:10;stroke-dasharray:none;stroke-opacity:1"
       transform="translate(0,-110.78673)"
       clip-path="url(#clipPath2)" />
    <path
       id="path3"
       d="m 333.92001,408.64001 v 226.56"
       style="fill:none;stroke:#000000;stroke-width:26.4;stroke-linecap:round;stroke-linejoin:round;stroke-miterlimit:10;stroke-dasharray:none;stroke-opacity:1"
       transform="translate(0,-110.78673)"
       clip-path="url(#clipPath4)" />
    <path
       id="path5"
       d="m 0,0 0.32,5.44 0.48,5.44 0.8,5.28 1.28,5.280001 1.44,5.119998 1.92,4.960001 2.24,4.8 2.4,4.639999 2.72,4.48 3.039999,4.159999 L 20,53.439999 l 3.52,3.68 3.840001,3.52 4,3.040001 4.159999,2.720002 4.32,2.400001 4.48,2.079994 4.639999,1.760002 4.639999,1.279999 4.800004,0.959999 4.799999,0.64 L 68,75.68 l 4.959999,-0.160003 4.800003,-0.64 4.799996,-0.959999 4.639999,-1.279999 4.639999,-1.760002 4.480004,-2.079994 4.32,-2.400001 4.16,-2.720002 4,-3.040001 3.84,-3.52 3.52,-3.68 3.2,-3.840001 3.04,-4.159999 2.88,-4.48 2.4,-4.639999 2.24,-4.8 1.75999,-4.960001 L 133.28,21.440001 134.39999,16.16 135.36,10.88 135.84,5.44 136,0"
       style="fill:none;stroke:#000000;stroke-width:26.4;stroke-linecap:round;stroke-linejoin:round;stroke-miterlimit:10;stroke-dasharray:none;stroke-opacity:1"
       transform="translate(197.92,524.25325)"
       clip-path="url(#clipPath6)" />
    <path
       id="path7"
       d="m 333.92001,635.20001 h 68"
       style="fill:none;stroke:#000000;stroke-width:26.4;stroke-linecap:round;stroke-linejoin:round;stroke-miterlimit:10;stroke-dasharray:none;stroke-opacity:1"
       transform="translate(0,-110.78673)"
       clip-path="url(#clipPath8)" />
    <path
       id="path9"
       d="m 333.92001,559.67999 h 68"
       style="fill:none;stroke:#000000;stroke-width:26.4;stroke-linecap:round;stroke-linejoin:round;stroke-miterlimit:10;stroke-dasharray:none;stroke-opacity:1"
       transform="translate(0,-110.78673)"
       clip-path="url(#clipPath10)" />
    <path
       id="path11"
       d="m 0,0 h 3.36 l 3.04,-0.48 3.04,-0.8 3.04,-1.12 2.88,-1.44 2.72,-1.76 2.559999,-1.92 2.400002,-2.24 2.24,-2.4 1.92,-2.72 1.92,-2.88 1.439998,-3.039999 L 31.84,-24 l 0.959999,-3.360001 0.799999,-3.359998 0.32,-3.360003 0.160004,-3.519996 -0.160004,-3.520001 -0.32,-3.52 L 32.799999,-48 31.84,-51.200001 l -1.280001,-3.200001 -1.439998,-3.039997 -1.92,-2.880001 -1.92,-2.720001 -2.24,-2.559997 -2.400002,-2.239998 -2.559999,-1.920006 -2.72,-1.599999 -2.88,-1.440002 -3.04,-1.119995 -3.04,-0.800003 -3.04,-0.479996 -3.36,-0.32"
       style="fill:none;stroke:#000000;stroke-width:26.4;stroke-linecap:round;stroke-linejoin:round;stroke-miterlimit:10;stroke-dasharray:none;stroke-opacity:1"
       transform="translate(401.76001,524.25325)"
       clip-path="url(#clipPath12)" />
    <path
       id="path13"
       d="M 0,0 -0.96,-6.08 -2.4,-12.16 -4.32,-18.24 -6.56,-24 -9.12,-29.76 -12,-35.200001 -15.36,-40.32 l -3.519999,-4.959999 -4,-4.639999 -4.160002,-4.320004 -4.479999,-4 -4.64,-3.679996 -4.799999,-3.200005 L -46.080002,-68 l -5.279999,-2.400002 -5.439998,-2.080001 -5.440003,-1.759995 L -68,-75.519997"
       style="fill:none;stroke:#000000;stroke-width:26.4;stroke-linecap:round;stroke-linejoin:round;stroke-miterlimit:10;stroke-dasharray:none;stroke-opacity:1"
       transform="translate(469.76001,599.77327)"
       clip-path="url(#clipPath14)" />
    <path
       id="path15"
       d="M 469.92001,710.71997 486.88,786.23999"
       style="fill:none;stroke:#000000;stroke-width:26.4;stroke-linecap:round;stroke-linejoin:round;stroke-miterlimit:10;stroke-dasharray:none;stroke-opacity:1"
       transform="translate(0,-110.78673)"
       clip-path="url(#clipPath16)" />
    <path
       id="path17"
       d="m 0,0 0.96,4.32 1.28,4.16 1.6,4.16 1.92,3.84 2.08,3.84 2.4,3.52 2.56,3.360001 L 15.68,30.24 18.719999,33.119999 21.92,35.68 25.280001,37.919998 28.959999,40 l 3.68,1.599998 3.680001,1.440003 4,0.959999 3.84,0.639999 4,0.32 h 4 l 4,-0.32 L 60,43.84 64,42.880001 67.68,41.439999 71.360001,39.68 l 3.519996,-1.920002 3.360001,-2.399997 3.36,-2.560002 L 84.639999,29.92 87.360001,26.879999 89.919998,23.360001 92.32,19.84 l 2.080002,-3.68 1.760002,-4 L 97.760002,8 99.040001,3.84 99.839996,-0.48 100.48,-4.8 100.8,-9.28 v -4.32 l -0.16,-4.48 -0.64,-4.32 -0.959999,-4.319999 -1.279999,-4.320002 -1.440002,-4 -1.760002,-4 -2.079995,-3.68 -2.400001,-3.680001"
       style="fill:none;stroke:#000000;stroke-width:26.4;stroke-linecap:round;stroke-linejoin:round;stroke-miterlimit:10;stroke-dasharray:none;stroke-opacity:1"
       transform="translate(484.95999,671.45326)"
       clip-path="url(#clipPath18)" />
  </g>
</svg>
