<?xml version="1.0" encoding="UTF-8" standalone="no"?>
<!-- Created with Inkscape (http://www.inkscape.org/) -->

<svg
   version="1.1"
   id="svg1"
   width="506.94666"
   height="409.78668"
   viewBox="0 0 506.94666 409.78668"
   sodipodi:docname="Tartar8.pdf"
   xmlns:inkscape="http://www.inkscape.org/namespaces/inkscape"
   xmlns:sodipodi="http://sodipodi.sourceforge.net/DTD/sodipodi-0.dtd"
   xmlns="http://www.w3.org/2000/svg"
   xmlns:svg="http://www.w3.org/2000/svg">
  <defs
     id="defs1">
    <clipPath
       clipPathUnits="userSpaceOnUse"
       id="clipPath2">
      <path
         d="M 0,0.16 V 1122.5601 H 793.59998 V 0.16 Z"
         transform="translate(-188,-496.95999)"
         clip-rule="evenodd"
         id="path2" />
    </clipPath>
    <clipPath
       clipPathUnits="userSpaceOnUse"
       id="clipPath4">
      <path
         d="M 0,0.16 V 1122.5601 H 793.59998 V 0.16 Z"
         transform="translate(-276,-547.35999)"
         clip-rule="evenodd"
         id="path4" />
    </clipPath>
    <clipPath
       clipPathUnits="userSpaceOnUse"
       id="clipPath6">
      <path
         d="M 0,0.16 V 1122.5601 H 793.59998 V 0.16 Z"
         transform="translate(-527.84003,-496.95999)"
         clip-rule="evenodd"
         id="path6" />
    </clipPath>
    <clipPath
       clipPathUnits="userSpaceOnUse"
       id="clipPath8">
      <path
         d="M 0,0.16 V 1122.5601 H 793.59998 V 0.16 Z"
         transform="translate(3.3333333e-6)"
         clip-rule="evenodd"
         id="path8" />
    </clipPath>
    <clipPath
       clipPathUnits="userSpaceOnUse"
       id="clipPath10">
      <path
         d="M 0,0.16 V 1122.5601 H 793.59998 V 0.16 Z"
         transform="translate(3.3333333e-6)"
         clip-rule="evenodd"
         id="path10" />
    </clipPath>
    <clipPath
       clipPathUnits="userSpaceOnUse"
       id="clipPath12">
      <path
         d="M 0,0.16 V 1122.5601 H 793.59998 V 0.16 Z"
         transform="translate(-527.84003,-738.71997)"
         clip-rule="evenodd"
         id="path12" />
    </clipPath>
    <clipPath
       clipPathUnits="userSpaceOnUse"
       id="clipPath14">
      <path
         d="M 0,0.16 V 1122.5601 H 793.59998 V 0.16 Z"
         transform="translate(-439.68,-688.47998)"
         clip-rule="evenodd"
         id="path14" />
    </clipPath>
    <clipPath
       clipPathUnits="userSpaceOnUse"
       id="clipPath16">
      <path
         d="M 0,0.16 V 1122.5601 H 793.59998 V 0.16 Z"
         transform="translate(-188,-738.71997)"
         clip-rule="evenodd"
         id="path16" />
    </clipPath>
    <clipPath
       clipPathUnits="userSpaceOnUse"
       id="clipPath18">
      <path
         d="M 0,0.16 V 1122.5601 H 793.59998 V 0.16 Z"
         transform="translate(3.3333333e-6)"
         clip-rule="evenodd"
         id="path18" />
    </clipPath>
    <clipPath
       clipPathUnits="userSpaceOnUse"
       id="clipPath20">
      <path
         d="M 0,0.16 V 1122.5601 H 793.59998 V 0.16 Z"
         transform="translate(3.3333333e-6)"
         clip-rule="evenodd"
         id="path20" />
    </clipPath>
    <clipPath
       clipPathUnits="userSpaceOnUse"
       id="clipPath22">
      <path
         d="M 0,0.16 V 1122.5601 H 793.59998 V 0.16 Z"
         transform="translate(3.3333333e-6)"
         clip-rule="evenodd"
         id="path22" />
    </clipPath>
    <clipPath
       clipPathUnits="userSpaceOnUse"
       id="clipPath24">
      <path
         d="M 0,0.16 V 1122.5601 H 793.59998 V 0.16 Z"
         transform="translate(3.3333333e-6)"
         clip-rule="evenodd"
         id="path24" />
    </clipPath>
    <clipPath
       clipPathUnits="userSpaceOnUse"
       id="clipPath26">
      <path
         d="M 0,0.16 V 1122.5601 H 793.59998 V 0.16 Z"
         transform="translate(3.3333333e-6)"
         clip-rule="evenodd"
         id="path26" />
    </clipPath>
  </defs>
  <sodipodi:namedview
     id="namedview1"
     pagecolor="#505050"
     bordercolor="#eeeeee"
     borderopacity="1"
     inkscape:showpageshadow="0"
     inkscape:pageopacity="0"
     inkscape:pagecheckerboard="0"
     inkscape:deskcolor="#505050">
    <inkscape:page
       x="0"
       y="0"
       inkscape:label="1"
       id="page1"
       width="506.94666"
       height="409.78668"
       margin="0"
       bleed="0" />
  </sodipodi:namedview>
  <g
     id="g1"
     inkscape:groupmode="layer"
     inkscape:label="1">
    <path
       id="path1"
       d="m 0,0 0.32,9.28 0.64,9.279999 1.12,8.960001 1.44,9.119999 1.92,8.959999 2.4,8.800004 2.72,8.639999 3.2,8.639999 3.680001,8.32 4,8.160004 L 25.76,96 l 4.799999,7.68 5.120001,7.36 5.439999,7.2 5.760002,6.72 6.079998,6.56 6.400002,6.08001 6.559997,5.91999 7.040001,5.44001 7.200005,4.95999 7.359993,4.64 7.68,4.32 7.680003,3.84 8,3.36 8.16,3.03999 8.32,2.56 8.31999,1.92002 8.48001,1.75999 8.64,1.12 8.48,0.63999 8.64,0.32001 8.64,-0.32001 8.64,-0.63999 8.47999,-1.12 8.48001,-1.75999 8.32,-1.92002 8.32,-2.56 8.16001,-3.03999 8,-3.36 7.83999,-3.84 7.68,-4.32 7.36,-4.64 7.20001,-4.95999 6.88,-5.44001 6.72,-5.91999 6.4,-6.08001 6.07999,-6.56 5.76,-6.72 5.44001,-7.2 5.11999,-7.36 4.63999,-7.68 4.48001,-7.839996 4,-8.160004 3.51999,-8.32 3.20001,-8.639999 2.72,-8.639999 2.39999,-8.800004 1.92002,-8.959999 1.6,-9.119999 1.12,-8.960001 L 339.67999,9.28 339.84,0"
       style="fill:none;stroke:#000000;stroke-width:26.4;stroke-linecap:round;stroke-linejoin:round;stroke-miterlimit:10;stroke-dasharray:none;stroke-opacity:1"
       transform="translate(82.613333,81.839932)"
       clip-path="url(#clipPath2)" />
    <path
       id="path3"
       d="m 0,0 3.68,-2.72 3.36,-3.04 3.04,-3.36 2.88,-3.52 2.72,-3.84 2.24,-4 2.08,-4.159999 1.76,-4.32 1.280001,-4.48 1.119999,-4.479999 0.639999,-4.640003 0.480002,-4.8 V -52 l -0.320002,-4.639999 -0.639999,-4.64 -0.959999,-4.639999 -1.280001,-4.480004 -1.6,-4.319999 -1.920001,-4.32 -2.239999,-4 -2.56,-3.839996 -2.88,-3.680001 -3.04,-3.36 -3.2,-3.040001 -3.52,-2.879997 -3.84,-2.560004 -3.84,-2.24 -4,-1.76 -4.16,-1.6 -4.320001,-1.28 -4.32,-0.8 -4.319999,-0.48 -4.48,-0.16 -4.32,0.32 -4.479999,0.64 -4.32,0.96 -4.16,1.28 -4.159999,1.76 -4,1.92 -3.680001,2.4 -3.68,2.560003 -3.520004,3.040001 -3.199997,3.199997 -2.879998,3.519996 -2.720001,3.680001 -2.400001,3.840004 -2.239998,4.159996 -1.760002,4.319999 -1.599999,4.32 -1.120003,4.639999 -0.799995,4.480004 -0.639999,4.799999 L -88,-50.400002"
       style="fill:none;stroke:#000000;stroke-width:26.4;stroke-linecap:round;stroke-linejoin:round;stroke-miterlimit:10;stroke-dasharray:none;stroke-opacity:1"
       transform="translate(170.61333,132.23993)"
       clip-path="url(#clipPath4)" />
    <path
       id="path5"
       d="m 0,0 -0.16,-4.48 -0.48,-4.8 -0.8,-4.48 -1.28,-4.64 -1.44,-4.319999 -1.92,-4.320002 -2.08,-4.16 -2.4,-3.84 -2.72,-3.68 -3.04,-3.520001 -3.2,-3.199997 -3.359999,-3.040001 -3.68,-2.560001 -3.840001,-2.399998 -4.000002,-1.920002 -4.159999,-1.759998 -4.16,-1.280003 -4.32,-0.959999 -4.32,-0.639999 -4.479999,-0.32 -4.32,0.16 -4.479999,0.48 -4.32,0.799999 -4.160004,1.280003 L -77.279999,-56 -81.440002,-54.240002 -85.279999,-52 l -3.68,2.560001 -3.520004,2.879998 -3.359993,3.040001 -3.040001,3.36 -2.720003,3.68 -2.56,3.840001 -2.24,4 -1.92,4.319999 -1.6,4.32 -1.44,4.48 -0.96,4.64 -0.64,4.64 -0.32,4.64 0.16,4.64 0.32,4.8 0.8,4.64 0.96,4.479999 1.44,4.480002 1.76,4.319999 1.92,4.16 2.4,3.999998 2.56,3.84 2.879998,3.520001 3.200005,3.36 3.36,3.040001 3.359993,2.720002"
       style="fill:none;stroke:#000000;stroke-width:26.4;stroke-linecap:round;stroke-linejoin:round;stroke-miterlimit:10;stroke-dasharray:none;stroke-opacity:1"
       transform="translate(422.45336,81.839932)"
       clip-path="url(#clipPath6)" />
    <path
       id="path7"
       d="m 131.36,617.91998 144.8,-70.56"
       style="fill:none;stroke:#000000;stroke-width:26.4;stroke-linecap:round;stroke-linejoin:round;stroke-miterlimit:10;stroke-dasharray:none;stroke-opacity:1"
       transform="translate(-105.38667,-415.12006)"
       clip-path="url(#clipPath8)" />
    <path
       id="path9"
       d="m 439.84,547.35998 144.63998,70.56"
       style="fill:none;stroke:#000000;stroke-width:26.4;stroke-linecap:round;stroke-linejoin:round;stroke-miterlimit:10;stroke-dasharray:none;stroke-opacity:1"
       transform="translate(-105.38667,-415.12006)"
       clip-path="url(#clipPath10)" />
    <path
       id="path11"
       d="m 0,0 -0.16,-9.12 -0.64,-9.12 -1.12,-9.120001 -1.6,-9.119999 -1.92,-8.959999 -2.4,-8.800003 -2.72,-8.639999 -3.2,-8.48 -3.520001,-8.479995 -4,-8 -4.479999,-8 -4.64,-7.680004 -5.12,-7.36 -5.439999,-7.2 -5.760002,-6.72 -6.079998,-6.56 -6.400002,-6.08 -6.719997,-5.76 -6.880005,-5.44 -7.199997,-5.11999 -7.360001,-4.64 -7.68,-4.32001 -7.839999,-3.84 -8,-3.36 -8.16,-3.04001 -8.32,-2.39999 -8.31999,-2.08 -8.48001,-1.59999 -8.48,-1.28002 -8.64,-0.64 -8.64,-0.15998 -8.64,0.15998 -8.47999,0.64 -8.64,1.28002 -8.48001,1.59999 -8.32,2.08 -8.32,2.39999 -8.16001,3.04001 -8,3.36 -7.67999,3.84 -7.68001,4.32001 -7.35998,4.64 -7.20001,5.11999 -7.04001,5.44 -6.56,5.76 -6.39999,6.08 -6.07999,6.56 -5.76001,6.72 -5.44,7.2 -5.12,7.36 -4.79999,7.680004 -4.32,8 -4,8 -3.68,8.479995 -3.20001,8.48 -2.72,8.639999 -2.39999,8.800003 -1.92002,8.959999 -1.44,9.119999 L -338.88,-18.24 -339.51999,-9.12 -339.84,0"
       style="fill:none;stroke:#000000;stroke-width:26.4;stroke-linecap:round;stroke-linejoin:round;stroke-miterlimit:10;stroke-dasharray:none;stroke-opacity:1"
       transform="translate(422.45336,323.59991)"
       clip-path="url(#clipPath12)" />
    <path
       id="path13"
       d="m 0,0 -3.36,2.72 -3.36,3.04 -3.2,3.36 -2.88,3.52 -2.56,3.84 -2.4,4 -1.92,4.159999 -1.760001,4.32 -1.439998,4.48 -0.960001,4.640003 -0.799999,4.639999 -0.32,4.64 L -25.120001,52 l 0.320002,4.639999 0.639999,4.8 0.959999,4.479999 1.440001,4.480004 1.6,4.479995 1.92,4.160004 2.24,4 2.56,3.839996 2.72,3.680001 3.04,3.36 3.36,3.040001 3.52,2.879997 3.68,2.560004 3.84,2.24 4.16,1.92 4.16,1.44 4.160001,1.28 4.319999,0.8 4.48,0.48 4.32,0.16 4.479999,-0.32 4.32,-0.64 4.32,-0.96 4.159999,-1.28 4.16,-1.6 4,-2.08 3.84,-2.4 3.680001,-2.560003 3.36,-3.040001 3.199997,-3.199997 3.040001,-3.36 2.720001,-3.839997 L 80,81.599998 82.080002,77.440002 84,73.120003 l 1.440002,-4.32 L 86.720001,64.32 87.519997,59.68 88,55.040001 88.160004,50.240002"
       style="fill:none;stroke:#000000;stroke-width:26.4;stroke-linecap:round;stroke-linejoin:round;stroke-miterlimit:10;stroke-dasharray:none;stroke-opacity:1"
       transform="translate(334.29333,273.35992)"
       clip-path="url(#clipPath14)" />
    <path
       id="path15"
       d="m 0,0 0.16,4.8 0.64,4.64 0.8,4.64 1.12,4.479999 1.6,4.32 1.76,4.320002 2.24,4.16 2.4,3.84 2.72,3.84 2.88,3.360001 3.2,3.199996 3.520001,3.040001 3.679998,2.560002 L 30.4,53.599998 34.400002,55.68 l 4.159999,1.599999 4.16,1.280002 4.32,0.959999 4.479999,0.64 4.32,0.32 4.48,-0.16 4.319999,-0.48 4.32,-0.799999 4.32,-1.280003 4.160003,-1.439998 4,-1.919998 L 85.279999,52.16 89.120003,49.599998 92.639999,46.720001 95.839996,43.68 98.879997,40.32 101.76,36.639999 l 2.56,-3.84 2.24,-4 1.92,-4.16 1.6,-4.479999 1.28,-4.48 0.96,-4.48 0.64,-4.8 0.32,-4.64 v -4.64 l -0.48,-4.64 -0.64,-4.64 -1.12,-4.639999 -1.28,-4.480002 L 108,-25.6 l -2.08,-4.16 -2.24,-3.999998 -2.72,-3.84 -2.879998,-3.520001 L 95.040001,-44.48 91.68,-47.52 88,-50.240002"
       style="fill:none;stroke:#000000;stroke-width:26.4;stroke-linecap:round;stroke-linejoin:round;stroke-miterlimit:10;stroke-dasharray:none;stroke-opacity:1"
       transform="translate(82.613333,323.59991)"
       clip-path="url(#clipPath16)" />
    <path
       id="path17"
       d="M 584.47998,617.91998 439.84,688.47998"
       style="fill:none;stroke:#000000;stroke-width:26.4;stroke-linecap:round;stroke-linejoin:round;stroke-miterlimit:10;stroke-dasharray:none;stroke-opacity:1"
       transform="translate(-105.38667,-415.12006)"
       clip-path="url(#clipPath18)" />
    <path
       id="path19"
       d="m 276.16,688.47998 -144.8,-70.56"
       style="fill:none;stroke:#000000;stroke-width:26.4;stroke-linecap:round;stroke-linejoin:round;stroke-miterlimit:10;stroke-dasharray:none;stroke-opacity:1"
       transform="translate(-105.38667,-415.12006)"
       clip-path="url(#clipPath20)" />
    <path
       id="path21"
       d="m 357.92001,436.64001 v 362.56"
       style="fill:none;stroke:#000000;stroke-width:26.4;stroke-linecap:round;stroke-linejoin:round;stroke-miterlimit:10;stroke-dasharray:none;stroke-opacity:1"
       transform="translate(-105.38667,-415.12006)"
       clip-path="url(#clipPath22)" />
    <path
       id="path23"
       d="m 329.60001,497.12 h 56.63998"
       style="fill:none;stroke:#000000;stroke-width:26.4;stroke-linecap:round;stroke-linejoin:round;stroke-miterlimit:10;stroke-dasharray:none;stroke-opacity:1"
       transform="translate(-105.38667,-415.12006)"
       clip-path="url(#clipPath24)" />
    <path
       id="path25"
       d="m 329.60001,738.71997 h 56.63998"
       style="fill:none;stroke:#000000;stroke-width:26.4;stroke-linecap:round;stroke-linejoin:round;stroke-miterlimit:10;stroke-dasharray:none;stroke-opacity:1"
       transform="translate(-105.38667,-415.12006)"
       clip-path="url(#clipPath26)" />
  </g>
</svg>
