<?xml version="1.0" encoding="UTF-8" standalone="no"?>
<!-- Created with Inkscape (http://www.inkscape.org/) -->

<svg
   version="1.1"
   id="svg1"
   width="517.61334"
   height="479.18668"
   viewBox="0 0 517.61334 479.18668"
   sodipodi:docname="Tartar7.pdf"
   xmlns:inkscape="http://www.inkscape.org/namespaces/inkscape"
   xmlns:sodipodi="http://sodipodi.sourceforge.net/DTD/sodipodi-0.dtd"
   xmlns="http://www.w3.org/2000/svg"
   xmlns:svg="http://www.w3.org/2000/svg">
  <defs
     id="defs1">
    <clipPath
       clipPathUnits="userSpaceOnUse"
       id="clipPath2">
      <path
         d="M 0,0.16 V 1122.5601 H 793.59998 V 0.16 Z"
         transform="translate(-588.15997,-440.79999)"
         clip-rule="evenodd"
         id="path2" />
    </clipPath>
    <clipPath
       clipPathUnits="userSpaceOnUse"
       id="clipPath4">
      <path
         d="M 0,0.16 V 1122.5601 H 793.59998 V 0.16 Z"
         clip-rule="evenodd"
         id="path4" />
    </clipPath>
    <clipPath
       clipPathUnits="userSpaceOnUse"
       id="clipPath6">
      <path
         d="M 0,0.16 V 1122.5601 H 793.59998 V 0.16 Z"
         transform="translate(-203.2,-832.79999)"
         clip-rule="evenodd"
         id="path6" />
    </clipPath>
  </defs>
  <sodipodi:namedview
     id="namedview1"
     pagecolor="#505050"
     bordercolor="#eeeeee"
     borderopacity="1"
     inkscape:showpageshadow="0"
     inkscape:pageopacity="0"
     inkscape:pagecheckerboard="0"
     inkscape:deskcolor="#505050">
    <inkscape:page
       x="0"
       y="0"
       inkscape:label="1"
       id="page1"
       width="517.61334"
       height="479.18668"
       margin="0"
       bleed="0" />
  </sodipodi:namedview>
  <g
     id="g1"
     inkscape:groupmode="layer"
     inkscape:label="1">
    <path
       id="path1"
       d="m 0,0 c 0,-20.85 -16.9,-37.759998 -37.759998,-37.759998 -20.860001,0 -37.759999,16.909998 -37.759999,37.759998 0,20.85 16.899998,37.759998 37.759999,37.759998 C -16.9,37.759998 0,20.85 0,0 Z"
       style="fill:none;stroke:#000000;stroke-width:26.4;stroke-linecap:round;stroke-linejoin:round;stroke-miterlimit:10;stroke-dasharray:none;stroke-opacity:1"
       transform="translate(489.43997,61.719929)"
       clip-path="url(#clipPath2)" />
    <path
       id="path3"
       d="M 203.2,832.79999 573.44,469.76001"
       style="fill:none;stroke:#000000;stroke-width:26.4;stroke-linecap:round;stroke-linejoin:round;stroke-miterlimit:10;stroke-dasharray:none;stroke-opacity:1"
       transform="translate(-98.72,-379.08006)"
       clip-path="url(#clipPath4)" />
    <path
       id="path5"
       d="M 0,0 -0.16,-3.36 -0.64,-6.88 -1.44,-10.24 -2.56,-13.6 -4,-16.799999 -5.6,-19.84 -7.68,-22.719999 -9.76,-25.440001 -12.32,-27.84 -15.04,-30.08 -17.92,-32 -20.959999,-33.759998 -24.16,-35.200001 -27.360001,-36.32 l -3.359998,-0.799999 -3.520003,-0.479999 -3.519996,-0.16 -3.520001,0.16 -3.36,0.479999 L -48,-36.32 l -3.360001,1.119999 -3.2,1.440003 L -57.599998,-32 -60.48,-30.08 l -2.720001,2.24 -2.399997,2.399999 -2.239998,2.720002 -1.920006,2.879999 -1.759995,3.040001 -1.440002,3.199999 -1.120003,3.36 -0.799995,3.36 -0.480004,3.52 -0.159996,3.36"
       style="fill:none;stroke:#000000;stroke-width:26.4;stroke-linecap:round;stroke-linejoin:round;stroke-miterlimit:10;stroke-dasharray:none;stroke-opacity:1"
       transform="translate(104.48,453.71993)"
       clip-path="url(#clipPath6)" />
  </g>
</svg>
