<?xml version="1.0" encoding="UTF-8" standalone="no"?>
<!-- Created with Inkscape (http://www.inkscape.org/) -->

<svg
   version="1.1"
   id="svg1"
   width="149.41333"
   height="220.24001"
   viewBox="0 0 149.41333 220.24001"
   sodipodi:docname="Tutty2.pdf"
   xmlns:inkscape="http://www.inkscape.org/namespaces/inkscape"
   xmlns:sodipodi="http://sodipodi.sourceforge.net/DTD/sodipodi-0.dtd"
   xmlns="http://www.w3.org/2000/svg"
   xmlns:svg="http://www.w3.org/2000/svg">
  <defs
     id="defs1">
    <clipPath
       clipPathUnits="userSpaceOnUse"
       id="clipPath2">
      <path
         d="M 0,0.16 V 1122.5601 H 793.59998 V 0.16 Z"
         transform="translate(-289.92001,-580.15997)"
         clip-rule="evenodd"
         id="path2" />
    </clipPath>
    <clipPath
       clipPathUnits="userSpaceOnUse"
       id="clipPath4">
      <path
         d="M 0,0.16 V 1122.5601 H 793.59998 V 0.16 Z"
         clip-rule="evenodd"
         id="path4" />
    </clipPath>
    <clipPath
       clipPathUnits="userSpaceOnUse"
       id="clipPath6">
      <path
         d="M 0,0.16 V 1122.5601 H 793.59998 V 0.16 Z"
         transform="translate(-189.11999,-680.79999)"
         clip-rule="evenodd"
         id="path6" />
    </clipPath>
    <clipPath
       clipPathUnits="userSpaceOnUse"
       id="clipPath8">
      <path
         d="M 0,0.16 V 1122.5601 H 793.59998 V 0.16 Z"
         transform="translate(-239.52,-680.79999)"
         clip-rule="evenodd"
         id="path8" />
    </clipPath>
  </defs>
  <sodipodi:namedview
     id="namedview1"
     pagecolor="#505050"
     bordercolor="#eeeeee"
     borderopacity="1"
     inkscape:showpageshadow="0"
     inkscape:pageopacity="0"
     inkscape:pagecheckerboard="0"
     inkscape:deskcolor="#505050">
    <inkscape:page
       x="0"
       y="0"
       inkscape:label="1"
       id="page1"
       width="149.41333"
       height="220.24001"
       margin="0"
       bleed="0" />
  </sodipodi:namedview>
  <g
     id="g1"
     inkscape:groupmode="layer"
     inkscape:label="1">
    <path
       id="path1"
       d="M 0,0 C 0,-27.83 -22.559999,-50.400002 -50.400002,-50.400002 -78.239998,-50.400002 -100.8,-27.83 -100.8,0 c 0,27.83 22.560002,50.400002 50.399998,50.400002 C -22.559999,50.400002 0,27.83 0,0 Z"
       style="fill:none;stroke:#000000;stroke-width:26.4;stroke-linecap:round;stroke-linejoin:round;stroke-miterlimit:10;stroke-dasharray:none;stroke-opacity:1"
       transform="translate(127.16001,75.613248)"
       clip-path="url(#clipPath2)" />
    <path
       id="path3"
       d="m 239.52,630.56 v 50.23999"
       style="fill:none;stroke:#000000;stroke-width:26.4;stroke-linecap:round;stroke-linejoin:round;stroke-miterlimit:10;stroke-dasharray:none;stroke-opacity:1"
       transform="translate(-162.76,-504.54673)"
       clip-path="url(#clipPath4)" />
    <path
       id="path5"
       d="m 0,0 0.16,2.72 0.48,2.56 0.64,2.56 0.96,2.4 1.12,2.4 1.44,2.24 1.76,2.079999 1.76,1.76 2.08,1.760001 2.24,1.44 2.4,1.120001 L 17.440001,24 20,24.639999 l 2.559999,0.480002 2.720002,0.16 2.559999,-0.16 L 30.4,24.639999 32.959999,24 35.52,23.040001 37.759998,21.92 40,20.48 42.080002,18.719999 44,16.959999 45.599998,14.88 47.040001,12.64 48.16,10.24 l 0.959999,-2.4 0.799999,-2.56 0.320004,-2.56 0.16,-2.72"
       style="fill:none;stroke:#000000;stroke-width:26.4;stroke-linecap:round;stroke-linejoin:round;stroke-miterlimit:10;stroke-dasharray:none;stroke-opacity:1"
       transform="translate(26.359995,176.25326)"
       clip-path="url(#clipPath6)" />
    <path
       id="path7"
       d="m 0,0 0.16,2.72 0.32,2.56 0.8,2.56 0.96,2.4 1.12,2.4 1.44,2.24 1.6,2.079999 1.92,1.76 2.08,1.760001 2.24,1.44 2.24,1.120001 L 17.440001,24 20,24.639999 l 2.559999,0.480002 2.560002,0.16 2.719999,-0.16 L 30.4,24.639999 32.959999,24 35.360001,23.040001 37.759998,21.92 40,20.48 42.080002,18.719999 43.84,16.959999 45.599998,14.88 47.040001,12.64 48.16,10.24 l 0.959999,-2.4 0.639999,-2.56 0.480004,-2.56 0.16,-2.72"
       style="fill:none;stroke:#000000;stroke-width:26.4;stroke-linecap:round;stroke-linejoin:round;stroke-miterlimit:10;stroke-dasharray:none;stroke-opacity:1"
       transform="translate(76.760004,176.25326)"
       clip-path="url(#clipPath8)" />
  </g>
</svg>
