<?xml version="1.0" encoding="UTF-8" standalone="no"?>
<!-- Created with Inkscape (http://www.inkscape.org/) -->

<svg
   version="1.1"
   id="svg1"
   width="197.44"
   height="252.26666"
   viewBox="0 0 197.44 252.26666"
   sodipodi:docname="Tutty3.pdf"
   xmlns:inkscape="http://www.inkscape.org/namespaces/inkscape"
   xmlns:sodipodi="http://sodipodi.sourceforge.net/DTD/sodipodi-0.dtd"
   xmlns="http://www.w3.org/2000/svg"
   xmlns:svg="http://www.w3.org/2000/svg">
  <defs
     id="defs1">
    <clipPath
       clipPathUnits="userSpaceOnUse"
       id="clipPath2">
      <path
         d="M 0,0.16 V 1122.5601 H 793.59998 V 0.16 Z"
         transform="translate(-289.92002,-580.15998)"
         clip-rule="evenodd"
         id="path2" />
    </clipPath>
    <clipPath
       clipPathUnits="userSpaceOnUse"
       id="clipPath4">
      <path
         d="M 0,0.16 V 1122.5601 H 793.59998 V 0.16 Z"
         transform="translate(3.3333333e-6)"
         clip-rule="evenodd"
         id="path4" />
    </clipPath>
    <clipPath
       clipPathUnits="userSpaceOnUse"
       id="clipPath6">
      <path
         d="M 0,0.16 V 1122.5601 H 793.59998 V 0.16 Z"
         transform="translate(3.3333333e-6)"
         clip-rule="evenodd"
         id="path6" />
    </clipPath>
    <clipPath
       clipPathUnits="userSpaceOnUse"
       id="clipPath8">
      <path
         d="M 0,0.16 V 1122.5601 H 793.59998 V 0.16 Z"
         transform="translate(-201.75999,-542.40002)"
         clip-rule="evenodd"
         id="path8" />
    </clipPath>
    <clipPath
       clipPathUnits="userSpaceOnUse"
       id="clipPath10">
      <path
         d="M 0,0.16 V 1122.5601 H 793.59998 V 0.16 Z"
         transform="translate(-214.39999,-504.64002)"
         clip-rule="evenodd"
         id="path10" />
    </clipPath>
    <clipPath
       clipPathUnits="userSpaceOnUse"
       id="clipPath12">
      <path
         d="M 0,0.16 V 1122.5601 H 793.59998 V 0.16 Z"
         transform="translate(-315.04001,-492)"
         clip-rule="evenodd"
         id="path12" />
    </clipPath>
    <clipPath
       clipPathUnits="userSpaceOnUse"
       id="clipPath14">
      <path
         d="M 0,0.16 V 1122.5601 H 793.59998 V 0.16 Z"
         transform="translate(-315.04001,-492)"
         clip-rule="evenodd"
         id="path14" />
    </clipPath>
    <clipPath
       clipPathUnits="userSpaceOnUse"
       id="clipPath16">
      <path
         d="M 0,0.16 V 1122.5601 H 793.59998 V 0.16 Z"
         transform="translate(-239.52001,-479.51999)"
         clip-rule="evenodd"
         id="path16" />
    </clipPath>
    <clipPath
       clipPathUnits="userSpaceOnUse"
       id="clipPath18">
      <path
         d="M 0,0.16 V 1122.5601 H 793.59998 V 0.16 Z"
         transform="translate(-264.64002,-504.64002)"
         clip-rule="evenodd"
         id="path18" />
    </clipPath>
  </defs>
  <sodipodi:namedview
     id="namedview1"
     pagecolor="#505050"
     bordercolor="#eeeeee"
     borderopacity="1"
     inkscape:showpageshadow="0"
     inkscape:pageopacity="0"
     inkscape:pagecheckerboard="0"
     inkscape:deskcolor="#505050">
    <inkscape:page
       x="0"
       y="0"
       inkscape:label="1"
       id="page1"
       width="197.44"
       height="252.26666"
       margin="0"
       bleed="0" />
  </sodipodi:namedview>
  <g
     id="g1"
     inkscape:groupmode="layer"
     inkscape:label="1">
    <path
       id="path1"
       d="M 0,0 C 0,-27.83 -22.559999,-50.400002 -50.400002,-50.400002 -78.239998,-50.400002 -100.8,-27.83 -100.8,0 c 0,27.83 22.560002,50.400002 50.399998,50.400002 C -22.559999,50.400002 0,27.83 0,0 Z"
       style="fill:none;stroke:#000000;stroke-width:26.4;stroke-linecap:round;stroke-linejoin:round;stroke-miterlimit:10;stroke-dasharray:none;stroke-opacity:1"
       transform="translate(151.17335,134.33325)"
       clip-path="url(#clipPath2)" />
    <path
       id="path3"
       d="m 239.52,630.56 v 50.23999"
       style="fill:none;stroke:#000000;stroke-width:26.4;stroke-linecap:round;stroke-linejoin:round;stroke-miterlimit:10;stroke-dasharray:none;stroke-opacity:1"
       transform="translate(-138.74667,-445.82673)"
       clip-path="url(#clipPath4)" />
    <path
       id="path5"
       d="m 214.39999,655.67999 h 50.24002"
       style="fill:none;stroke:#000000;stroke-width:26.4;stroke-linecap:round;stroke-linejoin:round;stroke-miterlimit:10;stroke-dasharray:none;stroke-opacity:1"
       transform="translate(-138.74667,-445.82673)"
       clip-path="url(#clipPath6)" />
    <path
       id="path7"
       d="m 0,0 0.32,-3.84 0.16,-3.84 -0.32,-3.84 -0.64,-3.84 -0.96,-3.840001 -1.28,-3.679998 L -4.32,-26.4 -6.24,-29.76 -8.48,-32.959999 -10.88,-36 -13.6,-38.720001 -16.639999,-41.279999 -19.68,-43.52 -23.040001,-45.439999 -26.559999,-47.200001 -30.24,-48.48 l -3.679998,-1.119998 -3.84,-0.800004"
       style="fill:none;stroke:#000000;stroke-width:26.4;stroke-linecap:round;stroke-linejoin:round;stroke-miterlimit:10;stroke-dasharray:none;stroke-opacity:1"
       transform="translate(63.013328,96.573299)"
       clip-path="url(#clipPath8)" />
    <path
       id="path9"
       d="M 0,0 -1.92,-2.72 -4,-5.44 l -2.4,-2.4 -2.56,-2.24 -2.72,-1.92 -3.04,-1.76 -3.04,-1.44 -3.199999,-1.12 L -24.32,-17.120001 -27.68,-17.6 l -3.360001,-0.16 -3.360001,0.16 -3.359996,0.319999 -3.360001,0.800001 -3.200001,0.96 -3.040001,1.28 -3.040001,1.6"
       style="fill:none;stroke:#000000;stroke-width:26.4;stroke-linecap:round;stroke-linejoin:round;stroke-miterlimit:10;stroke-dasharray:none;stroke-opacity:1"
       transform="translate(75.653327,58.81329)"
       clip-path="url(#clipPath10)" />
    <path
       id="path11"
       d="m 0,0 -3.84,0.8 -3.68,1.12 -3.68,1.28 -3.52,1.76 -3.36,1.92 -3.040001,2.24 -3.039999,2.56 -2.719999,2.72 -2.400002,3.040001 L -31.52,20.639999 -33.439999,24 l -1.600002,3.52 -1.279999,3.680001 -0.959999,3.84 -0.639999,3.84 -0.320004,3.84 0.16,3.84 0.320004,3.840001"
       style="fill:none;stroke:#000000;stroke-width:26.4;stroke-linecap:round;stroke-linejoin:round;stroke-miterlimit:10;stroke-dasharray:none;stroke-opacity:1"
       transform="translate(176.29334,46.173275)"
       clip-path="url(#clipPath12)" />
    <path
       id="path13"
       d="m 0,0 -3.04,-1.6 -3.04,-1.28 -3.2,-0.96 -3.36,-0.8 -3.36,-0.32 -3.360001,-0.16 -3.359998,0.16 -3.360001,0.48 -3.360001,0.8 -3.199998,1.12 L -35.68,-1.12 -38.560001,0.64 -41.439999,2.56 -44,4.8 -46.400002,7.2 -48.48,9.92 l -1.920002,2.72"
       style="fill:none;stroke:#000000;stroke-width:26.4;stroke-linecap:round;stroke-linejoin:round;stroke-miterlimit:10;stroke-dasharray:none;stroke-opacity:1"
       transform="translate(176.29334,46.173275)"
       clip-path="url(#clipPath14)" />
    <path
       id="path15"
       d="m 0,0 -3.2,0.96 -3.2,1.28 -3.04,1.6 -2.88,1.76 -2.56,2.24 -2.400001,2.4 -2.239999,2.56 -1.760001,2.88 -1.599998,3.039999 L -24.16,21.92 l -0.960001,3.200001"
       style="fill:none;stroke:#000000;stroke-width:26.4;stroke-linecap:round;stroke-linejoin:round;stroke-miterlimit:10;stroke-dasharray:none;stroke-opacity:1"
       transform="translate(100.77334,33.693264)"
       clip-path="url(#clipPath16)" />
    <path
       id="path17"
       d="m 0,0 -1.6,-3.68 -2.08,-3.52 -2.4,-3.36 -2.56,-3.04 -2.88,-2.88 -3.04,-2.560001 -3.36,-2.4 -3.520001,-1.92 -3.68,-1.76"
       style="fill:none;stroke:#000000;stroke-width:26.4;stroke-linecap:round;stroke-linejoin:round;stroke-miterlimit:10;stroke-dasharray:none;stroke-opacity:1"
       transform="translate(125.89335,58.81329)"
       clip-path="url(#clipPath18)" />
  </g>
</svg>
