<?xml version="1.0" encoding="UTF-8" standalone="no"?>
<!-- Created with Inkscape (http://www.inkscape.org/) -->

<svg
   version="1.1"
   id="svg1"
   width="436.23999"
   height="507.22668"
   viewBox="0 0 436.23999 507.22668"
   sodipodi:docname="Tutty24.pdf"
   xmlns:inkscape="http://www.inkscape.org/namespaces/inkscape"
   xmlns:sodipodi="http://sodipodi.sourceforge.net/DTD/sodipodi-0.dtd"
   xmlns="http://www.w3.org/2000/svg"
   xmlns:svg="http://www.w3.org/2000/svg">
  <defs
     id="defs1">
    <clipPath
       clipPathUnits="userSpaceOnUse"
       id="clipPath2">
      <path
         d="M 0,0.16 V 1122.5601 H 793.59998 V 0.16 Z"
         transform="translate(-583.67999,-435.51999)"
         clip-rule="evenodd"
         id="path2" />
    </clipPath>
    <clipPath
       clipPathUnits="userSpaceOnUse"
       id="clipPath4">
      <path
         d="M 0,0.16 V 1122.5601 H 793.59998 V 0.16 Z"
         transform="translate(-209.92,-686.88001)"
         clip-rule="evenodd"
         id="path4" />
    </clipPath>
    <clipPath
       clipPathUnits="userSpaceOnUse"
       id="clipPath6">
      <path
         d="M 0,0.16 V 1122.5601 H 793.59998 V 0.16 Z"
         clip-rule="evenodd"
         id="path6" />
    </clipPath>
    <clipPath
       clipPathUnits="userSpaceOnUse"
       id="clipPath8">
      <path
         d="M 0,0.16 V 1122.5601 H 793.59998 V 0.16 Z"
         clip-rule="evenodd"
         id="path8" />
    </clipPath>
  </defs>
  <sodipodi:namedview
     id="namedview1"
     pagecolor="#505050"
     bordercolor="#eeeeee"
     borderopacity="1"
     inkscape:showpageshadow="0"
     inkscape:pageopacity="0"
     inkscape:pagecheckerboard="0"
     inkscape:deskcolor="#505050">
    <inkscape:page
       x="0"
       y="0"
       inkscape:label="1"
       id="page1"
       width="436.23999"
       height="507.22668"
       margin="0"
       bleed="0" />
  </sodipodi:namedview>
  <g
     id="g1"
     inkscape:groupmode="layer"
     inkscape:label="1">
    <path
       id="path1"
       d="m 0,0 1.12,-5.44 0.64,-5.6 0.16,-5.599999 L 1.92,-22.4 1.44,-28 0.48,-33.599998 -0.64,-39.040001 -2.24,-44.48 -4,-49.759998 -6.24,-54.880001 -8.8,-60 l -2.88,-4.639999 -3.2,-4.64 -3.52,-4.319999 -3.68,-4 -4,-3.840004 -4.16,-3.519997 L -34.720001,-88 l -4.64,-2.879997 -4.799999,-2.560005 -4.959999,-2.079995 -4.960003,-1.760002 -5.279999,-1.440002 -5.120002,-1.119995 -5.439995,-0.640004 -5.279999,-0.32 -5.280006,0.16 -5.439995,0.48 -5.279999,0.960003 -5.120003,1.119995 -5.12,1.760002 -4.96,1.919998 -4.96,2.400002 -4.64,2.720001 -4.48,3.040001 -4.32,3.360001 -4.16001,3.68 -3.83999,3.839996 -3.52001,4.160004 -3.35998,4.479996 -2.88001,4.800003 -2.72,4.799999 -2.39999,5.119999 -2.08,5.279999 -1.60001,5.280002 L -152.8,-36"
       style="fill:none;stroke:#000000;stroke-width:26.4;stroke-linecap:round;stroke-linejoin:round;stroke-miterlimit:10;stroke-dasharray:none;stroke-opacity:1"
       transform="translate(583.67999,436.85326)"
       clip-path="url(#clipPath2)" />
    <path
       id="path3"
       d="m 0,0 -0.96,5.6 -0.64,5.6 -0.32,5.759999 0.16,5.6 0.48,5.600001 0.8,5.599998 1.28,5.600003 1.44,5.439998 1.92,5.280003 2.24,5.119999 2.56,4.959999 2.88,4.799999 3.2,4.480003 3.36,4.32 3.84,4 3.84,3.839996 4.32,3.520005 4.320001,3.199997 4.64,2.720001 4.799999,2.559997 4.959999,2.239998 5.120003,1.760002 5.119999,1.440003 5.279998,0.959999 5.279999,0.64 5.440003,0.32 5.279998,-0.16 5.279999,-0.48 5.279999,-0.800003 5.280006,-1.279999 5.119997,-1.599999 4.96,-2.080001 4.96,-2.399994 4.64,-2.560006 4.48,-3.04 4.32,-3.360001 4.00001,-3.68 3.83999,-4 3.68,-4.159996 3.19999,-4.480004 3.04001,-4.639995 2.72,-4.960003 2.4,-5.119999 1.91999,-5.119999 L 151.52,41.599998 152.8,36"
       style="fill:none;stroke:#000000;stroke-width:26.4;stroke-linecap:round;stroke-linejoin:round;stroke-miterlimit:10;stroke-dasharray:none;stroke-opacity:1"
       transform="translate(209.92,688.21328)"
       clip-path="url(#clipPath4)" />
    <path
       id="path5"
       d="M 430.88,399.51999 362.72,723.03998"
       style="fill:none;stroke:#000000;stroke-width:26.4;stroke-linecap:round;stroke-linejoin:round;stroke-miterlimit:10;stroke-dasharray:none;stroke-opacity:1"
       transform="translate(0,1.3332747)"
       clip-path="url(#clipPath6)" />
    <path
       id="path7"
       d="M 320.48001,543.20001 473.28,579.35998"
       style="fill:none;stroke:#000000;stroke-width:26.4;stroke-linecap:round;stroke-linejoin:round;stroke-miterlimit:10;stroke-dasharray:none;stroke-opacity:1"
       transform="translate(0,1.3332747)"
       clip-path="url(#clipPath8)" />
  </g>
</svg>
