<?xml version="1.0" encoding="UTF-8" standalone="no"?>
<!-- Created with Inkscape (http://www.inkscape.org/) -->

<svg
   version="1.1"
   id="svg1"
   width="356.20001"
   height="224.25333"
   viewBox="0 0 356.20001 224.25333"
   sodipodi:docname="Tutty8.pdf"
   xmlns:inkscape="http://www.inkscape.org/namespaces/inkscape"
   xmlns:sodipodi="http://sodipodi.sourceforge.net/DTD/sodipodi-0.dtd"
   xmlns="http://www.w3.org/2000/svg"
   xmlns:svg="http://www.w3.org/2000/svg">
  <defs
     id="defs1">
    <clipPath
       clipPathUnits="userSpaceOnUse"
       id="clipPath2">
      <path
         d="M 0,0.16 V 1122.5601 H 793.59998 V 0.16 Z"
         transform="translate(-164,-680.79999)"
         clip-rule="evenodd"
         id="path2" />
    </clipPath>
    <clipPath
       clipPathUnits="userSpaceOnUse"
       id="clipPath4">
      <path
         d="M 0,0.16 V 1122.5601 H 793.59998 V 0.16 Z"
         transform="translate(-164,-680.79999)"
         clip-rule="evenodd"
         id="path4" />
    </clipPath>
    <clipPath
       clipPathUnits="userSpaceOnUse"
       id="clipPath6">
      <path
         d="M 0,0.16 V 1122.5601 H 793.59998 V 0.16 Z"
         transform="translate(-264.64001,-680.79999)"
         clip-rule="evenodd"
         id="path6" />
    </clipPath>
    <clipPath
       clipPathUnits="userSpaceOnUse"
       id="clipPath8">
      <path
         d="M 0,0.16 V 1122.5601 H 793.59998 V 0.16 Z"
         transform="translate(-264.64001,-680.79999)"
         clip-rule="evenodd"
         id="path8" />
    </clipPath>
    <clipPath
       clipPathUnits="userSpaceOnUse"
       id="clipPath10">
      <path
         d="M 0,0.16 V 1122.5601 H 793.59998 V 0.16 Z"
         transform="translate(-365.28,-680.79999)"
         clip-rule="evenodd"
         id="path10" />
    </clipPath>
    <clipPath
       clipPathUnits="userSpaceOnUse"
       id="clipPath12">
      <path
         d="M 0,0.16 V 1122.5601 H 793.59998 V 0.16 Z"
         clip-rule="evenodd"
         id="path12" />
    </clipPath>
    <clipPath
       clipPathUnits="userSpaceOnUse"
       id="clipPath14">
      <path
         d="M 0,0.16 V 1122.5601 H 793.59998 V 0.16 Z"
         clip-rule="evenodd"
         id="path14" />
    </clipPath>
    <clipPath
       clipPathUnits="userSpaceOnUse"
       id="clipPath16">
      <path
         d="M 0,0.16 V 1122.5601 H 793.59998 V 0.16 Z"
         transform="translate(-264.64001,-580.15997)"
         clip-rule="evenodd"
         id="path16" />
    </clipPath>
    <clipPath
       clipPathUnits="userSpaceOnUse"
       id="clipPath18">
      <path
         d="M 0,0.16 V 1122.5601 H 793.59998 V 0.16 Z"
         clip-rule="evenodd"
         id="path18" />
    </clipPath>
    <clipPath
       clipPathUnits="userSpaceOnUse"
       id="clipPath20">
      <path
         d="M 0,0.16 V 1122.5601 H 793.59998 V 0.16 Z"
         clip-rule="evenodd"
         id="path20" />
    </clipPath>
  </defs>
  <sodipodi:namedview
     id="namedview1"
     pagecolor="#505050"
     bordercolor="#eeeeee"
     borderopacity="1"
     inkscape:showpageshadow="0"
     inkscape:pageopacity="0"
     inkscape:pagecheckerboard="0"
     inkscape:deskcolor="#505050">
    <inkscape:page
       x="0"
       y="0"
       inkscape:label="1"
       id="page1"
       width="356.20001"
       height="224.25333"
       margin="0"
       bleed="0" />
  </sodipodi:namedview>
  <g
     id="g1"
     inkscape:groupmode="layer"
     inkscape:label="1">
    <path
       id="path1"
       d="m 0,0 -0.16,-2.56 -0.32,-2.56 -0.8,-2.56 -0.96,-2.56 -1.12,-2.24 -1.44,-2.24 -1.6,-2.079999 -1.92,-1.92 -2.08,-1.600001 -2.24,-1.44 -2.24,-1.119999 L -17.440001,-23.84 -20,-24.48 l -2.559999,-0.479999 -2.560002,-0.160002 -2.719999,0.160002 -2.56,0.479999 -2.559999,0.64 -2.400002,0.960001 L -37.759998,-21.76 -40,-20.32 l -2.080002,1.600001 -1.759998,1.92 -1.759998,2.079999 -1.280003,2.24 -1.279999,2.24 -0.959999,2.56 -0.639999,2.56 -0.480004,2.56 -0.16,2.56"
       style="fill:none;stroke:#000000;stroke-width:26.4;stroke-linecap:round;stroke-linejoin:round;stroke-miterlimit:10;stroke-dasharray:none;stroke-opacity:1"
       transform="translate(102.64,165.57326)"
       clip-path="url(#clipPath2)" />
    <path
       id="path3"
       d="m 0,0 0.16,2.72 0.48,2.56 0.64,2.56 0.96,2.4 1.12,2.4 1.44,2.24 1.6,2.079999 1.92,1.76 2.08,1.760001 2.24,1.44 2.24,1.120001 L 17.440001,24 20,24.639999 l 2.559999,0.480002 2.560002,0.16 2.719999,-0.16 L 30.4,24.639999 32.959999,24 35.360001,23.040001 37.759998,21.92 40,20.48 42.080002,18.719999 43.84,16.959999 45.599998,14.88 47.040001,12.64 48.16,10.24 49.119999,7.84 49.759998,5.28 50.240002,2.72 V 0"
       style="fill:none;stroke:#000000;stroke-width:26.4;stroke-linecap:round;stroke-linejoin:round;stroke-miterlimit:10;stroke-dasharray:none;stroke-opacity:1"
       transform="translate(102.64,165.57326)"
       clip-path="url(#clipPath4)" />
    <path
       id="path5"
       d="m 0,0 -0.16,-2.56 -0.32,-2.72 -0.8,-2.56 -0.96,-2.4 -1.12,-2.4 -1.44,-2.24 -1.76,-2.079999 -1.92,-1.92 -2.08,-1.600001 -2.24,-1.44 -2.4,-1.120001 L -17.76,-24 l -2.56,-0.639999 -2.720001,-0.32 -2.559999,-0.160002 -2.72,0.160002 -2.559999,0.479999 -2.56,0.8 L -36,-22.719999 -38.240002,-21.440001 -40.48,-19.84 l -2.080001,1.76 -1.759999,1.92 -1.599998,2.08 -1.440003,2.4 -1.119999,2.4 -0.799999,2.4 -0.639999,2.72 -0.320004,2.56"
       style="fill:none;stroke:#000000;stroke-width:26.4;stroke-linecap:round;stroke-linejoin:round;stroke-miterlimit:10;stroke-dasharray:none;stroke-opacity:1"
       transform="translate(203.28001,165.57326)"
       clip-path="url(#clipPath6)" />
    <path
       id="path7"
       d="m 0,0 0.16,2.72 0.48,2.56 0.64,2.56 0.96,2.4 1.12,2.4 1.44,2.24 1.76,2.079999 1.76,1.76 2.08,1.760001 2.24,1.44 2.4,1.120001 L 17.440001,24 20,24.639999 l 2.559999,0.480002 2.720002,0.16 2.559999,-0.16 L 30.4,24.639999 32.959999,24 35.52,23.040001 37.759998,21.92 40,20.48 42.080002,18.719999 44,16.959999 45.599998,14.88 47.040001,12.64 48.16,10.24 l 0.959999,-2.4 0.799999,-2.56 0.320004,-2.56 0.16,-2.72"
       style="fill:none;stroke:#000000;stroke-width:26.4;stroke-linecap:round;stroke-linejoin:round;stroke-miterlimit:10;stroke-dasharray:none;stroke-opacity:1"
       transform="translate(203.28001,165.57326)"
       clip-path="url(#clipPath8)" />
    <path
       id="path9"
       d="m 0,0 v -2.56 l -0.48,-2.56 -0.64,-2.56 -0.96,-2.56 -1.12,-2.24 -1.44,-2.24 -1.76,-2.079999 -1.76,-1.92 -2.08,-1.600001 -2.24,-1.44 -2.4,-1.119999 -2.400001,-0.960001 -2.559999,-0.64 -2.56,-0.479999 -2.720001,-0.160002 -2.559999,0.160002 -2.56,0.479999 -2.559999,0.64 -2.560002,0.960001 -2.239997,1.119999 -2.240002,1.44 -2.079998,1.600001 -1.920002,1.92 -1.599999,2.079999 -1.440002,2.24 -1.119999,2.24 -0.959999,2.56 -0.799999,2.56 -0.320004,2.56 -0.16,2.56"
       style="fill:none;stroke:#000000;stroke-width:26.4;stroke-linecap:round;stroke-linejoin:round;stroke-miterlimit:10;stroke-dasharray:none;stroke-opacity:1"
       transform="translate(303.92,165.57326)"
       clip-path="url(#clipPath10)" />
    <path
       id="path11"
       d="M 88.480003,605.28003 H 214.39999"
       style="fill:none;stroke:#000000;stroke-width:26.4;stroke-linecap:round;stroke-linejoin:round;stroke-miterlimit:10;stroke-dasharray:none;stroke-opacity:1"
       transform="translate(-61.36,-515.22673)"
       clip-path="url(#clipPath12)" />
    <path
       id="path13"
       d="M 264.64001,605.28003 H 390.56"
       style="fill:none;stroke:#000000;stroke-width:26.4;stroke-linecap:round;stroke-linejoin:round;stroke-miterlimit:10;stroke-dasharray:none;stroke-opacity:1"
       transform="translate(-61.36,-515.22673)"
       clip-path="url(#clipPath14)" />
    <path
       id="path15"
       d="m 0,0 v -2.56 l -0.48,-2.72 -0.64,-2.4 -0.96,-2.56 -1.28,-2.4 -1.44,-2.08 -1.6,-2.079999 -1.92,-1.92 -1.92,-1.600001 -2.24,-1.44 -2.4,-1.280001 L -17.280001,-24 -19.84,-24.639999 l -2.719999,-0.32 -2.560002,-0.160002 -2.559999,0.160002 -2.72,0.32 -2.559999,0.639999 -2.400002,0.959999 -2.399997,1.280001 -2.080002,1.44 -2.079998,1.600001 -1.920002,1.92 -1.599999,2.079999 -1.440002,2.08 -1.279999,2.4 -0.959999,2.56 -0.639999,2.4 -0.320004,2.72 -0.32,2.56"
       style="fill:none;stroke:#000000;stroke-width:26.4;stroke-linecap:round;stroke-linejoin:round;stroke-miterlimit:10;stroke-dasharray:none;stroke-opacity:1"
       transform="translate(203.28001,64.933248)"
       clip-path="url(#clipPath16)" />
    <path
       id="path17"
       d="m 214.39999,580.15997 v 25.12006"
       style="fill:none;stroke:#000000;stroke-width:26.4;stroke-linecap:round;stroke-linejoin:round;stroke-miterlimit:10;stroke-dasharray:none;stroke-opacity:1"
       transform="translate(-61.36,-515.22673)"
       clip-path="url(#clipPath18)" />
    <path
       id="path19"
       d="m 264.64001,580.15997 v 25.12006"
       style="fill:none;stroke:#000000;stroke-width:26.4;stroke-linecap:round;stroke-linejoin:round;stroke-miterlimit:10;stroke-dasharray:none;stroke-opacity:1"
       transform="translate(-61.36,-515.22673)"
       clip-path="url(#clipPath20)" />
  </g>
</svg>
