<?xml version="1.0" encoding="UTF-8" standalone="no"?>
<!-- Created with Inkscape (http://www.inkscape.org/) -->

<svg
   version="1.1"
   id="svg1"
   width="366.86667"
   height="497.88"
   viewBox="0 0 366.86667 497.88"
   sodipodi:docname="Tutty13.pdf"
   xmlns:inkscape="http://www.inkscape.org/namespaces/inkscape"
   xmlns:sodipodi="http://sodipodi.sourceforge.net/DTD/sodipodi-0.dtd"
   xmlns="http://www.w3.org/2000/svg"
   xmlns:svg="http://www.w3.org/2000/svg">
  <defs
     id="defs1">
    <clipPath
       clipPathUnits="userSpaceOnUse"
       id="clipPath2">
      <path
         d="M 0,0.16 V 1122.5601 H 793.59998 V 0.16 Z"
         transform="translate(-547.84003,-787.84003)"
         clip-rule="evenodd"
         id="path2" />
    </clipPath>
    <clipPath
       clipPathUnits="userSpaceOnUse"
       id="clipPath4">
      <path
         d="M 0,0.16 V 1122.5601 H 793.59998 V 0.16 Z"
         transform="translate(3.3333333e-6)"
         clip-rule="evenodd"
         id="path4" />
    </clipPath>
    <clipPath
       clipPathUnits="userSpaceOnUse"
       id="clipPath6">
      <path
         d="M 0,0.16 V 1122.5601 H 793.59998 V 0.16 Z"
         transform="translate(3.3333333e-6)"
         clip-rule="evenodd"
         id="path6" />
    </clipPath>
  </defs>
  <sodipodi:namedview
     id="namedview1"
     pagecolor="#505050"
     bordercolor="#eeeeee"
     borderopacity="1"
     inkscape:showpageshadow="0"
     inkscape:pageopacity="0"
     inkscape:pagecheckerboard="0"
     inkscape:deskcolor="#505050">
    <inkscape:page
       x="0"
       y="0"
       inkscape:label="1"
       id="page1"
       width="366.86667"
       height="497.88"
       margin="0"
       bleed="0" />
  </sodipodi:namedview>
  <g
     id="g1"
     inkscape:groupmode="layer"
     inkscape:label="1">
    <path
       id="path1"
       d="m 0,0 -0.16,-8.16 -0.64,-8.16 -1.12,-8.16 -1.6,-8 -1.92,-7.84 -2.4,-7.84 -2.88,-7.68 -3.2,-7.520001 -3.68,-7.36 -4,-7.199997 -4.32,-6.880005 -4.799999,-6.559998 -5.120001,-6.400001 -5.439999,-6.079998 -5.920002,-5.76 -6.079998,-5.44 -6.240001,-5.12 -6.719998,-4.8 -6.880005,-4.48 -7.199997,-4 -7.199997,-3.67999 -7.520004,-3.20002 -7.679999,-2.71998 -7.84,-2.40001 -8,-2.08 -8,-1.44001 -8.16,-1.11999 -8.16,-0.8 -8.15999,-0.15999 -8.16001,0.15999 -8.16,0.8 -8,1.11999 -8.16,1.44001 -7.84,2.08 -7.84,2.40001 -7.68,2.71998 -7.51999,3.20002 -7.36,3.67999 -7.04001,4 -6.87999,4.48 -6.72,4.8 -6.40001,5.12 -6.08,5.44 -5.76001,5.76 -5.43998,6.079998 -5.12002,6.400001 -4.79999,6.559998 -4.48001,6.880005 -4,7.199997 -3.51999,7.36 -3.35999,7.520001 -2.72,7.68 -2.40002,7.84 -2.07999,7.84 -1.44,8 -1.12,8.16 -0.64001,8.16 -0.31998,8.16"
       style="fill:none;stroke:#000000;stroke-width:26.4;stroke-linecap:round;stroke-linejoin:round;stroke-miterlimit:10;stroke-dasharray:none;stroke-opacity:1"
       transform="translate(339.73336,474.15997)"
       clip-path="url(#clipPath2)" />
    <path
       id="path3"
       d="M 396.79999,636.79999 V 334.72"
       style="fill:none;stroke:#000000;stroke-width:26.4;stroke-linecap:round;stroke-linejoin:round;stroke-miterlimit:10;stroke-dasharray:none;stroke-opacity:1"
       transform="translate(-208.10667,-313.68006)"
       clip-path="url(#clipPath4)" />
    <path
       id="path5"
       d="M 245.75999,485.76001 H 547.84003"
       style="fill:none;stroke:#000000;stroke-width:26.4;stroke-linecap:round;stroke-linejoin:round;stroke-miterlimit:10;stroke-dasharray:none;stroke-opacity:1"
       transform="translate(-208.10667,-313.68006)"
       clip-path="url(#clipPath6)" />
  </g>
</svg>
