<?xml version="1.0" encoding="UTF-8" standalone="no"?>
<!-- Created with Inkscape (http://www.inkscape.org/) -->

<svg
   version="1.1"
   id="svg1"
   width="289.49332"
   height="513.89331"
   viewBox="0 0 289.49332 513.89331"
   sodipodi:docname="Tutty12.pdf"
   xmlns:inkscape="http://www.inkscape.org/namespaces/inkscape"
   xmlns:sodipodi="http://sodipodi.sourceforge.net/DTD/sodipodi-0.dtd"
   xmlns="http://www.w3.org/2000/svg"
   xmlns:svg="http://www.w3.org/2000/svg">
  <defs
     id="defs1">
    <clipPath
       clipPathUnits="userSpaceOnUse"
       id="clipPath2">
      <path
         d="M 0,0.16 V 1122.5601 H 793.59998 V 0.16 Z"
         clip-rule="evenodd"
         id="path2" />
    </clipPath>
    <clipPath
       clipPathUnits="userSpaceOnUse"
       id="clipPath4">
      <path
         d="M 0,0.16 V 1122.5601 H 793.59998 V 0.16 Z"
         clip-rule="evenodd"
         id="path4" />
    </clipPath>
    <clipPath
       clipPathUnits="userSpaceOnUse"
       id="clipPath6">
      <path
         d="M 0,0.16 V 1122.5601 H 793.59998 V 0.16 Z"
         transform="translate(-283.51999,-334.72)"
         clip-rule="evenodd"
         id="path6" />
    </clipPath>
    <clipPath
       clipPathUnits="userSpaceOnUse"
       id="clipPath8">
      <path
         d="M 0,0.16 V 1122.5601 H 793.59998 V 0.16 Z"
         transform="translate(-503.20001,-787.84003)"
         clip-rule="evenodd"
         id="path8" />
    </clipPath>
  </defs>
  <sodipodi:namedview
     id="namedview1"
     pagecolor="#505050"
     bordercolor="#eeeeee"
     borderopacity="1"
     inkscape:showpageshadow="0"
     inkscape:pageopacity="0"
     inkscape:pagecheckerboard="0"
     inkscape:deskcolor="#505050">
    <inkscape:page
       x="0"
       y="0"
       inkscape:label="1"
       id="page1"
       width="289.49332"
       height="513.89331"
       margin="0"
       bleed="0" />
  </sodipodi:namedview>
  <g
     id="g1"
     inkscape:groupmode="layer"
     inkscape:label="1">
    <path
       id="path1"
       d="M 396.79999,448 V 674.56"
       style="fill:none;stroke:#000000;stroke-width:26.4;stroke-linecap:round;stroke-linejoin:round;stroke-miterlimit:10;stroke-dasharray:none;stroke-opacity:1"
       transform="translate(0,-8.0000587)"
       clip-path="url(#clipPath2)" />
    <path
       id="path3"
       d="m 283.51999,561.28003 h 226.56"
       style="fill:none;stroke:#000000;stroke-width:26.4;stroke-linecap:round;stroke-linejoin:round;stroke-miterlimit:10;stroke-dasharray:none;stroke-opacity:1"
       transform="translate(0,-8.0000587)"
       clip-path="url(#clipPath4)" />
    <path
       id="path5"
       d="m 0,0 0.32,6.88 0.64,6.88 0.96,6.72 1.44,6.720001 1.76,6.559997 2.24,6.400002 2.72,6.400001 2.88,6.079998 3.36,5.920002 3.84,5.759999 4,5.599998 4.32,5.279999 4.799999,4.960007 4.960003,4.639999 5.279998,4.479996 5.439999,4 5.760002,3.68 5.919998,3.360001 6.239998,3.04 6.240006,2.56 6.559997,2.24 6.559998,1.92 6.720001,1.44 6.720001,0.96 6.88,0.64 6.72,0.16 6.88,-0.16 6.88,-0.64 6.71999,-0.96 6.72001,-1.44 6.55999,-1.92 6.40001,-2.24 6.4,-2.56 6.08,-3.04 6.08,-3.360001 5.60001,-3.68 5.59999,-4 5.28,-4.479996 4.96,-4.639999 4.64,-4.960007 4.48,-5.279999 4,-5.599998 3.68,-5.759999 3.36001,-5.920002 3.03999,-6.079998 2.56,-6.400001 2.24,-6.400002 1.92,-6.559997 1.44,-6.720001 0.95999,-6.72 0.64,-6.88 L 226.56,0"
       style="fill:none;stroke:#000000;stroke-width:26.4;stroke-linecap:round;stroke-linejoin:round;stroke-miterlimit:10;stroke-dasharray:none;stroke-opacity:1"
       transform="translate(283.51999,326.71994)"
       clip-path="url(#clipPath6)" />
    <path
       id="path7"
       d="m 0,0 v -6.72 l -0.64,-6.56 -1.12,-6.72 -1.44,-6.559999 -1.92,-6.4 -2.24,-6.240002 -2.56,-6.079998 -3.04,-6.080002 -3.52,-5.759998 -3.68,-5.440002 -4.16,-5.279995 -4.319999,-5.120003 -4.8,-4.639999 -4.960003,-4.480004 -5.279998,-4 -5.599999,-3.839996 -5.760002,-3.360001 -5.919998,-3.040001 -6.239998,-2.720001 -6.240005,-2.239999 -6.399994,-1.92 -6.560006,-1.44 -6.559997,-0.96 -6.720001,-0.64 -6.72,-0.32 -6.56,0.32 -6.72,0.64 -6.56,0.96 -6.56,1.44 -6.4,1.92 -6.40001,2.239999 -6.07998,2.720001 -5.92002,3.040001 -5.75999,3.360001 -5.60001,3.839996 -5.27999,4 -4.96,4.480004 -4.8,4.639999 -4.48,5.120003 -4,5.279995 -3.84001,5.440002 -3.35998,5.759998 -3.04001,6.080002 -2.72,6.079998 -2.23999,6.240002 -1.76001,6.4 L -211.03999,-20 -212,-13.28 l -0.64,6.56 -0.32001,6.72"
       style="fill:none;stroke:#000000;stroke-width:26.4;stroke-linecap:round;stroke-linejoin:round;stroke-miterlimit:10;stroke-dasharray:none;stroke-opacity:1"
       transform="translate(503.20001,779.83997)"
       clip-path="url(#clipPath8)" />
  </g>
</svg>
