<?xml version="1.0" encoding="UTF-8" standalone="no"?>
<!-- Created with Inkscape (http://www.inkscape.org/) -->

<svg
   version="1.1"
   id="svg1"
   width="437.57333"
   height="400.42667"
   viewBox="0 0 437.57333 400.42667"
   sodipodi:docname="VinegarDistilled4.pdf"
   xmlns:inkscape="http://www.inkscape.org/namespaces/inkscape"
   xmlns:sodipodi="http://sodipodi.sourceforge.net/DTD/sodipodi-0.dtd"
   xmlns="http://www.w3.org/2000/svg"
   xmlns:svg="http://www.w3.org/2000/svg">
  <defs
     id="defs1">
    <clipPath
       clipPathUnits="userSpaceOnUse"
       id="clipPath2">
      <path
         d="M 0,0.16 V 1122.5601 H 793.59998 V 0.16 Z"
         transform="translate(-274.07999,-410.23999)"
         clip-rule="evenodd"
         id="path2" />
    </clipPath>
    <clipPath
       clipPathUnits="userSpaceOnUse"
       id="clipPath4">
      <path
         d="M 0,0.16 V 1122.5601 H 793.59998 V 0.16 Z"
         transform="translate(-576.15997,-410.23999)"
         clip-rule="evenodd"
         id="path4" />
    </clipPath>
    <clipPath
       clipPathUnits="userSpaceOnUse"
       id="clipPath6">
      <path
         d="M 0,0.16 V 1122.5601 H 793.59998 V 0.16 Z"
         transform="translate(-576.15997,-712.32001)"
         clip-rule="evenodd"
         id="path6" />
    </clipPath>
    <clipPath
       clipPathUnits="userSpaceOnUse"
       id="clipPath8">
      <path
         d="M 0,0.16 V 1122.5601 H 793.59998 V 0.16 Z"
         transform="translate(-274.07999,-712.32001)"
         clip-rule="evenodd"
         id="path8" />
    </clipPath>
    <clipPath
       clipPathUnits="userSpaceOnUse"
       id="clipPath10">
      <path
         d="M 0,0.16 V 1122.5601 H 793.59998 V 0.16 Z"
         transform="translate(-274.07999,-410.23999)"
         clip-rule="evenodd"
         id="path10" />
    </clipPath>
    <clipPath
       clipPathUnits="userSpaceOnUse"
       id="clipPath12">
      <path
         d="M 0,0.16 V 1122.5601 H 793.59998 V 0.16 Z"
         clip-rule="evenodd"
         id="path12" />
    </clipPath>
    <clipPath
       clipPathUnits="userSpaceOnUse"
       id="clipPath14">
      <path
         d="M 0,0.16 V 1122.5601 H 793.59998 V 0.16 Z"
         clip-rule="evenodd"
         id="path14" />
    </clipPath>
    <clipPath
       clipPathUnits="userSpaceOnUse"
       id="clipPath16">
      <path
         d="M 0,0.16 V 1122.5601 H 793.59998 V 0.16 Z"
         clip-rule="evenodd"
         id="path16" />
    </clipPath>
    <clipPath
       clipPathUnits="userSpaceOnUse"
       id="clipPath18">
      <path
         d="M 0,0.16 V 1122.5601 H 793.59998 V 0.16 Z"
         clip-rule="evenodd"
         id="path18" />
    </clipPath>
  </defs>
  <sodipodi:namedview
     id="namedview1"
     pagecolor="#505050"
     bordercolor="#eeeeee"
     borderopacity="1"
     inkscape:showpageshadow="0"
     inkscape:pageopacity="0"
     inkscape:pagecheckerboard="0"
     inkscape:deskcolor="#505050">
    <inkscape:page
       x="0"
       y="0"
       inkscape:label="1"
       id="page1"
       width="437.57333"
       height="400.42667"
       margin="0"
       bleed="0" />
  </sodipodi:namedview>
  <g
     id="g1"
     inkscape:groupmode="layer"
     inkscape:label="1">
    <path
       id="path1"
       d="m 0,0 -0.16,-2.88 -0.48,-3.04 -0.64,-2.88 -1.12,-2.72 -1.28,-2.56 -1.6,-2.559999 -1.92,-2.24 -2.08,-2.08 -2.4,-1.92 -2.4,-1.600001 -2.719999,-1.28 L -19.52,-26.879999 -22.4,-27.68 l -2.880001,-0.48 -3.039999,-0.16 -2.880001,0.16 -2.880001,0.48 -2.879997,0.800001 L -39.84,-25.76 l -2.560002,1.28 -2.559997,1.600001 -2.240002,1.92 -2.079998,2.08 -1.920002,2.24 -1.599998,2.559999 -1.280003,2.56 -1.119999,2.72 L -56,-5.92 -56.48,-2.88 -56.639999,0 -56.48,3.04 -56,5.92 l 0.799999,2.88 1.119999,2.72 1.280003,2.72 1.599998,2.399999 1.920002,2.400002 2.079998,2.08 2.240002,1.759998 2.559997,1.600001 2.560002,1.44 2.880001,1.120001 2.879997,0.639999 2.880001,0.48 2.880001,0.16 3.039999,-0.16 L -22.4,27.68 -19.52,27.040001 -16.799999,25.92 -14.08,24.48 l 2.4,-1.600001 2.4,-1.759998 2.08,-2.08 1.92,-2.400002 L -3.68,14.24 -2.4,11.52 -1.28,8.8 -0.64,5.92 -0.16,3.04 0,0 v 0 z"
       style="fill:#000000;fill-opacity:1;fill-rule:evenodd;stroke:none"
       transform="translate(95.319987,48.506598)"
       clip-path="url(#clipPath2)" />
    <path
       id="path3"
       d="m 0,0 -0.16,-2.88 -0.48,-3.04 -0.64,-2.88 -1.12,-2.72 -1.28,-2.56 -1.76,-2.559999 -1.76,-2.24 -2.08,-2.08 -2.4,-1.92 -2.4,-1.600001 -2.719999,-1.28 L -19.52,-26.879999 -22.4,-27.68 l -2.880001,-0.48 -3.039999,-0.16 -2.880001,0.16 -3.040001,0.48 -2.719997,0.800001 L -39.84,-25.76 l -2.560002,1.28 -2.559997,1.600001 -2.240002,1.92 -2.079998,2.08 -1.920002,2.24 -1.599998,2.559999 -1.280003,2.56 -1.119999,2.72 L -56,-5.92 -56.48,-2.88 -56.639999,0 -56.48,3.04 -56,5.92 l 0.799999,2.88 1.119999,2.72 1.280003,2.72 1.599998,2.399999 1.920002,2.400002 2.079998,2.08 2.240002,1.759998 2.559997,1.600001 2.560002,1.44 2.880001,1.120001 2.719997,0.639999 3.040001,0.48 2.880001,0.16 3.039999,-0.16 L -22.4,27.68 -19.52,27.040001 -16.799999,25.92 -14.08,24.48 l 2.4,-1.600001 2.4,-1.759998 2.08,-2.08 1.76,-2.400002 L -3.68,14.24 -2.4,11.52 -1.28,8.8 -0.64,5.92 -0.16,3.04 0,0 v 0 z"
       style="fill:#000000;fill-opacity:1;fill-rule:evenodd;stroke:none"
       transform="translate(397.39997,48.506598)"
       clip-path="url(#clipPath4)" />
    <path
       id="path5"
       d="m 0,0 -0.16,-2.88 -0.48,-3.04 -0.64,-2.88 -1.12,-2.72 -1.28,-2.56 -1.76,-2.559999 -1.76,-2.24 -2.08,-2.08 -2.4,-1.92 -2.4,-1.600001 -2.719999,-1.44 L -19.52,-26.879999 -22.4,-27.68 l -2.880001,-0.48 -3.039999,-0.16 -2.880001,0.16 -3.040001,0.48 -2.719997,0.800001 L -39.84,-25.92 l -2.560002,1.44 -2.559997,1.600001 -2.240002,1.92 -2.079998,2.08 -1.920002,2.24 -1.599998,2.559999 -1.280003,2.56 -1.119999,2.72 L -56,-5.92 -56.48,-2.88 -56.639999,0 -56.48,3.04 -56,5.92 l 0.799999,2.88 1.119999,2.72 1.280003,2.72 1.599998,2.399999 1.920002,2.24 2.079998,2.240002 2.240002,1.759998 2.559997,1.600001 2.560002,1.44 2.880001,0.959999 2.719997,0.800001 3.040001,0.48 2.880001,0.16 3.039999,-0.16 L -22.4,27.68 -19.52,26.879999 -16.799999,25.92 -14.08,24.48 l 2.4,-1.600001 2.4,-1.759998 2.08,-2.240002 1.76,-2.24 L -3.68,14.24 -2.4,11.52 -1.28,8.8 -0.64,5.92 -0.16,3.04 0,0 v 0 z"
       style="fill:#000000;fill-opacity:1;fill-rule:evenodd;stroke:none"
       transform="translate(397.39997,350.58662)"
       clip-path="url(#clipPath6)" />
    <path
       id="path7"
       d="m 0,0 -0.16,-2.88 -0.48,-3.04 -0.64,-2.88 -1.12,-2.72 -1.28,-2.56 -1.6,-2.559999 -1.92,-2.24 -2.08,-2.08 -2.4,-1.92 -2.4,-1.600001 -2.719999,-1.44 L -19.52,-26.879999 -22.4,-27.68 l -2.880001,-0.48 -3.039999,-0.16 -2.880001,0.16 -2.880001,0.48 -2.879997,0.800001 L -39.84,-25.92 l -2.560002,1.44 -2.559997,1.600001 -2.240002,1.92 -2.079998,2.08 -1.920002,2.24 -1.599998,2.559999 -1.280003,2.56 -1.119999,2.72 L -56,-5.92 -56.48,-2.88 -56.639999,0 -56.48,3.04 -56,5.92 l 0.799999,2.88 1.119999,2.72 1.280003,2.72 1.599998,2.399999 1.920002,2.24 2.079998,2.240002 2.240002,1.759998 2.559997,1.600001 2.560002,1.44 2.880001,0.959999 2.879997,0.800001 2.880001,0.48 2.880001,0.16 3.039999,-0.16 L -22.4,27.68 -19.52,26.879999 -16.799999,25.92 -14.08,24.48 l 2.4,-1.600001 2.4,-1.759998 2.08,-2.240002 1.92,-2.24 L -3.68,14.24 -2.4,11.52 -1.28,8.8 -0.64,5.92 -0.16,3.04 0,0 v 0 z"
       style="fill:#000000;fill-opacity:1;fill-rule:evenodd;stroke:none"
       transform="translate(95.319987,350.58662)"
       clip-path="url(#clipPath8)" />
    <path
       id="path9"
       d="m 0,0 -0.16,-2.88 -0.48,-3.04 -0.64,-2.88 -1.12,-2.72 -1.28,-2.56 -1.6,-2.559999 -1.92,-2.24 -2.08,-2.08 -2.4,-1.92 -2.4,-1.600001 -2.719999,-1.28 L -19.52,-26.879999 -22.4,-27.68 l -2.880001,-0.48 -3.039999,-0.16 -2.880001,0.16 -2.880001,0.48 -2.879997,0.800001 L -39.84,-25.76 l -2.560002,1.28 -2.559997,1.600001 -2.240002,1.92 -2.079998,2.08 -1.920002,2.24 -1.599998,2.559999 -1.280003,2.56 -1.119999,2.72 L -56,-5.92 -56.48,-2.88 -56.639999,0 -56.48,3.04 -56,5.92 l 0.799999,2.88 1.119999,2.72 1.280003,2.72 1.599998,2.399999 1.920002,2.400002 2.079998,2.08 2.240002,1.759998 2.559997,1.600001 2.560002,1.44 2.880001,1.120001 2.879997,0.639999 2.880001,0.48 2.880001,0.16 3.039999,-0.16 L -22.4,27.68 -19.52,27.040001 -16.799999,25.92 -14.08,24.48 l 2.4,-1.600001 2.4,-1.759998 2.08,-2.08 1.92,-2.400002 L -3.68,14.24 -2.4,11.52 -1.28,8.8 -0.64,5.92 -0.16,3.04 0,0 m 302.07999,0 -0.15998,-2.88 -0.48001,-3.04 -0.64001,-2.88 -1.12,-2.72 -1.28,-2.56 -1.75998,-2.559999 -1.76001,-2.24 -2.08001,-2.08 -2.4,-1.92 L 288,-24.48 l -2.72,-1.28 -2.72,-1.119999 -2.88001,-0.800001 -2.88,-0.48 -3.03998,-0.16 -2.88001,0.16 -3.04,0.48 -2.72,0.800001 -2.88001,1.119999 -2.56,1.28 -2.55999,1.600001 -2.24,1.92 -2.08,2.08 -1.92,2.24 -1.6,2.559999 -1.28,2.56 -1.12,2.72 -0.8,2.88 -0.47999,3.04 L 245.44,0 l 0.16001,3.04 0.47999,2.88 0.8,2.88 1.12,2.72 1.28,2.72 1.6,2.399999 1.92,2.400002 2.08,2.08 2.24,1.759998 2.55999,1.600001 2.56,1.44 2.88001,1.120001 2.72,0.639999 3.04,0.48 2.88001,0.16 3.03998,-0.16 2.88,-0.48 2.88001,-0.639999 2.72,-1.120001 2.72,-1.44 2.39999,-1.600001 2.4,-1.759998 2.08001,-2.08 1.76001,-2.400002 1.75998,-2.399999 1.28,-2.72 1.12,-2.72 L 301.44,5.92 301.92001,3.04 302.07999,0 m 0,302.07999 -0.15998,-2.87998 -0.48001,-3.04001 -0.64001,-2.88 -1.12,-2.72 -1.28,-2.56 -1.75998,-2.56 -1.76001,-2.23999 -2.08001,-2.08001 -2.4,-1.91999 -2.39999,-1.6 -2.72,-1.44001 -2.72,-0.95999 -2.88001,-0.80002 -2.88,-0.47998 -3.03998,-0.16 -2.88001,0.16 -3.04,0.47998 -2.72,0.80002 -2.88001,0.95999 -2.56,1.44001 -2.55999,1.6 -2.24,1.91999 -2.08,2.08001 -1.92,2.23999 -1.6,2.56 -1.28,2.56 -1.12,2.72 -0.8,2.88 -0.47999,3.04001 -0.16001,2.87998 0.16001,3.04001 0.47999,2.88 0.8,2.88 1.12,2.72001 1.28,2.72 1.6,2.39999 1.92,2.23999 2.08,2.24002 2.24,1.75998 2.55999,1.60001 2.56,1.44 2.88001,0.95999 2.72,0.80002 3.04,0.47998 2.88001,0.16 3.03998,-0.16 2.88,-0.47998 2.88001,-0.80002 2.72,-0.95999 2.72,-1.44 2.39999,-1.60001 2.4,-1.75998 2.08001,-2.24002 1.76001,-2.23999 1.75998,-2.39999 1.28,-2.72 1.12,-2.72001 0.64001,-2.88 0.48001,-2.88 0.15998,-3.04001 M 0,302.07999 -0.16,299.20001 -0.64,296.16 -1.28,293.28 -2.4,290.56 -3.68,288 l -1.6,-2.56 -1.92,-2.23999 -2.08,-2.08001 -2.4,-1.91999 -2.4,-1.6 -2.719999,-1.44001 -2.720001,-0.95999 -2.88,-0.80002 -2.880001,-0.47998 -3.039999,-0.16 -2.880001,0.16 -2.880001,0.47998 -2.879997,0.80002 -2.880001,0.95999 -2.560002,1.44001 -2.559997,1.6 -2.240002,1.91999 -2.079998,2.08001 -1.920002,2.23999 -1.599998,2.56 -1.280003,2.56 -1.119999,2.72 -0.799999,2.88 -0.48,3.04001 -0.159999,2.87998 L -56.48,305.12 -56,308 l 0.799999,2.88 1.119999,2.72001 1.280003,2.72 1.599998,2.39999 1.920002,2.23999 2.079998,2.24002 2.240002,1.75998 2.559997,1.60001 2.560002,1.44 2.880001,0.95999 2.879997,0.80002 2.880001,0.47998 2.880001,0.16 3.039999,-0.16 2.880001,-0.47998 2.88,-0.80002 2.720001,-0.95999 2.719999,-1.44 2.4,-1.60001 2.4,-1.75998 2.08,-2.24002 1.92,-2.23999 1.6,-2.39999 1.28,-2.72 1.12,-2.72001 0.64,-2.88 0.48,-2.88 0.16,-3.04001"
       style="fill:none;stroke:#000000;stroke-width:0.48;stroke-linecap:round;stroke-linejoin:round;stroke-miterlimit:10;stroke-dasharray:none;stroke-opacity:1"
       transform="translate(95.319987,48.506598)"
       clip-path="url(#clipPath10)" />
    <path
       id="path11"
       d="M 217.44,485.76001 H 576.15997"
       style="fill:none;stroke:#000000;stroke-width:26.4;stroke-linecap:round;stroke-linejoin:round;stroke-miterlimit:10;stroke-dasharray:none;stroke-opacity:1"
       transform="translate(-178.76,-361.73339)"
       clip-path="url(#clipPath12)" />
    <path
       id="path13"
       d="M 217.44,636.79999 H 576.15997"
       style="fill:none;stroke:#000000;stroke-width:26.4;stroke-linecap:round;stroke-linejoin:round;stroke-miterlimit:10;stroke-dasharray:none;stroke-opacity:1"
       transform="translate(-178.76,-361.73339)"
       clip-path="url(#clipPath14)" />
    <path
       id="path15"
       d="m 321.28,381.92001 v 358.72"
       style="fill:none;stroke:#000000;stroke-width:26.4;stroke-linecap:round;stroke-linejoin:round;stroke-miterlimit:10;stroke-dasharray:none;stroke-opacity:1"
       transform="translate(-178.76,-361.73339)"
       clip-path="url(#clipPath16)" />
    <path
       id="path17"
       d="m 472.32001,381.92001 v 358.72"
       style="fill:none;stroke:#000000;stroke-width:26.4;stroke-linecap:round;stroke-linejoin:round;stroke-miterlimit:10;stroke-dasharray:none;stroke-opacity:1"
       transform="translate(-178.76,-361.73339)"
       clip-path="url(#clipPath18)" />
  </g>
</svg>
