<?xml version="1.0" encoding="UTF-8" standalone="no"?>
<!-- Created with Inkscape (http://www.inkscape.org/) -->

<svg
   version="1.1"
   id="svg1"
   width="289.49332"
   height="289.65332"
   viewBox="0 0 289.49332 289.65332"
   sodipodi:docname="VinegarDistilled3.pdf"
   xmlns:inkscape="http://www.inkscape.org/namespaces/inkscape"
   xmlns:sodipodi="http://sodipodi.sourceforge.net/DTD/sodipodi-0.dtd"
   xmlns="http://www.w3.org/2000/svg"
   xmlns:svg="http://www.w3.org/2000/svg">
  <defs
     id="defs1">
    <clipPath
       clipPathUnits="userSpaceOnUse"
       id="clipPath2">
      <path
         d="M 0,0.16 V 1122.5601 H 793.59998 V 0.16 Z"
         transform="translate(-336.32001,-579.35999)"
         clip-rule="evenodd"
         id="path2" />
    </clipPath>
    <clipPath
       clipPathUnits="userSpaceOnUse"
       id="clipPath4">
      <path
         d="M 0,0.16 V 1122.5601 H 793.59998 V 0.16 Z"
         transform="translate(-290.23999,-483.20002)"
         clip-rule="evenodd"
         id="path4" />
    </clipPath>
    <clipPath
       clipPathUnits="userSpaceOnUse"
       id="clipPath6">
      <path
         d="M 0,0.16 V 1122.5601 H 793.59998 V 0.16 Z"
         transform="translate(-501.28,-482.56)"
         clip-rule="evenodd"
         id="path6" />
    </clipPath>
  </defs>
  <sodipodi:namedview
     id="namedview1"
     pagecolor="#505050"
     bordercolor="#eeeeee"
     borderopacity="1"
     inkscape:showpageshadow="0"
     inkscape:pageopacity="0"
     inkscape:pagecheckerboard="0"
     inkscape:deskcolor="#505050">
    <inkscape:page
       x="0"
       y="0"
       inkscape:label="1"
       id="page1"
       width="289.49332"
       height="289.65332"
       margin="0"
       bleed="0" />
  </sodipodi:namedview>
  <g
     id="g1"
     inkscape:groupmode="layer"
     inkscape:label="1">
    <path
       id="path1"
       d="m 0,0 3.04,-2.88 3.52,-3.2 3.52,-2.72 3.68,-2.56 3.680001,-2.08 3.84,-1.76 4.16,-1.599999 L 29.6,-17.92 34.080002,-18.879999 38.880001,-19.360001 44.32,-19.68 h 6.240001 l 4.32,0.16 2.719997,0.159999 h 8 l 4.32,-0.159999 6.400002,-0.64 5.440002,-1.120001 4.959999,-1.599998 4.64,-1.76 4.479995,-2.24 L 100,-29.440001 104.32,-32.32 l 4.16,-3.2 4.16,-3.680001 1.92,-1.599998"
       style="fill:none;stroke:#000000;stroke-width:26.4;stroke-linecap:round;stroke-linejoin:round;stroke-miterlimit:10;stroke-dasharray:none;stroke-opacity:1"
       transform="translate(336.32001,584.69326)"
       clip-path="url(#clipPath2)" />
    <path
       id="path3"
       d="m 0,0 -2.56,-1.28 -2.88,-1.44 -2.4,-1.6 -2.24,-1.6 -1.76,-1.76 -1.44,-1.92 -1.12,-1.76 -0.8,-2.08 -0.48,-2.08 v -2.24 l 0.32,-2.4 0.64,-2.719999 0.64,-1.92 0.48,-1.120001 1.28,-3.039999 L -10.56,-32 -8.8,-34.560001 -6.72,-36.48 l 2.24,-1.600002 2.56,-1.119999 h 0.16 L -0.8,-39.52 1.92,-40 l 3.04,-0.32 3.36,0.16 3.68,0.48 3.84,0.799999 4.16,1.280003 4.32,1.439998 0.960001,0.32 1.76,0.639999 4.799999,2.080002 5.119999,2.56 5.280003,2.879999 5.279998,3.36 5.439999,3.84 5.440003,4.16 5.119998,4.64 1.280003,1.28 2.079994,1.92 4.64,5.12 4.640007,5.6 4.639999,6.24 4.32,6.56 4,6.72 3.36,6.879999 2.879998,6.880001 1.120002,2.720002 0.799996,2.559997 1.919998,6.560002 1.760003,6.720001 1.44,7.679996 1.44,8.48 1.44,9.760002 0.8,4.639999 0.96,5.120003 0.64,2.239998 1.6,6.239998 2.08,6.240002 2.4,6.56 3.04,6.56 3.52,7.04 3.52,6.08 1.28,2.08 3.84001,6.08 4.95999,7.36 5.75999,7.68 5.76001,7.04001 5.59999,5.91999 2.40001,2.23999 1.76,1.60001 4.8,4.16 5.11999,3.68 5.28,3.52 5.28,3.03999 5.44,2.72001 5.44001,2.24 2.40001,0.95999 1.59999,0.64 4.96,1.44 4.80001,1.12001 4.47999,0.79999 4,0.16001 h 3.68 l 3.19999,-0.48 1.92002,-0.48 0.95999,-0.32 2.55999,-1.12 2.08001,-1.28 2.08,-1.76001 1.75999,-2.23999 1.60001,-2.40001 1.44,-3.03999 0.64,-1.92 0.31999,-0.96 0.80001,-3.2 0.16,-1.60001 -0.16,-2.87999 -0.64,-2.72 -0.96,-2.56 -1.44,-2.56001 -1.76001,-2.39999 -2.23999,-2.4 -2.56,-2.4 -2.4,-2.08001"
       style="fill:none;stroke:#000000;stroke-width:26.4;stroke-linecap:round;stroke-linejoin:round;stroke-miterlimit:10;stroke-dasharray:none;stroke-opacity:1"
       transform="translate(290.23999,488.53329)"
       clip-path="url(#clipPath4)" />
    <path
       id="path5"
       d="m 0,0 2.72,-1.28 2.88,-1.6 2.4,-1.6 2.08,-1.6 1.76,-1.76 1.44,-1.92 1.12,-1.92 0.8,-1.92 0.32,-2.08 0.16,-2.24 -0.48,-2.4 -0.64,-2.720001 -0.64,-1.919998 L 13.44,-26.08 12.16,-29.120001 10.4,-32.16 8.48,-34.560001 6.4,-36.639999 4.16,-38.080002 1.6,-39.200001 H 1.44 L 0.48,-39.52 -2.24,-40 l -3.04,-0.16 -3.36,0.16 -3.68,0.48 -3.84,0.799999 -4.16,1.280002 -4.319999,1.599999 -0.800002,0.32 -1.92,0.639999 L -32,-32.639999 -37.119999,-30.24 -42.400002,-27.200001 -47.68,-23.68 l -5.439999,3.84 -5.280003,4.16 -5.119998,4.64 -1.280003,1.28 -1.919998,2.08 -4.799996,5.12 L -76,3.2 -80.639999,9.44 -84.800003,16 -88.639999,22.879999 -92,29.76 l -2.879997,6.879999 -0.959999,2.560002 -0.960007,2.719997 -1.759995,6.560002 -1.600002,6.720001 -1.44,7.68 -1.28,8.48 -1.44,9.760002 -0.64,4.799995 -0.96,4.959999 -0.48,2.240006 -1.6,6.399994 -1.92,6.240003 -2.4,6.56 -2.88,6.72 -3.52,6.88 -3.52,6.24 -1.12,2.08 -3.84,6.08001 -4.96,7.51999 -5.44001,7.68 -5.75999,7.04 -5.60001,5.92 -2.39999,2.4 -1.60001,1.6 -4.95999,4.16 -4.96,3.84 -5.28,3.52 -5.28,3.2 -5.44,2.72 -5.28,2.40001 -2.4,0.79998 -1.6,0.64 -4.95999,1.60001 -4.80001,1.28 -4.47999,0.64 -4,0.32001 H -209.92 l -3.36,-0.32001 -1.92,-0.48 -0.96,-0.32 -2.4,-1.12 -2.24,-1.28 -2.08,-1.75999 -1.92,-2.08001 -1.59999,-2.56001 -1.28,-2.87999 -0.80001,-1.92 -0.32,-1.12001 -0.80001,-3.19999 -0.15998,-1.59999 V 174.08 l 0.64,-2.72 0.95999,-2.56 1.44,-2.40001 1.75999,-2.55999 2.24001,-2.4 2.56,-2.40001 2.40001,-2.07998"
       style="fill:none;stroke:#000000;stroke-width:26.4;stroke-linecap:round;stroke-linejoin:round;stroke-miterlimit:10;stroke-dasharray:none;stroke-opacity:1"
       transform="translate(501.28,487.89327)"
       clip-path="url(#clipPath6)" />
  </g>
</svg>
