<?xml version="1.0" encoding="UTF-8" standalone="no"?>
<!-- Created with Inkscape (http://www.inkscape.org/) -->

<svg
   version="1.1"
   id="svg1"
   width="509.60001"
   height="512.56"
   viewBox="0 0 509.60001 512.56"
   sodipodi:docname="Vinegar26.pdf"
   xmlns:inkscape="http://www.inkscape.org/namespaces/inkscape"
   xmlns:sodipodi="http://sodipodi.sourceforge.net/DTD/sodipodi-0.dtd"
   xmlns="http://www.w3.org/2000/svg"
   xmlns:svg="http://www.w3.org/2000/svg">
  <defs
     id="defs1">
    <clipPath
       clipPathUnits="userSpaceOnUse"
       id="clipPath2">
      <path
         d="M 0,0.16 V 1122.5601 H 793.59998 V 0.16 Z"
         transform="translate(-623.35998,-561.28003)"
         clip-rule="evenodd"
         id="path2" />
    </clipPath>
    <clipPath
       clipPathUnits="userSpaceOnUse"
       id="clipPath4">
      <path
         d="M 0,0.16 V 1122.5601 H 793.59998 V 0.16 Z"
         transform="translate(-334.56,-485.76001)"
         clip-rule="evenodd"
         id="path4" />
    </clipPath>
    <clipPath
       clipPathUnits="userSpaceOnUse"
       id="clipPath6">
      <path
         d="M 0,0.16 V 1122.5601 H 793.59998 V 0.16 Z"
         transform="translate(-485.60001,-485.76001)"
         clip-rule="evenodd"
         id="path6" />
    </clipPath>
    <clipPath
       clipPathUnits="userSpaceOnUse"
       id="clipPath8">
      <path
         d="M 0,0.16 V 1122.5601 H 793.59998 V 0.16 Z"
         transform="translate(-334.56,-485.76001)"
         clip-rule="evenodd"
         id="path8" />
    </clipPath>
    <clipPath
       clipPathUnits="userSpaceOnUse"
       id="clipPath10">
      <path
         d="M 0,0.16 V 1122.5601 H 793.59998 V 0.16 Z"
         transform="translate(-485.60001,-485.76001)"
         clip-rule="evenodd"
         id="path10" />
    </clipPath>
    <clipPath
       clipPathUnits="userSpaceOnUse"
       id="clipPath12">
      <path
         d="M 0,0.16 V 1122.5601 H 793.59998 V 0.16 Z"
         clip-rule="evenodd"
         id="path12" />
    </clipPath>
    <clipPath
       clipPathUnits="userSpaceOnUse"
       id="clipPath14">
      <path
         d="M 0,0.16 V 1122.5601 H 793.59998 V 0.16 Z"
         transform="translate(-396.79999,-636.79999)"
         clip-rule="evenodd"
         id="path14" />
    </clipPath>
    <clipPath
       clipPathUnits="userSpaceOnUse"
       id="clipPath16">
      <path
         d="M 0,0.16 V 1122.5601 H 793.59998 V 0.16 Z"
         transform="translate(-434.56,-599.03998)"
         clip-rule="evenodd"
         id="path16" />
    </clipPath>
  </defs>
  <sodipodi:namedview
     id="namedview1"
     pagecolor="#505050"
     bordercolor="#eeeeee"
     borderopacity="1"
     inkscape:showpageshadow="0"
     inkscape:pageopacity="0"
     inkscape:pagecheckerboard="0"
     inkscape:deskcolor="#505050">
    <inkscape:page
       x="0"
       y="0"
       inkscape:label="1"
       id="page1"
       width="509.60001"
       height="512.56"
       margin="0"
       bleed="0" />
  </sodipodi:namedview>
  <g
     id="g1"
     inkscape:groupmode="layer"
     inkscape:label="1">
    <path
       id="path1"
       d="m 0,0 c 0,-125.12 -101.43,-226.56 -226.56,-226.56 -125.13,0 -226.56,101.44 -226.56,226.56 0,125.12 101.43,226.56 226.56,226.56 C -101.43,226.56 0,125.12 0,0 Z"
       style="fill:none;stroke:#000000;stroke-width:26.4;stroke-linecap:round;stroke-linejoin:round;stroke-miterlimit:10;stroke-dasharray:none;stroke-opacity:1"
       transform="translate(623.35998,565.27997)"
       clip-path="url(#clipPath2)" />
    <path
       id="path3"
       d="m 0,0 -0.16,-1.76 -0.32,-1.6 -0.48,-1.6 -0.8,-1.6 -0.96,-1.44 -1.12,-1.28 -1.28,-1.12 -1.44,-0.96 -1.6,-0.8 -1.6,-0.64 -1.76,-0.32 h -1.76 -1.6 l -1.759999,0.32 -1.600001,0.64 -1.6,0.8 -1.440001,0.96 -1.279998,1.12 L -23.68,-8 l -0.959999,1.44 -0.800002,1.6 -0.479999,1.6 -0.48,1.6 V 0 1.76 l 0.48,1.76 0.479999,1.6 0.800002,1.44 L -23.68,8 l 1.120001,1.44 1.279998,1.12 1.440001,0.96 1.6,0.64 1.600001,0.64 1.759999,0.32 1.6,0.16 1.76,-0.16 1.76,-0.32 1.6,-0.64 1.6,-0.64 1.44,-0.96 L -3.84,9.44 -2.72,8 -1.76,6.56 -0.96,5.12 -0.48,3.52 -0.16,1.76 0,0 v 0 z"
       style="fill:#000000;fill-opacity:1;fill-rule:evenodd;stroke:none"
       transform="translate(334.56,489.75995)"
       clip-path="url(#clipPath4)" />
    <path
       id="path5"
       d="m 0,0 -0.16,-1.76 -0.32,-1.6 -0.48,-1.6 -0.8,-1.6 -0.96,-1.44 -1.12,-1.28 -1.28,-1.12 -1.44,-0.96 -1.6,-0.8 -1.6,-0.64 -1.76,-0.32 h -1.76 -1.6 l -1.759999,0.32 -1.600001,0.64 -1.6,0.8 -1.440001,0.96 -1.279998,1.12 L -23.68,-8 l -0.959999,1.44 -0.800002,1.6 -0.479999,1.6 -0.48,1.6 V 0 1.76 l 0.48,1.76 0.479999,1.6 0.800002,1.44 L -23.68,8 l 1.120001,1.44 1.279998,1.12 1.440001,0.96 1.6,0.64 1.600001,0.64 1.759999,0.32 1.6,0.16 1.76,-0.16 1.76,-0.32 1.6,-0.64 1.6,-0.64 1.44,-0.96 L -3.84,9.44 -2.72,8 -1.76,6.56 -0.96,5.12 -0.48,3.52 -0.16,1.76 0,0 v 0 z"
       style="fill:#000000;fill-opacity:1;fill-rule:evenodd;stroke:none"
       transform="translate(485.60001,489.75995)"
       clip-path="url(#clipPath6)" />
    <path
       id="path7"
       d="m 0,0 -0.16,-1.76 -0.32,-1.6 -0.48,-1.6 -0.8,-1.6 -0.96,-1.44 -1.12,-1.28 -1.28,-1.12 -1.44,-0.96 -1.6,-0.8 -1.6,-0.64 -1.76,-0.32 h -1.76 -1.6 l -1.759999,0.32 -1.600001,0.64 -1.6,0.8 -1.440001,0.96 -1.279998,1.12 L -23.68,-8 l -0.959999,1.44 -0.800002,1.6 -0.479999,1.6 -0.48,1.6 V 0 1.76 l 0.48,1.76 0.479999,1.6 0.800002,1.44 L -23.68,8 l 1.120001,1.44 1.279998,1.12 1.440001,0.96 1.6,0.64 1.600001,0.64 1.759999,0.32 1.6,0.16 1.76,-0.16 1.76,-0.32 1.6,-0.64 1.6,-0.64 1.44,-0.96 L -3.84,9.44 -2.72,8 -1.76,6.56 -0.96,5.12 -0.48,3.52 -0.16,1.76 0,0"
       style="fill:none;stroke:#000000;stroke-width:0.64;stroke-linecap:round;stroke-linejoin:round;stroke-miterlimit:10;stroke-dasharray:none;stroke-opacity:1"
       transform="translate(334.56,489.75995)"
       clip-path="url(#clipPath8)" />
    <path
       id="path9"
       d="m 0,0 -0.16,-1.76 -0.32,-1.6 -0.48,-1.6 -0.8,-1.6 -0.96,-1.44 -1.12,-1.28 -1.28,-1.12 -1.44,-0.96 -1.6,-0.8 -1.6,-0.64 -1.76,-0.32 h -1.76 -1.6 l -1.759999,0.32 -1.600001,0.64 -1.6,0.8 -1.440001,0.96 -1.279998,1.12 L -23.68,-8 l -0.959999,1.44 -0.800002,1.6 -0.479999,1.6 -0.48,1.6 V 0 1.76 l 0.48,1.76 0.479999,1.6 0.800002,1.44 L -23.68,8 l 1.120001,1.44 1.279998,1.12 1.440001,0.96 1.6,0.64 1.600001,0.64 1.759999,0.32 1.6,0.16 1.76,-0.16 1.76,-0.32 1.6,-0.64 1.6,-0.64 1.44,-0.96 L -3.84,9.44 -2.72,8 -1.76,6.56 -0.96,5.12 -0.48,3.52 -0.16,1.76 0,0"
       style="fill:none;stroke:#000000;stroke-width:0.64;stroke-linecap:round;stroke-linejoin:round;stroke-miterlimit:10;stroke-dasharray:none;stroke-opacity:1"
       transform="translate(485.60001,489.75995)"
       clip-path="url(#clipPath10)" />
    <path
       id="path11"
       d="M 396.79999,636.79999 V 787.84003"
       style="fill:none;stroke:#000000;stroke-width:26.4;stroke-linecap:round;stroke-linejoin:round;stroke-miterlimit:10;stroke-dasharray:none;stroke-opacity:1"
       transform="translate(0,3.9999413)"
       clip-path="url(#clipPath12)" />
    <path
       id="path13"
       d="m 0,0 -0.16,-3.52 -0.48,-3.36 -0.8,-3.36 -1.12,-3.36 -1.28,-3.199999 -1.76,-3.040001 -1.92,-2.879999 -2.24,-2.720002 -2.56,-2.399999 -2.56,-2.24 -2.88,-2.08 -3.039999,-1.599998 L -24,-35.200001 -27.360001,-36.32 l -3.359998,-0.799999 -3.520003,-0.479999 -3.519996,-0.16"
       style="fill:none;stroke:#000000;stroke-width:26.4;stroke-linecap:round;stroke-linejoin:round;stroke-miterlimit:10;stroke-dasharray:none;stroke-opacity:1"
       transform="translate(396.79999,640.79993)"
       clip-path="url(#clipPath14)" />
    <path
       id="path15"
       d="M 0,0 -3.36,0.16 -6.88,0.64 -10.24,1.44 -13.6,2.56 -16.799999,4 -19.84,5.6 l -2.879999,2.08 -2.720002,2.24 -2.399999,2.4 -2.24,2.72 -1.92,2.88 -1.759998,3.039999 -1.440003,3.200001 -1.119999,3.36 -0.799999,3.359999 -0.479999,3.360003 -0.16,3.519996"
       style="fill:none;stroke:#000000;stroke-width:26.4;stroke-linecap:round;stroke-linejoin:round;stroke-miterlimit:10;stroke-dasharray:none;stroke-opacity:1"
       transform="translate(434.56,603.03992)"
       clip-path="url(#clipPath16)" />
  </g>
</svg>
