<?xml version="1.0" encoding="UTF-8" standalone="no"?>
<!-- Created with Inkscape (http://www.inkscape.org/) -->

<svg
   version="1.1"
   id="svg1"
   width="505.60001"
   height="503.21332"
   viewBox="0 0 505.60001 503.21332"
   sodipodi:docname="Vinegar17.pdf"
   xmlns:inkscape="http://www.inkscape.org/namespaces/inkscape"
   xmlns:sodipodi="http://sodipodi.sourceforge.net/DTD/sodipodi-0.dtd"
   xmlns="http://www.w3.org/2000/svg"
   xmlns:svg="http://www.w3.org/2000/svg">
  <defs
     id="defs1">
    <clipPath
       clipPathUnits="userSpaceOnUse"
       id="clipPath2">
      <path
         d="M 0,0.16 V 1122.5601 H 793.59998 V 0.16 Z"
         transform="translate(-442.07998,-334.72)"
         clip-rule="evenodd"
         id="path2" />
    </clipPath>
    <clipPath
       clipPathUnits="userSpaceOnUse"
       id="clipPath4">
      <path
         d="M 0,0.16 V 1122.5601 H 793.59998 V 0.16 Z"
         transform="translate(-3.3333333e-6)"
         clip-rule="evenodd"
         id="path4" />
    </clipPath>
    <clipPath
       clipPathUnits="userSpaceOnUse"
       id="clipPath6">
      <path
         d="M 0,0.16 V 1122.5601 H 793.59998 V 0.16 Z"
         transform="translate(-3.3333333e-6)"
         clip-rule="evenodd"
         id="path6" />
    </clipPath>
  </defs>
  <sodipodi:namedview
     id="namedview1"
     pagecolor="#505050"
     bordercolor="#eeeeee"
     borderopacity="1"
     inkscape:showpageshadow="0"
     inkscape:pageopacity="0"
     inkscape:pagecheckerboard="0"
     inkscape:deskcolor="#505050">
    <inkscape:page
       x="0"
       y="0"
       inkscape:label="1"
       id="page1"
       width="505.60001"
       height="503.21332"
       margin="0"
       bleed="0" />
  </sodipodi:namedview>
  <g
     id="g1"
     inkscape:groupmode="layer"
     inkscape:label="1">
    <path
       id="path1"
       d="m 0,0 -9.12,0.32 -9.12,0.64 -9.120001,1.12 -9.119999,1.6 -8.799999,2.08 -8.960003,2.56 -8.639999,3.04 -8.48,3.36 -8.319999,3.839999 -8.159996,4.32 -8,4.640001 -7.680004,4.96 -7.36,5.439998 -7.04,5.760002 -6.88,6.239998 -6.4,6.560002 -6.24,6.720001 -5.76,7.200001 -5.44,7.36 -5.11999,7.68 -4.64,7.839997 -4.16001,8.160001 -3.83999,8.32 -3.52001,8.64 -2.88,8.64 -2.56,8.8 -2.08,8.96 -1.59999,8.95999 -1.12001,9.12001 -0.80001,9.28 -0.15998,9.12 0.15998,9.11999 0.80001,9.28 1.12001,8.96001 1.59999,9.11999 2.08,8.96001 2.56,8.8 2.88,8.64 3.52001,8.64 3.83999,8.32 4.16001,8.16 4.64,7.84 5.11999,7.67999 5.44,7.36001 5.76,7.19999 6.24,6.72 6.4,6.56002 6.88,6.07999 7.04,5.92001 7.36,5.43998 7.680004,4.96002 8,4.63998 L -79.68,344 l 8.319999,3.84 8.48,3.36001 8.639999,3.03998 8.960003,2.56 8.799999,1.92001 9.119999,1.76001 9.120001,1.12 9.12,0.63998 9.12,0.32001 9.28,-0.32001 9.12,-0.63998 9.12,-1.12 9.119999,-1.76001 8.8,-1.92001 8.960003,-2.56 8.639999,-3.03998 L 71.519997,347.84 79.839996,344 88,339.67999 l 8,-4.63998 7.68,-4.96002 7.36,-5.43998 7.04,-5.92001 6.88,-6.07999 6.4,-6.56002 6.24001,-6.72 5.75999,-7.19999 5.44,-7.36001 5.12,-7.67999 4.64,-7.84 4.16,-8.16 3.84,-8.32 3.52,-8.64 2.88001,-8.64 2.55999,-8.8 2.08001,-8.96001 1.59999,-9.11999 1.12001,-8.96001 0.79998,-9.28 0.16001,-9.28"
       style="fill:none;stroke:#000000;stroke-width:26.4;stroke-linecap:round;stroke-linejoin:round;stroke-miterlimit:10;stroke-dasharray:none;stroke-opacity:1"
       transform="translate(296.66665,29.053276)"
       clip-path="url(#clipPath2)" />
    <path
       id="path3"
       d="M 170.24,516 H 351.51999"
       style="fill:none;stroke:#000000;stroke-width:26.4;stroke-linecap:round;stroke-linejoin:round;stroke-miterlimit:10;stroke-dasharray:none;stroke-opacity:1"
       transform="translate(-145.41333,-305.66673)"
       clip-path="url(#clipPath4)" />
    <path
       id="path5"
       d="M 442.07999,606.56 V 787.84003"
       style="fill:none;stroke:#000000;stroke-width:26.4;stroke-linecap:round;stroke-linejoin:round;stroke-miterlimit:10;stroke-dasharray:none;stroke-opacity:1"
       transform="translate(-145.41333,-305.66673)"
       clip-path="url(#clipPath6)" />
  </g>
</svg>
