<?xml version="1.0" encoding="UTF-8" standalone="no"?>
<!-- Created with Inkscape (http://www.inkscape.org/) -->

<svg
   version="1.1"
   id="svg1"
   width="454.90668"
   height="488.53333"
   viewBox="0 0 454.90668 488.53333"
   sodipodi:docname="VinegarDistilled2.pdf"
   xmlns:inkscape="http://www.inkscape.org/namespaces/inkscape"
   xmlns:sodipodi="http://sodipodi.sourceforge.net/DTD/sodipodi-0.dtd"
   xmlns="http://www.w3.org/2000/svg"
   xmlns:svg="http://www.w3.org/2000/svg">
  <defs
     id="defs1">
    <clipPath
       clipPathUnits="userSpaceOnUse"
       id="clipPath2">
      <path
         d="M 0,0.16 V 1122.5601 H 793.59998 V 0.16 Z"
         transform="translate(-306.39999,-480.16001)"
         clip-rule="evenodd"
         id="path2" />
    </clipPath>
    <clipPath
       clipPathUnits="userSpaceOnUse"
       id="clipPath4">
      <path
         d="M 0,0.16 V 1122.5601 H 793.59998 V 0.16 Z"
         transform="translate(-434.88,-699.03998)"
         clip-rule="evenodd"
         id="path4" />
    </clipPath>
    <clipPath
       clipPathUnits="userSpaceOnUse"
       id="clipPath6">
      <path
         d="M 0,0.16 V 1122.5601 H 793.59998 V 0.16 Z"
         clip-rule="evenodd"
         id="path6" />
    </clipPath>
    <clipPath
       clipPathUnits="userSpaceOnUse"
       id="clipPath8">
      <path
         d="M 0,0.16 V 1122.5601 H 793.59998 V 0.16 Z"
         transform="translate(-434.88,-699.03998)"
         clip-rule="evenodd"
         id="path8" />
    </clipPath>
  </defs>
  <sodipodi:namedview
     id="namedview1"
     pagecolor="#505050"
     bordercolor="#eeeeee"
     borderopacity="1"
     inkscape:showpageshadow="0"
     inkscape:pageopacity="0"
     inkscape:pagecheckerboard="0"
     inkscape:deskcolor="#505050">
    <inkscape:page
       x="0"
       y="0"
       inkscape:label="1"
       id="page1"
       width="454.90668"
       height="488.53333"
       margin="0"
       bleed="0" />
  </sodipodi:namedview>
  <g
     id="g1"
     inkscape:groupmode="layer"
     inkscape:label="1">
    <path
       id="path1"
       d="m 0,0 -7.36,1.44 -7.36,1.92 -7.36,2.24 -7.040001,2.72 -7.039999,3.2 -6.720001,3.36 -6.559998,3.839999 -6.400001,4.320002 -6.079998,4.479999 -5.919998,4.96 -5.440003,5.279998 -5.279999,5.440003 -4.959999,5.919998 -4.640007,6.080002 -4.319999,6.239998 L -96.32,68 l -3.519996,6.720001 -3.040004,7.040001 -2.88,7.040001 -2.24,7.360001 -1.92,7.359996 -1.6,7.52 -0.96,7.52 -0.8,7.52 -0.16,7.67999 0.16,7.68001 0.64,7.52001 1.12,7.51999 1.44,7.52 1.92,7.36 2.24,7.36 2.72,7.03999 3.04,7.04001 3.520001,6.72 3.839996,6.56 4.32,6.4 4.480003,6.08 4.959999,5.92 5.120003,5.6 5.599998,5.12 5.759999,4.96 6.080001,4.64 6.399998,4.16001 6.560002,4 6.720001,3.52 7.039999,3.03998 7.040001,2.72 7.359999,2.40002 7.36,1.91999 7.52,1.44 7.52,1.12 7.52,0.64001 7.68,0.31998 7.68,-0.31998 7.519999,-0.48001 7.52,-1.12 7.520001,-1.44 7.36,-1.92001 7.359997,-2.23999 7.040001,-2.72 7.040001,-3.19999 L 88,253.11999 94.559998,249.28 100.96,245.11999 l 6.08,-4.63999 5.92,-4.80001 5.44,-5.28 5.28,-5.59999 4.8,-5.92"
       style="fill:none;stroke:#000000;stroke-width:26.4;stroke-linecap:round;stroke-linejoin:round;stroke-miterlimit:10;stroke-dasharray:none;stroke-opacity:1"
       transform="translate(139.63999,166.47995)"
       clip-path="url(#clipPath2)" />
    <path
       id="path3"
       d="m 0,0 13.12,-16.32 12.48,-16.639999 12.159998,-17.120003 11.680001,-17.439995 11.2,-17.600006 10.720002,-17.919997 10.239997,-18.24 9.760003,-18.56 9.279999,-18.72 8.8,-18.88 8.32,-19.2 7.84,-19.36 7.36001,-19.67999 6.71998,-19.84001 6.40001,-19.83999 5.59999,-20.16 5.28002,-20.16 4.79998,-20.48001 4,-20.48001"
       style="fill:none;stroke:#000000;stroke-width:26.4;stroke-linecap:round;stroke-linejoin:round;stroke-miterlimit:10;stroke-dasharray:none;stroke-opacity:1"
       transform="translate(268.12,385.35992)"
       clip-path="url(#clipPath4)" />
    <path
       id="path5"
       d="m 600.79999,342.39999 -68,68"
       style="fill:none;stroke:#000000;stroke-width:26.4;stroke-linecap:round;stroke-linejoin:round;stroke-miterlimit:10;stroke-dasharray:none;stroke-opacity:1"
       transform="translate(-166.76,-313.68006)"
       clip-path="url(#clipPath6)" />
    <path
       id="path7"
       d="m 0,0 v 5.44 l 0.16,5.44 0.48,5.44 0.96,5.28 1.28,5.119999 1.76,5.120001 1.92,4.959999 2.4,4.959999 2.72,4.640004 3.04,4.319999 3.52,4.32 3.52,3.84 4,3.68 4.16,3.359997 4.480002,3.200005 4.639999,2.719993 L 43.84,74.239998 48.799999,76.32 53.919998,78.080002 59.040001,79.360001 64.32,80.32 l 5.440002,0.639999 5.279999,0.160004 5.440002,-0.160004 5.279999,-0.479996 5.279999,-0.960006 L 96.32,78.080002 101.44,76.480003 106.4,74.400002 111.2,72 l 4.64,-2.720001 4.48,-3.040001 4.16,-3.359997 4,-3.68 3.68,-4 3.36,-4.16 3.04,-4.48 2.72,-4.640003 2.39999,-4.799999 2.08,-4.959999 L 147.52,27.040001 148.8,21.92 149.75999,16.639999 150.39999,11.2 V 5.76"
       style="fill:none;stroke:#000000;stroke-width:26.4;stroke-linecap:round;stroke-linejoin:round;stroke-miterlimit:10;stroke-dasharray:none;stroke-opacity:1"
       transform="translate(268.12,385.35992)"
       clip-path="url(#clipPath8)" />
  </g>
</svg>
