<?xml version="1.0" encoding="UTF-8" standalone="no"?>
<!-- Created with Inkscape (http://www.inkscape.org/) -->

<svg
   version="1.1"
   id="svg1"
   width="350.85333"
   height="496.53333"
   viewBox="0 0 350.85333 496.53333"
   sodipodi:docname="Vinegar13.pdf"
   xmlns:inkscape="http://www.inkscape.org/namespaces/inkscape"
   xmlns:sodipodi="http://sodipodi.sourceforge.net/DTD/sodipodi-0.dtd"
   xmlns="http://www.w3.org/2000/svg"
   xmlns:svg="http://www.w3.org/2000/svg">
  <defs
     id="defs1">
    <clipPath
       clipPathUnits="userSpaceOnUse"
       id="clipPath2">
      <path
         d="M 0,0.16 V 1122.5601 H 793.59998 V 0.16 Z"
         transform="translate(-547.84003,-422.96)"
         clip-rule="evenodd"
         id="path2" />
    </clipPath>
    <clipPath
       clipPathUnits="userSpaceOnUse"
       id="clipPath4">
      <path
         d="M 0,0.16 V 1122.5601 H 793.59998 V 0.16 Z"
         transform="translate(-363.35999,-588.15998)"
         clip-rule="evenodd"
         id="path4" />
    </clipPath>
    <clipPath
       clipPathUnits="userSpaceOnUse"
       id="clipPath6">
      <path
         d="M 0,0.16 V 1122.5601 H 793.59998 V 0.16 Z"
         transform="translate(-245.75999,-768.96003)"
         clip-rule="evenodd"
         id="path6" />
    </clipPath>
    <clipPath
       clipPathUnits="userSpaceOnUse"
       id="clipPath8">
      <path
         d="M 0,0.16 V 1122.5601 H 793.59998 V 0.16 Z"
         transform="translate(-376.79999,-423.51999)"
         clip-rule="evenodd"
         id="path8" />
    </clipPath>
    <clipPath
       clipPathUnits="userSpaceOnUse"
       id="clipPath10">
      <path
         d="M 0,0.16 V 1122.5601 H 793.59998 V 0.16 Z"
         clip-rule="evenodd"
         id="path10" />
    </clipPath>
  </defs>
  <sodipodi:namedview
     id="namedview1"
     pagecolor="#505050"
     bordercolor="#eeeeee"
     borderopacity="1"
     inkscape:showpageshadow="0"
     inkscape:pageopacity="0"
     inkscape:pagecheckerboard="0"
     inkscape:deskcolor="#505050">
    <inkscape:page
       x="0"
       y="0"
       inkscape:label="1"
       id="page1"
       width="350.85333"
       height="496.53333"
       margin="0"
       bleed="0" />
  </sodipodi:namedview>
  <g
     id="g1"
     inkscape:groupmode="layer"
     inkscape:label="1">
    <path
       id="path1"
       d="m 0,0 c 0,-48.73 -38.279999,-88.239998 -85.519997,-88.239998 -47.239993,0 -85.519993,39.509998 -85.519993,88.239998 0,48.73 38.28,88.239998 85.519993,88.239998 C -38.279999,88.239998 0,48.73 0,0 Z"
       style="fill:none;stroke:#000000;stroke-width:26.4;stroke-linecap:round;stroke-linejoin:round;stroke-miterlimit:10;stroke-dasharray:none;stroke-opacity:1"
       transform="translate(547.84003,424.29327)"
       clip-path="url(#clipPath2)" />
    <path
       id="path3"
       d="m 0,0 -5.76,-2.88 -5.92,-2.72 -5.92,-2.56 -5.92,-2.24 -5.760001,-1.92 -5.76,-1.76 -5.759998,-1.44 -5.600003,-1.279999 L -51.84,-17.6 l -5.279999,-0.64 -5.120003,-0.319999 h -4.959995 L -72,-18.4 l -4.480003,0.48 -4.159996,0.960001 -4,1.119999 -3.680001,1.28 -3.519996,1.76 -3.040001,1.92 -2.720001,2.08 -2.560002,2.4 -2.08,2.72 -1.76,2.88 -1.44,3.2 -0.96,3.36 -0.64,3.52 -0.32,3.68 v 3.839999 l 0.48,4 0.8,4.16 1.12,4.320002 1.6,4.319997 1.76,4.480004 2.239999,4.639999 2.559998,4.48 2.880005,4.639999 3.199997,4.64 3.520004,4.639999 3.839996,4.640003 4,4.479996 4.32,4.639999 4.639999,4.32 4.800004,4.32 4.959999,4.319999 L -55.52,92 l 5.279998,3.839996"
       style="fill:none;stroke:#000000;stroke-width:26.4;stroke-linecap:round;stroke-linejoin:round;stroke-miterlimit:10;stroke-dasharray:none;stroke-opacity:1"
       transform="translate(363.35999,589.49325)"
       clip-path="url(#clipPath4)" />
    <path
       id="path5"
       d="m 0,0 5.92,3.2 5.92,2.72 5.92,2.4 5.92,2.24 5.760001,2.08 5.92,1.76 5.599998,1.44 5.600002,1.119999 L 52,17.92 l 5.279999,0.639999 5.120003,0.32 h 4.959999 l 4.800003,-0.32 4.479995,-0.479999 4.160004,-0.799999 4,-1.120001 3.68,-1.44 L 92,13.12 95.040001,11.2 97.760002,8.96 100.32,6.56 l 2.08,-2.72 1.76,-2.88 1.44,-3.04 0.96,-3.36 0.64,-3.52 0.32,-3.68 v -3.999999 l -0.48,-4 -0.8,-4.16 -1.12,-4.320002 -1.44,-4.319998 -1.92,-4.479999 -2.240003,-4.480004 -2.559998,-4.639999 -2.879997,-4.639999 -3.200005,-4.64 -3.519996,-4.639999 -3.840004,-4.480003 -4,-4.64 -4.32,-4.479996 -4.639999,-4.480003 -4.799996,-4.32 -4.960003,-4.159996 L 55.68,-91.68 l -5.439998,-4"
       style="fill:none;stroke:#000000;stroke-width:26.4;stroke-linecap:round;stroke-linejoin:round;stroke-miterlimit:10;stroke-dasharray:none;stroke-opacity:1"
       transform="translate(245.75999,770.2933)"
       clip-path="url(#clipPath6)" />
    <path
       id="path7"
       d="m 0,0 -6.4,0.96 -6.4,1.12 -6.400001,1.28 -6.08,1.6 -5.92,1.6 -5.759998,1.92 -5.440003,2.08 -5.279998,2.08 -5.119999,2.4 -4.64,2.56 -4.479999,2.72 -4.160004,2.720001 -3.839996,2.879999 -3.360001,3.039999 -3.200004,3.200001 -2.719994,3.200001 -2.240005,3.2 -1.919999,3.359997 -1.599998,3.360001 -1.120003,3.36 L -86.879997,52 l -0.32,3.52 0.159996,3.360001 0.480003,3.520001 0.96,3.36 1.279998,3.199997 1.760002,3.360001 2.239998,3.199997 2.400002,3.040001 2.879997,3.04 3.360001,2.880005 3.68,2.719994 3.839996,2.720001 4.320004,2.560005 4.639999,2.239998 4.799999,2.239998 5.280003,2.080002 L -39.84,100.8 l 5.759998,1.76 5.760002,1.44 6.08,1.28 6.08,1.12 6.4,0.8 6.4,0.64 6.56,0.48 6.56,0.16"
       style="fill:none;stroke:#000000;stroke-width:26.4;stroke-linecap:round;stroke-linejoin:round;stroke-miterlimit:10;stroke-dasharray:none;stroke-opacity:1"
       transform="translate(376.79999,424.85326)"
       clip-path="url(#clipPath8)" />
    <path
       id="path9"
       d="m 338.07999,532.79999 v 36.48004"
       style="fill:none;stroke:#000000;stroke-width:26.4;stroke-linecap:round;stroke-linejoin:round;stroke-miterlimit:10;stroke-dasharray:none;stroke-opacity:1"
       transform="translate(0,1.3332747)"
       clip-path="url(#clipPath10)" />
  </g>
</svg>
