<?xml version="1.0" encoding="UTF-8" standalone="no"?>
<!-- Created with Inkscape (http://www.inkscape.org/) -->

<svg
   version="1.1"
   id="svg1"
   width="497.60001"
   height="515.22668"
   viewBox="0 0 497.60001 515.22668"
   sodipodi:docname="Vinegar29.pdf"
   xmlns:inkscape="http://www.inkscape.org/namespaces/inkscape"
   xmlns:sodipodi="http://sodipodi.sourceforge.net/DTD/sodipodi-0.dtd"
   xmlns="http://www.w3.org/2000/svg"
   xmlns:svg="http://www.w3.org/2000/svg">
  <defs
     id="defs1">
    <clipPath
       clipPathUnits="userSpaceOnUse"
       id="clipPath2">
      <path
         d="M 0,0.16 V 1122.5601 H 793.59998 V 0.16 Z"
         clip-rule="evenodd"
         id="path2" />
    </clipPath>
    <clipPath
       clipPathUnits="userSpaceOnUse"
       id="clipPath4">
      <path
         d="M 0,0.16 V 1122.5601 H 793.59998 V 0.16 Z"
         transform="translate(-296.79999,-334.72001)"
         clip-rule="evenodd"
         id="path4" />
    </clipPath>
    <clipPath
       clipPathUnits="userSpaceOnUse"
       id="clipPath6">
      <path
         d="M 0,0.16 V 1122.5601 H 793.59998 V 0.16 Z"
         transform="translate(-372.32001,-334.72001)"
         clip-rule="evenodd"
         id="path6" />
    </clipPath>
    <clipPath
       clipPathUnits="userSpaceOnUse"
       id="clipPath8">
      <path
         d="M 0,0.16 V 1122.5601 H 793.59998 V 0.16 Z"
         transform="translate(-334.56,-410.23999)"
         clip-rule="evenodd"
         id="path8" />
    </clipPath>
    <clipPath
       clipPathUnits="userSpaceOnUse"
       id="clipPath10">
      <path
         d="M 0,0.16 V 1122.5601 H 793.59998 V 0.16 Z"
         transform="translate(-296.79999,-334.72001)"
         clip-rule="evenodd"
         id="path10" />
    </clipPath>
    <clipPath
       clipPathUnits="userSpaceOnUse"
       id="clipPath12">
      <path
         d="M 0,0.16 V 1122.5601 H 793.59998 V 0.16 Z"
         transform="translate(-372.32001,-334.72001)"
         clip-rule="evenodd"
         id="path12" />
    </clipPath>
    <clipPath
       clipPathUnits="userSpaceOnUse"
       id="clipPath14">
      <path
         d="M 0,0.16 V 1122.5601 H 793.59998 V 0.16 Z"
         transform="translate(-334.56,-410.23999)"
         clip-rule="evenodd"
         id="path14" />
    </clipPath>
  </defs>
  <sodipodi:namedview
     id="namedview1"
     pagecolor="#505050"
     bordercolor="#eeeeee"
     borderopacity="1"
     inkscape:showpageshadow="0"
     inkscape:pageopacity="0"
     inkscape:pagecheckerboard="0"
     inkscape:deskcolor="#505050">
    <inkscape:page
       x="0"
       y="0"
       inkscape:label="1"
       id="page1"
       width="497.60001"
       height="515.22668"
       margin="0"
       bleed="0" />
  </sodipodi:namedview>
  <g
     id="g1"
     inkscape:groupmode="layer"
     inkscape:label="1">
    <path
       id="path1"
       d="M 94.720001,787.84003 208,334.72 321.28,636.79999 434.56,334.72 547.84003,787.84003"
       style="fill:none;stroke:#000000;stroke-width:26.4;stroke-linecap:round;stroke-linejoin:round;stroke-miterlimit:10;stroke-dasharray:none;stroke-opacity:1"
       transform="translate(0,22.693275)"
       clip-path="url(#clipPath2)" />
    <path
       id="path3"
       d="m 0,0 -0.16,-1.76 -0.32,-1.6 -0.48,-1.6 -0.8,-1.6 -0.96,-1.44 -1.12,-1.28 -1.28,-1.12 -1.44,-0.96 -1.6,-0.8 -1.6,-0.64 -1.76,-0.32 h -1.76 -1.6 l -1.759999,0.32 -1.600001,0.64 -1.6,0.8 -1.440001,0.96 -1.279998,1.12 L -23.68,-8 l -0.959999,1.44 -0.800002,1.6 -0.479999,1.6 -0.48,1.6 V 0 1.76 l 0.48,1.76 0.479999,1.6 0.800002,1.6 L -23.68,8 l 1.120001,1.44 1.279998,1.12 1.440001,0.96 1.6,0.8 1.600001,0.48 1.759999,0.32 1.6,0.16 1.76,-0.16 1.76,-0.32 1.6,-0.48 1.6,-0.8 1.44,-0.96 L -3.84,9.44 -2.72,8 -1.76,6.72 -0.96,5.12 -0.48,3.52 -0.16,1.76 0,0 v 0 z"
       style="fill:#000000;fill-opacity:1;fill-rule:evenodd;stroke:none"
       transform="translate(296.79999,357.41328)"
       clip-path="url(#clipPath4)" />
    <path
       id="path5"
       d="m 0,0 -0.16,-1.76 -0.32,-1.6 -0.48,-1.6 -0.8,-1.6 -0.96,-1.44 -1.12,-1.28 -1.28,-1.12 -1.44,-0.96 -1.6,-0.8 -1.6,-0.64 -1.76,-0.32 h -1.76 -1.6 l -1.759999,0.32 -1.600001,0.64 -1.6,0.8 -1.440001,0.96 -1.279998,1.12 L -23.68,-8 l -0.959999,1.44 -0.800002,1.6 -0.479999,1.6 -0.48,1.6 V 0 1.76 l 0.48,1.76 0.479999,1.6 0.800002,1.6 L -23.68,8 l 1.120001,1.44 1.279998,1.12 1.440001,0.96 1.6,0.8 1.600001,0.48 1.759999,0.32 1.6,0.16 1.76,-0.16 1.76,-0.32 1.6,-0.48 1.6,-0.8 1.44,-0.96 L -3.84,9.44 -2.72,8 -1.76,6.72 -0.96,5.12 -0.48,3.52 -0.16,1.76 0,0 v 0 z"
       style="fill:#000000;fill-opacity:1;fill-rule:evenodd;stroke:none"
       transform="translate(372.32001,357.41328)"
       clip-path="url(#clipPath6)" />
    <path
       id="path7"
       d="m 0,0 -0.16,-1.76 -0.32,-1.6 -0.48,-1.6 -0.8,-1.6 -0.96,-1.44 -1.12,-1.28 -1.28,-1.12 -1.44,-0.96 -1.6,-0.8 -1.6,-0.64 -1.76,-0.32 h -1.76 -1.6 l -1.759999,0.32 -1.600001,0.64 -1.6,0.8 -1.440001,0.96 -1.279998,1.12 L -23.68,-8 l -0.959999,1.44 -0.800002,1.6 -0.479999,1.6 -0.48,1.6 V 0 1.76 l 0.48,1.76 0.479999,1.6 0.800002,1.44 L -23.68,8 l 1.120001,1.44 1.279998,1.12 1.440001,0.96 1.6,0.64 1.600001,0.64 1.759999,0.32 1.6,0.16 1.76,-0.16 1.76,-0.32 1.6,-0.64 1.6,-0.64 1.44,-0.96 L -3.84,9.44 -2.72,8 -1.76,6.56 -0.96,5.12 -0.48,3.52 -0.16,1.76 0,0 v 0 z"
       style="fill:#000000;fill-opacity:1;fill-rule:evenodd;stroke:none"
       transform="translate(334.56,432.93326)"
       clip-path="url(#clipPath8)" />
    <path
       id="path9"
       d="m 0,0 -0.16,-1.76 -0.32,-1.6 -0.48,-1.6 -0.8,-1.6 -0.96,-1.44 -1.12,-1.28 -1.28,-1.12 -1.44,-0.96 -1.6,-0.8 -1.6,-0.64 -1.76,-0.32 h -1.76 -1.6 l -1.759999,0.32 -1.600001,0.64 -1.6,0.8 -1.440001,0.96 -1.279998,1.12 L -23.68,-8 l -0.959999,1.44 -0.800002,1.6 -0.479999,1.6 -0.48,1.6 V 0 1.76 l 0.48,1.76 0.479999,1.6 0.800002,1.6 L -23.68,8 l 1.120001,1.44 1.279998,1.12 1.440001,0.96 1.6,0.8 1.600001,0.48 1.759999,0.32 1.6,0.16 1.76,-0.16 1.76,-0.32 1.6,-0.48 1.6,-0.8 1.44,-0.96 L -3.84,9.44 -2.72,8 -1.76,6.72 -0.96,5.12 -0.48,3.52 -0.16,1.76 0,0"
       style="fill:none;stroke:#000000;stroke-width:0.64;stroke-linecap:round;stroke-linejoin:round;stroke-miterlimit:10;stroke-dasharray:none;stroke-opacity:1"
       transform="translate(296.79999,357.41328)"
       clip-path="url(#clipPath10)" />
    <path
       id="path11"
       d="m 0,0 -0.16,-1.76 -0.32,-1.6 -0.48,-1.6 -0.8,-1.6 -0.96,-1.44 -1.12,-1.28 -1.28,-1.12 -1.44,-0.96 -1.6,-0.8 -1.6,-0.64 -1.76,-0.32 h -1.76 -1.6 l -1.759999,0.32 -1.600001,0.64 -1.6,0.8 -1.440001,0.96 -1.279998,1.12 L -23.68,-8 l -0.959999,1.44 -0.800002,1.6 -0.479999,1.6 -0.48,1.6 V 0 1.76 l 0.48,1.76 0.479999,1.6 0.800002,1.6 L -23.68,8 l 1.120001,1.44 1.279998,1.12 1.440001,0.96 1.6,0.8 1.600001,0.48 1.759999,0.32 1.6,0.16 1.76,-0.16 1.76,-0.32 1.6,-0.48 1.6,-0.8 1.44,-0.96 L -3.84,9.44 -2.72,8 -1.76,6.72 -0.96,5.12 -0.48,3.52 -0.16,1.76 0,0"
       style="fill:none;stroke:#000000;stroke-width:0.64;stroke-linecap:round;stroke-linejoin:round;stroke-miterlimit:10;stroke-dasharray:none;stroke-opacity:1"
       transform="translate(372.32001,357.41328)"
       clip-path="url(#clipPath12)" />
    <path
       id="path13"
       d="m 0,0 -0.16,-1.76 -0.32,-1.6 -0.48,-1.6 -0.8,-1.6 -0.96,-1.44 -1.12,-1.28 -1.28,-1.12 -1.44,-0.96 -1.6,-0.8 -1.6,-0.64 -1.76,-0.32 h -1.76 -1.6 l -1.759999,0.32 -1.600001,0.64 -1.6,0.8 -1.440001,0.96 -1.279998,1.12 L -23.68,-8 l -0.959999,1.44 -0.800002,1.6 -0.479999,1.6 -0.48,1.6 V 0 1.76 l 0.48,1.76 0.479999,1.6 0.800002,1.44 L -23.68,8 l 1.120001,1.44 1.279998,1.12 1.440001,0.96 1.6,0.64 1.600001,0.64 1.759999,0.32 1.6,0.16 1.76,-0.16 1.76,-0.32 1.6,-0.64 1.6,-0.64 1.44,-0.96 L -3.84,9.44 -2.72,8 -1.76,6.56 -0.96,5.12 -0.48,3.52 -0.16,1.76 0,0"
       style="fill:none;stroke:#000000;stroke-width:0.64;stroke-linecap:round;stroke-linejoin:round;stroke-miterlimit:10;stroke-dasharray:none;stroke-opacity:1"
       transform="translate(334.56,432.93326)"
       clip-path="url(#clipPath14)" />
  </g>
</svg>
