<?xml version="1.0" encoding="UTF-8" standalone="no"?>
<!-- Created with Inkscape (http://www.inkscape.org/) -->

<svg
   version="1.1"
   id="svg1"
   width="364.20001"
   height="516.56"
   viewBox="0 0 364.20001 516.56"
   sodipodi:docname="VinumSublimatum.pdf"
   xmlns:inkscape="http://www.inkscape.org/namespaces/inkscape"
   xmlns:sodipodi="http://sodipodi.sourceforge.net/DTD/sodipodi-0.dtd"
   xmlns="http://www.w3.org/2000/svg"
   xmlns:svg="http://www.w3.org/2000/svg">
  <defs
     id="defs1">
    <clipPath
       clipPathUnits="userSpaceOnUse"
       id="clipPath2">
      <path
         d="M 0,0.16 V 1122.5601 H 793.59998 V 0.16 Z"
         transform="translate(-464.79999,-382.95999)"
         clip-rule="evenodd"
         id="path2" />
    </clipPath>
    <clipPath
       clipPathUnits="userSpaceOnUse"
       id="clipPath4">
      <path
         d="M 0,0.16 V 1122.5601 H 793.59998 V 0.16 Z"
         transform="translate(-329.28,-536.64002)"
         clip-rule="evenodd"
         id="path4" />
    </clipPath>
    <clipPath
       clipPathUnits="userSpaceOnUse"
       id="clipPath6">
      <path
         d="M 0,0.16 V 1122.5601 H 793.59998 V 0.16 Z"
         clip-rule="evenodd"
         id="path6" />
    </clipPath>
    <clipPath
       clipPathUnits="userSpaceOnUse"
       id="clipPath8">
      <path
         d="M 0,0.16 V 1122.5601 H 793.59998 V 0.16 Z"
         clip-rule="evenodd"
         id="path8" />
    </clipPath>
  </defs>
  <sodipodi:namedview
     id="namedview1"
     pagecolor="#505050"
     bordercolor="#eeeeee"
     borderopacity="1"
     inkscape:showpageshadow="0"
     inkscape:pageopacity="0"
     inkscape:pagecheckerboard="0"
     inkscape:deskcolor="#505050">
    <inkscape:page
       x="0"
       y="0"
       inkscape:label="1"
       id="page1"
       width="364.20001"
       height="516.56"
       margin="0"
       bleed="0" />
  </sodipodi:namedview>
  <g
     id="g1"
     inkscape:groupmode="layer"
     inkscape:label="1">
    <path
       id="path1"
       d="M 0,0 C 0,-28.139999 -30.4,-50.959999 -67.919998,-50.959999 -105.44,-50.959999 -135.84,-28.139999 -135.84,0 c 0,28.139999 30.4,50.959999 67.920002,50.959999 C -30.4,50.959999 0,28.139999 0,0 Z"
       style="fill:none;stroke:#000000;stroke-width:26.4;stroke-linecap:round;stroke-linejoin:round;stroke-miterlimit:10;stroke-dasharray:none;stroke-opacity:1"
       transform="translate(464.79999,382.95993)"
       clip-path="url(#clipPath2)" />
    <path
       id="path3"
       d="m 0,0 -6.4,4 -6.24,4.32 -5.919999,4.64 -5.760001,4.96 -5.44,5.440001 -5.280001,5.439998 -4.799999,5.920002 -4.48,6.079998 -4.16,6.400002 -3.68,6.559997 -3.52,6.880001 -2.880001,7.040001 -2.719998,7.040001 -2.240001,7.199997 -1.759999,7.520004 -1.440002,7.360001 L -67.68,104.32 -68.160004,112 -68.32,119.52 l 0.32,7.68 0.639999,7.52 1.120003,7.52 1.599999,7.36001 1.919998,7.36 2.400001,7.19999 2.880001,7.2 3.039997,6.88 3.520001,6.72001 4,6.39999 4.32,6.39999 4.640003,5.92 4.959999,5.76001 5.119999,5.59999 5.6,5.12001 5.92,4.80001 6.08,4.64 6.4,4.15998 6.56,3.84002 6.72,3.36 6.88,3.03999 7.2,2.72 7.199999,2.24001 7.360003,1.91999 7.519996,1.44001 7.520001,0.95999 7.52,0.64 7.680001,0.16 7.519996,-0.32001 7.680001,-0.64 7.520004,-1.11999 7.360001,-1.44 7.359998,-2.08 7.2,-2.24 7.2,-2.72 6.88,-3.19999 6.71999,-3.52001 6.56002,-3.83999 6.23999,-4.32001 6.08,-4.48 5.75999,-4.96 5.60001,-5.28 5.11999,-5.44 4.96001,-5.92 4.48,-6.08 4.32,-6.24 3.84,-6.56001 3.36,-6.71998 3.2,-7.04001 2.72,-7.04 2.24,-7.20001 1.92,-7.35998 1.44001,-7.52001 1.11999,-7.52 0.64,-7.52 0.16,-7.68 -0.16,-7.52 -0.64,-7.68 -1.11999,-7.519999 L 200.16,88 l -1.92,-7.360001 -2.4,-7.36 -2.56,-7.040001 -3.2,-6.879997 -3.36,-6.880001 -4,-6.399998 L 178.56,39.68 174.08,33.599998 169.11999,27.84 164,22.24 158.39999,16.959999 152.64,12.16 146.56,7.36"
       style="fill:none;stroke:#000000;stroke-width:26.4;stroke-linecap:round;stroke-linejoin:round;stroke-miterlimit:10;stroke-dasharray:none;stroke-opacity:1"
       transform="translate(329.28,536.63996)"
       clip-path="url(#clipPath4)" />
    <path
       id="path5"
       d="M 329.44,536.79999 328.95999,382.88"
       style="fill:none;stroke:#000000;stroke-width:26.4;stroke-linecap:round;stroke-linejoin:round;stroke-miterlimit:10;stroke-dasharray:none;stroke-opacity:1"
       transform="translate(0,-5.8666666e-5)"
       clip-path="url(#clipPath6)" />
    <path
       id="path7"
       d="M 473.76001,543.67999 472.79999,383.84"
       style="fill:none;stroke:#000000;stroke-width:26.4;stroke-linecap:round;stroke-linejoin:round;stroke-miterlimit:10;stroke-dasharray:none;stroke-opacity:1"
       transform="translate(0,-5.8666666e-5)"
       clip-path="url(#clipPath8)" />
  </g>
</svg>
