<?xml version="1.0" encoding="UTF-8" standalone="no"?>
<!-- Created with Inkscape (http://www.inkscape.org/) -->

<svg
   version="1.1"
   id="svg1"
   width="476.26666"
   height="415.12"
   viewBox="0 0 476.26666 415.12"
   sodipodi:docname="Vitriol11.pdf"
   xmlns:inkscape="http://www.inkscape.org/namespaces/inkscape"
   xmlns:sodipodi="http://sodipodi.sourceforge.net/DTD/sodipodi-0.dtd"
   xmlns="http://www.w3.org/2000/svg"
   xmlns:svg="http://www.w3.org/2000/svg">
  <defs
     id="defs1">
    <clipPath
       clipPathUnits="userSpaceOnUse"
       id="clipPath2">
      <path
         d="M 0,0.16 V 1122.5601 H 793.59998 V 0.16 Z"
         transform="translate(-502.56,-561.28003)"
         clip-rule="evenodd"
         id="path2" />
    </clipPath>
    <clipPath
       clipPathUnits="userSpaceOnUse"
       id="clipPath4">
      <path
         d="M 0,0.16 V 1122.5601 H 793.59998 V 0.16 Z"
         transform="translate(-396.79999,-719.84002)"
         clip-rule="evenodd"
         id="path4" />
    </clipPath>
    <clipPath
       clipPathUnits="userSpaceOnUse"
       id="clipPath6">
      <path
         d="M 0,0.16 V 1122.5601 H 793.59998 V 0.16 Z"
         transform="translate(-238.24,-561.28003)"
         clip-rule="evenodd"
         id="path6" />
    </clipPath>
    <clipPath
       clipPathUnits="userSpaceOnUse"
       id="clipPath8">
      <path
         d="M 0,0.16 V 1122.5601 H 793.59998 V 0.16 Z"
         transform="translate(-396.79999,-402.72)"
         clip-rule="evenodd"
         id="path8" />
    </clipPath>
    <clipPath
       clipPathUnits="userSpaceOnUse"
       id="clipPath10">
      <path
         d="M 0,0.16 V 1122.5601 H 793.59998 V 0.16 Z"
         clip-rule="evenodd"
         id="path10" />
    </clipPath>
    <clipPath
       clipPathUnits="userSpaceOnUse"
       id="clipPath12">
      <path
         d="M 0,0.16 V 1122.5601 H 793.59998 V 0.16 Z"
         clip-rule="evenodd"
         id="path12" />
    </clipPath>
    <clipPath
       clipPathUnits="userSpaceOnUse"
       id="clipPath14">
      <path
         d="M 0,0.16 V 1122.5601 H 793.59998 V 0.16 Z"
         transform="translate(-608.32001,-561.28003)"
         clip-rule="evenodd"
         id="path14" />
    </clipPath>
  </defs>
  <sodipodi:namedview
     id="namedview1"
     pagecolor="#505050"
     bordercolor="#eeeeee"
     borderopacity="1"
     inkscape:showpageshadow="0"
     inkscape:pageopacity="0"
     inkscape:pagecheckerboard="0"
     inkscape:deskcolor="#505050">
    <inkscape:page
       x="0"
       y="0"
       inkscape:label="1"
       id="page1"
       width="476.26666"
       height="415.12"
       margin="0"
       bleed="0" />
  </sodipodi:namedview>
  <g
     id="g1"
     inkscape:groupmode="layer"
     inkscape:label="1">
    <path
       id="path1"
       d="m 0,0 c 0,-72.980003 -59.169998,-132.16 -132.16,-132.16 -72.98999,0 -132.16001,59.179997 -132.16001,132.16 0,72.980003 59.17002,132.16 132.16001,132.16 C -59.169998,132.16 0,72.980003 0,0 Z"
       style="fill:none;stroke:#000000;stroke-width:26.4;stroke-linecap:round;stroke-linejoin:round;stroke-miterlimit:10;stroke-dasharray:none;stroke-opacity:1"
       transform="translate(502.56,563.94664)"
       clip-path="url(#clipPath2)" />
    <path
       id="path3"
       d="m 0,0 c 0,-14.58 -11.81,-26.4 -26.4,-26.4 -14.590002,0 -26.399999,11.82 -26.399999,26.4 0,14.58 11.809997,26.4 26.399999,26.4 C -11.81,26.4 0,14.58 0,0 Z"
       style="fill:none;stroke:#000000;stroke-width:26.4;stroke-linecap:round;stroke-linejoin:round;stroke-miterlimit:10;stroke-dasharray:none;stroke-opacity:1"
       transform="translate(396.79999,722.50663)"
       clip-path="url(#clipPath4)" />
    <path
       id="path5"
       d="m 0,0 c 0,-14.58 -11.81,-26.4 -26.4,-26.4 -14.590002,0 -26.399999,11.82 -26.399999,26.4 0,14.58 11.809997,26.4 26.399999,26.4 C -11.81,26.4 0,14.58 0,0 Z"
       style="fill:none;stroke:#000000;stroke-width:26.4;stroke-linecap:round;stroke-linejoin:round;stroke-miterlimit:10;stroke-dasharray:none;stroke-opacity:1"
       transform="translate(238.24,563.94664)"
       clip-path="url(#clipPath6)" />
    <path
       id="path7"
       d="m 0,0 c 0,-14.58 -11.81,-26.4 -26.4,-26.4 -14.590002,0 -26.399999,11.82 -26.399999,26.4 0,14.58 11.809997,26.4 26.399999,26.4 C -11.81,26.4 0,14.58 0,0 Z"
       style="fill:none;stroke:#000000;stroke-width:26.4;stroke-linecap:round;stroke-linejoin:round;stroke-miterlimit:10;stroke-dasharray:none;stroke-opacity:1"
       transform="translate(396.79999,405.38661)"
       clip-path="url(#clipPath8)" />
    <path
       id="path9"
       d="M 370.39999,429.12 V 693.44"
       style="fill:none;stroke:#000000;stroke-width:26.4;stroke-linecap:round;stroke-linejoin:round;stroke-miterlimit:10;stroke-dasharray:none;stroke-opacity:1"
       transform="translate(0,2.666608)"
       clip-path="url(#clipPath10)" />
    <path
       id="path11"
       d="M 370.39999,561.28003 H 608.32001"
       style="fill:none;stroke:#000000;stroke-width:26.4;stroke-linecap:round;stroke-linejoin:round;stroke-miterlimit:10;stroke-dasharray:none;stroke-opacity:1"
       transform="translate(0,2.666608)"
       clip-path="url(#clipPath12)" />
    <path
       id="path13"
       d="m 0,0 -5.76,0.16 -5.6,0.64 -5.599999,1.12 -5.6,1.44 L -28,5.12 l -5.279999,2.24 -5.120003,2.56 -4.799999,2.88 -4.639999,3.36 -4.48,3.52 -4.16,4 -3.84,4.16 -3.52,4.48 -3.200001,4.639999 -2.879997,4.959999 -2.560005,5.120003 -2.079995,5.279999 -1.760002,5.439998 -1.440002,5.600003 -0.959999,5.599998 -0.479996,5.760002 -0.160004,5.599999 0.32,5.760002 0.639999,5.759994 1.120003,5.600006 1.599999,5.439998 1.760002,5.44 2.400001,5.12 2.559998,5.12 3.040001,4.8 3.359997,4.64 3.68,4.48 4,4 4.16,3.84001 4.639999,3.51999 4.640003,3.04 4.959999,2.87999 5.279999,2.40001 5.280001,2.08 5.44,1.6 5.6,1.27999 5.6,0.96001 5.76,0.48"
       style="fill:none;stroke:#000000;stroke-width:26.4;stroke-linecap:round;stroke-linejoin:round;stroke-miterlimit:10;stroke-dasharray:none;stroke-opacity:1"
       transform="translate(608.32001,563.94664)"
       clip-path="url(#clipPath14)" />
  </g>
</svg>
