<?xml version="1.0" encoding="UTF-8" standalone="no"?>
<!-- Created with Inkscape (http://www.inkscape.org/) -->

<svg
   version="1.1"
   id="svg1"
   width="506.93332"
   height="501.88"
   viewBox="0 0 506.93332 501.88"
   sodipodi:docname="Vitriolum21.pdf"
   xmlns:inkscape="http://www.inkscape.org/namespaces/inkscape"
   xmlns:sodipodi="http://sodipodi.sourceforge.net/DTD/sodipodi-0.dtd"
   xmlns="http://www.w3.org/2000/svg"
   xmlns:svg="http://www.w3.org/2000/svg">
  <defs
     id="defs1">
    <clipPath
       clipPathUnits="userSpaceOnUse"
       id="clipPath2">
      <path
         d="M 0,0.16 V 1122.5601 H 793.59998 V 0.16 Z"
         transform="translate(-511.67999,-674.56)"
         clip-rule="evenodd"
         id="path2" />
    </clipPath>
    <clipPath
       clipPathUnits="userSpaceOnUse"
       id="clipPath4">
      <path
         d="M 0,0.16 V 1122.5601 H 793.59998 V 0.16 Z"
         clip-rule="evenodd"
         id="path4" />
    </clipPath>
    <clipPath
       clipPathUnits="userSpaceOnUse"
       id="clipPath6">
      <path
         d="M 0,0.16 V 1122.5601 H 793.59998 V 0.16 Z"
         transform="translate(-418.56,-617.59998)"
         clip-rule="evenodd"
         id="path6" />
    </clipPath>
    <clipPath
       clipPathUnits="userSpaceOnUse"
       id="clipPath8">
      <path
         d="M 0,0.16 V 1122.5601 H 793.59998 V 0.16 Z"
         transform="translate(-372.48001,-725.44)"
         clip-rule="evenodd"
         id="path8" />
    </clipPath>
    <clipPath
       clipPathUnits="userSpaceOnUse"
       id="clipPath10">
      <path
         d="M 0,0.16 V 1122.5601 H 793.59998 V 0.16 Z"
         clip-rule="evenodd"
         id="path10" />
    </clipPath>
    <clipPath
       clipPathUnits="userSpaceOnUse"
       id="clipPath12">
      <path
         d="M 0,0.16 V 1122.5601 H 793.59998 V 0.16 Z"
         clip-rule="evenodd"
         id="path12" />
    </clipPath>
    <clipPath
       clipPathUnits="userSpaceOnUse"
       id="clipPath14">
      <path
         d="M 0,0.16 V 1122.5601 H 793.59998 V 0.16 Z"
         clip-rule="evenodd"
         id="path14" />
    </clipPath>
    <clipPath
       clipPathUnits="userSpaceOnUse"
       id="clipPath16">
      <path
         d="M 0,0.16 V 1122.5601 H 793.59998 V 0.16 Z"
         transform="translate(-623.35998,-410.23999)"
         clip-rule="evenodd"
         id="path16" />
    </clipPath>
    <clipPath
       clipPathUnits="userSpaceOnUse"
       id="clipPath18">
      <path
         d="M 0,0.16 V 1122.5601 H 793.59998 V 0.16 Z"
         transform="translate(-245.75999,-410.23999)"
         clip-rule="evenodd"
         id="path18" />
    </clipPath>
  </defs>
  <sodipodi:namedview
     id="namedview1"
     pagecolor="#505050"
     bordercolor="#eeeeee"
     borderopacity="1"
     inkscape:showpageshadow="0"
     inkscape:pageopacity="0"
     inkscape:pagecheckerboard="0"
     inkscape:deskcolor="#505050">
    <inkscape:page
       x="0"
       y="0"
       inkscape:label="1"
       id="page1"
       width="506.93332"
       height="501.88"
       margin="0"
       bleed="0" />
  </sodipodi:namedview>
  <g
     id="g1"
     inkscape:groupmode="layer"
     inkscape:label="1">
    <path
       id="path1"
       d="m 0,0 c 0,-62.560001 -50.709999,-113.28 -113.28,-113.28 -62.57001,0 -113.28,50.719999 -113.28,113.28 0,62.560001 50.70999,113.28 113.28,113.28 C -50.709999,113.28 0,62.560001 0,0 Z"
       style="fill:none;stroke:#000000;stroke-width:26.4;stroke-linecap:round;stroke-linejoin:round;stroke-miterlimit:10;stroke-dasharray:none;stroke-opacity:1"
       transform="translate(511.67999,681.23994)"
       clip-path="url(#clipPath2)" />
    <path
       id="path3"
       d="M 398.39999,561.28003 V 334.72"
       style="fill:none;stroke:#000000;stroke-width:26.4;stroke-linecap:round;stroke-linejoin:round;stroke-miterlimit:10;stroke-dasharray:none;stroke-opacity:1"
       transform="translate(0,6.6799413)"
       clip-path="url(#clipPath4)" />
    <path
       id="path5"
       d="m 0,0 -2.56,-1.12 -2.88,-0.8 -3.04,-0.64 -3.04,-0.32 h -2.88 l -3.040001,0.32 -3.039999,0.64 -2.720001,0.96 -2.879999,1.12 -2.559999,1.44 -2.560002,1.76 -2.239998,1.92 -2.080001,2.24 -1.919999,2.24 -1.600002,2.56 -1.279999,2.72 -1.119999,2.88 -0.800003,2.879999 -0.479999,2.880001 -0.32,3.039999 0.16,3.040001 0.32,2.879999 0.800003,3.040001 0.959999,2.880001 L -39.68,41.279999 -38.080002,43.84 -36.32,46.240002 -34.400002,48.48 -32.16,50.560001 l 2.4,1.759999 2.559999,1.599998 2.720001,1.280003 2.88,0.959999 2.880001,0.799999"
       style="fill:none;stroke:#000000;stroke-width:26.4;stroke-linecap:round;stroke-linejoin:round;stroke-miterlimit:10;stroke-dasharray:none;stroke-opacity:1"
       transform="translate(418.56,624.27992)"
       clip-path="url(#clipPath6)" />
    <path
       id="path7"
       d="m 0,0 2.24,2.08 2.4,1.76 2.56,1.6 2.72,1.28 2.72,0.96 2.88,0.64 3.039999,0.48 2.880002,0.16 L 24.48,8.8 27.360001,8.32 30.24,7.68 32.959999,6.72 35.68,5.44 38.240002,3.84 40.639999,2.08 42.720001,0.16 44.799999,-2.08 46.560001,-4.48 48,-7.04 49.279999,-9.6 50.400002,-12.48 51.040001,-15.36 51.52,-18.24 51.68,-21.280001 51.52,-24.16 51.040001,-27.040001 50.400002,-29.92 49.439999,-32.799999 48.16,-35.52 46.560001,-38.080002 44.799999,-40.32 42.880001,-42.560001 40.639999,-44.639999 38.240002,-46.400002 35.68,-47.84 32.959999,-49.119999 30.24,-50.080002 27.360001,-50.880001"
       style="fill:none;stroke:#000000;stroke-width:26.4;stroke-linecap:round;stroke-linejoin:round;stroke-miterlimit:10;stroke-dasharray:none;stroke-opacity:1"
       transform="translate(372.48001,732.11994)"
       clip-path="url(#clipPath8)" />
    <path
       id="path9"
       d="M 245.75999,448 H 547.84003"
       style="fill:none;stroke:#000000;stroke-width:26.4;stroke-linecap:round;stroke-linejoin:round;stroke-miterlimit:10;stroke-dasharray:none;stroke-opacity:1"
       transform="translate(0,6.6799413)"
       clip-path="url(#clipPath10)" />
    <path
       id="path11"
       d="M 245.75999,410.23999 V 448"
       style="fill:none;stroke:#000000;stroke-width:26.4;stroke-linecap:round;stroke-linejoin:round;stroke-miterlimit:10;stroke-dasharray:none;stroke-opacity:1"
       transform="translate(0,6.6799413)"
       clip-path="url(#clipPath12)" />
    <path
       id="path13"
       d="M 547.84003,410.23999 V 448"
       style="fill:none;stroke:#000000;stroke-width:26.4;stroke-linecap:round;stroke-linejoin:round;stroke-miterlimit:10;stroke-dasharray:none;stroke-opacity:1"
       transform="translate(0,6.6799413)"
       clip-path="url(#clipPath14)" />
    <path
       id="path15"
       d="M 0,0 -0.16,-3.52 -0.64,-6.88 -1.44,-10.24 -2.56,-13.6 -4,-16.799999 -5.6,-19.84 -7.52,-22.719999 -9.76,-25.440001 -12.32,-27.84 -15.04,-30.08 -17.92,-32 -20.959999,-33.759998 -24.16,-35.200001 -27.360001,-36.32 l -3.359998,-0.799999 -3.520003,-0.479999 -3.519996,-0.16 -3.520001,0.16 -3.36,0.479999 L -48,-36.32 l -3.360001,1.119999 -3.2,1.440003 L -57.599998,-32 -60.48,-30.08 l -2.720001,2.24 -2.399997,2.399999 -2.239998,2.720002 -1.920006,2.879999 -1.759995,3.040001 -1.440002,3.199999 -1.120003,3.36 -0.799995,3.36 -0.480004,3.36 -0.159996,3.52"
       style="fill:none;stroke:#000000;stroke-width:26.4;stroke-linecap:round;stroke-linejoin:round;stroke-miterlimit:10;stroke-dasharray:none;stroke-opacity:1"
       transform="translate(623.35998,416.91993)"
       clip-path="url(#clipPath16)" />
    <path
       id="path17"
       d="m 0,0 -0.16,-3.52 -0.48,-3.36 -0.8,-3.36 -1.12,-3.36 -1.28,-3.199999 L -5.6,-19.84 -7.52,-22.719999 -9.76,-25.440001 -12.32,-27.84 -14.88,-30.08 -17.76,-32 -20.799999,-33.759998 -24,-35.200001 -27.360001,-36.32 l -3.359998,-0.799999 -3.520003,-0.479999 -3.519996,-0.16 -3.360001,0.16 -3.52,0.479999 L -48,-36.32 l -3.360001,1.119999 -3.2,1.440003 L -57.599998,-32 -60.48,-30.08 l -2.720001,2.24 -2.399997,2.399999 -2.239998,2.720002 -1.920006,2.879999 -1.759995,3.040001 -1.440002,3.199999 -1.120003,3.36 -0.799995,3.36 -0.480004,3.36 -0.159996,3.52"
       style="fill:none;stroke:#000000;stroke-width:26.4;stroke-linecap:round;stroke-linejoin:round;stroke-miterlimit:10;stroke-dasharray:none;stroke-opacity:1"
       transform="translate(245.75999,416.91993)"
       clip-path="url(#clipPath18)" />
  </g>
</svg>
