<?xml version="1.0" encoding="UTF-8" standalone="no"?>
<!-- Created with Inkscape (http://www.inkscape.org/) -->

<svg
   version="1.1"
   id="svg1"
   width="502.93332"
   height="393.76001"
   viewBox="0 0 502.93332 393.76001"
   sodipodi:docname="Vitriolum15.pdf"
   xmlns:inkscape="http://www.inkscape.org/namespaces/inkscape"
   xmlns:sodipodi="http://sodipodi.sourceforge.net/DTD/sodipodi-0.dtd"
   xmlns="http://www.w3.org/2000/svg"
   xmlns:svg="http://www.w3.org/2000/svg">
  <defs
     id="defs1">
    <clipPath
       clipPathUnits="userSpaceOnUse"
       id="clipPath2">
      <path
         d="M 0,0.16 V 1122.5601 H 793.59998 V 0.16 Z"
         transform="translate(-346.07999,-516.47998)"
         clip-rule="evenodd"
         id="path2" />
    </clipPath>
    <clipPath
       clipPathUnits="userSpaceOnUse"
       id="clipPath4">
      <path
         d="M 0,0.16 V 1122.5601 H 793.59998 V 0.16 Z"
         transform="translate(-623.35998,-391.35999)"
         clip-rule="evenodd"
         id="path4" />
    </clipPath>
    <clipPath
       clipPathUnits="userSpaceOnUse"
       id="clipPath6">
      <path
         d="M 0,0.16 V 1122.5601 H 793.59998 V 0.16 Z"
         transform="translate(-447.35999,-516.47998)"
         clip-rule="evenodd"
         id="path6" />
    </clipPath>
  </defs>
  <sodipodi:namedview
     id="namedview1"
     pagecolor="#505050"
     bordercolor="#eeeeee"
     borderopacity="1"
     inkscape:showpageshadow="0"
     inkscape:pageopacity="0"
     inkscape:pagecheckerboard="0"
     inkscape:deskcolor="#505050">
    <inkscape:page
       x="0"
       y="0"
       inkscape:label="1"
       id="page1"
       width="502.93332"
       height="393.76001"
       margin="0"
       bleed="0" />
  </sodipodi:namedview>
  <g
     id="g1"
     inkscape:groupmode="layer"
     inkscape:label="1">
    <path
       id="path1"
       d="m 0,0 -5.92,3.36 -5.76,3.52 -5.600001,4 -5.279998,4.32 -5.120001,4.48 -4.8,4.959999 -4.479999,5.120001 -4.16,5.280001 -3.68,5.759998 -3.520001,5.760002 -3.2,6.079998 -2.720002,6.240002 -2.399997,6.399998 -1.920002,6.559997 L -60.16,78.400002 -61.279999,85.120003 -62.080002,92 l -0.32,6.720001 V 105.6 l 0.480004,6.72 0.799999,6.88 1.279999,6.56 1.599998,6.72 2.080002,6.4 2.560002,6.4 2.719997,6.24 3.200001,5.92 3.52,5.92 4,5.60001 4.16,5.27999 4.48,5.12 4.960001,4.8 5.119998,4.48 5.280001,4.16 5.6,3.84 5.92,3.52 6.08,3.2 6.08,2.88 6.4,2.4 6.56,1.92 6.560001,1.6 6.719997,1.28 6.720002,0.8 6.880001,0.48 h 6.880001 l 6.719997,-0.48 6.720001,-0.8 6.720002,-1.28 6.720001,-1.6 6.399994,-1.92 6.400001,-2.4 6.240002,-2.88 6.08,-3.2 5.76,-3.52 5.6,-3.84 5.44,-4.16 5.12,-4.48 4.80001,-4.8 4.64,-5.12 4.15998,-5.27999 3.84002,-5.60001 3.67999,-5.92 3.04001,-5.92 2.87999,-6.24 2.40001,-6.4 2.07998,-6.4 1.76001,-6.72 1.28,-6.56 0.8,-6.88 0.48,-6.72 V 98.720001 L 163.67999,92 162.88,85.120003 161.75999,78.400002 160.16,71.839996 158.08,65.279999 155.67999,58.880001 152.96001,52.639999 149.92,46.560001 146.39999,40.799999 142.56,35.040001 138.39999,29.76 133.92,24.639999 129.11999,19.68 124.16,15.2 118.72,10.88 113.28,6.88 107.36,3.36 101.28,0"
       style="fill:none;stroke:#000000;stroke-width:26.4;stroke-linecap:round;stroke-linejoin:round;stroke-miterlimit:10;stroke-dasharray:none;stroke-opacity:1"
       transform="translate(197.99999,153.41325)"
       clip-path="url(#clipPath2)" />
    <path
       id="path3"
       d="M 0,0 -17.76,3.52 -35.360001,7.36 -52.799999,11.84 -70.239998,16.959999 -87.519997,22.4 -104.48,28.32 l -16.96,6.560001 -16.64,6.879997 -16.48,7.520001 -16.16,7.84 -16.16,8.479999 -15.68,8.800004 -15.52,9.279998 -15.2,9.760002 -14.88,10.239998 -14.72,10.56 -14.4,10.88"
       style="fill:none;stroke:#000000;stroke-width:26.4;stroke-linecap:round;stroke-linejoin:round;stroke-miterlimit:10;stroke-dasharray:none;stroke-opacity:1"
       transform="translate(475.27998,28.29326)"
       clip-path="url(#clipPath4)" />
    <path
       id="path5"
       d="M 0,0 -19.84,-12.32 -40,-24.32 -60.48,-35.84 -81.120003,-46.880001 -102.08,-57.439999 -123.2,-67.68 l -21.44,-9.599999 -21.6,-9.279999 -21.76,-8.639999 -22.08,-8.160003 -22.08,-7.84 -22.4,-7.2 -22.56,-6.72"
       style="fill:none;stroke:#000000;stroke-width:26.4;stroke-linecap:round;stroke-linejoin:round;stroke-miterlimit:10;stroke-dasharray:none;stroke-opacity:1"
       transform="translate(299.27999,153.41325)"
       clip-path="url(#clipPath6)" />
  </g>
</svg>
