<?xml version="1.0" encoding="UTF-8" standalone="no"?>
<!-- Created with Inkscape (http://www.inkscape.org/) -->

<svg
   version="1.1"
   id="svg1"
   width="386.88"
   height="401.77332"
   viewBox="0 0 386.88 401.77332"
   sodipodi:docname="Vitriol3.pdf"
   xmlns:inkscape="http://www.inkscape.org/namespaces/inkscape"
   xmlns:sodipodi="http://sodipodi.sourceforge.net/DTD/sodipodi-0.dtd"
   xmlns="http://www.w3.org/2000/svg"
   xmlns:svg="http://www.w3.org/2000/svg">
  <defs
     id="defs1">
    <clipPath
       clipPathUnits="userSpaceOnUse"
       id="clipPath2">
      <path
         d="M 0,0.16 V 1122.5601 H 793.59998 V 0.16 Z"
         transform="translate(-3.3333334e-6)"
         clip-rule="evenodd"
         id="path2" />
    </clipPath>
    <clipPath
       clipPathUnits="userSpaceOnUse"
       id="clipPath4">
      <path
         d="M 0,0.16 V 1122.5601 H 793.59998 V 0.16 Z"
         transform="translate(-3.3333334e-6)"
         clip-rule="evenodd"
         id="path4" />
    </clipPath>
    <clipPath
       clipPathUnits="userSpaceOnUse"
       id="clipPath6">
      <path
         d="M 0,0.16 V 1122.5601 H 793.59998 V 0.16 Z"
         transform="translate(-3.3333334e-6)"
         clip-rule="evenodd"
         id="path6" />
    </clipPath>
    <clipPath
       clipPathUnits="userSpaceOnUse"
       id="clipPath8">
      <path
         d="M 0,0.16 V 1122.5601 H 793.59998 V 0.16 Z"
         transform="translate(-3.3333334e-6)"
         clip-rule="evenodd"
         id="path8" />
    </clipPath>
    <clipPath
       clipPathUnits="userSpaceOnUse"
       id="clipPath10">
      <path
         d="M 0,0.16 V 1122.5601 H 793.59998 V 0.16 Z"
         transform="translate(-241.76,-570.71997)"
         clip-rule="evenodd"
         id="path10" />
    </clipPath>
    <clipPath
       clipPathUnits="userSpaceOnUse"
       id="clipPath12">
      <path
         d="M 0,0.16 V 1122.5601 H 793.59998 V 0.16 Z"
         transform="translate(-241.76,-608.47998)"
         clip-rule="evenodd"
         id="path12" />
    </clipPath>
  </defs>
  <sodipodi:namedview
     id="namedview1"
     pagecolor="#505050"
     bordercolor="#eeeeee"
     borderopacity="1"
     inkscape:showpageshadow="0"
     inkscape:pageopacity="0"
     inkscape:pagecheckerboard="0"
     inkscape:deskcolor="#505050">
    <inkscape:page
       x="0"
       y="0"
       inkscape:label="1"
       id="page1"
       width="386.88"
       height="401.77332"
       margin="0"
       bleed="0" />
  </sodipodi:namedview>
  <g
     id="g1"
     inkscape:groupmode="layer"
     inkscape:label="1">
    <path
       id="path1"
       d="M 440,381.92001 309.28,608.47998 h 261.6 L 440,381.92001"
       style="fill:none;stroke:#000000;stroke-width:26.4;stroke-linecap:round;stroke-linejoin:round;stroke-miterlimit:10;stroke-dasharray:none;stroke-opacity:1"
       transform="translate(-202.77333,-357.72006)"
       clip-path="url(#clipPath2)" />
    <path
       id="path3"
       d="M 440,608.47998 V 740.64001"
       style="fill:none;stroke:#000000;stroke-width:26.4;stroke-linecap:round;stroke-linejoin:round;stroke-miterlimit:10;stroke-dasharray:none;stroke-opacity:1"
       transform="translate(-202.77333,-357.72006)"
       clip-path="url(#clipPath4)" />
    <path
       id="path5"
       d="M 345.60001,684 H 534.40002"
       style="fill:none;stroke:#000000;stroke-width:26.4;stroke-linecap:round;stroke-linejoin:round;stroke-miterlimit:10;stroke-dasharray:none;stroke-opacity:1"
       transform="translate(-202.77333,-357.72006)"
       clip-path="url(#clipPath6)" />
    <path
       id="path7"
       d="M 307.84,608.47998 H 251.2"
       style="fill:none;stroke:#000000;stroke-width:26.4;stroke-linecap:round;stroke-linejoin:round;stroke-miterlimit:10;stroke-dasharray:none;stroke-opacity:1"
       transform="translate(-202.77333,-357.72006)"
       clip-path="url(#clipPath8)" />
    <path
       id="path9"
       d="m 0,0 -2.24,0.16 -2.24,0.48 -2.24,0.64 -2.08,0.96 -1.92,1.12 -1.76,1.44 -1.6,1.6 -1.44,1.76 -1.119999,1.92 -0.960001,2.08 -0.64,2.24 -0.479999,2.239999 -0.16,2.24 0.16,2.240002 0.479999,2.24 0.64,2.239999 0.960001,2.08 1.119999,1.92 1.44,1.760001 1.6,1.599998 1.76,1.440003 1.92,1.279998 2.08,0.8 2.24,0.799999 2.24,0.319999 2.24,0.16"
       style="fill:none;stroke:#000000;stroke-width:26.4;stroke-linecap:round;stroke-linejoin:round;stroke-miterlimit:10;stroke-dasharray:none;stroke-opacity:1"
       transform="translate(38.986662,212.99991)"
       clip-path="url(#clipPath10)" />
    <path
       id="path11"
       d="m 0,0 -2.24,0.16 -2.24,0.48 -2.24,0.64 -2.08,0.96 -1.92,1.12 -1.76,1.44 -1.6,1.6 -1.44,1.76 -1.119999,1.92 -0.960001,2.08 -0.64,2.24 -0.479999,2.239999 -0.16,2.24 0.16,2.240002 0.479999,2.24 0.64,2.239999 0.960001,2.08 1.119999,1.92 1.44,1.760001 1.6,1.599998 1.76,1.440003 1.92,1.279998 2.08,0.8 2.24,0.799999 2.24,0.319999 2.24,0.16"
       style="fill:none;stroke:#000000;stroke-width:26.4;stroke-linecap:round;stroke-linejoin:round;stroke-miterlimit:10;stroke-dasharray:none;stroke-opacity:1"
       transform="translate(38.986662,250.75992)"
       clip-path="url(#clipPath12)" />
  </g>
</svg>
