<?xml version="1.0" encoding="UTF-8" standalone="no"?>
<!-- Created with Inkscape (http://www.inkscape.org/) -->

<svg
   version="1.1"
   id="svg1"
   width="486.93332"
   height="168.18668"
   viewBox="0 0 486.93332 168.18668"
   sodipodi:docname="Vitriolum7.pdf"
   xmlns:inkscape="http://www.inkscape.org/namespaces/inkscape"
   xmlns:sodipodi="http://sodipodi.sourceforge.net/DTD/sodipodi-0.dtd"
   xmlns="http://www.w3.org/2000/svg"
   xmlns:svg="http://www.w3.org/2000/svg">
  <defs
     id="defs1">
    <clipPath
       clipPathUnits="userSpaceOnUse"
       id="clipPath2">
      <path
         d="M 0,0.16 V 1122.5601 H 793.59998 V 0.16 Z"
         transform="translate(-223.19999,-561.35998)"
         clip-rule="evenodd"
         id="path2" />
    </clipPath>
    <clipPath
       clipPathUnits="userSpaceOnUse"
       id="clipPath4">
      <path
         d="M 0,0.16 V 1122.5601 H 793.59998 V 0.16 Z"
         clip-rule="evenodd"
         id="path4" />
    </clipPath>
    <clipPath
       clipPathUnits="userSpaceOnUse"
       id="clipPath6">
      <path
         d="M 0,0.16 V 1122.5601 H 793.59998 V 0.16 Z"
         clip-rule="evenodd"
         id="path6" />
    </clipPath>
    <clipPath
       clipPathUnits="userSpaceOnUse"
       id="clipPath8">
      <path
         d="M 0,0.16 V 1122.5601 H 793.59998 V 0.16 Z"
         transform="translate(-313.76001,-561.28003)"
         clip-rule="evenodd"
         id="path8" />
    </clipPath>
    <clipPath
       clipPathUnits="userSpaceOnUse"
       id="clipPath10">
      <path
         d="M 0,0.16 V 1122.5601 H 793.59998 V 0.16 Z"
         transform="translate(-494.88,-561.28003)"
         clip-rule="evenodd"
         id="path10" />
    </clipPath>
    <clipPath
       clipPathUnits="userSpaceOnUse"
       id="clipPath12">
      <path
         d="M 0,0.16 V 1122.5601 H 793.59998 V 0.16 Z"
         transform="translate(-494.88,-561.28003)"
         clip-rule="evenodd"
         id="path12" />
    </clipPath>
  </defs>
  <sodipodi:namedview
     id="namedview1"
     pagecolor="#505050"
     bordercolor="#eeeeee"
     borderopacity="1"
     inkscape:showpageshadow="0"
     inkscape:pageopacity="0"
     inkscape:pagecheckerboard="0"
     inkscape:deskcolor="#505050">
    <inkscape:page
       x="0"
       y="0"
       inkscape:label="1"
       id="page1"
       width="486.93332"
       height="168.18668"
       margin="0"
       bleed="0" />
  </sodipodi:namedview>
  <g
     id="g1"
     inkscape:groupmode="layer"
     inkscape:label="1">
    <path
       id="path1"
       d="m 0,0 c 0,-33.349998 -27.040001,-60.400002 -60.400002,-60.400002 -33.36,0 -60.399998,27.050004 -60.399998,60.400002 0,33.349998 27.039998,60.400002 60.399998,60.400002 C -27.040001,60.400002 0,33.349998 0,0 Z"
       style="fill:none;stroke:#000000;stroke-width:26.4;stroke-linecap:round;stroke-linejoin:round;stroke-miterlimit:10;stroke-dasharray:none;stroke-opacity:1"
       transform="translate(141.82666,87.506593)"
       clip-path="url(#clipPath2)" />
    <path
       id="path3"
       d="M 162.72,500.95999 V 621.76001"
       style="fill:none;stroke:#000000;stroke-width:26.4;stroke-linecap:round;stroke-linejoin:round;stroke-miterlimit:10;stroke-dasharray:none;stroke-opacity:1"
       transform="translate(-81.373333,-473.85339)"
       clip-path="url(#clipPath4)" />
    <path
       id="path5"
       d="M 162.72,561.28003 H 313.76001"
       style="fill:none;stroke:#000000;stroke-width:26.4;stroke-linecap:round;stroke-linejoin:round;stroke-miterlimit:10;stroke-dasharray:none;stroke-opacity:1"
       transform="translate(-81.373333,-473.85339)"
       clip-path="url(#clipPath6)" />
    <path
       id="path7"
       d="m 0,0 0.16,4 0.48,3.84 0.96,3.84 1.12,3.84 1.6,3.680001 1.76,3.519998 L 8.16,26.08 10.56,29.120001 13.28,32 l 2.88,2.720001 3.200001,2.399998 3.359998,2.080002 3.520001,1.919998 3.52,1.440002 3.839998,1.279999 3.840001,0.799999 4,0.48 3.84,0.16 4,-0.16 4,-0.48 3.84,-0.799999 3.68,-1.279999 3.680004,-1.440002 L 68,39.200001 71.360001,37.119999 74.400002,34.720001 77.440002,32 80,29.120001 82.400002,26.08 84.639999,22.719999 86.400002,19.200001 87.839996,15.52 89.120003,11.68 89.919998,7.84 90.400002,4 90.559998,0"
       style="fill:none;stroke:#000000;stroke-width:26.4;stroke-linecap:round;stroke-linejoin:round;stroke-miterlimit:10;stroke-dasharray:none;stroke-opacity:1"
       transform="translate(232.38668,87.426637)"
       clip-path="url(#clipPath8)" />
    <path
       id="path9"
       d="m 0,0 v -4 l -0.48,-3.84 -0.96,-3.84 -1.12,-3.84 -1.6,-3.680001 -1.76,-3.359998 L -8,-25.92 -10.4,-29.120001 -13.12,-32 -16,-34.720001 l -3.200001,-2.399998 -3.359998,-2.080002 -3.520001,-1.919998 -3.52,-1.440002 -3.839999,-1.119999 -3.84,-0.959999 -4,-0.48 -3.84,-0.16 -4,0.16 -3.84,0.48 -4,0.959999 -3.68,1.119999 -3.680001,1.440002 -3.519996,1.919998 -3.360001,2.080002 -3.040001,2.399998 -3.040001,2.720001 -2.559997,2.879999 -2.400002,3.200001 -2.240005,3.360001 -1.759995,3.359998 L -87.68,-15.52 l -1.279999,3.84 -0.800003,3.84 -0.479996,3.84 -0.32,4"
       style="fill:none;stroke:#000000;stroke-width:26.4;stroke-linecap:round;stroke-linejoin:round;stroke-miterlimit:10;stroke-dasharray:none;stroke-opacity:1"
       transform="translate(413.50667,87.426637)"
       clip-path="url(#clipPath10)" />
    <path
       id="path11"
       d="m 0,0 0.32,4 0.48,3.84 0.96,3.84 1.12,3.84 1.44,3.680001 1.92,3.519998 L 8.32,26.08 10.72,29.120001 13.44,32 l 2.88,2.720001 3.2,2.399998 3.199999,2.080002 3.520001,1.919998 3.68,1.440002 3.839998,1.279999 3.84,0.799999 3.840001,0.48 4,0.16"
       style="fill:none;stroke:#000000;stroke-width:26.4;stroke-linecap:round;stroke-linejoin:round;stroke-miterlimit:10;stroke-dasharray:none;stroke-opacity:1"
       transform="translate(413.50667,87.426637)"
       clip-path="url(#clipPath12)" />
  </g>
</svg>
