<?xml version="1.0" encoding="UTF-8" standalone="no"?>
<!-- Created with Inkscape (http://www.inkscape.org/) -->

<svg
   version="1.1"
   id="svg1"
   width="504.26666"
   height="503.21332"
   viewBox="0 0 504.26666 503.21332"
   sodipodi:docname="Vitriolum8.pdf"
   xmlns:inkscape="http://www.inkscape.org/namespaces/inkscape"
   xmlns:sodipodi="http://sodipodi.sourceforge.net/DTD/sodipodi-0.dtd"
   xmlns="http://www.w3.org/2000/svg"
   xmlns:svg="http://www.w3.org/2000/svg">
  <defs
     id="defs1">
    <clipPath
       clipPathUnits="userSpaceOnUse"
       id="clipPath2">
      <path
         d="M 0,0.16 V 1122.5601 H 793.59998 V 0.16 Z"
         transform="translate(-360,-410.23999)"
         clip-rule="evenodd"
         id="path2" />
    </clipPath>
    <clipPath
       clipPathUnits="userSpaceOnUse"
       id="clipPath4">
      <path
         d="M 0,0.16 V 1122.5601 H 793.59998 V 0.16 Z"
         transform="translate(-322.72,-708.79999)"
         clip-rule="evenodd"
         id="path4" />
    </clipPath>
    <clipPath
       clipPathUnits="userSpaceOnUse"
       id="clipPath6">
      <path
         d="M 0,0.16 V 1122.5601 H 793.59998 V 0.16 Z"
         transform="translate(-172.32001,-669.44)"
         clip-rule="evenodd"
         id="path6" />
    </clipPath>
    <clipPath
       clipPathUnits="userSpaceOnUse"
       id="clipPath8">
      <path
         d="M 0,0.16 V 1122.5601 H 793.59998 V 0.16 Z"
         clip-rule="evenodd"
         id="path8" />
    </clipPath>
    <clipPath
       clipPathUnits="userSpaceOnUse"
       id="clipPath10">
      <path
         d="M 0,0.16 V 1122.5601 H 793.59998 V 0.16 Z"
         transform="translate(-472.64002,-712.32001)"
         clip-rule="evenodd"
         id="path10" />
    </clipPath>
    <clipPath
       clipPathUnits="userSpaceOnUse"
       id="clipPath12">
      <path
         d="M 0,0.16 V 1122.5601 H 793.59998 V 0.16 Z"
         clip-rule="evenodd"
         id="path12" />
    </clipPath>
  </defs>
  <sodipodi:namedview
     id="namedview1"
     pagecolor="#505050"
     bordercolor="#eeeeee"
     borderopacity="1"
     inkscape:showpageshadow="0"
     inkscape:pageopacity="0"
     inkscape:pagecheckerboard="0"
     inkscape:deskcolor="#505050">
    <inkscape:page
       x="0"
       y="0"
       inkscape:label="1"
       id="page1"
       width="504.26666"
       height="503.21332"
       margin="0"
       bleed="0" />
  </sodipodi:namedview>
  <g
     id="g1"
     inkscape:groupmode="layer"
     inkscape:label="1">
    <path
       id="path1"
       d="m 0,0 c 0,-41.700001 -33.810001,-75.519997 -75.519997,-75.519997 -41.710003,0 -75.519993,33.819996 -75.519993,75.519997 0,41.700001 33.80999,75.519997 75.519993,75.519997 C -33.810001,75.519997 0,41.700001 0,0 Z"
       style="fill:none;stroke:#000000;stroke-width:26.4;stroke-linecap:round;stroke-linejoin:round;stroke-miterlimit:10;stroke-dasharray:none;stroke-opacity:1"
       transform="translate(215.92,103.23993)"
       clip-path="url(#clipPath2)" />
    <path
       id="path3"
       d="m 0,0 6.4,-16.639999 5.76,-16.959999 5.44,-16.960003 4.8,-17.279995 4.319999,-17.280007 3.84,-17.599997 3.199999,-17.6 2.720002,-17.6 2.240001,-17.75999 1.759999,-17.92002 1.119998,-17.75999 0.640004,-17.92 V -227.2 L 41.759998,-245.11999 40.799999,-262.88 39.200001,-280.79999 37.119999,-298.56"
       style="fill:none;stroke:#000000;stroke-width:26.4;stroke-linecap:round;stroke-linejoin:round;stroke-miterlimit:10;stroke-dasharray:none;stroke-opacity:1"
       transform="translate(178.64,401.79993)"
       clip-path="url(#clipPath4)" />
    <path
       id="path5"
       d="m 0,0 -1.12,5.44 -0.8,5.28 -0.32,5.44 V 21.6 L -1.76,27.040001 -1.12,32.48 0.16,37.759998 1.6,42.880001 3.52,48 l 2.4,4.959999 2.56,4.799999 2.88,4.480004 3.36,4.319996 3.52,4.160003 3.84,3.839997 4.16,3.520004 4.319999,3.36 L 35.200001,84.32 40,86.879997 l 4.959999,2.240006 4.959999,1.919998 5.280003,1.440002 5.279999,1.279999 5.439998,0.64 5.440003,0.479995 h 5.440002 l 5.439995,-0.479995 5.279999,-0.800004 5.440002,-1.119995 5.120003,-1.600006 5.119998,-1.919998 4.96,-2.239998 4.8,-2.559997 4.48,-3.040001 4.32,-3.200005 4.16,-3.68 3.83999,-3.839996 3.52001,-4 3.2,-4.480004 3.04,-4.479999 2.56,-4.8 2.24001,-4.959999 1.91999,-5.119999 1.43999,-5.280002"
       style="fill:none;stroke:#000000;stroke-width:26.4;stroke-linecap:round;stroke-linejoin:round;stroke-miterlimit:10;stroke-dasharray:none;stroke-opacity:1"
       transform="translate(28.240007,362.43994)"
       clip-path="url(#clipPath6)" />
    <path
       id="path7"
       d="M 472.64001,334.72 V 712.32001"
       style="fill:none;stroke:#000000;stroke-width:26.4;stroke-linecap:round;stroke-linejoin:round;stroke-miterlimit:10;stroke-dasharray:none;stroke-opacity:1"
       transform="translate(-144.08,-307.00006)"
       clip-path="url(#clipPath8)" />
    <path
       id="path9"
       d="M 0,0 0.16,5.44 0.8,10.72 1.76,16 3.04,21.280001 4.8,26.4 6.88,31.360001 9.28,36.16 12,40.799999 l 3.04,4.48 3.36,4.16 3.68,4 4,3.68 4.16,3.360001 4.480001,3.04 4.64,2.719998 4.799999,2.400001 4.959999,2.080002 5.120003,1.760002 5.279998,1.279999 5.280003,0.959999 5.279999,0.64 5.439995,0.159996 5.440002,-0.159996 5.279999,-0.64 5.279999,-0.959999 5.280006,-1.279999 5.119997,-1.760002 4.96,-2.080002 4.8,-2.400001 4.64,-2.719998 4.48,-3.04 4.16,-3.360001 4.00001,-3.68 3.67999,-4 3.36,-4.16 3.03999,-4.48 2.72,-4.639999 L 144.16,31.360001 146.24,26.4 148,21.280001 149.28,16 l 0.96,-5.28 0.64,-5.28 V 0"
       style="fill:none;stroke:#000000;stroke-width:26.4;stroke-linecap:round;stroke-linejoin:round;stroke-miterlimit:10;stroke-dasharray:none;stroke-opacity:1"
       transform="translate(328.56002,405.31995)"
       clip-path="url(#clipPath10)" />
    <path
       id="path11"
       d="M 397.12,485.76001 H 548.15997"
       style="fill:none;stroke:#000000;stroke-width:26.4;stroke-linecap:round;stroke-linejoin:round;stroke-miterlimit:10;stroke-dasharray:none;stroke-opacity:1"
       transform="translate(-144.08,-307.00006)"
       clip-path="url(#clipPath12)" />
  </g>
</svg>
