<?xml version="1.0" encoding="UTF-8" standalone="no"?>
<!-- Created with Inkscape (http://www.inkscape.org/) -->

<svg
   version="1.1"
   id="svg1"
   width="550.96002"
   height="497.88"
   viewBox="0 0 550.96002 497.88"
   sodipodi:docname="Vitriol.pdf"
   xmlns:inkscape="http://www.inkscape.org/namespaces/inkscape"
   xmlns:sodipodi="http://sodipodi.sourceforge.net/DTD/sodipodi-0.dtd"
   xmlns="http://www.w3.org/2000/svg"
   xmlns:svg="http://www.w3.org/2000/svg">
  <defs
     id="defs1">
    <clipPath
       clipPathUnits="userSpaceOnUse"
       id="clipPath2">
      <path
         d="M 0,0.16 V 1122.5601 H 793.59998 V 0.16 Z"
         transform="translate(-487.51999,-561.35999)"
         clip-rule="evenodd"
         id="path2" />
    </clipPath>
    <clipPath
       clipPathUnits="userSpaceOnUse"
       id="clipPath4">
      <path
         d="M 0,0.16 V 1122.5601 H 793.59998 V 0.16 Z"
         transform="translate(-3.3333333e-6)"
         clip-rule="evenodd"
         id="path4" />
    </clipPath>
    <clipPath
       clipPathUnits="userSpaceOnUse"
       id="clipPath6">
      <path
         d="M 0,0.16 V 1122.5601 H 793.59998 V 0.16 Z"
         transform="translate(-3.3333333e-6)"
         clip-rule="evenodd"
         id="path6" />
    </clipPath>
    <clipPath
       clipPathUnits="userSpaceOnUse"
       id="clipPath8">
      <path
         d="M 0,0.16 V 1122.5601 H 793.59998 V 0.16 Z"
         transform="translate(-316.48001,-390.39999)"
         clip-rule="evenodd"
         id="path8" />
    </clipPath>
  </defs>
  <sodipodi:namedview
     id="namedview1"
     pagecolor="#505050"
     bordercolor="#eeeeee"
     borderopacity="1"
     inkscape:showpageshadow="0"
     inkscape:pageopacity="0"
     inkscape:pagecheckerboard="0"
     inkscape:deskcolor="#505050">
    <inkscape:page
       x="0"
       y="0"
       inkscape:label="1"
       id="page1"
       width="550.96002"
       height="497.88"
       margin="0"
       bleed="0" />
  </sodipodi:namedview>
  <g
     id="g1"
     inkscape:groupmode="layer"
     inkscape:label="1">
    <path
       id="path1"
       d="m 0,0 c 0,-94.410004 -76.540001,-170.96001 -170.96001,-170.96001 -94.41999,0 -170.96,76.550006 -170.96,170.96001 0,94.410004 76.54001,170.96001 170.96,170.96001 C -76.540001,170.96001 0,94.410004 0,0 Z"
       style="fill:none;stroke:#000000;stroke-width:26.4;stroke-linecap:round;stroke-linejoin:round;stroke-miterlimit:10;stroke-dasharray:none;stroke-opacity:1"
       transform="translate(360.78666,247.67993)"
       clip-path="url(#clipPath2)" />
    <path
       id="path3"
       d="M 316.48001,391.35999 V 731.20001"
       style="fill:none;stroke:#000000;stroke-width:26.4;stroke-linecap:round;stroke-linejoin:round;stroke-miterlimit:10;stroke-dasharray:none;stroke-opacity:1"
       transform="translate(-126.73333,-313.68006)"
       clip-path="url(#clipPath4)" />
    <path
       id="path5"
       d="M 156,561.28003 H 476.95999"
       style="fill:none;stroke:#000000;stroke-width:26.4;stroke-linecap:round;stroke-linejoin:round;stroke-miterlimit:10;stroke-dasharray:none;stroke-opacity:1"
       transform="translate(-126.73333,-313.68006)"
       clip-path="url(#clipPath6)" />
    <path
       id="path7"
       d="m 0,0 2.88,-2.72 8.48,-8.48 6.72,-6.240001 4.639999,-4.319999 8.320002,-6.879999 7.52,-5.600003 7.039997,-4.479999 6.560002,-3.680001 6.560001,-3.039997 4.32,-1.760002 3.68,-1.279999 6.559998,-1.920002 L 80,-52 l 7.360001,-1.279999 7.519996,-0.800003 8.000003,-0.479999 8.16,-0.16 8.16,0.479999 8.16,0.800003 8,1.119999 7.52,1.599999 1.92,0.479999 3.68,0.960003 6.72,2.079998 6.40001,2.400002 6.39999,2.880001 6.24,3.199997 6.24,3.68 6.08,4.320002 6.24,4.639999 6.08,5.120001 6.08001,5.759999 2.71998,2.72 2.88001,2.88 6.08,6.56 6.08,7.04 5.92,7.36 5.6,7.680001 5.43999,8.16 4.96001,8.16 4.64,8.479999 4.16,8.64 3.84,8.799999 0.79999,1.760002 1.76001,4.639999 3.20001,9.120003 3.03998,9.599999 2.72,10.239997 2.40002,10.880001 2.4,11.84 2.07998,12.64 1.92002,13.60001 1.6,14.72 0.95999,9.59999 0.32001,5.75999 1.12,16.80001 0.79998,17.6 0.48001,15.84 0.16001,13.44 0.16,11.52 v 10.07999 8.96002 3.84 4.16 7.19999 6.88 l 0.15998,6.72 0.16,6.56 0.16,6.39999 0.32001,6.08002 0.48001,6.07999 0.79999,6.08001 0.95999,5.91999 0.16,0.80001 0.48001,2.4 1.44001,5.91998 1.91998,5.44 2.08002,5.28 2.39999,4.80002 2.88001,4.63999 3.04,4.16 3.35999,4 1.28,1.11999 1.44,1.44001 4,3.51999 4.48001,3.36001 5.12,3.20001 5.91998,3.51999 7.20001,3.84 6.4,3.20001"
       style="fill:none;stroke:#000000;stroke-width:26.4;stroke-linecap:round;stroke-linejoin:round;stroke-miterlimit:10;stroke-dasharray:none;stroke-opacity:1"
       transform="translate(189.74668,76.719935)"
       clip-path="url(#clipPath8)" />
  </g>
</svg>
