<?xml version="1.0" encoding="UTF-8" standalone="no"?>
<!-- Created with Inkscape (http://www.inkscape.org/) -->

<svg
   version="1.1"
   id="svg1"
   width="277.48001"
   height="266.95999"
   viewBox="0 0 277.48001 266.95999"
   sodipodi:docname="WallSalpetre.pdf"
   xmlns:inkscape="http://www.inkscape.org/namespaces/inkscape"
   xmlns:sodipodi="http://sodipodi.sourceforge.net/DTD/sodipodi-0.dtd"
   xmlns="http://www.w3.org/2000/svg"
   xmlns:svg="http://www.w3.org/2000/svg">
  <defs
     id="defs1">
    <clipPath
       clipPathUnits="userSpaceOnUse"
       id="clipPath2">
      <path
         d="M 0,0.16 V 1122.5601 H 793.59998 V 0.16 Z"
         transform="translate(-540.96002,-556.79999)"
         clip-rule="evenodd"
         id="path2" />
    </clipPath>
    <clipPath
       clipPathUnits="userSpaceOnUse"
       id="clipPath4">
      <path
         d="M 0,0.16 V 1122.5601 H 793.59998 V 0.16 Z"
         clip-rule="evenodd"
         id="path4" />
    </clipPath>
    <clipPath
       clipPathUnits="userSpaceOnUse"
       id="clipPath6">
      <path
         d="M 0,0.16 V 1122.5601 H 793.59998 V 0.16 Z"
         transform="translate(-380.48001,-556.79999)"
         clip-rule="evenodd"
         id="path6" />
    </clipPath>
    <clipPath
       clipPathUnits="userSpaceOnUse"
       id="clipPath8">
      <path
         d="M 0,0.16 V 1122.5601 H 793.59998 V 0.16 Z"
         transform="translate(-493.76001,-556.79999)"
         clip-rule="evenodd"
         id="path8" />
    </clipPath>
    <clipPath
       clipPathUnits="userSpaceOnUse"
       id="clipPath10">
      <path
         d="M 0,0.16 V 1122.5601 H 793.59998 V 0.16 Z"
         transform="translate(-380.48001,-556.79999)"
         clip-rule="evenodd"
         id="path10" />
    </clipPath>
  </defs>
  <sodipodi:namedview
     id="namedview1"
     pagecolor="#505050"
     bordercolor="#eeeeee"
     borderopacity="1"
     inkscape:showpageshadow="0"
     inkscape:pageopacity="0"
     inkscape:pagecheckerboard="0"
     inkscape:deskcolor="#505050">
    <inkscape:page
       x="0"
       y="0"
       inkscape:label="1"
       id="page1"
       width="277.48001"
       height="266.95999"
       margin="0"
       bleed="0" />
  </sodipodi:namedview>
  <g
     id="g1"
     inkscape:groupmode="layer"
     inkscape:label="1">
    <path
       id="path1"
       d="m 0,0 c 0,-62.560001 -50.709999,-113.28 -113.28,-113.28 -62.57001,0 -113.28,50.719999 -113.28,113.28 0,62.560001 50.70999,113.28 113.28,113.28 C -50.709999,113.28 0,62.560001 0,0 Z"
       style="fill:none;stroke:#000000;stroke-width:26.4;stroke-linecap:round;stroke-linejoin:round;stroke-miterlimit:10;stroke-dasharray:none;stroke-opacity:1"
       transform="translate(540.96002,566.13326)"
       clip-path="url(#clipPath2)" />
    <path
       id="path3"
       d="M 427.67999,443.51999 V 670.08002"
       style="fill:none;stroke:#000000;stroke-width:26.4;stroke-linecap:round;stroke-linejoin:round;stroke-miterlimit:10;stroke-dasharray:none;stroke-opacity:1"
       transform="translate(0,9.3332747)"
       clip-path="url(#clipPath4)" />
    <path
       id="path5"
       d="M 0,0 -0.16,-1.28 -0.32,-2.72 -0.8,-3.84 -1.44,-5.12 -2.4,-6.24 -3.2,-7.2 -4.32,-8 -5.6,-8.64 l -1.12,-0.48 -1.44,-0.16 -1.28,-0.16 -1.28,0.16 -1.44,0.16 -1.28,0.48 -1.12,0.64 -1.12,0.8 -0.959999,0.96 -0.800002,1.12 -0.639999,1.28 -0.479999,1.12 -0.16,1.44 -0.16,1.28 0.16,1.28 0.16,1.44 L -18.08,4 l 0.639999,1.12 0.800002,1.12 0.959999,0.96 1.12,0.8 1.12,0.64 1.28,0.48 1.44,0.16 1.28,0.16 L -8.16,9.28 -6.72,9.12 -5.6,8.64 -4.32,8 -3.2,7.2 -2.4,6.24 -1.44,5.12 -0.8,4 -0.32,2.72 -0.16,1.28 0,0 v 0 z"
       style="fill:#000000;fill-opacity:1;fill-rule:evenodd;stroke:none"
       transform="translate(380.48001,566.13326)"
       clip-path="url(#clipPath6)" />
    <path
       id="path7"
       d="M 0,0 -0.16,-1.28 -0.48,-2.72 -0.8,-3.84 -1.6,-5.12 -2.4,-6.24 -3.36,-7.2 -4.32,-8 -5.6,-8.64 l -1.28,-0.48 -1.28,-0.16 -1.28,-0.16 -1.44,0.16 -1.28,0.16 -1.28,0.48 -1.12,0.64 -1.12,0.8 -0.959999,0.96 -0.800002,1.12 -0.639999,1.28 -0.479999,1.12 -0.32,1.44 V 0 1.28 l 0.32,1.44 L -18.08,4 l 0.639999,1.12 0.800002,1.12 0.959999,0.96 1.12,0.8 1.12,0.64 1.28,0.48 1.28,0.16 1.44,0.16 L -8.16,9.28 -6.88,9.12 -5.6,8.64 -4.32,8 -3.36,7.2 -2.4,6.24 -1.6,5.12 -0.8,4 -0.48,2.72 -0.16,1.28 0,0 v 0 z"
       style="fill:#000000;fill-opacity:1;fill-rule:evenodd;stroke:none"
       transform="translate(493.76001,566.13326)"
       clip-path="url(#clipPath8)" />
    <path
       id="path9"
       d="M 0,0 -0.16,-1.28 -0.32,-2.72 -0.8,-3.84 -1.44,-5.12 -2.4,-6.24 -3.2,-7.2 -4.32,-8 -5.6,-8.64 l -1.12,-0.48 -1.44,-0.16 -1.28,-0.16 -1.28,0.16 -1.44,0.16 -1.28,0.48 -1.12,0.64 -1.12,0.8 -0.959999,0.96 -0.800002,1.12 -0.639999,1.28 -0.479999,1.12 -0.16,1.44 -0.16,1.28 0.16,1.28 0.16,1.44 L -18.08,4 l 0.639999,1.12 0.800002,1.12 0.959999,0.96 1.12,0.8 1.12,0.64 1.28,0.48 1.44,0.16 1.28,0.16 L -8.16,9.28 -6.72,9.12 -5.6,8.64 -4.32,8 -3.2,7.2 -2.4,6.24 -1.44,5.12 -0.8,4 -0.32,2.72 -0.16,1.28 0,0 m 113.28,0 -0.16,-1.28 -0.32,-1.44 -0.32,-1.12 -0.8,-1.28 -0.8,-1.12 -0.96,-0.96 -0.96,-0.8 -1.28,-0.64 -1.28,-0.48 -1.28,-0.16 -1.28,-0.16 -1.44,0.16 -1.28,0.16 -1.280004,0.48 -1.119995,0.64 -1.120003,0.8 -0.959999,0.96 -0.800003,1.12 -0.639999,1.28 -0.479996,1.12 -0.319999,1.44 V 0 1.28 l 0.319999,1.44 0.479996,1.28 0.639999,1.12 0.800003,1.12 0.959999,0.96 1.120003,0.8 1.119995,0.64 1.280004,0.48 1.28,0.16 1.44,0.16 1.28,-0.16 1.28,-0.16 1.28,-0.48 1.28,-0.64 0.96,-0.8 0.96,-0.96 0.8,-1.12 0.8,-1.12 0.32,-1.28 0.32,-1.44 0.16,-1.28"
       style="fill:none;stroke:#000000;stroke-width:0.48;stroke-linecap:round;stroke-linejoin:round;stroke-miterlimit:10;stroke-dasharray:none;stroke-opacity:1"
       transform="translate(380.48001,566.13326)"
       clip-path="url(#clipPath10)" />
  </g>
</svg>
