<?xml version="1.0" encoding="UTF-8" standalone="no"?>
<!-- Created with Inkscape (http://www.inkscape.org/) -->

<svg
   version="1.1"
   id="svg1"
   width="342.85333"
   height="523.23999"
   viewBox="0 0 342.85333 523.23999"
   sodipodi:docname="WhiteArsenic29.pdf"
   xmlns:inkscape="http://www.inkscape.org/namespaces/inkscape"
   xmlns:sodipodi="http://sodipodi.sourceforge.net/DTD/sodipodi-0.dtd"
   xmlns="http://www.w3.org/2000/svg"
   xmlns:svg="http://www.w3.org/2000/svg">
  <defs
     id="defs1">
    <clipPath
       clipPathUnits="userSpaceOnUse"
       id="clipPath2">
      <path
         d="M 0,0.16 V 1122.5601 H 793.59998 V 0.16 Z"
         transform="translate(-359.04001,-259.20001)"
         clip-rule="evenodd"
         id="path2" />
    </clipPath>
    <clipPath
       clipPathUnits="userSpaceOnUse"
       id="clipPath4">
      <path
         d="M 0,0.16 V 1122.5601 H 793.59998 V 0.16 Z"
         transform="translate(-320.16001,-657.12)"
         clip-rule="evenodd"
         id="path4" />
    </clipPath>
    <clipPath
       clipPathUnits="userSpaceOnUse"
       id="clipPath6">
      <path
         d="M 0,0.16 V 1122.5601 H 793.59998 V 0.16 Z"
         transform="translate(3.3333333e-6)"
         clip-rule="evenodd"
         id="path6" />
    </clipPath>
    <clipPath
       clipPathUnits="userSpaceOnUse"
       id="clipPath8">
      <path
         d="M 0,0.16 V 1122.5601 H 793.59998 V 0.16 Z"
         transform="translate(3.3333333e-6)"
         clip-rule="evenodd"
         id="path8" />
    </clipPath>
  </defs>
  <sodipodi:namedview
     id="namedview1"
     pagecolor="#505050"
     bordercolor="#eeeeee"
     borderopacity="1"
     inkscape:showpageshadow="0"
     inkscape:pageopacity="0"
     inkscape:pagecheckerboard="0"
     inkscape:deskcolor="#505050">
    <inkscape:page
       x="0"
       y="0"
       inkscape:label="1"
       id="page1"
       width="342.85333"
       height="523.23999"
       margin="0"
       bleed="0" />
  </sodipodi:namedview>
  <g
     id="g1"
     inkscape:groupmode="layer"
     inkscape:label="1">
    <path
       id="path1"
       d="m 0,0 c 0,-20.85 -16.9,-37.759998 -37.759998,-37.759998 -20.860001,0 -37.759999,16.909998 -37.759999,37.759998 0,20.85 16.899998,37.759998 37.759999,37.759998 C -16.9,37.759998 0,20.85 0,0 Z"
       style="fill:none;stroke:#000000;stroke-width:26.4;stroke-linecap:round;stroke-linejoin:round;stroke-miterlimit:10;stroke-dasharray:none;stroke-opacity:1"
       transform="translate(150.93334,68.319953)"
       clip-path="url(#clipPath2)" />
    <path
       id="path3"
       d="m 0,0 5.92,4.48 6.24,4.16 6.399999,3.68 6.720002,3.36 6.879999,2.879999 7.040001,2.560002 7.200001,1.92 7.199996,1.759998 7.360001,1.120001 7.360001,0.799999 7.519996,0.16 7.360001,-0.16 L 90.720001,26.08 98.080002,25.120001 105.28,23.52 l 7.2,-1.92 7.04,-2.399999 7.04,-2.880001 6.55999,-3.2 6.56,-3.52 6.24001,-4.16 6.08,-4.32 5.75999,-4.8 5.44001,-4.96 5.12001,-5.44 4.79998,-5.76 4.32001,-5.92 4.16001,-6.24 3.67999,-6.560001 3.2,-6.719998 2.88,-6.880001 2.39999,-7.040001 2.08001,-7.039997 1.6,-7.36 1.12,-7.360001 0.64,-7.360001 0.16,-7.519996 -0.16,-7.360004 -0.64,-7.52 -1.12,-7.36 -1.6,-7.2 -2.08001,-7.2 -2.39999,-7.04 -2.88,-6.87999 -3.2,-6.72 -3.67999,-6.40001 -4.16001,-6.23999 -4.32001,-6.08001 -4.79998,-5.6 -5.12001,-5.44 -5.44001,-5.12 -5.75999,-4.8 -6.08,-4.31999 -6.24001,-4 -6.56,-3.68001 -6.55999,-3.2 -7.04,-2.88 -7.04,-2.4 -7.2,-1.92 -7.199998,-1.44 -7.360001,-1.11999 -7.520004,-0.64 -7.360001,-0.16001 -7.519996,0.32 -7.360001,0.63999 -7.360001,1.28 -7.199996,1.60001 -7.200001,2.08 -7.040001,2.4 -6.879999,2.88 L 18.559999,-204 12.16,-200.32001 5.92,-196.16 0,-191.67999"
       style="fill:none;stroke:#000000;stroke-width:26.4;stroke-linecap:round;stroke-linejoin:round;stroke-miterlimit:10;stroke-dasharray:none;stroke-opacity:1"
       transform="translate(112.05334,466.23994)"
       clip-path="url(#clipPath4)" />
    <path
       id="path5"
       d="M 321.28,296.95999 320.16,465.44"
       style="fill:none;stroke:#000000;stroke-width:26.4;stroke-linecap:round;stroke-linejoin:round;stroke-miterlimit:10;stroke-dasharray:none;stroke-opacity:1"
       transform="translate(-208.10667,-190.88006)"
       clip-path="url(#clipPath6)" />
    <path
       id="path7"
       d="m 245.75999,372.48001 h 151.04"
       style="fill:none;stroke:#000000;stroke-width:26.4;stroke-linecap:round;stroke-linejoin:round;stroke-miterlimit:10;stroke-dasharray:none;stroke-opacity:1"
       transform="translate(-208.10667,-190.88006)"
       clip-path="url(#clipPath8)" />
  </g>
</svg>
