<?xml version="1.0" encoding="UTF-8" standalone="no"?>
<!-- Created with Inkscape (http://www.inkscape.org/) -->

<svg
   version="1.1"
   id="svg1"
   width="508.26666"
   height="501.89334"
   viewBox="0 0 508.26666 501.89334"
   sodipodi:docname="WhiteLead8.pdf"
   xmlns:inkscape="http://www.inkscape.org/namespaces/inkscape"
   xmlns:sodipodi="http://sodipodi.sourceforge.net/DTD/sodipodi-0.dtd"
   xmlns="http://www.w3.org/2000/svg"
   xmlns:svg="http://www.w3.org/2000/svg">
  <defs
     id="defs1">
    <clipPath
       clipPathUnits="userSpaceOnUse"
       id="clipPath2">
      <path
         d="M 0,0.16 V 1122.5601 H 793.59998 V 0.16 Z"
         transform="translate(-472.32001,-410.23999)"
         clip-rule="evenodd"
         id="path2" />
    </clipPath>
    <clipPath
       clipPathUnits="userSpaceOnUse"
       id="clipPath4">
      <path
         d="M 0,0.16 V 1122.5601 H 793.59998 V 0.16 Z"
         clip-rule="evenodd"
         id="path4" />
    </clipPath>
    <clipPath
       clipPathUnits="userSpaceOnUse"
       id="clipPath6">
      <path
         d="M 0,0.16 V 1122.5601 H 793.59998 V 0.16 Z"
         clip-rule="evenodd"
         id="path6" />
    </clipPath>
    <clipPath
       clipPathUnits="userSpaceOnUse"
       id="clipPath8">
      <path
         d="M 0,0.16 V 1122.5601 H 793.59998 V 0.16 Z"
         clip-rule="evenodd"
         id="path8" />
    </clipPath>
    <clipPath
       clipPathUnits="userSpaceOnUse"
       id="clipPath10">
      <path
         d="M 0,0.16 V 1122.5601 H 793.59998 V 0.16 Z"
         clip-rule="evenodd"
         id="path10" />
    </clipPath>
    <clipPath
       clipPathUnits="userSpaceOnUse"
       id="clipPath12">
      <path
         d="M 0,0.16 V 1122.5601 H 793.59998 V 0.16 Z"
         transform="translate(-472.32001,-523.52002)"
         clip-rule="evenodd"
         id="path12" />
    </clipPath>
    <clipPath
       clipPathUnits="userSpaceOnUse"
       id="clipPath14">
      <path
         d="M 0,0.16 V 1122.5601 H 793.59998 V 0.16 Z"
         transform="translate(-472.32001,-523.52002)"
         clip-rule="evenodd"
         id="path14" />
    </clipPath>
  </defs>
  <sodipodi:namedview
     id="namedview1"
     pagecolor="#505050"
     bordercolor="#eeeeee"
     borderopacity="1"
     inkscape:showpageshadow="0"
     inkscape:pageopacity="0"
     inkscape:pagecheckerboard="0"
     inkscape:deskcolor="#505050">
    <inkscape:page
       x="0"
       y="0"
       inkscape:label="1"
       id="page1"
       width="508.26666"
       height="501.89334"
       margin="0"
       bleed="0" />
  </sodipodi:namedview>
  <g
     id="g1"
     inkscape:groupmode="layer"
     inkscape:label="1">
    <path
       id="path1"
       d="M 0,0 -0.16,-5.28 -0.8,-10.72 -1.76,-16 -3.04,-21.280001 -4.64,-26.4 -6.72,-31.360001 -9.12,-36.16 -12,-40.799999 l -3.04,-4.48 -3.36,-4.16 -3.68,-4 -4,-3.68 -4.16,-3.360001 -4.480001,-3.04 -4.48,-2.719998 -4.959999,-2.400001 -4.959999,-2.080002 -5.120003,-1.760002 -5.119999,-1.279999 -5.440002,-0.959999 -5.279999,-0.64 -5.439995,-0.159996 -5.280006,0.159996 -5.439995,0.64 -5.279999,0.959999 -5.280006,1.279999 -5.119997,1.760002 -4.96,2.080002 -4.8,2.400001 -4.64,2.719998 -4.48,3.04 -4.16,3.360001 -3.84,3.68 -3.68,4 -3.52,4.16 -3.03999,4.48 -2.72,4.639999 -2.40001,4.799999 -2.08,4.960001 -1.76,5.119999 -1.28,5.280001 -0.96,5.28 -0.48,5.44 -0.31999,5.28"
       style="fill:none;stroke:#000000;stroke-width:26.4;stroke-linecap:round;stroke-linejoin:round;stroke-miterlimit:10;stroke-dasharray:none;stroke-opacity:1"
       transform="translate(472.32001,408.9066)"
       clip-path="url(#clipPath2)" />
    <path
       id="path3"
       d="M 321.28,410.23999 V 448"
       style="fill:none;stroke:#000000;stroke-width:26.4;stroke-linecap:round;stroke-linejoin:round;stroke-miterlimit:10;stroke-dasharray:none;stroke-opacity:1"
       transform="translate(0,-1.333392)"
       clip-path="url(#clipPath4)" />
    <path
       id="path5"
       d="M 472.32001,410.23999 V 448"
       style="fill:none;stroke:#000000;stroke-width:26.4;stroke-linecap:round;stroke-linejoin:round;stroke-miterlimit:10;stroke-dasharray:none;stroke-opacity:1"
       transform="translate(0,-1.333392)"
       clip-path="url(#clipPath6)" />
    <path
       id="path7"
       d="M 321.28,448 H 170.24"
       style="fill:none;stroke:#000000;stroke-width:26.4;stroke-linecap:round;stroke-linejoin:round;stroke-miterlimit:10;stroke-dasharray:none;stroke-opacity:1"
       transform="translate(0,-1.333392)"
       clip-path="url(#clipPath8)" />
    <path
       id="path9"
       d="M 472.32001,448 H 623.35998"
       style="fill:none;stroke:#000000;stroke-width:26.4;stroke-linecap:round;stroke-linejoin:round;stroke-miterlimit:10;stroke-dasharray:none;stroke-opacity:1"
       transform="translate(0,-1.333392)"
       clip-path="url(#clipPath10)" />
    <path
       id="path11"
       d="m 0,0 -7.36,-3.68 -7.52,-3.36 -7.839999,-2.88 -7.84,-2.56 -8.000002,-2.08 -8.16,-1.76 -8.16,-1.28 -8.16,-0.8 -8.32,-0.479999 H -79.68 l -8.159996,0.479999 -8.320008,0.8 -8.159996,1.28 -8,1.76 -8,2.08 -8.00001,2.56 -7.67999,2.88 -7.52,3.36 -7.51999,3.68"
       style="fill:none;stroke:#000000;stroke-width:26.4;stroke-linecap:round;stroke-linejoin:round;stroke-miterlimit:10;stroke-dasharray:none;stroke-opacity:1"
       transform="translate(472.32001,522.18663)"
       clip-path="url(#clipPath12)" />
    <path
       id="path13"
       d="M 0,0 -11.52,10.4 -22.719999,21.120001 -33.439999,32.32 -43.84,43.68 -53.919998,55.52 -63.52,67.68 l -9.280003,12.480004 -8.799995,12.799995 -8.32,13.120001 -8,13.28 -7.360002,13.60001 -7.04,13.75999 -6.56,14.08 -6.08,14.4 -5.6,14.40001 -5.11999,14.72 -4.48001,14.71998 -4.16001,15.04001 -3.51999,15.03999 -3.19999,15.20002"
       style="fill:none;stroke:#000000;stroke-width:26.4;stroke-linecap:round;stroke-linejoin:round;stroke-miterlimit:10;stroke-dasharray:none;stroke-opacity:1"
       transform="translate(472.32001,522.18663)"
       clip-path="url(#clipPath14)" />
  </g>
</svg>
