<?xml version="1.0" encoding="UTF-8" standalone="no"?>
<!-- Created with Inkscape (http://www.inkscape.org/) -->

<svg
   version="1.1"
   id="svg1"
   width="381.54666"
   height="248.28"
   viewBox="0 0 381.54666 248.28"
   sodipodi:docname="WhiteArsenic2.pdf"
   xmlns:inkscape="http://www.inkscape.org/namespaces/inkscape"
   xmlns:sodipodi="http://sodipodi.sourceforge.net/DTD/sodipodi-0.dtd"
   xmlns="http://www.w3.org/2000/svg"
   xmlns:svg="http://www.w3.org/2000/svg">
  <defs
     id="defs1">
    <clipPath
       clipPathUnits="userSpaceOnUse"
       id="clipPath3">
      <path
         d="M 0,0.16 V 1122.5601 H 793.59998 V 0.16 Z"
         transform="translate(-300.32001,-466.95999)"
         clip-rule="evenodd"
         id="path3" />
    </clipPath>
    <clipPath
       clipPathUnits="userSpaceOnUse"
       id="clipPath5">
      <path
         d="M 0,0.16 V 1122.5601 H 793.59998 V 0.16 Z"
         transform="translate(-434.23999,-466)"
         clip-rule="evenodd"
         id="path5" />
    </clipPath>
    <clipPath
       clipPathUnits="userSpaceOnUse"
       id="clipPath7">
      <path
         d="M 0,0.16 V 1122.5601 H 793.59998 V 0.16 Z"
         transform="translate(-564.47998,-466.07999)"
         clip-rule="evenodd"
         id="path7" />
    </clipPath>
  </defs>
  <sodipodi:namedview
     id="namedview1"
     pagecolor="#505050"
     bordercolor="#eeeeee"
     borderopacity="1"
     inkscape:showpageshadow="0"
     inkscape:pageopacity="0"
     inkscape:pagecheckerboard="0"
     inkscape:deskcolor="#505050">
    <inkscape:page
       x="0"
       y="0"
       inkscape:label="1"
       id="page1"
       width="381.54666"
       height="248.28"
       margin="0"
       bleed="0" />
  </sodipodi:namedview>
  <g
     id="g1"
     inkscape:groupmode="layer"
     inkscape:label="1">
    <path
       id="path1"
       d="m 0,0 h -28.639999 c -1.600001,-5.44 -2.880001,-9.92 -4,-13.28 -1.119999,-3.359999 -2.720002,-7.359999 -4.959999,-11.679999 -2.240002,-4.480002 -4.480004,-8 -6.720002,-10.400002 -2.400001,-2.559997 -5.439998,-4.799999 -9.279998,-6.559997 -3.680001,-1.920002 -8,-2.720001 -12.64,-2.720001 -5.279999,0 -11.36,1.119999 -18.560005,3.68 -0.479996,0.16 -1.759995,0.479999 -3.519997,1.279999 -1.919998,0.639999 -3.040001,1.119999 -3.68,1.439998 -0.639999,0.16 -1.760002,0.640004 -3.519997,1.280003 C -97.279999,-36.48 -98.559998,-36 -99.360001,-35.68 c -0.799999,0.16 -2.079999,0.479999 -3.679999,1.119999 -1.6,0.479999 -2.88,0.800003 -3.84,1.120002 -0.96,0.16 -2.24,0.32 -3.68,0.8 -1.44,0.319999 -2.88,0.479999 -4,0.639999 -1.12,0.16 -2.4,0.32 -3.68,0.32 -1.44,0.16 -2.72,0.16 -3.84,0.16 -9.92,0 -18.72,-3.200001 -26.4,-9.759999 -4.63999,-4 -8.48001,-8.479999 -11.52,-13.760002 -3.03999,-5.119999 -5.28,-11.040001 -6.72,-17.599998 -1.44,-6.559998 -2.56,-12.32 -3.03999,-17.279999 -0.48001,-4.959999 -0.96001,-11.200002 -1.28,-18.720002 l 28.31999,-0.8 c 0.8,16.319997 1.92,27.039998 3.2,31.840002 3.52,10.239997 9.91999,15.519996 19.04,15.84 5.76,0 14.72,-1.760002 26.719998,-5.439999 12,-3.68 21.599998,-5.440002 28.639999,-5.440002 12.800003,0 23.840004,3.519996 33.280003,10.720001 9.44,7.199997 15.200001,15.359997 17.44,24.479999 2.24,-9.120002 8.16,-17.280002 17.6,-24.479999 9.28,-7.200005 20.32,-10.720001 33.12,-10.720001 7.2,0 16.639999,1.760002 28.639999,5.440002 12,3.679997 20.959999,5.439999 26.879997,5.439999 3.840004,0 7.040001,-0.800003 9.600004,-2.400006 2.72,-1.439994 4.64,-3.359993 6.08,-5.759994 1.44,-2.400002 2.56,-5.599999 3.52,-9.599999 0.8,-4 1.28,-7.840004 1.6,-11.520004 0.32,-3.519997 0.64,-8.159996 0.8,-13.759999 0.16,-2.08 0.16,-3.52 0.16,-4.64 l 28.48,0.8 c -0.47999,7.68 -0.8,13.919999 -1.28,18.879998 -0.47999,4.800003 -1.44,10.560005 -2.88,17.120003 -1.44,6.559997 -3.68,12.479999 -6.72,17.599998 -3.04,5.280003 -6.88,9.760002 -11.36,13.760002 C 112,-34.720001 103.2,-31.52 93.440002,-31.52 c -1.440002,0 -2.880004,0 -4.160003,-0.16 -1.440003,0 -2.879997,-0.32 -4.479996,-0.64 -1.600006,-0.16 -2.880005,-0.479999 -4,-0.639999 -1.120003,-0.16 -2.720001,-0.48 -4.480003,-1.120003 -1.919998,-0.479999 -3.199997,-0.959999 -4,-1.119999 C 71.519997,-35.52 70.080002,-36 68,-36.639999 c -2.080002,-0.8 -3.360001,-1.119999 -3.839996,-1.279999 C 63.68,-38.240002 62.240002,-38.720001 60,-39.52 c -2.400002,-0.8 -3.68,-1.279999 -3.84,-1.439999 -7.200001,-2.560001 -13.439999,-3.68 -18.720001,-3.68 -4.64,0 -8.8,0.799999 -12.64,2.720001 -3.679998,1.759998 -6.719999,4 -9.119999,6.559997 -2.4,2.400002 -4.64,5.92 -6.88,10.400002 -2.08,4.32 -3.84,8.32 -4.8,11.679999 C 2.88,-9.92 1.6,-5.44 0,0 Z"
       style="fill:#000000;fill-opacity:1;fill-rule:nonzero;stroke:none"
       transform="translate(413.12,720.94663)" />
    <path
       id="path2"
       d="m 0,0 c 0,-20.190001 -16.360001,-36.560001 -36.560001,-36.560001 -20.199997,0 -36.560002,16.37 -36.560002,36.560001 0,20.190001 16.360005,36.560001 36.560002,36.560001 C -16.360001,36.560001 0,20.190001 0,0 Z"
       style="fill:none;stroke:#000000;stroke-width:26.4;stroke-linecap:round;stroke-linejoin:round;stroke-miterlimit:10;stroke-dasharray:none;stroke-opacity:1"
       transform="translate(300.32001,548.3866)"
       clip-path="url(#clipPath3)" />
    <path
       id="path4"
       d="m 0,0 c 0,-20.719999 -16.790001,-37.52 -37.52,-37.52 -20.73,0 -37.520001,16.800001 -37.520001,37.52 0,20.719999 16.790001,37.52 37.520001,37.52 C -16.790001,37.52 0,20.719999 0,0 Z"
       style="fill:none;stroke:#000000;stroke-width:26.4;stroke-linecap:round;stroke-linejoin:round;stroke-miterlimit:10;stroke-dasharray:none;stroke-opacity:1"
       transform="translate(434.23999,547.42661)"
       clip-path="url(#clipPath5)" />
    <path
       id="path6"
       d="m 0,0 c 0,-19.26 -15.61,-34.880001 -34.880001,-34.880001 -19.270001,0 -34.880001,15.620001 -34.880001,34.880001 0,19.26 15.61,34.880001 34.880001,34.880001 C -15.61,34.880001 0,19.26 0,0 Z"
       style="fill:none;stroke:#000000;stroke-width:26.4;stroke-linecap:round;stroke-linejoin:round;stroke-miterlimit:10;stroke-dasharray:none;stroke-opacity:1"
       transform="translate(564.47998,547.5066)"
       clip-path="url(#clipPath7)" />
  </g>
</svg>
