<?xml version="1.0" encoding="UTF-8" standalone="no"?>
<!-- Created with Inkscape (http://www.inkscape.org/) -->

<svg
   version="1.1"
   id="svg1"
   width="381.54666"
   height="451.16"
   viewBox="0 0 381.54666 451.16"
   sodipodi:docname="WhiteLead2.pdf"
   xmlns:inkscape="http://www.inkscape.org/namespaces/inkscape"
   xmlns:sodipodi="http://sodipodi.sourceforge.net/DTD/sodipodi-0.dtd"
   xmlns="http://www.w3.org/2000/svg"
   xmlns:svg="http://www.w3.org/2000/svg">
  <defs
     id="defs1">
    <clipPath
       clipPathUnits="userSpaceOnUse"
       id="clipPath2">
      <path
         d="M 0,0.16 V 1122.5601 H 793.59998 V 0.16 Z"
         transform="translate(-362.39999,-746.88)"
         clip-rule="evenodd"
         id="path2" />
    </clipPath>
    <clipPath
       clipPathUnits="userSpaceOnUse"
       id="clipPath4">
      <path
         d="M 0,0.16 V 1122.5601 H 793.59998 V 0.16 Z"
         clip-rule="evenodd"
         id="path4" />
    </clipPath>
    <clipPath
       clipPathUnits="userSpaceOnUse"
       id="clipPath6">
      <path
         d="M 0,0.16 V 1122.5601 H 793.59998 V 0.16 Z"
         clip-rule="evenodd"
         id="path6" />
    </clipPath>
    <clipPath
       clipPathUnits="userSpaceOnUse"
       id="clipPath8">
      <path
         d="M 0,0.16 V 1122.5601 H 793.59998 V 0.16 Z"
         clip-rule="evenodd"
         id="path8" />
    </clipPath>
  </defs>
  <sodipodi:namedview
     id="namedview1"
     pagecolor="#505050"
     bordercolor="#eeeeee"
     borderopacity="1"
     inkscape:showpageshadow="0"
     inkscape:pageopacity="0"
     inkscape:pagecheckerboard="0"
     inkscape:deskcolor="#505050">
    <inkscape:page
       x="0"
       y="0"
       inkscape:label="1"
       id="page1"
       width="381.54666"
       height="451.16"
       margin="0"
       bleed="0" />
  </sodipodi:namedview>
  <g
     id="g1"
     inkscape:groupmode="layer"
     inkscape:label="1">
    <path
       id="path1"
       d="m 0,0 6.72,3.52 7.04,3.04 7.039999,2.88 7.360001,2.24 7.36,1.92 7.520001,1.6 7.52,0.96 7.520001,0.639999 7.68,0.320002 7.519997,-0.160002 7.68,-0.639999 L 88.480003,15.2 96,13.76 l 7.36,-1.92 7.2,-2.24 7.2,-2.72 7.04,-3.04 6.72,-3.52 6.56,-3.84 6.4,-4.32 6.08,-4.48 5.76001,-4.960001 L 161.92,-22.559999 167.2,-28 172.16,-33.919998 176.64,-40 l 4.32001,-6.240002 3.83999,-6.559997 3.52001,-6.720001 3.19999,-7.039998 2.72,-7.04 2.24,-7.360001 1.91999,-7.360001 1.60001,-7.36 1.11999,-7.68 0.64,-7.52 0.16001,-7.68 -0.16001,-7.52 -0.64,-7.67999 -0.95999,-7.52001 -1.6,-7.52 -1.76,-7.36 -2.40001,-7.2 -2.72,-7.2 -3.03999,-7.04001 -3.52001,-6.72 -3.83999,-6.55999 -4.16001,-6.4 -4.63999,-6.08 -4.96,-5.75999 -5.12001,-5.60001 -5.59999,-5.28 -5.76001,-4.96001 -6.07998,-4.47999 -6.40001,-4.31999 -6.56,-3.84002 -6.72,-3.51998 -6.88,-3.20002 -7.2,-2.71998 -7.2,-2.24001 -7.360001,-2.08 -7.519996,-1.44 -7.520005,-1.12 -7.68,-0.64 -7.519996,-0.16 -7.680001,0.16 -7.52,0.64 -7.680001,0.95999 -7.36,1.60001 -7.520001,1.75999 -7.199998,2.40001 -7.200001,2.72 -6.88,3.04 -6.72,3.52 -6.72,3.84"
       style="fill:none;stroke:#000000;stroke-width:26.4;stroke-linecap:round;stroke-linejoin:round;stroke-miterlimit:10;stroke-dasharray:none;stroke-opacity:1"
       transform="translate(362.39999,748.22661)"
       clip-path="url(#clipPath2)" />
    <path
       id="path3"
       d="M 346.88,519.35998 428.48001,356.16"
       style="fill:none;stroke:#000000;stroke-width:26.4;stroke-linecap:round;stroke-linejoin:round;stroke-miterlimit:10;stroke-dasharray:none;stroke-opacity:1"
       transform="translate(0,1.346608)"
       clip-path="url(#clipPath4)" />
    <path
       id="path5"
       d="M 229.28,410.56 H 482.72"
       style="fill:none;stroke:#000000;stroke-width:26.4;stroke-linecap:round;stroke-linejoin:round;stroke-miterlimit:10;stroke-dasharray:none;stroke-opacity:1"
       transform="translate(0,1.346608)"
       clip-path="url(#clipPath6)" />
    <path
       id="path7"
       d="m 264.64001,357.76001 -1.12002,408.64001"
       style="fill:none;stroke:#000000;stroke-width:26.4;stroke-linecap:round;stroke-linejoin:round;stroke-miterlimit:10;stroke-dasharray:none;stroke-opacity:1"
       transform="translate(0,1.346608)"
       clip-path="url(#clipPath8)" />
  </g>
</svg>
