<?xml version="1.0" encoding="UTF-8" standalone="no"?>
<!-- Created with Inkscape (http://www.inkscape.org/) -->

<svg
   version="1.1"
   id="svg1"
   width="350.85333"
   height="217.57333"
   viewBox="0 0 350.85333 217.57333"
   sodipodi:docname="WhiteArsenic4.pdf"
   xmlns:inkscape="http://www.inkscape.org/namespaces/inkscape"
   xmlns:sodipodi="http://sodipodi.sourceforge.net/DTD/sodipodi-0.dtd"
   xmlns="http://www.w3.org/2000/svg"
   xmlns:svg="http://www.w3.org/2000/svg">
  <defs
     id="defs1">
    <clipPath
       clipPathUnits="userSpaceOnUse"
       id="clipPath2">
      <path
         d="M 0,0.16 V 1122.5601 H 793.59998 V 0.16 Z"
         transform="translate(-480.64001,-547.35998)"
         clip-rule="evenodd"
         id="path2" />
    </clipPath>
    <clipPath
       clipPathUnits="userSpaceOnUse"
       id="clipPath4">
      <path
         d="M 0,0.16 V 1122.5601 H 793.59998 V 0.16 Z"
         transform="translate(-313.12,-575.20001)"
         clip-rule="evenodd"
         id="path4" />
    </clipPath>
    <clipPath
       clipPathUnits="userSpaceOnUse"
       id="clipPath6">
      <path
         d="M 0,0.16 V 1122.5601 H 793.59998 V 0.16 Z"
         clip-rule="evenodd"
         id="path6" />
    </clipPath>
    <clipPath
       clipPathUnits="userSpaceOnUse"
       id="clipPath8">
      <path
         d="M 0,0.16 V 1122.5601 H 793.59998 V 0.16 Z"
         clip-rule="evenodd"
         id="path8" />
    </clipPath>
    <clipPath
       clipPathUnits="userSpaceOnUse"
       id="clipPath10">
      <path
         d="M 0,0.16 V 1122.5601 H 793.59998 V 0.16 Z"
         clip-rule="evenodd"
         id="path10" />
    </clipPath>
    <clipPath
       clipPathUnits="userSpaceOnUse"
       id="clipPath12">
      <path
         d="M 0,0.16 V 1122.5601 H 793.59998 V 0.16 Z"
         clip-rule="evenodd"
         id="path12" />
    </clipPath>
    <clipPath
       clipPathUnits="userSpaceOnUse"
       id="clipPath14">
      <path
         d="M 0,0.16 V 1122.5601 H 793.59998 V 0.16 Z"
         transform="translate(-552.64001,-561.35999)"
         clip-rule="evenodd"
         id="path14" />
    </clipPath>
    <clipPath
       clipPathUnits="userSpaceOnUse"
       id="clipPath16">
      <path
         d="M 0,0.16 V 1122.5601 H 793.59998 V 0.16 Z"
         transform="translate(-269.44,-561.35999)"
         clip-rule="evenodd"
         id="path16" />
    </clipPath>
  </defs>
  <sodipodi:namedview
     id="namedview1"
     pagecolor="#505050"
     bordercolor="#eeeeee"
     borderopacity="1"
     inkscape:showpageshadow="0"
     inkscape:pageopacity="0"
     inkscape:pagecheckerboard="0"
     inkscape:deskcolor="#505050">
    <inkscape:page
       x="0"
       y="0"
       inkscape:label="1"
       id="page1"
       width="350.85333"
       height="217.57333"
       margin="0"
       bleed="0" />
  </sodipodi:namedview>
  <g
     id="g1"
     inkscape:groupmode="layer"
     inkscape:label="1">
    <path
       id="path1"
       d="m 0,0 -1.12,-5.76 -1.6,-5.6 -1.92,-5.439999 L -6.88,-22.24 -9.6,-27.360001 -12.64,-32.32 l -3.2,-4.799999 -3.68,-4.479999 -4,-4.32 -4.32,-4 -4.48,-3.68 -4.639999,-3.360001 L -42.080002,-60 l -5.119999,-2.720001 -5.279999,-2.400002 -5.439998,-1.919998 -5.600002,-1.599998 -5.759999,-1.120003 -5.760002,-0.799996 -5.760002,-0.480003 h -5.919998 l -5.760002,0.480003 -5.759995,0.799996 -5.760002,1.120003 -5.6,1.599998 -5.44,1.919998 -5.44,2.400002 -5.12,2.720001 -4.96,3.040001 -4.8,3.360001 -4.48,3.68 -4.16,4 -4,4.32 -3.67999,4.479999 -3.36,4.799999 -3.04001,4.959999 -2.56,5.120001 -2.39999,5.440001 -1.92002,5.439999 -1.43998,5.6 L -167.52,0"
       style="fill:none;stroke:#000000;stroke-width:26.4;stroke-linecap:round;stroke-linejoin:round;stroke-miterlimit:10;stroke-dasharray:none;stroke-opacity:1"
       transform="translate(260.52001,96.199926)"
       clip-path="url(#clipPath2)" />
    <path
       id="path3"
       d="m 0,0 1.12,5.76 1.44,5.6 1.92,5.599999 2.4,5.280001 2.56,5.120001 3.04,5.119999 3.36,4.639999 3.68,4.639999 4,4.16 4.16,4 4.48,3.68 4.799999,3.360001 L 41.919998,60 l 5.120003,2.720001 5.439999,2.400002 5.439998,1.919998 5.600002,1.599998 5.759999,1.120003 5.760002,0.799996 5.760002,0.480003 h 5.919998 L 92.480003,70.559998 98.239998,69.760002 104,68.639999 l 5.6,-1.599998 5.44,-1.919998 5.28,-2.400002 L 125.44,60 l 5.12,-3.040001 4.64,-3.360001 4.47999,-3.68 4.32001,-4 4,-4.16 3.67999,-4.639999 L 154.88,32.48 157.92,27.360001 160.64,22.24 162.88,16.959999 164.8,11.36 166.39999,5.76 167.52,0"
       style="fill:none;stroke:#000000;stroke-width:26.4;stroke-linecap:round;stroke-linejoin:round;stroke-miterlimit:10;stroke-dasharray:none;stroke-opacity:1"
       transform="translate(92.999995,124.03995)"
       clip-path="url(#clipPath4)" />
    <path
       id="path5"
       d="m 481.76001,547.20001 h 56.64001"
       style="fill:none;stroke:#000000;stroke-width:26.4;stroke-linecap:round;stroke-linejoin:round;stroke-miterlimit:10;stroke-dasharray:none;stroke-opacity:1"
       transform="translate(-220.12,-451.16006)"
       clip-path="url(#clipPath6)" />
    <path
       id="path7"
       d="m 481.76001,575.52002 h 56.64001"
       style="fill:none;stroke:#000000;stroke-width:26.4;stroke-linecap:round;stroke-linejoin:round;stroke-miterlimit:10;stroke-dasharray:none;stroke-opacity:1"
       transform="translate(-220.12,-451.16006)"
       clip-path="url(#clipPath8)" />
    <path
       id="path9"
       d="M 311.84,547.20001 H 255.2"
       style="fill:none;stroke:#000000;stroke-width:26.4;stroke-linecap:round;stroke-linejoin:round;stroke-miterlimit:10;stroke-dasharray:none;stroke-opacity:1"
       transform="translate(-220.12,-451.16006)"
       clip-path="url(#clipPath10)" />
    <path
       id="path11"
       d="M 311.84,575.52002 H 255.2"
       style="fill:none;stroke:#000000;stroke-width:26.4;stroke-linecap:round;stroke-linejoin:round;stroke-miterlimit:10;stroke-dasharray:none;stroke-opacity:1"
       transform="translate(-220.12,-451.16006)"
       clip-path="url(#clipPath12)" />
    <path
       id="path13"
       d="m 0,0 c 0,-7.82 -6.33,-14.16 -14.16,-14.16 -7.83,0 -14.16,6.34 -14.16,14.16 0,7.82 6.33,14.16 14.16,14.16 C -6.33,14.16 0,7.82 0,0 Z"
       style="fill:none;stroke:#000000;stroke-width:18.88;stroke-linecap:round;stroke-linejoin:round;stroke-miterlimit:10;stroke-dasharray:none;stroke-opacity:1"
       transform="translate(332.52001,110.19993)"
       clip-path="url(#clipPath14)" />
    <path
       id="path15"
       d="m 0,0 c 0,-7.82 -6.33,-14.16 -14.16,-14.16 -7.83,0 -14.16,6.34 -14.16,14.16 0,7.82 6.33,14.16 14.16,14.16 C -6.33,14.16 0,7.82 0,0 Z"
       style="fill:none;stroke:#000000;stroke-width:18.88;stroke-linecap:round;stroke-linejoin:round;stroke-miterlimit:10;stroke-dasharray:none;stroke-opacity:1"
       transform="translate(49.320002,110.19993)"
       clip-path="url(#clipPath16)" />
  </g>
</svg>
