<?xml version="1.0" encoding="UTF-8" standalone="no"?>
<!-- Created with Inkscape (http://www.inkscape.org/) -->

<svg
   version="1.1"
   id="svg1"
   width="273.48001"
   height="308.33334"
   viewBox="0 0 273.48001 308.33334"
   sodipodi:docname="WhiteArsenic16.pdf"
   xmlns:inkscape="http://www.inkscape.org/namespaces/inkscape"
   xmlns:sodipodi="http://sodipodi.sourceforge.net/DTD/sodipodi-0.dtd"
   xmlns="http://www.w3.org/2000/svg"
   xmlns:svg="http://www.w3.org/2000/svg">
  <defs
     id="defs1">
    <clipPath
       clipPathUnits="userSpaceOnUse"
       id="clipPath2">
      <path
         d="M 0,0.16 V 1122.5601 H 793.59998 V 0.16 Z"
         transform="translate(-472.32,-561.28003)"
         clip-rule="evenodd"
         id="path2" />
    </clipPath>
    <clipPath
       clipPathUnits="userSpaceOnUse"
       id="clipPath4">
      <path
         d="M 0,0.16 V 1122.5601 H 793.59998 V 0.16 Z"
         transform="translate(-3.3333333e-6)"
         clip-rule="evenodd"
         id="path4" />
    </clipPath>
    <clipPath
       clipPathUnits="userSpaceOnUse"
       id="clipPath6">
      <path
         d="M 0,0.16 V 1122.5601 H 793.59998 V 0.16 Z"
         transform="translate(-245.76,-523.52002)"
         clip-rule="evenodd"
         id="path6" />
    </clipPath>
    <clipPath
       clipPathUnits="userSpaceOnUse"
       id="clipPath8">
      <path
         d="M 0,0.16 V 1122.5601 H 793.59998 V 0.16 Z"
         transform="translate(-321.28,-561.28003)"
         clip-rule="evenodd"
         id="path8" />
    </clipPath>
    <clipPath
       clipPathUnits="userSpaceOnUse"
       id="clipPath10">
      <path
         d="M 0,0.16 V 1122.5601 H 793.59998 V 0.16 Z"
         transform="translate(-321.28,-561.28003)"
         clip-rule="evenodd"
         id="path10" />
    </clipPath>
    <clipPath
       clipPathUnits="userSpaceOnUse"
       id="clipPath12">
      <path
         d="M 0,0.16 V 1122.5601 H 793.59998 V 0.16 Z"
         transform="translate(-321.28,-561.28003)"
         clip-rule="evenodd"
         id="path12" />
    </clipPath>
    <clipPath
       clipPathUnits="userSpaceOnUse"
       id="clipPath14">
      <path
         d="M 0,0.16 V 1122.5601 H 793.59998 V 0.16 Z"
         transform="translate(-3.3333333e-6)"
         clip-rule="evenodd"
         id="path14" />
    </clipPath>
    <clipPath
       clipPathUnits="userSpaceOnUse"
       id="clipPath16">
      <path
         d="M 0,0.16 V 1122.5601 H 793.59998 V 0.16 Z"
         transform="translate(-359.04001,-750.08002)"
         clip-rule="evenodd"
         id="path16" />
    </clipPath>
    <clipPath
       clipPathUnits="userSpaceOnUse"
       id="clipPath18">
      <path
         d="M 0,0.16 V 1122.5601 H 793.59998 V 0.16 Z"
         transform="translate(-396.79998,-636.79999)"
         clip-rule="evenodd"
         id="path18" />
    </clipPath>
    <clipPath
       clipPathUnits="userSpaceOnUse"
       id="clipPath20">
      <path
         d="M 0,0.16 V 1122.5601 H 793.59998 V 0.16 Z"
         transform="translate(-396.79998,-636.79999)"
         clip-rule="evenodd"
         id="path20" />
    </clipPath>
    <clipPath
       clipPathUnits="userSpaceOnUse"
       id="clipPath22">
      <path
         d="M 0,0.16 V 1122.5601 H 793.59998 V 0.16 Z"
         transform="translate(-396.79998,-636.79999)"
         clip-rule="evenodd"
         id="path22" />
    </clipPath>
  </defs>
  <sodipodi:namedview
     id="namedview1"
     pagecolor="#505050"
     bordercolor="#eeeeee"
     borderopacity="1"
     inkscape:showpageshadow="0"
     inkscape:pageopacity="0"
     inkscape:pagecheckerboard="0"
     inkscape:deskcolor="#505050">
    <inkscape:page
       x="0"
       y="0"
       inkscape:label="1"
       id="page1"
       width="273.48001"
       height="308.33334"
       margin="0"
       bleed="0" />
  </sodipodi:namedview>
  <g
     id="g1"
     inkscape:groupmode="layer"
     inkscape:label="1">
    <path
       id="path1"
       d="m 0,0 c 0,-41.700001 -33.810001,-75.519997 -75.519997,-75.519997 -41.710003,0 -75.519993,33.819996 -75.519993,75.519997 0,41.700001 33.80999,75.519997 75.519993,75.519997 C -33.810001,75.519997 0,41.700001 0,0 Z"
       style="fill:none;stroke:#000000;stroke-width:26.4;stroke-linecap:round;stroke-linejoin:round;stroke-miterlimit:10;stroke-dasharray:none;stroke-opacity:1"
       transform="translate(250.86667,99.43997)"
       clip-path="url(#clipPath2)" />
    <path
       id="path3"
       d="m 245.75999,523.52002 v 75.51996"
       style="fill:none;stroke:#000000;stroke-width:26.4;stroke-linecap:round;stroke-linejoin:round;stroke-miterlimit:10;stroke-dasharray:none;stroke-opacity:1"
       transform="translate(-221.45333,-461.84006)"
       clip-path="url(#clipPath4)" />
    <path
       id="path5"
       d="m 0,0 5.12,5.12 5.28,4.96 5.6,4.48 5.92,4.159999 6.08,3.84 L 34.240002,25.92 40.799999,28.959999 47.52,31.52 l 6.880002,2.239998 7.039997,1.760002 7.040004,1.279999 7.039994,0.959999"
       style="fill:none;stroke:#000000;stroke-width:26.4;stroke-linecap:round;stroke-linejoin:round;stroke-miterlimit:10;stroke-dasharray:none;stroke-opacity:1"
       transform="translate(24.306662,61.679961)"
       clip-path="url(#clipPath6)" />
    <path
       id="path7"
       d="M 0,0 -7.04,0.96 -14.08,2.24 -21.120001,4 -28,6.24 l -6.720001,2.56 -6.559998,3.04 -6.240001,3.52 -6.079998,3.680001 -5.920002,4.16 -5.600003,4.639999 -5.279999,4.799999 -5.119995,5.119999"
       style="fill:none;stroke:#000000;stroke-width:26.4;stroke-linecap:round;stroke-linejoin:round;stroke-miterlimit:10;stroke-dasharray:none;stroke-opacity:1"
       transform="translate(99.826666,99.43997)"
       clip-path="url(#clipPath8)" />
    <path
       id="path9"
       d="m 0,0 -5.6,0.64 -5.76,1.12 -5.599999,1.12 -5.6,1.6 L -28,6.24 -33.279999,8.32 -38.560001,10.56 -43.84,13.28 -48.799999,16 -53.599998,19.040001 -58.400002,22.4 l -4.479999,3.52 -4.48,3.68 -4.159996,3.999998 -4,4.16 v -75.519996 l 4,4.16 4.159996,3.999998 4.48,3.68 4.479999,3.52 4.800004,3.359999 4.799999,3.040001 4.959999,2.88 5.279999,2.56 5.280002,2.24 5.279999,2.08 5.440001,1.76 5.6,1.6 L -11.36,-1.6 -5.6,-0.64 0,0 v 0 z"
       style="fill:#000000;fill-opacity:1;fill-rule:evenodd;stroke:none"
       transform="translate(99.826666,99.43997)"
       clip-path="url(#clipPath10)" />
    <path
       id="path11"
       d="m 0,0 -5.6,0.64 -5.76,1.12 -5.599999,1.12 -5.6,1.6 L -28,6.24 -33.279999,8.32 -38.560001,10.56 -43.84,13.28 -48.799999,16 -53.599998,19.040001 -58.400002,22.4 l -4.479999,3.52 -4.48,3.68 -4.159996,3.999998 -4,4.16 v -75.519996 l 4,4.16 4.159996,3.999998 4.48,3.68 4.479999,3.52 4.800004,3.359999 4.799999,3.040001 4.959999,2.88 5.279999,2.56 5.280002,2.24 5.279999,2.08 5.440001,1.76 5.6,1.6 L -11.36,-1.6 -5.6,-0.64 0,0"
       style="fill:none;stroke:#000000;stroke-width:0.48;stroke-linecap:round;stroke-linejoin:round;stroke-miterlimit:10;stroke-dasharray:none;stroke-opacity:1"
       transform="translate(99.826666,99.43997)"
       clip-path="url(#clipPath12)" />
    <path
       id="path13"
       d="M 359.04001,750.08002 H 434.56"
       style="fill:none;stroke:#000000;stroke-width:26.4;stroke-linecap:round;stroke-linejoin:round;stroke-miterlimit:10;stroke-dasharray:none;stroke-opacity:1"
       transform="translate(-221.45333,-461.84006)"
       clip-path="url(#clipPath14)" />
    <path
       id="path15"
       d="m 0,0 4.48,-6.4 4.16,-6.72 4,-7.04 3.84,-7.52 3.36,-7.680001 3.200001,-7.84 2.879999,-8.16 2.56,-8.319999 2.399999,-8.64 2.08,-8.800003 1.600002,-8.799995 L 36,-95.040001 37.119999,-104.16 l 0.639999,-9.12"
       style="fill:none;stroke:#000000;stroke-width:26.4;stroke-linecap:round;stroke-linejoin:round;stroke-miterlimit:10;stroke-dasharray:none;stroke-opacity:1"
       transform="translate(137.58668,288.23996)"
       clip-path="url(#clipPath16)" />
    <path
       id="path17"
       d="m 0,0 0.8,9.12 1.12,9.12 1.28,9.120001 1.76,8.799999 2.08,8.799999 2.24,8.639999 2.56,8.32 3.04,8.160004 3.2,7.839996 3.360001,7.68 3.68,7.520005 4,7.039997 4.319998,6.72 4.319999,6.4"
       style="fill:none;stroke:#000000;stroke-width:26.4;stroke-linecap:round;stroke-linejoin:round;stroke-miterlimit:10;stroke-dasharray:none;stroke-opacity:1"
       transform="translate(175.34665,174.95993)"
       clip-path="url(#clipPath18)" />
    <path
       id="path19"
       d="M 0,0 0.8,8.64 1.76,17.120001 3.04,25.6 l 1.44,8.319998 1.76,8.160004 2.08,8 2.4,8 2.56,7.68 2.72,7.519997 3.200001,7.36 L 22.4,87.68 l 3.52,6.879998 3.84,6.400002 3.839998,6.4 4.16,5.92 h -75.519996 l 4.16,-5.92 3.999998,-6.4 3.68,-6.400002 3.52,-6.879998 3.359999,-7.040001 3.040001,-7.36 2.88,-7.519997 2.56,-7.68 2.24,-8 2.08,-8 1.92,-8.160004 L -2.88,25.6 -1.6,17.120001 -0.64,8.64 0,0 v 0 z"
       style="fill:#000000;fill-opacity:1;fill-rule:evenodd;stroke:none"
       transform="translate(175.34665,174.95993)"
       clip-path="url(#clipPath20)" />
    <path
       id="path21"
       d="M 0,0 0.8,8.64 1.76,17.120001 3.04,25.6 l 1.44,8.319998 1.76,8.160004 2.08,8 2.4,8 2.56,7.68 2.72,7.519997 3.200001,7.36 L 22.4,87.68 l 3.52,6.879998 3.84,6.400002 3.839998,6.4 4.16,5.92 h -75.519996 l 4.16,-5.92 3.999998,-6.4 3.68,-6.400002 3.52,-6.879998 3.359999,-7.040001 3.040001,-7.36 2.88,-7.519997 2.56,-7.68 2.24,-8 2.08,-8 1.92,-8.160004 L -2.88,25.6 -1.6,17.120001 -0.64,8.64 0,0"
       style="fill:none;stroke:#000000;stroke-width:0.48;stroke-linecap:round;stroke-linejoin:round;stroke-miterlimit:10;stroke-dasharray:none;stroke-opacity:1"
       transform="translate(175.34665,174.95993)"
       clip-path="url(#clipPath22)" />
  </g>
</svg>
