<?xml version="1.0" encoding="UTF-8" standalone="no"?>
<!-- Created with Inkscape (http://www.inkscape.org/) -->

<svg
   version="1.1"
   id="svg1"
   width="318.84"
   height="328.35999"
   viewBox="0 0 318.84 328.35999"
   sodipodi:docname="WhiteLead3.pdf"
   xmlns:inkscape="http://www.inkscape.org/namespaces/inkscape"
   xmlns:sodipodi="http://sodipodi.sourceforge.net/DTD/sodipodi-0.dtd"
   xmlns="http://www.w3.org/2000/svg"
   xmlns:svg="http://www.w3.org/2000/svg">
  <defs
     id="defs1">
    <clipPath
       clipPathUnits="userSpaceOnUse"
       id="clipPath2">
      <path
         d="M 0,0.16 V 1122.5601 H 793.59998 V 0.16 Z"
         transform="translate(-348.64001,-610.88)"
         clip-rule="evenodd"
         id="path2" />
    </clipPath>
    <clipPath
       clipPathUnits="userSpaceOnUse"
       id="clipPath4">
      <path
         d="M 0,0.16 V 1122.5601 H 793.59998 V 0.16 Z"
         transform="translate(-350.39999,-608.47998)"
         clip-rule="evenodd"
         id="path4" />
    </clipPath>
    <clipPath
       clipPathUnits="userSpaceOnUse"
       id="clipPath6">
      <path
         d="M 0,0.16 V 1122.5601 H 793.59998 V 0.16 Z"
         transform="translate(-3.3333333e-6)"
         clip-rule="evenodd"
         id="path6" />
    </clipPath>
    <clipPath
       clipPathUnits="userSpaceOnUse"
       id="clipPath8">
      <path
         d="M 0,0.16 V 1122.5601 H 793.59998 V 0.16 Z"
         transform="translate(-3.3333333e-6)"
         clip-rule="evenodd"
         id="path8" />
    </clipPath>
    <clipPath
       clipPathUnits="userSpaceOnUse"
       id="clipPath10">
      <path
         d="M 0,0.16 V 1122.5601 H 793.59998 V 0.16 Z"
         transform="translate(-3.3333333e-6)"
         clip-rule="evenodd"
         id="path10" />
    </clipPath>
  </defs>
  <sodipodi:namedview
     id="namedview1"
     pagecolor="#505050"
     bordercolor="#eeeeee"
     borderopacity="1"
     inkscape:showpageshadow="0"
     inkscape:pageopacity="0"
     inkscape:pagecheckerboard="0"
     inkscape:deskcolor="#505050">
    <inkscape:page
       x="0"
       y="0"
       inkscape:label="1"
       id="page1"
       width="318.84"
       height="328.35999"
       margin="0"
       bleed="0" />
  </sodipodi:namedview>
  <g
     id="g1"
     inkscape:groupmode="layer"
     inkscape:label="1">
    <path
       id="path1"
       d="m 0,0 -3.36,6.08 -3.04,6.08 -2.88,5.92 -2.4,5.92 -2.08,5.76 -1.76,5.76 -1.439999,5.439999 -0.960001,5.280003 -0.799999,5.119999 -0.320002,4.959999 v 4.799999 l 0.480002,4.479999 0.639999,4.160004 1.120001,4 1.439999,3.68 1.76,3.519997 2.08,3.040001 2.4,2.879997 2.88,2.400002 3.04,2.239998 3.36,1.760002 3.68,1.440002 4,1.119995 4.16,0.800003 4.48,0.32 h 4.640001 L 26.08,96.800003 31.200001,96 36.48,95.040001 42.080002,93.599998 47.68,92 l 5.759999,-2.080002 5.920002,-2.400001 5.919998,-2.719994 6.080002,-3.040001 6.080001,-3.36 6.079995,-3.680001 6.080001,-3.840004 6.080002,-4.159996 6.08,-4.479999 5.92,-4.640004 5.92,-4.959999 5.92,-5.119999 5.76,-5.279998 5.6,-5.440003 5.28,-5.599998 5.28,-5.76 5.12,-5.760001 4.8,-5.92 4.64,-6.08 4.48,-6.08 4,-6.08 3.84001,-6.08 3.67999,-6.079999 3.2,-6.08 3.04,-6.08 2.56,-5.920002"
       style="fill:none;stroke:#000000;stroke-width:26.4;stroke-linecap:round;stroke-linejoin:round;stroke-miterlimit:10;stroke-dasharray:none;stroke-opacity:1"
       transform="translate(108.50668,215.78661)"
       clip-path="url(#clipPath2)" />
    <path
       id="path3"
       d="m 0,0 3.04,-4.64 2.88,-4.8 2.88,-4.96 2.56,-5.12 2.4,-5.119999 L 16,-29.92 18.08,-35.200001 19.84,-40.32 21.440001,-45.599998 22.879999,-50.880001 24,-55.84 24.959999,-60.959999 25.6,-65.760002 l 0.48,-4.799996 0.32,-4.480003 -0.16,-4.479996 -0.32,-4.160003 -0.479999,-3.839997 -0.800002,-3.68 -0.959999,-3.360001 -1.28,-3.04 -1.440001,-2.720002 -1.759998,-2.56 -1.92,-2.08 -2.080001,-1.76 -2.24,-1.28 -2.56,-1.12 -2.56,-0.64 -2.88,-0.32 H 2.08 l -3.2,0.48 -3.04,0.8 -3.36,1.28 -3.36,1.44 -3.36,1.92 -3.36,2.24 -3.520001,2.559999 -3.519998,3.040001 -3.520001,3.199997 -3.36,3.360001 -3.360001,3.840004 -3.360001,4 -3.199997,4.159996 -3.2,4.480003 -3.040001,4.64 -2.880001,4.799999"
       style="fill:none;stroke:#000000;stroke-width:26.4;stroke-linecap:round;stroke-linejoin:round;stroke-miterlimit:10;stroke-dasharray:none;stroke-opacity:1"
       transform="translate(110.26666,213.38659)"
       clip-path="url(#clipPath4)" />
    <path
       id="path5"
       d="M 301.92001,414.72 V 546.88"
       style="fill:none;stroke:#000000;stroke-width:26.4;stroke-linecap:round;stroke-linejoin:round;stroke-miterlimit:10;stroke-dasharray:none;stroke-opacity:1"
       transform="translate(-240.13333,-395.09339)"
       clip-path="url(#clipPath6)" />
    <path
       id="path7"
       d="m 264.16,452.48001 h 75.51999"
       style="fill:none;stroke:#000000;stroke-width:26.4;stroke-linecap:round;stroke-linejoin:round;stroke-miterlimit:10;stroke-dasharray:none;stroke-opacity:1"
       transform="translate(-240.13333,-395.09339)"
       clip-path="url(#clipPath8)" />
    <path
       id="path9"
       d="M 452.95999,641.28003 490.72,679.03998"
       style="fill:none;stroke:#000000;stroke-width:26.4;stroke-linecap:round;stroke-linejoin:round;stroke-miterlimit:10;stroke-dasharray:none;stroke-opacity:1"
       transform="translate(-240.13333,-395.09339)"
       clip-path="url(#clipPath10)" />
  </g>
</svg>
