<?xml version="1.0" encoding="UTF-8" standalone="no"?>
<!-- Created with Inkscape (http://www.inkscape.org/) -->

<svg
   version="1.1"
   id="svg1"
   width="518.94666"
   height="373.74667"
   viewBox="0 0 518.94666 373.74667"
   sodipodi:docname="WhiteArsenic33.pdf"
   xmlns:inkscape="http://www.inkscape.org/namespaces/inkscape"
   xmlns:sodipodi="http://sodipodi.sourceforge.net/DTD/sodipodi-0.dtd"
   xmlns="http://www.w3.org/2000/svg"
   xmlns:svg="http://www.w3.org/2000/svg">
  <defs
     id="defs1">
    <clipPath
       clipPathUnits="userSpaceOnUse"
       id="clipPath2">
      <path
         d="M 0,0.16 V 1122.5601 H 793.59998 V 0.16 Z"
         clip-rule="evenodd"
         id="path2" />
    </clipPath>
  </defs>
  <sodipodi:namedview
     id="namedview1"
     pagecolor="#505050"
     bordercolor="#eeeeee"
     borderopacity="1"
     inkscape:showpageshadow="0"
     inkscape:pageopacity="0"
     inkscape:pagecheckerboard="0"
     inkscape:deskcolor="#505050">
    <inkscape:page
       x="0"
       y="0"
       inkscape:label="1"
       id="page1"
       width="518.94666"
       height="373.74667"
       margin="0"
       bleed="0" />
  </sodipodi:namedview>
  <g
     id="g1"
     inkscape:groupmode="layer"
     inkscape:label="1">
    <path
       id="path1"
       d="m 501.12,495.35999 0.32,0.16 0.63999,0.80002 0.48001,0.95999 0.16,0.95999 -0.16,0.96002 -0.16001,0.63999 -0.16,0.16 -0.31998,0.32001 -0.80001,0.63998 -0.96,0.16001 h -0.64001 -0.16 l -0.63999,-0.16001 -1.44,-0.63998 -1.44,-0.96002 v -0.15998 l -0.16001,-0.16 -0.47998,-0.64002 -0.48001,-1.44 -0.32001,-1.75998 V 494.56 494.39999 493.60001 L 494.88,492 l 0.96,-1.60001 0.48001,-0.47998 0.16,-0.16 L 497.28,489.12 499.04001,488 501.12,487.04001 502.23999,486.88 502.56,486.72 h 1.11999 l 2.24002,0.16 2.4,0.47999 1.28,0.64001 0.47998,0.16 0.96002,0.48001 2.39999,1.43998 1.76001,1.92001 0.79999,0.79999 0.15997,0.32001 0.64002,1.11999 1.28003,2.40002 0.79998,2.71998 0.32001,2.08001 v 0.48001 1.43998 l -0.16003,2.88 -0.63996,2.88001 -0.96002,2.23999 -0.15997,0.64001 -0.80005,1.44 -1.76001,2.88001 -2.23999,2.88 -1.27997,1.27997 -0.32001,0.32001 -1.11999,0.96002 -2.08002,1.59997 -2.39999,1.28003 -1.60001,0.79999 -0.47998,0.15998 -1.28,0.32 -3.20001,0.79999 -3.51999,0.32001 -1.44,0.16003 H 493.28 l -1.76001,-0.16003 -3.84,-0.32001 -4,-0.79999 -0.95999,-0.32 -0.48001,-0.15998 -1.59998,-0.47998 -4.16,-1.76001 -3.84,-1.91998 -0.48001,-0.32001 -1.28,-0.80005 -3.20001,-2.23999 -3.03998,-2.71997 -0.16,-0.16003 -0.32001,-0.32001 -1.11999,-1.27997 -2.72,-3.36001 -2.08002,-3.35999 -0.31998,-0.64001 -0.32,-0.47998 -0.80002,-1.76001 -1.44,-3.68 -1.12,-4.16 -0.63998,-2.72 -0.16001,-0.63999 -0.32,-2.08001 -0.32001,-4.79999 v -4.80002 -1.6 l 0.16,-0.79999 0.16001,-1.91999 0.95999,-4.64001 0.48001,-2.07999 1.28,-4 0.48001,-0.96002 0.32,-0.95999 0.96,-2.56 1.91998,-4.16 2.56,-4.79999 3.20001,-5.28 0.32001,-0.48001 0.63998,-0.95999 1.92001,-2.40002 3.04001,-3.51999 3.67999,-3.35999 4,-3.36001 0.96,-0.63999 0.80001,-0.64001 2.56,-1.76001 5.12,-3.03998 5.28,-2.56 4.79998,-2.08002 0.96,-0.32 3.04,-0.95999 4.96,-1.28 1.92001,-0.48001 3.19998,-0.63999 2.40002,-0.32001 0.47998,-0.16 h 0.48005 l 1.27997,-0.16 0.96002,-0.15998 0.95996,-0.16 1.44,0.16 h 0.80005 0.31995 l 1.28002,0.15998 h 2.08002 l 2.39996,0.32 2.88001,0.32001 3.20001,0.48001 0.96002,0.15998 0.95996,0.16 3.04004,0.48001 4.47998,0.95999 5.59998,1.44 7.36005,2.08002 0.31994,0.16 1.12006,0.31998 3.03998,1.12 4.64001,1.76001 4.32001,1.92001 3.67999,1.91998 0.95996,0.48001 0.64002,0.32001 2.08001,1.12 3.20002,1.91998 3.83996,2.72 2.40003,1.76001 0.63995,0.48001 1.92004,1.59998 3.20002,3.04001 4,3.67999 3.51995,3.68002 L 600,453.12 l 1.91998,2.23999 4.48004,5.6 1.91999,2.56 3.35998,4.80002 0.47998,0.95999 1.76001,3.04001 3.36005,5.75998 1.91998,3.68002 0.95996,2.07999 1.60004,3.20001 0.15997,0.31998 0.32001,0.80001 0.79999,1.91999 0.80005,1.92001 0.63995,2.07999 0.64002,2.72 0.47998,1.76001 0.16003,0.64001 0.32001,2.07999 0.63995,3.20001 0.80005,3.84 0.79999,4.96002 0.15997,1.27997 0.16003,0.96002 0.15998,2.71997 0.64001,7.67999 0.15998,7.04004 v 0.95996 l -0.15998,2.88001 -0.47998,7.52002 -0.32001,3.20001 -0.32,3.03998 -0.16004,0.79998 L 628,553.44 l -0.64002,3.84003 -1.11999,5.43994 -0.47998,1.76001 -0.16003,0.80005 L 625.12,567.67999 624,572 l -1.59998,5.59998 -1.11999,3.84002 -0.16003,0.96002 -0.79999,2.56 -0.96003,2.88001 -0.79998,2.23999 -1.27997,3.35998 -0.80005,2.56 h -0.15997 l -0.16004,0.47998 -0.47998,1.28003 -0.64001,1.59997 -1.27997,2.40003 -0.47998,1.11999 -0.80005,1.27997 -0.32001,0.64002 -0.95996,1.91998 -1.28003,2.56006 -1.76001,3.03998 -2.07995,3.83996 -2.56,4.32001 -0.64002,0.96002 -1.76,2.71997 -4.64002,6.56 -4.79999,6.40003 -1.59997,2.08001 -0.79999,0.95996 -2.40003,2.72003 -6.08001,6.71998 -3.03998,3.36004 -3.84003,3.83997 -0.79998,0.64001 -2.24,2.08002 -3.20001,3.03998 -4,3.20001 -4.15997,3.20001 -0.80005,0.47998 -2.39996,1.76001 -5.12,3.51996 -6.23999,3.84003 -2.88,1.59997 -0.79999,0.64002 -2.88001,1.60003 -4,2.07996 -3.52002,1.76001 -5.28002,2.72003 -1.27997,0.63996 -0.79999,0.32 -2.23999,1.12 -3.52002,1.44 -3.84003,1.60004 -3.35998,1.27996 -0.63999,0.16004 -2.08001,0.79999 -2.88001,0.96002 -2.39999,0.63995 -4.63999,1.28003 -2.72,0.64002 -0.96002,0.31994 -3.03998,0.64002 -4.96002,0.96002 -6.39999,1.11999 -6.07999,0.79999 -0.96002,0.16004 -3.03998,0.31994 -5.12,0.48004 -5.28002,0.15998 -4.31998,0.16003 h -0.96002 l -2.56,0.15998 h -3.84 -4.16 l -3.19998,-0.15998 -3.68,-0.16003 h -1.12002 l -3.19998,-0.32001 -5.28,-0.32001 -5.60001,-0.63995 -5.76001,-0.64002 -4.79999,-0.79998 -1.44,-0.16004 -4.79999,-0.79998 -7.04,-1.44001 -8.48001,-1.76001 -10.72001,-2.56 -0.95999,-0.15997 -1.6,-0.48004 -4.96,-1.43994 -7.83999,-2.40003 -7.20001,-2.40002 -6.07999,-2.23999 -1.92001,-0.79999 -1.28,-0.47998 -3.51999,-1.44 -4.80002,-1.92004 -5.11999,-2.39997 -6.4,-3.04004 L 326.23999,676 325.28,675.52002 l -3.04001,-1.60004 -7.67999,-4.15997 -6.88001,-4 -2.55999,-1.60004 -1.12,-0.63995 -3.51999,-2.23999 -7.04001,-4.64002 -5.76001,-3.67999 -5.11999,-3.67999 -1.12,-0.64002 -2.72,-2.08001 -3.84,-2.71997 -5.11999,-4.16004 -2.40002,-2.08001 -2.56,-2.07996 L 263.84,634.71997 260.79999,632 l -3.84,-3.52002 -4.47999,-4.15997 -4.96,-4.96003 -4.8,-4.95996 -1.11999,-1.28002 -3.52001,-3.83997 -3.84,-4.32001 -3.20001,-3.67999 L 228.8,598.56 l -3.52,-4.32001 -2.72,-3.35999 -0.32,-0.32 -0.63999,-0.96002 -1.76001,-2.24 -1.76,-2.39996 -1.92,-2.72003 -2.88,-4.15997 -1.92,-3.20002 -0.64,-0.96002 -1.75999,-3.20001 -2.40001,-3.83997 -3.2,-5.28002 -2.39999,-4.31995 -2.24001,-3.84003 -0.48,-0.96002 -1.44,-2.39996 -1.28,-2.56 -1.44,-2.88001 L 192,540 191.2,538.23999 190.88,537.44 189.60001,534.56 188,530.71997 l -2.08,-4.63995 -2.56,-6.56 L 182.39999,517.12 181.92,516 l -1.12,-3.20001 -2.24,-5.91999 -1.76,-5.44 -1.28,-4.16 -0.32,-0.95999 -0.64,-2.56 -1.44001,-4.96002 -0.95999,-4.15998 -0.96,-4.48001 -0.16001,-0.95999 -0.64,-3.04001 -0.95999,-4.64001 -0.8,-4.79999 -0.8,-4.95999 -0.64,-5.28 -0.16001,-1.28 -0.15999,-1.76001 -0.64,-5.11999 -0.63999,-6.4 -0.64,-7.52002 -0.64,-9.75998 L 164.16,417.44"
       style="fill:none;stroke:#000000;stroke-width:26.4;stroke-linecap:round;stroke-linejoin:round;stroke-miterlimit:10;stroke-dasharray:none;stroke-opacity:1"
       transform="translate(-140.08,-367.06673)"
       clip-path="url(#clipPath2)" />
  </g>
</svg>
