<?xml version="1.0" encoding="UTF-8" standalone="no"?>
<!-- Created with Inkscape (http://www.inkscape.org/) -->

<svg
   version="1.1"
   id="svg1"
   width="472.25333"
   height="524.5733"
   viewBox="0 0 472.25333 524.5733"
   sodipodi:docname="WhiteLead7.pdf"
   xmlns:inkscape="http://www.inkscape.org/namespaces/inkscape"
   xmlns:sodipodi="http://sodipodi.sourceforge.net/DTD/sodipodi-0.dtd"
   xmlns="http://www.w3.org/2000/svg"
   xmlns:svg="http://www.w3.org/2000/svg">
  <defs
     id="defs1">
    <clipPath
       clipPathUnits="userSpaceOnUse"
       id="clipPath2">
      <path
         d="M 0,0.16 V 1122.5601 H 793.59998 V 0.16 Z"
         transform="translate(-304.64001,-383.35998)"
         clip-rule="evenodd"
         id="path2" />
    </clipPath>
    <clipPath
       clipPathUnits="userSpaceOnUse"
       id="clipPath4">
      <path
         d="M 0,0.16 V 1122.5601 H 793.59998 V 0.16 Z"
         transform="translate(-333.92001,-620.15997)"
         clip-rule="evenodd"
         id="path4" />
    </clipPath>
    <clipPath
       clipPathUnits="userSpaceOnUse"
       id="clipPath6">
      <path
         d="M 0,0.16 V 1122.5601 H 793.59998 V 0.16 Z"
         transform="translate(-507.84,-765.28003)"
         clip-rule="evenodd"
         id="path6" />
    </clipPath>
    <clipPath
       clipPathUnits="userSpaceOnUse"
       id="clipPath8">
      <path
         d="M 0,0.16 V 1122.5601 H 793.59998 V 0.16 Z"
         transform="translate(-377.44,-656.47998)"
         clip-rule="evenodd"
         id="path8" />
    </clipPath>
    <clipPath
       clipPathUnits="userSpaceOnUse"
       id="clipPath10">
      <path
         d="M 0,0.16 V 1122.5601 H 793.59998 V 0.16 Z"
         clip-rule="evenodd"
         id="path10" />
    </clipPath>
    <clipPath
       clipPathUnits="userSpaceOnUse"
       id="clipPath12">
      <path
         d="M 0,0.16 V 1122.5601 H 793.59998 V 0.16 Z"
         transform="translate(-602.23999,-485.76001)"
         clip-rule="evenodd"
         id="path12" />
    </clipPath>
  </defs>
  <sodipodi:namedview
     id="namedview1"
     pagecolor="#505050"
     bordercolor="#eeeeee"
     borderopacity="1"
     inkscape:showpageshadow="0"
     inkscape:pageopacity="0"
     inkscape:pagecheckerboard="0"
     inkscape:deskcolor="#505050">
    <inkscape:page
       x="0"
       y="0"
       inkscape:label="1"
       id="page1"
       width="472.25333"
       height="524.5733"
       margin="0"
       bleed="0" />
  </sodipodi:namedview>
  <g
     id="g1"
     inkscape:groupmode="layer"
     inkscape:label="1">
    <path
       id="path1"
       d="M 0,0 C 0,-31.280001 -25.35,-56.639999 -56.639999,-56.639999 -87.93,-56.639999 -113.28,-31.280001 -113.28,0 c 0,31.280001 25.35,56.639999 56.640001,56.639999 C -25.35,56.639999 0,31.280001 0,0 Z"
       style="fill:none;stroke:#000000;stroke-width:26.4;stroke-linecap:round;stroke-linejoin:round;stroke-miterlimit:10;stroke-dasharray:none;stroke-opacity:1"
       transform="translate(304.64001,388.70659)"
       clip-path="url(#clipPath2)" />
    <path
       id="path3"
       d="m 0,0 2.72,-3.36 2.4,-3.84 2.24,-3.84 1.76,-4 1.44,-4.320001 1.12,-4.159999 0.8,-4.48 0.48,-4.32 0.16,-4.479999 -0.16,-4.48 -0.64,-4.319999 -0.96,-4.480004 -1.28,-4.16 -1.44,-4.16 -1.92,-4 -2.24,-3.839996 -2.56,-3.68 -2.72,-3.520004 -3.2,-3.199997 -3.2,-3.040001 -3.52,-2.720002 -3.84,-2.400001 -3.84,-2.079994 -4,-1.920006 -4.319999,-1.439995 -4.16,-1.120003 -4.480002,-0.800003 -4.319999,-0.479995 -4.48,-0.160004 -4.479999,0.32 -4.32,0.480003 -4.48,0.959999 -4.159999,1.279999 -4.160004,1.599998 -4,1.920006 -3.839996,2.239998 -3.680001,2.400002 -3.520004,2.879997 L -84,-75.68 l -3.040001,3.199997"
       style="fill:none;stroke:#000000;stroke-width:26.4;stroke-linecap:round;stroke-linejoin:round;stroke-miterlimit:10;stroke-dasharray:none;stroke-opacity:1"
       transform="translate(333.92001,625.50658)"
       clip-path="url(#clipPath4)" />
    <path
       id="path5"
       d="m 0,0 5.76,-6.88 5.28,-7.2 5.12,-7.200001 4.639999,-7.359998 4.480002,-7.520001 4.16,-7.68 3.839998,-7.68 3.52,-7.840001 L 40,-67.199997 l 2.880001,-7.68 2.399998,-7.840004 2.240001,-7.839997 1.599999,-7.68 1.440002,-7.680002 0.959999,-7.52 0.64,-7.52 0.32,-7.36001 -0.16,-7.19999 -0.64,-6.87999 -0.799999,-6.88001 -1.280003,-6.56 -1.759998,-6.4 -1.920002,-6.08001 L 43.52,-174.24 l -2.880001,-5.6 -3.040001,-5.27999 -3.359996,-4.96001 -3.840002,-4.64 -4.16,-4.31999 -4.32,-4 -4.799999,-3.52001 -4.960001,-3.36 -5.28,-2.88 -5.44,-2.4 -5.76,-2.08 -6.08,-1.75999 -6.08,-1.28002 -6.399999,-0.95999 -6.560002,-0.47999 H -36.16 l -6.880001,0.31999 -7.040001,0.8 -7.039997,1.12 -7.200001,1.44 -7.199997,2.08 -7.200004,2.24001 -7.360001,2.72 -7.199997,3.19999 -7.360001,3.51999 -7.2,3.84001 -7.2,4.15999 -7.04,4.48001 -7.03999,4.80001 -6.88001,5.28 -6.72,5.43998 -6.72,5.76001 -6.4,6.08 -6.24,6.24 -6.08,6.56001 -5.76,6.56"
       style="fill:none;stroke:#000000;stroke-width:26.4;stroke-linecap:round;stroke-linejoin:round;stroke-miterlimit:10;stroke-dasharray:none;stroke-opacity:1"
       transform="translate(507.84,770.62664)"
       clip-path="url(#clipPath6)" />
    <path
       id="path7"
       d="m 0,0 -3.52,4.64 -3.2,4.8 -3.04,4.96 -2.56,5.28 -2.08,5.440001 -1.92,5.439998 -1.44,5.600001 -0.959999,5.759998 -0.640002,5.760002 -0.319999,5.759999 0.16,5.760002 0.479999,5.759998 0.960001,5.760002 1.280001,5.599999 1.759999,5.599998 1.92,5.440003 2.56,5.279998 2.72,5.120003 3.2,4.799998 3.36,4.64 3.84,4.48 4,4.16 4.32,3.84 4.64,3.52 4.8,3.36 4.960001,2.88 5.279998,2.56 5.280001,2.08 5.599999,1.92 5.600002,1.44 5.599998,0.95999 5.760003,0.80001 5.919998,0.16 5.760002,-0.16 5.759994,-0.48 5.760002,-0.96001 5.599999,-1.27999 5.600006,-1.6 5.439995,-2.08 5.280002,-2.40001 4.96,-2.87999 4.96,-3.04 4.64,-3.52 4.48,-3.68 4.16,-4.16 3.67999,-4.32"
       style="fill:none;stroke:#000000;stroke-width:26.4;stroke-linecap:round;stroke-linejoin:round;stroke-miterlimit:10;stroke-dasharray:none;stroke-opacity:1"
       transform="translate(377.44,661.82659)"
       clip-path="url(#clipPath8)" />
    <path
       id="path9"
       d="m 248,440 -1.12,107.84003"
       style="fill:none;stroke:#000000;stroke-width:26.4;stroke-linecap:round;stroke-linejoin:round;stroke-miterlimit:10;stroke-dasharray:none;stroke-opacity:1"
       transform="translate(0,5.346608)"
       clip-path="url(#clipPath10)" />
    <path
       id="path11"
       d="m 0,0 -11.84,2.24 -12,2.72 -11.84,3.36 -11.680001,3.68 -11.52,4.16 -11.200001,4.639999 L -81.279999,25.76 -92.160004,31.360001 -102.88,37.279999 -113.28,43.68 l -10.24,6.720002 -9.92,7.199996 -9.59999,7.680001 -9.28002,8 -8.95999,8.319999 -8.47999,8.64 -8.32001,9.120003 -7.84,9.279999 -7.52,9.76 -7.04,9.92001 -6.72,10.23999 -6.40001,10.55999 -5.75999,10.72001 -5.44,10.88"
       style="fill:none;stroke:#000000;stroke-width:26.4;stroke-linecap:round;stroke-linejoin:round;stroke-miterlimit:10;stroke-dasharray:none;stroke-opacity:1"
       transform="translate(602.23999,491.10662)"
       clip-path="url(#clipPath12)" />
  </g>
</svg>
