<?xml version="1.0" encoding="UTF-8" standalone="no"?>
<!-- Created with Inkscape (http://www.inkscape.org/) -->

<svg
   version="1.1"
   id="svg1"
   width="600.32001"
   height="716.77332"
   viewBox="0 0 600.32001 716.77332"
   sodipodi:docname="WhiteLead6.pdf"
   xmlns:inkscape="http://www.inkscape.org/namespaces/inkscape"
   xmlns:sodipodi="http://sodipodi.sourceforge.net/DTD/sodipodi-0.dtd"
   xmlns="http://www.w3.org/2000/svg"
   xmlns:svg="http://www.w3.org/2000/svg">
  <defs
     id="defs1">
    <clipPath
       clipPathUnits="userSpaceOnUse"
       id="clipPath2">
      <path
         d="M 0,0.16 V 1122.5601 H 793.59998 V 0.16 Z"
         transform="translate(-387.35998,-419.67999)"
         clip-rule="evenodd"
         id="path2" />
    </clipPath>
    <clipPath
       clipPathUnits="userSpaceOnUse"
       id="clipPath4">
      <path
         d="M 0,0.16 V 1122.5601 H 793.59998 V 0.16 Z"
         transform="translate(-576.15997,-419.67999)"
         clip-rule="evenodd"
         id="path4" />
    </clipPath>
    <clipPath
       clipPathUnits="userSpaceOnUse"
       id="clipPath6">
      <path
         d="M 0,0.16 V 1122.5601 H 793.59998 V 0.16 Z"
         transform="translate(-3.3333333e-6)"
         clip-rule="evenodd"
         id="path6" />
    </clipPath>
    <clipPath
       clipPathUnits="userSpaceOnUse"
       id="clipPath8">
      <path
         d="M 0,0.16 V 1122.5601 H 793.59998 V 0.16 Z"
         transform="translate(-3.3333333e-6)"
         clip-rule="evenodd"
         id="path8" />
    </clipPath>
    <clipPath
       clipPathUnits="userSpaceOnUse"
       id="clipPath10">
      <path
         d="M 0,0.16 V 1122.5601 H 793.59998 V 0.16 Z"
         transform="translate(-3.3333333e-6)"
         clip-rule="evenodd"
         id="path10" />
    </clipPath>
    <clipPath
       clipPathUnits="userSpaceOnUse"
       id="clipPath12">
      <path
         d="M 0,0.16 V 1122.5601 H 793.59998 V 0.16 Z"
         transform="translate(-576.15997,-797.28003)"
         clip-rule="evenodd"
         id="path12" />
    </clipPath>
    <clipPath
       clipPathUnits="userSpaceOnUse"
       id="clipPath14">
      <path
         d="M 0,0.16 V 1122.5601 H 793.59998 V 0.16 Z"
         transform="translate(-3.3333333e-6)"
         clip-rule="evenodd"
         id="path14" />
    </clipPath>
    <clipPath
       clipPathUnits="userSpaceOnUse"
       id="clipPath16">
      <path
         d="M 0,0.16 V 1122.5601 H 793.59998 V 0.16 Z"
         transform="translate(-3.3333333e-6)"
         clip-rule="evenodd"
         id="path16" />
    </clipPath>
    <clipPath
       clipPathUnits="userSpaceOnUse"
       id="clipPath18">
      <path
         d="M 0,0.16 V 1122.5601 H 793.59998 V 0.16 Z"
         transform="translate(-198.56,-325.28)"
         clip-rule="evenodd"
         id="path18" />
    </clipPath>
  </defs>
  <sodipodi:namedview
     id="namedview1"
     pagecolor="#505050"
     bordercolor="#eeeeee"
     borderopacity="1"
     inkscape:showpageshadow="0"
     inkscape:pageopacity="0"
     inkscape:pagecheckerboard="0"
     inkscape:deskcolor="#505050">
    <inkscape:page
       x="0"
       y="0"
       inkscape:label="1"
       id="page1"
       width="600.32001"
       height="716.77332"
       margin="0"
       bleed="0" />
  </sodipodi:namedview>
  <g
     id="g1"
     inkscape:groupmode="layer"
     inkscape:label="1">
    <path
       id="path1"
       d="m 0,0 -0.16,-6.08 -0.64,-6.24 -0.96,-6.08 -1.44,-6.08 -1.76,-5.76 -2.24,-5.92 -2.56,-5.599998 -2.88,-5.440003 -3.2,-5.279999 -3.68,-4.959999 -3.840001,-4.800003 -4.159999,-4.479999 -4.64,-4.159996 -4.639999,-4 -5.119999,-3.520005 -5.280003,-3.36 -5.439998,-2.879997 -5.600003,-2.559998 L -64,-89.279999 -69.919998,-91.199997 -76,-92.480003 l -6.080002,-1.119995 -6.080002,-0.64 -6.239998,-0.160004 -6.079998,0.160004 -6.24,0.64 -6.08,1.119995 -5.92,1.280006 -5.92,1.919998 -5.75999,2.080002 -5.76001,2.559998 -5.44001,2.879997 -5.11999,3.36 -5.12,3.520005 -4.8,4 -4.47999,4.159996 -4.16001,4.479999 -4,4.800003 -3.52,4.959999 -3.36,5.279999 -2.87999,5.440003 -2.56002,5.599998 -2.07998,5.92 -1.92002,5.76 -1.27999,6.08 -1.12,6.08 -0.48,6.24 -0.32,6.08"
       style="fill:none;stroke:#000000;stroke-width:26.4;stroke-linecap:round;stroke-linejoin:round;stroke-miterlimit:10;stroke-dasharray:none;stroke-opacity:1"
       transform="translate(283.30665,218.11993)"
       clip-path="url(#clipPath2)" />
    <path
       id="path3"
       d="m 0,0 -0.16,-6.08 -0.64,-6.24 -0.96,-6.08 -1.44,-6.08 -1.76,-5.76 -2.24,-5.92 -2.56,-5.599998 -2.88,-5.440003 -3.2,-5.279999 -3.68,-4.959999 -3.840001,-4.800003 -4.319999,-4.479999 -4.48,-4.159996 -4.799999,-4 -4.959999,-3.520005 -5.280003,-3.36 -5.439998,-2.879997 -5.600003,-2.559998 L -64,-89.279999 -69.919998,-91.199997 -76,-92.480003 l -6.080002,-1.119995 -6.080002,-0.64 -6.239998,-0.160004 -6.079998,0.160004 -6.24,0.64 -6.08,1.119995 -5.92,1.280006 -5.92,1.919998 -5.75999,2.080002 -5.76001,2.559998 -5.44001,2.879997 -5.11999,3.36 -5.12,3.520005 -4.8,4 -4.47999,4.159996 -4.16001,4.479999 -4,4.800003 -3.52,4.959999 -3.36,5.279999 -2.87999,5.440003 -2.56002,5.599998 -2.07998,5.92 -1.92002,5.76 -1.27999,6.08 -1.12,6.08 -0.48,6.24 -0.32,6.08"
       style="fill:none;stroke:#000000;stroke-width:26.4;stroke-linecap:round;stroke-linejoin:round;stroke-miterlimit:10;stroke-dasharray:none;stroke-opacity:1"
       transform="translate(472.10664,218.11993)"
       clip-path="url(#clipPath4)" />
    <path
       id="path5"
       d="M 198.56,325.28 V 797.28003"
       style="fill:none;stroke:#000000;stroke-width:26.4;stroke-linecap:round;stroke-linejoin:round;stroke-miterlimit:10;stroke-dasharray:none;stroke-opacity:1"
       transform="translate(-104.05333,-201.56006)"
       clip-path="url(#clipPath6)" />
    <path
       id="path7"
       d="M 387.35999,230.88 V 797.28003"
       style="fill:none;stroke:#000000;stroke-width:26.4;stroke-linecap:round;stroke-linejoin:round;stroke-miterlimit:10;stroke-dasharray:none;stroke-opacity:1"
       transform="translate(-104.05333,-201.56006)"
       clip-path="url(#clipPath8)" />
    <path
       id="path9"
       d="M 576.15997,419.67999 V 797.28003"
       style="fill:none;stroke:#000000;stroke-width:26.4;stroke-linecap:round;stroke-linejoin:round;stroke-miterlimit:10;stroke-dasharray:none;stroke-opacity:1"
       transform="translate(-104.05333,-201.56006)"
       clip-path="url(#clipPath10)" />
    <path
       id="path11"
       d="m 0,0 0.32,6.24 0.48,6.08 1.12,6.08 1.28,6.08 1.92,5.92 2.08,5.76 2.56,5.599998 2.88,5.440003 L 16,52.48 l 3.52,4.959999 4,4.800003 4.16,4.479999 4.48,4.32 4.799999,3.839996 4.959999,3.680001 5.280003,3.200004 5.439998,2.879997 5.600003,2.559998 5.920002,2.240005 5.919998,1.759995 L 76,92.639999 l 6.080002,0.959999 6.239998,0.64 6.080002,0.160004"
       style="fill:none;stroke:#000000;stroke-width:26.4;stroke-linecap:round;stroke-linejoin:round;stroke-miterlimit:10;stroke-dasharray:none;stroke-opacity:1"
       transform="translate(472.10664,595.71997)"
       clip-path="url(#clipPath12)" />
    <path
       id="path13"
       d="M 481.76001,797.28003 H 670.56"
       style="fill:none;stroke:#000000;stroke-width:26.4;stroke-linecap:round;stroke-linejoin:round;stroke-miterlimit:10;stroke-dasharray:none;stroke-opacity:1"
       transform="translate(-104.05333,-201.56006)"
       clip-path="url(#clipPath14)" />
    <path
       id="path15"
       d="M 292.95999,268.64001 H 481.76001"
       style="fill:none;stroke:#000000;stroke-width:26.4;stroke-linecap:round;stroke-linejoin:round;stroke-miterlimit:10;stroke-dasharray:none;stroke-opacity:1"
       transform="translate(-104.05333,-201.56006)"
       clip-path="url(#clipPath16)" />
    <path
       id="path17"
       d="m 0,0 -0.16,-3.52 -0.48,-3.36 -0.8,-3.36 -1.12,-3.36 -1.28,-3.199999 L -5.6,-19.84 -7.52,-22.719999 -9.76,-25.440001 -12.32,-27.84 -14.88,-30.08 -17.76,-32 -20.799999,-33.759998 -24,-35.200001 -27.360001,-36.32 l -3.359998,-0.799999 -3.520003,-0.479999 -3.519996,-0.16 -3.360001,0.16 -3.52,0.479999 L -48,-36.32 l -3.360001,1.119999 -3.2,1.440003 L -57.599998,-32 -60.48,-30.08 l -2.720001,2.24 -2.399997,2.399999 -2.239998,2.720002 -1.920006,2.879999 -1.759995,3.040001 -1.440002,3.199999 -1.120003,3.36 -0.799995,3.36 -0.480004,3.36 -0.159996,3.52"
       style="fill:none;stroke:#000000;stroke-width:26.4;stroke-linecap:round;stroke-linejoin:round;stroke-miterlimit:10;stroke-dasharray:none;stroke-opacity:1"
       transform="translate(94.506665,123.71994)"
       clip-path="url(#clipPath18)" />
  </g>
</svg>
