<?xml version="1.0" encoding="UTF-8" standalone="no"?>
<!-- Created with Inkscape (http://www.inkscape.org/) -->

<svg
   version="1.1"
   id="svg1"
   width="488.26666"
   height="393.76001"
   viewBox="0 0 488.26666 393.76001"
   sodipodi:docname="ZincSulphate22.pdf"
   xmlns:inkscape="http://www.inkscape.org/namespaces/inkscape"
   xmlns:sodipodi="http://sodipodi.sourceforge.net/DTD/sodipodi-0.dtd"
   xmlns="http://www.w3.org/2000/svg"
   xmlns:svg="http://www.w3.org/2000/svg">
  <defs
     id="defs1">
    <clipPath
       clipPathUnits="userSpaceOnUse"
       id="clipPath2">
      <path
         d="M 0,0.16 V 1122.5601 H 793.59998 V 0.16 Z"
         transform="translate(-273.12,-424.16)"
         clip-rule="evenodd"
         id="path2" />
    </clipPath>
    <clipPath
       clipPathUnits="userSpaceOnUse"
       id="clipPath4">
      <path
         d="M 0,0.16 V 1122.5601 H 793.59998 V 0.16 Z"
         transform="translate(-543.20001,-534.71997)"
         clip-rule="evenodd"
         id="path4" />
    </clipPath>
    <clipPath
       clipPathUnits="userSpaceOnUse"
       id="clipPath6">
      <path
         d="M 0,0.16 V 1122.5601 H 793.59998 V 0.16 Z"
         transform="translate(-257.12,-638.56)"
         clip-rule="evenodd"
         id="path6" />
    </clipPath>
    <clipPath
       clipPathUnits="userSpaceOnUse"
       id="clipPath8">
      <path
         d="M 0,0.16 V 1122.5601 H 793.59998 V 0.16 Z"
         transform="translate(-543.20001,-534.71997)"
         clip-rule="evenodd"
         id="path8" />
    </clipPath>
  </defs>
  <sodipodi:namedview
     id="namedview1"
     pagecolor="#505050"
     bordercolor="#eeeeee"
     borderopacity="1"
     inkscape:showpageshadow="0"
     inkscape:pageopacity="0"
     inkscape:pagecheckerboard="0"
     inkscape:deskcolor="#505050">
    <inkscape:page
       x="0"
       y="0"
       inkscape:label="1"
       id="page1"
       width="488.26666"
       height="393.76001"
       margin="0"
       bleed="0" />
  </sodipodi:namedview>
  <g
     id="g1"
     inkscape:groupmode="layer"
     inkscape:label="1">
    <path
       id="path1"
       d="m 0,0 -7.52,4 -7.36,4 -7.04,4 -6.719999,4.16 -6.560002,4.16 -6.239998,4.319999 -5.760002,4.32 -5.599998,4.32 -5.119999,4.319999 -4.800003,4.480004 -4.479996,4.479999 -4,4.32 -3.68,4.32 -3.200005,4.479999 -2.879997,4.32 -2.400002,4.160004 -2.080001,4.319999 -1.599999,4.159996 -1.120003,4 -0.639999,4 -0.32,3.840004 L -88.959999,92.32 -88.32,96 l 1.120003,3.519997 1.439995,3.520003 1.920006,3.2 2.239998,3.2 2.720001,2.88 3.199997,2.88 3.68,2.56 3.839996,2.56 4.480004,2.24 4.639999,2.08 5.120003,1.92 5.439998,1.76001 5.759999,1.43998 6.080002,1.28 6.559999,1.12001 6.719999,0.95999 6.880001,0.64 7.36,0.48001 7.52,0.15999 h 7.68 l 8,-0.15999 8.16,-0.32 8.319999,-0.64 8.480002,-0.95999 L 47.52,131.36 l 8.8,-1.28 8.800003,-1.44 8.799995,-1.6 8.959999,-1.92 8.800003,-2.08 8.96,-2.24 8.96,-2.4 8.8,-2.56 8.8,-2.72 8.8,-3.04 8.64,-3.04 8.47999,-3.2 8.32001,-3.36 8.31999,-3.520001 8,-3.68 7.84002,-3.839997 7.51998,-3.840004 7.36001,-4 7.04,-4 6.87999,-4.159996 6.56002,-4.160003 6.23999,-4.32 5.91999,-4.32 L 238.56,56.32 243.84,52 l 4.8,-4.48 4.47999,-4.319999 4.16001,-4.48 3.67999,-4.319999 3.36002,-4.320002 2.88,-4.48 2.4,-4.159999 2.07998,-4.32 L 273.28,12.96 l 1.28,-4 0.79999,-4 0.32,-4 -0.16,-3.68 -0.63999,-3.68 -0.95999,-3.68 -1.44,-3.36 -1.76001,-3.359999 -2.23999,-3.040001 -2.72,-3.039999 L 262.56,-25.76 l -3.51999,-2.72 -3.84001,-2.399999 -4.32,-2.24 -4.64,-2.240002 -5.12001,-1.919998 -5.44,-1.760002 L 229.92,-40.48 l -6.08,-1.279998 -6.4,-1.120003 -6.56,-0.959999 -7.04,-0.799999 -7.2,-0.48 -7.52001,-0.16 -7.67999,-0.16 -8,0.16 -8,0.48 -8.32001,0.479999 -8.47999,0.8"
       style="fill:none;stroke:#000000;stroke-width:26.4;stroke-linecap:round;stroke-linejoin:round;stroke-miterlimit:10;stroke-dasharray:none;stroke-opacity:1"
       transform="translate(117.04,98.466612)"
       clip-path="url(#clipPath2)" />
    <path
       id="path3"
       d="m 0,0 -1.6,-5.12 -2.08,-4.96 -2.4,-4.8 -2.72,-4.64 -3.2,-4.32 -3.36,-4.32 -3.680001,-3.84 -3.839998,-3.68 -4.160002,-3.360001 -4.479999,-3.040001 -4.64,-2.879997 -4.799999,-2.400002 -4.959999,-2.079998 -5.120003,-1.600002 L -56.32,-52.48 l -5.279998,-0.959999 -5.279999,-0.479999 -5.440003,-0.320004 -5.279998,0.320004 -5.440003,0.479999 L -88.32,-52.48 l -5.120002,1.279999 -5.119996,1.760002 -4.960002,2.079998 -4.96,2.400002 -4.64,2.719997 -4.32,3.040001 -4.16,3.360001 -4,3.68 -3.68,3.84 -3.36,4.16 -3.2,4.48 -2.72,4.64 -2.40001,4.8 -2.07998,4.96 -1.76001,5.12 -1.28,5.12 -0.95999,5.28 -0.64,5.44 -0.32001,5.279999 0.16,5.440001 0.64,5.28 0.96,5.279999 1.27999,5.280003 1.60001,5.119999 2.08,4.959999 2.24001,4.799999"
       style="fill:none;stroke:#000000;stroke-width:26.4;stroke-linecap:round;stroke-linejoin:round;stroke-miterlimit:10;stroke-dasharray:none;stroke-opacity:1"
       transform="translate(387.12001,209.02658)"
       clip-path="url(#clipPath4)" />
    <path
       id="path5"
       d="m 0,0 1.76,5.12 2.08,5.12 2.4,4.96 2.88,4.64 3.04,4.48 3.36,4.319999 3.680001,4 4,3.680001 4.319999,3.52 4.48,3.040001 4.639999,2.879997 4.8,2.400002 5.120002,2.240002 L 51.68,52.16 l 5.279999,1.279999 5.440003,1.120002 5.439994,0.64 5.440003,0.16 h 5.440002 l 5.440003,-0.64 5.279998,-0.800003 5.439995,-1.279999 L 100,50.880001 l 5.12,-1.920002 4.96,-2.399998 4.64,-2.720001 4.64,-3.040001 4.32,-3.36 4,-3.680001 3.84,-3.839998 3.51999,-4.16 3.20001,-4.479999 2.87999,-4.640002 2.56,-4.799999 2.08,-4.96 1.92,-5.28 1.44,-5.28 1.12001,-5.28 0.64,-5.44 0.48,-5.44 -0.16,-5.440001 -0.48,-5.439998 -0.8,-5.440001 -1.12,-5.279999 -1.76001,-5.280002"
       style="fill:none;stroke:#000000;stroke-width:26.4;stroke-linecap:round;stroke-linejoin:round;stroke-miterlimit:10;stroke-dasharray:none;stroke-opacity:1"
       transform="translate(101.04,312.86661)"
       clip-path="url(#clipPath6)" />
    <path
       id="path7"
       d="m 0,0 1.12,3.36 1.44,3.2 1.76,3.04 2.08,2.88 2.24,2.56 2.4,2.400001 L 13.76,19.68 16.639999,21.6 19.68,23.360001 22.879999,24.639999 26.24,25.76 l 3.36,0.799999 3.519999,0.480002 3.52,0.16 L 40,26.879999 43.52,26.4 l 3.360001,-0.8 3.360001,-1.12 3.199997,-1.439999 3.040001,-1.76 2.720001,-1.92 2.719997,-2.24 L 64.32,14.56 l 2.239998,-2.72 1.920005,-2.88 1.759995,-3.04 1.279999,-3.2 1.120002,-3.36 0.800003,-3.36 0.479996,-3.52 0.160004,-3.36 -0.32,-3.52 -0.480003,-3.52 -0.799996,-3.360001 -1.120002,-3.199999 -1.440003,-3.2 -1.759994,-3.039999 -1.920006,-2.879999 L 64,-36.32 61.439999,-38.720001 58.720001,-40.959999 55.84,-42.880001 52.799999,-44.48 49.599998,-45.919998 46.240002,-47.040001 42.880001,-47.84 l -3.52,-0.32 L 36,-48.32 32.48,-48.16 28.959999,-47.68 25.6,-46.880001"
       style="fill:none;stroke:#000000;stroke-width:26.4;stroke-linecap:round;stroke-linejoin:round;stroke-miterlimit:10;stroke-dasharray:none;stroke-opacity:1"
       transform="translate(387.12001,209.02658)"
       clip-path="url(#clipPath8)" />
  </g>
</svg>
