<?xml version="1.0" encoding="UTF-8" standalone="no"?>
<!-- Created with Inkscape (http://www.inkscape.org/) -->

<svg
   version="1.1"
   id="svg1"
   width="486.93332"
   height="315"
   viewBox="0 0 486.93332 315"
   sodipodi:docname="ZincSulphate23.pdf"
   xmlns:inkscape="http://www.inkscape.org/namespaces/inkscape"
   xmlns:sodipodi="http://sodipodi.sourceforge.net/DTD/sodipodi-0.dtd"
   xmlns="http://www.w3.org/2000/svg"
   xmlns:svg="http://www.w3.org/2000/svg">
  <defs
     id="defs1">
    <clipPath
       clipPathUnits="userSpaceOnUse"
       id="clipPath2">
      <path
         d="M 0,0.16 V 1122.5601 H 793.59998 V 0.16 Z"
         transform="translate(-614.55999,-574.56)"
         clip-rule="evenodd"
         id="path2" />
    </clipPath>
    <clipPath
       clipPathUnits="userSpaceOnUse"
       id="clipPath4">
      <path
         d="M 0,0.16 V 1122.5601 H 793.59998 V 0.16 Z"
         transform="translate(-3.3333333e-6)"
         clip-rule="evenodd"
         id="path4" />
    </clipPath>
    <clipPath
       clipPathUnits="userSpaceOnUse"
       id="clipPath6">
      <path
         d="M 0,0.16 V 1122.5601 H 793.59998 V 0.16 Z"
         transform="translate(-3.3333333e-6)"
         clip-rule="evenodd"
         id="path6" />
    </clipPath>
    <clipPath
       clipPathUnits="userSpaceOnUse"
       id="clipPath8">
      <path
         d="M 0,0.16 V 1122.5601 H 793.59998 V 0.16 Z"
         transform="translate(-179.84,-687.52002)"
         clip-rule="evenodd"
         id="path8" />
    </clipPath>
  </defs>
  <sodipodi:namedview
     id="namedview1"
     pagecolor="#505050"
     bordercolor="#eeeeee"
     borderopacity="1"
     inkscape:showpageshadow="0"
     inkscape:pageopacity="0"
     inkscape:pagecheckerboard="0"
     inkscape:deskcolor="#505050">
    <inkscape:page
       x="0"
       y="0"
       inkscape:label="1"
       id="page1"
       width="486.93332"
       height="315"
       margin="0"
       bleed="0" />
  </sodipodi:namedview>
  <g
     id="g1"
     inkscape:groupmode="layer"
     inkscape:label="1">
    <path
       id="path1"
       d="m 0,0 c 0,-70.860001 -57.450001,-128.32001 -128.32001,-128.32001 -70.86999,0 -128.32,57.460009 -128.32,128.32001 0,70.860001 57.45001,128.32001 128.32,128.32001 C -57.450001,128.32001 0,70.860001 0,0 Z"
       style="fill:none;stroke:#000000;stroke-width:26.4;stroke-linecap:round;stroke-linejoin:round;stroke-miterlimit:10;stroke-dasharray:none;stroke-opacity:1"
       transform="translate(461.14666,152.75994)"
       clip-path="url(#clipPath2)" />
    <path
       id="path3"
       d="M 598.56,638.71997 486.23999,510.39999"
       style="fill:none;stroke:#000000;stroke-width:26.4;stroke-linecap:round;stroke-linejoin:round;stroke-miterlimit:10;stroke-dasharray:none;stroke-opacity:1"
       transform="translate(-153.41333,-421.80006)"
       clip-path="url(#clipPath4)" />
    <path
       id="path5"
       d="M 486.23999,510.39999 373.92001,638.71997"
       style="fill:none;stroke:#000000;stroke-width:26.4;stroke-linecap:round;stroke-linejoin:round;stroke-miterlimit:10;stroke-dasharray:none;stroke-opacity:1"
       transform="translate(-153.41333,-421.80006)"
       clip-path="url(#clipPath6)" />
    <path
       id="path7"
       d="M 0,0 -0.48,3.2 -0.8,6.4 -0.48,9.28 0,12 l 0.96,2.4 1.28,2.239999 1.76,2.08 2.08,1.92 2.56,1.600001 2.72,1.28 3.2,1.119999 3.36,0.960001 3.84,0.64 4.16,0.319999 h 4.48 4.640001 L 40,26.08 45.119999,25.440001 50.560001,24.48 56.32,23.360001 62.080002,22.08 68.160004,20.32 74.239998,18.559999 80.639999,16.48 l 6.400002,-2.4 6.559997,-2.4 6.560002,-2.72 6.56,-3.04 6.72,-3.04 6.56,-3.2 6.72,-3.52 6.56,-3.52 6.56,-3.84 6.4,-3.84 6.24,-3.839999 6.24,-4.160002 6.08,-4.16 5.76,-4.16 5.76001,-4.319999 5.43998,-4.32 5.28,-4.32 4.80001,-4.479999"
       style="fill:none;stroke:#000000;stroke-width:26.4;stroke-linecap:round;stroke-linejoin:round;stroke-miterlimit:10;stroke-dasharray:none;stroke-opacity:1"
       transform="translate(26.426663,265.71996)"
       clip-path="url(#clipPath8)" />
  </g>
</svg>
