<?xml version="1.0" encoding="UTF-8" standalone="no"?>
<!-- Created with Inkscape (http://www.inkscape.org/) -->

<svg
   version="1.1"
   id="svg1"
   width="493.60001"
   height="475.18668"
   viewBox="0 0 493.60001 475.18668"
   sodipodi:docname="ZincSulphate21.pdf"
   xmlns:inkscape="http://www.inkscape.org/namespaces/inkscape"
   xmlns:sodipodi="http://sodipodi.sourceforge.net/DTD/sodipodi-0.dtd"
   xmlns="http://www.w3.org/2000/svg"
   xmlns:svg="http://www.w3.org/2000/svg">
  <defs
     id="defs1">
    <clipPath
       clipPathUnits="userSpaceOnUse"
       id="clipPath2">
      <path
         d="M 0,0.16 V 1122.5601 H 793.59998 V 0.16 Z"
         transform="translate(-280.16,-738.79999)"
         clip-rule="evenodd"
         id="path2" />
    </clipPath>
    <clipPath
       clipPathUnits="userSpaceOnUse"
       id="clipPath4">
      <path
         d="M 0,0.16 V 1122.5601 H 793.59998 V 0.16 Z"
         transform="translate(-3.3333333e-6)"
         clip-rule="evenodd"
         id="path4" />
    </clipPath>
    <clipPath
       clipPathUnits="userSpaceOnUse"
       id="clipPath6">
      <path
         d="M 0,0.16 V 1122.5601 H 793.59998 V 0.16 Z"
         transform="translate(-491.51999,-474.4)"
         clip-rule="evenodd"
         id="path6" />
    </clipPath>
    <clipPath
       clipPathUnits="userSpaceOnUse"
       id="clipPath8">
      <path
         d="M 0,0.16 V 1122.5601 H 793.59998 V 0.16 Z"
         transform="translate(-557.76001,-421.60001)"
         clip-rule="evenodd"
         id="path8" />
    </clipPath>
    <clipPath
       clipPathUnits="userSpaceOnUse"
       id="clipPath10">
      <path
         d="M 0,0.16 V 1122.5601 H 793.59998 V 0.16 Z"
         transform="translate(-557.76001,-421.60001)"
         clip-rule="evenodd"
         id="path10" />
    </clipPath>
  </defs>
  <sodipodi:namedview
     id="namedview1"
     pagecolor="#505050"
     bordercolor="#eeeeee"
     borderopacity="1"
     inkscape:showpageshadow="0"
     inkscape:pageopacity="0"
     inkscape:pagecheckerboard="0"
     inkscape:deskcolor="#505050">
    <inkscape:page
       x="0"
       y="0"
       inkscape:label="1"
       id="page1"
       width="493.60001"
       height="475.18668"
       margin="0"
       bleed="0" />
  </sodipodi:namedview>
  <g
     id="g1"
     inkscape:groupmode="layer"
     inkscape:label="1">
    <path
       id="path1"
       d="m 0,0 c 0,-29.200001 -23.67,-52.880001 -52.880001,-52.880001 -29.209995,0 -52.879999,23.68 -52.879999,52.880001 0,29.200001 23.670004,52.880001 52.879999,52.880001 C -23.67,52.880001 0,29.200001 0,0 Z"
       style="fill:none;stroke:#000000;stroke-width:26.4;stroke-linecap:round;stroke-linejoin:round;stroke-miterlimit:10;stroke-dasharray:none;stroke-opacity:1"
       transform="translate(130.74667,399.75993)"
       clip-path="url(#clipPath2)" />
    <path
       id="path3"
       d="M 266.72,703.84003 491.67999,474.39999"
       style="fill:none;stroke:#000000;stroke-width:26.4;stroke-linecap:round;stroke-linejoin:round;stroke-miterlimit:10;stroke-dasharray:none;stroke-opacity:1"
       transform="translate(-149.41333,-339.04006)"
       clip-path="url(#clipPath4)" />
    <path
       id="path5"
       d="m 0,0 4,3.68 4.16,3.36 4.32,3.04 4.640001,2.72 L 21.92,15.2 26.879999,17.280001 31.84,18.879999 37.119999,20.32 42.400002,21.120001 47.68,21.76 52.959999,21.92 58.240002,21.76 63.68,21.120001 68.800003,20.32 74.080002,18.879999 79.040001,17.280001 84,15.2 l 4.800003,-2.4 4.639999,-2.72 4.32,-3.04 L 101.92,3.68 105.76,0 l 3.68,-3.84 3.36,-4.16 3.04,-4.32 2.72,-4.639999 2.4,-4.800001 2.08,-4.959999 1.6,-4.960001 1.44,-5.279999 0.8,-5.280003 0.64,-5.279998 0.16,-5.279999 -0.16,-5.280003 -0.64,-5.439998 -0.8,-5.119999 -1.44,-5.279999 -1.6,-4.959999 -2.08,-4.959999 -2.4,-4.800003 -2.72,-4.64 -3.04,-4.319999 -3.36,-4.160002 -3.68,-4"
       style="fill:none;stroke:#000000;stroke-width:26.4;stroke-linecap:round;stroke-linejoin:round;stroke-miterlimit:10;stroke-dasharray:none;stroke-opacity:1"
       transform="translate(342.10666,135.35994)"
       clip-path="url(#clipPath6)" />
    <path
       id="path7"
       d="M 0,0 -0.16,-1.76 -0.48,-3.36 -1.12,-5.12 -1.76,-6.56 -2.72,-8 -4,-9.28 l -1.28,-1.28 -1.44,-0.96 -1.44,-0.64 -1.76,-0.64 -1.6,-0.32 -1.76,-0.16 -1.76,0.16 -1.599999,0.32 -1.760001,0.64 -1.44,0.64 -1.440001,0.96 -1.279998,1.28 L -23.84,-8 -24.799999,-6.56 -25.440001,-5.12 -26.08,-3.36 -26.4,-1.76 -26.559999,0 -26.4,1.76 l 0.32,1.6 0.639999,1.76 0.640002,1.44 L -23.84,8 l 1.280001,1.28 1.279998,1.28 1.440001,0.96 1.44,0.64 1.760001,0.64 1.599999,0.32 1.76,0.16 1.76,-0.16 1.6,-0.32 1.76,-0.64 1.44,-0.64 1.44,-0.96 L -4,9.28 -2.72,8 -1.76,6.56 -1.12,5.12 -0.48,3.36 -0.16,1.76 0,0 v 0 z"
       style="fill:#000000;fill-opacity:1;fill-rule:evenodd;stroke:none"
       transform="translate(408.34668,82.559947)"
       clip-path="url(#clipPath8)" />
    <path
       id="path9"
       d="M 0,0 -0.16,-1.76 -0.48,-3.36 -1.12,-5.12 -1.76,-6.56 -2.72,-8 -4,-9.28 l -1.28,-1.28 -1.44,-0.96 -1.44,-0.64 -1.76,-0.64 -1.6,-0.32 -1.76,-0.16 -1.76,0.16 -1.599999,0.32 -1.760001,0.64 -1.44,0.64 -1.440001,0.96 -1.279998,1.28 L -23.84,-8 -24.799999,-6.56 -25.440001,-5.12 -26.08,-3.36 -26.4,-1.76 -26.559999,0 -26.4,1.76 l 0.32,1.6 0.639999,1.76 0.640002,1.44 L -23.84,8 l 1.280001,1.28 1.279998,1.28 1.440001,0.96 1.44,0.64 1.760001,0.64 1.599999,0.32 1.76,0.16 1.76,-0.16 1.6,-0.32 1.76,-0.64 1.44,-0.64 1.44,-0.96 L -4,9.28 -2.72,8 -1.76,6.56 -1.12,5.12 -0.48,3.36 -0.16,1.76 0,0"
       style="fill:none;stroke:#000000;stroke-width:0.48;stroke-linecap:round;stroke-linejoin:round;stroke-miterlimit:10;stroke-dasharray:none;stroke-opacity:1"
       transform="translate(408.34668,82.559947)"
       clip-path="url(#clipPath10)" />
  </g>
</svg>
