<?xml version="1.0" encoding="UTF-8" standalone="no"?>
<!-- Created with Inkscape (http://www.inkscape.org/) -->

<svg
   version="1.1"
   id="svg1"
   width="501.60001"
   height="371.07999"
   viewBox="0 0 501.60001 371.07999"
   sodipodi:docname="ZincSulphate16.pdf"
   xmlns:inkscape="http://www.inkscape.org/namespaces/inkscape"
   xmlns:sodipodi="http://sodipodi.sourceforge.net/DTD/sodipodi-0.dtd"
   xmlns="http://www.w3.org/2000/svg"
   xmlns:svg="http://www.w3.org/2000/svg">
  <defs
     id="defs1">
    <clipPath
       clipPathUnits="userSpaceOnUse"
       id="clipPath2">
      <path
         d="M 0,0.16 V 1122.5601 H 793.59998 V 0.16 Z"
         transform="translate(-623.35998,-572.79999)"
         clip-rule="evenodd"
         id="path2" />
    </clipPath>
    <clipPath
       clipPathUnits="userSpaceOnUse"
       id="clipPath4">
      <path
         d="M 0,0.16 V 1122.5601 H 793.59998 V 0.16 Z"
         transform="translate(-3.3333333e-6)"
         clip-rule="evenodd"
         id="path4" />
    </clipPath>
    <clipPath
       clipPathUnits="userSpaceOnUse"
       id="clipPath6">
      <path
         d="M 0,0.16 V 1122.5601 H 793.59998 V 0.16 Z"
         transform="translate(-170.24001,-723.84003)"
         clip-rule="evenodd"
         id="path6" />
    </clipPath>
  </defs>
  <sodipodi:namedview
     id="namedview1"
     pagecolor="#505050"
     bordercolor="#eeeeee"
     borderopacity="1"
     inkscape:showpageshadow="0"
     inkscape:pageopacity="0"
     inkscape:pagecheckerboard="0"
     inkscape:deskcolor="#505050">
    <inkscape:page
       x="0"
       y="0"
       inkscape:label="1"
       id="page1"
       width="501.60001"
       height="371.07999"
       margin="0"
       bleed="0" />
  </sodipodi:namedview>
  <g
     id="g1"
     inkscape:groupmode="layer"
     inkscape:label="1">
    <path
       id="path1"
       d="m 0,0 c 0,-83.410004 -67.620003,-151.03999 -151.03999,-151.03999 -83.42002,0 -151.04,67.629986 -151.04,151.03999 0,83.410004 67.61998,151.03999 151.04,151.03999 C -67.620003,151.03999 0,83.410004 0,0 Z"
       style="fill:none;stroke:#000000;stroke-width:26.4;stroke-linecap:round;stroke-linejoin:round;stroke-miterlimit:10;stroke-dasharray:none;stroke-opacity:1"
       transform="translate(473.94665,179.03993)"
       clip-path="url(#clipPath2)" />
    <path
       id="path3"
       d="M 595.35998,649.28003 340.16,648.32001"
       style="fill:none;stroke:#000000;stroke-width:26.4;stroke-linecap:round;stroke-linejoin:round;stroke-miterlimit:10;stroke-dasharray:none;stroke-opacity:1"
       transform="translate(-149.41333,-393.76006)"
       clip-path="url(#clipPath4)" />
    <path
       id="path5"
       d="m 0,0 6.24,3.2 6.4,2.88 6.400001,2.4 6.719999,2.08 6.72,1.6 6.880001,1.28 6.880001,0.8 6.879997,0.48 H 60.16 l 6.880001,-0.48 6.879997,-0.8 6.880005,-1.28 6.719994,-1.6 6.720001,-2.08 6.400002,-2.4 6.4,-2.88 6.24,-3.2 5.92,-3.52 5.76,-3.84 5.43999,-4.32 5.28,-4.48 4.96001,-4.960001 4.64,-5.119999 4.32001,-5.44 4,-5.759999 3.67999,-5.920002 3.36,-6.079998 2.88,-6.240001 2.56,-6.560002 2.08,-6.560001 1.76,-6.719994"
       style="fill:none;stroke:#000000;stroke-width:26.4;stroke-linecap:round;stroke-linejoin:round;stroke-miterlimit:10;stroke-dasharray:none;stroke-opacity:1"
       transform="translate(20.826672,330.07997)"
       clip-path="url(#clipPath6)" />
  </g>
</svg>
