<?xml version="1.0" encoding="UTF-8" standalone="no"?>
<!-- Created with Inkscape (http://www.inkscape.org/) -->

<svg
   version="1.1"
   id="svg1"
   width="506.93332"
   height="396.44"
   viewBox="0 0 506.93332 396.44"
   sodipodi:docname="ZincSulphate27.pdf"
   xmlns:inkscape="http://www.inkscape.org/namespaces/inkscape"
   xmlns:sodipodi="http://sodipodi.sourceforge.net/DTD/sodipodi-0.dtd"
   xmlns="http://www.w3.org/2000/svg"
   xmlns:svg="http://www.w3.org/2000/svg">
  <defs
     id="defs1">
    <clipPath
       clipPathUnits="userSpaceOnUse"
       id="clipPath2">
      <path
         d="M 0,0.16 V 1122.5601 H 793.59998 V 0.16 Z"
         transform="translate(-496,-506.72001)"
         clip-rule="evenodd"
         id="path2" />
    </clipPath>
    <clipPath
       clipPathUnits="userSpaceOnUse"
       id="clipPath4">
      <path
         d="M 0,0.16 V 1122.5601 H 793.59998 V 0.16 Z"
         transform="translate(-198.88,-656.64002)"
         clip-rule="evenodd"
         id="path4" />
    </clipPath>
    <clipPath
       clipPathUnits="userSpaceOnUse"
       id="clipPath6">
      <path
         d="M 0,0.16 V 1122.5601 H 793.59998 V 0.16 Z"
         transform="translate(3.3333333e-6)"
         clip-rule="evenodd"
         id="path6" />
    </clipPath>
    <clipPath
       clipPathUnits="userSpaceOnUse"
       id="clipPath8">
      <path
         d="M 0,0.16 V 1122.5601 H 793.59998 V 0.16 Z"
         transform="translate(3.3333333e-6)"
         clip-rule="evenodd"
         id="path8" />
    </clipPath>
    <clipPath
       clipPathUnits="userSpaceOnUse"
       id="clipPath10">
      <path
         d="M 0,0.16 V 1122.5601 H 793.59998 V 0.16 Z"
         transform="translate(-526.23999,-724.64002)"
         clip-rule="evenodd"
         id="path10" />
    </clipPath>
    <clipPath
       clipPathUnits="userSpaceOnUse"
       id="clipPath12">
      <path
         d="M 0,0.16 V 1122.5601 H 793.59998 V 0.16 Z"
         transform="translate(-366.4,-432.48001)"
         clip-rule="evenodd"
         id="path12" />
    </clipPath>
    <clipPath
       clipPathUnits="userSpaceOnUse"
       id="clipPath14">
      <path
         d="M 0,0.16 V 1122.5601 H 793.59998 V 0.16 Z"
         transform="translate(3.3333333e-6)"
         clip-rule="evenodd"
         id="path14" />
    </clipPath>
  </defs>
  <sodipodi:namedview
     id="namedview1"
     pagecolor="#505050"
     bordercolor="#eeeeee"
     borderopacity="1"
     inkscape:showpageshadow="0"
     inkscape:pageopacity="0"
     inkscape:pagecheckerboard="0"
     inkscape:deskcolor="#505050">
    <inkscape:page
       x="0"
       y="0"
       inkscape:label="1"
       id="page1"
       width="506.93332"
       height="396.44"
       margin="0"
       bleed="0" />
  </sodipodi:namedview>
  <g
     id="g1"
     inkscape:groupmode="layer"
     inkscape:label="1">
    <path
       id="path1"
       d="m 0,0 3.68,-2.08 3.52,-2.4 3.36,-2.72 3.04,-2.88 2.88,-3.2 2.560001,-3.519999 2.24,-3.680001 2.08,-3.84 1.599998,-4 1.440001,-4 0.960001,-4.319999 0.639999,-4.32 0.32,-4.32 v -4.319999 l -0.32,-4.32 -0.639999,-4.320004 -1.120001,-4.16 -1.440001,-4.159996 -1.599998,-4 -2.08,-3.68 -2.240002,-3.68 -2.559999,-3.520004 -2.88,-3.199997 -3.2,-2.879998 -3.2,-2.720001 -3.68,-2.400001 -3.68,-2.080002 -3.84,-1.760002 -4,-1.279999 -4,-1.119995 -4.16,-0.800003 -4.319999,-0.32 h -4.16 l -4.16,0.32 -4.16,0.639999 -4.16,1.120003 -4,1.439995 -3.84,1.600006 -3.68,2.079994 -3.520001,2.400001 -3.36,2.560006 -3.200001,3.039993 -2.879997,3.200005 -2.560002,3.36 -2.400001,3.519997 -2.080002,3.840004"
       style="fill:none;stroke:#000000;stroke-width:26.4;stroke-linecap:round;stroke-linejoin:round;stroke-miterlimit:10;stroke-dasharray:none;stroke-opacity:1"
       transform="translate(353.25333,124.97328)"
       clip-path="url(#clipPath2)" />
    <path
       id="path3"
       d="m 0,0 -3.68,2.08 -3.52,2.4 -3.36,2.72 -3.04,3.04 -2.88,3.2 -2.560001,3.359999 -2.4,3.680001 -1.92,3.84 -1.76,4 -1.279999,4 -1.12,4.319999 -0.64,4.32 -0.32,4.32 v 4.319999 l 0.32,4.32 0.64,4.320004 0.960001,4.16 1.439998,4.159996 1.600001,4 2.079999,3.840004 2.24,3.68 2.560002,3.36 2.879999,3.199997 3.04,3.040001 3.36,2.559998 3.52,2.400001 3.68,2.239998 3.84,1.760002 4,1.440003 4.16,1.119995 4.16,0.639999 4.16,0.480004 h 4.16 l 4.319999,-0.32 4.16,-0.639999 4,-1.120003 4,-1.279999 4,-1.760002 L 48.48,93.120003 52,90.879997 l 3.360001,-2.719993 3.2,-2.880005 2.879998,-3.199997 L 64,78.720001 l 2.400002,-3.520004 1.919998,-4"
       style="fill:none;stroke:#000000;stroke-width:26.4;stroke-linecap:round;stroke-linejoin:round;stroke-miterlimit:10;stroke-dasharray:none;stroke-opacity:1"
       transform="translate(56.133338,274.89329)"
       clip-path="url(#clipPath4)" />
    <path
       id="path5"
       d="M 427.20001,435.84 267.35999,728"
       style="fill:none;stroke:#000000;stroke-width:26.4;stroke-linecap:round;stroke-linejoin:round;stroke-miterlimit:10;stroke-dasharray:none;stroke-opacity:1"
       transform="translate(-142.74667,-381.74673)"
       clip-path="url(#clipPath6)" />
    <path
       id="path7"
       d="m 366.39999,432.64001 160.00003,292"
       style="fill:none;stroke:#000000;stroke-width:26.4;stroke-linecap:round;stroke-linejoin:round;stroke-miterlimit:10;stroke-dasharray:none;stroke-opacity:1"
       transform="translate(-142.74667,-381.74673)"
       clip-path="url(#clipPath8)" />
    <path
       id="path9"
       d="m 0,0 2.24,3.84 2.24,3.68 2.72,3.36 2.88,3.2 3.04,2.879999 3.36,2.560001 3.68,2.4 3.68,2.08 3.84,1.6 4,1.440001 L 35.84,28 40,28.639999 l 4.16,0.32 h 4.32 l 4.159999,-0.32 4.16,-0.799999 4,-1.120001 4.000004,-1.439998 L 68.639999,23.52 72.32,21.440001 l 3.519996,-2.4 L 79.199997,16.32 82.239998,13.44 85.120003,10.24 87.68,6.72 90.080002,3.04 92,-0.8 l 1.760002,-4 1.279999,-4 1.120003,-4.32 0.639999,-4.320001 0.32,-4.319999 v -4.32 l -0.32,-4.32 L 96,-34.720001 l -0.959999,-4.16 -1.440003,-4.16 -1.599998,-4 -2.080002,-3.84 L 87.68,-54.400002 85.120003,-57.919998 82.239998,-61.119999 79.199997,-64 75.839996,-66.720001 72.32,-69.120003 68.480003,-71.199997"
       style="fill:none;stroke:#000000;stroke-width:26.4;stroke-linecap:round;stroke-linejoin:round;stroke-miterlimit:10;stroke-dasharray:none;stroke-opacity:1"
       transform="translate(383.49332,342.89329)"
       clip-path="url(#clipPath10)" />
    <path
       id="path11"
       d="m 0,0 -1.92,-3.68 -2.4,-3.68 -2.56,-3.36 -2.88,-3.2 -3.2,-2.879999 -3.36,-2.720001 -3.52,-2.24 -3.68,-2.08 -4,-1.76 -4,-1.440001 -4,-0.959999 -4.16,-0.639999 -4.16,-0.480002 h -4.32 l -4.16,0.480002 -4.16,0.639999 -4.159999,1.120001 -4,1.439998 -3.840004,1.760001 -3.680001,2.08 -3.519996,2.399999 -3.360001,2.720001 -3.040001,2.88 -2.879997,3.2 -2.559998,3.36 -2.400001,3.68 -1.919998,3.84 -1.760002,4 -1.279999,4.16 L -96,12.8 l -0.639999,4.320001 -0.480004,4.32 V 25.76 l 0.32,4.32 0.800003,4.320002 0.959999,4.159999 1.279999,4.16 1.760002,4 1.919998,3.84 2.240006,3.680001 2.719993,3.359996 2.720001,3.200001 L -79.199997,63.84 -76,66.559998 l 3.519997,2.400001 3.68,2.080002"
       style="fill:none;stroke:#000000;stroke-width:26.4;stroke-linecap:round;stroke-linejoin:round;stroke-miterlimit:10;stroke-dasharray:none;stroke-opacity:1"
       transform="translate(223.65333,50.733286)"
       clip-path="url(#clipPath12)" />
    <path
       id="path13"
       d="m 320.64001,646.88 153.43998,0.96003"
       style="fill:none;stroke:#000000;stroke-width:26.4;stroke-linecap:round;stroke-linejoin:round;stroke-miterlimit:10;stroke-dasharray:none;stroke-opacity:1"
       transform="translate(-142.74667,-381.74673)"
       clip-path="url(#clipPath14)" />
  </g>
</svg>
