<?xml version="1.0" encoding="UTF-8" standalone="no"?>
<!-- Created with Inkscape (http://www.inkscape.org/) -->

<svg
   version="1.1"
   id="svg1"
   width="329.50668"
   height="276.29333"
   viewBox="0 0 329.50668 276.29333"
   sodipodi:docname="Drachma7.pdf"
   xmlns:inkscape="http://www.inkscape.org/namespaces/inkscape"
   xmlns:sodipodi="http://sodipodi.sourceforge.net/DTD/sodipodi-0.dtd"
   xmlns="http://www.w3.org/2000/svg"
   xmlns:svg="http://www.w3.org/2000/svg">
  <defs
     id="defs1">
    <clipPath
       clipPathUnits="userSpaceOnUse"
       id="clipPath2">
      <path
         d="M 0,0.16 V 1122.5601 H 793.59998 V 0.16 Z"
         transform="translate(-299.51999,-525.91998)"
         clip-rule="evenodd"
         id="path2" />
    </clipPath>
    <clipPath
       clipPathUnits="userSpaceOnUse"
       id="clipPath4">
      <path
         d="M 0,0.16 V 1122.5601 H 793.59998 V 0.16 Z"
         transform="translate(-314.39999,-574.88)"
         clip-rule="evenodd"
         id="path4" />
    </clipPath>
    <clipPath
       clipPathUnits="userSpaceOnUse"
       id="clipPath6">
      <path
         d="M 0,0.16 V 1122.5601 H 793.59998 V 0.16 Z"
         transform="translate(-314.39999,-574.88)"
         clip-rule="evenodd"
         id="path6" />
    </clipPath>
    <clipPath
       clipPathUnits="userSpaceOnUse"
       id="clipPath8">
      <path
         d="M 0,0.16 V 1122.5601 H 793.59998 V 0.16 Z"
         transform="translate(-356.16,-676.96002)"
         clip-rule="evenodd"
         id="path8" />
    </clipPath>
    <clipPath
       clipPathUnits="userSpaceOnUse"
       id="clipPath10">
      <path
         d="M 0,0.16 V 1122.5601 H 793.59998 V 0.16 Z"
         transform="translate(-356.16,-676.96002)"
         clip-rule="evenodd"
         id="path10" />
    </clipPath>
  </defs>
  <sodipodi:namedview
     id="namedview1"
     pagecolor="#505050"
     bordercolor="#eeeeee"
     borderopacity="1"
     inkscape:showpageshadow="0"
     inkscape:pageopacity="0"
     inkscape:pagecheckerboard="0"
     inkscape:deskcolor="#505050">
    <inkscape:page
       x="0"
       y="0"
       inkscape:label="1"
       id="page1"
       width="329.50668"
       height="276.29333"
       margin="0"
       bleed="0" />
  </sodipodi:namedview>
  <g
     id="g1"
     inkscape:groupmode="layer"
     inkscape:label="1">
    <path
       id="path1"
       d="m 0,0 -6.4,5.12 -5.92,5.44 -5.76,5.76 -5.44,5.92 -4.96,6.399999 -4.799999,6.560002 -4.319999,6.719997 -4.16,7.040001 -3.520001,7.360001 -3.36,7.36 -2.720002,7.519997 -2.559997,7.840004 -1.920002,7.839996 -1.599999,7.840004 -1.120002,7.999999 -0.8,8.16 -0.319999,8 0.16,8.16 0.479999,7.99999 0.959999,8.16001 1.440003,7.83999"
       style="fill:none;stroke:#000000;stroke-width:26.4;stroke-linecap:round;stroke-linejoin:round;stroke-miterlimit:10;stroke-dasharray:none;stroke-opacity:1"
       transform="translate(299.51999,376.42659)"
       clip-path="url(#clipPath2)" />
    <path
       id="path3"
       d="m 0,0 -0.16,-1.76 -0.32,-1.6 -0.48,-1.76 -0.8,-1.44 -0.96,-1.44 -1.12,-1.44 -1.28,-1.12 -1.44,-0.96 -1.6,-0.64 -1.6,-0.64 -1.76,-0.32 -1.76,-0.16 -1.6,0.16 -1.759999,0.32 -1.600001,0.64 -1.6,0.64 -1.440001,0.96 -1.279998,1.12 L -23.68,-8 l -0.959999,1.44 -0.800002,1.44 -0.479999,1.76 -0.48,1.6 V 0 1.76 l 0.48,1.6 0.479999,1.6 0.800002,1.6 L -23.68,8 l 1.120001,1.28 1.279998,1.12 1.440001,0.96 1.6,0.8 1.600001,0.64 1.759999,0.32 h 1.6 1.76 l 1.76,-0.32 1.6,-0.64 1.6,-0.8 1.44,-0.96 1.28,-1.12 1.12,-1.28 0.96,-1.44 0.8,-1.6 0.48,-1.6 0.32,-1.6 L 0,0 v 0 z"
       style="fill:#000000;fill-opacity:1;fill-rule:evenodd;stroke:none"
       transform="translate(314.39999,425.38661)"
       clip-path="url(#clipPath4)" />
    <path
       id="path5"
       d="m 0,0 -0.16,-1.76 -0.32,-1.6 -0.48,-1.76 -0.8,-1.44 -0.96,-1.44 -1.12,-1.44 -1.28,-1.12 -1.44,-0.96 -1.6,-0.64 -1.6,-0.64 -1.76,-0.32 -1.76,-0.16 -1.6,0.16 -1.759999,0.32 -1.600001,0.64 -1.6,0.64 -1.440001,0.96 -1.279998,1.12 L -23.68,-8 l -0.959999,1.44 -0.800002,1.44 -0.479999,1.76 -0.48,1.6 V 0 1.76 l 0.48,1.6 0.479999,1.6 0.800002,1.6 L -23.68,8 l 1.120001,1.28 1.279998,1.12 1.440001,0.96 1.6,0.8 1.600001,0.64 1.759999,0.32 h 1.6 1.76 l 1.76,-0.32 1.6,-0.64 1.6,-0.8 1.44,-0.96 1.28,-1.12 1.12,-1.28 0.96,-1.44 0.8,-1.6 0.48,-1.6 0.32,-1.6 L 0,0"
       style="fill:none;stroke:#000000;stroke-width:0.64;stroke-linecap:round;stroke-linejoin:round;stroke-miterlimit:10;stroke-dasharray:none;stroke-opacity:1"
       transform="translate(314.39999,425.38661)"
       clip-path="url(#clipPath6)" />
    <path
       id="path7"
       d="m 0,0 0.96,5.92 1.44,5.76 1.92,5.760001 2.24,5.439998 2.56,5.440001 2.88,5.279998 3.2,4.960003 3.679999,4.64 3.84,4.639999 4.320002,4.16 4.479999,4 4.64,3.52 5.119999,3.360001 5.120003,2.880001 L 51.84,68.32 l 5.439999,2.239998 5.760002,1.920005 5.760002,1.439995 5.919998,0.959999 5.919998,0.64 5.919999,0.319999 5.920005,-0.159996 5.919999,-0.480003 5.919998,-0.959999 5.76,-1.439995 5.76,-1.600006 5.6,-2.239998 5.44,-2.400001 5.28,-2.879998 4.95999,-3.2 4.80001,-3.520001 4.64,-3.84 4.32,-4.16 4,-4.479999 3.68,-4.64 3.36,-4.959999 3.04001,-5.120001 2.55999,-5.28 2.4,-5.600001"
       style="fill:none;stroke:#000000;stroke-width:26.4;stroke-linecap:round;stroke-linejoin:round;stroke-miterlimit:10;stroke-dasharray:none;stroke-opacity:1"
       transform="translate(356.16,527.46663)"
       clip-path="url(#clipPath8)" />
    <path
       id="path9"
       d="M 0,0 -1.28,-4.32 -2.88,-8.48 -4.8,-12.64 -7.2,-16.639999 -9.76,-20.32 -12.48,-24 -15.68,-27.200001 -19.040001,-30.24 -22.559999,-33.119999 -26.4,-35.68 l -4,-2.079998 -4.160001,-1.920002 -4.16,-1.599999 -4.48,-1.280002 -4.479999,-0.8 -4.48,-0.479999 -4.479999,-0.16 -4.64,0.16 -4.480003,0.479999 -4.479996,0.8 -4.32,1.280002 -4.319999,1.599999 -4.160004,1.920002 -3.839996,2.079998 -3.840004,2.560001 -3.680001,2.879999 -3.36,3.039999 L -100.8,-24 l -2.88,3.68 -2.56,3.680001 -2.24,3.999999 -1.92,4.16 -1.6,4.16 -1.28,4.32"
       style="fill:none;stroke:#000000;stroke-width:26.4;stroke-linecap:round;stroke-linejoin:round;stroke-miterlimit:10;stroke-dasharray:none;stroke-opacity:1"
       transform="translate(356.16,527.46663)"
       clip-path="url(#clipPath10)" />
  </g>
</svg>
