<?xml version="1.0" encoding="UTF-8" standalone="no"?>
<!-- Created with Inkscape (http://www.inkscape.org/) -->

<svg
   version="1.1"
   id="svg1"
   width="161.42667"
   height="234.92"
   viewBox="0 0 161.42667 234.92"
   sodipodi:docname="Drachma2.pdf"
   xmlns:inkscape="http://www.inkscape.org/namespaces/inkscape"
   xmlns:sodipodi="http://sodipodi.sourceforge.net/DTD/sodipodi-0.dtd"
   xmlns="http://www.w3.org/2000/svg"
   xmlns:svg="http://www.w3.org/2000/svg">
  <defs
     id="defs1">
    <clipPath
       clipPathUnits="userSpaceOnUse"
       id="clipPath2">
      <path
         d="M 0,0.16 V 1122.5601 H 793.59998 V 0.16 Z"
         transform="translate(-396.16,-639.35999)"
         clip-rule="evenodd"
         id="path2" />
    </clipPath>
    <clipPath
       clipPathUnits="userSpaceOnUse"
       id="clipPath4">
      <path
         d="M 0,0.16 V 1122.5601 H 793.59998 V 0.16 Z"
         transform="translate(-396.16,-639.35999)"
         clip-rule="evenodd"
         id="path4" />
    </clipPath>
    <clipPath
       clipPathUnits="userSpaceOnUse"
       id="clipPath6">
      <path
         d="M 0,0.16 V 1122.5601 H 793.59998 V 0.16 Z"
         transform="translate(-340.64002,-601.59998)"
         clip-rule="evenodd"
         id="path6" />
    </clipPath>
    <clipPath
       clipPathUnits="userSpaceOnUse"
       id="clipPath8">
      <path
         d="M 0,0.16 V 1122.5601 H 793.59998 V 0.16 Z"
         transform="translate(-3.3333333e-6)"
         clip-rule="evenodd"
         id="path8" />
    </clipPath>
  </defs>
  <sodipodi:namedview
     id="namedview1"
     pagecolor="#505050"
     bordercolor="#eeeeee"
     borderopacity="1"
     inkscape:showpageshadow="0"
     inkscape:pageopacity="0"
     inkscape:pagecheckerboard="0"
     inkscape:deskcolor="#505050">
    <inkscape:page
       x="0"
       y="0"
       inkscape:label="1"
       id="page1"
       width="161.42667"
       height="234.92"
       margin="0"
       bleed="0" />
  </sodipodi:namedview>
  <g
     id="g1"
     inkscape:groupmode="layer"
     inkscape:label="1">
    <path
       id="path1"
       d="m 0,0 -0.16,-1.76 -0.32,-1.6 -0.48,-1.6 -0.8,-1.6 -0.96,-1.44 -1.12,-1.28 -1.28,-1.12 -1.44,-0.96 -1.6,-0.8 -1.6,-0.64 -1.76,-0.32 h -1.76 -1.6 l -1.759999,0.32 -1.600001,0.64 -1.6,0.8 -1.440001,0.96 -1.279998,1.12 L -23.68,-8 l -0.959999,1.44 -0.800002,1.6 -0.479999,1.6 -0.48,1.6 V 0 1.76 l 0.48,1.76 0.479999,1.6 0.800002,1.6 0.959999,1.44 1.120001,1.28 1.279998,1.12 1.440001,0.96 1.6,0.8 1.600001,0.48 1.759999,0.32 1.6,0.16 1.76,-0.16 1.76,-0.32 1.6,-0.48 1.6,-0.8 1.44,-0.96 1.28,-1.12 1.12,-1.28 0.96,-1.44 0.8,-1.6 0.48,-1.6 L -0.16,1.76 0,0 v 0 z"
       style="fill:#000000;fill-opacity:1;fill-rule:evenodd;stroke:none"
       transform="translate(94.666671,156.15993)"
       clip-path="url(#clipPath2)" />
    <path
       id="path3"
       d="m 0,0 -0.16,-1.76 -0.32,-1.6 -0.48,-1.6 -0.8,-1.6 -0.96,-1.44 -1.12,-1.28 -1.28,-1.12 -1.44,-0.96 -1.6,-0.8 -1.6,-0.64 -1.76,-0.32 h -1.76 -1.6 l -1.759999,0.32 -1.600001,0.64 -1.6,0.8 -1.440001,0.96 -1.279998,1.12 L -23.68,-8 l -0.959999,1.44 -0.800002,1.6 -0.479999,1.6 -0.48,1.6 V 0 1.76 l 0.48,1.76 0.479999,1.6 0.800002,1.6 0.959999,1.44 1.120001,1.28 1.279998,1.12 1.440001,0.96 1.6,0.8 1.600001,0.48 1.759999,0.32 1.6,0.16 1.76,-0.16 1.76,-0.32 1.6,-0.48 1.6,-0.8 1.44,-0.96 1.28,-1.12 1.12,-1.28 0.96,-1.44 0.8,-1.6 0.48,-1.6 L -0.16,1.76 0,0"
       style="fill:none;stroke:#000000;stroke-width:0.64;stroke-linecap:round;stroke-linejoin:round;stroke-miterlimit:10;stroke-dasharray:none;stroke-opacity:1"
       transform="translate(94.666671,156.15993)"
       clip-path="url(#clipPath4)" />
    <path
       id="path5"
       d="m 0,0 -2.72,3.52 -2.56,3.68 -2.4,3.84 -1.92,4 -1.6,4.160001 -1.28,4.319999 -0.96,4.32 -0.64,4.48 -0.32,4.319999 0.16,4.48 0.48,4.479999 0.8,4.480004 1.12,4.32 1.44,4.159999 1.76,4.16 2.08,3.839997 2.56,3.840004 2.72,3.519996 2.88,3.360001 3.2,3.040001 3.52,2.879997 3.68,2.400001 3.84,2.239998 4,1.920006 4.32,1.599999 4.16,1.279998 4.479999,0.959999 4.32,0.64 4.479999,0.160004 4.480004,-0.160004 4.479999,-0.479996 4.32,-0.800003 4.32,-1.120003 4.319999,-1.439994 3.999997,-1.919999 4,-2.080001 3.68,-2.560006 3.520004,-2.719993 3.360001,-3.040001 3.040001,-3.200005 2.719993,-3.519996 2.560006,-3.680001 2.239997,-3.84 1.919999,-4 L 96,55.52 l 1.279999,-4.159999 0.959999,-4.48 0.480003,-4.32 0.159996,-4.479999 -0.159996,-4.480004 -0.480003,-4.479997 -0.799996,-4.320002 -1.279998,-4.319999 -1.440003,-4.32 -1.919998,-4 -2.240005,-3.84 -2.399994,-3.84 -2.720002,-3.52 -3.04,-3.2"
       style="fill:none;stroke:#000000;stroke-width:26.4;stroke-linecap:round;stroke-linejoin:round;stroke-miterlimit:10;stroke-dasharray:none;stroke-opacity:1"
       transform="translate(39.146682,118.39992)"
       clip-path="url(#clipPath6)" />
    <path
       id="path7"
       d="m 340.64001,601.59998 80,-94.39997"
       style="fill:none;stroke:#000000;stroke-width:26.4;stroke-linecap:round;stroke-linejoin:round;stroke-miterlimit:10;stroke-dasharray:none;stroke-opacity:1"
       transform="translate(-301.49333,-483.20006)"
       clip-path="url(#clipPath8)" />
  </g>
</svg>
