<?xml version="1.0" encoding="UTF-8" standalone="no"?>
<!-- Created with Inkscape (http://www.inkscape.org/) -->

<svg
   version="1.1"
   id="svg1"
   width="272.14667"
   height="303"
   viewBox="0 0 272.14667 303"
   sodipodi:docname="Drachma6.pdf"
   xmlns:inkscape="http://www.inkscape.org/namespaces/inkscape"
   xmlns:sodipodi="http://sodipodi.sourceforge.net/DTD/sodipodi-0.dtd"
   xmlns="http://www.w3.org/2000/svg"
   xmlns:svg="http://www.w3.org/2000/svg">
  <defs
     id="defs1">
    <clipPath
       clipPathUnits="userSpaceOnUse"
       id="clipPath2">
      <path
         d="M 0,0.16 V 1122.5601 H 793.59998 V 0.16 Z"
         transform="translate(-382.88,-639.35999)"
         clip-rule="evenodd"
         id="path2" />
    </clipPath>
    <clipPath
       clipPathUnits="userSpaceOnUse"
       id="clipPath4">
      <path
         d="M 0,0.16 V 1122.5601 H 793.59998 V 0.16 Z"
         clip-rule="evenodd"
         id="path4" />
    </clipPath>
    <clipPath
       clipPathUnits="userSpaceOnUse"
       id="clipPath6">
      <path
         d="M 0,0.16 V 1122.5601 H 793.59998 V 0.16 Z"
         transform="translate(-547.20001,-526.08002)"
         clip-rule="evenodd"
         id="path6" />
    </clipPath>
    <clipPath
       clipPathUnits="userSpaceOnUse"
       id="clipPath8">
      <path
         d="M 0,0.16 V 1122.5601 H 793.59998 V 0.16 Z"
         transform="translate(-584.96002,-526.08002)"
         clip-rule="evenodd"
         id="path8" />
    </clipPath>
    <clipPath
       clipPathUnits="userSpaceOnUse"
       id="clipPath10">
      <path
         d="M 0,0.16 V 1122.5601 H 793.59998 V 0.16 Z"
         transform="translate(-622.71997,-526.08002)"
         clip-rule="evenodd"
         id="path10" />
    </clipPath>
    <clipPath
       clipPathUnits="userSpaceOnUse"
       id="clipPath12">
      <path
         d="M 0,0.16 V 1122.5601 H 793.59998 V 0.16 Z"
         transform="translate(-547.20001,-526.08002)"
         clip-rule="evenodd"
         id="path12" />
    </clipPath>
    <clipPath
       clipPathUnits="userSpaceOnUse"
       id="clipPath14">
      <path
         d="M 0,0.16 V 1122.5601 H 793.59998 V 0.16 Z"
         transform="translate(-584.96002,-526.08002)"
         clip-rule="evenodd"
         id="path14" />
    </clipPath>
    <clipPath
       clipPathUnits="userSpaceOnUse"
       id="clipPath16">
      <path
         d="M 0,0.16 V 1122.5601 H 793.59998 V 0.16 Z"
         transform="translate(-622.71997,-526.08002)"
         clip-rule="evenodd"
         id="path16" />
    </clipPath>
    <clipPath
       clipPathUnits="userSpaceOnUse"
       id="clipPath18">
      <path
         d="M 0,0.16 V 1122.5601 H 793.59998 V 0.16 Z"
         clip-rule="evenodd"
         id="path18" />
    </clipPath>
    <clipPath
       clipPathUnits="userSpaceOnUse"
       id="clipPath20">
      <path
         d="M 0,0.16 V 1122.5601 H 793.59998 V 0.16 Z"
         clip-rule="evenodd"
         id="path20" />
    </clipPath>
    <clipPath
       clipPathUnits="userSpaceOnUse"
       id="clipPath22">
      <path
         d="M 0,0.16 V 1122.5601 H 793.59998 V 0.16 Z"
         clip-rule="evenodd"
         id="path22" />
    </clipPath>
    <clipPath
       clipPathUnits="userSpaceOnUse"
       id="clipPath24">
      <path
         d="M 0,0.16 V 1122.5601 H 793.59998 V 0.16 Z"
         transform="translate(-581.59998,-656)"
         clip-rule="evenodd"
         id="path24" />
    </clipPath>
  </defs>
  <sodipodi:namedview
     id="namedview1"
     pagecolor="#505050"
     bordercolor="#eeeeee"
     borderopacity="1"
     inkscape:showpageshadow="0"
     inkscape:pageopacity="0"
     inkscape:pagecheckerboard="0"
     inkscape:deskcolor="#505050">
    <inkscape:page
       x="0"
       y="0"
       inkscape:label="1"
       id="page1"
       width="272.14667"
       height="303"
       margin="0"
       bleed="0" />
  </sodipodi:namedview>
  <g
     id="g1"
     inkscape:groupmode="layer"
     inkscape:label="1">
    <path
       id="path1"
       d="m 0,0 10.4,-4.96 10.08,-5.44 9.92,-5.92 9.44,-6.239999 9.279999,-6.720002 9.120003,-7.199999 8.639995,-7.52 8.32,-7.84 7.840004,-8.32 7.68,-8.640003 7.040001,-8.959999 6.879998,-9.279999 6.4,-9.440002 5.92,-9.919997 5.44,-10.08 4.96,-10.24 4.64,-10.56 4.16,-10.72 3.51999,-10.88 3.20001,-11.04 2.72001,-11.04001 2.07998,-11.36 1.60001,-11.35998 1.11999,-11.36 0.64,-11.52001"
       style="fill:none;stroke:#000000;stroke-width:26.4;stroke-linecap:round;stroke-linejoin:round;stroke-miterlimit:10;stroke-dasharray:none;stroke-opacity:1"
       transform="translate(382.88,698.09326)"
       clip-path="url(#clipPath2)" />
    <path
       id="path3"
       d="m 477.28,563.84003 -94.4,-75.52002"
       style="fill:none;stroke:#000000;stroke-width:26.4;stroke-linecap:round;stroke-linejoin:round;stroke-miterlimit:10;stroke-dasharray:none;stroke-opacity:1"
       transform="translate(0,58.733275)"
       clip-path="url(#clipPath4)" />
    <path
       id="path5"
       d="m 0,0 -0.16,-1.6 -0.32,-1.76 -0.48,-1.6 -0.8,-1.6 -0.96,-1.44 -1.12,-1.28 -1.28,-1.12 -1.44,-0.96 -1.6,-0.8 -1.6,-0.48 -1.76,-0.48 h -1.76 -1.76 l -1.599999,0.48 -1.600001,0.48 -1.6,0.8 -1.440001,0.96 -1.279998,1.12 L -23.68,-8 l -0.959999,1.44 -0.800002,1.6 -0.639999,1.6 -0.32,1.76 V 0 1.76 l 0.32,1.76 0.639999,1.6 0.800002,1.6 0.959999,1.44 1.120001,1.28 1.279998,1.12 1.440001,0.96 1.6,0.8 1.600001,0.48 1.599999,0.32 1.76,0.16 1.76,-0.16 1.76,-0.32 1.6,-0.48 1.6,-0.8 1.44,-0.96 1.28,-1.12 1.12,-1.28 0.96,-1.44 0.8,-1.6 0.48,-1.6 L -0.16,1.76 0,0 v 0 z"
       style="fill:#000000;fill-opacity:1;fill-rule:evenodd;stroke:none"
       transform="translate(547.20001,584.81329)"
       clip-path="url(#clipPath6)" />
    <path
       id="path7"
       d="m 0,0 -0.16,-1.6 -0.32,-1.76 -0.48,-1.6 -0.8,-1.6 -0.96,-1.44 -1.12,-1.28 -1.44,-1.12 -1.28,-0.96 -1.6,-0.8 -1.6,-0.48 -1.76,-0.48 h -1.76 -1.76 l -1.599999,0.48 -1.600001,0.48 -1.6,0.8 -1.440001,0.96 -1.279998,1.12 L -23.68,-8 l -0.959999,1.44 -0.800002,1.6 -0.639999,1.6 -0.32,1.76 V 0 1.76 l 0.32,1.76 0.639999,1.6 0.800002,1.6 0.959999,1.44 1.120001,1.28 1.279998,1.12 1.440001,0.96 1.6,0.8 1.600001,0.48 1.599999,0.32 1.76,0.16 1.76,-0.16 1.76,-0.32 1.6,-0.48 1.6,-0.8 1.28,-0.96 1.44,-1.12 1.12,-1.28 0.96,-1.44 0.8,-1.6 0.48,-1.6 L -0.16,1.76 0,0 v 0 z"
       style="fill:#000000;fill-opacity:1;fill-rule:evenodd;stroke:none"
       transform="translate(584.96002,584.81329)"
       clip-path="url(#clipPath8)" />
    <path
       id="path9"
       d="m 0,0 -0.16,-1.6 -0.32,-1.76 -0.64,-1.6 -0.64,-1.6 -0.96,-1.44 -1.12,-1.28 -1.44,-1.12 -1.44,-0.96 -1.44,-0.8 -1.6,-0.48 -1.76,-0.48 h -1.76 -1.76 l -1.599999,0.48 -1.600001,0.48 -1.6,0.8 -1.440001,0.96 -1.279998,1.12 L -23.68,-8 l -0.959999,1.44 -0.800002,1.6 -0.639999,1.6 -0.32,1.76 V 0 1.76 l 0.32,1.76 0.639999,1.6 0.800002,1.6 0.959999,1.44 1.120001,1.28 1.279998,1.12 1.440001,0.96 1.6,0.8 1.600001,0.48 1.599999,0.32 1.76,0.16 1.76,-0.16 1.76,-0.32 1.6,-0.48 1.44,-0.8 1.44,-0.96 1.44,-1.12 1.12,-1.28 0.96,-1.44 0.64,-1.6 0.64,-1.6 L -0.16,1.76 0,0 v 0 z"
       style="fill:#000000;fill-opacity:1;fill-rule:evenodd;stroke:none"
       transform="translate(622.71997,584.81329)"
       clip-path="url(#clipPath10)" />
    <path
       id="path11"
       d="m 0,0 -0.16,-1.6 -0.32,-1.76 -0.48,-1.6 -0.8,-1.6 -0.96,-1.44 -1.12,-1.28 -1.28,-1.12 -1.44,-0.96 -1.6,-0.8 -1.6,-0.48 -1.76,-0.48 h -1.76 -1.76 l -1.599999,0.48 -1.600001,0.48 -1.6,0.8 -1.440001,0.96 -1.279998,1.12 L -23.68,-8 l -0.959999,1.44 -0.800002,1.6 -0.639999,1.6 -0.32,1.76 V 0 1.76 l 0.32,1.76 0.639999,1.6 0.800002,1.6 0.959999,1.44 1.120001,1.28 1.279998,1.12 1.440001,0.96 1.6,0.8 1.600001,0.48 1.599999,0.32 1.76,0.16 1.76,-0.16 1.76,-0.32 1.6,-0.48 1.6,-0.8 1.44,-0.96 1.28,-1.12 1.12,-1.28 0.96,-1.44 0.8,-1.6 0.48,-1.6 L -0.16,1.76 0,0"
       style="fill:none;stroke:#000000;stroke-width:0.64;stroke-linecap:round;stroke-linejoin:round;stroke-miterlimit:10;stroke-dasharray:none;stroke-opacity:1"
       transform="translate(547.20001,584.81329)"
       clip-path="url(#clipPath12)" />
    <path
       id="path13"
       d="m 0,0 -0.16,-1.6 -0.32,-1.76 -0.48,-1.6 -0.8,-1.6 -0.96,-1.44 -1.12,-1.28 -1.44,-1.12 -1.28,-0.96 -1.6,-0.8 -1.6,-0.48 -1.76,-0.48 h -1.76 -1.76 l -1.599999,0.48 -1.600001,0.48 -1.6,0.8 -1.440001,0.96 -1.279998,1.12 L -23.68,-8 l -0.959999,1.44 -0.800002,1.6 -0.639999,1.6 -0.32,1.76 V 0 1.76 l 0.32,1.76 0.639999,1.6 0.800002,1.6 0.959999,1.44 1.120001,1.28 1.279998,1.12 1.440001,0.96 1.6,0.8 1.600001,0.48 1.599999,0.32 1.76,0.16 1.76,-0.16 1.76,-0.32 1.6,-0.48 1.6,-0.8 1.28,-0.96 1.44,-1.12 1.12,-1.28 0.96,-1.44 0.8,-1.6 0.48,-1.6 L -0.16,1.76 0,0"
       style="fill:none;stroke:#000000;stroke-width:0.64;stroke-linecap:round;stroke-linejoin:round;stroke-miterlimit:10;stroke-dasharray:none;stroke-opacity:1"
       transform="translate(584.96002,584.81329)"
       clip-path="url(#clipPath14)" />
    <path
       id="path15"
       d="m 0,0 -0.16,-1.6 -0.32,-1.76 -0.64,-1.6 -0.64,-1.6 -0.96,-1.44 -1.12,-1.28 -1.44,-1.12 -1.44,-0.96 -1.44,-0.8 -1.6,-0.48 -1.76,-0.48 h -1.76 -1.76 l -1.599999,0.48 -1.600001,0.48 -1.6,0.8 -1.440001,0.96 -1.279998,1.12 L -23.68,-8 l -0.959999,1.44 -0.800002,1.6 -0.639999,1.6 -0.32,1.76 V 0 1.76 l 0.32,1.76 0.639999,1.6 0.800002,1.6 0.959999,1.44 1.120001,1.28 1.279998,1.12 1.440001,0.96 1.6,0.8 1.600001,0.48 1.599999,0.32 1.76,0.16 1.76,-0.16 1.76,-0.32 1.6,-0.48 1.44,-0.8 1.44,-0.96 1.44,-1.12 1.12,-1.28 0.96,-1.44 0.64,-1.6 0.64,-1.6 L -0.16,1.76 0,0"
       style="fill:none;stroke:#000000;stroke-width:0.64;stroke-linecap:round;stroke-linejoin:round;stroke-miterlimit:10;stroke-dasharray:none;stroke-opacity:1"
       transform="translate(622.71997,584.81329)"
       clip-path="url(#clipPath16)" />
    <path
       id="path17"
       d="m 533.91998,563.84003 v 75.51995"
       style="fill:none;stroke:#000000;stroke-width:26.4;stroke-linecap:round;stroke-linejoin:round;stroke-miterlimit:10;stroke-dasharray:none;stroke-opacity:1"
       transform="translate(0,58.733275)"
       clip-path="url(#clipPath18)" />
    <path
       id="path19"
       d="m 571.67999,563.84003 v 75.51995"
       style="fill:none;stroke:#000000;stroke-width:26.4;stroke-linecap:round;stroke-linejoin:round;stroke-miterlimit:10;stroke-dasharray:none;stroke-opacity:1"
       transform="translate(0,58.733275)"
       clip-path="url(#clipPath20)" />
    <path
       id="path21"
       d="m 609.44,563.84003 v 75.51995"
       style="fill:none;stroke:#000000;stroke-width:26.4;stroke-linecap:round;stroke-linejoin:round;stroke-miterlimit:10;stroke-dasharray:none;stroke-opacity:1"
       transform="translate(0,58.733275)"
       clip-path="url(#clipPath22)" />
    <path
       id="path23"
       d="M 0,0 2.08,0.96 4.16,1.6 6.4,2.08 8.8,2.24 h 2.24 l 2.24,-0.48 2.24,-0.64 2.08,-0.96 2.08,-1.12 1.760001,-1.44 1.6,-1.6 L 24.48,-5.76 25.6,-7.84 26.559999,-9.92 27.360001,-12 27.68,-14.24 l 0.16,-2.399999"
       style="fill:none;stroke:#000000;stroke-width:26.4;stroke-linecap:round;stroke-linejoin:round;stroke-miterlimit:10;stroke-dasharray:none;stroke-opacity:1"
       transform="translate(581.59998,714.73327)"
       clip-path="url(#clipPath24)" />
  </g>
</svg>
