<?xml version="1.0" encoding="UTF-8" standalone="no"?>
<!-- Created with Inkscape (http://www.inkscape.org/) -->

<svg
   version="1.1"
   id="svg1"
   width="184.10667"
   height="300.33334"
   viewBox="0 0 184.10667 300.33334"
   sodipodi:docname="Drachma4.pdf"
   xmlns:inkscape="http://www.inkscape.org/namespaces/inkscape"
   xmlns:sodipodi="http://sodipodi.sourceforge.net/DTD/sodipodi-0.dtd"
   xmlns="http://www.w3.org/2000/svg"
   xmlns:svg="http://www.w3.org/2000/svg">
  <defs
     id="defs1">
    <clipPath
       clipPathUnits="userSpaceOnUse"
       id="clipPath2">
      <path
         d="M 0,0.16 V 1122.5601 H 793.59998 V 0.16 Z"
         transform="translate(-322.39999,-685.28003)"
         clip-rule="evenodd"
         id="path2" />
    </clipPath>
    <clipPath
       clipPathUnits="userSpaceOnUse"
       id="clipPath4">
      <path
         d="M 0,0.16 V 1122.5601 H 793.59998 V 0.16 Z"
         transform="translate(3.3333333e-6)"
         clip-rule="evenodd"
         id="path4" />
    </clipPath>
    <clipPath
       clipPathUnits="userSpaceOnUse"
       id="clipPath6">
      <path
         d="M 0,0.16 V 1122.5601 H 793.59998 V 0.16 Z"
         transform="translate(-458.4,-488.32001)"
         clip-rule="evenodd"
         id="path6" />
    </clipPath>
  </defs>
  <sodipodi:namedview
     id="namedview1"
     pagecolor="#505050"
     bordercolor="#eeeeee"
     borderopacity="1"
     inkscape:showpageshadow="0"
     inkscape:pageopacity="0"
     inkscape:pagecheckerboard="0"
     inkscape:deskcolor="#505050">
    <inkscape:page
       x="0"
       y="0"
       inkscape:label="1"
       id="page1"
       width="184.10667"
       height="300.33334"
       margin="0"
       bleed="0" />
  </sodipodi:namedview>
  <g
     id="g1"
     inkscape:groupmode="layer"
     inkscape:label="1">
    <path
       id="path1"
       d="M 0,0 3.52,4.16 7.36,8 l 4.16,3.68 4.32,3.2 4.64,3.04 4.800001,2.719999 4.959999,2.24 5.120001,1.92 5.279998,1.600001 5.440003,1.12 5.439998,0.8 5.439999,0.479999 h 5.440003 L 68,28.48 73.279999,27.68 78.720001,26.559999 84,24.959999 89.120003,23.040001 94.080002,20.799999 99.040001,18.24 103.68,15.36 108,12 l 4.16,-3.52 4,-3.84 3.52,-4.16 3.36,-4.48 2.88,-4.48 2.72,-4.96 2.24,-4.96 2.08001,-5.12 1.43998,-5.279999 1.28,-5.280003 0.80001,-5.439998 0.32,-5.439999 v -5.600002 L 136.48,-56 135.67999,-61.439999 134.56,-66.720001 133.11999,-72 131.2,-77.279999 128.96001,-82.239998 126.4,-87.040001 123.36,-91.68 l -3.2,-4.480004 -3.68,-4.159996 -3.84,-3.84 -4.16,-3.68 -4.32,-3.2 -4.640003,-3.04 -4.799996,-2.56 -4.959999,-2.4 -5.120003,-1.92 -5.279998,-1.6 -5.440003,-1.12 -5.279999,-0.8 -5.599998,-0.48 h -5.440003 l -5.439998,0.32 -5.439999,0.8 -5.440002,1.12"
       style="fill:none;stroke:#000000;stroke-width:26.4;stroke-linecap:round;stroke-linejoin:round;stroke-miterlimit:10;stroke-dasharray:none;stroke-opacity:1"
       transform="translate(19.573327,244.79997)"
       clip-path="url(#clipPath2)" />
    <path
       id="path3"
       d="m 364,563.84003 94.39999,-75.52002"
       style="fill:none;stroke:#000000;stroke-width:26.4;stroke-linecap:round;stroke-linejoin:round;stroke-miterlimit:10;stroke-dasharray:none;stroke-opacity:1"
       transform="translate(-302.82667,-440.48006)"
       clip-path="url(#clipPath4)" />
    <path
       id="path5"
       d="m 0,0 -6.24,-3.68 -6.56,-3.36 -6.72,-3.04 -6.88,-2.56 -7.039999,-2.08 -7.040001,-1.76 -7.2,-1.28 -7.360001,-0.959999 -7.360001,-0.480002 h -7.36 l -7.199997,0.480002 L -84.32,-17.76 l -7.199997,1.28 -7.200004,1.76 -7.039999,2.08 -6.88,2.56 -6.72,3.04 -6.4,3.36 -6.4,3.68"
       style="fill:none;stroke:#000000;stroke-width:26.4;stroke-linecap:round;stroke-linejoin:round;stroke-miterlimit:10;stroke-dasharray:none;stroke-opacity:1"
       transform="translate(155.57333,47.839948)"
       clip-path="url(#clipPath6)" />
  </g>
</svg>
