<?xml version="1.0" encoding="UTF-8" standalone="no"?>
<!-- Created with Inkscape (http://www.inkscape.org/) -->

<svg
   version="1.1"
   id="svg1"
   width="288.16"
   height="308.33334"
   viewBox="0 0 288.16 308.33334"
   sodipodi:docname="Drop3.pdf"
   xmlns:inkscape="http://www.inkscape.org/namespaces/inkscape"
   xmlns:sodipodi="http://sodipodi.sourceforge.net/DTD/sodipodi-0.dtd"
   xmlns="http://www.w3.org/2000/svg"
   xmlns:svg="http://www.w3.org/2000/svg">
  <defs
     id="defs1">
    <clipPath
       clipPathUnits="userSpaceOnUse"
       id="clipPath2">
      <path
         d="M 0,0.16 V 1122.5601 H 793.59998 V 0.16 Z"
         transform="translate(-323.67999,-448.48001)"
         clip-rule="evenodd"
         id="path2" />
    </clipPath>
    <clipPath
       clipPathUnits="userSpaceOnUse"
       id="clipPath4">
      <path
         d="M 0,0.16 V 1122.5601 H 793.59998 V 0.16 Z"
         transform="translate(-303.20001,-486.72)"
         clip-rule="evenodd"
         id="path4" />
    </clipPath>
    <clipPath
       clipPathUnits="userSpaceOnUse"
       id="clipPath6">
      <path
         d="M 0,0.16 V 1122.5601 H 793.59998 V 0.16 Z"
         transform="translate(-247.52,-646.88)"
         clip-rule="evenodd"
         id="path6" />
    </clipPath>
    <clipPath
       clipPathUnits="userSpaceOnUse"
       id="clipPath8">
      <path
         d="M 0,0.16 V 1122.5601 H 793.59998 V 0.16 Z"
         clip-rule="evenodd"
         id="path8" />
    </clipPath>
    <clipPath
       clipPathUnits="userSpaceOnUse"
       id="clipPath10">
      <path
         d="M 0,0.16 V 1122.5601 H 793.59998 V 0.16 Z"
         clip-rule="evenodd"
         id="path10" />
    </clipPath>
    <clipPath
       clipPathUnits="userSpaceOnUse"
       id="clipPath12">
      <path
         d="M 0,0.16 V 1122.5601 H 793.59998 V 0.16 Z"
         transform="translate(-427.35999,-615.35998)"
         clip-rule="evenodd"
         id="path12" />
    </clipPath>
    <clipPath
       clipPathUnits="userSpaceOnUse"
       id="clipPath14">
      <path
         d="M 0,0.16 V 1122.5601 H 793.59998 V 0.16 Z"
         clip-rule="evenodd"
         id="path14" />
    </clipPath>
  </defs>
  <sodipodi:namedview
     id="namedview1"
     pagecolor="#505050"
     bordercolor="#eeeeee"
     borderopacity="1"
     inkscape:showpageshadow="0"
     inkscape:pageopacity="0"
     inkscape:pagecheckerboard="0"
     inkscape:deskcolor="#505050">
    <inkscape:page
       x="0"
       y="0"
       inkscape:label="1"
       id="page1"
       width="288.16"
       height="308.33334"
       margin="0"
       bleed="0" />
  </sodipodi:namedview>
  <g
     id="g1"
     inkscape:groupmode="layer"
     inkscape:label="1">
    <path
       id="path1"
       d="m 0,0 -6.24,0.16 -6.08,0.64 -6.08,0.96 -6.08,1.44 -5.92,1.76 -5.76,2.24 -5.599998,2.72 -5.440003,2.88 -5.119999,3.36 -4.959999,3.68 -4.639999,4 -4.480004,4.32 -4,4.639999 -3.839996,4.959999 -3.520004,5.120003 -3.040001,5.279999 -2.719994,5.599998 -2.240005,5.760002 -1.919998,5.920002 -1.599999,5.919999 -1.120003,6.080001 -0.639999,6.079995 -0.32,6.240005 0.160004,6.239998 0.639999,6.08 0.96,6.08 1.439994,6.08 1.760002,5.92 2.239998,5.76 2.560006,5.6 3.04,5.28 3.360001,5.28 3.68,4.95999 4,4.64 4.319996,4.48001 4.48,4.16001 4.960003,3.67999 5.119999,3.52 5.279998,3.04 5.600003,2.72 5.759998,2.39999 5.76,1.92002 6.08,1.59999 6.08,1.12001 6.08,0.64 6.08,0.31999 6.24,-0.16001 6.24,-0.47999 6.079999,-1.12 5.92,-1.28 5.920001,-1.76 5.760002,-2.24 5.599998,-2.56001 5.439999,-3.03999 5.280002,-3.2 4.959999,-3.68001 4.64,-4"
       style="fill:none;stroke:#000000;stroke-width:26.4;stroke-linecap:round;stroke-linejoin:round;stroke-miterlimit:10;stroke-dasharray:none;stroke-opacity:1"
       transform="translate(323.67999,411.10662)"
       clip-path="url(#clipPath2)" />
    <path
       id="path3"
       d="M 0,0 1.76,2.08 3.52,4 5.76,5.76 8,7.2 l 2.4,1.28 2.56,0.96 2.56,0.64 2.72,0.32 h 2.719999 L 23.68,10.24 26.4,9.6 28.959999,8.8 31.360001,7.68 33.759998,6.24 35.84,4.48 37.759998,2.72 39.52,0.48 40.959999,-1.76 42.240002,-4.16 43.040001,-6.72 43.68,-9.44 44,-12.16 v -2.56 L 43.84,-17.440001 43.200001,-20.16 42.240002,-22.719999 41.119999,-25.120001 39.68,-27.52 37.919998,-29.6 36,-31.52 33.919998,-33.279999 31.68,-34.720001 29.280001,-35.84 26.719999,-36.799999 24,-37.279999 21.280001,-37.599998"
       style="fill:none;stroke:#000000;stroke-width:26.4;stroke-linecap:round;stroke-linejoin:round;stroke-miterlimit:10;stroke-dasharray:none;stroke-opacity:1"
       transform="translate(303.20001,449.34661)"
       clip-path="url(#clipPath4)" />
    <path
       id="path5"
       d="m 0,0 0.64,5.12 0.96,4.96 1.28,4.96 1.76,4.8 2.08,4.64 2.4,4.640001 2.72,4.319998 3.04,4 3.36,3.84 3.52,3.68 4,3.360001 4,3.040001 4.320002,2.720001 4.639999,2.399998 4.64,1.920002 L 48.16,60.16 l 4.959999,1.279999 5.120003,0.960003 4.959999,0.639999 5.119999,0.16 5.120002,-0.16 5.119996,-0.639999 4.959999,-0.960003 4.960006,-1.279999 4.959999,-1.759998 4.64,-1.920002 4.479998,-2.399998 4.32,-2.720001 4.16,-3.040001 3.84,-3.360001 3.68,-3.68 3.36,-3.84 3.04,-4 2.72,-4.319998 2.4,-4.640001 2.08,-4.64 1.59999,-4.8 L 135.2,10.08 136.16,5.12 136.64,0"
       style="fill:none;stroke:#000000;stroke-width:26.4;stroke-linecap:round;stroke-linejoin:round;stroke-miterlimit:10;stroke-dasharray:none;stroke-opacity:1"
       transform="translate(247.52,609.50661)"
       clip-path="url(#clipPath6)" />
    <path
       id="path7"
       d="M 445.60001,451.51999 426.88,619.52002"
       style="fill:none;stroke:#000000;stroke-width:26.4;stroke-linecap:round;stroke-linejoin:round;stroke-miterlimit:10;stroke-dasharray:none;stroke-opacity:1"
       transform="translate(0,-37.373392)"
       clip-path="url(#clipPath8)" />
    <path
       id="path9"
       d="M 415.20001,506.88 473.12,507.84"
       style="fill:none;stroke:#000000;stroke-width:26.4;stroke-linecap:round;stroke-linejoin:round;stroke-miterlimit:10;stroke-dasharray:none;stroke-opacity:1"
       transform="translate(0,-37.373392)"
       clip-path="url(#clipPath10)" />
    <path
       id="path11"
       d="m 0,0 -0.64,3.04 -0.64,3.2 -0.32,3.2 -0.16,3.04 v 3.04 l 0.16,2.88 0.48,2.720001 0.64,2.719999 0.8,2.4 0.96,2.24 1.12,2.079999 1.28,1.760001 1.44,1.599998 1.44,1.280003 1.76,0.959999 1.76,0.799999 1.76,0.32 1.92,0.16 2.08,-0.16 1.92,-0.64 L 19.84,35.84 21.76,34.720001 23.68,33.439999 25.6,31.84 l 1.92,-1.92 1.760001,-2.24 1.76,-2.239999 L 32.48,22.879999 33.919998,20.16 35.200001,17.280001 36.32,14.4 l 0.959999,-3.04 0.800003,-3.2"
       style="fill:none;stroke:#000000;stroke-width:26.4;stroke-linecap:round;stroke-linejoin:round;stroke-miterlimit:10;stroke-dasharray:none;stroke-opacity:1"
       transform="translate(427.35999,577.98659)"
       clip-path="url(#clipPath12)" />
    <path
       id="path13"
       d="m 384.64001,605.44 v 42.71997"
       style="fill:none;stroke:#000000;stroke-width:26.4;stroke-linecap:round;stroke-linejoin:round;stroke-miterlimit:10;stroke-dasharray:none;stroke-opacity:1"
       transform="translate(0,-37.373392)"
       clip-path="url(#clipPath14)" />
  </g>
</svg>
