<?xml version="1.0" encoding="UTF-8" standalone="no"?>
<!-- Created with Inkscape (http://www.inkscape.org/) -->

<svg
   version="1.1"
   id="svg1"
   width="226.78667"
   height="313.66666"
   viewBox="0 0 226.78667 313.66666"
   sodipodi:docname="Drop2.pdf"
   xmlns:inkscape="http://www.inkscape.org/namespaces/inkscape"
   xmlns:sodipodi="http://sodipodi.sourceforge.net/DTD/sodipodi-0.dtd"
   xmlns="http://www.w3.org/2000/svg"
   xmlns:svg="http://www.w3.org/2000/svg">
  <defs
     id="defs1">
    <clipPath
       clipPathUnits="userSpaceOnUse"
       id="clipPath2">
      <path
         d="M 0,0.16 V 1122.5601 H 793.59998 V 0.16 Z"
         transform="translate(-358.39999,-441.92001)"
         clip-rule="evenodd"
         id="path2" />
    </clipPath>
    <clipPath
       clipPathUnits="userSpaceOnUse"
       id="clipPath4">
      <path
         d="M 0,0.16 V 1122.5601 H 793.59998 V 0.16 Z"
         transform="translate(-366.72,-689.59998)"
         clip-rule="evenodd"
         id="path4" />
    </clipPath>
    <clipPath
       clipPathUnits="userSpaceOnUse"
       id="clipPath6">
      <path
         d="M 0,0.16 V 1122.5601 H 793.59998 V 0.16 Z"
         transform="translate(-3.3333333e-6)"
         clip-rule="evenodd"
         id="path6" />
    </clipPath>
    <clipPath
       clipPathUnits="userSpaceOnUse"
       id="clipPath8">
      <path
         d="M 0,0.16 V 1122.5601 H 793.59998 V 0.16 Z"
         transform="translate(-3.3333333e-6)"
         clip-rule="evenodd"
         id="path8" />
    </clipPath>
  </defs>
  <sodipodi:namedview
     id="namedview1"
     pagecolor="#505050"
     bordercolor="#eeeeee"
     borderopacity="1"
     inkscape:showpageshadow="0"
     inkscape:pageopacity="0"
     inkscape:pagecheckerboard="0"
     inkscape:deskcolor="#505050">
    <inkscape:page
       x="0"
       y="0"
       inkscape:label="1"
       id="page1"
       width="226.78667"
       height="313.66666"
       margin="0"
       bleed="0" />
  </sodipodi:namedview>
  <g
     id="g1"
     inkscape:groupmode="layer"
     inkscape:label="1">
    <path
       id="path1"
       d="m 0,0 -6.24,0.16 -6.08,0.64 -6.08,0.96 -6.08,1.44 -5.92,1.92 -5.76,2.24 -5.599998,2.56 -5.440003,3.04 -5.279999,3.36 -4.959999,3.68 -4.640003,4.16 -4.32,4.32 -4.159996,4.639999 -3.840004,4.960003 -3.36,5.119999 -3.040001,5.439998 -2.719994,5.440003 L -85.760002,59.84 -87.68,65.760002 -89.279999,71.839996 -90.239998,77.919998 -90.879997,84 l -0.32,6.239998 0.159996,6.240005 0.639999,6.079997 0.96,6.24 1.440002,5.92 1.919998,5.92 2.240006,5.76 2.719993,5.6 2.880005,5.44 3.360001,5.28 3.839996,4.95999 4,4.64002 4.32,4.31999 4.800003,4.16 4.799999,3.68 5.279999,3.52 5.279999,3.03999 5.600002,2.72 5.759998,2.24001 5.92,1.92 6.08,1.44 6.080001,1.12 6.08,0.63999 6.24,0.16001 6.24,-0.16001 6.08,-0.63999 6.24,-1.12 5.92,-1.44 5.92,-1.76 5.760001,-2.24 5.599998,-2.72 5.440003,-3.04 5.119998,-3.36 4.96,-3.83999 4.639999,-4 4.479999,-4.32001 4,-4.64 3.840004,-4.96001 3.360001,-5.28 3.039993,-5.27999 2.720002,-5.6 2.240005,-5.76 1.919998,-5.92 1.440003,-6.08 0.959999,-6.08 0.639999,-6.239997 0.32,-6.080002"
       style="fill:none;stroke:#000000;stroke-width:26.4;stroke-linecap:round;stroke-linejoin:round;stroke-miterlimit:10;stroke-dasharray:none;stroke-opacity:1"
       transform="translate(110.26666,20.119954)"
       clip-path="url(#clipPath2)" />
    <path
       id="path3"
       d="m 0,0 2.08,3.84 2.4,3.52 2.56,3.36 2.88,3.04 2.88,2.72 3.04,2.399999 3.200001,2.08 3.359999,1.76 L 25.92,24.16 29.440001,25.120001 32.959999,25.76 36.48,25.92 h 3.68 l 3.52,-0.479999 3.520001,-0.960001 3.52,-1.279999 L 54.080002,21.6 57.439999,19.68 60.48,17.440001 63.52,14.72 l 2.880002,-2.88 2.559997,-3.2 2.559998,-3.52 2.240005,-3.68 1.919998,-4 1.760002,-4.16 1.599999,-4.32 1.120003,-4.48 1.119995,-4.64 0.639999,-4.799999 0.480004,-4.640001 0.159996,-4.800002"
       style="fill:none;stroke:#000000;stroke-width:26.4;stroke-linecap:round;stroke-linejoin:round;stroke-miterlimit:10;stroke-dasharray:none;stroke-opacity:1"
       transform="translate(118.58667,267.79992)"
       clip-path="url(#clipPath4)" />
    <path
       id="path5"
       d="m 448.48001,532.64001 1.44,125.12"
       style="fill:none;stroke:#000000;stroke-width:26.4;stroke-linecap:round;stroke-linejoin:round;stroke-miterlimit:10;stroke-dasharray:none;stroke-opacity:1"
       transform="translate(-248.13333,-421.80006)"
       clip-path="url(#clipPath6)" />
    <path
       id="path7"
       d="M 358.39999,441.92001 400.16,442.56"
       style="fill:none;stroke:#000000;stroke-width:26.4;stroke-linecap:round;stroke-linejoin:round;stroke-miterlimit:10;stroke-dasharray:none;stroke-opacity:1"
       transform="translate(-248.13333,-421.80006)"
       clip-path="url(#clipPath8)" />
  </g>
</svg>
