<?xml version="1.0" encoding="UTF-8" standalone="no"?>
<!-- Created with Inkscape (http://www.inkscape.org/) -->

<svg
   version="1.1"
   id="svg1"
   width="294.82666"
   height="245.61333"
   viewBox="0 0 294.82666 245.61333"
   sodipodi:docname="Grain3.pdf"
   xmlns:inkscape="http://www.inkscape.org/namespaces/inkscape"
   xmlns:sodipodi="http://sodipodi.sourceforge.net/DTD/sodipodi-0.dtd"
   xmlns="http://www.w3.org/2000/svg"
   xmlns:svg="http://www.w3.org/2000/svg">
  <defs
     id="defs1">
    <clipPath
       clipPathUnits="userSpaceOnUse"
       id="clipPath2">
      <path
         d="M 0,0.16 V 1122.5601 H 793.59998 V 0.16 Z"
         transform="translate(-245.28,-484.32001)"
         clip-rule="evenodd"
         id="path2" />
    </clipPath>
    <clipPath
       clipPathUnits="userSpaceOnUse"
       id="clipPath4">
      <path
         d="M 0,0.16 V 1122.5601 H 793.59998 V 0.16 Z"
         transform="translate(-396.32001,-559.84002)"
         clip-rule="evenodd"
         id="path4" />
    </clipPath>
    <clipPath
       clipPathUnits="userSpaceOnUse"
       id="clipPath6">
      <path
         d="M 0,0.16 V 1122.5601 H 793.59998 V 0.16 Z"
         transform="translate(3.3333333e-6)"
         clip-rule="evenodd"
         id="path6" />
    </clipPath>
    <clipPath
       clipPathUnits="userSpaceOnUse"
       id="clipPath8">
      <path
         d="M 0,0.16 V 1122.5601 H 793.59998 V 0.16 Z"
         transform="translate(-320.79999,-597.59997)"
         clip-rule="evenodd"
         id="path8" />
    </clipPath>
    <clipPath
       clipPathUnits="userSpaceOnUse"
       id="clipPath10">
      <path
         d="M 0,0.16 V 1122.5601 H 793.59998 V 0.16 Z"
         transform="translate(-471.84,-672)"
         clip-rule="evenodd"
         id="path10" />
    </clipPath>
    <clipPath
       clipPathUnits="userSpaceOnUse"
       id="clipPath12">
      <path
         d="M 0,0.16 V 1122.5601 H 793.59998 V 0.16 Z"
         transform="translate(3.3333333e-6)"
         clip-rule="evenodd"
         id="path12" />
    </clipPath>
  </defs>
  <sodipodi:namedview
     id="namedview1"
     pagecolor="#505050"
     bordercolor="#eeeeee"
     borderopacity="1"
     inkscape:showpageshadow="0"
     inkscape:pageopacity="0"
     inkscape:pagecheckerboard="0"
     inkscape:deskcolor="#505050">
    <inkscape:page
       x="0"
       y="0"
       inkscape:label="1"
       id="page1"
       width="294.82666"
       height="245.61333"
       margin="0"
       bleed="0" />
  </sodipodi:namedview>
  <g
     id="g1"
     inkscape:groupmode="layer"
     inkscape:label="1">
    <path
       id="path1"
       d="M 0,0 0.16,5.44 0.8,10.88 1.76,16.16 3.04,21.280001 4.8,26.4 6.88,31.360001 9.28,36.32 12,40.959999 l 3.04,4.32 3.36,4.16 3.68,4 4,3.68 4.16,3.360001 4.480001,3.04 4.64,2.880002 4.799999,2.400001 4.959999,2.079994 5.120003,1.600006 5.279998,1.439995 5.280003,0.959999 5.279999,0.480004 5.439995,0.159996"
       style="fill:none;stroke:#000000;stroke-width:26.4;stroke-linecap:round;stroke-linejoin:round;stroke-miterlimit:10;stroke-dasharray:none;stroke-opacity:1"
       transform="translate(37.173332,27.826615)"
       clip-path="url(#clipPath2)" />
    <path
       id="path3"
       d="m 0,0 5.28,-0.16 5.28,-0.48 5.28,-0.96 5.280001,-1.28 4.959999,-1.76 4.960001,-1.92 4.799999,-2.4 4.64,-2.72 4.319999,-3.04 4.16,-3.36 4,-3.52 3.68,-4 3.360001,-4 3.040001,-4.480002 2.879997,-4.479999 2.400002,-4.8 2.080002,-4.959999 1.760002,-4.959999 1.439994,-5.120003 0.96,-5.279998 0.639999,-5.279999 0.32,-5.279999"
       style="fill:none;stroke:#000000;stroke-width:26.4;stroke-linecap:round;stroke-linejoin:round;stroke-miterlimit:10;stroke-dasharray:none;stroke-opacity:1"
       transform="translate(188.21334,103.34663)"
       clip-path="url(#clipPath4)" />
    <path
       id="path5"
       d="m 320.79999,559.84003 h 75.52002"
       style="fill:none;stroke:#000000;stroke-width:26.4;stroke-linecap:round;stroke-linejoin:round;stroke-miterlimit:10;stroke-dasharray:none;stroke-opacity:1"
       transform="translate(-208.10667,-456.49339)"
       clip-path="url(#clipPath6)" />
    <path
       id="path7"
       d="M 0,0 -5.44,0.32 -10.72,0.8 -16,1.76 -21.280001,3.04 -26.4,4.8 -31.360001,6.88 -36.16,9.28 -40.799999,12 l -4.48,3.2 -4.16,3.359999 -4,3.680001 -3.68,3.84 -3.360001,4.32 -3.04,4.320001 -2.719998,4.64 -2.400001,4.799999 -2.080002,4.959999 -1.760002,5.120003 -1.279999,5.279998 -0.959999,5.280003 -0.64,5.439995 -0.159996,5.279999"
       style="fill:none;stroke:#000000;stroke-width:26.4;stroke-linecap:round;stroke-linejoin:round;stroke-miterlimit:10;stroke-dasharray:none;stroke-opacity:1"
       transform="translate(112.69332,141.10658)"
       clip-path="url(#clipPath8)" />
    <path
       id="path9"
       d="m 0,0 -0.32,-5.28 -0.64,-5.28 -0.96,-5.28 -1.44,-5.119999 L -5.12,-26.08 -7.2,-30.879999 -9.6,-35.68 l -2.88,-4.64 -3.04,-4.319999 -3.359999,-4.16 -3.68,-3.84 -4,-3.520001 -4.16,-3.36 -4.320002,-3.040001 -4.639999,-2.719998 -4.8,-2.400001 -4.959999,-1.919998 -4.960003,-1.760003 -5.279998,-1.279998 -5.279999,-0.959999 -5.279999,-0.480004 -5.279999,-0.32"
       style="fill:none;stroke:#000000;stroke-width:26.4;stroke-linecap:round;stroke-linejoin:round;stroke-miterlimit:10;stroke-dasharray:none;stroke-opacity:1"
       transform="translate(263.73333,215.50661)"
       clip-path="url(#clipPath10)" />
    <path
       id="path11"
       d="m 320.79999,597.59998 h 75.52002"
       style="fill:none;stroke:#000000;stroke-width:26.4;stroke-linecap:round;stroke-linejoin:round;stroke-miterlimit:10;stroke-dasharray:none;stroke-opacity:1"
       transform="translate(-208.10667,-456.49339)"
       clip-path="url(#clipPath12)" />
  </g>
</svg>
