<?xml version="1.0" encoding="UTF-8" standalone="no"?>
<!-- Created with Inkscape (http://www.inkscape.org/) -->

<svg
   version="1.1"
   id="svg1"
   width="262.81332"
   height="285.65332"
   viewBox="0 0 262.81332 285.65332"
   sodipodi:docname="Grain4.pdf"
   xmlns:inkscape="http://www.inkscape.org/namespaces/inkscape"
   xmlns:sodipodi="http://sodipodi.sourceforge.net/DTD/sodipodi-0.dtd"
   xmlns="http://www.w3.org/2000/svg"
   xmlns:svg="http://www.w3.org/2000/svg">
  <defs
     id="defs1">
    <clipPath
       clipPathUnits="userSpaceOnUse"
       id="clipPath2">
      <path
         d="M 0,0.16 V 1122.5601 H 793.59998 V 0.16 Z"
         transform="translate(-329.28,-466.07999)"
         clip-rule="evenodd"
         id="path2" />
    </clipPath>
    <clipPath
       clipPathUnits="userSpaceOnUse"
       id="clipPath4">
      <path
         d="M 0,0.16 V 1122.5601 H 793.59998 V 0.16 Z"
         transform="translate(-311.35999,-576.47998)"
         clip-rule="evenodd"
         id="path4" />
    </clipPath>
    <clipPath
       clipPathUnits="userSpaceOnUse"
       id="clipPath6">
      <path
         d="M 0,0.16 V 1122.5601 H 793.59998 V 0.16 Z"
         transform="translate(-286.56,-684)"
         clip-rule="evenodd"
         id="path6" />
    </clipPath>
  </defs>
  <sodipodi:namedview
     id="namedview1"
     pagecolor="#505050"
     bordercolor="#eeeeee"
     borderopacity="1"
     inkscape:showpageshadow="0"
     inkscape:pageopacity="0"
     inkscape:pagecheckerboard="0"
     inkscape:deskcolor="#505050">
    <inkscape:page
       x="0"
       y="0"
       inkscape:label="1"
       id="page1"
       width="262.81332"
       height="285.65332"
       margin="0"
       bleed="0" />
  </sodipodi:namedview>
  <g
     id="g1"
     inkscape:groupmode="layer"
     inkscape:label="1">
    <path
       id="path1"
       d="m 0,0 -4.32,-1.28 -4.32,-0.8 -4.48,-0.64 -4.48,-0.16 -4.48,0.16 -4.32,0.48 -4.479999,0.8 -4.160002,1.28 -4.32,1.44 -4,1.92 -3.84,2.08 -3.84,2.4 -3.52,2.88 -3.199997,2.88 -3.040001,3.359999 L -63.68,20.32 -66.080002,24 -68.32,27.84 l -1.919998,4 L -71.68,36 l -1.279999,4.32 -0.959999,4.319999 -0.480004,4.48 -0.159996,4.479999 0.159996,4.480004 0.480004,4.32 0.799995,4.479995 1.280007,4.160004 1.439994,4.32 1.919999,4 2.240005,3.839996 2.399998,3.68 2.720001,3.520005 3.039997,3.36 3.360001,3.040001 3.36,2.719994 3.680001,2.560003 4,2.08 4,1.92 4.16,1.6 4.319999,1.12 4.320002,0.96 4.479999,0.48 4.48,0.16"
       style="fill:none;stroke:#000000;stroke-width:26.4;stroke-linecap:round;stroke-linejoin:round;stroke-miterlimit:10;stroke-dasharray:none;stroke-opacity:1"
       transform="translate(329.28,440.71993)"
       clip-path="url(#clipPath2)" />
    <path
       id="path3"
       d="m 0,0 -4.48,0.16 -4.48,0.48 -4.32,0.96 -4.32,1.12 -4.16,1.6 -4.16,1.92 -3.84,2.24 -3.679999,2.4 -3.52,2.88 -3.360001,3.039999 -3.040001,3.360001 -2.720001,3.52 -2.399998,3.680001 -2.240001,3.84 -1.759999,4.16 L -54.080002,39.52 -55.200001,43.84 -56,48.32 l -0.48,4.479999 -0.159999,4.48 0.159999,4.319999 0.64,4.480004 0.959999,4.479996 1.280003,4.160003 1.599998,4.32 1.919998,4 2.240002,3.839996 2.400001,3.680001 2.879998,3.520004 3.040001,3.199997 3.36,3.040001 3.520001,2.72 3.84,2.4 4,2.08"
       style="fill:none;stroke:#000000;stroke-width:26.4;stroke-linecap:round;stroke-linejoin:round;stroke-miterlimit:10;stroke-dasharray:none;stroke-opacity:1"
       transform="translate(311.35999,551.11992)"
       clip-path="url(#clipPath4)" />
    <path
       id="path5"
       d="m 0,0 7.68,2.72 7.84,2.4 8,1.92 8,1.6 8.16,0.96 8.16,0.64 8.16,0.16 8.32,-0.32 8.160003,-0.8 8,-1.12 8.159996,-1.6 7.840004,-2.08 7.839997,-2.56 7.68,-2.88 7.52,-3.36 7.2,-3.68 7.2,-4.16 6.88,-4.479999 6.56,-4.960001 6.24001,-5.119999 6.07998,-5.600001 5.76001,-5.920002 5.28,-6.239998 5.12,-6.400001"
       style="fill:none;stroke:#000000;stroke-width:26.4;stroke-linecap:round;stroke-linejoin:round;stroke-miterlimit:10;stroke-dasharray:none;stroke-opacity:1"
       transform="translate(286.56,658.63994)"
       clip-path="url(#clipPath6)" />
  </g>
</svg>
