<?xml version="1.0" encoding="UTF-8" standalone="no"?>
<!-- Created with Inkscape (http://www.inkscape.org/) -->

<svg
   version="1.1"
   id="svg1"
   width="254.81332"
   height="329.69333"
   viewBox="0 0 254.81332 329.69333"
   sodipodi:docname="Grain.pdf"
   xmlns:inkscape="http://www.inkscape.org/namespaces/inkscape"
   xmlns:sodipodi="http://sodipodi.sourceforge.net/DTD/sodipodi-0.dtd"
   xmlns="http://www.w3.org/2000/svg"
   xmlns:svg="http://www.w3.org/2000/svg">
  <defs
     id="defs1">
    <clipPath
       clipPathUnits="userSpaceOnUse"
       id="clipPath2">
      <path
         d="M 0,0.16 V 1122.5601 H 793.59998 V 0.16 Z"
         transform="translate(-372.48001,-665.52002)"
         clip-rule="evenodd"
         id="path2" />
    </clipPath>
    <clipPath
       clipPathUnits="userSpaceOnUse"
       id="clipPath4">
      <path
         d="M 0,0.16 V 1122.5601 H 793.59998 V 0.16 Z"
         transform="translate(-338.39999,-514.56)"
         clip-rule="evenodd"
         id="path4" />
    </clipPath>
    <clipPath
       clipPathUnits="userSpaceOnUse"
       id="clipPath6">
      <path
         d="M 0,0.16 V 1122.5601 H 793.59998 V 0.16 Z"
         transform="translate(-421.28,-514.56)"
         clip-rule="evenodd"
         id="path6" />
    </clipPath>
    <clipPath
       clipPathUnits="userSpaceOnUse"
       id="clipPath8">
      <path
         d="M 0,0.16 V 1122.5601 H 793.59998 V 0.16 Z"
         transform="translate(-463.04001,-517.44)"
         clip-rule="evenodd"
         id="path8" />
    </clipPath>
    <clipPath
       clipPathUnits="userSpaceOnUse"
       id="clipPath10">
      <path
         d="M 0,0.16 V 1122.5601 H 793.59998 V 0.16 Z"
         transform="translate(-342.23999,-544.79999)"
         clip-rule="evenodd"
         id="path10" />
    </clipPath>
    <clipPath
       clipPathUnits="userSpaceOnUse"
       id="clipPath12">
      <path
         d="M 0,0.16 V 1122.5601 H 793.59998 V 0.16 Z"
         clip-rule="evenodd"
         id="path12" />
    </clipPath>
  </defs>
  <sodipodi:namedview
     id="namedview1"
     pagecolor="#505050"
     bordercolor="#eeeeee"
     borderopacity="1"
     inkscape:showpageshadow="0"
     inkscape:pageopacity="0"
     inkscape:pagecheckerboard="0"
     inkscape:deskcolor="#505050">
    <inkscape:page
       x="0"
       y="0"
       inkscape:label="1"
       id="page1"
       width="254.81332"
       height="329.69333"
       margin="0"
       bleed="0" />
  </sodipodi:namedview>
  <g
     id="g1"
     inkscape:groupmode="layer"
     inkscape:label="1">
    <path
       id="path1"
       d="m 0,0 c 0,-33.349998 -27.040001,-60.400002 -60.400002,-60.400002 -33.36,0 -60.399998,27.050004 -60.399998,60.400002 0,33.349998 27.039998,60.400002 60.399998,60.400002 C -27.040001,60.400002 0,33.349998 0,0 Z"
       style="fill:none;stroke:#000000;stroke-width:26.4;stroke-linecap:round;stroke-linejoin:round;stroke-miterlimit:10;stroke-dasharray:none;stroke-opacity:1"
       transform="translate(372.48001,633.47996)"
       clip-path="url(#clipPath2)" />
    <path
       id="path3"
       d="m 0,0 -0.16,-4 -0.16,-4 -0.32,-3.84 -0.64,-3.68 -0.64,-3.680001 -0.8,-3.519998 L -3.84,-26.08 -4.8,-29.280001 -6.08,-32.16 l -1.28,-2.560001 -1.44,-2.399998 -1.6,-2.240002 -1.6,-1.759998 -1.6,-1.600002 -1.76,-1.119999 -1.760001,-0.799999 -1.92,-0.48 -1.759998,-0.16 -1.76,0.16 -1.760001,0.48 -1.76,0.799999 -1.76,1.279999 -1.76,1.440002 -1.600001,1.919998 -1.439998,2.080002 -1.440003,2.399998 -1.279999,2.720001 -1.279998,2.879999 -1.119999,3.200001 -0.960003,3.360001 -0.799999,3.519998 -0.64,3.680001 -0.639999,3.84 -0.32,3.84 -0.32,3.84"
       style="fill:none;stroke:#000000;stroke-width:26.4;stroke-linecap:round;stroke-linejoin:round;stroke-miterlimit:10;stroke-dasharray:none;stroke-opacity:1"
       transform="translate(338.39999,482.51994)"
       clip-path="url(#clipPath4)" />
    <path
       id="path5"
       d="M 0,0 -0.16,-5.44 -0.48,-10.72 -0.96,-16.16 -1.6,-21.280001 -2.56,-26.4 -3.68,-31.360001 -5.12,-36.16 l -1.44,-4.639999 -1.76,-4.48 -1.76,-4.16 -2.08,-4 -2.08,-3.68 -2.399999,-3.360001 -2.400002,-3.04 -2.559999,-2.719998 -2.56,-2.560005 -2.719999,-1.919998 -2.880001,-1.760002 -2.879999,-1.279999 -2.880001,-0.959999 -3.040001,-0.64 -2.879998,-0.159996 -2.880001,0.159996 -3.040001,0.64 -2.880001,0.959999 -2.879997,1.279999 -2.880001,1.760002 -2.720001,1.919998 -2.559998,2.560005 L -63.84,-63.52 l -2.399998,3.04 -2.400001,3.360001 -2.080002,3.68 -2.080002,4 -1.759995,4.16 -1.760002,4.48 -1.440002,4.639999 -1.439995,4.799999 L -80.32,-26.4 l -0.959999,5.119999 -0.639999,5.120001 -0.480004,5.44 -0.319999,5.28 -0.159996,5.44"
       style="fill:none;stroke:#000000;stroke-width:26.4;stroke-linecap:round;stroke-linejoin:round;stroke-miterlimit:10;stroke-dasharray:none;stroke-opacity:1"
       transform="translate(421.28,482.51994)"
       clip-path="url(#clipPath6)" />
    <path
       id="path7"
       d="m 0,0 v -4 l -0.32,-3.84 -0.32,-3.84 -0.64,-3.84 -0.64,-3.680001 -0.8,-3.519998 L -3.68,-26.08 -4.8,-29.120001 -6.08,-32 l -1.28,-2.720001 -1.44,-2.399998 -1.6,-2.080002 -1.6,-1.919998 -1.6,-1.440002 -1.76,-1.279999 -1.760001,-0.799999 -1.759998,-0.48 -1.92,-0.16 -1.76,0.16 -1.760001,0.48 -1.76,0.959999 -1.76,1.119999 -1.76,1.600002 -1.600001,1.759998 -1.439998,2.240002 -1.440003,2.399998 -1.279999,2.560001 -1.279998,3.040001 -1.119999,3.039999 -0.960003,3.360001 -0.799999,3.519998 -0.64,3.680001 -0.639999,3.84 -0.32,3.84 -0.32,4"
       style="fill:none;stroke:#000000;stroke-width:26.4;stroke-linecap:round;stroke-linejoin:round;stroke-miterlimit:10;stroke-dasharray:none;stroke-opacity:1"
       transform="translate(463.04001,485.39994)"
       clip-path="url(#clipPath8)" />
    <path
       id="path9"
       d="m 0,0 0.16,3.36 0.48,3.36 0.64,3.36 1.12,3.36 1.28,3.199999 1.76,2.880001 1.92,2.88 2.08,2.720001 2.4,2.399999 2.72,2.24 2.720001,1.92 3.039999,1.759999 3.2,1.440002 L 26.719999,36 30.08,36.799999 l 3.359999,0.48 3.52,0.16 3.360001,-0.16 3.36,-0.48 L 47.040001,36 50.400002,34.880001 53.439999,33.439999 56.48,31.68 59.360001,29.76 61.919998,27.52 64.32,25.120001 66.559998,22.4 68.480003,19.68 70.080002,16.639999 71.519997,13.44 72.480003,10.08 73.279999,6.88 73.760002,3.36 V 0"
       style="fill:none;stroke:#000000;stroke-width:26.4;stroke-linecap:round;stroke-linejoin:round;stroke-miterlimit:10;stroke-dasharray:none;stroke-opacity:1"
       transform="translate(342.23999,512.75993)"
       clip-path="url(#clipPath10)" />
    <path
       id="path11"
       d="M 379.20001,582.23999 312,605.12"
       style="fill:none;stroke:#000000;stroke-width:26.4;stroke-linecap:round;stroke-linejoin:round;stroke-miterlimit:10;stroke-dasharray:none;stroke-opacity:1"
       transform="translate(0,-32.040059)"
       clip-path="url(#clipPath12)" />
  </g>
</svg>
