<?xml version="1.0" encoding="UTF-8" standalone="no"?>
<!-- Created with Inkscape (http://www.inkscape.org/) -->

<svg
   version="1.1"
   id="svg1"
   width="504.26666"
   height="505.89334"
   viewBox="0 0 504.26666 505.89334"
   sodipodi:docname="HalfOunce3.pdf"
   xmlns:inkscape="http://www.inkscape.org/namespaces/inkscape"
   xmlns:sodipodi="http://sodipodi.sourceforge.net/DTD/sodipodi-0.dtd"
   xmlns="http://www.w3.org/2000/svg"
   xmlns:svg="http://www.w3.org/2000/svg">
  <defs
     id="defs1">
    <clipPath
       clipPathUnits="userSpaceOnUse"
       id="clipPath2">
      <path
         d="M 0,0.16 V 1122.5601 H 793.59998 V 0.16 Z"
         clip-rule="evenodd"
         id="path2" />
    </clipPath>
    <clipPath
       clipPathUnits="userSpaceOnUse"
       id="clipPath4">
      <path
         d="M 0,0.16 V 1122.5601 H 793.59998 V 0.16 Z"
         clip-rule="evenodd"
         id="path4" />
    </clipPath>
    <clipPath
       clipPathUnits="userSpaceOnUse"
       id="clipPath6">
      <path
         d="M 0,0.16 V 1122.5601 H 793.59998 V 0.16 Z"
         transform="translate(-188.96001,-745.44001)"
         clip-rule="evenodd"
         id="path6" />
    </clipPath>
    <clipPath
       clipPathUnits="userSpaceOnUse"
       id="clipPath8">
      <path
         d="M 0,0.16 V 1122.5601 H 793.59998 V 0.16 Z"
         transform="translate(-264.95999,-551.84003)"
         clip-rule="evenodd"
         id="path8" />
    </clipPath>
    <clipPath
       clipPathUnits="userSpaceOnUse"
       id="clipPath10">
      <path
         d="M 0,0.16 V 1122.5601 H 793.59998 V 0.16 Z"
         clip-rule="evenodd"
         id="path10" />
    </clipPath>
    <clipPath
       clipPathUnits="userSpaceOnUse"
       id="clipPath12">
      <path
         d="M 0,0.16 V 1122.5601 H 793.59998 V 0.16 Z"
         clip-rule="evenodd"
         id="path12" />
    </clipPath>
    <clipPath
       clipPathUnits="userSpaceOnUse"
       id="clipPath14">
      <path
         d="M 0,0.16 V 1122.5601 H 793.59998 V 0.16 Z"
         clip-rule="evenodd"
         id="path14" />
    </clipPath>
    <clipPath
       clipPathUnits="userSpaceOnUse"
       id="clipPath16">
      <path
         d="M 0,0.16 V 1122.5601 H 793.59998 V 0.16 Z"
         transform="translate(-480,-551.84003)"
         clip-rule="evenodd"
         id="path16" />
    </clipPath>
    <clipPath
       clipPathUnits="userSpaceOnUse"
       id="clipPath18">
      <path
         d="M 0,0.16 V 1122.5601 H 793.59998 V 0.16 Z"
         transform="translate(-551.67999,-551.84003)"
         clip-rule="evenodd"
         id="path18" />
    </clipPath>
  </defs>
  <sodipodi:namedview
     id="namedview1"
     pagecolor="#505050"
     bordercolor="#eeeeee"
     borderopacity="1"
     inkscape:showpageshadow="0"
     inkscape:pageopacity="0"
     inkscape:pagecheckerboard="0"
     inkscape:deskcolor="#505050">
    <inkscape:page
       x="0"
       y="0"
       inkscape:label="1"
       id="page1"
       width="504.26666"
       height="505.89334"
       margin="0"
       bleed="0" />
  </sodipodi:namedview>
  <g
     id="g1"
     inkscape:groupmode="layer"
     inkscape:label="1">
    <path
       id="path1"
       d="m 186.88,334.72 228,1.28"
       style="fill:none;stroke:#000000;stroke-width:26.4;stroke-linecap:round;stroke-linejoin:round;stroke-miterlimit:10;stroke-dasharray:none;stroke-opacity:1"
       transform="translate(-140.08,-305.66673)"
       clip-path="url(#clipPath2)" />
    <path
       id="path3"
       d="M 414.88,336 188.96001,541.44"
       style="fill:none;stroke:#000000;stroke-width:26.4;stroke-linecap:round;stroke-linejoin:round;stroke-miterlimit:10;stroke-dasharray:none;stroke-opacity:1"
       transform="translate(-140.08,-305.66673)"
       clip-path="url(#clipPath4)" />
    <path
       id="path5"
       d="m 0,0 5.92,5.76 6.08,5.12 6.4,4.96 6.720001,4.48 7.039999,4 7.040001,3.84 7.36,3.200001 7.520001,2.880001 7.679996,2.559997 7.84,1.920002 7.840004,1.599999 8,1.119999 8,0.800003 7.999998,0.16 8,-0.16 8,-0.800003 8,-1.119999 7.84,-1.599999 7.83999,-1.920002 7.68001,-2.559997 7.52001,-2.880001 7.35998,-3.200001 7.04001,-3.84 7.03999,-4 6.56002,-4.48 6.39999,-4.96 6.24001,-5.12 5.75999,-5.6 5.60001,-5.92 5.11999,-6.24 4.95999,-6.4 4.32001,-6.720001 4.16,-7.039999 3.68,-7.200001 3.36,-7.36 2.88,-7.520001 2.4,-7.84 1.91999,-7.839996 1.60001,-7.840004 1.12,-8 0.64,-8.159996 0.32,-8.000002 -0.32,-8.16 -0.64,-8 -1.12,-8 -1.60001,-8 -1.91999,-7.84 -2.4,-7.68001 -2.88,-7.67999 -3.36,-7.36 -3.68,-7.2 -4.16,-6.88 -4.32001,-6.72 -4.95999,-6.56 -5.11999,-6.24 -5.60001,-5.76 -5.75999,-5.60001 -6.24001,-5.27999 -6.39999,-4.79999 -6.56002,-4.48001 -7.03999,-4.16001 -7.04001,-3.67999 -7.35998,-3.36 -7.52001,-2.88 -7.68001,-2.4 -7.83999,-2.08 -7.84,-1.60001 -8,-1.11999 -8,-0.64 -8,-0.31999 -7.999998,0.31999 -8,0.64 -8,1.11999 -7.840004,1.60001 -7.84,2.08 -7.679996,2.4 -7.520001,2.88 -7.36,3.36 L 32.16,-228.32001 25.120001,-224.16 18.4,-219.67999 12,-214.88 5.92,-209.60001 0,-204.16"
       style="fill:none;stroke:#000000;stroke-width:26.4;stroke-linecap:round;stroke-linejoin:round;stroke-miterlimit:10;stroke-dasharray:none;stroke-opacity:1"
       transform="translate(48.880007,439.77328)"
       clip-path="url(#clipPath6)" />
    <path
       id="path7"
       d="M 0,0 -7.04,2.4 -14.08,4.96 -20.799999,8 -27.52,11.52 -33.919998,15.36 -40.16,19.52 -46.080002,24 -51.84,28.959999 l -5.279999,5.120003 -5.120003,5.599998 -4.799999,5.759999 -4.479996,6.080001 -4,6.239998 -3.68,6.560002 -3.360001,6.720001 -3.04,6.879997 -2.560006,7.040001 -2.079994,7.200005 L -92,99.519997 -93.279999,106.88 l -0.800003,7.52 -0.479996,7.52 v 7.52 l 0.32,7.52001 0.799996,7.51999 1.279998,7.36 1.760002,7.36 2.080002,7.19999 2.559998,7.04001 2.880005,7.04 3.199997,6.72 3.68,6.40001"
       style="fill:none;stroke:#000000;stroke-width:26.4;stroke-linecap:round;stroke-linejoin:round;stroke-miterlimit:10;stroke-dasharray:none;stroke-opacity:1"
       transform="translate(124.87999,246.1733)"
       clip-path="url(#clipPath8)" />
    <path
       id="path9"
       d="M 265.12,552 480,497.76001"
       style="fill:none;stroke:#000000;stroke-width:26.4;stroke-linecap:round;stroke-linejoin:round;stroke-miterlimit:10;stroke-dasharray:none;stroke-opacity:1"
       transform="translate(-140.08,-305.66673)"
       clip-path="url(#clipPath10)" />
    <path
       id="path11"
       d="M 480,497.76001 V 552"
       style="fill:none;stroke:#000000;stroke-width:26.4;stroke-linecap:round;stroke-linejoin:round;stroke-miterlimit:10;stroke-dasharray:none;stroke-opacity:1"
       transform="translate(-140.08,-305.66673)"
       clip-path="url(#clipPath12)" />
    <path
       id="path13"
       d="M 551.67999,479.84 V 552"
       style="fill:none;stroke:#000000;stroke-width:26.4;stroke-linecap:round;stroke-linejoin:round;stroke-miterlimit:10;stroke-dasharray:none;stroke-opacity:1"
       transform="translate(-140.08,-305.66673)"
       clip-path="url(#clipPath14)" />
    <path
       id="path15"
       d="m 0,0 0.16,3.52 0.48,3.2 0.8,3.2 0.96,3.2 1.44,3.04 1.6,2.880001 1.92,2.879999 2.08,2.56 2.24,2.239999 2.56,2.24 2.719999,1.92 L 19.84,32.48 22.879999,33.759998 26.08,34.880001 29.280001,35.52 32.639999,36 35.84,36.16 39.200001,36 42.400002,35.52 45.759998,34.880001 48.799999,33.759998 51.84,32.48 l 2.880001,-1.600001 2.719998,-1.92 L 60,26.719999 62.400002,24.48 64.480003,21.92 66.400002,19.040001 68,16.16 69.279999,13.12 70.400002,9.92 71.040001,6.72 71.519997,3.52 71.68,0"
       style="fill:none;stroke:#000000;stroke-width:26.4;stroke-linecap:round;stroke-linejoin:round;stroke-miterlimit:10;stroke-dasharray:none;stroke-opacity:1"
       transform="translate(339.92,246.1733)"
       clip-path="url(#clipPath16)" />
    <path
       id="path17"
       d="m 0,0 0.16,3.36 0.48,3.36 0.8,3.2 0.96,3.2 1.28,3.04 1.6,2.880001 1.92,2.719999 2.08,2.56 2.24,2.399999 2.56,2.08 2.719999,1.92 L 19.68,32.32 22.719999,33.599998 25.76,34.720001 28.959999,35.52 32.16,36 l 3.36,0.16 h 3.200001 l 3.360001,-0.48 3.199997,-0.799999 3.040001,-0.960003 3.040001,-1.279999 2.880001,-1.599998 2.879997,-1.76 2.560001,-2.08 2.239998,-2.400002 L 64,22.24"
       style="fill:none;stroke:#000000;stroke-width:26.4;stroke-linecap:round;stroke-linejoin:round;stroke-miterlimit:10;stroke-dasharray:none;stroke-opacity:1"
       transform="translate(411.59999,246.1733)"
       clip-path="url(#clipPath18)" />
  </g>
</svg>
