<?xml version="1.0" encoding="UTF-8" standalone="no"?>
<!-- Created with Inkscape (http://www.inkscape.org/) -->

<svg
   version="1.1"
   id="svg1"
   width="509.61334"
   height="361.72"
   viewBox="0 0 509.61334 361.72"
   sodipodi:docname="Ounce2.pdf"
   xmlns:inkscape="http://www.inkscape.org/namespaces/inkscape"
   xmlns:sodipodi="http://sodipodi.sourceforge.net/DTD/sodipodi-0.dtd"
   xmlns="http://www.w3.org/2000/svg"
   xmlns:svg="http://www.w3.org/2000/svg">
  <defs
     id="defs1">
    <clipPath
       clipPathUnits="userSpaceOnUse"
       id="clipPath2">
      <path
         d="M 0,0.16 V 1122.5601 H 793.59998 V 0.16 Z"
         transform="translate(-307.35999,-790.40003)"
         clip-rule="evenodd"
         id="path2" />
    </clipPath>
    <clipPath
       clipPathUnits="userSpaceOnUse"
       id="clipPath4">
      <path
         d="M 0,0.16 V 1122.5601 H 793.59998 V 0.16 Z"
         clip-rule="evenodd"
         id="path4" />
    </clipPath>
    <clipPath
       clipPathUnits="userSpaceOnUse"
       id="clipPath6">
      <path
         d="M 0,0.16 V 1122.5601 H 793.59998 V 0.16 Z"
         clip-rule="evenodd"
         id="path6" />
    </clipPath>
    <clipPath
       clipPathUnits="userSpaceOnUse"
       id="clipPath8">
      <path
         d="M -13.44,-169.92 H 241.60001 V 92 H -13.44 Z"
         clip-rule="evenodd"
         id="path8" />
    </clipPath>
    <clipPath
       clipPathUnits="userSpaceOnUse"
       id="clipPath10">
      <path
         d="M 0,0.16 V 1122.5601 H 793.59998 V 0.16 Z"
         clip-rule="evenodd"
         id="path10" />
    </clipPath>
    <clipPath
       clipPathUnits="userSpaceOnUse"
       id="clipPath12">
      <path
         d="M 0,0.16 V 1122.5601 H 793.59998 V 0.16 Z"
         clip-rule="evenodd"
         id="path12" />
    </clipPath>
  </defs>
  <sodipodi:namedview
     id="namedview1"
     pagecolor="#505050"
     bordercolor="#eeeeee"
     borderopacity="1"
     inkscape:showpageshadow="0"
     inkscape:pageopacity="0"
     inkscape:pagecheckerboard="0"
     inkscape:deskcolor="#505050">
    <inkscape:page
       x="0"
       y="0"
       inkscape:label="1"
       id="page1"
       width="509.61334"
       height="361.72"
       margin="0"
       bleed="0" />
  </sodipodi:namedview>
  <g
     id="g1"
     inkscape:groupmode="layer"
     inkscape:label="1">
    <path
       id="path1"
       d="m 0,0 2.56,6.72 3.04,6.4 3.36,6.4 3.68,6.08 4.159999,5.760001 4.480002,5.599998 L 26.08,42.240002 31.040001,47.360001 36.48,52 42.080002,56.32 48,60.32 54.240002,64 l 6.399997,3.199997 6.400002,2.880005 6.720001,2.400001 6.879997,2.079995 6.879998,1.600006 7.040001,1.279998 7.200002,0.64 7.04,0.479996 7.2,-0.159996 7.04,-0.480004 7.2,-0.959999 6.87999,-1.440002 7.04001,-1.759995 6.72,-2.240005 6.56,-2.719994 6.56,-3.040001 6.24,-3.36 6.08001,-3.840001 5.75999,-4.159999 5.59999,-4.480004 5.28002,-4.799999 L 197.75999,40 l 4.64,-5.439999 4.32001,-5.760002 4,-5.92 3.52,-6.08 3.2,-6.399999 2.88001,-6.56 2.39999,-6.72 1.92,-6.88 1.6,-7.039999 1.12,-7.040001 0.64,-7.039999 0.32001,-7.200003 -0.16001,-7.039997 -0.64,-7.200001 -0.96,-7.040001 -1.44001,-7.040001 L 223.2,-73.279999 220.96001,-80 218.24,-86.559998 215.2,-92.959999 211.67999,-99.199997 207.84,-105.28 l -4.16001,-5.76 -4.64,-5.44 -4.79999,-5.28 -5.27999,-4.96 -5.44001,-4.48 -5.76001,-4.32 -5.91999,-3.84 -6.23999,-3.52 -6.40001,-3.2 -6.56,-2.72 -6.72,-2.23999 -6.88001,-1.92002 L 132,-154.56 l -7.04,-0.96 -7.2,-0.64 -7.04,-0.32 -7.2,0.32 -7.039997,0.64 -7.040001,1.12001 -7.04,1.43998 -6.880005,1.92002"
       style="fill:none;stroke:#000000;stroke-width:26.4;stroke-linecap:round;stroke-linejoin:round;stroke-miterlimit:10;stroke-dasharray:none;stroke-opacity:1"
       transform="translate(307.35999,483.39997)"
       clip-path="url(#clipPath2)" />
    <path
       id="path3"
       d="M 382.88,639.35998 533.91998,563.84003"
       style="fill:none;stroke:#000000;stroke-width:26.4;stroke-linecap:round;stroke-linejoin:round;stroke-miterlimit:10;stroke-dasharray:none;stroke-opacity:1"
       transform="translate(0,-307.00006)"
       clip-path="url(#clipPath4)" />
    <path
       id="path5"
       d="M 533.91998,563.84003 H 307.35999"
       style="fill:none;stroke:#000000;stroke-width:26.4;stroke-linecap:round;stroke-linejoin:round;stroke-miterlimit:10;stroke-dasharray:none;stroke-opacity:1"
       transform="translate(0,-307.00006)"
       clip-path="url(#clipPath6)" />
    <path
       id="path7"
       d="m 0,0 2.56,6.72 2.88,6.4 3.36,6.240001 3.84,6.08 3.999999,5.92 4.480002,5.599998 L 25.92,42.240002 31.040001,47.200001 36.48,52 l 5.600002,4.32 5.919998,4 6.080002,3.52 6.399998,3.359997 6.560001,2.880005 6.720001,2.400001 6.720001,2.079995 7.039994,1.600006 7.040001,1.119995 7.040002,0.800003 7.2,0.32 h 7.04 l 7.2,-0.64 7.04,-0.959999 7.03999,-1.280006 6.88001,-1.919999 6.72,-2.080001 6.72,-2.719994 6.4,-3.040001 6.24,-3.36 6.08,-3.840001 5.76,-4.159999 5.6,-4.480004 5.28,-4.799999 L 197.75999,40 l 4.64,-5.439999 4.32001,-5.760002 3.84,-5.92 3.68,-6.24 3.2,-6.399999 2.72,-6.56 2.4,-6.72 2.08,-6.72 1.44,-7.039999 1.12,-7.040001 0.8,-7.039999 0.32001,-7.200003 -0.16001,-7.199997 -0.64,-7.040001 -1.12001,-7.040001 -1.43998,-7.040001 L 223.2,-73.279999 220.8,-80 l -2.72,-6.559998 -3.04001,-6.560005 -3.51999,-6.239998 -3.84001,-5.919999 -4.15999,-5.76 -4.48001,-5.6 -4.95999,-5.12 -5.11999,-4.96 -5.44001,-4.64 -5.76001,-4.16 -6.08,-3.84 -6.07998,-3.52 -6.56002,-3.2 -6.55999,-2.72 -6.72001,-2.4 -6.87999,-1.91999 -6.88,-1.44001 -7.2,-1.11999 -7.04,-0.64002 -7.2,-0.15999 -7.04,0.15999 -7.2,0.80001 -7.040001,0.96 -6.879997,1.59999 -6.880005,1.92002"
       style="fill:none;stroke:#000000;stroke-width:26.4;stroke-linecap:round;stroke-linejoin:round;stroke-miterlimit:10;stroke-dasharray:none;stroke-opacity:1"
       transform="translate(552,481.95996)"
       clip-path="url(#clipPath8)" />
    <path
       id="path9"
       d="M 627.52002,637.91998 778.56,562.40002"
       style="fill:none;stroke:#000000;stroke-width:26.4;stroke-linecap:round;stroke-linejoin:round;stroke-miterlimit:10;stroke-dasharray:none;stroke-opacity:1"
       transform="translate(0,-307.00006)"
       clip-path="url(#clipPath10)" />
    <path
       id="path11"
       d="M 778.56,562.40002 H 552"
       style="fill:none;stroke:#000000;stroke-width:26.4;stroke-linecap:round;stroke-linejoin:round;stroke-miterlimit:10;stroke-dasharray:none;stroke-opacity:1"
       transform="translate(0,-307.00006)"
       clip-path="url(#clipPath12)" />
  </g>
</svg>
