<?xml version="1.0" encoding="UTF-8" standalone="no"?>
<!-- Created with Inkscape (http://www.inkscape.org/) -->

<svg
   version="1.1"
   id="svg1"
   width="465.57333"
   height="503.22668"
   viewBox="0 0 465.57333 503.22668"
   sodipodi:docname="Ounce5.pdf"
   xmlns:inkscape="http://www.inkscape.org/namespaces/inkscape"
   xmlns:sodipodi="http://sodipodi.sourceforge.net/DTD/sodipodi-0.dtd"
   xmlns="http://www.w3.org/2000/svg"
   xmlns:svg="http://www.w3.org/2000/svg">
  <defs
     id="defs1">
    <clipPath
       clipPathUnits="userSpaceOnUse"
       id="clipPath2">
      <path
         d="M 0,0.16 V 1122.5601 H 793.59998 V 0.16 Z"
         transform="translate(-253.28,-500.79999)"
         clip-rule="evenodd"
         id="path2" />
    </clipPath>
    <clipPath
       clipPathUnits="userSpaceOnUse"
       id="clipPath4">
      <path
         d="M 0,0.16 V 1122.5601 H 793.59998 V 0.16 Z"
         transform="translate(3.3333334e-6)"
         clip-rule="evenodd"
         id="path4" />
    </clipPath>
    <clipPath
       clipPathUnits="userSpaceOnUse"
       id="clipPath6">
      <path
         d="M 0,0.16 V 1122.5601 H 793.59998 V 0.16 Z"
         transform="translate(-343.51999,-495.35999)"
         clip-rule="evenodd"
         id="path6" />
    </clipPath>
    <clipPath
       clipPathUnits="userSpaceOnUse"
       id="clipPath8">
      <path
         d="M 0,0.16 V 1122.5601 H 793.59998 V 0.16 Z"
         transform="translate(-226.08,-334.72)"
         clip-rule="evenodd"
         id="path8" />
    </clipPath>
    <clipPath
       clipPathUnits="userSpaceOnUse"
       id="clipPath10">
      <path
         d="M 0,0.16 V 1122.5601 H 793.59998 V 0.16 Z"
         transform="translate(3.3333334e-6)"
         clip-rule="evenodd"
         id="path10" />
    </clipPath>
    <clipPath
       clipPathUnits="userSpaceOnUse"
       id="clipPath12">
      <path
         d="M 0,0.16 V 1122.5601 H 793.59998 V 0.16 Z"
         transform="translate(3.3333334e-6)"
         clip-rule="evenodd"
         id="path12" />
    </clipPath>
    <clipPath
       clipPathUnits="userSpaceOnUse"
       id="clipPath14">
      <path
         d="M 0,0.16 V 1122.5601 H 793.59998 V 0.16 Z"
         transform="translate(-452.64002,-565.44001)"
         clip-rule="evenodd"
         id="path14" />
    </clipPath>
  </defs>
  <sodipodi:namedview
     id="namedview1"
     pagecolor="#505050"
     bordercolor="#eeeeee"
     borderopacity="1"
     inkscape:showpageshadow="0"
     inkscape:pageopacity="0"
     inkscape:pagecheckerboard="0"
     inkscape:deskcolor="#505050">
    <inkscape:page
       x="0"
       y="0"
       inkscape:label="1"
       id="page1"
       width="465.57333"
       height="503.22668"
       margin="0"
       bleed="0" />
  </sodipodi:namedview>
  <g
     id="g1"
     inkscape:groupmode="layer"
     inkscape:label="1">
    <path
       id="path1"
       d="m 0,0 -5.44,3.68 -5.28,4.16 -4.96,4.48 -4.8,4.800001 L -25.280001,22.4 -29.6,28 l -4.319998,5.759998 -3.84,6.240002 -3.84,6.400002 -3.360001,6.719997 L -48.16,60.16 l -2.880001,7.039997 -2.559997,7.360001 -2.400002,7.68 -1.919998,7.68 -1.760002,7.840004 -1.439999,7.999998 -0.960003,8 -0.799999,8.16 -0.32,8.16 -0.16,8.16 0.32,8.15999 0.639999,8.16001 0.800004,8 1.279998,8 1.439999,8 1.920002,7.68 2.239998,7.68 2.400001,7.52 2.720002,7.2 3.039997,7.03999 3.36,6.88001 3.680001,6.55999 3.84,6.24001 4,6.08 4.319999,5.59999 4.640002,5.44001 4.799999,4.96 4.96,4.79999 5.12,4.32001 5.28,3.83999 5.44,3.52002 5.6,3.19999 5.76,2.72 5.76,2.23999 5.92,1.92001 5.92,1.44 5.919998,0.95999 L 43.84,286.88 49.919998,287.04001 56,286.72 l 5.919998,-0.79999 6.080002,-1.28 5.919998,-1.6 5.760002,-2.08002 5.760002,-2.39999 5.599999,-3.04001 5.599998,-3.19998 5.440001,-3.84 5.12,-4.16 5.12,-4.48001 4.8,-4.80001 4.64,-5.11999 4.48,-5.59999 4.15999,-5.92002 4,-6.07998 3.84001,-6.40001 3.36001,-6.72 3.19999,-7.04 2.87999,-7.04001 2.72,-7.36 2.24001,-7.67999 2.08,-7.68001 1.60001,-7.83999 1.43998,-8 1.12001,-8 0.64,-8 0.48,-8.16001 0.16,-8.31999 -0.32,-8.16 -0.48,-8 -0.96001,-8.16 -1.28,-8 -1.44,-7.840002 -1.92,-7.839996 -2.08,-7.68 L 149.28,70.879997 146.39999,63.68 143.36,56.639999 l -3.2,-6.880001 -3.68,-6.559997 -3.84,-6.240002 -4,-6.08 -4.32,-5.759998 -4.64,-5.280001 -4.8,-5.12 -4.8,-4.64 -5.28,-4.32 -5.280003,-4 -5.439995,-3.52"
       style="fill:none;stroke:#000000;stroke-width:26.4;stroke-linecap:round;stroke-linejoin:round;stroke-miterlimit:10;stroke-dasharray:none;stroke-opacity:1"
       transform="translate(87.853332,191.13326)"
       clip-path="url(#clipPath2)" />
    <path
       id="path3"
       d="M 254.39999,499.04001 414.88,372.48001"
       style="fill:none;stroke:#000000;stroke-width:26.4;stroke-linecap:round;stroke-linejoin:round;stroke-miterlimit:10;stroke-dasharray:none;stroke-opacity:1"
       transform="translate(-165.42667,-309.66673)"
       clip-path="url(#clipPath4)" />
    <path
       id="path5"
       d="M 0,0 -11.84,-10.88 -24,-21.6 -36.48,-31.84 -49.279999,-41.599998 -62.400002,-51.200001 -75.839996,-60.16 l -13.600006,-8.799999 -13.759998,-8.32 -14.24,-7.840004"
       style="fill:none;stroke:#000000;stroke-width:26.4;stroke-linecap:round;stroke-linejoin:round;stroke-miterlimit:10;stroke-dasharray:none;stroke-opacity:1"
       transform="translate(178.09332,185.69326)"
       clip-path="url(#clipPath6)" />
    <path
       id="path7"
       d="m 0,0 -3.2,2.72 -2.88,2.88 -2.72,3.2 -2.4,3.36 -2.08,3.52 -1.92,3.84 -1.439999,3.840001 L -17.6,27.52 l -0.8,4 -0.319999,4.16 v 4.16 L -18.4,44 l 0.8,4.16 0.960001,4 L -15.2,56 l 1.92,3.84 2.08,3.520001 2.4,3.519996 2.72,3.040001 2.88,3.040001 3.2,2.559998"
       style="fill:none;stroke:#000000;stroke-width:26.4;stroke-linecap:round;stroke-linejoin:round;stroke-miterlimit:10;stroke-dasharray:none;stroke-opacity:1"
       transform="translate(60.653335,25.053276)"
       clip-path="url(#clipPath8)" />
    <path
       id="path9"
       d="M 603.67999,338.88 H 452.64001"
       style="fill:none;stroke:#000000;stroke-width:26.4;stroke-linecap:round;stroke-linejoin:round;stroke-miterlimit:10;stroke-dasharray:none;stroke-opacity:1"
       transform="translate(-165.42667,-309.66673)"
       clip-path="url(#clipPath10)" />
    <path
       id="path11"
       d="M 452.64001,338.88 V 452.16"
       style="fill:none;stroke:#000000;stroke-width:26.4;stroke-linecap:round;stroke-linejoin:round;stroke-miterlimit:10;stroke-dasharray:none;stroke-opacity:1"
       transform="translate(-165.42667,-309.66673)"
       clip-path="url(#clipPath12)" />
    <path
       id="path13"
       d="m 0,0 4,4.32 4.32,4 4.64,3.68 4.8,3.36 4.959999,3.04 L 28,21.120001 33.439999,23.52 l 5.440002,1.920001 5.759998,1.6 L 50.400002,28.32 56.16,28.959999 62.080002,29.440001 H 68 L 73.760002,28.959999 79.68,28.16 l 5.760002,-1.119999 5.599999,-1.6 L 96.639999,23.52 101.92,21.120001 107.2,18.4 l 4.96,-3.04 4.8,-3.36 4.64,-3.68 4.32,-4 4,-4.32 3.68001,-4.64 3.36,-4.8 3.03999,-4.96 2.72,-5.28 2.39999,-5.440001 1.92,-5.439998 1.60001,-5.760001 1.28,-5.760002 0.8,-5.759998 0.31999,-5.919998 V -59.52 l -0.31999,-5.920002 -0.8,-5.759995 -1.28,-5.760002 -1.60001,-5.760002 -1.92,-5.440003 -2.39999,-5.439994 -2.72,-5.279999 -3.03999,-4.960003 -3.36,-4.8 -3.68001,-4.64 -4,-4.32 -4.32,-4 -4.64,-3.68 -4.8,-3.36 -4.96,-3.03999 -5.28,-2.72 -5.280001,-2.40001 -5.599998,-1.92 -5.599999,-1.60001 -5.760002,-1.28 -5.919998,-0.79998 L 68,-142.72 h -5.919998 l -5.920002,0.32001 -5.759998,0.79998 -5.760003,1.28 -5.759998,1.60001 -5.440002,1.92 -5.439999,2.40001 -5.280001,2.72 -4.959999,3.03999 -4.8,3.36 -4.64,3.68 -4.32,4 -4,4.32"
       style="fill:none;stroke:#000000;stroke-width:26.4;stroke-linecap:round;stroke-linejoin:round;stroke-miterlimit:10;stroke-dasharray:none;stroke-opacity:1"
       transform="translate(287.21335,255.77328)"
       clip-path="url(#clipPath14)" />
  </g>
</svg>
