<?xml version="1.0" encoding="UTF-8" standalone="no"?>
<!-- Created with Inkscape (http://www.inkscape.org/) -->

<svg
   version="1.1"
   id="svg1"
   width="268.13333"
   height="197.54668"
   viewBox="0 0 268.13333 197.54668"
   sodipodi:docname="Ounce3.pdf"
   xmlns:inkscape="http://www.inkscape.org/namespaces/inkscape"
   xmlns:sodipodi="http://sodipodi.sourceforge.net/DTD/sodipodi-0.dtd"
   xmlns="http://www.w3.org/2000/svg"
   xmlns:svg="http://www.w3.org/2000/svg">
  <defs
     id="defs1">
    <clipPath
       clipPathUnits="userSpaceOnUse"
       id="clipPath2">
      <path
         d="M 0,0.16 V 1122.5601 H 793.59998 V 0.16 Z"
         transform="translate(-458.39999,-677.12)"
         clip-rule="evenodd"
         id="path2" />
    </clipPath>
    <clipPath
       clipPathUnits="userSpaceOnUse"
       id="clipPath4">
      <path
         d="M 0,0.16 V 1122.5601 H 793.59998 V 0.16 Z"
         transform="translate(-609.44,-677.12)"
         clip-rule="evenodd"
         id="path4" />
    </clipPath>
    <clipPath
       clipPathUnits="userSpaceOnUse"
       id="clipPath6">
      <path
         d="M 0,0.16 V 1122.5601 H 793.59998 V 0.16 Z"
         transform="translate(-571.67999,-639.35999)"
         clip-rule="evenodd"
         id="path6" />
    </clipPath>
  </defs>
  <sodipodi:namedview
     id="namedview1"
     pagecolor="#505050"
     bordercolor="#eeeeee"
     borderopacity="1"
     inkscape:showpageshadow="0"
     inkscape:pageopacity="0"
     inkscape:pagecheckerboard="0"
     inkscape:deskcolor="#505050">
    <inkscape:page
       x="0"
       y="0"
       inkscape:label="1"
       id="page1"
       width="268.13333"
       height="197.54668"
       margin="0"
       bleed="0" />
  </sodipodi:namedview>
  <g
     id="g1"
     inkscape:groupmode="layer"
     inkscape:label="1">
    <path
       id="path1"
       d="m 0,0 c 0,-20.85 -16.9,-37.759998 -37.759998,-37.759998 -20.860001,0 -37.759999,16.909998 -37.759999,37.759998 0,20.85 16.899998,37.759998 37.759999,37.759998 C -16.9,37.759998 0,20.85 0,0 Z"
       style="fill:none;stroke:#000000;stroke-width:26.4;stroke-linecap:round;stroke-linejoin:round;stroke-miterlimit:10;stroke-dasharray:none;stroke-opacity:1"
       transform="translate(96.866661,139.19994)"
       clip-path="url(#clipPath2)" />
    <path
       id="path3"
       d="m 0,0 c 0,-20.85 -16.9,-37.759998 -37.759998,-37.759998 -20.860001,0 -37.759999,16.909998 -37.759999,37.759998 0,20.85 16.899998,37.759998 37.759999,37.759998 C -16.9,37.759998 0,20.85 0,0 Z"
       style="fill:none;stroke:#000000;stroke-width:26.4;stroke-linecap:round;stroke-linejoin:round;stroke-miterlimit:10;stroke-dasharray:none;stroke-opacity:1"
       transform="translate(247.90667,139.19994)"
       clip-path="url(#clipPath4)" />
    <path
       id="path5"
       d="M 0,0 -0.16,-5.28 -0.64,-10.56 -1.6,-15.84 -2.88,-20.959999 -4.64,-26.08 -6.72,-31.040001 -8.96,-35.84 l -2.72,-4.48 -3.04,-4.479999 -3.36,-4.16 -3.52,-4 L -25.440001,-56.48 -29.6,-60 l -4.319998,-3.040001 -4.640003,-2.720001 -4.64,-2.559998 -4.959999,-2.080002 -4.959999,-1.760002 -5.120003,-1.279998 -5.279998,-1.119996 -5.280003,-0.639999 -5.439995,-0.32 -5.279999,0.159996 -5.280006,0.480004 -5.279999,0.799995 -5.119995,1.279999 -5.120003,1.600006 -4.96,1.919998 -4.8,2.239998 -4.64,2.559998 -4.48,3.040004 -4.32,3.199997 -4,3.520001 -3.68,3.84 -3.52,4 -3.03999,4.32 -2.88001,4.479999 -2.56,4.640003 -2.24,4.959999 -1.76,4.96 -1.44,5.12 -1.11999,5.28 -0.80001,5.28 -0.32,5.28"
       style="fill:none;stroke:#000000;stroke-width:26.4;stroke-linecap:round;stroke-linejoin:round;stroke-miterlimit:10;stroke-dasharray:none;stroke-opacity:1"
       transform="translate(210.14666,101.43993)"
       clip-path="url(#clipPath6)" />
  </g>
</svg>
