<?xml version="1.0" encoding="UTF-8" standalone="no"?>
<!-- Created with Inkscape (http://www.inkscape.org/) -->

<svg
   version="1.1"
   id="svg1"
   width="462.90668"
   height="481.86667"
   viewBox="0 0 462.90668 481.86667"
   sodipodi:docname="Part.pdf"
   xmlns:inkscape="http://www.inkscape.org/namespaces/inkscape"
   xmlns:sodipodi="http://sodipodi.sourceforge.net/DTD/sodipodi-0.dtd"
   xmlns="http://www.w3.org/2000/svg"
   xmlns:svg="http://www.w3.org/2000/svg">
  <defs
     id="defs1">
    <clipPath
       clipPathUnits="userSpaceOnUse"
       id="clipPath2">
      <path
         d="M 0,0.16 V 1122.5601 H 793.59998 V 0.16 Z"
         clip-rule="evenodd"
         id="path2" />
    </clipPath>
    <clipPath
       clipPathUnits="userSpaceOnUse"
       id="clipPath4">
      <path
         d="M 0,0.16 V 1122.5601 H 793.59998 V 0.16 Z"
         clip-rule="evenodd"
         id="path4" />
    </clipPath>
    <clipPath
       clipPathUnits="userSpaceOnUse"
       id="clipPath6">
      <path
         d="M 0,0.16 V 1122.5601 H 793.59998 V 0.16 Z"
         clip-rule="evenodd"
         id="path6" />
    </clipPath>
    <clipPath
       clipPathUnits="userSpaceOnUse"
       id="clipPath8">
      <path
         d="M 0,0.16 V 1122.5601 H 793.59998 V 0.16 Z"
         transform="translate(-423.84,-537.28003)"
         clip-rule="evenodd"
         id="path8" />
    </clipPath>
    <clipPath
       clipPathUnits="userSpaceOnUse"
       id="clipPath10">
      <path
         d="M 0,0.16 V 1122.5601 H 793.59998 V 0.16 Z"
         transform="translate(-293.28,-496.95999)"
         clip-rule="evenodd"
         id="path10" />
    </clipPath>
    <clipPath
       clipPathUnits="userSpaceOnUse"
       id="clipPath12">
      <path
         d="M 0,0.16 V 1122.5601 H 793.59998 V 0.16 Z"
         clip-rule="evenodd"
         id="path12" />
    </clipPath>
    <clipPath
       clipPathUnits="userSpaceOnUse"
       id="clipPath14">
      <path
         d="M 0,0.16 V 1122.5601 H 793.59998 V 0.16 Z"
         transform="translate(-472.79999,-711.35999)"
         clip-rule="evenodd"
         id="path14" />
    </clipPath>
    <clipPath
       clipPathUnits="userSpaceOnUse"
       id="clipPath16">
      <path
         d="M 0,0.16 V 1122.5601 H 793.59998 V 0.16 Z"
         clip-rule="evenodd"
         id="path16" />
    </clipPath>
  </defs>
  <sodipodi:namedview
     id="namedview1"
     pagecolor="#505050"
     bordercolor="#eeeeee"
     borderopacity="1"
     inkscape:showpageshadow="0"
     inkscape:pageopacity="0"
     inkscape:pagecheckerboard="0"
     inkscape:deskcolor="#505050">
    <inkscape:page
       x="0"
       y="0"
       inkscape:label="1"
       id="page1"
       width="462.90668"
       height="481.86667"
       margin="0"
       bleed="0" />
  </sodipodi:namedview>
  <g
     id="g1"
     inkscape:groupmode="layer"
     inkscape:label="1">
    <path
       id="path1"
       d="M 255.67999,364 V 624.64001"
       style="fill:none;stroke:#000000;stroke-width:26.4;stroke-linecap:round;stroke-linejoin:round;stroke-miterlimit:10;stroke-dasharray:none;stroke-opacity:1"
       transform="translate(0,-5.8666667e-5)"
       clip-path="url(#clipPath2)" />
    <path
       id="path3"
       d="m 212.32001,385.76001 86.72,-43.36002"
       style="fill:none;stroke:#000000;stroke-width:26.4;stroke-linecap:round;stroke-linejoin:round;stroke-miterlimit:10;stroke-dasharray:none;stroke-opacity:1"
       transform="translate(0,-5.8666667e-5)"
       clip-path="url(#clipPath4)" />
    <path
       id="path5"
       d="M 255.67999,624.64001 421.92001,538.56"
       style="fill:none;stroke:#000000;stroke-width:26.4;stroke-linecap:round;stroke-linejoin:round;stroke-miterlimit:10;stroke-dasharray:none;stroke-opacity:1"
       transform="translate(0,-5.8666667e-5)"
       clip-path="url(#clipPath6)" />
    <path
       id="path7"
       d="M 0,0 5.76,-3.84 11.36,-8 16.959999,-12.48 22.4,-17.120001 27.52,-22.08 l 4.96,-4.960001 4.639999,-5.279999 4.479999,-5.439998 4.32,-5.600003 3.84,-5.759998 3.680001,-5.920002 3.36,-5.919998 3.040001,-5.919998 2.720001,-6.080002 2.240002,-6.080002 2.079994,-6.080002 1.600006,-5.919998 1.279999,-5.919998 0.959999,-5.920001 0.479996,-5.92 0.160004,-5.6 -0.160004,-5.6 -0.639999,-5.44 -0.96,-5.28 -1.279998,-4.95999 -1.760002,-4.96001 -1.919999,-4.47999 -2.399997,-4.48002 -2.720002,-4 -3.04,-3.83999 -3.360001,-3.52001 -3.68,-3.19999 -4,-2.87999 -4.32,-2.56002 -4.48,-2.23999 L 31.84,-173.75999 26.879999,-175.36 21.76,-176.48 l -5.44,-0.8 -5.44,-0.47999 H 5.12 l -5.76,0.15998 -5.92,0.64 -6.08,1.12001 -6.079999,1.28 -6.08,1.76 -6.240002,2.08 -6.079998,2.56 -6.080002,2.72 -6.079998,3.04001 -5.920002,3.36 -5.919998,3.67999 -5.759998,4 -5.600006,4.32001 -5.599999,4.47999 -5.279999,4.64 -5.120002,4.95999 -4.799996,5.28001 -4.639999,5.28 -4.320002,5.44 -4.16,5.76 -3.84,5.76 -3.52,5.76 -3.36,6.080002 -2.88,5.919998 -2.56,6.080002 -2.24,6.080001 -1.76,5.919999 -1.6,6.079998 -1.12,5.920002 -0.8,5.919998 -0.31999,5.760002 L -130.56,-40.32"
       style="fill:none;stroke:#000000;stroke-width:26.4;stroke-linecap:round;stroke-linejoin:round;stroke-miterlimit:10;stroke-dasharray:none;stroke-opacity:1"
       transform="translate(423.84,537.27997)"
       clip-path="url(#clipPath8)" />
    <path
       id="path9"
       d="m 0,0 1.92,8.16 2.4,8.16 2.88,7.84 3.2,7.68 3.52,7.68 4,7.360001 4.32,7.039997 4.800001,6.880001 L 32.16,67.519997 37.439999,73.919998 43.200001,80 49.279999,85.760002 55.68,91.199997 62.240002,96.32 l 6.880001,4.8 7.199997,4.48 7.199997,4 7.520004,3.68 7.839996,3.2 7.840003,2.88 8,2.4 8.16,2.08 8.15999,1.6 8.32001,1.12 8.31999,0.8 8.32001,0.32 8.48,-0.16 8.32,-0.64 8.31999,-0.96 8.16001,-1.44 8.16,-1.92 8.16001,-2.24 7.83999,-2.72 7.84,-3.2 7.52,-3.52 7.52001,-3.84 7.19999,-4.32 6.87999,-4.639998 6.72001,-4.959999 6.39999,-5.280007 6.24002,-5.759994 5.75998,-5.919998 5.60001,-6.400002 5.11999,-6.560001 4.96002,-6.720001 4.47998,-7.040001 4.16001,-7.359997 3.67999,-7.520001 3.36001,-7.680002 2.88001,-7.839998"
       style="fill:none;stroke:#000000;stroke-width:26.4;stroke-linecap:round;stroke-linejoin:round;stroke-miterlimit:10;stroke-dasharray:none;stroke-opacity:1"
       transform="translate(293.28,496.95993)"
       clip-path="url(#clipPath10)" />
    <path
       id="path11"
       d="M 603.03998,516 V 711.35998"
       style="fill:none;stroke:#000000;stroke-width:26.4;stroke-linecap:round;stroke-linejoin:round;stroke-miterlimit:10;stroke-dasharray:none;stroke-opacity:1"
       transform="translate(0,-5.8666667e-5)"
       clip-path="url(#clipPath12)" />
    <path
       id="path13"
       d="m 0,0 -0.16,4.96 0.32,4.96 0.64,4.96 1.12,4.8 1.28,4.64 1.76,4.639999 2.08,4.48 2.4,4.319999 2.72,4.16 3.04,3.84 3.359999,3.680001 3.680001,3.36 3.84,3.040001 4,2.880001 4.320002,2.399998 4.319999,2.240002 4.64,1.760002 L 48,66.559998 52.799999,67.68 l 4.959999,0.800003 4.960003,0.32 h 4.799996 l 4.960006,-0.32 4.959999,-0.800003 4.799996,-1.120002 4.639999,-1.439995 4.64,-1.760002 4.319999,-2.240002 4.320004,-2.399998 4,-2.880001 3.84,-3.040001 3.68,-3.36 3.36,-3.680001 3.04,-3.84 2.72,-4.16 2.4,-4.319999 2.08,-4.48 1.76,-4.639999 1.28001,-4.64 1.11999,-4.8 0.64,-4.96 0.31999,-4.96 L 130.24,0"
       style="fill:none;stroke:#000000;stroke-width:26.4;stroke-linecap:round;stroke-linejoin:round;stroke-miterlimit:10;stroke-dasharray:none;stroke-opacity:1"
       transform="translate(472.79999,711.35993)"
       clip-path="url(#clipPath14)" />
    <path
       id="path15"
       d="M 190.56,494.23999 H 429.44"
       style="fill:none;stroke:#000000;stroke-width:26.4;stroke-linecap:round;stroke-linejoin:round;stroke-miterlimit:10;stroke-dasharray:none;stroke-opacity:1"
       transform="translate(0,-5.8666667e-5)"
       clip-path="url(#clipPath16)" />
  </g>
</svg>
