<?xml version="1.0" encoding="UTF-8" standalone="no"?>
<!-- Created with Inkscape (http://www.inkscape.org/) -->

<svg
   version="1.1"
   id="svg1"
   width="526.96002"
   height="456.50668"
   viewBox="0 0 526.96002 456.50668"
   sodipodi:docname="Part2.pdf"
   xmlns:inkscape="http://www.inkscape.org/namespaces/inkscape"
   xmlns:sodipodi="http://sodipodi.sourceforge.net/DTD/sodipodi-0.dtd"
   xmlns="http://www.w3.org/2000/svg"
   xmlns:svg="http://www.w3.org/2000/svg">
  <defs
     id="defs1">
    <clipPath
       clipPathUnits="userSpaceOnUse"
       id="clipPath2">
      <path
         d="M 0,0.16 V 1122.5601 H 793.59998 V 0.16 Z"
         transform="translate(-363.51999,-643.03998)"
         clip-rule="evenodd"
         id="path2" />
    </clipPath>
    <clipPath
       clipPathUnits="userSpaceOnUse"
       id="clipPath4">
      <path
         d="M 0,0.16 V 1122.5601 H 793.59998 V 0.16 Z"
         clip-rule="evenodd"
         id="path4" />
    </clipPath>
    <clipPath
       clipPathUnits="userSpaceOnUse"
       id="clipPath6">
      <path
         d="M 0,0.16 V 1122.5601 H 793.59998 V 0.16 Z"
         clip-rule="evenodd"
         id="path6" />
    </clipPath>
    <clipPath
       clipPathUnits="userSpaceOnUse"
       id="clipPath8">
      <path
         d="M 0,0.16 V 1122.5601 H 793.59998 V 0.16 Z"
         clip-rule="evenodd"
         id="path8" />
    </clipPath>
    <clipPath
       clipPathUnits="userSpaceOnUse"
       id="clipPath10">
      <path
         d="M 0,0.16 V 1122.5601 H 793.59998 V 0.16 Z"
         transform="translate(-363.51999,-643.03998)"
         clip-rule="evenodd"
         id="path10" />
    </clipPath>
    <clipPath
       clipPathUnits="userSpaceOnUse"
       id="clipPath12">
      <path
         d="M 0,0.16 V 1122.5601 H 793.59998 V 0.16 Z"
         clip-rule="evenodd"
         id="path12" />
    </clipPath>
  </defs>
  <sodipodi:namedview
     id="namedview1"
     pagecolor="#505050"
     bordercolor="#eeeeee"
     borderopacity="1"
     inkscape:showpageshadow="0"
     inkscape:pageopacity="0"
     inkscape:pagecheckerboard="0"
     inkscape:deskcolor="#505050">
    <inkscape:page
       x="0"
       y="0"
       inkscape:label="1"
       id="page1"
       width="526.96002"
       height="456.50668"
       margin="0"
       bleed="0" />
  </sodipodi:namedview>
  <g
     id="g1"
     inkscape:groupmode="layer"
     inkscape:label="1">
    <path
       id="path1"
       d="m 0,0 6.08,-4.16 6.08,-4.32 5.92,-4.64 5.6,-4.96 5.440001,-5.120001 5.44,-5.279999 4.959999,-5.600002 4.8,-5.599998 4.639999,-5.919998 4.16,-6.080002 4,-6.079998 3.68,-6.240002 3.360005,-6.239998 3.039993,-6.400001 2.720001,-6.400002 2.240006,-6.400001 2.079994,-6.399994 1.599998,-6.240004 1.280007,-6.4 0.799995,-6.24 0.480004,-6.08 0.159996,-5.92 -0.32,-5.92 -0.64,-5.75999 -0.959999,-5.44001 -1.440002,-5.44 -1.759995,-5.11999 -2.080001,-4.80001 -2.400002,-4.64 -2.879997,-4.32 -3.200001,-4.16001 -3.52,-3.83999 -3.680001,-3.51999 -4.16,-3.04001 -4.319999,-2.88001 -4.64,-2.55999 -4.960003,-2.08 -5.119998,-1.92 -5.439999,-1.44001 -5.6,-0.95999 -5.600001,-0.8 -5.92,-0.31999 H 3.84 l -6.24,0.47999 -6.24,0.80001 -6.4,1.11999 -6.400001,1.60001 L -28,-189.92 l -6.400002,2.24001 -6.559997,2.71998 -6.400002,2.88001 -6.399997,3.2 -6.400002,3.52 -6.240002,3.84 -6.080001,4.16 -5.919999,4.48 -5.919998,4.64 -5.599998,4.96 -5.440003,5.28 -5.279999,5.28 -4.96,5.60001 -4.8,5.75999 -4.48,5.92 -4.16,6.08 -4,6.08 -3.52,6.24 -3.36,6.24 -2.88,6.399998 -2.56,6.400002 -2.39999,6.400002 -1.76001,6.400001 -1.59999,6.399994 -1.12001,6.240002 -0.79999,6.240001 -0.48001,6.079998 V -44.32"
       style="fill:none;stroke:#000000;stroke-width:26.4;stroke-linecap:round;stroke-linejoin:round;stroke-miterlimit:10;stroke-dasharray:none;stroke-opacity:1"
       transform="translate(363.51999,647.03992)"
       clip-path="url(#clipPath2)" />
    <path
       id="path3"
       d="M 220.32001,353.60001 V 602.88"
       style="fill:none;stroke:#000000;stroke-width:26.4;stroke-linecap:round;stroke-linejoin:round;stroke-miterlimit:10;stroke-dasharray:none;stroke-opacity:1"
       transform="translate(0,3.9999413)"
       clip-path="url(#clipPath4)" />
    <path
       id="path5"
       d="M 220.32001,353.60001 H 282.56"
       style="fill:none;stroke:#000000;stroke-width:26.4;stroke-linecap:round;stroke-linejoin:round;stroke-miterlimit:10;stroke-dasharray:none;stroke-opacity:1"
       transform="translate(0,3.9999413)"
       clip-path="url(#clipPath6)" />
    <path
       id="path7"
       d="M 261.92001,395.20001 H 158.08"
       style="fill:none;stroke:#000000;stroke-width:26.4;stroke-linecap:round;stroke-linejoin:round;stroke-miterlimit:10;stroke-dasharray:none;stroke-opacity:1"
       transform="translate(0,3.9999413)"
       clip-path="url(#clipPath8)" />
    <path
       id="path9"
       d="M 0,0 3.84,7.2 8,14.24 12.64,21.120001 17.6,27.68 22.879999,33.919998 28.48,39.84 l 5.920002,5.759998 6.239997,5.280003 6.560002,4.959999 6.880001,4.64 7.039997,4.320003 7.200001,3.839996 7.36,3.520005 7.680001,3.039993 7.839996,2.720001 7.840004,2.240006 7.999999,1.759994 8.16,1.440003 8.16,0.800003 8.16,0.639999 h 8.15999 L 148,84.32 l 8.16,-0.800003 8.16001,-1.279999 8,-1.759995 7.83999,-2.080001 7.84,-2.560006 7.67999,-3.039993 7.52001,-3.360001 7.19999,-3.840004 7.04001,-4.159999 6.88001,-4.64 L 230.88,51.84 l 6.4,-5.279999 5.92,-5.600002 5.76001,-5.919998 L 254.24,28.799999 259.35999,22.4 264,15.52 268.32001,8.48 272.16,1.28"
       style="fill:none;stroke:#000000;stroke-width:26.4;stroke-linecap:round;stroke-linejoin:round;stroke-miterlimit:10;stroke-dasharray:none;stroke-opacity:1"
       transform="translate(363.51999,647.03992)"
       clip-path="url(#clipPath10)" />
    <path
       id="path11"
       d="M 511.04001,768.96002 V 685.91998"
       style="fill:none;stroke:#000000;stroke-width:26.4;stroke-linecap:round;stroke-linejoin:round;stroke-miterlimit:10;stroke-dasharray:none;stroke-opacity:1"
       transform="translate(0,3.9999413)"
       clip-path="url(#clipPath12)" />
  </g>
</svg>
