<?xml version="1.0" encoding="UTF-8" standalone="no"?>
<!-- Created with Inkscape (http://www.inkscape.org/) -->

<svg
   version="1.1"
   id="svg1"
   width="489.60001"
   height="471.18668"
   viewBox="0 0 489.60001 471.18668"
   sodipodi:docname="Part4.pdf"
   xmlns:inkscape="http://www.inkscape.org/namespaces/inkscape"
   xmlns:sodipodi="http://sodipodi.sourceforge.net/DTD/sodipodi-0.dtd"
   xmlns="http://www.w3.org/2000/svg"
   xmlns:svg="http://www.w3.org/2000/svg">
  <defs
     id="defs1">
    <clipPath
       clipPathUnits="userSpaceOnUse"
       id="clipPath2">
      <path
         d="M 0,0.16 V 1122.5601 H 793.59998 V 0.16 Z"
         transform="translate(-419.51999,-407.51999)"
         clip-rule="evenodd"
         id="path2" />
    </clipPath>
    <clipPath
       clipPathUnits="userSpaceOnUse"
       id="clipPath4">
      <path
         d="M 0,0.16 V 1122.5601 H 793.59998 V 0.16 Z"
         transform="translate(-318.07999,-631.20002)"
         clip-rule="evenodd"
         id="path4" />
    </clipPath>
    <clipPath
       clipPathUnits="userSpaceOnUse"
       id="clipPath6">
      <path
         d="M 0,0.16 V 1122.5601 H 793.59998 V 0.16 Z"
         transform="translate(-318.07999,-631.20002)"
         clip-rule="evenodd"
         id="path6" />
    </clipPath>
    <clipPath
       clipPathUnits="userSpaceOnUse"
       id="clipPath8">
      <path
         d="M 0,0.16 V 1122.5601 H 793.59998 V 0.16 Z"
         clip-rule="evenodd"
         id="path8" />
    </clipPath>
    <clipPath
       clipPathUnits="userSpaceOnUse"
       id="clipPath10">
      <path
         d="M 0,0.16 V 1122.5601 H 793.59998 V 0.16 Z"
         clip-rule="evenodd"
         id="path10" />
    </clipPath>
    <clipPath
       clipPathUnits="userSpaceOnUse"
       id="clipPath12">
      <path
         d="M 0,0.16 V 1122.5601 H 793.59998 V 0.16 Z"
         clip-rule="evenodd"
         id="path12" />
    </clipPath>
    <clipPath
       clipPathUnits="userSpaceOnUse"
       id="clipPath14">
      <path
         d="M 0,0.16 V 1122.5601 H 793.59998 V 0.16 Z"
         clip-rule="evenodd"
         id="path14" />
    </clipPath>
    <clipPath
       clipPathUnits="userSpaceOnUse"
       id="clipPath16">
      <path
         d="M 0,0.16 V 1122.5601 H 793.59998 V 0.16 Z"
         transform="translate(-382.39999,-421.28)"
         clip-rule="evenodd"
         id="path16" />
    </clipPath>
  </defs>
  <sodipodi:namedview
     id="namedview1"
     pagecolor="#505050"
     bordercolor="#eeeeee"
     borderopacity="1"
     inkscape:showpageshadow="0"
     inkscape:pageopacity="0"
     inkscape:pagecheckerboard="0"
     inkscape:deskcolor="#505050">
    <inkscape:page
       x="0"
       y="0"
       inkscape:label="1"
       id="page1"
       width="489.60001"
       height="471.18668"
       margin="0"
       bleed="0" />
  </sodipodi:namedview>
  <g
     id="g1"
     inkscape:groupmode="layer"
     inkscape:label="1">
    <path
       id="path1"
       d="M 0,0 -0.64,-4.64 -1.76,-9.12 -3.04,-13.28 -4.8,-17.120001 -6.88,-20.799999 -9.28,-24.16 -12,-27.200001 -15.04,-29.92 l -3.36,-2.4 -3.52,-2.080002 -4,-1.599998 -4.16,-1.439999 -4.480001,-1.120002 -4.64,-0.64 L -44,-39.52 l -5.279999,-0.16 -5.280002,0.479999 -5.439999,0.64 -5.760002,0.960003 -5.759995,1.439998 -6.080001,1.759998 L -83.68,-32.48 l -6.239998,2.4 -6.240006,2.719999 -6.399996,3.040001 -6.24,3.199999 -6.56,3.68 -6.4,3.840001 -6.4,4.16 -6.4,4.48 -6.24,4.64 -6.23999,4.96 -6.24001,5.12 -6.08,5.28 -5.92,5.44 -5.75999,5.76 -5.76001,5.76 -5.44,5.919998 -5.28,6.240002 -5.12,6.080002 -4.8,6.239998 -4.64,6.400001 -4.31999,6.399998 -4.16001,6.400001 -3.83999,6.400002 -3.52001,6.400001 -3.19999,6.399994 -3.04001,6.400003 -2.56,6.24 -2.39999,6.24 -1.92,6.08 -1.76001,5.92 -1.28,5.76 -0.95999,5.59999 -0.64,5.60001 -0.16001,5.28 v 5.11999 l 0.48,4.80001 0.8,4.64 0.95999,4.47999 1.60001,4 1.76,4 2.08,3.52001 2.40001,3.19999 2.87999,3.04001 3.04,2.56 3.36,2.39999 3.68,2.08001 4,1.6 4.16,1.28 4.48,1.12 4.8,0.64 4.96001,0.32 5.11999,-0.16 5.44,-0.31999 5.44001,-0.80001 5.75999,-1.12001 5.92,-1.43998 5.92,-1.76001 6.08,-2.08001 6.24,-2.39999 6.4,-2.72 6.24,-3.03999 6.4,-3.36 6.4,-3.68001 6.4,-4 6.4,-4.16001 6.400004,-4.47999 6.399994,-4.8 6.240005,-4.80001 6.079994,-5.28 6.080002,-5.28 5.919998,-5.59999 5.760002,-5.6 5.600003,-5.92 5.439998,-5.92 5.279999,-6.24 5.120003,-6.08"
       style="fill:none;stroke:#000000;stroke-width:26.4;stroke-linecap:round;stroke-linejoin:round;stroke-miterlimit:10;stroke-dasharray:none;stroke-opacity:1"
       transform="translate(419.51999,402.17326)"
       clip-path="url(#clipPath2)" />
    <path
       id="path3"
       d="m 0,0 0.8,3.36 1.12,3.04 1.44,2.88 1.76,2.56 2.08,2.24 2.24,1.92 2.72,1.6 3.04,1.279999 3.2,0.960001 3.52,0.64 3.84,0.159999 h 4 L 34.080002,20.32 l 4.639999,-0.8 4.64,-0.960001 L 48.32,17.120001 53.439999,15.52 58.720001,13.44 64.32,11.2 l 5.599998,-2.56 5.599999,-2.88 5.920005,-3.2 5.919999,-3.52 5.919998,-3.68 6.080002,-4 6.079999,-4.32 6.24,-4.480001 6.08,-4.639999 6.08,-4.960001 6.08,-5.119999 5.92,-5.279999 6.08,-5.440002 5.75999,-5.439999 5.76001,-5.760002 5.59999,-5.759998 5.60001,-5.920002 5.28,-6.079994 5.11999,-5.920006 5.12001,-6.079994 4.80001,-6.240006 4.47999,-6.080002 4.31999,-6.079996 4.16001,-6.08 3.83999,-6.08 3.68001,-5.92 3.36,-5.92 3.04,-5.76 2.72,-5.60001 2.40001,-5.59999 2.07998,-5.44 1.92002,-5.11999 1.43998,-5.12001 1.28,-4.79999 0.80001,-4.64002 0.48001,-4.31999 0.31999,-4.16 -0.16001,-4 -0.47999,-3.68 -0.8,-3.36 -1.12,-3.04 -1.44,-2.87999 -1.76,-2.56002 -2.08,-2.23999 -2.40001,-1.92 -2.71998,-1.44 -3.04001,-1.28 -3.2,-0.96 -3.52,-0.64 -3.84,-0.31999 -4,0.15998 -4.32001,0.32001 -4.64,0.64 -4.64,1.12 -4.95999,1.27999 -5.12001,1.76001 -5.43998,2.08001 -5.44001,2.23999 -5.6,2.55999 -5.76,3.04001 -5.76001,3.2 -5.92,3.36 -6.08,3.84 -6.07999,4 -6.08,4.16 -6.08,4.48 -6.08,4.8 -6.08,4.8 -6.080002,5.12 -6.079995,5.28 -5.920005,5.44 -5.759995,5.6 -5.760002,5.76 -5.760002,5.76 -5.439999,5.92"
       style="fill:none;stroke:#000000;stroke-width:26.4;stroke-linecap:round;stroke-linejoin:round;stroke-miterlimit:10;stroke-dasharray:none;stroke-opacity:1"
       transform="translate(318.07999,625.85329)"
       clip-path="url(#clipPath4)" />
    <path
       id="path5"
       d="M 0,0 3.36,7.84 7.2,15.52 11.36,22.879999 16,30.08 20.959999,37.119999 26.24,43.84 32,50.240002 38.080002,56.32 44.32,62.080002 l 6.560001,5.439995 6.879997,5.120002 7.200001,4.64 7.360001,4.319999 7.68,3.840004 7.839996,3.519997 8,3.200005 8.000004,2.719993 8.32,2.240006 8.32,1.759994 8.48001,1.280003 8.47999,0.96 8.64,0.48 h 8.48 l 8.64,-0.48 8.47999,-0.8 8.48001,-1.440003 8.32,-1.759994 8.32,-2.240006 8.16001,-2.719993 8,-3.040001 7.67999,-3.520005 7.68001,-3.839996 7.35998,-4.32 L 242.88,72.800003 249.75999,67.68 256.48001,62.240002 262.72,56.48 268.79999,50.400002 274.39999,44 279.84,37.279999 284.79999,30.4 289.44,23.200001 293.60001,15.68 297.44,8.16 l 3.51999,-8"
       style="fill:none;stroke:#000000;stroke-width:26.4;stroke-linecap:round;stroke-linejoin:round;stroke-miterlimit:10;stroke-dasharray:none;stroke-opacity:1"
       transform="translate(318.07999,625.85329)"
       clip-path="url(#clipPath6)" />
    <path
       id="path7"
       d="m 486.88,684.32001 v 92.47998"
       style="fill:none;stroke:#000000;stroke-width:26.4;stroke-linecap:round;stroke-linejoin:round;stroke-miterlimit:10;stroke-dasharray:none;stroke-opacity:1"
       transform="translate(0,-5.3467253)"
       clip-path="url(#clipPath8)" />
    <path
       id="path9"
       d="M 212.48,383.51999 250.24,421.28"
       style="fill:none;stroke:#000000;stroke-width:26.4;stroke-linecap:round;stroke-linejoin:round;stroke-miterlimit:10;stroke-dasharray:none;stroke-opacity:1"
       transform="translate(0,-5.3467253)"
       clip-path="url(#clipPath10)" />
    <path
       id="path11"
       d="M 212.48,383.51999 V 345.76001"
       style="fill:none;stroke:#000000;stroke-width:26.4;stroke-linecap:round;stroke-linejoin:round;stroke-miterlimit:10;stroke-dasharray:none;stroke-opacity:1"
       transform="translate(0,-5.3467253)"
       clip-path="url(#clipPath12)" />
    <path
       id="path13"
       d="M 212.48,383.51999 H 174.72"
       style="fill:none;stroke:#000000;stroke-width:26.4;stroke-linecap:round;stroke-linejoin:round;stroke-miterlimit:10;stroke-dasharray:none;stroke-opacity:1"
       transform="translate(0,-5.3467253)"
       clip-path="url(#clipPath14)" />
    <path
       id="path15"
       d="m 0,0 1.28,2.08 1.44,1.76 1.76,1.76 1.92,1.44 1.92,1.12 2.24,1.12 2.24,0.64 2.4,0.48 2.240001,0.32 H 19.84 l 2.4,-0.32 2.24,-0.64 2.239999,-0.8 2.24,-0.96 1.92,-1.44 1.76,-1.44 L 34.400002,3.36 35.84,1.6 l 1.279999,-2.08 0.960003,-2.24 0.639999,-2.24 0.48,-2.24 L 39.52,-9.6 V -12 l -0.319999,-2.24 -0.64,-2.399999 -0.800003,-2.24"
       style="fill:none;stroke:#000000;stroke-width:26.4;stroke-linecap:round;stroke-linejoin:round;stroke-miterlimit:10;stroke-dasharray:none;stroke-opacity:1"
       transform="translate(382.39999,415.93327)"
       clip-path="url(#clipPath16)" />
  </g>
</svg>
