<?xml version="1.0" encoding="UTF-8" standalone="no"?>
<!-- Created with Inkscape (http://www.inkscape.org/) -->

<svg
   version="1.1"
   id="svg1"
   width="517.61334"
   height="479.18668"
   viewBox="0 0 517.61334 479.18668"
   sodipodi:docname="Pound4.pdf"
   xmlns:inkscape="http://www.inkscape.org/namespaces/inkscape"
   xmlns:sodipodi="http://sodipodi.sourceforge.net/DTD/sodipodi-0.dtd"
   xmlns="http://www.w3.org/2000/svg"
   xmlns:svg="http://www.w3.org/2000/svg">
  <defs
     id="defs1">
    <clipPath
       clipPathUnits="userSpaceOnUse"
       id="clipPath2">
      <path
         d="M 0,0.16 V 1122.5601 H 793.59998 V 0.16 Z"
         transform="translate(-333.92002,-660.96002)"
         clip-rule="evenodd"
         id="path2" />
    </clipPath>
    <clipPath
       clipPathUnits="userSpaceOnUse"
       id="clipPath4">
      <path
         d="M 0,0.16 V 1122.5601 H 793.59998 V 0.16 Z"
         transform="translate(-173.60001,-684.79999)"
         clip-rule="evenodd"
         id="path4" />
    </clipPath>
    <clipPath
       clipPathUnits="userSpaceOnUse"
       id="clipPath6">
      <path
         d="M 0,0.16 V 1122.5601 H 793.59998 V 0.16 Z"
         transform="translate(3.3333334e-6)"
         clip-rule="evenodd"
         id="path6" />
    </clipPath>
    <clipPath
       clipPathUnits="userSpaceOnUse"
       id="clipPath8">
      <path
         d="M 0,0.16 V 1122.5601 H 793.59998 V 0.16 Z"
         transform="translate(-303.68,-732.32001)"
         clip-rule="evenodd"
         id="path8" />
    </clipPath>
    <clipPath
       clipPathUnits="userSpaceOnUse"
       id="clipPath10">
      <path
         d="M 0,0.16 V 1122.5601 H 793.59998 V 0.16 Z"
         transform="translate(-531.03998,-663.84003)"
         clip-rule="evenodd"
         id="path10" />
    </clipPath>
    <clipPath
       clipPathUnits="userSpaceOnUse"
       id="clipPath12">
      <path
         d="M 0,0.16 V 1122.5601 H 793.59998 V 0.16 Z"
         transform="translate(-370.72,-687.67999)"
         clip-rule="evenodd"
         id="path12" />
    </clipPath>
    <clipPath
       clipPathUnits="userSpaceOnUse"
       id="clipPath14">
      <path
         d="M 0,0.16 V 1122.5601 H 793.59998 V 0.16 Z"
         transform="translate(3.3333334e-6)"
         clip-rule="evenodd"
         id="path14" />
    </clipPath>
    <clipPath
       clipPathUnits="userSpaceOnUse"
       id="clipPath16">
      <path
         d="M 0,0.16 V 1122.5601 H 793.59998 V 0.16 Z"
         transform="translate(-500.79999,-735.20001)"
         clip-rule="evenodd"
         id="path16" />
    </clipPath>
    <clipPath
       clipPathUnits="userSpaceOnUse"
       id="clipPath18">
      <path
         d="M 0,0.16 V 1122.5601 H 793.59998 V 0.16 Z"
         transform="translate(3.3333334e-6)"
         clip-rule="evenodd"
         id="path18" />
    </clipPath>
  </defs>
  <sodipodi:namedview
     id="namedview1"
     pagecolor="#505050"
     bordercolor="#eeeeee"
     borderopacity="1"
     inkscape:showpageshadow="0"
     inkscape:pageopacity="0"
     inkscape:pagecheckerboard="0"
     inkscape:deskcolor="#505050">
    <inkscape:page
       x="0"
       y="0"
       inkscape:label="1"
       id="page1"
       width="517.61334"
       height="479.18668"
       margin="0"
       bleed="0" />
  </sodipodi:namedview>
  <g
     id="g1"
     inkscape:groupmode="layer"
     inkscape:label="1">
    <path
       id="path1"
       d="m 0,0 3.52,-4.16 3.36,-4.64 3.52,-4.96 3.36,-5.280001 3.199999,-5.759998 3.200001,-5.92 3.200001,-6.4 3.199998,-6.720001 2.880002,-6.880001 2.879999,-7.199997 2.880001,-7.360001 2.719997,-7.68 2.560002,-7.840004 2.400001,-8.159996 2.399998,-8.160004 2.080002,-8.319997 2.079998,-8.48 1.920002,-8.64 1.759998,-8.64 1.600002,-8.64 1.439999,-8.8 1.119999,-8.64 1.120003,-8.64 0.959999,-8.64 L 60,-183.2 l 0.639999,-8.47999 0.32,-8.32001 0.16,-8.16 v -8.16001 l -0.16,-7.83999 -0.32,-7.68 L 60,-239.2 59.360001,-246.39999 58.400002,-253.28 57.439999,-260 56.16,-266.23999 l -1.439999,-6.08002 -1.600002,-5.6 -1.599999,-5.28 -1.920002,-4.95999 -2.079998,-4.63999 -2.080001,-4.16 -2.399998,-3.84 L 40.639999,-304 38.080002,-307.04001 35.360001,-309.44 32.639999,-311.51999 29.6,-313.12 l -2.880001,-1.27999 -3.199999,-0.64002 -3.04,-0.31998 -3.359999,0.15998 -3.200001,0.64001 -3.36,1.12 -3.36,1.6 -3.52,1.91999 -3.36,2.40002 -3.52,2.87998 -3.52,3.36001 -3.36,3.67999 -3.52,4.16001 -3.359999,4.48001 -3.520001,4.79999 -3.36,5.28 -3.200001,5.6 -3.359999,5.92001 -3.199998,6.4 -3.040001,6.56 -3.040001,6.87999 -2.880001,7.04 -2.879998,7.36001 -2.720001,7.67999 -2.560001,7.83999 -2.559998,8 -2.240001,8.16001 -2.239998,8.32001 -2.080002,8.47999 -1.919998,8.64 -1.760002,8.48 -1.600003,8.8 -1.439995,8.64 -1.279998,8.8 -1.120003,8.64 -0.959999,8.64 -0.800003,8.64 -0.64,8.48 -0.319999,8.320002 -0.32,8.32 v 8 l 0.160004,7.839996 0.319999,7.840004 0.479996,7.359997 0.639999,7.360001 0.96,6.880001 0.959999,6.719997 1.280006,6.400002 1.279999,6.08 1.599998,5.76 1.599999,5.44 1.920002,4.96"
       style="fill:none;stroke:#000000;stroke-width:26.4;stroke-linecap:round;stroke-linejoin:round;stroke-miterlimit:10;stroke-dasharray:none;stroke-opacity:1"
       transform="translate(197.85335,341.94663)"
       clip-path="url(#clipPath2)" />
    <path
       id="path3"
       d="m 0,0 5.92,4.16 6.24,3.68 6.399999,3.36 6.560002,2.88 6.719999,2.559999 6.720001,2.08 L 45.439999,20.32 52.48,21.440001 59.52,22.24 l 7.039998,0.319999 7.04,-0.159999 7.040001,-0.64 6.879998,-0.960001 6.880005,-1.439998 6.879998,-1.92 L 108,15.04 l 6.56,-2.72 6.56,-3.2 6.24,-3.68 6.08,-4 5.92,-4.32 5.60001,-4.64 5.43998,-5.12 5.12001,-5.44 4.80001,-5.76"
       style="fill:none;stroke:#000000;stroke-width:26.4;stroke-linecap:round;stroke-linejoin:round;stroke-miterlimit:10;stroke-dasharray:none;stroke-opacity:1"
       transform="translate(37.533339,365.7866)"
       clip-path="url(#clipPath4)" />
    <path
       id="path5"
       d="m 273.12,651.35998 30.55999,80.96003"
       style="fill:none;stroke:#000000;stroke-width:26.4;stroke-linecap:round;stroke-linejoin:round;stroke-miterlimit:10;stroke-dasharray:none;stroke-opacity:1"
       transform="translate(-136.06667,-319.01339)"
       clip-path="url(#clipPath6)" />
    <path
       id="path7"
       d="m 0,0 2.24,4.8 2.72,4.64 2.88,4.32 3.2,4.16 3.36,3.84 3.68,3.520001 4,3.359998 L 26.24,31.52 30.4,34.080002 34.880001,36.32 39.52,38.240002 44.16,39.68 l 4.799999,1.119999 4.799999,0.64 4.800003,0.319999 H 63.52 l 4.8,-0.479999 4.800003,-0.799999 4.639999,-1.279999 4.64,-1.600003 4.639999,-2.079998 4.32,-2.400001 L 95.68,30.4 99.68,27.360001 103.52,24"
       style="fill:none;stroke:#000000;stroke-width:26.4;stroke-linecap:round;stroke-linejoin:round;stroke-miterlimit:10;stroke-dasharray:none;stroke-opacity:1"
       transform="translate(167.61333,413.30662)"
       clip-path="url(#clipPath8)" />
    <path
       id="path9"
       d="m 0,0 3.52,-4.16 3.36,-4.64 3.52,-4.96 3.36,-5.440001 3.199999,-5.599998 3.200001,-6.08 3.200001,-6.24 3.199998,-6.720001 2.880002,-6.880001 2.879999,-7.199997 2.880001,-7.520004 2.719997,-7.680001 2.560002,-7.839996 2.400001,-8 2.399998,-8.160004 2.080002,-8.479997 2.079998,-8.48 1.920002,-8.48 1.759998,-8.64 1.600002,-8.64 1.439999,-8.8 1.119999,-8.64 1.120003,-8.8 0.959999,-8.64 L 60,-183.2 l 0.639999,-8.47999 0.32,-8.32001 0.16,-8.16 v -8.16001 l -0.16,-7.83999 -0.32,-7.68 L 60,-239.2 59.360001,-246.39999 58.400002,-253.28 57.439999,-260 56.16,-266.23999 l -1.439999,-6.08002 -1.440002,-5.6 -1.759999,-5.43998 -1.920002,-4.96002 -2.079998,-4.47998 -2.080001,-4.16 -2.399998,-3.84 -2.400002,-3.36001 -2.559997,-2.88001 -2.720001,-2.56 -2.720002,-2.07998 L 29.6,-313.28 l -2.880001,-1.11999 -3.199999,-0.80002 -3.04,-0.15998 -3.359999,0.15998 -3.200001,0.64001 -3.36,1.12 -3.36,1.44 -3.52,2.07999 -3.36,2.40002 -3.52,2.87998 -3.52,3.20001 -3.36,3.83999 -3.52,4 -3.359999,4.48001 -3.520001,4.96 -3.36,5.28 -3.200001,5.6 -3.359999,5.92001 -3.199998,6.23999 -3.040001,6.56 -3.040001,6.88001 -2.880001,7.19999 -2.879998,7.36001 -2.720001,7.67999 -2.560001,7.83999 -2.559998,8 -2.240001,8.16001 -2.239998,8.32001 -2.080002,8.47999 -1.919998,8.48 -1.760002,8.64 -1.600003,8.64 -1.439995,8.8 -1.279998,8.64 -1.120003,8.8 -0.959999,8.64 -0.800003,8.48 -0.64,8.48 -0.319999,8.480002 -0.32,8.159996 v 8.160004 l 0.160004,7.839996 0.319999,7.680001 0.479996,7.52 0.639999,7.200001 0.96,7.040001 0.959999,6.719997 1.280006,6.400002 1.279999,6.08 1.599998,5.76 1.599999,5.28 1.920002,5.12"
       style="fill:none;stroke:#000000;stroke-width:26.4;stroke-linecap:round;stroke-linejoin:round;stroke-miterlimit:10;stroke-dasharray:none;stroke-opacity:1"
       transform="translate(394.97331,344.82664)"
       clip-path="url(#clipPath10)" />
    <path
       id="path11"
       d="m 0,0 5.92,4 6.24,3.84 6.399999,3.36 6.560002,2.88 6.719999,2.4 6.720001,2.079999 L 45.439999,20.32 52.48,21.440001 59.52,22.24 l 7.039998,0.319999 7.04,-0.159999 7.040001,-0.64 6.879998,-0.960001 6.880005,-1.599998 6.879998,-1.92 L 108,15.04 l 6.56,-2.88 6.56,-3.04 6.24,-3.68 6.08,-4 5.92,-4.32 5.60001,-4.8 5.43998,-5.12 5.12001,-5.28 4.80001,-5.76"
       style="fill:none;stroke:#000000;stroke-width:26.4;stroke-linecap:round;stroke-linejoin:round;stroke-miterlimit:10;stroke-dasharray:none;stroke-opacity:1"
       transform="translate(234.65333,368.6666)"
       clip-path="url(#clipPath12)" />
    <path
       id="path13"
       d="m 470.23999,654.23999 30.56,80.96002"
       style="fill:none;stroke:#000000;stroke-width:26.4;stroke-linecap:round;stroke-linejoin:round;stroke-miterlimit:10;stroke-dasharray:none;stroke-opacity:1"
       transform="translate(-136.06667,-319.01339)"
       clip-path="url(#clipPath14)" />
    <path
       id="path15"
       d="m 0,0 2.24,4.8 2.72,4.64 2.88,4.32 3.2,4.16 3.36,3.84 3.68,3.520001 4,3.199999 4.16,3.04 4.16,2.560002 L 34.880001,36.32 39.52,38.080002 44.16,39.68 l 4.799999,1.119999 4.799999,0.64 4.800003,0.319999 H 63.52 l 4.8,-0.479999 4.800003,-0.959999 4.639999,-1.119999 4.64,-1.760002 4.639999,-1.919999 4.32,-2.400001 L 95.68,30.4 99.68,27.360001 103.52,24"
       style="fill:none;stroke:#000000;stroke-width:26.4;stroke-linecap:round;stroke-linejoin:round;stroke-miterlimit:10;stroke-dasharray:none;stroke-opacity:1"
       transform="translate(364.73332,416.18662)"
       clip-path="url(#clipPath16)" />
    <path
       id="path17"
       d="M 170.24,561.28003 H 623.35998"
       style="fill:none;stroke:#000000;stroke-width:26.4;stroke-linecap:round;stroke-linejoin:round;stroke-miterlimit:10;stroke-dasharray:none;stroke-opacity:1"
       transform="translate(-136.06667,-319.01339)"
       clip-path="url(#clipPath18)" />
  </g>
</svg>
