<?xml version="1.0" encoding="UTF-8" standalone="no"?>
<!-- Created with Inkscape (http://www.inkscape.org/) -->

<svg
   version="1.1"
   id="svg1"
   width="564.29333"
   height="493.88"
   viewBox="0 0 564.29333 493.88"
   sodipodi:docname="Pound6.pdf"
   xmlns:inkscape="http://www.inkscape.org/namespaces/inkscape"
   xmlns:sodipodi="http://sodipodi.sourceforge.net/DTD/sodipodi-0.dtd"
   xmlns="http://www.w3.org/2000/svg"
   xmlns:svg="http://www.w3.org/2000/svg">
  <defs
     id="defs1">
    <clipPath
       clipPathUnits="userSpaceOnUse"
       id="clipPath2">
      <path
         d="M 0,0.16 V 1122.5601 H 793.59998 V 0.16 Z"
         clip-rule="evenodd"
         id="path2" />
    </clipPath>
    <clipPath
       clipPathUnits="userSpaceOnUse"
       id="clipPath4">
      <path
         d="M 0,0.16 V 1122.5601 H 793.59998 V 0.16 Z"
         clip-rule="evenodd"
         id="path4" />
    </clipPath>
    <clipPath
       clipPathUnits="userSpaceOnUse"
       id="clipPath6">
      <path
         d="M 0,0.16 V 1122.5601 H 793.59998 V 0.16 Z"
         clip-rule="evenodd"
         id="path6" />
    </clipPath>
    <clipPath
       clipPathUnits="userSpaceOnUse"
       id="clipPath8">
      <path
         d="M 0,0.16 V 1122.5601 H 793.59998 V 0.16 Z"
         transform="translate(-142.08,-698.71997)"
         clip-rule="evenodd"
         id="path8" />
    </clipPath>
    <clipPath
       clipPathUnits="userSpaceOnUse"
       id="clipPath10">
      <path
         d="M 0,0.16 V 1122.5601 H 793.59998 V 0.16 Z"
         transform="translate(-502.88,-564.32001)"
         clip-rule="evenodd"
         id="path10" />
    </clipPath>
    <clipPath
       clipPathUnits="userSpaceOnUse"
       id="clipPath12">
      <path
         d="M 0,0.16 V 1122.5601 H 793.59998 V 0.16 Z"
         transform="translate(-441.92001,-631.52002)"
         clip-rule="evenodd"
         id="path12" />
    </clipPath>
    <clipPath
       clipPathUnits="userSpaceOnUse"
       id="clipPath14">
      <path
         d="M 0,0.16 V 1122.5601 H 793.59998 V 0.16 Z"
         transform="translate(-383.51999,-775.20001)"
         clip-rule="evenodd"
         id="path14" />
    </clipPath>
  </defs>
  <sodipodi:namedview
     id="namedview1"
     pagecolor="#505050"
     bordercolor="#eeeeee"
     borderopacity="1"
     inkscape:showpageshadow="0"
     inkscape:pageopacity="0"
     inkscape:pagecheckerboard="0"
     inkscape:deskcolor="#505050">
    <inkscape:page
       x="0"
       y="0"
       inkscape:label="1"
       id="page1"
       width="564.29333"
       height="493.88"
       margin="0"
       bleed="0" />
  </sodipodi:namedview>
  <g
     id="g1"
     inkscape:groupmode="layer"
     inkscape:label="1">
    <path
       id="path1"
       d="m 181.60001,341.12 458.07998,1.11999"
       style="fill:none;stroke:#000000;stroke-width:26.4;stroke-linecap:round;stroke-linejoin:round;stroke-miterlimit:10;stroke-dasharray:none;stroke-opacity:1"
       transform="translate(0,14.679941)"
       clip-path="url(#clipPath2)" />
    <path
       id="path3"
       d="M 337.60001,340 293.12,716.96002"
       style="fill:none;stroke:#000000;stroke-width:26.4;stroke-linecap:round;stroke-linejoin:round;stroke-miterlimit:10;stroke-dasharray:none;stroke-opacity:1"
       transform="translate(0,14.679941)"
       clip-path="url(#clipPath4)" />
    <path
       id="path5"
       d="m 484.79999,340.64001 18.88,226.56"
       style="fill:none;stroke:#000000;stroke-width:26.4;stroke-linecap:round;stroke-linejoin:round;stroke-miterlimit:10;stroke-dasharray:none;stroke-opacity:1"
       transform="translate(0,14.679941)"
       clip-path="url(#clipPath6)" />
    <path
       id="path7"
       d="m 0,0 -0.16,5.44 v 5.28 l 0.48,5.44 0.96,5.280001 1.28,5.279998 1.6,5.120001 1.92,4.959999 2.4,4.959999 2.72,4.640004 2.88,4.479999 3.360001,4.16 3.68,4 3.839998,3.84 4.160002,3.359997 4.319998,3.200004 4.640003,2.879998 4.799999,2.400001 4.959999,2.239998 4.959999,1.760002 5.280003,1.440003 5.279999,0.959999 5.279998,0.639999 5.440003,0.32 5.439995,-0.160004 5.280006,-0.479996 5.439995,-0.800003 5.120003,-1.279998 L 100.48,77.760002 105.6,75.68 l 4.8,-2.239998 4.64,-2.720001 4.48,-3.040001 4.32,-3.199997 4,-3.680004 3.68,-3.84 3.51999,-4.16 L 138.24,48.32 140.96001,43.84 143.52,39.040001 145.60001,34.080002 147.36,28.959999 148.8,23.84 149.92,18.559999 150.56,13.12"
       style="fill:none;stroke:#000000;stroke-width:26.4;stroke-linecap:round;stroke-linejoin:round;stroke-miterlimit:10;stroke-dasharray:none;stroke-opacity:1"
       transform="translate(142.08,713.39991)"
       clip-path="url(#clipPath8)" />
    <path
       id="path9"
       d="m 0,0 -0.32,5.44 0.16,5.28 0.48,5.44 0.8,5.280001 L 2.4,26.719999 4,31.84 l 2.08,4.959999 2.24,4.959999 2.72,4.640004 3.04,4.479999 3.200001,4.32 3.679998,4 3.84,3.68 4.16,3.359997 4.48,3.200004 4.479999,2.879998 4.800003,2.400001 4.959999,2.239998 5.119999,1.760002 5.119999,1.440003 5.280003,0.959999 5.439998,0.639999 5.279999,0.32 5.440003,-0.160004 5.440002,-0.479996 5.279999,-0.800003 5.279999,-1.279998 5.119999,-1.599999 4.96,-1.920006 4.96,-2.399994 4.64,-2.720001 4.48,-3.040001 4.16,-3.199997 4,-3.680004 3.84,-3.84 3.36,-4.16 3.2,-4.319999 2.88001,-4.64 2.39999,-4.799999 2.08,-4.959999 1.92,-5.120003 1.28,-5.119999 1.11999,-5.280001 0.64,-5.439999"
       style="fill:none;stroke:#000000;stroke-width:26.4;stroke-linecap:round;stroke-linejoin:round;stroke-miterlimit:10;stroke-dasharray:none;stroke-opacity:1"
       transform="translate(502.88,578.99995)"
       clip-path="url(#clipPath10)" />
    <path
       id="path11"
       d="m 0,0 -3.68,-1.28 -3.68,-0.96 -3.84,-0.48 -3.68,-0.32 -3.839999,0.16 -3.84,0.48 -3.680001,0.8 -3.68,1.12 -3.519999,1.6 -3.36,1.76 L -40,4.96 -42.880001,7.36 -45.599998,10.08 -48.16,12.96 -50.240002,16 -52.16,19.360001 -53.759998,22.879999 -55.040001,26.4 -56,30.08 l -0.639999,3.839998 -0.16,3.84 0.16,3.84 0.479999,3.680001 0.799999,3.84 1.119999,3.52 1.600003,3.520001 1.759998,3.36 2.080002,3.200001 2.399997,3.040001 2.720002,2.720001 2.880001,2.399994 3.040001,2.240006 3.359996,1.919998 3.520003,1.599998"
       style="fill:none;stroke:#000000;stroke-width:26.4;stroke-linecap:round;stroke-linejoin:round;stroke-miterlimit:10;stroke-dasharray:none;stroke-opacity:1"
       transform="translate(441.92001,646.19996)"
       clip-path="url(#clipPath12)" />
    <path
       id="path13"
       d="m 0,0 3.04,1.28 3.2,0.96 3.36,0.64 3.36,0.32 h 3.36 L 19.68,2.88 23.040001,2.24 26.24,1.44 29.440001,0.16 32.48,-1.28 l 2.880001,-1.76 2.720001,-1.92 2.559997,-2.24 2.240002,-2.4 2.079998,-2.72 1.920002,-2.72 1.599999,-3.04 1.279998,-3.200001 0.960003,-3.199999 0.64,-3.2 0.479999,-3.360001 v -3.360001 L 51.68,-37.759998 51.200001,-41.119999 50.400002,-44.48 49.279999,-47.52 47.84,-50.720001 46.080002,-53.599998 44.16,-56.32 42.080002,-58.880001 39.68,-61.279999 l -2.720001,-2.080002 -2.719997,-1.919998 -3.040001,-1.599998"
       style="fill:none;stroke:#000000;stroke-width:26.4;stroke-linecap:round;stroke-linejoin:round;stroke-miterlimit:10;stroke-dasharray:none;stroke-opacity:1"
       transform="translate(383.51999,789.87995)"
       clip-path="url(#clipPath14)" />
  </g>
</svg>
