<?xml version="1.0" encoding="UTF-8" standalone="no"?>
<!-- Created with Inkscape (http://www.inkscape.org/) -->

<svg
   version="1.1"
   id="svg1"
   width="277.48001"
   height="477.85333"
   viewBox="0 0 277.48001 477.85333"
   sodipodi:docname="Pound2.pdf"
   xmlns:inkscape="http://www.inkscape.org/namespaces/inkscape"
   xmlns:sodipodi="http://sodipodi.sourceforge.net/DTD/sodipodi-0.dtd"
   xmlns="http://www.w3.org/2000/svg"
   xmlns:svg="http://www.w3.org/2000/svg">
  <defs
     id="defs1">
    <clipPath
       clipPathUnits="userSpaceOnUse"
       id="clipPath2">
      <path
         d="M 0,0.16 V 1122.5601 H 793.59998 V 0.16 Z"
         transform="translate(-3.3333333e-6)"
         clip-rule="evenodd"
         id="path2" />
    </clipPath>
    <clipPath
       clipPathUnits="userSpaceOnUse"
       id="clipPath4">
      <path
         d="M 0,0.16 V 1122.5601 H 793.59998 V 0.16 Z"
         transform="translate(-268.32001,-488)"
         clip-rule="evenodd"
         id="path4" />
    </clipPath>
    <clipPath
       clipPathUnits="userSpaceOnUse"
       id="clipPath6">
      <path
         d="M 0,0.16 V 1122.5601 H 793.59998 V 0.16 Z"
         transform="translate(-3.3333333e-6)"
         clip-rule="evenodd"
         id="path6" />
    </clipPath>
    <clipPath
       clipPathUnits="userSpaceOnUse"
       id="clipPath8">
      <path
         d="M 0,0.16 V 1122.5601 H 793.59998 V 0.16 Z"
         transform="translate(-3.3333333e-6)"
         clip-rule="evenodd"
         id="path8" />
    </clipPath>
    <clipPath
       clipPathUnits="userSpaceOnUse"
       id="clipPath10">
      <path
         d="M 0,0.16 V 1122.5601 H 793.59998 V 0.16 Z"
         transform="translate(-497.6,-790.88)"
         clip-rule="evenodd"
         id="path10" />
    </clipPath>
    <clipPath
       clipPathUnits="userSpaceOnUse"
       id="clipPath12">
      <path
         d="M 0,0.16 V 1122.5601 H 793.59998 V 0.16 Z"
         transform="translate(-3.3333333e-6)"
         clip-rule="evenodd"
         id="path12" />
    </clipPath>
    <clipPath
       clipPathUnits="userSpaceOnUse"
       id="clipPath14">
      <path
         d="M 0,0.16 V 1122.5601 H 793.59998 V 0.16 Z"
         transform="translate(-3.3333333e-6)"
         clip-rule="evenodd"
         id="path14" />
    </clipPath>
  </defs>
  <sodipodi:namedview
     id="namedview1"
     pagecolor="#505050"
     bordercolor="#eeeeee"
     borderopacity="1"
     inkscape:showpageshadow="0"
     inkscape:pageopacity="0"
     inkscape:pagecheckerboard="0"
     inkscape:deskcolor="#505050">
    <inkscape:page
       x="0"
       y="0"
       inkscape:label="1"
       id="page1"
       width="277.48001"
       height="477.85333"
       margin="0"
       bleed="0" />
  </sodipodi:namedview>
  <g
     id="g1"
     inkscape:groupmode="layer"
     inkscape:label="1">
    <path
       id="path1"
       d="M 381.60001,412.48001 V 865.44"
       style="fill:none;stroke:#000000;stroke-width:26.4;stroke-linecap:round;stroke-linejoin:round;stroke-miterlimit:10;stroke-dasharray:none;stroke-opacity:1"
       transform="translate(-244.13333,-401.77339)"
       clip-path="url(#clipPath2)" />
    <path
       id="path3"
       d="m 0,0 0.16,6.72 0.64,6.88 0.96,6.72 1.44,6.720001 1.92,6.559997 2.24,6.560002 2.56,6.240002 3.04,6.239997 3.36,5.920002 L 20,64.32 24,69.760002 28.48,75.040001 33.119999,80 l 4.960003,4.639999 5.279999,4.480004 5.599998,4 5.600002,3.68 6.079998,3.359997 6.080002,3.04 6.400002,2.72 6.399994,2.08 6.560005,1.92 6.720001,1.44 6.719994,0.96 6.880003,0.64 6.88,0.32 6.72,-0.32 6.88,-0.64 6.72001,-0.96 6.72,-1.44 6.55999,-1.92 6.56,-2.08 6.23999,-2.72 6.24001,-3.04 5.92,-3.359997 5.76001,-3.68 5.43998,-4 5.28002,-4.480004 L 193.28,80 l 4.8,-4.959999 4.31999,-5.279999 4,-5.440002 3.84001,-5.759999 3.36001,-5.920002 L 216.48,46.400002 219.2,40.16 221.44,33.599998 223.2,27.040001 224.64,20.32 225.75999,13.6 226.24,6.72 226.56,0"
       style="fill:none;stroke:#000000;stroke-width:26.4;stroke-linecap:round;stroke-linejoin:round;stroke-miterlimit:10;stroke-dasharray:none;stroke-opacity:1"
       transform="translate(24.186674,86.226608)"
       clip-path="url(#clipPath4)" />
    <path
       id="path5"
       d="M 268.32001,488 V 412.48001"
       style="fill:none;stroke:#000000;stroke-width:26.4;stroke-linecap:round;stroke-linejoin:round;stroke-miterlimit:10;stroke-dasharray:none;stroke-opacity:1"
       transform="translate(-244.13333,-401.77339)"
       clip-path="url(#clipPath6)" />
    <path
       id="path7"
       d="M 494.88,488 V 412.48001"
       style="fill:none;stroke:#000000;stroke-width:26.4;stroke-linecap:round;stroke-linejoin:round;stroke-miterlimit:10;stroke-dasharray:none;stroke-opacity:1"
       transform="translate(-244.13333,-401.77339)"
       clip-path="url(#clipPath8)" />
    <path
       id="path9"
       d="m 0,0 -0.16,-6.88 -0.64,-6.72 -1.12,-6.88 -1.44,-6.720001 -1.76,-6.559997 -2.24,-6.400002 -2.72,-6.400001 -2.88,-6.079998 -3.36,-5.920002 -3.84,-5.759999 -4,-5.599998 -4.32,-5.279999 -4.799999,-4.960007 -4.960003,-4.639999 -5.279998,-4.32 -5.439999,-4.159996 -5.760002,-3.68 -5.919998,-3.360001 -6.239998,-3.04 -6.240006,-2.56 -6.559997,-2.24 -6.559998,-1.76 -6.720001,-1.44 -6.720001,-1.12 -6.72,-0.64 -6.88,-0.16 -6.88,0.16 -6.72,0.64 -6.87999,1.12 -6.72001,1.44 -6.55999,1.76 -6.40001,2.24 -6.4,2.56 -6.08,3.04 -5.92,3.360001 -5.76001,3.68 -5.59999,4.159996 -5.28,4.32 -4.96,4.639999 -4.64,4.960007 -4.31999,5.279999 -4.16001,5.599998 -3.68,5.759999 -3.36001,5.920002 -3.03999,6.079998 -2.56,6.400001 -2.24,6.400002 -1.92,6.559997 -1.44,6.720001 -0.95999,6.88 -0.64,6.72 L -226.56,0"
       style="fill:none;stroke:#000000;stroke-width:26.4;stroke-linecap:round;stroke-linejoin:round;stroke-miterlimit:10;stroke-dasharray:none;stroke-opacity:1"
       transform="translate(253.46667,389.10661)"
       clip-path="url(#clipPath10)" />
    <path
       id="path11"
       d="m 497.60001,790.88 v 75.52002"
       style="fill:none;stroke:#000000;stroke-width:26.4;stroke-linecap:round;stroke-linejoin:round;stroke-miterlimit:10;stroke-dasharray:none;stroke-opacity:1"
       transform="translate(-244.13333,-401.77339)"
       clip-path="url(#clipPath12)" />
    <path
       id="path13"
       d="m 271.04001,790.88 v 75.52002"
       style="fill:none;stroke:#000000;stroke-width:26.4;stroke-linecap:round;stroke-linejoin:round;stroke-miterlimit:10;stroke-dasharray:none;stroke-opacity:1"
       transform="translate(-244.13333,-401.77339)"
       clip-path="url(#clipPath14)" />
  </g>
</svg>
