<?xml version="1.0" encoding="UTF-8" standalone="no"?>
<!-- Created with Inkscape (http://www.inkscape.org/) -->

<svg
   version="1.1"
   id="svg1"
   width="478.93332"
   height="472.51999"
   viewBox="0 0 478.93332 472.51999"
   sodipodi:docname="Pound8.pdf"
   xmlns:inkscape="http://www.inkscape.org/namespaces/inkscape"
   xmlns:sodipodi="http://sodipodi.sourceforge.net/DTD/sodipodi-0.dtd"
   xmlns="http://www.w3.org/2000/svg"
   xmlns:svg="http://www.w3.org/2000/svg">
  <defs
     id="defs1">
    <clipPath
       clipPathUnits="userSpaceOnUse"
       id="clipPath2">
      <path
         d="M 0,0.16 V 1122.5601 H 793.59998 V 0.16 Z"
         transform="translate(-421.92001,-381.11999)"
         clip-rule="evenodd"
         id="path2" />
    </clipPath>
    <clipPath
       clipPathUnits="userSpaceOnUse"
       id="clipPath4">
      <path
         d="M 0,0.16 V 1122.5601 H 793.59998 V 0.16 Z"
         transform="translate(-533.91998,-773.11999)"
         clip-rule="evenodd"
         id="path4" />
    </clipPath>
    <clipPath
       clipPathUnits="userSpaceOnUse"
       id="clipPath6">
      <path
         d="M 0,0.16 V 1122.5601 H 793.59998 V 0.16 Z"
         transform="translate(-424,-382.72)"
         clip-rule="evenodd"
         id="path6" />
    </clipPath>
    <clipPath
       clipPathUnits="userSpaceOnUse"
       id="clipPath8">
      <path
         d="M 0,0.16 V 1122.5601 H 793.59998 V 0.16 Z"
         clip-rule="evenodd"
         id="path8" />
    </clipPath>
  </defs>
  <sodipodi:namedview
     id="namedview1"
     pagecolor="#505050"
     bordercolor="#eeeeee"
     borderopacity="1"
     inkscape:showpageshadow="0"
     inkscape:pageopacity="0"
     inkscape:pagecheckerboard="0"
     inkscape:deskcolor="#505050">
    <inkscape:page
       x="0"
       y="0"
       inkscape:label="1"
       id="page1"
       width="478.93332"
       height="472.51999"
       margin="0"
       bleed="0" />
  </sodipodi:namedview>
  <g
     id="g1"
     inkscape:groupmode="layer"
     inkscape:label="1">
    <path
       id="path1"
       d="m 0,0 -6.08,1.92 -6.08,2.24 -5.76,2.72 -5.6,3.04 -5.439999,3.52 -5.120003,3.680001 -4.959999,4.16 L -43.84,25.6 l -4.32,4.64 -4.16,4.960001 -3.84,5.119999 -3.36,5.439998 -3.200001,5.600003 -2.720001,5.759998 -2.399994,5.920002 -1.920006,6.080002 -1.599999,6.239998 -1.279998,6.239997 L -73.440002,88 -73.919998,94.239998 V 100.8 l 0.32,6.24 0.799995,6.4 1.120003,6.4 1.599998,6.08 1.919998,6.08 2.400002,6.08 2.720001,5.76 3.040001,5.6 3.360001,5.44 3.84,5.28 4,4.95999 4.319999,4.64 4.64,4.32001 4.959999,4.16 5.120001,3.84 5.44,3.36 5.600001,3.2 5.759999,2.72 5.92,2.39999 6.08,1.92 6.24,1.76001 6.24,1.12 6.4,0.8 6.4,0.48 h 6.399999 l 6.4,-0.32 6.400001,-0.8 6.239998,-1.11999 L 56,196"
       style="fill:none;stroke:#000000;stroke-width:26.4;stroke-linecap:round;stroke-linejoin:round;stroke-miterlimit:10;stroke-dasharray:none;stroke-opacity:1"
       transform="translate(265.84001,58.106603)"
       clip-path="url(#clipPath2)" />
    <path
       id="path3"
       d="m 0,0 6.08,-1.92 5.92,-2.4 5.92,-2.56 5.6,-3.2 5.439999,-3.36 5.120003,-3.680001 4.959999,-4.16 L 43.68,-25.6 48.16,-30.24 52.32,-35.200001 56,-40.32 l 3.52,-5.439998 3.040001,-5.600003 2.880001,-5.759998 2.239998,-5.920002 2.080002,-6.080002 1.599999,-6.239998 1.279998,-6.239997 L 73.440002,-88 73.919998,-94.400002 V -100.8 l -0.32,-6.4 -0.799995,-6.24 -1.280006,-6.4 -1.439995,-6.08 L 68,-132.16 l -2.239998,-5.92 -2.720001,-5.76 -3.040001,-5.6 -3.360001,-5.44 -3.84,-5.28 -4,-4.95999 -4.479999,-4.64 -4.64,-4.32001 -4.799999,-4.16 -5.280001,-3.84 -5.28,-3.36 -5.600001,-3.2 -5.759999,-2.72 -6.08,-2.39999 -6.08,-1.92 -6.08,-1.76001 -6.4,-1.12 -6.24,-0.8 -6.4,-0.48 h -6.399999 l -6.4,0.32 -6.400001,0.8 -6.239998,1.11999 L -56,-196"
       style="fill:none;stroke:#000000;stroke-width:26.4;stroke-linecap:round;stroke-linejoin:round;stroke-miterlimit:10;stroke-dasharray:none;stroke-opacity:1"
       transform="translate(377.83998,450.1066)"
       clip-path="url(#clipPath4)" />
    <path
       id="path5"
       d="m 0,0 -9.28,-5.12 -9.599999,-4.8 -9.92,-4.32 -9.920002,-3.84 -10.079998,-3.360001 L -59.200001,-24.48 -69.599998,-27.040001 -80,-29.120001 -90.559998,-30.719999 -101.28,-31.84 -112,-32.48 l -10.56,-0.319999 -10.72,0.319999 -10.72,0.64 -10.72,1.120001 -10.56,1.599998 -10.39999,2.08 -10.40001,2.560001 -10.4,3.039999 -10.08,3.360001 -9.92,3.84 -9.91999,4.32 L -236,-5.12 -245.28,0"
       style="fill:none;stroke:#000000;stroke-width:26.4;stroke-linecap:round;stroke-linejoin:round;stroke-miterlimit:10;stroke-dasharray:none;stroke-opacity:1"
       transform="translate(267.92,59.706609)"
       clip-path="url(#clipPath6)" />
    <path
       id="path7"
       d="M 274.39999,775.20001 610.08002,386.56"
       style="fill:none;stroke:#000000;stroke-width:26.4;stroke-linecap:round;stroke-linejoin:round;stroke-miterlimit:10;stroke-dasharray:none;stroke-opacity:1"
       transform="translate(-156.08,-323.01339)"
       clip-path="url(#clipPath8)" />
  </g>
</svg>
