<?xml version="1.0" encoding="UTF-8" standalone="no"?>
<!-- Created with Inkscape (http://www.inkscape.org/) -->

<svg
   version="1.1"
   id="svg1"
   width="759.08002"
   height="595.32001"
   viewBox="0 0 759.08002 595.32001"
   sodipodi:docname="Pound3.pdf"
   xmlns:inkscape="http://www.inkscape.org/namespaces/inkscape"
   xmlns:sodipodi="http://sodipodi.sourceforge.net/DTD/sodipodi-0.dtd"
   xmlns="http://www.w3.org/2000/svg"
   xmlns:svg="http://www.w3.org/2000/svg">
  <defs
     id="defs1">
    <clipPath
       clipPathUnits="userSpaceOnUse"
       id="clipPath3">
      <path
         d="M 0,0.16 V 1122.5601 H 793.59998 V 0.16 Z"
         clip-rule="evenodd"
         id="path3" />
    </clipPath>
  </defs>
  <sodipodi:namedview
     id="namedview1"
     pagecolor="#505050"
     bordercolor="#eeeeee"
     borderopacity="1"
     inkscape:showpageshadow="0"
     inkscape:pageopacity="0"
     inkscape:pagecheckerboard="0"
     inkscape:deskcolor="#505050">
    <inkscape:page
       x="0"
       y="0"
       inkscape:label="1"
       id="page1"
       width="759.08002"
       height="595.32001"
       margin="0"
       bleed="0" />
  </sodipodi:namedview>
  <g
     id="g1"
     inkscape:groupmode="layer"
     inkscape:label="1">
    <path
       id="path1"
       d="m 0,0 h 45.119999 c 0,0 0.479999,156.8 1.120003,470.39999 0.799999,14.88001 5.119999,24 12.959999,27.84 7.679996,3.68002 21.759998,5.60001 41.919999,5.60001 20.16,0 40.63999,-2.4 61.44,-7.19999 20.64,-4.80001 37.28,-11.84002 49.6,-21.12002 l 26.56,44.32004 C 222.88,532.79999 202.56,542.56 177.60001,549.12 152.8,555.67999 127.36,559.03998 101.44,559.03998 c -34.880002,0 -61.44,-4.95996 -79.68,-14.71997 -24,-13.28003 -36,-37.28 -36,-72.32001 L -15.52,60.16 c -1.760001,0 -5.920001,0 -12.32,-0.16 -6.560002,-0.16 -12,-0.32 -16.32,-0.32 -30.079998,0 -54.719997,2.239998 -73.92,6.720002 L -128.96001,10.88 C -97.599998,3.52 -54.560001,0 0,0 Z M 541.76001,367.04001 C 541.76001,266.88 506.07999,216.8 434.88,216.8 c -4.48001,0 -8.80001,0.48 -12.95999,1.44 -4.32,1.12 -8.16,2.08001 -11.36001,2.87999 -3.20001,0.96001 -7.04001,2.72001 -11.51999,5.44001 -4.32001,2.72 -7.52002,4.8 -9.44,5.92 -1.92002,1.12001 -5.28,3.84001 -9.92002,8 -4.63998,4.16 -7.51999,6.55999 -8.32,7.36 -0.96,0.8 -3.84,3.68 -8.79999,8.48001 l -7.35999,7.35998 v 169.92002 c 14.72,23.83999 28.63999,40.16 41.59998,48.95999 12.96002,8.79999 32.16,13.11999 57.44,13.11999 31.68002,0 54.08002,-10.88 67.52002,-32.79999 13.27997,-21.92001 20,-53.76 20,-95.83999 z m 60.95996,7.35998 c 0,26.72001 -2.71997,50.88001 -8.31995,72.32001 -5.60003,21.60001 -14.24005,40.63999 -25.76001,57.12 -11.52001,16.63998 -26.88,29.28 -46.23999,38.24002 -19.20001,8.95996 -41.92001,13.44 -68.16003,13.44 -39.51999,0 -72.63998,-11.84003 -99.03998,-35.36005 C 354.88,528 353.60001,540.32001 350.88,557.44 l -64,-7.35998 c 4.79999,-32.32001 7.35999,-62.88001 7.35999,-91.68003 V 449.12 c 0,-31.35999 -0.16,-87.51999 -0.16,-168.47999 C 293.92001,199.67999 293.76001,140.64 293.76001,103.2 293.76001,77.440002 291.84,45.439999 288,7.68 l 61.76001,-3.52 c 3.67999,29.599998 5.44,63.200001 5.44,101.12 v 78.88 C 364,177.60001 370.56,172.96001 374.88,170.08 c 4.16001,-2.88 11.35999,-5.75999 21.28,-8.96001 10.07999,-3.03999 21.12,-4.63999 33.28,-4.63999 115.52002,0 173.27997,72.63999 173.27997,217.91999 z"
       style="fill:#000000;fill-opacity:1;fill-rule:nonzero;stroke:none"
       transform="translate(135.67999,20.573265)" />
    <path
       id="path2"
       d="M 80.800003,450.56 H 533.91998"
       style="fill:none;stroke:#000000;stroke-width:26.4;stroke-linecap:round;stroke-linejoin:round;stroke-miterlimit:10;stroke-dasharray:none;stroke-opacity:1"
       transform="translate(0,-309.66673)"
       clip-path="url(#clipPath3)" />
  </g>
</svg>
