<?xml version="1.0" encoding="UTF-8" standalone="no"?>
<!-- Created with Inkscape (http://www.inkscape.org/) -->

<svg
   version="1.1"
   id="svg1"
   width="508.26666"
   height="505.88"
   viewBox="0 0 508.26666 505.88"
   sodipodi:docname="Sextarius.pdf"
   xmlns:inkscape="http://www.inkscape.org/namespaces/inkscape"
   xmlns:sodipodi="http://sodipodi.sourceforge.net/DTD/sodipodi-0.dtd"
   xmlns="http://www.w3.org/2000/svg"
   xmlns:svg="http://www.w3.org/2000/svg">
  <defs
     id="defs1">
    <clipPath
       clipPathUnits="userSpaceOnUse"
       id="clipPath2">
      <path
         d="M 0,0.16 V 1122.5601 H 793.59998 V 0.16 Z"
         transform="translate(-623.35998,-358.88)"
         clip-rule="evenodd"
         id="path2" />
    </clipPath>
    <clipPath
       clipPathUnits="userSpaceOnUse"
       id="clipPath4">
      <path
         d="M 0,0.16 V 1122.5601 H 793.59998 V 0.16 Z"
         transform="translate(-243.2,-765.28003)"
         clip-rule="evenodd"
         id="path4" />
    </clipPath>
    <clipPath
       clipPathUnits="userSpaceOnUse"
       id="clipPath6">
      <path
         d="M 0,0.16 V 1122.5601 H 793.59998 V 0.16 Z"
         clip-rule="evenodd"
         id="path6" />
    </clipPath>
    <clipPath
       clipPathUnits="userSpaceOnUse"
       id="clipPath8">
      <path
         d="M 0,0.16 V 1122.5601 H 793.59998 V 0.16 Z"
         transform="translate(-623.03998,-359.35998)"
         clip-rule="evenodd"
         id="path8" />
    </clipPath>
    <clipPath
       clipPathUnits="userSpaceOnUse"
       id="clipPath10">
      <path
         d="M 0,0.16 V 1122.5601 H 793.59998 V 0.16 Z"
         clip-rule="evenodd"
         id="path10" />
    </clipPath>
    <clipPath
       clipPathUnits="userSpaceOnUse"
       id="clipPath12">
      <path
         d="M 0,0.16 V 1122.5601 H 793.59998 V 0.16 Z"
         clip-rule="evenodd"
         id="path12" />
    </clipPath>
  </defs>
  <sodipodi:namedview
     id="namedview1"
     pagecolor="#505050"
     bordercolor="#eeeeee"
     borderopacity="1"
     inkscape:showpageshadow="0"
     inkscape:pageopacity="0"
     inkscape:pagecheckerboard="0"
     inkscape:deskcolor="#505050">
    <inkscape:page
       x="0"
       y="0"
       inkscape:label="1"
       id="page1"
       width="508.26666"
       height="505.88"
       margin="0"
       bleed="0" />
  </sodipodi:namedview>
  <g
     id="g1"
     inkscape:groupmode="layer"
     inkscape:label="1">
    <path
       id="path1"
       d="m 0,0 -4.48,-2.24 -4.8,-1.92 -5.12,-1.44 -5.12,-1.12 -5.439999,-0.8 -5.6,-0.16 H -36.16 L -42.080002,-7.2 -48,-6.24 -54.080002,-4.96 -60.16,-3.2 l -6.079998,2.08 -6.240005,2.4 -6.239998,2.88 -6.080002,3.2 -6.239998,3.52 -6.080002,4 -6.079997,4.160001 -5.92,4.639999 -5.92,4.8 -5.76,5.119998 -5.6,5.440003 -5.44,5.759998 -5.44,5.920002 -4.96,6.079998 -4.96,6.400002 -4.64,6.560001 -4.48001,6.720001 -4.31999,6.719994 -3.84,7.040001 -3.68,7.040001 -3.36,7.040001 -3.2,7.2 -2.72,7.2 -2.4,7.2 -2.24,7.19999 -1.76,7.20002 -1.6,7.19999 -1.12,7.04 -0.8,6.88 -0.48,6.72 v 6.72 l 0.16001,6.4 0.64,6.39999 0.79999,6.08 1.27999,5.92 1.60001,5.60001 1.92,5.28"
       style="fill:none;stroke:#000000;stroke-width:26.4;stroke-linecap:round;stroke-linejoin:round;stroke-miterlimit:10;stroke-dasharray:none;stroke-opacity:1"
       transform="translate(479.27998,54.546613)"
       clip-path="url(#clipPath2)" />
    <path
       id="path3"
       d="m 0,0 3.52,4 3.68,3.52 4,3.36 4.32,2.72 4.48,2.56 4.799999,2.08 4.960001,1.6 5.120001,1.280001 L 40.32,22.08 45.759998,22.559999 H 51.52 L 57.439999,22.24 63.360001,21.440001 69.440002,20.16 l 6.079995,-1.440001 6.240005,-2.08 L 87.839996,14.24 94.239998,11.52 100.48,8.48 l 6.24,-3.52 6.08,-3.84 6.24,-4.16 5.92,-4.64 6.07999,-4.8 5.76001,-5.12 5.76,-5.440001 5.44,-5.599998 5.44,-5.920002 5.28,-6.239998 4.95999,-6.400002 4.80001,-6.559997 4.48001,-6.720002 4.31999,-6.880001 4,-6.879997 3.68001,-7.200004 3.51999,-7.199997 3.19999,-7.199997 2.72,-7.200004 2.56002,-7.36 2.23999,-7.2 1.91999,-7.2 1.44001,-7.2 1.28,-7.2 0.8,-6.88 0.47999,-6.88001 0.16001,-6.71998 -0.16001,-6.56001 -0.63999,-6.4 -0.96,-6.08 -1.28,-5.92 -1.6,-5.75999 -1.92,-5.44001"
       style="fill:none;stroke:#000000;stroke-width:26.4;stroke-linecap:round;stroke-linejoin:round;stroke-miterlimit:10;stroke-dasharray:none;stroke-opacity:1"
       transform="translate(99.119997,460.94664)"
       clip-path="url(#clipPath4)" />
    <path
       id="path5"
       d="M 170.24,566.56 H 623.03998"
       style="fill:none;stroke:#000000;stroke-width:26.4;stroke-linecap:round;stroke-linejoin:round;stroke-miterlimit:10;stroke-dasharray:none;stroke-opacity:1"
       transform="translate(-144.08,-304.33339)"
       clip-path="url(#clipPath6)" />
    <path
       id="path7"
       d="M 0,0 -9.76,-4.32 -19.68,-8.48 -29.76,-12 -40,-15.2 -50.400002,-17.92 -60.959999,-20.16 -71.519997,-22.08 -82.080002,-23.360001 -92.800003,-24.16 -103.52,-24.639999 -114.24,-24.48 l -10.72,0.48 -10.56,1.120001 -10.72,1.439998 -10.56,1.920001 -10.4,2.560001 -10.40001,2.879999 -10.07998,3.2 -10.08,3.84 -9.92,4.16 -9.60001,4.64 -9.6,5.12 -9.28,5.44 -8.95999,5.92 -8.80001,6.24 -8.47999,6.720001 -8.16001,7.040001 -7.83999,7.359996 -7.52002,7.680001 -7.19999,8.16 -6.88,8.320003 -6.56,8.64 -6.08001,8.959999 -5.75998,9.120002 -5.44001,9.439997 -4.95999,9.76 -4.48001,9.76 -4.16,10.08 -3.68,10.23999 -3.20001,10.40001 -2.72,10.56 -2.39999,10.56 -1.91999,10.72 -1.44,10.88 -0.96002,10.87999 -0.47998,10.88001 v 10.88 l 0.47998,10.87999 0.80002,10.72 1.44,10.88001 1.75998,10.72 2.40002,10.72 2.71998,10.4 3.04,10.39999 3.68,10.40002 4,10.07999 4.48001,9.76001 4.95999,9.75998 5.28,9.44 5.6,9.28 6.08002,8.96002 6.56,8.63999 6.72,8.48001 7.19998,8 7.52002,7.83999 7.84,7.35999"
       style="fill:none;stroke:#000000;stroke-width:26.4;stroke-linecap:round;stroke-linejoin:round;stroke-miterlimit:10;stroke-dasharray:none;stroke-opacity:1"
       transform="translate(478.95998,55.026593)"
       clip-path="url(#clipPath8)" />
    <path
       id="path9"
       d="m 170.24,520.47998 v 92.16003"
       style="fill:none;stroke:#000000;stroke-width:26.4;stroke-linecap:round;stroke-linejoin:round;stroke-miterlimit:10;stroke-dasharray:none;stroke-opacity:1"
       transform="translate(-144.08,-304.33339)"
       clip-path="url(#clipPath10)" />
    <path
       id="path11"
       d="m 623.03998,520.47998 v 92.16003"
       style="fill:none;stroke:#000000;stroke-width:26.4;stroke-linecap:round;stroke-linejoin:round;stroke-miterlimit:10;stroke-dasharray:none;stroke-opacity:1"
       transform="translate(-144.08,-304.33339)"
       clip-path="url(#clipPath12)" />
  </g>
</svg>
