<?xml version="1.0" encoding="UTF-8" standalone="no"?>
<!-- Created with Inkscape (http://www.inkscape.org/) -->

<svg
   version="1.1"
   id="svg1"
   width="364.18668"
   height="443.14667"
   viewBox="0 0 364.18668 443.14667"
   sodipodi:docname="Aludel.pdf"
   xmlns:inkscape="http://www.inkscape.org/namespaces/inkscape"
   xmlns:sodipodi="http://sodipodi.sourceforge.net/DTD/sodipodi-0.dtd"
   xmlns="http://www.w3.org/2000/svg"
   xmlns:svg="http://www.w3.org/2000/svg">
  <defs
     id="defs1">
    <clipPath
       clipPathUnits="userSpaceOnUse"
       id="clipPath2">
      <path
         d="M -337.12,-357.76001 V 764.64001 H 456.48001 V -357.76001 Z"
         transform="translate(-5e-6)"
         clip-rule="evenodd"
         id="path2" />
    </clipPath>
  </defs>
  <sodipodi:namedview
     id="namedview1"
     pagecolor="#505050"
     bordercolor="#eeeeee"
     borderopacity="1"
     inkscape:showpageshadow="0"
     inkscape:pageopacity="0"
     inkscape:pagecheckerboard="0"
     inkscape:deskcolor="#505050">
    <inkscape:page
       x="0"
       y="0"
       inkscape:label="1"
       id="page1"
       width="364.18668"
       height="443.14667"
       margin="0"
       bleed="0" />
  </sodipodi:namedview>
  <g
     id="g1"
     inkscape:groupmode="layer"
     inkscape:label="1">
    <path
       id="path1"
       d="m 0,0 h 5.6 l 16.959999,0.16 10.88,0.16 7.52,0.32 12.959999,0.8 11.040001,1.28 9.599999,1.44 8.480003,1.6 7.519997,2.08 7.04,2.24 6.080002,2.56 4.32,1.92 5.44,3.04 5.28,3.359999 4.96,3.84 4.64001,3.84 4.31999,4.32 3.84,4.48 3.36,4.640003 3.04,4.639999 2.56,4.959999 1.92,4.8 1.60001,4.959999 1.11999,4.960003 0.64,4.959999 0.16,4.159996 v 3.840004 l -0.64,4.800003 -0.96,4.639999 -1.60001,4.639999 -1.92,4.64 -2.23999,4.639998 -2.88,4.32 -3.2,4.32 -3.68001,4.16 -4,4 -4.47999,3.84 -4.8,3.52 -5.12,3.2 -5.6,3.03999 -5.92,2.88001 -6.079998,2.39999 -0.32,0.16001 -5.279998,1.76001 -6.880005,1.91999 -7.839997,2.08001 -8.639999,1.91999 -10.080002,1.92 -11.84,2.23999 -14.560001,2.72 -7.680001,1.76001 -13.759999,3.2 -11.52,3.52001 -9.76,3.36 -8.640001,3.51999 -7.679998,3.84001 -1.600001,0.79998 -6.080002,3.52001 -6.719997,4.16 L -47.68,185.60001 -54.080002,190.72 -60.32,196.32001 -66.239998,202.24 -72,208.64 l -5.279999,6.56 -4.959999,6.72 -4.480003,6.88 -4,6.87999 -3.360001,6.72 -3.040001,6.88001 -2.399994,6.56 -1.920003,6.55999 -1.28,6.24002 -0.96,6.07999 -0.16,2.23999 -0.32,5.60001 0.16,5.6 0.64,5.76001 0.96,5.59998 1.44,5.60001 1.919999,5.6 2.239998,5.76001 2.880005,5.59998 3.199997,5.6 3.840004,5.60001 4.319999,5.6 4.64,5.44001 5.439995,5.6 5.760002,5.43998 6.400001,5.44 6.880001,5.28 3.039997,2.08001 4.800004,3.19999 7.84,4.96002 8.319997,4.63998 8.480002,4.32001 8.799999,3.84 8.96,3.52001 9.28,3.19999 9.6,2.72 9.760001,2.39999 9.92,1.92001 10.239997,1.60001 10.400002,1.12 3.68,0.32 6.239998,0.47998 10.720001,0.32001 10.559998,-0.16 10.560005,-0.48001 10.079998,-1.12 9.76,-1.44 9.12,-1.75998 8.8,-2.24002 8.32,-2.56 7.68,-3.03998 7.36,-3.20001 6.87999,-3.51999 6.40001,-3.68002 4,-2.72 4.64,-3.51999 5.28,-4.48001 5.28,-4.79999 4.8,-5.28 4.64,-5.44 4.31999,-5.76001 3.84002,-6.07999 3.51999,-6.23999 2.88,-6.24002 2.72,-6.39999 2.08,-6.23999 1.59999,-6.4 1.12001,-6.08001 0.64,-6.07999 0.15999,-5.92001 -0.31999,-5.60001 v -0.63998 l -0.64,-4.80002 -1.11999,-5.12 -1.60001,-5.28 -1.92,-5.11999 -2.40001,-4.95999 -2.87999,-4.80002 -3.19999,-4.79999 -3.68001,-4.48 -4.16001,-4.32 -4.47999,-4.16001 -4.8,-3.83999 -5.12,-3.68 -5.60001,-3.20001 L 176,228.16 170.08,225.60001 163.84,223.52 h -0.32 l -4.8,-1.44 -6.39999,-1.28 -6.72,-0.96 -6.88001,-0.64 h -7.04001 l -7.03999,0.32 -7.04,0.64 -6.88,1.28 -6.72,1.59999 -6.400002,1.92002 L 91.68,227.36 86.080002,230.08 80.800003,232.96001 76,236.16 l -3.68,3.04 -3.199997,2.88 -3.680001,3.84 -3.2,4.16 -3.040001,4.48 -2.880001,4.79999 -2.400002,4.96002 -1.919998,5.28 -1.599998,5.44 -1.280003,5.44 -0.799999,5.44 -0.32,5.28 V 296.16 l 0.48,4.79999 0.799999,4.32001 0.960003,3.20001 1.119999,2.72 1.599998,3.19998 1.920002,3.20002 2.399998,2.88 2.720001,2.87998 3.200001,2.56002 3.679996,2.56 4.160004,2.39999 4.799995,2.24 5.600006,2.23999 6.879998,2.40002 5.919998,2.07999"
       style="fill:none;stroke:#000000;stroke-width:26.4;stroke-linecap:round;stroke-linejoin:round;stroke-miterlimit:10;stroke-dasharray:none;stroke-opacity:1"
       transform="translate(337.12,359.25329)"
       clip-path="url(#clipPath2)" />
  </g>
</svg>
