<?xml version="1.0" encoding="UTF-8" standalone="no"?>
<!-- Created with Inkscape (http://www.inkscape.org/) -->

<svg
   version="1.1"
   id="svg1"
   width="112.06667"
   height="328.35999"
   viewBox="0 0 112.06667 328.35999"
   sodipodi:docname="Asklepios.pdf"
   xmlns:inkscape="http://www.inkscape.org/namespaces/inkscape"
   xmlns:sodipodi="http://sodipodi.sourceforge.net/DTD/sodipodi-0.dtd"
   xmlns="http://www.w3.org/2000/svg"
   xmlns:svg="http://www.w3.org/2000/svg">
  <defs
     id="defs1">
    <clipPath
       clipPathUnits="userSpaceOnUse"
       id="clipPath2">
      <path
         d="M 0,0.16 V 1122.5601 H 793.59998 V 0.16 Z"
         transform="translate(-322.39999,-582.88001)"
         clip-rule="evenodd"
         id="path2" />
    </clipPath>
    <clipPath
       clipPathUnits="userSpaceOnUse"
       id="clipPath4">
      <path
         d="M 0,0.16 V 1122.5601 H 793.59998 V 0.16 Z"
         transform="translate(-325.44,-605.76001)"
         clip-rule="evenodd"
         id="path4" />
    </clipPath>
    <clipPath
       clipPathUnits="userSpaceOnUse"
       id="clipPath6">
      <path
         d="M 0,0.16 V 1122.5601 H 793.59998 V 0.16 Z"
         transform="translate(-348.79999,-617.76001)"
         clip-rule="evenodd"
         id="path6" />
    </clipPath>
    <clipPath
       clipPathUnits="userSpaceOnUse"
       id="clipPath8">
      <path
         d="M 0,0.16 V 1122.5601 H 793.59998 V 0.16 Z"
         transform="translate(-325.44,-732.47998)"
         clip-rule="evenodd"
         id="path8" />
    </clipPath>
    <clipPath
       clipPathUnits="userSpaceOnUse"
       id="clipPath10">
      <path
         d="M 0,0.16 V 1122.5601 H 793.59998 V 0.16 Z"
         transform="translate(-342.72,-717.76001)"
         clip-rule="evenodd"
         id="path10" />
    </clipPath>
    <clipPath
       clipPathUnits="userSpaceOnUse"
       id="clipPath12">
      <path
         d="M 0,0.16 V 1122.5601 H 793.59998 V 0.16 Z"
         transform="translate(-330.56,-835.03998)"
         clip-rule="evenodd"
         id="path12" />
    </clipPath>
    <clipPath
       clipPathUnits="userSpaceOnUse"
       id="clipPath14">
      <path
         d="M 0,0.16 V 1122.5601 H 793.59998 V 0.16 Z"
         transform="translate(-346.72,-768.15997)"
         clip-rule="evenodd"
         id="path14" />
    </clipPath>
    <clipPath
       clipPathUnits="userSpaceOnUse"
       id="clipPath16">
      <path
         d="M 0,0.16 V 1122.5601 H 793.59998 V 0.16 Z"
         transform="translate(-323.84,-773.44)"
         clip-rule="evenodd"
         id="path16" />
    </clipPath>
    <clipPath
       clipPathUnits="userSpaceOnUse"
       id="clipPath18">
      <path
         d="M 0,0.16 V 1122.5601 H 793.59998 V 0.16 Z"
         transform="translate(-350.56,-636.64002)"
         clip-rule="evenodd"
         id="path18" />
    </clipPath>
    <clipPath
       clipPathUnits="userSpaceOnUse"
       id="clipPath20">
      <path
         d="M 0,0.16 V 1122.5601 H 793.59998 V 0.16 Z"
         transform="translate(-323.51999,-644.15997)"
         clip-rule="evenodd"
         id="path20" />
    </clipPath>
    <clipPath
       clipPathUnits="userSpaceOnUse"
       id="clipPath22">
      <path
         d="M 0,0.16 V 1122.5601 H 793.59998 V 0.16 Z"
         transform="translate(-355.51999,-598.88001)"
         clip-rule="evenodd"
         id="path22" />
    </clipPath>
    <clipPath
       clipPathUnits="userSpaceOnUse"
       id="clipPath24">
      <path
         d="M 0,0.16 V 1122.5601 H 793.59998 V 0.16 Z"
         transform="translate(-355.51999,-598.88001)"
         clip-rule="evenodd"
         id="path24" />
    </clipPath>
  </defs>
  <sodipodi:namedview
     id="namedview1"
     pagecolor="#505050"
     bordercolor="#eeeeee"
     borderopacity="1"
     inkscape:showpageshadow="0"
     inkscape:pageopacity="0"
     inkscape:pagecheckerboard="0"
     inkscape:deskcolor="#505050">
    <inkscape:page
       x="0"
       y="0"
       inkscape:label="1"
       id="page1"
       width="112.06667"
       height="328.35999"
       margin="0"
       bleed="0" />
  </sodipodi:namedview>
  <g
     id="g1"
     inkscape:groupmode="layer"
     inkscape:label="1">
    <path
       id="path1"
       d="M 0,0 -0.32,-0.96 -0.8,-3.84 -1.28,-6.56 -1.44,-8.8 -1.6,-10.88 v -1.92 l 0.16,-0.8 v -0.48 l 0.16,-0.96 0.48,-0.96 0.64,-0.799999 0.96,-0.640002 H 1.12 L 1.44,-17.6 h 0.64 1.44 l 1.92,0.319999 0.48,0.16 0.16,0.160002 0.96,0.16 2.56,1.119999 2.08,1.12 0.32,0.32 1.12,0.64 3.04,1.76 1.280001,0.48 1.279998,0.32 h 0.320002 L 20,-10.88 l 1.76,-0.32 2.08,-0.48 1.440001,-0.48 H 25.6 l 0.8,-0.16 h 1.28 l 0.959999,0.48 0.480002,0.8 v 0.16 l 0.16,0.16 0.16,0.96 -0.16,1.6 -0.16,1.92 -0.480002,2.08 L 27.84,-1.6 27.040001,0.96"
       style="fill:none;stroke:#000000;stroke-width:11.2;stroke-linecap:round;stroke-linejoin:round;stroke-miterlimit:10;stroke-dasharray:none;stroke-opacity:1"
       transform="translate(322.39999,279.87995)"
       clip-path="url(#clipPath2)" />
    <path
       id="path3"
       d="m 0,0 0.32,1.76 0.48,3.04 0.48,2.72 0.32,2.4 0.32,2.24 0.32,1.76 v 1.76 l 0.16,1.600001 -0.16,1.279998 v 0.640002 L 2.08,19.68 1.92,20.959999 1.44,24.16 1.12,26.08 0.96,28.32 v 0.639999 l 0.16,1.92 0.16,3.200003 0.32,3.679996 0.32,4.640004 0.32,2.239997 v 0.959999 L 2.4,48.48 2.72,52.639999 2.88,56.48 l 0.16,2.400001 0.16,3.360001 0.16,0.639999 v 1.920002 l 0.16,2.239998 V 69.120003 70.879997 71.68 72 l -0.16,0.800003 -0.48,1.279999 -0.48,0.799995 -0.64,0.32 H 1.6 1.12 l -0.96,-0.159996 -1.12,-0.639999 -0.48,-0.480004 -0.16,-0.159996 -0.32,-0.32 -0.96,-1.279998 -0.8,-0.960007 h -0.16 l -0.48,-0.32 -1.44,-0.639999 -1.44,-0.159996 h -0.16 -0.16 l -0.64,0.159996 -1.28,0.480003 -1.12,0.959999 -0.16,0.32 -0.16,0.160004 -0.16,0.479995 -0.48,1.120003 0.16,1.599999 0.16,0.479995 v 0.320008 l 0.32,0.799995 0.8,2.080002 0.96,2.559997 0.32,0.64 v 0.32 l 0.48,1.120002 0.8,3.040001 0.8,2.239998 0.16,0.32 0.48,0.800003 1.44,2.720001 1.28,1.919998 0.16,0.32 L -2.72,96 l 0.64,1.279999 0.16,0.959999 0.32,1.920002 v 2.24 l -0.32,2.24"
       style="fill:none;stroke:#000000;stroke-width:11.2;stroke-linecap:round;stroke-linejoin:round;stroke-miterlimit:10;stroke-dasharray:none;stroke-opacity:1"
       transform="translate(325.44,302.75995)"
       clip-path="url(#clipPath4)" />
    <path
       id="path5"
       d="m 0,0 -0.16,1.12 -0.48,3.04 -0.48,3.2 -0.48,3.2 -0.32,3.52 -0.32,2.879999 L -2.4,17.6 l -0.16,2.24 -0.32,6.4 -0.16,4.800001 V 31.68 33.439999 l 0.16,3.52 V 39.68 l 0.16,1.599999 -0.16,0.479999 v 0.960003 L -3.04,44.32 l -0.32,1.760002 -0.32,0.959999 v 0.16 L -3.84,48 -4,50.400002 -3.84,52.16 v 0.16 l 0.32,0.479999 0.64,1.119999 1.12,1.280003 v 0.16 L -1.6,55.52 -1.28,56 l 0.32,1.279999 -0.16,1.280002 v 0.16 l -0.32,0.48 -0.64,1.439998 -0.64,1.279999 v 0.160004 l -0.16,0.639999 -0.16,1.919998 v 2.080002 0.32 0.799995 L -3.2,68.959999 -3.36,69.760002 -3.84,71.68 -4.48,73.760002 -5.44,76 -6.08,77.599998"
       style="fill:none;stroke:#000000;stroke-width:11.2;stroke-linecap:round;stroke-linejoin:round;stroke-miterlimit:10;stroke-dasharray:none;stroke-opacity:1"
       transform="translate(348.79999,314.75995)"
       clip-path="url(#clipPath6)" />
    <path
       id="path7"
       d="m 0,0 0.16,5.12 0.8,14.88 0.8,14.880001 0.8,14.399998 0.96,14.080002 0.8,13.599998 0.96,13.120003 0.16,2.080002"
       style="fill:none;stroke:#000000;stroke-width:11.2;stroke-linecap:round;stroke-linejoin:round;stroke-miterlimit:10;stroke-dasharray:none;stroke-opacity:1"
       transform="translate(325.44,429.47992)"
       clip-path="url(#clipPath8)" />
    <path
       id="path9"
       d="m 0,0 -0.16,2.08 -0.16,3.04 -0.16,2.72 v 2.4 2.08 1.76 1.44 L -0.32,16.639999 0,17.440001 0.16,18.08 0.32,18.24 H 0.48 L 0.8,18.4 h 0.64 l 0.8,-0.48 1.28,-0.799999 H 3.84 L 4.48,16.959999 5.6,17.120001 6.72,17.6 7.2,18.24 7.36,18.4 7.52,19.040001 V 20.32 L 7.36,21.76 6.88,23.200001 6.72,23.52 6.24,24.32 4.96,26.879999 3.68,29.76 l -0.16,0.32 -0.48,1.44 -0.96,2.880002 -0.64,3.039997 -0.32,3.2 v 0.48 0.799999 V 44.48 l 0.16,3.84 0.32,4.959999 0.48,6.080002 V 60.32 L 2.24,62.880001 2.56,68 v 2.879997 L 2.4,73.279999 1.92,76.480003 v 0.799996 l -0.64,2.880005 -0.96,4.319999 -1.12,4.64 -0.96,4.799995 -0.8,4.800003 L -2.72,99.68"
       style="fill:none;stroke:#000000;stroke-width:11.2;stroke-linecap:round;stroke-linejoin:round;stroke-miterlimit:10;stroke-dasharray:none;stroke-opacity:1"
       transform="translate(342.72,414.75995)"
       clip-path="url(#clipPath10)" />
    <path
       id="path11"
       d="M 0,0 V 1.76 4.8 l -0.16,2.88 -0.16,2.56 -0.16,2.56 -0.16,2.4 v 2.4 l -0.16,3.039999 0.16,0.32 V 21.76 l 0.16,2.24 0.8,3.68 0.32,1.440001 0.96,1.92 0.8,1.119999 0.64,0.32 h 0.32 0.8 L 5.12,32.16 6.24,31.200001 7.36,29.92 8.48,28 9.44,25.76 9.76,25.280001 10.08,23.52 10.4,20.959999 10.56,18.08 v -3.36 -0.48 -1.76 l 0.16,-1.76 V 9.28 L 10.88,6.56 10.72,3.68 10.56,0.48 10.4,-2.72 v -0.8"
       style="fill:none;stroke:#000000;stroke-width:11.2;stroke-linecap:round;stroke-linejoin:round;stroke-miterlimit:10;stroke-dasharray:none;stroke-opacity:1"
       transform="translate(330.56,532.03992)"
       clip-path="url(#clipPath12)" />
    <path
       id="path13"
       d="m 0,0 1.44,1.12 3.04,2.4 2.88,2.24 2.56,2.24 2.24,2.08 2.08,2.08 1.92,2.08 1.6,1.92 0.48,0.479999 1.120001,1.760001 1.439998,1.92 1.120001,1.92 0.799999,1.92 0.320002,1.280001 V 25.92 l 0.16,1.120001 0.16,2.08 L 22.879999,31.52 22.4,33.119999 l -0.16,0.32 -0.48,1.120002 -1.44,2.719998 -1.92,2.880001 -0.959999,1.119999 -0.32,0.479999 L 16,43.040001 13.28,46.080002 10.24,48.959999 8.48,50.240002 7.84,50.720001 6.08,52 l -4,2.560001 -4.64,2.719998 -2.56,1.440002 -0.8,0.32 -2.24,1.279999 -2.88,1.279998 -2.4,0.960003 -4.32,1.759999 -4.32,1.440002 -1.6,0.479996 -1.279999,0.480003 -4,0.959999 -6.080002,1.599999 -2.559997,0.480003 -2.720002,0.64 -1.760002,0.319999 -1.119999,0.159996 H -43.68 v -0.159996 l 0.319999,-0.160003 0.8,-0.32 1.280002,-0.479996 1.599999,-0.639999 2.240001,-0.800003 2.879998,-0.959999 3.52,-1.279999 L -25.76,64.160004 -25.6,64 l 1.12,-0.48 3.520001,-1.600002 4,-1.919998 3.839999,-2.240002 3.68,-2.399997 2.88,-2.400002 0.8,-0.479999 2.08,-1.919999 3.36,-3.36 L 2.56,43.84 4.8,40.48 5.12,39.84 5.6,39.200001 6.56,37.279999 7.68,34.240002 8.48,31.360001 8.96,28.32 V 27.360001 26.719999 L 8.8,25.120001 8.64,23.84 7.84,21.92 6.56,20.16 4.96,18.719999 2.88,17.280001 1.44,16.48"
       style="fill:none;stroke:#000000;stroke-width:11.2;stroke-linecap:round;stroke-linejoin:round;stroke-miterlimit:10;stroke-dasharray:none;stroke-opacity:1"
       transform="translate(346.72,465.15991)"
       clip-path="url(#clipPath14)" />
    <path
       id="path15"
       d="m 0,0 -1.44,-0.96 -3.36,-2.24 -3.04,-2.08 -2.72,-2.08 -2.56,-2.08 -2.08,-2.24 -1.920001,-2.08 -1.599998,-2.24 -0.16,-0.32 -0.480002,-0.639999 -0.959999,-1.92 -0.960001,-2.400002 L -21.76,-23.84 v -2.56 l 0.319999,-2.720001 V -29.92 l 0.32,-0.799999 0.640001,-2.4 1.119999,-3.360001 1.760001,-3.68 2.24,-3.84 1.76,-2.400002 0.48,-0.799999 1.92,-2.239998 3.2,-3.52 4,-3.68 4.32,-3.680001 0.64,-0.639999 2.24,-1.920002 6.56,-5.759998 4.64,-4 0.8,-0.480004 1.920001,-1.599998 3.679998,-3.040001 3.520001,-2.879997 1.6,-1.599999 0.32,-0.480003 1.28,-1.440003 2.08,-2.719993 1.440001,-2.720001 1.119999,-2.560006 v -0.639999 l 0.479999,-1.599999 0.32,-3.04 -0.16,-3.039998 -0.479999,-2.88 -0.16,-0.48 -0.48,-1.44 -0.479999,-1.28 -0.640002,-1.28 -1.439998,-2.24 -1.440001,-2.56 -1.76,-2.4 -0.639999,-0.96"
       style="fill:none;stroke:#000000;stroke-width:11.2;stroke-linecap:round;stroke-linejoin:round;stroke-miterlimit:10;stroke-dasharray:none;stroke-opacity:1"
       transform="translate(323.84,470.43994)"
       clip-path="url(#clipPath16)" />
    <path
       id="path17"
       d="m 0,0 1.12,0.8 2.56,1.76 2.4,1.6 2.08,1.6 2.08,1.6 1.92,1.6 1.92,1.92 0.16,0.16 0.48,0.48 1.12,1.44 2.4,3.04 2.08,3.52 0.960001,1.760001 L 21.6,21.76 22.4,23.360001 23.360001,25.6 24.639999,29.440001 25.120001,32 v 0.639999 l 0.16,1.600003 -0.16,3.039997 -0.640001,3.36 L 24,43.200001 23.84,43.84 23.200001,45.439999 21.6,49.759998 l -2.08,3.84 -0.479999,0.960003 -0.480002,0.48 -1.279998,1.759998 L 14.72,60 11.52,63.52 8.8,66.239998 8.16,66.720001 6.24,68.32 l -4.96,4 -5.6,4.319999 -0.8,0.480004 -2.08,1.599998 -6.08,4.959999 -4.48,4 -0.64,0.480004 -1.76,1.759994 -3.200001,3.68 -2.559999,3.200005 -1.440001,2.239998 -0.319999,0.479996 -0.8,1.600003 -1.12,2.72 -0.64,2.4 -0.16,2.08 v 0.64 0.32 l 0.32,1.28 0.799999,2.08 1.120001,2.56 1.280001,2.56 0.479999,1.44"
       style="fill:none;stroke:#000000;stroke-width:11.2;stroke-linecap:round;stroke-linejoin:round;stroke-miterlimit:10;stroke-dasharray:none;stroke-opacity:1"
       transform="translate(350.56,333.63996)"
       clip-path="url(#clipPath18)" />
    <path
       id="path19"
       d="m 0,0 -1.28,-1.28 -3.2,-3.04 -2.88,-2.88 -2.72,-2.72 -2.56,-2.72 -2.24,-2.56 -2.240001,-2.72 L -18.24,-19.360001 -18.879999,-20.16 -20.32,-22.24 -22.08,-24.959999 -23.360001,-27.68 -24.32,-30.24 l -0.479999,-2.24 v -0.479999 -1.920002 L -24.48,-37.439999 -23.84,-39.84 -22.559999,-42.560001 -21.6,-44 -21.280001,-44.639999 -20,-46.240002 l 2.4,-2.719997 2.72,-2.400002 3.2,-2.079998 0.8,-0.479999 0.8,-0.480004 2.08,-0.959999 3.52,-1.279998 4,-1.119999 4.32,-0.640004 h 0.48 l 0.8,-0.159999 2.56,-0.16 5.28,-0.16 4.96,0.479999 3.039999,0.480004 0.800001,0.16 2.24,0.639999 3.360001,1.279999 3.359998,1.599998 3.199999,2.080002 0.480004,0.32 0.479999,0.479999 1.599999,1.279999 2.720001,2.720001 2.079998,2.560002 1.440002,2.079998 0.16,0.479999 0.48,1.120003 L 43.84,-39.68 v 1.439998 l -0.16,1.280003 -0.16,0.479999 v 0.16 l -0.159999,0.64 -0.32,0.639999 -0.48,0.32 -0.800003,0.319999 H 40.48 l -0.32,-0.159999 -0.32,-0.16 -1.279999,-0.32 L 36.639999,-36 l -1.919998,-0.639999 -0.960003,-0.32 -0.639999,-0.16 -0.639999,0.16 -0.16,0.479999 0.16,0.8 0.479999,1.119999 0.799999,1.600002 0.320004,1.119999 0.32,0.960001 v 0.32 l -0.16,0.639999 -0.320004,0.479999 -0.799999,0.480002 -1.119999,0.16 h -1.76 -0.16 -0.32 l -1.44,-0.16 -2.879999,-0.320002 L 21.92,-29.92 20.639999,-30.4 20.32,-30.559999 18.879999,-31.040001 16.48,-32.48 l -2.4,-1.600002 -1.12,-0.959999 -0.32,-0.16 L 11.68,-36.16 8.8,-38.400002 6.4,-39.84 6.08,-40 4.96,-40.32 2.88,-40.639999 H 0.96 L -0.8,-40 l -0.16,0.16 -0.96,0.639999 -1.12,1.280003 L -4,-36.16 l -0.8,2.079998 -0.16,0.800003 -0.16,0.32 -0.16,1.599998 V -30.24 l 0.32,2.08 0.8,1.92 1.28,1.76 1.76,1.600001 0.32,0.32"
       style="fill:none;stroke:#000000;stroke-width:11.2;stroke-linecap:round;stroke-linejoin:round;stroke-miterlimit:10;stroke-dasharray:none;stroke-opacity:1"
       transform="translate(323.51999,341.15991)"
       clip-path="url(#clipPath20)" />
    <path
       id="path21"
       d="M 0,0 V -0.48 L -0.16,-0.8 -0.32,-1.12 -0.64,-1.44 -1.12,-1.76 -1.44,-1.92 h -0.48 -0.32 l -0.48,0.16 -0.32,0.32 -0.32,0.32 -0.16,0.32 -0.16,0.32 -0.16,0.48 0.16,0.48 0.16,0.32 0.16,0.32 0.32,0.32 0.32,0.32 h 0.48 l 0.32,0.16 0.48,-0.16 h 0.32 L -0.64,1.44 -0.32,1.12 -0.16,0.8 0,0.48 V 0 0 Z"
       style="fill:#000000;fill-opacity:1;fill-rule:evenodd;stroke:none"
       transform="translate(355.51999,295.87995)"
       clip-path="url(#clipPath22)" />
    <path
       id="path23"
       d="M 0,0 V -0.48 L -0.16,-0.8 -0.32,-1.12 -0.64,-1.44 -1.12,-1.76 -1.44,-1.92 h -0.48 -0.32 l -0.48,0.16 -0.32,0.32 -0.32,0.32 -0.16,0.32 -0.16,0.32 -0.16,0.48 0.16,0.48 0.16,0.32 0.16,0.32 0.32,0.32 0.32,0.32 h 0.48 l 0.32,0.16 0.48,-0.16 h 0.32 L -0.64,1.44 -0.32,1.12 -0.16,0.8 0,0.48 V 0"
       style="fill:none;stroke:#000000;stroke-width:0.64;stroke-linecap:round;stroke-linejoin:round;stroke-miterlimit:10;stroke-dasharray:none;stroke-opacity:1"
       transform="translate(355.51999,295.87995)"
       clip-path="url(#clipPath24)" />
  </g>
</svg>
