<?xml version="1.0" encoding="UTF-8" standalone="no"?>
<!-- Created with Inkscape (http://www.inkscape.org/) -->

<svg
   version="1.1"
   id="svg1"
   width="517.59998"
   height="375.07999"
   viewBox="0 0 517.59998 375.07999"
   sodipodi:docname="BalneumMariae10.pdf"
   xmlns:inkscape="http://www.inkscape.org/namespaces/inkscape"
   xmlns:sodipodi="http://sodipodi.sourceforge.net/DTD/sodipodi-0.dtd"
   xmlns="http://www.w3.org/2000/svg"
   xmlns:svg="http://www.w3.org/2000/svg">
  <defs
     id="defs1">
    <clipPath
       clipPathUnits="userSpaceOnUse"
       id="clipPath2">
      <path
         d="M 0,0.16 V 1122.5601 H 793.59998 V 0.16 Z"
         transform="translate(3.3333334e-6)"
         clip-rule="evenodd"
         id="path2" />
    </clipPath>
    <clipPath
       clipPathUnits="userSpaceOnUse"
       id="clipPath4">
      <path
         d="M 0,0.16 V 1122.5601 H 793.59998 V 0.16 Z"
         transform="translate(-418.72,-491.51999)"
         clip-rule="evenodd"
         id="path4" />
    </clipPath>
    <clipPath
       clipPathUnits="userSpaceOnUse"
       id="clipPath6">
      <path
         d="M 0,0.16 V 1122.5601 H 793.59998 V 0.16 Z"
         transform="translate(-490.07999,-491.51999)"
         clip-rule="evenodd"
         id="path6" />
    </clipPath>
    <clipPath
       clipPathUnits="userSpaceOnUse"
       id="clipPath8">
      <path
         d="M 0,0.16 V 1122.5601 H 793.59998 V 0.16 Z"
         transform="translate(-490.07999,-491.51999)"
         clip-rule="evenodd"
         id="path8" />
    </clipPath>
    <clipPath
       clipPathUnits="userSpaceOnUse"
       id="clipPath10">
      <path
         d="M 0,0.16 V 1122.5601 H 793.59998 V 0.16 Z"
         transform="translate(-561.28003,-491.51999)"
         clip-rule="evenodd"
         id="path10" />
    </clipPath>
    <clipPath
       clipPathUnits="userSpaceOnUse"
       id="clipPath12">
      <path
         d="M 0,0.16 V 1122.5601 H 793.59998 V 0.16 Z"
         transform="translate(-623.20002,-465.12)"
         clip-rule="evenodd"
         id="path12" />
    </clipPath>
    <clipPath
       clipPathUnits="userSpaceOnUse"
       id="clipPath14">
      <path
         d="M 0,0.16 V 1122.5601 H 793.59998 V 0.16 Z"
         transform="translate(-561.28003,-491.51999)"
         clip-rule="evenodd"
         id="path14" />
    </clipPath>
  </defs>
  <sodipodi:namedview
     id="namedview1"
     pagecolor="#505050"
     bordercolor="#eeeeee"
     borderopacity="1"
     inkscape:showpageshadow="0"
     inkscape:pageopacity="0"
     inkscape:pagecheckerboard="0"
     inkscape:deskcolor="#505050">
    <inkscape:page
       x="0"
       y="0"
       inkscape:label="1"
       id="page1"
       width="517.59998"
       height="375.07999"
       margin="0"
       bleed="0" />
  </sodipodi:namedview>
  <g
     id="g1"
     inkscape:groupmode="layer"
     inkscape:label="1">
    <path
       id="path1"
       d="M 455.35999,404.48001 H 170.24 l 142.71999,261.60001 142.4,-261.60001"
       style="fill:none;stroke:#000000;stroke-width:26.4;stroke-linecap:round;stroke-linejoin:round;stroke-miterlimit:10;stroke-dasharray:none;stroke-opacity:1"
       transform="translate(-138.74667,-371.06673)"
       clip-path="url(#clipPath2)" />
    <path
       id="path3"
       d="m 0,0 0.32,2.4 0.32,2.24 0.64,2.08 0.96,2.08 1.12,2.08 1.28,1.76 1.44,1.6 1.76,1.44 1.76,1.119999 2.08,0.960001 2.08,0.64 2.08,0.479999 2.08,0.160002 2.24,-0.160002 L 22.24,18.4 24.32,17.76 26.24,16.799999 28,15.68 l 1.76,-1.44 1.600001,-1.6 1.279998,-1.76 1.119999,-2.08 0.800003,-2.08 0.64,-2.08 L 35.68,2.4 V 0"
       style="fill:none;stroke:#000000;stroke-width:26.4;stroke-linecap:round;stroke-linejoin:round;stroke-miterlimit:10;stroke-dasharray:none;stroke-opacity:1"
       transform="translate(279.97333,120.45326)"
       clip-path="url(#clipPath4)" />
    <path
       id="path5"
       d="m 0,0 -0.16,-2.24 -0.32,-2.24 -0.64,-2.08 -0.8,-2.08 -1.12,-1.92 -1.44,-1.92 -1.44,-1.6 -1.76,-1.44 -1.76,-1.119999 -2.08,-0.960001 -1.92,-0.64 -2.24,-0.479999 H -17.76 -20 l -2.08,0.479999 -2.08,0.64 -1.92,0.960001 -1.76,1.119999 -1.76,1.44 -1.440001,1.6 -1.439999,1.92 -1.119998,1.92 -0.800004,2.08 -0.639999,2.08 L -35.52,-2.24 -35.68,0"
       style="fill:none;stroke:#000000;stroke-width:26.4;stroke-linecap:round;stroke-linejoin:round;stroke-miterlimit:10;stroke-dasharray:none;stroke-opacity:1"
       transform="translate(351.33332,120.45326)"
       clip-path="url(#clipPath6)" />
    <path
       id="path7"
       d="m 0,0 0.16,2.4 0.48,2.24 0.64,2.08 0.8,2.08 1.12,2.08 1.28,1.76 1.6,1.6 1.6,1.44 1.92,1.119999 1.92,0.960001 2.08,0.64 2.08,0.479999 2.24,0.160002 L 20,18.879999 22.08,18.4 24.16,17.76 26.08,16.799999 28,15.68 29.6,14.24 31.200001,12.64 32.48,10.88 33.599998,8.8 34.560001,6.72 35.200001,4.64 35.52,2.4 35.68,0"
       style="fill:none;stroke:#000000;stroke-width:26.4;stroke-linecap:round;stroke-linejoin:round;stroke-miterlimit:10;stroke-dasharray:none;stroke-opacity:1"
       transform="translate(351.33332,120.45326)"
       clip-path="url(#clipPath8)" />
    <path
       id="path9"
       d="m 0,0 v -2.24 l -0.32,-2.24 -0.64,-2.08 -0.96,-2.08 -1.12,-1.92 -1.28,-1.92 -1.6,-1.6 -1.6,-1.44 -1.92,-1.119999 -1.92,-0.960001 -2.08,-0.64 -2.08,-0.479999 h -2.24 -2.08 l -2.08,0.479999 -2.08,0.64 -1.92,0.960001 -1.92,1.119999 -1.600001,1.44 -1.6,1.6 -1.279999,1.92 -1.119999,1.92 -0.960003,2.08 -0.639999,2.08 -0.32,2.24 L -35.52,0"
       style="fill:none;stroke:#000000;stroke-width:26.4;stroke-linecap:round;stroke-linejoin:round;stroke-miterlimit:10;stroke-dasharray:none;stroke-opacity:1"
       transform="translate(422.53336,120.45326)"
       clip-path="url(#clipPath10)" />
    <path
       id="path11"
       d="m 0,0 -1.12,-5.76 -1.44,-5.6 -1.6,-5.279999 L -5.6,-21.6 l -1.76,-4.48 -1.6,-4.16 -1.76,-3.840002 -1.76,-3.359997 -1.76,-2.880001 -1.92,-2.560001 -1.76,-2.079998 -1.92,-1.760002 -1.92,-1.119999 -1.92,-0.799999 -1.92,-0.32 h -1.92 l -2.08,0.639999 -1.92,0.959999 -1.919999,1.440003 -1.760002,1.919998 -1.919998,2.240002 -1.760002,2.719997 -1.919998,3.200001 -1.760002,3.52 -1.599999,4 -1.599998,4.32 -1.600003,4.799999 -1.599998,4.960001 -1.440003,5.44 -1.439998,5.76 -1.279999,6.08 -1.280003,6.4 L -55.52,16 l -0.96,6.879999 -0.959999,7.200001 -0.960003,7.359999 -0.799999,7.52 -0.639999,7.68 -0.64,7.840001 -0.479999,7.84 -0.32,8.160003 -0.319999,8.159996 -0.16,8.160004 v 8.159997 8.32 l 0.16,8.16 0.159999,8.16 0.48,8.00001 0.479999,8 0.48,7.83999 0.639999,7.84 0.8,7.52 0.800003,7.36 0.959999,7.2 1.119999,6.88 1.119999,6.72001 1.120002,6.39999 1.279999,6.24001 1.439999,5.75999 1.440002,5.44 1.439999,5.28 1.599998,4.8 1.600003,4.32 1.759998,4.16 1.760002,3.67999 1.759998,3.20001 1.760003,2.87999 1.919998,2.40001 1.920002,1.92 1.759998,1.59999 1.92,1.12001 2.08,0.64 1.92,0.16001 1.92,-0.16001 1.92,-0.64 1.92,-1.12001 1.92,-1.59999 1.760001,-1.92 1.919999,-2.55999 1.76,-2.72001 1.92,-3.36 1.6,-3.68 1.76,-4 1.6,-4.48 1.6,-4.8 1.44,-5.28 1.44,-5.44 1.28,-5.92"
       style="fill:none;stroke:#000000;stroke-width:26.4;stroke-linecap:round;stroke-linejoin:round;stroke-miterlimit:10;stroke-dasharray:none;stroke-opacity:1"
       transform="translate(484.45335,94.05327)"
       clip-path="url(#clipPath12)" />
    <path
       id="path13"
       d="m 0,0 2.4,2.56 2.4,2.24 2.56,2.08 2.88,1.76 2.88,1.44 3.04,1.28 3.200001,0.8 L 22.4,12.8 25.76,13.12 28.959999,12.96 32.16,12.64 35.360001,12 38.400002,11.04 41.439999,9.76 44.32,8.16 47.040001,6.24 49.599998,4.16 52,1.92 54.240002,-0.64 56.16,-3.52 57.759998,-6.4 59.200001,-9.44 60.32,-12.64 61.279999,-16 61.759998,-19.360001 62.080002,-22.879999 61.919998,-26.4"
       style="fill:none;stroke:#000000;stroke-width:26.4;stroke-linecap:round;stroke-linejoin:round;stroke-miterlimit:10;stroke-dasharray:none;stroke-opacity:1"
       transform="translate(422.53336,120.45326)"
       clip-path="url(#clipPath14)" />
  </g>
</svg>
