<?xml version="1.0" encoding="UTF-8" standalone="no"?>
<!-- Created with Inkscape (http://www.inkscape.org/) -->

<svg
   version="1.1"
   id="svg1"
   width="245.46667"
   height="266.95999"
   viewBox="0 0 245.46667 266.95999"
   sodipodi:docname="BalneumMariae6.pdf"
   xmlns:inkscape="http://www.inkscape.org/namespaces/inkscape"
   xmlns:sodipodi="http://sodipodi.sourceforge.net/DTD/sodipodi-0.dtd"
   xmlns="http://www.w3.org/2000/svg"
   xmlns:svg="http://www.w3.org/2000/svg">
  <defs
     id="defs1">
    <clipPath
       clipPathUnits="userSpaceOnUse"
       id="clipPath2">
      <path
         d="M 0,0.16 V 1122.5601 H 793.59998 V 0.16 Z"
         transform="translate(-396.79999,-561.28003)"
         clip-rule="evenodd"
         id="path2" />
    </clipPath>
    <clipPath
       clipPathUnits="userSpaceOnUse"
       id="clipPath4">
      <path
         d="M 0,0.16 V 1122.5601 H 793.59998 V 0.16 Z"
         transform="translate(-398.72,-674.23999)"
         clip-rule="evenodd"
         id="path4" />
    </clipPath>
    <clipPath
       clipPathUnits="userSpaceOnUse"
       id="clipPath6">
      <path
         d="M 0,0.16 V 1122.5601 H 793.59998 V 0.16 Z"
         transform="translate(3.3333333e-6)"
         clip-rule="evenodd"
         id="path6" />
    </clipPath>
    <clipPath
       clipPathUnits="userSpaceOnUse"
       id="clipPath8">
      <path
         d="M 0,0.16 V 1122.5601 H 793.59998 V 0.16 Z"
         transform="translate(3.3333333e-6)"
         clip-rule="evenodd"
         id="path8" />
    </clipPath>
    <clipPath
       clipPathUnits="userSpaceOnUse"
       id="clipPath10">
      <path
         d="M 0,0.16 V 1122.5601 H 793.59998 V 0.16 Z"
         transform="translate(3.3333333e-6)"
         clip-rule="evenodd"
         id="path10" />
    </clipPath>
    <clipPath
       clipPathUnits="userSpaceOnUse"
       id="clipPath12">
      <path
         d="M 0,0.16 V 1122.5601 H 793.59998 V 0.16 Z"
         transform="translate(3.3333333e-6)"
         clip-rule="evenodd"
         id="path12" />
    </clipPath>
    <clipPath
       clipPathUnits="userSpaceOnUse"
       id="clipPath14">
      <path
         d="M 0,0.16 V 1122.5601 H 793.59998 V 0.16 Z"
         transform="translate(3.3333333e-6)"
         clip-rule="evenodd"
         id="path14" />
    </clipPath>
    <clipPath
       clipPathUnits="userSpaceOnUse"
       id="clipPath16">
      <path
         d="M 0,0.16 V 1122.5601 H 793.59998 V 0.16 Z"
         transform="translate(3.3333333e-6)"
         clip-rule="evenodd"
         id="path16" />
    </clipPath>
    <clipPath
       clipPathUnits="userSpaceOnUse"
       id="clipPath18">
      <path
         d="M 0,0.16 V 1122.5601 H 793.59998 V 0.16 Z"
         transform="translate(3.3333333e-6)"
         clip-rule="evenodd"
         id="path18" />
    </clipPath>
  </defs>
  <sodipodi:namedview
     id="namedview1"
     pagecolor="#505050"
     bordercolor="#eeeeee"
     borderopacity="1"
     inkscape:showpageshadow="0"
     inkscape:pageopacity="0"
     inkscape:pagecheckerboard="0"
     inkscape:deskcolor="#505050">
    <inkscape:page
       x="0"
       y="0"
       inkscape:label="1"
       id="page1"
       width="245.46667"
       height="266.95999"
       margin="0"
       bleed="0" />
  </sodipodi:namedview>
  <g
     id="g1"
     inkscape:groupmode="layer"
     inkscape:label="1">
    <path
       id="path1"
       d="M 0,0 3.52,-0.16 7.04,-0.64 10.4,-1.44 13.76,-2.56 16.959999,-4 20,-5.6 22.879999,-7.68 25.440001,-9.76 28,-12.32 l 2.24,-2.72 1.92,-2.88 1.759998,-3.039999 1.280003,-3.200001 1.119999,-3.200001 0.799999,-3.359998 0.479999,-3.520003 0.16,-3.519996 -0.16,-3.520001 -0.479999,-3.36 L 36.32,-48 l -1.119999,-3.360001 -1.280003,-3.2 L 32.16,-57.599998 30.24,-60.48 28,-63.200001 25.440001,-65.599998 22.879999,-67.839996 20,-69.760002 16.959999,-71.519997 13.76,-72.959999 10.4,-74.080002 7.04,-74.879997 3.52,-75.360001 0,-75.519997"
       style="fill:none;stroke:#000000;stroke-width:26.4;stroke-linecap:round;stroke-linejoin:round;stroke-miterlimit:10;stroke-dasharray:none;stroke-opacity:1"
       transform="translate(75.293321,96.773304)"
       clip-path="url(#clipPath2)" />
    <path
       id="path3"
       d="m 0,0 4.48,-0.16 4.48,-0.64 4.32,-0.8 4.32,-1.28 4.16,-1.44 4,-1.92 3.84,-2.08 3.679999,-2.56 3.52,-2.72 3.360001,-3.039999 2.880001,-3.200001 2.879997,-3.520001 2.400002,-3.68 2.240001,-4 1.759999,-4 1.599998,-4.16 L 55.040001,-43.52 56,-47.84 l 0.48,-4.32 0.159999,-4.479999 -0.159999,-4.48 -0.48,-4.479999 -0.959999,-4.32 -1.120003,-4.32 -1.599998,-4.160004 -1.759999,-4 -2.240001,-3.839996 -2.400002,-3.68 -2.879997,-3.520004 L 40.16,-96.800003 36.799999,-99.68 l -3.52,-2.88 -3.679999,-2.4 -3.84,-2.24 -4,-1.76 -4.16,-1.6 -4.32,-1.12 -4.32,-0.96 -4.48,-0.48 -4.48,-0.16"
       style="fill:none;stroke:#000000;stroke-width:26.4;stroke-linecap:round;stroke-linejoin:round;stroke-miterlimit:10;stroke-dasharray:none;stroke-opacity:1"
       transform="translate(77.213334,209.73326)"
       clip-path="url(#clipPath4)" />
    <path
       id="path5"
       d="M 340.16,485.76001 V 674.56"
       style="fill:none;stroke:#000000;stroke-width:26.4;stroke-linecap:round;stroke-linejoin:round;stroke-miterlimit:10;stroke-dasharray:none;stroke-opacity:1"
       transform="translate(-321.50667,-464.50673)"
       clip-path="url(#clipPath6)" />
    <path
       id="path7"
       d="m 340.16,674.56 h 56.63999"
       style="fill:none;stroke:#000000;stroke-width:26.4;stroke-linecap:round;stroke-linejoin:round;stroke-miterlimit:10;stroke-dasharray:none;stroke-opacity:1"
       transform="translate(-321.50667,-464.50673)"
       clip-path="url(#clipPath8)" />
    <path
       id="path9"
       d="m 340.16,485.76001 h 56.63999"
       style="fill:none;stroke:#000000;stroke-width:26.4;stroke-linecap:round;stroke-linejoin:round;stroke-miterlimit:10;stroke-dasharray:none;stroke-opacity:1"
       transform="translate(-321.50667,-464.50673)"
       clip-path="url(#clipPath10)" />
    <path
       id="path11"
       d="M 396.79999,561.28003 H 340.16"
       style="fill:none;stroke:#000000;stroke-width:26.4;stroke-linecap:round;stroke-linejoin:round;stroke-miterlimit:10;stroke-dasharray:none;stroke-opacity:1"
       transform="translate(-321.50667,-464.50673)"
       clip-path="url(#clipPath12)" />
    <path
       id="path13"
       d="m 453.44,599.03998 h 94.40003"
       style="fill:none;stroke:#000000;stroke-width:26.4;stroke-linecap:round;stroke-linejoin:round;stroke-miterlimit:10;stroke-dasharray:none;stroke-opacity:1"
       transform="translate(-321.50667,-464.50673)"
       clip-path="url(#clipPath14)" />
    <path
       id="path15"
       d="m 453.44,636.79999 h 94.40003"
       style="fill:none;stroke:#000000;stroke-width:26.4;stroke-linecap:round;stroke-linejoin:round;stroke-miterlimit:10;stroke-dasharray:none;stroke-opacity:1"
       transform="translate(-321.50667,-464.50673)"
       clip-path="url(#clipPath16)" />
    <path
       id="path17"
       d="m 528.96002,485.76001 -56.64001,226.56"
       style="fill:none;stroke:#000000;stroke-width:26.4;stroke-linecap:round;stroke-linejoin:round;stroke-miterlimit:10;stroke-dasharray:none;stroke-opacity:1"
       transform="translate(-321.50667,-464.50673)"
       clip-path="url(#clipPath18)" />
  </g>
</svg>
