<?xml version="1.0" encoding="UTF-8" standalone="no"?>
<!-- Created with Inkscape (http://www.inkscape.org/) -->

<svg
   version="1.1"
   id="svg1"
   width="514.94666"
   height="282.97333"
   viewBox="0 0 514.94666 282.97333"
   sodipodi:docname="BalneumMariae9.pdf"
   xmlns:inkscape="http://www.inkscape.org/namespaces/inkscape"
   xmlns:sodipodi="http://sodipodi.sourceforge.net/DTD/sodipodi-0.dtd"
   xmlns="http://www.w3.org/2000/svg"
   xmlns:svg="http://www.w3.org/2000/svg">
  <defs
     id="defs1">
    <clipPath
       clipPathUnits="userSpaceOnUse"
       id="clipPath2">
      <path
         d="M 0,0.16 V 1122.5601 H 793.59998 V 0.16 Z"
         transform="translate(3.3333333e-6)"
         clip-rule="evenodd"
         id="path2" />
    </clipPath>
    <clipPath
       clipPathUnits="userSpaceOnUse"
       id="clipPath4">
      <path
         d="M 0,0.16 V 1122.5601 H 793.59998 V 0.16 Z"
         transform="translate(3.3333333e-6)"
         clip-rule="evenodd"
         id="path4" />
    </clipPath>
    <clipPath
       clipPathUnits="userSpaceOnUse"
       id="clipPath6">
      <path
         d="M 0,0.16 V 1122.5601 H 793.59998 V 0.16 Z"
         transform="translate(3.3333333e-6)"
         clip-rule="evenodd"
         id="path6" />
    </clipPath>
    <clipPath
       clipPathUnits="userSpaceOnUse"
       id="clipPath8">
      <path
         d="M 0,0.16 V 1122.5601 H 793.59998 V 0.16 Z"
         transform="translate(-365.76001,-593.91999)"
         clip-rule="evenodd"
         id="path8" />
    </clipPath>
    <clipPath
       clipPathUnits="userSpaceOnUse"
       id="clipPath10">
      <path
         d="M 0,0.16 V 1122.5601 H 793.59998 V 0.16 Z"
         transform="translate(-369.28,-593.28003)"
         clip-rule="evenodd"
         id="path10" />
    </clipPath>
    <clipPath
       clipPathUnits="userSpaceOnUse"
       id="clipPath12">
      <path
         d="M 0,0.16 V 1122.5601 H 793.59998 V 0.16 Z"
         transform="translate(-424.32001,-637.28003)"
         clip-rule="evenodd"
         id="path12" />
    </clipPath>
  </defs>
  <sodipodi:namedview
     id="namedview1"
     pagecolor="#505050"
     bordercolor="#eeeeee"
     borderopacity="1"
     inkscape:showpageshadow="0"
     inkscape:pageopacity="0"
     inkscape:pagecheckerboard="0"
     inkscape:deskcolor="#505050">
    <inkscape:page
       x="0"
       y="0"
       inkscape:label="1"
       id="page1"
       width="514.94666"
       height="282.97333"
       margin="0"
       bleed="0" />
  </sodipodi:namedview>
  <g
     id="g1"
     inkscape:groupmode="layer"
     inkscape:label="1">
    <path
       id="path1"
       d="M 188.16,492.64001 H 603.52002"
       style="fill:none;stroke:#000000;stroke-width:26.4;stroke-linecap:round;stroke-linejoin:round;stroke-miterlimit:10;stroke-dasharray:none;stroke-opacity:1"
       transform="translate(-136.06667,-403.10673)"
       clip-path="url(#clipPath2)" />
    <path
       id="path3"
       d="M 207.03999,454.88 169.28,530.40002"
       style="fill:none;stroke:#000000;stroke-width:26.4;stroke-linecap:round;stroke-linejoin:round;stroke-miterlimit:10;stroke-dasharray:none;stroke-opacity:1"
       transform="translate(-136.06667,-403.10673)"
       clip-path="url(#clipPath4)" />
    <path
       id="path5"
       d="m 622.40002,454.88 -37.76001,75.52002"
       style="fill:none;stroke:#000000;stroke-width:26.4;stroke-linecap:round;stroke-linejoin:round;stroke-miterlimit:10;stroke-dasharray:none;stroke-opacity:1"
       transform="translate(-136.06667,-403.10673)"
       clip-path="url(#clipPath6)" />
    <path
       id="path7"
       d="M 0,0 3.2,-1.28 6.4,-3.04 9.28,-4.96 12,-7.2 l 2.56,-2.4 2.399999,-2.72 1.92,-2.88 1.76,-3.04 L 22.08,-21.440001 23.200001,-24.799999 24.16,-28.16 l 0.479999,-3.52 0.16,-3.520001 -0.16,-3.52 L 24.16,-42.240002 23.360001,-45.599998 22.24,-48.959999 20.799999,-52.16 l -1.599998,-3.200001 -2.08,-2.880001 L 14.88,-60.959999 12.48,-63.360001 9.76,-65.599998 6.72,-67.68 l -3.04,-1.599999 -3.2,-1.440002 -3.36,-1.119995 -3.52,-0.800003 -3.36,-0.480004 h -3.52 l -3.519999,0.160004 -3.520001,0.479996 -3.52,0.800003 -3.200001,1.279998 -3.199999,1.440003 -3.039999,1.760002 -2.880001,2.079994 -2.720001,2.240002 -2.399998,2.560001 -2.240001,2.720002 -1.919999,3.039997 -1.760002,3.040001"
       style="fill:none;stroke:#000000;stroke-width:26.4;stroke-linecap:round;stroke-linejoin:round;stroke-miterlimit:10;stroke-dasharray:none;stroke-opacity:1"
       transform="translate(229.69334,190.81326)"
       clip-path="url(#clipPath8)" />
    <path
       id="path9"
       d="m 0,0 -3.2,1.44 -3.04,1.6 -3.04,1.92 -2.72,2.24 -2.56,2.56 -2.239999,2.56 -2.08,2.88 -1.76,3.04 L -22.08,21.6 -23.200001,24.799999 -24,28.32 l -0.48,3.52 -0.319999,3.520001 0.16,3.52 0.479999,3.360001 0.799999,3.519996 1.120001,3.360001 1.440001,3.200001 1.759998,3.040001 1.92,2.880001 2.240001,2.719997 2.56,2.560001 2.72,2.240002 2.88,1.919998 3.04,1.760002 3.36,1.439995 3.2,0.959999 3.52,0.800003 3.52,0.480004 3.52,0.159996 3.519999,-0.159996 3.520001,-0.64 L 23.84,71.68 27.200001,70.559998 30.4,69.120003 33.439999,67.360001 36.32,65.279999 38.880001,62.880001 41.439999,60.48 43.68,57.599998 45.599998,54.720001 47.040001,51.52"
       style="fill:none;stroke:#000000;stroke-width:26.4;stroke-linecap:round;stroke-linejoin:round;stroke-miterlimit:10;stroke-dasharray:none;stroke-opacity:1"
       transform="translate(233.21333,190.1733)"
       clip-path="url(#clipPath10)" />
    <path
       id="path11"
       d="m 0,0 1.6,0.96 1.76,0.8 1.92,0.32 2.08,0.16 h 2.08 l 2.24,-0.48 2.24,-0.64 2.24,-0.8 2.399999,-1.12 2.24,-1.44 2.400002,-1.6 2.24,-1.76 2.079999,-2.08 2.08,-2.08 2.08,-2.4 1.759999,-2.4 1.760002,-2.560001 1.439998,-2.719999 1.440003,-2.719999 1.119999,-2.720002 L 40.16,-28 l 0.799999,-2.559999 0.48,-2.72 0.319999,-2.560001 v -2.560002 l -0.16,-2.239997 -0.319999,-2.240002 -0.64,-2.079998 L 39.84,-46.720001 38.880001,-48.48 37.599998,-49.919998 36.16,-51.040001 34.560001,-52 l -1.760002,-0.639999 -1.92,-0.48 -1.92,-0.16 -2.24,0.16 -2.239999,0.32 -2.24,0.639999 -2.24,0.959999 -2.4,1.119999 -2.24,1.280003 -2.4,1.599998 -2.24,1.920002 -2.08,1.919998 -2.08,2.240002 -2.08,2.239998 -1.76,2.560001 -1.76,2.560002 -1.44,2.559997 -1.44,2.720001 -1.12,2.72 -0.96,2.719999 -0.8,2.720001 -0.48,2.56 -0.32,2.56 v 2.56 l 0.16,2.4 0.32,2.08 0.64,2.08 0.8,1.92 0.96,1.6 1.28,1.44 L 0,0"
       style="fill:none;stroke:#000000;stroke-width:26.4;stroke-linecap:round;stroke-linejoin:round;stroke-miterlimit:10;stroke-dasharray:none;stroke-opacity:1"
       transform="translate(288.25334,234.1733)"
       clip-path="url(#clipPath12)" />
  </g>
</svg>
