<?xml version="1.0" encoding="UTF-8" standalone="no"?>
<!-- Created with Inkscape (http://www.inkscape.org/) -->

<svg
   version="1.1"
   id="svg1"
   width="346.85333"
   height="240.26666"
   viewBox="0 0 346.85333 240.26666"
   sodipodi:docname="BalneumMariae7.pdf"
   xmlns:inkscape="http://www.inkscape.org/namespaces/inkscape"
   xmlns:sodipodi="http://sodipodi.sourceforge.net/DTD/sodipodi-0.dtd"
   xmlns="http://www.w3.org/2000/svg"
   xmlns:svg="http://www.w3.org/2000/svg">
  <defs
     id="defs1">
    <clipPath
       clipPathUnits="userSpaceOnUse"
       id="clipPath2">
      <path
         d="M 0,0.16 V 1122.5601 H 793.59998 V 0.16 Z"
         transform="translate(-472.32001,-561.28003)"
         clip-rule="evenodd"
         id="path2" />
    </clipPath>
    <clipPath
       clipPathUnits="userSpaceOnUse"
       id="clipPath4">
      <path
         d="M 0,0.16 V 1122.5601 H 793.59998 V 0.16 Z"
         transform="translate(-321.28,-561.28003)"
         clip-rule="evenodd"
         id="path4" />
    </clipPath>
    <clipPath
       clipPathUnits="userSpaceOnUse"
       id="clipPath6">
      <path
         d="M 0,0.16 V 1122.5601 H 793.59998 V 0.16 Z"
         transform="translate(-321.44,-553.28003)"
         clip-rule="evenodd"
         id="path6" />
    </clipPath>
  </defs>
  <sodipodi:namedview
     id="namedview1"
     pagecolor="#505050"
     bordercolor="#eeeeee"
     borderopacity="1"
     inkscape:showpageshadow="0"
     inkscape:pageopacity="0"
     inkscape:pagecheckerboard="0"
     inkscape:deskcolor="#505050">
    <inkscape:page
       x="0"
       y="0"
       inkscape:label="1"
       id="page1"
       width="346.85333"
       height="240.26666"
       margin="0"
       bleed="0" />
  </sodipodi:namedview>
  <g
     id="g1"
     inkscape:groupmode="layer"
     inkscape:label="1">
    <path
       id="path1"
       d="M 0,0 C 0,-20.85 -33.810001,-37.759998 -75.519997,-37.759998 -117.23,-37.759998 -151.03999,-20.85 -151.03999,0 c 0,20.85 33.80999,37.759998 75.519993,37.759998 C -33.810001,37.759998 0,20.85 0,0 Z"
       style="fill:none;stroke:#000000;stroke-width:26.4;stroke-linecap:round;stroke-linejoin:round;stroke-miterlimit:10;stroke-dasharray:none;stroke-opacity:1"
       transform="translate(472.32001,439.8133)"
       clip-path="url(#clipPath2)" />
    <path
       id="path3"
       d="M 0,0 -0.16,-2.72 -0.64,-5.28 -1.6,-8 l -1.44,-2.56 -1.6,-2.56 -2.08,-2.56 -2.4,-2.4 -2.88,-2.24 -3.04,-2.239999 -3.36,-2.08 -3.68,-2.08 -4,-1.760001 -4.16,-1.76 -4.320001,-1.44 -4.64,-1.439999 -4.959999,-1.280003 -4.959999,-0.959999 -5.120003,-0.799999 -5.119999,-0.639999 -5.279998,-0.48 -5.440003,-0.319999 -5.439995,-0.16 -5.280006,0.16 -5.439995,0.319999 -5.279999,0.48 -5.280006,0.639999 -5.119997,0.799999 -4.96,0.959999 -4.8,1.280003 -4.64,1.439999 -4.32,1.44 -4.32,1.76 -3.84,1.760001 -3.68,2.08 -3.36,2.08 -3.19999,2.239999 -2.72,2.24 -2.40001,2.4 -2.08,2.56 -1.6,2.56 -1.44,2.56 -0.96,2.72 -0.48,2.56 -0.31999,2.72"
       style="fill:none;stroke:#000000;stroke-width:26.4;stroke-linecap:round;stroke-linejoin:round;stroke-miterlimit:10;stroke-dasharray:none;stroke-opacity:1"
       transform="translate(321.28,439.8133)"
       clip-path="url(#clipPath4)" />
    <path
       id="path5"
       d="m 0,0 -4.8,4 -4.64,4.16 -4.16,4.48 -4,4.800001 L -21.120001,22.4 -24.48,27.68 -27.360001,33.119999 -29.92,38.720001 -32.16,44.48 -33.919998,50.400002 -35.360001,56.48 -36.32,62.560001 l -0.639999,6.079998 -0.16,6.239998 0.16,6.080002 0.479999,6.239998 1.119999,6.080002 1.279999,6.080002 1.760002,5.919999 2.24,5.76 2.56,5.6 2.880001,5.44 3.199998,5.28 3.680001,4.96001 3.84,4.79998 4.32,4.48002 4.48,4.31999 4.8,3.83999 4.96,3.68001 5.28,3.2 5.44,3.03999 5.599999,2.56001 5.76,2.08001 5.92,1.91999 5.920002,1.28 6.079998,1.12 6.240002,0.47999 6.079998,0.32001 6.240002,-0.16 6.240001,-0.64 6.079995,-0.96001 5.920005,-1.43999 5.919999,-1.76 5.760002,-2.24 5.599998,-2.56001 L 104.32,156.8 l 5.12,-3.19999 5.12,-3.68001 4.8,-3.84 4.48,-4.32001 4.16,-4.47999 4,-4.8 3.52,-4.96 3.36,-5.28 2.87999,-5.44 2.56002,-5.6"
       style="fill:none;stroke:#000000;stroke-width:26.4;stroke-linecap:round;stroke-linejoin:round;stroke-miterlimit:10;stroke-dasharray:none;stroke-opacity:1"
       transform="translate(321.44,431.8133)"
       clip-path="url(#clipPath6)" />
  </g>
</svg>
