<?xml version="1.0" encoding="UTF-8" standalone="no"?>
<!-- Created with Inkscape (http://www.inkscape.org/) -->

<svg
   version="1.1"
   id="svg1"
   width="505.60001"
   height="401.76001"
   viewBox="0 0 505.60001 401.76001"
   sodipodi:docname="BalneumMariae.pdf"
   xmlns:inkscape="http://www.inkscape.org/namespaces/inkscape"
   xmlns:sodipodi="http://sodipodi.sourceforge.net/DTD/sodipodi-0.dtd"
   xmlns="http://www.w3.org/2000/svg"
   xmlns:svg="http://www.w3.org/2000/svg">
  <defs
     id="defs1">
    <clipPath
       clipPathUnits="userSpaceOnUse"
       id="clipPath2">
      <path
         d="M 0,0.16 V 1122.5601 H 793.59998 V 0.16 Z"
         transform="translate(-165.92,-740.64002)"
         clip-rule="evenodd"
         id="path2" />
    </clipPath>
    <clipPath
       clipPathUnits="userSpaceOnUse"
       id="clipPath4">
      <path
         d="M 0,0.16 V 1122.5601 H 793.59998 V 0.16 Z"
         transform="translate(-430.23999,-381.92001)"
         clip-rule="evenodd"
         id="path4" />
    </clipPath>
  </defs>
  <sodipodi:namedview
     id="namedview1"
     pagecolor="#505050"
     bordercolor="#eeeeee"
     borderopacity="1"
     inkscape:showpageshadow="0"
     inkscape:pageopacity="0"
     inkscape:pagecheckerboard="0"
     inkscape:deskcolor="#505050">
    <inkscape:page
       x="0"
       y="0"
       inkscape:label="1"
       id="page1"
       width="505.60001"
       height="401.76001"
       margin="0"
       bleed="0" />
  </sodipodi:namedview>
  <g
     id="g1"
     inkscape:groupmode="layer"
     inkscape:label="1">
    <path
       id="path1"
       d="M 0,0 3.84,-7.52 15.04,-30.4 20.639999,-41.919998 28.48,-59.200001 34.880001,-74.400002 40.32,-88.160004 45.119999,-101.12 l 4.32,-12.64 4,-12.48 3.52,-12.15999 L 60.16,-150.56 l 3.040001,-12.32 2.719997,-12.15999 0.160004,-1.12001 2.239998,-11.51999 2.559997,-13.28002 2.560005,-15.67999 3.199997,-20.32001 1.919999,-12.95999 1.279998,-9.43999 2.080002,-15.20001 1.919998,-12.32 1.440003,-10.24 1.279999,-8.80001 1.279998,-7.68 1.280007,-6.72 1.119995,-5.91998 1.120003,-5.28 0.959999,-4.64001 1.120002,-3.84 0.96,-3.35999 1.119995,-2.72 0.960006,-2.24002 1.119995,-1.75998 0.96,-1.28 0.959999,-0.80001 1.120003,-0.16001 0.96,0.16001 1.12,0.64001 1.12,0.95999 1.12,1.60001 1.28,1.91998 1.28,2.56 1.28,2.88 1.28,3.52002 1.44,3.84 1.28,4.47998 1.6,5.12 1.44,5.6 1.6,6.24002 1.6,6.87998 1.6,7.68002 1.76,8.31998 1.76,9.28 1.76,10.08001 1.92,11.35999 1.91999,12.80002 2.08001,14.72 2.24,17.28 2.4,21.28 0.96,10.72 0.95999,12.47999 0.96001,12.16001 0.8,13.27999 0.48,12.64 0.47999,11.68 0.32001,10.88 0.16001,10.080003 0.31999,9.279999 0.16,8.479996 0.16,7.840004 0.15999,7.04 L 142.72,-60 l 0.16,5.759998 0.32,5.280003 0.47999,4.639999 0.48001,4.16 0.48,3.520001 0.64,3.2 0.64,2.56 0.8,2.08 0.95999,1.599998 0.96001,1.120001 1.11999,0.639999 1.28,0.32 0.96001,-0.16 1.44,-0.479999 1.59999,-0.959999 L 156.8,-28.16 l 1.76,-1.76 2.08,-2.4 2.08,-2.720001 2.24001,-3.200001 2.39999,-3.679996 2.56,-4.160004 2.56,-4.799999 L 175.2,-56 l 2.88,-5.759998 3.03999,-6.400006 3.20002,-6.879997 3.19999,-7.360001 3.36,-8.159996 3.36,-8.800003 3.68,-9.439999 3.52,-10.08 3.67999,-11.04 3.84002,-11.68001 3.83999,-12.63999 3.68,-13.43999 0.63999,-2.24001 3.20002,-12.32 4,-16.15999 4.47999,-19.36 2.56,-11.84002 2.24001,-10.72 3.51998,-17.6 2.88001,-14.4 2.39999,-11.67999 1.92002,-10.07999 1.75999,-8.80001 1.59999,-7.84 1.60001,-7.04001 1.28,-6.07999 1.28,-5.44 1.27999,-4.79999 1.12001,-4.16 0.96,-3.68002 1.12001,-2.87998 0.95999,-2.56 0.95999,-1.92001 0.80002,-1.6 0.79999,-0.96 0.95999,-0.48001 H 261.12 l 0.80001,0.16001 0.79999,0.64001 0.63999,0.95999 0.80001,1.60001 0.79999,1.91998 0.80002,2.56 0.79999,2.88 0.79999,3.52002 0.80001,4 0.96,4.47998 0.80001,5.12 0.95999,5.60001 1.12,6.39999 0.95999,6.88 1.28,7.84 1.28,8.48001 1.28,9.44 1.6,10.56 1.92002,12 2.07998,13.76 2.88001,16.32 3.67999,20.32 2.08002,10.08 3.67999,16 1.12,4.64 2.88,11.04001 3.20001,11.36 3.51999,11.03999 3.84,11.2 4.16,11.04 4.48001,11.2 4.79999,11.199998 5.28,11.360001 5.76001,11.520004 6.23999,11.999996 6.88,12.48 7.68,13.280002 8.95999,14.72 10.88,17.599999 3.20002,5.12"
       style="fill:none;stroke:#000000;stroke-width:26.4;stroke-linecap:round;stroke-linejoin:round;stroke-miterlimit:10;stroke-dasharray:none;stroke-opacity:1"
       transform="translate(165.92,740.63996)"
       clip-path="url(#clipPath2)" />
    <path
       id="path3"
       d="m 0,0 h 3.84 11.2 l 16.48,0.32 10.560002,0.32 16.639999,0.8 14.239998,1.44 2.559998,0.32 3.840004,0.48 10.879997,1.76 4.480003,0.96 7.679999,2.08 6.72,2.24 5.6,2.56 5.12,2.72 4.48,2.879999 4.00001,3.200001 3.51999,3.52 3.04,3.680001 2.72001,3.839998 0.79998,1.600002 1.92002,3.360001 1.91999,4.479999 1.6,4.959999 1.44,5.279999 1.11999,5.760002 0.80001,6.079998 0.32,6.400002 v 6.720001 l -0.64,6.559998 -0.96,6.720001 -1.28,6.400001 -1.92,6.239998 -2.08,5.76 -2.56,5.44 -2.72,4.64 -2.56,3.84 -3.36,4.16 -3.84,4.32 -4.32,4.16 -4.8,4.16 -5.44,4.16001 -5.92,4 -6.560002,4 -6.879998,4 -6.559997,3.51999 -5.440003,2.88 -4.639999,2.56 -2.720001,1.44 -2.239998,1.44 -2.560005,1.92 -2.239998,1.59999 -1.919998,1.76001 -1.279999,1.44 -0.960003,1.6 -0.48,1.27999 v 1.28 l 0.32,1.28002 0.959999,1.11999 1.280003,0.95999 1.600002,0.96001 2.239998,0.96001 2.559997,0.64 2.720002,0.64 2.559997,0.47999 3.840004,0.64 4.32,0.48 5.120003,0.47999 5.759994,0.64002 L 100.8,188.8 l 8,0.80001 9.76,0.95999 11.83999,1.6 5.60001,0.95999 8.8,1.92 3.68,1.12001 6.55999,1.92 5.92002,2.4 5.43998,2.55999 5.12001,2.72 4.48,3.04001 4,3.36 3.52,3.36 3.2,3.84 2.72,3.84 2.23999,4.16 1.92002,4.31999 1.43998,4.32001 0.96001,3.36 0.8,4.96001 0.48,5.28 0.16,5.59999 -0.16,5.92 -0.64,6.23999 -1.12,6.40002 -1.6,6.56 -2.08,6.55999 -2.4,6.4 -2.88,6.23999 -3.2,5.76001 -3.36,5.44 -0.64,0.79999 -2.39999,3.20001 -4,4.63999 -4.32001,4.48001 -4.8,4.48001 -5.44001,4.32 -6.07998,4.31998 -6.72,4.48001 -7.68001,4.48001 -8.80001,4.79999 -10.71999,5.44 -5.12,2.56"
       style="fill:none;stroke:#000000;stroke-width:26.4;stroke-linecap:round;stroke-linejoin:round;stroke-miterlimit:10;stroke-dasharray:none;stroke-opacity:1"
       transform="translate(430.23999,381.91995)"
       clip-path="url(#clipPath4)" />
  </g>
</svg>
