<?xml version="1.0" encoding="UTF-8" standalone="no"?>
<!-- Created with Inkscape (http://www.inkscape.org/) -->

<svg
   version="1.1"
   id="svg1"
   width="444.23999"
   height="543.25336"
   viewBox="0 0 444.23999 543.25336"
   sodipodi:docname="Caduceus2.pdf"
   xmlns:inkscape="http://www.inkscape.org/namespaces/inkscape"
   xmlns:sodipodi="http://sodipodi.sourceforge.net/DTD/sodipodi-0.dtd"
   xmlns="http://www.w3.org/2000/svg"
   xmlns:svg="http://www.w3.org/2000/svg">
  <defs
     id="defs1">
    <clipPath
       clipPathUnits="userSpaceOnUse"
       id="clipPath2">
      <path
         d="M 0,0.16 V 1122.5601 H 793.59998 V 0.16 Z"
         transform="translate(-416.32001,-322.48001)"
         clip-rule="evenodd"
         id="path2" />
    </clipPath>
    <clipPath
       clipPathUnits="userSpaceOnUse"
       id="clipPath4">
      <path
         d="M 0,0.16 V 1122.5601 H 793.59998 V 0.16 Z"
         clip-rule="evenodd"
         id="path4" />
    </clipPath>
    <clipPath
       clipPathUnits="userSpaceOnUse"
       id="clipPath6">
      <path
         d="M 0,0.16 V 1122.5601 H 793.59998 V 0.16 Z"
         transform="translate(-380.16,-367.51999)"
         clip-rule="evenodd"
         id="path6" />
    </clipPath>
    <clipPath
       clipPathUnits="userSpaceOnUse"
       id="clipPath8">
      <path
         d="M 0,0.16 V 1122.5601 H 793.59998 V 0.16 Z"
         transform="translate(-296,-356.32001)"
         clip-rule="evenodd"
         id="path8" />
    </clipPath>
    <clipPath
       clipPathUnits="userSpaceOnUse"
       id="clipPath10">
      <path
         d="M 0,0.16 V 1122.5601 H 793.59998 V 0.16 Z"
         transform="translate(-312.16,-371.83999)"
         clip-rule="evenodd"
         id="path10" />
    </clipPath>
    <clipPath
       clipPathUnits="userSpaceOnUse"
       id="clipPath12">
      <path
         d="M 0,0.16 V 1122.5601 H 793.59998 V 0.16 Z"
         transform="translate(-328.48001,-377.76001)"
         clip-rule="evenodd"
         id="path12" />
    </clipPath>
    <clipPath
       clipPathUnits="userSpaceOnUse"
       id="clipPath14">
      <path
         d="M 0,0.16 V 1122.5601 H 793.59998 V 0.16 Z"
         transform="translate(-308.48001,-405.92001)"
         clip-rule="evenodd"
         id="path14" />
    </clipPath>
    <clipPath
       clipPathUnits="userSpaceOnUse"
       id="clipPath16">
      <path
         d="M 0,0.16 V 1122.5601 H 793.59998 V 0.16 Z"
         transform="translate(-413.60001,-367.51999)"
         clip-rule="evenodd"
         id="path16" />
    </clipPath>
    <clipPath
       clipPathUnits="userSpaceOnUse"
       id="clipPath18">
      <path
         d="M 0,0.16 V 1122.5601 H 793.59998 V 0.16 Z"
         transform="translate(-497.76001,-356.95999)"
         clip-rule="evenodd"
         id="path18" />
    </clipPath>
    <clipPath
       clipPathUnits="userSpaceOnUse"
       id="clipPath20">
      <path
         d="M 0,0.16 V 1122.5601 H 793.59998 V 0.16 Z"
         transform="translate(-481.44,-372.32001)"
         clip-rule="evenodd"
         id="path20" />
    </clipPath>
    <clipPath
       clipPathUnits="userSpaceOnUse"
       id="clipPath22">
      <path
         d="M 0,0.16 V 1122.5601 H 793.59998 V 0.16 Z"
         transform="translate(-465.28,-378.07999)"
         clip-rule="evenodd"
         id="path22" />
    </clipPath>
    <clipPath
       clipPathUnits="userSpaceOnUse"
       id="clipPath24">
      <path
         d="M 0,0.16 V 1122.5601 H 793.59998 V 0.16 Z"
         transform="translate(-484.95999,-406.23999)"
         clip-rule="evenodd"
         id="path24" />
    </clipPath>
    <clipPath
       clipPathUnits="userSpaceOnUse"
       id="clipPath26">
      <path
         d="M 0,0.16 V 1122.5601 H 793.59998 V 0.16 Z"
         transform="translate(-379.35999,-423.67999)"
         clip-rule="evenodd"
         id="path26" />
    </clipPath>
    <clipPath
       clipPathUnits="userSpaceOnUse"
       id="clipPath28">
      <path
         d="M 0,0.16 V 1122.5601 H 793.59998 V 0.16 Z"
         transform="translate(-381.60001,-433.28)"
         clip-rule="evenodd"
         id="path28" />
    </clipPath>
    <clipPath
       clipPathUnits="userSpaceOnUse"
       id="clipPath30">
      <path
         d="M 0,0.16 V 1122.5601 H 793.59998 V 0.16 Z"
         clip-rule="evenodd"
         id="path30" />
    </clipPath>
    <clipPath
       clipPathUnits="userSpaceOnUse"
       id="clipPath32">
      <path
         d="M 0,0.16 V 1122.5601 H 793.59998 V 0.16 Z"
         clip-rule="evenodd"
         id="path32" />
    </clipPath>
    <clipPath
       clipPathUnits="userSpaceOnUse"
       id="clipPath34">
      <path
         d="M 0,0.16 V 1122.5601 H 793.59998 V 0.16 Z"
         transform="translate(-361.60001,-590.56)"
         clip-rule="evenodd"
         id="path34" />
    </clipPath>
    <clipPath
       clipPathUnits="userSpaceOnUse"
       id="clipPath36">
      <path
         d="M 0,0.16 V 1122.5601 H 793.59998 V 0.16 Z"
         transform="translate(-384.48001,-606.08002)"
         clip-rule="evenodd"
         id="path36" />
    </clipPath>
    <clipPath
       clipPathUnits="userSpaceOnUse"
       id="clipPath38">
      <path
         d="M 0,0.16 V 1122.5601 H 793.59998 V 0.16 Z"
         clip-rule="evenodd"
         id="path38" />
    </clipPath>
    <clipPath
       clipPathUnits="userSpaceOnUse"
       id="clipPath40">
      <path
         d="M 0,0.16 V 1122.5601 H 793.59998 V 0.16 Z"
         clip-rule="evenodd"
         id="path40" />
    </clipPath>
    <clipPath
       clipPathUnits="userSpaceOnUse"
       id="clipPath42">
      <path
         d="M 0,0.16 V 1122.5601 H 793.59998 V 0.16 Z"
         transform="translate(-373.44,-730.88)"
         clip-rule="evenodd"
         id="path42" />
    </clipPath>
    <clipPath
       clipPathUnits="userSpaceOnUse"
       id="clipPath44">
      <path
         d="M 0,0.16 V 1122.5601 H 793.59998 V 0.16 Z"
         transform="translate(-414.07999,-423.04001)"
         clip-rule="evenodd"
         id="path44" />
    </clipPath>
    <clipPath
       clipPathUnits="userSpaceOnUse"
       id="clipPath46">
      <path
         d="M 0,0.16 V 1122.5601 H 793.59998 V 0.16 Z"
         transform="translate(-412.64001,-434.07999)"
         clip-rule="evenodd"
         id="path46" />
    </clipPath>
    <clipPath
       clipPathUnits="userSpaceOnUse"
       id="clipPath48">
      <path
         d="M 0,0.16 V 1122.5601 H 793.59998 V 0.16 Z"
         transform="translate(-436.95999,-492.32001)"
         clip-rule="evenodd"
         id="path48" />
    </clipPath>
    <clipPath
       clipPathUnits="userSpaceOnUse"
       id="clipPath50">
      <path
         d="M 0,0.16 V 1122.5601 H 793.59998 V 0.16 Z"
         transform="translate(-436.95999,-492.32001)"
         clip-rule="evenodd"
         id="path50" />
    </clipPath>
    <clipPath
       clipPathUnits="userSpaceOnUse"
       id="clipPath52">
      <path
         d="M 0,0.16 V 1122.5601 H 793.59998 V 0.16 Z"
         transform="translate(-355.04001,-497.6)"
         clip-rule="evenodd"
         id="path52" />
    </clipPath>
    <clipPath
       clipPathUnits="userSpaceOnUse"
       id="clipPath54">
      <path
         d="M 0,0.16 V 1122.5601 H 793.59998 V 0.16 Z"
         transform="translate(-383.84,-514.56)"
         clip-rule="evenodd"
         id="path54" />
    </clipPath>
    <clipPath
       clipPathUnits="userSpaceOnUse"
       id="clipPath56">
      <path
         d="M 0,0.16 V 1122.5601 H 793.59998 V 0.16 Z"
         clip-rule="evenodd"
         id="path56" />
    </clipPath>
    <clipPath
       clipPathUnits="userSpaceOnUse"
       id="clipPath58">
      <path
         d="M 0,0.16 V 1122.5601 H 793.59998 V 0.16 Z"
         clip-rule="evenodd"
         id="path58" />
    </clipPath>
    <clipPath
       clipPathUnits="userSpaceOnUse"
       id="clipPath60">
      <path
         d="M 0,0.16 V 1122.5601 H 793.59998 V 0.16 Z"
         transform="translate(-363.20001,-672.47998)"
         clip-rule="evenodd"
         id="path60" />
    </clipPath>
    <clipPath
       clipPathUnits="userSpaceOnUse"
       id="clipPath62">
      <path
         d="M 0,0.16 V 1122.5601 H 793.59998 V 0.16 Z"
         clip-rule="evenodd"
         id="path62" />
    </clipPath>
    <clipPath
       clipPathUnits="userSpaceOnUse"
       id="clipPath64">
      <path
         d="M 0,0.16 V 1122.5601 H 793.59998 V 0.16 Z"
         clip-rule="evenodd"
         id="path64" />
    </clipPath>
  </defs>
  <sodipodi:namedview
     id="namedview1"
     pagecolor="#505050"
     bordercolor="#eeeeee"
     borderopacity="1"
     inkscape:showpageshadow="0"
     inkscape:pageopacity="0"
     inkscape:pagecheckerboard="0"
     inkscape:deskcolor="#505050">
    <inkscape:page
       x="0"
       y="0"
       inkscape:label="1"
       id="page1"
       width="444.23999"
       height="543.25336"
       margin="0"
       bleed="0" />
  </sodipodi:namedview>
  <g
     id="g1"
     inkscape:groupmode="layer"
     inkscape:label="1">
    <path
       id="path1"
       d="m 0,0 c 0,-11 -8.91,-19.92 -19.92,-19.92 -11.01,0 -19.92,8.92 -19.92,19.92 0,11 8.91,19.92 19.92,19.92 C -8.91,19.92 0,11 0,0 Z"
       style="fill:none;stroke:#000000;stroke-width:11.2;stroke-linecap:round;stroke-linejoin:round;stroke-miterlimit:10;stroke-dasharray:none;stroke-opacity:1"
       transform="translate(416.32001,325.14662)"
       clip-path="url(#clipPath2)" />
    <path
       id="path3"
       d="M 395.67999,820 392,810.40002 382.39999,345.44 h 28.80002 L 398.56,806.08002 395.67999,820"
       style="fill:none;stroke:#000000;stroke-width:11.2;stroke-linecap:round;stroke-linejoin:round;stroke-miterlimit:10;stroke-dasharray:none;stroke-opacity:1"
       transform="translate(0,2.666608)"
       clip-path="url(#clipPath4)" />
    <path
       id="path5"
       d="M 0,0 -1.92,0.64 -4.64,1.6 -7.04,2.24 -9.28,2.72 -11.36,2.88 -13.12,2.72 -14.88,2.56 -16.32,1.92 -17.6,0.96 -18.879999,-0.32 -19.52,-0.96 -20,-1.44 l -1.120001,-1.76 -1.92,-3.2 -0.639999,-1.44 -0.64,-2.4 -0.16,-2.08 0.16,-0.32 v -0.48 l 0.48,-1.6 0.960001,-1.919999 1.439998,-2.08 2.08,-3.200001 0.960001,-1.92 0.32,-0.64 0.799999,-2.239999 L -16.48,-29.92 l 0.32,-3.519999 0.16,-3.84 -0.32,-3.200001 v -0.959999 L -16.959999,-44.16 -18.08,-48 l -1.44,-3.52 -1.920001,-3.200001 -1.76,-2.239998 -0.639999,-0.799999 -1.92,-1.760002 -2.72,-2.079998 -3.04,-1.760003 -3.360001,-1.440002 -3.520001,-1.119995 -1.439998,-0.160004 -0.959999,-0.32 -3.360001,-0.319999 -4.16,-0.159996 -4.319999,0.319999 -4.48,0.64 -4.639999,0.959999 -3.200001,0.959999 -1.599999,0.48 -4.480003,1.600002 -5.440002,2.079998 -5.759995,2.720001 -6.560005,3.200001 -7.039993,4 -1.440003,0.799999 -1.599998,0.959999 -4.960003,3.040001 -9.12,5.919998 L -123.52,-32 -130.39999,-27.360001 -132,-26.24 l -5.11999,3.360001 -7.36001,5.119999 -4.48001,2.88 -6.39999,4 -4.96001,3.2 -1.43998,0.8 -1.28,0.8 -3.36,2.08 -3.20002,1.76 -3.19999,1.76 -3.2,1.6 -3.36,1.6 -2.24001,0.8 -0.79998,0.32 -2.40001,0.8 -2.08,0.8 -1.76,0.48 -2.24,0.96 -1.44001,0.96 -0.79998,0.8 -0.16001,0.16 v 0.32 l 0.16001,0.8 0.47999,0.8 0.96001,0.96 1.43999,1.12 1.91999,1.12 2.56002,1.12 0.79998,0.48 0.80001,0.16 2.40001,0.8 3.67999,0.960001 3.84,0.319999 h 3.68 l 3.84,-0.319999 1.44,-0.32 1.28,-0.160002 4,-0.959999 4,-1.28 4.32001,-1.6 4.47999,-2.08 4.64,-2.24 4.80001,-2.72 4.79998,-2.88 0.32001,-0.16 1.92,-1.28 5.28,-3.68 6.4,-4.48 4.96,-3.68 4.32,-3.2 2.88,-2.08 4.32,-3.199999 3.519999,-2.4 2.559998,-1.92 L -95.68,-23.360001 -94.559998,-24 l 1.759995,-0.959999 1.440002,-0.640001 1.120003,-0.32 1.119995,-0.16 0.800003,0.16 0.480004,0.479999 0.479995,0.800002 0.32,1.119999 0.160004,1.12 v 0.64 l 0.319999,1.44 0.479996,4.16 v 2.24 l -0.159996,2.72 v 0.64 l -0.32,1.76 -0.959999,2.88 -1.440002,2.56 -1.760002,2.56 -1.440003,1.6 -0.639999,0.64 -1.919998,1.76 -2.879997,2.56 -3.520002,2.56 -4.16,2.88 -3.36,2.4 -1.12,0.64 -3.04,2.08 -8,5.120001 -3.36,1.92 -3.84,2.08 -0.8,0.319999 -0.80001,0.48 L -132,27.200001 -134.39999,28 l -2.72,0.48 -3.20002,0.319999 h -3.35998 -0.80001 l -2.72,-0.16 L -150.88,28 l -3.2,-1.120001 -2.72,-1.439998 -2.4,-1.760001 -1.91999,-2.239999 -0.64,-0.800002"
       style="fill:none;stroke:#000000;stroke-width:11.2;stroke-linecap:round;stroke-linejoin:round;stroke-miterlimit:10;stroke-dasharray:none;stroke-opacity:1"
       transform="translate(380.16,370.1866)"
       clip-path="url(#clipPath6)" />
    <path
       id="path7"
       d="M 0,0 1.12,1.44 3.2,3.84 5.28,6.08 7.04,8 l 1.44,1.76 1.44,1.44 1.12,1.28 0.8,1.28 0.64,1.12 v 0.16 l 0.16,0.48 v 0.96 L 12.32,17.6 11.52,18.879999 10.24,20.32 8.48,22.08 8.16,22.4 7.68,22.879999 6.24,24.32 3.52,27.040001 0,30.4 l -2.56,2.399999 -0.48,0.48 -1.92,1.600002 -4.48,3.360001 -4.48,3.199997 -0.32,0.159999 -0.48,0.480004 -1.6,0.959999 -3.52,2.079998 -1.76,0.639999 -3.039999,0.960003 -1.120001,0.16 -0.64,0.16 -2.559999,0.16 -3.040001,-0.16 -2.880001,-0.32 -3.200001,-0.800003 -3.199997,-0.799999 -3.36,-1.279999 -3.680001,-1.439998 -3.84,-1.600003 -0.32,-0.16"
       style="fill:none;stroke:#000000;stroke-width:11.2;stroke-linecap:round;stroke-linejoin:round;stroke-miterlimit:10;stroke-dasharray:none;stroke-opacity:1"
       transform="translate(296,358.98662)"
       clip-path="url(#clipPath8)" />
    <path
       id="path9"
       d="m 0,0 0.8,0.48 2.4,0.96 2.88,0.96 3.36,0.64 1.6,0.32 2.24,0.48 1.12,0.48 0.32,0.32 0.48,0.64 0.32,0.8 -0.16,0.96 -0.48,1.28 -0.96,1.44 -1.28,1.76 v 0.16 l -0.48,0.48 -1.12,1.44 -2.88,3.359999 -1.92,2.240002 -2.08,2.08 L 3.84,21.76 2.72,22.879999 0.32,25.120001 -3.04,28 -3.68,28.48 -4.16,28.799999 -5.44,29.92 l -3.52,2.56 -2.24,1.439998 -2.08,1.120003 -0.32,0.16 -1.28,0.479999 -1.919999,0.64 -1.92,0.16 h -2.08 -0.320002 L -22.4,36.32 -23.360001,36 -24.32,35.84 l -1.92,-0.639999 -2.24,-0.64 -2.399999,-0.640003 -2.719999,-0.959999 L -36.639999,32 -37.599998,31.84"
       style="fill:none;stroke:#000000;stroke-width:11.2;stroke-linecap:round;stroke-linejoin:round;stroke-miterlimit:10;stroke-dasharray:none;stroke-opacity:1"
       transform="translate(312.16,374.5066)"
       clip-path="url(#clipPath10)" />
    <path
       id="path11"
       d="m 0,0 0.8,2.24 1.6,3.52 1.6,3.2 1.6,2.72 1.76,2.72 1.92,2.399999 2.08,2.08 2.4,2.08 2.56,1.92 2.239999,1.440001 0.960001,0.639999 3.039999,1.76 2.08,0.960001 L 28.16,28.799999 31.52,29.440001 34.880001,29.6 h 3.520001 l 3.68,-0.319999 3.839996,-0.640002 L 48.639999,28.16"
       style="fill:none;stroke:#000000;stroke-width:11.2;stroke-linecap:round;stroke-linejoin:round;stroke-miterlimit:10;stroke-dasharray:none;stroke-opacity:1"
       transform="translate(328.48001,380.42662)"
       clip-path="url(#clipPath12)" />
    <path
       id="path13"
       d="m 0,0 1.44,1.92 3.36,4.64 2.88,4.48 2.72,3.84 2.4,3.36 2.24,2.880001 1.919999,2.24 1.76,1.76 L 20.48,26.4 l 0.159999,0.159999"
       style="fill:none;stroke:#000000;stroke-width:11.2;stroke-linecap:round;stroke-linejoin:round;stroke-miterlimit:10;stroke-dasharray:none;stroke-opacity:1"
       transform="translate(308.48001,408.58662)"
       clip-path="url(#clipPath14)" />
    <path
       id="path15"
       d="m 0,0 1.92,0.8 2.72,0.8 2.4,0.8 2.24,0.32 2.08,0.32 1.76,-0.16 1.6,-0.16 1.6,-0.64 L 17.6,1.12 18.879999,-0.16 19.52,-0.8 20,-1.28 l 1.120001,-1.76 1.92,-3.04 0.639999,-1.44 0.64,-2.56 0.16,-2.08 v -0.16 l -0.16,-0.64 -0.48,-1.6 -0.960001,-1.76 -1.439998,-2.239999 -2.08,-3.200001 L 18.4,-23.68 18.24,-24.32 17.440001,-26.559999 16.639999,-29.76 16.16,-33.279999 v -3.84 L 16.48,-40.32 16.639999,-41.279999 17.120001,-44 18.24,-47.84 l 1.6,-3.520001 1.76,-3.2 1.760001,-2.239998 0.639999,-0.64 2.08,-1.920002 2.719999,-2.079998 3.040001,-1.760002 3.360001,-1.280002 3.52,-1.119995 1.439999,-0.160004 0.959999,-0.32 3.360001,-0.32 4.159999,-0.159996 4.32,0.32 4.48,0.64 4.640003,1.119995 3.199997,0.800003 1.440002,0.479999 4.64,1.600003 5.279998,2.239997 5.919999,2.720002 6.400001,3.2 7.200005,4 1.279998,0.959999 1.759995,0.96 4.800003,3.04 9.12,5.919999 10.56,7.2 6.71999,4.800002 1.76001,1.119998 4.95999,3.360001 7.52001,5.120001 4.32001,2.879999 6.39999,4.16 4.96001,3.2 1.43998,0.8 1.28,0.8 3.36,2.08 3.20002,1.92 3.19999,1.6 3.2,1.6 3.36,1.6 2.08,0.8 0.8,0.32 2.56,0.96 2.08,0.64 1.6,0.64 2.4,0.96 1.44001,0.96 0.79998,0.8 v 0.16 l 0.16001,0.32 -0.16001,0.8 -0.47999,0.8 -0.96001,0.96 -1.43999,1.12 -1.91999,1.12 -2.56002,1.12 -0.95999,0.32 -0.64,0.319999 -2.40001,0.800001 -3.83999,0.8 -3.84,0.319999 h -3.68001 L 166.56,18.4 165.11999,18.08 163.84,17.92 160,16.959999 155.84,15.68 151.52,13.92 147.03999,12 142.56,9.6 137.75999,6.88 132.8,4 l -0.16,-0.16 -2.08,-1.28 -5.12,-3.68 -6.4,-4.48 -4.96,-3.68 -4.32,-3.2 -2.72,-2.24 -4.48,-3.2 -3.360003,-2.56 -2.719994,-1.76 L 95.68,-22.719999 94.559998,-23.360001 92.959999,-24.32 91.519997,-24.959999 90.239998,-25.440001 89.279999,-25.6 l -0.799996,0.159999 -0.640007,0.480002 -0.319999,0.799999 -0.32,1.280001 -0.159996,1.119999 -0.160004,0.479999 -0.159996,1.600001 -0.639999,4 v 2.24 l 0.159996,2.88 v 0.48 l 0.32,1.92 0.959999,2.72 1.440002,2.72 1.760002,2.56 1.440003,1.6 0.639999,0.48 1.919998,1.92 2.879997,2.4 3.520002,2.72 4,2.88 3.52,2.4 0.96,0.64 3.04,2.079999 8,5.120001 3.36,2.08 3.84,2.08 0.8,0.319999 0.8,0.32 L 131.67999,28 134.24,28.799999 136.96001,29.280001 140.16,29.6 l 3.36,0.16 0.80001,-0.16 2.71998,-0.159999 3.68001,-0.480002 3.2,-1.119999 2.72,-1.44 2.39999,-1.92 1.92002,-2.08 0.64,-0.8"
       style="fill:none;stroke:#000000;stroke-width:11.2;stroke-linecap:round;stroke-linejoin:round;stroke-miterlimit:10;stroke-dasharray:none;stroke-opacity:1"
       transform="translate(413.60001,370.1866)"
       clip-path="url(#clipPath16)" />
    <path
       id="path17"
       d="m 0,0 -1.12,1.28 -2.08,2.56 -2.08,2.08 -1.76,1.92 -1.44,1.76 -1.44,1.44 -1.12,1.28 -0.8,1.28 -0.64,1.12 -0.16,0.16 v 0.32 1.12 l 0.32,1.120001 0.8,1.279998 1.28,1.440001 1.76,1.76 0.32,0.32 0.48,0.479999 1.28,1.440001 2.72,2.880001 3.52,3.359999 2.56,2.239999 0.48,0.64 1.92,1.440002 4.48,3.520001 4.32,3.199997 0.48,0.159999 0.48,0.32 1.6,1.120003 3.52,2.079998 1.760001,0.639999 2.879999,0.960003 1.120001,0.16 0.799999,0.16 2.559999,0.16 H 31.68 l 3.040001,-0.48 3.039997,-0.639999 3.360001,-0.960003 L 44.48,44 48.16,42.560001 52,40.959999 l 0.32,-0.16"
       style="fill:none;stroke:#000000;stroke-width:11.2;stroke-linecap:round;stroke-linejoin:round;stroke-miterlimit:10;stroke-dasharray:none;stroke-opacity:1"
       transform="translate(497.76001,359.6266)"
       clip-path="url(#clipPath18)" />
    <path
       id="path19"
       d="m 0,0 -0.8,0.48 -2.4,0.96 -2.88,0.8 -3.2,0.8 -1.6,0.16 -2.24,0.64 -1.12,0.48 -0.32,0.16 -0.64,0.64 -0.16,0.8 v 0.96 l 0.48,1.28 0.96,1.44 1.28,1.92 h 0.16 l 0.32,0.48 1.12,1.44 2.88,3.519999 1.92,2.240002 2.08,2.08 0.32,0.479999 1.12,1.119999 2.4,2.240002 L 3.04,28 3.68,28.48 4,28.799999 5.44,29.92 l 3.52,2.56 2.24,1.439998 1.92,1.120003 0.48,0.16 1.28,0.639999 1.759999,0.48 1.92,0.319999 2.24,-0.159999 h 0.320002 L 22.24,36.32 23.360001,36.16 24.16,35.84 l 1.92,-0.479999 2.24,-0.64 2.559999,-0.800003 2.719999,-0.799999 L 36.639999,32.16 37.599998,32"
       style="fill:none;stroke:#000000;stroke-width:11.2;stroke-linecap:round;stroke-linejoin:round;stroke-miterlimit:10;stroke-dasharray:none;stroke-opacity:1"
       transform="translate(481.44,374.98662)"
       clip-path="url(#clipPath20)" />
    <path
       id="path21"
       d="m 0,0 -0.96,2.24 -1.44,3.52 -1.6,3.2 -1.76,2.88 -1.76,2.56 -1.92,2.399999 -2.08,2.08 -2.4,2.08 -2.56,1.92 -2.399999,1.440001 -0.960001,0.639999 -3.039999,1.6 -1.92,0.960001 -3.520001,1.119999 -3.36,0.640002 -3.360001,0.319999 -3.52,-0.159999 -3.680001,-0.32 -3.84,-0.640001 -2.879997,-0.64"
       style="fill:none;stroke:#000000;stroke-width:11.2;stroke-linecap:round;stroke-linejoin:round;stroke-miterlimit:10;stroke-dasharray:none;stroke-opacity:1"
       transform="translate(465.28,380.7466)"
       clip-path="url(#clipPath22)" />
    <path
       id="path23"
       d="m 0,0 -1.44,2.08 -3.2,4.64 -3.04,4.32 -2.72,3.84 -2.4,3.36 -2.24,2.880001 -1.919999,2.24 -1.92,1.76 L -20.48,26.4 l -0.319999,0.159999"
       style="fill:none;stroke:#000000;stroke-width:11.2;stroke-linecap:round;stroke-linejoin:round;stroke-miterlimit:10;stroke-dasharray:none;stroke-opacity:1"
       transform="translate(484.95999,408.9066)"
       clip-path="url(#clipPath24)" />
    <path
       id="path25"
       d="m 0,0 -1.28,-0.64 -2.88,-1.28 -2.88,-0.96 -3.04,-0.48 -3.2,-0.16 -3.359999,0.32 -3.520001,0.64 -3.68,0.96 -1.119999,0.48 -1.120001,0.32 -3.040001,1.12 -3.839998,1.92 -3.520001,2.24 -3.2,2.4 -2.720002,2.72 -0.639999,0.8 -1.919998,2.4 -2.240002,3.36 -1.759998,3.52 -1.280003,3.680001 -0.639999,3.519998 -0.16,0.800001 V 28.799999 31.84 l 0.48,3.360001 0.800003,3.52 1.439998,3.520001 1.759999,3.359996 1.600002,2.720002 0.799999,0.959999 2.240002,2.880001 3.199997,3.52 3.68,3.360001 4.160002,3.360001 4.639999,3.519996 1.600001,1.120003 1.279998,0.799995 4.16,2.560006 6.240001,3.839996 7.68,4.160004 9.44,4.799995 h 0.16 l 1.44,0.639999 4.32,2.080002 6.4,3.040001 5.92,2.879997 4.800001,2.560006 2.399999,1.439994 0.959999,0.640007 2.72,2.079995 L 36.16,101.12 l 2.240002,2.56 1.919998,2.72 1.279998,2.72 0.640004,2.08 0.319999,0.96 0.32,2.88 -0.16,2.88 -0.639999,2.72 -0.960003,2.72 L 39.68,125.92 37.759998,128.64 35.68,131.2 32.959999,133.92 31.84,135.2"
       style="fill:none;stroke:#cc3131;stroke-width:11.2;stroke-linecap:round;stroke-linejoin:round;stroke-miterlimit:10;stroke-dasharray:none;stroke-opacity:1"
       transform="translate(379.35999,426.3466)"
       clip-path="url(#clipPath26)" />
    <path
       id="path27"
       d="m 0,0 -1.12,1.44 -2.56,2.72 -2.4,2.24 -2.4,2.08 -2.24,1.6 -2.08,1.44 -2.08,0.96 -1.919999,0.64 L -18.4,13.44 -19.040001,13.6 H -20.48 l -1.44,-0.48 -1.280001,-0.64 -1.439998,-0.96 L -26.4,9.92 -26.879999,9.6 -27.84,8.8 -29.120001,8 -30.08,7.52 -31.52,7.2 l -1.119999,0.16 -0.64,0.48 -0.16,0.16 -0.479999,1.12 -0.320004,1.44 -0.16,1.76 0.32,2.4 0.480004,2.560001 0.319999,1.279998 0.32,0.480002 0.799999,1.919998 1.600001,2.400002 1.92,2.08 L -26.4,27.52 l 2.08,1.439999 0.64,0.480002 2.239999,1.119998 L -18.08,32.16 l 3.68,1.599998 3.84,1.600003 4.16,1.439998 1.44,0.64 1.44,0.479999 L 0.96,39.68 5.92,41.599998 12.16,44 l 7.52,3.360001 7.84,3.52 1.600001,0.799999 4.799997,2.400002 6.560002,3.839996 5.920002,3.68 5.279998,4 4,3.360001 1.279999,0.959999 3.200001,3.200005 3.52,4.159996 3.040001,4.160003 2.400002,4 1.919998,4.159996 1.120003,2.880005 0.319999,1.439995 0.799996,4 0.480003,4.320002 v 4.32 l -0.32,4.48 -0.959999,4.48 -1.280006,4.48 v 0.48 l -0.639999,1.28 -1.759995,4.16 -2.240005,3.83999 -2.559998,3.36 -2.720001,3.20002 -3.199997,2.87999 -3.520001,2.72 -3.68,2.56 L 48,146.24"
       style="fill:none;stroke:#cc3131;stroke-width:11.2;stroke-linecap:round;stroke-linejoin:round;stroke-miterlimit:10;stroke-dasharray:none;stroke-opacity:1"
       transform="translate(381.60001,435.94661)"
       clip-path="url(#clipPath28)" />
    <path
       id="path29"
       d="m 411.20001,558.88 1.59998,-1.59997 1.44,-1.44 1.28,-1.44001 1.12002,-1.44 1.12,-1.44 0.79999,-1.28003 0.79999,-1.27997 0.80001,-1.28003 0.48001,-1.11999 0.47999,-1.27997 0.48001,-1.12006 0.32,-1.11999 0.15998,-1.12 0.16,-1.11999 v -0.95996 -1.12006 -0.95996 l -0.16,-0.96002 -0.15998,-0.95996 -0.32,-0.96003 -0.16001,-0.79998 -0.32,-0.96002 -0.32001,-0.79999 -0.47998,-0.96003 -0.48001,-0.79998 -0.48001,-0.79999 -0.47999,-0.79999 -0.48001,-0.80005 -0.63998,-0.79999 L 417.12,526.56 416.48001,525.76001 415.84,525.12 l -0.79999,-0.79999 -0.80002,-0.64002 -0.79999,-0.79999 -0.79999,-0.64001 -0.96002,-0.64001 -0.79999,-0.79999 -0.95999,-0.64002 -0.96002,-0.63995 -1.11999,-0.64002 -0.96,-0.64001 -1.11999,-0.64001 -1.12,-0.47998 -1.12002,-0.64002 -1.12,-0.63995 L 401.12,515.20001 400,514.56 l -1.28,-0.64002 -1.28,-0.47998 -1.28,-0.64001 -1.28,-0.64002 -1.27999,-0.63998 -1.44001,-0.63999 -1.28,-0.64001 -1.44,-0.63998 -1.44,-0.64002 -1.44,-0.63998 -1.44,-0.80002 -1.44001,-0.63999 -1.44,-0.64001 -1.44,-0.79999 -1.59998,-0.64001 -1.44,-0.79999 -1.44,-0.79999 -1.60001,-0.80002 -1.44,-0.79998 -1.44,-0.80002 -1.60001,-0.79999 -1.44,-0.79999 -1.44,-0.80002 -1.43998,-0.79998 -1.6,-0.80002 -1.44001,-0.95999 -1.44,-0.79999 -1.28,-0.96002 -1.44,-0.79999 -1.44,-0.79999 -1.28,-0.96002 -1.28,-0.79999 -1.28,-0.95999 -1.28,-0.96002 -1.28,-0.79999 -1.27999,-0.95999 -1.12,-0.80002 -1.12002,-0.95999 -1.12,-0.95999 L 345.12,483.35999 344,482.56 l -0.95999,-0.95999 -1.12,-0.96 -0.96002,-0.96002 L 340.16,478.72 339.20001,477.76001 338.39999,476.79999 337.44,475.84 336.64001,474.88 335.84,473.92001 335.20001,472.95999 334.39999,472 333.76001,470.88 333.12,469.92001 332.64001,468.95999 332,467.84 l -0.48001,-0.96 -0.47998,-0.95999 -0.48001,-1.12002 -0.32001,-0.95999 -0.47998,-1.12 -0.32001,-0.95999 -0.32,-1.12 -0.16001,-0.96002 -0.31998,-1.11999 -0.16,-0.95999 -0.16,-1.12 v -0.96002 l -0.16001,-1.12 V 453.44 l 0.16001,-0.95999 v -1.12002 l 0.16,-0.96 0.16,-0.95999 0.15998,-1.11999 0.16,-0.96002 0.32001,-0.96 0.32001,-0.95999 0.32,-0.95999 0.31998,-0.96002 0.48001,-0.95999 0.48001,-0.95999 0.47998,-0.80002 0.48001,-0.95999 0.48001,-0.79999 0.47999,-0.96002 0.64001,-0.79999 0.63998,-0.79999 0.64002,-0.80002 0.63998,-0.79999 0.64002,-0.80001 0.63998,-0.79999 0.64002,-0.63999 0.79998,-0.80001 0.64002,-0.63999 0.79999,-0.64001 0.80001,-0.63999 0.63999,-0.64001 0.79999,-0.63999 0.96002,-0.48001 0.79999,-0.64001 0.80001,-0.47998 0.96,-0.64002 0.79998,-0.47998 0.96,-0.48001 0.96002,-0.48001 0.95999,-0.47998 0.95999,-0.48001 0.96002,-0.32001 1.12,-0.47998 0.95999,-0.32001 1.11999,-0.32 1.12,-0.48001 1.12002,-0.31998 1.12,-0.32001 1.11999,-0.32 1.28,-0.16001 1.12,-0.31998 1.28,-0.16 1.28,-0.16 h 1.11999 l 1.28,-0.16001 1.28,0.16001 h 1.28 l 1.28,0.16 1.44,0.16 1.28,0.31998 1.28,0.48001 1.28,0.32001 1.44,0.63998 1.28,0.64002 1.28,0.63998 2.24002,9.60001 -1.12,1.44 -1.28,1.28 -1.12002,1.28 -1.12,1.11999 -1.11999,0.96 -0.96,0.96002 -1.11999,0.95999 -0.96002,0.79999 -0.95999,0.64001 -0.96,0.63999 -0.95999,0.64001 -0.80001,0.64001 -0.96,0.31998 -0.80001,0.48001 -0.79999,0.32001 -0.63999,0.31998 -0.80001,0.32 -0.63999,0.16001 -0.64001,0.16 h -0.63999 l -0.64001,0.16 h -0.48001 -0.47998 -0.48001 l -0.47999,-0.16 -0.48001,-0.16 -0.48001,-0.16001 -0.32,-0.16 -0.47999,-0.16 -0.32,-0.15998 -0.32001,-0.16 -0.31998,-0.32001 -0.48001,-0.32 -0.32,-0.16001 -0.32001,-0.31998 -0.31998,-0.32 L 356.16,444 l -0.32,-0.32001 -0.32001,-0.16 -0.31998,-0.31998 -0.48001,-0.32001 -0.32001,-0.32 -0.32,-0.32001 -0.31998,-0.16 -0.48001,-0.31998 -0.32001,-0.16 -0.47998,-0.32001 -0.32001,-0.16 -0.32,-0.16001 -0.32001,-0.16 -0.47998,-0.15998 -0.32001,-0.16 h -0.32001 -0.32 -0.31998 -0.32001 -0.32 l -0.32001,0.16 -0.15998,0.15998 -0.32,0.32001 -0.16001,0.16 -0.16,0.32001 -0.16,0.32 -0.16001,0.47998 -0.16,0.48001 v 0.47999 l -0.16,0.48001 v 0.48001 0.47998 l -0.15998,0.64001 0.15998,0.63999 v 0.64001 0.48001 l 0.16,0.63999 v 0.64001 l 0.16,0.63999 0.16001,0.80001 0.16,0.63999 0.16,0.64001 0.16001,0.63999 0.32,0.48001 0.15998,0.63998 0.32001,0.64002 0.32,0.63998 0.32001,0.48001 0.31998,0.63999 0.32,0.48001 0.48001,0.64001 0.32001,0.47998 0.47998,0.48001 0.48001,0.63999 0.48001,0.48001 0.47999,0.48001 0.48001,0.47998 0.63998,0.48001 0.48001,0.48001 0.63999,0.47998 L 356,461.28 l 0.64001,0.48001 0.63999,0.47998 0.64001,0.48001 0.63999,0.32001 0.79999,0.47998 0.80001,0.32001 0.63999,0.48001 0.80002,0.32 0.95999,0.47999 0.79999,0.32 0.96002,0.32001 0.95999,0.47998 0.95999,0.48001 0.96002,0.32001 0.95999,0.47998 1.12,0.32001 1.11999,0.48001 1.12,0.47998 1.28,0.48001 1.28,0.48001 1.28,0.47998 1.28002,0.48001 1.43998,0.48001 1.44,0.63999 1.44,0.48001 1.60001,0.63998 1.44,0.48001 1.60001,0.63999 1.6,0.64001 1.59998,0.63999 L 390.56,476 l 1.6,0.79999 1.76001,0.64001 1.59998,0.63999 1.76001,0.80001 1.6,0.63999 1.76001,0.80002 1.75998,0.63998 1.60001,0.80002 1.76001,0.79999 1.59998,0.79999 1.76001,0.80001 1.6,0.79999 1.60001,0.80002 1.6,0.79999 1.59998,0.79999 1.44,0.80001 1.60001,0.96 1.44,0.80001 1.44,0.79999 1.60001,0.95999 1.28,0.96002 1.44,0.79999 1.44,0.95999 1.28,0.96 1.44,0.96002 1.28,0.95999 1.28,0.95999 1.28,0.96002 1.28,0.95999 1.11999,0.96 1.12,1.11999 1.28,0.96002 1.11999,1.12 0.96002,1.11999 1.12,0.95999 0.95999,1.12 1.12,1.12002 0.95999,1.12 0.80002,1.11999 0.95999,1.27997 0.79999,1.12006 0.80001,1.11999 0.79999,1.27997 0.80002,1.28003 0.63998,1.12 0.64002,1.27996 0.63998,1.28003 0.64002,1.27997 0.47998,1.28003 0.48001,1.27997 0.48001,1.28003 0.31998,1.44 0.32,1.27997 0.32001,1.44 0.16,1.28003 0.32001,1.44 0.15998,1.44001 v 1.27996 l 0.16,1.44001 v 1.44 l -0.16,1.44 V 541.12 l -0.15998,1.44 -0.16,1.28003 -0.16001,1.44 -0.32,1.43994 -0.32001,1.44 -0.31998,1.44001 -0.32,1.28002 -0.48001,1.44001 -0.32001,1.44 -0.63999,1.27997 -0.48001,1.44 -0.63998,1.28003 -0.64002,1.44 -0.63998,1.27997 -0.80002,1.28003 -0.79999,1.27997 -0.95999,1.44 -0.96002,1.28003 -0.95999,1.27997 -1.12,1.28003 -1.28,1.27997 -1.27999,1.28002 -1.44001,1.12 -1.44,1.28003 -1.6,1.27997 -1.76001,1.28003 -1.75998,1.11999 -1.92002,1.27997 -2.07998,1.28003 -18.4,-20.64002 v 0 z"
       style="fill:#ffffff;fill-opacity:1;fill-rule:evenodd;stroke:none"
       transform="translate(0,2.666608)"
       clip-path="url(#clipPath30)" />
    <path
       id="path31"
       d="m 411.20001,558.88 1.59998,-1.59997 1.44,-1.44 1.28,-1.44001 1.12002,-1.44 1.12,-1.44 0.79999,-1.28003 0.79999,-1.27997 0.80001,-1.28003 0.48001,-1.11999 0.47999,-1.27997 0.48001,-1.12006 0.32,-1.11999 0.15998,-1.12 0.16,-1.11999 v -0.95996 -1.12006 -0.95996 l -0.16,-0.96002 -0.15998,-0.95996 -0.32,-0.96003 -0.16001,-0.79998 -0.32,-0.96002 -0.32001,-0.79999 -0.47998,-0.96003 -0.48001,-0.79998 -0.48001,-0.79999 -0.47999,-0.79999 -0.48001,-0.80005 -0.63998,-0.79999 L 417.12,526.56 416.48001,525.76001 415.84,525.12 l -0.79999,-0.79999 -0.80002,-0.64002 -0.79999,-0.79999 -0.79999,-0.64001 -0.96002,-0.64001 -0.79999,-0.79999 -0.95999,-0.64002 -0.96002,-0.63995 -1.11999,-0.64002 -0.96,-0.64001 -1.11999,-0.64001 -1.12,-0.47998 -1.12002,-0.64002 -1.12,-0.63995 L 401.12,515.20001 400,514.56 l -1.28,-0.64002 -1.28,-0.47998 -1.28,-0.64001 -1.28,-0.64002 -1.27999,-0.63998 -1.44001,-0.63999 -1.28,-0.64001 -1.44,-0.63998 -1.44,-0.64002 -1.44,-0.63998 -1.44,-0.80002 -1.44001,-0.63999 -1.44,-0.64001 -1.44,-0.79999 -1.59998,-0.64001 -1.44,-0.79999 -1.44,-0.79999 -1.60001,-0.80002 -1.44,-0.79998 -1.44,-0.80002 -1.60001,-0.79999 -1.44,-0.79999 -1.44,-0.80002 -1.43998,-0.79998 -1.6,-0.80002 -1.44001,-0.95999 -1.44,-0.79999 -1.28,-0.96002 -1.44,-0.79999 -1.44,-0.79999 -1.28,-0.96002 -1.28,-0.79999 -1.28,-0.95999 -1.28,-0.96002 -1.28,-0.79999 -1.27999,-0.95999 -1.12,-0.80002 -1.12002,-0.95999 -1.12,-0.95999 L 345.12,483.35999 344,482.56 l -0.95999,-0.95999 -1.12,-0.96 -0.96002,-0.96002 L 340.16,478.72 339.20001,477.76001 338.39999,476.79999 337.44,475.84 336.64001,474.88 335.84,473.92001 335.20001,472.95999 334.39999,472 333.76001,470.88 333.12,469.92001 332.64001,468.95999 332,467.84 l -0.48001,-0.96 -0.47998,-0.95999 -0.48001,-1.12002 -0.32001,-0.95999 -0.47998,-1.12 -0.32001,-0.95999 -0.32,-1.12 -0.16001,-0.96002 -0.31998,-1.11999 -0.16,-0.95999 -0.16,-1.12 v -0.96002 l -0.16001,-1.12 V 453.44 l 0.16001,-0.95999 v -1.12002 l 0.16,-0.96 0.16,-0.95999 0.15998,-1.11999 0.16,-0.96002 0.32001,-0.96 0.32001,-0.95999 0.32,-0.95999 0.31998,-0.96002 0.48001,-0.95999 0.48001,-0.95999 0.47998,-0.80002 0.48001,-0.95999 0.48001,-0.79999 0.47999,-0.96002 0.64001,-0.79999 0.63998,-0.79999 0.64002,-0.80002 0.63998,-0.79999 0.64002,-0.80001 0.63998,-0.79999 0.64002,-0.63999 0.79998,-0.80001 0.64002,-0.63999 0.79999,-0.64001 0.80001,-0.63999 0.63999,-0.64001 0.79999,-0.63999 0.96002,-0.48001 0.79999,-0.64001 0.80001,-0.47998 0.96,-0.64002 0.79998,-0.47998 0.96,-0.48001 0.96002,-0.48001 0.95999,-0.47998 0.95999,-0.48001 0.96002,-0.32001 1.12,-0.47998 0.95999,-0.32001 1.11999,-0.32 1.12,-0.48001 1.12002,-0.31998 1.12,-0.32001 1.11999,-0.32 1.28,-0.16001 1.12,-0.31998 1.28,-0.16 1.28,-0.16 h 1.11999 l 1.28,-0.16001 1.28,0.16001 h 1.28 l 1.28,0.16 1.44,0.16 1.28,0.31998 1.28,0.48001 1.28,0.32001 1.44,0.63998 1.28,0.64002 1.28,0.63998 2.24002,9.60001 -1.12,1.44 -1.28,1.28 -1.12002,1.28 -1.12,1.11999 -1.11999,0.96 -0.96,0.96002 -1.11999,0.95999 -0.96002,0.79999 -0.95999,0.64001 -0.96,0.63999 -0.95999,0.64001 -0.80001,0.64001 -0.96,0.31998 -0.80001,0.48001 -0.79999,0.32001 -0.63999,0.31998 -0.80001,0.32 -0.63999,0.16001 -0.64001,0.16 h -0.63999 l -0.64001,0.16 h -0.48001 -0.47998 -0.48001 l -0.47999,-0.16 -0.48001,-0.16 -0.48001,-0.16001 -0.32,-0.16 -0.47999,-0.16 -0.32,-0.15998 -0.32001,-0.16 -0.31998,-0.32001 -0.48001,-0.32 -0.32,-0.16001 -0.32001,-0.31998 -0.31998,-0.32 L 356.16,444 l -0.32,-0.32001 -0.32001,-0.16 -0.31998,-0.31998 -0.48001,-0.32001 -0.32001,-0.32 -0.32,-0.32001 -0.31998,-0.16 -0.48001,-0.31998 -0.32001,-0.16 -0.47998,-0.32001 -0.32001,-0.16 -0.32,-0.16001 -0.32001,-0.16 -0.47998,-0.15998 -0.32001,-0.16 h -0.32001 -0.32 -0.31998 -0.32001 -0.32 l -0.32001,0.16 -0.15998,0.15998 -0.32,0.32001 -0.16001,0.16 -0.16,0.32001 -0.16,0.32 -0.16001,0.47998 -0.16,0.48001 v 0.47999 l -0.16,0.48001 v 0.48001 0.47998 l -0.15998,0.64001 0.15998,0.63999 v 0.64001 0.48001 l 0.16,0.63999 v 0.64001 l 0.16,0.63999 0.16001,0.80001 0.16,0.63999 0.16,0.64001 0.16001,0.63999 0.32,0.48001 0.15998,0.63998 0.32001,0.64002 0.32,0.63998 0.32001,0.48001 0.31998,0.63999 0.32,0.48001 0.48001,0.64001 0.32001,0.47998 0.47998,0.48001 0.48001,0.63999 0.48001,0.48001 0.47999,0.48001 0.48001,0.47998 0.63998,0.48001 0.48001,0.48001 0.63999,0.47998 L 356,461.28 l 0.64001,0.48001 0.63999,0.47998 0.64001,0.48001 0.63999,0.32001 0.79999,0.47998 0.80001,0.32001 0.63999,0.48001 0.80002,0.32 0.95999,0.47999 0.79999,0.32 0.96002,0.32001 0.95999,0.47998 0.95999,0.48001 0.96002,0.32001 0.95999,0.47998 1.12,0.32001 1.11999,0.48001 1.12,0.47998 1.28,0.48001 1.28,0.48001 1.28,0.47998 1.28002,0.48001 1.43998,0.48001 1.44,0.63999 1.44,0.48001 1.60001,0.63998 1.44,0.48001 1.60001,0.63999 1.6,0.64001 1.59998,0.63999 L 390.56,476 l 1.6,0.79999 1.76001,0.64001 1.59998,0.63999 1.76001,0.80001 1.6,0.63999 1.76001,0.80002 1.75998,0.63998 1.60001,0.80002 1.76001,0.79999 1.59998,0.79999 1.76001,0.80001 1.6,0.79999 1.60001,0.80002 1.6,0.79999 1.59998,0.79999 1.44,0.80001 1.60001,0.96 1.44,0.80001 1.44,0.79999 1.60001,0.95999 1.28,0.96002 1.44,0.79999 1.44,0.95999 1.28,0.96 1.44,0.96002 1.28,0.95999 1.28,0.95999 1.28,0.96002 1.28,0.95999 1.11999,0.96 1.12,1.11999 1.28,0.96002 1.11999,1.12 0.96002,1.11999 1.12,0.95999 0.95999,1.12 1.12,1.12002 0.95999,1.12 0.80002,1.11999 0.95999,1.27997 0.79999,1.12006 0.80001,1.11999 0.79999,1.27997 0.80002,1.28003 0.63998,1.12 0.64002,1.27996 0.63998,1.28003 0.64002,1.27997 0.47998,1.28003 0.48001,1.27997 0.48001,1.28003 0.31998,1.44 0.32,1.27997 0.32001,1.44 0.16,1.28003 0.32001,1.44 0.15998,1.44001 v 1.27996 l 0.16,1.44001 v 1.44 l -0.16,1.44 V 541.12 l -0.15998,1.44 -0.16,1.28003 -0.16001,1.44 -0.32,1.43994 -0.32001,1.44 -0.31998,1.44001 -0.32,1.28002 -0.48001,1.44001 -0.32001,1.44 -0.63999,1.27997 -0.48001,1.44 -0.63998,1.28003 -0.64002,1.44 -0.63998,1.27997 -0.80002,1.28003 -0.79999,1.27997 -0.95999,1.44 -0.96002,1.28003 -0.95999,1.27997 -1.12,1.28003 -1.28,1.27997 -1.27999,1.28002 -1.44001,1.12 -1.44,1.28003 -1.6,1.27997 -1.76001,1.28003 -1.75998,1.11999 -1.92002,1.27997 -2.07998,1.28003 -18.4,-20.64002"
       style="fill:none;stroke:#000000;stroke-width:26.4;stroke-linecap:round;stroke-linejoin:round;stroke-miterlimit:10;stroke-dasharray:none;stroke-opacity:1"
       transform="translate(0,2.666608)"
       clip-path="url(#clipPath32)" />
    <path
       id="path33"
       d="m 0,0 -1.6,1.44 -2.88,3.04 -2.72,3.2 -2.24,3.36 -1.92,3.68 -1.76,3.68 -1.28,3.84 -0.96,4 -0.64,4.16 v 0.479999 L -16.16,32.32 v 4 l 0.32,4.16 0.64,4 1.12,4 1.44,4.159999 1.44,3.520001 0.64,1.119999 1.76,3.200001 2.88,4.479999 3.04,4.160004 3.36,3.519996 2.4,2.239998 0.8,0.800003 2.56,1.919998 3.84,2.560006 4.8,3.039993 5.6,3.360001 0.960001,0.639999 L 24,89.120003 29.440001,93.279999 33.119999,96 l 4,2.879997 0.799999,0.480004 L 40,100.8 l 1.279999,0.96 0.800003,0.8 1.119999,1.44 0.479999,1.6 v 1.6 l -0.479999,1.76 -0.959999,1.76 -0.800003,1.44"
       style="fill:none;stroke:#cc3131;stroke-width:11.2;stroke-linecap:round;stroke-linejoin:round;stroke-miterlimit:10;stroke-dasharray:none;stroke-opacity:1"
       transform="translate(361.60001,593.22661)"
       clip-path="url(#clipPath34)" />
    <path
       id="path35"
       d="m 0,0 -0.96,2.08 -1.44,3.2 -1.12,2.88 -0.8,2.88 -0.64,2.56 -0.48,2.4 -0.16,2.24 0.16,2.24 0.32,1.92 0.48,2.08 0.48,0.960001 L -4,26.08 l 0.8,1.76 1.28,2.24 1.76,2.24 2.24,2.080002 1.76,1.439998 0.8,0.64 2.4,1.760002 3.2,2.079998 3.84,2.720001 5.76,3.68 3.039999,1.919998 0.960001,0.64 2.56,1.920002 3.52,2.559997 3.359999,2.720002 3.36,3.2 1.119999,1.279999 0.480004,0.639999 L 40,63.68 l 2.560001,3.839997 2.239998,4.160003 2.080002,4.64 0.16,0.639999 0.32,0.959999 0.959999,2.720001 1.119999,4.480004 0.479999,4.159996 v 3.520004 l -0.16,1.439995 -0.16,0.800003 -0.479999,2.239998 L 48,99.839996 46.560001,102.56 l -1.920002,2.88 -2.079998,2.4 -0.479999,0.64 -1.920002,1.92 -4,4.16 -2.400002,2.4 -1.279998,1.28 -1.439999,1.28"
       style="fill:none;stroke:#cc3131;stroke-width:11.2;stroke-linecap:round;stroke-linejoin:round;stroke-miterlimit:10;stroke-dasharray:none;stroke-opacity:1"
       transform="translate(384.48001,608.74663)"
       clip-path="url(#clipPath36)" />
    <path
       id="path37"
       d="m 384.48001,606.08002 -0.96002,2.07995 -0.95999,2.08002 -0.79999,1.91998 -0.64001,1.76001 -0.63999,1.76001 -0.48001,1.60004 -0.32001,1.43994 -0.32,1.44 -0.15998,1.28003 -0.16,1.27997 v 1.12006 l -0.16001,1.11999 0.16001,0.95996 V 626.88 l 0.16,0.79999 0.15998,0.96002 0.16,0.64002 0.32001,0.79999 0.16,0.79998 0.32001,0.64002 0.16,0.63995 0.31998,0.64002 0.16,0.48004 0.32001,0.63995 0.16,0.48004 0.32001,0.63996 0.31998,0.48004 0.32,0.47998 0.32001,0.47998 0.32001,0.48004 0.47998,0.47998 0.32001,0.47998 0.48001,0.48004 0.47998,0.47998 0.48001,0.47998 0.48001,0.48005 0.63998,0.63995 0.64002,0.48004 0.63998,0.47998 0.64002,0.47998 0.79999,0.64002 0.80001,0.64001 0.79999,0.47998 0.79999,0.64002 0.96002,0.64001 0.95999,0.63996 0.95999,0.64001 0.96,0.64001 0.96002,0.64002 0.95999,0.63995 0.95999,0.64002 1.12,0.79999 0.96002,0.64001 1.11999,0.64001 0.95999,0.64002 0.96,0.63995 1.12002,0.64002 0.95999,0.64001 0.95999,0.64002 0.96,0.63995 0.96002,0.64001 L 409.12,656 l 0.95999,0.64001 0.80001,0.64002 0.79999,0.47998 0.80002,0.64001 0.79999,0.63996 0.79999,0.48004 0.80001,0.63995 0.79999,0.64002 0.64002,0.48004 0.79999,0.63995 0.64001,0.64002 0.63998,0.64001 0.64002,0.47998 0.63998,0.64002 0.64002,0.64001 0.63998,0.63996 0.64002,0.64001 0.63998,0.79999 0.48001,0.64001 0.63999,0.64002 L 424,669.12 l 0.48001,0.64001 0.47998,0.79999 0.64002,0.79998 0.47998,0.79999 0.48001,0.80005 0.48001,0.79999 0.47998,0.79999 0.48001,0.79998 0.48001,0.79999 0.47998,0.80005 0.32001,0.95996 0.48001,0.79999 0.31998,0.80005 0.48001,0.95996 0.32,0.80005 0.32001,0.95996 0.31998,0.79999 L 431.84,684 l 0.32,0.79999 0.32001,0.96002 0.31998,0.95996 0.16,0.80005 0.32001,0.95996 0.16,0.80005 0.32001,0.95996 0.16,0.79999 0.15998,0.96002 v 0.79999 l 0.16,0.96002 0.16,0.79999 v 0.79998 0.96003 l 0.16001,0.79999 -0.16001,0.79998 v 0.79999 0.80005 l -0.16,0.79999 -0.16,0.79999 -0.15998,0.64001 -0.16,0.79999 -0.16,0.79998 L 433.28,704 l -0.16,0.79999 -0.32001,0.64001 -0.31998,0.64002 -0.32001,0.63995 -0.32,0.80005 -0.48001,0.63995 -0.31998,0.64002 -0.48001,0.64001 -0.48001,0.64002 -0.47998,0.63995 -0.48001,0.64001 -0.47999,0.64002 -0.48001,0.64001 -0.48001,0.64002 -0.63998,0.63995 -0.48001,0.64002 -0.63999,0.64001 -0.64001,0.64002 -0.63999,0.63995 -0.48001,0.80005 -0.64001,0.47998 -0.63999,0.64001 -0.64001,0.63996 -0.63998,0.64001 -0.64002,0.64002 -0.47998,0.64001 -0.64001,0.47998 -0.63999,0.64002 -0.48001,0.63995 -0.64001,0.48004 -0.47998,0.47998 -0.64002,0.47998 -0.47998,0.64002 -0.48001,0.48004 -0.48001,0.31995 -12.47998,-22.88001 0.63998,-1.11999 0.64002,-1.12 0.47998,-0.95996 0.16,-0.96002 0.32001,-0.79999 v -0.79999 -0.80005 l -0.16,-0.63995 -0.16001,-0.64002 -0.31998,-0.47998 -0.32,-0.64001 -0.48001,-0.47998 -0.48001,-0.48004 -0.47999,-0.47998 -0.64001,-0.47998 -0.63998,-0.48005 -0.64002,-0.47998 -0.79999,-0.47998 -0.64001,-0.48004 -0.79999,-0.47998 -0.79999,-0.47998 -0.80001,-0.64001 -0.79999,-0.47998 -0.64002,-0.64002 L 394.88,686.56 394.07999,686.08002 393.28,685.44 l -0.95999,-0.64001 -0.80002,-0.64002 -0.79999,-0.63995 -0.79999,-0.64002 -0.80001,-0.64001 -0.96,-0.64001 -0.80001,-0.63996 -0.96,-0.64001 -0.79998,-0.64002 -0.80002,-0.64001 -0.95999,-0.63996 -0.79999,-0.64001 L 382.07999,677.12 381.28,676.64001 380.32001,676 379.35999,675.52002 378.56,674.88 l -0.95999,-0.47998 -0.80002,-0.64001 -0.95999,-0.47998 -0.96,-0.48004 -0.80001,-0.64002 -0.95999,-0.47998 -0.79999,-0.64001 L 371.35999,670.56 370.56,669.91998 369.60001,669.44 368.79999,668.79999 367.84,668.15997 367.04001,667.52002 366.23999,666.88 365.28,666.23999 364.48001,665.44 363.67999,664.79999 362.88,664 l -0.80001,-0.79999 -0.79999,-0.79999 -0.79999,-0.80004 -0.80002,-0.95997 L 358.88,659.84003 358.23999,658.88 357.44,657.91998 356.79999,657.12 356,656.15997 355.35999,655.03998 354.72,654.08002 354.07999,653.12 353.44,652 l -0.64001,-0.96002 -0.63999,-1.12 -0.64001,-1.11999 -0.47998,-0.95996 -0.64002,-1.12006 -0.47998,-1.11999 -0.48001,-1.12 -0.48001,-1.12 -0.47998,-1.27996 -0.48001,-1.12 -0.32001,-1.11999 -0.32,-1.28003 -0.47999,-1.12 -0.16,-1.28003 -0.32001,-1.27997 -0.32,-1.28002 -0.15998,-1.27997 -0.16,-1.28003 -0.16,-1.27997 -0.16001,-1.28003 v -1.44 -1.44 -1.27997 -1.44001 l 0.16001,-1.44 0.16,-1.59997 0.16,-1.44001 0.31998,-1.44 0.32001,-1.60004 0.32,-1.59997 0.47999,-1.60004 0.48001,-1.44 0.64001,-1.59997 0.63999,-1.59998 0.64001,-1.60004 0.79999,-1.59997 0.95999,-1.60004 0.96002,-1.59997 0.95999,-1.44001 1.12,-1.59997 1.28,-1.60004 1.28,-1.44 1.44,-1.59998 1.44,-1.44 1.60001,-1.44 22.88,15.52002 v 0 z"
       style="fill:#ffffff;fill-opacity:1;fill-rule:evenodd;stroke:none"
       transform="translate(0,2.666608)"
       clip-path="url(#clipPath38)" />
    <path
       id="path39"
       d="m 384.48001,606.08002 -0.96002,2.07995 -0.95999,2.08002 -0.79999,1.91998 -0.64001,1.76001 -0.63999,1.76001 -0.48001,1.60004 -0.32001,1.43994 -0.32,1.44 -0.15998,1.28003 -0.16,1.27997 v 1.12006 l -0.16001,1.11999 0.16001,0.95996 V 626.88 l 0.16,0.79999 0.15998,0.96002 0.16,0.64002 0.32001,0.79999 0.16,0.79998 0.32001,0.64002 0.16,0.63995 0.31998,0.64002 0.16,0.48004 0.32001,0.63995 0.16,0.48004 0.32001,0.63996 0.31998,0.48004 0.32,0.47998 0.32001,0.47998 0.32001,0.48004 0.47998,0.47998 0.32001,0.47998 0.48001,0.48004 0.47998,0.47998 0.48001,0.47998 0.48001,0.48005 0.63998,0.63995 0.64002,0.48004 0.63998,0.47998 0.64002,0.47998 0.79999,0.64002 0.80001,0.64001 0.79999,0.47998 0.79999,0.64002 0.96002,0.64001 0.95999,0.63996 0.95999,0.64001 0.96,0.64001 0.96002,0.64002 0.95999,0.63995 0.95999,0.64002 1.12,0.79999 0.96002,0.64001 1.11999,0.64001 0.95999,0.64002 0.96,0.63995 1.12002,0.64002 0.95999,0.64001 0.95999,0.64002 0.96,0.63995 0.96002,0.64001 L 409.12,656 l 0.95999,0.64001 0.80001,0.64002 0.79999,0.47998 0.80002,0.64001 0.79999,0.63996 0.79999,0.48004 0.80001,0.63995 0.79999,0.64002 0.64002,0.48004 0.79999,0.63995 0.64001,0.64002 0.63998,0.64001 0.64002,0.47998 0.63998,0.64002 0.64002,0.64001 0.63998,0.63996 0.64002,0.64001 0.63998,0.79999 0.48001,0.64001 0.63999,0.64002 L 424,669.12 l 0.48001,0.64001 0.47998,0.79999 0.64002,0.79998 0.47998,0.79999 0.48001,0.80005 0.48001,0.79999 0.47998,0.79999 0.48001,0.79998 0.48001,0.79999 0.47998,0.80005 0.32001,0.95996 0.48001,0.79999 0.31998,0.80005 0.48001,0.95996 0.32,0.80005 0.32001,0.95996 0.31998,0.79999 L 431.84,684 l 0.32,0.79999 0.32001,0.96002 0.31998,0.95996 0.16,0.80005 0.32001,0.95996 0.16,0.80005 0.32001,0.95996 0.16,0.79999 0.15998,0.96002 v 0.79999 l 0.16,0.96002 0.16,0.79999 v 0.79998 0.96003 l 0.16001,0.79999 -0.16001,0.79998 v 0.79999 0.80005 l -0.16,0.79999 -0.16,0.79999 -0.15998,0.64001 -0.16,0.79999 -0.16,0.79998 L 433.28,704 l -0.16,0.79999 -0.32001,0.64001 -0.31998,0.64002 -0.32001,0.63995 -0.32,0.80005 -0.48001,0.63995 -0.31998,0.64002 -0.48001,0.64001 -0.48001,0.64002 -0.47998,0.63995 -0.48001,0.64001 -0.47999,0.64002 -0.48001,0.64001 -0.48001,0.64002 -0.63998,0.63995 -0.48001,0.64002 -0.63999,0.64001 -0.64001,0.64002 -0.63999,0.63995 -0.48001,0.80005 -0.64001,0.47998 -0.63999,0.64001 -0.64001,0.63996 -0.63998,0.64001 -0.64002,0.64002 -0.47998,0.64001 -0.64001,0.47998 -0.63999,0.64002 -0.48001,0.63995 -0.64001,0.48004 -0.47998,0.47998 -0.64002,0.47998 -0.47998,0.64002 -0.48001,0.48004 -0.48001,0.31995 -12.47998,-22.88001 0.63998,-1.11999 0.64002,-1.12 0.47998,-0.95996 0.16,-0.96002 0.32001,-0.79999 v -0.79999 -0.80005 l -0.16,-0.63995 -0.16001,-0.64002 -0.31998,-0.47998 -0.32,-0.64001 -0.48001,-0.47998 -0.48001,-0.48004 -0.47999,-0.47998 -0.64001,-0.47998 -0.63998,-0.48005 -0.64002,-0.47998 -0.79999,-0.47998 -0.64001,-0.48004 -0.79999,-0.47998 -0.79999,-0.47998 -0.80001,-0.64001 -0.79999,-0.47998 -0.64002,-0.64002 L 394.88,686.56 394.07999,686.08002 393.28,685.44 l -0.95999,-0.64001 -0.80002,-0.64002 -0.79999,-0.63995 -0.79999,-0.64002 -0.80001,-0.64001 -0.96,-0.64001 -0.80001,-0.63996 -0.96,-0.64001 -0.79998,-0.64002 -0.80002,-0.64001 -0.95999,-0.63996 -0.79999,-0.64001 L 382.07999,677.12 381.28,676.64001 380.32001,676 379.35999,675.52002 378.56,674.88 l -0.95999,-0.47998 -0.80002,-0.64001 -0.95999,-0.47998 -0.96,-0.48004 -0.80001,-0.64002 -0.95999,-0.47998 -0.79999,-0.64001 L 371.35999,670.56 370.56,669.91998 369.60001,669.44 368.79999,668.79999 367.84,668.15997 367.04001,667.52002 366.23999,666.88 365.28,666.23999 364.48001,665.44 363.67999,664.79999 362.88,664 l -0.80001,-0.79999 -0.79999,-0.79999 -0.79999,-0.80004 -0.80002,-0.95997 L 358.88,659.84003 358.23999,658.88 357.44,657.91998 356.79999,657.12 356,656.15997 355.35999,655.03998 354.72,654.08002 354.07999,653.12 353.44,652 l -0.64001,-0.96002 -0.63999,-1.12 -0.64001,-1.11999 -0.47998,-0.95996 -0.64002,-1.12006 -0.47998,-1.11999 -0.48001,-1.12 -0.48001,-1.12 -0.47998,-1.27996 -0.48001,-1.12 -0.32001,-1.11999 -0.32,-1.28003 -0.47999,-1.12 -0.16,-1.28003 -0.32001,-1.27997 -0.32,-1.28002 -0.15998,-1.27997 -0.16,-1.28003 -0.16,-1.27997 -0.16001,-1.28003 v -1.44 -1.44 -1.27997 -1.44001 l 0.16001,-1.44 0.16,-1.59997 0.16,-1.44001 0.31998,-1.44 0.32001,-1.60004 0.32,-1.59997 0.47999,-1.60004 0.48001,-1.44 0.64001,-1.59997 0.63999,-1.59998 0.64001,-1.60004 0.79999,-1.59997 0.95999,-1.60004 0.96002,-1.59997 0.95999,-1.44001 1.12,-1.59997 1.28,-1.60004 1.28,-1.44 1.44,-1.59998 1.44,-1.44 1.60001,-1.44 22.88,15.52002"
       style="fill:none;stroke:#000000;stroke-width:26.4;stroke-linecap:round;stroke-linejoin:round;stroke-miterlimit:10;stroke-dasharray:none;stroke-opacity:1"
       transform="translate(0,2.666608)"
       clip-path="url(#clipPath40)" />
    <path
       id="path41"
       d="m 0,0 -1.12,1.76 -1.92,3.04 -1.6,2.88 -1.28,2.72 -1.12,2.88 -0.64,2.56 -0.64,2.719999 -0.16,2.560002 V 24 24.799999 L -8.32,25.6 l 0.16,2.56 0.8,3.52 1.12,3.200001 1.44,2.719997 1.6,2.240002 0.64,0.64 1.6,1.760002 2.72,2.239998 1.28,0.959999 2.24,1.440002 1.6,0.639999 0.8,0.32 H 8 l 0.48,-0.16 0.16,-0.319999 v -0.64 L 8.16,45.599998 7.68,44.16 6.88,42.720001 6.72,42.240002 6.24,40.959999 5.6,38.880001 4.96,37.119999 4.48,33.599998 v -0.479999 l -0.16,-0.48 v -1.76 L 4.48,29.6 4.8,27.040001 5.6,24.48 6.56,21.92 7.68,19.040001 8.96,16 10.4,13.28"
       style="fill:none;stroke:#000000;stroke-width:11.2;stroke-linecap:round;stroke-linejoin:round;stroke-miterlimit:10;stroke-dasharray:none;stroke-opacity:1"
       transform="translate(373.44,733.54661)"
       clip-path="url(#clipPath42)" />
    <path
       id="path43"
       d="m 0,0 2.4,-0.96 3.52,-0.96 3.2,-0.8 3.2,-0.64 2.88,-0.16 2.88,-0.16 2.719999,0.32 2.560002,0.48 2.719999,0.64 2.719999,1.12 0.960001,0.32 0.959999,0.48 2.56,1.12 3.84,2.08 L 40.32,4.8 43.040001,6.72 44,7.68 l 0.48,0.48 1.279998,1.44 1.440003,2.08 0.959999,2.4 0.639999,2.719999 0.48,2.720001 v 0.8 l 0.16,2.559999 -0.16,3.68 -0.48,4 L 48,34.720001 l -1.119999,4.48 -0.16,0.319999 -0.319999,1.119999 L 44.959999,44.16 44.16,46.080002 42.240002,49.279999 40,52.32 37.599998,55.360001 35.040001,58.240002 32,61.279999 28.799999,64.32 l -3.519998,3.040001 -2.400002,1.919998"
       style="fill:none;stroke:#cc3131;stroke-width:11.2;stroke-linecap:round;stroke-linejoin:round;stroke-miterlimit:10;stroke-dasharray:none;stroke-opacity:1"
       transform="translate(414.07999,425.70662)"
       clip-path="url(#clipPath44)" />
    <path
       id="path45"
       d="M 0,0 1.12,0.96 3.2,2.88 5.28,4.64 7.2,6.08 8.96,7.2 l 1.6,1.12 1.6,0.8 1.76,0.48 h 0.48 l 1.44,0.16 h 2.24 L 20.48,9.12 22.879999,8.16 24,7.52 24.48,7.36 26.08,6.24 29.6,4 30.879999,3.36 32.32,2.88 l 0.639999,-0.16 0.16,0.16 0.32,0.48 0.159999,0.8 V 5.28 L 33.119999,6.88 32.48,8.8 l -0.96,2.56 -0.159999,0.16 -0.32,0.64 L 29.92,14.24 27.84,17.76 25.280001,21.280001 22.4,24.799999 21.440001,25.76 l -0.640002,0.64 -2.24,2.239999 L 17.120001,30.08 14.08,32.48 11.2,34.880001 8,37.279999 4.8,39.68 1.28,42.240002 -2.4,44.799999 -3.68,45.759998"
       style="fill:none;stroke:#cc3131;stroke-width:11.2;stroke-linecap:round;stroke-linejoin:round;stroke-miterlimit:10;stroke-dasharray:none;stroke-opacity:1"
       transform="translate(412.64001,436.7466)"
       clip-path="url(#clipPath46)" />
    <path
       id="path47"
       d="M 0,0 2.4,-2.08 4.8,-4 6.88,-5.92 8.8,-7.68 l 1.76,-1.76 1.6,-1.76 1.6,-1.6 1.28,-1.44 1.28,-1.6 1.120001,-1.440001 L 18.4,-18.559999 19.360001,-20 20.16,-21.280001 20.799999,-22.559999 21.440001,-23.84 22.08,-25.120001 22.559999,-26.24 23.040001,-27.360001 23.52,-28.639999 23.84,-29.76 24.16,-30.879999 24.639999,-32 l 0.16,-1.119999 0.320002,-1.120003 0.32,-1.119999 L 25.6,-36.48 l 0.16,-0.959999 0.16,-1.120002 0.16,-1.119999 0.16,-0.959999 0.16,-0.959999 V -42.560001 -43.68 l 0.159999,-0.8 v -0.959999 -0.960003 -0.959999 L 26.4,-48.16 v -0.799999 -0.799999 l -0.16,-0.800003 v -0.8 L 26.08,-52 l -0.16,-0.799999 -0.16,-0.64 -0.16,-0.640003 -0.159999,-0.639999 -0.16,-0.64 L 24.959999,-56 l -0.16,-0.48 -0.319999,-0.639999 -0.32,-0.479999 -0.16,-0.640004 -0.32,-0.479999 -0.479999,-0.48 -0.320002,-0.479999 -0.32,-0.48 -0.479999,-0.479999 -0.48,-0.48 -0.479999,-0.479999 -0.480002,-0.480004 -0.479999,-0.479999 -0.48,-0.32 -0.639999,-0.48 L 18.4,-63.84 17.92,-64.32 17.280001,-64.639999 16.48,-65.120003 l -0.64,-0.479995 -0.64,-0.32 -0.8,-0.480004 -0.8,-0.319999 -0.64,-0.479996 -0.8,-0.480003 -0.8,-0.32 -0.96,-0.480003 -0.8,-0.32 -0.96,-0.479996 -0.8,-0.319999 -0.96,-0.480004 -0.96,-0.32 -0.96,-0.479995 -0.96,-0.32 -0.96,-0.32 -1.12,-0.319999 -1.12,-0.320008 -1.12,-0.319999 -1.28,-0.159996 -1.28,-0.160004 -1.28,-0.159996 H -5.6 -7.2 l -1.6,0.159996 -1.6,0.160004 -1.76,0.319999 -1.92,0.32 -2.08,0.480003 -2.08,0.64 -2.24,0.639999 -2.399999,0.959999 -1.440001,11.039997 1.119999,0.960003 0.960001,0.799999 0.959999,0.96 0.960001,0.799999 0.8,0.639999 0.800001,0.640003 0.799999,0.64 0.799999,0.639999 0.640001,0.48 0.64,0.479999 0.64,0.32 0.64,0.479999 0.48,0.32 0.64,0.320004 0.48,0.16 0.64,0.319999 0.48,0.16 0.48,0.16 0.48,0.16 0.48,0.16 h 0.48 L -9.44,-48.48 h 0.48 0.48 l 0.48,0.16 0.48,-0.16 h 0.48 0.64 0.48 l 0.48,-0.159999 0.48,-0.16 0.48,-0.16 H -4 l 0.48,-0.32 0.48,-0.16 0.64,-0.159999 0.48,-0.32 0.48,-0.160004 0.48,-0.32 0.64,-0.319999 0.48,-0.16 0.64,-0.32 L 1.28,-51.52 1.76,-52 l 0.64,-0.32 0.48,-0.319999 0.48,-0.32 0.64,-0.32 0.48,-0.319999 0.48,-0.32 0.48,-0.320004 0.48,-0.319999 0.32,-0.16 0.48,-0.16 0.32,-0.32 h 0.48 l 0.32,-0.16 L 8.16,-55.52 h 0.16 0.32 l 0.16,0.159999 0.16,0.16 0.16,0.16 0.16,0.16 v 0.32 0.319999 0.320004 0.479999 0.32 l -0.16,0.48 V -52.16 l -0.16,0.64 -0.16,0.479999 -0.16,0.639999 -0.32,0.480004 -0.16,0.639999 -0.32,0.64 L 7.68,-48 l -0.32,0.639999 -0.32,0.64 -0.32,0.639999 -0.32,0.640003 -0.32,0.8 L 5.6,-44 l -0.32,0.639999 -0.48,0.8 -0.32,0.640003 L 4,-41.119999 3.52,-40.48 l -0.48,0.64 -0.48,0.799999 -0.48,0.639999 -0.64,0.800004 -0.48,0.799999 -0.64,0.639999 -0.64,0.799999 -0.48,0.64 -0.64,0.800003 -0.64,0.639999 -0.8,0.799999 -0.64,0.64 -0.64,0.799999 -0.8,0.800001 -0.8,0.64 -0.8,0.800001 L -7.52,-28 -8.48,-27.200001 -9.44,-26.4 l -0.96,0.959999 -1.12,0.960001 -1.28,0.96 -1.28,0.960001 -1.44,0.959999 -1.439999,1.12 -1.6,1.119999 L -20.16,-18.08 l -1.76,1.280001 -1.92,1.279999 -2.08,1.44 -2.08,1.6 L 0,0 v 0 z"
       style="fill:#ffffff;fill-opacity:1;fill-rule:evenodd;stroke:none"
       transform="translate(436.95999,494.98662)"
       clip-path="url(#clipPath48)" />
    <path
       id="path49"
       d="M 0,0 2.4,-2.08 4.8,-4 6.88,-5.92 8.8,-7.68 l 1.76,-1.76 1.6,-1.76 1.6,-1.6 1.28,-1.44 1.28,-1.6 1.120001,-1.440001 L 18.4,-18.559999 19.360001,-20 20.16,-21.280001 20.799999,-22.559999 21.440001,-23.84 22.08,-25.120001 22.559999,-26.24 23.040001,-27.360001 23.52,-28.639999 23.84,-29.76 24.16,-30.879999 24.639999,-32 l 0.16,-1.119999 0.320002,-1.120003 0.32,-1.119999 L 25.6,-36.48 l 0.16,-0.959999 0.16,-1.120002 0.16,-1.119999 0.16,-0.959999 0.16,-0.959999 V -42.560001 -43.68 l 0.159999,-0.8 v -0.959999 -0.960003 -0.959999 L 26.4,-48.16 v -0.799999 -0.799999 l -0.16,-0.800003 v -0.8 L 26.08,-52 l -0.16,-0.799999 -0.16,-0.64 -0.16,-0.640003 -0.159999,-0.639999 -0.16,-0.64 L 24.959999,-56 l -0.16,-0.48 -0.319999,-0.639999 -0.32,-0.479999 -0.16,-0.640004 -0.32,-0.479999 -0.479999,-0.48 -0.320002,-0.479999 -0.32,-0.48 -0.479999,-0.479999 -0.48,-0.48 -0.479999,-0.479999 -0.480002,-0.480004 -0.479999,-0.479999 -0.48,-0.32 -0.639999,-0.48 L 18.4,-63.84 17.92,-64.32 17.280001,-64.639999 16.48,-65.120003 l -0.64,-0.479995 -0.64,-0.32 -0.8,-0.480004 -0.8,-0.319999 -0.64,-0.479996 -0.8,-0.480003 -0.8,-0.32 -0.96,-0.480003 -0.8,-0.32 -0.96,-0.479996 -0.8,-0.319999 -0.96,-0.480004 -0.96,-0.32 -0.96,-0.479995 -0.96,-0.32 -0.96,-0.32 -1.12,-0.319999 -1.12,-0.320008 -1.12,-0.319999 -1.28,-0.159996 -1.28,-0.160004 -1.28,-0.159996 H -5.6 -7.2 l -1.6,0.159996 -1.6,0.160004 -1.76,0.319999 -1.92,0.32 -2.08,0.480003 -2.08,0.64 -2.24,0.639999 -2.399999,0.959999 -1.440001,11.039997 1.119999,0.960003 0.960001,0.799999 0.959999,0.96 0.960001,0.799999 0.8,0.639999 0.800001,0.640003 0.799999,0.64 0.799999,0.639999 0.640001,0.48 0.64,0.479999 0.64,0.32 0.64,0.479999 0.48,0.32 0.64,0.320004 0.48,0.16 0.64,0.319999 0.48,0.16 0.48,0.16 0.48,0.16 0.48,0.16 h 0.48 L -9.44,-48.48 h 0.48 0.48 l 0.48,0.16 0.48,-0.16 h 0.48 0.64 0.48 l 0.48,-0.159999 0.48,-0.16 0.48,-0.16 H -4 l 0.48,-0.32 0.48,-0.16 0.64,-0.159999 0.48,-0.32 0.48,-0.160004 0.48,-0.32 0.64,-0.319999 0.48,-0.16 0.64,-0.32 L 1.28,-51.52 1.76,-52 l 0.64,-0.32 0.48,-0.319999 0.48,-0.32 0.64,-0.32 0.48,-0.319999 0.48,-0.32 0.48,-0.320004 0.48,-0.319999 0.32,-0.16 0.48,-0.16 0.32,-0.32 h 0.48 l 0.32,-0.16 L 8.16,-55.52 h 0.16 0.32 l 0.16,0.159999 0.16,0.16 0.16,0.16 0.16,0.16 v 0.32 0.319999 0.320004 0.479999 0.32 l -0.16,0.48 V -52.16 l -0.16,0.64 -0.16,0.479999 -0.16,0.639999 -0.32,0.480004 -0.16,0.639999 -0.32,0.64 L 7.68,-48 l -0.32,0.639999 -0.32,0.64 -0.32,0.639999 -0.32,0.640003 -0.32,0.8 L 5.6,-44 l -0.32,0.639999 -0.48,0.8 -0.32,0.640003 L 4,-41.119999 3.52,-40.48 l -0.48,0.64 -0.48,0.799999 -0.48,0.639999 -0.64,0.800004 -0.48,0.799999 -0.64,0.639999 -0.64,0.799999 -0.48,0.64 -0.64,0.800003 -0.64,0.639999 -0.8,0.799999 -0.64,0.64 -0.64,0.799999 -0.8,0.800001 -0.8,0.64 -0.8,0.800001 L -7.52,-28 -8.48,-27.200001 -9.44,-26.4 l -0.96,0.959999 -1.12,0.960001 -1.28,0.96 -1.28,0.960001 -1.44,0.959999 -1.439999,1.12 -1.6,1.119999 L -20.16,-18.08 l -1.76,1.280001 -1.92,1.279999 -2.08,1.44 -2.08,1.6 L 0,0"
       style="fill:none;stroke:#000000;stroke-width:26.4;stroke-linecap:round;stroke-linejoin:round;stroke-miterlimit:10;stroke-dasharray:none;stroke-opacity:1"
       transform="translate(436.95999,494.98662)"
       clip-path="url(#clipPath50)" />
    <path
       id="path51"
       d="m 0,0 -1.44,1.6 -2.72,3.68 -2.4,3.68 -2.08,3.68 -1.76,3.84 -1.44,4 -1.12,4.159999 -0.96,4.16 -0.32,2.08 -0.16,1.440001 -0.32,3.84 -0.16,4.479999 0.16,4.64 0.32,4.639999 0.64,4.480004 0.16,1.119998 0.48,2.880002 1.12,5.279998 1.44,4.480004 1.76,3.679992 0.16,0.480004 0.48,0.800003 1.44,2.239998 2.56,2.879997 2.88,3.200004 3.68,3.360001 1.92,1.439995 0.8,0.800003 2.4,1.919998 6.24,4.639999 3.039999,1.919999 4.320002,2.560005 0.799999,0.479996 2.56,1.120002 4,1.76 4.479999,1.6 3.84,1.6 0.64,0.32 1.920002,0.96 3.52,2.08 3.68,2.4 1.919999,1.28 0.479999,0.32 1.600002,0.96 1.919999,1.44 1.439998,1.12 0.960003,0.96 1.599999,2.08 0.479999,0.96 0.16,0.64 0.639999,2.08 0.320004,2.56 -0.160004,2.4 -0.479999,2.72 L 56.48,132.8 55.360001,135.67999 53.919998,138.88 52.48,141.75999"
       style="fill:none;stroke:#cc3131;stroke-width:11.2;stroke-linecap:round;stroke-linejoin:round;stroke-miterlimit:10;stroke-dasharray:none;stroke-opacity:1"
       transform="translate(355.04001,500.26661)"
       clip-path="url(#clipPath52)" />
    <path
       id="path53"
       d="m 0,0 -1.44,1.12 -2.24,1.92 -1.76,1.92 -1.6,2.08 -1.28,1.92 -0.96,2.24 -0.8,2.08 -0.32,2.56 -0.32,2.719999 v 0.800002 L -10.88,21.6 v 4.64 l 0.48,4.16 0.64,2.559999 0.16,0.639999 0.8,1.920002 1.6,2.880002 1.92,2.559997 2.24,2.400002 2.24,1.919998 0.8,0.479999 2.4,1.600003 3.52,2.079998 L 10.24,51.52 15.36,54.080002 18.719999,55.52 19.84,56.16 23.200001,57.599998 28.16,60.16 l 4.16,2.240002 7.040001,4.159996 1.279998,0.959999 1.119999,0.640007 3.040001,2.399994 4.48,3.840004 3.68,3.68 2.880001,3.519996 1.919998,2.880005 0.480004,0.959999 L 59.52,88.32 l 1.119999,3.36 0.64,3.680001 0.479999,4 v 4.319999 3.52 1.44 l -0.319999,4.64 -0.32,2.24 -0.799999,4 -1.279999,3.84 -1.440003,3.68 -1.919998,3.52 -2.400001,3.52 -2.559998,3.52001 -2.880001,3.51998 -3.36,3.36001 -3.200001,3.19999"
       style="fill:none;stroke:#cc3131;stroke-width:11.2;stroke-linecap:round;stroke-linejoin:round;stroke-miterlimit:10;stroke-dasharray:none;stroke-opacity:1"
       transform="translate(383.84,517.22661)"
       clip-path="url(#clipPath54)" />
    <path
       id="path55"
       d="m 383.84,514.56 -1.44001,1.11999 -1.27999,0.96002 -1.12,1.12 -0.95999,0.95996 -0.96002,1.12006 -0.79999,0.95996 -0.63999,0.96002 -0.64001,0.95996 -0.48001,0.96002 -0.47998,0.96002 -0.48001,0.79999 -0.32001,0.96002 -0.16,0.79999 -0.31998,0.95996 -0.16,0.80005 -0.16001,0.95996 -0.16,0.79999 v 0.80005 l -0.16,0.79999 v 0.79999 0.79998 l -0.16001,0.79999 v 0.64001 0.79999 0.80005 0.79999 0.64001 0.79999 0.64002 0.79998 0.64002 l 0.16001,0.79999 v 0.63995 l 0.16,0.64001 v 0.79999 l 0.16,0.64002 0.16001,0.64001 0.16,0.64002 0.16,0.79998 0.15998,0.64002 0.16,0.63995 0.32001,0.64002 0.32,0.64001 0.16001,0.64002 0.31998,0.63995 0.32,0.64001 L 376,552 l 0.48001,0.64001 0.31998,0.64002 0.48001,0.63995 0.48001,0.64002 0.47998,0.64001 0.48001,0.47998 0.48001,0.64002 0.63999,0.64001 0.48001,0.63996 0.63998,0.48004 0.64002,0.63995 0.79998,0.48004 0.64002,0.64002 0.79999,0.47998 0.80001,0.64001 0.79999,0.47998 0.79999,0.47998 0.96002,0.64002 0.79999,0.47998 0.95999,0.48004 0.96002,0.47998 0.95999,0.47998 0.96,0.64002 1.11999,0.47998 0.96002,0.48004 0.95999,0.47998 1.12,0.47998 1.12,0.48004 0.95999,0.63995 1.12002,0.48004 1.12,0.47999 1.11999,0.47998 1.12,0.48004 1.11999,0.63995 1.12,0.48004 1.12002,0.47998 1.12,0.47998 1.11999,0.64002 1.12,0.48004 1.11999,0.63995 1.12,0.48004 0.96002,0.63996 1.12,0.48004 1.11999,0.63995 1.12,0.64002 1.11999,0.64001 1.12,0.64002 1.12002,0.63995 1.12,0.64001 L 421.28,580 l 1.11999,0.64001 1.12,0.64002 0.96002,0.79999 1.12,0.63995 0.95999,0.80005 1.11999,0.79999 0.96002,0.79999 0.96,0.79998 0.95999,0.79999 0.95999,0.80005 0.96002,0.79999 0.95999,0.79999 0.95999,0.96002 0.80002,0.79998 0.79999,0.79999 0.79999,0.96002 0.80002,0.95997 0.79998,0.80004 0.64002,0.95996 0.63998,0.96003 0.64002,0.79999 0.63998,0.96002 0.64002,0.95996 0.47998,0.96002 0.48001,0.96002 0.32,0.95996 0.47999,0.96002 0.32,0.96003 0.32001,0.95996 0.32001,1.11999 0.32,0.96002 0.15998,1.12 0.16,1.12 0.16001,1.11999 0.16,1.11999 0.16,1.12 v 1.28003 l 0.16001,1.27997 v 1.11999 1.44001 1.28002 1.44001 1.44 1.44 1.59998 L 445.44,626.40002 445.28,628 l -0.16,1.76001 -0.32001,1.76001 -0.47998,1.76001 -0.48001,1.75995 -0.63999,1.92004 -0.64001,2.07996 -0.95999,1.92004 -0.96,2.07996 -1.28002,2.24005 -1.28,2.23999 -1.59998,2.23999 -1.76001,2.39996 -2.07999,2.40003 -2.24002,2.40002 -2.55999,2.56 -2.72,2.71997 -17.60001,-22.88001 0.80002,-1.76 0.95999,-1.75995 0.64001,-1.44001 0.63999,-1.60003 0.64001,-1.44001 0.47998,-1.27996 0.48001,-1.28003 0.32001,-1.27997 0.16,-1.12 0.15998,-1.11999 0.16,-0.96002 v -0.96003 L 413.12,622.40002 412.95999,621.44 v -0.79999 l -0.16,-0.79998 -0.15998,-0.64002 -0.16,-0.79999 L 412.16,617.76001 412,617.12 l -0.32001,-0.47999 -0.32,-0.64001 -0.31998,-0.47998 -0.32001,-0.48004 -0.32001,-0.47998 -0.47998,-0.47998 -0.32,-0.32001 -0.48001,-0.47998 -0.32001,-0.32001 -0.47998,-0.32001 -0.48001,-0.48004 -0.32001,-0.31994 -0.47998,-0.32001 -0.48001,-0.32001 -0.48001,-0.32001 -0.47998,-0.32 -0.64002,-0.32001 -0.47998,-0.32001 -0.48001,-0.32 -0.48001,-0.31995 -0.47998,-0.32001 -0.64002,-0.32001 -0.47998,-0.48004 -0.48001,-0.31994 -0.64001,-0.32001 -0.47998,-0.32001 -0.48001,-0.32001 -0.63999,-0.47998 -0.48001,-0.32 -0.64001,-0.32001 -0.63999,-0.47998 -0.48001,-0.32001 -0.63998,-0.32001 -0.64002,-0.32 -0.63998,-0.47998 -0.64002,-0.32001 -0.63998,-0.32001 -0.64001,-0.32001 -0.63999,-0.32 -0.64001,-0.32001 -0.63999,-0.32001 -0.80002,-0.32 -0.63998,-0.31995 -0.80002,-0.16003 -0.63998,-0.32001 -0.80002,-0.32001 -0.79999,-0.32001 -0.79999,-0.31994 -0.64001,-0.16004 -0.79999,-0.32001 -0.80002,-0.32 -0.79999,-0.32001 -0.80001,-0.31995 -0.79999,-0.32 -0.95999,-0.32001 -0.80002,-0.47998 -0.79999,-0.32001 -0.79999,-0.32001 -0.96002,-0.48004 -0.79999,-0.47998 -0.80001,-0.47998 -0.79999,-0.48004 -0.95999,-0.47998 -0.80002,-0.47998 -0.95999,-0.47998 -0.79999,-0.64002 -0.80002,-0.48004 -0.95999,-0.63995 -0.79999,-0.48004 -0.80002,-0.63996 -0.95999,-0.64001 -0.79999,-0.64001 -0.80001,-0.64002 -0.96,-0.63995 -0.80001,-0.64002 -0.79999,-0.64001 -0.79999,-0.64002 -0.80002,-0.63995 -0.79999,-0.64002 -0.80001,-0.79998 -0.79999,-0.64002 -0.79999,-0.64001 -0.80002,-0.64002 -0.63998,-0.63995 -0.80002,-0.64002 -0.79999,-0.79998 -0.64001,-0.64002 L 353.28,578.56 352.64001,577.91998 352,577.12 l -0.64001,-0.64002 -0.63999,-0.63995 -0.64001,-0.80005 -0.63999,-0.63996 -0.48001,-0.80004 -0.63998,-0.63996 -0.48001,-0.80005 -0.48001,-0.79999 -0.47999,-0.64001 -0.48001,-0.79999 -0.47998,-0.79998 -0.32,-0.79999 -0.48001,-0.79999 -0.32001,-0.80005 -0.31998,-0.79999 -0.32001,-0.95996 -0.32,-0.80005 -0.16001,-0.79999 -0.32,-0.95996 -0.31998,-0.80004 -0.16001,-0.95997 -0.32,-0.79998 -0.16001,-0.96003 -0.16,-0.96002 -0.16,-0.95996 -0.15998,-0.96002 -0.16,-0.96002 -0.16,-0.95996 L 341.44,553.12 341.28,552 l -0.16,-0.96002 -0.16001,-1.12 -0.16,-0.95996 -0.15998,-1.11999 v -1.12006 l -0.16,-0.95996 -0.16,-1.12 v -1.11999 l -0.16001,-1.12 V 541.12 540 v -1.28003 -1.11999 -1.27997 -1.28003 l 0.16001,-1.27997 v -1.28003 l 0.16,-1.27997 0.16,-1.28003 0.15998,-1.44 0.16,-1.44 0.32001,-1.27997 0.32001,-1.44 0.32,-1.44001 0.31998,-1.59997 0.48001,-1.44 0.32001,-1.44001 0.63998,-1.60003 0.48001,-1.44001 0.63999,-1.59997 0.64001,-1.60004 0.79999,-1.59997 0.80002,-1.60001 0.95999,-1.6 0.95999,-1.59998 0.96002,-1.60001 1.12,-1.6 1.28,-1.76001 1.28,-1.59998 1.44,-1.6 L 383.84,514.56 v 0 z"
       style="fill:#ffffff;fill-opacity:1;fill-rule:evenodd;stroke:none"
       transform="translate(0,2.666608)"
       clip-path="url(#clipPath56)" />
    <path
       id="path57"
       d="m 383.84,514.56 -1.44001,1.11999 -1.27999,0.96002 -1.12,1.12 -0.95999,0.95996 -0.96002,1.12006 -0.79999,0.95996 -0.63999,0.96002 -0.64001,0.95996 -0.48001,0.96002 -0.47998,0.96002 -0.48001,0.79999 -0.32001,0.96002 -0.16,0.79999 -0.31998,0.95996 -0.16,0.80005 -0.16001,0.95996 -0.16,0.79999 v 0.80005 l -0.16,0.79999 v 0.79999 0.79998 l -0.16001,0.79999 v 0.64001 0.79999 0.80005 0.79999 0.64001 0.79999 0.64002 0.79998 0.64002 l 0.16001,0.79999 v 0.63995 l 0.16,0.64001 v 0.79999 l 0.16,0.64002 0.16001,0.64001 0.16,0.64002 0.16,0.79998 0.15998,0.64002 0.16,0.63995 0.32001,0.64002 0.32,0.64001 0.16001,0.64002 0.31998,0.63995 0.32,0.64001 L 376,552 l 0.48001,0.64001 0.31998,0.64002 0.48001,0.63995 0.48001,0.64002 0.47998,0.64001 0.48001,0.47998 0.48001,0.64002 0.63999,0.64001 0.48001,0.63996 0.63998,0.48004 0.64002,0.63995 0.79998,0.48004 0.64002,0.64002 0.79999,0.47998 0.80001,0.64001 0.79999,0.47998 0.79999,0.47998 0.96002,0.64002 0.79999,0.47998 0.95999,0.48004 0.96002,0.47998 0.95999,0.47998 0.96,0.64002 1.11999,0.47998 0.96002,0.48004 0.95999,0.47998 1.12,0.47998 1.12,0.48004 0.95999,0.63995 1.12002,0.48004 1.12,0.47999 1.11999,0.47998 1.12,0.48004 1.11999,0.63995 1.12,0.48004 1.12002,0.47998 1.12,0.47998 1.11999,0.64002 1.12,0.48004 1.11999,0.63995 1.12,0.48004 0.96002,0.63996 1.12,0.48004 1.11999,0.63995 1.12,0.64002 1.11999,0.64001 1.12,0.64002 1.12002,0.63995 1.12,0.64001 L 421.28,580 l 1.11999,0.64001 1.12,0.64002 0.96002,0.79999 1.12,0.63995 0.95999,0.80005 1.11999,0.79999 0.96002,0.79999 0.96,0.79998 0.95999,0.79999 0.95999,0.80005 0.96002,0.79999 0.95999,0.79999 0.95999,0.96002 0.80002,0.79998 0.79999,0.79999 0.79999,0.96002 0.80002,0.95997 0.79998,0.80004 0.64002,0.95996 0.63998,0.96003 0.64002,0.79999 0.63998,0.96002 0.64002,0.95996 0.47998,0.96002 0.48001,0.96002 0.32,0.95996 0.47999,0.96002 0.32,0.96003 0.32001,0.95996 0.32001,1.11999 0.32,0.96002 0.15998,1.12 0.16,1.12 0.16001,1.11999 0.16,1.11999 0.16,1.12 v 1.28003 l 0.16001,1.27997 v 1.11999 1.44001 1.28002 1.44001 1.44 1.44 1.59998 L 445.44,626.40002 445.28,628 l -0.16,1.76001 -0.32001,1.76001 -0.47998,1.76001 -0.48001,1.75995 -0.63999,1.92004 -0.64001,2.07996 -0.95999,1.92004 -0.96,2.07996 -1.28002,2.24005 -1.28,2.23999 -1.59998,2.23999 -1.76001,2.39996 -2.07999,2.40003 -2.24002,2.40002 -2.55999,2.56 -2.72,2.71997 -17.60001,-22.88001 0.80002,-1.76 0.95999,-1.75995 0.64001,-1.44001 0.63999,-1.60003 0.64001,-1.44001 0.47998,-1.27996 0.48001,-1.28003 0.32001,-1.27997 0.16,-1.12 0.15998,-1.11999 0.16,-0.96002 v -0.96003 L 413.12,622.40002 412.95999,621.44 v -0.79999 l -0.16,-0.79998 -0.15998,-0.64002 -0.16,-0.79999 L 412.16,617.76001 412,617.12 l -0.32001,-0.47999 -0.32,-0.64001 -0.31998,-0.47998 -0.32001,-0.48004 -0.32001,-0.47998 -0.47998,-0.47998 -0.32,-0.32001 -0.48001,-0.47998 -0.32001,-0.32001 -0.47998,-0.32001 -0.48001,-0.48004 -0.32001,-0.31994 -0.47998,-0.32001 -0.48001,-0.32001 -0.48001,-0.32001 -0.47998,-0.32 -0.64002,-0.32001 -0.47998,-0.32001 -0.48001,-0.32 -0.48001,-0.31995 -0.47998,-0.32001 -0.64002,-0.32001 -0.47998,-0.48004 -0.48001,-0.31994 -0.64001,-0.32001 -0.47998,-0.32001 -0.48001,-0.32001 -0.63999,-0.47998 -0.48001,-0.32 -0.64001,-0.32001 -0.63999,-0.47998 -0.48001,-0.32001 -0.63998,-0.32001 -0.64002,-0.32 -0.63998,-0.47998 -0.64002,-0.32001 -0.63998,-0.32001 -0.64001,-0.32001 -0.63999,-0.32 -0.64001,-0.32001 -0.63999,-0.32001 -0.80002,-0.32 -0.63998,-0.31995 -0.80002,-0.16003 -0.63998,-0.32001 -0.80002,-0.32001 -0.79999,-0.32001 -0.79999,-0.31994 -0.64001,-0.16004 -0.79999,-0.32001 -0.80002,-0.32 -0.79999,-0.32001 -0.80001,-0.31995 -0.79999,-0.32 -0.95999,-0.32001 -0.80002,-0.47998 -0.79999,-0.32001 -0.79999,-0.32001 -0.96002,-0.48004 -0.79999,-0.47998 -0.80001,-0.47998 -0.79999,-0.48004 -0.95999,-0.47998 -0.80002,-0.47998 -0.95999,-0.47998 -0.79999,-0.64002 -0.80002,-0.48004 -0.95999,-0.63995 -0.79999,-0.48004 -0.80002,-0.63996 -0.95999,-0.64001 -0.79999,-0.64001 -0.80001,-0.64002 -0.96,-0.63995 -0.80001,-0.64002 -0.79999,-0.64001 -0.79999,-0.64002 -0.80002,-0.63995 -0.79999,-0.64002 -0.80001,-0.79998 -0.79999,-0.64002 -0.79999,-0.64001 -0.80002,-0.64002 -0.63998,-0.63995 -0.80002,-0.64002 -0.79999,-0.79998 -0.64001,-0.64002 L 353.28,578.56 352.64001,577.91998 352,577.12 l -0.64001,-0.64002 -0.63999,-0.63995 -0.64001,-0.80005 -0.63999,-0.63996 -0.48001,-0.80004 -0.63998,-0.63996 -0.48001,-0.80005 -0.48001,-0.79999 -0.47999,-0.64001 -0.48001,-0.79999 -0.47998,-0.79998 -0.32,-0.79999 -0.48001,-0.79999 -0.32001,-0.80005 -0.31998,-0.79999 -0.32001,-0.95996 -0.32,-0.80005 -0.16001,-0.79999 -0.32,-0.95996 -0.31998,-0.80004 -0.16001,-0.95997 -0.32,-0.79998 -0.16001,-0.96003 -0.16,-0.96002 -0.16,-0.95996 -0.15998,-0.96002 -0.16,-0.96002 -0.16,-0.95996 L 341.44,553.12 341.28,552 l -0.16,-0.96002 -0.16001,-1.12 -0.16,-0.95996 -0.15998,-1.11999 v -1.12006 l -0.16,-0.95996 -0.16,-1.12 v -1.11999 l -0.16001,-1.12 V 541.12 540 v -1.28003 -1.11999 -1.27997 -1.28003 l 0.16001,-1.27997 v -1.28003 l 0.16,-1.27997 0.16,-1.28003 0.15998,-1.44 0.16,-1.44 0.32001,-1.27997 0.32001,-1.44 0.32,-1.44001 0.31998,-1.59997 0.48001,-1.44 0.32001,-1.44001 0.63998,-1.60003 0.48001,-1.44001 0.63999,-1.59997 0.64001,-1.60004 0.79999,-1.59997 0.80002,-1.60001 0.95999,-1.6 0.95999,-1.59998 0.96002,-1.60001 1.12,-1.6 1.28,-1.76001 1.28,-1.59998 1.44,-1.6 L 383.84,514.56"
       style="fill:none;stroke:#000000;stroke-width:26.4;stroke-linecap:round;stroke-linejoin:round;stroke-miterlimit:10;stroke-dasharray:none;stroke-opacity:1"
       transform="translate(0,2.666608)"
       clip-path="url(#clipPath58)" />
    <path
       id="path59"
       d="m 0,0 -0.96,2.24 -1.28,3.84 -1.12,3.52 -0.8,3.52 -0.64,3.36 -0.48,3.04 -0.16,3.039999 v 2.880002 l 0.32,2.879999 0.16,1.28 0.16,0.959999 0.48,2.56 L -3.36,36 l 1.12,2.720001 1.6,2.559998 L 1.28,43.84 1.76,44.32 3.52,45.919998 6.4,48.48 l 3.52,2.560001 4.32,2.719997 0.16,0.16 0.8,0.480004 2.4,1.439998 7.199999,4.32 5.440001,3.200001 0.639999,0.479999 2.24,1.439999 L 36.959999,68 40,70.720001 l 2.080002,2.559998 0.32,0.480003 L 43.52,75.68 l 1.119999,2.720002 0.64,2.879997 0.319999,3.040001 v 2.879997 0.960007 l -0.319999,2.559997 -0.799999,4.32 -0.48,2.879997 -0.16,1.440003 V 101.44 l 0.16,0.8 0.16,0.48 0.479999,0.96 0.8,0.48 0.960003,0.32 1.279998,-0.16 1.439999,-0.48 1.760002,-0.96 0.799999,-0.8 0.64,-0.32 1.599998,-1.6 1.760002,-2.399998 1.919998,-2.880005 1.760003,-3.36 L 60.799999,88 l 0.16,-0.800003 0.639999,-2.559998 0.32,-3.199997 -0.16,-3.36 -0.479999,-3.360001 -0.64,-2.880005 L 60.32,71.040001 59.52,68.800003 57.759998,65.440002 55.68,62.240002 53.119999,59.360001 51.040001,57.119999 50.240002,56.48 47.84,54.400002 44,51.360001 38.720001,47.68 l -5.280002,-4.16 -0.8,-0.639999 L 30.4,40.959999 27.52,38.080002 25.120001,35.200001 22.879999,32.16 21.76,30.24 21.280001,29.6 20.32,27.68 19.040001,24 18.24,20.639999 17.76,17.120001 17.6,13.6 v -0.32"
       style="fill:none;stroke:#cc3131;stroke-width:11.2;stroke-linecap:round;stroke-linejoin:round;stroke-miterlimit:10;stroke-dasharray:none;stroke-opacity:1"
       transform="translate(363.20001,675.14659)"
       clip-path="url(#clipPath60)" />
    <path
       id="path61"
       d="m 363.20001,672.47998 -0.96002,2.23999 -0.63998,2.08002 -0.80002,1.91998 -0.47998,1.92004 -0.64002,1.76001 -0.32,1.75995 -0.47999,1.76001 -0.32,1.60004 -0.32001,1.44 -0.16,1.44 -0.15998,1.44001 -0.16,1.27997 v 1.28002 1.27997 1.12 1.28003 l 0.16,0.95996 v 1.11999 l 0.15998,0.96003 0.16,0.96002 0.16,0.95996 L 358.56,704 l 0.16,0.79999 0.16,0.79999 0.32001,0.80004 0.15998,0.79999 0.32,0.79999 0.16001,0.79999 0.32,0.64001 0.32001,0.79999 0.31998,0.64001 0.32001,0.64002 0.32,0.63995 0.48001,0.64002 0.31998,0.64001 0.48001,0.64002 0.32001,0.47998 0.47998,0.64001 0.48001,0.47998 0.48001,0.64002 0.47998,0.47998 0.64002,0.64001 0.47998,0.47998 0.64001,0.48004 0.48001,0.63996 0.63999,0.48004 0.64001,0.47998 0.63999,0.47998 0.64001,0.64002 0.63998,0.47998 0.64002,0.48004 0.63998,0.47998 0.80002,0.47998 0.63999,0.48004 0.80001,0.47998 0.63999,0.47998 0.79999,0.48004 0.80001,0.47998 0.79999,0.47998 0.64002,0.48004 0.79998,0.47998 0.80002,0.47998 0.79999,0.48005 0.79999,0.47998 0.80002,0.47998 0.79998,0.48004 0.80002,0.47998 0.79999,0.47998 0.79999,0.47998 0.80002,0.48004 0.79998,0.47998 0.80002,0.47998 0.79999,0.48004 0.79999,0.47999 0.80002,0.47998 0.79998,0.48004 0.80002,0.47998 0.63999,0.32 0.80001,0.47998 0.79999,0.48005 0.63999,0.47998 0.80001,0.47998 0.63999,0.48004 0.80002,0.47998 0.63998,0.47998 0.64002,0.32001 0.63998,0.47998 0.64001,0.48004 0.63999,0.47998 0.64001,0.47998 0.63999,0.48004 0.48001,0.47998 0.64001,0.47998 0.47998,0.64002 0.48001,0.47998 0.47999,0.48004 L 403.84,744 l 0.48001,0.64001 0.47998,0.47999 0.48001,0.64001 0.32001,0.47998 0.32,0.64001 0.47998,0.64002 0.32001,0.63995 0.32001,0.64002 0.16,0.64001 0.31998,0.64002 0.32001,0.63995 0.16,0.64001 0.16,0.79999 0.16001,0.64002 0.16,0.64001 0.16,0.79999 v 0.79999 l 0.15998,0.64001 v 0.79999 0.80005 0.79999 0.79998 0.79999 0.96002 l -0.15998,0.79999 -0.16,0.79999 v 0.96002 l -0.16,0.79999 -0.16001,0.79999 -0.16,0.96002 -0.16,0.79999 -0.16001,0.79998 -0.16,0.79999 v 0.80005 l -0.16,0.79999 -0.15998,0.79999 v 0.64001 l -0.16,0.64002 v 0.63995 0.64002 0.64001 0.47998 l 0.16,0.47998 0.15998,0.48004 0.16,0.32001 0.16,0.32001 0.32001,0.31994 0.16,0.32001 0.32001,0.16003 0.31998,0.15998 0.48001,0.16003 h 0.32001 0.47998 0.32 l 0.48001,-0.16003 0.47999,-0.15998 0.48001,-0.16003 0.48001,-0.15997 0.47998,-0.32001 0.64001,-0.15997 0.48001,-0.48005 0.47998,-0.32 L 414.88,774.56 415.51999,774.23999 416,773.59998 416.48001,773.12 417.12,772.64001 417.60001,772 l 0.47998,-0.64002 0.64001,-0.64001 0.48001,-0.79999 0.47998,-0.63995 0.48001,-0.80005 0.48001,-0.63995 0.47999,-0.80005 0.32,-0.79999 0.48001,-0.79999 0.31998,-0.79999 0.48001,-0.79998 0.32001,-0.80005 0.31998,-0.95996 0.32,-0.79999 0.32001,-0.80005 0.16,-0.79999 0.16001,-0.79999 0.32,-0.79998 0.15998,-0.96002 v -0.79999 l 0.16,-0.79999 0.16001,-0.80005 v -0.79999 -0.79998 -0.79999 -0.79999 l -0.16001,-0.80005 v -0.79999 l -0.16,-0.79998 v -0.79999 l -0.15998,-0.79999 -0.16,-0.80005 -0.16,-0.79999 L 424,745.12 l -0.16,-0.79999 -0.32001,-0.79999 -0.16,-0.64002 -0.31998,-0.79998 -0.32001,-0.79999 -0.32001,-0.80005 -0.47998,-0.63995 -0.32,-0.80005 -0.48001,-0.79999 -0.32001,-0.64001 -0.47998,-0.79999 L 419.84,736 419.35999,735.35998 418.72,734.56 l -0.48001,-0.64002 -0.63998,-0.79998 -0.64002,-0.64002 -0.63998,-0.79999 -0.64002,-0.64001 -0.79999,-0.79999 -0.64001,-0.64001 -0.79999,-0.63996 -0.79999,-0.80005 -0.80001,-0.63995 -0.79999,-0.64002 -0.96002,-0.79998 -0.79999,-0.64002 -0.95999,-0.64001 -0.96002,-0.64002 -0.96,-0.79999 -0.79998,-0.64001 -0.96,-0.63995 L 403.67999,721.44 402.72,720.79999 401.92001,720 400.95999,719.35998 400,718.71997 399.20001,718.08002 398.23999,717.44 397.44,716.79999 396.64001,716 395.84,715.35998 l -0.79999,-0.64001 -0.80002,-0.63995 -0.63998,-0.64002 -0.80002,-0.64001 L 392.16,712 391.51999,711.35998 390.88,710.71997 390.23999,710.08002 389.76001,709.44 389.12,708.79999 388.64001,708.15997 388,707.35998 l -0.48001,-0.64001 -0.47998,-0.63995 -0.48001,-0.64002 -0.32001,-0.64001 -0.47998,-0.64002 -0.48001,-0.63995 -0.32001,-0.80005 -0.47998,-0.63995 -0.32001,-0.64002 -0.32,-0.64001 -0.32001,-0.64002 -0.31998,-0.79999 -0.32001,-0.64001 -0.32,-0.79999 -0.16001,-0.63995 -0.32,-0.80005 -0.15998,-0.79999 -0.16,-0.79999 -0.16,-0.79998 -0.16001,-0.96002 -0.16,-0.96003 -0.16,-0.95996 v -0.96002 l -0.16001,-0.95996 v -1.12006 l -0.16,-1.11999 v -1.27997 l -17.59998,-13.28003 v 0 z"
       style="fill:#ffffff;fill-opacity:1;fill-rule:evenodd;stroke:none"
       transform="translate(0,2.666608)"
       clip-path="url(#clipPath62)" />
    <path
       id="path63"
       d="m 363.20001,672.47998 -0.96002,2.23999 -0.63998,2.08002 -0.80002,1.91998 -0.47998,1.92004 -0.64002,1.76001 -0.32,1.75995 -0.47999,1.76001 -0.32,1.60004 -0.32001,1.44 -0.16,1.44 -0.15998,1.44001 -0.16,1.27997 v 1.28002 1.27997 1.12 1.28003 l 0.16,0.95996 v 1.11999 l 0.15998,0.96003 0.16,0.96002 0.16,0.95996 L 358.56,704 l 0.16,0.79999 0.16,0.79999 0.32001,0.80004 0.15998,0.79999 0.32,0.79999 0.16001,0.79999 0.32,0.64001 0.32001,0.79999 0.31998,0.64001 0.32001,0.64002 0.32,0.63995 0.48001,0.64002 0.31998,0.64001 0.48001,0.64002 0.32001,0.47998 0.47998,0.64001 0.48001,0.47998 0.48001,0.64002 0.47998,0.47998 0.64002,0.64001 0.47998,0.47998 0.64001,0.48004 0.48001,0.63996 0.63999,0.48004 0.64001,0.47998 0.63999,0.47998 0.64001,0.64002 0.63998,0.47998 0.64002,0.48004 0.63998,0.47998 0.80002,0.47998 0.63999,0.48004 0.80001,0.47998 0.63999,0.47998 0.79999,0.48004 0.80001,0.47998 0.79999,0.47998 0.64002,0.48004 0.79998,0.47998 0.80002,0.47998 0.79999,0.48005 0.79999,0.47998 0.80002,0.47998 0.79998,0.48004 0.80002,0.47998 0.79999,0.47998 0.79999,0.47998 0.80002,0.48004 0.79998,0.47998 0.80002,0.47998 0.79999,0.48004 0.79999,0.47999 0.80002,0.47998 0.79998,0.48004 0.80002,0.47998 0.63999,0.32 0.80001,0.47998 0.79999,0.48005 0.63999,0.47998 0.80001,0.47998 0.63999,0.48004 0.80002,0.47998 0.63998,0.47998 0.64002,0.32001 0.63998,0.47998 0.64001,0.48004 0.63999,0.47998 0.64001,0.47998 0.63999,0.48004 0.48001,0.47998 0.64001,0.47998 0.47998,0.64002 0.48001,0.47998 0.47999,0.48004 L 403.84,744 l 0.48001,0.64001 0.47998,0.47999 0.48001,0.64001 0.32001,0.47998 0.32,0.64001 0.47998,0.64002 0.32001,0.63995 0.32001,0.64002 0.16,0.64001 0.31998,0.64002 0.32001,0.63995 0.16,0.64001 0.16,0.79999 0.16001,0.64002 0.16,0.64001 0.16,0.79999 v 0.79999 l 0.15998,0.64001 v 0.79999 0.80005 0.79999 0.79998 0.79999 0.96002 l -0.15998,0.79999 -0.16,0.79999 v 0.96002 l -0.16,0.79999 -0.16001,0.79999 -0.16,0.96002 -0.16,0.79999 -0.16001,0.79998 -0.16,0.79999 v 0.80005 l -0.16,0.79999 -0.15998,0.79999 v 0.64001 l -0.16,0.64002 v 0.63995 0.64002 0.64001 0.47998 l 0.16,0.47998 0.15998,0.48004 0.16,0.32001 0.16,0.32001 0.32001,0.31994 0.16,0.32001 0.32001,0.16003 0.31998,0.15998 0.48001,0.16003 h 0.32001 0.47998 0.32 l 0.48001,-0.16003 0.47999,-0.15998 0.48001,-0.16003 0.48001,-0.15997 0.47998,-0.32001 0.64001,-0.15997 0.48001,-0.48005 0.47998,-0.32 L 414.88,774.56 415.51999,774.23999 416,773.59998 416.48001,773.12 417.12,772.64001 417.60001,772 l 0.47998,-0.64002 0.64001,-0.64001 0.48001,-0.79999 0.47998,-0.63995 0.48001,-0.80005 0.48001,-0.63995 0.47999,-0.80005 0.32,-0.79999 0.48001,-0.79999 0.31998,-0.79999 0.48001,-0.79998 0.32001,-0.80005 0.31998,-0.95996 0.32,-0.79999 0.32001,-0.80005 0.16,-0.79999 0.16001,-0.79999 0.32,-0.79998 0.15998,-0.96002 v -0.79999 l 0.16,-0.79999 0.16001,-0.80005 v -0.79999 -0.79998 -0.79999 -0.79999 l -0.16001,-0.80005 v -0.79999 l -0.16,-0.79998 v -0.79999 l -0.15998,-0.79999 -0.16,-0.80005 -0.16,-0.79999 L 424,745.12 l -0.16,-0.79999 -0.32001,-0.79999 -0.16,-0.64002 -0.31998,-0.79998 -0.32001,-0.79999 -0.32001,-0.80005 -0.47998,-0.63995 -0.32,-0.80005 -0.48001,-0.79999 -0.32001,-0.64001 -0.47998,-0.79999 L 419.84,736 419.35999,735.35998 418.72,734.56 l -0.48001,-0.64002 -0.63998,-0.79998 -0.64002,-0.64002 -0.63998,-0.79999 -0.64002,-0.64001 -0.79999,-0.79999 -0.64001,-0.64001 -0.79999,-0.63996 -0.79999,-0.80005 -0.80001,-0.63995 -0.79999,-0.64002 -0.96002,-0.79998 -0.79999,-0.64002 -0.95999,-0.64001 -0.96002,-0.64002 -0.96,-0.79999 -0.79998,-0.64001 -0.96,-0.63995 L 403.67999,721.44 402.72,720.79999 401.92001,720 400.95999,719.35998 400,718.71997 399.20001,718.08002 398.23999,717.44 397.44,716.79999 396.64001,716 395.84,715.35998 l -0.79999,-0.64001 -0.80002,-0.63995 -0.63998,-0.64002 -0.80002,-0.64001 L 392.16,712 391.51999,711.35998 390.88,710.71997 390.23999,710.08002 389.76001,709.44 389.12,708.79999 388.64001,708.15997 388,707.35998 l -0.48001,-0.64001 -0.47998,-0.63995 -0.48001,-0.64002 -0.32001,-0.64001 -0.47998,-0.64002 -0.48001,-0.63995 -0.32001,-0.80005 -0.47998,-0.63995 -0.32001,-0.64002 -0.32,-0.64001 -0.32001,-0.64002 -0.31998,-0.79999 -0.32001,-0.64001 -0.32,-0.79999 -0.16001,-0.63995 -0.32,-0.80005 -0.15998,-0.79999 -0.16,-0.79999 -0.16,-0.79998 -0.16001,-0.96002 -0.16,-0.96003 -0.16,-0.95996 v -0.96002 l -0.16001,-0.95996 v -1.12006 l -0.16,-1.11999 v -1.27997 l -17.59998,-13.28003"
       style="fill:none;stroke:#000000;stroke-width:26.4;stroke-linecap:round;stroke-linejoin:round;stroke-miterlimit:10;stroke-dasharray:none;stroke-opacity:1"
       transform="translate(0,2.666608)"
       clip-path="url(#clipPath64)" />
  </g>
</svg>
