<?xml version="1.0" encoding="UTF-8" standalone="no"?>
<!-- Created with Inkscape (http://www.inkscape.org/) -->

<svg
   version="1.1"
   id="svg1"
   width="273.48001"
   height="234.92"
   viewBox="0 0 273.48001 234.92"
   sodipodi:docname="Cucurbit5.pdf"
   xmlns:inkscape="http://www.inkscape.org/namespaces/inkscape"
   xmlns:sodipodi="http://sodipodi.sourceforge.net/DTD/sodipodi-0.dtd"
   xmlns="http://www.w3.org/2000/svg"
   xmlns:svg="http://www.w3.org/2000/svg">
  <defs
     id="defs1">
    <clipPath
       clipPathUnits="userSpaceOnUse"
       id="clipPath2">
      <path
         d="M 0,0.16 V 1122.5601 H 793.59998 V 0.16 Z"
         transform="translate(-434.56,-504.64002)"
         clip-rule="evenodd"
         id="path2" />
    </clipPath>
    <clipPath
       clipPathUnits="userSpaceOnUse"
       id="clipPath4">
      <path
         d="M 0,0.16 V 1122.5601 H 793.59998 V 0.16 Z"
         transform="translate(-510.07999,-655.68)"
         clip-rule="evenodd"
         id="path4" />
    </clipPath>
    <clipPath
       clipPathUnits="userSpaceOnUse"
       id="clipPath6">
      <path
         d="M 0,0.16 V 1122.5601 H 793.59998 V 0.16 Z"
         clip-rule="evenodd"
         id="path6" />
    </clipPath>
  </defs>
  <sodipodi:namedview
     id="namedview1"
     pagecolor="#505050"
     bordercolor="#eeeeee"
     borderopacity="1"
     inkscape:showpageshadow="0"
     inkscape:pageopacity="0"
     inkscape:pagecheckerboard="0"
     inkscape:deskcolor="#505050">
    <inkscape:page
       x="0"
       y="0"
       inkscape:label="1"
       id="page1"
       width="273.48001"
       height="234.92"
       margin="0"
       bleed="0" />
  </sodipodi:namedview>
  <g
     id="g1"
     inkscape:groupmode="layer"
     inkscape:label="1">
    <path
       id="path1"
       d="m 0,0 c 0,-20.85 -16.9,-37.759998 -37.759998,-37.759998 -20.860001,0 -37.759999,16.909998 -37.759999,37.759998 0,20.85 16.899998,37.759998 37.759999,37.759998 C -16.9,37.759998 0,20.85 0,0 Z"
       style="fill:none;stroke:#000000;stroke-width:26.4;stroke-linecap:round;stroke-linejoin:round;stroke-miterlimit:10;stroke-dasharray:none;stroke-opacity:1"
       transform="translate(173.08,58.81329)"
       clip-path="url(#clipPath2)" />
    <path
       id="path3"
       d="M 0,0 -0.16,-9.28 -0.48,-18.559999 -1.12,-27.68 -2.08,-36.799999 -3.36,-45.919998 -4.8,-54.720001 -6.56,-63.52 l -2.08,-8.640004 -2.24,-8.479995 -2.4,-8.32 -2.72,-8.160004 -3.040001,-7.679997 -3.199999,-7.68 -3.36,-7.2 -3.680001,-7.04 -3.839998,-6.72 -4,-6.4 -4.32,-6.08 -4.319999,-5.75999 -4.480004,-5.28002 -4.799999,-4.95999 -4.799999,-4.64 -4.960003,-4.16 -5.119995,-3.67999 -5.120003,-3.36 -5.279999,-2.88001 -5.440002,-2.39999 -5.439995,-2.08 -5.440002,-1.60001 -5.440001,-1.12 -5.6,-0.64 -5.6,-0.32 -5.44,0.32 -5.6,0.64 -5.6,1.12 -5.44,1.60001 -5.44,2.08 -5.28,2.39999 -5.28,2.88001 -5.28,3.36 -4.96001,3.67999 -4.95999,4.16 -4.96,4.64 -4.64,4.95999 -4.48,5.28002 -4.47999,5.75999 -4.16001,6.08 -4,6.4 -3.83999,6.72 -3.68001,7.04 -3.36,7.2 -3.2,7.68 -3.03999,7.679997 -2.72,8.160004 -2.56,8.32 -2.24001,8.479995 -1.92,8.640004 -1.76001,8.799999 -1.43998,8.800003 -1.28002,9.119999 -0.95999,9.119999 -0.64,9.120001 L -226.39999,-9.28 -226.56,0"
       style="fill:none;stroke:#000000;stroke-width:26.4;stroke-linecap:round;stroke-linejoin:round;stroke-miterlimit:10;stroke-dasharray:none;stroke-opacity:1"
       transform="translate(248.59999,209.85327)"
       clip-path="url(#clipPath4)" />
    <path
       id="path5"
       d="m 283.51999,655.67999 h 226.56"
       style="fill:none;stroke:#000000;stroke-width:26.4;stroke-linecap:round;stroke-linejoin:round;stroke-miterlimit:10;stroke-dasharray:none;stroke-opacity:1"
       transform="translate(-261.48,-445.82673)"
       clip-path="url(#clipPath6)" />
  </g>
</svg>
