<?xml version="1.0" encoding="UTF-8" standalone="no"?>
<!-- Created with Inkscape (http://www.inkscape.org/) -->

<svg
   version="1.1"
   id="svg1"
   width="304.16"
   height="371.07999"
   viewBox="0 0 304.16 371.07999"
   sodipodi:docname="Cucurbit2.pdf"
   xmlns:inkscape="http://www.inkscape.org/namespaces/inkscape"
   xmlns:sodipodi="http://sodipodi.sourceforge.net/DTD/sodipodi-0.dtd"
   xmlns="http://www.w3.org/2000/svg"
   xmlns:svg="http://www.w3.org/2000/svg">
  <defs
     id="defs1">
    <clipPath
       clipPathUnits="userSpaceOnUse"
       id="clipPath2">
      <path
         d="M 0,0.16 V 1122.5601 H 793.59998 V 0.16 Z"
         transform="translate(-528.96002,-465.12)"
         clip-rule="evenodd"
         id="path2" />
    </clipPath>
    <clipPath
       clipPathUnits="userSpaceOnUse"
       id="clipPath4">
      <path
         d="M 0,0.16 V 1122.5601 H 793.59998 V 0.16 Z"
         transform="translate(-3.3333333e-6)"
         clip-rule="evenodd"
         id="path4" />
    </clipPath>
    <clipPath
       clipPathUnits="userSpaceOnUse"
       id="clipPath6">
      <path
         d="M 0,0.16 V 1122.5601 H 793.59998 V 0.16 Z"
         transform="translate(-491.20001,-466.88001)"
         clip-rule="evenodd"
         id="path6" />
    </clipPath>
    <clipPath
       clipPathUnits="userSpaceOnUse"
       id="clipPath8">
      <path
         d="M 0,0.16 V 1122.5601 H 793.59998 V 0.16 Z"
         transform="translate(-3.3333333e-6)"
         clip-rule="evenodd"
         id="path8" />
    </clipPath>
    <clipPath
       clipPathUnits="userSpaceOnUse"
       id="clipPath10">
      <path
         d="M 0,0.16 V 1122.5601 H 793.59998 V 0.16 Z"
         transform="translate(-3.3333333e-6)"
         clip-rule="evenodd"
         id="path10" />
    </clipPath>
    <clipPath
       clipPathUnits="userSpaceOnUse"
       id="clipPath12">
      <path
         d="M 0,0.16 V 1122.5601 H 793.59998 V 0.16 Z"
         transform="translate(-3.3333333e-6)"
         clip-rule="evenodd"
         id="path12" />
    </clipPath>
  </defs>
  <sodipodi:namedview
     id="namedview1"
     pagecolor="#505050"
     bordercolor="#eeeeee"
     borderopacity="1"
     inkscape:showpageshadow="0"
     inkscape:pageopacity="0"
     inkscape:pagecheckerboard="0"
     inkscape:deskcolor="#505050">
    <inkscape:page
       x="0"
       y="0"
       inkscape:label="1"
       id="page1"
       width="304.16"
       height="371.07999"
       margin="0"
       bleed="0" />
  </sodipodi:namedview>
  <g
     id="g1"
     inkscape:groupmode="layer"
     inkscape:label="1">
    <path
       id="path1"
       d="m 0,0 -0.16,-7.68 -0.64,-7.68 -1.12,-7.680001 -1.6,-7.519998 -1.92,-7.359999 -2.56,-7.360001 -2.72,-7.040001 -3.36,-7.040001 -3.52,-6.720001 -4.16,-6.559997 -4.32,-6.400002 -4.799999,-5.919998 L -36,-90.720001 l -5.439999,-5.440003 -5.760002,-5.119996 -5.919998,-4.8 -6.400001,-4.32 -6.560002,-4.16 -6.720001,-3.52 -7.039993,-3.36 -7.040001,-2.72 -7.360001,-2.56 -7.360002,-1.92 -7.52,-1.6 -7.68,-1.12 -7.68,-0.64 -7.68,-0.16 -7.68,0.16 -7.68,0.64 -7.51999,1.12 -7.52001,1.6 -7.52,1.92 -7.2,2.56 -7.2,2.72 -6.88,3.36 -6.88,3.52 -6.56,4.16 -6.23999,4.32 -6.08,4.8 -5.60001,5.119996 -5.44,5.440003 -5.12,5.760002 -4.8,5.919998 -4.48,6.400002 -4,6.559997 -3.68,6.720001 -3.2,7.040001 -2.88001,7.040001 -2.39999,7.360001 -1.92001,7.359999 -1.59998,7.519998 -1.12,7.680001 L -264,-7.68 -264.32001,0"
       style="fill:none;stroke:#000000;stroke-width:26.4;stroke-linecap:round;stroke-linejoin:round;stroke-miterlimit:10;stroke-dasharray:none;stroke-opacity:1"
       transform="translate(284.82669,155.45327)"
       clip-path="url(#clipPath2)" />
    <path
       id="path3"
       d="M 528.96002,466.88 H 491.20001"
       style="fill:none;stroke:#000000;stroke-width:26.4;stroke-linecap:round;stroke-linejoin:round;stroke-miterlimit:10;stroke-dasharray:none;stroke-opacity:1"
       transform="translate(-244.13333,-309.66673)"
       clip-path="url(#clipPath4)" />
    <path
       id="path5"
       d="M 0,0 -6.08,0.16 -12.32,0.8 -18.4,1.92 -24.32,3.2 -30.24,4.96 -36,7.2 -41.759998,9.76 -47.200001,12.64 -52.32,16 l -5.119999,3.52 -4.800003,4 -4.479999,4.16 -4.159996,4.48 -4,4.799999 -3.520005,4.959999 -3.36,5.280003 -2.879997,5.439998 -2.559998,5.600003 L -89.279999,64 -91.199997,69.919998 -92.480003,76 l -1.119995,6.080002 -0.480004,6.239998 -0.32,6.080002 0.32,6.239998 0.480004,6.08 1.119995,6.08 1.280006,6.08 1.919998,5.92 2.080002,5.76 2.559998,5.6 2.879997,5.44001 3.36,5.27999 3.520005,4.96 4,4.8 4.159996,4.47999 4.479999,4.32001 4.800003,3.84 5.119999,3.68001 5.119999,3.19999 5.440003,2.87999 5.759998,2.56002 5.76,2.23999 5.92,1.76001 5.92,1.43998 6.08,0.96001 6.24,0.64 6.08,0.16"
       style="fill:none;stroke:#000000;stroke-width:26.4;stroke-linecap:round;stroke-linejoin:round;stroke-miterlimit:10;stroke-dasharray:none;stroke-opacity:1"
       transform="translate(247.06668,157.21328)"
       clip-path="url(#clipPath6)" />
    <path
       id="path7"
       d="M 528.96002,655.67999 H 491.20001"
       style="fill:none;stroke:#000000;stroke-width:26.4;stroke-linecap:round;stroke-linejoin:round;stroke-miterlimit:10;stroke-dasharray:none;stroke-opacity:1"
       transform="translate(-244.13333,-309.66673)"
       clip-path="url(#clipPath8)" />
    <path
       id="path9"
       d="M 528.96002,655.67999 V 561.28003"
       style="fill:none;stroke:#000000;stroke-width:26.4;stroke-linecap:round;stroke-linejoin:round;stroke-miterlimit:10;stroke-dasharray:none;stroke-opacity:1"
       transform="translate(-244.13333,-309.66673)"
       clip-path="url(#clipPath10)" />
    <path
       id="path11"
       d="M 528.96002,561.28003 H 359.04001"
       style="fill:none;stroke:#000000;stroke-width:26.4;stroke-linecap:round;stroke-linejoin:round;stroke-miterlimit:10;stroke-dasharray:none;stroke-opacity:1"
       transform="translate(-244.13333,-309.66673)"
       clip-path="url(#clipPath12)" />
  </g>
</svg>
