<?xml version="1.0" encoding="UTF-8" standalone="no"?>
<!-- Created with Inkscape (http://www.inkscape.org/) -->

<svg
   version="1.1"
   id="svg1"
   width="220.12"
   height="261.62668"
   viewBox="0 0 220.12 261.62668"
   sodipodi:docname="Cupella.pdf"
   xmlns:inkscape="http://www.inkscape.org/namespaces/inkscape"
   xmlns:sodipodi="http://sodipodi.sourceforge.net/DTD/sodipodi-0.dtd"
   xmlns="http://www.w3.org/2000/svg"
   xmlns:svg="http://www.w3.org/2000/svg">
  <defs
     id="defs1">
    <clipPath
       clipPathUnits="userSpaceOnUse"
       id="clipPath2">
      <path
         d="M 0,0.16 V 1122.5601 H 793.59998 V 0.16 Z"
         transform="translate(-399.04001,-469.76001)"
         clip-rule="evenodd"
         id="path2" />
    </clipPath>
    <clipPath
       clipPathUnits="userSpaceOnUse"
       id="clipPath4">
      <path
         d="M 0,0.16 V 1122.5601 H 793.59998 V 0.16 Z"
         transform="translate(-399.04001,-469.76001)"
         clip-rule="evenodd"
         id="path4" />
    </clipPath>
    <clipPath
       clipPathUnits="userSpaceOnUse"
       id="clipPath6">
      <path
         d="M 0,0.16 V 1122.5601 H 793.59998 V 0.16 Z"
         transform="translate(-323.84,-611.35999)"
         clip-rule="evenodd"
         id="path6" />
    </clipPath>
  </defs>
  <sodipodi:namedview
     id="namedview1"
     pagecolor="#505050"
     bordercolor="#eeeeee"
     borderopacity="1"
     inkscape:showpageshadow="0"
     inkscape:pageopacity="0"
     inkscape:pagecheckerboard="0"
     inkscape:deskcolor="#505050">
    <inkscape:page
       x="0"
       y="0"
       inkscape:label="1"
       id="page1"
       width="220.12"
       height="261.62668"
       margin="0"
       bleed="0" />
  </sodipodi:namedview>
  <g
     id="g1"
     inkscape:groupmode="layer"
     inkscape:label="1">
    <path
       id="path1"
       d="m 0,0 -2.72,-3.2 -2.88,-3.04 -3.2,-2.72 -3.36,-2.4 -3.68,-2.08 -3.68,-1.76 -4,-1.439999 -4,-1.120001 -4,-0.64 -4.16,-0.479999 h -4.16 L -44,-18.4 l -4.16,0.64 -4,1.120001 L -56,-15.2 l -3.84,1.76 -3.520001,2.08 -3.519996,2.4 -3.040001,2.72 -3.040001,3.04 -2.559998,3.2"
       style="fill:none;stroke:#000000;stroke-width:26.4;stroke-linecap:round;stroke-linejoin:round;stroke-miterlimit:10;stroke-dasharray:none;stroke-opacity:1"
       transform="translate(399.04001,473.75995)"
       clip-path="url(#clipPath2)" />
    <path
       id="path3"
       d="m 0,0 2.56,3.2 3.04,3.04 3.04,2.72 3.52,2.4 3.52,2.08 3.84,1.76 3.840001,1.439999 4,1.120001 4.159999,0.799999 4.16,0.32 h 4.16 L 44,18.559999 48,17.76 52,16.639999 56,15.2 l 3.68,-1.76 3.680001,-2.08 3.36,-2.4 L 69.919998,6.24 72.800003,3.2 75.519997,0"
       style="fill:none;stroke:#000000;stroke-width:26.4;stroke-linecap:round;stroke-linejoin:round;stroke-miterlimit:10;stroke-dasharray:none;stroke-opacity:1"
       transform="translate(399.04001,473.75995)"
       clip-path="url(#clipPath4)" />
    <path
       id="path5"
       d="M 0,0 1.76,5.6 3.68,10.88 5.76,16.16 8,20.959999 10.4,25.6 l 2.56,4.32 2.72,3.999998 2.879999,3.68 L 21.6,40.959999 24.639999,44 27.84,46.720001 l 3.200001,2.239998 3.360001,1.920002 3.359996,1.439999 3.360001,1.119999 3.52,0.640003 3.520001,0.32 h 3.36 l 3.520001,-0.480004 3.52,-0.959999 3.359997,-1.279999 3.360001,-1.760002 3.36,-2.079998 3.199997,-2.400001 3.040001,-2.719998 L 77.919998,39.52 80.959999,36 83.68,32.16 86.400002,28 88.959999,23.52 91.199997,18.719999 93.440002,13.76 l 2.079995,-5.28 1.920005,-5.6 1.599999,-5.6 1.439999,-5.92 1.28,-5.92 1.12,-6.239999 0.8,-6.240002 0.64,-6.399998 0.48,-6.400001 0.16,-6.400002 v -6.559997 l -0.16,-6.400002 -0.48,-6.399997 L 103.68,-72 l -0.8,-6.239998 -1.12,-6.080002 -1.28,-6.080002 -1.439999,-5.919998 -1.599999,-5.6 -1.920005,-5.44 -1.919999,-5.28 -2.239997,-4.96 -2.400002,-4.8 -2.559997,-4.32 -2.560006,-4.16 -2.879997,-3.84 -2.879997,-3.52 -3.040001,-3.2 -3.200005,-2.72 -3.199997,-2.4"
       style="fill:none;stroke:#000000;stroke-width:26.4;stroke-linecap:round;stroke-linejoin:round;stroke-miterlimit:10;stroke-dasharray:none;stroke-opacity:1"
       transform="translate(323.84,615.35993)"
       clip-path="url(#clipPath6)" />
  </g>
</svg>
