<?xml version="1.0" encoding="UTF-8" standalone="no"?>
<!-- Created with Inkscape (http://www.inkscape.org/) -->

<svg
   version="1.1"
   id="svg1"
   width="161.41333"
   height="352.38666"
   viewBox="0 0 161.41333 352.38666"
   sodipodi:docname="Cupella2.pdf"
   xmlns:inkscape="http://www.inkscape.org/namespaces/inkscape"
   xmlns:sodipodi="http://sodipodi.sourceforge.net/DTD/sodipodi-0.dtd"
   xmlns="http://www.w3.org/2000/svg"
   xmlns:svg="http://www.w3.org/2000/svg">
  <defs
     id="defs1">
    <clipPath
       clipPathUnits="userSpaceOnUse"
       id="clipPath2">
      <path
         d="M 0,0.16 V 1122.5601 H 793.59998 V 0.16 Z"
         transform="translate(-341.28,-559.52002)"
         clip-rule="evenodd"
         id="path2" />
    </clipPath>
    <clipPath
       clipPathUnits="userSpaceOnUse"
       id="clipPath4">
      <path
         d="M 0,0.16 V 1122.5601 H 793.59998 V 0.16 Z"
         clip-rule="evenodd"
         id="path4" />
    </clipPath>
    <clipPath
       clipPathUnits="userSpaceOnUse"
       id="clipPath6">
      <path
         d="M 0,0.16 V 1122.5601 H 793.59998 V 0.16 Z"
         clip-rule="evenodd"
         id="path6" />
    </clipPath>
  </defs>
  <sodipodi:namedview
     id="namedview1"
     pagecolor="#505050"
     bordercolor="#eeeeee"
     borderopacity="1"
     inkscape:showpageshadow="0"
     inkscape:pageopacity="0"
     inkscape:pagecheckerboard="0"
     inkscape:deskcolor="#505050">
    <inkscape:page
       x="0"
       y="0"
       inkscape:label="1"
       id="page1"
       width="161.41333"
       height="352.38666"
       margin="0"
       bleed="0" />
  </sodipodi:namedview>
  <g
     id="g1"
     inkscape:groupmode="layer"
     inkscape:label="1">
    <path
       id="path1"
       d="m 0,0 7.04,-0.16 6.88,-0.32 6.879999,-0.64 6.720001,-0.96 6.720002,-1.28 6.559997,-1.6 6.400002,-1.76 6.239998,-2.08 5.920002,-2.4 5.760002,-2.56 5.599998,-2.879999 5.119995,-3.040001 4.960007,-3.360001 4.639999,-3.359999 4.32,-3.68 3.839996,-3.839998 3.680001,-4 3.200001,-4.160004 2.72,-4.32 2.4,-4.479999 1.92,-4.48 1.6,-4.479999 1.12,-4.640003 0.64,-4.64 0.16,-4.799995 -0.16,-4.64 -0.64,-4.639999 -0.96,-4.639999 -1.6,-4.640007 -1.92,-4.479996 -2.24,-4.480001 -2.88,-4.32 -3.040002,-4.16 -3.519996,-4 -4,-4 -4.160004,-3.68 -4.639999,-3.52 -4.799996,-3.36 -5.280006,-3.19999 L 65.760002,-134.56 60,-137.11999 54.080002,-139.52 47.84,-141.75999 l -6.400001,-1.92 L 34.880001,-145.28 28.32,-146.56 21.440001,-147.67999 14.56,-148.32001 7.68,-148.8 0.8,-148.96001"
       style="fill:none;stroke:#000000;stroke-width:26.4;stroke-linecap:round;stroke-linejoin:round;stroke-miterlimit:10;stroke-dasharray:none;stroke-opacity:1"
       transform="translate(26.439999,176.43996)"
       clip-path="url(#clipPath2)" />
    <path
       id="path3"
       d="M 341.28,410.23999 V 712.32001"
       style="fill:none;stroke:#000000;stroke-width:26.4;stroke-linecap:round;stroke-linejoin:round;stroke-miterlimit:10;stroke-dasharray:none;stroke-opacity:1"
       transform="translate(-314.84,-383.08006)"
       clip-path="url(#clipPath4)" />
    <path
       id="path5"
       d="m 341.28,712.32001 75.51999,-75.52002"
       style="fill:none;stroke:#000000;stroke-width:26.4;stroke-linecap:round;stroke-linejoin:round;stroke-miterlimit:10;stroke-dasharray:none;stroke-opacity:1"
       transform="translate(-314.84,-383.08006)"
       clip-path="url(#clipPath6)" />
  </g>
</svg>
