<?xml version="1.0" encoding="UTF-8" standalone="no"?>
<!-- Created with Inkscape (http://www.inkscape.org/) -->

<svg
   version="1.1"
   id="svg1"
   width="276.16"
   height="317.67999"
   viewBox="0 0 276.16 317.67999"
   sodipodi:docname="Cupella6.pdf"
   xmlns:inkscape="http://www.inkscape.org/namespaces/inkscape"
   xmlns:sodipodi="http://sodipodi.sourceforge.net/DTD/sodipodi-0.dtd"
   xmlns="http://www.w3.org/2000/svg"
   xmlns:svg="http://www.w3.org/2000/svg">
  <defs
     id="defs1">
    <clipPath
       clipPathUnits="userSpaceOnUse"
       id="clipPath2">
      <path
         d="M 0,0.16 V 1122.5601 H 793.59998 V 0.16 Z"
         transform="translate(-283.51999,-429.12)"
         clip-rule="evenodd"
         id="path2" />
    </clipPath>
    <clipPath
       clipPathUnits="userSpaceOnUse"
       id="clipPath4">
      <path
         d="M 0,0.16 V 1122.5601 H 793.59998 V 0.16 Z"
         transform="translate(3.3333334e-6)"
         clip-rule="evenodd"
         id="path4" />
    </clipPath>
    <clipPath
       clipPathUnits="userSpaceOnUse"
       id="clipPath6">
      <path
         d="M 0,0.16 V 1122.5601 H 793.59998 V 0.16 Z"
         transform="translate(3.3333334e-6)"
         clip-rule="evenodd"
         id="path6" />
    </clipPath>
    <clipPath
       clipPathUnits="userSpaceOnUse"
       id="clipPath8">
      <path
         d="M 0,0.16 V 1122.5601 H 793.59998 V 0.16 Z"
         transform="translate(-396.79999,-674.56)"
         clip-rule="evenodd"
         id="path8" />
    </clipPath>
    <clipPath
       clipPathUnits="userSpaceOnUse"
       id="clipPath10">
      <path
         d="M 0,0.16 V 1122.5601 H 793.59998 V 0.16 Z"
         transform="translate(-396.79999,-674.56)"
         clip-rule="evenodd"
         id="path10" />
    </clipPath>
  </defs>
  <sodipodi:namedview
     id="namedview1"
     pagecolor="#505050"
     bordercolor="#eeeeee"
     borderopacity="1"
     inkscape:showpageshadow="0"
     inkscape:pageopacity="0"
     inkscape:pagecheckerboard="0"
     inkscape:deskcolor="#505050">
    <inkscape:page
       x="0"
       y="0"
       inkscape:label="1"
       id="page1"
       width="276.16"
       height="317.67999"
       margin="0"
       bleed="0" />
  </sodipodi:namedview>
  <g
     id="g1"
     inkscape:groupmode="layer"
     inkscape:label="1">
    <path
       id="path1"
       d="m 0,0 8.16,4 8.16,3.68 8.479999,3.2 8.48,2.72 8.639999,2.4 8.800003,1.92 8.959999,1.440001 8.800003,0.959999 8.959999,0.639999 9.119996,0.160002 8.959999,-0.320002 L 104.48,20.16 l 8.8,-1.280001"
       style="fill:none;stroke:#000000;stroke-width:26.4;stroke-linecap:round;stroke-linejoin:round;stroke-miterlimit:10;stroke-dasharray:none;stroke-opacity:1"
       transform="translate(26.053322,36.69327)"
       clip-path="url(#clipPath2)" />
    <path
       id="path3"
       d="m 396.79999,448 75.52002,-18.88"
       style="fill:none;stroke:#000000;stroke-width:26.4;stroke-linecap:round;stroke-linejoin:round;stroke-miterlimit:10;stroke-dasharray:none;stroke-opacity:1"
       transform="translate(-257.46667,-392.42673)"
       clip-path="url(#clipPath4)" />
    <path
       id="path5"
       d="M 472.32001,429.12 283.51999,674.56"
       style="fill:none;stroke:#000000;stroke-width:26.4;stroke-linecap:round;stroke-linejoin:round;stroke-miterlimit:10;stroke-dasharray:none;stroke-opacity:1"
       transform="translate(-257.46667,-392.42673)"
       clip-path="url(#clipPath6)" />
    <path
       id="path7"
       d="m 0,0 -4.96,-3.52 -5.12,-3.04 -5.44,-2.88 -5.439999,-2.4 -5.76,-2.24 -5.760001,-1.6 -5.920002,-1.440001 L -44.48,-18.08 l -6.080001,-0.639999 -6.079998,-0.16 -6.080002,0.16 -5.919998,0.639999 -6.080002,0.959999 -5.919998,1.440001 -5.760003,1.6 -5.760002,2.24 -5.599998,2.4 -5.279998,2.88 -5.28,3.04 -4.96,3.52"
       style="fill:none;stroke:#000000;stroke-width:26.4;stroke-linecap:round;stroke-linejoin:round;stroke-miterlimit:10;stroke-dasharray:none;stroke-opacity:1"
       transform="translate(139.33332,282.13327)"
       clip-path="url(#clipPath8)" />
    <path
       id="path9"
       d="m 0,0 4.96,3.52 5.28,3.2 5.28,2.72 5.600001,2.56 5.759998,2.08 5.76,1.76 5.920002,1.280001 6.079998,0.959999 5.920002,0.639999 6.079998,0.16 6.080002,-0.16 L 68.800003,18.08 74.720001,17.120001 80.639999,15.84 86.559998,14.08 92.160004,12 97.760002,9.44 103.2,6.72 108.32,3.52 113.28,0"
       style="fill:none;stroke:#000000;stroke-width:26.4;stroke-linecap:round;stroke-linejoin:round;stroke-miterlimit:10;stroke-dasharray:none;stroke-opacity:1"
       transform="translate(139.33332,282.13327)"
       clip-path="url(#clipPath10)" />
  </g>
</svg>
