<?xml version="1.0" encoding="UTF-8" standalone="no"?>
<!-- Created with Inkscape (http://www.inkscape.org/) -->

<svg
   version="1.1"
   id="svg1"
   width="338.84"
   height="265.62668"
   viewBox="0 0 338.84 265.62668"
   sodipodi:docname="Cupella3.pdf"
   xmlns:inkscape="http://www.inkscape.org/namespaces/inkscape"
   xmlns:sodipodi="http://sodipodi.sourceforge.net/DTD/sodipodi-0.dtd"
   xmlns="http://www.w3.org/2000/svg"
   xmlns:svg="http://www.w3.org/2000/svg">
  <defs
     id="defs1">
    <clipPath
       clipPathUnits="userSpaceOnUse"
       id="clipPath2">
      <path
         d="M 0,0.16 V 1122.5601 H 793.59998 V 0.16 Z"
         transform="translate(-334.88,-626.23999)"
         clip-rule="evenodd"
         id="path2" />
    </clipPath>
    <clipPath
       clipPathUnits="userSpaceOnUse"
       id="clipPath4">
      <path
         d="M 0,0.16 V 1122.5601 H 793.59998 V 0.16 Z"
         transform="translate(-410.07999,-561.28003)"
         clip-rule="evenodd"
         id="path4" />
    </clipPath>
    <clipPath
       clipPathUnits="userSpaceOnUse"
       id="clipPath6">
      <path
         d="M 0,0.16 V 1122.5601 H 793.59998 V 0.16 Z"
         transform="translate(-410.07999,-561.28003)"
         clip-rule="evenodd"
         id="path6" />
    </clipPath>
    <clipPath
       clipPathUnits="userSpaceOnUse"
       id="clipPath8">
      <path
         d="M 0,0.16 V 1122.5601 H 793.59998 V 0.16 Z"
         transform="translate(-616.15997,-467.84)"
         clip-rule="evenodd"
         id="path8" />
    </clipPath>
    <clipPath
       clipPathUnits="userSpaceOnUse"
       id="clipPath10">
      <path
         d="M 0,0.16 V 1122.5601 H 793.59998 V 0.16 Z"
         transform="translate(-586.71997,-561.28003)"
         clip-rule="evenodd"
         id="path10" />
    </clipPath>
    <clipPath
       clipPathUnits="userSpaceOnUse"
       id="clipPath12">
      <path
         d="M 0,0.16 V 1122.5601 H 793.59998 V 0.16 Z"
         transform="translate(-586.71997,-561.28003)"
         clip-rule="evenodd"
         id="path12" />
    </clipPath>
  </defs>
  <sodipodi:namedview
     id="namedview1"
     pagecolor="#505050"
     bordercolor="#eeeeee"
     borderopacity="1"
     inkscape:showpageshadow="0"
     inkscape:pageopacity="0"
     inkscape:pagecheckerboard="0"
     inkscape:deskcolor="#505050">
    <inkscape:page
       x="0"
       y="0"
       inkscape:label="1"
       id="page1"
       width="338.84"
       height="265.62668"
       margin="0"
       bleed="0" />
  </sodipodi:namedview>
  <g
     id="g1"
     inkscape:groupmode="layer"
     inkscape:label="1">
    <path
       id="path1"
       d="m 0,0 2.72,5.44 3.04,5.12 3.04,4.96 3.36,4.64 3.52,4.479999 3.680001,4 3.84,3.680001 4,3.36 4.16,2.880001 4.159999,2.559998 4.32,2.240002 4.32,1.759998 4.479999,1.440002 4.48,0.959999 4.639999,0.64 4.480004,0.16 4.479999,-0.16 4.64,-0.64 4.479995,-1.119998 4.480004,-1.440003 4.319999,-1.919998 4.32,-2.240002 4.160004,-2.559997 4.159996,-3.040001 L 101.12,31.84 l 3.84,-3.68 3.68,-4.16 3.52,-4.32 3.36,-4.64 3.04,-4.96 2.88,-5.28 2.72,-5.6 2.56,-5.6 2.24001,-6.08 1.91999,-6.079999 1.76,-6.4 1.44,-6.400002 1.28,-6.559997 0.96001,-6.720001 0.64,-6.720002 0.31999,-6.720001 0.16,-6.879997 -0.16,-6.879997 -0.31999,-6.720002 -0.64,-6.720001 L 135.36,-92 l -1.28,-6.559998 -1.44,-6.560002 -1.76,-6.24 -2.08,-6.08 -2.24,-6.08 -2.4,-5.59999 -2.72,-5.60001 -2.88,-5.28 -3.04,-4.96001 -3.36,-4.64 -3.52,-4.31999 -3.68,-4.16 -3.84,-3.67999 -3.840001,-3.36 -4.159996,-3.04001 -4.160004,-2.56 -4.32,-2.24001 -4.479995,-1.91999 -4.320008,-1.44001 -4.479995,-0.95999 -4.64,-0.64 -4.479999,-0.32 -4.640004,0.16 -4.479999,0.64 -4.48,0.96 -4.479999,1.44001 -4.32,1.75999 -4.32,2.24001 -4.319999,2.55999 -4,3.04 -4,3.36 -3.84,3.68001"
       style="fill:none;stroke:#000000;stroke-width:26.4;stroke-linecap:round;stroke-linejoin:round;stroke-miterlimit:10;stroke-dasharray:none;stroke-opacity:1"
       transform="translate(334.88,626.23993)"
       clip-path="url(#clipPath2)" />
    <path
       id="path3"
       d="m 0,0 -0.16,-1.76 -0.32,-1.6 -0.48,-1.6 -0.8,-1.6 -0.96,-1.44 -1.12,-1.28 -1.28,-1.12 -1.44,-0.96 -1.6,-0.8 -1.6,-0.64 -1.76,-0.32 h -1.76 -1.6 l -1.759999,0.32 -1.600001,0.64 -1.6,0.8 -1.440001,0.96 -1.279998,1.12 L -23.68,-8 l -0.959999,1.44 -0.800002,1.6 -0.479999,1.6 -0.48,1.6 V 0 1.76 l 0.48,1.76 0.479999,1.6 0.800002,1.44 L -23.68,8 l 1.120001,1.44 1.279998,1.12 1.440001,0.96 1.6,0.64 1.600001,0.64 1.759999,0.32 1.6,0.16 1.76,-0.16 1.76,-0.32 1.6,-0.64 1.6,-0.64 1.44,-0.96 L -3.84,9.44 -2.72,8 -1.76,6.56 -0.96,5.12 -0.48,3.52 -0.16,1.76 0,0 v 0 z"
       style="fill:#000000;fill-opacity:1;fill-rule:evenodd;stroke:none"
       transform="translate(410.07999,561.27997)"
       clip-path="url(#clipPath4)" />
    <path
       id="path5"
       d="m 0,0 -0.16,-1.76 -0.32,-1.6 -0.48,-1.6 -0.8,-1.6 -0.96,-1.44 -1.12,-1.28 -1.28,-1.12 -1.44,-0.96 -1.6,-0.8 -1.6,-0.64 -1.76,-0.32 h -1.76 -1.6 l -1.759999,0.32 -1.600001,0.64 -1.6,0.8 -1.440001,0.96 -1.279998,1.12 L -23.68,-8 l -0.959999,1.44 -0.800002,1.6 -0.479999,1.6 -0.48,1.6 V 0 1.76 l 0.48,1.76 0.479999,1.6 0.800002,1.44 L -23.68,8 l 1.120001,1.44 1.279998,1.12 1.440001,0.96 1.6,0.64 1.600001,0.64 1.759999,0.32 1.6,0.16 1.76,-0.16 1.76,-0.32 1.6,-0.64 1.6,-0.64 1.44,-0.96 L -3.84,9.44 -2.72,8 -1.76,6.56 -0.96,5.12 -0.48,3.52 -0.16,1.76 0,0"
       style="fill:none;stroke:#000000;stroke-width:0.64;stroke-linecap:round;stroke-linejoin:round;stroke-miterlimit:10;stroke-dasharray:none;stroke-opacity:1"
       transform="translate(410.07999,561.27997)"
       clip-path="url(#clipPath6)" />
    <path
       id="path7"
       d="m 0,0 -3.84,-3.68 -4,-3.36 -4,-3.04 -4.32,-2.56 -4.16,-2.24 -4.479999,-1.759999 -4.480002,-1.440001 -4.479997,-0.960001 -4.480004,-0.639999 -4.639999,-0.16 -4.48,0.32 -4.479999,0.640001 -4.64,0.959999 -4.319999,1.44 -4.48,1.92 -4.319999,2.24 -4.160004,2.56 -4,3.04 -4,3.36 -3.839996,3.68 -3.680001,4.16 L -92.800003,8.8 -96,13.44 l -3.199997,4.96 -2.880003,5.28 -2.72,5.600001 -2.4,5.6 -2.24,6.079998 -2.08,6.080002 -1.76,6.239998 -1.44,6.560001 -1.28,6.560002 -0.8,6.720001 -0.8,6.719993 -0.32,6.720002 -0.16,6.880004 0.16,6.879998 0.32,6.72 0.64,6.72 0.96,6.72 1.28,6.56 1.44,6.4 1.76,6.4 2.08,6.08 2.24,6.08 2.4,5.60001 2.72,5.59999 2.880003,5.28 3.039993,4.96 3.360001,4.64 3.520004,4.31999 3.680001,4.16001 3.839996,3.68 3.840004,3.36001 4.159996,3.03999 4.160004,2.56 4.319999,2.24 4.32,1.92 4.479999,1.44 4.48,1.12 4.639999,0.64 4.48,0.16 4.639999,-0.16 4.480004,-0.64 4.479997,-0.95999 4.480002,-1.44001 4.319999,-1.76001 4.32,-2.23999 4.32,-2.55999 4,-2.88001 4,-3.36 3.84,-3.68001 3.68,-4 3.52,-4.47999 3.36,-4.64 3.04,-4.95999 3.039999,-5.12001 2.720002,-5.44001"
       style="fill:none;stroke:#000000;stroke-width:26.4;stroke-linecap:round;stroke-linejoin:round;stroke-miterlimit:10;stroke-dasharray:none;stroke-opacity:1"
       transform="translate(616.15997,467.83994)"
       clip-path="url(#clipPath8)" />
    <path
       id="path9"
       d="m 0,0 v -1.76 l -0.32,-1.6 -0.64,-1.6 -0.8,-1.6 -0.96,-1.44 -1.12,-1.28 -1.28,-1.12 -1.44,-0.96 -1.6,-0.8 -1.6,-0.64 -1.6,-0.32 h -1.76 -1.76 l -1.759999,0.32 -1.600001,0.64 -1.6,0.8 -1.440001,0.96 -1.279998,1.12 L -23.68,-8 l -0.959999,1.44 -0.800002,1.6 -0.479999,1.6 -0.32,1.6 -0.16,1.76 0.16,1.76 0.32,1.76 0.479999,1.6 0.800002,1.44 L -23.68,8 l 1.120001,1.44 1.279998,1.12 1.440001,0.96 1.6,0.64 1.600001,0.64 1.759999,0.32 1.76,0.16 1.76,-0.16 1.6,-0.32 1.6,-0.64 1.6,-0.64 1.44,-0.96 L -3.84,9.44 -2.72,8 -1.76,6.56 -0.96,5.12 -0.32,3.52 0,1.76 V 0 0 Z"
       style="fill:#000000;fill-opacity:1;fill-rule:evenodd;stroke:none"
       transform="translate(586.71997,561.27997)"
       clip-path="url(#clipPath10)" />
    <path
       id="path11"
       d="m 0,0 v -1.76 l -0.32,-1.6 -0.64,-1.6 -0.8,-1.6 -0.96,-1.44 -1.12,-1.28 -1.28,-1.12 -1.44,-0.96 -1.6,-0.8 -1.6,-0.64 -1.6,-0.32 h -1.76 -1.76 l -1.759999,0.32 -1.600001,0.64 -1.6,0.8 -1.440001,0.96 -1.279998,1.12 L -23.68,-8 l -0.959999,1.44 -0.800002,1.6 -0.479999,1.6 -0.32,1.6 -0.16,1.76 0.16,1.76 0.32,1.76 0.479999,1.6 0.800002,1.44 L -23.68,8 l 1.120001,1.44 1.279998,1.12 1.440001,0.96 1.6,0.64 1.600001,0.64 1.759999,0.32 1.76,0.16 1.76,-0.16 1.6,-0.32 1.6,-0.64 1.6,-0.64 1.44,-0.96 L -3.84,9.44 -2.72,8 -1.76,6.56 -0.96,5.12 -0.32,3.52 0,1.76 V 0"
       style="fill:none;stroke:#000000;stroke-width:0.64;stroke-linecap:round;stroke-linejoin:round;stroke-miterlimit:10;stroke-dasharray:none;stroke-opacity:1"
       transform="translate(586.71997,561.27997)"
       clip-path="url(#clipPath12)" />
  </g>
</svg>
