<?xml version="1.0" encoding="UTF-8" standalone="no"?>
<!-- Created with Inkscape (http://www.inkscape.org/) -->

<svg
   version="1.1"
   id="svg1"
   width="365.51999"
   height="270.95999"
   viewBox="0 0 365.51999 270.95999"
   sodipodi:docname="FireProof.pdf"
   xmlns:inkscape="http://www.inkscape.org/namespaces/inkscape"
   xmlns:sodipodi="http://sodipodi.sourceforge.net/DTD/sodipodi-0.dtd"
   xmlns="http://www.w3.org/2000/svg"
   xmlns:svg="http://www.w3.org/2000/svg">
  <defs
     id="defs1">
    <clipPath
       clipPathUnits="userSpaceOnUse"
       id="clipPath2">
      <path
         d="M 26.4,26.559999 V 1096.16 H 767.03998 V 26.559999 Z"
         clip-rule="evenodd"
         id="path2" />
    </clipPath>
    <clipPath
       clipPathUnits="userSpaceOnUse"
       id="clipPath4">
      <path
         d="M 26.4,26.559999 V 1096.16 H 767.03998 V 26.559999 Z"
         clip-rule="evenodd"
         id="path4" />
    </clipPath>
    <clipPath
       clipPathUnits="userSpaceOnUse"
       id="clipPath6">
      <path
         d="M 26.4,26.559999 V 1096.16 H 767.03998 V 26.559999 Z"
         clip-rule="evenodd"
         id="path6" />
    </clipPath>
    <clipPath
       clipPathUnits="userSpaceOnUse"
       id="clipPath8">
      <path
         d="M 26.4,26.559999 V 1096.16 H 767.03998 V 26.559999 Z"
         transform="translate(-381.76001,-523.52002)"
         clip-rule="evenodd"
         id="path8" />
    </clipPath>
    <clipPath
       clipPathUnits="userSpaceOnUse"
       id="clipPath10">
      <path
         d="M 26.4,26.559999 V 1096.16 H 767.03998 V 26.559999 Z"
         transform="translate(-381.76001,-523.52002)"
         clip-rule="evenodd"
         id="path10" />
    </clipPath>
  </defs>
  <sodipodi:namedview
     id="namedview1"
     pagecolor="#505050"
     bordercolor="#eeeeee"
     borderopacity="1"
     inkscape:showpageshadow="0"
     inkscape:pageopacity="0"
     inkscape:pagecheckerboard="0"
     inkscape:deskcolor="#505050">
    <inkscape:page
       x="0"
       y="0"
       inkscape:label="1"
       id="page1"
       width="365.51999"
       height="270.95999"
       margin="0"
       bleed="0" />
  </sodipodi:namedview>
  <g
     id="g1"
     inkscape:groupmode="layer"
     inkscape:label="1">
    <path
       id="path1"
       d="M 255.2,523.52002 368.48001,674.56 538.40002,448.16"
       style="fill:none;stroke:#000000;stroke-width:26.4;stroke-linecap:round;stroke-linejoin:round;stroke-miterlimit:10;stroke-dasharray:none;stroke-opacity:1"
       transform="translate(0,2.666608)"
       clip-path="url(#clipPath2)" />
    <path
       id="path3"
       d="m 236.32001,523.52002 h 37.75998"
       style="fill:none;stroke:#000000;stroke-width:26.4;stroke-linecap:round;stroke-linejoin:round;stroke-miterlimit:10;stroke-dasharray:none;stroke-opacity:1"
       transform="translate(0,2.666608)"
       clip-path="url(#clipPath4)" />
    <path
       id="path5"
       d="m 519.52002,448.16 h 37.76001"
       style="fill:none;stroke:#000000;stroke-width:26.4;stroke-linecap:round;stroke-linejoin:round;stroke-miterlimit:10;stroke-dasharray:none;stroke-opacity:1"
       transform="translate(0,2.666608)"
       clip-path="url(#clipPath6)" />
    <path
       id="path7"
       d="M 0,0 -0.16,-1.6 -0.48,-3.36 -1.12,-4.96 -1.76,-6.56 -2.88,-8 -4,-9.28 l -1.28,-1.12 -1.44,-0.96 -1.44,-0.8 -1.76,-0.48 -1.6,-0.32 -1.76,-0.16 -1.76,0.16 -1.599999,0.32 -1.760001,0.48 -1.44,0.8 -1.440001,0.96 -1.279998,1.12 L -23.84,-8 l -0.959999,1.44 -0.640002,1.6 L -26.08,-3.36 -26.4,-1.6 -26.559999,0 -26.4,1.76 l 0.32,1.76 0.639999,1.6 0.640002,1.6 0.959999,1.44 1.280001,1.28 1.279998,1.12 1.440001,0.96 1.44,0.8 1.760001,0.48 1.599999,0.32 1.76,0.16 1.76,-0.16 1.6,-0.32 1.76,-0.48 1.44,-0.8 1.44,-0.96 L -4,9.44 -2.88,8.16 -1.76,6.72 -1.12,5.12 -0.48,3.52 -0.16,1.76 0,0 v 0 z"
       style="fill:#000000;fill-opacity:1;fill-rule:evenodd;stroke:none"
       transform="translate(381.76001,526.18663)"
       clip-path="url(#clipPath8)" />
    <path
       id="path9"
       d="M 0,0 -0.16,-1.6 -0.48,-3.36 -1.12,-4.96 -1.76,-6.56 -2.88,-8 -4,-9.28 l -1.28,-1.12 -1.44,-0.96 -1.44,-0.8 -1.76,-0.48 -1.6,-0.32 -1.76,-0.16 -1.76,0.16 -1.599999,0.32 -1.760001,0.48 -1.44,0.8 -1.440001,0.96 -1.279998,1.12 L -23.84,-8 l -0.959999,1.44 -0.640002,1.6 L -26.08,-3.36 -26.4,-1.6 -26.559999,0 -26.4,1.76 l 0.32,1.76 0.639999,1.6 0.640002,1.6 0.959999,1.44 1.280001,1.28 1.279998,1.12 1.440001,0.96 1.44,0.8 1.760001,0.48 1.599999,0.32 1.76,0.16 1.76,-0.16 1.6,-0.32 1.76,-0.48 1.44,-0.8 1.44,-0.96 L -4,9.44 -2.88,8.16 -1.76,6.72 -1.12,5.12 -0.48,3.52 -0.16,1.76 0,0"
       style="fill:none;stroke:#000000;stroke-width:0.64;stroke-linecap:round;stroke-linejoin:round;stroke-miterlimit:10;stroke-dasharray:none;stroke-opacity:1"
       transform="translate(381.76001,526.18663)"
       clip-path="url(#clipPath10)" />
  </g>
</svg>
