<?xml version="1.0" encoding="UTF-8" standalone="no"?>
<!-- Created with Inkscape (http://www.inkscape.org/) -->

<svg
   version="1.1"
   id="svg1"
   width="277.48001"
   height="218.90668"
   viewBox="0 0 277.48001 218.90668"
   sodipodi:docname="FurnusCupellatori.pdf"
   xmlns:inkscape="http://www.inkscape.org/namespaces/inkscape"
   xmlns:sodipodi="http://sodipodi.sourceforge.net/DTD/sodipodi-0.dtd"
   xmlns="http://www.w3.org/2000/svg"
   xmlns:svg="http://www.w3.org/2000/svg">
  <defs
     id="defs1">
    <clipPath
       clipPathUnits="userSpaceOnUse"
       id="clipPath2">
      <path
         d="M 0,0.16 V 1122.5601 H 793.59998 V 0.16 Z"
         transform="translate(3.3333333e-6)"
         clip-rule="evenodd"
         id="path2" />
    </clipPath>
    <clipPath
       clipPathUnits="userSpaceOnUse"
       id="clipPath4">
      <path
         d="M 0,0.16 V 1122.5601 H 793.59998 V 0.16 Z"
         transform="translate(-245.75999,-599.03998)"
         clip-rule="evenodd"
         id="path4" />
    </clipPath>
  </defs>
  <sodipodi:namedview
     id="namedview1"
     pagecolor="#505050"
     bordercolor="#eeeeee"
     borderopacity="1"
     inkscape:showpageshadow="0"
     inkscape:pageopacity="0"
     inkscape:pagecheckerboard="0"
     inkscape:deskcolor="#505050">
    <inkscape:page
       x="0"
       y="0"
       inkscape:label="1"
       id="page1"
       width="277.48001"
       height="218.90668"
       margin="0"
       bleed="0" />
  </sodipodi:namedview>
  <g
     id="g1"
     inkscape:groupmode="layer"
     inkscape:label="1">
    <path
       id="path1"
       d="M 245.75999,523.52002 H 472.32001"
       style="fill:none;stroke:#000000;stroke-width:26.4;stroke-linecap:round;stroke-linejoin:round;stroke-miterlimit:10;stroke-dasharray:none;stroke-opacity:1"
       transform="translate(-218.78667,-409.78673)"
       clip-path="url(#clipPath2)" />
    <path
       id="path3"
       d="M 0,0 5.44,-0.16 10.72,-0.8 16.16,-1.76 21.280001,-3.04 26.4,-4.8 31.360001,-6.72 36.16,-9.12 40.799999,-12 l 4.48,-3.04 4.16,-3.36 4,-3.68 3.68,-3.84 3.360001,-4.16 3.04,-4.480001 2.719998,-4.64 L 68.639999,-44 l 2.080002,-4.959999 1.760002,-5.120003 1.279999,-5.279999 0.959999,-5.279998 0.64,-5.279999 0.159996,-5.440003 -0.159996,-5.279998 -0.480004,-5.440003 -0.959999,-5.279999 -1.279999,-5.120002 -1.760002,-5.119997 -2.079994,-5.12 -2.400001,-4.8 -2.720002,-4.64 -3.040001,-4.32 -3.36,-4.32 -3.680001,-3.84 -3.84,-3.68001 -4.16,-3.51999 -4.479999,-3.04 L 36.48,-141.60001 31.68,-144 26.719999,-146.08 21.6,-147.84 l -5.12,-1.44 -5.28,-0.96 -5.44,-0.48 -5.28,-0.31999"
       style="fill:none;stroke:#000000;stroke-width:26.4;stroke-linecap:round;stroke-linejoin:round;stroke-miterlimit:10;stroke-dasharray:none;stroke-opacity:1"
       transform="translate(26.973328,189.25325)"
       clip-path="url(#clipPath4)" />
  </g>
</svg>
