<?xml version="1.0" encoding="UTF-8" standalone="no"?>
<!-- Created with Inkscape (http://www.inkscape.org/) -->

<svg
   version="1.1"
   id="svg1"
   width="320.17334"
   height="484.51999"
   viewBox="0 0 320.17334 484.51999"
   sodipodi:docname="Lamp.pdf"
   xmlns:inkscape="http://www.inkscape.org/namespaces/inkscape"
   xmlns:sodipodi="http://sodipodi.sourceforge.net/DTD/sodipodi-0.dtd"
   xmlns="http://www.w3.org/2000/svg"
   xmlns:svg="http://www.w3.org/2000/svg">
  <defs
     id="defs1">
    <clipPath
       clipPathUnits="userSpaceOnUse"
       id="clipPath2">
      <path
         d="M 0,0.16 V 1122.5601 H 793.59998 V 0.16 Z"
         transform="translate(-340.16,-523.52002)"
         clip-rule="evenodd"
         id="path2" />
    </clipPath>
    <clipPath
       clipPathUnits="userSpaceOnUse"
       id="clipPath4">
      <path
         d="M 0,0.16 V 1122.5601 H 793.59998 V 0.16 Z"
         clip-rule="evenodd"
         id="path4" />
    </clipPath>
    <clipPath
       clipPathUnits="userSpaceOnUse"
       id="clipPath6">
      <path
         d="M 0,0.16 V 1122.5601 H 793.59998 V 0.16 Z"
         clip-rule="evenodd"
         id="path6" />
    </clipPath>
    <clipPath
       clipPathUnits="userSpaceOnUse"
       id="clipPath8">
      <path
         d="M 0,0.16 V 1122.5601 H 793.59998 V 0.16 Z"
         clip-rule="evenodd"
         id="path8" />
    </clipPath>
    <clipPath
       clipPathUnits="userSpaceOnUse"
       id="clipPath10">
      <path
         d="M 0,0.16 V 1122.5601 H 793.59998 V 0.16 Z"
         clip-rule="evenodd"
         id="path10" />
    </clipPath>
  </defs>
  <sodipodi:namedview
     id="namedview1"
     pagecolor="#505050"
     bordercolor="#eeeeee"
     borderopacity="1"
     inkscape:showpageshadow="0"
     inkscape:pageopacity="0"
     inkscape:pagecheckerboard="0"
     inkscape:deskcolor="#505050">
    <inkscape:page
       x="0"
       y="0"
       inkscape:label="1"
       id="page1"
       width="320.17334"
       height="484.51999"
       margin="0"
       bleed="0" />
  </sodipodi:namedview>
  <g
     id="g1"
     inkscape:groupmode="layer"
     inkscape:label="1">
    <path
       id="path1"
       d="m 0,0 6.88,-0.16 6.88,-0.64 6.72,-0.96 6.720001,-1.44 6.559997,-1.92 6.400002,-2.24 6.400001,-2.56 6.079998,-3.04 6.080002,-3.36 5.760002,-3.68 5.439995,-4.16 5.279999,-4.32 4.960007,-4.639999 4.639999,-4.960003 4.479996,-5.279999 4,-5.599998 3.68,-5.760002 3.360001,-5.919998 3.04,-6.080002 2.56,-6.400002 2.24,-6.399994 1.92,-6.560005 1.44,-6.720001 0.96,-6.719994 0.64,-6.880003 0.16,-6.88 -0.16,-6.88 -0.64,-6.72 -0.96,-6.72001 -1.44,-6.72 -1.92,-6.55999 -2.24,-6.56 -2.56,-6.23999 -3.04,-6.24001 -3.360001,-5.92 -3.68,-5.76001 -4,-5.43998 -4.479996,-5.28002 -4.639999,-4.95999 -4.960007,-4.8 -5.279999,-4.31999 -5.439995,-4 -5.760002,-3.84001 -6.080002,-3.36001 L 46.560001,-216.48 40.16,-219.2 33.759998,-221.44 27.200001,-223.2 20.48,-224.64 13.76,-225.75999 6.88,-226.24 0,-226.56"
       style="fill:none;stroke:#000000;stroke-width:26.4;stroke-linecap:round;stroke-linejoin:round;stroke-miterlimit:10;stroke-dasharray:none;stroke-opacity:1"
       transform="translate(184.08,260.55996)"
       clip-path="url(#clipPath2)" />
    <path
       id="path3"
       d="M 340.16,296.95999 H 189.11999"
       style="fill:none;stroke:#000000;stroke-width:26.4;stroke-linecap:round;stroke-linejoin:round;stroke-miterlimit:10;stroke-dasharray:none;stroke-opacity:1"
       transform="translate(-156.08,-262.96006)"
       clip-path="url(#clipPath4)" />
    <path
       id="path5"
       d="M 340.16,523.52002 H 189.11999"
       style="fill:none;stroke:#000000;stroke-width:26.4;stroke-linecap:round;stroke-linejoin:round;stroke-miterlimit:10;stroke-dasharray:none;stroke-opacity:1"
       transform="translate(-156.08,-262.96006)"
       clip-path="url(#clipPath6)" />
    <path
       id="path7"
       d="M 189.11999,296.95999 V 712.32001"
       style="fill:none;stroke:#000000;stroke-width:26.4;stroke-linecap:round;stroke-linejoin:round;stroke-miterlimit:10;stroke-dasharray:none;stroke-opacity:1"
       transform="translate(-156.08,-262.96006)"
       clip-path="url(#clipPath8)" />
    <path
       id="path9"
       d="M 189.11999,712.32001 H 453.44"
       style="fill:none;stroke:#000000;stroke-width:26.4;stroke-linecap:round;stroke-linejoin:round;stroke-miterlimit:10;stroke-dasharray:none;stroke-opacity:1"
       transform="translate(-156.08,-262.96006)"
       clip-path="url(#clipPath10)" />
  </g>
</svg>
