<?xml version="1.0" encoding="UTF-8" standalone="no"?>
<!-- Created with Inkscape (http://www.inkscape.org/) -->

<svg
   version="1.1"
   id="svg1"
   width="640.34668"
   height="381.74667"
   viewBox="0 0 640.34668 381.74667"
   sodipodi:docname="Librum.pdf"
   xmlns:inkscape="http://www.inkscape.org/namespaces/inkscape"
   xmlns:sodipodi="http://sodipodi.sourceforge.net/DTD/sodipodi-0.dtd"
   xmlns="http://www.w3.org/2000/svg"
   xmlns:svg="http://www.w3.org/2000/svg">
  <defs
     id="defs1">
    <clipPath
       clipPathUnits="userSpaceOnUse"
       id="clipPath2">
      <path
         d="M 0,0.16 V 1122.5601 H 793.59998 V 0.16 Z"
         clip-rule="evenodd"
         id="path2" />
    </clipPath>
    <clipPath
       clipPathUnits="userSpaceOnUse"
       id="clipPath4">
      <path
         d="M 0,0.16 V 1122.5601 H 793.59998 V 0.16 Z"
         clip-rule="evenodd"
         id="path4" />
    </clipPath>
    <clipPath
       clipPathUnits="userSpaceOnUse"
       id="clipPath6">
      <path
         d="M 0,0.16 V 1122.5601 H 793.59998 V 0.16 Z"
         transform="translate(-370.39999,-561.28003)"
         clip-rule="evenodd"
         id="path6" />
    </clipPath>
    <clipPath
       clipPathUnits="userSpaceOnUse"
       id="clipPath8">
      <path
         d="M 0,0.16 V 1122.5601 H 793.59998 V 0.16 Z"
         clip-rule="evenodd"
         id="path8" />
    </clipPath>
    <clipPath
       clipPathUnits="userSpaceOnUse"
       id="clipPath10">
      <path
         d="M 0,0.16 V 1122.5601 H 793.59998 V 0.16 Z"
         clip-rule="evenodd"
         id="path10" />
    </clipPath>
    <clipPath
       clipPathUnits="userSpaceOnUse"
       id="clipPath12">
      <path
         d="M 0,0.16 V 1122.5601 H 793.59998 V 0.16 Z"
         clip-rule="evenodd"
         id="path12" />
    </clipPath>
    <clipPath
       clipPathUnits="userSpaceOnUse"
       id="clipPath14">
      <path
         d="M 0,0.16 V 1122.5601 H 793.59998 V 0.16 Z"
         transform="translate(-687.52002,-561.28003)"
         clip-rule="evenodd"
         id="path14" />
    </clipPath>
    <clipPath
       clipPathUnits="userSpaceOnUse"
       id="clipPath16">
      <path
         d="M 0,0.16 V 1122.5601 H 793.59998 V 0.16 Z"
         clip-rule="evenodd"
         id="path16" />
    </clipPath>
  </defs>
  <sodipodi:namedview
     id="namedview1"
     pagecolor="#505050"
     bordercolor="#eeeeee"
     borderopacity="1"
     inkscape:showpageshadow="0"
     inkscape:pageopacity="0"
     inkscape:pagecheckerboard="0"
     inkscape:deskcolor="#505050">
    <inkscape:page
       x="0"
       y="0"
       inkscape:label="1"
       id="page1"
       width="640.34668"
       height="381.74667"
       margin="0"
       bleed="0" />
  </sodipodi:namedview>
  <g
     id="g1"
     inkscape:groupmode="layer"
     inkscape:label="1">
    <path
       id="path1"
       d="M 211.84,402.72 V 719.84003"
       style="fill:none;stroke:#000000;stroke-width:26.4;stroke-linecap:round;stroke-linejoin:round;stroke-miterlimit:10;stroke-dasharray:none;stroke-opacity:1"
       transform="translate(-77.373333,-376.41339)"
       clip-path="url(#clipPath2)" />
    <path
       id="path3"
       d="M 106.08,561.28003 H 370.39999"
       style="fill:none;stroke:#000000;stroke-width:26.4;stroke-linecap:round;stroke-linejoin:round;stroke-miterlimit:10;stroke-dasharray:none;stroke-opacity:1"
       transform="translate(-77.373333,-376.41339)"
       clip-path="url(#clipPath4)" />
    <path
       id="path5"
       d="m 0,0 -0.16,-8.64 -0.8,-8.640001 -1.12,-8.479999 -1.6,-8.480002 -2.08,-8.479999 -2.56,-8.16 -3.04,-8.16 -3.52,-7.839996 -3.839999,-7.840004 -4.16,-7.519997 L -27.68,-89.440002 -32.639999,-96.480003 -38.080002,-103.2 -44,-109.6 l -6.080002,-6.08 -6.399998,-5.76 -6.880001,-5.28 -7.040001,-4.95999 -7.199996,-4.64002 -7.520005,-4.31999 -7.839996,-3.68001 -8.000001,-3.35998 -8,-2.88001 -8.32,-2.55999 -8.48,-2.08001 -8.48,-1.44 -8.48,-1.11999 -8.64,-0.64 -8.64,-0.16001"
       style="fill:none;stroke:#000000;stroke-width:26.4;stroke-linecap:round;stroke-linejoin:round;stroke-miterlimit:10;stroke-dasharray:none;stroke-opacity:1"
       transform="translate(293.02666,184.86664)"
       clip-path="url(#clipPath6)" />
    <path
       id="path7"
       d="m 211.84,719.84003 52.80001,-79.20002"
       style="fill:none;stroke:#000000;stroke-width:26.4;stroke-linecap:round;stroke-linejoin:round;stroke-miterlimit:10;stroke-dasharray:none;stroke-opacity:1"
       transform="translate(-77.373333,-376.41339)"
       clip-path="url(#clipPath8)" />
    <path
       id="path9"
       d="M 528.96002,402.72 V 719.84003"
       style="fill:none;stroke:#000000;stroke-width:26.4;stroke-linecap:round;stroke-linejoin:round;stroke-miterlimit:10;stroke-dasharray:none;stroke-opacity:1"
       transform="translate(-77.373333,-376.41339)"
       clip-path="url(#clipPath10)" />
    <path
       id="path11"
       d="M 423.35999,561.28003 H 687.52002"
       style="fill:none;stroke:#000000;stroke-width:26.4;stroke-linecap:round;stroke-linejoin:round;stroke-miterlimit:10;stroke-dasharray:none;stroke-opacity:1"
       transform="translate(-77.373333,-376.41339)"
       clip-path="url(#clipPath12)" />
    <path
       id="path13"
       d="M 0,0 -0.16,-8.64 -0.8,-17.280001 -2.08,-25.76 l -1.6,-8.480002 -2.08,-8.479999 -2.56,-8.16 -3.04,-8.16 -3.36,-7.839996 -3.839999,-7.840004 -4.32,-7.519997 -4.640001,-7.200004 -5.119999,-7.040001 -5.440003,-6.719997 -5.759998,-6.4 -6.240002,-6.08 -6.399998,-5.76 -6.720001,-5.28 -7.039997,-4.95999 -7.36,-4.64002 -7.520005,-4.31999 -7.839996,-3.68001 -7.840001,-3.35998 -8.16,-2.88001 -8.32,-2.55999 -8.32,-2.08001 -8.64,-1.44 -8.48,-1.11999 -8.64,-0.64 -8.64,-0.16001"
       style="fill:none;stroke:#000000;stroke-width:26.4;stroke-linecap:round;stroke-linejoin:round;stroke-miterlimit:10;stroke-dasharray:none;stroke-opacity:1"
       transform="translate(610.14669,184.86664)"
       clip-path="url(#clipPath14)" />
    <path
       id="path15"
       d="m 528.96002,719.84003 52.95996,-79.20002"
       style="fill:none;stroke:#000000;stroke-width:26.4;stroke-linecap:round;stroke-linejoin:round;stroke-miterlimit:10;stroke-dasharray:none;stroke-opacity:1"
       transform="translate(-77.373333,-376.41339)"
       clip-path="url(#clipPath16)" />
  </g>
</svg>
