<?xml version="1.0" encoding="UTF-8" standalone="no"?>
<!-- Created with Inkscape (http://www.inkscape.org/) -->

<svg
   version="1.1"
   id="svg1"
   width="464.23999"
   height="353.70667"
   viewBox="0 0 464.23999 353.70667"
   sodipodi:docname="OvumPhilosophicum2.pdf"
   xmlns:inkscape="http://www.inkscape.org/namespaces/inkscape"
   xmlns:sodipodi="http://sodipodi.sourceforge.net/DTD/sodipodi-0.dtd"
   xmlns="http://www.w3.org/2000/svg"
   xmlns:svg="http://www.w3.org/2000/svg">
  <defs
     id="defs1">
    <clipPath
       clipPathUnits="userSpaceOnUse"
       id="clipPath2">
      <path
         d="M 0,0.16 V 1122.5601 H 793.59998 V 0.16 Z"
         transform="translate(-301.12,-553.28003)"
         clip-rule="evenodd"
         id="path2" />
    </clipPath>
    <clipPath
       clipPathUnits="userSpaceOnUse"
       id="clipPath4">
      <path
         d="M 0,0.16 V 1122.5601 H 793.59998 V 0.16 Z"
         transform="translate(-604.47998,-448)"
         clip-rule="evenodd"
         id="path4" />
    </clipPath>
    <clipPath
       clipPathUnits="userSpaceOnUse"
       id="clipPath6">
      <path
         d="M 0,0.16 V 1122.5601 H 793.59998 V 0.16 Z"
         transform="translate(-229.60001,-569.91998)"
         clip-rule="evenodd"
         id="path6" />
    </clipPath>
    <clipPath
       clipPathUnits="userSpaceOnUse"
       id="clipPath8">
      <path
         d="M 0,0.16 V 1122.5601 H 793.59998 V 0.16 Z"
         clip-rule="evenodd"
         id="path8" />
    </clipPath>
    <clipPath
       clipPathUnits="userSpaceOnUse"
       id="clipPath10">
      <path
         d="M 0,0.16 V 1122.5601 H 793.59998 V 0.16 Z"
         clip-rule="evenodd"
         id="path10" />
    </clipPath>
  </defs>
  <sodipodi:namedview
     id="namedview1"
     pagecolor="#505050"
     bordercolor="#eeeeee"
     borderopacity="1"
     inkscape:showpageshadow="0"
     inkscape:pageopacity="0"
     inkscape:pagecheckerboard="0"
     inkscape:deskcolor="#505050">
    <inkscape:page
       x="0"
       y="0"
       inkscape:label="1"
       id="page1"
       width="464.23999"
       height="353.70667"
       margin="0"
       bleed="0" />
  </sodipodi:namedview>
  <g
     id="g1"
     inkscape:groupmode="layer"
     inkscape:label="1">
    <path
       id="path1"
       d="M 0,0 C 0,-20.85 -16.860001,-37.759998 -37.68,-37.759998 -58.5,-37.759998 -75.360001,-20.85 -75.360001,0 -75.360001,20.85 -58.5,37.759998 -37.68,37.759998 -16.860001,37.759998 0,20.85 0,0 Z"
       style="fill:none;stroke:#000000;stroke-width:26.4;stroke-linecap:round;stroke-linejoin:round;stroke-miterlimit:10;stroke-dasharray:none;stroke-opacity:1"
       transform="translate(301.12,553.27997)"
       clip-path="url(#clipPath2)" />
    <path
       id="path3"
       d="m 0,0 c 0,-20.85 -16.9,-37.759998 -37.759998,-37.759998 -20.860001,0 -37.759999,16.909998 -37.759999,37.759998 0,20.85 16.899998,37.759998 37.759999,37.759998 C -16.9,37.759998 0,20.85 0,0 Z"
       style="fill:none;stroke:#000000;stroke-width:26.4;stroke-linecap:round;stroke-linejoin:round;stroke-miterlimit:10;stroke-dasharray:none;stroke-opacity:1"
       transform="translate(604.47998,447.99994)"
       clip-path="url(#clipPath4)" />
    <path
       id="path5"
       d="m 0,0 -4.64,2.72 -4.48,3.04 -4.32,3.2 -4.000001,3.68 -3.68,3.84 -3.519998,4.159999 -3.040001,4.32 -2.879999,4.640001 -2.56,4.800002 -2.080002,4.959999 -1.759998,4.959999 -1.440003,5.279998 -1.119998,5.280003 -0.64,5.279999 -0.32,5.439998 0.16,5.279999 0.48,5.440003 0.799999,5.279998 1.280003,5.279999 L -36.16,92 -34.080002,96.959999 -31.84,101.92 l 2.719999,4.64 2.880001,4.48 3.360001,4.16 3.519998,4 3.840001,3.84 4.16,3.36 4.48,3.20001 4.48,2.87999 4.8,2.4 4.96,2.23999 4.96,1.76001 5.28,1.44001 5.279999,1.11999 5.280001,0.64 5.439998,0.31999 L 38.880001,142.24 44.32,141.92 49.599998,140.96001 54.880001,139.84 60,138.24 l 4.959999,-2.08 4.959999,-2.24 4.64,-2.56 4.480003,-3.03999 4.32,-3.36001 4,-3.52 3.68,-3.84 3.519997,-4.16 3.200004,-4.32 2.719998,-4.48 2.56,-4.800004 2.24,-4.959999 1.76,-5.119995 1.44,-5.120003 1.12,-5.279998 0.64,-5.279999 0.32,-5.440003 v -5.279998 l -0.48,-5.440003 -0.8,-5.279999 -1.28,-5.279998 -1.6,-5.119999 -1.92,-5.120003 -2.24,-4.799999 -2.56,-4.64 -3.040001,-4.479999 -3.199997,-4.320002 -3.68,-3.999999 -3.840004,-3.84 -4,-3.52 L 77.440002,4.48 72.959999,1.6 68.160004,-0.96"
       style="fill:none;stroke:#000000;stroke-width:26.4;stroke-linecap:round;stroke-linejoin:round;stroke-miterlimit:10;stroke-dasharray:none;stroke-opacity:1"
       transform="translate(229.60001,569.91992)"
       clip-path="url(#clipPath6)" />
    <path
       id="path7"
       d="M 340.16,617.91998 541.44,419.51999"
       style="fill:none;stroke:#000000;stroke-width:26.4;stroke-linecap:round;stroke-linejoin:round;stroke-miterlimit:10;stroke-dasharray:none;stroke-opacity:1"
       transform="translate(0,-5.8666667e-5)"
       clip-path="url(#clipPath8)" />
    <path
       id="path9"
       d="M 340.16,655.67999 593.44,475.20001"
       style="fill:none;stroke:#000000;stroke-width:26.4;stroke-linecap:round;stroke-linejoin:round;stroke-miterlimit:10;stroke-dasharray:none;stroke-opacity:1"
       transform="translate(0,-5.8666667e-5)"
       clip-path="url(#clipPath10)" />
  </g>
</svg>
