<?xml version="1.0" encoding="UTF-8" standalone="no"?>
<!-- Created with Inkscape (http://www.inkscape.org/) -->

<svg
   version="1.1"
   id="svg1"
   width="498.93332"
   height="282.97333"
   viewBox="0 0 498.93332 282.97333"
   sodipodi:docname="Receiver2.pdf"
   xmlns:inkscape="http://www.inkscape.org/namespaces/inkscape"
   xmlns:sodipodi="http://sodipodi.sourceforge.net/DTD/sodipodi-0.dtd"
   xmlns="http://www.w3.org/2000/svg"
   xmlns:svg="http://www.w3.org/2000/svg">
  <defs
     id="defs1">
    <clipPath
       clipPathUnits="userSpaceOnUse"
       id="clipPath2">
      <path
         d="M 0,0.16 V 1122.5601 H 793.59998 V 0.16 Z"
         transform="translate(-620.32001,-530.64002)"
         clip-rule="evenodd"
         id="path2" />
    </clipPath>
    <clipPath
       clipPathUnits="userSpaceOnUse"
       id="clipPath4">
      <path
         d="M 0,0.16 V 1122.5601 H 793.59998 V 0.16 Z"
         transform="translate(-288.32001,-595.44001)"
         clip-rule="evenodd"
         id="path4" />
    </clipPath>
    <clipPath
       clipPathUnits="userSpaceOnUse"
       id="clipPath6">
      <path
         d="M 0,0.16 V 1122.5601 H 793.59998 V 0.16 Z"
         transform="translate(-208.32001,-605.68)"
         clip-rule="evenodd"
         id="path6" />
    </clipPath>
    <clipPath
       clipPathUnits="userSpaceOnUse"
       id="clipPath8">
      <path
         d="M 0,0.16 V 1122.5601 H 793.59998 V 0.16 Z"
         transform="translate(-379.68,-538.23999)"
         clip-rule="evenodd"
         id="path8" />
    </clipPath>
    <clipPath
       clipPathUnits="userSpaceOnUse"
       id="clipPath10">
      <path
         d="M 0,0.16 V 1122.5601 H 793.59998 V 0.16 Z"
         transform="translate(-380.48001,-543.52002)"
         clip-rule="evenodd"
         id="path10" />
    </clipPath>
    <clipPath
       clipPathUnits="userSpaceOnUse"
       id="clipPath12">
      <path
         d="M 0,0.16 V 1122.5601 H 793.59998 V 0.16 Z"
         transform="translate(-319.20002,-538.23999)"
         clip-rule="evenodd"
         id="path12" />
    </clipPath>
    <clipPath
       clipPathUnits="userSpaceOnUse"
       id="clipPath14">
      <path
         d="M 0,0.16 V 1122.5601 H 793.59998 V 0.16 Z"
         transform="translate(-319.20002,-538.23999)"
         clip-rule="evenodd"
         id="path14" />
    </clipPath>
    <clipPath
       clipPathUnits="userSpaceOnUse"
       id="clipPath16">
      <path
         d="M 0,0.16 V 1122.5601 H 793.59998 V 0.16 Z"
         transform="translate(-245.12,-533.91999)"
         clip-rule="evenodd"
         id="path16" />
    </clipPath>
  </defs>
  <sodipodi:namedview
     id="namedview1"
     pagecolor="#505050"
     bordercolor="#eeeeee"
     borderopacity="1"
     inkscape:showpageshadow="0"
     inkscape:pageopacity="0"
     inkscape:pagecheckerboard="0"
     inkscape:deskcolor="#505050">
    <inkscape:page
       x="0"
       y="0"
       inkscape:label="1"
       id="page1"
       width="498.93332"
       height="282.97333"
       margin="0"
       bleed="0" />
  </sodipodi:namedview>
  <g
     id="g1"
     inkscape:groupmode="layer"
     inkscape:label="1">
    <path
       id="path1"
       d="m 0,0 c 0,-11.79 -9.56,-21.360001 -21.360001,-21.360001 -11.799999,0 -21.36,9.570001 -21.36,21.360001 0,11.79 9.560001,21.360001 21.36,21.360001 C -9.56,21.360001 0,11.79 0,0 Z"
       style="fill:none;stroke:#000000;stroke-width:26.4;stroke-linecap:round;stroke-linejoin:round;stroke-miterlimit:10;stroke-dasharray:none;stroke-opacity:1"
       transform="translate(477.57334,116.85329)"
       clip-path="url(#clipPath2)" />
    <path
       id="path3"
       d="m 0,0 c 0,-11.79 -9.56,-21.360001 -21.360001,-21.360001 -11.799999,0 -21.36,9.570001 -21.36,21.360001 0,11.79 9.560001,21.360001 21.36,21.360001 C -9.56,21.360001 0,11.79 0,0 Z"
       style="fill:none;stroke:#000000;stroke-width:26.4;stroke-linecap:round;stroke-linejoin:round;stroke-miterlimit:10;stroke-dasharray:none;stroke-opacity:1"
       transform="translate(145.57334,181.65328)"
       clip-path="url(#clipPath4)" />
    <path
       id="path5"
       d="m 0,0 c 0,-11.79 -9.56,-21.360001 -21.360001,-21.360001 -11.799999,0 -21.36,9.570001 -21.36,21.360001 0,11.79 9.560001,21.360001 21.36,21.360001 C -9.56,21.360001 0,11.79 0,0 Z"
       style="fill:none;stroke:#000000;stroke-width:26.4;stroke-linecap:round;stroke-linejoin:round;stroke-miterlimit:10;stroke-dasharray:none;stroke-opacity:1"
       transform="translate(65.57334,191.89327)"
       clip-path="url(#clipPath6)" />
    <path
       id="path7"
       d="m 0,0 -0.16,-6.24 -0.64,-6.24 -1.12,-6.399999 -1.44,-6.08 -1.76,-6.080002 -2.24,-5.919998 -2.72,-5.760002 -3.04,-5.599999 -3.36,-5.439998 -3.68,-5.120003 -4,-4.959999 -4.32,-4.640003 -4.639999,-4.32 -4.960003,-4 -5.279999,-3.68 -5.279998,-3.359993 -5.760003,-2.880005 -5.759998,-2.720001 -5.920002,-2.079995 -6.080002,-1.920005 -6.239998,-1.279999 -6.239997,-1.119995 -6.400002,-0.480004 -6.239998,-0.160003 -6.400001,0.160003 -6.4,0.800003 -6.24,0.959999 -6.08,1.599999 -6.08,1.919998 -5.91999,2.239998 -5.76001,2.720001 -5.59999,3.040001 -5.44001,3.360001 -5.12001,3.68 -4.79998,4.160004 -4.64,4.319999 -4.32001,4.799996 -3.84,4.960003 -3.68001,5.119999 -3.36,5.439998 -2.87999,5.600003 -2.55999,5.919998 -2.24001,5.92 -1.75999,6.08 -1.28,6.239999 -0.96001,6.240001 -0.47999,6.4 -0.16001,6.4 0.31999,6.24 0.64,6.4 1.12001,6.24 1.59999,6.079999 1.92002,6.08 2.39999,5.920002 2.72,5.759999 2.88001,5.439998"
       style="fill:none;stroke:#000000;stroke-width:26.4;stroke-linecap:round;stroke-linejoin:round;stroke-miterlimit:10;stroke-dasharray:none;stroke-opacity:1"
       transform="translate(236.93333,124.45326)"
       clip-path="url(#clipPath8)" />
    <path
       id="path9"
       d="M 0,0 0.32,5.28 0.96,10.72 1.92,16 3.36,21.120001 5.28,26.24 7.52,31.200001 10.08,36.16 l 3.04,4.639999 3.36,4.48 3.68,4.319999 4,4.16 4.32,4 4.639999,3.520001 4.799999,3.520004 5.120003,3.039993 5.439999,2.880005 5.600002,2.400002 5.759998,2.239998 5.920002,1.919998 6.079994,1.599998 L 77.919998,80 l 6.240006,0.959999 6.239998,0.480003 6.400001,0.159996 6.239997,-0.159996 6.4,-0.480003 L 115.68,80 l 6.08,-1.120003 6.08,-1.599998 5.91999,-1.919998 5.76001,-2.239998 5.59999,-2.400002 5.44001,-2.880005 5.11999,-3.039993 4.80001,-3.520004 4.63999,-3.520001 4.32001,-4 4,-4.16 3.67999,-4.319999 3.36001,-4.48 L 183.52,36.16 186.08,31.200001 188.32001,26.24 190.08,21.120001 191.52,16 192.64,10.72 193.28,5.28 193.44,0"
       style="fill:none;stroke:#000000;stroke-width:26.4;stroke-linecap:round;stroke-linejoin:round;stroke-miterlimit:10;stroke-dasharray:none;stroke-opacity:1"
       transform="translate(237.73334,129.73329)"
       clip-path="url(#clipPath10)" />
    <path
       id="path11"
       d="m 0,0 1.12,8.32 1.6,8.16 1.92,8 2.4,7.84 2.88,7.68 3.2,7.68 3.679999,7.360001 4,7.200001 4.480002,6.880001 4.799999,6.719993 5.120001,6.400002 5.439998,6.240005 5.920002,5.759995 6.079998,5.599998 6.400002,5.120004 6.720001,4.8 6.879997,4.48 7.199997,4 7.360001,3.68 7.520004,3.36 7.839999,2.88 7.84,2.4 8,1.92 8.16,1.6 8.16,1.12 8.16,0.64 8.15999,0.16 8.32001,-0.16 8.16,-0.64 8.15999,-1.12 8.16001,-1.6 8,-1.92 7.83999,-2.4 7.84001,-2.88 7.51999,-3.36 7.36,-3.68 7.20002,-4 6.87999,-4.48 6.72,-4.8 6.40001,-5.120004 6.07998,-5.599998 5.92002,-5.759995 5.44,-6.240005 5.11999,-6.400002 4.79999,-6.719993 4.48001,-6.880001 4,-7.200001 3.68,-7.360001 3.20001,-7.68 2.88,-7.68 2.4,-7.84 1.91998,-8 L 301.12,8.32 302.07999,0"
       style="fill:none;stroke:#000000;stroke-width:26.4;stroke-linecap:round;stroke-linejoin:round;stroke-miterlimit:10;stroke-dasharray:none;stroke-opacity:1"
       transform="translate(176.45335,124.45326)"
       clip-path="url(#clipPath12)" />
    <path
       id="path13"
       d="M 0,0 0.64,-3.36 0.8,-7.04 0.64,-10.56 0.32,-14.08 -0.48,-17.6 -1.6,-20.959999 -3.04,-24.32 -4.8,-27.52 -6.72,-30.4 -9.12,-33.119999 -11.52,-35.68 -14.4,-38.080002 -17.280001,-40 -20.32,-41.759998 l -3.36,-1.600003 -3.360001,-1.119999 -3.519998,-0.799999 -3.520003,-0.479999 -3.519996,-0.16 -3.680001,0.16 -3.52,0.479999 L -48.32,-44.48 l -3.36,1.119999 -3.200001,1.600003 L -58.080002,-40 -60.959999,-38.080002 -63.84,-35.68 l -2.399998,2.560001 -2.240005,2.719999 -2.079995,2.88 -1.760002,3.2 -1.440002,3.360001 -1.119995,3.359999 -0.64,3.52 L -76,-10.56 -76.160004,-7.04 -76,-3.36 -75.519997,0"
       style="fill:none;stroke:#000000;stroke-width:26.4;stroke-linecap:round;stroke-linejoin:round;stroke-miterlimit:10;stroke-dasharray:none;stroke-opacity:1"
       transform="translate(176.45335,124.45326)"
       clip-path="url(#clipPath14)" />
    <path
       id="path15"
       d="M 0,0 -0.32,3.52 V 6.88 L 0,10.4 0.64,13.76 1.6,16.959999 2.88,20.16 4.48,23.200001 6.4,25.92 l 2.24,2.719999 2.4,2.24"
       style="fill:none;stroke:#000000;stroke-width:26.4;stroke-linecap:round;stroke-linejoin:round;stroke-miterlimit:10;stroke-dasharray:none;stroke-opacity:1"
       transform="translate(102.37333,120.13326)"
       clip-path="url(#clipPath16)" />
  </g>
</svg>
