<?xml version="1.0" encoding="UTF-8" standalone="no"?>
<!-- Created with Inkscape (http://www.inkscape.org/) -->

<svg
   version="1.1"
   id="svg1"
   width="350.86667"
   height="503.21332"
   viewBox="0 0 350.86667 503.21332"
   sodipodi:docname="Retorte6.pdf"
   xmlns:inkscape="http://www.inkscape.org/namespaces/inkscape"
   xmlns:sodipodi="http://sodipodi.sourceforge.net/DTD/sodipodi-0.dtd"
   xmlns="http://www.w3.org/2000/svg"
   xmlns:svg="http://www.w3.org/2000/svg">
  <defs
     id="defs1">
    <clipPath
       clipPathUnits="userSpaceOnUse"
       id="clipPath2">
      <path
         d="M 0,0.16 V 1122.5601 H 793.59998 V 0.16 Z"
         transform="translate(3.3333333e-6)"
         clip-rule="evenodd"
         id="path2" />
    </clipPath>
    <clipPath
       clipPathUnits="userSpaceOnUse"
       id="clipPath4">
      <path
         d="M 0,0.16 V 1122.5601 H 793.59998 V 0.16 Z"
         transform="translate(3.3333333e-6)"
         clip-rule="evenodd"
         id="path4" />
    </clipPath>
    <clipPath
       clipPathUnits="userSpaceOnUse"
       id="clipPath6">
      <path
         d="M 0,0.16 V 1122.5601 H 793.59998 V 0.16 Z"
         transform="translate(3.3333333e-6)"
         clip-rule="evenodd"
         id="path6" />
    </clipPath>
    <clipPath
       clipPathUnits="userSpaceOnUse"
       id="clipPath8">
      <path
         d="M 0,0.16 V 1122.5601 H 793.59998 V 0.16 Z"
         transform="translate(-368.32001,-711.84003)"
         clip-rule="evenodd"
         id="path8" />
    </clipPath>
    <clipPath
       clipPathUnits="userSpaceOnUse"
       id="clipPath10">
      <path
         d="M 0,0.16 V 1122.5601 H 793.59998 V 0.16 Z"
         transform="translate(3.3333333e-6)"
         clip-rule="evenodd"
         id="path10" />
    </clipPath>
    <clipPath
       clipPathUnits="userSpaceOnUse"
       id="clipPath12">
      <path
         d="M 0,0.16 V 1122.5601 H 793.59998 V 0.16 Z"
         transform="translate(-306.23999,-713.91998)"
         clip-rule="evenodd"
         id="path12" />
    </clipPath>
  </defs>
  <sodipodi:namedview
     id="namedview1"
     pagecolor="#505050"
     bordercolor="#eeeeee"
     borderopacity="1"
     inkscape:showpageshadow="0"
     inkscape:pageopacity="0"
     inkscape:pagecheckerboard="0"
     inkscape:deskcolor="#505050">
    <inkscape:page
       x="0"
       y="0"
       inkscape:label="1"
       id="page1"
       width="350.86667"
       height="503.21332"
       margin="0"
       bleed="0" />
  </sodipodi:namedview>
  <g
     id="g1"
     inkscape:groupmode="layer"
     inkscape:label="1">
    <path
       id="path1"
       d="M 307.67999,412.95999 V 864.47998"
       style="fill:none;stroke:#000000;stroke-width:26.4;stroke-linecap:round;stroke-linejoin:round;stroke-miterlimit:10;stroke-dasharray:none;stroke-opacity:1"
       transform="translate(-208.10667,-387.09339)"
       clip-path="url(#clipPath2)" />
    <path
       id="path3"
       d="m 307.67999,412.95999 -58.07998,17.12"
       style="fill:none;stroke:#000000;stroke-width:26.4;stroke-linecap:round;stroke-linejoin:round;stroke-miterlimit:10;stroke-dasharray:none;stroke-opacity:1"
       transform="translate(-208.10667,-387.09339)"
       clip-path="url(#clipPath4)" />
    <path
       id="path5"
       d="m 233.11999,506.72 129.28,-17.76001"
       style="fill:none;stroke:#000000;stroke-width:26.4;stroke-linecap:round;stroke-linejoin:round;stroke-miterlimit:10;stroke-dasharray:none;stroke-opacity:1"
       transform="translate(-208.10667,-387.09339)"
       clip-path="url(#clipPath6)" />
    <path
       id="path7"
       d="M 0,0 7.04,-0.32 13.92,-1.12 20.639999,-2.4 27.52,-4.16 34.080002,-6.24 40.48,-8.8 l 6.400001,-2.88 6.079998,-3.2 5.920002,-3.679999 5.600002,-4.16 5.439995,-4.320002 5.120003,-4.799999 4.799995,-4.959999 4.480004,-5.280003 4,-5.599998 3.840004,-5.759999 3.359993,-6.080001 3.040001,-6.240002 2.720002,-6.400002 2.24,-6.559997 1.76,-6.720001 1.44,-6.879998 0.96,-6.879997 0.64,-6.880003 v -6.88 L 108,-120 l -0.64,-6.88 -1.28,-6.87999 -1.6,-6.72001 -1.92,-6.72 -2.56,-6.40001 -2.720001,-6.39999 -3.199997,-6.08 -3.68,-5.92 -3.840004,-5.75999 -4.32,-5.44001 -4.64,-5.28 -4.959999,-4.8 -5.279998,-4.47999 L 61.919998,-202.08 56,-205.92 l -5.919998,-3.52 -6.240002,-3.04 -6.400001,-2.88 -6.56,-2.24001 L 24.32,-219.52 17.440001,-221.11999 10.56,-222.08 l -6.88,-0.64 -7.04,-0.31999"
       style="fill:none;stroke:#000000;stroke-width:26.4;stroke-linecap:round;stroke-linejoin:round;stroke-miterlimit:10;stroke-dasharray:none;stroke-opacity:1"
       transform="translate(160.21334,324.74664)"
       clip-path="url(#clipPath8)" />
    <path
       id="path9"
       d="M 306.39999,713.91998 368.32001,712"
       style="fill:none;stroke:#000000;stroke-width:26.4;stroke-linecap:round;stroke-linejoin:round;stroke-miterlimit:10;stroke-dasharray:none;stroke-opacity:1"
       transform="translate(-208.10667,-387.09339)"
       clip-path="url(#clipPath10)" />
    <path
       id="path11"
       d="M 0,0 9.92,12 20,23.52 l 10.559999,11.200001 10.88,10.879997 11.36,10.400002 11.680004,10.080002 12,9.599998 12.32,9.279999 12.639997,8.800003 12.96,8.319998 13.12,7.84 13.59999,7.52 13.60001,6.88 14.08,6.56 14.08,5.92 14.4,5.59999 14.56,4.96001 14.55999,4.48"
       style="fill:none;stroke:#000000;stroke-width:26.4;stroke-linecap:round;stroke-linejoin:round;stroke-miterlimit:10;stroke-dasharray:none;stroke-opacity:1"
       transform="translate(98.133323,326.82659)"
       clip-path="url(#clipPath12)" />
  </g>
</svg>
