<?xml version="1.0" encoding="UTF-8" standalone="no"?>
<!-- Created with Inkscape (http://www.inkscape.org/) -->

<svg
   version="1.1"
   id="svg1"
   width="505.60001"
   height="445.81332"
   viewBox="0 0 505.60001 445.81332"
   sodipodi:docname="SandCupel.pdf"
   xmlns:inkscape="http://www.inkscape.org/namespaces/inkscape"
   xmlns:sodipodi="http://sodipodi.sourceforge.net/DTD/sodipodi-0.dtd"
   xmlns="http://www.w3.org/2000/svg"
   xmlns:svg="http://www.w3.org/2000/svg">
  <defs
     id="defs1">
    <clipPath
       clipPathUnits="userSpaceOnUse"
       id="clipPath2">
      <path
         d="M 0,0.16 V 1122.5601 H 793.59998 V 0.16 Z"
         transform="translate(-396.95999,-399.84)"
         clip-rule="evenodd"
         id="path2" />
    </clipPath>
    <clipPath
       clipPathUnits="userSpaceOnUse"
       id="clipPath4">
      <path
         d="M 0,0.16 V 1122.5601 H 793.59998 V 0.16 Z"
         transform="translate(-396.95999,-399.84)"
         clip-rule="evenodd"
         id="path4" />
    </clipPath>
    <clipPath
       clipPathUnits="userSpaceOnUse"
       id="clipPath6">
      <path
         d="M 0,0.16 V 1122.5601 H 793.59998 V 0.16 Z"
         clip-rule="evenodd"
         id="path6" />
    </clipPath>
    <clipPath
       clipPathUnits="userSpaceOnUse"
       id="clipPath8">
      <path
         d="M 0,0.16 V 1122.5601 H 793.59998 V 0.16 Z"
         transform="translate(-184,-685.44)"
         clip-rule="evenodd"
         id="path8" />
    </clipPath>
  </defs>
  <sodipodi:namedview
     id="namedview1"
     pagecolor="#505050"
     bordercolor="#eeeeee"
     borderopacity="1"
     inkscape:showpageshadow="0"
     inkscape:pageopacity="0"
     inkscape:pagecheckerboard="0"
     inkscape:deskcolor="#505050">
    <inkscape:page
       x="0"
       y="0"
       inkscape:label="1"
       id="page1"
       width="505.60001"
       height="445.81332"
       margin="0"
       bleed="0" />
  </sodipodi:namedview>
  <g
     id="g1"
     inkscape:groupmode="layer"
     inkscape:label="1">
    <path
       id="path1"
       d="m 0,0 -7.52,-5.28 -7.84,-4.96 -8.000001,-4.64 -8.479999,-4.320001 -8.48,-3.84 L -48.959999,-26.4 -57.919998,-29.280001 -66.879997,-31.84 -76,-33.919998 -85.120003,-35.52 l -9.279999,-1.119999 -9.439998,-0.8 -9.28,-0.159999 -9.28,0.159999 -9.44,0.8 -9.27999,1.119999 -9.12001,1.600002 -9.12,2.079998 -8.96001,2.559999 -8.95999,2.880001 -8.64,3.359999 -8.47999,3.84 -8.32001,4.320001 -8.16,4.64 -7.84,4.96 -7.67999,5.28"
       style="fill:none;stroke:#000000;stroke-width:26.4;stroke-linecap:round;stroke-linejoin:round;stroke-miterlimit:10;stroke-dasharray:none;stroke-opacity:1"
       transform="translate(252.87999,63.466604)"
       clip-path="url(#clipPath2)" />
    <path
       id="path3"
       d="m 0,0 7.84,5.6 7.84,4.96 8,4.64 8.32,4.32 8.639999,3.840001 8.64,3.359998 L 58.240002,29.6 67.199997,32.16 76.32,34.240002 85.440002,35.84 l 9.279999,1.119999 9.439999,0.639999 9.28,0.32 9.28,-0.32 9.44,-0.639999 L 141.28,35.84 150.56,34.240002 159.67999,32.16 168.64,29.6 177.60001,26.719999 186.24,23.360001 194.72,19.52 203.03999,15.2 211.2,10.56 219.03999,5.6 226.56,0"
       style="fill:none;stroke:#000000;stroke-width:26.4;stroke-linecap:round;stroke-linejoin:round;stroke-miterlimit:10;stroke-dasharray:none;stroke-opacity:1"
       transform="translate(252.87999,63.466604)"
       clip-path="url(#clipPath4)" />
    <path
       id="path5"
       d="m 401.92001,401.12 -110.72,321.28002"
       style="fill:none;stroke:#000000;stroke-width:26.4;stroke-linecap:round;stroke-linejoin:round;stroke-miterlimit:10;stroke-dasharray:none;stroke-opacity:1"
       transform="translate(-144.08,-336.37339)"
       clip-path="url(#clipPath6)" />
    <path
       id="path7"
       d="m 0,0 -1.12,4.32 -0.96,4.32 -0.64,4.32 -0.16,4.480001 0.16,4.319999 0.48,4.48 0.8,4.319999 1.12,4.320002 1.44,4.16 1.76,4 2.08,4 2.4,3.68 2.72,3.520001 3.04,3.359996 3.2,3.040001 3.36,2.720002 3.680001,2.559997 3.84,2.240006 4,1.919998 4.16,1.599998 4.159999,1.279999 4.32,0.959999 4.48,0.64 4.319999,0.160003 h 4.48 l 4.32,-0.480003 4.479999,-0.799996 4.32,-1.120002 4.160004,-1.440003 4,-1.759994 4,-2.080002 3.68,-2.400002 3.519996,-2.559997 3.360001,-3.040001 L 96,55.84 98.879997,52.48 101.28,48.799999 l 2.4,-3.84 1.92,-3.84 1.44,-4.32"
       style="fill:none;stroke:#000000;stroke-width:26.4;stroke-linecap:round;stroke-linejoin:round;stroke-miterlimit:10;stroke-dasharray:none;stroke-opacity:1"
       transform="translate(39.92,349.06661)"
       clip-path="url(#clipPath8)" />
  </g>
</svg>
