<?xml version="1.0" encoding="UTF-8" standalone="no"?>
<!-- Created with Inkscape (http://www.inkscape.org/) -->

<svg
   version="1.1"
   id="svg1"
   width="446.90668"
   height="509.89334"
   viewBox="0 0 446.90668 509.89334"
   sodipodi:docname="SandCupel3.pdf"
   xmlns:inkscape="http://www.inkscape.org/namespaces/inkscape"
   xmlns:sodipodi="http://sodipodi.sourceforge.net/DTD/sodipodi-0.dtd"
   xmlns="http://www.w3.org/2000/svg"
   xmlns:svg="http://www.w3.org/2000/svg">
  <defs
     id="defs1">
    <clipPath
       clipPathUnits="userSpaceOnUse"
       id="clipPath2">
      <path
         d="M 0,0.16 V 1122.5601 H 793.59998 V 0.16 Z"
         transform="translate(-201.76,-717.59997)"
         clip-rule="evenodd"
         id="path2" />
    </clipPath>
    <clipPath
       clipPathUnits="userSpaceOnUse"
       id="clipPath4">
      <path
         d="M 0,0.16 V 1122.5601 H 793.59998 V 0.16 Z"
         transform="translate(-594.71997,-410.23999)"
         clip-rule="evenodd"
         id="path4" />
    </clipPath>
    <clipPath
       clipPathUnits="userSpaceOnUse"
       id="clipPath6">
      <path
         d="M 0,0.16 V 1122.5601 H 793.59998 V 0.16 Z"
         transform="translate(-297.11999,-561.28003)"
         clip-rule="evenodd"
         id="path6" />
    </clipPath>
    <clipPath
       clipPathUnits="userSpaceOnUse"
       id="clipPath8">
      <path
         d="M 0,0.16 V 1122.5601 H 793.59998 V 0.16 Z"
         transform="translate(-523.67999,-561.28003)"
         clip-rule="evenodd"
         id="path8" />
    </clipPath>
    <clipPath
       clipPathUnits="userSpaceOnUse"
       id="clipPath10">
      <path
         d="M 0,0.16 V 1122.5601 H 793.59998 V 0.16 Z"
         transform="translate(-297.11999,-561.28003)"
         clip-rule="evenodd"
         id="path10" />
    </clipPath>
    <clipPath
       clipPathUnits="userSpaceOnUse"
       id="clipPath12">
      <path
         d="M 0,0.16 V 1122.5601 H 793.59998 V 0.16 Z"
         transform="translate(-523.67999,-561.28003)"
         clip-rule="evenodd"
         id="path12" />
    </clipPath>
  </defs>
  <sodipodi:namedview
     id="namedview1"
     pagecolor="#505050"
     bordercolor="#eeeeee"
     borderopacity="1"
     inkscape:showpageshadow="0"
     inkscape:pageopacity="0"
     inkscape:pagecheckerboard="0"
     inkscape:deskcolor="#505050">
    <inkscape:page
       x="0"
       y="0"
       inkscape:label="1"
       id="page1"
       width="446.90668"
       height="509.89334"
       margin="0"
       bleed="0" />
  </sodipodi:namedview>
  <g
     id="g1"
     inkscape:groupmode="layer"
     inkscape:label="1">
    <path
       id="path1"
       d="m 0,0 3.84,7.36 3.84,7.04 4,6.720001 4.16,6.24 4.32,5.919998 4.479999,5.600002 L 29.120001,44 l 4.639997,4.639999 4.800003,4.16 4.959999,3.84 L 48.48,60 l 4.959999,2.720001 5.120002,2.559998 5.119999,1.919998 5.120003,1.440002 5.119995,0.959999 5.279999,0.480004 h 5.280006 L 89.599998,69.599998 94.879997,68.800003 100,67.360001 l 5.12,-1.919999 5.12,-2.400001 4.96,-2.720001 4.96,-3.360001 4.96,-3.68 4.8,-4.16 L 134.56,44.48 139.03999,39.360001 143.52,33.919998 147.84,28 152,21.76 l 4,-6.56 4,-7.04 3.67999,-7.36 3.52001,-7.68 3.36,-8 3.19999,-8.320001 2.88001,-8.479999 2.88,-8.959999 2.56,-8.959999 2.24001,-9.440003 2.23999,-9.440002 1.92,-9.759995 1.6,-9.920006 1.44,-9.919998 1.28,-10.239998 0.95999,-10.24 0.80001,-10.24 0.47999,-10.4 0.32001,-10.40001 V -160.16 l -0.16,-10.4 -0.48,-10.40001 -0.64,-10.23999 -0.96001,-10.40001 -1.11999,-10.07998 -1.44,-10.08 -1.59999,-9.92 -1.92002,-9.76001 -2.07998,-9.59999 -2.24001,-9.44002 -2.56,-9.12 -2.72,-8.95999 -2.88,-8.64001 -3.04,-8.31998 -3.36,-8.16 -3.52,-7.68 -3.67999,-7.52001 -3.68001,-7.04001 -4,-6.72 -4.16001,-6.4 -4.31999,-5.91998 -4.47999,-5.60001 -4.48001,-5.11999 -4.64,-4.80002 -4.8,-4.31998 -4.8,-3.84002 -4.96,-3.51999 -4.96,-2.88001 -5.12,-2.56 -5.12,-1.91998 -5.12,-1.60001 -5.120003,-1.11999 -5.279999,-0.48001 -5.279999,-0.16 -5.120002,0.32 -5.279999,0.79999 -5.119995,1.44 L 60,-378.56 l -5.119999,2.23999 -4.960003,2.72 -4.959999,3.20002 L 40,-366.72 l -4.799999,4.16 -4.640002,4.48001 -4.639999,4.95999 -4.479999,5.44001 -4.32,5.75998 -4.160001,6.24002 -4.16,6.55999 -3.84,6.88001 -3.84,7.19998 -3.52,7.68002"
       style="fill:none;stroke:#000000;stroke-width:26.4;stroke-linecap:round;stroke-linejoin:round;stroke-miterlimit:10;stroke-dasharray:none;stroke-opacity:1"
       transform="translate(21.666662,413.26658)"
       clip-path="url(#clipPath2)" />
    <path
       id="path3"
       d="m 0,0 -3.52,-7.68 -3.68,-7.2 -3.84,-6.88 -4.16,-6.56 -4.160001,-6.240001 L -23.68,-40.32 l -4.48,-5.439998 -4.639999,-4.960003 -4.64,-4.48 -4.800003,-4.16 -4.959999,-3.68 -4.959999,-3.199997 -4.959999,-2.720001 -5.120003,-2.239998 -5.119999,-1.760002 -5.120002,-1.440003 -5.279999,-0.799995 -5.279999,-0.32 -5.120003,0.159996 -5.279998,0.480004 -5.119996,1.119995 -5.120002,1.599998 -5.12,1.920006 -5.12,2.559998 -4.96,2.879997 -4.96,3.520004 -4.8,3.84 -4.8,4.32 -4.64,4.799999 -4.64,5.119999 -4.31999,5.600003 -4.32001,5.919998 -4.16,6.399999 -4,6.720002 -3.68,7.039999 -3.68,7.52 -3.51999,7.68 -3.36,8.16 -3.04001,8.32 -2.87999,8.639999 -2.72,8.959999 -2.56002,9.120003 L -187.2,56.32 l -2.08,9.599998 -1.92,9.760002 -1.6,9.919998 -1.44,10.080002 -1.12,10.08 -0.96001,10.4 -0.64,10.24 -0.47999,10.4 -0.16001,10.4 v 10.55999 l 0.32001,10.40001 0.48,10.4 0.8,10.24 0.96001,10.23999 1.28,10.24001 1.43998,9.92 1.60001,9.91999 1.92,9.76001 2.24,9.44001 2.23999,9.44 2.56002,8.95999 2.87999,8.95999 2.88,8.48001 3.2,8.32001 3.36,8 3.52,7.67999 3.68,7.35999 3.84001,7.04001 4.15999,6.56 4.16,6.23999 4.32001,5.92001 4.47999,5.44 4.48,5.12 4.64,4.64001 4.8,4.16 4.96,3.68 4.96,3.35998 4.96,2.72 5.12,2.4 5.12,1.92001 5.119997,1.44 5.280007,0.79999 5.119995,0.48001 h 5.279999 L -76.32,376.95999 -71.040001,376 l 5.120003,-1.44 5.119999,-1.91999 5.119999,-2.56002 4.959999,-2.72 L -45.759998,364 -40.799999,360.16 -36,356 l 4.639999,-4.64001 4.480002,-5.12 4.479999,-5.59998 4.32,-5.92001 4.16,-6.23999 4,-6.72 3.84,-7.04001 3.68,-7.36001"
       style="fill:none;stroke:#000000;stroke-width:26.4;stroke-linecap:round;stroke-linejoin:round;stroke-miterlimit:10;stroke-dasharray:none;stroke-opacity:1"
       transform="translate(414.62664,105.9066)"
       clip-path="url(#clipPath4)" />
    <path
       id="path5"
       d="m 0,0 -0.16,-1.76 -0.32,-1.76 -0.64,-1.6 -0.64,-1.6 -0.96,-1.44 -1.28,-1.28 -1.28,-1.12 -1.44,-0.96 -1.44,-0.8 -1.76,-0.48 -1.6,-0.32 -1.76,-0.16 -1.76,0.16 -1.599999,0.32 -1.760001,0.48 -1.44,0.8 -1.440001,0.96 -1.279998,1.12 -1.280001,1.28 -0.959999,1.44 -0.640002,1.6 L -26.08,-3.52 -26.4,-1.76 -26.559999,0 -26.4,1.6 l 0.32,1.76 0.639999,1.6 0.640002,1.6 L -23.84,8 l 1.280001,1.28 1.279998,1.12 1.440001,0.96 1.44,0.8 1.760001,0.48 1.599999,0.48 h 1.76 1.76 l 1.6,-0.48 1.76,-0.48 1.44,-0.8 L -5.28,10.4 -4,9.28 -2.72,8 -1.76,6.56 -1.12,4.96 -0.48,3.36 -0.16,1.6 0,0 v 0 z"
       style="fill:#000000;fill-opacity:1;fill-rule:evenodd;stroke:none"
       transform="translate(117.02666,256.94664)"
       clip-path="url(#clipPath6)" />
    <path
       id="path7"
       d="m 0,0 -0.16,-1.76 -0.32,-1.76 -0.64,-1.6 -0.8,-1.6 -0.96,-1.44 -1.12,-1.28 -1.28,-1.12 -1.44,-0.96 -1.44,-0.8 -1.76,-0.48 -1.6,-0.32 -1.76,-0.16 -1.76,0.16 -1.599999,0.32 -1.760001,0.48 -1.44,0.8 -1.440001,0.96 -1.279998,1.12 -1.280001,1.28 -0.959999,1.44 -0.640002,1.6 L -26.08,-3.52 -26.4,-1.76 -26.559999,0 -26.4,1.6 l 0.32,1.76 0.639999,1.6 0.640002,1.6 L -23.84,8 l 1.280001,1.28 1.279998,1.12 1.440001,0.96 1.44,0.8 1.760001,0.48 1.599999,0.48 h 1.76 1.76 l 1.6,-0.48 1.76,-0.48 1.44,-0.8 L -5.28,10.4 -4,9.28 -2.88,8 -1.92,6.56 -1.12,4.96 -0.48,3.36 -0.16,1.6 0,0 v 0 z"
       style="fill:#000000;fill-opacity:1;fill-rule:evenodd;stroke:none"
       transform="translate(343.58666,256.94664)"
       clip-path="url(#clipPath8)" />
    <path
       id="path9"
       d="m 0,0 -0.16,-1.76 -0.32,-1.76 -0.64,-1.6 -0.64,-1.6 -0.96,-1.44 -1.28,-1.28 -1.28,-1.12 -1.44,-0.96 -1.44,-0.8 -1.76,-0.48 -1.6,-0.32 -1.76,-0.16 -1.76,0.16 -1.599999,0.32 -1.760001,0.48 -1.44,0.8 -1.440001,0.96 -1.279998,1.12 -1.280001,1.28 -0.959999,1.44 -0.640002,1.6 L -26.08,-3.52 -26.4,-1.76 -26.559999,0 -26.4,1.6 l 0.32,1.76 0.639999,1.6 0.640002,1.6 L -23.84,8 l 1.280001,1.28 1.279998,1.12 1.440001,0.96 1.44,0.8 1.760001,0.48 1.599999,0.48 h 1.76 1.76 l 1.6,-0.48 1.76,-0.48 1.44,-0.8 L -5.28,10.4 -4,9.28 -2.72,8 -1.76,6.56 -1.12,4.96 -0.48,3.36 -0.16,1.6 0,0"
       style="fill:none;stroke:#000000;stroke-width:0.64;stroke-linecap:round;stroke-linejoin:round;stroke-miterlimit:10;stroke-dasharray:none;stroke-opacity:1"
       transform="translate(117.02666,256.94664)"
       clip-path="url(#clipPath10)" />
    <path
       id="path11"
       d="m 0,0 -0.16,-1.76 -0.32,-1.76 -0.64,-1.6 -0.8,-1.6 -0.96,-1.44 -1.12,-1.28 -1.28,-1.12 -1.44,-0.96 -1.44,-0.8 -1.76,-0.48 -1.6,-0.32 -1.76,-0.16 -1.76,0.16 -1.599999,0.32 -1.760001,0.48 -1.44,0.8 -1.440001,0.96 -1.279998,1.12 -1.280001,1.28 -0.959999,1.44 -0.640002,1.6 L -26.08,-3.52 -26.4,-1.76 -26.559999,0 -26.4,1.6 l 0.32,1.76 0.639999,1.6 0.640002,1.6 L -23.84,8 l 1.280001,1.28 1.279998,1.12 1.440001,0.96 1.44,0.8 1.760001,0.48 1.599999,0.48 h 1.76 1.76 l 1.6,-0.48 1.76,-0.48 1.44,-0.8 L -5.28,10.4 -4,9.28 -2.88,8 -1.92,6.56 -1.12,4.96 -0.48,3.36 -0.16,1.6 0,0"
       style="fill:none;stroke:#000000;stroke-width:0.64;stroke-linecap:round;stroke-linejoin:round;stroke-miterlimit:10;stroke-dasharray:none;stroke-opacity:1"
       transform="translate(343.58666,256.94664)"
       clip-path="url(#clipPath12)" />
  </g>
</svg>
