<?xml version="1.0" encoding="UTF-8" standalone="no"?>
<!-- Created with Inkscape (http://www.inkscape.org/) -->

<svg
   version="1.1"
   id="svg1"
   width="464.25333"
   height="238.92"
   viewBox="0 0 464.25333 238.92"
   sodipodi:docname="Wick2.pdf"
   xmlns:inkscape="http://www.inkscape.org/namespaces/inkscape"
   xmlns:sodipodi="http://sodipodi.sourceforge.net/DTD/sodipodi-0.dtd"
   xmlns="http://www.w3.org/2000/svg"
   xmlns:svg="http://www.w3.org/2000/svg">
  <defs
     id="defs1">
    <clipPath
       clipPathUnits="userSpaceOnUse"
       id="clipPath2">
      <path
         d="M 0,0.16 V 1122.5601 H 793.59998 V 0.16 Z"
         transform="translate(-291.51999,-511.04001)"
         clip-rule="evenodd"
         id="path2" />
    </clipPath>
    <clipPath
       clipPathUnits="userSpaceOnUse"
       id="clipPath4">
      <path
         d="M 0,0.16 V 1122.5601 H 793.59998 V 0.16 Z"
         clip-rule="evenodd"
         id="path4" />
    </clipPath>
    <clipPath
       clipPathUnits="userSpaceOnUse"
       id="clipPath6">
      <path
         d="M 0,0.16 V 1122.5601 H 793.59998 V 0.16 Z"
         transform="translate(-291.51999,-511.04001)"
         clip-rule="evenodd"
         id="path6" />
    </clipPath>
    <clipPath
       clipPathUnits="userSpaceOnUse"
       id="clipPath8">
      <path
         d="M 0,0.16 V 1122.5601 H 793.59998 V 0.16 Z"
         transform="translate(-557.91998,-557.44)"
         clip-rule="evenodd"
         id="path8" />
    </clipPath>
  </defs>
  <sodipodi:namedview
     id="namedview1"
     pagecolor="#505050"
     bordercolor="#eeeeee"
     borderopacity="1"
     inkscape:showpageshadow="0"
     inkscape:pageopacity="0"
     inkscape:pagecheckerboard="0"
     inkscape:deskcolor="#505050">
    <inkscape:page
       x="0"
       y="0"
       inkscape:label="1"
       id="page1"
       width="464.25333"
       height="238.92"
       margin="0"
       bleed="0" />
  </sodipodi:namedview>
  <g
     id="g1"
     inkscape:groupmode="layer"
     inkscape:label="1">
    <path
       id="path1"
       d="m 0,0 0.16,6.88 0.64,6.88 1.12,6.72 1.44,6.720001 1.76,6.559997 2.24,6.560002 2.56,6.240001 3.04,6.239998 3.36,5.920002 3.68,5.760002 4.16,5.439995 4.32,5.279999 4.639999,4.960007 5.120003,4.799995 5.119999,4.32 5.599998,4 5.760002,3.68 5.919998,3.360001 6.080002,3.04 6.400002,2.72 6.399994,2.24 6.720001,1.76 6.560005,1.44 6.879997,0.96 6.72,0.64 6.88,0.32 6.88,-0.32 6.72,-0.64 6.87999,-0.96 6.56002,-1.44 6.71998,-1.76 6.40001,-2.24 6.4,-2.72 6.08,-3.04 5.92,-3.360001 5.76001,-3.68 5.59999,-4 5.12001,-4.32 5.11999,-4.799995 4.64,-4.960007 4.31999,-5.279999 4.16001,-5.439995 3.68,-5.760002 3.36001,-5.920002 3.03999,-6.239998 2.56,-6.240001 2.24,-6.560002 1.76,-6.559997 1.44,-6.720001 1.11999,-6.72 0.64,-6.88 V 0"
       style="fill:none;stroke:#000000;stroke-width:26.4;stroke-linecap:round;stroke-linejoin:round;stroke-miterlimit:10;stroke-dasharray:none;stroke-opacity:1"
       transform="translate(116.75999,85.23995)"
       clip-path="url(#clipPath2)" />
    <path
       id="path3"
       d="m 450.07999,647.03998 -45.28,-22.56 -45.28,22.56 h 90.56"
       style="fill:none;stroke:#000000;stroke-width:26.4;stroke-linecap:round;stroke-linejoin:round;stroke-miterlimit:10;stroke-dasharray:none;stroke-opacity:1"
       transform="translate(-174.76,-425.80006)"
       clip-path="url(#clipPath4)" />
    <path
       id="path5"
       d="m 0,0 -0.16,-3.84 -0.48,-4 -0.96,-3.84 -1.12,-3.68 -1.44,-3.680001 -1.92,-3.519998 L -8.16,-25.92 -10.56,-28.959999 -13.28,-32 l -2.88,-2.560001 -3.200001,-2.399998 -3.359998,-2.240002 -3.360001,-1.759998 -3.68,-1.440003 -3.839998,-1.279998 -3.840001,-0.8 -3.84,-0.479999 -4,-0.32 -4,0.32 -3.84,0.479999 -3.84,0.8 -3.84,1.279998 -3.680004,1.440003 -3.519997,1.759998 -3.360001,2.240002 -3.040001,2.399998 L -77.279999,-32 -80,-28.959999 -82.400002,-25.92 l -2.080001,3.360001 -1.919999,3.519998 -1.439994,3.680001 -1.280007,3.68 -0.799995,3.84 -0.480004,4 -0.159996,4 0.159996,3.84 0.480004,4 0.799995,3.84 1.280007,3.68 1.439994,3.680001 1.919999,3.519998 L -82.400002,26.08 -80,29.280001 -77.279999,32.16 l 2.879997,2.720001 3.040001,2.399998 3.360001,2.080002 3.519997,1.759998 3.680004,1.600002 3.84,1.119999 3.84,0.799999 3.84,0.64 h 3.84"
       style="fill:none;stroke:#000000;stroke-width:26.4;stroke-linecap:round;stroke-linejoin:round;stroke-miterlimit:10;stroke-dasharray:none;stroke-opacity:1"
       transform="translate(116.75999,85.23995)"
       clip-path="url(#clipPath6)" />
    <path
       id="path7"
       d="m 0,0 4.32,0.32 h 4 l 4.16,-0.48 4,-0.8 3.84,-1.12 3.84,-1.44 3.68,-1.76 3.520001,-2.24 3.36,-2.4 3.039997,-2.72 2.880001,-2.88 2.560002,-3.199999 2.239998,-3.360001 1.920002,-3.68 1.599998,-3.680001 1.440003,-3.999998 0.959999,-3.84 0.479999,-4.16 0.32,-4 -0.16,-4.159999 -0.48,-4 -0.799999,-4 -1.120003,-4 -1.439998,-3.840004 -1.919998,-3.680001 -2.080002,-3.36 -2.560002,-3.359993 -2.719997,-3.040001 L 36,-81.760002 32.639999,-84.160004 29.280001,-86.400002 25.6,-88.480003 l -3.68,-1.599999 -3.84,-1.279999 -4,-0.800003 -4.16,-0.639999 -4,-0.159996 -4.16,0.159996 -4,0.480003 -4,0.800003 -4,1.279999 -3.84,1.439995 -3.52,1.920006 -3.520001,2.239998 -3.199999,2.400001 -3.040001,2.720001 -2.879999,3.039994 -2.399999,3.200004 -2.240002,3.519997 -1.919998,3.68 -1.600003,3.68 -1.279998,4 -0.8,4 -0.639999,4 -0.16,4"
       style="fill:none;stroke:#000000;stroke-width:26.4;stroke-linecap:round;stroke-linejoin:round;stroke-miterlimit:10;stroke-dasharray:none;stroke-opacity:1"
       transform="translate(383.15998,131.63994)"
       clip-path="url(#clipPath8)" />
  </g>
</svg>
