<?xml version="1.0" encoding="UTF-8" standalone="no"?>
<!-- Created with Inkscape (http://www.inkscape.org/) -->

<svg
   version="1.1"
   id="svg1"
   width="301.49332"
   height="262.95999"
   viewBox="0 0 301.49332 262.95999"
   sodipodi:docname="WindFurnace3.pdf"
   xmlns:inkscape="http://www.inkscape.org/namespaces/inkscape"
   xmlns:sodipodi="http://sodipodi.sourceforge.net/DTD/sodipodi-0.dtd"
   xmlns="http://www.w3.org/2000/svg"
   xmlns:svg="http://www.w3.org/2000/svg">
  <defs
     id="defs1">
    <clipPath
       clipPathUnits="userSpaceOnUse"
       id="clipPath2">
      <path
         d="M 0,0.16 V 1122.5601 H 793.59998 V 0.16 Z"
         transform="translate(-3.3333333e-6)"
         clip-rule="evenodd"
         id="path2" />
    </clipPath>
    <clipPath
       clipPathUnits="userSpaceOnUse"
       id="clipPath4">
      <path
         d="M 0,0.16 V 1122.5601 H 793.59998 V 0.16 Z"
         transform="translate(-3.3333333e-6)"
         clip-rule="evenodd"
         id="path4" />
    </clipPath>
    <clipPath
       clipPathUnits="userSpaceOnUse"
       id="clipPath6">
      <path
         d="M 0,0.16 V 1122.5601 H 793.59998 V 0.16 Z"
         transform="translate(-487.83999,-561.28003)"
         clip-rule="evenodd"
         id="path6" />
    </clipPath>
    <clipPath
       clipPathUnits="userSpaceOnUse"
       id="clipPath8">
      <path
         d="M 0,0.16 V 1122.5601 H 793.59998 V 0.16 Z"
         transform="translate(-268.16,-600)"
         clip-rule="evenodd"
         id="path8" />
    </clipPath>
    <clipPath
       clipPathUnits="userSpaceOnUse"
       id="clipPath10">
      <path
         d="M 0,0.16 V 1122.5601 H 793.59998 V 0.16 Z"
         transform="translate(-523.67999,-550.40003)"
         clip-rule="evenodd"
         id="path10" />
    </clipPath>
  </defs>
  <sodipodi:namedview
     id="namedview1"
     pagecolor="#505050"
     bordercolor="#eeeeee"
     borderopacity="1"
     inkscape:showpageshadow="0"
     inkscape:pageopacity="0"
     inkscape:pagecheckerboard="0"
     inkscape:deskcolor="#505050">
    <inkscape:page
       x="0"
       y="0"
       inkscape:label="1"
       id="page1"
       width="301.49332"
       height="262.95999"
       margin="0"
       bleed="0" />
  </sodipodi:namedview>
  <g
     id="g1"
     inkscape:groupmode="layer"
     inkscape:label="1">
    <path
       id="path1"
       d="M 374.56,448 H 525.59998"
       style="fill:none;stroke:#000000;stroke-width:26.4;stroke-linecap:round;stroke-linejoin:round;stroke-miterlimit:10;stroke-dasharray:none;stroke-opacity:1"
       transform="translate(-248.13333,-428.46673)"
       clip-path="url(#clipPath2)" />
    <path
       id="path3"
       d="M 525.59998,448 374.56,561.28003"
       style="fill:none;stroke:#000000;stroke-width:26.4;stroke-linecap:round;stroke-linejoin:round;stroke-miterlimit:10;stroke-dasharray:none;stroke-opacity:1"
       transform="translate(-248.13333,-428.46673)"
       clip-path="url(#clipPath4)" />
    <path
       id="path5"
       d="m 0,0 -7.2,-3.04 -7.36,-2.72 -7.36,-2.08 -7.68,-1.76 -7.679999,-1.44 -7.68,-0.8 -7.84,-0.48 H -60.48 l -7.84,0.48 -7.68,0.8 -7.68,1.44 -7.680001,1.76 -7.36,2.08 -7.359999,2.72 -7.2,3.04"
       style="fill:none;stroke:#000000;stroke-width:26.4;stroke-linecap:round;stroke-linejoin:round;stroke-miterlimit:10;stroke-dasharray:none;stroke-opacity:1"
       transform="translate(239.70666,132.8133)"
       clip-path="url(#clipPath6)" />
    <path
       id="path7"
       d="m 0,0 2.56,6.4 2.88,6.24 3.36,6.079999 3.52,5.760001 4,5.6 4.479999,5.280001 L 25.440001,40.48 30.4,45.279999 l 5.12,4.479999 5.599999,4 5.600002,3.84 6.079998,3.520001 6.080002,3.040005 6.399998,2.719993 6.400001,2.240006 6.559998,1.919998 6.720001,1.440002 6.879997,1.119995 6.880005,0.64 6.879999,0.32 6.72,-0.159996 6.88,-0.480004 6.88,-1.119995 6.72,-1.280006 6.56,-1.919999 6.56,-2.080001 6.40001,-2.719994 6.23999,-2.880005 5.92,-3.359997 5.76,-3.68 5.6,-4.16 5.27999,-4.319999 5.12001,-4.640004 4.64,-5.119999 4.48,-5.119999 4,-5.6 3.84,-5.76 3.36,-5.92 3.04001,-6.24 2.72,-6.4 2.23999,-6.4 1.76001,-6.72 1.43998,-6.72 1.12001,-6.719999 0.64,-6.880001 0.15999,-6.880001"
       style="fill:none;stroke:#000000;stroke-width:26.4;stroke-linecap:round;stroke-linejoin:round;stroke-miterlimit:10;stroke-dasharray:none;stroke-opacity:1"
       transform="translate(20.026671,171.53327)"
       clip-path="url(#clipPath8)" />
    <path
       id="path9"
       d="M 0,0 -0.64,-1.76 -1.44,-3.2 -2.4,-4.64 -3.68,-5.92 -5.28,-7.04 -6.88,-8 -8.8,-8.8 l -2.08,-0.48 -2.08,-0.48 -2.08,-0.16 -2.240001,0.16 -2.239999,0.16 -2.24,0.48 -2.24,0.64 -2.08,0.96 -1.92,0.96 -1.92,1.12 -1.6,1.44 -1.599999,1.44 -1.280003,1.6 -0.959999,1.6 -0.799999,1.76 -0.479999,1.76 -0.32,1.76 v 1.6 l 0.32,1.76 0.639999,1.6 0.799999,1.6 0.959999,1.44 1.280003,1.28 1.599998,1.12 1.600001,0.960001 1.92,0.639999 2.08,0.639999 2.08,0.32 2.08,0.160002 h 2.239999 L -16.959999,18.719999 -14.88,18.4 l 2.24,-0.8 2.08,-0.800001 2.08,-0.959999 1.76,-1.28 1.76,-1.28 1.44,-1.44 1.28,-1.6 0.96,-1.76 0.8,-1.6 L 0,5.12 0.32,3.36 V 1.6 L 0,0"
       style="fill:none;stroke:#000000;stroke-width:26.4;stroke-linecap:round;stroke-linejoin:round;stroke-miterlimit:10;stroke-dasharray:none;stroke-opacity:1"
       transform="translate(275.54666,121.9333)"
       clip-path="url(#clipPath10)" />
  </g>
</svg>
