<?xml version="1.0" encoding="UTF-8" standalone="no"?>
<!-- Created with Inkscape (http://www.inkscape.org/) -->

<svg
   version="1.1"
   id="svg1"
   width="625.66669"
   height="635.35999"
   viewBox="0 0 625.66669 635.35999"
   sodipodi:docname="AntimonyRegulus5.pdf"
   xmlns:inkscape="http://www.inkscape.org/namespaces/inkscape"
   xmlns:sodipodi="http://sodipodi.sourceforge.net/DTD/sodipodi-0.dtd"
   xmlns="http://www.w3.org/2000/svg"
   xmlns:svg="http://www.w3.org/2000/svg">
  <defs
     id="defs1">
    <clipPath
       clipPathUnits="userSpaceOnUse"
       id="clipPath2">
      <path
         d="M 0,0.16 V 1122.5601 H 793.59998 V 0.16 Z"
         clip-rule="evenodd"
         id="path2" />
    </clipPath>
    <clipPath
       clipPathUnits="userSpaceOnUse"
       id="clipPath4">
      <path
         d="M 0,0.16 V 1122.5601 H 793.59998 V 0.16 Z"
         clip-rule="evenodd"
         id="path4" />
    </clipPath>
    <clipPath
       clipPathUnits="userSpaceOnUse"
       id="clipPath6">
      <path
         d="M 0,0.16 V 1122.5601 H 793.59998 V 0.16 Z"
         transform="translate(-113.6,-466.88001)"
         clip-rule="evenodd"
         id="path6" />
    </clipPath>
    <clipPath
       clipPathUnits="userSpaceOnUse"
       id="clipPath8">
      <path
         d="M 0,0.16 V 1122.5601 H 793.59998 V 0.16 Z"
         transform="translate(-680,-278.07999)"
         clip-rule="evenodd"
         id="path8" />
    </clipPath>
  </defs>
  <sodipodi:namedview
     id="namedview1"
     pagecolor="#505050"
     bordercolor="#eeeeee"
     borderopacity="1"
     inkscape:showpageshadow="0"
     inkscape:pageopacity="0"
     inkscape:pagecheckerboard="0"
     inkscape:deskcolor="#505050">
    <inkscape:page
       x="0"
       y="0"
       inkscape:label="1"
       id="page1"
       width="625.66669"
       height="635.35999"
       margin="0"
       bleed="0" />
  </sodipodi:namedview>
  <g
     id="g1"
     inkscape:groupmode="layer"
     inkscape:label="1">
    <path
       id="path1"
       d="M 396.79999,278.07999 V 844.47998"
       style="fill:none;stroke:#000000;stroke-width:26.4;stroke-linecap:round;stroke-linejoin:round;stroke-miterlimit:10;stroke-dasharray:none;stroke-opacity:1"
       transform="translate(-78.706667,-241.60006)"
       clip-path="url(#clipPath2)" />
    <path
       id="path3"
       d="M 113.6,278.07999 H 680"
       style="fill:none;stroke:#000000;stroke-width:26.4;stroke-linecap:round;stroke-linejoin:round;stroke-miterlimit:10;stroke-dasharray:none;stroke-opacity:1"
       transform="translate(-78.706667,-241.60006)"
       clip-path="url(#clipPath4)" />
    <path
       id="path5"
       d="m 0,0 4.32,-0.16 4.32,-0.64 4.16,-0.96 4.159999,-1.44 4.160002,-1.76 4,-2.24 3.839998,-2.56 3.84,-2.88 3.520001,-3.2 3.52,-3.68 3.360001,-3.840001 3.040001,-4.319999 3.039997,-4.48 2.560001,-4.799999 2.560002,-4.959999 2.239997,-5.280003 2.080002,-5.439998 L 60.48,-58.240002 61.919998,-64 63.200001,-69.919998 64.160004,-76 l 0.639999,-6.080002 0.479996,-6.080002 0.160003,-6.239998 -0.160003,-6.079998 -0.479996,-6.24 -0.639999,-6.08 -0.960003,-5.92 -1.280003,-5.92 -1.439998,-5.92 -1.759999,-5.6 -2.080002,-5.44001 -2.239997,-5.27999 -2.560002,-4.96 -2.560001,-4.8 -3.039997,-4.47999 -3.040001,-4.16001 -3.360001,-4 -3.52,-3.52 -3.520001,-3.36 -3.84,-2.87999 -3.839998,-2.56002 -4,-2.07998 -4.160002,-1.92002 L 12.8,-186.88 8.64,-188 4.32,-188.48 0,-188.8"
       style="fill:none;stroke:#000000;stroke-width:26.4;stroke-linecap:round;stroke-linejoin:round;stroke-miterlimit:10;stroke-dasharray:none;stroke-opacity:1"
       transform="translate(34.893331,225.27995)"
       clip-path="url(#clipPath6)" />
    <path
       id="path7"
       d="m 0,0 -4.32,0.32 -4.16,0.48 -4.16,1.12 -4.319999,1.28 -4,1.92 -4,2.08 -3.84,2.56 -3.84,2.88 L -36.32,16 l -3.36,3.52 -3.360001,4 -3.200001,4.16 -2.879997,4.48 -2.720001,4.799999 -2.400002,4.959999 -2.399997,5.280003 -1.920002,5.439998 -1.759999,5.600003 -1.599998,5.920002 -1.120003,5.919998 L -64,76 l -0.800003,6.080002 -0.32,6.239998 -0.159996,6.080002 0.159996,6.239998 0.32,6.08 0.800003,6.08 0.959999,6.08 1.120003,5.92 1.599998,5.76 1.759999,5.6 1.920002,5.44001 2.399997,5.27999 2.400002,4.96 2.720001,4.8 2.879997,4.47999 3.200001,4.32001 3.360001,3.84 3.36,3.68001 3.680001,3.19999 3.84,2.87999 3.84,2.56002 4,2.23999 4,1.76001 4.319999,1.43998 4.16,0.96001 4.16,0.64 4.32,0.16"
       style="fill:none;stroke:#000000;stroke-width:26.4;stroke-linecap:round;stroke-linejoin:round;stroke-miterlimit:10;stroke-dasharray:none;stroke-opacity:1"
       transform="translate(601.29333,36.479928)"
       clip-path="url(#clipPath8)" />
  </g>
</svg>
