<?xml version="1.0" encoding="UTF-8" standalone="no"?>
<!-- Created with Inkscape (http://www.inkscape.org/) -->

<svg
   version="1.1"
   id="svg1"
   width="324.18668"
   height="369.73334"
   viewBox="0 0 324.18668 369.73334"
   sodipodi:docname="Arsen9.pdf"
   xmlns:inkscape="http://www.inkscape.org/namespaces/inkscape"
   xmlns:sodipodi="http://sodipodi.sourceforge.net/DTD/sodipodi-0.dtd"
   xmlns="http://www.w3.org/2000/svg"
   xmlns:svg="http://www.w3.org/2000/svg">
  <defs
     id="defs1">
    <clipPath
       clipPathUnits="userSpaceOnUse"
       id="clipPath2">
      <path
         d="M 0,0.16 V 1122.5601 H 793.59998 V 0.16 Z"
         transform="translate(-491.20002,-561.28003)"
         clip-rule="evenodd"
         id="path2" />
    </clipPath>
    <clipPath
       clipPathUnits="userSpaceOnUse"
       id="clipPath4">
      <path
         d="M 0,0.16 V 1122.5601 H 793.59998 V 0.16 Z"
         transform="translate(-530.40003,-694.71998)"
         clip-rule="evenodd"
         id="path4" />
    </clipPath>
    <clipPath
       clipPathUnits="userSpaceOnUse"
       id="clipPath6">
      <path
         d="M 0,0.16 V 1122.5601 H 793.59998 V 0.16 Z"
         transform="translate(3.3333333e-6)"
         clip-rule="evenodd"
         id="path6" />
    </clipPath>
  </defs>
  <sodipodi:namedview
     id="namedview1"
     pagecolor="#505050"
     bordercolor="#eeeeee"
     borderopacity="1"
     inkscape:showpageshadow="0"
     inkscape:pageopacity="0"
     inkscape:pagecheckerboard="0"
     inkscape:deskcolor="#505050">
    <inkscape:page
       x="0"
       y="0"
       inkscape:label="1"
       id="page1"
       width="324.18668"
       height="369.73334"
       margin="0"
       bleed="0" />
  </sodipodi:namedview>
  <g
     id="g1"
     inkscape:groupmode="layer"
     inkscape:label="1">
    <path
       id="path1"
       d="M 0,0 C 0,-52.130001 -42.259998,-94.400002 -94.400002,-94.400002 -146.53999,-94.400002 -188.8,-52.130001 -188.8,0 c 0,52.130001 42.26001,94.400002 94.399998,94.400002 C -42.259998,94.400002 0,52.130001 0,0 Z"
       style="fill:none;stroke:#000000;stroke-width:26.4;stroke-linecap:round;stroke-linejoin:round;stroke-miterlimit:10;stroke-dasharray:none;stroke-opacity:1"
       transform="translate(207.05335,208.8933)"
       clip-path="url(#clipPath2)" />
    <path
       id="path3"
       d="m 0,0 6.4,-6.56 5.92,-7.04 5.76,-7.359999 5.280001,-7.520001 4.959999,-7.84 4.639999,-8.16 4.16,-8.159999 3.68,-8.48 3.360001,-8.640003 2.880001,-8.799996 2.559997,-8.959999 2.080002,-9.120002 1.439999,-9.120001 1.280003,-9.12 0.639999,-9.28 0.16,-9.28 -0.16,-9.28 -0.639999,-9.28 -1.280003,-9.11999 L 51.68,-170.24 l -2.080002,-9.12 -2.559997,-8.8 -2.880001,-8.80001 -3.360001,-8.64 -3.68,-8.47999 -4.16,-8.31999 -4.639999,-8 L 23.360001,-238.24 18.08,-245.92 12.32,-253.11999 6.4,-260.16 0,-266.88 l -6.72,-6.4 -7.04,-6.07999 -7.360001,-5.76001 -7.519998,-5.27999 -7.840001,-4.96 -8,-4.48001 -8.319999,-4.32 -8.48,-3.68 -8.639999,-3.36001 -8.800003,-2.87998 -8.959999,-2.40002 -8.959999,-2.07999 -9.280001,-1.6 -9.12,-1.12 -9.28,-0.64001 -9.28001,-0.31998"
       style="fill:none;stroke:#000000;stroke-width:26.4;stroke-linecap:round;stroke-linejoin:round;stroke-miterlimit:10;stroke-dasharray:none;stroke-opacity:1"
       transform="translate(246.25336,342.33325)"
       clip-path="url(#clipPath4)" />
    <path
       id="path5"
       d="m 463.51999,494.56 65.44003,-65.44"
       style="fill:none;stroke:#000000;stroke-width:26.4;stroke-linecap:round;stroke-linejoin:round;stroke-miterlimit:10;stroke-dasharray:none;stroke-opacity:1"
       transform="translate(-284.14667,-352.38673)"
       clip-path="url(#clipPath6)" />
  </g>
</svg>
