<?xml version="1.0" encoding="UTF-8" standalone="no"?>
<!-- Created with Inkscape (http://www.inkscape.org/) -->

<svg
   version="1.1"
   id="svg1"
   width="485.58667"
   height="384.42667"
   viewBox="0 0 485.58667 384.42667"
   sodipodi:docname="ArsenicSublimate14.pdf"
   xmlns:inkscape="http://www.inkscape.org/namespaces/inkscape"
   xmlns:sodipodi="http://sodipodi.sourceforge.net/DTD/sodipodi-0.dtd"
   xmlns="http://www.w3.org/2000/svg"
   xmlns:svg="http://www.w3.org/2000/svg">
  <defs
     id="defs1">
    <clipPath
       clipPathUnits="userSpaceOnUse"
       id="clipPath2">
      <path
         d="M 0,0.16 V 1122.5601 H 793.59998 V 0.16 Z"
         transform="translate(-623.35999,-372.48001)"
         clip-rule="evenodd"
         id="path2" />
    </clipPath>
    <clipPath
       clipPathUnits="userSpaceOnUse"
       id="clipPath4">
      <path
         d="M 0,0.16 V 1122.5601 H 793.59998 V 0.16 Z"
         transform="translate(-623.35999,-296.95999)"
         clip-rule="evenodd"
         id="path4" />
    </clipPath>
    <clipPath
       clipPathUnits="userSpaceOnUse"
       id="clipPath6">
      <path
         d="M 0,0.16 V 1122.5601 H 793.59998 V 0.16 Z"
         transform="translate(-245.75999,-561.28003)"
         clip-rule="evenodd"
         id="path6" />
    </clipPath>
    <clipPath
       clipPathUnits="userSpaceOnUse"
       id="clipPath8">
      <path
         d="M 0,0.16 V 1122.5601 H 793.59998 V 0.16 Z"
         transform="translate(-245.75999,-561.28003)"
         clip-rule="evenodd"
         id="path8" />
    </clipPath>
    <clipPath
       clipPathUnits="userSpaceOnUse"
       id="clipPath10">
      <path
         d="M 0,0.16 V 1122.5601 H 793.59998 V 0.16 Z"
         transform="translate(-366.56,-561.28003)"
         clip-rule="evenodd"
         id="path10" />
    </clipPath>
    <clipPath
       clipPathUnits="userSpaceOnUse"
       id="clipPath12">
      <path
         d="M 0,0.16 V 1122.5601 H 793.59998 V 0.16 Z"
         transform="translate(-366.56,-561.28003)"
         clip-rule="evenodd"
         id="path12" />
    </clipPath>
    <clipPath
       clipPathUnits="userSpaceOnUse"
       id="clipPath14">
      <path
         d="M 0,0.16 V 1122.5601 H 793.59998 V 0.16 Z"
         transform="translate(-487.35999,-561.28003)"
         clip-rule="evenodd"
         id="path14" />
    </clipPath>
    <clipPath
       clipPathUnits="userSpaceOnUse"
       id="clipPath16">
      <path
         d="M 0,0.16 V 1122.5601 H 793.59998 V 0.16 Z"
         transform="translate(-487.35999,-561.28003)"
         clip-rule="evenodd"
         id="path16" />
    </clipPath>
    <clipPath
       clipPathUnits="userSpaceOnUse"
       id="clipPath18">
      <path
         d="M 0,0.16 V 1122.5601 H 793.59998 V 0.16 Z"
         transform="translate(-608.15998,-561.28003)"
         clip-rule="evenodd"
         id="path18" />
    </clipPath>
    <clipPath
       clipPathUnits="userSpaceOnUse"
       id="clipPath20">
      <path
         d="M 0,0.16 V 1122.5601 H 793.59998 V 0.16 Z"
         transform="translate(3.3333334e-6)"
         clip-rule="evenodd"
         id="path20" />
    </clipPath>
    <clipPath
       clipPathUnits="userSpaceOnUse"
       id="clipPath22">
      <path
         d="M 0,0.16 V 1122.5601 H 793.59998 V 0.16 Z"
         transform="translate(3.3333334e-6)"
         clip-rule="evenodd"
         id="path22" />
    </clipPath>
  </defs>
  <sodipodi:namedview
     id="namedview1"
     pagecolor="#505050"
     bordercolor="#eeeeee"
     borderopacity="1"
     inkscape:showpageshadow="0"
     inkscape:pageopacity="0"
     inkscape:pagecheckerboard="0"
     inkscape:deskcolor="#505050">
    <inkscape:page
       x="0"
       y="0"
       inkscape:label="1"
       id="page1"
       width="485.58667"
       height="384.42667"
       margin="0"
       bleed="0" />
  </sodipodi:namedview>
  <g
     id="g1"
     inkscape:groupmode="layer"
     inkscape:label="1">
    <path
       id="path1"
       d="m 0,0 c 0,-20.85 -16.9,-37.759998 -37.759998,-37.759998 -20.860001,0 -37.759999,16.909998 -37.759999,37.759998 0,20.85 16.899998,37.759998 37.759999,37.759998 C -16.9,37.759998 0,20.85 0,0 Z"
       style="fill:none;stroke:#000000;stroke-width:26.4;stroke-linecap:round;stroke-linejoin:round;stroke-miterlimit:10;stroke-dasharray:none;stroke-opacity:1"
       transform="translate(461.93332,137.55995)"
       clip-path="url(#clipPath2)" />
    <path
       id="path3"
       d="m 0,0 c 0,-20.85 -16.9,-37.759998 -37.759998,-37.759998 -20.860001,0 -37.759999,16.909998 -37.759999,37.759998 0,20.85 16.899998,37.759998 37.759999,37.759998 C -16.9,37.759998 0,20.85 0,0 Z"
       style="fill:none;stroke:#000000;stroke-width:26.4;stroke-linecap:round;stroke-linejoin:round;stroke-miterlimit:10;stroke-dasharray:none;stroke-opacity:1"
       transform="translate(461.93332,62.039932)"
       clip-path="url(#clipPath4)" />
    <path
       id="path5"
       d="m 0,0 -0.16,-2.88 -0.32,-3.04 -0.8,-2.88 -0.96,-2.72 -1.28,-2.72 -1.44,-2.559999 -1.76,-2.400002 -2.08,-2.08 -2.24,-2.08 -2.4,-1.76 -2.4,-1.439998 L -18.559999,-27.84 -21.440001,-28.959999 -24.32,-29.6 -27.200001,-30.08 -30.08,-30.24 -33.119999,-30.08 -36,-29.6 l -2.880001,0.640001 -2.879997,1.119999 -2.560002,1.280001 -2.560001,1.439998 -2.399998,1.76 -2.240001,2.08 -1.919999,2.08 -1.760002,2.400002 -1.599998,2.559999 -1.280003,2.72 -0.959999,2.72 -0.799999,2.88 -0.32,3.04 -0.32,2.88"
       style="fill:none;stroke:#000000;stroke-width:26.4;stroke-linecap:round;stroke-linejoin:round;stroke-miterlimit:10;stroke-dasharray:none;stroke-opacity:1"
       transform="translate(84.333328,326.35997)"
       clip-path="url(#clipPath6)" />
    <path
       id="path7"
       d="m 0,0 0.16,3.04 0.48,2.88 0.8,2.88 0.96,2.72 1.28,2.72 1.44,2.559999 1.76,2.400002 2.08,2.24 2.08,1.92 2.4,1.76 L 16,26.719999 18.719999,28 21.440001,28.959999 24.32,29.6 27.360001,30.08 30.24,30.24 33.279999,30.08 36.16,29.6 39.040001,28.959999 41.759998,28 44.48,26.719999 l 2.560001,-1.599998 2.399998,-1.76 2.240001,-1.92 1.919998,-2.24 1.760003,-2.400002 L 56.959999,14.24 58.240002,11.52 59.200001,8.8 59.84,5.92 60.32,3.04 V 0"
       style="fill:none;stroke:#000000;stroke-width:26.4;stroke-linecap:round;stroke-linejoin:round;stroke-miterlimit:10;stroke-dasharray:none;stroke-opacity:1"
       transform="translate(84.333328,326.35997)"
       clip-path="url(#clipPath8)" />
    <path
       id="path9"
       d="m 0,0 v -2.88 l -0.48,-3.04 -0.8,-2.88 -0.96,-2.72 -1.28,-2.72 -1.44,-2.559999 -1.76,-2.400002 -2.08,-2.08 -2.08,-2.08 -2.4,-1.76 -2.56,-1.439998 L -18.559999,-27.84 -21.280001,-28.959999 -24.16,-29.6 -27.200001,-30.08 -30.08,-30.24 -33.119999,-30.08 -36,-29.6 l -2.880001,0.640001 -2.879997,1.119999 -2.560002,1.280001 -2.560001,1.439998 -2.399998,1.76 -2.240001,2.08 -1.919999,2.08 -1.760002,2.400002 -1.599998,2.559999 -1.280003,2.72 -0.959999,2.72 -0.639999,2.88 -0.48,3.04 -0.32,2.88"
       style="fill:none;stroke:#000000;stroke-width:26.4;stroke-linecap:round;stroke-linejoin:round;stroke-miterlimit:10;stroke-dasharray:none;stroke-opacity:1"
       transform="translate(205.13333,326.35997)"
       clip-path="url(#clipPath10)" />
    <path
       id="path11"
       d="m 0,0 0.16,3.04 0.48,2.88 0.8,2.88 0.96,2.72 1.28,2.72 1.44,2.559999 1.76,2.400002 2.08,2.24 2.24,1.92 2.24,1.76 L 16,26.719999 18.719999,28 21.6,28.959999 24.32,29.6 27.360001,30.08 30.24,30.24 33.279999,30.08 36.16,29.6 39.040001,28.959999 41.919998,28 44.48,26.719999 l 2.560001,-1.599998 2.399998,-1.76 2.240001,-1.92 1.919998,-2.24 1.760003,-2.400002 L 56.959999,14.24 58.240002,11.52 59.200001,8.8 59.84,5.92 60.32,3.04 60.48,0"
       style="fill:none;stroke:#000000;stroke-width:26.4;stroke-linecap:round;stroke-linejoin:round;stroke-miterlimit:10;stroke-dasharray:none;stroke-opacity:1"
       transform="translate(205.13333,326.35997)"
       clip-path="url(#clipPath12)" />
    <path
       id="path13"
       d="m 0,0 v -2.88 l -0.48,-3.04 -0.64,-2.88 -1.12,-2.72 -1.28,-2.72 -1.44,-2.559999 -1.76,-2.400002 -2.08,-2.08 -2.08,-2.08 -2.4,-1.76 -2.56,-1.439998 L -18.559999,-27.84 -21.280001,-28.959999 -24.16,-29.6 -27.200001,-30.08 -30.08,-30.24 -33.119999,-30.08 -36,-29.6 l -2.880001,0.640001 -2.719997,1.119999 -2.720002,1.280001 -2.560001,1.439998 -2.399998,1.76 -2.240001,2.08 -1.919999,2.08 -1.760002,2.400002 -1.599998,2.559999 -1.280003,2.72 -0.959999,2.72 -0.639999,2.88 -0.48,3.04 -0.16,2.88"
       style="fill:none;stroke:#000000;stroke-width:26.4;stroke-linecap:round;stroke-linejoin:round;stroke-miterlimit:10;stroke-dasharray:none;stroke-opacity:1"
       transform="translate(325.93332,326.35997)"
       clip-path="url(#clipPath14)" />
    <path
       id="path15"
       d="m 0,0 0.32,3.04 0.32,2.88 0.8,2.88 0.96,2.72 1.28,2.72 1.44,2.559999 1.92,2.400002 1.92,2.24 2.24,1.92 2.4,1.76 L 16,26.719999 18.719999,28 21.6,28.959999 24.48,29.6 27.360001,30.08 30.24,30.24 33.279999,30.08 36.16,29.6 39.040001,28.959999 41.919998,28 44.48,26.719999 l 2.560001,-1.599998 2.399998,-1.76 2.240001,-1.92 1.919998,-2.24 1.760003,-2.400002 L 56.959999,14.24 58.240002,11.52 59.200001,8.8 60,5.92 60.32,3.04 60.48,0"
       style="fill:none;stroke:#000000;stroke-width:26.4;stroke-linecap:round;stroke-linejoin:round;stroke-miterlimit:10;stroke-dasharray:none;stroke-opacity:1"
       transform="translate(325.93332,326.35997)"
       clip-path="url(#clipPath16)" />
    <path
       id="path17"
       d="m 0,0 v -2.88 l -0.48,-3.04 -0.64,-2.88 -1.12,-2.72 -1.12,-2.72 -1.6,-2.559999 -1.76,-2.400002 -1.92,-2.08 -2.24,-2.08 -2.4,-1.76 -2.56,-1.439998 L -18.559999,-27.84 -21.280001,-28.959999 -24.16,-29.6 -27.040001,-30.08 -30.08,-30.24 -32.959999,-30.08 -36,-29.6 l -2.880001,0.640001 -2.719997,1.119999 -2.720002,1.280001 -2.560001,1.439998 -2.399998,1.76 -2.080002,2.08 -2.079998,2.08 -1.760002,2.400002 -1.439998,2.559999 -1.279999,2.72 -1.120003,2.72 -0.639999,2.88 -0.48,3.04 -0.16,2.88"
       style="fill:none;stroke:#000000;stroke-width:26.4;stroke-linecap:round;stroke-linejoin:round;stroke-miterlimit:10;stroke-dasharray:none;stroke-opacity:1"
       transform="translate(446.73331,326.35997)"
       clip-path="url(#clipPath18)" />
    <path
       id="path19"
       d="m 585.59998,410.23999 v 75.52002"
       style="fill:none;stroke:#000000;stroke-width:26.4;stroke-linecap:round;stroke-linejoin:round;stroke-miterlimit:10;stroke-dasharray:none;stroke-opacity:1"
       transform="translate(-161.42667,-234.92006)"
       clip-path="url(#clipPath20)" />
    <path
       id="path21"
       d="M 585.59998,448 H 510.07999"
       style="fill:none;stroke:#000000;stroke-width:26.4;stroke-linecap:round;stroke-linejoin:round;stroke-miterlimit:10;stroke-dasharray:none;stroke-opacity:1"
       transform="translate(-161.42667,-234.92006)"
       clip-path="url(#clipPath22)" />
  </g>
</svg>
