<?xml version="1.0" encoding="UTF-8" standalone="no"?>
<!-- Created with Inkscape (http://www.inkscape.org/) -->

<svg
   version="1.1"
   id="svg1"
   width="268.13333"
   height="264.29333"
   viewBox="0 0 268.13333 264.29333"
   sodipodi:docname="Arsen11.pdf"
   xmlns:inkscape="http://www.inkscape.org/namespaces/inkscape"
   xmlns:sodipodi="http://sodipodi.sourceforge.net/DTD/sodipodi-0.dtd"
   xmlns="http://www.w3.org/2000/svg"
   xmlns:svg="http://www.w3.org/2000/svg">
  <defs
     id="defs1">
    <clipPath
       clipPathUnits="userSpaceOnUse"
       id="clipPath2">
      <path
         d="M 0,0.16 V 1122.5601 H 793.59998 V 0.16 Z"
         transform="translate(-434.88,-523.03998)"
         clip-rule="evenodd"
         id="path2" />
    </clipPath>
    <clipPath
       clipPathUnits="userSpaceOnUse"
       id="clipPath4">
      <path
         d="M 0,0.16 V 1122.5601 H 793.59998 V 0.16 Z"
         transform="translate(-360,-598.88001)"
         clip-rule="evenodd"
         id="path4" />
    </clipPath>
  </defs>
  <sodipodi:namedview
     id="namedview1"
     pagecolor="#505050"
     bordercolor="#eeeeee"
     borderopacity="1"
     inkscape:showpageshadow="0"
     inkscape:pageopacity="0"
     inkscape:pagecheckerboard="0"
     inkscape:deskcolor="#505050">
    <inkscape:page
       x="0"
       y="0"
       inkscape:label="1"
       id="page1"
       width="268.13333"
       height="264.29333"
       margin="0"
       bleed="0" />
  </sodipodi:namedview>
  <g
     id="g1"
     inkscape:groupmode="layer"
     inkscape:label="1">
    <path
       id="path1"
       d="m 0,0 c 0,-41.349998 -33.52,-74.879997 -74.879997,-74.879997 -41.360003,0 -74.879993,33.529999 -74.879993,74.879997 0,41.349998 33.51999,74.879997 74.879993,74.879997 C -33.52,74.879997 0,41.349998 0,0 Z"
       style="fill:none;stroke:#000000;stroke-width:26.4;stroke-linecap:round;stroke-linejoin:round;stroke-miterlimit:10;stroke-dasharray:none;stroke-opacity:1"
       transform="translate(434.88,524.37325)"
       clip-path="url(#clipPath2)" />
    <path
       id="path3"
       d="M 0,0 0.16,5.28 0.8,10.56 1.76,15.84 3.2,20.959999 4.8,26.08 6.88,31.040001 9.44,35.68 l 2.72,4.64 3.04,4.319999 3.359999,4.16 3.680001,4 4,3.520001 4.16,3.36 4.320001,3.040001 4.64,2.720001 4.799999,2.399994 4.959999,1.920006 5.120003,1.599999 5.119999,1.440002 5.279998,0.799995 5.279999,0.64 5.440003,0.160004 5.279998,-0.32 5.279999,-0.64 5.279999,-0.959999 5.120003,-1.280006 5.12,-1.759995 4.96,-2.080001 4.8,-2.400002 4.48,-2.719997 4.48,-3.040001 4,-3.520001 4,-3.52 3.51999,-4 3.36,-4.16 L 138.08,39.52 140.8,34.880001 143.2,30.08 145.11999,25.280001 146.88,20.16 l 1.28,-5.28 0.80001,-5.28 0.64,-5.28 0.15998,-5.28"
       style="fill:none;stroke:#000000;stroke-width:26.4;stroke-linecap:round;stroke-linejoin:round;stroke-miterlimit:10;stroke-dasharray:none;stroke-opacity:1"
       transform="translate(360,600.21328)"
       clip-path="url(#clipPath4)" />
  </g>
</svg>
