<?xml version="1.0" encoding="UTF-8" standalone="no"?>
<!-- Created with Inkscape (http://www.inkscape.org/) -->

<svg
   version="1.1"
   id="svg1"
   width="198.77333"
   height="335.04001"
   viewBox="0 0 198.77333 335.04001"
   sodipodi:docname="Arsen10.pdf"
   xmlns:inkscape="http://www.inkscape.org/namespaces/inkscape"
   xmlns:sodipodi="http://sodipodi.sourceforge.net/DTD/sodipodi-0.dtd"
   xmlns="http://www.w3.org/2000/svg"
   xmlns:svg="http://www.w3.org/2000/svg">
  <defs
     id="defs1">
    <clipPath
       clipPathUnits="userSpaceOnUse"
       id="clipPath2">
      <path
         d="M 0,0.16 V 1122.5601 H 793.59998 V 0.16 Z"
         transform="translate(-397.28,-561.28003)"
         clip-rule="evenodd"
         id="path2" />
    </clipPath>
    <clipPath
       clipPathUnits="userSpaceOnUse"
       id="clipPath4">
      <path
         d="M 0,0.16 V 1122.5601 H 793.59998 V 0.16 Z"
         transform="translate(-472,-561.76001)"
         clip-rule="evenodd"
         id="path4" />
    </clipPath>
    <clipPath
       clipPathUnits="userSpaceOnUse"
       id="clipPath6">
      <path
         d="M 0,0.16 V 1122.5601 H 793.59998 V 0.16 Z"
         transform="translate(-318.72,-560.79999)"
         clip-rule="evenodd"
         id="path6" />
    </clipPath>
    <clipPath
       clipPathUnits="userSpaceOnUse"
       id="clipPath8">
      <path
         d="M 0,0.16 V 1122.5601 H 793.59998 V 0.16 Z"
         transform="translate(-401.28,-712.47998)"
         clip-rule="evenodd"
         id="path8" />
    </clipPath>
    <clipPath
       clipPathUnits="userSpaceOnUse"
       id="clipPath10">
      <path
         d="M 0,0.16 V 1122.5601 H 793.59998 V 0.16 Z"
         transform="translate(-3.3333333e-6)"
         clip-rule="evenodd"
         id="path10" />
    </clipPath>
    <clipPath
       clipPathUnits="userSpaceOnUse"
       id="clipPath12">
      <path
         d="M 0,0.16 V 1122.5601 H 793.59998 V 0.16 Z"
         transform="translate(-3.3333333e-6)"
         clip-rule="evenodd"
         id="path12" />
    </clipPath>
  </defs>
  <sodipodi:namedview
     id="namedview1"
     pagecolor="#505050"
     bordercolor="#eeeeee"
     borderopacity="1"
     inkscape:showpageshadow="0"
     inkscape:pageopacity="0"
     inkscape:pagecheckerboard="0"
     inkscape:deskcolor="#505050">
    <inkscape:page
       x="0"
       y="0"
       inkscape:label="1"
       id="page1"
       width="198.77333"
       height="335.04001"
       margin="0"
       bleed="0" />
  </sodipodi:namedview>
  <g
     id="g1"
     inkscape:groupmode="layer"
     inkscape:label="1">
    <path
       id="path1"
       d="M 0,0 -0.16,-3.68 -0.64,-7.2 -1.44,-10.88 -2.56,-14.24 -4,-17.6 -5.76,-20.799999 -7.84,-23.84 -10.08,-26.719999 -12.64,-29.280001 -15.52,-31.68 -18.559999,-33.759998 -21.76,-35.52 -24.959999,-36.959999 -28.48,-38.240002 -32,-39.040001 -35.68,-39.52 l -3.680001,-0.16 -3.68,0.16 -3.52,0.479999 -3.520001,0.799999 -3.519996,1.280003 -3.360001,1.439999 -3.200001,1.760002 -3.040001,2.079998 -2.719997,2.399999 -2.560005,2.560002 -2.399994,2.879999 -1.920006,3.040001 L -74.559998,-17.6 -76,-14.24 l -1.120003,3.52 -0.799995,3.52 -0.480004,3.68 -0.159996,3.68"
       style="fill:none;stroke:#000000;stroke-width:26.4;stroke-linecap:round;stroke-linejoin:round;stroke-miterlimit:10;stroke-dasharray:none;stroke-opacity:1"
       transform="translate(99.786666,166.18664)"
       clip-path="url(#clipPath2)" />
    <path
       id="path3"
       d="M 0,0 V -3.52 L -0.48,-7.04 -1.28,-10.4 -2.4,-13.76 -3.68,-16.959999 -5.44,-20 -7.36,-22.879999 -9.6,-25.6 -12,-28.16 -14.56,-30.4 -17.440001,-32.32 -20.48,-34.080002 -23.68,-35.52 -27.040001,-36.799999 -30.4,-37.599998 l -3.519998,-0.480004 -3.520001,-0.16 h -3.36 l -3.520001,0.480004 -3.36,0.799999 -3.360001,1.119999 -3.200001,1.279999 -3.039997,1.760002 -3.040001,1.92 -2.720001,2.08 -2.400001,2.559999 -2.239998,2.56 -2.080002,2.880001 -1.759995,3.039999 -1.440002,3.2 -1.120003,3.36 -0.799995,3.36 -0.64,3.36 -0.160003,3.52"
       style="fill:none;stroke:#000000;stroke-width:26.4;stroke-linecap:round;stroke-linejoin:round;stroke-miterlimit:10;stroke-dasharray:none;stroke-opacity:1"
       transform="translate(174.50667,166.66662)"
       clip-path="url(#clipPath4)" />
    <path
       id="path5"
       d="m 0,0 2.56,12 3.04,12 3.52,11.68 4.16,11.680001 4.48,11.52 4.799999,11.200001 L 28,81.120003 33.919998,91.839996 40.16,102.4 l 6.720001,10.4 7.039997,10.08 7.520001,9.6 7.84,9.44 8.319999,9.11999"
       style="fill:none;stroke:#000000;stroke-width:26.4;stroke-linecap:round;stroke-linejoin:round;stroke-miterlimit:10;stroke-dasharray:none;stroke-opacity:1"
       transform="translate(21.226668,165.7066)"
       clip-path="url(#clipPath6)" />
    <path
       id="path7"
       d="m 0,0 7.84,-9.28 7.36,-9.599999 6.88,-9.92 6.559999,-10.240002 6.240002,-10.399998 L 40.639999,-60 l 5.279999,-10.879997 4.800003,-11.200005 4.48,-11.199997 4,-11.520001 3.52,-11.52 3.040001,-11.68 2.559998,-11.84 2.080002,-12"
       style="fill:none;stroke:#000000;stroke-width:26.4;stroke-linecap:round;stroke-linejoin:round;stroke-miterlimit:10;stroke-dasharray:none;stroke-opacity:1"
       transform="translate(103.78667,317.38659)"
       clip-path="url(#clipPath8)" />
    <path
       id="path9"
       d="m 396.32001,560.79999 0.47998,-150.56"
       style="fill:none;stroke:#000000;stroke-width:26.4;stroke-linecap:round;stroke-linejoin:round;stroke-miterlimit:10;stroke-dasharray:none;stroke-opacity:1"
       transform="translate(-297.49333,-395.09339)"
       clip-path="url(#clipPath10)" />
    <path
       id="path11"
       d="M 340,467.04001 H 452.16"
       style="fill:none;stroke:#000000;stroke-width:26.4;stroke-linecap:round;stroke-linejoin:round;stroke-miterlimit:10;stroke-dasharray:none;stroke-opacity:1"
       transform="translate(-297.49333,-395.09339)"
       clip-path="url(#clipPath12)" />
  </g>
</svg>
