<?xml version="1.0" encoding="UTF-8" standalone="no"?>
<!-- Created with Inkscape (http://www.inkscape.org/) -->

<svg
   version="1.1"
   id="svg1"
   width="289.49332"
   height="412.45334"
   viewBox="0 0 289.49332 412.45334"
   sodipodi:docname="Bismuth1.pdf"
   xmlns:inkscape="http://www.inkscape.org/namespaces/inkscape"
   xmlns:sodipodi="http://sodipodi.sourceforge.net/DTD/sodipodi-0.dtd"
   xmlns="http://www.w3.org/2000/svg"
   xmlns:svg="http://www.w3.org/2000/svg">
  <defs
     id="defs1">
    <clipPath
       clipPathUnits="userSpaceOnUse"
       id="clipPath2">
      <path
         d="M 0,0.16 V 1122.5601 H 793.59998 V 0.16 Z"
         transform="translate(-520,-654.15998)"
         clip-rule="evenodd"
         id="path2" />
    </clipPath>
    <clipPath
       clipPathUnits="userSpaceOnUse"
       id="clipPath4">
      <path
         d="M 0,0.16 V 1122.5601 H 793.59998 V 0.16 Z"
         transform="translate(-337.44,-373.12)"
         clip-rule="evenodd"
         id="path4" />
    </clipPath>
  </defs>
  <sodipodi:namedview
     id="namedview1"
     pagecolor="#505050"
     bordercolor="#eeeeee"
     borderopacity="1"
     inkscape:showpageshadow="0"
     inkscape:pageopacity="0"
     inkscape:pagecheckerboard="0"
     inkscape:deskcolor="#505050">
    <inkscape:page
       x="0"
       y="0"
       inkscape:label="1"
       id="page1"
       width="289.49332"
       height="412.45334"
       margin="0"
       bleed="0" />
  </sodipodi:namedview>
  <g
     id="g1"
     inkscape:groupmode="layer"
     inkscape:label="1">
    <path
       id="path1"
       d="m 0,0 c 0,-52.619999 -54.540001,-95.279999 -121.84,-95.279999 -67.3,0 -121.83999,42.66 -121.83999,95.279999 0,52.619999 54.53999,95.279999 121.83999,95.279999 C -54.540001,95.279999 0,52.619999 0,0 Z"
       style="fill:none;stroke:#000000;stroke-width:26.4;stroke-linecap:round;stroke-linejoin:round;stroke-miterlimit:10;stroke-dasharray:none;stroke-opacity:1"
       transform="translate(267.86667,297.77325)"
       clip-path="url(#clipPath2)" />
    <path
       id="path3"
       d="m 0,0 -6.24,2.72 -6.08,3.2 -5.92,3.36 -5.6,3.68 -5.280001,3.839999 -4.960001,4.16 -4.799999,4.320002 -4.32,4.639999 -4,4.640001 -3.68,4.959999 -3.360001,5.119999 -2.879997,5.279999 -2.400001,5.280003 -2.239998,5.439998 -1.600003,5.599999 -1.440002,5.599998 -0.799995,5.600006 -0.480004,5.759995 v 5.600006 l 0.32,5.759995 0.800003,5.600002 1.279999,5.6 1.599998,5.6 2.080002,5.44 2.400002,5.28 2.879997,5.28 3.200001,5.12 3.52,4.96 4,4.8 4.32,4.64 4.639999,4.32 4.960001,4.16 5.120001,4 5.599998,3.67999 5.760001,3.52001 6.08,3.04001 6.24,3.03999 6.56,2.56 6.56,2.24 6.879999,2.08 6.880001,1.59999 7.039999,1.44001 7.200001,0.96 7.200001,0.80001 7.360001,0.31999 7.199996,0.16 7.360001,-0.32 7.200005,-0.64 7.199997,-0.80001 7.040001,-1.28 7.04,-1.59999 6.879998,-1.92 6.72,-2.08 6.56,-2.55999 6.24,-2.72001 6.24,-3.04 5.76,-3.36 5.76001,-3.68 5.27999,-3.83999 5.12,-4 4.8,-4.32001 4.31999,-4.48 4.16001,-4.8 3.68001,-4.8 3.36,-5.12 3.03999,-5.12 2.56,-5.44 2.24,-5.44 1.76,-5.44 1.44,-5.6 0.96001,-5.599997 L 184.8,91.040001 184.96001,85.440002 184.64,79.68 184,74.080002 182.88,68.32 181.28,62.880001 179.36,57.279999 176.96001,52 174.24,46.720001 171.03999,41.599998 167.52,36.48 163.67999,31.68 159.36,27.040001 154.88,22.719999 149.92,18.4 144.8,14.4 139.36,10.72 133.60001,7.2 127.52,4 121.28,1.12"
       style="fill:none;stroke:#000000;stroke-width:26.4;stroke-linecap:round;stroke-linejoin:round;stroke-miterlimit:10;stroke-dasharray:none;stroke-opacity:1"
       transform="translate(85.306669,16.73327)"
       clip-path="url(#clipPath4)" />
  </g>
</svg>
