<?xml version="1.0" encoding="UTF-8" standalone="no"?>
<!-- Created with Inkscape (http://www.inkscape.org/) -->

<svg
   version="1.1"
   id="svg1"
   width="512.26666"
   height="584.64001"
   viewBox="0 0 512.26666 584.64001"
   sodipodi:docname="Cobalt2.pdf"
   xmlns:inkscape="http://www.inkscape.org/namespaces/inkscape"
   xmlns:sodipodi="http://sodipodi.sourceforge.net/DTD/sodipodi-0.dtd"
   xmlns="http://www.w3.org/2000/svg"
   xmlns:svg="http://www.w3.org/2000/svg">
  <defs
     id="defs1">
    <clipPath
       clipPathUnits="userSpaceOnUse"
       id="clipPath2">
      <path
         d="M 0,0.16 V 1122.5601 H 793.59998 V 0.16 Z"
         transform="translate(-161.75999,-654.40003)"
         clip-rule="evenodd"
         id="path2" />
    </clipPath>
    <clipPath
       clipPathUnits="userSpaceOnUse"
       id="clipPath4">
      <path
         d="M 0,0.16 V 1122.5601 H 793.59998 V 0.16 Z"
         transform="translate(-350.56,-654.40003)"
         clip-rule="evenodd"
         id="path4" />
    </clipPath>
    <clipPath
       clipPathUnits="userSpaceOnUse"
       id="clipPath6">
      <path
         d="M 0,0.16 V 1122.5601 H 793.59998 V 0.16 Z"
         clip-rule="evenodd"
         id="path6" />
    </clipPath>
  </defs>
  <sodipodi:namedview
     id="namedview1"
     pagecolor="#505050"
     bordercolor="#eeeeee"
     borderopacity="1"
     inkscape:showpageshadow="0"
     inkscape:pageopacity="0"
     inkscape:pagecheckerboard="0"
     inkscape:deskcolor="#505050">
    <inkscape:page
       x="0"
       y="0"
       inkscape:label="1"
       id="page1"
       width="512.26666"
       height="584.64001"
       margin="0"
       bleed="0" />
  </sodipodi:namedview>
  <g
     id="g1"
     inkscape:groupmode="layer"
     inkscape:label="1">
    <path
       id="path1"
       d="M 0,0 2.88,-9.44 11.52,-37.919998 16.959999,-55.360001 20.799999,-68 28,-90.239998 34.720001,-110.24 l 6.399998,-18.24 6.240002,-17.12001 6.079998,-16.31999 6.240001,-15.83999 6.239998,-15.52001 3.360001,-8.16 4.800003,-11.36 6.879997,-15.84 8.480003,-18.39999 9.279999,-19.52001 3.999999,-8 7.2,-13.44 6.56,-11.67999 5.92,-9.92002 5.44,-8.63998 5.27999,-7.68002 4.80001,-6.72 4.8,-5.91999 4.48,-5.28 4.47999,-4.48001 4.16001,-4 4,-3.35998 4,-2.88001 3.83999,-2.23999 3.68001,-1.76001 3.67999,-1.28 3.52001,-0.80001 3.36,-0.31998 h 0.64 l 2.88,0.16 3.2,0.63999 3.36,0.95999 3.2,1.44 3.36,2.08002 3.36,2.39999 3.36,2.88001 3.52,3.35998 3.52001,4 3.35998,4.48001 3.68001,4.95999 3.52,5.60001 3.68,6.23999 3.68,6.72 3.84,7.52002 4,8.31998 4,9.28 4.16,10.08001 4.32,11.35999 4.64,12.64001 5.12001,14.72001 5.6,17.44 6.23999,20.47999 1.60001,5.76 3.19998,11.36 4.32001,15.36 4.16,15.52 4.16001,15.84 4,16.16 4,16.8 4,17.599997 4.16,18.560005 4.31998,20.159996 L 314.72,-31.52 320.16,-4 l 0.79999,4"
       style="fill:none;stroke:#000000;stroke-width:26.4;stroke-linecap:round;stroke-linejoin:round;stroke-miterlimit:10;stroke-dasharray:none;stroke-opacity:1"
       transform="translate(21.679995,384.7733)"
       clip-path="url(#clipPath2)" />
    <path
       id="path3"
       d="m 0,0 0.96,-9.44 2.88,-28.319998 2.4,-21.440003 1.6,-14.719997 3.2,-24.959999 3.04,-21.280003 2.879999,-18.4 L 20,-155.03999 23.200001,-170.08 l 2.08,-9.28 1.92,-8 3.359998,-12.48 3.520003,-12 3.679996,-11.52 4,-10.88 4.16,-10.4 4.320004,-9.92 4.639999,-9.28 4.799999,-8.95999 5.120003,-8.48001 5.119995,-8 5.440003,-7.51999 5.760002,-7.04001 3.839996,-4.48001 4.32,-4.63998 6.239998,-6.08002 6.400003,-5.75998 6.56,-5.28 6.72,-4.80001 6.72,-4.32001 6.72,-3.84 6.56,-3.35998 6.55999,-2.88001 6.24001,-2.23999 6.24,-1.76001 5.92,-1.44 5.59999,-0.79999 L 171.2,-355.84 h 5.12001 l 3.03999,0.32001 4.16,0.63999 4.64,1.11999 4.32,1.44 4.48001,1.92002 4.15998,2.39999 4.16001,2.72 4,3.20001 4,3.68 3.68001,4.16 3.67999,4.63998 3.36,5.12 3.36,5.44 3.03999,6.08002 2.88001,6.56 2.56,6.88 0.16,0.63999 1.44,4.16 1.92,7.36001 1.28,7.19999 0.8,6.55999 0.16001,6.4 -0.16001,6.08001 -0.64,5.92 -1.12001,5.44001 -1.59999,5.43998 -2.08,4.96001 -2.39999,4.96001 -2.72001,4.64 -3.20001,4.47999 -3.51999,4.31999 -4,4.16001 -3.04001,2.88 -4.47999,3.68 -4.96001,3.84001 -5.92,4 -6.87999,4.31999 -8.16,4.8 -10.08,5.60001 -6.24001,3.19999 -5.28,2.72001 -8.47999,4.47999 -6.72,3.67999 -5.28,2.88001 -4.16,2.56 -3.51999,2.24 -2.72001,2.08 -2.08,1.92 -1.6,1.76 -0.95999,1.6 -0.48002,1.28 -0.15998,0.95999 0.15998,1.28002 0.48002,1.28 1.11999,1.43998 1.44,1.28002 1.92,1.28 2.56,1.43998 2.88,1.28002 3.51999,1.43998 4.16001,1.44001 4.8,1.44 5.44,1.60001 6.4,1.75999 7.68,1.92 9.12,2.56 12.47999,3.36 8,2.40001 4.96001,1.59999 4.8,1.6 5.12,1.92 6.39999,2.72 6.08001,3.04 5.6,3.04 5.44,3.36 5.12,3.68 4.8,3.84 4.31999,4 4.16002,4.32 3.68,4.639999 3.51999,4.800003 3.04,5.119996 2.88001,5.440002 2.39999,5.919998 0.32001,0.800003 1.44,3.839997 1.75998,6.400001 1.60001,6.880001 1.28,7.040001 0.80001,7.520001 0.47999,7.679998 0.16,8.32 -0.16,8.48 -0.63999,9.12 -0.96002,9.28 -1.44,9.92 -1.12,6.88 L 276,27.200001 273.60001,38.080002 270.72,48.959999 267.67999,59.360001 264,69.440002 l -3.84,9.439995 -4,8.800003 -4.48001,8.32 -4.47999,7.68 -4.96,7.2 -4.96,6.72 -4.31999,5.12 -4,4.16 -5.60001,5.6 -6.08,5.44 -6.72,5.28 -7.04,4.96 -7.36,4.80001 -7.68,4.47999 -8,4.16001 -8.15999,3.83999 -8.16001,3.36 -8,2.72 -7.83999,2.4 -7.36,1.75999 -2.40001,0.48001 -4.80001,0.95999 -6.71999,0.80001 -6.72,0.64 -6.88,0.16 h -7.04 l -7.200003,-0.48 -7.68,-0.96 -8,-1.28 -8.959999,-1.76 -10.239998,-2.4 -7.680001,-1.92"
       style="fill:none;stroke:#000000;stroke-width:26.4;stroke-linecap:round;stroke-linejoin:round;stroke-miterlimit:10;stroke-dasharray:none;stroke-opacity:1"
       transform="translate(210.48,384.7733)"
       clip-path="url(#clipPath4)" />
    <path
       id="path5"
       d="M 218.39999,503.35999 H 350.56"
       style="fill:none;stroke:#000000;stroke-width:26.4;stroke-linecap:round;stroke-linejoin:round;stroke-miterlimit:10;stroke-dasharray:none;stroke-opacity:1"
       transform="translate(-140.08,-269.62673)"
       clip-path="url(#clipPath6)" />
  </g>
</svg>
