<?xml version="1.0" encoding="UTF-8" standalone="no"?>
<!-- Created with Inkscape (http://www.inkscape.org/) -->

<svg
   version="1.1"
   id="svg1"
   width="269.46667"
   height="315.01334"
   viewBox="0 0 269.46667 315.01334"
   sodipodi:docname="CopperPlate.pdf"
   xmlns:inkscape="http://www.inkscape.org/namespaces/inkscape"
   xmlns:sodipodi="http://sodipodi.sourceforge.net/DTD/sodipodi-0.dtd"
   xmlns="http://www.w3.org/2000/svg"
   xmlns:svg="http://www.w3.org/2000/svg">
  <defs
     id="defs1">
    <clipPath
       clipPathUnits="userSpaceOnUse"
       id="clipPath2">
      <path
         d="M 0,0.16 V 1122.5601 H 793.59998 V 0.16 Z"
         transform="translate(-283.51999,-674.56)"
         clip-rule="evenodd"
         id="path2" />
    </clipPath>
    <clipPath
       clipPathUnits="userSpaceOnUse"
       id="clipPath4">
      <path
         d="M 0,0.16 V 1122.5601 H 793.59998 V 0.16 Z"
         transform="translate(-396.79998,-712.32001)"
         clip-rule="evenodd"
         id="path4" />
    </clipPath>
    <clipPath
       clipPathUnits="userSpaceOnUse"
       id="clipPath6">
      <path
         d="M 0,0.16 V 1122.5601 H 793.59998 V 0.16 Z"
         transform="translate(-3.3333333e-6)"
         clip-rule="evenodd"
         id="path6" />
    </clipPath>
    <clipPath
       clipPathUnits="userSpaceOnUse"
       id="clipPath8">
      <path
         d="M 0,0.16 V 1122.5601 H 793.59998 V 0.16 Z"
         transform="translate(-3.3333333e-6)"
         clip-rule="evenodd"
         id="path8" />
    </clipPath>
  </defs>
  <sodipodi:namedview
     id="namedview1"
     pagecolor="#505050"
     bordercolor="#eeeeee"
     borderopacity="1"
     inkscape:showpageshadow="0"
     inkscape:pageopacity="0"
     inkscape:pagecheckerboard="0"
     inkscape:deskcolor="#505050">
    <inkscape:page
       x="0"
       y="0"
       inkscape:label="1"
       id="page1"
       width="269.46667"
       height="315.01334"
       margin="0"
       bleed="0" />
  </sodipodi:namedview>
  <g
     id="g1"
     inkscape:groupmode="layer"
     inkscape:label="1">
    <path
       id="path1"
       d="m 0,0 9.92,-9.44 9.280001,-9.920001 9.119999,-10.08 L 36.959999,-40 l 8.32,-10.720001 7.84,-11.199997 7.360001,-11.360001 7.039997,-11.68 6.560005,-12 6.080002,-12.160001 5.599998,-12.48 5.119995,-12.48 4.64,-12.8 4.319999,-12.96 3.680004,-13.12001 3.2,-13.27999 2.72,-13.28 2.24,-13.44001 1.6,-13.59999"
       style="fill:none;stroke:#000000;stroke-width:26.4;stroke-linecap:round;stroke-linejoin:round;stroke-miterlimit:10;stroke-dasharray:none;stroke-opacity:1"
       transform="translate(20.706656,254.10661)"
       clip-path="url(#clipPath2)" />
    <path
       id="path3"
       d="m 0,0 9.76,-9.44 9.440001,-9.920001 9.119999,-10.08 L 36.959999,-40 l 8.32,-10.720001 7.84,-11.199997 7.360001,-11.360001 7.039997,-11.68 6.560005,-12 6.080002,-12.160001 5.599998,-12.48 5.119995,-12.64 4.64,-12.64 4.319999,-12.96 3.680004,-13.12001 3.2,-13.27999 2.72,-13.28 2.24,-13.44001 1.6,-13.59999"
       style="fill:none;stroke:#000000;stroke-width:26.4;stroke-linecap:round;stroke-linejoin:round;stroke-miterlimit:10;stroke-dasharray:none;stroke-opacity:1"
       transform="translate(133.98665,291.86662)"
       clip-path="url(#clipPath4)" />
    <path
       id="path5"
       d="m 396.79999,448 113.28,37.76001"
       style="fill:none;stroke:#000000;stroke-width:26.4;stroke-linecap:round;stroke-linejoin:round;stroke-miterlimit:10;stroke-dasharray:none;stroke-opacity:1"
       transform="translate(-262.81333,-420.45339)"
       clip-path="url(#clipPath6)" />
    <path
       id="path7"
       d="m 283.51999,674.56 113.28,37.76001"
       style="fill:none;stroke:#000000;stroke-width:26.4;stroke-linecap:round;stroke-linejoin:round;stroke-miterlimit:10;stroke-dasharray:none;stroke-opacity:1"
       transform="translate(-262.81333,-420.45339)"
       clip-path="url(#clipPath8)" />
  </g>
</svg>
