<?xml version="1.0" encoding="UTF-8" standalone="no"?>
<!-- Created with Inkscape (http://www.inkscape.org/) -->

<svg
   version="1.1"
   id="svg1"
   width="274.81332"
   height="268.29333"
   viewBox="0 0 274.81332 268.29333"
   sodipodi:docname="Copper24.pdf"
   xmlns:inkscape="http://www.inkscape.org/namespaces/inkscape"
   xmlns:sodipodi="http://sodipodi.sourceforge.net/DTD/sodipodi-0.dtd"
   xmlns="http://www.w3.org/2000/svg"
   xmlns:svg="http://www.w3.org/2000/svg">
  <defs
     id="defs1">
    <clipPath
       clipPathUnits="userSpaceOnUse"
       id="clipPath2">
      <path
         d="M 0,0.16 V 1122.5601 H 793.59998 V 0.16 Z"
         transform="translate(-510.07999,-561.28003)"
         clip-rule="evenodd"
         id="path2" />
    </clipPath>
    <clipPath
       clipPathUnits="userSpaceOnUse"
       id="clipPath4">
      <path
         d="M 0,0.16 V 1122.5601 H 793.59998 V 0.16 Z"
         transform="translate(-410.72,-526.23999)"
         clip-rule="evenodd"
         id="path4" />
    </clipPath>
  </defs>
  <sodipodi:namedview
     id="namedview1"
     pagecolor="#505050"
     bordercolor="#eeeeee"
     borderopacity="1"
     inkscape:showpageshadow="0"
     inkscape:pageopacity="0"
     inkscape:pagecheckerboard="0"
     inkscape:deskcolor="#505050">
    <inkscape:page
       x="0"
       y="0"
       inkscape:label="1"
       id="page1"
       width="274.81332"
       height="268.29333"
       margin="0"
       bleed="0" />
  </sodipodi:namedview>
  <g
     id="g1"
     inkscape:groupmode="layer"
     inkscape:label="1">
    <path
       id="path1"
       d="m 0,0 c 0,-62.560001 -50.709999,-113.28 -113.28,-113.28 -62.57001,0 -113.28,50.719999 -113.28,113.28 0,62.560001 50.70999,113.28 113.28,113.28 C -50.709999,113.28 0,62.560001 0,0 Z"
       style="fill:none;stroke:#000000;stroke-width:26.4;stroke-linecap:round;stroke-linejoin:round;stroke-miterlimit:10;stroke-dasharray:none;stroke-opacity:1"
       transform="translate(248.59999,135.47997)"
       clip-path="url(#clipPath2)" />
    <path
       id="path3"
       d="m 0,0 -3.2,-1.12 -3.36,-0.8 -3.52,-0.64 -3.36,-0.16 -3.519999,0.16 -3.360001,0.48 -3.36,0.64 -3.360001,1.12 L -30.24,0.96 -33.279999,2.72 -36.16,4.64 l -2.720001,2.08 -2.399998,2.4 -2.240001,2.56 -2.079998,2.88 -1.760003,3.04 -1.439998,3.039999 L -49.919998,24 l -0.960003,3.360001 -0.48,3.359998 -0.319999,3.360003 0.16,3.519996 0.319999,3.360001 0.799999,3.520001 0.960003,3.2 1.279999,3.200001 1.599999,3.039997 1.920002,3.040001 2.079998,2.720001 2.400001,2.400002 2.560002,2.400001 2.719997,1.919999 L -31.84,68.32 l 3.040001,1.440002 3.359998,1.279999 3.200001,0.799995 3.520001,0.640007 3.359999,0.32 h 3.52 l 3.36,-0.32 3.52,-0.640007 3.2,-0.959999 3.2,-1.279999 L 4.64,68 7.52,66.239998 10.24,64.160004 12.8,61.759998"
       style="fill:none;stroke:#000000;stroke-width:26.4;stroke-linecap:round;stroke-linejoin:round;stroke-miterlimit:10;stroke-dasharray:none;stroke-opacity:1"
       transform="translate(149.24,100.43993)"
       clip-path="url(#clipPath4)" />
  </g>
</svg>
