<?xml version="1.0" encoding="UTF-8" standalone="no"?>
<!-- Created with Inkscape (http://www.inkscape.org/) -->

<svg
   version="1.1"
   id="svg1"
   width="325.51999"
   height="356.38666"
   viewBox="0 0 325.51999 356.38666"
   sodipodi:docname="Copper23.pdf"
   xmlns:inkscape="http://www.inkscape.org/namespaces/inkscape"
   xmlns:sodipodi="http://sodipodi.sourceforge.net/DTD/sodipodi-0.dtd"
   xmlns="http://www.w3.org/2000/svg"
   xmlns:svg="http://www.w3.org/2000/svg">
  <defs
     id="defs1">
    <clipPath
       clipPathUnits="userSpaceOnUse"
       id="clipPath2">
      <path
         d="M 0,0.16 V 1122.5601 H 793.59998 V 0.16 Z"
         transform="translate(-427.84,-479.83999)"
         clip-rule="evenodd"
         id="path2" />
    </clipPath>
    <clipPath
       clipPathUnits="userSpaceOnUse"
       id="clipPath4">
      <path
         d="M 0,0.16 V 1122.5601 H 793.59998 V 0.16 Z"
         transform="translate(3.3333333e-6)"
         clip-rule="evenodd"
         id="path4" />
    </clipPath>
    <clipPath
       clipPathUnits="userSpaceOnUse"
       id="clipPath6">
      <path
         d="M 0,0.16 V 1122.5601 H 793.59998 V 0.16 Z"
         transform="translate(3.3333333e-6)"
         clip-rule="evenodd"
         id="path6" />
    </clipPath>
    <clipPath
       clipPathUnits="userSpaceOnUse"
       id="clipPath8">
      <path
         d="M 0,0.16 V 1122.5601 H 793.59998 V 0.16 Z"
         transform="translate(3.3333333e-6)"
         clip-rule="evenodd"
         id="path8" />
    </clipPath>
    <clipPath
       clipPathUnits="userSpaceOnUse"
       id="clipPath10">
      <path
         d="M 0,0.16 V 1122.5601 H 793.59998 V 0.16 Z"
         transform="translate(3.3333333e-6)"
         clip-rule="evenodd"
         id="path10" />
    </clipPath>
  </defs>
  <sodipodi:namedview
     id="namedview1"
     pagecolor="#505050"
     bordercolor="#eeeeee"
     borderopacity="1"
     inkscape:showpageshadow="0"
     inkscape:pageopacity="0"
     inkscape:pagecheckerboard="0"
     inkscape:deskcolor="#505050">
    <inkscape:page
       x="0"
       y="0"
       inkscape:label="1"
       id="page1"
       width="325.51999"
       height="356.38666"
       margin="0"
       bleed="0" />
  </sodipodi:namedview>
  <g
     id="g1"
     inkscape:groupmode="layer"
     inkscape:label="1">
    <path
       id="path1"
       d="M 0,0 -4.96,1.6 -9.92,3.36 -15.04,5.6 -20.32,8 -25.6,10.72 -30.879999,13.76 -36,17.120001 -41.279999,20.639999 -46.560001,24.48 -51.68,28.32 l -5.119999,4.319999 -4.959999,4.32 -4.8,4.639999 -4.639999,4.640004 -4.639999,4.959999 -4.320008,4.959999 -4.159996,4.959999 -4,5.280003 -3.840004,5.119995 -3.519996,5.280006 -3.199997,5.279999 -3.040003,5.279999 -2.72,5.279998 -2.4,5.120003 -2.08,5.119998 -1.92,5.12 -1.44,4.96 -1.28,4.8 -0.8,4.64 -0.64,4.48 -0.16,4.48 v 4.16 l 0.48,3.84 0.8,3.84 0.96,3.36 1.44,3.19999 1.76,3.04001 2.08,2.72 2.24,2.4 2.56,2.08 3.04,1.75999 3.040001,1.44001 3.519997,1.12001 3.68,0.95999 3.840004,0.47999 4.159996,0.16001 4.160004,-0.16001 4.639999,-0.47999 4.639999,-0.8 4.8,-1.12 4.799999,-1.44 5.120003,-1.76 5.119998,-2.08 5.119999,-2.40001 5.279999,-2.71998 5.280003,-2.88001 5.279999,-3.2 5.28,-3.52 5.119999,-3.68001 5.280001,-3.83999 4.96,-4.16001 5.12,-4.31999 4.8,-4.48 4.8,-4.8 4.64,-4.8 4.319999,-4.8 4.320002,-5.12 4,-5.120002 3.839998,-5.279999 3.68,-5.120003 L 35.84,82.559998 39.040001,77.279999 41.759998,72 44.32,66.720001 46.560001,61.599998 48.48,56.48 50.080002,51.52 51.360001,46.720001 52.48,41.919998"
       style="fill:none;stroke:#000000;stroke-width:26.4;stroke-linecap:round;stroke-linejoin:round;stroke-miterlimit:10;stroke-dasharray:none;stroke-opacity:1"
       transform="translate(143.69333,171.5066)"
       clip-path="url(#clipPath2)" />
    <path
       id="path3"
       d="M 480.32001,521.76001 510.07999,334.72"
       style="fill:none;stroke:#000000;stroke-width:26.4;stroke-linecap:round;stroke-linejoin:round;stroke-miterlimit:10;stroke-dasharray:none;stroke-opacity:1"
       transform="translate(-284.14667,-308.33339)"
       clip-path="url(#clipPath4)" />
    <path
       id="path5"
       d="M 434.56,448 H 547.84003"
       style="fill:none;stroke:#000000;stroke-width:26.4;stroke-linecap:round;stroke-linejoin:round;stroke-miterlimit:10;stroke-dasharray:none;stroke-opacity:1"
       transform="translate(-284.14667,-308.33339)"
       clip-path="url(#clipPath6)" />
    <path
       id="path7"
       d="M 453.44,410.23999 H 566.71997"
       style="fill:none;stroke:#000000;stroke-width:26.4;stroke-linecap:round;stroke-linejoin:round;stroke-miterlimit:10;stroke-dasharray:none;stroke-opacity:1"
       transform="translate(-284.14667,-308.33339)"
       clip-path="url(#clipPath8)" />
    <path
       id="path9"
       d="M 472.32001,372.48001 H 585.59998"
       style="fill:none;stroke:#000000;stroke-width:26.4;stroke-linecap:round;stroke-linejoin:round;stroke-miterlimit:10;stroke-dasharray:none;stroke-opacity:1"
       transform="translate(-284.14667,-308.33339)"
       clip-path="url(#clipPath10)" />
  </g>
</svg>
