<?xml version="1.0" encoding="UTF-8" standalone="no"?>
<!-- Created with Inkscape (http://www.inkscape.org/) -->

<svg
   version="1.1"
   id="svg1"
   width="276.14667"
   height="303"
   viewBox="0 0 276.14667 303"
   sodipodi:docname="Diamond2.pdf"
   xmlns:inkscape="http://www.inkscape.org/namespaces/inkscape"
   xmlns:sodipodi="http://sodipodi.sourceforge.net/DTD/sodipodi-0.dtd"
   xmlns="http://www.w3.org/2000/svg"
   xmlns:svg="http://www.w3.org/2000/svg">
  <defs
     id="defs1">
    <clipPath
       clipPathUnits="userSpaceOnUse"
       id="clipPath2">
      <path
         d="M 0,0.16 V 1122.5601 H 793.59998 V 0.16 Z"
         transform="translate(-510.07999,-674.56)"
         clip-rule="evenodd"
         id="path2" />
    </clipPath>
    <clipPath
       clipPathUnits="userSpaceOnUse"
       id="clipPath4">
      <path
         d="M 0,0.16 V 1122.5601 H 793.59998 V 0.16 Z"
         transform="translate(-455.20001,-464.16)"
         clip-rule="evenodd"
         id="path4" />
    </clipPath>
    <clipPath
       clipPathUnits="userSpaceOnUse"
       id="clipPath6">
      <path
         d="M 0,0.16 V 1122.5601 H 793.59998 V 0.16 Z"
         clip-rule="evenodd"
         id="path6" />
    </clipPath>
    <clipPath
       clipPathUnits="userSpaceOnUse"
       id="clipPath8">
      <path
         d="M 0,0.16 V 1122.5601 H 793.59998 V 0.16 Z"
         clip-rule="evenodd"
         id="path8" />
    </clipPath>
  </defs>
  <sodipodi:namedview
     id="namedview1"
     pagecolor="#505050"
     bordercolor="#eeeeee"
     borderopacity="1"
     inkscape:showpageshadow="0"
     inkscape:pageopacity="0"
     inkscape:pagecheckerboard="0"
     inkscape:deskcolor="#505050">
    <inkscape:page
       x="0"
       y="0"
       inkscape:label="1"
       id="page1"
       width="276.14667"
       height="303"
       margin="0"
       bleed="0" />
  </sodipodi:namedview>
  <g
     id="g1"
     inkscape:groupmode="layer"
     inkscape:label="1">
    <path
       id="path1"
       d="m 0,0 c 0,-10.42 -8.45,-18.879999 -18.879999,-18.879999 -10.43,0 -18.879999,8.459999 -18.879999,18.879999 0,10.42 8.449999,18.879999 18.879999,18.879999 C -8.45,18.879999 0,10.42 0,0 Z"
       style="fill:none;stroke:#000000;stroke-width:26.4;stroke-linecap:round;stroke-linejoin:round;stroke-miterlimit:10;stroke-dasharray:none;stroke-opacity:1"
       transform="translate(248.59999,263.43994)"
       clip-path="url(#clipPath2)" />
    <path
       id="path3"
       d="m 0,0 -6.08,-3.36 -6.08,-2.88 -6.399999,-2.72 -6.4,-2.08 -6.560001,-1.92 -6.720002,-1.44 -6.719997,-0.96 L -51.84,-16 l -6.880001,-0.16 -6.720001,0.32 -6.879998,0.64 -6.720001,0.96 -6.720001,1.44 -6.559998,1.92 -6.400001,2.24 -6.399999,2.56 -6.08,3.04 -5.92,3.36 -5.76,3.68 -5.6,4.16 -5.12001,4.32 -4.95999,4.800001 -4.8,4.959999 -4.31999,5.28 -4,5.439999 -3.68001,5.760002 -3.36,5.919998 -3.03999,6.240002 -2.56002,6.239998 -2.23999,6.560001 -1.76001,6.559998 -1.43998,6.720001 -1.12001,6.720001 -0.48,6.720002 -0.31999,6.879997 0.31999,6.880001 0.64,6.72 0.96001,6.88 1.43998,6.56 1.92002,6.71999 2.23999,6.40001 2.55999,6.23999 3.04001,6.24001 3.36,5.92 3.68,5.76001 4,5.43998 4.48001,5.28002 4.64,4.95999 4.95999,4.64 5.28,4.47999 5.44,4 5.76,3.68001 6.08,3.36 6.08,3.04 6.240002,2.55999 L -92,205.28 l 6.559998,1.92 6.720001,1.44 6.720001,0.96001 6.879997,0.63999 6.720001,0.15999"
       style="fill:none;stroke:#000000;stroke-width:26.4;stroke-linecap:round;stroke-linejoin:round;stroke-miterlimit:10;stroke-dasharray:none;stroke-opacity:1"
       transform="translate(193.72001,53.039945)"
       clip-path="url(#clipPath4)" />
    <path
       id="path5"
       d="m 396.79999,674.56 h 75.52002"
       style="fill:none;stroke:#000000;stroke-width:26.4;stroke-linecap:round;stroke-linejoin:round;stroke-miterlimit:10;stroke-dasharray:none;stroke-opacity:1"
       transform="translate(-261.48,-411.12006)"
       clip-path="url(#clipPath6)" />
    <path
       id="path7"
       d="m 453.44,429.12 v 37.76"
       style="fill:none;stroke:#000000;stroke-width:26.4;stroke-linecap:round;stroke-linejoin:round;stroke-miterlimit:10;stroke-dasharray:none;stroke-opacity:1"
       transform="translate(-261.48,-411.12006)"
       clip-path="url(#clipPath8)" />
  </g>
</svg>
