<?xml version="1.0" encoding="UTF-8" standalone="no"?>
<!-- Created with Inkscape (http://www.inkscape.org/) -->

<svg
   version="1.1"
   id="svg1"
   width="354.86667"
   height="341.70667"
   viewBox="0 0 354.86667 341.70667"
   sodipodi:docname="Diamond.pdf"
   xmlns:inkscape="http://www.inkscape.org/namespaces/inkscape"
   xmlns:sodipodi="http://sodipodi.sourceforge.net/DTD/sodipodi-0.dtd"
   xmlns="http://www.w3.org/2000/svg"
   xmlns:svg="http://www.w3.org/2000/svg">
  <defs
     id="defs1">
    <clipPath
       clipPathUnits="userSpaceOnUse"
       id="clipPath2">
      <path
         d="M 0,0.16 V 1122.5601 H 793.59998 V 0.16 Z"
         transform="translate(3.3333334e-6)"
         clip-rule="evenodd"
         id="path2" />
    </clipPath>
    <clipPath
       clipPathUnits="userSpaceOnUse"
       id="clipPath4">
      <path
         d="M 0,0.16 V 1122.5601 H 793.59998 V 0.16 Z"
         transform="translate(3.3333334e-6)"
         clip-rule="evenodd"
         id="path4" />
    </clipPath>
    <clipPath
       clipPathUnits="userSpaceOnUse"
       id="clipPath6">
      <path
         d="M 0,0.16 V 1122.5601 H 793.59998 V 0.16 Z"
         transform="translate(3.3333334e-6)"
         clip-rule="evenodd"
         id="path6" />
    </clipPath>
    <clipPath
       clipPathUnits="userSpaceOnUse"
       id="clipPath8">
      <path
         d="M 0,0.16 V 1122.5601 H 793.59998 V 0.16 Z"
         transform="translate(-430.56,-503.20001)"
         clip-rule="evenodd"
         id="path8" />
    </clipPath>
    <clipPath
       clipPathUnits="userSpaceOnUse"
       id="clipPath10">
      <path
         d="M 0,0.16 V 1122.5601 H 793.59998 V 0.16 Z"
         transform="translate(-430.56,-503.20001)"
         clip-rule="evenodd"
         id="path10" />
    </clipPath>
    <clipPath
       clipPathUnits="userSpaceOnUse"
       id="clipPath12">
      <path
         d="M 0,0.16 V 1122.5601 H 793.59998 V 0.16 Z"
         transform="translate(-355.20002,-729.76001)"
         clip-rule="evenodd"
         id="path12" />
    </clipPath>
  </defs>
  <sodipodi:namedview
     id="namedview1"
     pagecolor="#505050"
     bordercolor="#eeeeee"
     borderopacity="1"
     inkscape:showpageshadow="0"
     inkscape:pageopacity="0"
     inkscape:pagecheckerboard="0"
     inkscape:deskcolor="#505050">
    <inkscape:page
       x="0"
       y="0"
       inkscape:label="1"
       id="page1"
       width="354.86667"
       height="341.70667"
       margin="0"
       bleed="0" />
  </sodipodi:namedview>
  <g
     id="g1"
     inkscape:groupmode="layer"
     inkscape:label="1">
    <path
       id="path1"
       d="M 355.20001,578.71997 H 204.16"
       style="fill:none;stroke:#000000;stroke-width:26.4;stroke-linecap:round;stroke-linejoin:round;stroke-miterlimit:10;stroke-dasharray:none;stroke-opacity:1"
       transform="translate(-181.42667,-408.44006)"
       clip-path="url(#clipPath2)" />
    <path
       id="path3"
       d="M 204.16,578.71997 V 729.76001"
       style="fill:none;stroke:#000000;stroke-width:26.4;stroke-linecap:round;stroke-linejoin:round;stroke-miterlimit:10;stroke-dasharray:none;stroke-opacity:1"
       transform="translate(-181.42667,-408.44006)"
       clip-path="url(#clipPath4)" />
    <path
       id="path5"
       d="M 204.16,729.76001 H 355.20001"
       style="fill:none;stroke:#000000;stroke-width:26.4;stroke-linecap:round;stroke-linejoin:round;stroke-miterlimit:10;stroke-dasharray:none;stroke-opacity:1"
       transform="translate(-181.42667,-408.44006)"
       clip-path="url(#clipPath6)" />
    <path
       id="path7"
       d="M 0,0 -5.28,0.32 -10.72,0.8 -16,1.76 -21.120001,3.2 -26.24,4.8 -31.360001,6.88 -36.16,9.28 -40.799999,12 l -4.32,3.2 -4.32,3.359999 -3.84,3.680001 -3.68,3.84 -3.360001,4.32 -3.2,4.320001 -2.719998,4.64 -2.400001,4.799999 -2.080002,4.959999 -1.599999,5.120003 -1.440002,5.279998 -0.959999,5.280003 -0.479996,5.439995 -0.160004,5.279999"
       style="fill:none;stroke:#000000;stroke-width:26.4;stroke-linecap:round;stroke-linejoin:round;stroke-miterlimit:10;stroke-dasharray:none;stroke-opacity:1"
       transform="translate(249.13333,94.759953)"
       clip-path="url(#clipPath8)" />
    <path
       id="path9"
       d="m 0,0 5.44,-0.16 5.44,-0.48 5.28,-0.96 5.120001,-1.44 5.119999,-1.6 5.12,-2.08 4.8,-2.4 4.639999,-2.88 4.32,-3.04 4.319999,-3.36 3.840001,-3.68 3.68,-3.84 3.360001,-4.32 3.2,-4.320001 2.720002,-4.64 L 68.800003,-44 l 2.079994,-5.119999 1.600006,-5.120003 1.439995,-5.119999 0.959999,-5.279998 0.480004,-5.440003 0.159996,-5.439995"
       style="fill:none;stroke:#000000;stroke-width:26.4;stroke-linecap:round;stroke-linejoin:round;stroke-miterlimit:10;stroke-dasharray:none;stroke-opacity:1"
       transform="translate(249.13333,94.759953)"
       clip-path="url(#clipPath10)" />
    <path
       id="path11"
       d="m 0,0 9.92,-4.64 9.92,-5.12 9.600001,-5.6 9.44,-5.920001 L 48,-27.52 l 8.799999,-6.720002 8.640003,-7.039997 8.159996,-7.36 8,-7.680001 7.520005,-8.160003 7.36,-8.32 6.879997,-8.639999 6.56,-8.96 6.24,-9.279998 5.76,-9.44 5.28,-9.76 4.96,-9.92 4.64,-10.08 4,-10.4 3.68,-10.39999 3.36,-10.56001 2.72,-10.72001 2.40001,-10.87999 1.75999,-11.04 1.44,-10.87999 0.95999,-11.04001 0.64,-11.2 v -11.03999 l -0.47999,-11.04 -0.95999,-11.04001 -1.28002,-11.04 -1.75999,-11.04001 -2.4,-10.87998"
       style="fill:none;stroke:#000000;stroke-width:26.4;stroke-linecap:round;stroke-linejoin:round;stroke-miterlimit:10;stroke-dasharray:none;stroke-opacity:1"
       transform="translate(173.77335,321.31995)"
       clip-path="url(#clipPath12)" />
  </g>
</svg>
