<?xml version="1.0" encoding="UTF-8" standalone="no"?>
<!-- Created with Inkscape (http://www.inkscape.org/) -->

<svg
   version="1.1"
   id="svg1"
   width="366.85333"
   height="373.73334"
   viewBox="0 0 366.85333 373.73334"
   sodipodi:docname="Gold6.pdf"
   xmlns:inkscape="http://www.inkscape.org/namespaces/inkscape"
   xmlns:sodipodi="http://sodipodi.sourceforge.net/DTD/sodipodi-0.dtd"
   xmlns="http://www.w3.org/2000/svg"
   xmlns:svg="http://www.w3.org/2000/svg">
  <defs
     id="defs1">
    <clipPath
       clipPathUnits="userSpaceOnUse"
       id="clipPath2">
      <path
         d="M 0,0.16 V 1122.5601 H 793.59998 V 0.16 Z"
         transform="translate(-510.07999,-561.28003)"
         clip-rule="evenodd"
         id="path2" />
    </clipPath>
    <clipPath
       clipPathUnits="userSpaceOnUse"
       id="clipPath4">
      <path
         d="M 0,0.16 V 1122.5601 H 793.59998 V 0.16 Z"
         transform="translate(-476.79999,-481.12)"
         clip-rule="evenodd"
         id="path4" />
    </clipPath>
    <clipPath
       clipPathUnits="userSpaceOnUse"
       id="clipPath6">
      <path
         d="M 0,0.16 V 1122.5601 H 793.59998 V 0.16 Z"
         transform="translate(-587.52002,-462.07999)"
         clip-rule="evenodd"
         id="path6" />
    </clipPath>
    <clipPath
       clipPathUnits="userSpaceOnUse"
       id="clipPath8">
      <path
         d="M 0,0.16 V 1122.5601 H 793.59998 V 0.16 Z"
         transform="translate(-492.95999,-367.67999)"
         clip-rule="evenodd"
         id="path8" />
    </clipPath>
    <clipPath
       clipPathUnits="userSpaceOnUse"
       id="clipPath10">
      <path
         d="M 0,0.16 V 1122.5601 H 793.59998 V 0.16 Z"
         transform="translate(-579.84003,-500.48001)"
         clip-rule="evenodd"
         id="path10" />
    </clipPath>
    <clipPath
       clipPathUnits="userSpaceOnUse"
       id="clipPath12">
      <path
         d="M 0,0.16 V 1122.5601 H 793.59998 V 0.16 Z"
         clip-rule="evenodd"
         id="path12" />
    </clipPath>
  </defs>
  <sodipodi:namedview
     id="namedview1"
     pagecolor="#505050"
     bordercolor="#eeeeee"
     borderopacity="1"
     inkscape:showpageshadow="0"
     inkscape:pageopacity="0"
     inkscape:pagecheckerboard="0"
     inkscape:deskcolor="#505050">
    <inkscape:page
       x="0"
       y="0"
       inkscape:label="1"
       id="page1"
       width="366.85333"
       height="373.73334"
       margin="0"
       bleed="0" />
  </sodipodi:namedview>
  <g
     id="g1"
     inkscape:groupmode="layer"
     inkscape:label="1">
    <path
       id="path1"
       d="m 0,0 c 0,-62.560001 -50.709999,-113.28 -113.28,-113.28 -62.57001,0 -113.28,50.719999 -113.28,113.28 0,62.560001 50.70999,113.28 113.28,113.28 C -50.709999,113.28 0,62.560001 0,0 Z"
       style="fill:none;stroke:#000000;stroke-width:26.4;stroke-linecap:round;stroke-linejoin:round;stroke-miterlimit:10;stroke-dasharray:none;stroke-opacity:1"
       transform="translate(510.07999,658.71997)"
       clip-path="url(#clipPath2)" />
    <path
       id="path3"
       d="M 0,0 4.16,-5.12 8,-10.4 l 3.68,-5.44 3.2,-5.76 2.72,-5.92 2.56,-6.079998 2.08,-6.240002 1.76,-6.240002 1.280001,-6.559997 0.959999,-6.400002 0.479999,-6.559997 0.16,-6.560006 -0.32,-6.559997 L 25.92,-85.279999 24.799999,-91.68 l -1.439998,-6.400002 -1.92,-6.239998 -2.24,-6.24"
       style="fill:none;stroke:#000000;stroke-width:26.4;stroke-linecap:round;stroke-linejoin:round;stroke-miterlimit:10;stroke-dasharray:none;stroke-opacity:1"
       transform="translate(476.79999,578.55994)"
       clip-path="url(#clipPath4)" />
    <path
       id="path5"
       d="m 0,0 -6.08,-2.24 -6.4,-1.76 -6.399999,-1.6 -6.400002,-0.96 -6.559999,-0.8 -6.560002,-0.16 h -6.559997 l -6.400002,0.64 -6.559997,0.96 -6.400002,1.28 -6.400001,1.6 -6.239998,2.24 -6.080002,2.4 -5.760002,2.88 -5.759995,3.2 -5.600002,3.52 -5.28,3.84 -4.96,4.160001"
       style="fill:none;stroke:#000000;stroke-width:26.4;stroke-linecap:round;stroke-linejoin:round;stroke-miterlimit:10;stroke-dasharray:none;stroke-opacity:1"
       transform="translate(587.52002,559.51993)"
       clip-path="url(#clipPath6)" />
    <path
       id="path7"
       d="M 0,0 -0.64,-2.24 -1.6,-4.32 -2.88,-6.24 -4.16,-8 l -1.6,-1.6 -1.92,-1.44 -1.92,-1.12 -2.08,-0.96 -2.24,-0.64 -2.24,-0.48 -2.24,-0.16 -2.239999,0.16 -2.24,0.48 -2.240002,0.64 -2.08,0.96 -1.92,1.28 -1.759998,1.28 L -32.48,-8 -33.919998,-6.08 -35.040001,-4.16 -36,-2.08 l -0.639999,2.24 -0.48,2.24 v 2.24 l 0.16,2.24 0.32,2.24"
       style="fill:none;stroke:#000000;stroke-width:26.4;stroke-linecap:round;stroke-linejoin:round;stroke-miterlimit:10;stroke-dasharray:none;stroke-opacity:1"
       transform="translate(492.95999,465.11993)"
       clip-path="url(#clipPath8)" />
    <path
       id="path9"
       d="M 0,0 2.24,0.64 4.48,0.96 H 6.72 L 8.96,0.8 11.2,0.32 l 2.24,-0.64 2.08,-0.96 1.920001,-1.28 1.76,-1.44 1.599998,-1.6 1.280001,-1.92 1.120001,-1.92 0.959999,-2.08 0.639999,-2.24 0.320002,-2.24 0.16,-2.24 -0.320002,-2.24 -0.32,-2.239999 -0.799999,-2.24 -0.960001,-2.080002 -1.279999,-1.919998 -1.44,-1.76 -1.600001,-1.600001 -1.76,-1.279998 L 14.72,-34.720001 12.64,-35.68"
       style="fill:none;stroke:#000000;stroke-width:26.4;stroke-linecap:round;stroke-linejoin:round;stroke-miterlimit:10;stroke-dasharray:none;stroke-opacity:1"
       transform="translate(579.84003,597.91995)"
       clip-path="url(#clipPath10)" />
    <path
       id="path11"
       d="m 476.95999,481.28 70.88004,-71.04001"
       style="fill:none;stroke:#000000;stroke-width:26.4;stroke-linecap:round;stroke-linejoin:round;stroke-miterlimit:10;stroke-dasharray:none;stroke-opacity:1"
       transform="translate(0,97.439941)"
       clip-path="url(#clipPath12)" />
  </g>
</svg>
