<?xml version="1.0" encoding="UTF-8" standalone="no"?>
<!-- Created with Inkscape (http://www.inkscape.org/) -->

<svg
   version="1.1"
   id="svg1"
   width="474.93332"
   height="452.50668"
   viewBox="0 0 474.93332 452.50668"
   sodipodi:docname="Gold3.pdf"
   xmlns:inkscape="http://www.inkscape.org/namespaces/inkscape"
   xmlns:sodipodi="http://sodipodi.sourceforge.net/DTD/sodipodi-0.dtd"
   xmlns="http://www.w3.org/2000/svg"
   xmlns:svg="http://www.w3.org/2000/svg">
  <defs
     id="defs1">
    <clipPath
       clipPathUnits="userSpaceOnUse"
       id="clipPath2">
      <path
         d="M 0,0.16 V 1122.5601 H 793.59998 V 0.16 Z"
         transform="translate(-551.84003,-561.67999)"
         clip-rule="evenodd"
         id="path2" />
    </clipPath>
    <clipPath
       clipPathUnits="userSpaceOnUse"
       id="clipPath4">
      <path
         d="M 0,0.16 V 1122.5601 H 793.59998 V 0.16 Z"
         transform="translate(-402.88,-404.95999)"
         clip-rule="evenodd"
         id="path4" />
    </clipPath>
    <clipPath
       clipPathUnits="userSpaceOnUse"
       id="clipPath6">
      <path
         d="M 0,0.16 V 1122.5601 H 793.59998 V 0.16 Z"
         transform="translate(-555.67999,-556.32001)"
         clip-rule="evenodd"
         id="path6" />
    </clipPath>
    <clipPath
       clipPathUnits="userSpaceOnUse"
       id="clipPath8">
      <path
         d="M 0,0.16 V 1122.5601 H 793.59998 V 0.16 Z"
         transform="translate(-291.04001,-443.20001)"
         clip-rule="evenodd"
         id="path8" />
    </clipPath>
    <clipPath
       clipPathUnits="userSpaceOnUse"
       id="clipPath10">
      <path
         d="M 0,0.16 V 1122.5601 H 793.59998 V 0.16 Z"
         transform="translate(-504,-439.35999)"
         clip-rule="evenodd"
         id="path10" />
    </clipPath>
    <clipPath
       clipPathUnits="userSpaceOnUse"
       id="clipPath12">
      <path
         d="M 0,0.16 V 1122.5601 H 793.59998 V 0.16 Z"
         transform="translate(-389.60001,-717.76001)"
         clip-rule="evenodd"
         id="path12" />
    </clipPath>
    <clipPath
       clipPathUnits="userSpaceOnUse"
       id="clipPath14">
      <path
         d="M 0,0.16 V 1122.5601 H 793.59998 V 0.16 Z"
         transform="translate(-238.08,-557.12)"
         clip-rule="evenodd"
         id="path14" />
    </clipPath>
    <clipPath
       clipPathUnits="userSpaceOnUse"
       id="clipPath16">
      <path
         d="M 0,0.16 V 1122.5601 H 793.59998 V 0.16 Z"
         transform="translate(-506.23999,-677.76001)"
         clip-rule="evenodd"
         id="path16" />
    </clipPath>
    <clipPath
       clipPathUnits="userSpaceOnUse"
       id="clipPath18">
      <path
         d="M 0,0.16 V 1122.5601 H 793.59998 V 0.16 Z"
         transform="translate(-289.76001,-673.91998)"
         clip-rule="evenodd"
         id="path18" />
    </clipPath>
  </defs>
  <sodipodi:namedview
     id="namedview1"
     pagecolor="#505050"
     bordercolor="#eeeeee"
     borderopacity="1"
     inkscape:showpageshadow="0"
     inkscape:pageopacity="0"
     inkscape:pagecheckerboard="0"
     inkscape:deskcolor="#505050">
    <inkscape:page
       x="0"
       y="0"
       inkscape:label="1"
       id="page1"
       width="474.93332"
       height="452.50668"
       margin="0"
       bleed="0" />
  </sodipodi:namedview>
  <g
     id="g1"
     inkscape:groupmode="layer"
     inkscape:label="1">
    <path
       id="path1"
       d="m 0,0 c 0,-84.610001 -68.580002,-153.2 -153.2,-153.2 -84.62001,0 -153.19999,68.589999 -153.19999,153.2 0,84.610001 68.57998,153.2 153.19999,153.2 C -68.580002,153.2 0,84.610001 0,0 Z"
       style="fill:none;stroke:#000000;stroke-width:26.4;stroke-linecap:round;stroke-linejoin:round;stroke-miterlimit:10;stroke-dasharray:none;stroke-opacity:1"
       transform="translate(551.84003,561.67993)"
       clip-path="url(#clipPath2)" />
    <path
       id="path3"
       d="M 0,0 2.56,0.32 H 5.12 L 7.68,0 l 2.56,-0.48 2.4,-0.8 2.4,-0.96 2.240001,-1.28 2.239999,-1.6 1.920001,-1.6 1.76,-1.92 1.599998,-2.08 1.280001,-2.24 1.120001,-2.4 0.799999,-2.4 0.639999,-2.56 0.32,-2.559999 0.160002,-2.560002 L 28.799999,-28 28.32,-30.559999 l -0.64,-2.56 L 26.719999,-35.52 25.440001,-37.759998 24,-40 22.4,-41.919998 20.48,-43.68 18.4,-45.279999 16.32,-46.720001 13.92,-47.84 l -2.4,-0.959999 -2.56,-0.64 -2.56,-0.479999 H 3.84 1.28 l -2.56,0.479999"
       style="fill:none;stroke:#000000;stroke-width:26.4;stroke-linecap:round;stroke-linejoin:round;stroke-miterlimit:10;stroke-dasharray:none;stroke-opacity:1"
       transform="translate(402.88,404.95993)"
       clip-path="url(#clipPath4)" />
    <path
       id="path5"
       d="m 0,0 0.48,3.04 0.96,2.88 1.12,2.72 1.44,2.72 1.76,2.56 2.08,2.24 2.24,2.08 2.4,1.76 2.56,1.6 2.88,1.279999 L 20.799999,23.84 23.68,24.48 26.719999,24.799999 H 29.76 L 32.799999,24.48 35.84,23.84 38.720001,22.879999 41.439999,21.6 44,20 46.560001,18.24 48.799999,16.16 50.720001,13.92 52.48,11.36 53.919998,8.64 55.200001,5.92 56,3.04 56.639999,0"
       style="fill:none;stroke:#000000;stroke-width:26.4;stroke-linecap:round;stroke-linejoin:round;stroke-miterlimit:10;stroke-dasharray:none;stroke-opacity:1"
       transform="translate(555.67999,556.31995)"
       clip-path="url(#clipPath6)" />
    <path
       id="path7"
       d="M 0,0 2.08,-1.6 4,-3.36 l 1.6,-2.08 1.44,-2.08 1.12,-2.4 0.96,-2.4 0.8,-2.56 0.32,-2.560001 L 10.4,-20 v -2.559999 L 10.08,-25.120001 9.44,-27.68 8.48,-30.08 7.36,-32.48 6.08,-34.560001 4.48,-36.639999 2.72,-38.560001 0.64,-40.32 -1.44,-41.759998 -3.68,-43.040001 -6.08,-44 l -2.56,-0.799999 -2.56,-0.48 -2.56,-0.16 h -2.56 l -2.559999,0.32 -2.560002,0.639999 -2.399999,0.8 -2.4,0.959999 -2.24,1.440002 L -30.559999,-39.84 -32.48,-38.080002 -34.240002,-36.16 -35.68,-34.080002"
       style="fill:none;stroke:#000000;stroke-width:26.4;stroke-linecap:round;stroke-linejoin:round;stroke-miterlimit:10;stroke-dasharray:none;stroke-opacity:1"
       transform="translate(291.04001,443.19995)"
       clip-path="url(#clipPath8)" />
    <path
       id="path9"
       d="M 0,0 2.4,1.76 5.12,3.2 8,4.32 10.88,5.28 13.92,5.76 16.959999,5.92 20,5.76 23.040001,5.44 25.92,4.64 28.799999,3.52 31.52,2.24 34.080002,0.48 36.48,-1.44 38.560001,-3.52 40.48,-5.92 42.080002,-8.48 43.52,-11.2 l 1.119999,-2.88 0.64,-2.879999 L 45.759998,-20 l 0.16,-3.040001 -0.32,-3.039999 -0.479999,-3.040001 L 44.32,-32 43.200001,-34.720001 41.759998,-37.439999 40,-40"
       style="fill:none;stroke:#000000;stroke-width:26.4;stroke-linecap:round;stroke-linejoin:round;stroke-miterlimit:10;stroke-dasharray:none;stroke-opacity:1"
       transform="translate(504,439.35993)"
       clip-path="url(#clipPath10)" />
    <path
       id="path11"
       d="m 0,0 -2.72,-0.32 h -2.56 l -2.56,0.16 -2.56,0.64 -2.4,0.64 -2.4,1.12 -2.240001,1.28 -2.239999,1.44 -1.92,1.76 -1.760001,1.92 -1.599998,2.08 -1.280001,2.24 -1.120001,2.24 -0.799999,2.56 -0.639999,2.4 -0.320002,2.559999 v 2.720002 L -28.959999,28 -28.48,30.559999 l 0.64,2.4 0.960001,2.400002 1.279999,2.399997 1.44,2.080002 1.600001,2.079998 1.92,1.760002 2.08,1.599999 2.079999,1.440002 2.4,1.119999 2.4,0.799999 2.56,0.8 2.56,0.319999 2.56,0.16 2.56,-0.16 2.56,-0.479999"
       style="fill:none;stroke:#000000;stroke-width:26.4;stroke-linecap:round;stroke-linejoin:round;stroke-miterlimit:10;stroke-dasharray:none;stroke-opacity:1"
       transform="translate(389.60001,717.75995)"
       clip-path="url(#clipPath12)" />
    <path
       id="path13"
       d="m 0,0 -0.64,-3.04 -0.8,-2.88 -1.12,-2.88 -1.6,-2.56 -1.76,-2.56 -1.92,-2.24 -2.24,-2.08 -2.4,-1.92 -2.72,-1.44 -2.72,-1.279999 L -20.799999,-23.84 -23.84,-24.48 -26.879999,-24.799999 H -29.92 l -2.879999,0.319999 -3.040001,0.64 -2.880001,0.960001 -2.719998,1.279999 -2.720001,1.44 -2.400001,1.92 -2.239998,2.08 -2.080002,2.24 -1.599999,2.56 -1.600002,2.56 -1.119999,2.88 L -56.16,-3.04 -56.639999,0"
       style="fill:none;stroke:#000000;stroke-width:26.4;stroke-linecap:round;stroke-linejoin:round;stroke-miterlimit:10;stroke-dasharray:none;stroke-opacity:1"
       transform="translate(238.08,557.11994)"
       clip-path="url(#clipPath14)" />
    <path
       id="path15"
       d="m 0,0 -2.08,1.6 -1.76,1.92 -1.76,1.92 -1.44,2.24 -1.12,2.24 -0.96,2.4 -0.8,2.56 -0.32,2.560001 L -10.4,20 v 2.559999 l 0.32,2.560002 0.64,2.559999 0.96,2.4 1.12,2.4 1.28,2.080001 1.6,2.079998 1.76,1.920002 L -0.64,40.32 1.44,41.759998 3.68,43.040001 6.08,44 l 2.56,0.799999 2.56,0.48 2.56,0.16 h 2.56 l 2.559999,-0.32 2.560002,-0.48 L 23.84,43.68 26.24,42.720001 28.48,41.439999 30.559999,39.84 32.48,38.080002 34.240002,36.16 35.84,34.080002"
       style="fill:none;stroke:#000000;stroke-width:26.4;stroke-linecap:round;stroke-linejoin:round;stroke-miterlimit:10;stroke-dasharray:none;stroke-opacity:1"
       transform="translate(506.23999,677.75995)"
       clip-path="url(#clipPath16)" />
    <path
       id="path17"
       d="M 0,0 -2.56,-1.76 -5.12,-3.2 -8,-4.32 -10.88,-5.12 -13.92,-5.6 -16.959999,-5.92 -20,-5.76 -23.040001,-5.28 -25.92,-4.48 -28.799999,-3.52 -31.52,-2.08 -34.080002,-0.48 -36.48,1.44 -38.560001,3.68 -40.48,5.92 -42.240002,8.48 -43.52,11.2 l -1.119999,2.88 -0.8,3.040001 L -45.759998,20 l -0.16,3.040001 0.16,3.039999 0.479999,3.040001 L -44.32,32 l 1.119999,2.880001 1.440003,2.719997 L -40,40.16"
       style="fill:none;stroke:#000000;stroke-width:26.4;stroke-linecap:round;stroke-linejoin:round;stroke-miterlimit:10;stroke-dasharray:none;stroke-opacity:1"
       transform="translate(289.76001,673.91992)"
       clip-path="url(#clipPath18)" />
  </g>
</svg>
