<?xml version="1.0" encoding="UTF-8" standalone="no"?>
<!-- Created with Inkscape (http://www.inkscape.org/) -->

<svg
   version="1.1"
   id="svg1"
   width="381.54666"
   height="384.42667"
   viewBox="0 0 381.54666 384.42667"
   sodipodi:docname="Gold.pdf"
   xmlns:inkscape="http://www.inkscape.org/namespaces/inkscape"
   xmlns:sodipodi="http://sodipodi.sourceforge.net/DTD/sodipodi-0.dtd"
   xmlns="http://www.w3.org/2000/svg"
   xmlns:svg="http://www.w3.org/2000/svg">
  <defs
     id="defs1">
    <clipPath
       clipPathUnits="userSpaceOnUse"
       id="clipPath2">
      <path
         d="M 0,0.16 V 1122.5601 H 793.59998 V 0.16 Z"
         transform="translate(-567.84003,-561.35998)"
         clip-rule="evenodd"
         id="path2" />
    </clipPath>
    <clipPath
       clipPathUnits="userSpaceOnUse"
       id="clipPath4">
      <path
         d="M 0,0.16 V 1122.5601 H 793.59998 V 0.16 Z"
         transform="translate(-423.35999,-562.40002)"
         clip-rule="evenodd"
         id="path4" />
    </clipPath>
    <clipPath
       clipPathUnits="userSpaceOnUse"
       id="clipPath6">
      <path
         d="M 0,0.16 V 1122.5601 H 793.59998 V 0.16 Z"
         transform="translate(-423.35999,-562.40002)"
         clip-rule="evenodd"
         id="path6" />
    </clipPath>
  </defs>
  <sodipodi:namedview
     id="namedview1"
     pagecolor="#505050"
     bordercolor="#eeeeee"
     borderopacity="1"
     inkscape:showpageshadow="0"
     inkscape:pageopacity="0"
     inkscape:pagecheckerboard="0"
     inkscape:deskcolor="#505050">
    <inkscape:page
       x="0"
       y="0"
       inkscape:label="1"
       id="page1"
       width="381.54666"
       height="384.42667"
       margin="0"
       bleed="0" />
  </sodipodi:namedview>
  <g
     id="g1"
     inkscape:groupmode="layer"
     inkscape:label="1">
    <path
       id="path1"
       d="m 0,0 c 0,-94.410004 -76.540001,-170.96001 -170.96001,-170.96001 -94.41999,0 -170.96,76.550006 -170.96,170.96001 0,94.410004 76.54001,170.96001 170.96,170.96001 C -76.540001,170.96001 0,94.410004 0,0 Z"
       style="fill:none;stroke:#000000;stroke-width:26.4;stroke-linecap:round;stroke-linejoin:round;stroke-miterlimit:10;stroke-dasharray:none;stroke-opacity:1"
       transform="translate(567.84003,560.02659)"
       clip-path="url(#clipPath2)" />
    <path
       id="path3"
       d="m 0,0 -0.16,-2.88 -0.48,-2.72 -0.8,-2.56 -0.96,-2.72 -1.28,-2.4 -1.44,-2.24 -1.76,-2.24 -1.92,-1.92 -2.24,-1.760001 -2.24,-1.439998 L -15.68,-24.16 -18.4,-25.120001 -20.959999,-25.92 -23.68,-26.4 -26.559999,-26.559999 -29.280001,-26.4 -32,-25.92 -34.720001,-25.120001 -37.279999,-24.16 -39.68,-22.879999 -42.080002,-21.440001 -44.16,-19.68 l -1.920002,1.92 -1.759998,2.24 -1.599999,2.24 -1.280002,2.4 -0.959999,2.72 -0.64,2.56 -0.479999,2.72 -0.16,2.88 0.16,2.72 0.479999,2.72 0.64,2.72 0.959999,2.56 1.280002,2.4 1.599999,2.4 1.759998,2.08 1.920002,1.92 2.079998,1.760001 2.400002,1.599998 2.400001,1.280001 2.559998,0.960001 L -32,25.76 l 2.719999,0.48 2.720002,0.16 L -23.68,26.24 -20.959999,25.76 -18.4,25.120001 -15.68,24.16 l 2.4,-1.280001 2.24,-1.599998 2.24,-1.760001 1.92,-1.92 1.76,-2.08 1.44,-2.4 1.28,-2.4 0.96,-2.56 0.8,-2.72 L -0.16,2.72 0,0 v 0 z"
       style="fill:#000000;fill-opacity:1;fill-rule:evenodd;stroke:none"
       transform="translate(423.35999,561.06663)"
       clip-path="url(#clipPath4)" />
    <path
       id="path5"
       d="m 0,0 -0.16,-2.88 -0.48,-2.72 -0.8,-2.56 -0.96,-2.72 -1.28,-2.4 -1.44,-2.24 -1.76,-2.24 -1.92,-1.92 -2.24,-1.760001 -2.24,-1.439998 L -15.68,-24.16 -18.4,-25.120001 -20.959999,-25.92 -23.68,-26.4 -26.559999,-26.559999 -29.280001,-26.4 -32,-25.92 -34.720001,-25.120001 -37.279999,-24.16 -39.68,-22.879999 -42.080002,-21.440001 -44.16,-19.68 l -1.920002,1.92 -1.759998,2.24 -1.599999,2.24 -1.280002,2.4 -0.959999,2.72 -0.64,2.56 -0.479999,2.72 -0.16,2.88 0.16,2.72 0.479999,2.72 0.64,2.72 0.959999,2.56 1.280002,2.4 1.599999,2.4 1.759998,2.08 1.920002,1.92 2.079998,1.760001 2.400002,1.599998 2.400001,1.280001 2.559998,0.960001 L -32,25.76 l 2.719999,0.48 2.720002,0.16 L -23.68,26.24 -20.959999,25.76 -18.4,25.120001 -15.68,24.16 l 2.4,-1.280001 2.24,-1.599998 2.24,-1.760001 1.92,-1.92 1.76,-2.08 1.44,-2.4 1.28,-2.4 0.96,-2.56 0.8,-2.72 L -0.16,2.72 0,0"
       style="fill:none;stroke:#000000;stroke-width:0.64;stroke-linecap:round;stroke-linejoin:round;stroke-miterlimit:10;stroke-dasharray:none;stroke-opacity:1"
       transform="translate(423.35999,561.06663)"
       clip-path="url(#clipPath6)" />
  </g>
</svg>
