<?xml version="1.0" encoding="UTF-8" standalone="no"?>
<!-- Created with Inkscape (http://www.inkscape.org/) -->

<svg
   version="1.1"
   id="svg1"
   width="341.51999"
   height="244.26666"
   viewBox="0 0 341.51999 244.26666"
   sodipodi:docname="Gold20.pdf"
   xmlns:inkscape="http://www.inkscape.org/namespaces/inkscape"
   xmlns:sodipodi="http://sodipodi.sourceforge.net/DTD/sodipodi-0.dtd"
   xmlns="http://www.w3.org/2000/svg"
   xmlns:svg="http://www.w3.org/2000/svg">
  <defs
     id="defs1">
    <clipPath
       clipPathUnits="userSpaceOnUse"
       id="clipPath2">
      <path
         d="M 0,0.16 V 1122.5601 H 793.59998 V 0.16 Z"
         transform="translate(-255.2,-649.28003)"
         clip-rule="evenodd"
         id="path2" />
    </clipPath>
    <clipPath
       clipPathUnits="userSpaceOnUse"
       id="clipPath4">
      <path
         d="M 0,0.16 V 1122.5601 H 793.59998 V 0.16 Z"
         transform="translate(-255.2,-649.28003)"
         clip-rule="evenodd"
         id="path4" />
    </clipPath>
    <clipPath
       clipPathUnits="userSpaceOnUse"
       id="clipPath6">
      <path
         d="M 0,0.16 V 1122.5601 H 793.59998 V 0.16 Z"
         transform="translate(-546.23999,-477.60001)"
         clip-rule="evenodd"
         id="path6" />
    </clipPath>
    <clipPath
       clipPathUnits="userSpaceOnUse"
       id="clipPath8">
      <path
         d="M 0,0.16 V 1122.5601 H 793.59998 V 0.16 Z"
         transform="translate(-546.23999,-477.60001)"
         clip-rule="evenodd"
         id="path8" />
    </clipPath>
  </defs>
  <sodipodi:namedview
     id="namedview1"
     pagecolor="#505050"
     bordercolor="#eeeeee"
     borderopacity="1"
     inkscape:showpageshadow="0"
     inkscape:pageopacity="0"
     inkscape:pagecheckerboard="0"
     inkscape:deskcolor="#505050">
    <inkscape:page
       x="0"
       y="0"
       inkscape:label="1"
       id="page1"
       width="341.51999"
       height="244.26666"
       margin="0"
       bleed="0" />
  </sodipodi:namedview>
  <g
     id="g1"
     inkscape:groupmode="layer"
     inkscape:label="1">
    <path
       id="path1"
       d="m 0,0 5.92,2.72 6.08,2.24 6.24,1.92 6.24,1.44 6.399999,1.12 6.4,0.48 6.400001,0.32 6.560002,-0.32 6.399997,-0.64 6.400002,-1.12 6.239998,-1.44 6.239998,-1.92 5.920005,-2.24 5.919999,-2.72 5.760002,-3.04 5.439995,-3.52 5.120002,-3.84 5.12,-4 4.64,-4.480001 4.32,-4.799999 4.16,-4.959999 3.68,-5.280003 3.36001,-5.599998 3.03999,-5.759999 2.56,-5.920002 2.24,-6.079998 1.76,-6.080001 1.44,-6.399998 0.96001,-6.400002 0.47999,-6.400001 0.16001,-6.400002 L 141.28,-95.68 l -0.64,-6.4 -1.12,-6.4 -1.6,-6.24 -1.92,-6.08 -2.39999,-6.08 -2.72001,-5.76 -3.2,-5.75999 -3.52,-5.44001 -3.84,-5.12001 -4.16,-4.95999 -4.48,-4.64 -4.8,-4.32 -4.96,-4 -5.439997,-3.68 -5.440002,-3.36 -5.760002,-2.88 -6.080002,-2.56 -6.079994,-2.24001 -6.080002,-1.75999 -6.400002,-1.28 -6.399997,-0.96001 L 47.84,-186.08 h -6.560001 l -6.399998,0.32001 -6.400001,0.79998 -6.4,1.12001 -6.24,1.6 -6.08,2.08 -6.08,2.40001 -5.76,2.87999 -5.6,3.20001"
       style="fill:none;stroke:#000000;stroke-width:26.4;stroke-linecap:round;stroke-linejoin:round;stroke-miterlimit:10;stroke-dasharray:none;stroke-opacity:1"
       transform="translate(27.079997,214.1333)"
       clip-path="url(#clipPath2)" />
    <path
       id="path3"
       d="m 0,0 h 5.92 l 5.92,-0.48 5.76,-0.8 5.92,-1.28 5.600001,-1.6 5.6,-1.92 L 40,-8.48 l 5.279999,-2.88 4.960003,-3.04 4.799999,-3.52 4.639999,-3.68 4.32,-4.16 4,-4.32 3.68,-4.640001 3.360001,-4.799999 2.879997,-5.119999 2.720001,-5.279999 2.400002,-5.440003 1.919998,-5.439998 1.440003,-5.759999 1.119995,-5.760002 0.800003,-5.919998 0.319999,-5.920006 v -5.919998 l -0.479995,-5.759994 -0.960007,-5.920004 -1.279999,-5.76 -1.599998,-5.6 -2.080002,-5.6 -2.400002,-5.44 -2.719993,-5.12 -3.200005,-4.96 -3.519996,-4.79999 -3.680001,-4.64 -4.16,-4.16001 -4.319999,-4 -4.640004,-3.68 -4.799999,-3.36 -5.119999,-3.04 -5.279998,-2.56 -5.440003,-2.24 -5.599998,-1.92 -5.760001,-1.6 -5.76,-1.12 -5.92,-0.64 -5.92,-0.32001 -5.76,0.16001 -5.92,0.48001"
       style="fill:none;stroke:#000000;stroke-width:26.4;stroke-linecap:round;stroke-linejoin:round;stroke-miterlimit:10;stroke-dasharray:none;stroke-opacity:1"
       transform="translate(27.079997,214.1333)"
       clip-path="url(#clipPath4)" />
    <path
       id="path5"
       d="m 0,0 -5.6,-3.2 -5.92,-2.88 -5.920001,-2.4 -6.079999,-2.08 -6.4,-1.6 -6.24,-1.12 -6.400001,-0.8 -6.559998,-0.32 H -55.52 l -6.399998,0.48 -6.400002,0.96 -6.400001,1.28 -6.239998,1.76 -6.080002,2.24 -5.919998,2.56 -5.760002,2.88 -5.599999,3.36 -5.28,3.68 -5.12,4 -4.8,4.32 -4.48,4.64 -4.16,4.959999 -3.84,5.120001 -3.52,5.439999 -3.04,5.760002 -2.72,5.759998 -2.39999,6.080002 -2.08,6.079998 -1.44001,6.240002 -1.12001,6.399997 -0.79998,6.400002 -0.32001,6.559998 0.16,6.400001 0.64,6.400002 0.96001,6.399999 1.43999,6.4 1.76,6.08 2.24,6.08 2.56001,5.92 3.03999,5.76 3.36,5.60001 3.67999,5.27999 4.00001,4.96 4.48,4.8 4.64,4.47999 4.96,4 5.28,3.84002 5.44,3.51999 5.759999,3.04 5.760002,2.72 6.080002,2.24 6.239998,1.91999 6.239998,1.44001 6.400001,1.12001 6.400002,0.64 6.399998,0.31999 6.560001,-0.31999 6.399998,-0.48002 L -32.16,180 l 6.24,-1.44 6.24,-1.92 6.08,-2.24001 5.76,-2.72"
       style="fill:none;stroke:#000000;stroke-width:26.4;stroke-linecap:round;stroke-linejoin:round;stroke-miterlimit:10;stroke-dasharray:none;stroke-opacity:1"
       transform="translate(318.11999,42.453281)"
       clip-path="url(#clipPath6)" />
    <path
       id="path7"
       d="m 0,0 -5.92,-0.48 -5.92,-0.16 -5.92,0.32 -5.76,0.64 -5.760001,1.12 -5.76,1.6 -5.599998,1.92 -5.440003,2.24 -5.279999,2.56 -5.119999,3.04 -4.799999,3.36 -4.639999,3.68 -4.480004,4 -4,4.16 -3.839996,4.639999 -3.36,4.8 -3.200005,4.960003 L -87.519997,47.52 -90.080002,52.959999 -92,58.560001 l -1.760002,5.600003 -1.279999,5.759994 -0.799995,5.919998 -0.480004,5.760002 v 5.919999 l 0.32,5.920005 0.639999,5.919999 1.279999,5.759999 1.440003,5.76 1.919998,5.44 2.239998,5.44 2.720001,5.28 3.040001,5.12 3.36,4.80001 3.680001,4.64 4,4.31999 4.319999,4.16 4.48,3.67999 4.799999,3.52001 5.120003,3.04001 5.119999,2.87999 5.439998,2.40001 5.600003,1.91999 5.599998,1.59999 5.76,1.28 5.920001,0.80001 5.76,0.47999 h 5.92"
       style="fill:none;stroke:#000000;stroke-width:26.4;stroke-linecap:round;stroke-linejoin:round;stroke-miterlimit:10;stroke-dasharray:none;stroke-opacity:1"
       transform="translate(318.11999,42.453281)"
       clip-path="url(#clipPath8)" />
  </g>
</svg>
