<?xml version="1.0" encoding="UTF-8" standalone="no"?>
<!-- Created with Inkscape (http://www.inkscape.org/) -->

<svg
   version="1.1"
   id="svg1"
   width="334.85333"
   height="148.16"
   viewBox="0 0 334.85333 148.16"
   sodipodi:docname="Gold9.pdf"
   xmlns:inkscape="http://www.inkscape.org/namespaces/inkscape"
   xmlns:sodipodi="http://sodipodi.sourceforge.net/DTD/sodipodi-0.dtd"
   xmlns="http://www.w3.org/2000/svg"
   xmlns:svg="http://www.w3.org/2000/svg">
  <defs
     id="defs1">
    <clipPath
       clipPathUnits="userSpaceOnUse"
       id="clipPath2">
      <path
         d="M 0,0.16 V 1122.5601 H 793.59998 V 0.16 Z"
         transform="translate(-357.28,-561.35998)"
         clip-rule="evenodd"
         id="path2" />
    </clipPath>
    <clipPath
       clipPathUnits="userSpaceOnUse"
       id="clipPath4">
      <path
         d="M 0,0.16 V 1122.5601 H 793.59998 V 0.16 Z"
         transform="translate(-383.67999,-614.23999)"
         clip-rule="evenodd"
         id="path4" />
    </clipPath>
    <clipPath
       clipPathUnits="userSpaceOnUse"
       id="clipPath6">
      <path
         d="M 0,0.16 V 1122.5601 H 793.59998 V 0.16 Z"
         transform="translate(-3.3333333e-6)"
         clip-rule="evenodd"
         id="path6" />
    </clipPath>
    <clipPath
       clipPathUnits="userSpaceOnUse"
       id="clipPath8">
      <path
         d="M 0,0.16 V 1122.5601 H 793.59998 V 0.16 Z"
         transform="translate(-3.3333333e-6)"
         clip-rule="evenodd"
         id="path8" />
    </clipPath>
    <clipPath
       clipPathUnits="userSpaceOnUse"
       id="clipPath10">
      <path
         d="M 0,0.16 V 1122.5601 H 793.59998 V 0.16 Z"
         transform="translate(-396.79998,-614.23999)"
         clip-rule="evenodd"
         id="path10" />
    </clipPath>
  </defs>
  <sodipodi:namedview
     id="namedview1"
     pagecolor="#505050"
     bordercolor="#eeeeee"
     borderopacity="1"
     inkscape:showpageshadow="0"
     inkscape:pageopacity="0"
     inkscape:pagecheckerboard="0"
     inkscape:deskcolor="#505050">
    <inkscape:page
       x="0"
       y="0"
       inkscape:label="1"
       id="page1"
       width="334.85333"
       height="148.16"
       margin="0"
       bleed="0" />
  </sodipodi:namedview>
  <g
     id="g1"
     inkscape:groupmode="layer"
     inkscape:label="1">
    <path
       id="path1"
       d="m 0,0 c 0,-29.200001 -23.67,-52.880001 -52.880001,-52.880001 -29.209995,0 -52.879999,23.68 -52.879999,52.880001 0,29.200001 23.670004,52.880001 52.879999,52.880001 C -23.67,52.880001 0,29.200001 0,0 Z"
       style="fill:none;stroke:#000000;stroke-width:26.4;stroke-linecap:round;stroke-linejoin:round;stroke-miterlimit:10;stroke-dasharray:none;stroke-opacity:1"
       transform="translate(123.82667,76.826593)"
       clip-path="url(#clipPath2)" />
    <path
       id="path3"
       d="M 0,0 8.48,-0.16 17.120001,-0.32 25.6,-0.8 l 8.480002,-0.48 8.32,-0.8 8.159999,-0.8 8.16,-0.96 7.839997,-1.12 7.68,-1.28 7.520004,-1.44 7.199997,-1.44 L 96,-10.88 l 6.56,-1.76 6.4,-1.92 6.08,-2.079999 5.76,-2.08 5.44,-2.24 4.96,-2.240002 4.64,-2.559999 4.16,-2.4 3.84,-2.559999 3.36,-2.72 3.04,-2.560001 2.56,-2.720001 2.08,-2.879997 1.6,-2.720002 1.12001,-2.880001 0.63999,-2.880001 0.32,-2.879997 -0.32,-2.880001 -0.63999,-2.880001 -1.12001,-2.719998 -1.6,-2.880001 -2.08,-2.720001 -2.56,-2.720001 -3.04,-2.720001 -3.36,-2.719994 -3.84,-2.560005 -4.16,-2.400002 -4.64,-2.399994 -4.96,-2.400001 -5.44,-2.239998 -5.76,-2.080002 -6.08,-2.080002 -6.4,-1.919998 -6.56,-1.760002 -7.040001,-1.599998 -7.199997,-1.599999 -7.520004,-1.440002 -7.68,-1.28 -7.839997,-1.12 -8.16,-0.96 -8.159999,-0.8 -8.32,-0.8 L 25.6,-105.12 17.120001,-105.44 8.48,-105.76 H 0"
       style="fill:none;stroke:#000000;stroke-width:26.4;stroke-linecap:round;stroke-linejoin:round;stroke-miterlimit:10;stroke-dasharray:none;stroke-opacity:1"
       transform="translate(150.22666,129.7066)"
       clip-path="url(#clipPath4)" />
    <path
       id="path5"
       d="m 304.32001,508.48001 h 79.35998"
       style="fill:none;stroke:#000000;stroke-width:26.4;stroke-linecap:round;stroke-linejoin:round;stroke-miterlimit:10;stroke-dasharray:none;stroke-opacity:1"
       transform="translate(-233.45333,-484.53339)"
       clip-path="url(#clipPath6)" />
    <path
       id="path7"
       d="m 304.32001,614.23999 h 79.35998"
       style="fill:none;stroke:#000000;stroke-width:26.4;stroke-linecap:round;stroke-linejoin:round;stroke-miterlimit:10;stroke-dasharray:none;stroke-opacity:1"
       transform="translate(-233.45333,-484.53339)"
       clip-path="url(#clipPath8)" />
    <path
       id="path9"
       d="m 0,0 3.84,-3.2 3.52,-3.36 3.36,-3.52 3.04,-3.84 2.72,-4.16 2.399999,-4.16 2.240002,-4.479999 1.759998,-4.640002 L 24.32,-36 25.280001,-40.799999 26.08,-45.599998 26.4,-50.560001 v -4.8 L 26.08,-60.32 25.280001,-65.120003 24.32,-69.919998 l -1.440001,-4.64 -1.759998,-4.639999 -2.240002,-4.32 -2.399999,-4.319999 -2.72,-4 L 10.72,-95.68 7.36,-99.360001 3.84,-102.72 0,-105.76"
       style="fill:none;stroke:#000000;stroke-width:26.4;stroke-linecap:round;stroke-linejoin:round;stroke-miterlimit:10;stroke-dasharray:none;stroke-opacity:1"
       transform="translate(163.34665,129.7066)"
       clip-path="url(#clipPath10)" />
  </g>
</svg>
