<?xml version="1.0" encoding="UTF-8" standalone="no"?>
<!-- Created with Inkscape (http://www.inkscape.org/) -->

<svg
   version="1.1"
   id="svg1"
   width="349.53333"
   height="356.38666"
   viewBox="0 0 349.53333 356.38666"
   sodipodi:docname="Gold5.pdf"
   xmlns:inkscape="http://www.inkscape.org/namespaces/inkscape"
   xmlns:sodipodi="http://sodipodi.sourceforge.net/DTD/sodipodi-0.dtd"
   xmlns="http://www.w3.org/2000/svg"
   xmlns:svg="http://www.w3.org/2000/svg">
  <defs
     id="defs1">
    <clipPath
       clipPathUnits="userSpaceOnUse"
       id="clipPath2">
      <path
         d="M 0,0.16 V 1122.5601 H 793.59998 V 0.16 Z"
         transform="translate(-510.07998,-561.28003)"
         clip-rule="evenodd"
         id="path2" />
    </clipPath>
    <clipPath
       clipPathUnits="userSpaceOnUse"
       id="clipPath4">
      <path
         d="M 0,0.16 V 1122.5601 H 793.59998 V 0.16 Z"
         transform="translate(-3.3333333e-6)"
         clip-rule="evenodd"
         id="path4" />
    </clipPath>
    <clipPath
       clipPathUnits="userSpaceOnUse"
       id="clipPath6">
      <path
         d="M 0,0.16 V 1122.5601 H 793.59998 V 0.16 Z"
         transform="translate(-3.3333333e-6)"
         clip-rule="evenodd"
         id="path6" />
    </clipPath>
    <clipPath
       clipPathUnits="userSpaceOnUse"
       id="clipPath8">
      <path
         d="M 0,0.16 V 1122.5601 H 793.59998 V 0.16 Z"
         transform="translate(-3.3333333e-6)"
         clip-rule="evenodd"
         id="path8" />
    </clipPath>
    <clipPath
       clipPathUnits="userSpaceOnUse"
       id="clipPath10">
      <path
         d="M 0,0.16 V 1122.5601 H 793.59998 V 0.16 Z"
         transform="translate(-3.3333333e-6)"
         clip-rule="evenodd"
         id="path10" />
    </clipPath>
    <clipPath
       clipPathUnits="userSpaceOnUse"
       id="clipPath12">
      <path
         d="M 0,0.16 V 1122.5601 H 793.59998 V 0.16 Z"
         transform="translate(-3.3333333e-6)"
         clip-rule="evenodd"
         id="path12" />
    </clipPath>
    <clipPath
       clipPathUnits="userSpaceOnUse"
       id="clipPath14">
      <path
         d="M 0,0.16 V 1122.5601 H 793.59998 V 0.16 Z"
         transform="translate(-3.3333333e-6)"
         clip-rule="evenodd"
         id="path14" />
    </clipPath>
    <clipPath
       clipPathUnits="userSpaceOnUse"
       id="clipPath16">
      <path
         d="M 0,0.16 V 1122.5601 H 793.59998 V 0.16 Z"
         transform="translate(-3.3333333e-6)"
         clip-rule="evenodd"
         id="path16" />
    </clipPath>
    <clipPath
       clipPathUnits="userSpaceOnUse"
       id="clipPath18">
      <path
         d="M 0,0.16 V 1122.5601 H 793.59998 V 0.16 Z"
         transform="translate(-3.3333333e-6)"
         clip-rule="evenodd"
         id="path18" />
    </clipPath>
    <clipPath
       clipPathUnits="userSpaceOnUse"
       id="clipPath20">
      <path
         d="M 0,0.16 V 1122.5601 H 793.59998 V 0.16 Z"
         transform="translate(-3.3333333e-6)"
         clip-rule="evenodd"
         id="path20" />
    </clipPath>
    <clipPath
       clipPathUnits="userSpaceOnUse"
       id="clipPath22">
      <path
         d="M 0,0.16 V 1122.5601 H 793.59998 V 0.16 Z"
         transform="translate(-3.3333333e-6)"
         clip-rule="evenodd"
         id="path22" />
    </clipPath>
    <clipPath
       clipPathUnits="userSpaceOnUse"
       id="clipPath24">
      <path
         d="M 0,0.16 V 1122.5601 H 793.59998 V 0.16 Z"
         transform="translate(-3.3333333e-6)"
         clip-rule="evenodd"
         id="path24" />
    </clipPath>
    <clipPath
       clipPathUnits="userSpaceOnUse"
       id="clipPath26">
      <path
         d="M 0,0.16 V 1122.5601 H 793.59998 V 0.16 Z"
         transform="translate(-3.3333333e-6)"
         clip-rule="evenodd"
         id="path26" />
    </clipPath>
    <clipPath
       clipPathUnits="userSpaceOnUse"
       id="clipPath28">
      <path
         d="M 0,0.16 V 1122.5601 H 793.59998 V 0.16 Z"
         transform="translate(-406.23999,-561.28003)"
         clip-rule="evenodd"
         id="path28" />
    </clipPath>
    <clipPath
       clipPathUnits="userSpaceOnUse"
       id="clipPath30">
      <path
         d="M 0,0.16 V 1122.5601 H 793.59998 V 0.16 Z"
         transform="translate(-406.23999,-561.28003)"
         clip-rule="evenodd"
         id="path30" />
    </clipPath>
  </defs>
  <sodipodi:namedview
     id="namedview1"
     pagecolor="#505050"
     bordercolor="#eeeeee"
     borderopacity="1"
     inkscape:showpageshadow="0"
     inkscape:pageopacity="0"
     inkscape:pagecheckerboard="0"
     inkscape:deskcolor="#505050">
    <inkscape:page
       x="0"
       y="0"
       inkscape:label="1"
       id="page1"
       width="349.53333"
       height="356.38666"
       margin="0"
       bleed="0" />
  </sodipodi:namedview>
  <g
     id="g1"
     inkscape:groupmode="layer"
     inkscape:label="1">
    <path
       id="path1"
       d="m 0,0 c 0,-62.560001 -50.709999,-113.28 -113.28,-113.28 -62.57001,0 -113.28,50.719999 -113.28,113.28 0,62.560001 50.70999,113.28 113.28,113.28 C -50.709999,113.28 0,62.560001 0,0 Z"
       style="fill:none;stroke:#000000;stroke-width:26.4;stroke-linecap:round;stroke-linejoin:round;stroke-miterlimit:10;stroke-dasharray:none;stroke-opacity:1"
       transform="translate(249.94665,211.55997)"
       clip-path="url(#clipPath2)" />
    <path
       id="path3"
       d="M 396.79999,448 V 372.48001"
       style="fill:none;stroke:#000000;stroke-width:26.4;stroke-linecap:round;stroke-linejoin:round;stroke-miterlimit:10;stroke-dasharray:none;stroke-opacity:1"
       transform="translate(-260.13333,-349.72006)"
       clip-path="url(#clipPath4)" />
    <path
       id="path5"
       d="M 419.04001,450.23999 434.56,372.48001"
       style="fill:none;stroke:#000000;stroke-width:26.4;stroke-linecap:round;stroke-linejoin:round;stroke-miterlimit:10;stroke-dasharray:none;stroke-opacity:1"
       transform="translate(-260.13333,-349.72006)"
       clip-path="url(#clipPath6)" />
    <path
       id="path7"
       d="m 438.88,456.16 33.44001,-83.67999"
       style="fill:none;stroke:#000000;stroke-width:26.4;stroke-linecap:round;stroke-linejoin:round;stroke-miterlimit:10;stroke-dasharray:none;stroke-opacity:1"
       transform="translate(-260.13333,-349.72006)"
       clip-path="url(#clipPath8)" />
    <path
       id="path9"
       d="m 455.20001,464.16 54.87998,-91.67999"
       style="fill:none;stroke:#000000;stroke-width:26.4;stroke-linecap:round;stroke-linejoin:round;stroke-miterlimit:10;stroke-dasharray:none;stroke-opacity:1"
       transform="translate(-260.13333,-349.72006)"
       clip-path="url(#clipPath10)" />
    <path
       id="path11"
       d="M 467.67999,472.79999 547.84003,372.48001"
       style="fill:none;stroke:#000000;stroke-width:26.4;stroke-linecap:round;stroke-linejoin:round;stroke-miterlimit:10;stroke-dasharray:none;stroke-opacity:1"
       transform="translate(-260.13333,-349.72006)"
       clip-path="url(#clipPath12)" />
    <path
       id="path13"
       d="M 481.12,485.60001 585.59998,391.35999"
       style="fill:none;stroke:#000000;stroke-width:26.4;stroke-linecap:round;stroke-linejoin:round;stroke-miterlimit:10;stroke-dasharray:none;stroke-opacity:1"
       transform="translate(-260.13333,-349.72006)"
       clip-path="url(#clipPath14)" />
    <path
       id="path15"
       d="M 493.92001,503.04001 585.59998,448"
       style="fill:none;stroke:#000000;stroke-width:26.4;stroke-linecap:round;stroke-linejoin:round;stroke-miterlimit:10;stroke-dasharray:none;stroke-opacity:1"
       transform="translate(-260.13333,-349.72006)"
       clip-path="url(#clipPath16)" />
    <path
       id="path17"
       d="m 505.28,528.79999 80.31998,-24.15998"
       style="fill:none;stroke:#000000;stroke-width:26.4;stroke-linecap:round;stroke-linejoin:round;stroke-miterlimit:10;stroke-dasharray:none;stroke-opacity:1"
       transform="translate(-260.13333,-349.72006)"
       clip-path="url(#clipPath18)" />
    <path
       id="path19"
       d="m 510.07999,561.28003 h 75.51999"
       style="fill:none;stroke:#000000;stroke-width:26.4;stroke-linecap:round;stroke-linejoin:round;stroke-miterlimit:10;stroke-dasharray:none;stroke-opacity:1"
       transform="translate(-260.13333,-349.72006)"
       clip-path="url(#clipPath20)" />
    <path
       id="path21"
       d="m 508,583.52002 77.59998,15.51996"
       style="fill:none;stroke:#000000;stroke-width:26.4;stroke-linecap:round;stroke-linejoin:round;stroke-miterlimit:10;stroke-dasharray:none;stroke-opacity:1"
       transform="translate(-260.13333,-349.72006)"
       clip-path="url(#clipPath22)" />
    <path
       id="path23"
       d="m 503.04001,600.64001 82.55997,36.15998"
       style="fill:none;stroke:#000000;stroke-width:26.4;stroke-linecap:round;stroke-linejoin:round;stroke-miterlimit:10;stroke-dasharray:none;stroke-opacity:1"
       transform="translate(-260.13333,-349.72006)"
       clip-path="url(#clipPath24)" />
    <path
       id="path25"
       d="M 493.92001,619.52002 585.59998,674.56"
       style="fill:none;stroke:#000000;stroke-width:26.4;stroke-linecap:round;stroke-linejoin:round;stroke-miterlimit:10;stroke-dasharray:none;stroke-opacity:1"
       transform="translate(-260.13333,-349.72006)"
       clip-path="url(#clipPath26)" />
    <path
       id="path27"
       d="M 0,0 V -1.28 L -0.32,-2.56 -0.8,-3.84 -1.44,-5.12 -2.24,-6.24 -3.2,-7.04 -4.32,-8 -5.44,-8.64 -6.72,-8.96 -8,-9.28 l -1.44,-0.16 -1.28,0.16 -1.28,0.32 -1.28,0.32 -1.28,0.64 -0.96,0.96 -0.96,0.8 -0.800001,1.12 -0.639999,1.28 -0.48,1.28 -0.319999,1.28 -0.16,1.28 0.16,1.44 0.319999,1.28 0.48,1.28 0.639999,1.12 0.800001,1.12 0.96,0.96 0.96,0.8 1.28,0.64 1.28,0.48 1.28,0.32 H -9.44 -8 L -6.72,9.12 -5.44,8.64 -4.32,8 -3.2,7.2 -2.24,6.24 -1.44,5.12 -0.8,4 -0.32,2.72 0,1.44 V 0 0 Z"
       style="fill:#000000;fill-opacity:1;fill-rule:evenodd;stroke:none"
       transform="translate(146.10666,211.55997)"
       clip-path="url(#clipPath28)" />
    <path
       id="path29"
       d="M 0,0 V -1.28 L -0.32,-2.56 -0.8,-3.84 -1.44,-5.12 -2.24,-6.24 -3.2,-7.04 -4.32,-8 -5.44,-8.64 -6.72,-8.96 -8,-9.28 l -1.44,-0.16 -1.28,0.16 -1.28,0.32 -1.28,0.32 -1.28,0.64 -0.96,0.96 -0.96,0.8 -0.800001,1.12 -0.639999,1.28 -0.48,1.28 -0.319999,1.28 -0.16,1.28 0.16,1.44 0.319999,1.28 0.48,1.28 0.639999,1.12 0.800001,1.12 0.96,0.96 0.96,0.8 1.28,0.64 1.28,0.48 1.28,0.32 H -9.44 -8 L -6.72,9.12 -5.44,8.64 -4.32,8 -3.2,7.2 -2.24,6.24 -1.44,5.12 -0.8,4 -0.32,2.72 0,1.44 V 0"
       style="fill:none;stroke:#000000;stroke-width:0.48;stroke-linecap:round;stroke-linejoin:round;stroke-miterlimit:10;stroke-dasharray:none;stroke-opacity:1"
       transform="translate(146.10666,211.55997)"
       clip-path="url(#clipPath30)" />
  </g>
</svg>
