<?xml version="1.0" encoding="UTF-8" standalone="no"?>
<!-- Created with Inkscape (http://www.inkscape.org/) -->

<svg
   version="1.1"
   id="svg1"
   width="361.51999"
   height="343.04001"
   viewBox="0 0 361.51999 343.04001"
   sodipodi:docname="Gold7.pdf"
   xmlns:inkscape="http://www.inkscape.org/namespaces/inkscape"
   xmlns:sodipodi="http://sodipodi.sourceforge.net/DTD/sodipodi-0.dtd"
   xmlns="http://www.w3.org/2000/svg"
   xmlns:svg="http://www.w3.org/2000/svg">
  <defs
     id="defs1">
    <clipPath
       clipPathUnits="userSpaceOnUse"
       id="clipPath2">
      <path
         d="M 0,0.16 V 1122.5601 H 793.59998 V 0.16 Z"
         transform="translate(-3.3333333e-6)"
         clip-rule="evenodd"
         id="path2" />
    </clipPath>
    <clipPath
       clipPathUnits="userSpaceOnUse"
       id="clipPath4">
      <path
         d="M 0,0.16 V 1122.5601 H 793.59998 V 0.16 Z"
         transform="translate(-410.88,-562.23999)"
         clip-rule="evenodd"
         id="path4" />
    </clipPath>
    <clipPath
       clipPathUnits="userSpaceOnUse"
       id="clipPath6">
      <path
         d="M 0,0.16 V 1122.5601 H 793.59998 V 0.16 Z"
         transform="translate(-410.88,-562.23999)"
         clip-rule="evenodd"
         id="path6" />
    </clipPath>
    <clipPath
       clipPathUnits="userSpaceOnUse"
       id="clipPath8">
      <path
         d="M 0,0.16 V 1122.5601 H 793.59998 V 0.16 Z"
         transform="translate(-586.08001,-667.67999)"
         clip-rule="evenodd"
         id="path8" />
    </clipPath>
    <clipPath
       clipPathUnits="userSpaceOnUse"
       id="clipPath10">
      <path
         d="M 0,0.16 V 1122.5601 H 793.59998 V 0.16 Z"
         transform="translate(-3.3333333e-6)"
         clip-rule="evenodd"
         id="path10" />
    </clipPath>
    <clipPath
       clipPathUnits="userSpaceOnUse"
       id="clipPath12">
      <path
         d="M 0,0.16 V 1122.5601 H 793.59998 V 0.16 Z"
         transform="translate(-3.3333333e-6)"
         clip-rule="evenodd"
         id="path12" />
    </clipPath>
    <clipPath
       clipPathUnits="userSpaceOnUse"
       id="clipPath14">
      <path
         d="M 0,0.16 V 1122.5601 H 793.59998 V 0.16 Z"
         transform="translate(-556.79998,-684.96002)"
         clip-rule="evenodd"
         id="path14" />
    </clipPath>
  </defs>
  <sodipodi:namedview
     id="namedview1"
     pagecolor="#505050"
     bordercolor="#eeeeee"
     borderopacity="1"
     inkscape:showpageshadow="0"
     inkscape:pageopacity="0"
     inkscape:pagecheckerboard="0"
     inkscape:deskcolor="#505050">
    <inkscape:page
       x="0"
       y="0"
       inkscape:label="1"
       id="page1"
       width="361.51999"
       height="343.04001"
       margin="0"
       bleed="0" />
  </sodipodi:namedview>
  <g
     id="g1"
     inkscape:groupmode="layer"
     inkscape:label="1">
    <path
       id="path1"
       d="m 401.44,426.39999 -117.6,203.84 H 519.20001 L 401.44,426.39999"
       style="fill:none;stroke:#000000;stroke-width:26.4;stroke-linecap:round;stroke-linejoin:round;stroke-miterlimit:10;stroke-dasharray:none;stroke-opacity:1"
       transform="translate(-262.81333,-395.09339)"
       clip-path="url(#clipPath2)" />
    <path
       id="path3"
       d="M 0,0 V -1.28 L -0.32,-2.56 -0.8,-3.84 -1.44,-4.96 -2.24,-6.08 -3.2,-7.04 -4.32,-7.84 -5.44,-8.48 -6.72,-8.96 -8,-9.28 l -1.44,-0.16 -1.28,0.16 -1.28,0.32 -1.28,0.48 -1.12,0.64 -1.12,0.8 -0.96,0.96 -0.800001,1.12 -0.639999,1.12 -0.48,1.28 -0.319999,1.28 -0.16,1.28 0.16,1.44 0.319999,1.28 0.48,1.28 0.639999,1.12 0.800001,1.12 0.96,0.96 1.12,0.8 1.12,0.64 1.28,0.48 1.28,0.32 H -9.44 -8 L -6.72,9.12 -5.44,8.64 -4.32,8 -3.2,7.2 -2.24,6.24 -1.44,5.12 -0.8,4 -0.32,2.72 0,1.44 V 0 0 Z"
       style="fill:#000000;fill-opacity:1;fill-rule:evenodd;stroke:none"
       transform="translate(148.06667,167.1466)"
       clip-path="url(#clipPath4)" />
    <path
       id="path5"
       d="M 0,0 V -1.28 L -0.32,-2.56 -0.8,-3.84 -1.44,-4.96 -2.24,-6.08 -3.2,-7.04 -4.32,-7.84 -5.44,-8.48 -6.72,-8.96 -8,-9.28 l -1.44,-0.16 -1.28,0.16 -1.28,0.32 -1.28,0.48 -1.12,0.64 -1.12,0.8 -0.96,0.96 -0.800001,1.12 -0.639999,1.12 -0.48,1.28 -0.319999,1.28 -0.16,1.28 0.16,1.44 0.319999,1.28 0.48,1.28 0.639999,1.12 0.800001,1.12 0.96,0.96 1.12,0.8 1.12,0.64 1.28,0.48 1.28,0.32 H -9.44 -8 L -6.72,9.12 -5.44,8.64 -4.32,8 -3.2,7.2 -2.24,6.24 -1.44,5.12 -0.8,4 -0.32,2.72 0,1.44 V 0"
       style="fill:none;stroke:#000000;stroke-width:0.48;stroke-linecap:round;stroke-linejoin:round;stroke-miterlimit:10;stroke-dasharray:none;stroke-opacity:1"
       transform="translate(148.06667,167.1466)"
       clip-path="url(#clipPath6)" />
    <path
       id="path7"
       d="m 0,0 2.88,-1.76 2.56,-2.08 2.4,-2.24 2.24,-2.56 1.76,-2.88 1.6,-2.88 1.44,-3.040001 0.96,-3.199998 0.64,-3.200001 0.319999,-3.360001 0.16,-3.359998 -0.32,-3.359999 L 16,-37.119999 15.04,-40.32 13.76,-43.360001 12.32,-46.400002 10.56,-49.119999 8.32,-51.84 6.08,-54.240002 3.52,-56.32 0.8,-58.240002 -2.24,-59.84 l -3.04,-1.279999 -3.2,-0.960003 -3.2,-0.799999 -3.36,-0.32 h -3.2 l -3.36,0.32 -3.359999,0.479999 -3.200001,0.960003 -3.040001,1.279999 -3.040001,1.599999"
       style="fill:none;stroke:#000000;stroke-width:26.4;stroke-linecap:round;stroke-linejoin:round;stroke-miterlimit:10;stroke-dasharray:none;stroke-opacity:1"
       transform="translate(323.26668,272.5866)"
       clip-path="url(#clipPath8)" />
    <path
       id="path9"
       d="M 551.84003,609.12 522.56,626.23999"
       style="fill:none;stroke:#000000;stroke-width:26.4;stroke-linecap:round;stroke-linejoin:round;stroke-miterlimit:10;stroke-dasharray:none;stroke-opacity:1"
       transform="translate(-262.81333,-395.09339)"
       clip-path="url(#clipPath10)" />
    <path
       id="path11"
       d="m 586.08002,667.67999 -29.28003,17.28003"
       style="fill:none;stroke:#000000;stroke-width:26.4;stroke-linecap:round;stroke-linejoin:round;stroke-miterlimit:10;stroke-dasharray:none;stroke-opacity:1"
       transform="translate(-262.81333,-395.09339)"
       clip-path="url(#clipPath12)" />
    <path
       id="path13"
       d="m 0,0 -1.6,1.12 -1.6,1.28 -1.44,1.44 -1.12,1.6 -0.96,1.76 -0.8,1.92 -0.48,1.92 -0.32,2.08 -0.16,1.92 0.32,2.080001 0.32,1.92 0.64,1.919998 0.96,1.92 0.96,1.600001 1.28,1.6 1.44,1.44 1.6,1.119999 L 0.8,29.76 2.72,30.559999 4.64,31.200001 6.56,31.52 h 2.08 2.08 L 12.64,31.040001 14.56,30.559999 16.48,29.6 18.24,28.639999 19.68,27.360001 21.120001,25.92 22.4,24.32 l 1.12,-1.600001 0.8,-1.92 0.639999,-1.92"
       style="fill:none;stroke:#000000;stroke-width:26.4;stroke-linecap:round;stroke-linejoin:round;stroke-miterlimit:10;stroke-dasharray:none;stroke-opacity:1"
       transform="translate(293.98665,289.86663)"
       clip-path="url(#clipPath14)" />
  </g>
</svg>
