<?xml version="1.0" encoding="UTF-8" standalone="no"?>
<!-- Created with Inkscape (http://www.inkscape.org/) -->

<svg
   version="1.1"
   id="svg1"
   width="331.82666"
   height="386.25333"
   viewBox="0 0 331.82666 386.25333"
   sodipodi:docname="Gold2.pdf"
   xmlns:inkscape="http://www.inkscape.org/namespaces/inkscape"
   xmlns:sodipodi="http://sodipodi.sourceforge.net/DTD/sodipodi-0.dtd"
   xmlns="http://www.w3.org/2000/svg"
   xmlns:svg="http://www.w3.org/2000/svg">
  <defs
     id="defs1">
    <clipPath
       clipPathUnits="userSpaceOnUse"
       id="clipPath2">
      <path
         d="M 0,464.95999 V 1587.36 H 793.59998 V 464.95999 Z"
         transform="translate(-3.3333333e-6)"
         clip-rule="evenodd"
         id="path2" />
    </clipPath>
    <clipPath
       clipPathUnits="userSpaceOnUse"
       id="clipPath4">
      <path
         d="M 0,464.95999 V 1587.36 H 793.59998 V 464.95999 Z"
         transform="translate(-503.35998,-1120)"
         clip-rule="evenodd"
         id="path4" />
    </clipPath>
    <clipPath
       clipPathUnits="userSpaceOnUse"
       id="clipPath6">
      <path
         d="M 0,464.95999 V 1587.36 H 793.59998 V 464.95999 Z"
         transform="translate(-501.6,-1120.3199)"
         clip-rule="evenodd"
         id="path6" />
    </clipPath>
    <clipPath
       clipPathUnits="userSpaceOnUse"
       id="clipPath8">
      <path
         d="M 0,464.95999 V 1587.36 H 793.59998 V 464.95999 Z"
         transform="translate(-505.76001,-1189.4399)"
         clip-rule="evenodd"
         id="path8" />
    </clipPath>
  </defs>
  <sodipodi:namedview
     id="namedview1"
     pagecolor="#505050"
     bordercolor="#eeeeee"
     borderopacity="1"
     inkscape:showpageshadow="0"
     inkscape:pageopacity="0"
     inkscape:pagecheckerboard="0"
     inkscape:deskcolor="#505050">
    <inkscape:page
       x="0"
       y="0"
       inkscape:label="1"
       id="page1"
       width="331.82666"
       height="386.25333"
       margin="0"
       bleed="0" />
  </sodipodi:namedview>
  <g
     id="g1"
     inkscape:groupmode="layer"
     inkscape:label="1">
    <path
       id="path1"
       d="M 361.76001,855.84003 250.24,1049.12 h 223.2 L 361.76001,855.84003"
       style="fill:none;stroke:#000000;stroke-width:26.4;stroke-linecap:round;stroke-linejoin:round;stroke-miterlimit:10;stroke-dasharray:none;stroke-opacity:1"
       transform="translate(-229.45333,-830.72003)"
       clip-path="url(#clipPath2)" />
    <path
       id="path3"
       d="m 0,0 3.84,-0.16 3.68,-0.64 3.52,-0.8 3.52,-1.12 3.36,-1.6 3.360001,-1.76 3.039999,-2.08 2.880001,-2.4 2.559999,-2.72 2.4,-2.88 2.080002,-3.040001 L 36,-22.4 l 1.439999,-3.36 1.280002,-3.520001 0.799999,-3.679998 0.48,-3.68 0.16,-3.680001 -0.32,-3.84 -0.479999,-3.68 -0.8,-3.520001 -1.280002,-3.52 L 35.68,-58.240002 33.919998,-61.439999 31.84,-64.480003 29.440001,-67.360001 26.719999,-69.919998 23.84,-72.32 20.799999,-74.400002 17.440001,-76.160004 14.08,-77.599998 10.56,-78.720001 6.88,-79.519997 3.2,-80 l -3.68,-0.160004 -3.84,0.320008 -3.52,0.479995 -3.68,0.959999 -3.52,1.279999 -3.36,1.440003 -3.2,1.919998 -3.039999,2.240005"
       style="fill:none;stroke:#000000;stroke-width:26.4;stroke-linecap:round;stroke-linejoin:round;stroke-miterlimit:10;stroke-dasharray:none;stroke-opacity:1"
       transform="translate(273.90665,289.27997)"
       clip-path="url(#clipPath4)" />
    <path
       id="path5"
       d="m 0,0 -3.52,-1.44 -3.52,-1.12 -3.52,-0.8 -3.68,-0.48 -3.68,-0.16 -3.68,0.16 -3.680001,0.48 -3.679998,0.96 -3.520001,1.12 -3.36,1.6 -3.200001,1.76 -3.040001,2.08 -2.879997,2.4 -2.560001,2.72 -2.239998,2.88 -2.080002,3.04 -1.759998,3.2 -1.600003,3.36 -1.119999,3.520001 -0.799999,3.679998 -0.479999,3.68 -0.16,3.680001 0.16,3.68 0.639999,3.68 0.799999,3.520001 1.279999,3.52 1.440002,3.360001 1.919999,3.199997 2.080001,3.040001 2.399998,2.880001 2.560001,2.560001 2.880002,2.400002 3.039997,2.079994 3.36,1.760002 3.360001,1.440002 3.52,1.119996 3.680001,0.800003 3.68,0.479995 L -17.280001,76 -13.6,75.839996 -9.92,75.360001 -6.4,74.400002 -2.88,73.279999 0.48,71.68 3.68,69.919998 6.72,67.68"
       style="fill:none;stroke:#000000;stroke-width:26.4;stroke-linecap:round;stroke-linejoin:round;stroke-miterlimit:10;stroke-dasharray:none;stroke-opacity:1"
       transform="translate(272.14667,289.59992)"
       clip-path="url(#clipPath6)" />
    <path
       id="path7"
       d="m 0,0 2.24,-1.12 1.92,-1.44 1.92,-1.76 1.6,-1.76 1.44,-2.08 1.12,-2.24 0.96,-2.24 0.64,-2.4 0.48,-2.400001 L 12.48,-20 12.32,-22.4 11.84,-24.799999 11.2,-27.200001 10.24,-29.6 9.12,-31.68 7.68,-33.759998 6.08,-35.68 4.16,-37.279999 2.24,-38.720001 0.16,-40 l -2.4,-0.959999 -2.24,-0.799999 -2.56,-0.480004 -2.4,-0.16 -2.4,0.16 -2.56,0.320004 -2.399999,0.639999 -2.240002,0.799999 -2.24,1.119999 -2.08,1.440003 -1.92,1.599998"
       style="fill:none;stroke:#000000;stroke-width:26.4;stroke-linecap:round;stroke-linejoin:round;stroke-miterlimit:10;stroke-dasharray:none;stroke-opacity:1"
       transform="translate(276.30668,358.71991)"
       clip-path="url(#clipPath8)" />
  </g>
</svg>
