<?xml version="1.0" encoding="UTF-8" standalone="no"?>
<!-- Created with Inkscape (http://www.inkscape.org/) -->

<svg
   version="1.1"
   id="svg1"
   width="316.17334"
   height="256.28"
   viewBox="0 0 316.17334 256.28"
   sodipodi:docname="Gold28.pdf"
   xmlns:inkscape="http://www.inkscape.org/namespaces/inkscape"
   xmlns:sodipodi="http://sodipodi.sourceforge.net/DTD/sodipodi-0.dtd"
   xmlns="http://www.w3.org/2000/svg"
   xmlns:svg="http://www.w3.org/2000/svg">
  <defs
     id="defs1">
    <clipPath
       clipPathUnits="userSpaceOnUse"
       id="clipPath2">
      <path
         d="M 0,0.16 V 1122.5601 H 793.59998 V 0.16 Z"
         transform="translate(-472.32001,-561.28003)"
         clip-rule="evenodd"
         id="path2" />
    </clipPath>
    <clipPath
       clipPathUnits="userSpaceOnUse"
       id="clipPath4">
      <path
         d="M 0,0.16 V 1122.5601 H 793.59998 V 0.16 Z"
         transform="translate(-406.23999,-561.28003)"
         clip-rule="evenodd"
         id="path4" />
    </clipPath>
    <clipPath
       clipPathUnits="userSpaceOnUse"
       id="clipPath6">
      <path
         d="M 0,0.16 V 1122.5601 H 793.59998 V 0.16 Z"
         transform="translate(-406.23999,-561.28003)"
         clip-rule="evenodd"
         id="path6" />
    </clipPath>
    <clipPath
       clipPathUnits="userSpaceOnUse"
       id="clipPath8">
      <path
         d="M 0,0.16 V 1122.5601 H 793.59998 V 0.16 Z"
         transform="translate(-468.95999,-525.28003)"
         clip-rule="evenodd"
         id="path8" />
    </clipPath>
    <clipPath
       clipPathUnits="userSpaceOnUse"
       id="clipPath10">
      <path
         d="M 0,0.16 V 1122.5601 H 793.59998 V 0.16 Z"
         transform="translate(-481.12,-519.03998)"
         clip-rule="evenodd"
         id="path10" />
    </clipPath>
  </defs>
  <sodipodi:namedview
     id="namedview1"
     pagecolor="#505050"
     bordercolor="#eeeeee"
     borderopacity="1"
     inkscape:showpageshadow="0"
     inkscape:pageopacity="0"
     inkscape:pagecheckerboard="0"
     inkscape:deskcolor="#505050">
    <inkscape:page
       x="0"
       y="0"
       inkscape:label="1"
       id="page1"
       width="316.17334"
       height="256.28"
       margin="0"
       bleed="0" />
  </sodipodi:namedview>
  <g
     id="g1"
     inkscape:groupmode="layer"
     inkscape:label="1">
    <path
       id="path1"
       d="m 0,0 c 0,-41.700001 -33.810001,-75.519997 -75.519997,-75.519997 -41.710003,0 -75.519993,33.819996 -75.519993,75.519997 0,41.700001 33.80999,75.519997 75.519993,75.519997 C -33.810001,75.519997 0,41.700001 0,0 Z"
       style="fill:none;stroke:#000000;stroke-width:26.4;stroke-linecap:round;stroke-linejoin:round;stroke-miterlimit:10;stroke-dasharray:none;stroke-opacity:1"
       transform="translate(172.16001,151.4933)"
       clip-path="url(#clipPath2)" />
    <path
       id="path3"
       d="M 0,0 V -1.28 L -0.32,-2.56 -0.8,-3.84 -1.44,-5.12 -2.24,-6.24 -3.2,-7.04 -4.32,-8 -5.44,-8.64 -6.72,-8.96 -8,-9.28 l -1.44,-0.16 -1.28,0.16 -1.28,0.32 -1.28,0.32 -1.28,0.64 -0.96,0.96 -0.96,0.8 -0.800001,1.12 -0.639999,1.28 -0.48,1.28 -0.319999,1.28 -0.16,1.28 0.16,1.44 0.319999,1.28 0.48,1.28 0.639999,1.12 0.800001,1.12 0.96,0.96 0.96,0.8 1.28,0.64 1.28,0.48 1.28,0.32 H -9.44 -8 L -6.72,9.12 -5.44,8.64 -4.32,8 -3.2,7.2 -2.24,6.24 -1.44,5.12 -0.8,4 -0.32,2.72 0,1.44 V 0 0 Z"
       style="fill:#000000;fill-opacity:1;fill-rule:evenodd;stroke:none"
       transform="translate(106.07999,151.4933)"
       clip-path="url(#clipPath4)" />
    <path
       id="path5"
       d="M 0,0 V -1.28 L -0.32,-2.56 -0.8,-3.84 -1.44,-5.12 -2.24,-6.24 -3.2,-7.04 -4.32,-8 -5.44,-8.64 -6.72,-8.96 -8,-9.28 l -1.44,-0.16 -1.28,0.16 -1.28,0.32 -1.28,0.32 -1.28,0.64 -0.96,0.96 -0.96,0.8 -0.800001,1.12 -0.639999,1.28 -0.48,1.28 -0.319999,1.28 -0.16,1.28 0.16,1.44 0.319999,1.28 0.48,1.28 0.639999,1.12 0.800001,1.12 0.96,0.96 0.96,0.8 1.28,0.64 1.28,0.48 1.28,0.32 H -9.44 -8 L -6.72,9.12 -5.44,8.64 -4.32,8 -3.2,7.2 -2.24,6.24 -1.44,5.12 -0.8,4 -0.32,2.72 0,1.44 V 0"
       style="fill:none;stroke:#000000;stroke-width:0.48;stroke-linecap:round;stroke-linejoin:round;stroke-miterlimit:10;stroke-dasharray:none;stroke-opacity:1"
       transform="translate(106.07999,151.4933)"
       clip-path="url(#clipPath6)" />
    <path
       id="path7"
       d="m 0,0 4,-1.76 4,-2.08 3.84,-2.4 3.84,-2.56 3.680001,-2.72 3.359998,-3.04 3.360001,-3.2 3.200001,-3.360001 L 32.16,-24.48 l 2.560001,-3.68 2.559998,-3.68 2.080002,-3.84 1.919998,-3.680001 1.600002,-3.84 1.279999,-3.84 1.119999,-3.84 0.639999,-3.84 0.320004,-3.680001 0.16,-3.519996 -0.32,-3.520004 -0.640003,-3.360001 -0.8,-3.199997 -1.279998,-3.040001 -1.440003,-2.879997 L 40,-80.480003 37.919998,-82.879997 35.68,-84.959999 33.119999,-86.879997 30.24,-88.480003 27.200001,-89.919998 24,-90.879997 20.48,-91.68 16.959999,-92.160004 H 13.12 L 9.28,-92 l -3.84,0.32 -4,0.800003 -4,1.119995 -4.16,1.279999 -4,1.600006 -4,1.919998 -3.839999,2.239998 L -22.4,-80.32 l -3.84,2.559998 -3.52,2.880005 -3.519999,3.040001 -3.200001,3.199997 -3.2,3.36 -2.720002,3.520001 -2.719997,3.519996 -2.400001,3.680001 -2.079998,3.84 -1.760003,3.84 -1.599998,3.84 -1.280003,3.84"
       style="fill:none;stroke:#000000;stroke-width:26.4;stroke-linecap:round;stroke-linejoin:round;stroke-miterlimit:10;stroke-dasharray:none;stroke-opacity:1"
       transform="translate(168.79999,115.4933)"
       clip-path="url(#clipPath8)" />
    <path
       id="path9"
       d="m 0,0 2.88,9.12 3.36,8.96 3.84,8.799999 4.32,8.480002 4.800001,8.319999 5.119999,8.16 5.6,7.68 5.92,7.520001 6.400002,7.199997 6.719997,6.720001 L 56,87.519997 l 7.360001,6.080001 7.68,5.599999 8,5.280003 8.32,4.96 8.479995,4.32 8.640004,4"
       style="fill:none;stroke:#000000;stroke-width:26.4;stroke-linecap:round;stroke-linejoin:round;stroke-miterlimit:10;stroke-dasharray:none;stroke-opacity:1"
       transform="translate(180.96,109.25325)"
       clip-path="url(#clipPath10)" />
  </g>
</svg>
