<?xml version="1.0" encoding="UTF-8" standalone="no"?>
<!-- Created with Inkscape (http://www.inkscape.org/) -->

<svg
   version="1.1"
   id="svg1"
   width="286.82666"
   height="273.62668"
   viewBox="0 0 286.82666 273.62668"
   sodipodi:docname="Gold30.pdf"
   xmlns:inkscape="http://www.inkscape.org/namespaces/inkscape"
   xmlns:sodipodi="http://sodipodi.sourceforge.net/DTD/sodipodi-0.dtd"
   xmlns="http://www.w3.org/2000/svg"
   xmlns:svg="http://www.w3.org/2000/svg">
  <defs
     id="defs1">
    <clipPath
       clipPathUnits="userSpaceOnUse"
       id="clipPath2">
      <path
         d="M 0,0.16 V 1122.5601 H 793.59998 V 0.16 Z"
         transform="translate(-277.76001,-642.23999)"
         clip-rule="evenodd"
         id="path2" />
    </clipPath>
    <clipPath
       clipPathUnits="userSpaceOnUse"
       id="clipPath4">
      <path
         d="M 0,0.16 V 1122.5601 H 793.59998 V 0.16 Z"
         transform="translate(3.3333334e-6)"
         clip-rule="evenodd"
         id="path4" />
    </clipPath>
    <clipPath
       clipPathUnits="userSpaceOnUse"
       id="clipPath6">
      <path
         d="M 0,0.16 V 1122.5601 H 793.59998 V 0.16 Z"
         transform="translate(3.3333334e-6)"
         clip-rule="evenodd"
         id="path6" />
    </clipPath>
    <clipPath
       clipPathUnits="userSpaceOnUse"
       id="clipPath8">
      <path
         d="M 0,0.16 V 1122.5601 H 793.59998 V 0.16 Z"
         transform="translate(3.3333334e-6)"
         clip-rule="evenodd"
         id="path8" />
    </clipPath>
  </defs>
  <sodipodi:namedview
     id="namedview1"
     pagecolor="#505050"
     bordercolor="#eeeeee"
     borderopacity="1"
     inkscape:showpageshadow="0"
     inkscape:pageopacity="0"
     inkscape:pagecheckerboard="0"
     inkscape:deskcolor="#505050">
    <inkscape:page
       x="0"
       y="0"
       inkscape:label="1"
       id="page1"
       width="286.82666"
       height="273.62668"
       margin="0"
       bleed="0" />
  </sodipodi:namedview>
  <g
     id="g1"
     inkscape:groupmode="layer"
     inkscape:label="1">
    <path
       id="path1"
       d="m 0,0 3.36,4.64 3.52,4.32 3.68,4 3.84,3.52 4,3.36 4.159999,2.879999 4.16,2.560002 L 31.040001,27.52 35.52,29.280001 40,30.719999 44.48,31.68 l 4.479999,0.48 4.639999,0.16 4.480004,-0.32 4.479999,-0.639999 4.48,-1.120001 4.479996,-1.440001 4.480003,-1.92 4.160004,-2.24 4.319999,-2.559999 4,-3.039999 4,-3.520001 3.680001,-3.68 3.679992,-4 3.520004,-4.48 3.36,-4.64 3.04,-5.12 2.88,-5.28 2.72,-5.440001 2.4,-5.759998 2.24,-5.92 1.92,-6.240002 1.76,-6.239998 1.44,-6.560001 1.28,-6.560002 0.8,-6.719997 0.8,-6.719997 0.32001,-6.720002 L 128.48,-81.440002 128.32001,-88.32 127.84,-95.040001 127.2,-101.76 l -0.96,-6.72 -1.28,-6.56 -1.6,-6.4 -1.76,-6.4 -1.92,-6.08 -2.24,-5.92 -2.56,-5.76001 -2.72,-5.43998 -2.88,-5.28002 -3.04,-4.95999 -3.36,-4.64 -3.519999,-4.32 -3.680001,-4 -3.840004,-3.68 -4,-3.36 -4,-3.04001 L 79.68,-186.88 l -4.319999,-2.23999 -4.480004,-1.76001 -4.479995,-1.44001 -4.480004,-1.11999 -4.479999,-0.64 -4.48,-0.16 -4.639999,0.16 -4.48,0.64 -4.479999,1.11999 -4.48,1.44001 -4.480001,1.76001 -4.16,2.23999 -4.32,2.55999 -4,3.04001 -4,3.36 -3.84,3.68 -3.68,4 -3.52,4.48001 -3.2,4.64 -3.2,4.95999"
       style="fill:none;stroke:#000000;stroke-width:26.4;stroke-linecap:round;stroke-linejoin:round;stroke-miterlimit:10;stroke-dasharray:none;stroke-opacity:1"
       transform="translate(24.293343,216.43993)"
       clip-path="url(#clipPath2)" />
    <path
       id="path3"
       d="M 292.95999,561.28003 H 481.76001"
       style="fill:none;stroke:#000000;stroke-width:26.4;stroke-linecap:round;stroke-linejoin:round;stroke-miterlimit:10;stroke-dasharray:none;stroke-opacity:1"
       transform="translate(-253.46667,-425.80006)"
       clip-path="url(#clipPath4)" />
    <path
       id="path5"
       d="M 481.76001,561.28003 V 674.56"
       style="fill:none;stroke:#000000;stroke-width:26.4;stroke-linecap:round;stroke-linejoin:round;stroke-miterlimit:10;stroke-dasharray:none;stroke-opacity:1"
       transform="translate(-253.46667,-425.80006)"
       clip-path="url(#clipPath6)" />
    <path
       id="path7"
       d="m 462.88,674.56 h 56.64002"
       style="fill:none;stroke:#000000;stroke-width:26.4;stroke-linecap:round;stroke-linejoin:round;stroke-miterlimit:10;stroke-dasharray:none;stroke-opacity:1"
       transform="translate(-253.46667,-425.80006)"
       clip-path="url(#clipPath8)" />
  </g>
</svg>
