<?xml version="1.0" encoding="UTF-8" standalone="no"?>
<!-- Created with Inkscape (http://www.inkscape.org/) -->

<svg
   version="1.1"
   id="svg1"
   width="254.8"
   height="225.58667"
   viewBox="0 0 254.8 225.58667"
   sodipodi:docname="Gold29.pdf"
   xmlns:inkscape="http://www.inkscape.org/namespaces/inkscape"
   xmlns:sodipodi="http://sodipodi.sourceforge.net/DTD/sodipodi-0.dtd"
   xmlns="http://www.w3.org/2000/svg"
   xmlns:svg="http://www.w3.org/2000/svg">
  <defs
     id="defs1">
    <clipPath
       clipPathUnits="userSpaceOnUse"
       id="clipPath2">
      <path
         d="M 0,0.16 V 1122.5601 H 793.59998 V 0.16 Z"
         transform="translate(-297.76001,-484.95999)"
         clip-rule="evenodd"
         id="path2" />
    </clipPath>
    <clipPath
       clipPathUnits="userSpaceOnUse"
       id="clipPath4">
      <path
         d="M 0,0.16 V 1122.5601 H 793.59998 V 0.16 Z"
         transform="translate(-326.07999,-655.67999)"
         clip-rule="evenodd"
         id="path4" />
    </clipPath>
    <clipPath
       clipPathUnits="userSpaceOnUse"
       id="clipPath6">
      <path
         d="M 0,0.16 V 1122.5601 H 793.59998 V 0.16 Z"
         transform="translate(-3.3333333e-6)"
         clip-rule="evenodd"
         id="path6" />
    </clipPath>
    <clipPath
       clipPathUnits="userSpaceOnUse"
       id="clipPath8">
      <path
         d="M 0,0.16 V 1122.5601 H 793.59998 V 0.16 Z"
         transform="translate(-3.3333333e-6)"
         clip-rule="evenodd"
         id="path8" />
    </clipPath>
    <clipPath
       clipPathUnits="userSpaceOnUse"
       id="clipPath10">
      <path
         d="M 0,0.16 V 1122.5601 H 793.59998 V 0.16 Z"
         transform="translate(-3.3333333e-6)"
         clip-rule="evenodd"
         id="path10" />
    </clipPath>
    <clipPath
       clipPathUnits="userSpaceOnUse"
       id="clipPath12">
      <path
         d="M 0,0.16 V 1122.5601 H 793.59998 V 0.16 Z"
         transform="translate(-3.3333333e-6)"
         clip-rule="evenodd"
         id="path12" />
    </clipPath>
    <clipPath
       clipPathUnits="userSpaceOnUse"
       id="clipPath14">
      <path
         d="M 0,0.16 V 1122.5601 H 793.59998 V 0.16 Z"
         transform="translate(-472.32,-655.67999)"
         clip-rule="evenodd"
         id="path14" />
    </clipPath>
    <clipPath
       clipPathUnits="userSpaceOnUse"
       id="clipPath16">
      <path
         d="M 0,0.16 V 1122.5601 H 793.59998 V 0.16 Z"
         transform="translate(-339.04001,-630.23999)"
         clip-rule="evenodd"
         id="path16" />
    </clipPath>
  </defs>
  <sodipodi:namedview
     id="namedview1"
     pagecolor="#505050"
     bordercolor="#eeeeee"
     borderopacity="1"
     inkscape:showpageshadow="0"
     inkscape:pageopacity="0"
     inkscape:pagecheckerboard="0"
     inkscape:deskcolor="#505050">
    <inkscape:page
       x="0"
       y="0"
       inkscape:label="1"
       id="page1"
       width="254.8"
       height="225.58667"
       margin="0"
       bleed="0" />
  </sodipodi:namedview>
  <g
     id="g1"
     inkscape:groupmode="layer"
     inkscape:label="1">
    <path
       id="path1"
       d="m 0,0 0.16,8.96 0.8,8.8 1.12,8.959999 1.6,8.640002 L 5.76,44 l 2.56,8.639999 3.04,8.32 3.36,8.160004 3.839999,8.159996 4.16,7.68 4.640002,7.68 L 32.48,100 l 5.439998,7.04 5.760002,6.72 6.079998,6.4 6.400002,6.24 6.880001,5.76 7.040001,5.44001 7.36,4.95999 7.519997,4.64 7.840004,4.32 7.999997,3.84 8.16,3.36 8.48,2.88001 8.48,2.55999 8.64,2.08 8.8,1.6 8.8,1.27999 8.80001,0.64 8.95999,0.16001"
       style="fill:none;stroke:#000000;stroke-width:26.4;stroke-linecap:round;stroke-linejoin:round;stroke-miterlimit:10;stroke-dasharray:none;stroke-opacity:1"
       transform="translate(26.946677,29.799932)"
       clip-path="url(#clipPath2)" />
    <path
       id="path3"
       d="m 0,0 8.96,-0.16 8.96,-0.64 8.799999,-1.28 8.800001,-1.6 8.64,-2.08 8.639999,-2.56 8.48,-3.04 8.160003,-3.36 8.159996,-3.999999 7.840004,-4.320002 7.519997,-4.639999 7.360001,-5.119999 7.2,-5.440003 6.72,-5.759998 6.4,-6.240002 6.24,-6.559997 5.76,-6.880001 5.44,-7.040001 4.95999,-7.360001 4.64,-7.68 4.16001,-8 3.83999,-7.999998 3.36,-8.32 2.88001,-8.48 2.56,-8.64 2.08,-8.64 1.44,-8.8 1.11999,-8.96001 0.64,-8.95999 0.16001,-8.96"
       style="fill:none;stroke:#000000;stroke-width:26.4;stroke-linecap:round;stroke-linejoin:round;stroke-miterlimit:10;stroke-dasharray:none;stroke-opacity:1"
       transform="translate(55.266654,200.51993)"
       clip-path="url(#clipPath4)" />
    <path
       id="path5"
       d="M 297.76001,484.95999 496,484.16"
       style="fill:none;stroke:#000000;stroke-width:26.4;stroke-linecap:round;stroke-linejoin:round;stroke-miterlimit:10;stroke-dasharray:none;stroke-opacity:1"
       transform="translate(-270.81333,-455.16006)"
       clip-path="url(#clipPath6)" />
    <path
       id="path7"
       d="M 302.39999,523.52002 H 491.20001"
       style="fill:none;stroke:#000000;stroke-width:26.4;stroke-linecap:round;stroke-linejoin:round;stroke-miterlimit:10;stroke-dasharray:none;stroke-opacity:1"
       transform="translate(-270.81333,-455.16006)"
       clip-path="url(#clipPath8)" />
    <path
       id="path9"
       d="m 321.28,561.28003 156.32001,-1.76001"
       style="fill:none;stroke:#000000;stroke-width:26.4;stroke-linecap:round;stroke-linejoin:round;stroke-miterlimit:10;stroke-dasharray:none;stroke-opacity:1"
       transform="translate(-270.81333,-455.16006)"
       clip-path="url(#clipPath10)" />
    <path
       id="path11"
       d="M 340.16,599.03998 H 453.44"
       style="fill:none;stroke:#000000;stroke-width:26.4;stroke-linecap:round;stroke-linejoin:round;stroke-miterlimit:10;stroke-dasharray:none;stroke-opacity:1"
       transform="translate(-270.81333,-455.16006)"
       clip-path="url(#clipPath12)" />
    <path
       id="path13"
       d="m 0,0 2.4,-0.16 2.24,-0.32 2.24,-0.8 2.08,-0.96 1.92,-1.12 1.76,-1.44 1.6,-1.76 1.44,-1.76 1.279999,-2.08 0.800001,-2.08 0.64,-2.24 0.479999,-2.239999 v -2.240002 L 18.719999,-21.6 18.24,-23.84 17.6,-25.92 16.48,-28 l -1.28,-2.08 -1.44,-1.76 -1.6,-1.599999 -1.92,-1.280002 -1.92,-1.119999 -2.24,-0.959999 -2.24,-0.48 -2.24,-0.319999 -2.24,-0.16 -2.4,0.319999 -2.24,0.48 -2.08,0.799999 -2.08,0.959999"
       style="fill:none;stroke:#000000;stroke-width:26.4;stroke-linecap:round;stroke-linejoin:round;stroke-miterlimit:10;stroke-dasharray:none;stroke-opacity:1"
       transform="translate(201.50667,200.51993)"
       clip-path="url(#clipPath14)" />
    <path
       id="path15"
       d="M 0,0 -0.96,-2.08 -2.08,-4 l -1.44,-1.76 -1.6,-1.76 -1.76,-1.28 -1.92,-1.28 -2.08,-0.96 -2.24,-0.64 -2.24,-0.48 -2.24,-0.16 -2.24,0.16 -2.24,0.32 -2.24,0.8 -2.08,0.8 -1.92,1.28 -1.76,1.28 -1.76,1.6 -1.279999,1.92 -1.280003,1.92 -0.959999,2.08 L -36,1.92 l -0.48,2.24 -0.159999,2.4 0.159999,2.24 0.48,2.24 0.639999,2.24 0.959999,2.08 1.120003,1.920001 1.439999,1.76 1.6,1.599998 1.76,1.440001 1.920001,1.280001 L -24.48,24.16 l 2.24,0.799999 2.24,0.320002 2.24,0.16"
       style="fill:none;stroke:#000000;stroke-width:26.4;stroke-linecap:round;stroke-linejoin:round;stroke-miterlimit:10;stroke-dasharray:none;stroke-opacity:1"
       transform="translate(68.226676,175.07993)"
       clip-path="url(#clipPath16)" />
  </g>
</svg>
