<?xml version="1.0" encoding="UTF-8" standalone="no"?>
<!-- Created with Inkscape (http://www.inkscape.org/) -->

<svg
   version="1.1"
   id="svg1"
   width="518.94666"
   height="622.01331"
   viewBox="0 0 518.94666 622.01331"
   sodipodi:docname="IronFilings3.pdf"
   xmlns:inkscape="http://www.inkscape.org/namespaces/inkscape"
   xmlns:sodipodi="http://sodipodi.sourceforge.net/DTD/sodipodi-0.dtd"
   xmlns="http://www.w3.org/2000/svg"
   xmlns:svg="http://www.w3.org/2000/svg">
  <defs
     id="defs1">
    <clipPath
       clipPathUnits="userSpaceOnUse"
       id="clipPath2">
      <path
         d="M 0,0.16 V 1122.5601 H 793.59998 V 0.16 Z"
         transform="translate(-583.20001,-657.20001)"
         clip-rule="evenodd"
         id="path2" />
    </clipPath>
    <clipPath
       clipPathUnits="userSpaceOnUse"
       id="clipPath4">
      <path
         d="M 0,0.16 V 1122.5601 H 793.59998 V 0.16 Z"
         transform="translate(-167.84,-282.88001)"
         clip-rule="evenodd"
         id="path4" />
    </clipPath>
  </defs>
  <sodipodi:namedview
     id="namedview1"
     pagecolor="#505050"
     bordercolor="#eeeeee"
     borderopacity="1"
     inkscape:showpageshadow="0"
     inkscape:pageopacity="0"
     inkscape:pagecheckerboard="0"
     inkscape:deskcolor="#505050">
    <inkscape:page
       x="0"
       y="0"
       inkscape:label="1"
       id="page1"
       width="518.94666"
       height="622.01331"
       margin="0"
       bleed="0" />
  </sodipodi:namedview>
  <g
     id="g1"
     inkscape:groupmode="layer"
     inkscape:label="1">
    <path
       id="path1"
       d="m 0,0 c 0,-102.72 -83.269997,-186 -186,-186 -102.73001,0 -186,83.28 -186,186 0,102.72 83.26999,186 186,186 C -83.269997,186 0,102.72 0,0 Z"
       style="fill:none;stroke:#000000;stroke-width:26.4;stroke-linecap:round;stroke-linejoin:round;stroke-miterlimit:10;stroke-dasharray:none;stroke-opacity:1"
       transform="translate(583.20001,663.87995)"
       clip-path="url(#clipPath2)" />
    <path
       id="path3"
       d="m 0,0 0.48,8.64 0.8,8.480001 1.44,8.479999 1.76,8.480002 2.24,8.32 2.72,8.319999 3.04,8.16 3.68,7.999996 4,7.840004 4.32,7.839997 4.800001,7.520004 5.28,7.36 L 40.16,104.64 l 5.920002,7.04 6.399998,6.72 6.720001,6.4 7.039997,6.23999 7.36,6.08 7.680001,5.60001 8,5.44 8.160003,5.12 8.639998,4.8 8.64,4.48 9.12,4 9.12001,3.83999 9.43998,3.52001 9.60001,3.04001 9.75999,2.71998 9.92,2.40001 9.92002,1.92 10.07998,1.75999 10.24001,1.12001 10.08,0.96 10.39999,0.48001 10.24001,0.15999 10.24,-0.32 10.23999,-0.64 10.24,-0.96 10.08001,-1.44001 10.07999,-1.75999 9.92001,-2.24001 9.91999,-2.55999 9.6,-2.88001 9.60001,-3.19999 9.28,-3.51999 9.11999,-4 8.96002,-4.32001 8.63999,-4.48 8.32,-4.96 8.16001,-5.28 8,-5.44 7.51999,-5.76 7.20001,-6.08 6.88,-6.4 6.56,-6.56 6.23999,-6.88 5.76001,-7.04 5.44,-7.200002 5.12,-7.519997 4.63998,-7.68 4.32001,-7.840004 3.67999,-7.839997 3.52002,-8.16 2.87998,-8.159999 2.56,-8.32 L 457.28,30.559999 459.04001,22.24 460.16,13.6 460.79999,5.12"
       style="fill:none;stroke:#000000;stroke-width:26.4;stroke-linecap:round;stroke-linejoin:round;stroke-miterlimit:10;stroke-dasharray:none;stroke-opacity:1"
       transform="translate(167.84,289.55995)"
       clip-path="url(#clipPath4)" />
  </g>
</svg>
