<?xml version="1.0" encoding="UTF-8" standalone="no"?>
<!-- Created with Inkscape (http://www.inkscape.org/) -->

<svg
   version="1.1"
   id="svg1"
   width="628.34668"
   height="380.41333"
   viewBox="0 0 628.34668 380.41333"
   sodipodi:docname="IronFilings.pdf"
   xmlns:inkscape="http://www.inkscape.org/namespaces/inkscape"
   xmlns:sodipodi="http://sodipodi.sourceforge.net/DTD/sodipodi-0.dtd"
   xmlns="http://www.w3.org/2000/svg"
   xmlns:svg="http://www.w3.org/2000/svg">
  <defs
     id="defs1">
    <clipPath
       clipPathUnits="userSpaceOnUse"
       id="clipPath2">
      <path
         d="M 0,0.16 V 1122.5601 H 793.59998 V 0.16 Z"
         transform="translate(-445.12,-561.35998)"
         clip-rule="evenodd"
         id="path2" />
    </clipPath>
    <clipPath
       clipPathUnits="userSpaceOnUse"
       id="clipPath4">
      <path
         d="M 0,0.16 V 1122.5601 H 793.59998 V 0.16 Z"
         clip-rule="evenodd"
         id="path4" />
    </clipPath>
    <clipPath
       clipPathUnits="userSpaceOnUse"
       id="clipPath6">
      <path
         d="M 0,0.16 V 1122.5601 H 793.59998 V 0.16 Z"
         clip-rule="evenodd"
         id="path6" />
    </clipPath>
    <clipPath
       clipPathUnits="userSpaceOnUse"
       id="clipPath8">
      <path
         d="M 0,0.16 V 1122.5601 H 793.59998 V 0.16 Z"
         clip-rule="evenodd"
         id="path8" />
    </clipPath>
    <clipPath
       clipPathUnits="userSpaceOnUse"
       id="clipPath10">
      <path
         d="M 0,0.16 V 1122.5601 H 793.59998 V 0.16 Z"
         transform="translate(-500.16001,-552.79999)"
         clip-rule="evenodd"
         id="path10" />
    </clipPath>
    <clipPath
       clipPathUnits="userSpaceOnUse"
       id="clipPath12">
      <path
         d="M 0,0.16 V 1122.5601 H 793.59998 V 0.16 Z"
         transform="translate(-537.91999,-552.79999)"
         clip-rule="evenodd"
         id="path12" />
    </clipPath>
    <clipPath
       clipPathUnits="userSpaceOnUse"
       id="clipPath14">
      <path
         d="M 0,0.16 V 1122.5601 H 793.59998 V 0.16 Z"
         transform="translate(-575.68,-552.79999)"
         clip-rule="evenodd"
         id="path14" />
    </clipPath>
    <clipPath
       clipPathUnits="userSpaceOnUse"
       id="clipPath16">
      <path
         d="M 0,0.16 V 1122.5601 H 793.59998 V 0.16 Z"
         transform="translate(-613.44001,-552.79999)"
         clip-rule="evenodd"
         id="path16" />
    </clipPath>
    <clipPath
       clipPathUnits="userSpaceOnUse"
       id="clipPath18">
      <path
         d="M 0,0.16 V 1122.5601 H 793.59998 V 0.16 Z"
         transform="translate(-500.16001,-552.79999)"
         clip-rule="evenodd"
         id="path18" />
    </clipPath>
    <clipPath
       clipPathUnits="userSpaceOnUse"
       id="clipPath20">
      <path
         d="M 0,0.16 V 1122.5601 H 793.59998 V 0.16 Z"
         transform="translate(-537.91999,-552.79999)"
         clip-rule="evenodd"
         id="path20" />
    </clipPath>
    <clipPath
       clipPathUnits="userSpaceOnUse"
       id="clipPath22">
      <path
         d="M 0,0.16 V 1122.5601 H 793.59998 V 0.16 Z"
         transform="translate(-575.68,-552.79999)"
         clip-rule="evenodd"
         id="path22" />
    </clipPath>
    <clipPath
       clipPathUnits="userSpaceOnUse"
       id="clipPath24">
      <path
         d="M 0,0.16 V 1122.5601 H 793.59998 V 0.16 Z"
         transform="translate(-613.44001,-552.79999)"
         clip-rule="evenodd"
         id="path24" />
    </clipPath>
  </defs>
  <sodipodi:namedview
     id="namedview1"
     pagecolor="#505050"
     bordercolor="#eeeeee"
     borderopacity="1"
     inkscape:showpageshadow="0"
     inkscape:pageopacity="0"
     inkscape:pagecheckerboard="0"
     inkscape:deskcolor="#505050">
    <inkscape:page
       x="0"
       y="0"
       inkscape:label="1"
       id="page1"
       width="628.34668"
       height="380.41333"
       margin="0"
       bleed="0" />
  </sodipodi:namedview>
  <g
     id="g1"
     inkscape:groupmode="layer"
     inkscape:label="1">
    <path
       id="path1"
       d="m 0,0 c 0,-94.410004 -76.540001,-170.96001 -170.96001,-170.96001 -94.41999,0 -170.96,76.550006 -170.96,170.96001 0,94.410004 76.54001,170.96001 170.96,170.96001 C -76.540001,170.96001 0,94.410004 0,0 Z"
       style="fill:none;stroke:#000000;stroke-width:26.4;stroke-linecap:round;stroke-linejoin:round;stroke-miterlimit:10;stroke-dasharray:none;stroke-opacity:1"
       transform="translate(362.41333,191.62659)"
       clip-path="url(#clipPath2)" />
    <path
       id="path3"
       d="m 627.84003,513.44 62.55999,70.71997"
       style="fill:none;stroke:#000000;stroke-width:26.4;stroke-linecap:round;stroke-linejoin:round;stroke-miterlimit:10;stroke-dasharray:none;stroke-opacity:1"
       transform="translate(-82.706667,-369.73339)"
       clip-path="url(#clipPath4)" />
    <path
       id="path5"
       d="M 690.40002,584.15997 619.67999,646.56"
       style="fill:none;stroke:#000000;stroke-width:26.4;stroke-linecap:round;stroke-linejoin:round;stroke-miterlimit:10;stroke-dasharray:none;stroke-opacity:1"
       transform="translate(-82.706667,-369.73339)"
       clip-path="url(#clipPath6)" />
    <path
       id="path7"
       d="M 677.12,583.35998 449.76001,582.56"
       style="fill:none;stroke:#000000;stroke-width:26.4;stroke-linecap:round;stroke-linejoin:round;stroke-miterlimit:10;stroke-dasharray:none;stroke-opacity:1"
       transform="translate(-82.706667,-369.73339)"
       clip-path="url(#clipPath8)" />
    <path
       id="path9"
       d="m 0,0 -0.16,-1.28 -0.16,-1.28 -0.48,-1.28 -0.64,-1.12 -0.8,-1.12 -0.96,-0.96 -1.12,-0.8 -1.12,-0.64 -1.28,-0.48 -1.44,-0.32 -1.28,-0.16 -1.28,0.16 -1.44,0.32 -1.12,0.48 -1.28,0.64 -1.12,0.8 -0.959999,0.96 -0.800002,1.12 -0.639999,1.12 -0.479999,1.28 -0.16,1.28 -0.16,1.28 0.16,1.44 0.16,1.28 L -18.08,4 l 0.639999,1.12 0.800002,1.12 0.959999,0.96 1.12,0.8 1.28,0.64 1.12,0.48 1.44,0.32 h 1.28 1.28 L -6.72,9.12 -5.44,8.64 -4.32,8 -3.2,7.2 -2.24,6.24 -1.44,5.12 -0.8,4 -0.32,2.72 -0.16,1.44 0,0 v 0 z"
       style="fill:#000000;fill-opacity:1;fill-rule:evenodd;stroke:none"
       transform="translate(417.45334,183.0666)"
       clip-path="url(#clipPath10)" />
    <path
       id="path11"
       d="m 0,0 -0.16,-1.28 -0.16,-1.28 -0.48,-1.28 -0.64,-1.12 -0.8,-1.12 -0.96,-0.96 -1.12,-0.8 -1.12,-0.64 -1.28,-0.48 -1.44,-0.32 -1.28,-0.16 -1.28,0.16 -1.44,0.32 -1.12,0.48 -1.28,0.64 -1.12,0.8 -0.959999,0.96 -0.800002,1.12 -0.639999,1.12 -0.479999,1.28 -0.16,1.28 -0.16,1.28 0.16,1.44 0.16,1.28 L -18.08,4 l 0.639999,1.12 0.800002,1.12 0.959999,0.96 1.12,0.8 1.28,0.64 1.12,0.48 1.44,0.32 h 1.28 1.28 L -6.72,9.12 -5.44,8.64 -4.32,8 -3.2,7.2 -2.24,6.24 -1.44,5.12 -0.8,4 -0.32,2.72 -0.16,1.44 0,0 v 0 z"
       style="fill:#000000;fill-opacity:1;fill-rule:evenodd;stroke:none"
       transform="translate(455.21332,183.0666)"
       clip-path="url(#clipPath12)" />
    <path
       id="path13"
       d="m 0,0 -0.16,-1.28 -0.16,-1.28 -0.48,-1.28 -0.64,-1.12 -0.8,-1.12 -0.96,-0.96 -1.12,-0.8 -1.12,-0.64 -1.28,-0.48 -1.44,-0.32 -1.28,-0.16 -1.28,0.16 -1.44,0.32 -1.12,0.48 -1.28,0.64 -1.12,0.8 -0.959999,0.96 -0.800002,1.12 -0.639999,1.12 -0.479999,1.28 -0.16,1.28 -0.16,1.28 0.16,1.44 0.16,1.28 L -18.08,4 l 0.639999,1.12 0.800002,1.12 0.959999,0.96 1.12,0.8 1.28,0.64 1.12,0.48 1.44,0.32 h 1.28 1.28 L -6.72,9.12 -5.44,8.64 -4.32,8 -3.2,7.2 -2.24,6.24 -1.44,5.12 -0.8,4 -0.32,2.72 -0.16,1.44 0,0 v 0 z"
       style="fill:#000000;fill-opacity:1;fill-rule:evenodd;stroke:none"
       transform="translate(492.97333,183.0666)"
       clip-path="url(#clipPath14)" />
    <path
       id="path15"
       d="m 0,0 -0.16,-1.28 -0.16,-1.28 -0.48,-1.28 -0.64,-1.12 -0.8,-1.12 -0.96,-0.96 -1.12,-0.8 -1.12,-0.64 -1.28,-0.48 -1.44,-0.32 -1.28,-0.16 -1.28,0.16 -1.44,0.32 -1.12,0.48 -1.28,0.64 -1.12,0.8 -0.959999,0.96 -0.800002,1.12 -0.639999,1.12 -0.479999,1.28 -0.16,1.28 -0.16,1.28 0.16,1.44 0.16,1.28 L -18.08,4 l 0.639999,1.12 0.800002,1.12 0.959999,0.96 1.12,0.8 1.28,0.64 1.12,0.48 1.44,0.32 h 1.28 1.28 L -6.72,9.12 -5.44,8.64 -4.32,8 -3.2,7.2 -2.24,6.24 -1.44,5.12 -0.8,4 -0.32,2.72 -0.16,1.44 0,0 v 0 z"
       style="fill:#000000;fill-opacity:1;fill-rule:evenodd;stroke:none"
       transform="translate(530.73334,183.0666)"
       clip-path="url(#clipPath16)" />
    <path
       id="path17"
       d="m 0,0 -0.16,-1.28 -0.16,-1.28 -0.48,-1.28 -0.64,-1.12 -0.8,-1.12 -0.96,-0.96 -1.12,-0.8 -1.12,-0.64 -1.28,-0.48 -1.44,-0.32 -1.28,-0.16 -1.28,0.16 -1.44,0.32 -1.12,0.48 -1.28,0.64 -1.12,0.8 -0.959999,0.96 -0.800002,1.12 -0.639999,1.12 -0.479999,1.28 -0.16,1.28 -0.16,1.28 0.16,1.44 0.16,1.28 L -18.08,4 l 0.639999,1.12 0.800002,1.12 0.959999,0.96 1.12,0.8 1.28,0.64 1.12,0.48 1.44,0.32 h 1.28 1.28 L -6.72,9.12 -5.44,8.64 -4.32,8 -3.2,7.2 -2.24,6.24 -1.44,5.12 -0.8,4 -0.32,2.72 -0.16,1.44 0,0"
       style="fill:none;stroke:#000000;stroke-width:0.64;stroke-linecap:round;stroke-linejoin:round;stroke-miterlimit:10;stroke-dasharray:none;stroke-opacity:1"
       transform="translate(417.45334,183.0666)"
       clip-path="url(#clipPath18)" />
    <path
       id="path19"
       d="m 0,0 -0.16,-1.28 -0.16,-1.28 -0.48,-1.28 -0.64,-1.12 -0.8,-1.12 -0.96,-0.96 -1.12,-0.8 -1.12,-0.64 -1.28,-0.48 -1.44,-0.32 -1.28,-0.16 -1.28,0.16 -1.44,0.32 -1.12,0.48 -1.28,0.64 -1.12,0.8 -0.959999,0.96 -0.800002,1.12 -0.639999,1.12 -0.479999,1.28 -0.16,1.28 -0.16,1.28 0.16,1.44 0.16,1.28 L -18.08,4 l 0.639999,1.12 0.800002,1.12 0.959999,0.96 1.12,0.8 1.28,0.64 1.12,0.48 1.44,0.32 h 1.28 1.28 L -6.72,9.12 -5.44,8.64 -4.32,8 -3.2,7.2 -2.24,6.24 -1.44,5.12 -0.8,4 -0.32,2.72 -0.16,1.44 0,0"
       style="fill:none;stroke:#000000;stroke-width:0.64;stroke-linecap:round;stroke-linejoin:round;stroke-miterlimit:10;stroke-dasharray:none;stroke-opacity:1"
       transform="translate(455.21332,183.0666)"
       clip-path="url(#clipPath20)" />
    <path
       id="path21"
       d="m 0,0 -0.16,-1.28 -0.16,-1.28 -0.48,-1.28 -0.64,-1.12 -0.8,-1.12 -0.96,-0.96 -1.12,-0.8 -1.12,-0.64 -1.28,-0.48 -1.44,-0.32 -1.28,-0.16 -1.28,0.16 -1.44,0.32 -1.12,0.48 -1.28,0.64 -1.12,0.8 -0.959999,0.96 -0.800002,1.12 -0.639999,1.12 -0.479999,1.28 -0.16,1.28 -0.16,1.28 0.16,1.44 0.16,1.28 L -18.08,4 l 0.639999,1.12 0.800002,1.12 0.959999,0.96 1.12,0.8 1.28,0.64 1.12,0.48 1.44,0.32 h 1.28 1.28 L -6.72,9.12 -5.44,8.64 -4.32,8 -3.2,7.2 -2.24,6.24 -1.44,5.12 -0.8,4 -0.32,2.72 -0.16,1.44 0,0"
       style="fill:none;stroke:#000000;stroke-width:0.64;stroke-linecap:round;stroke-linejoin:round;stroke-miterlimit:10;stroke-dasharray:none;stroke-opacity:1"
       transform="translate(492.97333,183.0666)"
       clip-path="url(#clipPath22)" />
    <path
       id="path23"
       d="m 0,0 -0.16,-1.28 -0.16,-1.28 -0.48,-1.28 -0.64,-1.12 -0.8,-1.12 -0.96,-0.96 -1.12,-0.8 -1.12,-0.64 -1.28,-0.48 -1.44,-0.32 -1.28,-0.16 -1.28,0.16 -1.44,0.32 -1.12,0.48 -1.28,0.64 -1.12,0.8 -0.959999,0.96 -0.800002,1.12 -0.639999,1.12 -0.479999,1.28 -0.16,1.28 -0.16,1.28 0.16,1.44 0.16,1.28 L -18.08,4 l 0.639999,1.12 0.800002,1.12 0.959999,0.96 1.12,0.8 1.28,0.64 1.12,0.48 1.44,0.32 h 1.28 1.28 L -6.72,9.12 -5.44,8.64 -4.32,8 -3.2,7.2 -2.24,6.24 -1.44,5.12 -0.8,4 -0.32,2.72 -0.16,1.44 0,0"
       style="fill:none;stroke:#000000;stroke-width:0.64;stroke-linecap:round;stroke-linejoin:round;stroke-miterlimit:10;stroke-dasharray:none;stroke-opacity:1"
       transform="translate(530.73334,183.0666)"
       clip-path="url(#clipPath24)" />
  </g>
</svg>
