<?xml version="1.0" encoding="UTF-8" standalone="no"?>
<!-- Created with Inkscape (http://www.inkscape.org/) -->

<svg
   version="1.1"
   id="svg1"
   width="361.53333"
   height="619.34668"
   viewBox="0 0 361.53333 619.34668"
   sodipodi:docname="Iron20.pdf"
   xmlns:inkscape="http://www.inkscape.org/namespaces/inkscape"
   xmlns:sodipodi="http://sodipodi.sourceforge.net/DTD/sodipodi-0.dtd"
   xmlns="http://www.w3.org/2000/svg"
   xmlns:svg="http://www.w3.org/2000/svg">
  <defs
     id="defs1">
    <clipPath
       clipPathUnits="userSpaceOnUse"
       id="clipPath2">
      <path
         d="M 0,0.16 V 1122.5601 H 793.59998 V 0.16 Z"
         transform="translate(-3.3333334e-6)"
         clip-rule="evenodd"
         id="path2" />
    </clipPath>
    <clipPath
       clipPathUnits="userSpaceOnUse"
       id="clipPath4">
      <path
         d="M 0,0.16 V 1122.5601 H 793.59998 V 0.16 Z"
         transform="translate(-3.3333334e-6)"
         clip-rule="evenodd"
         id="path4" />
    </clipPath>
    <clipPath
       clipPathUnits="userSpaceOnUse"
       id="clipPath6">
      <path
         d="M 0,0.16 V 1122.5601 H 793.59998 V 0.16 Z"
         transform="translate(-3.3333334e-6)"
         clip-rule="evenodd"
         id="path6" />
    </clipPath>
    <clipPath
       clipPathUnits="userSpaceOnUse"
       id="clipPath8">
      <path
         d="M 0,0.16 V 1122.5601 H 793.59998 V 0.16 Z"
         transform="translate(-3.3333334e-6)"
         clip-rule="evenodd"
         id="path8" />
    </clipPath>
    <clipPath
       clipPathUnits="userSpaceOnUse"
       id="clipPath10">
      <path
         d="M 0,0.16 V 1122.5601 H 793.59998 V 0.16 Z"
         transform="translate(-297.76001,-787.84003)"
         clip-rule="evenodd"
         id="path10" />
    </clipPath>
    <clipPath
       clipPathUnits="userSpaceOnUse"
       id="clipPath12">
      <path
         d="M 0,0.16 V 1122.5601 H 793.59998 V 0.16 Z"
         transform="translate(-3.3333334e-6)"
         clip-rule="evenodd"
         id="path12" />
    </clipPath>
  </defs>
  <sodipodi:namedview
     id="namedview1"
     pagecolor="#505050"
     bordercolor="#eeeeee"
     borderopacity="1"
     inkscape:showpageshadow="0"
     inkscape:pageopacity="0"
     inkscape:pagecheckerboard="0"
     inkscape:deskcolor="#505050">
    <inkscape:page
       x="0"
       y="0"
       inkscape:label="1"
       id="page1"
       width="361.53333"
       height="619.34668"
       margin="0"
       bleed="0" />
  </sodipodi:namedview>
  <g
     id="g1"
     inkscape:groupmode="layer"
     inkscape:label="1">
    <path
       id="path1"
       d="M 241.11999,448 H 411.04001 V 674.56 H 241.11999 V 448"
       style="fill:none;stroke:#000000;stroke-width:26.4;stroke-linecap:round;stroke-linejoin:round;stroke-miterlimit:10;stroke-dasharray:none;stroke-opacity:1"
       transform="translate(-210.77333,-245.60006)"
       clip-path="url(#clipPath2)" />
    <path
       id="path3"
       d="M 269.44,448 H 382.72 V 278.07999 H 269.44 V 448"
       style="fill:none;stroke:#000000;stroke-width:26.4;stroke-linecap:round;stroke-linejoin:round;stroke-miterlimit:10;stroke-dasharray:none;stroke-opacity:1"
       transform="translate(-210.77333,-245.60006)"
       clip-path="url(#clipPath4)" />
    <path
       id="path5"
       d="m 411.04001,674.56 h 141.6"
       style="fill:none;stroke:#000000;stroke-width:26.4;stroke-linecap:round;stroke-linejoin:round;stroke-miterlimit:10;stroke-dasharray:none;stroke-opacity:1"
       transform="translate(-210.77333,-245.60006)"
       clip-path="url(#clipPath6)" />
    <path
       id="path7"
       d="M 552.64001,646.23999 V 702.88"
       style="fill:none;stroke:#000000;stroke-width:26.4;stroke-linecap:round;stroke-linejoin:round;stroke-miterlimit:10;stroke-dasharray:none;stroke-opacity:1"
       transform="translate(-210.77333,-245.60006)"
       clip-path="url(#clipPath8)" />
    <path
       id="path9"
       d="M 0,0 0.16,4.48 0.64,8.8 1.6,13.28 2.72,17.440001 4.32,21.6 l 1.76,4.16 2.24,3.84 2.4,3.679999 2.88,3.52 L 16.639999,40 19.84,43.040001 l 3.520001,2.719997 3.68,2.560002 3.839998,2.080002 4.000002,1.919998 4.16,1.599998 4.32,1.120003 L 47.68,56 l 4.48,0.48 4.479999,0.159999 4.48,-0.159999 4.320003,-0.48 4.32,-0.959999 4.32,-1.120003 L 78.239998,52.32 82.400002,50.400002 86.239998,48.32 l 3.68,-2.560002 3.520004,-2.719997 L 96.639999,40 99.68,36.799999 l 2.72,-3.52 2.56,-3.679999 2.08,-3.84 1.92,-4.16 1.44,-4.159999 1.28,-4.160001 0.8,-4.48 0.64,-4.32 0.16,-4.48"
       style="fill:none;stroke:#000000;stroke-width:26.4;stroke-linecap:round;stroke-linejoin:round;stroke-miterlimit:10;stroke-dasharray:none;stroke-opacity:1"
       transform="translate(86.986677,542.23997)"
       clip-path="url(#clipPath10)" />
    <path
       id="path11"
       d="M 411.04001,674.56 V 787.84003"
       style="fill:none;stroke:#000000;stroke-width:26.4;stroke-linecap:round;stroke-linejoin:round;stroke-miterlimit:10;stroke-dasharray:none;stroke-opacity:1"
       transform="translate(-210.77333,-245.60006)"
       clip-path="url(#clipPath12)" />
  </g>
</svg>
