<?xml version="1.0" encoding="UTF-8" standalone="no"?>
<!-- Created with Inkscape (http://www.inkscape.org/) -->

<svg
   version="1.1"
   id="svg1"
   width="613.66669"
   height="695.4267"
   viewBox="0 0 613.66669 695.4267"
   sodipodi:docname="IronFilings4.pdf"
   xmlns:inkscape="http://www.inkscape.org/namespaces/inkscape"
   xmlns:sodipodi="http://sodipodi.sourceforge.net/DTD/sodipodi-0.dtd"
   xmlns="http://www.w3.org/2000/svg"
   xmlns:svg="http://www.w3.org/2000/svg">
  <defs
     id="defs1">
    <clipPath
       clipPathUnits="userSpaceOnUse"
       id="clipPath2">
      <path
         d="M 0,0.16 V 1122.5601 H 793.59998 V 0.16 Z"
         transform="translate(-398.39999,-385.12)"
         clip-rule="evenodd"
         id="path2" />
    </clipPath>
    <clipPath
       clipPathUnits="userSpaceOnUse"
       id="clipPath4">
      <path
         d="M 0,0.16 V 1122.5601 H 793.59998 V 0.16 Z"
         transform="translate(-539.03997,-522.56)"
         clip-rule="evenodd"
         id="path4" />
    </clipPath>
    <clipPath
       clipPathUnits="userSpaceOnUse"
       id="clipPath6">
      <path
         d="M 0,0.16 V 1122.5601 H 793.59998 V 0.16 Z"
         transform="translate(-259.67999,-523.84003)"
         clip-rule="evenodd"
         id="path6" />
    </clipPath>
    <clipPath
       clipPathUnits="userSpaceOnUse"
       id="clipPath8">
      <path
         d="M 0,0.16 V 1122.5601 H 793.59998 V 0.16 Z"
         clip-rule="evenodd"
         id="path8" />
    </clipPath>
    <clipPath
       clipPathUnits="userSpaceOnUse"
       id="clipPath10">
      <path
         d="M 0,0.16 V 1122.5601 H 793.59998 V 0.16 Z"
         clip-rule="evenodd"
         id="path10" />
    </clipPath>
    <clipPath
       clipPathUnits="userSpaceOnUse"
       id="clipPath12">
      <path
         d="M 0,0.16 V 1122.5601 H 793.59998 V 0.16 Z"
         transform="translate(-413.28,-278.88)"
         clip-rule="evenodd"
         id="path12" />
    </clipPath>
    <clipPath
       clipPathUnits="userSpaceOnUse"
       id="clipPath14">
      <path
         d="M 0,0.16 V 1122.5601 H 793.59998 V 0.16 Z"
         transform="translate(-413.28,-278.88)"
         clip-rule="evenodd"
         id="path14" />
    </clipPath>
    <clipPath
       clipPathUnits="userSpaceOnUse"
       id="clipPath16">
      <path
         d="M 0,0.16 V 1122.5601 H 793.59998 V 0.16 Z"
         clip-rule="evenodd"
         id="path16" />
    </clipPath>
    <clipPath
       clipPathUnits="userSpaceOnUse"
       id="clipPath18">
      <path
         d="M 0,0.16 V 1122.5601 H 793.59998 V 0.16 Z"
         clip-rule="evenodd"
         id="path18" />
    </clipPath>
    <clipPath
       clipPathUnits="userSpaceOnUse"
       id="clipPath20">
      <path
         d="M 0,0.16 V 1122.5601 H 793.59998 V 0.16 Z"
         clip-rule="evenodd"
         id="path20" />
    </clipPath>
  </defs>
  <sodipodi:namedview
     id="namedview1"
     pagecolor="#505050"
     bordercolor="#eeeeee"
     borderopacity="1"
     inkscape:showpageshadow="0"
     inkscape:pageopacity="0"
     inkscape:pagecheckerboard="0"
     inkscape:deskcolor="#505050">
    <inkscape:page
       x="0"
       y="0"
       inkscape:label="1"
       id="page1"
       width="613.66669"
       height="695.4267"
       margin="0"
       bleed="0" />
  </sodipodi:namedview>
  <g
     id="g1"
     inkscape:groupmode="layer"
     inkscape:label="1">
    <path
       id="path1"
       d="m 0,0 -8.32,-8.16 -8.479999,-8.16 -8.480002,-8 -8.639997,-7.84 -8.800003,-7.68 -8.64,-7.360001 -8.799999,-7.36 -8.799999,-7.039997 -8.639999,-6.720002 -8.800004,-6.559997 -8.639999,-6.400002 -8.639999,-6.080002 -8.64,-5.760002 -8.64,-5.599998 -8.32,-5.279999 -8.32001,-4.96 -8.31999,-4.64 -8,-4.32 -8,-4 -7.68001,-3.68 -7.67999,-3.36001 -7.36,-3.03999 -7.2,-2.72 -7.04,-2.24001 -6.87999,-1.91999 -6.56002,-1.76 -6.23999,-1.11999 -6.08,-0.96001 -5.75999,-0.64 -5.60001,-0.16 -5.11999,0.16 -4.96001,0.64 -4.64,0.96001 -4.31999,1.11999 -4.00002,1.76 -3.67999,1.91999 -3.35999,2.40001 -3.04001,2.56 -2.72,3.03999 -2.23999,3.36001 -2.08001,3.68 -1.60001,4 -1.28,4.32 -0.95999,4.64 -0.48001,4.96 -0.16,5.279999 0.16,5.599998 0.48001,5.760002 0.79999,6.080002 1.28,6.400002 1.6,6.559997 1.92002,6.720002 2.23999,7.199996 2.72,7.200001 2.88,7.360001 3.35999,7.68 3.68002,7.84 3.99999,8 4.32,8.16 4.48,8.16 4.96001,8.48 5.11999,8.479999 5.60001,8.480002 5.75999,8.800001 5.92,8.639999 6.39999,8.799999 6.40001,8.8 6.88001,8.799999 6.87999,8.800003 7.19999,8.799995 7.36001,8.800003 7.68,8.8 7.68,8.64 8,8.64 8,8.48 8.16,8.48"
       style="fill:none;stroke:#000000;stroke-width:26.4;stroke-linecap:round;stroke-linejoin:round;stroke-miterlimit:10;stroke-dasharray:none;stroke-opacity:1"
       transform="translate(302.34666,168.87994)"
       clip-path="url(#clipPath2)" />
    <path
       id="path3"
       d="m 0,0 8.32,-8.32 8.16,-8.479999 8,-8.480002 7.68,-8.639997 7.68,-8.640003 7.520001,-8.8 7.2,-8.799999 7.039997,-8.640003 6.880005,-8.799995 6.559998,-8.800004 6.400001,-8.639999 6.079995,-8.639999 5.760002,-8.64 5.440002,-8.48 5.279999,-8.48 4.96,-8.32001 4.64,-8.31999 4.32,-8 4,-8 3.68,-7.68001 3.36001,-7.67999 3.03999,-7.36 2.72,-7.2 2.39999,-7.04 1.92,-6.72001 1.60001,-6.55999 1.28,-6.4 0.96,-6.08 0.48,-5.75999 0.16,-5.44001 -0.16,-5.27999 -0.48,-4.96001 -0.96,-4.64 -1.28,-4.31999 -1.60001,-4.00002 -1.92,-3.67999 -2.39999,-3.35999 -2.72,-3.04001 -3.03999,-2.72 -3.36001,-2.23999 -3.68,-2.08001 -4,-1.60001 -4.32,-1.28 -4.64,-0.95999 -4.96,-0.48001 -5.279999,-0.16 -5.440002,0.16 -5.919998,0.48001 -6.080002,0.79999 -6.239998,1.28 -6.559998,1.6 -6.880005,1.92002 -7.039997,2.39999 -7.2,2.56 -7.520001,3.04001 -7.68,3.19998 -7.84,3.68002 -7.84,3.99999 -8.16,4.32 -8.32,4.48 -8.32,4.96001 -8.479999,5.27999 -8.640002,5.44001 -8.640001,5.75999 -8.799999,5.92 -8.639999,6.39999 -8.8,6.56002 -8.800003,6.72 -8.959999,6.87999 -8.799995,7.19999 -8.800003,7.52001 -8.64,7.52 -8.64,7.68 -8.64,8 -8.64,8 -8.32,8.32"
       style="fill:none;stroke:#000000;stroke-width:26.4;stroke-linecap:round;stroke-linejoin:round;stroke-miterlimit:10;stroke-dasharray:none;stroke-opacity:1"
       transform="translate(442.98664,306.31994)"
       clip-path="url(#clipPath4)" />
    <path
       id="path5"
       d="m 0,0 7.2,6.56 7.36,6.24 7.68,5.759999 8,5.600001 8.160002,5.120001 8.479999,4.639997 8.639999,4.320004 8.960003,3.84 8.959999,3.359997 L 82.720001,48.32 92,50.880001 l 9.44,2.079998 9.6,1.600002 9.6,1.119999 9.6,0.64 9.76,0.16 9.60001,-0.16 9.75999,-0.8 9.60001,-1.279998 9.43998,-1.600003 9.44001,-2.079998 9.27999,-2.720001 9.28,-3.040001 8.96001,-3.36 8.8,-4 8.64,-4.32 8.48,-4.799999 8.16,-5.119999 8,-5.600001 7.51999,-5.92 7.36002,-6.24 7.03998,-6.72"
       style="fill:none;stroke:#000000;stroke-width:26.4;stroke-linecap:round;stroke-linejoin:round;stroke-miterlimit:10;stroke-dasharray:none;stroke-opacity:1"
       transform="translate(163.62666,307.59997)"
       clip-path="url(#clipPath6)" />
    <path
       id="path7"
       d="m 400.48001,384 -141.44,120.48001"
       style="fill:none;stroke:#000000;stroke-width:26.4;stroke-linecap:round;stroke-linejoin:round;stroke-miterlimit:10;stroke-dasharray:none;stroke-opacity:1"
       transform="translate(-96.053333,-216.24006)"
       clip-path="url(#clipPath8)" />
    <path
       id="path9"
       d="M 398.39999,385.12 539.03998,522.56"
       style="fill:none;stroke:#000000;stroke-width:26.4;stroke-linecap:round;stroke-linejoin:round;stroke-miterlimit:10;stroke-dasharray:none;stroke-opacity:1"
       transform="translate(-96.053333,-216.24006)"
       clip-path="url(#clipPath10)" />
    <path
       id="path11"
       d="m 0,0 v -1.76 l -0.32,-1.6 -0.64,-1.76 -0.8,-1.44 -0.96,-1.44 -1.12,-1.28 -1.28,-1.28 -1.44,-0.96 -1.6,-0.64 -1.6,-0.64 -1.6,-0.32 -1.76,-0.16 -1.76,0.16 -1.759999,0.32 -1.600001,0.64 -1.44,0.64 -1.440001,0.96 -1.439998,1.28 L -23.68,-8 l -0.959999,1.44 -0.640002,1.44 -0.639999,1.76 -0.32,1.6 -0.16,1.76 0.16,1.76 0.32,1.6 0.639999,1.76 0.640002,1.44 L -23.68,8 l 1.120001,1.28 1.439998,1.12 1.440001,0.96 1.44,0.8 1.600001,0.64 1.759999,0.32 h 1.76 1.76 l 1.6,-0.32 1.6,-0.64 1.6,-0.8 L -5.12,10.4 -3.84,9.28 -2.72,8 -1.76,6.56 -0.96,5.12 -0.32,3.36 0,1.76 V 0 0 Z"
       style="fill:#000000;fill-opacity:1;fill-rule:evenodd;stroke:none"
       transform="translate(317.22667,62.639946)"
       clip-path="url(#clipPath12)" />
    <path
       id="path13"
       d="m 0,0 v -1.76 l -0.32,-1.6 -0.64,-1.76 -0.8,-1.44 -0.96,-1.44 -1.12,-1.28 -1.28,-1.28 -1.44,-0.96 -1.6,-0.64 -1.6,-0.64 -1.6,-0.32 -1.76,-0.16 -1.76,0.16 -1.759999,0.32 -1.600001,0.64 -1.44,0.64 -1.440001,0.96 -1.439998,1.28 L -23.68,-8 l -0.959999,1.44 -0.640002,1.44 -0.639999,1.76 -0.32,1.6 -0.16,1.76 0.16,1.76 0.32,1.6 0.639999,1.76 0.640002,1.44 L -23.68,8 l 1.120001,1.28 1.439998,1.12 1.440001,0.96 1.44,0.8 1.600001,0.64 1.759999,0.32 h 1.76 1.76 l 1.6,-0.32 1.6,-0.64 1.6,-0.8 L -5.12,10.4 -3.84,9.28 -2.72,8 -1.76,6.56 -0.96,5.12 -0.32,3.36 0,1.76 V 0"
       style="fill:none;stroke:#000000;stroke-width:0.64;stroke-linecap:round;stroke-linejoin:round;stroke-miterlimit:10;stroke-dasharray:none;stroke-opacity:1"
       transform="translate(317.22667,62.639946)"
       clip-path="url(#clipPath14)" />
    <path
       id="path15"
       d="M 400.16,580.96002 V 883.03998"
       style="fill:none;stroke:#000000;stroke-width:26.4;stroke-linecap:round;stroke-linejoin:round;stroke-miterlimit:10;stroke-dasharray:none;stroke-opacity:1"
       transform="translate(-96.053333,-216.24006)"
       clip-path="url(#clipPath16)" />
    <path
       id="path17"
       d="M 400.16,883.03998 305.76001,694.23999"
       style="fill:none;stroke:#000000;stroke-width:26.4;stroke-linecap:round;stroke-linejoin:round;stroke-miterlimit:10;stroke-dasharray:none;stroke-opacity:1"
       transform="translate(-96.053333,-216.24006)"
       clip-path="url(#clipPath18)" />
    <path
       id="path19"
       d="m 400.16,883.03998 94.4,-188.79999"
       style="fill:none;stroke:#000000;stroke-width:26.4;stroke-linecap:round;stroke-linejoin:round;stroke-miterlimit:10;stroke-dasharray:none;stroke-opacity:1"
       transform="translate(-96.053333,-216.24006)"
       clip-path="url(#clipPath20)" />
  </g>
</svg>
