<?xml version="1.0" encoding="UTF-8" standalone="no"?>
<!-- Created with Inkscape (http://www.inkscape.org/) -->

<svg
   version="1.1"
   id="svg1"
   width="510.93332"
   height="499.21332"
   viewBox="0 0 510.93332 499.21332"
   sodipodi:docname="Kohlenstoff.pdf"
   xmlns:inkscape="http://www.inkscape.org/namespaces/inkscape"
   xmlns:sodipodi="http://sodipodi.sourceforge.net/DTD/sodipodi-0.dtd"
   xmlns="http://www.w3.org/2000/svg"
   xmlns:svg="http://www.w3.org/2000/svg">
  <defs
     id="defs1">
    <clipPath
       clipPathUnits="userSpaceOnUse"
       id="clipPath2">
      <path
         d="M 0,0.16 V 1122.5601 H 793.59998 V 0.16 Z"
         transform="translate(-623.35998,-561.28003)"
         clip-rule="evenodd"
         id="path2" />
    </clipPath>
    <clipPath
       clipPathUnits="userSpaceOnUse"
       id="clipPath4">
      <path
         d="M 0,0.16 V 1122.5601 H 793.59998 V 0.16 Z"
         transform="translate(-623.35998,-561.28003)"
         clip-rule="evenodd"
         id="path4" />
    </clipPath>
  </defs>
  <sodipodi:namedview
     id="namedview1"
     pagecolor="#505050"
     bordercolor="#eeeeee"
     borderopacity="1"
     inkscape:showpageshadow="0"
     inkscape:pageopacity="0"
     inkscape:pagecheckerboard="0"
     inkscape:deskcolor="#505050">
    <inkscape:page
       x="0"
       y="0"
       inkscape:label="1"
       id="page1"
       width="510.93332"
       height="499.21332"
       margin="0"
       bleed="0" />
  </sodipodi:namedview>
  <g
     id="g1"
     inkscape:groupmode="layer"
     inkscape:label="1">
    <path
       id="path1"
       d="m 0,0 -0.32,-12.96 -1.12,-12.8 -1.92,-12.800001 -2.56,-12.8 -3.2,-12.479999 -4,-12.320004 -4.64,-12 L -23.200001,-100 l -6.08,-11.36 L -36,-122.4 l -7.200001,-10.71999 -8,-10.24001 -8.479999,-9.75999 -8.959999,-9.28 -9.440003,-8.80001 -10.080002,-8.16 -10.399994,-7.67999 L -109.6,-193.92 l -11.2,-6.40001 -11.52001,-5.75999 -12,-4.95999 -12.15999,-4.32001 -12.48001,-3.67999 -12.47999,-3.04001 -12.8,-2.08 -12.96,-1.59999 -12.8,-0.64 h -12.96001 l -12.95999,0.64 -12.8,1.59999 -12.79999,2.08 -12.64001,3.04001 -12.32001,3.67999 -12.16,4.32001 -12,4.95999 -11.51999,5.75999 -11.35999,6.40001 -10.88,6.88001 -10.4,7.67999 -10.08001,8.16 -9.44001,8.80001 -9.11999,9.28 -8.48001,9.75999 -7.84,10.24001 -7.35999,10.71999 -6.72,11.04 -5.92001,11.36 -5.44,11.839996 -4.63999,12 -4,12.320004 -3.36001,12.479999 -2.56,12.8 -1.75998,12.800001 -1.12002,12.8 L -453.12,0 l 0.47999,12.96 1.12002,12.96 1.75998,12.800001 2.56,12.64 3.36001,12.479999 4,12.320004 4.63999,12 5.44,11.839996 5.92001,11.36 6.72,11.2 7.35999,10.55999 7.84,10.24001 8.48001,9.92 9.11999,9.28 9.44001,8.64 10.08001,8.16 10.4,7.67999 10.88,7.04001 11.35999,6.24001 11.51999,5.75999 12,5.12 12.16,4.32 12.32001,3.68 12.64001,2.88 12.79999,2.24001 12.8,1.43998 12.95999,0.64 H -220 l 12.8,-0.64 12.96,-1.43998 12.8,-2.24001 12.47999,-2.88 12.48001,-3.68 12.15999,-4.32 12,-5.12 11.52001,-5.75999 11.2,-6.24001 11.040002,-7.04001 10.399994,-7.67999 10.080002,-8.16 9.440003,-8.64 8.959999,-9.28 8.479999,-9.92 8,-10.24001 L -36,122.56 l 6.719999,-11.2 6.08,-11.36 5.440001,-11.839996 4.64,-12 4,-12.320004 3.2,-12.479999 2.56,-12.64 L -1.44,25.92 -0.32,12.96 0,0 v 0 z"
       style="fill:#a8a8a8;fill-opacity:1;fill-rule:evenodd;stroke:none"
       transform="translate(623.35998,557.26664)"
       clip-path="url(#clipPath2)" />
    <path
       id="path3"
       d="m 0,0 -0.32,-12.96 -1.12,-12.8 -1.92,-12.800001 -2.56,-12.8 -3.2,-12.479999 -4,-12.320004 -4.64,-12 L -23.200001,-100 l -6.08,-11.36 L -36,-122.4 l -7.200001,-10.71999 -8,-10.24001 -8.479999,-9.75999 -8.959999,-9.28 -9.440003,-8.80001 -10.080002,-8.16 -10.399994,-7.67999 L -109.6,-193.92 l -11.2,-6.40001 -11.52001,-5.75999 -12,-4.95999 -12.15999,-4.32001 -12.48001,-3.67999 -12.47999,-3.04001 -12.8,-2.08 -12.96,-1.59999 -12.8,-0.64 h -12.96001 l -12.95999,0.64 -12.8,1.59999 -12.79999,2.08 -12.64001,3.04001 -12.32001,3.67999 -12.16,4.32001 -12,4.95999 -11.51999,5.75999 -11.35999,6.40001 -10.88,6.88001 -10.4,7.67999 -10.08001,8.16 -9.44001,8.80001 -9.11999,9.28 -8.48001,9.75999 -7.84,10.24001 -7.35999,10.71999 -6.72,11.04 -5.92001,11.36 -5.44,11.839996 -4.63999,12 -4,12.320004 -3.36001,12.479999 -2.56,12.8 -1.75998,12.800001 -1.12002,12.8 L -453.12,0 l 0.47999,12.96 1.12002,12.96 1.75998,12.800001 2.56,12.64 3.36001,12.479999 4,12.320004 4.63999,12 5.44,11.839996 5.92001,11.36 6.72,11.2 7.35999,10.55999 7.84,10.24001 8.48001,9.92 9.11999,9.28 9.44001,8.64 10.08001,8.16 10.4,7.67999 10.88,7.04001 11.35999,6.24001 11.51999,5.75999 12,5.12 12.16,4.32 12.32001,3.68 12.64001,2.88 12.79999,2.24001 12.8,1.43998 12.95999,0.64 H -220 l 12.8,-0.64 12.96,-1.43998 12.8,-2.24001 12.47999,-2.88 12.48001,-3.68 12.15999,-4.32 12,-5.12 11.52001,-5.75999 11.2,-6.24001 11.040002,-7.04001 10.399994,-7.67999 10.080002,-8.16 9.440003,-8.64 8.959999,-9.28 8.479999,-9.92 8,-10.24001 L -36,122.56 l 6.719999,-11.2 6.08,-11.36 5.440001,-11.839996 4.64,-12 4,-12.320004 3.2,-12.479999 2.56,-12.64 L -1.44,25.92 -0.32,12.96 0,0"
       style="fill:none;stroke:#000000;stroke-width:26.4;stroke-linecap:round;stroke-linejoin:round;stroke-miterlimit:10;stroke-dasharray:none;stroke-opacity:1"
       transform="translate(623.35998,557.26664)"
       clip-path="url(#clipPath4)" />
  </g>
</svg>
