<?xml version="1.0" encoding="UTF-8" standalone="no"?>
<!-- Created with Inkscape (http://www.inkscape.org/) -->

<svg
   version="1.1"
   id="svg1"
   width="572.30664"
   height="353.72"
   viewBox="0 0 572.30664 353.72"
   sodipodi:docname="Lead23.pdf"
   xmlns:inkscape="http://www.inkscape.org/namespaces/inkscape"
   xmlns:sodipodi="http://sodipodi.sourceforge.net/DTD/sodipodi-0.dtd"
   xmlns="http://www.w3.org/2000/svg"
   xmlns:svg="http://www.w3.org/2000/svg">
  <defs
     id="defs1">
    <clipPath
       clipPathUnits="userSpaceOnUse"
       id="clipPath2">
      <path
         d="M 0,0.16 V 1122.5601 H 793.59998 V 0.16 Z"
         clip-rule="evenodd"
         id="path2" />
    </clipPath>
    <clipPath
       clipPathUnits="userSpaceOnUse"
       id="clipPath4">
      <path
         d="M 0,0.16 V 1122.5601 H 793.59998 V 0.16 Z"
         transform="translate(-283.51999,-485.76001)"
         clip-rule="evenodd"
         id="path4" />
    </clipPath>
    <clipPath
       clipPathUnits="userSpaceOnUse"
       id="clipPath6">
      <path
         d="M 0,0.16 V 1122.5601 H 793.59998 V 0.16 Z"
         clip-rule="evenodd"
         id="path6" />
    </clipPath>
    <clipPath
       clipPathUnits="userSpaceOnUse"
       id="clipPath8">
      <path
         d="M 0,0.16 V 1122.5601 H 793.59998 V 0.16 Z"
         clip-rule="evenodd"
         id="path8" />
    </clipPath>
    <clipPath
       clipPathUnits="userSpaceOnUse"
       id="clipPath10">
      <path
         d="M 0,0.16 V 1122.5601 H 793.59998 V 0.16 Z"
         transform="translate(-661.12,-485.76001)"
         clip-rule="evenodd"
         id="path10" />
    </clipPath>
    <clipPath
       clipPathUnits="userSpaceOnUse"
       id="clipPath12">
      <path
         d="M 0,0.16 V 1122.5601 H 793.59998 V 0.16 Z"
         clip-rule="evenodd"
         id="path12" />
    </clipPath>
    <clipPath
       clipPathUnits="userSpaceOnUse"
       id="clipPath14">
      <path
         d="M 0,0.16 V 1122.5601 H 793.59998 V 0.16 Z"
         transform="translate(-472.32001,-485.76001)"
         clip-rule="evenodd"
         id="path14" />
    </clipPath>
  </defs>
  <sodipodi:namedview
     id="namedview1"
     pagecolor="#505050"
     bordercolor="#eeeeee"
     borderopacity="1"
     inkscape:showpageshadow="0"
     inkscape:pageopacity="0"
     inkscape:pagecheckerboard="0"
     inkscape:deskcolor="#505050">
    <inkscape:page
       x="0"
       y="0"
       inkscape:label="1"
       id="page1"
       width="572.30664"
       height="353.72"
       margin="0"
       bleed="0" />
  </sodipodi:namedview>
  <g
     id="g1"
     inkscape:groupmode="layer"
     inkscape:label="1">
    <path
       id="path1"
       d="m 283.51999,485.76001 v 226.56"
       style="fill:none;stroke:#000000;stroke-width:26.4;stroke-linecap:round;stroke-linejoin:round;stroke-miterlimit:10;stroke-dasharray:none;stroke-opacity:1"
       transform="translate(0,-5.3467253)"
       clip-path="url(#clipPath2)" />
    <path
       id="path3"
       d="M 0,0 -0.16,-5.44 -0.64,-10.72 -1.6,-16 -3.04,-21.280001 -4.64,-26.4 -6.72,-31.360001 -9.12,-36.16 -12,-40.799999 l -3.04,-4.48 -3.36,-4.16 -3.68,-4 -4,-3.68 -4.16,-3.360001 -4.320001,-3.04 -4.64,-2.719998 -4.959999,-2.400001 -4.959999,-2.080002 -5.120003,-1.760002 -5.119999,-1.279999 -5.279998,-0.959999 -5.440003,-0.64 -5.439995,-0.159996 -5.280006,0.159996 -5.439995,0.64 -5.279999,0.959999 -5.280006,1.279999 -5.119997,1.760002 -4.96,2.080002 -4.8,2.400001 -4.64,2.719998 -4.32,3.04 -4.32,3.360001 -3.84,3.68 -3.68,4 -3.36,4.16 -3.19999,4.48 -2.72,4.639999 -2.40001,4.799999 -2.08,4.960001 -1.6,5.119999 -1.44,5.280001 -0.96,5.28 -0.48,5.28 -0.31999,5.44"
       style="fill:none;stroke:#000000;stroke-width:26.4;stroke-linecap:round;stroke-linejoin:round;stroke-miterlimit:10;stroke-dasharray:none;stroke-opacity:1"
       transform="translate(283.51999,480.41328)"
       clip-path="url(#clipPath4)" />
    <path
       id="path5"
       d="m 472.32001,485.76001 v 226.56"
       style="fill:none;stroke:#000000;stroke-width:26.4;stroke-linecap:round;stroke-linejoin:round;stroke-miterlimit:10;stroke-dasharray:none;stroke-opacity:1"
       transform="translate(0,-5.3467253)"
       clip-path="url(#clipPath6)" />
    <path
       id="path7"
       d="m 661.12,485.76001 v 226.56"
       style="fill:none;stroke:#000000;stroke-width:26.4;stroke-linecap:round;stroke-linejoin:round;stroke-miterlimit:10;stroke-dasharray:none;stroke-opacity:1"
       transform="translate(0,-5.3467253)"
       clip-path="url(#clipPath8)" />
    <path
       id="path9"
       d="m 0,0 -1.6,-6.08 -1.92,-6.08 -2.4,-5.92 -2.88,-5.76 -3.04,-5.440001 -3.52,-5.44 -3.840001,-4.959999 -4.16,-4.8 -4.479999,-4.639999 -4.799999,-4.16 -5.119999,-3.84 -5.280003,-3.68 L -48.48,-64 l -5.760002,-2.720001 -5.919998,-2.559998 -5.920002,-1.919998 -6.239998,-1.760002 -6.239998,-1.279999 -6.240005,-0.800003 -6.399994,-0.32 h -6.400001 l -6.240002,0.32 -6.4,0.800003 -6.24,1.279999 -6.08,1.760002 -6.08,1.919998 -5.92,2.559998 -5.6,2.720001 -5.59999,3.200001 -5.28,3.68 -4.96001,3.84 -4.8,4.16 -4.48,4.639999 -4.16,4.8 -3.84,4.959999 -3.52,5.44 -3.2,5.440001 -2.72,5.76 -2.39999,5.92 -2.08001,6.08 -1.6,6.08"
       style="fill:none;stroke:#000000;stroke-width:26.4;stroke-linecap:round;stroke-linejoin:round;stroke-miterlimit:10;stroke-dasharray:none;stroke-opacity:1"
       transform="translate(661.12,480.41328)"
       clip-path="url(#clipPath10)" />
    <path
       id="path11"
       d="m 377.92001,485.76001 -94.40002,226.56"
       style="fill:none;stroke:#000000;stroke-width:26.4;stroke-linecap:round;stroke-linejoin:round;stroke-miterlimit:10;stroke-dasharray:none;stroke-opacity:1"
       transform="translate(0,-5.3467253)"
       clip-path="url(#clipPath12)" />
    <path
       id="path13"
       d="m 0,0 -1.44,-3.84 -1.92,-3.68 -2.08,-3.52 -2.4,-3.36 -2.56,-3.040001 -3.04,-3.039999 -3.04,-2.560001 -3.36,-2.4 -3.520001,-2.079999 -3.84,-1.760001 -3.84,-1.599998 -3.84,-1.120001 -4,-0.799999 -4.16,-0.64 -4.16,-0.159999 -4,0.159999 -4.16,0.64 -4,0.799999 -4,1.120001 -3.839996,1.599998 -3.68,1.760001 -3.520005,2.079999 -3.36,2.4 -3.199997,2.560001 -2.879997,3.039999 -2.720002,3.040001 -2.400001,3.36 -2.080002,3.52 -1.760002,3.68 -1.599999,3.84"
       style="fill:none;stroke:#000000;stroke-width:26.4;stroke-linecap:round;stroke-linejoin:round;stroke-miterlimit:10;stroke-dasharray:none;stroke-opacity:1"
       transform="translate(472.32001,480.41328)"
       clip-path="url(#clipPath14)" />
  </g>
</svg>
