<?xml version="1.0" encoding="UTF-8" standalone="no"?>
<!-- Created with Inkscape (http://www.inkscape.org/) -->

<svg
   version="1.1"
   id="svg1"
   width="456.23999"
   height="457.84"
   viewBox="0 0 456.23999 457.84"
   sodipodi:docname="Lead6.pdf"
   xmlns:inkscape="http://www.inkscape.org/namespaces/inkscape"
   xmlns:sodipodi="http://sodipodi.sourceforge.net/DTD/sodipodi-0.dtd"
   xmlns="http://www.w3.org/2000/svg"
   xmlns:svg="http://www.w3.org/2000/svg">
  <defs
     id="defs1">
    <clipPath
       clipPathUnits="userSpaceOnUse"
       id="clipPath2">
      <path
         d="M 0,0.16 V 1122.5601 H 793.59998 V 0.16 Z"
         transform="translate(-330.72,-372.48001)"
         clip-rule="evenodd"
         id="path2" />
    </clipPath>
    <clipPath
       clipPathUnits="userSpaceOnUse"
       id="clipPath4">
      <path
         d="M 0,0.16 V 1122.5601 H 793.59998 V 0.16 Z"
         transform="translate(-236.32001,-466.88)"
         clip-rule="evenodd"
         id="path4" />
    </clipPath>
    <clipPath
       clipPathUnits="userSpaceOnUse"
       id="clipPath6">
      <path
         d="M 0,0.16 V 1122.5601 H 793.59998 V 0.16 Z"
         transform="translate(-613.91998,-655.67999)"
         clip-rule="evenodd"
         id="path6" />
    </clipPath>
    <clipPath
       clipPathUnits="userSpaceOnUse"
       id="clipPath8">
      <path
         d="M 0,0.16 V 1122.5601 H 793.59998 V 0.16 Z"
         transform="translate(-519.52002,-750.08002)"
         clip-rule="evenodd"
         id="path8" />
    </clipPath>
    <clipPath
       clipPathUnits="userSpaceOnUse"
       id="clipPath10">
      <path
         d="M 0,0.16 V 1122.5601 H 793.59998 V 0.16 Z"
         transform="translate(-330.72,-372.48001)"
         clip-rule="evenodd"
         id="path10" />
    </clipPath>
    <clipPath
       clipPathUnits="userSpaceOnUse"
       id="clipPath12">
      <path
         d="M 0,0.16 V 1122.5601 H 793.59998 V 0.16 Z"
         transform="translate(-236.32001,-466.88)"
         clip-rule="evenodd"
         id="path12" />
    </clipPath>
    <clipPath
       clipPathUnits="userSpaceOnUse"
       id="clipPath14">
      <path
         d="M 0,0.16 V 1122.5601 H 793.59998 V 0.16 Z"
         transform="translate(-613.91998,-655.67999)"
         clip-rule="evenodd"
         id="path14" />
    </clipPath>
    <clipPath
       clipPathUnits="userSpaceOnUse"
       id="clipPath16">
      <path
         d="M 0,0.16 V 1122.5601 H 793.59998 V 0.16 Z"
         transform="translate(-519.52002,-750.08002)"
         clip-rule="evenodd"
         id="path16" />
    </clipPath>
    <clipPath
       clipPathUnits="userSpaceOnUse"
       id="clipPath18">
      <path
         d="M 0,0.16 V 1122.5601 H 793.59998 V 0.16 Z"
         clip-rule="evenodd"
         id="path18" />
    </clipPath>
    <clipPath
       clipPathUnits="userSpaceOnUse"
       id="clipPath20">
      <path
         d="M 0,0.16 V 1122.5601 H 793.59998 V 0.16 Z"
         clip-rule="evenodd"
         id="path20" />
    </clipPath>
    <clipPath
       clipPathUnits="userSpaceOnUse"
       id="clipPath22">
      <path
         d="M 0,0.16 V 1122.5601 H 793.59998 V 0.16 Z"
         clip-rule="evenodd"
         id="path22" />
    </clipPath>
    <clipPath
       clipPathUnits="userSpaceOnUse"
       id="clipPath24">
      <path
         d="M 0,0.16 V 1122.5601 H 793.59998 V 0.16 Z"
         clip-rule="evenodd"
         id="path24" />
    </clipPath>
  </defs>
  <sodipodi:namedview
     id="namedview1"
     pagecolor="#505050"
     bordercolor="#eeeeee"
     borderopacity="1"
     inkscape:showpageshadow="0"
     inkscape:pageopacity="0"
     inkscape:pagecheckerboard="0"
     inkscape:deskcolor="#505050">
    <inkscape:page
       x="0"
       y="0"
       inkscape:label="1"
       id="page1"
       width="456.23999"
       height="457.84"
       margin="0"
       bleed="0" />
  </sodipodi:namedview>
  <g
     id="g1"
     inkscape:groupmode="layer"
     inkscape:label="1">
    <path
       id="path1"
       d="m 0,0 -0.16,-2.88 -0.48,-3.04 -0.64,-2.72 -1.12,-2.88 -1.28,-2.56 -1.6,-2.559999 -1.92,-2.24 -2.08,-2.08 -2.4,-1.92 -2.4,-1.600001 -2.719999,-1.28 L -19.52,-26.879999 -22.4,-27.68 l -2.880001,-0.48 -3.039999,-0.16 -2.880001,0.16 -2.880001,0.48 -2.879997,0.800001 L -39.84,-25.76 l -2.560002,1.28 -2.559997,1.600001 -2.240002,1.92 -2.079998,2.08 -1.920002,2.24 -1.599998,2.559999 -1.280003,2.56 -1.119999,2.88 L -56,-5.92 -56.48,-2.88 -56.639999,0 -56.48,3.04 -56,5.92 l 0.799999,2.88 1.119999,2.72 1.280003,2.72 1.599998,2.399999 1.920002,2.400002 2.079998,2.08 2.240002,1.759998 2.559997,1.600001 2.560002,1.44 2.880001,1.120001 2.879997,0.639999 2.880001,0.48 2.880001,0.16 3.039999,-0.16 L -22.4,27.68 -19.52,27.040001 -16.799999,25.92 -14.08,24.48 l 2.4,-1.600001 2.4,-1.759998 2.08,-2.08 1.92,-2.400002 L -3.68,14.24 -2.4,11.52 -1.28,8.8 -0.64,5.92 -0.16,3.04 0,0 v 0 z"
       style="fill:#000000;fill-opacity:1;fill-rule:evenodd;stroke:none"
       transform="translate(159.96,38.786619)"
       clip-path="url(#clipPath2)" />
    <path
       id="path3"
       d="m 0,0 -0.16,-2.88 -0.32,-3.04 -0.8,-2.88 -1.12,-2.72 -1.28,-2.56 -1.6,-2.559999 -1.92,-2.24 -2.08,-2.08 -2.4,-1.92 -2.4,-1.600001 -2.719999,-1.44 L -19.52,-26.879999 -22.4,-27.68 l -2.880001,-0.48 -3.039999,-0.16 -2.880001,0.16 -2.880001,0.48 -2.879997,0.800001 L -39.84,-25.92 l -2.560002,1.44 -2.559997,1.600001 -2.240002,1.92 -2.079998,2.08 -1.920002,2.24 -1.599998,2.559999 -1.280003,2.56 -1.119999,2.72 L -56,-5.92 -56.48,-2.88 -56.639999,0 -56.48,3.04 -56,5.92 l 0.799999,2.88 1.119999,2.72 1.280003,2.72 1.599998,2.399999 1.920002,2.400002 2.079998,2.08 2.240002,1.759998 2.559997,1.600001 2.560002,1.44 2.880001,0.959999 2.879997,0.800001 2.880001,0.48 2.880001,0.16 3.039999,-0.16 L -22.4,27.68 -19.52,26.879999 -16.799999,25.92 -14.08,24.48 l 2.4,-1.600001 2.4,-1.759998 2.08,-2.08 1.92,-2.400002 L -3.68,14.24 -2.4,11.52 -1.28,8.8 -0.48,5.92 -0.16,3.04 0,0 v 0 z"
       style="fill:#000000;fill-opacity:1;fill-rule:evenodd;stroke:none"
       transform="translate(65.560007,133.18661)"
       clip-path="url(#clipPath4)" />
    <path
       id="path5"
       d="m 0,0 -0.16,-2.88 -0.48,-3.04 -0.64,-2.88 -1.12,-2.72 -1.28,-2.56 -1.76,-2.559999 -1.76,-2.24 -2.08,-2.08 -2.4,-1.92 -2.4,-1.600001 -2.719999,-1.44 L -19.52,-26.879999 -22.4,-27.68 l -2.880001,-0.48 -3.039999,-0.16 -2.880001,0.16 -3.040001,0.48 -2.719997,0.800001 L -39.84,-25.92 l -2.560002,1.44 -2.559997,1.600001 -2.240002,1.92 -2.079998,2.08 -1.920002,2.24 -1.599998,2.559999 -1.280003,2.56 -1.119999,2.72 L -56,-5.92 -56.48,-2.88 -56.639999,0 -56.48,3.04 -56,5.92 l 0.799999,2.88 1.119999,2.72 1.280003,2.72 1.599998,2.399999 1.920002,2.400002 2.079998,2.08 2.240002,1.759998 2.559997,1.600001 2.560002,1.44 2.880001,0.959999 2.719997,0.800001 3.040001,0.48 2.880001,0.16 3.039999,-0.16 L -22.4,27.68 -19.52,26.879999 -16.799999,25.92 -14.08,24.48 l 2.4,-1.600001 2.4,-1.759998 2.08,-2.08 1.76,-2.400002 L -3.68,14.24 -2.4,11.52 -1.28,8.8 -0.64,5.92 -0.16,3.04 0,0 v 0 z"
       style="fill:#000000;fill-opacity:1;fill-rule:evenodd;stroke:none"
       transform="translate(443.15998,321.9866)"
       clip-path="url(#clipPath6)" />
    <path
       id="path7"
       d="m 0,0 -0.16,-2.88 -0.48,-3.04 -0.64,-2.88 -1.12,-2.72 -1.28,-2.56 -1.76,-2.559999 -1.76,-2.24 -2.08,-2.08 -2.4,-1.92 -2.4,-1.600001 -2.719999,-1.44 L -19.52,-26.879999 -22.4,-27.68 l -2.880001,-0.48 -3.039999,-0.16 -2.880001,0.16 -3.040001,0.48 -2.719997,0.800001 L -39.84,-25.92 l -2.560002,1.44 -2.559997,1.600001 -2.240002,1.92 -2.079998,2.08 -1.920002,2.24 -1.599998,2.559999 -1.280003,2.56 -1.119999,2.72 L -56,-5.92 -56.48,-2.88 -56.639999,0 -56.48,3.04 -56,5.92 l 0.799999,2.88 1.119999,2.72 1.280003,2.72 1.599998,2.399999 1.920002,2.24 2.079998,2.240002 2.240002,1.759998 2.559997,1.600001 2.560002,1.44 2.880001,0.959999 2.719997,0.800001 3.040001,0.48 2.880001,0.16 3.039999,-0.16 L -22.4,27.68 -19.52,26.879999 -16.799999,25.92 -14.08,24.48 l 2.4,-1.600001 2.4,-1.759998 2.08,-2.240002 1.76,-2.24 L -3.68,14.24 -2.4,11.52 -1.28,8.8 -0.64,5.92 -0.16,3.04 0,0 v 0 z"
       style="fill:#000000;fill-opacity:1;fill-rule:evenodd;stroke:none"
       transform="translate(348.76002,416.38663)"
       clip-path="url(#clipPath8)" />
    <path
       id="path9"
       d="m 0,0 -0.16,-2.88 -0.48,-3.04 -0.64,-2.72 -1.12,-2.88 -1.28,-2.56 -1.6,-2.559999 -1.92,-2.24 -2.08,-2.08 -2.4,-1.92 -2.4,-1.600001 -2.719999,-1.28 L -19.52,-26.879999 -22.4,-27.68 l -2.880001,-0.48 -3.039999,-0.16 -2.880001,0.16 -2.880001,0.48 -2.879997,0.800001 L -39.84,-25.76 l -2.560002,1.28 -2.559997,1.600001 -2.240002,1.92 -2.079998,2.08 -1.920002,2.24 -1.599998,2.559999 -1.280003,2.56 -1.119999,2.88 L -56,-5.92 -56.48,-2.88 -56.639999,0 -56.48,3.04 -56,5.92 l 0.799999,2.88 1.119999,2.72 1.280003,2.72 1.599998,2.399999 1.920002,2.400002 2.079998,2.08 2.240002,1.759998 2.559997,1.600001 2.560002,1.44 2.880001,1.120001 2.879997,0.639999 2.880001,0.48 2.880001,0.16 3.039999,-0.16 L -22.4,27.68 -19.52,27.040001 -16.799999,25.92 -14.08,24.48 l 2.4,-1.600001 2.4,-1.759998 2.08,-2.08 1.92,-2.400002 L -3.68,14.24 -2.4,11.52 -1.28,8.8 -0.64,5.92 -0.16,3.04 0,0"
       style="fill:none;stroke:#000000;stroke-width:0.64;stroke-linecap:round;stroke-linejoin:round;stroke-miterlimit:10;stroke-dasharray:none;stroke-opacity:1"
       transform="translate(159.96,38.786619)"
       clip-path="url(#clipPath10)" />
    <path
       id="path11"
       d="m 0,0 -0.16,-2.88 -0.32,-3.04 -0.8,-2.88 -1.12,-2.72 -1.28,-2.56 -1.6,-2.559999 -1.92,-2.24 -2.08,-2.08 -2.4,-1.92 -2.4,-1.600001 -2.719999,-1.44 L -19.52,-26.879999 -22.4,-27.68 l -2.880001,-0.48 -3.039999,-0.16 -2.880001,0.16 -2.880001,0.48 -2.879997,0.800001 L -39.84,-25.92 l -2.560002,1.44 -2.559997,1.600001 -2.240002,1.92 -2.079998,2.08 -1.920002,2.24 -1.599998,2.559999 -1.280003,2.56 -1.119999,2.72 L -56,-5.92 -56.48,-2.88 -56.639999,0 -56.48,3.04 -56,5.92 l 0.799999,2.88 1.119999,2.72 1.280003,2.72 1.599998,2.399999 1.920002,2.400002 2.079998,2.08 2.240002,1.759998 2.559997,1.600001 2.560002,1.44 2.880001,0.959999 2.879997,0.800001 2.880001,0.48 2.880001,0.16 3.039999,-0.16 L -22.4,27.68 -19.52,26.879999 -16.799999,25.92 -14.08,24.48 l 2.4,-1.600001 2.4,-1.759998 2.08,-2.08 1.92,-2.400002 L -3.68,14.24 -2.4,11.52 -1.28,8.8 -0.48,5.92 -0.16,3.04 0,0"
       style="fill:none;stroke:#000000;stroke-width:0.64;stroke-linecap:round;stroke-linejoin:round;stroke-miterlimit:10;stroke-dasharray:none;stroke-opacity:1"
       transform="translate(65.560007,133.18661)"
       clip-path="url(#clipPath12)" />
    <path
       id="path13"
       d="m 0,0 -0.16,-2.88 -0.48,-3.04 -0.64,-2.88 -1.12,-2.72 -1.28,-2.56 -1.76,-2.559999 -1.76,-2.24 -2.08,-2.08 -2.4,-1.92 -2.4,-1.600001 -2.719999,-1.44 L -19.52,-26.879999 -22.4,-27.68 l -2.880001,-0.48 -3.039999,-0.16 -2.880001,0.16 -3.040001,0.48 -2.719997,0.800001 L -39.84,-25.92 l -2.560002,1.44 -2.559997,1.600001 -2.240002,1.92 -2.079998,2.08 -1.920002,2.24 -1.599998,2.559999 -1.280003,2.56 -1.119999,2.72 L -56,-5.92 -56.48,-2.88 -56.639999,0 -56.48,3.04 -56,5.92 l 0.799999,2.88 1.119999,2.72 1.280003,2.72 1.599998,2.399999 1.920002,2.400002 2.079998,2.08 2.240002,1.759998 2.559997,1.600001 2.560002,1.44 2.880001,0.959999 2.719997,0.800001 3.040001,0.48 2.880001,0.16 3.039999,-0.16 L -22.4,27.68 -19.52,26.879999 -16.799999,25.92 -14.08,24.48 l 2.4,-1.600001 2.4,-1.759998 2.08,-2.08 1.76,-2.400002 L -3.68,14.24 -2.4,11.52 -1.28,8.8 -0.64,5.92 -0.16,3.04 0,0"
       style="fill:none;stroke:#000000;stroke-width:0.64;stroke-linecap:round;stroke-linejoin:round;stroke-miterlimit:10;stroke-dasharray:none;stroke-opacity:1"
       transform="translate(443.15998,321.9866)"
       clip-path="url(#clipPath14)" />
    <path
       id="path15"
       d="m 0,0 -0.16,-2.88 -0.48,-3.04 -0.64,-2.88 -1.12,-2.72 -1.28,-2.56 -1.76,-2.559999 -1.76,-2.24 -2.08,-2.08 -2.4,-1.92 -2.4,-1.600001 -2.719999,-1.44 L -19.52,-26.879999 -22.4,-27.68 l -2.880001,-0.48 -3.039999,-0.16 -2.880001,0.16 -3.040001,0.48 -2.719997,0.800001 L -39.84,-25.92 l -2.560002,1.44 -2.559997,1.600001 -2.240002,1.92 -2.079998,2.08 -1.920002,2.24 -1.599998,2.559999 -1.280003,2.56 -1.119999,2.72 L -56,-5.92 -56.48,-2.88 -56.639999,0 -56.48,3.04 -56,5.92 l 0.799999,2.88 1.119999,2.72 1.280003,2.72 1.599998,2.399999 1.920002,2.24 2.079998,2.240002 2.240002,1.759998 2.559997,1.600001 2.560002,1.44 2.880001,0.959999 2.719997,0.800001 3.040001,0.48 2.880001,0.16 3.039999,-0.16 L -22.4,27.68 -19.52,26.879999 -16.799999,25.92 -14.08,24.48 l 2.4,-1.600001 2.4,-1.759998 2.08,-2.240002 1.76,-2.24 L -3.68,14.24 -2.4,11.52 -1.28,8.8 -0.64,5.92 -0.16,3.04 0,0"
       style="fill:none;stroke:#000000;stroke-width:0.64;stroke-linecap:round;stroke-linejoin:round;stroke-miterlimit:10;stroke-dasharray:none;stroke-opacity:1"
       transform="translate(348.76002,416.38663)"
       clip-path="url(#clipPath16)" />
    <path
       id="path17"
       d="M 208,466.88 H 491.20001"
       style="fill:none;stroke:#000000;stroke-width:26.4;stroke-linecap:round;stroke-linejoin:round;stroke-miterlimit:10;stroke-dasharray:none;stroke-opacity:1"
       transform="translate(-170.76,-333.69339)"
       clip-path="url(#clipPath18)" />
    <path
       id="path19"
       d="M 302.39999,372.48001 V 655.67999"
       style="fill:none;stroke:#000000;stroke-width:26.4;stroke-linecap:round;stroke-linejoin:round;stroke-miterlimit:10;stroke-dasharray:none;stroke-opacity:1"
       transform="translate(-170.76,-333.69339)"
       clip-path="url(#clipPath20)" />
    <path
       id="path21"
       d="M 491.20001,466.88 V 750.08002"
       style="fill:none;stroke:#000000;stroke-width:26.4;stroke-linecap:round;stroke-linejoin:round;stroke-miterlimit:10;stroke-dasharray:none;stroke-opacity:1"
       transform="translate(-170.76,-333.69339)"
       clip-path="url(#clipPath22)" />
    <path
       id="path23"
       d="M 302.39999,655.67999 H 585.59998"
       style="fill:none;stroke:#000000;stroke-width:26.4;stroke-linecap:round;stroke-linejoin:round;stroke-miterlimit:10;stroke-dasharray:none;stroke-opacity:1"
       transform="translate(-170.76,-333.69339)"
       clip-path="url(#clipPath24)" />
  </g>
</svg>
