<?xml version="1.0" encoding="UTF-8" standalone="no"?>
<!-- Created with Inkscape (http://www.inkscape.org/) -->

<svg
   version="1.1"
   id="svg1"
   width="488.26666"
   height="451.16"
   viewBox="0 0 488.26666 451.16"
   sodipodi:docname="Lead35.pdf"
   xmlns:inkscape="http://www.inkscape.org/namespaces/inkscape"
   xmlns:sodipodi="http://sodipodi.sourceforge.net/DTD/sodipodi-0.dtd"
   xmlns="http://www.w3.org/2000/svg"
   xmlns:svg="http://www.w3.org/2000/svg">
  <defs
     id="defs1">
    <clipPath
       clipPathUnits="userSpaceOnUse"
       id="clipPath2">
      <path
         d="M 0,0.16 V 1122.5601 H 793.59998 V 0.16 Z"
         transform="translate(-474.88,-426.72)"
         clip-rule="evenodd"
         id="path2" />
    </clipPath>
    <clipPath
       clipPathUnits="userSpaceOnUse"
       id="clipPath4">
      <path
         d="M 0,0.16 V 1122.5601 H 793.59998 V 0.16 Z"
         transform="translate(-635.03998,-586.88001)"
         clip-rule="evenodd"
         id="path4" />
    </clipPath>
    <clipPath
       clipPathUnits="userSpaceOnUse"
       id="clipPath6">
      <path
         d="M 0,0.16 V 1122.5601 H 793.59998 V 0.16 Z"
         clip-rule="evenodd"
         id="path6" />
    </clipPath>
    <clipPath
       clipPathUnits="userSpaceOnUse"
       id="clipPath8">
      <path
         d="M 0,0.16 V 1122.5601 H 793.59998 V 0.16 Z"
         transform="translate(-554.88,-586.88001)"
         clip-rule="evenodd"
         id="path8" />
    </clipPath>
    <clipPath
       clipPathUnits="userSpaceOnUse"
       id="clipPath10">
      <path
         d="M 0,0.16 V 1122.5601 H 793.59998 V 0.16 Z"
         transform="translate(-589.44,-572.96002)"
         clip-rule="evenodd"
         id="path10" />
    </clipPath>
  </defs>
  <sodipodi:namedview
     id="namedview1"
     pagecolor="#505050"
     bordercolor="#eeeeee"
     borderopacity="1"
     inkscape:showpageshadow="0"
     inkscape:pageopacity="0"
     inkscape:pagecheckerboard="0"
     inkscape:deskcolor="#505050">
    <inkscape:page
       x="0"
       y="0"
       inkscape:label="1"
       id="page1"
       width="488.26666"
       height="451.16"
       margin="0"
       bleed="0" />
  </sodipodi:namedview>
  <g
     id="g1"
     inkscape:groupmode="layer"
     inkscape:label="1">
    <path
       id="path1"
       d="m 0,0 3.68,-3.84 3.36,-4.32 3.04,-4.32 2.72,-4.640001 2.4,-4.799999 2.080001,-5.120001 1.76,-5.119999 L 20.32,-37.279999 21.280001,-42.560001 21.92,-48 22.08,-53.439999 21.92,-58.720001 21.280001,-64.160004 20.32,-69.440002 19.040001,-74.720001 17.280001,-79.68 15.2,-84.800003 l -2.4,-4.799995 -2.72,-4.64 -3.04,-4.32 L 3.68,-102.88 0,-106.72 l -4,-3.68 -4.16,-3.36 -4.48,-3.2 -4.640001,-2.72 -4.799999,-2.4 -4.960001,-2.08 -5.119999,-1.6 -5.279999,-1.44 -5.280002,-0.96 -5.279999,-0.48 -5.439999,-0.32001 -5.440002,0.32001 -5.280003,0.48 -5.279998,0.96 -5.279999,1.44 -5.119995,1.6 -4.960007,2.08 -4.799995,2.4 -4.64,2.72 -4.480003,3.2 -4.159999,3.36 -4,3.68"
       style="fill:none;stroke:#000000;stroke-width:26.4;stroke-linecap:round;stroke-linejoin:round;stroke-miterlimit:10;stroke-dasharray:none;stroke-opacity:1"
       transform="translate(474.88,564.19994)"
       clip-path="url(#clipPath2)" />
    <path
       id="path3"
       d="m 0,0 2.72,-6.72 2.24,-6.88 1.92,-7.039999 1.44,-7.040001 0.96,-7.200001 0.64,-7.360001 0.16,-7.199997 -0.32,-7.36 L 8.96,-64 l -1.12,-7.199997 -1.6,-7.040001 -1.92,-7.040001 -2.4,-6.880005 -2.88,-6.719993 -3.2,-6.400003 -3.52,-6.4 -4,-6.08 -4.32,-5.76 -4.639999,-5.59999 -4.960001,-5.28 -5.279999,-5.12001 -5.600001,-4.64 -5.920002,-4.32 -6.079998,-4 -6.240001,-3.52 -6.559998,-3.2 -6.720001,-2.88 -6.879997,-2.4 -7.040001,-1.91999 -7.040001,-1.60001 -7.200005,-1.11999 -7.199996,-0.80001 -7.36,-0.16 -7.2,0.16 -7.2,0.48 -7.20001,0.96 -7.19999,1.6 -7.04,1.76001 -6.88,2.23999 -6.72,2.72"
       style="fill:none;stroke:#000000;stroke-width:26.4;stroke-linecap:round;stroke-linejoin:round;stroke-miterlimit:10;stroke-dasharray:none;stroke-opacity:1"
       transform="translate(635.03998,724.35995)"
       clip-path="url(#clipPath4)" />
    <path
       id="path5"
       d="M 474.88,426.72 207.84,693.76001"
       style="fill:none;stroke:#000000;stroke-width:26.4;stroke-linecap:round;stroke-linejoin:round;stroke-miterlimit:10;stroke-dasharray:none;stroke-opacity:1"
       transform="translate(0,137.47994)"
       clip-path="url(#clipPath6)" />
    <path
       id="path7"
       d="m 0,0 1.44,3.68 1.76,3.52 2.08,3.36 2.4,3.04 2.56,2.88 2.88,2.720001 3.04,2.399999 3.36,1.92 3.520001,1.760001 3.679998,1.439998 L 30.4,27.84 l 3.840002,0.64 4,0.479999 h 3.84 L 45.919998,28.48 l 3.84,-0.64 3.84,-1.120001 3.520001,-1.439998 3.52,-1.760001 L 64,21.6 67.040001,19.200001 69.919998,16.48 72.639999,13.6 75.040001,10.56 76.959999,7.2 78.720001,3.68 80.160004,0"
       style="fill:none;stroke:#000000;stroke-width:26.4;stroke-linecap:round;stroke-linejoin:round;stroke-miterlimit:10;stroke-dasharray:none;stroke-opacity:1"
       transform="translate(554.88,724.35995)"
       clip-path="url(#clipPath8)" />
    <path
       id="path9"
       d="m 0,0 -1.28,-1.92 -1.44,-1.76 -1.6,-1.6 -1.76,-1.44 -1.92,-1.12 -2.24,-0.96 -2.08,-0.64 -2.24,-0.32 -2.239999,-0.16 -2.400002,0.16 -2.24,0.48 -2.079999,0.64 -2.08,0.96 -1.92,1.28 -1.760001,1.28 -1.599998,1.76 -1.440001,1.76 -1.119999,1.92 -0.960003,2.08 -0.639999,2.24 -0.32,2.24 -0.159999,2.24 0.159999,2.24 0.48,2.24 0.639999,2.24 0.960003,2.08"
       style="fill:none;stroke:#000000;stroke-width:26.4;stroke-linecap:round;stroke-linejoin:round;stroke-miterlimit:10;stroke-dasharray:none;stroke-opacity:1"
       transform="translate(589.44,710.43996)"
       clip-path="url(#clipPath10)" />
  </g>
</svg>
