<?xml version="1.0" encoding="UTF-8" standalone="no"?>
<!-- Created with Inkscape (http://www.inkscape.org/) -->

<svg
   version="1.1"
   id="svg1"
   width="553.62665"
   height="500.54666"
   viewBox="0 0 553.62665 500.54666"
   sodipodi:docname="Lead19.pdf"
   xmlns:inkscape="http://www.inkscape.org/namespaces/inkscape"
   xmlns:sodipodi="http://sodipodi.sourceforge.net/DTD/sodipodi-0.dtd"
   xmlns="http://www.w3.org/2000/svg"
   xmlns:svg="http://www.w3.org/2000/svg">
  <defs
     id="defs1">
    <clipPath
       clipPathUnits="userSpaceOnUse"
       id="clipPath2">
      <path
         d="M 0,0.16 V 1122.5601 H 793.59998 V 0.16 Z"
         transform="translate(-645.28003,-606.64002)"
         clip-rule="evenodd"
         id="path2" />
    </clipPath>
    <clipPath
       clipPathUnits="userSpaceOnUse"
       id="clipPath4">
      <path
         d="M 0,0.16 V 1122.5601 H 793.59998 V 0.16 Z"
         transform="translate(3.3333333e-6)"
         clip-rule="evenodd"
         id="path4" />
    </clipPath>
    <clipPath
       clipPathUnits="userSpaceOnUse"
       id="clipPath6">
      <path
         d="M 0,0.16 V 1122.5601 H 793.59998 V 0.16 Z"
         transform="translate(-554.71997,-787.84003)"
         clip-rule="evenodd"
         id="path6" />
    </clipPath>
  </defs>
  <sodipodi:namedview
     id="namedview1"
     pagecolor="#505050"
     bordercolor="#eeeeee"
     borderopacity="1"
     inkscape:showpageshadow="0"
     inkscape:pageopacity="0"
     inkscape:pagecheckerboard="0"
     inkscape:deskcolor="#505050">
    <inkscape:page
       x="0"
       y="0"
       inkscape:label="1"
       id="page1"
       width="553.62665"
       height="500.54666"
       margin="0"
       bleed="0" />
  </sodipodi:namedview>
  <g
     id="g1"
     inkscape:groupmode="layer"
     inkscape:label="1">
    <path
       id="path1"
       d="M 0,0 C 0,-37.509998 -30.4,-67.919998 -67.919998,-67.919998 -105.44,-67.919998 -135.84,-37.509998 -135.84,0 c 0,37.509998 30.4,67.919998 67.920002,67.919998 C -30.4,67.919998 0,37.509998 0,0 Z"
       style="fill:none;stroke:#000000;stroke-width:26.4;stroke-linecap:round;stroke-linejoin:round;stroke-miterlimit:10;stroke-dasharray:none;stroke-opacity:1"
       transform="translate(525.21336,296.97329)"
       clip-path="url(#clipPath2)" />
    <path
       id="path3"
       d="M 418.72,787.84003 V 334.72 L 146.88,606.56 h 362.56"
       style="fill:none;stroke:#000000;stroke-width:26.4;stroke-linecap:round;stroke-linejoin:round;stroke-miterlimit:10;stroke-dasharray:none;stroke-opacity:1"
       transform="translate(-120.06667,-309.66673)"
       clip-path="url(#clipPath4)" />
    <path
       id="path5"
       d="m 0,0 8,-4.8 7.68,-5.28 7.520001,-5.6 L 30.4,-21.76 37.119999,-28 43.68,-34.720001 l 6.079998,-7.039997 5.920002,-7.360001 5.279999,-7.68 5.120003,-7.84 4.479996,-8.160004 4.160003,-8.32 3.839997,-8.479995 3.200004,-8.800004 2.879997,-8.799998 2.400002,-9.12 1.919998,-9.12 1.440003,-9.28 L 91.519997,-144 92,-153.28 v -9.28 l -0.480003,-9.44 -0.959999,-9.28"
       style="fill:none;stroke:#000000;stroke-width:26.4;stroke-linecap:round;stroke-linejoin:round;stroke-miterlimit:10;stroke-dasharray:none;stroke-opacity:1"
       transform="translate(434.6533,478.1733)"
       clip-path="url(#clipPath6)" />
  </g>
</svg>
