<?xml version="1.0" encoding="UTF-8" standalone="no"?>
<!-- Created with Inkscape (http://www.inkscape.org/) -->

<svg
   version="1.1"
   id="svg1"
   width="477.60001"
   height="492.53333"
   viewBox="0 0 477.60001 492.53333"
   sodipodi:docname="LeadFilings2.pdf"
   xmlns:inkscape="http://www.inkscape.org/namespaces/inkscape"
   xmlns:sodipodi="http://sodipodi.sourceforge.net/DTD/sodipodi-0.dtd"
   xmlns="http://www.w3.org/2000/svg"
   xmlns:svg="http://www.w3.org/2000/svg">
  <defs
     id="defs1">
    <clipPath
       clipPathUnits="userSpaceOnUse"
       id="clipPath2">
      <path
         d="M 0,0.16 V 1122.5601 H 793.59998 V 0.16 Z"
         clip-rule="evenodd"
         id="path2" />
    </clipPath>
    <clipPath
       clipPathUnits="userSpaceOnUse"
       id="clipPath4">
      <path
         d="M 0,0.16 V 1122.5601 H 793.59998 V 0.16 Z"
         transform="translate(-495.04001,-656.15997)"
         clip-rule="evenodd"
         id="path4" />
    </clipPath>
    <clipPath
       clipPathUnits="userSpaceOnUse"
       id="clipPath6">
      <path
         d="M 0,0.16 V 1122.5601 H 793.59998 V 0.16 Z"
         clip-rule="evenodd"
         id="path6" />
    </clipPath>
    <clipPath
       clipPathUnits="userSpaceOnUse"
       id="clipPath8">
      <path
         d="M 0,0.16 V 1122.5601 H 793.59998 V 0.16 Z"
         clip-rule="evenodd"
         id="path8" />
    </clipPath>
    <clipPath
       clipPathUnits="userSpaceOnUse"
       id="clipPath10">
      <path
         d="M 0,0.16 V 1122.5601 H 793.59998 V 0.16 Z"
         clip-rule="evenodd"
         id="path10" />
    </clipPath>
    <clipPath
       clipPathUnits="userSpaceOnUse"
       id="clipPath12">
      <path
         d="M 0,0.16 V 1122.5601 H 793.59998 V 0.16 Z"
         clip-rule="evenodd"
         id="path12" />
    </clipPath>
  </defs>
  <sodipodi:namedview
     id="namedview1"
     pagecolor="#505050"
     bordercolor="#eeeeee"
     borderopacity="1"
     inkscape:showpageshadow="0"
     inkscape:pageopacity="0"
     inkscape:pagecheckerboard="0"
     inkscape:deskcolor="#505050">
    <inkscape:page
       x="0"
       y="0"
       inkscape:label="1"
       id="page1"
       width="477.60001"
       height="492.53333"
       margin="0"
       bleed="0" />
  </sodipodi:namedview>
  <g
     id="g1"
     inkscape:groupmode="layer"
     inkscape:label="1">
    <path
       id="path1"
       d="M 293.60001,334.72 V 787.84003"
       style="fill:none;stroke:#000000;stroke-width:26.4;stroke-linecap:round;stroke-linejoin:round;stroke-miterlimit:10;stroke-dasharray:none;stroke-opacity:1"
       transform="translate(-156.08,-313.68006)"
       clip-path="url(#clipPath2)" />
    <path
       id="path3"
       d="m 0,0 8,-4 7.84,-4.32 7.520001,-4.48 7.519998,-4.640001 L 38.080002,-22.4 45.119999,-27.360001 52,-32.639999 l 6.560001,-5.279999 6.240002,-5.600002 6.079994,-5.599999 5.600006,-5.600002 5.439995,-5.919998 4.959999,-5.760003 4.64,-5.919998 4.319999,-6.080002 L 99.68,-84.32 l 3.52,-5.919998 3.2,-6.080002 2.72,-5.92 2.4,-5.92 1.76,-5.76 1.6,-5.76 0.96,-5.76 0.64,-5.44 0.16,-5.44001 -0.32,-5.43998 -0.64,-5.12001 -1.12,-4.96 -1.44,-4.8 -2.08,-4.64 -2.4,-4.47999 -2.72,-4.16001 -3.2,-4 -3.679999,-3.68001 -4,-3.51998 -4.32,-3.20002 -4.639999,-2.87999 -5.120003,-2.72 -5.440002,-2.40001 -5.759995,-2.07998 -5.920002,-1.92002 -6.400001,-1.43998 -6.559998,-1.28 L 44,-199.84 36.959999,-200.48 29.6,-200.8 h -7.52 l -7.68,0.47999 -7.84,0.64002 -8,0.95999 -8,1.28 -8.16,1.44 -8.32,1.92 -8.160002,2.24 -8.32,2.4 -8.319999,2.72 -8.32,3.04001 -8.159996,3.19999 -8.160004,3.51999 -8.159996,3.84002 -8,4 -7.840004,4.31999 -7.679999,4.32 -7.36,4.80001 -7.36,4.79999 -7.04,4.96 -6.87999,5.28 -6.56001,5.28 -6.4,5.44 -6.08,5.6 -5.60001,5.76 -5.43998,5.76 -5.12001,5.76 -4.64,5.92 -4.48,6.079999 -4,5.919998 -3.52,5.920006 -3.2,6.079994 -2.88001,5.920006 -2.39999,5.919998 -1.92,5.759999 -1.6,5.760002 L -200.64,-48"
       style="fill:none;stroke:#000000;stroke-width:26.4;stroke-linecap:round;stroke-linejoin:round;stroke-miterlimit:10;stroke-dasharray:none;stroke-opacity:1"
       transform="translate(338.96001,342.47991)"
       clip-path="url(#clipPath4)" />
    <path
       id="path5"
       d="M 182.08,628.96002 H 408.48001"
       style="fill:none;stroke:#000000;stroke-width:26.4;stroke-linecap:round;stroke-linejoin:round;stroke-miterlimit:10;stroke-dasharray:none;stroke-opacity:1"
       transform="translate(-156.08,-313.68006)"
       clip-path="url(#clipPath6)" />
    <path
       id="path7"
       d="M 219.84,704.47998 H 370.72"
       style="fill:none;stroke:#000000;stroke-width:26.4;stroke-linecap:round;stroke-linejoin:round;stroke-miterlimit:10;stroke-dasharray:none;stroke-opacity:1"
       transform="translate(-156.08,-313.68006)"
       clip-path="url(#clipPath8)" />
    <path
       id="path9"
       d="M 219.84,477.92001 H 370.72"
       style="fill:none;stroke:#000000;stroke-width:26.4;stroke-linecap:round;stroke-linejoin:round;stroke-miterlimit:10;stroke-dasharray:none;stroke-opacity:1"
       transform="translate(-156.08,-313.68006)"
       clip-path="url(#clipPath10)" />
    <path
       id="path11"
       d="M 182.08,402.39999 H 408.48001"
       style="fill:none;stroke:#000000;stroke-width:26.4;stroke-linecap:round;stroke-linejoin:round;stroke-miterlimit:10;stroke-dasharray:none;stroke-opacity:1"
       transform="translate(-156.08,-313.68006)"
       clip-path="url(#clipPath12)" />
  </g>
</svg>
