<?xml version="1.0" encoding="UTF-8" standalone="no"?>
<!-- Created with Inkscape (http://www.inkscape.org/) -->

<svg
   version="1.1"
   id="svg1"
   width="418.88"
   height="408.45334"
   viewBox="0 0 418.88 408.45334"
   sodipodi:docname="Lead8.pdf"
   xmlns:inkscape="http://www.inkscape.org/namespaces/inkscape"
   xmlns:sodipodi="http://sodipodi.sourceforge.net/DTD/sodipodi-0.dtd"
   xmlns="http://www.w3.org/2000/svg"
   xmlns:svg="http://www.w3.org/2000/svg">
  <defs
     id="defs1">
    <clipPath
       clipPathUnits="userSpaceOnUse"
       id="clipPath2">
      <path
         d="M 0,0.16 V 1122.5601 H 793.59998 V 0.16 Z"
         transform="translate(3.3333333e-6)"
         clip-rule="evenodd"
         id="path2" />
    </clipPath>
    <clipPath
       clipPathUnits="userSpaceOnUse"
       id="clipPath4">
      <path
         d="M 0,0.16 V 1122.5601 H 793.59998 V 0.16 Z"
         transform="translate(3.3333333e-6)"
         clip-rule="evenodd"
         id="path4" />
    </clipPath>
    <clipPath
       clipPathUnits="userSpaceOnUse"
       id="clipPath6">
      <path
         d="M 0,0.16 V 1122.5601 H 793.59998 V 0.16 Z"
         transform="translate(3.3333333e-6)"
         clip-rule="evenodd"
         id="path6" />
    </clipPath>
    <clipPath
       clipPathUnits="userSpaceOnUse"
       id="clipPath8">
      <path
         d="M 0,0.16 V 1122.5601 H 793.59998 V 0.16 Z"
         transform="translate(3.3333333e-6)"
         clip-rule="evenodd"
         id="path8" />
    </clipPath>
    <clipPath
       clipPathUnits="userSpaceOnUse"
       id="clipPath10">
      <path
         d="M 0,0.16 V 1122.5601 H 793.59998 V 0.16 Z"
         transform="translate(3.3333333e-6)"
         clip-rule="evenodd"
         id="path10" />
    </clipPath>
    <clipPath
       clipPathUnits="userSpaceOnUse"
       id="clipPath12">
      <path
         d="M 0,0.16 V 1122.5601 H 793.59998 V 0.16 Z"
         transform="translate(-204.64,-382.23999)"
         clip-rule="evenodd"
         id="path12" />
    </clipPath>
    <clipPath
       clipPathUnits="userSpaceOnUse"
       id="clipPath14">
      <path
         d="M 0,0.16 V 1122.5601 H 793.59998 V 0.16 Z"
         transform="translate(-494.72,-382.56)"
         clip-rule="evenodd"
         id="path14" />
    </clipPath>
  </defs>
  <sodipodi:namedview
     id="namedview1"
     pagecolor="#505050"
     bordercolor="#eeeeee"
     borderopacity="1"
     inkscape:showpageshadow="0"
     inkscape:pageopacity="0"
     inkscape:pagecheckerboard="0"
     inkscape:deskcolor="#505050">
    <inkscape:page
       x="0"
       y="0"
       inkscape:label="1"
       id="page1"
       width="418.88"
       height="408.45334"
       margin="0"
       bleed="0" />
  </sodipodi:namedview>
  <g
     id="g1"
     inkscape:groupmode="layer"
     inkscape:label="1">
    <path
       id="path1"
       d="M 299.04001,382.23999 H 487.84"
       style="fill:none;stroke:#000000;stroke-width:26.4;stroke-linecap:round;stroke-linejoin:round;stroke-miterlimit:10;stroke-dasharray:none;stroke-opacity:1"
       transform="translate(-188.10667,-356.38673)"
       clip-path="url(#clipPath2)" />
    <path
       id="path3"
       d="M 393.44,382.23999 V 620.96002"
       style="fill:none;stroke:#000000;stroke-width:26.4;stroke-linecap:round;stroke-linejoin:round;stroke-miterlimit:10;stroke-dasharray:none;stroke-opacity:1"
       transform="translate(-188.10667,-356.38673)"
       clip-path="url(#clipPath4)" />
    <path
       id="path5"
       d="M 393.44,620.96002 299.04001,740.32001"
       style="fill:none;stroke:#000000;stroke-width:26.4;stroke-linecap:round;stroke-linejoin:round;stroke-miterlimit:10;stroke-dasharray:none;stroke-opacity:1"
       transform="translate(-188.10667,-356.38673)"
       clip-path="url(#clipPath6)" />
    <path
       id="path7"
       d="m 393.44,620.96002 94.4,119.35999"
       style="fill:none;stroke:#000000;stroke-width:26.4;stroke-linecap:round;stroke-linejoin:round;stroke-miterlimit:10;stroke-dasharray:none;stroke-opacity:1"
       transform="translate(-188.10667,-356.38673)"
       clip-path="url(#clipPath8)" />
    <path
       id="path9"
       d="M 317.92001,501.60001 H 468.95999"
       style="fill:none;stroke:#000000;stroke-width:26.4;stroke-linecap:round;stroke-linejoin:round;stroke-miterlimit:10;stroke-dasharray:none;stroke-opacity:1"
       transform="translate(-188.10667,-356.38673)"
       clip-path="url(#clipPath10)" />
    <path
       id="path11"
       d="m 0,0 0.8,4.64 1.28,4.48 1.44,4.48 1.6,4.32 2.08,4 2.24,3.84 2.4,3.680001 2.72,3.359998 2.880001,3.040001 3.039999,2.880001 3.2,2.399998 3.360001,2.240002 3.519998,1.759998 3.520003,1.600002 3.679996,1.119999 3.680001,0.64 3.84,0.479999 h 3.68 l 3.84,-0.479999 3.680001,-0.64 3.68,-1.119999 3.68,-1.600002 3.520001,-1.759998 3.36,-2.240002 3.199997,-2.399998 3.040001,-2.880001 2.879997,-3.040001 2.560006,-3.359998 2.559997,-3.680001 2.239998,-3.84 1.920006,-4 L 90.879997,13.6 92.32,9.12 93.440002,4.64 94.400002,0"
       style="fill:none;stroke:#000000;stroke-width:26.4;stroke-linecap:round;stroke-linejoin:round;stroke-miterlimit:10;stroke-dasharray:none;stroke-opacity:1"
       transform="translate(16.533332,25.853265)"
       clip-path="url(#clipPath12)" />
    <path
       id="path13"
       d="m 0,0 0.96,4.64 1.12,4.48 1.44,4.32 1.76,4.32 1.92,4.16 2.24,3.84 2.4,3.520001 2.72,3.359998 2.880001,3.200001 3.039999,2.720001 3.2,2.559998 3.360001,2.080002 3.519998,1.919998 3.680003,1.440002 3.679996,1.119999 3.68,0.8 3.680001,0.319999 h 3.84 l 3.68,-0.319999 3.84,-0.8 3.680001,-1.119999 3.52,-1.440002 3.520001,-1.919998 3.36,-2.080002 3.199997,-2.559998 L 76.959999,35.84 79.839996,32.639999 82.559998,29.280001 84.959999,25.76 87.199997,21.92 89.120003,17.76 90.879997,13.44 92.32,9.12 93.599998,4.64 94.400002,0"
       style="fill:none;stroke:#000000;stroke-width:26.4;stroke-linecap:round;stroke-linejoin:round;stroke-miterlimit:10;stroke-dasharray:none;stroke-opacity:1"
       transform="translate(306.61333,26.173273)"
       clip-path="url(#clipPath14)" />
  </g>
</svg>
