<?xml version="1.0" encoding="UTF-8" standalone="no"?>
<!-- Created with Inkscape (http://www.inkscape.org/) -->

<svg
   version="1.1"
   id="svg1"
   width="382.88"
   height="798.21332"
   viewBox="0 0 382.88 798.21332"
   sodipodi:docname="Mercury.pdf"
   xmlns:inkscape="http://www.inkscape.org/namespaces/inkscape"
   xmlns:sodipodi="http://sodipodi.sourceforge.net/DTD/sodipodi-0.dtd"
   xmlns="http://www.w3.org/2000/svg"
   xmlns:svg="http://www.w3.org/2000/svg">
  <defs
     id="defs1">
    <clipPath
       clipPathUnits="userSpaceOnUse"
       id="clipPath2">
      <path
         d="M 0,0.16 V 1122.5601 H 793.59998 V 0.16 Z"
         transform="translate(-567.84003,-466.96)"
         clip-rule="evenodd"
         id="path2" />
    </clipPath>
    <clipPath
       clipPathUnits="userSpaceOnUse"
       id="clipPath4">
      <path
         d="M 0,0.16 V 1122.5601 H 793.59998 V 0.16 Z"
         clip-rule="evenodd"
         id="path4" />
    </clipPath>
    <clipPath
       clipPathUnits="userSpaceOnUse"
       id="clipPath6">
      <path
         d="M 0,0.16 V 1122.5601 H 793.59998 V 0.16 Z"
         clip-rule="evenodd"
         id="path6" />
    </clipPath>
    <clipPath
       clipPathUnits="userSpaceOnUse"
       id="clipPath8">
      <path
         d="M 0,0.16 V 1122.5601 H 793.59998 V 0.16 Z"
         transform="translate(-302.39999,-183.68)"
         clip-rule="evenodd"
         id="path8" />
    </clipPath>
  </defs>
  <sodipodi:namedview
     id="namedview1"
     pagecolor="#505050"
     bordercolor="#eeeeee"
     borderopacity="1"
     inkscape:showpageshadow="0"
     inkscape:pageopacity="0"
     inkscape:pagecheckerboard="0"
     inkscape:deskcolor="#505050">
    <inkscape:page
       x="0"
       y="0"
       inkscape:label="1"
       id="page1"
       width="382.88"
       height="798.21332"
       margin="0"
       bleed="0" />
  </sodipodi:namedview>
  <g
     id="g1"
     inkscape:groupmode="layer"
     inkscape:label="1">
    <path
       id="path1"
       d="m 0,0 c 0,-94.410004 -76.540001,-170.96001 -170.96001,-170.96001 -94.41999,0 -170.96,76.550006 -170.96,170.96001 0,94.410004 76.54001,170.96001 170.96,170.96001 C -76.540001,170.96001 0,94.410004 0,0 Z"
       style="fill:none;stroke:#000000;stroke-width:26.4;stroke-linecap:round;stroke-linejoin:round;stroke-miterlimit:10;stroke-dasharray:none;stroke-opacity:1"
       transform="translate(567.84003,468.29327)"
       clip-path="url(#clipPath2)" />
    <path
       id="path3"
       d="M 396.79999,655.67999 V 938.88"
       style="fill:none;stroke:#000000;stroke-width:26.4;stroke-linecap:round;stroke-linejoin:round;stroke-miterlimit:10;stroke-dasharray:none;stroke-opacity:1"
       transform="translate(0,1.3332747)"
       clip-path="url(#clipPath4)" />
    <path
       id="path5"
       d="M 278.23999,750.08002 H 515.52002"
       style="fill:none;stroke:#000000;stroke-width:26.4;stroke-linecap:round;stroke-linejoin:round;stroke-miterlimit:10;stroke-dasharray:none;stroke-opacity:1"
       transform="translate(0,1.3332747)"
       clip-path="url(#clipPath6)" />
    <path
       id="path7"
       d="m 0,0 0.32,6.24 0.48,6.08 1.12,6.08 1.28,6.08 1.92,5.92 2.08,5.76 2.56,5.599998 2.88,5.440003 L 16,52.48 l 3.52,4.959999 4,4.800003 4.16,4.479999 4.48,4.32 4.799999,3.839996 5.120003,3.680001 5.119999,3.200004 5.439998,2.879997 5.760003,2.559998 5.760002,2.240005 5.919998,1.759995 L 76,92.639999 l 6.080002,0.959999 6.239998,0.64 6.080002,0.160004 6.239998,-0.160004 6.08,-0.64 6.08,-0.959999 6.08,-1.440002 5.92,-1.759995 5.76,-2.240005 5.6,-2.559998 5.44001,-2.879997 5.27999,-3.200004 4.96,-3.680001 4.8,-3.839996 4.47999,-4.32 4.32001,-4.479999 3.84,-4.800003 L 172.96001,52.48 176.16,47.200001 179.03999,41.759998 181.60001,36.16 183.84,30.4 185.60001,24.48 187.03999,18.4 188,12.32 188.64,6.24 188.8,0"
       style="fill:none;stroke:#000000;stroke-width:26.4;stroke-linecap:round;stroke-linejoin:round;stroke-miterlimit:10;stroke-dasharray:none;stroke-opacity:1"
       transform="translate(302.39999,185.01327)"
       clip-path="url(#clipPath8)" />
  </g>
</svg>
