<?xml version="1.0" encoding="UTF-8" standalone="no"?>
<!-- Created with Inkscape (http://www.inkscape.org/) -->

<svg
   version="1.1"
   id="svg1"
   width="282.82666"
   height="293.65332"
   viewBox="0 0 282.82666 293.65332"
   sodipodi:docname="Mercury17.pdf"
   xmlns:inkscape="http://www.inkscape.org/namespaces/inkscape"
   xmlns:sodipodi="http://sodipodi.sourceforge.net/DTD/sodipodi-0.dtd"
   xmlns="http://www.w3.org/2000/svg"
   xmlns:svg="http://www.w3.org/2000/svg">
  <defs
     id="defs1">
    <clipPath
       clipPathUnits="userSpaceOnUse"
       id="clipPath2">
      <path
         d="M 0,0.16 V 1122.5601 H 793.59998 V 0.16 Z"
         transform="translate(3.3333334e-6)"
         clip-rule="evenodd"
         id="path2" />
    </clipPath>
    <clipPath
       clipPathUnits="userSpaceOnUse"
       id="clipPath4">
      <path
         d="M 0,0.16 V 1122.5601 H 793.59998 V 0.16 Z"
         transform="translate(-349.60001,-504.64002)"
         clip-rule="evenodd"
         id="path4" />
    </clipPath>
    <clipPath
       clipPathUnits="userSpaceOnUse"
       id="clipPath6">
      <path
         d="M 0,0.16 V 1122.5601 H 793.59998 V 0.16 Z"
         transform="translate(-462.88001,-504.64002)"
         clip-rule="evenodd"
         id="path6" />
    </clipPath>
    <clipPath
       clipPathUnits="userSpaceOnUse"
       id="clipPath8">
      <path
         d="M 0,0.16 V 1122.5601 H 793.59998 V 0.16 Z"
         transform="translate(-349.60001,-617.91999)"
         clip-rule="evenodd"
         id="path8" />
    </clipPath>
    <clipPath
       clipPathUnits="userSpaceOnUse"
       id="clipPath10">
      <path
         d="M 0,0.16 V 1122.5601 H 793.59998 V 0.16 Z"
         transform="translate(-462.88001,-617.91999)"
         clip-rule="evenodd"
         id="path10" />
    </clipPath>
    <clipPath
       clipPathUnits="userSpaceOnUse"
       id="clipPath12">
      <path
         d="M 0,0.16 V 1122.5601 H 793.59998 V 0.16 Z"
         transform="translate(-349.60001,-504.64002)"
         clip-rule="evenodd"
         id="path12" />
    </clipPath>
  </defs>
  <sodipodi:namedview
     id="namedview1"
     pagecolor="#505050"
     bordercolor="#eeeeee"
     borderopacity="1"
     inkscape:showpageshadow="0"
     inkscape:pageopacity="0"
     inkscape:pagecheckerboard="0"
     inkscape:deskcolor="#505050">
    <inkscape:page
       x="0"
       y="0"
       inkscape:label="1"
       id="page1"
       width="282.82666"
       height="293.65332"
       margin="0"
       bleed="0" />
  </sodipodi:namedview>
  <g
     id="g1"
     inkscape:groupmode="layer"
     inkscape:label="1">
    <path
       id="path1"
       d="m 283.51999,448 h 226.56 v 226.56 h -226.56 V 448"
       style="fill:none;stroke:#000000;stroke-width:26.4;stroke-linecap:round;stroke-linejoin:round;stroke-miterlimit:10;stroke-dasharray:none;stroke-opacity:1"
       transform="translate(-257.46667,-407.10673)"
       clip-path="url(#clipPath2)" />
    <path
       id="path3"
       d="m 0,0 v -1.28 l -0.32,-1.28 -0.48,-1.28 -0.64,-1.28 -0.8,-0.96 -0.96,-0.96 -1.12,-0.8 -1.12,-0.8 -1.28,-0.32 -1.28,-0.32 -1.44,-0.16 -1.28,0.16 -1.28,0.32 -1.28,0.32 -1.28,0.8 -0.96,0.8 -0.96,0.96 -0.800001,0.96 -0.639999,1.28 -0.48,1.28 -0.319999,1.28 -0.16,1.28 0.16,1.44 0.319999,1.28 0.48,1.28 0.639999,1.12 0.800001,1.12 0.96,0.96 0.96,0.8 1.28,0.64 1.28,0.48 1.28,0.32 H -9.44 -8 L -6.72,9.12 -5.44,8.64 -4.32,8 -3.2,7.2 -2.24,6.24 -1.44,5.12 -0.8,4 -0.32,2.72 0,1.44 V 0 0 Z"
       style="fill:#000000;fill-opacity:1;fill-rule:evenodd;stroke:none"
       transform="translate(92.133339,97.53329)"
       clip-path="url(#clipPath4)" />
    <path
       id="path5"
       d="m 0,0 v -1.28 l -0.32,-1.28 -0.48,-1.28 -0.64,-1.28 -0.8,-0.96 -0.96,-0.96 -1.12,-0.8 -1.12,-0.8 -1.28,-0.32 -1.28,-0.32 -1.44,-0.16 -1.28,0.16 -1.28,0.32 -1.28,0.32 -1.28,0.8 -0.96,0.8 -0.96,0.96 -0.800001,0.96 -0.639999,1.28 -0.48,1.28 -0.319999,1.28 -0.16,1.28 0.16,1.44 0.319999,1.28 0.48,1.28 0.639999,1.12 0.800001,1.12 0.96,0.96 0.96,0.8 1.28,0.64 1.28,0.48 1.28,0.32 H -9.44 -8 L -6.72,9.12 -5.44,8.64 -4.32,8 -3.2,7.2 -2.24,6.24 -1.44,5.12 -0.8,4 -0.32,2.72 0,1.44 V 0 0 Z"
       style="fill:#000000;fill-opacity:1;fill-rule:evenodd;stroke:none"
       transform="translate(205.41334,97.53329)"
       clip-path="url(#clipPath6)" />
    <path
       id="path7"
       d="M 0,0 V -1.28 L -0.32,-2.72 -0.8,-3.84 -1.44,-5.12 -2.24,-6.24 -3.2,-7.04 -4.32,-8 -5.44,-8.64 -6.72,-9.12 -8,-9.28 l -1.44,-0.16 -1.28,0.16 -1.28,0.16 -1.28,0.48 -1.28,0.64 -0.96,0.96 -0.96,0.8 -0.800001,1.12 -0.639999,1.28 -0.48,1.12 -0.319999,1.44 -0.16,1.28 0.16,1.28 0.319999,1.44 0.48,1.28 0.639999,1.12 0.800001,1.12 0.96,0.96 0.96,0.8 1.28,0.64 1.28,0.48 1.28,0.16 1.28,0.16 L -8,9.28 -6.72,9.12 -5.44,8.64 -4.32,8 -3.2,7.2 -2.24,6.24 -1.44,5.12 -0.8,4 -0.32,2.72 0,1.28 V 0 0 Z"
       style="fill:#000000;fill-opacity:1;fill-rule:evenodd;stroke:none"
       transform="translate(92.133339,210.81326)"
       clip-path="url(#clipPath8)" />
    <path
       id="path9"
       d="M 0,0 V -1.28 L -0.32,-2.72 -0.8,-3.84 -1.44,-5.12 -2.24,-6.24 -3.2,-7.04 -4.32,-8 -5.44,-8.64 -6.72,-9.12 -8,-9.28 l -1.44,-0.16 -1.28,0.16 -1.28,0.16 -1.28,0.48 -1.28,0.64 -0.96,0.96 -0.96,0.8 -0.800001,1.12 -0.639999,1.28 -0.48,1.12 -0.319999,1.44 -0.16,1.28 0.16,1.28 0.319999,1.44 0.48,1.28 0.639999,1.12 0.800001,1.12 0.96,0.96 0.96,0.8 1.28,0.64 1.28,0.48 1.28,0.16 1.28,0.16 L -8,9.28 -6.72,9.12 -5.44,8.64 -4.32,8 -3.2,7.2 -2.24,6.24 -1.44,5.12 -0.8,4 -0.32,2.72 0,1.28 V 0 0 Z"
       style="fill:#000000;fill-opacity:1;fill-rule:evenodd;stroke:none"
       transform="translate(205.41334,210.81326)"
       clip-path="url(#clipPath10)" />
    <path
       id="path11"
       d="m 0,0 v -1.28 l -0.32,-1.28 -0.48,-1.28 -0.64,-1.28 -0.8,-0.96 -0.96,-0.96 -1.12,-0.8 -1.12,-0.8 -1.28,-0.32 -1.28,-0.32 -1.44,-0.16 -1.28,0.16 -1.28,0.32 -1.28,0.32 -1.28,0.8 -0.96,0.8 -0.96,0.96 -0.800001,0.96 -0.639999,1.28 -0.48,1.28 -0.319999,1.28 -0.16,1.28 0.16,1.44 0.319999,1.28 0.48,1.28 0.639999,1.12 0.800001,1.12 0.96,0.96 0.96,0.8 1.28,0.64 1.28,0.48 1.28,0.32 H -9.44 -8 L -6.72,9.12 -5.44,8.64 -4.32,8 -3.2,7.2 -2.24,6.24 -1.44,5.12 -0.8,4 -0.32,2.72 0,1.44 V 0 m 113.28,0 v -1.28 l -0.32,-1.28 -0.48,-1.28 -0.64,-1.28 -0.8,-0.96 -0.96,-0.96 -1.12,-0.8 -1.12,-0.8 -1.28,-0.32 -1.28,-0.32 -1.44,-0.16 -1.28,0.16 -1.28,0.32 -1.28,0.32 -1.279999,0.8 -0.959999,0.8 -0.959999,0.96 L 96,-5.12 95.360001,-3.84 94.879997,-2.56 94.559998,-1.28 94.400002,0 94.559998,1.44 94.879997,2.72 95.360001,4 96,5.12 96.800003,6.24 97.760002,7.2 98.720001,8 100,8.64 l 1.28,0.48 1.28,0.32 h 1.28 1.44 l 1.28,-0.32 1.28,-0.48 1.12,-0.64 1.12,-0.8 0.96,-0.96 0.8,-1.12 0.64,-1.12 0.48,-1.28 0.32,-1.28 V 0 M 0,113.28 V 112 l -0.32,-1.44 -0.48,-1.12 -0.64,-1.28 -0.8,-1.12 -0.96,-0.8 -1.12,-0.96 -1.12,-0.64 -1.28,-0.48 L -8,104 l -1.44,-0.16 -1.28,0.16 -1.28,0.16 -1.28,0.48 -1.28,0.64 -0.96,0.96 -0.96,0.8 -0.800001,1.12 -0.639999,1.28 -0.48,1.12 -0.319999,1.44 -0.16,1.28 0.16,1.28 0.319999,1.44 0.48,1.28 0.639999,1.12 0.800001,1.12 0.96,0.96 0.96,0.8 1.28,0.64 1.28,0.48 1.28,0.16 1.28,0.16 1.44,-0.16 1.28,-0.16 1.28,-0.48 1.12,-0.64 1.12,-0.8 0.96,-0.96 0.8,-1.12 0.64,-1.12 L -0.32,116 0,114.56 v -1.28 m 113.28,0 V 112 l -0.32,-1.44 -0.48,-1.12 -0.64,-1.28 -0.8,-1.12 -0.96,-0.8 -1.12,-0.96 -1.12,-0.64 -1.28,-0.48 -1.28,-0.16 -1.44,-0.16 -1.28,0.16 -1.28,0.16 -1.28,0.48 -1.279999,0.64 -0.959999,0.96 -0.959999,0.8 L 96,108.16 l -0.639999,1.28 -0.480004,1.12 -0.319999,1.44 -0.159996,1.28 0.159996,1.28 0.319999,1.44 0.480004,1.28 L 96,118.4 l 0.800003,1.12 0.959999,0.96 0.959999,0.8 1.279999,0.64 1.28,0.48 1.28,0.16 1.28,0.16 1.44,-0.16 1.28,-0.16 1.28,-0.48 1.12,-0.64 1.12,-0.8 0.96,-0.96 0.8,-1.12 0.64,-1.12 0.48,-1.28 0.32,-1.44 v -1.28"
       style="fill:none;stroke:#000000;stroke-width:0.48;stroke-linecap:round;stroke-linejoin:round;stroke-miterlimit:10;stroke-dasharray:none;stroke-opacity:1"
       transform="translate(92.133339,97.53329)"
       clip-path="url(#clipPath12)" />
  </g>
</svg>
