<?xml version="1.0" encoding="UTF-8" standalone="no"?>
<!-- Created with Inkscape (http://www.inkscape.org/) -->

<svg
   version="1.1"
   id="svg1"
   width="498.93332"
   height="420.45334"
   viewBox="0 0 498.93332 420.45334"
   sodipodi:docname="Mercury21.pdf"
   xmlns:inkscape="http://www.inkscape.org/namespaces/inkscape"
   xmlns:sodipodi="http://sodipodi.sourceforge.net/DTD/sodipodi-0.dtd"
   xmlns="http://www.w3.org/2000/svg"
   xmlns:svg="http://www.w3.org/2000/svg">
  <defs
     id="defs1">
    <clipPath
       clipPathUnits="userSpaceOnUse"
       id="clipPath2">
      <path
         d="M 0,0.16 V 1122.5601 H 793.59998 V 0.16 Z"
         transform="translate(-278.88,-694.71998)"
         clip-rule="evenodd"
         id="path2" />
    </clipPath>
    <clipPath
       clipPathUnits="userSpaceOnUse"
       id="clipPath4">
      <path
         d="M 0,0.16 V 1122.5601 H 793.59998 V 0.16 Z"
         clip-rule="evenodd"
         id="path4" />
    </clipPath>
    <clipPath
       clipPathUnits="userSpaceOnUse"
       id="clipPath6">
      <path
         d="M 0,0.16 V 1122.5601 H 793.59998 V 0.16 Z"
         transform="translate(-605.91998,-465.60001)"
         clip-rule="evenodd"
         id="path6" />
    </clipPath>
  </defs>
  <sodipodi:namedview
     id="namedview1"
     pagecolor="#505050"
     bordercolor="#eeeeee"
     borderopacity="1"
     inkscape:showpageshadow="0"
     inkscape:pageopacity="0"
     inkscape:pagecheckerboard="0"
     inkscape:deskcolor="#505050">
    <inkscape:page
       x="0"
       y="0"
       inkscape:label="1"
       id="page1"
       width="498.93332"
       height="420.45334"
       margin="0"
       bleed="0" />
  </sodipodi:namedview>
  <g
     id="g1"
     inkscape:groupmode="layer"
     inkscape:label="1">
    <path
       id="path1"
       d="M 0,0 C 0,-29.51 -23.889999,-53.439999 -53.360001,-53.439999 -82.830002,-53.439999 -106.72,-29.51 -106.72,0 c 0,29.51 23.889998,53.439999 53.359999,53.439999 C -23.889999,53.439999 0,29.51 0,0 Z"
       style="fill:none;stroke:#000000;stroke-width:26.4;stroke-linecap:round;stroke-linejoin:round;stroke-miterlimit:10;stroke-dasharray:none;stroke-opacity:1"
       transform="translate(278.88,700.05325)"
       clip-path="url(#clipPath2)" />
    <path
       id="path3"
       d="m 263.35999,656.96002 264.32,-264.32001"
       style="fill:none;stroke:#000000;stroke-width:26.4;stroke-linecap:round;stroke-linejoin:round;stroke-miterlimit:10;stroke-dasharray:none;stroke-opacity:1"
       transform="translate(0,5.3332747)"
       clip-path="url(#clipPath4)" />
    <path
       id="path5"
       d="m 0,0 2.88,-3.2 2.72,-3.36 2.4,-3.68 2.08,-3.84 1.76,-4 1.44,-4.16 1.12,-4.319999 0.8,-4.16 0.32,-4.480002 V -39.52 l -0.32,-4.32 -0.64,-4.32 -0.96,-4.32 -1.44,-4.159999 -1.76,-4 -1.92,-3.840004 -2.4,-3.680001 -2.72,-3.519996 -2.88,-3.199997 -3.2,-3.040001 -3.36,-2.720001 -3.68,-2.559998 -3.84,-2.080002 -4,-1.760002 -4,-1.599998 -4.32,-1.120003 -4.32,-0.799996 -4.320001,-0.480003 h -4.32 l -4.32,0.160004 -4.479999,0.639999 -4.16,1.119995 -4.16,1.280007 -4.16,1.599998 -3.84,2.079994 -3.68,2.240006 -3.519997,2.559997 -3.360001,2.879998"
       style="fill:none;stroke:#000000;stroke-width:26.4;stroke-linecap:round;stroke-linejoin:round;stroke-miterlimit:10;stroke-dasharray:none;stroke-opacity:1"
       transform="translate(605.91998,470.93328)"
       clip-path="url(#clipPath6)" />
  </g>
</svg>
