<?xml version="1.0" encoding="UTF-8" standalone="no"?>
<!-- Created with Inkscape (http://www.inkscape.org/) -->

<svg
   version="1.1"
   id="svg1"
   width="345.51999"
   height="284.30667"
   viewBox="0 0 345.51999 284.30667"
   sodipodi:docname="Mercury8.pdf"
   xmlns:inkscape="http://www.inkscape.org/namespaces/inkscape"
   xmlns:sodipodi="http://sodipodi.sourceforge.net/DTD/sodipodi-0.dtd"
   xmlns="http://www.w3.org/2000/svg"
   xmlns:svg="http://www.w3.org/2000/svg">
  <defs
     id="defs1">
    <clipPath
       clipPathUnits="userSpaceOnUse"
       id="clipPath2">
      <path
         d="M 0,0.16 V 1122.5601 H 793.59998 V 0.16 Z"
         transform="translate(-396.79998,-561.28003)"
         clip-rule="evenodd"
         id="path2" />
    </clipPath>
    <clipPath
       clipPathUnits="userSpaceOnUse"
       id="clipPath4">
      <path
         d="M 0,0.16 V 1122.5601 H 793.59998 V 0.16 Z"
         transform="translate(-547.84002,-410.23999)"
         clip-rule="evenodd"
         id="path4" />
    </clipPath>
    <clipPath
       clipPathUnits="userSpaceOnUse"
       id="clipPath6">
      <path
         d="M 0,0.16 V 1122.5601 H 793.59998 V 0.16 Z"
         transform="translate(-3.3333333e-6)"
         clip-rule="evenodd"
         id="path6" />
    </clipPath>
    <clipPath
       clipPathUnits="userSpaceOnUse"
       id="clipPath8">
      <path
         d="M 0,0.16 V 1122.5601 H 793.59998 V 0.16 Z"
         transform="translate(-3.3333333e-6)"
         clip-rule="evenodd"
         id="path8" />
    </clipPath>
    <clipPath
       clipPathUnits="userSpaceOnUse"
       id="clipPath10">
      <path
         d="M 0,0.16 V 1122.5601 H 793.59998 V 0.16 Z"
         transform="translate(-3.3333333e-6)"
         clip-rule="evenodd"
         id="path10" />
    </clipPath>
    <clipPath
       clipPathUnits="userSpaceOnUse"
       id="clipPath12">
      <path
         d="M 0,0.16 V 1122.5601 H 793.59998 V 0.16 Z"
         transform="translate(-3.3333333e-6)"
         clip-rule="evenodd"
         id="path12" />
    </clipPath>
  </defs>
  <sodipodi:namedview
     id="namedview1"
     pagecolor="#505050"
     bordercolor="#eeeeee"
     borderopacity="1"
     inkscape:showpageshadow="0"
     inkscape:pageopacity="0"
     inkscape:pagecheckerboard="0"
     inkscape:deskcolor="#505050">
    <inkscape:page
       x="0"
       y="0"
       inkscape:label="1"
       id="page1"
       width="345.51999"
       height="284.30667"
       margin="0"
       bleed="0" />
  </sodipodi:namedview>
  <g
     id="g1"
     inkscape:groupmode="layer"
     inkscape:label="1">
    <path
       id="path1"
       d="m 0,0 -0.16,-8.16 -0.64,-8.16 -1.12,-8.16 -1.6,-8 -1.92,-7.84 -2.4,-7.84 -2.88,-7.68 -3.2,-7.520001 -3.68,-7.36 -4,-7.199997 -4.32,-6.880005 -4.799999,-6.559998 -5.120001,-6.400001 -5.439999,-6.079998 -5.760002,-5.76 -6.239998,-5.44 -6.240001,-5.12 -6.719998,-4.8 -6.880005,-4.48 -7.040001,-4 -7.359993,-3.67999 -7.520004,-3.20002 -7.679999,-2.71998 -7.84,-2.40001 -8,-2.08 -8,-1.44001 -8.16,-1.11999 -8.16,-0.64 -8.15999,-0.31999"
       style="fill:none;stroke:#000000;stroke-width:26.4;stroke-linecap:round;stroke-linejoin:round;stroke-miterlimit:10;stroke-dasharray:none;stroke-opacity:1"
       transform="translate(171.34665,243.59997)"
       clip-path="url(#clipPath2)" />
    <path
       id="path3"
       d="m 0,0 -8.16,0.32 -8.16,0.64 -8,1.12 -8.16,1.44 -7.84,2.08 -7.84,2.4 -7.68,2.72 -7.520001,3.2 -7.36,3.68 -7.040001,4 -6.879997,4.48 -6.720002,4.799999 L -97.760002,36 -103.84,41.439999 l -5.76,5.760002 -5.44,6.079998 -5.12,6.400001 -4.8,6.559998 -4.48,6.880005 -4,7.199997 -3.52001,7.36 -3.36,7.519997 -2.71998,7.680003 -2.40001,7.84 -2.08,7.84 -1.44001,8 -1.11999,8.16 -0.64,8.16 -0.31999,8.15999"
       style="fill:none;stroke:#000000;stroke-width:26.4;stroke-linecap:round;stroke-linejoin:round;stroke-miterlimit:10;stroke-dasharray:none;stroke-opacity:1"
       transform="translate(322.38669,92.559931)"
       clip-path="url(#clipPath4)" />
    <path
       id="path5"
       d="M 396.79999,334.72 V 561.28003"
       style="fill:none;stroke:#000000;stroke-width:26.4;stroke-linecap:round;stroke-linejoin:round;stroke-miterlimit:10;stroke-dasharray:none;stroke-opacity:1"
       transform="translate(-225.45333,-317.68006)"
       clip-path="url(#clipPath6)" />
    <path
       id="path7"
       d="M 245.75999,561.28003 H 547.84003"
       style="fill:none;stroke:#000000;stroke-width:26.4;stroke-linecap:round;stroke-linejoin:round;stroke-miterlimit:10;stroke-dasharray:none;stroke-opacity:1"
       transform="translate(-225.45333,-317.68006)"
       clip-path="url(#clipPath8)" />
    <path
       id="path9"
       d="m 245.75999,542.40002 v 37.75995"
       style="fill:none;stroke:#000000;stroke-width:26.4;stroke-linecap:round;stroke-linejoin:round;stroke-miterlimit:10;stroke-dasharray:none;stroke-opacity:1"
       transform="translate(-225.45333,-317.68006)"
       clip-path="url(#clipPath10)" />
    <path
       id="path11"
       d="m 547.84003,542.40002 v 37.75995"
       style="fill:none;stroke:#000000;stroke-width:26.4;stroke-linecap:round;stroke-linejoin:round;stroke-miterlimit:10;stroke-dasharray:none;stroke-opacity:1"
       transform="translate(-225.45333,-317.68006)"
       clip-path="url(#clipPath12)" />
  </g>
</svg>
