<?xml version="1.0" encoding="UTF-8" standalone="no"?>
<!-- Created with Inkscape (http://www.inkscape.org/) -->

<svg
   version="1.1"
   id="svg1"
   width="504.26666"
   height="353.72"
   viewBox="0 0 504.26666 353.72"
   sodipodi:docname="Mercury62.pdf"
   xmlns:inkscape="http://www.inkscape.org/namespaces/inkscape"
   xmlns:sodipodi="http://sodipodi.sourceforge.net/DTD/sodipodi-0.dtd"
   xmlns="http://www.w3.org/2000/svg"
   xmlns:svg="http://www.w3.org/2000/svg">
  <defs
     id="defs1">
    <clipPath
       clipPathUnits="userSpaceOnUse"
       id="clipPath2">
      <path
         d="M 0,0.16 V 1122.5601 H 793.59998 V 0.16 Z"
         clip-rule="evenodd"
         id="path2" />
    </clipPath>
    <clipPath
       clipPathUnits="userSpaceOnUse"
       id="clipPath4">
      <path
         d="M 0,0.16 V 1122.5601 H 793.59998 V 0.16 Z"
         clip-rule="evenodd"
         id="path4" />
    </clipPath>
    <clipPath
       clipPathUnits="userSpaceOnUse"
       id="clipPath6">
      <path
         d="M 0,0.16 V 1122.5601 H 793.59998 V 0.16 Z"
         transform="translate(-356.32001,-733.44)"
         clip-rule="evenodd"
         id="path6" />
    </clipPath>
  </defs>
  <sodipodi:namedview
     id="namedview1"
     pagecolor="#505050"
     bordercolor="#eeeeee"
     borderopacity="1"
     inkscape:showpageshadow="0"
     inkscape:pageopacity="0"
     inkscape:pagecheckerboard="0"
     inkscape:deskcolor="#505050">
    <inkscape:page
       x="0"
       y="0"
       inkscape:label="1"
       id="page1"
       width="504.26666"
       height="353.72"
       margin="0"
       bleed="0" />
  </sodipodi:namedview>
  <g
     id="g1"
     inkscape:groupmode="layer"
     inkscape:label="1">
    <path
       id="path1"
       d="M 170.24,636.79999 H 623.35998"
       style="fill:none;stroke:#000000;stroke-width:26.4;stroke-linecap:round;stroke-linejoin:round;stroke-miterlimit:10;stroke-dasharray:none;stroke-opacity:1"
       transform="translate(-144.08,-459.17339)"
       clip-path="url(#clipPath2)" />
    <path
       id="path3"
       d="M 170.24,485.76001 321.28,636.79999"
       style="fill:none;stroke:#000000;stroke-width:26.4;stroke-linecap:round;stroke-linejoin:round;stroke-miterlimit:10;stroke-dasharray:none;stroke-opacity:1"
       transform="translate(-144.08,-459.17339)"
       clip-path="url(#clipPath4)" />
    <path
       id="path5"
       d="M 0,0 5.44,6.24 11.2,12 17.280001,17.6 23.52,22.719999 30.24,27.68 l 6.719999,4.48 7.200001,4 7.36,3.68 7.360001,3.360001 7.679997,2.880001 7.840004,2.399998 8,2.080001 8,1.599999 8.159996,1.279999 8.160002,0.640003 8.16,0.32 8.16,-0.16 8.16,-0.640004 8.16,-0.959999 8,-1.599998 8,-1.920002 7.84,-2.239998 7.68,-2.720001 7.51999,-3.200001 7.36,-3.68 7.20002,-4 L 200,28.959999 206.56,24.16 212.96001,19.200001 219.2,13.76 224.96001,8 230.56,1.92 l 5.11999,-6.4 4.80001,-6.56 4.48001,-6.88 4.15998,-7.200001 L 252.8,-32.32 l 3.2,-7.52 2.88,-7.68 2.4,-7.840001 2.07999,-8 1.6,-8 1.12,-8.159996 L 266.88,-87.68 267.04001,-95.839996 266.88,-104 l -0.64001,-8.16 -0.95999,-8.16 -1.60001,-8.00001 -1.91998,-8 -2.40002,-7.83999 -2.71998,-7.68 -3.20001,-7.52 -3.68001,-7.36 -4,-7.2 -4.31999,-6.88 -4.8,-6.72 -5.12,-6.4 -5.44,-6.08 -5.75999,-5.92 -6.08001,-5.44 -6.4,-5.12 -6.56,-4.8 -6.88001,-4.47999 -7.19999,-4 -7.2,-3.68001 -7.52,-3.36 -7.68,-2.72 -7.83999,-2.56 -8,-1.92 -8,-1.60001 -8.16001,-1.11999 -8.16,-0.64 -8.16,-0.31999 -8.16,0.15999 -8.16,0.64 -8.16,1.12001 -8.160004,1.59999 -7.839996,1.92 -7.839996,2.4 -7.680004,2.72001 -7.520001,3.36 -7.360001,3.51999 -7.199996,4 -6.880002,4.48001 -6.720001,4.79998 L 18.4,-211.84 l -6.08,5.44001 -5.76,5.75999 -5.44,6.08 -5.28,6.4 -4.64,6.72 -4.48,6.88 -4.000001,7.04 -3.679998,7.36 -3.200001,7.52 -2.880001,7.67999 -2.4,7.84002 -2.079999,8 -1.439999,7.99999 -1.120003,8.16 -0.639999,8.16 -0.32,8.160001"
       style="fill:none;stroke:#000000;stroke-width:26.4;stroke-linecap:round;stroke-linejoin:round;stroke-miterlimit:10;stroke-dasharray:none;stroke-opacity:1"
       transform="translate(212.24001,274.26661)"
       clip-path="url(#clipPath6)" />
  </g>
</svg>
