<?xml version="1.0" encoding="UTF-8" standalone="no"?>
<!-- Created with Inkscape (http://www.inkscape.org/) -->

<svg
   version="1.1"
   id="svg1"
   width="500.26666"
   height="347.04001"
   viewBox="0 0 500.26666 347.04001"
   sodipodi:docname="Mercury31.pdf"
   xmlns:inkscape="http://www.inkscape.org/namespaces/inkscape"
   xmlns:sodipodi="http://sodipodi.sourceforge.net/DTD/sodipodi-0.dtd"
   xmlns="http://www.w3.org/2000/svg"
   xmlns:svg="http://www.w3.org/2000/svg">
  <defs
     id="defs1">
    <clipPath
       clipPathUnits="userSpaceOnUse"
       id="clipPath2">
      <path
         d="M 0,0.16 V 1122.5601 H 793.59998 V 0.16 Z"
         transform="translate(-472.32001,-561.28003)"
         clip-rule="evenodd"
         id="path2" />
    </clipPath>
    <clipPath
       clipPathUnits="userSpaceOnUse"
       id="clipPath4">
      <path
         d="M 0,0.16 V 1122.5601 H 793.59998 V 0.16 Z"
         transform="translate(-170.24,-561.28003)"
         clip-rule="evenodd"
         id="path4" />
    </clipPath>
    <clipPath
       clipPathUnits="userSpaceOnUse"
       id="clipPath6">
      <path
         d="M 0,0.16 V 1122.5601 H 793.59998 V 0.16 Z"
         transform="translate(-472.32001,-561.28003)"
         clip-rule="evenodd"
         id="path6" />
    </clipPath>
    <clipPath
       clipPathUnits="userSpaceOnUse"
       id="clipPath8">
      <path
         d="M 0,0.16 V 1122.5601 H 793.59998 V 0.16 Z"
         clip-rule="evenodd"
         id="path8" />
    </clipPath>
    <clipPath
       clipPathUnits="userSpaceOnUse"
       id="clipPath10">
      <path
         d="M 0,0.16 V 1122.5601 H 793.59998 V 0.16 Z"
         transform="translate(-227.03999,-626.56)"
         clip-rule="evenodd"
         id="path10" />
    </clipPath>
    <clipPath
       clipPathUnits="userSpaceOnUse"
       id="clipPath12">
      <path
         d="M 0,0.16 V 1122.5601 H 793.59998 V 0.16 Z"
         transform="translate(-623.35998,-561.28003)"
         clip-rule="evenodd"
         id="path12" />
    </clipPath>
  </defs>
  <sodipodi:namedview
     id="namedview1"
     pagecolor="#505050"
     bordercolor="#eeeeee"
     borderopacity="1"
     inkscape:showpageshadow="0"
     inkscape:pageopacity="0"
     inkscape:pagecheckerboard="0"
     inkscape:deskcolor="#505050">
    <inkscape:page
       x="0"
       y="0"
       inkscape:label="1"
       id="page1"
       width="500.26666"
       height="347.04001"
       margin="0"
       bleed="0" />
  </sodipodi:namedview>
  <g
     id="g1"
     inkscape:groupmode="layer"
     inkscape:label="1">
    <path
       id="path1"
       d="m 0,0 v -8.16 l -0.32,-8.16 -0.64,-8.16 -0.8,-8 -0.96,-7.84 -1.12,-7.84 -1.44,-7.68 -1.6,-7.520001 -1.92,-7.36 -1.92,-7.199997 -2.24,-6.880005 -2.4,-6.559998 -2.56,-6.400001 -2.719999,-6.079998 -2.880001,-5.76 -3.039999,-5.44 -3.200001,-5.12 -3.359999,-4.8 -3.360001,-4.48 -3.68,-4 -3.68,-3.67999 -3.68,-3.20002 -3.840001,-2.71998 -3.84,-2.40001 -4,-2.08 -4,-1.44001 -4.16,-1.11999 -4,-0.64 -4.159996,-0.31999 -4,0.31999 -4.160003,0.64 -4,1.11999 -4,1.44001 -4,2.08 -3.839997,2.40001 -3.840003,2.71998 -3.84,3.20002 -3.68,3.67999 -3.52,4 -3.52,4.48 -3.2,4.8 -3.2,5.12 -3.04,5.44 -2.88,5.76 -2.72001,6.079998 -2.55999,6.400001 -2.4,6.559998 -2.24,6.880005 -2.08,7.199997 -1.76,7.36 -1.60001,7.520001 -1.43998,7.68 -1.12001,7.84 -1.12,7.84 -0.64,8 -0.64,8.16 -0.32,8.16 -0.15999,8.16"
       style="fill:none;stroke:#000000;stroke-width:26.4;stroke-linecap:round;stroke-linejoin:round;stroke-miterlimit:10;stroke-dasharray:none;stroke-opacity:1"
       transform="translate(328.24001,174.18664)"
       clip-path="url(#clipPath2)" />
    <path
       id="path3"
       d="m 0,0 0.16,8.16 0.32,8.16 0.64,8.16 0.64,8 1.12,8 1.12,7.84 1.44,7.68 1.6,7.360001 1.76,7.36 2.08,7.199997 2.24,6.880005 2.4,6.559998 2.56,6.400001 2.719999,6.079998 2.880001,5.76 3.039999,5.6 3.200001,5.12 3.359999,4.64 3.36,4.48 3.520001,4 3.68,3.67999 3.84,3.20002 3.84,2.87999 3.840001,2.40001 4,1.91999 4,1.59999 4,1.12001 4.159996,0.64 4,0.15999 L 79.68,150.88 l 4,-0.64 4.159996,-1.12001 4,-1.59999 4,-1.91999 L 99.68,143.2 l 3.84,-2.87999 3.84,-3.20002 3.52,-3.67999 3.68,-4 3.36,-4.48 3.36,-4.64 3.2,-5.12 3.04,-5.6 2.87999,-5.76 2.72,-6.079998 2.56,-6.400001 2.40001,-6.559998 2.24001,-6.880005 1.91999,-7.199997 1.92,-7.36 L 145.75999,56 147.2,48.32 l 1.12001,-7.84 0.95999,-8 0.8,-8 0.64,-8.16 0.31999,-8.16 V 0"
       style="fill:none;stroke:#000000;stroke-width:26.4;stroke-linecap:round;stroke-linejoin:round;stroke-miterlimit:10;stroke-dasharray:none;stroke-opacity:1"
       transform="translate(26.160005,174.18664)"
       clip-path="url(#clipPath4)" />
    <path
       id="path5"
       d="m 0,0 0.16,8.16 0.32,8.16 0.64,8.16 0.64,8 0.96,8 1.28,7.84 1.44,7.68 1.6,7.360001 1.76,7.36 2.08,7.199997 2.24,6.880005 2.4,6.559998 2.56,6.400001 2.719999,6.079998 2.880001,5.76 3.039999,5.6 3.200001,5.12 3.199999,4.64 3.52,4.48 3.520001,4 3.68,3.67999 3.84,3.20002 3.84,2.87999 3.840001,2.40001 4,1.91999 4,1.59999 4,1.12001 4.159996,0.64 4,0.15999 L 79.68,150.88 l 4,-0.64 4.159996,-1.12001 4,-1.59999 4,-1.91999 L 99.68,143.2 l 3.84,-2.87999 3.68,-3.20002 3.68,-3.67999 3.68,-4 3.36,-4.48 3.36,-4.64 3.2,-5.12 3.04,-5.6 2.87999,-5.76 2.72,-6.079998 2.56,-6.400001 2.40001,-6.559998 2.24001,-6.880005 1.91999,-7.199997 1.92,-7.36 L 145.75999,56 147.2,48.32 l 1.12001,-7.84 0.95999,-8 0.8,-8 0.48,-8.16 0.47999,-8.16 V 0"
       style="fill:none;stroke:#000000;stroke-width:26.4;stroke-linecap:round;stroke-linejoin:round;stroke-miterlimit:10;stroke-dasharray:none;stroke-opacity:1"
       transform="translate(328.24001,174.18664)"
       clip-path="url(#clipPath6)" />
    <path
       id="path7"
       d="m 283.51999,561.28003 h 226.56"
       style="fill:none;stroke:#000000;stroke-width:26.4;stroke-linecap:round;stroke-linejoin:round;stroke-miterlimit:10;stroke-dasharray:none;stroke-opacity:1"
       transform="translate(-144.08,-387.09339)"
       clip-path="url(#clipPath8)" />
    <path
       id="path9"
       d="m 0,0 2.24,-2.88 2.24,-3.04 1.92,-3.52 1.92,-3.68 1.76,-4.000001 1.76,-4.32 1.44,-4.479999 1.28,-4.639999 1.12,-4.800002 L 16.639999,-40.48 17.440001,-45.599998 18.08,-50.720001 18.559999,-56 l 0.16,-5.439999 v -5.280002 l -0.16,-5.440003 L 18.24,-77.440002 17.76,-82.720001 17.120001,-87.839996 16.16,-92.800003 15.04,-97.760002 13.92,-102.56 l -1.44,-4.48 -1.6,-4.48 -1.76,-4 -1.76,-3.84 -2.08,-3.68 -2.08,-3.36 -2.24,-2.88 -2.24,-2.72 -2.4,-2.39999 -2.56,-1.92002 -2.56,-1.59999 -2.56,-1.28 -2.72,-0.96 -2.559999,-0.48 -2.720002,-0.16 -2.719999,0.32 -2.559999,0.64 -2.720002,0.96 -2.559999,1.27999 -2.56,1.76001 -2.400001,2.08001 -2.399998,2.39999 -2.240001,2.88 -2.239998,3.04 -2.080002,3.36 -1.919998,3.68 -1.920002,4 -1.599999,4.16 -1.600002,4.32 -1.279999,4.64 -1.279999,4.799997 -0.960003,4.960006 -0.799999,5.119995 L -55.84,-81.279999 -56.32,-76 l -0.319999,5.440002 -0.16,5.279999"
       style="fill:none;stroke:#000000;stroke-width:26.4;stroke-linecap:round;stroke-linejoin:round;stroke-miterlimit:10;stroke-dasharray:none;stroke-opacity:1"
       transform="translate(82.959993,239.46661)"
       clip-path="url(#clipPath10)" />
    <path
       id="path11"
       d="M 0,0 V -5.44 L -0.32,-10.72 -0.8,-16 -1.44,-21.280001 -2.4,-26.4 -3.36,-31.360001 -4.64,-36.16 l -1.28,-4.639999 -1.6,-4.48 -1.6,-4.16 -1.92,-4 -1.92,-3.68 -2.08,-3.360001 -2.240001,-3.04 -2.399999,-2.719998 -2.4,-2.400001 -2.4,-2.080002 -2.560001,-1.760002 -2.719999,-1.279999 -2.56,-0.959999 -2.720001,-0.64 -2.719997,-0.159996 -2.720002,0.159996 -2.560001,0.64 -2.719997,0.959999 -2.560002,1.279999 -2.560001,1.760002 -2.559998,2.080002 -2.400001,2.400001 -2.240002,2.719998 -2.239998,3.04 -2.080002,3.360001 -2.080001,3.68 -1.759995,4 -1.760002,4.16 -1.440002,4.48 L -70.879997,-36.16 -72,-31.360001 -73.120003,-26.4 l -0.799995,5.119999 -0.64,5.280001 -0.480003,5.28 -0.32,5.28 -0.159996,5.44 0.159996,5.44 0.32,5.28 0.480003,5.28 0.64,5.280001 L -73.120003,26.4 -72,31.360001 -70.879997,36.16 l 1.439995,4.639999 1.440002,4.48 1.760002,4.16 1.759995,4"
       style="fill:none;stroke:#000000;stroke-width:26.4;stroke-linecap:round;stroke-linejoin:round;stroke-miterlimit:10;stroke-dasharray:none;stroke-opacity:1"
       transform="translate(479.27998,174.18664)"
       clip-path="url(#clipPath12)" />
  </g>
</svg>
