<?xml version="1.0" encoding="UTF-8" standalone="no"?>
<!-- Created with Inkscape (http://www.inkscape.org/) -->

<svg
   version="1.1"
   id="svg1"
   width="273.48001"
   height="325.67999"
   viewBox="0 0 273.48001 325.67999"
   sodipodi:docname="Mercury15.pdf"
   xmlns:inkscape="http://www.inkscape.org/namespaces/inkscape"
   xmlns:sodipodi="http://sodipodi.sourceforge.net/DTD/sodipodi-0.dtd"
   xmlns="http://www.w3.org/2000/svg"
   xmlns:svg="http://www.w3.org/2000/svg">
  <defs
     id="defs1">
    <clipPath
       clipPathUnits="userSpaceOnUse"
       id="clipPath2">
      <path
         d="M 0,0.16 V 1122.5601 H 793.59998 V 0.16 Z"
         transform="translate(-434.56,-475.51999)"
         clip-rule="evenodd"
         id="path2" />
    </clipPath>
    <clipPath
       clipPathUnits="userSpaceOnUse"
       id="clipPath4">
      <path
         d="M 0,0.16 V 1122.5601 H 793.59998 V 0.16 Z"
         transform="translate(-552.79999,-500.95999)"
         clip-rule="evenodd"
         id="path4" />
    </clipPath>
    <clipPath
       clipPathUnits="userSpaceOnUse"
       id="clipPath6">
      <path
         d="M 0,0.16 V 1122.5601 H 793.59998 V 0.16 Z"
         transform="translate(-437.28,-477.6)"
         clip-rule="evenodd"
         id="path6" />
    </clipPath>
  </defs>
  <sodipodi:namedview
     id="namedview1"
     pagecolor="#505050"
     bordercolor="#eeeeee"
     borderopacity="1"
     inkscape:showpageshadow="0"
     inkscape:pageopacity="0"
     inkscape:pagecheckerboard="0"
     inkscape:deskcolor="#505050">
    <inkscape:page
       x="0"
       y="0"
       inkscape:label="1"
       id="page1"
       width="273.48001"
       height="325.67999"
       margin="0"
       bleed="0" />
  </sodipodi:namedview>
  <g
     id="g1"
     inkscape:groupmode="layer"
     inkscape:label="1">
    <path
       id="path1"
       d="m 0,0 -2.56,-0.96 -2.88,-0.64 -2.88,-0.16 -3.2,0.16 -3.2,0.64 -3.2,0.96 -3.520001,1.28 -3.519998,1.76 -3.520001,2.08 -3.68,2.4 -3.84,2.72 -3.68,3.04 -3.84,3.519999 -3.680001,3.680001 -3.84,4.159999 -3.84,4.32 -3.68,4.639999 -3.680001,4.800004 -3.679996,5.119998 -3.520004,5.279999 -3.519997,5.600003 L -76.480003,60 -79.68,65.919998 l -3.199997,5.919998 -3.040001,6.240006 -2.880005,6.080002 -2.719994,6.239998 -2.560005,6.400001 -2.400001,6.399997 -2.239998,6.24 -2.079999,6.4 -1.76,6.24 -1.6,6.24001 -1.44,6.07998 -1.28,5.92002 -0.96,5.91999 -0.8,5.76 -0.48,5.44 -0.32,5.28 v 5.12 l 0.16,4.96 0.32,4.64 0.64,4.31999 0.8,4 1.12,3.84002 1.28,3.36 1.44,3.19999 1.76,2.72 1.76,2.4 2.240002,2.08 2.239998,1.75999 2.400001,1.28 2.720001,1.12001 2.720002,0.48 2.879997,0.16 3.199997,-0.16 3.200004,-0.48 3.360001,-0.96 3.360001,-1.28 3.519996,-1.76 3.519997,-2.08 3.680004,-2.40001 3.84,-2.71998 3.680001,-3.20002 3.84,-3.36 3.84,-3.83999 3.679996,-4 3.84,-4.31999 3.680001,-4.64 3.68,-4.80001 3.68,-5.12001 3.680001,-5.43998 3.36,-5.44001 3.520001,-5.76001 L -13.6,140.64 l 3.2,-6.08 3.04,-6.08 2.88,-6.24 2.72,-6.24 2.56,-6.24 2.4,-6.4 2.24,-6.400001 2.08,-6.239998 1.76,-6.239998 1.6,-6.240005 1.44,-6.079994 L 13.6,66.080002 14.56,60.32 15.36,54.560001 15.84,49.119999 16.16,43.68 V 38.560001 L 16,33.759998 l -0.32,-4.639997 -0.64,-4.320002 -0.8,-4.16 -1.12,-3.68 L 12,13.44 10.4,10.4 8.8,7.52 6.88,5.12 4.8,3.04 2.4,1.28 0,0"
       style="fill:none;stroke:#000000;stroke-width:26.4;stroke-linecap:round;stroke-linejoin:round;stroke-miterlimit:10;stroke-dasharray:none;stroke-opacity:1"
       transform="translate(434.56,503.5466)"
       clip-path="url(#clipPath2)" />
    <path
       id="path3"
       d="m 0,0 -3.2,-4.8 -3.52,-4.64 -3.68,-4.32 -4.16,-4 -4.319999,-3.84 -4.480002,-3.520001 L -28.16,-28.16 -33.119999,-31.040001 -38.240002,-33.439999 -43.68,-35.68 -49.119999,-37.439999 -54.720001,-38.720001 -60.32,-39.68 -66.080002,-40.32 -71.68,-40.639999 -77.440002,-40.32 l -5.759995,0.48 -5.600006,0.959999 -5.599999,1.280003 -5.439994,1.759998 -5.440004,2.080002 -5.12,2.399997 -5.12,2.880001 -4.8,3.039999"
       style="fill:none;stroke:#000000;stroke-width:26.4;stroke-linecap:round;stroke-linejoin:round;stroke-miterlimit:10;stroke-dasharray:none;stroke-opacity:1"
       transform="translate(552.79999,528.9866)"
       clip-path="url(#clipPath4)" />
    <path
       id="path5"
       d="M 0,0 -0.96,-5.6 -2.24,-11.2 -4,-16.639999 -6.08,-22.08 -8.48,-27.200001 -11.2,-32.32 l -3.04,-4.799999 -3.52,-4.639999 -3.680001,-4.320004 -4,-4 -4.319999,-3.839996 -4.480002,-3.520001 -4.799999,-3.2 L -44,-63.52 l -5.119999,-2.560002 -5.280003,-2.080002 -5.439998,-1.759994 -5.600002,-1.440003 -5.599999,-1.120002 -5.760002,-0.64 -5.759995,-0.319999 -5.760002,0.160003 -5.599998,0.479996 -5.760002,0.960007"
       style="fill:none;stroke:#000000;stroke-width:26.4;stroke-linecap:round;stroke-linejoin:round;stroke-miterlimit:10;stroke-dasharray:none;stroke-opacity:1"
       transform="translate(437.28,505.62661)"
       clip-path="url(#clipPath6)" />
  </g>
</svg>
