<?xml version="1.0" encoding="UTF-8" standalone="no"?>
<!-- Created with Inkscape (http://www.inkscape.org/) -->

<svg
   version="1.1"
   id="svg1"
   width="340.18668"
   height="337.70667"
   viewBox="0 0 340.18668 337.70667"
   sodipodi:docname="Mercury3.pdf"
   xmlns:inkscape="http://www.inkscape.org/namespaces/inkscape"
   xmlns:sodipodi="http://sodipodi.sourceforge.net/DTD/sodipodi-0.dtd"
   xmlns="http://www.w3.org/2000/svg"
   xmlns:svg="http://www.w3.org/2000/svg">
  <defs
     id="defs1">
    <clipPath
       clipPathUnits="userSpaceOnUse"
       id="clipPath2">
      <path
         d="M 0,0.16 V 1122.5601 H 793.59998 V 0.16 Z"
         transform="translate(-472.32,-485.76001)"
         clip-rule="evenodd"
         id="path2" />
    </clipPath>
    <clipPath
       clipPathUnits="userSpaceOnUse"
       id="clipPath4">
      <path
         d="M 0,0.16 V 1122.5601 H 793.59998 V 0.16 Z"
         transform="translate(-3.3333333e-6)"
         clip-rule="evenodd"
         id="path4" />
    </clipPath>
    <clipPath
       clipPathUnits="userSpaceOnUse"
       id="clipPath6">
      <path
         d="M 0,0.16 V 1122.5601 H 793.59998 V 0.16 Z"
         transform="translate(-3.3333333e-6)"
         clip-rule="evenodd"
         id="path6" />
    </clipPath>
    <clipPath
       clipPathUnits="userSpaceOnUse"
       id="clipPath8">
      <path
         d="M 0,0.16 V 1122.5601 H 793.59998 V 0.16 Z"
         transform="translate(-321.28,-636.79999)"
         clip-rule="evenodd"
         id="path8" />
    </clipPath>
    <clipPath
       clipPathUnits="userSpaceOnUse"
       id="clipPath10">
      <path
         d="M 0,0.16 V 1122.5601 H 793.59998 V 0.16 Z"
         transform="translate(-547.84002,-561.28003)"
         clip-rule="evenodd"
         id="path10" />
    </clipPath>
  </defs>
  <sodipodi:namedview
     id="namedview1"
     pagecolor="#505050"
     bordercolor="#eeeeee"
     borderopacity="1"
     inkscape:showpageshadow="0"
     inkscape:pageopacity="0"
     inkscape:pagecheckerboard="0"
     inkscape:deskcolor="#505050">
    <inkscape:page
       x="0"
       y="0"
       inkscape:label="1"
       id="page1"
       width="340.18668"
       height="337.70667"
       margin="0"
       bleed="0" />
  </sodipodi:namedview>
  <g
     id="g1"
     inkscape:groupmode="layer"
     inkscape:label="1">
    <path
       id="path1"
       d="m 0,0 c 0,-41.700001 -33.810001,-75.519997 -75.519997,-75.519997 -41.710003,0 -75.519993,33.819996 -75.519993,75.519997 0,41.700001 33.80999,75.519997 75.519993,75.519997 C -33.810001,75.519997 0,41.700001 0,0 Z"
       style="fill:none;stroke:#000000;stroke-width:26.4;stroke-linecap:round;stroke-linejoin:round;stroke-miterlimit:10;stroke-dasharray:none;stroke-opacity:1"
       transform="translate(242.86667,95.999951)"
       clip-path="url(#clipPath2)" />
    <path
       id="path3"
       d="M 396.79999,561.28003 V 712.32001"
       style="fill:none;stroke:#000000;stroke-width:26.4;stroke-linecap:round;stroke-linejoin:round;stroke-miterlimit:10;stroke-dasharray:none;stroke-opacity:1"
       transform="translate(-229.45333,-389.76006)"
       clip-path="url(#clipPath4)" />
    <path
       id="path5"
       d="M 321.28,636.79999 H 472.32001"
       style="fill:none;stroke:#000000;stroke-width:26.4;stroke-linecap:round;stroke-linejoin:round;stroke-miterlimit:10;stroke-dasharray:none;stroke-opacity:1"
       transform="translate(-229.45333,-389.76006)"
       clip-path="url(#clipPath6)" />
    <path
       id="path7"
       d="M 0,0 0.64,-4.96 0.8,-9.92 0.48,-14.88 0,-19.68 l -0.96,-4.959999 -1.28,-4.640002 -1.76,-4.800001 -1.92,-4.479999 -2.4,-4.32 -2.56,-4.16 -3.04,-4 -3.200001,-3.84 -3.519998,-3.520001 -3.680001,-3.199996 -4,-2.880005 -4.16,-2.719994 -4.479999,-2.240005 -4.48,-2.079995 -4.640003,-1.600006 -4.799999,-1.279999 L -55.68,-75.360001 -60.639999,-76 l -4.959999,-0.160004 -4.96,0.160004 -4.959999,0.480003"
       style="fill:none;stroke:#000000;stroke-width:26.4;stroke-linecap:round;stroke-linejoin:round;stroke-miterlimit:10;stroke-dasharray:none;stroke-opacity:1"
       transform="translate(91.826666,247.03993)"
       clip-path="url(#clipPath8)" />
    <path
       id="path9"
       d="m 0,0 -4.96,-0.48 -4.8,-0.16 -4.96,0.16 -4.96,0.64 -4.8,0.96 -4.800001,1.28 -4.639997,1.6 -4.640003,2.08 -4.32,2.24 -4.16,2.72 -4,2.88 -3.84,3.200001 -3.360001,3.519998 -3.359996,3.840001 -2.880005,4 -2.719994,4.159999 -2.240005,4.32 -2.079995,4.48 -1.600006,4.800003 -1.279999,4.639999 L -75.360001,55.84 -76,60.639999 l -0.160004,4.959999 0.160004,4.96 0.480003,4.959999"
       style="fill:none;stroke:#000000;stroke-width:26.4;stroke-linecap:round;stroke-linejoin:round;stroke-miterlimit:10;stroke-dasharray:none;stroke-opacity:1"
       transform="translate(318.38669,171.51997)"
       clip-path="url(#clipPath10)" />
  </g>
</svg>
