<?xml version="1.0" encoding="UTF-8" standalone="no"?>
<!-- Created with Inkscape (http://www.inkscape.org/) -->

<svg
   version="1.1"
   id="svg1"
   width="357.51999"
   height="465.84"
   viewBox="0 0 357.51999 465.84"
   sodipodi:docname="Mercury63.pdf"
   xmlns:inkscape="http://www.inkscape.org/namespaces/inkscape"
   xmlns:sodipodi="http://sodipodi.sourceforge.net/DTD/sodipodi-0.dtd"
   xmlns="http://www.w3.org/2000/svg"
   xmlns:svg="http://www.w3.org/2000/svg">
  <defs
     id="defs1">
    <clipPath
       clipPathUnits="userSpaceOnUse"
       id="clipPath2">
      <path
         d="M 0,0.16 V 1122.5601 H 793.59998 V 0.16 Z"
         transform="translate(-284,-656)"
         clip-rule="evenodd"
         id="path2" />
    </clipPath>
    <clipPath
       clipPathUnits="userSpaceOnUse"
       id="clipPath4">
      <path
         d="M 0,0.16 V 1122.5601 H 793.59998 V 0.16 Z"
         clip-rule="evenodd"
         id="path4" />
    </clipPath>
    <clipPath
       clipPathUnits="userSpaceOnUse"
       id="clipPath6">
      <path
         d="M 0,0.16 V 1122.5601 H 793.59998 V 0.16 Z"
         clip-rule="evenodd"
         id="path6" />
    </clipPath>
    <clipPath
       clipPathUnits="userSpaceOnUse"
       id="clipPath8">
      <path
         d="M 0,0.16 V 1122.5601 H 793.59998 V 0.16 Z"
         transform="translate(-455.67999,-429.11999)"
         clip-rule="evenodd"
         id="path8" />
    </clipPath>
    <clipPath
       clipPathUnits="userSpaceOnUse"
       id="clipPath10">
      <path
         d="M 0,0.16 V 1122.5601 H 793.59998 V 0.16 Z"
         clip-rule="evenodd"
         id="path10" />
    </clipPath>
  </defs>
  <sodipodi:namedview
     id="namedview1"
     pagecolor="#505050"
     bordercolor="#eeeeee"
     borderopacity="1"
     inkscape:showpageshadow="0"
     inkscape:pageopacity="0"
     inkscape:pagecheckerboard="0"
     inkscape:deskcolor="#505050">
    <inkscape:page
       x="0"
       y="0"
       inkscape:label="1"
       id="page1"
       width="357.51999"
       height="465.84"
       margin="0"
       bleed="0" />
  </sodipodi:namedview>
  <g
     id="g1"
     inkscape:groupmode="layer"
     inkscape:label="1">
    <path
       id="path1"
       d="m 0,0 -5.28,4.64 -4.96,4.96 -4.48,4.96 -4.159999,5.28 -3.84,5.440001 L -26.08,30.879999 -29.120001,36.48 -31.68,42.400002 -33.919998,48.32 -35.52,54.240002 -36.799999,60.32 l -0.959999,6.080002 -0.320004,6.080001 v 6.079995 l 0.480004,6.240005 0.799999,6.079994 1.439998,5.920006 1.760003,6.079997 2.239997,5.92 2.560002,5.76 3.039999,5.6 3.52,5.6 3.84,5.44 4.16,5.28 4.64,4.96 4.96,4.95999 5.28,4.64 5.6,4.32001 5.92,4.31999 6.24,3.84001 6.559999,3.84 6.720001,3.36 7.040001,3.2 7.199997,2.88 7.360001,2.56 7.52,2.24001 7.84,1.91999 7.840004,1.59999 8,1.28 8,1.12001 8.159997,0.64 8.16,0.32 h 8.16 l 8.16,-0.32 7.99999,-0.64 8.16001,-1.12001 8,-1.28 7.83999,-1.59999 7.68001,-1.91999 7.68,-2.24001 7.36,-2.56 7.19999,-2.88 7.04001,-3.2 6.72,-3.36 6.56,-3.84 6.24001,-3.84001 5.91999,-4.31999 5.59999,-4.32001 5.28,-4.64 4.96001,-4.95999 4.64,-4.96 4.16,-5.28 3.84,-5.44 3.52,-5.6 3.04,-5.6 2.56,-5.76 2.23999,-5.92 1.76001,-6.079997 1.27999,-5.920006 0.96,-6.079994 0.48001,-6.240005 V 72.480003 L 263.35999,66.400002 262.56,60.32 261.28,54.240002 259.51999,48.32 257.44,42.400002 254.88,36.48 251.84,30.879999 248.48,25.280001 244.64,19.84 240.48,14.56 235.84,9.6 231.03999,4.64 225.75999,0"
       style="fill:none;stroke:#000000;stroke-width:26.4;stroke-linecap:round;stroke-linejoin:round;stroke-miterlimit:10;stroke-dasharray:none;stroke-opacity:1"
       transform="translate(59.88,255.55994)"
       clip-path="url(#clipPath2)" />
    <path
       id="path3"
       d="M 283.51999,655.67999 547.84003,504.64001"
       style="fill:none;stroke:#000000;stroke-width:26.4;stroke-linecap:round;stroke-linejoin:round;stroke-miterlimit:10;stroke-dasharray:none;stroke-opacity:1"
       transform="translate(-224.12,-400.44006)"
       clip-path="url(#clipPath4)" />
    <path
       id="path5"
       d="m 510.07999,655.67999 -264.32,-151.03998"
       style="fill:none;stroke:#000000;stroke-width:26.4;stroke-linecap:round;stroke-linejoin:round;stroke-miterlimit:10;stroke-dasharray:none;stroke-opacity:1"
       transform="translate(-224.12,-400.44006)"
       clip-path="url(#clipPath6)" />
    <path
       id="path7"
       d="m 0,0 -7.04,0.16 -7.04,0.16 -7.040001,0.32 -7.039999,0.48 -6.880001,0.64 -6.719997,0.8 -6.560002,0.8 -6.400001,0.96 -6.079998,1.12 -6.079998,1.28 -5.760002,1.28 -5.440003,1.6 -5.119995,1.44 -4.960007,1.76 -4.479995,1.76 -4.160004,1.76 -3.999997,1.92 -3.36,1.92 -3.2,2.08 -2.72,2.08 -2.24,2.239999 -1.92,2.24 -1.6,2.240002 -0.96,2.239998 -0.64,2.240001 -0.32,2.239998 0.32,2.240002 0.64,2.400002 0.96,2.239997 1.6,2.240002 1.92,2.079998 2.24,2.240002 2.72,2.079998 3.2,2.080002 3.36,1.919998 3.999997,1.920002 4.160004,1.919998 4.479995,1.760002 4.960007,1.600002 5.119995,1.599999 5.440003,1.439995 5.760002,1.280006 6.079998,1.279999 6.079998,1.119995 6.400001,0.960007 6.560002,0.959999 6.719997,0.639999 6.880001,0.64 7.039999,0.479995 7.040001,0.32 7.04,0.32 H 0"
       style="fill:none;stroke:#000000;stroke-width:26.4;stroke-linecap:round;stroke-linejoin:round;stroke-miterlimit:10;stroke-dasharray:none;stroke-opacity:1"
       transform="translate(231.55999,28.679936)"
       clip-path="url(#clipPath8)" />
    <path
       id="path9"
       d="m 417.92001,429.12 v 56.64001"
       style="fill:none;stroke:#000000;stroke-width:26.4;stroke-linecap:round;stroke-linejoin:round;stroke-miterlimit:10;stroke-dasharray:none;stroke-opacity:1"
       transform="translate(-224.12,-400.44006)"
       clip-path="url(#clipPath10)" />
  </g>
</svg>
