<?xml version="1.0" encoding="UTF-8" standalone="no"?>
<!-- Created with Inkscape (http://www.inkscape.org/) -->

<svg
   version="1.1"
   id="svg1"
   width="472.25333"
   height="576.64001"
   viewBox="0 0 472.25333 576.64001"
   sodipodi:docname="NaturalSulphur2.pdf"
   xmlns:inkscape="http://www.inkscape.org/namespaces/inkscape"
   xmlns:sodipodi="http://sodipodi.sourceforge.net/DTD/sodipodi-0.dtd"
   xmlns="http://www.w3.org/2000/svg"
   xmlns:svg="http://www.w3.org/2000/svg">
  <defs
     id="defs1">
    <clipPath
       clipPathUnits="userSpaceOnUse"
       id="clipPath2">
      <path
         d="M 0,0.16 V 1122.5601 H 793.59998 V 0.16 Z"
         transform="translate(-547.84003,-542.40003)"
         clip-rule="evenodd"
         id="path2" />
    </clipPath>
    <clipPath
       clipPathUnits="userSpaceOnUse"
       id="clipPath4">
      <path
         d="M 0,0.16 V 1122.5601 H 793.59998 V 0.16 Z"
         clip-rule="evenodd"
         id="path4" />
    </clipPath>
    <clipPath
       clipPathUnits="userSpaceOnUse"
       id="clipPath6">
      <path
         d="M 0,0.16 V 1122.5601 H 793.59998 V 0.16 Z"
         clip-rule="evenodd"
         id="path6" />
    </clipPath>
    <clipPath
       clipPathUnits="userSpaceOnUse"
       id="clipPath8">
      <path
         d="M 0,0.16 V 1122.5601 H 793.59998 V 0.16 Z"
         clip-rule="evenodd"
         id="path8" />
    </clipPath>
    <clipPath
       clipPathUnits="userSpaceOnUse"
       id="clipPath10">
      <path
         d="M 0,0.16 V 1122.5601 H 793.59998 V 0.16 Z"
         transform="translate(-302.39999,-353.60001)"
         clip-rule="evenodd"
         id="path10" />
    </clipPath>
    <clipPath
       clipPathUnits="userSpaceOnUse"
       id="clipPath12">
      <path
         d="M 0,0.16 V 1122.5601 H 793.59998 V 0.16 Z"
         transform="translate(-604.47998,-353.60001)"
         clip-rule="evenodd"
         id="path12" />
    </clipPath>
    <clipPath
       clipPathUnits="userSpaceOnUse"
       id="clipPath14">
      <path
         d="M 0,0.16 V 1122.5601 H 793.59998 V 0.16 Z"
         transform="translate(-283.51999,-768.96003)"
         clip-rule="evenodd"
         id="path14" />
    </clipPath>
  </defs>
  <sodipodi:namedview
     id="namedview1"
     pagecolor="#505050"
     bordercolor="#eeeeee"
     borderopacity="1"
     inkscape:showpageshadow="0"
     inkscape:pageopacity="0"
     inkscape:pagecheckerboard="0"
     inkscape:deskcolor="#505050">
    <inkscape:page
       x="0"
       y="0"
       inkscape:label="1"
       id="page1"
       width="472.25333"
       height="576.64001"
       margin="0"
       bleed="0" />
  </sodipodi:namedview>
  <g
     id="g1"
     inkscape:groupmode="layer"
     inkscape:label="1">
    <path
       id="path1"
       d="m 0,0 c 0,-83.410004 -67.620003,-151.03999 -151.03999,-151.03999 -83.42002,0 -151.04,67.629986 -151.04,151.03999 0,83.410004 67.61998,151.03999 151.04,151.03999 C -67.620003,151.03999 0,83.410004 0,0 Z"
       style="fill:none;stroke:#000000;stroke-width:26.4;stroke-linecap:round;stroke-linejoin:round;stroke-miterlimit:10;stroke-dasharray:none;stroke-opacity:1"
       transform="translate(547.84003,543.7333)"
       clip-path="url(#clipPath2)" />
    <path
       id="path3"
       d="M 302.39999,410.23999 V 353.60001"
       style="fill:none;stroke:#000000;stroke-width:26.4;stroke-linecap:round;stroke-linejoin:round;stroke-miterlimit:10;stroke-dasharray:none;stroke-opacity:1"
       transform="translate(0,1.3332747)"
       clip-path="url(#clipPath4)" />
    <path
       id="path5"
       d="M 491.20001,410.23999 V 353.60001"
       style="fill:none;stroke:#000000;stroke-width:26.4;stroke-linecap:round;stroke-linejoin:round;stroke-miterlimit:10;stroke-dasharray:none;stroke-opacity:1"
       transform="translate(0,1.3332747)"
       clip-path="url(#clipPath6)" />
    <path
       id="path7"
       d="m 396.79999,693.44 v 75.52002"
       style="fill:none;stroke:#000000;stroke-width:26.4;stroke-linecap:round;stroke-linejoin:round;stroke-miterlimit:10;stroke-dasharray:none;stroke-opacity:1"
       transform="translate(0,1.3332747)"
       clip-path="url(#clipPath8)" />
    <path
       id="path9"
       d="m 0,0 -0.16,-4.48 -0.48,-4.32 -0.8,-4.32 -1.28,-4.320001 -1.6,-4.159999 -1.76,-4 -2.24,-4 -2.4,-3.679999 -2.72,-3.52 L -16.48,-40 l -3.36,-3.040001 -3.520001,-2.719997 -3.68,-2.560002 -3.839998,-2.080002 -4.000002,-1.919998 -4.16,-1.439998 -4.32,-1.280003 L -47.68,-55.84 l -4.48,-0.64 -4.479999,-0.159999 -4.32,0.159999 -4.480003,0.64 -4.32,0.799999 -4.32,1.280003 -4.159996,1.439998 -4,1.919998 -4,2.080002 -3.68,2.560002 -3.520004,2.719997 L -96.639999,-40 -99.68,-36.799999 l -2.72,3.52 -2.4,3.679999 -2.24,4 -1.92,4 -1.44,4.159999 -1.28,4.320001 -0.8,4.32 -0.64,4.32 -0.16,4.48"
       style="fill:none;stroke:#000000;stroke-width:26.4;stroke-linecap:round;stroke-linejoin:round;stroke-miterlimit:10;stroke-dasharray:none;stroke-opacity:1"
       transform="translate(302.39999,354.93328)"
       clip-path="url(#clipPath10)" />
    <path
       id="path11"
       d="M 0,0 -0.16,-4.48 -0.64,-8.8 -1.6,-13.12 -2.72,-17.440001 -4.32,-21.6 l -1.76,-4 -2.24,-4 -2.4,-3.679999 -2.88,-3.52 L -16.48,-40 l -3.36,-3.040001 -3.520001,-2.719997 -3.68,-2.560002 -3.839998,-2.080002 -4.000002,-1.919998 -4.16,-1.439998 -4.32,-1.280003 L -47.68,-55.84 l -4.48,-0.64 -4.479999,-0.159999 -4.48,0.159999 -4.320003,0.64 -4.32,0.799999 -4.32,1.280003 -4.159996,1.439998 -4,1.919998 -4,2.080002 -3.68,2.560002 -3.520004,2.719997 L -96.639999,-40 -99.68,-36.799999 l -2.72,3.52 -2.56,3.679999 -2.08,4 -1.92,4 -1.44,4.159999 -1.28,4.320001 -0.8,4.32 -0.64,4.32 -0.16,4.48"
       style="fill:none;stroke:#000000;stroke-width:26.4;stroke-linecap:round;stroke-linejoin:round;stroke-miterlimit:10;stroke-dasharray:none;stroke-opacity:1"
       transform="translate(604.47998,354.93328)"
       clip-path="url(#clipPath12)" />
    <path
       id="path13"
       d="M 0,0 0.16,4.48 0.8,8.8 1.6,13.28 2.88,17.440001 4.32,21.76 l 1.92,4 2.24,3.84 2.4,3.679999 2.72,3.52 L 16.639999,40 19.84,43.040001 l 3.520001,2.719997 3.68,2.560002 4,2.080002 4,1.919998 4.16,1.599998 L 43.52,55.040001 47.84,56 l 4.48,0.48 4.319999,0.159999 4.48,-0.159999 4.479999,-0.48 4.32,-0.959999 4.32,-1.120003 4.160004,-1.599998 4,-1.919998 3.839996,-2.080002 3.68,-2.560002 3.520004,-2.719997 L 96.800003,40 l 3.039993,-3.200001 2.720004,-3.52 2.4,-3.679999 2.24,-3.84 1.76,-4 1.6,-4.319999 1.28,-4.160001 0.8,-4.48 0.48,-4.32 0.16,-4.48"
       style="fill:none;stroke:#000000;stroke-width:26.4;stroke-linecap:round;stroke-linejoin:round;stroke-miterlimit:10;stroke-dasharray:none;stroke-opacity:1"
       transform="translate(283.51999,770.2933)"
       clip-path="url(#clipPath14)" />
  </g>
</svg>
