<?xml version="1.0" encoding="UTF-8" standalone="no"?>
<!-- Created with Inkscape (http://www.inkscape.org/) -->

<svg
   version="1.1"
   id="svg1"
   width="572.30664"
   height="383.07999"
   viewBox="0 0 572.30664 383.07999"
   sodipodi:docname="Platinum.pdf"
   xmlns:inkscape="http://www.inkscape.org/namespaces/inkscape"
   xmlns:sodipodi="http://sodipodi.sourceforge.net/DTD/sodipodi-0.dtd"
   xmlns="http://www.w3.org/2000/svg"
   xmlns:svg="http://www.w3.org/2000/svg">
  <defs
     id="defs1">
    <clipPath
       clipPathUnits="userSpaceOnUse"
       id="clipPath2">
      <path
         d="M 0,0.16 V 1122.5601 H 793.59998 V 0.16 Z"
         transform="translate(-661.91998,-561.03998)"
         clip-rule="evenodd"
         id="path2" />
    </clipPath>
    <clipPath
       clipPathUnits="userSpaceOnUse"
       id="clipPath4">
      <path
         d="M 0,0.16 V 1122.5601 H 793.59998 V 0.16 Z"
         transform="translate(-517.44,-562.08002)"
         clip-rule="evenodd"
         id="path4" />
    </clipPath>
    <clipPath
       clipPathUnits="userSpaceOnUse"
       id="clipPath6">
      <path
         d="M 0,0.16 V 1122.5601 H 793.59998 V 0.16 Z"
         transform="translate(-517.44,-562.08002)"
         clip-rule="evenodd"
         id="path6" />
    </clipPath>
    <clipPath
       clipPathUnits="userSpaceOnUse"
       id="clipPath8">
      <path
         d="M 0,0.16 V 1122.5601 H 793.59998 V 0.16 Z"
         transform="translate(-131.67999,-731.52002)"
         clip-rule="evenodd"
         id="path8" />
    </clipPath>
    <clipPath
       clipPathUnits="userSpaceOnUse"
       id="clipPath10">
      <path
         d="M 0,0.16 V 1122.5601 H 793.59998 V 0.16 Z"
         transform="translate(-131.67999,-731.52002)"
         clip-rule="evenodd"
         id="path10" />
    </clipPath>
  </defs>
  <sodipodi:namedview
     id="namedview1"
     pagecolor="#505050"
     bordercolor="#eeeeee"
     borderopacity="1"
     inkscape:showpageshadow="0"
     inkscape:pageopacity="0"
     inkscape:pagecheckerboard="0"
     inkscape:deskcolor="#505050">
    <inkscape:page
       x="0"
       y="0"
       inkscape:label="1"
       id="page1"
       width="572.30664"
       height="383.07999"
       margin="0"
       bleed="0" />
  </sodipodi:namedview>
  <g
     id="g1"
     inkscape:groupmode="layer"
     inkscape:label="1">
    <path
       id="path1"
       d="m 0,0 c 0,-94.410004 -76.540001,-170.96001 -170.96001,-170.96001 -94.41999,0 -170.96,76.550006 -170.96,170.96001 0,94.410004 76.54001,170.96001 170.96,170.96001 C -76.540001,170.96001 0,94.410004 0,0 Z"
       style="fill:none;stroke:#000000;stroke-width:26.4;stroke-linecap:round;stroke-linejoin:round;stroke-miterlimit:10;stroke-dasharray:none;stroke-opacity:1"
       transform="translate(548.51998,193.97325)"
       clip-path="url(#clipPath2)" />
    <path
       id="path3"
       d="m 0,0 -0.16,-2.72 -0.48,-2.72 -0.64,-2.72 -0.96,-2.56 -1.28,-2.4 -1.44,-2.4 -1.76,-2.08 -2.08,-2.08 -2.08,-1.600001 -2.4,-1.599998 -2.4,-1.280001 -2.56,-0.960001 -2.719999,-0.639999 -2.720001,-0.48 -2.72,-0.16 -2.720001,0.16 -2.719999,0.48 -2.720001,0.639999 -2.559998,0.960001 -2.560001,1.280001 -2.239998,1.599998 L -44.16,-19.68 l -1.920002,2.08 -1.759998,2.08 -1.439999,2.4 -1.280002,2.4 -0.959999,2.56 -0.8,2.72 -0.319999,2.72 -0.16,2.72 0.16,2.72 0.319999,2.88 0.8,2.56 0.959999,2.56 1.280002,2.56 1.439999,2.24 1.759998,2.24 1.920002,1.92 2.240002,1.760001 2.239998,1.439998 2.560001,1.280001 2.559998,0.960001 L -31.84,25.92 l 2.719999,0.32 2.720001,0.16 2.72,-0.16 2.720001,-0.32 2.719999,-0.799999 2.56,-0.960001 2.4,-1.280001 2.4,-1.439998 L -8.8,19.68 -6.72,17.76 -4.96,15.52 -3.52,13.28 -2.24,10.72 -1.28,8.16 -0.64,5.6 -0.16,2.72 0,0 v 0 z"
       style="fill:#000000;fill-opacity:1;fill-rule:evenodd;stroke:none"
       transform="translate(404.04,195.01329)"
       clip-path="url(#clipPath4)" />
    <path
       id="path5"
       d="m 0,0 -0.16,-2.72 -0.48,-2.72 -0.64,-2.72 -0.96,-2.56 -1.28,-2.4 -1.44,-2.4 -1.76,-2.08 -2.08,-2.08 -2.08,-1.600001 -2.4,-1.599998 -2.4,-1.280001 -2.56,-0.960001 -2.719999,-0.639999 -2.720001,-0.48 -2.72,-0.16 -2.720001,0.16 -2.719999,0.48 -2.720001,0.639999 -2.559998,0.960001 -2.560001,1.280001 -2.239998,1.599998 L -44.16,-19.68 l -1.920002,2.08 -1.759998,2.08 -1.439999,2.4 -1.280002,2.4 -0.959999,2.56 -0.8,2.72 -0.319999,2.72 -0.16,2.72 0.16,2.72 0.319999,2.88 0.8,2.56 0.959999,2.56 1.280002,2.56 1.439999,2.24 1.759998,2.24 1.920002,1.92 2.240002,1.760001 2.239998,1.439998 2.560001,1.280001 2.559998,0.960001 L -31.84,25.92 l 2.719999,0.32 2.720001,0.16 2.72,-0.16 2.720001,-0.32 2.719999,-0.799999 2.56,-0.960001 2.4,-1.280001 2.4,-1.439998 L -8.8,19.68 -6.72,17.76 -4.96,15.52 -3.52,13.28 -2.24,10.72 -1.28,8.16 -0.64,5.6 -0.16,2.72 0,0"
       style="fill:none;stroke:#000000;stroke-width:0.64;stroke-linecap:round;stroke-linejoin:round;stroke-miterlimit:10;stroke-dasharray:none;stroke-opacity:1"
       transform="translate(404.04,195.01329)"
       clip-path="url(#clipPath6)" />
    <path
       id="path7"
       d="M 0,0 8.96,0.8 17.92,0.96 26.879999,0.8 35.84,0 l 8.799999,-1.12 8.8,-1.6 8.640003,-2.08 8.639999,-2.56 8.479996,-3.04 8.160004,-3.36 8.159996,-3.84 7.840003,-4.32 7.68,-4.639999 7.36,-5.120001 7.04,-5.439999 6.88001,-5.760002 6.39999,-6.239998 6.24001,-6.400001 5.75999,-6.880002 5.44,-7.04 5.12,-7.360001 4.64,-7.68 4.32,-7.839997 3.84,-8 3.36,-8.32 3.04,-8.48 2.55999,-8.48 2.08,-8.79999 1.60001,-8.80001 1.12,-8.8 0.8,-8.96001 0.16,-8.95999 -0.16,-8.96 -0.8,-8.79999 -1.12,-8.96001 -1.60001,-8.8 -2.08,-8.64 -2.55999,-8.64 -3.04,-8.48 -3.36,-8.16 -3.84,-8.16 -4.32,-7.84 -4.64,-7.52 -5.12,-7.51999 -5.44,-7.04001 -5.75999,-6.72 -6.24001,-6.56 -6.39999,-6.07999 -6.88001,-5.92001 -7.04,-5.44 -7.36,-4.96 -7.68,-4.80001 -7.840003,-4.15998 -8.159996,-3.84002 -8.160004,-3.51999 -8.479996,-2.88001 -8.639999,-2.55999 -8.640003,-2.07999 -8.8,-1.76001 L 35.84,-339.84 26.879999,-340.48001 17.92,-340.79999 8.96,-340.48001 0,-339.84"
       style="fill:none;stroke:#000000;stroke-width:26.4;stroke-linecap:round;stroke-linejoin:round;stroke-miterlimit:10;stroke-dasharray:none;stroke-opacity:1"
       transform="translate(18.279993,364.45329)"
       clip-path="url(#clipPath8)" />
    <path
       id="path9"
       d="m 0,0 8,-5.12 7.52,-5.6 7.359999,-5.919999 7.200001,-6.24 6.719999,-6.560002 6.560002,-6.879999 6.079998,-7.040001 5.760002,-7.52 5.439998,-7.68 5.120003,-7.999997 4.64,-8.160003 4.319999,-8.479996 3.839997,-8.639999 3.520004,-8.640004 3.040001,-8.96 2.559997,-9.12 2.239998,-9.12 1.760002,-9.28001 1.440003,-9.43998 0.799995,-9.28 0.480004,-9.44 V -174.56 L 93.919998,-184 93.120003,-193.44 91.68,-202.72 89.919998,-212 87.68,-221.28 l -2.559997,-8.96 -3.040001,-8.96 -3.520004,-8.8 -3.839997,-8.64001 -4.319999,-8.31998 -4.64,-8.16001 -5.120003,-8 -5.439998,-7.83999 -5.760002,-7.36002 -6.079998,-7.19998 -6.560002,-6.88 -6.719999,-6.56 -7.200001,-6.24002 L 15.52,-329.12 8,-334.56 0,-339.84"
       style="fill:none;stroke:#000000;stroke-width:26.4;stroke-linecap:round;stroke-linejoin:round;stroke-miterlimit:10;stroke-dasharray:none;stroke-opacity:1"
       transform="translate(18.279993,364.45329)"
       clip-path="url(#clipPath10)" />
  </g>
</svg>
