<?xml version="1.0" encoding="UTF-8" standalone="no"?>
<!-- Created with Inkscape (http://www.inkscape.org/) -->

<svg
   version="1.1"
   id="svg1"
   width="192.10667"
   height="337.70667"
   viewBox="0 0 192.10667 337.70667"
   sodipodi:docname="RegulusMartis.pdf"
   xmlns:inkscape="http://www.inkscape.org/namespaces/inkscape"
   xmlns:sodipodi="http://sodipodi.sourceforge.net/DTD/sodipodi-0.dtd"
   xmlns="http://www.w3.org/2000/svg"
   xmlns:svg="http://www.w3.org/2000/svg">
  <defs
     id="defs1">
    <clipPath
       clipPathUnits="userSpaceOnUse"
       id="clipPath2">
      <path
         d="M 0,0.16 V 1122.5601 H 793.59998 V 0.16 Z"
         transform="translate(-323.51999,-451.84)"
         clip-rule="evenodd"
         id="path2" />
    </clipPath>
    <clipPath
       clipPathUnits="userSpaceOnUse"
       id="clipPath4">
      <path
         d="M 0,0.16 V 1122.5601 H 793.59998 V 0.16 Z"
         transform="translate(-324.48001,-452)"
         clip-rule="evenodd"
         id="path4" />
    </clipPath>
    <clipPath
       clipPathUnits="userSpaceOnUse"
       id="clipPath6">
      <path
         d="M 0,0.16 V 1122.5601 H 793.59998 V 0.16 Z"
         clip-rule="evenodd"
         id="path6" />
    </clipPath>
    <clipPath
       clipPathUnits="userSpaceOnUse"
       id="clipPath8">
      <path
         d="M 0,0.16 V 1122.5601 H 793.59998 V 0.16 Z"
         clip-rule="evenodd"
         id="path8" />
    </clipPath>
    <clipPath
       clipPathUnits="userSpaceOnUse"
       id="clipPath10">
      <path
         d="M 0,0.16 V 1122.5601 H 793.59998 V 0.16 Z"
         clip-rule="evenodd"
         id="path10" />
    </clipPath>
    <clipPath
       clipPathUnits="userSpaceOnUse"
       id="clipPath12">
      <path
         d="M 0,0.16 V 1122.5601 H 793.59998 V 0.16 Z"
         transform="translate(-396.95999,-709.59998)"
         clip-rule="evenodd"
         id="path12" />
    </clipPath>
    <clipPath
       clipPathUnits="userSpaceOnUse"
       id="clipPath14">
      <path
         d="M 0,0.16 V 1122.5601 H 793.59998 V 0.16 Z"
         transform="translate(-472.48001,-709.59998)"
         clip-rule="evenodd"
         id="path14" />
    </clipPath>
  </defs>
  <sodipodi:namedview
     id="namedview1"
     pagecolor="#505050"
     bordercolor="#eeeeee"
     borderopacity="1"
     inkscape:showpageshadow="0"
     inkscape:pageopacity="0"
     inkscape:pagecheckerboard="0"
     inkscape:deskcolor="#505050">
    <inkscape:page
       x="0"
       y="0"
       inkscape:label="1"
       id="page1"
       width="192.10667"
       height="337.70667"
       margin="0"
       bleed="0" />
  </sodipodi:namedview>
  <g
     id="g1"
     inkscape:groupmode="layer"
     inkscape:label="1">
    <path
       id="path1"
       d="m 0,0 -1.12,5.28 -0.8,5.28 -0.32,5.44 v 5.440001 L -1.76,26.719999 -0.96,32 0.16,37.279999 1.6,42.400002 3.52,47.52 l 2.24,4.8 2.72,4.799999 2.88,4.479999 3.2,4.32 3.52,4 3.84,3.840004 4,3.519997 4.32,3.200004 4.640001,2.879998 4.639999,2.559997 4.96,2.240006 4.959999,1.919998 5.120002,1.439995 5.279999,1.120002 5.280003,0.800003 5.439995,0.32 H 76 l 5.279999,-0.32 5.279999,-0.800003 5.279998,-1.120002 5.120003,-1.439995 5.120001,-1.919998 4.96,-2.240006 4.64,-2.559997 4.48,-2.879998 4.32,-3.200004 4.16,-3.519997 3.68001,-3.840004 3.67999,-4 3.2,-4.32 2.88,-4.479999 2.56,-4.799999 2.24,-4.8 1.92,-5.119998 1.59999,-5.120003 L 147.52,32 148.32001,26.719999 148.64,21.440001 148.8,16 148.32001,10.56 147.67999,5.28 146.56,0"
       style="fill:none;stroke:#000000;stroke-width:18.88;stroke-linecap:round;stroke-linejoin:round;stroke-miterlimit:10;stroke-dasharray:none;stroke-opacity:1"
       transform="translate(323.51999,451.83994)"
       clip-path="url(#clipPath2)" />
    <path
       id="path3"
       d="m 0,0 1.28,-6.24 1.28,-4.96 1.28,-4.64 1.28,-4.16 1.12,-3.84 1.28,-3.520001 1.28,-3.199998 1.28,-2.72 1.28,-2.400001 1.44,-2.079998 1.28,-1.600003 1.44,-1.279998 1.279999,-0.8 1.440001,-0.479999 h 1.44 l 1.440001,0.32 1.599998,0.799999 L 24.32,-39.52 l 1.6,1.760002 1.76,2.239998 1.760001,2.880001 1.92,3.519998 2.399997,4.320002 2.720002,5.92 2.560001,5.439999 1.599998,3.2 1.119999,2.08 1.760002,3.36 1.599999,2.24 1.440002,1.6 v 0.16 l 0.8,0.64 1.279998,0.64 1.119999,0.16 1.280003,-0.16 1.279999,-0.64 1.279998,-0.96 1.280003,-1.6 1.279999,-1.92 1.439998,-2.56 1.600003,-3.2 1.599998,-4 2.080002,-5.12 2.880001,-7.520001 1.759995,-4.479999 0.960006,-2.239998 1.599999,-3.360001 1.279999,-2.400001 1.279998,-1.599999 1.120003,-0.960003 1.119995,-0.479999 h 0.32 0.639999 l 0.960007,0.640003 1.119995,0.799999 1.120003,1.439999 1.120003,1.920002 1.279998,2.399997 1.439995,3.040001 1.440003,3.84 1.919998,4.64 2.560005,6.719999 1.759995,4.160001 1.279998,2.88 2.080002,4 L 95.68,-3.2 97.279999,-1.12 98.720001,0 100,0.8 l 1.28,0.16 1.28,-0.32 1.12,-0.8 0.48,-0.48 0.8,-0.96 1.28,-1.6 1.28,-2.24 1.28,-2.72 1.6,-3.36 1.92,-4.32 2.4,-5.76 2.4,-5.440001 1.6,-3.359999 1.12,-2.08 1.92,-3.36 1.76,-2.400002 1.6,-1.599998 1.6,-0.959999 1.44,-0.48 1.28,0.16 1.44,0.48 1.28,1.119999 1.28,1.439998 1.28,1.920002 1.12,2.240002 1.27999,2.719997 1.12001,3.040001 1.12,3.520001 1.28,3.84 1.11999,4.16 L 142.88,-12 l 1.12,5.12 1.11999,5.28 0.48002,2.08"
       style="fill:none;stroke:#000000;stroke-width:18.88;stroke-linecap:round;stroke-linejoin:round;stroke-miterlimit:10;stroke-dasharray:none;stroke-opacity:1"
       transform="translate(324.48001,451.99994)"
       clip-path="url(#clipPath4)" />
    <path
       id="path5"
       d="M 321.28,470.23999 H 472.32001"
       style="fill:none;stroke:#000000;stroke-width:18.88;stroke-linecap:round;stroke-linejoin:round;stroke-miterlimit:10;stroke-dasharray:none;stroke-opacity:1"
       transform="translate(0,-5.8666667e-5)"
       clip-path="url(#clipPath6)" />
    <path
       id="path7"
       d="M 396.95999,546.08002 V 709.59998"
       style="fill:none;stroke:#000000;stroke-width:18.88;stroke-linecap:round;stroke-linejoin:round;stroke-miterlimit:10;stroke-dasharray:none;stroke-opacity:1"
       transform="translate(0,-5.8666667e-5)"
       clip-path="url(#clipPath8)" />
    <path
       id="path9"
       d="m 340.32001,615.20001 h 113.28"
       style="fill:none;stroke:#000000;stroke-width:18.88;stroke-linecap:round;stroke-linejoin:round;stroke-miterlimit:10;stroke-dasharray:none;stroke-opacity:1"
       transform="translate(0,-5.8666667e-5)"
       clip-path="url(#clipPath10)" />
    <path
       id="path11"
       d="M 0,0 -0.16,-3.36 -0.64,-6.88 -1.44,-10.24 -2.56,-13.6 -4,-16.799999 -5.76,-19.84 l -1.92,-2.879999 -2.24,-2.720002 -2.4,-2.399999 -2.72,-2.24 -2.88,-1.92 -3.039999,-1.759998 -3.200001,-1.440003 -3.36,-1.119999 -3.359999,-0.799999 -3.360003,-0.479999 -3.519996,-0.16 -3.520001,0.16 -3.52,0.479999 L -48.16,-36.32 l -3.200001,1.119999 -3.2,1.440003 L -57.599998,-32 -60.48,-30.08 l -2.720001,2.24 -2.560001,2.399999 L -68,-22.719999 -69.919998,-19.84 l -1.599999,3.040001 -1.440002,3.199999 -1.120003,3.36 -0.799995,3.36 -0.480004,3.52 -0.159996,3.36"
       style="fill:none;stroke:#000000;stroke-width:18.88;stroke-linecap:round;stroke-linejoin:round;stroke-miterlimit:10;stroke-dasharray:none;stroke-opacity:1"
       transform="translate(396.95999,709.59992)"
       clip-path="url(#clipPath12)" />
    <path
       id="path13"
       d="M 0,0 -0.16,-3.36 -0.64,-6.88 -1.44,-10.24 -2.56,-13.6 -4,-16.799999 -5.76,-19.84 l -1.92,-2.879999 -2.24,-2.720002 -2.4,-2.399999 -2.72,-2.24 -2.88,-1.92 -3.039999,-1.759998 -3.200001,-1.440003 -3.36,-1.119999 -3.359999,-0.799999 -3.360003,-0.479999 -3.519996,-0.16 -3.520001,0.16 -3.52,0.479999 L -48.16,-36.32 l -3.200001,1.119999 -3.2,1.440003 L -57.599998,-32 -60.48,-30.08 l -2.720001,2.24 -2.560001,2.399999 L -68,-22.719999 -69.919998,-19.84 l -1.599999,3.040001 -1.440002,3.199999 -1.120003,3.36 -0.799995,3.36 -0.480004,3.52 -0.159996,3.36"
       style="fill:none;stroke:#000000;stroke-width:18.88;stroke-linecap:round;stroke-linejoin:round;stroke-miterlimit:10;stroke-dasharray:none;stroke-opacity:1"
       transform="translate(472.48001,709.59992)"
       clip-path="url(#clipPath14)" />
  </g>
</svg>
