<?xml version="1.0" encoding="UTF-8" standalone="no"?>
<!-- Created with Inkscape (http://www.inkscape.org/) -->

<svg
   version="1.1"
   id="svg1"
   width="501.60001"
   height="500.54666"
   viewBox="0 0 501.60001 500.54666"
   sodipodi:docname="Silver27.pdf"
   xmlns:inkscape="http://www.inkscape.org/namespaces/inkscape"
   xmlns:sodipodi="http://sodipodi.sourceforge.net/DTD/sodipodi-0.dtd"
   xmlns="http://www.w3.org/2000/svg"
   xmlns:svg="http://www.w3.org/2000/svg">
  <defs
     id="defs1">
    <clipPath
       clipPathUnits="userSpaceOnUse"
       id="clipPath2">
      <path
         d="M 0,0.16 V 1122.5601 H 793.59998 V 0.16 Z"
         transform="translate(3.3333333e-6)"
         clip-rule="evenodd"
         id="path2" />
    </clipPath>
    <clipPath
       clipPathUnits="userSpaceOnUse"
       id="clipPath4">
      <path
         d="M 0,0.16 V 1122.5601 H 793.59998 V 0.16 Z"
         transform="translate(3.3333333e-6)"
         clip-rule="evenodd"
         id="path4" />
    </clipPath>
    <clipPath
       clipPathUnits="userSpaceOnUse"
       id="clipPath6">
      <path
         d="M 0,0.16 V 1122.5601 H 793.59998 V 0.16 Z"
         transform="translate(3.3333333e-6)"
         clip-rule="evenodd"
         id="path6" />
    </clipPath>
    <clipPath
       clipPathUnits="userSpaceOnUse"
       id="clipPath8">
      <path
         d="M 0,0.16 V 1122.5601 H 793.59998 V 0.16 Z"
         transform="translate(3.3333333e-6)"
         clip-rule="evenodd"
         id="path8" />
    </clipPath>
    <clipPath
       clipPathUnits="userSpaceOnUse"
       id="clipPath10">
      <path
         d="M 0,0.16 V 1122.5601 H 793.59998 V 0.16 Z"
         transform="translate(-558.56,-364)"
         clip-rule="evenodd"
         id="path10" />
    </clipPath>
  </defs>
  <sodipodi:namedview
     id="namedview1"
     pagecolor="#505050"
     bordercolor="#eeeeee"
     borderopacity="1"
     inkscape:showpageshadow="0"
     inkscape:pageopacity="0"
     inkscape:pagecheckerboard="0"
     inkscape:deskcolor="#505050">
    <inkscape:page
       x="0"
       y="0"
       inkscape:label="1"
       id="page1"
       width="501.60001"
       height="500.54666"
       margin="0"
       bleed="0" />
  </sodipodi:namedview>
  <g
     id="g1"
     inkscape:groupmode="layer"
     inkscape:label="1">
    <path
       id="path1"
       d="M 299.67999,787.84003 623.35998,434.72"
       style="fill:none;stroke:#000000;stroke-width:26.4;stroke-linecap:round;stroke-linejoin:round;stroke-miterlimit:10;stroke-dasharray:none;stroke-opacity:1"
       transform="translate(-146.74667,-308.33339)"
       clip-path="url(#clipPath2)" />
    <path
       id="path3"
       d="M 235.03999,717.28003 429.28,505.28"
       style="fill:none;stroke:#000000;stroke-width:26.4;stroke-linecap:round;stroke-linejoin:round;stroke-miterlimit:10;stroke-dasharray:none;stroke-opacity:1"
       transform="translate(-146.74667,-308.33339)"
       clip-path="url(#clipPath4)" />
    <path
       id="path5"
       d="m 170.24,646.56 64.79999,70.72003"
       style="fill:none;stroke:#000000;stroke-width:26.4;stroke-linecap:round;stroke-linejoin:round;stroke-miterlimit:10;stroke-dasharray:none;stroke-opacity:1"
       transform="translate(-146.74667,-308.33339)"
       clip-path="url(#clipPath6)" />
    <path
       id="path7"
       d="m 332.16,611.20001 64.63999,70.71997"
       style="fill:none;stroke:#000000;stroke-width:26.4;stroke-linecap:round;stroke-linejoin:round;stroke-miterlimit:10;stroke-dasharray:none;stroke-opacity:1"
       transform="translate(-146.74667,-308.33339)"
       clip-path="url(#clipPath8)" />
    <path
       id="path9"
       d="m 0,0 -4.32,-4.48 -4.64,-4.16 -4.8,-3.84 -5.119999,-3.36 L -24.16,-18.879999 -29.6,-21.6 l -5.600001,-2.4 -5.759998,-1.92 -5.760002,-1.440001 -5.919998,-0.959999 -5.920002,-0.639999 -6.079998,-0.320002 -5.919999,0.320002 -6.080001,0.639999 -5.760003,0.959999 L -88.32,-25.92 -94.080002,-24 -99.68,-21.6 l -5.44,2.720001 -5.28,3.039999 -5.12,3.36 -4.8,3.84 -4.64,4.16 -4.32,4.48 -4.16,4.8 -3.84,4.96 -3.52,5.44 -3.04,5.439999 -2.88,5.760001 -2.39999,6.08 -2.24001,6.080001 -1.60001,6.239998 -1.43998,6.400002 -0.96001,6.399997 -0.64,6.560006 -0.16,6.559997 0.16,6.400002 0.64,6.559997 0.96001,6.400002 1.43998,6.400001 1.60001,6.239997 2.24001,6.24 2.39999,5.92 2.88,5.76 3.04,5.44 3.52,5.44 3.84,4.96 4,4.8"
       style="fill:none;stroke:#000000;stroke-width:26.4;stroke-linecap:round;stroke-linejoin:round;stroke-miterlimit:10;stroke-dasharray:none;stroke-opacity:1"
       transform="translate(411.81333,55.666608)"
       clip-path="url(#clipPath10)" />
  </g>
</svg>
