<?xml version="1.0" encoding="UTF-8" standalone="no"?>
<!-- Created with Inkscape (http://www.inkscape.org/) -->

<svg
   version="1.1"
   id="svg1"
   width="500.26666"
   height="288.32001"
   viewBox="0 0 500.26666 288.32001"
   sodipodi:docname="Silver28.pdf"
   xmlns:inkscape="http://www.inkscape.org/namespaces/inkscape"
   xmlns:sodipodi="http://sodipodi.sourceforge.net/DTD/sodipodi-0.dtd"
   xmlns="http://www.w3.org/2000/svg"
   xmlns:svg="http://www.w3.org/2000/svg">
  <defs
     id="defs1">
    <clipPath
       clipPathUnits="userSpaceOnUse"
       id="clipPath2">
      <path
         d="M 0,0.16 V 1122.5601 H 793.59998 V 0.16 Z"
         transform="translate(-170.24001,-648.47998)"
         clip-rule="evenodd"
         id="path2" />
    </clipPath>
    <clipPath
       clipPathUnits="userSpaceOnUse"
       id="clipPath4">
      <path
         d="M 0,0.16 V 1122.5601 H 793.59998 V 0.16 Z"
         transform="translate(-265.76001,-561.28003)"
         clip-rule="evenodd"
         id="path4" />
    </clipPath>
    <clipPath
       clipPathUnits="userSpaceOnUse"
       id="clipPath6">
      <path
         d="M 0,0.16 V 1122.5601 H 793.59998 V 0.16 Z"
         transform="translate(-546.88,-561.28003)"
         clip-rule="evenodd"
         id="path6" />
    </clipPath>
    <clipPath
       clipPathUnits="userSpaceOnUse"
       id="clipPath8">
      <path
         d="M 0,0.16 V 1122.5601 H 793.59998 V 0.16 Z"
         transform="translate(-265.76001,-561.28003)"
         clip-rule="evenodd"
         id="path8" />
    </clipPath>
    <clipPath
       clipPathUnits="userSpaceOnUse"
       id="clipPath10">
      <path
         d="M 0,0.16 V 1122.5601 H 793.59998 V 0.16 Z"
         transform="translate(-622.55999,-473.11999)"
         clip-rule="evenodd"
         id="path10" />
    </clipPath>
  </defs>
  <sodipodi:namedview
     id="namedview1"
     pagecolor="#505050"
     bordercolor="#eeeeee"
     borderopacity="1"
     inkscape:showpageshadow="0"
     inkscape:pageopacity="0"
     inkscape:pagecheckerboard="0"
     inkscape:deskcolor="#505050">
    <inkscape:page
       x="0"
       y="0"
       inkscape:label="1"
       id="page1"
       width="500.26666"
       height="288.32001"
       margin="0"
       bleed="0" />
  </sodipodi:namedview>
  <g
     id="g1"
     inkscape:groupmode="layer"
     inkscape:label="1">
    <path
       id="path1"
       d="m 0,0 5.12,5.12 5.28,4.8 5.6,4.32 5.92,4 6.08,3.68 6.240002,3.360001 6.399997,2.879999 6.560002,2.559999 6.719997,2.24 6.880001,1.760002 L 67.68,36 l 6.879998,0.799999 7.04,0.48 7.040001,0.16 7.040001,-0.48 6.88,-0.799999 7.04,-1.119999 6.72,-1.600002 6.88,-2.079998 6.55999,-2.400002 L 136.16,26.08 l 6.4,-3.200001 6.08,-3.519998 5.92,-4.000001 5.6,-4.32 5.44001,-4.64 5.11999,-4.96 4.8,-5.28 4.64,-5.44 4.16001,-5.92 3.83999,-5.920001 3.68,-6.399999 3.19999,-6.399998 2.72,-6.720001 2.40001,-6.720002 2.08,-7.040001 1.6,-7.039997 1.27999,-7.040004 0.96001,-7.199997 0.31999,-7.360001 0.16001,-7.199997 -0.48,-7.200004 -0.8,-7.199998 -1.12,-7.2 -1.6,-7.04 -2.08,-7.04 -2.24,-6.88 -2.88,-6.56 -3.03999,-6.56 -3.52001,-6.24 -3.83999,-6.08 -4.16001,-5.92 -4.47999,-5.59999 -4.80001,-5.28 -5.12001,-4.96001 -5.43998,-4.64 -5.60001,-4.47999 -5.75999,-4 -6.08001,-3.52001 -6.24,-3.36 -6.56,-2.88 -6.56,-2.56 -6.72,-2.08 -6.88,-1.59999 -6.88,-1.28 -6.879997,-0.96001 -7.040001,-0.31999 H 82.720001 L 75.68,-211.36 l -7.040001,0.8 -6.880001,1.28 -6.719997,1.76 -6.880001,2.08 -6.560002,2.40001 -6.399997,2.87999 -6.240002,3.19999 -6.08,3.68001 -5.92,4 -5.599999,4.31999 -5.44,4.64 -5.12,4.96001"
       style="fill:none;stroke:#000000;stroke-width:26.4;stroke-linecap:round;stroke-linejoin:round;stroke-miterlimit:10;stroke-dasharray:none;stroke-opacity:1"
       transform="translate(24.826672,233.35992)"
       clip-path="url(#clipPath2)" />
    <path
       id="path3"
       d="M 0,0 -0.16,-1.28 -0.48,-2.56 -0.96,-3.84 -1.6,-5.12 -2.4,-6.24 -3.36,-7.04 -4.32,-8 -5.6,-8.64 l -1.28,-0.32 -1.28,-0.32 -1.28,-0.16 -1.44,0.16 -1.28,0.32 -1.28,0.32 -1.12,0.64 -1.12,0.96 -0.959999,0.8 -0.800002,1.12 -0.639999,1.28 -0.479999,1.28 -0.32,1.28 V 0 1.44 l 0.32,1.28 L -18.08,4 l 0.639999,1.12 0.800002,1.12 0.959999,0.96 1.12,0.8 1.12,0.64 1.28,0.48 1.28,0.32 h 1.44 1.28 L -6.88,9.12 -5.6,8.64 -4.32,8 -3.36,7.2 -2.4,6.24 -1.6,5.12 -0.96,4 -0.48,2.72 -0.16,1.44 0,0 v 0 z"
       style="fill:#000000;fill-opacity:1;fill-rule:evenodd;stroke:none"
       transform="translate(120.34668,146.15997)"
       clip-path="url(#clipPath4)" />
    <path
       id="path5"
       d="M 0,0 -0.16,-1.28 -0.32,-2.56 -0.8,-3.84 -1.44,-5.12 -2.4,-6.24 -3.2,-7.04 -4.32,-8 -5.6,-8.64 l -1.12,-0.32 -1.44,-0.32 -1.28,-0.16 -1.28,0.16 -1.44,0.32 -1.28,0.32 -1.12,0.64 -1.12,0.96 -0.959999,0.8 -0.800002,1.12 -0.639999,1.28 -0.479999,1.28 -0.16,1.28 -0.16,1.28 0.16,1.44 0.16,1.28 L -18.08,4 l 0.639999,1.12 0.800002,1.12 0.959999,0.96 1.12,0.8 1.12,0.64 1.28,0.48 1.44,0.32 h 1.28 1.28 L -6.72,9.12 -5.6,8.64 -4.32,8 -3.2,7.2 -2.4,6.24 -1.44,5.12 -0.8,4 -0.32,2.72 -0.16,1.44 0,0 v 0 z"
       style="fill:#000000;fill-opacity:1;fill-rule:evenodd;stroke:none"
       transform="translate(401.46667,146.15997)"
       clip-path="url(#clipPath6)" />
    <path
       id="path7"
       d="M 0,0 -0.16,-1.28 -0.48,-2.56 -0.96,-3.84 -1.6,-5.12 -2.4,-6.24 -3.36,-7.04 -4.32,-8 -5.6,-8.64 l -1.28,-0.32 -1.28,-0.32 -1.28,-0.16 -1.44,0.16 -1.28,0.32 -1.28,0.32 -1.12,0.64 -1.12,0.96 -0.959999,0.8 -0.800002,1.12 -0.639999,1.28 -0.479999,1.28 -0.32,1.28 V 0 1.44 l 0.32,1.28 L -18.08,4 l 0.639999,1.12 0.800002,1.12 0.959999,0.96 1.12,0.8 1.12,0.64 1.28,0.48 1.28,0.32 h 1.44 1.28 L -6.88,9.12 -5.6,8.64 -4.32,8 -3.36,7.2 -2.4,6.24 -1.6,5.12 -0.96,4 -0.48,2.72 -0.16,1.44 0,0 m 281.12,0 -0.16001,-1.28 -0.16,-1.28 -0.47998,-1.28 -0.64002,-1.28 -0.95999,-1.12 -0.79999,-0.8 -1.12002,-0.96 -1.28,-0.64 -1.12,-0.32 -1.44,-0.32 -1.28,-0.16 -1.28,0.16 -1.44,0.32 -1.28,0.32 -1.11999,0.64 -1.12,0.96 -0.95999,0.8 -0.80002,1.12 -0.63998,1.28 -0.48001,1.28 -0.16001,1.28 -0.16,1.28 0.16,1.44 0.16001,1.28 0.48001,1.28 0.63998,1.12 0.80002,1.12 0.95999,0.96 1.12,0.8 1.11999,0.64 1.28,0.48 1.44,0.32 h 1.28 1.28 l 1.44,-0.32 1.12,-0.48 1.28,-0.64 1.12002,-0.8 0.79999,-0.96 0.95999,-1.12 0.64002,-1.12 0.47998,-1.28 0.16,-1.28 L 281.12,0"
       style="fill:none;stroke:#000000;stroke-width:0.48;stroke-linecap:round;stroke-linejoin:round;stroke-miterlimit:10;stroke-dasharray:none;stroke-opacity:1"
       transform="translate(120.34668,146.15997)"
       clip-path="url(#clipPath8)" />
    <path
       id="path9"
       d="m 0,0 -5.12,-4.96 -5.28,-4.64 -5.6,-4.32 -5.92,-4 -6.08,-3.68 -6.240002,-3.199999 -6.559997,-2.880001 -6.560002,-2.4 -6.720001,-2.08 -6.879997,-1.759998 -6.879997,-1.280003 L -74.720001,-36 l -7.040001,-0.32 h -7.040001 l -7.039993,0.32 -7.040004,0.959999 -6.88,1.280003 -6.72,1.599998 -6.72,2.08 -6.72,2.56 -6.40001,2.880001 -6.23999,3.359998 -6.08,3.520001 -5.92,4 -5.6,4.48 -5.28,4.64 -5.12,4.96 -4.8,5.28 -4.48,5.6 -4.16,5.920001 -3.84,6.08 -3.52,6.24 -3.2,6.559999 -2.72,6.560001 -2.39999,6.879998 -1.92002,7.040001 -1.59999,7.04 -1.28,7.200001 -0.8,7.199997 -0.32001,7.200005 V 92.32 l 0.48002,7.36 0.79998,7.2 1.28002,7.04 1.59999,7.04 2.08,7.04 2.56,6.72 2.72,6.72 3.2,6.4 3.52,6.4 3.84,5.92 4.32,5.92 4.48,5.44 4.96001,5.28 5.11999,4.95999 5.44,4.64 5.59999,4.32001 5.92002,4 6.07998,3.52 6.24001,3.2 6.56,2.88001 6.56,2.39999 6.72,2.08 6.88,1.59999 6.88,1.12001 7.039999,0.80001 7.040001,0.47999 7.040001,-0.16 6.879997,-0.48 7.040001,-0.8 6.880001,-1.28 6.880001,-1.75999 6.719997,-2.24001 6.560002,-2.56 6.400001,-2.88 6.239998,-3.36 6.080002,-3.67999 5.759999,-4 5.6,-4.32001 5.44,-4.8 4.96,-5.12"
       style="fill:none;stroke:#000000;stroke-width:26.4;stroke-linecap:round;stroke-linejoin:round;stroke-miterlimit:10;stroke-dasharray:none;stroke-opacity:1"
       transform="translate(477.14666,57.999936)"
       clip-path="url(#clipPath10)" />
  </g>
</svg>
