<?xml version="1.0" encoding="UTF-8" standalone="no"?>
<!-- Created with Inkscape (http://www.inkscape.org/) -->

<svg
   version="1.1"
   id="svg1"
   width="330.85333"
   height="500.54666"
   viewBox="0 0 330.85333 500.54666"
   sodipodi:docname="Silver19.pdf"
   xmlns:inkscape="http://www.inkscape.org/namespaces/inkscape"
   xmlns:sodipodi="http://sodipodi.sourceforge.net/DTD/sodipodi-0.dtd"
   xmlns="http://www.w3.org/2000/svg"
   xmlns:svg="http://www.w3.org/2000/svg">
  <defs
     id="defs1">
    <clipPath
       clipPathUnits="userSpaceOnUse"
       id="clipPath2">
      <path
         d="M 0,0.16 V 1122.5601 H 793.59998 V 0.16 Z"
         transform="translate(-539.03998,-387.83999)"
         clip-rule="evenodd"
         id="path2" />
    </clipPath>
    <clipPath
       clipPathUnits="userSpaceOnUse"
       id="clipPath4">
      <path
         d="M 0,0.16 V 1122.5601 H 793.59998 V 0.16 Z"
         transform="translate(-537.59998,-728.47998)"
         clip-rule="evenodd"
         id="path4" />
    </clipPath>
    <clipPath
       clipPathUnits="userSpaceOnUse"
       id="clipPath6">
      <path
         d="M 0,0.16 V 1122.5601 H 793.59998 V 0.16 Z"
         transform="translate(-452.48001,-355.67999)"
         clip-rule="evenodd"
         id="path6" />
    </clipPath>
    <clipPath
       clipPathUnits="userSpaceOnUse"
       id="clipPath8">
      <path
         d="M 0,0.16 V 1122.5601 H 793.59998 V 0.16 Z"
         transform="translate(-392.79999,-525.44)"
         clip-rule="evenodd"
         id="path8" />
    </clipPath>
  </defs>
  <sodipodi:namedview
     id="namedview1"
     pagecolor="#505050"
     bordercolor="#eeeeee"
     borderopacity="1"
     inkscape:showpageshadow="0"
     inkscape:pageopacity="0"
     inkscape:pagecheckerboard="0"
     inkscape:deskcolor="#505050">
    <inkscape:page
       x="0"
       y="0"
       inkscape:label="1"
       id="page1"
       width="330.85333"
       height="500.54666"
       margin="0"
       bleed="0" />
  </sodipodi:namedview>
  <g
     id="g1"
     inkscape:groupmode="layer"
     inkscape:label="1">
    <path
       id="path1"
       d="m 0,0 c 0,-25.969999 -21.059999,-47.040001 -47.040001,-47.040001 -25.979996,0 -47.040001,21.070002 -47.040001,47.040001 0,25.969999 21.060005,47.040001 47.040001,47.040001 C -21.059999,47.040001 0,25.969999 0,0 Z"
       style="fill:none;stroke:#000000;stroke-width:26.4;stroke-linecap:round;stroke-linejoin:round;stroke-miterlimit:10;stroke-dasharray:none;stroke-opacity:1"
       transform="translate(539.03998,393.1866)"
       clip-path="url(#clipPath2)" />
    <path
       id="path3"
       d="m 0,0 c 0,-26.24 -21.23,-47.52 -47.439999,-47.52 -26.210003,0 -47.439998,21.28 -47.439998,47.52 0,26.24 21.229995,47.52 47.439998,47.52 C -21.23,47.52 0,26.24 0,0 Z"
       style="fill:none;stroke:#000000;stroke-width:26.4;stroke-linecap:round;stroke-linejoin:round;stroke-miterlimit:10;stroke-dasharray:none;stroke-opacity:1"
       transform="translate(537.59998,733.82659)"
       clip-path="url(#clipPath4)" />
    <path
       id="path5"
       d="m 0,0 -4.8,-3.84 -5.28,-3.68 -5.28,-3.2 -5.599999,-3.04 -5.92,-2.56 -5.92,-2.239999 -6.080002,-1.760001 -6.079998,-1.28 -6.400002,-0.959999 -6.239997,-0.640002 -6.400002,-0.16 -6.239998,0.32 -6.240005,0.640001 -6.239998,1.119999 -6.239998,1.600001 -6.080002,1.92 -5.759999,2.24 -5.76,2.72 -5.6,3.04 -5.28,3.52 -5.12,3.68 -4.8,4.16 -4.64,4.32 -4.16,4.8 -4,4.96 -3.51999,5.119999 -3.36,5.440001 -2.88001,5.6 -2.40001,5.919998 L -154.39999,43.68 -156.16,49.759998 -157.44,56 l -0.95999,6.240002 -0.48001,6.399997 v 6.239998 l 0.32,6.400002 0.80001,6.239998 1.11999,6.240005 1.60001,6.079994 1.92,6.080004 2.39999,5.92 2.72,5.6 3.2,5.6 3.52,5.28001 3.84,4.95999 4.16,4.8 4.31999,4.48 4.80001,4.16 4.96,4 5.28,3.52 5.44,3.2 5.76,2.72 5.760001,2.56 6.080002,1.92 6.079994,1.75999 6.240005,1.12001 6.239998,0.96 6.239998,0.32"
       style="fill:none;stroke:#000000;stroke-width:26.4;stroke-linecap:round;stroke-linejoin:round;stroke-miterlimit:10;stroke-dasharray:none;stroke-opacity:1"
       transform="translate(452.48001,361.0266)"
       clip-path="url(#clipPath6)" />
    <path
       id="path7"
       d="M 0,0 -7.52,0.16 -15.04,0.64 -22.559999,1.6 -29.92,3.04 -37.279999,4.8 -44.48,7.04 -51.52,9.6 -58.400002,12.8 -65.120003,16.16 -71.68,20 l -6.239998,4.16 -5.919998,4.639999 -5.760002,4.799999 -5.440003,5.280003 L -100.32,44.32 l -4.8,5.920002 -4.48,6.079998 -4,6.240001 -3.84,6.560002 -3.36,6.719993 -2.88,7.040001 -2.56,7.040001 -2.08001,7.200005 -1.75999,7.359997 -1.28,7.52 -0.96001,7.52 -0.31999,7.52 v 7.52 l 0.48,7.52 0.8,7.52001 1.28,7.36 1.75999,7.36 2.24001,7.19999 2.56,7.2 2.88,6.88001 3.36,6.72 3.84,6.55999 4.16,6.4 4.48,6.08 4.8,5.75999 5.120003,5.44001 5.439995,5.28 5.760002,4.8 6.080002,4.64 6.239997,4.16 6.559998,3.84 6.720001,3.36 6.880001,3.03999 7.040001,2.56001 7.200001,2.24001 7.359999,1.75998 7.36,1.44 7.52,0.96002 7.52,0.47999 7.52,0.16 L 8,260.79999 15.36,260 l 7.519999,-1.12 7.360001,-1.76 7.199999,-2.08001 7.2,-2.39999 6.880001,-2.88001 6.880002,-3.36 6.400001,-3.83999"
       style="fill:none;stroke:#000000;stroke-width:26.4;stroke-linecap:round;stroke-linejoin:round;stroke-miterlimit:10;stroke-dasharray:none;stroke-opacity:1"
       transform="translate(392.79999,530.78661)"
       clip-path="url(#clipPath8)" />
  </g>
</svg>
