<?xml version="1.0" encoding="UTF-8" standalone="no"?>
<!-- Created with Inkscape (http://www.inkscape.org/) -->

<svg
   version="1.1"
   id="svg1"
   width="430.90668"
   height="505.89334"
   viewBox="0 0 430.90668 505.89334"
   sodipodi:docname="SilverLeaf2.pdf"
   xmlns:inkscape="http://www.inkscape.org/namespaces/inkscape"
   xmlns:sodipodi="http://sodipodi.sourceforge.net/DTD/sodipodi-0.dtd"
   xmlns="http://www.w3.org/2000/svg"
   xmlns:svg="http://www.w3.org/2000/svg">
  <defs
     id="defs1">
    <clipPath
       clipPathUnits="userSpaceOnUse"
       id="clipPath2">
      <path
         d="M 26.4,26.559999 V 1096.16 H 767.03998 V 26.559999 Z"
         transform="translate(-540.47998,-719.20002)"
         clip-rule="evenodd"
         id="path2" />
    </clipPath>
    <clipPath
       clipPathUnits="userSpaceOnUse"
       id="clipPath4">
      <path
         d="M 26.4,26.559999 V 1096.16 H 767.03998 V 26.559999 Z"
         transform="translate(-3.3333333e-6)"
         clip-rule="evenodd"
         id="path4" />
    </clipPath>
  </defs>
  <sodipodi:namedview
     id="namedview1"
     pagecolor="#505050"
     bordercolor="#eeeeee"
     borderopacity="1"
     inkscape:showpageshadow="0"
     inkscape:pageopacity="0"
     inkscape:pagecheckerboard="0"
     inkscape:deskcolor="#505050">
    <inkscape:page
       x="0"
       y="0"
       inkscape:label="1"
       id="page1"
       width="430.90668"
       height="505.89334"
       margin="0"
       bleed="0" />
  </sodipodi:namedview>
  <g
     id="g1"
     inkscape:groupmode="layer"
     inkscape:label="1">
    <path
       id="path1"
       d="m 0,0 -8.96,4.32 -9.28,3.68 -9.44,3.36 -9.599999,2.88 -9.600002,2.559999 -9.919998,1.92 L -66.720001,20.16 -76.800003,21.120001 -86.879997,21.76 H -96.959999 L -107.04,21.280001 -116.96,20.32 l -10.08,-1.279999 -9.76,-1.92 L -146.56,14.72 -156.16,12 -165.60001,8.64 -174.88,4.96 -184,0.8 l -8.8,-4.48 -8.48,-5.12 -8.16,-5.28 -8,-5.76 -7.52001,-6.24 -7.19999,-6.4 -6.87999,-6.880001 -6.40001,-7.2 -6.08,-7.359997 -5.6,-7.68 -5.11999,-8 -4.80002,-8.32 -4.16,-8.480004 -3.84,-8.479995 -3.19998,-8.800003 -2.88001,-8.96 -2.23999,-9.12 -1.76001,-9.12 -1.27999,-9.28 -0.80002,-9.28 -0.15998,-9.28 0.31998,-9.28 0.80002,-9.28 1.44,-9.28 1.75998,-9.11999 2.4,-8.96001 2.88,-8.96001 3.36002,-8.79998 4,-8.64 4.32,-8.32001 4.79999,-8.16 5.28,-8 5.60001,-7.68001 6.23999,-7.35999 6.40001,-7.04001 7.03999,-6.88 7.2,-6.39999 7.68,-6.07999 8,-5.60001 8.32,-5.44 8.48001,-4.79999 8.79999,-4.48001 9.12001,-4.16 9.27999,-3.51999 9.44001,-3.20001 9.59999,-2.72 9.92,-2.24 9.76,-1.76 10.08,-1.44001 10.08,-0.79999 9.919999,-0.32 10.080002,0.16 10.080002,0.63999 10.079994,1.12002 9.920002,1.59998 9.760002,1.92001 9.759998,2.56 9.600001,3.04001 9.28,3.35998 9.28,3.84 -8.96,1.6 -8.799999,1.92002 -8.799999,2.39999 -8.480004,2.88001 -8.479999,3.19998 -8.16,3.68002 -7.999996,4 -7.680001,4.31998 -7.520004,4.80002 -7.199997,5.11999 -6.880005,5.44 -6.559996,5.76001 -6.24,6.07999 -5.92,6.39999 -5.6,6.72001 -5.12,6.88 -4.79999,7.03999 -4.32001,7.52001 -4,7.52 -3.36,7.68 -3.2,8 -2.56,8 -2.08,8.16 -1.75999,8.16 -1.28002,8.31999 -0.64,8.32001 -0.31999,8.48 0.16001,8.32 0.64,8.32 1.11999,8.32 1.60001,8.32 2.07998,8.16 2.56002,8 3.03999,8 3.36,7.840003 3.84,7.519997 4.32,7.360001 4.64,7.199997 5.12,7.04 5.44,6.720002 5.76,6.400001 6.24,6.079998 6.559998,5.920002 6.720001,5.439999 7.200004,5.120001 L -76,-25.76 l 7.68,4.479999 7.84,4 8.16,3.680001 8.32,3.36 8.639999,2.88 8.640002,2.56 8.799999,2.08 8.96,1.6 L 0,0"
       style="fill:none;stroke:#000000;stroke-width:26.4;stroke-linecap:round;stroke-linejoin:round;stroke-miterlimit:10;stroke-dasharray:none;stroke-opacity:1"
       transform="translate(360.38665,413.53329)"
       clip-path="url(#clipPath2)" />
    <path
       id="path3"
       d="M 208,334.88 H 585.59998 V 787.84003 H 208 V 334.88"
       style="fill:none;stroke:#000000;stroke-width:26.4;stroke-linecap:round;stroke-linejoin:round;stroke-miterlimit:10;stroke-dasharray:none;stroke-opacity:1"
       transform="translate(-180.09333,-305.66673)"
       clip-path="url(#clipPath4)" />
  </g>
</svg>
