<?xml version="1.0" encoding="UTF-8" standalone="no"?>
<!-- Created with Inkscape (http://www.inkscape.org/) -->

<svg
   version="1.1"
   id="svg1"
   width="338.85333"
   height="468.50668"
   viewBox="0 0 338.85333 468.50668"
   sodipodi:docname="SilverFilings.pdf"
   xmlns:inkscape="http://www.inkscape.org/namespaces/inkscape"
   xmlns:sodipodi="http://sodipodi.sourceforge.net/DTD/sodipodi-0.dtd"
   xmlns="http://www.w3.org/2000/svg"
   xmlns:svg="http://www.w3.org/2000/svg">
  <defs
     id="defs1">
    <clipPath
       clipPathUnits="userSpaceOnUse"
       id="clipPath2">
      <path
         d="M 26.4,26.559999 V 1096.16 H 767.03998 V 26.559999 Z"
         transform="translate(-533.11999,-370.56)"
         clip-rule="evenodd"
         id="path2" />
    </clipPath>
    <clipPath
       clipPathUnits="userSpaceOnUse"
       id="clipPath4">
      <path
         d="M 26.4,26.559999 V 1096.16 H 767.03998 V 26.559999 Z"
         transform="translate(-533.11999,-370.56)"
         clip-rule="evenodd"
         id="path4" />
    </clipPath>
    <clipPath
       clipPathUnits="userSpaceOnUse"
       id="clipPath6">
      <path
         d="M 26.4,26.559999 V 1096.16 H 767.03998 V 26.559999 Z"
         transform="translate(-540.47998,-716.47998)"
         clip-rule="evenodd"
         id="path6" />
    </clipPath>
    <clipPath
       clipPathUnits="userSpaceOnUse"
       id="clipPath8">
      <path
         d="M 26.4,26.559999 V 1096.16 H 767.03998 V 26.559999 Z"
         transform="translate(-3.3333333e-6)"
         clip-rule="evenodd"
         id="path8" />
    </clipPath>
    <clipPath
       clipPathUnits="userSpaceOnUse"
       id="clipPath10">
      <path
         d="M 26.4,26.559999 V 1096.16 H 767.03998 V 26.559999 Z"
         transform="translate(-3.3333333e-6)"
         clip-rule="evenodd"
         id="path10" />
    </clipPath>
  </defs>
  <sodipodi:namedview
     id="namedview1"
     pagecolor="#505050"
     bordercolor="#eeeeee"
     borderopacity="1"
     inkscape:showpageshadow="0"
     inkscape:pageopacity="0"
     inkscape:pagecheckerboard="0"
     inkscape:deskcolor="#505050">
    <inkscape:page
       x="0"
       y="0"
       inkscape:label="1"
       id="page1"
       width="338.85333"
       height="468.50668"
       margin="0"
       bleed="0" />
  </sodipodi:namedview>
  <g
     id="g1"
     inkscape:groupmode="layer"
     inkscape:label="1">
    <path
       id="path1"
       d="m 0,0 -8.64,-4 -8.800001,-3.52 -9.119998,-3.2 -9.280001,-2.56 -9.279999,-2.24 -9.440002,-1.760001 L -64,-18.559999 -73.599998,-19.360001 -83.199997,-19.68 h -9.600006 L -102.4,-19.040001 -112,-17.92 l -9.44,1.44 -9.28,2.08 -9.28,2.4 -9.11999,3.04 -9.12001,3.36 -8.79999,3.84 -8.48001,4.16 -8.48,4.64 -8.16,5.12 -7.84,5.44 -7.67999,5.760001 L -214.88,29.6 l -7.04,6.56 -6.72,6.880001 -6.24,7.200001 -6.08001,7.679996 -5.43998,7.68 -5.28,8.160004 -4.80002,8.32 -4.31998,8.479996 -4,8.800003 -3.52002,8.959999 -3.03998,9.12 -2.56002,9.12 L -276,136 l -1.76001,9.44 -1.11999,9.44 -0.79999,9.6 -0.32001,9.6 0.16,9.59999 0.79999,9.60001 1.12,9.44 1.6,9.44 2.08002,9.44001 2.56,9.27999 2.88,9.12 3.51999,8.96001 3.84,8.8 4.32,8.47998 4.64,8.32001 5.12,8.16 5.60001,7.84 5.91999,7.51999 6.23999,7.36001 6.56002,6.88001 7.03999,6.72 7.2,6.23999 7.52,5.92001 7.84,5.44 8.16,5.12 8.31999,4.79999 8.64,4.32 8.80001,3.84 8.96,3.35999 9.12,3.04001 9.28,2.55999 9.28,2.08002 9.44,1.59998 9.6,1.12002 9.600002,0.63999 9.599999,0.32 9.599998,-0.32 9.440003,-0.79999 9.599998,-1.12 9.439999,-1.76001 9.280002,-2.08001 9.279999,-2.71998 9.120001,-3.04 8.959999,-3.52002 8.64,-3.84 8.48,-4.47998"
       style="fill:none;stroke:#000000;stroke-width:26.4;stroke-linecap:round;stroke-linejoin:round;stroke-miterlimit:10;stroke-dasharray:none;stroke-opacity:1"
       transform="translate(307.66666,44.866606)"
       clip-path="url(#clipPath2)" />
    <path
       id="path3"
       d="M 0,0 -8.64,1.76 -17.280001,3.84 -25.92,6.4 l -8.320002,2.88 -8.319999,3.36 -8,3.84 -7.840001,4.319999 -7.68,4.640002 -7.36,4.959999 -7.199997,5.28 -6.879998,5.759999 -6.560005,6.080001 -6.079998,6.399998 -5.92,6.720001 -5.6,7.040001 -5.12,7.199997 -4.8,7.520005 -4.48,7.839996 -4,8 -3.52001,8.160002 -3.19999,8.32 -2.72,8.48 -2.23999,8.64 -1.92,8.8 -1.44,8.8 -0.80001,8.8 -0.64,8.96 v 8.96 l 0.48,8.80001 0.8,8.95999 1.28,8.8 1.92,8.8 2.08,8.64 2.72,8.48 3.04,8.32001 3.52,8.15998 4,8.16001 4.32,7.67999 4.64,7.68002 5.12,7.19999 5.44,7.04 5.92,6.88001 6.080003,6.39999 6.559998,6.07999 6.720001,5.92001 7.040001,5.44001 7.36,4.95999 7.679997,4.79999 7.84,4.32 8,3.84 8.16,3.52002 8.32,3.03998 8.640001,2.56002 8.639999,2.23999 8.8,1.76001 8.64,1.12"
       style="fill:none;stroke:#000000;stroke-width:26.4;stroke-linecap:round;stroke-linejoin:round;stroke-miterlimit:10;stroke-dasharray:none;stroke-opacity:1"
       transform="translate(307.66666,44.866606)"
       clip-path="url(#clipPath4)" />
    <path
       id="path5"
       d="m 0,0 -8.96,4.48 -9.28,4.16 -9.44,3.52 -9.599999,3.2 -9.600002,2.56 -9.919998,2.24 -9.920002,1.6 -10.080002,0.959999 -10.079994,0.640002 H -96.959999 L -107.04,22.879999 -116.96,21.92 l -10.08,-1.44 -9.76,-2.08 -9.76,-2.56 -9.6,-3.04 -9.44001,-3.52 -9.27999,-4 -9.12,-4.48 -8.8,-4.96 -8.48,-5.44 -8.16,-5.76 -8,-6.24 -7.52001,-6.72 -7.19999,-7.040001 -6.87999,-7.36 -6.40001,-7.84 -6.08,-8 -5.6,-8.319996 -5.11999,-8.800003 -4.80002,-8.800003 -4.16,-9.119995 -3.84,-9.440002 -3.19998,-9.44 -2.88001,-9.76 -2.23999,-9.76 -1.76001,-9.92 -1.27999,-10.08 -0.80002,-10.08 -0.15998,-10.08 0.31998,-10.08 0.80002,-9.92 1.44,-10.08 1.75998,-9.92 2.4,-9.76 2.88,-9.6 3.36002,-9.59999 4,-9.28 4.32,-9.12 4.79999,-8.80002 5.28,-8.63998 5.60001,-8.32001 6.23999,-8 6.40001,-7.67999 7.03999,-7.36002 7.2,-6.88 7.68,-6.56 8,-6.23999 8.32,-5.76001 8.48001,-5.28 8.79999,-4.79999 9.12001,-4.48001 9.27999,-3.83999 9.44001,-3.51999 9.59999,-2.88001 9.92,-2.56 9.76,-1.92001 10.08,-1.28 10.08,-0.95999 10.080003,-0.32001 10.079994,0.16001 9.920006,0.64001 10.079994,1.12 9.920002,1.75998 9.760002,2.24002 9.759998,2.72 9.600001,3.19998 9.28,3.68002 9.28,4.15998 -8.96,1.76001 -8.799999,2.08001 -8.799999,2.72 -8.480004,3.03998 -8.479999,3.36002 -8.16,4 -7.999996,4.31998 -7.680001,4.80001 -7.520004,5.12 -7.199997,5.6 -6.880005,5.91999 -6.559996,6.24002 -6.24,6.56 -5.92,6.88 -5.6,7.19998 -5.12,7.52002 -4.79999,7.67999 -4.32001,8.00001 -4,8.15998 -3.36,8.48001 -3.2,8.48 -2.56,8.8 -2.08,8.80001 -1.75999,8.95999 -1.28002,8.96 -0.64,8.96 -0.31999,9.12001 0.16001,9.11999 0.64,9.12 1.11999,8.96 1.60001,8.96 2.07998,8.8 2.56002,8.8 3.03999,8.48 3.36,8.48 3.84,8.160003 4.32,8.159996 4.64,7.680001 5.12,7.519996 5.44,7.360001 5.76,6.880005 6.24,6.719997 6.559998,6.240002 6.720001,6.079998 7.200004,5.600002 L -76,-28.16 l 7.68,4.959999 7.84,4.320002 8.16,3.999999 8.32,3.68 8.639999,3.04 8.640002,2.72 L -17.92,-3.2 -8.96,-1.44 0,0"
       style="fill:none;stroke:#000000;stroke-width:26.4;stroke-linecap:round;stroke-linejoin:round;stroke-miterlimit:10;stroke-dasharray:none;stroke-opacity:1"
       transform="translate(315.02665,390.78659)"
       clip-path="url(#clipPath6)" />
    <path
       id="path7"
       d="M 491.20001,545.44 302.39999,734.08002"
       style="fill:none;stroke:#000000;stroke-width:26.4;stroke-linecap:round;stroke-linejoin:round;stroke-miterlimit:10;stroke-dasharray:none;stroke-opacity:1"
       transform="translate(-225.45333,-325.69339)"
       clip-path="url(#clipPath8)" />
    <path
       id="path9"
       d="M 528.96002,583.20001 340.16,771.84003"
       style="fill:none;stroke:#000000;stroke-width:26.4;stroke-linecap:round;stroke-linejoin:round;stroke-miterlimit:10;stroke-dasharray:none;stroke-opacity:1"
       transform="translate(-225.45333,-325.69339)"
       clip-path="url(#clipPath10)" />
  </g>
</svg>
