<?xml version="1.0" encoding="UTF-8" standalone="no"?>
<!-- Created with Inkscape (http://www.inkscape.org/) -->

<svg
   version="1.1"
   id="svg1"
   width="496.26666"
   height="213.57333"
   viewBox="0 0 496.26666 213.57333"
   sodipodi:docname="Silver15.pdf"
   xmlns:inkscape="http://www.inkscape.org/namespaces/inkscape"
   xmlns:sodipodi="http://sodipodi.sourceforge.net/DTD/sodipodi-0.dtd"
   xmlns="http://www.w3.org/2000/svg"
   xmlns:svg="http://www.w3.org/2000/svg">
  <defs
     id="defs1">
    <clipPath
       clipPathUnits="userSpaceOnUse"
       id="clipPath2">
      <path
         d="M 0,0.16 V 1122.5601 H 793.59998 V 0.16 Z"
         transform="translate(-189.12,-476.32001)"
         clip-rule="evenodd"
         id="path2" />
    </clipPath>
    <clipPath
       clipPathUnits="userSpaceOnUse"
       id="clipPath4">
      <path
         d="M 0,0.16 V 1122.5601 H 793.59998 V 0.16 Z"
         transform="translate(-377.92001,-476.32001)"
         clip-rule="evenodd"
         id="path4" />
    </clipPath>
    <clipPath
       clipPathUnits="userSpaceOnUse"
       id="clipPath6">
      <path
         d="M 0,0.16 V 1122.5601 H 793.59998 V 0.16 Z"
         transform="translate(-3.3333333e-6)"
         clip-rule="evenodd"
         id="path6" />
    </clipPath>
    <clipPath
       clipPathUnits="userSpaceOnUse"
       id="clipPath8">
      <path
         d="M 0,0.16 V 1122.5601 H 793.59998 V 0.16 Z"
         transform="translate(-3.3333333e-6)"
         clip-rule="evenodd"
         id="path8" />
    </clipPath>
    <clipPath
       clipPathUnits="userSpaceOnUse"
       id="clipPath10">
      <path
         d="M 0,0.16 V 1122.5601 H 793.59998 V 0.16 Z"
         transform="translate(-3.3333333e-6)"
         clip-rule="evenodd"
         id="path10" />
    </clipPath>
  </defs>
  <sodipodi:namedview
     id="namedview1"
     pagecolor="#505050"
     bordercolor="#eeeeee"
     borderopacity="1"
     inkscape:showpageshadow="0"
     inkscape:pageopacity="0"
     inkscape:pagecheckerboard="0"
     inkscape:deskcolor="#505050">
    <inkscape:page
       x="0"
       y="0"
       inkscape:label="1"
       id="page1"
       width="496.26666"
       height="213.57333"
       margin="0"
       bleed="0" />
  </sodipodi:namedview>
  <g
     id="g1"
     inkscape:groupmode="layer"
     inkscape:label="1">
    <path
       id="path1"
       d="m 0,0 0.16,8.96 0.48,8.8 0.8,8.799999 1.12,8.800002 L 4,44 l 1.6,8.48 1.92,8.479999 2.4,8.160004 2.56,8 2.72,7.839996 3.2,7.68 3.36,7.199997 3.520001,7.040004 3.84,6.88 4.159998,6.4 4.319999,6.08 4.480004,5.76 4.639999,5.44 4.959999,5.12 4.959999,4.64 5.279999,4.16 5.279999,3.84 5.600006,3.52 5.599999,2.88001 L 84,164.16 l 5.760002,2.08 5.919998,1.6 5.76,1.12001 5.92,0.79998 5.92,0.16001 5.92,-0.16001 5.92,-0.79998 5.91999,-1.12001 5.92002,-1.6 5.75999,-2.08 5.60001,-2.55999 5.59999,-2.88001 5.44,-3.52 5.44,-3.84 5.12,-4.16 5.11999,-4.64 4.80001,-5.12 4.8,-5.44 4.47999,-5.76 4.32001,-6.08 4,-6.4 4,-6.88 3.52001,-7.040004 3.36,-7.199997 3.03999,-7.68 2.88,-7.839996 2.56,-8 2.23999,-8.160004 2.08,-8.479999 L 222.72,44 224.16,35.360001 225.28,26.559999 225.92,17.76 226.39999,8.96 226.56,0"
       style="fill:none;stroke:#000000;stroke-width:26.4;stroke-linecap:round;stroke-linejoin:round;stroke-miterlimit:10;stroke-dasharray:none;stroke-opacity:1"
       transform="translate(39.706662,19.826615)"
       clip-path="url(#clipPath2)" />
    <path
       id="path3"
       d="m 0,0 0.16,8.96 0.48,8.8 0.8,8.799999 1.12,8.800002 L 3.84,44 l 1.76,8.48 1.92,8.479999 2.4,8.160004 2.4,8 2.88,7.839996 3.2,7.68 3.36,7.199997 3.520001,7.040004 3.84,6.88 4.159998,6.4 4.319999,6.08 4.480004,5.76 4.639999,5.44 4.959999,5.12 4.959999,4.64 5.279999,4.16 5.279999,3.84 5.600006,3.52 5.599999,2.88001 L 84,164.16 l 5.760002,2.08 5.919998,1.6 5.76,1.12001 5.92,0.79998 5.92,0.16001 5.92,-0.16001 5.92,-0.79998 5.91999,-1.12001 5.76001,-1.6 5.92,-2.08 5.60001,-2.55999 5.59999,-2.88001 5.44,-3.52 5.44,-3.84 5.12,-4.16 5.11999,-4.64 4.80001,-5.12 4.8,-5.44 4.47999,-5.76 4.32001,-6.08 4,-6.4 3.84,-6.88 3.68001,-7.040004 3.36,-7.199997 3.03999,-7.68 2.88,-7.839996 2.56,-8 2.23999,-8.160004 2.08,-8.479999 L 222.72,44 224.16,35.360001 225.28,26.559999 225.92,17.76 226.39999,8.96 226.56,0"
       style="fill:none;stroke:#000000;stroke-width:26.4;stroke-linecap:round;stroke-linejoin:round;stroke-miterlimit:10;stroke-dasharray:none;stroke-opacity:1"
       transform="translate(228.50668,19.826615)"
       clip-path="url(#clipPath4)" />
    <path
       id="path5"
       d="M 170.24,476.32001 H 208"
       style="fill:none;stroke:#000000;stroke-width:26.4;stroke-linecap:round;stroke-linejoin:round;stroke-miterlimit:10;stroke-dasharray:none;stroke-opacity:1"
       transform="translate(-149.41333,-456.49339)"
       clip-path="url(#clipPath6)" />
    <path
       id="path7"
       d="m 585.59998,476.32001 h 37.76"
       style="fill:none;stroke:#000000;stroke-width:26.4;stroke-linecap:round;stroke-linejoin:round;stroke-miterlimit:10;stroke-dasharray:none;stroke-opacity:1"
       transform="translate(-149.41333,-456.49339)"
       clip-path="url(#clipPath8)" />
    <path
       id="path9"
       d="M 359.04001,476.32001 H 434.56"
       style="fill:none;stroke:#000000;stroke-width:26.4;stroke-linecap:round;stroke-linejoin:round;stroke-miterlimit:10;stroke-dasharray:none;stroke-opacity:1"
       transform="translate(-149.41333,-456.49339)"
       clip-path="url(#clipPath10)" />
  </g>
</svg>
