<?xml version="1.0" encoding="UTF-8" standalone="no"?>
<!-- Created with Inkscape (http://www.inkscape.org/) -->

<svg
   version="1.1"
   id="svg1"
   width="350.85333"
   height="493.86667"
   viewBox="0 0 350.85333 493.86667"
   sodipodi:docname="Silver17.pdf"
   xmlns:inkscape="http://www.inkscape.org/namespaces/inkscape"
   xmlns:sodipodi="http://sodipodi.sourceforge.net/DTD/sodipodi-0.dtd"
   xmlns="http://www.w3.org/2000/svg"
   xmlns:svg="http://www.w3.org/2000/svg">
  <defs
     id="defs1">
    <clipPath
       clipPathUnits="userSpaceOnUse"
       id="clipPath2">
      <path
         d="M 0,0.16 V 1122.5601 H 793.59998 V 0.16 Z"
         transform="translate(-396.79999,-524.96002)"
         clip-rule="evenodd"
         id="path2" />
    </clipPath>
    <clipPath
       clipPathUnits="userSpaceOnUse"
       id="clipPath4">
      <path
         d="M 0,0.16 V 1122.5601 H 793.59998 V 0.16 Z"
         clip-rule="evenodd"
         id="path4" />
    </clipPath>
    <clipPath
       clipPathUnits="userSpaceOnUse"
       id="clipPath6">
      <path
         d="M 0,0.16 V 1122.5601 H 793.59998 V 0.16 Z"
         clip-rule="evenodd"
         id="path6" />
    </clipPath>
  </defs>
  <sodipodi:namedview
     id="namedview1"
     pagecolor="#505050"
     bordercolor="#eeeeee"
     borderopacity="1"
     inkscape:showpageshadow="0"
     inkscape:pageopacity="0"
     inkscape:pagecheckerboard="0"
     inkscape:deskcolor="#505050">
    <inkscape:page
       x="0"
       y="0"
       inkscape:label="1"
       id="page1"
       width="350.85333"
       height="493.86667"
       margin="0"
       bleed="0" />
  </sodipodi:namedview>
  <g
     id="g1"
     inkscape:groupmode="layer"
     inkscape:label="1">
    <path
       id="path1"
       d="M 0,0 -7.04,0.32 -14.08,0.96 -20.959999,2.08 -27.84,3.52 -34.720001,5.6 -41.279999,8 -47.84,10.88 l -6.240002,3.2 -6.079998,3.52 -5.759998,4 -5.599999,4.32 -5.280006,4.799999 -4.959999,4.960001 -4.64,5.279999 -4.319999,5.600002 -4,5.919999 -3.519997,6.080001 -3.200002,6.399998 -2.72,6.400002 -2.4,6.720001 -1.92,6.720001 -1.44,7.039993 -1.12,6.880005 -0.48,7.039999 -0.16,7.04 0.16,7.2 0.8,6.88 1.12,7.04 1.6,6.88 2.08,6.72 2.56,6.72 2.72,6.4 3.360001,6.24 3.680001,6.08001 4,5.75999 4.479995,5.44 4.64,5.28 5.120002,4.95999 5.440003,4.64 5.599998,4.16001 5.919998,4 6.080002,3.36 6.400002,3.19999 6.399998,2.72001 6.720001,2.24 6.879999,1.92 6.879999,1.44 7.040001,0.95999 7.04,0.48001 7.04,0.15999 7.04,-0.31999 7.04,-0.8 6.880001,-1.28 6.879999,-1.76 6.719999,-2.08 6.720002,-2.56 L 49.759998,212 56,208.64 61.919998,204.96001 67.68,200.8 l 5.599999,-4.32 5.120003,-4.80001 4.799995,-5.11999 4.639999,-5.44001 L 92,175.36 l 3.839996,-5.92 3.520005,-6.08 3.039999,-6.39999 2.56,-6.56002 2.24,-6.72 1.76,-6.87999 1.44,-6.88 0.96,-7.04 0.48,-7.04 v -7.04 l -0.48,-7.04 -0.8,-7.039999 -1.28,-6.880005 -1.76,-6.879997 -2.24,-6.720001 L 102.72,67.68 99.839996,61.279999 96.32,55.040001 92.639999,49.119999 88.480003,43.360001 84,37.919998 79.040001,32.639999"
       style="fill:none;stroke:#000000;stroke-width:26.4;stroke-linecap:round;stroke-linejoin:round;stroke-miterlimit:10;stroke-dasharray:none;stroke-opacity:1"
       transform="translate(176.67999,209.94663)"
       clip-path="url(#clipPath2)" />
    <path
       id="path3"
       d="M 475.84,557.59998 430.88,512.15997 385.28,467.20001 339.20001,422.56 292.79999,378.39999 245.75999,334.72"
       style="fill:none;stroke:#000000;stroke-width:26.4;stroke-linecap:round;stroke-linejoin:round;stroke-miterlimit:10;stroke-dasharray:none;stroke-opacity:1"
       transform="translate(-220.12,-315.01339)"
       clip-path="url(#clipPath4)" />
    <path
       id="path5"
       d="M 245.75999,787.84003 547.84003,485.76001"
       style="fill:none;stroke:#000000;stroke-width:26.4;stroke-linecap:round;stroke-linejoin:round;stroke-miterlimit:10;stroke-dasharray:none;stroke-opacity:1"
       transform="translate(-220.12,-315.01339)"
       clip-path="url(#clipPath6)" />
  </g>
</svg>
