<?xml version="1.0" encoding="UTF-8" standalone="no"?>
<!-- Created with Inkscape (http://www.inkscape.org/) -->

<svg
   version="1.1"
   id="svg1"
   width="468.23999"
   height="497.88"
   viewBox="0 0 468.23999 497.88"
   sodipodi:docname="Silver8.pdf"
   xmlns:inkscape="http://www.inkscape.org/namespaces/inkscape"
   xmlns:sodipodi="http://sodipodi.sourceforge.net/DTD/sodipodi-0.dtd"
   xmlns="http://www.w3.org/2000/svg"
   xmlns:svg="http://www.w3.org/2000/svg">
  <defs
     id="defs1">
    <clipPath
       clipPathUnits="userSpaceOnUse"
       id="clipPath2">
      <path
         d="M 0,0.16 V 1122.5601 H 793.59998 V 0.16 Z"
         transform="translate(-409.44,-339.51999)"
         clip-rule="evenodd"
         id="path2" />
    </clipPath>
    <clipPath
       clipPathUnits="userSpaceOnUse"
       id="clipPath4">
      <path
         d="M 0,0.16 V 1122.5601 H 793.59998 V 0.16 Z"
         transform="translate(-357.92001,-460.95999)"
         clip-rule="evenodd"
         id="path4" />
    </clipPath>
    <clipPath
       clipPathUnits="userSpaceOnUse"
       id="clipPath6">
      <path
         d="M 0,0.16 V 1122.5601 H 793.59998 V 0.16 Z"
         transform="translate(-608.79998,-357.76001)"
         clip-rule="evenodd"
         id="path6" />
    </clipPath>
  </defs>
  <sodipodi:namedview
     id="namedview1"
     pagecolor="#505050"
     bordercolor="#eeeeee"
     borderopacity="1"
     inkscape:showpageshadow="0"
     inkscape:pageopacity="0"
     inkscape:pagecheckerboard="0"
     inkscape:deskcolor="#505050">
    <inkscape:page
       x="0"
       y="0"
       inkscape:label="1"
       id="page1"
       width="468.23999"
       height="497.88"
       margin="0"
       bleed="0" />
  </sodipodi:namedview>
  <g
     id="g1"
     inkscape:groupmode="layer"
     inkscape:label="1">
    <path
       id="path1"
       d="M 0,0 -10.08,0.16 -20.16,0.8 -30.24,1.92 -40.32,3.52 -50.240002,5.44 -60.16,8 l -9.759998,2.88 -9.599999,3.36 -9.280006,3.68 -9.279999,4.32 L -107.2,26.879999 -116,31.84 l -8.48,5.439999 -8.32,5.920002 -8,6.079998 -7.84,6.560001 -7.36,7.040001 -7.2,7.200001 -6.72,7.519996 -6.40001,8 -6.07998,8.160004 L -188,102.08 l -5.28,8.64 -4.96,8.96 -4.32,9.12 -4.16,9.28 -3.52,9.59999 -3.2,9.60001 -2.72,9.75999 -2.23999,9.92002 -1.76001,10.07998 -1.44001,9.92002 -0.79998,10.23999 -0.48001,10.08 0.16,10.24 0.48,10.08001 0.96,10.07998 1.44,10.08002 1.92,9.91998 2.4,9.92002 2.72,9.75998 3.36,9.6 3.68001,9.44 4.15998,9.28 4.48002,9.12 4.95999,8.80002 5.44,8.63998 5.75999,8.32001 6.08001,8.16 6.4,7.84 6.87999,7.51999 7.20002,7.04001 7.51999,6.88 7.84001,6.56 8.15999,6.08001 8.32,5.75998 8.64,5.28 8.8,4.96002 9.12,4.63999 9.279999,4 9.440002,3.67999 9.599999,3.36002 9.760002,2.72 L -48,437.44 l 9.919998,1.91999 10.080002,1.44 10.08,0.96002 10.08,0.47998"
       style="fill:none;stroke:#000000;stroke-width:26.4;stroke-linecap:round;stroke-linejoin:round;stroke-miterlimit:10;stroke-dasharray:none;stroke-opacity:1"
       transform="translate(245.34667,31.186597)"
       clip-path="url(#clipPath2)" />
    <path
       id="path3"
       d="m 0,0 3.52,4 3.84,3.68 4.16,3.2 4.32,3.04 4.48,2.719999 4.639999,2.400002 4.800001,2.08 5.120001,1.759998 L 39.84,24.16 45.119999,25.120001 50.240002,25.76 55.52,26.08 60.799999,25.92 66.080002,25.440001 71.199997,24.48 76.32,23.200001 81.440002,21.6 86.239998,19.68 91.040001,17.280001 95.519997,14.72 99.839996,11.68 104,8.48 l 4,-3.68 3.52,-3.68 3.36,-4.16 3.04,-4.32 2.72,-4.48 2.4,-4.64 2.08,-4.960001 1.76,-4.959999 1.28,-5.12 0.95999,-5.119999 0.64,-5.279999 L 129.92,-47.200001 129.75999,-52.32 129.28,-57.599998 128.32001,-62.880001 127.2,-68 l -1.76,-4.959999 -1.92,-4.800003 -2.24,-4.799996 -2.72,-4.480003 -3.04,-4.479996 -3.2,-4 -3.52,-4 -3.84,-3.520003 -4.16,-3.36 -4.319997,-3.04 L 92,-112.16 l -4.639999,-2.4 -4.800003,-2.08 -4.96,-1.76 -5.119995,-1.28 -5.280006,-0.96 -5.119995,-0.64 -5.280003,-0.16 -5.279999,0.16 -5.279998,0.48"
       style="fill:none;stroke:#000000;stroke-width:26.4;stroke-linecap:round;stroke-linejoin:round;stroke-miterlimit:10;stroke-dasharray:none;stroke-opacity:1"
       transform="translate(193.82668,152.6266)"
       clip-path="url(#clipPath4)" />
    <path
       id="path5"
       d="m 0,0 -4.16,-3.52 -4.48,-3.2 -4.64,-2.88 -4.8,-2.56 -4.960001,-2.08 L -28.32,-16 -33.599998,-17.440001 -39.040001,-18.4 -44.48,-18.879999 l -5.439998,-0.160002 -5.440003,0.160002 -5.439998,0.799999 -5.280003,0.959999 -5.279999,1.600001 -5.279998,1.76 -4.959999,2.24 -4.800004,2.72 -4.479995,2.88 -4.480004,3.36 -4,3.68 -3.839999,3.84 -3.52,4.16 -3.2,4.48 -2.88,4.64 -2.4,4.960001 -2.24,4.959999 -1.6,5.279999 -1.44,5.280002 -0.8,5.439999 -0.64,5.439998 v 5.440003 l 0.32,5.439999 0.64,5.439998 1.12,5.440003 1.6,5.120002 1.76,5.119995 2.4,5.120003 2.56,4.64 3.04,4.639999 3.36,4.32 3.68,4.16 3.999998,3.68 4.160003,3.52 4.479996,3.2 4.639999,2.72 4.960007,2.4 5.119995,2.08 5.120003,1.76 5.279999,1.28 5.439998,0.8 5.440003,0.48 5.439998,0.16 5.440003,-0.32 5.439998,-0.8 5.439999,-1.12 5.280001,-1.6 5.120001,-1.92 4.799999,-2.4 4.8,-2.72 4.64,-3.04 4.16,-3.36"
       style="fill:none;stroke:#000000;stroke-width:26.4;stroke-linecap:round;stroke-linejoin:round;stroke-miterlimit:10;stroke-dasharray:none;stroke-opacity:1"
       transform="translate(444.70665,49.426618)"
       clip-path="url(#clipPath6)" />
  </g>
</svg>
