<?xml version="1.0" encoding="UTF-8" standalone="no"?>
<!-- Created with Inkscape (http://www.inkscape.org/) -->

<svg
   version="1.1"
   id="svg1"
   width="498.93332"
   height="329.69333"
   viewBox="0 0 498.93332 329.69333"
   sodipodi:docname="Silver18.pdf"
   xmlns:inkscape="http://www.inkscape.org/namespaces/inkscape"
   xmlns:sodipodi="http://sodipodi.sourceforge.net/DTD/sodipodi-0.dtd"
   xmlns="http://www.w3.org/2000/svg"
   xmlns:svg="http://www.w3.org/2000/svg">
  <defs
     id="defs1">
    <clipPath
       clipPathUnits="userSpaceOnUse"
       id="clipPath2">
      <path
         d="M 0,0.16 V 1122.5601 H 793.59998 V 0.16 Z"
         transform="translate(-527.03997,-510.72001)"
         clip-rule="evenodd"
         id="path2" />
    </clipPath>
    <clipPath
       clipPathUnits="userSpaceOnUse"
       id="clipPath4">
      <path
         d="M 0,0.16 V 1122.5601 H 793.59998 V 0.16 Z"
         transform="translate(-452.48001,-474.56)"
         clip-rule="evenodd"
         id="path4" />
    </clipPath>
    <clipPath
       clipPathUnits="userSpaceOnUse"
       id="clipPath6">
      <path
         d="M 0,0.16 V 1122.5601 H 793.59998 V 0.16 Z"
         transform="translate(-452.48001,-474.56)"
         clip-rule="evenodd"
         id="path6" />
    </clipPath>
    <clipPath
       clipPathUnits="userSpaceOnUse"
       id="clipPath8">
      <path
         d="M 0,0.16 V 1122.5601 H 793.59998 V 0.16 Z"
         transform="translate(-267.20001,-569.91999)"
         clip-rule="evenodd"
         id="path8" />
    </clipPath>
    <clipPath
       clipPathUnits="userSpaceOnUse"
       id="clipPath10">
      <path
         d="M 0,0.16 V 1122.5601 H 793.59998 V 0.16 Z"
         transform="translate(-341.76001,-602.40003)"
         clip-rule="evenodd"
         id="path10" />
    </clipPath>
    <clipPath
       clipPathUnits="userSpaceOnUse"
       id="clipPath12">
      <path
         d="M 0,0.16 V 1122.5601 H 793.59998 V 0.16 Z"
         transform="translate(-341.76001,-602.40003)"
         clip-rule="evenodd"
         id="path12" />
    </clipPath>
    <clipPath
       clipPathUnits="userSpaceOnUse"
       id="clipPath14">
      <path
         d="M 0,0.16 V 1122.5601 H 793.59998 V 0.16 Z"
         transform="translate(-3.3333333e-6)"
         clip-rule="evenodd"
         id="path14" />
    </clipPath>
  </defs>
  <sodipodi:namedview
     id="namedview1"
     pagecolor="#505050"
     bordercolor="#eeeeee"
     borderopacity="1"
     inkscape:showpageshadow="0"
     inkscape:pageopacity="0"
     inkscape:pagecheckerboard="0"
     inkscape:deskcolor="#505050">
    <inkscape:page
       x="0"
       y="0"
       inkscape:label="1"
       id="page1"
       width="498.93332"
       height="329.69333"
       margin="0"
       bleed="0" />
  </sodipodi:namedview>
  <g
     id="g1"
     inkscape:groupmode="layer"
     inkscape:label="1">
    <path
       id="path1"
       d="m 0,0 6.24,-0.8 6.24,-1.28 6.239999,-1.44 6.08,-1.6 5.92,-1.92 5.92,-2.08 5.760003,-2.4 L 48,-14.08 l 5.279999,-2.719999 5.120003,-2.880001 4.799999,-3.039999 4.639995,-3.200001 4.320008,-3.360001 4,-3.359998 L 80,-36.32 83.360001,-40 l 2.879997,-3.68 2.720001,-3.84 2.239998,-3.840001 1.920006,-3.84 1.439995,-4 1.120002,-3.84 0.64,-3.839996 0.319999,-3.840004 -0.159996,-3.839997 -0.480003,-3.68 -0.959999,-3.68 -1.279999,-3.520004 L 92,-88.800003 89.760002,-92 l -2.400001,-3.199997 -2.879998,-2.880005 -3.36,-2.879998 -3.520005,-2.56 -3.839996,-2.4 -4.32,-2.24 -4.480003,-2.08 L 60.16,-112 l -4.959999,-1.44 -5.280003,-1.44 -5.439998,-0.96 -5.759999,-0.8 -5.760002,-0.64 -5.919998,-0.32 h -6.080002 l -6.239999,0.16 -6.24,0.48 -6.24,0.64 -6.24,0.96 -6.24,1.28 -6.08,1.44 -6.08,1.6 -6.08,1.92 -5.760002,2.24 -5.759998,2.24 -5.599998,2.56 -5.280003,2.719999 -5.119999,2.879998 -4.959999,3.040001 -4.480003,3.200004 -4.32,3.360001 -4.159996,3.519996 -3.68,3.520005 -3.360001,3.679992 -2.879997,3.840004 -2.720002,3.839997 -2.240005,3.840004 -1.919998,3.84 -1.599999,3.84"
       style="fill:none;stroke:#000000;stroke-width:26.4;stroke-linecap:round;stroke-linejoin:round;stroke-miterlimit:10;stroke-dasharray:none;stroke-opacity:1"
       transform="translate(377.62664,143.65328)"
       clip-path="url(#clipPath2)" />
    <path
       id="path3"
       d="m 0,0 3.36,4.8 3.68,4.32 4,4.16 4.16,3.840001 4.48,3.519998 4.8,3.200001 4.960001,2.879999 5.12,2.560002 5.439999,2.08 5.439999,1.919998 5.600002,1.280002 5.759998,1.119999 5.920002,0.48 5.919998,0.32 5.919999,-0.32"
       style="fill:none;stroke:#000000;stroke-width:26.4;stroke-linecap:round;stroke-linejoin:round;stroke-miterlimit:10;stroke-dasharray:none;stroke-opacity:1"
       transform="translate(303.06668,107.49327)"
       clip-path="url(#clipPath4)" />
    <path
       id="path5"
       d="m 0,0 -2.08,-4.64 -2.56,-4.64 -2.88,-4.32 -3.2,-4 -3.52,-3.840001 -3.68,-3.519998 -4.16,-3.200001 -4.32,-2.880001 -4.479999,-2.559997 L -35.52,-35.68 -40.48,-37.599998 -45.439999,-39.040001 -50.560001,-40 -55.84,-40.799999 l -5.439999,-0.16 h -5.279999 L -72,-40.48 l -5.440002,0.96 -5.279999,1.279998 -5.279999,1.600003 -5.120003,1.919998 -5.279999,2.400001"
       style="fill:none;stroke:#000000;stroke-width:26.4;stroke-linecap:round;stroke-linejoin:round;stroke-miterlimit:10;stroke-dasharray:none;stroke-opacity:1"
       transform="translate(303.06668,107.49327)"
       clip-path="url(#clipPath6)" />
    <path
       id="path7"
       d="m 0,0 -6.08,0.96 -6.24,1.12 -6.239999,1.28 -6.08,1.44 -6.08,1.76 -5.760001,1.92 -5.760002,2.08 -5.599998,2.24 -5.279999,2.4 -5.120003,2.72 -4.959999,2.719999 L -67.68,23.52 l -4.480004,3.039999 -4,3.040001 -3.679992,3.199999 -3.360001,3.360001 -3.040001,3.36 -2.560005,3.360001 -2.239998,3.520001 -1.919998,3.519996 -1.440003,3.360001 -1.119995,3.52 L -96.32,60.32 l -0.160003,3.52 0.160003,3.359997 0.480004,3.360001 0.959999,3.200004 1.279999,3.199997 1.760002,3.040001 2.079994,2.879997 2.560005,2.880005 L -84.32,88.32 l 3.199997,2.559997 3.680001,2.400002 3.840004,2.080002 4.319999,2.080001 4.479996,1.759995 L -60,100.8 l 4.959999,1.28 5.280003,1.28 5.439998,0.96 5.759999,0.64 5.760002,0.48 5.92,0.32 6.08,0.16 6.239999,-0.32 6.08,-0.32 6.24,-0.64 6.24,-0.96 6.24,-0.96 6.24,-1.28 6.079999,-1.600004 6.08,-1.599998 L 34.400002,96.32 40.16,94.239998 45.759998,91.839996 51.040001,89.440002 56.16,86.879997 l 4.799999,-2.719993 4.639999,-2.880005 4.32,-3.040001 4,-3.199997 3.68,-3.200005 3.360001,-3.199997 3.040001,-3.36 2.720001,-3.520001 2.239998,-3.359996 1.919998,-3.520001 1.280007,-3.68"
       style="fill:none;stroke:#000000;stroke-width:26.4;stroke-linecap:round;stroke-linejoin:round;stroke-miterlimit:10;stroke-dasharray:none;stroke-opacity:1"
       transform="translate(117.78668,202.85326)"
       clip-path="url(#clipPath8)" />
    <path
       id="path9"
       d="m 0,0 -3.36,-4 -3.52,-4 -4,-3.68 -4.16,-3.52 -4.48,-3.2 -4.8,-2.880001 L -29.280001,-23.84 -34.400002,-26.08 -39.84,-28 l -5.439999,-1.6 -5.760002,-1.279999 -5.759998,-0.800001 -5.760002,-0.64 -5.920002,-0.16 h -6.079995"
       style="fill:none;stroke:#000000;stroke-width:26.4;stroke-linecap:round;stroke-linejoin:round;stroke-miterlimit:10;stroke-dasharray:none;stroke-opacity:1"
       transform="translate(192.34668,235.3333)"
       clip-path="url(#clipPath10)" />
    <path
       id="path11"
       d="m 0,0 2.24,4.48 2.56,4 2.88,3.84 3.2,3.68 3.52,3.52 3.68,3.039999 4.16,2.880002 L 26.4,28 31.040001,30.4 35.68,32.32 40.639999,33.919998 45.599998,35.200001 50.720001,36.16 56,36.799999 l 5.279999,0.32 5.440002,-0.16 5.440003,-0.479999 5.279998,-0.8 5.439995,-1.119999 5.280007,-1.440002 5.119995,-1.759998 4.959999,-2.24"
       style="fill:none;stroke:#000000;stroke-width:26.4;stroke-linecap:round;stroke-linejoin:round;stroke-miterlimit:10;stroke-dasharray:none;stroke-opacity:1"
       transform="translate(192.34668,235.3333)"
       clip-path="url(#clipPath12)" />
    <path
       id="path13"
       d="M 430.88,457.76001 362.39999,612.96002"
       style="fill:none;stroke:#000000;stroke-width:26.4;stroke-linecap:round;stroke-linejoin:round;stroke-miterlimit:10;stroke-dasharray:none;stroke-opacity:1"
       transform="translate(-149.41333,-367.06673)"
       clip-path="url(#clipPath14)" />
  </g>
</svg>
