<?xml version="1.0" encoding="UTF-8" standalone="no"?>
<!-- Created with Inkscape (http://www.inkscape.org/) -->

<svg
   version="1.1"
   id="svg1"
   width="652.34668"
   height="500.54666"
   viewBox="0 0 652.34668 500.54666"
   sodipodi:docname="Silver26.pdf"
   xmlns:inkscape="http://www.inkscape.org/namespaces/inkscape"
   xmlns:sodipodi="http://sodipodi.sourceforge.net/DTD/sodipodi-0.dtd"
   xmlns="http://www.w3.org/2000/svg"
   xmlns:svg="http://www.w3.org/2000/svg">
  <defs
     id="defs1">
    <clipPath
       clipPathUnits="userSpaceOnUse"
       id="clipPath2">
      <path
         d="M 0,0.16 V 1122.5601 H 793.59998 V 0.16 Z"
         transform="translate(-478.07999,-386.32001)"
         clip-rule="evenodd"
         id="path2" />
    </clipPath>
    <clipPath
       clipPathUnits="userSpaceOnUse"
       id="clipPath4">
      <path
         d="M 0,0.16 V 1122.5601 H 793.59998 V 0.16 Z"
         transform="translate(-698.88001,-386.32001)"
         clip-rule="evenodd"
         id="path4" />
    </clipPath>
    <clipPath
       clipPathUnits="userSpaceOnUse"
       id="clipPath6">
      <path
         d="M 0,0.16 V 1122.5601 H 793.59998 V 0.16 Z"
         transform="translate(-300,-787.84003)"
         clip-rule="evenodd"
         id="path6" />
    </clipPath>
    <clipPath
       clipPathUnits="userSpaceOnUse"
       id="clipPath8">
      <path
         d="M 0,0.16 V 1122.5601 H 793.59998 V 0.16 Z"
         clip-rule="evenodd"
         id="path8" />
    </clipPath>
    <clipPath
       clipPathUnits="userSpaceOnUse"
       id="clipPath10">
      <path
         d="M 0,0.16 V 1122.5601 H 793.59998 V 0.16 Z"
         clip-rule="evenodd"
         id="path10" />
    </clipPath>
  </defs>
  <sodipodi:namedview
     id="namedview1"
     pagecolor="#505050"
     bordercolor="#eeeeee"
     borderopacity="1"
     inkscape:showpageshadow="0"
     inkscape:pageopacity="0"
     inkscape:pagecheckerboard="0"
     inkscape:deskcolor="#505050">
    <inkscape:page
       x="0"
       y="0"
       inkscape:label="1"
       id="page1"
       width="652.34668"
       height="500.54666"
       margin="0"
       bleed="0" />
  </sodipodi:namedview>
  <g
     id="g1"
     inkscape:groupmode="layer"
     inkscape:label="1">
    <path
       id="path1"
       d="M 0,0 C 0,-28.49 -23.309999,-51.599998 -52.080002,-51.599998 -80.849998,-51.599998 -104.16,-28.49 -104.16,0 c 0,28.49 23.310002,51.599998 52.079998,51.599998 C -23.309999,51.599998 0,28.49 0,0 Z"
       style="fill:none;stroke:#000000;stroke-width:26.4;stroke-linecap:round;stroke-linejoin:round;stroke-miterlimit:10;stroke-dasharray:none;stroke-opacity:1"
       transform="translate(406.03999,76.653282)"
       clip-path="url(#clipPath2)" />
    <path
       id="path3"
       d="m 0,0 c 0,-28.49 -23.280001,-51.599998 -52,-51.599998 -28.720001,0 -52,23.109998 -52,51.599998 0,28.49 23.279999,51.599998 52,51.599998 C -23.280001,51.599998 0,28.49 0,0 Z"
       style="fill:none;stroke:#000000;stroke-width:26.4;stroke-linecap:round;stroke-linejoin:round;stroke-miterlimit:10;stroke-dasharray:none;stroke-opacity:1"
       transform="translate(626.84001,76.653282)"
       clip-path="url(#clipPath4)" />
    <path
       id="path5"
       d="m 0,0 4.64,-7.84 4.32,-7.68 3.84,-7.840001 3.68,-7.68 3.2,-7.68 3.039999,-7.520001 2.560002,-7.359996 2.08,-7.360001 1.92,-7.200005 1.439998,-6.879997 1.120001,-6.879997 0.799999,-6.720001 0.32,-6.400002 V -101.28 l -0.479999,-6.08 -0.64,-5.76 -1.280001,-5.44 -1.439998,-5.28 -1.92,-4.8 -2.240002,-4.8 -2.559999,-4.31999 -2.88,-4 -3.36,-3.68001 -3.68,-3.36 -4,-3.04 -4.16,-2.72 -4.64,-2.24 -4.96,-2.08 -5.12,-1.6 -5.44,-1.27999 -5.76,-0.80001 -5.92,-0.47999 -6.239998,-0.16001 -6.560002,0.16001 -6.560001,0.64 -6.879997,0.95999 -7.040001,1.44 -7.200001,1.76 -7.199997,2.08 -7.520004,2.40001 -7.519997,2.72 -7.68,3.19999 -7.840002,3.51999 -7.68,3.84001 -7.84,4 -8,4.48 -7.83999,4.8 -7.84002,4.96 -7.83999,5.28 -7.68,5.6 -7.84001,5.92 -7.51999,6.079999 -7.52,6.239998 -7.52,6.560005 -7.2,6.720002 -7.2,6.719993"
       style="fill:none;stroke:#000000;stroke-width:26.4;stroke-linecap:round;stroke-linejoin:round;stroke-miterlimit:10;stroke-dasharray:none;stroke-opacity:1"
       transform="translate(227.96,478.1733)"
       clip-path="url(#clipPath6)" />
    <path
       id="path7"
       d="M 94.720001,714.88 389.28,422.88"
       style="fill:none;stroke:#000000;stroke-width:26.4;stroke-linecap:round;stroke-linejoin:round;stroke-miterlimit:10;stroke-dasharray:none;stroke-opacity:1"
       transform="translate(-72.04,-309.66673)"
       clip-path="url(#clipPath8)" />
    <path
       id="path9"
       d="M 297.28,787.84003 610.08002,422.88"
       style="fill:none;stroke:#000000;stroke-width:26.4;stroke-linecap:round;stroke-linejoin:round;stroke-miterlimit:10;stroke-dasharray:none;stroke-opacity:1"
       transform="translate(-72.04,-309.66673)"
       clip-path="url(#clipPath10)" />
  </g>
</svg>
