<?xml version="1.0" encoding="UTF-8" standalone="no"?>
<!-- Created with Inkscape (http://www.inkscape.org/) -->

<svg
   version="1.1"
   id="svg1"
   width="500.28"
   height="509.89334"
   viewBox="0 0 500.28 509.89334"
   sodipodi:docname="Sulphur20.pdf"
   xmlns:inkscape="http://www.inkscape.org/namespaces/inkscape"
   xmlns:sodipodi="http://sodipodi.sourceforge.net/DTD/sodipodi-0.dtd"
   xmlns="http://www.w3.org/2000/svg"
   xmlns:svg="http://www.w3.org/2000/svg">
  <defs
     id="defs1">
    <clipPath
       clipPathUnits="userSpaceOnUse"
       id="clipPath2">
      <path
         d="M 0,0.16 V 1122.5601 H 793.59998 V 0.16 Z"
         transform="translate(-3.3333333e-6)"
         clip-rule="evenodd"
         id="path2" />
    </clipPath>
    <clipPath
       clipPathUnits="userSpaceOnUse"
       id="clipPath4">
      <path
         d="M 0,0.16 V 1122.5601 H 793.59998 V 0.16 Z"
         transform="translate(-209.60001,-652)"
         clip-rule="evenodd"
         id="path4" />
    </clipPath>
  </defs>
  <sodipodi:namedview
     id="namedview1"
     pagecolor="#505050"
     bordercolor="#eeeeee"
     borderopacity="1"
     inkscape:showpageshadow="0"
     inkscape:pageopacity="0"
     inkscape:pagecheckerboard="0"
     inkscape:deskcolor="#505050">
    <inkscape:page
       x="0"
       y="0"
       inkscape:label="1"
       id="page1"
       width="500.28"
       height="509.89334"
       margin="0"
       bleed="0" />
  </sodipodi:namedview>
  <g
     id="g1"
     inkscape:groupmode="layer"
     inkscape:label="1">
    <path
       id="path1"
       d="M 209.75999,334.72 662.88,787.84003"
       style="fill:none;stroke:#000000;stroke-width:26.4;stroke-linecap:round;stroke-linejoin:round;stroke-miterlimit:10;stroke-dasharray:none;stroke-opacity:1"
       transform="translate(-184.09333,-305.66673)"
       clip-path="url(#clipPath2)" />
    <path
       id="path3"
       d="m 0,0 12.64,-0.16 12.480001,-0.8 12.319998,-1.28 12.319999,-1.6 12.320004,-2.24 12.159996,-2.72 12,-3.04 12,-3.68 11.680002,-4 11.68,-4.64 11.36001,-4.960001 11.19999,-5.44 11.04,-5.919999 10.72,-6.240001 10.56,-6.719998 10.24,-7.040001 9.92,-7.52 9.6,-8 9.28,-8.32 8.96,-8.639999 8.63999,-8.960001 8.32001,-9.28 7.84,-9.6 7.51999,-9.92 7.20001,-10.24001 6.72,-10.55999 6.23999,-10.72 5.92001,-10.87999 5.44001,-11.36001 4.95999,-11.36 4.64001,-11.52 4,-11.84 3.68,-11.83999 3.04,-12.16001 2.71998,-12.16 2.24002,-12.31999 1.6,-12.32001 1.28,-12.32001 0.79999,-12.47998 0.16,-12.48001"
       style="fill:none;stroke:#000000;stroke-width:26.4;stroke-linecap:round;stroke-linejoin:round;stroke-miterlimit:10;stroke-dasharray:none;stroke-opacity:1"
       transform="translate(25.506673,346.33327)"
       clip-path="url(#clipPath4)" />
  </g>
</svg>
