<?xml version="1.0" encoding="UTF-8" standalone="no"?>
<!-- Created with Inkscape (http://www.inkscape.org/) -->

<svg
   version="1.1"
   id="svg1"
   width="558.97333"
   height="523.22668"
   viewBox="0 0 558.97333 523.22668"
   sodipodi:docname="Sulphur36.pdf"
   xmlns:inkscape="http://www.inkscape.org/namespaces/inkscape"
   xmlns:sodipodi="http://sodipodi.sourceforge.net/DTD/sodipodi-0.dtd"
   xmlns="http://www.w3.org/2000/svg"
   xmlns:svg="http://www.w3.org/2000/svg">
  <defs
     id="defs1">
    <clipPath
       clipPathUnits="userSpaceOnUse"
       id="clipPath2">
      <path
         d="M 0,0.16 V 1122.5601 H 793.59998 V 0.16 Z"
         transform="translate(-549.59997,-679.67999)"
         clip-rule="evenodd"
         id="path2" />
    </clipPath>
    <clipPath
       clipPathUnits="userSpaceOnUse"
       id="clipPath4">
      <path
         d="M 0,0.16 V 1122.5601 H 793.59998 V 0.16 Z"
         transform="translate(-435.67999,-453.44)"
         clip-rule="evenodd"
         id="path4" />
    </clipPath>
    <clipPath
       clipPathUnits="userSpaceOnUse"
       id="clipPath6">
      <path
         d="M 0,0.16 V 1122.5601 H 793.59998 V 0.16 Z"
         transform="translate(-436.48001,-641.28003)"
         clip-rule="evenodd"
         id="path6" />
    </clipPath>
    <clipPath
       clipPathUnits="userSpaceOnUse"
       id="clipPath8">
      <path
         d="M 0,0.16 V 1122.5601 H 793.59998 V 0.16 Z"
         transform="translate(-3.3333333e-6)"
         clip-rule="evenodd"
         id="path8" />
    </clipPath>
  </defs>
  <sodipodi:namedview
     id="namedview1"
     pagecolor="#505050"
     bordercolor="#eeeeee"
     borderopacity="1"
     inkscape:showpageshadow="0"
     inkscape:pageopacity="0"
     inkscape:pagecheckerboard="0"
     inkscape:deskcolor="#505050">
    <inkscape:page
       x="0"
       y="0"
       inkscape:label="1"
       id="page1"
       width="558.97333"
       height="523.22668"
       margin="0"
       bleed="0" />
  </sodipodi:namedview>
  <g
     id="g1"
     inkscape:groupmode="layer"
     inkscape:label="1">
    <path
       id="path1"
       d="m 0,0 c 0,-62.560001 -50.709999,-113.28 -113.28,-113.28 -62.57001,0 -113.28,50.719999 -113.28,113.28 0,62.560001 50.70999,113.28 113.28,113.28 C -50.709999,113.28 0,62.560001 0,0 Z"
       style="fill:none;stroke:#000000;stroke-width:26.4;stroke-linecap:round;stroke-linejoin:round;stroke-miterlimit:10;stroke-dasharray:none;stroke-opacity:1"
       transform="translate(396.18664,380.67993)"
       clip-path="url(#clipPath2)" />
    <path
       id="path3"
       d="m 0,0 -6.88,-7.36 -7.04,-7.36 -7.200001,-7.36 L -28.48,-29.120001 -35.84,-36 l -7.520001,-6.880001 -7.68,-6.559998 -7.52,-6.400001 -7.679997,-6.079998 L -74.080002,-68 l -7.68,-5.599998 -7.68,-5.440003 -7.680001,-5.279999 -7.519997,-4.959999 -7.52,-4.639999 -7.52,-4.32 -7.36,-4.000002 -7.2,-3.68 -7.04,-3.36 -7.04001,-3.04 -6.71998,-2.72 -6.56002,-2.24 -6.39999,-2.08 -6.24,-1.6 -5.92,-1.28 -5.76,-0.8 -5.44,-0.64 -5.28,-0.16 -4.8,0.16 -4.64,0.64 -4.31999,0.96 -4,1.28 -3.84001,1.6 -3.36001,2.08 -3.03999,2.4 -2.56,2.72 -2.40001,3.04 -2.07998,3.36 -1.60001,3.68 -1.28,4.000002 -0.8,4.479996 -0.64,4.639999 -0.16,4.800003 0.16,5.279999 0.64,5.440002 0.96001,5.760002 1.28,5.919999 1.59999,6.239997 2.08,6.400002 2.24,6.559997 2.72,6.880002 3.04,6.880001 3.52,7.199998 3.68,7.200001 4,7.36 4.32,7.52 4.64,7.52 4.95999,7.52 5.12001,7.680001 5.59999,7.68 5.76001,7.68 5.92,7.84 6.24001,7.680001 6.39999,7.519996 6.56,7.680004 6.72,7.519997 7.03999,7.360001 7.04001,7.36 7.2,7.199997 7.36,7.040003 7.52,6.88 7.52,6.72 7.680001,6.56 7.519996,6.4 7.840004,6.08 7.680001,5.92 7.68,5.6 7.679996,5.44 7.680001,5.12 7.52,4.8 7.520001,4.48 7.52,4.32 7.200001,3.84 7.199999,3.67999 7.04,3.36 6.88,2.72001"
       style="fill:none;stroke:#000000;stroke-width:26.4;stroke-linecap:round;stroke-linejoin:round;stroke-miterlimit:10;stroke-dasharray:none;stroke-opacity:1"
       transform="translate(282.26666,154.43994)"
       clip-path="url(#clipPath4)" />
    <path
       id="path5"
       d="m 0,0 7.04,-2.72 7.04,-3.36 7.200001,-3.68 7.359998,-3.84 L 36,-17.92 l 7.52,-4.48 7.680001,-4.800001 7.52,-5.119999 7.680001,-5.439998 7.839996,-5.600003 7.68,-5.919998 7.68,-6.080002 7.680001,-6.399997 L 104.8,-68.32 l 7.52,-6.720001 7.52,-6.879997 7.36,-7.040001 7.19999,-7.200005 7.20002,-7.359996 6.87999,-7.36 6.88,-7.52 6.56,-7.68 6.40001,-7.52001 6.23999,-7.67999 5.92,-7.83999 5.76,-7.68001 5.43999,-7.68 5.12001,-7.68 4.95999,-7.51999 4.64,-7.52001 4.32001,-7.52 4.16,-7.36 3.68,-7.2 3.36,-7.2 3.04001,-6.88 2.71998,-6.88 2.40001,-6.56 1.92,-6.4 1.75999,-6.24 1.28,-5.92 0.96001,-5.76 0.48,-5.44 0.16,-5.28 -0.16,-4.80001 -0.48,-4.63999 -0.96001,-4.48001 -1.28,-4 -1.59999,-3.67999 -2.08,-3.35999 -2.24,-3.04001 -2.72001,-2.72 -3.03999,-2.39999 -3.36,-2.08002 -3.68001,-1.6 -4,-1.28 -4.31999,-0.95999 -4.64,-0.63999 -4.96001,-0.16 -5.27999,0.16 -5.44001,0.63999 -5.59999,0.80001 -6.08,1.28 -6.08,1.59998 -6.4,2.08001 -6.72,2.24 -6.72,2.72 -6.88,3.04 -7.2,3.35999 -7.2,3.68002 -7.36,4 -7.36,4.31998 -7.52,4.64001 -7.680002,4.96 -7.68,5.28 -7.68,5.44 -7.68,5.6 -7.680001,6.08001 -7.679996,6.08 -7.680001,6.39999 -7.68,6.56 -7.52,6.88 -7.360001,6.87999 L 21.6,-209.92 l -7.2,7.36 -7.04,7.36 -7.04,7.36"
       style="fill:none;stroke:#000000;stroke-width:26.4;stroke-linecap:round;stroke-linejoin:round;stroke-miterlimit:10;stroke-dasharray:none;stroke-opacity:1"
       transform="translate(283.06668,342.27997)"
       clip-path="url(#clipPath6)" />
    <path
       id="path7"
       d="M 530.71997,736.32001 209.75999,566.40002"
       style="fill:none;stroke:#000000;stroke-width:26.4;stroke-linecap:round;stroke-linejoin:round;stroke-miterlimit:10;stroke-dasharray:none;stroke-opacity:1"
       transform="translate(-153.41333,-299.00006)"
       clip-path="url(#clipPath8)" />
  </g>
</svg>
