<?xml version="1.0" encoding="UTF-8" standalone="no"?>
<!-- Created with Inkscape (http://www.inkscape.org/) -->

<svg
   version="1.1"
   id="svg1"
   width="314.84"
   height="509.89334"
   viewBox="0 0 314.84 509.89334"
   sodipodi:docname="Sulphur11.pdf"
   xmlns:inkscape="http://www.inkscape.org/namespaces/inkscape"
   xmlns:sodipodi="http://sodipodi.sourceforge.net/DTD/sodipodi-0.dtd"
   xmlns="http://www.w3.org/2000/svg"
   xmlns:svg="http://www.w3.org/2000/svg">
  <defs
     id="defs1">
    <clipPath
       clipPathUnits="userSpaceOnUse"
       id="clipPath2">
      <path
         d="M 0,0.16 V 1122.5601 H 793.59998 V 0.16 Z"
         clip-rule="evenodd"
         id="path2" />
    </clipPath>
    <clipPath
       clipPathUnits="userSpaceOnUse"
       id="clipPath4">
      <path
         d="M 0,0.16 V 1122.5601 H 793.59998 V 0.16 Z"
         clip-rule="evenodd"
         id="path4" />
    </clipPath>
    <clipPath
       clipPathUnits="userSpaceOnUse"
       id="clipPath6">
      <path
         d="M 0,0.16 V 1122.5601 H 793.59998 V 0.16 Z"
         transform="translate(-568.47998,-712.32001)"
         clip-rule="evenodd"
         id="path6" />
    </clipPath>
  </defs>
  <sodipodi:namedview
     id="namedview1"
     pagecolor="#505050"
     bordercolor="#eeeeee"
     borderopacity="1"
     inkscape:showpageshadow="0"
     inkscape:pageopacity="0"
     inkscape:pagecheckerboard="0"
     inkscape:deskcolor="#505050">
    <inkscape:page
       x="0"
       y="0"
       inkscape:label="1"
       id="page1"
       width="314.84"
       height="509.89334"
       margin="0"
       bleed="0" />
  </sodipodi:namedview>
  <g
     id="g1"
     inkscape:groupmode="layer"
     inkscape:label="1">
    <path
       id="path1"
       d="m 436.32001,561.28003 v 226.56"
       style="fill:none;stroke:#000000;stroke-width:26.4;stroke-linecap:round;stroke-linejoin:round;stroke-miterlimit:10;stroke-dasharray:none;stroke-opacity:1"
       transform="translate(-281.48,-303.00006)"
       clip-path="url(#clipPath2)" />
    <path
       id="path3"
       d="m 436.32001,334.72 -130.72,226.56003 h 261.6 L 436.32001,334.72"
       style="fill:none;stroke:#000000;stroke-width:26.4;stroke-linecap:round;stroke-linejoin:round;stroke-miterlimit:10;stroke-dasharray:none;stroke-opacity:1"
       transform="translate(-281.48,-303.00006)"
       clip-path="url(#clipPath4)" />
    <path
       id="path5"
       d="m 0,0 -9.12,-5.44 -9.439999,-5.12 -9.760001,-4.64 -9.760002,-4.160001 -10.079998,-3.84 -10.080002,-3.359998 L -68.639999,-29.6 -79.040001,-32 -89.440002,-34.080002 -100.16,-35.68 l -10.56,-1.119999 -10.72,-0.64 -10.72,-0.319999 -10.72,0.319999 -10.72001,0.64 L -164.16,-35.68 -174.72,-34.080002 -185.28,-32 l -10.39999,2.4 -10.24001,3.040001 -10.24,3.359998 -9.92,3.84 -9.92,4.160001 -9.60001,4.64 -9.43998,5.12 -9.28002,5.44"
       style="fill:none;stroke:#000000;stroke-width:26.4;stroke-linecap:round;stroke-linejoin:round;stroke-miterlimit:10;stroke-dasharray:none;stroke-opacity:1"
       transform="translate(286.99998,409.31995)"
       clip-path="url(#clipPath6)" />
  </g>
</svg>
