<?xml version="1.0" encoding="UTF-8" standalone="no"?>
<!-- Created with Inkscape (http://www.inkscape.org/) -->

<svg
   version="1.1"
   id="svg1"
   width="338.85333"
   height="192.21333"
   viewBox="0 0 338.85333 192.21333"
   sodipodi:docname="Tin.pdf"
   xmlns:inkscape="http://www.inkscape.org/namespaces/inkscape"
   xmlns:sodipodi="http://sodipodi.sourceforge.net/DTD/sodipodi-0.dtd"
   xmlns="http://www.w3.org/2000/svg"
   xmlns:svg="http://www.w3.org/2000/svg">
  <defs
     id="defs1">
    <clipPath
       clipPathUnits="userSpaceOnUse"
       id="clipPath2">
      <path
         d="M 0,0.16 V 1122.5601 H 793.59998 V 0.16 Z"
         transform="translate(-396.79999,-561.28003)"
         clip-rule="evenodd"
         id="path2" />
    </clipPath>
    <clipPath
       clipPathUnits="userSpaceOnUse"
       id="clipPath4">
      <path
         d="M 0,0.16 V 1122.5601 H 793.59998 V 0.16 Z"
         clip-rule="evenodd"
         id="path4" />
    </clipPath>
    <clipPath
       clipPathUnits="userSpaceOnUse"
       id="clipPath6">
      <path
         d="M 0,0.16 V 1122.5601 H 793.59998 V 0.16 Z"
         transform="translate(-547.84003,-485.76001)"
         clip-rule="evenodd"
         id="path6" />
    </clipPath>
  </defs>
  <sodipodi:namedview
     id="namedview1"
     pagecolor="#505050"
     bordercolor="#eeeeee"
     borderopacity="1"
     inkscape:showpageshadow="0"
     inkscape:pageopacity="0"
     inkscape:pagecheckerboard="0"
     inkscape:deskcolor="#505050">
    <inkscape:page
       x="0"
       y="0"
       inkscape:label="1"
       id="page1"
       width="338.85333"
       height="192.21333"
       margin="0"
       bleed="0" />
  </sodipodi:namedview>
  <g
     id="g1"
     inkscape:groupmode="layer"
     inkscape:label="1">
    <path
       id="path1"
       d="m 0,0 c 0,-41.700001 -33.810001,-75.519997 -75.519997,-75.519997 -41.710003,0 -75.519993,33.819996 -75.519993,75.519997 0,41.700001 33.80999,75.519997 75.519993,75.519997 C -33.810001,75.519997 0,41.700001 0,0 Z"
       style="fill:none;stroke:#000000;stroke-width:26.4;stroke-linecap:round;stroke-linejoin:round;stroke-miterlimit:10;stroke-dasharray:none;stroke-opacity:1"
       transform="translate(396.79999,557.27997)"
       clip-path="url(#clipPath2)" />
    <path
       id="path3"
       d="M 396.79999,561.28003 H 547.84003"
       style="fill:none;stroke:#000000;stroke-width:26.4;stroke-linecap:round;stroke-linejoin:round;stroke-miterlimit:10;stroke-dasharray:none;stroke-opacity:1"
       transform="translate(0,-4.0000587)"
       clip-path="url(#clipPath4)" />
    <path
       id="path5"
       d="M 0,0 -5.28,0.16 -10.72,0.8 -16,1.76 -21.280001,3.04 -26.4,4.8 -31.360001,6.88 -36.16,9.28 -40.799999,12 l -4.48,3.04 -4.16,3.36 -3.84,3.68 -3.68,4 -3.520001,4.16 -3.04,4.480001 -2.719998,4.64 -2.400001,4.799999 -2.080002,4.959999 -1.760002,5.120003 -1.279999,5.279998 -0.959999,5.280003 -0.64,5.279999 -0.159996,5.439995 0.159996,5.440002 0.64,5.279999 0.959999,5.279999 1.279999,5.280006 1.760002,5.119997 2.080002,4.96 2.400001,4.8 2.719998,4.64 3.04,4.48 3.520001,4.16 3.68,4.00001 3.84,3.67999 4.16,3.36 4.48,3.03999 4.639999,2.72 4.799999,2.40001 4.960001,2.08 5.119999,1.76 5.280001,1.28 5.28,0.96 5.44,0.64 5.28,0.15999"
       style="fill:none;stroke:#000000;stroke-width:26.4;stroke-linecap:round;stroke-linejoin:round;stroke-miterlimit:10;stroke-dasharray:none;stroke-opacity:1"
       transform="translate(547.84003,481.75995)"
       clip-path="url(#clipPath6)" />
  </g>
</svg>
