<?xml version="1.0" encoding="UTF-8" standalone="no"?>
<!-- Created with Inkscape (http://www.inkscape.org/) -->

<svg
   version="1.1"
   id="svg1"
   width="441.57333"
   height="516.5733"
   viewBox="0 0 441.57333 516.5733"
   sodipodi:docname="Tin18.pdf"
   xmlns:inkscape="http://www.inkscape.org/namespaces/inkscape"
   xmlns:sodipodi="http://sodipodi.sourceforge.net/DTD/sodipodi-0.dtd"
   xmlns="http://www.w3.org/2000/svg"
   xmlns:svg="http://www.w3.org/2000/svg">
  <defs
     id="defs1">
    <clipPath
       clipPathUnits="userSpaceOnUse"
       id="clipPath2">
      <path
         d="M 0,0.16 V 1122.5601 H 793.59998 V 0.16 Z"
         transform="translate(-364.64002,-542.56)"
         clip-rule="evenodd"
         id="path2" />
    </clipPath>
    <clipPath
       clipPathUnits="userSpaceOnUse"
       id="clipPath4">
      <path
         d="M 0,0.16 V 1122.5601 H 793.59998 V 0.16 Z"
         transform="translate(3.3333334e-6)"
         clip-rule="evenodd"
         id="path4" />
    </clipPath>
    <clipPath
       clipPathUnits="userSpaceOnUse"
       id="clipPath6">
      <path
         d="M 0,0.16 V 1122.5601 H 793.59998 V 0.16 Z"
         transform="translate(-516.64002,-768.15997)"
         clip-rule="evenodd"
         id="path6" />
    </clipPath>
    <clipPath
       clipPathUnits="userSpaceOnUse"
       id="clipPath8">
      <path
         d="M 0,0.16 V 1122.5601 H 793.59998 V 0.16 Z"
         transform="translate(3.3333334e-6)"
         clip-rule="evenodd"
         id="path8" />
    </clipPath>
    <clipPath
       clipPathUnits="userSpaceOnUse"
       id="clipPath10">
      <path
         d="M 0,0.16 V 1122.5601 H 793.59998 V 0.16 Z"
         transform="translate(3.3333334e-6)"
         clip-rule="evenodd"
         id="path10" />
    </clipPath>
    <clipPath
       clipPathUnits="userSpaceOnUse"
       id="clipPath12">
      <path
         d="M 0,0.16 V 1122.5601 H 793.59998 V 0.16 Z"
         transform="translate(3.3333334e-6)"
         clip-rule="evenodd"
         id="path12" />
    </clipPath>
    <clipPath
       clipPathUnits="userSpaceOnUse"
       id="clipPath14">
      <path
         d="M 0,0.16 V 1122.5601 H 793.59998 V 0.16 Z"
         transform="translate(3.3333334e-6)"
         clip-rule="evenodd"
         id="path14" />
    </clipPath>
  </defs>
  <sodipodi:namedview
     id="namedview1"
     pagecolor="#505050"
     bordercolor="#eeeeee"
     borderopacity="1"
     inkscape:showpageshadow="0"
     inkscape:pageopacity="0"
     inkscape:pagecheckerboard="0"
     inkscape:deskcolor="#505050">
    <inkscape:page
       x="0"
       y="0"
       inkscape:label="1"
       id="page1"
       width="441.57333"
       height="516.5733"
       margin="0"
       bleed="0" />
  </sodipodi:namedview>
  <g
     id="g1"
     inkscape:groupmode="layer"
     inkscape:label="1">
    <path
       id="path1"
       d="M 0,0 5.44,-0.16 10.72,-0.64 16.16,-1.6 21.280001,-2.88 26.4,-4.64 31.360001,-6.72 36.16,-9.12 l 4.639999,-2.72 4.48,-3.04 4.16,-3.52 4,-3.68 3.68,-3.84 3.360001,-4.16 3.04,-4.480001 2.719998,-4.64 L 68.800003,-44 l 1.919998,-4.959999 1.760002,-5.120003 1.279999,-5.279999 0.959999,-5.279998 0.64,-5.440003 0.159996,-5.279999 -0.159996,-5.440002 -0.64,-5.279999 -0.959999,-5.439995 -1.279999,-5.120002 -1.760002,-5.120001 -1.919998,-4.96 -2.560005,-4.96 -2.719998,-4.48 -3.04,-4.48 -3.360001,-4.16 -3.68,-4 -4,-3.68 -4.16,-3.36 -4.48,-3.04 L 36.16,-141.75999 31.360001,-144.16 26.4,-146.24 l -5.119999,-1.6 -5.120001,-1.44 -5.44,-0.8 -5.28,-0.64 -5.44,-0.16 -5.28,0.16 -5.44,0.64 -5.28,0.8 -5.280001,1.44 -5.119999,1.6 -4.960001,2.08 -4.799999,2.40001 -4.639999,2.87999 -4.48,3.04 -4.16,3.36 -3.84,3.68 -3.68,4 -3.520001,4.16 -3.04,4.48 -2.719998,4.48 -2.400001,4.96 -2.080002,4.96 -1.760002,5.120001 -1.279999,5.120002 -0.959999,5.439995 -0.64,5.279999 -0.159996,5.280006"
       style="fill:none;stroke:#000000;stroke-width:26.4;stroke-linecap:round;stroke-linejoin:round;stroke-miterlimit:10;stroke-dasharray:none;stroke-opacity:1"
       transform="translate(191.21335,234.22661)"
       clip-path="url(#clipPath2)" />
    <path
       id="path3"
       d="M 364.64001,542.71997 515.67999,769.28003"
       style="fill:none;stroke:#000000;stroke-width:26.4;stroke-linecap:round;stroke-linejoin:round;stroke-miterlimit:10;stroke-dasharray:none;stroke-opacity:1"
       transform="translate(-173.42667,-308.33339)"
       clip-path="url(#clipPath4)" />
    <path
       id="path5"
       d="m 0,0 1.28,3.36 1.6,3.04 1.76,3.04 2.08,2.72 2.4,2.56 2.56,2.400001 2.72,2.08 3.040001,1.92 L 20.48,22.719999 23.84,24 27.200001,24.959999 30.559999,25.6 l 3.520003,0.32 h 3.519996 L 40.959999,25.6 44.48,24.959999 47.84,24 l 3.200001,-1.280001 3.200001,-1.599998 2.879997,-1.76 L 60,17.280001 62.560001,14.88 64.800003,12.32 67.040001,9.6 68.800003,6.56 70.400002,3.52 71.68,0.16 l 0.959999,-3.36 0.64,-3.36 0.319999,-3.52 v -3.52 l -0.319999,-3.359999 -0.64,-3.520001 -1.120002,-3.36"
       style="fill:none;stroke:#000000;stroke-width:26.4;stroke-linecap:round;stroke-linejoin:round;stroke-miterlimit:10;stroke-dasharray:none;stroke-opacity:1"
       transform="translate(343.21335,459.82658)"
       clip-path="url(#clipPath6)" />
    <path
       id="path7"
       d="m 292.16,465.44 -88.64,59.35999"
       style="fill:none;stroke:#000000;stroke-width:26.4;stroke-linecap:round;stroke-linejoin:round;stroke-miterlimit:10;stroke-dasharray:none;stroke-opacity:1"
       transform="translate(-173.42667,-308.33339)"
       clip-path="url(#clipPath8)" />
    <path
       id="path9"
       d="m 203.52,524.79999 118.71999,177.44"
       style="fill:none;stroke:#000000;stroke-width:26.4;stroke-linecap:round;stroke-linejoin:round;stroke-miterlimit:10;stroke-dasharray:none;stroke-opacity:1"
       transform="translate(-173.42667,-308.33339)"
       clip-path="url(#clipPath10)" />
    <path
       id="path11"
       d="M 322.23999,702.23999 366.56,672.64001"
       style="fill:none;stroke:#000000;stroke-width:26.4;stroke-linecap:round;stroke-linejoin:round;stroke-miterlimit:10;stroke-dasharray:none;stroke-opacity:1"
       transform="translate(-173.42667,-308.33339)"
       clip-path="url(#clipPath12)" />
    <path
       id="path13"
       d="M 439.67999,328.48001 V 479.51999"
       style="fill:none;stroke:#000000;stroke-width:26.4;stroke-linecap:round;stroke-linejoin:round;stroke-miterlimit:10;stroke-dasharray:none;stroke-opacity:1"
       transform="translate(-173.42667,-308.33339)"
       clip-path="url(#clipPath14)" />
  </g>
</svg>
