<?xml version="1.0" encoding="UTF-8" standalone="no"?>
<!-- Created with Inkscape (http://www.inkscape.org/) -->

<svg
   version="1.1"
   id="svg1"
   width="246.8"
   height="493.86667"
   viewBox="0 0 246.8 493.86667"
   sodipodi:docname="Tin15.pdf"
   xmlns:inkscape="http://www.inkscape.org/namespaces/inkscape"
   xmlns:sodipodi="http://sodipodi.sourceforge.net/DTD/sodipodi-0.dtd"
   xmlns="http://www.w3.org/2000/svg"
   xmlns:svg="http://www.w3.org/2000/svg">
  <defs
     id="defs1">
    <clipPath
       clipPathUnits="userSpaceOnUse"
       id="clipPath2">
      <path
         d="M 0,0.16 V 1122.5601 H 793.59998 V 0.16 Z"
         transform="translate(-474.88001,-344.32001)"
         clip-rule="evenodd"
         id="path2" />
    </clipPath>
    <clipPath
       clipPathUnits="userSpaceOnUse"
       id="clipPath4">
      <path
         d="M 0,0.16 V 1122.5601 H 793.59998 V 0.16 Z"
         transform="translate(-434.4,-515.84003)"
         clip-rule="evenodd"
         id="path4" />
    </clipPath>
  </defs>
  <sodipodi:namedview
     id="namedview1"
     pagecolor="#505050"
     bordercolor="#eeeeee"
     borderopacity="1"
     inkscape:showpageshadow="0"
     inkscape:pageopacity="0"
     inkscape:pagecheckerboard="0"
     inkscape:deskcolor="#505050">
    <inkscape:page
       x="0"
       y="0"
       inkscape:label="1"
       id="page1"
       width="246.8"
       height="493.86667"
       margin="0"
       bleed="0" />
  </sodipodi:namedview>
  <g
     id="g1"
     inkscape:groupmode="layer"
     inkscape:label="1">
    <path
       id="path1"
       d="m 0,0 -5.6,-2.56 -5.76,-2.24 -5.920001,-1.76 -5.92,-1.28 -6.08,-0.96 -6.08,-0.64 L -41.599998,-9.6 -47.68,-9.28 -53.919998,-8.64 -60,-7.52 -65.919998,-5.92 -71.68,-4 l -5.760002,2.4 -5.599999,2.72 -5.279999,3.04 -5.120002,3.36 -4.96,3.84 -4.479998,4 -4.32,4.48 -4,4.64 -3.68,4.960001 -3.36,5.12 -3.04,5.439999 -2.56,5.599998 -2.24,5.760003 -1.76,5.919998 -1.44,5.920002 -0.96,6.079998 -0.64,6.239998 -0.15999,6.080001 0.15999,6.239998 0.64,6.080002 1.12001,6.080002 1.59999,5.92 1.76,5.92 2.4,5.76 2.56,5.44 3.04,5.44 3.52,5.12001 3.68,4.95999 4,4.64 4.48,4.32 4.639998,4 4.959999,3.68 5.120002,3.36 5.440003,3.04001 5.439995,2.55999 5.760002,2.4 5.919998,1.76001 5.920002,1.43998 6.080002,1.12001 6.239998,0.64 H -40.48"
       style="fill:none;stroke:#000000;stroke-width:26.4;stroke-linecap:round;stroke-linejoin:round;stroke-miterlimit:10;stroke-dasharray:none;stroke-opacity:1"
       transform="translate(198.73334,31.973282)"
       clip-path="url(#clipPath2)" />
    <path
       id="path3"
       d="M 0,0 -7.68,0.32 -15.2,0.96 -22.879999,2.08 -30.4,3.52 l -7.359998,1.92 -7.360001,2.4 -7.040001,2.72 -7.040001,3.2 -6.719997,3.520001 -6.720001,3.84 -6.239998,4.32 L -84.959999,30.08 -90.879997,35.040001 -96.480003,40.32 -101.6,45.919998 -106.56,51.68 l -4.64,6.239998 -4.16,6.400002 -3.84,6.559997 -3.52,6.720001 -3.04,7.040001 -2.72,7.199997 -2.24,7.360001 -1.92,7.360003 -1.44,7.52 -1.12,7.52 -0.47999,7.68 -0.16001,7.68001 0.16001,7.67999 0.79999,7.52 1.12001,7.68 1.43998,7.52 2.08001,7.36 2.24,7.2 2.88,7.19999 3.2,6.88001 3.52,6.88 4,6.56 4.32,6.23999 4.64,6.08 4.96,5.92 5.280003,5.44 5.599999,5.28 5.919998,4.80001 6.239998,4.47999 6.400001,4.32001 6.559998,3.67999 6.880005,3.52002 7.039997,3.03998 7.2,2.72 7.360001,2.24002 7.360001,1.75998 7.519998,1.44 7.680001,0.96 7.52,0.48001 7.68,0.16 7.68,-0.32001 7.680001,-0.79999 7.519998,-1.11999 L 32.16,268.16 l 7.36,-2.08001 7.200001,-2.4 7.199997,-2.72 6.880001,-3.35998"
       style="fill:none;stroke:#000000;stroke-width:26.4;stroke-linecap:round;stroke-linejoin:round;stroke-miterlimit:10;stroke-dasharray:none;stroke-opacity:1"
       transform="translate(158.25333,203.4933)"
       clip-path="url(#clipPath4)" />
  </g>
</svg>
