<?xml version="1.0" encoding="UTF-8" standalone="no"?>
<!-- Created with Inkscape (http://www.inkscape.org/) -->

<svg
   version="1.1"
   id="svg1"
   width="504.26666"
   height="469.84"
   viewBox="0 0 504.26666 469.84"
   sodipodi:docname="Tin14.pdf"
   xmlns:inkscape="http://www.inkscape.org/namespaces/inkscape"
   xmlns:sodipodi="http://sodipodi.sourceforge.net/DTD/sodipodi-0.dtd"
   xmlns="http://www.w3.org/2000/svg"
   xmlns:svg="http://www.w3.org/2000/svg">
  <defs
     id="defs1">
    <clipPath
       clipPathUnits="userSpaceOnUse"
       id="clipPath2">
      <path
         d="M 0,0.16 V 1122.5601 H 793.59998 V 0.16 Z"
         clip-rule="evenodd"
         id="path2" />
    </clipPath>
    <clipPath
       clipPathUnits="userSpaceOnUse"
       id="clipPath4">
      <path
         d="M 0,0.16 V 1122.5601 H 793.59998 V 0.16 Z"
         clip-rule="evenodd"
         id="path4" />
    </clipPath>
    <clipPath
       clipPathUnits="userSpaceOnUse"
       id="clipPath6">
      <path
         d="M 0,0.16 V 1122.5601 H 793.59998 V 0.16 Z"
         clip-rule="evenodd"
         id="path6" />
    </clipPath>
    <clipPath
       clipPathUnits="userSpaceOnUse"
       id="clipPath8">
      <path
         d="M 0,0.16 V 1122.5601 H 793.59998 V 0.16 Z"
         transform="translate(-553.12,-579.84003)"
         clip-rule="evenodd"
         id="path8" />
    </clipPath>
    <clipPath
       clipPathUnits="userSpaceOnUse"
       id="clipPath10">
      <path
         d="M 0,0.16 V 1122.5601 H 793.59998 V 0.16 Z"
         transform="translate(-173.11999,-693.76001)"
         clip-rule="evenodd"
         id="path10" />
    </clipPath>
  </defs>
  <sodipodi:namedview
     id="namedview1"
     pagecolor="#505050"
     bordercolor="#eeeeee"
     borderopacity="1"
     inkscape:showpageshadow="0"
     inkscape:pageopacity="0"
     inkscape:pagecheckerboard="0"
     inkscape:deskcolor="#505050">
    <inkscape:page
       x="0"
       y="0"
       inkscape:label="1"
       id="page1"
       width="504.26666"
       height="469.84"
       margin="0"
       bleed="0" />
  </sodipodi:namedview>
  <g
     id="g1"
     inkscape:groupmode="layer"
     inkscape:label="1">
    <path
       id="path1"
       d="M 447.84,353.44 272.32001,731.03998"
       style="fill:none;stroke:#000000;stroke-width:26.4;stroke-linecap:round;stroke-linejoin:round;stroke-miterlimit:10;stroke-dasharray:none;stroke-opacity:1"
       transform="translate(-144.08,-327.02673)"
       clip-path="url(#clipPath2)" />
    <path
       id="path3"
       d="m 447.84,353.44 81.12002,415.52002"
       style="fill:none;stroke:#000000;stroke-width:26.4;stroke-linecap:round;stroke-linejoin:round;stroke-miterlimit:10;stroke-dasharray:none;stroke-opacity:1"
       transform="translate(-144.08,-327.02673)"
       clip-path="url(#clipPath4)" />
    <path
       id="path5"
       d="M 342.56,580 H 553.12"
       style="fill:none;stroke:#000000;stroke-width:26.4;stroke-linecap:round;stroke-linejoin:round;stroke-miterlimit:10;stroke-dasharray:none;stroke-opacity:1"
       transform="translate(-144.08,-327.02673)"
       clip-path="url(#clipPath6)" />
    <path
       id="path7"
       d="m 0,0 h 5.12 l 4.96,-0.64 4.96,-0.96 4.8,-1.28 4.799999,-1.76 4.640002,-2.08 4.479997,-2.4 4.320004,-2.72 4,-3.04 4,-3.36 3.679996,-3.68 3.360001,-4 3.200001,-4.16 2.880001,-4.480001 2.559997,-4.64 L 64,-44 l 1.919998,-4.959999 1.440003,-5.120003 1.279998,-5.279999 0.959999,-5.279998 0.480004,-5.279999 0.159996,-5.440003 -0.159996,-5.440002 -0.480004,-5.279999 -0.959999,-5.279999 -1.279998,-5.279998 L 65.919998,-101.76 64,-106.72 l -2.240002,-4.8 -2.559997,-4.64 -2.880001,-4.48 -3.200001,-4.16 -3.360001,-4 -3.679996,-3.68 -4,-3.36 -4,-3.04 -4.320004,-2.72001 L 29.280001,-144 24.639999,-146.08 19.84,-147.84 15.04,-149.11999 10.08,-150.08 5.12,-150.72 0,-151.03999"
       style="fill:none;stroke:#000000;stroke-width:26.4;stroke-linecap:round;stroke-linejoin:round;stroke-miterlimit:10;stroke-dasharray:none;stroke-opacity:1"
       transform="translate(409.04,252.8133)"
       clip-path="url(#clipPath8)" />
    <path
       id="path9"
       d="m 0,0 -1.12,4.48 -0.8,4.32 -0.64,4.32 -0.32,4.48 0.16,4.48 0.32,4.32 0.8,4.479999 0.96,4.320002 1.44,4.16 1.6,4 1.92,4 2.24,3.68 2.56,3.68 2.72,3.199997 3.04,3.200001 3.2,2.720001 3.360001,2.560002 3.519998,2.239997 3.68,1.919999 L 32.48,72.32 l 4,1.279998 4,0.96 4.159999,0.639999 4.16,0.160004 h 4 l 4.16,-0.480004 4.16,-0.799995 4.000004,-1.120003 3.839996,-1.440002 3.840004,-1.759995 3.68,-2.080002 3.359993,-2.400001 3.360001,-2.719998 3.040001,-2.880001 2.880005,-3.2 2.719993,-3.520001 2.240006,-3.68 2.239998,-3.680001 1.760002,-4 1.439995,-4.319999"
       style="fill:none;stroke:#000000;stroke-width:26.4;stroke-linecap:round;stroke-linejoin:round;stroke-miterlimit:10;stroke-dasharray:none;stroke-opacity:1"
       transform="translate(29.039995,366.73328)"
       clip-path="url(#clipPath10)" />
  </g>
</svg>
