<?xml version="1.0" encoding="UTF-8" standalone="no"?>
<!-- Created with Inkscape (http://www.inkscape.org/) -->

<svg
   version="1.1"
   id="svg1"
   width="504.26666"
   height="385.74667"
   viewBox="0 0 504.26666 385.74667"
   sodipodi:docname="Tin13.pdf"
   xmlns:inkscape="http://www.inkscape.org/namespaces/inkscape"
   xmlns:sodipodi="http://sodipodi.sourceforge.net/DTD/sodipodi-0.dtd"
   xmlns="http://www.w3.org/2000/svg"
   xmlns:svg="http://www.w3.org/2000/svg">
  <defs
     id="defs1">
    <clipPath
       clipPathUnits="userSpaceOnUse"
       id="clipPath2">
      <path
         d="M 0,0.16 V 1122.5601 H 793.59998 V 0.16 Z"
         transform="translate(-321.76001,-575.20001)"
         clip-rule="evenodd"
         id="path2" />
    </clipPath>
    <clipPath
       clipPathUnits="userSpaceOnUse"
       id="clipPath4">
      <path
         d="M 0,0.16 V 1122.5601 H 793.59998 V 0.16 Z"
         transform="translate(-450.88,-519.67999)"
         clip-rule="evenodd"
         id="path4" />
    </clipPath>
    <clipPath
       clipPathUnits="userSpaceOnUse"
       id="clipPath6">
      <path
         d="M 0,0.16 V 1122.5601 H 793.59998 V 0.16 Z"
         transform="translate(-413.92001,-575.20001)"
         clip-rule="evenodd"
         id="path6" />
    </clipPath>
    <clipPath
       clipPathUnits="userSpaceOnUse"
       id="clipPath8">
      <path
         d="M 0,0.16 V 1122.5601 H 793.59998 V 0.16 Z"
         transform="translate(-450.88,-519.67999)"
         clip-rule="evenodd"
         id="path8" />
    </clipPath>
    <clipPath
       clipPathUnits="userSpaceOnUse"
       id="clipPath10">
      <path
         d="M 0,0.16 V 1122.5601 H 793.59998 V 0.16 Z"
         clip-rule="evenodd"
         id="path10" />
    </clipPath>
  </defs>
  <sodipodi:namedview
     id="namedview1"
     pagecolor="#505050"
     bordercolor="#eeeeee"
     borderopacity="1"
     inkscape:showpageshadow="0"
     inkscape:pageopacity="0"
     inkscape:pagecheckerboard="0"
     inkscape:deskcolor="#505050">
    <inkscape:page
       x="0"
       y="0"
       inkscape:label="1"
       id="page1"
       width="504.26666"
       height="385.74667"
       margin="0"
       bleed="0" />
  </sodipodi:namedview>
  <g
     id="g1"
     inkscape:groupmode="layer"
     inkscape:label="1">
    <path
       id="path1"
       d="m 0,0 -4.48,3.36 -4.32,3.52 -4.16,4 -3.839999,4.16 L -20.32,19.360001 -23.52,24 l -2.88,4.959999 -2.720001,4.959999 -2.08,5.280003 L -33.119999,44.48 -34.560001,49.919998 -35.68,55.52 l -0.8,5.599999 -0.319999,5.600002 V 72.32 l 0.319999,5.760002 0.8,5.599998 1.279998,5.440003 1.440003,5.439995 1.919998,5.279998 2.240002,5.280004 2.719999,4.96 2.879999,4.8 3.360001,4.64 3.52,4.32 3.84,4.16 4.16,3.84 4.48,3.68 4.64,3.2 4.8,2.88001 4.96,2.55999 5.28,2.23999 5.280001,1.92002 5.439998,1.59999 5.600001,1.11999 5.599998,0.80001 5.600003,0.32 h 5.599998 l 5.760002,-0.32 5.599999,-0.80001 5.440002,-1.11999 5.439995,-1.59999 5.440002,-1.92002 5.120003,-2.23999 4.959999,-2.55999 L 91.68,138.72 l 4.64,-3.2 4.32,-3.68 4.16,-3.84 3.84,-4.16 3.52,-4.32 3.36,-4.64 2.88,-4.8 2.72,-4.96 2.24,-5.280004 1.92,-5.279998 1.6,-5.439995 L 128,83.68 128.8,78.080002 129.11999,72.32 129.28,66.720001 128.8,61.119999 128.16,55.52 127.04,49.919998 125.44,44.48 123.68,39.200001 121.44,33.919998 118.88,28.959999 116,24 112.64,19.360001 109.12,15.04 l -3.84,-4.16 -4,-4 L 96.800003,3.36 92.160004,0"
       style="fill:none;stroke:#000000;stroke-width:26.4;stroke-linecap:round;stroke-linejoin:round;stroke-miterlimit:10;stroke-dasharray:none;stroke-opacity:1"
       transform="translate(177.68001,210.79995)"
       clip-path="url(#clipPath2)" />
    <path
       id="path3"
       d="m 0,0 -8.96,0.32 -8.96,0.8 -8.959999,1.12 -8.800001,1.6 -8.8,2.08 -8.639999,2.56 -8.639999,2.88 -8.320004,3.36 -8.159996,3.839999 -8,4.16 -7.840004,4.480002 L -101.6,32.16 l -7.36,5.279999 -6.88,5.760002 -6.72,6.079998 -6.55999,6.240001"
       style="fill:none;stroke:#000000;stroke-width:26.4;stroke-linecap:round;stroke-linejoin:round;stroke-miterlimit:10;stroke-dasharray:none;stroke-opacity:1"
       transform="translate(306.8,155.27993)"
       clip-path="url(#clipPath4)" />
    <path
       id="path5"
       d="m 0,0 -6.24,-6.24 -6.72,-6.08 -7.04,-5.6 -7.200001,-5.280001 -7.52,-4.959999 -7.680001,-4.639999 -8,-4.16 -8.159999,-3.68 L -66.879997,-44 -75.360001,-46.880001 -84,-49.439999 -92.639999,-51.52 -101.44,-53.119999 l -8.96,-1.280003 -8.96,-0.799999 -8.96001,-0.16 H -137.28 l -8.96,0.64 -8.96,1.120003 -8.8,1.439998 -8.8,1.919998 -8.64,2.240002 -8.48,2.880001 -8.47999,3.200001 -8.16001,3.519996 -8,4.16 -7.83999,4.320002 -7.68001,4.799999 L -237.44,-20"
       style="fill:none;stroke:#000000;stroke-width:26.4;stroke-linecap:round;stroke-linejoin:round;stroke-miterlimit:10;stroke-dasharray:none;stroke-opacity:1"
       transform="translate(269.84001,210.79995)"
       clip-path="url(#clipPath6)" />
    <path
       id="path7"
       d="m 0,0 0.32,5.76 0.64,5.6 0.96,5.599999 L 3.2,22.4 l 1.76,5.44 1.92,5.279999 2.56,5.120003 2.72,4.959999 3.04,4.639999 3.519999,4.48 3.680001,4.319999 4,4 4.159999,3.680001 4.480002,3.519996 4.799999,3.040001 4.959999,2.880005 4.959999,2.400002 5.280003,2.079994 L 60.48,80 l 5.439998,1.279999 5.599999,1.120003 5.600006,0.479995 5.599998,0.32 5.760002,-0.159996 5.599999,-0.639999 5.599998,-0.96 5.44,-1.279998 5.44,-1.600006 5.28,-2.079995 5.12,-2.400001 4.96,-2.720001 4.64,-3.040001 4.64,-3.360001 4.32,-3.84 4,-3.84 3.68,-4.32 3.52,-4.479999 3.03999,-4.64 2.88001,-4.959999 2.39999,-5.120003 2.24001,-5.119999 1.75999,-5.439998 1.28002,-5.440001 1.11999,-5.6 0.64,-5.6 0.16,-5.6 -0.16,-5.76"
       style="fill:none;stroke:#000000;stroke-width:26.4;stroke-linecap:round;stroke-linejoin:round;stroke-miterlimit:10;stroke-dasharray:none;stroke-opacity:1"
       transform="translate(306.8,155.27993)"
       clip-path="url(#clipPath8)" />
    <path
       id="path9"
       d="m 201.75999,395.20001 -25.11999,160"
       style="fill:none;stroke:#000000;stroke-width:26.4;stroke-linecap:round;stroke-linejoin:round;stroke-miterlimit:10;stroke-dasharray:none;stroke-opacity:1"
       transform="translate(-144.08,-364.40006)"
       clip-path="url(#clipPath10)" />
  </g>
</svg>
