<?xml version="1.0" encoding="UTF-8" standalone="no"?>
<!-- Created with Inkscape (http://www.inkscape.org/) -->

<svg
   version="1.1"
   id="svg1"
   width="508.26666"
   height="509.89334"
   viewBox="0 0 508.26666 509.89334"
   sodipodi:docname="Tin36.pdf"
   xmlns:inkscape="http://www.inkscape.org/namespaces/inkscape"
   xmlns:sodipodi="http://sodipodi.sourceforge.net/DTD/sodipodi-0.dtd"
   xmlns="http://www.w3.org/2000/svg"
   xmlns:svg="http://www.w3.org/2000/svg">
  <defs
     id="defs1">
    <clipPath
       clipPathUnits="userSpaceOnUse"
       id="clipPath2">
      <path
         d="M 0,0.16 V 1122.5601 H 793.59998 V 0.16 Z"
         transform="translate(-312.64001,-585.44)"
         clip-rule="evenodd"
         id="path2" />
    </clipPath>
    <clipPath
       clipPathUnits="userSpaceOnUse"
       id="clipPath4">
      <path
         d="M 0,0.16 V 1122.5601 H 793.59998 V 0.16 Z"
         transform="translate(-483.83999,-686.88)"
         clip-rule="evenodd"
         id="path4" />
    </clipPath>
    <clipPath
       clipPathUnits="userSpaceOnUse"
       id="clipPath6">
      <path
         d="M 0,0.16 V 1122.5601 H 793.59998 V 0.16 Z"
         transform="translate(-3.3333333e-6)"
         clip-rule="evenodd"
         id="path6" />
    </clipPath>
    <clipPath
       clipPathUnits="userSpaceOnUse"
       id="clipPath8">
      <path
         d="M 0,0.16 V 1122.5601 H 793.59998 V 0.16 Z"
         transform="translate(-219.2,-512.96002)"
         clip-rule="evenodd"
         id="path8" />
    </clipPath>
    <clipPath
       clipPathUnits="userSpaceOnUse"
       id="clipPath10">
      <path
         d="M 0,0.16 V 1122.5601 H 793.59998 V 0.16 Z"
         transform="translate(-376.79998,-632)"
         clip-rule="evenodd"
         id="path10" />
    </clipPath>
  </defs>
  <sodipodi:namedview
     id="namedview1"
     pagecolor="#505050"
     bordercolor="#eeeeee"
     borderopacity="1"
     inkscape:showpageshadow="0"
     inkscape:pageopacity="0"
     inkscape:pagecheckerboard="0"
     inkscape:deskcolor="#505050">
    <inkscape:page
       x="0"
       y="0"
       inkscape:label="1"
       id="page1"
       width="508.26666"
       height="509.89334"
       margin="0"
       bleed="0" />
  </sodipodi:namedview>
  <g
     id="g1"
     inkscape:groupmode="layer"
     inkscape:label="1">
    <path
       id="path1"
       d="m 0,0 7.36,-4 7.36,-4.32 7.52,-4.64 7.36,-4.8 7.519999,-5.119999 7.52,-5.280001 7.520001,-5.439998 7.36,-5.760003 7.359997,-5.759998 7.200005,-6.080002 7.199997,-6.239998 7.200004,-6.240001 6.879998,-6.400002 6.879999,-6.559997 6.56,-6.559998 6.56,-6.720001 6.24,-6.720001 6.08,-6.880001 5.76,-6.72 5.59999,-6.88 5.28002,-6.88 5.11999,-6.72 4.8,-6.72 4.48,-6.72 4.31999,-6.56 3.84001,-6.39999 3.68,-6.40001 3.19999,-6.4 2.88001,-6.08 2.56,-5.92 2.24,-5.75999 1.92,-5.76001 1.44,-5.44 1.12,-5.12 0.8,-4.96001 0.48,-4.79998 V -218.24 l -0.32,-4.32 -0.64,-4 -1.12001,-3.68 -1.44,-3.36001 -1.75999,-3.19999 -2.08,-2.87999 -2.56,-2.40001 -2.72,-2.24001 -3.2,-1.91999 -3.52,-1.6 -3.84,-1.12001 -4.16,-0.95999 -4.48,-0.47999 -4.64,-0.32001 -5.11999,0.16 -5.28,0.48 -5.44001,0.8 -5.76001,1.12 -6.07999,1.44 -6.24,1.75999 -6.4,2.08001 -6.56,2.4 -6.719997,2.72001 -7.040001,3.03999 -7.040001,3.2 -7.040001,3.68 -7.360001,3.84 -7.36,4.16 -7.360001,4.48 -7.519996,4.64 -7.360001,4.96001 L 31.52,-200.64 24,-195.36 16.639999,-189.75999 9.12,-184 l -7.36,5.92 -7.2,6.08 -7.2,6.24001 -7.04,6.23999 -6.879999,6.55999 -6.72,6.56002 -6.560001,6.55999 -6.400002,6.72001 -6.239998,6.87999 -6.080001,6.72 -5.759999,6.88 -5.440002,6.72 -5.279999,6.879999 L -80,-92.32 l -4.800003,6.720002 -4.479996,6.559997 -4.160003,6.559998"
       style="fill:none;stroke:#000000;stroke-width:26.4;stroke-linecap:round;stroke-linejoin:round;stroke-miterlimit:10;stroke-dasharray:none;stroke-opacity:1"
       transform="translate(167.22668,277.10661)"
       clip-path="url(#clipPath2)" />
    <path
       id="path3"
       d="m 0,0 6.4,-5.28 6.24,-5.44 6.400001,-5.919999 6.24,-5.92 6.239999,-6.4 6.239998,-6.400002 L 44,-42.080002 50.080002,-48.959999 56,-56 l 5.919998,-7.200001 5.760002,-7.359997 5.599999,-7.36 5.440002,-7.520004 5.440003,-7.680001 5.119995,-7.679997 4.800003,-7.68 4.799995,-7.68 4.480003,-7.68 4.32,-7.68 4,-7.68 3.84,-7.68 3.52,-7.51999 3.36,-7.36 3.04,-7.36 2.72,-7.20002 2.56,-7.03999 2.08,-7.03999 1.92,-6.72 1.60001,-6.40001 1.28,-6.4 0.95999,-6.08 0.64,-5.75999 0.32,-5.60001 v -5.28 l -0.32,-5.11999 -0.48,-4.80001 -0.96001,-4.32 -1.27999,-4.15999 -1.44001,-3.84001 -1.92,-3.35999 -2.08,-3.20001 -2.39999,-2.72 -2.72,-2.4 -2.88,-2.08001 -3.36,-1.59998 -3.36,-1.28 -3.84,-0.96002 -4,-0.47998 -4.32,-0.16001 -4.48,0.16001 -4.639999,0.63998 -4.959999,0.96002 -4.959999,1.28 -5.280007,1.75998 -5.439994,2.08002 -5.599999,2.56 -5.760002,2.72 -5.920002,3.19998 -5.919998,3.52001 -6.080002,3.84001 -6.079998,4.15999 -6.240002,4.48001 -6.24,4.79998 -6.399999,5.12001 -6.24,5.44001 -6.4,5.59999 -6.4,5.92 -6.24,6.08 -6.24,6.40001 -6.24,6.39999 -6.08,6.88001 -6.08,6.87999 -5.92,7.04 -5.919998,7.2 -5.760003,7.36 -5.599998,7.52001 -5.280003,7.51998 -5.279998,7.68001 -5.119999,7.68 -4.800003,7.68 -4.799996,7.68 -4.480003,7.68 -4.159996,7.680003 -4,7.680001 -3.680001,7.679992 -3.520004,7.520005 -3.199998,7.36 -3.04,7.360001 -2.72,7.039997"
       style="fill:none;stroke:#000000;stroke-width:26.4;stroke-linecap:round;stroke-linejoin:round;stroke-miterlimit:10;stroke-dasharray:none;stroke-opacity:1"
       transform="translate(338.42666,378.54661)"
       clip-path="url(#clipPath4)" />
    <path
       id="path5"
       d="M 312.64001,585.59998 170.24,667.03998"
       style="fill:none;stroke:#000000;stroke-width:26.4;stroke-linecap:round;stroke-linejoin:round;stroke-miterlimit:10;stroke-dasharray:none;stroke-opacity:1"
       transform="translate(-145.41333,-308.33339)"
       clip-path="url(#clipPath6)" />
    <path
       id="path7"
       d="m 0,0 -3.68,7.04 -3.52,7.04 -3.04,7.360001 -2.56,7.359998 -2.24,7.520001 -1.759999,7.52 -1.280001,7.68 -0.960001,7.840001 -0.479999,7.68 0.159999,7.839996 0.32,7.680001 0.960001,7.840004 1.280001,7.68 L -15.04,105.6 l 2.24,7.52 2.72,7.36 3.04,7.36 3.36,7.04 3.84,6.87999 4.32,6.72001 4.64,6.55999 4.96,6.40001 5.44,5.92 5.600001,5.92 6.08,5.44 6.239998,5.28 6.720001,4.96001 6.880001,4.47999 7.040001,4.31999 7.519996,3.84002 7.520005,3.67999 7.839996,3.2 7.840004,2.72 8.159996,2.55999 8.160001,2.08001 8.48,1.6 8.32,1.28 8.47999,0.8 8.64,0.48 8.48001,0.16 8.48,-0.48001 8.48,-0.64 8.48001,-1.11999 8.31999,-1.59999 8.32001,-1.92002 8.15998,-2.39999 8,-2.72 7.84002,-3.04 7.67999,-3.52 7.36,-3.68001 7.2,-4.15999 7.04,-4.64 6.72001,-4.8 L 256,180.32001 262.07999,174.88"
       style="fill:none;stroke:#000000;stroke-width:26.4;stroke-linecap:round;stroke-linejoin:round;stroke-miterlimit:10;stroke-dasharray:none;stroke-opacity:1"
       transform="translate(73.786664,204.62663)"
       clip-path="url(#clipPath8)" />
    <path
       id="path9"
       d="m 0,0 -2.56,6.08 -2.08,6.24 -1.92,6.239999 -1.28,6.4 -1.12,6.400002 -0.48,6.559997 -0.16,6.400002 0.16,6.560001 0.64,6.559998 1.12,6.400001 1.44,6.399998 1.92,6.240005 2.24,6.079995 2.72,6.080001 3.04,5.919999 3.36,5.760002 3.84,5.44 4.16,5.28 4.48,5.12 4.64,4.8 5.120001,4.64 5.44,4.32 5.599999,4 5.760002,3.68001 6.079998,3.36 6.400001,3.19999 6.399998,2.72 6.720001,2.4 6.720002,1.92 7.04,1.76001 6.879998,1.27999 7.199997,0.96 7.040003,0.47999 7.2,0.16001 7.04,-0.16001 7.2,-0.64 7.03999,-0.95999 7.04001,-1.28 6.88001,-1.76001 6.71998,-2.07998 6.72,-2.40001 6.40001,-2.72 6.4,-3.04 6.08,-3.52 5.75999,-3.67999 5.60001,-4 5.44,-4.32001 4.95999,-4.64 4.80001,-4.96 4.32,-5.12 4.16001,-5.28 L 220,99.68"
       style="fill:none;stroke:#000000;stroke-width:26.4;stroke-linecap:round;stroke-linejoin:round;stroke-miterlimit:10;stroke-dasharray:none;stroke-opacity:1"
       transform="translate(231.38665,323.66661)"
       clip-path="url(#clipPath10)" />
  </g>
</svg>
