<?xml version="1.0" encoding="UTF-8" standalone="no"?>
<!-- Created with Inkscape (http://www.inkscape.org/) -->

<svg
   version="1.1"
   id="svg1"
   width="560.30664"
   height="353.72"
   viewBox="0 0 560.30664 353.72"
   sodipodi:docname="Tin41.pdf"
   xmlns:inkscape="http://www.inkscape.org/namespaces/inkscape"
   xmlns:sodipodi="http://sodipodi.sourceforge.net/DTD/sodipodi-0.dtd"
   xmlns="http://www.w3.org/2000/svg"
   xmlns:svg="http://www.w3.org/2000/svg">
  <defs
     id="defs1">
    <clipPath
       clipPathUnits="userSpaceOnUse"
       id="clipPath2">
      <path
         d="M 0,0.16 V 1122.5601 H 793.59998 V 0.16 Z"
         clip-rule="evenodd"
         id="path2" />
    </clipPath>
    <clipPath
       clipPathUnits="userSpaceOnUse"
       id="clipPath4">
      <path
         d="M 0,0.16 V 1122.5601 H 793.59998 V 0.16 Z"
         clip-rule="evenodd"
         id="path4" />
    </clipPath>
    <clipPath
       clipPathUnits="userSpaceOnUse"
       id="clipPath6">
      <path
         d="M 0,0.16 V 1122.5601 H 793.59998 V 0.16 Z"
         transform="translate(-526.08002,-486.07999)"
         clip-rule="evenodd"
         id="path6" />
    </clipPath>
    <clipPath
       clipPathUnits="userSpaceOnUse"
       id="clipPath8">
      <path
         d="M 0,0.16 V 1122.5601 H 793.59998 V 0.16 Z"
         transform="translate(-551.67999,-606.71997)"
         clip-rule="evenodd"
         id="path8" />
    </clipPath>
    <clipPath
       clipPathUnits="userSpaceOnUse"
       id="clipPath10">
      <path
         d="M 0,0.16 V 1122.5601 H 793.59998 V 0.16 Z"
         transform="translate(-492.95999,-428.95999)"
         clip-rule="evenodd"
         id="path10" />
    </clipPath>
    <clipPath
       clipPathUnits="userSpaceOnUse"
       id="clipPath12">
      <path
         d="M 0,0.16 V 1122.5601 H 793.59998 V 0.16 Z"
         transform="translate(-549.28003,-607.03998)"
         clip-rule="evenodd"
         id="path12" />
    </clipPath>
  </defs>
  <sodipodi:namedview
     id="namedview1"
     pagecolor="#505050"
     bordercolor="#eeeeee"
     borderopacity="1"
     inkscape:showpageshadow="0"
     inkscape:pageopacity="0"
     inkscape:pagecheckerboard="0"
     inkscape:deskcolor="#505050">
    <inkscape:page
       x="0"
       y="0"
       inkscape:label="1"
       id="page1"
       width="560.30664"
       height="353.72"
       margin="0"
       bleed="0" />
  </sodipodi:namedview>
  <g
     id="g1"
     inkscape:groupmode="layer"
     inkscape:label="1">
    <path
       id="path1"
       d="M 148.64,637.28003 V 486.23999"
       style="fill:none;stroke:#000000;stroke-width:26.4;stroke-linecap:round;stroke-linejoin:round;stroke-miterlimit:10;stroke-dasharray:none;stroke-opacity:1"
       transform="translate(0,2.6799413)"
       clip-path="url(#clipPath2)" />
    <path
       id="path3"
       d="M 148.64,486.23999 H 526.08002"
       style="fill:none;stroke:#000000;stroke-width:26.4;stroke-linecap:round;stroke-linejoin:round;stroke-miterlimit:10;stroke-dasharray:none;stroke-opacity:1"
       transform="translate(0,2.6799413)"
       clip-path="url(#clipPath4)" />
    <path
       id="path5"
       d="m 0,0 h 3.52 l 3.52,-0.48 3.52,-0.96 3.2,-1.12 L 16.959999,-4 20.16,-5.6 23.040001,-7.68 25.6,-9.92 l 2.56,-2.56 2.24,-2.72 1.92,-2.88 1.760002,-3.040001 1.279999,-3.199999 1.119999,-3.36 0.799999,-3.520001 0.479999,-3.52 v -3.520001 l -0.16,-3.519996 -0.479999,-3.360001 -0.959999,-3.52 L 35.040001,-51.84 33.599998,-55.040001 31.84,-58.080002 29.76,-60.959999 27.52,-63.68 24.959999,-66.080002 22.08,-68.32 19.200001,-70.239998 16.16,-71.839996 12.8,-73.120003 9.44,-74.239998 6.08,-74.879997 2.56,-75.360001 h -3.52 l -3.52,0.160004 -3.52,0.639999 -3.36,0.96 -3.36,1.119995 -3.04,1.600006 -3.039999,1.759994 -2.880001,2.080002 -2.56,2.400002 -2.399999,2.559997 -2.24,2.720001"
       style="fill:none;stroke:#000000;stroke-width:26.4;stroke-linecap:round;stroke-linejoin:round;stroke-miterlimit:10;stroke-dasharray:none;stroke-opacity:1"
       transform="translate(526.08002,488.75993)"
       clip-path="url(#clipPath6)" />
    <path
       id="path7"
       d="m 0,0 5.6,0.48 5.6,0.16 h 5.599999 L 22.24,0.32 l 5.6,-0.64 5.279999,-0.64 5.440002,-1.12 5.119999,-1.12 4.959999,-1.44 4.959999,-1.6 4.640004,-1.92 4.319999,-2.08 4.16,-2.08 3.839997,-2.4 3.520004,-2.560001 L 77.440002,-20 80.32,-22.719999 82.879997,-25.6 85.120003,-28.639999 86.879997,-31.84 88.32,-34.880001 l 1.120002,-3.200001 0.64,-3.359997 0.32,-3.2 L 90.239998,-48 89.760002,-51.200001 88.800003,-54.400002 87.519997,-57.599998 85.760002,-60.639999 83.68,-63.68 81.279999,-66.559998 78.559998,-69.440002 75.360001,-72 l -3.520005,-2.559998 -3.679992,-2.400001 -4,-2.239998 -4.320004,-2.080002 -4.639999,-1.760002 -4.64,-1.760002 -4.960003,-1.439995 -5.119998,-1.120003 -5.279999,-1.120002 -5.440001,-0.64 -5.44,-0.639999 -5.600001,-0.32 H 13.28 7.68 l -5.6,0.480004 -5.44,0.639999 -5.44,0.799995 -5.28,0.960007"
       style="fill:none;stroke:#000000;stroke-width:26.4;stroke-linecap:round;stroke-linejoin:round;stroke-miterlimit:10;stroke-dasharray:none;stroke-opacity:1"
       transform="translate(551.67999,609.39991)"
       clip-path="url(#clipPath8)" />
    <path
       id="path9"
       d="m 0,0 -2.72,3.68 -2.4,3.84 -2.08,4 -1.92,4.16 -1.44,4.16 -1.12,4.48 -0.64,4.479999 -0.32,4.48 v 4.479999 l 0.32,4.480004 0.8,4.479999 1.12,4.32 1.44,4.32 1.76,4.159999 2.08,4 2.56,3.679997 2.72,3.68 3.04,3.200005 3.36,3.199997 L 10.08,80 l 3.84,2.559998 3.84,2.080001 4.16,1.919999 L 26.24,88 l 4.319999,1.120003 4.480002,0.799995 4.479999,0.32"
       style="fill:none;stroke:#000000;stroke-width:26.4;stroke-linecap:round;stroke-linejoin:round;stroke-miterlimit:10;stroke-dasharray:none;stroke-opacity:1"
       transform="translate(492.95999,431.63993)"
       clip-path="url(#clipPath10)" />
    <path
       id="path11"
       d="m 0,0 -4.16,-0.48 h -4.32 l -4.32,0.16 -4.320001,0.64 -4.32,0.96 -4.159999,1.28 -4,1.6 -3.839999,1.92 -3.68,2.4 -3.52,2.56 L -44,13.92 -47.040001,16.959999 -49.759998,20.32 -52.16,23.84 l -2.240002,3.84 -1.759998,4 -1.599998,4 -1.120003,4.16 -0.799999,4.32 -0.48,4.32 -0.16,4.319999 0.32,4.32 0.639999,4.32 0.959999,4.320003 1.280003,4.159996 1.599999,4 2.080001,3.840004 2.239998,3.68 2.560002,3.519997 2.880001,3.200005 3.199997,3.039993 3.36,2.720001 L -35.52,96.32 l 3.68,2.239998 4,1.760002 4,1.44 4.32,1.28 4.16,0.64 4.32,0.48 4.48,0.16 4.16,-0.48"
       style="fill:none;stroke:#000000;stroke-width:26.4;stroke-linecap:round;stroke-linejoin:round;stroke-miterlimit:10;stroke-dasharray:none;stroke-opacity:1"
       transform="translate(549.28003,609.71992)"
       clip-path="url(#clipPath12)" />
  </g>
</svg>
