<?xml version="1.0" encoding="UTF-8" standalone="no"?>
<!-- Created with Inkscape (http://www.inkscape.org/) -->

<svg
   version="1.1"
   id="svg1"
   width="504.26666"
   height="385.76001"
   viewBox="0 0 504.26666 385.76001"
   sodipodi:docname="Tin46.pdf"
   xmlns:inkscape="http://www.inkscape.org/namespaces/inkscape"
   xmlns:sodipodi="http://sodipodi.sourceforge.net/DTD/sodipodi-0.dtd"
   xmlns="http://www.w3.org/2000/svg"
   xmlns:svg="http://www.w3.org/2000/svg">
  <defs
     id="defs1">
    <clipPath
       clipPathUnits="userSpaceOnUse"
       id="clipPath2">
      <path
         d="M 0,0.16 V 1122.5601 H 793.59998 V 0.16 Z"
         transform="translate(-240.8,-689.11999)"
         clip-rule="evenodd"
         id="path2" />
    </clipPath>
    <clipPath
       clipPathUnits="userSpaceOnUse"
       id="clipPath4">
      <path
         d="M 0,0.16 V 1122.5601 H 793.59998 V 0.16 Z"
         transform="translate(-395.83999,-494.56)"
         clip-rule="evenodd"
         id="path4" />
    </clipPath>
    <clipPath
       clipPathUnits="userSpaceOnUse"
       id="clipPath6">
      <path
         d="M 0,0.16 V 1122.5601 H 793.59998 V 0.16 Z"
         transform="translate(-394.07998,-631.03998)"
         clip-rule="evenodd"
         id="path6" />
    </clipPath>
    <clipPath
       clipPathUnits="userSpaceOnUse"
       id="clipPath8">
      <path
         d="M 0,0.16 V 1122.5601 H 793.59998 V 0.16 Z"
         transform="translate(-3.3333333e-6)"
         clip-rule="evenodd"
         id="path8" />
    </clipPath>
    <clipPath
       clipPathUnits="userSpaceOnUse"
       id="clipPath10">
      <path
         d="M 0,0.16 V 1122.5601 H 793.59998 V 0.16 Z"
         transform="translate(-3.3333333e-6)"
         clip-rule="evenodd"
         id="path10" />
    </clipPath>
  </defs>
  <sodipodi:namedview
     id="namedview1"
     pagecolor="#505050"
     bordercolor="#eeeeee"
     borderopacity="1"
     inkscape:showpageshadow="0"
     inkscape:pageopacity="0"
     inkscape:pagecheckerboard="0"
     inkscape:deskcolor="#505050">
    <inkscape:page
       x="0"
       y="0"
       inkscape:label="1"
       id="page1"
       width="504.26666"
       height="385.76001"
       margin="0"
       bleed="0" />
  </sodipodi:namedview>
  <g
     id="g1"
     inkscape:groupmode="layer"
     inkscape:label="1">
    <path
       id="path1"
       d="M 0,0 C 0,-20.85 -15.79,-37.759998 -35.279999,-37.759998 -54.77,-37.759998 -70.559998,-20.85 -70.559998,0 c 0,20.85 15.789998,37.759998 35.279999,37.759998 C -15.79,37.759998 0,20.85 0,0 Z"
       style="fill:none;stroke:#000000;stroke-width:26.4;stroke-linecap:round;stroke-linejoin:round;stroke-miterlimit:10;stroke-dasharray:none;stroke-opacity:1"
       transform="translate(95.38667,323.3866)"
       clip-path="url(#clipPath2)" />
    <path
       id="path3"
       d="m 0,0 -3.84,-6.56 -4,-6.72 -4.16,-6.56 -4.32,-6.4 -4.479999,-6.24 -4.480002,-6.080001 L -29.92,-44.32 -34.720001,-50.080002 -39.52,-55.52 l -4.8,-5.119999 -4.799999,-4.959999 -4.799999,-4.64 -4.960003,-4.32 -4.799999,-4 -4.800003,-3.68 -4.799996,-3.36 -4.639999,-2.880005 -4.480004,-2.719994 -4.479995,-2.240005 -4.480004,-1.759995 -4.159996,-1.440002 -4.160003,-1.120003 -3.84,-0.799996 -3.84,-0.160003 h -3.52 l -3.36,0.480003 -3.2,0.959999 -2.88,1.279999 -2.72,1.760002 -2.56,1.919998 -2.24,2.559998 -1.91999,2.720001 -1.76001,3.200005 -1.44001,3.519996 -1.11999,3.839997 -0.8,4.160003 -0.64,4.480004 -0.32,4.799995 -0.16,5.120003 0.32001,5.279999 0.47999,5.599998 0.80001,5.760002 1.11999,5.919998 1.28,6.24 1.60001,6.240002 1.91999,6.559999 2.08,6.56 2.4,6.72 2.72,6.72 2.72,6.88 3.2,6.720001 3.2,6.879999 3.52,6.880001 3.68,6.719997 4,6.720002 4.000001,6.720001 4.159996,6.559997 4.32,6.400006 4.480003,6.239998 4.480003,6.080001 4.64,5.759995 4.799995,5.760002 4.64,5.440002 4.960002,5.119996 4.8,4.960002 4.799999,4.64 4.799999,4.16 4.960003,4 4.799999,3.68 4.64,3.36 4.639999,3.04 4.640001,2.56001 4.48,2.23999 4.32,1.91999 4.32,1.44001 4,1.11999 4,0.64002 3.68,0.15999"
       style="fill:none;stroke:#000000;stroke-width:26.4;stroke-linecap:round;stroke-linejoin:round;stroke-miterlimit:10;stroke-dasharray:none;stroke-opacity:1"
       transform="translate(250.42666,128.82661)"
       clip-path="url(#clipPath4)" />
    <path
       id="path5"
       d="m 0,0 3.84,-0.16 3.84,-0.64 4.16,-1.12 4.16,-1.44 4.48,-1.92 4.479999,-2.24 4.480002,-2.56 4.640001,-3.04 4.799999,-3.36 4.799999,-3.68 4.8,-4 4.959999,-4.16 4.800003,-4.639999 4.799999,-4.959999 4.799995,-5.120003 4.800003,-5.439999 4.800003,-5.760002 4.64,-5.759998 4.479996,-6.080002 4.480003,-6.239998 4.32,-6.400001 4.159996,-6.559998 L 103.52,-92 l 3.84,-6.720001 3.68,-6.719999 3.52,-6.88 3.36,-6.88 3.04,-6.72 2.88,-6.88 2.56,-6.72 2.4,-6.72 2.23999,-6.56 1.92002,-6.56 1.59999,-6.24001 1.28,-6.23999 1.12001,-5.91999 0.79998,-5.76001 0.48001,-5.59999 0.15999,-5.28 V -199.52 l -0.31999,-4.80001 -0.64,-4.47999 -0.8,-4.16001 -1.28,-3.83999 -1.44,-3.52001 -1.59999,-3.19999 -2.08001,-2.72 -2.24,-2.56 -2.4,-1.92 -2.72,-1.76 -2.88,-1.27999 -3.2,-0.96001 -3.36,-0.48 h -3.68 l -3.68,0.16001 -4,0.79999 -3.999998,1.12001 -4.32,1.44 -4.32,1.75999 -4.480003,2.24001 -4.639999,2.71998 -4.64,2.88001 -4.639999,3.36 -4.800003,3.68001 -4.959999,4 -4.799999,4.31999 -4.8,4.64 -4.799999,4.96001 -4.960003,5.11999 -4.639999,5.44 -4.799999,5.76 -4.64,5.76001 -4.479999,6.07998 -4.480002,6.24001 -4.319999,6.39999 -4.16,6.56002 -4,6.72 -4,6.55999"
       style="fill:none;stroke:#000000;stroke-width:26.4;stroke-linecap:round;stroke-linejoin:round;stroke-miterlimit:10;stroke-dasharray:none;stroke-opacity:1"
       transform="translate(248.66665,265.30659)"
       clip-path="url(#clipPath6)" />
    <path
       id="path7"
       d="M 243.52,677.91998 602.40002,572.32001"
       style="fill:none;stroke:#000000;stroke-width:26.4;stroke-linecap:round;stroke-linejoin:round;stroke-miterlimit:10;stroke-dasharray:none;stroke-opacity:1"
       transform="translate(-145.41333,-365.73339)"
       clip-path="url(#clipPath8)" />
    <path
       id="path9"
       d="m 608.15997,570.56 18.88001,71.03998"
       style="fill:none;stroke:#000000;stroke-width:26.4;stroke-linecap:round;stroke-linejoin:round;stroke-miterlimit:10;stroke-dasharray:none;stroke-opacity:1"
       transform="translate(-145.41333,-365.73339)"
       clip-path="url(#clipPath10)" />
  </g>
</svg>
