<?xml version="1.0" encoding="UTF-8" standalone="no"?>
<!-- Created with Inkscape (http://www.inkscape.org/) -->

<svg
   version="1.1"
   id="svg1"
   width="518.94666"
   height="501.88"
   viewBox="0 0 518.94666 501.88"
   sodipodi:docname="Tin47.pdf"
   xmlns:inkscape="http://www.inkscape.org/namespaces/inkscape"
   xmlns:sodipodi="http://sodipodi.sourceforge.net/DTD/sodipodi-0.dtd"
   xmlns="http://www.w3.org/2000/svg"
   xmlns:svg="http://www.w3.org/2000/svg">
  <defs
     id="defs1">
    <clipPath
       clipPathUnits="userSpaceOnUse"
       id="clipPath2">
      <path
         d="M 0,0.16 V 1122.5601 H 793.59998 V 0.16 Z"
         transform="translate(-171.36,-540.64001)"
         clip-rule="evenodd"
         id="path2" />
    </clipPath>
    <clipPath
       clipPathUnits="userSpaceOnUse"
       id="clipPath4">
      <path
         d="M 0,0.16 V 1122.5601 H 793.59998 V 0.16 Z"
         transform="translate(-295.51999,-417.11999)"
         clip-rule="evenodd"
         id="path4" />
    </clipPath>
    <clipPath
       clipPathUnits="userSpaceOnUse"
       id="clipPath6">
      <path
         d="M 0,0.16 V 1122.5601 H 793.59998 V 0.16 Z"
         transform="translate(-294.72,-334.72)"
         clip-rule="evenodd"
         id="path6" />
    </clipPath>
    <clipPath
       clipPathUnits="userSpaceOnUse"
       id="clipPath8">
      <path
         d="M 0,0.16 V 1122.5601 H 793.59998 V 0.16 Z"
         transform="translate(3.3333333e-6)"
         clip-rule="evenodd"
         id="path8" />
    </clipPath>
    <clipPath
       clipPathUnits="userSpaceOnUse"
       id="clipPath10">
      <path
         d="M 0,0.16 V 1122.5601 H 793.59998 V 0.16 Z"
         transform="translate(3.3333333e-6)"
         clip-rule="evenodd"
         id="path10" />
    </clipPath>
    <clipPath
       clipPathUnits="userSpaceOnUse"
       id="clipPath12">
      <path
         d="M 0,0.16 V 1122.5601 H 793.59998 V 0.16 Z"
         transform="translate(3.3333333e-6)"
         clip-rule="evenodd"
         id="path12" />
    </clipPath>
  </defs>
  <sodipodi:namedview
     id="namedview1"
     pagecolor="#505050"
     bordercolor="#eeeeee"
     borderopacity="1"
     inkscape:showpageshadow="0"
     inkscape:pageopacity="0"
     inkscape:pagecheckerboard="0"
     inkscape:deskcolor="#505050">
    <inkscape:page
       x="0"
       y="0"
       inkscape:label="1"
       id="page1"
       width="518.94666"
       height="501.88"
       margin="0"
       bleed="0" />
  </sodipodi:namedview>
  <g
     id="g1"
     inkscape:groupmode="layer"
     inkscape:label="1">
    <path
       id="path1"
       d="m 0,0 0.32,7.2 0.64,7.2 0.96,7.040001 1.44,7.039999 1.92,7.04 2.24,6.720002 2.72,6.719997 2.88,6.560001 3.519999,6.239998 3.680001,6.079998 4.16,5.920006 4.319999,5.599999 4.799999,5.440002 5.120003,5.119995 5.279999,4.64 5.599998,4.480003 L 55.52,103.2 l 6.079998,3.84 6.239998,3.36 6.560006,3.04 6.559997,2.72 6.879997,2.24 6.880005,1.92 7.039999,1.44 7.04,0.96 7.2,0.64 7.04,0.32 7.2,-0.16 7.2,-0.64 7.04,-1.12 7.04,-1.44 6.87999,-1.76 6.88001,-2.24 6.56,-2.72 6.55999,-2.88 6.24001,-3.52 6.08,-3.68 5.92,-4.159999 5.6,-4.32 5.43999,-4.800003 5.12001,-5.119995 4.64,-5.280007 4.48,-5.599998 L 226.08,68.32 229.92,62.240002 233.28,56 236.32001,49.439999 239.03999,42.720001 241.28,36 243.2,29.120001 244.64,22.08 l 1.11999,-7.2 0.64,-7.04 0.16001,-7.2 -0.16001,-7.2 -0.47999,-7.2 -1.12,-7.039999 -1.44,-7.040001 -1.75999,-7.040001 -2.24001,-6.719997 -2.56,-6.720002 -3.04001,-6.560001 -3.36,-6.239998 -3.67999,-6.240002 -4.16,-5.919998 -4.32,-5.599998 -4.8,-5.440003 -4.96,-4.959999 -5.44001,-4.800003 -5.59999,-4.479996 -5.76001,-4.160002 -6.07998,-3.84 -6.24001,-3.52 -6.56,-3.04 -6.56,-2.72 -6.88,-2.24 -6.88,-1.92 -6.87999,-1.44 -7.20002,-1.12 -7.03999,-0.64 -7.2,-0.32"
       style="fill:none;stroke:#000000;stroke-width:26.4;stroke-linecap:round;stroke-linejoin:round;stroke-miterlimit:10;stroke-dasharray:none;stroke-opacity:1"
       transform="translate(32.613334,232.30662)"
       clip-path="url(#clipPath2)" />
    <path
       id="path3"
       d="m 0,0 -4.8,0.16 -4.8,0.48 -4.8,0.96 -4.800001,1.28 -4.479999,1.6 -4.48,1.92 -4.32,2.4 -4,2.56 -3.84,3.04 -3.52,3.2 -3.360001,3.520001 -3.040001,3.839998 -2.719997,4 -2.560001,4.32 -1.919999,4.319999 -1.760002,4.640004 -1.439998,4.639999 -0.959999,4.799999 -0.640004,4.8 -0.16,4.799999 0.16,4.959999 0.480004,4.800003 0.959999,4.799995 1.279999,4.640007 1.600002,4.64 2.079998,4.319999 2.240002,4.32 2.719997,4 L -47.84,101.6 l 3.200001,3.68 3.52,3.36 3.84,3.04 4,2.72 4.32,2.4 4.32,1.92 4.639999,1.76 4.64,1.28 4.8,0.96 4.8,0.64 4.8,0.16 4.8,-0.16 4.8,-0.48 4.8,-0.96 4.64,-1.28 4.639999,-1.76 4.480002,-1.92 4.16,-2.4 4,-2.72 3.84,-3.04 3.52,-3.36"
       style="fill:none;stroke:#000000;stroke-width:26.4;stroke-linecap:round;stroke-linejoin:round;stroke-miterlimit:10;stroke-dasharray:none;stroke-opacity:1"
       transform="translate(156.77332,108.7866)"
       clip-path="url(#clipPath4)" />
    <path
       id="path5"
       d="m 0,0 -9.12,4 -8.8,4.32 -8.639999,4.8 -8.480002,5.28 -8.16,5.6 -7.84,6.08 -7.52,6.4 -7.200001,6.880001 -6.879997,7.040001 -6.400002,7.519996 -6.080002,7.840004 -5.759994,8.159996 -5.280007,8.32 -4.959996,8.639999 -4.32,8.800003 -4,9.12 -3.52,9.28 -3.2,9.44 -2.56,9.59999 -2.08,9.60001 -1.6,9.76 -1.12,9.91999 -0.8,9.92002 -0.16,9.91999 0.48,9.92 0.64,9.76"
       style="fill:none;stroke:#000000;stroke-width:26.4;stroke-linecap:round;stroke-linejoin:round;stroke-miterlimit:10;stroke-dasharray:none;stroke-opacity:1"
       transform="translate(155.97333,26.386609)"
       clip-path="url(#clipPath6)" />
    <path
       id="path7"
       d="M 541.28003,458.39999 V 787.84003"
       style="fill:none;stroke:#000000;stroke-width:26.4;stroke-linecap:round;stroke-linejoin:round;stroke-miterlimit:10;stroke-dasharray:none;stroke-opacity:1"
       transform="translate(-138.74667,-308.33339)"
       clip-path="url(#clipPath8)" />
    <path
       id="path9"
       d="M 459.04001,458.39999 H 623.35998"
       style="fill:none;stroke:#000000;stroke-width:26.4;stroke-linecap:round;stroke-linejoin:round;stroke-miterlimit:10;stroke-dasharray:none;stroke-opacity:1"
       transform="translate(-138.74667,-308.33339)"
       clip-path="url(#clipPath10)" />
    <path
       id="path11"
       d="M 459.04001,623.03998 H 623.35998"
       style="fill:none;stroke:#000000;stroke-width:26.4;stroke-linecap:round;stroke-linejoin:round;stroke-miterlimit:10;stroke-dasharray:none;stroke-opacity:1"
       transform="translate(-138.74667,-308.33339)"
       clip-path="url(#clipPath12)" />
  </g>
</svg>
