<?xml version="1.0" encoding="UTF-8" standalone="no"?>
<!-- Created with Inkscape (http://www.inkscape.org/) -->

<svg
   version="1.1"
   id="svg1"
   width="413.56"
   height="515.22668"
   viewBox="0 0 413.56 515.22668"
   sodipodi:docname="Tin9.pdf"
   xmlns:inkscape="http://www.inkscape.org/namespaces/inkscape"
   xmlns:sodipodi="http://sodipodi.sourceforge.net/DTD/sodipodi-0.dtd"
   xmlns="http://www.w3.org/2000/svg"
   xmlns:svg="http://www.w3.org/2000/svg">
  <defs
     id="defs1">
    <clipPath
       clipPathUnits="userSpaceOnUse"
       id="clipPath2">
      <path
         d="M 0,0.16 V 1122.5601 H 793.59998 V 0.16 Z"
         transform="translate(-321.28,-485.76001)"
         clip-rule="evenodd"
         id="path2" />
    </clipPath>
    <clipPath
       clipPathUnits="userSpaceOnUse"
       id="clipPath4">
      <path
         d="M 0,0.16 V 1122.5601 H 793.59998 V 0.16 Z"
         transform="translate(-321.28,-636.79999)"
         clip-rule="evenodd"
         id="path4" />
    </clipPath>
    <clipPath
       clipPathUnits="userSpaceOnUse"
       id="clipPath6">
      <path
         d="M 0,0.16 V 1122.5601 H 793.59998 V 0.16 Z"
         clip-rule="evenodd"
         id="path6" />
    </clipPath>
    <clipPath
       clipPathUnits="userSpaceOnUse"
       id="clipPath8">
      <path
         d="M 0,0.16 V 1122.5601 H 793.59998 V 0.16 Z"
         transform="translate(-472.32001,-787.84002)"
         clip-rule="evenodd"
         id="path8" />
    </clipPath>
    <clipPath
       clipPathUnits="userSpaceOnUse"
       id="clipPath10">
      <path
         d="M 0,0.16 V 1122.5601 H 793.59998 V 0.16 Z"
         transform="translate(-474.56,-636.32)"
         clip-rule="evenodd"
         id="path10" />
    </clipPath>
    <clipPath
       clipPathUnits="userSpaceOnUse"
       id="clipPath12">
      <path
         d="M 0,0.16 V 1122.5601 H 793.59998 V 0.16 Z"
         clip-rule="evenodd"
         id="path12" />
    </clipPath>
  </defs>
  <sodipodi:namedview
     id="namedview1"
     pagecolor="#505050"
     bordercolor="#eeeeee"
     borderopacity="1"
     inkscape:showpageshadow="0"
     inkscape:pageopacity="0"
     inkscape:pagecheckerboard="0"
     inkscape:deskcolor="#505050">
    <inkscape:page
       x="0"
       y="0"
       inkscape:label="1"
       id="page1"
       width="413.56"
       height="515.22668"
       margin="0"
       bleed="0" />
  </sodipodi:namedview>
  <g
     id="g1"
     inkscape:groupmode="layer"
     inkscape:label="1">
    <path
       id="path1"
       d="M 0,0 -5.28,0.16 -10.72,0.8 -16,1.76 -21.280001,3.04 -26.4,4.8 -31.360001,6.88 -36.16,9.28 -40.799999,12 l -4.32,3.04 -4.32,3.36 -3.84,3.68 -3.68,4 -3.360001,4.16 -3.2,4.480001 -2.719998,4.64 -2.400001,4.799999 -2.080002,4.959999 -1.599999,5.120003 -1.440002,5.119999 -0.959999,5.440002 -0.479996,5.279999 -0.32,5.439995 0.32,5.280006 0.479996,5.439995 0.959999,5.279999 1.279999,5.280006 1.760002,5.119997 2.080002,4.96 2.400001,4.8 2.719998,4.64 3.04,4.32 3.360001,4.32 3.68,3.84 4,3.68 4.16,3.52 4.48,3.03999 4.639999,2.72 4.799999,2.40001 4.960001,2.08 5.119999,1.76 5.120001,1.28 5.28,0.96 5.44,0.64 5.28,0.15999"
       style="fill:none;stroke:#000000;stroke-width:26.4;stroke-linecap:round;stroke-linejoin:round;stroke-miterlimit:10;stroke-dasharray:none;stroke-opacity:1"
       transform="translate(321.28,217.46662)"
       clip-path="url(#clipPath2)" />
    <path
       id="path3"
       d="M 0,0 -5.28,0.16 -10.72,0.8 -16,1.76 -21.280001,3.04 -26.4,4.8 -31.360001,6.88 -36.16,9.28 -40.799999,12 l -4.32,3.04 -4.32,3.36 -3.84,3.68 -3.68,4 -3.360001,4.16 -3.2,4.480001 -2.719998,4.64 -2.400001,4.799999 -2.080002,4.959999 -1.760002,5.120003 -1.279999,5.279998 -0.959999,5.280003 -0.479996,5.279999 -0.32,5.439995 0.32,5.440002 0.479996,5.279999 0.959999,5.279999 1.279999,5.280006 1.760002,5.119997 2.080002,4.96 2.400001,4.8 2.719998,4.64 3.2,4.48 3.360001,4.16 3.68,4.00001 3.84,3.67999 4.32,3.36 4.32,3.03999 4.639999,2.72 4.799999,2.40001 4.960001,2.08 5.119999,1.76 5.280001,1.28 5.28,0.96 5.44,0.64 5.28,0.15999"
       style="fill:none;stroke:#000000;stroke-width:26.4;stroke-linecap:round;stroke-linejoin:round;stroke-miterlimit:10;stroke-dasharray:none;stroke-opacity:1"
       transform="translate(321.28,368.5066)"
       clip-path="url(#clipPath4)" />
    <path
       id="path5"
       d="M 321.28,787.84003 H 472.32001"
       style="fill:none;stroke:#000000;stroke-width:26.4;stroke-linecap:round;stroke-linejoin:round;stroke-miterlimit:10;stroke-dasharray:none;stroke-opacity:1"
       transform="translate(0,-268.29339)"
       clip-path="url(#clipPath6)" />
    <path
       id="path7"
       d="M 0,0 5.44,-0.16 10.72,-0.8 16.16,-1.76 21.280001,-3.04 26.4,-4.8 31.360001,-6.88 36.16,-9.28 40.799999,-12 l 4.48,-3.04 4.16,-3.36 4,-3.68 3.68,-4 3.360001,-4.16 3.04,-4.480001 2.880002,-4.64 2.400001,-4.799999 1.919998,-4.959999 1.760002,-5.120003 1.279999,-5.279998 0.959999,-5.280003 0.64,-5.279999 0.159996,-5.439995 -0.159996,-5.440002 -0.64,-5.279999 -0.959999,-5.279999 -1.279999,-5.280006 -1.760002,-5.119997 -1.919998,-4.96 -2.400001,-4.8 -2.880002,-4.64 -3.04,-4.48 -3.360001,-4.16 -3.68,-4.00001 -4,-3.67999 -4.16,-3.36 -4.48,-3.03999 -4.639999,-2.72 L 31.360001,-144.16 26.4,-146.24 21.280001,-148 16.16,-149.28 10.72,-150.24 5.44,-150.88 0,-151.03999"
       style="fill:none;stroke:#000000;stroke-width:26.4;stroke-linecap:round;stroke-linejoin:round;stroke-miterlimit:10;stroke-dasharray:none;stroke-opacity:1"
       transform="translate(472.32001,519.54663)"
       clip-path="url(#clipPath8)" />
    <path
       id="path9"
       d="m 0,0 5.12,2.24 5.12,1.6 5.28,1.28 5.279999,0.96 L 26.08,6.72 31.52,6.88 36.959999,6.72 42.240002,6.08 47.52,5.12 52.799999,3.84 57.919998,2.08 62.880001,0 67.68,-2.4 l 4.64,-2.72 4.480003,-3.2 4.159996,-3.36 4,-3.68 3.68,-3.840001 L 92,-23.52 l 3.040001,-4.32 2.720001,-4.64 2.399998,-4.959999 2.08,-4.960003 1.6,-5.119998 1.44,-5.119999 0.96,-5.279999 0.48,-5.440003 0.16,-5.440002 -0.16,-5.279999 -0.64,-5.439995 -0.96,-5.280006 -1.28,-5.279999 -1.76,-5.119995 -2.08,-4.960003 -2.400002,-4.8 -2.720001,-4.64 -3.040001,-4.32 -3.359993,-4.32 -3.68,-3.84 -4,-3.68 -4.160004,-3.35999 -4.479995,-3.04001 -4.640007,-2.87999 -4.959996,-2.40001"
       style="fill:none;stroke:#000000;stroke-width:26.4;stroke-linecap:round;stroke-linejoin:round;stroke-miterlimit:10;stroke-dasharray:none;stroke-opacity:1"
       transform="translate(474.56,368.02661)"
       clip-path="url(#clipPath10)" />
    <path
       id="path11"
       d="M 396.79999,787.84003 V 938.88"
       style="fill:none;stroke:#000000;stroke-width:26.4;stroke-linecap:round;stroke-linejoin:round;stroke-miterlimit:10;stroke-dasharray:none;stroke-opacity:1"
       transform="translate(0,-268.29339)"
       clip-path="url(#clipPath12)" />
  </g>
</svg>
