<?xml version="1.0" encoding="UTF-8" standalone="no"?>
<!-- Created with Inkscape (http://www.inkscape.org/) -->

<svg
   version="1.1"
   id="svg1"
   width="517.61334"
   height="529.91998"
   viewBox="0 0 517.61334 529.91998"
   sodipodi:docname="Zinc4.pdf"
   xmlns:inkscape="http://www.inkscape.org/namespaces/inkscape"
   xmlns:sodipodi="http://sodipodi.sourceforge.net/DTD/sodipodi-0.dtd"
   xmlns="http://www.w3.org/2000/svg"
   xmlns:svg="http://www.w3.org/2000/svg">
  <defs
     id="defs1">
    <clipPath
       clipPathUnits="userSpaceOnUse"
       id="clipPath2">
      <path
         d="M 0,0.16 V 1122.5601 H 793.59998 V 0.16 Z"
         transform="translate(-566.71997,-627.28003)"
         clip-rule="evenodd"
         id="path2" />
    </clipPath>
    <clipPath
       clipPathUnits="userSpaceOnUse"
       id="clipPath4">
      <path
         d="M 0,0.16 V 1122.5601 H 793.59998 V 0.16 Z"
         transform="translate(-169.75999,-438.72)"
         clip-rule="evenodd"
         id="path4" />
    </clipPath>
    <clipPath
       clipPathUnits="userSpaceOnUse"
       id="clipPath6">
      <path
         d="M 0,0.16 V 1122.5601 H 793.59998 V 0.16 Z"
         transform="translate(-397.28,-325.44)"
         clip-rule="evenodd"
         id="path6" />
    </clipPath>
  </defs>
  <sodipodi:namedview
     id="namedview1"
     pagecolor="#505050"
     bordercolor="#eeeeee"
     borderopacity="1"
     inkscape:showpageshadow="0"
     inkscape:pageopacity="0"
     inkscape:pagecheckerboard="0"
     inkscape:deskcolor="#505050">
    <inkscape:page
       x="0"
       y="0"
       inkscape:label="1"
       id="page1"
       width="517.61334"
       height="529.91998"
       margin="0"
       bleed="0" />
  </sodipodi:namedview>
  <g
     id="g1"
     inkscape:groupmode="layer"
     inkscape:label="1">
    <path
       id="path1"
       d="m 0,0 c 0,-93.800003 -76.07,-169.84 -169.92,-169.84 -93.84999,0 -169.92,76.039997 -169.92,169.84 0,93.800003 76.07001,169.84 169.92,169.84 C -76.07,169.84 0,93.800003 0,0 Z"
       style="fill:none;stroke:#000000;stroke-width:26.4;stroke-linecap:round;stroke-linejoin:round;stroke-miterlimit:10;stroke-dasharray:none;stroke-opacity:1"
       transform="translate(566.71997,629.94664)"
       clip-path="url(#clipPath2)" />
    <path
       id="path3"
       d="m 0,0 5.6,4.96 5.92,4.8 6.08,4.32 6.24,4 6.56,3.68 6.719999,3.360001 L 44,28 l 7.040001,2.559999 7.200001,2.24 7.359996,1.760002 7.360001,1.279999 7.520004,0.959999 7.359993,0.48 h 7.520005 l 7.519999,-0.32 7.52,-0.799999 7.36,-1.119999 7.36,-1.600002 L 132.32001,31.52 139.52,29.120001 146.39999,26.24 153.28,23.200001 159.84,19.68 l 6.4,-4 6.24,-4.16 5.91999,-4.64 L 184,1.92 l 5.44,-5.28 5.12,-5.44 4.8,-5.76 4.31999,-6.079999 4.16001,-6.24 3.68,-6.56 3.36,-6.720001 3.04,-6.880001 2.56,-7.040001 2.24,-7.199997 1.76,-7.200004 1.44,-7.359993 0.96,-7.520005 0.48,-7.519996 0.16,-7.520005 -0.16,-7.359998 -0.8,-7.52"
       style="fill:none;stroke:#000000;stroke-width:26.4;stroke-linecap:round;stroke-linejoin:round;stroke-miterlimit:10;stroke-dasharray:none;stroke-opacity:1"
       transform="translate(169.75999,441.38661)"
       clip-path="url(#clipPath4)" />
    <path
       id="path5"
       d="m 0,0 -0.64,7.52 -0.32,7.36 0.16,7.52 0.64,7.52 0.96,7.519999 1.28,7.36 L 4,52 l 2.08,7.200001 2.72,7.039997 2.88,6.880005 3.36,6.719993 3.839999,6.560006 4,6.239997 4.480002,6.080002 L 32.16,104.48 l 5.119999,5.44 5.280002,5.28 5.759999,4.96 5.920002,4.64 6.079998,4.16001 6.559997,4 6.560005,3.51999 6.720002,3.04 7.039993,2.87999 7.040001,2.40001 7.360002,1.92 7.2,1.60001 7.52,1.11999 7.36,0.8 7.52,0.32 h 7.52 l 7.52,-0.48 7.51999,-0.96001 7.36,-1.27999 7.20002,-1.76 7.19999,-2.24 7.04,-2.56 7.04001,-2.88001 6.72,-3.36 6.55999,-3.67999 6.23999,-4 6.08001,-4.32 5.91999,-4.8 5.44001,-4.96"
       style="fill:none;stroke:#000000;stroke-width:26.4;stroke-linecap:round;stroke-linejoin:round;stroke-miterlimit:10;stroke-dasharray:none;stroke-opacity:1"
       transform="translate(397.28,328.10661)"
       clip-path="url(#clipPath6)" />
  </g>
</svg>
