<?xml version="1.0" encoding="UTF-8" standalone="no"?>
<!-- Created with Inkscape (http://www.inkscape.org/) -->

<svg
   version="1.1"
   id="svg1"
   width="500.26666"
   height="503.21332"
   viewBox="0 0 500.26666 503.21332"
   sodipodi:docname="Zinc9.pdf"
   xmlns:inkscape="http://www.inkscape.org/namespaces/inkscape"
   xmlns:sodipodi="http://sodipodi.sourceforge.net/DTD/sodipodi-0.dtd"
   xmlns="http://www.w3.org/2000/svg"
   xmlns:svg="http://www.w3.org/2000/svg">
  <defs
     id="defs1">
    <clipPath
       clipPathUnits="userSpaceOnUse"
       id="clipPath2">
      <path
         d="M 0,0.16 V 1122.5601 H 793.59998 V 0.16 Z"
         transform="translate(-536.79999,-680.32001)"
         clip-rule="evenodd"
         id="path2" />
    </clipPath>
    <clipPath
       clipPathUnits="userSpaceOnUse"
       id="clipPath4">
      <path
         d="M 0,0.16 V 1122.5601 H 793.59998 V 0.16 Z"
         transform="translate(-245.75999,-485.76001)"
         clip-rule="evenodd"
         id="path4" />
    </clipPath>
    <clipPath
       clipPathUnits="userSpaceOnUse"
       id="clipPath6">
      <path
         d="M 0,0.16 V 1122.5601 H 793.59998 V 0.16 Z"
         transform="translate(-245.75999,-485.76001)"
         clip-rule="evenodd"
         id="path6" />
    </clipPath>
    <clipPath
       clipPathUnits="userSpaceOnUse"
       id="clipPath8">
      <path
         d="M 0,0.16 V 1122.5601 H 793.59998 V 0.16 Z"
         transform="translate(-623.35998,-485.76001)"
         clip-rule="evenodd"
         id="path8" />
    </clipPath>
    <clipPath
       clipPathUnits="userSpaceOnUse"
       id="clipPath10">
      <path
         d="M 0,0.16 V 1122.5601 H 793.59998 V 0.16 Z"
         transform="translate(-200.16,-838.08002)"
         clip-rule="evenodd"
         id="path10" />
    </clipPath>
    <clipPath
       clipPathUnits="userSpaceOnUse"
       id="clipPath12">
      <path
         d="M 0,0.16 V 1122.5601 H 793.59998 V 0.16 Z"
         clip-rule="evenodd"
         id="path12" />
    </clipPath>
    <clipPath
       clipPathUnits="userSpaceOnUse"
       id="clipPath14">
      <path
         d="M 0,0.16 V 1122.5601 H 793.59998 V 0.16 Z"
         transform="translate(-461.28,-680.32001)"
         clip-rule="evenodd"
         id="path14" />
    </clipPath>
  </defs>
  <sodipodi:namedview
     id="namedview1"
     pagecolor="#505050"
     bordercolor="#eeeeee"
     borderopacity="1"
     inkscape:showpageshadow="0"
     inkscape:pageopacity="0"
     inkscape:pagecheckerboard="0"
     inkscape:deskcolor="#505050">
    <inkscape:page
       x="0"
       y="0"
       inkscape:label="1"
       id="page1"
       width="500.26666"
       height="503.21332"
       margin="0"
       bleed="0" />
  </sodipodi:namedview>
  <g
     id="g1"
     inkscape:groupmode="layer"
     inkscape:label="1">
    <path
       id="path1"
       d="m 0,0 c 0,-20.85 -16.9,-37.759998 -37.759998,-37.759998 -20.860001,0 -37.759999,16.909998 -37.759999,37.759998 0,20.85 16.899998,37.759998 37.759999,37.759998 C -16.9,37.759998 0,20.85 0,0 Z"
       style="fill:none;stroke:#000000;stroke-width:26.4;stroke-linecap:round;stroke-linejoin:round;stroke-miterlimit:10;stroke-dasharray:none;stroke-opacity:1"
       transform="translate(388.71999,229.15995)"
       clip-path="url(#clipPath2)" />
    <path
       id="path3"
       d="m 0,0 11.2,5.76 11.519999,5.28 11.680003,4.8 11.68,4.32 12,3.84 12.159996,3.360001 L 82.400002,30.4 94.720001,32.799999 107.2,34.720001 119.68,36.32 l 12.48,0.959999 12.64,0.479999 h 12.64 L 169.92,37.279999 182.56,36.32 195.03999,34.720001 207.36,32.799999 219.67999,30.4 232,27.360001 244.16,24 256,20.16 267.84,15.84 279.51999,11.04 290.88,5.76 302.07999,0"
       style="fill:none;stroke:#000000;stroke-width:26.4;stroke-linecap:round;stroke-linejoin:round;stroke-miterlimit:10;stroke-dasharray:none;stroke-opacity:1"
       transform="translate(97.679995,34.599951)"
       clip-path="url(#clipPath4)" />
    <path
       id="path5"
       d="m 0,0 -4.96,-2.4 -5.28,-2.08 -5.28,-1.6 -5.439999,-1.44 -5.6,-0.96 -5.600001,-0.48 -5.599998,-0.16 -5.600003,0.16 -5.439998,0.48 -5.600003,0.96 -5.439998,1.44 -5.280003,1.6 -5.279999,2.08 -5.119995,2.4"
       style="fill:none;stroke:#000000;stroke-width:26.4;stroke-linecap:round;stroke-linejoin:round;stroke-miterlimit:10;stroke-dasharray:none;stroke-opacity:1"
       transform="translate(97.679995,34.599951)"
       clip-path="url(#clipPath6)" />
    <path
       id="path7"
       d="m 0,0 -7.36,-2.08 -7.52,-1.6 -7.52,-1.12 -7.68,-0.64 -7.679998,-0.32 -7.680001,0.32 -7.52,0.64 -7.68,1.12 -7.520005,1.6 -7.359993,2.08"
       style="fill:none;stroke:#000000;stroke-width:26.4;stroke-linecap:round;stroke-linejoin:round;stroke-miterlimit:10;stroke-dasharray:none;stroke-opacity:1"
       transform="translate(475.27998,34.599951)"
       clip-path="url(#clipPath8)" />
    <path
       id="path9"
       d="m 0,0 3.2,8.8 3.36,8.320001 3.36,8 3.52,7.519998 L 17.120001,40 l 3.839998,6.720001 3.84,6.399998 4,6.080002 4,5.600002 4.16,5.119995 4.16,4.64 4.32,4.160003 4.319999,3.839997 4.480004,3.200004 4.319999,2.879997 4.48,2.400002 4.479996,1.760002 4.640007,1.439995 4.479995,0.800003 4.64,0.479996 4.480003,-0.159996 4.64,-0.480004 4.479995,-1.119995 4.480004,-1.599998 4.479999,-1.920006 4.48,-2.559998 4.48,-3.040001 4.32,-3.519996 4.32,-3.840004 4.32,-4.479996 L 129.92,68 l 4,-5.279999 4.16,-5.760002 3.84,-6.079998 L 145.75999,44.32 149.44,37.279999 153.11999,29.92 156.64,22.24 160,14.08 l 3.36,-8.48 3.03999,-8.8 3.04001,-9.12 2.88001,-9.44 2.71998,-9.92 2.56002,-9.919998 L 180,-52 182.24,-62.560001 184.32001,-73.279999 186.24,-84.32 188,-95.519997 189.60001,-106.88 l 1.43998,-11.68 1.28002,-11.68 0.95999,-11.84 0.96,-11.84 0.64,-12 0.48,-12.16 0.48,-12.16 0.16,-12 -0.16,-12.15999 -0.16001,-12.16001 -0.31999,-12.16"
       style="fill:none;stroke:#000000;stroke-width:26.4;stroke-linecap:round;stroke-linejoin:round;stroke-miterlimit:10;stroke-dasharray:none;stroke-opacity:1"
       transform="translate(52.080004,386.91996)"
       clip-path="url(#clipPath10)" />
    <path
       id="path11"
       d="m 396.79999,523.52002 v 75.51996"
       style="fill:none;stroke:#000000;stroke-width:26.4;stroke-linecap:round;stroke-linejoin:round;stroke-miterlimit:10;stroke-dasharray:none;stroke-opacity:1"
       transform="translate(-148.08,-451.16006)"
       clip-path="url(#clipPath12)" />
    <path
       id="path13"
       d="M 0,0 -5.28,0.16 -10.72,0.8 -16,1.76 -21.280001,3.04 -26.4,4.8 -31.360001,6.88 -36.16,9.28 -40.799999,12 l -4.32,3.04 -4.32,3.519999 -3.84,3.680001 -3.68,3.84 -3.360001,4.16 -3.2,4.480001 -2.719998,4.64 -2.400001,4.799999 -2.080002,4.959999 -1.599999,5.120003 -1.440002,5.279998 -0.959999,5.280003 -0.479996,5.439995 -0.32,5.279999"
       style="fill:none;stroke:#000000;stroke-width:26.4;stroke-linecap:round;stroke-linejoin:round;stroke-miterlimit:10;stroke-dasharray:none;stroke-opacity:1"
       transform="translate(313.2,229.15995)"
       clip-path="url(#clipPath14)" />
  </g>
</svg>
