<?xml version="1.0" encoding="UTF-8" standalone="no"?>
<!-- Created with Inkscape (http://www.inkscape.org/) -->

<svg
   version="1.1"
   id="svg1"
   width="504.26666"
   height="501.89334"
   viewBox="0 0 504.26666 501.89334"
   sodipodi:docname="Amber3.pdf"
   xmlns:inkscape="http://www.inkscape.org/namespaces/inkscape"
   xmlns:sodipodi="http://sodipodi.sourceforge.net/DTD/sodipodi-0.dtd"
   xmlns="http://www.w3.org/2000/svg"
   xmlns:svg="http://www.w3.org/2000/svg">
  <defs
     id="defs1">
    <clipPath
       clipPathUnits="userSpaceOnUse"
       id="clipPath2">
      <path
         d="M 0,0.16 V 1122.5601 H 793.59998 V 0.16 Z"
         transform="translate(-247.03999,-560.47998)"
         clip-rule="evenodd"
         id="path2" />
    </clipPath>
    <clipPath
       clipPathUnits="userSpaceOnUse"
       id="clipPath4">
      <path
         d="M 0,0.16 V 1122.5601 H 793.59998 V 0.16 Z"
         clip-rule="evenodd"
         id="path4" />
    </clipPath>
    <clipPath
       clipPathUnits="userSpaceOnUse"
       id="clipPath6">
      <path
         d="M 0,0.16 V 1122.5601 H 793.59998 V 0.16 Z"
         transform="translate(-165.75999,-754.88001)"
         clip-rule="evenodd"
         id="path6" />
    </clipPath>
    <clipPath
       clipPathUnits="userSpaceOnUse"
       id="clipPath8">
      <path
         d="M 0,0.16 V 1122.5601 H 793.59998 V 0.16 Z"
         clip-rule="evenodd"
         id="path8" />
    </clipPath>
    <clipPath
       clipPathUnits="userSpaceOnUse"
       id="clipPath10">
      <path
         d="M 0,0.16 V 1122.5601 H 793.59998 V 0.16 Z"
         clip-rule="evenodd"
         id="path10" />
    </clipPath>
    <clipPath
       clipPathUnits="userSpaceOnUse"
       id="clipPath12">
      <path
         d="M 0,0.16 V 1122.5601 H 793.59998 V 0.16 Z"
         clip-rule="evenodd"
         id="path12" />
    </clipPath>
    <clipPath
       clipPathUnits="userSpaceOnUse"
       id="clipPath14">
      <path
         d="M 0,0.16 V 1122.5601 H 793.59998 V 0.16 Z"
         clip-rule="evenodd"
         id="path14" />
    </clipPath>
  </defs>
  <sodipodi:namedview
     id="namedview1"
     pagecolor="#505050"
     bordercolor="#eeeeee"
     borderopacity="1"
     inkscape:showpageshadow="0"
     inkscape:pageopacity="0"
     inkscape:pagecheckerboard="0"
     inkscape:deskcolor="#505050">
    <inkscape:page
       x="0"
       y="0"
       inkscape:label="1"
       id="page1"
       width="504.26666"
       height="501.89334"
       margin="0"
       bleed="0" />
  </sodipodi:namedview>
  <g
     id="g1"
     inkscape:groupmode="layer"
     inkscape:label="1">
    <path
       id="path1"
       d="m 0,0 6.88,-0.16 6.88,-0.64 6.72,-0.96 6.720001,-1.44 6.559997,-1.92 6.400002,-2.24 6.400001,-2.56 6.079998,-3.04 5.920002,-3.36 L 64.32,-20 l 5.599998,-4 5.279999,-4.48 4.960007,-4.639999 4.639999,-4.960003 4.479996,-5.279999 4,-5.599998 3.68,-5.600002 3.360001,-6.079998 3.04,-6.080002 2.56,-6.400002 2.24,-6.399994 1.92,-6.560005 1.44,-6.720001 0.96,-6.719994 0.64,-6.880003 0.16,-6.88 -0.16,-6.72 -0.64,-6.88 -0.96,-6.72001 -1.44,-6.72 -1.92,-6.55999 -2.24,-6.56 -2.56,-6.23999 -3.04,-6.24001 -3.360001,-5.92 -3.68,-5.76001 -4,-5.43998 -4.479996,-5.28002 -4.639999,-4.95999 -4.960007,-4.8 -5.279999,-4.31999 -5.599998,-4 -5.759999,-3.84001 -5.920002,-3.36001 L 46.560001,-216.48 40.16,-219.2 33.759998,-221.44 27.200001,-223.2 20.48,-224.64 13.76,-225.75999 6.88,-226.24 0,-226.56"
       style="fill:none;stroke:#000000;stroke-width:26.4;stroke-linecap:round;stroke-linejoin:round;stroke-miterlimit:10;stroke-dasharray:none;stroke-opacity:1"
       transform="translate(106.95999,250.81325)"
       clip-path="url(#clipPath2)" />
    <path
       id="path3"
       d="M 247.03999,333.92001 H 171.52"
       style="fill:none;stroke:#000000;stroke-width:26.4;stroke-linecap:round;stroke-linejoin:round;stroke-miterlimit:10;stroke-dasharray:none;stroke-opacity:1"
       transform="translate(-140.08,-309.66673)"
       clip-path="url(#clipPath4)" />
    <path
       id="path5"
       d="m 0,0 5.12,4.8 5.44,4.48 5.6,4.16 5.76,3.680001 6.08,3.519998 6.240002,3.040001 6.399997,2.56 6.560002,2.24 6.719997,1.92 6.720001,1.44 6.879998,1.119999 6.880005,0.639999 6.879997,0.16 7.040001,-0.16 6.879997,-0.639999 L 102.08,31.84 l 6.72,-1.44 6.72,-1.92 6.56,-2.24 6.4,-2.56 6.24,-3.040001 6.08,-3.519998 5.76,-3.680001 5.6,-4.16 5.28,-4.48 5.12,-4.8 4.8,-4.96 4.48,-5.44 4,-5.44 3.83999,-5.92 3.36,-6.08 3.04001,-6.240002 2.72,-6.399998 2.23999,-6.560001 1.76001,-6.719997 1.44,-6.720002 1.12,-6.880001 0.64,-6.879997 0.16,-6.880005 -0.16,-7.040001 -0.64,-6.879997 -1.12,-6.879999 -1.44,-6.72 -1.92,-6.72 -2.24,-6.56 -2.72,-6.40001 -3.04,-6.23999 -3.36,-6.08 -3.84001,-5.75999 -4,-5.60001 -4.47999,-5.28 -4.80001,-5.11999 -4.95999,-4.80001 -5.44,-4.32 -5.60001,-4.15999 -5.75999,-3.84001 -6.08,-3.36 -6.23999,-3.04 -6.40001,-2.56 -6.56,-2.24 -6.72,-1.92 -6.72,-1.44 -6.879999,-0.95999 L 88,-195.67999 81.120003,-196"
       style="fill:none;stroke:#000000;stroke-width:26.4;stroke-linecap:round;stroke-linejoin:round;stroke-miterlimit:10;stroke-dasharray:none;stroke-opacity:1"
       transform="translate(25.679995,445.21328)"
       clip-path="url(#clipPath6)" />
    <path
       id="path7"
       d="m 171.52,333.92001 -5.6,421.11997"
       style="fill:none;stroke:#000000;stroke-width:26.4;stroke-linecap:round;stroke-linejoin:round;stroke-miterlimit:10;stroke-dasharray:none;stroke-opacity:1"
       transform="translate(-140.08,-309.66673)"
       clip-path="url(#clipPath8)" />
    <path
       id="path9"
       d="M 472.32001,334.72 V 712.32001"
       style="fill:none;stroke:#000000;stroke-width:26.4;stroke-linecap:round;stroke-linejoin:round;stroke-miterlimit:10;stroke-dasharray:none;stroke-opacity:1"
       transform="translate(-140.08,-309.66673)"
       clip-path="url(#clipPath10)" />
    <path
       id="path11"
       d="M 396.79999,485.76001 H 623.35998"
       style="fill:none;stroke:#000000;stroke-width:26.4;stroke-linecap:round;stroke-linejoin:round;stroke-miterlimit:10;stroke-dasharray:none;stroke-opacity:1"
       transform="translate(-140.08,-309.66673)"
       clip-path="url(#clipPath12)" />
    <path
       id="path13"
       d="M 472.32001,712.32001 501.28,711.84003"
       style="fill:none;stroke:#000000;stroke-width:26.4;stroke-linecap:round;stroke-linejoin:round;stroke-miterlimit:10;stroke-dasharray:none;stroke-opacity:1"
       transform="translate(-140.08,-309.66673)"
       clip-path="url(#clipPath14)" />
  </g>
</svg>
