<?xml version="1.0" encoding="UTF-8" standalone="no"?>
<!-- Created with Inkscape (http://www.inkscape.org/) -->

<svg
   version="1.1"
   id="svg1"
   width="422.89334"
   height="352.38666"
   viewBox="0 0 422.89334 352.38666"
   sodipodi:docname="Balm.pdf"
   xmlns:inkscape="http://www.inkscape.org/namespaces/inkscape"
   xmlns:sodipodi="http://sodipodi.sourceforge.net/DTD/sodipodi-0.dtd"
   xmlns="http://www.w3.org/2000/svg"
   xmlns:svg="http://www.w3.org/2000/svg">
  <defs
     id="defs1">
    <clipPath
       clipPathUnits="userSpaceOnUse"
       id="clipPath2">
      <path
         d="M 0,0.16 V 1122.5601 H 793.59998 V 0.16 Z"
         transform="translate(-510.07998,-561.28003)"
         clip-rule="evenodd"
         id="path2" />
    </clipPath>
    <clipPath
       clipPathUnits="userSpaceOnUse"
       id="clipPath4">
      <path
         d="M 0,0.16 V 1122.5601 H 793.59998 V 0.16 Z"
         transform="translate(-3.3333334e-6)"
         clip-rule="evenodd"
         id="path4" />
    </clipPath>
    <clipPath
       clipPathUnits="userSpaceOnUse"
       id="clipPath6">
      <path
         d="M 0,0.16 V 1122.5601 H 793.59998 V 0.16 Z"
         transform="translate(-3.3333334e-6)"
         clip-rule="evenodd"
         id="path6" />
    </clipPath>
    <clipPath
       clipPathUnits="userSpaceOnUse"
       id="clipPath8">
      <path
         d="M 0,0.16 V 1122.5601 H 793.59998 V 0.16 Z"
         transform="translate(-3.3333334e-6)"
         clip-rule="evenodd"
         id="path8" />
    </clipPath>
    <clipPath
       clipPathUnits="userSpaceOnUse"
       id="clipPath10">
      <path
         d="M 0,0.16 V 1122.5601 H 793.59998 V 0.16 Z"
         transform="translate(-3.3333334e-6)"
         clip-rule="evenodd"
         id="path10" />
    </clipPath>
    <clipPath
       clipPathUnits="userSpaceOnUse"
       id="clipPath12">
      <path
         d="M 0,0.16 V 1122.5601 H 793.59998 V 0.16 Z"
         transform="translate(-3.3333334e-6)"
         clip-rule="evenodd"
         id="path12" />
    </clipPath>
    <clipPath
       clipPathUnits="userSpaceOnUse"
       id="clipPath14">
      <path
         d="M 0,0.16 V 1122.5601 H 793.59998 V 0.16 Z"
         transform="translate(-208,-674.56)"
         clip-rule="evenodd"
         id="path14" />
    </clipPath>
    <clipPath
       clipPathUnits="userSpaceOnUse"
       id="clipPath16">
      <path
         d="M 0,0.16 V 1122.5601 H 793.59998 V 0.16 Z"
         transform="translate(-510.07998,-674.56)"
         clip-rule="evenodd"
         id="path16" />
    </clipPath>
  </defs>
  <sodipodi:namedview
     id="namedview1"
     pagecolor="#505050"
     bordercolor="#eeeeee"
     borderopacity="1"
     inkscape:showpageshadow="0"
     inkscape:pageopacity="0"
     inkscape:pagecheckerboard="0"
     inkscape:deskcolor="#505050">
    <inkscape:page
       x="0"
       y="0"
       inkscape:label="1"
       id="page1"
       width="422.89334"
       height="352.38666"
       margin="0"
       bleed="0" />
  </sodipodi:namedview>
  <g
     id="g1"
     inkscape:groupmode="layer"
     inkscape:label="1">
    <path
       id="path1"
       d="m 0,0 -0.16,-6.88 -0.64,-6.72 -0.96,-6.72 -1.44,-6.720001 -1.92,-6.559997 -2.24,-6.560002 -2.56,-6.240002 -3.04,-6.239997 -3.36,-5.920002 L -20,-64.32 -24,-69.760002 -28.48,-75.040001 -33.119999,-80 l -4.960003,-4.800003 -5.279999,-4.32 -5.599998,-4.159996 -5.600002,-3.68 -6.079998,-3.360001 -6.080002,-2.88 -6.400002,-2.72 -6.399994,-2.24 -6.560005,-1.76 -6.720001,-1.44 -6.719994,-1.12 -6.880003,-0.64 -6.88,-0.16 -6.72,0.16 -6.88,0.64 -6.72001,1.12 -6.72,1.44 -6.55999,1.76 -6.56,2.24 -6.23999,2.72 -6.24001,2.88 -5.92,3.360001 -5.76001,3.68 -5.43998,4.159996 -5.28002,4.32 L -193.28,-80 l -4.8,4.959999 -4.31999,5.279999 -4,5.440002 -3.84001,5.759999 -3.36001,5.920002 -2.87999,6.239997 -2.72,6.240002 -2.24,6.560002 -1.76,6.559997 -1.44,6.720001 -0.96001,6.72 -0.63999,6.72 -0.32,6.88"
       style="fill:none;stroke:#000000;stroke-width:26.4;stroke-linecap:round;stroke-linejoin:round;stroke-miterlimit:10;stroke-dasharray:none;stroke-opacity:1"
       transform="translate(323.30665,174.18664)"
       clip-path="url(#clipPath2)" />
    <path
       id="path3"
       d="M 283.51999,561.28003 V 674.56"
       style="fill:none;stroke:#000000;stroke-width:26.4;stroke-linecap:round;stroke-linejoin:round;stroke-miterlimit:10;stroke-dasharray:none;stroke-opacity:1"
       transform="translate(-186.77333,-387.09339)"
       clip-path="url(#clipPath4)" />
    <path
       id="path5"
       d="M 510.07999,561.28003 V 674.56"
       style="fill:none;stroke:#000000;stroke-width:26.4;stroke-linecap:round;stroke-linejoin:round;stroke-miterlimit:10;stroke-dasharray:none;stroke-opacity:1"
       transform="translate(-186.77333,-387.09339)"
       clip-path="url(#clipPath6)" />
    <path
       id="path7"
       d="M 245.75999,561.28003 H 547.84003"
       style="fill:none;stroke:#000000;stroke-width:26.4;stroke-linecap:round;stroke-linejoin:round;stroke-miterlimit:10;stroke-dasharray:none;stroke-opacity:1"
       transform="translate(-186.77333,-387.09339)"
       clip-path="url(#clipPath8)" />
    <path
       id="path9"
       d="M 396.79999,410.23999 V 561.28003"
       style="fill:none;stroke:#000000;stroke-width:26.4;stroke-linecap:round;stroke-linejoin:round;stroke-miterlimit:10;stroke-dasharray:none;stroke-opacity:1"
       transform="translate(-186.77333,-387.09339)"
       clip-path="url(#clipPath10)" />
    <path
       id="path11"
       d="M 321.28,410.23999 H 472.32001"
       style="fill:none;stroke:#000000;stroke-width:26.4;stroke-linecap:round;stroke-linejoin:round;stroke-miterlimit:10;stroke-dasharray:none;stroke-opacity:1"
       transform="translate(-186.77333,-387.09339)"
       clip-path="url(#clipPath12)" />
    <path
       id="path13"
       d="M 0,0 0.16,3.52 0.64,6.88 1.44,10.4 2.56,13.6 4,16.799999 5.76,19.84 l 1.92,2.879999 2.24,2.720002 2.4,2.399999 2.72,2.24 2.88,2.08 3.039999,1.599998 3.200001,1.440003 3.36,1.119999 3.359999,0.799999 3.520003,0.479999 3.359996,0.16 3.520001,-0.16 3.52,-0.479999 L 48.16,36.32 51.52,35.200001 54.720001,33.759998 57.759998,32.16 60.639999,30.08 63.200001,27.84 65.760002,25.440001 68,22.719999 69.919998,19.84 71.68,16.799999 72.959999,13.6 74.080002,10.4 74.879997,6.88 75.360001,3.52 75.519997,0"
       style="fill:none;stroke:#000000;stroke-width:26.4;stroke-linecap:round;stroke-linejoin:round;stroke-miterlimit:10;stroke-dasharray:none;stroke-opacity:1"
       transform="translate(21.226667,287.46661)"
       clip-path="url(#clipPath14)" />
    <path
       id="path15"
       d="M 0,0 0.16,3.52 0.64,6.88 1.44,10.4 2.56,13.6 4,16.799999 5.76,19.84 l 1.92,2.879999 2.24,2.720002 2.4,2.399999 2.72,2.24 2.88,2.08 3.039999,1.599998 3.200001,1.440003 3.36,1.119999 3.359999,0.799999 3.360003,0.479999 3.519996,0.16 3.520001,-0.16 3.52,-0.479999 L 48.16,36.32 51.52,35.200001 54.560001,33.759998 57.599998,32.16 60.48,30.08 63.200001,27.84 65.760002,25.440001 68,22.719999 69.919998,19.84 71.519997,16.799999 72.959999,13.6 74.080002,10.4 74.879997,6.88 75.360001,3.52 75.519997,0"
       style="fill:none;stroke:#000000;stroke-width:26.4;stroke-linecap:round;stroke-linejoin:round;stroke-miterlimit:10;stroke-dasharray:none;stroke-opacity:1"
       transform="translate(323.30665,287.46661)"
       clip-path="url(#clipPath16)" />
  </g>
</svg>
