<?xml version="1.0" encoding="UTF-8" standalone="no"?>
<!-- Created with Inkscape (http://www.inkscape.org/) -->

<svg
   version="1.1"
   id="svg1"
   width="281.48001"
   height="348.38666"
   viewBox="0 0 281.48001 348.38666"
   sodipodi:docname="DragonBlood2.pdf"
   xmlns:inkscape="http://www.inkscape.org/namespaces/inkscape"
   xmlns:sodipodi="http://sodipodi.sourceforge.net/DTD/sodipodi-0.dtd"
   xmlns="http://www.w3.org/2000/svg"
   xmlns:svg="http://www.w3.org/2000/svg">
  <defs
     id="defs1">
    <clipPath
       clipPathUnits="userSpaceOnUse"
       id="clipPath2">
      <path
         d="M 0,0.16 V 1122.5601 H 793.59998 V 0.16 Z"
         transform="translate(-471.84,-503.20001)"
         clip-rule="evenodd"
         id="path2" />
    </clipPath>
    <clipPath
       clipPathUnits="userSpaceOnUse"
       id="clipPath4">
      <path
         d="M 0,0.16 V 1122.5601 H 793.59998 V 0.16 Z"
         transform="translate(-358.56,-465.44)"
         clip-rule="evenodd"
         id="path4" />
    </clipPath>
    <clipPath
       clipPathUnits="userSpaceOnUse"
       id="clipPath6">
      <path
         d="M 0,0.16 V 1122.5601 H 793.59998 V 0.16 Z"
         transform="translate(-358.56,-540.96002)"
         clip-rule="evenodd"
         id="path6" />
    </clipPath>
    <clipPath
       clipPathUnits="userSpaceOnUse"
       id="clipPath8">
      <path
         d="M 0,0.16 V 1122.5601 H 793.59998 V 0.16 Z"
         transform="translate(-358.56,-692)"
         clip-rule="evenodd"
         id="path8" />
    </clipPath>
    <clipPath
       clipPathUnits="userSpaceOnUse"
       id="clipPath10">
      <path
         d="M 0,0.16 V 1122.5601 H 793.59998 V 0.16 Z"
         transform="translate(-306.07999,-484.95999)"
         clip-rule="evenodd"
         id="path10" />
    </clipPath>
    <clipPath
       clipPathUnits="userSpaceOnUse"
       id="clipPath12">
      <path
         d="M 0,0.16 V 1122.5601 H 793.59998 V 0.16 Z"
         transform="translate(-306.07999,-484.95999)"
         clip-rule="evenodd"
         id="path12" />
    </clipPath>
    <clipPath
       clipPathUnits="userSpaceOnUse"
       id="clipPath14">
      <path
         d="M 0,0.16 V 1122.5601 H 793.59998 V 0.16 Z"
         transform="translate(-257.76001,-727.84003)"
         clip-rule="evenodd"
         id="path14" />
    </clipPath>
    <clipPath
       clipPathUnits="userSpaceOnUse"
       id="clipPath16">
      <path
         d="M 0,0.16 V 1122.5601 H 793.59998 V 0.16 Z"
         transform="translate(-360,-616.79999)"
         clip-rule="evenodd"
         id="path16" />
    </clipPath>
    <clipPath
       clipPathUnits="userSpaceOnUse"
       id="clipPath18">
      <path
         d="M 0,0.16 V 1122.5601 H 793.59998 V 0.16 Z"
         transform="translate(-471.84,-427.67999)"
         clip-rule="evenodd"
         id="path18" />
    </clipPath>
  </defs>
  <sodipodi:namedview
     id="namedview1"
     pagecolor="#505050"
     bordercolor="#eeeeee"
     borderopacity="1"
     inkscape:showpageshadow="0"
     inkscape:pageopacity="0"
     inkscape:pagecheckerboard="0"
     inkscape:deskcolor="#505050">
    <inkscape:page
       x="0"
       y="0"
       inkscape:label="1"
       id="page1"
       width="281.48001"
       height="348.38666"
       margin="0"
       bleed="0" />
  </sodipodi:namedview>
  <g
     id="g1"
     inkscape:groupmode="layer"
     inkscape:label="1">
    <path
       id="path1"
       d="m 0,0 c 0,-20.85 -16.9,-37.759998 -37.759998,-37.759998 -20.860001,0 -37.759999,16.909998 -37.759999,37.759998 0,20.85 16.899998,37.759998 37.759999,37.759998 C -16.9,37.759998 0,20.85 0,0 Z"
       style="fill:none;stroke:#000000;stroke-width:26.4;stroke-linecap:round;stroke-linejoin:round;stroke-miterlimit:10;stroke-dasharray:none;stroke-opacity:1"
       transform="translate(253.05333,98.759953)"
       clip-path="url(#clipPath2)" />
    <path
       id="path3"
       d="m 0,0 -6.88,0.32 -6.88,0.64 -6.72,0.96 -6.720001,1.44 -6.559997,1.76 -6.400002,2.24 -6.400001,2.72 -6.079998,3.04 -5.920002,3.36 -5.759999,3.68 -5.599998,4 -5.279999,4.32 -4.960007,4.799999 -4.639999,4.960003 -4.32,5.279998 -4.159996,5.439999 -3.68,5.760002 -3.360001,5.919998 -3.04,6.239998 -2.56,6.240006 -2.24,6.559997 -1.92,6.559998 -1.44,6.720001 -0.96,6.720001 -0.64,6.88 -0.16,6.72 0.16,6.88 0.64,6.88 0.96,6.71999 1.44,6.72001 1.92,6.55999 2.24,6.40001 2.56,6.4 3.04,6.08 3.360001,6.08 3.68,5.75999 4.159996,5.44001 4.32,5.28 4.639999,4.96 4.960007,4.64 5.279999,4.48 5.599998,4 5.759999,3.68 5.920002,3.36001 6.079998,3.03999 6.400001,2.56 6.400002,2.24 6.559997,1.92 6.720001,1.44 6.72,0.95999 6.88,0.64 L 0,226.56"
       style="fill:none;stroke:#000000;stroke-width:26.4;stroke-linecap:round;stroke-linejoin:round;stroke-miterlimit:10;stroke-dasharray:none;stroke-opacity:1"
       transform="translate(139.77333,60.999943)"
       clip-path="url(#clipPath4)" />
    <path
       id="path5"
       d="m 0,0 3.52,-0.16 3.36,-0.48 3.36,-0.8 3.36,-1.12 3.199999,-1.28 L 19.84,-5.6 22.719999,-7.52 25.440001,-9.76 27.84,-12.32 30.08,-14.88 32,-17.76 33.759998,-20.799999 35.200001,-24 36.32,-27.360001 l 0.799999,-3.359998 0.479999,-3.520003 0.16,-3.519996 -0.16,-3.360001 -0.479999,-3.52 L 36.32,-48 l -1.119999,-3.360001 -1.440003,-3.2 L 32,-57.599998 30.08,-60.48 27.84,-63.200001 25.440001,-65.599998 22.719999,-67.839996 19.84,-69.760002 16.799999,-71.519997 13.6,-72.959999 10.24,-74.080002 6.88,-74.879997 3.52,-75.360001 0,-75.519997"
       style="fill:none;stroke:#000000;stroke-width:26.4;stroke-linecap:round;stroke-linejoin:round;stroke-miterlimit:10;stroke-dasharray:none;stroke-opacity:1"
       transform="translate(139.77333,136.51996)"
       clip-path="url(#clipPath6)" />
    <path
       id="path7"
       d="m 0,0 3.36,-0.16 3.52,-0.48 3.36,-0.64 3.2,-1.12 3.199999,-1.44 L 19.68,-5.44 22.559999,-7.36 25.120001,-9.6 27.68,-12 l 2.24,-2.56 1.92,-2.880001 1.759998,-3.039999 1.440003,-3.04 1.119999,-3.359999 0.799999,-3.360001 0.48,-3.359998 0.319999,-3.360001 -0.16,-3.520001 -0.319999,-3.36 -0.799999,-3.360001 -0.96,-3.36 -1.439998,-3.199997 L 32.48,-56.799999 30.719999,-59.68 28.48,-62.400002 l -2.4,-2.559997 -2.56,-2.239998 -2.720001,-2.080002 -3.039999,-1.760002 -3.04,-1.440002 -3.2,-1.119995 -3.36,-0.96 -3.36,-0.639999"
       style="fill:none;stroke:#000000;stroke-width:26.4;stroke-linecap:round;stroke-linejoin:round;stroke-miterlimit:10;stroke-dasharray:none;stroke-opacity:1"
       transform="translate(139.77333,287.55994)"
       clip-path="url(#clipPath8)" />
    <path
       id="path9"
       d="m 0,0 0.64,-4.16 0.16,-4.16 -0.16,-4.16 -0.48,-4.159999 -0.96,-4 -1.12,-4 -1.6,-3.840001 -1.92,-3.68 -2.24,-3.52 -2.56,-3.360001 -2.88,-3.040001 -3.04,-2.879997 -3.36,-2.400002 -3.520001,-2.239997 -3.679998,-1.920002 -3.84,-1.599999 -4.000002,-1.280003 -4,-0.799999 -4.16,-0.479999 -4.16,-0.16 -4.16,0.32"
       style="fill:none;stroke:#000000;stroke-width:26.4;stroke-linecap:round;stroke-linejoin:round;stroke-miterlimit:10;stroke-dasharray:none;stroke-opacity:1"
       transform="translate(87.29332,80.519932)"
       clip-path="url(#clipPath10)" />
    <path
       id="path11"
       d="m 0,0 -0.48,4.16 -0.32,4.16 0.16,4.16 0.64,4 0.8,4.159999 1.28,4 1.6,3.840001 1.92,3.68 2.24,3.52 2.56,3.360001 2.72,3.040001 3.2,2.719997 3.2,2.560002 3.520001,2.239997 3.839998,1.920002 3.84,1.439999 4.000002,1.280003 4,0.799999 4.16,0.639999 h 4.16 l 4.16,-0.16"
       style="fill:none;stroke:#000000;stroke-width:26.4;stroke-linecap:round;stroke-linejoin:round;stroke-miterlimit:10;stroke-dasharray:none;stroke-opacity:1"
       transform="translate(87.29332,80.519932)"
       clip-path="url(#clipPath12)" />
    <path
       id="path13"
       d="m 0,0 4.16,0.32 4.16,-0.16 4,-0.48 4.16,-0.96 4,-1.12 3.84,-1.6 3.68,-1.92 3.52,-2.24 3.360001,-2.4 3.039997,-2.88 2.880001,-3.04 2.560002,-3.36 2.239997,-3.520001 1.920002,-3.68 1.599999,-3.839998 1.120003,-4.000002 0.959999,-4 0.479999,-4.16 0.16,-4.16 -0.16,-4.16 L 51.040001,-55.52"
       style="fill:none;stroke:#000000;stroke-width:26.4;stroke-linecap:round;stroke-linejoin:round;stroke-miterlimit:10;stroke-dasharray:none;stroke-opacity:1"
       transform="translate(38.973343,323.39997)"
       clip-path="url(#clipPath14)" />
    <path
       id="path15"
       d="m 0,0 -4.16,-0.32 -4.16,0.16 -4.16,0.48 -4,0.96 -4,1.12 -3.84,1.6 -3.84,1.92 -3.52,2.24 -3.200001,2.56 -3.200001,2.72 -2.719997,3.04 -2.560002,3.36 -2.239997,3.520001 -1.920002,3.68 -1.599999,3.839998 -1.280003,4.000002 -0.799999,4 -0.639999,4.16 -0.16,4.16 0.32,4.16 0.479999,4.159999"
       style="fill:none;stroke:#000000;stroke-width:26.4;stroke-linecap:round;stroke-linejoin:round;stroke-miterlimit:10;stroke-dasharray:none;stroke-opacity:1"
       transform="translate(141.21333,212.35993)"
       clip-path="url(#clipPath16)" />
    <path
       id="path17"
       d="m 0,0 -5.6,0.64 -5.44,1.12 -5.28,1.28 -5.28,1.76 -5.119999,2.08 -4.960001,2.4 -4.8,2.72 -4.639999,3.04 -4.479999,3.36 -4.16,3.68 -3.84,3.84 -3.680001,4.16 -3.36,4.480001 -3.040001,4.48 -2.720002,4.799999 -2.400001,5.119999 -2.079994,5.120003 -1.760002,5.279999 -1.279999,5.279998 -0.959999,5.440003 -0.64,5.439995"
       style="fill:none;stroke:#000000;stroke-width:26.4;stroke-linecap:round;stroke-linejoin:round;stroke-miterlimit:10;stroke-dasharray:none;stroke-opacity:1"
       transform="translate(253.05333,23.239934)"
       clip-path="url(#clipPath18)" />
  </g>
</svg>
