<?xml version="1.0" encoding="UTF-8" standalone="no"?>
<!-- Created with Inkscape (http://www.inkscape.org/) -->

<svg
   version="1.1"
   id="svg1"
   width="234.78667"
   height="278.97333"
   viewBox="0 0 234.78667 278.97333"
   sodipodi:docname="DragonBlood3.pdf"
   xmlns:inkscape="http://www.inkscape.org/namespaces/inkscape"
   xmlns:sodipodi="http://sodipodi.sourceforge.net/DTD/sodipodi-0.dtd"
   xmlns="http://www.w3.org/2000/svg"
   xmlns:svg="http://www.w3.org/2000/svg">
  <defs
     id="defs1">
    <clipPath
       clipPathUnits="userSpaceOnUse"
       id="clipPath2">
      <path
         d="M 0,0.16 V 1122.5601 H 793.59998 V 0.16 Z"
         transform="translate(-340.16,-692.64002)"
         clip-rule="evenodd"
         id="path2" />
    </clipPath>
    <clipPath
       clipPathUnits="userSpaceOnUse"
       id="clipPath4">
      <path
         d="M 0,0.16 V 1122.5601 H 793.59998 V 0.16 Z"
         clip-rule="evenodd"
         id="path4" />
    </clipPath>
    <clipPath
       clipPathUnits="userSpaceOnUse"
       id="clipPath6">
      <path
         d="M 0,0.16 V 1122.5601 H 793.59998 V 0.16 Z"
         transform="translate(-353.92001,-466.88001)"
         clip-rule="evenodd"
         id="path6" />
    </clipPath>
    <clipPath
       clipPathUnits="userSpaceOnUse"
       id="clipPath8">
      <path
         d="M 0,0.16 V 1122.5601 H 793.59998 V 0.16 Z"
         transform="translate(-319.20001,-692.96003)"
         clip-rule="evenodd"
         id="path8" />
    </clipPath>
    <clipPath
       clipPathUnits="userSpaceOnUse"
       id="clipPath10">
      <path
         d="M 0,0.16 V 1122.5601 H 793.59998 V 0.16 Z"
         clip-rule="evenodd"
         id="path10" />
    </clipPath>
  </defs>
  <sodipodi:namedview
     id="namedview1"
     pagecolor="#505050"
     bordercolor="#eeeeee"
     borderopacity="1"
     inkscape:showpageshadow="0"
     inkscape:pageopacity="0"
     inkscape:pagecheckerboard="0"
     inkscape:deskcolor="#505050">
    <inkscape:page
       x="0"
       y="0"
       inkscape:label="1"
       id="page1"
       width="234.78667"
       height="278.97333"
       margin="0"
       bleed="0" />
  </sodipodi:namedview>
  <g
     id="g1"
     inkscape:groupmode="layer"
     inkscape:label="1">
    <path
       id="path1"
       d="m 0,0 6.88,-0.32 6.88,-0.48 6.72,-1.12 6.720001,-1.44 6.559997,-1.76 6.400002,-2.24 6.400001,-2.72 6.079998,-2.88 5.920002,-3.36 5.759999,-3.84 5.599998,-4 5.279999,-4.32 4.960007,-4.799999 4.639999,-4.960003 4.32,-5.279998 4.159996,-5.439999 3.68,-5.760002 3.360001,-5.919998 3.04,-6.239998 2.56,-6.240006 2.24,-6.559997 1.92,-6.559998 1.44,-6.720001 0.96,-6.720001 0.64,-6.72 0.16,-6.88 -0.16,-6.88 -0.64,-6.88 -0.96,-6.71999 -1.44,-6.72001 -1.92,-6.55999 -2.24,-6.40001 -2.56,-6.4 -3.04,-6.08 -3.360001,-5.92 -3.68,-5.76001 -4.159996,-5.59999 -4.32,-5.28 -4.639999,-4.96 -4.960007,-4.64 -5.279999,-4.48 -5.599998,-4 -5.759999,-3.68 -5.920002,-3.36001 -6.079998,-3.03999 -6.400001,-2.56 -6.400002,-2.24 -6.559997,-1.92 -6.720001,-1.44 -6.72,-0.95999 -6.88,-0.64 L 0,-226.56"
       style="fill:none;stroke:#000000;stroke-width:26.4;stroke-linecap:round;stroke-linejoin:round;stroke-miterlimit:10;stroke-dasharray:none;stroke-opacity:1"
       transform="translate(340.16,657.93329)"
       clip-path="url(#clipPath2)" />
    <path
       id="path3"
       d="M 340.16,692.64001 H 264.64001"
       style="fill:none;stroke:#000000;stroke-width:26.4;stroke-linecap:round;stroke-linejoin:round;stroke-miterlimit:10;stroke-dasharray:none;stroke-opacity:1"
       transform="translate(0,-34.706725)"
       clip-path="url(#clipPath4)" />
    <path
       id="path5"
       d="m 0,0 -4.96,-0.48 h -4.8 l -4.96,0.32 -4.8,0.64 -4.8,0.96 -4.639999,1.44 -4.48,1.76 -4.319999,1.92 -4,2.4 -3.84,2.56 -3.680001,3.04 -3.200001,3.04 -3.04,3.520001 -2.720002,3.679998 -2.399997,3.84 -1.920002,4 -1.759999,4.16 -1.279998,4.32 -0.800004,4.479999 -0.479995,4.480004 -0.160004,4.479999 0.32,4.48 0.639999,4.479999 0.959999,4.48 1.440003,4.480003 1.760002,4.32 2.239998,4.159996 2.560001,4 2.719997,3.840004 3.200001,3.68 L -47.84,96 l 3.68,3.199997 4,2.880003 4.16,2.56 4.32,2.4 4.639999,2.08 4.640001,1.6 4.8,1.44 4.8,0.96 4.96,0.8"
       style="fill:none;stroke:#000000;stroke-width:26.4;stroke-linecap:round;stroke-linejoin:round;stroke-miterlimit:10;stroke-dasharray:none;stroke-opacity:1"
       transform="translate(353.92001,432.17328)"
       clip-path="url(#clipPath6)" />
    <path
       id="path7"
       d="M 0,0 4.96,0.32 10.08,0.48 15.04,0.16 20,-0.48 24.799999,-1.44 29.76,-2.88 l 4.640002,-1.6 4.479999,-1.92 4.48,-2.4 4.159999,-2.56 4,-2.88 3.680001,-3.200001 3.36,-3.359998 3.039997,-3.520001 2.880005,-3.84 2.399994,-4 2.080002,-4.16 1.760002,-4.16 1.440003,-4.319999 0.959999,-4.48 0.639999,-4.479999 0.159996,-4.480004 -0.159996,-4.479999 -0.639999,-4.479996 -0.959999,-4.32 -1.440003,-4.160003 -1.599998,-4.159996 -2.080002,-4 -2.559998,-3.840004 -2.720005,-3.680001 -3.199997,-3.36 -3.36,-3.199997 L 51.52,-100.8 l -4,-2.72 -4.159999,-2.24 -4.32,-2.08 -4.48,-1.6 L 29.76,-110.88 24.959999,-111.84 20,-112.64"
       style="fill:none;stroke:#000000;stroke-width:26.4;stroke-linecap:round;stroke-linejoin:round;stroke-miterlimit:10;stroke-dasharray:none;stroke-opacity:1"
       transform="translate(319.20001,658.2533)"
       clip-path="url(#clipPath8)" />
    <path
       id="path9"
       d="m 341.28,464.32001 -1.60001,225.76001"
       style="fill:none;stroke:#000000;stroke-width:26.4;stroke-linecap:round;stroke-linejoin:round;stroke-miterlimit:10;stroke-dasharray:none;stroke-opacity:1"
       transform="translate(0,-34.706725)"
       clip-path="url(#clipPath10)" />
  </g>
</svg>
