<?xml version="1.0" encoding="UTF-8" standalone="no"?>
<!-- Created with Inkscape (http://www.inkscape.org/) -->

<svg
   version="1.1"
   id="svg1"
   width="384.21332"
   height="391.09332"
   viewBox="0 0 384.21332 391.09332"
   sodipodi:docname="EthericOil.pdf"
   xmlns:inkscape="http://www.inkscape.org/namespaces/inkscape"
   xmlns:sodipodi="http://sodipodi.sourceforge.net/DTD/sodipodi-0.dtd"
   xmlns="http://www.w3.org/2000/svg"
   xmlns:svg="http://www.w3.org/2000/svg">
  <defs
     id="defs1">
    <clipPath
       clipPathUnits="userSpaceOnUse"
       id="clipPath2">
      <path
         d="M 0,0.16 V 1122.5601 H 793.59998 V 0.16 Z"
         clip-rule="evenodd"
         id="path2" />
    </clipPath>
    <clipPath
       clipPathUnits="userSpaceOnUse"
       id="clipPath4">
      <path
         d="M 0,0.16 V 1122.5601 H 793.59998 V 0.16 Z"
         clip-rule="evenodd"
         id="path4" />
    </clipPath>
    <clipPath
       clipPathUnits="userSpaceOnUse"
       id="clipPath6">
      <path
         d="M 0,0.16 V 1122.5601 H 793.59998 V 0.16 Z"
         clip-rule="evenodd"
         id="path6" />
    </clipPath>
    <clipPath
       clipPathUnits="userSpaceOnUse"
       id="clipPath8">
      <path
         d="M 0,0.16 V 1122.5601 H 793.59998 V 0.16 Z"
         transform="translate(-312.16,-667.67999)"
         clip-rule="evenodd"
         id="path8" />
    </clipPath>
    <clipPath
       clipPathUnits="userSpaceOnUse"
       id="clipPath10">
      <path
         d="M 0,0.16 V 1122.5601 H 793.59998 V 0.16 Z"
         transform="translate(-528.32001,-667.67999)"
         clip-rule="evenodd"
         id="path10" />
    </clipPath>
    <clipPath
       clipPathUnits="userSpaceOnUse"
       id="clipPath12">
      <path
         d="M 0,0.16 V 1122.5601 H 793.59998 V 0.16 Z"
         transform="translate(-312.16,-667.67999)"
         clip-rule="evenodd"
         id="path12" />
    </clipPath>
  </defs>
  <sodipodi:namedview
     id="namedview1"
     pagecolor="#505050"
     bordercolor="#eeeeee"
     borderopacity="1"
     inkscape:showpageshadow="0"
     inkscape:pageopacity="0"
     inkscape:pagecheckerboard="0"
     inkscape:deskcolor="#505050">
    <inkscape:page
       x="0"
       y="0"
       inkscape:label="1"
       id="page1"
       width="384.21332"
       height="391.09332"
       margin="0"
       bleed="0" />
  </sodipodi:namedview>
  <g
     id="g1"
     inkscape:groupmode="layer"
     inkscape:label="1">
    <path
       id="path1"
       d="M 314.39999,387.51999 226.88,541.91998 566.71997,539.03998 479.35999,394.72"
       style="fill:none;stroke:#000000;stroke-width:26.4;stroke-linecap:round;stroke-linejoin:round;stroke-miterlimit:10;stroke-dasharray:none;stroke-opacity:1"
       transform="translate(0,2.666608)"
       clip-path="url(#clipPath2)" />
    <path
       id="path3"
       d="M 396.64001,381.12 V 741.44"
       style="fill:none;stroke:#000000;stroke-width:26.4;stroke-linecap:round;stroke-linejoin:round;stroke-miterlimit:10;stroke-dasharray:none;stroke-opacity:1"
       transform="translate(0,2.666608)"
       clip-path="url(#clipPath4)" />
    <path
       id="path5"
       d="M 306.23999,666.23999 H 491.20001"
       style="fill:none;stroke:#000000;stroke-width:26.4;stroke-linecap:round;stroke-linejoin:round;stroke-miterlimit:10;stroke-dasharray:none;stroke-opacity:1"
       transform="translate(0,2.666608)"
       clip-path="url(#clipPath6)" />
    <path
       id="path7"
       d="m 0,0 -0.16,-2.88 -0.48,-2.88 -0.8,-2.88 -1.12,-2.88 -1.28,-2.56 -1.6,-2.559999 -1.92,-2.24 -2.08,-2.08 -2.24,-1.92 -2.56,-1.600001 -2.559999,-1.28 -2.880001,-1.119999 -2.879999,-0.800001 -2.880002,-0.48 -2.879999,-0.16 -3.040001,0.16 -2.880001,0.48 -2.879997,0.800001 L -39.84,-25.76 l -2.720001,1.28 -2.399998,1.600001 -2.400002,1.92 -2.079998,2.08 -1.920002,2.24 -1.599998,2.559999 -1.280003,2.56 -1.119999,2.88 -0.799999,2.88 -0.32,2.88 -0.159999,2.88 0.159999,3.04 0.32,2.88 0.799999,2.88 1.119999,2.72 1.280003,2.72 1.599998,2.399999 1.920002,2.400002 2.079998,2.08 2.400002,1.92 2.399998,1.599998 L -39.84,25.92 l 2.720001,1.120001 2.879997,0.639999 2.880001,0.48 3.040001,0.16 2.879999,-0.16 2.880002,-0.48 L -19.68,27.040001 -16.799999,25.92 -14.24,24.639999 l 2.56,-1.599998 2.24,-1.92 2.08,-2.08 1.92,-2.400002 L -3.84,14.24 -2.56,11.52 -1.44,8.8 -0.64,5.92 -0.16,3.04 0,0 v 0 z"
       style="fill:#000000;fill-opacity:1;fill-rule:evenodd;stroke:none"
       transform="translate(312.16,670.3466)"
       clip-path="url(#clipPath8)" />
    <path
       id="path9"
       d="m 0,0 -0.16,-2.88 -0.48,-2.88 -0.8,-2.88 -0.96,-2.88 -1.44,-2.56 -1.6,-2.559999 -1.92,-2.24 -2.08,-2.08 -2.24,-1.92 L -14.24,-24.48 -16.799999,-25.76 -19.52,-26.879999 -22.4,-27.68 l -3.040001,-0.48 -2.879999,-0.16 -3.040001,0.16 -2.880001,0.48 -2.879997,0.800001 L -39.84,-25.76 l -2.720001,1.28 -2.399998,1.600001 -2.400002,1.92 -2.079998,2.08 -1.760002,2.24 -1.599998,2.559999 -1.440003,2.56 -0.959999,2.88 L -56,-5.76 -56.48,-2.88 -56.639999,0 -56.48,3.04 -56,5.92 l 0.799999,2.88 0.959999,2.72 1.440003,2.72 1.599998,2.399999 1.760002,2.400002 2.079998,2.08 2.400002,1.92 2.399998,1.599998 L -39.84,25.92 l 2.720001,1.120001 2.879997,0.639999 2.880001,0.48 3.040001,0.16 2.879999,-0.16 L -22.4,27.68 -19.52,27.040001 -16.799999,25.92 -14.24,24.639999 l 2.56,-1.599998 2.24,-1.92 2.08,-2.08 1.92,-2.400002 L -3.84,14.24 -2.4,11.52 -1.44,8.8 -0.64,5.92 -0.16,3.04 0,0 v 0 z"
       style="fill:#000000;fill-opacity:1;fill-rule:evenodd;stroke:none"
       transform="translate(528.32001,670.3466)"
       clip-path="url(#clipPath10)" />
    <path
       id="path11"
       d="m 0,0 -0.16,-2.88 -0.48,-2.88 -0.8,-2.88 -1.12,-2.88 -1.28,-2.56 -1.6,-2.559999 -1.92,-2.24 -2.08,-2.08 -2.24,-1.92 -2.56,-1.600001 -2.559999,-1.28 -2.880001,-1.119999 -2.879999,-0.800001 -2.880002,-0.48 -2.879999,-0.16 -3.040001,0.16 -2.880001,0.48 -2.879997,0.800001 L -39.84,-25.76 l -2.720001,1.28 -2.399998,1.600001 -2.400002,1.92 -2.079998,2.08 -1.920002,2.24 -1.599998,2.559999 -1.280003,2.56 -1.119999,2.88 -0.799999,2.88 -0.32,2.88 -0.159999,2.88 0.159999,3.04 0.32,2.88 0.799999,2.88 1.119999,2.72 1.280003,2.72 1.599998,2.399999 1.920002,2.400002 2.079998,2.08 2.400002,1.92 2.399998,1.599998 L -39.84,25.92 l 2.720001,1.120001 2.879997,0.639999 2.880001,0.48 3.040001,0.16 2.879999,-0.16 2.880002,-0.48 L -19.68,27.040001 -16.799999,25.92 -14.24,24.639999 l 2.56,-1.599998 2.24,-1.92 2.08,-2.08 1.92,-2.400002 L -3.84,14.24 -2.56,11.52 -1.44,8.8 -0.64,5.92 -0.16,3.04 0,0 m 216.16,0 -0.16,-2.88 -0.48,-2.88 -0.8,-2.88 -0.96001,-2.88 -1.43998,-2.56 -1.60001,-2.559999 -1.92,-2.24 -2.08,-2.08 -2.24,-1.92 -2.56,-1.600001 -2.56,-1.28 -2.72,-1.119999 -2.88001,-0.800001 -3.03999,-0.48 -2.88,-0.16 -3.04,0.16 -2.88,0.48 -2.88001,0.800001 -2.71998,1.119999 -2.72,1.28 -2.40001,1.600001 -2.4,1.92 -2.08,2.08 -1.75999,2.24 -1.60001,2.559999 -1.44,2.56 -0.95999,2.88 -0.80001,2.88 -0.48001,2.88 L 159.52,0 l 0.15999,3.04 0.48001,2.88 0.80001,2.88 0.95999,2.72 1.44,2.72 1.60001,2.399999 1.75999,2.400002 2.08,2.08 2.4,1.92 2.40001,1.599998 2.72,1.280001 2.71998,1.120001 2.88001,0.639999 2.88,0.48 3.04,0.16 2.88,-0.16 3.03999,-0.48 2.88001,-0.639999 2.72,-1.120001 2.56,-1.280001 2.56,-1.599998 2.24,-1.92 2.08,-2.08 1.92,-2.400002 L 212.32001,14.24 213.75999,11.52 214.72,8.8 215.52,5.92 216,3.04 216.16,0"
       style="fill:none;stroke:#000000;stroke-width:0.48;stroke-linecap:round;stroke-linejoin:round;stroke-miterlimit:10;stroke-dasharray:none;stroke-opacity:1"
       transform="translate(312.16,670.3466)"
       clip-path="url(#clipPath12)" />
  </g>
</svg>
