<?xml version="1.0" encoding="UTF-8" standalone="no"?>
<!-- Created with Inkscape (http://www.inkscape.org/) -->

<svg
   version="1.1"
   id="svg1"
   width="334.84"
   height="221.57333"
   viewBox="0 0 334.84 221.57333"
   sodipodi:docname="Gum.pdf"
   xmlns:inkscape="http://www.inkscape.org/namespaces/inkscape"
   xmlns:sodipodi="http://sodipodi.sourceforge.net/DTD/sodipodi-0.dtd"
   xmlns="http://www.w3.org/2000/svg"
   xmlns:svg="http://www.w3.org/2000/svg">
  <defs
     id="defs1" />
  <sodipodi:namedview
     id="namedview1"
     pagecolor="#505050"
     bordercolor="#eeeeee"
     borderopacity="1"
     inkscape:showpageshadow="0"
     inkscape:pageopacity="0"
     inkscape:pagecheckerboard="0"
     inkscape:deskcolor="#505050">
    <inkscape:page
       x="0"
       y="0"
       inkscape:label="1"
       id="page1"
       width="334.84"
       height="221.57333"
       margin="0"
       bleed="0" />
  </sodipodi:namedview>
  <g
     id="g1"
     inkscape:groupmode="layer"
     inkscape:label="1">
    <path
       id="path1"
       d="M 0,0 C -7.04,-3.36 -12.96,-8.32 -17.440001,-15.04 -22.08,-21.6 -24.32,-29.6 -24.32,-39.040001 c 0,-14.239998 5.279999,-25.120003 15.84,-32.479996 10.56,-7.520004 23.84,-11.200004 39.520001,-11.200004 H 32.32 c 35.36,0.480003 55.36,13.760002 60.160003,39.84 l -22.240005,4 C 67.839996,-47.360001 63.52,-53.279999 57.599998,-56.48 51.68,-59.68 43.040001,-61.279999 31.84,-61.279999 c -13.280001,0 -22.88,3.039997 -29.12,9.279999 -3.36,3.360001 -4.96,7.360001 -4.96,12.16 0,5.279999 1.28,9.6 3.84,12.639999 2.4,3.200001 5.92,5.76 10.4,7.84 C 15.68,-17.6 24.48,-15.2 38.240002,-12.16 52,-9.12 62.080002,-6.24 68.639999,-3.2 c 8.32,4 15.199997,10.08 20.800003,18.4 5.599999,8.32 8.479996,18.239999 8.479996,29.599999 0,9.119999 -1.599998,17.119999 -4.639999,24.320004 C 90.239998,76.32 86.080002,82.080002 80.639999,86.559998 75.199997,91.040001 68.800003,94.400002 61.599998,96.639999 54.560001,99.040001 46.720001,100.16 38.240002,100.16 H 35.52 C 23.68,99.839996 13.44,98.080002 4.96,94.879997 -3.68,91.68 -10.24,87.360001 -15.04,81.760002 -19.68,76.160004 -23.040001,70.080002 -25.280001,63.52 -27.360001,56.799999 -28.48,49.439999 -28.48,41.279999 H -6.4 c 0,11.84 3.36,20.960003 10.24,27.68 C 10.72,75.68 21.6,79.040001 36.48,79.040001 62.560001,79.040001 75.68,68 75.68,45.919998 75.68,38.720001 73.919998,32.639999 70.400002,27.84 66.879997,22.879999 62.240002,19.200001 56.32,16.639999 51.360001,14.56 42.400002,12 29.280001,8.96 16.32,5.92 6.56,2.88 0,0 Z"
       style="fill:#000000;fill-opacity:1;fill-rule:nonzero;stroke:none"
       transform="translate(400.95999,542.87992)" />
    <path
       id="path2"
       d="M 0,0 H 21.6 V 50.240002 H 75.360001 V 72 H 21.6 v 54.88 H 0 V 72 H -51.52 V 50.240002 H 0 Z"
       style="fill:#000000;fill-opacity:1;fill-rule:nonzero;stroke:none"
       transform="translate(322.23999,435.35993)" />
    <path
       id="path3"
       d="m 0,0 c -7.04,-3.36 -12.96,-8.32 -17.6,-15.04 -4.48,-6.56 -6.88,-14.56 -6.88,-24.160001 0,-14.079998 5.279999,-24.960003 16,-32.479999 10.56,-7.360001 23.68,-11.040001 39.520001,-11.040001 H 32.32 c 35.199997,0.319999 55.36,13.760002 60.160003,39.84 l -22.240005,4 C 67.839996,-47.360001 63.52,-53.279999 57.599998,-56.48 51.68,-59.68 43.040001,-61.279999 31.84,-61.279999 c -13.280001,0 -23.04,3.039997 -29.28,9.119999 -3.2,3.360001 -4.8,7.520001 -4.8,12.32 0,5.279999 1.28,9.6 3.68,12.639999 2.56,3.040001 6.08,5.76 10.56,7.84 C 15.68,-17.6 24.48,-15.2 38.240002,-12.16 c 13.759998,2.88 23.84,5.92 30.399997,8.8 8.160004,4 15.199997,10.24 20.800003,18.56 5.599999,8.32 8.479996,18.079999 8.479996,29.439999 0,9.119999 -1.599998,17.279999 -4.639999,24.480004 C 90.239998,76.32 85.919998,82.080002 80.480003,86.559998 75.040001,91.040001 68.800003,94.400002 61.599998,96.639999 54.400002,98.879997 46.720001,100 38.240002,100 H 35.52 C 23.68,99.839996 13.44,98.080002 4.8,94.879997 -3.68,91.68 -10.4,87.199997 -15.04,81.760002 -19.68,76.160004 -23.200001,70.080002 -25.280001,63.52 -27.360001,56.799999 -28.48,49.439999 -28.48,41.279999 H -6.4 c 0,11.68 3.36,20.960003 10.24,27.68 C 10.72,75.68 21.440001,79.040001 36.32,79.040001 62.560001,79.040001 75.519997,68 75.519997,45.759998 75.519997,38.720001 73.760002,32.639999 70.400002,27.68 66.879997,22.879999 62.240002,19.200001 56.32,16.639999 51.360001,14.56 42.240002,12 29.280001,8.96 16.32,5.92 6.56,2.88 0,0 Z"
       style="fill:#000000;fill-opacity:1;fill-rule:nonzero;stroke:none"
       transform="translate(200.64,545.27994)" />
  </g>
</svg>
