<?xml version="1.0" encoding="UTF-8" standalone="no"?>
<!-- Created with Inkscape (http://www.inkscape.org/) -->

<svg
   version="1.1"
   id="svg1"
   width="184.10667"
   height="190.88"
   viewBox="0 0 184.10667 190.88"
   sodipodi:docname="Gum14.pdf"
   xmlns:inkscape="http://www.inkscape.org/namespaces/inkscape"
   xmlns:sodipodi="http://sodipodi.sourceforge.net/DTD/sodipodi-0.dtd"
   xmlns="http://www.w3.org/2000/svg"
   xmlns:svg="http://www.w3.org/2000/svg">
  <defs
     id="defs1">
    <clipPath
       clipPathUnits="userSpaceOnUse"
       id="clipPath2">
      <path
         d="M 0,0.16 V 1122.5601 H 793.59998 V 0.16 Z"
         transform="translate(3.3333333e-6)"
         clip-rule="evenodd"
         id="path2" />
    </clipPath>
    <clipPath
       clipPathUnits="userSpaceOnUse"
       id="clipPath4">
      <path
         d="M 0,0.16 V 1122.5601 H 793.59998 V 0.16 Z"
         transform="translate(3.3333333e-6)"
         clip-rule="evenodd"
         id="path4" />
    </clipPath>
    <clipPath
       clipPathUnits="userSpaceOnUse"
       id="clipPath6">
      <path
         d="M 0,0.16 V 1122.5601 H 793.59998 V 0.16 Z"
         transform="translate(3.3333333e-6)"
         clip-rule="evenodd"
         id="path6" />
    </clipPath>
    <clipPath
       clipPathUnits="userSpaceOnUse"
       id="clipPath8">
      <path
         d="M 0,0.16 V 1122.5601 H 793.59998 V 0.16 Z"
         transform="translate(-289.92002,-706.08002)"
         clip-rule="evenodd"
         id="path8" />
    </clipPath>
  </defs>
  <sodipodi:namedview
     id="namedview1"
     pagecolor="#505050"
     bordercolor="#eeeeee"
     borderopacity="1"
     inkscape:showpageshadow="0"
     inkscape:pageopacity="0"
     inkscape:pagecheckerboard="0"
     inkscape:deskcolor="#505050">
    <inkscape:page
       x="0"
       y="0"
       inkscape:label="1"
       id="page1"
       width="184.10667"
       height="190.88"
       margin="0"
       bleed="0" />
  </sodipodi:namedview>
  <g
     id="g1"
     inkscape:groupmode="layer"
     inkscape:label="1">
    <path
       id="path1"
       d="M 214.39999,555.03998 164,630.56 h 151.04001 v -75.52002"
       style="fill:none;stroke:#000000;stroke-width:18.88;stroke-linecap:round;stroke-linejoin:round;stroke-miterlimit:10;stroke-dasharray:none;stroke-opacity:1"
       transform="translate(-150.74667,-535.25339)"
       clip-path="url(#clipPath2)" />
    <path
       id="path3"
       d="m 226.88,630.56 v 75.52002 h 63.04001"
       style="fill:none;stroke:#000000;stroke-width:18.88;stroke-linecap:round;stroke-linejoin:round;stroke-miterlimit:10;stroke-dasharray:none;stroke-opacity:1"
       transform="translate(-150.74667,-535.25339)"
       clip-path="url(#clipPath4)" />
    <path
       id="path5"
       d="M 201.75999,668.32001 H 252.16"
       style="fill:none;stroke:#000000;stroke-width:18.88;stroke-linecap:round;stroke-linejoin:round;stroke-miterlimit:10;stroke-dasharray:none;stroke-opacity:1"
       transform="translate(-150.74667,-535.25339)"
       clip-path="url(#clipPath6)" />
    <path
       id="path7"
       d="m 0,0 2.56,-0.16 2.56,-0.48 2.56,-0.64 2.56,-0.96 2.24,-1.12 2.24,-1.44 2.079999,-1.76 1.92,-1.76 1.600001,-2.08 1.44,-2.24 1.119999,-2.4 L 23.84,-17.440001 24.639999,-20 l 0.32,-2.559999 0.160002,-2.720002 -0.160002,-2.559999 -0.32,-2.56 L 23.84,-32.959999 22.879999,-35.52 21.76,-37.759998 20.32,-40 18.719999,-42.080002 16.799999,-44 14.72,-45.599998 12.48,-47.040001 10.24,-48.16 7.68,-49.119999 5.12,-49.759998 2.56,-50.240002 0,-50.400002"
       style="fill:none;stroke:#000000;stroke-width:18.88;stroke-linecap:round;stroke-linejoin:round;stroke-miterlimit:10;stroke-dasharray:none;stroke-opacity:1"
       transform="translate(139.17335,170.82663)"
       clip-path="url(#clipPath8)" />
  </g>
</svg>
