<?xml version="1.0" encoding="UTF-8" standalone="no"?>
<!-- Created with Inkscape (http://www.inkscape.org/) -->

<svg
   version="1.1"
   id="svg1"
   width="256.13333"
   height="140.14667"
   viewBox="0 0 256.13333 140.14667"
   sodipodi:docname="Gum10.pdf"
   xmlns:inkscape="http://www.inkscape.org/namespaces/inkscape"
   xmlns:sodipodi="http://sodipodi.sourceforge.net/DTD/sodipodi-0.dtd"
   xmlns="http://www.w3.org/2000/svg"
   xmlns:svg="http://www.w3.org/2000/svg">
  <defs
     id="defs1">
    <clipPath
       clipPathUnits="userSpaceOnUse"
       id="clipPath2">
      <path
         d="M 0,0.16 V 1122.5601 H 793.59998 V 0.16 Z"
         transform="translate(-239.52,-630.47998)"
         clip-rule="evenodd"
         id="path2" />
    </clipPath>
    <clipPath
       clipPathUnits="userSpaceOnUse"
       id="clipPath4">
      <path
         d="M 0,0.16 V 1122.5601 H 793.59998 V 0.16 Z"
         clip-rule="evenodd"
         id="path4" />
    </clipPath>
    <clipPath
       clipPathUnits="userSpaceOnUse"
       id="clipPath6">
      <path
         d="M 0,0.16 V 1122.5601 H 793.59998 V 0.16 Z"
         transform="translate(-354.56,-609.91998)"
         clip-rule="evenodd"
         id="path6" />
    </clipPath>
    <clipPath
       clipPathUnits="userSpaceOnUse"
       id="clipPath8">
      <path
         d="M 0,0.16 V 1122.5601 H 793.59998 V 0.16 Z"
         transform="translate(-197.92,-630.56)"
         clip-rule="evenodd"
         id="path8" />
    </clipPath>
    <clipPath
       clipPathUnits="userSpaceOnUse"
       id="clipPath10">
      <path
         d="M 0,0.16 V 1122.5601 H 793.59998 V 0.16 Z"
         transform="translate(-197.92,-630.56)"
         clip-rule="evenodd"
         id="path10" />
    </clipPath>
  </defs>
  <sodipodi:namedview
     id="namedview1"
     pagecolor="#505050"
     bordercolor="#eeeeee"
     borderopacity="1"
     inkscape:showpageshadow="0"
     inkscape:pageopacity="0"
     inkscape:pagecheckerboard="0"
     inkscape:deskcolor="#505050">
    <inkscape:page
       x="0"
       y="0"
       inkscape:label="1"
       id="page1"
       width="256.13333"
       height="140.14667"
       margin="0"
       bleed="0" />
  </sodipodi:namedview>
  <g
     id="g1"
     inkscape:groupmode="layer"
     inkscape:label="1">
    <path
       id="path1"
       d="m 0,0 c 0,-27.790001 -22.52,-50.32 -50.32,-50.32 -27.800003,0 -50.32,22.529999 -50.32,50.32 0,27.790001 22.519997,50.32 50.32,50.32 C -22.52,50.32 0,27.790001 0,0 Z"
       style="fill:none;stroke:#000000;stroke-width:18.88;stroke-linecap:round;stroke-linejoin:round;stroke-miterlimit:10;stroke-dasharray:none;stroke-opacity:1"
       transform="translate(239.52,499.66659)"
       clip-path="url(#clipPath2)" />
    <path
       id="path3"
       d="m 239.52,630.56 h 75.52001"
       style="fill:none;stroke:#000000;stroke-width:18.88;stroke-linecap:round;stroke-linejoin:round;stroke-miterlimit:10;stroke-dasharray:none;stroke-opacity:1"
       transform="translate(0,-130.81339)"
       clip-path="url(#clipPath4)" />
    <path
       id="path5"
       d="m 0,0 -2.24,-1.44 -2.4,-1.12 -2.56,-0.96 -2.56,-0.64 -2.56,-0.32 h -2.72 l -2.72,0.16 -2.56,0.48 -2.559999,0.8 -2.400002,0.96 -2.399999,1.28 -2.24,1.6 -1.92,1.76 -1.759998,1.92 -1.600003,2.08 -1.439998,2.4 -1.119999,2.4 -0.800003,2.56 -0.64,2.56 L -39.52,19.040001 V 21.76 l 0.319999,2.72 0.48,2.560001 L -37.919998,29.6 -36.799999,32 -35.52,34.240002 -33.919998,36.48 -32.16,38.400002 -30.08,40.16 l 2.08,1.599998 2.4,1.280003 2.399999,1.119999 2.560002,0.799999 2.559999,0.48 2.72,0.319999 h 2.56 l 2.72,-0.319999 2.56,-0.64 L -4.96,44 -2.56,42.880001 -0.32,41.439999 1.92,39.84 3.84,38.080002"
       style="fill:none;stroke:#000000;stroke-width:18.88;stroke-linecap:round;stroke-linejoin:round;stroke-miterlimit:10;stroke-dasharray:none;stroke-opacity:1"
       transform="translate(354.56,479.10659)"
       clip-path="url(#clipPath6)" />
    <path
       id="path7"
       d="M 0,0 V -1.28 L -0.32,-2.56 -0.8,-3.68 -1.28,-4.8 -2.08,-5.76 -3.04,-6.72 -4,-7.52 -5.12,-8 -6.24,-8.48 -7.52,-8.8 H -8.8 -9.92 l -1.28,0.32 -1.12,0.48 -1.12,0.48 -1.12,0.8 -0.8,0.96 -0.8,0.96 -0.639999,1.12 -0.320002,1.12 -0.32,1.28 L -17.6,0 l 0.159999,1.28 0.32,1.12 0.320002,1.28 0.639999,1.12 0.8,0.96 0.8,0.8 1.12,0.8 1.12,0.64 1.12,0.48 1.28,0.16 L -8.8,8.8 -7.52,8.64 -6.24,8.48 -5.12,8 -4,7.36 -3.04,6.56 -2.08,5.76 -1.28,4.8 -0.8,3.68 -0.32,2.4 0,1.28 V 0 0 Z"
       style="fill:#000000;fill-opacity:1;fill-rule:evenodd;stroke:none"
       transform="translate(197.92,499.74661)"
       clip-path="url(#clipPath8)" />
    <path
       id="path9"
       d="M 0,0 V -1.28 L -0.32,-2.56 -0.8,-3.68 -1.28,-4.8 -2.08,-5.76 -3.04,-6.72 -4,-7.52 -5.12,-8 -6.24,-8.48 -7.52,-8.8 H -8.8 -9.92 l -1.28,0.32 -1.12,0.48 -1.12,0.48 -1.12,0.8 -0.8,0.96 -0.8,0.96 -0.639999,1.12 -0.320002,1.12 -0.32,1.28 L -17.6,0 l 0.159999,1.28 0.32,1.12 0.320002,1.28 0.639999,1.12 0.8,0.96 0.8,0.8 1.12,0.8 1.12,0.64 1.12,0.48 1.28,0.16 L -8.8,8.8 -7.52,8.64 -6.24,8.48 -5.12,8 -4,7.36 -3.04,6.56 -2.08,5.76 -1.28,4.8 -0.8,3.68 -0.32,2.4 0,1.28 V 0"
       style="fill:none;stroke:#000000;stroke-width:0.64;stroke-linecap:round;stroke-linejoin:round;stroke-miterlimit:10;stroke-dasharray:none;stroke-opacity:1"
       transform="translate(197.92,499.74661)"
       clip-path="url(#clipPath10)" />
  </g>
</svg>
