<?xml version="1.0" encoding="UTF-8" standalone="no"?>
<!-- Created with Inkscape (http://www.inkscape.org/) -->

<svg
   version="1.1"
   id="svg1"
   width="236.13333"
   height="237.58667"
   viewBox="0 0 236.13333 237.58667"
   sodipodi:docname="Gum12.pdf"
   xmlns:inkscape="http://www.inkscape.org/namespaces/inkscape"
   xmlns:sodipodi="http://sodipodi.sourceforge.net/DTD/sodipodi-0.dtd"
   xmlns="http://www.w3.org/2000/svg"
   xmlns:svg="http://www.w3.org/2000/svg">
  <defs
     id="defs1">
    <clipPath
       clipPathUnits="userSpaceOnUse"
       id="clipPath2">
      <path
         d="M 0,0.16 V 1122.5601 H 793.59998 V 0.16 Z"
         transform="translate(-188.96001,-580.15997)"
         clip-rule="evenodd"
         id="path2" />
    </clipPath>
    <clipPath
       clipPathUnits="userSpaceOnUse"
       id="clipPath4">
      <path
         d="M 0,0.16 V 1122.5601 H 793.59998 V 0.16 Z"
         transform="translate(-264.95999,-630.47998)"
         clip-rule="evenodd"
         id="path4" />
    </clipPath>
    <clipPath
       clipPathUnits="userSpaceOnUse"
       id="clipPath6">
      <path
         d="M 0,0.16 V 1122.5601 H 793.59998 V 0.16 Z"
         transform="translate(-339.51999,-630.47998)"
         clip-rule="evenodd"
         id="path6" />
    </clipPath>
    <clipPath
       clipPathUnits="userSpaceOnUse"
       id="clipPath8">
      <path
         d="M 0,0.16 V 1122.5601 H 793.59998 V 0.16 Z"
         transform="translate(-163.84,-680.79999)"
         clip-rule="evenodd"
         id="path8" />
    </clipPath>
    <clipPath
       clipPathUnits="userSpaceOnUse"
       id="clipPath10">
      <path
         d="M 0,0.16 V 1122.5601 H 793.59998 V 0.16 Z"
         transform="translate(-239.68,-529.76001)"
         clip-rule="evenodd"
         id="path10" />
    </clipPath>
    <clipPath
       clipPathUnits="userSpaceOnUse"
       id="clipPath12">
      <path
         d="M 0,0.16 V 1122.5601 H 793.59998 V 0.16 Z"
         transform="translate(-314.4,-731.20001)"
         clip-rule="evenodd"
         id="path12" />
    </clipPath>
    <clipPath
       clipPathUnits="userSpaceOnUse"
       id="clipPath14">
      <path
         d="M 0,0.16 V 1122.5601 H 793.59998 V 0.16 Z"
         transform="translate(3.3333333e-6)"
         clip-rule="evenodd"
         id="path14" />
    </clipPath>
  </defs>
  <sodipodi:namedview
     id="namedview1"
     pagecolor="#505050"
     bordercolor="#eeeeee"
     borderopacity="1"
     inkscape:showpageshadow="0"
     inkscape:pageopacity="0"
     inkscape:pagecheckerboard="0"
     inkscape:deskcolor="#505050">
    <inkscape:page
       x="0"
       y="0"
       inkscape:label="1"
       id="page1"
       width="236.13333"
       height="237.58667"
       margin="0"
       bleed="0" />
  </sodipodi:namedview>
  <g
     id="g1"
     inkscape:groupmode="layer"
     inkscape:label="1">
    <path
       id="path1"
       d="m 0,0 c 0,-13.87 -11.28,-25.120001 -25.200001,-25.120001 -13.919998,0 -25.200001,11.250001 -25.200001,25.120001 0,13.87 11.280003,25.120001 25.200001,25.120001 C -11.28,25.120001 0,13.87 0,0 Z"
       style="fill:none;stroke:#000000;stroke-width:18.88;stroke-linecap:round;stroke-linejoin:round;stroke-miterlimit:10;stroke-dasharray:none;stroke-opacity:1"
       transform="translate(64.89334,71.599914)"
       clip-path="url(#clipPath2)" />
    <path
       id="path3"
       d="m 0,0 c 0,-13.87 -11.28,-25.120001 -25.200001,-25.120001 -13.919998,0 -25.200001,11.250001 -25.200001,25.120001 0,13.87 11.280003,25.120001 25.200001,25.120001 C -11.28,25.120001 0,13.87 0,0 Z"
       style="fill:none;stroke:#000000;stroke-width:18.88;stroke-linecap:round;stroke-linejoin:round;stroke-miterlimit:10;stroke-dasharray:none;stroke-opacity:1"
       transform="translate(140.89332,121.91992)"
       clip-path="url(#clipPath4)" />
    <path
       id="path5"
       d="M 0,0 C 0,-13.91 -11.24,-25.200001 -25.120001,-25.200001 -39,-25.200001 -50.240002,-13.91 -50.240002,0 -50.240002,13.91 -39,25.200001 -25.120001,25.200001 -11.24,25.200001 0,13.91 0,0 Z"
       style="fill:none;stroke:#000000;stroke-width:18.88;stroke-linecap:round;stroke-linejoin:round;stroke-miterlimit:10;stroke-dasharray:none;stroke-opacity:1"
       transform="translate(215.45332,121.91992)"
       clip-path="url(#clipPath6)" />
    <path
       id="path7"
       d="m 0,0 4.32,-6.72 4,-7.2 3.68,-7.200001 3.2,-7.519998 2.88,-7.680001 2.4,-7.84 1.92,-7.84 1.6,-8 1.120001,-8.160004 0.639999,-8 L 25.92,-84.32 25.76,-92.480003 25.120001,-100.64"
       style="fill:none;stroke:#000000;stroke-width:18.88;stroke-linecap:round;stroke-linejoin:round;stroke-miterlimit:10;stroke-dasharray:none;stroke-opacity:1"
       transform="translate(39.773329,172.23993)"
       clip-path="url(#clipPath8)" />
    <path
       id="path9"
       d="m 0,0 -4.32,6.88 -4,7.2 -3.68,7.200001 -3.2,7.519998 -2.88,7.680001 -2.4,7.84 -1.92,7.84 -1.6,8 -1.120001,8.000004 L -25.76,76.32 l -0.16,8.160003 0.16,8.159996 0.639999,8.160001"
       style="fill:none;stroke:#000000;stroke-width:18.88;stroke-linecap:round;stroke-linejoin:round;stroke-miterlimit:10;stroke-dasharray:none;stroke-opacity:1"
       transform="translate(115.61333,21.199951)"
       clip-path="url(#clipPath10)" />
    <path
       id="path11"
       d="m 0,0 4.32,-6.88 4.16,-7.04 3.52,-7.360001 3.2,-7.519998 2.88,-7.520001 2.4,-7.84 L 22.4,-52 24,-60 25.120001,-68.160004 25.76,-76.32 l 0.32,-8.160003 -0.32,-8 -0.639999,-8.159997"
       style="fill:none;stroke:#000000;stroke-width:18.88;stroke-linecap:round;stroke-linejoin:round;stroke-miterlimit:10;stroke-dasharray:none;stroke-opacity:1"
       transform="translate(190.33333,222.63995)"
       clip-path="url(#clipPath12)" />
    <path
       id="path13"
       d="M 163.84,605.28003 H 314.88"
       style="fill:none;stroke:#000000;stroke-width:18.88;stroke-linecap:round;stroke-linejoin:round;stroke-miterlimit:10;stroke-dasharray:none;stroke-opacity:1"
       transform="translate(-124.06667,-508.56006)"
       clip-path="url(#clipPath14)" />
  </g>
</svg>
