<?xml version="1.0" encoding="UTF-8" standalone="no"?>
<!-- Created with Inkscape (http://www.inkscape.org/) -->

<svg
   version="1.1"
   id="svg1"
   width="197.44"
   height="224.25333"
   viewBox="0 0 197.44 224.25333"
   sodipodi:docname="Gum13.pdf"
   xmlns:inkscape="http://www.inkscape.org/namespaces/inkscape"
   xmlns:sodipodi="http://sodipodi.sourceforge.net/DTD/sodipodi-0.dtd"
   xmlns="http://www.w3.org/2000/svg"
   xmlns:svg="http://www.w3.org/2000/svg">
  <defs
     id="defs1">
    <clipPath
       clipPathUnits="userSpaceOnUse"
       id="clipPath2">
      <path
         d="M 0,0.16 V 1122.5601 H 793.59998 V 0.16 Z"
         transform="translate(-253.75999,-573.91998)"
         clip-rule="evenodd"
         id="path2" />
    </clipPath>
    <clipPath
       clipPathUnits="userSpaceOnUse"
       id="clipPath4">
      <path
         d="M 0,0.16 V 1122.5601 H 793.59998 V 0.16 Z"
         transform="translate(-266.23999,-699.76001)"
         clip-rule="evenodd"
         id="path4" />
    </clipPath>
    <clipPath
       clipPathUnits="userSpaceOnUse"
       id="clipPath6">
      <path
         d="M 0,0.16 V 1122.5601 H 793.59998 V 0.16 Z"
         transform="translate(-161.75999,-595.03998)"
         clip-rule="evenodd"
         id="path6" />
    </clipPath>
    <clipPath
       clipPathUnits="userSpaceOnUse"
       id="clipPath8">
      <path
         d="M 0,0.16 V 1122.5601 H 793.59998 V 0.16 Z"
         transform="translate(-189.28,-689.44)"
         clip-rule="evenodd"
         id="path8" />
    </clipPath>
    <clipPath
       clipPathUnits="userSpaceOnUse"
       id="clipPath10">
      <path
         d="M 0,0.16 V 1122.5601 H 793.59998 V 0.16 Z"
         transform="translate(-290.88,-687.20001)"
         clip-rule="evenodd"
         id="path10" />
    </clipPath>
    <clipPath
       clipPathUnits="userSpaceOnUse"
       id="clipPath12">
      <path
         d="M 0,0.16 V 1122.5601 H 793.59998 V 0.16 Z"
         transform="translate(-319.51999,-592.79999)"
         clip-rule="evenodd"
         id="path12" />
    </clipPath>
    <clipPath
       clipPathUnits="userSpaceOnUse"
       id="clipPath14">
      <path
         d="M 0,0.16 V 1122.5601 H 793.59998 V 0.16 Z"
         clip-rule="evenodd"
         id="path14" />
    </clipPath>
    <clipPath
       clipPathUnits="userSpaceOnUse"
       id="clipPath16">
      <path
         d="M 0,0.16 V 1122.5601 H 793.59998 V 0.16 Z"
         clip-rule="evenodd"
         id="path16" />
    </clipPath>
  </defs>
  <sodipodi:namedview
     id="namedview1"
     pagecolor="#505050"
     bordercolor="#eeeeee"
     borderopacity="1"
     inkscape:showpageshadow="0"
     inkscape:pageopacity="0"
     inkscape:pagecheckerboard="0"
     inkscape:deskcolor="#505050">
    <inkscape:page
       x="0"
       y="0"
       inkscape:label="1"
       id="page1"
       width="197.44"
       height="224.25333"
       margin="0"
       bleed="0" />
  </sodipodi:namedview>
  <g
     id="g1"
     inkscape:groupmode="layer"
     inkscape:label="1">
    <path
       id="path1"
       d="m 0,0 c 0,-20.85 -5.65,-37.759998 -12.64,-37.759998 -6.989999,0 -12.640001,16.909998 -12.640001,37.759998 0,20.85 5.650002,37.759998 12.640001,37.759998 C -5.65,37.759998 0,20.85 0,0 Z"
       style="fill:none;stroke:#000000;stroke-width:18.88;stroke-linecap:round;stroke-linejoin:round;stroke-miterlimit:10;stroke-dasharray:none;stroke-opacity:1"
       transform="translate(253.75999,436.43992)"
       clip-path="url(#clipPath2)" />
    <path
       id="path3"
       d="m 0,0 c 0,-6.93 -5.62,-12.56 -12.56,-12.56 -6.94,0 -12.560001,5.63 -12.560001,12.56 0,6.93 5.620001,12.56 12.560001,12.56 C -5.62,12.56 0,6.93 0,0 Z"
       style="fill:none;stroke:#000000;stroke-width:18.88;stroke-linecap:round;stroke-linejoin:round;stroke-miterlimit:10;stroke-dasharray:none;stroke-opacity:1"
       transform="translate(266.23999,562.27995)"
       clip-path="url(#clipPath4)" />
    <path
       id="path5"
       d="M 0,0 -0.32,1.12 -0.16,2.4 0.32,3.68 0.96,5.12 1.92,6.56 3.2,8 l 1.6,1.44 1.92,1.6 2.08,1.6 2.24,1.44 2.56,1.6 2.72,1.440001 2.880001,1.439998 L 22.24,20 25.440001,21.280001 28.639999,22.4 32,23.52 l 3.360001,1.119999 3.2,0.800002 L 41.919998,26.24 45.119999,27.040001 48.32,27.52 l 3.2,0.48 2.880002,0.16 2.719997,0.16 H 59.84 L 62.240002,28.16 64.32,27.84 66.239998,27.360001 68,26.879999 69.279999,26.08 70.400002,25.280001 71.199997,24.32 71.68,23.200001 72,22.08 71.839996,20.799999 71.519997,19.52 70.720001,18.24 69.760002,16.639999 68.480003,15.2 66.879997,13.76 64.959999,12.16 62.880001,10.56 60.639999,9.12 58.080002,7.52 55.360001,6.08 52.48,4.64 49.439999,3.36 46.240002,1.92 43.040001,0.8 39.68,-0.32 36.48,-1.44 33.119999,-2.24 29.76,-3.04 26.559999,-3.84 23.360001,-4.32 20.32,-4.64 17.280001,-4.96 14.56,-5.12 H 12 L 9.6,-4.96 7.36,-4.64 5.44,-4.16 3.84,-3.52 2.4,-2.88 1.28,-2.08 0.48,-1.12 0,0"
       style="fill:none;stroke:#000000;stroke-width:18.88;stroke-linecap:round;stroke-linejoin:round;stroke-miterlimit:10;stroke-dasharray:none;stroke-opacity:1"
       transform="translate(161.75999,457.55992)"
       clip-path="url(#clipPath6)" />
    <path
       id="path7"
       d="m 0,0 1.12,0.64 1.12,0.32 h 1.44 l 1.6,-0.32 1.6,-0.48 1.92,-0.8 1.92,-0.96 1.92,-1.28 2.24,-1.6 2.079999,-1.76 2.240002,-1.92 2.24,-2.08 2.239999,-2.24 2.24,-2.56 2.24,-2.56 2.24,-2.72 2.08,-2.720001 L 34.400002,-25.92 36.32,-28.799999 38.080002,-31.68 39.84,-34.560001 41.279999,-37.439999 42.560001,-40.32 43.68,-43.040001 l 1.119999,-2.559997 0.64,-2.400002 0.640003,-2.400002 0.479999,-2.239997 0.16,-1.920002 -0.16,-1.759999 -0.159999,-1.599998 -0.480004,-1.280003 L 45.279999,-60.16 44.48,-60.959999 l -1.119999,-0.639999 -1.119999,-0.32 h -1.440003 l -1.599998,0.32 -1.600003,0.479999 L 35.84,-60.32 33.759998,-59.360001 31.84,-58.080002 29.6,-56.48 l -2.08,1.759999 -2.239999,1.920002 -2.24,2.079998 -2.240002,2.240001 -2.24,2.560002 -2.239999,2.559997 -2.08,2.720002 -2.24,2.720001 -1.92,2.879997 L 8.16,-32.16 6.4,-29.280001 4.8,-26.4 3.2,-23.52 1.92,-20.639999 0.8,-17.92 l -0.96,2.56 -0.8,2.4 -0.64,2.4 -0.32,2.08 -0.16,2.08 v 1.76 l 0.16,1.44 0.48,1.44 L -0.8,-0.8 0,0"
       style="fill:none;stroke:#000000;stroke-width:18.88;stroke-linecap:round;stroke-linejoin:round;stroke-miterlimit:10;stroke-dasharray:none;stroke-opacity:1"
       transform="translate(189.28,551.95994)"
       clip-path="url(#clipPath8)" />
    <path
       id="path9"
       d="M 0,0 0.8,-0.8 1.44,-1.76 1.92,-3.2 2.08,-4.64 2.24,-6.4 1.92,-8.48 1.6,-10.56 0.96,-12.96 0.16,-15.36 -0.8,-17.92 -1.92,-20.639999 -3.2,-23.52 -4.8,-26.4 -6.4,-29.280001 -8.16,-32.16 l -1.92,-2.880001 -1.92,-2.879997 -2.08,-2.720001 -2.24,-2.720002 -2.239999,-2.559997 -2.24,-2.560002 -2.240002,-2.240001 -2.24,-2.079998 L -27.52,-54.720001 -29.6,-56.48 -31.84,-58.080002 -33.759998,-59.360001 -35.68,-60.32 l -1.919998,-0.799999 -1.600003,-0.479999 -1.599998,-0.32 h -1.440003 l -1.119999,0.32 -1.119999,0.639999 -0.799999,0.799999 -0.639999,0.959999 -0.480004,1.280003 -0.159999,1.599998 -0.16,1.759999 0.319999,1.920002 0.32,2.239997 0.640003,2.400002 0.8,2.400002 0.959999,2.559997 1.119999,2.720001 1.280002,2.880001 1.599999,2.879998 1.599998,2.880001 1.760002,2.880001 1.919998,2.879999 1.920002,2.879999 2.08,2.720001 2.24,2.72 2.24,2.56 2.24,2.56 2.239999,2.24 2.24,2.08 2.240002,1.92 2.079999,1.76 2.24,1.6 1.92,1.28 1.92,0.96 1.92,0.8 1.6,0.48 1.6,0.32 h 1.44 L -1.12,0.64 0,0"
       style="fill:none;stroke:#000000;stroke-width:18.88;stroke-linecap:round;stroke-linejoin:round;stroke-miterlimit:10;stroke-dasharray:none;stroke-opacity:1"
       transform="translate(290.88,549.71995)"
       clip-path="url(#clipPath10)" />
    <path
       id="path11"
       d="M 0,0 -0.48,-1.12 -1.44,-2.08 -2.4,-2.88 -3.84,-3.52 -5.6,-4.16 -7.52,-4.64 -9.6,-4.8 -12,-4.96 l -2.56,-0.16 -2.880001,0.16 -2.879999,0.32 -3.040001,0.32 -3.199998,0.64 -3.360001,0.64 -3.199999,0.8 -3.360001,0.96 -3.36,0.96 -3.360001,1.12 -3.200001,1.28 -3.039997,1.28 -3.040001,1.28 -2.880001,1.44 -2.720001,1.6 -2.559997,1.44 -2.400002,1.6 -2.080002,1.44 -1.759994,1.6 -1.600006,1.44 -1.279999,1.599999 -1.119995,1.440001 -0.64,1.44 L -72,20.959999 V 22.24 l 0.160004,1.120001 0.479995,0.959999 0.800003,0.960001 L -69.440002,26.08 -68,26.879999 l 1.599998,0.480002 1.919999,0.479999 2.240001,0.32 2.400002,0.16 h 2.560001 2.719998 L -51.52,28 l 3.04,-0.48 3.200001,-0.479999 3.199997,-0.640001 3.360001,-0.8 3.36,-0.960001 L -32,23.68 -28.799999,22.559999 -25.6,21.280001 -22.4,20 -19.360001,18.559999 -16.48,17.120001 -13.76,15.68 l 2.56,-1.44 2.24,-1.6 2.24,-1.6 L -4.96,9.6 -3.36,8 -2.08,6.56 -1.12,5.12 -0.32,3.68 0,2.4 0.16,1.12 0,0"
       style="fill:none;stroke:#000000;stroke-width:18.88;stroke-linecap:round;stroke-linejoin:round;stroke-miterlimit:10;stroke-dasharray:none;stroke-opacity:1"
       transform="translate(319.51999,455.31993)"
       clip-path="url(#clipPath12)" />
    <path
       id="path13"
       d="M 241.11999,611.67999 V 724.96002"
       style="fill:none;stroke:#000000;stroke-width:18.88;stroke-linecap:round;stroke-linejoin:round;stroke-miterlimit:10;stroke-dasharray:none;stroke-opacity:1"
       transform="translate(0,-137.48006)"
       clip-path="url(#clipPath14)" />
    <path
       id="path15"
       d="m 216,724.96002 h 50.23999"
       style="fill:none;stroke:#000000;stroke-width:18.88;stroke-linecap:round;stroke-linejoin:round;stroke-miterlimit:10;stroke-dasharray:none;stroke-opacity:1"
       transform="translate(0,-137.48006)"
       clip-path="url(#clipPath16)" />
  </g>
</svg>
