<?xml version="1.0" encoding="UTF-8" standalone="no"?>
<!-- Created with Inkscape (http://www.inkscape.org/) -->

<svg
   version="1.1"
   id="svg1"
   width="276.14667"
   height="256.28"
   viewBox="0 0 276.14667 256.28"
   sodipodi:docname="Gum2.pdf"
   xmlns:inkscape="http://www.inkscape.org/namespaces/inkscape"
   xmlns:sodipodi="http://sodipodi.sourceforge.net/DTD/sodipodi-0.dtd"
   xmlns="http://www.w3.org/2000/svg"
   xmlns:svg="http://www.w3.org/2000/svg">
  <defs
     id="defs1">
    <clipPath
       clipPathUnits="userSpaceOnUse"
       id="clipPath2">
      <path
         d="M 0,0.16 V 1122.5601 H 793.59998 V 0.16 Z"
         transform="translate(-3.3333333e-6)"
         clip-rule="evenodd"
         id="path2" />
    </clipPath>
    <clipPath
       clipPathUnits="userSpaceOnUse"
       id="clipPath4">
      <path
         d="M 0,0.16 V 1122.5601 H 793.59998 V 0.16 Z"
         transform="translate(-165.76,-655.35999)"
         clip-rule="evenodd"
         id="path4" />
    </clipPath>
    <clipPath
       clipPathUnits="userSpaceOnUse"
       id="clipPath6">
      <path
         d="M 0,0.16 V 1122.5601 H 793.59998 V 0.16 Z"
         transform="translate(-3.3333333e-6)"
         clip-rule="evenodd"
         id="path6" />
    </clipPath>
    <clipPath
       clipPathUnits="userSpaceOnUse"
       id="clipPath8">
      <path
         d="M 0,0.16 V 1122.5601 H 793.59998 V 0.16 Z"
         transform="translate(-3.3333333e-6)"
         clip-rule="evenodd"
         id="path8" />
    </clipPath>
    <clipPath
       clipPathUnits="userSpaceOnUse"
       id="clipPath10">
      <path
         d="M 0,0.16 V 1122.5601 H 793.59998 V 0.16 Z"
         transform="translate(-3.3333333e-6)"
         clip-rule="evenodd"
         id="path10" />
    </clipPath>
    <clipPath
       clipPathUnits="userSpaceOnUse"
       id="clipPath12">
      <path
         d="M 0,0.16 V 1122.5601 H 793.59998 V 0.16 Z"
         transform="translate(-313.92001,-610.88001)"
         clip-rule="evenodd"
         id="path12" />
    </clipPath>
    <clipPath
       clipPathUnits="userSpaceOnUse"
       id="clipPath14">
      <path
         d="M 0,0.16 V 1122.5601 H 793.59998 V 0.16 Z"
         transform="translate(-3.3333333e-6)"
         clip-rule="evenodd"
         id="path14" />
    </clipPath>
  </defs>
  <sodipodi:namedview
     id="namedview1"
     pagecolor="#505050"
     bordercolor="#eeeeee"
     borderopacity="1"
     inkscape:showpageshadow="0"
     inkscape:pageopacity="0"
     inkscape:pagecheckerboard="0"
     inkscape:deskcolor="#505050">
    <inkscape:page
       x="0"
       y="0"
       inkscape:label="1"
       id="page1"
       width="276.14667"
       height="256.28"
       margin="0"
       bleed="0" />
  </sodipodi:namedview>
  <g
     id="g1"
     inkscape:groupmode="layer"
     inkscape:label="1">
    <path
       id="path1"
       d="m 183.36,567.35998 v 88"
       style="fill:none;stroke:#000000;stroke-width:18.88;stroke-linecap:round;stroke-linejoin:round;stroke-miterlimit:10;stroke-dasharray:none;stroke-opacity:1"
       transform="translate(-100.05333,-504.54673)"
       clip-path="url(#clipPath2)" />
    <path
       id="path3"
       d="M 0,0 -3.84,0.16 -7.68,0.64 -11.36,1.6 -15.04,2.72 -18.559999,4.16 -21.92,5.92 -25.280001,8 -28.32,10.4 -31.040001,12.96 -33.759998,15.68 -36,18.879999 -38.080002,22.08 -39.84,25.440001 l -1.439999,3.519998 -1.280002,3.68 -0.8,3.840001 L -43.84,40.16 -44,44 l 0.16,3.84 0.479999,3.84 0.8,3.84 1.280002,3.680001 1.439999,3.52 1.759998,3.360001 L -36,69.279999 -33.759998,72.32 l 2.719997,2.879997 2.720001,2.560005 3.039999,2.400002 L -21.92,82.239998 -18.559999,84 -15.04,85.440002 l 3.68,1.119996 3.68,0.959999 L -3.84,88 0,88.160004"
       style="fill:none;stroke:#000000;stroke-width:18.88;stroke-linecap:round;stroke-linejoin:round;stroke-miterlimit:10;stroke-dasharray:none;stroke-opacity:1"
       transform="translate(65.706662,150.81326)"
       clip-path="url(#clipPath4)" />
    <path
       id="path5"
       d="M 165.75999,655.35998 H 183.36"
       style="fill:none;stroke:#000000;stroke-width:18.88;stroke-linecap:round;stroke-linejoin:round;stroke-miterlimit:10;stroke-dasharray:none;stroke-opacity:1"
       transform="translate(-100.05333,-504.54673)"
       clip-path="url(#clipPath6)" />
    <path
       id="path7"
       d="M 165.75999,743.52002 H 183.36"
       style="fill:none;stroke:#000000;stroke-width:18.88;stroke-linecap:round;stroke-linejoin:round;stroke-miterlimit:10;stroke-dasharray:none;stroke-opacity:1"
       transform="translate(-100.05333,-504.54673)"
       clip-path="url(#clipPath8)" />
    <path
       id="path9"
       d="M 139.36,611.35998 H 315.51999"
       style="fill:none;stroke:#000000;stroke-width:18.88;stroke-linecap:round;stroke-linejoin:round;stroke-miterlimit:10;stroke-dasharray:none;stroke-opacity:1"
       transform="translate(-100.05333,-504.54673)"
       clip-path="url(#clipPath10)" />
    <path
       id="path11"
       d="M 0,0 3.84,-0.16 7.68,-0.64 11.52,-1.44 15.2,-2.56 18.719999,-4 22.08,-5.92 25.280001,-8 28.48,-10.24 31.200001,-12.96 33.919998,-15.68 36.16,-18.879999 38.240002,-22.08 40,-25.440001 l 1.439999,-3.68 1.120002,-3.679998 0.8,-3.680001 L 44,-40.32 v -3.84 l -0.16,-3.84 -0.479999,-3.84 -0.8,-3.84 -1.280002,-3.680001 -1.439999,-3.52 -1.759998,-3.359997 L 36,-69.440002 33.599998,-72.480003 30.879999,-75.360001 28,-77.919998 24.959999,-80.32 21.76,-82.239998 18.24,-84 14.72,-85.440002 11.04,-86.559998 7.2,-87.360001 3.36,-87.839996 -0.48,-88 l -3.84,0.160004 -3.84,0.639999 -3.68,0.799995 -3.68,1.120003 -3.520001,1.599999 -3.359999,1.760002 -3.2,2.239998 -3.039999,2.239998 -2.880001,2.720001 -2.560002,2.880005 -2.239998,3.039993 -2.080002,3.360001 -1.759998,3.36 -1.439998,3.68 -1.120003,3.680001 -0.799999,3.68 -0.32,3.84 -0.16,3.84 0.16,3.840001"
       style="fill:none;stroke:#000000;stroke-width:18.88;stroke-linecap:round;stroke-linejoin:round;stroke-miterlimit:10;stroke-dasharray:none;stroke-opacity:1"
       transform="translate(213.86668,106.33328)"
       clip-path="url(#clipPath12)" />
    <path
       id="path13"
       d="m 269.92001,566.88 v 88.15998"
       style="fill:none;stroke:#000000;stroke-width:18.88;stroke-linecap:round;stroke-linejoin:round;stroke-miterlimit:10;stroke-dasharray:none;stroke-opacity:1"
       transform="translate(-100.05333,-504.54673)"
       clip-path="url(#clipPath14)" />
  </g>
</svg>
