<?xml version="1.0" encoding="UTF-8" standalone="no"?>
<!-- Created with Inkscape (http://www.inkscape.org/) -->

<svg
   version="1.1"
   id="svg1"
   width="257.48001"
   height="184.2"
   viewBox="0 0 257.48001 184.2"
   sodipodi:docname="Gum4.pdf"
   xmlns:inkscape="http://www.inkscape.org/namespaces/inkscape"
   xmlns:sodipodi="http://sodipodi.sourceforge.net/DTD/sodipodi-0.dtd"
   xmlns="http://www.w3.org/2000/svg"
   xmlns:svg="http://www.w3.org/2000/svg">
  <defs
     id="defs1">
    <clipPath
       clipPathUnits="userSpaceOnUse"
       id="clipPath2">
      <path
         d="M 0,0.16 V 1122.5601 H 793.59998 V 0.16 Z"
         transform="translate(-189.11999,-580.15997)"
         clip-rule="evenodd"
         id="path2" />
    </clipPath>
    <clipPath
       clipPathUnits="userSpaceOnUse"
       id="clipPath4">
      <path
         d="M 0,0.16 V 1122.5601 H 793.59998 V 0.16 Z"
         transform="translate(-269.76001,-620.47998)"
         clip-rule="evenodd"
         id="path4" />
    </clipPath>
    <clipPath
       clipPathUnits="userSpaceOnUse"
       id="clipPath6">
      <path
         d="M 0,0.16 V 1122.5601 H 793.59998 V 0.16 Z"
         transform="translate(-350.23999,-600.32001)"
         clip-rule="evenodd"
         id="path6" />
    </clipPath>
    <clipPath
       clipPathUnits="userSpaceOnUse"
       id="clipPath8">
      <path
         d="M 0,0.16 V 1122.5601 H 793.59998 V 0.16 Z"
         transform="translate(3.3333333e-6)"
         clip-rule="evenodd"
         id="path8" />
    </clipPath>
    <clipPath
       clipPathUnits="userSpaceOnUse"
       id="clipPath10">
      <path
         d="M 0,0.16 V 1122.5601 H 793.59998 V 0.16 Z"
         transform="translate(-128.8,-680.79999)"
         clip-rule="evenodd"
         id="path10" />
    </clipPath>
    <clipPath
       clipPathUnits="userSpaceOnUse"
       id="clipPath12">
      <path
         d="M 0,0.16 V 1122.5601 H 793.59998 V 0.16 Z"
         transform="translate(3.3333333e-6)"
         clip-rule="evenodd"
         id="path12" />
    </clipPath>
    <clipPath
       clipPathUnits="userSpaceOnUse"
       id="clipPath14">
      <path
         d="M 0,0.16 V 1122.5601 H 793.59998 V 0.16 Z"
         transform="translate(-269.76001,-680.79999)"
         clip-rule="evenodd"
         id="path14" />
    </clipPath>
    <clipPath
       clipPathUnits="userSpaceOnUse"
       id="clipPath16">
      <path
         d="M 0,0.16 V 1122.5601 H 793.59998 V 0.16 Z"
         transform="translate(3.3333333e-6)"
         clip-rule="evenodd"
         id="path16" />
    </clipPath>
    <clipPath
       clipPathUnits="userSpaceOnUse"
       id="clipPath18">
      <path
         d="M 0,0.16 V 1122.5601 H 793.59998 V 0.16 Z"
         transform="translate(-249.60001,-600.32001)"
         clip-rule="evenodd"
         id="path18" />
    </clipPath>
  </defs>
  <sodipodi:namedview
     id="namedview1"
     pagecolor="#505050"
     bordercolor="#eeeeee"
     borderopacity="1"
     inkscape:showpageshadow="0"
     inkscape:pageopacity="0"
     inkscape:pagecheckerboard="0"
     inkscape:deskcolor="#505050">
    <inkscape:page
       x="0"
       y="0"
       inkscape:label="1"
       id="page1"
       width="257.48001"
       height="184.2"
       margin="0"
       bleed="0" />
  </sodipodi:namedview>
  <g
     id="g1"
     inkscape:groupmode="layer"
     inkscape:label="1">
    <path
       id="path1"
       d="m 0,0 c 0,-11.13 -8.99,-20.16 -20.08,-20.16 -11.09,0 -20.08,9.03 -20.08,20.16 0,11.13 8.99,20.16 20.08,20.16 C -8.99,20.16 0,11.13 0,0 Z"
       style="fill:none;stroke:#000000;stroke-width:18.88;stroke-linecap:round;stroke-linejoin:round;stroke-miterlimit:10;stroke-dasharray:none;stroke-opacity:1"
       transform="translate(79.733328,44.906581)"
       clip-path="url(#clipPath2)" />
    <path
       id="path3"
       d="m 0,0 c 0,-11.13 -9.02,-20.16 -20.16,-20.16 -11.139999,0 -20.16,9.03 -20.16,20.16 0,11.13 9.020001,20.16 20.16,20.16 C -9.02,20.16 0,11.13 0,0 Z"
       style="fill:none;stroke:#000000;stroke-width:18.88;stroke-linecap:round;stroke-linejoin:round;stroke-miterlimit:10;stroke-dasharray:none;stroke-opacity:1"
       transform="translate(160.37334,85.226588)"
       clip-path="url(#clipPath4)" />
    <path
       id="path5"
       d="m 0,0 c 0,-11.13 -8.99,-20.16 -20.08,-20.16 -11.09,0 -20.08,9.03 -20.08,20.16 0,11.13 8.99,20.16 20.08,20.16 C -8.99,20.16 0,11.13 0,0 Z"
       style="fill:none;stroke:#000000;stroke-width:18.88;stroke-linecap:round;stroke-linejoin:round;stroke-miterlimit:10;stroke-dasharray:none;stroke-opacity:1"
       transform="translate(240.85332,65.066615)"
       clip-path="url(#clipPath6)" />
    <path
       id="path7"
       d="m 169.11999,600.32001 v 80.47998"
       style="fill:none;stroke:#000000;stroke-width:18.88;stroke-linecap:round;stroke-linejoin:round;stroke-miterlimit:10;stroke-dasharray:none;stroke-opacity:1"
       transform="translate(-109.38667,-535.25339)"
       clip-path="url(#clipPath8)" />
    <path
       id="path9"
       d="m 0,0 0.16,2.4 0.32,2.08 0.64,2.24 0.8,2.08 1.12,1.92 1.28,1.92 1.6,1.6 1.6,1.6 1.92,1.280001 1.92,1.119999 2.08,0.800001 2.24,0.639999 2.24,0.32 2.24,0.16 2.24,-0.16 2.239999,-0.32 2.08,-0.639999 2.08,-0.800001 2.08,-1.119999 1.76,-1.280001 1.760003,-1.6 L 35.84,12.64 37.119999,10.72 38.240002,8.8 39.040001,6.72 39.68,4.48 40.16,2.4 40.32,0"
       style="fill:none;stroke:#000000;stroke-width:18.88;stroke-linecap:round;stroke-linejoin:round;stroke-miterlimit:10;stroke-dasharray:none;stroke-opacity:1"
       transform="translate(19.413336,145.5466)"
       clip-path="url(#clipPath10)" />
    <path
       id="path11"
       d="m 310.07999,600.32001 v 80.47998"
       style="fill:none;stroke:#000000;stroke-width:18.88;stroke-linecap:round;stroke-linejoin:round;stroke-miterlimit:10;stroke-dasharray:none;stroke-opacity:1"
       transform="translate(-109.38667,-535.25339)"
       clip-path="url(#clipPath12)" />
    <path
       id="path13"
       d="m 0,0 0.16,2.4 0.32,2.08 0.64,2.24 0.8,2.08 1.12,1.92 1.28,1.92 1.6,1.6 1.6,1.6 1.92,1.280001 1.92,1.119999 2.08,0.800001 2.24,0.639999 2.24,0.32 2.24,0.16 2.24,-0.16 2.239999,-0.32 2.08,-0.639999 2.08,-0.800001 2.08,-1.119999 1.76,-1.280001 1.760003,-1.6 L 35.84,12.64 37.119999,10.72 38.240002,8.8 39.040001,6.72 39.68,4.48 40.16,2.4 40.32,0"
       style="fill:none;stroke:#000000;stroke-width:18.88;stroke-linecap:round;stroke-linejoin:round;stroke-miterlimit:10;stroke-dasharray:none;stroke-opacity:1"
       transform="translate(160.37334,145.5466)"
       clip-path="url(#clipPath14)" />
    <path
       id="path15"
       d="m 169.11999,620.47998 h 160.96"
       style="fill:none;stroke:#000000;stroke-width:18.88;stroke-linecap:round;stroke-linejoin:round;stroke-miterlimit:10;stroke-dasharray:none;stroke-opacity:1"
       transform="translate(-109.38667,-535.25339)"
       clip-path="url(#clipPath16)" />
    <path
       id="path17"
       d="M 0,0 0.32,-3.52 V -7.04 L -0.16,-10.4 -0.8,-13.92 -1.92,-17.120001 -3.2,-20.32 -4.96,-23.52 -6.88,-26.4 -9.12,-28.959999 -11.52,-31.52 -14.24,-33.759998 -17.120001,-35.68 -20.16,-37.279999 -23.52,-38.560001 -26.719999,-39.52 -30.24,-40.32"
       style="fill:none;stroke:#000000;stroke-width:18.88;stroke-linecap:round;stroke-linejoin:round;stroke-miterlimit:10;stroke-dasharray:none;stroke-opacity:1"
       transform="translate(140.21334,65.066615)"
       clip-path="url(#clipPath18)" />
  </g>
</svg>
