<?xml version="1.0" encoding="UTF-8" standalone="no"?>
<!-- Created with Inkscape (http://www.inkscape.org/) -->

<svg
   version="1.1"
   id="svg1"
   width="188.09332"
   height="153.50667"
   viewBox="0 0 188.09332 153.50667"
   sodipodi:docname="Gum7.pdf"
   xmlns:inkscape="http://www.inkscape.org/namespaces/inkscape"
   xmlns:sodipodi="http://sodipodi.sourceforge.net/DTD/sodipodi-0.dtd"
   xmlns="http://www.w3.org/2000/svg"
   xmlns:svg="http://www.w3.org/2000/svg">
  <defs
     id="defs1">
    <clipPath
       clipPathUnits="userSpaceOnUse"
       id="clipPath2">
      <path
         d="M 0,0.16 V 1122.5601 H 793.59998 V 0.16 Z"
         transform="translate(-160.96001,-630.71997)"
         clip-rule="evenodd"
         id="path2" />
    </clipPath>
    <clipPath
       clipPathUnits="userSpaceOnUse"
       id="clipPath4">
      <path
         d="M 0,0.16 V 1122.5601 H 793.59998 V 0.16 Z"
         transform="translate(-3.3333333e-6)"
         clip-rule="evenodd"
         id="path4" />
    </clipPath>
    <clipPath
       clipPathUnits="userSpaceOnUse"
       id="clipPath6">
      <path
         d="M 0,0.16 V 1122.5601 H 793.59998 V 0.16 Z"
         transform="translate(-312.48001,-631.03998)"
         clip-rule="evenodd"
         id="path6" />
    </clipPath>
    <clipPath
       clipPathUnits="userSpaceOnUse"
       id="clipPath8">
      <path
         d="M 0,0.16 V 1122.5601 H 793.59998 V 0.16 Z"
         transform="translate(-299.67999,-690.23999)"
         clip-rule="evenodd"
         id="path8" />
    </clipPath>
    <clipPath
       clipPathUnits="userSpaceOnUse"
       id="clipPath10">
      <path
         d="M 0,0.16 V 1122.5601 H 793.59998 V 0.16 Z"
         transform="translate(-3.3333333e-6)"
         clip-rule="evenodd"
         id="path10" />
    </clipPath>
    <clipPath
       clipPathUnits="userSpaceOnUse"
       id="clipPath12">
      <path
         d="M 0,0.16 V 1122.5601 H 793.59998 V 0.16 Z"
         transform="translate(-299.67999,-586.23999)"
         clip-rule="evenodd"
         id="path12" />
    </clipPath>
    <clipPath
       clipPathUnits="userSpaceOnUse"
       id="clipPath14">
      <path
         d="M 0,0.16 V 1122.5601 H 793.59998 V 0.16 Z"
         transform="translate(-213.44,-671.84003)"
         clip-rule="evenodd"
         id="path14" />
    </clipPath>
  </defs>
  <sodipodi:namedview
     id="namedview1"
     pagecolor="#505050"
     bordercolor="#eeeeee"
     borderopacity="1"
     inkscape:showpageshadow="0"
     inkscape:pageopacity="0"
     inkscape:pagecheckerboard="0"
     inkscape:deskcolor="#505050">
    <inkscape:page
       x="0"
       y="0"
       inkscape:label="1"
       id="page1"
       width="188.09332"
       height="153.50667"
       margin="0"
       bleed="0" />
  </sodipodi:namedview>
  <g
     id="g1"
     inkscape:groupmode="layer"
     inkscape:label="1">
    <path
       id="path1"
       d="m 0,0 0.16,2.72 0.48,2.56 0.64,2.56 0.96,2.4 1.28,2.4 1.44,2.24 1.6,1.919999 1.92,1.92 1.92,1.760001 2.24,1.28 2.4,1.280001 L 17.440001,24 20,24.639999 l 2.559999,0.480002 2.720002,0.16 2.559999,-0.16 2.719999,-0.480002 L 32.959999,24 35.52,23.040001 37.759998,21.76 40,20.48 42.080002,18.719999 44,16.799999 45.599998,14.88 47.040001,12.64 48.32,10.24 l 0.799999,-2.4 0.799999,-2.56 0.320004,-2.56 0.16,-2.72"
       style="fill:none;stroke:#000000;stroke-width:18.88;stroke-linecap:round;stroke-linejoin:round;stroke-miterlimit:10;stroke-dasharray:none;stroke-opacity:1"
       transform="translate(15.546674,78.119912)"
       clip-path="url(#clipPath2)" />
    <path
       id="path3"
       d="M 211.36,630.71997 H 312"
       style="fill:none;stroke:#000000;stroke-width:18.88;stroke-linecap:round;stroke-linejoin:round;stroke-miterlimit:10;stroke-dasharray:none;stroke-opacity:1"
       transform="translate(-145.41333,-552.60006)"
       clip-path="url(#clipPath4)" />
    <path
       id="path5"
       d="M 0,0 -1.92,-0.16 -4,-0.32 -5.92,0 -7.84,0.48 -9.6,1.12 l -1.76,0.96 -1.6,1.28 -1.44,1.28 -1.28,1.6 -0.959999,1.76 -0.800002,1.76 -0.479999,1.92 -0.32,1.92 v 1.92 l 0.16,2.08 0.48,1.92 0.800001,1.760001 0.959999,1.76 1.12,1.599998 1.44,1.440001 1.44,1.120001 1.76,1.119999 1.76,0.800001 L -6.4,29.6"
       style="fill:none;stroke:#000000;stroke-width:18.88;stroke-linecap:round;stroke-linejoin:round;stroke-miterlimit:10;stroke-dasharray:none;stroke-opacity:1"
       transform="translate(167.06668,78.439919)"
       clip-path="url(#clipPath6)" />
    <path
       id="path7"
       d="M 0,0 2.08,0.16 H 4 L 6.08,0 8,-0.48 l 1.76,-0.8 1.76,-0.96 1.6,-1.28 1.44,-1.28 1.28,-1.6 0.959999,-1.76 L 17.6,-10.08 18.08,-12 18.24,-13.92 V -16 l -0.16,-1.92 -0.639999,-1.92 -0.800002,-1.92 L 15.68,-23.360001 14.4,-24.959999 12.96,-26.4 11.36,-27.52 9.6,-28.48 7.68,-29.280001"
       style="fill:none;stroke:#000000;stroke-width:18.88;stroke-linecap:round;stroke-linejoin:round;stroke-miterlimit:10;stroke-dasharray:none;stroke-opacity:1"
       transform="translate(154.26666,137.63993)"
       clip-path="url(#clipPath8)" />
    <path
       id="path9"
       d="M 274.23999,580.47998 236.48,681.12"
       style="fill:none;stroke:#000000;stroke-width:18.88;stroke-linecap:round;stroke-linejoin:round;stroke-miterlimit:10;stroke-dasharray:none;stroke-opacity:1"
       transform="translate(-145.41333,-552.60006)"
       clip-path="url(#clipPath10)" />
    <path
       id="path11"
       d="m 0,0 0.16,-1.76 0.16,-1.6 -0.16,-1.6 -0.32,-1.6 -0.64,-1.6 -0.64,-1.44 -0.96,-1.28 -1.12,-1.28 -1.28,-1.12 -1.44,-0.8 -1.44,-0.8 -1.6,-0.48 -1.6,-0.32 h -1.6 l -1.6,0.16 -1.6,0.32 -1.600001,0.48 -1.439998,0.8 -1.440001,0.96 -1.120001,1.12 -1.119999,1.28 -0.960001,1.28 -0.639999,1.6 -0.48,1.6"
       style="fill:none;stroke:#000000;stroke-width:18.88;stroke-linecap:round;stroke-linejoin:round;stroke-miterlimit:10;stroke-dasharray:none;stroke-opacity:1"
       transform="translate(154.26666,33.639931)"
       clip-path="url(#clipPath12)" />
    <path
       id="path13"
       d="M 0,0 -0.32,1.6 -0.48,3.2 -0.32,4.96 0,6.56 0.48,8 l 0.8,1.6 0.96,1.28 0.96,1.28 1.28,1.12 1.44,0.8 1.44,0.8 1.6,0.48 1.6,0.32 h 1.6 1.76 l 1.6,-0.32 1.439999,-0.64 1.6,-0.64 L 19.84,13.12 21.120001,12 22.08,10.72 23.040001,9.44 23.84,7.84 24.32,6.4"
       style="fill:none;stroke:#000000;stroke-width:18.88;stroke-linecap:round;stroke-linejoin:round;stroke-miterlimit:10;stroke-dasharray:none;stroke-opacity:1"
       transform="translate(68.026669,119.23997)"
       clip-path="url(#clipPath14)" />
  </g>
</svg>
