<?xml version="1.0" encoding="UTF-8" standalone="no"?>
<!-- Created with Inkscape (http://www.inkscape.org/) -->

<svg
   version="1.1"
   id="svg1"
   width="314.84"
   height="192.2"
   viewBox="0 0 314.84 192.2"
   sodipodi:docname="Gum9.pdf"
   xmlns:inkscape="http://www.inkscape.org/namespaces/inkscape"
   xmlns:sodipodi="http://sodipodi.sourceforge.net/DTD/sodipodi-0.dtd"
   xmlns="http://www.w3.org/2000/svg"
   xmlns:svg="http://www.w3.org/2000/svg">
  <defs
     id="defs1">
    <clipPath
       clipPathUnits="userSpaceOnUse"
       id="clipPath2">
      <path
         d="M 0,0.16 V 1122.5601 H 793.59998 V 0.16 Z"
         transform="translate(-151.36,-680.88)"
         clip-rule="evenodd"
         id="path2" />
    </clipPath>
    <clipPath
       clipPathUnits="userSpaceOnUse"
       id="clipPath4">
      <path
         d="M 0,0.16 V 1122.5601 H 793.59998 V 0.16 Z"
         transform="translate(-226.88,-680.88)"
         clip-rule="evenodd"
         id="path4" />
    </clipPath>
    <clipPath
       clipPathUnits="userSpaceOnUse"
       id="clipPath6">
      <path
         d="M 0,0.16 V 1122.5601 H 793.59998 V 0.16 Z"
         transform="translate(-302.39999,-680.88)"
         clip-rule="evenodd"
         id="path6" />
    </clipPath>
    <clipPath
       clipPathUnits="userSpaceOnUse"
       id="clipPath8">
      <path
         d="M 0,0.16 V 1122.5601 H 793.59998 V 0.16 Z"
         transform="translate(-377.92001,-680.88)"
         clip-rule="evenodd"
         id="path8" />
    </clipPath>
    <clipPath
       clipPathUnits="userSpaceOnUse"
       id="clipPath10">
      <path
         d="M 0,0.16 V 1122.5601 H 793.59998 V 0.16 Z"
         transform="translate(-277.28,-628.47998)"
         clip-rule="evenodd"
         id="path10" />
    </clipPath>
    <clipPath
       clipPathUnits="userSpaceOnUse"
       id="clipPath12">
      <path
         d="M 0,0.16 V 1122.5601 H 793.59998 V 0.16 Z"
         clip-rule="evenodd"
         id="path12" />
    </clipPath>
    <clipPath
       clipPathUnits="userSpaceOnUse"
       id="clipPath14">
      <path
         d="M 0,0.16 V 1122.5601 H 793.59998 V 0.16 Z"
         clip-rule="evenodd"
         id="path14" />
    </clipPath>
    <clipPath
       clipPathUnits="userSpaceOnUse"
       id="clipPath16">
      <path
         d="M 0,0.16 V 1122.5601 H 793.59998 V 0.16 Z"
         clip-rule="evenodd"
         id="path16" />
    </clipPath>
    <clipPath
       clipPathUnits="userSpaceOnUse"
       id="clipPath18">
      <path
         d="M 0,0.16 V 1122.5601 H 793.59998 V 0.16 Z"
         clip-rule="evenodd"
         id="path18" />
    </clipPath>
    <clipPath
       clipPathUnits="userSpaceOnUse"
       id="clipPath20">
      <path
         d="M 0,0.16 V 1122.5601 H 793.59998 V 0.16 Z"
         clip-rule="evenodd"
         id="path20" />
    </clipPath>
    <clipPath
       clipPathUnits="userSpaceOnUse"
       id="clipPath22">
      <path
         d="M 0,0.16 V 1122.5601 H 793.59998 V 0.16 Z"
         transform="translate(-151.36,-555.03998)"
         clip-rule="evenodd"
         id="path22" />
    </clipPath>
    <clipPath
       clipPathUnits="userSpaceOnUse"
       id="clipPath24">
      <path
         d="M 0,0.16 V 1122.5601 H 793.59998 V 0.16 Z"
         transform="translate(-351.83999,-580.15997)"
         clip-rule="evenodd"
         id="path24" />
    </clipPath>
  </defs>
  <sodipodi:namedview
     id="namedview1"
     pagecolor="#505050"
     bordercolor="#eeeeee"
     borderopacity="1"
     inkscape:showpageshadow="0"
     inkscape:pageopacity="0"
     inkscape:pagecheckerboard="0"
     inkscape:deskcolor="#505050">
    <inkscape:page
       x="0"
       y="0"
       inkscape:label="1"
       id="page1"
       width="314.84"
       height="192.2"
       margin="0"
       bleed="0" />
  </sodipodi:namedview>
  <g
     id="g1"
     inkscape:groupmode="layer"
     inkscape:label="1">
    <path
       id="path1"
       d="M 0,0 C 0,-13.91 -11.24,-25.200001 -25.120001,-25.200001 -39,-25.200001 -50.240002,-13.91 -50.240002,0 -50.240002,13.91 -39,25.200001 -25.120001,25.200001 -11.24,25.200001 0,13.91 0,0 Z"
       style="fill:none;stroke:#000000;stroke-width:18.88;stroke-linecap:round;stroke-linejoin:round;stroke-miterlimit:10;stroke-dasharray:none;stroke-opacity:1"
       transform="translate(69.986668,149.62661)"
       clip-path="url(#clipPath2)" />
    <path
       id="path3"
       d="M 0,0 C 0,-13.91 -11.24,-25.200001 -25.120001,-25.200001 -39,-25.200001 -50.240002,-13.91 -50.240002,0 -50.240002,13.91 -39,25.200001 -25.120001,25.200001 -11.24,25.200001 0,13.91 0,0 Z"
       style="fill:none;stroke:#000000;stroke-width:18.88;stroke-linecap:round;stroke-linejoin:round;stroke-miterlimit:10;stroke-dasharray:none;stroke-opacity:1"
       transform="translate(145.50667,149.62661)"
       clip-path="url(#clipPath4)" />
    <path
       id="path5"
       d="M 0,0 C 0,-13.91 -11.24,-25.200001 -25.120001,-25.200001 -39,-25.200001 -50.240002,-13.91 -50.240002,0 -50.240002,13.91 -39,25.200001 -25.120001,25.200001 -11.24,25.200001 0,13.91 0,0 Z"
       style="fill:none;stroke:#000000;stroke-width:18.88;stroke-linecap:round;stroke-linejoin:round;stroke-miterlimit:10;stroke-dasharray:none;stroke-opacity:1"
       transform="translate(221.02666,149.62661)"
       clip-path="url(#clipPath6)" />
    <path
       id="path7"
       d="M 0,0 C 0,-13.91 -11.24,-25.200001 -25.120001,-25.200001 -39,-25.200001 -50.240002,-13.91 -50.240002,0 -50.240002,13.91 -39,25.200001 -25.120001,25.200001 -11.24,25.200001 0,13.91 0,0 Z"
       style="fill:none;stroke:#000000;stroke-width:18.88;stroke-linecap:round;stroke-linejoin:round;stroke-miterlimit:10;stroke-dasharray:none;stroke-opacity:1"
       transform="translate(296.54668,149.62661)"
       clip-path="url(#clipPath8)" />
    <path
       id="path9"
       d="M 0,0 -0.16,-3.52 -0.64,-6.88 -1.44,-10.4 -2.56,-13.6 -4,-16.799999 -5.76,-19.84 l -1.92,-2.879999 -2.24,-2.720002 -2.4,-2.399999 -2.72,-2.24 -2.88,-2.08 -3.039999,-1.599998 -3.200001,-1.440003 -3.36,-1.119999 -3.359999,-0.799999 -3.360003,-0.479999 -3.519996,-0.16 -3.520001,0.16 -3.52,0.479999 L -48.16,-36.32 l -3.200001,1.119999 -3.2,1.440003 -3.039997,1.599998 -2.880002,2.08 -2.720001,2.24 -2.560001,2.399999 -2.079994,2.720002 -2.080002,2.879999 -1.599999,3.040001 -1.440002,3.199999 -1.120003,3.2 -0.799995,3.52 -0.480004,3.36 -0.159996,3.52"
       style="fill:none;stroke:#000000;stroke-width:18.88;stroke-linecap:round;stroke-linejoin:round;stroke-miterlimit:10;stroke-dasharray:none;stroke-opacity:1"
       transform="translate(195.90667,97.226588)"
       clip-path="url(#clipPath10)" />
    <path
       id="path11"
       d="m 201.75999,630.56 v 25.11999"
       style="fill:none;stroke:#000000;stroke-width:18.88;stroke-linecap:round;stroke-linejoin:round;stroke-miterlimit:10;stroke-dasharray:none;stroke-opacity:1"
       transform="translate(-81.373333,-531.25339)"
       clip-path="url(#clipPath12)" />
    <path
       id="path13"
       d="m 277.28,630.56 v 25.11999"
       style="fill:none;stroke:#000000;stroke-width:18.88;stroke-linecap:round;stroke-linejoin:round;stroke-miterlimit:10;stroke-dasharray:none;stroke-opacity:1"
       transform="translate(-81.373333,-531.25339)"
       clip-path="url(#clipPath14)" />
    <path
       id="path15"
       d="m 126.24,580.15997 v 75.52002"
       style="fill:none;stroke:#000000;stroke-width:18.88;stroke-linecap:round;stroke-linejoin:round;stroke-miterlimit:10;stroke-dasharray:none;stroke-opacity:1"
       transform="translate(-81.373333,-531.25339)"
       clip-path="url(#clipPath16)" />
    <path
       id="path17"
       d="m 352.79999,580.15997 v 75.52002"
       style="fill:none;stroke:#000000;stroke-width:18.88;stroke-linecap:round;stroke-linejoin:round;stroke-miterlimit:10;stroke-dasharray:none;stroke-opacity:1"
       transform="translate(-81.373333,-531.25339)"
       clip-path="url(#clipPath18)" />
    <path
       id="path19"
       d="M 151.36,555.03998 H 327.67999"
       style="fill:none;stroke:#000000;stroke-width:18.88;stroke-linecap:round;stroke-linejoin:round;stroke-miterlimit:10;stroke-dasharray:none;stroke-opacity:1"
       transform="translate(-81.373333,-531.25339)"
       clip-path="url(#clipPath20)" />
    <path
       id="path21"
       d="m 0,0 -2.56,0.16 -2.56,0.32 -2.56,0.64 -2.4,0.96 -2.24,1.12 -2.24,1.44 -2.079999,1.6 -1.760001,1.92 -1.76,1.92 -1.44,2.24 -1.119999,2.24 -0.960001,2.399999 -0.8,2.560001 -0.479999,2.56 -0.160002,2.559999"
       style="fill:none;stroke:#000000;stroke-width:18.88;stroke-linecap:round;stroke-linejoin:round;stroke-miterlimit:10;stroke-dasharray:none;stroke-opacity:1"
       transform="translate(69.986668,23.786586)"
       clip-path="url(#clipPath22)" />
    <path
       id="path23"
       d="M 0,0 -0.16,-2.72 -0.64,-5.44 -1.28,-8 l -1.12,-2.56 -1.28,-2.4 -1.6,-2.08 -1.76,-2.080001 -2.08,-1.759998 -2.24,-1.600001 -2.4,-1.28 -2.4,-1.119999 L -18.879999,-23.68 -21.440001,-24 -24.16,-24.16"
       style="fill:none;stroke:#000000;stroke-width:18.88;stroke-linecap:round;stroke-linejoin:round;stroke-miterlimit:10;stroke-dasharray:none;stroke-opacity:1"
       transform="translate(270.46666,48.906581)"
       clip-path="url(#clipPath24)" />
  </g>
</svg>
