<?xml version="1.0" encoding="UTF-8" standalone="no"?>
<!-- Created with Inkscape (http://www.inkscape.org/) -->

<svg
   version="1.1"
   id="svg1"
   width="301.49332"
   height="461.84"
   viewBox="0 0 301.49332 461.84"
   sodipodi:docname="Heliotrope2.pdf"
   xmlns:inkscape="http://www.inkscape.org/namespaces/inkscape"
   xmlns:sodipodi="http://sodipodi.sourceforge.net/DTD/sodipodi-0.dtd"
   xmlns="http://www.w3.org/2000/svg"
   xmlns:svg="http://www.w3.org/2000/svg">
  <defs
     id="defs1">
    <clipPath
       clipPathUnits="userSpaceOnUse"
       id="clipPath2">
      <path
         d="M 0,0.16 V 1122.5601 H 793.59998 V 0.16 Z"
         transform="translate(-486.88,-445.12)"
         clip-rule="evenodd"
         id="path2" />
    </clipPath>
    <clipPath
       clipPathUnits="userSpaceOnUse"
       id="clipPath4">
      <path
         d="M 0,0.16 V 1122.5601 H 793.59998 V 0.16 Z"
         transform="translate(-337.92001,-608.64002)"
         clip-rule="evenodd"
         id="path4" />
    </clipPath>
    <clipPath
       clipPathUnits="userSpaceOnUse"
       id="clipPath6">
      <path
         d="M 0,0.16 V 1122.5601 H 793.59998 V 0.16 Z"
         clip-rule="evenodd"
         id="path6" />
    </clipPath>
    <clipPath
       clipPathUnits="userSpaceOnUse"
       id="clipPath8">
      <path
         d="M 0,0.16 V 1122.5601 H 793.59998 V 0.16 Z"
         transform="translate(-517.59998,-565.76001)"
         clip-rule="evenodd"
         id="path8" />
    </clipPath>
    <clipPath
       clipPathUnits="userSpaceOnUse"
       id="clipPath10">
      <path
         d="M 0,0.16 V 1122.5601 H 793.59998 V 0.16 Z"
         transform="translate(-460.16,-611.52002)"
         clip-rule="evenodd"
         id="path10" />
    </clipPath>
  </defs>
  <sodipodi:namedview
     id="namedview1"
     pagecolor="#505050"
     bordercolor="#eeeeee"
     borderopacity="1"
     inkscape:showpageshadow="0"
     inkscape:pageopacity="0"
     inkscape:pagecheckerboard="0"
     inkscape:deskcolor="#505050">
    <inkscape:page
       x="0"
       y="0"
       inkscape:label="1"
       id="page1"
       width="301.49332"
       height="461.84"
       margin="0"
       bleed="0" />
  </sodipodi:namedview>
  <g
     id="g1"
     inkscape:groupmode="layer"
     inkscape:label="1">
    <path
       id="path1"
       d="M 0,0 C 0,-49.740002 -40.330002,-90.080002 -90.080002,-90.080002 -139.83,-90.080002 -180.16,-49.740002 -180.16,0 c 0,49.740002 40.33,90.080002 90.079998,90.080002 C -40.330002,90.080002 0,49.740002 0,0 Z"
       style="fill:none;stroke:#000000;stroke-width:26.4;stroke-linecap:round;stroke-linejoin:round;stroke-miterlimit:10;stroke-dasharray:none;stroke-opacity:1"
       transform="translate(486.88,441.11994)"
       clip-path="url(#clipPath2)" />
    <path
       id="path3"
       d="m 0,0 -4.48,4.32 -4.32,4.64 -4,4.8 -3.52,5.119999 -3.2,5.280001 -2.88,5.6 -2.559999,5.600001 -2.080002,5.919998 -1.599998,6.080002 L -29.92,53.439999 -30.719999,59.52 -31.200001,65.760002 V 72 l 0.480002,6.239998 0.799999,6.240005 1.280001,6.079995 1.76,5.920005 2.08,5.919997 2.559999,5.76 2.879999,5.44 3.200001,5.28 3.68,5.12 4,4.8 4.32,4.48 4.48,4.32001 4.96,3.83999 5.12,3.52001 5.28,3.19999 5.600001,2.87999 5.76,2.40001 5.759998,2.08 6.080002,1.59999 6.079998,1.28 6.240002,0.80001 6.239998,0.32 6.240001,-0.16 6.239998,-0.48 6.080002,-0.8 6.080002,-1.44 6.080002,-1.76 5.759994,-2.08 5.760002,-2.56 5.44,-3.04 5.28,-3.2 5.12,-3.67999 4.64,-4 4.64,-4.32001 4.16001,-4.64 3.83999,-4.96 3.52001,-5.12 3.03999,-5.44 2.88,-5.44 2.4,-5.76 1.92,-5.919999 1.6,-6.080002 1.12,-6.080001 0.8,-6.239998 0.31999,-6.239998 L 150.24,63.84 149.75999,57.599998 148.8,51.52 147.36,45.439999 145.60001,39.52 143.36,33.599998 140.64,28 l -2.88001,-5.440001 -3.36,-5.279998 L 130.72,12.16 126.56,7.52 122.24,2.88"
       style="fill:none;stroke:#000000;stroke-width:26.4;stroke-linecap:round;stroke-linejoin:round;stroke-miterlimit:10;stroke-dasharray:none;stroke-opacity:1"
       transform="translate(337.92001,604.63996)"
       clip-path="url(#clipPath4)" />
    <path
       id="path5"
       d="M 396.79999,354.39999 V 565.91998"
       style="fill:none;stroke:#000000;stroke-width:26.4;stroke-linecap:round;stroke-linejoin:round;stroke-miterlimit:10;stroke-dasharray:none;stroke-opacity:1"
       transform="translate(0,-4.0000587)"
       clip-path="url(#clipPath6)" />
    <path
       id="path7"
       d="m 0,0 -8,-3.04 -8.16,-2.56 -8.32,-2.24 -8.319999,-1.76 -8.48,-1.28 -8.639999,-0.8 -8.480004,-0.32 -8.639999,0.16 -8.639999,0.64 -8.480004,1.12 -8.479995,1.44 -8.320001,2.08 -8.16,2.4 -8.16,2.88 -7.84,3.36 -7.84001,3.68 -7.36,4.16 -7.35998,4.64 -7.04001,4.96 -6.72,5.439999 -6.4,5.6 -6.08,6.08 -5.75999,6.240002"
       style="fill:none;stroke:#000000;stroke-width:26.4;stroke-linecap:round;stroke-linejoin:round;stroke-miterlimit:10;stroke-dasharray:none;stroke-opacity:1"
       transform="translate(517.59998,561.75995)"
       clip-path="url(#clipPath8)" />
    <path
       id="path9"
       d="m 0,0 -6.56,-6.08 -6.88,-6.08 -7.04,-5.6 -7.36,-5.119999 -7.68,-4.960001 -7.840001,-4.48 -8.159999,-4 -8.32,-3.68 -8.48,-3.360001 -8.639999,-2.880001 -8.639999,-2.399997 -8.96,-1.920002 L -103.36,-52 l -9.12,-1.119999 -8.96,-0.639999 -9.12,-0.16 -9.11999,0.16 -8.96001,0.799999 -8.96001,1.119999 -8.95999,1.599998 -8.8,2.080002 -8.8,2.400002"
       style="fill:none;stroke:#000000;stroke-width:26.4;stroke-linecap:round;stroke-linejoin:round;stroke-miterlimit:10;stroke-dasharray:none;stroke-opacity:1"
       transform="translate(460.16,607.51996)"
       clip-path="url(#clipPath10)" />
  </g>
</svg>
