<?xml version="1.0" encoding="UTF-8" standalone="no"?>
<!-- Created with Inkscape (http://www.inkscape.org/) -->

<svg
   version="1.1"
   id="svg1"
   width="501.60001"
   height="347.04001"
   viewBox="0 0 501.60001 347.04001"
   sodipodi:docname="Nutmeg.pdf"
   xmlns:inkscape="http://www.inkscape.org/namespaces/inkscape"
   xmlns:sodipodi="http://sodipodi.sourceforge.net/DTD/sodipodi-0.dtd"
   xmlns="http://www.w3.org/2000/svg"
   xmlns:svg="http://www.w3.org/2000/svg">
  <defs
     id="defs1">
    <clipPath
       clipPathUnits="userSpaceOnUse"
       id="clipPath2">
      <path
         d="M 0,0.16 V 1122.5601 H 793.59998 V 0.16 Z"
         transform="translate(-3.3333333e-6)"
         clip-rule="evenodd"
         id="path2" />
    </clipPath>
    <clipPath
       clipPathUnits="userSpaceOnUse"
       id="clipPath4">
      <path
         d="M 0,0.16 V 1122.5601 H 793.59998 V 0.16 Z"
         transform="translate(-3.3333333e-6)"
         clip-rule="evenodd"
         id="path4" />
    </clipPath>
    <clipPath
       clipPathUnits="userSpaceOnUse"
       id="clipPath6">
      <path
         d="M 0,0.16 V 1122.5601 H 793.59998 V 0.16 Z"
         transform="translate(-3.3333333e-6)"
         clip-rule="evenodd"
         id="path6" />
    </clipPath>
    <clipPath
       clipPathUnits="userSpaceOnUse"
       id="clipPath8">
      <path
         d="M 0,0.16 V 1122.5601 H 793.59998 V 0.16 Z"
         transform="translate(-321.28,-712.32001)"
         clip-rule="evenodd"
         id="path8" />
    </clipPath>
    <clipPath
       clipPathUnits="userSpaceOnUse"
       id="clipPath10">
      <path
         d="M 0,0.16 V 1122.5601 H 793.59998 V 0.16 Z"
         transform="translate(-170.24001,-712.32001)"
         clip-rule="evenodd"
         id="path10" />
    </clipPath>
    <clipPath
       clipPathUnits="userSpaceOnUse"
       id="clipPath12">
      <path
         d="M 0,0.16 V 1122.5601 H 793.59998 V 0.16 Z"
         transform="translate(-472.32,-712.32001)"
         clip-rule="evenodd"
         id="path12" />
    </clipPath>
  </defs>
  <sodipodi:namedview
     id="namedview1"
     pagecolor="#505050"
     bordercolor="#eeeeee"
     borderopacity="1"
     inkscape:showpageshadow="0"
     inkscape:pageopacity="0"
     inkscape:pagecheckerboard="0"
     inkscape:deskcolor="#505050">
    <inkscape:page
       x="0"
       y="0"
       inkscape:label="1"
       id="page1"
       width="501.60001"
       height="347.04001"
       margin="0"
       bleed="0" />
  </sodipodi:namedview>
  <g
     id="g1"
     inkscape:groupmode="layer"
     inkscape:label="1">
    <path
       id="path1"
       d="M 245.75999,410.23999 321.28,712.32001"
       style="fill:none;stroke:#000000;stroke-width:26.4;stroke-linecap:round;stroke-linejoin:round;stroke-miterlimit:10;stroke-dasharray:none;stroke-opacity:1"
       transform="translate(-145.41333,-387.09339)"
       clip-path="url(#clipPath2)" />
    <path
       id="path3"
       d="m 396.79999,410.23999 75.52002,302.08002"
       style="fill:none;stroke:#000000;stroke-width:26.4;stroke-linecap:round;stroke-linejoin:round;stroke-miterlimit:10;stroke-dasharray:none;stroke-opacity:1"
       transform="translate(-145.41333,-387.09339)"
       clip-path="url(#clipPath4)" />
    <path
       id="path5"
       d="m 547.84003,410.23999 75.51995,302.08002"
       style="fill:none;stroke:#000000;stroke-width:26.4;stroke-linecap:round;stroke-linejoin:round;stroke-miterlimit:10;stroke-dasharray:none;stroke-opacity:1"
       transform="translate(-145.41333,-387.09339)"
       clip-path="url(#clipPath6)" />
    <path
       id="path7"
       d="m 0,0 8.96,-20.48 8.480001,-20.639999 7.84,-20.960003 7.359998,-21.119995 L 39.52,-104.48 l 6.239998,-21.44 5.600003,-21.75999 5.279998,-21.76001 4.48,-21.76 4.000004,-22.08 3.519996,-22.08 2.879998,-22.08 2.240005,-22.23999 1.759995,-22.4"
       style="fill:none;stroke:#000000;stroke-width:26.4;stroke-linecap:round;stroke-linejoin:round;stroke-miterlimit:10;stroke-dasharray:none;stroke-opacity:1"
       transform="translate(175.86667,325.22662)"
       clip-path="url(#clipPath8)" />
    <path
       id="path9"
       d="m 0,0 8.96,-20.48 8.480001,-20.639999 7.84,-20.960003 7.359998,-21.119995 L 39.52,-104.48 45.759998,-125.92 51.52,-147.67999 56.639999,-169.44 l 4.48,-21.76 4.000004,-22.08 3.519996,-22.08 2.879998,-22.08 2.240005,-22.23999 1.759995,-22.4"
       style="fill:none;stroke:#000000;stroke-width:26.4;stroke-linecap:round;stroke-linejoin:round;stroke-miterlimit:10;stroke-dasharray:none;stroke-opacity:1"
       transform="translate(24.826672,325.22662)"
       clip-path="url(#clipPath10)" />
    <path
       id="path11"
       d="m 0,0 8.96,-20.48 8.480001,-20.639999 7.84,-20.960003 7.359998,-21.119995 L 39.52,-104.48 l 6.239998,-21.44 5.600003,-21.75999 5.279998,-21.76001 4.48,-21.76 4.000004,-22.08 3.519996,-22.08 2.879998,-22.08 2.240005,-22.23999 1.759995,-22.4"
       style="fill:none;stroke:#000000;stroke-width:26.4;stroke-linecap:round;stroke-linejoin:round;stroke-miterlimit:10;stroke-dasharray:none;stroke-opacity:1"
       transform="translate(326.90667,325.22662)"
       clip-path="url(#clipPath12)" />
  </g>
</svg>
