<?xml version="1.0" encoding="UTF-8" standalone="no"?>
<!-- Created with Inkscape (http://www.inkscape.org/) -->

<svg
   version="1.1"
   id="svg1"
   width="496.26666"
   height="361.73334"
   viewBox="0 0 496.26666 361.73334"
   sodipodi:docname="Nutmeg2.pdf"
   xmlns:inkscape="http://www.inkscape.org/namespaces/inkscape"
   xmlns:sodipodi="http://sodipodi.sourceforge.net/DTD/sodipodi-0.dtd"
   xmlns="http://www.w3.org/2000/svg"
   xmlns:svg="http://www.w3.org/2000/svg">
  <defs
     id="defs1">
    <clipPath
       clipPathUnits="userSpaceOnUse"
       id="clipPath2">
      <path
         d="M 0,0.16 V 1122.5601 H 793.59998 V 0.16 Z"
         transform="translate(-175.03999,-596.96003)"
         clip-rule="evenodd"
         id="path2" />
    </clipPath>
    <clipPath
       clipPathUnits="userSpaceOnUse"
       id="clipPath4">
      <path
         d="M 0,0.16 V 1122.5601 H 793.59998 V 0.16 Z"
         transform="translate(-288.32001,-596.96003)"
         clip-rule="evenodd"
         id="path4" />
    </clipPath>
    <clipPath
       clipPathUnits="userSpaceOnUse"
       id="clipPath6">
      <path
         d="M 0,0.16 V 1122.5601 H 793.59998 V 0.16 Z"
         transform="translate(3.3333333e-6)"
         clip-rule="evenodd"
         id="path6" />
    </clipPath>
    <clipPath
       clipPathUnits="userSpaceOnUse"
       id="clipPath8">
      <path
         d="M 0,0.16 V 1122.5601 H 793.59998 V 0.16 Z"
         transform="translate(-467.68,-408.16)"
         clip-rule="evenodd"
         id="path8" />
    </clipPath>
    <clipPath
       clipPathUnits="userSpaceOnUse"
       id="clipPath10">
      <path
         d="M 0,0.16 V 1122.5601 H 793.59998 V 0.16 Z"
         transform="translate(3.3333333e-6)"
         clip-rule="evenodd"
         id="path10" />
    </clipPath>
  </defs>
  <sodipodi:namedview
     id="namedview1"
     pagecolor="#505050"
     bordercolor="#eeeeee"
     borderopacity="1"
     inkscape:showpageshadow="0"
     inkscape:pageopacity="0"
     inkscape:pagecheckerboard="0"
     inkscape:deskcolor="#505050">
    <inkscape:page
       x="0"
       y="0"
       inkscape:label="1"
       id="page1"
       width="496.26666"
       height="361.73334"
       margin="0"
       bleed="0" />
  </sodipodi:namedview>
  <g
     id="g1"
     inkscape:groupmode="layer"
     inkscape:label="1">
    <path
       id="path1"
       d="M 0,0 0.16,4.32 0.64,8.8 1.6,13.12 2.72,17.440001 4.32,21.6 l 1.76,4 2.24,4 2.56,3.679999 2.72,3.52 L 16.639999,40 19.84,43.040001 l 3.520001,2.719997 3.68,2.400002 3.839998,2.240002 4.000002,1.919998 4.16,1.439998 4.32,1.280003 L 47.84,55.84 l 4.32,0.64 4.479999,0.159999 4.48,-0.159999 4.320003,-0.64 4.479996,-0.799999 4.160004,-1.280003 L 78.239998,52.32 82.400002,50.400002 86.239998,48.16 l 3.68,-2.400002 3.520004,-2.719997 L 96.639999,40 99.68,36.799999 l 2.72,-3.52 2.56,-3.679999 2.08,-4 1.92,-4 1.6,-4.159999 L 111.68,13.12 112.64,8.8 113.12,4.32 113.28,0"
       style="fill:none;stroke:#000000;stroke-width:26.4;stroke-linecap:round;stroke-linejoin:round;stroke-miterlimit:10;stroke-dasharray:none;stroke-opacity:1"
       transform="translate(24.293326,215.2133)"
       clip-path="url(#clipPath2)" />
    <path
       id="path3"
       d="m 0,0 0.16,4.32 0.64,4.32 0.96,4.32 1.12,4.320001 1.6,4.16 1.92,3.84 2.24,3.84 2.4,3.679998 2.72,3.520001 3.039999,3.2 3.360001,2.880002 3.36,2.719997 3.680001,2.400001 3.84,2.239998 4.16,1.760002 4,1.599999 4.319999,1.120003 4.32,0.799999 4.32,0.639999 4.479999,0.16 4.32,-0.16 4.480003,-0.639999 4.32,-0.799999 4.159996,-1.120003 4.160004,-1.599999 4,-1.760002 3.839996,-2.239998 3.68,-2.400001 3.520005,-2.719997 L 96.32,39.52 l 3.040001,-3.2 2.719999,-3.520001 2.56,-3.679998 2.24,-3.84 1.76,-3.84 1.6,-4.16 1.28,-4.320001 0.96,-4.32 0.48,-4.32 0.32,-4.32"
       style="fill:none;stroke:#000000;stroke-width:26.4;stroke-linecap:round;stroke-linejoin:round;stroke-miterlimit:10;stroke-dasharray:none;stroke-opacity:1"
       transform="translate(137.57334,215.2133)"
       clip-path="url(#clipPath4)" />
    <path
       id="path5"
       d="m 298.39999,714.56 169.28,-306.4"
       style="fill:none;stroke:#000000;stroke-width:26.4;stroke-linecap:round;stroke-linejoin:round;stroke-miterlimit:10;stroke-dasharray:none;stroke-opacity:1"
       transform="translate(-150.74667,-381.74673)"
       clip-path="url(#clipPath6)" />
    <path
       id="path7"
       d="M 0,0 0.64,5.44 1.76,10.72 3.2,16 5.12,21.120001 7.36,26.08 9.92,30.879999 12.8,35.52 16,39.84 19.68,44 l 3.84,4 4,3.52 4.32,3.360001 4.64,2.879997 4.799999,2.720002 4.960003,2.240001 5.119999,1.919998 5.279998,1.599999 5.279999,1.120003 5.440003,0.800003 5.440002,0.319999 h 5.439995 L 83.68,68.160004 89.120003,67.360001 94.400002,66.239998 99.68,64.639999 104.8,62.720001 109.76,60.48 l 4.64,-2.720002 4.64,-2.879997 4.32,-3.360001 4.16,-3.52 3.84,-4 3.52,-4.16 3.2,-4.32 3.03999,-4.640001 2.56,-4.799999 2.08,-4.959999 1.92,-5.120001 1.44,-5.28 L 150.24,5.44 151.03999,0"
       style="fill:none;stroke:#000000;stroke-width:26.4;stroke-linecap:round;stroke-linejoin:round;stroke-miterlimit:10;stroke-dasharray:none;stroke-opacity:1"
       transform="translate(316.93333,26.413279)"
       clip-path="url(#clipPath8)" />
    <path
       id="path9"
       d="M 618.71997,408.16 V 710.23999"
       style="fill:none;stroke:#000000;stroke-width:26.4;stroke-linecap:round;stroke-linejoin:round;stroke-miterlimit:10;stroke-dasharray:none;stroke-opacity:1"
       transform="translate(-150.74667,-381.74673)"
       clip-path="url(#clipPath10)" />
  </g>
</svg>
