<?xml version="1.0" encoding="UTF-8" standalone="no"?>
<!-- Created with Inkscape (http://www.inkscape.org/) -->

<svg
   version="1.1"
   id="svg1"
   width="484.26666"
   height="361.73334"
   viewBox="0 0 484.26666 361.73334"
   sodipodi:docname="Nutmeg3.pdf"
   xmlns:inkscape="http://www.inkscape.org/namespaces/inkscape"
   xmlns:sodipodi="http://sodipodi.sourceforge.net/DTD/sodipodi-0.dtd"
   xmlns="http://www.w3.org/2000/svg"
   xmlns:svg="http://www.w3.org/2000/svg">
  <defs
     id="defs1">
    <clipPath
       clipPathUnits="userSpaceOnUse"
       id="clipPath2">
      <path
         d="M 0,0.16 V 1122.5601 H 793.59998 V 0.16 Z"
         transform="translate(-177.92,-582.88001)"
         clip-rule="evenodd"
         id="path2" />
    </clipPath>
    <clipPath
       clipPathUnits="userSpaceOnUse"
       id="clipPath4">
      <path
         d="M 0,0.16 V 1122.5601 H 793.59998 V 0.16 Z"
         transform="translate(-389.28,-712.32001)"
         clip-rule="evenodd"
         id="path4" />
    </clipPath>
    <clipPath
       clipPathUnits="userSpaceOnUse"
       id="clipPath6">
      <path
         d="M 0,0.16 V 1122.5601 H 793.59998 V 0.16 Z"
         transform="translate(-389.28,-712.32001)"
         clip-rule="evenodd"
         id="path6" />
    </clipPath>
    <clipPath
       clipPathUnits="userSpaceOnUse"
       id="clipPath8">
      <path
         d="M 0,0.16 V 1122.5601 H 793.59998 V 0.16 Z"
         transform="translate(-464.79999,-561.28003)"
         clip-rule="evenodd"
         id="path8" />
    </clipPath>
    <clipPath
       clipPathUnits="userSpaceOnUse"
       id="clipPath10">
      <path
         d="M 0,0.16 V 1122.5601 H 793.59998 V 0.16 Z"
         clip-rule="evenodd"
         id="path10" />
    </clipPath>
    <clipPath
       clipPathUnits="userSpaceOnUse"
       id="clipPath12">
      <path
         d="M 0,0.16 V 1122.5601 H 793.59998 V 0.16 Z"
         clip-rule="evenodd"
         id="path12" />
    </clipPath>
  </defs>
  <sodipodi:namedview
     id="namedview1"
     pagecolor="#505050"
     bordercolor="#eeeeee"
     borderopacity="1"
     inkscape:showpageshadow="0"
     inkscape:pageopacity="0"
     inkscape:pagecheckerboard="0"
     inkscape:deskcolor="#505050">
    <inkscape:page
       x="0"
       y="0"
       inkscape:label="1"
       id="page1"
       width="484.26666"
       height="361.73334"
       margin="0"
       bleed="0" />
  </sodipodi:namedview>
  <g
     id="g1"
     inkscape:groupmode="layer"
     inkscape:label="1">
    <path
       id="path1"
       d="M 0,0 0.16,9.44 0.48,18.719999 0.8,27.52 l 0.64,8.64 0.8,8.16 0.8,7.84 1.12,7.52 1.12,7.040001 1.44,6.720001 1.44,6.399994 1.6,5.920006 1.76,5.439995 1.92,4.960007 2.08,4.639996 2.08,4.16 2.4,3.68 2.4,3.36 2.559999,2.72 2.560001,2.24 2.88,1.92 2.879999,1.28 2.880001,0.96 3.200001,0.32 h 3.040001 l 3.359996,-0.64 3.360001,-0.96 3.360001,-1.6 3.52,-1.92 3.52,-2.4 3.520001,-3.04 3.68,-3.36 3.680001,-3.84 3.839996,-4.319999 3.68,-4.800003 3.840004,-5.119996 3.839996,-5.600006 3.840004,-6.079994 4,-6.400001 3.839997,-6.879998 3.840001,-7.200004 3.84,-7.680001 3.84,-8 3.84,-8.319999 3.84,-8.64 3.68,-8.959999 3.68,-9.28 3.68,-9.6 3.68,-9.92 3.52,-10.080001 3.52,-10.399997 3.51999,-10.560002 3.36,-10.880001 3.20002,-11.040001 3.19999,-11.040001 3.2,-11.36 3.03999,-11.519997 2.88001,-11.68 2.88,-11.68 2.56,-11.84 2.72,-11.83999 2.4,-11.84001 2.40001,-12"
       style="fill:none;stroke:#000000;stroke-width:26.4;stroke-linecap:round;stroke-linejoin:round;stroke-miterlimit:10;stroke-dasharray:none;stroke-opacity:1"
       transform="translate(177.92,582.87995)"
       clip-path="url(#clipPath2)" />
    <path
       id="path3"
       d="M 0,0 0.64,-23.52 V -47.040001 L 0.16,-70.559998 -0.96,-94.080002 -2.72,-117.44 l -2.24,-23.52001 -3.04,-23.36 -3.52,-23.19999 -4,-23.2 -4.8,-23.03999 -5.120001,-22.88002 -5.92,-22.71998 -6.399997,-22.72"
       style="fill:none;stroke:#000000;stroke-width:26.4;stroke-linecap:round;stroke-linejoin:round;stroke-miterlimit:10;stroke-dasharray:none;stroke-opacity:1"
       transform="translate(389.28,712.31995)"
       clip-path="url(#clipPath4)" />
    <path
       id="path5"
       d="m 0,0 10.24,-15.68 9.76,-16.16 9.440001,-16.32 8.800001,-16.479999 8.479999,-16.959999 7.84,-16.96 7.520001,-17.280002 6.879997,-17.44 6.559998,-17.75999"
       style="fill:none;stroke:#000000;stroke-width:26.4;stroke-linecap:round;stroke-linejoin:round;stroke-miterlimit:10;stroke-dasharray:none;stroke-opacity:1"
       transform="translate(389.28,712.31995)"
       clip-path="url(#clipPath6)" />
    <path
       id="path7"
       d="m 0,0 0.8,4.48 1.12,4.48 1.6,4.16 1.76,4.160001 2.24,4 2.4,3.84 2.72,3.679998 3.2,3.360001 3.200001,3.040001 3.519998,2.880001 3.840001,2.559997 4,2.240002 4.000002,1.919998 4.319999,1.600003 4.32,1.279998 4.479999,0.8 4.48,0.639999 4.639999,0.16 4.48,-0.16 4.479999,-0.639999 4.480004,-0.8 4.32,-1.279998 4.319999,-1.600003 4.159996,-1.919998 3.840004,-2.240002 3.839997,-2.559997 3.520004,-2.880001 3.36,-3.040001 3.039998,-3.360001 2.72,-3.679998 2.56,-3.84 2.08,-4 1.92,-4.160001 1.44,-4.16 1.28,-4.48 0.8,-4.48"
       style="fill:none;stroke:#000000;stroke-width:26.4;stroke-linecap:round;stroke-linejoin:round;stroke-miterlimit:10;stroke-dasharray:none;stroke-opacity:1"
       transform="translate(464.79999,561.27997)"
       clip-path="url(#clipPath8)" />
    <path
       id="path9"
       d="M 578.08002,561.28003 V 712.32001"
       style="fill:none;stroke:#000000;stroke-width:26.4;stroke-linecap:round;stroke-linejoin:round;stroke-miterlimit:10;stroke-dasharray:none;stroke-opacity:1"
       transform="translate(0,-5.8666667e-5)"
       clip-path="url(#clipPath10)" />
    <path
       id="path11"
       d="m 540.32001,712.32001 h 75.52002"
       style="fill:none;stroke:#000000;stroke-width:26.4;stroke-linecap:round;stroke-linejoin:round;stroke-miterlimit:10;stroke-dasharray:none;stroke-opacity:1"
       transform="translate(0,-5.8666667e-5)"
       clip-path="url(#clipPath12)" />
  </g>
</svg>
