<?xml version="1.0" encoding="UTF-8" standalone="no"?>
<!-- Created with Inkscape (http://www.inkscape.org/) -->

<svg
   version="1.1"
   id="svg1"
   width="513.59998"
   height="276.30667"
   viewBox="0 0 513.59998 276.30667"
   sodipodi:docname="Oil11.pdf"
   xmlns:inkscape="http://www.inkscape.org/namespaces/inkscape"
   xmlns:sodipodi="http://sodipodi.sourceforge.net/DTD/sodipodi-0.dtd"
   xmlns="http://www.w3.org/2000/svg"
   xmlns:svg="http://www.w3.org/2000/svg">
  <defs
     id="defs1">
    <clipPath
       clipPathUnits="userSpaceOnUse"
       id="clipPath2">
      <path
         d="M 0,0.16 V 1122.5601 H 793.59998 V 0.16 Z"
         transform="translate(-3.3333333e-6)"
         clip-rule="evenodd"
         id="path2" />
    </clipPath>
    <clipPath
       clipPathUnits="userSpaceOnUse"
       id="clipPath4">
      <path
         d="M 0,0.16 V 1122.5601 H 793.59998 V 0.16 Z"
         transform="translate(-3.3333333e-6)"
         clip-rule="evenodd"
         id="path4" />
    </clipPath>
    <clipPath
       clipPathUnits="userSpaceOnUse"
       id="clipPath6">
      <path
         d="M 0,0.16 V 1122.5601 H 793.59998 V 0.16 Z"
         transform="translate(-3.3333333e-6)"
         clip-rule="evenodd"
         id="path6" />
    </clipPath>
    <clipPath
       clipPathUnits="userSpaceOnUse"
       id="clipPath8">
      <path
         d="M 0,0.16 V 1122.5601 H 793.59998 V 0.16 Z"
         transform="translate(-3.3333333e-6)"
         clip-rule="evenodd"
         id="path8" />
    </clipPath>
    <clipPath
       clipPathUnits="userSpaceOnUse"
       id="clipPath10">
      <path
         d="M 0,0.16 V 1122.5601 H 793.59998 V 0.16 Z"
         transform="translate(-3.3333333e-6)"
         clip-rule="evenodd"
         id="path10" />
    </clipPath>
    <clipPath
       clipPathUnits="userSpaceOnUse"
       id="clipPath12">
      <path
         d="M 0,0.16 V 1122.5601 H 793.59998 V 0.16 Z"
         transform="translate(-3.3333333e-6)"
         clip-rule="evenodd"
         id="path12" />
    </clipPath>
    <clipPath
       clipPathUnits="userSpaceOnUse"
       id="clipPath14">
      <path
         d="M 0,0.16 V 1122.5601 H 793.59998 V 0.16 Z"
         transform="translate(-396.79998,-636.79999)"
         clip-rule="evenodd"
         id="path14" />
    </clipPath>
    <clipPath
       clipPathUnits="userSpaceOnUse"
       id="clipPath16">
      <path
         d="M 0,0.16 V 1122.5601 H 793.59998 V 0.16 Z"
         transform="translate(-359.04001,-674.56)"
         clip-rule="evenodd"
         id="path16" />
    </clipPath>
    <clipPath
       clipPathUnits="userSpaceOnUse"
       id="clipPath18">
      <path
         d="M 0,0.16 V 1122.5601 H 793.59998 V 0.16 Z"
         transform="translate(-3.3333333e-6)"
         clip-rule="evenodd"
         id="path18" />
    </clipPath>
    <clipPath
       clipPathUnits="userSpaceOnUse"
       id="clipPath20">
      <path
         d="M 0,0.16 V 1122.5601 H 793.59998 V 0.16 Z"
         transform="translate(-3.3333333e-6)"
         clip-rule="evenodd"
         id="path20" />
    </clipPath>
  </defs>
  <sodipodi:namedview
     id="namedview1"
     pagecolor="#505050"
     bordercolor="#eeeeee"
     borderopacity="1"
     inkscape:showpageshadow="0"
     inkscape:pageopacity="0"
     inkscape:pagecheckerboard="0"
     inkscape:deskcolor="#505050">
    <inkscape:page
       x="0"
       y="0"
       inkscape:label="1"
       id="page1"
       width="513.59998"
       height="276.30667"
       margin="0"
       bleed="0" />
  </sodipodi:namedview>
  <g
     id="g1"
     inkscape:groupmode="layer"
     inkscape:label="1">
    <path
       id="path1"
       d="M 245.75999,523.52002 H 547.84003"
       style="fill:none;stroke:#000000;stroke-width:26.4;stroke-linecap:round;stroke-linejoin:round;stroke-miterlimit:10;stroke-dasharray:none;stroke-opacity:1"
       transform="translate(-141.41333,-419.12006)"
       clip-path="url(#clipPath2)" />
    <path
       id="path3"
       d="M 245.75999,523.52002 321.28,448"
       style="fill:none;stroke:#000000;stroke-width:26.4;stroke-linecap:round;stroke-linejoin:round;stroke-miterlimit:10;stroke-dasharray:none;stroke-opacity:1"
       transform="translate(-141.41333,-419.12006)"
       clip-path="url(#clipPath4)" />
    <path
       id="path5"
       d="M 245.75999,523.52002 170.24,448"
       style="fill:none;stroke:#000000;stroke-width:26.4;stroke-linecap:round;stroke-linejoin:round;stroke-miterlimit:10;stroke-dasharray:none;stroke-opacity:1"
       transform="translate(-141.41333,-419.12006)"
       clip-path="url(#clipPath6)" />
    <path
       id="path7"
       d="M 547.84003,523.52002 623.35998,448"
       style="fill:none;stroke:#000000;stroke-width:26.4;stroke-linecap:round;stroke-linejoin:round;stroke-miterlimit:10;stroke-dasharray:none;stroke-opacity:1"
       transform="translate(-141.41333,-419.12006)"
       clip-path="url(#clipPath8)" />
    <path
       id="path9"
       d="M 547.84003,523.52002 472.32001,448"
       style="fill:none;stroke:#000000;stroke-width:26.4;stroke-linecap:round;stroke-linejoin:round;stroke-miterlimit:10;stroke-dasharray:none;stroke-opacity:1"
       transform="translate(-141.41333,-419.12006)"
       clip-path="url(#clipPath10)" />
    <path
       id="path11"
       d="M 396.79999,523.52002 V 636.79999"
       style="fill:none;stroke:#000000;stroke-width:26.4;stroke-linecap:round;stroke-linejoin:round;stroke-miterlimit:10;stroke-dasharray:none;stroke-opacity:1"
       transform="translate(-141.41333,-419.12006)"
       clip-path="url(#clipPath12)" />
    <path
       id="path13"
       d="M 0,0 0.16,3.52 0.64,6.88 1.44,10.4 2.56,13.6 4,16.799999 5.76,19.84 l 1.92,2.879999 2.24,2.720002 2.4,2.399999 2.72,2.24 2.88,2.08 3.039999,1.599998 3.200001,1.440003 3.36,1.119999 3.359999,0.799999 3.520003,0.479999 3.359996,0.16 3.520001,-0.16 3.52,-0.479999 L 48.16,36.32 51.52,35.200001 54.560001,33.759998 57.759998,32.16 60.639999,30.08 63.200001,27.84 65.760002,25.440001 68,22.719999 69.919998,19.84 71.68,16.799999 72.959999,13.6 74.080002,10.4 74.879997,6.88 75.360001,3.52 75.519997,0"
       style="fill:none;stroke:#000000;stroke-width:26.4;stroke-linecap:round;stroke-linejoin:round;stroke-miterlimit:10;stroke-dasharray:none;stroke-opacity:1"
       transform="translate(255.38665,217.67993)"
       clip-path="url(#clipPath14)" />
    <path
       id="path15"
       d="M 0,0 3.52,-0.16 7.04,-0.64 10.4,-1.44 13.76,-2.56 16.959999,-4 20,-5.6 22.879999,-7.68 25.440001,-9.92 28,-12.32 l 2.24,-2.72 1.92,-2.88 1.759998,-3.039999 1.280003,-3.200001 1.119999,-3.200001 0.799999,-3.519998 0.479999,-3.360003 0.16,-3.519996 -0.16,-3.520001 -0.479999,-3.36 L 36.32,-48 l -1.119999,-3.360001 -1.280003,-3.2 L 32.16,-57.599998 30.24,-60.48 28,-63.200001 25.440001,-65.599998 22.879999,-67.839996 20,-69.919998 16.959999,-71.519997 13.76,-72.959999 10.4,-74.080002 7.04,-74.879997 3.52,-75.360001 0,-75.519997"
       style="fill:none;stroke:#000000;stroke-width:26.4;stroke-linecap:round;stroke-linejoin:round;stroke-miterlimit:10;stroke-dasharray:none;stroke-opacity:1"
       transform="translate(217.62668,255.43994)"
       clip-path="url(#clipPath16)" />
    <path
       id="path17"
       d="M 359.04001,599.03998 H 340.16"
       style="fill:none;stroke:#000000;stroke-width:26.4;stroke-linecap:round;stroke-linejoin:round;stroke-miterlimit:10;stroke-dasharray:none;stroke-opacity:1"
       transform="translate(-141.41333,-419.12006)"
       clip-path="url(#clipPath18)" />
    <path
       id="path19"
       d="M 359.04001,674.56 H 340.16"
       style="fill:none;stroke:#000000;stroke-width:26.4;stroke-linecap:round;stroke-linejoin:round;stroke-miterlimit:10;stroke-dasharray:none;stroke-opacity:1"
       transform="translate(-141.41333,-419.12006)"
       clip-path="url(#clipPath20)" />
  </g>
</svg>
