<?xml version="1.0" encoding="UTF-8" standalone="no"?>
<!-- Created with Inkscape (http://www.inkscape.org/) -->

<svg
   version="1.1"
   id="svg1"
   width="509.60001"
   height="447.14667"
   viewBox="0 0 509.60001 447.14667"
   sodipodi:docname="Oil24.pdf"
   xmlns:inkscape="http://www.inkscape.org/namespaces/inkscape"
   xmlns:sodipodi="http://sodipodi.sourceforge.net/DTD/sodipodi-0.dtd"
   xmlns="http://www.w3.org/2000/svg"
   xmlns:svg="http://www.w3.org/2000/svg">
  <defs
     id="defs1">
    <clipPath
       clipPathUnits="userSpaceOnUse"
       id="clipPath2">
      <path
         d="M 0,0.16 V 1122.5601 H 793.59998 V 0.16 Z"
         transform="translate(-351.51999,-673.76001)"
         clip-rule="evenodd"
         id="path2" />
    </clipPath>
    <clipPath
       clipPathUnits="userSpaceOnUse"
       id="clipPath4">
      <path
         d="M 0,0.16 V 1122.5601 H 793.59998 V 0.16 Z"
         clip-rule="evenodd"
         id="path4" />
    </clipPath>
    <clipPath
       clipPathUnits="userSpaceOnUse"
       id="clipPath6">
      <path
         d="M 0,0.16 V 1122.5601 H 793.59998 V 0.16 Z"
         transform="translate(-573.28003,-454.4)"
         clip-rule="evenodd"
         id="path6" />
    </clipPath>
    <clipPath
       clipPathUnits="userSpaceOnUse"
       id="clipPath8">
      <path
         d="M 0,0.16 V 1122.5601 H 793.59998 V 0.16 Z"
         transform="translate(-260.95999,-764.32001)"
         clip-rule="evenodd"
         id="path8" />
    </clipPath>
    <clipPath
       clipPathUnits="userSpaceOnUse"
       id="clipPath10">
      <path
         d="M 0,0.16 V 1122.5601 H 793.59998 V 0.16 Z"
         clip-rule="evenodd"
         id="path10" />
    </clipPath>
  </defs>
  <sodipodi:namedview
     id="namedview1"
     pagecolor="#505050"
     bordercolor="#eeeeee"
     borderopacity="1"
     inkscape:showpageshadow="0"
     inkscape:pageopacity="0"
     inkscape:pagecheckerboard="0"
     inkscape:deskcolor="#505050">
    <inkscape:page
       x="0"
       y="0"
       inkscape:label="1"
       id="page1"
       width="509.60001"
       height="447.14667"
       margin="0"
       bleed="0" />
  </sodipodi:namedview>
  <g
     id="g1"
     inkscape:groupmode="layer"
     inkscape:label="1">
    <path
       id="path1"
       d="M 0,0 C 0,-50.009998 -40.580002,-90.559998 -90.639999,-90.559998 -140.7,-90.559998 -181.28,-50.009998 -181.28,0 c 0,50.009998 40.58,90.559998 90.640001,90.559998 C -40.580002,90.559998 0,50.009998 0,0 Z"
       style="fill:none;stroke:#000000;stroke-width:26.4;stroke-linecap:round;stroke-linejoin:round;stroke-miterlimit:10;stroke-dasharray:none;stroke-opacity:1"
       transform="translate(351.51999,671.09328)"
       clip-path="url(#clipPath2)" />
    <path
       id="path3"
       d="m 442.07999,673.76001 90.72,-271.84"
       style="fill:none;stroke:#000000;stroke-width:26.4;stroke-linecap:round;stroke-linejoin:round;stroke-miterlimit:10;stroke-dasharray:none;stroke-opacity:1"
       transform="translate(0,-2.6667253)"
       clip-path="url(#clipPath4)" />
    <path
       id="path5"
       d="m 0,0 4,0.32 h 3.84 l 4,-0.32 4,-0.64 3.84,-1.12 3.680001,-1.28 3.519998,-1.76 3.520001,-1.92 3.199998,-2.4 3.040001,-2.56 2.720002,-2.72 2.559997,-3.2 L 44.16,-20.799999 46.240002,-24.32 47.84,-27.84 l 1.279999,-3.84 0.960003,-3.84 0.799999,-3.840001 0.16,-4 v -4 l -0.32,-3.84 -0.800003,-4 -0.959999,-3.84 -1.439999,-3.68 -1.760002,-3.519997 L 43.68,-69.760002 41.439999,-72.959999 38.880001,-76 36,-78.720001 32.959999,-81.279999 29.6,-83.519997 l -3.52,-1.920005 -3.520001,-1.599999 -3.84,-1.279999 -3.839999,-0.959999 -3.84,-0.639999 -4,-0.32 -4,0.159996 -3.84,0.32 -4,0.800003 -3.84,1.120003 -3.68,1.439994 -3.52,1.760003 -3.360001,2.080001 L -22.4,-80.32 l -3.040001,2.720002 -2.719999,2.879997 -2.559999,3.040001 -2.24,3.36 -1.920002,3.360001 -1.599999,3.68 -1.279998,3.84 -0.800003,3.840001"
       style="fill:none;stroke:#000000;stroke-width:26.4;stroke-linecap:round;stroke-linejoin:round;stroke-miterlimit:10;stroke-dasharray:none;stroke-opacity:1"
       transform="translate(573.28003,451.73327)"
       clip-path="url(#clipPath6)" />
    <path
       id="path7"
       d="m 0,0 8.8,1.12 8.96,0.48 h 8.959999 L 35.68,1.28 44.639999,0.48 53.599998,-0.8 62.400002,-2.56 71.040001,-4.64 79.68,-7.2 88.160004,-10.24 96.32,-13.6 l 8.16,-3.840001 8,-4.159999 7.68,-4.64 7.36,-4.960001 7.2,-5.279999 7.03999,-5.760002 6.56002,-5.919998 6.39999,-6.400001 5.92,-6.559998 5.75999,-7.040005 5.28,-7.199997 4.96001,-7.519996 4.47999,-7.680001"
       style="fill:none;stroke:#000000;stroke-width:26.4;stroke-linecap:round;stroke-linejoin:round;stroke-miterlimit:10;stroke-dasharray:none;stroke-opacity:1"
       transform="translate(260.95999,761.65328)"
       clip-path="url(#clipPath8)" />
    <path
       id="path9"
       d="M 324.95999,609.76001 196.8,737.91998"
       style="fill:none;stroke:#000000;stroke-width:26.4;stroke-linecap:round;stroke-linejoin:round;stroke-miterlimit:10;stroke-dasharray:none;stroke-opacity:1"
       transform="translate(0,-2.6667253)"
       clip-path="url(#clipPath10)" />
  </g>
</svg>
