<?xml version="1.0" encoding="UTF-8" standalone="no"?>
<!-- Created with Inkscape (http://www.inkscape.org/) -->

<svg
   version="1.1"
   id="svg1"
   width="505.60001"
   height="473.85333"
   viewBox="0 0 505.60001 473.85333"
   sodipodi:docname="Root2.pdf"
   xmlns:inkscape="http://www.inkscape.org/namespaces/inkscape"
   xmlns:sodipodi="http://sodipodi.sourceforge.net/DTD/sodipodi-0.dtd"
   xmlns="http://www.w3.org/2000/svg"
   xmlns:svg="http://www.w3.org/2000/svg">
  <defs
     id="defs1">
    <clipPath
       clipPathUnits="userSpaceOnUse"
       id="clipPath2">
      <path
         d="M 0,0.16 V 1122.5601 H 793.59998 V 0.16 Z"
         transform="translate(-268.16,-593.44)"
         clip-rule="evenodd"
         id="path2" />
    </clipPath>
    <clipPath
       clipPathUnits="userSpaceOnUse"
       id="clipPath4">
      <path
         d="M 0,0.16 V 1122.5601 H 793.59998 V 0.16 Z"
         clip-rule="evenodd"
         id="path4" />
    </clipPath>
    <clipPath
       clipPathUnits="userSpaceOnUse"
       id="clipPath6">
      <path
         d="M 0,0.16 V 1122.5601 H 793.59998 V 0.16 Z"
         clip-rule="evenodd"
         id="path6" />
    </clipPath>
    <clipPath
       clipPathUnits="userSpaceOnUse"
       id="clipPath8">
      <path
         d="M 0,0.16 V 1122.5601 H 793.59998 V 0.16 Z"
         transform="translate(-445.28,-653.91998)"
         clip-rule="evenodd"
         id="path8" />
    </clipPath>
    <clipPath
       clipPathUnits="userSpaceOnUse"
       id="clipPath10">
      <path
         d="M 0,0.16 V 1122.5601 H 793.59998 V 0.16 Z"
         clip-rule="evenodd"
         id="path10" />
    </clipPath>
  </defs>
  <sodipodi:namedview
     id="namedview1"
     pagecolor="#505050"
     bordercolor="#eeeeee"
     borderopacity="1"
     inkscape:showpageshadow="0"
     inkscape:pageopacity="0"
     inkscape:pagecheckerboard="0"
     inkscape:deskcolor="#505050">
    <inkscape:page
       x="0"
       y="0"
       inkscape:label="1"
       id="page1"
       width="505.60001"
       height="473.85333"
       margin="0"
       bleed="0" />
  </sodipodi:namedview>
  <g
     id="g1"
     inkscape:groupmode="layer"
     inkscape:label="1">
    <path
       id="path1"
       d="m 0,0 9.6,-1.92 9.440001,-2.4 9.439999,-2.56 9.439998,-2.88 9.120003,-3.04 9.279999,-3.36 8.959999,-3.52 8.959999,-3.84 8.639999,-4 8.480004,-4.16 8.319999,-4.48 8.16,-4.639999 7.84,-4.799999 7.68,-4.960003 7.2,-4.959999 7.04001,-5.279999 6.72,-5.439999 6.39999,-5.440002 6.08,-5.599999 5.59999,-5.760002 5.28,-5.760002 4.96001,-5.759995 4.64,-5.920002 4.16,-5.92 3.67999,-6.08 3.36001,-5.92 2.88,-6.08 2.39999,-5.91999 2.08001,-5.92002 1.6,-5.91999 1.12,-5.92 0.64,-5.76 0.16,-5.6 -0.16,-5.76 -0.64,-5.44 -1.12,-5.44 -1.6,-5.28 -2.08001,-5.12 -2.39999,-4.96 -2.88,-4.80001 -3.36001,-4.64 -3.67999,-4.47999 -4.16,-4.16001 -4.48,-4 -4.96,-3.83999 -5.28,-3.67999 -5.76,-3.36001 -5.92,-3.19999 -6.4,-2.88001 -6.72001,-2.55999 -7.03999,-2.40001 -7.2,-2.08001 -7.68,-1.91999 -7.84,-1.59999 -8.160004,-1.28 L 91.68,-243.36 l -8.639999,-0.8 -8.639999,-0.48 -8.96,-0.16 -8.960002,0.16 -9.119999,0.31999 -9.279999,0.80001 -9.440003,0.96 -9.279998,1.28 -9.600001,1.44 -9.44,1.76 -9.44,2.08 -9.439999,2.39999 -9.440001,2.56002 -9.279999,2.87999 -9.280002,3.04001 -9.279999,3.36 -8.960003,3.51999 -8.959999,3.84001 -8.64,4 -8.479995,4.15999 -8.480004,4.32"
       style="fill:none;stroke:#000000;stroke-width:26.4;stroke-linecap:round;stroke-linejoin:round;stroke-miterlimit:10;stroke-dasharray:none;stroke-opacity:1"
       transform="translate(124.08,271.75994)"
       clip-path="url(#clipPath2)" />
    <path
       id="path3"
       d="M 268.32001,353.76001 V 772.47998"
       style="fill:none;stroke:#000000;stroke-width:26.4;stroke-linecap:round;stroke-linejoin:round;stroke-miterlimit:10;stroke-dasharray:none;stroke-opacity:1"
       transform="translate(-144.08,-321.68006)"
       clip-path="url(#clipPath4)" />
    <path
       id="path5"
       d="m 358.88,565.12 90.72001,90.55999"
       style="fill:none;stroke:#000000;stroke-width:26.4;stroke-linecap:round;stroke-linejoin:round;stroke-miterlimit:10;stroke-dasharray:none;stroke-opacity:1"
       transform="translate(-144.08,-321.68006)"
       clip-path="url(#clipPath6)" />
    <path
       id="path7"
       d="m 0,0 3.84,3.2 4.32,3.04 4.48,3.04 4.96,2.88 5.119999,2.88 L 28,17.76 l 5.599998,2.56 5.920002,2.399999 5.919999,2.400002 6.080001,2.08 6.399998,2.08 6.240006,1.76 6.559997,1.759998 6.400002,1.440003 L 83.68,35.52 l 6.559998,1.119999 6.400001,0.8 6.400001,0.800003 6.24,0.319999 6.24,0.32 h 6.08 l 5.76,-0.16 5.60001,-0.319999 5.43998,-0.640004 5.28,-0.799999 L 148.48,36 l 4.63999,-1.119999 4.32001,-1.440002 4,-1.599999 3.67999,-1.76 3.20002,-1.92 2.87999,-2.08 2.55999,-2.24 2.08001,-2.399999 1.76001,-2.560002 L 178.88,16.16 179.67999,13.44 180.16,10.56 V 7.52 L 179.67999,4.48 178.88,1.44 l -1.27999,-3.2 -1.76001,-3.2 -2.08001,-3.2 -2.55999,-3.2 -2.87999,-3.36 -3.20002,-3.2 -3.67999,-3.039999 -4,-3.200001 -4.32001,-3.040001 L 148.48,-30.24 143.52,-33.119999 138.39999,-35.84 132.96001,-38.560001 127.36,-41.119999 121.44,-43.52 115.52,-45.919998 109.28,-48 103.04,-49.919998 96.639999,-51.84 90.080002,-53.439999 83.68,-54.880001 77.120003,-56 l -6.560005,-1.119999 -6.399994,-0.799999 -6.400006,-0.640003 -6.239998,-0.48 -6.080001,-0.16 h -6.079998 l -5.760003,0.32 -5.599998,0.32 -5.440001,0.640003 -5.119998,0.799999 L 12.64,-56 8.16,-54.720001 3.84,-53.279999 0,-51.68 -3.52,-49.919998 -6.72,-47.84 -9.6,-45.759998 -12,-43.52 l -1.92,2.400001 -1.76,2.559998"
       style="fill:none;stroke:#000000;stroke-width:26.4;stroke-linecap:round;stroke-linejoin:round;stroke-miterlimit:10;stroke-dasharray:none;stroke-opacity:1"
       transform="translate(301.2,332.23992)"
       clip-path="url(#clipPath8)" />
    <path
       id="path9"
       d="M 424.16,620.79999 358.88,776.64001"
       style="fill:none;stroke:#000000;stroke-width:26.4;stroke-linecap:round;stroke-linejoin:round;stroke-miterlimit:10;stroke-dasharray:none;stroke-opacity:1"
       transform="translate(-144.08,-321.68006)"
       clip-path="url(#clipPath10)" />
  </g>
</svg>
