<?xml version="1.0" encoding="UTF-8" standalone="no"?>
<!-- Created with Inkscape (http://www.inkscape.org/) -->

<svg
   version="1.1"
   id="svg1"
   width="517.61334"
   height="521.89331"
   viewBox="0 0 517.61334 521.89331"
   sodipodi:docname="Root3.pdf"
   xmlns:inkscape="http://www.inkscape.org/namespaces/inkscape"
   xmlns:sodipodi="http://sodipodi.sourceforge.net/DTD/sodipodi-0.dtd"
   xmlns="http://www.w3.org/2000/svg"
   xmlns:svg="http://www.w3.org/2000/svg">
  <defs
     id="defs1">
    <clipPath
       clipPathUnits="userSpaceOnUse"
       id="clipPath2">
      <path
         d="M 0,0.16 V 1122.5601 H 793.59998 V 0.16 Z"
         transform="translate(-631.52002,-381.68)"
         clip-rule="evenodd"
         id="path2" />
    </clipPath>
    <clipPath
       clipPathUnits="userSpaceOnUse"
       id="clipPath4">
      <path
         d="M 0,0.16 V 1122.5601 H 793.59998 V 0.16 Z"
         transform="translate(-367.20001,-438.32001)"
         clip-rule="evenodd"
         id="path4" />
    </clipPath>
    <clipPath
       clipPathUnits="userSpaceOnUse"
       id="clipPath6">
      <path
         d="M 0,0.16 V 1122.5601 H 793.59998 V 0.16 Z"
         clip-rule="evenodd"
         id="path6" />
    </clipPath>
    <clipPath
       clipPathUnits="userSpaceOnUse"
       id="clipPath8">
      <path
         d="M 0,0.16 V 1122.5601 H 793.59998 V 0.16 Z"
         clip-rule="evenodd"
         id="path8" />
    </clipPath>
    <clipPath
       clipPathUnits="userSpaceOnUse"
       id="clipPath10">
      <path
         d="M 0,0.16 V 1122.5601 H 793.59998 V 0.16 Z"
         transform="translate(-389.28,-721.44001)"
         clip-rule="evenodd"
         id="path10" />
    </clipPath>
  </defs>
  <sodipodi:namedview
     id="namedview1"
     pagecolor="#505050"
     bordercolor="#eeeeee"
     borderopacity="1"
     inkscape:showpageshadow="0"
     inkscape:pageopacity="0"
     inkscape:pagecheckerboard="0"
     inkscape:deskcolor="#505050">
    <inkscape:page
       x="0"
       y="0"
       inkscape:label="1"
       id="page1"
       width="517.61334"
       height="521.89331"
       margin="0"
       bleed="0" />
  </sodipodi:namedview>
  <g
     id="g1"
     inkscape:groupmode="layer"
     inkscape:label="1">
    <path
       id="path1"
       d="M 0,0 C 0,-29.459999 -23.889999,-53.360001 -53.360001,-53.360001 -82.830002,-53.360001 -106.72,-29.459999 -106.72,0 c 0,29.459999 23.889998,53.360001 53.359999,53.360001 C -23.889999,53.360001 0,29.459999 0,0 Z"
       style="fill:none;stroke:#000000;stroke-width:26.4;stroke-linecap:round;stroke-linejoin:round;stroke-miterlimit:10;stroke-dasharray:none;stroke-opacity:1"
       transform="translate(631.52002,379.01327)"
       clip-path="url(#clipPath2)" />
    <path
       id="path3"
       d="M 0,0 C 0,-29.459999 -23.889999,-53.360001 -53.360001,-53.360001 -82.830002,-53.360001 -106.72,-29.459999 -106.72,0 c 0,29.459999 23.889998,53.360001 53.359999,53.360001 C -23.889999,53.360001 0,29.459999 0,0 Z"
       style="fill:none;stroke:#000000;stroke-width:26.4;stroke-linecap:round;stroke-linejoin:round;stroke-miterlimit:10;stroke-dasharray:none;stroke-opacity:1"
       transform="translate(367.20001,435.65328)"
       clip-path="url(#clipPath4)" />
    <path
       id="path5"
       d="M 162.72,796.96002 540.32001,419.35999"
       style="fill:none;stroke:#000000;stroke-width:26.4;stroke-linecap:round;stroke-linejoin:round;stroke-miterlimit:10;stroke-dasharray:none;stroke-opacity:1"
       transform="translate(0,-2.6667253)"
       clip-path="url(#clipPath6)" />
    <path
       id="path7"
       d="M 313.76001,494.88 V 645.91998"
       style="fill:none;stroke:#000000;stroke-width:26.4;stroke-linecap:round;stroke-linejoin:round;stroke-miterlimit:10;stroke-dasharray:none;stroke-opacity:1"
       transform="translate(0,-2.6667253)"
       clip-path="url(#clipPath8)" />
    <path
       id="path9"
       d="m 0,0 5.44,-1.76 5.12,-2.08 5.12,-2.56 4.8,-2.88 4.640001,-3.2 4.32,-3.52 4.159997,-3.84 3.840001,-4 3.52,-4.48 3.200001,-4.639999 2.880001,-4.799999 2.559997,-4.960003 L 51.68,-48 53.439999,-53.279999 54.880001,-58.720001 55.84,-64.32 56.48,-69.919998 56.639999,-75.519997 56.48,-81.120003 55.84,-86.720001 54.880001,-92.160004 53.439999,-97.599998 51.68,-103.04 l -2.080002,-5.12 -2.559997,-5.12 -2.880001,-4.8 -3.200001,-4.64 -3.52,-4.32 -3.840001,-4.16 -4.159997,-3.83999 -4.32,-3.52001 L 20.48,-141.75999 15.68,-144.64 10.56,-147.03999 5.44,-149.28 0,-151.03999"
       style="fill:none;stroke:#000000;stroke-width:26.4;stroke-linecap:round;stroke-linejoin:round;stroke-miterlimit:10;stroke-dasharray:none;stroke-opacity:1"
       transform="translate(389.28,718.77328)"
       clip-path="url(#clipPath10)" />
  </g>
</svg>
