<?xml version="1.0" encoding="UTF-8" standalone="no"?>
<!-- Created with Inkscape (http://www.inkscape.org/) -->

<svg
   version="1.1"
   id="svg1"
   width="358.85333"
   height="491.21332"
   viewBox="0 0 358.85333 491.21332"
   sodipodi:docname="RoseColour2.pdf"
   xmlns:inkscape="http://www.inkscape.org/namespaces/inkscape"
   xmlns:sodipodi="http://sodipodi.sourceforge.net/DTD/sodipodi-0.dtd"
   xmlns="http://www.w3.org/2000/svg"
   xmlns:svg="http://www.w3.org/2000/svg">
  <defs
     id="defs1">
    <clipPath
       clipPathUnits="userSpaceOnUse"
       id="clipPath2">
      <path
         d="M 0,0.16 V 1122.5601 H 793.59998 V 0.16 Z"
         clip-rule="evenodd"
         id="path2" />
    </clipPath>
    <clipPath
       clipPathUnits="userSpaceOnUse"
       id="clipPath4">
      <path
         d="M 0,0.16 V 1122.5601 H 793.59998 V 0.16 Z"
         clip-rule="evenodd"
         id="path4" />
    </clipPath>
    <clipPath
       clipPathUnits="userSpaceOnUse"
       id="clipPath6">
      <path
         d="M 0,0.16 V 1122.5601 H 793.59998 V 0.16 Z"
         clip-rule="evenodd"
         id="path6" />
    </clipPath>
    <clipPath
       clipPathUnits="userSpaceOnUse"
       id="clipPath8">
      <path
         d="M 0,0.16 V 1122.5601 H 793.59998 V 0.16 Z"
         transform="translate(-321.60001,-572)"
         clip-rule="evenodd"
         id="path8" />
    </clipPath>
  </defs>
  <sodipodi:namedview
     id="namedview1"
     pagecolor="#505050"
     bordercolor="#eeeeee"
     borderopacity="1"
     inkscape:showpageshadow="0"
     inkscape:pageopacity="0"
     inkscape:pagecheckerboard="0"
     inkscape:deskcolor="#505050">
    <inkscape:page
       x="0"
       y="0"
       inkscape:label="1"
       id="page1"
       width="358.85333"
       height="491.21332"
       margin="0"
       bleed="0" />
  </sodipodi:namedview>
  <g
     id="g1"
     inkscape:groupmode="layer"
     inkscape:label="1">
    <path
       id="path1"
       d="M 321.60001,336 V 789.12"
       style="fill:none;stroke:#000000;stroke-width:26.4;stroke-linecap:round;stroke-linejoin:round;stroke-miterlimit:10;stroke-dasharray:none;stroke-opacity:1"
       transform="translate(0,-12.013392)"
       clip-path="url(#clipPath2)" />
    <path
       id="path3"
       d="M 246.08,789.12 H 397.12"
       style="fill:none;stroke:#000000;stroke-width:26.4;stroke-linecap:round;stroke-linejoin:round;stroke-miterlimit:10;stroke-dasharray:none;stroke-opacity:1"
       transform="translate(0,-12.013392)"
       clip-path="url(#clipPath4)" />
    <path
       id="path5"
       d="m 510.39999,345.44 h 37.75998"
       style="fill:none;stroke:#000000;stroke-width:26.4;stroke-linecap:round;stroke-linejoin:round;stroke-miterlimit:10;stroke-dasharray:none;stroke-opacity:1"
       transform="translate(0,-12.013392)"
       clip-path="url(#clipPath6)" />
    <path
       id="path7"
       d="M 0,0 10.56,-0.16 20.959999,-0.96 31.360001,-2.08 41.599998,-3.84 51.84,-5.92 62.080002,-8.64 72,-11.68 81.919998,-15.2 91.519997,-19.200001 100.96,-23.68 l 9.28,-4.959999 9.12,-5.279999 8.64,-5.600002 8.64,-6.239998 8.16,-6.400002 7.84,-6.880001 7.52,-7.199997 7.36,-7.68 6.87999,-7.840004 6.40001,-8.159996 6.08,-8.480004 5.76,-8.799998 5.28,-9.12 4.96,-9.12 4.32,-9.59999 4.16,-9.60001 3.52,-9.92 3.04,-9.92 2.72,-10.08 2.08,-10.24 1.76,-10.4 1.12001,-10.40001 L 226.39999,-216 226.56,-226.56"
       style="fill:none;stroke:#000000;stroke-width:26.4;stroke-linecap:round;stroke-linejoin:round;stroke-miterlimit:10;stroke-dasharray:none;stroke-opacity:1"
       transform="translate(321.60001,559.98661)"
       clip-path="url(#clipPath8)" />
  </g>
</svg>
