<?xml version="1.0" encoding="UTF-8" standalone="no"?>
<!-- Created with Inkscape (http://www.inkscape.org/) -->

<svg
   version="1.1"
   id="svg1"
   width="238.8"
   height="345.70667"
   viewBox="0 0 238.8 345.70667"
   sodipodi:docname="Rubber5.pdf"
   xmlns:inkscape="http://www.inkscape.org/namespaces/inkscape"
   xmlns:sodipodi="http://sodipodi.sourceforge.net/DTD/sodipodi-0.dtd"
   xmlns="http://www.w3.org/2000/svg"
   xmlns:svg="http://www.w3.org/2000/svg">
  <defs
     id="defs1">
    <clipPath
       clipPathUnits="userSpaceOnUse"
       id="clipPath2">
      <path
         d="M 0,0.16 V 1122.5601 H 793.59998 V 0.16 Z"
         transform="translate(-3.3333333e-6)"
         clip-rule="evenodd"
         id="path2" />
    </clipPath>
    <clipPath
       clipPathUnits="userSpaceOnUse"
       id="clipPath4">
      <path
         d="M 0,0.16 V 1122.5601 H 793.59998 V 0.16 Z"
         transform="translate(-3.3333333e-6)"
         clip-rule="evenodd"
         id="path4" />
    </clipPath>
    <clipPath
       clipPathUnits="userSpaceOnUse"
       id="clipPath6">
      <path
         d="M 0,0.16 V 1122.5601 H 793.59998 V 0.16 Z"
         transform="translate(-3.3333333e-6)"
         clip-rule="evenodd"
         id="path6" />
    </clipPath>
    <clipPath
       clipPathUnits="userSpaceOnUse"
       id="clipPath8">
      <path
         d="M 0,0.16 V 1122.5601 H 793.59998 V 0.16 Z"
         transform="translate(-396.32,-338.72)"
         clip-rule="evenodd"
         id="path8" />
    </clipPath>
    <clipPath
       clipPathUnits="userSpaceOnUse"
       id="clipPath10">
      <path
         d="M 0,0.16 V 1122.5601 H 793.59998 V 0.16 Z"
         transform="translate(-3.3333333e-6)"
         clip-rule="evenodd"
         id="path10" />
    </clipPath>
  </defs>
  <sodipodi:namedview
     id="namedview1"
     pagecolor="#505050"
     bordercolor="#eeeeee"
     borderopacity="1"
     inkscape:showpageshadow="0"
     inkscape:pageopacity="0"
     inkscape:pagecheckerboard="0"
     inkscape:deskcolor="#505050">
    <inkscape:page
       x="0"
       y="0"
       inkscape:label="1"
       id="page1"
       width="238.8"
       height="345.70667"
       margin="0"
       bleed="0" />
  </sodipodi:namedview>
  <g
     id="g1"
     inkscape:groupmode="layer"
     inkscape:label="1">
    <path
       id="path1"
       d="M 243.84,635.03998 395.51999,485.76001"
       style="fill:none;stroke:#000000;stroke-width:26.4;stroke-linecap:round;stroke-linejoin:round;stroke-miterlimit:10;stroke-dasharray:none;stroke-opacity:1"
       transform="translate(-221.45333,-315.01339)"
       clip-path="url(#clipPath2)" />
    <path
       id="path3"
       d="m 247.03999,596.79999 73.28002,-0.64002"
       style="fill:none;stroke:#000000;stroke-width:26.4;stroke-linecap:round;stroke-linejoin:round;stroke-miterlimit:10;stroke-dasharray:none;stroke-opacity:1"
       transform="translate(-221.45333,-315.01339)"
       clip-path="url(#clipPath4)" />
    <path
       id="path5"
       d="M 319.67999,523.52002 396.16,524.15997"
       style="fill:none;stroke:#000000;stroke-width:26.4;stroke-linecap:round;stroke-linejoin:round;stroke-miterlimit:10;stroke-dasharray:none;stroke-opacity:1"
       transform="translate(-221.45333,-315.01339)"
       clip-path="url(#clipPath6)" />
    <path
       id="path7"
       d="m 0,0 -5.28,0.32 -5.28,0.64 -5.12,1.12 -5.119999,1.44 -4.960001,1.76 -4.799999,2.24 -4.800002,2.56 -4.319999,2.88 -4.32,3.2 -4,3.52 -3.68,3.680001 -3.360001,4.159999 -3.200001,4.16 -2.719997,4.64 -2.400002,4.639999 -2.080001,4.799999 -1.759995,5.120003 L -68.480003,56 l -0.959999,5.119999 -0.64,5.280003 -0.159996,5.279998 0.159996,5.279999 0.64,5.279999 0.959999,5.279999 1.440002,5.120002 1.760002,4.959999 2.079998,4.800002 2.560002,4.8 2.720001,4.48 3.199997,4.16 3.52,4.16 3.680001,3.68 4,3.52 4.319999,3.04 4.48,2.87999 4.640001,2.56 4.799999,2.08 4.960001,1.76001 5.12,1.44001 5.28,0.95999 5.28,0.64 5.28,0.32"
       style="fill:none;stroke:#000000;stroke-width:26.4;stroke-linecap:round;stroke-linejoin:round;stroke-miterlimit:10;stroke-dasharray:none;stroke-opacity:1"
       transform="translate(174.86667,23.706609)"
       clip-path="url(#clipPath8)" />
    <path
       id="path9"
       d="m 397.44,338.88 35.68,0.63999"
       style="fill:none;stroke:#000000;stroke-width:26.4;stroke-linecap:round;stroke-linejoin:round;stroke-miterlimit:10;stroke-dasharray:none;stroke-opacity:1"
       transform="translate(-221.45333,-315.01339)"
       clip-path="url(#clipPath10)" />
  </g>
</svg>
