<?xml version="1.0" encoding="UTF-8" standalone="no"?>
<!-- Created with Inkscape (http://www.inkscape.org/) -->

<svg
   version="1.1"
   id="svg1"
   width="480.26666"
   height="277.64001"
   viewBox="0 0 480.26666 277.64001"
   sodipodi:docname="Saffron12.pdf"
   xmlns:inkscape="http://www.inkscape.org/namespaces/inkscape"
   xmlns:sodipodi="http://sodipodi.sourceforge.net/DTD/sodipodi-0.dtd"
   xmlns="http://www.w3.org/2000/svg"
   xmlns:svg="http://www.w3.org/2000/svg">
  <defs
     id="defs1">
    <clipPath
       clipPathUnits="userSpaceOnUse"
       id="clipPath2">
      <path
         d="M 0,0.16 V 1122.5601 H 793.59998 V 0.16 Z"
         transform="translate(-615.03998,-522.79999)"
         clip-rule="evenodd"
         id="path2" />
    </clipPath>
    <clipPath
       clipPathUnits="userSpaceOnUse"
       id="clipPath4">
      <path
         d="M 0,0.16 V 1122.5601 H 793.59998 V 0.16 Z"
         clip-rule="evenodd"
         id="path4" />
    </clipPath>
    <clipPath
       clipPathUnits="userSpaceOnUse"
       id="clipPath6">
      <path
         d="M 0,0.16 V 1122.5601 H 793.59998 V 0.16 Z"
         clip-rule="evenodd"
         id="path6" />
    </clipPath>
    <clipPath
       clipPathUnits="userSpaceOnUse"
       id="clipPath8">
      <path
         d="M 0,0.16 V 1122.5601 H 793.59998 V 0.16 Z"
         clip-rule="evenodd"
         id="path8" />
    </clipPath>
    <clipPath
       clipPathUnits="userSpaceOnUse"
       id="clipPath10">
      <path
         d="M 0,0.16 V 1122.5601 H 793.59998 V 0.16 Z"
         transform="translate(-486.56,-586.88)"
         clip-rule="evenodd"
         id="path10" />
    </clipPath>
    <clipPath
       clipPathUnits="userSpaceOnUse"
       id="clipPath12">
      <path
         d="M 0,0.16 V 1122.5601 H 793.59998 V 0.16 Z"
         clip-rule="evenodd"
         id="path12" />
    </clipPath>
    <clipPath
       clipPathUnits="userSpaceOnUse"
       id="clipPath14">
      <path
         d="M 0,0.16 V 1122.5601 H 793.59998 V 0.16 Z"
         clip-rule="evenodd"
         id="path14" />
    </clipPath>
    <clipPath
       clipPathUnits="userSpaceOnUse"
       id="clipPath16">
      <path
         d="M 0,0.16 V 1122.5601 H 793.59998 V 0.16 Z"
         clip-rule="evenodd"
         id="path16" />
    </clipPath>
    <clipPath
       clipPathUnits="userSpaceOnUse"
       id="clipPath18">
      <path
         d="M 0,0.16 V 1122.5601 H 793.59998 V 0.16 Z"
         clip-rule="evenodd"
         id="path18" />
    </clipPath>
    <clipPath
       clipPathUnits="userSpaceOnUse"
       id="clipPath20">
      <path
         d="M 0,0.16 V 1122.5601 H 793.59998 V 0.16 Z"
         transform="translate(-358.23999,-474.56)"
         clip-rule="evenodd"
         id="path20" />
    </clipPath>
    <clipPath
       clipPathUnits="userSpaceOnUse"
       id="clipPath22">
      <path
         d="M 0,0.16 V 1122.5601 H 793.59998 V 0.16 Z"
         clip-rule="evenodd"
         id="path22" />
    </clipPath>
    <clipPath
       clipPathUnits="userSpaceOnUse"
       id="clipPath24">
      <path
         d="M 0,0.16 V 1122.5601 H 793.59998 V 0.16 Z"
         transform="translate(-183.2,-631.35998)"
         clip-rule="evenodd"
         id="path24" />
    </clipPath>
    <clipPath
       clipPathUnits="userSpaceOnUse"
       id="clipPath26">
      <path
         d="M 0,0.16 V 1122.5601 H 793.59998 V 0.16 Z"
         clip-rule="evenodd"
         id="path26" />
    </clipPath>
  </defs>
  <sodipodi:namedview
     id="namedview1"
     pagecolor="#505050"
     bordercolor="#eeeeee"
     borderopacity="1"
     inkscape:showpageshadow="0"
     inkscape:pageopacity="0"
     inkscape:pagecheckerboard="0"
     inkscape:deskcolor="#505050">
    <inkscape:page
       x="0"
       y="0"
       inkscape:label="1"
       id="page1"
       width="480.26666"
       height="277.64001"
       margin="0"
       bleed="0" />
  </sodipodi:namedview>
  <g
     id="g1"
     inkscape:groupmode="layer"
     inkscape:label="1">
    <path
       id="path1"
       d="m 0,0 c 0,-17.709999 -14.36,-32.080002 -32.080002,-32.080002 -17.719997,0 -32.080002,14.370003 -32.080002,32.080002 0,17.709999 14.360005,32.080002 32.080002,32.080002 C -14.36,32.080002 0,17.709999 0,0 Z"
       style="fill:none;stroke:#000000;stroke-width:26.4;stroke-linecap:round;stroke-linejoin:round;stroke-miterlimit:10;stroke-dasharray:none;stroke-opacity:1"
       transform="translate(458.95998,102.3466)"
       clip-path="url(#clipPath2)" />
    <path
       id="path3"
       d="M 229.92,538.71997 H 358.23999"
       style="fill:none;stroke:#000000;stroke-width:26.4;stroke-linecap:round;stroke-linejoin:round;stroke-miterlimit:10;stroke-dasharray:none;stroke-opacity:1"
       transform="translate(-156.08,-420.45339)"
       clip-path="url(#clipPath4)" />
    <path
       id="path5"
       d="m 358.23999,538.71997 v 64.32001"
       style="fill:none;stroke:#000000;stroke-width:26.4;stroke-linecap:round;stroke-linejoin:round;stroke-miterlimit:10;stroke-dasharray:none;stroke-opacity:1"
       transform="translate(-156.08,-420.45339)"
       clip-path="url(#clipPath6)" />
    <path
       id="path7"
       d="m 358.23999,603.03998 h 64.16"
       style="fill:none;stroke:#000000;stroke-width:26.4;stroke-linecap:round;stroke-linejoin:round;stroke-miterlimit:10;stroke-dasharray:none;stroke-opacity:1"
       transform="translate(-156.08,-420.45339)"
       clip-path="url(#clipPath8)" />
    <path
       id="path9"
       d="m 0,0 v -3.04 l -0.48,-3.2 -0.8,-3.04 -1.12,-2.88 -1.28,-2.88 -1.6,-2.72 -1.92,-2.56 -2.08,-2.399999 -2.4,-2.08 -2.56,-1.76 L -16.959999,-28.32 -19.68,-29.6 -22.719999,-30.719999 -25.76,-31.360001 -28.799999,-31.84 -32,-32 l -3.200001,0.16 -3.040001,0.479999 -3.039997,0.640002 L -44.32,-29.6 l -2.880001,1.28 -2.719997,1.760001 -2.400002,1.76 -2.400001,2.08 -2.079998,2.399999 -1.920002,2.56 -1.599999,2.72 -1.279998,2.88 -1.120003,2.88 L -63.52,-6.24 -64,-3.04 -64.160004,0"
       style="fill:none;stroke:#000000;stroke-width:26.4;stroke-linecap:round;stroke-linejoin:round;stroke-miterlimit:10;stroke-dasharray:none;stroke-opacity:1"
       transform="translate(330.48,166.42661)"
       clip-path="url(#clipPath10)" />
    <path
       id="path11"
       d="M 486.72,603.03998 H 615.03998"
       style="fill:none;stroke:#000000;stroke-width:26.4;stroke-linecap:round;stroke-linejoin:round;stroke-miterlimit:10;stroke-dasharray:none;stroke-opacity:1"
       transform="translate(-156.08,-420.45339)"
       clip-path="url(#clipPath12)" />
    <path
       id="path13"
       d="M 615.03998,603.03998 V 538.71997"
       style="fill:none;stroke:#000000;stroke-width:26.4;stroke-linecap:round;stroke-linejoin:round;stroke-miterlimit:10;stroke-dasharray:none;stroke-opacity:1"
       transform="translate(-156.08,-420.45339)"
       clip-path="url(#clipPath14)" />
    <path
       id="path15"
       d="m 422.39999,586.88 v 16.15998"
       style="fill:none;stroke:#000000;stroke-width:26.4;stroke-linecap:round;stroke-linejoin:round;stroke-miterlimit:10;stroke-dasharray:none;stroke-opacity:1"
       transform="translate(-156.08,-420.45339)"
       clip-path="url(#clipPath16)" />
    <path
       id="path17"
       d="m 486.72,586.88 v 16.15998"
       style="fill:none;stroke:#000000;stroke-width:26.4;stroke-linecap:round;stroke-linejoin:round;stroke-miterlimit:10;stroke-dasharray:none;stroke-opacity:1"
       transform="translate(-156.08,-420.45339)"
       clip-path="url(#clipPath18)" />
    <path
       id="path19"
       d="m 0,0 -5.92,2.24 -5.76,2.56 -5.600001,2.88 -5.439998,3.36 L -28,14.56 l -4.959999,3.84 -4.799999,4.319999 -4.480004,4.480002 -4.16,4.799999 -3.84,4.959999 -3.519996,5.280003 -3.200001,5.439998 -2.880001,5.599999 -2.560002,5.920002 -2.080001,5.920002 -1.759995,6.079994 -1.279999,6.240005 -1.120002,6.239998 -0.480004,6.239998 -0.319999,6.400002 0.319999,6.4 0.480004,6.24 1.120002,6.24 1.279999,6.24 1.759995,6.08 2.080001,5.92 2.560002,5.92 2.880001,5.60001 3.200001,5.43998 3.519996,5.28 3.84,4.96001 4.16,4.8 4.480004,4.48 4.799999,4.32 4.959999,3.84 5.280001,3.67999 5.439998,3.20002 L -11.68,187.84 -5.92,190.39999 0,192.48"
       style="fill:none;stroke:#000000;stroke-width:26.4;stroke-linecap:round;stroke-linejoin:round;stroke-miterlimit:10;stroke-dasharray:none;stroke-opacity:1"
       transform="translate(202.15999,54.106606)"
       clip-path="url(#clipPath20)" />
    <path
       id="path21"
       d="m 358.23999,667.20001 h 64.16"
       style="fill:none;stroke:#000000;stroke-width:26.4;stroke-linecap:round;stroke-linejoin:round;stroke-miterlimit:10;stroke-dasharray:none;stroke-opacity:1"
       transform="translate(-156.08,-420.45339)"
       clip-path="url(#clipPath22)" />
    <path
       id="path23"
       d="m 0,0 2.88,4.48 3.04,4.16 3.04,3.84 3.2,3.36 3.36,3.200001 L 19.040001,21.76 22.719999,24 26.4,25.92 l 3.68,1.440001 3.679998,1.119999 3.84,0.640001 3.840001,0.16 3.84,-0.16 3.84,-0.640001 3.84,-0.96 3.68,-1.44 3.680001,-1.92 3.52,-2.24 3.520001,-2.719999 3.36,-3.040001 3.360001,-3.36 3.040001,-3.84 3.040001,-4 2.719993,-4.48 2.720001,-4.64 L 88,-9.28 90.239998,-14.56 92.32,-20 94.080002,-25.76 95.68,-31.68 97.120003,-37.759998 98.239998,-44 l 0.800003,-6.240002 0.639999,-6.399997 0.48,-6.560002 0.16,-6.399997 -0.16,-6.560006 -0.320004,-6.399994 -0.639999,-6.400001 -0.799995,-6.400002 -1.120003,-6.239999 -1.440003,-6.08 -1.439994,-5.92 -1.919999,-5.76 -1.920005,-5.44 -2.239998,-5.44 -2.400002,-4.96 -2.559997,-4.8 -2.879998,-4.48 -2.880005,-4.16 -3.199996,-3.84 -3.200005,-3.36 -3.360001,-3.19999 -3.519996,-2.72 -3.520001,-2.24001 -3.68,-1.92 -3.68,-1.44 -3.840001,-1.12 -3.84,-0.8 -3.84,-0.16 -3.679996,0.16 -3.84,0.64 -3.840003,0.96001 -3.68,1.43999 -3.679998,1.91999 -3.680001,2.24001 -3.52,2.56 -3.36,3.04 -3.2,3.36001 -3.2,3.83999 -2.88,4 -2.88,4.48 -2.72,4.64"
       style="fill:none;stroke:#000000;stroke-width:26.4;stroke-linecap:round;stroke-linejoin:round;stroke-miterlimit:10;stroke-dasharray:none;stroke-opacity:1"
       transform="translate(27.119997,210.90659)"
       clip-path="url(#clipPath24)" />
    <path
       id="path25"
       d="M 186.56,630.88 423.84,632"
       style="fill:none;stroke:#000000;stroke-width:26.4;stroke-linecap:round;stroke-linejoin:round;stroke-miterlimit:10;stroke-dasharray:none;stroke-opacity:1"
       transform="translate(-156.08,-420.45339)"
       clip-path="url(#clipPath26)" />
  </g>
</svg>
