<?xml version="1.0" encoding="UTF-8" standalone="no"?>
<!-- Created with Inkscape (http://www.inkscape.org/) -->

<svg
   version="1.1"
   id="svg1"
   width="508.26666"
   height="363.06668"
   viewBox="0 0 508.26666 363.06668"
   sodipodi:docname="Saffron11.pdf"
   xmlns:inkscape="http://www.inkscape.org/namespaces/inkscape"
   xmlns:sodipodi="http://sodipodi.sourceforge.net/DTD/sodipodi-0.dtd"
   xmlns="http://www.w3.org/2000/svg"
   xmlns:svg="http://www.w3.org/2000/svg">
  <defs
     id="defs1">
    <clipPath
       clipPathUnits="userSpaceOnUse"
       id="clipPath2">
      <path
         d="M 0,0.16 V 1122.5601 H 793.59998 V 0.16 Z"
         transform="translate(-3.3333333e-6)"
         clip-rule="evenodd"
         id="path2" />
    </clipPath>
    <clipPath
       clipPathUnits="userSpaceOnUse"
       id="clipPath4">
      <path
         d="M 0,0.16 V 1122.5601 H 793.59998 V 0.16 Z"
         transform="translate(-170.24001,-712.32001)"
         clip-rule="evenodd"
         id="path4" />
    </clipPath>
  </defs>
  <sodipodi:namedview
     id="namedview1"
     pagecolor="#505050"
     bordercolor="#eeeeee"
     borderopacity="1"
     inkscape:showpageshadow="0"
     inkscape:pageopacity="0"
     inkscape:pagecheckerboard="0"
     inkscape:deskcolor="#505050">
    <inkscape:page
       x="0"
       y="0"
       inkscape:label="1"
       id="page1"
       width="508.26666"
       height="363.06668"
       margin="0"
       bleed="0" />
  </sodipodi:namedview>
  <g
     id="g1"
     inkscape:groupmode="layer"
     inkscape:label="1">
    <path
       id="path1"
       d="M 170.24,561.28003 H 623.35998"
       style="fill:none;stroke:#000000;stroke-width:26.4;stroke-linecap:round;stroke-linejoin:round;stroke-miterlimit:10;stroke-dasharray:none;stroke-opacity:1"
       transform="translate(-141.41333,-379.08006)"
       clip-path="url(#clipPath2)" />
    <path
       id="path3"
       d="m 0,0 8.32,-0.16 8,-0.64 8.16,-1.12 8,-1.6 8,-1.92 7.84,-2.4 7.68,-2.88 7.52,-3.2 7.359997,-3.68 7.040001,-4 6.880005,-4.48 6.719994,-4.639999 L 97.919998,-35.84 104,-41.439999 l 5.76,-5.760002 5.44,-6.079998 5.12,-6.400001 4.8,-6.559998 4.32,-6.880005 4,-7.199997 3.67999,-7.36 3.20002,-7.360001 2.87999,-7.679999 2.40001,-7.84 1.91999,-8 1.59999,-8 1.12001,-8.16 0.64,-8.16 0.15999,-8.15999 -0.15999,-8.16001 -0.64,-8.16 -1.12001,-8.16 -1.59999,-8 -1.91999,-7.84 -2.40001,-7.84 -2.87999,-7.68 -3.20002,-7.51999 -3.67999,-7.36 -4,-7.20002 -4.32,-6.87999 -4.8,-6.55999 -5.12,-6.40001 -5.44,-6.08 -5.76,-5.76001 -6.080002,-5.43998 -6.400001,-5.12002 -6.719994,-4.79999 -6.880005,-4.48001 -7.040001,-4 L 63.52,-288.16 56,-291.35999 l -7.68,-2.72 -7.84,-2.40002 -8,-2.07999 -8,-1.44 -8.16,-1.12 -8,-0.64001 -8.32,-0.31998"
       style="fill:none;stroke:#000000;stroke-width:26.4;stroke-linecap:round;stroke-linejoin:round;stroke-miterlimit:10;stroke-dasharray:none;stroke-opacity:1"
       transform="translate(28.826672,333.23995)"
       clip-path="url(#clipPath4)" />
  </g>
</svg>
