<?xml version="1.0" encoding="UTF-8" standalone="no"?>
<!-- Created with Inkscape (http://www.inkscape.org/) -->

<svg
   version="1.1"
   id="svg1"
   width="337.51999"
   height="311"
   viewBox="0 0 337.51999 311"
   sodipodi:docname="Saffron5.pdf"
   xmlns:inkscape="http://www.inkscape.org/namespaces/inkscape"
   xmlns:sodipodi="http://sodipodi.sourceforge.net/DTD/sodipodi-0.dtd"
   xmlns="http://www.w3.org/2000/svg"
   xmlns:svg="http://www.w3.org/2000/svg">
  <defs
     id="defs1">
    <clipPath
       clipPathUnits="userSpaceOnUse"
       id="clipPath2">
      <path
         d="M 0,0.16 V 1122.5601 H 793.59998 V 0.16 Z"
         transform="translate(-419.67999,-457.60001)"
         clip-rule="evenodd"
         id="path2" />
    </clipPath>
    <clipPath
       clipPathUnits="userSpaceOnUse"
       id="clipPath4">
      <path
         d="M 0,0.16 V 1122.5601 H 793.59998 V 0.16 Z"
         transform="translate(-276.48001,-644.64001)"
         clip-rule="evenodd"
         id="path4" />
    </clipPath>
    <clipPath
       clipPathUnits="userSpaceOnUse"
       id="clipPath6">
      <path
         d="M 0,0.16 V 1122.5601 H 793.59998 V 0.16 Z"
         transform="translate(-3.3333333e-6)"
         clip-rule="evenodd"
         id="path6" />
    </clipPath>
    <clipPath
       clipPathUnits="userSpaceOnUse"
       id="clipPath8">
      <path
         d="M 0,0.16 V 1122.5601 H 793.59998 V 0.16 Z"
         transform="translate(-3.3333333e-6)"
         clip-rule="evenodd"
         id="path8" />
    </clipPath>
    <clipPath
       clipPathUnits="userSpaceOnUse"
       id="clipPath10">
      <path
         d="M 0,0.16 V 1122.5601 H 793.59998 V 0.16 Z"
         transform="translate(-3.3333333e-6)"
         clip-rule="evenodd"
         id="path10" />
    </clipPath>
  </defs>
  <sodipodi:namedview
     id="namedview1"
     pagecolor="#505050"
     bordercolor="#eeeeee"
     borderopacity="1"
     inkscape:showpageshadow="0"
     inkscape:pageopacity="0"
     inkscape:pagecheckerboard="0"
     inkscape:deskcolor="#505050">
    <inkscape:page
       x="0"
       y="0"
       inkscape:label="1"
       id="page1"
       width="337.51999"
       height="311"
       margin="0"
       bleed="0" />
  </sodipodi:namedview>
  <g
     id="g1"
     inkscape:groupmode="layer"
     inkscape:label="1">
    <path
       id="path1"
       d="M 0,0 -6.08,-0.96 -12,-1.6 l -6.24,-0.32 -6.08,-0.16 -6.08,0.32 -6.08,0.32 -6.080001,0.8 L -48.48,0.32 -54.240002,1.6 -60,3.2 -65.440002,4.96 -70.879997,6.88 -76,9.12 l -4.800003,2.56 -4.639999,2.72 -4.32,2.880001 -4,3.039999 -3.68,3.36 -3.359998,3.360001 -3.04,3.519998 -2.56,3.680003 -2.24,3.84 -1.92,3.839996 -1.44,4 -1.12,4 -0.64,4.160004 -0.16,4 0.16,4.16 0.64,3.999996 0.96,4 1.44,4 1.76,3.840004 2.24,3.839996 2.56,3.68 2.88,3.680001 3.360002,3.36 3.68,3.360001 4,3.040001 4.159996,3.039999 4.64,2.72 4.800003,2.4 5.120002,2.4 5.279999,1.92 5.439999,1.92 5.759998,1.6 5.760002,1.28 5.919998,0.96 5.920002,0.8 6.079998,0.48 6.24,0.16"
       style="fill:none;stroke:#000000;stroke-width:26.4;stroke-linecap:round;stroke-linejoin:round;stroke-miterlimit:10;stroke-dasharray:none;stroke-opacity:1"
       transform="translate(167.54666,30.466614)"
       clip-path="url(#clipPath2)" />
    <path
       id="path3"
       d="m 0,0 1.28,3.52 1.44,3.52 2.08,3.52 2.4,3.52 2.88,3.360001 3.2,3.199998 3.679999,3.200001 4,3.039999 L 25.280001,29.76 30.08,32.639999 35.040001,35.200001 40.32,37.599998 46.080002,40 51.84,42.080002 58.080002,44.16 l 6.400001,1.759998 6.559998,1.440003 6.720001,1.439998 6.879997,1.119999 L 91.68,50.880001 98.879997,51.68 106.08,52.16 l 7.2,0.32 7.2,0.159999 7.36,-0.159999 7.19999,-0.32 7.20001,-0.64 7.2,-0.799999 7.04,-0.960003 6.72,-1.279998 6.72,-1.279999 6.56,-1.600003 6.4,-1.919998 6.08001,-1.920002 L 194.88,39.52 l 5.44001,-2.240001 5.28,-2.559998 L 210.56,32 215.2,29.280001 219.52,26.24 l 4,-3.039999 L 227.03999,20 230.24,16.799999 232.96001,13.44 235.36,9.92 l 1.92,-3.52 1.44,-3.52 1.12,-3.68 0.64,-3.52 0.16,-3.68 -0.16,-3.68 -0.64,-3.52 -1.12,-3.679999 L 237.11999,-22.4 235.2,-25.92 l -2.4,-3.520001 -2.88,-3.359998 -3.2,-3.200001 -3.52,-3.200001 -4,-3.040001 -4.32,-2.879997 L 210.24,-48 l -5.12001,-2.560001 -5.27999,-2.559998 -5.6,-2.240002 -5.91999,-2.239997 L 182.24,-59.52 176,-61.279999 l -6.56,-1.600002 -6.88,-1.439999 -6.88001,-1.120002 -6.87999,-1.119996 -7.19999,-0.639999 -7.20002,-0.639999 -7.19999,-0.320008 h -7.36"
       style="fill:none;stroke:#000000;stroke-width:26.4;stroke-linecap:round;stroke-linejoin:round;stroke-miterlimit:10;stroke-dasharray:none;stroke-opacity:1"
       transform="translate(24.346678,217.50662)"
       clip-path="url(#clipPath4)" />
    <path
       id="path5"
       d="M 321.28,712.32001 491.35999,521.12"
       style="fill:none;stroke:#000000;stroke-width:26.4;stroke-linecap:round;stroke-linejoin:round;stroke-miterlimit:10;stroke-dasharray:none;stroke-opacity:1"
       transform="translate(-252.13333,-427.13339)"
       clip-path="url(#clipPath6)" />
    <path
       id="path7"
       d="m 491.20001,523.52002 h 75.51996"
       style="fill:none;stroke:#000000;stroke-width:26.4;stroke-linecap:round;stroke-linejoin:round;stroke-miterlimit:10;stroke-dasharray:none;stroke-opacity:1"
       transform="translate(-252.13333,-427.13339)"
       clip-path="url(#clipPath8)" />
    <path
       id="path9"
       d="m 528.96002,485.76001 v 75.52002"
       style="fill:none;stroke:#000000;stroke-width:26.4;stroke-linecap:round;stroke-linejoin:round;stroke-miterlimit:10;stroke-dasharray:none;stroke-opacity:1"
       transform="translate(-252.13333,-427.13339)"
       clip-path="url(#clipPath10)" />
  </g>
</svg>
