<?xml version="1.0" encoding="UTF-8" standalone="no"?>
<!-- Created with Inkscape (http://www.inkscape.org/) -->

<svg
   version="1.1"
   id="svg1"
   width="482.93332"
   height="436.48001"
   viewBox="0 0 482.93332 436.48001"
   sodipodi:docname="Terebinth2.pdf"
   xmlns:inkscape="http://www.inkscape.org/namespaces/inkscape"
   xmlns:sodipodi="http://sodipodi.sourceforge.net/DTD/sodipodi-0.dtd"
   xmlns="http://www.w3.org/2000/svg"
   xmlns:svg="http://www.w3.org/2000/svg">
  <defs
     id="defs1">
    <clipPath
       clipPathUnits="userSpaceOnUse"
       id="clipPath2">
      <path
         d="M 0,0.16 V 1122.5601 H 793.59998 V 0.16 Z"
         transform="translate(-354.23999,-381.60001)"
         clip-rule="evenodd"
         id="path2" />
    </clipPath>
    <clipPath
       clipPathUnits="userSpaceOnUse"
       id="clipPath4">
      <path
         d="M 0,0.16 V 1122.5601 H 793.59998 V 0.16 Z"
         transform="translate(-312.79999,-527.35998)"
         clip-rule="evenodd"
         id="path4" />
    </clipPath>
    <clipPath
       clipPathUnits="userSpaceOnUse"
       id="clipPath6">
      <path
         d="M 0,0.16 V 1122.5601 H 793.59998 V 0.16 Z"
         clip-rule="evenodd"
         id="path6" />
    </clipPath>
    <clipPath
       clipPathUnits="userSpaceOnUse"
       id="clipPath8">
      <path
         d="M 0,0.16 V 1122.5601 H 793.59998 V 0.16 Z"
         clip-rule="evenodd"
         id="path8" />
    </clipPath>
    <clipPath
       clipPathUnits="userSpaceOnUse"
       id="clipPath10">
      <path
         d="M 0,0.16 V 1122.5601 H 793.59998 V 0.16 Z"
         clip-rule="evenodd"
         id="path10" />
    </clipPath>
    <clipPath
       clipPathUnits="userSpaceOnUse"
       id="clipPath12">
      <path
         d="M 0,0.16 V 1122.5601 H 793.59998 V 0.16 Z"
         transform="translate(-458.56,-523.52002)"
         clip-rule="evenodd"
         id="path12" />
    </clipPath>
    <clipPath
       clipPathUnits="userSpaceOnUse"
       id="clipPath14">
      <path
         d="M 0,0.16 V 1122.5601 H 793.59998 V 0.16 Z"
         transform="translate(-609.59998,-750.08002)"
         clip-rule="evenodd"
         id="path14" />
    </clipPath>
  </defs>
  <sodipodi:namedview
     id="namedview1"
     pagecolor="#505050"
     bordercolor="#eeeeee"
     borderopacity="1"
     inkscape:showpageshadow="0"
     inkscape:pageopacity="0"
     inkscape:pagecheckerboard="0"
     inkscape:deskcolor="#505050">
    <inkscape:page
       x="0"
       y="0"
       inkscape:label="1"
       id="page1"
       width="482.93332"
       height="436.48001"
       margin="0"
       bleed="0" />
  </sodipodi:namedview>
  <g
     id="g1"
     inkscape:groupmode="layer"
     inkscape:label="1">
    <path
       id="path1"
       d="m 0,0 -4.96,-1.76 -5.28,-1.6 -5.28,-1.12 -5.439999,-0.8 L -26.24,-5.76 h -5.44 l -5.439999,0.32 -5.440002,0.8 -5.279999,1.12 -5.279999,1.6 -5.120003,1.76 -4.959999,2.4 L -68,4.8 l -4.480003,2.88 -4.32,3.36 -4.159996,3.52 -3.840004,3.84 -3.519997,4.159999 -3.199997,4.32 -3.040001,4.640001 -2.560005,4.8 -2.239998,4.959999 -1.759999,5.120003 -1.6,5.279998 -1.12,5.279999 -0.64,5.280003 -0.32,5.439998 v 5.440003 l 0.48,5.439995 0.8,5.440002 1.28,5.279999 1.6,5.279999 1.919999,4.959999 2.400001,4.960003 2.559998,4.8 3.040001,4.48 3.36,4.32 3.680001,4 3.840004,3.84 4.159996,3.36 4.480003,3.2 4.639999,2.88 4.8,2.56 4.959999,2.08 5.119999,1.92 5.279998,1.28 5.280003,0.96"
       style="fill:none;stroke:#000000;stroke-width:26.4;stroke-linecap:round;stroke-linejoin:round;stroke-miterlimit:10;stroke-dasharray:none;stroke-opacity:1"
       transform="translate(198.15999,37.226614)"
       clip-path="url(#clipPath2)" />
    <path
       id="path3"
       d="m 0,0 -6.88,-0.64 -7.04,-0.48 h -7.039999 l -6.880001,0.48 -7.040001,0.8 -6.879997,1.44 -6.880001,1.76 -6.720002,2.24 -6.399997,2.56 -6.400006,3.04 -6.239998,3.36 -5.919998,3.84 -5.599998,4.159999 -5.440003,4.480002 -5.120002,4.799999 -4.799997,5.119999 -4.48,5.440003 -4,5.759998 -3.84,5.920002 -3.36,6.239998 -2.88,6.400001 -2.56,6.559998 -2.08,6.720001 -1.76,6.720001 -1.28,7.040001 -0.80001,6.879998 -0.47999,7.04 0.16,7.04 0.48,7.04 0.96,7.04 1.28,6.87999 1.76,6.72 2.24,6.72 2.72,6.56 3.04,6.24001 3.36,6.24 3.84,5.92 4.32,5.59999 4.48,5.44 4.799999,4.96001 5.279999,4.8 5.440003,4.48 5.760002,4 5.919998,3.84 6.239998,3.19999 6.400001,3.04001 6.560002,2.4 6.719997,2.08 6.880001,1.75999 6.880001,1.28002 7.039999,0.79998 6.879999,0.32001 7.040001,-0.16 7.04,-0.48 7.04,-0.96 6.88,-1.44001 6.72,-1.75999 6.72,-2.24001 6.559999,-2.71998 6.240002,-3.04001 6.079998,-3.52001 5.920002,-3.83999 5.599999,-4.31999 5.279998,-4.64"
       style="fill:none;stroke:#000000;stroke-width:26.4;stroke-linecap:round;stroke-linejoin:round;stroke-miterlimit:10;stroke-dasharray:none;stroke-opacity:1"
       transform="translate(156.71999,182.98659)"
       clip-path="url(#clipPath4)" />
    <path
       id="path5"
       d="M 420.95999,372.48001 V 750.08002"
       style="fill:none;stroke:#000000;stroke-width:26.4;stroke-linecap:round;stroke-linejoin:round;stroke-miterlimit:10;stroke-dasharray:none;stroke-opacity:1"
       transform="translate(-156.08,-344.37339)"
       clip-path="url(#clipPath6)" />
    <path
       id="path7"
       d="M 420.95999,372.48001 H 458.72"
       style="fill:none;stroke:#000000;stroke-width:26.4;stroke-linecap:round;stroke-linejoin:round;stroke-miterlimit:10;stroke-dasharray:none;stroke-opacity:1"
       transform="translate(-156.08,-344.37339)"
       clip-path="url(#clipPath8)" />
    <path
       id="path9"
       d="M 420.95999,523.52002 H 458.72"
       style="fill:none;stroke:#000000;stroke-width:26.4;stroke-linecap:round;stroke-linejoin:round;stroke-miterlimit:10;stroke-dasharray:none;stroke-opacity:1"
       transform="translate(-156.08,-344.37339)"
       clip-path="url(#clipPath10)" />
    <path
       id="path11"
       d="m 0,0 5.6,-0.16 5.28,-0.64 5.44,-0.96 5.28,-1.28 5.119999,-1.76 4.960001,-2.08 4.959999,-2.56 4.64,-2.72 4.479999,-3.2 4.16,-3.359999 4,-3.680001 3.68,-4 3.360001,-4.319999 L 64,-35.200001 66.720001,-40 l 2.400002,-4.799999 2.079994,-5.119999 1.600006,-5.120003 1.279999,-5.279999 0.959999,-5.440002 0.479996,-5.279999 0.160003,-5.440002 -0.319999,-5.439995 -0.64,-5.440003 -1.120003,-5.279998 -1.439994,-5.279999 -1.760002,-5.120002 -2.239998,-5.12 -2.400002,-4.8 -2.880001,-4.64 -3.200001,-4.32 -3.52,-4.16 -3.84,-3.84 -4,-3.68001 -4.32,-3.36 L 39.52,-140 34.720001,-142.56 29.76,-144.96001 24.799999,-146.88 19.52,-148.48 14.24,-149.60001 8.8,-150.56 3.36,-151.03999"
       style="fill:none;stroke:#000000;stroke-width:26.4;stroke-linecap:round;stroke-linejoin:round;stroke-miterlimit:10;stroke-dasharray:none;stroke-opacity:1"
       transform="translate(302.48,179.14663)"
       clip-path="url(#clipPath12)" />
    <path
       id="path13"
       d="m 0,0 -6.08,-16 -6.72,-15.84 -7.2,-15.520001 -7.52,-15.52 -8.16,-15.039997 L -44,-92.959999 -52.959999,-107.68 -62.240002,-122.08 -72,-136.16 -82.080002,-150.08 -92.639999,-163.52 -103.52,-176.8 l -11.36,-12.95999 -11.68,-12.64 -12,-12.16001 -12.47999,-12"
       style="fill:none;stroke:#000000;stroke-width:26.4;stroke-linecap:round;stroke-linejoin:round;stroke-miterlimit:10;stroke-dasharray:none;stroke-opacity:1"
       transform="translate(453.51998,405.70663)"
       clip-path="url(#clipPath14)" />
  </g>
</svg>
