<?xml version="1.0" encoding="UTF-8" standalone="no"?>
<!-- Created with Inkscape (http://www.inkscape.org/) -->

<svg
   version="1.1"
   id="svg1"
   width="488.26666"
   height="475.18668"
   viewBox="0 0 488.26666 475.18668"
   sodipodi:docname="Wood3.pdf"
   xmlns:inkscape="http://www.inkscape.org/namespaces/inkscape"
   xmlns:sodipodi="http://sodipodi.sourceforge.net/DTD/sodipodi-0.dtd"
   xmlns="http://www.w3.org/2000/svg"
   xmlns:svg="http://www.w3.org/2000/svg">
  <defs
     id="defs1">
    <clipPath
       clipPathUnits="userSpaceOnUse"
       id="clipPath2">
      <path
         d="M 0,0.16 V 1122.5601 H 793.59998 V 0.16 Z"
         transform="translate(-214.72,-649.28003)"
         clip-rule="evenodd"
         id="path2" />
    </clipPath>
    <clipPath
       clipPathUnits="userSpaceOnUse"
       id="clipPath4">
      <path
         d="M 0,0.16 V 1122.5601 H 793.59998 V 0.16 Z"
         clip-rule="evenodd"
         id="path4" />
    </clipPath>
    <clipPath
       clipPathUnits="userSpaceOnUse"
       id="clipPath6">
      <path
         d="M 0,0.16 V 1122.5601 H 793.59998 V 0.16 Z"
         clip-rule="evenodd"
         id="path6" />
    </clipPath>
    <clipPath
       clipPathUnits="userSpaceOnUse"
       id="clipPath8">
      <path
         d="M 0,0.16 V 1122.5601 H 793.59998 V 0.16 Z"
         clip-rule="evenodd"
         id="path8" />
    </clipPath>
    <clipPath
       clipPathUnits="userSpaceOnUse"
       id="clipPath10">
      <path
         d="M 0,0.16 V 1122.5601 H 793.59998 V 0.16 Z"
         clip-rule="evenodd"
         id="path10" />
    </clipPath>
  </defs>
  <sodipodi:namedview
     id="namedview1"
     pagecolor="#505050"
     bordercolor="#eeeeee"
     borderopacity="1"
     inkscape:showpageshadow="0"
     inkscape:pageopacity="0"
     inkscape:pagecheckerboard="0"
     inkscape:deskcolor="#505050">
    <inkscape:page
       x="0"
       y="0"
       inkscape:label="1"
       id="page1"
       width="488.26666"
       height="475.18668"
       margin="0"
       bleed="0" />
  </sodipodi:namedview>
  <g
     id="g1"
     inkscape:groupmode="layer"
     inkscape:label="1">
    <path
       id="path1"
       d="m 0,0 -4.8,4.96 -4.48,5.12 -4.16,5.44 -3.840001,5.760001 -3.519998,5.76 L -24,33.119999 -26.719999,39.52 l -2.400002,6.399998 -1.92,6.560002 -1.599998,6.560001 -1.119999,6.720001 -0.800003,6.879997 -0.32,6.879998 v 6.880005 l 0.479999,6.720001 0.800004,6.879997 1.279998,6.72 1.760001,6.56 2.079999,6.56 2.56,6.4 2.879999,6.24 3.200001,5.91999 3.52,5.92002 4,5.59999 4.32,5.28 4.48,5.12001 4.96,4.79998 5.12,4.48002 5.44,4.15998 5.6,3.84002 5.92,3.51998 6.08,3.04001 6.4,2.87999 6.400002,2.24001 6.559997,2.08 6.560001,1.60001 6.880002,1.11999 6.720001,0.8 L 76,195.2 82.879997,195.03999 89.599998,194.56 96.480003,193.75999 103.2,192.48 l 6.56,-1.76 6.56,-2.08 6.4,-2.56 6.24001,-2.88 5.91999,-3.2 5.92,-3.52 5.59999,-4 5.28,-4.32 5.12001,-4.48001 4.80001,-4.95999 4.47999,-5.11999 4.16,-5.44001 3.84,-5.76001 3.52001,-5.91999 3.03999,-6.08001 2.72,-6.23999 2.24001,-6.56"
       style="fill:none;stroke:#000000;stroke-width:26.4;stroke-linecap:round;stroke-linejoin:round;stroke-miterlimit:10;stroke-dasharray:none;stroke-opacity:1"
       transform="translate(62.640001,248.83997)"
       clip-path="url(#clipPath2)" />
    <path
       id="path3"
       d="M 400.48001,767.03998 519.52002,429.12"
       style="fill:none;stroke:#000000;stroke-width:26.4;stroke-linecap:round;stroke-linejoin:round;stroke-miterlimit:10;stroke-dasharray:none;stroke-opacity:1"
       transform="translate(-152.08,-400.44006)"
       clip-path="url(#clipPath4)" />
    <path
       id="path5"
       d="m 519.52002,429.12 94.39996,415.35998"
       style="fill:none;stroke:#000000;stroke-width:26.4;stroke-linecap:round;stroke-linejoin:round;stroke-miterlimit:10;stroke-dasharray:none;stroke-opacity:1"
       transform="translate(-152.08,-400.44006)"
       clip-path="url(#clipPath6)" />
    <path
       id="path7"
       d="M 613.91998,844.47998 H 311.84"
       style="fill:none;stroke:#000000;stroke-width:26.4;stroke-linecap:round;stroke-linejoin:round;stroke-miterlimit:10;stroke-dasharray:none;stroke-opacity:1"
       transform="translate(-152.08,-400.44006)"
       clip-path="url(#clipPath8)" />
    <path
       id="path9"
       d="m 444,655.67999 120.15997,-0.15997"
       style="fill:none;stroke:#000000;stroke-width:26.4;stroke-linecap:round;stroke-linejoin:round;stroke-miterlimit:10;stroke-dasharray:none;stroke-opacity:1"
       transform="translate(-152.08,-400.44006)"
       clip-path="url(#clipPath10)" />
  </g>
</svg>
