<?xml version="1.0" encoding="UTF-8" standalone="no"?>
<!-- Created with Inkscape (http://www.inkscape.org/) -->

<svg
   version="1.1"
   id="svg1"
   width="502.93332"
   height="508.56"
   viewBox="0 0 502.93332 508.56"
   sodipodi:docname="Wood2.pdf"
   xmlns:inkscape="http://www.inkscape.org/namespaces/inkscape"
   xmlns:sodipodi="http://sodipodi.sourceforge.net/DTD/sodipodi-0.dtd"
   xmlns="http://www.w3.org/2000/svg"
   xmlns:svg="http://www.w3.org/2000/svg">
  <defs
     id="defs1">
    <clipPath
       clipPathUnits="userSpaceOnUse"
       id="clipPath2">
      <path
         d="M 0,0.16 V 1122.5601 H 793.59998 V 0.16 Z"
         transform="translate(-170.24001,-636.79999)"
         clip-rule="evenodd"
         id="path2" />
    </clipPath>
    <clipPath
       clipPathUnits="userSpaceOnUse"
       id="clipPath4">
      <path
         d="M 0,0.16 V 1122.5601 H 793.59998 V 0.16 Z"
         transform="translate(-3.3333333e-6)"
         clip-rule="evenodd"
         id="path4" />
    </clipPath>
    <clipPath
       clipPathUnits="userSpaceOnUse"
       id="clipPath6">
      <path
         d="M 0,0.16 V 1122.5601 H 793.59998 V 0.16 Z"
         transform="translate(-3.3333333e-6)"
         clip-rule="evenodd"
         id="path6" />
    </clipPath>
    <clipPath
       clipPathUnits="userSpaceOnUse"
       id="clipPath8">
      <path
         d="M 0,0.16 V 1122.5601 H 793.59998 V 0.16 Z"
         transform="translate(-3.3333333e-6)"
         clip-rule="evenodd"
         id="path8" />
    </clipPath>
    <clipPath
       clipPathUnits="userSpaceOnUse"
       id="clipPath10">
      <path
         d="M 0,0.16 V 1122.5601 H 793.59998 V 0.16 Z"
         transform="translate(-200.32001,-652)"
         clip-rule="evenodd"
         id="path10" />
    </clipPath>
    <clipPath
       clipPathUnits="userSpaceOnUse"
       id="clipPath12">
      <path
         d="M 0,0.16 V 1122.5601 H 793.59998 V 0.16 Z"
         transform="translate(-623.35998,-636.79999)"
         clip-rule="evenodd"
         id="path12" />
    </clipPath>
  </defs>
  <sodipodi:namedview
     id="namedview1"
     pagecolor="#505050"
     bordercolor="#eeeeee"
     borderopacity="1"
     inkscape:showpageshadow="0"
     inkscape:pageopacity="0"
     inkscape:pagecheckerboard="0"
     inkscape:deskcolor="#505050">
    <inkscape:page
       x="0"
       y="0"
       inkscape:label="1"
       id="page1"
       width="502.93332"
       height="508.56"
       margin="0"
       bleed="0" />
  </sodipodi:namedview>
  <g
     id="g1"
     inkscape:groupmode="layer"
     inkscape:label="1">
    <path
       id="path1"
       d="M 0,0 0.32,10.4 0.96,20.959999 2.24,31.360001 4,41.599998 6.08,51.84 8.64,62.080002 11.84,72 15.36,81.919998 19.360001,91.519997 23.84,100.96 l 4.799999,9.28 5.279999,8.96 5.760002,8.8 6.079998,8.48 6.560002,8.32 6.880001,7.84 7.200001,7.52 7.519996,7.2 8,6.88 8.160004,6.56 8.479996,6.08 8.800002,5.76 8.96,5.28 9.28,4.96 9.43999,4.32 9.76001,4 9.76,3.68 10.08,3.04 10.08,2.56 10.24001,2.24 10.39999,1.60001 10.39999,1.28 10.40001,0.63999 10.4,0.32 10.55999,-0.32 10.40001,-0.63999 10.40001,-1.28 10.23999,-1.60001 10.23999,-2.24 10.24002,-2.56 9.91999,-3.04 9.92001,-3.68 9.59998,-4 9.44,-4.32 9.28,-4.96 9.12002,-5.28 8.63999,-5.76 8.64001,-6.08 8.15998,-6.56 7.84002,-6.88 7.67999,-7.2 7.19999,-7.52 6.88,-7.84 6.4,-8.32 6.08001,-8.48 5.76001,-8.8 5.28,-8.96 4.95999,-9.28 4.48001,-9.440003 4,-9.599999 L 441.44,72 444.48001,62.080002 447.20001,51.84 449.28,41.599998 451.04001,31.360001 452.16,20.959999 452.95999,10.4 453.12,0"
       style="fill:none;stroke:#000000;stroke-width:26.4;stroke-linecap:round;stroke-linejoin:round;stroke-miterlimit:10;stroke-dasharray:none;stroke-opacity:1"
       transform="translate(28.826672,255.05326)"
       clip-path="url(#clipPath2)" />
    <path
       id="path3"
       d="M 396.79999,410.23999 239.84,800.15997"
       style="fill:none;stroke:#000000;stroke-width:26.4;stroke-linecap:round;stroke-linejoin:round;stroke-miterlimit:10;stroke-dasharray:none;stroke-opacity:1"
       transform="translate(-141.41333,-381.74673)"
       clip-path="url(#clipPath4)" />
    <path
       id="path5"
       d="M 396.79999,410.23999 554.56,796.32001"
       style="fill:none;stroke:#000000;stroke-width:26.4;stroke-linecap:round;stroke-linejoin:round;stroke-miterlimit:10;stroke-dasharray:none;stroke-opacity:1"
       transform="translate(-141.41333,-381.74673)"
       clip-path="url(#clipPath6)" />
    <path
       id="path7"
       d="M 245.75999,636.79999 H 547.84003"
       style="fill:none;stroke:#000000;stroke-width:26.4;stroke-linecap:round;stroke-linejoin:round;stroke-miterlimit:10;stroke-dasharray:none;stroke-opacity:1"
       transform="translate(-141.41333,-381.74673)"
       clip-path="url(#clipPath8)" />
    <path
       id="path9"
       d="m 0,0 1.76,-1.44 1.6,-1.6 1.28,-1.92 1.12,-1.92 0.96,-2.08 0.64,-2.24 0.32,-2.24 v -2.24 L 7.52,-17.92 7.04,-20.16 6.4,-22.24 5.44,-24.32 4.16,-26.24 2.72,-28 1.12,-29.6 -0.64,-30.879999 -2.56,-32 l -2.08,-0.959999 -2.24,-0.639999 -2.24,-0.32 -2.24,-0.160004 -2.24,0.160004 -2.24,0.479999 -2.08,0.64 -2.08,0.959999 -1.92,1.120001 -1.76,1.439998 -1.600001,1.600001 -1.439998,1.92 -1.120001,1.92 -0.959999,2.08 -0.640002,2.08 L -29.92,-17.440001 -30.08,-15.2"
       style="fill:none;stroke:#000000;stroke-width:26.4;stroke-linecap:round;stroke-linejoin:round;stroke-miterlimit:10;stroke-dasharray:none;stroke-opacity:1"
       transform="translate(58.906674,270.25327)"
       clip-path="url(#clipPath10)" />
    <path
       id="path11"
       d="m 0,0 -0.16,-2.24 -0.32,-2.24 -0.64,-2.08 -0.96,-2.08 -1.12,-2.08 -1.44,-1.76 -1.6,-1.6 L -8,-15.52 -9.92,-16.639999 -12,-17.6 l -2.24,-0.64 -2.08,-0.479999 -2.399999,-0.16 -2.24,0.16 -2.240002,0.319999 -2.08,0.64 -2.08,0.960001 -1.92,1.119999 -1.92,1.44 -1.599998,1.44 -1.440003,1.76 -1.119999,1.92 -0.959999,2.08 -0.799999,2.24 -0.479999,2.08 -0.16,2.4 0.16,2.24 0.319999,2.24 0.64,2.08 0.799999,2.08 1.119999,2.08 1.440002,1.76 1.599999,1.6 1.76,1.44 1.76,1.28"
       style="fill:none;stroke:#000000;stroke-width:26.4;stroke-linecap:round;stroke-linejoin:round;stroke-miterlimit:10;stroke-dasharray:none;stroke-opacity:1"
       transform="translate(481.94665,255.05326)"
       clip-path="url(#clipPath12)" />
  </g>
</svg>
