<?xml version="1.0" encoding="UTF-8" standalone="no"?>
<!-- Created with Inkscape (http://www.inkscape.org/) -->

<svg
   version="1.1"
   id="svg1"
   width="458.90668"
   height="232.25333"
   viewBox="0 0 458.90668 232.25333"
   sodipodi:docname="Albumen2.pdf"
   xmlns:inkscape="http://www.inkscape.org/namespaces/inkscape"
   xmlns:sodipodi="http://sodipodi.sourceforge.net/DTD/sodipodi-0.dtd"
   xmlns="http://www.w3.org/2000/svg"
   xmlns:svg="http://www.w3.org/2000/svg">
  <defs
     id="defs1">
    <clipPath
       clipPathUnits="userSpaceOnUse"
       id="clipPath2">
      <path
         d="M 0,0.16 V 1122.5601 H 793.59998 V 0.16 Z"
         transform="translate(-604.47998,-523.52002)"
         clip-rule="evenodd"
         id="path2" />
    </clipPath>
    <clipPath
       clipPathUnits="userSpaceOnUse"
       id="clipPath4">
      <path
         d="M 0,0.16 V 1122.5601 H 793.59998 V 0.16 Z"
         transform="translate(-283.51999,-561.28003)"
         clip-rule="evenodd"
         id="path4" />
    </clipPath>
    <clipPath
       clipPathUnits="userSpaceOnUse"
       id="clipPath6">
      <path
         d="M 0,0.16 V 1122.5601 H 793.59998 V 0.16 Z"
         transform="translate(-283.51999,-561.28003)"
         clip-rule="evenodd"
         id="path6" />
    </clipPath>
    <clipPath
       clipPathUnits="userSpaceOnUse"
       id="clipPath8">
      <path
         d="M 0,0.16 V 1122.5601 H 793.59998 V 0.16 Z"
         transform="translate(-472.32,-561.28003)"
         clip-rule="evenodd"
         id="path8" />
    </clipPath>
    <clipPath
       clipPathUnits="userSpaceOnUse"
       id="clipPath10">
      <path
         d="M 0,0.16 V 1122.5601 H 793.59998 V 0.16 Z"
         transform="translate(-472.48001,-553.59997)"
         clip-rule="evenodd"
         id="path10" />
    </clipPath>
  </defs>
  <sodipodi:namedview
     id="namedview1"
     pagecolor="#505050"
     bordercolor="#eeeeee"
     borderopacity="1"
     inkscape:showpageshadow="0"
     inkscape:pageopacity="0"
     inkscape:pagecheckerboard="0"
     inkscape:deskcolor="#505050">
    <inkscape:page
       x="0"
       y="0"
       inkscape:label="1"
       id="page1"
       width="458.90668"
       height="232.25333"
       margin="0"
       bleed="0" />
  </sodipodi:namedview>
  <g
     id="g1"
     inkscape:groupmode="layer"
     inkscape:label="1">
    <path
       id="path1"
       d="m 0,0 c 0,-20.85 -16.9,-37.759998 -37.759998,-37.759998 -20.860001,0 -37.759999,16.909998 -37.759999,37.759998 0,20.85 16.899998,37.759998 37.759999,37.759998 C -16.9,37.759998 0,20.85 0,0 Z"
       style="fill:none;stroke:#000000;stroke-width:26.4;stroke-linecap:round;stroke-linejoin:round;stroke-miterlimit:10;stroke-dasharray:none;stroke-opacity:1"
       transform="translate(436.38665,81.706628)"
       clip-path="url(#clipPath2)" />
    <path
       id="path3"
       d="m 0,0 v -6.08 l -0.32,-6.24 -0.48,-6.08 -0.8,-6.08 -0.8,-5.92 -1.12,-5.76 -1.28,-5.599998 -1.44,-5.440003 -1.6,-5.279999 -1.92,-4.959999 -1.92,-4.800003 -2.08,-4.479999 -2.24,-4.159996 -2.4,-4 -2.559999,-3.520005 -2.560001,-3.36 -2.72,-2.879997 -2.880001,-2.559998 L -32,-89.440002 l -2.880001,-1.759995 -3.039997,-1.280006 -3.040001,-1.119995 -3.040001,-0.64 -3.200001,-0.160004 -3.040001,0.160004 -3.039997,0.64 -3.040001,1.119995 -3.040001,1.280006 -2.880001,1.759995 -3.039997,2.240005 -2.720001,2.559998 -2.720001,2.879997 -2.720001,3.36 -2.399994,3.520005 -2.400002,4 -2.240005,4.159996 -2.079995,4.479999 -2.080001,4.800003 L -86.400002,-52.48 -88,-47.200001 l -1.440002,5.440003 -1.279999,5.599998 -1.119995,5.76 -0.960007,5.92 -0.639999,6.08 -0.479996,6.08 -0.32,6.24 -0.160004,6.08"
       style="fill:none;stroke:#000000;stroke-width:26.4;stroke-linecap:round;stroke-linejoin:round;stroke-miterlimit:10;stroke-dasharray:none;stroke-opacity:1"
       transform="translate(115.42666,119.46664)"
       clip-path="url(#clipPath4)" />
    <path
       id="path5"
       d="m 0,0 0.16,6.24 0.32,6.08 0.48,6.08 0.64,6.08 0.96,5.92 1.12,5.76 1.28,5.599998 L 6.4,47.200001 8,52.48 l 1.76,4.959999 2.08,4.800003 2.08,4.479999 2.24,4.32 2.399999,3.839996 2.4,3.680001 2.720001,3.200004 2.72,2.879997 2.720001,2.559998 3.039999,2.240005 2.880001,1.759995 3.040001,1.440002 3.039997,0.959999 3.040001,0.64 3.040001,0.160004 3.200001,-0.160004 3.039997,-0.64 3.040001,-0.959999 3.04,-1.440002 2.880002,-1.759995 2.879997,-2.240005 2.880005,-2.559998 2.719993,-2.879997 2.560005,-3.200004 L 76,74.879997 l 2.400002,-3.839996 2.239997,-4.32 2.080002,-4.479999 1.919998,-4.800003 L 86.559998,52.48 88.160004,47.200001 89.599998,41.759998 90.879997,36.16 92,30.4 l 0.800003,-5.92 0.799995,-6.08 0.480004,-6.08 0.32,-6.08 V 0"
       style="fill:none;stroke:#000000;stroke-width:26.4;stroke-linecap:round;stroke-linejoin:round;stroke-miterlimit:10;stroke-dasharray:none;stroke-opacity:1"
       transform="translate(115.42666,119.46664)"
       clip-path="url(#clipPath6)" />
    <path
       id="path7"
       d="m 0,0 v -6.08 l -0.32,-6.24 -0.48,-6.08 -0.8,-6.08 -0.8,-5.92 -1.12,-5.76 -1.28,-5.599998 -1.44,-5.440003 -1.6,-5.279999 -1.92,-4.959999 -1.92,-4.800003 -2.08,-4.479999 -2.24,-4.159996 -2.4,-4 -2.559999,-3.520005 -2.560001,-3.36 -2.72,-2.879997 -2.880001,-2.559998 L -32,-89.440002 l -2.880001,-1.759995 -3.039997,-1.280006 -3.040001,-1.119995 -3.040001,-0.64 -3.200001,-0.160004 -3.040001,0.160004 -3.039997,0.64 -3.040001,1.119995 -3.040001,1.280006 -3.040001,1.759995 -2.879997,2.240005 -2.720001,2.559998 -2.720001,2.879997 -2.720001,3.36 -2.399994,3.520005 -2.400002,4 -2.240005,4.159996 -2.079995,4.479999 -2.080001,4.800003 L -86.400002,-52.48 -88,-47.200001 l -1.440002,5.440003 -1.279999,5.599998 -1.119995,5.76 -0.960007,5.92 -0.639999,6.08 -0.479996,6.08 -0.32,6.24 -0.160004,6.08"
       style="fill:none;stroke:#000000;stroke-width:26.4;stroke-linecap:round;stroke-linejoin:round;stroke-miterlimit:10;stroke-dasharray:none;stroke-opacity:1"
       transform="translate(304.22667,119.46664)"
       clip-path="url(#clipPath8)" />
    <path
       id="path9"
       d="m 0,0 -0.16,6.08 0.16,6.24 0.16,6.239999 0.48,6.08 0.64,6.08 0.96,5.92 0.96,5.920002 1.28,5.599999 1.44,5.599998 1.6,5.280003 1.76,5.120003 1.92,4.799995 2.08,4.639999 2.24,4.32 2.4,4 2.56,3.68 2.560001,3.360001 2.719999,2.879997 2.879999,2.720002 2.880001,2.240005 2.880002,1.759995 3.039997,1.600002 3.040001,0.96 3.04,0.64 3.200001,0.32 3.039997,-0.16 3.200001,-0.48 L 56,100.48 l 3.040001,-1.439999 2.879997,-1.760002 2.880005,-2.080002 2.879997,-2.559998 2.720002,-2.879997 2.720001,-3.36 2.559997,-3.520005 2.400002,-4 L 80.32,74.720001 82.400002,70.239998 84.480003,65.440002 86.239998,60.32 87.839996,55.200001 89.440002,49.599998 90.720001,44 91.68,38.240002 92.639999,32.32 l 0.800003,-6.08 0.479996,-6.08 0.32,-6.24 V 7.68"
       style="fill:none;stroke:#000000;stroke-width:26.4;stroke-linecap:round;stroke-linejoin:round;stroke-miterlimit:10;stroke-dasharray:none;stroke-opacity:1"
       transform="translate(304.38668,111.78658)"
       clip-path="url(#clipPath10)" />
  </g>
</svg>
