<?xml version="1.0" encoding="UTF-8" standalone="no"?>
<!-- Created with Inkscape (http://www.inkscape.org/) -->

<svg
   version="1.1"
   id="svg1"
   width="196.10667"
   height="234.92"
   viewBox="0 0 196.10667 234.92"
   sodipodi:docname="Albumen8.pdf"
   xmlns:inkscape="http://www.inkscape.org/namespaces/inkscape"
   xmlns:sodipodi="http://sodipodi.sourceforge.net/DTD/sodipodi-0.dtd"
   xmlns="http://www.w3.org/2000/svg"
   xmlns:svg="http://www.w3.org/2000/svg">
  <defs
     id="defs1">
    <clipPath
       clipPathUnits="userSpaceOnUse"
       id="clipPath2">
      <path
         d="M 0,0.16 V 1122.5601 H 793.59998 V 0.16 Z"
         transform="translate(-434.56,-561.28003)"
         clip-rule="evenodd"
         id="path2" />
    </clipPath>
    <clipPath
       clipPathUnits="userSpaceOnUse"
       id="clipPath4">
      <path
         d="M 0,0.16 V 1122.5601 H 793.59998 V 0.16 Z"
         transform="translate(-377.92001,-485.76001)"
         clip-rule="evenodd"
         id="path4" />
    </clipPath>
    <clipPath
       clipPathUnits="userSpaceOnUse"
       id="clipPath6">
      <path
         d="M 0,0.16 V 1122.5601 H 793.59998 V 0.16 Z"
         transform="translate(-472.32001,-410.23999)"
         clip-rule="evenodd"
         id="path6" />
    </clipPath>
    <clipPath
       clipPathUnits="userSpaceOnUse"
       id="clipPath8">
      <path
         d="M 0,0.16 V 1122.5601 H 793.59998 V 0.16 Z"
         transform="translate(-377.92001,-485.76001)"
         clip-rule="evenodd"
         id="path8" />
    </clipPath>
  </defs>
  <sodipodi:namedview
     id="namedview1"
     pagecolor="#505050"
     bordercolor="#eeeeee"
     borderopacity="1"
     inkscape:showpageshadow="0"
     inkscape:pageopacity="0"
     inkscape:pagecheckerboard="0"
     inkscape:deskcolor="#505050">
    <inkscape:page
       x="0"
       y="0"
       inkscape:label="1"
       id="page1"
       width="196.10667"
       height="234.92"
       margin="0"
       bleed="0" />
  </sodipodi:namedview>
  <g
     id="g1"
     inkscape:groupmode="layer"
     inkscape:label="1">
    <path
       id="path1"
       d="m 0,0 c 0,-20.85 -16.9,-37.759998 -37.759998,-37.759998 -20.860001,0 -37.759999,16.909998 -37.759999,37.759998 0,20.85 16.899998,37.759998 37.759999,37.759998 C -16.9,37.759998 0,20.85 0,0 Z"
       style="fill:none;stroke:#000000;stroke-width:26.4;stroke-linecap:round;stroke-linejoin:round;stroke-miterlimit:10;stroke-dasharray:none;stroke-opacity:1"
       transform="translate(434.56,674.7333)"
       clip-path="url(#clipPath2)" />
    <path
       id="path3"
       d="M 0,0 -0.96,-6.08 -2.4,-12 l -1.76,-5.92 -2.08,-5.92 -2.56,-5.600001 -2.88,-5.44 -3.2,-5.279999 -3.52,-4.959999 -3.84,-4.799999 -4.16,-4.640003 -4.479999,-4.32 -4.640001,-3.84 -4.96,-3.680001 -5.119998,-3.36 -5.440003,-3.040001 -5.599998,-2.719994"
       style="fill:none;stroke:#000000;stroke-width:26.4;stroke-linecap:round;stroke-linejoin:round;stroke-miterlimit:10;stroke-dasharray:none;stroke-opacity:1"
       transform="translate(377.92001,599.21328)"
       clip-path="url(#clipPath4)" />
    <path
       id="path5"
       d="m 0,0 -5.44,2.72 -5.44,3.04 -5.12,3.36 -4.959999,3.68 -4.800001,3.839999 -4.48,4.32 -4.160002,4.640001 -3.84,4.8 -3.519996,4.960001 -3.200001,5.279998 L -47.84,46.080002 -50.240002,51.68 -52.48,57.599998 -54.240002,63.52 -55.52,69.440002 l -1.119999,6.079995"
       style="fill:none;stroke:#000000;stroke-width:26.4;stroke-linecap:round;stroke-linejoin:round;stroke-miterlimit:10;stroke-dasharray:none;stroke-opacity:1"
       transform="translate(472.32001,523.69326)"
       clip-path="url(#clipPath6)" />
    <path
       id="path7"
       d="m 0,0 0.96,3.68 1.44,5.28 1.44,4.96 1.44,4.32 1.6,4 1.44,3.52 1.44,3.039999 1.44,2.560002 1.44,2.239997 1.44,1.760003 1.44,1.279998 1.439999,0.8 L 18.4,37.759998 h 1.44 L 21.280001,37.119999 22.879999,36.16 24.32,34.720001 l 1.44,-1.760002 1.440001,-2.4 L 28.639999,27.84 30.08,24.639999 l 1.44,-3.68 1.439999,-4.16 L 34.400002,12.32 35.84,7.36 37.279999,1.92 37.759998,0"
       style="fill:none;stroke:#000000;stroke-width:26.4;stroke-linecap:round;stroke-linejoin:round;stroke-miterlimit:10;stroke-dasharray:none;stroke-opacity:1"
       transform="translate(377.92001,599.21328)"
       clip-path="url(#clipPath8)" />
  </g>
</svg>
