<?xml version="1.0" encoding="UTF-8" standalone="no"?>
<!-- Created with Inkscape (http://www.inkscape.org/) -->

<svg
   version="1.1"
   id="svg1"
   width="268.13333"
   height="264.29333"
   viewBox="0 0 268.13333 264.29333"
   sodipodi:docname="Albumen5.pdf"
   xmlns:inkscape="http://www.inkscape.org/namespaces/inkscape"
   xmlns:sodipodi="http://sodipodi.sourceforge.net/DTD/sodipodi-0.dtd"
   xmlns="http://www.w3.org/2000/svg"
   xmlns:svg="http://www.w3.org/2000/svg">
  <defs
     id="defs1">
    <clipPath
       clipPathUnits="userSpaceOnUse"
       id="clipPath2">
      <path
         d="M 0,0.16 V 1122.5601 H 793.59998 V 0.16 Z"
         transform="translate(-510.07999,-561.28003)"
         clip-rule="evenodd"
         id="path2" />
    </clipPath>
    <clipPath
       clipPathUnits="userSpaceOnUse"
       id="clipPath4">
      <path
         d="M 0,0.16 V 1122.5601 H 793.59998 V 0.16 Z"
         transform="translate(-502.88001,-597.28003)"
         clip-rule="evenodd"
         id="path4" />
    </clipPath>
    <clipPath
       clipPathUnits="userSpaceOnUse"
       id="clipPath6">
      <path
         d="M 0,0.16 V 1122.5601 H 793.59998 V 0.16 Z"
         transform="translate(-434.4,-455.84)"
         clip-rule="evenodd"
         id="path6" />
    </clipPath>
  </defs>
  <sodipodi:namedview
     id="namedview1"
     pagecolor="#505050"
     bordercolor="#eeeeee"
     borderopacity="1"
     inkscape:showpageshadow="0"
     inkscape:pageopacity="0"
     inkscape:pagecheckerboard="0"
     inkscape:deskcolor="#505050">
    <inkscape:page
       x="0"
       y="0"
       inkscape:label="1"
       id="page1"
       width="268.13333"
       height="264.29333"
       margin="0"
       bleed="0" />
  </sodipodi:namedview>
  <g
     id="g1"
     inkscape:groupmode="layer"
     inkscape:label="1">
    <path
       id="path1"
       d="m 0,0 c 0,-62.560001 -50.709999,-113.28 -113.28,-113.28 -62.57001,0 -113.28,50.719999 -113.28,113.28 0,62.560001 50.70999,113.28 113.28,113.28 C -50.709999,113.28 0,62.560001 0,0 Z"
       style="fill:none;stroke:#000000;stroke-width:26.4;stroke-linecap:round;stroke-linejoin:round;stroke-miterlimit:10;stroke-dasharray:none;stroke-opacity:1"
       transform="translate(245.93332,134.14664)"
       clip-path="url(#clipPath2)" />
    <path
       id="path3"
       d="m 0,0 -7.04,-5.28 -7.2,-4.96 -7.52,-4.48 -7.84,-3.999999 -7.839999,-3.680001 -8.159999,-3.2 -8.32,-2.88 -8.480004,-2.399999 -8.479995,-1.92 -8.64,-1.440003 -8.640007,-1.119999 L -96.959999,-35.84 -105.76,-36 l -8.64,0.32 -8.8,0.799999 -8.64,1.280003 -8.64,1.759998 -8.48001,2.08 -8.31999,2.719999 -8.16,3.040001 -8,3.360001 -8,4 -7.52001,4.159999 -7.51999,4.8 -7.04,4.96 -6.87999,5.44"
       style="fill:none;stroke:#000000;stroke-width:26.4;stroke-linecap:round;stroke-linejoin:round;stroke-miterlimit:10;stroke-dasharray:none;stroke-opacity:1"
       transform="translate(238.73334,170.14664)"
       clip-path="url(#clipPath4)" />
    <path
       id="path5"
       d="m 0,0 -5.28,6.56 -4.8,6.88 -4.48,7.199999 L -18.719999,28 l -3.84,7.52 -3.360001,7.840001 -2.879999,7.84 -2.560002,8.16 -2.079998,8.159996 -1.760002,8.319999 -1.119999,8.320008 -0.799999,8.479995 -0.479999,8.480001 0.159999,8.48 0.48,8.32 0.959999,8.48 1.439999,8.32 1.920002,8.31999 L -30.4,151.2 l 2.72,8 3.040001,7.83999 3.519998,7.68001 4,7.52 4.320001,7.2 4.64,7.04 5.12,6.88 5.28,6.56"
       style="fill:none;stroke:#000000;stroke-width:26.4;stroke-linecap:round;stroke-linejoin:round;stroke-miterlimit:10;stroke-dasharray:none;stroke-opacity:1"
       transform="translate(170.25333,28.706604)"
       clip-path="url(#clipPath6)" />
  </g>
</svg>
