<?xml version="1.0" encoding="UTF-8" standalone="no"?>
<!-- Created with Inkscape (http://www.inkscape.org/) -->

<svg
   version="1.1"
   id="svg1"
   width="249.46667"
   height="311"
   viewBox="0 0 249.46667 311"
   sodipodi:docname="BirdsEgg.pdf"
   xmlns:inkscape="http://www.inkscape.org/namespaces/inkscape"
   xmlns:sodipodi="http://sodipodi.sourceforge.net/DTD/sodipodi-0.dtd"
   xmlns="http://www.w3.org/2000/svg"
   xmlns:svg="http://www.w3.org/2000/svg">
  <defs
     id="defs1">
    <clipPath
       clipPathUnits="userSpaceOnUse"
       id="clipPath2">
      <path
         d="M 0,0.16 V 1122.5601 H 793.59998 V 0.16 Z"
         transform="translate(-472.32,-561.28003)"
         clip-rule="evenodd"
         id="path2" />
    </clipPath>
    <clipPath
       clipPathUnits="userSpaceOnUse"
       id="clipPath4">
      <path
         d="M 0,0.16 V 1122.5601 H 793.59998 V 0.16 Z"
         transform="translate(-472.32,-372.48001)"
         clip-rule="evenodd"
         id="path4" />
    </clipPath>
    <clipPath
       clipPathUnits="userSpaceOnUse"
       id="clipPath6">
      <path
         d="M 0,0.16 V 1122.5601 H 793.59998 V 0.16 Z"
         transform="translate(-472.32,-429.12)"
         clip-rule="evenodd"
         id="path6" />
    </clipPath>
  </defs>
  <sodipodi:namedview
     id="namedview1"
     pagecolor="#505050"
     bordercolor="#eeeeee"
     borderopacity="1"
     inkscape:showpageshadow="0"
     inkscape:pageopacity="0"
     inkscape:pagecheckerboard="0"
     inkscape:deskcolor="#505050">
    <inkscape:page
       x="0"
       y="0"
       inkscape:label="1"
       id="page1"
       width="249.46667"
       height="311"
       margin="0"
       bleed="0" />
  </sodipodi:namedview>
  <g
     id="g1"
     inkscape:groupmode="layer"
     inkscape:label="1">
    <path
       id="path1"
       d="m 0,0 c 0,-41.700001 -33.810001,-75.519997 -75.519997,-75.519997 -41.710003,0 -75.519993,33.819996 -75.519993,75.519997 0,41.700001 33.80999,75.519997 75.519993,75.519997 C -33.810001,75.519997 0,41.700001 0,0 Z"
       style="fill:none;stroke:#000000;stroke-width:26.4;stroke-linecap:round;stroke-linejoin:round;stroke-miterlimit:10;stroke-dasharray:none;stroke-opacity:1"
       transform="translate(178.82667,212.8933)"
       clip-path="url(#clipPath2)" />
    <path
       id="path3"
       d="m 0,0 -9.12,2.72 -9.12,3.04 -8.960001,3.36 -8.799999,4 -8.639999,4.320001 -8.32,4.639999 -8.16,5.120001 -7.84,5.599998 -7.520004,5.920002 -7.359993,6.079998 -7.040001,6.720001 -6.720001,6.880002 -6.240002,7.199996 -6.08,7.360001 -5.6,7.840004 -5.28,8 -4.8,8.32 -4.48,8.479997 -4.16,8.8 -3.51999,8.8 -3.20002,9.12001 -2.87999,9.11999 -2.24,9.28 -1.92,9.44 -1.44,9.59999 -0.95999,9.44001 -0.64,9.6"
       style="fill:none;stroke:#000000;stroke-width:26.4;stroke-linecap:round;stroke-linejoin:round;stroke-miterlimit:10;stroke-dasharray:none;stroke-opacity:1"
       transform="translate(178.82667,24.093286)"
       clip-path="url(#clipPath4)" />
    <path
       id="path5"
       d="m 0,0 3.04,0.8 3.2,0.64 3.04,0.16 3.2,-0.16 3.04,-0.48 3.039999,-0.8 2.880002,-1.12 L 24.32,-2.4 26.879999,-4 29.440001,-6.08 31.68,-8.32 l 1.919998,-2.4 1.760003,-2.56 1.439998,-2.88 1.119999,-2.880001 0.800003,-3.039999 0.48,-3.040001 0.16,-3.199999 -0.16,-3.040001 -0.48,-3.2 -0.800003,-3.039997 L 36.799999,-40.48 35.360001,-43.200001 33.599998,-45.919998 31.68,-48.32 29.440001,-50.560001 26.879999,-52.48 24.32,-54.240002 21.440001,-55.68 18.559999,-56.799999 15.52,-57.599998 l -3.04,-0.32 -3.2,-0.160004 -3.04,0.160004 -3.2,0.479999 -3.04,0.8"
       style="fill:none;stroke:#000000;stroke-width:26.4;stroke-linecap:round;stroke-linejoin:round;stroke-miterlimit:10;stroke-dasharray:none;stroke-opacity:1"
       transform="translate(178.82667,80.73327)"
       clip-path="url(#clipPath6)" />
  </g>
</svg>
