<?xml version="1.0" encoding="UTF-8" standalone="no"?>
<!-- Created with Inkscape (http://www.inkscape.org/) -->

<svg
   version="1.1"
   id="svg1"
   width="437.57333"
   height="274.95999"
   viewBox="0 0 437.57333 274.95999"
   sodipodi:docname="BirdsEgg3.pdf"
   xmlns:inkscape="http://www.inkscape.org/namespaces/inkscape"
   xmlns:sodipodi="http://sodipodi.sourceforge.net/DTD/sodipodi-0.dtd"
   xmlns="http://www.w3.org/2000/svg"
   xmlns:svg="http://www.w3.org/2000/svg">
  <defs
     id="defs1">
    <clipPath
       clipPathUnits="userSpaceOnUse"
       id="clipPath2">
      <path
         d="M 0,0.16 V 1122.5601 H 793.59998 V 0.16 Z"
         transform="translate(-585.59998,-561.28003)"
         clip-rule="evenodd"
         id="path2" />
    </clipPath>
    <clipPath
       clipPathUnits="userSpaceOnUse"
       id="clipPath4">
      <path
         d="M 0,0.16 V 1122.5601 H 793.59998 V 0.16 Z"
         transform="translate(-575.67999,-561.28003)"
         clip-rule="evenodd"
         id="path4" />
    </clipPath>
    <clipPath
       clipPathUnits="userSpaceOnUse"
       id="clipPath6">
      <path
         d="M 0,0.16 V 1122.5601 H 793.59998 V 0.16 Z"
         transform="translate(-575.67999,-561.28003)"
         clip-rule="evenodd"
         id="path6" />
    </clipPath>
  </defs>
  <sodipodi:namedview
     id="namedview1"
     pagecolor="#505050"
     bordercolor="#eeeeee"
     borderopacity="1"
     inkscape:showpageshadow="0"
     inkscape:pageopacity="0"
     inkscape:pagecheckerboard="0"
     inkscape:deskcolor="#505050">
    <inkscape:page
       x="0"
       y="0"
       inkscape:label="1"
       id="page1"
       width="437.57333"
       height="274.95999"
       margin="0"
       bleed="0" />
  </sodipodi:namedview>
  <g
     id="g1"
     inkscape:groupmode="layer"
     inkscape:label="1">
    <path
       id="path1"
       d="m 0,0 c 0,-62.560001 -84.519997,-113.28 -188.8,-113.28 -104.27999,0 -188.80001,50.719999 -188.80001,113.28 0,62.560001 84.52002,113.28 188.80001,113.28 C -84.519997,113.28 0,62.560001 0,0 Z"
       style="fill:none;stroke:#000000;stroke-width:26.4;stroke-linecap:round;stroke-linejoin:round;stroke-miterlimit:10;stroke-dasharray:none;stroke-opacity:1"
       transform="translate(585.59998,562.6133)"
       clip-path="url(#clipPath2)" />
    <path
       id="path3"
       d="M 0,0 -0.16,-4.48 -0.32,-8.8 -0.8,-13.28 -1.44,-17.440001 -2.08,-21.6 l -0.96,-4.16 -1.12,-3.84 -1.12,-3.679999 -1.44,-3.52 L -8.16,-40 l -1.6,-3.040001 -1.76,-2.719997 -1.76,-2.560002 -1.92,-2.080002 -1.920001,-1.919998 -2.08,-1.599998 -2.08,-1.120003 L -23.52,-55.84 l -2.08,-0.64 -2.24,-0.159999 -2.08,0.159999 -2.24,0.64 -2.080002,0.799999 L -36.32,-53.919998 -38.400002,-52.32 -40.48,-50.400002 -42.240002,-48.32 -44.16,-45.759998 -45.759998,-43.040001 -47.360001,-40 l -1.599998,3.200001 -1.280003,3.52 L -51.52,-29.6 l -0.96,3.84 -0.959999,4.16 -0.800003,4.159999 -0.479999,4.160001 -0.48,4.48 L -55.52,-4.48 V 0 4.48 l 0.319999,4.48 0.48,4.32 0.479999,4.32 0.800003,4.16 0.959999,4 0.96,3.84 1.279998,3.679999 1.280003,3.52 L -47.360001,40 -45.759998,43.040001 -44.16,45.759998 -42.240002,48.32 -40.48,50.560001 -38.400002,52.32 -36.32,53.919998 -34.240002,55.040001 -32.16,56 l 2.24,0.48 2.08,0.159999 2.24,-0.159999 2.08,-0.48 2.239999,-0.959999 2.08,-1.120003 2.08,-1.599998 L -15.2,50.560001 -13.28,48.32 -11.52,45.759998 -9.76,43.040001 -8.16,40 l 1.44,-3.200001 1.44,-3.52 1.12,-3.679999 1.12,-3.84 0.96,-4 L -1.44,17.6 -0.8,13.28 -0.32,8.96 -0.16,4.48 0,0 v 0 z"
       style="fill:#000000;fill-opacity:1;fill-rule:evenodd;stroke:none"
       transform="translate(575.67999,562.6133)"
       clip-path="url(#clipPath4)" />
    <path
       id="path5"
       d="M 0,0 -0.16,-4.48 -0.32,-8.8 -0.8,-13.28 -1.44,-17.440001 -2.08,-21.6 l -0.96,-4.16 -1.12,-3.84 -1.12,-3.679999 -1.44,-3.52 L -8.16,-40 l -1.6,-3.040001 -1.76,-2.719997 -1.76,-2.560002 -1.92,-2.080002 -1.920001,-1.919998 -2.08,-1.599998 -2.08,-1.120003 L -23.52,-55.84 l -2.08,-0.64 -2.24,-0.159999 -2.08,0.159999 -2.24,0.64 -2.080002,0.799999 L -36.32,-53.919998 -38.400002,-52.32 -40.48,-50.400002 -42.240002,-48.32 -44.16,-45.759998 -45.759998,-43.040001 -47.360001,-40 l -1.599998,3.200001 -1.280003,3.52 L -51.52,-29.6 l -0.96,3.84 -0.959999,4.16 -0.800003,4.159999 -0.479999,4.160001 -0.48,4.48 L -55.52,-4.48 V 0 4.48 l 0.319999,4.48 0.48,4.32 0.479999,4.32 0.800003,4.16 0.959999,4 0.96,3.84 1.279998,3.679999 1.280003,3.52 L -47.360001,40 -45.759998,43.040001 -44.16,45.759998 -42.240002,48.32 -40.48,50.560001 -38.400002,52.32 -36.32,53.919998 -34.240002,55.040001 -32.16,56 l 2.24,0.48 2.08,0.159999 2.24,-0.159999 2.08,-0.48 2.239999,-0.959999 2.08,-1.120003 2.08,-1.599998 L -15.2,50.560001 -13.28,48.32 -11.52,45.759998 -9.76,43.040001 -8.16,40 l 1.44,-3.200001 1.44,-3.52 1.12,-3.679999 1.12,-3.84 0.96,-4 L -1.44,17.6 -0.8,13.28 -0.32,8.96 -0.16,4.48 0,0"
       style="fill:none;stroke:#000000;stroke-width:26.4;stroke-linecap:round;stroke-linejoin:round;stroke-miterlimit:10;stroke-dasharray:none;stroke-opacity:1"
       transform="translate(575.67999,562.6133)"
       clip-path="url(#clipPath6)" />
  </g>
</svg>
