<?xml version="1.0" encoding="UTF-8" standalone="no"?>
<!-- Created with Inkscape (http://www.inkscape.org/) -->

<svg
   version="1.1"
   id="svg1"
   width="437.57333"
   height="501.88"
   viewBox="0 0 437.57333 501.88"
   sodipodi:docname="CoralWhite.pdf"
   xmlns:inkscape="http://www.inkscape.org/namespaces/inkscape"
   xmlns:sodipodi="http://sodipodi.sourceforge.net/DTD/sodipodi-0.dtd"
   xmlns="http://www.w3.org/2000/svg"
   xmlns:svg="http://www.w3.org/2000/svg">
  <defs
     id="defs1">
    <clipPath
       clipPathUnits="userSpaceOnUse"
       id="clipPath2">
      <path
         d="M 0,0.16 V 1122.5601 H 793.59998 V 0.16 Z"
         clip-rule="evenodd"
         id="path2" />
    </clipPath>
    <clipPath
       clipPathUnits="userSpaceOnUse"
       id="clipPath4">
      <path
         d="M 0,0.16 V 1122.5601 H 793.59998 V 0.16 Z"
         transform="translate(-208,-334.72)"
         clip-rule="evenodd"
         id="path4" />
    </clipPath>
    <clipPath
       clipPathUnits="userSpaceOnUse"
       id="clipPath6">
      <path
         d="M 0,0.16 V 1122.5601 H 793.59998 V 0.16 Z"
         transform="translate(-585.59998,-787.84002)"
         clip-rule="evenodd"
         id="path6" />
    </clipPath>
  </defs>
  <sodipodi:namedview
     id="namedview1"
     pagecolor="#505050"
     bordercolor="#eeeeee"
     borderopacity="1"
     inkscape:showpageshadow="0"
     inkscape:pageopacity="0"
     inkscape:pagecheckerboard="0"
     inkscape:deskcolor="#505050">
    <inkscape:page
       x="0"
       y="0"
       inkscape:label="1"
       id="page1"
       width="437.57333"
       height="501.88"
       margin="0"
       bleed="0" />
  </sodipodi:namedview>
  <g
     id="g1"
     inkscape:groupmode="layer"
     inkscape:label="1">
    <path
       id="path1"
       d="M 396.79999,334.72 V 787.84003"
       style="fill:none;stroke:#000000;stroke-width:26.4;stroke-linecap:round;stroke-linejoin:round;stroke-miterlimit:10;stroke-dasharray:none;stroke-opacity:1"
       transform="translate(0,-4.013392)"
       clip-path="url(#clipPath2)" />
    <path
       id="path3"
       d="m 0,0 0.32,9.28 0.64,9.279999 1.12,9.120001 1.6,9.119999 2.08,9.119999 2.4,8.960003 2.88,8.799999 3.36,8.64 3.84,8.480003 4.16,8.159996 4.479999,8.160004 L 31.84,104.96 l 5.439999,7.52 5.600002,7.36 6.079998,7.04 6.400002,6.72001 6.720001,6.23999 7.040001,6.08 7.199997,5.75999 7.68,5.28002 7.839996,4.95999 8,4.64 8.320004,4.16 8.48,3.67999 8.64,3.36 8.8,2.88001 8.95999,2.56 8.96001,1.91999 9.11999,1.60001 9.28,1.12 9.12001,0.8 9.28,0.16 9.28,-0.16 9.28,-0.8 9.12,-1.12 9.27999,-1.60001 8.96001,-1.91999 8.95999,-2.56 8.80001,-2.88001 8.64,-3.36 8.48001,-3.67999 8.32,-4.16 8,-4.64 7.84,-4.95999 7.51999,-5.28002 7.36001,-5.75999 7.03998,-6.08 6.72,-6.23999 6.4,-6.72001 5.92001,-7.04 5.76001,-7.36 5.28,-7.52 4.95999,-7.839997 4.63999,-8.160004 4.16,-8.159996 3.68002,-8.480003 3.35999,-8.64 2.88,-8.799999 2.56,-8.960003 2.07999,-9.119999 1.44,-9.119999 1.28,-9.120001 L 377.44,9.28 377.60001,0"
       style="fill:none;stroke:#000000;stroke-width:26.4;stroke-linecap:round;stroke-linejoin:round;stroke-miterlimit:10;stroke-dasharray:none;stroke-opacity:1"
       transform="translate(208,330.70661)"
       clip-path="url(#clipPath4)" />
    <path
       id="path5"
       d="M 0,0 -0.16,-9.28 -0.8,-18.559999 -2.08,-27.68 l -1.44,-9.119999 -2.08,-9.119999 -2.56,-8.800003 -2.88,-8.799999 -3.36,-8.8 -3.68,-8.319999 -4.16,-8.32 -4.639999,-8.160004 L -31.84,-104.8 l -5.279999,-7.68 -5.760002,-7.36 -5.919998,-6.88 -6.400002,-6.72 -6.719997,-6.4 -7.040001,-6.08 -7.360001,-5.75999 -7.519996,-5.28002 -7.840004,-4.95999 -8,-4.64 -8.32,-4.16 -8.48,-3.67999 -8.64,-3.36 -8.8,-2.88001 -8.96,-2.56 -8.96,-1.91999 -9.27999,-1.60001 -9.12001,-1.12 -9.28,-0.64 -9.28,-0.32 -9.28,0.32 -9.12,0.64 -9.28,1.12 -9.12001,1.60001 -8.95999,1.91999 -8.96,2.56 -8.80001,2.88001 -8.63998,3.36 -8.48001,3.67999 -8.32001,4.16 -8,4.64 -7.84,4.95999 -7.67999,5.28002 -7.20001,5.75999 -7.03998,6.08 -6.72,6.4 -6.40002,6.72 -6.07999,6.88 -5.60001,7.36 -5.44,7.68 -4.95999,7.679997 -4.48001,8.160004 -4.15998,8.32 -3.84002,8.319999 -3.35999,8.8 -2.88,8.799999 -2.4,8.800003 -2.08001,9.119999 -1.59998,9.119999 -1.12002,9.120001 L -377.28,-9.28 -377.60001,0"
       style="fill:none;stroke:#000000;stroke-width:26.4;stroke-linecap:round;stroke-linejoin:round;stroke-miterlimit:10;stroke-dasharray:none;stroke-opacity:1"
       transform="translate(585.59998,783.82663)"
       clip-path="url(#clipPath6)" />
  </g>
</svg>
