<?xml version="1.0" encoding="UTF-8" standalone="no"?>
<!-- Created with Inkscape (http://www.inkscape.org/) -->

<svg
   version="1.1"
   id="svg1"
   width="509.60001"
   height="580.64001"
   viewBox="0 0 509.60001 580.64001"
   sodipodi:docname="EggShell5.pdf"
   xmlns:inkscape="http://www.inkscape.org/namespaces/inkscape"
   xmlns:sodipodi="http://sodipodi.sourceforge.net/DTD/sodipodi-0.dtd"
   xmlns="http://www.w3.org/2000/svg"
   xmlns:svg="http://www.w3.org/2000/svg">
  <defs
     id="defs1">
    <clipPath
       clipPathUnits="userSpaceOnUse"
       id="clipPath2">
      <path
         d="M 0,0.16 V 1122.5601 H 793.59998 V 0.16 Z"
         transform="translate(3.3333333e-6)"
         clip-rule="evenodd"
         id="path2" />
    </clipPath>
    <clipPath
       clipPathUnits="userSpaceOnUse"
       id="clipPath4">
      <path
         d="M 0,0.16 V 1122.5601 H 793.59998 V 0.16 Z"
         transform="translate(3.3333333e-6)"
         clip-rule="evenodd"
         id="path4" />
    </clipPath>
    <clipPath
       clipPathUnits="userSpaceOnUse"
       id="clipPath6">
      <path
         d="M 0,0.16 V 1122.5601 H 793.59998 V 0.16 Z"
         transform="translate(-623.68,-372.48001)"
         clip-rule="evenodd"
         id="path6" />
    </clipPath>
  </defs>
  <sodipodi:namedview
     id="namedview1"
     pagecolor="#505050"
     bordercolor="#eeeeee"
     borderopacity="1"
     inkscape:showpageshadow="0"
     inkscape:pageopacity="0"
     inkscape:pagecheckerboard="0"
     inkscape:deskcolor="#505050">
    <inkscape:page
       x="0"
       y="0"
       inkscape:label="1"
       id="page1"
       width="509.60001"
       height="580.64001"
       margin="0"
       bleed="0" />
  </sodipodi:namedview>
  <g
     id="g1"
     inkscape:groupmode="layer"
     inkscape:label="1">
    <path
       id="path1"
       d="M 170.56,523.52002 H 623.67999 V 825.59998 H 170.56 V 523.52002"
       style="fill:none;stroke:#000000;stroke-width:26.4;stroke-linecap:round;stroke-linejoin:round;stroke-miterlimit:10;stroke-dasharray:none;stroke-opacity:1"
       transform="translate(-142.74667,-270.96006)"
       clip-path="url(#clipPath2)" />
    <path
       id="path3"
       d="M 623.67999,523.52002 V 372.48001"
       style="fill:none;stroke:#000000;stroke-width:26.4;stroke-linecap:round;stroke-linejoin:round;stroke-miterlimit:10;stroke-dasharray:none;stroke-opacity:1"
       transform="translate(-142.74667,-270.96006)"
       clip-path="url(#clipPath4)" />
    <path
       id="path5"
       d="M 0,0 -0.16,-5.44 -0.8,-10.72 -1.76,-16 -3.04,-21.280001 -4.8,-26.4 -6.88,-31.360001 -9.28,-36.16 -12,-40.799999 l -3.04,-4.48 -3.36,-4.16 -3.68,-4 -4,-3.68 -4.16,-3.360001 -4.320001,-3.04 -4.64,-2.719998 L -44,-68.639999 l -4.959999,-2.080002 -5.120003,-1.760002 -5.279999,-1.279999 -5.279998,-0.959999 -5.279999,-0.64 -5.440003,-0.159996 -5.279998,0.159996 -5.440003,0.480004 -5.279999,0.959999 -5.279998,1.279999 -5.120001,1.760002 -4.96,2.079994 -4.8,2.400001 -4.64,2.720002 -4.48,3.040001 -4.16,3.36 -4,3.680001 -3.68,3.84 -3.36,4.16 -3.04,4.479999 -2.72001,4.639999 -2.55999,4.8 -2.08,4.960001 -1.6,5.119999 -1.44,5.12 -0.96,5.28 -0.64,5.44 -0.15999,5.28"
       style="fill:none;stroke:#000000;stroke-width:26.4;stroke-linecap:round;stroke-linejoin:round;stroke-miterlimit:10;stroke-dasharray:none;stroke-opacity:1"
       transform="translate(480.93333,101.51995)"
       clip-path="url(#clipPath6)" />
  </g>
</svg>
