<?xml version="1.0" encoding="UTF-8" standalone="no"?>
<!-- Created with Inkscape (http://www.inkscape.org/) -->

<svg
   version="1.1"
   id="svg1"
   width="394.88"
   height="352.38666"
   viewBox="0 0 394.88 352.38666"
   sodipodi:docname="Hartshorn.pdf"
   xmlns:inkscape="http://www.inkscape.org/namespaces/inkscape"
   xmlns:sodipodi="http://sodipodi.sourceforge.net/DTD/sodipodi-0.dtd"
   xmlns="http://www.w3.org/2000/svg"
   xmlns:svg="http://www.w3.org/2000/svg">
  <defs
     id="defs1">
    <clipPath
       clipPathUnits="userSpaceOnUse"
       id="clipPath2">
      <path
         d="M 0,0.16 V 1122.5601 H 793.59998 V 0.16 Z"
         transform="translate(-368.95999,-456.48001)"
         clip-rule="evenodd"
         id="path2" />
    </clipPath>
    <clipPath
       clipPathUnits="userSpaceOnUse"
       id="clipPath4">
      <path
         d="M 0,0.16 V 1122.5601 H 793.59998 V 0.16 Z"
         transform="translate(-555.52002,-456.48001)"
         clip-rule="evenodd"
         id="path4" />
    </clipPath>
  </defs>
  <sodipodi:namedview
     id="namedview1"
     pagecolor="#505050"
     bordercolor="#eeeeee"
     borderopacity="1"
     inkscape:showpageshadow="0"
     inkscape:pageopacity="0"
     inkscape:pagecheckerboard="0"
     inkscape:deskcolor="#505050">
    <inkscape:page
       x="0"
       y="0"
       inkscape:label="1"
       id="page1"
       width="394.88"
       height="352.38666"
       margin="0"
       bleed="0" />
  </sodipodi:namedview>
  <g
     id="g1"
     inkscape:groupmode="layer"
     inkscape:label="1">
    <path
       id="path1"
       d="m 0,0 -3.2,-5.76 -3.36,-5.44 -3.52,-5.12 -3.68,-4.639999 -3.84,-4.480002 -4,-4 -4.16,-3.519998 -4.16,-3.200001 -4.160002,-2.720001 -4.32,-2.399998 -4.479999,-1.760002 -4.48,-1.599998 -4.479999,-0.959999 -4.48,-0.480004 -4.479999,-0.16 -4.48,0.320004 -4.639999,0.799999 -4.480004,1.119999 -4.319999,1.759998 -4.479996,2.080002 -4.160004,2.400002 -4.319999,3.039997 -4.159996,3.36 -4,3.680001 -3.840004,4.16 -3.84,4.479999 -3.52,4.960001 -3.52,5.28 -3.36,5.6 -3.2,5.92 -2.88,6.08 -2.88,6.56 -2.56,6.72 -2.23999,7.040001 -2.24001,7.199999 -1.92,7.36 -1.76001,7.680001 -1.43998,7.84 -1.28002,7.84 -0.95999,8 -0.8,8.159996 -0.48,8.160004 -0.32,8.159996 V 107.68 l 0.16,8.32 0.48,8.16 0.63999,8 0.96001,8.16001 1.28,7.83999 1.44,7.84 1.59999,7.67999 1.92002,7.52001 2.07998,7.19999 2.24001,7.04001 2.56,6.88001 2.72,6.55999 2.88,6.23999 3.04,6.08001 3.36,5.6 3.36,5.28 3.68,5.12 3.68,4.64 3.84,4.16 4.000001,3.84 4.159996,3.52 4.160004,3.03999 4.319999,2.72 4.32,2.08001 4.480003,1.91999 4.479996,1.28 4.480003,0.80001 4.479996,0.47999 h 4.480004 l 4.479999,-0.47999 4.639999,-0.80001 4.32,-1.28 4.48,-1.91999 4.319999,-2.08001 4.32,-2.72 4.160002,-3.03999 4.16,-3.52 4,-3.84 3.839999,-4.16 3.68,-4.64 3.68,-5.12 3.36,-5.28 3.36,-5.6 3.04,-6.08001 2.88,-6.23999 2.72,-6.55999 2.56,-6.88001 2.4,-7.04001"
       style="fill:none;stroke:#000000;stroke-width:26.4;stroke-linecap:round;stroke-linejoin:round;stroke-miterlimit:10;stroke-dasharray:none;stroke-opacity:1"
       transform="translate(170.18666,69.386619)"
       clip-path="url(#clipPath2)" />
    <path
       id="path3"
       d="m 0,0 -3.2,-5.76 -3.36,-5.44 -3.68,-5.12 -3.68,-4.639999 -3.84,-4.480002 -3.84,-4 -4.16,-3.519998 -4.16,-3.200001 -4.320002,-2.720001 -4.319999,-2.399998 -4.32,-1.760002 -4.48,-1.599998 -4.479999,-0.959999 -4.48,-0.480004 -4.479999,-0.16 -4.640003,0.320004 -4.479996,0.799999 -4.480004,1.119999 -4.479995,1.759998 -4.32,2.080002 -4.32,2.400002 -4.160003,3.039997 -4.159996,3.36 -4,3.680001 -3.840004,4.16 -3.84,4.479999 -3.68,4.960001 -3.52,5.28 -3.2,5.6 -3.2,5.92 -2.88,6.08 -2.88,6.56 -2.56,6.72 -2.4,7.040001 -2.08,7.199999 -1.92,7.36 -1.76001,7.680001 -1.43998,7.84 -1.28002,7.84 -0.95999,8 -0.8,8.159996 -0.64,8.160004 -0.16,8.159996 V 107.68 l 0.16,8.32 0.48,8.16 0.63999,8 0.96001,8.16001 1.12,7.83999 1.44,7.84 1.75999,7.67999 1.76001,7.52001 2.08,7.19999 2.4,7.04001 2.56,6.88001 2.72,6.55999 2.88,6.23999 3.04,6.08001 3.36,5.6 3.36,5.28 3.68,5.12 3.68,4.64 3.84,4.16 4.000001,3.84 4.159996,3.52 4.160004,3.03999 4.319999,2.72 4.32,2.08001 4.32,1.91999 4.480003,1.28 4.479996,0.80001 4.639999,0.47999 h 4.480004 l 4.479999,-0.47999 4.48,-0.80001 4.479999,-1.28 4.48,-1.91999 4.319999,-2.08001 4.32,-2.72 4.160002,-3.03999 4.16,-3.52 4,-3.84 3.839999,-4.16 3.68,-4.64 3.68,-5.12 3.36,-5.28 3.2,-5.6 3.2,-6.08001 2.88,-6.23999 2.72,-6.55999 2.56,-6.88001 2.24,-7.04001"
       style="fill:none;stroke:#000000;stroke-width:26.4;stroke-linecap:round;stroke-linejoin:round;stroke-miterlimit:10;stroke-dasharray:none;stroke-opacity:1"
       transform="translate(356.74669,69.386619)"
       clip-path="url(#clipPath4)" />
  </g>
</svg>
