<?xml version="1.0" encoding="UTF-8" standalone="no"?>
<!-- Created with Inkscape (http://www.inkscape.org/) -->

<svg
   version="1.1"
   id="svg1"
   width="496.26666"
   height="667.40002"
   viewBox="0 0 496.26666 667.40002"
   sodipodi:docname="Hartshorn5.pdf"
   xmlns:inkscape="http://www.inkscape.org/namespaces/inkscape"
   xmlns:sodipodi="http://sodipodi.sourceforge.net/DTD/sodipodi-0.dtd"
   xmlns="http://www.w3.org/2000/svg"
   xmlns:svg="http://www.w3.org/2000/svg">
  <defs
     id="defs1">
    <clipPath
       clipPathUnits="userSpaceOnUse"
       id="clipPath2">
      <path
         d="M 0,0.16 V 1122.5601 H 793.59998 V 0.16 Z"
         transform="translate(-317.76001,-569.11999)"
         clip-rule="evenodd"
         id="path2" />
    </clipPath>
    <clipPath
       clipPathUnits="userSpaceOnUse"
       id="clipPath4">
      <path
         d="M 0,0.16 V 1122.5601 H 793.59998 V 0.16 Z"
         transform="translate(3.3333333e-6)"
         clip-rule="evenodd"
         id="path4" />
    </clipPath>
    <clipPath
       clipPathUnits="userSpaceOnUse"
       id="clipPath6">
      <path
         d="M 0,0.16 V 1122.5601 H 793.59998 V 0.16 Z"
         transform="translate(3.3333333e-6)"
         clip-rule="evenodd"
         id="path6" />
    </clipPath>
    <clipPath
       clipPathUnits="userSpaceOnUse"
       id="clipPath8">
      <path
         d="M 0,0.16 V 1122.5601 H 793.59998 V 0.16 Z"
         transform="translate(3.3333333e-6)"
         clip-rule="evenodd"
         id="path8" />
    </clipPath>
    <clipPath
       clipPathUnits="userSpaceOnUse"
       id="clipPath10">
      <path
         d="M 0,0.16 V 1122.5601 H 793.59998 V 0.16 Z"
         transform="translate(-321.60001,-410.23999)"
         clip-rule="evenodd"
         id="path10" />
    </clipPath>
    <clipPath
       clipPathUnits="userSpaceOnUse"
       id="clipPath12">
      <path
         d="M 0,0.16 V 1122.5601 H 793.59998 V 0.16 Z"
         transform="translate(-615.68,-342.72)"
         clip-rule="evenodd"
         id="path12" />
    </clipPath>
  </defs>
  <sodipodi:namedview
     id="namedview1"
     pagecolor="#505050"
     bordercolor="#eeeeee"
     borderopacity="1"
     inkscape:showpageshadow="0"
     inkscape:pageopacity="0"
     inkscape:pagecheckerboard="0"
     inkscape:deskcolor="#505050">
    <inkscape:page
       x="0"
       y="0"
       inkscape:label="1"
       id="page1"
       width="496.26666"
       height="667.40002"
       margin="0"
       bleed="0" />
  </sodipodi:namedview>
  <g
     id="g1"
     inkscape:groupmode="layer"
     inkscape:label="1">
    <path
       id="path1"
       d="m 0,0 -7.04,4.32 -7.04,4.64 -6.559999,5.12 -6.400002,5.44 -6.239998,5.760001 -5.760002,6.08 -5.439999,6.239997 -5.119998,6.720002 -4.800004,6.880001 -4.319999,7.200001 -4,7.36 -3.680001,7.519997 -3.199996,7.68 -2.880005,7.840004 -2.399994,8.159996 -1.920006,8.000001 -1.599999,8.32 -1.119995,8.32 -0.640007,8.32 -0.319999,8.32 0.160003,8.48 0.64,8.31999 1.120002,8.32001 1.439995,8.31999 2.080002,8 2.239998,8.16001 2.880005,7.83999 3.199997,7.84001 3.52,7.51999 4,7.36 4.32,7.20002 4.799999,6.87999 5.120003,6.72 5.439999,6.24 5.760002,6.23999 6.079998,5.76001 6.239999,5.44 6.720001,5.12 6.88,4.64001 7.2,4.47999 7.36,4 7.52,3.52001 7.68,3.19999 8,2.88 7.999998,2.4 8.160004,1.92001 8.16,1.6 8.319999,1.12 8.48,0.63998 8.32,0.16001 8.319999,-0.16001 8.480004,-0.63998 8.159996,-1.12 8.32,-1.6 8.16,-1.92001 8,-2.4 8,-2.88 7.68,-3.19999 7.52,-3.52001 7.36,-4 7.2,-4.47999 6.88,-4.64001 6.72,-5.12 6.23999,-5.44 6.08001,-5.76001 5.76,-6.23999 5.43999,-6.24 5.12001,-6.72 4.80001,-6.87999 4.31999,-7.20002 4,-7.36 3.52,-7.51999 3.2,-7.84001 2.88,-7.83999 2.23999,-8.16001 2.08001,-8 1.44,-8.31999 1.11999,-8.32001 0.64,-8.31999 0.16001,-8.48 -0.32,-8.32 -0.64,-8.32 -1.12001,-8.32 -1.59999,-8.32 -1.91999,-8.000001 -2.40001,-8.159996 -2.87999,-7.840004 -3.20002,-7.68 -3.67999,-7.519997 -4,-7.36 -4.32001,-7.200001 L 208.32001,44.32 203.2,37.599998 197.75999,31.360001 191.84,25.280001 185.75999,19.52 179.36,14.08 172.8,8.96 165.75999,4.32 158.72,0"
       style="fill:none;stroke:#000000;stroke-width:26.4;stroke-linecap:round;stroke-linejoin:round;stroke-miterlimit:10;stroke-dasharray:none;stroke-opacity:1"
       transform="translate(171.01334,343.5466)"
       clip-path="url(#clipPath2)" />
    <path
       id="path3"
       d="m 317.76001,569.12 3.84,-163.35999"
       style="fill:none;stroke:#000000;stroke-width:26.4;stroke-linecap:round;stroke-linejoin:round;stroke-miterlimit:10;stroke-dasharray:none;stroke-opacity:1"
       transform="translate(-146.74667,-225.57339)"
       clip-path="url(#clipPath4)" />
    <path
       id="path5"
       d="m 476.48001,569.12 -3.84,-163.35999"
       style="fill:none;stroke:#000000;stroke-width:26.4;stroke-linecap:round;stroke-linejoin:round;stroke-miterlimit:10;stroke-dasharray:none;stroke-opacity:1"
       transform="translate(-146.74667,-225.57339)"
       clip-path="url(#clipPath6)" />
    <path
       id="path7"
       d="m 321.60001,405.76001 h 151.04"
       style="fill:none;stroke:#000000;stroke-width:26.4;stroke-linecap:round;stroke-linejoin:round;stroke-miterlimit:10;stroke-dasharray:none;stroke-opacity:1"
       transform="translate(-146.74667,-225.57339)"
       clip-path="url(#clipPath8)" />
    <path
       id="path9"
       d="m 0,0 -0.16,-8.32 -0.32,-8.16 -0.48,-8.159999 -0.8,-8.16 -1.12,-8 -1.12,-7.84 -1.44,-7.840001 -1.6,-7.52 -1.92,-7.360001 -2.08,-7.199997 -2.24,-6.880004 -2.4,-6.720002 -2.56,-6.399994 L -21.120001,-104.64 -24,-110.4 l -3.040001,-5.44 -3.199999,-5.12 -3.519998,-4.8 -3.360001,-4.48 -3.68,-4 -3.680001,-3.51999 -3.84,-3.20002 -3.84,-2.71998 -4,-2.40001 -4,-1.92 -4.16,-1.44 -4,-0.95999 -4.160003,-0.48001 -4.159996,-0.15999 -4,0.31999 -4.160004,0.8 -4.159996,1.28 -4,1.60001 -4,2.07998 -3.840001,2.56002 -3.84,3.03999 -3.84,3.36 -3.68,3.84 -3.52,4.16 -3.36,4.64 -3.36,4.96 -3.2,5.28 -3.04,5.6 -2.72,5.92 -2.72,6.400003 -2.56,6.399994 -2.39999,6.880005 -2.08,7.040001 -1.92,7.36"
       style="fill:none;stroke:#000000;stroke-width:26.4;stroke-linecap:round;stroke-linejoin:round;stroke-miterlimit:10;stroke-dasharray:none;stroke-opacity:1"
       transform="translate(174.85334,184.6666)"
       clip-path="url(#clipPath10)" />
    <path
       id="path11"
       d="M 0,0 -1.92,-7.36 -4,-14.4 -6.4,-21.280001 -8.96,-27.68 -11.68,-34.080002 -14.4,-40 -17.440001,-45.599998 -20.639999,-50.880001 -24,-55.84 l -3.360001,-4.64 -3.519998,-4.159999 -3.680002,-3.840004 -3.840001,-3.359993 -3.84,-3.040001 -3.84,-2.560005 -4,-2.079995 -4,-1.600006 -4.16,-1.279999 -4.16,-0.799995 -4,-0.32 -4.159996,0.159996 -4.160003,0.480004 -4.159996,0.959999 -4,1.439995 -4,1.920005 -4,2.399994 -3.840004,2.720002 -3.839997,3.200004 -3.680002,3.519997 -3.68,4 -3.52,4.479999 -3.36,4.800003 -3.2,5.119999 -3.04,5.439999 -3.04,5.760002 -2.72,6.079998 -2.56,6.400002 -2.39999,6.719999 -2.24001,6.88 -2.08,7.2 -1.92,7.36 -1.60001,7.52 -1.43998,7.839999 -1.28002,7.84 -0.95999,8.000002 -0.8,8.16 -0.48,8.16 -0.32,8.16 -0.15999,8.319996"
       style="fill:none;stroke:#000000;stroke-width:26.4;stroke-linecap:round;stroke-linejoin:round;stroke-miterlimit:10;stroke-dasharray:none;stroke-opacity:1"
       transform="translate(468.93333,117.14661)"
       clip-path="url(#clipPath12)" />
  </g>
</svg>
