<?xml version="1.0" encoding="UTF-8" standalone="no"?>
<!-- Created with Inkscape (http://www.inkscape.org/) -->

<svg
   version="1.1"
   id="svg1"
   width="657.69336"
   height="576.62665"
   viewBox="0 0 657.69336 576.62665"
   sodipodi:docname="Hartshorn3.pdf"
   xmlns:inkscape="http://www.inkscape.org/namespaces/inkscape"
   xmlns:sodipodi="http://sodipodi.sourceforge.net/DTD/sodipodi-0.dtd"
   xmlns="http://www.w3.org/2000/svg"
   xmlns:svg="http://www.w3.org/2000/svg">
  <defs
     id="defs1">
    <clipPath
       clipPathUnits="userSpaceOnUse"
       id="clipPath2">
      <path
         d="M 0,0.16 V 1122.5601 H 793.59998 V 0.16 Z"
         transform="translate(-157.11999,-650.08002)"
         clip-rule="evenodd"
         id="path2" />
    </clipPath>
    <clipPath
       clipPathUnits="userSpaceOnUse"
       id="clipPath4">
      <path
         d="M 0,0.16 V 1122.5601 H 793.59998 V 0.16 Z"
         transform="translate(-678.88,-355.84)"
         clip-rule="evenodd"
         id="path4" />
    </clipPath>
    <clipPath
       clipPathUnits="userSpaceOnUse"
       id="clipPath6">
      <path
         d="M 0,0.16 V 1122.5601 H 793.59998 V 0.16 Z"
         clip-rule="evenodd"
         id="path6" />
    </clipPath>
  </defs>
  <sodipodi:namedview
     id="namedview1"
     pagecolor="#505050"
     bordercolor="#eeeeee"
     borderopacity="1"
     inkscape:showpageshadow="0"
     inkscape:pageopacity="0"
     inkscape:pagecheckerboard="0"
     inkscape:deskcolor="#505050">
    <inkscape:page
       x="0"
       y="0"
       inkscape:label="1"
       id="page1"
       width="657.69336"
       height="576.62665"
       margin="0"
       bleed="0" />
  </sodipodi:namedview>
  <g
     id="g1"
     inkscape:groupmode="layer"
     inkscape:label="1">
    <path
       id="path1"
       d="m 0,0 1.76,12.32 1.92,12.16 2.08,11.84 2.4,11.52 2.56,11.040001 2.72,10.880001 2.88,10.400002 3.2,9.919998 3.199999,9.599998 3.520001,8.96 3.68,8.48 3.679998,8.16 3.840001,7.36 4.159999,7.03999 4,6.40001 4.32,5.76 4.320004,5.12001 4.479999,4.47999 4.48,4 4.639995,3.36 4.640007,2.56 4.64,1.92 4.639999,1.44 4.799996,0.64 h 4.639999 L 96,174.72 l 4.64,-1.28 4.8,-2.08 4.64,-2.56 4.48,-3.19999 4.48,-4 4.48,-4.48002 4.32,-5.27999 4.32,-5.76 4.16001,-6.24 4,-6.87999 3.83999,-7.52001 3.84,-8 3.67999,-8.64 3.36,-8.960004 3.36,-9.439994 L 161.44,80.32 164.48,69.919998 167.2,59.200001 169.75999,48 172,36.639999 l 2.24,-11.84 1.92,-12.159999 1.59999,-12.32 1.60001,-12.48 1.28,-12.799999 0.96001,-12.959999 0.79998,-12.960003 0.48001,-13.280003 0.32,-13.119995 0.16,-13.279999 -0.16,-13.280002 -0.32,-13.12 -0.64,-13.12 -0.96,-12.95999 L 180.32001,-156 178.88,-168.64 l -1.44,-12.64 -1.76001,-12.16 -2.07998,-12 -2.08001,-11.84 -2.40001,-11.36 -2.72,-11.03999 -2.72,-10.72 -3.03999,-10.24002 -3.03999,-9.91999 -3.36001,-9.28 -3.52,-8.95999 -3.68001,-8.32001 -3.83999,-8 -3.84,-7.36001 -4.16,-6.72 -4.16001,-6.23999 -4.31999,-5.60001 -4.32,-4.95999 -4.48,-4.32001 -4.48,-3.83999 -4.64,-3.04001 -4.64,-2.56 -4.640003,-1.75998 -4.799996,-1.12002 -4.639999,-0.47999 -4.800003,0.16001 -4.64,0.79999 -4.639999,1.6 -4.800003,2.07999 -4.479996,2.88 -4.639999,3.36002 -4.480004,4.16 -4.479999,4.63999 -4.32,5.28 -4.16,6.08001 -4.159999,6.4 -4,7.03998 -3.840001,7.68002 -3.68,8.16 -3.679998,8.63999 -3.360001,9.28 -3.200001,9.6 -3.039999,10.08 -2.88,10.4 -2.72,10.88 -2.56,11.36 -2.24,11.52001 L 3.2,-199.2"
       style="fill:none;stroke:#000000;stroke-width:26.4;stroke-linecap:round;stroke-linejoin:round;stroke-miterlimit:10;stroke-dasharray:none;stroke-opacity:1"
       transform="translate(27.719995,375.10663)"
       clip-path="url(#clipPath2)" />
    <path
       id="path3"
       d="m 0,0 -8,-7.84 -8.16,-7.2 -8.479999,-6.88 -8.8,-6.24 -8.960003,-5.599998 -9.279998,-5.280003 -9.279999,-4.479999 -9.599999,-4 -9.600006,-3.520001 -9.759994,-2.719997 L -99.839996,-56 -109.76,-57.599998 l -10.08,-0.960003 -9.91999,-0.32 -10.08001,0.16 -10.08,0.960003 -9.92,1.439998 -9.91999,2.079998 -9.76001,2.720002 -9.76,3.36 -9.44,3.84 -9.44,4.48 -9.28,4.959999 -8.95999,5.76 -8.80001,6.08 -8.47999,6.720001 -8.32001,7.2 -8,7.68 -7.67999,8.16 -7.36002,8.64 -7.03998,9.12 -6.72,9.600002 L -295.20001,44 -301.12,54.240002 l -5.44,10.560001 -5.11999,11.039993 -4.80002,11.360001 -4.31998,11.520004 -3.68002,11.839999 -3.51999,12 -2.88,12.16 -2.4,12.31999 -1.92001,12.64 -1.59998,12.64002 -0.96002,12.64 -0.47998,12.79998 -0.16,12.80001 0.47998,12.64 0.96002,12.8 1.28,12.64 1.91998,12.48 2.40002,12.48001 2.87998,12.16 3.20001,12.16 3.67999,11.84 4.32001,11.51999 4.48001,11.36001 5.12,11.03998 5.44,10.72 5.91998,10.4 6.24002,9.92001 6.56,9.60001 7.03998,9.28 7.20001,8.63998 7.67999,8.32001 8,7.83999 8.16001,7.36002 8.47999,6.72 8.80001,6.23999 8.96,5.76001 9.12,5.12 9.44,4.63998 9.44,4 9.76,3.36002 9.76001,2.88 9.75999,2.23999 10.08,1.60001 9.92,0.95999 10.08,0.48001 10.08,-0.32001 9.92,-0.79999 9.92,-1.6 9.92,-2.08002 9.919998,-2.56 9.599999,-3.35998 9.600002,-3.84 9.440002,-4.48001 9.119999,-4.95999 9.119999,-5.60001 8.800001,-6.23999 8.48,-6.72 L -9.6,420 l 8,-7.67999 7.68,-8.16001 7.36,-8.64001 7.04,-9.12 6.720001,-9.44 6.399997,-9.91998 5.920002,-10.24002 5.439999,-10.72 5.280003,-10.87998 4.639999,-11.36001 4.32,-11.51999 3.84,-11.84 3.360001,-12 2.879997,-12.16 L 71.839996,264 73.760002,251.36 75.199997,238.72 76.32,226.08"
       style="fill:none;stroke:#000000;stroke-width:26.4;stroke-linecap:round;stroke-linejoin:round;stroke-miterlimit:10;stroke-dasharray:none;stroke-opacity:1"
       transform="translate(549.48,80.866604)"
       clip-path="url(#clipPath4)" />
    <path
       id="path5"
       d="M 755.84003,580.15997 V 825.59998"
       style="fill:none;stroke:#000000;stroke-width:26.4;stroke-linecap:round;stroke-linejoin:round;stroke-miterlimit:10;stroke-dasharray:none;stroke-opacity:1"
       transform="translate(-129.4,-274.97339)"
       clip-path="url(#clipPath6)" />
  </g>
</svg>
