<?xml version="1.0" encoding="UTF-8" standalone="no"?>
<!-- Created with Inkscape (http://www.inkscape.org/) -->

<svg
   version="1.1"
   id="svg1"
   width="688.37335"
   height="576.62665"
   viewBox="0 0 688.37335 576.62665"
   sodipodi:docname="HorseDung10.pdf"
   xmlns:inkscape="http://www.inkscape.org/namespaces/inkscape"
   xmlns:sodipodi="http://sodipodi.sourceforge.net/DTD/sodipodi-0.dtd"
   xmlns="http://www.w3.org/2000/svg"
   xmlns:svg="http://www.w3.org/2000/svg">
  <defs
     id="defs1">
    <clipPath
       clipPathUnits="userSpaceOnUse"
       id="clipPath2">
      <path
         d="M 0,0.16 V 1122.5601 H 793.59998 V 0.16 Z"
         transform="translate(-661.12,-561.28003)"
         clip-rule="evenodd"
         id="path2" />
    </clipPath>
    <clipPath
       clipPathUnits="userSpaceOnUse"
       id="clipPath4">
      <path
         d="M 0,0.16 V 1122.5601 H 793.59998 V 0.16 Z"
         transform="translate(3.3333333e-6)"
         clip-rule="evenodd"
         id="path4" />
    </clipPath>
    <clipPath
       clipPathUnits="userSpaceOnUse"
       id="clipPath6">
      <path
         d="M 0,0.16 V 1122.5601 H 793.59998 V 0.16 Z"
         transform="translate(3.3333333e-6)"
         clip-rule="evenodd"
         id="path6" />
    </clipPath>
    <clipPath
       clipPathUnits="userSpaceOnUse"
       id="clipPath8">
      <path
         d="M 0,0.16 V 1122.5601 H 793.59998 V 0.16 Z"
         transform="translate(3.3333333e-6)"
         clip-rule="evenodd"
         id="path8" />
    </clipPath>
    <clipPath
       clipPathUnits="userSpaceOnUse"
       id="clipPath10">
      <path
         d="M 0,0.16 V 1122.5601 H 793.59998 V 0.16 Z"
         transform="translate(-774.40003,-485.76001)"
         clip-rule="evenodd"
         id="path10" />
    </clipPath>
  </defs>
  <sodipodi:namedview
     id="namedview1"
     pagecolor="#505050"
     bordercolor="#eeeeee"
     borderopacity="1"
     inkscape:showpageshadow="0"
     inkscape:pageopacity="0"
     inkscape:pagecheckerboard="0"
     inkscape:deskcolor="#505050">
    <inkscape:page
       x="0"
       y="0"
       inkscape:label="1"
       id="page1"
       width="688.37335"
       height="576.62665"
       margin="0"
       bleed="0" />
  </sodipodi:namedview>
  <g
     id="g1"
     inkscape:groupmode="layer"
     inkscape:label="1">
    <path
       id="path1"
       d="m 0,0 c 0,-145.97 -118.34,-264.32001 -264.32001,-264.32001 -145.97998,0 -264.32,118.35001 -264.32,264.32001 0,145.97 118.34002,264.32001 264.32,264.32001 C -118.34,264.32001 0,145.97 0,0 Z"
       style="fill:none;stroke:#000000;stroke-width:26.4;stroke-linecap:round;stroke-linejoin:round;stroke-miterlimit:10;stroke-dasharray:none;stroke-opacity:1"
       transform="translate(555.73333,290.31997)"
       clip-path="url(#clipPath2)" />
    <path
       id="path3"
       d="M 396.79999,296.95999 V 825.59998"
       style="fill:none;stroke:#000000;stroke-width:26.4;stroke-linecap:round;stroke-linejoin:round;stroke-miterlimit:10;stroke-dasharray:none;stroke-opacity:1"
       transform="translate(-105.38667,-270.96006)"
       clip-path="url(#clipPath4)" />
    <path
       id="path5"
       d="M 132.48,561.28003 H 774.40002"
       style="fill:none;stroke:#000000;stroke-width:26.4;stroke-linecap:round;stroke-linejoin:round;stroke-miterlimit:10;stroke-dasharray:none;stroke-opacity:1"
       transform="translate(-105.38667,-270.96006)"
       clip-path="url(#clipPath6)" />
    <path
       id="path7"
       d="m 774.40002,485.76001 v 75.52002"
       style="fill:none;stroke:#000000;stroke-width:26.4;stroke-linecap:round;stroke-linejoin:round;stroke-miterlimit:10;stroke-dasharray:none;stroke-opacity:1"
       transform="translate(-105.38667,-270.96006)"
       clip-path="url(#clipPath8)" />
    <path
       id="path9"
       d="m 0,0 -0.64,-8.96 -1.28,-8.96 -1.76,-8.799999 -2.08,-8.800001 -2.56,-8.64 -3.2,-8.479999 -3.36,-8.32 -3.999999,-8 -4.320002,-8 L -28,-84.480003 -33.279999,-92 l -5.440002,-7.040001 -5.919998,-6.719999 -6.400002,-6.56 -6.559997,-6.08 -6.880005,-5.76 -7.359993,-5.44001 -7.360001,-4.95999 -7.840004,-4.64 -8,-4.16 -8.159999,-3.67999 -8.48,-3.36 -8.48,-2.88001 -8.64,-2.39999 -8.80001,-1.92002 -8.95999,-1.43998 -8.96,-1.12001 -8.96,-0.48 h -8.96 l -9.12,0.48 -8.96,0.8 -8.96,1.44 -8.8,1.76 -8.64,2.40001 -8.64,2.72"
       style="fill:none;stroke:#000000;stroke-width:26.4;stroke-linecap:round;stroke-linejoin:round;stroke-miterlimit:10;stroke-dasharray:none;stroke-opacity:1"
       transform="translate(669.01336,214.79995)"
       clip-path="url(#clipPath10)" />
  </g>
</svg>
