<?xml version="1.0" encoding="UTF-8" standalone="no"?>
<!-- Created with Inkscape (http://www.inkscape.org/) -->

<svg
   version="1.1"
   id="svg1"
   width="278.81332"
   height="348.37332"
   viewBox="0 0 278.81332 348.37332"
   sodipodi:docname="HorseDung4.pdf"
   xmlns:inkscape="http://www.inkscape.org/namespaces/inkscape"
   xmlns:sodipodi="http://sodipodi.sourceforge.net/DTD/sodipodi-0.dtd"
   xmlns="http://www.w3.org/2000/svg"
   xmlns:svg="http://www.w3.org/2000/svg">
  <defs
     id="defs1">
    <clipPath
       clipPathUnits="userSpaceOnUse"
       id="clipPath2">
      <path
         d="M 0,0.16 V 1122.5601 H 793.59998 V 0.16 Z"
         transform="translate(-359.04001,-485.76001)"
         clip-rule="evenodd"
         id="path2" />
    </clipPath>
    <clipPath
       clipPathUnits="userSpaceOnUse"
       id="clipPath4">
      <path
         d="M 0,0.16 V 1122.5601 H 793.59998 V 0.16 Z"
         transform="translate(-434.55999,-410.23999)"
         clip-rule="evenodd"
         id="path4" />
    </clipPath>
  </defs>
  <sodipodi:namedview
     id="namedview1"
     pagecolor="#505050"
     bordercolor="#eeeeee"
     borderopacity="1"
     inkscape:showpageshadow="0"
     inkscape:pageopacity="0"
     inkscape:pagecheckerboard="0"
     inkscape:deskcolor="#505050">
    <inkscape:page
       x="0"
       y="0"
       inkscape:label="1"
       id="page1"
       width="278.81332"
       height="348.37332"
       margin="0"
       bleed="0" />
  </sodipodi:namedview>
  <g
     id="g1"
     inkscape:groupmode="layer"
     inkscape:label="1">
    <path
       id="path1"
       d="M 0,0 0.32,5.44 0.8,10.72 1.76,16 3.04,21.280001 4.8,26.4 6.88,31.360001 9.28,36.16 12,40.799999 l 3.04,4.48 3.519999,4.16 3.680001,4 3.84,3.68 4.16,3.360001 4.480001,3.04 4.64,2.719998 4.799999,2.400001 4.959999,2.080002 5.120003,1.760002 5.279998,1.279999 5.280003,0.959999 5.439995,0.64 5.279999,0.159996 5.440002,-0.159996 5.279999,-0.64 5.440002,-0.959999 5.120003,-1.279999 5.119997,-1.760002 4.96,-2.080002 4.8,-2.400001 4.64,-2.719998 4.48,-3.04 4.16,-3.360001 4.00001,-3.68 3.67999,-4 3.36,-4.16 3.03999,-4.48 L 141.92,36.16 144.32001,31.360001 146.39999,26.4 148,21.280001 149.28,16 150.24,10.72 150.88,5.44 151.03999,0 150.88,-5.44 150.24,-10.72 149.28,-16 148,-21.280001 146.39999,-26.4 144.32001,-31.360001 141.92,-36.16 l -2.88001,-4.639999 -3.03999,-4.48 -3.36,-4.16 -3.67999,-4 -4.00001,-3.68 -4.16,-3.360001 -4.48,-3.04 -4.64,-2.719998 -4.8,-2.400001 -4.96,-2.080002 -5.119997,-1.760002 -5.120003,-1.279999 -5.440002,-0.959999 -5.279999,-0.64 -5.440002,-0.159996"
       style="fill:none;stroke:#000000;stroke-width:26.4;stroke-linecap:round;stroke-linejoin:round;stroke-miterlimit:10;stroke-dasharray:none;stroke-opacity:1"
       transform="translate(96.226676,98.666618)"
       clip-path="url(#clipPath2)" />
    <path
       id="path3"
       d="m 0,0 -8,0.32 -8.16,0.64 -8,0.96 -8,1.6 -8,1.92 -7.68,2.4 -7.68,2.72 -7.520001,3.2 -7.199997,3.680001 -7.200004,4 L -84.32,25.76 l -6.559997,4.64 -6.400002,5.12 -6.080001,5.439999 -5.76,5.760002 -5.44,5.919998 -5.12,6.400002 -4.8,6.559997 -4.32,6.720002 -4.16001,7.040001 -3.67999,7.36 -3.2,7.360001 -2.88,7.679998 -2.39999,7.68 -2.08001,8 -1.6,7.84 -1.12,8.16 -0.8,8 -0.31999,8.16001 0.15999,8.15998 0.64,8.16001 0.96,8 1.44,8 1.92,7.83999 2.24001,7.84002 2.71998,7.67999 3.20002,7.52 3.51999,7.36 3.84001,7.04 4.31999,6.88 4.64,6.72 4.96,6.4 5.44,6.08 5.6,5.92001 6.079999,5.44 6.239998,5.28 6.400002,4.79999 6.880005,4.48001 7.039993,4.15998 7.200005,3.68002 7.359996,3.35998 7.680001,2.88001 7.68,2.56 7.84,2.08001 8,1.75998 8,1.12 8.000001,0.96002 8.16,0.31998 8.16,-0.15998 8.16,-0.48001 8.000001,-0.79999 8,-1.44 7.999998,-1.76001 7.84,-2.23999 7.68,-2.72 L 60.48,289.44 l 7.359996,-3.36001 7.200005,-3.84"
       style="fill:none;stroke:#000000;stroke-width:26.4;stroke-linecap:round;stroke-linejoin:round;stroke-miterlimit:10;stroke-dasharray:none;stroke-opacity:1"
       transform="translate(171.74666,23.146598)"
       clip-path="url(#clipPath4)" />
  </g>
</svg>
