<?xml version="1.0" encoding="UTF-8" standalone="no"?>
<!-- Created with Inkscape (http://www.inkscape.org/) -->

<svg
   version="1.1"
   id="svg1"
   width="330.84"
   height="270.95999"
   viewBox="0 0 330.84 270.95999"
   sodipodi:docname="HorseDung5.pdf"
   xmlns:inkscape="http://www.inkscape.org/namespaces/inkscape"
   xmlns:sodipodi="http://sodipodi.sourceforge.net/DTD/sodipodi-0.dtd"
   xmlns="http://www.w3.org/2000/svg"
   xmlns:svg="http://www.w3.org/2000/svg">
  <defs
     id="defs1">
    <clipPath
       clipPathUnits="userSpaceOnUse"
       id="clipPath2">
      <path
         d="M 0,0.16 V 1122.5601 H 793.59998 V 0.16 Z"
         transform="translate(-296,-523.76001)"
         clip-rule="evenodd"
         id="path2" />
    </clipPath>
    <clipPath
       clipPathUnits="userSpaceOnUse"
       id="clipPath4">
      <path
         d="M 0,0.16 V 1122.5601 H 793.59998 V 0.16 Z"
         transform="translate(-356.48001,-523.76001)"
         clip-rule="evenodd"
         id="path4" />
    </clipPath>
    <clipPath
       clipPathUnits="userSpaceOnUse"
       id="clipPath6">
      <path
         d="M 0,0.16 V 1122.5601 H 793.59998 V 0.16 Z"
         transform="translate(-326.23999,-478.39999)"
         clip-rule="evenodd"
         id="path6" />
    </clipPath>
    <clipPath
       clipPathUnits="userSpaceOnUse"
       id="clipPath8">
      <path
         d="M 0,0.16 V 1122.5601 H 793.59998 V 0.16 Z"
         transform="translate(-306.23999,-556.96003)"
         clip-rule="evenodd"
         id="path8" />
    </clipPath>
  </defs>
  <sodipodi:namedview
     id="namedview1"
     pagecolor="#505050"
     bordercolor="#eeeeee"
     borderopacity="1"
     inkscape:showpageshadow="0"
     inkscape:pageopacity="0"
     inkscape:pagecheckerboard="0"
     inkscape:deskcolor="#505050">
    <inkscape:page
       x="0"
       y="0"
       inkscape:label="1"
       id="page1"
       width="330.84"
       height="270.95999"
       margin="0"
       bleed="0" />
  </sodipodi:namedview>
  <g
     id="g1"
     inkscape:groupmode="layer"
     inkscape:label="1">
    <path
       id="path1"
       d="m 0,0 c 0,-8.35 -6.76,-15.12 -15.12,-15.12 -8.36,0 -15.12,6.77 -15.12,15.12 0,8.35 6.76,15.12 15.12,15.12 C -6.76,15.12 0,8.35 0,0 Z"
       style="fill:none;stroke:#000000;stroke-width:26.4;stroke-linecap:round;stroke-linejoin:round;stroke-miterlimit:10;stroke-dasharray:none;stroke-opacity:1"
       transform="translate(71.88,113.97328)"
       clip-path="url(#clipPath2)" />
    <path
       id="path3"
       d="m 0,0 c 0,-8.35 -6.76,-15.12 -15.12,-15.12 -8.36,0 -15.12,6.77 -15.12,15.12 0,8.35 6.76,15.12 15.12,15.12 C -6.76,15.12 0,8.35 0,0 Z"
       style="fill:none;stroke:#000000;stroke-width:26.4;stroke-linecap:round;stroke-linejoin:round;stroke-miterlimit:10;stroke-dasharray:none;stroke-opacity:1"
       transform="translate(132.36001,113.97328)"
       clip-path="url(#clipPath4)" />
    <path
       id="path5"
       d="m 0,0 c 0,-8.35 -6.76,-15.12 -15.12,-15.12 -8.36,0 -15.12,6.77 -15.12,15.12 0,8.35 6.76,15.12 15.12,15.12 C -6.76,15.12 0,8.35 0,0 Z"
       style="fill:none;stroke:#000000;stroke-width:26.4;stroke-linecap:round;stroke-linejoin:round;stroke-miterlimit:10;stroke-dasharray:none;stroke-opacity:1"
       transform="translate(102.11999,68.613269)"
       clip-path="url(#clipPath6)" />
    <path
       id="path7"
       d="m 0,0 -3.36,4.64 -3.04,4.64 -2.56,4.64 -2.24,4.799999 -1.76,4.800001 -1.44,4.8 -0.96,4.639999 -0.48,4.799999 v 4.640004 l 0.32,4.639999 0.8,4.479999 1.28,4.48 1.76,4.32 2.08,4.160003 2.4,4 3.04,3.839997 3.2,3.68 3.68,3.360001 4.16,3.36 4.32,3.040001 4.8,2.720001 5.120001,2.559998 5.279999,2.400001 5.6,2.079995 5.919998,1.760002 6.240002,1.599998 6.400001,1.280003 6.559998,0.96 6.720001,0.64 6.880001,0.48 6.879997,0.16 7.200005,-0.16 7.039993,-0.48 7.200005,-0.8 7.199999,-1.120004 7.2,-1.279998 7.2,-1.599999 7.04,-1.760002 7.04,-2.239998 6.88001,-2.239998 6.72,-2.720001 6.55999,-2.879997 6.4,-3.040001 6.24,-3.360001 5.92,-3.520004 5.59999,-3.68 L 184.48,67.68 l 5.12001,-4 4.63999,-4.16 4.48,-4.319999 4.16,-4.48 3.68,-4.479999 3.36,-4.640004 2.88,-4.639999 2.56,-4.799999 2.08,-4.799999 1.59999,-4.800002 1.28002,-4.639999 0.95999,-4.8 0.32001,-4.8 V 3.68 l -0.48002,-4.48 -0.95999,-4.48 -1.28,-4.48 -1.76001,-4.16 -2.23999,-4.16 -2.55999,-4 -3.04001,-3.84 -3.36,-3.520001 -3.84,-3.519998 -4.16,-3.200001 -4.48,-3.040001 -4.8,-2.719997 -5.12,-2.560002"
       style="fill:none;stroke:#000000;stroke-width:26.4;stroke-linecap:round;stroke-linejoin:round;stroke-miterlimit:10;stroke-dasharray:none;stroke-opacity:1"
       transform="translate(82.11999,147.1733)"
       clip-path="url(#clipPath8)" />
  </g>
</svg>
