<?xml version="1.0" encoding="UTF-8" standalone="no"?>
<!-- Created with Inkscape (http://www.inkscape.org/) -->

<svg
   version="1.1"
   id="svg1"
   width="306.84"
   height="415.12"
   viewBox="0 0 306.84 415.12"
   sodipodi:docname="Milk.pdf"
   xmlns:inkscape="http://www.inkscape.org/namespaces/inkscape"
   xmlns:sodipodi="http://sodipodi.sourceforge.net/DTD/sodipodi-0.dtd"
   xmlns="http://www.w3.org/2000/svg"
   xmlns:svg="http://www.w3.org/2000/svg">
  <defs
     id="defs1">
    <clipPath
       clipPathUnits="userSpaceOnUse"
       id="clipPath3">
      <path
         d="M 0,0.16 V 1122.5601 H 793.59998 V 0.16 Z"
         transform="translate(-635.67999,-89.440005)"
         clip-rule="evenodd"
         id="path3" />
    </clipPath>
    <clipPath
       clipPathUnits="userSpaceOnUse"
       id="clipPath5">
      <path
         d="M 0,0.16 V 1122.5601 H 793.59998 V 0.16 Z"
         transform="translate(-510.39999,-88.319995)"
         clip-rule="evenodd"
         id="path5" />
    </clipPath>
    <clipPath
       clipPathUnits="userSpaceOnUse"
       id="clipPath7">
      <path
         d="M 0,0.16 V 1122.5601 H 793.59998 V 0.16 Z"
         transform="translate(-507.35999,-218.72001)"
         clip-rule="evenodd"
         id="path7" />
    </clipPath>
    <clipPath
       clipPathUnits="userSpaceOnUse"
       id="clipPath9">
      <path
         d="M 0,0.16 V 1122.5601 H 793.59998 V 0.16 Z"
         transform="translate(-637.76001,-219.84)"
         clip-rule="evenodd"
         id="path9" />
    </clipPath>
    <clipPath
       clipPathUnits="userSpaceOnUse"
       id="clipPath11">
      <path
         d="M 0,0.16 V 1122.5601 H 793.59998 V 0.16 Z"
         transform="translate(-635.67999,-89.440005)"
         clip-rule="evenodd"
         id="path11" />
    </clipPath>
    <clipPath
       clipPathUnits="userSpaceOnUse"
       id="clipPath13">
      <path
         d="M 0,0.16 V 1122.5601 H 793.59998 V 0.16 Z"
         transform="translate(-510.39999,-88.319995)"
         clip-rule="evenodd"
         id="path13" />
    </clipPath>
    <clipPath
       clipPathUnits="userSpaceOnUse"
       id="clipPath15">
      <path
         d="M 0,0.16 V 1122.5601 H 793.59998 V 0.16 Z"
         transform="translate(-507.35999,-218.72001)"
         clip-rule="evenodd"
         id="path15" />
    </clipPath>
    <clipPath
       clipPathUnits="userSpaceOnUse"
       id="clipPath17">
      <path
         d="M 0,0.16 V 1122.5601 H 793.59998 V 0.16 Z"
         transform="translate(-637.76001,-219.84)"
         clip-rule="evenodd"
         id="path17" />
    </clipPath>
  </defs>
  <sodipodi:namedview
     id="namedview1"
     pagecolor="#505050"
     bordercolor="#eeeeee"
     borderopacity="1"
     inkscape:showpageshadow="0"
     inkscape:pageopacity="0"
     inkscape:pagecheckerboard="0"
     inkscape:deskcolor="#505050">
    <inkscape:page
       x="0"
       y="0"
       inkscape:label="1"
       id="page1"
       width="306.84"
       height="415.12"
       margin="0"
       bleed="0" />
  </sodipodi:namedview>
  <g
     id="g1"
     inkscape:groupmode="layer"
     inkscape:label="1">
    <path
       id="path1"
       d="m 0,0 c 0,0.8 0,1.92 0,3.52 0,3.36 0,7.84 0,13.439999 0,5.6 0.16,10.720001 0.48,15.360001 0.48,4.639999 1.12,7.2 2.4,8 3.84,2.720001 8.48,4.319999 14.079999,4.959999 5.6,0.479999 14.240002,0.800003 26.240002,0.800003 h 31.679996 c 10.720001,0 22.560005,-1.280003 35.520003,-3.68 C 123.2,39.84 133.60001,36 141.28,30.559999 c 6.88,-4.959999 13.28,-12 19.2,-20.799999 6.08,-8.8 11.36,-20.8 16,-35.68 0.63999,-2.4 3.36,-3.520001 8,-3.520001 6.88,0 11.52,1.120001 13.76,3.520001 -5.27999,15.36 -11.20001,31.68 -17.44,48.960001 -6.40001,17.279999 -10.56,32.16 -12.47999,44.479996 -30.40001,0 -60.48001,-0.479996 -90.560008,-1.279999 C 47.84,65.599998 13.92,65.120003 -23.68,65.120003 c -13.119999,0 -24.8,0.319999 -35.200001,0.959999 -10.399998,0.479996 -21.119999,0.799995 -32.319996,0.799995 -1.440002,-1.599998 -2.240005,-4.159996 -1.920006,-7.999996 0.160004,-4 0.800003,-6.560001 1.920006,-8.16 2.399994,0 6.559998,-0.319999 12.799995,-0.800003 6.080002,-0.639999 12,-1.759998 17.440003,-3.199997 5.599998,-1.600002 8.639999,-3.36 8.959999,-5.280002 1.599998,-4.48 2.400002,-10.56 2.720001,-17.759999 0.16,-7.36 0.16,-15.2 0.16,-23.68 v -240.48 c 0,-8.48001 0,-16.47999 -0.16,-24.00001 -0.319999,-7.35999 -1.120003,-13.44 -2.720001,-18.07999 -0.32,-2.39999 -3.360001,-4 -8.959999,-5.28 -5.440003,-1.11999 -11.360001,-1.92001 -17.440003,-2.55999 -6.239997,-0.48001 -10.400001,-0.80002 -12.799995,-0.80002 -1.120003,-1.59998 -1.760002,-4.31998 -1.920006,-8.15998 -0.319999,-3.84002 0.480004,-6.56002 1.920006,-8 11.519997,0.31998 22.879997,0.79999 34.079998,1.43998 11.200001,0.48001 22.079998,0.80001 32.799999,0.80001 11.2,0 22.08,-0.32 32.64,-0.80001 10.559999,-0.63999 21.6,-1.12 33.119999,-1.43998 1.600002,1.43998 2.240001,4.15998 2.080001,8 -0.159999,3.84 -0.959999,6.56 -2.080001,8.15998 -2.239998,0 -6.559998,0.32001 -12.64,0.80002 -6.24,0.63998 -12,1.44 -17.279999,2.55999 -5.44,1.28 -8.48,2.88001 -9.28,5.28 -1.12,3.84 -1.76,8.79999 -2.08,15.04001 C 0,-261.44 0,-254.72 0,-247.36 c 0,1.12 0,2.24001 0,3.36 0,1.28 0,2.39999 0,3.52 z"
       style="fill:#000000;fill-opacity:1;fill-rule:nonzero;stroke:none"
       transform="translate(457.44,1015.5733)" />
    <path
       id="path2"
       d="M 0,0 -0.16,-1.44 -0.48,-2.72 -0.96,-4 -1.6,-5.12 -2.4,-6.24 -3.36,-7.2 -4.48,-8 -5.6,-8.64 -6.88,-9.12 -8.16,-9.44 h -1.28 -1.44 l -1.28,0.32 -1.28,0.48 -1.12,0.64 -1.12,0.8 -0.959999,0.96 -0.800002,1.12 L -18.08,-4 l -0.479999,1.28 -0.32,1.28 V 0 1.28 l 0.32,1.28 0.479999,1.28 0.639999,1.28 0.800002,0.96 0.959999,0.96 1.12,0.8 1.12,0.64 1.28,0.48 1.28,0.32 1.44,0.16 L -8.16,9.28 -6.88,8.96 -5.6,8.48 -4.48,7.84 -3.36,7.04 -2.4,6.08 -1.6,5.12 -0.96,3.84 -0.48,2.56 -0.16,1.28 0,0 v 0 z"
       style="fill:#000000;fill-opacity:1;fill-rule:evenodd;stroke:none"
       transform="translate(635.67999,780.85328)"
       clip-path="url(#clipPath3)" />
    <path
       id="path4"
       d="M 0,0 V -1.28 L -0.32,-2.72 -0.8,-3.84 -1.44,-5.12 -2.24,-6.24 -3.2,-7.04 -4.32,-8 -5.44,-8.64 -6.72,-8.96 -8,-9.28 l -1.44,-0.16 -1.28,0.16 -1.44,0.32 -1.12,0.32 -1.28,0.64 -1.12,0.96 -0.8,0.8 -0.960001,1.12 -0.639999,1.28 -0.479999,1.12 -0.16,1.44 -0.16,1.28 0.16,1.44 0.16,1.28 L -18.08,4 l 0.639999,1.12 0.960001,1.12 0.8,0.96 1.12,0.8 1.28,0.64 1.12,0.48 1.44,0.32 H -9.44 -8 L -6.72,9.12 -5.44,8.64 -4.32,8 -3.2,7.2 -2.24,6.24 -1.44,5.12 -0.8,4 -0.32,2.72 0,1.44 V 0 0 Z"
       style="fill:#000000;fill-opacity:1;fill-rule:evenodd;stroke:none"
       transform="translate(510.39999,779.73327)"
       clip-path="url(#clipPath5)" />
    <path
       id="path6"
       d="m 0,0 -0.16,-1.28 -0.32,-1.28 -0.48,-1.28 -0.64,-1.28 -0.8,-0.96 -0.96,-0.96 -1.12,-0.8 -1.12,-0.64 -1.28,-0.48 -1.28,-0.32 -1.28,-0.16 -1.44,0.16 -1.28,0.32 -1.28,0.48 -1.12,0.64 -1.12,0.8 -0.959999,0.96 -0.800002,0.96 -0.639999,1.28 -0.479999,1.28 -0.32,1.28 V 0 1.44 l 0.32,1.28 L -18.08,4 l 0.639999,1.12 0.800002,1.12 0.959999,0.96 1.12,0.8 1.12,0.64 1.28,0.48 1.28,0.32 h 1.44 1.28 L -6.88,9.12 -5.6,8.64 -4.48,8 -3.36,7.2 -2.4,6.24 -1.6,5.12 -0.96,4 -0.48,2.72 -0.16,1.44 0,0 v 0 z"
       style="fill:#000000;fill-opacity:1;fill-rule:evenodd;stroke:none"
       transform="translate(507.35999,910.13328)"
       clip-path="url(#clipPath7)" />
    <path
       id="path8"
       d="M 0,0 -0.16,-1.44 -0.48,-2.72 -0.96,-4 -1.6,-5.12 -2.4,-6.24 -3.36,-7.2 -4.32,-8 -5.6,-8.64 -6.88,-9.12 -8.16,-9.44 h -1.28 -1.44 l -1.28,0.32 -1.28,0.48 -1.12,0.64 -1.12,0.8 -0.959999,0.96 -0.800002,1.12 L -18.08,-4 l -0.479999,1.28 -0.32,1.28 V 0 1.28 l 0.32,1.28 0.479999,1.28 0.639999,1.28 0.800002,0.96 0.959999,0.96 1.12,0.8 1.12,0.64 1.28,0.48 1.28,0.32 1.44,0.16 L -8.16,9.28 -6.88,8.96 -5.6,8.48 -4.32,7.84 -3.36,7.04 -2.4,6.08 -1.6,5.12 -0.96,3.84 -0.48,2.56 -0.16,1.28 0,0 v 0 z"
       style="fill:#000000;fill-opacity:1;fill-rule:evenodd;stroke:none"
       transform="translate(637.76001,911.25327)"
       clip-path="url(#clipPath9)" />
    <path
       id="path10"
       d="M 0,0 -0.16,-1.44 -0.48,-2.72 -0.96,-4 -1.6,-5.12 -2.4,-6.24 -3.36,-7.2 -4.48,-8 -5.6,-8.64 -6.88,-9.12 -8.16,-9.44 h -1.28 -1.44 l -1.28,0.32 -1.28,0.48 -1.12,0.64 -1.12,0.8 -0.959999,0.96 -0.800002,1.12 L -18.08,-4 l -0.479999,1.28 -0.32,1.28 V 0 1.28 l 0.32,1.28 0.479999,1.28 0.639999,1.28 0.800002,0.96 0.959999,0.96 1.12,0.8 1.12,0.64 1.28,0.48 1.28,0.32 1.44,0.16 L -8.16,9.28 -6.88,8.96 -5.6,8.48 -4.48,7.84 -3.36,7.04 -2.4,6.08 -1.6,5.12 -0.96,3.84 -0.48,2.56 -0.16,1.28 0,0"
       style="fill:none;stroke:#000000;stroke-width:0.64;stroke-linecap:round;stroke-linejoin:round;stroke-miterlimit:10;stroke-dasharray:none;stroke-opacity:1"
       transform="translate(635.67999,780.85328)"
       clip-path="url(#clipPath11)" />
    <path
       id="path12"
       d="M 0,0 V -1.28 L -0.32,-2.72 -0.8,-3.84 -1.44,-5.12 -2.24,-6.24 -3.2,-7.04 -4.32,-8 -5.44,-8.64 -6.72,-8.96 -8,-9.28 l -1.44,-0.16 -1.28,0.16 -1.44,0.32 -1.12,0.32 -1.28,0.64 -1.12,0.96 -0.8,0.8 -0.960001,1.12 -0.639999,1.28 -0.479999,1.12 -0.16,1.44 -0.16,1.28 0.16,1.44 0.16,1.28 L -18.08,4 l 0.639999,1.12 0.960001,1.12 0.8,0.96 1.12,0.8 1.28,0.64 1.12,0.48 1.44,0.32 H -9.44 -8 L -6.72,9.12 -5.44,8.64 -4.32,8 -3.2,7.2 -2.24,6.24 -1.44,5.12 -0.8,4 -0.32,2.72 0,1.44 V 0"
       style="fill:none;stroke:#000000;stroke-width:0.64;stroke-linecap:round;stroke-linejoin:round;stroke-miterlimit:10;stroke-dasharray:none;stroke-opacity:1"
       transform="translate(510.39999,779.73327)"
       clip-path="url(#clipPath13)" />
    <path
       id="path14"
       d="m 0,0 -0.16,-1.28 -0.32,-1.28 -0.48,-1.28 -0.64,-1.28 -0.8,-0.96 -0.96,-0.96 -1.12,-0.8 -1.12,-0.64 -1.28,-0.48 -1.28,-0.32 -1.28,-0.16 -1.44,0.16 -1.28,0.32 -1.28,0.48 -1.12,0.64 -1.12,0.8 -0.959999,0.96 -0.800002,0.96 -0.639999,1.28 -0.479999,1.28 -0.32,1.28 V 0 1.44 l 0.32,1.28 L -18.08,4 l 0.639999,1.12 0.800002,1.12 0.959999,0.96 1.12,0.8 1.12,0.64 1.28,0.48 1.28,0.32 h 1.44 1.28 L -6.88,9.12 -5.6,8.64 -4.48,8 -3.36,7.2 -2.4,6.24 -1.6,5.12 -0.96,4 -0.48,2.72 -0.16,1.44 0,0"
       style="fill:none;stroke:#000000;stroke-width:0.64;stroke-linecap:round;stroke-linejoin:round;stroke-miterlimit:10;stroke-dasharray:none;stroke-opacity:1"
       transform="translate(507.35999,910.13328)"
       clip-path="url(#clipPath15)" />
    <path
       id="path16"
       d="M 0,0 -0.16,-1.44 -0.48,-2.72 -0.96,-4 -1.6,-5.12 -2.4,-6.24 -3.36,-7.2 -4.32,-8 -5.6,-8.64 -6.88,-9.12 -8.16,-9.44 h -1.28 -1.44 l -1.28,0.32 -1.28,0.48 -1.12,0.64 -1.12,0.8 -0.959999,0.96 -0.800002,1.12 L -18.08,-4 l -0.479999,1.28 -0.32,1.28 V 0 1.28 l 0.32,1.28 0.479999,1.28 0.639999,1.28 0.800002,0.96 0.959999,0.96 1.12,0.8 1.12,0.64 1.28,0.48 1.28,0.32 1.44,0.16 L -8.16,9.28 -6.88,8.96 -5.6,8.48 -4.32,7.84 -3.36,7.04 -2.4,6.08 -1.6,5.12 -0.96,3.84 -0.48,2.56 -0.16,1.28 0,0"
       style="fill:none;stroke:#000000;stroke-width:0.64;stroke-linecap:round;stroke-linejoin:round;stroke-miterlimit:10;stroke-dasharray:none;stroke-opacity:1"
       transform="translate(637.76001,911.25327)"
       clip-path="url(#clipPath17)" />
  </g>
</svg>
