<?xml version="1.0" encoding="UTF-8" standalone="no"?>
<!-- Created with Inkscape (http://www.inkscape.org/) -->

<svg
   version="1.1"
   id="svg1"
   width="357.51999"
   height="448.48001"
   viewBox="0 0 357.51999 448.48001"
   sodipodi:docname="Pearl.pdf"
   xmlns:inkscape="http://www.inkscape.org/namespaces/inkscape"
   xmlns:sodipodi="http://sodipodi.sourceforge.net/DTD/sodipodi-0.dtd"
   xmlns="http://www.w3.org/2000/svg"
   xmlns:svg="http://www.w3.org/2000/svg">
  <defs
     id="defs1">
    <clipPath
       clipPathUnits="userSpaceOnUse"
       id="clipPath2">
      <path
         d="M 0,0.16 V 1122.5601 H 793.59998 V 0.16 Z"
         transform="translate(-344.79999,-453.60001)"
         clip-rule="evenodd"
         id="path2" />
    </clipPath>
    <clipPath
       clipPathUnits="userSpaceOnUse"
       id="clipPath4">
      <path
         d="M 0,0.16 V 1122.5601 H 793.59998 V 0.16 Z"
         transform="translate(-344.79999,-453.60001)"
         clip-rule="evenodd"
         id="path4" />
    </clipPath>
    <clipPath
       clipPathUnits="userSpaceOnUse"
       id="clipPath6">
      <path
         d="M 0,0.16 V 1122.5601 H 793.59998 V 0.16 Z"
         transform="translate(-551.03998,-450.23999)"
         clip-rule="evenodd"
         id="path6" />
    </clipPath>
  </defs>
  <sodipodi:namedview
     id="namedview1"
     pagecolor="#505050"
     bordercolor="#eeeeee"
     borderopacity="1"
     inkscape:showpageshadow="0"
     inkscape:pageopacity="0"
     inkscape:pagecheckerboard="0"
     inkscape:deskcolor="#505050">
    <inkscape:page
       x="0"
       y="0"
       inkscape:label="1"
       id="page1"
       width="357.51999"
       height="448.48001"
       margin="0"
       bleed="0" />
  </sodipodi:namedview>
  <g
     id="g1"
     inkscape:groupmode="layer"
     inkscape:label="1">
    <path
       id="path1"
       d="m 0,0 -2.56,6.88 -2.24,7.2 -2.24,7.360001 -1.92,7.84 -1.92,7.839998 -1.76,8.16 -1.44,8.479999 -1.44,8.480004 -1.279999,8.799999 -0.960001,8.799995 -0.799999,8.960007 -0.800002,9.119995 L -19.84,107.04 l -0.32,9.12 -0.16,9.28 v 9.12 l 0.16,9.28 0.48,9.12001 0.479999,9.11999 0.800001,9.12 0.959999,8.96 0.960001,8.80001 1.28,8.64 1.44,8.47999 1.6,8.31999 1.76,8.16001 1.92,7.83999 2.08,7.68001 2.24,7.36 2.4,7.2 2.4,6.71999 2.56,6.56002 2.88,6.07999 2.72,5.92001 3.04,5.43998 3.04,5.12002 3.2,4.79999 3.200001,4.32001 3.359998,3.83999 3.520001,3.51999 3.36,3.20001 3.520001,2.56 3.68,2.23999 3.520001,1.76001 3.679996,1.44 3.68,0.79999 3.680001,0.48001 h 3.68 l 3.68,-0.48001 L 64.32,316.16 68,314.72 l 3.68,-1.76001 3.519997,-2.23999 3.520004,-2.56 3.519997,-3.20001 3.36,-3.51999 3.360001,-3.83999 L 92.32,293.28 l 3.040001,-4.79999 3.199997,-5.12002 2.880002,-5.43998 2.88,-5.92001 2.72,-6.07999 2.56,-6.56002 2.56,-6.71999 2.4,-7.2 2.24,-7.36 1.92,-7.68001 1.92,-7.83999 1.76,-8.16001 1.6,-8.31999 1.44,-8.47999 1.28,-8.64 1.12,-8.80001 0.96,-8.96 0.64,-9.12 0.64,-9.11999 0.31999,-9.12001 0.32001,-9.28 v -9.12 l -0.16,-9.28 -0.32,-9.12 -0.63999,-9.120002 -0.64,-9.119995 -0.80001,-8.960007 -1.12,-8.799995 -1.12,-8.799999 -1.44,-8.480004 -1.6,-8.479999 -1.76,-8.16 -1.76,-7.839998 -2.08,-7.84 L 115.2,14.08 112.8,6.88 110.4,0"
       style="fill:none;stroke:#000000;stroke-width:26.4;stroke-linecap:round;stroke-linejoin:round;stroke-miterlimit:10;stroke-dasharray:none;stroke-opacity:1"
       transform="translate(120.67999,105.21328)"
       clip-path="url(#clipPath2)" />
    <path
       id="path3"
       d="m 0,0 1.44,-4 0.96,-4.16 0.8,-4.16 0.32,-4.319999 v -4.16 l -0.32,-4.320002 -0.64,-4.16 -0.96,-4.159998 -1.44,-4 -1.76,-3.84 -1.92,-3.68 -2.4,-3.68 L -8.48,-52 l -2.88,-3.040001 -3.04,-2.879997 -3.36,-2.560002 -3.680001,-2.400001 -3.68,-1.920002 -3.839998,-1.759995 -4,-1.279998 -4.16,-1.120003 -4.16,-0.639999 -4.319999,-0.32 h -4.16 l -4.320004,0.479996 -4.16,0.639999 -4.16,1.120003 -4,1.440002 -3.839996,1.759995 -3.68,2.080001 -3.520004,2.240002 -3.360001,2.720001 -3.039993,2.879998 -2.880005,3.2 -2.559998,3.360001 -2.239998,3.52 -1.920005,3.840001 -1.599999,3.84 -1.440002,4.16 -0.959999,4 -0.64,4.319999 -0.159996,4.16 v 4.32 l 0.479996,4.16 0.800003,4.16 1.120003,4.16"
       style="fill:none;stroke:#000000;stroke-width:26.4;stroke-linecap:round;stroke-linejoin:round;stroke-miterlimit:10;stroke-dasharray:none;stroke-opacity:1"
       transform="translate(120.67999,105.21328)"
       clip-path="url(#clipPath4)" />
    <path
       id="path5"
       d="M 0,0 1.76,-4.16 3.04,-8.48 4.16,-12.8 4.8,-17.280001 4.96,-21.76 v -4.48 l -0.48,-4.479999 -0.8,-4.320002 -1.28,-4.32 -1.6,-4.319999 -1.92,-4 -2.24,-4 -2.4,-3.680001 -2.88,-3.36 -3.2,-3.199997 -3.36,-3.040001 -3.679999,-2.559998 -3.84,-2.400001 -4,-2.080002 -4.16,-1.599998 -4.160002,-1.279999 -4.479999,-0.959999 -4.48,-0.640007 -4.48,-0.159996 -4.479999,0.159996 -4.48,0.480003 -4.319999,0.959999 -4.320004,1.120003 -4.159996,1.759994 -4,1.920006 -4,2.239998 -3.520004,2.559998 -3.519997,2.880001 -3.200004,3.2 -2.879998,3.520001 -2.559997,3.68 -2.240006,3.84 -2.079994,4 -1.599998,4.16 -1.280004,4.32 -0.8,4.479999 -0.64,4.32 -0.16,4.480002 0.32,4.479999 0.64,4.48 0.96,4.48 1.280003,4.16 1.599999,4.32 2.080002,4"
       style="fill:none;stroke:#000000;stroke-width:26.4;stroke-linecap:round;stroke-linejoin:round;stroke-miterlimit:10;stroke-dasharray:none;stroke-opacity:1"
       transform="translate(326.91998,101.85326)"
       clip-path="url(#clipPath6)" />
  </g>
</svg>
