<?xml version="1.0" encoding="UTF-8" standalone="no"?>
<!-- Created with Inkscape (http://www.inkscape.org/) -->

<svg
   version="1.1"
   id="svg1"
   width="517.61334"
   height="384.42667"
   viewBox="0 0 517.61334 384.42667"
   sodipodi:docname="Skull.pdf"
   xmlns:inkscape="http://www.inkscape.org/namespaces/inkscape"
   xmlns:sodipodi="http://sodipodi.sourceforge.net/DTD/sodipodi-0.dtd"
   xmlns="http://www.w3.org/2000/svg"
   xmlns:svg="http://www.w3.org/2000/svg">
  <defs
     id="defs1">
    <clipPath
       clipPathUnits="userSpaceOnUse"
       id="clipPath2">
      <path
         d="M 26.4,26.559999 V 1096.16 H 767.03998 V 26.559999 Z"
         transform="translate(-235.84,-693.44)"
         clip-rule="evenodd"
         id="path2" />
    </clipPath>
    <clipPath
       clipPathUnits="userSpaceOnUse"
       id="clipPath4">
      <path
         d="M 26.4,26.559999 V 1096.16 H 767.03998 V 26.559999 Z"
         transform="translate(-236.32001,-693.44)"
         clip-rule="evenodd"
         id="path4" />
    </clipPath>
    <clipPath
       clipPathUnits="userSpaceOnUse"
       id="clipPath6">
      <path
         d="M 26.4,26.559999 V 1096.16 H 767.03998 V 26.559999 Z"
         transform="translate(-538.23999,-693.44)"
         clip-rule="evenodd"
         id="path6" />
    </clipPath>
    <clipPath
       clipPathUnits="userSpaceOnUse"
       id="clipPath8">
      <path
         d="M 26.4,26.559999 V 1096.16 H 767.03998 V 26.559999 Z"
         clip-rule="evenodd"
         id="path8" />
    </clipPath>
  </defs>
  <sodipodi:namedview
     id="namedview1"
     pagecolor="#505050"
     bordercolor="#eeeeee"
     borderopacity="1"
     inkscape:showpageshadow="0"
     inkscape:pageopacity="0"
     inkscape:pagecheckerboard="0"
     inkscape:deskcolor="#505050">
    <inkscape:page
       x="0"
       y="0"
       inkscape:label="1"
       id="page1"
       width="517.61334"
       height="384.42667"
       margin="0"
       bleed="0" />
  </sodipodi:namedview>
  <g
     id="g1"
     inkscape:groupmode="layer"
     inkscape:label="1">
    <path
       id="path1"
       d="m 0,0 3.2,-10.24 2.72,-10.24 2.72,-10.239999 2.56,-10.24 2.4,-10.080002 2.08,-9.919998 1.92,-9.919998 1.92,-9.760002 1.600001,-9.599999 1.279999,-9.279999 1.28,-9.120003 0.959999,-8.96 0.800002,-8.8 0.639999,-8.32 0.32,-8.16 0.159999,-8 v -7.51999 L 26.24,-165.60001 25.76,-172.48 25.120001,-179.03999 24.32,-185.28 23.200001,-191.03999 21.92,-196.48 l -1.44,-4.96 -1.760001,-4.64 -1.76,-4.16 -2.079999,-3.68 -2.24,-3.36 -2.4,-2.88 -2.56,-2.4 -2.72,-1.92 -3.04,-1.44 -3.04,-0.96 -3.2,-0.64 h -3.36 l -3.52,0.32 -3.68,0.80001 -3.679999,1.28 -4,1.75999 -4,2.24001 -4,2.72 -4.160002,3.19999 -4.32,3.52001 -4.32,4 -4.479999,4.47999 -4.32,4.80001 -4.639999,5.28 -4.48,5.59999 -4.639999,6.08 -4.480004,6.40001 -4.639999,6.55999"
       style="fill:none;stroke:#000000;stroke-width:26.4;stroke-linecap:round;stroke-linejoin:round;stroke-miterlimit:10;stroke-dasharray:none;stroke-opacity:1"
       transform="translate(235.84,692.10661)"
       clip-path="url(#clipPath2)" />
    <path
       id="path3"
       d="m 0,0 11.2,5.76 11.519999,5.28 11.520003,4.8 11.84,4.32 12,3.84 12,3.52 12.32,2.88 12.319999,2.399999 L 107.2,34.880001 119.68,36.32 l 12.48,0.959999 12.64,0.479999 h 12.48 L 169.92,37.279999 182.39999,36.32 194.88,34.880001 207.36,32.799999 219.67999,30.4 232,27.52 244,24 256,20.16 267.84,15.84 279.35999,11.04 290.88,5.76 301.92001,0"
       style="fill:none;stroke:#000000;stroke-width:26.4;stroke-linecap:round;stroke-linejoin:round;stroke-miterlimit:10;stroke-dasharray:none;stroke-opacity:1"
       transform="translate(236.32001,692.10661)"
       clip-path="url(#clipPath4)" />
    <path
       id="path5"
       d="m 0,0 8.48,-16.48 7.84,-16.639999 7.36,-16.960003 6.879999,-17.119995 6.4,-17.440002 5.920002,-17.440001 5.599999,-17.76 4.959999,-17.76001 4.479999,-17.91999 4,-18.08001 3.360001,-18.07998 L 68.32,-209.92 l 2.559997,-18.40001 1.920006,-18.23999 1.439995,-18.56 0.959999,-18.39999 0.32,-18.56"
       style="fill:none;stroke:#000000;stroke-width:26.4;stroke-linecap:round;stroke-linejoin:round;stroke-miterlimit:10;stroke-dasharray:none;stroke-opacity:1"
       transform="translate(538.23999,692.10661)"
       clip-path="url(#clipPath6)" />
    <path
       id="path7"
       d="m 576.15997,391.51999 h 56.64002"
       style="fill:none;stroke:#000000;stroke-width:26.4;stroke-linecap:round;stroke-linejoin:round;stroke-miterlimit:10;stroke-dasharray:none;stroke-opacity:1"
       transform="translate(0,-1.333392)"
       clip-path="url(#clipPath8)" />
  </g>
</svg>
