<?xml version="1.0" encoding="UTF-8" standalone="no"?>
<!-- Created with Inkscape (http://www.inkscape.org/) -->

<svg
   version="1.1"
   id="svg1"
   width="513.59998"
   height="264.29333"
   viewBox="0 0 513.59998 264.29333"
   sodipodi:docname="Urine14.pdf"
   xmlns:inkscape="http://www.inkscape.org/namespaces/inkscape"
   xmlns:sodipodi="http://sodipodi.sourceforge.net/DTD/sodipodi-0.dtd"
   xmlns="http://www.w3.org/2000/svg"
   xmlns:svg="http://www.w3.org/2000/svg">
  <defs
     id="defs1">
    <clipPath
       clipPathUnits="userSpaceOnUse"
       id="clipPath2">
      <path
         d="M 0,0.16 V 1122.5601 H 793.59998 V 0.16 Z"
         transform="translate(-260.79999,-546.08002)"
         clip-rule="evenodd"
         id="path2" />
    </clipPath>
    <clipPath
       clipPathUnits="userSpaceOnUse"
       id="clipPath4">
      <path
         d="M 0,0.16 V 1122.5601 H 793.59998 V 0.16 Z"
         clip-rule="evenodd"
         id="path4" />
    </clipPath>
    <clipPath
       clipPathUnits="userSpaceOnUse"
       id="clipPath6">
      <path
         d="M 0,0.16 V 1122.5601 H 793.59998 V 0.16 Z"
         clip-rule="evenodd"
         id="path6" />
    </clipPath>
  </defs>
  <sodipodi:namedview
     id="namedview1"
     pagecolor="#505050"
     bordercolor="#eeeeee"
     borderopacity="1"
     inkscape:showpageshadow="0"
     inkscape:pageopacity="0"
     inkscape:pagecheckerboard="0"
     inkscape:deskcolor="#505050">
    <inkscape:page
       x="0"
       y="0"
       inkscape:label="1"
       id="page1"
       width="513.59998"
       height="264.29333"
       margin="0"
       bleed="0" />
  </sodipodi:namedview>
  <g
     id="g1"
     inkscape:groupmode="layer"
     inkscape:label="1">
    <path
       id="path1"
       d="m 0,0 -6.08,0.32 -6.08,0.64 -6.08,1.12 -6.08,1.44 -5.92,1.76 -5.76,2.4 -5.599998,2.56 -5.440003,3.04 -5.119999,3.359999 -4.959999,3.840001 -4.639999,4 -4.320004,4.479999 -4.159996,4.639999 -3.68,4.800004 -3.360001,5.279998 -3.040001,5.439999 -2.720001,5.440002 -2.239998,5.759999 -1.919998,5.919998 -1.440002,6.080002 -0.959999,6.080002 -0.64,6.080001 -0.32,6.239998 0.32,6.239998 0.64,6.080001 0.959999,6.08 1.440002,6.08 1.919998,5.92 2.239998,5.76 2.720001,5.6 3.040001,5.27999 3.360001,5.28 3.68,4.96001 4.159996,4.64 4.320004,4.32001 4.639999,4 4.959999,3.83999 5.119999,3.36 5.440003,3.04 5.599998,2.72 5.76,2.24 5.92,1.76 6.08,1.6 6.08,0.96 6.08,0.63999 6.24,0.16001 6.08,-0.16001 6.24,-0.63999 6.079999,-0.96 6.08,-1.6 5.760001,-1.76 5.76,-2.24 5.599998,-2.72 5.440003,-3.04 5.119999,-3.36 4.959999,-3.83999 4.639999,-4 4.480004,-4.32001 4,-4.64 3.68,-4.96001 3.519996,-5.28 3.040001,-5.27999 2.559998,-5.6 2.240005,-5.76 1.919999,-5.92 1.440002,-6.08 1.119995,-6.08 0.64,-6.080001 0.160003,-6.239998"
       style="fill:none;stroke:#000000;stroke-width:26.4;stroke-linecap:round;stroke-linejoin:round;stroke-miterlimit:10;stroke-dasharray:none;stroke-opacity:1"
       transform="translate(260.79999,416.61329)"
       clip-path="url(#clipPath2)" />
    <path
       id="path3"
       d="M 351.51999,636.79999 H 623.35998"
       style="fill:none;stroke:#000000;stroke-width:26.4;stroke-linecap:round;stroke-linejoin:round;stroke-miterlimit:10;stroke-dasharray:none;stroke-opacity:1"
       transform="translate(0,-129.46673)"
       clip-path="url(#clipPath4)" />
    <path
       id="path5"
       d="M 487.51999,546.23999 V 727.35998"
       style="fill:none;stroke:#000000;stroke-width:26.4;stroke-linecap:round;stroke-linejoin:round;stroke-miterlimit:10;stroke-dasharray:none;stroke-opacity:1"
       transform="translate(0,-129.46673)"
       clip-path="url(#clipPath6)" />
  </g>
</svg>
