<?xml version="1.0" encoding="UTF-8" standalone="no"?>
<!-- Created with Inkscape (http://www.inkscape.org/) -->

<svg
   version="1.1"
   id="svg1"
   width="506.93332"
   height="505.89334"
   viewBox="0 0 506.93332 505.89334"
   sodipodi:docname="Urine13.pdf"
   xmlns:inkscape="http://www.inkscape.org/namespaces/inkscape"
   xmlns:sodipodi="http://sodipodi.sourceforge.net/DTD/sodipodi-0.dtd"
   xmlns="http://www.w3.org/2000/svg"
   xmlns:svg="http://www.w3.org/2000/svg">
  <defs
     id="defs1">
    <clipPath
       clipPathUnits="userSpaceOnUse"
       id="clipPath2">
      <path
         d="M 0,0.16 V 1122.5601 H 793.59998 V 0.16 Z"
         transform="translate(-510.07999,-636.79999)"
         clip-rule="evenodd"
         id="path2" />
    </clipPath>
    <clipPath
       clipPathUnits="userSpaceOnUse"
       id="clipPath4">
      <path
         d="M 0,0.16 V 1122.5601 H 793.59998 V 0.16 Z"
         transform="translate(-396.79999,-410.23999)"
         clip-rule="evenodd"
         id="path4" />
    </clipPath>
    <clipPath
       clipPathUnits="userSpaceOnUse"
       id="clipPath6">
      <path
         d="M 0,0.16 V 1122.5601 H 793.59998 V 0.16 Z"
         transform="translate(-283.51999,-440.48002)"
         clip-rule="evenodd"
         id="path6" />
    </clipPath>
    <clipPath
       clipPathUnits="userSpaceOnUse"
       id="clipPath8">
      <path
         d="M 0,0.16 V 1122.5601 H 793.59998 V 0.16 Z"
         transform="translate(-200.64,-523.52002)"
         clip-rule="evenodd"
         id="path8" />
    </clipPath>
    <clipPath
       clipPathUnits="userSpaceOnUse"
       id="clipPath10">
      <path
         d="M 0,0.16 V 1122.5601 H 793.59998 V 0.16 Z"
         transform="translate(-170.24,-636.79999)"
         clip-rule="evenodd"
         id="path10" />
    </clipPath>
    <clipPath
       clipPathUnits="userSpaceOnUse"
       id="clipPath12">
      <path
         d="M 0,0.16 V 1122.5601 H 793.59998 V 0.16 Z"
         transform="translate(-200.64,-750.08002)"
         clip-rule="evenodd"
         id="path12" />
    </clipPath>
    <clipPath
       clipPathUnits="userSpaceOnUse"
       id="clipPath14">
      <path
         d="M 0,0.16 V 1122.5601 H 793.59998 V 0.16 Z"
         transform="translate(-283.51999,-832.96003)"
         clip-rule="evenodd"
         id="path14" />
    </clipPath>
    <clipPath
       clipPathUnits="userSpaceOnUse"
       id="clipPath16">
      <path
         d="M 0,0.16 V 1122.5601 H 793.59998 V 0.16 Z"
         transform="translate(-396.79999,-863.35999)"
         clip-rule="evenodd"
         id="path16" />
    </clipPath>
    <clipPath
       clipPathUnits="userSpaceOnUse"
       id="clipPath18">
      <path
         d="M 0,0.16 V 1122.5601 H 793.59998 V 0.16 Z"
         transform="translate(-510.07999,-832.96003)"
         clip-rule="evenodd"
         id="path18" />
    </clipPath>
    <clipPath
       clipPathUnits="userSpaceOnUse"
       id="clipPath20">
      <path
         d="M 0,0.16 V 1122.5601 H 793.59998 V 0.16 Z"
         transform="translate(-592.96002,-750.08002)"
         clip-rule="evenodd"
         id="path20" />
    </clipPath>
    <clipPath
       clipPathUnits="userSpaceOnUse"
       id="clipPath22">
      <path
         d="M 0,0.16 V 1122.5601 H 793.59998 V 0.16 Z"
         transform="translate(-623.35998,-636.79999)"
         clip-rule="evenodd"
         id="path22" />
    </clipPath>
    <clipPath
       clipPathUnits="userSpaceOnUse"
       id="clipPath24">
      <path
         d="M 0,0.16 V 1122.5601 H 793.59998 V 0.16 Z"
         transform="translate(-592.96002,-523.52002)"
         clip-rule="evenodd"
         id="path24" />
    </clipPath>
    <clipPath
       clipPathUnits="userSpaceOnUse"
       id="clipPath26">
      <path
         d="M 0,0.16 V 1122.5601 H 793.59998 V 0.16 Z"
         transform="translate(-510.07999,-440.48002)"
         clip-rule="evenodd"
         id="path26" />
    </clipPath>
  </defs>
  <sodipodi:namedview
     id="namedview1"
     pagecolor="#505050"
     bordercolor="#eeeeee"
     borderopacity="1"
     inkscape:showpageshadow="0"
     inkscape:pageopacity="0"
     inkscape:pagecheckerboard="0"
     inkscape:deskcolor="#505050">
    <inkscape:page
       x="0"
       y="0"
       inkscape:label="1"
       id="page1"
       width="506.93332"
       height="505.89334"
       margin="0"
       bleed="0" />
  </sodipodi:namedview>
  <g
     id="g1"
     inkscape:groupmode="layer"
     inkscape:label="1">
    <path
       id="path1"
       d="m 0,0 c 0,-62.560001 -50.709999,-113.28 -113.28,-113.28 -62.57001,0 -113.28,50.719999 -113.28,113.28 0,62.560001 50.70999,113.28 113.28,113.28 C -50.709999,113.28 0,62.560001 0,0 Z"
       style="fill:none;stroke:#000000;stroke-width:26.4;stroke-linecap:round;stroke-linejoin:round;stroke-miterlimit:10;stroke-dasharray:none;stroke-opacity:1"
       transform="translate(510.07999,489.97326)"
       clip-path="url(#clipPath2)" />
    <path
       id="path3"
       d="m 0,0 -4.32,2.08 -4.16,2.4 -4,2.56 -3.84,3.04 -3.52,3.2 -3.200001,3.519999 -3.039999,3.84 -2.559999,4 -2.400002,4.16 -2.079998,4.48 -1.600002,4.479999 L -36,42.400002 l -0.959999,4.639999 -0.48,4.799999 -0.319999,4.799999 0.319999,4.8 0.48,4.799999 0.959999,4.800003 1.279999,4.479996 1.600002,4.640007 2.079998,4.319999 2.400002,4.159996 2.559999,4 3.039999,3.840004 L -19.84,100 l 3.52,3.2 3.84,3.04 4,2.72 4.16,2.4 4.32,1.92"
       style="fill:none;stroke:#000000;stroke-width:26.4;stroke-linecap:round;stroke-linejoin:round;stroke-miterlimit:10;stroke-dasharray:none;stroke-opacity:1"
       transform="translate(396.79999,263.41326)"
       clip-path="url(#clipPath4)" />
    <path
       id="path5"
       d="m 0,0 -2.72,4 -2.4,4.16 -2.24,4.32 -1.76,4.479999 -1.28,4.640001 -1.12,4.64 -0.64,4.800001 -0.32,4.799999 v 4.799999 l 0.48,4.8 0.8,4.800003 1.12,4.639999 1.6,4.48 L -6.56,63.84 -4.32,68 -1.76,72.160004 1.12,76 l 3.2,3.68 3.36,3.360001 3.68,3.040001 4,2.720001 4.16,2.559998 4.32,2.080001 4.48,1.759995 4.479999,1.440002 4.799999,1.120003 4.640004,0.64 4.799999,0.319999 H 51.84 l 4.799999,-0.639999"
       style="fill:none;stroke:#000000;stroke-width:26.4;stroke-linecap:round;stroke-linejoin:round;stroke-miterlimit:10;stroke-dasharray:none;stroke-opacity:1"
       transform="translate(283.51999,293.65329)"
       clip-path="url(#clipPath6)" />
    <path
       id="path7"
       d="m 0,0 -0.48,4.8 v 4.8 l 0.32,4.8 0.64,4.800001 1.12,4.639999 1.44,4.64 1.76,4.479999 2.24,4.32 2.4,4.16 2.72,3.84 3.2,3.68 3.359999,3.520001 3.520001,3.04 3.84,2.880002 4.16,2.559997 4.160002,2.240002 4.479999,1.920002 4.48,1.599998 L 48,67.839996 l 4.799999,0.960007 4.799999,0.32 4.800004,0.159996 4.799995,-0.32 L 72,68.32 l 4.639999,-1.120003 4.64,-1.439995 L 85.760002,64 l 4.32,-2.080002 4.159996,-2.559997 3.840004,-2.720002"
       style="fill:none;stroke:#000000;stroke-width:26.4;stroke-linecap:round;stroke-linejoin:round;stroke-miterlimit:10;stroke-dasharray:none;stroke-opacity:1"
       transform="translate(200.64,376.69329)"
       clip-path="url(#clipPath8)" />
    <path
       id="path9"
       d="m 0,0 2.08,4.32 2.4,4.32 2.72,4 2.88,3.68 3.36,3.52 3.519999,3.360001 3.68,2.879999 4,2.719999 4.32,2.240002 4.32,2.079998 4.479999,1.600002 4.640004,1.439999 4.799999,0.799999 4.639999,0.639999 4.799999,0.16 4.8,-0.16 4.799999,-0.639999 L 71.040001,36.16 75.68,34.720001 l 4.480004,-1.600002 4.319999,-2.079998 4.159996,-2.240002 4,-2.719999 3.840004,-2.879999 L 100,19.84 l 3.36,-3.52 2.88,-3.68 2.72,-4 2.4,-4.32 1.92,-4.32"
       style="fill:none;stroke:#000000;stroke-width:26.4;stroke-linecap:round;stroke-linejoin:round;stroke-miterlimit:10;stroke-dasharray:none;stroke-opacity:1"
       transform="translate(170.24,489.97326)"
       clip-path="url(#clipPath10)" />
    <path
       id="path11"
       d="m 0,0 4,2.72 4.16,2.56 4.32,2.08 4.319999,1.76 4.640002,1.44 4.799999,0.96 4.639999,0.8 4.800001,0.32 4.8,-0.16 4.799999,-0.48 4.800003,-0.8 4.639999,-1.12 4.48,-1.6 L 63.68,6.56 68,4.32 l 4,-2.56 3.839996,-2.88 3.680001,-3.04 3.36,-3.52 3.040001,-3.68 2.720001,-4 2.559998,-4.000001 2.080002,-4.319999 1.760002,-4.48 1.440002,-4.639999 1.119995,-4.64 0.64,-4.800003 0.32,-4.799999 V -51.84 l -0.479996,-4.799999"
       style="fill:none;stroke:#000000;stroke-width:26.4;stroke-linecap:round;stroke-linejoin:round;stroke-miterlimit:10;stroke-dasharray:none;stroke-opacity:1"
       transform="translate(200.64,603.25329)"
       clip-path="url(#clipPath12)" />
    <path
       id="path13"
       d="M 0,0 4.8,0.48 H 9.6 L 14.4,0.16 19.200001,-0.48 23.84,-1.6 l 4.64,-1.44 4.479999,-1.76 4.32,-2.08 4.16,-2.56 3.84,-2.72 3.68,-3.04 3.520001,-3.359999 3.2,-3.680001 2.880001,-3.84 2.559998,-4 2.240002,-4.320002 1.919998,-4.319999 1.440002,-4.64 L 68,-48 l 0.800003,-4.799999 0.479996,-4.799999 v -4.800004 l -0.32,-4.799995 L 68.32,-71.839996 67.199997,-76.639999 65.760002,-81.120003 64,-85.599998 l -2.080002,-4.32 -2.399998,-4.160004 -2.880001,-4"
       style="fill:none;stroke:#000000;stroke-width:26.4;stroke-linecap:round;stroke-linejoin:round;stroke-miterlimit:10;stroke-dasharray:none;stroke-opacity:1"
       transform="translate(283.51999,686.1333)"
       clip-path="url(#clipPath14)" />
    <path
       id="path15"
       d="m 0,0 4.48,-2.08 4.16,-2.24 4,-2.72 3.68,-3.04 3.52,-3.2 3.360001,-3.519999 2.879999,-3.84 2.719999,-4 2.400002,-4.16 1.919998,-4.32 1.760002,-4.639999 1.279999,-4.640004 0.959999,-4.639999 0.479999,-4.799999 0.16,-4.799999 -0.16,-4.8 -0.479999,-4.799999 -0.959999,-4.639999 -1.279999,-4.64 L 33.119999,-80 l -1.919998,-4.480003 -2.400002,-4.159996 -2.719999,-4 -2.879999,-3.840004 L 19.84,-100 l -3.52,-3.2 -3.68,-3.04 -4,-2.72 -4.16,-2.24 -4.48,-2.08"
       style="fill:none;stroke:#000000;stroke-width:26.4;stroke-linecap:round;stroke-linejoin:round;stroke-miterlimit:10;stroke-dasharray:none;stroke-opacity:1"
       transform="translate(396.79999,716.53326)"
       clip-path="url(#clipPath16)" />
    <path
       id="path17"
       d="m 0,0 2.88,-3.84 2.4,-4.16 2.08,-4.32 1.76,-4.479999 1.44,-4.640002 1.12,-4.639999 0.64,-4.799999 0.32,-4.800001 -0.16,-4.8 -0.32,-4.799999 -0.8,-4.639999 -1.28,-4.800003 -1.44,-4.48 L 6.72,-63.68 4.48,-67.839996 1.92,-72 l -2.88,-3.839996 -3.2,-3.520005 -3.52,-3.36 -3.68,-3.199997 -3.84,-2.720001 -4.160001,-2.400002 -4.319999,-2.239998 -4.48,-1.760002 -4.639999,-1.440002 -4.64,-0.959999 -4.800003,-0.799996 -4.799999,-0.32 -4.799999,0.159996 -4.799999,0.32"
       style="fill:none;stroke:#000000;stroke-width:26.4;stroke-linecap:round;stroke-linejoin:round;stroke-miterlimit:10;stroke-dasharray:none;stroke-opacity:1"
       transform="translate(510.07999,686.1333)"
       clip-path="url(#clipPath18)" />
    <path
       id="path19"
       d="m 0,0 0.48,-4.8 0.16,-4.8 -0.32,-4.8 -0.8,-4.800001 -1.12,-4.639999 -1.28,-4.64 -1.92,-4.479999 -2.08,-4.32 -2.4,-4 -2.88,-4 -3.04,-3.68 -3.359999,-3.360001 -3.680001,-3.2 -3.84,-2.880002 -4,-2.559997 -4.320002,-2.240002 -4.319999,-1.920002 -4.64,-1.599998 L -48,-67.839996 l -4.639999,-0.800003 -4.8,-0.480004 -4.800003,-0.159996 -4.799999,0.32 -4.799995,0.799995 -4.800003,0.960007 -4.480004,1.439995 -4.479995,1.760002 -4.32,2.080002 -4.160004,2.559997 -4,2.720002"
       style="fill:none;stroke:#000000;stroke-width:26.4;stroke-linecap:round;stroke-linejoin:round;stroke-miterlimit:10;stroke-dasharray:none;stroke-opacity:1"
       transform="translate(592.96002,603.25329)"
       clip-path="url(#clipPath20)" />
    <path
       id="path21"
       d="m 0,0 -1.92,-4.32 -2.4,-4.16 -2.72,-4 -3.04,-3.84 -3.2,-3.52 -3.519999,-3.200001 -3.84,-3.039999 -4,-2.719999 -4.16,-2.240002 -4.32,-2.079998 -4.479999,-1.600002 L -42.240002,-36 l -4.799999,-0.959999 -4.799999,-0.639999 -4.799999,-0.16 -4.8,0.16 -4.799999,0.639999 -4.639999,0.959999 -4.64,1.279999 -4.480003,1.600002 -4.480003,2.079998 -4.159996,2.240002 -4,2.719999 -3.680001,3.039999 -3.68,3.200001 -3.2,3.52 -3.04,3.84 -2.56,4 -2.4,4.16 -2.08,4.32"
       style="fill:none;stroke:#000000;stroke-width:26.4;stroke-linecap:round;stroke-linejoin:round;stroke-miterlimit:10;stroke-dasharray:none;stroke-opacity:1"
       transform="translate(623.35998,489.97326)"
       clip-path="url(#clipPath22)" />
    <path
       id="path23"
       d="m 0,0 -3.84,-2.72 -4.16,-2.4 -4.32,-2.24 -4.479999,-1.76 -4.640002,-1.44 -4.639999,-0.96 -4.799999,-0.8 -4.800001,-0.16 h -4.8 l -4.799999,0.48 -4.639999,0.8 -4.640003,1.12 -4.64,1.6 -4.319999,1.92 -4.319996,2.24 -4,2.56 -4,2.88 -3.520005,3.2 -3.36,3.36 -3.040001,3.68 -2.879997,4 -2.400002,4.16 -2.080002,4.16 -1.919998,4.48 -1.440002,4.639999 -0.959999,4.64 -0.799996,4.800003 -0.32,4.799999 0.159996,4.799999 0.32,4.799999"
       style="fill:none;stroke:#000000;stroke-width:26.4;stroke-linecap:round;stroke-linejoin:round;stroke-miterlimit:10;stroke-dasharray:none;stroke-opacity:1"
       transform="translate(592.96002,376.69329)"
       clip-path="url(#clipPath24)" />
    <path
       id="path25"
       d="M 0,0 -4.8,-0.32 H -9.6 L -14.4,0 -19.040001,0.64 -23.84,1.76 l -4.48,1.44 -4.479999,1.76 -4.32,2.08 -4.16,2.56 -4,2.72 -3.68,3.04 -3.360001,3.359999 -3.2,3.680001 -2.880002,3.84 -2.559997,4 -2.240002,4.320001 -1.920002,4.48 -1.599998,4.479999 -1.119995,4.64 -0.800003,4.799999 -0.480004,4.799999 v 4.800003 l 0.32,4.8 0.639999,4.800003 0.960007,4.639999 1.439995,4.639999 1.760002,4.479996 2.240002,4.32 2.399997,4 2.720002,3.840004"
       style="fill:none;stroke:#000000;stroke-width:26.4;stroke-linecap:round;stroke-linejoin:round;stroke-miterlimit:10;stroke-dasharray:none;stroke-opacity:1"
       transform="translate(510.07999,293.65329)"
       clip-path="url(#clipPath26)" />
  </g>
</svg>
