<?xml version="1.0" encoding="UTF-8" standalone="no"?>
<!-- Created with Inkscape (http://www.inkscape.org/) -->

<svg
   version="1.1"
   id="svg1"
   width="278.81332"
   height="351.05334"
   viewBox="0 0 278.81332 351.05334"
   sodipodi:docname="Anneal5.pdf"
   xmlns:inkscape="http://www.inkscape.org/namespaces/inkscape"
   xmlns:sodipodi="http://sodipodi.sourceforge.net/DTD/sodipodi-0.dtd"
   xmlns="http://www.w3.org/2000/svg"
   xmlns:svg="http://www.w3.org/2000/svg">
  <defs
     id="defs1">
    <clipPath
       clipPathUnits="userSpaceOnUse"
       id="clipPath2">
      <path
         d="M 0,0.16 V 1122.5601 H 793.59998 V 0.16 Z"
         transform="translate(3.3333334e-6)"
         clip-rule="evenodd"
         id="path2" />
    </clipPath>
    <clipPath
       clipPathUnits="userSpaceOnUse"
       id="clipPath4">
      <path
         d="M 0,0.16 V 1122.5601 H 793.59998 V 0.16 Z"
         transform="translate(3.3333334e-6)"
         clip-rule="evenodd"
         id="path4" />
    </clipPath>
    <clipPath
       clipPathUnits="userSpaceOnUse"
       id="clipPath6">
      <path
         d="M 0,0.16 V 1122.5601 H 793.59998 V 0.16 Z"
         transform="translate(-459.84,-592)"
         clip-rule="evenodd"
         id="path6" />
    </clipPath>
    <clipPath
       clipPathUnits="userSpaceOnUse"
       id="clipPath8">
      <path
         d="M 0,0.16 V 1122.5601 H 793.59998 V 0.16 Z"
         transform="translate(-459.84,-712.79999)"
         clip-rule="evenodd"
         id="path8" />
    </clipPath>
    <clipPath
       clipPathUnits="userSpaceOnUse"
       id="clipPath10">
      <path
         d="M 0,0.16 V 1122.5601 H 793.59998 V 0.16 Z"
         transform="translate(3.3333334e-6)"
         clip-rule="evenodd"
         id="path10" />
    </clipPath>
    <clipPath
       clipPathUnits="userSpaceOnUse"
       id="clipPath12">
      <path
         d="M 0,0.16 V 1122.5601 H 793.59998 V 0.16 Z"
         transform="translate(3.3333334e-6)"
         clip-rule="evenodd"
         id="path12" />
    </clipPath>
  </defs>
  <sodipodi:namedview
     id="namedview1"
     pagecolor="#505050"
     bordercolor="#eeeeee"
     borderopacity="1"
     inkscape:showpageshadow="0"
     inkscape:pageopacity="0"
     inkscape:pagecheckerboard="0"
     inkscape:deskcolor="#505050">
    <inkscape:page
       x="0"
       y="0"
       inkscape:label="1"
       id="page1"
       width="278.81332"
       height="351.05334"
       margin="0"
       bleed="0" />
  </sodipodi:namedview>
  <g
     id="g1"
     inkscape:groupmode="layer"
     inkscape:label="1">
    <path
       id="path1"
       d="m 396.79999,410.23999 -113.28,151.04004 h 226.56 l -113.28,-151.04004"
       style="fill:none;stroke:#000000;stroke-width:26.4;stroke-linecap:round;stroke-linejoin:round;stroke-miterlimit:10;stroke-dasharray:none;stroke-opacity:1"
       transform="translate(-253.46667,-383.08006)"
       clip-path="url(#clipPath2)" />
    <path
       id="path3"
       d="M 396.79999,561.28003 V 712.32001 H 321.28"
       style="fill:none;stroke:#000000;stroke-width:26.4;stroke-linecap:round;stroke-linejoin:round;stroke-miterlimit:10;stroke-dasharray:none;stroke-opacity:1"
       transform="translate(-253.46667,-383.08006)"
       clip-path="url(#clipPath4)" />
    <path
       id="path5"
       d="m 0,0 -3.04,0.16 -2.88,0.48 -2.88,0.64 -2.88,0.96 -2.56,1.28 -2.559999,1.6 -2.400002,1.76 -2.24,1.92 -1.92,2.24 -1.76,2.4 L -26.719999,16 -28,18.719999 -28.959999,21.440001 -29.76,24.32 l -0.32,2.880001 -0.16,3.039999 0.16,2.879999 0.32,3.040001 0.800001,2.880001 L -28,41.759998 -26.719999,44.48 l 1.599998,2.560001 1.76,2.399998 1.92,2.080001 2.24,2.079998 2.400002,1.760003 2.559999,1.439998 2.56,1.280003 2.88,1.119999 2.88,0.639999 2.88,0.48 3.04,0.16"
       style="fill:none;stroke:#000000;stroke-width:26.4;stroke-linecap:round;stroke-linejoin:round;stroke-miterlimit:10;stroke-dasharray:none;stroke-opacity:1"
       transform="translate(206.37333,208.91994)"
       clip-path="url(#clipPath6)" />
    <path
       id="path7"
       d="m 0,0 2.88,-0.16 2.88,-0.32 2.88,-0.8 2.88,-0.96 2.72,-1.28 2.559999,-1.6 2.240002,-1.76 2.24,-1.92 2.08,-2.24 1.76,-2.4 L 26.559999,-16 27.84,-18.559999 28.799999,-21.440001 29.6,-24.32 30.08,-27.200001 V -30.24 -33.119999 L 29.6,-36 28.799999,-38.880001 27.84,-41.759998 26.559999,-44.48 l -1.439998,-2.400001 -1.76,-2.399998 -2.08,-2.240001 -2.24,-1.919999 -2.240002,-1.920002 L 14.24,-56.799999 11.52,-58.080002 8.64,-59.040001 5.76,-59.84 2.88,-60.16 0,-60.32"
       style="fill:none;stroke:#000000;stroke-width:26.4;stroke-linecap:round;stroke-linejoin:round;stroke-miterlimit:10;stroke-dasharray:none;stroke-opacity:1"
       transform="translate(206.37333,329.71993)"
       clip-path="url(#clipPath8)" />
    <path
       id="path9"
       d="m 459.84,592 h 30.08001"
       style="fill:none;stroke:#000000;stroke-width:26.4;stroke-linecap:round;stroke-linejoin:round;stroke-miterlimit:10;stroke-dasharray:none;stroke-opacity:1"
       transform="translate(-253.46667,-383.08006)"
       clip-path="url(#clipPath10)" />
    <path
       id="path11"
       d="M 459.84,712.79999 H 429.60001"
       style="fill:none;stroke:#000000;stroke-width:26.4;stroke-linecap:round;stroke-linejoin:round;stroke-miterlimit:10;stroke-dasharray:none;stroke-opacity:1"
       transform="translate(-253.46667,-383.08006)"
       clip-path="url(#clipPath12)" />
  </g>
</svg>
