<?xml version="1.0" encoding="UTF-8" standalone="no"?>
<!-- Created with Inkscape (http://www.inkscape.org/) -->

<svg
   version="1.1"
   id="svg1"
   width="336.17334"
   height="425.79999"
   viewBox="0 0 336.17334 425.79999"
   sodipodi:docname="Anneal4.pdf"
   xmlns:inkscape="http://www.inkscape.org/namespaces/inkscape"
   xmlns:sodipodi="http://sodipodi.sourceforge.net/DTD/sodipodi-0.dtd"
   xmlns="http://www.w3.org/2000/svg"
   xmlns:svg="http://www.w3.org/2000/svg">
  <defs
     id="defs1">
    <clipPath
       clipPathUnits="userSpaceOnUse"
       id="clipPath2">
      <path
         d="M 0,0.16 V 1122.5601 H 793.59998 V 0.16 Z"
         transform="translate(-360.32,-479.04001)"
         clip-rule="evenodd"
         id="path2" />
    </clipPath>
    <clipPath
       clipPathUnits="userSpaceOnUse"
       id="clipPath4">
      <path
         d="M 0,0.16 V 1122.5601 H 793.59998 V 0.16 Z"
         transform="translate(-3.3333334e-6)"
         clip-rule="evenodd"
         id="path4" />
    </clipPath>
    <clipPath
       clipPathUnits="userSpaceOnUse"
       id="clipPath6">
      <path
         d="M 0,0.16 V 1122.5601 H 793.59998 V 0.16 Z"
         transform="translate(-281.92001,-471.20002)"
         clip-rule="evenodd"
         id="path6" />
    </clipPath>
    <clipPath
       clipPathUnits="userSpaceOnUse"
       id="clipPath8">
      <path
         d="M 0,0.16 V 1122.5601 H 793.59998 V 0.16 Z"
         transform="translate(-429.92001,-500.79999)"
         clip-rule="evenodd"
         id="path8" />
    </clipPath>
    <clipPath
       clipPathUnits="userSpaceOnUse"
       id="clipPath10">
      <path
         d="M 0,0.16 V 1122.5601 H 793.59998 V 0.16 Z"
         transform="translate(-355.20001,-707.03998)"
         clip-rule="evenodd"
         id="path10" />
    </clipPath>
    <clipPath
       clipPathUnits="userSpaceOnUse"
       id="clipPath12">
      <path
         d="M 0,0.16 V 1122.5601 H 793.59998 V 0.16 Z"
         transform="translate(-355.20001,-707.03998)"
         clip-rule="evenodd"
         id="path12" />
    </clipPath>
  </defs>
  <sodipodi:namedview
     id="namedview1"
     pagecolor="#505050"
     bordercolor="#eeeeee"
     borderopacity="1"
     inkscape:showpageshadow="0"
     inkscape:pageopacity="0"
     inkscape:pagecheckerboard="0"
     inkscape:deskcolor="#505050">
    <inkscape:page
       x="0"
       y="0"
       inkscape:label="1"
       id="page1"
       width="336.17334"
       height="425.79999"
       margin="0"
       bleed="0" />
  </sodipodi:namedview>
  <g
     id="g1"
     inkscape:groupmode="layer"
     inkscape:label="1">
    <path
       id="path1"
       d="m 0,0 1.12,-5.44 0.8,-5.28 0.32,-5.44 V -21.6 L 1.76,-27.040001 0.96,-32.48 -0.16,-37.759998 -1.76,-43.040001 -3.84,-48 l -2.24,-4.959999 -2.72,-4.799999 -2.88,-4.480004 -3.36,-4.319996 -3.679999,-4 -3.84,-3.840004 -4.16,-3.519996 -4.480002,-3.200005 L -35.84,-84 l -4.799999,-2.559998 -4.959999,-2.080001 -5.120003,-1.760003 L -56,-91.839996 l -5.279999,-1.120003 -5.440002,-0.639999 -5.440003,-0.32 -5.439994,0.159996 -5.440003,0.480003 L -88.32,-92.32 l -5.279998,1.279999 -5.279999,1.599999 -4.960003,2.080001 -4.96,2.400002 -4.64,2.720001 -4.48,3.040001 -4.32,3.360001 -4,3.679992 -3.68,4 -3.52,4.160004 -3.04,4.48 -2.88,4.639999 -2.39999,4.799999 -2.08001,5.120003 -1.76001,5.119999 -1.43998,5.279999 -0.96001,5.28 -0.48,5.440001 -0.32,5.44"
       style="fill:none;stroke:#000000;stroke-width:26.4;stroke-linecap:round;stroke-linejoin:round;stroke-miterlimit:10;stroke-dasharray:none;stroke-opacity:1"
       transform="translate(169.54667,111.97328)"
       clip-path="url(#clipPath2)" />
    <path
       id="path3"
       d="M 362.56,479.51999 211.52,687.20001"
       style="fill:none;stroke:#000000;stroke-width:26.4;stroke-linecap:round;stroke-linejoin:round;stroke-miterlimit:10;stroke-dasharray:none;stroke-opacity:1"
       transform="translate(-190.77333,-367.06673)"
       clip-path="url(#clipPath4)" />
    <path
       id="path5"
       d="m 0,0 -0.64,3.52 -0.16,3.36 0.16,3.52 0.48,3.52 0.64,3.360001 1.12,3.359998 1.44,3.200001 1.6,3.039999 1.92,2.880001 2.24,2.72 2.4,2.560001 2.72,2.239998 2.719999,1.920002 L 19.68,40.959999 22.879999,42.400002 26.24,43.52 l 3.36,0.96 3.359999,0.479999 3.520001,0.16 3.52,-0.16 3.52,-0.32 L 46.880001,43.84 50.240002,42.720001 53.439999,41.439999 56.48,39.68 59.360001,37.759998 62.080002,35.68 l 2.400001,-2.560001 2.399994,-2.56 L 68.800003,27.68 70.559998,24.639999 72,21.440001 73.120003,18.24 73.919998,14.88"
       style="fill:none;stroke:#000000;stroke-width:26.4;stroke-linecap:round;stroke-linejoin:round;stroke-miterlimit:10;stroke-dasharray:none;stroke-opacity:1"
       transform="translate(91.14668,104.13329)"
       clip-path="url(#clipPath6)" />
    <path
       id="path7"
       d="M 0,0 0.64,-3.36 0.8,-6.88 0.64,-10.4 0.16,-13.92 -0.48,-17.280001 -1.6,-20.639999 -3.04,-23.84 -4.64,-26.879999 -6.56,-29.76 l -2.24,-2.72 -2.4,-2.560001 -2.72,-2.239998 -2.719999,-1.920002 L -19.68,-40.959999 -22.879999,-42.400002 -26.24,-43.52 l -3.36,-0.96 -3.359999,-0.479999 -3.520001,-0.16 -3.52,0.16 -3.52,0.32 -3.360001,0.799999 -3.360001,1.119999 -3.199997,1.280002 L -56.48,-39.68 l -2.880001,1.920002 -2.720001,2.079998 -2.400001,2.560001 -2.399994,2.56 -1.920006,2.879999 -1.759995,3.040001 L -72,-21.440001 -73.120003,-18.24 l -0.959999,3.52"
       style="fill:none;stroke:#000000;stroke-width:26.4;stroke-linecap:round;stroke-linejoin:round;stroke-miterlimit:10;stroke-dasharray:none;stroke-opacity:1"
       transform="translate(239.14668,133.73326)"
       clip-path="url(#clipPath8)" />
    <path
       id="path9"
       d="m 0,0 -0.96,-5.28 -1.28,-5.28 -1.76,-5.12 -1.92,-4.959999 -2.4,-4.800002 -2.72,-4.639999 -3.04,-4.480001 -3.360001,-4.16 -3.68,-4 -3.839998,-3.680001 -4.160002,-3.519996 -4.479997,-3.040001 L -38.240002,-55.84 -43.040001,-58.240002 -48,-60.32 -52.959999,-62.080002 -58.240002,-63.52 -63.52,-64.480003 l -5.439999,-0.64 -5.279999,-0.159996 -5.440002,0.159996 -5.279999,0.480004 -5.440003,0.959999 -5.119995,1.279998 -5.120003,1.600003 -5.12,2.079998 -4.8,2.400001 -4.64,2.720002 -4.48,3.039997 -4.16,3.36 -4,3.520001 -3.68,4 -3.36,4.16 -3.2,4.319999 -2.72,4.640002"
       style="fill:none;stroke:#000000;stroke-width:26.4;stroke-linecap:round;stroke-linejoin:round;stroke-miterlimit:10;stroke-dasharray:none;stroke-opacity:1"
       transform="translate(164.42668,339.97325)"
       clip-path="url(#clipPath10)" />
    <path
       id="path11"
       d="m 0,0 0.8,5.28 1.28,5.28 1.6,4.96 2.08,4.96 2.4,4.960001 2.56,4.479999 3.04,4.480002 3.360001,4.159999 3.519998,4 3.840001,3.680001 4.159999,3.519996 4.32,3.040001 4.639999,2.880001 4.640004,2.400002 4.959999,2.079998 5.119999,1.759998 5.119999,1.440003 5.280002,1.120002 5.279999,0.64 5.279999,0.319999 5.440002,-0.160003 L 84,64.800003 89.279999,64 l 5.120003,-1.279999 5.119995,-1.600002 5.120003,-1.919998 4.8,-2.240002 4.64,-2.559997 4.48,-3.040001 4.16,-3.200001 4,-3.520001 3.84,-3.84 3.36,-4.16 L 137.11999,32.48 140,27.84 142.56,23.200001 144.8,18.24 146.56,13.28 148,8.16 149.11999,2.88 149.92,-2.4 l 0.32,-5.28 v -5.44 l -0.48001,-5.28 -0.79998,-5.28 -1.12001,-5.279999 -1.44001,-5.120003 L 144.48,-39.040001 142.24,-44 l -2.56001,-4.639999 -2.87999,-4.48 -3.19999,-4.32 -3.52001,-4 -3.68,-3.84 -4,-3.520004 L 118.08,-72 113.6,-74.879997 108.96,-77.440002 104,-79.68 99.040001,-81.599998 93.919998,-83.199997 88.639999,-84.32"
       style="fill:none;stroke:#000000;stroke-width:26.4;stroke-linecap:round;stroke-linejoin:round;stroke-miterlimit:10;stroke-dasharray:none;stroke-opacity:1"
       transform="translate(164.42668,339.97325)"
       clip-path="url(#clipPath12)" />
  </g>
</svg>
