<?xml version="1.0" encoding="UTF-8" standalone="no"?>
<!-- Created with Inkscape (http://www.inkscape.org/) -->

<svg
   version="1.1"
   id="svg1"
   width="209.44"
   height="373.73334"
   viewBox="0 0 209.44 373.73334"
   sodipodi:docname="Calcination12.pdf"
   xmlns:inkscape="http://www.inkscape.org/namespaces/inkscape"
   xmlns:sodipodi="http://sodipodi.sourceforge.net/DTD/sodipodi-0.dtd"
   xmlns="http://www.w3.org/2000/svg"
   xmlns:svg="http://www.w3.org/2000/svg">
  <defs
     id="defs1">
    <clipPath
       clipPathUnits="userSpaceOnUse"
       id="clipPath2">
      <path
         d="M 0,0.16 V 1122.5601 H 793.59998 V 0.16 Z"
         clip-rule="evenodd"
         id="path2" />
    </clipPath>
    <clipPath
       clipPathUnits="userSpaceOnUse"
       id="clipPath4">
      <path
         d="M 0,0.16 V 1122.5601 H 793.59998 V 0.16 Z"
         clip-rule="evenodd"
         id="path4" />
    </clipPath>
    <clipPath
       clipPathUnits="userSpaceOnUse"
       id="clipPath6">
      <path
         d="M 0,0.16 V 1122.5601 H 793.59998 V 0.16 Z"
         clip-rule="evenodd"
         id="path6" />
    </clipPath>
    <clipPath
       clipPathUnits="userSpaceOnUse"
       id="clipPath8">
      <path
         d="M 0,0.16 V 1122.5601 H 793.59998 V 0.16 Z"
         transform="translate(-321.60001,-712.32001)"
         clip-rule="evenodd"
         id="path8" />
    </clipPath>
    <clipPath
       clipPathUnits="userSpaceOnUse"
       id="clipPath10">
      <path
         d="M 0,0.16 V 1122.5601 H 793.59998 V 0.16 Z"
         transform="translate(-246.08,-485.76001)"
         clip-rule="evenodd"
         id="path10" />
    </clipPath>
  </defs>
  <sodipodi:namedview
     id="namedview1"
     pagecolor="#505050"
     bordercolor="#eeeeee"
     borderopacity="1"
     inkscape:showpageshadow="0"
     inkscape:pageopacity="0"
     inkscape:pagecheckerboard="0"
     inkscape:deskcolor="#505050">
    <inkscape:page
       x="0"
       y="0"
       inkscape:label="1"
       id="page1"
       width="209.44"
       height="373.73334"
       margin="0"
       bleed="0" />
  </sodipodi:namedview>
  <g
     id="g1"
     inkscape:groupmode="layer"
     inkscape:label="1">
    <path
       id="path1"
       d="M 246.08,485.76001 H 397.12"
       style="fill:none;stroke:#000000;stroke-width:26.4;stroke-linecap:round;stroke-linejoin:round;stroke-miterlimit:10;stroke-dasharray:none;stroke-opacity:1"
       transform="translate(0,-20.026725)"
       clip-path="url(#clipPath2)" />
    <path
       id="path3"
       d="m 397.12,485.76001 -151.04,226.56"
       style="fill:none;stroke:#000000;stroke-width:26.4;stroke-linecap:round;stroke-linejoin:round;stroke-miterlimit:10;stroke-dasharray:none;stroke-opacity:1"
       transform="translate(0,-20.026725)"
       clip-path="url(#clipPath4)" />
    <path
       id="path5"
       d="M 321.60001,712.32001 H 397.12"
       style="fill:none;stroke:#000000;stroke-width:26.4;stroke-linecap:round;stroke-linejoin:round;stroke-miterlimit:10;stroke-dasharray:none;stroke-opacity:1"
       transform="translate(0,-20.026725)"
       clip-path="url(#clipPath6)" />
    <path
       id="path7"
       d="m 0,0 -0.16,-5.44 -0.64,-5.12 -0.8,-5.28 -1.28,-5.119999 -1.76,-5.120001 -1.92,-4.799999 -2.4,-4.800001 -2.56,-4.64 -3.04,-4.319999 -3.36,-4.16 -3.520001,-4 -3.84,-3.680001 -4,-3.36 -4.319997,-3.040001"
       style="fill:none;stroke:#000000;stroke-width:26.4;stroke-linecap:round;stroke-linejoin:round;stroke-miterlimit:10;stroke-dasharray:none;stroke-opacity:1"
       transform="translate(321.60001,692.29328)"
       clip-path="url(#clipPath8)" />
    <path
       id="path9"
       d="M 0,0 3.52,-0.16 6.88,-0.64 10.4,-1.44 13.6,-2.56 16.799999,-4 19.84,-5.76 l 2.879999,-1.92 2.720002,-2.24 2.399999,-2.4 2.24,-2.72 2.08,-2.88 1.599998,-3.039999 1.440003,-3.200001 1.119999,-3.36 0.799999,-3.359999 0.479999,-3.520003 0.16,-3.359996 -0.16,-3.520001 -0.479999,-3.52 L 36.32,-48.16 35.200001,-51.52 33.759998,-54.560001 32.16,-57.759998 30.08,-60.639999 27.84,-63.200001 25.440001,-65.760002 22.719999,-68 19.84,-69.919998 16.799999,-71.68 13.6,-72.959999 10.4,-74.080002 6.88,-74.879997 3.52,-75.360001 0,-75.519997"
       style="fill:none;stroke:#000000;stroke-width:26.4;stroke-linecap:round;stroke-linejoin:round;stroke-miterlimit:10;stroke-dasharray:none;stroke-opacity:1"
       transform="translate(246.08,465.73328)"
       clip-path="url(#clipPath10)" />
  </g>
</svg>
