<?xml version="1.0" encoding="UTF-8" standalone="no"?>
<!-- Created with Inkscape (http://www.inkscape.org/) -->

<svg
   version="1.1"
   id="svg1"
   width="390.88"
   height="209.56"
   viewBox="0 0 390.88 209.56"
   sodipodi:docname="Calcination13.pdf"
   xmlns:inkscape="http://www.inkscape.org/namespaces/inkscape"
   xmlns:sodipodi="http://sodipodi.sourceforge.net/DTD/sodipodi-0.dtd"
   xmlns="http://www.w3.org/2000/svg"
   xmlns:svg="http://www.w3.org/2000/svg">
  <defs
     id="defs1">
    <clipPath
       clipPathUnits="userSpaceOnUse"
       id="clipPath2">
      <path
         d="M 0,0.16 V 1122.5601 H 793.59998 V 0.16 Z"
         transform="translate(-321.6,-561.28003)"
         clip-rule="evenodd"
         id="path2" />
    </clipPath>
    <clipPath
       clipPathUnits="userSpaceOnUse"
       id="clipPath4">
      <path
         d="M 0,0.16 V 1122.5601 H 793.59998 V 0.16 Z"
         transform="translate(-3.3333333e-6)"
         clip-rule="evenodd"
         id="path4" />
    </clipPath>
    <clipPath
       clipPathUnits="userSpaceOnUse"
       id="clipPath6">
      <path
         d="M 0,0.16 V 1122.5601 H 793.59998 V 0.16 Z"
         transform="translate(-472.64001,-561.28003)"
         clip-rule="evenodd"
         id="path6" />
    </clipPath>
    <clipPath
       clipPathUnits="userSpaceOnUse"
       id="clipPath8">
      <path
         d="M 0,0.16 V 1122.5601 H 793.59998 V 0.16 Z"
         transform="translate(-3.3333333e-6)"
         clip-rule="evenodd"
         id="path8" />
    </clipPath>
    <clipPath
       clipPathUnits="userSpaceOnUse"
       id="clipPath10">
      <path
         d="M 0,0.16 V 1122.5601 H 793.59998 V 0.16 Z"
         transform="translate(-548.15997,-561.28003)"
         clip-rule="evenodd"
         id="path10" />
    </clipPath>
    <clipPath
       clipPathUnits="userSpaceOnUse"
       id="clipPath12">
      <path
         d="M 0,0.16 V 1122.5601 H 793.59998 V 0.16 Z"
         transform="translate(-334.88,-617.91999)"
         clip-rule="evenodd"
         id="path12" />
    </clipPath>
    <clipPath
       clipPathUnits="userSpaceOnUse"
       id="clipPath14">
      <path
         d="M 0,0.16 V 1122.5601 H 793.59998 V 0.16 Z"
         transform="translate(-410.39999,-617.91999)"
         clip-rule="evenodd"
         id="path14" />
    </clipPath>
    <clipPath
       clipPathUnits="userSpaceOnUse"
       id="clipPath16">
      <path
         d="M 0,0.16 V 1122.5601 H 793.59998 V 0.16 Z"
         transform="translate(-485.92001,-617.91999)"
         clip-rule="evenodd"
         id="path16" />
    </clipPath>
    <clipPath
       clipPathUnits="userSpaceOnUse"
       id="clipPath18">
      <path
         d="M 0,0.16 V 1122.5601 H 793.59998 V 0.16 Z"
         transform="translate(-334.88,-617.91999)"
         clip-rule="evenodd"
         id="path18" />
    </clipPath>
    <clipPath
       clipPathUnits="userSpaceOnUse"
       id="clipPath20">
      <path
         d="M 0,0.16 V 1122.5601 H 793.59998 V 0.16 Z"
         transform="translate(-410.39999,-617.91999)"
         clip-rule="evenodd"
         id="path20" />
    </clipPath>
    <clipPath
       clipPathUnits="userSpaceOnUse"
       id="clipPath22">
      <path
         d="M 0,0.16 V 1122.5601 H 793.59998 V 0.16 Z"
         transform="translate(-485.92001,-617.91999)"
         clip-rule="evenodd"
         id="path22" />
    </clipPath>
  </defs>
  <sodipodi:namedview
     id="namedview1"
     pagecolor="#505050"
     bordercolor="#eeeeee"
     borderopacity="1"
     inkscape:showpageshadow="0"
     inkscape:pageopacity="0"
     inkscape:pagecheckerboard="0"
     inkscape:deskcolor="#505050">
    <inkscape:page
       x="0"
       y="0"
       inkscape:label="1"
       id="page1"
       width="390.88"
       height="209.56"
       margin="0"
       bleed="0" />
  </sodipodi:namedview>
  <g
     id="g1"
     inkscape:groupmode="layer"
     inkscape:label="1">
    <path
       id="path1"
       d="M 0,0 -0.16,-3.52 -0.64,-7.04 -1.44,-10.4 -2.56,-13.76 -4,-16.959999 -5.6,-20 -7.68,-22.879999 -9.92,-25.440001 -12.32,-28 l -2.72,-2.24 -2.88,-1.92 -3.039999,-1.759998 -3.200001,-1.280003 -3.200001,-1.119999 -3.519998,-0.799999 -3.360003,-0.479999 -3.519996,-0.16 -3.520001,0.16 -3.36,0.479999 L -48.16,-36.32 l -3.200001,1.119999 -3.2,1.280003 -3.039997,1.759998 -2.880002,1.92 -2.720001,2.24 -2.399997,2.559999 -2.239998,2.560002 -2.080002,2.879999 -1.599999,3.040001 -1.440002,3.199999 -1.120003,3.36 -0.799995,3.36 -0.480004,3.52 -0.159996,3.52"
       style="fill:none;stroke:#000000;stroke-width:26.4;stroke-linecap:round;stroke-linejoin:round;stroke-miterlimit:10;stroke-dasharray:none;stroke-opacity:1"
       transform="translate(100.14667,126.1333)"
       clip-path="url(#clipPath2)" />
    <path
       id="path3"
       d="M 321.60001,561.28003 H 397.12"
       style="fill:none;stroke:#000000;stroke-width:26.4;stroke-linecap:round;stroke-linejoin:round;stroke-miterlimit:10;stroke-dasharray:none;stroke-opacity:1"
       transform="translate(-221.45333,-435.14673)"
       clip-path="url(#clipPath4)" />
    <path
       id="path5"
       d="M 0,0 -0.16,-3.52 -0.64,-7.04 -1.44,-10.4 -2.56,-13.76 -4,-16.959999 -5.6,-20 -7.68,-22.879999 -9.92,-25.440001 -12.32,-28 l -2.72,-2.24 -2.88,-1.92 -3.039999,-1.759998 -3.200001,-1.280003 -3.200001,-1.119999 -3.519998,-0.799999 -3.360003,-0.479999 -3.519996,-0.16 -3.520001,0.16 -3.36,0.479999 L -48.16,-36.32 l -3.200001,1.119999 -3.2,1.280003 -3.039997,1.759998 -2.880002,1.92 -2.720001,2.24 -2.399997,2.559999 -2.239998,2.560002 -2.080002,2.879999 -1.599999,3.040001 -1.440002,3.199999 -1.120003,3.36 -0.799995,3.36 -0.480004,3.52 -0.159996,3.52"
       style="fill:none;stroke:#000000;stroke-width:26.4;stroke-linecap:round;stroke-linejoin:round;stroke-miterlimit:10;stroke-dasharray:none;stroke-opacity:1"
       transform="translate(251.18668,126.1333)"
       clip-path="url(#clipPath6)" />
    <path
       id="path7"
       d="m 472.64001,561.28003 h 75.51996"
       style="fill:none;stroke:#000000;stroke-width:26.4;stroke-linecap:round;stroke-linejoin:round;stroke-miterlimit:10;stroke-dasharray:none;stroke-opacity:1"
       transform="translate(-221.45333,-435.14673)"
       clip-path="url(#clipPath8)" />
    <path
       id="path9"
       d="M 0,0 3.52,-0.16 6.88,-0.64 10.24,-1.44 13.6,-2.56 16.799999,-4 19.84,-5.76 l 2.879999,-1.92 2.720002,-2.24 2.399999,-2.4 2.24,-2.72 2.08,-2.88 1.599998,-3.039999 1.440003,-3.200001 1.119999,-3.36 0.799999,-3.359999 0.479999,-3.520003 0.16,-3.359996 -0.16,-3.520001 -0.479999,-3.52 L 36.32,-48.16 35.200001,-51.52 33.759998,-54.720001 32.16,-57.759998 30.08,-60.639999 27.84,-63.200001 25.440001,-65.760002 22.719999,-68 19.84,-69.919998 16.799999,-71.68 13.6,-72.959999 10.24,-74.080002 6.88,-74.879997 3.52,-75.360001 0,-75.519997"
       style="fill:none;stroke:#000000;stroke-width:26.4;stroke-linecap:round;stroke-linejoin:round;stroke-miterlimit:10;stroke-dasharray:none;stroke-opacity:1"
       transform="translate(326.70664,126.1333)"
       clip-path="url(#clipPath10)" />
    <path
       id="path11"
       d="m 0,0 -0.16,-1.76 -0.32,-1.76 -0.64,-1.6 -0.64,-1.6 -0.96,-1.44 -1.28,-1.28 -1.28,-1.12 -1.44,-0.96 -1.44,-0.8 -1.76,-0.48 -1.6,-0.32 -1.76,-0.16 -1.76,0.16 -1.599999,0.32 -1.760001,0.48 -1.44,0.8 -1.440001,0.96 -1.279998,1.12 -1.280001,1.28 -0.959999,1.44 -0.640002,1.6 L -26.08,-3.52 -26.4,-1.76 -26.559999,0 -26.4,1.6 l 0.32,1.76 0.639999,1.6 0.640002,1.6 L -23.84,8 l 1.280001,1.28 1.279998,1.12 1.440001,0.96 1.44,0.8 1.760001,0.48 1.599999,0.48 h 1.76 1.76 l 1.6,-0.48 1.76,-0.48 1.44,-0.8 L -5.28,10.4 -4,9.28 -2.72,8 -1.76,6.56 -1.12,4.96 -0.48,3.36 -0.16,1.6 0,0 v 0 z"
       style="fill:#000000;fill-opacity:1;fill-rule:evenodd;stroke:none"
       transform="translate(113.42667,182.77326)"
       clip-path="url(#clipPath12)" />
    <path
       id="path13"
       d="m 0,0 -0.16,-1.76 -0.32,-1.76 -0.64,-1.6 -0.8,-1.6 -0.96,-1.44 -1.12,-1.28 -1.28,-1.12 -1.44,-0.96 -1.44,-0.8 -1.76,-0.48 -1.6,-0.32 -1.76,-0.16 -1.76,0.16 -1.599999,0.32 -1.760001,0.48 -1.44,0.8 -1.440001,0.96 -1.279998,1.12 -1.280001,1.28 -0.959999,1.44 -0.640002,1.6 L -26.08,-3.52 -26.4,-1.76 -26.559999,0 -26.4,1.6 l 0.32,1.76 0.639999,1.6 0.640002,1.6 L -23.84,8 l 1.280001,1.28 1.279998,1.12 1.440001,0.96 1.44,0.8 1.760001,0.48 1.599999,0.48 h 1.76 1.76 l 1.6,-0.48 1.76,-0.48 1.44,-0.8 L -5.28,10.4 -4,9.28 -2.88,8 -1.92,6.56 -1.12,4.96 -0.48,3.36 -0.16,1.6 0,0 v 0 z"
       style="fill:#000000;fill-opacity:1;fill-rule:evenodd;stroke:none"
       transform="translate(188.94666,182.77326)"
       clip-path="url(#clipPath14)" />
    <path
       id="path15"
       d="m 0,0 -0.16,-1.76 -0.32,-1.76 -0.64,-1.6 -0.8,-1.6 -0.96,-1.44 -1.12,-1.28 -1.28,-1.12 -1.44,-0.96 -1.44,-0.8 -1.76,-0.48 -1.6,-0.32 -1.76,-0.16 -1.76,0.16 -1.599999,0.32 -1.760001,0.48 -1.44,0.8 -1.440001,0.96 -1.279998,1.12 -1.280001,1.28 -0.959999,1.44 -0.640002,1.6 L -26.08,-3.52 -26.4,-1.76 -26.559999,0 -26.4,1.6 l 0.32,1.76 0.639999,1.6 0.640002,1.6 L -23.84,8 l 1.280001,1.28 1.279998,1.12 1.440001,0.96 1.44,0.8 1.760001,0.48 1.599999,0.48 h 1.76 1.76 l 1.6,-0.48 1.76,-0.48 1.44,-0.8 L -5.28,10.4 -4,9.28 -2.88,8 -1.92,6.56 -1.12,4.96 -0.48,3.36 -0.16,1.6 0,0 v 0 z"
       style="fill:#000000;fill-opacity:1;fill-rule:evenodd;stroke:none"
       transform="translate(264.46668,182.77326)"
       clip-path="url(#clipPath16)" />
    <path
       id="path17"
       d="m 0,0 -0.16,-1.76 -0.32,-1.76 -0.64,-1.6 -0.64,-1.6 -0.96,-1.44 -1.28,-1.28 -1.28,-1.12 -1.44,-0.96 -1.44,-0.8 -1.76,-0.48 -1.6,-0.32 -1.76,-0.16 -1.76,0.16 -1.599999,0.32 -1.760001,0.48 -1.44,0.8 -1.440001,0.96 -1.279998,1.12 -1.280001,1.28 -0.959999,1.44 -0.640002,1.6 L -26.08,-3.52 -26.4,-1.76 -26.559999,0 -26.4,1.6 l 0.32,1.76 0.639999,1.6 0.640002,1.6 L -23.84,8 l 1.280001,1.28 1.279998,1.12 1.440001,0.96 1.44,0.8 1.760001,0.48 1.599999,0.48 h 1.76 1.76 l 1.6,-0.48 1.76,-0.48 1.44,-0.8 L -5.28,10.4 -4,9.28 -2.72,8 -1.76,6.56 -1.12,4.96 -0.48,3.36 -0.16,1.6 0,0"
       style="fill:none;stroke:#000000;stroke-width:0.64;stroke-linecap:round;stroke-linejoin:round;stroke-miterlimit:10;stroke-dasharray:none;stroke-opacity:1"
       transform="translate(113.42667,182.77326)"
       clip-path="url(#clipPath18)" />
    <path
       id="path19"
       d="m 0,0 -0.16,-1.76 -0.32,-1.76 -0.64,-1.6 -0.8,-1.6 -0.96,-1.44 -1.12,-1.28 -1.28,-1.12 -1.44,-0.96 -1.44,-0.8 -1.76,-0.48 -1.6,-0.32 -1.76,-0.16 -1.76,0.16 -1.599999,0.32 -1.760001,0.48 -1.44,0.8 -1.440001,0.96 -1.279998,1.12 -1.280001,1.28 -0.959999,1.44 -0.640002,1.6 L -26.08,-3.52 -26.4,-1.76 -26.559999,0 -26.4,1.6 l 0.32,1.76 0.639999,1.6 0.640002,1.6 L -23.84,8 l 1.280001,1.28 1.279998,1.12 1.440001,0.96 1.44,0.8 1.760001,0.48 1.599999,0.48 h 1.76 1.76 l 1.6,-0.48 1.76,-0.48 1.44,-0.8 L -5.28,10.4 -4,9.28 -2.88,8 -1.92,6.56 -1.12,4.96 -0.48,3.36 -0.16,1.6 0,0"
       style="fill:none;stroke:#000000;stroke-width:0.64;stroke-linecap:round;stroke-linejoin:round;stroke-miterlimit:10;stroke-dasharray:none;stroke-opacity:1"
       transform="translate(188.94666,182.77326)"
       clip-path="url(#clipPath20)" />
    <path
       id="path21"
       d="m 0,0 -0.16,-1.76 -0.32,-1.76 -0.64,-1.6 -0.8,-1.6 -0.96,-1.44 -1.12,-1.28 -1.28,-1.12 -1.44,-0.96 -1.44,-0.8 -1.76,-0.48 -1.6,-0.32 -1.76,-0.16 -1.76,0.16 -1.599999,0.32 -1.760001,0.48 -1.44,0.8 -1.440001,0.96 -1.279998,1.12 -1.280001,1.28 -0.959999,1.44 -0.640002,1.6 L -26.08,-3.52 -26.4,-1.76 -26.559999,0 -26.4,1.6 l 0.32,1.76 0.639999,1.6 0.640002,1.6 L -23.84,8 l 1.280001,1.28 1.279998,1.12 1.440001,0.96 1.44,0.8 1.760001,0.48 1.599999,0.48 h 1.76 1.76 l 1.6,-0.48 1.76,-0.48 1.44,-0.8 L -5.28,10.4 -4,9.28 -2.88,8 -1.92,6.56 -1.12,4.96 -0.48,3.36 -0.16,1.6 0,0"
       style="fill:none;stroke:#000000;stroke-width:0.64;stroke-linecap:round;stroke-linejoin:round;stroke-miterlimit:10;stroke-dasharray:none;stroke-opacity:1"
       transform="translate(264.46668,182.77326)"
       clip-path="url(#clipPath22)" />
  </g>
</svg>
