<?xml version="1.0" encoding="UTF-8" standalone="no"?>
<!-- Created with Inkscape (http://www.inkscape.org/) -->

<svg
   version="1.1"
   id="svg1"
   width="201.44"
   height="337.70667"
   viewBox="0 0 201.44 337.70667"
   sodipodi:docname="Calcination11.pdf"
   xmlns:inkscape="http://www.inkscape.org/namespaces/inkscape"
   xmlns:sodipodi="http://sodipodi.sourceforge.net/DTD/sodipodi-0.dtd"
   xmlns="http://www.w3.org/2000/svg"
   xmlns:svg="http://www.w3.org/2000/svg">
  <defs
     id="defs1">
    <clipPath
       clipPathUnits="userSpaceOnUse"
       id="clipPath2">
      <path
         d="M 0,0.16 V 1122.5601 H 793.59998 V 0.16 Z"
         transform="translate(-3.3333333e-6)"
         clip-rule="evenodd"
         id="path2" />
    </clipPath>
    <clipPath
       clipPathUnits="userSpaceOnUse"
       id="clipPath4">
      <path
         d="M 0,0.16 V 1122.5601 H 793.59998 V 0.16 Z"
         transform="translate(-3.3333333e-6)"
         clip-rule="evenodd"
         id="path4" />
    </clipPath>
    <clipPath
       clipPathUnits="userSpaceOnUse"
       id="clipPath6">
      <path
         d="M 0,0.16 V 1122.5601 H 793.59998 V 0.16 Z"
         transform="translate(-471.83999,-605.59998)"
         clip-rule="evenodd"
         id="path6" />
    </clipPath>
    <clipPath
       clipPathUnits="userSpaceOnUse"
       id="clipPath8">
      <path
         d="M 0,0.16 V 1122.5601 H 793.59998 V 0.16 Z"
         transform="translate(-435.67999,-705.76001)"
         clip-rule="evenodd"
         id="path8" />
    </clipPath>
  </defs>
  <sodipodi:namedview
     id="namedview1"
     pagecolor="#505050"
     bordercolor="#eeeeee"
     borderopacity="1"
     inkscape:showpageshadow="0"
     inkscape:pageopacity="0"
     inkscape:pagecheckerboard="0"
     inkscape:deskcolor="#505050">
    <inkscape:page
       x="0"
       y="0"
       inkscape:label="1"
       id="page1"
       width="201.44"
       height="337.70667"
       margin="0"
       bleed="0" />
  </sodipodi:namedview>
  <g
     id="g1"
     inkscape:groupmode="layer"
     inkscape:label="1">
    <path
       id="path1"
       d="m 397.12,410.23999 -75.51999,151.04004 h 151.04 L 397.12,410.23999"
       style="fill:none;stroke:#000000;stroke-width:26.4;stroke-linecap:round;stroke-linejoin:round;stroke-miterlimit:10;stroke-dasharray:none;stroke-opacity:1"
       transform="translate(-297.49333,-388.42673)"
       clip-path="url(#clipPath2)" />
    <path
       id="path3"
       d="M 397.12,561.28003 V 712.32001"
       style="fill:none;stroke:#000000;stroke-width:26.4;stroke-linecap:round;stroke-linejoin:round;stroke-miterlimit:10;stroke-dasharray:none;stroke-opacity:1"
       transform="translate(-297.49333,-388.42673)"
       clip-path="url(#clipPath4)" />
    <path
       id="path5"
       d="M 0,0 -2.56,-0.96 -5.28,-1.44 -8.16,-1.6 h -2.72 l -2.72,0.32 -2.72,0.64 -2.559999,0.96 -2.560002,1.12 -2.399999,1.44 -2.24,1.6 -2.08,1.92 -1.76,2.24 -1.6,2.24 -1.279999,2.4 -1.119999,2.56 -0.800003,2.719999 -0.64,2.720002 L -35.52,24 v 2.879999 l 0.319999,2.720001 0.64,2.72 0.960003,2.560001 1.119998,2.559998 1.439999,2.400001 1.76,2.240002 L -27.52,44.16 l 2.239999,1.759998 2.24,1.600002 2.400002,1.439999 2.559999,1.120003"
       style="fill:none;stroke:#000000;stroke-width:26.4;stroke-linecap:round;stroke-linejoin:round;stroke-miterlimit:10;stroke-dasharray:none;stroke-opacity:1"
       transform="translate(174.34666,217.17325)"
       clip-path="url(#clipPath6)" />
    <path
       id="path7"
       d="M 0,0 2.56,0.8 5.28,1.28 8,1.6 10.88,1.44 13.6,1.12 16.32,0.48 18.879999,-0.32 21.440001,-1.6 23.84,-3.04 l 2.24,-1.6 1.92,-1.92 1.92,-2.08 1.6,-2.4 1.279999,-2.4 1.119999,-2.56 0.800003,-2.719999 0.48,-2.720002 L 35.52,-24.16 v -2.719999 L 35.200001,-29.76 l -0.64,-2.72 -0.960003,-2.560001 L 32.48,-37.599998 31.040001,-40 l -1.76,-2.240002 -1.92,-2.079998 -2.08,-1.760002 -2.24,-1.599998 -2.400002,-1.439999 L 18.08,-50.080002"
       style="fill:none;stroke:#000000;stroke-width:26.4;stroke-linecap:round;stroke-linejoin:round;stroke-miterlimit:10;stroke-dasharray:none;stroke-opacity:1"
       transform="translate(138.18666,317.33328)"
       clip-path="url(#clipPath8)" />
  </g>
</svg>
