<?xml version="1.0" encoding="UTF-8" standalone="no"?>
<!-- Created with Inkscape (http://www.inkscape.org/) -->

<svg
   version="1.1"
   id="svg1"
   width="381.54666"
   height="464.50668"
   viewBox="0 0 381.54666 464.50668"
   sodipodi:docname="Calcination4.pdf"
   xmlns:inkscape="http://www.inkscape.org/namespaces/inkscape"
   xmlns:sodipodi="http://sodipodi.sourceforge.net/DTD/sodipodi-0.dtd"
   xmlns="http://www.w3.org/2000/svg"
   xmlns:svg="http://www.w3.org/2000/svg">
  <defs
     id="defs1">
    <clipPath
       clipPathUnits="userSpaceOnUse"
       id="clipPath2">
      <path
         d="M 0,0.16 V 1122.5601 H 793.59998 V 0.16 Z"
         transform="translate(-416.95999,-391.51999)"
         clip-rule="evenodd"
         id="path2" />
    </clipPath>
    <clipPath
       clipPathUnits="userSpaceOnUse"
       id="clipPath4">
      <path
         d="M 0,0.16 V 1122.5601 H 793.59998 V 0.16 Z"
         clip-rule="evenodd"
         id="path4" />
    </clipPath>
  </defs>
  <sodipodi:namedview
     id="namedview1"
     pagecolor="#505050"
     bordercolor="#eeeeee"
     borderopacity="1"
     inkscape:showpageshadow="0"
     inkscape:pageopacity="0"
     inkscape:pagecheckerboard="0"
     inkscape:deskcolor="#505050">
    <inkscape:page
       x="0"
       y="0"
       inkscape:label="1"
       id="page1"
       width="381.54666"
       height="464.50668"
       margin="0"
       bleed="0" />
  </sodipodi:namedview>
  <g
     id="g1"
     inkscape:groupmode="layer"
     inkscape:label="1">
    <path
       id="path1"
       d="M 0,0 H -9.28 L -18.719999,0.64 -28,1.76 l -9.119999,1.44 -9.120003,1.92 -9.119999,2.4 -8.959999,2.88 -8.639999,3.36 -8.639999,3.680001 -8.480004,4.159999 -8.159996,4.48 -7.840002,4.960001 -7.68,5.439999 -7.52,5.600002 -7.04001,6.079998 -6.87999,6.400001 -6.40001,6.719998 -6.23999,7.040001 -5.76001,7.36 -5.43998,7.680001 -5.12001,7.839996 -4.64,8.160004 -4.16001,8.319999 -3.83999,8.48 -3.52001,8.64 -2.87999,8.95999 -2.55999,8.96001 -2.08001,9.12 -1.6,9.27999 -1.28,9.28 -0.64,9.28 -0.31999,9.44 0.15999,9.28 0.8,9.28 1.11999,9.28002 1.44001,9.27999 2.08,9.12 2.56,8.96001 2.88,8.95999 3.36,8.79999 3.84,8.48001 4.16,8.32 4.64,8.16001 4.96001,8 5.28,7.51999 5.75999,7.51999 6.24001,7.04001 6.39999,6.72 6.72,6.39999 7.2,6.24002 7.36,5.75998 7.68,5.28 7.840003,4.96002 8.159996,4.63999 8.32,4.16 8.639999,3.84 8.64,3.36001 8.960002,2.87998 8.96,2.40002 9.279998,2.07999 9.120001,1.6 9.280001,1.12 9.44,0.64001 9.28,0.15998 9.28,-0.31998 9.44,-0.64002 L 26.879999,377.12 36,375.51999 45.119999,373.44 l 9.120003,-2.56 8.799999,-3.04 8.639999,-3.35999 8.64,-3.84 8.319999,-4.32 8,-4.64002 8.000001,-5.11999 7.52,-5.44 7.36,-5.76001 7.04,-6.07999 6.72,-6.56 6.39999,-6.88 6.08,-7.04001 L 151.36,301.28"
       style="fill:none;stroke:#000000;stroke-width:26.4;stroke-linecap:round;stroke-linejoin:round;stroke-miterlimit:10;stroke-dasharray:none;stroke-opacity:1"
       transform="translate(211.51999,64.493264)"
       clip-path="url(#clipPath2)" />
    <path
       id="path3"
       d="m 418.23999,351.67999 v 78.4"
       style="fill:none;stroke:#000000;stroke-width:26.4;stroke-linecap:round;stroke-linejoin:round;stroke-miterlimit:10;stroke-dasharray:none;stroke-opacity:1"
       transform="translate(-205.44,-327.02673)"
       clip-path="url(#clipPath4)" />
  </g>
</svg>
