<?xml version="1.0" encoding="UTF-8" standalone="no"?>
<!-- Created with Inkscape (http://www.inkscape.org/) -->

<svg
   version="1.1"
   id="svg1"
   width="289.49332"
   height="281.64001"
   viewBox="0 0 289.49332 281.64001"
   sodipodi:docname="Calcination9.pdf"
   xmlns:inkscape="http://www.inkscape.org/namespaces/inkscape"
   xmlns:sodipodi="http://sodipodi.sourceforge.net/DTD/sodipodi-0.dtd"
   xmlns="http://www.w3.org/2000/svg"
   xmlns:svg="http://www.w3.org/2000/svg">
  <defs
     id="defs1">
    <clipPath
       clipPathUnits="userSpaceOnUse"
       id="clipPath2">
      <path
         d="M 0,0.16 V 1122.5601 H 793.59998 V 0.16 Z"
         clip-rule="evenodd"
         id="path2" />
    </clipPath>
    <clipPath
       clipPathUnits="userSpaceOnUse"
       id="clipPath4">
      <path
         d="M 0,0.16 V 1122.5601 H 793.59998 V 0.16 Z"
         transform="translate(-268.16,-661.76001)"
         clip-rule="evenodd"
         id="path4" />
    </clipPath>
    <clipPath
       clipPathUnits="userSpaceOnUse"
       id="clipPath6">
      <path
         d="M 0,0.16 V 1122.5601 H 793.59998 V 0.16 Z"
         transform="translate(-491.51999,-485.76001)"
         clip-rule="evenodd"
         id="path6" />
    </clipPath>
    <clipPath
       clipPathUnits="userSpaceOnUse"
       id="clipPath8">
      <path
         d="M 0,0.16 V 1122.5601 H 793.59998 V 0.16 Z"
         clip-rule="evenodd"
         id="path8" />
    </clipPath>
  </defs>
  <sodipodi:namedview
     id="namedview1"
     pagecolor="#505050"
     bordercolor="#eeeeee"
     borderopacity="1"
     inkscape:showpageshadow="0"
     inkscape:pageopacity="0"
     inkscape:pagecheckerboard="0"
     inkscape:deskcolor="#505050">
    <inkscape:page
       x="0"
       y="0"
       inkscape:label="1"
       id="page1"
       width="289.49332"
       height="281.64001"
       margin="0"
       bleed="0" />
  </sodipodi:namedview>
  <g
     id="g1"
     inkscape:groupmode="layer"
     inkscape:label="1">
    <path
       id="path1"
       d="M 283.84,485.76001 H 510.39999"
       style="fill:none;stroke:#000000;stroke-width:26.4;stroke-linecap:round;stroke-linejoin:round;stroke-miterlimit:10;stroke-dasharray:none;stroke-opacity:1"
       transform="translate(-246.8,-456.49339)"
       clip-path="url(#clipPath2)" />
    <path
       id="path3"
       d="m 0,0 1.28,5.6 1.44,5.44 1.6,4.96 1.6,4.799999 1.76,4.480002 1.76,4.16 1.92,3.839998 2.08,3.52 1.92,3.040001 2.080001,2.720001 2.239999,2.399998 2.24,1.920002 2.24,1.439999 2.24,1.119999 2.239999,0.800003 2.24,0.319999 2.4,-0.159999 L 35.52,49.759998 37.759998,48.799999 40,47.52 42.240002,45.759998 44.32,43.52 l 2.240001,-2.560001 2.079998,-2.879997 1.920002,-3.360001 1.919999,-3.68 1.920002,-4 L 56.16,22.719999 57.919998,18.08 59.360001,13.12 60.959999,7.84 62.240002,2.4 63.52,-3.36 l 1.119999,-5.92 1.120003,-6.24 0.799996,-6.24 0.800003,-6.56 L 68,-34.880001 l 0.480003,-6.719997 0.32,-6.720002 0.32,-6.880001 v -6.880001 -6.879997 l -0.160004,-6.879997 -0.32,-6.720002 -0.479995,-6.720001 L 67.519997,-96 l -0.799996,-6.4 -0.800003,-6.4 -0.959999,-6.24 -1.119999,-5.92 -1.279999,-5.76 -1.440002,-5.60001 -1.439999,-5.28 -1.439998,-4.95999 -1.760002,-4.8 -1.759999,-4.48 -1.760002,-4 -1.919998,-3.68 -2.080002,-3.51999 -2.079998,-2.88001 -2.080002,-2.72 -2.079998,-2.24 L 40.48,-172.8 38.240002,-174.24 36,-175.2 33.599998,-175.84 31.360001,-176"
       style="fill:none;stroke:#000000;stroke-width:26.4;stroke-linecap:round;stroke-linejoin:round;stroke-miterlimit:10;stroke-dasharray:none;stroke-opacity:1"
       transform="translate(21.360004,205.26662)"
       clip-path="url(#clipPath4)" />
    <path
       id="path5"
       d="m 0,0 -2.24,0.16 -2.24,0.64 -2.24,0.96 -2.24,1.44 -2.08,1.76 -2.24,2.24 -2.08,2.56 -2.080001,2.88 -1.92,3.2 -1.92,3.68 -1.76,4 -1.759998,4.32 L -26.4,32.32 -28,37.279999 -29.440001,42.400002 -30.879999,47.84 -32.16,53.439999 l -1.119999,5.920002 -0.960003,5.919998 -0.959999,6.239998 -0.639999,6.400001 -0.64,6.560005 -0.479999,6.559998 -0.48,6.559997 -0.159999,6.720002 -0.16,6.88 v 6.72 l 0.16,6.72 0.319999,6.72 0.48,6.56 0.479999,6.56 0.64,6.55999"
       style="fill:none;stroke:#000000;stroke-width:26.4;stroke-linecap:round;stroke-linejoin:round;stroke-miterlimit:10;stroke-dasharray:none;stroke-opacity:1"
       transform="translate(244.71999,29.266618)"
       clip-path="url(#clipPath6)" />
    <path
       id="path7"
       d="m 340.48001,599.03998 h 113.28"
       style="fill:none;stroke:#000000;stroke-width:26.4;stroke-linecap:round;stroke-linejoin:round;stroke-miterlimit:10;stroke-dasharray:none;stroke-opacity:1"
       transform="translate(-246.8,-456.49339)"
       clip-path="url(#clipPath8)" />
  </g>
</svg>
