<?xml version="1.0" encoding="UTF-8" standalone="no"?>
<!-- Created with Inkscape (http://www.inkscape.org/) -->

<svg
   version="1.1"
   id="svg1"
   width="341.51999"
   height="190.88"
   viewBox="0 0 341.51999 190.88"
   sodipodi:docname="Calcination5.pdf"
   xmlns:inkscape="http://www.inkscape.org/namespaces/inkscape"
   xmlns:sodipodi="http://sodipodi.sourceforge.net/DTD/sodipodi-0.dtd"
   xmlns="http://www.w3.org/2000/svg"
   xmlns:svg="http://www.w3.org/2000/svg">
  <defs
     id="defs1">
    <clipPath
       clipPathUnits="userSpaceOnUse"
       id="clipPath2">
      <path
         d="M 0,0.16 V 1122.5601 H 793.59998 V 0.16 Z"
         transform="translate(-396.79999,-485.76001)"
         clip-rule="evenodd"
         id="path2" />
    </clipPath>
    <clipPath
       clipPathUnits="userSpaceOnUse"
       id="clipPath4">
      <path
         d="M 0,0.16 V 1122.5601 H 793.59998 V 0.16 Z"
         transform="translate(-3.3333333e-6)"
         clip-rule="evenodd"
         id="path4" />
    </clipPath>
    <clipPath
       clipPathUnits="userSpaceOnUse"
       id="clipPath6">
      <path
         d="M 0,0.16 V 1122.5601 H 793.59998 V 0.16 Z"
         transform="translate(-3.3333333e-6)"
         clip-rule="evenodd"
         id="path6" />
    </clipPath>
  </defs>
  <sodipodi:namedview
     id="namedview1"
     pagecolor="#505050"
     bordercolor="#eeeeee"
     borderopacity="1"
     inkscape:showpageshadow="0"
     inkscape:pageopacity="0"
     inkscape:pagecheckerboard="0"
     inkscape:deskcolor="#505050">
    <inkscape:page
       x="0"
       y="0"
       inkscape:label="1"
       id="page1"
       width="341.51999"
       height="190.88"
       margin="0"
       bleed="0" />
  </sodipodi:namedview>
  <g
     id="g1"
     inkscape:groupmode="layer"
     inkscape:label="1">
    <path
       id="path1"
       d="M 0,0 -5.28,0.16 -10.56,0.8 -15.84,1.76 -21.120001,3.04 -26.24,4.8 -31.040001,6.72 -35.84,9.12 l -4.64,2.72 -4.479999,3.04 -4.16,3.36 -4,3.68 -3.68,3.84 -3.360001,4.16 -3.040001,4.320002 -2.719997,4.639999 L -68.32,43.68 l -2.239998,4.959999 -1.600006,4.959999 -1.439994,5.280003 -0.96,5.119999 -0.639999,5.440002 -0.32,5.279999 0.159996,5.440003 0.480004,5.279998 0.959999,5.279999 1.279999,5.119995 1.599998,5.120004 1.919998,4.96 2.400002,4.8 2.720001,4.64 2.880001,4.48 3.360001,4.32 3.519996,3.84 3.84,3.84 4.16,3.36 4.320004,3.19999 4.639999,2.72 4.64,2.56 4.959999,2.08 5.120001,1.76001 5.119998,1.44001 5.280001,1.11999 5.28,0.64 5.28,0.31999 h 5.44 l 5.28,-0.47999 5.28,-0.95999 5.28,-1.12001 5.119999,-1.6 4.960001,-1.91999 4.800001,-2.24001 4.64,-2.56 L 43.68,137.11999 48,133.92 l 4,-3.52001 3.68,-3.83999 3.520001,-4.16 3.200001,-4.32 2.879997,-4.48 2.559997,-4.64 2.080002,-4.96 1.919998,-4.959999 1.440003,-5.120003"
       style="fill:none;stroke:#000000;stroke-width:26.4;stroke-linecap:round;stroke-linejoin:round;stroke-miterlimit:10;stroke-dasharray:none;stroke-opacity:1"
       transform="translate(95.306655,19.919951)"
       clip-path="url(#clipPath2)" />
    <path
       id="path3"
       d="m 470.39999,581.44 39.68,-95.67999"
       style="fill:none;stroke:#000000;stroke-width:26.4;stroke-linecap:round;stroke-linejoin:round;stroke-miterlimit:10;stroke-dasharray:none;stroke-opacity:1"
       transform="translate(-301.49333,-465.84006)"
       clip-path="url(#clipPath4)" />
    <path
       id="path5"
       d="M 510.07999,485.76001 623.35998,636.79999"
       style="fill:none;stroke:#000000;stroke-width:26.4;stroke-linecap:round;stroke-linejoin:round;stroke-miterlimit:10;stroke-dasharray:none;stroke-opacity:1"
       transform="translate(-301.49333,-465.84006)"
       clip-path="url(#clipPath6)" />
  </g>
</svg>
