<?xml version="1.0" encoding="UTF-8" standalone="no"?>
<!-- Created with Inkscape (http://www.inkscape.org/) -->

<svg
   version="1.1"
   id="svg1"
   width="274.81332"
   height="248.28"
   viewBox="0 0 274.81332 248.28"
   sodipodi:docname="Coagulation8.pdf"
   xmlns:inkscape="http://www.inkscape.org/namespaces/inkscape"
   xmlns:sodipodi="http://sodipodi.sourceforge.net/DTD/sodipodi-0.dtd"
   xmlns="http://www.w3.org/2000/svg"
   xmlns:svg="http://www.w3.org/2000/svg">
  <defs
     id="defs1">
    <clipPath
       clipPathUnits="userSpaceOnUse"
       id="clipPath2">
      <path
         d="M 0,0.16 V 1122.5601 H 793.59998 V 0.16 Z"
         transform="translate(-435.04001,-509.28)"
         clip-rule="evenodd"
         id="path2" />
    </clipPath>
    <clipPath
       clipPathUnits="userSpaceOnUse"
       id="clipPath4">
      <path
         d="M 0,0.16 V 1122.5601 H 793.59998 V 0.16 Z"
         transform="translate(-435.04001,-584.79999)"
         clip-rule="evenodd"
         id="path4" />
    </clipPath>
    <clipPath
       clipPathUnits="userSpaceOnUse"
       id="clipPath6">
      <path
         d="M 0,0.16 V 1122.5601 H 793.59998 V 0.16 Z"
         transform="translate(-283.20001,-549.28003)"
         clip-rule="evenodd"
         id="path6" />
    </clipPath>
    <clipPath
       clipPathUnits="userSpaceOnUse"
       id="clipPath8">
      <path
         d="M 0,0.16 V 1122.5601 H 793.59998 V 0.16 Z"
         clip-rule="evenodd"
         id="path8" />
    </clipPath>
    <clipPath
       clipPathUnits="userSpaceOnUse"
       id="clipPath10">
      <path
         d="M 0,0.16 V 1122.5601 H 793.59998 V 0.16 Z"
         clip-rule="evenodd"
         id="path10" />
    </clipPath>
  </defs>
  <sodipodi:namedview
     id="namedview1"
     pagecolor="#505050"
     bordercolor="#eeeeee"
     borderopacity="1"
     inkscape:showpageshadow="0"
     inkscape:pageopacity="0"
     inkscape:pagecheckerboard="0"
     inkscape:deskcolor="#505050">
    <inkscape:page
       x="0"
       y="0"
       inkscape:label="1"
       id="page1"
       width="274.81332"
       height="248.28"
       margin="0"
       bleed="0" />
  </sodipodi:namedview>
  <g
     id="g1"
     inkscape:groupmode="layer"
     inkscape:label="1">
    <path
       id="path1"
       d="m 0,0 c 0,-20.85 -16.9,-37.759998 -37.759998,-37.759998 -20.860001,0 -37.759999,16.909998 -37.759999,37.759998 0,20.85 16.899998,37.759998 37.759999,37.759998 C -16.9,37.759998 0,20.85 0,0 Z"
       style="fill:none;stroke:#000000;stroke-width:26.4;stroke-linecap:round;stroke-linejoin:round;stroke-miterlimit:10;stroke-dasharray:none;stroke-opacity:1"
       transform="translate(435.04001,499.93327)"
       clip-path="url(#clipPath2)" />
    <path
       id="path3"
       d="m 0,0 c 0,-20.85 -16.9,-37.759998 -37.759998,-37.759998 -20.860001,0 -37.759999,16.909998 -37.759999,37.759998 0,20.85 16.899998,37.759998 37.759999,37.759998 C -16.9,37.759998 0,20.85 0,0 Z"
       style="fill:none;stroke:#000000;stroke-width:26.4;stroke-linecap:round;stroke-linejoin:round;stroke-miterlimit:10;stroke-dasharray:none;stroke-opacity:1"
       transform="translate(435.04001,575.45326)"
       clip-path="url(#clipPath4)" />
    <path
       id="path5"
       d="m 0,0 0.32,6.88 0.8,6.72 1.12,6.88 1.44,6.720001 2.08,6.559997 L 8,40.16 l 2.72,6.400001 3.2,6.079998 3.520001,5.920002 3.84,5.759999 4.16,5.440002 4.479999,5.119995 4.800001,4.959999 4.959999,4.640007 5.439999,4.32 5.600002,4 L 56.48,96.32 l 6.080001,3.36 6.240002,2.88 6.399994,2.56 6.560005,2.08 6.720001,1.76 6.719994,1.28 6.720003,0.96 6.88,0.48 h 6.88 l 6.88,-0.32 6.88,-0.8 6.72,-1.12 6.72,-1.6 6.56,-1.92 6.4,-2.4 6.4,-2.72 6.08001,-3.200002 5.91999,-3.36 5.76,-3.839996 5.44,-4.32 5.12,-4.480004 4.96,-4.799995 4.64,-5.120003 4.16001,-5.279998 4,-5.600003 3.67999,-5.919998 3.2,-6.080002 2.88,-6.239998 2.56,-6.400001 2.08,-6.56 1.76,-6.559999 L 225.75999,16.32 226.56,9.44 227.03999,2.56"
       style="fill:none;stroke:#000000;stroke-width:26.4;stroke-linecap:round;stroke-linejoin:round;stroke-miterlimit:10;stroke-dasharray:none;stroke-opacity:1"
       transform="translate(283.20001,539.9333)"
       clip-path="url(#clipPath6)" />
    <path
       id="path7"
       d="M 284,547.03998 V 471.51999"
       style="fill:none;stroke:#000000;stroke-width:26.4;stroke-linecap:round;stroke-linejoin:round;stroke-miterlimit:10;stroke-dasharray:none;stroke-opacity:1"
       transform="translate(0,-9.3467253)"
       clip-path="url(#clipPath8)" />
    <path
       id="path9"
       d="M 510.56,547.03998 V 471.51999"
       style="fill:none;stroke:#000000;stroke-width:26.4;stroke-linecap:round;stroke-linejoin:round;stroke-miterlimit:10;stroke-dasharray:none;stroke-opacity:1"
       transform="translate(0,-9.3467253)"
       clip-path="url(#clipPath10)" />
  </g>
</svg>
