<?xml version="1.0" encoding="UTF-8" standalone="no"?>
<!-- Created with Inkscape (http://www.inkscape.org/) -->

<svg
   version="1.1"
   id="svg1"
   width="433.57333"
   height="277.64001"
   viewBox="0 0 433.57333 277.64001"
   sodipodi:docname="Coagulation3.pdf"
   xmlns:inkscape="http://www.inkscape.org/namespaces/inkscape"
   xmlns:sodipodi="http://sodipodi.sourceforge.net/DTD/sodipodi-0.dtd"
   xmlns="http://www.w3.org/2000/svg"
   xmlns:svg="http://www.w3.org/2000/svg">
  <defs
     id="defs1">
    <clipPath
       clipPathUnits="userSpaceOnUse"
       id="clipPath2">
      <path
         d="M 0,0.16 V 1122.5601 H 793.59998 V 0.16 Z"
         transform="translate(-302.39999,-471.84)"
         clip-rule="evenodd"
         id="path2" />
    </clipPath>
    <clipPath
       clipPathUnits="userSpaceOnUse"
       id="clipPath4">
      <path
         d="M 0,0.16 V 1122.5601 H 793.59998 V 0.16 Z"
         clip-rule="evenodd"
         id="path4" />
    </clipPath>
    <clipPath
       clipPathUnits="userSpaceOnUse"
       id="clipPath6">
      <path
         d="M 0,0.16 V 1122.5601 H 793.59998 V 0.16 Z"
         clip-rule="evenodd"
         id="path6" />
    </clipPath>
  </defs>
  <sodipodi:namedview
     id="namedview1"
     pagecolor="#505050"
     bordercolor="#eeeeee"
     borderopacity="1"
     inkscape:showpageshadow="0"
     inkscape:pageopacity="0"
     inkscape:pagecheckerboard="0"
     inkscape:deskcolor="#505050">
    <inkscape:page
       x="0"
       y="0"
       inkscape:label="1"
       id="page1"
       width="433.57333"
       height="277.64001"
       margin="0"
       bleed="0" />
  </sodipodi:namedview>
  <g
     id="g1"
     inkscape:groupmode="layer"
     inkscape:label="1">
    <path
       id="path1"
       d="M 0,0 -6.08,0.32 -12.32,0.8 -18.4,1.92 -24.32,3.2 -30.24,5.12 -36,7.2 -41.759998,9.76 -47.200001,12.64 -52.32,16 l -5.119999,3.52 -4.800003,4 -4.479999,4.16 -4.159996,4.48 -4,4.799999 -3.520005,5.120003 -3.36,5.119999 -2.879997,5.439998 -2.559998,5.760003 -2.080002,5.760002 -1.919998,5.919998 L -92.480003,76 l -1.119995,6.080002 -0.480004,6.239998 -0.32,6.080002 0.32,6.239998 0.480004,6.08 1.119995,6.08 1.280006,6.08 1.919998,5.92 2.080002,5.76 2.559998,5.6 2.879997,5.44001 3.36,5.27999 3.520005,4.96 4,4.8 4.159996,4.47999 4.479999,4.32001 4.800003,3.84 5.119999,3.68001 5.119999,3.19999 5.440003,2.87999 5.759998,2.56002 5.76,2.23999 5.92,1.76001 5.92,1.43998 6.08,0.96001 6.24,0.64 6.08,0.16"
       style="fill:none;stroke:#000000;stroke-width:26.4;stroke-linecap:round;stroke-linejoin:round;stroke-miterlimit:10;stroke-dasharray:none;stroke-opacity:1"
       transform="translate(119.63999,27.359937)"
       clip-path="url(#clipPath2)" />
    <path
       id="path3"
       d="M 302.39999,660.64001 H 585.59998"
       style="fill:none;stroke:#000000;stroke-width:26.4;stroke-linecap:round;stroke-linejoin:round;stroke-miterlimit:10;stroke-dasharray:none;stroke-opacity:1"
       transform="translate(-182.76,-444.48006)"
       clip-path="url(#clipPath4)" />
    <path
       id="path5"
       d="M 491.20001,698.40002 V 471.84"
       style="fill:none;stroke:#000000;stroke-width:26.4;stroke-linecap:round;stroke-linejoin:round;stroke-miterlimit:10;stroke-dasharray:none;stroke-opacity:1"
       transform="translate(-182.76,-444.48006)"
       clip-path="url(#clipPath6)" />
  </g>
</svg>
