<?xml version="1.0" encoding="UTF-8" standalone="no"?>
<!-- Created with Inkscape (http://www.inkscape.org/) -->

<svg
   version="1.1"
   id="svg1"
   width="274.81332"
   height="282.97333"
   viewBox="0 0 274.81332 282.97333"
   sodipodi:docname="Coagulation17.pdf"
   xmlns:inkscape="http://www.inkscape.org/namespaces/inkscape"
   xmlns:sodipodi="http://sodipodi.sourceforge.net/DTD/sodipodi-0.dtd"
   xmlns="http://www.w3.org/2000/svg"
   xmlns:svg="http://www.w3.org/2000/svg">
  <defs
     id="defs1">
    <clipPath
       clipPathUnits="userSpaceOnUse"
       id="clipPath2">
      <path
         d="M 0,0.16 V 1122.5601 H 793.59998 V 0.16 Z"
         transform="translate(-396.79999,-490.72)"
         clip-rule="evenodd"
         id="path2" />
    </clipPath>
    <clipPath
       clipPathUnits="userSpaceOnUse"
       id="clipPath4">
      <path
         d="M 0,0.16 V 1122.5601 H 793.59998 V 0.16 Z"
         clip-rule="evenodd"
         id="path4" />
    </clipPath>
    <clipPath
       clipPathUnits="userSpaceOnUse"
       id="clipPath6">
      <path
         d="M 0,0.16 V 1122.5601 H 793.59998 V 0.16 Z"
         transform="translate(-547.84003,-566.23999)"
         clip-rule="evenodd"
         id="path6" />
    </clipPath>
  </defs>
  <sodipodi:namedview
     id="namedview1"
     pagecolor="#505050"
     bordercolor="#eeeeee"
     borderopacity="1"
     inkscape:showpageshadow="0"
     inkscape:pageopacity="0"
     inkscape:pagecheckerboard="0"
     inkscape:deskcolor="#505050">
    <inkscape:page
       x="0"
       y="0"
       inkscape:label="1"
       id="page1"
       width="274.81332"
       height="282.97333"
       margin="0"
       bleed="0" />
  </sodipodi:namedview>
  <g
     id="g1"
     inkscape:groupmode="layer"
     inkscape:label="1">
    <path
       id="path1"
       d="M 0,0 -5.28,0.32 -10.72,0.8 -16,1.76 -21.280001,3.04 -26.4,4.8 -31.360001,6.88 -36.16,9.28 -40.799999,12 l -4.48,3.04 -4.16,3.519999 -3.84,3.680001 -3.68,3.84 -3.520001,4.16 -3.04,4.480001 -2.719998,4.64 -2.400001,4.799999 -2.080002,4.959999 -1.760002,5.120003 -1.279999,5.279998 -0.959999,5.280003 -0.479996,5.439995 -0.32,5.279999 0.32,5.440002 0.479996,5.279999 0.959999,5.440002 1.279999,5.120003 1.760002,5.119997 2.080002,4.96 2.400001,4.8 2.719998,4.64 3.04,4.48 3.520001,4.16 3.68,4.00001 3.84,3.67999 4.16,3.36 4.48,3.03999 4.639999,2.88001 4.799999,2.40001 L -26.4,146.24 -21.280001,148 -16,149.28 l 5.28,0.96 5.44,0.64 5.28,0.15999 5.44,-0.15999 5.28,-0.64 5.44,-0.96 L 21.280001,148 26.4,146.24 31.360001,144.32001 36.32,141.92 l 4.479999,-2.88001 4.48,-3.03999 4.16,-3.36 4,-3.67999 3.68,-4.00001 3.360001,-4.16 3.04,-4.48 2.880002,-4.64 2.400001,-4.8 2.079994,-4.96 1.600006,-5.119997 1.279999,-5.120003 0.959999,-5.440002 0.64,-5.279999 0.159996,-5.440002"
       style="fill:none;stroke:#000000;stroke-width:26.4;stroke-linecap:round;stroke-linejoin:round;stroke-miterlimit:10;stroke-dasharray:none;stroke-opacity:1"
       transform="translate(396.79999,406.62661)"
       clip-path="url(#clipPath2)" />
    <path
       id="path3"
       d="m 472.32001,566.23999 h 75.52002"
       style="fill:none;stroke:#000000;stroke-width:26.4;stroke-linecap:round;stroke-linejoin:round;stroke-miterlimit:10;stroke-dasharray:none;stroke-opacity:1"
       transform="translate(0,-84.093392)"
       clip-path="url(#clipPath4)" />
    <path
       id="path5"
       d="m 0,0 -7.52,6.88 -7.36,7.2 -6.88,7.52 -6.56,7.680001 -6.080002,8.159998 -5.919998,8.479999 -5.279998,8.640003 -4.960003,8.8 -4.64,9.120002 -4.16,9.439995 -3.68,9.440003 -3.199997,9.599999 -2.720001,9.92 -2.400002,9.92 -1.760002,10.08 -1.439995,10.08001 -0.959999,10.07998"
       style="fill:none;stroke:#000000;stroke-width:26.4;stroke-linecap:round;stroke-linejoin:round;stroke-miterlimit:10;stroke-dasharray:none;stroke-opacity:1"
       transform="translate(547.84003,482.1466)"
       clip-path="url(#clipPath6)" />
  </g>
</svg>
