<?xml version="1.0" encoding="UTF-8" standalone="no"?>
<!-- Created with Inkscape (http://www.inkscape.org/) -->

<svg
   version="1.1"
   id="svg1"
   width="317.49332"
   height="242.93333"
   viewBox="0 0 317.49332 242.93333"
   sodipodi:docname="Coagulation16.pdf"
   xmlns:inkscape="http://www.inkscape.org/namespaces/inkscape"
   xmlns:sodipodi="http://sodipodi.sourceforge.net/DTD/sodipodi-0.dtd"
   xmlns="http://www.w3.org/2000/svg"
   xmlns:svg="http://www.w3.org/2000/svg">
  <defs
     id="defs1">
    <clipPath
       clipPathUnits="userSpaceOnUse"
       id="clipPath2">
      <path
         d="M 0,0.16 V 1122.5601 H 793.59998 V 0.16 Z"
         transform="translate(-291.51999,-609.28003)"
         clip-rule="evenodd"
         id="path2" />
    </clipPath>
    <clipPath
       clipPathUnits="userSpaceOnUse"
       id="clipPath4">
      <path
         d="M 0,0.16 V 1122.5601 H 793.59998 V 0.16 Z"
         transform="translate(-382.07999,-609.28003)"
         clip-rule="evenodd"
         id="path4" />
    </clipPath>
    <clipPath
       clipPathUnits="userSpaceOnUse"
       id="clipPath6">
      <path
         d="M 0,0.16 V 1122.5601 H 793.59998 V 0.16 Z"
         transform="translate(3.3333334e-6)"
         clip-rule="evenodd"
         id="path6" />
    </clipPath>
    <clipPath
       clipPathUnits="userSpaceOnUse"
       id="clipPath8">
      <path
         d="M 0,0.16 V 1122.5601 H 793.59998 V 0.16 Z"
         transform="translate(-291.51999,-533.76001)"
         clip-rule="evenodd"
         id="path8" />
    </clipPath>
    <clipPath
       clipPathUnits="userSpaceOnUse"
       id="clipPath10">
      <path
         d="M 0,0.16 V 1122.5601 H 793.59998 V 0.16 Z"
         transform="translate(-502.88001,-477.12)"
         clip-rule="evenodd"
         id="path10" />
    </clipPath>
    <clipPath
       clipPathUnits="userSpaceOnUse"
       id="clipPath12">
      <path
         d="M 0,0.16 V 1122.5601 H 793.59998 V 0.16 Z"
         transform="translate(-517.28003,-504.32001)"
         clip-rule="evenodd"
         id="path12" />
    </clipPath>
  </defs>
  <sodipodi:namedview
     id="namedview1"
     pagecolor="#505050"
     bordercolor="#eeeeee"
     borderopacity="1"
     inkscape:showpageshadow="0"
     inkscape:pageopacity="0"
     inkscape:pagecheckerboard="0"
     inkscape:deskcolor="#505050">
    <inkscape:page
       x="0"
       y="0"
       inkscape:label="1"
       id="page1"
       width="317.49332"
       height="242.93333"
       margin="0"
       bleed="0" />
  </sodipodi:namedview>
  <g
     id="g1"
     inkscape:groupmode="layer"
     inkscape:label="1">
    <path
       id="path1"
       d="m 0,0 v 4.48 l 0.48,4.48 0.8,4.48 0.96,4.32 1.12,4.16 1.6,4 1.76,4 1.92,3.679998 2.24,3.520001 2.56,3.200001 2.56,3.040001 2.879999,2.720001 3.040001,2.559997 3.039999,2.080002 3.360001,1.919998 3.36,1.440003 3.520001,1.119999 3.52,0.959999 3.520001,0.479999 h 3.519996 L 49.439999,56.48 l 3.52,-0.64 L 56.48,54.880001 59.84,53.599998 63.200001,52 66.400002,50.080002 69.599998,47.84 72.480003,45.279999 75.199997,42.400002 77.919998,39.360001 80.32,36 82.400002,32.48 84.32,28.639999 l 1.760002,-3.84 1.439995,-4.16 L 88.639999,16.32 89.599998,12 l 0.480004,-4.32 0.32,-4.48 0.159996,-4.48"
       style="fill:none;stroke:#000000;stroke-width:26.4;stroke-linecap:round;stroke-linejoin:round;stroke-miterlimit:10;stroke-dasharray:none;stroke-opacity:1"
       transform="translate(54.053322,166.1333)"
       clip-path="url(#clipPath2)" />
    <path
       id="path3"
       d="m 0,0 0.16,4.48 0.32,4.48 0.8,4.32 0.96,4.32 1.12,4.16 1.6,4 1.76,3.84 1.92,3.839999 2.24,3.36 2.4,3.360001 2.56,3.040001 2.879999,2.719997 L 21.6,48.32 24.799999,50.560001 28,52.32 l 3.360001,1.599998 3.36,1.280003 L 38.240002,56 l 3.519996,0.48 3.520001,0.159999 3.52,-0.159999 L 52.32,56 l 3.52,-0.799999 3.520001,-1.280003 3.2,-1.599998 3.359997,-1.759999 L 68.959999,48.32 72,45.919998 74.720001,43.200001 77.279999,40.16 79.68,36.799999 l 2.239998,-3.36 L 84,29.6 l 1.599998,-3.84 1.599999,-4 1.120003,-4.16 0.959999,-4.32 0.800003,-4.32 0.32,-4.48 L 90.559998,0"
       style="fill:none;stroke:#000000;stroke-width:26.4;stroke-linecap:round;stroke-linejoin:round;stroke-miterlimit:10;stroke-dasharray:none;stroke-opacity:1"
       transform="translate(144.61332,166.1333)"
       clip-path="url(#clipPath4)" />
    <path
       id="path5"
       d="M 291.51999,609.28003 V 533.76001"
       style="fill:none;stroke:#000000;stroke-width:26.4;stroke-linecap:round;stroke-linejoin:round;stroke-miterlimit:10;stroke-dasharray:none;stroke-opacity:1"
       transform="translate(-237.46667,-443.14673)"
       clip-path="url(#clipPath6)" />
    <path
       id="path7"
       d="m 0,0 -0.16,-2.24 -0.32,-2.24 -0.48,-2.08 -0.8,-2.08 -0.96,-1.92 -1.12,-1.76 -1.28,-1.6 -1.44,-1.44 L -8,-16.639999 -9.76,-17.6 l -1.6,-0.64 -1.92,-0.479999 -1.76,-0.16 -1.759999,0.16 -1.76,0.479999 -1.760001,0.64 -1.76,0.800001 -1.44,1.119999 -1.439999,1.44 -1.440001,1.6 -1.12,1.76 -0.96,1.92 -0.640001,2.08 -0.639999,2.08 -0.32,2.24 -0.16,2.24 v 2.24 l 0.32,2.24 0.479999,2.24 0.800002,2.08 0.799999,1.92 1.120001,1.92 1.279998,1.6 1.440001,1.44 1.440001,1.12 1.6,1.12 1.759998,0.64"
       style="fill:none;stroke:#000000;stroke-width:26.4;stroke-linecap:round;stroke-linejoin:round;stroke-miterlimit:10;stroke-dasharray:none;stroke-opacity:1"
       transform="translate(54.053322,90.613285)"
       clip-path="url(#clipPath8)" />
    <path
       id="path9"
       d="m 0,0 -4.16,7.84 -4,7.84 -3.68,8.16 -3.36,8.48 -3.04,8.479999 -2.719999,8.64 -2.400002,8.960003 -1.92,8.959999 -1.76,9.120002 L -28.48,85.599998 -29.440001,94.879997 -30.24,104.16 l -0.319999,9.44 v 9.28 l 0.319999,9.28"
       style="fill:none;stroke:#000000;stroke-width:26.4;stroke-linecap:round;stroke-linejoin:round;stroke-miterlimit:10;stroke-dasharray:none;stroke-opacity:1"
       transform="translate(265.41334,33.97327)"
       clip-path="url(#clipPath10)" />
    <path
       id="path11"
       d="m 0,0 1.92,-0.16 1.76,-0.32 1.76,-0.64 1.6,-0.96 1.6,-1.28 1.44,-1.28 1.28,-1.6 1.12,-1.76 0.96,-2.08 0.8,-1.92 0.48,-2.24 0.32,-2.24 0.16,-2.239999 -0.16,-2.24 -0.32,-2.240002 -0.48,-2.24 -0.8,-2.079999 -0.8,-1.920001 -1.12,-1.76 -1.28,-1.599998 L 8.8,-34.240002 7.2,-35.52 l -1.6,-0.96 -1.76,-0.639999 -1.76,-0.479999 -1.76,-0.16 -1.76,0.16 -1.92,0.319999 -1.76,0.64 -1.6,0.959999 -1.6,1.119999 -1.44,1.280002 -1.28,1.599999 -1.12,1.76 -0.96,1.92"
       style="fill:none;stroke:#000000;stroke-width:26.4;stroke-linecap:round;stroke-linejoin:round;stroke-miterlimit:10;stroke-dasharray:none;stroke-opacity:1"
       transform="translate(279.81336,61.173282)"
       clip-path="url(#clipPath12)" />
  </g>
</svg>
