<?xml version="1.0" encoding="UTF-8" standalone="no"?>
<!-- Created with Inkscape (http://www.inkscape.org/) -->

<svg
   version="1.1"
   id="svg1"
   width="216.10667"
   height="349.72"
   viewBox="0 0 216.10667 349.72"
   sodipodi:docname="Coagulation13.pdf"
   xmlns:inkscape="http://www.inkscape.org/namespaces/inkscape"
   xmlns:sodipodi="http://sodipodi.sourceforge.net/DTD/sodipodi-0.dtd"
   xmlns="http://www.w3.org/2000/svg"
   xmlns:svg="http://www.w3.org/2000/svg">
  <defs
     id="defs1">
    <clipPath
       clipPathUnits="userSpaceOnUse"
       id="clipPath2">
      <path
         d="M 0,0.16 V 1122.5601 H 793.59998 V 0.16 Z"
         transform="translate(-406.23999,-679.52002)"
         clip-rule="evenodd"
         id="path2" />
    </clipPath>
    <clipPath
       clipPathUnits="userSpaceOnUse"
       id="clipPath4">
      <path
         d="M 0,0.16 V 1122.5601 H 793.59998 V 0.16 Z"
         transform="translate(-368.48001,-415.20002)"
         clip-rule="evenodd"
         id="path4" />
    </clipPath>
    <clipPath
       clipPathUnits="userSpaceOnUse"
       id="clipPath6">
      <path
         d="M 0,0.16 V 1122.5601 H 793.59998 V 0.16 Z"
         transform="translate(-368.48001,-471.84)"
         clip-rule="evenodd"
         id="path6" />
    </clipPath>
    <clipPath
       clipPathUnits="userSpaceOnUse"
       id="clipPath8">
      <path
         d="M 0,0.16 V 1122.5601 H 793.59998 V 0.16 Z"
         transform="translate(-368.48001,-547.35999)"
         clip-rule="evenodd"
         id="path8" />
    </clipPath>
    <clipPath
       clipPathUnits="userSpaceOnUse"
       id="clipPath10">
      <path
         d="M 0,0.16 V 1122.5601 H 793.59998 V 0.16 Z"
         clip-rule="evenodd"
         id="path10" />
    </clipPath>
  </defs>
  <sodipodi:namedview
     id="namedview1"
     pagecolor="#505050"
     bordercolor="#eeeeee"
     borderopacity="1"
     inkscape:showpageshadow="0"
     inkscape:pageopacity="0"
     inkscape:pagecheckerboard="0"
     inkscape:deskcolor="#505050">
    <inkscape:page
       x="0"
       y="0"
       inkscape:label="1"
       id="page1"
       width="216.10667"
       height="349.72"
       margin="0"
       bleed="0" />
  </sodipodi:namedview>
  <g
     id="g1"
     inkscape:groupmode="layer"
     inkscape:label="1">
    <path
       id="path1"
       d="m 0,0 c 0,-20.85 -16.9,-37.759998 -37.759998,-37.759998 -20.860001,0 -37.759999,16.909998 -37.759999,37.759998 0,20.85 16.899998,37.759998 37.759999,37.759998 C -16.9,37.759998 0,20.85 0,0 Z"
       style="fill:none;stroke:#000000;stroke-width:26.4;stroke-linecap:round;stroke-linejoin:round;stroke-miterlimit:10;stroke-dasharray:none;stroke-opacity:1"
       transform="translate(406.23999,670.17329)"
       clip-path="url(#clipPath2)" />
    <path
       id="path3"
       d="M 0,0 -4.32,0.16 -8.8,0.48 -13.12,0.8 -17.440001,1.44 -21.6,2.24 l -4,0.96 -4,0.96 -3.679999,1.28 -3.52,1.44 L -40,8.32 -43.040001,9.92 -45.759998,11.68 -48.16,13.6 -50.400002,15.52 -52.32,17.6 -53.759998,19.68 -55.040001,21.76 -55.84,24 l -0.64,2.08 -0.159999,2.24 0.159999,2.239999 0.64,2.24 0.799999,2.240002 1.280003,2.079998 1.439998,2.080002 1.919998,2.079998 2.240002,1.920002 2.400002,1.759998 2.719997,1.760002 L -40,48.32 l 3.200001,1.599998 3.52,1.440003 L -29.6,52.48 l 4,1.119998 4,0.960003 4.159999,0.8 L -13.12,55.84 l 4.32,0.48 4.48,0.319999 H 0"
       style="fill:none;stroke:#000000;stroke-width:26.4;stroke-linecap:round;stroke-linejoin:round;stroke-miterlimit:10;stroke-dasharray:none;stroke-opacity:1"
       transform="translate(368.48001,405.85329)"
       clip-path="url(#clipPath4)" />
    <path
       id="path5"
       d="m 0,0 -4.32,0.16 -4.48,0.32 -4.32,0.64 -4.320001,0.8 -4.159999,0.96 -4,1.28 -4,1.44 -3.679999,1.6 -3.52,1.92 L -40,11.04 l -3.040001,2.24 -2.719997,2.4 -2.400002,2.4 -2.240002,2.559999 L -52.32,23.360001 -53.759998,26.08 -55.040001,28.959999 -55.84,31.84 l -0.64,3.040001 -0.159999,2.879997 0.159999,3.040001 0.64,2.880001 0.799999,2.880001 1.280003,2.879998 L -52.32,52.32 -50.400002,54.880001 -48.16,57.599998 -45.759998,60 -43.040001,62.400002 -40,64.480003 l 3.200001,2.079995 3.52,1.760002 3.679999,1.760002 4,1.439995 4,1.120002 4.159999,1.120003 4.320001,0.799996 4.32,0.480003 4.48,0.479996 H 0"
       style="fill:none;stroke:#000000;stroke-width:26.4;stroke-linecap:round;stroke-linejoin:round;stroke-miterlimit:10;stroke-dasharray:none;stroke-opacity:1"
       transform="translate(368.48001,462.49327)"
       clip-path="url(#clipPath6)" />
    <path
       id="path7"
       d="m 0,0 -4.32,0.16 -4.48,0.48 -4.32,0.64 -4.160001,1.12 -4.16,1.12 -4,1.6 -4,1.76 -3.679998,2.08 -3.360001,2.24 -3.36,2.56 -3.040001,2.56 -2.719997,2.880001 L -48,22.24 -50.240002,25.440001 -52.16,28.799999 -53.599998,32.32 l -1.280003,3.52 -0.959999,3.520001 -0.48,3.68 -0.319999,3.68 0.159999,3.680001 0.48,3.68 0.799999,3.679996 1.119999,3.520001 1.600002,3.520004 1.759999,3.360001 2.080002,3.199997 2.399997,3.040001 2.720002,3.04 2.880001,2.720002 3.2,2.559997 3.520001,2.239998 3.519998,2.080002 3.840001,1.919998 4,1.599999 4.159999,1.279998 4.16,1.120003 4.32,0.800003 4.48,0.479996 4.32,0.160004 h 4.48 l 4.32,-0.32 4.32,-0.64 4.32,-0.959999 4.16,-1.280006 4.159999,-1.439995 L 28.48,88 l 3.68,-1.919998 3.52,-2.240006 3.360001,-2.399994 3.040001,-2.560005"
       style="fill:none;stroke:#000000;stroke-width:26.4;stroke-linecap:round;stroke-linejoin:round;stroke-miterlimit:10;stroke-dasharray:none;stroke-opacity:1"
       transform="translate(368.48001,538.01326)"
       clip-path="url(#clipPath8)" />
    <path
       id="path9"
       d="m 410.56,626.23999 71.20001,-78.88001"
       style="fill:none;stroke:#000000;stroke-width:26.4;stroke-linecap:round;stroke-linejoin:round;stroke-miterlimit:10;stroke-dasharray:none;stroke-opacity:1"
       transform="translate(0,-9.3467253)"
       clip-path="url(#clipPath10)" />
  </g>
</svg>
