<?xml version="1.0" encoding="UTF-8" standalone="no"?>
<!-- Created with Inkscape (http://www.inkscape.org/) -->

<svg
   version="1.1"
   id="svg1"
   width="202.77333"
   height="288.30667"
   viewBox="0 0 202.77333 288.30667"
   sodipodi:docname="Coagulation10.pdf"
   xmlns:inkscape="http://www.inkscape.org/namespaces/inkscape"
   xmlns:sodipodi="http://sodipodi.sourceforge.net/DTD/sodipodi-0.dtd"
   xmlns="http://www.w3.org/2000/svg"
   xmlns:svg="http://www.w3.org/2000/svg">
  <defs
     id="defs1">
    <clipPath
       clipPathUnits="userSpaceOnUse"
       id="clipPath2">
      <path
         d="M 0,0.16 V 1122.5601 H 793.59998 V 0.16 Z"
         transform="translate(-472.32001,-566.23999)"
         clip-rule="evenodd"
         id="path2" />
    </clipPath>
    <clipPath
       clipPathUnits="userSpaceOnUse"
       id="clipPath4">
      <path
         d="M 0,0.16 V 1122.5601 H 793.59998 V 0.16 Z"
         clip-rule="evenodd"
         id="path4" />
    </clipPath>
    <clipPath
       clipPathUnits="userSpaceOnUse"
       id="clipPath6">
      <path
         d="M 0,0.16 V 1122.5601 H 793.59998 V 0.16 Z"
         transform="translate(-321.28,-566.23999)"
         clip-rule="evenodd"
         id="path6" />
    </clipPath>
  </defs>
  <sodipodi:namedview
     id="namedview1"
     pagecolor="#505050"
     bordercolor="#eeeeee"
     borderopacity="1"
     inkscape:showpageshadow="0"
     inkscape:pageopacity="0"
     inkscape:pagecheckerboard="0"
     inkscape:deskcolor="#505050">
    <inkscape:page
       x="0"
       y="0"
       inkscape:label="1"
       id="page1"
       width="202.77333"
       height="288.30667"
       margin="0"
       bleed="0" />
  </sodipodi:namedview>
  <g
     id="g1"
     inkscape:groupmode="layer"
     inkscape:label="1">
    <path
       id="path1"
       d="m 0,0 -11.36,-2.88 -11.519999,-2.24 -11.520003,-1.92 -11.68,-1.44 -11.839996,-0.96 -11.68,-0.48 H -81.279999 L -93.120003,-9.44 -104.8,-8.48 -116.48,-7.04 -128,-5.12 -139.52,-2.88 -151.03999,0"
       style="fill:none;stroke:#000000;stroke-width:26.4;stroke-linecap:round;stroke-linejoin:round;stroke-miterlimit:10;stroke-dasharray:none;stroke-opacity:1"
       transform="translate(176.16001,180.47993)"
       clip-path="url(#clipPath2)" />
    <path
       id="path3"
       d="m 472.32001,415.20001 v 226.56"
       style="fill:none;stroke:#000000;stroke-width:26.4;stroke-linecap:round;stroke-linejoin:round;stroke-miterlimit:10;stroke-dasharray:none;stroke-opacity:1"
       transform="translate(-296.16,-385.76006)"
       clip-path="url(#clipPath4)" />
    <path
       id="path5"
       d="m 0,0 4.96,-3.84 4.64,-4.32 4.32,-4.48 4,-4.800001 3.68,-4.959999 3.199999,-5.44 3.040001,-5.439999 2.56,-5.600002 2.239999,-5.919998 1.920002,-5.920002 L 36,-56.799999 l 0.959999,-6.240002 0.639999,-6.239998 0.16,-6.239998 -0.16,-6.240005 L 36.959999,-88 36,-94.080002 34.560001,-100.16 32.639999,-106.24 30.4,-112 l -2.56,-5.76 -3.040001,-5.44 -3.199999,-5.28 -3.68,-5.12001 -4,-4.63999 -4.32,-4.64 -4.64,-4.15999 -4.96,-4"
       style="fill:none;stroke:#000000;stroke-width:26.4;stroke-linecap:round;stroke-linejoin:round;stroke-miterlimit:10;stroke-dasharray:none;stroke-opacity:1"
       transform="translate(25.119999,180.47993)"
       clip-path="url(#clipPath6)" />
  </g>
</svg>
