<?xml version="1.0" encoding="UTF-8" standalone="no"?>
<!-- Created with Inkscape (http://www.inkscape.org/) -->

<svg
   version="1.1"
   id="svg1"
   width="212.10667"
   height="288.32001"
   viewBox="0 0 212.10667 288.32001"
   sodipodi:docname="Condense.pdf"
   xmlns:inkscape="http://www.inkscape.org/namespaces/inkscape"
   xmlns:sodipodi="http://sodipodi.sourceforge.net/DTD/sodipodi-0.dtd"
   xmlns="http://www.w3.org/2000/svg"
   xmlns:svg="http://www.w3.org/2000/svg">
  <defs
     id="defs1">
    <clipPath
       clipPathUnits="userSpaceOnUse"
       id="clipPath2">
      <path
         d="M 0,0.16 V 1122.5601 H 793.59998 V 0.16 Z"
         transform="translate(-445.92001,-466.88001)"
         clip-rule="evenodd"
         id="path2" />
    </clipPath>
    <clipPath
       clipPathUnits="userSpaceOnUse"
       id="clipPath4">
      <path
         d="M 0,0.16 V 1122.5601 H 793.59998 V 0.16 Z"
         clip-rule="evenodd"
         id="path4" />
    </clipPath>
    <clipPath
       clipPathUnits="userSpaceOnUse"
       id="clipPath6">
      <path
         d="M 0,0.16 V 1122.5601 H 793.59998 V 0.16 Z"
         transform="translate(-402.23999,-521.59998)"
         clip-rule="evenodd"
         id="path6" />
    </clipPath>
  </defs>
  <sodipodi:namedview
     id="namedview1"
     pagecolor="#505050"
     bordercolor="#eeeeee"
     borderopacity="1"
     inkscape:showpageshadow="0"
     inkscape:pageopacity="0"
     inkscape:pagecheckerboard="0"
     inkscape:deskcolor="#505050">
    <inkscape:page
       x="0"
       y="0"
       inkscape:label="1"
       id="page1"
       width="212.10667"
       height="288.32001"
       margin="0"
       bleed="0" />
  </sodipodi:namedview>
  <g
     id="g1"
     inkscape:groupmode="layer"
     inkscape:label="1">
    <path
       id="path1"
       d="m 0,0 c 0,-10.42 -13.5,-18.879999 -30.16,-18.879999 -16.66,0 -30.16,8.459999 -30.16,18.879999 0,10.42 13.5,18.879999 30.16,18.879999 C -13.5,18.879999 0,10.42 0,0 Z"
       style="fill:none;stroke:#000000;stroke-width:26.4;stroke-linecap:round;stroke-linejoin:round;stroke-miterlimit:10;stroke-dasharray:none;stroke-opacity:1"
       transform="translate(445.92001,460.21328)"
       clip-path="url(#clipPath2)" />
    <path
       id="path3"
       d="M 321.28,674.56 V 448 L 472.32001,674.56 V 448"
       style="fill:none;stroke:#000000;stroke-width:26.4;stroke-linecap:round;stroke-linejoin:round;stroke-miterlimit:10;stroke-dasharray:none;stroke-opacity:1"
       transform="translate(0,-6.6667253)"
       clip-path="url(#clipPath4)" />
    <path
       id="path5"
       d="m 0,0 2.72,0.64 2.88,0.64 2.88,0.48 3.04,0.16 h 3.04 L 17.440001,1.76 20.48,1.44 23.360001,0.96 26.08,0.16 l 2.719999,-0.8 2.400002,-0.96 2.399997,-1.28 2.080002,-1.28 1.919998,-1.44 1.760003,-1.6 1.439998,-1.6 1.119999,-1.76 0.800003,-1.76 0.64,-1.92 L 43.68,-16 v -1.92 l -0.319999,-1.92 -0.64,-1.76 -0.800003,-1.760001 -1.279999,-1.76 -1.439998,-1.599998 L 37.599998,-28.32 35.68,-29.76 33.439999,-31.040001 31.200001,-32.32 28.639999,-33.279999 25.92,-34.080002 23.200001,-34.880001 20.32,-35.360001 17.280001,-35.68"
       style="fill:none;stroke:#000000;stroke-width:26.4;stroke-linecap:round;stroke-linejoin:round;stroke-miterlimit:10;stroke-dasharray:none;stroke-opacity:1"
       transform="translate(402.23999,514.93325)"
       clip-path="url(#clipPath6)" />
  </g>
</svg>
