<?xml version="1.0" encoding="UTF-8" standalone="no"?>
<!-- Created with Inkscape (http://www.inkscape.org/) -->

<svg
   version="1.1"
   id="svg1"
   width="296.16"
   height="316.34668"
   viewBox="0 0 296.16 316.34668"
   sodipodi:docname="Decoction2.pdf"
   xmlns:inkscape="http://www.inkscape.org/namespaces/inkscape"
   xmlns:sodipodi="http://sodipodi.sourceforge.net/DTD/sodipodi-0.dtd"
   xmlns="http://www.w3.org/2000/svg"
   xmlns:svg="http://www.w3.org/2000/svg">
  <defs
     id="defs1">
    <clipPath
       clipPathUnits="userSpaceOnUse"
       id="clipPath2">
      <path
         d="M 0,0.16 V 1122.5601 H 793.59998 V 0.16 Z"
         transform="translate(-396.79998,-674.56)"
         clip-rule="evenodd"
         id="path2" />
    </clipPath>
    <clipPath
       clipPathUnits="userSpaceOnUse"
       id="clipPath4">
      <path
         d="M 0,0.16 V 1122.5601 H 793.59998 V 0.16 Z"
         transform="translate(-3.3333333e-6)"
         clip-rule="evenodd"
         id="path4" />
    </clipPath>
    <clipPath
       clipPathUnits="userSpaceOnUse"
       id="clipPath6">
      <path
         d="M 0,0.16 V 1122.5601 H 793.59998 V 0.16 Z"
         transform="translate(-3.3333333e-6)"
         clip-rule="evenodd"
         id="path6" />
    </clipPath>
    <clipPath
       clipPathUnits="userSpaceOnUse"
       id="clipPath8">
      <path
         d="M 0,0.16 V 1122.5601 H 793.59998 V 0.16 Z"
         transform="translate(-3.3333333e-6)"
         clip-rule="evenodd"
         id="path8" />
    </clipPath>
    <clipPath
       clipPathUnits="userSpaceOnUse"
       id="clipPath10">
      <path
         d="M 0,0.16 V 1122.5601 H 793.59998 V 0.16 Z"
         transform="translate(-510.07998,-636.79999)"
         clip-rule="evenodd"
         id="path10" />
    </clipPath>
    <clipPath
       clipPathUnits="userSpaceOnUse"
       id="clipPath12">
      <path
         d="M 0,0.16 V 1122.5601 H 793.59998 V 0.16 Z"
         transform="translate(-3.3333333e-6)"
         clip-rule="evenodd"
         id="path12" />
    </clipPath>
    <clipPath
       clipPathUnits="userSpaceOnUse"
       id="clipPath14">
      <path
         d="M 0,0.16 V 1122.5601 H 793.59998 V 0.16 Z"
         transform="translate(-3.3333333e-6)"
         clip-rule="evenodd"
         id="path14" />
    </clipPath>
  </defs>
  <sodipodi:namedview
     id="namedview1"
     pagecolor="#505050"
     bordercolor="#eeeeee"
     borderopacity="1"
     inkscape:showpageshadow="0"
     inkscape:pageopacity="0"
     inkscape:pagecheckerboard="0"
     inkscape:deskcolor="#505050">
    <inkscape:page
       x="0"
       y="0"
       inkscape:label="1"
       id="page1"
       width="296.16"
       height="316.34668"
       margin="0"
       bleed="0" />
  </sodipodi:namedview>
  <g
     id="g1"
     inkscape:groupmode="layer"
     inkscape:label="1">
    <path
       id="path1"
       d="m 0,0 6.88,-0.16 6.88,-0.64 6.72,-0.96 6.720001,-1.44 6.559997,-1.92 6.400002,-2.24 6.400001,-2.56 6.079998,-3.04 5.920002,-3.36 L 64.32,-20 69.919998,-24 75.040001,-28.48 80,-33.119999 l 4.800003,-4.960003 4.32,-5.279999 4.159996,-5.439998 3.68,-5.760002 L 100.32,-60.48 l 3.04,-6.240001 2.56,-6.239998 2.24,-6.400002 1.76,-6.559997 1.44,-6.720001 1.12,-6.720002 0.64,-6.879999 0.16,-6.88 -0.16,-6.72 -0.64,-6.88 -0.96,-6.72 -1.44,-6.72 -1.76,-6.56 -2.24,-6.56 -2.56,-6.24 -3.04,-6.23999 -3.359997,-5.92 -3.680001,-5.76001 -4,-5.44 -4.480003,-5.28 -4.639999,-4.95999 -4.959999,-4.80001 -5.279999,-4.32 -5.440003,-4 -5.759998,-3.84 -5.920002,-3.36 -6.079998,-3.04 L 40.48,-219.03999 34.080002,-221.28 27.52,-223.2 20.799999,-224.64 14.08,-225.60001 7.2,-226.24 0.48,-226.56"
       style="fill:none;stroke:#000000;stroke-width:26.4;stroke-linecap:round;stroke-linejoin:round;stroke-miterlimit:10;stroke-dasharray:none;stroke-opacity:1"
       transform="translate(136.66665,255.43994)"
       clip-path="url(#clipPath2)" />
    <path
       id="path3"
       d="m 396.79999,448 h -113.28"
       style="fill:none;stroke:#000000;stroke-width:26.4;stroke-linecap:round;stroke-linejoin:round;stroke-miterlimit:10;stroke-dasharray:none;stroke-opacity:1"
       transform="translate(-260.13333,-419.12006)"
       clip-path="url(#clipPath4)" />
    <path
       id="path5"
       d="M 396.79999,674.56 H 321.28"
       style="fill:none;stroke:#000000;stroke-width:26.4;stroke-linecap:round;stroke-linejoin:round;stroke-miterlimit:10;stroke-dasharray:none;stroke-opacity:1"
       transform="translate(-260.13333,-419.12006)"
       clip-path="url(#clipPath6)" />
    <path
       id="path7"
       d="M 321.28,448 V 674.56"
       style="fill:none;stroke:#000000;stroke-width:26.4;stroke-linecap:round;stroke-linejoin:round;stroke-miterlimit:10;stroke-dasharray:none;stroke-opacity:1"
       transform="translate(-260.13333,-419.12006)"
       clip-path="url(#clipPath8)" />
    <path
       id="path9"
       d="M 0,0 -3.52,0.16 -6.88,0.64 -10.24,1.44 -13.6,2.56 -16.799999,4 -19.84,5.6 l -2.879999,2.08 -2.720002,2.24 -2.399999,2.4 -2.24,2.72 -1.92,2.88 -1.759998,3.039999 -1.440003,3.200001 -1.119999,3.200001 -0.799999,3.519998 -0.479999,3.360003 -0.16,3.519996 0.16,3.520001 0.479999,3.36 L -36.32,48.16 l 1.119999,3.200001 1.440003,3.2 L -32,57.599998 -30.08,60.48 l 2.24,2.720001 2.399999,2.399997 2.720002,2.239998 2.879999,2.080002 3.040001,1.599999 3.199999,1.440002 3.36,1.120003 3.36,0.799995 3.36,0.480004 3.52,0.159996"
       style="fill:none;stroke:#000000;stroke-width:26.4;stroke-linecap:round;stroke-linejoin:round;stroke-miterlimit:10;stroke-dasharray:none;stroke-opacity:1"
       transform="translate(249.94665,217.67993)"
       clip-path="url(#clipPath10)" />
    <path
       id="path11"
       d="m 510.07999,636.79999 h 18.88003"
       style="fill:none;stroke:#000000;stroke-width:26.4;stroke-linecap:round;stroke-linejoin:round;stroke-miterlimit:10;stroke-dasharray:none;stroke-opacity:1"
       transform="translate(-260.13333,-419.12006)"
       clip-path="url(#clipPath12)" />
    <path
       id="path13"
       d="m 510.07999,712.32001 h 18.88003"
       style="fill:none;stroke:#000000;stroke-width:26.4;stroke-linecap:round;stroke-linejoin:round;stroke-miterlimit:10;stroke-dasharray:none;stroke-opacity:1"
       transform="translate(-260.13333,-419.12006)"
       clip-path="url(#clipPath14)" />
  </g>
</svg>
