<?xml version="1.0" encoding="UTF-8" standalone="no"?>
<!-- Created with Inkscape (http://www.inkscape.org/) -->

<svg
   version="1.1"
   id="svg1"
   width="516.26666"
   height="652.71997"
   viewBox="0 0 516.26666 652.71997"
   sodipodi:docname="Digestion.pdf"
   xmlns:inkscape="http://www.inkscape.org/namespaces/inkscape"
   xmlns:sodipodi="http://sodipodi.sourceforge.net/DTD/sodipodi-0.dtd"
   xmlns="http://www.w3.org/2000/svg"
   xmlns:svg="http://www.w3.org/2000/svg">
  <defs
     id="defs1">
    <clipPath
       clipPathUnits="userSpaceOnUse"
       id="clipPath2">
      <path
         d="M 0,0.16 V 1122.5601 H 793.59998 V 0.16 Z"
         transform="translate(-500.64001,-706.40003)"
         clip-rule="evenodd"
         id="path2" />
    </clipPath>
    <clipPath
       clipPathUnits="userSpaceOnUse"
       id="clipPath4">
      <path
         d="M 0,0.16 V 1122.5601 H 793.59998 V 0.16 Z"
         transform="translate(-387.35999,-725.44)"
         clip-rule="evenodd"
         id="path4" />
    </clipPath>
    <clipPath
       clipPathUnits="userSpaceOnUse"
       id="clipPath6">
      <path
         d="M 0,0.16 V 1122.5601 H 793.59998 V 0.16 Z"
         transform="translate(-387.35999,-725.44)"
         clip-rule="evenodd"
         id="path6" />
    </clipPath>
    <clipPath
       clipPathUnits="userSpaceOnUse"
       id="clipPath8">
      <path
         d="M 0,0.16 V 1122.5601 H 793.59998 V 0.16 Z"
         transform="translate(-528.96002,-694.88001)"
         clip-rule="evenodd"
         id="path8" />
    </clipPath>
  </defs>
  <sodipodi:namedview
     id="namedview1"
     pagecolor="#505050"
     bordercolor="#eeeeee"
     borderopacity="1"
     inkscape:showpageshadow="0"
     inkscape:pageopacity="0"
     inkscape:pagecheckerboard="0"
     inkscape:deskcolor="#505050">
    <inkscape:page
       x="0"
       y="0"
       inkscape:label="1"
       id="page1"
       width="516.26666"
       height="652.71997"
       margin="0"
       bleed="0" />
  </sodipodi:namedview>
  <g
     id="g1"
     inkscape:groupmode="layer"
     inkscape:label="1">
    <path
       id="path1"
       d="m 0,0 9.44,-4.8 9.279999,-5.44 9.120001,-5.6 8.799999,-6.08 8.48,-6.56 8.16,-6.880001 7.84,-7.2 7.680004,-7.520001 7.199997,-8 6.879997,-8.159996 6.400002,-8.480003 6.080002,-8.799996 5.599999,-9.120002 5.28,-9.280001 4.96,-9.6 4.32,-9.6 4,-10.08 3.52,-10.08 3.04,-10.24 2.56,-10.4 2.24,-10.40001 1.6,-10.55999 1.27999,-10.56 0.64,-10.72 0.32001,-10.72 -0.32001,-10.72001 -0.79998,-10.72 -1.12001,-10.55999 -1.76,-10.56 -2.08,-10.4 -2.56,-10.39999 -3.2,-10.24002 -3.52,-10.07999 -4,-9.92001 -4.32,-9.75998 -4.96,-9.60001 -5.28,-9.28 -5.600003,-8.95999 -6.079994,-8.80001 -6.560005,-8.47999 -6.879998,-8.32 -7.199997,-7.84 -7.520004,-7.52002 -8,-7.19998 -8.16,-6.88001 -8.479999,-6.55999 -8.8,-6.08002 -9.12,-5.59998 -9.28,-5.28002 -9.44,-4.96 -9.76,-4.32 -9.92,-4 -10.08,-3.51999 -10.24,-3.04001 -10.400001,-2.72 -10.559998,-2.07999 -10.559997,-1.76001 -10.560006,-1.11999 -10.720001,-0.79999 -10.719997,-0.16001 -10.72,0.16001 -10.56,0.79999 -10.72,1.11999 -10.55999,1.76001 -10.40001,2.07999 -10.4,2.72 -10.24,3.04001 -10.08,3.51999 -9.92,4 -9.76,4.32 -9.6,4.96 -9.28,5.28002 -8.95999,5.59998 -8.80001,6.08002 -8.48001,6.55999 -8.32,6.88001 -7.84,7.19998 -7.51999,7.52002 -7.20001,7.84 -6.87998,8.32 -6.56002,8.47999 -6.07999,8.80001 -5.76001,8.95999 -5.28,9.28 -4.79999,9.60001 -4.48001,9.75998 -4,9.92001 -3.51999,10.07999 -3.04001,10.24002 -2.55999,10.39999 -2.23999,10.4 -1.60001,10.56 -1.28,10.55999 -0.64001,10.72 -0.31998,10.72001 0.31998,10.72 0.64001,10.72 1.12,10.56 1.76001,10.55999 2.07998,10.40001 2.56,10.4 3.20001,10.24 3.51999,10.08 3.84,10.08 4.48001,9.6 4.79999,9.6 5.28,9.280001 5.76001,9.120002 6.08001,8.799996 6.4,8.480003 6.88,8.159996 7.19998,8 7.52002,7.520001 7.84,7.2 8.31999,6.880001 8.48,6.56 8.8,6.08 8.96001,5.6 9.28,5.44 9.59999,4.8"
       style="fill:none;stroke:#000000;stroke-width:26.4;stroke-linecap:round;stroke-linejoin:round;stroke-miterlimit:10;stroke-dasharray:none;stroke-opacity:1"
       transform="translate(500.64001,706.39997)"
       clip-path="url(#clipPath2)" />
    <path
       id="path3"
       d="m 0,0 -0.16,-4.48 -0.48,-4.32 -0.8,-4.48 -1.28,-4.160001 -1.6,-4.159999 -1.76,-4.16 -2.24,-3.84 -2.4,-3.679999 -2.72,-3.52 L -16.48,-40 l -3.36,-3.040001 -3.520001,-2.719997 -3.68,-2.560002 -3.839998,-2.080002 -4.000002,-1.919998 -4.16,-1.599998 -4.32,-1.120003 L -47.68,-56 l -4.48,-0.48 -4.479999,-0.159999 -4.32,0.159999 -4.480003,0.48 -4.32,0.959999 -4.32,1.120003 -4.159996,1.599998 -4,1.919998 -4,2.080002 -3.68,2.560002 -3.520004,2.719997 L -96.639999,-40 -99.68,-36.799999 l -2.72,3.52 -2.4,3.679999 -2.24,3.84 -1.92,4.16 -1.44,4.159999 -1.28,4.160001 -0.8,4.48 -0.64,4.32 -0.16,4.48 0.16,4.48 0.64,4.32 0.8,4.48 1.28,4.160001 1.44,4.159999 1.92,4.16 2.24,3.84 2.4,3.679999 2.72,3.52 3.040001,3.200001 3.199997,3.040001 3.520004,2.719997 3.68,2.560002 4,2.080002 4,1.919998 4.159996,1.599998 4.32,1.120003 4.32,0.959999 4.480003,0.48 4.32,0.159999 L -52.16,56.48 -47.68,56 l 4.319999,-0.959999 4.32,-1.120003 4.16,-1.599998 4.000002,-1.919998 3.839998,-2.080002 3.68,-2.560002 L -19.84,43.040001 -16.48,40 l 3.04,-3.200001 2.72,-3.52 L -8.32,29.6 -6.08,25.76 -4.32,21.6 -2.72,17.440001 -1.44,13.28 -0.64,8.8 -0.16,4.48 0,0 v 0 z"
       style="fill:#000000;fill-opacity:1;fill-rule:evenodd;stroke:none"
       transform="translate(387.35999,725.43994)"
       clip-path="url(#clipPath4)" />
    <path
       id="path5"
       d="m 0,0 -0.16,-4.48 -0.48,-4.32 -0.8,-4.48 -1.28,-4.160001 -1.6,-4.159999 -1.76,-4.16 -2.24,-3.84 -2.4,-3.679999 -2.72,-3.52 L -16.48,-40 l -3.36,-3.040001 -3.520001,-2.719997 -3.68,-2.560002 -3.839998,-2.080002 -4.000002,-1.919998 -4.16,-1.599998 -4.32,-1.120003 L -47.68,-56 l -4.48,-0.48 -4.479999,-0.159999 -4.32,0.159999 -4.480003,0.48 -4.32,0.959999 -4.32,1.120003 -4.159996,1.599998 -4,1.919998 -4,2.080002 -3.68,2.560002 -3.520004,2.719997 L -96.639999,-40 -99.68,-36.799999 l -2.72,3.52 -2.4,3.679999 -2.24,3.84 -1.92,4.16 -1.44,4.159999 -1.28,4.160001 -0.8,4.48 -0.64,4.32 -0.16,4.48 0.16,4.48 0.64,4.32 0.8,4.48 1.28,4.160001 1.44,4.159999 1.92,4.16 2.24,3.84 2.4,3.679999 2.72,3.52 3.040001,3.200001 3.199997,3.040001 3.520004,2.719997 3.68,2.560002 4,2.080002 4,1.919998 4.159996,1.599998 4.32,1.120003 4.32,0.959999 4.480003,0.48 4.32,0.159999 L -52.16,56.48 -47.68,56 l 4.319999,-0.959999 4.32,-1.120003 4.16,-1.599998 4.000002,-1.919998 3.839998,-2.080002 3.68,-2.560002 L -19.84,43.040001 -16.48,40 l 3.04,-3.200001 2.72,-3.52 L -8.32,29.6 -6.08,25.76 -4.32,21.6 -2.72,17.440001 -1.44,13.28 -0.64,8.8 -0.16,4.48 0,0"
       style="fill:none;stroke:#000000;stroke-width:0.64;stroke-linecap:round;stroke-linejoin:round;stroke-miterlimit:10;stroke-dasharray:none;stroke-opacity:1"
       transform="translate(387.35999,725.43994)"
       clip-path="url(#clipPath6)" />
    <path
       id="path7"
       d="m 0,0 -5.76,2.08 -5.6,2.56 -5.279999,2.88 L -21.92,10.72 -26.879999,14.4 -31.52,18.24 -36,22.559999 -40,27.040001 -43.84,32 l -3.520001,4.959999 -3.040001,5.280003 -2.719997,5.599998 -2.400001,5.599999 -1.919999,5.760002 -1.600002,5.920002 -1.119999,6.079994 -0.639999,6.080002 -0.32,6.080002 v 6.239997 L -60.48,95.68 l 0.96,6.08 1.279998,5.92 1.760002,5.92 2.079998,5.76 2.560002,5.44 3.040001,5.44 3.200001,5.12 3.68,4.96001 4,4.79998 4.16,4.32001 4.639997,4.16001 4.800001,3.67999 5.119999,3.52 5.280001,3.04 5.44,2.72 5.76,2.24 5.76,1.92 5.92,1.60001 6.08,1.11999 6.080001,0.64 6.08,0.31999 L 33.439999,174.24 39.52,173.75999 45.599998,172.8"
       style="fill:none;stroke:#000000;stroke-width:26.4;stroke-linecap:round;stroke-linejoin:round;stroke-miterlimit:10;stroke-dasharray:none;stroke-opacity:1"
       transform="translate(528.96002,694.87995)"
       clip-path="url(#clipPath8)" />
  </g>
</svg>
