<?xml version="1.0" encoding="UTF-8" standalone="no"?>
<!-- Created with Inkscape (http://www.inkscape.org/) -->

<svg
   version="1.1"
   id="svg1"
   width="310.84"
   height="324.34668"
   viewBox="0 0 310.84 324.34668"
   sodipodi:docname="Digestion10.pdf"
   xmlns:inkscape="http://www.inkscape.org/namespaces/inkscape"
   xmlns:sodipodi="http://sodipodi.sourceforge.net/DTD/sodipodi-0.dtd"
   xmlns="http://www.w3.org/2000/svg"
   xmlns:svg="http://www.w3.org/2000/svg">
  <defs
     id="defs1">
    <clipPath
       clipPathUnits="userSpaceOnUse"
       id="clipPath2">
      <path
         d="M 0,0.16 V 1122.5601 H 793.59998 V 0.16 Z"
         transform="translate(-459.20001,-605.35999)"
         clip-rule="evenodd"
         id="path2" />
    </clipPath>
    <clipPath
       clipPathUnits="userSpaceOnUse"
       id="clipPath4">
      <path
         d="M 0,0.16 V 1122.5601 H 793.59998 V 0.16 Z"
         transform="translate(-442.23999,-499.44001)"
         clip-rule="evenodd"
         id="path4" />
    </clipPath>
    <clipPath
       clipPathUnits="userSpaceOnUse"
       id="clipPath6">
      <path
         d="M 0,0.16 V 1122.5601 H 793.59998 V 0.16 Z"
         transform="translate(-435.35999,-429.60001)"
         clip-rule="evenodd"
         id="path6" />
    </clipPath>
    <clipPath
       clipPathUnits="userSpaceOnUse"
       id="clipPath8">
      <path
         d="M 0,0.16 V 1122.5601 H 793.59998 V 0.16 Z"
         clip-rule="evenodd"
         id="path8" />
    </clipPath>
    <clipPath
       clipPathUnits="userSpaceOnUse"
       id="clipPath10">
      <path
         d="M 0,0.16 V 1122.5601 H 793.59998 V 0.16 Z"
         clip-rule="evenodd"
         id="path10" />
    </clipPath>
    <clipPath
       clipPathUnits="userSpaceOnUse"
       id="clipPath12">
      <path
         d="M 0,0.16 V 1122.5601 H 793.59998 V 0.16 Z"
         clip-rule="evenodd"
         id="path12" />
    </clipPath>
    <clipPath
       clipPathUnits="userSpaceOnUse"
       id="clipPath14">
      <path
         d="M 0,0.16 V 1122.5601 H 793.59998 V 0.16 Z"
         clip-rule="evenodd"
         id="path14" />
    </clipPath>
  </defs>
  <sodipodi:namedview
     id="namedview1"
     pagecolor="#505050"
     bordercolor="#eeeeee"
     borderopacity="1"
     inkscape:showpageshadow="0"
     inkscape:pageopacity="0"
     inkscape:pagecheckerboard="0"
     inkscape:deskcolor="#505050">
    <inkscape:page
       x="0"
       y="0"
       inkscape:label="1"
       id="page1"
       width="310.84"
       height="324.34668"
       margin="0"
       bleed="0" />
  </sodipodi:namedview>
  <g
     id="g1"
     inkscape:groupmode="layer"
     inkscape:label="1">
    <path
       id="path1"
       d="m 0,0 c 0,-34.41 -27.9,-62.32 -62.32,-62.32 -34.419998,0 -62.32,27.91 -62.32,62.32 0,34.41 27.900002,62.32 62.32,62.32 C -27.9,62.32 0,34.41 0,0 Z"
       style="fill:none;stroke:#000000;stroke-width:26.4;stroke-linecap:round;stroke-linejoin:round;stroke-miterlimit:10;stroke-dasharray:none;stroke-opacity:1"
       transform="translate(200.40001,242.29326)"
       clip-path="url(#clipPath2)" />
    <path
       id="path3"
       d="M 0,0 C 0,-24.6 -19.91,-44.560001 -44.48,-44.560001 -69.050003,-44.560001 -88.959999,-24.6 -88.959999,0 c 0,24.6 19.909996,44.560001 44.479999,44.560001 C -19.91,44.560001 0,24.6 0,0 Z"
       style="fill:none;stroke:#000000;stroke-width:26.4;stroke-linecap:round;stroke-linejoin:round;stroke-miterlimit:10;stroke-dasharray:none;stroke-opacity:1"
       transform="translate(183.43999,136.37328)"
       clip-path="url(#clipPath4)" />
    <path
       id="path5"
       d="M 0,0 -0.32,-3.52 -0.8,-7.2 -1.76,-10.56 -2.88,-14.08 -4.32,-17.280001 -6.24,-20.48 -8.32,-23.360001 -10.56,-26.08 l -2.72,-2.559999 -2.72,-2.24 -3.040001,-2.08 L -22.24,-34.560001 -25.6,-36 l -3.359999,-1.119999 -3.520001,-0.799999 -3.68,-0.320004 -3.52,-0.16 -3.680001,0.32 -3.52,0.480004 -3.520001,0.959999 -3.359996,1.119999 -3.360001,1.600002 L -60.16,-32.16 l -3.040001,2.08 -2.719997,2.4 -2.400002,2.720001 -2.239998,2.719999 -2.080001,3.039999 L -74.239998,-16 -75.68,-12.64 l -0.959999,3.52 -0.800003,3.52 -0.479996,3.52"
       style="fill:none;stroke:#000000;stroke-width:26.4;stroke-linecap:round;stroke-linejoin:round;stroke-miterlimit:10;stroke-dasharray:none;stroke-opacity:1"
       transform="translate(176.55999,66.533281)"
       clip-path="url(#clipPath6)" />
    <path
       id="path7"
       d="m 283.51999,429.12 h 75.52002"
       style="fill:none;stroke:#000000;stroke-width:26.4;stroke-linecap:round;stroke-linejoin:round;stroke-miterlimit:10;stroke-dasharray:none;stroke-opacity:1"
       transform="translate(-258.8,-363.06673)"
       clip-path="url(#clipPath8)" />
    <path
       id="path9"
       d="m 434.56,429.12 h 75.51999"
       style="fill:none;stroke:#000000;stroke-width:26.4;stroke-linecap:round;stroke-linejoin:round;stroke-miterlimit:10;stroke-dasharray:none;stroke-opacity:1"
       transform="translate(-258.8,-363.06673)"
       clip-path="url(#clipPath10)" />
    <path
       id="path11"
       d="M 283.51999,429.12 321.28,391.35999"
       style="fill:none;stroke:#000000;stroke-width:26.4;stroke-linecap:round;stroke-linejoin:round;stroke-miterlimit:10;stroke-dasharray:none;stroke-opacity:1"
       transform="translate(-258.8,-363.06673)"
       clip-path="url(#clipPath12)" />
    <path
       id="path13"
       d="m 510.07999,429.12 37.76004,-37.76001"
       style="fill:none;stroke:#000000;stroke-width:26.4;stroke-linecap:round;stroke-linejoin:round;stroke-miterlimit:10;stroke-dasharray:none;stroke-opacity:1"
       transform="translate(-258.8,-363.06673)"
       clip-path="url(#clipPath14)" />
  </g>
</svg>
