<?xml version="1.0" encoding="UTF-8" standalone="no"?>
<!-- Created with Inkscape (http://www.inkscape.org/) -->

<svg
   version="1.1"
   id="svg1"
   width="418.88"
   height="419.12"
   viewBox="0 0 418.88 419.12"
   sodipodi:docname="Dissolution.pdf"
   xmlns:inkscape="http://www.inkscape.org/namespaces/inkscape"
   xmlns:sodipodi="http://sodipodi.sourceforge.net/DTD/sodipodi-0.dtd"
   xmlns="http://www.w3.org/2000/svg"
   xmlns:svg="http://www.w3.org/2000/svg">
  <defs
     id="defs1">
    <clipPath
       clipPathUnits="userSpaceOnUse"
       id="clipPath2">
      <path
         d="M 0,0.16 V 1122.5601 H 793.59998 V 0.16 Z"
         transform="translate(-208,-561.28003)"
         clip-rule="evenodd"
         id="path2" />
    </clipPath>
    <clipPath
       clipPathUnits="userSpaceOnUse"
       id="clipPath4">
      <path
         d="M 0,0.16 V 1122.5601 H 793.59998 V 0.16 Z"
         transform="translate(-304.79999,-601.28003)"
         clip-rule="evenodd"
         id="path4" />
    </clipPath>
    <clipPath
       clipPathUnits="userSpaceOnUse"
       id="clipPath6">
      <path
         d="M 0,0.16 V 1122.5601 H 793.59998 V 0.16 Z"
         transform="translate(-585.59998,-561.28003)"
         clip-rule="evenodd"
         id="path6" />
    </clipPath>
    <clipPath
       clipPathUnits="userSpaceOnUse"
       id="clipPath8">
      <path
         d="M 0,0.16 V 1122.5601 H 793.59998 V 0.16 Z"
         transform="translate(-585.59998,-561.28003)"
         clip-rule="evenodd"
         id="path8" />
    </clipPath>
  </defs>
  <sodipodi:namedview
     id="namedview1"
     pagecolor="#505050"
     bordercolor="#eeeeee"
     borderopacity="1"
     inkscape:showpageshadow="0"
     inkscape:pageopacity="0"
     inkscape:pagecheckerboard="0"
     inkscape:deskcolor="#505050">
    <inkscape:page
       x="0"
       y="0"
       inkscape:label="1"
       id="page1"
       width="418.88"
       height="419.12"
       margin="0"
       bleed="0" />
  </sodipodi:namedview>
  <g
     id="g1"
     inkscape:groupmode="layer"
     inkscape:label="1">
    <path
       id="path1"
       d="m 0,0 0.32,9.28 0.64,9.279999 1.12,9.120001 1.6,9.119999 2.08,9.119999 2.4,8.960003 2.88,8.799999 3.36,8.64 3.84,8.480003 4.16,8.159996 4.479999,8.160004 L 31.84,104.96 l 5.439999,7.52 5.600002,7.36 6.079998,7.04 6.400002,6.56 6.720001,6.4 7.040001,6.08 7.199997,5.75999 7.68,5.28002 7.839996,4.95999 8,4.64 8.320004,4.16 8.48,3.67999 8.64,3.36 8.8,2.88001 8.95999,2.56 8.96001,1.91999 9.11999,1.60001 9.28,1.12 9.12001,0.8 9.28,0.16 9.28,-0.16 9.28,-0.8 9.12,-1.12 9.27999,-1.60001 8.96001,-1.91999 8.95999,-2.56 8.80001,-2.88001 8.64,-3.36 8.48001,-3.67999 8.32,-4.16 8,-4.64 7.84,-4.95999 7.51999,-5.28002 7.36001,-5.75999 7.03998,-6.08 6.72,-6.4 6.4,-6.56 5.92001,-7.04 5.76001,-7.36 5.28,-7.52 4.95999,-7.839997 4.63999,-8.160004 4.16,-8.159996 3.68002,-8.480003 3.35999,-8.64 2.88,-8.799999 2.56,-8.960003 2.07999,-9.119999 1.44,-9.119999 1.28,-9.120001 L 377.44,9.28 377.60001,0"
       style="fill:none;stroke:#000000;stroke-width:26.4;stroke-linecap:round;stroke-linejoin:round;stroke-miterlimit:10;stroke-dasharray:none;stroke-opacity:1"
       transform="translate(19.893333,208.8933)"
       clip-path="url(#clipPath2)" />
    <path
       id="path3"
       d="m 0,0 3.04,-3.2 2.72,-3.52 2.4,-3.68 2.24,-3.84 1.76,-4 1.6,-4.16 1.28,-4.319999 0.8,-4.320002 0.48,-4.479999 0.16,-4.48 -0.16,-4.48 -0.48,-4.319999 -0.8,-4.48 -1.28,-4.16 -1.6,-4.159999 -1.76,-4.160004 -2.24,-3.839996 -2.4,-3.680001 L 3.04,-76.800003 0,-80 l -3.36,-3.040001 -3.52,-2.720001 -3.68,-2.559998 -3.84,-2.080002 -4,-1.919998 -4.159999,-1.599998 -4.32,-1.120003 -4.320002,-0.799995 -4.479999,-0.640007 -4.48,-0.159996 -4.32,0.159996 -4.479999,0.640007 -4.32,0.799995 -4.319999,1.120003 -4.16,1.599998 -4.000004,1.919998 -4,2.080002 -3.68,2.559998 -3.519997,2.720001 -3.200005,3.040001 -3.039993,3.199997 -2.720001,3.520004 -2.400002,3.680001 -2.239998,3.839996 -1.920005,4.160004 -1.439995,4.159999 -1.279999,4.16 -0.800003,4.48 -0.639999,4.319999 -0.160004,4.48"
       style="fill:none;stroke:#000000;stroke-width:26.4;stroke-linecap:round;stroke-linejoin:round;stroke-miterlimit:10;stroke-dasharray:none;stroke-opacity:1"
       transform="translate(116.69332,248.8933)"
       clip-path="url(#clipPath4)" />
    <path
       id="path5"
       d="M 0,0 -0.16,-4.48 -0.64,-8.8 -1.6,-13.28 -2.72,-17.440001 -4.32,-21.6 l -1.76,-4.16 -2.24,-3.84 -2.4,-3.679999 -2.88,-3.52 L -16.48,-40 l -3.36,-3.040001 -3.520001,-2.719997 -3.68,-2.560002 -3.839998,-2.080002 -4.000002,-1.919998 -4.16,-1.599998 -4.32,-1.120003 L -47.68,-55.84 l -4.48,-0.64 -4.479999,-0.159999 -4.48,0.159999 -4.320003,0.64 -4.32,0.799999 -4.32,1.120003 -4.159996,1.599998 -4,1.919998 -4,2.080002 -3.68,2.560002 -3.520004,2.719997 L -96.639999,-40 -99.68,-36.799999 l -2.72,3.52 -2.56,3.679999 -2.08,3.84 -1.92,4.16 -1.44,4.159999 -1.28,4.160001 -0.8,4.48 -0.64,4.32 -0.16,4.48 0.16,4.48 0.64,4.48 0.8,4.32 1.28,4.32 1.44,4.16 1.92,4 2.08,3.84 2.56,3.679999 2.72,3.52 L -96.639999,40"
       style="fill:none;stroke:#000000;stroke-width:26.4;stroke-linecap:round;stroke-linejoin:round;stroke-miterlimit:10;stroke-dasharray:none;stroke-opacity:1"
       transform="translate(397.49331,208.8933)"
       clip-path="url(#clipPath6)" />
    <path
       id="path7"
       d="M 0,0 -0.16,-9.28 -0.8,-18.559999 -2.08,-27.68 l -1.44,-9.119999 -2.08,-9.119999 -2.56,-8.800003 -2.88,-8.799999 -3.36,-8.640004 -3.68,-8.479995 -4.16,-8.32 -4.639999,-8 L -31.84,-104.8 l -5.279999,-7.68 -5.760002,-7.2 -5.919998,-7.04 -6.400002,-6.72 -6.719997,-6.4 -7.040001,-6.08 -7.360001,-5.75999 -7.519996,-5.28002 -7.840004,-4.95999 -8,-4.47999 -8.32,-4.32001 -8.48,-3.67999 -8.64,-3.36 -8.8,-2.88001 -8.96,-2.39999 -8.96,-2.08 -9.27999,-1.60001 -9.12001,-1.12 -9.28,-0.64 -9.28,-0.32"
       style="fill:none;stroke:#000000;stroke-width:26.4;stroke-linecap:round;stroke-linejoin:round;stroke-miterlimit:10;stroke-dasharray:none;stroke-opacity:1"
       transform="translate(397.49331,208.8933)"
       clip-path="url(#clipPath8)" />
  </g>
</svg>
