<?xml version="1.0" encoding="UTF-8" standalone="no"?>
<!-- Created with Inkscape (http://www.inkscape.org/) -->

<svg
   version="1.1"
   id="svg1"
   width="370.86667"
   height="360.39999"
   viewBox="0 0 370.86667 360.39999"
   sodipodi:docname="Dissolve2.pdf"
   xmlns:inkscape="http://www.inkscape.org/namespaces/inkscape"
   xmlns:sodipodi="http://sodipodi.sourceforge.net/DTD/sodipodi-0.dtd"
   xmlns="http://www.w3.org/2000/svg"
   xmlns:svg="http://www.w3.org/2000/svg">
  <defs
     id="defs1">
    <clipPath
       clipPathUnits="userSpaceOnUse"
       id="clipPath2">
      <path
         d="M 0,0.16 V 1122.5601 H 793.59998 V 0.16 Z"
         clip-rule="evenodd"
         id="path2" />
    </clipPath>
    <clipPath
       clipPathUnits="userSpaceOnUse"
       id="clipPath4">
      <path
         d="M 0,0.16 V 1122.5601 H 793.59998 V 0.16 Z"
         clip-rule="evenodd"
         id="path4" />
    </clipPath>
    <clipPath
       clipPathUnits="userSpaceOnUse"
       id="clipPath6">
      <path
         d="M 0,0.16 V 1122.5601 H 793.59998 V 0.16 Z"
         clip-rule="evenodd"
         id="path6" />
    </clipPath>
    <clipPath
       clipPathUnits="userSpaceOnUse"
       id="clipPath8">
      <path
         d="M 0,0.16 V 1122.5601 H 793.59998 V 0.16 Z"
         transform="translate(-260.64001,-407.84)"
         clip-rule="evenodd"
         id="path8" />
    </clipPath>
    <clipPath
       clipPathUnits="userSpaceOnUse"
       id="clipPath10">
      <path
         d="M 0,0.16 V 1122.5601 H 793.59998 V 0.16 Z"
         transform="translate(-416.64001,-407.84)"
         clip-rule="evenodd"
         id="path10" />
    </clipPath>
    <clipPath
       clipPathUnits="userSpaceOnUse"
       id="clipPath12">
      <path
         d="M 0,0.16 V 1122.5601 H 793.59998 V 0.16 Z"
         transform="translate(-570.88,-410.4)"
         clip-rule="evenodd"
         id="path12" />
    </clipPath>
    <clipPath
       clipPathUnits="userSpaceOnUse"
       id="clipPath14">
      <path
         d="M 0,0.16 V 1122.5601 H 793.59998 V 0.16 Z"
         transform="translate(-260.64001,-407.84)"
         clip-rule="evenodd"
         id="path14" />
    </clipPath>
    <clipPath
       clipPathUnits="userSpaceOnUse"
       id="clipPath16">
      <path
         d="M 0,0.16 V 1122.5601 H 793.59998 V 0.16 Z"
         transform="translate(-416.64001,-407.84)"
         clip-rule="evenodd"
         id="path16" />
    </clipPath>
    <clipPath
       clipPathUnits="userSpaceOnUse"
       id="clipPath18">
      <path
         d="M 0,0.16 V 1122.5601 H 793.59998 V 0.16 Z"
         transform="translate(-570.88,-410.4)"
         clip-rule="evenodd"
         id="path18" />
    </clipPath>
  </defs>
  <sodipodi:namedview
     id="namedview1"
     pagecolor="#505050"
     bordercolor="#eeeeee"
     borderopacity="1"
     inkscape:showpageshadow="0"
     inkscape:pageopacity="0"
     inkscape:pagecheckerboard="0"
     inkscape:deskcolor="#505050">
    <inkscape:page
       x="0"
       y="0"
       inkscape:label="1"
       id="page1"
       width="370.86667"
       height="360.39999"
       margin="0"
       bleed="0" />
  </sodipodi:namedview>
  <g
     id="g1"
     inkscape:groupmode="layer"
     inkscape:label="1">
    <path
       id="path1"
       d="M 397.76001,718.40002 246.72,416.32001"
       style="fill:none;stroke:#000000;stroke-width:26.4;stroke-linecap:round;stroke-linejoin:round;stroke-miterlimit:10;stroke-dasharray:none;stroke-opacity:1"
       transform="translate(0,1.3332747)"
       clip-path="url(#clipPath2)" />
    <path
       id="path3"
       d="m 397.76001,718.40002 150.88,-302.08001"
       style="fill:none;stroke:#000000;stroke-width:26.4;stroke-linecap:round;stroke-linejoin:round;stroke-miterlimit:10;stroke-dasharray:none;stroke-opacity:1"
       transform="translate(0,1.3332747)"
       clip-path="url(#clipPath4)" />
    <path
       id="path5"
       d="M 397.76001,416.32001 V 718.40002"
       style="fill:none;stroke:#000000;stroke-width:26.4;stroke-linecap:round;stroke-linejoin:round;stroke-miterlimit:10;stroke-dasharray:none;stroke-opacity:1"
       transform="translate(0,1.3332747)"
       clip-path="url(#clipPath6)" />
    <path
       id="path7"
       d="m 0,0 -0.16,-2.24 -0.32,-2.24 -0.8,-2.24 -0.8,-2.08 -1.28,-1.92 -1.44,-1.76 -1.6,-1.76 -1.76,-1.28 -1.92,-1.279999 -2.08,-0.960001 -2.24,-0.64 -2.239999,-0.319999 -2.24,-0.16 -2.240002,0.16 -2.24,0.319999 -2.239999,0.64 -2.08,0.960001 -1.92,1.279999 -1.760001,1.28 -1.599998,1.76 -1.440003,1.76 -1.119998,1.92 -0.96,2.08 -0.639999,2.24 -0.479999,2.24 -0.16,2.24 0.16,2.24 0.479999,2.24 0.639999,2.24 0.96,2.08 1.119998,1.92 1.440003,1.76 1.599998,1.6 1.760001,1.44 1.92,1.119999 2.08,0.960001 2.239999,0.64 2.24,0.479999 2.240002,0.16 2.24,-0.16 L -14.4,18.24 -12.16,17.6 -10.08,16.639999 -8.16,15.52 -6.4,14.08 -4.8,12.48 -3.36,10.72 -2.08,8.8 -1.28,6.72 -0.48,4.48 -0.16,2.24 0,0 v 0 z"
       style="fill:#000000;fill-opacity:1;fill-rule:evenodd;stroke:none"
       transform="translate(260.64001,409.17327)"
       clip-path="url(#clipPath8)" />
    <path
       id="path9"
       d="m 0,0 -0.16,-2.24 -0.48,-2.24 -0.64,-2.24 -0.96,-2.08 -1.12,-1.92 -1.44,-1.76 -1.6,-1.76 -1.76,-1.28 -1.92,-1.279999 -2.08,-0.960001 -2.24,-0.64 -2.239999,-0.319999 -2.24,-0.16 -2.240002,0.16 L -23.52,-18.4 l -2.08,0.64 -2.08,0.960001 -1.92,1.279999 -1.92,1.28 -1.599999,1.76 -1.280003,1.76 -1.279998,1.92 -0.959999,2.08 -0.64,2.24 -0.319999,2.24 -0.16,2.24 0.16,2.24 0.319999,2.24 0.64,2.24 0.959999,2.08 1.279998,1.92 1.280003,1.76 1.599999,1.6 1.92,1.44 1.92,1.119999 2.08,0.960001 2.08,0.64 2.399999,0.479999 2.240002,0.16 2.24,-0.16 L -14.4,18.24 -12.16,17.6 -10.08,16.639999 -8.16,15.52 -6.4,14.08 -4.8,12.48 -3.36,10.72 -2.24,8.8 -1.28,6.72 -0.64,4.48 -0.16,2.24 0,0 v 0 z"
       style="fill:#000000;fill-opacity:1;fill-rule:evenodd;stroke:none"
       transform="translate(416.64001,409.17327)"
       clip-path="url(#clipPath10)" />
    <path
       id="path11"
       d="m 0,0 -0.16,-2.24 -0.48,-2.24 -0.64,-2.24 -0.96,-2.08 -1.12,-1.92 -1.44,-1.76 -1.6,-1.6 -1.76,-1.44 -2.08,-1.119999 -2.08,-0.960001 -2.08,-0.64 -2.239999,-0.479999 -2.24,-0.16 -2.400002,0.16 L -23.52,-18.24 l -2.08,0.64 -2.08,0.960001 -1.92,1.119999 -1.92,1.44 -1.599999,1.6 -1.440002,1.76 -1.119999,1.92 -0.959999,2.08 -0.64,2.24 -0.479999,2.24 V 0 2.24 l 0.479999,2.24 0.64,2.24 0.959999,2.08 1.119999,1.92 1.440002,1.76 1.599999,1.6 1.92,1.44 1.92,1.279999 2.08,0.800001 2.08,0.8 2.239999,0.319999 2.400002,0.16 2.24,-0.16 L -14.4,18.4 -12.32,17.6 -10.24,16.799999 -8.16,15.52 -6.4,14.08 -4.8,12.48 -3.36,10.72 -2.24,8.8 -1.28,6.72 -0.64,4.48 -0.16,2.24 0,0 v 0 z"
       style="fill:#000000;fill-opacity:1;fill-rule:evenodd;stroke:none"
       transform="translate(570.88,411.73327)"
       clip-path="url(#clipPath12)" />
    <path
       id="path13"
       d="m 0,0 -0.16,-2.24 -0.32,-2.24 -0.8,-2.24 -0.8,-2.08 -1.28,-1.92 -1.44,-1.76 -1.6,-1.76 -1.76,-1.28 -1.92,-1.279999 -2.08,-0.960001 -2.24,-0.64 -2.239999,-0.319999 -2.24,-0.16 -2.240002,0.16 -2.24,0.319999 -2.239999,0.64 -2.08,0.960001 -1.92,1.279999 -1.760001,1.28 -1.599998,1.76 -1.440003,1.76 -1.119998,1.92 -0.96,2.08 -0.639999,2.24 -0.479999,2.24 -0.16,2.24 0.16,2.24 0.479999,2.24 0.639999,2.24 0.96,2.08 1.119998,1.92 1.440003,1.76 1.599998,1.6 1.760001,1.44 1.92,1.119999 2.08,0.960001 2.239999,0.64 2.24,0.479999 2.240002,0.16 2.24,-0.16 L -14.4,18.24 -12.16,17.6 -10.08,16.639999 -8.16,15.52 -6.4,14.08 -4.8,12.48 -3.36,10.72 -2.08,8.8 -1.28,6.72 -0.48,4.48 -0.16,2.24 0,0"
       style="fill:none;stroke:#000000;stroke-width:0.64;stroke-linecap:round;stroke-linejoin:round;stroke-miterlimit:10;stroke-dasharray:none;stroke-opacity:1"
       transform="translate(260.64001,409.17327)"
       clip-path="url(#clipPath14)" />
    <path
       id="path15"
       d="m 0,0 -0.16,-2.24 -0.48,-2.24 -0.64,-2.24 -0.96,-2.08 -1.12,-1.92 -1.44,-1.76 -1.6,-1.76 -1.76,-1.28 -1.92,-1.279999 -2.08,-0.960001 -2.24,-0.64 -2.239999,-0.319999 -2.24,-0.16 -2.240002,0.16 L -23.52,-18.4 l -2.08,0.64 -2.08,0.960001 -1.92,1.279999 -1.92,1.28 -1.599999,1.76 -1.280003,1.76 -1.279998,1.92 -0.959999,2.08 -0.64,2.24 -0.319999,2.24 -0.16,2.24 0.16,2.24 0.319999,2.24 0.64,2.24 0.959999,2.08 1.279998,1.92 1.280003,1.76 1.599999,1.6 1.92,1.44 1.92,1.119999 2.08,0.960001 2.08,0.64 2.399999,0.479999 2.240002,0.16 2.24,-0.16 L -14.4,18.24 -12.16,17.6 -10.08,16.639999 -8.16,15.52 -6.4,14.08 -4.8,12.48 -3.36,10.72 -2.24,8.8 -1.28,6.72 -0.64,4.48 -0.16,2.24 0,0"
       style="fill:none;stroke:#000000;stroke-width:0.64;stroke-linecap:round;stroke-linejoin:round;stroke-miterlimit:10;stroke-dasharray:none;stroke-opacity:1"
       transform="translate(416.64001,409.17327)"
       clip-path="url(#clipPath16)" />
    <path
       id="path17"
       d="m 0,0 -0.16,-2.24 -0.48,-2.24 -0.64,-2.24 -0.96,-2.08 -1.12,-1.92 -1.44,-1.76 -1.6,-1.6 -1.76,-1.44 -2.08,-1.119999 -2.08,-0.960001 -2.08,-0.64 -2.239999,-0.479999 -2.24,-0.16 -2.400002,0.16 L -23.52,-18.24 l -2.08,0.64 -2.08,0.960001 -1.92,1.119999 -1.92,1.44 -1.599999,1.6 -1.440002,1.76 -1.119999,1.92 -0.959999,2.08 -0.64,2.24 -0.479999,2.24 V 0 2.24 l 0.479999,2.24 0.64,2.24 0.959999,2.08 1.119999,1.92 1.440002,1.76 1.599999,1.6 1.92,1.44 1.92,1.279999 2.08,0.800001 2.08,0.8 2.239999,0.319999 2.400002,0.16 2.24,-0.16 L -14.4,18.4 -12.32,17.6 -10.24,16.799999 -8.16,15.52 -6.4,14.08 -4.8,12.48 -3.36,10.72 -2.24,8.8 -1.28,6.72 -0.64,4.48 -0.16,2.24 0,0"
       style="fill:none;stroke:#000000;stroke-width:0.64;stroke-linecap:round;stroke-linejoin:round;stroke-miterlimit:10;stroke-dasharray:none;stroke-opacity:1"
       transform="translate(570.88,411.73327)"
       clip-path="url(#clipPath18)" />
  </g>
</svg>
