<?xml version="1.0" encoding="UTF-8" standalone="no"?>
<!-- Created with Inkscape (http://www.inkscape.org/) -->

<svg
   version="1.1"
   id="svg1"
   width="350.85333"
   height="268.29333"
   viewBox="0 0 350.85333 268.29333"
   sodipodi:docname="Dissolve6.pdf"
   xmlns:inkscape="http://www.inkscape.org/namespaces/inkscape"
   xmlns:sodipodi="http://sodipodi.sourceforge.net/DTD/sodipodi-0.dtd"
   xmlns="http://www.w3.org/2000/svg"
   xmlns:svg="http://www.w3.org/2000/svg">
  <defs
     id="defs1">
    <clipPath
       clipPathUnits="userSpaceOnUse"
       id="clipPath2">
      <path
         d="M 0,0.16 V 1122.5601 H 793.59998 V 0.16 Z"
         transform="translate(-554.40003,-575.52002)"
         clip-rule="evenodd"
         id="path2" />
    </clipPath>
    <clipPath
       clipPathUnits="userSpaceOnUse"
       id="clipPath4">
      <path
         d="M 0,0.16 V 1122.5601 H 793.59998 V 0.16 Z"
         transform="translate(-240.96001,-603.03998)"
         clip-rule="evenodd"
         id="path4" />
    </clipPath>
    <clipPath
       clipPathUnits="userSpaceOnUse"
       id="clipPath6">
      <path
         d="M 0,0.16 V 1122.5601 H 793.59998 V 0.16 Z"
         transform="translate(-536,-535.52002)"
         clip-rule="evenodd"
         id="path6" />
    </clipPath>
  </defs>
  <sodipodi:namedview
     id="namedview1"
     pagecolor="#505050"
     bordercolor="#eeeeee"
     borderopacity="1"
     inkscape:showpageshadow="0"
     inkscape:pageopacity="0"
     inkscape:pagecheckerboard="0"
     inkscape:deskcolor="#505050">
    <inkscape:page
       x="0"
       y="0"
       inkscape:label="1"
       id="page1"
       width="350.85333"
       height="268.29333"
       margin="0"
       bleed="0" />
  </sodipodi:namedview>
  <g
     id="g1"
     inkscape:groupmode="layer"
     inkscape:label="1">
    <path
       id="path1"
       d="m 0,0 c 0,-20.85 -8.45,-37.759998 -18.879999,-37.759998 -10.43,0 -18.879999,16.909998 -18.879999,37.759998 0,20.85 8.449999,37.759998 18.879999,37.759998 C -8.45,37.759998 0,20.85 0,0 Z"
       style="fill:none;stroke:#000000;stroke-width:26.4;stroke-linecap:round;stroke-linejoin:round;stroke-miterlimit:10;stroke-dasharray:none;stroke-opacity:1"
       transform="translate(331.61336,141.70663)"
       clip-path="url(#clipPath2)" />
    <path
       id="path3"
       d="m 0,0 1.6,6.4 1.76,6.24 2.08,6.079999 2.24,5.92 2.56,5.600001 2.72,5.44 3.04,5.119999 3.040001,4.799999 3.359999,4.640004 3.52,4.319999 3.68,3.840001 3.839999,3.68 4,3.199997 4.159999,2.880005 4.16,2.559997 4.320004,2.080002 4.32,1.759995 4.479999,1.279998 4.48,0.960007 4.479995,0.639999 h 4.640007 l 4.479996,-0.160003 4.480003,-0.799996 4.479996,-0.960006 4.480004,-1.599999 4.319999,-1.759994 4.32,-2.400002 4.159999,-2.560005 4,-3.039993 4,-3.360005 3.68,-3.84 3.68,-4 3.52,-4.32 3.2,-4.799999 3.04001,-4.959999 L 131.2,33.759998 133.92,28.16 136.32001,22.559999 138.56,16.48 l 1.92,-6.08 1.76,-6.24 1.43999,-6.4 1.28002,-6.56 0.95999,-6.72 0.64,-6.72 0.47999,-6.719999 V -35.68"
       style="fill:none;stroke:#000000;stroke-width:26.4;stroke-linecap:round;stroke-linejoin:round;stroke-miterlimit:10;stroke-dasharray:none;stroke-opacity:1"
       transform="translate(18.17334,169.22659)"
       clip-path="url(#clipPath4)" />
    <path
       id="path5"
       d="m 0,0 -1.28,-6.56 -1.76,-6.4 -1.92,-6.240001 -2.24,-6.08 -2.4,-5.76 -2.72,-5.599998 -2.88,-5.440003 -3.04,-5.119999 L -21.6,-52 l -3.359999,-4.48 -3.68,-4.159999 L -32.48,-64.32 l -4,-3.519996 -4.159999,-3.040001 -4.16,-2.720001 -4.32,-2.400002 -4.32,-1.919998 -4.479999,-1.440003 -4.640003,-1.120002 -4.48,-0.799996 -4.639999,-0.160003 -4.64,0.160003 -4.480003,0.479996 -4.639999,0.960007 -4.479996,1.439994 -4.32,1.760003 -4.480003,2.239997 -4.159999,2.560006 -4.16,2.879997 -4,3.360001 -3.84,3.84 -3.84,4 -3.52,4.319999 -3.36,4.8 -3.04,4.959999 -3.03999,5.279998 -2.72,5.440003 -2.56002,5.759998 -2.23999,6.08 -1.91999,6.080001 -1.76001,6.4 -1.6,6.56 -1.27999,6.56 -0.96001,6.72 -0.64,6.88 -0.48,6.879999 L -148,31.84"
       style="fill:none;stroke:#000000;stroke-width:26.4;stroke-linecap:round;stroke-linejoin:round;stroke-miterlimit:10;stroke-dasharray:none;stroke-opacity:1"
       transform="translate(313.21333,101.70663)"
       clip-path="url(#clipPath6)" />
  </g>
</svg>
