<?xml version="1.0" encoding="UTF-8" standalone="no"?>
<!-- Created with Inkscape (http://www.inkscape.org/) -->

<svg
   version="1.1"
   id="svg1"
   width="580.32001"
   height="393.76001"
   viewBox="0 0 580.32001 393.76001"
   sodipodi:docname="Dissolution2.pdf"
   xmlns:inkscape="http://www.inkscape.org/namespaces/inkscape"
   xmlns:sodipodi="http://sodipodi.sourceforge.net/DTD/sodipodi-0.dtd"
   xmlns="http://www.w3.org/2000/svg"
   xmlns:svg="http://www.w3.org/2000/svg">
  <defs
     id="defs1">
    <clipPath
       clipPathUnits="userSpaceOnUse"
       id="clipPath2">
      <path
         d="M 0,0.16 V 1122.5601 H 793.59998 V 0.16 Z"
         transform="translate(-298.4,-538.23999)"
         clip-rule="evenodd"
         id="path2" />
    </clipPath>
    <clipPath
       clipPathUnits="userSpaceOnUse"
       id="clipPath4">
      <path
         d="M 0,0.16 V 1122.5601 H 793.59998 V 0.16 Z"
         transform="translate(-665.12,-584.47998)"
         clip-rule="evenodd"
         id="path4" />
    </clipPath>
    <clipPath
       clipPathUnits="userSpaceOnUse"
       id="clipPath6">
      <path
         d="M 0,0.16 V 1122.5601 H 793.59998 V 0.16 Z"
         transform="translate(-553.28003,-453.28)"
         clip-rule="evenodd"
         id="path6" />
    </clipPath>
    <clipPath
       clipPathUnits="userSpaceOnUse"
       id="clipPath8">
      <path
         d="M 0,0.16 V 1122.5601 H 793.59998 V 0.16 Z"
         transform="translate(-240.32001,-669.44)"
         clip-rule="evenodd"
         id="path8" />
    </clipPath>
  </defs>
  <sodipodi:namedview
     id="namedview1"
     pagecolor="#505050"
     bordercolor="#eeeeee"
     borderopacity="1"
     inkscape:showpageshadow="0"
     inkscape:pageopacity="0"
     inkscape:pagecheckerboard="0"
     inkscape:deskcolor="#505050">
    <inkscape:page
       x="0"
       y="0"
       inkscape:label="1"
       id="page1"
       width="580.32001"
       height="393.76001"
       margin="0"
       bleed="0" />
  </sodipodi:namedview>
  <g
     id="g1"
     inkscape:groupmode="layer"
     inkscape:label="1">
    <path
       id="path1"
       d="M 0,0 C 0,-46.919998 -38.029999,-84.959999 -84.959999,-84.959999 -131.89,-84.959999 -169.92,-46.919998 -169.92,0 c 0,46.919998 38.03,84.959999 84.960001,84.959999 C -38.029999,84.959999 0,46.919998 0,0 Z"
       style="fill:none;stroke:#000000;stroke-width:26.4;stroke-linecap:round;stroke-linejoin:round;stroke-miterlimit:10;stroke-dasharray:none;stroke-opacity:1"
       transform="translate(193.01333,172.5066)"
       clip-path="url(#clipPath2)" />
    <path
       id="path3"
       d="M 0,0 C 0,-46.919998 -38.029999,-84.959999 -84.959999,-84.959999 -131.89,-84.959999 -169.92,-46.919998 -169.92,0 c 0,46.919998 38.03,84.959999 84.960001,84.959999 C -38.029999,84.959999 0,46.919998 0,0 Z"
       style="fill:none;stroke:#000000;stroke-width:26.4;stroke-linecap:round;stroke-linejoin:round;stroke-miterlimit:10;stroke-dasharray:none;stroke-opacity:1"
       transform="translate(559.73333,218.74659)"
       clip-path="url(#clipPath4)" />
    <path
       id="path5"
       d="m 0,0 -7.84,-7.2 -8.32,-6.88 -8.479999,-6.559999 -8.8,-6.08 -8.960003,-5.760001 -9.279998,-5.439998 -9.599999,-4.800003 -9.760002,-4.64 -9.760002,-4 -10.079994,-3.68 -10.240003,-3.200001 -10.4,-2.719997 -10.4,-2.400002 -10.56,-1.760002 -10.72,-1.439995 -10.55999,-0.959999 L -164.48,-68 h -10.72 l -10.72,0.480003 -10.72,0.959999 -10.56,1.439995 -10.55999,1.760002 -10.56002,2.400002 -10.23999,2.719997 -10.24,3.200001 -10.08,3.68 -9.91999,4 -9.76001,4.64 -9.44,4.800003 -9.28,5.439998 -9.11999,5.760001 -8.80002,6.08 -8.47998,6.559999 -8.16001,6.88 -8,7.2"
       style="fill:none;stroke:#000000;stroke-width:26.4;stroke-linecap:round;stroke-linejoin:round;stroke-miterlimit:10;stroke-dasharray:none;stroke-opacity:1"
       transform="translate(447.89336,87.546607)"
       clip-path="url(#clipPath6)" />
    <path
       id="path7"
       d="m 0,0 8,7.2 8.16,6.88 8.639999,6.4 8.64,6.239999 9.120002,5.600001 9.279999,5.439998 9.439999,4.960003 9.760002,4.48 9.919998,4 10.080002,3.68 10.239999,3.200001 10.4,2.879997 10.4,2.240002 10.56,1.920002 10.56,1.279999 10.72,0.959999 10.72,0.479995 h 10.72 l 10.72,-0.479995 10.56,-0.959999 10.72,-1.279999 10.56,-1.920002 10.40001,-2.240002 10.39999,-2.879997 10.24001,-3.200001 10.08,-3.68 9.91998,-4 9.60001,-4.48 9.6,-4.960003 9.28,-5.439998 8.95999,-5.600001 8.80002,-6.239999 8.47998,-6.4 L 332,7.2 339.84,0"
       style="fill:none;stroke:#000000;stroke-width:26.4;stroke-linecap:round;stroke-linejoin:round;stroke-miterlimit:10;stroke-dasharray:none;stroke-opacity:1"
       transform="translate(134.93334,303.70661)"
       clip-path="url(#clipPath8)" />
  </g>
</svg>
