<?xml version="1.0" encoding="UTF-8" standalone="no"?>
<!-- Created with Inkscape (http://www.inkscape.org/) -->

<svg
   version="1.1"
   id="svg1"
   width="262.81332"
   height="284.30667"
   viewBox="0 0 262.81332 284.30667"
   sodipodi:docname="Distillation13.pdf"
   xmlns:inkscape="http://www.inkscape.org/namespaces/inkscape"
   xmlns:sodipodi="http://sodipodi.sourceforge.net/DTD/sodipodi-0.dtd"
   xmlns="http://www.w3.org/2000/svg"
   xmlns:svg="http://www.w3.org/2000/svg">
  <defs
     id="defs1">
    <clipPath
       clipPathUnits="userSpaceOnUse"
       id="clipPath2">
      <path
         d="M 0,0.16 V 1122.5601 H 793.59998 V 0.16 Z"
         transform="translate(-299.67999,-483.51999)"
         clip-rule="evenodd"
         id="path2" />
    </clipPath>
    <clipPath
       clipPathUnits="userSpaceOnUse"
       id="clipPath4">
      <path
         d="M 0,0.16 V 1122.5601 H 793.59998 V 0.16 Z"
         clip-rule="evenodd"
         id="path4" />
    </clipPath>
  </defs>
  <sodipodi:namedview
     id="namedview1"
     pagecolor="#505050"
     bordercolor="#eeeeee"
     borderopacity="1"
     inkscape:showpageshadow="0"
     inkscape:pageopacity="0"
     inkscape:pagecheckerboard="0"
     inkscape:deskcolor="#505050">
    <inkscape:page
       x="0"
       y="0"
       inkscape:label="1"
       id="page1"
       width="262.81332"
       height="284.30667"
       margin="0"
       bleed="0" />
  </sodipodi:namedview>
  <g
     id="g1"
     inkscape:groupmode="layer"
     inkscape:label="1">
    <path
       id="path1"
       d="m 0,0 -3.04,7.2 -2.56,7.36 -2.56,7.36 -2.08,7.68 -1.76,7.839999 -1.44,7.84 -1.12,8 -0.8,8.16 -0.64,8.159999 -0.16,8 0.16,8.160004 0.48,8.159996 0.96,8.160002 1.12,8 1.44,7.84 1.76,7.84 2.08,7.68 2.4,7.52001 2.72,7.19999 3.04,7.2 3.2,6.88 3.52,6.56 3.84,6.4 4.16,6.08 4.320001,5.75999 4.479999,5.44001 4.8,5.12001 4.959999,4.79998 5.120003,4.48001 5.279998,4 5.439999,3.68 5.600002,3.19999 5.759999,2.88001 5.759998,2.39999 5.920006,2.08 6.079994,1.60001 6.080002,1.12 6.080002,0.64 6.080001,0.32 6.079997,-0.16 6.08,-0.64 6.08,-0.96001 6.08,-1.59999 5.92,-1.92 5.76,-2.24 5.76,-2.72 5.76,-3.2 5.44,-3.52 5.28,-4 5.28,-4.32 4.96001,-4.8 4.79998,-4.96001 4.64,-5.43998 4.32001,-5.60001 4.16,-6.08 3.84,-6.24001 3.52,-6.72 3.36001,-6.71998 L 196.64,149.92"
       style="fill:none;stroke:#000000;stroke-width:26.4;stroke-linecap:round;stroke-linejoin:round;stroke-miterlimit:10;stroke-dasharray:none;stroke-opacity:1"
       transform="translate(44.879993,25.67993)"
       clip-path="url(#clipPath2)" />
    <path
       id="path3"
       d="m 302.39999,485.76001 169.92002,37.76001 -188.80002,37.76001"
       style="fill:none;stroke:#000000;stroke-width:26.4;stroke-linecap:round;stroke-linejoin:round;stroke-miterlimit:10;stroke-dasharray:none;stroke-opacity:1"
       transform="translate(-254.8,-457.84006)"
       clip-path="url(#clipPath4)" />
  </g>
</svg>
