<?xml version="1.0" encoding="UTF-8" standalone="no"?>
<!-- Created with Inkscape (http://www.inkscape.org/) -->

<svg
   version="1.1"
   id="svg1"
   width="409.54666"
   height="399.09332"
   viewBox="0 0 409.54666 399.09332"
   sodipodi:docname="Distillation2.pdf"
   xmlns:inkscape="http://www.inkscape.org/namespaces/inkscape"
   xmlns:sodipodi="http://sodipodi.sourceforge.net/DTD/sodipodi-0.dtd"
   xmlns="http://www.w3.org/2000/svg"
   xmlns:svg="http://www.w3.org/2000/svg">
  <defs
     id="defs1">
    <clipPath
       clipPathUnits="userSpaceOnUse"
       id="clipPath2">
      <path
         d="M 0,0.16 V 1122.5601 H 793.59998 V 0.16 Z"
         transform="translate(-211.2,-737.44001)"
         clip-rule="evenodd"
         id="path2" />
    </clipPath>
    <clipPath
       clipPathUnits="userSpaceOnUse"
       id="clipPath4">
      <path
         d="M 0,0.16 V 1122.5601 H 793.59998 V 0.16 Z"
         transform="translate(-475.51999,-561.28003)"
         clip-rule="evenodd"
         id="path4" />
    </clipPath>
  </defs>
  <sodipodi:namedview
     id="namedview1"
     pagecolor="#505050"
     bordercolor="#eeeeee"
     borderopacity="1"
     inkscape:showpageshadow="0"
     inkscape:pageopacity="0"
     inkscape:pagecheckerboard="0"
     inkscape:deskcolor="#505050">
    <inkscape:page
       x="0"
       y="0"
       inkscape:label="1"
       id="page1"
       width="409.54666"
       height="399.09332"
       margin="0"
       bleed="0" />
  </sodipodi:namedview>
  <g
     id="g1"
     inkscape:groupmode="layer"
     inkscape:label="1">
    <path
       id="path1"
       d="M 0,0 3.36,-7.52 13.6,-30.4 18.559999,-41.919998 25.6,-59.360001 31.360001,-74.559998 36.32,-88.480003 40.799999,-101.44 l 3.84,-12.8 3.520001,-12.48 3.200001,-12.31999 2.880001,-12.16001 2.719997,-12.32 2.400002,-12.32 0.159999,-0.32 2.079998,-11.51999 L 63.68,-200.96001 66.080002,-216.8 68.959999,-237.60001 70.720001,-251.2 72,-260.48001 l 1.919998,-15.03998 1.599999,-12.16 1.280006,-10.08002 1.279999,-8.63998 1.119995,-7.68 0.960007,-6.72 1.119995,-5.92001 0.959999,-5.12 0.959999,-4.48001 0.960007,-3.83999 0.799995,-3.35999 0.959999,-2.72 0.959999,-2.24002 0.959999,-1.75998 0.960007,-1.12 0.799995,-0.80001 0.96,-0.16001 0.959999,0.16001 0.960006,0.64001 0.959999,1.12 1.119996,1.44 0.959999,2.07999 1.120002,2.39999 1.279999,2.88 1.120003,3.52002 1.279999,4 1.28,4.47998 1.28,4.96 1.28,5.76001 1.44,6.23999 1.44,6.88 1.44,7.52002 1.6,8.31998 1.6,9.28 1.6,10.24002 1.76,11.35998 1.76,12.80001 1.92,14.72 1.92,17.6 2.24,21.92 0.96,11.2 0.8,10.88 0.8,12.16001 0.64,13.59999 0.48,12.64 0.48,11.68 0.16,10.88 0.32,10.080003 0.16,9.279999 0.16,8.479995 0.16,7.680001 0.16,7.200004 0.16001,6.399998 0.31999,5.920002 0.32001,5.119999 0.31999,4.639999 0.32001,4.16 0.47999,3.68 0.64,3.040001 0.64,2.56 0.8,2.08 0.80001,1.599998 0.79998,1.120001 1.12001,0.639999 1.12,0.16 0.8,-0.16 1.28,-0.479999 1.44,-0.959999 1.59999,-1.440001 1.60001,-1.76 1.76,-2.4 1.91999,-2.720001 2.08001,-3.200001 2.08,-3.679996 2.40001,-4.320004 2.23999,-4.639999 2.55999,-5.279999 2.56002,-5.759998 2.71998,-6.400002 2.88001,-6.879997 2.88,-7.520004 3.04,-8.159996 3.04,-8.64 3.2,-9.600003 3.36,-10.08 3.36,-11.04 3.36,-11.68 3.36,-12.64 3.51999,-13.6 0.32001,-1.76 2.88,-12.32 3.68,-16.32 4,-19.83999 2.40001,-12.64 2.07998,-10.72 3.20002,-17.44002 2.55999,-14.23999 2.08,-11.51999 1.76,-10.08002 1.60001,-8.63998 1.43998,-7.68 1.28002,-6.88 1.28,-6.08002 1.11999,-5.44 1.12,-4.63998 0.96,-4.16001 0.95999,-3.51999 0.96001,-3.04001 0.8,-2.39999 0.96,-1.92001 0.8,-1.44 0.64,-0.96 0.8,-0.48001 h 0.31999 l 0.64,0.16001 0.64002,0.64001 0.64,1.12 0.79998,1.44 0.64,2.07999 0.80001,2.39999 0.64,3.04001 0.8,3.36001 0.64,4 0.8,4.47998 0.8,5.12 0.96,5.76001 0.8,6.23999 1.11999,7.04001 0.96001,7.67999 1.12,8.48001 1.27999,9.60001 1.44001,10.55999 1.6,12 2.08,13.76 2.40001,16.64 3.68,20.96001 1.91998,10.39999 3.20001,16.16 0.79999,3.04 2.56,11.19999 3.04001,11.36 3.20001,11.20002 3.35998,11.19999 3.84,11.2 4,11.2 4.48001,11.359998 4.79999,11.520004 5.28,11.68 5.6,11.999996 6.4,12.640004 L 319.84,-36 328.16,-20.799999 338.23999,-2.56 339.84,0"
       style="fill:none;stroke:#000000;stroke-width:26.4;stroke-linecap:round;stroke-linejoin:round;stroke-miterlimit:10;stroke-dasharray:none;stroke-opacity:1"
       transform="translate(17.759997,374.37328)"
       clip-path="url(#clipPath2)" />
    <path
       id="path3"
       d="m 0,0 0.16,-8.32 0.32,-7.36 0.64,-7.360001 0.8,-7.039999 1.12,-6.719999 1.28,-6.560002 1.6,-6.399997 L 7.52,-56 9.6,-61.919998 11.68,-67.68 l 2.4,-5.599999 2.559999,-5.279999 2.720002,-4.959999 2.719999,-4.960006 3.040001,-4.64 L 28,-97.440002 30.879999,-101.6 31.52,-102.24 33.279999,-104.8 36,-108.32 l 2.560001,-3.2 2.399998,-2.88 2.240002,-2.56 2.239998,-2.08 2.240001,-1.76 2.079998,-1.28 2.240002,-0.8 2.080002,-0.48 H 56.32 l 2.400001,0.32 1.119999,0.32 1.439999,0.64 2.560001,1.28 2.719998,1.6 2.880004,2.24 3.040001,2.72 3.199997,3.04 3.040001,3.68 3.360001,4.16 3.040001,4.639999 3.199997,5.120003 2.879997,5.439994 1.440002,2.880005 2.720002,6.400002 2.559997,6.719993 2.240002,7.200005 2.08,7.84 1.76,8 1.44,8.48 0.96,8.639999 0.48,8.48 v 4.640001 3.839999 l -0.32,8.16 -0.96,8.32 -1.28,8.16 -1.76,8.32 -2.24,8.48 -2.720002,8.320001 -3.04,8.48 -3.519997,8.479999 -2.879997,6.560002 -2.080002,4 -1.919998,3.999996 -3.840004,6.880005 -3.839997,6.239998 -3.840004,5.599998 -4,5.440003 -4.159996,5.119995 L 60.16,100.64 l -4.64,5.12 -4.799999,5.12 -4.960003,4.96 -5.439998,5.12 -5.599999,5.28 -5.760002,5.28 -6.24,5.28 -6.399999,5.44 -6.56,5.43999 -7.04,5.60001 -7.2,5.6 -7.52,5.76 -6.879999,5.28"
       style="fill:none;stroke:#000000;stroke-width:26.4;stroke-linecap:round;stroke-linejoin:round;stroke-miterlimit:10;stroke-dasharray:none;stroke-opacity:1"
       transform="translate(282.07999,198.2133)"
       clip-path="url(#clipPath4)" />
  </g>
</svg>
