<?xml version="1.0" encoding="UTF-8" standalone="no"?>
<!-- Created with Inkscape (http://www.inkscape.org/) -->

<svg
   version="1.1"
   id="svg1"
   width="282.82666"
   height="335.04001"
   viewBox="0 0 282.82666 335.04001"
   sodipodi:docname="Distillation5.pdf"
   xmlns:inkscape="http://www.inkscape.org/namespaces/inkscape"
   xmlns:sodipodi="http://sodipodi.sourceforge.net/DTD/sodipodi-0.dtd"
   xmlns="http://www.w3.org/2000/svg"
   xmlns:svg="http://www.w3.org/2000/svg">
  <defs
     id="defs1">
    <clipPath
       clipPathUnits="userSpaceOnUse"
       id="clipPath2">
      <path
         d="M 0,0.16 V 1122.5601 H 793.59998 V 0.16 Z"
         transform="translate(-460.32001,-507.6)"
         clip-rule="evenodd"
         id="path2" />
    </clipPath>
    <clipPath
       clipPathUnits="userSpaceOnUse"
       id="clipPath4">
      <path
         d="M 0,0.16 V 1122.5601 H 793.59998 V 0.16 Z"
         transform="translate(-369.60001,-416.95999)"
         clip-rule="evenodd"
         id="path4" />
    </clipPath>
    <clipPath
       clipPathUnits="userSpaceOnUse"
       id="clipPath6">
      <path
         d="M 0,0.16 V 1122.5601 H 793.59998 V 0.16 Z"
         transform="translate(-511.51999,-705.59997)"
         clip-rule="evenodd"
         id="path6" />
    </clipPath>
  </defs>
  <sodipodi:namedview
     id="namedview1"
     pagecolor="#505050"
     bordercolor="#eeeeee"
     borderopacity="1"
     inkscape:showpageshadow="0"
     inkscape:pageopacity="0"
     inkscape:pagecheckerboard="0"
     inkscape:deskcolor="#505050">
    <inkscape:page
       x="0"
       y="0"
       inkscape:label="1"
       id="page1"
       width="282.82666"
       height="335.04001"
       margin="0"
       bleed="0" />
  </sodipodi:namedview>
  <g
     id="g1"
     inkscape:groupmode="layer"
     inkscape:label="1">
    <path
       id="path1"
       d="M 0,0 C 0,-50.049999 -40.580002,-90.639999 -90.639999,-90.639999 -140.7,-90.639999 -181.28,-50.049999 -181.28,0 c 0,50.049999 40.58,90.639999 90.640001,90.639999 C -40.580002,90.639999 0,50.049999 0,0 Z"
       style="fill:none;stroke:#000000;stroke-width:26.4;stroke-linecap:round;stroke-linejoin:round;stroke-miterlimit:10;stroke-dasharray:none;stroke-opacity:1"
       transform="translate(460.32001,502.26661)"
       clip-path="url(#clipPath2)" />
    <path
       id="path3"
       d="m 0,0 -2.56,6.56 -2.08,6.56 -1.76,6.72 -1.28,6.719999 -0.96,7.039999 -0.48,6.880002 -0.16,6.880001 0.32,7.040001 0.8,6.879997 1.12,6.880005 1.6,6.719993 2.08,6.560005 2.4,6.559998 2.72,6.400002 3.2,6.239998 3.52,5.92 3.84,5.76 4.16,5.6 4.640001,5.28 4.799999,4.96 5.120001,4.64 5.439999,4.31999 5.600002,4 L 48,144.8 l 6.080002,3.36 6.399998,2.87999"
       style="fill:none;stroke:#000000;stroke-width:26.4;stroke-linecap:round;stroke-linejoin:round;stroke-miterlimit:10;stroke-dasharray:none;stroke-opacity:1"
       transform="translate(369.60001,411.6266)"
       clip-path="url(#clipPath4)" />
    <path
       id="path5"
       d="M 0,0 1.44,-6.72 2.4,-13.6 3.04,-20.639999 3.2,-27.52 2.88,-34.400002 2.24,-41.439999 1.12,-48.32 -0.32,-55.040001 -2.24,-61.759998 -4.48,-68.32 l -2.72,-6.400001 -3.04,-6.239998 -3.52,-5.919998 -3.84,-5.920006 -4.16,-5.599999 -4.48,-5.279998 -4.800001,-4.96 -4.959999,-4.8 -5.439999,-4.32 -5.600002,-4.16 -5.919998,-3.68 -5.920002,-3.36001 -6.399998,-3.03999 -6.400001,-2.72 -6.559998,-2.24001 -6.720001,-1.75999"
       style="fill:none;stroke:#000000;stroke-width:26.4;stroke-linecap:round;stroke-linejoin:round;stroke-miterlimit:10;stroke-dasharray:none;stroke-opacity:1"
       transform="translate(511.51999,700.26658)"
       clip-path="url(#clipPath6)" />
  </g>
</svg>
