<?xml version="1.0" encoding="UTF-8" standalone="no"?>
<!-- Created with Inkscape (http://www.inkscape.org/) -->

<svg
   version="1.1"
   id="svg1"
   width="274.81332"
   height="274.97333"
   viewBox="0 0 274.81332 274.97333"
   sodipodi:docname="Distillation10.pdf"
   xmlns:inkscape="http://www.inkscape.org/namespaces/inkscape"
   xmlns:sodipodi="http://sodipodi.sourceforge.net/DTD/sodipodi-0.dtd"
   xmlns="http://www.w3.org/2000/svg"
   xmlns:svg="http://www.w3.org/2000/svg">
  <defs
     id="defs1">
    <clipPath
       clipPathUnits="userSpaceOnUse"
       id="clipPath2">
      <path
         d="M 0,0.16 V 1122.5601 H 793.59998 V 0.16 Z"
         transform="translate(-401.28,-530.23999)"
         clip-rule="evenodd"
         id="path2" />
    </clipPath>
    <clipPath
       clipPathUnits="userSpaceOnUse"
       id="clipPath4">
      <path
         d="M 0,0.16 V 1122.5601 H 793.59998 V 0.16 Z"
         transform="translate(-403.68,-532.64002)"
         clip-rule="evenodd"
         id="path4" />
    </clipPath>
    <clipPath
       clipPathUnits="userSpaceOnUse"
       id="clipPath6">
      <path
         d="M 0,0.16 V 1122.5601 H 793.59998 V 0.16 Z"
         transform="translate(-287.67999,-530.23999)"
         clip-rule="evenodd"
         id="path6" />
    </clipPath>
    <clipPath
       clipPathUnits="userSpaceOnUse"
       id="clipPath8">
      <path
         d="M 0,0.16 V 1122.5601 H 793.59998 V 0.16 Z"
         transform="translate(3.3333334e-6)"
         clip-rule="evenodd"
         id="path8" />
    </clipPath>
  </defs>
  <sodipodi:namedview
     id="namedview1"
     pagecolor="#505050"
     bordercolor="#eeeeee"
     borderopacity="1"
     inkscape:showpageshadow="0"
     inkscape:pageopacity="0"
     inkscape:pagecheckerboard="0"
     inkscape:deskcolor="#505050">
    <inkscape:page
       x="0"
       y="0"
       inkscape:label="1"
       id="page1"
       width="274.81332"
       height="274.97333"
       margin="0"
       bleed="0" />
  </sodipodi:namedview>
  <g
     id="g1"
     inkscape:groupmode="layer"
     inkscape:label="1">
    <path
       id="path1"
       d="m 0,0 -2.56,-4.16 -2.88,-4.16 -3.2,-3.68 -3.36,-3.52 -3.68,-3.359999 -4,-2.880001 -4.16,-2.72 -4.32,-2.399999 -4.479999,-1.92 -4.64,-1.600001 -4.800003,-1.28 -4.959999,-0.959999 -4.799999,-0.64 -4.959999,-0.16 -4.959999,0.16 -4.960003,0.64 -4.799996,0.959999 -4.800003,1.28 -4.639999,1.600001 -4.480003,1.92 -4.32,2.399999 -4.159996,2.72 -4,2.880001 L -101.6,-15.52 l -3.36,3.52 -3.2,3.68 -2.88,4.16 -2.56,4.16"
       style="fill:none;stroke:#000000;stroke-width:26.4;stroke-linecap:round;stroke-linejoin:round;stroke-miterlimit:10;stroke-dasharray:none;stroke-opacity:1"
       transform="translate(143.81333,97.773265)"
       clip-path="url(#clipPath2)" />
    <path
       id="path3"
       d="m 0,0 2.4,4.16 2.72,4 3.04,3.68 3.36,3.52 3.52,3.199999 3.839999,2.880002 4,2.559999 4.160002,2.4 4.479999,1.92 4.48,1.6 4.639999,1.280001 4.8,0.799999 4.640003,0.48 4.799999,0.159999 L 59.68,32.32 l 4.800003,-0.64 4.799996,-0.960001 4.480003,-1.439998 4.479996,-1.600001 4.32,-2.08 4.160003,-2.399999 4,-2.720001 3.680001,-3.039999 L 97.919998,14.08 101.12,10.4 104,6.72 l 2.72,-4.16 2.24,-4.16"
       style="fill:none;stroke:#000000;stroke-width:26.4;stroke-linecap:round;stroke-linejoin:round;stroke-miterlimit:10;stroke-dasharray:none;stroke-opacity:1"
       transform="translate(146.21333,100.17329)"
       clip-path="url(#clipPath4)" />
    <path
       id="path5"
       d="m 0,0 -2.72,4.64 -2.24,4.96 -1.92,5.12 -1.44,5.12 -1.12,5.440001 -0.8,5.279998 L -10.56,36 l 0.16,5.439999 0.48,5.440002 0.96,5.279999 1.28,5.279999 1.76,5.120002 2.08,4.959996 2.4,4.800003 2.88,4.639999 3.2,4.480003 L 8,85.599998 11.84,89.440002 16,92.959999 20.32,96.32 24.799999,99.199997 29.6,101.76 34.560001,104 39.68,105.76 l 5.279999,1.44 5.280003,0.96 5.279998,0.64 5.439999,0.32 5.440003,-0.32 5.439994,-0.48 5.280007,-1.12 5.279999,-1.28 5.119995,-1.92 4.960006,-2.08 4.799996,-2.559999 4.480001,-2.879998 4.48,-3.36 4,-3.520005 3.84,-3.839996 3.52,-4.160004 3.2,-4.319999 2.72,-4.64"
       style="fill:none;stroke:#000000;stroke-width:26.4;stroke-linecap:round;stroke-linejoin:round;stroke-miterlimit:10;stroke-dasharray:none;stroke-opacity:1"
       transform="translate(30.213326,97.773265)"
       clip-path="url(#clipPath6)" />
    <path
       id="path7"
       d="m 432.64001,454.72 -151.04,226.56003"
       style="fill:none;stroke:#000000;stroke-width:26.4;stroke-linecap:round;stroke-linejoin:round;stroke-miterlimit:10;stroke-dasharray:none;stroke-opacity:1"
       transform="translate(-257.46667,-432.46673)"
       clip-path="url(#clipPath8)" />
  </g>
</svg>
