<?xml version="1.0" encoding="UTF-8" standalone="no"?>
<!-- Created with Inkscape (http://www.inkscape.org/) -->

<svg
   version="1.1"
   id="svg1"
   width="425.57333"
   height="161.52"
   viewBox="0 0 425.57333 161.52"
   sodipodi:docname="Distillation3.pdf"
   xmlns:inkscape="http://www.inkscape.org/namespaces/inkscape"
   xmlns:sodipodi="http://sodipodi.sourceforge.net/DTD/sodipodi-0.dtd"
   xmlns="http://www.w3.org/2000/svg"
   xmlns:svg="http://www.w3.org/2000/svg">
  <defs
     id="defs1">
    <clipPath
       clipPathUnits="userSpaceOnUse"
       id="clipPath2">
      <path
         d="M -588.64001,-608.79999 V 513.59998 H 204.96001 V -608.79999 Z"
         transform="translate(5e-6)"
         clip-rule="evenodd"
         id="path2" />
    </clipPath>
  </defs>
  <sodipodi:namedview
     id="namedview1"
     pagecolor="#505050"
     bordercolor="#eeeeee"
     borderopacity="1"
     inkscape:showpageshadow="0"
     inkscape:pageopacity="0"
     inkscape:pagecheckerboard="0"
     inkscape:deskcolor="#505050">
    <inkscape:page
       x="0"
       y="0"
       inkscape:label="1"
       id="page1"
       width="425.57333"
       height="161.52"
       margin="0"
       bleed="0" />
  </sodipodi:namedview>
  <g
     id="g1"
     inkscape:groupmode="layer"
     inkscape:label="1">
    <path
       id="path1"
       d="M 0,0 -6.4,-1.28 -14.56,-2.88 -22.4,-4.8 -29.76,-6.72 -37.119999,-8.8 -44,-10.88 l -6.720001,-2.4 -6.399998,-2.56 -6.080002,-2.56 -5.920002,-2.880001 L -74.720001,-24.16 -80,-27.200001 -85.120003,-30.4 l -4.959999,-3.519998 -4.639999,-3.520001 -4.479996,-3.84 -4.320003,-4 -4.16,-4.16 -4,-4.319999 -4,-4.640004 -4.16,-4.959999 -4.16,-5.120002 -1.92,-2.239998 -2.88,-3.199997 -4.16001,-4.480004 -4.31999,-4 -4.47999,-3.839996 -4.64,-3.520004 -4.64,-3.199997 -4.96001,-2.879997 -5.11999,-2.560006 -5.44001,-2.399998 -5.76001,-1.92 -6.23999,-1.76 -2.55999,-0.64 -2.88001,-0.64 -7.36,-1.12 -7.03999,-0.64 -6.88001,-0.16 -6.56,0.32 -6.4,0.64 -6.08001,1.28 -5.91999,1.6 -5.6,2.08 -5.44,2.399999 -3.04001,1.599999 -5.28,3.200004 -5.43998,3.519997 -5.76,4.32 -5.76001,4.800003 -5.76001,5.439995 -5.44,5.600006 -4.79999,5.599998 -3.83999,4.959999 -3.36002,4.64 -0.63998,0.959999 -1.44001,2.240001 -2.08001,3.840001 -1.91999,3.84 -1.76001,3.84 -1.44,4 -1.28,4.32 -1.28,4.799999 -1.44,6.08 -1.11999,4.639999 -0.48001,1.760001 -1.91999,5.12 -2.23999,4.8 -2.40002,3.84 -2.72,3.36 -2.72,2.56 -3.03998,2.24 -3.36002,1.92 -3.51999,1.44 -1.76001,0.48 -2.23999,0.64 -4,0.8 -4.48001,0.48 H -343.84 l -5.11999,-0.32 -5.12,-0.64 -4.96002,-1.28 -4.63998,-1.6 -4,-1.92 -3.52002,-2.24 -3.19998,-2.56 -2.56,-2.72 -1.12,-1.28 -1.44,-2.24 -1.60001,-3.2 -1.27999,-3.36 -0.80002,-3.52 -0.31998,-3.84 v -3.68 l 0.47998,-3.84 0.96002,-3.84 1.43998,-3.679999 1.76001,-3.52 2.23999,-3.360001 2.72,-3.36 3.04001,-3.040001 3.36001,-2.879997 3.84,-2.560002 4.16,-2.400001 3.19998,-1.599999"
       style="fill:none;stroke:#000000;stroke-width:26.4;stroke-linecap:round;stroke-linejoin:round;stroke-miterlimit:10;stroke-dasharray:none;stroke-opacity:1"
       transform="translate(588.64001,608.95996)"
       clip-path="url(#clipPath2)" />
  </g>
</svg>
