<?xml version="1.0" encoding="UTF-8" standalone="no"?>
<!-- Created with Inkscape (http://www.inkscape.org/) -->

<svg
   version="1.1"
   id="svg1"
   width="386.88"
   height="380.41333"
   viewBox="0 0 386.88 380.41333"
   sodipodi:docname="Distillation4.pdf"
   xmlns:inkscape="http://www.inkscape.org/namespaces/inkscape"
   xmlns:sodipodi="http://sodipodi.sourceforge.net/DTD/sodipodi-0.dtd"
   xmlns="http://www.w3.org/2000/svg"
   xmlns:svg="http://www.w3.org/2000/svg">
  <defs
     id="defs1">
    <clipPath
       clipPathUnits="userSpaceOnUse"
       id="clipPath2">
      <path
         d="m -223.84,-708.79999 v 1122.4 h 793.60001 v -1122.4 z"
         clip-rule="evenodd"
         id="path2" />
    </clipPath>
  </defs>
  <sodipodi:namedview
     id="namedview1"
     pagecolor="#505050"
     bordercolor="#eeeeee"
     borderopacity="1"
     inkscape:showpageshadow="0"
     inkscape:pageopacity="0"
     inkscape:pagecheckerboard="0"
     inkscape:deskcolor="#505050">
    <inkscape:page
       x="0"
       y="0"
       inkscape:label="1"
       id="page1"
       width="386.88"
       height="380.41333"
       margin="0"
       bleed="0" />
  </sodipodi:namedview>
  <g
     id="g1"
     inkscape:groupmode="layer"
     inkscape:label="1">
    <path
       id="path1"
       d="m 0,0 2.4,2.72 3.84,4 4,3.68 4.48,3.2 4.480001,2.88 L 24,18.879999 l 4.799999,2.08 5.119999,1.6 5.120003,1.120001 5.439999,0.8 5.439998,0.319999 5.440003,-0.16 L 61.119999,24 l 3.040005,-0.48 4,-0.800001 5.759994,-1.599998 5.760002,-1.92 5.599999,-2.400002 L 90.720001,14.08 96.160004,10.88 101.28,7.2 l 5.12,-3.84 4.96,-4.32 4.64,-4.8 4.64,-5.12 4.32,-5.44 4.32,-5.76 4,-6.08 3.83999,-6.560001 3.68001,-6.719998 2.08,-4.159999 3.36,-7.040001 3.2,-7.840001 3.36,-8.640003 3.52001,-9.599998 3.51999,-10.559998 3.68,-12.160001 4,-13.92 4.64,-16.8 5.59999,-21.92 2.88001,-10.88001 1.92,-8 3.52,-13.75999 3.03999,-11.36 2.56,-9.76 0.96001,-3.19999 2.08,-7.04001 2.24001,-7.36 2.39999,-7.04 2.39999,-6.88 2.40001,-6.39999 2.4,-6.24001 2.55999,-5.92001 2.56,-5.59998 2.56001,-5.28 2.72001,-4.96002 2.87999,-4.79999 2.72,-4.48001 3.04001,-4.31998 3.03999,-4 3.2,-3.84002 1.27999,-1.44 2.08001,-2.07999 3.52,-3.35999 3.67999,-3.04001 3.84001,-2.88 3.84,-2.56 4.31999,-2.08001 4.32001,-1.91999 4.79999,-1.6 5.28,-1.44001 4.32001,-0.79998 2.08001,-0.48001 6.23999,-0.79999 6.72,-0.32001 6.23999,0.16 5.60001,0.63999 5.12,0.96002 4.80001,1.44 4.31998,1.91999 0.48001,0.16 1.76001,0.95999 3.84,2.40002 3.67999,2.87998 3.51999,3.20001 3.20001,3.67999 3.04001,4 2.72,4.32001 2.56,4.63999 2.07999,5.12002 1.27999,3.35999 0.64002,2.39999 1.44,5.60001 0.79999,5.76001 0.64001,5.91998 v 6.08002 l -0.32,6.07998 -0.80002,5.92002 -1.28,5.91999 -1.59998,5.6 -0.64001,1.76001 -0.95999,2.55999 -2.4,5.12 -2.72,4.96 -3.36001,4.80001 -3.51999,4.64 -4,4.47999 -4.48001,4.32 -4.79999,4 -5.12,3.68 -2.24002,1.44001 -2.23999,1.27999 -5.6,3.04 -5.60001,2.56 -5.91998,2.08 -5.92002,1.6 -6.23999,1.28 -6.23999,0.95999 -6.56002,0.64002 -6.56,0.15999 H 250.56 l -3.52001,-0.15999 -7.36,-0.48001 -8.15999,-0.95999 -9.12001,-1.28 -10.07998,-1.92002 -10.24001,-2.23999 -8.64,-2.40001 -7.04001,-2.23999 -5.75999,-2.24 -2.88001,-1.12 -2.72,-1.11999 -4,-2.08 L 167.2,-196 l -4,-2.39999 -4.16001,-2.72 -4.64,-3.36001 -6.72,-4.48001 -3.51999,-2.23999 -2.55999,-1.28 -4.32001,-2.08 -2.4,-0.8 -4.48001,-1.60001 -5.27999,-1.43998 -5.92,-1.28 -6.56,-1.28002 -7.36,-0.79998 -8.000001,-0.64 h -8.32 L 81.440002,-222.08 H 79.68 l -2.879997,0.32001 -6.080002,0.95999 -5.919998,1.28 -5.760002,1.6 -5.440003,2.08 -5.439998,2.4 -5.279999,3.04001 -5.280003,3.19999 -4.959999,3.84 -2.399999,1.92 -2.24,1.92 -4.799999,4.48001 -4.320002,4.64 -3.679999,4.64 -3.04,4.79998 -2.72,4.96001 -2.4,4.96001 -1.92,5.28 -1.76,5.27999 -1.28,5.6 -0.96,5.76001 -0.64,6.08 -0.32,6.07998 L 0,-132.16"
       style="fill:none;stroke:#000000;stroke-width:26.4;stroke-linecap:round;stroke-linejoin:round;stroke-miterlimit:10;stroke-dasharray:none;stroke-opacity:1"
       transform="translate(19.733329,339.22663)"
       clip-path="url(#clipPath2)" />
  </g>
</svg>
