<?xml version="1.0" encoding="UTF-8" standalone="no"?>
<!-- Created with Inkscape (http://www.inkscape.org/) -->

<svg
   version="1.1"
   id="svg1"
   width="346.85333"
   height="269.62668"
   viewBox="0 0 346.85333 269.62668"
   sodipodi:docname="Distillation23.pdf"
   xmlns:inkscape="http://www.inkscape.org/namespaces/inkscape"
   xmlns:sodipodi="http://sodipodi.sourceforge.net/DTD/sodipodi-0.dtd"
   xmlns="http://www.w3.org/2000/svg"
   xmlns:svg="http://www.w3.org/2000/svg">
  <defs
     id="defs1">
    <clipPath
       clipPathUnits="userSpaceOnUse"
       id="clipPath2">
      <path
         d="M 0,0.16 V 1122.5601 H 793.59998 V 0.16 Z"
         clip-rule="evenodd"
         id="path2" />
    </clipPath>
    <clipPath
       clipPathUnits="userSpaceOnUse"
       id="clipPath4">
      <path
         d="M 0,0.16 V 1122.5601 H 793.59998 V 0.16 Z"
         clip-rule="evenodd"
         id="path4" />
    </clipPath>
    <clipPath
       clipPathUnits="userSpaceOnUse"
       id="clipPath6">
      <path
         d="M 0,0.16 V 1122.5601 H 793.59998 V 0.16 Z"
         transform="translate(-434.56,-561.28003)"
         clip-rule="evenodd"
         id="path6" />
    </clipPath>
    <clipPath
       clipPathUnits="userSpaceOnUse"
       id="clipPath8">
      <path
         d="M 0,0.16 V 1122.5601 H 793.59998 V 0.16 Z"
         transform="translate(-340.16,-504.64001)"
         clip-rule="evenodd"
         id="path8" />
    </clipPath>
    <clipPath
       clipPathUnits="userSpaceOnUse"
       id="clipPath10">
      <path
         d="M 0,0.16 V 1122.5601 H 793.59998 V 0.16 Z"
         transform="translate(-481.76001,-731.20001)"
         clip-rule="evenodd"
         id="path10" />
    </clipPath>
    <clipPath
       clipPathUnits="userSpaceOnUse"
       id="clipPath12">
      <path
         d="M 0,0.16 V 1122.5601 H 793.59998 V 0.16 Z"
         clip-rule="evenodd"
         id="path12" />
    </clipPath>
    <clipPath
       clipPathUnits="userSpaceOnUse"
       id="clipPath14">
      <path
         d="M 0,0.16 V 1122.5601 H 793.59998 V 0.16 Z"
         clip-rule="evenodd"
         id="path14" />
    </clipPath>
    <clipPath
       clipPathUnits="userSpaceOnUse"
       id="clipPath16">
      <path
         d="M 0,0.16 V 1122.5601 H 793.59998 V 0.16 Z"
         clip-rule="evenodd"
         id="path16" />
    </clipPath>
  </defs>
  <sodipodi:namedview
     id="namedview1"
     pagecolor="#505050"
     bordercolor="#eeeeee"
     borderopacity="1"
     inkscape:showpageshadow="0"
     inkscape:pageopacity="0"
     inkscape:pagecheckerboard="0"
     inkscape:deskcolor="#505050">
    <inkscape:page
       x="0"
       y="0"
       inkscape:label="1"
       id="page1"
       width="346.85333"
       height="269.62668"
       margin="0"
       bleed="0" />
  </sodipodi:namedview>
  <g
     id="g1"
     inkscape:groupmode="layer"
     inkscape:label="1">
    <path
       id="path1"
       d="M 359.04001,561.28003 H 245.75999"
       style="fill:none;stroke:#000000;stroke-width:26.4;stroke-linecap:round;stroke-linejoin:round;stroke-miterlimit:10;stroke-dasharray:none;stroke-opacity:1"
       transform="translate(-224.12,-484.53339)"
       clip-path="url(#clipPath2)" />
    <path
       id="path3"
       d="M 434.56,561.28003 H 547.84003"
       style="fill:none;stroke:#000000;stroke-width:26.4;stroke-linecap:round;stroke-linejoin:round;stroke-miterlimit:10;stroke-dasharray:none;stroke-opacity:1"
       transform="translate(-224.12,-484.53339)"
       clip-path="url(#clipPath4)" />
    <path
       id="path5"
       d="M 0,0 -0.16,-3.52 -0.64,-7.04 -1.44,-10.4 -2.56,-13.76 -4,-16.959999 -5.76,-20 -7.68,-22.879999 -9.92,-25.6 l -2.56,-2.4 -2.72,-2.24 -2.88,-1.92 -3.040001,-1.759998 -3.199999,-1.440003 -3.36,-0.959999 -3.360001,-0.799999 -3.52,-0.479999 -3.520001,-0.16 -3.519996,0.16 -3.520001,0.639999 L -48.48,-36.16 l -3.36,1.119999 -3.200001,1.440003 -3.040001,1.759998 -2.879997,2.08 -2.560001,2.24 -2.560002,2.560001 -2.080002,2.719999 -1.919998,2.879999 -1.759994,3.200001 -1.280007,3.2 -1.119995,3.36 -0.639999,3.36 -0.480004,3.52 -0.159996,3.52"
       style="fill:none;stroke:#000000;stroke-width:26.4;stroke-linecap:round;stroke-linejoin:round;stroke-miterlimit:10;stroke-dasharray:none;stroke-opacity:1"
       transform="translate(210.44,76.746637)"
       clip-path="url(#clipPath6)" />
    <path
       id="path7"
       d="M 0,0 -4.32,0.16 -8.8,0.8 -13.12,1.6 -17.440001,2.72 -21.6,4.32 l -4,1.92 -4,2.08 -3.679999,2.56 -3.52,2.72 L -40,16.639999 -43.040001,19.84 l -2.719997,3.520001 -2.400002,3.68 -2.240002,3.839998 -1.919998,4.160002 -1.439998,4.16 -1.280003,4.16 L -55.84,47.84 l -0.64,4.32 -0.159999,4.479999 0.159999,4.48 0.64,4.479999 0.799999,4.32 1.280003,4.32 1.439998,4.160004 1.919998,4 2.240002,3.839996 2.400002,3.68 2.719997,3.520004 L -40,96.639999 -36.799999,99.68 l 3.52,2.72 3.679999,2.56 4,2.24 4,1.76 4.159999,1.6 4.320001,1.12 4.32,0.96 4.48,0.48 4.32,0.16"
       style="fill:none;stroke:#000000;stroke-width:26.4;stroke-linecap:round;stroke-linejoin:round;stroke-miterlimit:10;stroke-dasharray:none;stroke-opacity:1"
       transform="translate(116.04,20.106623)"
       clip-path="url(#clipPath8)" />
    <path
       id="path9"
       d="m 0,0 4.48,-0.16 4.48,-0.48 4.32,-0.96 4.32,-1.12 4.16,-1.6 4,-1.92 3.84,-2.08 3.679999,-2.56 3.52,-2.72 3.360001,-3.039999 2.880001,-3.200001 2.879997,-3.520001 2.400002,-3.68 2.240001,-3.839998 1.759999,-4.000002 1.599998,-4.32 1.120003,-4.16 L 56,-47.84 l 0.48,-4.32 0.159999,-4.479999 -0.159999,-4.48 L 56,-65.440002 55.040001,-69.919998 53.919998,-74.080002 52.32,-78.239998 50.560001,-82.400002 48.32,-86.239998 l -2.400002,-3.68 -2.879997,-3.520004 L 40.16,-96.639999 36.799999,-99.68 l -3.52,-2.72 -3.679999,-2.56 -3.84,-2.08 -4,-1.92 -4.16,-1.6 -4.32,-1.12 -4.32,-0.96 -4.48,-0.48 -4.48,-0.16"
       style="fill:none;stroke:#000000;stroke-width:26.4;stroke-linecap:round;stroke-linejoin:round;stroke-miterlimit:10;stroke-dasharray:none;stroke-opacity:1"
       transform="translate(257.64001,246.66662)"
       clip-path="url(#clipPath10)" />
    <path
       id="path11"
       d="m 340.16,617.91998 141.44001,1.12"
       style="fill:none;stroke:#000000;stroke-width:26.4;stroke-linecap:round;stroke-linejoin:round;stroke-miterlimit:10;stroke-dasharray:none;stroke-opacity:1"
       transform="translate(-224.12,-484.53339)"
       clip-path="url(#clipPath12)" />
    <path
       id="path13"
       d="M 472.32001,731.20001 H 302.39999"
       style="fill:none;stroke:#000000;stroke-width:26.4;stroke-linecap:round;stroke-linejoin:round;stroke-miterlimit:10;stroke-dasharray:none;stroke-opacity:1"
       transform="translate(-224.12,-484.53339)"
       clip-path="url(#clipPath14)" />
    <path
       id="path15"
       d="M 359.04001,617.91998 V 731.20001"
       style="fill:none;stroke:#000000;stroke-width:26.4;stroke-linecap:round;stroke-linejoin:round;stroke-miterlimit:10;stroke-dasharray:none;stroke-opacity:1"
       transform="translate(-224.12,-484.53339)"
       clip-path="url(#clipPath16)" />
  </g>
</svg>
