<?xml version="1.0" encoding="UTF-8" standalone="no"?>
<!-- Created with Inkscape (http://www.inkscape.org/) -->

<svg
   version="1.1"
   id="svg1"
   width="240.13333"
   height="300.32001"
   viewBox="0 0 240.13333 300.32001"
   sodipodi:docname="Ebullition3.pdf"
   xmlns:inkscape="http://www.inkscape.org/namespaces/inkscape"
   xmlns:sodipodi="http://sodipodi.sourceforge.net/DTD/sodipodi-0.dtd"
   xmlns="http://www.w3.org/2000/svg"
   xmlns:svg="http://www.w3.org/2000/svg">
  <defs
     id="defs1">
    <clipPath
       clipPathUnits="userSpaceOnUse"
       id="clipPath2">
      <path
         d="M 0,0.16 V 1122.5601 H 793.59998 V 0.16 Z"
         transform="translate(-348.64001,-507.67999)"
         clip-rule="evenodd"
         id="path2" />
    </clipPath>
    <clipPath
       clipPathUnits="userSpaceOnUse"
       id="clipPath4">
      <path
         d="M 0,0.16 V 1122.5601 H 793.59998 V 0.16 Z"
         transform="translate(3.3333333e-6)"
         clip-rule="evenodd"
         id="path4" />
    </clipPath>
    <clipPath
       clipPathUnits="userSpaceOnUse"
       id="clipPath6">
      <path
         d="M 0,0.16 V 1122.5601 H 793.59998 V 0.16 Z"
         transform="translate(3.3333333e-6)"
         clip-rule="evenodd"
         id="path6" />
    </clipPath>
    <clipPath
       clipPathUnits="userSpaceOnUse"
       id="clipPath8">
      <path
         d="M 0,0.16 V 1122.5601 H 793.59998 V 0.16 Z"
         transform="translate(-347.84,-458.56)"
         clip-rule="evenodd"
         id="path8" />
    </clipPath>
    <clipPath
       clipPathUnits="userSpaceOnUse"
       id="clipPath10">
      <path
         d="M 0,0.16 V 1122.5601 H 793.59998 V 0.16 Z"
         transform="translate(-495.04001,-458.56)"
         clip-rule="evenodd"
         id="path10" />
    </clipPath>
    <clipPath
       clipPathUnits="userSpaceOnUse"
       id="clipPath12">
      <path
         d="M 0,0.16 V 1122.5601 H 793.59998 V 0.16 Z"
         transform="translate(-444.95999,-615.03998)"
         clip-rule="evenodd"
         id="path12" />
    </clipPath>
    <clipPath
       clipPathUnits="userSpaceOnUse"
       id="clipPath14">
      <path
         d="M 0,0.16 V 1122.5601 H 793.59998 V 0.16 Z"
         transform="translate(3.3333333e-6)"
         clip-rule="evenodd"
         id="path14" />
    </clipPath>
    <clipPath
       clipPathUnits="userSpaceOnUse"
       id="clipPath16">
      <path
         d="M 0,0.16 V 1122.5601 H 793.59998 V 0.16 Z"
         transform="translate(3.3333333e-6)"
         clip-rule="evenodd"
         id="path16" />
    </clipPath>
    <clipPath
       clipPathUnits="userSpaceOnUse"
       id="clipPath18">
      <path
         d="M 0,0.16 V 1122.5601 H 793.59998 V 0.16 Z"
         transform="translate(-298.72,-664.15997)"
         clip-rule="evenodd"
         id="path18" />
    </clipPath>
    <clipPath
       clipPathUnits="userSpaceOnUse"
       id="clipPath20">
      <path
         d="M 0,0.16 V 1122.5601 H 793.59998 V 0.16 Z"
         transform="translate(-445.92002,-664.15997)"
         clip-rule="evenodd"
         id="path20" />
    </clipPath>
  </defs>
  <sodipodi:namedview
     id="namedview1"
     pagecolor="#505050"
     bordercolor="#eeeeee"
     borderopacity="1"
     inkscape:showpageshadow="0"
     inkscape:pageopacity="0"
     inkscape:pagecheckerboard="0"
     inkscape:deskcolor="#505050">
    <inkscape:page
       x="0"
       y="0"
       inkscape:label="1"
       id="page1"
       width="240.13333"
       height="300.32001"
       margin="0"
       bleed="0" />
  </sodipodi:namedview>
  <g
     id="g1"
     inkscape:groupmode="layer"
     inkscape:label="1">
    <path
       id="path1"
       d="m 0,0 0.16,4.16 0.64,4.16 0.8,4 1.28,4 1.6,4 2.08,3.68 2.24,3.52 2.56,3.359999 2.72,3.039999 3.200001,2.880001 3.359998,2.560002 3.520001,2.239997 3.68,1.920002 3.84,1.599999 4,1.280003 4.16,0.959999 L 44,47.84 l 4.16,0.32 4.32,-0.32 4.159999,-0.479999 4,-0.959999 4,-1.280003 4,-1.599999 3.680001,-1.920002 3.519996,-2.239997 3.360001,-2.560002 3.040001,-2.880001 2.880005,-3.039999 L 87.68,27.52 89.919998,24 l 1.919998,-3.68 1.600006,-4 1.279999,-4 L 95.68,8.32 96.160004,4.16 96.32,0"
       style="fill:none;stroke:#000000;stroke-width:26.4;stroke-linecap:round;stroke-linejoin:round;stroke-miterlimit:10;stroke-dasharray:none;stroke-opacity:1"
       transform="translate(72.493348,96.559934)"
       clip-path="url(#clipPath2)" />
    <path
       id="path3"
       d="M 347.84,507.67999 V 458.56"
       style="fill:none;stroke:#000000;stroke-width:26.4;stroke-linecap:round;stroke-linejoin:round;stroke-miterlimit:10;stroke-dasharray:none;stroke-opacity:1"
       transform="translate(-276.14667,-411.12006)"
       clip-path="url(#clipPath4)" />
    <path
       id="path5"
       d="M 445.92001,507.67999 V 458.56"
       style="fill:none;stroke:#000000;stroke-width:26.4;stroke-linecap:round;stroke-linejoin:round;stroke-miterlimit:10;stroke-dasharray:none;stroke-opacity:1"
       transform="translate(-276.14667,-411.12006)"
       clip-path="url(#clipPath6)" />
    <path
       id="path7"
       d="m 0,0 -0.16,-2.72 -0.48,-2.72 -0.8,-2.72 -1.12,-2.56 -1.28,-2.4 -1.6,-2.24 -1.76,-2.080001 -2.08,-1.76 -2.24,-1.599998 -2.4,-1.280001 -2.56,-1.120001 L -19.200001,-24 -21.92,-24.48 -24.639999,-24.639999 -27.360001,-24.48 -30.08,-24 l -2.719999,0.799999 -2.400002,1.120001 -2.399997,1.280001 -2.240002,1.599998 -2.079998,1.76 L -43.84,-15.36 l -1.599999,2.24 -1.280002,2.4 -1.119999,2.56 -0.64,2.72 -0.479999,2.72 -0.16,2.72"
       style="fill:none;stroke:#000000;stroke-width:26.4;stroke-linecap:round;stroke-linejoin:round;stroke-miterlimit:10;stroke-dasharray:none;stroke-opacity:1"
       transform="translate(71.693329,47.439939)"
       clip-path="url(#clipPath8)" />
    <path
       id="path9"
       d="m 0,0 -0.16,-2.72 -0.48,-2.72 -0.8,-2.72 -0.96,-2.56 -1.44,-2.4 -1.6,-2.24 -1.76,-2.080001 -2.08,-1.76 -2.24,-1.599998 -2.4,-1.280001 -2.56,-1.120001 L -19.040001,-24 -21.76,-24.48 -24.639999,-24.639999 -27.360001,-24.48 -30.08,-24 l -2.559999,0.799999 -2.560002,1.120001 -2.399997,1.280001 -2.240002,1.599998 -2.079998,1.76 L -43.68,-15.36 l -1.599999,2.24 -1.440002,2.4 -0.959999,2.56 -0.8,2.72 -0.479999,2.72 -0.16,2.72"
       style="fill:none;stroke:#000000;stroke-width:26.4;stroke-linecap:round;stroke-linejoin:round;stroke-miterlimit:10;stroke-dasharray:none;stroke-opacity:1"
       transform="translate(218.89334,47.439939)"
       clip-path="url(#clipPath10)" />
    <path
       id="path11"
       d="m 0,0 -0.16,-4.16 -0.48,-4.32 -0.96,-4 -1.28,-4 -1.6,-3.84 -1.92,-3.84 -2.24,-3.52 -2.56,-3.360001 -2.88,-3.040001 -3.040001,-2.879997 L -20.48,-39.52 -24,-41.759998 -27.68,-43.68 l -4,-1.599999 -4,-1.280002 -4,-0.959999 -4.16,-0.48 -4.32,-0.16 -4.16,0.16 -4.16,0.48 -4.159999,0.959999 -4,1.280002 -3.840004,1.599999 -3.680001,1.920002 L -75.68,-39.52 l -3.360001,2.560001 -3.199997,2.879997 -2.720001,3.040001 -2.559998,3.360001 -2.240005,3.52 -2.079994,3.84 -1.600006,3.84 -1.279999,4 -0.799996,4 -0.640007,4.32 L -96.32,0"
       style="fill:none;stroke:#000000;stroke-width:26.4;stroke-linecap:round;stroke-linejoin:round;stroke-miterlimit:10;stroke-dasharray:none;stroke-opacity:1"
       transform="translate(168.81332,203.91992)"
       clip-path="url(#clipPath12)" />
    <path
       id="path13"
       d="m 347.84,615.03998 v 49.11999"
       style="fill:none;stroke:#000000;stroke-width:26.4;stroke-linecap:round;stroke-linejoin:round;stroke-miterlimit:10;stroke-dasharray:none;stroke-opacity:1"
       transform="translate(-276.14667,-411.12006)"
       clip-path="url(#clipPath14)" />
    <path
       id="path15"
       d="m 445.92001,615.03998 v 49.11999"
       style="fill:none;stroke:#000000;stroke-width:26.4;stroke-linecap:round;stroke-linejoin:round;stroke-miterlimit:10;stroke-dasharray:none;stroke-opacity:1"
       transform="translate(-276.14667,-411.12006)"
       clip-path="url(#clipPath16)" />
    <path
       id="path17"
       d="M 0,0 0.16,2.72 0.64,5.44 1.28,8 l 1.12,2.56 1.28,2.4 1.6,2.24 1.92,2.080001 2.08,1.76 2.24,1.599998 2.4,1.440001 2.4,0.960001 L 19.040001,23.84 21.76,24.32 24.48,24.48 27.200001,24.32 29.92,23.84 32.639999,23.040001 35.200001,22.08 37.599998,20.639999 39.84,19.040001 l 2.079998,-1.76 L 43.68,15.2 45.279999,12.96 46.560001,10.56 47.68,8 l 0.8,-2.56 0.479999,-2.72 0.16,-2.72"
       style="fill:none;stroke:#000000;stroke-width:26.4;stroke-linecap:round;stroke-linejoin:round;stroke-miterlimit:10;stroke-dasharray:none;stroke-opacity:1"
       transform="translate(22.573334,253.03991)"
       clip-path="url(#clipPath18)" />
    <path
       id="path19"
       d="m 0,0 0.16,2.72 0.48,2.72 0.8,2.56 0.96,2.56 1.44,2.4 1.6,2.24 1.76,2.080001 2.08,1.76 2.24,1.599998 2.4,1.440001 2.56,0.960001 L 19.040001,23.84 21.76,24.32 24.48,24.48 27.360001,24.32 30.08,23.84 32.639999,23.040001 35.200001,22.08 37.599998,20.639999 39.84,19.040001 l 2.079998,-1.76 L 43.68,15.2 45.279999,12.96 46.720001,10.56 47.68,8 l 0.8,-2.56 0.479999,-2.72 0.16,-2.72"
       style="fill:none;stroke:#000000;stroke-width:26.4;stroke-linecap:round;stroke-linejoin:round;stroke-miterlimit:10;stroke-dasharray:none;stroke-opacity:1"
       transform="translate(169.77335,253.03991)"
       clip-path="url(#clipPath20)" />
  </g>
</svg>
