<?xml version="1.0" encoding="UTF-8" standalone="no"?>
<!-- Created with Inkscape (http://www.inkscape.org/) -->

<svg
   version="1.1"
   id="svg1"
   width="354.85333"
   height="136.14667"
   viewBox="0 0 354.85333 136.14667"
   sodipodi:docname="Exaltation.pdf"
   xmlns:inkscape="http://www.inkscape.org/namespaces/inkscape"
   xmlns:sodipodi="http://sodipodi.sourceforge.net/DTD/sodipodi-0.dtd"
   xmlns="http://www.w3.org/2000/svg"
   xmlns:svg="http://www.w3.org/2000/svg">
  <defs
     id="defs1">
    <clipPath
       clipPathUnits="userSpaceOnUse"
       id="clipPath2">
      <path
         d="M 0,0.16 V 1122.5601 H 793.59998 V 0.16 Z"
         clip-rule="evenodd"
         id="path2" />
    </clipPath>
    <clipPath
       clipPathUnits="userSpaceOnUse"
       id="clipPath4">
      <path
         d="M 0,0.16 V 1122.5601 H 793.59998 V 0.16 Z"
         clip-rule="evenodd"
         id="path4" />
    </clipPath>
    <clipPath
       clipPathUnits="userSpaceOnUse"
       id="clipPath6">
      <path
         d="M 0,0.16 V 1122.5601 H 793.59998 V 0.16 Z"
         transform="translate(-415.67999,-542.40002)"
         clip-rule="evenodd"
         id="path6" />
    </clipPath>
  </defs>
  <sodipodi:namedview
     id="namedview1"
     pagecolor="#505050"
     bordercolor="#eeeeee"
     borderopacity="1"
     inkscape:showpageshadow="0"
     inkscape:pageopacity="0"
     inkscape:pagecheckerboard="0"
     inkscape:deskcolor="#505050">
    <inkscape:page
       x="0"
       y="0"
       inkscape:label="1"
       id="page1"
       width="354.85333"
       height="136.14667"
       margin="0"
       bleed="0" />
  </sodipodi:namedview>
  <g
     id="g1"
     inkscape:groupmode="layer"
     inkscape:label="1">
    <path
       id="path1"
       d="M 340.16,542.40002 H 226.88"
       style="fill:none;stroke:#000000;stroke-width:26.4;stroke-linecap:round;stroke-linejoin:round;stroke-miterlimit:10;stroke-dasharray:none;stroke-opacity:1"
       transform="translate(-201.44,-441.81339)"
       clip-path="url(#clipPath2)" />
    <path
       id="path3"
       d="M 415.67999,542.40002 H 528.96002"
       style="fill:none;stroke:#000000;stroke-width:26.4;stroke-linecap:round;stroke-linejoin:round;stroke-miterlimit:10;stroke-dasharray:none;stroke-opacity:1"
       transform="translate(-201.44,-441.81339)"
       clip-path="url(#clipPath4)" />
    <path
       id="path5"
       d="M 0,0 V -5.44 L -0.32,-10.72 -0.8,-16 -1.44,-21.280001 -2.4,-26.4 -3.36,-31.360001 -4.64,-36.16 l -1.28,-4.639999 -1.6,-4.48 -1.6,-4.16 -1.92,-4 -1.92,-3.68 -2.08,-3.360001 -2.240001,-3.04 -2.399999,-2.719998 -2.4,-2.400001 -2.4,-2.080002 -2.560001,-1.760002 -2.719999,-1.279999 -2.56,-0.959999 -2.720001,-0.64 -2.719997,-0.159996 -2.720002,0.159996 -2.560001,0.64 -2.719997,0.959999 -2.560002,1.279999 -2.560001,1.760002 -2.559998,2.080002 -2.400001,2.400001 -2.240002,2.719998 -2.239998,3.04 -2.080002,3.360001 -2.080001,3.68 -1.759995,4 -1.760002,4.16 -1.440002,4.48 L -70.879997,-36.16 -72,-31.360001 -73.120003,-26.4 l -0.799995,5.119999 -0.64,5.280001 -0.480003,5.28 -0.32,5.28 -0.159996,5.44"
       style="fill:none;stroke:#000000;stroke-width:26.4;stroke-linecap:round;stroke-linejoin:round;stroke-miterlimit:10;stroke-dasharray:none;stroke-opacity:1"
       transform="translate(214.23999,100.58663)"
       clip-path="url(#clipPath6)" />
  </g>
</svg>
