<?xml version="1.0" encoding="UTF-8" standalone="no"?>
<!-- Created with Inkscape (http://www.inkscape.org/) -->

<svg
   version="1.1"
   id="svg1"
   width="288.16"
   height="281.64001"
   viewBox="0 0 288.16 281.64001"
   sodipodi:docname="Extract.pdf"
   xmlns:inkscape="http://www.inkscape.org/namespaces/inkscape"
   xmlns:sodipodi="http://sodipodi.sourceforge.net/DTD/sodipodi-0.dtd"
   xmlns="http://www.w3.org/2000/svg"
   xmlns:svg="http://www.w3.org/2000/svg">
  <defs
     id="defs1">
    <clipPath
       clipPathUnits="userSpaceOnUse"
       id="clipPath2">
      <path
         d="M 0,0.16 V 1122.5601 H 793.59998 V 0.16 Z"
         transform="translate(-491.20001,-542.40003)"
         clip-rule="evenodd"
         id="path2" />
    </clipPath>
    <clipPath
       clipPathUnits="userSpaceOnUse"
       id="clipPath4">
      <path
         d="M 0,0.16 V 1122.5601 H 793.59998 V 0.16 Z"
         clip-rule="evenodd"
         id="path4" />
    </clipPath>
    <clipPath
       clipPathUnits="userSpaceOnUse"
       id="clipPath6">
      <path
         d="M 0,0.16 V 1122.5601 H 793.59998 V 0.16 Z"
         clip-rule="evenodd"
         id="path6" />
    </clipPath>
    <clipPath
       clipPathUnits="userSpaceOnUse"
       id="clipPath8">
      <path
         d="M 0,0.16 V 1122.5601 H 793.59998 V 0.16 Z"
         transform="translate(-406.56,-484.32001)"
         clip-rule="evenodd"
         id="path8" />
    </clipPath>
  </defs>
  <sodipodi:namedview
     id="namedview1"
     pagecolor="#505050"
     bordercolor="#eeeeee"
     borderopacity="1"
     inkscape:showpageshadow="0"
     inkscape:pageopacity="0"
     inkscape:pagecheckerboard="0"
     inkscape:deskcolor="#505050">
    <inkscape:page
       x="0"
       y="0"
       inkscape:label="1"
       id="page1"
       width="288.16"
       height="281.64001"
       margin="0"
       bleed="0" />
  </sodipodi:namedview>
  <g
     id="g1"
     inkscape:groupmode="layer"
     inkscape:label="1">
    <path
       id="path1"
       d="m 0,0 c 0,-62.560001 -50.709999,-113.28 -113.28,-113.28 -62.57001,0 -113.28,50.719999 -113.28,113.28 0,62.560001 50.70999,113.28 113.28,113.28 C -50.709999,113.28 0,62.560001 0,0 Z"
       style="fill:none;stroke:#000000;stroke-width:26.4;stroke-linecap:round;stroke-linejoin:round;stroke-miterlimit:10;stroke-dasharray:none;stroke-opacity:1"
       transform="translate(491.20001,579.7733)"
       clip-path="url(#clipPath2)" />
    <path
       id="path3"
       d="M 377.92001,429.12 V 655.67999"
       style="fill:none;stroke:#000000;stroke-width:26.4;stroke-linecap:round;stroke-linejoin:round;stroke-miterlimit:10;stroke-dasharray:none;stroke-opacity:1"
       transform="translate(0,37.373275)"
       clip-path="url(#clipPath4)" />
    <path
       id="path5"
       d="m 264.64001,542.40002 h 226.56"
       style="fill:none;stroke:#000000;stroke-width:26.4;stroke-linecap:round;stroke-linejoin:round;stroke-miterlimit:10;stroke-dasharray:none;stroke-opacity:1"
       transform="translate(0,37.373275)"
       clip-path="url(#clipPath6)" />
    <path
       id="path7"
       d="m 0,0 -5.6,0.16 -5.6,0.32 -5.439999,0.8 -5.440001,0.96 -5.44,1.28 -5.119999,1.6 -4.959999,1.76 -4.960003,2.08 -4.48,2.24 -4.479999,2.56 -4,2.72 -3.840001,3.04 -3.52,3.199999 -3.200001,3.200001 -2.879997,3.520001 -2.559998,3.679998 -2.080001,3.68 -1.760003,3.84 -1.440002,4 -0.959999,3.840001 -0.64,4.159999 -0.159996,4 0.159996,4 0.64,4 0.959999,4 1.440002,4 1.760003,3.680001 2.080001,3.840004 2.559998,3.519996 2.879997,3.519997 3.200001,3.360001 3.52,3.200004 3.840001,2.879997 4,2.720002 4.479999,2.559999 4.48,2.4 4.960003,1.92 4.959999,1.92 5.119999,1.44 5.44,1.28 5.440001,1.12 5.439999,0.64 5.6,0.48 5.6,0.16"
       style="fill:none;stroke:#000000;stroke-width:26.4;stroke-linecap:round;stroke-linejoin:round;stroke-miterlimit:10;stroke-dasharray:none;stroke-opacity:1"
       transform="translate(406.56,521.69328)"
       clip-path="url(#clipPath8)" />
  </g>
</svg>
