<?xml version="1.0" encoding="UTF-8" standalone="no"?>
<!-- Created with Inkscape (http://www.inkscape.org/) -->

<svg
   version="1.1"
   id="svg1"
   width="330.85333"
   height="439.14667"
   viewBox="0 0 330.85333 439.14667"
   sodipodi:docname="Fermentation.pdf"
   xmlns:inkscape="http://www.inkscape.org/namespaces/inkscape"
   xmlns:sodipodi="http://sodipodi.sourceforge.net/DTD/sodipodi-0.dtd"
   xmlns="http://www.w3.org/2000/svg"
   xmlns:svg="http://www.w3.org/2000/svg">
  <defs
     id="defs1">
    <clipPath
       clipPathUnits="userSpaceOnUse"
       id="clipPath2">
      <path
         d="M 0,0.16 V 1122.5601 H 793.59998 V 0.16 Z"
         transform="translate(-538.40002,-662.40003)"
         clip-rule="evenodd"
         id="path2" />
    </clipPath>
    <clipPath
       clipPathUnits="userSpaceOnUse"
       id="clipPath4">
      <path
         d="M 0,0.16 V 1122.5601 H 793.59998 V 0.16 Z"
         transform="translate(-3.3333333e-6)"
         clip-rule="evenodd"
         id="path4" />
    </clipPath>
    <clipPath
       clipPathUnits="userSpaceOnUse"
       id="clipPath6">
      <path
         d="M 0,0.16 V 1122.5601 H 793.59998 V 0.16 Z"
         transform="translate(-368.48001,-610.40003)"
         clip-rule="evenodd"
         id="path6" />
    </clipPath>
  </defs>
  <sodipodi:namedview
     id="namedview1"
     pagecolor="#505050"
     bordercolor="#eeeeee"
     borderopacity="1"
     inkscape:showpageshadow="0"
     inkscape:pageopacity="0"
     inkscape:pagecheckerboard="0"
     inkscape:deskcolor="#505050">
    <inkscape:page
       x="0"
       y="0"
       inkscape:label="1"
       id="page1"
       width="330.85333"
       height="439.14667"
       margin="0"
       bleed="0" />
  </sodipodi:namedview>
  <g
     id="g1"
     inkscape:groupmode="layer"
     inkscape:label="1">
    <path
       id="path1"
       d="M 0,0 C 0,-52.130001 -42.259998,-94.400002 -94.400002,-94.400002 -146.53999,-94.400002 -188.8,-52.130001 -188.8,0 c 0,52.130001 42.26001,94.400002 94.399998,94.400002 C -42.259998,94.400002 0,52.130001 0,0 Z"
       style="fill:none;stroke:#000000;stroke-width:26.4;stroke-linecap:round;stroke-linejoin:round;stroke-miterlimit:10;stroke-dasharray:none;stroke-opacity:1"
       transform="translate(308.94669,323.35997)"
       clip-path="url(#clipPath2)" />
    <path
       id="path3"
       d="M 444,568 H 255.2"
       style="fill:none;stroke:#000000;stroke-width:26.4;stroke-linecap:round;stroke-linejoin:round;stroke-miterlimit:10;stroke-dasharray:none;stroke-opacity:1"
       transform="translate(-229.45333,-339.04006)"
       clip-path="url(#clipPath4)" />
    <path
       id="path5"
       d="m 0,0 2.88,-4.64 8.48,-13.919999 7.680001,-12.16 L 24.32,-38.880001 33.439999,-52.16 l 8.159999,-11.200001 7.200001,-9.279998 6.880001,-8 4.16,-4.480004 3.360001,-3.36 6.560001,-6.559998 L 77.599998,-102.08 88,-111.2 l 6.720001,-5.92 4.799996,-4.48 8.160003,-7.68 7.04,-7.36 6.24,-6.72 5.76,-6.88 5.28,-6.72001 0.16,-0.31999 3.84,-5.11999 4.96001,-7.36 5.43998,-8.48001 5.76001,-9.6 5.12,-9.6 4,-8.16001 3.04001,-6.87999 2.07998,-5.91999 1.76001,-4.96001 1.12,-4.48 0.64,-4 0.32,-3.36 v -3.04 l -0.48001,-2.56 -0.64,-2.08 -1.11999,-1.76 -1.28,-1.28 -1.60001,-0.96 -1.44,-0.64 -1.43999,-0.32 h -2.4 l -2.72001,0.16001 -3.03999,0.47999 -3.36,0.80001 -4,1.11999 -4.32001,1.44 -4.79998,1.76 -5.28,2.24 -6.08001,2.56 -6.72,3.2 -7.68,3.52 -8.8,4.32 -10.879996,5.12001 -14.880005,7.03999 -9.760002,4.32001 -6.079998,2.72 L 51.52,-203.2 l -8.319999,3.04 -5.440003,1.6 -6.399997,1.76 -5.92,1.28 -5.760001,0.96 -5.6,0.64 -5.44,0.16001 H 3.2 l -5.28,-0.48001 -5.28,-0.79999 -4.96,-1.28002 -5.120001,-1.43998 -4.959999,-1.92 L -27.200001,-202.08 -32,-204.8 l -4.959999,-3.2 -4.799999,-3.67999 -4.960003,-4.16001 -3.520001,-3.19999 -2.879997,-2.72 -5.600002,-5.92 -5.440003,-5.92002 -4.799995,-5.27999 -3.840004,-4 -3.360001,-3.2 -2.719993,-2.4 -2.560005,-1.76 -2.239998,-1.12 -1.919998,-0.64 -1.919999,-0.16 -1.760002,0.32 -1.599998,0.80001 -0.32,0.31999 -1.440002,1.11999 -1.440003,1.76001 -1.279999,2.23999 -1.440002,2.72001 -1.439995,3.20001 -1.279999,3.83999 -1.440003,4.32 -1.44,4.8 -1.44,5.75999 -1.6,6.24001 -1.6,7.36 -1.6,8.32001 -1.92,9.75999 -2.24,12.31999 -0.48,2.40001"
       style="fill:none;stroke:#000000;stroke-width:26.4;stroke-linecap:round;stroke-linejoin:round;stroke-miterlimit:10;stroke-dasharray:none;stroke-opacity:1"
       transform="translate(139.02668,271.35997)"
       clip-path="url(#clipPath6)" />
  </g>
</svg>
