<?xml version="1.0" encoding="UTF-8" standalone="no"?>
<!-- Created with Inkscape (http://www.inkscape.org/) -->

<svg
   version="1.1"
   id="svg1"
   width="268.14667"
   height="352.38666"
   viewBox="0 0 268.14667 352.38666"
   sodipodi:docname="Filtration8.pdf"
   xmlns:inkscape="http://www.inkscape.org/namespaces/inkscape"
   xmlns:sodipodi="http://sodipodi.sourceforge.net/DTD/sodipodi-0.dtd"
   xmlns="http://www.w3.org/2000/svg"
   xmlns:svg="http://www.w3.org/2000/svg">
  <defs
     id="defs1">
    <clipPath
       clipPathUnits="userSpaceOnUse"
       id="clipPath2">
      <path
         d="M 0,0.16 V 1122.5601 H 793.59998 V 0.16 Z"
         transform="translate(-323.51999,-576)"
         clip-rule="evenodd"
         id="path2" />
    </clipPath>
    <clipPath
       clipPathUnits="userSpaceOnUse"
       id="clipPath4">
      <path
         d="M 0,0.16 V 1122.5601 H 793.59998 V 0.16 Z"
         clip-rule="evenodd"
         id="path4" />
    </clipPath>
    <clipPath
       clipPathUnits="userSpaceOnUse"
       id="clipPath6">
      <path
         d="M 0,0.16 V 1122.5601 H 793.59998 V 0.16 Z"
         clip-rule="evenodd"
         id="path6" />
    </clipPath>
    <clipPath
       clipPathUnits="userSpaceOnUse"
       id="clipPath8">
      <path
         d="M 0,0.16 V 1122.5601 H 793.59998 V 0.16 Z"
         transform="translate(-282.56,-543.20001)"
         clip-rule="evenodd"
         id="path8" />
    </clipPath>
    <clipPath
       clipPathUnits="userSpaceOnUse"
       id="clipPath10">
      <path
         d="M 0,0.16 V 1122.5601 H 793.59998 V 0.16 Z"
         transform="translate(-359.04001,-674.56)"
         clip-rule="evenodd"
         id="path10" />
    </clipPath>
    <clipPath
       clipPathUnits="userSpaceOnUse"
       id="clipPath12">
      <path
         d="M 0,0.16 V 1122.5601 H 793.59998 V 0.16 Z"
         clip-rule="evenodd"
         id="path12" />
    </clipPath>
  </defs>
  <sodipodi:namedview
     id="namedview1"
     pagecolor="#505050"
     bordercolor="#eeeeee"
     borderopacity="1"
     inkscape:showpageshadow="0"
     inkscape:pageopacity="0"
     inkscape:pagecheckerboard="0"
     inkscape:deskcolor="#505050">
    <inkscape:page
       x="0"
       y="0"
       inkscape:label="1"
       id="page1"
       width="268.14667"
       height="352.38666"
       margin="0"
       bleed="0" />
  </sodipodi:namedview>
  <g
     id="g1"
     inkscape:groupmode="layer"
     inkscape:label="1">
    <path
       id="path1"
       d="m 0,0 -1.12,5.12 -0.64,5.44 -0.32,5.28 v 5.440001 l 0.32,5.279998 0.8,5.440001 1.12,5.119999 1.6,5.280003 1.92,4.959999 2.24,4.959999 2.56,4.639999 2.88,4.48 3.36,4.320003 3.52,4 3.68,3.839996 4.16,3.520005 L 30.4,80.32 34.880001,83.199997 39.68,85.760002 44.48,88 49.599998,89.919998 54.720001,91.360001 60,92.639999 l 5.279999,0.64 5.440002,0.480003 H 76 l 5.440002,-0.480003 5.279999,-0.64 L 92,91.360001 97.120003,89.919998 102.08,88 l 4.96,-2.239998 4.8,-2.560005 4.48,-2.879997 4.32,-3.199997 4,-3.520005 3.84,-3.839996 3.52,-4 3.2,-4.320003 3.04,-4.48 2.56,-4.639999 2.23999,-4.959999 1.92002,-4.959999 1.43998,-5.280003 L 147.52,32 148.32001,26.559999 148.8,21.280001 V 15.84 L 148.48,10.56 147.67999,5.12 146.56,0"
       style="fill:none;stroke:#000000;stroke-width:26.4;stroke-linecap:round;stroke-linejoin:round;stroke-miterlimit:10;stroke-dasharray:none;stroke-opacity:1"
       transform="translate(323.51999,582.67994)"
       clip-path="url(#clipPath2)" />
    <path
       id="path3"
       d="M 322.72,576.79999 434.56,405.44"
       style="fill:none;stroke:#000000;stroke-width:26.4;stroke-linecap:round;stroke-linejoin:round;stroke-miterlimit:10;stroke-dasharray:none;stroke-opacity:1"
       transform="translate(0,6.6799413)"
       clip-path="url(#clipPath4)" />
    <path
       id="path5"
       d="m 469.76001,576 -110.72,-170.56"
       style="fill:none;stroke:#000000;stroke-width:26.4;stroke-linecap:round;stroke-linejoin:round;stroke-miterlimit:10;stroke-dasharray:none;stroke-opacity:1"
       transform="translate(0,6.6799413)"
       clip-path="url(#clipPath6)" />
    <path
       id="path7"
       d="m 0,0 5.28,6.08 5.6,5.76 6.079999,5.440001 L 23.200001,22.4 29.76,27.200001 36.48,31.52 l 7.04,4 7.200001,3.680001 7.360001,3.200001 7.519996,2.879997 7.680001,2.400001 7.840004,1.919998 8,1.600003 8,0.959999 7.999997,0.799999 8.16,0.16 8,-0.16 8,-0.799999 8,-0.959999 8,-1.600003 L 153.11999,47.68 160.8,45.279999 168.32001,42.400002 175.84,39.200001 183.03999,35.52 189.92,31.52 196.8,27.200001 203.2,22.4 209.60001,17.280001 215.52,11.84 221.11999,6.08 226.56,0"
       style="fill:none;stroke:#000000;stroke-width:26.4;stroke-linecap:round;stroke-linejoin:round;stroke-miterlimit:10;stroke-dasharray:none;stroke-opacity:1"
       transform="translate(282.56,549.87995)"
       clip-path="url(#clipPath8)" />
    <path
       id="path9"
       d="M 0,0 0.16,3.52 0.64,6.88 1.44,10.4 2.56,13.6 4,16.799999 5.76,19.84 7.68,22.719999 9.92,25.440001 12.32,28 l 2.72,2.08 2.88,2.08 3.039999,1.599998 3.200001,1.440003 3.36,1.119999 3.359999,0.799999 3.360003,0.479999 3.519996,0.16 3.520001,-0.16 3.52,-0.479999 L 48.16,36.32 l 3.200001,-1.119999 3.2,-1.440003 L 57.599998,32.16 60.48,30.08 63.200001,28 65.760002,25.440001 68,22.719999 69.919998,19.84 71.519997,16.799999 72.959999,13.6 74.080002,10.4 74.879997,6.88 75.360001,3.52 75.519997,0"
       style="fill:none;stroke:#000000;stroke-width:26.4;stroke-linecap:round;stroke-linejoin:round;stroke-miterlimit:10;stroke-dasharray:none;stroke-opacity:1"
       transform="translate(359.04001,681.23994)"
       clip-path="url(#clipPath10)" />
    <path
       id="path11"
       d="M 429.76001,509.60001 467.51999,471.84"
       style="fill:none;stroke:#000000;stroke-width:26.4;stroke-linecap:round;stroke-linejoin:round;stroke-miterlimit:10;stroke-dasharray:none;stroke-opacity:1"
       transform="translate(0,6.6799413)"
       clip-path="url(#clipPath12)" />
  </g>
</svg>
