<?xml version="1.0" encoding="UTF-8" standalone="no"?>
<!-- Created with Inkscape (http://www.inkscape.org/) -->

<svg
   version="1.1"
   id="svg1"
   width="324.17334"
   height="319.01334"
   viewBox="0 0 324.17334 319.01334"
   sodipodi:docname="Filtration5.pdf"
   xmlns:inkscape="http://www.inkscape.org/namespaces/inkscape"
   xmlns:sodipodi="http://sodipodi.sourceforge.net/DTD/sodipodi-0.dtd"
   xmlns="http://www.w3.org/2000/svg"
   xmlns:svg="http://www.w3.org/2000/svg">
  <defs
     id="defs1">
    <clipPath
       clipPathUnits="userSpaceOnUse"
       id="clipPath2">
      <path
         d="M 0,0.16 V 1122.5601 H 793.59998 V 0.16 Z"
         transform="translate(-536.79998,-496.79999)"
         clip-rule="evenodd"
         id="path2" />
    </clipPath>
    <clipPath
       clipPathUnits="userSpaceOnUse"
       id="clipPath4">
      <path
         d="M 0,0.16 V 1122.5601 H 793.59998 V 0.16 Z"
         transform="translate(-363.67999,-647.84002)"
         clip-rule="evenodd"
         id="path4" />
    </clipPath>
    <clipPath
       clipPathUnits="userSpaceOnUse"
       id="clipPath6">
      <path
         d="M 0,0.16 V 1122.5601 H 793.59998 V 0.16 Z"
         transform="translate(-3.3333333e-6)"
         clip-rule="evenodd"
         id="path6" />
    </clipPath>
    <clipPath
       clipPathUnits="userSpaceOnUse"
       id="clipPath8">
      <path
         d="M 0,0.16 V 1122.5601 H 793.59998 V 0.16 Z"
         transform="translate(-3.3333333e-6)"
         clip-rule="evenodd"
         id="path8" />
    </clipPath>
    <clipPath
       clipPathUnits="userSpaceOnUse"
       id="clipPath10">
      <path
         d="M 0,0.16 V 1122.5601 H 793.59998 V 0.16 Z"
         transform="translate(-474.55999,-496.79999)"
         clip-rule="evenodd"
         id="path10" />
    </clipPath>
    <clipPath
       clipPathUnits="userSpaceOnUse"
       id="clipPath12">
      <path
         d="M 0,0.16 V 1122.5601 H 793.59998 V 0.16 Z"
         transform="translate(-474.55999,-496.79999)"
         clip-rule="evenodd"
         id="path12" />
    </clipPath>
  </defs>
  <sodipodi:namedview
     id="namedview1"
     pagecolor="#505050"
     bordercolor="#eeeeee"
     borderopacity="1"
     inkscape:showpageshadow="0"
     inkscape:pageopacity="0"
     inkscape:pagecheckerboard="0"
     inkscape:deskcolor="#505050">
    <inkscape:page
       x="0"
       y="0"
       inkscape:label="1"
       id="page1"
       width="324.17334"
       height="319.01334"
       margin="0"
       bleed="0" />
  </sodipodi:namedview>
  <g
     id="g1"
     inkscape:groupmode="layer"
     inkscape:label="1">
    <path
       id="path1"
       d="m 0,0 c 0,-41.700001 -33.810001,-75.519997 -75.519997,-75.519997 -41.710003,0 -75.519993,33.819996 -75.519993,75.519997 0,41.700001 33.80999,75.519997 75.519993,75.519997 C -33.810001,75.519997 0,41.700001 0,0 Z"
       style="fill:none;stroke:#000000;stroke-width:26.4;stroke-linecap:round;stroke-linejoin:round;stroke-miterlimit:10;stroke-dasharray:none;stroke-opacity:1"
       transform="translate(300.66665,95.026596)"
       clip-path="url(#clipPath2)" />
    <path
       id="path3"
       d="M 0,0 C 0,-29.51 -23.92,-53.439999 -53.439999,-53.439999 -82.959999,-53.439999 -106.88,-29.51 -106.88,0 c 0,29.51 23.920001,53.439999 53.440001,53.439999 C -23.92,53.439999 0,29.51 0,0 Z"
       style="fill:none;stroke:#000000;stroke-width:26.4;stroke-linecap:round;stroke-linejoin:round;stroke-miterlimit:10;stroke-dasharray:none;stroke-opacity:1"
       transform="translate(127.54666,246.06663)"
       clip-path="url(#clipPath4)" />
    <path
       id="path5"
       d="M 348,685.59998 524.96002,540.32001"
       style="fill:none;stroke:#000000;stroke-width:26.4;stroke-linecap:round;stroke-linejoin:round;stroke-miterlimit:10;stroke-dasharray:none;stroke-opacity:1"
       transform="translate(-236.13333,-401.77339)"
       clip-path="url(#clipPath6)" />
    <path
       id="path7"
       d="M 391.35999,468.79999 272.48001,610.08002"
       style="fill:none;stroke:#000000;stroke-width:26.4;stroke-linecap:round;stroke-linejoin:round;stroke-miterlimit:10;stroke-dasharray:none;stroke-opacity:1"
       transform="translate(-236.13333,-401.77339)"
       clip-path="url(#clipPath8)" />
    <path
       id="path9"
       d="m 0,0 -0.16,-1.76 -0.32,-1.6 -0.64,-1.6 -0.64,-1.6 -0.96,-1.44 -1.12,-1.28 -1.44,-1.12 -1.44,-0.96 -1.44,-0.8 -1.6,-0.64 -1.76,-0.32 h -1.76 -1.76 l -1.599999,0.32 -1.600001,0.64 -1.6,0.8 -1.440001,0.96 -1.279998,1.12 L -23.68,-8 l -0.959999,1.44 -0.800002,1.6 -0.639999,1.6 -0.32,1.6 V 0 1.76 l 0.32,1.76 0.639999,1.6 0.800002,1.6 0.959999,1.44 1.120001,1.28 1.279998,1.12 1.440001,0.96 1.6,0.8 1.600001,0.48 1.599999,0.32 1.76,0.16 1.76,-0.16 1.76,-0.32 1.6,-0.48 1.44,-0.8 1.44,-0.96 1.44,-1.12 1.12,-1.28 0.96,-1.44 0.64,-1.6 0.64,-1.6 L -0.16,1.76 0,0 v 0 z"
       style="fill:#000000;fill-opacity:1;fill-rule:evenodd;stroke:none"
       transform="translate(238.42666,95.026596)"
       clip-path="url(#clipPath10)" />
    <path
       id="path11"
       d="m 0,0 -0.16,-1.76 -0.32,-1.6 -0.64,-1.6 -0.64,-1.6 -0.96,-1.44 -1.12,-1.28 -1.44,-1.12 -1.44,-0.96 -1.44,-0.8 -1.6,-0.64 -1.76,-0.32 h -1.76 -1.76 l -1.599999,0.32 -1.600001,0.64 -1.6,0.8 -1.440001,0.96 -1.279998,1.12 L -23.68,-8 l -0.959999,1.44 -0.800002,1.6 -0.639999,1.6 -0.32,1.6 V 0 1.76 l 0.32,1.76 0.639999,1.6 0.800002,1.6 0.959999,1.44 1.120001,1.28 1.279998,1.12 1.440001,0.96 1.6,0.8 1.600001,0.48 1.599999,0.32 1.76,0.16 1.76,-0.16 1.76,-0.32 1.6,-0.48 1.44,-0.8 1.44,-0.96 1.44,-1.12 1.12,-1.28 0.96,-1.44 0.64,-1.6 0.64,-1.6 L -0.16,1.76 0,0"
       style="fill:none;stroke:#000000;stroke-width:0.64;stroke-linecap:round;stroke-linejoin:round;stroke-miterlimit:10;stroke-dasharray:none;stroke-opacity:1"
       transform="translate(238.42666,95.026596)"
       clip-path="url(#clipPath12)" />
  </g>
</svg>
