<?xml version="1.0" encoding="UTF-8" standalone="no"?>
<!-- Created with Inkscape (http://www.inkscape.org/) -->

<svg
   version="1.1"
   id="svg1"
   width="402.88"
   height="369.73334"
   viewBox="0 0 402.88 369.73334"
   sodipodi:docname="Filtration14.pdf"
   xmlns:inkscape="http://www.inkscape.org/namespaces/inkscape"
   xmlns:sodipodi="http://sodipodi.sourceforge.net/DTD/sodipodi-0.dtd"
   xmlns="http://www.w3.org/2000/svg"
   xmlns:svg="http://www.w3.org/2000/svg">
  <defs
     id="defs1">
    <clipPath
       clipPathUnits="userSpaceOnUse"
       id="clipPath2">
      <path
         d="M 0,0.16 V 1122.5601 H 793.59998 V 0.16 Z"
         transform="translate(-577.59998,-436.64001)"
         clip-rule="evenodd"
         id="path2" />
    </clipPath>
    <clipPath
       clipPathUnits="userSpaceOnUse"
       id="clipPath4">
      <path
         d="M 0,0.16 V 1122.5601 H 793.59998 V 0.16 Z"
         transform="translate(-216,-675.35998)"
         clip-rule="evenodd"
         id="path4" />
    </clipPath>
    <clipPath
       clipPathUnits="userSpaceOnUse"
       id="clipPath6">
      <path
         d="M 0,0.16 V 1122.5601 H 793.59998 V 0.16 Z"
         clip-rule="evenodd"
         id="path6" />
    </clipPath>
    <clipPath
       clipPathUnits="userSpaceOnUse"
       id="clipPath8">
      <path
         d="M 0,0.16 V 1122.5601 H 793.59998 V 0.16 Z"
         clip-rule="evenodd"
         id="path8" />
    </clipPath>
    <clipPath
       clipPathUnits="userSpaceOnUse"
       id="clipPath10">
      <path
         d="M 0,0.16 V 1122.5601 H 793.59998 V 0.16 Z"
         clip-rule="evenodd"
         id="path10" />
    </clipPath>
    <clipPath
       clipPathUnits="userSpaceOnUse"
       id="clipPath12">
      <path
         d="M 0,0.16 V 1122.5601 H 793.59998 V 0.16 Z"
         transform="translate(-415.67999,-696.79999)"
         clip-rule="evenodd"
         id="path12" />
    </clipPath>
  </defs>
  <sodipodi:namedview
     id="namedview1"
     pagecolor="#505050"
     bordercolor="#eeeeee"
     borderopacity="1"
     inkscape:showpageshadow="0"
     inkscape:pageopacity="0"
     inkscape:pagecheckerboard="0"
     inkscape:deskcolor="#505050">
    <inkscape:page
       x="0"
       y="0"
       inkscape:label="1"
       id="page1"
       width="402.88"
       height="369.73334"
       margin="0"
       bleed="0" />
  </sodipodi:namedview>
  <g
     id="g1"
     inkscape:groupmode="layer"
     inkscape:label="1">
    <path
       id="path1"
       d="m 0,0 -2.72,-4.64 -3.04,-4.32 -3.36,-4.16 -3.52,-3.839999 -3.999999,-3.68 -4.16,-3.360001 -4.320002,-3.040001 L -29.6,-29.76 l -4.800002,-2.4 -4.959999,-2.080002 L -44.32,-36 -49.599998,-37.279999 -54.720001,-38.240002 -60,-38.880001 l -5.440002,-0.32 -5.279999,0.16 -5.279999,0.639999 -5.279999,0.800004 -5.120003,1.279998 -5.119995,1.599999 -4.960006,2.080002 L -101.28,-30.4 l -4.64,2.72 -4.32,2.880001 -4.16,3.359998 -4,3.520001 -3.68,3.84 -3.52,4 -3.04,4.32 -2.88,4.64 -2.4,4.64 -2.08,4.96 -1.92,4.96"
       style="fill:none;stroke:#000000;stroke-width:26.4;stroke-linecap:round;stroke-linejoin:round;stroke-miterlimit:10;stroke-dasharray:none;stroke-opacity:1"
       transform="translate(577.59998,439.30662)"
       clip-path="url(#clipPath2)" />
    <path
       id="path3"
       d="M 0,0 3.52,4.64 7.36,9.12 11.52,13.28 16,16.959999 20.639999,20.48 25.6,23.68 30.719999,26.4 36.16,28.799999 l 5.439998,1.92 5.600003,1.600001 5.759998,1.119999 5.760002,0.800003 5.760002,0.319999 h 5.919999 L 76.160004,34.080002 81.919998,33.119999 87.68,31.68 93.279999,29.92 98.720001,27.84 104,25.280001 108.96,22.4 113.92,19.040001 118.4,15.52 l 4.32,-4 4,-4.16 3.67999,-4.64 3.52001,-4.64 2.88,-5.12 2.72,-5.12 2.23999,-5.44 1.92,-5.600001"
       style="fill:none;stroke:#000000;stroke-width:26.4;stroke-linecap:round;stroke-linejoin:round;stroke-miterlimit:10;stroke-dasharray:none;stroke-opacity:1"
       transform="translate(216,678.02659)"
       clip-path="url(#clipPath4)" />
    <path
       id="path5"
       d="M 444.32001,436.48001 356.79999,658.88"
       style="fill:none;stroke:#000000;stroke-width:26.4;stroke-linecap:round;stroke-linejoin:round;stroke-miterlimit:10;stroke-dasharray:none;stroke-opacity:1"
       transform="translate(0,2.666608)"
       clip-path="url(#clipPath6)" />
    <path
       id="path7"
       d="M 328.95999,553.76001 H 515.84003"
       style="fill:none;stroke:#000000;stroke-width:26.4;stroke-linecap:round;stroke-linejoin:round;stroke-miterlimit:10;stroke-dasharray:none;stroke-opacity:1"
       transform="translate(0,2.666608)"
       clip-path="url(#clipPath8)" />
    <path
       id="path9"
       d="m 515.84003,553.76001 -51.04004,50.88"
       style="fill:none;stroke:#000000;stroke-width:26.4;stroke-linecap:round;stroke-linejoin:round;stroke-miterlimit:10;stroke-dasharray:none;stroke-opacity:1"
       transform="translate(0,2.666608)"
       clip-path="url(#clipPath10)" />
    <path
       id="path11"
       d="m 0,0 2.56,3.84 2.88,3.68 3.2,3.52 3.36,3.2 3.68,2.880001 3.84,2.559999 4.16,2.24 4.16,1.92 4.32,1.600001 4.479999,1.279998 4.48,0.960001 4.639999,0.48 4.640004,0.16 L 55.040001,28 59.68,27.52 l 4.480004,-0.960001 4.479995,-1.279998 4.32,-1.760001 4.160004,-1.92 4,-2.399999 3.839996,-2.560002 3.520004,-3.039999 3.359993,-3.2 3.200005,-3.52 2.879997,-3.68 2.560002,-4 2.24,-4.16 1.92,-4.16 1.6,-4.48 1.12,-4.64 0.96,-4.639999 0.48,-4.640001 0.16,-4.64 -0.16,-4.799999 -0.64,-4.639999 -0.8,-4.640004 -1.28,-4.639999 -1.6,-4.32 -2.08,-4.319999 -2.24,-4.16 -2.560002,-3.839997 -2.879997,-3.68 -3.040001,-3.520004 -3.519996,-3.199997 -3.520005,-2.880005 -3.839996,-2.719994 -4.160004,-2.240005 L 72.480003,-87.68 68.160004,-89.279999 63.68,-90.559998 l -4.479999,-0.959999 -4.64,-0.640007 L 49.919998,-92.32"
       style="fill:none;stroke:#000000;stroke-width:26.4;stroke-linecap:round;stroke-linejoin:round;stroke-miterlimit:10;stroke-dasharray:none;stroke-opacity:1"
       transform="translate(415.67999,699.4666)"
       clip-path="url(#clipPath12)" />
  </g>
</svg>
