<?xml version="1.0" encoding="UTF-8" standalone="no"?>
<!-- Created with Inkscape (http://www.inkscape.org/) -->

<svg
   version="1.1"
   id="svg1"
   width="345.51999"
   height="294.98666"
   viewBox="0 0 345.51999 294.98666"
   sodipodi:docname="Filtration12.pdf"
   xmlns:inkscape="http://www.inkscape.org/namespaces/inkscape"
   xmlns:sodipodi="http://sodipodi.sourceforge.net/DTD/sodipodi-0.dtd"
   xmlns="http://www.w3.org/2000/svg"
   xmlns:svg="http://www.w3.org/2000/svg">
  <defs
     id="defs1">
    <clipPath
       clipPathUnits="userSpaceOnUse"
       id="clipPath2">
      <path
         d="M 0,0.16 V 1122.5601 H 793.59998 V 0.16 Z"
         transform="translate(3.3333333e-6)"
         clip-rule="evenodd"
         id="path2" />
    </clipPath>
    <clipPath
       clipPathUnits="userSpaceOnUse"
       id="clipPath4">
      <path
         d="M 0,0.16 V 1122.5601 H 793.59998 V 0.16 Z"
         transform="translate(-432.79999,-657.59997)"
         clip-rule="evenodd"
         id="path4" />
    </clipPath>
    <clipPath
       clipPathUnits="userSpaceOnUse"
       id="clipPath6">
      <path
         d="M 0,0.16 V 1122.5601 H 793.59998 V 0.16 Z"
         transform="translate(-467.04001,-651.84002)"
         clip-rule="evenodd"
         id="path6" />
    </clipPath>
  </defs>
  <sodipodi:namedview
     id="namedview1"
     pagecolor="#505050"
     bordercolor="#eeeeee"
     borderopacity="1"
     inkscape:showpageshadow="0"
     inkscape:pageopacity="0"
     inkscape:pagecheckerboard="0"
     inkscape:deskcolor="#505050">
    <inkscape:page
       x="0"
       y="0"
       inkscape:label="1"
       id="page1"
       width="345.51999"
       height="294.98666"
       margin="0"
       bleed="0" />
  </sodipodi:namedview>
  <g
     id="g1"
     inkscape:groupmode="layer"
     inkscape:label="1">
    <path
       id="path1"
       d="M 251.52,446.23999 H 432.79999 V 567.03998 H 251.52 V 446.23999"
       style="fill:none;stroke:#000000;stroke-width:26.4;stroke-linecap:round;stroke-linejoin:round;stroke-miterlimit:10;stroke-dasharray:none;stroke-opacity:1"
       transform="translate(-226.78667,-405.77339)"
       clip-path="url(#clipPath2)" />
    <path
       id="path3"
       d="m 0,0 3.68,3.52 4,3.04 4.16,2.88 4.32,2.4 4.639999,2.08 4.640002,1.76 L 30.4,16.959999 35.200001,18.08 40.32,18.559999 l 4.959999,0.32 4.960003,-0.32 L 55.360001,18.08 60.32,16.959999 65.120003,15.68 l 4.639999,-1.76 4.64,-2.08 4.319999,-2.4 4.159996,-2.88 4,-3.04 3.680001,-3.52 3.520004,-3.68 3.040001,-4 2.719993,-4.16 2.560004,-4.32 2.08,-4.639999 1.76,-4.640002 1.28,-4.799999 1.12,-4.960001 0.48,-5.119999 0.32,-4.959999 -0.32,-4.960003 -0.48,-5.119999 -1.12,-4.799999 -1.28,-4.960003 -1.76,-4.639999 -2.08,-4.64 -2.560004,-4.319999 -2.719993,-4.159996 -3.040001,-4 -3.520004,-3.680001 -3.680001,-3.36 -4,-3.200005 -4.159996,-2.719993 -4.319999,-2.560004 -4.64,-2.08 -4.639999,-1.76 -4.800003,-1.28 -4.959999,-0.96 -5.119999,-0.64 -4.960003,-0.16 -4.959999,0.16 -5.119999,0.64 -4.800001,0.96 -4.959999,1.28 -4.640002,1.76 -4.639999,2.08 -4.32,2.560004 -4.16,2.719993 -4,3.200005 -3.68,3.36"
       style="fill:none;stroke:#000000;stroke-width:26.4;stroke-linecap:round;stroke-linejoin:round;stroke-miterlimit:10;stroke-dasharray:none;stroke-opacity:1"
       transform="translate(206.01332,251.82658)"
       clip-path="url(#clipPath4)" />
    <path
       id="path5"
       d="m 0,0 0.96,-2.24 0.64,-2.24 0.48,-2.4 0.16,-2.4 -0.16,-2.4 -0.48,-2.24 -0.64,-2.4 -0.8,-2.239999 -1.28,-2.08 -1.28,-1.92 L -4,-24.32 -5.76,-25.92 -7.68,-27.360001 -9.92,-28.48 -12,-29.440001 -14.4,-30.08 l -2.399999,-0.479999 -2.240002,-0.16 -2.4,0.16 L -23.84,-30.08 l -2.4,0.639999 -2.08,0.800002 -2.239999,1.279998 L -32.48,-26.08 l -1.760002,1.6 -1.599998,1.760001 -1.439999,2.08 -1.120003,2.08 L -39.360001,-16.32 -40,-14.08 l -0.32,2.4 -0.16,2.4 0.16,2.4 0.32,2.24 0.639999,2.4 0.959999,2.24 1.120003,2.08 L -35.84,4 l 1.599998,1.76"
       style="fill:none;stroke:#000000;stroke-width:26.4;stroke-linecap:round;stroke-linejoin:round;stroke-miterlimit:10;stroke-dasharray:none;stroke-opacity:1"
       transform="translate(240.25334,246.06663)"
       clip-path="url(#clipPath6)" />
  </g>
</svg>
