<?xml version="1.0" encoding="UTF-8" standalone="no"?>
<!-- Created with Inkscape (http://www.inkscape.org/) -->

<svg
   version="1.1"
   id="svg1"
   width="324.17334"
   height="192.21333"
   viewBox="0 0 324.17334 192.21333"
   sodipodi:docname="Fixation9.pdf"
   xmlns:inkscape="http://www.inkscape.org/namespaces/inkscape"
   xmlns:sodipodi="http://sodipodi.sourceforge.net/DTD/sodipodi-0.dtd"
   xmlns="http://www.w3.org/2000/svg"
   xmlns:svg="http://www.w3.org/2000/svg">
  <defs
     id="defs1">
    <clipPath
       clipPathUnits="userSpaceOnUse"
       id="clipPath2">
      <path
         d="M 26.4,26.559999 V 1096.16 H 767.03998 V 26.559999 Z"
         transform="translate(-340.16,-500)"
         clip-rule="evenodd"
         id="path2" />
    </clipPath>
    <clipPath
       clipPathUnits="userSpaceOnUse"
       id="clipPath4">
      <path
         d="M 26.4,26.559999 V 1096.16 H 767.03998 V 26.559999 Z"
         transform="translate(-3.3333333e-6)"
         clip-rule="evenodd"
         id="path4" />
    </clipPath>
    <clipPath
       clipPathUnits="userSpaceOnUse"
       id="clipPath6">
      <path
         d="M 26.4,26.559999 V 1096.16 H 767.03998 V 26.559999 Z"
         transform="translate(-3.3333333e-6)"
         clip-rule="evenodd"
         id="path6" />
    </clipPath>
    <clipPath
       clipPathUnits="userSpaceOnUse"
       id="clipPath8">
      <path
         d="M 26.4,26.559999 V 1096.16 H 767.03998 V 26.559999 Z"
         transform="translate(-340.16,-566.08002)"
         clip-rule="evenodd"
         id="path8" />
    </clipPath>
    <clipPath
       clipPathUnits="userSpaceOnUse"
       id="clipPath10">
      <path
         d="M 26.4,26.559999 V 1096.16 H 767.03998 V 26.559999 Z"
         transform="translate(-3.3333333e-6)"
         clip-rule="evenodd"
         id="path10" />
    </clipPath>
    <clipPath
       clipPathUnits="userSpaceOnUse"
       id="clipPath12">
      <path
         d="M 26.4,26.559999 V 1096.16 H 767.03998 V 26.559999 Z"
         transform="translate(-3.3333333e-6)"
         clip-rule="evenodd"
         id="path12" />
    </clipPath>
  </defs>
  <sodipodi:namedview
     id="namedview1"
     pagecolor="#505050"
     bordercolor="#eeeeee"
     borderopacity="1"
     inkscape:showpageshadow="0"
     inkscape:pageopacity="0"
     inkscape:pagecheckerboard="0"
     inkscape:deskcolor="#505050">
    <inkscape:page
       x="0"
       y="0"
       inkscape:label="1"
       id="page1"
       width="324.17334"
       height="192.21333"
       margin="0"
       bleed="0" />
  </sodipodi:namedview>
  <g
     id="g1"
     inkscape:groupmode="layer"
     inkscape:label="1">
    <path
       id="path1"
       d="M 0,0 0.16,4.48 0.64,8.8 1.6,13.28 2.72,17.440001 4.32,21.6 l 1.92,4.16 2.08,3.84 2.56,3.679999 2.72,3.52 L 16.639999,40 19.84,43.040001 l 3.520001,2.719997 3.68,2.560002 3.839998,2.080002 4.000002,1.919998 4.32,1.599998 4.16,1.120003 L 47.84,56 l 4.32,0.48 4.479999,0.159999 4.48,-0.159999 L 65.440002,56 69.919998,55.040001 74.080002,53.919998 78.239998,52.32 82.400002,50.400002 86.239998,48.32 l 3.68,-2.560002 3.520004,-2.719997 L 96.639999,40 99.68,36.799999 l 2.72,-3.52 2.56,-3.679999 2.08,-3.84 1.92,-4.16 1.6,-4.159999 L 111.68,13.28 112.64,8.8 113.12,4.48 113.28,0"
       style="fill:none;stroke:#000000;stroke-width:26.4;stroke-linecap:round;stroke-linejoin:round;stroke-miterlimit:10;stroke-dasharray:none;stroke-opacity:1"
       transform="translate(104.02667,43.506608)"
       clip-path="url(#clipPath2)" />
    <path
       id="path3"
       d="M 264.64001,500 H 340.16"
       style="fill:none;stroke:#000000;stroke-width:26.4;stroke-linecap:round;stroke-linejoin:round;stroke-miterlimit:10;stroke-dasharray:none;stroke-opacity:1"
       transform="translate(-236.13333,-456.49339)"
       clip-path="url(#clipPath4)" />
    <path
       id="path5"
       d="m 453.44,500 h 75.52002"
       style="fill:none;stroke:#000000;stroke-width:26.4;stroke-linecap:round;stroke-linejoin:round;stroke-miterlimit:10;stroke-dasharray:none;stroke-opacity:1"
       transform="translate(-236.13333,-456.49339)"
       clip-path="url(#clipPath6)" />
    <path
       id="path7"
       d="M 0,0 0.16,4.48 0.64,8.8 1.6,13.28 2.72,17.440001 4.32,21.6 l 1.92,4.16 2.08,3.84 2.56,3.679999 2.72,3.52 L 16.639999,40 19.84,43.040001 l 3.520001,2.719997 3.68,2.560002 3.839998,2.080002 4.000002,1.919998 4.32,1.599998 4.16,1.120003 L 47.84,56 l 4.32,0.48 4.479999,0.159999 4.48,-0.159999 L 65.440002,56 69.919998,55.040001 74.080002,53.919998 78.239998,52.32 82.400002,50.400002 86.239998,48.32 l 3.68,-2.560002 3.520004,-2.719997 L 96.639999,40 99.68,36.799999 l 2.72,-3.52 2.56,-3.679999 2.08,-3.84 1.92,-4.16 1.6,-4.159999 L 111.68,13.28 112.64,8.8 113.12,4.48 113.28,0"
       style="fill:none;stroke:#000000;stroke-width:26.4;stroke-linecap:round;stroke-linejoin:round;stroke-miterlimit:10;stroke-dasharray:none;stroke-opacity:1"
       transform="translate(104.02667,109.58663)"
       clip-path="url(#clipPath8)" />
    <path
       id="path9"
       d="M 264.64001,566.08002 H 340.16"
       style="fill:none;stroke:#000000;stroke-width:26.4;stroke-linecap:round;stroke-linejoin:round;stroke-miterlimit:10;stroke-dasharray:none;stroke-opacity:1"
       transform="translate(-236.13333,-456.49339)"
       clip-path="url(#clipPath10)" />
    <path
       id="path11"
       d="m 453.44,566.08002 h 75.52002"
       style="fill:none;stroke:#000000;stroke-width:26.4;stroke-linecap:round;stroke-linejoin:round;stroke-miterlimit:10;stroke-dasharray:none;stroke-opacity:1"
       transform="translate(-236.13333,-456.49339)"
       clip-path="url(#clipPath12)" />
  </g>
</svg>
