<?xml version="1.0" encoding="UTF-8" standalone="no"?>
<!-- Created with Inkscape (http://www.inkscape.org/) -->

<svg
   version="1.1"
   id="svg1"
   width="277.49332"
   height="277.62668"
   viewBox="0 0 277.49332 277.62668"
   sodipodi:docname="Fixation13.pdf"
   xmlns:inkscape="http://www.inkscape.org/namespaces/inkscape"
   xmlns:sodipodi="http://sodipodi.sourceforge.net/DTD/sodipodi-0.dtd"
   xmlns="http://www.w3.org/2000/svg"
   xmlns:svg="http://www.w3.org/2000/svg">
  <defs
     id="defs1">
    <clipPath
       clipPathUnits="userSpaceOnUse"
       id="clipPath2">
      <path
         d="M 26.4,26.559999 V 1096.16 H 767.03998 V 26.559999 Z"
         transform="translate(-283.51999,-448.16)"
         clip-rule="evenodd"
         id="path2" />
    </clipPath>
    <clipPath
       clipPathUnits="userSpaceOnUse"
       id="clipPath4">
      <path
         d="M 26.4,26.559999 V 1096.16 H 767.03998 V 26.559999 Z"
         transform="translate(-3.3333333e-6)"
         clip-rule="evenodd"
         id="path4" />
    </clipPath>
    <clipPath
       clipPathUnits="userSpaceOnUse"
       id="clipPath6">
      <path
         d="M 26.4,26.559999 V 1096.16 H 767.03998 V 26.559999 Z"
         transform="translate(-3.3333333e-6)"
         clip-rule="evenodd"
         id="path6" />
    </clipPath>
    <clipPath
       clipPathUnits="userSpaceOnUse"
       id="clipPath8">
      <path
         d="M 26.4,26.559999 V 1096.16 H 767.03998 V 26.559999 Z"
         transform="translate(-3.3333333e-6)"
         clip-rule="evenodd"
         id="path8" />
    </clipPath>
    <clipPath
       clipPathUnits="userSpaceOnUse"
       id="clipPath10">
      <path
         d="M 26.4,26.559999 V 1096.16 H 767.03998 V 26.559999 Z"
         transform="translate(-3.3333333e-6)"
         clip-rule="evenodd"
         id="path10" />
    </clipPath>
  </defs>
  <sodipodi:namedview
     id="namedview1"
     pagecolor="#505050"
     bordercolor="#eeeeee"
     borderopacity="1"
     inkscape:showpageshadow="0"
     inkscape:pageopacity="0"
     inkscape:pagecheckerboard="0"
     inkscape:deskcolor="#505050">
    <inkscape:page
       x="0"
       y="0"
       inkscape:label="1"
       id="page1"
       width="277.49332"
       height="277.62668"
       margin="0"
       bleed="0" />
  </sodipodi:namedview>
  <g
     id="g1"
     inkscape:groupmode="layer"
     inkscape:label="1">
    <path
       id="path1"
       d="m 0,0 0.16,6.72 0.64,6.88 1.12,6.72 1.44,6.720001 1.76,6.559997 2.24,6.560002 2.56,6.240002 3.04,6.239997 3.36,5.920002 L 20,64.32 24.16,69.760002 28.48,75.040001 33.119999,80 l 5.120003,4.639999 5.119999,4.480004 5.599998,4 5.760002,3.68 5.919998,3.359997 6.080002,3.04 6.400002,2.56 6.399994,2.24 6.720001,1.92 6.560005,1.44 6.879997,0.96 6.72,0.64 6.88,0.16 6.88,-0.16 6.72,-0.64 6.87999,-0.96 6.56002,-1.44 6.71998,-1.92 6.40001,-2.24 6.4,-2.56 6.08,-3.04 5.92,-3.359997 5.76001,-3.68 5.59999,-4 5.12001,-4.480004 L 193.44,80 198.08,75.040001 202.39999,69.760002 206.56,64.32 l 3.68,-5.759999 3.36001,-5.920002 3.03999,-6.239997 2.56,-6.240002 2.24,-6.560002 1.76,-6.559997 1.44,-6.720001 1.11999,-6.72 0.64,-6.88 L 226.56,0"
       style="fill:none;stroke:#000000;stroke-width:26.4;stroke-linecap:round;stroke-linejoin:round;stroke-miterlimit:10;stroke-dasharray:none;stroke-opacity:1"
       transform="translate(27.386656,37.039945)"
       clip-path="url(#clipPath2)" />
    <path
       id="path3"
       d="M 396.79999,561.28003 V 674.56"
       style="fill:none;stroke:#000000;stroke-width:26.4;stroke-linecap:round;stroke-linejoin:round;stroke-miterlimit:10;stroke-dasharray:none;stroke-opacity:1"
       transform="translate(-256.13333,-411.12006)"
       clip-path="url(#clipPath4)" />
    <path
       id="path5"
       d="M 321.28,617.91998 H 472.32001"
       style="fill:none;stroke:#000000;stroke-width:26.4;stroke-linecap:round;stroke-linejoin:round;stroke-miterlimit:10;stroke-dasharray:none;stroke-opacity:1"
       transform="translate(-256.13333,-411.12006)"
       clip-path="url(#clipPath6)" />
    <path
       id="path7"
       d="m 340.16,448.16 56.63999,113.12003"
       style="fill:none;stroke:#000000;stroke-width:26.4;stroke-linecap:round;stroke-linejoin:round;stroke-miterlimit:10;stroke-dasharray:none;stroke-opacity:1"
       transform="translate(-256.13333,-411.12006)"
       clip-path="url(#clipPath8)" />
    <path
       id="path9"
       d="M 396.79999,561.28003 453.44,448.16"
       style="fill:none;stroke:#000000;stroke-width:26.4;stroke-linecap:round;stroke-linejoin:round;stroke-miterlimit:10;stroke-dasharray:none;stroke-opacity:1"
       transform="translate(-256.13333,-411.12006)"
       clip-path="url(#clipPath10)" />
  </g>
</svg>
