<?xml version="1.0" encoding="UTF-8" standalone="no"?>
<!-- Created with Inkscape (http://www.inkscape.org/) -->

<svg
   version="1.1"
   id="svg1"
   width="249.46667"
   height="198.88"
   viewBox="0 0 249.46667 198.88"
   sodipodi:docname="Flow3.pdf"
   xmlns:inkscape="http://www.inkscape.org/namespaces/inkscape"
   xmlns:sodipodi="http://sodipodi.sourceforge.net/DTD/sodipodi-0.dtd"
   xmlns="http://www.w3.org/2000/svg"
   xmlns:svg="http://www.w3.org/2000/svg">
  <defs
     id="defs1">
    <clipPath
       clipPathUnits="userSpaceOnUse"
       id="clipPath2">
      <path
         d="M 26.4,26.559999 V 1096.16 H 767.03998 V 26.559999 Z"
         transform="translate(-321.28,-561.28003)"
         clip-rule="evenodd"
         id="path2" />
    </clipPath>
    <clipPath
       clipPathUnits="userSpaceOnUse"
       id="clipPath4">
      <path
         d="M 26.4,26.559999 V 1096.16 H 767.03998 V 26.559999 Z"
         transform="translate(-396.79999,-561.28003)"
         clip-rule="evenodd"
         id="path4" />
    </clipPath>
    <clipPath
       clipPathUnits="userSpaceOnUse"
       id="clipPath6">
      <path
         d="M 26.4,26.559999 V 1096.16 H 767.03998 V 26.559999 Z"
         clip-rule="evenodd"
         id="path6" />
    </clipPath>
    <clipPath
       clipPathUnits="userSpaceOnUse"
       id="clipPath8">
      <path
         d="M 26.4,26.559999 V 1096.16 H 767.03998 V 26.559999 Z"
         clip-rule="evenodd"
         id="path8" />
    </clipPath>
  </defs>
  <sodipodi:namedview
     id="namedview1"
     pagecolor="#505050"
     bordercolor="#eeeeee"
     borderopacity="1"
     inkscape:showpageshadow="0"
     inkscape:pageopacity="0"
     inkscape:pagecheckerboard="0"
     inkscape:deskcolor="#505050">
    <inkscape:page
       x="0"
       y="0"
       inkscape:label="1"
       id="page1"
       width="249.46667"
       height="198.88"
       margin="0"
       bleed="0" />
  </sodipodi:namedview>
  <g
     id="g1"
     inkscape:groupmode="layer"
     inkscape:label="1">
    <path
       id="path1"
       d="M 0,0 0.16,3.52 0.64,7.04 1.44,10.4 2.56,13.76 4,16.959999 5.6,20 7.68,22.879999 9.92,25.440001 12.32,28 l 2.72,2.24 2.88,1.92 3.039999,1.759998 3.200001,1.440003 3.200001,0.959999 3.519998,0.799999 3.360003,0.479999 3.519996,0.16 3.520001,-0.16 3.36,-0.479999 L 48.16,36.32 l 3.200001,-0.959999 3.2,-1.440003 L 57.599998,32.16 60.48,30.24 63.200001,28 65.599998,25.440001 67.839996,22.879999 69.919998,20 71.519997,16.959999 72.959999,13.76 74.080002,10.4 74.879997,7.04 75.360001,3.52 75.519997,0"
       style="fill:none;stroke:#000000;stroke-width:26.4;stroke-linecap:round;stroke-linejoin:round;stroke-miterlimit:10;stroke-dasharray:none;stroke-opacity:1"
       transform="translate(21.119999,30.026637)"
       clip-path="url(#clipPath2)" />
    <path
       id="path3"
       d="M 0,0 0.16,3.52 0.64,7.04 1.44,10.4 2.56,13.76 4,16.959999 5.6,20 7.68,22.879999 9.92,25.440001 12.32,28 l 2.72,2.24 2.88,1.92 3.039999,1.759998 3.200001,1.440003 3.200001,0.959999 3.519998,0.799999 3.360003,0.479999 3.519996,0.16 3.520001,-0.16 3.36,-0.479999 L 48.16,36.32 l 3.200001,-0.959999 3.2,-1.440003 L 57.599998,32.16 60.48,30.24 63.200001,28 65.599998,25.440001 67.839996,22.879999 69.919998,20 71.519997,16.959999 72.959999,13.76 74.080002,10.4 74.879997,7.04 75.360001,3.52 75.519997,0"
       style="fill:none;stroke:#000000;stroke-width:26.4;stroke-linecap:round;stroke-linejoin:round;stroke-miterlimit:10;stroke-dasharray:none;stroke-opacity:1"
       transform="translate(96.639988,30.026637)"
       clip-path="url(#clipPath4)" />
    <path
       id="path5"
       d="M 472.32001,561.28003 V 712.32001"
       style="fill:none;stroke:#000000;stroke-width:26.4;stroke-linecap:round;stroke-linejoin:round;stroke-miterlimit:10;stroke-dasharray:none;stroke-opacity:1"
       transform="translate(-300.16,-531.25339)"
       clip-path="url(#clipPath6)" />
    <path
       id="path7"
       d="M 415.67999,655.67999 H 528.96002"
       style="fill:none;stroke:#000000;stroke-width:26.4;stroke-linecap:round;stroke-linejoin:round;stroke-miterlimit:10;stroke-dasharray:none;stroke-opacity:1"
       transform="translate(-300.16,-531.25339)"
       clip-path="url(#clipPath8)" />
  </g>
</svg>
