<?xml version="1.0" encoding="UTF-8" standalone="no"?>
<!-- Created with Inkscape (http://www.inkscape.org/) -->

<svg
   version="1.1"
   id="svg1"
   width="265.46667"
   height="158.84"
   viewBox="0 0 265.46667 158.84"
   sodipodi:docname="Flow2.pdf"
   xmlns:inkscape="http://www.inkscape.org/namespaces/inkscape"
   xmlns:sodipodi="http://sodipodi.sourceforge.net/DTD/sodipodi-0.dtd"
   xmlns="http://www.w3.org/2000/svg"
   xmlns:svg="http://www.w3.org/2000/svg">
  <defs
     id="defs1">
    <clipPath
       clipPathUnits="userSpaceOnUse"
       id="clipPath2">
      <path
         d="M 26.4,26.559999 V 1096.16 H 767.03998 V 26.559999 Z"
         transform="translate(-401.28,-561.76001)"
         clip-rule="evenodd"
         id="path2" />
    </clipPath>
    <clipPath
       clipPathUnits="userSpaceOnUse"
       id="clipPath4">
      <path
         d="M 26.4,26.559999 V 1096.16 H 767.03998 V 26.559999 Z"
         clip-rule="evenodd"
         id="path4" />
    </clipPath>
    <clipPath
       clipPathUnits="userSpaceOnUse"
       id="clipPath6">
      <path
         d="M 26.4,26.559999 V 1096.16 H 767.03998 V 26.559999 Z"
         transform="translate(-476.79999,-561.76001)"
         clip-rule="evenodd"
         id="path6" />
    </clipPath>
    <clipPath
       clipPathUnits="userSpaceOnUse"
       id="clipPath8">
      <path
         d="M 26.4,26.559999 V 1096.16 H 767.03998 V 26.559999 Z"
         transform="translate(-476.79999,-616)"
         clip-rule="evenodd"
         id="path8" />
    </clipPath>
  </defs>
  <sodipodi:namedview
     id="namedview1"
     pagecolor="#505050"
     bordercolor="#eeeeee"
     borderopacity="1"
     inkscape:showpageshadow="0"
     inkscape:pageopacity="0"
     inkscape:pagecheckerboard="0"
     inkscape:deskcolor="#505050">
    <inkscape:page
       x="0"
       y="0"
       inkscape:label="1"
       id="page1"
       width="265.46667"
       height="158.84"
       margin="0"
       bleed="0" />
  </sodipodi:namedview>
  <g
     id="g1"
     inkscape:groupmode="layer"
     inkscape:label="1">
    <path
       id="path1"
       d="M 0,0 C 0,-31.280001 -25.35,-56.639999 -56.639999,-56.639999 -87.93,-56.639999 -113.28,-31.280001 -113.28,0 c 0,31.280001 25.35,56.639999 56.640001,56.639999 C -25.35,56.639999 0,31.280001 0,0 Z"
       style="fill:none;stroke:#000000;stroke-width:26.4;stroke-linecap:round;stroke-linejoin:round;stroke-miterlimit:10;stroke-dasharray:none;stroke-opacity:1"
       transform="translate(401.28,569.77328)"
       clip-path="url(#clipPath2)" />
    <path
       id="path3"
       d="m 401.28,561.76001 h 75.51999"
       style="fill:none;stroke:#000000;stroke-width:26.4;stroke-linecap:round;stroke-linejoin:round;stroke-miterlimit:10;stroke-dasharray:none;stroke-opacity:1"
       transform="translate(0,8.0132747)"
       clip-path="url(#clipPath4)" />
    <path
       id="path5"
       d="m 0,0 3.04,-0.16 3.04,-0.48 2.88,-0.8 2.88,-1.12 2.72,-1.28 2.560001,-1.76 2.399999,-1.92 2.08,-2.24 1.92,-2.4 1.600001,-2.56 L 26.4,-17.440001 27.52,-20.32 l 0.8,-2.880001 0.319999,-3.039999 0.16,-3.040001 L 28.48,-32.32 28,-35.360001 27.200001,-38.240002 25.92,-41.119999 24.48,-43.84 l -1.760001,-2.400002 -1.92,-2.399997 -2.24,-2.080002 L 16.16,-52.48 13.44,-54.080002 10.72,-55.360001 7.84,-56.48 4.8,-57.119999 l -3.04,-0.32 h -3.04"
       style="fill:none;stroke:#000000;stroke-width:26.4;stroke-linecap:round;stroke-linejoin:round;stroke-miterlimit:10;stroke-dasharray:none;stroke-opacity:1"
       transform="translate(476.79999,569.77328)"
       clip-path="url(#clipPath6)" />
    <path
       id="path7"
       d="m 0,0 2.72,-0.16 2.88,-0.48 2.56,-0.8 2.72,-0.96 2.4,-1.44 2.4,-1.44 2.08,-1.76 2.08,-2.08 1.76,-2.24 1.440001,-2.24 1.279999,-2.56 0.960001,-2.559999 0.799999,-2.720002 0.479999,-2.879999 0.16,-2.720001 -0.16,-2.879999 L 26.08,-32.639999 25.280001,-35.360001 24.32,-37.919998 23.040001,-40.48 21.6,-42.880001 l -1.76,-2.239998 -1.92,-1.920002 -2.24,-1.759998 -2.4,-1.600003 -2.4,-1.279998 -2.56,-1.119999 -2.72,-0.64 L 2.72,-53.919998 0,-54.240002"
       style="fill:none;stroke:#000000;stroke-width:26.4;stroke-linecap:round;stroke-linejoin:round;stroke-miterlimit:10;stroke-dasharray:none;stroke-opacity:1"
       transform="translate(476.79999,624.01327)"
       clip-path="url(#clipPath8)" />
  </g>
</svg>
