<?xml version="1.0" encoding="UTF-8" standalone="no"?>
<!-- Created with Inkscape (http://www.inkscape.org/) -->

<svg
   version="1.1"
   id="svg1"
   width="313.50668"
   height="162.85333"
   viewBox="0 0 313.50668 162.85333"
   sodipodi:docname="Fracture.pdf"
   xmlns:inkscape="http://www.inkscape.org/namespaces/inkscape"
   xmlns:sodipodi="http://sodipodi.sourceforge.net/DTD/sodipodi-0.dtd"
   xmlns="http://www.w3.org/2000/svg"
   xmlns:svg="http://www.w3.org/2000/svg">
  <defs
     id="defs1">
    <clipPath
       clipPathUnits="userSpaceOnUse"
       id="clipPath2">
      <path
         d="M 0,0.16 V 1122.5601 H 793.59998 V 0.16 Z"
         transform="translate(-371.04001,-519.03998)"
         clip-rule="evenodd"
         id="path2" />
    </clipPath>
    <clipPath
       clipPathUnits="userSpaceOnUse"
       id="clipPath4">
      <path
         d="M 0,0.16 V 1122.5601 H 793.59998 V 0.16 Z"
         transform="translate(-371.04001,-519.03998)"
         clip-rule="evenodd"
         id="path4" />
    </clipPath>
    <clipPath
       clipPathUnits="userSpaceOnUse"
       id="clipPath6">
      <path
         d="M 0,0.16 V 1122.5601 H 793.59998 V 0.16 Z"
         transform="translate(-446.56,-519.03998)"
         clip-rule="evenodd"
         id="path6" />
    </clipPath>
    <clipPath
       clipPathUnits="userSpaceOnUse"
       id="clipPath8">
      <path
         d="M 0,0.16 V 1122.5601 H 793.59998 V 0.16 Z"
         transform="translate(-446.56,-519.03998)"
         clip-rule="evenodd"
         id="path8" />
    </clipPath>
    <clipPath
       clipPathUnits="userSpaceOnUse"
       id="clipPath10">
      <path
         d="M 0,0.16 V 1122.5601 H 793.59998 V 0.16 Z"
         transform="translate(-522.08002,-519.03998)"
         clip-rule="evenodd"
         id="path10" />
    </clipPath>
    <clipPath
       clipPathUnits="userSpaceOnUse"
       id="clipPath12">
      <path
         d="M 0,0.16 V 1122.5601 H 793.59998 V 0.16 Z"
         transform="translate(-333.28,-594.56)"
         clip-rule="evenodd"
         id="path12" />
    </clipPath>
    <clipPath
       clipPathUnits="userSpaceOnUse"
       id="clipPath14">
      <path
         d="M 0,0.16 V 1122.5601 H 793.59998 V 0.16 Z"
         transform="translate(-408.79999,-594.56)"
         clip-rule="evenodd"
         id="path14" />
    </clipPath>
    <clipPath
       clipPathUnits="userSpaceOnUse"
       id="clipPath16">
      <path
         d="M 0,0.16 V 1122.5601 H 793.59998 V 0.16 Z"
         transform="translate(-408.79999,-594.56)"
         clip-rule="evenodd"
         id="path16" />
    </clipPath>
    <clipPath
       clipPathUnits="userSpaceOnUse"
       id="clipPath18">
      <path
         d="M 0,0.16 V 1122.5601 H 793.59998 V 0.16 Z"
         transform="translate(-484.32001,-594.56)"
         clip-rule="evenodd"
         id="path18" />
    </clipPath>
    <clipPath
       clipPathUnits="userSpaceOnUse"
       id="clipPath20">
      <path
         d="M 0,0.16 V 1122.5601 H 793.59998 V 0.16 Z"
         transform="translate(-484.32001,-594.56)"
         clip-rule="evenodd"
         id="path20" />
    </clipPath>
    <clipPath
       clipPathUnits="userSpaceOnUse"
       id="clipPath22">
      <path
         d="M 0,0.16 V 1122.5601 H 793.59998 V 0.16 Z"
         transform="translate(-314.39999,-537.91998)"
         clip-rule="evenodd"
         id="path22" />
    </clipPath>
    <clipPath
       clipPathUnits="userSpaceOnUse"
       id="clipPath24">
      <path
         d="M 0,0.16 V 1122.5601 H 793.59998 V 0.16 Z"
         transform="translate(-333.28,-594.56)"
         clip-rule="evenodd"
         id="path24" />
    </clipPath>
    <clipPath
       clipPathUnits="userSpaceOnUse"
       id="clipPath26">
      <path
         d="M 0,0.16 V 1122.5601 H 793.59998 V 0.16 Z"
         transform="translate(-522.08002,-519.03998)"
         clip-rule="evenodd"
         id="path26" />
    </clipPath>
    <clipPath
       clipPathUnits="userSpaceOnUse"
       id="clipPath28">
      <path
         d="M 0,0.16 V 1122.5601 H 793.59998 V 0.16 Z"
         transform="translate(-540.96002,-575.67999)"
         clip-rule="evenodd"
         id="path28" />
    </clipPath>
    <clipPath
       clipPathUnits="userSpaceOnUse"
       id="clipPath30">
      <path
         d="M 0,0.16 V 1122.5601 H 793.59998 V 0.16 Z"
         transform="translate(-314.39999,-537.91998)"
         clip-rule="evenodd"
         id="path30" />
    </clipPath>
    <clipPath
       clipPathUnits="userSpaceOnUse"
       id="clipPath32">
      <path
         d="M 0,0.16 V 1122.5601 H 793.59998 V 0.16 Z"
         transform="translate(-540.96002,-575.67999)"
         clip-rule="evenodd"
         id="path32" />
    </clipPath>
  </defs>
  <sodipodi:namedview
     id="namedview1"
     pagecolor="#505050"
     bordercolor="#eeeeee"
     borderopacity="1"
     inkscape:showpageshadow="0"
     inkscape:pageopacity="0"
     inkscape:pagecheckerboard="0"
     inkscape:deskcolor="#505050">
    <inkscape:page
       x="0"
       y="0"
       inkscape:label="1"
       id="page1"
       width="313.50668"
       height="162.85333"
       margin="0"
       bleed="0" />
  </sodipodi:namedview>
  <g
     id="g1"
     inkscape:groupmode="layer"
     inkscape:label="1">
    <path
       id="path1"
       d="m 0,0 -0.16,-2.24 -0.48,-2.24 -0.64,-2.24 -0.96,-2.08 -1.12,-1.92 -1.44,-1.76 -1.6,-1.6 -1.76,-1.44 -1.92,-1.119999 -2.08,-0.960001 -2.24,-0.8 -2.239999,-0.319999 -2.24,-0.16 -2.240002,0.16 -2.24,0.319999 -2.239999,0.8 -2.08,0.960001 -1.92,1.119999 -1.760001,1.44 -1.599998,1.6 -1.440003,1.76 -1.279998,1.92 -0.8,2.08 -0.799999,2.24 -0.319999,2.24 -0.16,2.24"
       style="fill:none;stroke:#000000;stroke-width:26.4;stroke-linecap:round;stroke-linejoin:round;stroke-miterlimit:10;stroke-dasharray:none;stroke-opacity:1"
       transform="translate(97.560009,41.186586)"
       clip-path="url(#clipPath2)" />
    <path
       id="path3"
       d="m 0,0 0.16,2.24 0.32,2.24 0.8,2.24 0.8,2.08 1.28,1.92 1.44,1.76 1.6,1.6 1.76,1.44 1.92,1.279999 2.08,0.800001 2.24,0.8 2.239999,0.319999 2.24,0.16 2.240002,-0.16 L 23.360001,18.4 25.6,17.6 27.68,16.799999 29.6,15.52 31.360001,14.08 32.959999,12.48 34.400002,10.72 35.52,8.8 36.48,6.72 37.119999,4.48 37.599998,2.24 37.759998,0"
       style="fill:none;stroke:#000000;stroke-width:26.4;stroke-linecap:round;stroke-linejoin:round;stroke-miterlimit:10;stroke-dasharray:none;stroke-opacity:1"
       transform="translate(97.560009,41.186586)"
       clip-path="url(#clipPath4)" />
    <path
       id="path5"
       d="m 0,0 -0.16,-2.24 -0.48,-2.24 -0.64,-2.24 -0.96,-2.08 -1.12,-1.92 -1.44,-1.76 -1.6,-1.6 -1.76,-1.44 -1.92,-1.119999 -2.08,-0.960001 -2.24,-0.8 -2.239999,-0.319999 -2.24,-0.16 -2.240002,0.16 -2.24,0.319999 -2.239999,0.8 -2.08,0.960001 -1.92,1.119999 -1.760001,1.44 -1.599998,1.6 -1.440003,1.76 -1.279998,1.92 -0.8,2.08 -0.799999,2.24 -0.319999,2.24 -0.16,2.24"
       style="fill:none;stroke:#000000;stroke-width:26.4;stroke-linecap:round;stroke-linejoin:round;stroke-miterlimit:10;stroke-dasharray:none;stroke-opacity:1"
       transform="translate(173.08,41.186586)"
       clip-path="url(#clipPath6)" />
    <path
       id="path7"
       d="m 0,0 0.16,2.24 0.32,2.24 0.8,2.24 0.8,2.08 1.28,1.92 1.44,1.76 1.6,1.6 1.76,1.44 1.92,1.279999 2.08,0.800001 2.24,0.8 2.239999,0.319999 2.24,0.16 2.240002,-0.16 L 23.360001,18.4 25.6,17.6 27.68,16.799999 29.6,15.52 31.360001,14.08 32.959999,12.48 34.400002,10.72 35.52,8.8 36.48,6.72 37.119999,4.48 37.599998,2.24 37.759998,0"
       style="fill:none;stroke:#000000;stroke-width:26.4;stroke-linecap:round;stroke-linejoin:round;stroke-miterlimit:10;stroke-dasharray:none;stroke-opacity:1"
       transform="translate(173.08,41.186586)"
       clip-path="url(#clipPath8)" />
    <path
       id="path9"
       d="m 0,0 -0.16,-2.24 -0.48,-2.24 -0.64,-2.24 -0.96,-2.08 -1.12,-1.92 -1.44,-1.76 -1.6,-1.6 -1.76,-1.44 -1.92,-1.119999 -2.08,-0.960001 -2.24,-0.8 -2.239999,-0.319999 -2.24,-0.16 -2.240002,0.16 -2.24,0.319999 -2.239999,0.8 -2.08,0.960001 -1.92,1.119999 -1.760001,1.44 -1.599998,1.6 -1.440003,1.76 -1.279998,1.92 -0.8,2.08 -0.799999,2.24 -0.319999,2.24 -0.16,2.24"
       style="fill:none;stroke:#000000;stroke-width:26.4;stroke-linecap:round;stroke-linejoin:round;stroke-miterlimit:10;stroke-dasharray:none;stroke-opacity:1"
       transform="translate(248.60002,41.186586)"
       clip-path="url(#clipPath10)" />
    <path
       id="path11"
       d="m 0,0 0.16,2.24 0.32,2.24 0.8,2.24 0.8,2.08 1.28,1.92 1.44,1.76 1.6,1.6 1.76,1.44 1.92,1.279999 2.08,0.800001 2.24,0.8 2.239999,0.319999 2.24,0.16 2.240002,-0.16 L 23.360001,18.4 25.6,17.6 27.68,16.799999 29.6,15.52 31.360001,14.08 32.959999,12.48 34.400002,10.72 35.52,8.8 36.48,6.72 37.119999,4.48 37.599998,2.24 37.759998,0"
       style="fill:none;stroke:#000000;stroke-width:26.4;stroke-linecap:round;stroke-linejoin:round;stroke-miterlimit:10;stroke-dasharray:none;stroke-opacity:1"
       transform="translate(59.799999,116.70661)"
       clip-path="url(#clipPath12)" />
    <path
       id="path13"
       d="m 0,0 -0.16,-2.24 -0.48,-2.24 -0.64,-2.24 -0.96,-2.08 -1.12,-1.92 -1.44,-1.76 -1.6,-1.6 -1.76,-1.44 -1.92,-1.119999 -2.08,-0.960001 -2.24,-0.8 -2.239999,-0.319999 -2.24,-0.16 -2.240002,0.16 -2.24,0.319999 -2.239999,0.8 -2.08,0.960001 -1.92,1.119999 -1.760001,1.44 -1.599998,1.6 -1.440003,1.76 -1.279998,1.92 -0.8,2.08 -0.799999,2.24 -0.319999,2.24 -0.16,2.24"
       style="fill:none;stroke:#000000;stroke-width:26.4;stroke-linecap:round;stroke-linejoin:round;stroke-miterlimit:10;stroke-dasharray:none;stroke-opacity:1"
       transform="translate(135.31999,116.70661)"
       clip-path="url(#clipPath14)" />
    <path
       id="path15"
       d="m 0,0 0.16,2.24 0.32,2.24 0.8,2.24 0.8,2.08 1.28,1.92 1.44,1.76 1.6,1.6 1.76,1.44 1.92,1.279999 2.08,0.800001 2.24,0.8 2.239999,0.319999 2.24,0.16 2.240002,-0.16 L 23.360001,18.4 25.6,17.6 27.68,16.799999 29.6,15.52 31.360001,14.08 32.959999,12.48 34.400002,10.72 35.52,8.8 36.48,6.72 37.119999,4.48 37.599998,2.24 37.759998,0"
       style="fill:none;stroke:#000000;stroke-width:26.4;stroke-linecap:round;stroke-linejoin:round;stroke-miterlimit:10;stroke-dasharray:none;stroke-opacity:1"
       transform="translate(135.31999,116.70661)"
       clip-path="url(#clipPath16)" />
    <path
       id="path17"
       d="m 0,0 -0.16,-2.24 -0.48,-2.24 -0.64,-2.24 -0.96,-2.08 -1.12,-1.92 -1.44,-1.76 -1.6,-1.6 -1.76,-1.44 -1.92,-1.119999 -2.08,-0.960001 -2.24,-0.8 -2.239999,-0.319999 -2.24,-0.16 -2.240002,0.16 -2.24,0.319999 -2.239999,0.8 -2.08,0.960001 -1.92,1.119999 -1.760001,1.44 -1.599998,1.6 -1.440003,1.76 -1.279998,1.92 -0.8,2.08 -0.799999,2.24 -0.319999,2.24 -0.16,2.24"
       style="fill:none;stroke:#000000;stroke-width:26.4;stroke-linecap:round;stroke-linejoin:round;stroke-miterlimit:10;stroke-dasharray:none;stroke-opacity:1"
       transform="translate(210.84001,116.70661)"
       clip-path="url(#clipPath18)" />
    <path
       id="path19"
       d="m 0,0 0.16,2.24 0.32,2.24 0.8,2.24 0.8,2.08 1.28,1.92 1.44,1.76 1.6,1.6 1.76,1.44 1.92,1.279999 2.08,0.800001 2.24,0.8 2.239999,0.319999 2.24,0.16 2.240002,-0.16 L 23.360001,18.4 25.6,17.6 27.68,16.799999 29.6,15.52 31.360001,14.08 32.959999,12.48 34.400002,10.72 35.52,8.8 36.48,6.72 37.119999,4.48 37.599998,2.24 37.759998,0"
       style="fill:none;stroke:#000000;stroke-width:26.4;stroke-linecap:round;stroke-linejoin:round;stroke-miterlimit:10;stroke-dasharray:none;stroke-opacity:1"
       transform="translate(210.84001,116.70661)"
       clip-path="url(#clipPath20)" />
    <path
       id="path21"
       d="m 0,0 2.24,-0.16 2.24,-0.32 2.24,-0.8 2.08,-0.8 1.92,-1.28 1.76,-1.44 1.6,-1.6 1.44,-1.76 1.119999,-1.92 0.960001,-2.08 0.64,-2.24 0.479999,-2.239999 0.16,-2.24"
       style="fill:none;stroke:#000000;stroke-width:26.4;stroke-linecap:round;stroke-linejoin:round;stroke-miterlimit:10;stroke-dasharray:none;stroke-opacity:1"
       transform="translate(40.919994,60.066591)"
       clip-path="url(#clipPath22)" />
    <path
       id="path23"
       d="m 0,0 -0.16,-2.24 -0.48,-2.24 -0.64,-2.24 -0.96,-2.08 -1.12,-1.92 -1.44,-1.76 -1.6,-1.6 -1.76,-1.44 -1.92,-1.119999 -2.08,-0.960001 -2.24,-0.8 -2.239999,-0.319999 -2.24,-0.16"
       style="fill:none;stroke:#000000;stroke-width:26.4;stroke-linecap:round;stroke-linejoin:round;stroke-miterlimit:10;stroke-dasharray:none;stroke-opacity:1"
       transform="translate(59.799999,116.70661)"
       clip-path="url(#clipPath24)" />
    <path
       id="path25"
       d="m 0,0 0.16,2.24 0.32,2.24 0.8,2.24 0.8,2.08 1.28,1.92 1.44,1.76 1.6,1.6 1.76,1.44 1.92,1.279999 2.08,0.800001 2.24,0.8 2.239999,0.319999 2.24,0.16"
       style="fill:none;stroke:#000000;stroke-width:26.4;stroke-linecap:round;stroke-linejoin:round;stroke-miterlimit:10;stroke-dasharray:none;stroke-opacity:1"
       transform="translate(248.60002,41.186586)"
       clip-path="url(#clipPath26)" />
    <path
       id="path27"
       d="m 0,0 -2.24,0.16 -2.24,0.32 -2.24,0.8 -2.08,0.96 -1.92,1.12 -1.76,1.44 -1.6,1.6 -1.44,1.76 -1.279999,1.92 -0.800001,2.08 -0.8,2.24 -0.319999,2.239999 -0.16,2.24"
       style="fill:none;stroke:#000000;stroke-width:26.4;stroke-linecap:round;stroke-linejoin:round;stroke-miterlimit:10;stroke-dasharray:none;stroke-opacity:1"
       transform="translate(267.48002,97.826601)"
       clip-path="url(#clipPath28)" />
    <path
       id="path29"
       d="m 0,0 -2.24,0.16 -2.24,0.32 -2.24,0.8 -2.08,0.96 -1.92,1.12 -1.76,1.44 -1.6,1.6 -1.44,1.76 -1.279999,1.92 -0.800001,2.08 -0.8,2.24 -0.319999,2.239999 -0.16,2.24 0.16,2.240002 0.319999,2.24 0.8,2.239999 0.800001,2.08 1.279999,1.92 1.44,1.760001 1.6,1.599998 1.76,1.440003 1.92,1.279998 2.08,0.8 2.24,0.799999 2.24,0.319999 2.24,0.16"
       style="fill:none;stroke:#000000;stroke-width:26.4;stroke-linecap:round;stroke-linejoin:round;stroke-miterlimit:10;stroke-dasharray:none;stroke-opacity:1"
       transform="translate(40.919994,60.066591)"
       clip-path="url(#clipPath30)" />
    <path
       id="path31"
       d="m 0,0 2.24,-0.16 2.24,-0.32 2.24,-0.8 2.08,-0.8 1.92,-1.28 1.76,-1.44 1.6,-1.6 1.44,-1.76 1.119999,-1.92 0.960001,-2.08 0.64,-2.24 0.479999,-2.239999 0.16,-2.24 -0.16,-2.240002 -0.479999,-2.24 L 17.6,-25.6 16.639999,-27.68 15.52,-29.6 14.08,-31.360001 12.48,-32.959999 10.72,-34.400002 8.8,-35.52 6.72,-36.48 4.48,-37.279999 2.24,-37.599998 0,-37.759998"
       style="fill:none;stroke:#000000;stroke-width:26.4;stroke-linecap:round;stroke-linejoin:round;stroke-miterlimit:10;stroke-dasharray:none;stroke-opacity:1"
       transform="translate(267.48002,97.826601)"
       clip-path="url(#clipPath32)" />
  </g>
</svg>
