<?xml version="1.0" encoding="UTF-8" standalone="no"?>
<!-- Created with Inkscape (http://www.inkscape.org/) -->

<svg
   version="1.1"
   id="svg1"
   width="341.51999"
   height="341.70667"
   viewBox="0 0 341.51999 341.70667"
   sodipodi:docname="Fuse2.pdf"
   xmlns:inkscape="http://www.inkscape.org/namespaces/inkscape"
   xmlns:sodipodi="http://sodipodi.sourceforge.net/DTD/sodipodi-0.dtd"
   xmlns="http://www.w3.org/2000/svg"
   xmlns:svg="http://www.w3.org/2000/svg">
  <defs
     id="defs1">
    <clipPath
       clipPathUnits="userSpaceOnUse"
       id="clipPath2">
      <path
         d="M 0,0.16 V 1122.5601 H 793.59998 V 0.16 Z"
         transform="translate(-568.32001,-580)"
         clip-rule="evenodd"
         id="path2" />
    </clipPath>
    <clipPath
       clipPathUnits="userSpaceOnUse"
       id="clipPath4">
      <path
         d="M 0,0.16 V 1122.5601 H 793.59998 V 0.16 Z"
         clip-rule="evenodd"
         id="path4" />
    </clipPath>
    <clipPath
       clipPathUnits="userSpaceOnUse"
       id="clipPath6">
      <path
         d="M 0,0.16 V 1122.5601 H 793.59998 V 0.16 Z"
         clip-rule="evenodd"
         id="path6" />
    </clipPath>
    <clipPath
       clipPathUnits="userSpaceOnUse"
       id="clipPath8">
      <path
         d="M 0,0.16 V 1122.5601 H 793.59998 V 0.16 Z"
         clip-rule="evenodd"
         id="path8" />
    </clipPath>
    <clipPath
       clipPathUnits="userSpaceOnUse"
       id="clipPath10">
      <path
         d="M 0,0.16 V 1122.5601 H 793.59998 V 0.16 Z"
         clip-rule="evenodd"
         id="path10" />
    </clipPath>
    <clipPath
       clipPathUnits="userSpaceOnUse"
       id="clipPath12">
      <path
         d="M 0,0.16 V 1122.5601 H 793.59998 V 0.16 Z"
         transform="translate(-417.28,-731.03998)"
         clip-rule="evenodd"
         id="path12" />
    </clipPath>
    <clipPath
       clipPathUnits="userSpaceOnUse"
       id="clipPath14">
      <path
         d="M 0,0.16 V 1122.5601 H 793.59998 V 0.16 Z"
         transform="translate(-439.04001,-685.28003)"
         clip-rule="evenodd"
         id="path14" />
    </clipPath>
  </defs>
  <sodipodi:namedview
     id="namedview1"
     pagecolor="#505050"
     bordercolor="#eeeeee"
     borderopacity="1"
     inkscape:showpageshadow="0"
     inkscape:pageopacity="0"
     inkscape:pagecheckerboard="0"
     inkscape:deskcolor="#505050">
    <inkscape:page
       x="0"
       y="0"
       inkscape:label="1"
       id="page1"
       width="341.51999"
       height="341.70667"
       margin="0"
       bleed="0" />
  </sodipodi:namedview>
  <g
     id="g1"
     inkscape:groupmode="layer"
     inkscape:label="1">
    <path
       id="path1"
       d="m 0,0 c 0,-16.700001 -13.53,-30.24 -30.24,-30.24 -16.710001,0 -30.24,13.539999 -30.24,30.24 0,16.700001 13.529999,30.24 30.24,30.24 C -13.53,30.24 0,16.700001 0,0 Z"
       style="fill:none;stroke:#000000;stroke-width:26.4;stroke-linecap:round;stroke-linejoin:round;stroke-miterlimit:10;stroke-dasharray:none;stroke-opacity:1"
       transform="translate(313.52001,152.86661)"
       clip-path="url(#clipPath2)" />
    <path
       id="path3"
       d="M 281.28,610.23999 H 507.84"
       style="fill:none;stroke:#000000;stroke-width:26.4;stroke-linecap:round;stroke-linejoin:round;stroke-miterlimit:10;stroke-dasharray:none;stroke-opacity:1"
       transform="translate(-254.8,-427.13339)"
       clip-path="url(#clipPath4)" />
    <path
       id="path5"
       d="M 311.51999,534.71997 H 477.60001"
       style="fill:none;stroke:#000000;stroke-width:26.4;stroke-linecap:round;stroke-linejoin:round;stroke-miterlimit:10;stroke-dasharray:none;stroke-opacity:1"
       transform="translate(-254.8,-427.13339)"
       clip-path="url(#clipPath6)" />
    <path
       id="path7"
       d="M 341.76001,459.20001 H 447.51999"
       style="fill:none;stroke:#000000;stroke-width:26.4;stroke-linecap:round;stroke-linejoin:round;stroke-miterlimit:10;stroke-dasharray:none;stroke-opacity:1"
       transform="translate(-254.8,-427.13339)"
       clip-path="url(#clipPath8)" />
    <path
       id="path9"
       d="M 402.07999,459.20001 V 610.23999"
       style="fill:none;stroke:#000000;stroke-width:26.4;stroke-linecap:round;stroke-linejoin:round;stroke-miterlimit:10;stroke-dasharray:none;stroke-opacity:1"
       transform="translate(-254.8,-427.13339)"
       clip-path="url(#clipPath10)" />
    <path
       id="path11"
       d="m 0,0 8.64,-4.48 8.480001,-4.64 8.16,-5.28 7.999998,-5.6 7.68,-5.92 7.360001,-6.24 7.040001,-6.720001 6.720001,-7.039997 6.400001,-7.200001 6.079995,-7.68 5.600006,-7.84 5.279998,-8.160004 4.96,-8.479996 4.479995,-8.480003 4,-8.959998 3.680003,-8.96 3.2,-9.12"
       style="fill:none;stroke:#000000;stroke-width:26.4;stroke-linecap:round;stroke-linejoin:round;stroke-miterlimit:10;stroke-dasharray:none;stroke-opacity:1"
       transform="translate(162.48,303.90659)"
       clip-path="url(#clipPath12)" />
    <path
       id="path13"
       d="M 0,0 -1.12,-2.88 -2.56,-5.44 -4.32,-8 l -2.08,-2.24 -2.24,-2.08 -2.72,-1.92 -2.88,-1.76 -3.200001,-1.440001 -3.359998,-1.279998 L -24.32,-19.68 l -3.68,-0.8 -4,-0.479999 -4,-0.160002 h -4 l -4.16,0.320002 -4.32,0.479999 -4.159999,0.8 -4.16,1.12 -4.16,1.279999 -4,1.600001 -4,1.76 -3.840004,1.92 -3.68,2.08 -3.519997,2.4 -3.199997,2.56 -3.040001,2.56 -2.880005,2.88 -2.399994,2.88 -2.240005,3.04 -1.919998,3.04 -1.760002,3.04 -1.279999,3.2 -0.959999,3.200001 -0.64,3.039999 -0.16,3.200001 V 28.32 l 0.48,2.880001 0.800003,2.880001 1.119995,2.879997 1.440003,2.560001 1.760002,2.399998 2.079994,2.400002 2.240005,2.080002 2.720002,1.919998 2.879997,1.760002 3.199997,1.439998 3.36,1.279999 3.520005,0.959999 3.839996,0.640004 3.840004,0.479999 3.999996,0.32 h 4.16 l 4.16,-0.32 4.16,-0.639999 4.16,-0.800003 4.159999,-0.959999 4.16,-1.439999 4.16,-1.440003 L -30.24,47.84 -26.4,45.919998"
       style="fill:none;stroke:#000000;stroke-width:26.4;stroke-linecap:round;stroke-linejoin:round;stroke-miterlimit:10;stroke-dasharray:none;stroke-opacity:1"
       transform="translate(184.24001,258.14664)"
       clip-path="url(#clipPath14)" />
  </g>
</svg>
