<?xml version="1.0" encoding="UTF-8" standalone="no"?>
<!-- Created with Inkscape (http://www.inkscape.org/) -->

<svg
   version="1.1"
   id="svg1"
   width="502.93332"
   height="568.61334"
   viewBox="0 0 502.93332 568.61334"
   sodipodi:docname="Imbibitio.pdf"
   xmlns:inkscape="http://www.inkscape.org/namespaces/inkscape"
   xmlns:sodipodi="http://sodipodi.sourceforge.net/DTD/sodipodi-0.dtd"
   xmlns="http://www.w3.org/2000/svg"
   xmlns:svg="http://www.w3.org/2000/svg">
  <defs
     id="defs1">
    <clipPath
       clipPathUnits="userSpaceOnUse"
       id="clipPath2">
      <path
         d="M 0,0.16 V 1122.5601 H 793.59998 V 0.16 Z"
         transform="translate(-472.32001,-485.76001)"
         clip-rule="evenodd"
         id="path2" />
    </clipPath>
    <clipPath
       clipPathUnits="userSpaceOnUse"
       id="clipPath4">
      <path
         d="M 0,0.16 V 1122.5601 H 793.59998 V 0.16 Z"
         clip-rule="evenodd"
         id="path4" />
    </clipPath>
    <clipPath
       clipPathUnits="userSpaceOnUse"
       id="clipPath6">
      <path
         d="M 0,0.16 V 1122.5601 H 793.59998 V 0.16 Z"
         clip-rule="evenodd"
         id="path6" />
    </clipPath>
    <clipPath
       clipPathUnits="userSpaceOnUse"
       id="clipPath8">
      <path
         d="M 0,0.16 V 1122.5601 H 793.59998 V 0.16 Z"
         clip-rule="evenodd"
         id="path8" />
    </clipPath>
    <clipPath
       clipPathUnits="userSpaceOnUse"
       id="clipPath10">
      <path
         d="M 0,0.16 V 1122.5601 H 793.59998 V 0.16 Z"
         clip-rule="evenodd"
         id="path10" />
    </clipPath>
    <clipPath
       clipPathUnits="userSpaceOnUse"
       id="clipPath12">
      <path
         d="M 0,0.16 V 1122.5601 H 793.59998 V 0.16 Z"
         clip-rule="evenodd"
         id="path12" />
    </clipPath>
    <clipPath
       clipPathUnits="userSpaceOnUse"
       id="clipPath14">
      <path
         d="M 0,0.16 V 1122.5601 H 793.59998 V 0.16 Z"
         clip-rule="evenodd"
         id="path14" />
    </clipPath>
    <clipPath
       clipPathUnits="userSpaceOnUse"
       id="clipPath16">
      <path
         d="M 0,0.16 V 1122.5601 H 793.59998 V 0.16 Z"
         transform="translate(-297.76001,-865.28003)"
         clip-rule="evenodd"
         id="path16" />
    </clipPath>
  </defs>
  <sodipodi:namedview
     id="namedview1"
     pagecolor="#505050"
     bordercolor="#eeeeee"
     borderopacity="1"
     inkscape:showpageshadow="0"
     inkscape:pageopacity="0"
     inkscape:pagecheckerboard="0"
     inkscape:deskcolor="#505050">
    <inkscape:page
       x="0"
       y="0"
       inkscape:label="1"
       id="page1"
       width="502.93332"
       height="568.61334"
       margin="0"
       bleed="0" />
  </sodipodi:namedview>
  <g
     id="g1"
     inkscape:groupmode="layer"
     inkscape:label="1">
    <path
       id="path1"
       d="M 0,0 -0.16,-5.44 -0.8,-10.72 -1.76,-16 -3.04,-21.280001 -4.64,-26.4 -6.72,-31.360001 -9.12,-36.16 -12,-40.799999 l -3.04,-4.48 -3.36,-4.16 -3.68,-4 -4,-3.68 -4.16,-3.360001 -4.480001,-3.04 -4.48,-2.719998 -4.959999,-2.400001 -4.959999,-2.080002 -5.120003,-1.760002 -5.119999,-1.279999 -5.440002,-0.959999 -5.279999,-0.64 -5.439995,-0.159996 -5.280006,0.159996 -5.439995,0.64 -5.279999,0.959999 -5.280006,1.279999 -5.119997,1.760002 -4.96,2.080002 -4.8,2.400001 -4.64,2.719998 -4.48,3.04 -4.16,3.360001 -3.84,3.68 -3.68,4 -3.52,4.16 -3.03999,4.48 -2.72,4.639999 -2.40001,4.799999 -2.08,4.960001 -1.76,5.119999 -1.28,5.280001 -0.96,5.28 -0.48,5.28 -0.31999,5.44"
       style="fill:none;stroke:#000000;stroke-width:26.4;stroke-linecap:round;stroke-linejoin:round;stroke-miterlimit:10;stroke-dasharray:none;stroke-opacity:1"
       transform="translate(328.24001,98.666618)"
       clip-path="url(#clipPath2)" />
    <path
       id="path3"
       d="m 321.28,485.76001 v 75.52002"
       style="fill:none;stroke:#000000;stroke-width:26.4;stroke-linecap:round;stroke-linejoin:round;stroke-miterlimit:10;stroke-dasharray:none;stroke-opacity:1"
       transform="translate(-144.08,-387.09339)"
       clip-path="url(#clipPath4)" />
    <path
       id="path5"
       d="m 472.32001,485.76001 v 75.52002"
       style="fill:none;stroke:#000000;stroke-width:26.4;stroke-linecap:round;stroke-linejoin:round;stroke-miterlimit:10;stroke-dasharray:none;stroke-opacity:1"
       transform="translate(-144.08,-387.09339)"
       clip-path="url(#clipPath6)" />
    <path
       id="path7"
       d="M 472.32001,561.28003 H 623.35998"
       style="fill:none;stroke:#000000;stroke-width:26.4;stroke-linecap:round;stroke-linejoin:round;stroke-miterlimit:10;stroke-dasharray:none;stroke-opacity:1"
       transform="translate(-144.08,-387.09339)"
       clip-path="url(#clipPath8)" />
    <path
       id="path9"
       d="M 321.28,561.28003 H 170.24"
       style="fill:none;stroke:#000000;stroke-width:26.4;stroke-linecap:round;stroke-linejoin:round;stroke-miterlimit:10;stroke-dasharray:none;stroke-opacity:1"
       transform="translate(-144.08,-387.09339)"
       clip-path="url(#clipPath10)" />
    <path
       id="path11"
       d="M 321.28,636.79999 H 472.32001"
       style="fill:none;stroke:#000000;stroke-width:26.4;stroke-linecap:round;stroke-linejoin:round;stroke-miterlimit:10;stroke-dasharray:none;stroke-opacity:1"
       transform="translate(-144.08,-387.09339)"
       clip-path="url(#clipPath12)" />
    <path
       id="path13"
       d="M 472.32001,636.79999 321.28,750.08002"
       style="fill:none;stroke:#000000;stroke-width:26.4;stroke-linecap:round;stroke-linejoin:round;stroke-miterlimit:10;stroke-dasharray:none;stroke-opacity:1"
       transform="translate(-144.08,-387.09339)"
       clip-path="url(#clipPath14)" />
    <path
       id="path15"
       d="m 0,0 2.56,6.08 3.2,6.08 3.36,5.76 3.84,5.440001 3.999999,5.279998 4.480002,5.119999 4.799999,4.640004 5.120001,4.479999 5.279998,4 5.600003,3.84 L 48,54.080002 53.919998,57.119999 60.16,59.68 l 6.240002,2.239998 6.400001,1.920002 6.559998,1.439999 6.720001,0.959999 6.720001,0.639999 6.559998,0.160004 6.719999,-0.160004 6.72,-0.639999 6.56,-1.119995 6.56,-1.440003 6.56,-1.920002 6.24,-2.239998 6.08,-2.720001 6.08,-3.040001 5.76,-3.519996 5.44,-3.680001 5.28,-4.159999 5.12,-4.480004 4.63999,-4.799999 4.48002,-4.959999 4,-5.280001 3.83999,-5.599998 3.36,-5.760001 3.04,-6.08 2.72,-6.08 2.24,-6.4 1.76,-6.4 1.44,-6.56 1.11999,-6.559999 0.64,-6.72 L 205.92,-40 l -0.31999,-6.720001 -0.64,-6.559998 L 204,-60 l -1.60001,-6.559998 -1.75999,-6.400001 -2.4,-6.239998 -2.72,-6.240005 -3.04,-5.919999 -3.36001,-5.760002 L 185.28,-102.72 181.11999,-108 176.8,-112.96 l -4.8,-4.8 -5.12,-4.32 -5.27999,-4.16 -5.60001,-3.68 -5.76,-3.52 -5.91999,-3.04 -6.24001,-2.55999 -6.24,-2.24001 -6.4,-1.92 -6.56,-1.44 -6.72,-0.96001 -6.56,-0.63999 -6.720003,-0.15999 -6.719993,0.15999 -6.720002,0.63999 -6.560005,1.12001 -6.559997,1.44001 -6.400002,1.92 -6.399998,2.23999 -6.080001,2.72 -6.079998,3.04001 -5.760003,3.36 -5.439998,3.83999 -5.280001,4.16 -5.119999,4.32"
       style="fill:none;stroke:#000000;stroke-width:26.4;stroke-linecap:round;stroke-linejoin:round;stroke-miterlimit:10;stroke-dasharray:none;stroke-opacity:1"
       transform="translate(153.68001,478.18664)"
       clip-path="url(#clipPath16)" />
  </g>
</svg>
