<?xml version="1.0" encoding="UTF-8" standalone="no"?>
<!-- Created with Inkscape (http://www.inkscape.org/) -->

<svg
   version="1.1"
   id="svg1"
   width="652.34668"
   height="435.14667"
   viewBox="0 0 652.34668 435.14667"
   sodipodi:docname="Lutation5.pdf"
   xmlns:inkscape="http://www.inkscape.org/namespaces/inkscape"
   xmlns:sodipodi="http://sodipodi.sourceforge.net/DTD/sodipodi-0.dtd"
   xmlns="http://www.w3.org/2000/svg"
   xmlns:svg="http://www.w3.org/2000/svg">
  <defs
     id="defs1">
    <clipPath
       clipPathUnits="userSpaceOnUse"
       id="clipPath2">
      <path
         d="M 0,0.16 V 1122.5601 H 793.59998 V 0.16 Z"
         clip-rule="evenodd"
         id="path2" />
    </clipPath>
    <clipPath
       clipPathUnits="userSpaceOnUse"
       id="clipPath4">
      <path
         d="M 0,0.16 V 1122.5601 H 793.59998 V 0.16 Z"
         clip-rule="evenodd"
         id="path4" />
    </clipPath>
    <clipPath
       clipPathUnits="userSpaceOnUse"
       id="clipPath6">
      <path
         d="M 0,0.16 V 1122.5601 H 793.59998 V 0.16 Z"
         transform="translate(-472.32001,-447.51999)"
         clip-rule="evenodd"
         id="path6" />
    </clipPath>
    <clipPath
       clipPathUnits="userSpaceOnUse"
       id="clipPath8">
      <path
         d="M 0,0.16 V 1122.5601 H 793.59998 V 0.16 Z"
         transform="translate(-359.04001,-524.15997)"
         clip-rule="evenodd"
         id="path8" />
    </clipPath>
    <clipPath
       clipPathUnits="userSpaceOnUse"
       id="clipPath10">
      <path
         d="M 0,0.16 V 1122.5601 H 793.59998 V 0.16 Z"
         transform="translate(-434.56,-750.71997)"
         clip-rule="evenodd"
         id="path10" />
    </clipPath>
    <clipPath
       clipPathUnits="userSpaceOnUse"
       id="clipPath12">
      <path
         d="M 0,0.16 V 1122.5601 H 793.59998 V 0.16 Z"
         transform="translate(-585.59998,-524.15997)"
         clip-rule="evenodd"
         id="path12" />
    </clipPath>
  </defs>
  <sodipodi:namedview
     id="namedview1"
     pagecolor="#505050"
     bordercolor="#eeeeee"
     borderopacity="1"
     inkscape:showpageshadow="0"
     inkscape:pageopacity="0"
     inkscape:pagecheckerboard="0"
     inkscape:deskcolor="#505050">
    <inkscape:page
       x="0"
       y="0"
       inkscape:label="1"
       id="page1"
       width="652.34668"
       height="435.14667"
       margin="0"
       bleed="0" />
  </sodipodi:namedview>
  <g
     id="g1"
     inkscape:groupmode="layer"
     inkscape:label="1">
    <path
       id="path1"
       d="M 94.720001,447.51999 H 321.28"
       style="fill:none;stroke:#000000;stroke-width:26.4;stroke-linecap:round;stroke-linejoin:round;stroke-miterlimit:10;stroke-dasharray:none;stroke-opacity:1"
       transform="translate(-70.706667,-343.04006)"
       clip-path="url(#clipPath2)" />
    <path
       id="path3"
       d="M 472.32001,447.51999 H 698.88"
       style="fill:none;stroke:#000000;stroke-width:26.4;stroke-linecap:round;stroke-linejoin:round;stroke-miterlimit:10;stroke-dasharray:none;stroke-opacity:1"
       transform="translate(-70.706667,-343.04006)"
       clip-path="url(#clipPath4)" />
    <path
       id="path5"
       d="m 0,0 -0.16,-5.44 -0.64,-5.44 -0.96,-5.28 -1.28,-5.120001 -1.6,-5.119999 -2.08,-5.12 -2.4,-4.8 -2.88,-4.639999 -3.04,-4.32 -3.36,-4.319999 -3.68,-3.840001 -4,-3.68 -4.16,-3.360001 -4.480001,-3.2 -4.48,-2.720002 -4.959999,-2.400001 -4.959999,-2.079994 -5.120003,-1.600006 -5.119999,-1.439995 -5.440002,-0.959999 -5.279999,-0.480004 -5.439995,-0.159996 -5.280006,0.159996 -5.439995,0.480004 -5.279999,0.959999 -5.280006,1.439995 -5.119997,1.600006 -4.96,2.079994 -4.8,2.400001 -4.64,2.720002 -4.48,3.2 -4.16,3.360001 -3.84,3.68 -3.68,3.840001 -3.52,4.319999 -3.03999,4.32 -2.72,4.639999 -2.40001,4.8 -2.08,5.12 -1.76,5.119999 -1.28,5.120001 -0.96,5.28 -0.48,5.44 -0.31999,5.44"
       style="fill:none;stroke:#000000;stroke-width:26.4;stroke-linecap:round;stroke-linejoin:round;stroke-miterlimit:10;stroke-dasharray:none;stroke-opacity:1"
       transform="translate(401.61334,104.47993)"
       clip-path="url(#clipPath6)" />
    <path
       id="path7"
       d="m 0,0 -9.76,4.16 -9.600001,4.64 -9.439998,5.12 -9.280003,5.6 -8.799999,5.920001 L -55.68,31.68 -64,38.400002 l -8,7.039997 -7.839996,7.36 -7.360001,7.680001 -7.040001,8.000003 -6.720002,8.479996 -6.4,8.639999 -5.92,8.800004 -5.6,9.279998 -5.12,9.28 -4.64,9.76 -4.32001,9.76 -3.83999,9.91999 -3.36,10.24001 -2.87999,10.24 -2.56002,10.4 -2.07998,10.56 -1.44,10.55999 -1.12001,10.72 -0.64,10.72001 -0.15999,10.72"
       style="fill:none;stroke:#000000;stroke-width:26.4;stroke-linecap:round;stroke-linejoin:round;stroke-miterlimit:10;stroke-dasharray:none;stroke-opacity:1"
       transform="translate(288.33334,181.11991)"
       clip-path="url(#clipPath8)" />
    <path
       id="path9"
       d="m 0,0 -0.48,-14.24 -1.12,-14.24 -1.6,-14.240001 -2.08,-14.079998 -2.56,-14.079998 -3.04,-13.920006 -3.52,-13.759995 -4,-13.600002 -4.640001,-13.6 L -28,-139.03999 l -5.439999,-13.28002 -5.920002,-12.95999 -6.239997,-12.8 -6.880002,-12.48 -7.2,-12.32 -7.680001,-12 -8.159996,-11.68"
       style="fill:none;stroke:#000000;stroke-width:26.4;stroke-linecap:round;stroke-linejoin:round;stroke-miterlimit:10;stroke-dasharray:none;stroke-opacity:1"
       transform="translate(363.85333,407.67991)"
       clip-path="url(#clipPath10)" />
    <path
       id="path11"
       d="m 0,0 -9.92,5.28 -9.76,5.92 -9.600001,6.080001 -9.28,6.719999 -8.959999,6.879999 -8.8,7.360003 -8.319999,7.519996 -8.160004,8 -7.839996,8.320004 L -88,70.720001 -95.040001,79.68 -101.76,88.959999 -108,98.400002 -113.92,108 l -5.6,10.08 -5.12,10.08 -4.64,10.4 -4.32001,10.55999 -3.83999,10.72001 -3.36,10.88 -2.87999,10.88001 -2.56001,11.19999 -2.08001,11.2 -1.59999,11.2 -1.11999,11.36"
       style="fill:none;stroke:#000000;stroke-width:26.4;stroke-linecap:round;stroke-linejoin:round;stroke-miterlimit:10;stroke-dasharray:none;stroke-opacity:1"
       transform="translate(514.89331,181.11991)"
       clip-path="url(#clipPath12)" />
  </g>
</svg>
