<?xml version="1.0" encoding="UTF-8" standalone="no"?>
<!-- Created with Inkscape (http://www.inkscape.org/) -->

<svg
   version="1.1"
   id="svg1"
   width="489.60001"
   height="293.65332"
   viewBox="0 0 489.60001 293.65332"
   sodipodi:docname="Lutation6.pdf"
   xmlns:inkscape="http://www.inkscape.org/namespaces/inkscape"
   xmlns:sodipodi="http://sodipodi.sourceforge.net/DTD/sodipodi-0.dtd"
   xmlns="http://www.w3.org/2000/svg"
   xmlns:svg="http://www.w3.org/2000/svg">
  <defs
     id="defs1">
    <clipPath
       clipPathUnits="userSpaceOnUse"
       id="clipPath2">
      <path
         d="M 0,0.16 V 1122.5601 H 793.59998 V 0.16 Z"
         transform="translate(-180.48,-507.67999)"
         clip-rule="evenodd"
         id="path2" />
    </clipPath>
    <clipPath
       clipPathUnits="userSpaceOnUse"
       id="clipPath4">
      <path
         d="M 0,0.16 V 1122.5601 H 793.59998 V 0.16 Z"
         transform="translate(-217.12,-498.88)"
         clip-rule="evenodd"
         id="path4" />
    </clipPath>
    <clipPath
       clipPathUnits="userSpaceOnUse"
       id="clipPath6">
      <path
         d="M 0,0.16 V 1122.5601 H 793.59998 V 0.16 Z"
         transform="translate(-253.91999,-489.92001)"
         clip-rule="evenodd"
         id="path6" />
    </clipPath>
    <clipPath
       clipPathUnits="userSpaceOnUse"
       id="clipPath8">
      <path
         d="M 0,0.16 V 1122.5601 H 793.59998 V 0.16 Z"
         transform="translate(-290.55999,-481.11999)"
         clip-rule="evenodd"
         id="path8" />
    </clipPath>
    <clipPath
       clipPathUnits="userSpaceOnUse"
       id="clipPath10">
      <path
         d="M 0,0.16 V 1122.5601 H 793.59998 V 0.16 Z"
         transform="translate(-327.20001,-472.16)"
         clip-rule="evenodd"
         id="path10" />
    </clipPath>
    <clipPath
       clipPathUnits="userSpaceOnUse"
       id="clipPath12">
      <path
         d="M 0,0.16 V 1122.5601 H 793.59998 V 0.16 Z"
         transform="translate(-364,-463.20001)"
         clip-rule="evenodd"
         id="path12" />
    </clipPath>
    <clipPath
       clipPathUnits="userSpaceOnUse"
       id="clipPath14">
      <path
         d="M 0,0.16 V 1122.5601 H 793.59998 V 0.16 Z"
         transform="translate(-400.64001,-454.39999)"
         clip-rule="evenodd"
         id="path14" />
    </clipPath>
    <clipPath
       clipPathUnits="userSpaceOnUse"
       id="clipPath16">
      <path
         d="M 0,0.16 V 1122.5601 H 793.59998 V 0.16 Z"
         transform="translate(-217.12,-623.84003)"
         clip-rule="evenodd"
         id="path16" />
    </clipPath>
    <clipPath
       clipPathUnits="userSpaceOnUse"
       id="clipPath18">
      <path
         d="M 0,0.16 V 1122.5601 H 793.59998 V 0.16 Z"
         transform="translate(-253.91999,-632.64002)"
         clip-rule="evenodd"
         id="path18" />
    </clipPath>
    <clipPath
       clipPathUnits="userSpaceOnUse"
       id="clipPath20">
      <path
         d="M 0,0.16 V 1122.5601 H 793.59998 V 0.16 Z"
         transform="translate(-290.55999,-641.59998)"
         clip-rule="evenodd"
         id="path20" />
    </clipPath>
    <clipPath
       clipPathUnits="userSpaceOnUse"
       id="clipPath22">
      <path
         d="M 0,0.16 V 1122.5601 H 793.59998 V 0.16 Z"
         transform="translate(-327.20001,-650.40003)"
         clip-rule="evenodd"
         id="path22" />
    </clipPath>
    <clipPath
       clipPathUnits="userSpaceOnUse"
       id="clipPath24">
      <path
         d="M 0,0.16 V 1122.5601 H 793.59998 V 0.16 Z"
         transform="translate(-364,-659.35999)"
         clip-rule="evenodd"
         id="path24" />
    </clipPath>
    <clipPath
       clipPathUnits="userSpaceOnUse"
       id="clipPath26">
      <path
         d="M 0,0.16 V 1122.5601 H 793.59998 V 0.16 Z"
         transform="translate(-400.64001,-668.15997)"
         clip-rule="evenodd"
         id="path26" />
    </clipPath>
    <clipPath
       clipPathUnits="userSpaceOnUse"
       id="clipPath28">
      <path
         d="M 0,0.16 V 1122.5601 H 793.59998 V 0.16 Z"
         transform="translate(-437.44,-677.12)"
         clip-rule="evenodd"
         id="path28" />
    </clipPath>
    <clipPath
       clipPathUnits="userSpaceOnUse"
       id="clipPath30">
      <path
         d="M 0,0.16 V 1122.5601 H 793.59998 V 0.16 Z"
         transform="translate(-3.3333333e-6)"
         clip-rule="evenodd"
         id="path30" />
    </clipPath>
    <clipPath
       clipPathUnits="userSpaceOnUse"
       id="clipPath32">
      <path
         d="M 0,0.16 V 1122.5601 H 793.59998 V 0.16 Z"
         transform="translate(-437.44,-677.12)"
         clip-rule="evenodd"
         id="path32" />
    </clipPath>
    <clipPath
       clipPathUnits="userSpaceOnUse"
       id="clipPath34">
      <path
         d="M 0,0.16 V 1122.5601 H 793.59998 V 0.16 Z"
         transform="translate(-537.76001,-445.44)"
         clip-rule="evenodd"
         id="path34" />
    </clipPath>
    <clipPath
       clipPathUnits="userSpaceOnUse"
       id="clipPath36">
      <path
         d="M 0,0.16 V 1122.5601 H 793.59998 V 0.16 Z"
         transform="translate(-3.3333333e-6)"
         clip-rule="evenodd"
         id="path36" />
    </clipPath>
    <clipPath
       clipPathUnits="userSpaceOnUse"
       id="clipPath38">
      <path
         d="M 0,0.16 V 1122.5601 H 793.59998 V 0.16 Z"
         transform="translate(-3.3333333e-6)"
         clip-rule="evenodd"
         id="path38" />
    </clipPath>
  </defs>
  <sodipodi:namedview
     id="namedview1"
     pagecolor="#505050"
     bordercolor="#eeeeee"
     borderopacity="1"
     inkscape:showpageshadow="0"
     inkscape:pageopacity="0"
     inkscape:pagecheckerboard="0"
     inkscape:deskcolor="#505050">
    <inkscape:page
       x="0"
       y="0"
       inkscape:label="1"
       id="page1"
       width="489.60001"
       height="293.65332"
       margin="0"
       bleed="0" />
  </sodipodi:namedview>
  <g
     id="g1"
     inkscape:groupmode="layer"
     inkscape:label="1">
    <path
       id="path1"
       d="M 0,0 0.64,2.24 1.6,4.32 2.72,6.24 4.16,8 l 1.6,1.76 1.76,1.28 1.92,1.28 2.08,0.96 2.24,0.64 2.24,0.48 h 2.24 2.24 l 2.399999,-0.48 2.08,-0.64 2.080002,-0.96 1.919998,-1.12 1.92,-1.44 L 32.48,8.16 33.919998,6.4 35.040001,4.48 36,2.4 l 0.639999,-2.24 0.48,-2.24 0.16,-2.24 -0.16,-2.24 -0.48,-2.24"
       style="fill:none;stroke:#000000;stroke-width:26.4;stroke-linecap:round;stroke-linejoin:round;stroke-miterlimit:10;stroke-dasharray:none;stroke-opacity:1"
       transform="translate(27.066663,96.559934)"
       clip-path="url(#clipPath2)" />
    <path
       id="path3"
       d="M 0,0 0.8,2.08 1.6,4.16 2.88,6.24 4.16,8 l 1.6,1.6 1.92,1.44 1.92,1.12 2.08,0.96 2.08,0.64 2.24,0.48 2.4,0.16 2.239999,-0.16 2.24,-0.32 2.08,-0.8 2.240002,-0.8 1.92,-1.28 L 30.879999,9.76 32.48,8.16 33.919998,6.24 35.040001,4.32 36,2.24 l 0.799999,-2.08 0.32,-2.24 0.16,-2.4 -0.16,-2.24 -0.32,-2.24"
       style="fill:none;stroke:#000000;stroke-width:26.4;stroke-linecap:round;stroke-linejoin:round;stroke-miterlimit:10;stroke-dasharray:none;stroke-opacity:1"
       transform="translate(63.706662,87.759946)"
       clip-path="url(#clipPath4)" />
    <path
       id="path5"
       d="M 0,0 0.64,2.24 1.6,4.32 2.72,6.24 4.16,8 l 1.6,1.6 1.76,1.44 1.92,1.28 2.08,0.96 2.24,0.64 2.24,0.32 2.24,0.16 h 2.24 l 2.239999,-0.48 2.24,-0.64 2.080002,-0.96 1.919998,-1.12 1.76,-1.44 L 32.32,8.16 33.759998,6.4 35.040001,4.48 36,2.4 l 0.639999,-2.24 0.48,-2.24 v -2.24 -2.24 l -0.48,-2.24"
       style="fill:none;stroke:#000000;stroke-width:26.4;stroke-linecap:round;stroke-linejoin:round;stroke-miterlimit:10;stroke-dasharray:none;stroke-opacity:1"
       transform="translate(100.50666,78.799954)"
       clip-path="url(#clipPath6)" />
    <path
       id="path7"
       d="M 0,0 0.64,2.08 1.6,4.16 2.72,6.08 4.16,8 l 1.6,1.6 1.76,1.44 2.08,1.12 2.08,0.96 2.08,0.64 2.24,0.48 2.24,0.16 2.399999,-0.16 2.24,-0.48 2.08,-0.64 2.080002,-0.8 1.919998,-1.28 1.92,-1.44 L 32.48,8 33.919998,6.24 35.040001,4.32 36,2.24 l 0.639999,-2.08 0.48,-2.24 0.16,-2.4 -0.16,-2.24 -0.48,-2.24"
       style="fill:none;stroke:#000000;stroke-width:26.4;stroke-linecap:round;stroke-linejoin:round;stroke-miterlimit:10;stroke-dasharray:none;stroke-opacity:1"
       transform="translate(137.14666,69.999936)"
       clip-path="url(#clipPath8)" />
    <path
       id="path9"
       d="M 0,0 0.8,2.24 1.6,4.32 2.88,6.24 4.32,8 l 1.6,1.6 1.76,1.44 1.92,1.28 2.08,0.8 2.08,0.8 2.24,0.32 2.4,0.16 2.239999,-0.16 2.24,-0.32 2.240002,-0.64 2.08,-0.96 1.92,-1.12 L 30.879999,9.76 32.48,8.16 33.919998,6.4 35.040001,4.48 36,2.4 l 0.799999,-2.24 0.32,-2.24 0.16,-2.24 -0.16,-2.24 -0.32,-2.4"
       style="fill:none;stroke:#000000;stroke-width:26.4;stroke-linecap:round;stroke-linejoin:round;stroke-miterlimit:10;stroke-dasharray:none;stroke-opacity:1"
       transform="translate(173.78668,61.039945)"
       clip-path="url(#clipPath10)" />
    <path
       id="path11"
       d="m 0,0 0.64,2.24 0.96,2.08 1.12,1.92 1.44,1.92 1.6,1.6 1.76,1.44 1.92,1.12 2.08,0.96 2.24,0.64 2.24,0.48 2.24,0.16 2.24,-0.16 2.239999,-0.48 2.24,-0.64 2.080002,-0.96 1.919998,-1.12 1.76,-1.44 L 32.48,8.16 33.759998,6.4 35.040001,4.48 36,2.4 l 0.639999,-2.24 0.48,-2.24 v -2.24 -2.24 l -0.48,-2.24"
       style="fill:none;stroke:#000000;stroke-width:26.4;stroke-linecap:round;stroke-linejoin:round;stroke-miterlimit:10;stroke-dasharray:none;stroke-opacity:1"
       transform="translate(210.58667,52.079953)"
       clip-path="url(#clipPath12)" />
    <path
       id="path13"
       d="M 0,0 0.64,2.24 1.6,4.32 2.72,6.24 4.16,8 l 1.6,1.6 1.76,1.44 2.08,1.12 2.08,0.96 2.08,0.8 2.24,0.32 2.24,0.16 2.399999,-0.16 2.24,-0.32 2.08,-0.64 2.080002,-0.96 1.919998,-1.12 1.92,-1.44 L 32.48,8.16 33.919998,6.4 35.040001,4.32 36,2.24 l 0.639999,-2.08 0.48,-2.24 0.16,-2.24 -0.16,-2.4 -0.32,-2.24"
       style="fill:none;stroke:#000000;stroke-width:26.4;stroke-linecap:round;stroke-linejoin:round;stroke-miterlimit:10;stroke-dasharray:none;stroke-opacity:1"
       transform="translate(247.22668,43.279935)"
       clip-path="url(#clipPath14)" />
    <path
       id="path15"
       d="M 0,0 0.48,-2.24 0.64,-4.64 0.48,-6.88 0,-9.12 l -0.64,-2.24 -0.96,-2.08 -1.12,-1.92 -1.44,-1.760001 -1.6,-1.599998 L -7.68,-20.16 -9.6,-21.280001 -11.68,-22.24 l -2.08,-0.639999 -2.4,-0.320002 -2.24,-0.16 -2.239999,0.16 -2.24,0.320002 -2.240002,0.799999 -2.08,0.799999 -1.92,1.280001 -1.759998,1.440001 -1.600001,1.6 -1.439998,1.759999 -1.120003,1.92 L -36,-11.2 l -0.639999,2.24"
       style="fill:none;stroke:#000000;stroke-width:26.4;stroke-linecap:round;stroke-linejoin:round;stroke-miterlimit:10;stroke-dasharray:none;stroke-opacity:1"
       transform="translate(63.706662,212.71997)"
       clip-path="url(#clipPath16)" />
    <path
       id="path17"
       d="M 0,0 0.32,-2.24 0.48,-4.48 0.32,-6.72 0,-8.96 l -0.8,-2.24 -0.96,-2.08 -1.12,-1.92 -1.44,-1.759999 -1.6,-1.6 L -7.68,-20 -9.6,-21.120001 -11.84,-22.08 l -2.08,-0.639999 -2.24,-0.480002 -2.24,-0.16 -2.399999,0.16 -2.240002,0.480002 -2.08,0.639999 -2.08,0.959999 -1.92,1.120001 -1.92,1.440001 -1.599998,1.6 -1.279999,1.919999 -1.280003,1.92 L -36,-11.04 -36.799999,-8.8"
       style="fill:none;stroke:#000000;stroke-width:26.4;stroke-linecap:round;stroke-linejoin:round;stroke-miterlimit:10;stroke-dasharray:none;stroke-opacity:1"
       transform="translate(100.50666,221.51996)"
       clip-path="url(#clipPath18)" />
    <path
       id="path19"
       d="m 0,0 0.48,-2.24 v -2.4 -2.24 L 0,-9.12 -0.64,-11.2 -1.6,-13.28 -2.88,-15.36 -4.32,-17.120001 -5.92,-18.719999 -7.68,-20.16 -9.6,-21.280001 -11.68,-22.24 l -2.24,-0.639999 -2.24,-0.320002 -2.24,-0.16 -2.239999,0.16 -2.24,0.320002 -2.240002,0.799999 -2.08,0.959999 -1.92,1.120001 -1.759998,1.440001 -1.600001,1.6 -1.439998,1.759999 -1.120003,1.92 L -36,-11.2 l -0.639999,2.24"
       style="fill:none;stroke:#000000;stroke-width:26.4;stroke-linecap:round;stroke-linejoin:round;stroke-miterlimit:10;stroke-dasharray:none;stroke-opacity:1"
       transform="translate(137.14666,230.47992)"
       clip-path="url(#clipPath20)" />
    <path
       id="path21"
       d="M 0,0 0.48,-2.24 0.64,-4.48 0.48,-6.72 0,-8.96 l -0.64,-2.24 -0.96,-2.08 -1.12,-1.92 -1.44,-1.759999 -1.6,-1.6 L -7.68,-20 -9.6,-21.120001 -11.68,-22.08 l -2.08,-0.639999 -2.24,-0.480002 -2.4,-0.16 -2.239999,0.16 -2.24,0.480002 -2.08,0.639999 -2.080002,0.959999 -2.08,1.280001 -1.759998,1.280001 -1.600001,1.76 -1.439998,1.759999 -1.120003,1.92 L -36,-11.04 -36.639999,-8.8"
       style="fill:none;stroke:#000000;stroke-width:26.4;stroke-linecap:round;stroke-linejoin:round;stroke-miterlimit:10;stroke-dasharray:none;stroke-opacity:1"
       transform="translate(173.78668,239.27997)"
       clip-path="url(#clipPath22)" />
    <path
       id="path23"
       d="M 0,0 0.32,-2.24 0.48,-4.48 0.32,-6.88 0,-9.12 -0.8,-11.2 -1.76,-13.28 -2.88,-15.2 -4.32,-17.120001 -5.92,-18.719999 -7.68,-20 -9.6,-21.280001 -11.68,-22.08 l -2.24,-0.799999 -2.24,-0.320002 -2.24,-0.16 -2.399999,0.16 -2.240002,0.480002 -2.08,0.639999 -2.08,0.959999 -1.92,1.120001 -1.759998,1.440001 -1.600001,1.6 -1.439998,1.759999 -1.280003,2.08 -0.799999,2.08 -0.799999,2.08"
       style="fill:none;stroke:#000000;stroke-width:26.4;stroke-linecap:round;stroke-linejoin:round;stroke-miterlimit:10;stroke-dasharray:none;stroke-opacity:1"
       transform="translate(210.58667,248.23993)"
       clip-path="url(#clipPath24)" />
    <path
       id="path25"
       d="M 0,0 0.48,-2.24 V -4.48 -6.72 L 0,-8.96 l -0.64,-2.24 -0.96,-2.08 -1.28,-1.92 -1.28,-1.759999 -1.76,-1.6 L -7.68,-20 -9.6,-21.120001 -11.68,-22.08 l -2.24,-0.639999 -2.24,-0.480002 h -2.24 -2.239999 l -2.24,0.480002 -2.240002,0.639999 -2.08,0.959999 -1.92,1.280001 -1.759998,1.44 -1.600001,1.600001 -1.439998,1.759999 -1.120003,1.92 L -36,-11.04 -36.639999,-8.8"
       style="fill:none;stroke:#000000;stroke-width:26.4;stroke-linecap:round;stroke-linejoin:round;stroke-miterlimit:10;stroke-dasharray:none;stroke-opacity:1"
       transform="translate(247.22668,257.03991)"
       clip-path="url(#clipPath26)" />
    <path
       id="path27"
       d="m 0,0 0.32,-2.24 0.16,-2.24 -0.16,-2.4 -0.48,-2.24 -0.64,-2.08 -0.96,-2.08 -1.12,-1.92 -1.44,-1.759999 -1.6,-1.76 L -7.84,-20 -9.76,-21.280001 -11.84,-22.08 l -2.08,-0.799999 -2.24,-0.320002 -2.399999,-0.16 -2.24,0.16 -2.240002,0.480002 -2.08,0.639999 -2.08,0.959999 -2.08,1.120001 -1.76,1.440001 -1.599998,1.6 -1.440003,1.759999 -1.119999,2.08 -0.959999,2.08 -0.639999,2.08"
       style="fill:none;stroke:#000000;stroke-width:26.4;stroke-linecap:round;stroke-linejoin:round;stroke-miterlimit:10;stroke-dasharray:none;stroke-opacity:1"
       transform="translate(284.02667,265.99994)"
       clip-path="url(#clipPath28)" />
    <path
       id="path29"
       d="M 216.8,561.28003 H 613.28003"
       style="fill:none;stroke:#000000;stroke-width:26.4;stroke-linecap:round;stroke-linejoin:round;stroke-miterlimit:10;stroke-dasharray:none;stroke-opacity:1"
       transform="translate(-153.41333,-411.12006)"
       clip-path="url(#clipPath30)" />
    <path
       id="path31"
       d="m 0,0 6.56,-3.2 6.4,-3.52 6.240001,-3.84 5.92,-4.16 5.759998,-4.640001 L 36.32,-24.16 l 5.119999,-5.280001 4.960003,-5.44 4.479999,-5.759998 4.16,-5.920002 3.84,-6.239998 3.360001,-6.560002 3.2,-6.559997 2.720002,-6.880005 2.239998,-6.879997 1.919998,-7.040001 1.440002,-7.199997 0.959999,-7.360002 0.64,-7.2 0.319999,-7.36 -0.319999,-7.36 -0.64,-7.19999 -0.959999,-7.20002 L 72.32,-144.8 l -1.919998,-7.04 -2.239998,-7.04 -2.720002,-6.72001 -3.2,-6.72 -3.360001,-6.39999 -3.84,-6.24001 -4.16,-6.07998 -4.479999,-5.76001 -4.960003,-5.44 -5.119999,-5.28 -5.440001,-4.80001 -5.759998,-4.64 -5.92,-4.15998 L 12.96,-224.96001 6.56,-228.48 0,-231.67999"
       style="fill:none;stroke:#000000;stroke-width:26.4;stroke-linecap:round;stroke-linejoin:round;stroke-miterlimit:10;stroke-dasharray:none;stroke-opacity:1"
       transform="translate(284.02667,265.99994)"
       clip-path="url(#clipPath32)" />
    <path
       id="path33"
       d="m 0,0 -6.56,3.2 -6.4,3.52 -6.240001,3.84 -5.92,4.16 -5.759998,4.640001 L -36.32,24.16 l -5.279998,5.280001 -4.800004,5.44 -4.479999,5.759998 -4.16,6.080002 -3.84,6.239998 -3.520001,6.400002 -3.04,6.720001 -2.720002,6.720001 -2.239998,7.039993 -1.919998,7.040001 -1.440002,7.200005 -1.119995,7.199998 -0.64,7.2 -0.160003,7.36 0.160003,7.36 0.64,7.19999 1.119995,7.36 1.440002,7.20002 1.919998,7.03999 2.239998,6.88 2.720002,6.87999 3.04,6.56002 3.520001,6.55999 3.84,6.23999 4.16,5.92 4.479999,5.76001 4.800004,5.44 5.279998,5.28 5.440001,4.80001 5.759998,4.64 5.92,4.15998 6.240001,3.84002 6.4,3.51999 6.56,3.19999"
       style="fill:none;stroke:#000000;stroke-width:26.4;stroke-linecap:round;stroke-linejoin:round;stroke-miterlimit:10;stroke-dasharray:none;stroke-opacity:1"
       transform="translate(384.34668,34.319943)"
       clip-path="url(#clipPath34)" />
    <path
       id="path35"
       d="m 613.28003,542.40002 v 37.75995"
       style="fill:none;stroke:#000000;stroke-width:26.4;stroke-linecap:round;stroke-linejoin:round;stroke-miterlimit:10;stroke-dasharray:none;stroke-opacity:1"
       transform="translate(-153.41333,-411.12006)"
       clip-path="url(#clipPath36)" />
    <path
       id="path37"
       d="m 216.8,542.40002 v 37.75995"
       style="fill:none;stroke:#000000;stroke-width:26.4;stroke-linecap:round;stroke-linejoin:round;stroke-miterlimit:10;stroke-dasharray:none;stroke-opacity:1"
       transform="translate(-153.41333,-411.12006)"
       clip-path="url(#clipPath38)" />
  </g>
</svg>
