<?xml version="1.0" encoding="UTF-8" standalone="no"?>
<!-- Created with Inkscape (http://www.inkscape.org/) -->

<svg
   version="1.1"
   id="svg1"
   width="442.90668"
   height="205.56"
   viewBox="0 0 442.90668 205.56"
   sodipodi:docname="Multiplication.pdf"
   xmlns:inkscape="http://www.inkscape.org/namespaces/inkscape"
   xmlns:sodipodi="http://sodipodi.sourceforge.net/DTD/sodipodi-0.dtd"
   xmlns="http://www.w3.org/2000/svg"
   xmlns:svg="http://www.w3.org/2000/svg">
  <defs
     id="defs1">
    <clipPath
       clipPathUnits="userSpaceOnUse"
       id="clipPath2">
      <path
         d="M 0,0.16 V 1122.5601 H 793.59998 V 0.16 Z"
         transform="translate(-193.92,-533.76001)"
         clip-rule="evenodd"
         id="path2" />
    </clipPath>
    <clipPath
       clipPathUnits="userSpaceOnUse"
       id="clipPath4">
      <path
         d="M 0,0.16 V 1122.5601 H 793.59998 V 0.16 Z"
         transform="translate(-203.36,-630.08002)"
         clip-rule="evenodd"
         id="path4" />
    </clipPath>
  </defs>
  <sodipodi:namedview
     id="namedview1"
     pagecolor="#505050"
     bordercolor="#eeeeee"
     borderopacity="1"
     inkscape:showpageshadow="0"
     inkscape:pageopacity="0"
     inkscape:pagecheckerboard="0"
     inkscape:deskcolor="#505050">
    <inkscape:page
       x="0"
       y="0"
       inkscape:label="1"
       id="page1"
       width="442.90668"
       height="205.56"
       margin="0"
       bleed="0" />
  </sodipodi:namedview>
  <g
     id="g1"
     inkscape:groupmode="layer"
     inkscape:label="1">
    <path
       id="path1"
       d="m 0,0 2.88,-4.64 4.16,-7.04 4,-6.24 2.88,-4.48 5.120001,-7.36 4.479999,-5.76 4.16,-4.64 3.680001,-3.68 3.68,-3.040001 3.52,-2.239998 3.359997,-1.760002 3.360001,-1.279999 3.200001,-0.799999 3.2,-0.16 3.200001,0.32 3.200001,0.639999 3.199997,1.119999 1.600002,0.799999 3.84,2.240002 3.360001,2.240002 3.519996,2.879997 3.840004,3.52 4.32,4 4.799996,4.960001 5.760002,6.08 7.199997,7.680001 5.760003,5.919999 4.96,4.96 3.52,3.52 6.24,5.28 5.44,4.16 4.64,3.04 4.48,2.24 4,1.76 4,0.96 3.68,0.64 h 3.51999 1.28 l 2.40001,-0.32 3.36,-0.96 3.36,-1.28 3.68,-1.76 3.83999,-2.24 4,-2.88 4.16001,-3.36 4.64,-4.16 4.96,-4.8 5.76,-5.92 7.04,-7.360001 10.56,-11.359998 5.76,-5.760001 3.36,-3.2 5.75999,-5.119999 4.96001,-3.840001 4.47999,-3.04 4.16001,-2.239998 3.83999,-1.600003 L 244.8,-56.48 l 0.64,-0.159999 2.23999,-0.32 3.52001,-0.16 3.52,0.32 3.67999,0.639999 3.84,1.119999 4,1.600002 4.16,2.079998 4.32001,2.560002 4.63999,3.200001 5.12002,4 5.44,4.639999 6.4,5.759998 8.16,7.680001 6.07999,5.76 3.83999,3.68 6.08002,5.28 4.95999,3.84 4.32001,2.88 3.67999,2.08 3.84,1.76 3.20001,0.96 3.19998,0.48 3.36002,0.16 3.35998,-0.16 3.20002,-0.64 3.51999,-1.12 3.36001,-1.6 3.51999,-2.08 3.51999,-2.56 3.68002,-3.04 3.84,-3.84 4.16,-4.32 4.47998,-5.120001 4.80002,-6.24 5.91998,-7.68 2.08002,-2.719997"
       style="fill:none;stroke:#000000;stroke-width:26.4;stroke-linecap:round;stroke-linejoin:round;stroke-miterlimit:10;stroke-dasharray:none;stroke-opacity:1"
       transform="translate(20.493331,77.266618)"
       clip-path="url(#clipPath2)" />
    <path
       id="path3"
       d="m 0,0 2.88,-4.8 4.16,-6.88 4,-6.4 2.88,-4.479999 5.120001,-7.200001 4.479999,-5.92 4.16,-4.48 3.680001,-3.84 3.68,-2.880001 3.52,-2.399998 3.359997,-1.760002 3.360001,-1.279999 3.200001,-0.639999 3.2,-0.16 3.200001,0.16 3.200001,0.639999 3.199997,1.279999 1.600002,0.639999 3.84,2.240002 3.360001,2.400002 3.519996,2.719997 3.840004,3.520001 4.32,4.159999 4.799996,4.960001 5.760002,5.92 7.199997,7.680001 5.760003,6.079999 4.96,4.96 3.52,3.36 6.24,5.28 5.44,4.16 4.64,3.04 4.48,2.4 4,1.6 4,1.12 3.68,0.48 3.51999,0.16 1.28,-0.16 2.40001,-0.32 3.36,-0.8 3.36,-1.44 3.68,-1.76 3.83999,-2.24 4,-2.88 4.16001,-3.36 4.64,-4 4.96,-4.96 5.76,-5.76 7.04,-7.520001 10.56,-11.199998 5.76,-5.920001 3.36,-3.2 5.75999,-4.959999 4.96001,-4 4.47999,-2.880001 4.16001,-2.399998 3.83999,-1.600002 3.68001,-0.96 0.64,-0.159999 2.23999,-0.32 3.52001,-0.16 3.52,0.16 3.67999,0.639999 3.84,1.119999 4,1.600003 4.16,2.239997 4.32001,2.560002 4.63999,3.200001 5.12002,3.84 5.44,4.639999 6.4,5.919998 8.16,7.680001 6.07999,5.6 3.83999,3.68 6.08002,5.28 4.95999,4 4.32001,2.88 3.67999,2.08 3.84,1.6 3.20001,0.96 3.19998,0.64 3.36002,0.16 3.35998,-0.32 3.20002,-0.64 3.51999,-1.12 3.36001,-1.6 L 364,-2.4 l 3.51999,-2.56 3.68002,-3.04 3.84,-3.68 4.16,-4.32 4.47998,-5.120001 4.80002,-6.24 5.91998,-7.68 2.08002,-2.719997"
       style="fill:none;stroke:#000000;stroke-width:26.4;stroke-linecap:round;stroke-linejoin:round;stroke-miterlimit:10;stroke-dasharray:none;stroke-opacity:1"
       transform="translate(29.933334,173.58663)"
       clip-path="url(#clipPath4)" />
  </g>
</svg>
