<?xml version="1.0" encoding="UTF-8" standalone="no"?>
<!-- Created with Inkscape (http://www.inkscape.org/) -->

<svg
   version="1.1"
   id="svg1"
   width="464.25333"
   height="465.84"
   viewBox="0 0 464.25333 465.84"
   sodipodi:docname="Polish.pdf"
   xmlns:inkscape="http://www.inkscape.org/namespaces/inkscape"
   xmlns:sodipodi="http://sodipodi.sourceforge.net/DTD/sodipodi-0.dtd"
   xmlns="http://www.w3.org/2000/svg"
   xmlns:svg="http://www.w3.org/2000/svg">
  <defs
     id="defs1">
    <clipPath
       clipPathUnits="userSpaceOnUse"
       id="clipPath2">
      <path
         d="M 0,0.16 V 1122.5601 H 793.59998 V 0.16 Z"
         transform="translate(-322.07999,-389.60001)"
         clip-rule="evenodd"
         id="path2" />
    </clipPath>
    <clipPath
       clipPathUnits="userSpaceOnUse"
       id="clipPath4">
      <path
         d="M 0,0.16 V 1122.5601 H 793.59998 V 0.16 Z"
         transform="translate(-388.48001,-679.20001)"
         clip-rule="evenodd"
         id="path4" />
    </clipPath>
    <clipPath
       clipPathUnits="userSpaceOnUse"
       id="clipPath6">
      <path
         d="M 0,0.16 V 1122.5601 H 793.59998 V 0.16 Z"
         clip-rule="evenodd"
         id="path6" />
    </clipPath>
    <clipPath
       clipPathUnits="userSpaceOnUse"
       id="clipPath8">
      <path
         d="M 0,0.16 V 1122.5601 H 793.59998 V 0.16 Z"
         transform="translate(-481.12,-644.32001)"
         clip-rule="evenodd"
         id="path8" />
    </clipPath>
    <clipPath
       clipPathUnits="userSpaceOnUse"
       id="clipPath10">
      <path
         d="M 0,0.16 V 1122.5601 H 793.59998 V 0.16 Z"
         clip-rule="evenodd"
         id="path10" />
    </clipPath>
    <clipPath
       clipPathUnits="userSpaceOnUse"
       id="clipPath12">
      <path
         d="M 0,0.16 V 1122.5601 H 793.59998 V 0.16 Z"
         transform="translate(-549.59998,-643.20001)"
         clip-rule="evenodd"
         id="path12" />
    </clipPath>
    <clipPath
       clipPathUnits="userSpaceOnUse"
       id="clipPath14">
      <path
         d="M 0,0.16 V 1122.5601 H 793.59998 V 0.16 Z"
         clip-rule="evenodd"
         id="path14" />
    </clipPath>
  </defs>
  <sodipodi:namedview
     id="namedview1"
     pagecolor="#505050"
     bordercolor="#eeeeee"
     borderopacity="1"
     inkscape:showpageshadow="0"
     inkscape:pageopacity="0"
     inkscape:pagecheckerboard="0"
     inkscape:deskcolor="#505050">
    <inkscape:page
       x="0"
       y="0"
       inkscape:label="1"
       id="page1"
       width="464.25333"
       height="465.84"
       margin="0"
       bleed="0" />
  </sodipodi:namedview>
  <g
     id="g1"
     inkscape:groupmode="layer"
     inkscape:label="1">
    <path
       id="path1"
       d="M 0,0 -7.52,0.64 -15.2,1.6 -22.559999,3.04 -30.08,4.8 -37.279999,7.04 -44.48,9.76 l -6.880001,3.04 -6.880001,3.36 -6.560001,3.84 -6.399994,4.16 -6.080002,4.479999 -5.919998,4.8 -5.600006,5.120002 L -94.080002,44.16 -99.040001,49.919998 -103.84,55.84 l -4.16,6.400002 -4,6.399997 -3.52,6.720002 -3.2,7.040001 -2.88,7.04 -2.4,7.199997 -1.92,7.360001 -1.6,7.52 -1.12,7.52 -0.8,7.52 -0.31999,7.68 0.15998,7.51999 0.48002,7.68001 0.95999,7.52001 1.44,7.51999 1.76,7.36 2.24,7.36 2.72,7.04 3.04,7.04 3.36,6.88 3.84,6.56 4.16,6.39999 4.48,6.08001 4.8,5.91999 5.120003,5.60001 5.439995,5.28 5.760002,4.96001 6.080002,4.64 6.239998,4.31999 6.560001,4 6.719997,3.68001 6.880002,3.19998 7.2,2.72 7.200001,2.40002 L -25.76,268 l 7.36,1.60001 7.52,1.11999 7.68,0.63999 7.52,0.32 H 12 l 7.52,-0.63998 7.680001,-0.96002 7.36,-1.28 7.520001,-1.91999 7.199997,-2.08001 7.200001,-2.72 7.04,-3.03998 6.719998,-3.36002 6.720001,-3.67999 6.400002,-4.16 6.080001,-4.48 5.919999,-4.96001 5.599999,-5.11999 5.28,-5.44 4.96,-5.76 4.64,-6.08 4.32,-6.24001 4,-6.55999"
       style="fill:none;stroke:#000000;stroke-width:26.4;stroke-linecap:round;stroke-linejoin:round;stroke-miterlimit:10;stroke-dasharray:none;stroke-opacity:1"
       transform="translate(161.99999,23.866614)"
       clip-path="url(#clipPath2)" />
    <path
       id="path3"
       d="m 0,0 -4.16,3.04 -4.16,3.36 -4,3.68 -4,3.84 -3.84,4 -3.84,4.16 -3.84,4.32 -3.520001,4.479999 -3.36,4.640001 -3.360001,4.8 -3.039997,4.799999 -3.040001,4.799999 -2.720001,4.960003 -2.399998,4.799999 -2.240001,4.959999 -2.079998,4.800003 -1.760003,4.799996 -1.599998,4.800003 L -58.240002,83.68 -59.200001,88.160004 -60,92.480003 l -0.48,4.159996 -0.159999,4.000001 0.159999,3.84 0.32,3.68 0.64,3.36 0.959999,3.04 1.280002,2.88 1.439999,2.56 1.759998,2.24 1.920002,1.92 2.240002,1.76 2.399998,1.28 2.720001,1.12001 2.880001,0.64 3.039997,0.31999 3.200001,0.16 3.36,-0.32001 3.520001,-0.63999 3.679998,-0.96 3.84,-1.28 3.84,-1.6 4.000001,-1.92 4,-2.24 4.16,-2.56 4.16,-2.72 4,-3.04 4.16,-3.36 4,-3.52 4,-3.68 4.000001,-4.000002 3.839998,-4.159996 3.68,-4.319999 L 30.24,84.639999 33.759998,80 37.119999,75.360001 40.16,70.559998 43.200001,65.760002 45.919998,60.799999 48.48,56 50.880001,51.040001 52.959999,46.080002 54.880001,41.279999 56.48,36.639999 57.759998,32 58.880001,27.360001 59.68,23.040001 60.16,18.719999 60.48,14.72 60.32,10.88"
       style="fill:none;stroke:#000000;stroke-width:26.4;stroke-linecap:round;stroke-linejoin:round;stroke-miterlimit:10;stroke-dasharray:none;stroke-opacity:1"
       transform="translate(228.40001,313.46662)"
       clip-path="url(#clipPath4)" />
    <path
       id="path5"
       d="m 446.23999,592.79999 2.56,97.28003"
       style="fill:none;stroke:#000000;stroke-width:26.4;stroke-linecap:round;stroke-linejoin:round;stroke-miterlimit:10;stroke-dasharray:none;stroke-opacity:1"
       transform="translate(-160.08,-365.73339)"
       clip-path="url(#clipPath6)" />
    <path
       id="path7"
       d="m 0,0 -7.2,-0.32 -7.36,0.16 -7.2,0.64 -7.199999,1.12 -7.200001,1.44 -7.040001,1.92 -6.880001,2.4 -6.719997,2.72 -6.720001,3.2 -6.240002,3.519999 -6.239998,4 -5.760002,4.320002 -5.599999,4.639999 -5.279998,5.120001"
       style="fill:none;stroke:#000000;stroke-width:26.4;stroke-linecap:round;stroke-linejoin:round;stroke-miterlimit:10;stroke-dasharray:none;stroke-opacity:1"
       transform="translate(321.04,278.58662)"
       clip-path="url(#clipPath8)" />
    <path
       id="path9"
       d="m 481.12,644.32001 h 68"
       style="fill:none;stroke:#000000;stroke-width:26.4;stroke-linecap:round;stroke-linejoin:round;stroke-miterlimit:10;stroke-dasharray:none;stroke-opacity:1"
       transform="translate(-160.08,-365.73339)"
       clip-path="url(#clipPath10)" />
    <path
       id="path11"
       d="M 0,0 3.68,0.48 7.36,0.8 h 3.68 L 14.88,0.32 18.559999,-0.32 22.08,-1.44 25.6,-2.72 28.959999,-4.32 32.16,-6.24 l 3.040001,-2.24 2.880001,-2.4 2.559997,-2.56 2.400002,-2.88 2.079998,-3.2 1.920002,-3.199999 L 48.48,-26.08 l 1.279998,-3.52 0.960003,-3.679999 0.64,-3.68 0.319999,-3.68 V -44.32 l -0.319999,-3.84 -0.64,-3.68 -0.960003,-3.520001 -1.279998,-3.52 -1.439999,-3.360001 -1.920002,-3.359996 -2.079998,-3.040001 -2.400002,-2.879998 -2.559997,-2.720001 -2.880001,-2.400001 L 32.16,-78.720001 28.959999,-80.639999 25.6,-82.239998 22.08,-83.68 l -3.520001,-0.959999 -3.679999,-0.64 -3.84,-0.480003 H 7.36 L 3.68,-85.599998 0,-84.959999"
       style="fill:none;stroke:#000000;stroke-width:26.4;stroke-linecap:round;stroke-linejoin:round;stroke-miterlimit:10;stroke-dasharray:none;stroke-opacity:1"
       transform="translate(389.51998,277.46662)"
       clip-path="url(#clipPath12)" />
    <path
       id="path13"
       d="m 322.07999,389.60001 74.72,1.75998"
       style="fill:none;stroke:#000000;stroke-width:26.4;stroke-linecap:round;stroke-linejoin:round;stroke-miterlimit:10;stroke-dasharray:none;stroke-opacity:1"
       transform="translate(-160.08,-365.73339)"
       clip-path="url(#clipPath14)" />
  </g>
</svg>
