<?xml version="1.0" encoding="UTF-8" standalone="no"?>
<!-- Created with Inkscape (http://www.inkscape.org/) -->

<svg
   version="1.1"
   id="svg1"
   width="482.93332"
   height="408.45334"
   viewBox="0 0 482.93332 408.45334"
   sodipodi:docname="Powder8.pdf"
   xmlns:inkscape="http://www.inkscape.org/namespaces/inkscape"
   xmlns:sodipodi="http://sodipodi.sourceforge.net/DTD/sodipodi-0.dtd"
   xmlns="http://www.w3.org/2000/svg"
   xmlns:svg="http://www.w3.org/2000/svg">
  <defs
     id="defs1">
    <clipPath
       clipPathUnits="userSpaceOnUse"
       id="clipPath2">
      <path
         d="M 0,0.16 V 1122.5601 H 793.59998 V 0.16 Z"
         clip-rule="evenodd"
         id="path2" />
    </clipPath>
    <clipPath
       clipPathUnits="userSpaceOnUse"
       id="clipPath4">
      <path
         d="M 0,0.16 V 1122.5601 H 793.59998 V 0.16 Z"
         transform="translate(-613.12,-500.79999)"
         clip-rule="evenodd"
         id="path4" />
    </clipPath>
    <clipPath
       clipPathUnits="userSpaceOnUse"
       id="clipPath6">
      <path
         d="M 0,0.16 V 1122.5601 H 793.59998 V 0.16 Z"
         transform="translate(-176.64,-691.52002)"
         clip-rule="evenodd"
         id="path6" />
    </clipPath>
  </defs>
  <sodipodi:namedview
     id="namedview1"
     pagecolor="#505050"
     bordercolor="#eeeeee"
     borderopacity="1"
     inkscape:showpageshadow="0"
     inkscape:pageopacity="0"
     inkscape:pagecheckerboard="0"
     inkscape:deskcolor="#505050">
    <inkscape:page
       x="0"
       y="0"
       inkscape:label="1"
       id="page1"
       width="482.93332"
       height="408.45334"
       margin="0"
       bleed="0" />
  </sodipodi:namedview>
  <g
     id="g1"
     inkscape:groupmode="layer"
     inkscape:label="1">
    <path
       id="path1"
       d="M 396.79999,417.76001 276,599.03998 396.79999,780.32001 517.59998,599.03998 396.79999,417.76001"
       style="fill:none;stroke:#000000;stroke-width:26.4;stroke-linecap:round;stroke-linejoin:round;stroke-miterlimit:10;stroke-dasharray:none;stroke-opacity:1"
       transform="translate(-156.08,-393.76006)"
       clip-path="url(#clipPath2)" />
    <path
       id="path3"
       d="m 0,0 -2.88,-4.16 -3.2,-3.68 -3.2,-3.2 -3.36,-2.88 -3.52,-2.56 -3.36,-2.079999 L -23.200001,-20.16 -26.719999,-21.440001 -30.4,-22.24 l -3.519998,-0.319999 -3.68,0.159999 -3.680001,0.48 -3.52,0.960001 L -48.48,-19.52 l -3.52,1.76 -3.360001,2.24 -3.52,2.72 -3.200001,3.04 -3.199997,3.52 -3.200004,3.84 -2.879998,4.16 -2.879997,4.64 -2.720001,4.8 -2.559998,5.28 -2.400001,5.44 -2.240006,5.76 -1.919998,6.079998 L -88,40 -89.599998,46.560001 -91.040001,53.279999 -92.32,60 l -1.120002,7.040001 -0.799996,7.040001 -0.639999,7.199997 -0.32,7.200004 -0.160004,7.359993 V 103.04 l 0.160004,7.36 0.479996,7.2 0.800003,7.2 0.799995,7.04 1.120003,6.88 1.440002,6.72 1.439995,6.72 1.760002,6.4 1.919999,6.24 2.080001,5.92 2.239998,5.60001 2.400002,5.43998 L -76,186.88 l 2.720001,4.79999 2.879997,4.48001 3.040001,4 3.040001,3.84 3.200001,3.36 3.360001,2.88 3.519996,2.56 3.360001,2.08 3.52,1.76 3.680001,1.11999 3.52,0.96001 3.68,0.31999 h 3.680001 l 3.679998,-0.47999 3.520001,-0.95999 3.68,-1.44001 3.52,-1.76001 3.36,-2.23999 3.52,-2.55999 3.2,-3.04001 3.2,-3.36 3.2,-3.84 2.88,-4.16 2.88,-4.48"
       style="fill:none;stroke:#000000;stroke-width:26.4;stroke-linecap:round;stroke-linejoin:round;stroke-miterlimit:10;stroke-dasharray:none;stroke-opacity:1"
       transform="translate(457.04,107.03993)"
       clip-path="url(#clipPath4)" />
    <path
       id="path5"
       d="m 0,0 2.88,4.48 3.04,4.16 3.04,3.84 3.2,3.36 3.36,3.039999 3.359999,2.560002 L 22.4,23.68 l 3.52,1.760001 3.520001,1.439998 3.679998,0.960001 3.68,0.48 H 40.32 L 44,28 47.68,27.040001 51.200001,25.92 l 3.52,-1.76 3.520001,-2.08 3.359996,-2.56 3.360001,-2.880001 L 68.32,13.28 71.360001,9.44 74.400002,5.44 77.279999,0.96 80,-3.84 l 2.559998,-5.12 2.560005,-5.44 2.239998,-5.6 2.080001,-5.92 1.919999,-6.24 1.760002,-6.400001 1.439995,-6.719998 L 95.839996,-52 l 1.120003,-6.880001 0.959999,-7.039997 0.64,-7.200005 0.480003,-7.199997 0.32,-7.36 v -7.199997 l -0.160004,-7.360003 -0.479996,-7.2 -0.480003,-7.2 -0.959999,-7.04 -0.959999,-7.04 -1.279999,-6.72 -1.440003,-6.72 -1.760002,-6.56 -1.759994,-6.24001 L 88,-163.03999 85.760002,-168.8 l -2.400001,-5.44 -2.400002,-5.28 -2.720001,-4.80001 -2.879997,-4.64 -3.040001,-4.15998 -3.040001,-3.84002 -3.199997,-3.51999 -3.360001,-3.04 -3.36,-2.72 -3.520001,-2.24 -3.52,-1.76 -3.520001,-1.43999 -3.52,-0.96001 -3.680001,-0.47999 -3.68,-0.16001 -3.679996,0.31999 -3.520003,0.80001 -3.679998,1.28 -3.520001,1.6 -3.52,2.08 -3.360001,2.56 -3.359999,2.88001 -3.2,3.19999 -3.2,3.68 -3.04,4.16"
       style="fill:none;stroke:#000000;stroke-width:26.4;stroke-linecap:round;stroke-linejoin:round;stroke-miterlimit:10;stroke-dasharray:none;stroke-opacity:1"
       transform="translate(20.559999,297.75996)"
       clip-path="url(#clipPath6)" />
  </g>
</svg>
