<?xml version="1.0" encoding="UTF-8" standalone="no"?>
<!-- Created with Inkscape (http://www.inkscape.org/) -->

<svg
   version="1.1"
   id="svg1"
   width="485.60001"
   height="349.70667"
   viewBox="0 0 485.60001 349.70667"
   sodipodi:docname="Powder11.pdf"
   xmlns:inkscape="http://www.inkscape.org/namespaces/inkscape"
   xmlns:sodipodi="http://sodipodi.sourceforge.net/DTD/sodipodi-0.dtd"
   xmlns="http://www.w3.org/2000/svg"
   xmlns:svg="http://www.w3.org/2000/svg">
  <defs
     id="defs1">
    <clipPath
       clipPathUnits="userSpaceOnUse"
       id="clipPath2">
      <path
         d="M 0,0.16 V 1122.5601 H 793.59998 V 0.16 Z"
         transform="translate(-546.23999,-628.64001)"
         clip-rule="evenodd"
         id="path2" />
    </clipPath>
    <clipPath
       clipPathUnits="userSpaceOnUse"
       id="clipPath4">
      <path
         d="M 0,0.16 V 1122.5601 H 793.59998 V 0.16 Z"
         transform="translate(-3.3333333e-6)"
         clip-rule="evenodd"
         id="path4" />
    </clipPath>
    <clipPath
       clipPathUnits="userSpaceOnUse"
       id="clipPath6">
      <path
         d="M 0,0.16 V 1122.5601 H 793.59998 V 0.16 Z"
         transform="translate(-3.3333333e-6)"
         clip-rule="evenodd"
         id="path6" />
    </clipPath>
    <clipPath
       clipPathUnits="userSpaceOnUse"
       id="clipPath8">
      <path
         d="M 0,0.16 V 1122.5601 H 793.59998 V 0.16 Z"
         transform="translate(-180.64,-631.52002)"
         clip-rule="evenodd"
         id="path8" />
    </clipPath>
    <clipPath
       clipPathUnits="userSpaceOnUse"
       id="clipPath10">
      <path
         d="M 0,0.16 V 1122.5601 H 793.59998 V 0.16 Z"
         transform="translate(-3.3333333e-6)"
         clip-rule="evenodd"
         id="path10" />
    </clipPath>
    <clipPath
       clipPathUnits="userSpaceOnUse"
       id="clipPath12">
      <path
         d="M 0,0.16 V 1122.5601 H 793.59998 V 0.16 Z"
         transform="translate(-3.3333333e-6)"
         clip-rule="evenodd"
         id="path12" />
    </clipPath>
  </defs>
  <sodipodi:namedview
     id="namedview1"
     pagecolor="#505050"
     bordercolor="#eeeeee"
     borderopacity="1"
     inkscape:showpageshadow="0"
     inkscape:pageopacity="0"
     inkscape:pagecheckerboard="0"
     inkscape:deskcolor="#505050">
    <inkscape:page
       x="0"
       y="0"
       inkscape:label="1"
       id="page1"
       width="485.60001"
       height="349.70667"
       margin="0"
       bleed="0" />
  </sodipodi:namedview>
  <g
     id="g1"
     inkscape:groupmode="layer"
     inkscape:label="1">
    <path
       id="path1"
       d="m 0,0 -3.36,-8.8 -3.68,-8.640001 -4.16,-8.319999 -4.64,-8.320002 -4.959999,-8 -5.280001,-7.679996 -5.76,-7.520001 -6.079998,-7.200004 -6.400002,-6.879998 -6.720001,-6.559997 -7.040001,-6.240006 -7.36,-5.919998 -7.680001,-5.439995 -7.839996,-5.120003 -8.160004,-4.8 -8.319999,-4.32 -8.479998,-4 -8.8,-3.52 -8.8,-3.04 -9.12,-2.56 -9.11999,-2.24 -9.28,-1.76 -9.28002,-1.28 -9.43998,-0.80001 -9.28,-0.47999 -9.44001,0.16 -9.44,0.48 -9.28,0.96 -9.44,1.44 -9.11999,1.92 -9.12001,2.4 -8.96,2.72 -8.96,3.2 -8.64,3.68 -8.48001,4 -8.31998,4.48 -8,4.959999 -7.84,5.279999 -7.52002,5.599998 -7.19998,5.920006 -7.04001,6.400002 -6.55999,6.719993 -6.24002,6.880001 -6.07999,7.360001 -5.60001,7.52 -5.11999,7.840001 -4.79999,8.159999 -4.48001,8.32 -4,8.480001 -3.67999,8.64 -3.20002,8.8"
       style="fill:none;stroke:#000000;stroke-width:26.4;stroke-linecap:round;stroke-linejoin:round;stroke-miterlimit:10;stroke-dasharray:none;stroke-opacity:1"
       transform="translate(392.82666,205.50662)"
       clip-path="url(#clipPath2)" />
    <path
       id="path3"
       d="m 548.15997,631.52002 39.36005,89.27997"
       style="fill:none;stroke:#000000;stroke-width:26.4;stroke-linecap:round;stroke-linejoin:round;stroke-miterlimit:10;stroke-dasharray:none;stroke-opacity:1"
       transform="translate(-153.41333,-423.13339)"
       clip-path="url(#clipPath4)" />
    <path
       id="path5"
       d="m 617.12,699.67999 -49.76002,47.03998"
       style="fill:none;stroke:#000000;stroke-width:26.4;stroke-linecap:round;stroke-linejoin:round;stroke-miterlimit:10;stroke-dasharray:none;stroke-opacity:1"
       transform="translate(-153.41333,-423.13339)"
       clip-path="url(#clipPath6)" />
    <path
       id="path7"
       d="m 0,0 -1.76,3.84 -1.44,4 -1.12,4.16 -0.8,4.16 -0.32,4.32 v 4.159999 l 0.32,4.32 0.8,4.16 0.96,4 1.44,4 1.76,4 2.08,3.68 2.56,3.360001 2.56,3.36 3.04,3.040001 3.2,2.719998 L 16.799999,63.84 20.48,65.919998 24.32,67.68 l 4,1.599999 4,1.120003 4.16,0.799995 4.319999,0.480003 h 4.16 l 4.32,-0.319999 4.16,-0.64 4.159999,-1.120003 4,-1.439994 3.840004,-1.600006 3.680001,-2.079995 3.519996,-2.400001 L 76,59.360001 79.040001,56.48 81.760002,53.119999 84.32,49.759998 l 2.080002,-3.679996 1.919998,-3.84 1.599998,-3.84 1.120003,-4.16 L 91.839996,30.08 92.32,25.92 92.480003,21.6 92.160004,17.440001 91.519997,13.12 90.400002,9.12 89.120003,4.96 87.360001,1.12 85.440002,-2.56 83.040001,-6.08 80.32,-9.44 l -2.879998,-3.04 -3.200004,-2.88 -3.360001,-2.56 -3.68,-2.08"
       style="fill:none;stroke:#000000;stroke-width:26.4;stroke-linecap:round;stroke-linejoin:round;stroke-miterlimit:10;stroke-dasharray:none;stroke-opacity:1"
       transform="translate(27.226666,208.38663)"
       clip-path="url(#clipPath8)" />
    <path
       id="path9"
       d="M 365.92001,449.28 364,547.20001"
       style="fill:none;stroke:#000000;stroke-width:26.4;stroke-linecap:round;stroke-linejoin:round;stroke-miterlimit:10;stroke-dasharray:none;stroke-opacity:1"
       transform="translate(-153.41333,-423.13339)"
       clip-path="url(#clipPath10)" />
    <path
       id="path11"
       d="M 432.95999,473.28 432,562.56"
       style="fill:none;stroke:#000000;stroke-width:26.4;stroke-linecap:round;stroke-linejoin:round;stroke-miterlimit:10;stroke-dasharray:none;stroke-opacity:1"
       transform="translate(-153.41333,-423.13339)"
       clip-path="url(#clipPath12)" />
  </g>
</svg>
