<?xml version="1.0" encoding="UTF-8" standalone="no"?>
<!-- Created with Inkscape (http://www.inkscape.org/) -->

<svg
   version="1.1"
   id="svg1"
   width="517.61334"
   height="511.22668"
   viewBox="0 0 517.61334 511.22668"
   sodipodi:docname="Purification7.pdf"
   xmlns:inkscape="http://www.inkscape.org/namespaces/inkscape"
   xmlns:sodipodi="http://sodipodi.sourceforge.net/DTD/sodipodi-0.dtd"
   xmlns="http://www.w3.org/2000/svg"
   xmlns:svg="http://www.w3.org/2000/svg">
  <defs
     id="defs1">
    <clipPath
       clipPathUnits="userSpaceOnUse"
       id="clipPath2">
      <path
         d="M 26.4,26.559999 V 1096.16 H 767.03998 V 26.559999 Z"
         clip-rule="evenodd"
         id="path2" />
    </clipPath>
    <clipPath
       clipPathUnits="userSpaceOnUse"
       id="clipPath4">
      <path
         d="M 26.4,26.559999 V 1096.16 H 767.03998 V 26.559999 Z"
         clip-rule="evenodd"
         id="path4" />
    </clipPath>
    <clipPath
       clipPathUnits="userSpaceOnUse"
       id="clipPath6">
      <path
         d="M 26.4,26.559999 V 1096.16 H 767.03998 V 26.559999 Z"
         clip-rule="evenodd"
         id="path6" />
    </clipPath>
    <clipPath
       clipPathUnits="userSpaceOnUse"
       id="clipPath8">
      <path
         d="M 26.4,26.559999 V 1096.16 H 767.03998 V 26.559999 Z"
         transform="translate(-326.72,-869.91998)"
         clip-rule="evenodd"
         id="path8" />
    </clipPath>
    <clipPath
       clipPathUnits="userSpaceOnUse"
       id="clipPath10">
      <path
         d="M 26.4,26.559999 V 1096.16 H 767.03998 V 26.559999 Z"
         transform="translate(-515.52002,-598.08002)"
         clip-rule="evenodd"
         id="path10" />
    </clipPath>
    <clipPath
       clipPathUnits="userSpaceOnUse"
       id="clipPath12">
      <path
         d="M 26.4,26.559999 V 1096.16 H 767.03998 V 26.559999 Z"
         clip-rule="evenodd"
         id="path12" />
    </clipPath>
    <clipPath
       clipPathUnits="userSpaceOnUse"
       id="clipPath14">
      <path
         d="M 26.4,26.559999 V 1096.16 H 767.03998 V 26.559999 Z"
         clip-rule="evenodd"
         id="path14" />
    </clipPath>
  </defs>
  <sodipodi:namedview
     id="namedview1"
     pagecolor="#505050"
     bordercolor="#eeeeee"
     borderopacity="1"
     inkscape:showpageshadow="0"
     inkscape:pageopacity="0"
     inkscape:pagecheckerboard="0"
     inkscape:deskcolor="#505050">
    <inkscape:page
       x="0"
       y="0"
       inkscape:label="1"
       id="page1"
       width="517.61334"
       height="511.22668"
       margin="0"
       bleed="0" />
  </sodipodi:namedview>
  <g
     id="g1"
     inkscape:groupmode="layer"
     inkscape:label="1">
    <path
       id="path1"
       d="m 175.67999,869.91998 h 453.12"
       style="fill:none;stroke:#000000;stroke-width:26.4;stroke-linecap:round;stroke-linejoin:round;stroke-miterlimit:10;stroke-dasharray:none;stroke-opacity:1"
       transform="translate(0,-149.49339)"
       clip-path="url(#clipPath2)" />
    <path
       id="path3"
       d="M 326.72,869.91998 440,416.95999"
       style="fill:none;stroke:#000000;stroke-width:26.4;stroke-linecap:round;stroke-linejoin:round;stroke-miterlimit:10;stroke-dasharray:none;stroke-opacity:1"
       transform="translate(0,-149.49339)"
       clip-path="url(#clipPath4)" />
    <path
       id="path5"
       d="M 440,416.95999 H 628.79999"
       style="fill:none;stroke:#000000;stroke-width:26.4;stroke-linecap:round;stroke-linejoin:round;stroke-miterlimit:10;stroke-dasharray:none;stroke-opacity:1"
       transform="translate(0,-149.49339)"
       clip-path="url(#clipPath6)" />
    <path
       id="path7"
       d="M 0,0 -1.28,-20.48 -3.2,-41.119999 -5.44,-61.599998 -8.16,-82.080002 -11.36,-102.4 l -3.52,-20.16 -3.999999,-20 -4.480002,-20 L -28.32,-182.39999 -33.599998,-202.08 -39.360001,-221.60001 -45.599998,-240.8 -52.16,-259.84 l -7.040001,-18.88 -7.52,-18.72 -7.839997,-18.4 -8.160003,-18.08001 -8.64,-17.91999 -8.959999,-17.6 -9.44,-17.44 -9.76,-16.96 -10.08001,-16.80001 -10.55999,-16.31998 -10.87999,-16"
       style="fill:none;stroke:#000000;stroke-width:26.4;stroke-linecap:round;stroke-linejoin:round;stroke-miterlimit:10;stroke-dasharray:none;stroke-opacity:1"
       transform="translate(326.72,720.42659)"
       clip-path="url(#clipPath8)" />
    <path
       id="path9"
       d="m 0,0 6.88,-0.16 6.72,-0.48 6.72,-0.8 6.720001,-1.12 L 33.439999,-4 40,-5.76 46.240002,-7.84 52.32,-10.24 58.240002,-12.8 64,-15.84 69.440002,-19.040001 74.720001,-22.4 79.68,-26.08 l 4.64,-4 4.480003,-4.160002 4,-4.319999 3.68,-4.64 L 100,-47.84 l 3.04,-4.959999 2.56,-4.959999 2.24,-5.120003 1.92,-5.280003 1.44,-5.279998 1.12,-5.279999 0.64,-5.440003 0.32,-5.439994 -0.16,-5.440003 -0.48,-5.439999 -0.96,-5.28 -1.28,-5.44 -1.76,-5.28 -2.08,-5.12 -2.56,-4.96 -2.88,-4.96 -3.359998,-4.80001 -3.520004,-4.64 -4,-4.31999 -4.159996,-4.32001 -4.64,-4 -4.800003,-3.83999 -5.279998,-3.52001 L 66.080002,-164.16 60.32,-167.2 54.560001,-170.08 48.48,-172.48 42.240002,-174.72 35.84,-176.48"
       style="fill:none;stroke:#000000;stroke-width:26.4;stroke-linecap:round;stroke-linejoin:round;stroke-miterlimit:10;stroke-dasharray:none;stroke-opacity:1"
       transform="translate(515.52002,448.58663)"
       clip-path="url(#clipPath10)" />
    <path
       id="path11"
       d="M 515.52002,598.08002 393.28,600.32001"
       style="fill:none;stroke:#000000;stroke-width:26.4;stroke-linecap:round;stroke-linejoin:round;stroke-miterlimit:10;stroke-dasharray:none;stroke-opacity:1"
       transform="translate(0,-149.49339)"
       clip-path="url(#clipPath12)" />
    <path
       id="path13"
       d="M 515.52002,598.08002 559.03998,858.56"
       style="fill:none;stroke:#000000;stroke-width:26.4;stroke-linecap:round;stroke-linejoin:round;stroke-miterlimit:10;stroke-dasharray:none;stroke-opacity:1"
       transform="translate(0,-149.49339)"
       clip-path="url(#clipPath14)" />
  </g>
</svg>
