<?xml version="1.0" encoding="UTF-8" standalone="no"?>
<!-- Created with Inkscape (http://www.inkscape.org/) -->

<svg
   version="1.1"
   id="svg1"
   width="357.51999"
   height="317.67999"
   viewBox="0 0 357.51999 317.67999"
   sodipodi:docname="Purification.pdf"
   xmlns:inkscape="http://www.inkscape.org/namespaces/inkscape"
   xmlns:sodipodi="http://sodipodi.sourceforge.net/DTD/sodipodi-0.dtd"
   xmlns="http://www.w3.org/2000/svg"
   xmlns:svg="http://www.w3.org/2000/svg">
  <defs
     id="defs1">
    <clipPath
       clipPathUnits="userSpaceOnUse"
       id="clipPath2">
      <path
         d="M 0,0.16 V 1122.5601 H 793.59998 V 0.16 Z"
         transform="translate(-297.76001,-537.28003)"
         clip-rule="evenodd"
         id="path2" />
    </clipPath>
    <clipPath
       clipPathUnits="userSpaceOnUse"
       id="clipPath4">
      <path
         d="M 0,0.16 V 1122.5601 H 793.59998 V 0.16 Z"
         transform="translate(-296.95999,-595.67999)"
         clip-rule="evenodd"
         id="path4" />
    </clipPath>
    <clipPath
       clipPathUnits="userSpaceOnUse"
       id="clipPath6">
      <path
         d="M 0,0.16 V 1122.5601 H 793.59998 V 0.16 Z"
         transform="translate(-296.95999,-653.44)"
         clip-rule="evenodd"
         id="path6" />
    </clipPath>
    <clipPath
       clipPathUnits="userSpaceOnUse"
       id="clipPath8">
      <path
         d="M 0,0.16 V 1122.5601 H 793.59998 V 0.16 Z"
         clip-rule="evenodd"
         id="path8" />
    </clipPath>
    <clipPath
       clipPathUnits="userSpaceOnUse"
       id="clipPath10">
      <path
         d="M 0,0.16 V 1122.5601 H 793.59998 V 0.16 Z"
         transform="translate(-273.76001,-453.44)"
         clip-rule="evenodd"
         id="path10" />
    </clipPath>
    <clipPath
       clipPathUnits="userSpaceOnUse"
       id="clipPath12">
      <path
         d="M 0,0.16 V 1122.5601 H 793.59998 V 0.16 Z"
         transform="translate(-557.76001,-451.83999)"
         clip-rule="evenodd"
         id="path12" />
    </clipPath>
  </defs>
  <sodipodi:namedview
     id="namedview1"
     pagecolor="#505050"
     bordercolor="#eeeeee"
     borderopacity="1"
     inkscape:showpageshadow="0"
     inkscape:pageopacity="0"
     inkscape:pagecheckerboard="0"
     inkscape:deskcolor="#505050">
    <inkscape:page
       x="0"
       y="0"
       inkscape:label="1"
       id="page1"
       width="357.51999"
       height="317.67999"
       margin="0"
       bleed="0" />
  </sodipodi:namedview>
  <g
     id="g1"
     inkscape:groupmode="layer"
     inkscape:label="1">
    <path
       id="path1"
       d="m 0,0 1.44,-4.64 2.08,-7.04 1.92,-6.4 1.6,-4.479999 2.56,-7.360001 2.24,-5.76 1.92,-4.64 1.92,-3.68 1.92,-3.040001 1.600001,-2.239998 1.759998,-1.760002 1.76,-1.279999 1.600001,-0.639999 1.6,-0.16 1.6,0.16 1.600001,0.799999 1.599998,1.119999 0.640002,0.639999 1.919998,2.240002 1.760002,2.400002 1.759998,2.879997 1.920002,3.360001 2.239998,4.159999 2.400002,5.120001 2.880001,6.08 3.679996,8 3.84,7.68 L 56,-3.84 l 1.759998,3.04 2.880001,4.96 2.560002,3.68 2.399997,2.88 2.080002,2.24 2.080002,1.44 1.919998,0.96 1.919998,0.48 h 1.760003 l 0.159996,-0.16 1.120002,-0.32 1.760003,-0.8 1.760002,-1.28 1.759994,-1.92 L 83.839996,9.12 85.760002,6.24 88,2.88 l 2.239998,-4 2.560005,-4.8 2.719994,-5.92 3.520004,-7.360001 5.439999,-11.359998 2.88,-5.920001 1.6,-3.2 2.88,-4.959999 2.4,-4 2.24,-2.880001 2.08,-2.239998 1.92,-1.760002 1.92,-0.96 0.32,-0.159999 1.12,-0.32 1.76,-0.16 1.76,0.16 1.75999,0.799999 1.92,1.119999 2.08,1.600002 2.08001,2.079998 2.08,2.560002 2.39999,3.200001 2.56001,3.84 2.72001,4.799999 3.19999,5.759998 4.16001,8 4.31999,8.000001 1.75999,3.2 2.88001,4.8 2.24,3.36 2.08001,2.72 1.11999,1.12 1.92,1.6 1.6,0.96 1.6,0.64 1.6,0.16 1.76,-0.32 1.6,-0.64 1.76,-1.12 1.76001,-1.6 1.75999,-2.08 1.76,-2.56 1.91999,-3.2 1.92,-3.68 2.08,-4.48 2.24001,-5.28 2.39999,-6.24 3.04001,-7.84 0.8,-2.079998"
       style="fill:none;stroke:#000000;stroke-width:26.4;stroke-linecap:round;stroke-linejoin:round;stroke-miterlimit:10;stroke-dasharray:none;stroke-opacity:1"
       transform="translate(297.76001,535.94664)"
       clip-path="url(#clipPath2)" />
    <path
       id="path3"
       d="m 0,0 1.44,-4.64 2.08,-7.04 2.08,-6.24 1.44,-4.639999 2.56,-7.200001 2.24,-5.76 2.08,-4.64 1.92,-3.68 1.76,-3.040001 1.760001,-2.399998 1.599998,-1.760002 1.76,-1.119999 1.600001,-0.799999 1.6,-0.16 1.6,0.32 1.600001,0.639999 1.599998,1.279999 L 31.52,-50.240002 33.439999,-48 l 1.600002,2.240002 1.759998,2.879997 1.920002,3.52 2.239998,4.16 2.400002,4.960001 2.880001,6.08 3.84,8.16 3.679996,7.68 2.400002,4.48 1.599998,3.04 2.880001,4.96 2.720002,3.84 2.239997,2.88 2.239998,2.08 1.920006,1.6 1.919998,0.96 1.919998,0.32 h 1.760003 0.159996 l 1.120002,-0.32 1.760003,-0.96 1.760002,-1.28 1.759994,-1.76 L 83.839996,9.28 85.760002,6.4 88,3.04 l 2.239998,-4.16 2.560005,-4.8 2.879997,-5.92 3.360001,-7.360001 5.439999,-11.359998 2.88,-5.760001 1.6,-3.2 2.88,-5.119999 2.56,-3.840001 2.24,-3.04 2.08,-2.239998 1.92,-1.600003 1.76,-1.119999 h 0.32 l 1.12,-0.479999 1.76,-0.16 1.76,0.32 1.92,0.639999 1.92,1.119999 1.91999,1.600002 2.08001,2.079998 2.24,2.560002 2.23999,3.36 2.56001,3.840001 2.72001,4.639999 3.19999,5.919998 4.32,7.84 4.16,8.000001 1.92,3.36 2.72,4.64 2.39999,3.52 1.92002,2.56 1.11999,1.12 1.92,1.76 1.6,0.96 1.6,0.48 1.76001,0.16 L 175.2,3.2 176.96001,2.4 178.56,1.28 l 1.76001,-1.6 1.75999,-2.08 1.76,-2.56 1.91999,-3.04 1.92,-3.84 2.08,-4.32 2.24001,-5.280001 2.39999,-6.239999 3.04001,-8 0.8,-1.919998"
       style="fill:none;stroke:#000000;stroke-width:26.4;stroke-linecap:round;stroke-linejoin:round;stroke-miterlimit:10;stroke-dasharray:none;stroke-opacity:1"
       transform="translate(296.95999,594.3466)"
       clip-path="url(#clipPath4)" />
    <path
       id="path5"
       d="m 0,0 1.44,-4.64 2.08,-7.04 2.08,-6.4 1.44,-4.479999 2.56,-7.200001 2.24,-5.92 2.08,-4.48 1.92,-3.84 1.76,-2.880001 1.760001,-2.399998 1.599998,-1.760002 1.76,-1.279999 1.600001,-0.639999 1.6,-0.16 1.6,0.16 1.600001,0.799999 1.599998,1.119999 0.800001,0.799999 1.919999,2.080002 1.600002,2.400002 1.759998,2.879997 1.920002,3.52 2.239998,4.16 2.400002,4.960001 2.880001,6.08 3.84,8 3.679996,7.84 2.400002,4.48 1.599998,3.04 2.880001,4.96 2.720002,3.84 2.239997,2.88 2.239998,2.08 1.920006,1.44 1.919998,0.96 1.919998,0.48 h 1.760003 0.159996 l 1.120002,-0.48 1.760003,-0.8 1.760002,-1.28 1.759994,-1.76 1.919998,-2.4 L 85.760002,6.4 88,2.88 l 2.239998,-4 2.560005,-4.8 2.879997,-5.92 3.360001,-7.360001 5.439999,-11.359998 2.88,-5.920001 1.6,-3.2 2.88,-4.959999 2.56,-3.840001 2.24,-3.04 2.08,-2.239998 1.92,-1.600003 1.76,-1.119999 0.32,-0.159999 1.12,-0.32 1.76,-0.16 1.76,0.16 1.92,0.799999 1.92,1.119999 1.91999,1.600002 2.08001,2.079998 2.24,2.560002 2.23999,3.200001 2.56001,3.84 2.72001,4.799999 3.19999,5.759998 4.32,8 4.16,8.000001 1.92,3.36 2.72,4.64 2.39999,3.52 1.92002,2.56 1.11999,1.12 1.92,1.6 1.6,0.96 1.6,0.64 1.76001,0.16 L 175.2,3.2 176.96001,2.4 178.56,1.28 l 1.76001,-1.6 1.75999,-2.08 1.76,-2.56 1.91999,-3.2 1.92,-3.68 2.08,-4.48 2.24001,-5.120001 2.39999,-6.399999 3.04001,-7.84 0.8,-2.079998"
       style="fill:none;stroke:#000000;stroke-width:26.4;stroke-linecap:round;stroke-linejoin:round;stroke-miterlimit:10;stroke-dasharray:none;stroke-opacity:1"
       transform="translate(296.95999,652.10661)"
       clip-path="url(#clipPath6)" />
    <path
       id="path7"
       d="M 274.23999,453.28 V 679.67999 L 293.12,698.56 h 207.67999 l 18.88,-18.88001 V 453.28"
       style="fill:none;stroke:#000000;stroke-width:26.4;stroke-linecap:round;stroke-linejoin:round;stroke-miterlimit:10;stroke-dasharray:none;stroke-opacity:1"
       transform="translate(0,-1.333392)"
       clip-path="url(#clipPath8)" />
    <path
       id="path9"
       d="M 0,0 -0.16,-3.04 -0.48,-6.08 -0.96,-9.12 -1.6,-12 -2.56,-14.72 -3.68,-17.280001 -4.8,-19.68 l -1.44,-2.24 -1.6,-1.92 -1.6,-1.600001 -1.76,-1.439998 L -13.12,-28 l -1.92,-0.799999 -1.919999,-0.480002 -1.92,-0.16 -2.08,0.16 -1.92,0.480002 -1.92,0.799999 -1.76,1.120001 -1.760001,1.439998 -1.76,1.600001 -1.44,1.92 -1.439999,2.24 -1.280003,2.399999 L -35.200001,-14.72 -36.16,-12 l -0.639999,2.88 -0.64,3.04 -0.319999,3.04 V 0"
       style="fill:none;stroke:#000000;stroke-width:26.4;stroke-linecap:round;stroke-linejoin:round;stroke-miterlimit:10;stroke-dasharray:none;stroke-opacity:1"
       transform="translate(273.76001,452.10661)"
       clip-path="url(#clipPath10)" />
    <path
       id="path11"
       d="m 0,0 -0.16,-2.72 -0.32,-2.88 -0.48,-2.72 -0.8,-2.72 -0.8,-2.56 -1.12,-2.24 -1.28,-2.24 -1.28,-2.08 -1.6,-1.76 -1.6,-1.6 -1.76,-1.279999 -1.92,-0.960001 -1.92,-0.799999 -1.919999,-0.32 -1.92,-0.160002 -2.08,0.160002 -1.92,0.32 -1.92,0.799999 -1.76,0.960001 L -28.32,-23.52 l -1.76,1.6 -1.44,1.76 -1.439999,2.08 -1.280003,2.24 -1.119999,2.24 -0.799999,2.56 -0.799999,2.72 -0.48,2.72 -0.319999,2.88 V 0"
       style="fill:none;stroke:#000000;stroke-width:26.4;stroke-linecap:round;stroke-linejoin:round;stroke-miterlimit:10;stroke-dasharray:none;stroke-opacity:1"
       transform="translate(557.76001,450.5066)"
       clip-path="url(#clipPath12)" />
  </g>
</svg>
