<?xml version="1.0" encoding="UTF-8" standalone="no"?>
<!-- Created with Inkscape (http://www.inkscape.org/) -->

<svg
   version="1.1"
   id="svg1"
   width="498.93332"
   height="512.56"
   viewBox="0 0 498.93332 512.56"
   sodipodi:docname="Reduction.pdf"
   xmlns:inkscape="http://www.inkscape.org/namespaces/inkscape"
   xmlns:sodipodi="http://sodipodi.sourceforge.net/DTD/sodipodi-0.dtd"
   xmlns="http://www.w3.org/2000/svg"
   xmlns:svg="http://www.w3.org/2000/svg">
  <defs
     id="defs1">
    <clipPath
       clipPathUnits="userSpaceOnUse"
       id="clipPath2">
      <path
         d="M 0,0.16 V 1122.5601 H 793.59998 V 0.16 Z"
         transform="translate(-173.44,-789.59998)"
         clip-rule="evenodd"
         id="path2" />
    </clipPath>
    <clipPath
       clipPathUnits="userSpaceOnUse"
       id="clipPath4">
      <path
         d="M 0,0.16 V 1122.5601 H 793.59998 V 0.16 Z"
         transform="translate(-173.44,-791.03998)"
         clip-rule="evenodd"
         id="path4" />
    </clipPath>
  </defs>
  <sodipodi:namedview
     id="namedview1"
     pagecolor="#505050"
     bordercolor="#eeeeee"
     borderopacity="1"
     inkscape:showpageshadow="0"
     inkscape:pageopacity="0"
     inkscape:pagecheckerboard="0"
     inkscape:deskcolor="#505050">
    <inkscape:page
       x="0"
       y="0"
       inkscape:label="1"
       id="page1"
       width="498.93332"
       height="512.56"
       margin="0"
       bleed="0" />
  </sodipodi:namedview>
  <g
     id="g1"
     inkscape:groupmode="layer"
     inkscape:label="1">
    <path
       id="path1"
       d="m 0,0 5.6,-1.6 5.6,-1.92 5.920001,-2.24 5.92,-2.72 6.24,-3.2 6.239999,-3.52 6.399998,-3.840001 6.400002,-4.16 L 54.880001,-27.84 61.599998,-32.799999 68.32,-38.240002 75.040001,-43.84 81.919998,-49.919998 88.800003,-56.16 95.68,-62.720001 l 6.88,-7.040001 6.88,-7.199997 6.88,-7.360001 6.72,-7.840004 6.88,-7.839996 6.72,-8.32 6.56,-8.32 6.72,-8.64 6.40001,-8.8 6.39999,-8.95999 6.39999,-9.12001 6.08001,-9.12 6.08,-9.44 5.92,-9.44 5.76001,-9.59999 5.43998,-9.60001 5.44001,-9.60001 5.27999,-9.75999 4.96001,-9.76 4.8,-9.76 4.64,-9.6 4.32,-9.76001 4.16,-9.6 3.84,-9.44 3.68,-9.43998 3.51999,-9.44 3.20001,-9.28 2.87999,-9.12002 2.56,-8.79999 2.40001,-8.79999 2.08,-8.64001 1.76001,-8.32001 1.59998,-8.31998 1.28,-7.84002 0.96002,-7.68 0.63998,-7.51999 0.32001,-7.20001 0.16,-6.88 -0.16,-6.56 -0.48001,-6.23999 -0.79999,-6.07999 -1.11999,-5.6 -1.28,-5.28 -1.76001,-4.96002 -1.92,-4.63999 -2.08,-4.16 -2.56,-3.84 -2.72,-3.51999 -3.03999,-3.04001 -3.20002,-2.72 -3.51999,-2.23999 -3.68,-1.92001 -4,-1.44 -4.32,-1.12 -4.48001,-0.64001 -4.64,-0.31998 -4.95999,0.16 -4.96,0.47998 -5.28,0.96 -5.44,1.44 -5.76,1.76001 -5.75999,2.23999 -5.92002,2.56 -6.07998,2.88 -6.24001,3.36002 -6.24,3.83999 -6.56,4.16001 -6.56,4.47998 -6.56,4.80001 -6.72,5.12 -6.72,5.60001 -6.88,5.91998 -6.72,6.08002 -6.88,6.55999 -7.040004,6.72"
       style="fill:none;stroke:#000000;stroke-width:26.4;stroke-linecap:round;stroke-linejoin:round;stroke-miterlimit:10;stroke-dasharray:none;stroke-opacity:1"
       transform="translate(173.44,785.59992)"
       clip-path="url(#clipPath2)" />
    <path
       id="path3"
       d="M 0,0 6.72,0.16 13.76,0 20.959999,-0.64 28.48,-1.6 l 7.84,-1.28 8,-1.6 8.16,-2.08 8.479999,-2.24 8.639999,-2.72 8.800004,-3.04 9.119995,-3.36 9.120002,-3.68 9.280001,-4 9.44,-4.32 9.6,-4.640001 9.76,-4.8 9.76,-5.279998 9.76,-5.440003 9.92,-5.919998 9.92,-5.919998 10.08,-6.400002 9.92,-6.559997 9.92,-6.720001 10.08,-7.040001 9.92,-7.199997 9.92,-7.520004 9.75999,-7.52 9.76001,-7.84 9.60001,-8 9.6,-8.16 9.43998,-8.32 9.12002,-8.47999 9.12,-8.48001 8.95999,-8.64 8.79999,-8.80001 8.64001,-8.79998 8.32001,-8.96001 8.16,-8.96001 8,-8.95999 7.67999,-8.96 7.35999,-9.12 7.20001,-8.96001 6.88001,-8.95999 6.55999,-8.95999 6.24,-8.96002 6.08001,-8.95999 5.59998,-8.79999 5.28,-8.64002 5.12002,-8.63998 4.63999,-8.48001 4.32,-8.48001 3.84,-8.15998 3.67999,-8.16 3.20001,-7.84 2.72001,-7.84002 2.55999,-7.51999 2.07999,-7.35999 1.60001,-7.20001 1.28,-6.88 0.95999,-6.72 0.48001,-6.56 0.16,-6.23999 -0.16,-5.92002 -0.63999,-5.6 -1.12002,-5.44 -1.44,-5.12 -1.75998,-4.79999 -2.24002,-4.48001 -2.56,-4.31998 -3.03998,-3.84002 -3.20001,-3.51999 -3.68,-3.20001 -4.16,-3.03998 -4.32001,-2.56 -4.79998,-2.08002 -5.12,-1.91998 -5.44,-1.60001 -5.76001,-1.11999 -6.07999,-0.80002 -6.40002,-0.47998 -6.72,-0.16 -6.87998,0.16 -7.36001,0.63999"
       style="fill:none;stroke:#000000;stroke-width:26.4;stroke-linecap:round;stroke-linejoin:round;stroke-miterlimit:10;stroke-dasharray:none;stroke-opacity:1"
       transform="translate(173.44,787.03992)"
       clip-path="url(#clipPath4)" />
  </g>
</svg>
