<?xml version="1.0" encoding="UTF-8" standalone="no"?>
<!-- Created with Inkscape (http://www.inkscape.org/) -->

<svg
   version="1.1"
   id="svg1"
   width="393.54666"
   height="445.81332"
   viewBox="0 0 393.54666 445.81332"
   sodipodi:docname="Separation2.pdf"
   xmlns:inkscape="http://www.inkscape.org/namespaces/inkscape"
   xmlns:sodipodi="http://sodipodi.sourceforge.net/DTD/sodipodi-0.dtd"
   xmlns="http://www.w3.org/2000/svg"
   xmlns:svg="http://www.w3.org/2000/svg">
  <defs
     id="defs1">
    <clipPath
       clipPathUnits="userSpaceOnUse"
       id="clipPath2">
      <path
         d="M 0,0.16 V 1122.5601 H 793.59998 V 0.16 Z"
         transform="translate(-314.39999,-416)"
         clip-rule="evenodd"
         id="path2" />
    </clipPath>
    <clipPath
       clipPathUnits="userSpaceOnUse"
       id="clipPath4">
      <path
         d="M 0,0.16 V 1122.5601 H 793.59998 V 0.16 Z"
         transform="translate(-408.79998,-416)"
         clip-rule="evenodd"
         id="path4" />
    </clipPath>
    <clipPath
       clipPathUnits="userSpaceOnUse"
       id="clipPath6">
      <path
         d="M 0,0.16 V 1122.5601 H 793.59998 V 0.16 Z"
         transform="translate(-503.20001,-416)"
         clip-rule="evenodd"
         id="path6" />
    </clipPath>
    <clipPath
       clipPathUnits="userSpaceOnUse"
       id="clipPath8">
      <path
         d="M 0,0.16 V 1122.5601 H 793.59998 V 0.16 Z"
         transform="translate(-3.3333334e-6)"
         clip-rule="evenodd"
         id="path8" />
    </clipPath>
    <clipPath
       clipPathUnits="userSpaceOnUse"
       id="clipPath10">
      <path
         d="M 0,0.16 V 1122.5601 H 793.59998 V 0.16 Z"
         transform="translate(-3.3333334e-6)"
         clip-rule="evenodd"
         id="path10" />
    </clipPath>
    <clipPath
       clipPathUnits="userSpaceOnUse"
       id="clipPath12">
      <path
         d="M 0,0.16 V 1122.5601 H 793.59998 V 0.16 Z"
         transform="translate(-3.3333334e-6)"
         clip-rule="evenodd"
         id="path12" />
    </clipPath>
    <clipPath
       clipPathUnits="userSpaceOnUse"
       id="clipPath14">
      <path
         d="M 0,0.16 V 1122.5601 H 793.59998 V 0.16 Z"
         transform="translate(-464,-706.56)"
         clip-rule="evenodd"
         id="path14" />
    </clipPath>
    <clipPath
       clipPathUnits="userSpaceOnUse"
       id="clipPath16">
      <path
         d="M 0,0.16 V 1122.5601 H 793.59998 V 0.16 Z"
         transform="translate(-3.3333334e-6)"
         clip-rule="evenodd"
         id="path16" />
    </clipPath>
  </defs>
  <sodipodi:namedview
     id="namedview1"
     pagecolor="#505050"
     bordercolor="#eeeeee"
     borderopacity="1"
     inkscape:showpageshadow="0"
     inkscape:pageopacity="0"
     inkscape:pagecheckerboard="0"
     inkscape:deskcolor="#505050">
    <inkscape:page
       x="0"
       y="0"
       inkscape:label="1"
       id="page1"
       width="393.54666"
       height="445.81332"
       margin="0"
       bleed="0" />
  </sodipodi:namedview>
  <g
     id="g1"
     inkscape:groupmode="layer"
     inkscape:label="1">
    <path
       id="path1"
       d="m 0,0 0.64,-4.16 0.32,-4.16 -0.16,-4 -0.32,-4.16 -0.8,-4.159999 -1.12,-4 -1.6,-3.840001 -1.76,-3.68 -2.08,-3.68 -2.4,-3.360001 -2.72,-3.040001 -3.04,-3.039997 -3.2,-2.560001 -3.36,-2.400002 -3.520001,-2.079998 -3.839998,-1.599998 -3.84,-1.440003 -4,-1.119999 -4.16,-0.639999 -4.16,-0.479999 h -4.16 l -4.16,0.479999 -4,0.639999 -4,1.119999 -4.000003,1.440003 -3.680001,1.599998 -3.68,2.079998 -3.360001,2.400002 -3.199997,2.560001 -3.040001,3.039997 -2.720001,3.040001 -2.399994,3.360001 -2.080001,3.68 -1.760003,3.68 -1.440002,3.840001 -1.119995,4 -0.800003,4.159999 -0.479996,4.16 -0.160004,4 0.32,4.16 0.639999,4.16"
       style="fill:none;stroke:#000000;stroke-width:26.4;stroke-linecap:round;stroke-linejoin:round;stroke-miterlimit:10;stroke-dasharray:none;stroke-opacity:1"
       transform="translate(115.62666,78.293275)"
       clip-path="url(#clipPath2)" />
    <path
       id="path3"
       d="m 0,0 0.64,-4.16 0.32,-4.16 -0.16,-4 -0.32,-4.16 -0.8,-4.159999 -1.12,-4 -1.6,-3.840001 -1.76,-3.68 -2.08,-3.68 -2.4,-3.360001 -2.72,-3.040001 -3.04,-3.039997 -3.2,-2.560001 -3.36,-2.400002 -3.520001,-2.079998 -3.839998,-1.599998 -3.84,-1.440003 -4.16,-1.119999 -4,-0.639999 -4.16,-0.479999 h -4.16 l -4.16,0.479999 -4,0.639999 -4,1.119999 -4.000003,1.440003 -3.680001,1.599998 -3.68,2.079998 -3.360001,2.400002 -3.199997,2.560001 -3.040001,3.039997 -2.720001,3.040001 -2.399994,3.360001 -2.080001,3.68 -1.760003,3.68 -1.440002,3.840001 -1.279999,4 -0.639999,4.159999 -0.479996,4.16 -0.160004,4 0.32,4.16 0.639999,4.16"
       style="fill:none;stroke:#000000;stroke-width:26.4;stroke-linecap:round;stroke-linejoin:round;stroke-miterlimit:10;stroke-dasharray:none;stroke-opacity:1"
       transform="translate(210.02665,78.293275)"
       clip-path="url(#clipPath4)" />
    <path
       id="path5"
       d="m 0,0 0.64,-4.16 0.32,-4.16 -0.16,-4 -0.32,-4.16 -0.8,-4.159999 -1.12,-4 -1.6,-3.840001 -1.76,-3.68 -2.08,-3.68 -2.4,-3.360001 -2.72,-3.040001 -3.04,-3.039997 -3.2,-2.560001 -3.36,-2.400002 -3.520001,-2.079998 -3.839998,-1.599998 -3.84,-1.440003 -4.16,-1.119999 -4,-0.639999 -4.16,-0.479999 h -4.16 l -4.16,0.479999 -4,0.639999 -4,1.119999 -4.000003,1.440003 -3.680001,1.599998 -3.68,2.079998 -3.360001,2.400002 -3.199997,2.560001 -3.040001,3.039997 -2.720001,3.040001 -2.399994,3.360001 -2.080001,3.68 -1.760003,3.68 -1.440002,3.840001 -1.279999,4 -0.639999,4.159999 -0.479996,4.16 -0.160004,4 0.32,4.16 0.639999,4.16"
       style="fill:none;stroke:#000000;stroke-width:26.4;stroke-linecap:round;stroke-linejoin:round;stroke-miterlimit:10;stroke-dasharray:none;stroke-opacity:1"
       transform="translate(304.42668,78.293275)"
       clip-path="url(#clipPath6)" />
    <path
       id="path7"
       d="M 313.60001,421.44 294.72,704.64001"
       style="fill:none;stroke:#000000;stroke-width:26.4;stroke-linecap:round;stroke-linejoin:round;stroke-miterlimit:10;stroke-dasharray:none;stroke-opacity:1"
       transform="translate(-198.77333,-337.70673)"
       clip-path="url(#clipPath8)" />
    <path
       id="path9"
       d="M 408.95999,412.64001 379.04001,708.15997"
       style="fill:none;stroke:#000000;stroke-width:26.4;stroke-linecap:round;stroke-linejoin:round;stroke-miterlimit:10;stroke-dasharray:none;stroke-opacity:1"
       transform="translate(-198.77333,-337.70673)"
       clip-path="url(#clipPath10)" />
    <path
       id="path11"
       d="M 501.76001,423.84 464,706.88"
       style="fill:none;stroke:#000000;stroke-width:26.4;stroke-linecap:round;stroke-linejoin:round;stroke-miterlimit:10;stroke-dasharray:none;stroke-opacity:1"
       transform="translate(-198.77333,-337.70673)"
       clip-path="url(#clipPath12)" />
    <path
       id="path13"
       d="m 0,0 -0.64,4.16 -0.32,4.16 0.16,4.16 0.32,4.159999 0.8,4 1.12,4 1.6,3.840001 1.76,3.84 2.08,3.52 2.4,3.360001 2.72,3.200001 3.04,2.879997 3.2,2.560001 3.36,2.400002 3.520001,2.079998 3.839998,1.760002 3.84,1.279999 4.16,1.119999 4,0.799999 4.16,0.319999 h 4.16 l 4.16,-0.319999 4,-0.799999 4,-1.119999 4.000003,-1.279999 3.680001,-1.760002 3.68,-2.079998 3.360001,-2.400002 3.199997,-2.560001 3.040001,-2.879997 2.720001,-3.200001 2.399994,-3.360001 2.080001,-3.52 1.760003,-3.84 1.440002,-3.840001 1.279999,-4 0.639999,-4 L 95.199997,12.48 95.360001,8.32 95.040001,4.16 94.400002,0"
       style="fill:none;stroke:#000000;stroke-width:26.4;stroke-linecap:round;stroke-linejoin:round;stroke-miterlimit:10;stroke-dasharray:none;stroke-opacity:1"
       transform="translate(265.22667,368.85327)"
       clip-path="url(#clipPath14)" />
    <path
       id="path15"
       d="m 558.23999,668.32001 -16.32001,28.32 H 574.56 l -16.32001,-28.32"
       style="fill:none;stroke:#000000;stroke-width:26.4;stroke-linecap:round;stroke-linejoin:round;stroke-miterlimit:10;stroke-dasharray:none;stroke-opacity:1"
       transform="translate(-198.77333,-337.70673)"
       clip-path="url(#clipPath16)" />
  </g>
</svg>
