<?xml version="1.0" encoding="UTF-8" standalone="no"?>
<!-- Created with Inkscape (http://www.inkscape.org/) -->

<svg
   version="1.1"
   id="svg1"
   width="448.23999"
   height="417.78668"
   viewBox="0 0 448.23999 417.78668"
   sodipodi:docname="Separation.pdf"
   xmlns:inkscape="http://www.inkscape.org/namespaces/inkscape"
   xmlns:sodipodi="http://sodipodi.sourceforge.net/DTD/sodipodi-0.dtd"
   xmlns="http://www.w3.org/2000/svg"
   xmlns:svg="http://www.w3.org/2000/svg">
  <defs
     id="defs1">
    <clipPath
       clipPathUnits="userSpaceOnUse"
       id="clipPath2">
      <path
         d="M 0,0.16 V 1122.5601 H 793.59998 V 0.16 Z"
         transform="translate(-3.3333333e-6)"
         clip-rule="evenodd"
         id="path2" />
    </clipPath>
    <clipPath
       clipPathUnits="userSpaceOnUse"
       id="clipPath4">
      <path
         d="M 0,0.16 V 1122.5601 H 793.59998 V 0.16 Z"
         transform="translate(-540.47998,-655.67999)"
         clip-rule="evenodd"
         id="path4" />
    </clipPath>
    <clipPath
       clipPathUnits="userSpaceOnUse"
       id="clipPath6">
      <path
         d="M 0,0.16 V 1122.5601 H 793.59998 V 0.16 Z"
         transform="translate(-3.3333333e-6)"
         clip-rule="evenodd"
         id="path6" />
    </clipPath>
  </defs>
  <sodipodi:namedview
     id="namedview1"
     pagecolor="#505050"
     bordercolor="#eeeeee"
     borderopacity="1"
     inkscape:showpageshadow="0"
     inkscape:pageopacity="0"
     inkscape:pagecheckerboard="0"
     inkscape:deskcolor="#505050">
    <inkscape:page
       x="0"
       y="0"
       inkscape:label="1"
       id="page1"
       width="448.23999"
       height="417.78668"
       margin="0"
       bleed="0" />
  </sodipodi:namedview>
  <g
     id="g1"
     inkscape:groupmode="layer"
     inkscape:label="1">
    <path
       id="path1"
       d="M 195.67999,561.28003 327.84,372.48001 460,561.28003 327.84,750.08002 195.67999,561.28003"
       style="fill:none;stroke:#000000;stroke-width:26.4;stroke-linecap:round;stroke-linejoin:round;stroke-miterlimit:10;stroke-dasharray:none;stroke-opacity:1"
       transform="translate(-172.09333,-355.05339)"
       clip-path="url(#clipPath2)" />
    <path
       id="path3"
       d="m 0,0 4.16,0.64 4.16,0.32 h 4 l 4.16,-0.48 4.159999,-0.8 4,-1.12 3.840001,-1.44 3.68,-1.76 3.68,-2.24 3.360001,-2.4 3.040001,-2.72 3.039997,-2.88 2.560001,-3.2 2.400002,-3.52 2.079998,-3.520001 1.599998,-3.839998 1.440003,-3.84 1.119999,-4 0.639999,-4.16 0.479999,-4.16 v -4.16 l -0.479999,-4 -0.639999,-4.16 -1.119999,-4 -1.440003,-3.84 -1.599998,-3.840004 -2.079998,-3.68 -2.400002,-3.360001 -2.560001,-3.199997 -3.039997,-2.879997 -3.040001,-2.720001 -3.360001,-2.400002 -3.68,-2.239997 -3.68,-1.760003 -3.840001,-1.440002 -4,-1.119995 -4.159999,-0.800003 -4.16,-0.479996 h -4 L 4.16,-95.040001 0,-94.400002"
       style="fill:none;stroke:#000000;stroke-width:26.4;stroke-linecap:round;stroke-linejoin:round;stroke-miterlimit:10;stroke-dasharray:none;stroke-opacity:1"
       transform="translate(368.38665,300.6266)"
       clip-path="url(#clipPath4)" />
    <path
       id="path5"
       d="m 464.32001,561.28003 h 75.52002"
       style="fill:none;stroke:#000000;stroke-width:26.4;stroke-linecap:round;stroke-linejoin:round;stroke-miterlimit:10;stroke-dasharray:none;stroke-opacity:1"
       transform="translate(-172.09333,-355.05339)"
       clip-path="url(#clipPath6)" />
  </g>
</svg>
