<?xml version="1.0" encoding="UTF-8" standalone="no"?>
<!-- Created with Inkscape (http://www.inkscape.org/) -->

<svg
   version="1.1"
   id="svg1"
   width="524.28003"
   height="507.22668"
   viewBox="0 0 524.28003 507.22668"
   sodipodi:docname="StratumSuperStratum3.pdf"
   xmlns:inkscape="http://www.inkscape.org/namespaces/inkscape"
   xmlns:sodipodi="http://sodipodi.sourceforge.net/DTD/sodipodi-0.dtd"
   xmlns="http://www.w3.org/2000/svg"
   xmlns:svg="http://www.w3.org/2000/svg">
  <defs
     id="defs1">
    <clipPath
       clipPathUnits="userSpaceOnUse"
       id="clipPath2">
      <path
         d="M 0,0.16 V 1122.5601 H 793.59998 V 0.16 Z"
         transform="translate(-321.28,-410.23999)"
         clip-rule="evenodd"
         id="path2" />
    </clipPath>
    <clipPath
       clipPathUnits="userSpaceOnUse"
       id="clipPath4">
      <path
         d="M 0,0.16 V 1122.5601 H 793.59998 V 0.16 Z"
         transform="translate(-472.32001,-410.23999)"
         clip-rule="evenodd"
         id="path4" />
    </clipPath>
    <clipPath
       clipPathUnits="userSpaceOnUse"
       id="clipPath6">
      <path
         d="M 0,0.16 V 1122.5601 H 793.59998 V 0.16 Z"
         transform="translate(-623.35998,-410.23999)"
         clip-rule="evenodd"
         id="path6" />
    </clipPath>
    <clipPath
       clipPathUnits="userSpaceOnUse"
       id="clipPath8">
      <path
         d="M 0,0.16 V 1122.5601 H 793.59998 V 0.16 Z"
         clip-rule="evenodd"
         id="path8" />
    </clipPath>
    <clipPath
       clipPathUnits="userSpaceOnUse"
       id="clipPath10">
      <path
         d="M 0,0.16 V 1122.5601 H 793.59998 V 0.16 Z"
         clip-rule="evenodd"
         id="path10" />
    </clipPath>
    <clipPath
       clipPathUnits="userSpaceOnUse"
       id="clipPath12">
      <path
         d="M 0,0.16 V 1122.5601 H 793.59998 V 0.16 Z"
         clip-rule="evenodd"
         id="path12" />
    </clipPath>
    <clipPath
       clipPathUnits="userSpaceOnUse"
       id="clipPath14">
      <path
         d="M 0,0.16 V 1122.5601 H 793.59998 V 0.16 Z"
         clip-rule="evenodd"
         id="path14" />
    </clipPath>
    <clipPath
       clipPathUnits="userSpaceOnUse"
       id="clipPath16">
      <path
         d="M 0,0.16 V 1122.5601 H 793.59998 V 0.16 Z"
         transform="translate(-255.2,-599.03998)"
         clip-rule="evenodd"
         id="path16" />
    </clipPath>
    <clipPath
       clipPathUnits="userSpaceOnUse"
       id="clipPath18">
      <path
         d="M 0,0.16 V 1122.5601 H 793.59998 V 0.16 Z"
         transform="translate(-406.23999,-599.03998)"
         clip-rule="evenodd"
         id="path18" />
    </clipPath>
    <clipPath
       clipPathUnits="userSpaceOnUse"
       id="clipPath20">
      <path
         d="M 0,0.16 V 1122.5601 H 793.59998 V 0.16 Z"
         transform="translate(-557.28003,-599.03998)"
         clip-rule="evenodd"
         id="path20" />
    </clipPath>
    <clipPath
       clipPathUnits="userSpaceOnUse"
       id="clipPath22">
      <path
         d="M 0,0.16 V 1122.5601 H 793.59998 V 0.16 Z"
         transform="translate(-255.2,-599.03998)"
         clip-rule="evenodd"
         id="path22" />
    </clipPath>
  </defs>
  <sodipodi:namedview
     id="namedview1"
     pagecolor="#505050"
     bordercolor="#eeeeee"
     borderopacity="1"
     inkscape:showpageshadow="0"
     inkscape:pageopacity="0"
     inkscape:pagecheckerboard="0"
     inkscape:deskcolor="#505050">
    <inkscape:page
       x="0"
       y="0"
       inkscape:label="1"
       id="page1"
       width="524.28003"
       height="507.22668"
       margin="0"
       bleed="0" />
  </sodipodi:namedview>
  <g
     id="g1"
     inkscape:groupmode="layer"
     inkscape:label="1">
    <path
       id="path1"
       d="M 0,0 -0.16,-5.28 -0.64,-10.72 -1.6,-16 -3.04,-21.280001 -4.64,-26.4 -6.72,-31.360001 -9.12,-36.16 -12,-40.799999 l -3.04,-4.48 -3.36,-4.16 -3.68,-4 -4,-3.68 -4.16,-3.360001 -4.320001,-3.04 -4.64,-2.719998 -4.959999,-2.400001 -4.959999,-2.080002 -5.120003,-1.760002 -5.119999,-1.279999 -5.279998,-0.959999 -5.440003,-0.64 -5.439995,-0.159996 -5.280006,0.159996 -5.439995,0.64 -5.279999,0.959999 -5.280006,1.279999 -5.119997,1.760002 -4.96,2.080002 -4.8,2.400001 -4.64,2.719998 -4.32,3.04 -4.32,3.360001 -3.84,3.68 -3.68,4 -3.36,4.16 -3.19999,4.48 -2.72,4.639999 -2.40001,4.799999 -2.08,4.960001 -1.6,5.119999 -1.44,5.280001 -0.96,5.28 -0.48,5.44 -0.31999,5.28"
       style="fill:none;stroke:#000000;stroke-width:26.4;stroke-linecap:round;stroke-linejoin:round;stroke-miterlimit:10;stroke-dasharray:none;stroke-opacity:1"
       transform="translate(321.28,411.57326)"
       clip-path="url(#clipPath2)" />
    <path
       id="path3"
       d="M 0,0 -0.16,-5.28 -0.8,-10.72 -1.76,-16 -3.04,-21.280001 -4.64,-26.4 -6.72,-31.360001 -9.12,-36.16 -12,-40.799999 l -3.04,-4.48 -3.36,-4.16 -3.68,-4 -4,-3.68 -4.16,-3.360001 -4.480001,-3.04 -4.48,-2.719998 -4.959999,-2.400001 -4.959999,-2.080002 -5.120003,-1.760002 -5.119999,-1.279999 -5.440002,-0.959999 -5.279999,-0.64 -5.439995,-0.159996 -5.280006,0.159996 -5.439995,0.64 -5.279999,0.959999 -5.280006,1.279999 -5.119997,1.760002 -4.96,2.080002 -4.8,2.400001 -4.64,2.719998 -4.48,3.04 -4.16,3.360001 -3.84,3.68 -3.68,4 -3.52,4.16 -3.03999,4.48 -2.72,4.639999 -2.40001,4.799999 -2.08,4.960001 -1.76,5.119999 -1.28,5.280001 -0.96,5.28 -0.48,5.44 -0.31999,5.28"
       style="fill:none;stroke:#000000;stroke-width:26.4;stroke-linecap:round;stroke-linejoin:round;stroke-miterlimit:10;stroke-dasharray:none;stroke-opacity:1"
       transform="translate(472.32001,411.57326)"
       clip-path="url(#clipPath4)" />
    <path
       id="path5"
       d="M 0,0 -0.16,-5.28 -0.8,-10.72 -1.76,-16 -3.04,-21.280001 -4.8,-26.4 -6.72,-31.360001 -9.28,-36.16 -12,-40.799999 l -3.04,-4.48 -3.36,-4.16 -3.68,-4 -4,-3.68 -4.16,-3.360001 -4.480001,-3.04 -4.64,-2.719998 -4.799999,-2.400001 -4.959999,-2.080002 -5.120003,-1.760002 -5.119999,-1.279999 -5.440002,-0.959999 -5.279999,-0.64 -5.439995,-0.159996 -5.280006,0.159996 -5.439995,0.64 -5.279999,0.959999 -5.280006,1.279999 -5.119997,1.760002 -4.96,2.080002 -4.8,2.400001 -4.64,2.719998 -4.48,3.04 -4.16,3.360001 -3.84,3.68 -3.68,4 -3.52,4.16 -3.03999,4.48 -2.72,4.639999 -2.40001,4.799999 -2.08,4.960001 -1.76,5.119999 -1.28,5.280001 -0.96,5.28 -0.64,5.44 -0.15999,5.28"
       style="fill:none;stroke:#000000;stroke-width:26.4;stroke-linecap:round;stroke-linejoin:round;stroke-miterlimit:10;stroke-dasharray:none;stroke-opacity:1"
       transform="translate(623.35998,411.57326)"
       clip-path="url(#clipPath6)" />
    <path
       id="path7"
       d="M 623.35998,410.23999 V 787.84003"
       style="fill:none;stroke:#000000;stroke-width:26.4;stroke-linecap:round;stroke-linejoin:round;stroke-miterlimit:10;stroke-dasharray:none;stroke-opacity:1"
       transform="translate(0,1.3332747)"
       clip-path="url(#clipPath8)" />
    <path
       id="path9"
       d="M 472.32001,410.23999 V 787.84003"
       style="fill:none;stroke:#000000;stroke-width:26.4;stroke-linecap:round;stroke-linejoin:round;stroke-miterlimit:10;stroke-dasharray:none;stroke-opacity:1"
       transform="translate(0,1.3332747)"
       clip-path="url(#clipPath10)" />
    <path
       id="path11"
       d="M 321.28,410.23999 V 787.84003"
       style="fill:none;stroke:#000000;stroke-width:26.4;stroke-linecap:round;stroke-linejoin:round;stroke-miterlimit:10;stroke-dasharray:none;stroke-opacity:1"
       transform="translate(0,1.3332747)"
       clip-path="url(#clipPath12)" />
    <path
       id="path13"
       d="M 170.24,410.23999 V 787.84003"
       style="fill:none;stroke:#000000;stroke-width:26.4;stroke-linecap:round;stroke-linejoin:round;stroke-miterlimit:10;stroke-dasharray:none;stroke-opacity:1"
       transform="translate(0,1.3332747)"
       clip-path="url(#clipPath14)" />
    <path
       id="path15"
       d="M 0,0 V -1.28 L -0.32,-2.72 -0.8,-3.84 -1.44,-5.12 -2.24,-6.24 -3.2,-7.04 -4.32,-8 -5.44,-8.64 -6.72,-8.96 -8,-9.28 l -1.44,-0.16 -1.28,0.16 -1.28,0.32 -1.28,0.32 -1.28,0.64 -0.96,0.96 -0.96,0.8 -0.800001,1.12 -0.639999,1.28 -0.48,1.12 -0.319999,1.44 -0.16,1.28 0.16,1.44 0.319999,1.28 0.48,1.28 0.639999,1.12 0.800001,1.12 0.96,0.96 0.96,0.8 1.28,0.64 1.28,0.48 1.28,0.32 H -9.44 -8 L -6.72,9.12 -5.44,8.64 -4.32,8 -3.2,7.2 -2.24,6.24 -1.44,5.12 -0.8,4 -0.32,2.72 0,1.44 V 0 0 Z"
       style="fill:#000000;fill-opacity:1;fill-rule:evenodd;stroke:none"
       transform="translate(255.2,600.37325)"
       clip-path="url(#clipPath16)" />
    <path
       id="path17"
       d="M 0,0 V -1.28 L -0.32,-2.72 -0.8,-3.84 -1.44,-5.12 -2.24,-6.24 -3.2,-7.04 -4.32,-8 -5.44,-8.64 -6.72,-8.96 -8,-9.28 l -1.44,-0.16 -1.28,0.16 -1.28,0.32 -1.28,0.32 -1.28,0.64 -0.96,0.96 -0.96,0.8 -0.800001,1.12 -0.639999,1.28 -0.48,1.12 -0.319999,1.44 -0.16,1.28 0.16,1.44 0.319999,1.28 0.48,1.28 0.639999,1.12 0.800001,1.12 0.96,0.96 0.96,0.8 1.28,0.64 1.28,0.48 1.28,0.32 H -9.44 -8 L -6.72,9.12 -5.44,8.64 -4.32,8 -3.2,7.2 -2.24,6.24 -1.44,5.12 -0.8,4 -0.32,2.72 0,1.44 V 0 0 Z"
       style="fill:#000000;fill-opacity:1;fill-rule:evenodd;stroke:none"
       transform="translate(406.23999,600.37325)"
       clip-path="url(#clipPath18)" />
    <path
       id="path19"
       d="M 0,0 V -1.28 L -0.32,-2.72 -0.8,-3.84 -1.44,-5.12 -2.24,-6.24 -3.2,-7.04 -4.32,-8 -5.44,-8.64 -6.72,-8.96 -8,-9.28 l -1.44,-0.16 -1.28,0.16 -1.28,0.32 -1.28,0.32 -1.28,0.64 -0.96,0.96 -0.96,0.8 -0.800001,1.12 -0.639999,1.28 -0.48,1.12 -0.319999,1.44 -0.16,1.28 0.16,1.44 0.319999,1.28 0.48,1.28 0.639999,1.12 0.800001,1.12 0.96,0.96 0.96,0.8 1.28,0.64 1.28,0.48 1.28,0.32 H -9.44 -8 L -6.72,9.12 -5.44,8.64 -4.32,8 -3.2,7.2 -2.24,6.24 -1.44,5.12 -0.8,4 -0.32,2.72 0,1.44 V 0 0 Z"
       style="fill:#000000;fill-opacity:1;fill-rule:evenodd;stroke:none"
       transform="translate(557.28003,600.37325)"
       clip-path="url(#clipPath20)" />
    <path
       id="path21"
       d="M 0,0 V -1.28 L -0.32,-2.72 -0.8,-3.84 -1.44,-5.12 -2.24,-6.24 -3.2,-7.04 -4.32,-8 -5.44,-8.64 -6.72,-8.96 -8,-9.28 l -1.44,-0.16 -1.28,0.16 -1.28,0.32 -1.28,0.32 -1.28,0.64 -0.96,0.96 -0.96,0.8 -0.800001,1.12 -0.639999,1.28 -0.48,1.12 -0.319999,1.44 -0.16,1.28 0.16,1.44 0.319999,1.28 0.48,1.28 0.639999,1.12 0.800001,1.12 0.96,0.96 0.96,0.8 1.28,0.64 1.28,0.48 1.28,0.32 H -9.44 -8 L -6.72,9.12 -5.44,8.64 -4.32,8 -3.2,7.2 -2.24,6.24 -1.44,5.12 -0.8,4 -0.32,2.72 0,1.44 V 0 M 151.03999,0 V -1.28 L 150.72,-2.72 150.24,-3.84 149.60001,-5.12 148.8,-6.24 l -0.96,-0.8 -1.12,-0.96 -1.11999,-0.64 -1.28,-0.32 -1.28002,-0.32 -1.43998,-0.16 -1.28,0.16 -1.28002,0.32 -1.28,0.32 -1.27999,0.64 -0.96,0.96 -0.96,0.8 -0.80001,1.12 -0.64,1.28 -0.47999,1.12 -0.31999,1.44 L 132.16,0 l 0.16001,1.44 0.31999,1.28 0.47999,1.28 0.64,1.12 0.80001,1.12 0.96,0.96 0.96,0.8 1.27999,0.64 1.28,0.48 1.28002,0.32 h 1.28 1.43998 l 1.28002,-0.32 1.28,-0.48 L 146.72,8 147.84,7.2 148.8,6.24 149.60001,5.12 150.24,4 150.72,2.72 151.03999,1.44 V 0 m 151.04,0 v -1.28 l -0.31998,-1.44 -0.48001,-1.12 -0.63999,-1.28 -0.80001,-1.12 -0.96,-0.8 -1.11999,-0.96 -1.12,-0.64 -1.28002,-0.32 -1.28,-0.32 -1.43998,-0.16 -1.28002,0.16 -1.28,0.32 -1.28,0.32 -1.28,0.64 -0.95999,0.96 -0.95999,0.8 -0.80002,1.12 -0.63999,1.28 -0.48001,1.12 -0.32,1.44 -0.15998,1.28 0.15998,1.44 0.32,1.28 0.48001,1.28 0.63999,1.12 0.80002,1.12 0.95999,0.96 0.95999,0.8 1.28,0.64 1.28,0.48 1.28,0.32 h 1.28002 1.43998 l 1.28,-0.32 1.28002,-0.48 1.12,-0.64 L 298.88,7.2 299.84,6.24 300.64001,5.12 301.28,4 301.76001,2.72 302.07999,1.44 V 0"
       style="fill:none;stroke:#000000;stroke-width:0.48;stroke-linecap:round;stroke-linejoin:round;stroke-miterlimit:10;stroke-dasharray:none;stroke-opacity:1"
       transform="translate(255.2,600.37325)"
       clip-path="url(#clipPath22)" />
  </g>
</svg>
