<?xml version="1.0" encoding="UTF-8" standalone="no"?>
<!-- Created with Inkscape (http://www.inkscape.org/) -->

<svg
   version="1.1"
   id="svg1"
   width="636.34668"
   height="485.86667"
   viewBox="0 0 636.34668 485.86667"
   sodipodi:docname="StratumSuperStratum7.pdf"
   xmlns:inkscape="http://www.inkscape.org/namespaces/inkscape"
   xmlns:sodipodi="http://sodipodi.sourceforge.net/DTD/sodipodi-0.dtd"
   xmlns="http://www.w3.org/2000/svg"
   xmlns:svg="http://www.w3.org/2000/svg">
  <defs
     id="defs1">
    <clipPath
       clipPathUnits="userSpaceOnUse"
       id="clipPath2">
      <path
         d="M 0,0.16 V 1122.5601 H 793.59998 V 0.16 Z"
         transform="translate(-273.6,-562.08002)"
         clip-rule="evenodd"
         id="path2" />
    </clipPath>
    <clipPath
       clipPathUnits="userSpaceOnUse"
       id="clipPath4">
      <path
         d="M 0,0.16 V 1122.5601 H 793.59998 V 0.16 Z"
         transform="translate(-187.84,-771.84003)"
         clip-rule="evenodd"
         id="path4" />
    </clipPath>
    <clipPath
       clipPathUnits="userSpaceOnUse"
       id="clipPath6">
      <path
         d="M 0,0.16 V 1122.5601 H 793.59998 V 0.16 Z"
         transform="translate(-414.55999,-459.67999)"
         clip-rule="evenodd"
         id="path6" />
    </clipPath>
    <clipPath
       clipPathUnits="userSpaceOnUse"
       id="clipPath8">
      <path
         d="M 0,0.16 V 1122.5601 H 793.59998 V 0.16 Z"
         transform="translate(-285.92001,-774.08002)"
         clip-rule="evenodd"
         id="path8" />
    </clipPath>
    <clipPath
       clipPathUnits="userSpaceOnUse"
       id="clipPath10">
      <path
         d="M 0,0.16 V 1122.5601 H 793.59998 V 0.16 Z"
         transform="translate(-605.91998,-350.56)"
         clip-rule="evenodd"
         id="path10" />
    </clipPath>
    <clipPath
       clipPathUnits="userSpaceOnUse"
       id="clipPath12">
      <path
         d="M 0,0.16 V 1122.5601 H 793.59998 V 0.16 Z"
         transform="translate(-434.39999,-769.91998)"
         clip-rule="evenodd"
         id="path12" />
    </clipPath>
    <clipPath
       clipPathUnits="userSpaceOnUse"
       id="clipPath14">
      <path
         d="M 0,0.16 V 1122.5601 H 793.59998 V 0.16 Z"
         transform="translate(-3.3333333e-6)"
         clip-rule="evenodd"
         id="path14" />
    </clipPath>
    <clipPath
       clipPathUnits="userSpaceOnUse"
       id="clipPath16">
      <path
         d="M 0,0.16 V 1122.5601 H 793.59998 V 0.16 Z"
         transform="translate(-3.3333333e-6)"
         clip-rule="evenodd"
         id="path16" />
    </clipPath>
  </defs>
  <sodipodi:namedview
     id="namedview1"
     pagecolor="#505050"
     bordercolor="#eeeeee"
     borderopacity="1"
     inkscape:showpageshadow="0"
     inkscape:pageopacity="0"
     inkscape:pagecheckerboard="0"
     inkscape:deskcolor="#505050">
    <inkscape:page
       x="0"
       y="0"
       inkscape:label="1"
       id="page1"
       width="636.34668"
       height="485.86667"
       margin="0"
       bleed="0" />
  </sodipodi:namedview>
  <g
     id="g1"
     inkscape:groupmode="layer"
     inkscape:label="1">
    <path
       id="path1"
       d="M 0,0 -4.16,-1.44 -8.48,-2.72 -12.8,-3.52 -17.280001,-4 -21.76,-4.16 -26.24,-4 l -4.319999,0.48 -4.320002,0.96 -4.32,1.28 -4.16,1.44 -4,1.92 -4,2.24 -3.68,2.4 -3.360001,2.88 -3.359996,3.04 -2.880001,3.2 -2.879998,3.520001 -2.400001,3.68 -2.080002,4 -1.919998,4 -1.440003,4.16 -1.279998,4.319999 -0.800003,4.32 -0.479996,4.48 -0.160004,4.319999 0.160004,4.48 0.479996,4.479999 0.959999,4.32 1.280006,4.32 1.439995,4.160004 1.920006,4 2.239998,3.839996 2.400001,3.68 2.879997,3.520004 3.040001,3.199997 3.199997,3.040001 3.520001,2.720002 3.68,2.399998 3.84,2.24 4.16,1.76"
       style="fill:none;stroke:#000000;stroke-width:26.4;stroke-linecap:round;stroke-linejoin:round;stroke-miterlimit:10;stroke-dasharray:none;stroke-opacity:1"
       transform="translate(116.18667,243.06663)"
       clip-path="url(#clipPath2)" />
    <path
       id="path3"
       d="M 0,0 4.16,1.44 8.32,2.72 12.8,3.52 17.120001,4 21.6,4.16 26.08,4 30.4,3.36 l 4.480001,-0.8 4.16,-1.28 4.16,-1.44 4.16,-1.92 3.84,-2.24 3.68,-2.4 3.520001,-2.88 3.199996,-3.04 3.040001,-3.2 2.720002,-3.520001 2.400001,-3.68 2.239998,-4 1.760002,-4 1.599999,-4.16 1.120002,-4.319999 0.799996,-4.32 0.639999,-4.48 0.160004,-4.319999 -0.32,-4.48 -0.480003,-4.479999 -0.959999,-4.32 -1.120003,-4.32 -1.599999,-4.160004 -1.919998,-4 -2.080002,-3.839996 -2.559997,-3.68 L 64.32,-89.440002 61.279999,-92.639999 57.919998,-95.68 54.400002,-98.400002 50.720001,-100.96 l -3.84,-2.08 -4,-1.92"
       style="fill:none;stroke:#000000;stroke-width:26.4;stroke-linecap:round;stroke-linejoin:round;stroke-miterlimit:10;stroke-dasharray:none;stroke-opacity:1"
       transform="translate(30.426663,452.82664)"
       clip-path="url(#clipPath4)" />
    <path
       id="path5"
       d="m 0,0 -5.44,-2.08 -5.6,-1.6 -5.599999,-1.28 -5.760001,-0.8 -5.76,-0.48 -5.759998,-0.16 -5.920002,0.32 -5.759998,0.8 -5.600003,1.12 -5.599998,1.44 -5.440003,1.92 L -67.68,1.44 -72.800003,4 l -5.119995,2.88 -4.64,3.36 -4.639999,3.52 -4.32,4 -4,4.16 -3.68,4.48 L -102.56,31.040001 -105.6,36 l -2.88,5.119999 -2.24,5.280003 -2.08,5.439998 -1.6,5.599999 -1.28,5.600002 -0.8,5.760002 -0.48,5.759995 -0.16,5.760002 0.32,5.919998 L -116,92 l 1.12,5.599998 1.44,5.600002 1.92,5.6 2.24,5.28 2.56,5.12 2.88,5.12 3.36,4.64001 3.520001,4.64 4,4.31999 4.159996,4 4.480003,3.68001 4.64,3.36 4.959999,3.19999 5.120003,2.72 5.279998,2.4"
       style="fill:none;stroke:#000000;stroke-width:26.4;stroke-linecap:round;stroke-linejoin:round;stroke-miterlimit:10;stroke-dasharray:none;stroke-opacity:1"
       transform="translate(257.14666,140.6666)"
       clip-path="url(#clipPath6)" />
    <path
       id="path7"
       d="m 0,0 5.44,2.08 5.6,1.6 5.599999,1.28 L 22.4,5.76 28.16,6.24 33.919998,6.4 39.68,6.08 45.439999,5.28 51.200001,4.16 56.799999,2.72 62.240002,0.8 67.68,-1.44 72.800003,-4 l 4.959999,-2.88 4.799996,-3.36 4.639999,-3.52 4.160004,-4 4.159996,-4.16 3.68,-4.48 L 102.56,-31.040001 105.6,-36 l 2.72,-5.119999 2.4,-5.280003 2.08,-5.439998 1.6,-5.599999 1.28,-5.600002 0.8,-5.760002 0.48,-5.759995 L 117.12,-80.32 116.8,-86.239998 116,-92 l -1.12,-5.599998 -1.44,-5.600002 -1.92,-5.6 -2.24,-5.28 -2.56,-5.12 -3.04,-5.12 -3.2,-4.64001 -3.679997,-4.64 -3.840004,-4.31999 -4.159996,-4 -4.480003,-3.68001 -4.64,-3.36 -4.959999,-3.19999 -5.120003,-2.72 -5.279998,-2.23999"
       style="fill:none;stroke:#000000;stroke-width:26.4;stroke-linecap:round;stroke-linejoin:round;stroke-miterlimit:10;stroke-dasharray:none;stroke-opacity:1"
       transform="translate(128.50668,455.06663)"
       clip-path="url(#clipPath8)" />
    <path
       id="path9"
       d="m 0,0 -6.4,-2.4 -6.56,-1.92 -6.56,-1.6 L -26.4,-7.2 -33.119999,-8 -40,-8.32 h -6.720001 l -6.879997,0.48 -6.880002,0.8 -6.719997,1.28 -6.560005,1.6 -6.559998,2.08 -6.400001,2.4 -6.239998,2.88 -5.919998,3.2 -5.920003,3.52 -5.6,4 -5.44,4.16 -4.96,4.639999 -4.96,4.800001 -4.48,5.119999 -4.15999,5.440003 -3.84001,5.599998 -3.51999,5.919998 -3.20002,6.080002 -2.71998,6.239998 -2.40001,6.400002 -2.08,6.559997 -1.59999,6.720001 L -154.88,88.32 -155.67999,95.040001 -156.16,101.92 v 6.88 l 0.48001,6.72 0.95999,6.88 1.11999,6.71999 1.76001,6.56 2.08001,6.56001 2.39999,6.4 2.88,6.24 3.2,6.08001 3.52001,5.75999 4,5.60001 4.15998,5.43998 4.64001,5.12001 4.8,4.79999 5.12,4.48001 5.44,4.16001 5.6,3.83999 5.919998,3.51999 L -92,206.88 l 6.239998,2.87999"
       style="fill:none;stroke:#000000;stroke-width:26.4;stroke-linecap:round;stroke-linejoin:round;stroke-miterlimit:10;stroke-dasharray:none;stroke-opacity:1"
       transform="translate(448.50665,31.546606)"
       clip-path="url(#clipPath10)" />
    <path
       id="path11"
       d="m 0,0 6.4,2.4 6.56,2.08 6.56,1.6 L 26.24,7.2 33.119999,8 39.84,8.32 h 6.880001 L 53.599998,8 60.32,7.04 67.040001,5.76 73.760002,4.16 80.32,2.08 l 6.239998,-2.4 6.240005,-2.88 6.079994,-3.2 5.920003,-3.52 5.6,-4 5.28,-4.16 5.12,-4.639999 4.8,-4.800001 4.48,-5.119999 4.31999,-5.440003 3.84001,-5.599998 3.51999,-5.919998 3.20002,-6.080002 2.71998,-6.239998 L 150.08,-68.32 152,-74.879997 153.75999,-81.599998 154.88,-88.32 155.67999,-95.040001 156,-101.92 v -6.88 l -0.48,-6.72 -0.8,-6.88 -1.28,-6.71999 -1.6,-6.56 -2.08001,-6.56001 -2.39999,-6.4 -2.88,-6.24 -3.2,-6.08001 -3.52001,-5.75999 -4,-5.60001 -4.15998,-5.43998 -4.64001,-5.12001 -4.8,-4.79999 -5.12,-4.48001 -5.44,-4.16001 L 104,-200.16 98.080002,-203.67999 92,-206.88 l -6.239998,-2.72001"
       style="fill:none;stroke:#000000;stroke-width:26.4;stroke-linecap:round;stroke-linejoin:round;stroke-miterlimit:10;stroke-dasharray:none;stroke-opacity:1"
       transform="translate(276.98666,450.90659)"
       clip-path="url(#clipPath12)" />
    <path
       id="path13"
       d="M 623.35998,561.28003 H 774.40002"
       style="fill:none;stroke:#000000;stroke-width:26.4;stroke-linecap:round;stroke-linejoin:round;stroke-miterlimit:10;stroke-dasharray:none;stroke-opacity:1"
       transform="translate(-157.41333,-319.01339)"
       clip-path="url(#clipPath14)" />
    <path
       id="path15"
       d="M 698.88,485.76001 V 636.79999"
       style="fill:none;stroke:#000000;stroke-width:26.4;stroke-linecap:round;stroke-linejoin:round;stroke-miterlimit:10;stroke-dasharray:none;stroke-opacity:1"
       transform="translate(-157.41333,-319.01339)"
       clip-path="url(#clipPath16)" />
  </g>
</svg>
