<?xml version="1.0" encoding="UTF-8" standalone="no"?>
<!-- Created with Inkscape (http://www.inkscape.org/) -->

<svg
   version="1.1"
   id="svg1"
   width="513.59998"
   height="415.12"
   viewBox="0 0 513.59998 415.12"
   sodipodi:docname="Sublimation14.pdf"
   xmlns:inkscape="http://www.inkscape.org/namespaces/inkscape"
   xmlns:sodipodi="http://sodipodi.sourceforge.net/DTD/sodipodi-0.dtd"
   xmlns="http://www.w3.org/2000/svg"
   xmlns:svg="http://www.w3.org/2000/svg">
  <defs
     id="defs1">
    <clipPath
       clipPathUnits="userSpaceOnUse"
       id="clipPath2">
      <path
         d="M 0,0.16 V 1122.5601 H 793.59998 V 0.16 Z"
         clip-rule="evenodd"
         id="path2" />
    </clipPath>
    <clipPath
       clipPathUnits="userSpaceOnUse"
       id="clipPath4">
      <path
         d="M 0,0.16 V 1122.5601 H 793.59998 V 0.16 Z"
         transform="translate(-439.51999,-470.07999)"
         clip-rule="evenodd"
         id="path4" />
    </clipPath>
    <clipPath
       clipPathUnits="userSpaceOnUse"
       id="clipPath6">
      <path
         d="M 0,0.16 V 1122.5601 H 793.59998 V 0.16 Z"
         transform="translate(-441.28,-468.32001)"
         clip-rule="evenodd"
         id="path6" />
    </clipPath>
    <clipPath
       clipPathUnits="userSpaceOnUse"
       id="clipPath8">
      <path
         d="M 0,0.16 V 1122.5601 H 793.59998 V 0.16 Z"
         transform="translate(-391.04001,-702.40002)"
         clip-rule="evenodd"
         id="path8" />
    </clipPath>
    <clipPath
       clipPathUnits="userSpaceOnUse"
       id="clipPath10">
      <path
         d="M 0,0.16 V 1122.5601 H 793.59998 V 0.16 Z"
         clip-rule="evenodd"
         id="path10" />
    </clipPath>
    <clipPath
       clipPathUnits="userSpaceOnUse"
       id="clipPath12">
      <path
         d="M 0,0.16 V 1122.5601 H 793.59998 V 0.16 Z"
         transform="translate(-530.23999,-608.79999)"
         clip-rule="evenodd"
         id="path12" />
    </clipPath>
    <clipPath
       clipPathUnits="userSpaceOnUse"
       id="clipPath14">
      <path
         d="M 0,0.16 V 1122.5601 H 793.59998 V 0.16 Z"
         transform="translate(-548.79999,-647.20001)"
         clip-rule="evenodd"
         id="path14" />
    </clipPath>
  </defs>
  <sodipodi:namedview
     id="namedview1"
     pagecolor="#505050"
     bordercolor="#eeeeee"
     borderopacity="1"
     inkscape:showpageshadow="0"
     inkscape:pageopacity="0"
     inkscape:pagecheckerboard="0"
     inkscape:deskcolor="#505050">
    <inkscape:page
       x="0"
       y="0"
       inkscape:label="1"
       id="page1"
       width="513.59998"
       height="415.12"
       margin="0"
       bleed="0" />
  </sodipodi:namedview>
  <g
     id="g1"
     inkscape:groupmode="layer"
     inkscape:label="1">
    <path
       id="path1"
       d="M 167.67999,560 H 532.15997"
       style="fill:none;stroke:#000000;stroke-width:26.4;stroke-linecap:round;stroke-linejoin:round;stroke-miterlimit:10;stroke-dasharray:none;stroke-opacity:1"
       transform="translate(0,-5.333392)"
       clip-path="url(#clipPath2)" />
    <path
       id="path3"
       d="m 0,0 -8.96,0.16 -9.12,0.32 -9.120001,0.48 -8.959999,0.8 -8.799999,0.96 -8.799999,1.12 -8.640004,1.28 -8.639999,1.6 -8.32,1.76 -8,1.92 -8,2.08 -7.679999,2.24 -7.52,2.560001 -7.2,2.559999 -6.88,2.879999 -6.56,3.040001 -6.24,3.039999 -5.92,3.360001 -5.60001,3.36 -5.27999,3.520001 -4.96,3.68 -4.47999,3.680001 -4.16001,3.84 -3.68,4 -3.2,4 -2.88001,4.16 -2.55999,4.159996 -1.92,4.160003 -1.59999,4.32 -1.12001,4.32 -0.80001,4.319999 -0.15998,4.32 0.15998,4.32 0.64,4.319999 1.12001,4.320001 1.44001,4.32 2.07998,4.16 2.40001,4.32 2.72,4 3.2,4.16 3.67999,4 4.16001,3.83999 4.32,3.84002 4.96,3.67999 5.12001,3.52 5.59999,3.52001 5.92,3.35998 6.24,3.20001 6.56,3.04 6.88,2.88 7.2,2.72 7.36,2.56 7.68,2.4 7.839997,2.08 8.160003,2.08 8.32,1.75999 8.48,1.76001 8.639999,1.44001 8.799999,1.11999 8.800003,1.12 8.959999,0.8 9.119999,0.64 8.960001,0.32001 9.12,0.15998"
       style="fill:none;stroke:#000000;stroke-width:26.4;stroke-linecap:round;stroke-linejoin:round;stroke-miterlimit:10;stroke-dasharray:none;stroke-opacity:1"
       transform="translate(439.51999,464.7466)"
       clip-path="url(#clipPath4)" />
    <path
       id="path5"
       d="m 0,0 4,-0.16 3.84,-0.64 3.68,-0.8 3.68,-1.28 3.519999,-1.6 3.360001,-1.76 3.200001,-2.08 3.039999,-2.4 2.720001,-2.72 2.559997,-2.88 L 36,-19.360001 37.919998,-22.559999 39.68,-26.08 l 1.439999,-3.52 1.120003,-3.679999 0.799999,-3.68 0.479999,-3.84 0.16,-3.84 L 43.52,-48.48 43.040001,-52.32 42.080002,-56 40.959999,-59.68 39.52,-63.200001 l -1.920002,-3.52 -1.919998,-3.199997 -2.400001,-3.040001 -2.56,-2.879997 L 27.84,-78.400002 24.799999,-80.800003 21.6,-82.879997 l -3.52,-1.760002 -3.52,-1.440003 -3.68,-1.119995 -3.68,-0.960007 -3.84,-0.479995 -3.84,-0.160004 -3.84,0.160004 -3.84,0.479995 -3.68,0.800003 -3.68,1.120003 -3.520001,1.439995 -3.519998,1.760002 -3.200001,1.919998 -3.199999,2.400002 -2.720001,2.559997 -2.720002,2.720002 -2.399997,3.04 -2.080002,3.200005 -1.759998,3.359997 -1.600003,3.52 -1.279998,3.680001 -0.8,3.68 -0.639999,3.84"
       style="fill:none;stroke:#000000;stroke-width:26.4;stroke-linecap:round;stroke-linejoin:round;stroke-miterlimit:10;stroke-dasharray:none;stroke-opacity:1"
       transform="translate(441.28,462.98662)"
       clip-path="url(#clipPath6)" />
    <path
       id="path7"
       d="m 0,0 0.96,4 1.12,4 1.44,4 1.76,3.68 1.92,3.520001 2.4,3.519998 2.72,3.200001 2.88,2.879999 3.04,2.720001 3.36,2.560002 3.520001,2.079998 3.679998,1.920002 3.84,1.599998 4,1.119999 4,0.959999 4.16,0.640004 4,0.159999 4.16,-0.159999 4.16,-0.480004 4,-0.799999 L 65.120003,40 l 4,-1.439999 3.68,-1.760002 L 76.32,34.720001 79.68,32.32 82.879997,29.6 85.919998,26.719999 88.639999,23.68 91.040001,20.32 93.120003,16.799999 95.040001,13.12 l 1.440002,-4 1.279999,-3.84 0.959999,-4.16 0.479996,-4 0.160004,-4.16 -0.160004,-4.16 -0.479996,-4.16 -0.800003,-4.000001 -1.119995,-4 -1.600006,-3.84 -1.759995,-3.679998 -2.080001,-3.680002 -2.400002,-3.359997 -2.720001,-3.040001 L 83.360001,-44 l -3.199997,-2.720001 -3.360001,-2.399998 -3.520004,-2.080002 -3.680001,-1.759998 -3.839996,-1.600002 -4.000004,-1.119999 -4,-0.959999 -4.16,-0.48 -4.159999,-0.16"
       style="fill:none;stroke:#000000;stroke-width:26.4;stroke-linecap:round;stroke-linejoin:round;stroke-miterlimit:10;stroke-dasharray:none;stroke-opacity:1"
       transform="translate(391.04001,697.06663)"
       clip-path="url(#clipPath8)" />
    <path
       id="path9"
       d="m 168.48,535.52002 -0.80001,48.95996"
       style="fill:none;stroke:#000000;stroke-width:26.4;stroke-linecap:round;stroke-linejoin:round;stroke-miterlimit:10;stroke-dasharray:none;stroke-opacity:1"
       transform="translate(0,-5.333392)"
       clip-path="url(#clipPath10)" />
    <path
       id="path11"
       d="m 0,0 h 2.72 l 2.56,-0.48 2.56,-0.64 2.4,-0.96 2.4,-1.12 2.24,-1.44 2.079999,-1.6 1.76,-1.92 1.760001,-2.08 1.44,-2.08 1.280001,-2.4 0.959999,-2.400001 0.639999,-2.559999 0.480002,-2.56 0.16,-2.719999 -0.16,-2.560001 -0.320002,-2.56 L 24.32,-32.639999 23.360001,-35.200001 22.24,-37.599998 20.959999,-39.84 19.200001,-41.919998 17.440001,-43.84 15.36,-45.439999 13.28,-47.040001 10.88,-48.16 8.48,-49.279999 5.92,-50.080002"
       style="fill:none;stroke:#000000;stroke-width:26.4;stroke-linecap:round;stroke-linejoin:round;stroke-miterlimit:10;stroke-dasharray:none;stroke-opacity:1"
       transform="translate(530.23999,603.4666)"
       clip-path="url(#clipPath12)" />
    <path
       id="path13"
       d="M 0,0 6.08,-0.32 12,-0.8 l 5.6,-0.48 5.600001,-0.64 5.439998,-0.8 5.279999,-0.64 4.960003,-0.8 4.799999,-0.96 4.48,-0.96 4.16,-0.96 3.84,-0.96 3.68,-1.12 3.200001,-1.12 2.879997,-1.12 2.560005,-1.28 2.239998,-1.12 1.760002,-1.28 1.439995,-1.28 0.959999,-1.120001 0.64,-1.279998 L 75.839996,-20 75.519997,-21.280001 75.040001,-22.559999 74.080002,-23.68 72.639999,-24.959999 70.879997,-26.08 68.800003,-27.200001 66.239998,-28.32 63.360001,-29.280001 60.16,-30.4 l -3.520001,-0.960001 -4,-0.799999 L 48.48,-32.959999 44,-33.759998 l -4.639999,-0.800003 -4.959999,-0.64 L 29.120001,-35.68 23.84,-36.16 l -5.6,-0.479999 -5.76,-0.32 -5.92,-0.16 -5.92,-0.32 h -6.08 -6.08 -6.24"
       style="fill:none;stroke:#000000;stroke-width:26.4;stroke-linecap:round;stroke-linejoin:round;stroke-miterlimit:10;stroke-dasharray:none;stroke-opacity:1"
       transform="translate(548.79999,641.86662)"
       clip-path="url(#clipPath14)" />
  </g>
</svg>
