<?xml version="1.0" encoding="UTF-8" standalone="no"?>
<!-- Created with Inkscape (http://www.inkscape.org/) -->

<svg
   version="1.1"
   id="svg1"
   width="502.93332"
   height="305.66666"
   viewBox="0 0 502.93332 305.66666"
   sodipodi:docname="Sublimation15.pdf"
   xmlns:inkscape="http://www.inkscape.org/namespaces/inkscape"
   xmlns:sodipodi="http://sodipodi.sourceforge.net/DTD/sodipodi-0.dtd"
   xmlns="http://www.w3.org/2000/svg"
   xmlns:svg="http://www.w3.org/2000/svg">
  <defs
     id="defs1">
    <clipPath
       clipPathUnits="userSpaceOnUse"
       id="clipPath2">
      <path
         d="M 0,0.16 V 1122.5601 H 793.59998 V 0.16 Z"
         transform="translate(-3.3333333e-6)"
         clip-rule="evenodd"
         id="path2" />
    </clipPath>
    <clipPath
       clipPathUnits="userSpaceOnUse"
       id="clipPath4">
      <path
         d="M 0,0.16 V 1122.5601 H 793.59998 V 0.16 Z"
         transform="translate(-3.3333333e-6)"
         clip-rule="evenodd"
         id="path4" />
    </clipPath>
    <clipPath
       clipPathUnits="userSpaceOnUse"
       id="clipPath6">
      <path
         d="M 0,0.16 V 1122.5601 H 793.59998 V 0.16 Z"
         transform="translate(-168.16,-448.48001)"
         clip-rule="evenodd"
         id="path6" />
    </clipPath>
  </defs>
  <sodipodi:namedview
     id="namedview1"
     pagecolor="#505050"
     bordercolor="#eeeeee"
     borderopacity="1"
     inkscape:showpageshadow="0"
     inkscape:pageopacity="0"
     inkscape:pagecheckerboard="0"
     inkscape:deskcolor="#505050">
    <inkscape:page
       x="0"
       y="0"
       inkscape:label="1"
       id="page1"
       width="502.93332"
       height="305.66666"
       margin="0"
       bleed="0" />
  </sodipodi:namedview>
  <g
     id="g1"
     inkscape:groupmode="layer"
     inkscape:label="1">
    <path
       id="path1"
       d="M 472,675.20001 H 622.40002"
       style="fill:none;stroke:#000000;stroke-width:26.4;stroke-linecap:round;stroke-linejoin:round;stroke-miterlimit:10;stroke-dasharray:none;stroke-opacity:1"
       transform="translate(-149.41333,-399.10673)"
       clip-path="url(#clipPath2)" />
    <path
       id="path3"
       d="M 546.88,669.91998 320.95999,447.04001"
       style="fill:none;stroke:#000000;stroke-width:26.4;stroke-linecap:round;stroke-linejoin:round;stroke-miterlimit:10;stroke-dasharray:none;stroke-opacity:1"
       transform="translate(-149.41333,-399.10673)"
       clip-path="url(#clipPath4)" />
    <path
       id="path5"
       d="m 0,0 0.48,5.44 0.64,5.44 1.12,5.28 1.44,5.280001 1.76,5.119998 2.24,4.960001 2.4,4.8 2.88,4.639999 3.2,4.32 3.52,4.16 3.680001,4 4.159999,3.68 4.16,3.200001 4.64,3.040001 4.639999,2.720001 4.959999,2.400001 4.960003,1.919999 5.279999,1.760002 5.279999,1.119995 5.280002,0.959999 5.440003,0.480003 5.439994,0.159996 5.440003,-0.319999 5.279999,-0.64 5.440002,-1.119995 5.279999,-1.280006 5.119999,-1.919999 4.96,-2.080001 4.8,-2.559998 4.64,-2.719997 4.48,-3.200001 4.16,-3.520001 3.83999,-3.68 3.68001,-4 3.36,-4.32 3.03999,-4.479999 2.72001,-4.639999 2.4,-4.960001 L 148.32001,24.48 149.92,19.200001 151.2,13.92 152.16,8.64 152.64,3.2 v -5.44"
       style="fill:none;stroke:#000000;stroke-width:26.4;stroke-linecap:round;stroke-linejoin:round;stroke-miterlimit:10;stroke-dasharray:none;stroke-opacity:1"
       transform="translate(18.746671,49.373286)"
       clip-path="url(#clipPath6)" />
  </g>
</svg>
