<?xml version="1.0" encoding="UTF-8" standalone="no"?>
<!-- Created with Inkscape (http://www.inkscape.org/) -->

<svg
   version="1.1"
   id="svg1"
   width="517.61334"
   height="501.89334"
   viewBox="0 0 517.61334 501.89334"
   sodipodi:docname="Sublimation6.pdf"
   xmlns:inkscape="http://www.inkscape.org/namespaces/inkscape"
   xmlns:sodipodi="http://sodipodi.sourceforge.net/DTD/sodipodi-0.dtd"
   xmlns="http://www.w3.org/2000/svg"
   xmlns:svg="http://www.w3.org/2000/svg">
  <defs
     id="defs1">
    <clipPath
       clipPathUnits="userSpaceOnUse"
       id="clipPath2">
      <path
         d="M 0,0.16 V 1122.5601 H 793.59998 V 0.16 Z"
         transform="translate(-234.24,-787.84003)"
         clip-rule="evenodd"
         id="path2" />
    </clipPath>
    <clipPath
       clipPathUnits="userSpaceOnUse"
       id="clipPath4">
      <path
         d="M 0,0.16 V 1122.5601 H 793.59998 V 0.16 Z"
         clip-rule="evenodd"
         id="path4" />
    </clipPath>
    <clipPath
       clipPathUnits="userSpaceOnUse"
       id="clipPath6">
      <path
         d="M 0,0.16 V 1122.5601 H 793.59998 V 0.16 Z"
         clip-rule="evenodd"
         id="path6" />
    </clipPath>
  </defs>
  <sodipodi:namedview
     id="namedview1"
     pagecolor="#505050"
     bordercolor="#eeeeee"
     borderopacity="1"
     inkscape:showpageshadow="0"
     inkscape:pageopacity="0"
     inkscape:pagecheckerboard="0"
     inkscape:deskcolor="#505050">
    <inkscape:page
       x="0"
       y="0"
       inkscape:label="1"
       id="page1"
       width="517.61334"
       height="501.89334"
       margin="0"
       bleed="0" />
  </sodipodi:namedview>
  <g
     id="g1"
     inkscape:groupmode="layer"
     inkscape:label="1">
    <path
       id="path1"
       d="m 0,0 7.36,-2.24 7.68,-2.4 7.679999,-2.88 8,-3.36 8.160002,-3.52 8.32,-3.84 L 55.68,-22.559999 64.480003,-27.040001 73.279999,-32 82.239998,-37.119999 91.199997,-42.720001 100.48,-48.48 l 9.28,-6.080001 9.28,-6.239998 9.28001,-6.719998 9.43998,-6.880005 9.44001,-7.04 9.44,-7.360001 9.44,-7.519997 9.44,-7.68 9.44001,-8 9.27999,-8.16 9.28,-8.16001 9.28,-8.47999 9.12,-8.64 8.96,-8.64 8.79999,-8.8 8.80001,-8.96 8.64,-8.96 8.32,-9.12 8.32001,-9.11999 8,-9.12001 7.84,-9.28 7.51999,-9.12 7.36001,-9.28 7.19998,-9.12001 6.88001,-9.11999 6.56,-9.12001 6.39999,-8.95999 6.08002,-8.96 5.75998,-8.95999 5.44,-8.64001 5.12002,-8.63999 4.79999,-8.48001 4.48001,-8.32 4.15998,-8.32001 3.84002,-8 3.35999,-7.84 3.04001,-7.51999 2.88,-7.51999 2.23999,-7.04 2.07999,-7.04001 1.6,-6.72 1.28,-6.4 0.80002,-6.23999 0.47998,-5.92001 0.16001,-5.60001 -0.16001,-5.28 -0.63998,-4.95999 -1.12,-4.79999 -1.44,-4.32 -1.76001,-4 -2.07999,-3.68 -2.56002,-3.36001 -2.87998,-3.04001 -3.20001,-2.72 -3.51999,-2.23999 -4,-2.07999 -4.16,-1.6 -4.64002,-1.12 -4.95999,-0.96002 -5.28,-0.47998 -5.6,-0.16001 -5.76001,0.32001 -6.23999,0.63999 -6.4,0.95999 -6.72,1.28 -7.04001,1.76001 -7.19998,2.08001 -7.52002,2.4 -7.67999,2.72 -7.84,3.19998 -8.16,3.36002 -8.32001,3.83999 -8.48,4.16001 -8.47999,4.47998 -8.8,4.80001 -8.96,5.12 -9.12001,5.44 -9.11999,5.60001 -9.12,6.07999 -9.44,6.23999 -9.28,6.56002 -9.44,6.72 -9.44,7.03998 -9.44001,7.20001 -9.44,7.51999 -9.43999,7.68 -9.44,7.84002 -9.28,8.15998 -9.28,8.16 -9.280001,8.48001 -9.120003,8.48001 -8.959999,8.63999 -8.959999,8.80001 -8.799999,8.96 -8.639999,8.95999 -8.48,8.95999 -8.16,9.12001 -8.16,9.12 -7.84,9.27999 L 12,-223.84"
       style="fill:none;stroke:#000000;stroke-width:26.4;stroke-linecap:round;stroke-linejoin:round;stroke-miterlimit:10;stroke-dasharray:none;stroke-opacity:1"
       transform="translate(234.24,786.50664)"
       clip-path="url(#clipPath2)" />
    <path
       id="path3"
       d="m 234.39999,787.84003 376.95999,-6.24005"
       style="fill:none;stroke:#000000;stroke-width:26.4;stroke-linecap:round;stroke-linejoin:round;stroke-miterlimit:10;stroke-dasharray:none;stroke-opacity:1"
       transform="translate(0,-1.333392)"
       clip-path="url(#clipPath4)" />
    <path
       id="path5"
       d="m 164.16,564 h 82.23999"
       style="fill:none;stroke:#000000;stroke-width:26.4;stroke-linecap:round;stroke-linejoin:round;stroke-miterlimit:10;stroke-dasharray:none;stroke-opacity:1"
       transform="translate(0,-1.333392)"
       clip-path="url(#clipPath6)" />
  </g>
</svg>
