<?xml version="1.0" encoding="UTF-8" standalone="no"?>
<!-- Created with Inkscape (http://www.inkscape.org/) -->

<svg
   version="1.1"
   id="svg1"
   width="498.93332"
   height="357.72"
   viewBox="0 0 498.93332 357.72"
   sodipodi:docname="Sublimate4.pdf"
   xmlns:inkscape="http://www.inkscape.org/namespaces/inkscape"
   xmlns:sodipodi="http://sodipodi.sourceforge.net/DTD/sodipodi-0.dtd"
   xmlns="http://www.w3.org/2000/svg"
   xmlns:svg="http://www.w3.org/2000/svg">
  <defs
     id="defs1">
    <clipPath
       clipPathUnits="userSpaceOnUse"
       id="clipPath2">
      <path
         d="M 0,0.16 V 1122.5601 H 793.59998 V 0.16 Z"
         transform="translate(-395.67999,-494.23999)"
         clip-rule="evenodd"
         id="path2" />
    </clipPath>
    <clipPath
       clipPathUnits="userSpaceOnUse"
       id="clipPath4">
      <path
         d="M 0,0.16 V 1122.5601 H 793.59998 V 0.16 Z"
         transform="translate(-511.04001,-559.35999)"
         clip-rule="evenodd"
         id="path4" />
    </clipPath>
    <clipPath
       clipPathUnits="userSpaceOnUse"
       id="clipPath6">
      <path
         d="M 0,0.16 V 1122.5601 H 793.59998 V 0.16 Z"
         transform="translate(-510.88,-560.96002)"
         clip-rule="evenodd"
         id="path6" />
    </clipPath>
    <clipPath
       clipPathUnits="userSpaceOnUse"
       id="clipPath8">
      <path
         d="M 0,0.16 V 1122.5601 H 793.59998 V 0.16 Z"
         transform="translate(-170.39999,-645.76001)"
         clip-rule="evenodd"
         id="path8" />
    </clipPath>
    <clipPath
       clipPathUnits="userSpaceOnUse"
       id="clipPath10">
      <path
         d="M 0,0.16 V 1122.5601 H 793.59998 V 0.16 Z"
         transform="translate(-222.88,-667.20001)"
         clip-rule="evenodd"
         id="path10" />
    </clipPath>
    <clipPath
       clipPathUnits="userSpaceOnUse"
       id="clipPath12">
      <path
         d="M 0,0.16 V 1122.5601 H 793.59998 V 0.16 Z"
         transform="translate(-623.35998,-640)"
         clip-rule="evenodd"
         id="path12" />
    </clipPath>
  </defs>
  <sodipodi:namedview
     id="namedview1"
     pagecolor="#505050"
     bordercolor="#eeeeee"
     borderopacity="1"
     inkscape:showpageshadow="0"
     inkscape:pageopacity="0"
     inkscape:pagecheckerboard="0"
     inkscape:deskcolor="#505050">
    <inkscape:page
       x="0"
       y="0"
       inkscape:label="1"
       id="page1"
       width="498.93332"
       height="357.72"
       margin="0"
       bleed="0" />
  </sodipodi:namedview>
  <g
     id="g1"
     inkscape:groupmode="layer"
     inkscape:label="1">
    <path
       id="path1"
       d="m 0,0 -0.16,-5.76 -0.48,-5.76 -0.8,-5.600001 -1.28,-5.599998 L -4.16,-28.32 -5.92,-33.599998 -8,-38.880001 -10.4,-44 l -2.72,-4.799999 -3.04,-4.48 -3.200001,-4.479999 -3.519998,-4 -3.68,-3.84 -3.840001,-3.360001 -4.160001,-3.200005 -4.16,-2.719993 -4.48,-2.400002 -4.639999,-2.080002 -4.64,-1.760002 -4.639999,-1.279999 -4.799999,-0.959999 -4.959999,-0.479995 L -71.68,-84 l -4.959999,0.32 -4.800003,0.639999 -4.799996,1.120003 -4.639999,1.439995 -4.64,1.920005 -4.480003,2.079995 -4.48,2.720001 -4.16,2.880005 -4,3.199997 -3.84,3.68 -3.52,3.84 -3.52,4.16 -3.04,4.48 -2.88,4.639999 -2.56,4.960003 -2.24,5.119999 -2.08001,5.279999 -1.59999,5.44 -1.44,5.6 -0.96001,5.6 -0.79998,5.76 -0.32001,5.76 V 2.4 l 0.32001,5.76 0.63999,5.76 0.96,5.76 1.28,5.440001 1.6,5.599998 1.92,5.280001 2.24,5.119999 2.56,4.960003 2.72,4.799999 3.04,4.48 3.36,4.159999"
       style="fill:none;stroke:#000000;stroke-width:26.4;stroke-linecap:round;stroke-linejoin:round;stroke-miterlimit:10;stroke-dasharray:none;stroke-opacity:1"
       transform="translate(395.67999,500.91993)"
       clip-path="url(#clipPath2)" />
    <path
       id="path3"
       d="m 0,0 3.84,-3.68 3.36,-4 3.2,-4.32 2.88,-4.639999 2.56,-4.800002 2.4,-4.959999 2.08,-5.28 1.76,-5.279999 1.44,-5.440003 L 24.639999,-48 l 0.800002,-5.759998 0.639999,-5.600003 0.16,-5.760002 -0.32,-5.759994 -0.479999,-5.760002 -0.800002,-5.599999 -1.119999,-5.599998 -1.44,-5.440003 -1.76,-5.279999 -2.08,-5.280002 -2.4,-4.96 -2.72,-4.8 -2.88,-4.48 -3.2,-4.32 -3.36,-4.16 -3.68,-3.68 -3.84,-3.51999 -4,-3.20002 -4.32,-2.71998 -4.32,-2.40001 -4.479999,-2.24001 L -25.6,-145.92 l -4.64,-1.44 -4.800001,-0.96001 -4.799999,-0.64 -4.799999,-0.15998 -4.8,0.15998 -4.800003,0.64 -4.799999,0.96001 -4.639999,1.44 -4.64,1.76 -4.480003,2.08 -4.32,2.40001 -4.319999,2.87999 -4,3.04001 -3.839997,3.51999 -3.68,3.84 -3.360001,4 -3.199997,4.32 -2.880003,4.64 -2.72,4.8 -2.24,4.96 -2.08,5.120002 -1.76,5.439995 -1.6,5.440003 -1.12,5.599998 -0.8,5.599999 -0.48,5.760002 -0.16,5.599998"
       style="fill:none;stroke:#000000;stroke-width:26.4;stroke-linecap:round;stroke-linejoin:round;stroke-miterlimit:10;stroke-dasharray:none;stroke-opacity:1"
       transform="translate(511.04001,566.03993)"
       clip-path="url(#clipPath4)" />
    <path
       id="path5"
       d="m 0,0 -3.84,3.68 -3.52,4 -3.36,4.16 -3.04,4.48 -2.879999,4.639999 -2.560002,4.960001 -2.24,5.120001 -1.92,5.439999 -1.599998,5.439998 L -26.24,47.52 l -0.960001,5.599999 -0.639999,5.760002 -0.48,5.759998 0.16,5.760003 0.32,5.760002 0.639999,5.759994 L -26.24,87.68 l 1.440001,5.440003 1.599998,5.439995 1.92,5.280002 2.400002,5.12 2.559999,4.96 2.72,4.8 3.2,4.48 3.36,4.16 3.52,3.84 3.84,3.68 4,3.2 4.16,3.03999 4.48,2.56 4.480001,2.24001 4.639999,1.92 4.639999,1.44 4.800001,1.11999 4.8,0.64 4.959999,0.32001 4.800003,-0.16 4.799999,-0.48 4.799999,-0.8 4.8,-1.28 4.640003,-1.76 4.639999,-1.91999 4.479996,-2.56002 4.160004,-2.72 4.159996,-3.03999 3.840004,-3.52001 3.839996,-3.67999 3.36,-4.16 3.360001,-4.32 2.879997,-4.48 2.720004,-4.8 2.4,-5.12 2.24,-5.12 1.76,-5.44 1.44,-5.440002 1.28,-5.599999 0.8,-5.919998"
       style="fill:none;stroke:#000000;stroke-width:26.4;stroke-linecap:round;stroke-linejoin:round;stroke-miterlimit:10;stroke-dasharray:none;stroke-opacity:1"
       transform="translate(510.88,567.63996)"
       clip-path="url(#clipPath6)" />
    <path
       id="path7"
       d="M 0,0 1.28,5.76 2.88,11.2 4.64,16.639999 6.88,21.76 9.28,26.879999 12,31.68 l 3.04,4.48 3.2,4.32 3.52,4 3.680001,3.68 4,3.52 4.159997,3.040001 4.32,2.719998 L 42.240002,59.84 46.880001,61.919998 51.52,63.52 l 4.8,1.280003 4.799999,0.799995 4.799999,0.480004 4.959999,0.159996 4.800003,-0.32 4.800003,-0.799995 L 85.279999,64 90.080002,62.560001 94.559998,60.639999 99.040001,58.400002 103.52,55.68 l 4.16,-2.880001 4,-3.36 3.84,-3.680001 3.52,-3.84 3.36,-4.16 3.04,-4.479999 2.88001,-4.799999 2.55999,-4.96 2.23999,-5.12 1.92,-5.28 1.60001,-5.44 1.28,-5.6 1.11999,-5.6 0.64,-5.76 L 140,-15.04 v -5.919999 l -0.32001,-5.76 L 138.88,-32.32 137.92,-38.080002 136.64,-43.68 134.88,-49.119999 132.96001,-54.400002 130.72,-59.52 l -2.56,-4.960003 -2.88,-4.64 -3.04,-4.479995 -3.36,-4.160004 -3.68,-4 -3.84,-3.519997 -4,-3.36"
       style="fill:none;stroke:#000000;stroke-width:26.4;stroke-linecap:round;stroke-linejoin:round;stroke-miterlimit:10;stroke-dasharray:none;stroke-opacity:1"
       transform="translate(170.39999,652.43995)"
       clip-path="url(#clipPath8)" />
    <path
       id="path9"
       d="m 0,0 1.92,-2.4 1.76,-2.56 1.44,-2.88 1.28,-3.04 1.12,-3.2 0.8,-3.200001 L 8.8,-20.639999 8.96,-24 9.12,-27.360001 8.8,-30.719999 8.32,-33.919998 7.52,-37.279999 6.56,-40.32 5.28,-43.360001 3.84,-46.240002 2.08,-48.959999 0.16,-51.52 -1.92,-53.759998 -4.16,-55.84 -6.56,-57.599998 -9.12,-59.200001 -11.68,-60.32 -14.4,-61.279999 -17.280001,-61.919998 -20,-62.240002 l -2.879999,-0.16 -2.880001,0.32 -2.72,0.640003 -2.720001,0.8 -2.719997,1.279998 -2.560002,1.440003 -2.400001,1.759998 -2.239998,1.919998 -2.080002,2.240002 -1.919998,2.400002 -1.760002,2.719997 L -48.48,-44 l -1.279998,3.040001 -1.120003,3.040001 -0.799999,3.199997 -0.48,3.36 -0.32,3.360001 -0.159999,3.360001 0.159999,3.199998"
       style="fill:none;stroke:#000000;stroke-width:26.4;stroke-linecap:round;stroke-linejoin:round;stroke-miterlimit:10;stroke-dasharray:none;stroke-opacity:1"
       transform="translate(222.88,673.87995)"
       clip-path="url(#clipPath10)" />
    <path
       id="path11"
       d="M 0,0 -0.16,-3.52 -0.8,-7.04 -1.6,-10.56 -2.56,-14.08 -4,-17.280001 -5.6,-20.48 -7.36,-23.360001 -9.44,-26.08 l -2.24,-2.559999 -2.4,-2.24 -2.559999,-1.92 -2.720002,-1.600003 L -22.24,-35.84 l -3.040001,-0.959999 -3.039999,-0.64 -3.040001,-0.479999 h -3.040001 l -3.039997,0.32 L -40.48,-36.959999 -43.360001,-36 l -2.880001,1.279999 -2.879997,1.600002 -2.560001,1.919998 -2.400002,2.240002 -2.399998,2.4 -2.080001,2.719999 -1.759999,2.880001 -1.599998,3.039999 -1.440003,3.36 -1.120002,3.36 -0.799996,3.52 -0.639999,3.52 -0.32,3.68 V 3.2 l 0.32,3.68 0.479996,3.52 0.959999,3.52 1.120002,3.360001 1.279999,3.359998 L -60.48,23.68 l 1.919999,2.879999 1.920002,2.720002"
       style="fill:none;stroke:#000000;stroke-width:26.4;stroke-linecap:round;stroke-linejoin:round;stroke-miterlimit:10;stroke-dasharray:none;stroke-opacity:1"
       transform="translate(623.35998,646.67994)"
       clip-path="url(#clipPath12)" />
  </g>
</svg>
