<?xml version="1.0" encoding="UTF-8" standalone="no"?>
<!-- Created with Inkscape (http://www.inkscape.org/) -->

<svg
   version="1.1"
   id="svg1"
   width="505.60001"
   height="345.70667"
   viewBox="0 0 505.60001 345.70667"
   sodipodi:docname="Sublimation12.pdf"
   xmlns:inkscape="http://www.inkscape.org/namespaces/inkscape"
   xmlns:sodipodi="http://sodipodi.sourceforge.net/DTD/sodipodi-0.dtd"
   xmlns="http://www.w3.org/2000/svg"
   xmlns:svg="http://www.w3.org/2000/svg">
  <defs
     id="defs1">
    <clipPath
       clipPathUnits="userSpaceOnUse"
       id="clipPath2">
      <path
         d="M 0,0.16 V 1122.5601 H 793.59998 V 0.16 Z"
         transform="translate(-3.3333333e-6)"
         clip-rule="evenodd"
         id="path2" />
    </clipPath>
    <clipPath
       clipPathUnits="userSpaceOnUse"
       id="clipPath4">
      <path
         d="M 0,0.16 V 1122.5601 H 793.59998 V 0.16 Z"
         transform="translate(-547.84002,-410.23999)"
         clip-rule="evenodd"
         id="path4" />
    </clipPath>
    <clipPath
       clipPathUnits="userSpaceOnUse"
       id="clipPath6">
      <path
         d="M 0,0.16 V 1122.5601 H 793.59998 V 0.16 Z"
         transform="translate(-245.75999,-712.15998)"
         clip-rule="evenodd"
         id="path6" />
    </clipPath>
  </defs>
  <sodipodi:namedview
     id="namedview1"
     pagecolor="#505050"
     bordercolor="#eeeeee"
     borderopacity="1"
     inkscape:showpageshadow="0"
     inkscape:pageopacity="0"
     inkscape:pagecheckerboard="0"
     inkscape:deskcolor="#505050">
    <inkscape:page
       x="0"
       y="0"
       inkscape:label="1"
       id="page1"
       width="505.60001"
       height="345.70667"
       margin="0"
       bleed="0" />
  </sodipodi:namedview>
  <g
     id="g1"
     inkscape:groupmode="layer"
     inkscape:label="1">
    <path
       id="path1"
       d="M 245.75999,712.32001 547.84003,410.23999"
       style="fill:none;stroke:#000000;stroke-width:26.4;stroke-linecap:round;stroke-linejoin:round;stroke-miterlimit:10;stroke-dasharray:none;stroke-opacity:1"
       transform="translate(-141.41333,-384.42673)"
       clip-path="url(#clipPath2)" />
    <path
       id="path3"
       d="m 0,0 -7.04,7.36 -7.04,7.36 -6.719999,7.68 -6.560002,7.68 -6.239997,7.839998 -6.080002,8 -5.759999,7.84 -5.440002,8.16 -5.279999,8 -4.799999,8.160004 -4.639999,8 -4.32,8 -3.840004,7.999998 -3.68,8 -3.199997,7.84 -2.879998,7.84 -2.560005,7.52 -2.080002,7.52 -1.759994,7.36 -1.440003,7.2 -1.120002,7.03999 -0.64,6.88001 -0.159996,6.56 0.159996,6.4 0.480004,6.08001 0.959999,5.91999 1.279998,5.6 1.599999,5.27999 2.080002,5.12001 2.400001,4.64 2.720002,4.48 3.199996,4 3.520005,3.84 3.839996,3.36 4.160004,3.04001 4.479995,2.55999 4.800004,2.4 5.119998,1.92 5.439999,1.44 5.600002,1.28 5.919999,0.8 6.239999,0.32001 h 6.560002 L -16.16,244 l 6.88,-0.8 7.2,-1.12 7.2,-1.44 7.36,-1.92 7.68,-2.24 7.68,-2.72001 7.68,-3.03999 8,-3.36 7.840001,-3.68001 8,-4 8.159996,-4.31999 8,-4.8"
       style="fill:none;stroke:#000000;stroke-width:26.4;stroke-linecap:round;stroke-linejoin:round;stroke-miterlimit:10;stroke-dasharray:none;stroke-opacity:1"
       transform="translate(406.42669,25.813265)"
       clip-path="url(#clipPath4)" />
    <path
       id="path5"
       d="m 0,0 7.2,-7.2 7.04,-7.52 6.719999,-7.68 6.560001,-7.68 6.239998,-7.839998 6.080002,-7.84 5.759998,-8 5.440003,-8 5.279999,-8.16 4.799999,-8 4.640003,-8.160004 4.32,-8 3.839996,-7.999998 3.68,-7.84 3.200005,-8 2.879997,-7.68 2.559998,-7.68 2.080002,-7.52 1.760002,-7.36 1.439995,-7.2 1.120002,-7.03999 0.64,-6.72 0.160003,-6.72001 -0.160003,-6.4 -0.479996,-6.08001 -0.960007,-5.91999 -1.279998,-5.6 -1.599999,-5.27999 -2.080002,-4.96001 -2.399994,-4.8 -2.720001,-4.32 -3.200004,-4.16 -3.519997,-3.67999 -3.840004,-3.36 -4.159996,-3.04001 -4.48,-2.72 -4.800003,-2.23999 -5.119999,-1.92002 -5.439998,-1.59999 -5.600003,-1.11999 L 35.68,-243.84 29.440001,-244.32001 H 22.879999 L 16.32,-244 l -6.88,0.8 -7.04,1.12 -7.36,1.6 -7.36,1.92 -7.52,2.23999 -7.68,2.56002 -7.840001,3.03999 -8,3.36 -7.84,3.68001 -8,4 -8.16,4.47999 -8.159996,4.48"
       style="fill:none;stroke:#000000;stroke-width:26.4;stroke-linecap:round;stroke-linejoin:round;stroke-miterlimit:10;stroke-dasharray:none;stroke-opacity:1"
       transform="translate(104.34666,327.73325)"
       clip-path="url(#clipPath6)" />
  </g>
</svg>
