<?xml version="1.0" encoding="UTF-8" standalone="no"?>
<!-- Created with Inkscape (http://www.inkscape.org/) -->

<svg
   version="1.1"
   id="svg1"
   width="502.93332"
   height="277.64001"
   viewBox="0 0 502.93332 277.64001"
   sodipodi:docname="Sublimate5.pdf"
   xmlns:inkscape="http://www.inkscape.org/namespaces/inkscape"
   xmlns:sodipodi="http://sodipodi.sourceforge.net/DTD/sodipodi-0.dtd"
   xmlns="http://www.w3.org/2000/svg"
   xmlns:svg="http://www.w3.org/2000/svg">
  <defs
     id="defs1">
    <clipPath
       clipPathUnits="userSpaceOnUse"
       id="clipPath2">
      <path
         d="M 0,0.16 V 1122.5601 H 793.59998 V 0.16 Z"
         clip-rule="evenodd"
         id="path2" />
    </clipPath>
    <clipPath
       clipPathUnits="userSpaceOnUse"
       id="clipPath4">
      <path
         d="M 0,0.16 V 1122.5601 H 793.59998 V 0.16 Z"
         clip-rule="evenodd"
         id="path4" />
    </clipPath>
    <clipPath
       clipPathUnits="userSpaceOnUse"
       id="clipPath6">
      <path
         d="M 0,0.16 V 1122.5601 H 793.59998 V 0.16 Z"
         transform="translate(-434.56,-485.76001)"
         clip-rule="evenodd"
         id="path6" />
    </clipPath>
    <clipPath
       clipPathUnits="userSpaceOnUse"
       id="clipPath8">
      <path
         d="M 0,0.16 V 1122.5601 H 793.59998 V 0.16 Z"
         clip-rule="evenodd"
         id="path8" />
    </clipPath>
    <clipPath
       clipPathUnits="userSpaceOnUse"
       id="clipPath10">
      <path
         d="M 0,0.16 V 1122.5601 H 793.59998 V 0.16 Z"
         clip-rule="evenodd"
         id="path10" />
    </clipPath>
    <clipPath
       clipPathUnits="userSpaceOnUse"
       id="clipPath12">
      <path
         d="M 0,0.16 V 1122.5601 H 793.59998 V 0.16 Z"
         clip-rule="evenodd"
         id="path12" />
    </clipPath>
    <clipPath
       clipPathUnits="userSpaceOnUse"
       id="clipPath14">
      <path
         d="M 0,0.16 V 1122.5601 H 793.59998 V 0.16 Z"
         clip-rule="evenodd"
         id="path14" />
    </clipPath>
    <clipPath
       clipPathUnits="userSpaceOnUse"
       id="clipPath16">
      <path
         d="M 0,0.16 V 1122.5601 H 793.59998 V 0.16 Z"
         transform="translate(-359.04001,-636.79999)"
         clip-rule="evenodd"
         id="path16" />
    </clipPath>
    <clipPath
       clipPathUnits="userSpaceOnUse"
       id="clipPath18">
      <path
         d="M 0,0.16 V 1122.5601 H 793.59998 V 0.16 Z"
         clip-rule="evenodd"
         id="path18" />
    </clipPath>
    <clipPath
       clipPathUnits="userSpaceOnUse"
       id="clipPath20">
      <path
         d="M 0,0.16 V 1122.5601 H 793.59998 V 0.16 Z"
         clip-rule="evenodd"
         id="path20" />
    </clipPath>
  </defs>
  <sodipodi:namedview
     id="namedview1"
     pagecolor="#505050"
     bordercolor="#eeeeee"
     borderopacity="1"
     inkscape:showpageshadow="0"
     inkscape:pageopacity="0"
     inkscape:pagecheckerboard="0"
     inkscape:deskcolor="#505050">
    <inkscape:page
       x="0"
       y="0"
       inkscape:label="1"
       id="page1"
       width="502.93332"
       height="277.64001"
       margin="0"
       bleed="0" />
  </sodipodi:namedview>
  <g
     id="g1"
     inkscape:groupmode="layer"
     inkscape:label="1">
    <path
       id="path1"
       d="M 170.24,523.52002 H 359.04001"
       style="fill:none;stroke:#000000;stroke-width:26.4;stroke-linecap:round;stroke-linejoin:round;stroke-miterlimit:10;stroke-dasharray:none;stroke-opacity:1"
       transform="translate(0,-4.013392)"
       clip-path="url(#clipPath2)" />
    <path
       id="path3"
       d="M 434.56,523.52002 H 623.35998"
       style="fill:none;stroke:#000000;stroke-width:26.4;stroke-linecap:round;stroke-linejoin:round;stroke-miterlimit:10;stroke-dasharray:none;stroke-opacity:1"
       transform="translate(0,-4.013392)"
       clip-path="url(#clipPath4)" />
    <path
       id="path5"
       d="M 0,0 -0.16,-3.52 -0.64,-7.04 -1.44,-10.4 -2.56,-13.76 -4,-16.959999 -5.76,-20 -7.68,-22.879999 -9.92,-25.6 l -2.56,-2.4 -2.72,-2.24 -2.88,-1.92 -3.040001,-1.759998 -3.199999,-1.440003 -3.36,-0.959999 -3.520001,-0.799999 -3.52,-0.479999 -3.520001,-0.16 -3.359996,0.16 -3.520001,0.639999 -3.52,0.799999 -3.200001,1.119999 -3.200001,1.600002 -3.040001,1.759999 -2.879997,1.92 -2.720001,2.399999 -2.400002,2.400002 L -68.32,-22.08 l -1.919998,2.879999 -1.599998,3.040001 -1.440003,3.36 -0.959999,3.36 -0.800003,3.36 -0.32,3.52 -0.159996,3.36"
       style="fill:none;stroke:#000000;stroke-width:26.4;stroke-linecap:round;stroke-linejoin:round;stroke-miterlimit:10;stroke-dasharray:none;stroke-opacity:1"
       transform="translate(434.56,481.74662)"
       clip-path="url(#clipPath6)" />
    <path
       id="path7"
       d="m 359.04001,486.72 v 36.80002"
       style="fill:none;stroke:#000000;stroke-width:26.4;stroke-linecap:round;stroke-linejoin:round;stroke-miterlimit:10;stroke-dasharray:none;stroke-opacity:1"
       transform="translate(0,-4.013392)"
       clip-path="url(#clipPath8)" />
    <path
       id="path9"
       d="m 434.56,485.76001 v 37.76001"
       style="fill:none;stroke:#000000;stroke-width:26.4;stroke-linecap:round;stroke-linejoin:round;stroke-miterlimit:10;stroke-dasharray:none;stroke-opacity:1"
       transform="translate(0,-4.013392)"
       clip-path="url(#clipPath10)" />
    <path
       id="path11"
       d="M 623.35998,599.03998 H 434.56"
       style="fill:none;stroke:#000000;stroke-width:26.4;stroke-linecap:round;stroke-linejoin:round;stroke-miterlimit:10;stroke-dasharray:none;stroke-opacity:1"
       transform="translate(0,-4.013392)"
       clip-path="url(#clipPath12)" />
    <path
       id="path13"
       d="M 359.04001,599.03998 H 170.24"
       style="fill:none;stroke:#000000;stroke-width:26.4;stroke-linecap:round;stroke-linejoin:round;stroke-miterlimit:10;stroke-dasharray:none;stroke-opacity:1"
       transform="translate(0,-4.013392)"
       clip-path="url(#clipPath14)" />
    <path
       id="path15"
       d="M 0,0 0.16,3.52 0.64,7.04 1.44,10.4 2.72,13.76 4,16.959999 5.76,20 7.84,22.879999 10.08,25.6 l 2.4,2.56 2.72,2.08 3.04,2.08 3.040001,1.599998 3.199999,1.440003 3.36,1.119999 3.360001,0.799999 3.52,0.319999 3.520001,0.16 3.519996,-0.16 3.520001,-0.639999 3.36,-0.799999 L 52,35.040001 55.200001,33.599998 58.240002,31.84 61.119999,29.76 63.68,27.52 66.239998,24.959999 68.32,22.24 70.239998,19.200001 72,16.16 73.279999,12.96 74.400002,9.6 75.040001,6.08 75.519997,2.56 v -3.52"
       style="fill:none;stroke:#000000;stroke-width:26.4;stroke-linecap:round;stroke-linejoin:round;stroke-miterlimit:10;stroke-dasharray:none;stroke-opacity:1"
       transform="translate(359.04001,632.7866)"
       clip-path="url(#clipPath16)" />
    <path
       id="path17"
       d="M 434.56,635.84003 V 599.03998"
       style="fill:none;stroke:#000000;stroke-width:26.4;stroke-linecap:round;stroke-linejoin:round;stroke-miterlimit:10;stroke-dasharray:none;stroke-opacity:1"
       transform="translate(0,-4.013392)"
       clip-path="url(#clipPath18)" />
    <path
       id="path19"
       d="M 359.04001,636.79999 V 599.03998"
       style="fill:none;stroke:#000000;stroke-width:26.4;stroke-linecap:round;stroke-linejoin:round;stroke-miterlimit:10;stroke-dasharray:none;stroke-opacity:1"
       transform="translate(0,-4.013392)"
       clip-path="url(#clipPath20)" />
  </g>
</svg>
