<?xml version="1.0" encoding="UTF-8" standalone="no"?>
<!-- Created with Inkscape (http://www.inkscape.org/) -->

<svg
   version="1.1"
   id="svg1"
   width="776.4267"
   height="774.17334"
   viewBox="0 0 776.4267 774.17334"
   sodipodi:docname="Tincture.pdf"
   xmlns:inkscape="http://www.inkscape.org/namespaces/inkscape"
   xmlns:sodipodi="http://sodipodi.sourceforge.net/DTD/sodipodi-0.dtd"
   xmlns="http://www.w3.org/2000/svg"
   xmlns:svg="http://www.w3.org/2000/svg">
  <defs
     id="defs1">
    <clipPath
       clipPathUnits="userSpaceOnUse"
       id="clipPath2">
      <path
         d="M 0,0.16 V 1122.5601 H 793.59998 V 0.16 Z"
         clip-rule="evenodd"
         id="path2" />
    </clipPath>
    <clipPath
       clipPathUnits="userSpaceOnUse"
       id="clipPath4">
      <path
         d="M 0,0.16 V 1122.5601 H 793.59998 V 0.16 Z"
         clip-rule="evenodd"
         id="path4" />
    </clipPath>
    <clipPath
       clipPathUnits="userSpaceOnUse"
       id="clipPath6">
      <path
         d="M 0,0.16 V 1122.5601 H 793.59998 V 0.16 Z"
         transform="translate(-417.92002,-662.71997)"
         clip-rule="evenodd"
         id="path6" />
    </clipPath>
    <clipPath
       clipPathUnits="userSpaceOnUse"
       id="clipPath8">
      <path
         d="M 0,0.16 V 1122.5601 H 793.59998 V 0.16 Z"
         clip-rule="evenodd"
         id="path8" />
    </clipPath>
  </defs>
  <sodipodi:namedview
     id="namedview1"
     pagecolor="#505050"
     bordercolor="#eeeeee"
     borderopacity="1"
     inkscape:showpageshadow="0"
     inkscape:pageopacity="0"
     inkscape:pagecheckerboard="0"
     inkscape:deskcolor="#505050">
    <inkscape:page
       x="0"
       y="0"
       inkscape:label="1"
       id="page1"
       width="776.4267"
       height="774.17334"
       margin="0"
       bleed="0" />
  </sodipodi:namedview>
  <g
     id="g1"
     inkscape:groupmode="layer"
     inkscape:label="1">
    <path
       id="path1"
       d="M 396.79999,202.56 V 920"
       style="fill:none;stroke:#000000;stroke-width:26.4;stroke-linecap:round;stroke-linejoin:round;stroke-miterlimit:10;stroke-dasharray:none;stroke-opacity:1"
       transform="translate(-10.666667,-169.52006)"
       clip-path="url(#clipPath2)" />
    <path
       id="path3"
       d="M 38.080002,381.92001 V 202.56 H 755.52002 v 179.36001"
       style="fill:none;stroke:#000000;stroke-width:26.4;stroke-linecap:round;stroke-linejoin:round;stroke-miterlimit:10;stroke-dasharray:none;stroke-opacity:1"
       transform="translate(-10.666667,-169.52006)"
       clip-path="url(#clipPath4)" />
    <path
       id="path5"
       d="M 0,0 5.76,5.6 12,10.72 18.4,15.52 25.120001,20 32,24.16 l 7.200001,3.68 7.36,3.360001 7.520001,2.880001 7.519996,2.399998 7.840004,1.920002 8,1.599998 7.839997,1.119999 8,0.639999 8.160001,0.320004 8,-0.320004 8,-0.639999 L 125.44,40 133.28,38.400002 141.11999,36.48 148.8,34.080002 156.32001,31.200001 163.67999,27.84 170.88,24.16 177.75999,20 184.48,15.52 l 6.4,-4.8 6.08001,-5.12 5.91999,-5.6 5.44001,-5.76 5.28,-6.24 4.79998,-6.4 4.48001,-6.720001 4.15999,-6.879999 3.68001,-7.200001 3.2,-7.36 2.88,-7.520001 2.4,-7.679996 2.08,-7.680004 1.6,-8 1.12,-7.839997 0.64,-8.160003 0.16,-7.999998 -0.16,-8 -0.64,-8 -1.12,-8 -1.6,-7.84 -2.08,-7.83999 -2.4,-7.68001 -2.88,-7.52001 -3.2,-7.35998 -3.68001,-7.20001 -4.15999,-6.87999 -4.48001,-6.72001 -4.79998,-6.4 -5.28,-6.08001 -5.44001,-5.91999 -5.91999,-5.6 -6.08001,-5.12001 -6.4,-4.79998 -6.72001,-4.48001 -6.87999,-4.15999 -7.20001,-3.68001 -7.35998,-3.2 -7.52001,-2.88 -7.68001,-2.56 -7.83999,-1.92 -7.84,-1.6 -8,-1.12 -8,-0.64 -8,-0.32001 -8.160001,0.32001 -8,0.64 -7.839997,1.12 -8,1.6 -7.840004,1.92 -7.519996,2.56 -7.520001,2.88 -7.36,3.2 L 32,-227.03999 25.120001,-222.88 18.4,-218.39999 12,-213.60001 5.76,-208.48 0,-202.88"
       style="fill:none;stroke:#000000;stroke-width:26.4;stroke-linecap:round;stroke-linejoin:round;stroke-miterlimit:10;stroke-dasharray:none;stroke-opacity:1"
       transform="translate(407.25335,493.19991)"
       clip-path="url(#clipPath6)" />
    <path
       id="path7"
       d="M 447.04001,690.71997 755.52002,920"
       style="fill:none;stroke:#000000;stroke-width:26.4;stroke-linecap:round;stroke-linejoin:round;stroke-miterlimit:10;stroke-dasharray:none;stroke-opacity:1"
       transform="translate(-10.666667,-169.52006)"
       clip-path="url(#clipPath8)" />
  </g>
</svg>
