<?xml version="1.0" encoding="UTF-8" standalone="no"?>
<!-- Created with Inkscape (http://www.inkscape.org/) -->

<svg
   version="1.1"
   id="svg1"
   width="521.61334"
   height="707.44"
   viewBox="0 0 521.61334 707.44"
   sodipodi:docname="Tincture4.pdf"
   xmlns:inkscape="http://www.inkscape.org/namespaces/inkscape"
   xmlns:sodipodi="http://sodipodi.sourceforge.net/DTD/sodipodi-0.dtd"
   xmlns="http://www.w3.org/2000/svg"
   xmlns:svg="http://www.w3.org/2000/svg">
  <defs
     id="defs1">
    <clipPath
       clipPathUnits="userSpaceOnUse"
       id="clipPath2">
      <path
         d="M 0,0.16 V 1122.5601 H 793.59998 V 0.16 Z"
         transform="translate(-506.39999,-427.51999)"
         clip-rule="evenodd"
         id="path2" />
    </clipPath>
    <clipPath
       clipPathUnits="userSpaceOnUse"
       id="clipPath4">
      <path
         d="M 0,0.16 V 1122.5601 H 793.59998 V 0.16 Z"
         transform="translate(-297.92001,-829.76001)"
         clip-rule="evenodd"
         id="path4" />
    </clipPath>
    <clipPath
       clipPathUnits="userSpaceOnUse"
       id="clipPath6">
      <path
         d="M 0,0.16 V 1122.5601 H 793.59998 V 0.16 Z"
         transform="translate(-632.79999,-367.20002)"
         clip-rule="evenodd"
         id="path6" />
    </clipPath>
    <clipPath
       clipPathUnits="userSpaceOnUse"
       id="clipPath8">
      <path
         d="M 0,0.16 V 1122.5601 H 793.59998 V 0.16 Z"
         clip-rule="evenodd"
         id="path8" />
    </clipPath>
  </defs>
  <sodipodi:namedview
     id="namedview1"
     pagecolor="#505050"
     bordercolor="#eeeeee"
     borderopacity="1"
     inkscape:showpageshadow="0"
     inkscape:pageopacity="0"
     inkscape:pagecheckerboard="0"
     inkscape:deskcolor="#505050">
    <inkscape:page
       x="0"
       y="0"
       inkscape:label="1"
       id="page1"
       width="521.61334"
       height="707.44"
       margin="0"
       bleed="0" />
  </sodipodi:namedview>
  <g
     id="g1"
     inkscape:groupmode="layer"
     inkscape:label="1">
    <path
       id="path1"
       d="m 0,0 -8.32,-4.16 -8.319999,-4 -8.32,-3.68 -8.48,-3.52 -8.479999,-3.359999 -8.640003,-2.880001 -8.48,-2.88 -8.32,-2.399999 -8.479995,-2.240002 -8.320008,-1.92 -8.159996,-1.759998 -8.16,-1.440003 -7.84,-1.119999 -7.84,-0.799999 -7.68,-0.479999 -7.36,-0.32 h -7.19999 l -7.04001,0.32 -6.72,0.639999 -6.4,0.959999 -6.24,1.120003 -5.92,1.599998 -5.60001,1.760001 -5.28,1.92 -4.95999,2.399999 -4.64,2.56 -4.16,2.720001 -4,3.199999 -3.52,3.2 -3.04,3.68 -2.72,3.68 -2.39999,4 -1.92002,4.32 -1.43998,4.32 -1.12001,4.64 -0.80001,4.8 -0.15999,4.96 v 5.119999 l 0.64,5.280001 0.96,5.28 1.44,5.439999 1.76001,5.600002 2.23999,5.759999 2.56,5.760002 3.04,5.759998 3.36,5.920002 3.68,5.919998 4.16,5.919998 4.48,5.919999 4.8,5.920005 5.28,5.919999 5.44,5.759999 5.76,5.92 6.08,5.6 6.40001,5.76 6.72,5.6 6.87999,5.44 7.19999,5.28 7.36001,5.28 7.52,4.96001 7.68,4.95999 8,4.64 7.999999,4.64 8.160004,4.32"
       style="fill:none;stroke:#000000;stroke-width:26.4;stroke-linecap:round;stroke-linejoin:round;stroke-miterlimit:10;stroke-dasharray:none;stroke-opacity:1"
       transform="translate(506.39999,420.85326)"
       clip-path="url(#clipPath2)" />
    <path
       id="path3"
       d="M 0,0 10.4,5.28 20.959999,10.24 31.52,15.2 42.080002,19.84 52.799999,24.16 63.52,28.32 l 10.719998,4 10.560005,3.68 10.719994,3.360001 10.560003,3.040001 10.4,2.879997 10.4,2.560001 10.4,2.240002 10.08,2.079998 9.92,1.759998 9.92,1.440003 9.6,1.119999 9.44,0.799999 9.28,0.479999 8.96,0.16 h 8.8 l 8.47999,-0.32 L 230.08,56.959999 237.92,56 l 7.68001,-1.279999 7.36,-1.600002 6.87999,-1.919998 6.72,-2.080002 6.23999,-2.399998 L 278.72,44 l 5.60001,-2.880001 5.28,-3.360001 4.79998,-3.519996 4.32001,-3.680003 4,-4 3.51999,-4.319999 3.20001,-4.48 2.72,-4.8 2.23999,-4.96 1.92002,-5.12 1.44,-5.44 0.95999,-5.6 0.63999,-5.76 v -5.92 l -0.31998,-6.08 -0.80002,-6.24 -1.11999,-6.400001 -1.76001,-6.559998 L 313.28,-51.84 l -2.4,-6.720001 -3.04,-6.880001 -3.35999,-7.040001 -3.68002,-7.039994 -4.31998,-7.040001 L 292,-93.760002 286.88,-100.96 l -5.27999,-7.2 -5.76001,-7.2 -6.23999,-7.2 -6.4,-7.36 -6.88,-7.19999 -7.04001,-7.20002 -7.52001,-7.03999 -7.83999,-7.2 -8.16001,-6.88 -8.31999,-7.04 -8.64,-6.72 -8.8,-6.72 -9.12,-6.72 -9.44,-6.39999 -9.6,-6.40001 -9.76,-6.23999 -9.92,-5.92002 -9.92,-5.91999 -10.24,-5.59999 -10.4,-5.60001"
       style="fill:none;stroke:#000000;stroke-width:26.4;stroke-linecap:round;stroke-linejoin:round;stroke-miterlimit:10;stroke-dasharray:none;stroke-opacity:1"
       transform="translate(297.92001,823.09328)"
       clip-path="url(#clipPath4)" />
    <path
       id="path5"
       d="m 0,0 -6.4,-9.92 -6.72,-9.76 -7.2,-9.279999 -7.52,-8.959999 -8,-8.800003 -8.32,-8.32 -8.639999,-8 -8.959999,-7.519997 -9.280003,-7.200004 -9.599998,-6.879997 -9.919999,-6.400002 -10.080002,-5.919998 -10.4,-5.600001 -10.72,-5.12 -10.72,-4.64 -11.04,-4.16 -11.2,-3.68 -11.36,-3.2 -11.36,-2.72 -11.67999,-2.24001 -11.52001,-1.75999 -11.84,-1.28 -11.68,-0.8 -11.84,-0.16001 -11.67999,0.16001 -11.84,0.8 -11.68002,1.28 -11.67999,1.75999 -11.51999,2.24001 -11.52002,2.72 -11.19999,3.2 -11.20001,3.68 -11.03998,4.16 -10.88,4.64 -10.56,5.12 -10.40002,5.600001 -10.23999,5.919998 -9.76001,6.400002 -9.59998,6.879997 -9.44,7.200004 -8.96002,7.519997 -8.63999,8 -8.32,8.32 -7.84,8.800003 -7.67999,8.959999 L -458.88,-19.68 -465.60001,-9.92 -472,0"
       style="fill:none;stroke:#000000;stroke-width:26.4;stroke-linecap:round;stroke-linejoin:round;stroke-miterlimit:10;stroke-dasharray:none;stroke-opacity:1"
       transform="translate(632.79999,360.53329)"
       clip-path="url(#clipPath6)" />
    <path
       id="path7"
       d="m 387.35999,235.03999 v 151.04"
       style="fill:none;stroke:#000000;stroke-width:26.4;stroke-linecap:round;stroke-linejoin:round;stroke-miterlimit:10;stroke-dasharray:none;stroke-opacity:1"
       transform="translate(0,-6.6667253)"
       clip-path="url(#clipPath8)" />
  </g>
</svg>
