<?xml version="1.0" encoding="UTF-8" standalone="no"?>
<!-- Created with Inkscape (http://www.inkscape.org/) -->

<svg
   version="1.1"
   id="svg1"
   width="667.01331"
   height="587.30664"
   viewBox="0 0 667.01331 587.30664"
   sodipodi:docname="Tincture2.pdf"
   xmlns:inkscape="http://www.inkscape.org/namespaces/inkscape"
   xmlns:sodipodi="http://sodipodi.sourceforge.net/DTD/sodipodi-0.dtd"
   xmlns="http://www.w3.org/2000/svg"
   xmlns:svg="http://www.w3.org/2000/svg">
  <defs
     id="defs1">
    <clipPath
       clipPathUnits="userSpaceOnUse"
       id="clipPath2">
      <path
         d="M 0,0.16 V 1122.5601 H 793.59998 V 0.16 Z"
         transform="translate(-86.879997,-828.47998)"
         clip-rule="evenodd"
         id="path2" />
    </clipPath>
    <clipPath
       clipPathUnits="userSpaceOnUse"
       id="clipPath4">
      <path
         d="M 0,0.16 V 1122.5601 H 793.59998 V 0.16 Z"
         transform="translate(-423.67999,-312.48001)"
         clip-rule="evenodd"
         id="path4" />
    </clipPath>
  </defs>
  <sodipodi:namedview
     id="namedview1"
     pagecolor="#505050"
     bordercolor="#eeeeee"
     borderopacity="1"
     inkscape:showpageshadow="0"
     inkscape:pageopacity="0"
     inkscape:pagecheckerboard="0"
     inkscape:deskcolor="#505050">
    <inkscape:page
       x="0"
       y="0"
       inkscape:label="1"
       id="page1"
       width="667.01331"
       height="587.30664"
       margin="0"
       bleed="0" />
  </sodipodi:namedview>
  <g
     id="g1"
     inkscape:groupmode="layer"
     inkscape:label="1">
    <path
       id="path1"
       d="M 0,0 10.56,-6.88 21.280001,-14.24 32,-21.76 42.720001,-29.6 53.439999,-37.759998 64.32,-46.080002 l 10.720001,-8.479999 10.720001,-8.8 10.720001,-9.120002 10.559997,-9.119995 10.56,-9.440003 10.56,-9.599999 10.23999,-9.76 10.40001,-9.92 10.08,-10.07999 10.08001,-10.24001 9.91999,-10.24 9.6,-10.4 9.6,-10.56 9.28,-10.55999 9.28,-10.72 8.96001,-10.56 8.63999,-10.88001 8.64,-10.72 8.15999,-10.72 8.00002,-10.72 7.83999,-10.88001 7.51999,-10.55999 7.20002,-10.72 6.88,-10.72001 6.56,-10.39999 6.23999,-10.56 6.07999,-10.23999 5.6,-10.24002 5.44,-10.23999 4.96,-9.92001 4.64001,-9.75998 4.32001,-9.76001 3.83999,-9.44 3.68,-9.28 3.20001,-9.12 2.88,-8.95999 2.4,-8.64001 2.07998,-8.48001 1.76001,-8.15998 1.44001,-7.84002 0.95999,-7.68 0.48001,-7.35998 0.16,-7.20001 -0.16,-6.88001 -0.48001,-6.39999 -0.95999,-6.23999 -1.44001,-5.92002 -1.6,-5.6 -2.23999,-5.12 -2.4,-4.95999 -2.88,-4.48001 -3.20001,-4.16 -3.51999,-3.83997 -4,-3.52002 -4.32001,-3.03998 -4.64001,-2.88 -4.96,-2.23999 -5.27999,-2.08002 -5.76001,-1.60004 -5.91999,-1.11999 -6.23999,-0.95996 -6.72,-0.48004 h -6.88 l -7.20002,0.32 -7.35998,0.64002 -7.84,1.11999 -8.00001,1.44001 -8.32,1.91998 -8.48001,2.24005 -8.64,2.56 -8.95999,2.87994 -9.28,3.36005 -9.28,3.67999 -9.6,4 -9.60001,4.47998 -9.92,4.80002 -10.08,5.11999 -10.07998,5.44001 -10.24001,5.75998 -10.39999,6.08001 -10.56001,6.4 -10.56,6.55999 -10.560001,7.04001 -10.720001,7.35999 -10.720001,7.52002 -10.719994,7.83999 -10.880005,8"
       style="fill:none;stroke:#000000;stroke-width:26.4;stroke-linecap:round;stroke-linejoin:round;stroke-miterlimit:10;stroke-dasharray:none;stroke-opacity:1"
       transform="translate(22.839997,561.51992)"
       clip-path="url(#clipPath2)" />
    <path
       id="path3"
       d="m 0,0 9.76,6.08 10.08,5.6 10.4,5.279999 L 40.639999,21.6 51.360001,25.92 62.240002,29.6 73.279999,32.959999 84.480003,35.68 95.839996,38.080002 107.2,39.84 l 11.36,1.279999 11.52,0.799999 11.52001,0.160004 11.51998,-0.160004 L 164.64,41.119999 176.16,39.84 187.52,38.080002 198.72,35.68 209.92,32.959999 220.96001,29.6 231.84,25.92 242.56,21.6 253.11999,16.959999 263.35999,11.68 273.44,6.08 283.20001,0"
       style="fill:none;stroke:#000000;stroke-width:26.4;stroke-linecap:round;stroke-linejoin:round;stroke-miterlimit:10;stroke-dasharray:none;stroke-opacity:1"
       transform="translate(359.63999,45.519952)"
       clip-path="url(#clipPath4)" />
  </g>
</svg>
