<?xml version="1.0" encoding="UTF-8" standalone="no"?>
<!-- Created with Inkscape (http://www.inkscape.org/) -->

<svg
   version="1.1"
   id="svg1"
   width="290.81332"
   height="485.86667"
   viewBox="0 0 290.81332 485.86667"
   sodipodi:docname="VeneralDisease.pdf"
   xmlns:inkscape="http://www.inkscape.org/namespaces/inkscape"
   xmlns:sodipodi="http://sodipodi.sourceforge.net/DTD/sodipodi-0.dtd"
   xmlns="http://www.w3.org/2000/svg"
   xmlns:svg="http://www.w3.org/2000/svg">
  <defs
     id="defs1">
    <clipPath
       clipPathUnits="userSpaceOnUse"
       id="clipPath2">
      <path
         d="M 0,0.16 V 1122.5601 H 793.59998 V 0.16 Z"
         transform="translate(-418.88,-488.16001)"
         clip-rule="evenodd"
         id="path2" />
    </clipPath>
    <clipPath
       clipPathUnits="userSpaceOnUse"
       id="clipPath4">
      <path
         d="M 0,0.16 V 1122.5601 H 793.59998 V 0.16 Z"
         transform="translate(-296.16,-358.72001)"
         clip-rule="evenodd"
         id="path4" />
    </clipPath>
    <clipPath
       clipPathUnits="userSpaceOnUse"
       id="clipPath6">
      <path
         d="M 0,0.16 V 1122.5601 H 793.59998 V 0.16 Z"
         clip-rule="evenodd"
         id="path6" />
    </clipPath>
    <clipPath
       clipPathUnits="userSpaceOnUse"
       id="clipPath8">
      <path
         d="M 0,0.16 V 1122.5601 H 793.59998 V 0.16 Z"
         clip-rule="evenodd"
         id="path8" />
    </clipPath>
    <clipPath
       clipPathUnits="userSpaceOnUse"
       id="clipPath10">
      <path
         d="M 0,0.16 V 1122.5601 H 793.59998 V 0.16 Z"
         clip-rule="evenodd"
         id="path10" />
    </clipPath>
    <clipPath
       clipPathUnits="userSpaceOnUse"
       id="clipPath12">
      <path
         d="M 0,0.16 V 1122.5601 H 793.59998 V 0.16 Z"
         transform="translate(-371.67999,-488.16001)"
         clip-rule="evenodd"
         id="path12" />
    </clipPath>
    <clipPath
       clipPathUnits="userSpaceOnUse"
       id="clipPath14">
      <path
         d="M 0,0.16 V 1122.5601 H 793.59998 V 0.16 Z"
         transform="translate(-371.67999,-488.16001)"
         clip-rule="evenodd"
         id="path14" />
    </clipPath>
  </defs>
  <sodipodi:namedview
     id="namedview1"
     pagecolor="#505050"
     bordercolor="#eeeeee"
     borderopacity="1"
     inkscape:showpageshadow="0"
     inkscape:pageopacity="0"
     inkscape:pagecheckerboard="0"
     inkscape:deskcolor="#505050">
    <inkscape:page
       x="0"
       y="0"
       inkscape:label="1"
       id="page1"
       width="290.81332"
       height="485.86667"
       margin="0"
       bleed="0" />
  </sodipodi:namedview>
  <g
     id="g1"
     inkscape:groupmode="layer"
     inkscape:label="1">
    <path
       id="path1"
       d="m 0,0 c 0,-33.400002 -27.040001,-60.48 -60.400002,-60.48 -33.36,0 -60.399998,27.079998 -60.399998,60.48 0,33.400002 27.039998,60.48 60.399998,60.48 C -27.040001,60.48 0,33.400002 0,0 Z"
       style="fill:none;stroke:#000000;stroke-width:26.4;stroke-linecap:round;stroke-linejoin:round;stroke-miterlimit:10;stroke-dasharray:none;stroke-opacity:1"
       transform="translate(418.88,460.13328)"
       clip-path="url(#clipPath2)" />
    <path
       id="path3"
       d="M 0,0 0.32,4.96 0.8,9.92 1.76,14.72 3.2,19.360001 4.8,24 l 2.08,4.48 2.4,4.159999 2.72,4.16 3.04,3.84 3.36,3.520001 3.52,3.36 3.84,3.040001 4,2.719998 4.320002,2.400001 4.479999,1.919998 4.64,1.760003 4.639999,1.279998 4.799999,0.959999 4.8,0.640004 4.960003,0.16 4.799995,-0.16 4.960007,-0.640004 4.799995,-0.959999 4.639999,-1.279998 4.64,-1.760003 4.32,-1.919998 4.319999,-2.400001 4.160004,-2.719998 L 102.88,47.52 l 3.52,-3.36 3.36,-3.520001 3.04,-3.84 2.72,-4.16 2.4,-4.159999 1.92,-4.48 1.76,-4.639999 1.28,-4.640001 0.96,-4.8 0.64,-4.96 V 0"
       style="fill:none;stroke:#000000;stroke-width:26.4;stroke-linecap:round;stroke-linejoin:round;stroke-miterlimit:10;stroke-dasharray:none;stroke-opacity:1"
       transform="translate(296.16,330.69328)"
       clip-path="url(#clipPath4)" />
    <path
       id="path5"
       d="M 358.56,548.64001 V 669.44"
       style="fill:none;stroke:#000000;stroke-width:26.4;stroke-linecap:round;stroke-linejoin:round;stroke-miterlimit:10;stroke-dasharray:none;stroke-opacity:1"
       transform="translate(0,-28.026725)"
       clip-path="url(#clipPath6)" />
    <path
       id="path7"
       d="m 237.75999,790.23999 60.32,-151.03998 60.48001,30.23999 60.32,-30.23999 60.47999,151.03998"
       style="fill:none;stroke:#000000;stroke-width:26.4;stroke-linecap:round;stroke-linejoin:round;stroke-miterlimit:10;stroke-dasharray:none;stroke-opacity:1"
       transform="translate(0,-28.026725)"
       clip-path="url(#clipPath8)" />
    <path
       id="path9"
       d="M 298.07999,593.91998 H 418.88"
       style="fill:none;stroke:#000000;stroke-width:26.4;stroke-linecap:round;stroke-linejoin:round;stroke-miterlimit:10;stroke-dasharray:none;stroke-opacity:1"
       transform="translate(0,-28.026725)"
       clip-path="url(#clipPath10)" />
    <path
       id="path11"
       d="m 0,0 v -1.76 l -0.32,-1.6 -0.64,-1.76 -0.8,-1.44 -0.96,-1.44 -1.12,-1.28 -1.28,-1.28 -1.44,-0.96 -1.6,-0.64 -1.6,-0.64 -1.6,-0.32 -1.76,-0.16 -1.76,0.16 -1.759999,0.32 -1.600001,0.64 -1.6,0.64 -1.280001,0.96 -1.439998,1.28 L -23.68,-8 l -0.959999,1.44 -0.800002,1.44 -0.479999,1.76 -0.32,1.6 -0.16,1.76 0.16,1.76 0.32,1.6 0.479999,1.76 0.800002,1.44 L -23.68,8 l 1.120001,1.28 1.439998,1.28 1.280001,0.96 1.6,0.64 1.600001,0.64 1.759999,0.32 1.76,0.16 1.76,-0.16 1.6,-0.32 1.6,-0.64 1.6,-0.64 1.44,-0.96 L -3.84,9.28 -2.72,8 -1.76,6.56 -0.96,5.12 -0.32,3.36 0,1.76 V 0 0 Z"
       style="fill:#000000;fill-opacity:1;fill-rule:evenodd;stroke:none"
       transform="translate(371.67999,460.13328)"
       clip-path="url(#clipPath12)" />
    <path
       id="path13"
       d="m 0,0 v -1.76 l -0.32,-1.6 -0.64,-1.76 -0.8,-1.44 -0.96,-1.44 -1.12,-1.28 -1.28,-1.28 -1.44,-0.96 -1.6,-0.64 -1.6,-0.64 -1.6,-0.32 -1.76,-0.16 -1.76,0.16 -1.759999,0.32 -1.600001,0.64 -1.6,0.64 -1.280001,0.96 -1.439998,1.28 L -23.68,-8 l -0.959999,1.44 -0.800002,1.44 -0.479999,1.76 -0.32,1.6 -0.16,1.76 0.16,1.76 0.32,1.6 0.479999,1.76 0.800002,1.44 L -23.68,8 l 1.120001,1.28 1.439998,1.28 1.280001,0.96 1.6,0.64 1.600001,0.64 1.759999,0.32 1.76,0.16 1.76,-0.16 1.6,-0.32 1.6,-0.64 1.6,-0.64 1.44,-0.96 L -3.84,9.28 -2.72,8 -1.76,6.56 -0.96,5.12 -0.32,3.36 0,1.76 V 0"
       style="fill:none;stroke:#000000;stroke-width:0.64;stroke-linecap:round;stroke-linejoin:round;stroke-miterlimit:10;stroke-dasharray:none;stroke-opacity:1"
       transform="translate(371.67999,460.13328)"
       clip-path="url(#clipPath14)" />
  </g>
</svg>
