<?xml version="1.0" encoding="UTF-8" standalone="no"?>
<!-- Created with Inkscape (http://www.inkscape.org/) -->

<svg
   version="1.1"
   id="svg1"
   width="494.93332"
   height="265.62668"
   viewBox="0 0 494.93332 265.62668"
   sodipodi:docname="Wound.pdf"
   xmlns:inkscape="http://www.inkscape.org/namespaces/inkscape"
   xmlns:sodipodi="http://sodipodi.sourceforge.net/DTD/sodipodi-0.dtd"
   xmlns="http://www.w3.org/2000/svg"
   xmlns:svg="http://www.w3.org/2000/svg">
  <defs
     id="defs1">
    <clipPath
       clipPathUnits="userSpaceOnUse"
       id="clipPath2">
      <path
         d="M 0,0.16 V 1122.5601 H 793.59998 V 0.16 Z"
         transform="translate(3.3333333e-6)"
         clip-rule="evenodd"
         id="path2" />
    </clipPath>
    <clipPath
       clipPathUnits="userSpaceOnUse"
       id="clipPath4">
      <path
         d="M 0,0.16 V 1122.5601 H 793.59998 V 0.16 Z"
         transform="translate(3.3333333e-6)"
         clip-rule="evenodd"
         id="path4" />
    </clipPath>
    <clipPath
       clipPathUnits="userSpaceOnUse"
       id="clipPath6">
      <path
         d="M 0,0.16 V 1122.5601 H 793.59998 V 0.16 Z"
         transform="translate(3.3333333e-6)"
         clip-rule="evenodd"
         id="path6" />
    </clipPath>
    <clipPath
       clipPathUnits="userSpaceOnUse"
       id="clipPath8">
      <path
         d="M 0,0.16 V 1122.5601 H 793.59998 V 0.16 Z"
         transform="translate(3.3333333e-6)"
         clip-rule="evenodd"
         id="path8" />
    </clipPath>
    <clipPath
       clipPathUnits="userSpaceOnUse"
       id="clipPath10">
      <path
         d="M 0,0.16 V 1122.5601 H 793.59998 V 0.16 Z"
         transform="translate(-540.32001,-488)"
         clip-rule="evenodd"
         id="path10" />
    </clipPath>
    <clipPath
       clipPathUnits="userSpaceOnUse"
       id="clipPath12">
      <path
         d="M 0,0.16 V 1122.5601 H 793.59998 V 0.16 Z"
         transform="translate(3.3333333e-6)"
         clip-rule="evenodd"
         id="path12" />
    </clipPath>
    <clipPath
       clipPathUnits="userSpaceOnUse"
       id="clipPath14">
      <path
         d="M 0,0.16 V 1122.5601 H 793.59998 V 0.16 Z"
         transform="translate(-531.20002,-465.60001)"
         clip-rule="evenodd"
         id="path14" />
    </clipPath>
  </defs>
  <sodipodi:namedview
     id="namedview1"
     pagecolor="#505050"
     bordercolor="#eeeeee"
     borderopacity="1"
     inkscape:showpageshadow="0"
     inkscape:pageopacity="0"
     inkscape:pagecheckerboard="0"
     inkscape:deskcolor="#505050">
    <inkscape:page
       x="0"
       y="0"
       inkscape:label="1"
       id="page1"
       width="494.93332"
       height="265.62668"
       margin="0"
       bleed="0" />
  </sodipodi:namedview>
  <g
     id="g1"
     inkscape:groupmode="layer"
     inkscape:label="1">
    <path
       id="path1"
       d="m 134.24,488 121.6,181.28003"
       style="fill:none;stroke:#000000;stroke-width:26.4;stroke-linecap:round;stroke-linejoin:round;stroke-miterlimit:10;stroke-dasharray:none;stroke-opacity:1"
       transform="translate(-116.06667,-432.46673)"
       clip-path="url(#clipPath2)" />
    <path
       id="path3"
       d="M 255.84,669.28003 378.07999,487.35999"
       style="fill:none;stroke:#000000;stroke-width:26.4;stroke-linecap:round;stroke-linejoin:round;stroke-miterlimit:10;stroke-dasharray:none;stroke-opacity:1"
       transform="translate(-116.06667,-432.46673)"
       clip-path="url(#clipPath4)" />
    <path
       id="path5"
       d="m 316.16,488 59.68,183.52002"
       style="fill:none;stroke:#000000;stroke-width:26.4;stroke-linecap:round;stroke-linejoin:round;stroke-miterlimit:10;stroke-dasharray:none;stroke-opacity:1"
       transform="translate(-116.06667,-432.46673)"
       clip-path="url(#clipPath6)" />
    <path
       id="path7"
       d="M 375.84,671.52002 494.39999,490.39999"
       style="fill:none;stroke:#000000;stroke-width:26.4;stroke-linecap:round;stroke-linejoin:round;stroke-miterlimit:10;stroke-dasharray:none;stroke-opacity:1"
       transform="translate(-116.06667,-432.46673)"
       clip-path="url(#clipPath8)" />
    <path
       id="path9"
       d="M 0,0 2.56,0.64 5.44,0.96 8.32,1.28 11.2,1.6 h 3.04 L 17.120001,1.44 20,1.12 22.879999,0.8 25.6,0.32 l 2.72,-0.64 2.399999,-0.8 2.4,-0.96 2.080002,-0.96 1.919998,-1.12 1.760002,-1.28 L 40.32,-6.72 41.599998,-8 l 0.960003,-1.44 0.64,-1.44 0.319999,-1.44 0.16,-1.44 -0.16,-1.44 -0.479999,-1.439999 L 42.240002,-18.08 41.279999,-19.52 39.84,-20.799999 38.400002,-22.08 36.639999,-23.200001 34.560001,-24.32 32.32,-25.280001 30.08,-26.24 27.52,-26.879999 24.799999,-27.52 22.08,-28 19.200001,-28.32 16.32,-28.639999 H 13.28 10.4 L 7.52,-28.32 4.64,-28 1.76,-27.52 -0.8,-26.879999 -3.36,-26.08 -5.76,-25.280001 -7.84,-24.16"
       style="fill:none;stroke:#000000;stroke-width:26.4;stroke-linecap:round;stroke-linejoin:round;stroke-miterlimit:10;stroke-dasharray:none;stroke-opacity:1"
       transform="translate(424.25334,55.533275)"
       clip-path="url(#clipPath10)" />
    <path
       id="path11"
       d="m 494.39999,490.39999 9.12,0.32001 9.28,-0.16 9.11999,-0.48001 9.28003,-0.79999 9.12,-1.28"
       style="fill:none;stroke:#000000;stroke-width:26.4;stroke-linecap:round;stroke-linejoin:round;stroke-miterlimit:10;stroke-dasharray:none;stroke-opacity:1"
       transform="translate(-116.06667,-432.46673)"
       clip-path="url(#clipPath12)" />
    <path
       id="path13"
       d="m 0,0 -2.24,2.4 -2.08,2.56 -2.08,3.2 -1.92,3.36 -1.92,3.84 -1.92,4.16 -1.76,4.48 -1.6,4.639999 -1.600001,5.119999 -1.279999,5.280003 -1.44,5.599998 -1.119999,5.760003 L -22.08,56.32 l -0.799999,6.240001 -0.800001,6.240002 -0.64,6.399994 -0.479999,6.560005 -0.480002,6.559998 -0.16,6.720001 L -25.6,101.76 l 0.159999,6.56 0.16,6.72 0.480002,6.56 0.479999,6.56 0.64,6.4 0.800001,6.40001 0.799999,6.07998 1.120001,5.92002 1.119999,5.91999 1.280001,5.44001 1.439998,5.28 1.600001,5.11999 1.6,4.8 1.76,4.32 1.92,4.16 1.92,3.84 1.92,3.52 2.08,3.03999 2.08,2.72 2.24,2.24001 2.24,1.92 2.24,1.6 2.4,1.12 2.24,0.64 2.4,0.32001 2.24,-0.16001 2.4,-0.47999 2.24,-0.96001 2.239999,-1.44 2.400002,-1.76 2.08,-2.24 2.24,-2.56 2.08,-2.88 2.079999,-3.36001 1.919999,-3.67999 1.760002,-4 1.759998,-4.32001 1.760002,-4.63999 1.599999,-4.96 1.439998,-5.28 1.280003,-5.44 1.279999,-5.6"
       style="fill:none;stroke:#000000;stroke-width:26.4;stroke-linecap:round;stroke-linejoin:round;stroke-miterlimit:10;stroke-dasharray:none;stroke-opacity:1"
       transform="translate(415.13335,33.133281)"
       clip-path="url(#clipPath14)" />
  </g>
</svg>
