<?xml version="1.0" encoding="UTF-8" standalone="no"?>
<!-- Created with Inkscape (http://www.inkscape.org/) -->

<svg
   version="1.1"
   id="svg1"
   width="288.14667"
   height="317.67999"
   viewBox="0 0 288.14667 317.67999"
   sodipodi:docname="Amber2.pdf"
   xmlns:inkscape="http://www.inkscape.org/namespaces/inkscape"
   xmlns:sodipodi="http://sodipodi.sourceforge.net/DTD/sodipodi-0.dtd"
   xmlns="http://www.w3.org/2000/svg"
   xmlns:svg="http://www.w3.org/2000/svg">
  <defs
     id="defs1">
    <clipPath
       clipPathUnits="userSpaceOnUse"
       id="clipPath2">
      <path
         d="M 0,0.16 V 1122.5601 H 793.59998 V 0.16 Z"
         transform="translate(-468,-591.67999)"
         clip-rule="evenodd"
         id="path2" />
    </clipPath>
    <clipPath
       clipPathUnits="userSpaceOnUse"
       id="clipPath4">
      <path
         d="M 0,0.16 V 1122.5601 H 793.59998 V 0.16 Z"
         clip-rule="evenodd"
         id="path4" />
    </clipPath>
    <clipPath
       clipPathUnits="userSpaceOnUse"
       id="clipPath6">
      <path
         d="M 0,0.16 V 1122.5601 H 793.59998 V 0.16 Z"
         clip-rule="evenodd"
         id="path6" />
    </clipPath>
    <clipPath
       clipPathUnits="userSpaceOnUse"
       id="clipPath8">
      <path
         d="M 0,0.16 V 1122.5601 H 793.59998 V 0.16 Z"
         transform="translate(-532.79999,-518.88)"
         clip-rule="evenodd"
         id="path8" />
    </clipPath>
    <clipPath
       clipPathUnits="userSpaceOnUse"
       id="clipPath10">
      <path
         d="M 0,0.16 V 1122.5601 H 793.59998 V 0.16 Z"
         clip-rule="evenodd"
         id="path10" />
    </clipPath>
    <clipPath
       clipPathUnits="userSpaceOnUse"
       id="clipPath12">
      <path
         d="M 0,0.16 V 1122.5601 H 793.59998 V 0.16 Z"
         clip-rule="evenodd"
         id="path12" />
    </clipPath>
    <clipPath
       clipPathUnits="userSpaceOnUse"
       id="clipPath14">
      <path
         d="M 0,0.16 V 1122.5601 H 793.59998 V 0.16 Z"
         transform="translate(-530.88,-522.88)"
         clip-rule="evenodd"
         id="path14" />
    </clipPath>
  </defs>
  <sodipodi:namedview
     id="namedview1"
     pagecolor="#505050"
     bordercolor="#eeeeee"
     borderopacity="1"
     inkscape:showpageshadow="0"
     inkscape:pageopacity="0"
     inkscape:pagecheckerboard="0"
     inkscape:deskcolor="#505050">
    <inkscape:page
       x="0"
       y="0"
       inkscape:label="1"
       id="page1"
       width="288.14667"
       height="317.67999"
       margin="0"
       bleed="0" />
  </sodipodi:namedview>
  <g
     id="g1"
     inkscape:groupmode="layer"
     inkscape:label="1">
    <path
       id="path1"
       d="M 0,0 3.84,-3.84 7.2,-8 l 3.2,-4.16 2.88,-4.639999 2.56,-4.640002 L 18.08,-26.4 20,-31.360001 21.440001,-36.48 22.559999,-41.759998 23.360001,-47.040001 23.68,-52.32 v -5.439998 L 23.360001,-63.040001 22.559999,-68.32 21.440001,-73.599998 19.84,-78.720001 18.08,-83.68 l -2.24,-4.959999 -2.56,-4.64 -2.88,-4.480003 -3.2,-4.319998 -3.52,-4 -3.68,-3.84 -4,-3.52 -4.32,-3.36 -4.48,-2.88 -4.640001,-2.56 -4.799999,-2.24 -5.120001,-1.92 -5.119999,-1.6 -5.119998,-1.11999 -5.280003,-0.80001 -5.439999,-0.47999 h -5.279998 l -5.280003,0.15999 -5.439999,0.8 -5.120002,1.11999 -5.279999,1.44001 -4.959999,1.76 -4.959999,2.08 -4.64,2.56 -4.639999,2.72 -4.32,3.2 -4.000002,3.52 -3.84,3.68 -3.68,4 -3.2,4.160003 -3.04,4.479996 -2.56,4.639999 -2.4,4.800003 -1.92,4.959999 -1.6,5.120003 -1.28,5.119995"
       style="fill:none;stroke:#000000;stroke-width:26.4;stroke-linecap:round;stroke-linejoin:round;stroke-miterlimit:10;stroke-dasharray:none;stroke-opacity:1"
       transform="translate(468,547.6266)"
       clip-path="url(#clipPath2)" />
    <path
       id="path3"
       d="M 464.95999,593.28003 340.16,712.32001"
       style="fill:none;stroke:#000000;stroke-width:26.4;stroke-linecap:round;stroke-linejoin:round;stroke-miterlimit:10;stroke-dasharray:none;stroke-opacity:1"
       transform="translate(0,-44.053392)"
       clip-path="url(#clipPath4)" />
    <path
       id="path5"
       d="M 340.16,712.32001 H 472.32001"
       style="fill:none;stroke:#000000;stroke-width:26.4;stroke-linecap:round;stroke-linejoin:round;stroke-miterlimit:10;stroke-dasharray:none;stroke-opacity:1"
       transform="translate(0,-44.053392)"
       clip-path="url(#clipPath6)" />
    <path
       id="path7"
       d="M 0,0 3.2,-1.6 6.08,-3.52 8.8,-5.6 11.36,-8 l 2.24,-2.56 2.08,-2.88 1.760001,-3.04 1.6,-3.04 L 20.16,-22.879999 21.120001,-26.24 21.76,-29.6 l 0.16,-3.519999 v -3.52 L 21.6,-40.16 20.799999,-43.52 19.84,-46.880001 l -1.280001,-3.200001 -1.6,-3.039997 L 15.04,-56.16 12.8,-58.880001 10.4,-61.439999 7.84,-63.68 l -2.88,-2.080002 -2.88,-1.759995 -3.2,-1.600006 -3.2,-1.119995 -3.52,-0.959999 L -11.2,-71.68 -14.72,-72 h -3.52 l -3.36,0.480003 -3.520001,0.64 -3.199999,0.959999 -3.36,1.439995"
       style="fill:none;stroke:#000000;stroke-width:26.4;stroke-linecap:round;stroke-linejoin:round;stroke-miterlimit:10;stroke-dasharray:none;stroke-opacity:1"
       transform="translate(532.79999,474.82661)"
       clip-path="url(#clipPath8)" />
    <path
       id="path9"
       d="M 562.40002,588 458.56,684.96002"
       style="fill:none;stroke:#000000;stroke-width:26.4;stroke-linecap:round;stroke-linejoin:round;stroke-miterlimit:10;stroke-dasharray:none;stroke-opacity:1"
       transform="translate(0,-44.053392)"
       clip-path="url(#clipPath10)" />
    <path
       id="path11"
       d="M 458.56,684.96002 521.44,685.44"
       style="fill:none;stroke:#000000;stroke-width:26.4;stroke-linecap:round;stroke-linejoin:round;stroke-miterlimit:10;stroke-dasharray:none;stroke-opacity:1"
       transform="translate(0,-44.053392)"
       clip-path="url(#clipPath12)" />
    <path
       id="path13"
       d="m 0,0 6.4,1.28 5.44,1.28 4.959999,1.28 4.800001,1.44 4.32,1.6 4,1.6 3.519999,1.92 3.36,1.76 2.880001,2.08 2.560002,2.08 2.239998,2.239999 1.760002,2.4 1.439998,2.400002 1.119999,2.559999 0.64,2.719999 0.319999,2.880001 -0.16,2.880002 -0.479999,3.199996 L 48.16,40.799999 46.720001,44.16 l -2.080002,3.68 -2.399997,3.84 -3.200001,4.16 -3.68,4.32 -4.480002,4.640003 L 26.4,68.959999 22.879999,72 20.16,74.400002 18.879999,75.519997"
       style="fill:none;stroke:#000000;stroke-width:26.4;stroke-linecap:round;stroke-linejoin:round;stroke-miterlimit:10;stroke-dasharray:none;stroke-opacity:1"
       transform="translate(530.88,478.82661)"
       clip-path="url(#clipPath14)" />
  </g>
</svg>
