<?xml version="1.0" encoding="UTF-8" standalone="no"?>
<!-- Created with Inkscape (http://www.inkscape.org/) -->

<svg
   version="1.1"
   id="svg1"
   width="342.85333"
   height="348.38666"
   viewBox="0 0 342.85333 348.38666"
   sodipodi:docname="Asbestos.pdf"
   xmlns:inkscape="http://www.inkscape.org/namespaces/inkscape"
   xmlns:sodipodi="http://sodipodi.sourceforge.net/DTD/sodipodi-0.dtd"
   xmlns="http://www.w3.org/2000/svg"
   xmlns:svg="http://www.w3.org/2000/svg">
  <defs
     id="defs1">
    <clipPath
       clipPathUnits="userSpaceOnUse"
       id="clipPath2">
      <path
         d="M 0,0.16 V 1122.5601 H 793.59998 V 0.16 Z"
         transform="translate(-396.79999,-485.76001)"
         clip-rule="evenodd"
         id="path2" />
    </clipPath>
    <clipPath
       clipPathUnits="userSpaceOnUse"
       id="clipPath4">
      <path
         d="M 0,0.16 V 1122.5601 H 793.59998 V 0.16 Z"
         transform="translate(-547.84003,-485.76001)"
         clip-rule="evenodd"
         id="path4" />
    </clipPath>
    <clipPath
       clipPathUnits="userSpaceOnUse"
       id="clipPath6">
      <path
         d="M 0,0.16 V 1122.5601 H 793.59998 V 0.16 Z"
         transform="translate(3.3333333e-6)"
         clip-rule="evenodd"
         id="path6" />
    </clipPath>
    <clipPath
       clipPathUnits="userSpaceOnUse"
       id="clipPath8">
      <path
         d="M 0,0.16 V 1122.5601 H 793.59998 V 0.16 Z"
         transform="translate(3.3333333e-6)"
         clip-rule="evenodd"
         id="path8" />
    </clipPath>
    <clipPath
       clipPathUnits="userSpaceOnUse"
       id="clipPath10">
      <path
         d="M 0,0.16 V 1122.5601 H 793.59998 V 0.16 Z"
         transform="translate(3.3333333e-6)"
         clip-rule="evenodd"
         id="path10" />
    </clipPath>
    <clipPath
       clipPathUnits="userSpaceOnUse"
       id="clipPath12">
      <path
         d="M 0,0.16 V 1122.5601 H 793.59998 V 0.16 Z"
         transform="translate(-434.56,-561.28003)"
         clip-rule="evenodd"
         id="path12" />
    </clipPath>
    <clipPath
       clipPathUnits="userSpaceOnUse"
       id="clipPath14">
      <path
         d="M 0,0.16 V 1122.5601 H 793.59998 V 0.16 Z"
         transform="translate(-434.56,-636.79999)"
         clip-rule="evenodd"
         id="path14" />
    </clipPath>
    <clipPath
       clipPathUnits="userSpaceOnUse"
       id="clipPath16">
      <path
         d="M 0,0.16 V 1122.5601 H 793.59998 V 0.16 Z"
         transform="translate(3.3333333e-6)"
         clip-rule="evenodd"
         id="path16" />
    </clipPath>
    <clipPath
       clipPathUnits="userSpaceOnUse"
       id="clipPath18">
      <path
         d="M 0,0.16 V 1122.5601 H 793.59998 V 0.16 Z"
         transform="translate(3.3333333e-6)"
         clip-rule="evenodd"
         id="path18" />
    </clipPath>
  </defs>
  <sodipodi:namedview
     id="namedview1"
     pagecolor="#505050"
     bordercolor="#eeeeee"
     borderopacity="1"
     inkscape:showpageshadow="0"
     inkscape:pageopacity="0"
     inkscape:pagecheckerboard="0"
     inkscape:deskcolor="#505050">
    <inkscape:page
       x="0"
       y="0"
       inkscape:label="1"
       id="page1"
       width="342.85333"
       height="348.38666"
       margin="0"
       bleed="0" />
  </sodipodi:namedview>
  <g
     id="g1"
     inkscape:groupmode="layer"
     inkscape:label="1">
    <path
       id="path1"
       d="M 0,0 -0.16,-5.44 -0.64,-10.72 -1.6,-16 -3.04,-21.280001 -4.64,-26.4 -6.72,-31.360001 -9.12,-36.16 -12,-40.799999 l -3.04,-4.48 -3.36,-4.16 -3.68,-4 -4,-3.68 -4.16,-3.360001 -4.320001,-3.04 -4.64,-2.719998 -4.959999,-2.400001 -4.959999,-2.080002 -5.120003,-1.760002 -5.119999,-1.279999 -5.279998,-0.959999 -5.440003,-0.64 -5.439995,-0.159996 -5.280006,0.159996 -5.439995,0.64 -5.279999,0.959999 -5.280006,1.279999 -5.119997,1.760002 -4.96,2.080002 -4.8,2.400001 -4.64,2.719998 -4.32,3.04 -4.32,3.360001 -3.84,3.68 -3.68,4 -3.36,4.16 -3.19999,4.48 -2.72,4.639999 -2.40001,4.799999 -2.08,4.960001 -1.76,5.119999 -1.28,5.280001 -0.96,5.28 -0.48,5.28 -0.31999,5.44"
       style="fill:none;stroke:#000000;stroke-width:26.4;stroke-linecap:round;stroke-linejoin:round;stroke-miterlimit:10;stroke-dasharray:none;stroke-opacity:1"
       transform="translate(170.01332,174.75995)"
       clip-path="url(#clipPath2)" />
    <path
       id="path3"
       d="M 0,0 -0.16,-5.44 -0.8,-10.72 -1.76,-16 -3.04,-21.280001 -4.8,-26.4 -6.72,-31.360001 -9.12,-36.16 -12,-40.799999 l -3.04,-4.48 -3.36,-4.16 -3.68,-4 -4,-3.68 -4.16,-3.360001 -4.480001,-3.04 -4.64,-2.719998 -4.799999,-2.400001 -4.959999,-2.080002 -5.120003,-1.760002 -5.119999,-1.279999 -5.440002,-0.959999 -5.279999,-0.64 -5.439995,-0.159996 -5.280006,0.159996 -5.439995,0.64 -5.279999,0.959999 -5.280006,1.279999 -5.119997,1.760002 -4.96,2.080002 -4.8,2.400001 -4.64,2.719998 -4.48,3.04 -4.16,3.360001 -3.84,3.68 -3.68,4 -3.52,4.16 -3.03999,4.48 -2.72,4.639999 -2.40001,4.799999 -2.08,4.960001 -1.76,5.119999 -1.28,5.280001 -0.96,5.28 -0.48,5.28 -0.31999,5.44"
       style="fill:none;stroke:#000000;stroke-width:26.4;stroke-linecap:round;stroke-linejoin:round;stroke-miterlimit:10;stroke-dasharray:none;stroke-opacity:1"
       transform="translate(321.05336,174.75995)"
       clip-path="url(#clipPath4)" />
    <path
       id="path5"
       d="M 396.79999,485.76001 V 636.79999"
       style="fill:none;stroke:#000000;stroke-width:26.4;stroke-linecap:round;stroke-linejoin:round;stroke-miterlimit:10;stroke-dasharray:none;stroke-opacity:1"
       transform="translate(-226.78667,-311.00006)"
       clip-path="url(#clipPath6)" />
    <path
       id="path7"
       d="M 321.28,410.23999 396.79999,334.72"
       style="fill:none;stroke:#000000;stroke-width:26.4;stroke-linecap:round;stroke-linejoin:round;stroke-miterlimit:10;stroke-dasharray:none;stroke-opacity:1"
       transform="translate(-226.78667,-311.00006)"
       clip-path="url(#clipPath8)" />
    <path
       id="path9"
       d="m 396.79999,334.72 75.52002,75.51999"
       style="fill:none;stroke:#000000;stroke-width:26.4;stroke-linecap:round;stroke-linejoin:round;stroke-miterlimit:10;stroke-dasharray:none;stroke-opacity:1"
       transform="translate(-226.78667,-311.00006)"
       clip-path="url(#clipPath10)" />
    <path
       id="path11"
       d="M 0,0 3.52,-0.16 7.04,-0.64 10.4,-1.44 13.76,-2.56 16.799999,-4 20,-5.6 22.879999,-7.68 25.440001,-9.76 28,-12.32 l 2.24,-2.72 1.92,-2.88 1.759998,-3.039999 1.280003,-3.200001 1.119999,-3.200001 0.799999,-3.359998 0.479999,-3.520003 0.16,-3.519996 -0.16,-3.520001 -0.479999,-3.36 L 36.32,-48 l -1.119999,-3.360001 -1.280003,-3.2 L 32.16,-57.599998 30.24,-60.48 28,-63.200001 25.440001,-65.599998 22.879999,-67.839996 20,-69.760002 16.799999,-71.519997 13.76,-72.959999 10.4,-74.080002 7.04,-74.879997 3.52,-75.360001 0,-75.519997"
       style="fill:none;stroke:#000000;stroke-width:26.4;stroke-linecap:round;stroke-linejoin:round;stroke-miterlimit:10;stroke-dasharray:none;stroke-opacity:1"
       transform="translate(207.77333,250.27997)"
       clip-path="url(#clipPath12)" />
    <path
       id="path13"
       d="M 0,0 3.52,-0.16 7.04,-0.64 10.4,-1.44 13.76,-2.56 16.799999,-4 20,-5.6 22.879999,-7.68 25.440001,-9.76 28,-12.32 l 2.24,-2.72 1.92,-2.88 1.759998,-3.039999 1.280003,-3.200001 1.119999,-3.200001 0.799999,-3.519998 0.479999,-3.360003 0.16,-3.519996 -0.16,-3.520001 -0.479999,-3.36 L 36.32,-48 l -1.119999,-3.360001 -1.280003,-3.2 L 32.16,-57.599998 30.24,-60.48 28,-63.200001 25.440001,-65.599998 22.879999,-67.839996 20,-69.919998 16.799999,-71.519997 13.76,-72.959999 10.4,-74.080002 7.04,-74.879997 3.52,-75.360001 0,-75.519997"
       style="fill:none;stroke:#000000;stroke-width:26.4;stroke-linecap:round;stroke-linejoin:round;stroke-miterlimit:10;stroke-dasharray:none;stroke-opacity:1"
       transform="translate(207.77333,325.79993)"
       clip-path="url(#clipPath14)" />
    <path
       id="path15"
       d="M 396.79999,485.76001 H 434.56"
       style="fill:none;stroke:#000000;stroke-width:26.4;stroke-linecap:round;stroke-linejoin:round;stroke-miterlimit:10;stroke-dasharray:none;stroke-opacity:1"
       transform="translate(-226.78667,-311.00006)"
       clip-path="url(#clipPath16)" />
    <path
       id="path17"
       d="M 396.79999,636.79999 H 434.56"
       style="fill:none;stroke:#000000;stroke-width:26.4;stroke-linecap:round;stroke-linejoin:round;stroke-miterlimit:10;stroke-dasharray:none;stroke-opacity:1"
       transform="translate(-226.78667,-311.00006)"
       clip-path="url(#clipPath18)" />
  </g>
</svg>
