<?xml version="1.0" encoding="UTF-8" standalone="no"?>
<!-- Created with Inkscape (http://www.inkscape.org/) -->

<svg
   version="1.1"
   id="svg1"
   width="192.09332"
   height="241.58667"
   viewBox="0 0 192.09332 241.58667"
   sodipodi:docname="Asbestos2.pdf"
   xmlns:inkscape="http://www.inkscape.org/namespaces/inkscape"
   xmlns:sodipodi="http://sodipodi.sourceforge.net/DTD/sodipodi-0.dtd"
   xmlns="http://www.w3.org/2000/svg"
   xmlns:svg="http://www.w3.org/2000/svg">
  <defs
     id="defs1">
    <clipPath
       clipPathUnits="userSpaceOnUse"
       id="clipPath2">
      <path
         d="M 0,0.16 V 1122.5601 H 793.59998 V 0.16 Z"
         transform="translate(-312.79999,-705.28003)"
         clip-rule="evenodd"
         id="path2" />
    </clipPath>
    <clipPath
       clipPathUnits="userSpaceOnUse"
       id="clipPath4">
      <path
         d="M 0,0.16 V 1122.5601 H 793.59998 V 0.16 Z"
         transform="translate(-3.3333333e-6)"
         clip-rule="evenodd"
         id="path4" />
    </clipPath>
  </defs>
  <sodipodi:namedview
     id="namedview1"
     pagecolor="#505050"
     bordercolor="#eeeeee"
     borderopacity="1"
     inkscape:showpageshadow="0"
     inkscape:pageopacity="0"
     inkscape:pagecheckerboard="0"
     inkscape:deskcolor="#505050">
    <inkscape:page
       x="0"
       y="0"
       inkscape:label="1"
       id="page1"
       width="192.09332"
       height="241.58667"
       margin="0"
       bleed="0" />
  </sodipodi:namedview>
  <g
     id="g1"
     inkscape:groupmode="layer"
     inkscape:label="1">
    <path
       id="path1"
       d="m 0,0 -0.16,4 v 3.52 l 0.48,3.2 0.64,3.04 0.8,2.56 1.28,2.399999 1.44,1.92 1.6,1.600001 2.08,1.28 2.24,0.96 2.4,0.640001 2.72,0.16 2.88,-0.16 3.040001,-0.480002 L 24.799999,23.68 28.32,22.4 l 3.52,-1.600001 3.84,-1.92 4,-2.24 L 43.84,14.08 48,11.2 l 4.32,-3.36 4.479999,-3.52 4.48,-3.84 4.480003,-4 4.479996,-4.48 4.639999,-4.48 4.64,-4.800001 L 84,-22.4 l 4.639999,-5.28 4.480004,-5.279999 4.319999,-5.600002 L 101.92,-44.16 l 4.16,-5.759998 4.16,-5.920002 4,-5.919998 4,-6.079998 3.68,-5.920006 3.52,-6.079994 3.36,-5.920006 3.2,-5.919998 3.03999,-5.919998 2.72,-5.760002 2.56002,-5.76 2.23999,-5.44 2.08,-5.44 1.92,-5.28 1.44,-5.11999 1.28,-4.80001 1.11999,-4.64 0.80001,-4.48001 0.47999,-4.15999 0.16001,-3.84001 -0.16001,-3.51999 -0.31999,-3.36 -0.64,-3.04 -0.8,-2.56 -1.12,-2.4 -1.44,-2.08 -1.75999,-1.6 -1.92002,-1.28 -2.23999,-0.95999 -2.40001,-0.64 -2.71998,-0.16001 -2.88001,0.16001"
       style="fill:none;stroke:#000000;stroke-width:26.4;stroke-linecap:round;stroke-linejoin:round;stroke-miterlimit:10;stroke-dasharray:none;stroke-opacity:1"
       transform="translate(23.306655,198.0533)"
       clip-path="url(#clipPath2)" />
    <path
       id="path3"
       d="m 321.28,580.15997 h 37.76001 v 37.76001 H 321.28 v -37.76001"
       style="fill:none;stroke:#000000;stroke-width:26.4;stroke-linecap:round;stroke-linejoin:round;stroke-miterlimit:10;stroke-dasharray:none;stroke-opacity:1"
       transform="translate(-289.49333,-507.22673)"
       clip-path="url(#clipPath4)" />
  </g>
</svg>
