<?xml version="1.0" encoding="UTF-8" standalone="no"?>
<!-- Created with Inkscape (http://www.inkscape.org/) -->

<svg
   version="1.1"
   id="svg1"
   width="532.28003"
   height="683.41333"
   viewBox="0 0 532.28003 683.41333"
   sodipodi:docname="BismuthOre.pdf"
   xmlns:inkscape="http://www.inkscape.org/namespaces/inkscape"
   xmlns:sodipodi="http://sodipodi.sourceforge.net/DTD/sodipodi-0.dtd"
   xmlns="http://www.w3.org/2000/svg"
   xmlns:svg="http://www.w3.org/2000/svg">
  <defs
     id="defs1">
    <clipPath
       clipPathUnits="userSpaceOnUse"
       id="clipPath2">
      <path
         d="M 0,0.16 V 1122.5601 H 793.59998 V 0.16 Z"
         transform="translate(-448.64002,-334.79999)"
         clip-rule="evenodd"
         id="path2" />
    </clipPath>
    <clipPath
       clipPathUnits="userSpaceOnUse"
       id="clipPath4">
      <path
         d="M 0,0.16 V 1122.5601 H 793.59998 V 0.16 Z"
         clip-rule="evenodd"
         id="path4" />
    </clipPath>
    <clipPath
       clipPathUnits="userSpaceOnUse"
       id="clipPath6">
      <path
         d="M 0,0.16 V 1122.5601 H 793.59998 V 0.16 Z"
         clip-rule="evenodd"
         id="path6" />
    </clipPath>
    <clipPath
       clipPathUnits="userSpaceOnUse"
       id="clipPath8">
      <path
         d="M 0,0.16 V 1122.5601 H 793.59998 V 0.16 Z"
         transform="translate(-115.68,-651.84003)"
         clip-rule="evenodd"
         id="path8" />
    </clipPath>
    <clipPath
       clipPathUnits="userSpaceOnUse"
       id="clipPath10">
      <path
         d="M 0,0.16 V 1122.5601 H 793.59998 V 0.16 Z"
         transform="translate(-600.32001,-651.84003)"
         clip-rule="evenodd"
         id="path10" />
    </clipPath>
  </defs>
  <sodipodi:namedview
     id="namedview1"
     pagecolor="#505050"
     bordercolor="#eeeeee"
     borderopacity="1"
     inkscape:showpageshadow="0"
     inkscape:pageopacity="0"
     inkscape:pagecheckerboard="0"
     inkscape:deskcolor="#505050">
    <inkscape:page
       x="0"
       y="0"
       inkscape:label="1"
       id="page1"
       width="532.28003"
       height="683.41333"
       margin="0"
       bleed="0" />
  </sodipodi:namedview>
  <g
     id="g1"
     inkscape:groupmode="layer"
     inkscape:label="1">
    <path
       id="path1"
       d="M 0,0 C 0,-50.049999 -40.580002,-90.639999 -90.639999,-90.639999 -140.7,-90.639999 -181.28,-50.049999 -181.28,0 c 0,50.049999 40.58,90.639999 90.640001,90.639999 C -40.580002,90.639999 0,50.049999 0,0 Z"
       style="fill:none;stroke:#000000;stroke-width:26.4;stroke-linecap:round;stroke-linejoin:round;stroke-miterlimit:10;stroke-dasharray:none;stroke-opacity:1"
       transform="translate(355.25335,113.2266)"
       clip-path="url(#clipPath2)" />
    <path
       id="path3"
       d="M 357.92001,429.12 V 882.23999"
       style="fill:none;stroke:#000000;stroke-width:26.4;stroke-linecap:round;stroke-linejoin:round;stroke-miterlimit:10;stroke-dasharray:none;stroke-opacity:1"
       transform="translate(-93.386667,-221.57339)"
       clip-path="url(#clipPath4)" />
    <path
       id="path5"
       d="M 594.71997,651.84003 H 124.64"
       style="fill:none;stroke:#000000;stroke-width:26.4;stroke-linecap:round;stroke-linejoin:round;stroke-miterlimit:10;stroke-dasharray:none;stroke-opacity:1"
       transform="translate(-93.386667,-221.57339)"
       clip-path="url(#clipPath6)" />
    <path
       id="path7"
       d="m 0,0 5.6,-3.36 16.8,-10.24 9.12,-5.760001 12.64,-8.479999 10.080002,-7.520001 8.319999,-6.720001 7.200001,-6.399998 6.400002,-6.240001 5.439994,-6.239998 4.800004,-6.080002 4.319999,-6.080002 3.519997,-6.079994 2.720001,-5.120003 2.879997,-6.400001 2.400004,-6.400002 2.08,-6.879997 1.6,-7.04 1.28,-7.2 0.8,-7.36 0.48,-7.36001 -0.16,-7.51999 -0.48,-7.36 -0.96,-7.36 -1.28,-7.36 -1.92,-7.04001 -2.08,-6.87999 -2.720003,-6.72 -3.040001,-6.24 -1.599998,-3.04 -2.879997,-4.96 -3.840004,-5.76 -4.32,-5.6 -4.799995,-5.76 -5.440003,-5.6 -5.919998,-5.59999 L 60.32,-231.52 l -7.360001,-5.76 -8.16,-6.08 -9.119999,-6.24001 -10.559999,-6.88 L 12.64,-264.16 0,-271.84"
       style="fill:none;stroke:#000000;stroke-width:26.4;stroke-linecap:round;stroke-linejoin:round;stroke-miterlimit:10;stroke-dasharray:none;stroke-opacity:1"
       transform="translate(22.293333,430.26664)"
       clip-path="url(#clipPath8)" />
    <path
       id="path9"
       d="M 0,0 -5.6,-3.36 -22.559999,-13.6 -31.52,-19.360001 -44.16,-27.84 l -10.240002,-7.520001 -8.319999,-6.720001 -7.199997,-6.399998 -6.240006,-6.240001 -5.439994,-6.239998 -4.96,-6.080002 -4.160003,-6.080002 -3.680001,-6.079994 -2.720001,-5.120003 -2.719993,-6.400001 -2.400004,-6.400002 -2.08,-6.879997 -1.76,-7.04 -1.28,-7.2 -0.8,-7.36 -0.32,-7.36001 V -140.48 l 0.48,-7.36 0.96,-7.36 1.44,-7.36 1.76,-7.04001 2.24,-6.87999 2.559999,-6.72 3.040001,-6.24 1.599998,-3.04 3.040001,-4.96 3.840004,-5.76 4.32,-5.6 4.799995,-5.76 5.440003,-5.6 5.919998,-5.59999 6.560001,-5.76001 7.360001,-5.76 8.16,-6.08 9.279999,-6.24001 10.559999,-6.88 L -12.8,-264.16 0,-271.84"
       style="fill:none;stroke:#000000;stroke-width:26.4;stroke-linecap:round;stroke-linejoin:round;stroke-miterlimit:10;stroke-dasharray:none;stroke-opacity:1"
       transform="translate(506.93334,430.26664)"
       clip-path="url(#clipPath10)" />
  </g>
</svg>
