<?xml version="1.0" encoding="UTF-8" standalone="no"?>
<!-- Created with Inkscape (http://www.inkscape.org/) -->

<svg
   version="1.1"
   id="svg1"
   width="409.56"
   height="614.01331"
   viewBox="0 0 409.56 614.01331"
   sodipodi:docname="BlackSulphur4.pdf"
   xmlns:inkscape="http://www.inkscape.org/namespaces/inkscape"
   xmlns:sodipodi="http://sodipodi.sourceforge.net/DTD/sodipodi-0.dtd"
   xmlns="http://www.w3.org/2000/svg"
   xmlns:svg="http://www.w3.org/2000/svg">
  <defs
     id="defs1">
    <clipPath
       clipPathUnits="userSpaceOnUse"
       id="clipPath2">
      <path
         d="M 0,0.16 V 1122.5601 H 793.59998 V 0.16 Z"
         transform="translate(-3.3333333e-6)"
         clip-rule="evenodd"
         id="path2" />
    </clipPath>
    <clipPath
       clipPathUnits="userSpaceOnUse"
       id="clipPath4">
      <path
         d="M 0,0.16 V 1122.5601 H 793.59998 V 0.16 Z"
         transform="translate(-263.20001,-694.71997)"
         clip-rule="evenodd"
         id="path4" />
    </clipPath>
    <clipPath
       clipPathUnits="userSpaceOnUse"
       id="clipPath6">
      <path
         d="M 0,0.16 V 1122.5601 H 793.59998 V 0.16 Z"
         transform="translate(-3.3333333e-6)"
         clip-rule="evenodd"
         id="path6" />
    </clipPath>
    <clipPath
       clipPathUnits="userSpaceOnUse"
       id="clipPath8">
      <path
         d="M 0,0.16 V 1122.5601 H 793.59998 V 0.16 Z"
         transform="translate(-3.3333333e-6)"
         clip-rule="evenodd"
         id="path8" />
    </clipPath>
  </defs>
  <sodipodi:namedview
     id="namedview1"
     pagecolor="#505050"
     bordercolor="#eeeeee"
     borderopacity="1"
     inkscape:showpageshadow="0"
     inkscape:pageopacity="0"
     inkscape:pagecheckerboard="0"
     inkscape:deskcolor="#505050">
    <inkscape:page
       x="0"
       y="0"
       inkscape:label="1"
       id="page1"
       width="409.56"
       height="614.01331"
       margin="0"
       bleed="0" />
  </sodipodi:namedview>
  <g
     id="g1"
     inkscape:groupmode="layer"
     inkscape:label="1">
    <path
       id="path1"
       d="M 396.79999,278.07999 V 844.47998"
       style="fill:none;stroke:#000000;stroke-width:26.4;stroke-linecap:round;stroke-linejoin:round;stroke-miterlimit:10;stroke-dasharray:none;stroke-opacity:1"
       transform="translate(-233.45333,-249.60006)"
       clip-path="url(#clipPath2)" />
    <path
       id="path3"
       d="m 0,0 6.88,6.4 7.04,6.08 7.200001,5.76 7.679998,5.28 7.84,4.96 8,4.639999 8.32,4.16 8.48,3.68 8.640003,3.360001 8.799995,2.880001 8.959999,2.559997 8.960007,1.920002 9.119997,1.599999 9.28,1.120003 9.12,0.799999 9.28001,0.16 9.27999,-0.16 9.28,-0.799999 9.12,-1.120003 9.28,-1.599999 8.96,-1.920002 8.96,-2.559997 8.8,-2.880001 8.64,-3.360001 8.47999,-3.68 8.32001,-4.16 8,-4.639999 7.84,-4.96 7.52,-5.28 7.36,-5.76 7.04001,-6.08 6.72,-6.4 6.4,-6.56 5.91998,-7.04 5.76001,-7.359999 5.28,-7.520001 4.95999,-7.84 4.64001,-8.16 4.16001,-8.159999 3.67999,-8.48 3.35999,-8.640003 2.88,-8.799996 2.56,-8.959999 2.08001,-9.120002 1.44001,-9.120001 1.28,-9.12 0.63998,-9.28 0.16,-9.28"
       style="fill:none;stroke:#000000;stroke-width:26.4;stroke-linecap:round;stroke-linejoin:round;stroke-miterlimit:10;stroke-dasharray:none;stroke-opacity:1"
       transform="translate(29.746679,445.11991)"
       clip-path="url(#clipPath4)" />
    <path
       id="path5"
       d="m 585.59998,561.28003 -37.75995,56.63995"
       style="fill:none;stroke:#000000;stroke-width:26.4;stroke-linecap:round;stroke-linejoin:round;stroke-miterlimit:10;stroke-dasharray:none;stroke-opacity:1"
       transform="translate(-233.45333,-249.60006)"
       clip-path="url(#clipPath6)" />
    <path
       id="path7"
       d="m 585.59998,561.28003 37.76,56.63995"
       style="fill:none;stroke:#000000;stroke-width:26.4;stroke-linecap:round;stroke-linejoin:round;stroke-miterlimit:10;stroke-dasharray:none;stroke-opacity:1"
       transform="translate(-233.45333,-249.60006)"
       clip-path="url(#clipPath8)" />
  </g>
</svg>
