<?xml version="1.0" encoding="UTF-8" standalone="no"?>
<!-- Created with Inkscape (http://www.inkscape.org/) -->

<svg
   version="1.1"
   id="svg1"
   width="385.54666"
   height="618"
   viewBox="0 0 385.54666 618"
   sodipodi:docname="BlackSulphur3.pdf"
   xmlns:inkscape="http://www.inkscape.org/namespaces/inkscape"
   xmlns:sodipodi="http://sodipodi.sourceforge.net/DTD/sodipodi-0.dtd"
   xmlns="http://www.w3.org/2000/svg"
   xmlns:svg="http://www.w3.org/2000/svg">
  <defs
     id="defs1">
    <clipPath
       clipPathUnits="userSpaceOnUse"
       id="clipPath2">
      <path
         d="M 0,0.16 V 1122.5601 H 793.59998 V 0.16 Z"
         clip-rule="evenodd"
         id="path2" />
    </clipPath>
    <clipPath
       clipPathUnits="userSpaceOnUse"
       id="clipPath4">
      <path
         d="M 0,0.16 V 1122.5601 H 793.59998 V 0.16 Z"
         clip-rule="evenodd"
         id="path4" />
    </clipPath>
    <clipPath
       clipPathUnits="userSpaceOnUse"
       id="clipPath6">
      <path
         d="M 0,0.16 V 1122.5601 H 793.59998 V 0.16 Z"
         transform="translate(-448.79999,-660.15997)"
         clip-rule="evenodd"
         id="path6" />
    </clipPath>
  </defs>
  <sodipodi:namedview
     id="namedview1"
     pagecolor="#505050"
     bordercolor="#eeeeee"
     borderopacity="1"
     inkscape:showpageshadow="0"
     inkscape:pageopacity="0"
     inkscape:pagecheckerboard="0"
     inkscape:deskcolor="#505050">
    <inkscape:page
       x="0"
       y="0"
       inkscape:label="1"
       id="page1"
       width="385.54666"
       height="618"
       margin="0"
       bleed="0" />
  </sodipodi:namedview>
  <g
     id="g1"
     inkscape:groupmode="layer"
     inkscape:label="1">
    <path
       id="path1"
       d="M 396.79999,278.07999 233.28,561.28003 H 560.32001 L 396.79999,278.07999"
       style="fill:none;stroke:#000000;stroke-width:26.4;stroke-linecap:round;stroke-linejoin:round;stroke-miterlimit:10;stroke-dasharray:none;stroke-opacity:1"
       transform="translate(0,-5.8666667e-5)"
       clip-path="url(#clipPath2)" />
    <path
       id="path3"
       d="M 396.79999,561.28003 V 844.47998"
       style="fill:none;stroke:#000000;stroke-width:26.4;stroke-linecap:round;stroke-linejoin:round;stroke-miterlimit:10;stroke-dasharray:none;stroke-opacity:1"
       transform="translate(0,-5.8666667e-5)"
       clip-path="url(#clipPath4)" />
    <path
       id="path5"
       d="m 0,0 -7.04,-1.12 -7.36,-0.96 -7.36,-0.96 -7.520001,-0.64 -7.679998,-0.48 -7.520001,-0.16 -7.68,-0.16 -7.68,0.16 -7.679997,0.32 -7.68,0.48 -7.520004,0.64 -7.360001,0.8 -7.36,1.12 -7.039998,1.12 -7.04,1.44 -6.72,1.6 -6.56,1.76 -6.23999,1.76 -6.08,2.08 -5.60001,2.24 -5.44,2.4 -5.12,2.4 -4.8,2.56 -4.31999,2.720001 L -166.56,24 l -3.52,2.879999 -3.36,2.880001 -2.72,3.039999 -2.4,3.200001 -2.08,3.200001 -1.44,3.200001 -1.12,3.199996 -0.64,3.360001 -0.32,3.200001 0.32,3.36 0.64,3.200001 1.12,3.360001 1.6,3.199997 1.92,3.200004 2.4,3.039994 2.88,3.200004 3.2,2.879997 3.68001,2.880005 4.15999,2.879998 4.32,2.720001 4.80001,2.559997 5.11999,2.400002 5.44,2.400001 5.76,2.079995 5.92,2.080001 6.4,1.919999 6.56,1.760003 6.72,1.44 6.88,1.44 7.199997,1.28 7.360001,0.96 7.36,0.96 7.520005,0.64 7.519996,0.48 7.680001,0.16 7.68,0.16"
       style="fill:none;stroke:#000000;stroke-width:26.4;stroke-linecap:round;stroke-linejoin:round;stroke-miterlimit:10;stroke-dasharray:none;stroke-opacity:1"
       transform="translate(448.79999,660.15991)"
       clip-path="url(#clipPath6)" />
  </g>
</svg>
