<?xml version="1.0" encoding="UTF-8" standalone="no"?>
<!-- Created with Inkscape (http://www.inkscape.org/) -->

<svg
   version="1.1"
   id="svg1"
   width="272.14667"
   height="381.74667"
   viewBox="0 0 272.14667 381.74667"
   sodipodi:docname="Blend2.pdf"
   xmlns:inkscape="http://www.inkscape.org/namespaces/inkscape"
   xmlns:sodipodi="http://sodipodi.sourceforge.net/DTD/sodipodi-0.dtd"
   xmlns="http://www.w3.org/2000/svg"
   xmlns:svg="http://www.w3.org/2000/svg">
  <defs
     id="defs1">
    <clipPath
       clipPathUnits="userSpaceOnUse"
       id="clipPath2">
      <path
         d="M 0,0.16 V 1122.5601 H 793.59998 V 0.16 Z"
         clip-rule="evenodd"
         id="path2" />
    </clipPath>
    <clipPath
       clipPathUnits="userSpaceOnUse"
       id="clipPath4">
      <path
         d="M 0,0.16 V 1122.5601 H 793.59998 V 0.16 Z"
         clip-rule="evenodd"
         id="path4" />
    </clipPath>
    <clipPath
       clipPathUnits="userSpaceOnUse"
       id="clipPath6">
      <path
         d="M 0,0.16 V 1122.5601 H 793.59998 V 0.16 Z"
         transform="translate(-283.51999,-674.56)"
         clip-rule="evenodd"
         id="path6" />
    </clipPath>
    <clipPath
       clipPathUnits="userSpaceOnUse"
       id="clipPath8">
      <path
         d="M 0,0.16 V 1122.5601 H 793.59998 V 0.16 Z"
         transform="translate(-510.07999,-448)"
         clip-rule="evenodd"
         id="path8" />
    </clipPath>
    <clipPath
       clipPathUnits="userSpaceOnUse"
       id="clipPath10">
      <path
         d="M 0,0.16 V 1122.5601 H 793.59998 V 0.16 Z"
         clip-rule="evenodd"
         id="path10" />
    </clipPath>
    <clipPath
       clipPathUnits="userSpaceOnUse"
       id="clipPath12">
      <path
         d="M 0,0.16 V 1122.5601 H 793.59998 V 0.16 Z"
         transform="translate(-340.16,-334.72)"
         clip-rule="evenodd"
         id="path12" />
    </clipPath>
  </defs>
  <sodipodi:namedview
     id="namedview1"
     pagecolor="#505050"
     bordercolor="#eeeeee"
     borderopacity="1"
     inkscape:showpageshadow="0"
     inkscape:pageopacity="0"
     inkscape:pagecheckerboard="0"
     inkscape:deskcolor="#505050">
    <inkscape:page
       x="0"
       y="0"
       inkscape:label="1"
       id="page1"
       width="272.14667"
       height="381.74667"
       margin="0"
       bleed="0" />
  </sodipodi:namedview>
  <g
     id="g1"
     inkscape:groupmode="layer"
     inkscape:label="1">
    <path
       id="path1"
       d="m 283.51999,448 h 226.56"
       style="fill:none;stroke:#000000;stroke-width:26.4;stroke-linecap:round;stroke-linejoin:round;stroke-miterlimit:10;stroke-dasharray:none;stroke-opacity:1"
       transform="translate(-261.48,-312.34673)"
       clip-path="url(#clipPath2)" />
    <path
       id="path3"
       d="m 283.51999,674.56 h 226.56"
       style="fill:none;stroke:#000000;stroke-width:26.4;stroke-linecap:round;stroke-linejoin:round;stroke-miterlimit:10;stroke-dasharray:none;stroke-opacity:1"
       transform="translate(-261.48,-312.34673)"
       clip-path="url(#clipPath4)" />
    <path
       id="path5"
       d="m 0,0 5.44,-7.52 5.12,-8 4.64,-8 4.160001,-8.32 3.84,-8.64 3.359998,-8.639999 3.040001,-8.960003 2.4,-8.959999 2.080002,-9.120003 1.599998,-9.119995 1.279999,-9.279999 0.639999,-9.280002 0.16,-9.44 -0.16,-9.28 -0.639999,-9.28 -1.279999,-9.27999 -1.599998,-9.28 L 32,-159.52 l -2.4,-8.96 -3.040001,-8.96 -3.359998,-8.64 -3.84,-8.48 L 15.2,-202.88 10.56,-211.03999 5.44,-218.88 0,-226.56"
       style="fill:none;stroke:#000000;stroke-width:26.4;stroke-linecap:round;stroke-linejoin:round;stroke-miterlimit:10;stroke-dasharray:none;stroke-opacity:1"
       transform="translate(22.039989,362.21327)"
       clip-path="url(#clipPath6)" />
    <path
       id="path7"
       d="m 0,0 -5.44,7.68 -4.96,7.84 -4.64,8.16 -4.320001,8.32 -3.68,8.48 -3.519998,8.639999 -2.880002,8.960003 L -32,67.040001 l -2.080002,9.120003 -1.599998,9.279998 -1.119999,9.279999 -0.64,9.279999 -0.319999,9.28 0.319999,9.44 0.64,9.28 1.119999,9.28 1.599998,9.11999 L -32,159.52 l 2.559999,8.96 2.880002,8.96 3.519998,8.64 3.68,8.64 4.320001,8.31999 4.64,8 4.96,8 L 0,226.56"
       style="fill:none;stroke:#000000;stroke-width:26.4;stroke-linecap:round;stroke-linejoin:round;stroke-miterlimit:10;stroke-dasharray:none;stroke-opacity:1"
       transform="translate(248.59999,135.65327)"
       clip-path="url(#clipPath8)" />
    <path
       id="path9"
       d="M 396.79999,674.56 V 391.35999"
       style="fill:none;stroke:#000000;stroke-width:26.4;stroke-linecap:round;stroke-linejoin:round;stroke-miterlimit:10;stroke-dasharray:none;stroke-opacity:1"
       transform="translate(-261.48,-312.34673)"
       clip-path="url(#clipPath10)" />
    <path
       id="path11"
       d="m 0,0 0.16,4.48 0.64,4.48 0.8,4.32 1.28,4.32 1.44,4.16 1.92,4 2.08,3.84 2.56,3.679999 2.72,3.52 3.039999,3.360001 3.200001,2.880001 3.520001,2.879997 3.68,2.400002 4,2.240001 4,1.759999 4.16,1.599998 L 43.52,55.040001 47.84,56 l 4.48,0.48 4.319999,0.159999 4.48,-0.159999 4.479999,-0.48 4.32,-0.959999 4.32,-1.120003 4.160004,-1.599998 4,-1.759999 3.839996,-2.240001 3.68,-2.400002 3.520004,-2.879997 L 96.800003,40.16 99.68,36.799999 l 2.88,-3.52 2.4,-3.679999 2.24,-3.84 1.76,-4 1.6,-4.16 1.28,-4.32 0.8,-4.32 0.48,-4.48 0.16,-4.48"
       style="fill:none;stroke:#000000;stroke-width:26.4;stroke-linecap:round;stroke-linejoin:round;stroke-miterlimit:10;stroke-dasharray:none;stroke-opacity:1"
       transform="translate(78.680004,22.373276)"
       clip-path="url(#clipPath12)" />
  </g>
</svg>
