<?xml version="1.0" encoding="UTF-8" standalone="no"?>
<!-- Created with Inkscape (http://www.inkscape.org/) -->

<svg
   version="1.1"
   id="svg1"
   width="404.21332"
   height="375.07999"
   viewBox="0 0 404.21332 375.07999"
   sodipodi:docname="Bole3.pdf"
   xmlns:inkscape="http://www.inkscape.org/namespaces/inkscape"
   xmlns:sodipodi="http://sodipodi.sourceforge.net/DTD/sodipodi-0.dtd"
   xmlns="http://www.w3.org/2000/svg"
   xmlns:svg="http://www.w3.org/2000/svg">
  <defs
     id="defs1">
    <clipPath
       clipPathUnits="userSpaceOnUse"
       id="clipPath2">
      <path
         d="M 0,0.16 V 1122.5601 H 793.59998 V 0.16 Z"
         clip-rule="evenodd"
         id="path2" />
    </clipPath>
    <clipPath
       clipPathUnits="userSpaceOnUse"
       id="clipPath4">
      <path
         d="M 0,0.16 V 1122.5601 H 793.59998 V 0.16 Z"
         clip-rule="evenodd"
         id="path4" />
    </clipPath>
    <clipPath
       clipPathUnits="userSpaceOnUse"
       id="clipPath6">
      <path
         d="M 0,0.16 V 1122.5601 H 793.59998 V 0.16 Z"
         transform="translate(-289.60001,-455.51999)"
         clip-rule="evenodd"
         id="path6" />
    </clipPath>
    <clipPath
       clipPathUnits="userSpaceOnUse"
       id="clipPath8">
      <path
         d="M 0,0.16 V 1122.5601 H 793.59998 V 0.16 Z"
         transform="translate(-440.64001,-516)"
         clip-rule="evenodd"
         id="path8" />
    </clipPath>
    <clipPath
       clipPathUnits="userSpaceOnUse"
       id="clipPath10">
      <path
         d="M 0,0.16 V 1122.5601 H 793.59998 V 0.16 Z"
         transform="translate(-440.64001,-516)"
         clip-rule="evenodd"
         id="path10" />
    </clipPath>
  </defs>
  <sodipodi:namedview
     id="namedview1"
     pagecolor="#505050"
     bordercolor="#eeeeee"
     borderopacity="1"
     inkscape:showpageshadow="0"
     inkscape:pageopacity="0"
     inkscape:pagecheckerboard="0"
     inkscape:deskcolor="#505050">
    <inkscape:page
       x="0"
       y="0"
       inkscape:label="1"
       id="page1"
       width="404.21332"
       height="375.07999"
       margin="0"
       bleed="0" />
  </sodipodi:namedview>
  <g
     id="g1"
     inkscape:groupmode="layer"
     inkscape:label="1">
    <path
       id="path1"
       d="M 229.28,516 440.64001,727.35998"
       style="fill:none;stroke:#000000;stroke-width:26.4;stroke-linecap:round;stroke-linejoin:round;stroke-miterlimit:10;stroke-dasharray:none;stroke-opacity:1"
       transform="translate(-193.44,-376.41339)"
       clip-path="url(#clipPath2)" />
    <path
       id="path3"
       d="M 214.08,727.35998 440.64001,516"
       style="fill:none;stroke:#000000;stroke-width:26.4;stroke-linecap:round;stroke-linejoin:round;stroke-miterlimit:10;stroke-dasharray:none;stroke-opacity:1"
       transform="translate(-193.44,-376.41339)"
       clip-path="url(#clipPath4)" />
    <path
       id="path5"
       d="m 0,0 -2.72,-2.4 -3.04,-2.4 -3.04,-1.92 -3.36,-1.76 -3.36,-1.44 -3.680001,-1.12 -3.519998,-0.8 -3.680001,-0.48 -3.84,-0.16 -3.679998,0.16 -3.68,0.48 -3.680001,0.8 -3.52,1.12 -3.520001,1.44 -3.2,1.76 -3.200001,1.92 -2.879997,2.4 L -60.32,0 l -2.560001,2.88 -2.240002,2.88 -2.079994,3.2 -1.760002,3.2 -1.440003,3.52 -1.119995,3.520001 -0.800003,3.679998 -0.480003,3.68 -0.159996,3.680001 0.159996,3.679998 0.480003,3.84 0.800003,3.520001 1.119995,3.52 1.440003,3.520001 1.760002,3.36 2.079994,3.040001 2.240002,3.039997 L -60.32,60.48"
       style="fill:none;stroke:#000000;stroke-width:26.4;stroke-linecap:round;stroke-linejoin:round;stroke-miterlimit:10;stroke-dasharray:none;stroke-opacity:1"
       transform="translate(96.160006,79.106597)"
       clip-path="url(#clipPath6)" />
    <path
       id="path7"
       d="m 0,0 4.8,3.52 4.96,3.04 5.28,2.88 5.44,2.4 5.6,2.08 5.6,1.6 5.919998,1.279999 5.760003,0.800001 5.919998,0.48 h 5.920002 L 61.119999,17.76 67.040001,16.959999 72.800003,15.84 78.559998,14.24 84.160004,12.16 89.599998,9.92 94.879997,7.2 100,4.16 l 4.8,-3.52 4.64,-3.68 4.32,-4 4,-4.32 3.84,-4.64 3.36,-4.799999 3.04,-5.120001 2.72,-5.280001 2.39999,-5.439998 1.92,-5.600003 L 136.64,-48 137.75999,-53.759998 138.56,-59.68 l 0.32,-5.919998 v -5.919999 l -0.48001,-5.920005 -0.79998,-5.919999 -1.28,-5.760002 -1.60001,-5.599998 -2.08,-5.599999 -2.4,-5.44 -2.72,-5.28 -3.2,-4.96 -3.52,-4.8"
       style="fill:none;stroke:#000000;stroke-width:18.88;stroke-linecap:round;stroke-linejoin:round;stroke-miterlimit:10;stroke-dasharray:none;stroke-opacity:1"
       transform="translate(247.20001,139.58661)"
       clip-path="url(#clipPath8)" />
    <path
       id="path9"
       d="m 0,0 6.56,0.8 6.56,0.32 6.56,-0.16 6.72,-0.48 6.399999,-0.96 6.560002,-1.28 6.399997,-1.6 L 52,-5.44 58.080002,-8 64,-10.88 l 5.760002,-3.2 5.599999,-3.52 5.440002,-3.840001 4.959999,-4.319999 4.799996,-4.48 4.639999,-4.800001 4.160004,-5.119999 3.839999,-5.279999 3.68,-5.600002 3.2,-5.759998 2.72,-5.920002 2.56,-6.080002 2.08,-6.239998 1.6,-6.400001 1.44,-6.559998 0.8,-6.559998 0.48,-6.560002 0.16,-6.56 -0.32,-6.56 -0.8,-6.56"
       style="fill:none;stroke:#000000;stroke-width:18.88;stroke-linecap:round;stroke-linejoin:round;stroke-miterlimit:10;stroke-dasharray:none;stroke-opacity:1"
       transform="translate(247.20001,139.58661)"
       clip-path="url(#clipPath10)" />
  </g>
</svg>
