<?xml version="1.0" encoding="UTF-8" standalone="no"?>
<!-- Created with Inkscape (http://www.inkscape.org/) -->

<svg
   version="1.1"
   id="svg1"
   width="384.21332"
   height="404.45334"
   viewBox="0 0 384.21332 404.45334"
   sodipodi:docname="Bole2.pdf"
   xmlns:inkscape="http://www.inkscape.org/namespaces/inkscape"
   xmlns:sodipodi="http://sodipodi.sourceforge.net/DTD/sodipodi-0.dtd"
   xmlns="http://www.w3.org/2000/svg"
   xmlns:svg="http://www.w3.org/2000/svg">
  <defs
     id="defs1">
    <clipPath
       clipPathUnits="userSpaceOnUse"
       id="clipPath2">
      <path
         d="M 0,0.16 V 1122.5601 H 793.59998 V 0.16 Z"
         transform="translate(-317.60001,-554.71997)"
         clip-rule="evenodd"
         id="path2" />
    </clipPath>
    <clipPath
       clipPathUnits="userSpaceOnUse"
       id="clipPath4">
      <path
         d="M 0,0.16 V 1122.5601 H 793.59998 V 0.16 Z"
         clip-rule="evenodd"
         id="path4" />
    </clipPath>
    <clipPath
       clipPathUnits="userSpaceOnUse"
       id="clipPath6">
      <path
         d="M 0,0.16 V 1122.5601 H 793.59998 V 0.16 Z"
         clip-rule="evenodd"
         id="path6" />
    </clipPath>
    <clipPath
       clipPathUnits="userSpaceOnUse"
       id="clipPath8">
      <path
         d="M 0,0.16 V 1122.5601 H 793.59998 V 0.16 Z"
         transform="translate(-515.84003,-713.28003)"
         clip-rule="evenodd"
         id="path8" />
    </clipPath>
  </defs>
  <sodipodi:namedview
     id="namedview1"
     pagecolor="#505050"
     bordercolor="#eeeeee"
     borderopacity="1"
     inkscape:showpageshadow="0"
     inkscape:pageopacity="0"
     inkscape:pagecheckerboard="0"
     inkscape:deskcolor="#505050">
    <inkscape:page
       x="0"
       y="0"
       inkscape:label="1"
       id="page1"
       width="384.21332"
       height="404.45334"
       margin="0"
       bleed="0" />
  </sodipodi:namedview>
  <g
     id="g1"
     inkscape:groupmode="layer"
     inkscape:label="1">
    <path
       id="path1"
       d="m 0,0 -6.08,0.16 -6.08,0.64 -5.92,0.96 -5.92,1.44 -5.76,1.76 -5.76,2.08 -5.439999,2.4 -5.280003,2.88 -5.119999,3.2 -4.959999,3.520001 -4.639999,3.839998 -4.480003,4.160002 -4.159996,4.479999 -3.840004,4.64 -3.519997,4.959999 -3.200005,5.120003 -2.879997,5.279998 -2.400001,5.599999 -2.239998,5.600002 -1.760002,5.760002 -1.279999,5.919999 -0.959999,6.080001 -0.64,5.919999 -0.160003,6.080001 0.160003,6.079995 0.64,5.920002 0.959999,6.08 1.279999,5.92 1.760002,5.76 2.239998,5.6 2.400001,5.6 2.879997,5.28 3.200005,5.12 3.519997,4.96 3.840004,4.64 4.159996,4.48 4.480003,4.16 4.639999,3.84 4.959999,3.52 5.119999,3.2 5.280003,2.88 5.439999,2.4 5.76,2.08 5.76,1.75999 5.92,1.44001 5.92,0.96 6.08,0.64 L 0,184.96001 6.08,184.8 12,184.16 18.08,183.2 23.84,181.75999 29.76,180 l 5.600001,-2.08 5.439998,-2.4 5.440003,-2.88 5.119999,-3.2 4.959999,-3.52 4.639999,-3.84 4.480003,-4.16 4,-4.48 3.839997,-4.64 3.520004,-4.96 L 80,138.72 l 2.879997,-5.28 2.560005,-5.6 2.079995,-5.6 1.760002,-5.76 1.440002,-5.92 0.959999,-6.08 0.64,-5.920002 0.160003,-6.079995"
       style="fill:none;stroke:#000000;stroke-width:26.4;stroke-linecap:round;stroke-linejoin:round;stroke-miterlimit:10;stroke-dasharray:none;stroke-opacity:1"
       transform="translate(112.16001,195.66658)"
       clip-path="url(#clipPath2)" />
    <path
       id="path3"
       d="M 410.07999,647.20001 449.76001,382.88"
       style="fill:none;stroke:#000000;stroke-width:26.4;stroke-linecap:round;stroke-linejoin:round;stroke-miterlimit:10;stroke-dasharray:none;stroke-opacity:1"
       transform="translate(-205.44,-359.05339)"
       clip-path="url(#clipPath4)" />
    <path
       id="path5"
       d="m 449.76001,382.88 66.08002,330.40003"
       style="fill:none;stroke:#000000;stroke-width:26.4;stroke-linecap:round;stroke-linejoin:round;stroke-miterlimit:10;stroke-dasharray:none;stroke-opacity:1"
       transform="translate(-205.44,-359.05339)"
       clip-path="url(#clipPath6)" />
    <path
       id="path7"
       d="m 0,0 0.16,2.72 0.32,2.72 0.8,2.72 0.96,2.56 1.28,2.56 1.44,2.24 1.76,2.08 1.92,2.08 2.24,1.760001 2.24,1.439998 L 15.68,24.16 18.24,25.120001 20.959999,25.92 23.68,26.24 26.4,26.4 29.120001,26.24 31.84,25.92 34.560001,25.120001 37.119999,24.16 39.52,22.879999 41.919998,21.440001 44,19.68 46.080002,17.6 47.68,15.52 49.279999,13.28 50.560001,10.72 51.52,8.16 52.16,5.44 52.639999,2.72 52.799999,0"
       style="fill:none;stroke:#000000;stroke-width:26.4;stroke-linecap:round;stroke-linejoin:round;stroke-miterlimit:10;stroke-dasharray:none;stroke-opacity:1"
       transform="translate(310.40003,354.22664)"
       clip-path="url(#clipPath8)" />
  </g>
</svg>
