<?xml version="1.0" encoding="UTF-8" standalone="no"?>
<!-- Created with Inkscape (http://www.inkscape.org/) -->

<svg
   version="1.1"
   id="svg1"
   width="392.21332"
   height="413.78668"
   viewBox="0 0 392.21332 413.78668"
   sodipodi:docname="Bole.pdf"
   xmlns:inkscape="http://www.inkscape.org/namespaces/inkscape"
   xmlns:sodipodi="http://sodipodi.sourceforge.net/DTD/sodipodi-0.dtd"
   xmlns="http://www.w3.org/2000/svg"
   xmlns:svg="http://www.w3.org/2000/svg">
  <defs
     id="defs1">
    <clipPath
       clipPathUnits="userSpaceOnUse"
       id="clipPath2">
      <path
         d="M 0,0.16 V 1122.5601 H 793.59998 V 0.16 Z"
         transform="translate(-423.04001,-655.67999)"
         clip-rule="evenodd"
         id="path2" />
    </clipPath>
    <clipPath
       clipPathUnits="userSpaceOnUse"
       id="clipPath4">
      <path
         d="M 0,0.16 V 1122.5601 H 793.59998 V 0.16 Z"
         clip-rule="evenodd"
         id="path4" />
    </clipPath>
    <clipPath
       clipPathUnits="userSpaceOnUse"
       id="clipPath6">
      <path
         d="M 0,0.16 V 1122.5601 H 793.59998 V 0.16 Z"
         transform="translate(-522.08002,-655.67999)"
         clip-rule="evenodd"
         id="path6" />
    </clipPath>
    <clipPath
       clipPathUnits="userSpaceOnUse"
       id="clipPath8">
      <path
         d="M 0,0.16 V 1122.5601 H 793.59998 V 0.16 Z"
         transform="translate(-519.84003,-651.20001)"
         clip-rule="evenodd"
         id="path8" />
    </clipPath>
    <clipPath
       clipPathUnits="userSpaceOnUse"
       id="clipPath10">
      <path
         d="M 0,0.16 V 1122.5601 H 793.59998 V 0.16 Z"
         transform="translate(-624.96002,-646.23999)"
         clip-rule="evenodd"
         id="path10" />
    </clipPath>
    <clipPath
       clipPathUnits="userSpaceOnUse"
       id="clipPath12">
      <path
         d="M 0,0.16 V 1122.5601 H 793.59998 V 0.16 Z"
         transform="translate(-352.32001,-372.48001)"
         clip-rule="evenodd"
         id="path12" />
    </clipPath>
    <clipPath
       clipPathUnits="userSpaceOnUse"
       id="clipPath14">
      <path
         d="M 0,0.16 V 1122.5601 H 793.59998 V 0.16 Z"
         clip-rule="evenodd"
         id="path14" />
    </clipPath>
  </defs>
  <sodipodi:namedview
     id="namedview1"
     pagecolor="#505050"
     bordercolor="#eeeeee"
     borderopacity="1"
     inkscape:showpageshadow="0"
     inkscape:pageopacity="0"
     inkscape:pagecheckerboard="0"
     inkscape:deskcolor="#505050">
    <inkscape:page
       x="0"
       y="0"
       inkscape:label="1"
       id="page1"
       width="392.21332"
       height="413.78668"
       margin="0"
       bleed="0" />
  </sodipodi:namedview>
  <g
     id="g1"
     inkscape:groupmode="layer"
     inkscape:label="1">
    <path
       id="path1"
       d="m 0,0 c 0,-10.42 -6.33,-18.879999 -14.16,-18.879999 -7.83,0 -14.16,8.459999 -14.16,18.879999 0,10.42 6.33,18.879999 14.16,18.879999 C -6.33,18.879999 0,10.42 0,0 Z"
       style="fill:none;stroke:#000000;stroke-width:26.4;stroke-linecap:round;stroke-linejoin:round;stroke-miterlimit:10;stroke-dasharray:none;stroke-opacity:1"
       transform="translate(118.88001,370.03993)"
       clip-path="url(#clipPath2)" />
    <path
       id="path3"
       d="M 423.04001,372.48001 V 655.67999"
       style="fill:none;stroke:#000000;stroke-width:26.4;stroke-linecap:round;stroke-linejoin:round;stroke-miterlimit:10;stroke-dasharray:none;stroke-opacity:1"
       transform="translate(-304.16,-285.64006)"
       clip-path="url(#clipPath4)" />
    <path
       id="path5"
       d="m 0,0 -3.2,-4.16 -3.52,-4 -3.84,-3.68 -3.84,-3.2 -4,-2.88 -4.159999,-2.719999 -4.32,-2.08 -4.480002,-1.92 L -35.84,-25.92 l -4.48,-1.120001 -4.479999,-0.479999 -4.64,-0.32 -4.640003,0.32 -4.639999,0.479999 -4.48,1.120001 -4.479999,1.280001 -4.32,1.92 -4.32,2.08 -4.160003,2.719999 -4.159996,2.88 -3.840004,3.2 -3.680001,3.68 -3.519996,4 -3.360001,4.16"
       style="fill:none;stroke:#000000;stroke-width:26.4;stroke-linecap:round;stroke-linejoin:round;stroke-miterlimit:10;stroke-dasharray:none;stroke-opacity:1"
       transform="translate(217.92002,370.03993)"
       clip-path="url(#clipPath6)" />
    <path
       id="path7"
       d="m 0,0 3.2,4.16 3.52,4 3.84,3.52 3.84,3.36 4,2.88 4.159999,2.56 4.32,2.239999 4.480002,1.760001 4.479999,1.44 4.48,0.959999 4.639999,0.640001 4.48,0.16 4.640003,-0.16 4.639999,-0.640001 4.48,-0.959999 L 67.68,24.48 72.160004,22.719999 76.32,20.48 l 4.319999,-2.56 4,-2.88 3.840004,-3.36 L 92.160004,8.16 95.68,4.16 99.040001,0"
       style="fill:none;stroke:#000000;stroke-width:26.4;stroke-linecap:round;stroke-linejoin:round;stroke-miterlimit:10;stroke-dasharray:none;stroke-opacity:1"
       transform="translate(215.68003,365.55995)"
       clip-path="url(#clipPath8)" />
    <path
       id="path9"
       d="M 0,0 3.52,-9.12 6.72,-18.559999 9.6,-28.32 12.16,-38.080002 14.4,-48 16.32,-58.080002 17.92,-68.160004 19.040001,-78.400002 20,-88.800003 20.48,-99.040001 20.639999,-109.44 20.48,-119.84 20,-130.24 19.040001,-140.48 17.76,-150.72 16.16,-160.96001 14.24,-170.88 12,-180.96001 9.44,-190.72 l -2.88,-9.60001 -3.2,-9.43998 -3.68,-9.12001 -3.84,-9.12 -4.16,-8.64 -4.48,-8.64 -4.640001,-8.16 -5.119998,-8 -5.280001,-7.51999 -5.439999,-7.36002 -5.760002,-6.88 -6.079998,-6.72 -6.080002,-6.23999 -6.559997,-5.76001 -6.560002,-5.43998 -6.720001,-5.12002 -7.040001,-4.63999 -7.040001,-4.32 -7.199997,-3.68 -7.36,-3.36001 -7.52,-3.03998 -7.52,-2.40002 -7.68,-2.07999 -7.68,-1.44 -7.84,-1.12 -7.68001,-0.64001 -7.83999,-0.15998 -7.67999,0.31998 -7.84002,0.80002 -7.67999,1.28 -7.68001,1.75998 -7.67999,2.08001 -7.52,2.72001 -7.36,3.04 -7.36,3.51999 -7.2,3.84 -7.04,4.48001 -6.88,4.79999 -6.72,5.11999 -6.56,5.76001 -6.39999,5.91999 -6.08001,6.40002 -5.92001,6.72 -5.6,7.03998"
       style="fill:none;stroke:#000000;stroke-width:26.4;stroke-linecap:round;stroke-linejoin:round;stroke-miterlimit:10;stroke-dasharray:none;stroke-opacity:1"
       transform="translate(320.80002,360.59993)"
       clip-path="url(#clipPath10)" />
    <path
       id="path11"
       d="m 0,0 -4.16,5.6 -3.36,4.96 -3.2,4.8 -2.88,4.8 -2.56,4.639999 -2.399999,4.480002 -2.08,4.319997 -1.760001,4.32 -1.44,4.160004 -1.119999,4.16 -0.960001,4 -0.639999,4 -0.32,4.16 v 4 l 0.16,4.319999 0.479999,4.479996 0.16,1.280006 0.48,2.239998 1.12,6.080002 1.600001,5.599999 1.759998,5.119995 2.240002,4.480003 2.399999,4 2.72,3.68 3.04,3.36 3.52,3.04 1.92,1.44 3.84,2.56 4.32,2.4 4.64,2.08 4.96,1.92 5.28,1.44 5.600001,1.28 5.76,0.8 6.08,0.48 h 6.239998 l 5.760002,-0.16 3.52,-0.32 6.719998,-0.8 7.52,-1.12 8.800003,-1.6 L 84.32,118.4 97.760002,116 104.64,115.04 l 11.04,-1.28 9.44,-0.48 h 2.24"
       style="fill:none;stroke:#000000;stroke-width:26.4;stroke-linecap:round;stroke-linejoin:round;stroke-miterlimit:10;stroke-dasharray:none;stroke-opacity:1"
       transform="translate(48.160007,86.839952)"
       clip-path="url(#clipPath12)" />
    <path
       id="path13"
       d="M 479.67999,485.76001 677.91998,448"
       style="fill:none;stroke:#000000;stroke-width:26.4;stroke-linecap:round;stroke-linejoin:round;stroke-miterlimit:10;stroke-dasharray:none;stroke-opacity:1"
       transform="translate(-304.16,-285.64006)"
       clip-path="url(#clipPath14)" />
  </g>
</svg>
