<?xml version="1.0" encoding="UTF-8" standalone="no"?>
<!-- Created with Inkscape (http://www.inkscape.org/) -->

<svg
   version="1.1"
   id="svg1"
   width="276.16"
   height="278.97333"
   viewBox="0 0 276.16 278.97333"
   sodipodi:docname="Chalk2.pdf"
   xmlns:inkscape="http://www.inkscape.org/namespaces/inkscape"
   xmlns:sodipodi="http://sodipodi.sourceforge.net/DTD/sodipodi-0.dtd"
   xmlns="http://www.w3.org/2000/svg"
   xmlns:svg="http://www.w3.org/2000/svg">
  <defs
     id="defs1">
    <clipPath
       clipPathUnits="userSpaceOnUse"
       id="clipPath2">
      <path
         d="M 0,0.16 V 1122.5601 H 793.59998 V 0.16 Z"
         transform="translate(-303.35999,-548)"
         clip-rule="evenodd"
         id="path2" />
    </clipPath>
    <clipPath
       clipPathUnits="userSpaceOnUse"
       id="clipPath4">
      <path
         d="M 0,0.16 V 1122.5601 H 793.59998 V 0.16 Z"
         transform="translate(-490.23999,-574.71997)"
         clip-rule="evenodd"
         id="path4" />
    </clipPath>
    <clipPath
       clipPathUnits="userSpaceOnUse"
       id="clipPath6">
      <path
         d="M 0,0.16 V 1122.5601 H 793.59998 V 0.16 Z"
         clip-rule="evenodd"
         id="path6" />
    </clipPath>
    <clipPath
       clipPathUnits="userSpaceOnUse"
       id="clipPath8">
      <path
         d="M 0,0.16 V 1122.5601 H 793.59998 V 0.16 Z"
         transform="translate(-490.23999,-574.71997)"
         clip-rule="evenodd"
         id="path8" />
    </clipPath>
  </defs>
  <sodipodi:namedview
     id="namedview1"
     pagecolor="#505050"
     bordercolor="#eeeeee"
     borderopacity="1"
     inkscape:showpageshadow="0"
     inkscape:pageopacity="0"
     inkscape:pagecheckerboard="0"
     inkscape:deskcolor="#505050">
    <inkscape:page
       x="0"
       y="0"
       inkscape:label="1"
       id="page1"
       width="276.16"
       height="278.97333"
       margin="0"
       bleed="0" />
  </sodipodi:namedview>
  <g
     id="g1"
     inkscape:groupmode="layer"
     inkscape:label="1">
    <path
       id="path1"
       d="m 0,0 -3.68,3.84 -3.36,4.32 -3.04,4.32 -2.72,4.640001 L -15.2,21.92 -17.280001,26.879999 -19.040001,32 -20.32,37.279999 -21.280001,42.560001 -21.92,48 l -0.16,5.279999 0.16,5.440002 0.639999,5.440003 0.960001,5.279998 1.279999,5.119996 1.76,5.120002 2.080001,4.959999 2.4,4.959999 2.72,4.64 3.04,4.32 3.36,4.160002 3.68,4 4,3.68 4.16,3.36 4.48,3.04 4.640001,2.88 4.799999,2.4 4.960001,2.08 5.119999,1.6 5.279999,1.44 5.280002,0.96 5.279999,0.48 5.439999,0.16 5.440002,-0.16 5.280003,-0.48 5.279998,-0.96 5.279999,-1.44 5.119995,-1.6 4.960007,-2.08 4.799995,-2.4 4.64,-2.88 4.480003,-3.04 4.159999,-3.36 4,-3.68"
       style="fill:none;stroke:#000000;stroke-width:26.4;stroke-linecap:round;stroke-linejoin:round;stroke-miterlimit:10;stroke-dasharray:none;stroke-opacity:1"
       transform="translate(303.35999,545.31994)"
       clip-path="url(#clipPath2)" />
    <path
       id="path3"
       d="m 0,0 3.68,-4 3.36,-4.16 3.2,-4.48 2.72,-4.640001 2.4,-4.799999 2.080001,-4.960001 1.6,-5.119999 L 20.48,-37.439999 21.440001,-42.720001 21.92,-48.16 l 0.32,-5.279999 -0.32,-5.440002 -0.479999,-5.280003 -0.960001,-5.279998 -1.439999,-5.279999 -1.6,-5.119995 -2.080001,-4.960007 -2.4,-4.799995 -2.72,-4.64 -3.2,-4.480003 -3.36,-4.159999 -3.68,-4 -3.84,-3.68 -4.32,-3.36 -4.32,-3.04 -4.640001,-2.72 -4.799999,-2.4 -4.959999,-2.08 -5.120001,-1.76 -5.279999,-1.28 -5.280002,-0.96 L -48,-128.8 l -5.279999,-0.16001 -5.440002,0.16001 -5.440003,0.64 -5.279998,0.96 -5.119996,1.28 -5.120002,1.76 -4.959999,2.08 -4.959999,2.4 -4.64,2.72 -4.32,3.04 -4.160002,3.36 -4,3.68"
       style="fill:none;stroke:#000000;stroke-width:26.4;stroke-linecap:round;stroke-linejoin:round;stroke-miterlimit:10;stroke-dasharray:none;stroke-opacity:1"
       transform="translate(490.23999,572.03991)"
       clip-path="url(#clipPath4)" />
    <path
       id="path5"
       d="m 303.35999,548 80.16,-80.16"
       style="fill:none;stroke:#000000;stroke-width:26.4;stroke-linecap:round;stroke-linejoin:round;stroke-miterlimit:10;stroke-dasharray:none;stroke-opacity:1"
       transform="translate(0,-2.6800587)"
       clip-path="url(#clipPath6)" />
    <path
       id="path7"
       d="m 0,0 -5.92,0.96 -5.92,1.44 -5.76,1.76 -5.760001,2.24 -5.439998,2.56 -5.280003,2.88 -5.279999,3.2 L -44.16,18.559999 -48.959999,22.4 l -4.32,4.159999 -4.16,4.480002 -3.84,4.639999 -3.68,4.959999 -3.200005,5.119999 -2.879997,5.440003 -2.559997,5.439998 -2.080002,5.760003 -1.919998,5.760002 -1.440003,5.919998 L -80,80"
       style="fill:none;stroke:#000000;stroke-width:26.4;stroke-linecap:round;stroke-linejoin:round;stroke-miterlimit:10;stroke-dasharray:none;stroke-opacity:1"
       transform="translate(490.23999,572.03991)"
       clip-path="url(#clipPath8)" />
  </g>
</svg>
