<?xml version="1.0" encoding="UTF-8" standalone="no"?>
<!-- Created with Inkscape (http://www.inkscape.org/) -->

<svg
   version="1.1"
   id="svg1"
   width="445.57333"
   height="363.05334"
   viewBox="0 0 445.57333 363.05334"
   sodipodi:docname="Coal.pdf"
   xmlns:inkscape="http://www.inkscape.org/namespaces/inkscape"
   xmlns:sodipodi="http://sodipodi.sourceforge.net/DTD/sodipodi-0.dtd"
   xmlns="http://www.w3.org/2000/svg"
   xmlns:svg="http://www.w3.org/2000/svg">
  <defs
     id="defs1">
    <clipPath
       clipPathUnits="userSpaceOnUse"
       id="clipPath2">
      <path
         d="M 0,0.16 V 1122.5601 H 793.59998 V 0.16 Z"
         transform="translate(-585.59998,-669.76001)"
         clip-rule="evenodd"
         id="path2" />
    </clipPath>
    <clipPath
       clipPathUnits="userSpaceOnUse"
       id="clipPath4">
      <path
         d="M 0,0.16 V 1122.5601 H 793.59998 V 0.16 Z"
         clip-rule="evenodd"
         id="path4" />
    </clipPath>
    <clipPath
       clipPathUnits="userSpaceOnUse"
       id="clipPath6">
      <path
         d="M 0,0.16 V 1122.5601 H 793.59998 V 0.16 Z"
         transform="translate(-234.56,-706.08002)"
         clip-rule="evenodd"
         id="path6" />
    </clipPath>
    <clipPath
       clipPathUnits="userSpaceOnUse"
       id="clipPath8">
      <path
         d="M 0,0.16 V 1122.5601 H 793.59998 V 0.16 Z"
         transform="translate(-423.35999,-706.08002)"
         clip-rule="evenodd"
         id="path8" />
    </clipPath>
    <clipPath
       clipPathUnits="userSpaceOnUse"
       id="clipPath10">
      <path
         d="M 0,0.16 V 1122.5601 H 793.59998 V 0.16 Z"
         transform="translate(-612,-706.08002)"
         clip-rule="evenodd"
         id="path10" />
    </clipPath>
    <clipPath
       clipPathUnits="userSpaceOnUse"
       id="clipPath12">
      <path
         d="M 0,0.16 V 1122.5601 H 793.59998 V 0.16 Z"
         transform="translate(-234.56,-706.08002)"
         clip-rule="evenodd"
         id="path12" />
    </clipPath>
    <clipPath
       clipPathUnits="userSpaceOnUse"
       id="clipPath14">
      <path
         d="M 0,0.16 V 1122.5601 H 793.59998 V 0.16 Z"
         transform="translate(-423.35999,-706.08002)"
         clip-rule="evenodd"
         id="path14" />
    </clipPath>
    <clipPath
       clipPathUnits="userSpaceOnUse"
       id="clipPath16">
      <path
         d="M 0,0.16 V 1122.5601 H 793.59998 V 0.16 Z"
         transform="translate(-612,-706.08002)"
         clip-rule="evenodd"
         id="path16" />
    </clipPath>
  </defs>
  <sodipodi:namedview
     id="namedview1"
     pagecolor="#505050"
     bordercolor="#eeeeee"
     borderopacity="1"
     inkscape:showpageshadow="0"
     inkscape:pageopacity="0"
     inkscape:pagecheckerboard="0"
     inkscape:deskcolor="#505050">
    <inkscape:page
       x="0"
       y="0"
       inkscape:label="1"
       id="page1"
       width="445.57333"
       height="363.05334"
       margin="0"
       bleed="0" />
  </sodipodi:namedview>
  <g
     id="g1"
     inkscape:groupmode="layer"
     inkscape:label="1">
    <path
       id="path1"
       d="m 0,0 -0.16,-11.52 -0.48,-11.680001 -0.8,-11.52 L -2.72,-46.080002 -4.16,-57.439999 -6.08,-68.800003 -8.16,-80 -10.72,-91.040001 -13.6,-101.76 -16.799999,-112.48 -20.16,-122.88 -24,-133.11999 -28,-143.2 l -4.32,-9.76001 -4.639999,-9.43998 -4.959999,-9.12001 -5.120003,-8.96 -5.439999,-8.48001 -5.600002,-8.15998 -5.919998,-7.84002 -6.080002,-7.51999 -6.400001,-7.04 -6.559998,-6.72 -6.720001,-6.4 -6.879997,-5.75999 -7.040001,-5.44001 -7.36,-5.12001 -7.36,-4.47999 -7.52,-4.16001 -7.52,-3.51999 -7.67999,-3.20001 -7.84002,-2.72 -7.83999,-2.23999 -8,-1.6 -8,-1.28 -8,-0.79999 -8,-0.16001 -8,0.16001 -8,0.79999 -8,1.28 -7.84,1.6 -7.84,2.23999 -7.84001,2.72 -7.67999,3.20001 -7.67999,3.51999 -7.52002,4.16001 -7.35999,4.47999 -7.20001,5.12001 -7.03998,5.44001 -6.88,5.75999 -6.72,6.4 -6.56,6.72 -6.4,7.04 -6.08001,7.51999 -5.91999,7.84002 -5.76001,8.15998 -5.27999,8.48001 -5.28,8.96 -4.80002,9.12001 -4.63999,9.43998 -4.32,9.76001 -4.16001,10.08001 -3.67999,10.23999 -3.51999,10.4 -3.20001,10.72 -2.72,10.719999 -2.56,11.040001 -2.23999,11.199997 -1.76001,11.360004 -1.6,11.359997 -1.12,11.360001 -0.79999,11.52 L -377.44,-11.52 -377.60001,0"
       style="fill:none;stroke:#000000;stroke-width:26.4;stroke-linecap:round;stroke-linejoin:round;stroke-miterlimit:10;stroke-dasharray:none;stroke-opacity:1"
       transform="translate(410.83998,294.67995)"
       clip-path="url(#clipPath2)" />
    <path
       id="path3"
       d="m 396.79999,396.64001 -18.87998,136.64002 18.87998,136.47998 18.88,-136.47998 -18.88,-136.64002"
       style="fill:none;stroke:#000000;stroke-width:26.4;stroke-linecap:round;stroke-linejoin:round;stroke-miterlimit:10;stroke-dasharray:none;stroke-opacity:1"
       transform="translate(-174.76,-375.08006)"
       clip-path="url(#clipPath4)" />
    <path
       id="path5"
       d="m 0,0 -0.16,-2.72 -0.48,-2.88 -0.8,-2.56 -0.96,-2.56 -1.28,-2.56 -1.44,-2.24 -1.76,-2.24 -1.92,-1.92 -2.24,-1.760001 -2.24,-1.439998 L -15.68,-24.16 -18.4,-25.120001 -20.959999,-25.92 -23.68,-26.24 -26.559999,-26.4 -29.280001,-26.24 -32,-25.92 -34.720001,-25.120001 -37.279999,-24.16 -39.68,-22.879999 -42.080002,-21.440001 -44.16,-19.68 l -1.920002,1.92 -1.759998,2.24 -1.599999,2.24 -1.280002,2.56 -0.959999,2.56 -0.64,2.56 -0.479999,2.88 -0.16,2.72 0.16,2.72 0.479999,2.72 0.64,2.72 0.959999,2.56 1.280002,2.4 1.599999,2.4 1.759998,2.08 1.920002,2.08 2.079998,1.600001 2.400002,1.599998 2.400001,1.280001 2.559998,0.960001 L -32,25.76 l 2.719999,0.48 2.720002,0.16 L -23.68,26.24 -20.959999,25.76 -18.4,25.120001 -15.68,24.16 l 2.4,-1.280001 2.24,-1.599998 2.24,-1.600001 1.92,-2.08 1.76,-2.08 1.44,-2.4 1.28,-2.4 0.96,-2.56 0.8,-2.72 L -0.16,2.72 0,0 v 0 z"
       style="fill:#000000;fill-opacity:1;fill-rule:evenodd;stroke:none"
       transform="translate(59.799998,330.99996)"
       clip-path="url(#clipPath6)" />
    <path
       id="path7"
       d="m 0,0 -0.16,-2.72 -0.48,-2.88 -0.8,-2.56 -0.96,-2.56 -1.28,-2.56 -1.44,-2.24 -1.76,-2.24 -1.92,-1.92 -2.24,-1.760001 -2.24,-1.439998 L -15.68,-24.16 -18.4,-25.120001 -20.959999,-25.92 -23.68,-26.24 -26.559999,-26.4 -29.280001,-26.24 -32,-25.92 -34.720001,-25.120001 -37.279999,-24.16 -39.68,-22.879999 -42.080002,-21.440001 -44.16,-19.68 l -1.920002,1.92 -1.759998,2.24 -1.599999,2.24 -1.280002,2.56 -0.959999,2.56 -0.64,2.56 -0.479999,2.88 -0.16,2.72 0.16,2.72 0.479999,2.72 0.64,2.72 0.959999,2.56 1.280002,2.4 1.599999,2.4 1.759998,2.08 1.920002,2.08 2.079998,1.600001 2.400002,1.599998 2.400001,1.280001 2.559998,0.960001 L -32,25.76 l 2.719999,0.48 2.720002,0.16 L -23.68,26.24 -20.959999,25.76 -18.4,25.120001 -15.68,24.16 l 2.4,-1.280001 2.24,-1.599998 2.24,-1.600001 1.92,-2.08 1.76,-2.08 1.44,-2.4 1.28,-2.4 0.96,-2.56 0.8,-2.72 L -0.16,2.72 0,0 v 0 z"
       style="fill:#000000;fill-opacity:1;fill-rule:evenodd;stroke:none"
       transform="translate(248.59999,330.99996)"
       clip-path="url(#clipPath8)" />
    <path
       id="path9"
       d="m 0,0 v -2.72 l -0.48,-2.88 -0.8,-2.56 -0.96,-2.56 -1.28,-2.56 -1.44,-2.24 -1.76,-2.24 -1.92,-1.92 -2.24,-1.760001 -2.24,-1.439998 -2.56,-1.280001 -2.56,-0.960001 -2.559999,-0.799999 -2.720001,-0.32 -2.88,-0.16 -2.720001,0.16 -2.719999,0.32 -2.720001,0.799999 -2.559998,0.960001 -2.400001,1.280001 -2.399998,1.439998 L -44,-19.68 l -2.080002,1.92 -1.599998,2.24 -1.599999,2.24 -1.280002,2.56 -0.959999,2.56 -0.64,2.56 -0.479999,2.88 -0.16,2.72 0.16,2.72 0.479999,2.72 0.64,2.72 0.959999,2.56 1.280002,2.4 1.599999,2.4 1.599998,2.08 L -44,19.68 -41.919998,21.280001 -39.52,22.879999 -37.119999,24.16 -34.560001,25.120001 -31.84,25.76 l 2.719999,0.48 2.720001,0.16 2.88,-0.16 2.720001,-0.48 2.559999,-0.639999 2.56,-0.960001 2.56,-1.280001 2.24,-1.599998 2.24,-1.600001 1.92,-2.08 1.76,-2.08 1.44,-2.4 1.28,-2.4 0.96,-2.56 0.8,-2.72 L 0,2.72 V 0 0 Z"
       style="fill:#000000;fill-opacity:1;fill-rule:evenodd;stroke:none"
       transform="translate(437.24,330.99996)"
       clip-path="url(#clipPath10)" />
    <path
       id="path11"
       d="m 0,0 -0.16,-2.72 -0.48,-2.88 -0.8,-2.56 -0.96,-2.56 -1.28,-2.56 -1.44,-2.24 -1.76,-2.24 -1.92,-1.92 -2.24,-1.760001 -2.24,-1.439998 L -15.68,-24.16 -18.4,-25.120001 -20.959999,-25.92 -23.68,-26.24 -26.559999,-26.4 -29.280001,-26.24 -32,-25.92 -34.720001,-25.120001 -37.279999,-24.16 -39.68,-22.879999 -42.080002,-21.440001 -44.16,-19.68 l -1.920002,1.92 -1.759998,2.24 -1.599999,2.24 -1.280002,2.56 -0.959999,2.56 -0.64,2.56 -0.479999,2.88 -0.16,2.72 0.16,2.72 0.479999,2.72 0.64,2.72 0.959999,2.56 1.280002,2.4 1.599999,2.4 1.759998,2.08 1.920002,2.08 2.079998,1.600001 2.400002,1.599998 2.400001,1.280001 2.559998,0.960001 L -32,25.76 l 2.719999,0.48 2.720002,0.16 L -23.68,26.24 -20.959999,25.76 -18.4,25.120001 -15.68,24.16 l 2.4,-1.280001 2.24,-1.599998 2.24,-1.600001 1.92,-2.08 1.76,-2.08 1.44,-2.4 1.28,-2.4 0.96,-2.56 0.8,-2.72 L -0.16,2.72 0,0"
       style="fill:none;stroke:#000000;stroke-width:0.64;stroke-linecap:round;stroke-linejoin:round;stroke-miterlimit:10;stroke-dasharray:none;stroke-opacity:1"
       transform="translate(59.799998,330.99996)"
       clip-path="url(#clipPath12)" />
    <path
       id="path13"
       d="m 0,0 -0.16,-2.72 -0.48,-2.88 -0.8,-2.56 -0.96,-2.56 -1.28,-2.56 -1.44,-2.24 -1.76,-2.24 -1.92,-1.92 -2.24,-1.760001 -2.24,-1.439998 L -15.68,-24.16 -18.4,-25.120001 -20.959999,-25.92 -23.68,-26.24 -26.559999,-26.4 -29.280001,-26.24 -32,-25.92 -34.720001,-25.120001 -37.279999,-24.16 -39.68,-22.879999 -42.080002,-21.440001 -44.16,-19.68 l -1.920002,1.92 -1.759998,2.24 -1.599999,2.24 -1.280002,2.56 -0.959999,2.56 -0.64,2.56 -0.479999,2.88 -0.16,2.72 0.16,2.72 0.479999,2.72 0.64,2.72 0.959999,2.56 1.280002,2.4 1.599999,2.4 1.759998,2.08 1.920002,2.08 2.079998,1.600001 2.400002,1.599998 2.400001,1.280001 2.559998,0.960001 L -32,25.76 l 2.719999,0.48 2.720002,0.16 L -23.68,26.24 -20.959999,25.76 -18.4,25.120001 -15.68,24.16 l 2.4,-1.280001 2.24,-1.599998 2.24,-1.600001 1.92,-2.08 1.76,-2.08 1.44,-2.4 1.28,-2.4 0.96,-2.56 0.8,-2.72 L -0.16,2.72 0,0"
       style="fill:none;stroke:#000000;stroke-width:0.64;stroke-linecap:round;stroke-linejoin:round;stroke-miterlimit:10;stroke-dasharray:none;stroke-opacity:1"
       transform="translate(248.59999,330.99996)"
       clip-path="url(#clipPath14)" />
    <path
       id="path15"
       d="m 0,0 v -2.72 l -0.48,-2.88 -0.8,-2.56 -0.96,-2.56 -1.28,-2.56 -1.44,-2.24 -1.76,-2.24 -1.92,-1.92 -2.24,-1.760001 -2.24,-1.439998 -2.56,-1.280001 -2.56,-0.960001 -2.559999,-0.799999 -2.720001,-0.32 -2.88,-0.16 -2.720001,0.16 -2.719999,0.32 -2.720001,0.799999 -2.559998,0.960001 -2.400001,1.280001 -2.399998,1.439998 L -44,-19.68 l -2.080002,1.92 -1.599998,2.24 -1.599999,2.24 -1.280002,2.56 -0.959999,2.56 -0.64,2.56 -0.479999,2.88 -0.16,2.72 0.16,2.72 0.479999,2.72 0.64,2.72 0.959999,2.56 1.280002,2.4 1.599999,2.4 1.599998,2.08 L -44,19.68 -41.919998,21.280001 -39.52,22.879999 -37.119999,24.16 -34.560001,25.120001 -31.84,25.76 l 2.719999,0.48 2.720001,0.16 2.88,-0.16 2.720001,-0.48 2.559999,-0.639999 2.56,-0.960001 2.56,-1.280001 2.24,-1.599998 2.24,-1.600001 1.92,-2.08 1.76,-2.08 1.44,-2.4 1.28,-2.4 0.96,-2.56 0.8,-2.72 L 0,2.72 V 0"
       style="fill:none;stroke:#000000;stroke-width:0.64;stroke-linecap:round;stroke-linejoin:round;stroke-miterlimit:10;stroke-dasharray:none;stroke-opacity:1"
       transform="translate(437.24,330.99996)"
       clip-path="url(#clipPath16)" />
  </g>
</svg>
