<?xml version="1.0" encoding="UTF-8" standalone="no"?>
<!-- Created with Inkscape (http://www.inkscape.org/) -->

<svg
   version="1.1"
   id="svg1"
   width="212.12"
   height="244.26666"
   viewBox="0 0 212.12 244.26666"
   sodipodi:docname="Crystallus4.pdf"
   xmlns:inkscape="http://www.inkscape.org/namespaces/inkscape"
   xmlns:sodipodi="http://sodipodi.sourceforge.net/DTD/sodipodi-0.dtd"
   xmlns="http://www.w3.org/2000/svg"
   xmlns:svg="http://www.w3.org/2000/svg">
  <defs
     id="defs1">
    <clipPath
       clipPathUnits="userSpaceOnUse"
       id="clipPath2">
      <path
         d="M 0,0.16 V 1122.5601 H 793.59998 V 0.16 Z"
         transform="translate(-353.44,-392)"
         clip-rule="evenodd"
         id="path2" />
    </clipPath>
    <clipPath
       clipPathUnits="userSpaceOnUse"
       id="clipPath4">
      <path
         d="M 0,0.16 V 1122.5601 H 793.59998 V 0.16 Z"
         transform="translate(-3.3333333e-6)"
         clip-rule="evenodd"
         id="path4" />
    </clipPath>
    <clipPath
       clipPathUnits="userSpaceOnUse"
       id="clipPath6">
      <path
         d="M 0,0.16 V 1122.5601 H 793.59998 V 0.16 Z"
         transform="translate(-3.3333333e-6)"
         clip-rule="evenodd"
         id="path6" />
    </clipPath>
    <clipPath
       clipPathUnits="userSpaceOnUse"
       id="clipPath8">
      <path
         d="M 0,0.16 V 1122.5601 H 793.59998 V 0.16 Z"
         transform="translate(-3.3333333e-6)"
         clip-rule="evenodd"
         id="path8" />
    </clipPath>
    <clipPath
       clipPathUnits="userSpaceOnUse"
       id="clipPath10">
      <path
         d="M 0,0.16 V 1122.5601 H 793.59998 V 0.16 Z"
         transform="translate(-390.55999,-504.32001)"
         clip-rule="evenodd"
         id="path10" />
    </clipPath>
    <clipPath
       clipPathUnits="userSpaceOnUse"
       id="clipPath12">
      <path
         d="M 0,0.16 V 1122.5601 H 793.59998 V 0.16 Z"
         transform="translate(-447.83999,-448.64002)"
         clip-rule="evenodd"
         id="path12" />
    </clipPath>
  </defs>
  <sodipodi:namedview
     id="namedview1"
     pagecolor="#505050"
     bordercolor="#eeeeee"
     borderopacity="1"
     inkscape:showpageshadow="0"
     inkscape:pageopacity="0"
     inkscape:pagecheckerboard="0"
     inkscape:deskcolor="#505050">
    <inkscape:page
       x="0"
       y="0"
       inkscape:label="1"
       id="page1"
       width="212.12"
       height="244.26666"
       margin="0"
       bleed="0" />
  </sodipodi:namedview>
  <g
     id="g1"
     inkscape:groupmode="layer"
     inkscape:label="1">
    <path
       id="path1"
       d="M 0,0 -4.32,0.16 -8.8,0.64 -13.12,1.6 -17.440001,2.72 -21.6,4.32 l -4,1.76 -4,2.24 -3.679999,2.4 -3.36,2.88 L -40,16.48 l -3.040001,3.36 -2.719997,3.520001 -2.400002,3.68 -2.240002,3.839998 -1.919998,4.000002 -1.439998,4.16 -1.280003,4.32 L -55.84,47.68 l -0.48,4.48 -0.319999,4.479999 0.319999,4.32 0.48,4.480003 0.799999,4.32 1.280003,4.32 1.439998,4.159996 1.919998,4 2.240002,4 2.400002,3.68 2.719997,3.520004 L -40,96.639999 -36.639999,99.68 l 3.36,2.72 3.679999,2.56 4,2.08 4,1.92 4.159999,1.44 4.320001,1.28 4.32,0.8 4.48,0.64 4.32,0.16"
       style="fill:none;stroke:#000000;stroke-width:26.4;stroke-linecap:round;stroke-linejoin:round;stroke-miterlimit:10;stroke-dasharray:none;stroke-opacity:1"
       transform="translate(97.306669,110.35994)"
       clip-path="url(#clipPath2)" />
    <path
       id="path3"
       d="M 353.44,392 V 316.48001"
       style="fill:none;stroke:#000000;stroke-width:26.4;stroke-linecap:round;stroke-linejoin:round;stroke-miterlimit:10;stroke-dasharray:none;stroke-opacity:1"
       transform="translate(-256.13333,-281.64006)"
       clip-path="url(#clipPath4)" />
    <path
       id="path5"
       d="M 277.92001,316.48001 H 428.95999"
       style="fill:none;stroke:#000000;stroke-width:26.4;stroke-linecap:round;stroke-linejoin:round;stroke-miterlimit:10;stroke-dasharray:none;stroke-opacity:1"
       transform="translate(-256.13333,-281.64006)"
       clip-path="url(#clipPath6)" />
    <path
       id="path7"
       d="m 353.44,505.28 h 37.76001"
       style="fill:none;stroke:#000000;stroke-width:26.4;stroke-linecap:round;stroke-linejoin:round;stroke-miterlimit:10;stroke-dasharray:none;stroke-opacity:1"
       transform="translate(-256.13333,-281.64006)"
       clip-path="url(#clipPath8)" />
    <path
       id="path9"
       d="M 0,0 4.48,-0.16 8.8,-0.64 13.12,-1.6 17.440001,-2.72 21.6,-4.32 l 4,-1.76 4,-2.24 3.679999,-2.4 3.52,-2.88 L 40,-16.639999 43.040001,-19.84 l 2.719997,-3.520001 2.560002,-3.68 2.080002,-3.839998 1.919998,-4.000002 1.439998,-4.16 1.280003,-4.32 L 55.84,-47.68 l 0.64,-4.48 0.159999,-4.479999"
       style="fill:none;stroke:#000000;stroke-width:26.4;stroke-linecap:round;stroke-linejoin:round;stroke-miterlimit:10;stroke-dasharray:none;stroke-opacity:1"
       transform="translate(134.42666,222.67995)"
       clip-path="url(#clipPath10)" />
    <path
       id="path11"
       d="m 0,0 -0.16,-2.4 -0.32,-2.24 -0.64,-2.08 -0.96,-2.08 -1.28,-2.08 -1.44,-1.76 -1.6,-1.6 -1.76,-1.44 -2.08,-1.119999 -2.08,-0.960001 -2.08,-0.64 -2.239999,-0.479999 h -2.400002 l -2.24,0.16 L -23.52,-18.4 l -2.24,0.8 -2.08,0.960001 -1.92,1.279999 -1.76,1.44 -1.599999,1.6 -1.440002,1.76 -1.119999,2.08 -0.959999,2.08 -0.64,2.24 -0.319999,2.24 -0.16,2.24 0.319999,2.24 0.32,2.24 0.799999,2.24 0.959999,2.08 1.279999,1.92 1.440003,1.76"
       style="fill:none;stroke:#000000;stroke-width:26.4;stroke-linecap:round;stroke-linejoin:round;stroke-miterlimit:10;stroke-dasharray:none;stroke-opacity:1"
       transform="translate(191.70666,166.99996)"
       clip-path="url(#clipPath12)" />
  </g>
</svg>
