<?xml version="1.0" encoding="UTF-8" standalone="no"?>
<!-- Created with Inkscape (http://www.inkscape.org/) -->

<svg
   version="1.1"
   id="svg1"
   width="278.81332"
   height="264.28"
   viewBox="0 0 278.81332 264.28"
   sodipodi:docname="Crystallus9.pdf"
   xmlns:inkscape="http://www.inkscape.org/namespaces/inkscape"
   xmlns:sodipodi="http://sodipodi.sourceforge.net/DTD/sodipodi-0.dtd"
   xmlns="http://www.w3.org/2000/svg"
   xmlns:svg="http://www.w3.org/2000/svg">
  <defs
     id="defs1">
    <clipPath
       clipPathUnits="userSpaceOnUse"
       id="clipPath2">
      <path
         d="M 0,0.16 V 1122.5601 H 793.59998 V 0.16 Z"
         transform="translate(-353.44,-335.35999)"
         clip-rule="evenodd"
         id="path2" />
    </clipPath>
    <clipPath
       clipPathUnits="userSpaceOnUse"
       id="clipPath4">
      <path
         d="M 0,0.16 V 1122.5601 H 793.59998 V 0.16 Z"
         clip-rule="evenodd"
         id="path4" />
    </clipPath>
    <clipPath
       clipPathUnits="userSpaceOnUse"
       id="clipPath6">
      <path
         d="M 0,0.16 V 1122.5601 H 793.59998 V 0.16 Z"
         clip-rule="evenodd"
         id="path6" />
    </clipPath>
  </defs>
  <sodipodi:namedview
     id="namedview1"
     pagecolor="#505050"
     bordercolor="#eeeeee"
     borderopacity="1"
     inkscape:showpageshadow="0"
     inkscape:pageopacity="0"
     inkscape:pagecheckerboard="0"
     inkscape:deskcolor="#505050">
    <inkscape:page
       x="0"
       y="0"
       inkscape:label="1"
       id="page1"
       width="278.81332"
       height="264.28"
       margin="0"
       bleed="0" />
  </sodipodi:namedview>
  <g
     id="g1"
     inkscape:groupmode="layer"
     inkscape:label="1">
    <path
       id="path1"
       d="M 0,0 -6.72,0.16 -13.6,0.8 -20.32,1.76 -27.040001,3.2 -33.599998,5.12 -40,7.36 -46.400002,9.92 -52.48,12.96 l -6.080001,3.36 -5.600003,3.68 -5.599998,4 -5.279999,4.32 L -80,33.119999 l -4.639999,4.960003 -4.480004,5.279999 -4,5.439998 -3.68,5.760002 L -100.16,60.48 l -3.04,6.079998 -2.56,6.400001 -2.24,6.400002 -1.92,6.559997 -1.44,6.720001 -0.96,6.720002 -0.64,6.879999 -0.32,6.88 0.32,6.72 0.48,6.88 1.12,6.72 1.44,6.72 1.76,6.56 2.24,6.56 2.56,6.24 3.04,6.23999 3.360001,5.92 3.68,5.76001 4,5.44 4.479996,5.28 4.639999,4.95999 4.960007,4.80001 5.279999,4.32 5.439995,4 5.760002,3.84 5.920002,3.36 6.079998,3.04 6.400001,2.55999 6.400002,2.24001 6.559997,1.92 6.720002,1.44 6.719999,0.96001 6.88,0.63999 6.72,0.32 6.88,-0.32 6.88,-0.48001 6.72,-1.11999 6.719999,-1.28 6.56,-1.92 6.400001,-2.24 6.400002,-2.56 6.079998,-2.88001 6.080002,-3.36"
       style="fill:none;stroke:#000000;stroke-width:26.4;stroke-linecap:round;stroke-linejoin:round;stroke-miterlimit:10;stroke-dasharray:none;stroke-opacity:1"
       transform="translate(353.44,566.27993)"
       clip-path="url(#clipPath2)" />
    <path
       id="path3"
       d="M 353.44,335.35999 H 466.72 V 373.12 l -51.04001,172.79998"
       style="fill:none;stroke:#000000;stroke-width:26.4;stroke-linecap:round;stroke-linejoin:round;stroke-miterlimit:10;stroke-dasharray:none;stroke-opacity:1"
       transform="translate(0,230.91994)"
       clip-path="url(#clipPath4)" />
    <path
       id="path5"
       d="M 315.67999,486.39999 H 353.44 l 75.51999,75.51999 H 466.72"
       style="fill:none;stroke:#000000;stroke-width:26.4;stroke-linecap:round;stroke-linejoin:round;stroke-miterlimit:10;stroke-dasharray:none;stroke-opacity:1"
       transform="translate(0,230.91994)"
       clip-path="url(#clipPath6)" />
  </g>
</svg>
