<?xml version="1.0" encoding="UTF-8" standalone="no"?>
<!-- Created with Inkscape (http://www.inkscape.org/) -->

<svg
   version="1.1"
   id="svg1"
   width="364.20001"
   height="270.95999"
   viewBox="0 0 364.20001 270.95999"
   sodipodi:docname="Crystallus3.pdf"
   xmlns:inkscape="http://www.inkscape.org/namespaces/inkscape"
   xmlns:sodipodi="http://sodipodi.sourceforge.net/DTD/sodipodi-0.dtd"
   xmlns="http://www.w3.org/2000/svg"
   xmlns:svg="http://www.w3.org/2000/svg">
  <defs
     id="defs1">
    <clipPath
       clipPathUnits="userSpaceOnUse"
       id="clipPath2">
      <path
         d="M 0,0.16 V 1122.5601 H 793.59998 V 0.16 Z"
         transform="translate(-353.44,-335.35998)"
         clip-rule="evenodd"
         id="path2" />
    </clipPath>
    <clipPath
       clipPathUnits="userSpaceOnUse"
       id="clipPath4">
      <path
         d="M 0,0.16 V 1122.5601 H 793.59998 V 0.16 Z"
         clip-rule="evenodd"
         id="path4" />
    </clipPath>
    <clipPath
       clipPathUnits="userSpaceOnUse"
       id="clipPath6">
      <path
         d="M 0,0.16 V 1122.5601 H 793.59998 V 0.16 Z"
         clip-rule="evenodd"
         id="path6" />
    </clipPath>
    <clipPath
       clipPathUnits="userSpaceOnUse"
       id="clipPath8">
      <path
         d="M 0,0.16 V 1122.5601 H 793.59998 V 0.16 Z"
         clip-rule="evenodd"
         id="path8" />
    </clipPath>
  </defs>
  <sodipodi:namedview
     id="namedview1"
     pagecolor="#505050"
     bordercolor="#eeeeee"
     borderopacity="1"
     inkscape:showpageshadow="0"
     inkscape:pageopacity="0"
     inkscape:pagecheckerboard="0"
     inkscape:deskcolor="#505050">
    <inkscape:page
       x="0"
       y="0"
       inkscape:label="1"
       id="page1"
       width="364.20001"
       height="270.95999"
       margin="0"
       bleed="0" />
  </sodipodi:namedview>
  <g
     id="g1"
     inkscape:groupmode="layer"
     inkscape:label="1">
    <path
       id="path1"
       d="m 0,0 -6.72,0.16 -6.88,0.64 -6.72,0.96 -6.720001,1.44 -6.559997,1.92 -6.560002,2.24 -6.240002,2.56 -6.239997,3.04 -5.920002,3.36 L -64.32,20 l -5.440002,4.16 -5.279999,4.32 -5.120003,4.639999 -4.639999,5.120003 -4.32,5.279998 -4.159996,5.439999 -3.68,5.760002 -3.360001,5.919998 -2.88,6.239998 -2.72,6.240006 -2.24,6.559997 -1.76,6.559998 -1.44,6.720001 -0.96,6.720001 -0.64,6.88 -0.32,6.88 0.32,6.72 0.64,6.88 0.96,6.71999 1.44,6.72001 1.92,6.55999 2.24,6.56002 2.56,6.23999 3.04,6.24 3.359997,5.92 3.68,5.75999 4.160004,5.44001 4.32,5.28 4.800003,4.96 4.959999,4.8 5.279999,4.32 5.439994,4 5.760002,3.68 6.080002,3.36001 6.079998,3.03999 6.400002,2.56 6.400001,2.24 6.72,1.76 6.559999,1.44 6.88,1.11999 6.72,0.48001 6.88,0.32 6.88,-0.32 6.88,-0.63999 6.719999,-0.96001 6.720001,-1.44 6.560002,-1.92 6.399998,-2.24001 6.400001,-2.71998 6.079998,-2.88001 5.920002,-3.52 5.759998,-3.68 5.599999,-4 5.120003,-4.48001 5.120002,-4.64 4.64,-5.11999 4.319999,-5.12 4,-5.6 3.680001,-5.76"
       style="fill:none;stroke:#000000;stroke-width:26.4;stroke-linecap:round;stroke-linejoin:round;stroke-miterlimit:10;stroke-dasharray:none;stroke-opacity:1"
       transform="translate(133.32,20.346593)"
       clip-path="url(#clipPath2)" />
    <path
       id="path3"
       d="m 353.44,335.35999 h 75.51999"
       style="fill:none;stroke:#000000;stroke-width:26.4;stroke-linecap:round;stroke-linejoin:round;stroke-miterlimit:10;stroke-dasharray:none;stroke-opacity:1"
       transform="translate(-220.12,-315.01339)"
       clip-path="url(#clipPath4)" />
    <path
       id="path5"
       d="M 410.07999,448.64001 H 561.12"
       style="fill:none;stroke:#000000;stroke-width:26.4;stroke-linecap:round;stroke-linejoin:round;stroke-miterlimit:10;stroke-dasharray:none;stroke-opacity:1"
       transform="translate(-220.12,-315.01339)"
       clip-path="url(#clipPath6)" />
    <path
       id="path7"
       d="M 485.60001,373.12 V 524.15997"
       style="fill:none;stroke:#000000;stroke-width:26.4;stroke-linecap:round;stroke-linejoin:round;stroke-miterlimit:10;stroke-dasharray:none;stroke-opacity:1"
       transform="translate(-220.12,-315.01339)"
       clip-path="url(#clipPath8)" />
  </g>
</svg>
