<?xml version="1.0" encoding="UTF-8" standalone="no"?>
<!-- Created with Inkscape (http://www.inkscape.org/) -->

<svg
   version="1.1"
   id="svg1"
   width="284.14667"
   height="254.94667"
   viewBox="0 0 284.14667 254.94667"
   sodipodi:docname="IronOre2.pdf"
   xmlns:inkscape="http://www.inkscape.org/namespaces/inkscape"
   xmlns:sodipodi="http://sodipodi.sourceforge.net/DTD/sodipodi-0.dtd"
   xmlns="http://www.w3.org/2000/svg"
   xmlns:svg="http://www.w3.org/2000/svg">
  <defs
     id="defs1">
    <clipPath
       clipPathUnits="userSpaceOnUse"
       id="clipPath2">
      <path
         d="M 0,0.16 V 1122.5601 H 793.59998 V 0.16 Z"
         transform="translate(-389.44,-636.88)"
         clip-rule="evenodd"
         id="path2" />
    </clipPath>
    <clipPath
       clipPathUnits="userSpaceOnUse"
       id="clipPath4">
      <path
         d="M 0,0.16 V 1122.5601 H 793.59998 V 0.16 Z"
         clip-rule="evenodd"
         id="path4" />
    </clipPath>
    <clipPath
       clipPathUnits="userSpaceOnUse"
       id="clipPath6">
      <path
         d="M 0,0.16 V 1122.5601 H 793.59998 V 0.16 Z"
         clip-rule="evenodd"
         id="path6" />
    </clipPath>
    <clipPath
       clipPathUnits="userSpaceOnUse"
       id="clipPath8">
      <path
         d="M 0,0.16 V 1122.5601 H 793.59998 V 0.16 Z"
         clip-rule="evenodd"
         id="path8" />
    </clipPath>
    <clipPath
       clipPathUnits="userSpaceOnUse"
       id="clipPath10">
      <path
         d="M 0,0.16 V 1122.5601 H 793.59998 V 0.16 Z"
         transform="translate(-406.72,-700.96002)"
         clip-rule="evenodd"
         id="path10" />
    </clipPath>
  </defs>
  <sodipodi:namedview
     id="namedview1"
     pagecolor="#505050"
     bordercolor="#eeeeee"
     borderopacity="1"
     inkscape:showpageshadow="0"
     inkscape:pageopacity="0"
     inkscape:pagecheckerboard="0"
     inkscape:deskcolor="#505050">
    <inkscape:page
       x="0"
       y="0"
       inkscape:label="1"
       id="page1"
       width="284.14667"
       height="254.94667"
       margin="0"
       bleed="0" />
  </sodipodi:namedview>
  <g
     id="g1"
     inkscape:groupmode="layer"
     inkscape:label="1">
    <path
       id="path1"
       d="M 0,0 C 0,-37.59 -30.48,-68.080002 -68.080002,-68.080002 -105.68,-68.080002 -136.16,-37.59 -136.16,0 c 0,37.59 30.48,68.080002 68.079998,68.080002 C -30.48,68.080002 0,37.59 0,0 Z"
       style="fill:none;stroke:#000000;stroke-width:18.88;stroke-linecap:round;stroke-linejoin:round;stroke-miterlimit:10;stroke-dasharray:none;stroke-opacity:1"
       transform="translate(389.44,578.14661)"
       clip-path="url(#clipPath2)" />
    <path
       id="path3"
       d="m 399.20001,559.03998 78.72,-78.71997"
       style="fill:none;stroke:#000000;stroke-width:18.88;stroke-linecap:round;stroke-linejoin:round;stroke-miterlimit:10;stroke-dasharray:none;stroke-opacity:1"
       transform="translate(0,-58.733392)"
       clip-path="url(#clipPath4)" />
    <path
       id="path5"
       d="m 440.16,480.32001 h 37.76001"
       style="fill:none;stroke:#000000;stroke-width:18.88;stroke-linecap:round;stroke-linejoin:round;stroke-miterlimit:10;stroke-dasharray:none;stroke-opacity:1"
       transform="translate(0,-58.733392)"
       clip-path="url(#clipPath6)" />
    <path
       id="path7"
       d="m 477.92001,480.32001 v 37.76001"
       style="fill:none;stroke:#000000;stroke-width:18.88;stroke-linecap:round;stroke-linejoin:round;stroke-miterlimit:10;stroke-dasharray:none;stroke-opacity:1"
       transform="translate(0,-58.733392)"
       clip-path="url(#clipPath8)" />
    <path
       id="path9"
       d="m 0,0 3.84,-5.44 3.52,-5.6 3.04,-5.919999 2.72,-6.080002 2.4,-6.24 2.08,-6.239999 1.440001,-6.560002 1.279999,-6.559997 0.639999,-6.560002 0.480002,-6.719997 -0.16,-6.560005 -0.480002,-6.719994 L 20,-81.760002 18.719999,-88.32 l -1.76,-6.400001 L 14.88,-100.96 l -2.56,-6.24 -2.88,-5.92 -3.2,-5.92 -3.52,-5.6 -4,-5.28 -4.32,-5.11999 -4.48,-4.80001 -4.8,-4.64 -5.28,-4.16 -5.280001,-3.84 -5.6,-3.68 -5.919998,-3.2 -5.920002,-2.72 -6.239998,-2.56 -6.400001,-2.08 -6.399998,-1.60001 -6.560005,-1.28 -6.559998,-0.79998 -6.559997,-0.48001 H -88.32 l -6.559997,0.32 -6.720003,0.80001 -6.56,1.27999 -6.4,1.6 -6.24,2.08 -6.24,2.40001 -6.07999,2.72 -5.92,3.19999 -5.60001,3.51999 -5.44,3.84002 -5.12,4.15998 -4.96,4.48001 -4.48,4.80001 -4.32001,5.11999 -4,5.28"
       style="fill:none;stroke:#000000;stroke-width:18.88;stroke-linecap:round;stroke-linejoin:round;stroke-miterlimit:10;stroke-dasharray:none;stroke-opacity:1"
       transform="translate(406.72,642.22663)"
       clip-path="url(#clipPath10)" />
  </g>
</svg>
