<?xml version="1.0" encoding="UTF-8" standalone="no"?>
<!-- Created with Inkscape (http://www.inkscape.org/) -->

<svg
   version="1.1"
   id="svg1"
   width="406.88"
   height="485.86667"
   viewBox="0 0 406.88 485.86667"
   sodipodi:docname="IronOre22.pdf"
   xmlns:inkscape="http://www.inkscape.org/namespaces/inkscape"
   xmlns:sodipodi="http://sodipodi.sourceforge.net/DTD/sodipodi-0.dtd"
   xmlns="http://www.w3.org/2000/svg"
   xmlns:svg="http://www.w3.org/2000/svg">
  <defs
     id="defs1">
    <clipPath
       clipPathUnits="userSpaceOnUse"
       id="clipPath2">
      <path
         d="M 0,0.16 V 1122.5601 H 793.59998 V 0.16 Z"
         clip-rule="evenodd"
         id="path2" />
    </clipPath>
    <clipPath
       clipPathUnits="userSpaceOnUse"
       id="clipPath4">
      <path
         d="M 0,0.16 V 1122.5601 H 793.59998 V 0.16 Z"
         clip-rule="evenodd"
         id="path4" />
    </clipPath>
    <clipPath
       clipPathUnits="userSpaceOnUse"
       id="clipPath6">
      <path
         d="M 0,0.16 V 1122.5601 H 793.59998 V 0.16 Z"
         clip-rule="evenodd"
         id="path6" />
    </clipPath>
    <clipPath
       clipPathUnits="userSpaceOnUse"
       id="clipPath8">
      <path
         d="M 0,0.16 V 1122.5601 H 793.59998 V 0.16 Z"
         transform="translate(-383.67999,-728.47998)"
         clip-rule="evenodd"
         id="path8" />
    </clipPath>
  </defs>
  <sodipodi:namedview
     id="namedview1"
     pagecolor="#505050"
     bordercolor="#eeeeee"
     borderopacity="1"
     inkscape:showpageshadow="0"
     inkscape:pageopacity="0"
     inkscape:pagecheckerboard="0"
     inkscape:deskcolor="#505050">
    <inkscape:page
       x="0"
       y="0"
       inkscape:label="1"
       id="page1"
       width="406.88"
       height="485.86667"
       margin="0"
       bleed="0" />
  </sodipodi:namedview>
  <g
     id="g1"
     inkscape:groupmode="layer"
     inkscape:label="1">
    <path
       id="path1"
       d="M 396.79999,341.92001 216.96001,653.44 h 359.68 L 396.79999,341.92001"
       style="fill:none;stroke:#000000;stroke-width:26.4;stroke-linecap:round;stroke-linejoin:round;stroke-miterlimit:10;stroke-dasharray:none;stroke-opacity:1"
       transform="translate(0,3.9999413)"
       clip-path="url(#clipPath2)" />
    <path
       id="path3"
       d="m 318.88,478.72 77.91999,174.72"
       style="fill:none;stroke:#000000;stroke-width:26.4;stroke-linecap:round;stroke-linejoin:round;stroke-miterlimit:10;stroke-dasharray:none;stroke-opacity:1"
       transform="translate(0,3.9999413)"
       clip-path="url(#clipPath4)" />
    <path
       id="path5"
       d="M 479.84,487.35999 396.79999,653.44"
       style="fill:none;stroke:#000000;stroke-width:26.4;stroke-linecap:round;stroke-linejoin:round;stroke-miterlimit:10;stroke-dasharray:none;stroke-opacity:1"
       transform="translate(0,3.9999413)"
       clip-path="url(#clipPath6)" />
    <path
       id="path7"
       d="m 0,0 -3.52,4.16 -3.2,4 L -9.44,12 -12,15.84 -14.08,19.52 -16,22.879999 -17.440001,26.24 -18.4,29.440001 -19.040001,32.48 l -0.32,2.880001 v 2.720001 L -18.879999,40.48 -18.08,42.720001 -16.799999,44.639999 -15.2,46.400002 -13.28,48 l 2.4,1.279999 2.56,1.120003 3.04,0.799999 L -1.92,51.84 1.76,52 5.6,52.16 9.92,52 14.4,51.52 19.200001,50.720001 24.16,49.759998 l 5.280001,-1.119999 5.44,-1.439998 L 40.48,45.599998 46.240002,43.68 52.16,41.439999 58.240002,39.200001 64.480003,36.639999 70.720001,33.919998 76.959999,30.879999 83.199997,27.84 89.599998,24.48 96,21.120001 l 6.24,-3.68 6.24,-3.680001 6.08,-3.84 6.08,-3.84 5.92,-4 5.76001,-4.16 5.75999,-4.16 5.44,-4.16 5.12,-4.32 5.11999,-4.159999 4.64,-4.320002 4.64,-4.16 L 167.2,-31.52 l 4,-4.16 3.52,-4.16 3.36,-4 3.03999,-3.84 2.56,-3.84 2.40001,-3.680001 1.92,-3.52 1.60001,-3.520001 1.11999,-3.2 0.8,-3.199997 0.48,-2.879998"
       style="fill:none;stroke:#000000;stroke-width:26.4;stroke-linecap:round;stroke-linejoin:round;stroke-miterlimit:10;stroke-dasharray:none;stroke-opacity:1"
       transform="translate(383.67999,732.47992)"
       clip-path="url(#clipPath8)" />
  </g>
</svg>
