<?xml version="1.0" encoding="UTF-8" standalone="no"?>
<!-- Created with Inkscape (http://www.inkscape.org/) -->

<svg
   version="1.1"
   id="svg1"
   width="506.93332"
   height="544.58667"
   viewBox="0 0 506.93332 544.58667"
   sodipodi:docname="LapisLazuli4.pdf"
   xmlns:inkscape="http://www.inkscape.org/namespaces/inkscape"
   xmlns:sodipodi="http://sodipodi.sourceforge.net/DTD/sodipodi-0.dtd"
   xmlns="http://www.w3.org/2000/svg"
   xmlns:svg="http://www.w3.org/2000/svg">
  <defs
     id="defs1">
    <clipPath
       clipPathUnits="userSpaceOnUse"
       id="clipPath2">
      <path
         d="M 0,0.16 V 1122.5601 H 793.59998 V 0.16 Z"
         transform="translate(-396.79999,-561.28003)"
         clip-rule="evenodd"
         id="path2" />
    </clipPath>
    <clipPath
       clipPathUnits="userSpaceOnUse"
       id="clipPath4">
      <path
         d="M 0,0.16 V 1122.5601 H 793.59998 V 0.16 Z"
         transform="translate(-396.79999,-561.28003)"
         clip-rule="evenodd"
         id="path4" />
    </clipPath>
    <clipPath
       clipPathUnits="userSpaceOnUse"
       id="clipPath6">
      <path
         d="M 0,0.16 V 1122.5601 H 793.59998 V 0.16 Z"
         transform="translate(-255.2,-636.79999)"
         clip-rule="evenodd"
         id="path6" />
    </clipPath>
    <clipPath
       clipPathUnits="userSpaceOnUse"
       id="clipPath8">
      <path
         d="M 0,0.16 V 1122.5601 H 793.59998 V 0.16 Z"
         transform="translate(-557.28003,-485.76001)"
         clip-rule="evenodd"
         id="path8" />
    </clipPath>
    <clipPath
       clipPathUnits="userSpaceOnUse"
       id="clipPath10">
      <path
         d="M 0,0.16 V 1122.5601 H 793.59998 V 0.16 Z"
         transform="translate(-255.2,-636.79999)"
         clip-rule="evenodd"
         id="path10" />
    </clipPath>
  </defs>
  <sodipodi:namedview
     id="namedview1"
     pagecolor="#505050"
     bordercolor="#eeeeee"
     borderopacity="1"
     inkscape:showpageshadow="0"
     inkscape:pageopacity="0"
     inkscape:pagecheckerboard="0"
     inkscape:deskcolor="#505050">
    <inkscape:page
       x="0"
       y="0"
       inkscape:label="1"
       id="page1"
       width="506.93332"
       height="544.58667"
       margin="0"
       bleed="0" />
  </sodipodi:namedview>
  <g
     id="g1"
     inkscape:groupmode="layer"
     inkscape:label="1">
    <path
       id="path1"
       d="m 0,0 5.12,-6.4 4.8,-6.56 4.32,-6.88 4.16,-7.200001 3.52,-7.360001 3.200001,-7.519996 2.879999,-7.68 2.4,-7.840001 1.92,-7.84 1.599998,-8.160003 0.960003,-8 0.639999,-8.159996 0.32,-8.160004 -0.32,-8.159998 -0.639999,-8.16 -1.120003,-8.16 -1.599998,-8 -1.92,-8 -2.4,-7.84 -2.880001,-7.67999 L 21.76,-161.28 l -3.68,-7.2 -4,-7.19999 -4.48,-6.88001 -4.8,-6.55999 -5.12,-6.40001 -5.44,-6.08001 -5.76,-5.75999 -6.24,-5.44 -6.24,-5.12 -6.719999,-4.8 -6.879999,-4.31999 -7.200001,-4 -7.360001,-3.68001 -7.52,-3.2 -7.680001,-2.88 -7.68,-2.4 -8,-1.91999 -8,-1.44001 -8.159996,-1.11999 -8.160003,-0.64002 -8.16,-0.31999 -8.16,0.31999 -8.16,0.64002 -8.16,1.11999 -8,1.59999 -8,1.92002 -7.67999,2.39999 -7.68001,2.88001 -7.52,3.19999 -7.36,3.68 -7.04,4 -6.88,4.48001 -6.72,4.79998 -6.4,5.12001 -6.08,5.44001 -5.75999,5.92 -5.44001,6.08"
       style="fill:none;stroke:#000000;stroke-width:26.4;stroke-linecap:round;stroke-linejoin:round;stroke-miterlimit:10;stroke-dasharray:none;stroke-opacity:1"
       transform="translate(396.79999,562.6133)"
       clip-path="url(#clipPath2)" />
    <path
       id="path3"
       d="m 0,0 -5.12,6.4 -4.64,6.72 -4.48,6.88 -4,7.040001 -3.68,7.360001 -3.200001,7.519996 -2.719999,7.68 -2.4,7.840001 -1.92,8.000003 -1.599998,8 -1.120003,8.159996 -0.639999,8.160004 -0.16,8.159996 0.16,8.160002 0.799999,8.16 1.120003,8 1.439998,8.15999 2.08,7.84001 2.4,7.84 2.880001,7.67999 3.199999,7.52001 3.68,7.36 4,7.03999 4.48,6.88001 4.8,6.72 5.12,6.24 5.44,6.08001 5.76,5.75999 6.08,5.44 6.4,5.12 6.719999,4.8 6.879999,4.48 7.040001,4 7.360001,3.52 7.52,3.2 7.680001,2.88 7.839996,2.4 8,1.91999 8,1.60001 8.160004,0.95999 8.159999,0.80001 8.16,0.16 8.16,-0.31999 8.16,-0.64002 8,-1.11999 8.16,-1.59999 7.84,-1.92002 7.84,-2.39999 7.68,-2.88001 7.51999,-3.19999 7.36,-3.68 7.04001,-4 6.88001,-4.48001 6.71998,-4.79998 6.24001,-5.12001 6.08,-5.44001 5.75999,-5.75999 5.44001,-6.08"
       style="fill:none;stroke:#000000;stroke-width:26.4;stroke-linecap:round;stroke-linejoin:round;stroke-miterlimit:10;stroke-dasharray:none;stroke-opacity:1"
       transform="translate(396.79999,562.6133)"
       clip-path="url(#clipPath4)" />
    <path
       id="path5"
       d="M 0,0 V -1.28 L -0.32,-2.72 -0.8,-3.84 -1.44,-5.12 -2.24,-6.24 -3.2,-7.04 -4.32,-8 -5.44,-8.64 -6.72,-9.12 -8,-9.28 l -1.44,-0.16 -1.28,0.16 -1.28,0.16 -1.28,0.48 -1.28,0.64 -0.96,0.96 -0.96,0.8 -0.800001,1.12 -0.639999,1.28 -0.48,1.12 -0.319999,1.44 -0.16,1.28 0.16,1.28 0.319999,1.44 0.48,1.28 0.639999,1.12 0.800001,1.12 0.96,0.96 0.96,0.8 1.28,0.64 1.28,0.48 1.28,0.16 1.28,0.16 L -8,9.28 -6.72,9.12 -5.44,8.64 -4.32,8 -3.2,7.2 -2.24,6.24 -1.44,5.12 -0.8,4 -0.32,2.72 0,1.28 V 0 0 Z"
       style="fill:#000000;fill-opacity:1;fill-rule:evenodd;stroke:none"
       transform="translate(255.2,638.13326)"
       clip-path="url(#clipPath6)" />
    <path
       id="path7"
       d="m 0,0 v -1.28 l -0.32,-1.28 -0.48,-1.28 -0.64,-1.28 -0.8,-0.96 -0.96,-0.96 -1.12,-0.8 -1.12,-0.8 -1.28,-0.32 -1.28,-0.32 -1.44,-0.16 -1.28,0.16 -1.28,0.32 -1.28,0.32 -1.28,0.8 -0.96,0.8 -0.96,0.96 -0.800001,0.96 -0.639999,1.28 -0.48,1.28 -0.319999,1.28 -0.16,1.28 0.16,1.44 0.319999,1.28 0.48,1.28 0.639999,1.12 0.800001,1.12 0.96,0.96 0.96,0.8 1.28,0.64 1.28,0.48 1.28,0.32 H -9.44 -8 L -6.72,9.12 -5.44,8.64 -4.32,8 -3.2,7.2 -2.24,6.24 -1.44,5.12 -0.8,4 -0.32,2.72 0,1.44 V 0 0 Z"
       style="fill:#000000;fill-opacity:1;fill-rule:evenodd;stroke:none"
       transform="translate(557.28003,487.09328)"
       clip-path="url(#clipPath8)" />
    <path
       id="path9"
       d="M 0,0 V -1.28 L -0.32,-2.72 -0.8,-3.84 -1.44,-5.12 -2.24,-6.24 -3.2,-7.04 -4.32,-8 -5.44,-8.64 -6.72,-9.12 -8,-9.28 l -1.44,-0.16 -1.28,0.16 -1.28,0.16 -1.28,0.48 -1.28,0.64 -0.96,0.96 -0.96,0.8 -0.800001,1.12 -0.639999,1.28 -0.48,1.12 -0.319999,1.44 -0.16,1.28 0.16,1.28 0.319999,1.44 0.48,1.28 0.639999,1.12 0.800001,1.12 0.96,0.96 0.96,0.8 1.28,0.64 1.28,0.48 1.28,0.16 1.28,0.16 L -8,9.28 -6.72,9.12 -5.44,8.64 -4.32,8 -3.2,7.2 -2.24,6.24 -1.44,5.12 -0.8,4 -0.32,2.72 0,1.28 V 0 m 302.07999,-151.03999 v -1.28002 l -0.31998,-1.28 -0.48001,-1.27999 -0.63999,-1.28 -0.80001,-0.95999 -0.96,-0.96001 -1.11999,-0.8 -1.12,-0.79999 -1.28002,-0.32001 -1.28,-0.32001 -1.43998,-0.15999 -1.28002,0.15999 -1.28,0.32001 -1.28,0.32001 -1.28,0.79999 -0.95999,0.8 -0.95999,0.96001 -0.80002,0.95999 -0.63999,1.28 -0.48001,1.27999 -0.32,1.28 -0.15998,1.28002 0.15998,1.43998 0.32,1.28 0.48001,1.28002 0.63999,1.11999 0.80002,1.12 0.95999,0.96 0.95999,0.80001 1.28,0.64 1.28,0.47999 1.28,0.31999 h 1.28002 1.43998 l 1.28,-0.31999 1.28002,-0.47999 1.12,-0.64 1.11999,-0.80001 0.96,-0.96 0.80001,-1.12 0.63999,-1.11999 0.48001,-1.28002 0.31998,-1.28 v -1.43998"
       style="fill:none;stroke:#000000;stroke-width:0.48;stroke-linecap:round;stroke-linejoin:round;stroke-miterlimit:10;stroke-dasharray:none;stroke-opacity:1"
       transform="translate(255.2,638.13326)"
       clip-path="url(#clipPath10)" />
  </g>
</svg>
