<?xml version="1.0" encoding="UTF-8" standalone="no"?>
<!-- Created with Inkscape (http://www.inkscape.org/) -->

<svg
   version="1.1"
   id="svg1"
   width="648.34668"
   height="460.50668"
   viewBox="0 0 648.34668 460.50668"
   sodipodi:docname="LapisLazuli10.pdf"
   xmlns:inkscape="http://www.inkscape.org/namespaces/inkscape"
   xmlns:sodipodi="http://sodipodi.sourceforge.net/DTD/sodipodi-0.dtd"
   xmlns="http://www.w3.org/2000/svg"
   xmlns:svg="http://www.w3.org/2000/svg">
  <defs
     id="defs1">
    <clipPath
       clipPathUnits="userSpaceOnUse"
       id="clipPath2">
      <path
         d="M 0,0.16 V 1122.5601 H 793.59998 V 0.16 Z"
         clip-rule="evenodd"
         id="path2" />
    </clipPath>
    <clipPath
       clipPathUnits="userSpaceOnUse"
       id="clipPath4">
      <path
         d="M 0,0.16 V 1122.5601 H 793.59998 V 0.16 Z"
         clip-rule="evenodd"
         id="path4" />
    </clipPath>
    <clipPath
       clipPathUnits="userSpaceOnUse"
       id="clipPath6">
      <path
         d="M 0,0.16 V 1122.5601 H 793.59998 V 0.16 Z"
         transform="translate(-102.4,-561.28003)"
         clip-rule="evenodd"
         id="path6" />
    </clipPath>
    <clipPath
       clipPathUnits="userSpaceOnUse"
       id="clipPath8">
      <path
         d="M 0,0.16 V 1122.5601 H 793.59998 V 0.16 Z"
         transform="translate(-691.35998,-364.95999)"
         clip-rule="evenodd"
         id="path8" />
    </clipPath>
  </defs>
  <sodipodi:namedview
     id="namedview1"
     pagecolor="#505050"
     bordercolor="#eeeeee"
     borderopacity="1"
     inkscape:showpageshadow="0"
     inkscape:pageopacity="0"
     inkscape:pagecheckerboard="0"
     inkscape:deskcolor="#505050">
    <inkscape:page
       x="0"
       y="0"
       inkscape:label="1"
       id="page1"
       width="648.34668"
       height="460.50668"
       margin="0"
       bleed="0" />
  </sodipodi:namedview>
  <g
     id="g1"
     inkscape:groupmode="layer"
     inkscape:label="1">
    <path
       id="path1"
       d="M 102.4,463.20001 H 691.35998"
       style="fill:none;stroke:#000000;stroke-width:26.4;stroke-linecap:round;stroke-linejoin:round;stroke-miterlimit:10;stroke-dasharray:none;stroke-opacity:1"
       transform="translate(0,7.9999413)"
       clip-path="url(#clipPath2)" />
    <path
       id="path3"
       d="M 396.79999,463.20001 V 757.59998"
       style="fill:none;stroke:#000000;stroke-width:26.4;stroke-linecap:round;stroke-linejoin:round;stroke-miterlimit:10;stroke-dasharray:none;stroke-opacity:1"
       transform="translate(0,7.9999413)"
       clip-path="url(#clipPath4)" />
    <path
       id="path5"
       d="m 0,0 6.4,-0.16 6.4,-0.64 6.240001,-1.12 6.24,-1.44 6.239999,-1.76 5.919999,-2.4 5.920002,-2.56 5.599998,-3.04 5.600002,-3.36 5.119999,-3.84 4.959999,-4 4.64,-4.479999 4.480003,-4.64 4,-4.960003 L 81.599998,-43.68 84.959999,-49.119999 88,-54.720001 l 2.559998,-5.919998 2.400001,-5.919999 1.760002,-6.240005 1.440003,-6.239998 1.119995,-6.239998 0.639999,-6.400001 0.160004,-6.400002 -0.160004,-6.559998 -0.639999,-6.4 -1.119995,-6.24 -1.440003,-6.24 -1.760002,-6.23999 -2.400001,-5.92 L 88,-141.60001 84.959999,-147.2 l -3.360001,-5.44 -3.839996,-5.28 -4,-4.96 -4.480003,-4.64 -4.64,-4.48 -4.959999,-4 -5.119999,-3.84 -5.600002,-3.36 -5.599998,-3.04 -5.920002,-2.56 -5.919999,-2.23999 -6.239999,-1.92002 -6.24,-1.43998 L 12.8,-195.52 6.4,-196.16 0,-196.32001"
       style="fill:none;stroke:#000000;stroke-width:26.4;stroke-linecap:round;stroke-linejoin:round;stroke-miterlimit:10;stroke-dasharray:none;stroke-opacity:1"
       transform="translate(102.4,569.27997)"
       clip-path="url(#clipPath6)" />
    <path
       id="path7"
       d="m 0,0 -6.4,0.16 -6.4,0.64 -6.400001,1.12 -6.24,1.44 -6.079999,1.92 -6.079998,2.24 -5.760003,2.56 -5.759998,3.04 -5.440002,3.36 -5.279999,3.84 -4.960003,4 -4.639999,4.479999 -4.32,4.64 -4.159996,4.960003 -3.68,5.279998 -3.360001,5.439999 L -88,54.720001 l -2.720001,5.919998 -2.239998,5.919999 -1.919998,6.240005 -1.440003,6.239998 -0.959999,6.239998 -0.639999,6.400001 -0.32,6.559998 0.32,6.400002 0.639999,6.4 0.959999,6.24 1.440003,6.24 1.919998,6.23999 2.239998,5.92 2.720001,5.92002 3.040001,5.59999 3.360001,5.44 3.68,5.28 4.159996,4.96 4.32,4.64 4.639999,4.48 4.960003,4 5.279999,3.84 5.440002,3.36 5.759998,3.04 5.760003,2.56 6.079998,2.4 6.079999,1.76001 6.24,1.43998 6.400001,1.12001 6.4,0.64 6.4,0.16001"
       style="fill:none;stroke:#000000;stroke-width:26.4;stroke-linecap:round;stroke-linejoin:round;stroke-miterlimit:10;stroke-dasharray:none;stroke-opacity:1"
       transform="translate(691.35998,372.95993)"
       clip-path="url(#clipPath8)" />
  </g>
</svg>
