<?xml version="1.0" encoding="UTF-8" standalone="no"?>
<!-- Created with Inkscape (http://www.inkscape.org/) -->

<svg
   version="1.1"
   id="svg1"
   width="542.96002"
   height="544.58667"
   viewBox="0 0 542.96002 544.58667"
   sodipodi:docname="LapisLazuli9.pdf"
   xmlns:inkscape="http://www.inkscape.org/namespaces/inkscape"
   xmlns:sodipodi="http://sodipodi.sourceforge.net/DTD/sodipodi-0.dtd"
   xmlns="http://www.w3.org/2000/svg"
   xmlns:svg="http://www.w3.org/2000/svg">
  <defs
     id="defs1">
    <clipPath
       clipPathUnits="userSpaceOnUse"
       id="clipPath2">
      <path
         d="M 0,0.16 V 1122.5601 H 793.59998 V 0.16 Z"
         transform="translate(-415.67999,-810.56)"
         clip-rule="evenodd"
         id="path2" />
    </clipPath>
    <clipPath
       clipPathUnits="userSpaceOnUse"
       id="clipPath4">
      <path
         d="M 0,0.16 V 1122.5601 H 793.59998 V 0.16 Z"
         clip-rule="evenodd"
         id="path4" />
    </clipPath>
    <clipPath
       clipPathUnits="userSpaceOnUse"
       id="clipPath6">
      <path
         d="M 0,0.16 V 1122.5601 H 793.59998 V 0.16 Z"
         clip-rule="evenodd"
         id="path6" />
    </clipPath>
    <clipPath
       clipPathUnits="userSpaceOnUse"
       id="clipPath8">
      <path
         d="M 0,0.16 V 1122.5601 H 793.59998 V 0.16 Z"
         clip-rule="evenodd"
         id="path8" />
    </clipPath>
    <clipPath
       clipPathUnits="userSpaceOnUse"
       id="clipPath10">
      <path
         d="M 0,0.16 V 1122.5601 H 793.59998 V 0.16 Z"
         transform="translate(-642.23999,-584)"
         clip-rule="evenodd"
         id="path10" />
    </clipPath>
    <clipPath
       clipPathUnits="userSpaceOnUse"
       id="clipPath12">
      <path
         d="M 0,0.16 V 1122.5601 H 793.59998 V 0.16 Z"
         clip-rule="evenodd"
         id="path12" />
    </clipPath>
    <clipPath
       clipPathUnits="userSpaceOnUse"
       id="clipPath14">
      <path
         d="M 0,0.16 V 1122.5601 H 793.59998 V 0.16 Z"
         transform="translate(-491.20001,-357.44)"
         clip-rule="evenodd"
         id="path14" />
    </clipPath>
    <clipPath
       clipPathUnits="userSpaceOnUse"
       id="clipPath16">
      <path
         d="M 0,0.16 V 1122.5601 H 793.59998 V 0.16 Z"
         transform="translate(-264.64002,-312.16)"
         clip-rule="evenodd"
         id="path16" />
    </clipPath>
  </defs>
  <sodipodi:namedview
     id="namedview1"
     pagecolor="#505050"
     bordercolor="#eeeeee"
     borderopacity="1"
     inkscape:showpageshadow="0"
     inkscape:pageopacity="0"
     inkscape:pagecheckerboard="0"
     inkscape:deskcolor="#505050">
    <inkscape:page
       x="0"
       y="0"
       inkscape:label="1"
       id="page1"
       width="542.96002"
       height="544.58667"
       margin="0"
       bleed="0" />
  </sodipodi:namedview>
  <g
     id="g1"
     inkscape:groupmode="layer"
     inkscape:label="1">
    <path
       id="path1"
       d="m 0,0 -0.16,-6.24 -0.48,-6.08 -0.96,-6.239999 -1.12,-5.920001 -1.6,-5.92 -1.92,-5.76 -2.24,-5.599998 -2.4,-5.440003 -2.88,-5.119999 -3.199999,-4.959999 -3.360001,-4.639999 -3.68,-4.32 -3.84,-4.160004 -4,-3.68 -4.32,-3.36 -4.639999,-3.040001 -4.64,-2.719994 -4.800003,-2.240005 -4.799999,-1.919999 -5.119999,-1.440002 -4.960003,-0.959999 -5.119995,-0.64 -5.279999,-0.319999 -5.120002,0.319999 -5.120003,0.64 -5.119995,0.959999 -4.959999,1.440002 -4.960004,1.919999 -4.8,2.240005 -4.64,2.719994 -4.48,3.040001 -4.32,3.36 -4.16,3.68 -3.84,4.160004 -3.68,4.32 -3.36,4.639999 -3.03999,4.959999 -2.88001,5.119999 -2.56,5.440003 -2.24,5.599998 -1.76,5.76 -1.6,5.92 -1.28,5.920001 -0.8,6.239999 -0.64,6.08 -0.15999,6.24"
       style="fill:none;stroke:#000000;stroke-width:26.4;stroke-linecap:round;stroke-linejoin:round;stroke-miterlimit:10;stroke-dasharray:none;stroke-opacity:1"
       transform="translate(290.27999,520.90661)"
       clip-path="url(#clipPath2)" />
    <path
       id="path3"
       d="M 415.67999,810.56 V 448"
       style="fill:none;stroke:#000000;stroke-width:26.4;stroke-linecap:round;stroke-linejoin:round;stroke-miterlimit:10;stroke-dasharray:none;stroke-opacity:1"
       transform="translate(-125.4,-289.65339)"
       clip-path="url(#clipPath4)" />
    <path
       id="path5"
       d="M 264.64001,584 V 312.16"
       style="fill:none;stroke:#000000;stroke-width:26.4;stroke-linecap:round;stroke-linejoin:round;stroke-miterlimit:10;stroke-dasharray:none;stroke-opacity:1"
       transform="translate(-125.4,-289.65339)"
       clip-path="url(#clipPath6)" />
    <path
       id="path7"
       d="M 264.64001,584 H 642.23999"
       style="fill:none;stroke:#000000;stroke-width:26.4;stroke-linecap:round;stroke-linejoin:round;stroke-miterlimit:10;stroke-dasharray:none;stroke-opacity:1"
       transform="translate(-125.4,-289.65339)"
       clip-path="url(#clipPath8)" />
    <path
       id="path9"
       d="m 0,0 -4.16,0.16 -4.32,0.48 -4.16,0.96 -3.999999,1.44 -4,1.6 -3.840001,2.08 -3.84,2.4 -3.52,2.72 -3.360001,2.88 -3.36,3.36 -2.879998,3.68 -2.880001,3.84 -2.400001,4 -2.239998,4.319998 -2.080002,4.480004 -1.599998,4.639999 L -54.080002,47.84 -55.200001,52.799999 -56,57.759998 l -0.48,5.120003 -0.159999,4.959995 0.159999,5.120003 0.48,5.120003 0.799999,4.959999 1.119999,4.959999 1.440003,4.800003 1.599998,4.639999 2.080002,4.479998 2.239998,4.32 2.400001,4 2.880001,3.84 2.879998,3.68 3.36,3.36 3.360001,2.88 3.52,2.72 3.84,2.39999 3.840001,2.08001 4,1.6 3.999999,1.44 4.16,0.96 4.32,0.47999 L 0,135.84"
       style="fill:none;stroke:#000000;stroke-width:26.4;stroke-linecap:round;stroke-linejoin:round;stroke-miterlimit:10;stroke-dasharray:none;stroke-opacity:1"
       transform="translate(516.83999,294.34661)"
       clip-path="url(#clipPath10)" />
    <path
       id="path11"
       d="m 491.20001,357.44 h 75.51996"
       style="fill:none;stroke:#000000;stroke-width:26.4;stroke-linecap:round;stroke-linejoin:round;stroke-miterlimit:10;stroke-dasharray:none;stroke-opacity:1"
       transform="translate(-125.4,-289.65339)"
       clip-path="url(#clipPath12)" />
    <path
       id="path13"
       d="m 0,0 -4.64,-0.64 -4.8,-0.16 -4.8,0.16 L -18.879999,0 -23.68,0.96 l -4.48,1.44 -4.639999,1.76 -4.32,2.24 -4.32,2.56 -4,2.88 -4,3.36 -3.68,3.519999 -3.52,3.84 -3.200001,4.32 -3.040001,4.320002 L -65.599998,36 -68,40.799999 -70.080002,45.919998 -72,51.200001 l -1.440002,5.439998 -1.119996,5.600003 -0.959999,5.599994 L -76,73.440002 -76.160004,79.199997 -76,84.959999 l 0.480003,5.599999"
       style="fill:none;stroke:#000000;stroke-width:26.4;stroke-linecap:round;stroke-linejoin:round;stroke-miterlimit:10;stroke-dasharray:none;stroke-opacity:1"
       transform="translate(365.80001,67.78661)"
       clip-path="url(#clipPath14)" />
    <path
       id="path15"
       d="M 0,0 -6.72,1.28 -13.44,3.04 -20,5.28 -26.559999,8 l -6.4,2.88 -6.240002,3.52 -6.079998,3.68 -5.920002,4.16 -5.759998,4.479999 -5.600002,4.960001 -5.279995,5.119999 -5.120003,5.600003 -4.959999,5.759998 -4.480004,6.240002 -4.319999,6.399997 -4.159996,6.560002 -3.680001,6.879997 -3.520004,7.200004 L -101.28,88.800003 -104,96.32 l -2.56,7.68 -2.24,7.68 -1.76,8 -1.44,8 -1.28,8.16"
       style="fill:none;stroke:#000000;stroke-width:26.4;stroke-linecap:round;stroke-linejoin:round;stroke-miterlimit:10;stroke-dasharray:none;stroke-opacity:1"
       transform="translate(139.24002,22.506612)"
       clip-path="url(#clipPath16)" />
  </g>
</svg>
