<?xml version="1.0" encoding="UTF-8" standalone="no"?>
<!-- Created with Inkscape (http://www.inkscape.org/) -->

<svg
   version="1.1"
   id="svg1"
   width="406.88"
   height="568.61334"
   viewBox="0 0 406.88 568.61334"
   sodipodi:docname="LapisLazuli6.pdf"
   xmlns:inkscape="http://www.inkscape.org/namespaces/inkscape"
   xmlns:sodipodi="http://sodipodi.sourceforge.net/DTD/sodipodi-0.dtd"
   xmlns="http://www.w3.org/2000/svg"
   xmlns:svg="http://www.w3.org/2000/svg">
  <defs
     id="defs1">
    <clipPath
       clipPathUnits="userSpaceOnUse"
       id="clipPath2">
      <path
         d="M 0,0.16 V 1122.5601 H 793.59998 V 0.16 Z"
         transform="translate(-302.4,-680.32001)"
         clip-rule="evenodd"
         id="path2" />
    </clipPath>
    <clipPath
       clipPathUnits="userSpaceOnUse"
       id="clipPath4">
      <path
         d="M 0,0.16 V 1122.5601 H 793.59998 V 0.16 Z"
         transform="translate(-302.4,-680.32001)"
         clip-rule="evenodd"
         id="path4" />
    </clipPath>
    <clipPath
       clipPathUnits="userSpaceOnUse"
       id="clipPath6">
      <path
         d="M 0,0.16 V 1122.5601 H 793.59998 V 0.16 Z"
         transform="translate(-491.20002,-680.32001)"
         clip-rule="evenodd"
         id="path6" />
    </clipPath>
    <clipPath
       clipPathUnits="userSpaceOnUse"
       id="clipPath8">
      <path
         d="M 0,0.16 V 1122.5601 H 793.59998 V 0.16 Z"
         transform="translate(-491.20002,-680.32001)"
         clip-rule="evenodd"
         id="path8" />
    </clipPath>
    <clipPath
       clipPathUnits="userSpaceOnUse"
       id="clipPath10">
      <path
         d="M 0,0.16 V 1122.5601 H 793.59998 V 0.16 Z"
         transform="translate(3.3333333e-6)"
         clip-rule="evenodd"
         id="path10" />
    </clipPath>
    <clipPath
       clipPathUnits="userSpaceOnUse"
       id="clipPath12">
      <path
         d="M 0,0.16 V 1122.5601 H 793.59998 V 0.16 Z"
         transform="translate(3.3333333e-6)"
         clip-rule="evenodd"
         id="path12" />
    </clipPath>
  </defs>
  <sodipodi:namedview
     id="namedview1"
     pagecolor="#505050"
     bordercolor="#eeeeee"
     borderopacity="1"
     inkscape:showpageshadow="0"
     inkscape:pageopacity="0"
     inkscape:pagecheckerboard="0"
     inkscape:deskcolor="#505050">
    <inkscape:page
       x="0"
       y="0"
       inkscape:label="1"
       id="page1"
       width="406.88"
       height="568.61334"
       margin="0"
       bleed="0" />
  </sodipodi:namedview>
  <g
     id="g1"
     inkscape:groupmode="layer"
     inkscape:label="1">
    <path
       id="path1"
       d="m 0,0 4.48,-3.04 4.32,-3.36 4,-3.52 3.68,-4 3.36,-4.16 3.200001,-4.32 2.879999,-4.640001 2.4,-4.799999 2.08,-4.959999 1.76,-5.119999 1.439998,-5.120003 0.960003,-5.279999 0.8,-5.439998 0.159999,-5.280003 -0.159999,-5.440002 -0.48,-5.439995 -0.799999,-5.279999 -1.280003,-5.280006 -1.759998,-5.119995 -1.92,-4.96 -2.400002,-4.800003 L 24,-104 21.120001,-108.48 17.76,-112.8 l -3.68,-4 -3.84,-3.68 -4.16,-3.52 -4.48,-3.04 -4.48,-2.88 -4.8,-2.40001 -4.96,-2.07998 -5.12,-1.76001 -5.280001,-1.44001 -5.279999,-1.11999 -5.279998,-0.64 -5.440003,-0.16 -5.439999,0.16 -5.279998,0.48 -5.280003,0.8 -5.279999,1.28 -5.120002,1.6 -4.96,2.08001 -4.959999,2.39999 L -80,-128.16"
       style="fill:none;stroke:#000000;stroke-width:26.4;stroke-linecap:round;stroke-linejoin:round;stroke-miterlimit:10;stroke-dasharray:none;stroke-opacity:1"
       transform="translate(110.29333,401.34662)"
       clip-path="url(#clipPath2)" />
    <path
       id="path3"
       d="m 0,0 -4.48,3.04 -4.16,3.36 -4,3.52 -3.68,4 -3.52,4.16 -3.039999,4.32 -2.880001,4.640001 -2.4,4.799999 -2.24,4.959999 -1.76,5.119999 -1.279999,5.120003 -1.120002,5.279999 -0.64,5.439998 -0.16,5.280003 v 5.440002 l 0.64,5.279999 0.800003,5.439995 1.279999,5.120003 1.599998,5.279998 2.080002,4.96 2.24,4.800003 L -24,104 l 3.040001,4.48 3.359999,4.32 3.68,4 3.84,3.68 4.16,3.36 4.32,3.2 4.64,2.88 4.8,2.40001 4.96,2.07998 5.12,1.76001 5.120001,1.44001 5.279999,0.95999 5.439998,0.64 5.440003,0.32 5.279999,-0.16 5.439998,-0.48 5.280003,-0.8 5.279999,-1.28 5.119998,-1.76001 4.96,-1.92 4.800003,-2.39999 4.800003,-2.72"
       style="fill:none;stroke:#000000;stroke-width:26.4;stroke-linecap:round;stroke-linejoin:round;stroke-miterlimit:10;stroke-dasharray:none;stroke-opacity:1"
       transform="translate(110.29333,401.34662)"
       clip-path="url(#clipPath4)" />
    <path
       id="path5"
       d="m 0,0 4.48,-3.04 4.32,-3.36 4,-3.52 3.68,-4 3.36,-4.16 3.200001,-4.32 2.719999,-4.640001 2.56,-4.799999 2.08,-4.959999 1.76,-5.119999 1.439998,-5.120003 0.960003,-5.279999 0.64,-5.439998 0.319999,-5.280003 -0.159999,-5.440002 -0.48,-5.439995 -0.799999,-5.279999 -1.280003,-5.280006 -1.759998,-5.119995 -1.92,-4.96 -2.400002,-4.800003 L 24,-104 20.959999,-108.48 17.76,-112.8 l -3.68,-4 -3.84,-3.68 -4.16,-3.52 -4.48,-3.04 -4.48,-2.88 -4.8,-2.40001 -4.96,-2.07998 -5.12,-1.76001 -5.280001,-1.44001 -5.279999,-1.11999 -5.279998,-0.64 -5.440003,-0.16 -5.439999,0.16 -5.279998,0.48 -5.280003,0.8 -5.279999,1.28 -5.120002,1.6 -5.119996,2.08001 -4.800003,2.39999 L -80,-128.16"
       style="fill:none;stroke:#000000;stroke-width:26.4;stroke-linecap:round;stroke-linejoin:round;stroke-miterlimit:10;stroke-dasharray:none;stroke-opacity:1"
       transform="translate(299.09335,401.34662)"
       clip-path="url(#clipPath6)" />
    <path
       id="path7"
       d="m 0,0 -4.48,3.04 -4.16,3.36 -4,3.52 -3.68,4 -3.52,4.16 -3.039999,4.32 -2.880001,4.640001 -2.4,4.799999 -2.24,4.959999 -1.76,5.119999 -1.279999,5.120003 -1.120002,5.279999 -0.64,5.439998 -0.319999,5.280003 0.159999,5.440002 0.48,5.279999 0.960003,5.439995 1.279999,5.120003 1.599998,5.279998 2.080002,4.96 2.24,4.800003 L -24,104 l 3.040001,4.48 3.359999,4.32 3.68,4 3.84,3.68 4.16,3.36 4.32,3.2 4.64,2.88 4.8,2.40001 4.96,2.07998 5.12,1.76001 5.120001,1.44001 5.279999,0.95999 5.439998,0.64 5.280003,0.32 5.439999,-0.16 5.439998,-0.48 5.280003,-0.8 5.279999,-1.28 5.119998,-1.76001 4.96,-1.92 4.800003,-2.39999 4.800003,-2.72"
       style="fill:none;stroke:#000000;stroke-width:26.4;stroke-linecap:round;stroke-linejoin:round;stroke-miterlimit:10;stroke-dasharray:none;stroke-opacity:1"
       transform="translate(299.09335,401.34662)"
       clip-path="url(#clipPath8)" />
    <path
       id="path9"
       d="M 226.88,548.15997 377.92001,302.72"
       style="fill:none;stroke:#000000;stroke-width:26.4;stroke-linecap:round;stroke-linejoin:round;stroke-miterlimit:10;stroke-dasharray:none;stroke-opacity:1"
       transform="translate(-192.10667,-278.97339)"
       clip-path="url(#clipPath10)" />
    <path
       id="path11"
       d="M 415.67999,548.15997 566.71997,302.72"
       style="fill:none;stroke:#000000;stroke-width:26.4;stroke-linecap:round;stroke-linejoin:round;stroke-miterlimit:10;stroke-dasharray:none;stroke-opacity:1"
       transform="translate(-192.10667,-278.97339)"
       clip-path="url(#clipPath12)" />
  </g>
</svg>
