<?xml version="1.0" encoding="UTF-8" standalone="no"?>
<!-- Created with Inkscape (http://www.inkscape.org/) -->

<svg
   version="1.1"
   id="svg1"
   width="429.57333"
   height="479.18668"
   viewBox="0 0 429.57333 479.18668"
   sodipodi:docname="LapisSilex2.pdf"
   xmlns:inkscape="http://www.inkscape.org/namespaces/inkscape"
   xmlns:sodipodi="http://sodipodi.sourceforge.net/DTD/sodipodi-0.dtd"
   xmlns="http://www.w3.org/2000/svg"
   xmlns:svg="http://www.w3.org/2000/svg">
  <defs
     id="defs1">
    <clipPath
       clipPathUnits="userSpaceOnUse"
       id="clipPath2">
      <path
         d="M 0,0.16 V 1122.5601 H 793.59998 V 0.16 Z"
         transform="translate(-208,-599.03998)"
         clip-rule="evenodd"
         id="path2" />
    </clipPath>
    <clipPath
       clipPathUnits="userSpaceOnUse"
       id="clipPath4">
      <path
         d="M 0,0.16 V 1122.5601 H 793.59998 V 0.16 Z"
         clip-rule="evenodd"
         id="path4" />
    </clipPath>
    <clipPath
       clipPathUnits="userSpaceOnUse"
       id="clipPath6">
      <path
         d="M 0,0.16 V 1122.5601 H 793.59998 V 0.16 Z"
         clip-rule="evenodd"
         id="path6" />
    </clipPath>
    <clipPath
       clipPathUnits="userSpaceOnUse"
       id="clipPath8">
      <path
         d="M 0,0.16 V 1122.5601 H 793.59998 V 0.16 Z"
         transform="translate(-434.56,-448)"
         clip-rule="evenodd"
         id="path8" />
    </clipPath>
    <clipPath
       clipPathUnits="userSpaceOnUse"
       id="clipPath10">
      <path
         d="M 0,0.16 V 1122.5601 H 793.59998 V 0.16 Z"
         clip-rule="evenodd"
         id="path10" />
    </clipPath>
    <clipPath
       clipPathUnits="userSpaceOnUse"
       id="clipPath12">
      <path
         d="M 0,0.16 V 1122.5601 H 793.59998 V 0.16 Z"
         clip-rule="evenodd"
         id="path12" />
    </clipPath>
    <clipPath
       clipPathUnits="userSpaceOnUse"
       id="clipPath14">
      <path
         d="M 0,0.16 V 1122.5601 H 793.59998 V 0.16 Z"
         clip-rule="evenodd"
         id="path14" />
    </clipPath>
    <clipPath
       clipPathUnits="userSpaceOnUse"
       id="clipPath16">
      <path
         d="M 0,0.16 V 1122.5601 H 793.59998 V 0.16 Z"
         clip-rule="evenodd"
         id="path16" />
    </clipPath>
    <clipPath
       clipPathUnits="userSpaceOnUse"
       id="clipPath18">
      <path
         d="M 0,0.16 V 1122.5601 H 793.59998 V 0.16 Z"
         transform="translate(-321.28,-674.56)"
         clip-rule="evenodd"
         id="path18" />
    </clipPath>
    <clipPath
       clipPathUnits="userSpaceOnUse"
       id="clipPath20">
      <path
         d="M 0,0.16 V 1122.5601 H 793.59998 V 0.16 Z"
         transform="translate(-435.35999,-599.67999)"
         clip-rule="evenodd"
         id="path20" />
    </clipPath>
    <clipPath
       clipPathUnits="userSpaceOnUse"
       id="clipPath22">
      <path
         d="M 0,0.16 V 1122.5601 H 793.59998 V 0.16 Z"
         transform="translate(-321.60001,-371.83999)"
         clip-rule="evenodd"
         id="path22" />
    </clipPath>
    <clipPath
       clipPathUnits="userSpaceOnUse"
       id="clipPath24">
      <path
         d="M 0,0.16 V 1122.5601 H 793.59998 V 0.16 Z"
         transform="translate(-207.52,-446.72)"
         clip-rule="evenodd"
         id="path24" />
    </clipPath>
  </defs>
  <sodipodi:namedview
     id="namedview1"
     pagecolor="#505050"
     bordercolor="#eeeeee"
     borderopacity="1"
     inkscape:showpageshadow="0"
     inkscape:pageopacity="0"
     inkscape:pagecheckerboard="0"
     inkscape:deskcolor="#505050">
    <inkscape:page
       x="0"
       y="0"
       inkscape:label="1"
       id="page1"
       width="429.57333"
       height="479.18668"
       margin="0"
       bleed="0" />
  </sodipodi:namedview>
  <g
     id="g1"
     inkscape:groupmode="layer"
     inkscape:label="1">
    <path
       id="path1"
       d="M 0,0 5.44,-0.16 10.88,-0.8 16.16,-1.76 21.280001,-3.04 26.4,-4.8 31.360001,-6.88 36.32,-9.28 40.959999,-12 l 4.32,-3.04 4.16,-3.36 4,-3.68 3.68,-4 3.360001,-4.16 3.04,-4.480001 2.880002,-4.64 2.400001,-4.799999 2.079994,-4.959999 1.600006,-5.120003 1.439995,-5.279998 0.959999,-5.280003 0.480004,-5.279999 0.159996,-5.439995 -0.159996,-5.440002 -0.480004,-5.279999 -0.959999,-5.279999 -1.439995,-5.280006 -1.600006,-5.119997 -2.079994,-4.96 -2.400001,-4.8 -2.880002,-4.64 -3.04,-4.48 -3.360001,-4.16 -3.68,-4.00001 -4,-3.67999 -4.16,-3.36 -4.32,-3.03999 -4.639999,-2.72 L 31.360001,-144.16 26.4,-146.24 21.280001,-148 16.16,-149.28 10.88,-150.24 5.44,-150.88 0,-151.03999"
       style="fill:none;stroke:#000000;stroke-width:26.4;stroke-linecap:round;stroke-linejoin:round;stroke-miterlimit:10;stroke-dasharray:none;stroke-opacity:1"
       transform="translate(208,684.46659)"
       clip-path="url(#clipPath2)" />
    <path
       id="path3"
       d="M 132.48,448 H 208"
       style="fill:none;stroke:#000000;stroke-width:26.4;stroke-linecap:round;stroke-linejoin:round;stroke-miterlimit:10;stroke-dasharray:none;stroke-opacity:1"
       transform="translate(0,85.426608)"
       clip-path="url(#clipPath4)" />
    <path
       id="path5"
       d="M 132.48,599.03998 H 208"
       style="fill:none;stroke:#000000;stroke-width:26.4;stroke-linecap:round;stroke-linejoin:round;stroke-miterlimit:10;stroke-dasharray:none;stroke-opacity:1"
       transform="translate(0,85.426608)"
       clip-path="url(#clipPath6)" />
    <path
       id="path7"
       d="M 0,0 -5.28,0.16 -10.72,0.8 -16,1.76 -21.280001,3.04 -26.4,4.8 -31.360001,6.88 -36.16,9.28 -40.799999,12 l -4.48,3.04 -4.16,3.36 -3.84,3.68 -3.68,4 -3.520001,4.16 -3.04,4.480001 -2.719998,4.64 -2.400001,4.799999 -2.080002,4.959999 -1.760002,5.120003 -1.279999,5.279998 -0.959999,5.280003 -0.479996,5.279999 -0.32,5.439995 0.32,5.440002 0.479996,5.279999 0.959999,5.279999 1.279999,5.280006 1.760002,5.119997 2.080002,4.96 2.400001,4.8 2.719998,4.64 3.04,4.48 3.520001,4.16 3.68,4.00001 3.84,3.67999 4.16,3.36 4.48,3.03999 4.639999,2.72 4.799999,2.40001 4.960001,2.08 5.119999,1.76 5.280001,1.28 5.28,0.96 5.44,0.64 5.28,0.15999"
       style="fill:none;stroke:#000000;stroke-width:26.4;stroke-linecap:round;stroke-linejoin:round;stroke-miterlimit:10;stroke-dasharray:none;stroke-opacity:1"
       transform="translate(434.56,533.42661)"
       clip-path="url(#clipPath8)" />
    <path
       id="path9"
       d="M 510.07999,599.03998 H 434.56"
       style="fill:none;stroke:#000000;stroke-width:26.4;stroke-linecap:round;stroke-linejoin:round;stroke-miterlimit:10;stroke-dasharray:none;stroke-opacity:1"
       transform="translate(0,85.426608)"
       clip-path="url(#clipPath10)" />
    <path
       id="path11"
       d="M 510.07999,448 H 434.56"
       style="fill:none;stroke:#000000;stroke-width:26.4;stroke-linecap:round;stroke-linejoin:round;stroke-miterlimit:10;stroke-dasharray:none;stroke-opacity:1"
       transform="translate(0,85.426608)"
       clip-path="url(#clipPath12)" />
    <path
       id="path13"
       d="M 321.28,372.48001 V 296.95999"
       style="fill:none;stroke:#000000;stroke-width:26.4;stroke-linecap:round;stroke-linejoin:round;stroke-miterlimit:10;stroke-dasharray:none;stroke-opacity:1"
       transform="translate(0,85.426608)"
       clip-path="url(#clipPath14)" />
    <path
       id="path15"
       d="m 321.28,674.56 v 75.52002"
       style="fill:none;stroke:#000000;stroke-width:26.4;stroke-linecap:round;stroke-linejoin:round;stroke-miterlimit:10;stroke-dasharray:none;stroke-opacity:1"
       transform="translate(0,85.426608)"
       clip-path="url(#clipPath16)" />
    <path
       id="path17"
       d="m 0,0 -1.76,-6.24 -2.08,-6.08 -2.56,-5.92 -3.04,-5.92 -3.2,-5.6 -3.68,-5.280001 -4,-5.119999 -4.319999,-4.799999 -4.640002,-4.639999 -4.800001,-4.32 -5.279999,-3.84 -5.279998,-3.680001 -5.760003,-3.2 -5.759998,-2.879998 -5.920002,-2.560005 -6.239998,-2.080002 -6.239998,-1.759994 -6.400001,-1.279999 L -87.360001,-76 l -6.400001,-0.480003 -6.559998,-0.159996 -6.4,0.319999 -6.56,0.800003"
       style="fill:none;stroke:#000000;stroke-width:26.4;stroke-linecap:round;stroke-linejoin:round;stroke-miterlimit:10;stroke-dasharray:none;stroke-opacity:1"
       transform="translate(321.28,759.98661)"
       clip-path="url(#clipPath18)" />
    <path
       id="path19"
       d="m 0,0 -6.4,-0.8 -6.4,-0.32 h -6.560001 L -25.76,-0.8 l -6.56,0.96 -6.240001,1.28 -6.399998,1.6 -6.080002,2.08 -6.079998,2.4 -5.760002,2.88 -5.600002,3.2 -5.439995,3.520001 -5.279999,4 -4.960007,4.16 -4.639999,4.479999 -4.32,4.960001 -4,4.959999 -3.679997,5.439999 -3.36,5.600002 -3.04,5.759999 -2.56,5.920002 -2.24,6.080001 -1.92,6.079995"
       style="fill:none;stroke:#000000;stroke-width:26.4;stroke-linecap:round;stroke-linejoin:round;stroke-miterlimit:10;stroke-dasharray:none;stroke-opacity:1"
       transform="translate(435.35999,685.1066)"
       clip-path="url(#clipPath20)" />
    <path
       id="path21"
       d="m 0,0 1.92,6.4 2.24,6.08 2.56,5.92 2.88,5.76 3.36,5.6 3.52,5.440001 4,5.119999 4.319999,4.799999 4.640002,4.639999 4.960001,4.16 5.119998,4 5.439999,3.520001 5.600002,3.360004 L 56.32,67.68 l 6.080002,2.400002 6.080001,2.239998 6.239998,1.599998 6.400002,1.279999 6.399994,0.960007 6.400001,0.479995 6.560002,0.160004 6.56,-0.480003 6.24,-0.800003"
       style="fill:none;stroke:#000000;stroke-width:26.4;stroke-linecap:round;stroke-linejoin:round;stroke-miterlimit:10;stroke-dasharray:none;stroke-opacity:1"
       transform="translate(321.60001,457.2666)"
       clip-path="url(#clipPath22)" />
    <path
       id="path23"
       d="m 0,0 6.56,0.96 6.56,0.32 h 6.4 l 6.56,-0.48 6.4,-0.8 6.400001,-1.28 6.239998,-1.6 6.080002,-2.08 6.079998,-2.56 5.760002,-2.72 5.760002,-3.2 5.439995,-3.680001 5.120003,-3.839998 4.959999,-4.160002 4.639999,-4.639999 4.32,-4.800001 4,-5.119999 3.680001,-5.279999 3.36,-5.600002 3.04,-5.759999 2.56,-5.920002 2.24,-6.079998 1.76,-6.400001"
       style="fill:none;stroke:#000000;stroke-width:26.4;stroke-linecap:round;stroke-linejoin:round;stroke-miterlimit:10;stroke-dasharray:none;stroke-opacity:1"
       transform="translate(207.52,532.14661)"
       clip-path="url(#clipPath24)" />
  </g>
</svg>
