<?xml version="1.0" encoding="UTF-8" standalone="no"?>
<!-- Created with Inkscape (http://www.inkscape.org/) -->

<svg
   version="1.1"
   id="svg1"
   width="572.26666"
   height="573.93335"
   viewBox="0 0 572.26666 573.93335"
   sodipodi:docname="LapisCalaminaris10.pdf"
   xmlns:inkscape="http://www.inkscape.org/namespaces/inkscape"
   xmlns:sodipodi="http://sodipodi.sourceforge.net/DTD/sodipodi-0.dtd"
   xmlns="http://www.w3.org/2000/svg"
   xmlns:svg="http://www.w3.org/2000/svg">
  <defs
     id="defs1">
    <clipPath
       clipPathUnits="userSpaceOnUse"
       id="clipPath2">
      <path
         d="M 0,0 H 595.275 V 841.889 H 0 Z"
         id="path2" />
    </clipPath>
    <clipPath
       clipPathUnits="userSpaceOnUse"
       id="clipPath4">
      <path
         d="M 0,0 H 595.275 V 841.889 H 0 Z"
         id="path4" />
    </clipPath>
    <clipPath
       clipPathUnits="userSpaceOnUse"
       id="clipPath6">
      <path
         d="M 0,0 H 595.275 V 841.889 H 0 Z"
         id="path6" />
    </clipPath>
    <clipPath
       clipPathUnits="userSpaceOnUse"
       id="clipPath8">
      <path
         d="M 0,0 H 595.275 V 841.889 H 0 Z"
         id="path8" />
    </clipPath>
    <clipPath
       clipPathUnits="userSpaceOnUse"
       id="clipPath10">
      <path
         d="M 0,0 H 595.275 V 841.889 H 0 Z"
         id="path10" />
    </clipPath>
    <clipPath
       clipPathUnits="userSpaceOnUse"
       id="clipPath12">
      <path
         d="M 0,0 H 595.275 V 841.889 H 0 Z"
         id="path12" />
    </clipPath>
    <clipPath
       clipPathUnits="userSpaceOnUse"
       id="clipPath14">
      <path
         d="M 0,0 H 595.275 V 841.889 H 0 Z"
         id="path14" />
    </clipPath>
    <clipPath
       clipPathUnits="userSpaceOnUse"
       id="clipPath16">
      <path
         d="M 0,0 H 595.275 V 841.889 H 0 Z"
         id="path16" />
    </clipPath>
    <clipPath
       clipPathUnits="userSpaceOnUse"
       id="clipPath18">
      <path
         d="M 0,0 H 595.275 V 841.889 H 0 Z"
         id="path18" />
    </clipPath>
    <clipPath
       clipPathUnits="userSpaceOnUse"
       id="clipPath20">
      <path
         d="M 0,0 H 595.275 V 841.889 H 0 Z"
         id="path20" />
    </clipPath>
    <clipPath
       clipPathUnits="userSpaceOnUse"
       id="clipPath22">
      <path
         d="M 0,0 H 595.275 V 841.889 H 0 Z"
         id="path22" />
    </clipPath>
    <clipPath
       clipPathUnits="userSpaceOnUse"
       id="clipPath24">
      <path
         d="M 0,0 H 595.275 V 841.889 H 0 Z"
         id="path24" />
    </clipPath>
    <clipPath
       clipPathUnits="userSpaceOnUse"
       id="clipPath26">
      <path
         d="M 0,0 H 595.275 V 841.889 H 0 Z"
         id="path26" />
    </clipPath>
  </defs>
  <sodipodi:namedview
     id="namedview1"
     pagecolor="#505050"
     bordercolor="#eeeeee"
     borderopacity="1"
     inkscape:showpageshadow="0"
     inkscape:pageopacity="0"
     inkscape:pagecheckerboard="0"
     inkscape:deskcolor="#505050">
    <inkscape:page
       x="0"
       y="0"
       inkscape:label="1"
       id="page1"
       width="572.26666"
       height="573.93335"
       margin="0"
       bleed="0" />
  </sodipodi:namedview>
  <g
     id="g1"
     inkscape:groupmode="layer"
     inkscape:label="1">
    <path
       id="path1"
       d="m 439.2,449.249 -0.24,11.28 -1.08,11.28 -1.56,11.28 -2.28,11.04 -2.88,10.92 -3.48,10.8 -4.08,10.56 -4.68,10.32 -5.28,9.96 -5.88,9.72 -6.36,9.36 -6.96,9 -7.44,8.52 -7.8,8.04 -8.4,7.68 -8.76,7.2 -9.12,6.6 -9.6,6.12 -9.84,5.64 -10.08,4.92 -10.44,4.44 -10.68,3.84 -10.92,3.12 -11.04,2.64 -11.16,1.92 -11.16,1.32 -11.28,0.6 h -11.4 l -11.28,-0.6 -11.28,-1.32 -11.16,-1.92 -11.04,-2.64 -10.8,-3.12 -10.68,-3.84 -10.44,-4.44 -10.2,-4.92 -9.84,-5.64 -9.48,-6.12 -9.12,-6.6 -8.76,-7.2 -8.4,-7.68 -7.92,-8.04 -7.32,-8.52 -6.96,-9 -6.36,-9.36 -5.88,-9.72 -5.28,-9.96 -4.68,-10.32 -4.08,-10.56 -3.6,-10.8 -2.88,-10.92 -2.16,-11.04 -1.68,-11.28 -0.96,-11.28 -0.36,-11.28 0.36,-11.28 0.96,-11.28 1.68,-11.28 2.16,-11.04 2.88,-11.04 3.6,-10.68 4.08,-10.56 4.68,-10.32 5.28,-9.96 5.88,-9.72 6.36,-9.36 6.96,-9 7.32,-8.52 7.92,-8.16 8.4,-7.68 8.76,-7.08 9.12,-6.72 9.48,-6.12 9.84,-5.52 10.2,-5.04 10.44,-4.32 10.68,-3.84 10.8,-3.24 11.04,-2.52 11.16,-1.92 11.28,-1.32 11.28,-0.6 h 11.4 l 11.28,0.6 11.16,1.32 11.16,1.92 11.04,2.52 10.92,3.24 10.68,3.84 10.44,4.32 10.08,5.04 9.84,5.52 9.6,6.12 9.12,6.72 8.76,7.08 8.4,7.68 7.8,8.16 7.44,8.52 6.96,9 6.36,9.36 5.88,9.72 5.28,9.96 4.68,10.32 4.08,10.56 3.48,10.68 2.88,11.04 2.28,11.04 1.56,11.28 1.08,11.28 0.24,11.28"
       style="fill:none;stroke:#000000;stroke-width:19.8;stroke-linecap:round;stroke-linejoin:round;stroke-miterlimit:10;stroke-dasharray:none;stroke-opacity:1"
       transform="matrix(1.3333333,0,0,-1.3333333,-37.346667,887.6)"
       clip-path="url(#clipPath2)" />
    <path
       id="path3"
       d="M 243.12,251.129 439.2,447.209"
       style="fill:none;stroke:#000000;stroke-width:15;stroke-linecap:round;stroke-linejoin:round;stroke-miterlimit:10;stroke-dasharray:none;stroke-opacity:1"
       transform="matrix(1.3333333,0,0,-1.3333333,-37.346667,887.6)"
       clip-path="url(#clipPath4)" />
    <path
       id="path5"
       d="m 174.48,262.529 253.2,253.32"
       style="fill:none;stroke:#000000;stroke-width:15;stroke-linecap:round;stroke-linejoin:round;stroke-miterlimit:10;stroke-dasharray:none;stroke-opacity:1"
       transform="matrix(1.3333333,0,0,-1.3333333,-37.346667,887.6)"
       clip-path="url(#clipPath6)" />
    <path
       id="path7"
       d="m 122.28,290.489 277.44,277.44"
       style="fill:none;stroke:#000000;stroke-width:15;stroke-linecap:round;stroke-linejoin:round;stroke-miterlimit:10;stroke-dasharray:none;stroke-opacity:1"
       transform="matrix(1.3333333,0,0,-1.3333333,-37.346667,887.6)"
       clip-path="url(#clipPath8)" />
    <path
       id="path9"
       d="m 82.32,330.569 277.32,277.32"
       style="fill:none;stroke:#000000;stroke-width:15;stroke-linecap:round;stroke-linejoin:round;stroke-miterlimit:10;stroke-dasharray:none;stroke-opacity:1"
       transform="matrix(1.3333333,0,0,-1.3333333,-37.346667,887.6)"
       clip-path="url(#clipPath10)" />
    <path
       id="path11"
       d="m 54.24,382.649 253.32,253.2"
       style="fill:none;stroke:#000000;stroke-width:15;stroke-linecap:round;stroke-linejoin:round;stroke-miterlimit:10;stroke-dasharray:none;stroke-opacity:1"
       transform="matrix(1.3333333,0,0,-1.3333333,-37.346667,887.6)"
       clip-path="url(#clipPath12)" />
    <path
       id="path13"
       d="m 42.84,451.289 196.08,196.08"
       style="fill:none;stroke:#000000;stroke-width:15;stroke-linecap:round;stroke-linejoin:round;stroke-miterlimit:10;stroke-dasharray:none;stroke-opacity:1"
       transform="matrix(1.3333333,0,0,-1.3333333,-37.346667,887.6)"
       clip-path="url(#clipPath14)" />
    <path
       id="path15"
       d="M 439.031,442.36 252.048,647.132"
       style="fill:none;stroke:#000000;stroke-width:15;stroke-linecap:round;stroke-linejoin:round;stroke-miterlimit:10;stroke-dasharray:none;stroke-opacity:1"
       transform="matrix(1.3333333,0,0,-1.3333333,-37.346667,887.6)"
       clip-path="url(#clipPath16)" />
    <path
       id="path17"
       d="M 424.529,374.307 182.956,638.738"
       style="fill:none;stroke:#000000;stroke-width:15;stroke-linecap:round;stroke-linejoin:round;stroke-miterlimit:10;stroke-dasharray:none;stroke-opacity:1"
       transform="matrix(1.3333333,0,0,-1.3333333,-37.346667,887.6)"
       clip-path="url(#clipPath18)" />
    <path
       id="path19"
       d="M 394.23,323.429 129.661,613.169"
       style="fill:none;stroke:#000000;stroke-width:15;stroke-linecap:round;stroke-linejoin:round;stroke-miterlimit:10;stroke-dasharray:none;stroke-opacity:1"
       transform="matrix(1.3333333,0,0,-1.3333333,-37.346667,887.6)"
       clip-path="url(#clipPath20)" />
    <path
       id="path21"
       d="M 352.379,285.329 87.924,574.943"
       style="fill:none;stroke:#000000;stroke-width:15;stroke-linecap:round;stroke-linejoin:round;stroke-miterlimit:10;stroke-dasharray:none;stroke-opacity:1"
       transform="matrix(1.3333333,0,0,-1.3333333,-37.346667,887.6)"
       clip-path="url(#clipPath22)" />
    <path
       id="path23"
       d="M 299.079,259.64 57.631,524.185"
       style="fill:none;stroke:#000000;stroke-width:15;stroke-linecap:round;stroke-linejoin:round;stroke-miterlimit:10;stroke-dasharray:none;stroke-opacity:1"
       transform="matrix(1.3333333,0,0,-1.3333333,-37.346667,887.6)"
       clip-path="url(#clipPath24)" />
    <path
       id="path25"
       d="M 229.992,251.366 43.009,456.138"
       style="fill:none;stroke:#000000;stroke-width:15;stroke-linecap:round;stroke-linejoin:round;stroke-miterlimit:10;stroke-dasharray:none;stroke-opacity:1"
       transform="matrix(1.3333333,0,0,-1.3333333,-37.346667,887.6)"
       clip-path="url(#clipPath26)" />
  </g>
</svg>
