<?xml version="1.0" encoding="UTF-8" standalone="no"?>
<!-- Created with Inkscape (http://www.inkscape.org/) -->

<svg
   version="1.1"
   id="svg1"
   width="530.96002"
   height="513.89331"
   viewBox="0 0 530.96002 513.89331"
   sodipodi:docname="LapisSilexUstus.pdf"
   xmlns:inkscape="http://www.inkscape.org/namespaces/inkscape"
   xmlns:sodipodi="http://sodipodi.sourceforge.net/DTD/sodipodi-0.dtd"
   xmlns="http://www.w3.org/2000/svg"
   xmlns:svg="http://www.w3.org/2000/svg">
  <defs
     id="defs1">
    <clipPath
       clipPathUnits="userSpaceOnUse"
       id="clipPath2">
      <path
         d="M 0,0.16 V 1122.5601 H 793.59998 V 0.16 Z"
         transform="translate(-239.67999,-589.44)"
         clip-rule="evenodd"
         id="path2" />
    </clipPath>
    <clipPath
       clipPathUnits="userSpaceOnUse"
       id="clipPath4">
      <path
         d="M 0,0.16 V 1122.5601 H 793.59998 V 0.16 Z"
         transform="translate(-293.92001,-299.35999)"
         clip-rule="evenodd"
         id="path4" />
    </clipPath>
    <clipPath
       clipPathUnits="userSpaceOnUse"
       id="clipPath6">
      <path
         d="M 0,0.16 V 1122.5601 H 793.59998 V 0.16 Z"
         transform="translate(-348.64001,-299.35999)"
         clip-rule="evenodd"
         id="path6" />
    </clipPath>
  </defs>
  <sodipodi:namedview
     id="namedview1"
     pagecolor="#505050"
     bordercolor="#eeeeee"
     borderopacity="1"
     inkscape:showpageshadow="0"
     inkscape:pageopacity="0"
     inkscape:pagecheckerboard="0"
     inkscape:deskcolor="#505050">
    <inkscape:page
       x="0"
       y="0"
       inkscape:label="1"
       id="page1"
       width="530.96002"
       height="513.89331"
       margin="0"
       bleed="0" />
  </sodipodi:namedview>
  <g
     id="g1"
     inkscape:groupmode="layer"
     inkscape:label="1">
    <path
       id="path1"
       d="m 0,0 1.12,10.08 1.12,9.76 1.44,9.600001 1.6,9.44 1.6,9.279999 1.92,8.959999 1.92,8.640003 2.08,8.479996 2.24,8 2.400001,7.840004 2.399999,7.519996 2.56,7.040002 2.720001,6.72 2.879999,6.4 2.879999,5.92 2.879999,5.6 3.040001,5.11999 3.200001,4.64 3.200001,4.32001 3.200001,3.84 3.359996,3.36 3.360001,2.88 3.360001,2.4 3.52,1.91999 3.360001,1.44001 3.519996,0.96 3.520005,0.48 3.519996,0.16 3.520004,-0.47999 L 80.959999,159.2 84.32,157.75999 87.839996,155.84 l 3.360001,-2.4 3.360001,-2.88 3.36,-3.36 3.200002,-3.68 3.2,-4.32 3.2,-4.64 3.04,-5.12 3.04,-5.6 2.88,-5.92 2.72,-6.4 2.72,-6.72 2.56,-7.039998 2.56,-7.520004 2.24,-7.68 2.24,-8.159996 2.08001,-8.480004 2.07998,-8.639999 L 137.44,48.32 139.2,39.200001 140.64,29.76 l 1.44,-9.6 1.28,-9.92 1.12,-9.92 0.96,-10.08 0.8,-10.24 0.64,-10.4"
       style="fill:none;stroke:#000000;stroke-width:26.4;stroke-linecap:round;stroke-linejoin:round;stroke-miterlimit:10;stroke-dasharray:none;stroke-opacity:1"
       transform="translate(239.67999,669.51994)"
       clip-path="url(#clipPath2)" />
    <path
       id="path3"
       d="m 0,0 -4,-1.6 -4.32,-0.8 h -4.64 l -4.96,0.48 -5.120001,1.28 L -28.48,1.28 -34.080002,3.84 -40,7.04 l -5.919998,3.84 -6.240002,4.48 -6.240002,5.12 -6.400001,5.76 -6.559998,6.24 -6.559997,6.880001 -6.720001,7.52 -6.720002,7.84 -6.720001,8.48 -6.559998,8.960003 -6.72,9.279998 -6.56,9.759995 -6.56,10.080003 -6.55999,10.4 -6.24001,10.72 -6.24,11.04 -6.08001,11.36 -5.75999,11.36 -5.75999,11.68 -5.44001,11.68 -5.11999,11.84 -4.96001,11.84 -4.8,11.83999 -4.31999,11.84001 -4.16001,11.84 -3.83999,11.67999 -3.52001,11.52002 -3.04001,11.35999 -2.87999,11.04001 -2.40001,10.88 -2.23999,10.56 -1.6,10.23999 -1.44,9.92001 -0.96,9.43998 -0.64,8.96002 -0.16,8.63998 0.16,8.16001 0.48,7.67999 0.96001,7.04001 1.28,6.55999 1.59999,5.92002 2.08,5.28 2.40001,4.79998 2.71998,4.16001 3.04001,3.36001 3.52001,2.87998 3.67999,2.08001 4.16,1.60001 4.32,0.79999 h 4.63999 l 4.96001,-0.48001 5.12,-1.28 5.44,-1.91998 5.6,-2.56 5.76,-3.20001 6.08,-3.84 6.08,-4.48001 6.4,-5.12 6.4,-5.75998 6.56,-6.24002 6.56,-6.88 6.72,-7.51999 6.559999,-7.84 6.720002,-8.48001 6.720001,-8.95999 6.720001,-9.28 6.559998,-9.76001 6.559997,-10.07998 6.400002,-10.4 6.400001,-10.72 6.239998,-11.04001 5.920002,-11.36001 L -35.200001,254.72 -29.6,243.03999 -24.16,231.36 -18.879999,219.52 -13.92,207.67999 -9.28,195.84 -4.8,184 l 4.16,-11.84 3.84,-11.68 3.36,-11.51999 3.2,-11.36 2.88,-11.04001 2.4,-10.88 2.080001,-10.56 L 18.879999,94.879997 20.32,84.959999 21.280001,75.519997 21.92,66.559998 l 0.16,-8.64 -0.16,-8.16 L 21.440001,42.080002 20.48,35.040001 19.200001,28.48 17.6,22.559999 15.52,17.280001 13.12,12.48 10.4,8.32 7.2,4.96 3.84,2.08 0,0"
       style="fill:none;stroke:#000000;stroke-width:26.4;stroke-linecap:round;stroke-linejoin:round;stroke-miterlimit:10;stroke-dasharray:none;stroke-opacity:1"
       transform="translate(293.92001,379.43993)"
       clip-path="url(#clipPath4)" />
    <path
       id="path5"
       d="m 0,0 -3.68,2.08 -3.52,2.88 -3.04,3.36 -2.72,4.16 -2.4,4.800001 -2.080001,5.279998 -1.6,5.920001 -1.279999,6.560001 -0.960001,7.040001 -0.639999,7.679996 -0.16,8.16 0.32,8.64 0.639999,8.959999 0.960001,9.440002 1.280001,9.919998 1.759998,10.240003 2.080001,10.56 2.56,10.88 2.88,11.04001 3.04,11.36 3.52,11.51999 3.84,11.68 4.16,11.84 4.32,11.84 4.8,11.83999 4.960001,11.84001 5.119999,11.84 5.44,11.67999 5.760001,11.68001 5.759998,11.35999 6.080002,11.36001 6.239998,11.04001 6.240001,10.72 6.559998,10.4 6.400001,10.07998 6.720002,9.76001 6.559997,9.28 6.720001,8.95999 6.720002,8.48001 6.719999,7.84 6.72,7.51999 6.56,6.88 6.56,6.24002 6.40001,5.75998 6.23999,5.12 6.24,4.48001 5.92,3.84 5.92,3.20001 5.6,2.56 5.43999,1.91998 5.12001,1.28 4.95999,0.48001 h 4.64 l 4.32001,-0.79999 4,-1.60001 3.84,-2.08001 3.36,-2.87998 3.19999,-3.36001 2.72001,-4.16001 2.4,-4.79998 2.08001,-5.28 1.59999,-5.92002 1.28,-6.55999 0.96,-7.04001 0.48,-7.67999 0.16,-8.16001 -0.16,-8.63998 -0.64,-8.96002 -0.96001,-9.43998 L 209.60001,316 207.84,305.76001 l -2.08001,-10.56 -2.39999,-10.88 -2.88,-11.04001 -3.2,-11.35999 -3.52001,-11.52002 L 190.08,238.72 185.92,226.88 181.44,215.03999 176.8,203.2 171.84,191.36 166.56,179.52 161.11999,167.84 155.52,156.16 149.60001,144.8 143.67999,133.44 137.44,122.4 l -6.40001,-10.72 -6.39999,-10.4 -6.56,-10.080003 -6.56,-9.759995 -6.72,-9.279998 -6.719998,-8.960003 -6.720001,-8.48 -6.559998,-7.84 -6.720001,-7.52 L 71.519997,32.48 64.959999,26.24 58.560001,20.48 52.16,15.36 46.080002,10.88 40,7.04 34.240002,3.84 28.639999,1.28 23.200001,-0.64 18.08,-1.92 13.12,-2.4 H 8.48 L 4.16,-1.6 0,0"
       style="fill:none;stroke:#000000;stroke-width:26.4;stroke-linecap:round;stroke-linejoin:round;stroke-miterlimit:10;stroke-dasharray:none;stroke-opacity:1"
       transform="translate(348.64001,379.43993)"
       clip-path="url(#clipPath6)" />
  </g>
</svg>
