<?xml version="1.0" encoding="UTF-8" standalone="no"?>
<!-- Created with Inkscape (http://www.inkscape.org/) -->

<svg
   version="1.1"
   id="svg1"
   width="498.94666"
   height="345.72"
   viewBox="0 0 498.94666 345.72"
   sodipodi:docname="Magnetit2.pdf"
   xmlns:inkscape="http://www.inkscape.org/namespaces/inkscape"
   xmlns:sodipodi="http://sodipodi.sourceforge.net/DTD/sodipodi-0.dtd"
   xmlns="http://www.w3.org/2000/svg"
   xmlns:svg="http://www.w3.org/2000/svg">
  <defs
     id="defs1">
    <clipPath
       clipPathUnits="userSpaceOnUse"
       id="clipPath2">
      <path
         d="M 0,0.16 V 1122.5601 H 793.59998 V 0.16 Z"
         transform="translate(-283.51999,-712.32001)"
         clip-rule="evenodd"
         id="path2" />
    </clipPath>
    <clipPath
       clipPathUnits="userSpaceOnUse"
       id="clipPath4">
      <path
         d="M 0,0.16 V 1122.5601 H 793.59998 V 0.16 Z"
         transform="translate(-283.51999,-712.32001)"
         clip-rule="evenodd"
         id="path4" />
    </clipPath>
    <clipPath
       clipPathUnits="userSpaceOnUse"
       id="clipPath6">
      <path
         d="M 0,0.16 V 1122.5601 H 793.59998 V 0.16 Z"
         transform="translate(-510.07999,-712.32001)"
         clip-rule="evenodd"
         id="path6" />
    </clipPath>
    <clipPath
       clipPathUnits="userSpaceOnUse"
       id="clipPath8">
      <path
         d="M 0,0.16 V 1122.5601 H 793.59998 V 0.16 Z"
         transform="translate(-661.12,-712.32001)"
         clip-rule="evenodd"
         id="path8" />
    </clipPath>
  </defs>
  <sodipodi:namedview
     id="namedview1"
     pagecolor="#505050"
     bordercolor="#eeeeee"
     borderopacity="1"
     inkscape:showpageshadow="0"
     inkscape:pageopacity="0"
     inkscape:pagecheckerboard="0"
     inkscape:deskcolor="#505050">
    <inkscape:page
       x="0"
       y="0"
       inkscape:label="1"
       id="page1"
       width="498.94666"
       height="345.72"
       margin="0"
       bleed="0" />
  </sodipodi:namedview>
  <g
     id="g1"
     inkscape:groupmode="layer"
     inkscape:label="1">
    <path
       id="path1"
       d="M 0,0 V -5.44 L -0.32,-10.72 -0.8,-16 -1.44,-21.280001 -2.4,-26.4 -3.36,-31.360001 -4.64,-36.16 l -1.28,-4.639999 -1.6,-4.48 -1.6,-4.16 -1.92,-4 -1.92,-3.68 -2.08,-3.360001 -2.240001,-3.04 -2.399999,-2.719998 -2.4,-2.400001 -2.4,-2.080002 -2.560001,-1.760002 -2.559999,-1.279999 -2.72,-0.959999 -2.720001,-0.64 -2.719997,-0.159996 -2.560002,0.159996 -2.720001,0.64 -2.719997,0.959999 -2.560002,1.279999 -2.560001,1.760002 -2.559998,2.080002 -2.400001,2.400001 -2.240002,2.719998 -2.239998,3.04 -2.080002,3.360001 -1.919998,3.68 -1.919998,4 -1.760002,4.16 -1.440002,4.48 L -70.879997,-36.16 -72,-31.360001 -73.120003,-26.4 l -0.799995,5.119999 -0.64,5.280001 -0.480003,5.28 -0.32,5.28 -0.159996,5.44"
       style="fill:none;stroke:#000000;stroke-width:26.4;stroke-linecap:round;stroke-linejoin:round;stroke-miterlimit:10;stroke-dasharray:none;stroke-opacity:1"
       transform="translate(98.093322,173.06662)"
       clip-path="url(#clipPath2)" />
    <path
       id="path3"
       d="m 0,0 0.16,8.16 0.32,8.16 0.64,8.16 0.64,8 1.12,8 1.12,7.68 1.44,7.68 1.6,7.520001 1.76,7.36 2.08,7.199997 2.24,6.880005 2.4,6.559998 2.56,6.400001 2.719999,6.079998 2.880001,5.76 3.039999,5.44 3.200001,5.28 3.199999,4.64 3.52,4.48 3.520001,4 3.68,3.67999 3.84,3.20002 3.84,2.87999 3.840001,2.40001 4,1.91999 4,1.59999 4,0.96001 4.159996,0.8 4,0.15999 L 79.68,150.88 l 4,-0.8 4.159996,-0.96001 4,-1.59999 4,-1.91999 L 99.68,143.2 l 3.84,-2.87999 3.84,-3.20002 3.52,-3.67999 3.68,-4 3.36,-4.48 3.36,-4.64 3.2,-5.28 3.04,-5.44 2.87999,-5.76 2.72,-6.079998 2.56,-6.400001 2.40001,-6.559998 2.24001,-6.880005 1.91999,-7.199997 1.92,-7.36 1.59999,-7.520001 1.44001,-7.68 1.12001,-7.68 0.95999,-8 0.8,-8 0.64,-8.16 0.31999,-8.16 V 0"
       style="fill:none;stroke:#000000;stroke-width:26.4;stroke-linecap:round;stroke-linejoin:round;stroke-miterlimit:10;stroke-dasharray:none;stroke-opacity:1"
       transform="translate(98.093322,173.06662)"
       clip-path="url(#clipPath4)" />
    <path
       id="path5"
       d="M 0,0 V -5.44 L -0.32,-10.72 -0.8,-16 -1.44,-21.280001 -2.4,-26.4 -3.36,-31.360001 -4.64,-36.16 l -1.28,-4.639999 -1.6,-4.48 -1.6,-4.16 -1.92,-4 -1.92,-3.68 -2.08,-3.360001 -2.240001,-3.04 -2.399999,-2.719998 -2.4,-2.400001 -2.4,-2.080002 -2.560001,-1.760002 -2.719999,-1.279999 -2.56,-0.959999 -2.720001,-0.64 -2.719997,-0.159996 -2.720002,0.159996 -2.560001,0.64 -2.719997,0.959999 -2.560002,1.279999 -2.560001,1.760002 -2.559998,2.080002 -2.400001,2.400001 -2.240002,2.719998 -2.239998,3.04 -2.080002,3.360001 -2.080001,3.68 -1.759995,4 -1.760002,4.16 -1.440002,4.48 L -70.879997,-36.16 -72,-31.360001 -73.120003,-26.4 l -0.799995,5.119999 -0.64,5.280001 -0.480003,5.28 -0.32,5.28 -0.159996,5.44"
       style="fill:none;stroke:#000000;stroke-width:26.4;stroke-linecap:round;stroke-linejoin:round;stroke-miterlimit:10;stroke-dasharray:none;stroke-opacity:1"
       transform="translate(324.65332,173.06662)"
       clip-path="url(#clipPath6)" />
    <path
       id="path7"
       d="m 0,0 v -8.16 l -0.48,-8.16 -0.48,-8.16 -0.8,-8 -0.96,-7.84 -1.28,-7.84 -1.28,-7.68 -1.6,-7.520001 -1.92,-7.36 -1.92,-7.199997 -2.24,-6.880005 -2.4,-6.559998 -2.56,-6.400001 -2.719999,-6.079998 -2.880001,-5.76 -3.039999,-5.44 -3.200001,-5.12 -3.359999,-4.8 -3.360001,-4.48 -3.68,-4 -3.68,-3.67999 -3.68,-3.20002 -3.840001,-2.71998 -3.84,-2.40001 -4,-2.08 -4,-1.44001 -4.16,-1.11999 -4,-0.64 -4.159996,-0.31999 -4,0.31999 -4.160003,0.64 -4,1.11999 -4,1.44001 -4,2.08 -3.839997,2.40001 -3.840003,2.71998 -3.84,3.20002 -3.68,3.67999 -3.52,4 -3.52,4.48 -3.2,4.8 -3.2,5.12 -3.04,5.44 -2.88,5.76 -2.72001,6.079998 -2.55999,6.400001 -2.4,6.559998 -2.24,6.880005 -2.08,7.199997 -1.76,7.36 -1.60001,7.520001 -1.43998,7.68 -1.28002,7.84 -0.95999,7.84 -0.8,8 -0.48,8.16 -0.32,8.16 -0.15999,8.16"
       style="fill:none;stroke:#000000;stroke-width:26.4;stroke-linecap:round;stroke-linejoin:round;stroke-miterlimit:10;stroke-dasharray:none;stroke-opacity:1"
       transform="translate(475.69333,173.06662)"
       clip-path="url(#clipPath8)" />
  </g>
</svg>
