<?xml version="1.0" encoding="UTF-8" standalone="no"?>
<!-- Created with Inkscape (http://www.inkscape.org/) -->

<svg
   version="1.1"
   id="svg1"
   width="793.76001"
   height="655.38666"
   viewBox="0 0 793.76001 655.38666"
   sodipodi:docname="Marcasite5.pdf"
   xmlns:inkscape="http://www.inkscape.org/namespaces/inkscape"
   xmlns:sodipodi="http://sodipodi.sourceforge.net/DTD/sodipodi-0.dtd"
   xmlns="http://www.w3.org/2000/svg"
   xmlns:svg="http://www.w3.org/2000/svg">
  <defs
     id="defs1">
    <clipPath
       clipPathUnits="userSpaceOnUse"
       id="clipPath2">
      <path
         d="M 0,0.16 V 1122.5601 H 793.59998 V 0.16 Z"
         transform="translate(-715.67999,-761.28003)"
         clip-rule="evenodd"
         id="path2" />
    </clipPath>
    <clipPath
       clipPathUnits="userSpaceOnUse"
       id="clipPath4">
      <path
         d="M 0,0.16 V 1122.5601 H 793.59998 V 0.16 Z"
         transform="translate(-338.07999,-324.79999)"
         clip-rule="evenodd"
         id="path4" />
    </clipPath>
    <clipPath
       clipPathUnits="userSpaceOnUse"
       id="clipPath6">
      <path
         d="M 0,0.16 V 1122.5601 H 793.59998 V 0.16 Z"
         transform="translate(-338.07999,-861.12)"
         clip-rule="evenodd"
         id="path6" />
    </clipPath>
    <clipPath
       clipPathUnits="userSpaceOnUse"
       id="clipPath8">
      <path
         d="M 0,0.16 V 1122.5601 H 793.59998 V 0.16 Z"
         transform="translate(-479.67999,-719.68)"
         clip-rule="evenodd"
         id="path8" />
    </clipPath>
    <clipPath
       clipPathUnits="userSpaceOnUse"
       id="clipPath10">
      <path
         d="M 0,0.16 V 1122.5601 H 793.59998 V 0.16 Z"
         transform="translate(-479.67999,-719.68)"
         clip-rule="evenodd"
         id="path10" />
    </clipPath>
    <clipPath
       clipPathUnits="userSpaceOnUse"
       id="clipPath12">
      <path
         d="M 0,0.16 V 1122.5601 H 793.59998 V 0.16 Z"
         clip-rule="evenodd"
         id="path12" />
    </clipPath>
    <clipPath
       clipPathUnits="userSpaceOnUse"
       id="clipPath14">
      <path
         d="M 0,0.16 V 1122.5601 H 793.59998 V 0.16 Z"
         transform="translate(-715.67999,-799.03998)"
         clip-rule="evenodd"
         id="path14" />
    </clipPath>
  </defs>
  <sodipodi:namedview
     id="namedview1"
     pagecolor="#505050"
     bordercolor="#eeeeee"
     borderopacity="1"
     inkscape:showpageshadow="0"
     inkscape:pageopacity="0"
     inkscape:pagecheckerboard="0"
     inkscape:deskcolor="#505050">
    <inkscape:page
       x="0"
       y="0"
       inkscape:label="1"
       id="page1"
       width="793.76001"
       height="655.38666"
       margin="0"
       bleed="0" />
  </sodipodi:namedview>
  <g
     id="g1"
     inkscape:groupmode="layer"
     inkscape:label="1">
    <path
       id="path1"
       d="M 0,0 C 0,-52.130001 -42.259998,-94.400002 -94.400002,-94.400002 -146.53999,-94.400002 -188.8,-52.130001 -188.8,0 c 0,52.130001 42.26001,94.400002 94.399998,94.400002 C -42.259998,94.400002 0,52.130001 0,0 Z"
       style="fill:none;stroke:#000000;stroke-width:26.4;stroke-linecap:round;stroke-linejoin:round;stroke-miterlimit:10;stroke-dasharray:none;stroke-opacity:1"
       transform="translate(715.67999,758.6133)"
       clip-path="url(#clipPath2)" />
    <path
       id="path3"
       d="M 0,0 -11.36,-6.72 -22.559999,-12.96 -33.919998,-18.879999 -45.119999,-24.48 -56.32,-29.76 l -11.040001,-4.960001 -11.040001,-4.48 -10.879997,-4.16 -10.720001,-3.68 -10.72,-3.52 -10.56,-2.879998 L -131.52,-56.16 -141.75999,-58.240002 -151.84,-60.16 l -9.76001,-1.439998 -9.59999,-0.960003 -9.44,-0.64 -9.11999,-0.16 -8.96001,0.16 -8.64,0.64 -8.48,0.960003 -8.16,1.439998 -7.84,1.759998 -7.52,2.240002 -7.2,2.560002 -6.88,3.039997 -6.72,3.36 -6.23999,3.680001 -5.92002,4.159999 -5.6,4.48 -5.28,4.800001 -4.79999,5.280001 -4.64001,5.599998 -4,5.920001 -3.84,6.24 -3.35999,6.72 -3.04,6.88 -2.56,7.2 -2.23999,7.520001 -1.76001,7.84 -1.44,8.159998 -0.96,8.479999 -0.64001,8.640004 -0.16,8.959999 0.16,9.120002 0.64001,9.439995 0.96,9.599999 1.44,9.760003 1.92001,10.08 2.07999,10.08 2.72,10.4 2.88,10.55999 3.35999,10.72 3.84,10.72001 4.16,10.88 4.48001,11.03999 4.95999,11.04001 5.12,11.2 5.6,11.2 6.08002,11.19999 6.23999,11.36 6.56,11.36 7.04001,11.20002 7.19999,11.35998 7.52001,11.20001 7.83999,11.19999 8.16001,11.20001 8.47999,11.04001 8.64,11.03998 8.95999,10.88 9.12001,10.88001 9.44001,10.55999 9.59999,10.56 9.76001,10.40002 10.07998,10.23999"
       style="fill:none;stroke:#000000;stroke-width:26.4;stroke-linecap:round;stroke-linejoin:round;stroke-miterlimit:10;stroke-dasharray:none;stroke-opacity:1"
       transform="translate(338.07999,322.13326)"
       clip-path="url(#clipPath4)" />
    <path
       id="path5"
       d="m 0,0 -8.48,-12.96 -8.960001,-12.64 -9.279998,-12.480002 -9.760001,-12 L -46.720001,-61.919998 -57.279999,-73.279999 -68.32,-84.160004 -79.68,-94.879997 -91.360001,-104.96 -103.52,-114.72 l -12.32,-9.44 -12.8,-8.95999 -12.96001,-8.32001"
       style="fill:none;stroke:#000000;stroke-width:26.4;stroke-linecap:round;stroke-linejoin:round;stroke-miterlimit:10;stroke-dasharray:none;stroke-opacity:1"
       transform="translate(338.07999,858.45327)"
       clip-path="url(#clipPath6)" />
    <path
       id="path7"
       d="m 0,0 9.92,-10.24 9.92,-10.399999 9.600001,-10.560002 9.44,-10.559997 L 48,-52.639999 56.959999,-63.52 l 8.639999,-11.039998 8.480004,-11.04 8,-11.200005 8,-11.199997 7.519996,-11.2 7.200002,-11.36 6.88,-11.19999 6.72,-11.36 6.24,-11.36001 5.92,-11.19999 5.6,-11.20001 5.28,-11.2 4.8,-11.03999 4.64,-11.04001 4.15999,-10.87999 3.68001,-10.72 3.36,-10.72001 3.03999,-10.56001 2.56,-10.39999 2.24001,-10.07999 1.75999,-10.08002 1.44,-9.75998 1.12001,-9.6 0.48,-9.44 0.31999,-9.12 -0.31999,-8.96002 -0.48,-8.63999 -1.12001,-8.48001 -1.27999,-8.16 -1.92,-7.84 -2.24001,-7.51999 -2.56,-7.20001 -2.87999,-6.88 -3.52,-6.72 -3.68001,-6.23999 -4.15999,-5.91999 -4.48001,-5.6 -4.95999,-5.28 -5.11999,-4.80002 -5.60001,-4.47998 -5.92,-4.16 -6.4,-3.68 -6.56,-3.36001 -6.88,-3.04001 -7.360002,-2.56 -7.519996,-2.23999 -7.840004,-1.76001 -8.159996,-1.44 -8.32,-0.95999 -8.640003,-0.63999 -8.959999,-0.16 -9.119999,0.16 L 29.6,-457.44 l -9.6,0.95999 -9.92,1.44 -9.92,1.92001 -10.24,2.07999 -10.4,2.72 -10.560001,2.88001 -10.559997,3.51999 -10.880002,3.68002 -10.880001,4.16 -11.040001,4.47998 -11.04,4.96 -11.199997,5.28002 -11.200001,5.59998 -11.2,5.92001 -11.35999,6.23999 -11.20002,6.72001"
       style="fill:none;stroke:#000000;stroke-width:26.4;stroke-linecap:round;stroke-linejoin:round;stroke-miterlimit:10;stroke-dasharray:none;stroke-opacity:1"
       transform="translate(479.67999,717.01327)"
       clip-path="url(#clipPath8)" />
    <path
       id="path9"
       d="m 0,0 -13.12,8.32 -12.64,8.960001 -12.480002,9.439998 -12,9.760001 L -61.919998,46.560001 -73.279999,57.279999 -84.32,68.160004 -94.879997,79.519997 -105.12,91.360001 -114.88,103.36 l -9.44,12.48 -8.79999,12.64 -8.48002,12.96"
       style="fill:none;stroke:#000000;stroke-width:26.4;stroke-linecap:round;stroke-linejoin:round;stroke-miterlimit:10;stroke-dasharray:none;stroke-opacity:1"
       transform="translate(479.67999,717.01327)"
       clip-path="url(#clipPath10)" />
    <path
       id="path11"
       d="M 715.67999,666.88 V 799.03998"
       style="fill:none;stroke:#000000;stroke-width:26.4;stroke-linecap:round;stroke-linejoin:round;stroke-miterlimit:10;stroke-dasharray:none;stroke-opacity:1"
       transform="translate(0,-2.6667253)"
       clip-path="url(#clipPath12)" />
    <path
       id="path13"
       d="m 0,0 0.8,4.96 1.28,4.8 1.76,4.8 1.92,4.640001 2.4,4.479999 2.56,4.32 3.04,4 3.360001,3.84 3.519998,3.68 3.840001,3.200001 4,3.039997 4.319999,2.720002 4.48,2.240001 4.639999,2.079998 4.800003,1.600003 L 51.68,55.68 l 4.959999,0.959999"
       style="fill:none;stroke:#000000;stroke-width:26.4;stroke-linecap:round;stroke-linejoin:round;stroke-miterlimit:10;stroke-dasharray:none;stroke-opacity:1"
       transform="translate(715.67999,796.37325)"
       clip-path="url(#clipPath14)" />
  </g>
</svg>
