<?xml version="1.0" encoding="UTF-8" standalone="no"?>
<!-- Created with Inkscape (http://www.inkscape.org/) -->

<svg
   version="1.1"
   id="svg1"
   width="509.60001"
   height="497.86667"
   viewBox="0 0 509.60001 497.86667"
   sodipodi:docname="Marcasite21.pdf"
   xmlns:inkscape="http://www.inkscape.org/namespaces/inkscape"
   xmlns:sodipodi="http://sodipodi.sourceforge.net/DTD/sodipodi-0.dtd"
   xmlns="http://www.w3.org/2000/svg"
   xmlns:svg="http://www.w3.org/2000/svg">
  <defs
     id="defs1">
    <clipPath
       clipPathUnits="userSpaceOnUse"
       id="clipPath2">
      <path
         d="M 0,0.16 V 1122.5601 H 793.59998 V 0.16 Z"
         transform="translate(-3.3333333e-6)"
         clip-rule="evenodd"
         id="path2" />
    </clipPath>
    <clipPath
       clipPathUnits="userSpaceOnUse"
       id="clipPath4">
      <path
         d="M 0,0.16 V 1122.5601 H 793.59998 V 0.16 Z"
         transform="translate(-547.84002,-334.72)"
         clip-rule="evenodd"
         id="path4" />
    </clipPath>
    <clipPath
       clipPathUnits="userSpaceOnUse"
       id="clipPath6">
      <path
         d="M 0,0.16 V 1122.5601 H 793.59998 V 0.16 Z"
         transform="translate(-547.84002,-561.28003)"
         clip-rule="evenodd"
         id="path6" />
    </clipPath>
  </defs>
  <sodipodi:namedview
     id="namedview1"
     pagecolor="#505050"
     bordercolor="#eeeeee"
     borderopacity="1"
     inkscape:showpageshadow="0"
     inkscape:pageopacity="0"
     inkscape:pagecheckerboard="0"
     inkscape:deskcolor="#505050">
    <inkscape:page
       x="0"
       y="0"
       inkscape:label="1"
       id="page1"
       width="509.60001"
       height="497.86667"
       margin="0"
       bleed="0" />
  </sodipodi:namedview>
  <g
     id="g1"
     inkscape:groupmode="layer"
     inkscape:label="1">
    <path
       id="path1"
       d="M 170.24,561.28003 H 623.35998"
       style="fill:none;stroke:#000000;stroke-width:26.4;stroke-linecap:round;stroke-linejoin:round;stroke-miterlimit:10;stroke-dasharray:none;stroke-opacity:1"
       transform="translate(-141.41333,-312.34673)"
       clip-path="url(#clipPath2)" />
    <path
       id="path3"
       d="m 0,0 -6.72,3.04 -6.56,3.52 -6.24,3.84 -6.08,4.16 -5.92,4.640001 L -36.959999,24 l -5.280003,5.280001 -4.959999,5.6 -4.479999,5.759998 -4.16,6.080002 -3.84,6.399998 -3.520001,6.560001 -3.039997,6.720002 -2.560005,6.879997 -2.239998,7.200004 -1.760002,7.039994 -1.279999,7.36 -0.959999,7.360003 -0.32,7.36 v 7.36 l 0.32,7.36 0.959999,7.35999 1.279999,7.36 1.760002,7.20001 2.239998,7.04 2.560005,6.88 3.039997,6.72 3.520001,6.56 3.84,6.4 4.16,6.08 4.479999,5.75999 4.959999,5.60001 5.280003,5.28 5.439999,4.96 5.92,4.48 6.08,4.16 6.24,3.84 6.56,3.52 6.72,3.04"
       style="fill:none;stroke:#000000;stroke-width:26.4;stroke-linecap:round;stroke-linejoin:round;stroke-miterlimit:10;stroke-dasharray:none;stroke-opacity:1"
       transform="translate(406.42669,22.373276)"
       clip-path="url(#clipPath4)" />
    <path
       id="path5"
       d="m 0,0 -6.72,3.04 -6.56,3.52 -6.24,3.84 -6.08,4.16 -5.92,4.640001 L -36.959999,24 l -5.280003,5.280001 -4.959999,5.6 -4.479999,5.759998 -4.16,6.080002 -3.84,6.399998 -3.520001,6.560001 -3.039997,6.720002 -2.560005,6.879997 -2.239998,7.040001 -1.760002,7.199997 -1.279999,7.36 -0.959999,7.360003 -0.32,7.36 v 7.36 l 0.32,7.36 0.959999,7.35999 1.279999,7.36 1.760002,7.20001 2.239998,7.04 2.560005,6.88 3.039997,6.72 3.520001,6.56 3.84,6.4 4.16,6.08 4.479999,5.75999 4.959999,5.60001 5.280003,5.28 5.439999,4.8 5.92,4.64 6.08,4.16 6.24,3.84 6.56,3.52 6.72,3.04"
       style="fill:none;stroke:#000000;stroke-width:26.4;stroke-linecap:round;stroke-linejoin:round;stroke-miterlimit:10;stroke-dasharray:none;stroke-opacity:1"
       transform="translate(406.42669,248.9333)"
       clip-path="url(#clipPath6)" />
  </g>
</svg>
