<?xml version="1.0" encoding="UTF-8" standalone="no"?>
<!-- Created with Inkscape (http://www.inkscape.org/) -->

<svg
   version="1.1"
   id="svg1"
   width="601.65332"
   height="573.96002"
   viewBox="0 0 601.65332 573.96002"
   sodipodi:docname="Marcasite10.pdf"
   xmlns:inkscape="http://www.inkscape.org/namespaces/inkscape"
   xmlns:sodipodi="http://sodipodi.sourceforge.net/DTD/sodipodi-0.dtd"
   xmlns="http://www.w3.org/2000/svg"
   xmlns:svg="http://www.w3.org/2000/svg">
  <defs
     id="defs1">
    <clipPath
       clipPathUnits="userSpaceOnUse"
       id="clipPath2">
      <path
         d="M 0,0.16 V 1122.5601 H 793.59998 V 0.16 Z"
         transform="translate(-234.88,-467.35999)"
         clip-rule="evenodd"
         id="path2" />
    </clipPath>
    <clipPath
       clipPathUnits="userSpaceOnUse"
       id="clipPath4">
      <path
         d="M 0,0.16 V 1122.5601 H 793.59998 V 0.16 Z"
         transform="translate(-329.92001,-671.20002)"
         clip-rule="evenodd"
         id="path4" />
    </clipPath>
    <clipPath
       clipPathUnits="userSpaceOnUse"
       id="clipPath6">
      <path
         d="M 0,0.16 V 1122.5601 H 793.59998 V 0.16 Z"
         transform="translate(-303.35999,-517.12)"
         clip-rule="evenodd"
         id="path6" />
    </clipPath>
    <clipPath
       clipPathUnits="userSpaceOnUse"
       id="clipPath8">
      <path
         d="M 0,0.16 V 1122.5601 H 793.59998 V 0.16 Z"
         clip-rule="evenodd"
         id="path8" />
    </clipPath>
    <clipPath
       clipPathUnits="userSpaceOnUse"
       id="clipPath10">
      <path
         d="M 0,0.16 V 1122.5601 H 793.59998 V 0.16 Z"
         transform="translate(-412.32001,-516.15998)"
         clip-rule="evenodd"
         id="path10" />
    </clipPath>
    <clipPath
       clipPathUnits="userSpaceOnUse"
       id="clipPath12">
      <path
         d="M 0,0.16 V 1122.5601 H 793.59998 V 0.16 Z"
         clip-rule="evenodd"
         id="path12" />
    </clipPath>
    <clipPath
       clipPathUnits="userSpaceOnUse"
       id="clipPath14">
      <path
         d="M 0,0.16 V 1122.5601 H 793.59998 V 0.16 Z"
         transform="translate(-534.56,-584)"
         clip-rule="evenodd"
         id="path14" />
    </clipPath>
    <clipPath
       clipPathUnits="userSpaceOnUse"
       id="clipPath16">
      <path
         d="M 0,0.16 V 1122.5601 H 793.59998 V 0.16 Z"
         transform="translate(-411.84,-754.08002)"
         clip-rule="evenodd"
         id="path16" />
    </clipPath>
  </defs>
  <sodipodi:namedview
     id="namedview1"
     pagecolor="#505050"
     bordercolor="#eeeeee"
     borderopacity="1"
     inkscape:showpageshadow="0"
     inkscape:pageopacity="0"
     inkscape:pagecheckerboard="0"
     inkscape:deskcolor="#505050">
    <inkscape:page
       x="0"
       y="0"
       inkscape:label="1"
       id="page1"
       width="601.65332"
       height="573.96002"
       margin="0"
       bleed="0" />
  </sodipodi:namedview>
  <g
     id="g1"
     inkscape:groupmode="layer"
     inkscape:label="1">
    <path
       id="path1"
       d="m 0,0 6.72,-0.16 6.88,-0.48 6.72,-0.8 6.720001,-1.12 6.559997,-1.6 L 40,-5.92 46.240002,-8 52.32,-10.4 l 5.920002,-2.72 5.599998,-3.04 5.439999,-3.36 5.120003,-3.520001 4.799995,-3.679998 4.480003,-4 4.159996,-4.320002 3.840004,-4.32 L 95.199997,-44 l 3.200005,-4.799999 2.719998,-4.799999 2.24,-5.120003 1.92,-5.119999 1.44,-5.119999 1.12,-5.279999 0.64,-5.279999 0.16,-5.440002 -0.16,-5.279999 -0.64,-5.279999 -1.12,-5.280003 -1.44,-5.28 -1.92,-5.12 -2.24,-4.96 -2.719998,-4.96 -3.200005,-4.8 L 91.68,-130.39999 87.839996,-134.88 83.68,-139.03999 l -4.480003,-4 -4.799995,-3.84001 -5.120003,-3.51999 L 63.84,-153.60001 58.240002,-156.64 52.32,-159.36 46.240002,-161.75999 40,-163.84 33.599998,-165.75999 27.040001,-167.2 20.32,-168.32001 13.6,-169.28 6.72,-169.75999 0,-169.92"
       style="fill:none;stroke:#000000;stroke-width:26.4;stroke-linecap:round;stroke-linejoin:round;stroke-miterlimit:10;stroke-dasharray:none;stroke-opacity:1"
       transform="translate(234.88,471.37326)"
       clip-path="url(#clipPath2)" />
    <path
       id="path3"
       d="m 0,0 5.28,-4.8 5.12,-4.96 4.64,-5.44 4.320001,-5.439999 3.84,-5.760001 3.679998,-5.92 3.200001,-6.080002 2.719999,-6.239997 2.400002,-6.400002 1.919998,-6.399998 L 38.720001,-64 39.84,-70.720001 40.48,-77.440002 40.799999,-84 l -0.16,-6.720001 L 40,-97.440002 39.040001,-104.16 l -1.440003,-6.56 -1.919998,-6.4 -2.240001,-6.4 -2.72,-6.23999 L 27.68,-136 l -3.52,-5.92 -3.84,-5.75999 -4.32,-5.60001 -4.48,-5.44 -4.96,-5.12 -5.28,-4.8 -5.44,-4.64 -5.92,-4.32001 -6.08,-4.15998 -6.399999,-3.68001 -6.560002,-3.36 -6.719999,-3.2 -7.040001,-2.72 -7.200001,-2.39999 -7.199997,-1.92 -7.520004,-1.76001 -7.360001,-1.28 -7.679992,-0.95999 -7.680001,-0.64 -7.520004,-0.16001"
       style="fill:none;stroke:#000000;stroke-width:26.4;stroke-linecap:round;stroke-linejoin:round;stroke-miterlimit:10;stroke-dasharray:none;stroke-opacity:1"
       transform="translate(329.92001,675.21329)"
       clip-path="url(#clipPath4)" />
    <path
       id="path5"
       d="m 0,0 -6.4,-0.48 -6.72,-0.32 -6.72,0.16 -7.039999,0.48 -7.039999,0.8 -7.040001,1.12 -7.200001,1.6 -7.040001,1.76 -7.200001,2.24 -7.199996,2.56 -7.040001,2.88 -7.040001,3.2 -6.879998,3.360001 -6.720001,3.84 -6.720001,4 -6.4,4.16 -6.4,4.639999 -6.08,4.639999 -5.76,4.959999 -5.6,5.280003 -5.28,5.279999 -5.12,5.599998 -4.64,5.600003 -4.47999,5.760002 -4,5.919998 -3.68001,5.919998 -3.36,5.919998 -3.04,6.080002 -2.55999,6.080001 -2.24001,6.08 -1.75999,6.08 -1.28,6.08 -0.96001,5.92 -0.64,5.91999 -0.16,5.76001 0.32001,5.6 0.79998,5.6 1.12001,5.28 1.44001,5.12 2.08,5.12001 2.23999,4.63999 2.72,4.64 3.2,4.15999 3.52,4.16001 3.84,3.68 4.16,3.51999 4.64,3.20002 4.8,2.72 5.12,2.55999 5.44,2.23999 5.76,1.92 5.92,1.44001 6.08,1.27999 6.4,0.80001 6.56,0.47999 6.720002,0.16001 6.879998,-0.32 6.879997,-0.48001 7.040001,-0.95999 7.200004,-1.28 7.039998,-1.76001 7.2,-1.91999 7.200001,-2.24 7.039997,-2.72 7.200003,-2.88 L -24,189.28 -17.120001,185.75999 -10.4,181.92 l 6.72,-4 6.4,-4.48 6.24,-4.47999 5.92,-4.96001 5.759999,-4.96001"
       style="fill:none;stroke:#000000;stroke-width:26.4;stroke-linecap:round;stroke-linejoin:round;stroke-miterlimit:10;stroke-dasharray:none;stroke-opacity:1"
       transform="translate(303.35999,521.13327)"
       clip-path="url(#clipPath6)" />
    <path
       id="path7"
       d="m 303.04001,516.15997 h 109.28"
       style="fill:none;stroke:#000000;stroke-width:26.4;stroke-linecap:round;stroke-linejoin:round;stroke-miterlimit:10;stroke-dasharray:none;stroke-opacity:1"
       transform="translate(0,4.0132747)"
       clip-path="url(#clipPath8)" />
    <path
       id="path9"
       d="m 0,0 0.16,4.16 0.32,4.16 0.8,4.16 0.96,4 1.12,4 1.44,3.68 1.76,3.68 1.92,3.360001 2.24,3.200001 2.4,3.039997 2.56,2.720001 2.72,2.400001 2.880001,2.239998 3.039999,1.760002 3.2,1.599999 3.199999,1.119999 3.360003,0.960003 3.359997,0.479999 3.36,0.16 3.360001,-0.16 3.36,-0.479999 3.200001,-0.960003 L 53.919998,48.16 57.119999,46.560001 60.16,44.799999 63.040001,42.560001 65.760002,40.16 68.32,37.439999 70.720001,34.400002 72.959999,31.200001 74.879997,27.84 l 1.760002,-3.68 1.440003,-3.68 1.279999,-4 0.959999,-4 0.639999,-4.16 0.480003,-4.16 V 0"
       style="fill:none;stroke:#000000;stroke-width:26.4;stroke-linecap:round;stroke-linejoin:round;stroke-miterlimit:10;stroke-dasharray:none;stroke-opacity:1"
       transform="translate(412.32001,520.17325)"
       clip-path="url(#clipPath10)" />
    <path
       id="path11"
       d="M 493.76001,516.15997 H 643.35998"
       style="fill:none;stroke:#000000;stroke-width:26.4;stroke-linecap:round;stroke-linejoin:round;stroke-miterlimit:10;stroke-dasharray:none;stroke-opacity:1"
       transform="translate(0,4.0132747)"
       clip-path="url(#clipPath12)" />
    <path
       id="path13"
       d="m 0,0 7.04,-0.16 6.88,-0.48 6.879999,-0.8 6.880001,-1.28 6.560002,-1.6 6.559997,-1.76 6.400002,-2.24 6.239998,-2.56 5.920002,-2.88 5.760002,-3.039999 5.439995,-3.360001 5.120002,-3.68 4.800003,-4 4.64,-4 4.159996,-4.48 3.68,-4.479999 3.520004,-4.799999 3.039994,-4.960003 L 102.08,-55.52 l 2.24,-5.119999 1.76,-5.279999"
       style="fill:none;stroke:#000000;stroke-width:26.4;stroke-linecap:round;stroke-linejoin:round;stroke-miterlimit:10;stroke-dasharray:none;stroke-opacity:1"
       transform="translate(534.56,588.01327)"
       clip-path="url(#clipPath14)" />
    <path
       id="path15"
       d="m 0,0 3.52,5.92 3.84,5.76 4.16,5.600001 4.64,5.439998 4.960001,5.120001 5.119999,4.799999 5.6,4.64 5.759998,4.319999 6.080002,4 6.400002,3.840001 6.559997,3.36 6.720002,3.040001 6.879997,2.720001 7.200004,2.399998 7.199997,2.080002 L 92,64.800003 l 7.519997,1.279999 7.520003,0.959999 7.68,0.639999 7.68,0.159996 7.52,-0.159996 7.68001,-0.480003 7.51998,-0.959999 7.52001,-1.279999 7.36,-1.599998 7.36,-2.080002 7.03999,-2.399998 L 181.44,56.16 l 6.72,-3.040001 6.56,-3.360001 6.39999,-3.679996 6.08001,-4 5.91999,-4.320004 5.60001,-4.479999 5.12,-4.959999 4.96,-4.959999 4.64,-5.440001 4.31999,-5.44 3.84002,-5.76 3.51998,-5.92 3.20002,-6.08 2.71998,-6.24 2.24001,-6.4 1.92,-6.4 1.59999,-6.559999 0.96002,-6.719999 0.63998,-6.560002 0.32001,-6.720001 -0.16,-6.719997 -0.63999,-6.560006 -1.12002,-6.719993 -1.43999,-6.560005 -1.92,-6.399994 -2.24,-6.400002 -2.72,-6.240005 -3.2,-6.079997 -3.52001,-5.92 -3.83999,-5.76 -4.16001,-5.6 -4.64,-5.28 -4.95999,-5.12 -5.12001,-4.79999 -5.59999,-4.64 -5.92,-4.32001 -6.08,-4 -6.24,-3.67999 -6.56,-3.52001 -6.88001,-3.04 -6.87999,-2.72001 -7.20001,-2.39999 -7.19999,-1.92 -7.36001,-1.75999 -7.51998,-1.28002 L 138.08,-169.28 130.39999,-169.75999 122.72,-170.08"
       style="fill:none;stroke:#000000;stroke-width:26.4;stroke-linecap:round;stroke-linejoin:round;stroke-miterlimit:10;stroke-dasharray:none;stroke-opacity:1"
       transform="translate(411.84,758.09329)"
       clip-path="url(#clipPath16)" />
  </g>
</svg>
