<?xml version="1.0" encoding="UTF-8" standalone="no"?>
<!-- Created with Inkscape (http://www.inkscape.org/) -->

<svg
   version="1.1"
   id="svg1"
   width="320.17334"
   height="469.84"
   viewBox="0 0 320.17334 469.84"
   sodipodi:docname="Ophite.pdf"
   xmlns:inkscape="http://www.inkscape.org/namespaces/inkscape"
   xmlns:sodipodi="http://sodipodi.sourceforge.net/DTD/sodipodi-0.dtd"
   xmlns="http://www.w3.org/2000/svg"
   xmlns:svg="http://www.w3.org/2000/svg">
  <defs
     id="defs1">
    <clipPath
       clipPathUnits="userSpaceOnUse"
       id="clipPath2">
      <path
         d="M 0,0.16 V 1122.5601 H 793.59998 V 0.16 Z"
         transform="translate(-290.56,-758.40003)"
         clip-rule="evenodd"
         id="path2" />
    </clipPath>
    <clipPath
       clipPathUnits="userSpaceOnUse"
       id="clipPath4">
      <path
         d="M 0,0.16 V 1122.5601 H 793.59998 V 0.16 Z"
         transform="translate(-314.56,-668.79999)"
         clip-rule="evenodd"
         id="path4" />
    </clipPath>
    <clipPath
       clipPathUnits="userSpaceOnUse"
       id="clipPath6">
      <path
         d="M 0,0.16 V 1122.5601 H 793.59998 V 0.16 Z"
         transform="translate(-314.39999,-667.84003)"
         clip-rule="evenodd"
         id="path6" />
    </clipPath>
    <clipPath
       clipPathUnits="userSpaceOnUse"
       id="clipPath8">
      <path
         d="M 0,0.16 V 1122.5601 H 793.59998 V 0.16 Z"
         transform="translate(-357.60001,-478.07999)"
         clip-rule="evenodd"
         id="path8" />
    </clipPath>
    <clipPath
       clipPathUnits="userSpaceOnUse"
       id="clipPath10">
      <path
         d="M 0,0.16 V 1122.5601 H 793.59998 V 0.16 Z"
         transform="translate(-358.56,-476.32001)"
         clip-rule="evenodd"
         id="path10" />
    </clipPath>
    <clipPath
       clipPathUnits="userSpaceOnUse"
       id="clipPath12">
      <path
         d="M 0,0.16 V 1122.5601 H 793.59998 V 0.16 Z"
         transform="translate(-398.72,-416.32001)"
         clip-rule="evenodd"
         id="path12" />
    </clipPath>
    <clipPath
       clipPathUnits="userSpaceOnUse"
       id="clipPath14">
      <path
         d="M 0,0.16 V 1122.5601 H 793.59998 V 0.16 Z"
         transform="translate(-464.16,-410.4)"
         clip-rule="evenodd"
         id="path14" />
    </clipPath>
    <clipPath
       clipPathUnits="userSpaceOnUse"
       id="clipPath16">
      <path
         d="M 0,0.16 V 1122.5601 H 793.59998 V 0.16 Z"
         transform="translate(-464.16,-410.4)"
         clip-rule="evenodd"
         id="path16" />
    </clipPath>
  </defs>
  <sodipodi:namedview
     id="namedview1"
     pagecolor="#505050"
     bordercolor="#eeeeee"
     borderopacity="1"
     inkscape:showpageshadow="0"
     inkscape:pageopacity="0"
     inkscape:pagecheckerboard="0"
     inkscape:deskcolor="#505050">
    <inkscape:page
       x="0"
       y="0"
       inkscape:label="1"
       id="page1"
       width="320.17334"
       height="469.84"
       margin="0"
       bleed="0" />
  </sodipodi:namedview>
  <g
     id="g1"
     inkscape:groupmode="layer"
     inkscape:label="1">
    <path
       id="path1"
       d="m 0,0 4.16,3.52 4.32,2.88 4.64,2.56 4.8,2.08 4.959999,1.6 L 28,13.92 l 5.439999,0.8 5.440002,0.16 L 44.48,14.72 50.240002,14.24 56,13.12 62.080002,11.52 68,9.6 74.239998,7.2 80.32,4.32 l 6.400001,-3.2 6.239998,-3.68 6.239998,-4.16 6.400003,-4.48 6.24,-4.96 6.4,-5.280001 6.24,-5.76 6.24,-6.079998 6.24001,-6.400001 6.07998,-6.720002 6.08,-7.039997 5.92,-7.36 5.92002,-7.680004 5.59999,-8 5.6,-8.159996 5.44001,-8.480004 5.27999,-8.639997 5.12,-8.8 4.96001,-9.12 4.79998,-9.28001 4.48001,-9.27999 4.48,-9.6 4.16,-9.6 3.84,-9.59999 3.67999,-9.76001 3.36,-9.76 3.20002,-9.92 3.03999,-9.76 2.56,-9.92 2.40001,-9.76 2.23999,-9.6 1.76001,-9.76 1.59999,-9.44 1.28,-9.44 0.96,-9.28 0.80001,-9.12 0.31999,-8.95999 0.16,-8.80002 -0.16,-8.47998 -0.48,-8.16 -0.64,-8.16001 -1.12001,-7.67999 -1.28,-7.52002 -1.59999,-7.19998 -1.92,-6.72 -2.24,-6.56 -2.4,-6.24002 -2.72,-5.75998 -2.88,-5.44 -3.2,-4.96002 -3.52,-4.79999 -3.68,-4.16 -4,-3.84 -4.16,-3.35999 -4.47999,-3.04 -4.48002,-2.56 -4.79998,-2.08002 -4.96001,-1.6 -5.12,-1.28 -5.44,-0.79999 -5.44,-0.32001 -5.60001,0.16001 -5.75999,0.64001 -5.76,1.11999 -6.08,1.44001 -5.92,1.91998 -6.24,2.40002 -6.08,2.87998 -6.24,3.20001 -6.4,3.67999 -6.24,4.16001 -6.4,4.48001 L 98.400002,-380 92,-374.72 l -6.239998,5.6"
       style="fill:none;stroke:#000000;stroke-width:26.4;stroke-linecap:round;stroke-linejoin:round;stroke-miterlimit:10;stroke-dasharray:none;stroke-opacity:1"
       transform="translate(290.56,762.39997)"
       clip-path="url(#clipPath2)" />
    <path
       id="path3"
       d="m 0,0 -3.36,-0.8 -3.52,-0.48 -3.52,-0.16 -3.68,0.32 -3.52,0.64 -3.520001,0.96 -3.359999,1.12 -3.36,1.6 -3.200001,1.92 -3.040001,2.24 -3.039997,2.56 -2.720001,2.72 -2.560002,3.04 -2.239997,3.199999 -2.080002,3.360001 -1.759999,3.52 -1.600002,3.680001 -1.279999,3.839998 -0.959999,4 -0.639999,4 -0.32,4 v 4 l 0.16,4 0.639999,3.84 0.8,3.84 1.119999,3.68 1.440002,3.680001 1.759998,3.36 1.920002,3.199997 2.239998,2.880005 2.560002,2.879997 2.559997,2.400002 2.880001,2.239998 3.040001,1.760002 3.200001,1.599998 3.359999,1.279999 3.36,0.959999"
       style="fill:none;stroke:#000000;stroke-width:26.4;stroke-linecap:round;stroke-linejoin:round;stroke-miterlimit:10;stroke-dasharray:none;stroke-opacity:1"
       transform="translate(314.56,672.79993)"
       clip-path="url(#clipPath4)" />
    <path
       id="path5"
       d="M 0,0 3.36,0.32 H 6.72 L 10.24,0 13.6,-0.64 16.959999,-1.6 20.16,-3.04 23.360001,-4.64 26.4,-6.56 29.440001,-8.8 32.16,-11.36 l 2.560001,-2.72 2.399998,-3.040001 2.080002,-3.199999 1.919998,-3.36 1.600002,-3.520001 1.439999,-3.679998 1.119999,-3.680002 0.800003,-3.840001 0.479999,-3.84 0.16,-3.84 -0.16,-4 -0.319999,-3.679996 -0.640004,-3.84 -0.959999,-3.520001 -1.279998,-3.52 L 41.759998,-68 40,-71.199997 37.919998,-74.080002 35.68,-76.800003 l -2.400001,-2.559998 -2.72,-2.239997 L 27.68,-83.360001 24.639999,-85.120003 21.6,-86.400002 18.24,-87.360001"
       style="fill:none;stroke:#000000;stroke-width:26.4;stroke-linecap:round;stroke-linejoin:round;stroke-miterlimit:10;stroke-dasharray:none;stroke-opacity:1"
       transform="translate(314.39999,671.83997)"
       clip-path="url(#clipPath6)" />
    <path
       id="path7"
       d="m 0,0 -4.48,-0.96 -4.48,-0.48 -4.48,-0.16 -4.48,0.32 -4.48,0.64 -4.319999,0.96 -4.320002,1.28 -4.16,1.6 -4,1.92 -3.84,2.4 -3.52,2.56 -3.359997,2.88 -3.040001,3.2 -2.720001,3.36 -2.560002,3.680001 -2.079998,3.679998 -1.760002,4 -1.439998,4.160002 -1.119999,4.16 -0.800003,4.319999 -0.32,4.32 v 4.32 l 0.480003,4.479999 0.799996,4.32 1.120002,4.160004 1.440003,4.159996 1.919998,4 2.080002,3.840004 2.559997,3.68 2.880001,3.360001 3.040001,3.199997 3.359997,3.040001 3.68,2.720001 3.840001,2.239998 4,2.080001 4.160001,1.759995"
       style="fill:none;stroke:#000000;stroke-width:26.4;stroke-linecap:round;stroke-linejoin:round;stroke-miterlimit:10;stroke-dasharray:none;stroke-opacity:1"
       transform="translate(357.60001,482.07993)"
       clip-path="url(#clipPath8)" />
    <path
       id="path9"
       d="m 0,0 3.68,0.64 3.68,0.32 3.68,0.16 3.68,-0.32 3.68,-0.64 3.52,-0.8 3.520001,-1.28 3.359998,-1.44 L 31.84,-5.28 34.880001,-7.2 37.599998,-9.6 40,-12.16 42.240002,-14.88 44.16,-17.92 45.759998,-20.959999 47.040001,-24.16 48,-27.52 l 0.639999,-3.520001 0.32,-3.360001 -0.16,-3.519996 -0.319999,-3.520001 -0.8,-3.52 L 46.720001,-48.32 45.279999,-51.52 43.52,-54.720001 41.599998,-57.759998"
       style="fill:none;stroke:#000000;stroke-width:26.4;stroke-linecap:round;stroke-linejoin:round;stroke-miterlimit:10;stroke-dasharray:none;stroke-opacity:1"
       transform="translate(358.56,480.31995)"
       clip-path="url(#clipPath10)" />
    <path
       id="path11"
       d="m 0,0 -1.44,-3.52 -1.76,-3.52 -1.92,-3.2 -2.24,-3.2 -2.56,-2.88 -2.72,-2.720001 L -15.68,-21.6 -18.879999,-23.84 -22.24,-25.76"
       style="fill:none;stroke:#000000;stroke-width:26.4;stroke-linecap:round;stroke-linejoin:round;stroke-miterlimit:10;stroke-dasharray:none;stroke-opacity:1"
       transform="translate(398.72,420.31995)"
       clip-path="url(#clipPath12)" />
    <path
       id="path13"
       d="m 0,0 -0.16,-1.6 -0.32,-1.76 -0.48,-1.6 -0.8,-1.6 -0.96,-1.44 -1.12,-1.28 -1.28,-1.12 -1.44,-0.96 -1.6,-0.8 -1.6,-0.48 -1.76,-0.32 -1.6,-0.16 -1.76,0.16 -1.759999,0.32 -1.600001,0.48 -1.6,0.8 -1.440001,0.96 -1.279998,1.12 L -23.68,-8 l -0.959999,1.44 -0.800002,1.6 -0.479999,1.6 -0.32,1.76 -0.16,1.6 0.16,1.76 0.32,1.76 0.479999,1.6 0.800002,1.6 0.959999,1.44 1.120001,1.28 1.279998,1.12 1.440001,0.96 1.6,0.8 1.600001,0.48 1.759999,0.32 1.76,0.16 1.6,-0.16 1.76,-0.32 1.6,-0.48 1.6,-0.8 1.44,-0.96 1.28,-1.12 1.12,-1.28 0.96,-1.44 0.8,-1.6 0.48,-1.6 L -0.16,1.76 0,0 v 0 z"
       style="fill:#000000;fill-opacity:1;fill-rule:evenodd;stroke:none"
       transform="translate(464.16,414.39994)"
       clip-path="url(#clipPath14)" />
    <path
       id="path15"
       d="m 0,0 -0.16,-1.6 -0.32,-1.76 -0.48,-1.6 -0.8,-1.6 -0.96,-1.44 -1.12,-1.28 -1.28,-1.12 -1.44,-0.96 -1.6,-0.8 -1.6,-0.48 -1.76,-0.32 -1.6,-0.16 -1.76,0.16 -1.759999,0.32 -1.600001,0.48 -1.6,0.8 -1.440001,0.96 -1.279998,1.12 L -23.68,-8 l -0.959999,1.44 -0.800002,1.6 -0.479999,1.6 -0.32,1.76 -0.16,1.6 0.16,1.76 0.32,1.76 0.479999,1.6 0.800002,1.6 0.959999,1.44 1.120001,1.28 1.279998,1.12 1.440001,0.96 1.6,0.8 1.600001,0.48 1.759999,0.32 1.76,0.16 1.6,-0.16 1.76,-0.32 1.6,-0.48 1.6,-0.8 1.44,-0.96 1.28,-1.12 1.12,-1.28 0.96,-1.44 0.8,-1.6 0.48,-1.6 L -0.16,1.76 0,0"
       style="fill:none;stroke:#000000;stroke-width:0.64;stroke-linecap:round;stroke-linejoin:round;stroke-miterlimit:10;stroke-dasharray:none;stroke-opacity:1"
       transform="translate(464.16,414.39994)"
       clip-path="url(#clipPath16)" />
  </g>
</svg>
