<?xml version="1.0" encoding="UTF-8" standalone="no"?>
<!-- Created with Inkscape (http://www.inkscape.org/) -->

<svg
   version="1.1"
   id="svg1"
   width="615"
   height="503.22668"
   viewBox="0 0 615 503.22668"
   sodipodi:docname="Pyrite6.pdf"
   xmlns:inkscape="http://www.inkscape.org/namespaces/inkscape"
   xmlns:sodipodi="http://sodipodi.sourceforge.net/DTD/sodipodi-0.dtd"
   xmlns="http://www.w3.org/2000/svg"
   xmlns:svg="http://www.w3.org/2000/svg">
  <defs
     id="defs1">
    <clipPath
       clipPathUnits="userSpaceOnUse"
       id="clipPath2">
      <path
         d="M 0,0.16 V 1122.5601 H 793.59998 V 0.16 Z"
         transform="translate(-669.44001,-583.35999)"
         clip-rule="evenodd"
         id="path2" />
    </clipPath>
    <clipPath
       clipPathUnits="userSpaceOnUse"
       id="clipPath4">
      <path
         d="M 0,0.16 V 1122.5601 H 793.59998 V 0.16 Z"
         transform="translate(-329.60001,-379.51999)"
         clip-rule="evenodd"
         id="path4" />
    </clipPath>
    <clipPath
       clipPathUnits="userSpaceOnUse"
       id="clipPath6">
      <path
         d="M 0,0.16 V 1122.5601 H 793.59998 V 0.16 Z"
         transform="translate(-329.60001,-379.51999)"
         clip-rule="evenodd"
         id="path6" />
    </clipPath>
    <clipPath
       clipPathUnits="userSpaceOnUse"
       id="clipPath8">
      <path
         d="M 0,0.16 V 1122.5601 H 793.59998 V 0.16 Z"
         transform="translate(-533.59998,-379.51999)"
         clip-rule="evenodd"
         id="path8" />
    </clipPath>
    <clipPath
       clipPathUnits="userSpaceOnUse"
       id="clipPath10">
      <path
         d="M 0,0.16 V 1122.5601 H 793.59998 V 0.16 Z"
         clip-rule="evenodd"
         id="path10" />
    </clipPath>
    <clipPath
       clipPathUnits="userSpaceOnUse"
       id="clipPath12">
      <path
         d="M 0,0.16 V 1122.5601 H 793.59998 V 0.16 Z"
         transform="translate(-181.60001,-673.91998)"
         clip-rule="evenodd"
         id="path12" />
    </clipPath>
    <clipPath
       clipPathUnits="userSpaceOnUse"
       id="clipPath14">
      <path
         d="M 0,0.16 V 1122.5601 H 793.59998 V 0.16 Z"
         transform="translate(-601.59998,-515.35999)"
         clip-rule="evenodd"
         id="path14" />
    </clipPath>
  </defs>
  <sodipodi:namedview
     id="namedview1"
     pagecolor="#505050"
     bordercolor="#eeeeee"
     borderopacity="1"
     inkscape:showpageshadow="0"
     inkscape:pageopacity="0"
     inkscape:pagecheckerboard="0"
     inkscape:deskcolor="#505050">
    <inkscape:page
       x="0"
       y="0"
       inkscape:label="1"
       id="page1"
       width="615"
       height="503.22668"
       margin="0"
       bleed="0" />
  </sodipodi:namedview>
  <g
     id="g1"
     inkscape:groupmode="layer"
     inkscape:label="1">
    <path
       id="path1"
       d="M 0,0 C 0,-37.549999 -30.4,-68 -67.919998,-68 -105.44,-68 -135.84,-37.549999 -135.84,0 c 0,37.549999 30.4,68 67.920002,68 C -30.4,68 0,37.549999 0,0 Z"
       style="fill:none;stroke:#000000;stroke-width:26.4;stroke-linecap:round;stroke-linejoin:round;stroke-miterlimit:10;stroke-dasharray:none;stroke-opacity:1"
       transform="translate(586.73334,272.35993)"
       clip-path="url(#clipPath2)" />
    <path
       id="path3"
       d="m 0,0 -7.04,-5.12 -7.36,-4.64 -7.68,-4.32 -7.84,-4 -7.999998,-3.52 -8.160004,-3.039999 -8.32,-2.720002 -8.479999,-2.239999 -8.48,-1.760001 L -80,-32.639999 l -8.800003,-0.959999 -8.639999,-0.480004 H -106.24 l -8.8,0.480004 -8.64,0.959999 -8.64001,1.279998 L -140.8,-29.6 l -8.48,2.239999 -8.32001,2.720002 -8.31999,3.039999 -8,3.52 -7.83999,4 -7.52001,4.32 -7.36,4.64 -7.2,5.12"
       style="fill:none;stroke:#000000;stroke-width:26.4;stroke-linecap:round;stroke-linejoin:round;stroke-miterlimit:10;stroke-dasharray:none;stroke-opacity:1"
       transform="translate(246.89334,68.51993)"
       clip-path="url(#clipPath4)" />
    <path
       id="path5"
       d="m 0,0 7.2,4.96 7.36,4.64 7.68,4.32 7.84,4 8.000002,3.520001 8.16,3.039999 8.319999,2.720001 8.48,2.24 8.479996,1.76 8.640007,1.279999 8.799995,0.959999 8.639999,0.479999 H 106.4 l 8.8,-0.479999 8.64,-0.959999 8.64,-1.279999 8.48001,-1.76 8.47999,-2.24 8.31999,-2.720001 8.32001,-3.039999 8,-3.520001 7.84,-4 L 189.44,9.6 196.8,4.96 204,0"
       style="fill:none;stroke:#000000;stroke-width:26.4;stroke-linecap:round;stroke-linejoin:round;stroke-miterlimit:10;stroke-dasharray:none;stroke-opacity:1"
       transform="translate(246.89334,68.51993)"
       clip-path="url(#clipPath6)" />
    <path
       id="path7"
       d="M 0,0 -10.88,8.48 -21.440001,17.6 -31.52,27.040001 -41.439999,36.799999 -50.880001,46.880001 -60,57.279999 l -8.639999,10.880005 -8.32,11.039993 -7.840004,11.360001 L -92.32,102.24 l -7.040001,12 -6.719999,12.16 -6.08,12.48 -5.76,12.64 -5.12,12.80001 -4.8,12.95999 -4.32,13.28 -3.84,13.28"
       style="fill:none;stroke:#000000;stroke-width:26.4;stroke-linecap:round;stroke-linejoin:round;stroke-miterlimit:10;stroke-dasharray:none;stroke-opacity:1"
       transform="translate(450.89331,68.51993)"
       clip-path="url(#clipPath8)" />
    <path
       id="path9"
       d="M 397.60001,583.35998 346.72,719.20001"
       style="fill:none;stroke:#000000;stroke-width:26.4;stroke-linecap:round;stroke-linejoin:round;stroke-miterlimit:10;stroke-dasharray:none;stroke-opacity:1"
       transform="translate(-82.706667,-311.00006)"
       clip-path="url(#clipPath10)" />
    <path
       id="path11"
       d="m 0,0 -1.28,5.76 -0.8,5.76 -0.32,5.760001 -0.16,5.92 0.48,5.759998 0.8,5.920002 L -0.16,40.48 1.44,46.240002 3.36,51.68 5.6,57.119999 8.32,62.240002 11.36,67.199997 14.72,72 l 3.839999,4.480003 4,4.32 4.16,4 4.640002,3.68 4.799999,3.359993 4.959999,3.040001 5.120003,2.560005 5.439998,2.399994 5.599999,1.920004 5.600002,1.44 5.759998,1.28 5.760003,0.64 5.760002,0.48 5.919998,-0.16 5.759994,-0.48 5.760002,-0.8 5.760002,-1.28 5.6,-1.6 5.6,-2.080003 5.28,-2.239998 5.12,-2.879997 4.96,-3.040001 4.8,-3.520004 4.48,-3.680001 4.16,-4 4,-4.319999 3.52,-4.64 3.36,-4.799995 2.87999,-5.120003 L 159.84,55.68 l 2.08,-5.279998 1.92,-5.600003"
       style="fill:none;stroke:#000000;stroke-width:26.4;stroke-linecap:round;stroke-linejoin:round;stroke-miterlimit:10;stroke-dasharray:none;stroke-opacity:1"
       transform="translate(98.893339,362.91992)"
       clip-path="url(#clipPath12)" />
    <path
       id="path13"
       d="M 0,0 -11.2,-1.12 -22.559999,-1.92 -33.759998,-2.24 -45.119999,-1.92 -56.32,-1.28 -67.519997,0 -78.720001,1.6 -89.760002,3.68 -100.64,6.24 l -10.88,3.04 -10.72,3.52 -10.56,3.999999 -10.4,4.480002 -10.08,4.799999 -10.08,5.280001 -9.60001,5.599998 -9.59999,6.080002 -9.11999,6.559997 L -200.64,56.32"
       style="fill:none;stroke:#000000;stroke-width:26.4;stroke-linecap:round;stroke-linejoin:round;stroke-miterlimit:10;stroke-dasharray:none;stroke-opacity:1"
       transform="translate(518.89331,204.35993)"
       clip-path="url(#clipPath14)" />
  </g>
</svg>
