<?xml version="1.0" encoding="UTF-8" standalone="no"?>
<!-- Created with Inkscape (http://www.inkscape.org/) -->

<svg
   version="1.1"
   id="svg1"
   width="592.32001"
   height="347.04001"
   viewBox="0 0 592.32001 347.04001"
   sodipodi:docname="Pyrite3.pdf"
   xmlns:inkscape="http://www.inkscape.org/namespaces/inkscape"
   xmlns:sodipodi="http://sodipodi.sourceforge.net/DTD/sodipodi-0.dtd"
   xmlns="http://www.w3.org/2000/svg"
   xmlns:svg="http://www.w3.org/2000/svg">
  <defs
     id="defs1">
    <clipPath
       clipPathUnits="userSpaceOnUse"
       id="clipPath2">
      <path
         d="M 0,0.16 V 1122.5601 H 793.59998 V 0.16 Z"
         transform="translate(-284.32,-562.88001)"
         clip-rule="evenodd"
         id="path2" />
    </clipPath>
    <clipPath
       clipPathUnits="userSpaceOnUse"
       id="clipPath4">
      <path
         d="M 0,0.16 V 1122.5601 H 793.59998 V 0.16 Z"
         clip-rule="evenodd"
         id="path4" />
    </clipPath>
    <clipPath
       clipPathUnits="userSpaceOnUse"
       id="clipPath6">
      <path
         d="M 0,0.16 V 1122.5601 H 793.59998 V 0.16 Z"
         transform="translate(-510.88,-562.88001)"
         clip-rule="evenodd"
         id="path6" />
    </clipPath>
    <clipPath
       clipPathUnits="userSpaceOnUse"
       id="clipPath8">
      <path
         d="M 0,0.16 V 1122.5601 H 793.59998 V 0.16 Z"
         clip-rule="evenodd"
         id="path8" />
    </clipPath>
  </defs>
  <sodipodi:namedview
     id="namedview1"
     pagecolor="#505050"
     bordercolor="#eeeeee"
     borderopacity="1"
     inkscape:showpageshadow="0"
     inkscape:pageopacity="0"
     inkscape:pagecheckerboard="0"
     inkscape:deskcolor="#505050">
    <inkscape:page
       x="0"
       y="0"
       inkscape:label="1"
       id="page1"
       width="592.32001"
       height="347.04001"
       margin="0"
       bleed="0" />
  </sodipodi:namedview>
  <g
     id="g1"
     inkscape:groupmode="layer"
     inkscape:label="1">
    <path
       id="path1"
       d="m 0,0 -8.16,0.32 -8,0.64 -8.16,1.12 -8,1.44 -7.84,2.08 -7.84,2.24 -7.68,2.88 -7.520001,3.2 -7.200001,3.68 -7.199996,4 -6.880005,4.32 -6.559998,4.639999 -6.400001,5.120001 -6.079998,5.439999 -5.76,5.760002 -5.44,6.079998 -5.12,6.240002 -4.8,6.719997 -4.32001,6.720001 -4.15998,7.199997 -3.68001,7.200005 -3.2,7.519997 -2.88,7.520002 -2.4,7.84 -1.92,7.84 -1.6,8 -1.12,8.16 -0.8,8 -0.31999,8.16"
       style="fill:none;stroke:#000000;stroke-width:26.4;stroke-linecap:round;stroke-linejoin:round;stroke-miterlimit:10;stroke-dasharray:none;stroke-opacity:1"
       transform="translate(188.26667,178.45328)"
       clip-path="url(#clipPath2)" />
    <path
       id="path3"
       d="M 284.32001,562.88 H 510.88"
       style="fill:none;stroke:#000000;stroke-width:26.4;stroke-linecap:round;stroke-linejoin:round;stroke-miterlimit:10;stroke-dasharray:none;stroke-opacity:1"
       transform="translate(-96.053333,-384.42673)"
       clip-path="url(#clipPath4)" />
    <path
       id="path5"
       d="m 0,0 8.16,-0.16 8.16,-0.64 8.16,-1.12 8,-1.6 8,-1.92 7.84,-2.4 7.68,-2.88 7.52,-3.2 7.200001,-3.520001 7.199997,-4.159999 6.880005,-4.32 6.559998,-4.799999 6.400001,-5.120001 6.079998,-5.439999 5.92,-5.760002 5.44,-6.079998 5.12,-6.400001 4.8,-6.719998 4.32,-6.880005 4,-7.040001 3.67999,-7.359993 3.20002,-7.520004 2.87999,-7.679999 2.40001,-7.84 1.91999,-8 1.59999,-8 1.12001,-8 0.64,-8.16 0.15999,-8.16"
       style="fill:none;stroke:#000000;stroke-width:26.4;stroke-linecap:round;stroke-linejoin:round;stroke-miterlimit:10;stroke-dasharray:none;stroke-opacity:1"
       transform="translate(414.82667,178.45328)"
       clip-path="url(#clipPath6)" />
    <path
       id="path7"
       d="M 397.60001,412 V 638.40002"
       style="fill:none;stroke:#000000;stroke-width:26.4;stroke-linecap:round;stroke-linejoin:round;stroke-miterlimit:10;stroke-dasharray:none;stroke-opacity:1"
       transform="translate(-96.053333,-384.42673)"
       clip-path="url(#clipPath8)" />
  </g>
</svg>
