<?xml version="1.0" encoding="UTF-8" standalone="no"?>
<!-- Created with Inkscape (http://www.inkscape.org/) -->

<svg
   version="1.1"
   id="svg1"
   width="633.67999"
   height="635.35999"
   viewBox="0 0 633.67999 635.35999"
   sodipodi:docname="Pyrite.pdf"
   xmlns:inkscape="http://www.inkscape.org/namespaces/inkscape"
   xmlns:sodipodi="http://sodipodi.sourceforge.net/DTD/sodipodi-0.dtd"
   xmlns="http://www.w3.org/2000/svg"
   xmlns:svg="http://www.w3.org/2000/svg">
  <defs
     id="defs1">
    <clipPath
       clipPathUnits="userSpaceOnUse"
       id="clipPath2">
      <path
         d="M 0,0.16 V 1122.5601 H 793.59998 V 0.16 Z"
         transform="translate(-476.16001,-655.84003)"
         clip-rule="evenodd"
         id="path2" />
    </clipPath>
    <clipPath
       clipPathUnits="userSpaceOnUse"
       id="clipPath4">
      <path
         d="M 0,0.16 V 1122.5601 H 793.59998 V 0.16 Z"
         transform="translate(-471.51999,-488.48002)"
         clip-rule="evenodd"
         id="path4" />
    </clipPath>
    <clipPath
       clipPathUnits="userSpaceOnUse"
       id="clipPath6">
      <path
         d="M 0,0.16 V 1122.5601 H 793.59998 V 0.16 Z"
         transform="translate(-424.48001,-535.68)"
         clip-rule="evenodd"
         id="path6" />
    </clipPath>
  </defs>
  <sodipodi:namedview
     id="namedview1"
     pagecolor="#505050"
     bordercolor="#eeeeee"
     borderopacity="1"
     inkscape:showpageshadow="0"
     inkscape:pageopacity="0"
     inkscape:pagecheckerboard="0"
     inkscape:deskcolor="#505050">
    <inkscape:page
       x="0"
       y="0"
       inkscape:label="1"
       id="page1"
       width="633.67999"
       height="635.35999"
       margin="0"
       bleed="0" />
  </sodipodi:namedview>
  <g
     id="g1"
     inkscape:groupmode="layer"
     inkscape:label="1">
    <path
       id="path1"
       d="m 0,0 c 0,-94.900002 -76.93,-171.84 -171.84,-171.84 -94.91,0 -171.83999,76.939998 -171.83999,171.84 0,94.900002 76.92999,171.84 171.83999,171.84 C -76.93,171.84 0,94.900002 0,0 Z"
       style="fill:none;stroke:#000000;stroke-width:26.4;stroke-linecap:round;stroke-linejoin:round;stroke-miterlimit:10;stroke-dasharray:none;stroke-opacity:1"
       transform="translate(366.77334,440.9333)"
       clip-path="url(#clipPath2)" />
    <path
       id="path3"
       d="m 0,0 3.2,-5.92 2.88,-6.4 3.04,-6.559999 3.04,-6.720001 2.88,-7.039999 2.72,-7.200001 2.879999,-7.520001 2.560002,-7.52 2.559999,-7.68 2.56,-7.840001 2.399999,-7.839996 2.24,-8 2.240002,-8 1.919998,-8.000002 1.920002,-8 1.759998,-7.84 1.600003,-8 1.439998,-7.84 1.439999,-7.68001 1.120003,-7.67999 0.959999,-7.36 0.959999,-7.36 0.639999,-7.03999 0.48,-6.88001 0.319999,-6.72 0.16,-6.39999 0.160004,-6.08 -0.160004,-5.92 -0.32,-5.44001 -0.479999,-5.27999 L 48.48,-218.72 l -0.96,-4.48 -0.959999,-4.16 -1.120002,-3.84 -1.279999,-3.36 -1.439999,-3.04001 -1.600002,-2.55999 -1.759998,-2.23999 -1.760003,-1.76001 -2.079998,-1.28 -2.080001,-0.95999 -2.239998,-0.48001 h -2.400002 l -2.399999,0.48001 -2.56,0.79998 -2.719999,1.28 L 18.4,-242.72 l -2.72,2.08 -2.88,2.56 -3.04,3.04001 -3.04,3.36 -2.88,3.67999 -3.2,4 -3.04,4.48 -3.04,4.96 -3.2,5.12 -3.04,5.44 -3.04,5.76 -3.04,6.24 -3.039999,6.24001 -3.040001,6.72 -2.879999,6.87999 -2.880001,7.04001 -2.88,7.19999 -2.720001,7.52001 -2.719997,7.51999 -2.560002,7.68 -2.400001,7.84 -2.399998,7.84 -2.240001,8 -2.079998,8 -2.080002,8.000003 -1.759999,8 -1.760002,8 -1.599998,7.839997 -1.440003,7.84 -1.279998,7.68 -1.119999,7.520001 -0.959999,7.52 -0.960003,7.200001 -0.64,7.039999 L -63.68,-20 l -0.32,6.56 -0.160004,6.4 v 6.08 L -63.84,4.8 l 0.32,5.6 0.479999,5.12 0.639999,4.8 0.960003,4.479999 0.959999,4 1.119999,3.84 1.279999,3.200001 1.600002,3.040001 1.599999,2.399998 1.760002,2.240001 1.919998,1.599999 1.920002,1.280003 2.239998,0.799999"
       style="fill:none;stroke:#000000;stroke-width:26.4;stroke-linecap:round;stroke-linejoin:round;stroke-miterlimit:10;stroke-dasharray:none;stroke-opacity:1"
       transform="translate(362.13332,273.57329)"
       clip-path="url(#clipPath4)" />
    <path
       id="path5"
       d="m 0,0 0.8,2.08 1.28,2.08 1.6,1.92 2.08,1.76 2.56,1.6 2.88,1.44 3.36,1.44 3.68,1.12 4.16,0.96 4.479999,0.8 4.800001,0.8 5.119999,0.48 5.440003,0.319999 5.919998,0.16 h 6.080002 L 60.48,16.799999 67.199997,16.48 73.919998,16 81.120003,15.36 88.32,14.56 l 7.36,-0.96 7.68,-1.12 7.68,-1.28 7.84,-1.44 7.84,-1.6 8,-1.76 8,-1.92 8,-1.92 8,-2.08 7.84,-2.4 8,-2.24 7.83999,-2.56 7.68001,-2.56 7.52001,-2.56 7.51998,-2.72 7.20002,-2.880001 7.03999,-2.879999 6.88,-2.880001 6.56,-3.039999 6.4,-3.040001 6.08,-3.039999 5.75999,-3.040001 5.60002,-3.2 5.12,-3.039997 4.79999,-3.040001 4.48001,-3.200001 4.16,-3.040001 3.67999,-3.039997 3.35999,-2.880001 2.88001,-3.040001 2.55999,-2.880001 2.08002,-2.720001 1.75998,-2.720002 1.28,-2.719993 0.80002,-2.560005 0.47998,-2.399994 -0.15998,-2.400002 -0.48001,-2.240005 -0.79999,-2.239998 -1.44,-1.919998 -1.76001,-1.919999 -2.08001,-1.760002 -2.56,-1.440002 -3.03998,-1.439995 -3.52002,-1.440002 -3.67999,-1.120003 -4.16001,-0.959999 -4.63998,-0.799996 -4.80002,-0.640007 -5.28,-0.479995 -5.43999,-0.32 -5.91999,-0.160004 H 238.24 l -6.4,0.160004 -6.72001,0.479996 L 218.24,-96 l -7.20001,0.639999 -7.19999,0.800003 -7.51999,1.119996 L 188.8,-92.32 l -7.83999,1.279999 -7.84002,1.599999 -7.83999,1.600006 -8,1.759994 -8,1.919998 -8,1.920006 -8,2.239998 -7.84,2.239998 -8,2.400001 -7.68,2.400002 -7.68,2.559997 -7.679998,2.720002 -7.360001,2.720001 -7.200005,2.879997 -7.039993,2.880001 -6.720001,2.880001 -6.560002,3.040001 -6.400001,3.039997 -6.079998,3.040001"
       style="fill:none;stroke:#000000;stroke-width:26.4;stroke-linecap:round;stroke-linejoin:round;stroke-miterlimit:10;stroke-dasharray:none;stroke-opacity:1"
       transform="translate(315.09334,320.77327)"
       clip-path="url(#clipPath6)" />
  </g>
</svg>
