<?xml version="1.0" encoding="UTF-8" standalone="no"?>
<!-- Created with Inkscape (http://www.inkscape.org/) -->

<svg
   version="1.1"
   id="svg1"
   width="348.18668"
   height="491.20001"
   viewBox="0 0 348.18668 491.20001"
   sodipodi:docname="RedBole.pdf"
   xmlns:inkscape="http://www.inkscape.org/namespaces/inkscape"
   xmlns:sodipodi="http://sodipodi.sourceforge.net/DTD/sodipodi-0.dtd"
   xmlns="http://www.w3.org/2000/svg"
   xmlns:svg="http://www.w3.org/2000/svg">
  <defs
     id="defs1">
    <clipPath
       clipPathUnits="userSpaceOnUse"
       id="clipPath2">
      <path
         d="M 0,0.16 V 1122.5601 H 793.59998 V 0.16 Z"
         transform="translate(-456.48001,-422.4)"
         clip-rule="evenodd"
         id="path2" />
    </clipPath>
    <clipPath
       clipPathUnits="userSpaceOnUse"
       id="clipPath4">
      <path
         d="M 0,0.16 V 1122.5601 H 793.59998 V 0.16 Z"
         transform="translate(-3.3333333e-6)"
         clip-rule="evenodd"
         id="path4" />
    </clipPath>
  </defs>
  <sodipodi:namedview
     id="namedview1"
     pagecolor="#505050"
     bordercolor="#eeeeee"
     borderopacity="1"
     inkscape:showpageshadow="0"
     inkscape:pageopacity="0"
     inkscape:pagecheckerboard="0"
     inkscape:deskcolor="#505050">
    <inkscape:page
       x="0"
       y="0"
       inkscape:label="1"
       id="page1"
       width="348.18668"
       height="491.20001"
       margin="0"
       bleed="0" />
  </sodipodi:namedview>
  <g
     id="g1"
     inkscape:groupmode="layer"
     inkscape:label="1">
    <path
       id="path1"
       d="m 0,0 -7.52,-3.04 -7.84,-2.56 -7.840001,-2.24 -8,-1.76 -8.16,-1.28 -8.159999,-0.8 -8.32,-0.48 H -64 l -8.160004,0.48 -8.159996,0.96 -8.160003,1.28 -8,1.92 -7.999997,2.24 -7.68,2.56 -7.68,3.2 -7.36,3.36 -7.36,4 -6.88,4.32 -6.88001,4.639999 -6.39999,4.960001 -6.24001,5.440001 -5.91999,5.599998 -5.6,6.080002 -5.27999,6.239998 -4.96001,6.560001 -4.64,6.880001 -4.16,7.039997 -3.68,7.360001 -3.52,7.520004 -2.88001,7.680001 -2.55999,7.679992 -2.08,8.000004 -1.76,8 -1.28,8.16 -0.8,8.16 -0.31999,8.32 0.15999,8.16 0.48001,8.16 0.95999,8.16001 1.44,8.15998 1.92,8 2.24,7.84002 2.72,7.83999 3.2,7.52001 3.52001,7.51999 4,7.19999 4.31999,6.88001 4.64,6.72 5.12001,6.56 5.43999,6.08 5.76,5.92 6.08001,5.6 6.23999,5.27999 6.72,4.80001 6.88,4.47999 7.04,4.16 7.36,3.68002 7.52,3.35999 7.68,2.88 7.84,2.56 7.999997,2.07999 8,1.6 8.160004,1.12 8.159996,0.80002 8.160004,0.32 8.319999,-0.16 8.16,-0.64001 8.16,-1.12 8.16,-1.44 8,-1.91999 7.84,-2.40002 7.68,-2.72 7.52,-3.19998 7.52,-3.68 7.04,-4 7.039999,-4.32 6.720001,-4.80002 6.399998,-5.12 L 44,248.96001 l 5.919998,-5.92002 5.440003,-6.07998 5.279998,-6.40001 4.800003,-6.56 4.32,-6.88001 4.159996,-7.19999 3.68,-7.36 3.200005,-7.52001 L 83.68,187.36 l 2.400002,-8 2.080002,-7.84 1.439994,-8.16 1.120003,-8.16 0.799996,-8.16001 V 138.72"
       style="fill:none;stroke:#000000;stroke-width:26.4;stroke-linecap:round;stroke-linejoin:round;stroke-miterlimit:10;stroke-dasharray:none;stroke-opacity:1"
       transform="translate(235.02668,110.05327)"
       clip-path="url(#clipPath2)" />
    <path
       id="path3"
       d="M 397.12,334.72 V 787.84003"
       style="fill:none;stroke:#000000;stroke-width:26.4;stroke-linecap:round;stroke-linejoin:round;stroke-miterlimit:10;stroke-dasharray:none;stroke-opacity:1"
       transform="translate(-221.45333,-312.34673)"
       clip-path="url(#clipPath4)" />
  </g>
</svg>
