<?xml version="1.0" encoding="UTF-8" standalone="no"?>
<!-- Created with Inkscape (http://www.inkscape.org/) -->

<svg
   version="1.1"
   id="svg1"
   width="500.26666"
   height="262.95999"
   viewBox="0 0 500.26666 262.95999"
   sodipodi:docname="Sand4.pdf"
   xmlns:inkscape="http://www.inkscape.org/namespaces/inkscape"
   xmlns:sodipodi="http://sodipodi.sourceforge.net/DTD/sodipodi-0.dtd"
   xmlns="http://www.w3.org/2000/svg"
   xmlns:svg="http://www.w3.org/2000/svg">
  <defs
     id="defs1">
    <clipPath
       clipPathUnits="userSpaceOnUse"
       id="clipPath2">
      <path
         d="M 0,0.16 V 1122.5601 H 793.59998 V 0.16 Z"
         transform="translate(-276.79999,-479.76001)"
         clip-rule="evenodd"
         id="path2" />
    </clipPath>
    <clipPath
       clipPathUnits="userSpaceOnUse"
       id="clipPath4">
      <path
         d="M 0,0.16 V 1122.5601 H 793.59998 V 0.16 Z"
         transform="translate(-362.72,-479.76001)"
         clip-rule="evenodd"
         id="path4" />
    </clipPath>
    <clipPath
       clipPathUnits="userSpaceOnUse"
       id="clipPath6">
      <path
         d="M 0,0.16 V 1122.5601 H 793.59998 V 0.16 Z"
         transform="translate(-448.64001,-479.76001)"
         clip-rule="evenodd"
         id="path6" />
    </clipPath>
    <clipPath
       clipPathUnits="userSpaceOnUse"
       id="clipPath8">
      <path
         d="M 0,0.16 V 1122.5601 H 793.59998 V 0.16 Z"
         transform="translate(-534.56,-479.76001)"
         clip-rule="evenodd"
         id="path8" />
    </clipPath>
    <clipPath
       clipPathUnits="userSpaceOnUse"
       id="clipPath10">
      <path
         d="M 0,0.16 V 1122.5601 H 793.59998 V 0.16 Z"
         transform="translate(-620.32001,-479.76001)"
         clip-rule="evenodd"
         id="path10" />
    </clipPath>
    <clipPath
       clipPathUnits="userSpaceOnUse"
       id="clipPath12">
      <path
         d="M 0,0.16 V 1122.5601 H 793.59998 V 0.16 Z"
         transform="translate(-252.32001,-565.59998)"
         clip-rule="evenodd"
         id="path12" />
    </clipPath>
    <clipPath
       clipPathUnits="userSpaceOnUse"
       id="clipPath14">
      <path
         d="M 0,0.16 V 1122.5601 H 793.59998 V 0.16 Z"
         transform="translate(-338.07999,-565.59998)"
         clip-rule="evenodd"
         id="path14" />
    </clipPath>
    <clipPath
       clipPathUnits="userSpaceOnUse"
       id="clipPath16">
      <path
         d="M 0,0.16 V 1122.5601 H 793.59998 V 0.16 Z"
         transform="translate(-424,-565.59998)"
         clip-rule="evenodd"
         id="path16" />
    </clipPath>
    <clipPath
       clipPathUnits="userSpaceOnUse"
       id="clipPath18">
      <path
         d="M 0,0.16 V 1122.5601 H 793.59998 V 0.16 Z"
         transform="translate(-509.92001,-565.59998)"
         clip-rule="evenodd"
         id="path18" />
    </clipPath>
    <clipPath
       clipPathUnits="userSpaceOnUse"
       id="clipPath20">
      <path
         d="M 0,0.16 V 1122.5601 H 793.59998 V 0.16 Z"
         transform="translate(-595.84003,-565.59998)"
         clip-rule="evenodd"
         id="path20" />
    </clipPath>
    <clipPath
       clipPathUnits="userSpaceOnUse"
       id="clipPath22">
      <path
         d="M 0,0.16 V 1122.5601 H 793.59998 V 0.16 Z"
         transform="translate(-222.39999,-642.88001)"
         clip-rule="evenodd"
         id="path22" />
    </clipPath>
    <clipPath
       clipPathUnits="userSpaceOnUse"
       id="clipPath24">
      <path
         d="M 0,0.16 V 1122.5601 H 793.59998 V 0.16 Z"
         transform="translate(-308.32001,-642.88001)"
         clip-rule="evenodd"
         id="path24" />
    </clipPath>
    <clipPath
       clipPathUnits="userSpaceOnUse"
       id="clipPath26">
      <path
         d="M 0,0.16 V 1122.5601 H 793.59998 V 0.16 Z"
         transform="translate(-394.23999,-642.88001)"
         clip-rule="evenodd"
         id="path26" />
    </clipPath>
    <clipPath
       clipPathUnits="userSpaceOnUse"
       id="clipPath28">
      <path
         d="M 0,0.16 V 1122.5601 H 793.59998 V 0.16 Z"
         transform="translate(-480.16,-642.88001)"
         clip-rule="evenodd"
         id="path28" />
    </clipPath>
    <clipPath
       clipPathUnits="userSpaceOnUse"
       id="clipPath30">
      <path
         d="M 0,0.16 V 1122.5601 H 793.59998 V 0.16 Z"
         transform="translate(-565.91998,-642.88001)"
         clip-rule="evenodd"
         id="path30" />
    </clipPath>
  </defs>
  <sodipodi:namedview
     id="namedview1"
     pagecolor="#505050"
     bordercolor="#eeeeee"
     borderopacity="1"
     inkscape:showpageshadow="0"
     inkscape:pageopacity="0"
     inkscape:pagecheckerboard="0"
     inkscape:deskcolor="#505050">
    <inkscape:page
       x="0"
       y="0"
       inkscape:label="1"
       id="page1"
       width="500.26666"
       height="262.95999"
       margin="0"
       bleed="0" />
  </sodipodi:namedview>
  <g
     id="g1"
     inkscape:groupmode="layer"
     inkscape:label="1">
    <path
       id="path1"
       d="m 0,0 c 0,-13.56 -10.99,-24.559999 -24.559999,-24.559999 -13.570002,0 -24.56,10.999999 -24.56,24.559999 0,13.56 10.989998,24.559999 24.56,24.559999 C -10.99,24.559999 0,13.56 0,0 Z"
       style="fill:none;stroke:#000000;stroke-width:26.4;stroke-linecap:round;stroke-linejoin:round;stroke-miterlimit:10;stroke-dasharray:none;stroke-opacity:1"
       transform="translate(276.79999,485.09328)"
       clip-path="url(#clipPath2)" />
    <path
       id="path3"
       d="m 0,0 c 0,-13.56 -10.99,-24.559999 -24.559999,-24.559999 -13.570002,0 -24.56,10.999999 -24.56,24.559999 0,13.56 10.989998,24.559999 24.56,24.559999 C -10.99,24.559999 0,13.56 0,0 Z"
       style="fill:none;stroke:#000000;stroke-width:26.4;stroke-linecap:round;stroke-linejoin:round;stroke-miterlimit:10;stroke-dasharray:none;stroke-opacity:1"
       transform="translate(362.72,485.09328)"
       clip-path="url(#clipPath4)" />
    <path
       id="path5"
       d="m 0,0 c 0,-13.56 -10.99,-24.559999 -24.559999,-24.559999 -13.570002,0 -24.56,10.999999 -24.56,24.559999 0,13.56 10.989998,24.559999 24.56,24.559999 C -10.99,24.559999 0,13.56 0,0 Z"
       style="fill:none;stroke:#000000;stroke-width:26.4;stroke-linecap:round;stroke-linejoin:round;stroke-miterlimit:10;stroke-dasharray:none;stroke-opacity:1"
       transform="translate(448.64001,485.09328)"
       clip-path="url(#clipPath6)" />
    <path
       id="path7"
       d="m 0,0 c 0,-13.56 -10.99,-24.559999 -24.559999,-24.559999 -13.570002,0 -24.56,10.999999 -24.56,24.559999 0,13.56 10.989998,24.559999 24.56,24.559999 C -10.99,24.559999 0,13.56 0,0 Z"
       style="fill:none;stroke:#000000;stroke-width:26.4;stroke-linecap:round;stroke-linejoin:round;stroke-miterlimit:10;stroke-dasharray:none;stroke-opacity:1"
       transform="translate(534.56,485.09328)"
       clip-path="url(#clipPath8)" />
    <path
       id="path9"
       d="M 0,0 C 0,-13.56 -10.96,-24.559999 -24.48,-24.559999 -38,-24.559999 -48.959999,-13.56 -48.959999,0 -48.959999,13.56 -38,24.559999 -24.48,24.559999 -10.96,24.559999 0,13.56 0,0 Z"
       style="fill:none;stroke:#000000;stroke-width:26.4;stroke-linecap:round;stroke-linejoin:round;stroke-miterlimit:10;stroke-dasharray:none;stroke-opacity:1"
       transform="translate(620.32001,485.09328)"
       clip-path="url(#clipPath10)" />
    <path
       id="path11"
       d="m 0,0 c 0,-13.56 -10.99,-24.559999 -24.559999,-24.559999 -13.570002,0 -24.56,10.999999 -24.56,24.559999 0,13.56 10.989998,24.559999 24.56,24.559999 C -10.99,24.559999 0,13.56 0,0 Z"
       style="fill:none;stroke:#000000;stroke-width:26.4;stroke-linecap:round;stroke-linejoin:round;stroke-miterlimit:10;stroke-dasharray:none;stroke-opacity:1"
       transform="translate(252.32001,570.93325)"
       clip-path="url(#clipPath12)" />
    <path
       id="path13"
       d="M 0,0 C 0,-13.56 -10.96,-24.559999 -24.48,-24.559999 -38,-24.559999 -48.959999,-13.56 -48.959999,0 -48.959999,13.56 -38,24.559999 -24.48,24.559999 -10.96,24.559999 0,13.56 0,0 Z"
       style="fill:none;stroke:#000000;stroke-width:26.4;stroke-linecap:round;stroke-linejoin:round;stroke-miterlimit:10;stroke-dasharray:none;stroke-opacity:1"
       transform="translate(338.07999,570.93325)"
       clip-path="url(#clipPath14)" />
    <path
       id="path15"
       d="M 0,0 C 0,-13.56 -10.96,-24.559999 -24.48,-24.559999 -38,-24.559999 -48.959999,-13.56 -48.959999,0 -48.959999,13.56 -38,24.559999 -24.48,24.559999 -10.96,24.559999 0,13.56 0,0 Z"
       style="fill:none;stroke:#000000;stroke-width:26.4;stroke-linecap:round;stroke-linejoin:round;stroke-miterlimit:10;stroke-dasharray:none;stroke-opacity:1"
       transform="translate(424,570.93325)"
       clip-path="url(#clipPath16)" />
    <path
       id="path17"
       d="m 0,0 c 0,-13.56 -10.99,-24.559999 -24.559999,-24.559999 -13.570002,0 -24.56,10.999999 -24.56,24.559999 0,13.56 10.989998,24.559999 24.56,24.559999 C -10.99,24.559999 0,13.56 0,0 Z"
       style="fill:none;stroke:#000000;stroke-width:26.4;stroke-linecap:round;stroke-linejoin:round;stroke-miterlimit:10;stroke-dasharray:none;stroke-opacity:1"
       transform="translate(509.92001,570.93325)"
       clip-path="url(#clipPath18)" />
    <path
       id="path19"
       d="m 0,0 c 0,-13.56 -10.99,-24.559999 -24.559999,-24.559999 -13.570002,0 -24.56,10.999999 -24.56,24.559999 0,13.56 10.989998,24.559999 24.56,24.559999 C -10.99,24.559999 0,13.56 0,0 Z"
       style="fill:none;stroke:#000000;stroke-width:26.4;stroke-linecap:round;stroke-linejoin:round;stroke-miterlimit:10;stroke-dasharray:none;stroke-opacity:1"
       transform="translate(595.84003,570.93325)"
       clip-path="url(#clipPath20)" />
    <path
       id="path21"
       d="m 0,0 c 0,-13.56 -10.99,-24.559999 -24.559999,-24.559999 -13.570002,0 -24.56,10.999999 -24.56,24.559999 0,13.56 10.989998,24.559999 24.56,24.559999 C -10.99,24.559999 0,13.56 0,0 Z"
       style="fill:none;stroke:#000000;stroke-width:26.4;stroke-linecap:round;stroke-linejoin:round;stroke-miterlimit:10;stroke-dasharray:none;stroke-opacity:1"
       transform="translate(222.39999,648.21328)"
       clip-path="url(#clipPath22)" />
    <path
       id="path23"
       d="m 0,0 c 0,-13.56 -10.99,-24.559999 -24.559999,-24.559999 -13.570002,0 -24.56,10.999999 -24.56,24.559999 0,13.56 10.989998,24.559999 24.56,24.559999 C -10.99,24.559999 0,13.56 0,0 Z"
       style="fill:none;stroke:#000000;stroke-width:26.4;stroke-linecap:round;stroke-linejoin:round;stroke-miterlimit:10;stroke-dasharray:none;stroke-opacity:1"
       transform="translate(308.32001,648.21328)"
       clip-path="url(#clipPath24)" />
    <path
       id="path25"
       d="m 0,0 c 0,-13.56 -10.99,-24.559999 -24.559999,-24.559999 -13.570002,0 -24.56,10.999999 -24.56,24.559999 0,13.56 10.989998,24.559999 24.56,24.559999 C -10.99,24.559999 0,13.56 0,0 Z"
       style="fill:none;stroke:#000000;stroke-width:26.4;stroke-linecap:round;stroke-linejoin:round;stroke-miterlimit:10;stroke-dasharray:none;stroke-opacity:1"
       transform="translate(394.23999,648.21328)"
       clip-path="url(#clipPath26)" />
    <path
       id="path27"
       d="m 0,0 c 0,-13.56 -10.99,-24.559999 -24.559999,-24.559999 -13.570002,0 -24.56,10.999999 -24.56,24.559999 0,13.56 10.989998,24.559999 24.56,24.559999 C -10.99,24.559999 0,13.56 0,0 Z"
       style="fill:none;stroke:#000000;stroke-width:26.4;stroke-linecap:round;stroke-linejoin:round;stroke-miterlimit:10;stroke-dasharray:none;stroke-opacity:1"
       transform="translate(480.16,648.21328)"
       clip-path="url(#clipPath28)" />
    <path
       id="path29"
       d="M 0,0 C 0,-13.56 -10.96,-24.559999 -24.48,-24.559999 -38,-24.559999 -48.959999,-13.56 -48.959999,0 -48.959999,13.56 -38,24.559999 -24.48,24.559999 -10.96,24.559999 0,13.56 0,0 Z"
       style="fill:none;stroke:#000000;stroke-width:26.4;stroke-linecap:round;stroke-linejoin:round;stroke-miterlimit:10;stroke-dasharray:none;stroke-opacity:1"
       transform="translate(565.91998,648.21328)"
       clip-path="url(#clipPath30)" />
  </g>
</svg>
