<?xml version="1.0" encoding="UTF-8" standalone="no"?>
<!-- Created with Inkscape (http://www.inkscape.org/) -->

<svg
   version="1.1"
   id="svg1"
   width="494.93332"
   height="495.20001"
   viewBox="0 0 494.93332 495.20001"
   sodipodi:docname="Soapstone7.pdf"
   xmlns:inkscape="http://www.inkscape.org/namespaces/inkscape"
   xmlns:sodipodi="http://sodipodi.sourceforge.net/DTD/sodipodi-0.dtd"
   xmlns="http://www.w3.org/2000/svg"
   xmlns:svg="http://www.w3.org/2000/svg">
  <defs
     id="defs1">
    <clipPath
       clipPathUnits="userSpaceOnUse"
       id="clipPath2">
      <path
         d="M 0,0.16 V 1122.5601 H 793.59998 V 0.16 Z"
         transform="translate(-434.55999,-296.95999)"
         clip-rule="evenodd"
         id="path2" />
    </clipPath>
    <clipPath
       clipPathUnits="userSpaceOnUse"
       id="clipPath4">
      <path
         d="M 0,0.16 V 1122.5601 H 793.59998 V 0.16 Z"
         transform="translate(-532.64001,-658.23999)"
         clip-rule="evenodd"
         id="path4" />
    </clipPath>
    <clipPath
       clipPathUnits="userSpaceOnUse"
       id="clipPath6">
      <path
         d="M 0,0.16 V 1122.5601 H 793.59998 V 0.16 Z"
         transform="translate(-170.24001,-658.23999)"
         clip-rule="evenodd"
         id="path6" />
    </clipPath>
    <clipPath
       clipPathUnits="userSpaceOnUse"
       id="clipPath8">
      <path
         d="M 0,0.16 V 1122.5601 H 793.59998 V 0.16 Z"
         transform="translate(-532.64001,-658.23999)"
         clip-rule="evenodd"
         id="path8" />
    </clipPath>
    <clipPath
       clipPathUnits="userSpaceOnUse"
       id="clipPath10">
      <path
         d="M 0,0.16 V 1122.5601 H 793.59998 V 0.16 Z"
         transform="translate(-3.3333333e-6)"
         clip-rule="evenodd"
         id="path10" />
    </clipPath>
  </defs>
  <sodipodi:namedview
     id="namedview1"
     pagecolor="#505050"
     bordercolor="#eeeeee"
     borderopacity="1"
     inkscape:showpageshadow="0"
     inkscape:pageopacity="0"
     inkscape:pagecheckerboard="0"
     inkscape:deskcolor="#505050">
    <inkscape:page
       x="0"
       y="0"
       inkscape:label="1"
       id="page1"
       width="494.93332"
       height="495.20001"
       margin="0"
       bleed="0" />
  </sodipodi:namedview>
  <g
     id="g1"
     inkscape:groupmode="layer"
     inkscape:label="1">
    <path
       id="path1"
       d="m 0,0 c 0,-20.85 -16.9,-37.759998 -37.759998,-37.759998 -20.860001,0 -37.759999,16.909998 -37.759999,37.759998 0,20.85 16.899998,37.759998 37.759999,37.759998 C -16.9,37.759998 0,20.85 0,0 Z"
       style="fill:none;stroke:#000000;stroke-width:26.4;stroke-linecap:round;stroke-linejoin:round;stroke-miterlimit:10;stroke-dasharray:none;stroke-opacity:1"
       transform="translate(285.14666,56.693266)"
       clip-path="url(#clipPath2)" />
    <path
       id="path3"
       d="m 0,0 v -12.48 l -0.32,-12.640001 -0.48,-12.639997 -0.8,-12.640004 -0.8,-12.479999 -1.28,-12.319996 -1.28,-12.32 -1.6,-12.160003 -1.6,-12 -2.08,-11.68 -2.08,-11.67999 -2.24,-11.36 -2.560001,-11.20002 L -19.84,-168.64 -22.719999,-179.36 -25.76,-189.75999 -28.959999,-199.84 -32.32,-209.60001 -35.84,-219.2 l -3.68,-9.12001 -3.840001,-8.79998 -4,-8.48002 -4,-8 -4.319999,-7.67999 -4.32,-7.20001 -4.480003,-6.87998 -4.64,-6.56002 -4.639999,-5.91999 -4.799996,-5.6 -4.959999,-5.12 -4.800003,-4.64001 -5.120002,-4.15998 -5.119996,-3.68002 -5.120002,-3.19998 -5.12,-2.88001 -5.28,-2.23999 -5.28,-1.76001 -5.28,-1.27999 -5.28,-0.80002 -5.44,-0.31998 -5.28,0.31998 -5.28,0.64001 -5.28,1.12 -5.28,1.76001 -5.27999,2.23999 -5.28,2.56 -5.12001,3.20001 -5.12,3.67999 -4.96,4 -4.96,4.64001 -4.96,4.96 -4.80001,5.6 -4.64,5.91999 -4.63999,6.23999 -4.48,6.88 -4.48,7.20001 -4.16,7.52001 -4.16,8 -4,8.47999 -3.84,8.64 -3.67999,9.12 -3.68001,9.44 -3.36,9.75999 -3.2,10.08001 -3.04001,10.40001 -2.87999,10.55999 -2.72,10.88001 -2.56001,11.19999 -2.39999,11.36001 -2.24,11.51999 -1.92001,11.84 -1.75998,12 -1.6,11.999998 -1.28,12.32 -1.28,12.319999 -0.96002,12.480004 L -270.72,-40 l -0.48001,12.48 -0.31998,12.8 -0.32001,12.48"
       style="fill:none;stroke:#000000;stroke-width:26.4;stroke-linecap:round;stroke-linejoin:round;stroke-miterlimit:10;stroke-dasharray:none;stroke-opacity:1"
       transform="translate(383.22668,417.97326)"
       clip-path="url(#clipPath4)" />
    <path
       id="path5"
       d="m 0,0 0.16,4.64 0.48,4.32 0.8,4.48 1.12,4.16 1.28,4.16 1.76,4 1.92,3.84 2.08,3.679999 2.4,3.36 2.72,3.200001 2.88,2.880001 3.039999,2.559998 L 23.84,47.52 l 3.360001,2.079998 3.519998,1.600003 3.520003,1.279999 3.679996,0.799999 3.68,0.639999 3.840001,0.160004 3.68,-0.160004 3.68,-0.639999 L 56.48,52.48 60.16,51.200001 63.52,49.599998 66.879997,47.52 70.080002,45.279999 73.279999,42.720001 76,39.84 l 2.720001,-3.200001 2.400002,-3.36 2.239998,-3.679999 1.919998,-3.84 1.599998,-4 1.280007,-4.16 1.119995,-4.16 0.800003,-4.48 0.479996,-4.32 V 0"
       style="fill:none;stroke:#000000;stroke-width:26.4;stroke-linecap:round;stroke-linejoin:round;stroke-miterlimit:10;stroke-dasharray:none;stroke-opacity:1"
       transform="translate(20.826672,417.97326)"
       clip-path="url(#clipPath6)" />
    <path
       id="path7"
       d="m 0,0 0.32,4.64 0.48,4.32 0.8,4.48 0.96,4.16 1.44,4.16 1.6,4 1.92,3.84 2.24,3.679999 2.4,3.36 2.56,3.200001 2.88,2.880001 3.039999,2.559998 L 23.84,47.52 l 3.360001,2.079998 3.519998,1.600003 3.680003,1.279999 3.519996,0.799999 3.84,0.639999 3.680001,0.160004 3.68,-0.160004 3.84,-0.639999 3.68,-0.799999 L 60.16,51.200001 63.68,49.599998 67.040001,47.52 70.239998,45.279999 73.279999,42.720001 76.160004,39.84 l 2.559997,-3.200001 2.559998,-3.36 2.080002,-3.679999 1.919998,-3.84 1.599998,-4 1.440003,-4.16 1.120002,-4.16 0.64,-4.48 L 90.559998,4.64 90.720001,0"
       style="fill:none;stroke:#000000;stroke-width:26.4;stroke-linecap:round;stroke-linejoin:round;stroke-miterlimit:10;stroke-dasharray:none;stroke-opacity:1"
       transform="translate(383.22668,417.97326)"
       clip-path="url(#clipPath8)" />
    <path
       id="path9"
       d="M 396.79999,334.72 V 712.32001"
       style="fill:none;stroke:#000000;stroke-width:26.4;stroke-linecap:round;stroke-linejoin:round;stroke-miterlimit:10;stroke-dasharray:none;stroke-opacity:1"
       transform="translate(-149.41333,-240.26673)"
       clip-path="url(#clipPath10)" />
  </g>
</svg>
