<?xml version="1.0" encoding="UTF-8" standalone="no"?>
<!-- Created with Inkscape (http://www.inkscape.org/) -->

<svg
   version="1.1"
   id="svg1"
   width="498.93332"
   height="501.88"
   viewBox="0 0 498.93332 501.88"
   sodipodi:docname="Soapstone13.pdf"
   xmlns:inkscape="http://www.inkscape.org/namespaces/inkscape"
   xmlns:sodipodi="http://sodipodi.sourceforge.net/DTD/sodipodi-0.dtd"
   xmlns="http://www.w3.org/2000/svg"
   xmlns:svg="http://www.w3.org/2000/svg">
  <defs
     id="defs1">
    <clipPath
       clipPathUnits="userSpaceOnUse"
       id="clipPath2">
      <path
         d="M 0,0.16 V 1122.5601 H 793.59998 V 0.16 Z"
         transform="translate(-245.75999,-636.79999)"
         clip-rule="evenodd"
         id="path2" />
    </clipPath>
    <clipPath
       clipPathUnits="userSpaceOnUse"
       id="clipPath4">
      <path
         d="M 0,0.16 V 1122.5601 H 793.59998 V 0.16 Z"
         transform="translate(-472.32001,-636.79999)"
         clip-rule="evenodd"
         id="path4" />
    </clipPath>
    <clipPath
       clipPathUnits="userSpaceOnUse"
       id="clipPath6">
      <path
         d="M 0,0.16 V 1122.5601 H 793.59998 V 0.16 Z"
         clip-rule="evenodd"
         id="path6" />
    </clipPath>
    <clipPath
       clipPathUnits="userSpaceOnUse"
       id="clipPath8">
      <path
         d="M 0,0.16 V 1122.5601 H 793.59998 V 0.16 Z"
         clip-rule="evenodd"
         id="path8" />
    </clipPath>
  </defs>
  <sodipodi:namedview
     id="namedview1"
     pagecolor="#505050"
     bordercolor="#eeeeee"
     borderopacity="1"
     inkscape:showpageshadow="0"
     inkscape:pageopacity="0"
     inkscape:pagecheckerboard="0"
     inkscape:deskcolor="#505050">
    <inkscape:page
       x="0"
       y="0"
       inkscape:label="1"
       id="page1"
       width="498.93332"
       height="501.88"
       margin="0"
       bleed="0" />
  </sodipodi:namedview>
  <g
     id="g1"
     inkscape:groupmode="layer"
     inkscape:label="1">
    <path
       id="path1"
       d="m 0,0 c 0,-20.85 -16.9,-37.759998 -37.759998,-37.759998 -20.860001,0 -37.759999,16.909998 -37.759999,37.759998 0,20.85 16.899998,37.759998 37.759999,37.759998 C -16.9,37.759998 0,20.85 0,0 Z"
       style="fill:none;stroke:#000000;stroke-width:26.4;stroke-linecap:round;stroke-linejoin:round;stroke-miterlimit:10;stroke-dasharray:none;stroke-opacity:1"
       transform="translate(97.679995,324.45326)"
       clip-path="url(#clipPath2)" />
    <path
       id="path3"
       d="m 0,0 8.16,-0.16 8.16,-0.64 8.16,-1.12 8,-1.6 8,-1.92 7.84,-2.4 7.68,-2.88 7.52,-3.2 7.200001,-3.68 7.199997,-4 6.880005,-4.48 6.719994,-4.639999 6.240005,-5.120001 6.079998,-5.599999 5.92,-5.760002 5.44,-6.079998 5.12,-6.400001 4.8,-6.559998 4.32,-6.880005 4,-7.199997 3.67999,-7.199997 3.20002,-7.520004 2.87999,-7.679999 2.40001,-7.84 1.91999,-8 1.59999,-8 1.12001,-8.16 0.64,-8.16 0.15999,-8.15999 -0.15999,-8.16001 -0.64,-8.16 -1.12001,-8.16 -1.59999,-8 -1.91999,-7.84 -2.40001,-7.84 -2.87999,-7.68 -3.20002,-7.51999 -3.67999,-7.36 -4,-7.04001 -4.32,-7.04 -4.8,-6.55999 -5.12,-6.40001 -5.44,-6.08 -5.92,-5.76001 -6.079998,-5.43998 -6.240005,-5.12002 -6.719994,-4.79999 -6.880005,-4.48001 -7.199997,-4 L 63.52,-288.16 56,-291.35999 l -7.68,-2.72 -7.84,-2.40002 -8,-2.07999 -8,-1.44 -8.16,-1.12 -8.16,-0.64001 -8.16,-0.31998 -8.16,0.31998 -8.16,0.64001 -8,1.12 -8.16,1.44 -7.84,2.07999 -7.84,2.40002 -7.68,2.72 -7.520001,3.19999 -7.36,3.67999 -7.040001,4 -6.879997,4.48001 -6.720002,4.79999 -6.400001,5.12002 -6.079998,5.43998 -5.76,5.76001 -5.44,6.08 -5.12,6.40001 -4.8,6.55999 -4.48,7.04 -4,7.04001 -3.52001,7.36 -3.36,7.51999 -2.71998,7.68 -2.40001,7.84 -2.08,7.84 -1.44001,8 -1.11999,8.16 -0.64,8.16 -0.31999,8.16001"
       style="fill:none;stroke:#000000;stroke-width:26.4;stroke-linecap:round;stroke-linejoin:round;stroke-miterlimit:10;stroke-dasharray:none;stroke-opacity:1"
       transform="translate(324.24001,324.45326)"
       clip-path="url(#clipPath4)" />
    <path
       id="path5"
       d="M 472.32001,636.79999 H 245.75999"
       style="fill:none;stroke:#000000;stroke-width:26.4;stroke-linecap:round;stroke-linejoin:round;stroke-miterlimit:10;stroke-dasharray:none;stroke-opacity:1"
       transform="translate(-148.08,-312.34673)"
       clip-path="url(#clipPath6)" />
    <path
       id="path7"
       d="M 321.28,485.76001 V 787.84003"
       style="fill:none;stroke:#000000;stroke-width:26.4;stroke-linecap:round;stroke-linejoin:round;stroke-miterlimit:10;stroke-dasharray:none;stroke-opacity:1"
       transform="translate(-148.08,-312.34673)"
       clip-path="url(#clipPath8)" />
  </g>
</svg>
