<?xml version="1.0" encoding="UTF-8" standalone="no"?>
<!-- Created with Inkscape (http://www.inkscape.org/) -->

<svg
   version="1.1"
   id="svg1"
   width="353.51999"
   height="495.21332"
   viewBox="0 0 353.51999 495.21332"
   sodipodi:docname="Soapstone8.pdf"
   xmlns:inkscape="http://www.inkscape.org/namespaces/inkscape"
   xmlns:sodipodi="http://sodipodi.sourceforge.net/DTD/sodipodi-0.dtd"
   xmlns="http://www.w3.org/2000/svg"
   xmlns:svg="http://www.w3.org/2000/svg">
  <defs
     id="defs1">
    <clipPath
       clipPathUnits="userSpaceOnUse"
       id="clipPath2">
      <path
         d="M 0,0.16 V 1122.5601 H 793.59998 V 0.16 Z"
         transform="translate(-3.3333333e-6)"
         clip-rule="evenodd"
         id="path2" />
    </clipPath>
    <clipPath
       clipPathUnits="userSpaceOnUse"
       id="clipPath4">
      <path
         d="M 0,0.16 V 1122.5601 H 793.59998 V 0.16 Z"
         transform="translate(-3.3333333e-6)"
         clip-rule="evenodd"
         id="path4" />
    </clipPath>
    <clipPath
       clipPathUnits="userSpaceOnUse"
       id="clipPath6">
      <path
         d="M 0,0.16 V 1122.5601 H 793.59998 V 0.16 Z"
         transform="translate(-520.15997,-786.23999)"
         clip-rule="evenodd"
         id="path6" />
    </clipPath>
    <clipPath
       clipPathUnits="userSpaceOnUse"
       id="clipPath8">
      <path
         d="M 0,0.16 V 1122.5601 H 793.59998 V 0.16 Z"
         transform="translate(-434.23999,-554.56)"
         clip-rule="evenodd"
         id="path8" />
    </clipPath>
  </defs>
  <sodipodi:namedview
     id="namedview1"
     pagecolor="#505050"
     bordercolor="#eeeeee"
     borderopacity="1"
     inkscape:showpageshadow="0"
     inkscape:pageopacity="0"
     inkscape:pagecheckerboard="0"
     inkscape:deskcolor="#505050">
    <inkscape:page
       x="0"
       y="0"
       inkscape:label="1"
       id="page1"
       width="353.51999"
       height="495.21332"
       margin="0"
       bleed="0" />
  </sodipodi:namedview>
  <g
     id="g1"
     inkscape:groupmode="layer"
     inkscape:label="1">
    <path
       id="path1"
       d="m 416.16,361.28 113.60001,23.84"
       style="fill:none;stroke:#000000;stroke-width:26.4;stroke-linecap:round;stroke-linejoin:round;stroke-miterlimit:10;stroke-dasharray:none;stroke-opacity:1"
       transform="translate(-225.45333,-311.00006)"
       clip-path="url(#clipPath2)" />
    <path
       id="path3"
       d="M 382.07999,785.28003 481.12,336.16"
       style="fill:none;stroke:#000000;stroke-width:26.4;stroke-linecap:round;stroke-linejoin:round;stroke-miterlimit:10;stroke-dasharray:none;stroke-opacity:1"
       transform="translate(-225.45333,-311.00006)"
       clip-path="url(#clipPath4)" />
    <path
       id="path5"
       d="m 0,0 2.88,-11.68 2.56,-12 2.4,-11.84 2.4,-12 2.24,-11.840001 2.08,-11.839996 1.92,-11.68 1.76,-11.840004 1.6,-11.519999 1.440001,-11.52 1.439998,-11.20001 L 23.84,-140.16 24.959999,-151.2 25.76,-161.92 l 0.799999,-10.56 0.480002,-10.4 0.32,-10.08001 L 27.68,-202.72 v -9.60001 -9.28 L 27.360001,-230.56 26.879999,-239.2 26.4,-247.52 l -0.8,-7.84 -0.800001,-7.68001 -1.119999,-7.19998 -1.28,-6.72 -1.279999,-6.4 L 19.52,-289.44 l -1.6,-5.60001 -1.76,-5.11999 -2.08,-4.63999 -2.08,-4.32001 -2.24,-3.83999 -2.24,-3.36002 -2.56,-2.88 -2.56,-2.4 -2.72,-1.91998 -2.88,-1.60001 -3.04,-0.95999 -3.04,-0.48001 -3.2,-0.16 -3.2,0.48001 -3.360001,0.95999 -3.519998,1.44 -3.520001,1.76001 -3.68,2.4 -3.679999,2.72 -3.68,3.35998 -3.84,3.68 -3.84,4.16 -3.84,4.64001 -4,5.12 -3.840001,5.44 -4,5.91999 -4.000003,6.40002 -4,6.72 -4,7.19998 -4.159996,7.52002 -4,7.83998 -4,8.16001 -4,8.47999"
       style="fill:none;stroke:#000000;stroke-width:26.4;stroke-linecap:round;stroke-linejoin:round;stroke-miterlimit:10;stroke-dasharray:none;stroke-opacity:1"
       transform="translate(294.70664,475.23993)"
       clip-path="url(#clipPath6)" />
    <path
       id="path7"
       d="m 0,0 0.16,-9.28 -0.32,-9.12 -0.32,-8.640001 -0.48,-8.479999 -0.64,-8 -0.8,-7.680001 -0.96,-7.36 -1.12,-7.039997 -1.28,-6.560006 L -7.2,-78.239998 -8.8,-84 l -1.6,-5.440002 -1.92,-4.96 -1.92,-4.479995 -2.24,-4.000003 -2.239999,-3.68 -2.400002,-3.04 -2.559999,-2.72 -2.56,-2.24 -2.880001,-1.76 -2.719999,-1.28 -3.040001,-0.8 -3.039997,-0.48 -3.200001,0.16 -3.360001,0.64 -3.36,0.96 -3.520001,1.6 -3.52,2.08 -3.520001,2.4 -3.68,2.88 -3.68,3.36 -3.839996,3.84 -3.840004,4.320001 -3.839997,4.800003 -4,5.119995 -3.840004,5.599998 -4,5.920006 -4,6.399994 -4,6.720001 -3.999997,7.200001 -4,7.52 -4,7.840001 -3.84,8.319999 -4,8.480002 -3.84,8.959999 -4,9.12 -3.84,9.6 -3.84,9.76 -3.68,9.919999 -3.68,10.240002 -3.68,10.559998 -3.51999,10.720001 -3.52001,10.880001 -3.36,11.040001 -3.36,11.199997 -3.2,11.360001 -3.04,11.52 -3.04,11.68 -2.88,11.68 -2.88001,11.68 -2.71998,11.83999 -2.56002,11.68001 -2.39999,11.84 -2.24,11.83999 -2.24,11.84001 -2.08,11.68 -1.92,11.68001"
       style="fill:none;stroke:#000000;stroke-width:26.4;stroke-linecap:round;stroke-linejoin:round;stroke-miterlimit:10;stroke-dasharray:none;stroke-opacity:1"
       transform="translate(208.78666,243.55994)"
       clip-path="url(#clipPath8)" />
  </g>
</svg>
