<?xml version="1.0" encoding="UTF-8" standalone="no"?>
<!-- Created with Inkscape (http://www.inkscape.org/) -->

<svg
   version="1.1"
   id="svg1"
   width="382.88"
   height="496.53333"
   viewBox="0 0 382.88 496.53333"
   sodipodi:docname="Soapstone16.pdf"
   xmlns:inkscape="http://www.inkscape.org/namespaces/inkscape"
   xmlns:sodipodi="http://sodipodi.sourceforge.net/DTD/sodipodi-0.dtd"
   xmlns="http://www.w3.org/2000/svg"
   xmlns:svg="http://www.w3.org/2000/svg">
  <defs
     id="defs1">
    <clipPath
       clipPathUnits="userSpaceOnUse"
       id="clipPath2">
      <path
         d="M 0,0.16 V 1122.5601 H 793.59998 V 0.16 Z"
         transform="translate(-263.20001,-778.08002)"
         clip-rule="evenodd"
         id="path2" />
    </clipPath>
    <clipPath
       clipPathUnits="userSpaceOnUse"
       id="clipPath4">
      <path
         d="M 0,0.16 V 1122.5601 H 793.59998 V 0.16 Z"
         transform="translate(-414.23999,-703.20001)"
         clip-rule="evenodd"
         id="path4" />
    </clipPath>
    <clipPath
       clipPathUnits="userSpaceOnUse"
       id="clipPath6">
      <path
         d="M 0,0.16 V 1122.5601 H 793.59998 V 0.16 Z"
         transform="translate(-414.23999,-703.20001)"
         clip-rule="evenodd"
         id="path6" />
    </clipPath>
  </defs>
  <sodipodi:namedview
     id="namedview1"
     pagecolor="#505050"
     bordercolor="#eeeeee"
     borderopacity="1"
     inkscape:showpageshadow="0"
     inkscape:pageopacity="0"
     inkscape:pagecheckerboard="0"
     inkscape:deskcolor="#505050">
    <inkscape:page
       x="0"
       y="0"
       inkscape:label="1"
       id="page1"
       width="382.88"
       height="496.53333"
       margin="0"
       bleed="0" />
  </sodipodi:namedview>
  <g
     id="g1"
     inkscape:groupmode="layer"
     inkscape:label="1">
    <path
       id="path1"
       d="M 0,0 4.48,-7.52 8.8,-15.2 13.12,-23.360001 17.440001,-31.84 21.6,-40.48 l 4.16,-8.959999 4.32,-9.280002 4.000002,-9.440003 4.16,-9.599998 3.84,-9.919998 4,-10.080002 L 49.919998,-108 l 3.68,-10.4 3.680001,-10.56001 3.52,-10.55999 3.360005,-10.72 3.359993,-10.72001 3.200004,-10.87999 3.040001,-10.72 2.879997,-10.88 2.720002,-10.88001 2.720001,-10.87999 2.400001,-10.72 2.399994,-10.72 2.080002,-10.56 2.080002,-10.56001 1.919998,-10.39999 1.599999,-10.23999 1.600006,-10.08002 1.279998,-9.91998 1.119996,-9.60001 0.959999,-9.60001 0.800003,-9.11999 0.64,-8.95999 0.48,-8.80002 0.16,-8.47998 0.16,-8.16001 -0.16,-7.83999 -0.32,-7.52002 -0.48,-7.03998 -0.64,-6.88 -0.799999,-6.4 -1.120003,-6.08001 -1.119995,-5.60001 -1.440003,-5.28 -1.599998,-4.95999 -1.599999,-4.48001 -1.920005,-4 -2.079995,-3.51999 -2.240005,-3.20001 -2.400002,-2.72 -2.559997,-2.23999 -2.559998,-1.76001 -2.880005,-1.28 -2.879997,-0.95999 -3.199997,-0.47999 -3.200004,0.15998 -3.359997,0.48001 -3.360001,0.95999 -3.52,1.44 -3.680001,1.92002 -3.84,2.23999 -3.84,2.88 -3.84,3.20001 -4,3.68 -4.16,4.16 -4,4.47998 -4.32,4.96002 -4.159999,5.28 -4.32,5.75998 -4.16,6.08002 -4.32,6.55999 -4.32,6.88001 -4.32,7.19998 -4.32,7.68002 -4.32,7.84 -4.32,8.16 -4.32,8.47999 -4.16,8.80001 -4.319999,9.12 -4.16,9.28 -4.160002,9.44"
       style="fill:none;stroke:#000000;stroke-width:26.4;stroke-linecap:round;stroke-linejoin:round;stroke-miterlimit:10;stroke-dasharray:none;stroke-opacity:1"
       transform="translate(56.426679,464.39996)"
       clip-path="url(#clipPath2)" />
    <path
       id="path3"
       d="M 0,0 0.32,5.92 0.8,11.68 1.76,17.280001 2.88,22.879999 4.48,28.48 6.4,33.759998 8.64,39.040001 11.2,44 l 2.72,4.799999 3.200001,4.64 3.359999,4.319999 3.68,4.16 3.84,3.840004 4.16,3.360001 4.32,3.199997 4.479999,2.879997 4.639999,2.400001 4.800004,2.239998 4.959999,1.600006 4.959999,1.439995 5.120002,0.959999 5.119996,0.640007 5.120002,0.159996 5.120003,-0.159996 5.119995,-0.640007 5.120003,-0.959999 L 96,81.440002 l 4.96,-1.600006 4.8,-2.239998 4.64,-2.400001 4.48,-2.879997 4.32,-3.199997 4.16,-3.360001 3.84,-3.840004 3.68,-4.16 3.36,-4.319999 3.04,-4.64 L 140.16,44 142.72,39.040001 144.96001,33.759998 146.88,28.48 l 1.44001,-5.600001 1.28,-5.599998 0.79998,-5.600001 0.64,-5.76 V 0"
       style="fill:none;stroke:#000000;stroke-width:26.4;stroke-linecap:round;stroke-linejoin:round;stroke-miterlimit:10;stroke-dasharray:none;stroke-opacity:1"
       transform="translate(207.46666,389.51995)"
       clip-path="url(#clipPath4)" />
    <path
       id="path5"
       d="m 0,0 -0.48,-4.8 -0.8,-4.96 -1.28,-4.8 L -4,-19.200001 -5.92,-23.68 -8.16,-28 l -2.4,-4.16 -2.88,-3.84 -3.04,-3.68 -3.2,-3.360001 -3.520001,-3.040001 -3.679998,-2.879997 -3.84,-2.400002 -4.160002,-2.079998 -4.16,-1.760002 -4.16,-1.279999 -4.479999,-0.959999 -4.32,-0.640003 -4.48,-0.16 -4.479999,0.16 -4.480003,0.640003 -4.32,0.959999 -4.32,1.279999 -4.159996,1.760002 -4,2.079998 -3.840004,2.400002 -3.68,2.879997 -3.519997,3.040001 -3.36,3.360001 -3.040001,3.68 -2.72,3.84 -2.4,4.16 -2.24,4.32 -1.92,4.479999 -1.44,4.640001 -1.28,4.8 -0.96,4.96 -0.64,4.8"
       style="fill:none;stroke:#000000;stroke-width:26.4;stroke-linecap:round;stroke-linejoin:round;stroke-miterlimit:10;stroke-dasharray:none;stroke-opacity:1"
       transform="translate(207.46666,389.51995)"
       clip-path="url(#clipPath6)" />
  </g>
</svg>
