<?xml version="1.0" encoding="UTF-8" standalone="no"?>
<!-- Created with Inkscape (http://www.inkscape.org/) -->

<svg
   version="1.1"
   id="svg1"
   width="513.61334"
   height="353.72"
   viewBox="0 0 513.61334 353.72"
   sodipodi:docname="Soapstone10.pdf"
   xmlns:inkscape="http://www.inkscape.org/namespaces/inkscape"
   xmlns:sodipodi="http://sodipodi.sourceforge.net/DTD/sodipodi-0.dtd"
   xmlns="http://www.w3.org/2000/svg"
   xmlns:svg="http://www.w3.org/2000/svg">
  <defs
     id="defs1">
    <clipPath
       clipPathUnits="userSpaceOnUse"
       id="clipPath2">
      <path
         d="M 0,0.16 V 1122.5601 H 793.59998 V 0.16 Z"
         clip-rule="evenodd"
         id="path2" />
    </clipPath>
    <clipPath
       clipPathUnits="userSpaceOnUse"
       id="clipPath4">
      <path
         d="M 0,0.16 V 1122.5601 H 793.59998 V 0.16 Z"
         transform="translate(-472.32001,-410.23999)"
         clip-rule="evenodd"
         id="path4" />
    </clipPath>
    <clipPath
       clipPathUnits="userSpaceOnUse"
       id="clipPath6">
      <path
         d="M 0,0.16 V 1122.5601 H 793.59998 V 0.16 Z"
         clip-rule="evenodd"
         id="path6" />
    </clipPath>
  </defs>
  <sodipodi:namedview
     id="namedview1"
     pagecolor="#505050"
     bordercolor="#eeeeee"
     borderopacity="1"
     inkscape:showpageshadow="0"
     inkscape:pageopacity="0"
     inkscape:pagecheckerboard="0"
     inkscape:deskcolor="#505050">
    <inkscape:page
       x="0"
       y="0"
       inkscape:label="1"
       id="page1"
       width="513.61334"
       height="353.72"
       margin="0"
       bleed="0" />
  </sodipodi:namedview>
  <g
     id="g1"
     inkscape:groupmode="layer"
     inkscape:label="1">
    <path
       id="path1"
       d="M 623.35998,561.28003 V 712.32001 H 170.24 V 410.23999 h 302.08001"
       style="fill:none;stroke:#000000;stroke-width:26.4;stroke-linecap:round;stroke-linejoin:round;stroke-miterlimit:10;stroke-dasharray:none;stroke-opacity:1"
       transform="translate(0,2.6799413)"
       clip-path="url(#clipPath2)" />
    <path
       id="path3"
       d="m 0,0 -0.8,7.68 -0.48,7.84 v 7.680001 l 0.48,7.679998 0.96,7.680002 1.44,7.680001 1.76,7.519996 2.24,7.360001 2.56,7.200001 3.2,7.199997 3.36,6.880005 3.999999,6.720001 4.16,6.399994 L 27.52,101.76 l 4.96,5.92 5.279998,5.6 5.600003,5.28 5.919998,4.96 6.240001,4.64 6.560002,4.32 6.559997,3.84001 7.040001,3.51999 7.040001,3.04 7.199997,2.72001 7.520004,2.23999 7.519998,1.76001 7.52,1.27999 7.68,0.96 7.84,0.48001 h 7.67999 L 143.36,152 l 7.67999,-0.96001"
       style="fill:none;stroke:#000000;stroke-width:26.4;stroke-linecap:round;stroke-linejoin:round;stroke-miterlimit:10;stroke-dasharray:none;stroke-opacity:1"
       transform="translate(472.32001,412.91993)"
       clip-path="url(#clipPath4)" />
    <path
       id="path5"
       d="M 510.07999,523.52002 623.35998,410.23999"
       style="fill:none;stroke:#000000;stroke-width:26.4;stroke-linecap:round;stroke-linejoin:round;stroke-miterlimit:10;stroke-dasharray:none;stroke-opacity:1"
       transform="translate(0,2.6799413)"
       clip-path="url(#clipPath6)" />
  </g>
</svg>
