<?xml version="1.0" encoding="UTF-8" standalone="no"?>
<!-- Created with Inkscape (http://www.inkscape.org/) -->

<svg
   version="1.1"
   id="svg1"
   width="510.93332"
   height="500.56"
   viewBox="0 0 510.93332 500.56"
   sodipodi:docname="Soapstone2.pdf"
   xmlns:inkscape="http://www.inkscape.org/namespaces/inkscape"
   xmlns:sodipodi="http://sodipodi.sourceforge.net/DTD/sodipodi-0.dtd"
   xmlns="http://www.w3.org/2000/svg"
   xmlns:svg="http://www.w3.org/2000/svg">
  <defs
     id="defs1">
    <clipPath
       clipPathUnits="userSpaceOnUse"
       id="clipPath2">
      <path
         d="M 0,0.16 V 1122.5601 H 793.59998 V 0.16 Z"
         transform="translate(-623.35998,-561.28003)"
         clip-rule="evenodd"
         id="path2" />
    </clipPath>
    <clipPath
       clipPathUnits="userSpaceOnUse"
       id="clipPath4">
      <path
         d="M 0,0.16 V 1122.5601 H 793.59998 V 0.16 Z"
         transform="translate(-472.32001,-353.60001)"
         clip-rule="evenodd"
         id="path4" />
    </clipPath>
    <clipPath
       clipPathUnits="userSpaceOnUse"
       id="clipPath6">
      <path
         d="M 0,0.16 V 1122.5601 H 793.59998 V 0.16 Z"
         clip-rule="evenodd"
         id="path6" />
    </clipPath>
    <clipPath
       clipPathUnits="userSpaceOnUse"
       id="clipPath8">
      <path
         d="M 0,0.16 V 1122.5601 H 793.59998 V 0.16 Z"
         clip-rule="evenodd"
         id="path8" />
    </clipPath>
    <clipPath
       clipPathUnits="userSpaceOnUse"
       id="clipPath10">
      <path
         d="M 0,0.16 V 1122.5601 H 793.59998 V 0.16 Z"
         clip-rule="evenodd"
         id="path10" />
    </clipPath>
  </defs>
  <sodipodi:namedview
     id="namedview1"
     pagecolor="#505050"
     bordercolor="#eeeeee"
     borderopacity="1"
     inkscape:showpageshadow="0"
     inkscape:pageopacity="0"
     inkscape:pagecheckerboard="0"
     inkscape:deskcolor="#505050">
    <inkscape:page
       x="0"
       y="0"
       inkscape:label="1"
       id="page1"
       width="510.93332"
       height="500.56"
       margin="0"
       bleed="0" />
  </sodipodi:namedview>
  <g
     id="g1"
     inkscape:groupmode="layer"
     inkscape:label="1">
    <path
       id="path1"
       d="m 0,0 c 0,-125.12 -101.43,-226.56 -226.56,-226.56 -125.13,0 -226.56,101.44 -226.56,226.56 0,125.12 101.43,226.56 226.56,226.56 C -101.43,226.56 0,125.12 0,0 Z"
       style="fill:none;stroke:#000000;stroke-width:26.4;stroke-linecap:round;stroke-linejoin:round;stroke-miterlimit:10;stroke-dasharray:none;stroke-opacity:1"
       transform="translate(623.35998,561.27997)"
       clip-path="url(#clipPath2)" />
    <path
       id="path3"
       d="m 0,0 -7.84,9.76 -7.52,10.08 -7.04,10.4 -6.720001,10.559999 -6.24,10.880001 -5.759998,11.040001 -5.440002,11.360001 L -51.52,85.599998 -56,97.279999 -60,109.12 l -3.68,12 -3.040001,12.16 -2.720001,12.16 -2.079995,12.31999 -1.760002,12.48001 -1.279999,12.48 -0.639999,12.48 -0.32,12.47999 0.32,12.48001 0.639999,12.64 1.279999,12.48 1.760002,12.32001 2.079995,12.32 2.720001,12.31998 3.040001,12.16 3.68,12 4,11.84 4.48,11.68002 4.959999,11.51999 5.440002,11.20001 5.759998,11.19999 6.24,10.72 6.720001,10.72 7.04,10.23999 7.52,10.08002 7.84,9.75998"
       style="fill:none;stroke:#000000;stroke-width:26.4;stroke-linecap:round;stroke-linejoin:round;stroke-miterlimit:10;stroke-dasharray:none;stroke-opacity:1"
       transform="translate(472.32001,353.59995)"
       clip-path="url(#clipPath4)" />
    <path
       id="path5"
       d="M 396.79999,561.28003 H 604.47998"
       style="fill:none;stroke:#000000;stroke-width:26.4;stroke-linecap:round;stroke-linejoin:round;stroke-miterlimit:10;stroke-dasharray:none;stroke-opacity:1"
       transform="translate(0,-5.8666666e-5)"
       clip-path="url(#clipPath6)" />
    <path
       id="path7"
       d="M 405.28,558.08002 547.84003,410.23999"
       style="fill:none;stroke:#000000;stroke-width:26.4;stroke-linecap:round;stroke-linejoin:round;stroke-miterlimit:10;stroke-dasharray:none;stroke-opacity:1"
       transform="translate(0,-5.8666666e-5)"
       clip-path="url(#clipPath8)" />
    <path
       id="path9"
       d="M 396.79999,561.28003 547.84003,712.32001"
       style="fill:none;stroke:#000000;stroke-width:26.4;stroke-linecap:round;stroke-linejoin:round;stroke-miterlimit:10;stroke-dasharray:none;stroke-opacity:1"
       transform="translate(0,-5.8666666e-5)"
       clip-path="url(#clipPath10)" />
  </g>
</svg>
