<?xml version="1.0" encoding="UTF-8" standalone="no"?>
<!-- Created with Inkscape (http://www.inkscape.org/) -->

<svg
   version="1.1"
   id="svg1"
   width="377.54666"
   height="642.03998"
   viewBox="0 0 377.54666 642.03998"
   sodipodi:docname="Stone9.pdf"
   xmlns:inkscape="http://www.inkscape.org/namespaces/inkscape"
   xmlns:sodipodi="http://sodipodi.sourceforge.net/DTD/sodipodi-0.dtd"
   xmlns="http://www.w3.org/2000/svg"
   xmlns:svg="http://www.w3.org/2000/svg">
  <defs
     id="defs1">
    <clipPath
       clipPathUnits="userSpaceOnUse"
       id="clipPath2">
      <path
         d="M 0,0.16 V 1122.5601 H 793.59998 V 0.16 Z"
         transform="translate(-544.79999,-295.20001)"
         clip-rule="evenodd"
         id="path2" />
    </clipPath>
    <clipPath
       clipPathUnits="userSpaceOnUse"
       id="clipPath4">
      <path
         d="M 0,0.16 V 1122.5601 H 793.59998 V 0.16 Z"
         transform="translate(3.3333333e-6)"
         clip-rule="evenodd"
         id="path4" />
    </clipPath>
    <clipPath
       clipPathUnits="userSpaceOnUse"
       id="clipPath6">
      <path
         d="M 0,0.16 V 1122.5601 H 793.59998 V 0.16 Z"
         transform="translate(3.3333333e-6)"
         clip-rule="evenodd"
         id="path6" />
    </clipPath>
    <clipPath
       clipPathUnits="userSpaceOnUse"
       id="clipPath8">
      <path
         d="M 0,0.16 V 1122.5601 H 793.59998 V 0.16 Z"
         transform="translate(3.3333333e-6)"
         clip-rule="evenodd"
         id="path8" />
    </clipPath>
    <clipPath
       clipPathUnits="userSpaceOnUse"
       id="clipPath10">
      <path
         d="M 0,0.16 V 1122.5601 H 793.59998 V 0.16 Z"
         transform="translate(3.3333333e-6)"
         clip-rule="evenodd"
         id="path10" />
    </clipPath>
    <clipPath
       clipPathUnits="userSpaceOnUse"
       id="clipPath12">
      <path
         d="M 0,0.16 V 1122.5601 H 793.59998 V 0.16 Z"
         transform="translate(3.3333333e-6)"
         clip-rule="evenodd"
         id="path12" />
    </clipPath>
  </defs>
  <sodipodi:namedview
     id="namedview1"
     pagecolor="#505050"
     bordercolor="#eeeeee"
     borderopacity="1"
     inkscape:showpageshadow="0"
     inkscape:pageopacity="0"
     inkscape:pagecheckerboard="0"
     inkscape:deskcolor="#505050">
    <inkscape:page
       x="0"
       y="0"
       inkscape:label="1"
       id="page1"
       width="377.54666"
       height="642.03998"
       margin="0"
       bleed="0" />
  </sodipodi:namedview>
  <g
     id="g1"
     inkscape:groupmode="layer"
     inkscape:label="1">
    <path
       id="path1"
       d="m 0,0 -6.24,-3.52 -6.56,-3.2 -6.72,-2.72 -6.72,-2.24 -7.039999,-1.76 -7.040001,-1.28 -7.2,-0.96 -7.360001,-0.32 h -7.520001 l -7.519996,0.64 -7.520004,0.96 -7.680001,1.44 -7.68,1.92 -7.839997,2.4 -7.68,2.72 -7.84,3.36 -7.84,3.68 -7.67999,4.16 -7.84001,4.48 -7.68,5.12 -7.68,5.28 -7.68,5.92 -7.52,6.24 -7.36,6.560001 -7.36,7.039997 -7.36,7.360001 -7.04,7.68 -7.04,8 -6.87999,8.32 -6.56,8.639999 -6.56001,9.120003 -6.4,9.279999 -6.08,9.44 -6.08,9.76 -5.76,10.08001 -5.44,10.23999 -5.44,10.55999 -5.12,10.56002 -4.79999,10.87999 -4.64001,11.04 -4.32001,11.04 -4,11.19999 -3.83999,11.36001 -3.51999,11.52 -3.36002,11.36 -2.88,11.67999 -2.72,11.52001 -2.4,11.51999 -2.07999,11.68002 -1.76,11.51999 -1.44001,11.51999 -1.28,11.36001 -0.79998,11.35999 -0.64002,11.20001 -0.16,11.20001 v 11.03998 l 0.48001,10.72 0.64001,10.72 1.12,10.56 1.28,10.24002 1.6,10.07999 1.91999,9.76001 2.23999,9.6 2.56002,9.28 2.71998,8.95999 3.20001,8.63999 3.36001,8.48001 3.68,8 4,7.67999 4.16,7.36002 4.47998,7.03998 4.80002,6.72 4.95999,6.23999 5.12,5.76001 5.44,5.44 5.76001,5.11999 5.75999,4.64002 6.08,4.15997 6.23999,3.68006 6.40001,3.35998 6.72,2.88001 6.72001,2.39996 6.87999,1.92004 7.04,1.44001 7.2,0.95996 7.36,0.64001 h 7.36 l 7.52001,-0.32 7.51999,-0.79999 7.68,-1.28003 7.68,-1.75995 7.84001,-2.24005 7.67999,-2.71997 7.84,-3.03998 7.84,-3.52002 7.68,-4 7.839997,-4.47998 7.68,-4.80005 7.680001,-5.27997 7.68,-5.76001 7.520004,-6.08002 7.519997,-6.39999 7.36,-7.03998"
       style="fill:none;stroke:#000000;stroke-width:26.4;stroke-linecap:round;stroke-linejoin:round;stroke-miterlimit:10;stroke-dasharray:none;stroke-opacity:1"
       transform="translate(336.69332,57.613287)"
       clip-path="url(#clipPath2)" />
    <path
       id="path3"
       d="M 560.15997,265.92001 522.40002,322.56"
       style="fill:none;stroke:#000000;stroke-width:26.4;stroke-linecap:round;stroke-linejoin:round;stroke-miterlimit:10;stroke-dasharray:none;stroke-opacity:1"
       transform="translate(-208.10667,-237.58673)"
       clip-path="url(#clipPath4)" />
    <path
       id="path5"
       d="M 276.95999,473.60001 H 465.76001"
       style="fill:none;stroke:#000000;stroke-width:26.4;stroke-linecap:round;stroke-linejoin:round;stroke-miterlimit:10;stroke-dasharray:none;stroke-opacity:1"
       transform="translate(-208.10667,-237.58673)"
       clip-path="url(#clipPath6)" />
    <path
       id="path7"
       d="M 239.2,662.40002 H 371.35999"
       style="fill:none;stroke:#000000;stroke-width:26.4;stroke-linecap:round;stroke-linejoin:round;stroke-miterlimit:10;stroke-dasharray:none;stroke-opacity:1"
       transform="translate(-208.10667,-237.58673)"
       clip-path="url(#clipPath8)" />
    <path
       id="path9"
       d="m 465.76001,435.84 v 75.51999"
       style="fill:none;stroke:#000000;stroke-width:26.4;stroke-linecap:round;stroke-linejoin:round;stroke-miterlimit:10;stroke-dasharray:none;stroke-opacity:1"
       transform="translate(-208.10667,-237.58673)"
       clip-path="url(#clipPath10)" />
    <path
       id="path11"
       d="m 371.35999,624.64001 v 75.51996"
       style="fill:none;stroke:#000000;stroke-width:26.4;stroke-linecap:round;stroke-linejoin:round;stroke-miterlimit:10;stroke-dasharray:none;stroke-opacity:1"
       transform="translate(-208.10667,-237.58673)"
       clip-path="url(#clipPath12)" />
  </g>
</svg>
