<?xml version="1.0" encoding="UTF-8" standalone="no"?>
<!-- Created with Inkscape (http://www.inkscape.org/) -->

<svg
   version="1.1"
   id="svg1"
   width="616.33331"
   height="520.56"
   viewBox="0 0 616.33331 520.56"
   sodipodi:docname="Stone4.pdf"
   xmlns:inkscape="http://www.inkscape.org/namespaces/inkscape"
   xmlns:sodipodi="http://sodipodi.sourceforge.net/DTD/sodipodi-0.dtd"
   xmlns="http://www.w3.org/2000/svg"
   xmlns:svg="http://www.w3.org/2000/svg">
  <defs
     id="defs1">
    <clipPath
       clipPathUnits="userSpaceOnUse"
       id="clipPath2">
      <path
         d="M 0,0.16 V 1122.5601 H 793.59998 V 0.16 Z"
         clip-rule="evenodd"
         id="path2" />
    </clipPath>
    <clipPath
       clipPathUnits="userSpaceOnUse"
       id="clipPath4">
      <path
         d="M 0,0.16 V 1122.5601 H 793.59998 V 0.16 Z"
         clip-rule="evenodd"
         id="path4" />
    </clipPath>
    <clipPath
       clipPathUnits="userSpaceOnUse"
       id="clipPath6">
      <path
         d="M 0,0.16 V 1122.5601 H 793.59998 V 0.16 Z"
         clip-rule="evenodd"
         id="path6" />
    </clipPath>
    <clipPath
       clipPathUnits="userSpaceOnUse"
       id="clipPath8">
      <path
         d="M 0,0.16 V 1122.5601 H 793.59998 V 0.16 Z"
         clip-rule="evenodd"
         id="path8" />
    </clipPath>
    <clipPath
       clipPathUnits="userSpaceOnUse"
       id="clipPath10">
      <path
         d="M 0,0.16 V 1122.5601 H 793.59998 V 0.16 Z"
         clip-rule="evenodd"
         id="path10" />
    </clipPath>
    <clipPath
       clipPathUnits="userSpaceOnUse"
       id="clipPath12">
      <path
         d="M 0,0.16 V 1122.5601 H 793.59998 V 0.16 Z"
         transform="translate(-337.44001,-412.79999)"
         clip-rule="evenodd"
         id="path12" />
    </clipPath>
    <clipPath
       clipPathUnits="userSpaceOnUse"
       id="clipPath14">
      <path
         d="M 0,0.16 V 1122.5601 H 793.59998 V 0.16 Z"
         transform="translate(-396.79999,-797.28003)"
         clip-rule="evenodd"
         id="path14" />
    </clipPath>
    <clipPath
       clipPathUnits="userSpaceOnUse"
       id="clipPath16">
      <path
         d="M 0,0.16 V 1122.5601 H 793.59998 V 0.16 Z"
         clip-rule="evenodd"
         id="path16" />
    </clipPath>
    <clipPath
       clipPathUnits="userSpaceOnUse"
       id="clipPath18">
      <path
         d="M 0,0.16 V 1122.5601 H 793.59998 V 0.16 Z"
         clip-rule="evenodd"
         id="path18" />
    </clipPath>
  </defs>
  <sodipodi:namedview
     id="namedview1"
     pagecolor="#505050"
     bordercolor="#eeeeee"
     borderopacity="1"
     inkscape:showpageshadow="0"
     inkscape:pageopacity="0"
     inkscape:pagecheckerboard="0"
     inkscape:deskcolor="#505050">
    <inkscape:page
       x="0"
       y="0"
       inkscape:label="1"
       id="page1"
       width="616.33331"
       height="520.56"
       margin="0"
       bleed="0" />
  </sodipodi:namedview>
  <g
     id="g1"
     inkscape:groupmode="layer"
     inkscape:label="1">
    <path
       id="path1"
       d="M 113.6,702.88 H 680"
       style="fill:none;stroke:#000000;stroke-width:26.4;stroke-linecap:round;stroke-linejoin:round;stroke-miterlimit:10;stroke-dasharray:none;stroke-opacity:1"
       transform="translate(-86.706667,-300.33339)"
       clip-path="url(#clipPath2)" />
    <path
       id="path3"
       d="M 113.6,702.88 302.39999,325.28"
       style="fill:none;stroke:#000000;stroke-width:26.4;stroke-linecap:round;stroke-linejoin:round;stroke-miterlimit:10;stroke-dasharray:none;stroke-opacity:1"
       transform="translate(-86.706667,-300.33339)"
       clip-path="url(#clipPath4)" />
    <path
       id="path5"
       d="m 302.39999,325.28 94.4,358.72"
       style="fill:none;stroke:#000000;stroke-width:26.4;stroke-linecap:round;stroke-linejoin:round;stroke-miterlimit:10;stroke-dasharray:none;stroke-opacity:1"
       transform="translate(-86.706667,-300.33339)"
       clip-path="url(#clipPath6)" />
    <path
       id="path7"
       d="M 264.64001,438.56 321.28,684"
       style="fill:none;stroke:#000000;stroke-width:26.4;stroke-linecap:round;stroke-linejoin:round;stroke-miterlimit:10;stroke-dasharray:none;stroke-opacity:1"
       transform="translate(-86.706667,-300.33339)"
       clip-path="url(#clipPath8)" />
    <path
       id="path9"
       d="M 215.67999,513.76001 253.44,683.67999"
       style="fill:none;stroke:#000000;stroke-width:26.4;stroke-linecap:round;stroke-linejoin:round;stroke-miterlimit:10;stroke-dasharray:none;stroke-opacity:1"
       transform="translate(-86.706667,-300.33339)"
       clip-path="url(#clipPath10)" />
    <path
       id="path11"
       d="m 0,0 5.76,-2.4 5.6,-2.88 5.279999,-3.2 L 21.76,-12 l 4.799999,-4 4.640002,-4.16 4.319999,-4.479999 4,-4.800002 3.680001,-5.12 3.36,-5.279999 2.879998,-5.439999 L 52,-51.040001 l 2.240002,-5.759998 1.919998,-6.080002 1.439998,-6.079998 0.960003,-6.080002 0.64,-6.239998 0.16,-6.239998"
       style="fill:none;stroke:#000000;stroke-width:26.4;stroke-linecap:round;stroke-linejoin:round;stroke-miterlimit:10;stroke-dasharray:none;stroke-opacity:1"
       transform="translate(250.73334,112.4666)"
       clip-path="url(#clipPath12)" />
    <path
       id="path13"
       d="m 0,0 6.24,-0.16 6.08,-0.64 6.08,-0.96 6.08,-1.44 5.92,-1.76 5.76,-2.24 5.599998,-2.56 5.440003,-2.88 5.279999,-3.2 4.959999,-3.68 4.800003,-3.840001 4.479999,-4.319999 4.32,-4.48 3.839996,-4.799999 3.680001,-4.959999 3.200004,-5.280003 2.879997,-5.439998 2.559998,-5.600003 L 89.440002,-64 91.199997,-69.919998 92.639999,-76 l 0.959999,-6.080002 0.64,-6.080002 0.160004,-6.239998"
       style="fill:none;stroke:#000000;stroke-width:26.4;stroke-linecap:round;stroke-linejoin:round;stroke-miterlimit:10;stroke-dasharray:none;stroke-opacity:1"
       transform="translate(310.09332,496.94664)"
       clip-path="url(#clipPath14)" />
    <path
       id="path15"
       d="M 491.20001,702.88 V 608.47998"
       style="fill:none;stroke:#000000;stroke-width:26.4;stroke-linecap:round;stroke-linejoin:round;stroke-miterlimit:10;stroke-dasharray:none;stroke-opacity:1"
       transform="translate(-86.706667,-300.33339)"
       clip-path="url(#clipPath16)" />
    <path
       id="path17"
       d="m 453.44,608.47998 h 75.52002"
       style="fill:none;stroke:#000000;stroke-width:26.4;stroke-linecap:round;stroke-linejoin:round;stroke-miterlimit:10;stroke-dasharray:none;stroke-opacity:1"
       transform="translate(-86.706667,-300.33339)"
       clip-path="url(#clipPath18)" />
  </g>
</svg>
