<?xml version="1.0" encoding="UTF-8" standalone="no"?>
<!-- Created with Inkscape (http://www.inkscape.org/) -->

<svg
   version="1.1"
   id="svg1"
   width="504.26666"
   height="441.81332"
   viewBox="0 0 504.26666 441.81332"
   sodipodi:docname="Turquoise.pdf"
   xmlns:inkscape="http://www.inkscape.org/namespaces/inkscape"
   xmlns:sodipodi="http://sodipodi.sourceforge.net/DTD/sodipodi-0.dtd"
   xmlns="http://www.w3.org/2000/svg"
   xmlns:svg="http://www.w3.org/2000/svg">
  <defs
     id="defs1">
    <clipPath
       clipPathUnits="userSpaceOnUse"
       id="clipPath2">
      <path
         d="M 0,0.16 V 1122.5601 H 793.59998 V 0.16 Z"
         transform="translate(-556.96002,-754.56)"
         clip-rule="evenodd"
         id="path2" />
    </clipPath>
    <clipPath
       clipPathUnits="userSpaceOnUse"
       id="clipPath4">
      <path
         d="M 0,0.16 V 1122.5601 H 793.59998 V 0.16 Z"
         transform="translate(-3.3333333e-6)"
         clip-rule="evenodd"
         id="path4" />
    </clipPath>
  </defs>
  <sodipodi:namedview
     id="namedview1"
     pagecolor="#505050"
     bordercolor="#eeeeee"
     borderopacity="1"
     inkscape:showpageshadow="0"
     inkscape:pageopacity="0"
     inkscape:pagecheckerboard="0"
     inkscape:deskcolor="#505050">
    <inkscape:page
       x="0"
       y="0"
       inkscape:label="1"
       id="page1"
       width="504.26666"
       height="441.81332"
       margin="0"
       bleed="0" />
  </sodipodi:namedview>
  <g
     id="g1"
     inkscape:groupmode="layer"
     inkscape:label="1">
    <path
       id="path1"
       d="m 0,0 7.36,-7.52 6.88,-7.84 6.399999,-8.16 6.08,-8.48 5.760001,-8.799999 5.279998,-9.119999 4.960003,-9.120003 4.48,-9.599998 4,-9.599999 3.52,-9.920006 3.039997,-9.919998 L 60.48,-108.16 62.560001,-118.4 64.32,-128.8 l 1.120002,-10.4 0.799996,-10.40001 0.160004,-10.55999 -0.160004,-10.4 -0.799996,-10.40001 L 64.32,-191.36 62.560001,-201.75999 60.48,-212 l -2.720002,-10.08 -3.039997,-9.92 -3.52,-9.92 -4,-9.6 -4.48,-9.6 -4.960003,-9.27999 -5.279998,-8.96 -5.760001,-8.80001 -6.08,-8.48001 -6.399999,-8.15998 -6.88,-7.84002 -7.2,-7.68 -7.68,-7.19998 -7.84,-6.88 -8.16,-6.4 -8.64,-6.24002 -8.639999,-5.6 -9.119999,-5.28 -9.280003,-4.95999 -9.439998,-4.47999 -9.599999,-4 -9.920006,-3.52001 -9.919998,-3.04001 -10.239998,-2.72 -10.24,-2.07999 -10.24,-1.76001 -10.4,-1.12 -10.40001,-0.79998 -10.55999,-0.16001 -10.4,0.16001 -10.40001,0.79998 -10.39999,1.12 -10.39999,1.76001 -10.24001,2.07999 -10.08,2.72 -10.08,3.04001 -9.76,3.52001 -9.75999,4 -9.44001,4.47999 -9.27999,4.95999 -8.96,5.28 -8.80001,5.6 -8.48001,6.24002 -8.15998,6.4 -8,6.88 -7.52002,7.19998 -7.19998,7.68 -6.88,7.84002 -6.56,8.15998 -6.08002,8.48001 -5.75998,8.80001 -5.28,8.96 -4.80001,9.27999 -4.47999,9.6 -4,9.6 -3.52001,9.92 -3.19999,9.92 -2.56002,10.08 -2.07999,10.24001 -1.76001,10.39999 -1.28,10.39999 -0.63998,10.40001 -0.32001,10.4 0.32001,10.55999 0.63998,10.40001 1.28,10.4 1.76001,10.4 2.07999,10.24 2.56002,10.079998 3.19999,9.919998 3.52001,9.920006 4,9.599999 4.47999,9.599998 4.80001,9.120003 5.28,9.119999 5.75998,8.799999 6.08002,8.48 6.56,8.16 6.88,7.84 7.19998,7.52"
       style="fill:none;stroke:#000000;stroke-width:26.4;stroke-linecap:round;stroke-linejoin:round;stroke-miterlimit:10;stroke-dasharray:none;stroke-opacity:1"
       transform="translate(411.54669,412.85327)"
       clip-path="url(#clipPath2)" />
    <path
       id="path3"
       d="M 236.64,754.71997 321.28,594.40002 396.79999,745.44 472.32001,594.40002 557.12,754.71997"
       style="fill:none;stroke:#000000;stroke-width:26.4;stroke-linecap:round;stroke-linejoin:round;stroke-miterlimit:10;stroke-dasharray:none;stroke-opacity:1"
       transform="translate(-145.41333,-341.70673)"
       clip-path="url(#clipPath4)" />
  </g>
</svg>
