<?xml version="1.0" encoding="UTF-8" standalone="no"?>
<!-- Created with Inkscape (http://www.inkscape.org/) -->

<svg
   version="1.1"
   id="svg1"
   width="506.93332"
   height="503.21332"
   viewBox="0 0 506.93332 503.21332"
   sodipodi:docname="WhiteBole.pdf"
   xmlns:inkscape="http://www.inkscape.org/namespaces/inkscape"
   xmlns:sodipodi="http://sodipodi.sourceforge.net/DTD/sodipodi-0.dtd"
   xmlns="http://www.w3.org/2000/svg"
   xmlns:svg="http://www.w3.org/2000/svg">
  <defs
     id="defs1">
    <clipPath
       clipPathUnits="userSpaceOnUse"
       id="clipPath2">
      <path
         d="M 0,0.16 V 1122.5601 H 793.59998 V 0.16 Z"
         transform="translate(-179.67999,-749.28003)"
         clip-rule="evenodd"
         id="path2" />
    </clipPath>
    <clipPath
       clipPathUnits="userSpaceOnUse"
       id="clipPath4">
      <path
         d="M 0,0.16 V 1122.5601 H 793.59998 V 0.16 Z"
         clip-rule="evenodd"
         id="path4" />
    </clipPath>
    <clipPath
       clipPathUnits="userSpaceOnUse"
       id="clipPath6">
      <path
         d="M 0,0.16 V 1122.5601 H 793.59998 V 0.16 Z"
         clip-rule="evenodd"
         id="path6" />
    </clipPath>
    <clipPath
       clipPathUnits="userSpaceOnUse"
       id="clipPath8">
      <path
         d="M 0,0.16 V 1122.5601 H 793.59998 V 0.16 Z"
         transform="translate(-481.76001,-522.71997)"
         clip-rule="evenodd"
         id="path8" />
    </clipPath>
    <clipPath
       clipPathUnits="userSpaceOnUse"
       id="clipPath10">
      <path
         d="M 0,0.16 V 1122.5601 H 793.59998 V 0.16 Z"
         clip-rule="evenodd"
         id="path10" />
    </clipPath>
    <clipPath
       clipPathUnits="userSpaceOnUse"
       id="clipPath12">
      <path
         d="M 0,0.16 V 1122.5601 H 793.59998 V 0.16 Z"
         clip-rule="evenodd"
         id="path12" />
    </clipPath>
    <clipPath
       clipPathUnits="userSpaceOnUse"
       id="clipPath14">
      <path
         d="M 0,0.16 V 1122.5601 H 793.59998 V 0.16 Z"
         transform="translate(-481.76001,-749.28003)"
         clip-rule="evenodd"
         id="path14" />
    </clipPath>
    <clipPath
       clipPathUnits="userSpaceOnUse"
       id="clipPath16">
      <path
         d="M 0,0.16 V 1122.5601 H 793.59998 V 0.16 Z"
         clip-rule="evenodd"
         id="path16" />
    </clipPath>
  </defs>
  <sodipodi:namedview
     id="namedview1"
     pagecolor="#505050"
     bordercolor="#eeeeee"
     borderopacity="1"
     inkscape:showpageshadow="0"
     inkscape:pageopacity="0"
     inkscape:pagecheckerboard="0"
     inkscape:deskcolor="#505050">
    <inkscape:page
       x="0"
       y="0"
       inkscape:label="1"
       id="page1"
       width="506.93332"
       height="503.21332"
       margin="0"
       bleed="0" />
  </sodipodi:namedview>
  <g
     id="g1"
     inkscape:groupmode="layer"
     inkscape:label="1">
    <path
       id="path1"
       d="m 0,0 13.44,-26.719999 12.8,-27.199999 12.320001,-27.200005 11.840001,-27.519997 11.359996,-27.84 10.880001,-27.84001 10.239998,-28.15999 9.760002,-28.32 9.120001,-28.64 8.64,-28.63999 8.16,-28.80001 7.68,-28.96 7.04,-29.11999 6.39999,-29.28 6.08,-29.28 5.28,-29.60001"
       style="fill:none;stroke:#000000;stroke-width:26.4;stroke-linecap:round;stroke-linejoin:round;stroke-miterlimit:10;stroke-dasharray:none;stroke-opacity:1"
       transform="translate(31.599993,480.98664)"
       clip-path="url(#clipPath2)" />
    <path
       id="path3"
       d="M 330.72,296.16 481.76001,749.28003"
       style="fill:none;stroke:#000000;stroke-width:26.4;stroke-linecap:round;stroke-linejoin:round;stroke-miterlimit:10;stroke-dasharray:none;stroke-opacity:1"
       transform="translate(-148.08,-268.29339)"
       clip-path="url(#clipPath4)" />
    <path
       id="path5"
       d="m 274.07999,522.71997 h 132.16"
       style="fill:none;stroke:#000000;stroke-width:26.4;stroke-linecap:round;stroke-linejoin:round;stroke-miterlimit:10;stroke-dasharray:none;stroke-opacity:1"
       transform="translate(-148.08,-268.29339)"
       clip-path="url(#clipPath6)" />
    <path
       id="path7"
       d="m 0,0 6.88,-0.16 6.88,-0.64 6.72,-0.96 6.720001,-1.44 6.559997,-1.92 6.400002,-2.24 6.400001,-2.56 6.079998,-3.04 6.080002,-3.36 L 64.32,-20 l 5.599998,-4 5.279999,-4.48 4.960007,-4.639999 4.639999,-4.960003 4.479996,-5.279999 4,-5.599998 3.68,-5.600002 3.360001,-6.079998 3.04,-6.080002 2.56,-6.400002 2.24,-6.399994 1.92,-6.560005 1.44,-6.720001 0.96,-6.719994 0.64,-6.880003 0.16,-6.88 -0.16,-6.72 -0.64,-6.88 -0.96,-6.72001 -1.44,-6.72 -1.92,-6.55999 -2.24,-6.56 -2.56,-6.23999 -3.04,-6.24001 -3.360001,-5.92 -3.68,-5.76001 -4,-5.43998 -4.479996,-5.28002 -4.639999,-4.95999 -4.960007,-4.8 -5.279999,-4.31999 -5.599998,-4 -5.599999,-3.84001 -6.080002,-3.36001 L 46.560001,-216.48 40.16,-219.2 33.759998,-221.44 27.200001,-223.2 20.48,-224.64 13.76,-225.60001 6.88,-226.24 0,-226.56"
       style="fill:none;stroke:#000000;stroke-width:26.4;stroke-linecap:round;stroke-linejoin:round;stroke-miterlimit:10;stroke-dasharray:none;stroke-opacity:1"
       transform="translate(333.68001,254.42658)"
       clip-path="url(#clipPath8)" />
    <path
       id="path9"
       d="M 330.72,296.16 H 481.76001"
       style="fill:none;stroke:#000000;stroke-width:26.4;stroke-linecap:round;stroke-linejoin:round;stroke-miterlimit:10;stroke-dasharray:none;stroke-opacity:1"
       transform="translate(-148.08,-268.29339)"
       clip-path="url(#clipPath10)" />
    <path
       id="path11"
       d="m 406.23999,522.71997 h 75.52002"
       style="fill:none;stroke:#000000;stroke-width:26.4;stroke-linecap:round;stroke-linejoin:round;stroke-miterlimit:10;stroke-dasharray:none;stroke-opacity:1"
       transform="translate(-148.08,-268.29339)"
       clip-path="url(#clipPath12)" />
    <path
       id="path13"
       d="M 0,0 6.88,0.96 13.76,1.44 20.799999,1.6 27.68,1.28 l 6.880001,-0.8 6.879998,-1.12 6.720001,-1.6 6.720001,-1.92 6.559998,-2.4 6.240001,-2.72 6.239998,-3.2 5.919998,-3.52 5.760002,-3.84 5.599999,-4.16 5.280006,-4.48 4.959997,-4.959999 4.64,-5.120002 4.32,-5.279999 4,-5.759998 3.68,-5.760003 3.36,-6.239997 2.88,-6.239998 2.56,-6.400002 2.23999,-6.560005 1.76001,-6.719994 1.28,-6.880005 0.95999,-6.879998 0.48002,-6.88 0.15998,-6.88 -0.31999,-7.04 -0.8,-6.88001 -1.12,-6.87999 -1.6,-6.72 -1.92,-6.55999 -2.4,-6.56 -2.72,-6.40001 -3.2,-6.24001 -3.52,-5.91999 -3.84,-5.76 -4.16,-5.44 -4.48,-5.28 -4.800003,-4.95999 -5.279999,-4.80001 -5.279998,-4.32 -5.760002,-4 -5.759995,-3.68 -6.080002,-3.36 -6.400001,-2.88 -6.400002,-2.56 -6.559997,-2.08 -6.720002,-1.75999 -6.880001,-1.44001 -6.879999,-0.96 L 24,-228 h -6.879999 l -7.040001,0.32001 -6.88,0.64 -6.88,1.11999"
       style="fill:none;stroke:#000000;stroke-width:26.4;stroke-linecap:round;stroke-linejoin:round;stroke-miterlimit:10;stroke-dasharray:none;stroke-opacity:1"
       transform="translate(333.68001,480.98664)"
       clip-path="url(#clipPath14)" />
    <path
       id="path15"
       d="M 481.76001,749.28003 H 632.79999"
       style="fill:none;stroke:#000000;stroke-width:26.4;stroke-linecap:round;stroke-linejoin:round;stroke-miterlimit:10;stroke-dasharray:none;stroke-opacity:1"
       transform="translate(-148.08,-268.29339)"
       clip-path="url(#clipPath16)" />
  </g>
</svg>
