<?xml version="1.0" encoding="UTF-8" standalone="no"?>
<!-- Created with Inkscape (http://www.inkscape.org/) -->

<svg
   version="1.1"
   id="svg1"
   width="488.25333"
   height="319.02667"
   viewBox="0 0 488.25333 319.02667"
   sodipodi:docname="YellowOchre2.pdf"
   xmlns:inkscape="http://www.inkscape.org/namespaces/inkscape"
   xmlns:sodipodi="http://sodipodi.sourceforge.net/DTD/sodipodi-0.dtd"
   xmlns="http://www.w3.org/2000/svg"
   xmlns:svg="http://www.w3.org/2000/svg">
  <defs
     id="defs1">
    <clipPath
       clipPathUnits="userSpaceOnUse"
       id="clipPath2">
      <path
         d="M 0,0.16 V 1122.5601 H 793.59998 V 0.16 Z"
         transform="translate(-141.11999,-445.11999)"
         clip-rule="evenodd"
         id="path2" />
    </clipPath>
    <clipPath
       clipPathUnits="userSpaceOnUse"
       id="clipPath4">
      <path
         d="M 0,0.16 V 1122.5601 H 793.59998 V 0.16 Z"
         transform="translate(3.3333333e-6)"
         clip-rule="evenodd"
         id="path4" />
    </clipPath>
    <clipPath
       clipPathUnits="userSpaceOnUse"
       id="clipPath6">
      <path
         d="M 0,0.16 V 1122.5601 H 793.59998 V 0.16 Z"
         transform="translate(-390.23999,-694.40002)"
         clip-rule="evenodd"
         id="path6" />
    </clipPath>
    <clipPath
       clipPathUnits="userSpaceOnUse"
       id="clipPath8">
      <path
         d="M 0,0.16 V 1122.5601 H 793.59998 V 0.16 Z"
         transform="translate(-390.23999,-694.40002)"
         clip-rule="evenodd"
         id="path8" />
    </clipPath>
    <clipPath
       clipPathUnits="userSpaceOnUse"
       id="clipPath10">
      <path
         d="M 0,0.16 V 1122.5601 H 793.59998 V 0.16 Z"
         transform="translate(-556.32001,-694.40002)"
         clip-rule="evenodd"
         id="path10" />
    </clipPath>
  </defs>
  <sodipodi:namedview
     id="namedview1"
     pagecolor="#505050"
     bordercolor="#eeeeee"
     borderopacity="1"
     inkscape:showpageshadow="0"
     inkscape:pageopacity="0"
     inkscape:pagecheckerboard="0"
     inkscape:deskcolor="#505050">
    <inkscape:page
       x="0"
       y="0"
       inkscape:label="1"
       id="page1"
       width="488.25333"
       height="319.02667"
       margin="0"
       bleed="0" />
  </sodipodi:namedview>
  <g
     id="g1"
     inkscape:groupmode="layer"
     inkscape:label="1">
    <path
       id="path1"
       d="m 0,0 0.16,5.76 0.48,5.6 0.96,5.599999 1.44,5.6 1.6,5.280001 2.24,5.279999 2.4,5.120003 L 12,43.200001 15.2,48 l 3.359999,4.48 3.680001,4.319999 4,4 4.319999,3.680004 L 35.040001,68 39.84,71.040001 44.799999,73.760002 49.919998,76.32 55.200001,78.400002 60.639999,80 l 5.440003,1.440002 5.599998,0.96 5.599999,0.479995 5.760002,0.32 5.599998,-0.32 5.599999,-0.479995 5.599998,-0.96 L 105.44,80 l 5.44,-1.599998 5.28,-2.080002 5.12,-2.559998 4.8,-2.720001 4.8,-3.040001 4.48,-3.519997 4.31999,-3.680004 4,-4 L 147.36,52.48 150.88,48 l 3.04,-4.799999 2.88,-4.959999 2.4,-5.120003 2.08,-5.279999 1.75999,-5.280001 1.28002,-5.6 L 165.28,11.36 165.92,5.76 166.08,0"
       style="fill:none;stroke:#000000;stroke-width:26.4;stroke-linecap:round;stroke-linejoin:round;stroke-miterlimit:10;stroke-dasharray:none;stroke-opacity:1"
       transform="translate(29.053328,24.666603)"
       clip-path="url(#clipPath2)" />
    <path
       id="path3"
       d="M 224.16,528.32001 V 694.40002"
       style="fill:none;stroke:#000000;stroke-width:26.4;stroke-linecap:round;stroke-linejoin:round;stroke-miterlimit:10;stroke-dasharray:none;stroke-opacity:1"
       transform="translate(-112.06667,-420.45339)"
       clip-path="url(#clipPath4)" />
    <path
       id="path5"
       d="m 0,0 -8.16,-4 -8.32,-3.68 -8.479999,-3.2 -8.639999,-2.88 -8.800004,-2.24 -8.959999,-1.92 L -60.32,-19.360001 -69.440002,-20.32 -78.559998,-20.639999 H -87.68 l -8.959999,0.319999 -9.120001,0.959999 -8.96,1.440001 -8.96,1.92 -8.8,2.24 -8.63999,2.88 -8.48002,3.2 -8.31999,3.68 -8.16,4"
       style="fill:none;stroke:#000000;stroke-width:26.4;stroke-linecap:round;stroke-linejoin:round;stroke-miterlimit:10;stroke-dasharray:none;stroke-opacity:1"
       transform="translate(278.17332,273.94663)"
       clip-path="url(#clipPath6)" />
    <path
       id="path7"
       d="m 0,0 8.16,4 8.32,3.68 8.479999,3.2 8.639999,2.88 8.800004,2.24 8.959999,1.92 L 60.32,19.360001 69.440002,20.16 78.559998,20.639999 H 87.68 L 96.639999,20.16 105.76,19.360001 114.72,17.92 123.68,16 l 8.8,-2.24 8.63999,-2.88 8.48002,-3.2 L 157.92,4 166.08,0"
       style="fill:none;stroke:#000000;stroke-width:26.4;stroke-linecap:round;stroke-linejoin:round;stroke-miterlimit:10;stroke-dasharray:none;stroke-opacity:1"
       transform="translate(278.17332,273.94663)"
       clip-path="url(#clipPath8)" />
    <path
       id="path9"
       d="m 0,0 3.36,-2.72 3.04,-3.04 2.88,-3.2 2.56,-3.36 2.24,-3.68 1.92,-3.84 1.76,-4 1.280001,-4 L 20,-32 l 0.639999,-4.32 0.16,-4.319999 -0.16,-4.32 -0.319999,-4.16 -0.8,-4.32 -1.28,-4 -1.440001,-4.159999 L 15.04,-65.440002 12.8,-69.120003 10.4,-72.639999 7.68,-76 4.8,-79.040001 l -3.2,-2.879997 -3.52,-2.560005 -3.68,-2.239998 -3.84,-1.919998 -4,-1.760003 L -17.440001,-91.68 -21.6,-92.639999 l -4.32,-0.480004 -4.32,-0.319999 -4.160002,0.160003 -4.319999,0.32 -4.16,0.799995 -4.16,1.280007 -4,1.439995 -4,1.760002 -3.68,2.239998 -3.520001,2.400001"
       style="fill:none;stroke:#000000;stroke-width:26.4;stroke-linecap:round;stroke-linejoin:round;stroke-miterlimit:10;stroke-dasharray:none;stroke-opacity:1"
       transform="translate(444.25334,273.94663)"
       clip-path="url(#clipPath10)" />
  </g>
</svg>
