<?xml version="1.0" encoding="UTF-8" standalone="no"?>
<!-- Created with Inkscape (http://www.inkscape.org/) -->

<svg
   version="1.1"
   id="svg1"
   width="264.13333"
   height="110.78667"
   viewBox="0 0 264.13333 110.78667"
   sodipodi:docname="Amalgame11.pdf"
   xmlns:inkscape="http://www.inkscape.org/namespaces/inkscape"
   xmlns:sodipodi="http://sodipodi.sourceforge.net/DTD/sodipodi-0.dtd"
   xmlns="http://www.w3.org/2000/svg"
   xmlns:svg="http://www.w3.org/2000/svg">
  <defs
     id="defs1">
    <clipPath
       clipPathUnits="userSpaceOnUse"
       id="clipPath3">
      <path
         d="M 0,0.16 V 1122.5601 H 793.59998 V 0.16 Z"
         transform="translate(-374.72,-571.67999)"
         clip-rule="evenodd"
         id="path3" />
    </clipPath>
    <clipPath
       clipPathUnits="userSpaceOnUse"
       id="clipPath5">
      <path
         d="M 0,0.16 V 1122.5601 H 793.59998 V 0.16 Z"
         transform="translate(-454.55999,-570.08002)"
         clip-rule="evenodd"
         id="path5" />
    </clipPath>
    <clipPath
       clipPathUnits="userSpaceOnUse"
       id="clipPath7">
      <path
         d="M 0,0.16 V 1122.5601 H 793.59998 V 0.16 Z"
         transform="translate(-3.3333333e-6)"
         clip-rule="evenodd"
         id="path7" />
    </clipPath>
    <clipPath
       clipPathUnits="userSpaceOnUse"
       id="clipPath9">
      <path
         d="M 0,0.16 V 1122.5601 H 793.59998 V 0.16 Z"
         transform="translate(-3.3333333e-6)"
         clip-rule="evenodd"
         id="path9" />
    </clipPath>
    <clipPath
       clipPathUnits="userSpaceOnUse"
       id="clipPath11">
      <path
         d="M 0,0.16 V 1122.5601 H 793.59998 V 0.16 Z"
         transform="translate(-3.3333333e-6)"
         clip-rule="evenodd"
         id="path11" />
    </clipPath>
  </defs>
  <sodipodi:namedview
     id="namedview1"
     pagecolor="#505050"
     bordercolor="#eeeeee"
     borderopacity="1"
     inkscape:showpageshadow="0"
     inkscape:pageopacity="0"
     inkscape:pagecheckerboard="0"
     inkscape:deskcolor="#505050">
    <inkscape:page
       x="0"
       y="0"
       inkscape:label="1"
       id="page1"
       width="264.13333"
       height="110.78667"
       margin="0"
       bleed="0" />
  </sodipodi:namedview>
  <g
     id="g1"
     inkscape:groupmode="layer"
     inkscape:label="1">
    <path
       id="path1"
       d="m 0,0 h 8.8 c 6.72,0 10.079999,2.4 10.079999,7.04 0,3.36 -1.119999,5.92 -3.519999,7.68 C 12.96,16.639999 9.6,17.6 5.28,17.6 H -4.96 c -4.64,0 -7.84,-1.76 -9.44,-5.44 -4,3.68 -8,5.44 -11.68,5.44 h -9.120001 c -5.919998,0 -10.719997,-2.08 -14.399997,-6.4 -3.520001,-4.16 -5.440003,-9.76 -5.440003,-16.48 0,-10.4 3.520001,-19.519999 10.720001,-27.679999 7.040001,-8.16 15.199999,-12.16 24.16,-12.16 6.88,0 11.84,2.399998 15.04,7.039997 C -2.4,-42.080002 1.12,-44 5.44,-44 c 2.4,0 4.32,0.639999 5.92,2.240002 1.6,1.439998 2.4,3.359996 2.4,5.439998 0,1.599999 -0.48,3.360001 -1.28,5.440001 l -0.96,2.24 z m -29.280001,0.48 h 1.92 c 4.480002,0 7.360001,-1.92 8.800002,-5.44 L -12.8,-18.879999 c 0.64,-1.92 1.12,-3.360001 1.12,-4.640001 0,-1.439999 -0.8,-2.72 -2.24,-3.840001 -1.44,-0.959999 -3.039999,-1.599998 -5.120001,-1.599998 -3.839998,0 -7.679998,2.4 -11.359999,6.879999 -3.680002,4.639999 -5.6,9.28 -5.6,14.24 0,5.44 2.240002,8.32 6.719999,8.32 z M 76.959999,0 h 8.959999 C 92.639999,0 96,2.4 96,7.04 c 0,3.36 -1.120003,5.92 -3.519997,7.68 -2.560005,1.919999 -5.760002,2.88 -10.080001,2.88 H 72.160004 c -4.640007,0 -7.840004,-1.76 -9.440003,-5.44 -4,3.68 -8,5.44 -11.68,5.44 H 41.759998 C 35.84,17.6 31.200001,15.52 27.52,11.2 23.84,7.04 22.08,1.44 22.08,-5.28 c 0,-10.4 3.52,-19.519999 10.719999,-27.679999 7.040001,-8.16 15.040001,-12.16 24.16,-12.16 6.720001,0 11.840004,2.399998 15.040001,7.039997 2.559998,-4 6.080002,-5.919998 10.559998,-5.919998 2.240005,0 4.319999,0.639999 5.920005,2.240002 1.599999,1.439998 2.399994,3.359996 2.399994,5.439998 0,1.599999 -0.479995,3.360001 -1.439995,5.440001 l -0.800003,2.24 z M 47.84,0.48 h 1.919998 c 4.480004,0 7.360001,-1.92 8.800003,-5.44 l 5.600003,-13.919999 c 0.799995,-1.92 1.119995,-3.360001 1.119995,-4.640001 0,-1.439999 -0.64,-2.72 -2.079998,-3.840001 C 61.759998,-28.32 60.16,-28.959999 58.080002,-28.959999 c -3.84,0 -7.68,2.4 -11.360001,6.879999 -3.84,4.639999 -5.600002,9.28 -5.600002,14.24 0,5.44 2.240002,8.32 6.720001,8.32 z M 154.08,0 h 8.95999 c 6.72,0 10.08,2.4 10.08,7.04 0,3.36 -1.11999,5.92 -3.67999,7.68 -2.40001,1.919999 -5.6,2.88 -9.92,2.88 h -10.24 c -4.64,0 -7.84,-1.76 -9.44,-5.44 -4.16001,3.68 -8,5.44 -11.68,5.44 h -9.28 c -5.92,0 -10.56,-2.08 -14.24,-6.4 -3.68,-4.16 -5.440003,-9.76 -5.440003,-16.48 0,-10.4 3.520003,-19.519999 10.720003,-27.679999 7.04,-8.16 15.04,-12.16 24,-12.16 6.88,0 12,2.399998 15.19999,7.039997 2.56,-4 6.08001,-5.919998 10.40001,-5.919998 2.4,0 4.48,0.639999 5.92,2.240002 1.59999,1.439998 2.4,3.359996 2.4,5.439998 0,1.599999 -0.32,3.360001 -1.28,5.440001 l -0.80001,2.24 z M 124.8,0.48 h 2.08 c 4.48,0 7.36,-1.92 8.79999,-5.44 L 141.28,-18.879999 c 0.8,-1.92 1.11999,-3.360001 1.11999,-4.640001 0,-1.439999 -0.64,-2.72 -2.07998,-3.840001 C 138.88,-28.32 137.11999,-28.959999 135.2,-28.959999 c -4,0 -7.68,2.4 -11.52,6.879999 -3.68,4.639999 -5.44,9.28 -5.44,14.24 0,5.44 2.24,8.32 6.56,8.32 z"
       style="fill:#000000;fill-opacity:1;fill-rule:nonzero;stroke:none"
       transform="translate(74.346663,85.826601)" />
    <path
       id="path2"
       d="m 0,0 1.12,-0.32 2.08,-1.12 2.24,-1.44 2.08,-1.76 2.24,-2.4 2.24,-2.72 2.24,-3.2 2.24,-3.679999 2.239999,-4.16 2.24,-4.480002 L 22.4,-28.16"
       style="fill:none;stroke:#000000;stroke-width:18.88;stroke-linecap:round;stroke-linejoin:round;stroke-miterlimit:10;stroke-dasharray:none;stroke-opacity:1"
       transform="translate(85.226668,93.826601)"
       clip-path="url(#clipPath3)" />
    <path
       id="path4"
       d="m 0,0 1.12,-0.32 2.08,-0.96 2.24,-1.44 2.24,-1.92 2.08,-2.4 2.24,-2.72 2.24,-3.2 2.24,-3.679999 2.239999,-4.16 2.24,-4.480002 L 22.4,-28.16"
       style="fill:none;stroke:#000000;stroke-width:18.88;stroke-linecap:round;stroke-linejoin:round;stroke-miterlimit:10;stroke-dasharray:none;stroke-opacity:1"
       transform="translate(165.06666,92.226625)"
       clip-path="url(#clipPath5)" />
    <path
       id="path6"
       d="m 317.60001,501.76001 h 40.16"
       style="fill:none;stroke:#000000;stroke-width:26.4;stroke-linecap:round;stroke-linejoin:round;stroke-miterlimit:10;stroke-dasharray:none;stroke-opacity:1"
       transform="translate(-289.49333,-477.85339)"
       clip-path="url(#clipPath7)" />
    <path
       id="path8"
       d="M 400.16,499.51999 436.79999,498.72"
       style="fill:none;stroke:#000000;stroke-width:26.4;stroke-linecap:round;stroke-linejoin:round;stroke-miterlimit:10;stroke-dasharray:none;stroke-opacity:1"
       transform="translate(-289.49333,-477.85339)"
       clip-path="url(#clipPath9)" />
    <path
       id="path10"
       d="m 488,502.72 h 36.64001"
       style="fill:none;stroke:#000000;stroke-width:26.4;stroke-linecap:round;stroke-linejoin:round;stroke-miterlimit:10;stroke-dasharray:none;stroke-opacity:1"
       transform="translate(-289.49333,-477.85339)"
       clip-path="url(#clipPath11)" />
  </g>
</svg>
