<?xml version="1.0" encoding="UTF-8" standalone="no"?>
<!-- Created with Inkscape (http://www.inkscape.org/) -->

<svg
   version="1.1"
   id="svg1"
   width="300.17334"
   height="273.62668"
   viewBox="0 0 300.17334 273.62668"
   sodipodi:docname="Amalgame12.pdf"
   xmlns:inkscape="http://www.inkscape.org/namespaces/inkscape"
   xmlns:sodipodi="http://sodipodi.sourceforge.net/DTD/sodipodi-0.dtd"
   xmlns="http://www.w3.org/2000/svg"
   xmlns:svg="http://www.w3.org/2000/svg">
  <defs
     id="defs1">
    <clipPath
       clipPathUnits="userSpaceOnUse"
       id="clipPath2">
      <path
         d="M -337.44,-580.64001 V 541.76001 h 793.6 V -580.64001 Z"
         transform="translate(2e-6)"
         clip-rule="evenodd"
         id="path2" />
    </clipPath>
    <clipPath
       clipPathUnits="userSpaceOnUse"
       id="clipPath5">
      <path
         d="M -514.08002,-577.12 V 545.28003 H 279.51999 V -577.12 Z"
         transform="translate(-3e-6)"
         clip-rule="evenodd"
         id="path5" />
    </clipPath>
    <clipPath
       clipPathUnits="userSpaceOnUse"
       id="clipPath8">
      <path
         d="m -434.72,-487.84 v 1122.4 h 793.6 v -1122.4 z"
         clip-rule="evenodd"
         id="path8" />
    </clipPath>
    <clipPath
       clipPathUnits="userSpaceOnUse"
       id="clipPath11">
      <path
         d="M -432,-677.91998 V 444.48001 H 361.60001 V -677.91998 Z"
         clip-rule="evenodd"
         id="path11" />
    </clipPath>
  </defs>
  <sodipodi:namedview
     id="namedview1"
     pagecolor="#505050"
     bordercolor="#eeeeee"
     borderopacity="1"
     inkscape:showpageshadow="0"
     inkscape:pageopacity="0"
     inkscape:pagecheckerboard="0"
     inkscape:deskcolor="#505050">
    <inkscape:page
       x="0"
       y="0"
       inkscape:label="1"
       id="page1"
       width="300.17334"
       height="273.62668"
       margin="0"
       bleed="0" />
  </sodipodi:namedview>
  <g
     id="g1"
     inkscape:groupmode="layer"
     inkscape:label="1">
    <path
       id="path1"
       d="m 0,0 h 1.12 l 2.4,-0.32 2.4,-0.8 2.72,-1.12 2.72,-1.6 2.88,-1.92 3.040001,-2.56 3.359998,-2.88 L 24,-14.4 27.360001,-18.08 29.6,-20.48"
       style="fill:none;stroke:#000000;stroke-width:18.88;stroke-linecap:round;stroke-linejoin:round;stroke-miterlimit:10;stroke-dasharray:none;stroke-opacity:1"
       transform="translate(337.44,580.79993)"
       clip-path="url(#clipPath2)" />
    <path
       id="path3"
       d="m 0,0 h 8.96 c 6.72,0 10.080001,2.4 10.080001,7.04 0,3.36 -1.120001,5.92 -3.520001,7.84 -2.4,1.759999 -5.76,2.72 -10.08,2.72 H -4.8 c -4.64,0 -7.84,-1.76 -9.44,-5.44 -4,3.68 -8,5.44 -11.68,5.44 h -9.280001 c -5.919998,0 -10.559997,-2.08 -14.239998,-6.4 -3.68,-4.16 -5.440002,-9.6 -5.440002,-16.48 0,-10.4 3.52,-19.519999 10.720001,-27.679999 7.040001,-8.16 15.200001,-12.16 24.16,-12.16 6.88,0 11.84,2.399998 15.04,7.039997 C -2.24,-42.080002 1.12,-44 5.6,-44 c 2.24,0 4.32,0.639999 5.92,2.240002 1.6,1.439998 2.4,3.359996 2.4,5.599998 0,1.439999 -0.48,3.200001 -1.44,5.280001 l -0.8,2.24 z m -29.120001,0.48 h 1.92 c 4.480002,0 7.360001,-1.92 8.800001,-5.44 l 5.6,-13.919999 c 0.8,-1.92 1.12,-3.360001 1.12,-4.640001 0,-1.439999 -0.64,-2.72 -2.08,-3.840001 -1.44,-0.959999 -3.039999,-1.599998 -5.119999,-1.599998 -3.84,0 -7.68,2.4 -11.360001,6.879999 -3.840002,4.639999 -5.6,9.28 -5.6,14.24 0,5.44 2.240002,8.32 6.719999,8.32 z"
       style="fill:#000000;fill-opacity:1;fill-rule:nonzero;stroke:none"
       transform="translate(325.60001,574.07996)" />
    <path
       id="path4"
       d="m 0,0 h 1.12 l 2.4,-0.32 2.4,-0.8 2.72,-1.12 2.72,-1.6 2.88,-2.08 3.200001,-2.4 3.199998,-2.88 L 24,-14.4 l 3.52,-3.68 2.08,-2.4"
       style="fill:none;stroke:#000000;stroke-width:18.88;stroke-linecap:round;stroke-linejoin:round;stroke-miterlimit:10;stroke-dasharray:none;stroke-opacity:1"
       transform="translate(514.08002,577.27997)"
       clip-path="url(#clipPath5)" />
    <path
       id="path6"
       d="m 0,0 h 8.8 c 6.72,0 10.079999,2.4 10.079999,7.04 0,3.36 -1.119999,5.92 -3.519999,7.68 C 12.96,16.639999 9.6,17.6 5.28,17.6 H -4.96 c -4.64,0 -7.84,-1.92 -9.44,-5.44 -4,3.52 -8,5.44 -11.68,5.44 h -9.120001 c -5.919998,0 -10.719997,-2.24 -14.399997,-6.4 -3.680001,-4.16 -5.440003,-9.76 -5.440003,-16.48 0,-10.4 3.520001,-19.679999 10.720001,-27.679999 7.040001,-8.16 15.199999,-12.32 24.16,-12.32 6.88,0 11.84,2.399998 15.04,7.199997 2.72,-4 6.24,-6.079998 10.56,-6.079998 2.4,0 4.32,0.799999 5.92,2.400002 1.6,1.439998 2.4,3.199997 2.4,5.439998 0,1.599999 -0.48,3.360001 -1.28,5.440001 l -0.96,2.24 z m -29.280001,0.32 h 1.92 c 4.480002,0 7.360001,-1.76 8.800002,-5.28 L -12.96,-18.879999 c 0.8,-1.92 1.28,-3.360001 1.28,-4.640001 0,-1.439999 -0.8,-2.72 -2.24,-3.840001 -1.44,-1.119999 -3.039999,-1.599998 -5.120001,-1.599998 -3.839998,0 -7.679998,2.24 -11.359999,6.879999 -3.680002,4.48 -5.6,9.28 -5.6,14.08 0,5.6 2.240002,8.32 6.719999,8.32 z"
       style="fill:#000000;fill-opacity:1;fill-rule:nonzero;stroke:none"
       transform="translate(502.39999,570.55994)" />
    <path
       id="path7"
       d="m 0,0 h 1.12 l 2.4,-0.32 2.4,-0.8 2.72,-1.12 2.72,-1.6 2.88,-1.92 3.040001,-2.56 3.199999,-2.72 3.36,-3.36 3.520001,-3.68 2.08,-2.4"
       style="fill:none;stroke:#000000;stroke-width:18.88;stroke-linecap:round;stroke-linejoin:round;stroke-miterlimit:10;stroke-dasharray:none;stroke-opacity:1"
       transform="translate(434.72,487.99994)"
       clip-path="url(#clipPath8)" />
    <path
       id="path9"
       d="m 0,0 h 8.96 c 6.72,0 10.080001,2.4 10.080001,7.2 0,3.2 -1.120001,5.76 -3.680001,7.68 -2.4,1.759999 -5.6,2.72 -9.92,2.72 H -4.8 c -4.64,0 -7.84,-1.76 -9.44,-5.44 -4.16,3.68 -8,5.44 -11.68,5.44 h -9.280001 c -5.919998,0 -10.559997,-2.08 -14.239998,-6.4 -3.68,-4.16 -5.440002,-9.6 -5.440002,-16.48 0,-10.24 3.52,-19.519999 10.720001,-27.679999 7.040001,-8.16 15.039999,-12.16 24,-12.16 6.88,0 12,2.399998 15.2,7.200001 C -2.4,-42.080002 1.12,-44 5.44,-44 c 2.4,0 4.48,0.639999 6.08,2.240002 1.44,1.439998 2.24,3.359996 2.24,5.599998 0,1.439999 -0.32,3.200001 -1.28,5.280001 l -0.8,2.24 z m -29.280001,0.48 h 2.08 c 4.480002,0 7.360001,-1.92 8.800001,-5.44 l 5.6,-13.919999 c 0.8,-1.92 1.12,-3.360001 1.12,-4.640001 0,-1.439999 -0.64,-2.72 -2.08,-3.680001 -1.44,-1.119999 -3.199999,-1.759998 -5.119999,-1.759998 -4,0 -7.68,2.4 -11.520001,6.879999 -3.680002,4.639999 -5.44,9.28 -5.44,14.24 0,5.44 2.240002,8.32 6.559999,8.32 z"
       style="fill:#000000;fill-opacity:1;fill-rule:nonzero;stroke:none"
       transform="translate(422.88,481.27994)" />
    <path
       id="path10"
       d="m 0,0 h 1.12 l 2.4,-0.32 2.4,-0.8 2.72,-1.12 2.72,-1.6 2.88,-2.08 3.200001,-2.4 3.199998,-2.88 L 24,-14.4 l 3.52,-3.68 2.08,-2.4"
       style="fill:none;stroke:#000000;stroke-width:18.88;stroke-linecap:round;stroke-linejoin:round;stroke-miterlimit:10;stroke-dasharray:none;stroke-opacity:1"
       transform="translate(432,678.07996)"
       clip-path="url(#clipPath11)" />
    <path
       id="path12"
       d="m 0,0 h 8.8 c 6.72,0 10.079999,2.4 10.079999,7.04 0,3.36 -1.119999,5.92 -3.519999,7.68 C 12.96,16.639999 9.6,17.6 5.28,17.6 H -4.96 c -4.64,0 -7.84,-1.92 -9.44,-5.44 -4,3.52 -8,5.44 -11.68,5.44 h -9.120001 c -5.919998,0 -10.719997,-2.08 -14.399997,-6.4 -3.680001,-4.16 -5.440003,-9.76 -5.440003,-16.48 0,-10.4 3.520001,-19.519999 10.720001,-27.679999 7.040001,-8.16 15.199999,-12.32 24.16,-12.32 6.88,0 11.84,2.399998 15.04,7.199997 C -2.4,-42.080002 1.12,-44 5.44,-44 c 2.4,0 4.32,0.639999 5.92,2.240002 1.6,1.439998 2.4,3.359996 2.4,5.439998 0,1.599999 -0.48,3.360001 -1.28,5.440001 l -0.96,2.24 z m -29.280001,0.32 h 1.92 c 4.480002,0 7.360001,-1.76 8.800002,-5.28 L -12.96,-18.879999 c 0.8,-1.92 1.28,-3.360001 1.28,-4.640001 0,-1.439999 -0.8,-2.72 -2.24,-3.840001 -1.44,-0.959999 -3.039999,-1.599998 -5.120001,-1.599998 -3.839998,0 -7.679998,2.24 -11.359999,6.879999 -3.680002,4.639999 -5.6,9.28 -5.6,14.24 0,5.44 2.240002,8.16 6.719999,8.16 z"
       style="fill:#000000;fill-opacity:1;fill-rule:nonzero;stroke:none"
       transform="translate(420.32001,671.35993)" />
  </g>
</svg>
