<?xml version="1.0" encoding="UTF-8" standalone="no"?>
<!-- Created with Inkscape (http://www.inkscape.org/) -->

<svg
   version="1.1"
   id="svg1"
   width="421.56"
   height="290.98666"
   viewBox="0 0 421.56 290.98666"
   sodipodi:docname="Amalgame7.pdf"
   xmlns:inkscape="http://www.inkscape.org/namespaces/inkscape"
   xmlns:sodipodi="http://sodipodi.sourceforge.net/DTD/sodipodi-0.dtd"
   xmlns="http://www.w3.org/2000/svg"
   xmlns:svg="http://www.w3.org/2000/svg">
  <defs
     id="defs1">
    <clipPath
       clipPathUnits="userSpaceOnUse"
       id="clipPath2">
      <path
         d="M 0,0.16 V 1122.5601 H 793.59998 V 0.16 Z"
         clip-rule="evenodd"
         id="path2" />
    </clipPath>
    <clipPath
       clipPathUnits="userSpaceOnUse"
       id="clipPath4">
      <path
         d="M 0,0.16 V 1122.5601 H 793.59998 V 0.16 Z"
         clip-rule="evenodd"
         id="path4" />
    </clipPath>
    <clipPath
       clipPathUnits="userSpaceOnUse"
       id="clipPath6">
      <path
         d="M 0,0.16 V 1122.5601 H 793.59998 V 0.16 Z"
         clip-rule="evenodd"
         id="path6" />
    </clipPath>
    <clipPath
       clipPathUnits="userSpaceOnUse"
       id="clipPath8">
      <path
         d="M 0,0.16 V 1122.5601 H 793.59998 V 0.16 Z"
         transform="translate(-471.84,-578.71997)"
         clip-rule="evenodd"
         id="path8" />
    </clipPath>
    <clipPath
       clipPathUnits="userSpaceOnUse"
       id="clipPath10">
      <path
         d="M 0,0.16 V 1122.5601 H 793.59998 V 0.16 Z"
         clip-rule="evenodd"
         id="path10" />
    </clipPath>
    <clipPath
       clipPathUnits="userSpaceOnUse"
       id="clipPath12">
      <path
         d="M 0,0.16 V 1122.5601 H 793.59998 V 0.16 Z"
         clip-rule="evenodd"
         id="path12" />
    </clipPath>
    <clipPath
       clipPathUnits="userSpaceOnUse"
       id="clipPath14">
      <path
         d="M 0,0.16 V 1122.5601 H 793.59998 V 0.16 Z"
         transform="translate(-169.75999,-673.12)"
         clip-rule="evenodd"
         id="path14" />
    </clipPath>
    <clipPath
       clipPathUnits="userSpaceOnUse"
       id="clipPath16">
      <path
         d="M 0,0.16 V 1122.5601 H 793.59998 V 0.16 Z"
         transform="translate(-471.84,-673.12)"
         clip-rule="evenodd"
         id="path16" />
    </clipPath>
  </defs>
  <sodipodi:namedview
     id="namedview1"
     pagecolor="#505050"
     bordercolor="#eeeeee"
     borderopacity="1"
     inkscape:showpageshadow="0"
     inkscape:pageopacity="0"
     inkscape:pagecheckerboard="0"
     inkscape:deskcolor="#505050">
    <inkscape:page
       x="0"
       y="0"
       inkscape:label="1"
       id="page1"
       width="421.56"
       height="290.98666"
       margin="0"
       bleed="0" />
  </sodipodi:namedview>
  <g
     id="g1"
     inkscape:groupmode="layer"
     inkscape:label="1">
    <path
       id="path1"
       d="M 207.52,635.35998 H 509.60001"
       style="fill:none;stroke:#000000;stroke-width:26.4;stroke-linecap:round;stroke-linejoin:round;stroke-miterlimit:10;stroke-dasharray:none;stroke-opacity:1"
       transform="translate(-148.08,-444.48006)"
       clip-path="url(#clipPath2)" />
    <path
       id="path3"
       d="M 207.52,578.71997 H 509.60001"
       style="fill:none;stroke:#000000;stroke-width:26.4;stroke-linecap:round;stroke-linejoin:round;stroke-miterlimit:10;stroke-dasharray:none;stroke-opacity:1"
       transform="translate(-148.08,-444.48006)"
       clip-path="url(#clipPath4)" />
    <path
       id="path5"
       d="M 207.52,522.08002 H 509.60001"
       style="fill:none;stroke:#000000;stroke-width:26.4;stroke-linecap:round;stroke-linejoin:round;stroke-miterlimit:10;stroke-dasharray:none;stroke-opacity:1"
       transform="translate(-148.08,-444.48006)"
       clip-path="url(#clipPath6)" />
    <path
       id="path7"
       d="m 0,0 -0.32,-6.72 -0.48,-6.88 -1.12,-6.72 -1.44,-6.720001 -1.76,-6.559997 -2.24,-6.560002 -2.72,-6.240002 -2.88,-6.239997 -3.36,-5.920002 -3.84,-5.759999 -4,-5.440002 -4.32,-5.279999 L -33.279999,-80 l -4.960003,-4.800003 -5.279998,-4.32 -5.439999,-4 -5.760002,-3.68 -5.919998,-3.359997 -6.239998,-3.04 -6.240006,-2.72 -6.559997,-2.24 -6.559998,-1.76 -6.720001,-1.44 -6.720001,-0.96 -6.72,-0.64 -6.88,-0.32 -6.88,0.32 -6.88,0.64 -6.71999,0.96 -6.72001,1.44 -6.55999,1.76 -6.40001,2.24 -6.4,2.72 -6.08,3.04 -5.92,3.359997 -5.76001,3.68 -5.59999,4 -5.28,4.32 -4.96,4.800003 -4.64,4.959999 -4.31999,5.279999 -4.16001,5.440002 -3.68,5.759999 -3.36001,5.920002 -3.03999,6.239997 -2.56,6.240002 -2.24,6.560002 -1.92,6.559997 -1.44,6.720001 -0.95999,6.72 -0.64,6.88 L -226.56,0"
       style="fill:none;stroke:#000000;stroke-width:26.4;stroke-linecap:round;stroke-linejoin:round;stroke-miterlimit:10;stroke-dasharray:none;stroke-opacity:1"
       transform="translate(323.76,134.23991)"
       clip-path="url(#clipPath8)" />
    <path
       id="path9"
       d="M 245.28,578.71997 V 673.12"
       style="fill:none;stroke:#000000;stroke-width:26.4;stroke-linecap:round;stroke-linejoin:round;stroke-miterlimit:10;stroke-dasharray:none;stroke-opacity:1"
       transform="translate(-148.08,-444.48006)"
       clip-path="url(#clipPath10)" />
    <path
       id="path11"
       d="m 471.20001,569.12 0.63999,104"
       style="fill:none;stroke:#000000;stroke-width:26.4;stroke-linecap:round;stroke-linejoin:round;stroke-miterlimit:10;stroke-dasharray:none;stroke-opacity:1"
       transform="translate(-148.08,-444.48006)"
       clip-path="url(#clipPath12)" />
    <path
       id="path13"
       d="M 0,0 0.16,3.52 0.64,7.04 1.44,10.4 2.56,13.76 4,16.959999 5.6,20 7.68,22.879999 9.76,25.440001 12.32,28 l 2.72,2.24 2.88,1.92 3.039999,1.759998 3.200001,1.280003 3.200001,1.119999 3.359998,0.799999 3.520003,0.479999 3.519996,0.16 3.520001,-0.16 3.36,-0.479999 L 48,36.32 l 3.360001,-1.119999 3.2,-1.280003 L 57.599998,32.16 60.48,30.24 63.200001,28 65.599998,25.440001 67.839996,22.879999 69.760002,20 71.519997,16.959999 72.959999,13.76 74.080002,10.4 74.879997,7.04 75.360001,3.52 75.519997,0"
       style="fill:none;stroke:#000000;stroke-width:26.4;stroke-linecap:round;stroke-linejoin:round;stroke-miterlimit:10;stroke-dasharray:none;stroke-opacity:1"
       transform="translate(21.679995,228.63994)"
       clip-path="url(#clipPath14)" />
    <path
       id="path15"
       d="m 0,0 0.16,3.52 0.48,3.52 0.8,3.36 1.12,3.36 1.28,3.199999 L 5.6,20 7.52,22.879999 9.76,25.440001 12.32,28 l 2.72,2.24 2.72,1.92 3.199999,1.759998 L 24,35.200001 27.360001,36.32 l 3.359998,0.799999 3.520003,0.479999 3.519996,0.16 3.520001,-0.16 3.36,-0.479999 L 48,36.32 l 3.360001,-1.119999 3.2,-1.280003 L 57.599998,32.16 60.48,30.24 63.200001,28 65.599998,25.440001 67.839996,22.879999 69.760002,20 71.519997,16.959999 72.959999,13.76 74.080002,10.4 74.879997,7.04 75.360001,3.52 75.519997,0"
       style="fill:none;stroke:#000000;stroke-width:26.4;stroke-linecap:round;stroke-linejoin:round;stroke-miterlimit:10;stroke-dasharray:none;stroke-opacity:1"
       transform="translate(323.76,228.63994)"
       clip-path="url(#clipPath16)" />
  </g>
</svg>
