<?xml version="1.0" encoding="UTF-8" standalone="no"?>
<!-- Created with Inkscape (http://www.inkscape.org/) -->

<svg
   version="1.1"
   id="svg1"
   width="421.56"
   height="305.66666"
   viewBox="0 0 421.56 305.66666"
   sodipodi:docname="Amalgame6.pdf"
   xmlns:inkscape="http://www.inkscape.org/namespaces/inkscape"
   xmlns:sodipodi="http://sodipodi.sourceforge.net/DTD/sodipodi-0.dtd"
   xmlns="http://www.w3.org/2000/svg"
   xmlns:svg="http://www.w3.org/2000/svg">
  <defs
     id="defs1">
    <clipPath
       clipPathUnits="userSpaceOnUse"
       id="clipPath2">
      <path
         d="M 0,0.16 V 1122.5601 H 793.59998 V 0.16 Z"
         transform="translate(3.3333333e-6)"
         clip-rule="evenodd"
         id="path2" />
    </clipPath>
    <clipPath
       clipPathUnits="userSpaceOnUse"
       id="clipPath4">
      <path
         d="M 0,0.16 V 1122.5601 H 793.59998 V 0.16 Z"
         transform="translate(3.3333333e-6)"
         clip-rule="evenodd"
         id="path4" />
    </clipPath>
    <clipPath
       clipPathUnits="userSpaceOnUse"
       id="clipPath6">
      <path
         d="M 0,0.16 V 1122.5601 H 793.59998 V 0.16 Z"
         transform="translate(3.3333333e-6)"
         clip-rule="evenodd"
         id="path6" />
    </clipPath>
    <clipPath
       clipPathUnits="userSpaceOnUse"
       id="clipPath8">
      <path
         d="M 0,0.16 V 1122.5601 H 793.59998 V 0.16 Z"
         transform="translate(3.3333333e-6)"
         clip-rule="evenodd"
         id="path8" />
    </clipPath>
    <clipPath
       clipPathUnits="userSpaceOnUse"
       id="clipPath10">
      <path
         d="M 0,0.16 V 1122.5601 H 793.59998 V 0.16 Z"
         transform="translate(-172,-678.23999)"
         clip-rule="evenodd"
         id="path10" />
    </clipPath>
    <clipPath
       clipPathUnits="userSpaceOnUse"
       id="clipPath12">
      <path
         d="M 0,0.16 V 1122.5601 H 793.59998 V 0.16 Z"
         transform="translate(-473.44001,-687.20001)"
         clip-rule="evenodd"
         id="path12" />
    </clipPath>
  </defs>
  <sodipodi:namedview
     id="namedview1"
     pagecolor="#505050"
     bordercolor="#eeeeee"
     borderopacity="1"
     inkscape:showpageshadow="0"
     inkscape:pageopacity="0"
     inkscape:pagecheckerboard="0"
     inkscape:deskcolor="#505050">
    <inkscape:page
       x="0"
       y="0"
       inkscape:label="1"
       id="page1"
       width="421.56"
       height="305.66666"
       margin="0"
       bleed="0" />
  </sodipodi:namedview>
  <g
     id="g1"
     inkscape:groupmode="layer"
     inkscape:label="1">
    <path
       id="path1"
       d="M 207.52,635.35998 H 509.60001"
       style="fill:none;stroke:#000000;stroke-width:26.4;stroke-linecap:round;stroke-linejoin:round;stroke-miterlimit:10;stroke-dasharray:none;stroke-opacity:1"
       transform="translate(-150.74667,-436.48006)"
       clip-path="url(#clipPath2)" />
    <path
       id="path3"
       d="M 207.52,578.71997 H 509.60001"
       style="fill:none;stroke:#000000;stroke-width:26.4;stroke-linecap:round;stroke-linejoin:round;stroke-miterlimit:10;stroke-dasharray:none;stroke-opacity:1"
       transform="translate(-150.74667,-436.48006)"
       clip-path="url(#clipPath4)" />
    <path
       id="path5"
       d="M 207.52,522.08002 H 509.60001"
       style="fill:none;stroke:#000000;stroke-width:26.4;stroke-linecap:round;stroke-linejoin:round;stroke-miterlimit:10;stroke-dasharray:none;stroke-opacity:1"
       transform="translate(-150.74667,-436.48006)"
       clip-path="url(#clipPath6)" />
    <path
       id="path7"
       d="M 245.28,692 358.56,465.44 471.84,692"
       style="fill:none;stroke:#000000;stroke-width:26.4;stroke-linecap:round;stroke-linejoin:round;stroke-miterlimit:10;stroke-dasharray:none;stroke-opacity:1"
       transform="translate(-150.74667,-436.48006)"
       clip-path="url(#clipPath8)" />
    <path
       id="path9"
       d="m 0,0 -0.48,3.52 -0.16,3.52 0.16,3.36 0.64,3.52 0.8,3.360001 1.12,3.359998 L 3.52,23.68 5.28,26.719999 7.2,29.6 l 2.24,2.72 2.56,2.400001 2.72,2.239998 2.88,1.920002 3.039999,1.759998 3.200001,1.279999 3.360001,1.120003 3.359998,0.799999 3.359999,0.48 h 3.520001 l 3.52,-0.16 L 44.48,43.68 47.84,42.880001 51.040001,41.759998 54.240002,40.32 57.279999,38.560001 60.16,36.639999 62.880001,34.240002 65.279999,31.84 67.519997,29.120001 69.440002,26.24 71.040001,23.200001 72.480003,20 l 1.119995,-3.360001 0.64,-3.359999"
       style="fill:none;stroke:#000000;stroke-width:26.4;stroke-linecap:round;stroke-linejoin:round;stroke-miterlimit:10;stroke-dasharray:none;stroke-opacity:1"
       transform="translate(21.253333,241.75993)"
       clip-path="url(#clipPath10)" />
    <path
       id="path11"
       d="m 0,0 0.8,3.52 1.12,3.2 1.28,3.36 1.76,3.04 1.92,2.88 2.24,2.719999 2.4,2.400002 2.56,2.24 2.879999,2.08 3.040001,1.76 3.200001,1.439998 3.359998,1.120001 3.360001,0.799999 3.359999,0.640002 3.52,0.16 3.520001,-0.16 3.36,-0.480002 L 47.200001,30.08 50.400002,28.959999 53.759998,27.52 56.799999,25.92 59.68,24 62.400002,21.76 64.800003,19.360001 67.040001,16.639999 69.120003,13.92 70.879997,10.88 72.32,7.68 l 1.120002,-3.36 0.799996,-3.36 0.639999,-3.52 0.160004,-3.36 -0.160004,-3.52 -0.479995,-3.52"
       style="fill:none;stroke:#000000;stroke-width:26.4;stroke-linecap:round;stroke-linejoin:round;stroke-miterlimit:10;stroke-dasharray:none;stroke-opacity:1"
       transform="translate(322.69334,250.71995)"
       clip-path="url(#clipPath12)" />
  </g>
</svg>
