<?xml version="1.0" encoding="UTF-8" standalone="no"?>
<!-- Created with Inkscape (http://www.inkscape.org/) -->

<svg
   version="1.1"
   id="svg1"
   width="268.14667"
   height="197.54668"
   viewBox="0 0 268.14667 197.54668"
   sodipodi:docname="Bronze7.pdf"
   xmlns:inkscape="http://www.inkscape.org/namespaces/inkscape"
   xmlns:sodipodi="http://sodipodi.sourceforge.net/DTD/sodipodi-0.dtd"
   xmlns="http://www.w3.org/2000/svg"
   xmlns:svg="http://www.w3.org/2000/svg">
  <defs
     id="defs1">
    <clipPath
       clipPathUnits="userSpaceOnUse"
       id="clipPath2">
      <path
         d="M 0,0.16 V 1122.5601 H 793.59998 V 0.16 Z"
         transform="translate(-472.48001,-560.64002)"
         clip-rule="evenodd"
         id="path2" />
    </clipPath>
    <clipPath
       clipPathUnits="userSpaceOnUse"
       id="clipPath4">
      <path
         d="M 0,0.16 V 1122.5601 H 793.59998 V 0.16 Z"
         transform="translate(-396.79999,-561.28003)"
         clip-rule="evenodd"
         id="path4" />
    </clipPath>
    <clipPath
       clipPathUnits="userSpaceOnUse"
       id="clipPath6">
      <path
         d="M 0,0.16 V 1122.5601 H 793.59998 V 0.16 Z"
         transform="translate(-379.35999,-590.08002)"
         clip-rule="evenodd"
         id="path6" />
    </clipPath>
    <clipPath
       clipPathUnits="userSpaceOnUse"
       id="clipPath8">
      <path
         d="M 0,0.16 V 1122.5601 H 793.59998 V 0.16 Z"
         transform="translate(-435.51999,-589.12)"
         clip-rule="evenodd"
         id="path8" />
    </clipPath>
    <clipPath
       clipPathUnits="userSpaceOnUse"
       id="clipPath10">
      <path
         d="M 0,0.16 V 1122.5601 H 793.59998 V 0.16 Z"
         transform="translate(-379.35999,-590.08002)"
         clip-rule="evenodd"
         id="path10" />
    </clipPath>
  </defs>
  <sodipodi:namedview
     id="namedview1"
     pagecolor="#505050"
     bordercolor="#eeeeee"
     borderopacity="1"
     inkscape:showpageshadow="0"
     inkscape:pageopacity="0"
     inkscape:pagecheckerboard="0"
     inkscape:deskcolor="#505050">
    <inkscape:page
       x="0"
       y="0"
       inkscape:label="1"
       id="page1"
       width="268.14667"
       height="197.54668"
       margin="0"
       bleed="0" />
  </sodipodi:namedview>
  <g
     id="g1"
     inkscape:groupmode="layer"
     inkscape:label="1">
    <path
       id="path1"
       d="m 0,0 c 0,-41.349998 -33.52,-74.879997 -74.879997,-74.879997 -41.360003,0 -74.879993,33.529999 -74.879993,74.879997 0,41.349998 33.51999,74.879997 74.879993,74.879997 C -33.52,74.879997 0,41.349998 0,0 Z"
       style="fill:none;stroke:#000000;stroke-width:26.4;stroke-linecap:round;stroke-linejoin:round;stroke-miterlimit:10;stroke-dasharray:none;stroke-opacity:1"
       transform="translate(248.36001,100.13329)"
       clip-path="url(#clipPath2)" />
    <path
       id="path3"
       d="M 0,0 -0.16,-5.28 -0.64,-10.72 -1.6,-15.84 -3.04,-21.120001 -4.64,-26.24 -6.72,-31.200001 -9.12,-36 l -2.72,-4.48 -2.88,-4.479999 -3.36,-4.16 -3.68,-4 -3.84,-3.68 -4.16,-3.360001 -4.480002,-3.040001 -4.479999,-2.719997 -4.799999,-2.560005 -4.96,-2.079995 -4.959999,-1.600006 -5.280002,-1.439994 -5.279999,-0.96 -5.279999,-0.639999 -5.279999,-0.32 -5.440002,0.159996 -5.279999,0.480004 -5.279999,0.959999 -5.120002,1.119995 -5.12,1.760002 -4.96,1.919998 -4.8,2.240006 -4.64,2.719993 -4.48,3.040005 -4.32,3.200001 -3.84,3.679996 -3.83999,3.84 -3.36,4 -3.20001,4.32 -2.72001,4.640003 -2.55999,4.64 -2.08001,4.959999 -1.91999,5.120001 -1.44001,5.119999 -0.95999,5.28 -0.8,5.28 -0.16,5.28"
       style="fill:none;stroke:#000000;stroke-width:26.4;stroke-linecap:round;stroke-linejoin:round;stroke-miterlimit:10;stroke-dasharray:none;stroke-opacity:1"
       transform="translate(172.67999,100.7733)"
       clip-path="url(#clipPath4)" />
    <path
       id="path5"
       d="M 0,0 V -1.28 L -0.32,-2.72 -0.8,-3.84 -1.44,-5.12 -2.24,-6.24 -3.2,-7.2 -4.32,-8 -5.44,-8.64 -6.72,-9.12 -8,-9.28 l -1.44,-0.16 -1.28,0.16 -1.28,0.16 -1.28,0.48 -1.28,0.64 -0.96,0.8 -0.96,0.96 -0.800001,1.12 -0.639999,1.28 -0.48,1.12 -0.319999,1.44 -0.16,1.28 0.16,1.28 0.319999,1.44 0.48,1.28 0.639999,1.12 0.800001,1.12 0.96,0.96 0.96,0.8 1.28,0.64 1.28,0.48 1.28,0.16 1.28,0.16 L -8,9.28 -6.72,9.12 -5.44,8.64 -4.32,8 -3.2,7.2 -2.24,6.24 -1.44,5.12 -0.8,4 -0.32,2.72 0,1.28 V 0 0 Z"
       style="fill:#000000;fill-opacity:1;fill-rule:evenodd;stroke:none"
       transform="translate(155.23999,129.57329)"
       clip-path="url(#clipPath6)" />
    <path
       id="path7"
       d="M 0,0 V -1.28 L -0.32,-2.56 -0.8,-3.84 -1.44,-4.96 -2.24,-6.08 -3.2,-7.04 -4.32,-7.84 -5.44,-8.48 -6.72,-8.96 -8,-9.28 l -1.44,-0.16 -1.28,0.16 -1.28,0.32 -1.28,0.48 -1.12,0.64 -1.12,0.8 -0.96,0.96 -0.800001,1.12 -0.639999,1.12 -0.48,1.28 -0.319999,1.28 V 0 1.44 L -18.4,2.72 -17.92,4 l 0.639999,1.12 0.800001,1.12 0.96,0.96 1.12,0.8 1.12,0.64 1.28,0.48 1.28,0.32 H -9.44 -8 L -6.72,9.12 -5.44,8.64 -4.32,8 -3.2,7.2 -2.24,6.24 -1.44,5.12 -0.8,4 -0.32,2.72 0,1.44 V 0 0 Z"
       style="fill:#000000;fill-opacity:1;fill-rule:evenodd;stroke:none"
       transform="translate(211.39999,128.61327)"
       clip-path="url(#clipPath8)" />
    <path
       id="path9"
       d="M 0,0 V -1.28 L -0.32,-2.72 -0.8,-3.84 -1.44,-5.12 -2.24,-6.24 -3.2,-7.2 -4.32,-8 -5.44,-8.64 -6.72,-9.12 -8,-9.28 l -1.44,-0.16 -1.28,0.16 -1.28,0.16 -1.28,0.48 -1.28,0.64 -0.96,0.8 -0.96,0.96 -0.800001,1.12 -0.639999,1.28 -0.48,1.12 -0.319999,1.44 -0.16,1.28 0.16,1.28 0.319999,1.44 0.48,1.28 0.639999,1.12 0.800001,1.12 0.96,0.96 0.96,0.8 1.28,0.64 1.28,0.48 1.28,0.16 1.28,0.16 L -8,9.28 -6.72,9.12 -5.44,8.64 -4.32,8 -3.2,7.2 -2.24,6.24 -1.44,5.12 -0.8,4 -0.32,2.72 0,1.28 V 0 m 56.16,-0.96 v -1.28 l -0.32,-1.28 -0.479999,-1.28 -0.64,-1.12 L 53.919998,-7.04 52.959999,-8 51.84,-8.8 50.720001,-9.44 49.439999,-9.92 48.16,-10.24 46.720001,-10.4 45.439999,-10.24 44.16,-9.92 42.880001,-9.44 41.759998,-8.8 40.639999,-8 39.68,-7.04 l -0.799999,1.12 -0.639999,1.12 -0.480004,1.28 -0.319999,1.28 v 1.28 1.44 l 0.319999,1.28 0.480004,1.28 0.639999,1.12 0.799999,1.12 0.959999,0.96 1.119999,0.8 1.120003,0.64 L 44.16,8.16 45.439999,8.48 H 46.720001 48.16 L 49.439999,8.16 50.720001,7.68 51.84,7.04 l 1.119999,-0.8 0.959999,-0.96 0.800003,-1.12 0.64,-1.12 L 55.84,1.76 56.16,0.48 v -1.44"
       style="fill:none;stroke:#000000;stroke-width:0.48;stroke-linecap:round;stroke-linejoin:round;stroke-miterlimit:10;stroke-dasharray:none;stroke-opacity:1"
       transform="translate(155.23999,129.57329)"
       clip-path="url(#clipPath10)" />
  </g>
</svg>
