<?xml version="1.0" encoding="UTF-8" standalone="no"?>
<!-- Created with Inkscape (http://www.inkscape.org/) -->

<svg
   version="1.1"
   id="svg1"
   width="338.85333"
   height="236.26666"
   viewBox="0 0 338.85333 236.26666"
   sodipodi:docname="Bronze3.pdf"
   xmlns:inkscape="http://www.inkscape.org/namespaces/inkscape"
   xmlns:sodipodi="http://sodipodi.sourceforge.net/DTD/sodipodi-0.dtd"
   xmlns="http://www.w3.org/2000/svg"
   xmlns:svg="http://www.w3.org/2000/svg">
  <defs
     id="defs1">
    <clipPath
       clipPathUnits="userSpaceOnUse"
       id="clipPath2">
      <path
         d="M 0,0.16 V 1122.5601 H 793.59998 V 0.16 Z"
         transform="translate(-472.32001,-561.28003)"
         clip-rule="evenodd"
         id="path2" />
    </clipPath>
    <clipPath
       clipPathUnits="userSpaceOnUse"
       id="clipPath4">
      <path
         d="M 0,0.16 V 1122.5601 H 793.59998 V 0.16 Z"
         transform="translate(-396.79999,-561.28003)"
         clip-rule="evenodd"
         id="path4" />
    </clipPath>
    <clipPath
       clipPathUnits="userSpaceOnUse"
       id="clipPath6">
      <path
         d="M 0,0.16 V 1122.5601 H 793.59998 V 0.16 Z"
         transform="translate(-396.79999,-561.28003)"
         clip-rule="evenodd"
         id="path6" />
    </clipPath>
  </defs>
  <sodipodi:namedview
     id="namedview1"
     pagecolor="#505050"
     bordercolor="#eeeeee"
     borderopacity="1"
     inkscape:showpageshadow="0"
     inkscape:pageopacity="0"
     inkscape:pagecheckerboard="0"
     inkscape:deskcolor="#505050">
    <inkscape:page
       x="0"
       y="0"
       inkscape:label="1"
       id="page1"
       width="338.85333"
       height="236.26666"
       margin="0"
       bleed="0" />
  </sodipodi:namedview>
  <g
     id="g1"
     inkscape:groupmode="layer"
     inkscape:label="1">
    <path
       id="path1"
       d="m 0,0 c 0,-41.700001 -33.810001,-75.519997 -75.519997,-75.519997 -41.710003,0 -75.519993,33.819996 -75.519993,75.519997 0,41.700001 33.80999,75.519997 75.519993,75.519997 C -33.810001,75.519997 0,41.700001 0,0 Z"
       style="fill:none;stroke:#000000;stroke-width:26.4;stroke-linecap:round;stroke-linejoin:round;stroke-miterlimit:10;stroke-dasharray:none;stroke-opacity:1"
       transform="translate(244.20001,116.79997)"
       clip-path="url(#clipPath2)" />
    <path
       id="path3"
       d="m 0,0 0.96,-5.28 0.48,-5.44 V -16 L 1.28,-21.440001 0.48,-26.719999 -0.48,-32 l -1.44,-5.279999 -1.76,-5.120003 -2.24,-4.959999 -2.4,-4.799999 -2.88,-4.479999 -3.04,-4.48 -3.52,-4.000004 -3.680001,-4 -4,-3.519996 L -29.76,-76 -34.240002,-79.040001 -38.880001,-81.599998 -43.84,-84 l -4.959999,-1.919998 -5.119999,-1.599999 -5.280003,-1.280006 -5.280002,-0.959999 -5.439995,-0.479996 h -5.279999 l -5.440002,0.159996 -5.279999,0.800003 -5.440003,0.959999 -5.120002,1.440003 -5.119997,1.759994 -4.96,2.240006 -4.8,2.399994 -4.48,2.880005 -4.48,3.199996 -4.16,3.360001 -3.84001,3.68 -3.51999,4.16 -3.36,4.16 -3.04,4.48 -2.56,4.640003 -2.4,4.959999 L -145.11999,-40 -146.88,-34.880001 -148,-29.6"
       style="fill:none;stroke:#000000;stroke-width:26.4;stroke-linecap:round;stroke-linejoin:round;stroke-miterlimit:10;stroke-dasharray:none;stroke-opacity:1"
       transform="translate(168.67999,116.79997)"
       clip-path="url(#clipPath4)" />
    <path
       id="path5"
       d="m 0,0 -0.8,5.28 -0.48,5.44 -0.16,5.44 0.32,5.280001 0.64,5.439998 1.12,5.280001 1.44,5.119999 1.76,5.120003 2.08,4.959999 2.56,4.799999 2.72,4.479999 3.2,4.48 3.52,4.16 3.68,3.840004 4,3.68 L 29.92,76 34.400002,79.040001 39.040001,81.760002 43.84,84 l 5.119999,2.080002 5.120003,1.599998 5.279999,1.120003 5.279998,0.959999 5.279999,0.479996 5.440003,0.160004 5.440002,-0.32 5.279999,-0.64 L 91.360001,88.32 96.639999,86.879997 101.6,85.120003 l 4.96,-2.080002 4.8,-2.559998 4.64,-2.880005 4.32,-3.04 4.16,-3.519997 3.84001,-3.68 3.67999,-4 3.36,-4.32 2.88,-4.48 2.72001,-4.640003 L 143.36,45.119999 145.28,40 146.88,34.880001 148.16,29.6"
       style="fill:none;stroke:#000000;stroke-width:26.4;stroke-linecap:round;stroke-linejoin:round;stroke-miterlimit:10;stroke-dasharray:none;stroke-opacity:1"
       transform="translate(168.67999,116.79997)"
       clip-path="url(#clipPath6)" />
  </g>
</svg>
