<?xml version="1.0" encoding="UTF-8" standalone="no"?>
<!-- Created with Inkscape (http://www.inkscape.org/) -->

<svg
   version="1.1"
   id="svg1"
   width="317.50668"
   height="336.35999"
   viewBox="0 0 317.50668 336.35999"
   sodipodi:docname="Electrum4.pdf"
   xmlns:inkscape="http://www.inkscape.org/namespaces/inkscape"
   xmlns:sodipodi="http://sodipodi.sourceforge.net/DTD/sodipodi-0.dtd"
   xmlns="http://www.w3.org/2000/svg"
   xmlns:svg="http://www.w3.org/2000/svg">
  <defs
     id="defs1">
    <clipPath
       clipPathUnits="userSpaceOnUse"
       id="clipPath2">
      <path
         d="M 0,0.16 V 1122.5601 H 793.59998 V 0.16 Z"
         transform="translate(-382.88,-454.23999)"
         clip-rule="evenodd"
         id="path2" />
    </clipPath>
    <clipPath
       clipPathUnits="userSpaceOnUse"
       id="clipPath4">
      <path
         d="M 0,0.16 V 1122.5601 H 793.59998 V 0.16 Z"
         transform="translate(-503.67999,-575.03998)"
         clip-rule="evenodd"
         id="path4" />
    </clipPath>
    <clipPath
       clipPathUnits="userSpaceOnUse"
       id="clipPath6">
      <path
         d="M 0,0.16 V 1122.5601 H 793.59998 V 0.16 Z"
         clip-rule="evenodd"
         id="path6" />
    </clipPath>
    <clipPath
       clipPathUnits="userSpaceOnUse"
       id="clipPath8">
      <path
         d="M 0,0.16 V 1122.5601 H 793.59998 V 0.16 Z"
         clip-rule="evenodd"
         id="path8" />
    </clipPath>
    <clipPath
       clipPathUnits="userSpaceOnUse"
       id="clipPath10">
      <path
         d="M 0,0.16 V 1122.5601 H 793.59998 V 0.16 Z"
         transform="translate(-521.44,-695.84003)"
         clip-rule="evenodd"
         id="path10" />
    </clipPath>
  </defs>
  <sodipodi:namedview
     id="namedview1"
     pagecolor="#505050"
     bordercolor="#eeeeee"
     borderopacity="1"
     inkscape:showpageshadow="0"
     inkscape:pageopacity="0"
     inkscape:pagecheckerboard="0"
     inkscape:deskcolor="#505050">
    <inkscape:page
       x="0"
       y="0"
       inkscape:label="1"
       id="page1"
       width="317.50668"
       height="336.35999"
       margin="0"
       bleed="0" />
  </sodipodi:namedview>
  <g
     id="g1"
     inkscape:groupmode="layer"
     inkscape:label="1">
    <path
       id="path1"
       d="M 0,0 C 0,-23.59 -19.120001,-42.720001 -42.720001,-42.720001 -66.32,-42.720001 -85.440002,-23.59 -85.440002,0 c 0,23.59 19.120002,42.720001 42.720001,42.720001 C -19.120001,42.720001 0,23.59 0,0 Z"
       style="fill:none;stroke:#000000;stroke-width:26.4;stroke-linecap:round;stroke-linejoin:round;stroke-miterlimit:10;stroke-dasharray:none;stroke-opacity:1"
       transform="translate(382.88,463.5866)"
       clip-path="url(#clipPath2)" />
    <path
       id="path3"
       d="M 0,0 C 0,-23.59 -19.120001,-42.720001 -42.720001,-42.720001 -66.32,-42.720001 -85.440002,-23.59 -85.440002,0 c 0,23.59 19.120002,42.720001 42.720001,42.720001 C -19.120001,42.720001 0,23.59 0,0 Z"
       style="fill:none;stroke:#000000;stroke-width:26.4;stroke-linecap:round;stroke-linejoin:round;stroke-miterlimit:10;stroke-dasharray:none;stroke-opacity:1"
       transform="translate(503.67999,584.38659)"
       clip-path="url(#clipPath4)" />
    <path
       id="path5"
       d="M 370.39999,484.48001 430.72,544.79999"
       style="fill:none;stroke:#000000;stroke-width:26.4;stroke-linecap:round;stroke-linejoin:round;stroke-miterlimit:10;stroke-dasharray:none;stroke-opacity:1"
       transform="translate(0,9.346608)"
       clip-path="url(#clipPath6)" />
    <path
       id="path7"
       d="m 491.20001,605.28003 60.47998,60.31995"
       style="fill:none;stroke:#000000;stroke-width:26.4;stroke-linecap:round;stroke-linejoin:round;stroke-miterlimit:10;stroke-dasharray:none;stroke-opacity:1"
       transform="translate(0,9.346608)"
       clip-path="url(#clipPath8)" />
    <path
       id="path9"
       d="m 0,0 1.76,1.6 2.08,1.44 2.08,1.12 2.24,0.96 2.4,0.64 2.24,0.48 h 2.56 L 17.76,6.08 20.16,5.6 22.4,4.96 24.639999,4 l 2.08,-1.28 2.08,-1.44 1.76,-1.6 L 32,-2.24 l 1.439999,-1.92 1.120002,-2.24 0.8,-2.24 L 36,-10.88 l 0.32,-2.56 0.16,-2.4 -0.32,-2.4 -0.48,-2.399999 -0.799999,-2.24 -0.960003,-2.240002 -1.279999,-2.08 -1.439998,-1.92"
       style="fill:none;stroke:#000000;stroke-width:26.4;stroke-linecap:round;stroke-linejoin:round;stroke-miterlimit:10;stroke-dasharray:none;stroke-opacity:1"
       transform="translate(521.44,705.18664)"
       clip-path="url(#clipPath10)" />
  </g>
</svg>
