<?xml version="1.0" encoding="UTF-8" standalone="no"?>
<!-- Created with Inkscape (http://www.inkscape.org/) -->

<svg
   version="1.1"
   id="svg1"
   width="501.60001"
   height="432.46667"
   viewBox="0 0 501.60001 432.46667"
   sodipodi:docname="MagnesiaOfSilver.pdf"
   xmlns:inkscape="http://www.inkscape.org/namespaces/inkscape"
   xmlns:sodipodi="http://sodipodi.sourceforge.net/DTD/sodipodi-0.dtd"
   xmlns="http://www.w3.org/2000/svg"
   xmlns:svg="http://www.w3.org/2000/svg">
  <defs
     id="defs1">
    <clipPath
       clipPathUnits="userSpaceOnUse"
       id="clipPath2">
      <path
         d="M 0,0.16 V 1122.5601 H 793.59998 V 0.16 Z"
         transform="translate(-329.28,-466.88001)"
         clip-rule="evenodd"
         id="path2" />
    </clipPath>
    <clipPath
       clipPathUnits="userSpaceOnUse"
       id="clipPath4">
      <path
         d="M 0,0.16 V 1122.5601 H 793.59998 V 0.16 Z"
         clip-rule="evenodd"
         id="path4" />
    </clipPath>
    <clipPath
       clipPathUnits="userSpaceOnUse"
       id="clipPath6">
      <path
         d="M 0,0.16 V 1122.5601 H 793.59998 V 0.16 Z"
         clip-rule="evenodd"
         id="path6" />
    </clipPath>
    <clipPath
       clipPathUnits="userSpaceOnUse"
       id="clipPath8">
      <path
         d="M 0,0.16 V 1122.5601 H 793.59998 V 0.16 Z"
         clip-rule="evenodd"
         id="path8" />
    </clipPath>
    <clipPath
       clipPathUnits="userSpaceOnUse"
       id="clipPath10">
      <path
         d="M 0,0.16 V 1122.5601 H 793.59998 V 0.16 Z"
         transform="translate(-595.35998,-565.28003)"
         clip-rule="evenodd"
         id="path10" />
    </clipPath>
    <clipPath
       clipPathUnits="userSpaceOnUse"
       id="clipPath12">
      <path
         d="M 0,0.16 V 1122.5601 H 793.59998 V 0.16 Z"
         clip-rule="evenodd"
         id="path12" />
    </clipPath>
  </defs>
  <sodipodi:namedview
     id="namedview1"
     pagecolor="#505050"
     bordercolor="#eeeeee"
     borderopacity="1"
     inkscape:showpageshadow="0"
     inkscape:pageopacity="0"
     inkscape:pagecheckerboard="0"
     inkscape:deskcolor="#505050">
    <inkscape:page
       x="0"
       y="0"
       inkscape:label="1"
       id="page1"
       width="501.60001"
       height="432.46667"
       margin="0"
       bleed="0" />
  </sodipodi:namedview>
  <g
     id="g1"
     inkscape:groupmode="layer"
     inkscape:label="1">
    <path
       id="path1"
       d="M 0,0 -0.16,-5.44 -0.8,-10.72 -1.76,-16 -3.04,-21.280001 -4.8,-26.4 -6.72,-31.360001 -9.28,-36.16 -12,-40.799999 l -3.04,-4.48 -3.36,-4.16 -3.68,-4 -4,-3.68 -4.16,-3.360001 -4.480001,-3.04 -4.64,-2.719998 -4.799999,-2.400001 -4.959999,-2.080002 -5.120003,-1.760002 -5.119999,-1.279999 -5.440002,-0.959999 -5.279999,-0.64 -5.439995,-0.159996 -5.280006,0.159996 -5.439995,0.64 -5.279999,0.959999 -5.280006,1.279999 -5.119997,1.760002 -4.96,2.080002 -4.8,2.400001 -4.64,2.719998 -4.48,3.04 -4.16,3.360001 -4.00001,3.68 -3.67999,4 -3.36,4.16 -3.03999,4.48 -2.72,4.639999 -2.40001,4.799999 -2.08,4.960001 -1.76,5.119999 -1.28,5.280001 -0.96,5.28 -0.64,5.28 -0.15999,5.44"
       style="fill:none;stroke:#000000;stroke-width:26.4;stroke-linecap:round;stroke-linejoin:round;stroke-miterlimit:10;stroke-dasharray:none;stroke-opacity:1"
       transform="translate(329.28,430.83995)"
       clip-path="url(#clipPath2)" />
    <path
       id="path3"
       d="m 329.28,750.08002 -18.88001,18.88"
       style="fill:none;stroke:#000000;stroke-width:26.4;stroke-linecap:round;stroke-linejoin:round;stroke-miterlimit:10;stroke-dasharray:none;stroke-opacity:1"
       transform="translate(0,-36.040059)"
       clip-path="url(#clipPath4)" />
    <path
       id="path5"
       d="M 329.28,466.88 V 750.08002"
       style="fill:none;stroke:#000000;stroke-width:26.4;stroke-linecap:round;stroke-linejoin:round;stroke-miterlimit:10;stroke-dasharray:none;stroke-opacity:1"
       transform="translate(0,-36.040059)"
       clip-path="url(#clipPath6)" />
    <path
       id="path7"
       d="M 310.39999,768.96002 H 178.24"
       style="fill:none;stroke:#000000;stroke-width:26.4;stroke-linecap:round;stroke-linejoin:round;stroke-miterlimit:10;stroke-dasharray:none;stroke-opacity:1"
       transform="translate(0,-36.040059)"
       clip-path="url(#clipPath8)" />
    <path
       id="path9"
       d="m 0,0 3.52,-4 3.2,-4.32 2.88,-4.64 2.56,-4.64 2.24,-4.959999 1.92,-5.120001 1.44,-5.119999 1.119999,-5.280003 L 19.68,-43.360001 20,-48.799999 v -5.440003 L 19.68,-59.52 18.879999,-64.959999 17.76,-70.080002 16.16,-75.360001 14.24,-80.32 12,-85.279999 l -2.56,-4.639999 -2.88,-4.64 -3.36,-4.319999 -3.52,-4.000003 -3.84,-3.84 -4,-3.52 -4.32,-3.2 -4.640001,-2.88 -4.639999,-2.56 -4.959999,-2.24 -4.960001,-1.92 -5.279999,-1.44 -5.280003,-1.12 -5.279998,-0.8 -5.439999,-0.32 h -5.280003 l -5.439998,0.32 -5.279999,0.8 -5.279999,1.12 -5.279999,1.6 -4.960006,1.92 -4.959999,2.24 -4.64,2.56 -4.639999,2.88 -4.159999,3.2 -4.16,3.52 -3.84,3.84"
       style="fill:none;stroke:#000000;stroke-width:26.4;stroke-linecap:round;stroke-linejoin:round;stroke-miterlimit:10;stroke-dasharray:none;stroke-opacity:1"
       transform="translate(595.35998,529.23997)"
       clip-path="url(#clipPath10)" />
    <path
       id="path11"
       d="M 480.32001,466.88 329.28,617.91998"
       style="fill:none;stroke:#000000;stroke-width:26.4;stroke-linecap:round;stroke-linejoin:round;stroke-miterlimit:10;stroke-dasharray:none;stroke-opacity:1"
       transform="translate(0,-36.040059)"
       clip-path="url(#clipPath12)" />
  </g>
</svg>
