<?xml version="1.0" encoding="UTF-8" standalone="no"?>
<!-- Created with Inkscape (http://www.inkscape.org/) -->

<svg
   version="1.1"
   id="svg1"
   width="472.25333"
   height="456.50668"
   viewBox="0 0 472.25333 456.50668"
   sodipodi:docname="Molybdochalk2.pdf"
   xmlns:inkscape="http://www.inkscape.org/namespaces/inkscape"
   xmlns:sodipodi="http://sodipodi.sourceforge.net/DTD/sodipodi-0.dtd"
   xmlns="http://www.w3.org/2000/svg"
   xmlns:svg="http://www.w3.org/2000/svg">
  <defs
     id="defs1">
    <clipPath
       clipPathUnits="userSpaceOnUse"
       id="clipPath2">
      <path
         d="M 0,0.16 V 1122.5601 H 793.59998 V 0.16 Z"
         clip-rule="evenodd"
         id="path2" />
    </clipPath>
    <clipPath
       clipPathUnits="userSpaceOnUse"
       id="clipPath4">
      <path
         d="M 0,0.16 V 1122.5601 H 793.59998 V 0.16 Z"
         transform="translate(-453.44,-655.67999)"
         clip-rule="evenodd"
         id="path4" />
    </clipPath>
    <clipPath
       clipPathUnits="userSpaceOnUse"
       id="clipPath6">
      <path
         d="M 0,0.16 V 1122.5601 H 793.59998 V 0.16 Z"
         clip-rule="evenodd"
         id="path6" />
    </clipPath>
    <clipPath
       clipPathUnits="userSpaceOnUse"
       id="clipPath8">
      <path
         d="M 0,0.16 V 1122.5601 H 793.59998 V 0.16 Z"
         clip-rule="evenodd"
         id="path8" />
    </clipPath>
    <clipPath
       clipPathUnits="userSpaceOnUse"
       id="clipPath10">
      <path
         d="M 0,0.16 V 1122.5601 H 793.59998 V 0.16 Z"
         transform="translate(-299.04001,-784.96002)"
         clip-rule="evenodd"
         id="path10" />
    </clipPath>
    <clipPath
       clipPathUnits="userSpaceOnUse"
       id="clipPath12">
      <path
         d="M 0,0.16 V 1122.5601 H 793.59998 V 0.16 Z"
         transform="translate(-185.60001,-475.51999)"
         clip-rule="evenodd"
         id="path12" />
    </clipPath>
    <clipPath
       clipPathUnits="userSpaceOnUse"
       id="clipPath14">
      <path
         d="M 0,0.16 V 1122.5601 H 793.59998 V 0.16 Z"
         transform="translate(-230.88,-505.76001)"
         clip-rule="evenodd"
         id="path14" />
    </clipPath>
  </defs>
  <sodipodi:namedview
     id="namedview1"
     pagecolor="#505050"
     bordercolor="#eeeeee"
     borderopacity="1"
     inkscape:showpageshadow="0"
     inkscape:pageopacity="0"
     inkscape:pagecheckerboard="0"
     inkscape:deskcolor="#505050">
    <inkscape:page
       x="0"
       y="0"
       inkscape:label="1"
       id="page1"
       width="472.25333"
       height="456.50668"
       margin="0"
       bleed="0" />
  </sodipodi:namedview>
  <g
     id="g1"
     inkscape:groupmode="layer"
     inkscape:label="1">
    <path
       id="path1"
       d="M 393.12,534.88 V 776.47998"
       style="fill:none;stroke:#000000;stroke-width:26.4;stroke-linecap:round;stroke-linejoin:round;stroke-miterlimit:10;stroke-dasharray:none;stroke-opacity:1"
       transform="translate(-160.08,-408.44006)"
       clip-path="url(#clipPath2)" />
    <path
       id="path3"
       d="m 0,0 4.8,-0.16 4.64,-0.64 4.64,-0.8 4.639999,-1.28 4.480002,-1.76 4.319999,-1.92 4.16,-2.4 3.84,-2.56 3.840001,-2.88 3.36,-3.36 3.199997,-3.360001 3.040001,-3.839998 2.560001,-3.84 2.399998,-4.16 1.920002,-4.32 1.599999,-4.479999 1.280002,-4.480004 0.959999,-4.639999 0.64,-4.799999 0.16,-4.64 -0.16,-4.800003 -0.64,-4.799995 -0.959999,-4.64 -1.280002,-4.480003 L 55.84,-83.519997 53.919998,-87.839996 51.52,-92 48.959999,-95.839996 45.919998,-99.68 l -3.199997,-3.36 -3.36,-3.36 -3.840001,-2.88 -3.84,-2.56 -4.16,-2.4 -4.319999,-1.92 -4.480002,-1.76 L 14.08,-119.2 9.44,-120 4.8,-120.64 0,-120.8"
       style="fill:none;stroke:#000000;stroke-width:26.4;stroke-linecap:round;stroke-linejoin:round;stroke-miterlimit:10;stroke-dasharray:none;stroke-opacity:1"
       transform="translate(293.36,247.23993)"
       clip-path="url(#clipPath4)" />
    <path
       id="path5"
       d="m 393.12,534.88 h 60.32"
       style="fill:none;stroke:#000000;stroke-width:26.4;stroke-linecap:round;stroke-linejoin:round;stroke-miterlimit:10;stroke-dasharray:none;stroke-opacity:1"
       transform="translate(-160.08,-408.44006)"
       clip-path="url(#clipPath6)" />
    <path
       id="path7"
       d="m 393.12,655.67999 h 60.32"
       style="fill:none;stroke:#000000;stroke-width:26.4;stroke-linecap:round;stroke-linejoin:round;stroke-miterlimit:10;stroke-dasharray:none;stroke-opacity:1"
       transform="translate(-160.08,-408.44006)"
       clip-path="url(#clipPath8)" />
    <path
       id="path9"
       d="m 0,0 6.56,6.24 7.04,6.08 7.199999,5.6 L 28.32,23.200001 36.16,28 l 8,4.48 8.16,4 8.479999,3.68 8.640003,3.200001 8.64,2.720001 L 87.040001,48.32 96,50.240002 104.96,51.68 l 9.12,0.8 9.28,0.479999 h 9.12 l 9.12001,-0.32 L 150.72,51.68 159.84,50.240002 168.8,48.48 l 8.80001,-2.239998 8.79998,-2.720002 8.64,-3.2 8.48001,-3.680001 8.15999,-4 8,-4.319999 7.84001,-4.959999 7.51999,-5.120001 7.20001,-5.6 7.04,-5.92 6.72,-6.4 6.23999,-6.56 6.08002,-7.04 5.6,-7.2 5.28,-7.52 4.79999,-7.68 4.48001,-8 4.16,-8.32 3.51999,-8.32 3.19999,-8.639999 2.88,-8.639999 2.24002,-8.96 1.91998,-8.959999 1.44001,-8.960003 0.95999,-9.12 0.48001,-9.28 V -132 l -0.32001,-9.11999 L 308,-150.24 l -1.28,-9.12 -1.92001,-8.96001 -2.23999,-8.95999 -2.72,-8.64 -3.04001,-8.64 -3.67999,-8.47999 -4,-8.16001 -4.32001,-8.16 -4.79999,-7.67999 -5.28,-7.68001 -5.44,-7.2 -6.07999,-7.04001 -6.24002,-6.71998 -6.56,-6.24002 L 243.52,-268 236.32001,-273.60001 228.8,-278.88 l -7.83999,-4.96 -8,-4.48001 -8.16001,-4 -8.32,-3.67999 -8.64,-3.20001 -8.80001,-2.87998 -8.79999,-2.40002 -8.96,-1.91998 -9.12,-1.44001 -9.12001,-0.95999 L 133.92,-309.28 h -9.12 l -9.12,0.32001 -9.12,0.79999 -9.119998,1.44 -8.959999,1.76001 -8.960006,2.23999 -8.799996,2.72 -8.479999,3.04001 -8.480004,3.51999 -8.319999,4 -8,4.32 -7.839999,4.79999 -7.52,5.28 -7.36,5.44 -7.04,5.92002"
       style="fill:none;stroke:#000000;stroke-width:26.4;stroke-linecap:round;stroke-linejoin:round;stroke-miterlimit:10;stroke-dasharray:none;stroke-opacity:1"
       transform="translate(138.96001,376.51996)"
       clip-path="url(#clipPath10)" />
    <path
       id="path11"
       d="m 0,0 0.64,5.44 0.96,5.12 1.44,5.28 1.92,4.959999 2.24,4.960001 2.56,4.64 2.88,4.480001 3.2,4.32 3.68,4 3.840001,3.68 4,3.520001 4.479999,3.039997 4.48,2.880001 4.799999,2.400001 4.960003,2.079998 5.119999,1.600003 L 56.32,63.84 l 5.279998,0.799999 5.440003,0.64 H 72.32 l 5.440002,-0.32 L 83.040001,64.32 88.32,63.200001 93.440002,61.759998 98.400002,60 103.36,57.759998 108,55.200001 112.48,52.16 l 4.32,-3.200001 4,-3.52"
       style="fill:none;stroke:#000000;stroke-width:26.4;stroke-linecap:round;stroke-linejoin:round;stroke-miterlimit:10;stroke-dasharray:none;stroke-opacity:1"
       transform="translate(25.520006,67.07993)"
       clip-path="url(#clipPath12)" />
    <path
       id="path13"
       d="m 0,0 3.36,-1.12 3.2,-1.44 3.04,-1.76 2.88,-2.08 2.72,-2.4 2.4,-2.56 2.08,-2.88 1.92,-2.880001 1.440001,-3.199999 1.279999,-3.36 0.960001,-3.360001 0.479999,-3.519998 0.16,-3.520003 -0.16,-3.679996 -0.479999,-3.360001 -0.800001,-3.52 L 23.360001,-48 21.76,-51.200001 20,-54.240002 17.92,-57.119999 15.52,-59.68 l -2.72,-2.400002 -2.72,-2.080002 -3.04,-1.759994 -3.2,-1.599999 -3.36,-1.120002 -3.52,-0.800003 -3.52,-0.64 -3.52,-0.159996 -3.52,0.32 -3.520001,0.479996 -3.359999,0.959999 -3.36,1.120002 -3.200001,1.599999 L -30.08,-64 l -2.719999,2.240002 -2.560002,2.399997 -2.399997,2.560002 -2.080002,2.880001 -1.759998,3.199997 -1.440003,3.200001 -1.119999,3.36 -0.799999,3.360001 -0.48,3.52 -0.159999,3.520001 0.319999,3.519998"
       style="fill:none;stroke:#000000;stroke-width:26.4;stroke-linecap:round;stroke-linejoin:round;stroke-miterlimit:10;stroke-dasharray:none;stroke-opacity:1"
       transform="translate(70.800005,97.319951)"
       clip-path="url(#clipPath14)" />
  </g>
</svg>
