<?xml version="1.0" encoding="UTF-8" standalone="no"?>
<!-- Created with Inkscape (http://www.inkscape.org/) -->

<svg
   version="1.1"
   id="svg1"
   width="237.45332"
   height="244.26666"
   viewBox="0 0 237.45332 244.26666"
   sodipodi:docname="Oreichalkos12.pdf"
   xmlns:inkscape="http://www.inkscape.org/namespaces/inkscape"
   xmlns:sodipodi="http://sodipodi.sourceforge.net/DTD/sodipodi-0.dtd"
   xmlns="http://www.w3.org/2000/svg"
   xmlns:svg="http://www.w3.org/2000/svg">
  <defs
     id="defs1">
    <clipPath
       clipPathUnits="userSpaceOnUse"
       id="clipPath2">
      <path
         d="M 0,0.16 V 1122.5601 H 793.59998 V 0.16 Z"
         clip-rule="evenodd"
         id="path2" />
    </clipPath>
    <clipPath
       clipPathUnits="userSpaceOnUse"
       id="clipPath4">
      <path
         d="M 0,0.16 V 1122.5601 H 793.59998 V 0.16 Z"
         clip-rule="evenodd"
         id="path4" />
    </clipPath>
    <clipPath
       clipPathUnits="userSpaceOnUse"
       id="clipPath6">
      <path
         d="M 0,0.16 V 1122.5601 H 793.59998 V 0.16 Z"
         clip-rule="evenodd"
         id="path6" />
    </clipPath>
    <clipPath
       clipPathUnits="userSpaceOnUse"
       id="clipPath8">
      <path
         d="M 0,0.16 V 1122.5601 H 793.59998 V 0.16 Z"
         transform="translate(-306.56,-665.28003)"
         clip-rule="evenodd"
         id="path8" />
    </clipPath>
    <clipPath
       clipPathUnits="userSpaceOnUse"
       id="clipPath10">
      <path
         d="M 0,0.16 V 1122.5601 H 793.59998 V 0.16 Z"
         transform="translate(-338.07999,-647.03998)"
         clip-rule="evenodd"
         id="path10" />
    </clipPath>
  </defs>
  <sodipodi:namedview
     id="namedview1"
     pagecolor="#505050"
     bordercolor="#eeeeee"
     borderopacity="1"
     inkscape:showpageshadow="0"
     inkscape:pageopacity="0"
     inkscape:pagecheckerboard="0"
     inkscape:deskcolor="#505050">
    <inkscape:page
       x="0"
       y="0"
       inkscape:label="1"
       id="page1"
       width="237.45332"
       height="244.26666"
       margin="0"
       bleed="0" />
  </sodipodi:namedview>
  <g
     id="g1"
     inkscape:groupmode="layer"
     inkscape:label="1">
    <path
       id="path1"
       d="M 283.51999,485.76001 H 472.32001"
       style="fill:none;stroke:#000000;stroke-width:26.4;stroke-linecap:round;stroke-linejoin:round;stroke-miterlimit:10;stroke-dasharray:none;stroke-opacity:1"
       transform="translate(0,-45.386725)"
       clip-path="url(#clipPath2)" />
    <path
       id="path3"
       d="m 472.32001,485.76001 v 37.76001"
       style="fill:none;stroke:#000000;stroke-width:26.4;stroke-linecap:round;stroke-linejoin:round;stroke-miterlimit:10;stroke-dasharray:none;stroke-opacity:1"
       transform="translate(0,-45.386725)"
       clip-path="url(#clipPath4)" />
    <path
       id="path5"
       d="m 283.51999,485.76001 v 75.52002"
       style="fill:none;stroke:#000000;stroke-width:26.4;stroke-linecap:round;stroke-linejoin:round;stroke-miterlimit:10;stroke-dasharray:none;stroke-opacity:1"
       transform="translate(0,-45.386725)"
       clip-path="url(#clipPath6)" />
    <path
       id="path7"
       d="m 0,0 4.64,3.36 4.96,3.04 4.96,2.88 5.28,2.4 5.440001,2.08 5.439998,1.6 L 36.48,16.639999 42.080002,17.6 47.84,18.08 53.599998,18.24 59.360001,17.92 65.120003,17.280001 70.720001,16.16 76.32,14.72 81.760002,12.96 87.199997,10.72 92.32,8.16 97.279999,5.28 102.08,2.08 l 4.64,-3.52 4.32,-3.84 4,-4.16 3.68,-4.32 3.36,-4.64 3.2,-4.960001 2.72,-4.959999 2.39999,-5.279998 2.08001,-5.440003 1.6,-5.439999 1.28,-5.600002 0.96001,-5.759998 0.47999,-5.759998 0.16001,-5.760003 -0.32001,-5.760002 -0.64,-5.759994 -1.12,-5.600006 -1.44,-5.599999 -1.76001,-5.439995 -2.23999,-5.440003 -2.4,-5.12 -3.04,-4.96 -3.2,-4.8 -3.52,-4.48 -3.84,-4.32 -4.16,-4 -4.32,-3.84 -4.64,-3.36 -4.959999,-3.04 -4.959999,-2.87999 -5.279999,-2.40001 -5.440003,-1.92 -5.440002,-1.76 -5.759995,-1.27999 -5.600002,-0.96001 -5.760002,-0.48 -5.759998,-0.16 -5.760003,0.32001 -5.759998,0.64 -5.599998,1.11999 -5.600003,1.44 -5.439998,1.76 -5.440001,2.24 -5.12,2.56 -4.96,2.88001 -4.8,3.19999 -4.48,3.68 -4.32,3.84 -4,4 -3.84,4.48 -3.360001,4.64 -3.039999,4.8 -2.880001,5.12"
       style="fill:none;stroke:#000000;stroke-width:26.4;stroke-linecap:round;stroke-linejoin:round;stroke-miterlimit:10;stroke-dasharray:none;stroke-opacity:1"
       transform="translate(306.56,619.8933)"
       clip-path="url(#clipPath8)" />
    <path
       id="path9"
       d="m 0,0 -1.12,-1.92 -1.44,-1.92 -1.6,-1.6 -1.76,-1.44 -1.92,-1.12 -2.08,-0.96 -2.24,-0.64 -2.24,-0.48 -2.239999,-0.16 -2.24,0.16 -2.400002,0.32 -2.08,0.8 -2.08,0.8 -1.92,1.28 -1.92,1.44 -1.599998,1.6 -1.440001,1.76 -1.119999,1.92 -0.960003,2.08 -0.639999,2.24 L -35.52,6.4 -35.68,8.64"
       style="fill:none;stroke:#000000;stroke-width:26.4;stroke-linecap:round;stroke-linejoin:round;stroke-miterlimit:10;stroke-dasharray:none;stroke-opacity:1"
       transform="translate(338.07999,601.65325)"
       clip-path="url(#clipPath10)" />
  </g>
</svg>
