<?xml version="1.0" encoding="UTF-8" standalone="no"?>
<!-- Created with Inkscape (http://www.inkscape.org/) -->

<svg
   version="1.1"
   id="svg1"
   width="461.57333"
   height="485.86667"
   viewBox="0 0 461.57333 485.86667"
   sodipodi:docname="ParsCumParte3.pdf"
   xmlns:inkscape="http://www.inkscape.org/namespaces/inkscape"
   xmlns:sodipodi="http://sodipodi.sourceforge.net/DTD/sodipodi-0.dtd"
   xmlns="http://www.w3.org/2000/svg"
   xmlns:svg="http://www.w3.org/2000/svg">
  <defs
     id="defs1">
    <clipPath
       clipPathUnits="userSpaceOnUse"
       id="clipPath2">
      <path
         d="M 0,0.16 V 1122.5601 H 793.59998 V 0.16 Z"
         transform="translate(-3.3333333e-6)"
         clip-rule="evenodd"
         id="path2" />
    </clipPath>
    <clipPath
       clipPathUnits="userSpaceOnUse"
       id="clipPath4">
      <path
         d="M 0,0.16 V 1122.5601 H 793.59998 V 0.16 Z"
         transform="translate(-409.6,-587.67999)"
         clip-rule="evenodd"
         id="path4" />
    </clipPath>
    <clipPath
       clipPathUnits="userSpaceOnUse"
       id="clipPath6">
      <path
         d="M 0,0.16 V 1122.5601 H 793.59998 V 0.16 Z"
         transform="translate(-294.55999,-476.32001)"
         clip-rule="evenodd"
         id="path6" />
    </clipPath>
    <clipPath
       clipPathUnits="userSpaceOnUse"
       id="clipPath8">
      <path
         d="M 0,0.16 V 1122.5601 H 793.59998 V 0.16 Z"
         transform="translate(-3.3333333e-6)"
         clip-rule="evenodd"
         id="path8" />
    </clipPath>
    <clipPath
       clipPathUnits="userSpaceOnUse"
       id="clipPath10">
      <path
         d="M 0,0.16 V 1122.5601 H 793.59998 V 0.16 Z"
         transform="translate(-271.04001,-469.92001)"
         clip-rule="evenodd"
         id="path10" />
    </clipPath>
  </defs>
  <sodipodi:namedview
     id="namedview1"
     pagecolor="#505050"
     bordercolor="#eeeeee"
     borderopacity="1"
     inkscape:showpageshadow="0"
     inkscape:pageopacity="0"
     inkscape:pagecheckerboard="0"
     inkscape:deskcolor="#505050">
    <inkscape:page
       x="0"
       y="0"
       inkscape:label="1"
       id="page1"
       width="461.57333"
       height="485.86667"
       margin="0"
       bleed="0" />
  </sodipodi:namedview>
  <g
     id="g1"
     inkscape:groupmode="layer"
     inkscape:label="1">
    <path
       id="path1"
       d="M 409.60001,361.12 V 776.47998"
       style="fill:none;stroke:#000000;stroke-width:26.4;stroke-linecap:round;stroke-linejoin:round;stroke-miterlimit:10;stroke-dasharray:none;stroke-opacity:1"
       transform="translate(-164.09333,-315.01339)"
       clip-path="url(#clipPath2)" />
    <path
       id="path3"
       d="m 0,0 6.56,3.36 6.88,2.88 7.04,2.56 7.2,2.08 7.200001,1.76 7.360001,1.28 7.359996,0.8 7.520001,0.32 h 7.360004 L 72,14.56 l 7.360001,-0.8 7.36,-1.28 7.199997,-1.76 L 101.12,8.48 108,5.92 l 6.88,-2.88 6.72,-3.36 6.4,-3.84 6.24,-4 5.92,-4.48 5.76,-4.800001 5.28,-5.119998 5.12001,-5.440001 4.79998,-5.759998 4.48002,-5.920002 4.15998,-6.239998 3.68001,-6.560002 3.36,-6.560001 2.87999,-6.879997 2.56001,-7.040001 2.08001,-7.040001 1.75999,-7.360001 1.28,-7.36 0.8,-7.359999 0.48,-7.36 v -7.52 l -0.48,-7.36 -0.8,-7.52 -1.28,-7.36 -1.75999,-7.19999 -2.08001,-7.04001 -2.56001,-7.04 -2.87999,-6.88 -3.36,-6.72 -3.68001,-6.4 -4.15998,-6.24 -4.48002,-5.92 -4.79998,-5.75999 -5.12001,-5.44001 -5.28,-5.12001 -5.76,-4.79998 -5.92,-4.48001 -6.24,-4.15999 -6.4,-3.68001 -6.72,-3.36 -6.88,-3.04 -6.88,-2.55999 -7.200002,-2.08 -7.199997,-1.76001 -7.36,-1.28 L 72,-241.11999 l -7.519997,-0.48002 h -7.360004 l -7.520001,0.48002 -7.359996,0.79998 -7.360001,1.28002 -7.200001,1.75999 -7.2,2.08 -7.04,2.4 -6.88,3.04001 L 0,-226.56"
       style="fill:none;stroke:#000000;stroke-width:26.4;stroke-linecap:round;stroke-linejoin:round;stroke-miterlimit:10;stroke-dasharray:none;stroke-opacity:1"
       transform="translate(245.50667,272.6666)"
       clip-path="url(#clipPath4)" />
    <path
       id="path5"
       d="M 0,0 -4.16,-2.24 -8.48,-4 l -4.32,-1.28 -4.320001,-0.8 -4.32,-0.48 H -25.76 l -4.48,0.48 -4.320001,0.8 -4.32,1.28 -4.16,1.76 -4.16,2.24 -4.16,2.56 -4,3.04 -4,3.36 -3.68,3.84 -3.68,4.159999 -3.519997,4.640001 -3.36,4.8 -3.200005,5.28 -3.039993,5.439999 -2.880005,5.920002 -2.559998,6.079998 L -87.68,55.52 l -2.239998,6.560002 -1.919998,6.879997 -1.760002,6.879997 -1.599999,7.200005 -1.280006,7.360001 -0.959999,7.36 -0.799996,7.519998 -0.639999,7.68 -0.160004,7.68 -0.159996,7.52 0.32,7.68 0.479995,7.68 0.64,7.51999 0.959999,7.36 1.280006,7.36 1.439995,7.20002 1.599999,7.19999 1.920005,6.87999 2.239998,6.56002 2.239998,6.39999 2.720001,6.24 2.720002,5.92 2.879997,5.59999 3.200004,5.28 3.360001,5.12001 3.360001,4.64 3.679992,4.16001 3.680004,4 4,3.51999 4,3.19999 4,2.72 4.16,2.24001 4.32,1.92 4.32,1.44 4.319999,0.95999 4.32,0.48001 4.320002,0.16001 L -18.4,257.28 l 4.48,-0.63999 4.32,-1.28001 4.16,-1.60001 4.32,-2.08 4,-2.56 4.16,-2.87999 3.84,-3.20001 3.84,-3.83999 3.68,-4 3.68,-4.48 3.360001,-4.8 3.199998,-5.12 L 31.68,215.36 34.560001,209.60001 37.279999,203.52 39.68,197.28 42.080002,190.72 44,184 45.919998,176.96001 47.52,169.92 l 1.279999,-7.36 1.119999,-7.36 0.800003,-7.52001 0.64,-7.51999 0.319999,-7.68"
       style="fill:none;stroke:#000000;stroke-width:26.4;stroke-linecap:round;stroke-linejoin:round;stroke-miterlimit:10;stroke-dasharray:none;stroke-opacity:1"
       transform="translate(130.46666,161.30662)"
       clip-path="url(#clipPath6)" />
    <path
       id="path7"
       d="M 346.23999,608.79999 334.07999,361.12"
       style="fill:none;stroke:#000000;stroke-width:26.4;stroke-linecap:round;stroke-linejoin:round;stroke-miterlimit:10;stroke-dasharray:none;stroke-opacity:1"
       transform="translate(-164.09333,-315.01339)"
       clip-path="url(#clipPath8)" />
    <path
       id="path9"
       d="m 0,0 3.04,0.32 4.32,0.8 4.32,0.96 4.16,1.28 4,1.44 3.84,1.76 3.84,2.08 4,2.4 4.16,2.88 4.64,3.200001 1.439998,0.959999 4.320004,2.879999 8.639999,5.76 7.199997,5.120001 3.360001,2.560002 3.68,3.199996 1.440003,1.120003 4.159996,4 4.959999,5.119999 5.440002,6.240002 6.879997,8 L 95.68,66.879997 96.959999,68.32 100.64,72.800003 l 5.92,7.360001 6.88,8.479995 5.44,6.559998 1.12,1.440002 3.52,4.000001 2.72,3.04 2.08001,2.08 4,3.68 4,3.2 4.15999,2.88 4.32,2.72 4.48,2.56 4.8,2.4"
       style="fill:none;stroke:#000000;stroke-width:26.4;stroke-linecap:round;stroke-linejoin:round;stroke-miterlimit:10;stroke-dasharray:none;stroke-opacity:1"
       transform="translate(106.94668,154.90662)"
       clip-path="url(#clipPath10)" />
  </g>
</svg>
