<?xml version="1.0" encoding="UTF-8" standalone="no"?>
<!-- Created with Inkscape (http://www.inkscape.org/) -->

<svg
   version="1.1"
   id="svg1"
   width="302.82666"
   height="505.89334"
   viewBox="0 0 302.82666 505.89334"
   sodipodi:docname="ParsCumParte.pdf"
   xmlns:inkscape="http://www.inkscape.org/namespaces/inkscape"
   xmlns:sodipodi="http://sodipodi.sourceforge.net/DTD/sodipodi-0.dtd"
   xmlns="http://www.w3.org/2000/svg"
   xmlns:svg="http://www.w3.org/2000/svg">
  <defs
     id="defs1">
    <clipPath
       clipPathUnits="userSpaceOnUse"
       id="clipPath2">
      <path
         d="M 0,0.16 V 1122.5601 H 793.59998 V 0.16 Z"
         transform="translate(-340.16,-561.28003)"
         clip-rule="evenodd"
         id="path2" />
    </clipPath>
    <clipPath
       clipPathUnits="userSpaceOnUse"
       id="clipPath4">
      <path
         d="M 0,0.16 V 1122.5601 H 793.59998 V 0.16 Z"
         transform="translate(-491.20001,-561.28003)"
         clip-rule="evenodd"
         id="path4" />
    </clipPath>
    <clipPath
       clipPathUnits="userSpaceOnUse"
       id="clipPath6">
      <path
         d="M 0,0.16 V 1122.5601 H 793.59998 V 0.16 Z"
         transform="translate(-282.56,-755.52002)"
         clip-rule="evenodd"
         id="path6" />
    </clipPath>
    <clipPath
       clipPathUnits="userSpaceOnUse"
       id="clipPath8">
      <path
         d="M 0,0.16 V 1122.5601 H 793.59998 V 0.16 Z"
         transform="translate(-279.04001,-373.44)"
         clip-rule="evenodd"
         id="path8" />
    </clipPath>
    <clipPath
       clipPathUnits="userSpaceOnUse"
       id="clipPath10">
      <path
         d="M 0,0.16 V 1122.5601 H 793.59998 V 0.16 Z"
         transform="translate(-321.28,-731.20001)"
         clip-rule="evenodd"
         id="path10" />
    </clipPath>
    <clipPath
       clipPathUnits="userSpaceOnUse"
       id="clipPath12">
      <path
         d="M 0,0.16 V 1122.5601 H 793.59998 V 0.16 Z"
         transform="translate(-517.76001,-374.39999)"
         clip-rule="evenodd"
         id="path12" />
    </clipPath>
    <clipPath
       clipPathUnits="userSpaceOnUse"
       id="clipPath14">
      <path
         d="M 0,0.16 V 1122.5601 H 793.59998 V 0.16 Z"
         transform="translate(-475.51999,-392.32001)"
         clip-rule="evenodd"
         id="path14" />
    </clipPath>
    <clipPath
       clipPathUnits="userSpaceOnUse"
       id="clipPath16">
      <path
         d="M 0,0.16 V 1122.5601 H 793.59998 V 0.16 Z"
         transform="translate(-514.40002,-756.47998)"
         clip-rule="evenodd"
         id="path16" />
    </clipPath>
  </defs>
  <sodipodi:namedview
     id="namedview1"
     pagecolor="#505050"
     bordercolor="#eeeeee"
     borderopacity="1"
     inkscape:showpageshadow="0"
     inkscape:pageopacity="0"
     inkscape:pagecheckerboard="0"
     inkscape:deskcolor="#505050">
    <inkscape:page
       x="0"
       y="0"
       inkscape:label="1"
       id="page1"
       width="302.82666"
       height="505.89334"
       margin="0"
       bleed="0" />
  </sodipodi:namedview>
  <g
     id="g1"
     inkscape:groupmode="layer"
     inkscape:label="1">
    <path
       id="path1"
       d="m 0,0 c 0,-10.42 -8.45,-18.879999 -18.879999,-18.879999 -10.43,0 -18.879999,8.459999 -18.879999,18.879999 0,10.42 8.449999,18.879999 18.879999,18.879999 C -8.45,18.879999 0,10.42 0,0 Z"
       style="fill:none;stroke:#000000;stroke-width:26.4;stroke-linecap:round;stroke-linejoin:round;stroke-miterlimit:10;stroke-dasharray:none;stroke-opacity:1"
       transform="translate(340.16,563.94664)"
       clip-path="url(#clipPath2)" />
    <path
       id="path3"
       d="m 0,0 c 0,-10.42 -8.45,-18.879999 -18.879999,-18.879999 -10.43,0 -18.879999,8.459999 -18.879999,18.879999 0,10.42 8.449999,18.879999 18.879999,18.879999 C -8.45,18.879999 0,10.42 0,0 Z"
       style="fill:none;stroke:#000000;stroke-width:26.4;stroke-linecap:round;stroke-linejoin:round;stroke-miterlimit:10;stroke-dasharray:none;stroke-opacity:1"
       transform="translate(491.20001,563.94664)"
       clip-path="url(#clipPath4)" />
    <path
       id="path5"
       d="m 0,0 2.88,5.12 3.2,4.8 3.04,4.32 3.36,3.84 3.2,3.360001 L 19.040001,24.48 22.4,26.879999 l 3.36,2.08 3.520001,1.6 3.359998,0.960001 3.520001,0.64 3.52,0.16 3.360001,-0.32 3.52,-0.799999 L 49.919998,29.76 53.439999,28 l 3.36,-2.24 L 60.16,23.040001 63.52,19.84 l 3.200001,-3.52 3.199997,-4.16 3.040001,-4.48 3.200005,-4.96 2.879997,-5.28 2.879997,-5.76 2.880005,-6.24 2.719994,-6.560001 L 90.080002,-28 l 2.559997,-7.200001 2.239998,-7.52 2.400002,-8 2.080002,-8.16 1.919999,-8.48 1.92,-8.800003 1.76,-8.959999 1.6,-9.279999 1.44,-9.439998 1.28,-9.6 1.28,-9.92 0.96,-9.92 0.8,-10.08 0.8,-10.24001 0.48,-10.23999 0.32,-10.4 0.32,-10.4 V -195.03999 -205.44 l -0.32,-10.4 -0.32,-10.24 -0.64,-10.4 -0.64,-10.08 -0.96,-10.08001 -0.96,-9.91999 -1.28,-9.92001 -1.28,-9.59998 -1.44,-9.44 -1.76,-9.12002 -1.76,-8.96 -1.76,-8.79998 -2.079999,-8.32001 -2.239998,-8.16 -2.240005,-8 -2.399994,-7.51999 -2.400002,-7.20002 -2.720001,-6.72 L 84.32,-374.88 l -2.720002,-6.07999 -3.04,-5.76001 L 75.68,-392 l -3.040001,-4.79999 -3.199997,-4.48001 -3.200004,-4 -3.199997,-3.51999 L 59.68,-412 l -3.36,-2.56 -3.360001,-2.23999 -3.52,-1.6 -3.359997,-1.28 -3.520001,-0.80002 -3.52,-0.31998 -3.360001,0.15998 -3.52,0.80001 -3.520001,1.12 -3.359998,1.6 -3.360001,2.07999 -3.360001,2.56 L 15.2,-409.44 l -3.2,3.51999 -3.36,3.84002 -3.04,4.47998 -3.2,4.80002 -2.88,5.12 -3.04,5.6"
       style="fill:none;stroke:#000000;stroke-width:26.4;stroke-linecap:round;stroke-linejoin:round;stroke-miterlimit:10;stroke-dasharray:none;stroke-opacity:1"
       transform="translate(282.56,758.18663)"
       clip-path="url(#clipPath6)" />
    <path
       id="path7"
       d="m 0,0 -1.6,2.08 -1.6,2.4 -1.12,2.4 -0.96,2.56 -0.64,2.72 -0.32,2.72 -0.16,2.72 0.32,2.72 0.64,2.720001 0.8,2.559999 1.12,2.56 1.44,2.24 1.76,2.239999 1.92,1.920002 2.08,1.759999 2.4,1.439998 2.4,1.120003 2.56,0.959999 2.72,0.64 2.72,0.319999 h 2.720001 L 21.92,40.639999 24.639999,40 27.200001,39.040001 29.6,37.919998 32,36.48 34.080002,34.720001 36,32.799999 l 1.759998,-2.08 L 39.200001,28.32 40.48,25.92 41.439999,23.360001 41.919998,20.639999 42.240002,17.92"
       style="fill:none;stroke:#000000;stroke-width:26.4;stroke-linecap:round;stroke-linejoin:round;stroke-miterlimit:10;stroke-dasharray:none;stroke-opacity:1"
       transform="translate(279.04001,376.10661)"
       clip-path="url(#clipPath8)" />
    <path
       id="path9"
       d="M 0,0 -1.6,-2.08 -3.36,-3.84 -5.44,-5.6 -7.52,-6.88 -9.92,-8 l -2.4,-0.96 -2.56,-0.64 -2.560001,-0.32 H -20 l -2.559999,0.32 -2.560002,0.64 -2.399999,0.8 -2.4,1.12 -2.24,1.44 L -34.080002,-4 -36,-2.24 -37.599998,-0.16 -38.880001,2.08 -40,4.32 l -0.959999,2.4 -0.48,2.56 -0.319999,2.56 v 2.72 l 0.319999,2.560001 0.64,2.399999 0.799999,2.56 1.279999,2.24"
       style="fill:none;stroke:#000000;stroke-width:26.4;stroke-linecap:round;stroke-linejoin:round;stroke-miterlimit:10;stroke-dasharray:none;stroke-opacity:1"
       transform="translate(321.28,733.86662)"
       clip-path="url(#clipPath10)" />
    <path
       id="path11"
       d="m 0,0 -3.04,-5.6 -2.88,-5.28 -3.2,-4.8 -3.04,-4.32 -3.2,-4 -3.359999,-3.360001 L -22.08,-30.4 l -3.360001,-2.559999 -3.359998,-2.080002 -3.360001,-1.599998 -3.52,-1.279999 -3.520001,-0.640003 -3.36,-0.16 -3.520001,0.319999 -3.519996,0.640004 -3.360001,1.279998 -3.360001,1.759999 -3.52,2.240001 -3.360001,2.56 -3.200001,3.200001 -3.36,3.519998 -3.199997,4 L -76,-14.72 l -3.199997,4.8 -2.880005,5.28 -2.879997,5.76 -2.879997,6.08 -2.720002,6.4 -2.560005,6.88 -2.559997,7.2 -2.400002,7.520001 -2.239998,7.84 -2.24,8.16 -1.92,8.479999 -1.92,8.800003 -1.76,8.959999 -1.6,9.119996 -1.6,9.440002 -1.28,9.6 -1.12,9.76 -1.12,9.92 -0.8,10.08 -0.8,10.24001 -0.48,10.23999 -0.48,10.4 -0.32,10.4 V 187.03999 197.44 l 0.32,10.4 0.32,10.4 0.48,10.24 0.8,10.24 0.8,10.08 1.12,9.92 1.12,9.76001 1.28,9.75998 1.44,9.44 1.6,9.12 1.76,9.12002 1.92,8.63999 1.92,8.64001 2.24,8.15998 2.239998,7.84002 L -96,346.88 l 2.400002,7.19999 2.559997,6.88 2.720001,6.56 2.879998,6.08002 2.880004,5.75998 3.040001,5.44 3.039994,4.96002 3.040001,4.47998 3.200004,4 3.199997,3.68002 3.360001,3.19999 3.36,2.72 3.360001,2.23999 3.52,1.76001 3.359997,1.28 3.520001,0.80001 3.36,0.47998 3.520001,-0.16 3.52,-0.63998 3.360001,-1.12 3.519998,-1.44 3.360001,-2.08002 3.360001,-2.56 3.359998,-2.88 L -15.84,400.16 -12.64,396.32001 -9.6,392 l 3.2,-4.79999 3.04,-5.12002"
       style="fill:none;stroke:#000000;stroke-width:26.4;stroke-linecap:round;stroke-linejoin:round;stroke-miterlimit:10;stroke-dasharray:none;stroke-opacity:1"
       transform="translate(517.76001,377.0666)"
       clip-path="url(#clipPath12)" />
    <path
       id="path13"
       d="m 0,0 0.32,2.72 0.64,2.72 0.8,2.56 1.28,2.4 1.44,2.4 1.76,2.08 1.92,1.919999 2.08,1.76 2.4,1.440001 2.4,1.120001 2.72,0.799999 2.56,0.639999 2.720001,0.32 H 25.76 l 2.72,-0.32 L 31.200001,21.92 33.759998,20.959999 36.32,19.84 38.560001,18.24 40.639999,16.48 42.560001,14.56 44.32,12.48 45.759998,10.08 46.880001,7.68 47.68,4.96 48.32,2.4 48.639999,-0.32 V -3.04 L 48.16,-5.76 47.52,-8.48 46.720001,-11.04 45.439999,-13.44 44,-15.84 42.240002,-17.92"
       style="fill:none;stroke:#000000;stroke-width:26.4;stroke-linecap:round;stroke-linejoin:round;stroke-miterlimit:10;stroke-dasharray:none;stroke-opacity:1"
       transform="translate(475.51999,394.98662)"
       clip-path="url(#clipPath14)" />
    <path
       id="path15"
       d="m 0,0 1.12,-2.4 0.8,-2.4 0.64,-2.56 0.32,-2.56 v -2.56 L 2.56,-15.04 2.08,-17.6 1.12,-20 l -0.96,-2.4 -1.44,-2.239999 -1.6,-1.92 -1.92,-1.920001 -1.92,-1.6 -2.24,-1.280001 -2.4,-1.119999 -2.4,-0.959999 -2.56,-0.479999 -2.559999,-0.320004 h -2.560002 L -24,-33.919998 l -2.559999,0.639999 -2.4,0.799999 -2.400002,1.119999 -2.079998,1.440001 -2.080001,1.6 -1.759999,1.92 -1.600002,2.08"
       style="fill:none;stroke:#000000;stroke-width:26.4;stroke-linecap:round;stroke-linejoin:round;stroke-miterlimit:10;stroke-dasharray:none;stroke-opacity:1"
       transform="translate(514.40002,759.14659)"
       clip-path="url(#clipPath16)" />
  </g>
</svg>
