<?xml version="1.0" encoding="UTF-8" standalone="no"?>
<!-- Created with Inkscape (http://www.inkscape.org/) -->

<svg
   version="1.1"
   id="svg1"
   width="336.18668"
   height="505.89334"
   viewBox="0 0 336.18668 505.89334"
   sodipodi:docname="ParsCumParte2.pdf"
   xmlns:inkscape="http://www.inkscape.org/namespaces/inkscape"
   xmlns:sodipodi="http://sodipodi.sourceforge.net/DTD/sodipodi-0.dtd"
   xmlns="http://www.w3.org/2000/svg"
   xmlns:svg="http://www.w3.org/2000/svg">
  <defs
     id="defs1">
    <clipPath
       clipPathUnits="userSpaceOnUse"
       id="clipPath2">
      <path
         d="M 0,0.16 V 1122.5601 H 793.59998 V 0.16 Z"
         transform="translate(-3.3333333e-6)"
         clip-rule="evenodd"
         id="path2" />
    </clipPath>
    <clipPath
       clipPathUnits="userSpaceOnUse"
       id="clipPath4">
      <path
         d="M 0,0.16 V 1122.5601 H 793.59998 V 0.16 Z"
         transform="translate(-3.3333333e-6)"
         clip-rule="evenodd"
         id="path4" />
    </clipPath>
    <clipPath
       clipPathUnits="userSpaceOnUse"
       id="clipPath6">
      <path
         d="M 0,0.16 V 1122.5601 H 793.59998 V 0.16 Z"
         transform="translate(-263.35999,-607.67999)"
         clip-rule="evenodd"
         id="path6" />
    </clipPath>
    <clipPath
       clipPathUnits="userSpaceOnUse"
       id="clipPath8">
      <path
         d="M 0,0.16 V 1122.5601 H 793.59998 V 0.16 Z"
         transform="translate(-3.3333333e-6)"
         clip-rule="evenodd"
         id="path8" />
    </clipPath>
  </defs>
  <sodipodi:namedview
     id="namedview1"
     pagecolor="#505050"
     bordercolor="#eeeeee"
     borderopacity="1"
     inkscape:showpageshadow="0"
     inkscape:pageopacity="0"
     inkscape:pagecheckerboard="0"
     inkscape:deskcolor="#505050">
    <inkscape:page
       x="0"
       y="0"
       inkscape:label="1"
       id="page1"
       width="336.18668"
       height="505.89334"
       margin="0"
       bleed="0" />
  </sodipodi:namedview>
  <g
     id="g1"
     inkscape:groupmode="layer"
     inkscape:label="1">
    <path
       id="path1"
       d="m 260.95999,425.76001 h 271.84"
       style="fill:none;stroke:#000000;stroke-width:26.4;stroke-linecap:round;stroke-linejoin:round;stroke-miterlimit:10;stroke-dasharray:none;stroke-opacity:1"
       transform="translate(-229.45333,-308.33339)"
       clip-path="url(#clipPath2)" />
    <path
       id="path3"
       d="m 260.95999,425.76001 90.56,-90.72"
       style="fill:none;stroke:#000000;stroke-width:26.4;stroke-linecap:round;stroke-linejoin:round;stroke-miterlimit:10;stroke-dasharray:none;stroke-opacity:1"
       transform="translate(-229.45333,-308.33339)"
       clip-path="url(#clipPath4)" />
    <path
       id="path5"
       d="m 0,0 -2.08,7.52 -1.6,7.68 -1.12,7.679999 -0.8,7.84 -0.32,7.840002 0.16,7.840001 0.48,7.68 0.96,7.839996 1.44,7.68 1.92,7.520005 2.24,7.519996 L 4,92 l 3.04,7.199997 3.52,7.040003 3.84,6.72 4.319999,6.56 4.640002,6.4 4.959999,5.92 5.279998,5.76001 5.600003,5.43998 5.919998,5.12001 6.240002,4.80001 6.399997,4.47999 6.720005,4 6.879998,3.67999 7.040001,3.36001 7.36,2.88 7.360001,2.56 7.519997,1.92 7.68,1.76001 7.68,1.11999 7.84,0.8 7.83999,0.32 7.84001,-0.16001 7.68,-0.47999 7.83999,-1.12 7.68001,-1.28 7.67999,-1.92 7.36,-2.24 7.36,-2.72 7.20002,-3.2 7.03999,-3.36 6.72,-4 6.56,-4.16 6.39999,-4.64 5.92002,-4.95999 5.75999,-5.28 5.44,-5.60001 5.28,-5.92 4.64,-6.24 4.48,-6.4 4.16,-6.72 3.67999,-6.88 3.20002,-7.199999 2.88,-7.199997 2.56,-7.360001 1.91998,-7.68 1.76001,-7.520005 1.12,-7.84 0.80001,-7.679996 0.31998,-7.84 -0.16,-7.84 -0.47998,-7.840003 -1.12,-7.68 L 269.76001,11.04 268,3.52 265.76001,-4 l -2.72,-7.36 -3.20001,-7.199999 -3.35999,-6.880002 L 252.48,-32.32 l -4.15999,-6.560001 -4.64002,-6.239998 -4.95999,-6.080002 -5.28,-5.759998 -5.6,-5.440003 -5.92,-5.119995 -6.24001,-4.800003 -6.39999,-4.480003 -6.72,-4 -6.88001,-3.68 -7.19999,-3.359993 -7.2,-2.880005"
       style="fill:none;stroke:#000000;stroke-width:26.4;stroke-linecap:round;stroke-linejoin:round;stroke-miterlimit:10;stroke-dasharray:none;stroke-opacity:1"
       transform="translate(33.906652,299.3466)"
       clip-path="url(#clipPath6)" />
    <path
       id="path7"
       d="m 532.79999,425.76001 -90.72,90.56"
       style="fill:none;stroke:#000000;stroke-width:26.4;stroke-linecap:round;stroke-linejoin:round;stroke-miterlimit:10;stroke-dasharray:none;stroke-opacity:1"
       transform="translate(-229.45333,-308.33339)"
       clip-path="url(#clipPath8)" />
  </g>
</svg>
