<?xml version="1.0" encoding="UTF-8" standalone="no"?>
<!-- Created with Inkscape (http://www.inkscape.org/) -->

<svg
   version="1.1"
   id="svg1"
   width="505.60001"
   height="396.44"
   viewBox="0 0 505.60001 396.44"
   sodipodi:docname="Steel18.pdf"
   xmlns:inkscape="http://www.inkscape.org/namespaces/inkscape"
   xmlns:sodipodi="http://sodipodi.sourceforge.net/DTD/sodipodi-0.dtd"
   xmlns="http://www.w3.org/2000/svg"
   xmlns:svg="http://www.w3.org/2000/svg">
  <defs
     id="defs1">
    <clipPath
       clipPathUnits="userSpaceOnUse"
       id="clipPath2">
      <path
         d="M 0,0.16 V 1122.5601 H 793.59998 V 0.16 Z"
         transform="translate(-451.04001,-561.28003)"
         clip-rule="evenodd"
         id="path2" />
    </clipPath>
    <clipPath
       clipPathUnits="userSpaceOnUse"
       id="clipPath4">
      <path
         d="M 0,0.16 V 1122.5601 H 793.59998 V 0.16 Z"
         transform="translate(3.3333333e-6)"
         clip-rule="evenodd"
         id="path4" />
    </clipPath>
    <clipPath
       clipPathUnits="userSpaceOnUse"
       id="clipPath6">
      <path
         d="M 0,0.16 V 1122.5601 H 793.59998 V 0.16 Z"
         transform="translate(3.3333333e-6)"
         clip-rule="evenodd"
         id="path6" />
    </clipPath>
    <clipPath
       clipPathUnits="userSpaceOnUse"
       id="clipPath8">
      <path
         d="M 0,0.16 V 1122.5601 H 793.59998 V 0.16 Z"
         transform="translate(3.3333333e-6)"
         clip-rule="evenodd"
         id="path8" />
    </clipPath>
    <clipPath
       clipPathUnits="userSpaceOnUse"
       id="clipPath10">
      <path
         d="M 0,0.16 V 1122.5601 H 793.59998 V 0.16 Z"
         transform="translate(3.3333333e-6)"
         clip-rule="evenodd"
         id="path10" />
    </clipPath>
    <clipPath
       clipPathUnits="userSpaceOnUse"
       id="clipPath12">
      <path
         d="M 0,0.16 V 1122.5601 H 793.59998 V 0.16 Z"
         transform="translate(3.3333333e-6)"
         clip-rule="evenodd"
         id="path12" />
    </clipPath>
    <clipPath
       clipPathUnits="userSpaceOnUse"
       id="clipPath14">
      <path
         d="M 0,0.16 V 1122.5601 H 793.59998 V 0.16 Z"
         transform="translate(-624.79999,-648)"
         clip-rule="evenodd"
         id="path14" />
    </clipPath>
  </defs>
  <sodipodi:namedview
     id="namedview1"
     pagecolor="#505050"
     bordercolor="#eeeeee"
     borderopacity="1"
     inkscape:showpageshadow="0"
     inkscape:pageopacity="0"
     inkscape:pagecheckerboard="0"
     inkscape:deskcolor="#505050">
    <inkscape:page
       x="0"
       y="0"
       inkscape:label="1"
       id="page1"
       width="505.60001"
       height="396.44"
       margin="0"
       bleed="0" />
  </sodipodi:namedview>
  <g
     id="g1"
     inkscape:groupmode="layer"
     inkscape:label="1">
    <path
       id="path1"
       d="M 0,0 -8.64,0.16 -17.440001,0.48 -26.24,0.96 -34.880001,1.76 -43.52,2.72 -51.84,4 l -8.32,1.44 -8.320003,1.6 -8,1.92 -7.680001,1.92 -7.679992,2.24 -7.360001,2.4 -7.040003,2.72 -6.88,2.719999 -6.4,2.880001 -6.24,3.200001 -5.91999,3.199999 -5.60001,3.519998 -5.11999,3.520001 -4.96001,3.68 -4.48,3.68 -4,4 -3.68,4 -3.2,4 -2.88001,4.16 -2.39999,4.320004 -2.08,4.319999 -1.44,4.32 -1.12,4.32 -0.8,4.32 -0.16001,4.479995 0.16001,4.32 0.8,4.480003 1.12,4.32 1.44,4.32 2.08,4.32 2.39999,4.16 2.88001,4.16 3.2,4.16 3.68,4 4,3.84001 4.48,3.83999 4.96001,3.68 5.11999,3.52 5.60001,3.36 5.91999,3.36 6.24,3.03999 6.4,3.04001 6.88,2.72 7.040003,2.56 7.360001,2.56 7.679992,2.08 7.680001,2.08 8,1.92 8.320003,1.60001 8.32,1.43998 8.32,1.12001 8.639999,1.12 8.640001,0.64 8.799999,0.64 8.800001,0.32001 8.8,0.15998 8.8,-0.15998 8.64,-0.32001 8.8,-0.64 8.640001,-0.64 8.639999,-1.12 8.48,-1.12001 8.32,-1.43998 8.159999,-1.60001 8,-1.92 7.680001,-2.08 7.68,-2.08 7.360001,-2.56 7.039999,-2.56 6.88,-2.72 6.4,-3.04001 6.24,-3.03999 5.92,-3.36 5.6,-3.36 5.28,-3.52 4.8,-3.68 4.48,-3.83999 4,-3.84001 3.67999,-4 3.20001,-4.16 2.87999,-4.16 2.40001,-4.16 2.08,-4.32 1.6,-4.32 1.12001,-4.32 0.64,-4.480003 0.15998,-4.479996"
       style="fill:none;stroke:#000000;stroke-width:26.4;stroke-linecap:round;stroke-linejoin:round;stroke-miterlimit:10;stroke-dasharray:none;stroke-opacity:1"
       transform="translate(300.29334,194.2133)"
       clip-path="url(#clipPath2)" />
    <path
       id="path3"
       d="M 451.20001,474.39999 H 190.56"
       style="fill:none;stroke:#000000;stroke-width:26.4;stroke-linecap:round;stroke-linejoin:round;stroke-miterlimit:10;stroke-dasharray:none;stroke-opacity:1"
       transform="translate(-150.74667,-367.06673)"
       clip-path="url(#clipPath4)" />
    <path
       id="path5"
       d="m 451.20001,561.28003 h 86.71997"
       style="fill:none;stroke:#000000;stroke-width:26.4;stroke-linecap:round;stroke-linejoin:round;stroke-miterlimit:10;stroke-dasharray:none;stroke-opacity:1"
       transform="translate(-150.74667,-367.06673)"
       clip-path="url(#clipPath6)" />
    <path
       id="path7"
       d="M 451.20001,561.28003 V 387.67999"
       style="fill:none;stroke:#000000;stroke-width:26.4;stroke-linecap:round;stroke-linejoin:round;stroke-miterlimit:10;stroke-dasharray:none;stroke-opacity:1"
       transform="translate(-150.74667,-367.06673)"
       clip-path="url(#clipPath8)" />
    <path
       id="path9"
       d="M 190.56,561.28003 V 387.67999"
       style="fill:none;stroke:#000000;stroke-width:26.4;stroke-linecap:round;stroke-linejoin:round;stroke-miterlimit:10;stroke-dasharray:none;stroke-opacity:1"
       transform="translate(-150.74667,-367.06673)"
       clip-path="url(#clipPath10)" />
    <path
       id="path11"
       d="m 168.96001,561.28003 h 43.36"
       style="fill:none;stroke:#000000;stroke-width:26.4;stroke-linecap:round;stroke-linejoin:round;stroke-miterlimit:10;stroke-dasharray:none;stroke-opacity:1"
       transform="translate(-150.74667,-367.06673)"
       clip-path="url(#clipPath12)" />
    <path
       id="path13"
       d="M 0,0 -0.16,-8.64 -0.8,-17.440001 -1.92,-26.08 l -1.6,-8.800001 -2.08,-8.48 L -8,-51.84 l -2.88,-8.32 -3.2,-8.16 -3.68,-8 -4,-7.840004 L -26.24,-91.68 -31.040001,-99.040001 -36.32,-106.24 l -5.599998,-6.72 -5.920002,-6.56 -6.240002,-6.24 -6.399998,-5.91999 -6.880001,-5.60001 -7.040001,-5.11999 -7.36,-4.80001 -7.68,-4.47999 -7.680001,-4.16001 -7.999997,-3.68 -8.16,-3.2 -8.32,-2.88001 -8.48,-2.39999 -8.64,-1.92 -8.64,-1.6 -8.8,-1.12 -8.64,-0.64 -8.95999,-0.32001"
       style="fill:none;stroke:#000000;stroke-width:26.4;stroke-linecap:round;stroke-linejoin:round;stroke-miterlimit:10;stroke-dasharray:none;stroke-opacity:1"
       transform="translate(474.05332,280.93327)"
       clip-path="url(#clipPath14)" />
  </g>
</svg>
