<?xml version="1.0" encoding="UTF-8" standalone="no"?>
<!-- Created with Inkscape (http://www.inkscape.org/) -->

<svg
   version="1.1"
   id="svg1"
   width="206.77333"
   height="493.86667"
   viewBox="0 0 206.77333 493.86667"
   sodipodi:docname="Steel12.pdf"
   xmlns:inkscape="http://www.inkscape.org/namespaces/inkscape"
   xmlns:sodipodi="http://sodipodi.sourceforge.net/DTD/sodipodi-0.dtd"
   xmlns="http://www.w3.org/2000/svg"
   xmlns:svg="http://www.w3.org/2000/svg">
  <defs
     id="defs1">
    <clipPath
       clipPathUnits="userSpaceOnUse"
       id="clipPath2">
      <path
         d="M 0,0.16 V 1122.5601 H 793.59998 V 0.16 Z"
         transform="translate(-475.20001,-484)"
         clip-rule="evenodd"
         id="path2" />
    </clipPath>
    <clipPath
       clipPathUnits="userSpaceOnUse"
       id="clipPath4">
      <path
         d="M 0,0.16 V 1122.5601 H 793.59998 V 0.16 Z"
         transform="translate(-318.39999,-713.44)"
         clip-rule="evenodd"
         id="path4" />
    </clipPath>
    <clipPath
       clipPathUnits="userSpaceOnUse"
       id="clipPath6">
      <path
         d="M 0,0.16 V 1122.5601 H 793.59998 V 0.16 Z"
         clip-rule="evenodd"
         id="path6" />
    </clipPath>
    <clipPath
       clipPathUnits="userSpaceOnUse"
       id="clipPath8">
      <path
         d="M 0,0.16 V 1122.5601 H 793.59998 V 0.16 Z"
         clip-rule="evenodd"
         id="path8" />
    </clipPath>
  </defs>
  <sodipodi:namedview
     id="namedview1"
     pagecolor="#505050"
     bordercolor="#eeeeee"
     borderopacity="1"
     inkscape:showpageshadow="0"
     inkscape:pageopacity="0"
     inkscape:pagecheckerboard="0"
     inkscape:deskcolor="#505050">
    <inkscape:page
       x="0"
       y="0"
       inkscape:label="1"
       id="page1"
       width="206.77333"
       height="493.86667"
       margin="0"
       bleed="0" />
  </sodipodi:namedview>
  <g
     id="g1"
     inkscape:groupmode="layer"
     inkscape:label="1">
    <path
       id="path1"
       d="m 0,0 -3.04,-4.48 -3.36,-4.16 -3.68,-4 -4,-3.52 -4.32,-3.52 -4.319999,-3.039999 -4.800001,-2.720002 -4.8,-2.399999 -4.959999,-2.08 -5.120003,-1.6 -5.279998,-1.279999 -5.279999,-0.959999 -5.440003,-0.640004 -5.439998,-0.159999 -5.439999,0.319999 -5.279999,0.640004 -5.440002,0.959999 -5.120003,1.279998 -5.119995,1.760001 -4.959999,2.239999 -4.960003,2.400002 -4.48,2.719999 -4.48,3.199999 -4.16,3.360001 -4,3.84 -3.68,4 -3.36,4.16 -3.04,4.48 -2.72,4.64 -2.24001,4.96 -2.07998,4.96 -1.60001,5.12 -1.28,5.28 -0.96,5.280001 -0.48,5.439999 -0.16,5.439998 0.32,5.440003 0.64,5.279998 0.95999,5.279999 1.44001,5.280003 1.76001,5.119999 2.08,4.959999 2.56,4.800003 2.71999,4.639999 3.2,4.32 3.52,4.32 3.68,3.839996 4,3.68 4.32,3.200003 4.48,3.04 4.640002,2.72 4.96,2.4 4.959999,1.92 5.120002,1.6 5.279999,1.28"
       style="fill:none;stroke:#000000;stroke-width:26.4;stroke-linecap:round;stroke-linejoin:round;stroke-miterlimit:10;stroke-dasharray:none;stroke-opacity:1"
       transform="translate(187.04001,168.98661)"
       clip-path="url(#clipPath2)" />
    <path
       id="path3"
       d="m 0,0 3.04,4.64 3.52,4.16 3.68,4 3.84,3.68 4.32,3.52 4.319999,3.040001 4.640002,2.719999 4.959999,2.56 4.959999,2.08 5.120003,1.76 5.279998,1.279999 5.279999,0.960003 5.440003,0.639999 5.439998,0.16 5.439999,-0.16 5.279999,-0.639999 L 80,33.439999 85.120003,32.16 90.400002,30.4 95.360001,28.32 100.16,25.92 104.8,23.040001 109.28,20 l 4.16,-3.52 4,-3.68 3.68,-4 3.36,-4.16 3.04,-4.48 2.72,-4.64 2.4,-4.96 2.08,-4.96 1.76,-5.12 1.27999,-5.279999 0.96001,-5.440001 0.48,-5.28 0.16,-5.439999 -0.32001,-5.440003 -0.64,-5.439998 -0.95999,-5.279999 -1.44,-5.280003 -1.76,-5.119995 -2.08,-4.960006 -2.55999,-4.799996 -2.72001,-4.639999 -3.2,-4.480004 -3.52,-4.159996 -3.68,-3.840004 -4,-3.68 -4.32,-3.359998 -4.48,-3.04 -4.639999,-2.72 -4.959999,-2.24 -4.959999,-2.08 -5.280007,-1.6 -5.279998,-1.28"
       style="fill:none;stroke:#000000;stroke-width:26.4;stroke-linecap:round;stroke-linejoin:round;stroke-miterlimit:10;stroke-dasharray:none;stroke-opacity:1"
       transform="translate(30.239994,398.42661)"
       clip-path="url(#clipPath4)" />
    <path
       id="path5"
       d="M 321.44,787.84003 453.60001,334.72"
       style="fill:none;stroke:#000000;stroke-width:26.4;stroke-linecap:round;stroke-linejoin:round;stroke-miterlimit:10;stroke-dasharray:none;stroke-opacity:1"
       transform="translate(-288.16,-315.01339)"
       clip-path="url(#clipPath6)" />
    <path
       id="path7"
       d="m 396.95999,381.92001 75.52002,18.87998"
       style="fill:none;stroke:#000000;stroke-width:26.4;stroke-linecap:round;stroke-linejoin:round;stroke-miterlimit:10;stroke-dasharray:none;stroke-opacity:1"
       transform="translate(-288.16,-315.01339)"
       clip-path="url(#clipPath8)" />
  </g>
</svg>
